<?xml version="1.0" standalone="no"?>
<!DOCTYPE svg PUBLIC "-//W3C//DTD SVG 1.1//EN" "http://www.w3.org/Graphics/SVG/1.1/DTD/svg11.dtd" >
<svg>
<metadata>
Created by FontForge 20120731 at Mon Jul 14 22:19:34 2014
 By tom,,,
Copyright 2003, 2009 B. Jackowski and J. M. Nowacki (on behalf of TeX users groups). This work is released under the GUST Font License --  see http://tug.org/fonts/licenses/GUST-FONT-LICENSE.txt for details.
</metadata>
<defs>
<font id="lmmono12-regular" horiz-adv-x="515" >
  <font-face 
    font-family="LM Mono 12"
    font-weight="400"
    font-stretch="normal"
    units-per-em="1000"
    panose-1="0 0 5 9 0 0 0 0 0 0"
    ascent="778"
    descent="-222"
    x-height="431"
    cap-height="611"
    bbox="-444 -311 715 1019"
    underline-thickness="78"
    underline-position="-122"
    unicode-range="U+0020-F7A2"
  />
<missing-glyph horiz-adv-x="280" 
 />
    <glyph glyph-name=".notdef" horiz-adv-x="280" 
 />
    <glyph glyph-name=".null" horiz-adv-x="0" 
 />
    <glyph glyph-name="nonmarkingreturn" horiz-adv-x="333" 
 />
    <glyph glyph-name="space" unicode=" " 
 />
    <glyph glyph-name="exclam" unicode="!" 
d="M302 570l-5 -186l-4 -177q-1 -18 -7 -25.5t-29 -7.5q-25 0 -30.5 10.5t-6.5 54.5l-8 331q0 22 10 35t18.5 15.5t16.5 2.5t16 -2t18.5 -15t10.5 -36zM302 45q0 -19 -13 -32t-32 -13t-32 13t-13 32t13 32t32 13t32 -13t13 -32z" />
    <glyph glyph-name="quotedbl" unicode="&#x22;" 
d="M210 568l-10 -203q-3 -39 -30 -39q-26 0 -29 37l-11 207q-1 14 3 24t9 15t12 7.5t10.5 3t5.5 0.5q42 0 40 -52zM384 569l-11 -206q-3 -37 -29 -37q-27 0 -30 40l-11 213q-1 3 1.5 12.5t13 19t26.5 9.5q7 0 15 -2t17 -14.5t8 -34.5z" />
    <glyph glyph-name="numbersign" unicode="#" 
d="M480 197q0 -32 -45 -32h-77l-16 -126q-6 -39 -33 -39q-6 0 -12 1.5t-14.5 12.5t-5.5 31l16 120h-108l-16 -126q-6 -39 -33 -39q-6 0 -12 1.5t-14.5 12.5t-5.5 31l16 120h-41q-45 0 -45 33q0 32 45 32h50l18 151h-68q-45 0 -45 33q0 32 45 32h77l16 126q6 39 33 39
q15 0 25 -11t7 -34l-16 -120h108l16 126q6 39 33 39q15 0 25 -11t7 -34l-16 -120h41q45 0 45 -33q0 -32 -45 -32h-50l-18 -151h68q45 0 45 -33zM320 381h-108l-18 -151h108z" />
    <glyph glyph-name="dollar" unicode="$" 
d="M457 170q0 -63 -46.5 -113t-124.5 -61v-38q0 -41 -29 -41t-29 41v37q-88 9 -129.5 59.5t-41.5 110.5q0 21 10.5 32t17.5 12.5t13 1.5q15 0 27.5 -11t12.5 -30t-13 -29q17 -74 103 -87v237q-48 9 -83 28t-51 37.5t-25.5 42t-10.5 34t-1 20.5q0 58 46.5 105.5t124.5 56.5
v38q0 41 29 41t29 -41v-37q45 -5 78.5 -20t50.5 -33t27 -40.5t12.5 -37t2.5 -28.5q0 -19 -10 -30.5t-17.5 -13t-13.5 -1.5q-15 0 -27.5 11t-12.5 30t13 29q-18 65 -103 75v-212q91 -18 131 -69t40 -106zM228 357v200q-48 -8 -79.5 -36t-31.5 -64t31 -63.5t80 -36.5zM397 167
q0 41 -32 72t-79 39v-223q51 9 81 41t30 71z" />
    <glyph glyph-name="percent" unicode="%" 
d="M206 560q0 -56 -24.5 -94.5t-61.5 -38.5q-36 0 -61 38.5t-25 95.5q0 56 24.5 94.5t61.5 38.5q36 0 61 -38.5t25 -95.5zM426 661q0 -5 -6 -21l-266 -694q-11 -29 -33 -29q-13 0 -23 9.5t-10 23.5q0 4 6 21l266 694q12 29 34 29q12 0 22 -9t10 -24zM480 50
q0 -56 -24.5 -94.5t-61.5 -38.5t-61.5 38.5t-24.5 94.5t24.5 94.5t61.5 38.5t61.5 -38.5t24.5 -94.5zM150 561q0 31 -10 52.5t-20 21.5t-20 -21t-10 -54q0 -31 10 -52.5t20 -21.5t20 21t10 54zM424 50q0 32 -10 53t-20 21t-20 -21t-10 -53t10 -53t20 -21t20 21t10 53z" />
    <glyph glyph-name="ampersand" unicode="&#x26;" 
d="M481 402q0 -29 -40 -29h-27l-51 -137q-24 -64 -54 -117l-5 -12q0 -3 12 -17.5t32 -29t36 -14.5q33 0 37 61q2 31 28 31q4 0 9 -1t12 -9.5t7 -22.5q0 -42 -23.5 -79.5t-68.5 -37.5q-58 0 -115 69q-53 -69 -122 -69q-54 0 -87 44t-33 102q0 63 40 109l61 70q-28 87 -28 167
q0 67 30.5 105t72.5 38q47 0 69 -40.5t22 -94.5q0 -34 -16.5 -70t-33.5 -58t-51 -61q19 -48 73 -140q26 47 87 214q-41 0 -41 29t41 29h87q40 0 40 -29zM239 488v8.5t-2 18.5t-5.5 23t-10.5 18.5t-17 8.5q-19 0 -33 -22.5t-14 -63.5q0 -57 16 -115q66 76 66 124zM235 106
q-45 68 -81 146q-27 -29 -36.5 -41t-17 -30.5t-7.5 -43.5q0 -31 13 -61t43 -30q45 0 86 60z" />
    <glyph glyph-name="quotesingle" unicode="'" 
d="M297 566l-10 -205q-1 -35 -30 -35q-28 0 -30 36l-10 204q-3 54 40 54q44 0 40 -54z" />
    <glyph glyph-name="parenleft" unicode="(" 
d="M428 -57q0 -9 -6.5 -17.5t-22.5 -8.5q-21 0 -67 38.5t-80 86.5q-82 115 -82 263q0 149 84 266q33 47 79 85t66 38q29 0 29 -26q0 -9 -4 -13.5t-17 -13.5q-95 -66 -133.5 -157t-38.5 -179q0 -55 13 -109t53.5 -118t105.5 -108q19 -19 21 -27z" />
    <glyph glyph-name="parenright" unicode=")" 
d="M344 305q0 -146 -84 -265q-33 -47 -79 -85t-66 -38q-15 0 -22 8.5t-7 17.5t4.5 14t16.5 13q51 35 87 80.5t53.5 92t24.5 86t7 77.5q0 93 -41 183t-127 150q-15 10 -20 15.5t-5 13.5q0 9 7 17.5t22 8.5q21 0 65.5 -38t72.5 -75q91 -123 91 -276z" />
    <glyph glyph-name="asterisk" unicode="*" 
d="M447 213q0 -13 -10 -22t-21 -9q-9 0 -33 16l-99 61l3 -139q0 -13 -9 -21.5t-21 -8.5t-21 8.5t-9 21.5q0 58 2 75l1 64l-111 -69q-16 -8 -21 -8q-11 0 -21 9t-10 22q0 19 21 30l116 63l-116 62q-21 10 -21 30q0 13 10 22t21 9q5 0 21 -8l111 -69l-2 101q-1 9 -1 38
q0 13 9 21.5t21 8.5t21 -8.5t9 -21.5l-3 -139l111 69q16 8 21 8q11 0 21 -9t10 -22q0 -20 -21 -30l-116 -63q87 -44 121 -65q16 -11 16 -27z" />
    <glyph glyph-name="plus" unicode="+" 
d="M477 305q0 -32 -45 -32h-142v-143q0 -45 -33 -45q-32 0 -32 45v143h-143q-45 0 -45 33q0 32 45 32h143v143q0 45 33 45q32 0 32 -45v-143h142q45 0 45 -33z" />
    <glyph glyph-name="comma" unicode="," 
d="M335 18q0 -38 -15.5 -70t-37.5 -49.5t-41.5 -27.5t-31.5 -10t-21.5 10t-9.5 20q0 21 24 26q64 22 74 86q-9 -3 -19 -3q-23 0 -39.5 16t-16.5 41q0 22 15.5 39t41.5 17q33 0 55 -27.5t22 -67.5z" />
    <glyph glyph-name="hyphen" unicode="-" 
d="M459 305q0 -32 -45 -32h-314q-45 0 -45 33q0 32 45 32h314q45 0 45 -33z" />
    <glyph glyph-name="period" unicode="." 
d="M314 56q0 -22 -16.5 -39t-40.5 -17q-23 0 -39.5 17t-16.5 39q0 24 16.5 40.5t40.5 16.5q22 0 39 -16.5t17 -40.5z" />
    <glyph glyph-name="slash" unicode="/" 
d="M457 661q0 -7 -6 -21l-328 -696q-12 -27 -34 -27q-12 0 -22 9t-10 24q0 7 6 21l328 696q13 27 34 27q12 0 22 -9t10 -24z" />
    <glyph glyph-name="zero" unicode="0" 
d="M464 305q0 -135 -61.5 -226t-145.5 -91q-83 0 -145 91t-62 227q0 135 61.5 226t145.5 91q83 0 145 -91t62 -227zM399 316q0 108 -42.5 178.5t-99.5 70.5t-99.5 -70.5t-42.5 -178.5q0 -112 41.5 -191t100.5 -79t100.5 79.5t41.5 190.5z" />
    <glyph glyph-name="one" unicode="1" 
d="M433 29q0 -29 -41 -29h-241q-41 0 -41 29t41 29h88v429l-3 -3q-4 -3 -9 -6.5t-12 -8.5t-15.5 -9.5t-18 -8t-21.5 -6t-23 -2.5q-32 0 -32 29q0 27 36 29q63 5 105 100q10 22 29 22q29 0 29 -41v-524h88q41 0 41 -29z" />
    <glyph glyph-name="two" unicode="2" 
d="M463 41q0 -35 -22 -41h-349q-41 0 -41 29q0 13 14 24l220 191q113 98 113 185q0 63 -46.5 99.5t-113.5 36.5q-43 0 -75 -24t-43 -64q12 -10 12 -29t-12.5 -30t-27.5 -11q-6 0 -13.5 2t-17.5 13t-10 30q0 66 55 118.5t138 52.5q94 0 156.5 -54.5t62.5 -139.5
q0 -110 -115 -209l-191 -162h241q0 16 1 23.5t9 14.5t23 7t22.5 -7.5t8.5 -14t1 -19.5v-21z" />
    <glyph glyph-name="three" unicode="3" 
d="M471 173q0 -74 -59.5 -129.5t-151.5 -55.5t-154.5 43t-62.5 108q0 22 12 33t29 11t28.5 -12t11.5 -28q0 -12 -7 -24l-2 -5q0 -9 14.5 -24t50 -29.5t80.5 -14.5q64 0 105 38.5t41 89.5q0 47 -39 87t-111 40h-46q-12 0 -18 1t-13 8t-7 20q0 26 25 29q1 0 7.5 0.5t20 1.5
t29.5 2q68 5 96 44t28 75q0 35 -33.5 59t-84.5 24q-84 0 -116 -40q8 -10 8 -26q0 -19 -12.5 -30t-27.5 -11t-28 10.5t-13 32.5q0 55 52.5 88.5t136.5 33.5q79 0 131 -41t52 -99q0 -42 -22 -82.5t-66 -67.5q60 -26 88 -70.5t28 -89.5z" />
    <glyph glyph-name="four" unicode="4" 
d="M485 197q0 -29 -40 -29h-75v-110h60q40 0 40 -29t-40 -29h-176q-40 0 -40 29t40 29h60v110h-245q-22 0 -31 7t-9 32q0 20 9 33l227 365q9 14 15.5 17t25.5 3h23q25 0 33 -8t8 -33v-358h75q40 0 40 -29zM314 226v350l-218 -350h218z" />
    <glyph glyph-name="five" unicode="5" 
d="M463 190q0 -84 -64 -143t-155 -59q-81 0 -137 46t-56 110q0 18 9 28.5t17 13t15 2.5q14 0 27 -11t13 -30q0 -18 -11 -29q13 -34 47.5 -53t75.5 -19q63 0 108.5 42t45.5 102q0 56 -35 99t-91 43q-82 0 -126 -51q-12 -15 -28 -15q-30 0 -30 39v267q0 23 8 31t32 8h260
q40 0 40 -29t-40 -29h-235v-192q53 29 119 29q84 0 137.5 -60.5t53.5 -139.5z" />
    <glyph glyph-name="six" unicode="6" horiz-adv-x="514" 
d="M461 193q0 -88 -60 -146.5t-142 -58.5q-38 0 -72.5 15.5t-65.5 49t-49.5 97t-18.5 149.5q0 145 79 234.5t183 89.5q63 0 96.5 -28.5t33.5 -71.5q0 -18 -11 -30t-30 -12q-18 0 -29 12t-11 28q0 15 8 25q-18 19 -58 19q-74 0 -131 -67t-64 -165q61 65 151 65q79 0 135 -59
t56 -146zM396 193q0 60 -38 103t-95 43q-59 0 -97.5 -35t-38.5 -81q0 -28 3 -40q32 -137 129 -137q56 0 96.5 41.5t40.5 105.5z" />
    <glyph glyph-name="seven" unicode="7" 
d="M471 582q0 -13 -15 -27q-104 -106 -162.5 -241t-60.5 -281q0 -45 -32 -45q-33 0 -33 45q0 37 5.5 81t23.5 119t63.5 160t113.5 160h-266q0 -16 -1 -23.5t-9 -14.5t-23 -7t-22.5 7.5t-8.5 14t-1 19.5v36q0 13 1 20t9 14t23 7q10 0 17.5 -4t9.5 -8l2 -3h326q40 0 40 -29z
" />
    <glyph glyph-name="eight" unicode="8" 
d="M471 173q0 -75 -62 -130t-152 -55t-152 55t-62 130q0 47 34.5 91t104.5 66q-58 17 -91.5 53t-33.5 80q0 64 57.5 112t142.5 48t142.5 -48t57.5 -112q0 -43 -33 -79t-92 -54q71 -22 105 -66t34 -91zM392 462q0 42 -39 72.5t-96 30.5t-96 -30.5t-39 -72.5t38.5 -72.5
t96.5 -30.5q57 0 96 31t39 72zM406 174q0 51 -43.5 89t-105.5 38t-105.5 -37.5t-43.5 -90.5q0 -51 43 -89t106 -38t106 37.5t43 90.5z" />
    <glyph glyph-name="nine" unicode="9" horiz-adv-x="514" 
d="M461 311q0 -142 -73.5 -232.5t-176.5 -90.5q-74 0 -108 29t-34 71q0 18 11 30t30 12q18 0 29 -12t11 -28q0 -14 -8 -24q21 -20 70 -20q71 0 123.5 66t59.5 166q-59 -65 -151 -65q-79 0 -135 59t-56 146q0 88 61.5 146.5t145.5 58.5q36 0 68.5 -14.5t64 -47t50 -97
t18.5 -153.5zM387 389q0 32 -7 60q-36 116 -120 116q-57 0 -99.5 -41.5t-42.5 -105.5q0 -60 38 -103t95 -43q58 0 97 35t39 82z" />
    <glyph glyph-name="colon" unicode=":" 
d="M314 374q0 -22 -16.5 -39t-40.5 -17q-23 0 -39.5 17t-16.5 39q0 24 16.5 40.5t40.5 16.5q22 0 39 -16.5t17 -40.5zM314 56q0 -22 -16.5 -39t-40.5 -17q-23 0 -39.5 17t-16.5 39q0 24 16.5 40.5t40.5 16.5q22 0 39 -16.5t17 -40.5z" />
    <glyph glyph-name="semicolon" unicode=";" 
d="M314 374q0 -22 -16.5 -39t-40.5 -17q-23 0 -39.5 17t-16.5 39q0 24 16.5 40.5t40.5 16.5q22 0 39 -16.5t17 -40.5zM319 20q0 -37 -14.5 -69.5t-34 -50.5t-36.5 -28.5t-25 -10.5q-12 0 -21.5 10t-9.5 20q0 17 19 26q51 25 62 83q-31 1 -44.5 19t-13.5 38q0 23 15.5 39.5
t40.5 16.5q27 0 44.5 -23t17.5 -70z" />
    <glyph glyph-name="less" unicode="&#x3c;" 
d="M459 90q0 -15 -10.5 -24t-22.5 -9q-6 0 -24 10l-328 209q-19 12 -19 30q0 19 19 30l329 208q11 8 21 9l2 1q12 0 22.5 -9t10.5 -24q0 -16 -21 -31l-290 -185l294 -186q17 -11 17 -29z" />
    <glyph glyph-name="equal" unicode="=" 
d="M477 381q0 -32 -43 -32h-354q-43 0 -43 32q0 33 48 33h344q48 0 48 -33zM477 230q0 -33 -48 -33h-344q-48 0 -48 33q0 32 43 32h354q43 0 43 -32z" />
    <glyph glyph-name="greater" unicode="&#x3e;" 
d="M459 305q0 -19 -19 -30l-329 -208q-11 -8 -21 -9l-2 -1q-12 0 -22.5 9t-10.5 24q0 16 21 31l290 185l-290 184q-21 15 -21 31q0 15 10.5 24t22.5 9q6 0 24 -10l328 -209q19 -12 19 -30z" />
    <glyph glyph-name="question" unicode="?" 
d="M453 491q0 -60 -62 -97q-113 -65 -113 -163v-18q0 -14 -1 -20.5t-9.5 -12.5t-25.5 -6q-25 0 -30.5 10t-5.5 40q0 26 3.5 45t16 50t45 62.5t83.5 61.5q34 19 34 48q0 28 -34 48t-107 20q-85 0 -114 -42q9 -11 9 -26q0 -20 -13 -30.5t-27 -10.5t-27.5 10t-13.5 33
q0 50 47.5 87t138.5 37q64 0 108.5 -14t64 -36t26.5 -40t7 -36zM287 45q0 -19 -13 -32t-32 -13t-32 13t-13 32t13 32t32 13t32 -13t13 -32z" />
    <glyph glyph-name="at" unicode="@" 
d="M471 79q0 -22 -53.5 -53.5t-117.5 -31.5q-105 0 -181 89.5t-76 222.5q0 132 76.5 221.5t178.5 89.5q173 0 173 -296q0 -60 -15 -105t-38.5 -67t-46 -32t-43.5 -10q-57 0 -99.5 56.5t-42.5 142.5q0 84 41.5 141t101.5 57q34 0 64 -21q-27 76 -94 76q-79 0 -139.5 -72.5
t-60.5 -181.5q0 -106 59.5 -179.5t141.5 -73.5q62 0 107 44q10 9 29 9q35 0 35 -26zM415 306q0 58 -26 99t-61 41q-33 0 -59.5 -40.5t-26.5 -100.5q0 -58 26 -99t61 -41q33 0 59.5 40.5t26.5 100.5z" />
    <glyph glyph-name="A" unicode="A" 
d="M487 29q0 -29 -41 -29h-96q-41 0 -41 29q0 20 13 24.5t42 4.5l-26 112h-162l-26 -112q20 0 29 -1t17.5 -7.5t8.5 -20.5q0 -29 -41 -29h-96q-41 0 -41 29q0 20 12.5 24.5t43.5 4.5l124 531q5 23 15 29.5t35 6.5q15 0 22.5 -1t16 -9.5t12.5 -25.5l123 -531q21 0 30.5 -1
t17.5 -7.5t8 -20.5zM325 228l-51 229q-14 62 -17 85h-1q-5 -49 -67 -314h136z" />
    <glyph glyph-name="B" unicode="B" 
d="M473 167q0 -65 -46 -116t-124 -51h-237q-40 0 -40 29t41 29h24v495h-24q-41 0 -41 29t40 29h217q78 0 123.5 -47.5t45.5 -107.5q0 -50 -32.5 -86t-74.5 -50q58 -13 93 -56t35 -97zM387 455q0 35 -25.5 66.5t-81.5 31.5h-124v-206h108q58 0 90.5 34t32.5 74zM408 169
q0 16 -5 34t-17 38.5t-38 34t-61 13.5h-131v-231h125q61 0 94 34.5t33 76.5z" />
    <glyph glyph-name="C" unicode="C" 
d="M474 169q0 -69 -57 -125t-141 -56q-96 0 -166 91.5t-70 226.5q0 133 69.5 225t166.5 92q71 0 129 -51q13 30 14 33q10 18 27 18q13 0 19.5 -7t7.5 -13.5t1 -17.5v-145q0 -13 -1 -19.5t-9 -12.5t-23 -6t-22.5 6t-9.5 22q-10 65 -46.5 100t-80.5 35q-70 0 -123.5 -74.5
t-53.5 -184.5q0 -111 53 -185.5t125 -74.5q12 0 27 3.5t38.5 15t40.5 41t20 72.5q3 22 32 22q33 0 33 -31z" />
    <glyph glyph-name="D" unicode="D" 
d="M476 300q0 -122 -60.5 -211t-154.5 -89h-199q-40 0 -40 29t40 29h20v495h-20q-40 0 -40 29t40 29h198q96 0 156 -92.5t60 -218.5zM411 301q0 61 -17.5 116.5t-57 95.5t-94.5 40h-95v-495h96q52 0 91.5 36t58 90.5t18.5 116.5z" />
    <glyph glyph-name="E" unicode="E" 
d="M493 41q0 -24 -8 -32.5t-32 -8.5h-384q-41 0 -41 29t41 29h27v495h-27q-41 0 -41 29t41 29h362q25 0 32.5 -8.5t7.5 -32.5v-66q0 -13 -1 -20t-9 -14t-23 -7t-22.5 7.5t-8.5 14t-1 19.5v49h-245v-207h132q0 22 1 31t8.5 16t23.5 7q15 0 22.5 -7.5t8.5 -14t1 -19.5v-84
q0 -13 -1 -19.5t-8.5 -14t-22.5 -7.5q-23 0 -28 11.5t-5 42.5h-132v-230h267v64q0 13 1 20t9 14t23 7t22.5 -7.5t8.5 -14t1 -19.5v-81z" />
    <glyph glyph-name="F" unicode="F" 
d="M480 504q0 -13 -1 -20t-9 -14t-23 -7t-22.5 7.5t-8.5 14t-1 19.5v49h-248v-218h136q0 22 1 31t8.5 16t23.5 7q15 0 22.5 -7.5t8.5 -14t1 -19.5v-84q0 -13 -1 -19.5t-8.5 -14t-22.5 -7.5q-23 0 -28 11.5t-5 42.5h-136v-219h48q40 0 40 -29t-40 -29h-143q-41 0 -41 29
t41 29h30v495h-30q-41 0 -41 29t41 29h368q25 0 32.5 -8.5t7.5 -32.5v-66z" />
    <glyph glyph-name="G" unicode="G" 
d="M486 241q0 -13 -8.5 -20t-16 -8t-21.5 -1v-174q0 -13 -1 -19.5t-8.5 -13.5t-22.5 -7q-16 0 -23.5 6.5t-8.5 14t-1 24.5q-51 -55 -119 -55q-90 0 -154.5 91t-64.5 227q0 135 64.5 226t154.5 91q64 0 117 -48l13 32q10 16 26 16q13 0 19.5 -7t7.5 -13.5t1 -17.5v-145
q0 -13 -1 -19.5t-9 -12.5t-23 -6q-29 0 -32 25q-9 70 -41.5 104t-72.5 34q-62 0 -110.5 -74.5t-48.5 -185.5q0 -110 47.5 -184.5t110.5 -74.5q38 0 64.5 30.5t36.5 64.5t13 71h-41q-41 0 -41 29t41 29h112q41 0 41 -29z" />
    <glyph glyph-name="H" unicode="H" 
d="M490 29q0 -29 -40 -29h-109q-41 0 -41 29t41 29h22v231h-212v-231h22q41 0 41 -29t-41 -29h-109q-40 0 -40 29t40 29h22v495h-22q-40 0 -40 29t40 29h109q41 0 41 -29t-41 -29h-22v-206h212v206h-22q-41 0 -41 29t41 29h109q40 0 40 -29t-40 -29h-22v-495h22q40 0 40 -29
z" />
    <glyph glyph-name="I" unicode="I" 
d="M432 29q0 -29 -40 -29h-269q-40 0 -40 29t40 29h102v495h-102q-40 0 -40 29t40 29h269q40 0 40 -29t-40 -29h-102v-495h102q40 0 40 -29z" />
    <glyph glyph-name="J" unicode="J" 
d="M468 582q0 -29 -41 -29h-27v-419q0 -67 -48.5 -106.5t-115.5 -39.5q-69 0 -114.5 31.5t-45.5 79.5q0 20 11.5 31.5t29.5 11.5q17 0 28.5 -12t11.5 -28q0 -14 -8 -24q28 -32 88 -32q11 0 23.5 2.5t31.5 11t31 29t12 51.5v413h-77q-40 0 -40 29t40 29h169q41 0 41 -29z" />
    <glyph glyph-name="K" unicode="K" 
d="M485 29q0 -29 -40 -29h-72q-40 0 -40 29t39 29l-139 252l-91 -116v-136h20q40 0 40 -29t-40 -29h-96q-40 0 -40 29t40 29h20v495h-20q-40 0 -40 29t40 29h96q40 0 40 -29t-40 -29h-20v-268l210 268q-40 0 -40 29t40 29h84q40 0 40 -29q0 -20 -12 -24.5t-40 -4.5
l-153 -195l165 -300q17 0 25 -1t16 -7.5t8 -20.5z" />
    <glyph glyph-name="L" unicode="L" 
d="M479 41q0 -24 -8 -32.5t-32 -8.5h-364q-41 0 -41 29t41 29h33v495h-33q-41 0 -41 29t41 29h150q40 0 40 -29t-40 -29h-52v-495h241v65q0 12 1 19t9 14t23 7t22.5 -7.5t8.5 -14t1 -18.5v-82z" />
    <glyph glyph-name="M" unicode="M" 
d="M497 29q0 -29 -41 -29h-76q-41 0 -41 29q0 14 8.5 20.5t17 7.5t25.5 1v481q-1 -9 -43 -142t-53 -167q-12 -26 -37 -26q-31 0 -40 36l-71 223q-14 42 -21 78h-1v-483q17 0 25.5 -1t17 -7.5t8.5 -20.5q0 -29 -41 -29h-76q-41 0 -41 29q0 14 8.5 20.5t17 7.5t25.5 1v495
q-17 0 -25.5 1t-17 7.5t-8.5 20.5q0 29 41 29h53q37 0 48 -23q2 -3 24 -70t45.5 -145.5t27.5 -100.5h1q5 27 35 122l58 179q7 22 16.5 30t36.5 8h53q41 0 41 -29q0 -14 -8.5 -20.5t-17 -7.5t-25.5 -1v-495q17 0 25.5 -1t17 -7.5t8.5 -20.5z" />
    <glyph glyph-name="N" unicode="N" 
d="M485 582q0 -29 -40 -29h-22v-512q0 -27 -8.5 -34t-33.5 -7q-14 0 -21.5 1t-17 9t-15.5 24l-149 420q-26 75 -30 88h-1v-484h22q41 0 41 -29t-41 -29h-100q-40 0 -40 29t40 29h22v495h-22q-40 0 -40 29t40 29h65q14 0 21 -1t16.5 -9t15.5 -24l149 -420q26 -75 30 -88h1
v484h-22q-41 0 -41 29t41 29h100q40 0 40 -29z" />
    <glyph glyph-name="O" unicode="O" 
d="M459 305q0 -58 -1 -97t-5.5 -74.5t-9.5 -56.5t-17 -39t-25 -26.5t-36 -14.5t-47 -7.5t-61 -1.5t-61 1.5t-47 7.5t-36 14.5t-25 26.5t-17 39t-9.5 57t-5.5 74.5t-1 97.5q0 58 1 97t5.5 74.5t9.5 56.5t17 39t25 26.5t36 14.5t47 7.5t61 1.5t61 -1.5t47 -7.5t36 -14.5
t25 -26.5t17 -39t9.5 -57t5.5 -74.5t1 -97.5zM394 314q0 139 -12 186q-10 39 -37 52t-88 13q-63 0 -89.5 -13.5t-36.5 -54.5q-11 -48 -11 -183q0 -147 13 -198q9 -37 34.5 -53.5t89.5 -16.5q66 0 91.5 17t34.5 58q11 54 11 193z" />
    <glyph glyph-name="P" unicode="P" 
d="M471 429q0 -71 -51.5 -126t-134.5 -55h-124v-190h27q41 0 41 -29t-41 -29h-119q-41 0 -41 29t41 29h27v495h-27q-41 0 -41 29t41 29h216q82 0 134 -54.5t52 -127.5zM406 430q0 46 -36.5 84.5t-102.5 38.5h-106v-247h106q66 0 102.5 38t36.5 86z" />
    <glyph glyph-name="Q" unicode="Q" 
d="M459 305q0 -121 -6 -171q-7 -58 -21.5 -87.5t-47.5 -43.5l33 -64q29 -50 29 -59q0 -13 -8 -16t-26 -3t-25.5 2.5t-14.5 13.5q-8 15 -31 60.5t-26 51.5q-12 -1 -58 -1q-37 0 -61 1.5t-47 7.5t-36 14.5t-25 26.5t-17 39t-9.5 57t-5.5 74.5t-1 97.5q0 58 1 97t5.5 74.5
t9.5 56.5t17 39t25 26.5t36 14.5t47 7.5t61 1.5t61 -1.5t47 -7.5t36 -14.5t25 -26.5t17 -39t9.5 -57t5.5 -74.5t1 -97.5zM394 306q0 129 -10 178q-9 46 -34 63.5t-93 17.5t-93 -17.5t-34 -62.5q-10 -49 -10 -180q0 -129 10 -178q8 -42 30.5 -61.5t88.5 -19.5h16l18 3
q0 2 -5 11l-41 79q-4 7 -4 13q0 19 32 19h7q15 0 20 -2t10 -12l49 -93q15 10 22 22t14 66t7 154z" />
    <glyph glyph-name="R" unicode="R" 
d="M512 93q0 -36 -21 -70.5t-65 -34.5q-48 0 -73 41q-13 24 -16 48.5t-3 84.5q0 26 -1 38t-6 25.5t-16 23.5q-32 28 -81 28h-79v-219h22q41 0 41 -29t-41 -29h-109q-40 0 -40 29t40 29h22v495h-22q-40 0 -40 29t40 29h170q85 0 138 -50.5t53 -116.5q0 -41 -22.5 -78.5
t-62.5 -61.5q35 -26 49 -58q7 -18 8.5 -32t1.5 -67q0 -28 0.5 -41t3 -30t8 -23.5t15.5 -6.5q11 0 16 17t5 30q0 33 32 33q33 0 33 -33zM360 444q0 41 -36 75t-100 34h-73v-218h73q64 0 100 34t36 75z" />
    <glyph glyph-name="S" unicode="S" 
d="M463 164q0 -70 -51.5 -123t-132.5 -53q-101 0 -165 50q-10 -34 -15 -42t-20 -8q-13 0 -19.5 7t-7.5 13.5t-1 17.5v138q0 13 1 19.5t9 13t23 6.5q14 0 21.5 -5.5t8.5 -11t2 -15.5q4 -63 49 -94t114 -31q56 0 89 35t33 79q0 41 -28 75q-18 20 -37.5 27.5t-79.5 21.5
q-83 20 -108.5 30.5t-55.5 40.5q-41 41 -41 104q0 67 52 115.5t130 48.5q84 0 141 -50q10 34 15 42t20 8q13 0 19.5 -7t7.5 -13.5t1 -17.5v-139q0 -13 -1 -19.5t-9 -12.5t-23 -6q-19 0 -24.5 7t-8.5 25q-19 125 -139 125q-51 0 -85 -30.5t-34 -71.5q0 -32 21 -57.5t53 -37.5
l70 -17q81 -19 106.5 -29.5t53.5 -39.5l3 -4q3 -3 5.5 -6.5t7 -10t8.5 -13.5t8 -17t7 -20t5 -22t2 -25z" />
    <glyph glyph-name="T" unicode="T" 
d="M488 504q0 -13 -1 -20t-9 -14t-23 -7t-22.5 7.5t-8.5 14t-1 19.5v49h-133v-495h48q40 0 40 -29t-40 -29h-161q-40 0 -40 29t40 29h48v495h-134v-49q0 -13 -1 -20t-9 -14t-23 -7t-22.5 7.5t-8.5 14t-1 19.5v66q0 25 8 33t33 8h381q25 0 32.5 -8.5t7.5 -32.5v-66z" />
    <glyph glyph-name="U" unicode="U" 
d="M507 582q0 -29 -41 -29h-27v-350q0 -90 -53.5 -152.5t-128.5 -62.5t-128.5 62.5t-53.5 152.5v350h-27q-41 0 -41 29t41 29h119q41 0 41 -29t-41 -29h-27v-344q0 -75 36.5 -119t80.5 -44t80.5 43.5t36.5 119.5v344h-27q-41 0 -41 29t41 29h119q41 0 41 -29z" />
    <glyph glyph-name="V" unicode="V" 
d="M496 582q0 -20 -12.5 -24.5t-41.5 -4.5l-134 -528q-6 -23 -18 -28.5t-33 -5.5q-15 0 -22 1t-16.5 9.5t-13.5 25.5l-133 526h-1q-19 0 -28 1t-17 7.5t-8 20.5q0 29 40 29h94q41 0 41 -29q0 -20 -12.5 -24.5t-41.5 -4.5l91 -363q22 -91 27 -122h1q7 49 36 162l81 323
q-19 0 -28 1t-17.5 7.5t-8.5 20.5q0 29 41 29h94q40 0 40 -29z" />
    <glyph glyph-name="W" unicode="W" 
d="M503 582q0 -29 -36 -29l-72 -524q-2 -10 -3 -14t-4.5 -11t-11.5 -10t-20 -3q-29 0 -39 20q-4 9 -30.5 131.5t-29.5 153.5h-1q-2 -22 -16 -91.5t-27.5 -128t-14.5 -62.5q-9 -23 -40 -23q-16 0 -24.5 6.5t-10.5 12.5t-4 20l-72 523h-1q-35 0 -35 29t41 29h74q41 0 41 -29
t-41 -29h-22l51 -400q7 -57 8 -81h1q3 44 26 154t28 120q9 21 39 21q34 0 41 -26q47 -198 52 -269h1q1 24 17 157l43 324h-23q-41 0 -41 29t41 29h74q41 0 41 -29z" />
    <glyph glyph-name="X" unicode="X" 
d="M486 29q0 -29 -40 -29h-95q-41 0 -41 29t44 29l-102 200l-95 -200q14 0 21.5 -1t15.5 -8t8 -20q0 -29 -40 -29h-95q-40 0 -40 29t40 29h19l133 267l-121 228h-20q-40 0 -40 29t40 29h95q40 0 40 -29t-42 -29l81 -154l75 154q-10 0 -15.5 0.5t-13.5 3t-12 9t-4 16.5
q0 29 41 29h94q41 0 41 -29t-41 -29h-18l-115 -228l142 -267h20q40 0 40 -29z" />
    <glyph glyph-name="Y" unicode="Y" 
d="M496 582q0 -29 -41 -29h-18l-147 -309v-186h22q40 0 40 -29t-40 -29h-109q-40 0 -40 29t40 29h22v186l-148 309h-18q-41 0 -41 29t41 29h94q41 0 41 -29q0 -10 -4 -16.5t-12 -9t-13.5 -3t-15.5 -0.5q94 -194 108 -244q9 30 51 123l57 121q-10 0 -15.5 0.5t-13.5 3t-12 9
t-4 16.5q0 29 41 29h94q41 0 41 -29z" />
    <glyph glyph-name="Z" unicode="Z" 
d="M472 41q0 -24 -8 -32.5t-32 -8.5h-344q-13 0 -20 1t-14 9t-7 23t9 28l327 492h-260v-49q0 -13 -1 -20t-9 -14t-23 -7t-22.5 7.5t-8.5 14t-1 19.5v66q0 25 8 33t33 8h327q13 0 20 -1t14 -9t7 -23t-9 -28l-327 -492h276v67q0 13 1 20t9 14t23 7t22.5 -7.5t8.5 -14t1 -19.5
v-84z" />
    <glyph glyph-name="bracketleft" unicode="[" 
d="M474 -54q0 -29 -40 -29h-174q-25 0 -32.5 8.5t-7.5 32.5v695q0 24 8 32.5t32 8.5h174q40 0 40 -29t-40 -29h-149v-661h149q40 0 40 -29z" />
    <glyph glyph-name="backslash" unicode="\" 
d="M457 -50q0 -15 -10 -24t-22 -9q-21 0 -34 27l-329 699q-5 10 -5 18q0 15 10 24t22 9q14 0 20.5 -6.5t13.5 -22.5l329 -697q5 -10 5 -18z" />
    <glyph glyph-name="bracketright" unicode="]" 
d="M294 -42q0 -24 -8 -32.5t-32 -8.5h-174q-40 0 -40 29t40 29h149v661h-149q-40 0 -40 29t40 29h174q25 0 32.5 -8.5t7.5 -32.5v-695z" />
    <glyph glyph-name="asciicircum" unicode="^" 
d="M432 543q26 -13 14 -39t-38 -15l-151 65l-151 -65q-16 -7 -28.5 3t-12 26.5t17.5 24.5l163 79q12 5 23 0z" />
    <glyph glyph-name="underscore" unicode="_" 
d="M459 -168q0 -32 -45 -32h-314q-45 0 -45 33q0 32 45 32h314q45 0 45 -33z" />
    <glyph glyph-name="grave" unicode="`" 
d="M363 524q0 -5 -1.5 -11.5t-11 -15.5t-25.5 -9l-146 69q-26 12 -26 33q0 33 39 33l149 -71q22 -11 22 -28z" />
    <glyph glyph-name="a" unicode="a" 
d="M509 29q0 -14 -8 -20.5t-16 -7.5t-24 -1q-87 0 -108 35q-59 -41 -146 -41q-68 0 -112 38t-44 93q0 82 114 121q69 22 179 26q0 19 -1 29.5t-9.5 26.5t-25.5 29q-33 25 -90 25q-25 0 -37 -1q-22 -2 -22 -8q0 -19 -10 -30t-17 -12.5t-13 -1.5q-17 0 -29 11.5t-12 30.5
q0 69 139 69q94 0 143 -46.5t49 -109.5v-218q19 -8 60 -8q40 0 40 -29zM344 132v86q-95 0 -161.5 -25t-66.5 -68q0 -31 29 -52t73 -21q50 0 85 17q19 9 28.5 20.5t11 19.5t1.5 23z" />
    <glyph glyph-name="b" unicode="b" 
d="M477 216q0 -94 -59 -158t-140 -64q-67 0 -117 56q0 -18 -1 -26.5t-8.5 -16t-22.5 -7.5t-23 7.5t-9 14t-1 19.5v512h-41q-40 0 -40 29t40 29h66q25 0 32.5 -8.5t7.5 -32.5v-187q8 9 21 19t43.5 22.5t63.5 12.5q78 0 133 -64.5t55 -156.5zM412 216q0 68 -38 115.5t-92 47.5
q-48 0 -84.5 -35t-36.5 -78v-79q0 -45 30.5 -90t81.5 -45q55 0 97 47t42 117z" />
    <glyph glyph-name="c" unicode="c" 
d="M456 109q0 -8 -8 -25t-25.5 -38t-53.5 -36.5t-82 -15.5q-89 0 -151 65t-62 157q0 35 12 71t36.5 72t70.5 58.5t107 22.5q145 0 145 -69q0 -19 -12 -30.5t-29 -11.5q-37 0 -40 42q0 6 -8 8q-27 3 -57 3q-46 0 -79.5 -18t-50 -46.5t-23.5 -53.5t-7 -48q0 -69 46.5 -116.5
t110.5 -47.5q71 0 95 61q4 12 10 17t22 5q33 0 33 -26z" />
    <glyph glyph-name="d" unicode="d" 
d="M499 29q0 -29 -40 -29h-66q-28 0 -34 10t-6 45q-53 -61 -127 -61q-78 0 -133.5 64.5t-55.5 156.5q0 93 58.5 157.5t139.5 64.5q68 0 118 -50v166h-41q-40 0 -40 29t40 29h66q25 0 32.5 -8.5t7.5 -32.5v-512h41q40 0 40 -29zM353 190v78q0 41 -32.5 76t-79.5 35
q-55 0 -97 -47t-42 -117q0 -68 38 -115.5t92 -47.5q52 0 86.5 45.5t34.5 92.5z" />
    <glyph glyph-name="e" unicode="e" 
d="M456 109q0 -31 -46 -73t-130 -42q-93 0 -158.5 65t-65.5 159q0 92 61 157t148 65q90 0 140.5 -59.5t50.5 -151.5q0 -13 -3 -21t-9.5 -11.5t-12 -4t-15.5 -0.5h-293q8 -59 53.5 -99.5t106.5 -40.5q15 0 32 3t41.5 18.5t35.5 41.5q9 22 31 22q33 0 33 -28zM390 247
q-2 23 -7.5 43t-18.5 42.5t-38.5 36t-60.5 13.5q-50 0 -91 -37t-50 -98h266z" />
    <glyph glyph-name="f" unicode="f" 
d="M429 560q0 -19 -12.5 -29.5t-26.5 -10.5q-15 0 -25 10t-13 20l-3 9q-18 0 -30.5 -1.5t-31.5 -8t-29.5 -24t-10.5 -44.5v-50h121q40 0 40 -29t-40 -29h-121v-315h95q40 0 40 -29t-40 -29h-255q-40 0 -40 29t40 29h95v315h-100q-40 0 -40 29t41 29h99v54q0 63 46.5 97.5
t109.5 34.5q91 0 91 -57z" />
    <glyph glyph-name="g" unicode="g" 
d="M500 391q0 -20 -12 -29t-25 -9q-30 1 -36 32q-36 -2 -65 -18q27 -42 27 -89q0 -65 -46.5 -112t-114.5 -47q-50 0 -89 27q-7 -14 -7 -31q0 -54 58 -54h85q15 0 27.5 -1t40.5 -4.5t50 -13t44.5 -24t35 -41t12.5 -60.5q0 -63 -66 -104.5t-162 -41.5t-162 42t-66 104
q0 33 18.5 67.5t56.5 55.5q-25 28 -25 72q0 38 22 70q-33 42 -33 96q0 65 46.5 112t114.5 47q51 0 95 -31q47 37 105 37q37 0 54 -16.5t17 -35.5zM324 278q0 43 -28 73t-68 30q-38 0 -66.5 -30t-28.5 -73t28.5 -73t66.5 -30q40 0 68 30t28 73zM428 -83q0 21 -8 37t-25 25
t-32.5 15t-43 8t-43.5 2.5t-46 0.5q-54 0 -69.5 -2t-32.5 -13q-42 -26 -42 -73q0 -35 49.5 -62.5t121.5 -27.5t121.5 27.5t49.5 62.5z" />
    <glyph glyph-name="h" unicode="h" 
d="M499 29q0 -29 -40 -29h-147q-40 0 -40 29t40 29h41v231q0 47 -14.5 68.5t-55.5 21.5q-46 0 -84 -36.5t-38 -103.5v-181h41q40 0 40 -29t-40 -29h-147q-40 0 -40 29t40 29h41v495h-41q-40 0 -40 29t40 29h66q25 0 32.5 -8.5t7.5 -32.5v-190q51 57 129 57q128 0 128 -144
v-235h41q40 0 40 -29z" />
    <glyph glyph-name="i" unicode="i" 
d="M441 29q0 -29 -40 -29h-278q-41 0 -41 29t41 29h114v315h-107q-40 0 -40 29t40 29h132q25 0 32.5 -8.5t7.5 -32.5v-332h99q40 0 40 -29zM302 556q0 -19 -13 -32t-32 -13t-32 13t-13 32t13 32t32 13t32 -13t13 -32z" />
    <glyph glyph-name="j" unicode="j" 
d="M360 -44q0 -35 -10.5 -66.5t-20 -45t-17.5 -21.5q-23 -24 -48.5 -36t-39.5 -13.5t-39 -1.5q-138 0 -138 72q0 20 13 31t28 11q39 0 39 -51q21 -5 61 -5q16 0 26 1t25 9.5t28 24.5q28 37 28 96v412h-122q-40 0 -40 29t40 29h147q25 0 32.5 -8.5t7.5 -32.5v-434zM360 556
q0 -19 -13 -32t-32 -13t-32 13t-13 32t13 32t32 13t32 -13t13 -32z" />
    <glyph glyph-name="k" unicode="k" 
d="M497 29q0 -29 -40 -29h-112q-41 0 -41 29q0 20 13 24.5t43 4.5l-119 158l-78 -74v-84h45q41 0 41 -29t-41 -29h-146q-41 0 -41 29t41 29h45v495h-45q-41 0 -41 29t41 29h61q25 0 32.5 -8.5t7.5 -32.5v-351l162 154h-35q-41 0 -41 29t41 29h146q40 0 40 -29t-40 -29h-30
l-124 -118l148 -197h27q40 0 40 -29z" />
    <glyph glyph-name="l" unicode="l" 
d="M452 29q0 -29 -40 -29h-309q-40 0 -40 29t40 29h122v495h-122q-40 0 -40 29t40 29h147q25 0 32.5 -8.5t7.5 -32.5v-512h122q40 0 40 -29z" />
    <glyph glyph-name="m" unicode="m" 
d="M507 29q0 -29 -40 -29h-73q-41 0 -41 29t44 29v239q0 82 -36 82q-34 0 -57 -37.5t-23 -99.5v-184q20 0 29 -1t17 -7.5t8 -20.5q0 -29 -40 -29h-73q-41 0 -41 29t44 29v239q0 82 -36 82q-34 0 -57 -37.5t-23 -99.5v-184q20 0 29 -1t17 -7.5t8 -20.5q0 -29 -40 -29h-84
q-40 0 -40 29q0 20 12.5 24.5t41.5 4.5v315q-20 0 -29 1t-17 7.5t-8 20.5q0 29 40 29h30q12 0 18.5 -1t14 -8.5t7.5 -22.5q34 38 84 38q31 0 50 -17.5t26 -35.5q39 53 96 53q31 0 50.5 -16.5t26.5 -43.5t9 -42t2 -32v-245q20 0 29 -1t17 -7.5t8 -20.5z" />
    <glyph glyph-name="n" unicode="n" 
d="M499 29q0 -29 -40 -29h-147q-40 0 -40 29t40 29h41v231q0 47 -14.5 68.5t-55.5 21.5q-46 0 -84 -36.5t-38 -103.5v-181h41q40 0 40 -29t-40 -29h-147q-40 0 -40 29t40 29h41v315h-41q-40 0 -40 29t40 29h66q28 0 34 -10t6 -41q51 57 129 57q128 0 128 -144v-235h41
q40 0 40 -29z" />
    <glyph glyph-name="o" unicode="o" 
d="M456 216q0 -93 -59 -157.5t-140 -64.5t-140 64.5t-59 157.5t58.5 158.5t140.5 65.5t140.5 -65.5t58.5 -158.5zM391 223q0 68 -40 113.5t-94 45.5t-94 -45.5t-40 -113.5q0 -71 40 -121t94 -50q55 0 94.5 50t39.5 121z" />
    <glyph glyph-name="p" unicode="p" 
d="M477 216q0 -94 -59 -158t-140 -64q-67 0 -117 56v-214h41q40 0 40 -29t-40 -29h-147q-40 0 -40 29t40 29h41v537h-41q-40 0 -40 29t40 29h66q28 0 34 -9.5t6 -38.5q8 9 21 19t43.5 22.5t63.5 12.5q78 0 133 -64.5t55 -156.5zM412 216q0 68 -38 115.5t-92 47.5
q-48 0 -84.5 -35t-36.5 -78v-79q0 -45 30.5 -90t81.5 -45q55 0 97 47t42 117z" />
    <glyph glyph-name="q" unicode="q" 
d="M524 -193q0 -29 -41 -29h-155q-41 0 -41 29t41 29h45v223q-62 -65 -135 -65q-82 0 -139.5 64.5t-57.5 156.5q0 94 61.5 158t145.5 64q68 0 125 -60v19q0 13 1 20t9 14t23 7t22.5 -7.5t8.5 -14t1 -19.5v-560h45q41 0 41 -29zM373 191v45q0 52 -33 97.5t-86 45.5
q-60 0 -104 -47.5t-44 -116.5q0 -67 40.5 -115t97.5 -48q56 0 92.5 46t36.5 93z" />
    <glyph glyph-name="r" unicode="r" 
d="M478 378q0 -17 -11 -28t-28 -11q-6 0 -12.5 2t-15.5 11.5t-10 25.5q-5 1 -16 1q-68 0 -118.5 -52.5t-50.5 -137.5v-131h105q40 0 40 -29t-40 -29h-246q-40 0 -40 29t40 29h76v315h-76q-40 0 -40 29t40 29h101q25 0 32.5 -8.5t7.5 -32.5v-39q71 86 170 86q92 0 92 -59z
" />
    <glyph glyph-name="s" unicode="s" 
d="M449 124q0 -8 -1 -17.5t-11 -32t-27.5 -38.5t-55.5 -29t-90 -13q-79 0 -129 41q-10 -28 -17.5 -34.5t-18.5 -6.5q-13 0 -19.5 7t-7.5 13.5t-1 17.5v103q0 13 1 19.5t9 13t23 6.5q17 0 22.5 -5.5t10.5 -19.5q15 -52 46 -74.5t81 -22.5q65 0 96 20.5t31 51.5
q0 16 -9.5 28.5t-20.5 19.5t-31 13.5t-29.5 8.5t-28.5 5q-110 17 -143 36q-58 32 -58 88q0 16 6.5 33t24 37.5t57.5 33.5t97 13q66 0 106 -24q6 24 30 24q13 0 19.5 -7t7.5 -13.5t1 -17.5v-76q0 -13 -1 -19.5t-9 -12.5t-23 -6q-30 0 -32 23q-1 14 -3.5 23t-11.5 22t-31 19.5
t-55 6.5q-65 0 -95 -17.5t-30 -41.5q0 -15 9 -25.5t33.5 -18.5t43.5 -12t62 -11q172 -25 172 -132z" />
    <glyph glyph-name="t" unicode="t" 
d="M440 123q0 -36 -16 -63t-41 -40.5t-49 -19.5t-47 -6q-59 0 -97.5 31t-38.5 96v252h-86q-40 0 -40 29t41 29h85v82q0 13 1 19.5t9 14t23 7.5t22.5 -7.5t8.5 -14t1 -19.5v-82h162q40 0 40 -29t-40 -29h-162v-247q0 -14 1.5 -22.5t8 -22.5t24 -21.5t44.5 -7.5q16 0 32 4.5
t32.5 21.5t16.5 44q0 14 1 21t8.5 14.5t22.5 7.5t23 -7t9 -14t1 -21z" />
    <glyph glyph-name="u" unicode="u" 
d="M499 29q0 -29 -40 -29h-66q-12 0 -19 1t-14.5 9.5t-7.5 25.5q-49 -42 -119 -42q-137 0 -137 120v259h-41q-40 0 -40 29t40 29h66q25 0 32.5 -8.5t7.5 -32.5v-271q0 -16 1.5 -24.5t8 -20t24 -17t45.5 -5.5q43 0 78 24.5t35 79.5v217h-41q-40 0 -40 29t40 29h66
q25 0 32.5 -8.5t7.5 -32.5v-332h41q40 0 40 -29z" />
    <glyph glyph-name="v" unicode="v" 
d="M491 402q0 -29 -41 -29h-26l-115 -344q-7 -23 -19.5 -28.5t-32.5 -5.5q-13 0 -20 1t-17 9t-15 24l-115 344h-26q-41 0 -41 29t41 29h110q41 0 41 -29t-41 -29h-25l108 -322l108 322h-25q-41 0 -41 29t41 29h110q41 0 41 -29z" />
    <glyph glyph-name="w" unicode="w" 
d="M499 402q0 -14 -8.5 -20.5t-16.5 -7.5t-24 -1l-60 -341q-3 -17 -11.5 -26t-14.5 -10t-18 -1q-27 0 -35.5 11.5t-24.5 64.5q-25 92 -27 118h-1q-2 -14 -28 -117q-16 -54 -24.5 -65.5t-36.5 -11.5q-20 0 -30.5 7t-14.5 31l-60 340q-16 0 -24 1t-16.5 7.5t-8.5 20.5
q0 29 41 29h112q41 0 41 -29t-41 -29h-47l52 -305h1q5 30 30 115q14 51 22.5 63.5t31.5 12.5q24 0 32 -12.5t22 -64.5q25 -79 30 -114h1l50 305h-47q-41 0 -41 29t41 29h112q41 0 41 -29z" />
    <glyph glyph-name="x" unicode="x" 
d="M486 29q0 -29 -40 -29h-111q-40 0 -40 29q0 14 8 20.5t16 7.5t25 1l-90 126l-86 -126q18 0 26 -1t16 -7.5t8 -20.5q0 -29 -40 -29h-110q-41 0 -41 29t41 29h34l125 164l-119 151h-35q-40 0 -40 29t40 29h111q40 0 40 -29q0 -14 -8 -20.5t-16 -7.5t-23 -1l77 -103l75 103
q-16 0 -24 1t-16 7.5t-8 20.5q0 29 40 29h111q40 0 40 -29t-40 -29h-35l-115 -151l129 -164h35q40 0 40 -29z" />
    <glyph glyph-name="y" unicode="y" 
d="M491 402q0 -29 -41 -29h-26l-157 -464q-45 -120 -123 -135q-10 -2 -20 -2q-36 0 -59 24t-23 54q0 18 11 29t29 11q17 0 28 -11t11 -28q0 -8 -4 -20q45 -5 79 52q7 12 17 41.5t17 52.5l7 23q0 3 -4 13l-140 360h-27q-41 0 -41 29t41 29h110q41 0 41 -29t-41 -29h-23
l93 -246q14 -37 19 -60h1q14 57 99 306h-25q-41 0 -41 29t41 29h110q41 0 41 -29z" />
    <glyph glyph-name="z" unicode="z" 
d="M466 41q0 -24 -8 -32.5t-32 -8.5h-353q-13 0 -20 1t-14 9t-7 23q0 18 16 33l318 307h-253v-23q0 -13 -1 -20t-9 -14t-23 -7t-22.5 7.5t-8.5 14t-1 19.5v40q0 25 8 33t33 8h333q13 0 20 -1t14 -9t7 -23q0 -18 -16 -33l-318 -307h272v34q0 13 1 20t9 14t23 7t22.5 -7.5
t8.5 -14t1 -19.5v-51z" />
    <glyph glyph-name="braceleft" unicode="{" 
d="M457 -54q0 -13 -7 -20t-13.5 -8t-19.5 -1q-55 0 -93.5 11t-57 24t-29 35t-11.5 33.5t-1 29.5v166q-1 30 -39.5 44.5t-92.5 15.5q-36 0 -36 30q0 13 7 19.5t15.5 8t26.5 1.5q63 2 97 25q16 10 19 22t3 49v157q3 35 26 58t57 32.5t59 12.5t50 3q13 0 19.5 -1t13.5 -8t7 -20
q0 -14 -7.5 -21.5t-16.5 -7.5q-121 0 -139 -39q-4 -9 -4 -67v-115q0 -17 -1 -27t-6.5 -27t-19 -31t-35.5 -25q62 -29 62 -99v-161q0 -16 2.5 -24.5t14.5 -20.5t43 -18t81 -7q26 0 26 -29z" />
    <glyph glyph-name="bar" unicode="|" 
d="M290 -38q0 -45 -33 -45q-32 0 -32 45v687q0 45 33 45q32 0 32 -45v-687z" />
    <glyph glyph-name="braceright" unicode="}" 
d="M457 305q0 -13 -7 -19.5t-15.5 -8t-26.5 -1.5q-53 -2 -88 -20q-21 -11 -25.5 -24t-4.5 -52v-157q-3 -34 -25.5 -57t-56 -32.5t-59 -13t-52.5 -3.5q-12 0 -19 1t-14 8t-7 20q0 15 7.5 22t16.5 7q122 0 140 39q4 9 4 67v115q0 17 1 27t6.5 27t19 31t35.5 25q-62 30 -62 99
v161q0 17 -2.5 25.5t-14.5 20t-43 17.5t-82 7q-26 0 -26 29q0 13 7 20t14 8t19 1q55 0 94 -11t57.5 -24t28.5 -35t11.5 -33.5t1.5 -29.5v-166q1 -28 37 -43.5t94 -16.5q36 0 36 -30z" />
    <glyph glyph-name="asciitilde" unicode="~" 
d="M428 335q0 -18 -48 -54q-42 -34 -77 -34q-36 0 -73 43q-11 13 -21 13q-11 0 -28 -10.5t-29 -20.5l-11 -11q-12 -14 -26 -14q-11 0 -20 9t-9 20q0 18 48 54q42 34 77 34q36 0 73 -43q11 -13 21 -13q11 0 28 10.5t29 21.5l11 10q12 14 26 14q11 0 20 -9t9 -20z" />
    <glyph glyph-name="uni00A0" unicode="&#xa0;" 
 />
    <glyph glyph-name="exclamdown" unicode="&#xa1;" 
d="M302 344q0 -19 -13 -32t-32 -13t-32 13t-13 32t13 32t32 13t32 -13t13 -32zM302 -181q0 -22 -10 -35t-18.5 -15.5t-16.5 -2.5t-16 2t-18.5 15t-10.5 36l5 186l4 177q1 18 7 25.5t29 7.5q25 0 30.5 -10.5t6.5 -54.5z" />
    <glyph glyph-name="cent" unicode="&#xa2;" 
d="M456 109q0 -8 -7 -23t-22 -34.5t-45.5 -36t-69.5 -20.5v-53q0 -12 -8.5 -20.5t-20.5 -8.5t-20.5 8.5t-8.5 20.5v55q-78 12 -129 74t-51 145q0 70 44.5 137.5t135.5 82.5v53q0 12 8.5 20.5t20.5 8.5t20.5 -8.5t8.5 -20.5v-49q133 0 133 -69q0 -19 -12 -30.5t-29 -11.5
q-37 0 -40 42q0 6 -8 8q-10 1 -44 3v-329q58 7 79 60q4 12 10 17t22 5q33 0 33 -26zM254 58v319q-43 -11 -70.5 -42.5t-36 -61t-8.5 -57.5q0 -57 32.5 -100t82.5 -58z" />
    <glyph glyph-name="sterling" unicode="&#xa3;" 
d="M495 144q0 -63 -29 -109.5t-80 -46.5q-11 0 -21.5 1.5t-22 7t-18.5 8.5t-20 13t-16.5 12.5t-18.5 15.5t-17 14q-18 -33 -56.5 -52.5t-84.5 -19.5q-38 0 -65 27.5t-27 66.5q0 42 36.5 68t86.5 26q24 0 50 -12q-9 38 -43 110h-68q-13 0 -22.5 9.5t-9.5 22.5t9.5 22.5
t22.5 9.5h41q-18 49 -18 93q0 74 49.5 127t120.5 53q69 0 119.5 -44.5t50.5 -109.5q0 -17 -12 -29t-29 -12t-29 12t-12 29q0 19 12 29q-10 27 -38.5 44t-61.5 17q-45 0 -75.5 -34.5t-30.5 -81.5q0 -44 18 -93h153q13 0 22.5 -9.5t9.5 -22.5t-9.5 -22.5t-22.5 -9.5h-125
q1 -2 7 -15.5t7 -16t6.5 -15t7 -16.5t5.5 -15t5 -16.5t4 -15.5t4 -17t2 -16t1 -17q26 -21 39.5 -31t37.5 -20.5t46 -10.5q45 0 45 92q0 13 9.5 22.5t22.5 9.5t22.5 -9.5t9.5 -22.5zM198 97q-28 15 -56 15q-59 0 -59 -30q0 -12 8.5 -21t19.5 -9q32 0 57 11.5t30 33.5z" />
    <glyph glyph-name="currency" unicode="&#xa4;" 
d="M413 150q-7 -7 -14.5 -8.5t-11.5 -1.5t-12 5.5t-9 6.5t-8 7l-27 27q-31 -21 -74 -21q-41 0 -74 21l-27 -27q-32 -32 -55 -9t9 55l27 27q-21 34 -21 74t21 74l-27 27q-32 32 -8 55q22 23 54 -9l27 -27q36 21 74 21q39 0 75 -21l26 26q32 32 55 9t-9 -55l-26 -26
q20 -32 20 -74t-21 -74l27 -27q32 -32 9 -55zM334 306q0 32 -22.5 54.5t-54.5 22.5t-54.5 -22.5t-22.5 -54.5t22.5 -54.5t54.5 -22.5t54.5 22.5t22.5 54.5z" />
    <glyph glyph-name="yen" unicode="&#xa5;" 
d="M496 582q0 -29 -41 -29h-18l-66 -139h41q13 0 22.5 -9.5t9.5 -22.5t-9.5 -22.5t-22.5 -9.5h-72l-41 -88h113q13 0 22.5 -9.5t9.5 -22.5t-9.5 -22.5t-22.5 -9.5h-122v-140h22q40 0 40 -29t-40 -29h-109q-40 0 -40 29t40 29h22v140h-122q-13 0 -22.5 9t-9.5 23
q0 13 9.5 22.5t22.5 9.5h113l-42 88h-71q-13 0 -22.5 9.5t-9.5 22.5q0 14 9.5 23t22.5 9h41l-67 139h-18q-41 0 -41 29t41 29h94q41 0 41 -29q0 -10 -4 -16.5t-12 -9t-13.5 -3t-15.5 -0.5l66 -139h85l8 18l57 121q-10 0 -15.5 0.5t-13.5 3t-12 9t-4 16.5q0 29 41 29h94
q41 0 41 -29zM272 350h-29q10 -28 14 -41q5 17 15 41z" />
    <glyph glyph-name="brokenbar" unicode="&#xa6;" 
d="M290 374q0 -12 -9.5 -20.5t-22.5 -8.5q-14 0 -23.5 8.5t-9.5 20.5v275q0 45 33 45q32 0 32 -45v-275zM290 -38q0 -45 -33 -45q-32 0 -32 45v275q0 12 9.5 20.5t23.5 8.5q13 0 22.5 -8.5t9.5 -20.5v-275z" />
    <glyph glyph-name="section" unicode="&#xa7;" 
d="M483 194q0 -33 -17.5 -61t-45.5 -43q23 -31 23 -67q0 -64 -55.5 -105t-130.5 -41q-76 0 -131 34t-55 94q0 17 12 29t29 12t29 -12t12 -29q0 -15 -10 -27q23 -37 114 -37q49 0 85.5 22t36.5 60q0 32 -26.5 50t-74.5 34l-103 36q-62 22 -103 64.5t-41 98.5q0 32 17.5 60
t45.5 43q-23 33 -23 68q0 64 55.5 105t130.5 41q76 0 131 -34t55 -94q0 -17 -12 -29t-29 -12t-29 12t-12 29q0 15 10 27q-23 37 -114 37q-49 0 -85.5 -22t-36.5 -60q0 -32 26.5 -50t74.5 -34l103 -36q62 -22 103 -64.5t41 -98.5zM419 194q0 68 -101 102l-103 36
q-43 15 -72 34q-21 -4 -34.5 -21t-13.5 -39q0 -68 101 -102l103 -36q43 -15 72 -34q21 4 34.5 21t13.5 39z" />
    <glyph glyph-name="dieresis" unicode="&#xa8;" 
d="M224 555q0 -17 -12 -28.5t-28 -11.5q-17 0 -29 11.5t-12 28.5t12 29t29 12t28.5 -12t11.5 -29zM373 555q0 -17 -11.5 -28.5t-28.5 -11.5t-29 11.5t-12 28.5t12 29t29 12t28.5 -12t11.5 -29z" />
    <glyph glyph-name="copyright" unicode="&#xa9;" 
d="M515 257q0 -106 -75.5 -181.5t-182.5 -75.5t-182 75t-75 182t75.5 182.5t181.5 75.5q107 0 182.5 -75.5t75.5 -182.5zM478 257q0 91 -65 156t-156 65t-155.5 -65t-64.5 -156t64.5 -155.5t155.5 -64.5t156 64.5t65 155.5zM355 183q0 -38 -31 -68t-76 -30q-53 0 -90.5 49.5
t-37.5 123.5q0 72 37.5 122t90.5 50q36 0 70 -28q0 2 3 8.5t4 9.5q5 10 15 10q15 0 15 -21v-79q0 -7 -0.5 -10.5t-5 -6.5t-12.5 -3q-16 0 -17 15q-6 35 -25.5 54t-43.5 19q-39 0 -67.5 -40t-28.5 -100t29 -101t67 -41q10 0 22 3t28.5 20.5t18.5 48.5q1 12 17 12q18 0 18 -17
z" />
    <glyph glyph-name="ordfeminine" unicode="&#xaa;" 
d="M418 335q0 -9 -5.5 -14t-11.5 -5.5t-17 -0.5q-61 0 -76 25q-40 -29 -102 -29q-48 0 -78.5 27t-30.5 65q0 57 80 84q47 15 125 19q0 39 -25 59q-23 18 -63 18q-18 0 -26 -1q-15 -2 -15 -6q0 -13 -7 -20.5t-12 -9t-9 -1.5q-12 0 -20.5 8t-8.5 22q0 48 97 48
q66 0 100.5 -32.5t34.5 -76.5v-153q11 -5 42 -5q28 0 28 -21zM389 261q0 -9 -8.5 -15t-20.5 -6h-205q-12 0 -20.5 6t-8.5 15q0 8 8.5 14t20.5 6h205q12 0 20.5 -6t8.5 -14zM302 408v60q-67 0 -113.5 -17.5t-46.5 -47.5q0 -22 20.5 -36.5t51.5 -14.5q35 0 59 11q14 7 20.5 15
t7.5 13.5t1 16.5z" />
    <glyph glyph-name="guillemotleft" unicode="&#xab;" 
d="M478 113q0 -15 -6.5 -23.5t-15.5 -8.5q-7 0 -18 9l-218 188q-11 11 -11 28q0 16 14 30l215 186q11 9 18 9q9 0 15.5 -8.5t6.5 -23.5q0 -17 -15 -30l-188 -163l188 -163q15 -13 15 -30zM316 113q0 -15 -6.5 -23.5t-15.5 -8.5q-7 0 -18 9l-218 188q-11 11 -11 28
q0 16 14 30l215 186q11 9 18 9q9 0 15.5 -8.5t6.5 -23.5q0 -17 -15 -30l-188 -163l188 -163q15 -13 15 -30z" />
    <glyph glyph-name="logicalnot" unicode="&#xac;" 
d="M477 229q0 -13 -9.5 -22.5t-22.5 -9.5t-22.5 9.5t-9.5 22.5v121h-344q-13 0 -22.5 9t-9.5 23t9.5 23t22.5 9h376q13 0 22.5 -9t9.5 -23v-153z" />
    <glyph glyph-name="uni00AD" unicode="&#xad;" 
d="M459 305q0 -32 -45 -32h-314q-45 0 -45 33q0 32 45 32h314q45 0 45 -33z" />
    <glyph glyph-name="registered" unicode="&#xae;" 
d="M515 257q0 -106 -75.5 -181.5t-182.5 -75.5t-182 75t-75 182t75.5 182.5t181.5 75.5q107 0 182.5 -75.5t75.5 -182.5zM478 257q0 91 -65 156t-156 65t-155.5 -65t-64.5 -156t64.5 -155.5t155.5 -64.5t156 64.5t65 155.5zM405 145q0 -19 -11.5 -38t-35.5 -19q-26 0 -40 23
q-10 18 -10 72q0 35 -12 47q-18 15 -44 15h-43v-119h12q22 0 22 -15q0 -16 -22 -16h-59q-22 0 -22 16q0 15 22 15h12v269h-12q-22 0 -22 16q0 15 22 15h92q46 0 74.5 -27t28.5 -63q0 -50 -46 -76q19 -14 27 -32q5 -13 5 -53q0 -15 0.5 -22t1.5 -16.5t4.5 -13t8.5 -3.5
q11 0 11 25q0 18 18 18t18 -18zM322 336q0 22 -19.5 40.5t-54.5 18.5h-39v-118h39q35 0 54.5 18t19.5 41z" />
    <glyph glyph-name="macron" unicode="&#xaf;" 
d="M443 555q0 -29 -40 -29h-291q-41 0 -41 30q0 29 40 29h292q40 0 40 -30z" />
    <glyph glyph-name="degree" unicode="&#xb0;" 
d="M400 468q0 -59 -42 -101t-101 -42t-101 42t-42 101t42 101t101 42t101 -42t42 -101zM336 468q0 33 -23 56t-56 23q-32 0 -55.5 -23t-23.5 -56q0 -32 23.5 -55.5t55.5 -23.5q33 0 56 23.5t23 55.5z" />
    <glyph glyph-name="plusminus" unicode="&#xb1;" 
d="M477 32q0 -32 -45 -32h-350q-45 0 -45 33q0 32 45 32h143v123h-143q-45 0 -45 33q0 32 45 32h143v143q0 45 33 45q32 0 32 -45v-143h142q45 0 45 -33q0 -32 -45 -32h-142v-123h142q45 0 45 -33z" />
    <glyph glyph-name="two.superior" unicode="&#xb2;" 
d="M360 332q0 -17 -11 -20h-174q-21 0 -21 14q0 6 7 12l110 96q57 49 57 92q0 32 -23.5 50t-56.5 18q-22 0 -38 -12t-21 -32q6 -6 6 -14q0 -10 -6 -15.5t-14 -5.5q-3 0 -7 1t-9 7t-5 15q0 33 27.5 59t69.5 26q47 0 78 -27.5t31 -69.5q0 -55 -57 -104l-96 -81h121
q0 8 0.5 11.5t4 7t11.5 3.5q16 0 16 -20v-11z" />
    <glyph glyph-name="three.superior" unicode="&#xb3;" 
d="M364 398q0 -37 -29.5 -64.5t-75.5 -27.5t-77.5 21.5t-31.5 53.5q0 22 21 22q9 0 14.5 -6t5.5 -14q0 -4 -4 -12l-1 -2q0 -4 7.5 -11.5t25 -15t40.5 -7.5q32 0 52.5 19t20.5 45q0 23 -19.5 43t-55.5 20h-23q-19 0 -19 15q0 13 12 14q1 0 4 0.5t10 1t15 0.5q34 3 48 22.5
t14 37.5q0 17 -17 29t-42 12q-42 0 -58 -20q4 -5 4 -13q0 -9 -6.5 -14.5t-13.5 -5.5q-8 0 -14.5 5t-6.5 16q0 28 26.5 44.5t68.5 16.5q40 0 65.5 -20.5t25.5 -49.5q0 -48 -44 -75q58 -25 58 -80z" />
    <glyph glyph-name="acute" unicode="&#xb4;" 
d="M362 590q0 -21 -26 -33l-146 -69q-16 0 -25.5 9t-11 15.5t-1.5 11.5q0 17 22 28l149 71q39 0 39 -33z" />
    <glyph glyph-name="uni00B5" unicode="&#xb5;" 
d="M498 29q0 -13 -7.5 -20t-14 -8t-19.5 -1h-64q-15 0 -22 1.5t-13 9.5t-6 25q-50 -42 -120 -42q-45 0 -71 11v-169h40q13 0 19.5 -1t14 -8t7.5 -20t-7.5 -20t-14 -8t-19.5 -1h-145q-13 0 -19.5 1t-14 8t-7.5 20t7.5 20t14 8t19.5 1h40v536h-40q-13 0 -19.5 1t-14 8t-7.5 20
t7.5 20t14 8t19.5 1h64q26 0 33.5 -7.5t7.5 -33.5v-268q0 -17 1.5 -26t8 -20.5t24 -17t45.5 -5.5q16 0 32.5 4t36 14t31.5 32.5t12 54.5v215h-40q-13 0 -19.5 1t-14 8t-7.5 20t7.5 20t14 8t19.5 1h64q26 0 33.5 -7.5t7.5 -33.5v-331h40q13 0 19.5 -1t14 -8t7.5 -20z" />
    <glyph glyph-name="paragraph" unicode="&#xb6;" 
d="M490 674q0 -20 -28 -20h-42v-815q0 -33 -17 -33t-17 33v815h-58v-815q0 -33 -17 -33t-17 33v391q-43 2 -84.5 17t-79 42t-60.5 72.5t-23 101.5q0 95 61.5 163t149.5 68h204q28 0 28 -20z" />
    <glyph glyph-name="periodcentered" unicode="&#xb7;" 
d="M314 305q0 -22 -16.5 -39t-40.5 -17q-23 0 -39.5 16.5t-16.5 39.5q0 24 16.5 40.5t40.5 16.5q22 0 39 -16.5t17 -40.5z" />
    <glyph glyph-name="cedilla" unicode="&#xb8;" 
d="M418 -108q0 -33 -19.5 -55t-55.5 -30.5t-63 -11t-66 -2.5q-19 0 -28 1t-17.5 7.5t-8.5 20.5q0 29 41 29h20q132 0 132 41q0 18 -18 28.5t-47 12.5q-14 1 -21.5 7.5t-8.5 13t-1 18.5v33q0 11 1 17.5t8.5 14t22.5 7.5q23 0 28 -12t5 -45q48 -9 72 -35.5t24 -59.5z" />
    <glyph glyph-name="one.superior" unicode="&#xb9;" 
d="M339 326q0 -14 -20 -14h-121q-20 0 -20 14q0 15 20 15h44v214q-22 -22 -51 -22q-16 0 -16 15q0 14 18 14q30 2 53 50q5 11 14 11q15 0 15 -20v-262h44q20 0 20 -15z" />
    <glyph glyph-name="ordmasculine" unicode="&#xba;" 
d="M397 466q0 -65 -41.5 -110t-98.5 -45t-98 45t-41 110t41 111t98 46t98.5 -45.5t41.5 -111.5zM368 261q0 -9 -8.5 -15t-20.5 -6h-163q-12 0 -20.5 6t-8.5 15q0 8 8.5 14t20.5 6h163q12 0 20.5 -6t8.5 -14zM351 471q0 48 -28 80t-66 32t-66 -32t-28 -80q0 -49 28 -84
t66 -35q39 0 66.5 34.5t27.5 84.5z" />
    <glyph glyph-name="guillemotright" unicode="&#xbb;" 
d="M477 306q0 -17 -11 -28l-218 -188q-11 -9 -18 -9q-9 0 -15.5 8.5t-6.5 23.5q0 17 15 30l188 163l-188 163q-15 13 -15 30q0 15 6.5 23.5t15.5 8.5q7 0 18 -9l215 -186q14 -14 14 -30zM315 306q0 -17 -11 -28l-218 -188q-11 -9 -18 -9q-9 0 -15.5 8.5t-6.5 23.5
q0 17 15 30l188 163l-188 163q-15 13 -15 30q0 15 6.5 23.5t15.5 8.5q7 0 18 -9l215 -186q14 -14 14 -30z" />
    <glyph glyph-name="onequarter" unicode="&#xbc;" 
d="M190 326q0 -14 -20 -14h-121q-20 0 -20 14q0 15 20 15h44v214q-22 -22 -51 -22q-16 0 -16 15q0 14 18 14q30 2 53 50q5 11 14 11q15 0 15 -20v-262h44q20 0 20 -15zM489 99q0 -15 -20 -15h-38v-55h30q20 0 20 -14q0 -15 -20 -15h-88q-20 0 -20 15q0 14 20 14h30v55h-122
q-11 0 -15.5 3.5t-4.5 16.5q0 10 4 16l114 183q7 10 20 10h12q13 0 16.5 -4t3.5 -17v-179h38q20 0 20 -14zM466 576l-309 -571q-10 -17 -28 -17q-19 0 -28 15.5t-1 31.5l309 571q10 17 28 17q19 0 28 -15.5t1 -31.5zM403 113v175l-109 -175h109z" />
    <glyph glyph-name="onehalf" unicode="&#xbd;" 
d="M190 326q0 -14 -20 -14h-121q-20 0 -20 14q0 15 20 15h44v214q-22 -22 -51 -22q-16 0 -16 15q0 14 18 14q30 2 53 50q5 11 14 11q15 0 15 -20v-262h44q20 0 20 -15zM489 21q0 -18 -11 -21h-175q-20 0 -20 15q0 6 7 12l110 95q56 50 56 93q0 31 -23 49.5t-57 18.5
q-22 0 -38 -12t-21 -32q6 -4 6 -15q0 -9 -6.5 -14.5t-13.5 -5.5q-20 0 -20 22q0 33 27 59.5t69 26.5q48 0 79 -27.5t31 -69.5q0 -55 -58 -105l-95 -81h120q0 8 0.5 12t4.5 7.5t12 3.5q16 0 16 -21v-10zM440 576l-309 -571q-9 -17 -28 -17q-18 0 -27.5 15.5t-0.5 31.5
l308 571q10 17 29 17q18 0 27 -15.5t1 -31.5z" />
    <glyph glyph-name="threequarters" unicode="&#xbe;" 
d="M236 398q0 -37 -30 -64.5t-76 -27.5t-77 21.5t-31 53.5q0 22 20 22q9 0 14.5 -6t5.5 -14q0 -6 -3 -12l-1 -2q0 -4 7 -11.5t24.5 -15t40.5 -7.5q32 0 52.5 19t20.5 45q0 23 -19.5 43t-55.5 20h-23q-19 0 -19 15q0 13 13 14q1 0 4 0.5t9.5 1t14.5 0.5q35 3 48.5 22.5
t13.5 37.5q0 17 -17 29t-42 12q-42 0 -58 -20q4 -5 4 -13q0 -9 -6.5 -14.5t-13.5 -5.5q-20 0 -20 21q0 28 26 44.5t68 16.5q40 0 66 -20.5t26 -49.5q0 -47 -44 -75q58 -25 58 -80zM489 99q0 -15 -20 -15h-38v-55h30q20 0 20 -14q0 -15 -20 -15h-88q-20 0 -20 15q0 14 20 14
h30v55h-122q-11 0 -15.5 3.5t-4.5 16.5q0 10 4 16l114 183q7 10 20 10h12q13 0 16.5 -4t3.5 -17v-179h38q20 0 20 -14zM466 576l-309 -571q-10 -17 -28 -17q-19 0 -28 15.5t-1 31.5l309 571q10 17 28 17q19 0 28 -15.5t1 -31.5zM403 113v175l-109 -175h109z" />
    <glyph glyph-name="questiondown" unicode="&#xbf;" 
d="M287 344q0 -19 -13 -32t-32 -13t-32 13t-13 32t13 32t32 13t32 -13t13 -32zM453 -104q0 -54 -52 -89t-158 -35q-49 0 -85 11t-54 25.5t-28.5 34.5t-12.5 31.5t-2 23.5q0 58 55 97q90 63 90 162v19q0 14 1 20.5t9.5 12.5t25.5 6q25 0 30.5 -10t5.5 -41q0 -23 -2.5 -40
t-12.5 -49t-37.5 -64.5t-70.5 -62.5q-29 -19 -29 -50q0 -68 117 -68q106 0 138 42q-9 11 -9 26q0 20 13 30.5t27 10.5t27.5 -10t13.5 -33z" />
    <glyph glyph-name="Agrave" unicode="&#xc0;" 
d="M487 29q0 -29 -41 -29h-96q-41 0 -41 29q0 20 13 24.5t42 4.5l-26 112h-162l-26 -112q20 0 29 -1t17.5 -7.5t8.5 -20.5q0 -29 -41 -29h-96q-41 0 -41 29q0 20 12.5 24.5t43.5 4.5l124 531q5 23 15 29.5t35 6.5q15 0 22.5 -1t16 -9.5t12.5 -25.5l123 -531q21 0 30.5 -1
t17.5 -7.5t8 -20.5zM325 228l-51 229q-14 62 -17 85h-1q-5 -49 -67 -314h136zM363 711q0 -5 -1.5 -11.5t-11 -15.5t-25.5 -9l-146 69q-26 12 -26 33q0 33 39 33l149 -71q22 -11 22 -28z" />
    <glyph glyph-name="Aacute" unicode="&#xc1;" 
d="M487 29q0 -29 -41 -29h-96q-41 0 -41 29q0 20 13 24.5t42 4.5l-26 112h-162l-26 -112q20 0 29 -1t17.5 -7.5t8.5 -20.5q0 -29 -41 -29h-96q-41 0 -41 29q0 20 12.5 24.5t43.5 4.5l124 531q5 23 15 29.5t35 6.5q15 0 22.5 -1t16 -9.5t12.5 -25.5l123 -531q21 0 30.5 -1
t17.5 -7.5t8 -20.5zM325 228l-51 229q-14 62 -17 85h-1q-5 -49 -67 -314h136zM362 777q0 -21 -26 -33l-146 -69q-16 0 -25.5 9t-11 15.5t-1.5 11.5q0 17 22 28l149 71q39 0 39 -33z" />
    <glyph glyph-name="Acircumflex" unicode="&#xc2;" 
d="M487 29q0 -29 -41 -29h-96q-41 0 -41 29q0 20 13 24.5t42 4.5l-26 112h-162l-26 -112q20 0 29 -1t17.5 -7.5t8.5 -20.5q0 -29 -41 -29h-96q-41 0 -41 29q0 20 12.5 24.5t43.5 4.5l124 531q5 23 15 29.5t35 6.5q15 0 22.5 -1t16 -9.5t12.5 -25.5l123 -531q21 0 30.5 -1
t17.5 -7.5t8 -20.5zM325 228l-51 229q-14 62 -17 85h-1q-5 -49 -67 -314h136zM385 723q26 -10 17 -37t-36 -19l-109 33l-109 -33q-27 -8 -36 19t18 37l118 43q10 3 19 0z" />
    <glyph glyph-name="Atilde" unicode="&#xc3;" 
d="M487 29q0 -29 -41 -29h-96q-41 0 -41 29q0 20 13 24.5t42 4.5l-26 112h-162l-26 -112q20 0 29 -1t17.5 -7.5t8.5 -20.5q0 -29 -41 -29h-96q-41 0 -41 29q0 20 12.5 24.5t43.5 4.5l124 531q5 23 15 29.5t35 6.5q15 0 22.5 -1t16 -9.5t12.5 -25.5l123 -531q21 0 30.5 -1
t17.5 -7.5t8 -20.5zM325 228l-51 229q-14 62 -17 85h-1q-5 -49 -67 -314h136zM428 753q0 -18 -48 -54q-42 -34 -77 -34q-36 0 -73 43q-11 13 -21 13q-11 0 -28 -10.5t-29 -20.5l-11 -11q-12 -14 -26 -14q-11 0 -20 9t-9 20q0 18 48 54q42 34 77 34q36 0 73 -43
q11 -13 21 -13q11 0 28 10.5t29 21.5l11 10q12 14 26 14q11 0 20 -9t9 -20z" />
    <glyph glyph-name="Adieresis" unicode="&#xc4;" 
d="M487 29q0 -29 -41 -29h-96q-41 0 -41 29q0 20 13 24.5t42 4.5l-26 112h-162l-26 -112q20 0 29 -1t17.5 -7.5t8.5 -20.5q0 -29 -41 -29h-96q-41 0 -41 29q0 20 12.5 24.5t43.5 4.5l124 531q5 23 15 29.5t35 6.5q15 0 22.5 -1t16 -9.5t12.5 -25.5l123 -531q21 0 30.5 -1
t17.5 -7.5t8 -20.5zM325 228l-51 229q-14 62 -17 85h-1q-5 -49 -67 -314h136zM211 705q0 -17 -11.5 -28.5t-28.5 -11.5t-29 11.5t-12 28.5t12 29t29 12t28.5 -12t11.5 -29zM386 705q0 -17 -12 -28.5t-28 -11.5q-17 0 -29 11.5t-12 28.5t12 29t29 12t28.5 -12t11.5 -29z" />
    <glyph glyph-name="Aring" unicode="&#xc5;" 
d="M487 29q0 -29 -41 -29h-96q-41 0 -41 29q0 20 13 24.5t42 4.5l-26 112h-162l-26 -112q20 0 29 -1t17.5 -7.5t8.5 -20.5q0 -29 -41 -29h-96q-41 0 -41 29q0 20 12.5 24.5t43.5 4.5l124 531q5 23 15 29.5t35 6.5q15 0 22.5 -1t16 -9.5t12.5 -25.5l123 -531q21 0 30.5 -1
t17.5 -7.5t8 -20.5zM325 228l-51 229q-14 62 -17 85h-1q-5 -49 -67 -314h136zM302 697q0 14 -12 24t-33 10t-33 -10t-12 -24t12 -24t33 -10t33 10t12 24zM352 697q0 -29 -27.5 -50.5t-67.5 -21.5t-67.5 21.5t-27.5 50.5t27.5 50.5t67.5 21.5t67.5 -21.5t27.5 -50.5z" />
    <glyph glyph-name="AE" unicode="&#xc6;" 
d="M490 41q0 -24 -8 -32.5t-32 -8.5h-189q-40 0 -40 29t38 29v128h-108l-25 -128q44 0 44 -29t-41 -29h-66q-41 0 -41 29q0 13 8.5 20t16 8t21.5 1l100 495q-38 0 -38 29t40 29h272q25 0 32.5 -8.5t7.5 -32.5v-66q0 -41 -28 -41t-28 41v49h-111v-207h111q40 0 40 -29
t-40 -29h-111v-230h119v64q0 41 28 41t28 -41v-81zM259 244v309h-34l-62 -309h96z" />
    <glyph glyph-name="Ccedilla" unicode="&#xc7;" 
d="M474 169q0 -55 -38.5 -105t-100.5 -68v-9q48 -9 72 -35.5t24 -59.5t-19.5 -55t-55.5 -30.5t-63 -11t-66 -2.5q-19 0 -28 1t-17.5 7.5t-8.5 20.5q0 29 41 29h20q132 0 132 41q0 18 -18 28.5t-47 12.5q-14 1 -21.5 7.5t-8.5 13t-1 18.5v16q-95 3 -162.5 94t-67.5 224
t69.5 225t166.5 92q71 0 129 -51q13 30 14 33q10 18 27 18q13 0 19.5 -7t7.5 -13.5t1 -17.5v-145q0 -13 -1 -19.5t-9 -12.5t-23 -6t-22.5 6t-9.5 22q-10 65 -46.5 100t-80.5 35q-70 0 -123.5 -74.5t-53.5 -184.5q0 -111 53 -185.5t125 -74.5q12 0 27 3.5t38.5 15t40.5 41
t20 72.5q3 22 32 22q33 0 33 -31z" />
    <glyph glyph-name="Egrave" unicode="&#xc8;" 
d="M493 41q0 -24 -8 -32.5t-32 -8.5h-384q-41 0 -41 29t41 29h27v495h-27q-41 0 -41 29t41 29h362q25 0 32.5 -8.5t7.5 -32.5v-66q0 -13 -1 -20t-9 -14t-23 -7t-22.5 7.5t-8.5 14t-1 19.5v49h-245v-207h132q0 22 1 31t8.5 16t23.5 7q15 0 22.5 -7.5t8.5 -14t1 -19.5v-84
q0 -13 -1 -19.5t-8.5 -14t-22.5 -7.5q-23 0 -28 11.5t-5 42.5h-132v-230h267v64q0 13 1 20t9 14t23 7t22.5 -7.5t8.5 -14t1 -19.5v-81zM363 711q0 -5 -1.5 -11.5t-11 -15.5t-25.5 -9l-146 69q-26 12 -26 33q0 33 39 33l149 -71q22 -11 22 -28z" />
    <glyph glyph-name="Eacute" unicode="&#xc9;" 
d="M493 41q0 -24 -8 -32.5t-32 -8.5h-384q-41 0 -41 29t41 29h27v495h-27q-41 0 -41 29t41 29h362q25 0 32.5 -8.5t7.5 -32.5v-66q0 -13 -1 -20t-9 -14t-23 -7t-22.5 7.5t-8.5 14t-1 19.5v49h-245v-207h132q0 22 1 31t8.5 16t23.5 7q15 0 22.5 -7.5t8.5 -14t1 -19.5v-84
q0 -13 -1 -19.5t-8.5 -14t-22.5 -7.5q-23 0 -28 11.5t-5 42.5h-132v-230h267v64q0 13 1 20t9 14t23 7t22.5 -7.5t8.5 -14t1 -19.5v-81zM362 777q0 -21 -26 -33l-146 -69q-16 0 -25.5 9t-11 15.5t-1.5 11.5q0 17 22 28l149 71q39 0 39 -33z" />
    <glyph glyph-name="Ecircumflex" unicode="&#xca;" 
d="M493 41q0 -24 -8 -32.5t-32 -8.5h-384q-41 0 -41 29t41 29h27v495h-27q-41 0 -41 29t41 29h362q25 0 32.5 -8.5t7.5 -32.5v-66q0 -13 -1 -20t-9 -14t-23 -7t-22.5 7.5t-8.5 14t-1 19.5v49h-245v-207h132q0 22 1 31t8.5 16t23.5 7q15 0 22.5 -7.5t8.5 -14t1 -19.5v-84
q0 -13 -1 -19.5t-8.5 -14t-22.5 -7.5q-23 0 -28 11.5t-5 42.5h-132v-230h267v64q0 13 1 20t9 14t23 7t22.5 -7.5t8.5 -14t1 -19.5v-81zM385 723q26 -10 17 -37t-36 -19l-109 33l-109 -33q-27 -8 -36 19t18 37l118 43q10 3 19 0z" />
    <glyph glyph-name="Edieresis" unicode="&#xcb;" 
d="M493 41q0 -24 -8 -32.5t-32 -8.5h-384q-41 0 -41 29t41 29h27v495h-27q-41 0 -41 29t41 29h362q25 0 32.5 -8.5t7.5 -32.5v-66q0 -13 -1 -20t-9 -14t-23 -7t-22.5 7.5t-8.5 14t-1 19.5v49h-245v-207h132q0 22 1 31t8.5 16t23.5 7q15 0 22.5 -7.5t8.5 -14t1 -19.5v-84
q0 -13 -1 -19.5t-8.5 -14t-22.5 -7.5q-23 0 -28 11.5t-5 42.5h-132v-230h267v64q0 13 1 20t9 14t23 7t22.5 -7.5t8.5 -14t1 -19.5v-81zM211 705q0 -17 -11.5 -28.5t-28.5 -11.5t-29 11.5t-12 28.5t12 29t29 12t28.5 -12t11.5 -29zM386 705q0 -17 -12 -28.5t-28 -11.5
q-17 0 -29 11.5t-12 28.5t12 29t29 12t28.5 -12t11.5 -29z" />
    <glyph glyph-name="Igrave" unicode="&#xcc;" 
d="M432 29q0 -29 -40 -29h-269q-40 0 -40 29t40 29h102v495h-102q-40 0 -40 29t40 29h269q40 0 40 -29t-40 -29h-102v-495h102q40 0 40 -29zM363 711q0 -5 -1.5 -11.5t-11 -15.5t-25.5 -9l-146 69q-26 12 -26 33q0 33 39 33l149 -71q22 -11 22 -28z" />
    <glyph glyph-name="Iacute" unicode="&#xcd;" 
d="M432 29q0 -29 -40 -29h-269q-40 0 -40 29t40 29h102v495h-102q-40 0 -40 29t40 29h269q40 0 40 -29t-40 -29h-102v-495h102q40 0 40 -29zM362 777q0 -21 -26 -33l-146 -69q-16 0 -25.5 9t-11 15.5t-1.5 11.5q0 17 22 28l149 71q39 0 39 -33z" />
    <glyph glyph-name="Icircumflex" unicode="&#xce;" 
d="M432 29q0 -29 -40 -29h-269q-40 0 -40 29t40 29h102v495h-102q-40 0 -40 29t40 29h269q40 0 40 -29t-40 -29h-102v-495h102q40 0 40 -29zM385 723q26 -10 17 -37t-36 -19l-109 33l-109 -33q-27 -8 -36 19t18 37l118 43q10 3 19 0z" />
    <glyph glyph-name="Idieresis" unicode="&#xcf;" 
d="M432 29q0 -29 -40 -29h-269q-40 0 -40 29t40 29h102v495h-102q-40 0 -40 29t40 29h269q40 0 40 -29t-40 -29h-102v-495h102q40 0 40 -29zM211 705q0 -17 -11.5 -28.5t-28.5 -11.5t-29 11.5t-12 28.5t12 29t29 12t28.5 -12t11.5 -29zM386 705q0 -17 -12 -28.5t-28 -11.5
q-17 0 -29 11.5t-12 28.5t12 29t29 12t28.5 -12t11.5 -29z" />
    <glyph glyph-name="Eth" unicode="&#xd0;" 
d="M476 300q0 -122 -60.5 -211t-154.5 -89h-199q-40 0 -40 29t40 29h20v219h-28q-12 0 -20.5 8.5t-8.5 20.5t8.5 20.5t20.5 8.5h28v218h-20q-40 0 -40 29t40 29h198q96 0 156 -92.5t60 -218.5zM411 301q0 61 -17.5 116.5t-57 95.5t-94.5 40h-95v-218h59q12 0 20.5 -8.5
t8.5 -20.5t-8.5 -20.5t-20.5 -8.5h-59v-219h96q52 0 91.5 36t58 90.5t18.5 116.5z" />
    <glyph glyph-name="Ntilde" unicode="&#xd1;" 
d="M485 582q0 -29 -40 -29h-22v-512q0 -27 -8.5 -34t-33.5 -7q-14 0 -21.5 1t-17 9t-15.5 24l-149 420q-26 75 -30 88h-1v-484h22q41 0 41 -29t-41 -29h-100q-40 0 -40 29t40 29h22v495h-22q-40 0 -40 29t40 29h65q14 0 21 -1t16.5 -9t15.5 -24l149 -420q26 -75 30 -88h1
v484h-22q-41 0 -41 29t41 29h100q40 0 40 -29zM428 753q0 -18 -48 -54q-42 -34 -77 -34q-36 0 -73 43q-11 13 -21 13q-11 0 -28 -10.5t-29 -20.5l-11 -11q-12 -14 -26 -14q-11 0 -20 9t-9 20q0 18 48 54q42 34 77 34q36 0 73 -43q11 -13 21 -13q11 0 28 10.5t29 21.5l11 10
q12 14 26 14q11 0 20 -9t9 -20z" />
    <glyph glyph-name="Ograve" unicode="&#xd2;" 
d="M459 305q0 -58 -1 -97t-5.5 -74.5t-9.5 -56.5t-17 -39t-25 -26.5t-36 -14.5t-47 -7.5t-61 -1.5t-61 1.5t-47 7.5t-36 14.5t-25 26.5t-17 39t-9.5 57t-5.5 74.5t-1 97.5q0 58 1 97t5.5 74.5t9.5 56.5t17 39t25 26.5t36 14.5t47 7.5t61 1.5t61 -1.5t47 -7.5t36 -14.5
t25 -26.5t17 -39t9.5 -57t5.5 -74.5t1 -97.5zM394 314q0 139 -12 186q-10 39 -37 52t-88 13q-63 0 -89.5 -13.5t-36.5 -54.5q-11 -48 -11 -183q0 -147 13 -198q9 -37 34.5 -53.5t89.5 -16.5q66 0 91.5 17t34.5 58q11 54 11 193zM363 711q0 -5 -1.5 -11.5t-11 -15.5t-25.5 -9
l-146 69q-26 12 -26 33q0 33 39 33l149 -71q22 -11 22 -28z" />
    <glyph glyph-name="Oacute" unicode="&#xd3;" 
d="M459 305q0 -58 -1 -97t-5.5 -74.5t-9.5 -56.5t-17 -39t-25 -26.5t-36 -14.5t-47 -7.5t-61 -1.5t-61 1.5t-47 7.5t-36 14.5t-25 26.5t-17 39t-9.5 57t-5.5 74.5t-1 97.5q0 58 1 97t5.5 74.5t9.5 56.5t17 39t25 26.5t36 14.5t47 7.5t61 1.5t61 -1.5t47 -7.5t36 -14.5
t25 -26.5t17 -39t9.5 -57t5.5 -74.5t1 -97.5zM394 314q0 139 -12 186q-10 39 -37 52t-88 13q-63 0 -89.5 -13.5t-36.5 -54.5q-11 -48 -11 -183q0 -147 13 -198q9 -37 34.5 -53.5t89.5 -16.5q66 0 91.5 17t34.5 58q11 54 11 193zM362 777q0 -21 -26 -33l-146 -69
q-16 0 -25.5 9t-11 15.5t-1.5 11.5q0 17 22 28l149 71q39 0 39 -33z" />
    <glyph glyph-name="Ocircumflex" unicode="&#xd4;" 
d="M459 305q0 -58 -1 -97t-5.5 -74.5t-9.5 -56.5t-17 -39t-25 -26.5t-36 -14.5t-47 -7.5t-61 -1.5t-61 1.5t-47 7.5t-36 14.5t-25 26.5t-17 39t-9.5 57t-5.5 74.5t-1 97.5q0 58 1 97t5.5 74.5t9.5 56.5t17 39t25 26.5t36 14.5t47 7.5t61 1.5t61 -1.5t47 -7.5t36 -14.5
t25 -26.5t17 -39t9.5 -57t5.5 -74.5t1 -97.5zM394 314q0 139 -12 186q-10 39 -37 52t-88 13q-63 0 -89.5 -13.5t-36.5 -54.5q-11 -48 -11 -183q0 -147 13 -198q9 -37 34.5 -53.5t89.5 -16.5q66 0 91.5 17t34.5 58q11 54 11 193zM385 723q26 -10 17 -37t-36 -19l-109 33
l-109 -33q-27 -8 -36 19t18 37l118 43q10 3 19 0z" />
    <glyph glyph-name="Otilde" unicode="&#xd5;" 
d="M459 305q0 -58 -1 -97t-5.5 -74.5t-9.5 -56.5t-17 -39t-25 -26.5t-36 -14.5t-47 -7.5t-61 -1.5t-61 1.5t-47 7.5t-36 14.5t-25 26.5t-17 39t-9.5 57t-5.5 74.5t-1 97.5q0 58 1 97t5.5 74.5t9.5 56.5t17 39t25 26.5t36 14.5t47 7.5t61 1.5t61 -1.5t47 -7.5t36 -14.5
t25 -26.5t17 -39t9.5 -57t5.5 -74.5t1 -97.5zM394 314q0 139 -12 186q-10 39 -37 52t-88 13q-63 0 -89.5 -13.5t-36.5 -54.5q-11 -48 -11 -183q0 -147 13 -198q9 -37 34.5 -53.5t89.5 -16.5q66 0 91.5 17t34.5 58q11 54 11 193zM428 753q0 -18 -48 -54q-42 -34 -77 -34
q-36 0 -73 43q-11 13 -21 13q-11 0 -28 -10.5t-29 -20.5l-11 -11q-12 -14 -26 -14q-11 0 -20 9t-9 20q0 18 48 54q42 34 77 34q36 0 73 -43q11 -13 21 -13q11 0 28 10.5t29 21.5l11 10q12 14 26 14q11 0 20 -9t9 -20z" />
    <glyph glyph-name="Odieresis" unicode="&#xd6;" 
d="M459 305q0 -58 -1 -97t-5.5 -74.5t-9.5 -56.5t-17 -39t-25 -26.5t-36 -14.5t-47 -7.5t-61 -1.5t-61 1.5t-47 7.5t-36 14.5t-25 26.5t-17 39t-9.5 57t-5.5 74.5t-1 97.5q0 58 1 97t5.5 74.5t9.5 56.5t17 39t25 26.5t36 14.5t47 7.5t61 1.5t61 -1.5t47 -7.5t36 -14.5
t25 -26.5t17 -39t9.5 -57t5.5 -74.5t1 -97.5zM394 314q0 139 -12 186q-10 39 -37 52t-88 13q-63 0 -89.5 -13.5t-36.5 -54.5q-11 -48 -11 -183q0 -147 13 -198q9 -37 34.5 -53.5t89.5 -16.5q66 0 91.5 17t34.5 58q11 54 11 193zM211 705q0 -17 -11.5 -28.5t-28.5 -11.5
t-29 11.5t-12 28.5t12 29t29 12t28.5 -12t11.5 -29zM386 705q0 -17 -12 -28.5t-28 -11.5q-17 0 -29 11.5t-12 28.5t12 29t29 12t28.5 -12t11.5 -29z" />
    <glyph glyph-name="multiply" unicode="&#xd7;" 
d="M413 150q-7 -7 -14.5 -8.5t-11.5 -1.5t-12 5.5t-9 6.5t-8 7l-101 101l-101 -101q-32 -32 -55 -9t9 55l101 101l-101 101q-32 32 -8 55q22 23 54 -9l101 -101l101 100q32 32 55 9t-9 -55l-101 -100l101 -101q32 -32 9 -55z" />
    <glyph glyph-name="Oslash" unicode="&#xd8;" 
d="M459 305q0 -58 -1 -97t-5.5 -74.5t-9.5 -56.5t-17 -39t-25 -26.5t-36 -14.5t-47 -7.5t-61 -1.5q-43 0 -71 2l-14 -44q-3 -10 -5.5 -15t-9 -10t-15.5 -5q-14 0 -22 8.5t-8 19.5q0 1 4 14.5t8.5 28t5.5 17.5q-33 13 -48 44t-22 98q-5 48 -5 160q0 58 1 97t5.5 74.5
t9.5 56.5t17 39t25 26.5t36 14.5t47 7.5t61 1.5q43 0 71 -2l14 44q3 10 5.5 15t9 10t15.5 5q14 0 22 -8.5t8 -19.5q0 -1 -4 -14.5t-8.5 -28t-5.5 -17.5q33 -13 48 -44t22 -98q5 -48 5 -160zM309 563q-17 2 -52 2q-64 0 -93.5 -13t-40.5 -57q-12 -51 -12 -190
q0 -95 6.5 -148.5t13 -65.5t19.5 -22zM403 306q0 95 -6.5 148.5t-13 65.5t-19.5 22l-159 -494q17 -2 52 -2q64 0 93.5 13t40.5 57q12 51 12 190z" />
    <glyph glyph-name="Ugrave" unicode="&#xd9;" 
d="M507 582q0 -29 -41 -29h-27v-350q0 -90 -53.5 -152.5t-128.5 -62.5t-128.5 62.5t-53.5 152.5v350h-27q-41 0 -41 29t41 29h119q41 0 41 -29t-41 -29h-27v-344q0 -75 36.5 -119t80.5 -44t80.5 43.5t36.5 119.5v344h-27q-41 0 -41 29t41 29h119q41 0 41 -29zM363 711
q0 -5 -1.5 -11.5t-11 -15.5t-25.5 -9l-146 69q-26 12 -26 33q0 33 39 33l149 -71q22 -11 22 -28z" />
    <glyph glyph-name="Uacute" unicode="&#xda;" 
d="M507 582q0 -29 -41 -29h-27v-350q0 -90 -53.5 -152.5t-128.5 -62.5t-128.5 62.5t-53.5 152.5v350h-27q-41 0 -41 29t41 29h119q41 0 41 -29t-41 -29h-27v-344q0 -75 36.5 -119t80.5 -44t80.5 43.5t36.5 119.5v344h-27q-41 0 -41 29t41 29h119q41 0 41 -29zM362 777
q0 -21 -26 -33l-146 -69q-16 0 -25.5 9t-11 15.5t-1.5 11.5q0 17 22 28l149 71q39 0 39 -33z" />
    <glyph glyph-name="Ucircumflex" unicode="&#xdb;" 
d="M507 582q0 -29 -41 -29h-27v-350q0 -90 -53.5 -152.5t-128.5 -62.5t-128.5 62.5t-53.5 152.5v350h-27q-41 0 -41 29t41 29h119q41 0 41 -29t-41 -29h-27v-344q0 -75 36.5 -119t80.5 -44t80.5 43.5t36.5 119.5v344h-27q-41 0 -41 29t41 29h119q41 0 41 -29zM385 723
q26 -10 17 -37t-36 -19l-109 33l-109 -33q-27 -8 -36 19t18 37l118 43q10 3 19 0z" />
    <glyph glyph-name="Udieresis" unicode="&#xdc;" 
d="M507 582q0 -29 -41 -29h-27v-350q0 -90 -53.5 -152.5t-128.5 -62.5t-128.5 62.5t-53.5 152.5v350h-27q-41 0 -41 29t41 29h119q41 0 41 -29t-41 -29h-27v-344q0 -75 36.5 -119t80.5 -44t80.5 43.5t36.5 119.5v344h-27q-41 0 -41 29t41 29h119q41 0 41 -29zM211 705
q0 -17 -11.5 -28.5t-28.5 -11.5t-29 11.5t-12 28.5t12 29t29 12t28.5 -12t11.5 -29zM386 705q0 -17 -12 -28.5t-28 -11.5q-17 0 -29 11.5t-12 28.5t12 29t29 12t28.5 -12t11.5 -29z" />
    <glyph glyph-name="Yacute" unicode="&#xdd;" 
d="M496 582q0 -29 -41 -29h-18l-147 -309v-186h22q40 0 40 -29t-40 -29h-109q-40 0 -40 29t40 29h22v186l-148 309h-18q-41 0 -41 29t41 29h94q41 0 41 -29q0 -10 -4 -16.5t-12 -9t-13.5 -3t-15.5 -0.5q94 -194 108 -244q9 30 51 123l57 121q-10 0 -15.5 0.5t-13.5 3t-12 9
t-4 16.5q0 29 41 29h94q41 0 41 -29zM362 777q0 -21 -26 -33l-146 -69q-16 0 -25.5 9t-11 15.5t-1.5 11.5q0 17 22 28l149 71q39 0 39 -33z" />
    <glyph glyph-name="Thorn" unicode="&#xde;" 
d="M466 332q0 -67 -48.5 -120t-131.5 -53h-114v-101h51q23 -4 23 -29q0 -29 -42 -29h-129q-42 0 -42 29q0 12 7 19.5t16 8.5q3 1 51 1v495h-51q-23 4 -23 29q0 29 42 29h129q42 0 42 -29q0 -12 -7 -19.5t-16 -8.5q-3 -1 -51 -1v-47h105q96 0 142.5 -55.5t46.5 -118.5z
M401 333q0 7 -1.5 17t-9.5 28.5t-21 33t-40.5 25.5t-64.5 11h-92v-231h90q67 0 103 36t36 80z" />
    <glyph glyph-name="germandbls" unicode="&#xdf;" 
d="M485 175q0 -79 -54 -130t-126 -51q-45 0 -72.5 20.5t-27.5 51.5q0 16 10 27t27 11q16 0 26.5 -10.5t10.5 -26.5q0 -7 -1 -10q10 -5 27 -5q45 0 80 34t35 89q0 70 -41.5 131.5t-120.5 66.5q-26 1 -26 29q0 13 7 19.5t12 7.5t16 2q55 2 90 26t35 51q0 20 -31.5 35.5
t-77.5 15.5q-43 0 -73 -15q-24 -10 -29.5 -20t-5.5 -28v-455q0 -24 -8 -32.5t-32 -8.5h-75q-40 0 -40 29t40 29h50v315h-50q-40 0 -40 29t40 29h50v69q0 35 19.5 60.5t50 36.5t56 15.5t48.5 4.5q70 0 121.5 -30t51.5 -79q0 -68 -86 -112q54 -33 84 -94t30 -127z" />
    <glyph glyph-name="agrave" unicode="&#xe0;" 
d="M509 29q0 -14 -8 -20.5t-16 -7.5t-24 -1q-87 0 -108 35q-59 -41 -146 -41q-68 0 -112 38t-44 93q0 82 114 121q69 22 179 26q0 19 -1 29.5t-9.5 26.5t-25.5 29q-33 25 -90 25q-25 0 -37 -1q-22 -2 -22 -8q0 -19 -10 -30t-17 -12.5t-13 -1.5q-17 0 -29 11.5t-12 30.5
q0 69 139 69q94 0 143 -46.5t49 -109.5v-218q19 -8 60 -8q40 0 40 -29zM344 132v86q-95 0 -161.5 -25t-66.5 -68q0 -31 29 -52t73 -21q50 0 85 17q19 9 28.5 20.5t11 19.5t1.5 23zM363 524q0 -5 -1.5 -11.5t-11 -15.5t-25.5 -9l-146 69q-26 12 -26 33q0 33 39 33l149 -71
q22 -11 22 -28z" />
    <glyph glyph-name="aacute" unicode="&#xe1;" 
d="M509 29q0 -14 -8 -20.5t-16 -7.5t-24 -1q-87 0 -108 35q-59 -41 -146 -41q-68 0 -112 38t-44 93q0 82 114 121q69 22 179 26q0 19 -1 29.5t-9.5 26.5t-25.5 29q-33 25 -90 25q-25 0 -37 -1q-22 -2 -22 -8q0 -19 -10 -30t-17 -12.5t-13 -1.5q-17 0 -29 11.5t-12 30.5
q0 69 139 69q94 0 143 -46.5t49 -109.5v-218q19 -8 60 -8q40 0 40 -29zM344 132v86q-95 0 -161.5 -25t-66.5 -68q0 -31 29 -52t73 -21q50 0 85 17q19 9 28.5 20.5t11 19.5t1.5 23zM362 590q0 -21 -26 -33l-146 -69q-16 0 -25.5 9t-11 15.5t-1.5 11.5q0 17 22 28l149 71
q39 0 39 -33z" />
    <glyph glyph-name="acircumflex" unicode="&#xe2;" 
d="M509 29q0 -14 -8 -20.5t-16 -7.5t-24 -1q-87 0 -108 35q-59 -41 -146 -41q-68 0 -112 38t-44 93q0 82 114 121q69 22 179 26q0 19 -1 29.5t-9.5 26.5t-25.5 29q-33 25 -90 25q-25 0 -37 -1q-22 -2 -22 -8q0 -19 -10 -30t-17 -12.5t-13 -1.5q-17 0 -29 11.5t-12 30.5
q0 69 139 69q94 0 143 -46.5t49 -109.5v-218q19 -8 60 -8q40 0 40 -29zM344 132v86q-95 0 -161.5 -25t-66.5 -68q0 -31 29 -52t73 -21q50 0 85 17q19 9 28.5 20.5t11 19.5t1.5 23zM391 542q25 -16 9.5 -40t-40.5 -9l-103 62l-103 -62q-25 -15 -40.5 9.5t9.5 40.5l118 75
q15 10 30 0z" />
    <glyph glyph-name="atilde" unicode="&#xe3;" 
d="M509 29q0 -14 -8 -20.5t-16 -7.5t-24 -1q-87 0 -108 35q-59 -41 -146 -41q-68 0 -112 38t-44 93q0 82 114 121q69 22 179 26q0 19 -1 29.5t-9.5 26.5t-25.5 29q-33 25 -90 25q-25 0 -37 -1q-22 -2 -22 -8q0 -19 -10 -30t-17 -12.5t-13 -1.5q-17 0 -29 11.5t-12 30.5
q0 69 139 69q94 0 143 -46.5t49 -109.5v-218q19 -8 60 -8q40 0 40 -29zM344 132v86q-95 0 -161.5 -25t-66.5 -68q0 -31 29 -52t73 -21q50 0 85 17q19 9 28.5 20.5t11 19.5t1.5 23zM428 585q0 -18 -48 -54q-42 -34 -77 -34q-36 0 -73 43q-11 13 -21 13q-11 0 -28 -10.5
t-29 -20.5l-11 -11q-12 -14 -26 -14q-11 0 -20 9t-9 20q0 18 48 54q42 34 77 34q36 0 73 -43q11 -13 21 -13q11 0 28 10.5t29 21.5l11 10q12 14 26 14q11 0 20 -9t9 -20z" />
    <glyph glyph-name="adieresis" unicode="&#xe4;" 
d="M509 29q0 -14 -8 -20.5t-16 -7.5t-24 -1q-87 0 -108 35q-59 -41 -146 -41q-68 0 -112 38t-44 93q0 82 114 121q69 22 179 26q0 19 -1 29.5t-9.5 26.5t-25.5 29q-33 25 -90 25q-25 0 -37 -1q-22 -2 -22 -8q0 -19 -10 -30t-17 -12.5t-13 -1.5q-17 0 -29 11.5t-12 30.5
q0 69 139 69q94 0 143 -46.5t49 -109.5v-218q19 -8 60 -8q40 0 40 -29zM344 132v86q-95 0 -161.5 -25t-66.5 -68q0 -31 29 -52t73 -21q50 0 85 17q19 9 28.5 20.5t11 19.5t1.5 23zM224 555q0 -17 -12 -28.5t-28 -11.5q-17 0 -29 11.5t-12 28.5t12 29t29 12t28.5 -12
t11.5 -29zM373 555q0 -17 -11.5 -28.5t-28.5 -11.5t-29 11.5t-12 28.5t12 29t29 12t28.5 -12t11.5 -29z" />
    <glyph glyph-name="aring" unicode="&#xe5;" 
d="M509 29q0 -14 -8 -20.5t-16 -7.5t-24 -1q-87 0 -108 35q-59 -41 -146 -41q-68 0 -112 38t-44 93q0 82 114 121q69 22 179 26q0 19 -1 29.5t-9.5 26.5t-25.5 29q-33 25 -90 25q-25 0 -37 -1q-22 -2 -22 -8q0 -19 -10 -30t-17 -12.5t-13 -1.5q-17 0 -29 11.5t-12 30.5
q0 69 139 69q94 0 143 -46.5t49 -109.5v-218q19 -8 60 -8q40 0 40 -29zM344 132v86q-95 0 -161.5 -25t-66.5 -68q0 -31 29 -52t73 -21q50 0 85 17q19 9 28.5 20.5t11 19.5t1.5 23zM302 566q0 14 -12 24t-33 10t-33 -10t-12 -24t12 -24t33 -10t33 10t12 24zM352 566
q0 -29 -27.5 -50.5t-67.5 -21.5t-67.5 21.5t-27.5 50.5t27.5 50.5t67.5 21.5t67.5 -21.5t27.5 -50.5z" />
    <glyph glyph-name="ae" unicode="&#xe6;" 
d="M494 109q0 -15 -9.5 -39.5t-37.5 -50t-66 -25.5q-34 0 -63.5 20.5t-47.5 48.5q-17 -30 -52 -49.5t-75 -19.5q-51 0 -81.5 37.5t-30.5 83.5q0 50 46.5 88t151.5 42v37q0 47 -20.5 73.5t-56.5 26.5q-9 0 -29 -2q0 -51 -39 -51q-17 0 -29 11.5t-12 30.5q0 27 25 48t86 21
q76 0 112 -71q44 71 106 71q52 0 87 -52.5t35 -153.5q0 -25 -7 -33.5t-33 -8.5h-168q6 -63 35 -101.5t62 -38.5q39 0 55 60q4 25 28 25q12 0 20 -8.5t8 -19.5zM437 247q-1 64 -20 99.5t-45 35.5q-29 0 -54.5 -37.5t-30.5 -97.5h150zM229 141v48q-66 -1 -104 -21.5t-38 -51.5
q0 -25 17.5 -44.5t44.5 -19.5q34 0 61 24q19 20 19 65z" />
    <glyph glyph-name="ccedilla" unicode="&#xe7;" 
d="M456 109q0 -11 -9.5 -30.5t-39 -45t-72.5 -34.5v-12q48 -9 72 -35.5t24 -59.5t-19.5 -55t-55.5 -30.5t-63 -11t-66 -2.5q-19 0 -28 1t-17.5 7.5t-8.5 20.5q0 29 41 29h20q132 0 132 41q0 18 -18 28.5t-47 12.5q-14 1 -21.5 7.5t-8.5 13t-1 18.5v23q-84 7 -140 70.5
t-56 150.5q0 35 12 71t36.5 72t70.5 58.5t107 22.5q145 0 145 -69q0 -19 -12 -30.5t-29 -11.5q-37 0 -40 42q0 6 -8 8q-27 3 -57 3q-46 0 -79.5 -18t-50 -46.5t-23.5 -53.5t-7 -48q0 -69 46.5 -116.5t110.5 -47.5q71 0 95 61q4 12 10 17t22 5q33 0 33 -26z" />
    <glyph glyph-name="egrave" unicode="&#xe8;" 
d="M456 109q0 -31 -46 -73t-130 -42q-93 0 -158.5 65t-65.5 159q0 92 61 157t148 65q90 0 140.5 -59.5t50.5 -151.5q0 -13 -3 -21t-9.5 -11.5t-12 -4t-15.5 -0.5h-293q8 -59 53.5 -99.5t106.5 -40.5q15 0 32 3t41.5 18.5t35.5 41.5q9 22 31 22q33 0 33 -28zM390 247
q-2 23 -7.5 43t-18.5 42.5t-38.5 36t-60.5 13.5q-50 0 -91 -37t-50 -98h266zM363 524q0 -5 -1.5 -11.5t-11 -15.5t-25.5 -9l-146 69q-26 12 -26 33q0 33 39 33l149 -71q22 -11 22 -28z" />
    <glyph glyph-name="eacute" unicode="&#xe9;" 
d="M456 109q0 -31 -46 -73t-130 -42q-93 0 -158.5 65t-65.5 159q0 92 61 157t148 65q90 0 140.5 -59.5t50.5 -151.5q0 -13 -3 -21t-9.5 -11.5t-12 -4t-15.5 -0.5h-293q8 -59 53.5 -99.5t106.5 -40.5q15 0 32 3t41.5 18.5t35.5 41.5q9 22 31 22q33 0 33 -28zM390 247
q-2 23 -7.5 43t-18.5 42.5t-38.5 36t-60.5 13.5q-50 0 -91 -37t-50 -98h266zM362 590q0 -21 -26 -33l-146 -69q-16 0 -25.5 9t-11 15.5t-1.5 11.5q0 17 22 28l149 71q39 0 39 -33z" />
    <glyph glyph-name="ecircumflex" unicode="&#xea;" 
d="M456 109q0 -31 -46 -73t-130 -42q-93 0 -158.5 65t-65.5 159q0 92 61 157t148 65q90 0 140.5 -59.5t50.5 -151.5q0 -13 -3 -21t-9.5 -11.5t-12 -4t-15.5 -0.5h-293q8 -59 53.5 -99.5t106.5 -40.5q15 0 32 3t41.5 18.5t35.5 41.5q9 22 31 22q33 0 33 -28zM390 247
q-2 23 -7.5 43t-18.5 42.5t-38.5 36t-60.5 13.5q-50 0 -91 -37t-50 -98h266zM391 542q25 -16 9.5 -40t-40.5 -9l-103 62l-103 -62q-25 -15 -40.5 9.5t9.5 40.5l118 75q15 10 30 0z" />
    <glyph glyph-name="edieresis" unicode="&#xeb;" 
d="M456 109q0 -31 -46 -73t-130 -42q-93 0 -158.5 65t-65.5 159q0 92 61 157t148 65q90 0 140.5 -59.5t50.5 -151.5q0 -13 -3 -21t-9.5 -11.5t-12 -4t-15.5 -0.5h-293q8 -59 53.5 -99.5t106.5 -40.5q15 0 32 3t41.5 18.5t35.5 41.5q9 22 31 22q33 0 33 -28zM390 247
q-2 23 -7.5 43t-18.5 42.5t-38.5 36t-60.5 13.5q-50 0 -91 -37t-50 -98h266zM224 555q0 -17 -12 -28.5t-28 -11.5q-17 0 -29 11.5t-12 28.5t12 29t29 12t28.5 -12t11.5 -29zM373 555q0 -17 -11.5 -28.5t-28.5 -11.5t-29 11.5t-12 28.5t12 29t29 12t28.5 -12t11.5 -29z" />
    <glyph glyph-name="igrave" unicode="&#xec;" 
d="M441 29q0 -29 -40 -29h-278q-41 0 -41 29t41 29h114v315h-107q-40 0 -40 29t40 29h132q25 0 32.5 -8.5t7.5 -32.5v-332h99q40 0 40 -29zM363 524q0 -5 -1.5 -11.5t-11 -15.5t-25.5 -9l-146 69q-26 12 -26 33q0 33 39 33l149 -71q22 -11 22 -28z" />
    <glyph glyph-name="iacute" unicode="&#xed;" 
d="M441 29q0 -29 -40 -29h-278q-41 0 -41 29t41 29h114v315h-107q-40 0 -40 29t40 29h132q25 0 32.5 -8.5t7.5 -32.5v-332h99q40 0 40 -29zM362 590q0 -21 -26 -33l-146 -69q-16 0 -25.5 9t-11 15.5t-1.5 11.5q0 17 22 28l149 71q39 0 39 -33z" />
    <glyph glyph-name="icircumflex" unicode="&#xee;" 
d="M441 29q0 -29 -40 -29h-278q-41 0 -41 29t41 29h114v315h-107q-40 0 -40 29t40 29h132q25 0 32.5 -8.5t7.5 -32.5v-332h99q40 0 40 -29zM391 542q25 -16 9.5 -40t-40.5 -9l-103 62l-103 -62q-25 -15 -40.5 9.5t9.5 40.5l118 75q15 10 30 0z" />
    <glyph glyph-name="idieresis" unicode="&#xef;" 
d="M441 29q0 -29 -40 -29h-278q-41 0 -41 29t41 29h114v315h-107q-40 0 -40 29t40 29h132q25 0 32.5 -8.5t7.5 -32.5v-332h99q40 0 40 -29zM224 555q0 -17 -12 -28.5t-28 -11.5q-17 0 -29 11.5t-12 28.5t12 29t29 12t28.5 -12t11.5 -29zM373 555q0 -17 -11.5 -28.5
t-28.5 -11.5t-29 11.5t-12 28.5t12 29t29 12t28.5 -12t11.5 -29z" />
    <glyph glyph-name="eth" unicode="&#xf0;" 
d="M455 228q0 -60 -19.5 -107.5t-50 -74t-64 -39.5t-65.5 -13q-81 0 -139.5 64t-58.5 157t58.5 158.5t140.5 65.5q33 0 65 -12q-25 31 -54 55q-16 12 -37 26l-83 -31q-6 -3 -13 -3q-13 0 -21.5 8t-8.5 19q0 22 22 30l28 10q-29 10 -59 12q-31 4 -31 26q0 11 11.5 21.5
t24.5 10.5q28 0 73 -13q35 -11 65 -25l99 37q6 3 13 3q13 0 21.5 -8t8.5 -19q0 -21 -23 -30l-57 -22q72 -54 113 -134.5t41 -171.5zM390 219q0 63 -38.5 112.5t-95.5 49.5q-53 0 -93 -45t-40 -113q0 -71 39.5 -121t94.5 -50q56 0 94.5 50.5t38.5 116.5z" />
    <glyph glyph-name="ntilde" unicode="&#xf1;" 
d="M499 29q0 -29 -40 -29h-147q-40 0 -40 29t40 29h41v231q0 47 -14.5 68.5t-55.5 21.5q-46 0 -84 -36.5t-38 -103.5v-181h41q40 0 40 -29t-40 -29h-147q-40 0 -40 29t40 29h41v315h-41q-40 0 -40 29t40 29h66q28 0 34 -10t6 -41q51 57 129 57q128 0 128 -144v-235h41
q40 0 40 -29zM428 585q0 -18 -48 -54q-42 -34 -77 -34q-36 0 -73 43q-11 13 -21 13q-11 0 -28 -10.5t-29 -20.5l-11 -11q-12 -14 -26 -14q-11 0 -20 9t-9 20q0 18 48 54q42 34 77 34q36 0 73 -43q11 -13 21 -13q11 0 28 10.5t29 21.5l11 10q12 14 26 14q11 0 20 -9t9 -20z
" />
    <glyph glyph-name="ograve" unicode="&#xf2;" 
d="M456 216q0 -93 -59 -157.5t-140 -64.5t-140 64.5t-59 157.5t58.5 158.5t140.5 65.5t140.5 -65.5t58.5 -158.5zM391 223q0 68 -40 113.5t-94 45.5t-94 -45.5t-40 -113.5q0 -71 40 -121t94 -50q55 0 94.5 50t39.5 121zM363 524q0 -5 -1.5 -11.5t-11 -15.5t-25.5 -9l-146 69
q-26 12 -26 33q0 33 39 33l149 -71q22 -11 22 -28z" />
    <glyph glyph-name="oacute" unicode="&#xf3;" 
d="M456 216q0 -93 -59 -157.5t-140 -64.5t-140 64.5t-59 157.5t58.5 158.5t140.5 65.5t140.5 -65.5t58.5 -158.5zM391 223q0 68 -40 113.5t-94 45.5t-94 -45.5t-40 -113.5q0 -71 40 -121t94 -50q55 0 94.5 50t39.5 121zM362 590q0 -21 -26 -33l-146 -69q-16 0 -25.5 9
t-11 15.5t-1.5 11.5q0 17 22 28l149 71q39 0 39 -33z" />
    <glyph glyph-name="ocircumflex" unicode="&#xf4;" 
d="M456 216q0 -93 -59 -157.5t-140 -64.5t-140 64.5t-59 157.5t58.5 158.5t140.5 65.5t140.5 -65.5t58.5 -158.5zM391 223q0 68 -40 113.5t-94 45.5t-94 -45.5t-40 -113.5q0 -71 40 -121t94 -50q55 0 94.5 50t39.5 121zM391 542q25 -16 9.5 -40t-40.5 -9l-103 62l-103 -62
q-25 -15 -40.5 9.5t9.5 40.5l118 75q15 10 30 0z" />
    <glyph glyph-name="otilde" unicode="&#xf5;" 
d="M456 216q0 -93 -59 -157.5t-140 -64.5t-140 64.5t-59 157.5t58.5 158.5t140.5 65.5t140.5 -65.5t58.5 -158.5zM391 223q0 68 -40 113.5t-94 45.5t-94 -45.5t-40 -113.5q0 -71 40 -121t94 -50q55 0 94.5 50t39.5 121zM428 585q0 -18 -48 -54q-42 -34 -77 -34q-36 0 -73 43
q-11 13 -21 13q-11 0 -28 -10.5t-29 -20.5l-11 -11q-12 -14 -26 -14q-11 0 -20 9t-9 20q0 18 48 54q42 34 77 34q36 0 73 -43q11 -13 21 -13q11 0 28 10.5t29 21.5l11 10q12 14 26 14q11 0 20 -9t9 -20z" />
    <glyph glyph-name="odieresis" unicode="&#xf6;" 
d="M456 216q0 -93 -59 -157.5t-140 -64.5t-140 64.5t-59 157.5t58.5 158.5t140.5 65.5t140.5 -65.5t58.5 -158.5zM391 223q0 68 -40 113.5t-94 45.5t-94 -45.5t-40 -113.5q0 -71 40 -121t94 -50q55 0 94.5 50t39.5 121zM224 555q0 -17 -12 -28.5t-28 -11.5q-17 0 -29 11.5
t-12 28.5t12 29t29 12t28.5 -12t11.5 -29zM373 555q0 -17 -11.5 -28.5t-28.5 -11.5t-29 11.5t-12 28.5t12 29t29 12t28.5 -12t11.5 -29z" />
    <glyph glyph-name="divide" unicode="&#xf7;" 
d="M477 306q0 -32 -43 -32h-354q-43 0 -43 32q0 33 48 33h344q48 0 48 -33zM313 496q0 -22 -16.5 -39t-40.5 -17q-22 0 -39 17t-17 39q0 24 16.5 40.5t40.5 16.5q22 0 39 -16.5t17 -40.5zM313 116q0 -22 -16.5 -39t-40.5 -17q-22 0 -39 17t-17 39q0 24 16.5 40.5t40.5 16.5
q22 0 39 -16.5t17 -40.5z" />
    <glyph glyph-name="oslash" unicode="&#xf8;" 
d="M472 541q0 -8 -8 -22l-73 -128q80 -71 80 -175q0 -93 -63 -157.5t-151 -64.5q-41 0 -83 17l-75 -131q-9 -19 -27 -19q-14 0 -22 9t-8 20q0 7 17 36l65 115q-81 70 -81 175q0 92 63 158t151 66q39 0 78 -15l5 -2q2 1 8 11l65 115q12 21 29 21q14 0 22 -9t8 -20zM312 372
q-27 10 -55 10q-65 0 -111.5 -49t-46.5 -117q0 -76 54 -124zM415 216q0 34 -13 64.5t-25 44t-15 13.5q-2 -1 -7 -9l-152 -267q26 -10 54 -10q65 0 111.5 47.5t46.5 116.5z" />
    <glyph glyph-name="ugrave" unicode="&#xf9;" 
d="M499 29q0 -29 -40 -29h-66q-12 0 -19 1t-14.5 9.5t-7.5 25.5q-49 -42 -119 -42q-137 0 -137 120v259h-41q-40 0 -40 29t40 29h66q25 0 32.5 -8.5t7.5 -32.5v-271q0 -16 1.5 -24.5t8 -20t24 -17t45.5 -5.5q43 0 78 24.5t35 79.5v217h-41q-40 0 -40 29t40 29h66
q25 0 32.5 -8.5t7.5 -32.5v-332h41q40 0 40 -29zM363 524q0 -5 -1.5 -11.5t-11 -15.5t-25.5 -9l-146 69q-26 12 -26 33q0 33 39 33l149 -71q22 -11 22 -28z" />
    <glyph glyph-name="uacute" unicode="&#xfa;" 
d="M499 29q0 -29 -40 -29h-66q-12 0 -19 1t-14.5 9.5t-7.5 25.5q-49 -42 -119 -42q-137 0 -137 120v259h-41q-40 0 -40 29t40 29h66q25 0 32.5 -8.5t7.5 -32.5v-271q0 -16 1.5 -24.5t8 -20t24 -17t45.5 -5.5q43 0 78 24.5t35 79.5v217h-41q-40 0 -40 29t40 29h66
q25 0 32.5 -8.5t7.5 -32.5v-332h41q40 0 40 -29zM362 590q0 -21 -26 -33l-146 -69q-16 0 -25.5 9t-11 15.5t-1.5 11.5q0 17 22 28l149 71q39 0 39 -33z" />
    <glyph glyph-name="ucircumflex" unicode="&#xfb;" 
d="M499 29q0 -29 -40 -29h-66q-12 0 -19 1t-14.5 9.5t-7.5 25.5q-49 -42 -119 -42q-137 0 -137 120v259h-41q-40 0 -40 29t40 29h66q25 0 32.5 -8.5t7.5 -32.5v-271q0 -16 1.5 -24.5t8 -20t24 -17t45.5 -5.5q43 0 78 24.5t35 79.5v217h-41q-40 0 -40 29t40 29h66
q25 0 32.5 -8.5t7.5 -32.5v-332h41q40 0 40 -29zM391 542q25 -16 9.5 -40t-40.5 -9l-103 62l-103 -62q-25 -15 -40.5 9.5t9.5 40.5l118 75q15 10 30 0z" />
    <glyph glyph-name="udieresis" unicode="&#xfc;" 
d="M499 29q0 -29 -40 -29h-66q-12 0 -19 1t-14.5 9.5t-7.5 25.5q-49 -42 -119 -42q-137 0 -137 120v259h-41q-40 0 -40 29t40 29h66q25 0 32.5 -8.5t7.5 -32.5v-271q0 -16 1.5 -24.5t8 -20t24 -17t45.5 -5.5q43 0 78 24.5t35 79.5v217h-41q-40 0 -40 29t40 29h66
q25 0 32.5 -8.5t7.5 -32.5v-332h41q40 0 40 -29zM224 555q0 -17 -12 -28.5t-28 -11.5q-17 0 -29 11.5t-12 28.5t12 29t29 12t28.5 -12t11.5 -29zM373 555q0 -17 -11.5 -28.5t-28.5 -11.5t-29 11.5t-12 28.5t12 29t29 12t28.5 -12t11.5 -29z" />
    <glyph glyph-name="yacute" unicode="&#xfd;" 
d="M491 402q0 -29 -41 -29h-26l-157 -464q-45 -120 -123 -135q-10 -2 -20 -2q-36 0 -59 24t-23 54q0 18 11 29t29 11q17 0 28 -11t11 -28q0 -8 -4 -20q45 -5 79 52q7 12 17 41.5t17 52.5l7 23q0 3 -4 13l-140 360h-27q-41 0 -41 29t41 29h110q41 0 41 -29t-41 -29h-23
l93 -246q14 -37 19 -60h1q14 57 99 306h-25q-41 0 -41 29t41 29h110q41 0 41 -29zM362 590q0 -21 -26 -33l-146 -69q-16 0 -25.5 9t-11 15.5t-1.5 11.5q0 17 22 28l149 71q39 0 39 -33z" />
    <glyph glyph-name="thorn" unicode="&#xfe;" 
d="M477 216q0 -94 -59 -158t-140 -64q-67 0 -117 56v-214h41q40 0 40 -29t-40 -29h-147q-40 0 -40 29t40 29h41v717h-41q-40 0 -40 29t40 29h66q25 0 32.5 -8.5t7.5 -32.5v-187q8 9 21 19t43.5 22.5t63.5 12.5q78 0 133 -64.5t55 -156.5zM412 216q0 68 -38 115.5t-92 47.5
q-48 0 -84.5 -35t-36.5 -78v-79q0 -45 30.5 -90t81.5 -45q55 0 97 47t42 117z" />
    <glyph glyph-name="ydieresis" unicode="&#xff;" 
d="M491 402q0 -29 -41 -29h-26l-157 -464q-45 -120 -123 -135q-10 -2 -20 -2q-36 0 -59 24t-23 54q0 18 11 29t29 11q17 0 28 -11t11 -28q0 -8 -4 -20q45 -5 79 52q7 12 17 41.5t17 52.5l7 23q0 3 -4 13l-140 360h-27q-41 0 -41 29t41 29h110q41 0 41 -29t-41 -29h-23
l93 -246q14 -37 19 -60h1q14 57 99 306h-25q-41 0 -41 29t41 29h110q41 0 41 -29zM224 555q0 -17 -12 -28.5t-28 -11.5q-17 0 -29 11.5t-12 28.5t12 29t29 12t28.5 -12t11.5 -29zM373 555q0 -17 -11.5 -28.5t-28.5 -11.5t-29 11.5t-12 28.5t12 29t29 12t28.5 -12t11.5 -29z
" />
    <glyph glyph-name="Amacron" unicode="&#x100;" 
d="M487 29q0 -29 -41 -29h-96q-41 0 -41 29q0 20 13 24.5t42 4.5l-26 112h-162l-26 -112q20 0 29 -1t17.5 -7.5t8.5 -20.5q0 -29 -41 -29h-96q-41 0 -41 29q0 20 12.5 24.5t43.5 4.5l124 531q5 23 15 29.5t35 6.5q15 0 22.5 -1t16 -9.5t12.5 -25.5l123 -531q21 0 30.5 -1
t17.5 -7.5t8 -20.5zM325 228l-51 229q-14 62 -17 85h-1q-5 -49 -67 -314h136zM443 714q0 -29 -40 -29h-291q-41 0 -41 30q0 29 40 29h292q40 0 40 -30z" />
    <glyph glyph-name="amacron" unicode="&#x101;" 
d="M509 29q0 -14 -8 -20.5t-16 -7.5t-24 -1q-87 0 -108 35q-59 -41 -146 -41q-68 0 -112 38t-44 93q0 82 114 121q69 22 179 26q0 19 -1 29.5t-9.5 26.5t-25.5 29q-33 25 -90 25q-25 0 -37 -1q-22 -2 -22 -8q0 -19 -10 -30t-17 -12.5t-13 -1.5q-17 0 -29 11.5t-12 30.5
q0 69 139 69q94 0 143 -46.5t49 -109.5v-218q19 -8 60 -8q40 0 40 -29zM344 132v86q-95 0 -161.5 -25t-66.5 -68q0 -31 29 -52t73 -21q50 0 85 17q19 9 28.5 20.5t11 19.5t1.5 23zM443 555q0 -29 -40 -29h-291q-41 0 -41 30q0 29 40 29h292q40 0 40 -30z" />
    <glyph glyph-name="Abreve" unicode="&#x102;" 
d="M487 29q0 -29 -41 -29h-96q-41 0 -41 29q0 20 13 24.5t42 4.5l-26 112h-162l-26 -112q20 0 29 -1t17.5 -7.5t8.5 -20.5q0 -29 -41 -29h-96q-41 0 -41 29q0 20 12.5 24.5t43.5 4.5l124 531q5 23 15 29.5t35 6.5q15 0 22.5 -1t16 -9.5t12.5 -25.5l123 -531q21 0 30.5 -1
t17.5 -7.5t8 -20.5zM325 228l-51 229q-14 62 -17 85h-1q-5 -49 -67 -314h136zM429 756q0 -23 -12.5 -39.5t-28.5 -24.5t-44 -12t-44 -4.5t-43 -0.5t-43 0.5t-44 4.5t-44 12t-28.5 24.5t-12.5 39.5q0 16 9 23.5t20 7.5q24 0 29 -24q2 -11 6.5 -15.5t30 -8.5t77.5 -4
q61 0 86.5 5t27.5 20q5 27 29 27q11 0 20 -7.5t9 -23.5z" />
    <glyph glyph-name="abreve" unicode="&#x103;" 
d="M509 29q0 -14 -8 -20.5t-16 -7.5t-24 -1q-87 0 -108 35q-59 -41 -146 -41q-68 0 -112 38t-44 93q0 82 114 121q69 22 179 26q0 19 -1 29.5t-9.5 26.5t-25.5 29q-33 25 -90 25q-25 0 -37 -1q-22 -2 -22 -8q0 -19 -10 -30t-17 -12.5t-13 -1.5q-17 0 -29 11.5t-12 30.5
q0 69 139 69q94 0 143 -46.5t49 -109.5v-218q19 -8 60 -8q40 0 40 -29zM344 132v86q-95 0 -161.5 -25t-66.5 -68q0 -31 29 -52t73 -21q50 0 85 17q19 9 28.5 20.5t11 19.5t1.5 23zM429 581q0 -23 -12.5 -39.5t-28.5 -24.5t-44 -12t-44 -4.5t-43 -0.5t-43 0.5t-44 4.5t-44 12
t-28.5 24.5t-12.5 39.5q0 16 9 23.5t20 7.5q24 0 29 -24q2 -11 6.5 -15.5t30 -8.5t77.5 -4q61 0 86.5 5t27.5 20q5 27 29 27q11 0 20 -7.5t9 -23.5z" />
    <glyph glyph-name="Aogonek" unicode="&#x104;" 
d="M487 29q0 -29 -41 -29h-15q-87 -51 -87 -110q0 -17 14.5 -28t29.5 -11q14 0 29 11.5t25 25.5q5 5 17.5 7t19.5 -2q6 -5 8 -17.5t-3 -19.5q-43 -59 -100 -59q-44 0 -71.5 30t-27.5 65q0 66 65 108q-41 0 -41 29q0 20 13 24.5t42 4.5l-26 112h-162l-26 -112q20 0 29 -1
t17.5 -7.5t8.5 -20.5q0 -29 -41 -29h-96q-41 0 -41 29q0 20 12.5 24.5t43.5 4.5l124 531q5 23 15 29.5t35 6.5q15 0 22.5 -1t16 -9.5t12.5 -25.5l123 -531q21 0 30.5 -1t17.5 -7.5t8 -20.5zM325 228l-51 229q-14 62 -17 85h-1q-5 -49 -67 -314h136z" />
    <glyph glyph-name="aogonek" unicode="&#x105;" 
d="M509 29q0 -13 -10 -20t-19.5 -8t-26.5 -1q-90 -53 -90 -110q0 -17 14.5 -28t29.5 -11q14 0 29 11.5t25 25.5q5 5 17.5 7t19.5 -2q6 -5 8 -17.5t-3 -19.5q-43 -59 -100 -59q-44 0 -71.5 30t-27.5 65q0 33 22.5 66.5t54.5 53.5q-18 8 -28 23q-59 -41 -146 -41
q-68 0 -112 38t-44 93q0 82 114 121q69 22 179 26q0 19 -1 29.5t-9.5 26.5t-25.5 29q-33 25 -90 25q-25 0 -37 -1q-22 -2 -22 -8q0 -19 -10 -30t-17 -12.5t-13 -1.5q-17 0 -29 11.5t-12 30.5q0 69 139 69q94 0 143 -46.5t49 -109.5v-218q19 -8 60 -8q40 0 40 -29zM344 132
v86q-95 0 -161.5 -25t-66.5 -68q0 -31 29 -52t73 -21q50 0 85 17q19 9 28.5 20.5t11 19.5t1.5 23z" />
    <glyph glyph-name="Cacute" unicode="&#x106;" 
d="M474 169q0 -69 -57 -125t-141 -56q-96 0 -166 91.5t-70 226.5q0 133 69.5 225t166.5 92q71 0 129 -51q13 30 14 33q10 18 27 18q13 0 19.5 -7t7.5 -13.5t1 -17.5v-145q0 -13 -1 -19.5t-9 -12.5t-23 -6t-22.5 6t-9.5 22q-10 65 -46.5 100t-80.5 35q-70 0 -123.5 -74.5
t-53.5 -184.5q0 -111 53 -185.5t125 -74.5q12 0 27 3.5t38.5 15t40.5 41t20 72.5q3 22 32 22q33 0 33 -31zM388 777q0 -21 -26 -33l-146 -69q-16 0 -25.5 9t-11 15.5t-1.5 11.5q0 17 22 28l149 71q39 0 39 -33z" />
    <glyph glyph-name="cacute" unicode="&#x107;" 
d="M456 109q0 -8 -8 -25t-25.5 -38t-53.5 -36.5t-82 -15.5q-89 0 -151 65t-62 157q0 35 12 71t36.5 72t70.5 58.5t107 22.5q145 0 145 -69q0 -19 -12 -30.5t-29 -11.5q-37 0 -40 42q0 6 -8 8q-27 3 -57 3q-46 0 -79.5 -18t-50 -46.5t-23.5 -53.5t-7 -48q0 -69 46.5 -116.5
t110.5 -47.5q71 0 95 61q4 12 10 17t22 5q33 0 33 -26zM388 590q0 -21 -26 -33l-146 -69q-16 0 -25.5 9t-11 15.5t-1.5 11.5q0 17 22 28l149 71q39 0 39 -33z" />
    <glyph glyph-name="Ccircumflex" unicode="&#x108;" 
d="M474 169q0 -69 -57 -125t-141 -56q-96 0 -166 91.5t-70 226.5q0 133 69.5 225t166.5 92q71 0 129 -51q13 30 14 33q10 18 27 18q13 0 19.5 -7t7.5 -13.5t1 -17.5v-145q0 -13 -1 -19.5t-9 -12.5t-23 -6t-22.5 6t-9.5 22q-10 65 -46.5 100t-80.5 35q-70 0 -123.5 -74.5
t-53.5 -184.5q0 -111 53 -185.5t125 -74.5q12 0 27 3.5t38.5 15t40.5 41t20 72.5q3 22 32 22q33 0 33 -31zM411 723q26 -10 17 -37t-36 -19l-109 33l-109 -33q-27 -8 -36 19t18 37l118 43q10 3 19 0z" />
    <glyph glyph-name="ccircumflex" unicode="&#x109;" 
d="M456 109q0 -8 -8 -25t-25.5 -38t-53.5 -36.5t-82 -15.5q-89 0 -151 65t-62 157q0 35 12 71t36.5 72t70.5 58.5t107 22.5q145 0 145 -69q0 -19 -12 -30.5t-29 -11.5q-37 0 -40 42q0 6 -8 8q-27 3 -57 3q-46 0 -79.5 -18t-50 -46.5t-23.5 -53.5t-7 -48q0 -69 46.5 -116.5
t110.5 -47.5q71 0 95 61q4 12 10 17t22 5q33 0 33 -26zM417 542q25 -16 9.5 -40t-40.5 -9l-103 62l-103 -62q-25 -15 -40.5 9.5t9.5 40.5l118 75q15 10 30 0z" />
    <glyph glyph-name="Cdotaccent" unicode="&#x10a;" 
d="M474 169q0 -69 -57 -125t-141 -56q-96 0 -166 91.5t-70 226.5q0 133 69.5 225t166.5 92q71 0 129 -51q13 30 14 33q10 18 27 18q13 0 19.5 -7t7.5 -13.5t1 -17.5v-145q0 -13 -1 -19.5t-9 -12.5t-23 -6t-22.5 6t-9.5 22q-10 65 -46.5 100t-80.5 35q-70 0 -123.5 -74.5
t-53.5 -184.5q0 -111 53 -185.5t125 -74.5q12 0 27 3.5t38.5 15t40.5 41t20 72.5q3 22 32 22q33 0 33 -31zM328 722q0 -19 -13 -32t-32 -13t-32 13t-13 32t13 32t32 13t32 -13t13 -32z" />
    <glyph glyph-name="cdotaccent" unicode="&#x10b;" 
d="M456 109q0 -8 -8 -25t-25.5 -38t-53.5 -36.5t-82 -15.5q-89 0 -151 65t-62 157q0 35 12 71t36.5 72t70.5 58.5t107 22.5q145 0 145 -69q0 -19 -12 -30.5t-29 -11.5q-37 0 -40 42q0 6 -8 8q-27 3 -57 3q-46 0 -79.5 -18t-50 -46.5t-23.5 -53.5t-7 -48q0 -69 46.5 -116.5
t110.5 -47.5q71 0 95 61q4 12 10 17t22 5q33 0 33 -26zM328 556q0 -19 -13 -32t-32 -13t-32 13t-13 32t13 32t32 13t32 -13t13 -32z" />
    <glyph glyph-name="Ccaron" unicode="&#x10c;" 
d="M474 169q0 -69 -57 -125t-141 -56q-96 0 -166 91.5t-70 226.5q0 133 69.5 225t166.5 92q71 0 129 -51q13 30 14 33q10 18 27 18q13 0 19.5 -7t7.5 -13.5t1 -17.5v-145q0 -13 -1 -19.5t-9 -12.5t-23 -6t-22.5 6t-9.5 22q-10 65 -46.5 100t-80.5 35q-70 0 -123.5 -74.5
t-53.5 -184.5q0 -111 53 -185.5t125 -74.5q12 0 27 3.5t38.5 15t40.5 41t20 72.5q3 22 32 22q33 0 33 -31zM410 710l-118 -43q-10 -3 -19 0l-118 43q-26 10 -17 37t36 19l109 -33l109 33q27 8 36 -19t-18 -37z" />
    <glyph glyph-name="ccaron" unicode="&#x10d;" 
d="M456 109q0 -8 -8 -25t-25.5 -38t-53.5 -36.5t-82 -15.5q-89 0 -151 65t-62 157q0 35 12 71t36.5 72t70.5 58.5t107 22.5q145 0 145 -69q0 -19 -12 -30.5t-29 -11.5q-37 0 -40 42q0 6 -8 8q-27 3 -57 3q-46 0 -79.5 -18t-50 -46.5t-23.5 -53.5t-7 -48q0 -69 46.5 -116.5
t110.5 -47.5q71 0 95 61q4 12 10 17t22 5q33 0 33 -26zM417 568l-118 -75q-15 -10 -30 0l-120 76q-25 16 -9.5 40t40.5 9l103 -62l103 62q25 15 40.5 -9.5t-9.5 -40.5z" />
    <glyph glyph-name="Dcaron" unicode="&#x10e;" 
d="M476 300q0 -122 -60.5 -211t-154.5 -89h-199q-40 0 -40 29t40 29h20v495h-20q-40 0 -40 29t40 29h198q96 0 156 -92.5t60 -218.5zM411 301q0 61 -17.5 116.5t-57 95.5t-94.5 40h-95v-495h96q52 0 91.5 36t58 90.5t18.5 116.5zM322 710l-118 -43q-10 -3 -19 0l-118 43
q-26 10 -17 37t36 19l109 -33l109 33q27 8 36 -19t-18 -37z" />
    <glyph glyph-name="dcaron" unicode="&#x10f;" 
d="M499 29q0 -29 -40 -29h-66q-28 0 -34 10t-6 45q-53 -61 -127 -61q-78 0 -133.5 64.5t-55.5 156.5q0 93 58.5 157.5t139.5 64.5q68 0 118 -50v166h-41q-40 0 -40 29t40 29h66q25 0 32.5 -8.5t7.5 -32.5v-512h41q40 0 40 -29zM353 190v78q0 41 -32.5 76t-79.5 35
q-55 0 -97 -47t-42 -117q0 -68 38 -115.5t92 -47.5q52 0 86.5 45.5t34.5 92.5zM574 540q0 -53 -35.5 -85.5t-58.5 -32.5q-9 0 -16.5 7.5t-7.5 15.5q0 16 18 19q48 17 56 65q-8 -3 -14 -3q-18 0 -30 12t-12 31q0 16 11.5 29t30.5 13q25 0 41.5 -20.5t16.5 -50.5z" />
    <glyph glyph-name="Dcroat" unicode="&#x110;" 
d="M476 300q0 -122 -60.5 -211t-154.5 -89h-199q-40 0 -40 29t40 29h20v219h-28q-12 0 -20.5 8.5t-8.5 20.5t8.5 20.5t20.5 8.5h28v218h-20q-40 0 -40 29t40 29h198q96 0 156 -92.5t60 -218.5zM411 301q0 61 -17.5 116.5t-57 95.5t-94.5 40h-95v-218h59q12 0 20.5 -8.5
t8.5 -20.5t-8.5 -20.5t-20.5 -8.5h-59v-219h96q52 0 91.5 36t58 90.5t18.5 116.5z" />
    <glyph glyph-name="dcroat" unicode="&#x111;" 
d="M499 29q0 -29 -40 -29h-66q-28 0 -34 10t-6 45q-53 -61 -127 -61q-78 0 -133.5 64.5t-55.5 156.5q0 93 58.5 157.5t139.5 64.5q68 0 118 -50v76h-147q-12 0 -20.5 8.5t-8.5 20.5t8.5 20.5t20.5 8.5h147v32h-41q-40 0 -40 29t40 29h66q25 0 32.5 -8.5t7.5 -32.5v-49h49
q12 0 20.5 -8.5t8.5 -20.5t-8.5 -20.5t-20.5 -8.5h-49v-405h41q40 0 40 -29zM353 190v78q0 41 -32.5 76t-79.5 35q-55 0 -97 -47t-42 -117q0 -68 38 -115.5t92 -47.5q52 0 86.5 45.5t34.5 92.5z" />
    <glyph glyph-name="Emacron" unicode="&#x112;" 
d="M493 41q0 -24 -8 -32.5t-32 -8.5h-384q-41 0 -41 29t41 29h27v495h-27q-41 0 -41 29t41 29h362q25 0 32.5 -8.5t7.5 -32.5v-66q0 -13 -1 -20t-9 -14t-23 -7t-22.5 7.5t-8.5 14t-1 19.5v49h-245v-207h132q0 22 1 31t8.5 16t23.5 7q15 0 22.5 -7.5t8.5 -14t1 -19.5v-84
q0 -13 -1 -19.5t-8.5 -14t-22.5 -7.5q-23 0 -28 11.5t-5 42.5h-132v-230h267v64q0 13 1 20t9 14t23 7t22.5 -7.5t8.5 -14t1 -19.5v-81zM443 714q0 -29 -40 -29h-291q-41 0 -41 30q0 29 40 29h292q40 0 40 -30z" />
    <glyph glyph-name="emacron" unicode="&#x113;" 
d="M456 109q0 -31 -46 -73t-130 -42q-93 0 -158.5 65t-65.5 159q0 92 61 157t148 65q90 0 140.5 -59.5t50.5 -151.5q0 -13 -3 -21t-9.5 -11.5t-12 -4t-15.5 -0.5h-293q8 -59 53.5 -99.5t106.5 -40.5q15 0 32 3t41.5 18.5t35.5 41.5q9 22 31 22q33 0 33 -28zM390 247
q-2 23 -7.5 43t-18.5 42.5t-38.5 36t-60.5 13.5q-50 0 -91 -37t-50 -98h266zM443 555q0 -29 -40 -29h-291q-41 0 -41 30q0 29 40 29h292q40 0 40 -30z" />
    <glyph glyph-name="Ebreve" unicode="&#x114;" 
d="M493 41q0 -24 -8 -32.5t-32 -8.5h-384q-41 0 -41 29t41 29h27v495h-27q-41 0 -41 29t41 29h362q25 0 32.5 -8.5t7.5 -32.5v-66q0 -13 -1 -20t-9 -14t-23 -7t-22.5 7.5t-8.5 14t-1 19.5v49h-245v-207h132q0 22 1 31t8.5 16t23.5 7q15 0 22.5 -7.5t8.5 -14t1 -19.5v-84
q0 -13 -1 -19.5t-8.5 -14t-22.5 -7.5q-23 0 -28 11.5t-5 42.5h-132v-230h267v64q0 13 1 20t9 14t23 7t22.5 -7.5t8.5 -14t1 -19.5v-81zM429 756q0 -23 -12.5 -39.5t-28.5 -24.5t-44 -12t-44 -4.5t-43 -0.5t-43 0.5t-44 4.5t-44 12t-28.5 24.5t-12.5 39.5q0 16 9 23.5t20 7.5
q24 0 29 -24q2 -11 6.5 -15.5t30 -8.5t77.5 -4q61 0 86.5 5t27.5 20q5 27 29 27q11 0 20 -7.5t9 -23.5z" />
    <glyph glyph-name="ebreve" unicode="&#x115;" 
d="M456 109q0 -31 -46 -73t-130 -42q-93 0 -158.5 65t-65.5 159q0 92 61 157t148 65q90 0 140.5 -59.5t50.5 -151.5q0 -13 -3 -21t-9.5 -11.5t-12 -4t-15.5 -0.5h-293q8 -59 53.5 -99.5t106.5 -40.5q15 0 32 3t41.5 18.5t35.5 41.5q9 22 31 22q33 0 33 -28zM390 247
q-2 23 -7.5 43t-18.5 42.5t-38.5 36t-60.5 13.5q-50 0 -91 -37t-50 -98h266zM429 581q0 -23 -12.5 -39.5t-28.5 -24.5t-44 -12t-44 -4.5t-43 -0.5t-43 0.5t-44 4.5t-44 12t-28.5 24.5t-12.5 39.5q0 16 9 23.5t20 7.5q24 0 29 -24q2 -11 6.5 -15.5t30 -8.5t77.5 -4
q61 0 86.5 5t27.5 20q5 27 29 27q11 0 20 -7.5t9 -23.5z" />
    <glyph glyph-name="Edotaccent" unicode="&#x116;" 
d="M493 41q0 -24 -8 -32.5t-32 -8.5h-384q-41 0 -41 29t41 29h27v495h-27q-41 0 -41 29t41 29h362q25 0 32.5 -8.5t7.5 -32.5v-66q0 -13 -1 -20t-9 -14t-23 -7t-22.5 7.5t-8.5 14t-1 19.5v49h-245v-207h132q0 22 1 31t8.5 16t23.5 7q15 0 22.5 -7.5t8.5 -14t1 -19.5v-84
q0 -13 -1 -19.5t-8.5 -14t-22.5 -7.5q-23 0 -28 11.5t-5 42.5h-132v-230h267v64q0 13 1 20t9 14t23 7t22.5 -7.5t8.5 -14t1 -19.5v-81zM302 722q0 -19 -13 -32t-32 -13t-32 13t-13 32t13 32t32 13t32 -13t13 -32z" />
    <glyph glyph-name="edotaccent" unicode="&#x117;" 
d="M456 109q0 -31 -46 -73t-130 -42q-93 0 -158.5 65t-65.5 159q0 92 61 157t148 65q90 0 140.5 -59.5t50.5 -151.5q0 -13 -3 -21t-9.5 -11.5t-12 -4t-15.5 -0.5h-293q8 -59 53.5 -99.5t106.5 -40.5q15 0 32 3t41.5 18.5t35.5 41.5q9 22 31 22q33 0 33 -28zM390 247
q-2 23 -7.5 43t-18.5 42.5t-38.5 36t-60.5 13.5q-50 0 -91 -37t-50 -98h266zM302 556q0 -19 -13 -32t-32 -13t-32 13t-13 32t13 32t32 13t32 -13t13 -32z" />
    <glyph glyph-name="Eogonek" unicode="&#x118;" 
d="M493 41q0 -24 -8 -32.5t-32 -8.5h-20q-87 -51 -87 -110q0 -17 14.5 -28t29.5 -11q14 0 29 11.5t25 25.5q5 5 17.5 7t19.5 -2q6 -5 8 -17.5t-3 -19.5q-43 -59 -100 -59q-44 0 -71.5 30t-27.5 65q0 66 66 108h-284q-41 0 -41 29t41 29h27v495h-27q-41 0 -41 29t41 29h362
q25 0 32.5 -8.5t7.5 -32.5v-66q0 -13 -1 -20t-9 -14t-23 -7t-22.5 7.5t-8.5 14t-1 19.5v49h-245v-207h132q0 22 1 31t8.5 16t23.5 7q15 0 22.5 -7.5t8.5 -14t1 -19.5v-84q0 -13 -1 -19.5t-8.5 -14t-22.5 -7.5q-23 0 -28 11.5t-5 42.5h-132v-230h267v64q0 13 1 20t9 14t23 7
t22.5 -7.5t8.5 -14t1 -19.5v-81z" />
    <glyph glyph-name="eogonek" unicode="&#x119;" 
d="M456 109q0 -22 -29 -56.5t-82 -49.5q-89 -52 -89 -113q0 -17 14.5 -28t29.5 -11q14 0 29 11.5t25 25.5q5 5 17.5 7t19.5 -2q6 -5 8 -17.5t-3 -19.5q-43 -59 -100 -59q-44 0 -71.5 30t-27.5 65q0 66 58 103q-84 10 -141.5 73t-57.5 150q0 92 61 157t148 65
q90 0 140.5 -59.5t50.5 -151.5q0 -13 -3 -21t-9.5 -11.5t-12 -4t-15.5 -0.5h-293q8 -59 53.5 -99.5t106.5 -40.5q15 0 32 3t41.5 18.5t35.5 41.5q9 22 31 22q33 0 33 -28zM390 247q-2 23 -7.5 43t-18.5 42.5t-38.5 36t-60.5 13.5q-50 0 -91 -37t-50 -98h266z" />
    <glyph glyph-name="Ecaron" unicode="&#x11a;" 
d="M493 41q0 -24 -8 -32.5t-32 -8.5h-384q-41 0 -41 29t41 29h27v495h-27q-41 0 -41 29t41 29h362q25 0 32.5 -8.5t7.5 -32.5v-66q0 -13 -1 -20t-9 -14t-23 -7t-22.5 7.5t-8.5 14t-1 19.5v49h-245v-207h132q0 22 1 31t8.5 16t23.5 7q15 0 22.5 -7.5t8.5 -14t1 -19.5v-84
q0 -13 -1 -19.5t-8.5 -14t-22.5 -7.5q-23 0 -28 11.5t-5 42.5h-132v-230h267v64q0 13 1 20t9 14t23 7t22.5 -7.5t8.5 -14t1 -19.5v-81zM384 710l-118 -43q-10 -3 -19 0l-118 43q-26 10 -17 37t36 19l109 -33l109 33q27 8 36 -19t-18 -37z" />
    <glyph glyph-name="ecaron" unicode="&#x11b;" 
d="M456 109q0 -31 -46 -73t-130 -42q-93 0 -158.5 65t-65.5 159q0 92 61 157t148 65q90 0 140.5 -59.5t50.5 -151.5q0 -13 -3 -21t-9.5 -11.5t-12 -4t-15.5 -0.5h-293q8 -59 53.5 -99.5t106.5 -40.5q15 0 32 3t41.5 18.5t35.5 41.5q9 22 31 22q33 0 33 -28zM390 247
q-2 23 -7.5 43t-18.5 42.5t-38.5 36t-60.5 13.5q-50 0 -91 -37t-50 -98h266zM391 568l-118 -75q-15 -10 -30 0l-120 76q-25 16 -9.5 40t40.5 9l103 -62l103 62q25 15 40.5 -9.5t-9.5 -40.5z" />
    <glyph glyph-name="Gcircumflex" unicode="&#x11c;" 
d="M486 241q0 -13 -8.5 -20t-16 -8t-21.5 -1v-174q0 -13 -1 -19.5t-8.5 -13.5t-22.5 -7q-16 0 -23.5 6.5t-8.5 14t-1 24.5q-51 -55 -119 -55q-90 0 -154.5 91t-64.5 227q0 135 64.5 226t154.5 91q64 0 117 -48l13 32q10 16 26 16q13 0 19.5 -7t7.5 -13.5t1 -17.5v-145
q0 -13 -1 -19.5t-9 -12.5t-23 -6q-29 0 -32 25q-9 70 -41.5 104t-72.5 34q-62 0 -110.5 -74.5t-48.5 -185.5q0 -110 47.5 -184.5t110.5 -74.5q38 0 64.5 30.5t36.5 64.5t13 71h-41q-41 0 -41 29t41 29h112q41 0 41 -29zM385 723q26 -10 17 -37t-36 -19l-109 33l-109 -33
q-27 -8 -36 19t18 37l118 43q10 3 19 0z" />
    <glyph glyph-name="gcircumflex" unicode="&#x11d;" 
d="M500 391q0 -20 -12 -29t-25 -9q-30 1 -36 32q-36 -2 -65 -18q27 -42 27 -89q0 -65 -46.5 -112t-114.5 -47q-50 0 -89 27q-7 -14 -7 -31q0 -54 58 -54h85q15 0 27.5 -1t40.5 -4.5t50 -13t44.5 -24t35 -41t12.5 -60.5q0 -63 -66 -104.5t-162 -41.5t-162 42t-66 104
q0 33 18.5 67.5t56.5 55.5q-25 28 -25 72q0 38 22 70q-33 42 -33 96q0 65 46.5 112t114.5 47q51 0 95 -31q47 37 105 37q37 0 54 -16.5t17 -35.5zM324 278q0 43 -28 73t-68 30q-38 0 -66.5 -30t-28.5 -73t28.5 -73t66.5 -30q40 0 68 30t28 73zM428 -83q0 21 -8 37t-25 25
t-32.5 15t-43 8t-43.5 2.5t-46 0.5q-54 0 -69.5 -2t-32.5 -13q-42 -26 -42 -73q0 -35 49.5 -62.5t121.5 -27.5t121.5 27.5t49.5 62.5zM355 542q25 -16 9.5 -40t-40.5 -9l-103 62l-103 -62q-25 -15 -40.5 9.5t9.5 40.5l118 75q15 10 30 0z" />
    <glyph glyph-name="Gbreve" unicode="&#x11e;" 
d="M486 241q0 -13 -8.5 -20t-16 -8t-21.5 -1v-174q0 -13 -1 -19.5t-8.5 -13.5t-22.5 -7q-16 0 -23.5 6.5t-8.5 14t-1 24.5q-51 -55 -119 -55q-90 0 -154.5 91t-64.5 227q0 135 64.5 226t154.5 91q64 0 117 -48l13 32q10 16 26 16q13 0 19.5 -7t7.5 -13.5t1 -17.5v-145
q0 -13 -1 -19.5t-9 -12.5t-23 -6q-29 0 -32 25q-9 70 -41.5 104t-72.5 34q-62 0 -110.5 -74.5t-48.5 -185.5q0 -110 47.5 -184.5t110.5 -74.5q38 0 64.5 30.5t36.5 64.5t13 71h-41q-41 0 -41 29t41 29h112q41 0 41 -29zM429 756q0 -23 -12.5 -39.5t-28.5 -24.5t-44 -12
t-44 -4.5t-43 -0.5t-43 0.5t-44 4.5t-44 12t-28.5 24.5t-12.5 39.5q0 16 9 23.5t20 7.5q24 0 29 -24q2 -11 6.5 -15.5t30 -8.5t77.5 -4q61 0 86.5 5t27.5 20q5 27 29 27q11 0 20 -7.5t9 -23.5z" />
    <glyph glyph-name="gbreve" unicode="&#x11f;" 
d="M500 391q0 -20 -12 -29t-25 -9q-30 1 -36 32q-36 -2 -65 -18q27 -42 27 -89q0 -65 -46.5 -112t-114.5 -47q-50 0 -89 27q-7 -14 -7 -31q0 -54 58 -54h85q15 0 27.5 -1t40.5 -4.5t50 -13t44.5 -24t35 -41t12.5 -60.5q0 -63 -66 -104.5t-162 -41.5t-162 42t-66 104
q0 33 18.5 67.5t56.5 55.5q-25 28 -25 72q0 38 22 70q-33 42 -33 96q0 65 46.5 112t114.5 47q51 0 95 -31q47 37 105 37q37 0 54 -16.5t17 -35.5zM324 278q0 43 -28 73t-68 30q-38 0 -66.5 -30t-28.5 -73t28.5 -73t66.5 -30q40 0 68 30t28 73zM428 -83q0 21 -8 37t-25 25
t-32.5 15t-43 8t-43.5 2.5t-46 0.5q-54 0 -69.5 -2t-32.5 -13q-42 -26 -42 -73q0 -35 49.5 -62.5t121.5 -27.5t121.5 27.5t49.5 62.5zM393 581q0 -23 -12.5 -39.5t-28.5 -24.5t-44 -12t-44 -4.5t-43 -0.5t-43 0.5t-44 4.5t-44 12t-28.5 24.5t-12.5 39.5q0 16 9 23.5t20 7.5
q24 0 29 -24q2 -11 6.5 -15.5t30 -8.5t77.5 -4q61 0 86.5 5t27.5 20q5 27 29 27q11 0 20 -7.5t9 -23.5z" />
    <glyph glyph-name="Gdotaccent" unicode="&#x120;" 
d="M486 241q0 -13 -8.5 -20t-16 -8t-21.5 -1v-174q0 -13 -1 -19.5t-8.5 -13.5t-22.5 -7q-16 0 -23.5 6.5t-8.5 14t-1 24.5q-51 -55 -119 -55q-90 0 -154.5 91t-64.5 227q0 135 64.5 226t154.5 91q64 0 117 -48l13 32q10 16 26 16q13 0 19.5 -7t7.5 -13.5t1 -17.5v-145
q0 -13 -1 -19.5t-9 -12.5t-23 -6q-29 0 -32 25q-9 70 -41.5 104t-72.5 34q-62 0 -110.5 -74.5t-48.5 -185.5q0 -110 47.5 -184.5t110.5 -74.5q38 0 64.5 30.5t36.5 64.5t13 71h-41q-41 0 -41 29t41 29h112q41 0 41 -29zM302 722q0 -19 -13 -32t-32 -13t-32 13t-13 32t13 32
t32 13t32 -13t13 -32z" />
    <glyph glyph-name="gdotaccent" unicode="&#x121;" 
d="M500 391q0 -20 -12 -29t-25 -9q-30 1 -36 32q-36 -2 -65 -18q27 -42 27 -89q0 -65 -46.5 -112t-114.5 -47q-50 0 -89 27q-7 -14 -7 -31q0 -54 58 -54h85q15 0 27.5 -1t40.5 -4.5t50 -13t44.5 -24t35 -41t12.5 -60.5q0 -63 -66 -104.5t-162 -41.5t-162 42t-66 104
q0 33 18.5 67.5t56.5 55.5q-25 28 -25 72q0 38 22 70q-33 42 -33 96q0 65 46.5 112t114.5 47q51 0 95 -31q47 37 105 37q37 0 54 -16.5t17 -35.5zM324 278q0 43 -28 73t-68 30q-38 0 -66.5 -30t-28.5 -73t28.5 -73t66.5 -30q40 0 68 30t28 73zM428 -83q0 21 -8 37t-25 25
t-32.5 15t-43 8t-43.5 2.5t-46 0.5q-54 0 -69.5 -2t-32.5 -13q-42 -26 -42 -73q0 -35 49.5 -62.5t121.5 -27.5t121.5 27.5t49.5 62.5zM266 556q0 -19 -13 -32t-32 -13t-32 13t-13 32t13 32t32 13t32 -13t13 -32z" />
    <glyph glyph-name="Gcommaaccent" unicode="&#x122;" 
d="M486 241q0 -13 -8.5 -20t-16 -8t-21.5 -1v-174q0 -13 -1 -19.5t-8.5 -13.5t-22.5 -7q-16 0 -23.5 6.5t-8.5 14t-1 24.5q-51 -55 -119 -55q-90 0 -154.5 91t-64.5 227q0 135 64.5 226t154.5 91q64 0 117 -48l13 32q10 16 26 16q13 0 19.5 -7t7.5 -13.5t1 -17.5v-145
q0 -13 -1 -19.5t-9 -12.5t-23 -6q-29 0 -32 25q-9 70 -41.5 104t-72.5 34q-62 0 -110.5 -74.5t-48.5 -185.5q0 -110 47.5 -184.5t110.5 -74.5q38 0 64.5 30.5t36.5 64.5t13 71h-41q-41 0 -41 29t41 29h112q41 0 41 -29zM316 -107q0 -53 -35.5 -85.5t-58.5 -32.5
q-9 0 -16.5 7.5t-7.5 15.5q0 16 18 19q48 17 56 65q-8 -3 -14 -3q-18 0 -30 12t-12 31q0 16 11.5 29t30.5 13q25 0 41.5 -20.5t16.5 -50.5z" />
    <glyph glyph-name="gcommaaccent" unicode="&#x123;" 
d="M280 640q0 -16 -18 -19q-48 -17 -56 -65q8 3 14 3q18 0 30 -12t12 -31q0 -16 -11.5 -29t-30.5 -13q-25 0 -41.5 20.5t-16.5 50.5q0 53 35.5 85.5t58.5 32.5q9 0 16.5 -7.5t7.5 -15.5zM500 391q0 -20 -12 -29t-25 -9q-30 1 -36 32q-36 -2 -65 -18q27 -42 27 -89
q0 -65 -46.5 -112t-114.5 -47q-50 0 -89 27q-7 -14 -7 -31q0 -54 58 -54h85q15 0 27.5 -1t40.5 -4.5t50 -13t44.5 -24t35 -41t12.5 -60.5q0 -63 -66 -104.5t-162 -41.5t-162 42t-66 104q0 33 18.5 67.5t56.5 55.5q-25 28 -25 72q0 38 22 70q-33 42 -33 96q0 65 46.5 112
t114.5 47q51 0 95 -31q47 37 105 37q37 0 54 -16.5t17 -35.5zM324 278q0 43 -28 73t-68 30q-38 0 -66.5 -30t-28.5 -73t28.5 -73t66.5 -30q40 0 68 30t28 73zM428 -83q0 21 -8 37t-25 25t-32.5 15t-43 8t-43.5 2.5t-46 0.5q-54 0 -69.5 -2t-32.5 -13q-42 -26 -42 -73
q0 -35 49.5 -62.5t121.5 -27.5t121.5 27.5t49.5 62.5z" />
    <glyph glyph-name="Hcircumflex" unicode="&#x124;" 
d="M490 29q0 -29 -40 -29h-109q-41 0 -41 29t41 29h22v231h-212v-231h22q41 0 41 -29t-41 -29h-109q-40 0 -40 29t40 29h22v495h-22q-40 0 -40 29t40 29h109q41 0 41 -29t-41 -29h-22v-206h212v206h-22q-41 0 -41 29t41 29h109q40 0 40 -29t-40 -29h-22v-495h22q40 0 40 -29
zM385 723q26 -10 17 -37t-36 -19l-109 33l-109 -33q-27 -8 -36 19t18 37l118 43q10 3 19 0z" />
    <glyph glyph-name="hcircumflex" unicode="&#x125;" 
d="M499 29q0 -29 -40 -29h-147q-40 0 -40 29t40 29h41v231q0 47 -14.5 68.5t-55.5 21.5q-46 0 -84 -36.5t-38 -103.5v-181h41q40 0 40 -29t-40 -29h-147q-40 0 -40 29t40 29h41v495h-41q-40 0 -40 29t40 29h66q25 0 32.5 -8.5t7.5 -32.5v-190q51 57 129 57q128 0 128 -144
v-235h41q40 0 40 -29zM385 723q26 -10 17 -37t-36 -19l-109 33l-109 -33q-27 -8 -36 19t18 37l118 43q10 3 19 0z" />
    <glyph glyph-name="Hbar" unicode="&#x126;" 
d="M490 29q0 -29 -40 -29h-109q-41 0 -41 29t41 29h22v231h-212v-231h22q41 0 41 -29t-41 -29h-109q-40 0 -40 29t40 29h22v371h-30q-12 0 -20.5 8.5t-8.5 20.5t8.5 20.5t20.5 8.5h30v66h-22q-40 0 -40 29t40 29h109q41 0 41 -29t-41 -29h-22v-66h212v66h-22q-41 0 -41 29
t41 29h109q40 0 40 -29t-40 -29h-22v-66h30q12 0 20.5 -8.5t8.5 -20.5t-8.5 -20.5t-20.5 -8.5h-30v-371h22q40 0 40 -29zM363 347v82h-212v-82h212z" />
    <glyph glyph-name="hbar" unicode="&#x127;" 
d="M499 29q0 -29 -40 -29h-147q-40 0 -40 29t40 29h41v231q0 47 -14.5 68.5t-55.5 21.5q-46 0 -84 -36.5t-38 -103.5v-181h41q40 0 40 -29t-40 -29h-147q-40 0 -40 29t40 29h41v405h-49q-12 0 -20.5 8.5t-8.5 20.5t8.5 20.5t20.5 8.5h49v32h-41q-40 0 -40 29t40 29h66
q25 0 32.5 -8.5t7.5 -32.5v-49h96q12 0 20.5 -8.5t8.5 -20.5t-8.5 -20.5t-20.5 -8.5h-96v-83q51 57 129 57q128 0 128 -144v-235h41q40 0 40 -29z" />
    <glyph glyph-name="Itilde" unicode="&#x128;" 
d="M432 29q0 -29 -40 -29h-269q-40 0 -40 29t40 29h102v495h-102q-40 0 -40 29t40 29h269q40 0 40 -29t-40 -29h-102v-495h102q40 0 40 -29zM428 753q0 -18 -48 -54q-42 -34 -77 -34q-36 0 -73 43q-11 13 -21 13q-11 0 -28 -10.5t-29 -20.5l-11 -11q-12 -14 -26 -14
q-11 0 -20 9t-9 20q0 18 48 54q42 34 77 34q36 0 73 -43q11 -13 21 -13q11 0 28 10.5t29 21.5l11 10q12 14 26 14q11 0 20 -9t9 -20z" />
    <glyph glyph-name="itilde" unicode="&#x129;" 
d="M441 29q0 -29 -40 -29h-278q-41 0 -41 29t41 29h114v315h-107q-40 0 -40 29t40 29h132q25 0 32.5 -8.5t7.5 -32.5v-332h99q40 0 40 -29zM428 585q0 -18 -48 -54q-42 -34 -77 -34q-36 0 -73 43q-11 13 -21 13q-11 0 -28 -10.5t-29 -20.5l-11 -11q-12 -14 -26 -14
q-11 0 -20 9t-9 20q0 18 48 54q42 34 77 34q36 0 73 -43q11 -13 21 -13q11 0 28 10.5t29 21.5l11 10q12 14 26 14q11 0 20 -9t9 -20z" />
    <glyph glyph-name="Imacron" unicode="&#x12a;" 
d="M432 29q0 -29 -40 -29h-269q-40 0 -40 29t40 29h102v495h-102q-40 0 -40 29t40 29h269q40 0 40 -29t-40 -29h-102v-495h102q40 0 40 -29zM443 714q0 -29 -40 -29h-291q-41 0 -41 30q0 29 40 29h292q40 0 40 -30z" />
    <glyph glyph-name="imacron" unicode="&#x12b;" 
d="M441 29q0 -29 -40 -29h-278q-41 0 -41 29t41 29h114v315h-107q-40 0 -40 29t40 29h132q25 0 32.5 -8.5t7.5 -32.5v-332h99q40 0 40 -29zM443 555q0 -29 -40 -29h-291q-41 0 -41 30q0 29 40 29h292q40 0 40 -30z" />
    <glyph glyph-name="Ibreve" unicode="&#x12c;" 
d="M432 29q0 -29 -40 -29h-269q-40 0 -40 29t40 29h102v495h-102q-40 0 -40 29t40 29h269q40 0 40 -29t-40 -29h-102v-495h102q40 0 40 -29zM429 756q0 -23 -12.5 -39.5t-28.5 -24.5t-44 -12t-44 -4.5t-43 -0.5t-43 0.5t-44 4.5t-44 12t-28.5 24.5t-12.5 39.5q0 16 9 23.5
t20 7.5q24 0 29 -24q2 -11 6.5 -15.5t30 -8.5t77.5 -4q61 0 86.5 5t27.5 20q5 27 29 27q11 0 20 -7.5t9 -23.5z" />
    <glyph glyph-name="ibreve" unicode="&#x12d;" 
d="M441 29q0 -29 -40 -29h-278q-41 0 -41 29t41 29h114v315h-107q-40 0 -40 29t40 29h132q25 0 32.5 -8.5t7.5 -32.5v-332h99q40 0 40 -29zM429 581q0 -23 -12.5 -39.5t-28.5 -24.5t-44 -12t-44 -4.5t-43 -0.5t-43 0.5t-44 4.5t-44 12t-28.5 24.5t-12.5 39.5q0 16 9 23.5
t20 7.5q24 0 29 -24q2 -11 6.5 -15.5t30 -8.5t77.5 -4q61 0 86.5 5t27.5 20q5 27 29 27q11 0 20 -7.5t9 -23.5z" />
    <glyph glyph-name="Iogonek" unicode="&#x12e;" 
d="M432 29q0 -29 -40 -29h-105q-63 -38 -63 -110q0 -17 14.5 -28t29.5 -11q14 0 29 11.5t25 25.5q5 5 17.5 7t19.5 -2q6 -5 8 -17.5t-3 -19.5q-43 -59 -100 -59q-44 0 -71.5 30t-27.5 65q0 58 61 108h-103q-40 0 -40 29t40 29h102v495h-102q-40 0 -40 29t40 29h269
q40 0 40 -29t-40 -29h-102v-495h102q40 0 40 -29z" />
    <glyph glyph-name="iogonek" unicode="&#x12f;" 
d="M302 567q0 -19 -13 -32t-32 -13t-32 13t-13 32t13 32t32 13t32 -13t13 -32zM441 29q0 -29 -40 -29h-123q-63 -38 -63 -110q0 -17 14.5 -28t29.5 -11q14 0 29 11.5t25 25.5q5 5 17.5 7t19.5 -2q6 -5 8 -17.5t-3 -19.5q-43 -59 -100 -59q-44 0 -71.5 30t-27.5 65
q0 58 61 108h-94q-41 0 -41 29t41 29h114v315h-107q-40 0 -40 29t40 29h132q25 0 32.5 -8.5t7.5 -32.5v-332h99q40 0 40 -29z" />
    <glyph glyph-name="Idotaccent" unicode="&#x130;" 
d="M432 29q0 -29 -40 -29h-269q-40 0 -40 29t40 29h102v495h-102q-40 0 -40 29t40 29h269q40 0 40 -29t-40 -29h-102v-495h102q40 0 40 -29zM302 722q0 -19 -13 -32t-32 -13t-32 13t-13 32t13 32t32 13t32 -13t13 -32z" />
    <glyph glyph-name="dotlessi" unicode="&#x131;" 
d="M441 29q0 -29 -40 -29h-278q-41 0 -41 29t41 29h114v315h-107q-40 0 -40 29t40 29h132q25 0 32.5 -8.5t7.5 -32.5v-332h99q40 0 40 -29z" />
    <glyph glyph-name="Jcircumflex" unicode="&#x134;" 
d="M468 582q0 -29 -41 -29h-27v-419q0 -67 -48.5 -106.5t-115.5 -39.5q-69 0 -114.5 31.5t-45.5 79.5q0 20 11.5 31.5t29.5 11.5q17 0 28.5 -12t11.5 -28q0 -14 -8 -24q28 -32 88 -32q11 0 23.5 2.5t31.5 11t31 29t12 51.5v413h-77q-40 0 -40 29t40 29h169q41 0 41 -29z
M471 723q26 -10 17 -37t-36 -19l-109 33l-109 -33q-27 -8 -36 19t18 37l118 43q10 3 19 0z" />
    <glyph glyph-name="jcircumflex" unicode="&#x135;" 
d="M360 -44q0 -35 -10.5 -66.5t-20 -45t-17.5 -21.5q-23 -24 -48.5 -36t-39.5 -13.5t-39 -1.5q-138 0 -138 72q0 20 13 31t28 11q39 0 39 -51q21 -5 61 -5q16 0 26 1t25 9.5t28 24.5q28 37 28 96v412h-122q-40 0 -40 29t40 29h147q25 0 32.5 -8.5t7.5 -32.5v-434zM449 542
q25 -16 9.5 -40t-40.5 -9l-103 62l-103 -62q-25 -15 -40.5 9.5t9.5 40.5l118 75q15 10 30 0z" />
    <glyph glyph-name="Kcommaaccent" unicode="&#x136;" 
d="M485 29q0 -29 -40 -29h-72q-40 0 -40 29t39 29l-139 252l-91 -116v-136h20q40 0 40 -29t-40 -29h-96q-40 0 -40 29t40 29h20v495h-20q-40 0 -40 29t40 29h96q40 0 40 -29t-40 -29h-20v-268l210 268q-40 0 -40 29t40 29h84q40 0 40 -29q0 -20 -12 -24.5t-40 -4.5
l-153 -195l165 -300q17 0 25 -1t16 -7.5t8 -20.5zM316 -107q0 -53 -35.5 -85.5t-58.5 -32.5q-9 0 -16.5 7.5t-7.5 15.5q0 16 18 19q48 17 56 65q-8 -3 -14 -3q-18 0 -30 12t-12 31q0 16 11.5 29t30.5 13q25 0 41.5 -20.5t16.5 -50.5z" />
    <glyph glyph-name="kcommaaccent" unicode="&#x137;" 
d="M497 29q0 -29 -40 -29h-112q-41 0 -41 29q0 20 13 24.5t43 4.5l-119 158l-78 -74v-84h45q41 0 41 -29t-41 -29h-146q-41 0 -41 29t41 29h45v495h-45q-41 0 -41 29t41 29h61q25 0 32.5 -8.5t7.5 -32.5v-351l162 154h-35q-41 0 -41 29t41 29h146q40 0 40 -29t-40 -29h-30
l-124 -118l148 -197h27q40 0 40 -29zM316 -107q0 -53 -35.5 -85.5t-58.5 -32.5q-9 0 -16.5 7.5t-7.5 15.5q0 16 18 19q48 17 56 65q-8 -3 -14 -3q-18 0 -30 12t-12 31q0 16 11.5 29t30.5 13q25 0 41.5 -20.5t16.5 -50.5z" />
    <glyph glyph-name="Lacute" unicode="&#x139;" 
d="M479 41q0 -24 -8 -32.5t-32 -8.5h-364q-41 0 -41 29t41 29h33v495h-33q-41 0 -41 29t41 29h150q40 0 40 -29t-40 -29h-52v-495h241v65q0 12 1 19t9 14t23 7t22.5 -7.5t8.5 -14t1 -18.5v-82zM245 777q0 -21 -26 -33l-146 -69q-16 0 -25.5 9t-11 15.5t-1.5 11.5q0 17 22 28
l149 71q39 0 39 -33z" />
    <glyph glyph-name="lacute" unicode="&#x13a;" 
d="M452 29q0 -29 -40 -29h-309q-40 0 -40 29t40 29h122v495h-122q-40 0 -40 29t40 29h147q25 0 32.5 -8.5t7.5 -32.5v-512h122q40 0 40 -29zM362 777q0 -21 -26 -33l-146 -69q-16 0 -25.5 9t-11 15.5t-1.5 11.5q0 17 22 28l149 71q39 0 39 -33z" />
    <glyph glyph-name="Lcommaaccent" unicode="&#x13b;" 
d="M479 41q0 -24 -8 -32.5t-32 -8.5h-364q-41 0 -41 29t41 29h33v495h-33q-41 0 -41 29t41 29h150q40 0 40 -29t-40 -29h-52v-495h241v65q0 12 1 19t9 14t23 7t22.5 -7.5t8.5 -14t1 -18.5v-82zM316 -107q0 -53 -35.5 -85.5t-58.5 -32.5q-9 0 -16.5 7.5t-7.5 15.5q0 16 18 19
q48 17 56 65q-8 -3 -14 -3q-18 0 -30 12t-12 31q0 16 11.5 29t30.5 13q25 0 41.5 -20.5t16.5 -50.5z" />
    <glyph glyph-name="lcommaaccent" unicode="&#x13c;" 
d="M452 29q0 -29 -40 -29h-309q-40 0 -40 29t40 29h122v495h-122q-40 0 -40 29t40 29h147q25 0 32.5 -8.5t7.5 -32.5v-512h122q40 0 40 -29zM316 -107q0 -53 -35.5 -85.5t-58.5 -32.5q-9 0 -16.5 7.5t-7.5 15.5q0 16 18 19q48 17 56 65q-8 -3 -14 -3q-18 0 -30 12t-12 31
q0 16 11.5 29t30.5 13q25 0 41.5 -20.5t16.5 -50.5z" />
    <glyph glyph-name="Lcaron" unicode="&#x13d;" 
d="M479 41q0 -24 -8 -32.5t-32 -8.5h-364q-41 0 -41 29t41 29h33v495h-33q-41 0 -41 29t41 29h150q40 0 40 -29t-40 -29h-52v-495h241v65q0 12 1 19t9 14t23 7t22.5 -7.5t8.5 -14t1 -18.5v-82zM440 540q0 -53 -35.5 -85.5t-58.5 -32.5q-9 0 -16.5 7.5t-7.5 15.5q0 16 18 19
q48 17 56 65q-8 -3 -14 -3q-18 0 -30 12t-12 31q0 16 11.5 29t30.5 13q25 0 41.5 -20.5t16.5 -50.5z" />
    <glyph glyph-name="lcaron" unicode="&#x13e;" 
d="M452 29q0 -29 -40 -29h-309q-40 0 -40 29t40 29h122v495h-122q-40 0 -40 29t40 29h147q25 0 32.5 -8.5t7.5 -32.5v-512h122q40 0 40 -29zM446 540q0 -53 -35.5 -85.5t-58.5 -32.5q-9 0 -16.5 7.5t-7.5 15.5q0 16 18 19q48 17 56 65q-8 -3 -14 -3q-18 0 -30 12t-12 31
q0 16 11.5 29t30.5 13q25 0 41.5 -20.5t16.5 -50.5z" />
    <glyph glyph-name="Ldot" unicode="&#x13f;" 
d="M479 41q0 -24 -8 -32.5t-32 -8.5h-364q-41 0 -41 29t41 29h33v495h-33q-41 0 -41 29t41 29h150q40 0 40 -29t-40 -29h-52v-495h241v65q0 12 1 19t9 14t23 7t22.5 -7.5t8.5 -14t1 -18.5v-82zM443 318q0 -19 -13 -32t-32 -13t-32 13t-13 32t13 32t32 13t32 -13t13 -32z" />
    <glyph glyph-name="ldot" unicode="&#x140;" 
d="M452 29q0 -29 -40 -29h-309q-40 0 -40 29t40 29h122v495h-122q-40 0 -40 29t40 29h147q25 0 32.5 -8.5t7.5 -32.5v-512h122q40 0 40 -29zM560 318q0 -19 -13 -32t-32 -13t-32 13t-13 32t13 32t32 13t32 -13t13 -32z" />
    <glyph glyph-name="Lslash" unicode="&#x141;" 
d="M479 41q0 -24 -8 -32.5t-32 -8.5h-364q-41 0 -41 29t41 29h33v207l-36 -27q-11 -8 -22.5 -5.5t-17.5 12.5h-1q-6 11 -3.5 22.5t11.5 18.5l69 50v217h-33q-41 0 -41 29t41 29h150q40 0 40 -29t-40 -29h-52v-175l172 117q10 7 21.5 4.5t18.5 -12.5v-1q7 -11 5 -22.5
t-12 -18.5l-205 -137v-250h241v65q0 12 1 19t9 14t23 7t22.5 -7.5t8.5 -14t1 -18.5v-82z" />
    <glyph glyph-name="lslash" unicode="&#x142;" 
d="M452 29q0 -29 -40 -29h-309q-40 0 -40 29t40 29h122v252l-104 -72q-11 -7 -22.5 -5t-17.5 12h-1q-7 11 -4.5 22.5t12.5 18.5l137 95v172h-122q-40 0 -40 29t40 29h147q25 0 32.5 -8.5t7.5 -32.5v-147l104 72q10 7 21.5 4.5t18.5 -12.5v-1q7 -11 5 -22.5t-12 -18.5
l-137 -94v-293h122q40 0 40 -29z" />
    <glyph glyph-name="Nacute" unicode="&#x143;" 
d="M485 582q0 -29 -40 -29h-22v-512q0 -27 -8.5 -34t-33.5 -7q-14 0 -21.5 1t-17 9t-15.5 24l-149 420q-26 75 -30 88h-1v-484h22q41 0 41 -29t-41 -29h-100q-40 0 -40 29t40 29h22v495h-22q-40 0 -40 29t40 29h65q14 0 21 -1t16.5 -9t15.5 -24l149 -420q26 -75 30 -88h1
v484h-22q-41 0 -41 29t41 29h100q40 0 40 -29zM362 777q0 -21 -26 -33l-146 -69q-16 0 -25.5 9t-11 15.5t-1.5 11.5q0 17 22 28l149 71q39 0 39 -33z" />
    <glyph glyph-name="nacute" unicode="&#x144;" 
d="M499 29q0 -29 -40 -29h-147q-40 0 -40 29t40 29h41v231q0 47 -14.5 68.5t-55.5 21.5q-46 0 -84 -36.5t-38 -103.5v-181h41q40 0 40 -29t-40 -29h-147q-40 0 -40 29t40 29h41v315h-41q-40 0 -40 29t40 29h66q28 0 34 -10t6 -41q51 57 129 57q128 0 128 -144v-235h41
q40 0 40 -29zM362 590q0 -21 -26 -33l-146 -69q-16 0 -25.5 9t-11 15.5t-1.5 11.5q0 17 22 28l149 71q39 0 39 -33z" />
    <glyph glyph-name="Ncommaaccent" unicode="&#x145;" 
d="M485 582q0 -29 -40 -29h-22v-512q0 -27 -8.5 -34t-33.5 -7q-14 0 -21.5 1t-17 9t-15.5 24l-149 420q-26 75 -30 88h-1v-484h22q41 0 41 -29t-41 -29h-100q-40 0 -40 29t40 29h22v495h-22q-40 0 -40 29t40 29h65q14 0 21 -1t16.5 -9t15.5 -24l149 -420q26 -75 30 -88h1
v484h-22q-41 0 -41 29t41 29h100q40 0 40 -29zM316 -107q0 -53 -35.5 -85.5t-58.5 -32.5q-9 0 -16.5 7.5t-7.5 15.5q0 16 18 19q48 17 56 65q-8 -3 -14 -3q-18 0 -30 12t-12 31q0 16 11.5 29t30.5 13q25 0 41.5 -20.5t16.5 -50.5z" />
    <glyph glyph-name="ncommaaccent" unicode="&#x146;" 
d="M499 29q0 -29 -40 -29h-147q-40 0 -40 29t40 29h41v231q0 47 -14.5 68.5t-55.5 21.5q-46 0 -84 -36.5t-38 -103.5v-181h41q40 0 40 -29t-40 -29h-147q-40 0 -40 29t40 29h41v315h-41q-40 0 -40 29t40 29h66q28 0 34 -10t6 -41q51 57 129 57q128 0 128 -144v-235h41
q40 0 40 -29zM316 -107q0 -53 -35.5 -85.5t-58.5 -32.5q-9 0 -16.5 7.5t-7.5 15.5q0 16 18 19q48 17 56 65q-8 -3 -14 -3q-18 0 -30 12t-12 31q0 16 11.5 29t30.5 13q25 0 41.5 -20.5t16.5 -50.5z" />
    <glyph glyph-name="Ncaron" unicode="&#x147;" 
d="M485 582q0 -29 -40 -29h-22v-512q0 -27 -8.5 -34t-33.5 -7q-14 0 -21.5 1t-17 9t-15.5 24l-149 420q-26 75 -30 88h-1v-484h22q41 0 41 -29t-41 -29h-100q-40 0 -40 29t40 29h22v495h-22q-40 0 -40 29t40 29h65q14 0 21 -1t16.5 -9t15.5 -24l149 -420q26 -75 30 -88h1
v484h-22q-41 0 -41 29t41 29h100q40 0 40 -29zM384 710l-118 -43q-10 -3 -19 0l-118 43q-26 10 -17 37t36 19l109 -33l109 33q27 8 36 -19t-18 -37z" />
    <glyph glyph-name="ncaron" unicode="&#x148;" 
d="M499 29q0 -29 -40 -29h-147q-40 0 -40 29t40 29h41v231q0 47 -14.5 68.5t-55.5 21.5q-46 0 -84 -36.5t-38 -103.5v-181h41q40 0 40 -29t-40 -29h-147q-40 0 -40 29t40 29h41v315h-41q-40 0 -40 29t40 29h66q28 0 34 -10t6 -41q51 57 129 57q128 0 128 -144v-235h41
q40 0 40 -29zM391 568l-118 -75q-15 -10 -30 0l-120 76q-25 16 -9.5 40t40.5 9l103 -62l103 62q25 15 40.5 -9.5t-9.5 -40.5z" />
    <glyph glyph-name="Eng" unicode="&#x14a;" 
d="M483 306q0 -53 -2 -91.5t-10 -84.5t-22.5 -74.5t-41.5 -48t-64 -19.5q-17 0 -29 12t-12 29t12 29t29 12q15 0 27 -10q23 14 34.5 59t13 82t1.5 105q0 67 -11 120.5t-43 93t-82 39.5q-47 0 -80.5 -35.5t-41.5 -88.5v-377h41q40 0 40 -29t-40 -29h-147q-40 0 -40 29t40 29
h41v495h-41q-40 0 -40 29t40 29h66q25 0 32.5 -8.5t7.5 -32.5q51 53 122 53q66 0 112.5 -47.5t67 -117.5t20.5 -152z" />
    <glyph glyph-name="eng" unicode="&#x14b;" 
d="M450 58q0 -130 -23 -198q-32 -94 -112 -94q-13 0 -22.5 9t-9.5 23q0 13 9.5 22.5t22.5 9.5q17 0 29.5 9t20 28.5t12 37t6 49.5t2 50.5t0.5 53.5v231q0 47 -14.5 68.5t-55.5 21.5q-46 0 -84 -36.5t-38 -103.5v-181h41q40 0 40 -29t-40 -29h-147q-40 0 -40 29t40 29h41v315
h-41q-40 0 -40 29t40 29h66q28 0 34 -10t6 -41q51 57 129 57q128 0 128 -144v-235z" />
    <glyph glyph-name="Omacron" unicode="&#x14c;" 
d="M459 305q0 -58 -1 -97t-5.5 -74.5t-9.5 -56.5t-17 -39t-25 -26.5t-36 -14.5t-47 -7.5t-61 -1.5t-61 1.5t-47 7.5t-36 14.5t-25 26.5t-17 39t-9.5 57t-5.5 74.5t-1 97.5q0 58 1 97t5.5 74.5t9.5 56.5t17 39t25 26.5t36 14.5t47 7.5t61 1.5t61 -1.5t47 -7.5t36 -14.5
t25 -26.5t17 -39t9.5 -57t5.5 -74.5t1 -97.5zM394 314q0 139 -12 186q-10 39 -37 52t-88 13q-63 0 -89.5 -13.5t-36.5 -54.5q-11 -48 -11 -183q0 -147 13 -198q9 -37 34.5 -53.5t89.5 -16.5q66 0 91.5 17t34.5 58q11 54 11 193zM443 714q0 -29 -40 -29h-291q-41 0 -41 30
q0 29 40 29h292q40 0 40 -30z" />
    <glyph glyph-name="omacron" unicode="&#x14d;" 
d="M456 216q0 -93 -59 -157.5t-140 -64.5t-140 64.5t-59 157.5t58.5 158.5t140.5 65.5t140.5 -65.5t58.5 -158.5zM391 223q0 68 -40 113.5t-94 45.5t-94 -45.5t-40 -113.5q0 -71 40 -121t94 -50q55 0 94.5 50t39.5 121zM443 555q0 -29 -40 -29h-291q-41 0 -41 30q0 29 40 29
h292q40 0 40 -30z" />
    <glyph glyph-name="Obreve" unicode="&#x14e;" 
d="M459 305q0 -58 -1 -97t-5.5 -74.5t-9.5 -56.5t-17 -39t-25 -26.5t-36 -14.5t-47 -7.5t-61 -1.5t-61 1.5t-47 7.5t-36 14.5t-25 26.5t-17 39t-9.5 57t-5.5 74.5t-1 97.5q0 58 1 97t5.5 74.5t9.5 56.5t17 39t25 26.5t36 14.5t47 7.5t61 1.5t61 -1.5t47 -7.5t36 -14.5
t25 -26.5t17 -39t9.5 -57t5.5 -74.5t1 -97.5zM394 314q0 139 -12 186q-10 39 -37 52t-88 13q-63 0 -89.5 -13.5t-36.5 -54.5q-11 -48 -11 -183q0 -147 13 -198q9 -37 34.5 -53.5t89.5 -16.5q66 0 91.5 17t34.5 58q11 54 11 193zM429 756q0 -23 -12.5 -39.5t-28.5 -24.5
t-44 -12t-44 -4.5t-43 -0.5t-43 0.5t-44 4.5t-44 12t-28.5 24.5t-12.5 39.5q0 16 9 23.5t20 7.5q24 0 29 -24q2 -11 6.5 -15.5t30 -8.5t77.5 -4q61 0 86.5 5t27.5 20q5 27 29 27q11 0 20 -7.5t9 -23.5z" />
    <glyph glyph-name="obreve" unicode="&#x14f;" 
d="M456 216q0 -93 -59 -157.5t-140 -64.5t-140 64.5t-59 157.5t58.5 158.5t140.5 65.5t140.5 -65.5t58.5 -158.5zM391 223q0 68 -40 113.5t-94 45.5t-94 -45.5t-40 -113.5q0 -71 40 -121t94 -50q55 0 94.5 50t39.5 121zM429 581q0 -23 -12.5 -39.5t-28.5 -24.5t-44 -12
t-44 -4.5t-43 -0.5t-43 0.5t-44 4.5t-44 12t-28.5 24.5t-12.5 39.5q0 16 9 23.5t20 7.5q24 0 29 -24q2 -11 6.5 -15.5t30 -8.5t77.5 -4q61 0 86.5 5t27.5 20q5 27 29 27q11 0 20 -7.5t9 -23.5z" />
    <glyph glyph-name="Ohungarumlaut" unicode="&#x150;" 
d="M459 305q0 -58 -1 -97t-5.5 -74.5t-9.5 -56.5t-17 -39t-25 -26.5t-36 -14.5t-47 -7.5t-61 -1.5t-61 1.5t-47 7.5t-36 14.5t-25 26.5t-17 39t-9.5 57t-5.5 74.5t-1 97.5q0 58 1 97t5.5 74.5t9.5 56.5t17 39t25 26.5t36 14.5t47 7.5t61 1.5t61 -1.5t47 -7.5t36 -14.5
t25 -26.5t17 -39t9.5 -57t5.5 -74.5t1 -97.5zM394 314q0 139 -12 186q-10 39 -37 52t-88 13q-63 0 -89.5 -13.5t-36.5 -54.5q-11 -48 -11 -183q0 -147 13 -198q9 -37 34.5 -53.5t89.5 -16.5q66 0 91.5 17t34.5 58q11 54 11 193zM229 801q9 -11 8 -24.5t-12 -21.5l-83 -72
q-11 -9 -24.5 -8t-22.5 12t-8 24.5t12 21.5l83 72q11 9 24.5 8t22.5 -12zM419 801q9 -11 8 -24.5t-12 -21.5l-83 -72q-11 -9 -24.5 -8t-22.5 12t-8 24.5t12 21.5l83 72q11 9 24.5 8t22.5 -12z" />
    <glyph glyph-name="ohungarumlaut" unicode="&#x151;" 
d="M456 216q0 -93 -59 -157.5t-140 -64.5t-140 64.5t-59 157.5t58.5 158.5t140.5 65.5t140.5 -65.5t58.5 -158.5zM391 223q0 68 -40 113.5t-94 45.5t-94 -45.5t-40 -113.5q0 -71 40 -121t94 -50q55 0 94.5 50t39.5 121zM229 613q9 -11 8 -24.5t-12 -21.5l-83 -72
q-11 -9 -24.5 -8t-22.5 12t-8 24.5t12 21.5l83 72q11 9 24.5 8t22.5 -12zM419 613q9 -11 8 -24.5t-12 -21.5l-83 -72q-11 -9 -24.5 -8t-22.5 12t-8 24.5t12 21.5l83 72q11 9 24.5 8t22.5 -12z" />
    <glyph glyph-name="OE" unicode="&#x152;" 
d="M493 41q0 -24 -8 -32.5t-32 -8.5h-161q-22 0 -39 -4q-37 -8 -64 -8q-76 0 -106.5 21.5t-40.5 70.5q-13 64 -13 226q0 155 12 219q10 52 40 75t108 23q28 0 63 -8q18 -4 40 -4h153q25 0 32.5 -8.5t7.5 -32.5v-66q0 -41 -28 -41t-28 41v49h-116v-207h118q40 0 40 -29
t-40 -29h-118v-230h124v64q0 41 28 41t28 -41v-81zM257 171v269q0 77 -13 101t-50 24q-77 0 -93 -45t-16 -206q0 -170 16.5 -219t94.5 -49q36 0 48.5 25t12.5 100z" />
    <glyph glyph-name="oe" unicode="&#x153;" 
d="M496 108q0 -13 -8.5 -37.5t-35 -50.5t-62.5 -26q-71 0 -115 88q-43 -88 -115 -88q-59 0 -100.5 64t-41.5 159q0 94 41.5 158.5t101.5 64.5q37 0 66 -25t47 -61q41 86 107 86q50 0 82.5 -53t32.5 -153q0 -25 -7.5 -33.5t-32.5 -8.5h-152q6 -65 32.5 -102.5t55.5 -37.5
q34 0 48 60q5 25 28 25q11 0 19.5 -8t8.5 -21zM439 247q-1 58 -17 96.5t-41 38.5q-26 0 -49 -39.5t-28 -95.5h135zM247 223q0 69 -27 114t-60 45q-32 0 -59 -44.5t-27 -114.5q0 -71 26.5 -121t60.5 -50q32 0 59 49.5t27 121.5z" />
    <glyph glyph-name="Racute" unicode="&#x154;" 
d="M512 93q0 -36 -21 -70.5t-65 -34.5q-48 0 -73 41q-13 24 -16 48.5t-3 84.5q0 26 -1 38t-6 25.5t-16 23.5q-32 28 -81 28h-79v-219h22q41 0 41 -29t-41 -29h-109q-40 0 -40 29t40 29h22v495h-22q-40 0 -40 29t40 29h170q85 0 138 -50.5t53 -116.5q0 -41 -22.5 -78.5
t-62.5 -61.5q35 -26 49 -58q7 -18 8.5 -32t1.5 -67q0 -28 0.5 -41t3 -30t8 -23.5t15.5 -6.5q11 0 16 17t5 30q0 33 32 33q33 0 33 -33zM360 444q0 41 -36 75t-100 34h-73v-218h73q64 0 100 34t36 75zM362 777q0 -21 -26 -33l-146 -69q-16 0 -25.5 9t-11 15.5t-1.5 11.5
q0 17 22 28l149 71q39 0 39 -33z" />
    <glyph glyph-name="racute" unicode="&#x155;" 
d="M478 378q0 -17 -11 -28t-28 -11q-6 0 -12.5 2t-15.5 11.5t-10 25.5q-5 1 -16 1q-68 0 -118.5 -52.5t-50.5 -137.5v-131h105q40 0 40 -29t-40 -29h-246q-40 0 -40 29t40 29h76v315h-76q-40 0 -40 29t40 29h101q25 0 32.5 -8.5t7.5 -32.5v-39q71 86 170 86q92 0 92 -59z
M362 590q0 -21 -26 -33l-146 -69q-16 0 -25.5 9t-11 15.5t-1.5 11.5q0 17 22 28l149 71q39 0 39 -33z" />
    <glyph glyph-name="Rcommaaccent" unicode="&#x156;" 
d="M512 93q0 -36 -21 -70.5t-65 -34.5q-48 0 -73 41q-13 24 -16 48.5t-3 84.5q0 26 -1 38t-6 25.5t-16 23.5q-32 28 -81 28h-79v-219h22q41 0 41 -29t-41 -29h-109q-40 0 -40 29t40 29h22v495h-22q-40 0 -40 29t40 29h170q85 0 138 -50.5t53 -116.5q0 -41 -22.5 -78.5
t-62.5 -61.5q35 -26 49 -58q7 -18 8.5 -32t1.5 -67q0 -28 0.5 -41t3 -30t8 -23.5t15.5 -6.5q11 0 16 17t5 30q0 33 32 33q33 0 33 -33zM360 444q0 41 -36 75t-100 34h-73v-218h73q64 0 100 34t36 75zM316 -107q0 -53 -35.5 -85.5t-58.5 -32.5q-9 0 -16.5 7.5t-7.5 15.5
q0 16 18 19q48 17 56 65q-8 -3 -14 -3q-18 0 -30 12t-12 31q0 16 11.5 29t30.5 13q25 0 41.5 -20.5t16.5 -50.5z" />
    <glyph glyph-name="rcommaaccent" unicode="&#x157;" 
d="M478 378q0 -17 -11 -28t-28 -11q-6 0 -12.5 2t-15.5 11.5t-10 25.5q-5 1 -16 1q-68 0 -118.5 -52.5t-50.5 -137.5v-131h105q40 0 40 -29t-40 -29h-246q-40 0 -40 29t40 29h76v315h-76q-40 0 -40 29t40 29h101q25 0 32.5 -8.5t7.5 -32.5v-39q71 86 170 86q92 0 92 -59z
M243 -107q0 -53 -35.5 -85.5t-58.5 -32.5q-9 0 -16.5 7.5t-7.5 15.5q0 16 18 19q48 17 56 65q-7 -3 -14 -3q-18 0 -30 12t-12 31q0 16 11.5 29t30.5 13q25 0 41.5 -20.5t16.5 -50.5z" />
    <glyph glyph-name="Rcaron" unicode="&#x158;" 
d="M512 93q0 -36 -21 -70.5t-65 -34.5q-48 0 -73 41q-13 24 -16 48.5t-3 84.5q0 26 -1 38t-6 25.5t-16 23.5q-32 28 -81 28h-79v-219h22q41 0 41 -29t-41 -29h-109q-40 0 -40 29t40 29h22v495h-22q-40 0 -40 29t40 29h170q85 0 138 -50.5t53 -116.5q0 -41 -22.5 -78.5
t-62.5 -61.5q35 -26 49 -58q7 -18 8.5 -32t1.5 -67q0 -28 0.5 -41t3 -30t8 -23.5t15.5 -6.5q11 0 16 17t5 30q0 33 32 33q33 0 33 -33zM360 444q0 41 -36 75t-100 34h-73v-218h73q64 0 100 34t36 75zM384 710l-118 -43q-10 -3 -19 0l-118 43q-26 10 -17 37t36 19l109 -33
l109 33q27 8 36 -19t-18 -37z" />
    <glyph glyph-name="rcaron" unicode="&#x159;" 
d="M478 378q0 -17 -11 -28t-28 -11q-6 0 -12.5 2t-15.5 11.5t-10 25.5q-5 1 -16 1q-68 0 -118.5 -52.5t-50.5 -137.5v-131h105q40 0 40 -29t-40 -29h-246q-40 0 -40 29t40 29h76v315h-76q-40 0 -40 29t40 29h101q25 0 32.5 -8.5t7.5 -32.5v-39q71 86 170 86q92 0 92 -59z
M391 568l-118 -75q-15 -10 -30 0l-120 76q-25 16 -9.5 40t40.5 9l103 -62l103 62q25 15 40.5 -9.5t-9.5 -40.5z" />
    <glyph glyph-name="Sacute" unicode="&#x15a;" 
d="M463 164q0 -70 -51.5 -123t-132.5 -53q-101 0 -165 50q-10 -34 -15 -42t-20 -8q-13 0 -19.5 7t-7.5 13.5t-1 17.5v138q0 13 1 19.5t9 13t23 6.5q14 0 21.5 -5.5t8.5 -11t2 -15.5q4 -63 49 -94t114 -31q56 0 89 35t33 79q0 41 -28 75q-18 20 -37.5 27.5t-79.5 21.5
q-83 20 -108.5 30.5t-55.5 40.5q-41 41 -41 104q0 67 52 115.5t130 48.5q84 0 141 -50q10 34 15 42t20 8q13 0 19.5 -7t7.5 -13.5t1 -17.5v-139q0 -13 -1 -19.5t-9 -12.5t-23 -6q-19 0 -24.5 7t-8.5 25q-19 125 -139 125q-51 0 -85 -30.5t-34 -71.5q0 -32 21 -57.5t53 -37.5
l70 -17q81 -19 106.5 -29.5t53.5 -39.5l3 -4q3 -3 5.5 -6.5t7 -10t8.5 -13.5t8 -17t7 -20t5 -22t2 -25zM362 777q0 -21 -26 -33l-146 -69q-16 0 -25.5 9t-11 15.5t-1.5 11.5q0 17 22 28l149 71q39 0 39 -33z" />
    <glyph glyph-name="sacute" unicode="&#x15b;" 
d="M449 124q0 -8 -1 -17.5t-11 -32t-27.5 -38.5t-55.5 -29t-90 -13q-79 0 -129 41q-10 -28 -17.5 -34.5t-18.5 -6.5q-13 0 -19.5 7t-7.5 13.5t-1 17.5v103q0 13 1 19.5t9 13t23 6.5q17 0 22.5 -5.5t10.5 -19.5q15 -52 46 -74.5t81 -22.5q65 0 96 20.5t31 51.5
q0 16 -9.5 28.5t-20.5 19.5t-31 13.5t-29.5 8.5t-28.5 5q-110 17 -143 36q-58 32 -58 88q0 16 6.5 33t24 37.5t57.5 33.5t97 13q66 0 106 -24q6 24 30 24q13 0 19.5 -7t7.5 -13.5t1 -17.5v-76q0 -13 -1 -19.5t-9 -12.5t-23 -6q-30 0 -32 23q-1 14 -3.5 23t-11.5 22t-31 19.5
t-55 6.5q-65 0 -95 -17.5t-30 -41.5q0 -15 9 -25.5t33.5 -18.5t43.5 -12t62 -11q172 -25 172 -132zM362 590q0 -21 -26 -33l-146 -69q-16 0 -25.5 9t-11 15.5t-1.5 11.5q0 17 22 28l149 71q39 0 39 -33z" />
    <glyph glyph-name="Scircumflex" unicode="&#x15c;" 
d="M463 164q0 -70 -51.5 -123t-132.5 -53q-101 0 -165 50q-10 -34 -15 -42t-20 -8q-13 0 -19.5 7t-7.5 13.5t-1 17.5v138q0 13 1 19.5t9 13t23 6.5q14 0 21.5 -5.5t8.5 -11t2 -15.5q4 -63 49 -94t114 -31q56 0 89 35t33 79q0 41 -28 75q-18 20 -37.5 27.5t-79.5 21.5
q-83 20 -108.5 30.5t-55.5 40.5q-41 41 -41 104q0 67 52 115.5t130 48.5q84 0 141 -50q10 34 15 42t20 8q13 0 19.5 -7t7.5 -13.5t1 -17.5v-139q0 -13 -1 -19.5t-9 -12.5t-23 -6q-19 0 -24.5 7t-8.5 25q-19 125 -139 125q-51 0 -85 -30.5t-34 -71.5q0 -32 21 -57.5t53 -37.5
l70 -17q81 -19 106.5 -29.5t53.5 -39.5l3 -4q3 -3 5.5 -6.5t7 -10t8.5 -13.5t8 -17t7 -20t5 -22t2 -25zM385 723q26 -10 17 -37t-36 -19l-109 33l-109 -33q-27 -8 -36 19t18 37l118 43q10 3 19 0z" />
    <glyph glyph-name="scircumflex" unicode="&#x15d;" 
d="M449 124q0 -8 -1 -17.5t-11 -32t-27.5 -38.5t-55.5 -29t-90 -13q-79 0 -129 41q-10 -28 -17.5 -34.5t-18.5 -6.5q-13 0 -19.5 7t-7.5 13.5t-1 17.5v103q0 13 1 19.5t9 13t23 6.5q17 0 22.5 -5.5t10.5 -19.5q15 -52 46 -74.5t81 -22.5q65 0 96 20.5t31 51.5
q0 16 -9.5 28.5t-20.5 19.5t-31 13.5t-29.5 8.5t-28.5 5q-110 17 -143 36q-58 32 -58 88q0 16 6.5 33t24 37.5t57.5 33.5t97 13q66 0 106 -24q6 24 30 24q13 0 19.5 -7t7.5 -13.5t1 -17.5v-76q0 -13 -1 -19.5t-9 -12.5t-23 -6q-30 0 -32 23q-1 14 -3.5 23t-11.5 22t-31 19.5
t-55 6.5q-65 0 -95 -17.5t-30 -41.5q0 -15 9 -25.5t33.5 -18.5t43.5 -12t62 -11q172 -25 172 -132zM391 542q25 -16 9.5 -40t-40.5 -9l-103 62l-103 -62q-25 -15 -40.5 9.5t9.5 40.5l118 75q15 10 30 0z" />
    <glyph glyph-name="Scedilla" unicode="&#x15e;" 
d="M463 164q0 -63 -42.5 -113.5t-111.5 -60.5v-15q48 -9 72 -35.5t24 -59.5t-19.5 -55t-55.5 -30.5t-63 -11t-66 -2.5q-19 0 -28 1t-17.5 7.5t-8.5 20.5q0 29 41 29h20q132 0 132 41q0 18 -18 28.5t-47 12.5q-14 1 -21.5 7.5t-8.5 13t-1 18.5v30q-79 8 -130 48
q-10 -34 -15 -42t-20 -8q-13 0 -19.5 7t-7.5 13.5t-1 17.5v138q0 13 1 19.5t9 13t23 6.5q14 0 21.5 -5.5t8.5 -11t2 -15.5q4 -63 49 -94t114 -31q56 0 89 35t33 79q0 41 -28 75q-18 20 -37.5 27.5t-79.5 21.5q-83 20 -108.5 30.5t-55.5 40.5q-41 41 -41 104q0 67 52 115.5
t130 48.5q84 0 141 -50q10 34 15 42t20 8q13 0 19.5 -7t7.5 -13.5t1 -17.5v-139q0 -13 -1 -19.5t-9 -12.5t-23 -6q-19 0 -24.5 7t-8.5 25q-19 125 -139 125q-51 0 -85 -30.5t-34 -71.5q0 -32 21 -57.5t53 -37.5l70 -17q81 -19 106.5 -29.5t53.5 -39.5l3 -4q3 -3 5.5 -6.5
t7 -10t8.5 -13.5t8 -17t7 -20t5 -22t2 -25z" />
    <glyph glyph-name="scedilla" unicode="&#x15f;" 
d="M449 124q0 -7 -1 -15.5t-8.5 -28t-20.5 -34.5t-42 -29.5t-68 -19.5v-10q48 -9 72 -35.5t24 -59.5t-19.5 -55t-55.5 -30.5t-63 -11t-66 -2.5q-19 0 -28 1t-17.5 7.5t-8.5 20.5q0 29 41 29h20q132 0 132 41q0 18 -18 28.5t-47 12.5q-14 1 -21.5 7.5t-8.5 13t-1 18.5v23
q-64 2 -109 40q-10 -28 -17.5 -34.5t-18.5 -6.5q-13 0 -19.5 7t-7.5 13.5t-1 17.5v103q0 13 1 19.5t9 13t23 6.5q17 0 22.5 -5.5t10.5 -19.5q15 -52 46 -74.5t81 -22.5q65 0 96 20.5t31 51.5q0 16 -9.5 28.5t-20.5 19.5t-31 13.5t-29.5 8.5t-28.5 5q-110 17 -143 36
q-58 32 -58 88q0 16 6.5 33t24 37.5t57.5 33.5t97 13q66 0 106 -24q6 24 30 24q13 0 19.5 -7t7.5 -13.5t1 -17.5v-76q0 -13 -1 -19.5t-9 -12.5t-23 -6q-30 0 -32 23q-1 14 -3.5 23t-11.5 22t-31 19.5t-55 6.5q-65 0 -95 -17.5t-30 -41.5q0 -15 9 -25.5t33.5 -18.5t43.5 -12
t62 -11q172 -25 172 -132z" />
    <glyph glyph-name="Scaron" unicode="&#x160;" 
d="M463 164q0 -70 -51.5 -123t-132.5 -53q-101 0 -165 50q-10 -34 -15 -42t-20 -8q-13 0 -19.5 7t-7.5 13.5t-1 17.5v138q0 13 1 19.5t9 13t23 6.5q14 0 21.5 -5.5t8.5 -11t2 -15.5q4 -63 49 -94t114 -31q56 0 89 35t33 79q0 41 -28 75q-18 20 -37.5 27.5t-79.5 21.5
q-83 20 -108.5 30.5t-55.5 40.5q-41 41 -41 104q0 67 52 115.5t130 48.5q84 0 141 -50q10 34 15 42t20 8q13 0 19.5 -7t7.5 -13.5t1 -17.5v-139q0 -13 -1 -19.5t-9 -12.5t-23 -6q-19 0 -24.5 7t-8.5 25q-19 125 -139 125q-51 0 -85 -30.5t-34 -71.5q0 -32 21 -57.5t53 -37.5
l70 -17q81 -19 106.5 -29.5t53.5 -39.5l3 -4q3 -3 5.5 -6.5t7 -10t8.5 -13.5t8 -17t7 -20t5 -22t2 -25zM384 710l-118 -43q-10 -3 -19 0l-118 43q-26 10 -17 37t36 19l109 -33l109 33q27 8 36 -19t-18 -37z" />
    <glyph glyph-name="scaron" unicode="&#x161;" 
d="M449 124q0 -8 -1 -17.5t-11 -32t-27.5 -38.5t-55.5 -29t-90 -13q-79 0 -129 41q-10 -28 -17.5 -34.5t-18.5 -6.5q-13 0 -19.5 7t-7.5 13.5t-1 17.5v103q0 13 1 19.5t9 13t23 6.5q17 0 22.5 -5.5t10.5 -19.5q15 -52 46 -74.5t81 -22.5q65 0 96 20.5t31 51.5
q0 16 -9.5 28.5t-20.5 19.5t-31 13.5t-29.5 8.5t-28.5 5q-110 17 -143 36q-58 32 -58 88q0 16 6.5 33t24 37.5t57.5 33.5t97 13q66 0 106 -24q6 24 30 24q13 0 19.5 -7t7.5 -13.5t1 -17.5v-76q0 -13 -1 -19.5t-9 -12.5t-23 -6q-30 0 -32 23q-1 14 -3.5 23t-11.5 22t-31 19.5
t-55 6.5q-65 0 -95 -17.5t-30 -41.5q0 -15 9 -25.5t33.5 -18.5t43.5 -12t62 -11q172 -25 172 -132zM391 568l-118 -75q-15 -10 -30 0l-120 76q-25 16 -9.5 40t40.5 9l103 -62l103 62q25 15 40.5 -9.5t-9.5 -40.5z" />
    <glyph glyph-name="Tcedilla" unicode="&#x162;" 
d="M488 504q0 -13 -1 -20t-9 -14t-23 -7t-22.5 7.5t-8.5 14t-1 19.5v49h-133v-495h48q40 0 40 -29t-40 -29h-48l1 -16q48 -9 72 -35.5t24 -59.5t-19.5 -55t-55.5 -30.5t-63 -11t-66 -2.5q-19 0 -28 1t-17.5 7.5t-8.5 20.5q0 29 41 29h20q132 0 132 41q0 18 -18 28.5
t-47 12.5q-14 1 -21.5 7.5t-8.5 13t-1 18.5v31h-49q-40 0 -40 29t40 29h48v495h-134v-49q0 -13 -1 -20t-9 -14t-23 -7t-22.5 7.5t-8.5 14t-1 19.5v66q0 25 8 33t33 8h381q25 0 32.5 -8.5t7.5 -32.5v-66z" />
    <glyph glyph-name="tcedilla" unicode="&#x163;" 
d="M440 123q0 -56 -34.5 -86t-82.5 -39l1 -14q48 -9 72 -35.5t24 -59.5t-19.5 -55t-55.5 -30.5t-63 -11t-66 -2.5q-19 0 -28 1t-17.5 7.5t-8.5 20.5q0 29 41 29h20q132 0 132 41q0 18 -18 28.5t-47 12.5q-14 1 -21.5 7.5t-8.5 13t-1 18.5v27q-49 6 -78.5 37t-29.5 88v252
h-86q-40 0 -40 29t41 29h85v82q0 13 1 19.5t9 14t23 7.5t22.5 -7.5t8.5 -14t1 -19.5v-82h162q40 0 40 -29t-40 -29h-162v-247q0 -14 1.5 -22.5t8 -22.5t24 -21.5t44.5 -7.5q16 0 32 4.5t32.5 21.5t16.5 44q0 14 1 21t8.5 14.5t22.5 7.5t23 -7t9 -14t1 -21z" />
    <glyph glyph-name="Tcaron" unicode="&#x164;" 
d="M488 504q0 -13 -1 -20t-9 -14t-23 -7t-22.5 7.5t-8.5 14t-1 19.5v49h-133v-495h48q40 0 40 -29t-40 -29h-161q-40 0 -40 29t40 29h48v495h-134v-49q0 -13 -1 -20t-9 -14t-23 -7t-22.5 7.5t-8.5 14t-1 19.5v66q0 25 8 33t33 8h381q25 0 32.5 -8.5t7.5 -32.5v-66zM384 710
l-118 -43q-10 -3 -19 0l-118 43q-26 10 -17 37t36 19l109 -33l109 33q27 8 36 -19t-18 -37z" />
    <glyph glyph-name="tcaron" unicode="&#x165;" 
d="M440 123q0 -36 -16 -63t-41 -40.5t-49 -19.5t-47 -6q-59 0 -97.5 31t-38.5 96v252h-86q-40 0 -40 29t41 29h85v82q0 13 1 19.5t9 14t23 7.5t22.5 -7.5t8.5 -14t1 -19.5v-82h162q40 0 40 -29t-40 -29h-162v-247q0 -14 1.5 -22.5t8 -22.5t24 -21.5t44.5 -7.5q16 0 32 4.5
t32.5 21.5t16.5 44q0 14 1 21t8.5 14.5t22.5 7.5t23 -7t9 -14t1 -21zM372 587q0 -53 -35.5 -85.5t-58.5 -32.5q-9 0 -16.5 7.5t-7.5 15.5q0 16 18 19q48 17 56 65q-8 -3 -14 -3q-18 0 -30 12t-12 31q0 16 11.5 29t30.5 13q25 0 41.5 -20.5t16.5 -50.5z" />
    <glyph glyph-name="Utilde" unicode="&#x168;" 
d="M507 582q0 -29 -41 -29h-27v-350q0 -90 -53.5 -152.5t-128.5 -62.5t-128.5 62.5t-53.5 152.5v350h-27q-41 0 -41 29t41 29h119q41 0 41 -29t-41 -29h-27v-344q0 -75 36.5 -119t80.5 -44t80.5 43.5t36.5 119.5v344h-27q-41 0 -41 29t41 29h119q41 0 41 -29zM428 753
q0 -18 -48 -54q-42 -34 -77 -34q-36 0 -73 43q-11 13 -21 13q-11 0 -28 -10.5t-29 -20.5l-11 -11q-12 -14 -26 -14q-11 0 -20 9t-9 20q0 18 48 54q42 34 77 34q36 0 73 -43q11 -13 21 -13q11 0 28 10.5t29 21.5l11 10q12 14 26 14q11 0 20 -9t9 -20z" />
    <glyph glyph-name="utilde" unicode="&#x169;" 
d="M499 29q0 -29 -40 -29h-66q-12 0 -19 1t-14.5 9.5t-7.5 25.5q-49 -42 -119 -42q-137 0 -137 120v259h-41q-40 0 -40 29t40 29h66q25 0 32.5 -8.5t7.5 -32.5v-271q0 -16 1.5 -24.5t8 -20t24 -17t45.5 -5.5q43 0 78 24.5t35 79.5v217h-41q-40 0 -40 29t40 29h66
q25 0 32.5 -8.5t7.5 -32.5v-332h41q40 0 40 -29zM428 585q0 -18 -48 -54q-42 -34 -77 -34q-36 0 -73 43q-11 13 -21 13q-11 0 -28 -10.5t-29 -20.5l-11 -11q-12 -14 -26 -14q-11 0 -20 9t-9 20q0 18 48 54q42 34 77 34q36 0 73 -43q11 -13 21 -13q11 0 28 10.5t29 21.5
l11 10q12 14 26 14q11 0 20 -9t9 -20z" />
    <glyph glyph-name="Umacron" unicode="&#x16a;" 
d="M507 582q0 -29 -41 -29h-27v-350q0 -90 -53.5 -152.5t-128.5 -62.5t-128.5 62.5t-53.5 152.5v350h-27q-41 0 -41 29t41 29h119q41 0 41 -29t-41 -29h-27v-344q0 -75 36.5 -119t80.5 -44t80.5 43.5t36.5 119.5v344h-27q-41 0 -41 29t41 29h119q41 0 41 -29zM443 714
q0 -29 -40 -29h-291q-41 0 -41 30q0 29 40 29h292q40 0 40 -30z" />
    <glyph glyph-name="umacron" unicode="&#x16b;" 
d="M499 29q0 -29 -40 -29h-66q-12 0 -19 1t-14.5 9.5t-7.5 25.5q-49 -42 -119 -42q-137 0 -137 120v259h-41q-40 0 -40 29t40 29h66q25 0 32.5 -8.5t7.5 -32.5v-271q0 -16 1.5 -24.5t8 -20t24 -17t45.5 -5.5q43 0 78 24.5t35 79.5v217h-41q-40 0 -40 29t40 29h66
q25 0 32.5 -8.5t7.5 -32.5v-332h41q40 0 40 -29zM443 555q0 -29 -40 -29h-291q-41 0 -41 30q0 29 40 29h292q40 0 40 -30z" />
    <glyph glyph-name="Ubreve" unicode="&#x16c;" 
d="M507 582q0 -29 -41 -29h-27v-350q0 -90 -53.5 -152.5t-128.5 -62.5t-128.5 62.5t-53.5 152.5v350h-27q-41 0 -41 29t41 29h119q41 0 41 -29t-41 -29h-27v-344q0 -75 36.5 -119t80.5 -44t80.5 43.5t36.5 119.5v344h-27q-41 0 -41 29t41 29h119q41 0 41 -29zM429 756
q0 -23 -12.5 -39.5t-28.5 -24.5t-44 -12t-44 -4.5t-43 -0.5t-43 0.5t-44 4.5t-44 12t-28.5 24.5t-12.5 39.5q0 16 9 23.5t20 7.5q24 0 29 -24q2 -11 6.5 -15.5t30 -8.5t77.5 -4q61 0 86.5 5t27.5 20q5 27 29 27q11 0 20 -7.5t9 -23.5z" />
    <glyph glyph-name="ubreve" unicode="&#x16d;" 
d="M499 29q0 -29 -40 -29h-66q-12 0 -19 1t-14.5 9.5t-7.5 25.5q-49 -42 -119 -42q-137 0 -137 120v259h-41q-40 0 -40 29t40 29h66q25 0 32.5 -8.5t7.5 -32.5v-271q0 -16 1.5 -24.5t8 -20t24 -17t45.5 -5.5q43 0 78 24.5t35 79.5v217h-41q-40 0 -40 29t40 29h66
q25 0 32.5 -8.5t7.5 -32.5v-332h41q40 0 40 -29zM429 581q0 -23 -12.5 -39.5t-28.5 -24.5t-44 -12t-44 -4.5t-43 -0.5t-43 0.5t-44 4.5t-44 12t-28.5 24.5t-12.5 39.5q0 16 9 23.5t20 7.5q24 0 29 -24q2 -11 6.5 -15.5t30 -8.5t77.5 -4q61 0 86.5 5t27.5 20q5 27 29 27
q11 0 20 -7.5t9 -23.5z" />
    <glyph glyph-name="Uring" unicode="&#x16e;" 
d="M507 582q0 -29 -41 -29h-27v-350q0 -90 -53.5 -152.5t-128.5 -62.5t-128.5 62.5t-53.5 152.5v350h-27q-41 0 -41 29t41 29h119q41 0 41 -29t-41 -29h-27v-344q0 -75 36.5 -119t80.5 -44t80.5 43.5t36.5 119.5v344h-27q-41 0 -41 29t41 29h119q41 0 41 -29zM302 697
q0 14 -12 24t-33 10t-33 -10t-12 -24t12 -24t33 -10t33 10t12 24zM352 697q0 -29 -27.5 -50.5t-67.5 -21.5t-67.5 21.5t-27.5 50.5t27.5 50.5t67.5 21.5t67.5 -21.5t27.5 -50.5z" />
    <glyph glyph-name="uring" unicode="&#x16f;" 
d="M499 29q0 -29 -40 -29h-66q-12 0 -19 1t-14.5 9.5t-7.5 25.5q-49 -42 -119 -42q-137 0 -137 120v259h-41q-40 0 -40 29t40 29h66q25 0 32.5 -8.5t7.5 -32.5v-271q0 -16 1.5 -24.5t8 -20t24 -17t45.5 -5.5q43 0 78 24.5t35 79.5v217h-41q-40 0 -40 29t40 29h66
q25 0 32.5 -8.5t7.5 -32.5v-332h41q40 0 40 -29zM302 566q0 14 -12 24t-33 10t-33 -10t-12 -24t12 -24t33 -10t33 10t12 24zM352 566q0 -29 -27.5 -50.5t-67.5 -21.5t-67.5 21.5t-27.5 50.5t27.5 50.5t67.5 21.5t67.5 -21.5t27.5 -50.5z" />
    <glyph glyph-name="Uhungarumlaut" unicode="&#x170;" 
d="M507 582q0 -29 -41 -29h-27v-350q0 -90 -53.5 -152.5t-128.5 -62.5t-128.5 62.5t-53.5 152.5v350h-27q-41 0 -41 29t41 29h119q41 0 41 -29t-41 -29h-27v-344q0 -75 36.5 -119t80.5 -44t80.5 43.5t36.5 119.5v344h-27q-41 0 -41 29t41 29h119q41 0 41 -29zM229 801
q9 -11 8 -24.5t-12 -21.5l-83 -72q-11 -9 -24.5 -8t-22.5 12t-8 24.5t12 21.5l83 72q11 9 24.5 8t22.5 -12zM419 801q9 -11 8 -24.5t-12 -21.5l-83 -72q-11 -9 -24.5 -8t-22.5 12t-8 24.5t12 21.5l83 72q11 9 24.5 8t22.5 -12z" />
    <glyph glyph-name="uhungarumlaut" unicode="&#x171;" 
d="M499 29q0 -29 -40 -29h-66q-12 0 -19 1t-14.5 9.5t-7.5 25.5q-49 -42 -119 -42q-137 0 -137 120v259h-41q-40 0 -40 29t40 29h66q25 0 32.5 -8.5t7.5 -32.5v-271q0 -16 1.5 -24.5t8 -20t24 -17t45.5 -5.5q43 0 78 24.5t35 79.5v217h-41q-40 0 -40 29t40 29h66
q25 0 32.5 -8.5t7.5 -32.5v-332h41q40 0 40 -29zM229 613q9 -11 8 -24.5t-12 -21.5l-83 -72q-11 -9 -24.5 -8t-22.5 12t-8 24.5t12 21.5l83 72q11 9 24.5 8t22.5 -12zM419 613q9 -11 8 -24.5t-12 -21.5l-83 -72q-11 -9 -24.5 -8t-22.5 12t-8 24.5t12 21.5l83 72q11 9 24.5 8
t22.5 -12z" />
    <glyph glyph-name="Uogonek" unicode="&#x172;" 
d="M507 582q0 -29 -41 -29h-27v-350q0 -81 -44.5 -140.5t-109.5 -71.5q-49 -39 -49 -101q0 -17 14.5 -28t29.5 -11q14 0 29 11.5t25 25.5q5 5 17.5 7t19.5 -2q6 -5 8 -17.5t-3 -19.5q-43 -59 -100 -59q-44 0 -71.5 30t-27.5 65q0 49 50 99q-65 12 -108.5 71.5t-43.5 140.5
v350h-27q-41 0 -41 29t41 29h119q41 0 41 -29t-41 -29h-27v-344q0 -75 36.5 -119t80.5 -44t80.5 43.5t36.5 119.5v344h-27q-41 0 -41 29t41 29h119q41 0 41 -29z" />
    <glyph glyph-name="uogonek" unicode="&#x173;" 
d="M515 -144q-43 -59 -100 -59q-44 0 -71.5 30t-27.5 65q0 58 62 109q-26 4 -26 35q-49 -42 -119 -42q-137 0 -137 120v259h-41q-40 0 -40 29t40 29h66q25 0 32.5 -8.5t7.5 -32.5v-271q0 -16 1.5 -24.5t8 -20t24 -17t45.5 -5.5q43 0 78 24.5t35 79.5v217h-41q-40 0 -40 29
t40 29h66q25 0 32.5 -8.5t7.5 -32.5v-332h41q40 0 40 -29t-40 -29h-21q-63 -38 -63 -110q0 -17 14.5 -28t29.5 -11q14 0 29 11.5t25 25.5q5 5 17.5 7t19.5 -2q6 -5 8 -17.5t-3 -19.5z" />
    <glyph glyph-name="Wcircumflex" unicode="&#x174;" 
d="M503 582q0 -29 -36 -29l-72 -524q-2 -10 -3 -14t-4.5 -11t-11.5 -10t-20 -3q-29 0 -39 20q-4 9 -30.5 131.5t-29.5 153.5h-1q-2 -22 -16 -91.5t-27.5 -128t-14.5 -62.5q-9 -23 -40 -23q-16 0 -24.5 6.5t-10.5 12.5t-4 20l-72 523h-1q-35 0 -35 29t41 29h74q41 0 41 -29
t-41 -29h-22l51 -400q7 -57 8 -81h1q3 44 26 154t28 120q9 21 39 21q34 0 41 -26q47 -198 52 -269h1q1 24 17 157l43 324h-23q-41 0 -41 29t41 29h74q41 0 41 -29zM385 723q26 -10 17 -37t-36 -19l-109 33l-109 -33q-27 -8 -36 19t18 37l118 43q10 3 19 0z" />
    <glyph glyph-name="wcircumflex" unicode="&#x175;" 
d="M499 402q0 -14 -8.5 -20.5t-16.5 -7.5t-24 -1l-60 -341q-3 -17 -11.5 -26t-14.5 -10t-18 -1q-27 0 -35.5 11.5t-24.5 64.5q-25 92 -27 118h-1q-2 -14 -28 -117q-16 -54 -24.5 -65.5t-36.5 -11.5q-20 0 -30.5 7t-14.5 31l-60 340q-16 0 -24 1t-16.5 7.5t-8.5 20.5
q0 29 41 29h112q41 0 41 -29t-41 -29h-47l52 -305h1q5 30 30 115q14 51 22.5 63.5t31.5 12.5q24 0 32 -12.5t22 -64.5q25 -79 30 -114h1l50 305h-47q-41 0 -41 29t41 29h112q41 0 41 -29zM391 542q25 -16 9.5 -40t-40.5 -9l-103 62l-103 -62q-25 -15 -40.5 9.5t9.5 40.5
l118 75q15 10 30 0z" />
    <glyph glyph-name="Ycircumflex" unicode="&#x176;" 
d="M496 582q0 -29 -41 -29h-18l-147 -309v-186h22q40 0 40 -29t-40 -29h-109q-40 0 -40 29t40 29h22v186l-148 309h-18q-41 0 -41 29t41 29h94q41 0 41 -29q0 -10 -4 -16.5t-12 -9t-13.5 -3t-15.5 -0.5q94 -194 108 -244q9 30 51 123l57 121q-10 0 -15.5 0.5t-13.5 3t-12 9
t-4 16.5q0 29 41 29h94q41 0 41 -29zM385 723q26 -10 17 -37t-36 -19l-109 33l-109 -33q-27 -8 -36 19t18 37l118 43q10 3 19 0z" />
    <glyph glyph-name="ycircumflex" unicode="&#x177;" 
d="M491 402q0 -29 -41 -29h-26l-157 -464q-45 -120 -123 -135q-10 -2 -20 -2q-36 0 -59 24t-23 54q0 18 11 29t29 11q17 0 28 -11t11 -28q0 -8 -4 -20q45 -5 79 52q7 12 17 41.5t17 52.5l7 23q0 3 -4 13l-140 360h-27q-41 0 -41 29t41 29h110q41 0 41 -29t-41 -29h-23
l93 -246q14 -37 19 -60h1q14 57 99 306h-25q-41 0 -41 29t41 29h110q41 0 41 -29zM391 542q25 -16 9.5 -40t-40.5 -9l-103 62l-103 -62q-25 -15 -40.5 9.5t9.5 40.5l118 75q15 10 30 0z" />
    <glyph glyph-name="Ydieresis" unicode="&#x178;" 
d="M496 582q0 -29 -41 -29h-18l-147 -309v-186h22q40 0 40 -29t-40 -29h-109q-40 0 -40 29t40 29h22v186l-148 309h-18q-41 0 -41 29t41 29h94q41 0 41 -29q0 -10 -4 -16.5t-12 -9t-13.5 -3t-15.5 -0.5q94 -194 108 -244q9 30 51 123l57 121q-10 0 -15.5 0.5t-13.5 3t-12 9
t-4 16.5q0 29 41 29h94q41 0 41 -29zM211 705q0 -17 -11.5 -28.5t-28.5 -11.5t-29 11.5t-12 28.5t12 29t29 12t28.5 -12t11.5 -29zM386 705q0 -17 -12 -28.5t-28 -11.5q-17 0 -29 11.5t-12 28.5t12 29t29 12t28.5 -12t11.5 -29z" />
    <glyph glyph-name="Zacute" unicode="&#x179;" 
d="M472 41q0 -24 -8 -32.5t-32 -8.5h-344q-13 0 -20 1t-14 9t-7 23t9 28l327 492h-260v-49q0 -13 -1 -20t-9 -14t-23 -7t-22.5 7.5t-8.5 14t-1 19.5v66q0 25 8 33t33 8h327q13 0 20 -1t14 -9t7 -23t-9 -28l-327 -492h276v67q0 13 1 20t9 14t23 7t22.5 -7.5t8.5 -14t1 -19.5
v-84zM362 777q0 -21 -26 -33l-146 -69q-16 0 -25.5 9t-11 15.5t-1.5 11.5q0 17 22 28l149 71q39 0 39 -33z" />
    <glyph glyph-name="zacute" unicode="&#x17a;" 
d="M466 41q0 -24 -8 -32.5t-32 -8.5h-353q-13 0 -20 1t-14 9t-7 23q0 18 16 33l318 307h-253v-23q0 -13 -1 -20t-9 -14t-23 -7t-22.5 7.5t-8.5 14t-1 19.5v40q0 25 8 33t33 8h333q13 0 20 -1t14 -9t7 -23q0 -18 -16 -33l-318 -307h272v34q0 13 1 20t9 14t23 7t22.5 -7.5
t8.5 -14t1 -19.5v-51zM362 590q0 -21 -26 -33l-146 -69q-16 0 -25.5 9t-11 15.5t-1.5 11.5q0 17 22 28l149 71q39 0 39 -33z" />
    <glyph glyph-name="Zdotaccent" unicode="&#x17b;" 
d="M472 41q0 -24 -8 -32.5t-32 -8.5h-344q-13 0 -20 1t-14 9t-7 23t9 28l327 492h-260v-49q0 -13 -1 -20t-9 -14t-23 -7t-22.5 7.5t-8.5 14t-1 19.5v66q0 25 8 33t33 8h327q13 0 20 -1t14 -9t7 -23t-9 -28l-327 -492h276v67q0 13 1 20t9 14t23 7t22.5 -7.5t8.5 -14t1 -19.5
v-84zM302 722q0 -19 -13 -32t-32 -13t-32 13t-13 32t13 32t32 13t32 -13t13 -32z" />
    <glyph glyph-name="zdotaccent" unicode="&#x17c;" 
d="M466 41q0 -24 -8 -32.5t-32 -8.5h-353q-13 0 -20 1t-14 9t-7 23q0 18 16 33l318 307h-253v-23q0 -13 -1 -20t-9 -14t-23 -7t-22.5 7.5t-8.5 14t-1 19.5v40q0 25 8 33t33 8h333q13 0 20 -1t14 -9t7 -23q0 -18 -16 -33l-318 -307h272v34q0 13 1 20t9 14t23 7t22.5 -7.5
t8.5 -14t1 -19.5v-51zM302 556q0 -19 -13 -32t-32 -13t-32 13t-13 32t13 32t32 13t32 -13t13 -32z" />
    <glyph glyph-name="Zcaron" unicode="&#x17d;" 
d="M472 41q0 -24 -8 -32.5t-32 -8.5h-344q-13 0 -20 1t-14 9t-7 23t9 28l327 492h-260v-49q0 -13 -1 -20t-9 -14t-23 -7t-22.5 7.5t-8.5 14t-1 19.5v66q0 25 8 33t33 8h327q13 0 20 -1t14 -9t7 -23t-9 -28l-327 -492h276v67q0 13 1 20t9 14t23 7t22.5 -7.5t8.5 -14t1 -19.5
v-84zM384 710l-118 -43q-10 -3 -19 0l-118 43q-26 10 -17 37t36 19l109 -33l109 33q27 8 36 -19t-18 -37z" />
    <glyph glyph-name="zcaron" unicode="&#x17e;" 
d="M466 41q0 -24 -8 -32.5t-32 -8.5h-353q-13 0 -20 1t-14 9t-7 23q0 18 16 33l318 307h-253v-23q0 -13 -1 -20t-9 -14t-23 -7t-22.5 7.5t-8.5 14t-1 19.5v40q0 25 8 33t33 8h333q13 0 20 -1t14 -9t7 -23q0 -18 -16 -33l-318 -307h272v34q0 13 1 20t9 14t23 7t22.5 -7.5
t8.5 -14t1 -19.5v-51zM391 568l-118 -75q-15 -10 -30 0l-120 76q-25 16 -9.5 40t40.5 9l103 -62l103 62q25 15 40.5 -9.5t-9.5 -40.5z" />
    <glyph glyph-name="longs" unicode="&#x17f;" 
d="M429 560q0 -19 -12.5 -29.5t-26.5 -10.5q-18 0 -28.5 10t-11.5 20l-1 9q-18 0 -30.5 -1.5t-31.5 -8t-29.5 -24t-10.5 -44.5v-423h95q40 0 40 -29t-40 -29h-255q-40 0 -40 29t40 29h95v315h-100q-40 0 -40 29t41 29h99v54q0 63 46.5 97.5t109.5 34.5q91 0 91 -57z" />
    <glyph glyph-name="Ereversed" unicode="&#x18e;" 
d="M493 29q0 -29 -41 -29h-384q-24 0 -32 8.5t-8 32.5v81q0 13 1 19.5t8.5 14t22.5 7.5t23 -7t9 -14t1 -20v-64h267v230h-132q0 -22 -1 -31t-8.5 -16t-23.5 -7q-15 0 -22.5 7.5t-8.5 14t-1 19.5v84q0 13 1 19.5t8.5 14t22.5 7.5q23 0 28 -11.5t5 -42.5h132v207h-245v-49
q0 -13 -1 -19.5t-8.5 -14t-22.5 -7.5t-23 7t-9 14t-1 20v66q0 24 7.5 32.5t32.5 8.5h362q41 0 41 -29t-41 -29h-27v-495h27q41 0 41 -29z" />
    <glyph glyph-name="florin" unicode="&#x192;" 
d="M429 560q0 -19 -12.5 -29.5t-26.5 -10.5q-15 0 -25 10t-13 20l-3 9q-18 0 -30.5 -1.5t-31.5 -8t-29.5 -24t-10.5 -44.5v-50h121q40 0 40 -29t-40 -29h-121v-315h95q40 0 40 -29t-40 -29h-255q-40 0 -40 29t40 29h95v315h-100q-40 0 -40 29t41 29h99v54q0 63 46.5 97.5
t109.5 34.5q91 0 91 -57z" />
    <glyph glyph-name="Ohorn" unicode="&#x1a0;" 
d="M476 639q0 -59 -42 -84q24 -57 24 -250q0 -216 -32 -266q-15 -24 -46.5 -36t-55.5 -13.5t-68 -1.5t-67.5 1.5t-55 13.5t-46.5 36q-32 50 -32 266q0 217 32 267q15 24 46.5 36t55 13.5t67.5 1.5q101 0 138 -21q12 0 19 13q-27 11 -27 41q0 18 12 31t32 14h2q44 0 44 -62z
M393 318q0 168 -22 207q-14 25 -42.5 32.5t-72.5 7.5q-28 0 -46 -2t-38.5 -11t-30.5 -27q-21 -39 -21 -207q0 -185 21 -229q22 -43 115 -43q94 0 115 43q22 44 22 229z" />
    <glyph glyph-name="ohorn" unicode="&#x1a1;" 
d="M455 215q0 -92 -58 -156q-59 -65 -141 -65t-140 65q-59 65 -59 156q0 92 59 159q58 65 140 65q47 0 88 -23q7 5 14 5q11 0 19 13q-27 11 -27 41q0 18 12.5 31.5t31.5 14.5h2q43 -1 45 -62q0 -61 -44 -85q58 -65 58 -159zM391 224q0 65 -40 111q-39 46 -95 46t-94 -46
q-40 -46 -40 -111q0 -70 40 -122q40 -50 94 -50q55 0 95 50q40 52 40 122z" />
    <glyph glyph-name="Uhorn" unicode="&#x1af;" 
d="M507 641q0 -31 -19.5 -55t-49.5 -33v-349q0 -88 -51 -151q-55 -65 -131 -65q-75 0 -130 65q-52 64 -52 151v349h-41q-11 0 -18.5 7.5t-7.5 18.5v6q0 11 7.5 18.5t18.5 7.5h147q11 0 19 -7.5t8 -18.5v-6q0 -11 -8 -18.5t-19 -7.5h-41v-349q0 -68 37 -114q34 -44 80 -44
q47 0 81 44q37 48 37 114v349h-42q-10 0 -18 7.5t-8 18.5v6q0 11 8 18.5t18 7.5h80q6 0 11 -3q2 1 16 9q-22 13 -22 39q0 18 12 31t32 14h2q44 0 44 -60z" />
    <glyph glyph-name="uhorn" unicode="&#x1b0;" 
d="M498 26q0 -10 -8 -18t-18 -8h-94q-10 0 -18 8t-8 18v11q-48 -43 -116 -43q-69 0 -103 28q-37 30 -37 88v263h-55q-11 0 -18.5 7.5t-7.5 18.5v5q0 11 7.5 18.5t18.5 7.5h93q11 0 19 -7.5t8 -18.5v-294q0 -31 16 -43q20 -15 67 -15q44 0 75.5 27.5t32.5 65.5v228h-55
q-11 0 -18.5 7.5t-7.5 18.5v5q0 11 7.5 18.5t18.5 7.5h94q4 0 12 -2q12 3 19 9q-19 13 -21 38q0 18 12.5 31.5t31.5 14.5h2q24 -1 34.5 -19t10.5 -42q0 -33 -21 -56t-54 -32v-314h55q10 0 18 -8t8 -18v-6z" />
    <glyph glyph-name="Acaron" unicode="&#x1cd;" 
d="M487 29q0 -29 -41 -29h-96q-41 0 -41 29q0 20 13 24.5t42 4.5l-26 112h-162l-26 -112q20 0 29 -1t17.5 -7.5t8.5 -20.5q0 -29 -41 -29h-96q-41 0 -41 29q0 20 12.5 24.5t43.5 4.5l124 531q5 23 15 29.5t35 6.5q15 0 22.5 -1t16 -9.5t12.5 -25.5l123 -531q21 0 30.5 -1
t17.5 -7.5t8 -20.5zM325 228l-51 229q-14 62 -17 85h-1q-5 -49 -67 -314h136zM384 710l-118 -43q-10 -3 -19 0l-118 43q-26 10 -17 37t36 19l109 -33l109 33q27 8 36 -19t-18 -37z" />
    <glyph glyph-name="acaron" unicode="&#x1ce;" 
d="M509 29q0 -14 -8 -20.5t-16 -7.5t-24 -1q-87 0 -108 35q-59 -41 -146 -41q-68 0 -112 38t-44 93q0 82 114 121q69 22 179 26q0 19 -1 29.5t-9.5 26.5t-25.5 29q-33 25 -90 25q-25 0 -37 -1q-22 -2 -22 -8q0 -19 -10 -30t-17 -12.5t-13 -1.5q-17 0 -29 11.5t-12 30.5
q0 69 139 69q94 0 143 -46.5t49 -109.5v-218q19 -8 60 -8q40 0 40 -29zM344 132v86q-95 0 -161.5 -25t-66.5 -68q0 -31 29 -52t73 -21q50 0 85 17q19 9 28.5 20.5t11 19.5t1.5 23zM391 568l-118 -75q-15 -10 -30 0l-120 76q-25 16 -9.5 40t40.5 9l103 -62l103 62
q25 15 40.5 -9.5t-9.5 -40.5z" />
    <glyph glyph-name="Icaron" unicode="&#x1cf;" 
d="M432 29q0 -29 -40 -29h-269q-40 0 -40 29t40 29h102v495h-102q-40 0 -40 29t40 29h269q40 0 40 -29t-40 -29h-102v-495h102q40 0 40 -29zM384 710l-118 -43q-10 -3 -19 0l-118 43q-26 10 -17 37t36 19l109 -33l109 33q27 8 36 -19t-18 -37z" />
    <glyph glyph-name="icaron" unicode="&#x1d0;" 
d="M441 29q0 -29 -40 -29h-278q-41 0 -41 29t41 29h114v315h-107q-40 0 -40 29t40 29h132q25 0 32.5 -8.5t7.5 -32.5v-332h99q40 0 40 -29zM391 568l-118 -75q-15 -10 -30 0l-120 76q-25 16 -9.5 40t40.5 9l103 -62l103 62q25 15 40.5 -9.5t-9.5 -40.5z" />
    <glyph glyph-name="Ocaron" unicode="&#x1d1;" 
d="M459 305q0 -58 -1 -97t-5.5 -74.5t-9.5 -56.5t-17 -39t-25 -26.5t-36 -14.5t-47 -7.5t-61 -1.5t-61 1.5t-47 7.5t-36 14.5t-25 26.5t-17 39t-9.5 57t-5.5 74.5t-1 97.5q0 58 1 97t5.5 74.5t9.5 56.5t17 39t25 26.5t36 14.5t47 7.5t61 1.5t61 -1.5t47 -7.5t36 -14.5
t25 -26.5t17 -39t9.5 -57t5.5 -74.5t1 -97.5zM394 314q0 139 -12 186q-10 39 -37 52t-88 13q-63 0 -89.5 -13.5t-36.5 -54.5q-11 -48 -11 -183q0 -147 13 -198q9 -37 34.5 -53.5t89.5 -16.5q66 0 91.5 17t34.5 58q11 54 11 193zM384 710l-118 -43q-10 -3 -19 0l-118 43
q-26 10 -17 37t36 19l109 -33l109 33q27 8 36 -19t-18 -37z" />
    <glyph glyph-name="ocaron" unicode="&#x1d2;" 
d="M456 216q0 -93 -59 -157.5t-140 -64.5t-140 64.5t-59 157.5t58.5 158.5t140.5 65.5t140.5 -65.5t58.5 -158.5zM391 223q0 68 -40 113.5t-94 45.5t-94 -45.5t-40 -113.5q0 -71 40 -121t94 -50q55 0 94.5 50t39.5 121zM391 568l-118 -75q-15 -10 -30 0l-120 76
q-25 16 -9.5 40t40.5 9l103 -62l103 62q25 15 40.5 -9.5t-9.5 -40.5z" />
    <glyph glyph-name="Ucaron" unicode="&#x1d3;" 
d="M507 582q0 -29 -41 -29h-27v-350q0 -90 -53.5 -152.5t-128.5 -62.5t-128.5 62.5t-53.5 152.5v350h-27q-41 0 -41 29t41 29h119q41 0 41 -29t-41 -29h-27v-344q0 -75 36.5 -119t80.5 -44t80.5 43.5t36.5 119.5v344h-27q-41 0 -41 29t41 29h119q41 0 41 -29zM384 710
l-118 -43q-10 -3 -19 0l-118 43q-26 10 -17 37t36 19l109 -33l109 33q27 8 36 -19t-18 -37z" />
    <glyph glyph-name="ucaron" unicode="&#x1d4;" 
d="M499 29q0 -29 -40 -29h-66q-12 0 -19 1t-14.5 9.5t-7.5 25.5q-49 -42 -119 -42q-137 0 -137 120v259h-41q-40 0 -40 29t40 29h66q25 0 32.5 -8.5t7.5 -32.5v-271q0 -16 1.5 -24.5t8 -20t24 -17t45.5 -5.5q43 0 78 24.5t35 79.5v217h-41q-40 0 -40 29t40 29h66
q25 0 32.5 -8.5t7.5 -32.5v-332h41q40 0 40 -29zM391 568l-118 -75q-15 -10 -30 0l-120 76q-25 16 -9.5 40t40.5 9l103 -62l103 62q25 15 40.5 -9.5t-9.5 -40.5z" />
    <glyph glyph-name="Udieresisacute" unicode="&#x1d7;" 
d="M507 582q0 -29 -41 -29h-27v-350q0 -90 -53.5 -152.5t-128.5 -62.5t-128.5 62.5t-53.5 152.5v350h-27q-41 0 -41 29t41 29h119q41 0 41 -29t-41 -29h-27v-344q0 -75 36.5 -119t80.5 -44t80.5 43.5t36.5 119.5v344h-27q-41 0 -41 29t41 29h119q41 0 41 -29zM211 705
q0 -17 -11.5 -28.5t-28.5 -11.5t-29 11.5t-12 28.5t12 29t29 12t28.5 -12t11.5 -29zM386 705q0 -17 -12 -28.5t-28 -11.5q-17 0 -29 11.5t-12 28.5t12 29t29 12t28.5 -12t11.5 -29zM362 911q0 -21 -26 -33l-146 -69q-16 0 -25.5 9t-11 15.5t-1.5 11.5q0 17 22 28l149 71
q39 0 39 -33z" />
    <glyph glyph-name="udieresisacute" unicode="&#x1d8;" 
d="M499 29q0 -29 -40 -29h-66q-12 0 -19 1t-14.5 9.5t-7.5 25.5q-49 -42 -119 -42q-137 0 -137 120v259h-41q-40 0 -40 29t40 29h66q25 0 32.5 -8.5t7.5 -32.5v-271q0 -16 1.5 -24.5t8 -20t24 -17t45.5 -5.5q43 0 78 24.5t35 79.5v217h-41q-40 0 -40 29t40 29h66
q25 0 32.5 -8.5t7.5 -32.5v-332h41q40 0 40 -29zM224 555q0 -17 -12 -28.5t-28 -11.5q-17 0 -29 11.5t-12 28.5t12 29t29 12t28.5 -12t11.5 -29zM373 555q0 -17 -11.5 -28.5t-28.5 -11.5t-29 11.5t-12 28.5t12 29t29 12t28.5 -12t11.5 -29zM362 761q0 -21 -26 -33l-146 -69
q-16 0 -25.5 9t-11 15.5t-1.5 11.5q0 17 22 28l149 71q39 0 39 -33z" />
    <glyph glyph-name="Udieresiscaron" unicode="&#x1d9;" 
d="M507 582q0 -29 -41 -29h-27v-350q0 -90 -53.5 -152.5t-128.5 -62.5t-128.5 62.5t-53.5 152.5v350h-27q-41 0 -41 29t41 29h119q41 0 41 -29t-41 -29h-27v-344q0 -75 36.5 -119t80.5 -44t80.5 43.5t36.5 119.5v344h-27q-41 0 -41 29t41 29h119q41 0 41 -29zM211 705
q0 -17 -11.5 -28.5t-28.5 -11.5t-29 11.5t-12 28.5t12 29t29 12t28.5 -12t11.5 -29zM386 705q0 -17 -12 -28.5t-28 -11.5q-17 0 -29 11.5t-12 28.5t12 29t29 12t28.5 -12t11.5 -29zM384 844l-118 -43q-10 -3 -19 0l-118 43q-26 10 -17 37t36 19l109 -33l109 33q27 8 36 -19
t-18 -37z" />
    <glyph glyph-name="udieresiscaron" unicode="&#x1da;" 
d="M499 29q0 -29 -40 -29h-66q-12 0 -19 1t-14.5 9.5t-7.5 25.5q-49 -42 -119 -42q-137 0 -137 120v259h-41q-40 0 -40 29t40 29h66q25 0 32.5 -8.5t7.5 -32.5v-271q0 -16 1.5 -24.5t8 -20t24 -17t45.5 -5.5q43 0 78 24.5t35 79.5v217h-41q-40 0 -40 29t40 29h66
q25 0 32.5 -8.5t7.5 -32.5v-332h41q40 0 40 -29zM224 555q0 -17 -12 -28.5t-28 -11.5q-17 0 -29 11.5t-12 28.5t12 29t29 12t28.5 -12t11.5 -29zM373 555q0 -17 -11.5 -28.5t-28.5 -11.5t-29 11.5t-12 28.5t12 29t29 12t28.5 -12t11.5 -29zM384 694l-118 -43q-10 -3 -19 0
l-118 43q-26 10 -17 37t36 19l109 -33l109 33q27 8 36 -19t-18 -37z" />
    <glyph glyph-name="Udieresisgrave" unicode="&#x1db;" 
d="M507 582q0 -29 -41 -29h-27v-350q0 -90 -53.5 -152.5t-128.5 -62.5t-128.5 62.5t-53.5 152.5v350h-27q-41 0 -41 29t41 29h119q41 0 41 -29t-41 -29h-27v-344q0 -75 36.5 -119t80.5 -44t80.5 43.5t36.5 119.5v344h-27q-41 0 -41 29t41 29h119q41 0 41 -29zM211 705
q0 -17 -11.5 -28.5t-28.5 -11.5t-29 11.5t-12 28.5t12 29t29 12t28.5 -12t11.5 -29zM386 705q0 -17 -12 -28.5t-28 -11.5q-17 0 -29 11.5t-12 28.5t12 29t29 12t28.5 -12t11.5 -29zM363 845q0 -5 -1.5 -11.5t-11 -15.5t-25.5 -9l-146 69q-26 12 -26 33q0 33 39 33l149 -71
q22 -11 22 -28z" />
    <glyph glyph-name="udieresisgrave" unicode="&#x1dc;" 
d="M499 29q0 -29 -40 -29h-66q-12 0 -19 1t-14.5 9.5t-7.5 25.5q-49 -42 -119 -42q-137 0 -137 120v259h-41q-40 0 -40 29t40 29h66q25 0 32.5 -8.5t7.5 -32.5v-271q0 -16 1.5 -24.5t8 -20t24 -17t45.5 -5.5q43 0 78 24.5t35 79.5v217h-41q-40 0 -40 29t40 29h66
q25 0 32.5 -8.5t7.5 -32.5v-332h41q40 0 40 -29zM224 555q0 -17 -12 -28.5t-28 -11.5q-17 0 -29 11.5t-12 28.5t12 29t29 12t28.5 -12t11.5 -29zM373 555q0 -17 -11.5 -28.5t-28.5 -11.5t-29 11.5t-12 28.5t12 29t29 12t28.5 -12t11.5 -29zM363 695q0 -5 -1.5 -11.5
t-11 -15.5t-25.5 -9l-146 69q-26 12 -26 33q0 33 39 33l149 -71q22 -11 22 -28z" />
    <glyph glyph-name="eturned" unicode="&#x1dd;" 
d="M456 216q0 -92 -61 -157t-148 -65q-90 0 -140.5 59.5t-50.5 151.5q0 13 3 21t9.5 11.5t12 4t15.5 0.5h293q-8 59 -53.5 99.5t-106.5 40.5q-15 0 -32 -3t-41.5 -18.5t-35.5 -41.5q-9 -22 -31 -22q-33 0 -33 28q0 31 46 73t130 42q93 0 158.5 -65t65.5 -159zM388 187h-266
q2 -23 7.5 -43t18.5 -42.5t38.5 -36t60.5 -13.5q50 0 91 37t50 98z" />
    <glyph glyph-name="Gcaron" unicode="&#x1e6;" 
d="M486 241q0 -13 -8.5 -20t-16 -8t-21.5 -1v-174q0 -13 -1 -19.5t-8.5 -13.5t-22.5 -7q-16 0 -23.5 6.5t-8.5 14t-1 24.5q-51 -55 -119 -55q-90 0 -154.5 91t-64.5 227q0 135 64.5 226t154.5 91q64 0 117 -48l13 32q10 16 26 16q13 0 19.5 -7t7.5 -13.5t1 -17.5v-145
q0 -13 -1 -19.5t-9 -12.5t-23 -6q-29 0 -32 25q-9 70 -41.5 104t-72.5 34q-62 0 -110.5 -74.5t-48.5 -185.5q0 -110 47.5 -184.5t110.5 -74.5q38 0 64.5 30.5t36.5 64.5t13 71h-41q-41 0 -41 29t41 29h112q41 0 41 -29zM384 710l-118 -43q-10 -3 -19 0l-118 43
q-26 10 -17 37t36 19l109 -33l109 33q27 8 36 -19t-18 -37z" />
    <glyph glyph-name="gcaron" unicode="&#x1e7;" 
d="M500 391q0 -20 -12 -29t-25 -9q-30 1 -36 32q-36 -2 -65 -18q27 -42 27 -89q0 -65 -46.5 -112t-114.5 -47q-50 0 -89 27q-7 -14 -7 -31q0 -54 58 -54h85q15 0 27.5 -1t40.5 -4.5t50 -13t44.5 -24t35 -41t12.5 -60.5q0 -63 -66 -104.5t-162 -41.5t-162 42t-66 104
q0 33 18.5 67.5t56.5 55.5q-25 28 -25 72q0 38 22 70q-33 42 -33 96q0 65 46.5 112t114.5 47q51 0 95 -31q47 37 105 37q37 0 54 -16.5t17 -35.5zM324 278q0 43 -28 73t-68 30q-38 0 -66.5 -30t-28.5 -73t28.5 -73t66.5 -30q40 0 68 30t28 73zM428 -83q0 21 -8 37t-25 25
t-32.5 15t-43 8t-43.5 2.5t-46 0.5q-54 0 -69.5 -2t-32.5 -13q-42 -26 -42 -73q0 -35 49.5 -62.5t121.5 -27.5t121.5 27.5t49.5 62.5zM355 568l-118 -75q-15 -10 -30 0l-120 76q-25 16 -9.5 40t40.5 9l103 -62l103 62q25 15 40.5 -9.5t-9.5 -40.5z" />
    <glyph glyph-name="Oogonek" unicode="&#x1ea;" 
d="M459 305q0 -75 -2 -120.5t-9.5 -84.5t-18.5 -58t-33 -32.5t-49 -17t-71 -4.5q-46 -39 -46 -98q0 -17 14.5 -28t29.5 -11q14 0 29 11.5t25 25.5q5 5 17.5 7t19.5 -2q6 -5 8 -17.5t-3 -19.5q-43 -59 -100 -59q-44 0 -71.5 30t-27.5 65q0 49 48 97q-46 1 -73.5 9.5t-47 25.5
t-28 56t-12 89t-3.5 137q0 58 1 97t5.5 74.5t9.5 56.5t17 39t25 26.5t36 14.5t47 7.5t61 1.5t61 -1.5t47 -7.5t36 -14.5t25 -26.5t17 -39t9.5 -57t5.5 -74.5t1 -97.5zM394 314q0 139 -12 186q-10 39 -37 52t-88 13q-63 0 -89.5 -13.5t-36.5 -54.5q-11 -48 -11 -183
q0 -147 13 -198q9 -37 34.5 -53.5t89.5 -16.5q66 0 91.5 17t34.5 58q11 54 11 193z" />
    <glyph glyph-name="oogonek" unicode="&#x1eb;" 
d="M456 216q0 -86 -50.5 -148t-124.5 -72q-56 -40 -56 -106q0 -17 14.5 -28t29.5 -11q14 0 29 11.5t25 25.5q5 5 17.5 7t19.5 -2q6 -5 8 -17.5t-3 -19.5q-43 -59 -100 -59q-44 0 -71.5 30t-27.5 65q0 57 57 105q-70 14 -117.5 75t-47.5 144q0 93 58.5 158.5t140.5 65.5
t140.5 -65.5t58.5 -158.5zM391 223q0 68 -40 113.5t-94 45.5t-94 -45.5t-40 -113.5q0 -71 40 -121t94 -50q55 0 94.5 50t39.5 121z" />
    <glyph glyph-name="jcaron" unicode="&#x1f0;" 
d="M360 -44q0 -35 -10.5 -66.5t-20 -45t-17.5 -21.5q-23 -24 -48.5 -36t-39.5 -13.5t-39 -1.5q-138 0 -138 72q0 20 13 31t28 11q39 0 39 -51q21 -5 61 -5q16 0 26 1t25 9.5t28 24.5q28 37 28 96v412h-122q-40 0 -40 29t40 29h147q25 0 32.5 -8.5t7.5 -32.5v-434zM449 568
l-118 -75q-15 -10 -30 0l-120 76q-25 16 -9.5 40t40.5 9l103 -62l103 62q25 15 40.5 -9.5t-9.5 -40.5z" />
    <glyph glyph-name="Gacute" unicode="&#x1f4;" 
d="M486 241q0 -13 -8.5 -20t-16 -8t-21.5 -1v-174q0 -13 -1 -19.5t-8.5 -13.5t-22.5 -7q-16 0 -23.5 6.5t-8.5 14t-1 24.5q-51 -55 -119 -55q-90 0 -154.5 91t-64.5 227q0 135 64.5 226t154.5 91q64 0 117 -48l13 32q10 16 26 16q13 0 19.5 -7t7.5 -13.5t1 -17.5v-145
q0 -13 -1 -19.5t-9 -12.5t-23 -6q-29 0 -32 25q-9 70 -41.5 104t-72.5 34q-62 0 -110.5 -74.5t-48.5 -185.5q0 -110 47.5 -184.5t110.5 -74.5q38 0 64.5 30.5t36.5 64.5t13 71h-41q-41 0 -41 29t41 29h112q41 0 41 -29zM362 777q0 -21 -26 -33l-146 -69q-16 0 -25.5 9
t-11 15.5t-1.5 11.5q0 17 22 28l149 71q39 0 39 -33z" />
    <glyph glyph-name="gacute" unicode="&#x1f5;" 
d="M500 391q0 -20 -12 -29t-25 -9q-30 1 -36 32q-36 -2 -65 -18q27 -42 27 -89q0 -65 -46.5 -112t-114.5 -47q-50 0 -89 27q-7 -14 -7 -31q0 -54 58 -54h85q15 0 27.5 -1t40.5 -4.5t50 -13t44.5 -24t35 -41t12.5 -60.5q0 -63 -66 -104.5t-162 -41.5t-162 42t-66 104
q0 33 18.5 67.5t56.5 55.5q-25 28 -25 72q0 38 22 70q-33 42 -33 96q0 65 46.5 112t114.5 47q51 0 95 -31q47 37 105 37q37 0 54 -16.5t17 -35.5zM324 278q0 43 -28 73t-68 30q-38 0 -66.5 -30t-28.5 -73t28.5 -73t66.5 -30q40 0 68 30t28 73zM428 -83q0 21 -8 37t-25 25
t-32.5 15t-43 8t-43.5 2.5t-46 0.5q-54 0 -69.5 -2t-32.5 -13q-42 -26 -42 -73q0 -35 49.5 -62.5t121.5 -27.5t121.5 27.5t49.5 62.5zM326 590q0 -21 -26 -33l-146 -69q-16 0 -25.5 9t-11 15.5t-1.5 11.5q0 17 22 28l149 71q39 0 39 -33z" />
    <glyph glyph-name="Aringacute" unicode="&#x1fa;" 
d="M487 29q0 -29 -41 -29h-96q-41 0 -41 29q0 20 13 24.5t42 4.5l-26 112h-162l-26 -112q20 0 29 -1t17.5 -7.5t8.5 -20.5q0 -29 -41 -29h-96q-41 0 -41 29q0 20 12.5 24.5t43.5 4.5l124 531q5 23 15 29.5t35 6.5q15 0 22.5 -1t16 -9.5t12.5 -25.5l123 -531q21 0 30.5 -1
t17.5 -7.5t8 -20.5zM325 228l-51 229q-14 62 -17 85h-1q-5 -49 -67 -314h136zM302 697q0 14 -12 24t-33 10t-33 -10t-12 -24t12 -24t33 -10t33 10t12 24zM352 697q0 -29 -27.5 -50.5t-67.5 -21.5t-67.5 21.5t-27.5 50.5t27.5 50.5t67.5 21.5t67.5 -21.5t27.5 -50.5zM362 891
q0 -21 -26 -33l-146 -69q-16 0 -25.5 9t-11 15.5t-1.5 11.5q0 17 22 28l149 71q39 0 39 -33z" />
    <glyph glyph-name="aringacute" unicode="&#x1fb;" 
d="M509 29q0 -14 -8 -20.5t-16 -7.5t-24 -1q-87 0 -108 35q-59 -41 -146 -41q-68 0 -112 38t-44 93q0 82 114 121q69 22 179 26q0 19 -1 29.5t-9.5 26.5t-25.5 29q-33 25 -90 25q-25 0 -37 -1q-22 -2 -22 -8q0 -19 -10 -30t-17 -12.5t-13 -1.5q-17 0 -29 11.5t-12 30.5
q0 69 139 69q94 0 143 -46.5t49 -109.5v-218q19 -8 60 -8q40 0 40 -29zM344 132v86q-95 0 -161.5 -25t-66.5 -68q0 -31 29 -52t73 -21q50 0 85 17q19 9 28.5 20.5t11 19.5t1.5 23zM302 566q0 14 -12 24t-33 10t-33 -10t-12 -24t12 -24t33 -10t33 10t12 24zM352 566
q0 -29 -27.5 -50.5t-67.5 -21.5t-67.5 21.5t-27.5 50.5t27.5 50.5t67.5 21.5t67.5 -21.5t27.5 -50.5zM362 760q0 -21 -26 -33l-146 -69q-16 0 -25.5 9t-11 15.5t-1.5 11.5q0 17 22 28l149 71q39 0 39 -33z" />
    <glyph glyph-name="AEacute" unicode="&#x1fc;" 
d="M490 41q0 -24 -8 -32.5t-32 -8.5h-189q-40 0 -40 29t38 29v128h-108l-25 -128q44 0 44 -29t-41 -29h-66q-41 0 -41 29q0 13 8.5 20t16 8t21.5 1l100 495q-38 0 -38 29t40 29h272q25 0 32.5 -8.5t7.5 -32.5v-66q0 -41 -28 -41t-28 41v49h-111v-207h111q40 0 40 -29
t-40 -29h-111v-230h119v64q0 41 28 41t28 -41v-81zM259 244v309h-34l-62 -309h96zM362 777q0 -21 -26 -33l-146 -69q-16 0 -25.5 9t-11 15.5t-1.5 11.5q0 17 22 28l149 71q39 0 39 -33z" />
    <glyph glyph-name="aeacute" unicode="&#x1fd;" 
d="M494 109q0 -15 -9.5 -39.5t-37.5 -50t-66 -25.5q-34 0 -63.5 20.5t-47.5 48.5q-17 -30 -52 -49.5t-75 -19.5q-51 0 -81.5 37.5t-30.5 83.5q0 50 46.5 88t151.5 42v37q0 47 -20.5 73.5t-56.5 26.5q-9 0 -29 -2q0 -51 -39 -51q-17 0 -29 11.5t-12 30.5q0 27 25 48t86 21
q76 0 112 -71q44 71 106 71q52 0 87 -52.5t35 -153.5q0 -25 -7 -33.5t-33 -8.5h-168q6 -63 35 -101.5t62 -38.5q39 0 55 60q4 25 28 25q12 0 20 -8.5t8 -19.5zM437 247q-1 64 -20 99.5t-45 35.5q-29 0 -54.5 -37.5t-30.5 -97.5h150zM229 141v48q-66 -1 -104 -21.5t-38 -51.5
q0 -25 17.5 -44.5t44.5 -19.5q34 0 61 24q19 20 19 65zM362 590q0 -21 -26 -33l-146 -69q-16 0 -25.5 9t-11 15.5t-1.5 11.5q0 17 22 28l149 71q39 0 39 -33z" />
    <glyph glyph-name="Oslashacute" unicode="&#x1fe;" 
d="M459 305q0 -58 -1 -97t-5.5 -74.5t-9.5 -56.5t-17 -39t-25 -26.5t-36 -14.5t-47 -7.5t-61 -1.5q-43 0 -71 2l-14 -44q-3 -10 -5.5 -15t-9 -10t-15.5 -5q-14 0 -22 8.5t-8 19.5q0 1 4 14.5t8.5 28t5.5 17.5q-33 13 -48 44t-22 98q-5 48 -5 160q0 58 1 97t5.5 74.5
t9.5 56.5t17 39t25 26.5t36 14.5t47 7.5t61 1.5q43 0 71 -2l14 44q3 10 5.5 15t9 10t15.5 5q14 0 22 -8.5t8 -19.5q0 -1 -4 -14.5t-8.5 -28t-5.5 -17.5q33 -13 48 -44t22 -98q5 -48 5 -160zM309 563q-17 2 -52 2q-64 0 -93.5 -13t-40.5 -57q-12 -51 -12 -190
q0 -95 6.5 -148.5t13 -65.5t19.5 -22zM403 306q0 95 -6.5 148.5t-13 65.5t-19.5 22l-159 -494q17 -2 52 -2q64 0 93.5 13t40.5 57q12 51 12 190zM349 777q0 -21 -26 -33l-146 -69q-16 0 -25.5 9t-11 15.5t-1.5 11.5q0 17 22 28l149 71q39 0 39 -33z" />
    <glyph glyph-name="oslashacute" unicode="&#x1ff;" 
d="M472 541q0 -8 -8 -22l-73 -128q80 -71 80 -175q0 -93 -63 -157.5t-151 -64.5q-41 0 -83 17l-75 -131q-9 -19 -27 -19q-14 0 -22 9t-8 20q0 7 17 36l65 115q-81 70 -81 175q0 92 63 158t151 66q39 0 78 -15l5 -2q2 1 8 11l65 115q12 21 29 21q14 0 22 -9t8 -20zM312 372
q-27 10 -55 10q-65 0 -111.5 -49t-46.5 -117q0 -76 54 -124zM415 216q0 34 -13 64.5t-25 44t-15 13.5q-2 -1 -7 -9l-152 -267q26 -10 54 -10q65 0 111.5 47.5t46.5 116.5zM357 590q0 -21 -26 -33l-146 -69q-16 0 -25.5 9t-11 15.5t-1.5 11.5q0 17 22 28l149 71q39 0 39 -33z
" />
    <glyph glyph-name="Adblgrave" unicode="&#x200;" 
d="M487 29q0 -29 -41 -29h-96q-41 0 -41 29q0 20 13 24.5t42 4.5l-26 112h-162l-26 -112q20 0 29 -1t17.5 -7.5t8.5 -20.5q0 -29 -41 -29h-96q-41 0 -41 29q0 20 12.5 24.5t43.5 4.5l124 531q5 23 15 29.5t35 6.5q15 0 22.5 -1t16 -9.5t12.5 -25.5l123 -531q21 0 30.5 -1
t17.5 -7.5t8 -20.5zM325 228l-51 229q-14 62 -17 85h-1q-5 -49 -67 -314h136zM391 687q-9 -11 -22.5 -12t-24.5 8l-83 72q-11 8 -12 21.5t8 24.5t22.5 12t24.5 -8l83 -72q11 -8 12 -21.5t-8 -24.5zM201 687q-9 -11 -22.5 -12t-24.5 8l-83 72q-11 8 -12 21.5t8 24.5t22.5 12
t24.5 -8l83 -72q11 -8 12 -21.5t-8 -24.5z" />
    <glyph glyph-name="adblgrave" unicode="&#x201;" 
d="M509 29q0 -14 -8 -20.5t-16 -7.5t-24 -1q-87 0 -108 35q-59 -41 -146 -41q-68 0 -112 38t-44 93q0 82 114 121q69 22 179 26q0 19 -1 29.5t-9.5 26.5t-25.5 29q-33 25 -90 25q-25 0 -37 -1q-22 -2 -22 -8q0 -19 -10 -30t-17 -12.5t-13 -1.5q-17 0 -29 11.5t-12 30.5
q0 69 139 69q94 0 143 -46.5t49 -109.5v-218q19 -8 60 -8q40 0 40 -29zM344 132v86q-95 0 -161.5 -25t-66.5 -68q0 -31 29 -52t73 -21q50 0 85 17q19 9 28.5 20.5t11 19.5t1.5 23zM420 499q-9 -11 -22.5 -12t-24.5 8l-83 72q-11 8 -12 21.5t8 24.5t22.5 12t24.5 -8l83 -72
q11 -8 12 -21.5t-8 -24.5zM230 499q-9 -11 -22.5 -12t-24.5 8l-83 72q-11 8 -12 21.5t8 24.5t22.5 12t24.5 -8l83 -72q11 -8 12 -21.5t-8 -24.5z" />
    <glyph glyph-name="Edblgrave" unicode="&#x204;" 
d="M493 41q0 -24 -8 -32.5t-32 -8.5h-384q-41 0 -41 29t41 29h27v495h-27q-41 0 -41 29t41 29h362q25 0 32.5 -8.5t7.5 -32.5v-66q0 -13 -1 -20t-9 -14t-23 -7t-22.5 7.5t-8.5 14t-1 19.5v49h-245v-207h132q0 22 1 31t8.5 16t23.5 7q15 0 22.5 -7.5t8.5 -14t1 -19.5v-84
q0 -13 -1 -19.5t-8.5 -14t-22.5 -7.5q-23 0 -28 11.5t-5 42.5h-132v-230h267v64q0 13 1 20t9 14t23 7t22.5 -7.5t8.5 -14t1 -19.5v-81zM420 687q-9 -11 -22.5 -12t-24.5 8l-83 72q-11 8 -12 21.5t8 24.5t22.5 12t24.5 -8l83 -72q11 -8 12 -21.5t-8 -24.5zM230 687
q-9 -11 -22.5 -12t-24.5 8l-83 72q-11 8 -12 21.5t8 24.5t22.5 12t24.5 -8l83 -72q11 -8 12 -21.5t-8 -24.5z" />
    <glyph glyph-name="edblgrave" unicode="&#x205;" 
d="M456 109q0 -31 -46 -73t-130 -42q-93 0 -158.5 65t-65.5 159q0 92 61 157t148 65q90 0 140.5 -59.5t50.5 -151.5q0 -13 -3 -21t-9.5 -11.5t-12 -4t-15.5 -0.5h-293q8 -59 53.5 -99.5t106.5 -40.5q15 0 32 3t41.5 18.5t35.5 41.5q9 22 31 22q33 0 33 -28zM390 247
q-2 23 -7.5 43t-18.5 42.5t-38.5 36t-60.5 13.5q-50 0 -91 -37t-50 -98h266zM420 499q-9 -11 -22.5 -12t-24.5 8l-83 72q-11 8 -12 21.5t8 24.5t22.5 12t24.5 -8l83 -72q11 -8 12 -21.5t-8 -24.5zM230 499q-9 -11 -22.5 -12t-24.5 8l-83 72q-11 8 -12 21.5t8 24.5t22.5 12
t24.5 -8l83 -72q11 -8 12 -21.5t-8 -24.5z" />
    <glyph glyph-name="Idblgrave" unicode="&#x208;" 
d="M432 29q0 -29 -40 -29h-269q-40 0 -40 29t40 29h102v495h-102q-40 0 -40 29t40 29h269q40 0 40 -29t-40 -29h-102v-495h102q40 0 40 -29zM420 687q-9 -11 -22.5 -12t-24.5 8l-83 72q-11 8 -12 21.5t8 24.5t22.5 12t24.5 -8l83 -72q11 -8 12 -21.5t-8 -24.5zM230 687
q-9 -11 -22.5 -12t-24.5 8l-83 72q-11 8 -12 21.5t8 24.5t22.5 12t24.5 -8l83 -72q11 -8 12 -21.5t-8 -24.5z" />
    <glyph glyph-name="idblgrave" unicode="&#x209;" 
d="M441 29q0 -29 -40 -29h-278q-41 0 -41 29t41 29h114v315h-107q-40 0 -40 29t40 29h132q25 0 32.5 -8.5t7.5 -32.5v-332h99q40 0 40 -29zM420 499q-9 -11 -22.5 -12t-24.5 8l-83 72q-11 8 -12 21.5t8 24.5t22.5 12t24.5 -8l83 -72q11 -8 12 -21.5t-8 -24.5zM230 499
q-9 -11 -22.5 -12t-24.5 8l-83 72q-11 8 -12 21.5t8 24.5t22.5 12t24.5 -8l83 -72q11 -8 12 -21.5t-8 -24.5z" />
    <glyph glyph-name="Odblgrave" unicode="&#x20c;" 
d="M459 305q0 -58 -1 -97t-5.5 -74.5t-9.5 -56.5t-17 -39t-25 -26.5t-36 -14.5t-47 -7.5t-61 -1.5t-61 1.5t-47 7.5t-36 14.5t-25 26.5t-17 39t-9.5 57t-5.5 74.5t-1 97.5q0 58 1 97t5.5 74.5t9.5 56.5t17 39t25 26.5t36 14.5t47 7.5t61 1.5t61 -1.5t47 -7.5t36 -14.5
t25 -26.5t17 -39t9.5 -57t5.5 -74.5t1 -97.5zM394 314q0 139 -12 186q-10 39 -37 52t-88 13q-63 0 -89.5 -13.5t-36.5 -54.5q-11 -48 -11 -183q0 -147 13 -198q9 -37 34.5 -53.5t89.5 -16.5q66 0 91.5 17t34.5 58q11 54 11 193zM420 687q-9 -11 -22.5 -12t-24.5 8l-83 72
q-11 8 -12 21.5t8 24.5t22.5 12t24.5 -8l83 -72q11 -8 12 -21.5t-8 -24.5zM230 687q-9 -11 -22.5 -12t-24.5 8l-83 72q-11 8 -12 21.5t8 24.5t22.5 12t24.5 -8l83 -72q11 -8 12 -21.5t-8 -24.5z" />
    <glyph glyph-name="odblgrave" unicode="&#x20d;" 
d="M456 216q0 -93 -59 -157.5t-140 -64.5t-140 64.5t-59 157.5t58.5 158.5t140.5 65.5t140.5 -65.5t58.5 -158.5zM391 223q0 68 -40 113.5t-94 45.5t-94 -45.5t-40 -113.5q0 -71 40 -121t94 -50q55 0 94.5 50t39.5 121zM420 499q-9 -11 -22.5 -12t-24.5 8l-83 72
q-11 8 -12 21.5t8 24.5t22.5 12t24.5 -8l83 -72q11 -8 12 -21.5t-8 -24.5zM230 499q-9 -11 -22.5 -12t-24.5 8l-83 72q-11 8 -12 21.5t8 24.5t22.5 12t24.5 -8l83 -72q11 -8 12 -21.5t-8 -24.5z" />
    <glyph glyph-name="Rdblgrave" unicode="&#x210;" 
d="M512 93q0 -36 -21 -70.5t-65 -34.5q-48 0 -73 41q-13 24 -16 48.5t-3 84.5q0 26 -1 38t-6 25.5t-16 23.5q-32 28 -81 28h-79v-219h22q41 0 41 -29t-41 -29h-109q-40 0 -40 29t40 29h22v495h-22q-40 0 -40 29t40 29h170q85 0 138 -50.5t53 -116.5q0 -41 -22.5 -78.5
t-62.5 -61.5q35 -26 49 -58q7 -18 8.5 -32t1.5 -67q0 -28 0.5 -41t3 -30t8 -23.5t15.5 -6.5q11 0 16 17t5 30q0 33 32 33q33 0 33 -33zM360 444q0 41 -36 75t-100 34h-73v-218h73q64 0 100 34t36 75zM391 687q-9 -11 -22.5 -12t-24.5 8l-83 72q-11 8 -12 21.5t8 24.5
t22.5 12t24.5 -8l83 -72q11 -8 12 -21.5t-8 -24.5zM201 687q-9 -11 -22.5 -12t-24.5 8l-83 72q-11 8 -12 21.5t8 24.5t22.5 12t24.5 -8l83 -72q11 -8 12 -21.5t-8 -24.5z" />
    <glyph glyph-name="rdblgrave" unicode="&#x211;" 
d="M478 378q0 -17 -11 -28t-28 -11q-6 0 -12.5 2t-15.5 11.5t-10 25.5q-5 1 -16 1q-68 0 -118.5 -52.5t-50.5 -137.5v-131h105q40 0 40 -29t-40 -29h-246q-40 0 -40 29t40 29h76v315h-76q-40 0 -40 29t40 29h101q25 0 32.5 -8.5t7.5 -32.5v-39q71 86 170 86q92 0 92 -59z
M420 499q-9 -11 -22.5 -12t-24.5 8l-83 72q-11 8 -12 21.5t8 24.5t22.5 12t24.5 -8l83 -72q11 -8 12 -21.5t-8 -24.5zM230 499q-9 -11 -22.5 -12t-24.5 8l-83 72q-11 8 -12 21.5t8 24.5t22.5 12t24.5 -8l83 -72q11 -8 12 -21.5t-8 -24.5z" />
    <glyph glyph-name="Udblgrave" unicode="&#x214;" 
d="M507 582q0 -29 -41 -29h-27v-350q0 -90 -53.5 -152.5t-128.5 -62.5t-128.5 62.5t-53.5 152.5v350h-27q-41 0 -41 29t41 29h119q41 0 41 -29t-41 -29h-27v-344q0 -75 36.5 -119t80.5 -44t80.5 43.5t36.5 119.5v344h-27q-41 0 -41 29t41 29h119q41 0 41 -29zM420 687
q-9 -11 -22.5 -12t-24.5 8l-83 72q-11 8 -12 21.5t8 24.5t22.5 12t24.5 -8l83 -72q11 -8 12 -21.5t-8 -24.5zM230 687q-9 -11 -22.5 -12t-24.5 8l-83 72q-11 8 -12 21.5t8 24.5t22.5 12t24.5 -8l83 -72q11 -8 12 -21.5t-8 -24.5z" />
    <glyph glyph-name="udblgrave" unicode="&#x215;" 
d="M499 29q0 -29 -40 -29h-66q-12 0 -19 1t-14.5 9.5t-7.5 25.5q-49 -42 -119 -42q-137 0 -137 120v259h-41q-40 0 -40 29t40 29h66q25 0 32.5 -8.5t7.5 -32.5v-271q0 -16 1.5 -24.5t8 -20t24 -17t45.5 -5.5q43 0 78 24.5t35 79.5v217h-41q-40 0 -40 29t40 29h66
q25 0 32.5 -8.5t7.5 -32.5v-332h41q40 0 40 -29zM420 499q-9 -11 -22.5 -12t-24.5 8l-83 72q-11 8 -12 21.5t8 24.5t22.5 12t24.5 -8l83 -72q11 -8 12 -21.5t-8 -24.5zM230 499q-9 -11 -22.5 -12t-24.5 8l-83 72q-11 8 -12 21.5t8 24.5t22.5 12t24.5 -8l83 -72
q11 -8 12 -21.5t-8 -24.5z" />
    <glyph glyph-name="uni0218" unicode="&#x218;" 
d="M463 164q0 -70 -51.5 -123t-132.5 -53q-101 0 -165 50q-10 -34 -15 -42t-20 -8q-13 0 -19.5 7t-7.5 13.5t-1 17.5v138q0 13 1 19.5t9 13t23 6.5q14 0 21.5 -5.5t8.5 -11t2 -15.5q4 -63 49 -94t114 -31q56 0 89 35t33 79q0 41 -28 75q-18 20 -37.5 27.5t-79.5 21.5
q-83 20 -108.5 30.5t-55.5 40.5q-41 41 -41 104q0 67 52 115.5t130 48.5q84 0 141 -50q10 34 15 42t20 8q13 0 19.5 -7t7.5 -13.5t1 -17.5v-139q0 -13 -1 -19.5t-9 -12.5t-23 -6q-19 0 -24.5 7t-8.5 25q-19 125 -139 125q-51 0 -85 -30.5t-34 -71.5q0 -32 21 -57.5t53 -37.5
l70 -17q81 -19 106.5 -29.5t53.5 -39.5l3 -4q3 -3 5.5 -6.5t7 -10t8.5 -13.5t8 -17t7 -20t5 -22t2 -25zM316 -107q0 -53 -35.5 -85.5t-58.5 -32.5q-9 0 -16.5 7.5t-7.5 15.5q0 16 18 19q48 17 56 65q-8 -3 -14 -3q-18 0 -30 12t-12 31q0 16 11.5 29t30.5 13q25 0 41.5 -20.5
t16.5 -50.5z" />
    <glyph glyph-name="uni0219" unicode="&#x219;" 
d="M449 124q0 -8 -1 -17.5t-11 -32t-27.5 -38.5t-55.5 -29t-90 -13q-79 0 -129 41q-10 -28 -17.5 -34.5t-18.5 -6.5q-13 0 -19.5 7t-7.5 13.5t-1 17.5v103q0 13 1 19.5t9 13t23 6.5q17 0 22.5 -5.5t10.5 -19.5q15 -52 46 -74.5t81 -22.5q65 0 96 20.5t31 51.5
q0 16 -9.5 28.5t-20.5 19.5t-31 13.5t-29.5 8.5t-28.5 5q-110 17 -143 36q-58 32 -58 88q0 16 6.5 33t24 37.5t57.5 33.5t97 13q66 0 106 -24q6 24 30 24q13 0 19.5 -7t7.5 -13.5t1 -17.5v-76q0 -13 -1 -19.5t-9 -12.5t-23 -6q-30 0 -32 23q-1 14 -3.5 23t-11.5 22t-31 19.5
t-55 6.5q-65 0 -95 -17.5t-30 -41.5q0 -15 9 -25.5t33.5 -18.5t43.5 -12t62 -11q172 -25 172 -132zM316 -107q0 -53 -35.5 -85.5t-58.5 -32.5q-9 0 -16.5 7.5t-7.5 15.5q0 16 18 19q48 17 56 65q-8 -3 -14 -3q-18 0 -30 12t-12 31q0 16 11.5 29t30.5 13q25 0 41.5 -20.5
t16.5 -50.5z" />
    <glyph glyph-name="uni021A" unicode="&#x21a;" 
d="M488 504q0 -13 -1 -20t-9 -14t-23 -7t-22.5 7.5t-8.5 14t-1 19.5v49h-133v-495h48q40 0 40 -29t-40 -29h-161q-40 0 -40 29t40 29h48v495h-134v-49q0 -13 -1 -20t-9 -14t-23 -7t-22.5 7.5t-8.5 14t-1 19.5v66q0 25 8 33t33 8h381q25 0 32.5 -8.5t7.5 -32.5v-66zM316 -107
q0 -53 -35.5 -85.5t-58.5 -32.5q-9 0 -16.5 7.5t-7.5 15.5q0 16 18 19q48 17 56 65q-8 -3 -14 -3q-18 0 -30 12t-12 31q0 16 11.5 29t30.5 13q25 0 41.5 -20.5t16.5 -50.5z" />
    <glyph glyph-name="uni021B" unicode="&#x21b;" 
d="M440 123q0 -36 -16 -63t-41 -40.5t-49 -19.5t-47 -6q-59 0 -97.5 31t-38.5 96v252h-86q-40 0 -40 29t41 29h85v82q0 13 1 19.5t9 14t23 7.5t22.5 -7.5t8.5 -14t1 -19.5v-82h162q40 0 40 -29t-40 -29h-162v-247q0 -14 1.5 -22.5t8 -22.5t24 -21.5t44.5 -7.5q16 0 32 4.5
t32.5 21.5t16.5 44q0 14 1 21t8.5 14.5t22.5 7.5t23 -7t9 -14t1 -21zM316 -107q0 -53 -35.5 -85.5t-58.5 -32.5q-9 0 -16.5 7.5t-7.5 15.5q0 16 18 19q48 17 56 65q-8 -3 -14 -3q-18 0 -30 12t-12 31q0 16 11.5 29t30.5 13q25 0 41.5 -20.5t16.5 -50.5z" />
    <glyph glyph-name="uni0237" unicode="&#x237;" 
d="M360 -44q0 -35 -10.5 -66.5t-20 -45t-17.5 -21.5q-23 -24 -48.5 -36t-39.5 -13.5t-39 -1.5q-138 0 -138 72q0 20 13 31t28 11q39 0 39 -51q21 -5 61 -5q16 0 26 1t25 9.5t28 24.5q28 37 28 96v412h-122q-40 0 -40 29t40 29h147q25 0 32.5 -8.5t7.5 -32.5v-434z" />
    <glyph glyph-name="ereversed" unicode="&#x258;" 
d="M456 218q0 -94 -65.5 -159t-158.5 -65q-84 0 -130 42t-46 73q0 28 33 28q22 0 31 -22q11 -26 35.5 -41.5t41.5 -18.5t32 -3q61 0 106.5 40.5t53.5 99.5h-293q-10 0 -15.5 0.5t-12 4t-9.5 11.5t-3 21q0 92 50.5 151.5t140.5 59.5q87 0 148 -65t61 -157zM388 247
q-9 61 -50 98t-91 37q-35 0 -60.5 -13.5t-38.5 -36t-18.5 -42.5t-7.5 -43h266z" />
    <glyph glyph-name="schwa" unicode="&#x259;" 
d="M456 216q0 -92 -61 -157t-148 -65q-90 0 -140.5 59.5t-50.5 151.5q0 13 3 21t9.5 11.5t12 4t15.5 0.5h293q-8 59 -53.5 99.5t-106.5 40.5q-15 0 -32 -3t-41.5 -18.5t-35.5 -41.5q-9 -22 -31 -22q-33 0 -33 28q0 31 46 73t130 42q93 0 158.5 -65t65.5 -159zM388 187h-266
q2 -23 7.5 -43t18.5 -42.5t38.5 -36t60.5 -13.5q50 0 91 37t50 98z" />
    <glyph glyph-name="ringhalfright" unicode="&#x2be;" 
d="M394 401q0 -25 -8.5 -51t-26 -51.5t-50.5 -41.5t-76 -16q-106 0 -106 53q0 16 10 25.5t24 9.5q29 0 33 -31q14 -5 39 -5q56 0 80 35.5t24 72.5q0 45 -30 75.5t-72 30.5q-43 0 -59 -38q-6 -19 -28 -19q-28 0 -28 24q0 6 5.5 18.5t18 28t38.5 27t60 11.5q64 0 108 -46.5
t44 -111.5z" />
    <glyph glyph-name="ringhalfleft" unicode="&#x2bf;" 
d="M394 326q0 -6 -5.5 -18.5t-18 -28t-38.5 -27t-60 -11.5q-64 0 -108 46.5t-44 111.5q0 25 8.5 51t26 51.5t50.5 41.5t76 16q106 0 106 -53q0 -16 -10 -25.5t-24 -9.5q-29 0 -33 31q-14 5 -39 5q-56 0 -80 -35.5t-24 -72.5q0 -45 30 -75.5t72 -30.5q43 0 59 38q6 19 28 19
q28 0 28 -24z" />
    <glyph glyph-name="circumflex" unicode="&#x2c6;" 
d="M391 542q25 -16 9.5 -40t-40.5 -9l-103 62l-103 -62q-25 -15 -40.5 9.5t9.5 40.5l118 75q15 10 30 0z" />
    <glyph glyph-name="caron" unicode="&#x2c7;" horiz-adv-x="514" 
d="M391 568l-118 -75q-15 -10 -30 0l-120 76q-25 16 -9.5 40t40.5 9l103 -62l103 62q25 15 40.5 -9.5t-9.5 -40.5z" />
    <glyph glyph-name="breve" unicode="&#x2d8;" 
d="M429 581q0 -23 -12.5 -39.5t-28.5 -24.5t-44 -12t-44 -4.5t-43 -0.5t-43 0.5t-44 4.5t-44 12t-28.5 24.5t-12.5 39.5q0 16 9 23.5t20 7.5q24 0 29 -24q2 -11 6.5 -15.5t30 -8.5t77.5 -4q61 0 86.5 5t27.5 20q5 27 29 27q11 0 20 -7.5t9 -23.5z" />
    <glyph glyph-name="dotaccent" unicode="&#x2d9;" 
d="M302 556q0 -19 -13 -32t-32 -13t-32 13t-13 32t13 32t32 13t32 -13t13 -32z" />
    <glyph glyph-name="ring" unicode="&#x2da;" 
d="M302 566q0 14 -12 24t-33 10t-33 -10t-12 -24t12 -24t33 -10t33 10t12 24zM352 566q0 -29 -27.5 -50.5t-67.5 -21.5t-67.5 21.5t-27.5 50.5t27.5 50.5t67.5 21.5t67.5 -21.5t27.5 -50.5z" />
    <glyph glyph-name="ogonek" unicode="&#x2db;" 
d="M355 -144q-43 -59 -100 -59q-44 0 -71.5 30t-27.5 65q0 33 22.5 66.5t54.5 53.5h72q-40 -13 -65 -46.5t-25 -75.5q0 -17 14.5 -28t29.5 -11q14 0 29 11.5t25 25.5q5 5 17.5 7t19.5 -2q6 -5 8 -17.5t-3 -19.5z" />
    <glyph glyph-name="tilde" unicode="&#x2dc;" 
d="M428 585q0 -18 -48 -54q-42 -34 -77 -34q-36 0 -73 43q-11 13 -21 13q-11 0 -28 -10.5t-29 -20.5l-11 -11q-12 -14 -26 -14q-11 0 -20 9t-9 20q0 18 48 54q42 34 77 34q36 0 73 -43q11 -13 21 -13q11 0 28 10.5t29 21.5l11 10q12 14 26 14q11 0 20 -9t9 -20z" />
    <glyph glyph-name="hungarumlaut" unicode="&#x2dd;" 
d="M229 613q9 -11 8 -24.5t-12 -21.5l-83 -72q-11 -9 -24.5 -8t-22.5 12t-8 24.5t12 21.5l83 72q11 9 24.5 8t22.5 -12zM419 613q9 -11 8 -24.5t-12 -21.5l-83 -72q-11 -9 -24.5 -8t-22.5 12t-8 24.5t12 21.5l83 72q11 9 24.5 8t22.5 -12z" />
    <glyph glyph-name="uni0300" unicode="&#x300;" horiz-adv-x="0" 
d="M-152 524q0 -5 -1.5 -11.5t-11 -15.5t-25.5 -9l-146 69q-26 12 -26 33q0 33 39 33l149 -71q22 -11 22 -28z" />
    <glyph glyph-name="uni0301" unicode="&#x301;" horiz-adv-x="0" 
d="M-153 590q0 -21 -26 -33l-146 -69q-16 0 -25.5 9t-11 15.5t-1.5 11.5q0 17 22 28l149 71q39 0 39 -33z" />
    <glyph glyph-name="uni0302" unicode="&#x302;" horiz-adv-x="0" 
d="M-124 542q25 -16 9.5 -40t-40.5 -9l-103 62l-103 -62q-25 -15 -40.5 9.5t9.5 40.5l118 75q15 10 30 0z" />
    <glyph glyph-name="uni0303" unicode="&#x303;" horiz-adv-x="0" 
d="M-87 585q0 -18 -48 -54q-43 -34 -77 -34q-36 0 -73 43q-11 13 -21 13q-11 0 -28 -10.5t-28 -20.5l-12 -11q-12 -14 -26 -14q-11 0 -20 9t-9 20q0 18 48 54q43 34 77 34q36 0 73 -43q11 -13 21 -13q11 0 28 10.5t28 21.5l12 10q12 14 26 14q11 0 20 -9t9 -20z" />
    <glyph glyph-name="uni0304" unicode="&#x304;" horiz-adv-x="0" 
d="M-72 555q0 -29 -40 -29h-291q-41 0 -41 30q0 29 40 29h292q40 0 40 -30z" />
    <glyph glyph-name="uni0306" unicode="&#x306;" horiz-adv-x="0" 
d="M-86 581q0 -23 -12.5 -39.5t-28.5 -24.5t-44 -12t-44 -4.5t-43 -0.5t-43 0.5t-44 4.5t-44 12t-28.5 24.5t-12.5 39.5q0 16 9 23.5t20 7.5q24 0 29 -24q2 -11 6.5 -15.5t30 -8.5t77.5 -4q61 0 86.5 5t27.5 20q4 27 29 27q11 0 20 -7.5t9 -23.5z" />
    <glyph glyph-name="uni0307" unicode="&#x307;" horiz-adv-x="0" 
d="M-213 556q0 -19 -13 -32t-32 -13t-32 13t-13 32t13 32t32 13t32 -13t13 -32z" />
    <glyph glyph-name="uni0308" unicode="&#x308;" horiz-adv-x="0" 
d="M-291 555q0 -17 -11.5 -28.5t-28.5 -11.5t-29 11.5t-12 28.5t12 29t29 12t28.5 -12t11.5 -29zM-142 555q0 -17 -12 -28.5t-28 -11.5q-17 0 -29 11.5t-12 28.5t12 29t29 12t28.5 -12t11.5 -29z" />
    <glyph glyph-name="uni0309" unicode="&#x309;" horiz-adv-x="0" 
d="M-161 592q0 -35 -33 -56q-46 -26 -46 -53v-18q0 -11 -7 -18t-18 -7t-18.5 7.5t-7.5 17.5v18q0 57 72 98q8 5 8 11q0 12 -10 19q-14 10 -44 10t-37 -23l1 -6q0 -11 -7 -18l-1 -1q-8 -8 -18 -8t-18 8l-1 1q-8 6 -8 18v3q1 33 27.5 55t61.5 22q47 -2 73 -19q31 -22 31 -61z
" />
    <glyph glyph-name="uni030A" unicode="&#x30a;" horiz-adv-x="0" 
d="M-213 566q0 14 -12 24t-33 10t-33 -10t-12 -24t12 -24t33 -10t33 10t12 24zM-163 566q0 -29 -27.5 -50.5t-67.5 -21.5t-67.5 21.5t-27.5 50.5t27.5 50.5t67.5 21.5t67.5 -21.5t27.5 -50.5z" />
    <glyph glyph-name="uni030B" unicode="&#x30b;" horiz-adv-x="0" 
d="M-286 613q9 -11 8 -24.5t-12 -21.5l-83 -72q-11 -9 -24.5 -8t-22.5 12t-8 24.5t12 21.5l83 72q11 9 24.5 8t22.5 -12zM-96 613q9 -11 8 -24.5t-12 -21.5l-83 -72q-11 -9 -24.5 -8t-22.5 12t-8 24.5t12 21.5l83 72q11 9 24.5 8t22.5 -12z" />
    <glyph glyph-name="uni030C" unicode="&#x30c;" horiz-adv-x="0" 
d="M-123 568l-118 -75q-15 -10 -30 0l-120 76q-25 16 -9.5 40t40.5 9l103 -62l103 62q25 15 40.5 -9.5t-9.5 -40.5z" />
    <glyph glyph-name="uni030F" unicode="&#x30f;" horiz-adv-x="0" 
d="M-95 499q-9 -11 -22.5 -12t-24.5 8l-83 72q-11 8 -12 21.5t8 24.5t22.5 12t24.5 -8l83 -72q11 -8 12 -21.5t-8 -24.5zM-285 499q-9 -11 -22.5 -12t-24.5 8l-83 72q-11 8 -12 21.5t8 24.5t22.5 12t24.5 -8l83 -72q11 -8 12 -21.5t-8 -24.5z" />
    <glyph glyph-name="uni0311" unicode="&#x311;" horiz-adv-x="0" 
d="M-86 531q0 -16 -9 -23.5t-20 -7.5q-24 0 -29 24q-2 11 -6.5 15.5t-30 8.5t-77.5 4q-61 0 -86.5 -5t-27.5 -20q-4 -27 -29 -27q-11 0 -20 7.5t-9 23.5q0 23 12.5 39.5t28.5 24.5t44 12t44 4.5t43 0.5t43 -0.5t44 -4.5t44 -12t28.5 -24.5t12.5 -39.5z" />
    <glyph glyph-name="uni0323" unicode="&#x323;" horiz-adv-x="0" 
d="M-213 -155q0 -19 -13 -32t-32 -13t-32 13t-13 32t13 32t32 13t32 -13t13 -32z" />
    <glyph glyph-name="uni0326" unicode="&#x326;" horiz-adv-x="0" 
d="M-199 -107q0 -53 -35.5 -85.5t-58.5 -32.5q-9 0 -16.5 7.5t-7.5 15.5q0 16 18 19q48 17 56 65q-7 -3 -14 -3q-18 0 -30 12t-12 31q0 16 11.5 29t30.5 13q25 0 41.5 -20.5t16.5 -50.5z" />
    <glyph glyph-name="uni032E" unicode="&#x32e;" horiz-adv-x="0" 
d="M-86 -130q0 -23 -12.5 -39.5t-28.5 -24.5t-44 -12t-44 -4.5t-43 -0.5t-43 0.5t-44 4.5t-44 12t-28.5 24.5t-12.5 39.5q0 16 9 23.5t20 7.5q24 0 29 -24q2 -11 6.5 -15.5t30 -8.5t77.5 -4q61 0 86.5 5t27.5 20q4 27 29 27q11 0 20 -7.5t9 -23.5z" />
    <glyph glyph-name="uni032F" unicode="&#x32f;" horiz-adv-x="0" 
d="M-86 -180q0 -16 -9 -23.5t-20 -7.5q-24 0 -29 24q-2 11 -6.5 15.5t-30 8.5t-77.5 4q-61 0 -86.5 -5t-27.5 -20q-4 -27 -29 -27q-11 0 -20 7.5t-9 23.5q0 23 12.5 39.5t28.5 24.5t44 12t44 4.5t43 0.5t43 -0.5t44 -4.5t44 -12t28.5 -24.5t12.5 -39.5z" />
    <glyph glyph-name="uni0330" unicode="&#x330;" horiz-adv-x="0" 
d="M-87 -125q0 -18 -48 -54q-43 -34 -77 -34q-36 0 -73 43q-11 13 -21 13q-11 0 -28 -10.5t-28 -20.5l-12 -11q-12 -14 -26 -14q-11 0 -20 9t-9 20q0 18 48 54q43 34 77 34q36 0 73 -43q11 -13 21 -13q11 0 28 10.5t28 21.5l12 10q12 14 26 14q11 0 20 -9t9 -20z" />
    <glyph glyph-name="uni0331" unicode="&#x331;" horiz-adv-x="0" 
d="M-72 -155q0 -29 -40 -29h-291q-41 0 -41 30q0 29 40 29h292q40 0 40 -30z" />
    <glyph glyph-name="uni0332" unicode="&#x332;" horiz-adv-x="0" 
d="M-72 -155q0 -29 -40 -29h-291q-41 0 -41 30q0 29 40 29h292q40 0 40 -30z" />
    <glyph glyph-name="Alpha" unicode="&#x391;" 
d="M487 29q0 -29 -41 -29h-96q-41 0 -41 29q0 20 13 24.5t42 4.5l-26 112h-162l-26 -112q20 0 29 -1t17.5 -7.5t8.5 -20.5q0 -29 -41 -29h-96q-41 0 -41 29q0 20 12.5 24.5t43.5 4.5l124 531q5 23 15 29.5t35 6.5q15 0 22.5 -1t16 -9.5t12.5 -25.5l123 -531q21 0 30.5 -1
t17.5 -7.5t8 -20.5zM325 228l-51 229q-14 62 -17 85h-1q-5 -49 -67 -314h136z" />
    <glyph glyph-name="Beta" unicode="&#x392;" 
d="M473 167q0 -65 -46 -116t-124 -51h-237q-40 0 -40 29t41 29h24v495h-24q-41 0 -41 29t40 29h217q78 0 123.5 -47.5t45.5 -107.5q0 -50 -32.5 -86t-74.5 -50q58 -13 93 -56t35 -97zM387 455q0 35 -25.5 66.5t-81.5 31.5h-124v-206h108q58 0 90.5 34t32.5 74zM408 169
q0 16 -5 34t-17 38.5t-38 34t-61 13.5h-131v-231h125q61 0 94 34.5t33 76.5z" />
    <glyph glyph-name="Gamma" unicode="&#x393;" 
d="M479 504q0 -13 -1 -20t-9 -14t-23 -7t-22.5 7.5t-8.5 14t-1 19.5v49h-241v-495h52q40 0 40 -29t-40 -29h-150q-41 0 -41 29t41 29h33v495h-33q-41 0 -41 29t41 29h364q25 0 32.5 -8.5t7.5 -32.5v-66z" />
    <glyph glyph-name="Delta" unicode="&#x394;" 
d="M481 21q-3 -21 -35 -21h-378q-35 0 -35 22q3 11 4 13l168 554q7 23 17.5 29.5t34.5 6.5t34.5 -6.5t17.5 -29.5zM401 64l-123 409l-21 73l-24 -83l-120 -399h288z" />
    <glyph glyph-name="Epsilon" unicode="&#x395;" 
d="M493 41q0 -24 -8 -32.5t-32 -8.5h-384q-41 0 -41 29t41 29h27v495h-27q-41 0 -41 29t41 29h362q25 0 32.5 -8.5t7.5 -32.5v-66q0 -13 -1 -20t-9 -14t-23 -7t-22.5 7.5t-8.5 14t-1 19.5v49h-245v-207h132q0 22 1 31t8.5 16t23.5 7q15 0 22.5 -7.5t8.5 -14t1 -19.5v-84
q0 -13 -1 -19.5t-8.5 -14t-22.5 -7.5q-23 0 -28 11.5t-5 42.5h-132v-230h267v64q0 13 1 20t9 14t23 7t22.5 -7.5t8.5 -14t1 -19.5v-81z" />
    <glyph glyph-name="Zeta" unicode="&#x396;" 
d="M472 41q0 -24 -8 -32.5t-32 -8.5h-344q-13 0 -20 1t-14 9t-7 23t9 28l327 492h-260v-49q0 -13 -1 -20t-9 -14t-23 -7t-22.5 7.5t-8.5 14t-1 19.5v66q0 25 8 33t33 8h327q13 0 20 -1t14 -9t7 -23t-9 -28l-327 -492h276v67q0 13 1 20t9 14t23 7t22.5 -7.5t8.5 -14t1 -19.5
v-84z" />
    <glyph glyph-name="Eta" unicode="&#x397;" 
d="M490 29q0 -29 -40 -29h-109q-41 0 -41 29t41 29h22v231h-212v-231h22q41 0 41 -29t-41 -29h-109q-40 0 -40 29t40 29h22v495h-22q-40 0 -40 29t40 29h109q41 0 41 -29t-41 -29h-22v-206h212v206h-22q-41 0 -41 29t41 29h109q40 0 40 -29t-40 -29h-22v-495h22q40 0 40 -29
z" />
    <glyph glyph-name="Theta" unicode="&#x398;" 
d="M459 305q0 -58 -1 -97t-5.5 -74.5t-9.5 -56.5t-17 -39t-25 -26.5t-36 -14.5t-47 -7.5t-61 -1.5t-61 1.5t-47 7.5t-36 14.5t-25 26.5t-17 39t-9.5 57t-5.5 74.5t-1 97.5q0 58 1 97t5.5 74.5t9.5 56.5t17 39t25 26.5t36 14.5t47 7.5t61 1.5t61 -1.5t47 -7.5t36 -14.5
t25 -26.5t17 -39t9.5 -57t5.5 -74.5t1 -97.5zM394 306q0 129 -10 178q-9 46 -34 63.5t-93 17.5t-93 -17.5t-34 -62.5q-10 -49 -10 -180q0 -129 10 -178q9 -46 34 -63.5t93 -17.5t93 17.5t34 62.5q10 49 10 180zM356 283q0 -12 -1 -19t-9 -14.5t-23 -7.5q-32 0 -32 31h-68
q0 -31 -32 -31q-15 0 -23 7.5t-9 14.5t-1 19v45q0 12 1 19t9 14.5t23 7.5q32 0 32 -31h68q0 31 32 31q15 0 23 -7.5t9 -14.5t1 -19v-45z" />
    <glyph glyph-name="Iota" unicode="&#x399;" 
d="M432 29q0 -29 -40 -29h-269q-40 0 -40 29t40 29h102v495h-102q-40 0 -40 29t40 29h269q40 0 40 -29t-40 -29h-102v-495h102q40 0 40 -29z" />
    <glyph glyph-name="Kappa" unicode="&#x39a;" 
d="M485 29q0 -29 -40 -29h-72q-40 0 -40 29t39 29l-139 252l-91 -116v-136h20q40 0 40 -29t-40 -29h-96q-40 0 -40 29t40 29h20v495h-20q-40 0 -40 29t40 29h96q40 0 40 -29t-40 -29h-20v-268l210 268q-40 0 -40 29t40 29h84q40 0 40 -29q0 -20 -12 -24.5t-40 -4.5
l-153 -195l165 -300q17 0 25 -1t16 -7.5t8 -20.5z" />
    <glyph glyph-name="Lambda" unicode="&#x39b;" 
d="M485 29q0 -29 -40 -29h-100q-40 0 -40 29t40 29h20l-83 363q-18 74 -24 121h-1q-10 -64 -32 -152l-76 -332h20q40 0 40 -29t-40 -29h-100q-40 0 -40 29q0 20 12 24.5t41 4.5l124 530q5 23 14.5 30t36.5 7q15 0 22.5 -1.5t16.5 -10t13 -25.5l123 -530q19 0 28 -1t17 -7.5
t8 -20.5z" />
    <glyph glyph-name="Mu" unicode="&#x39c;" 
d="M497 29q0 -29 -41 -29h-76q-41 0 -41 29q0 14 8.5 20.5t17 7.5t25.5 1v481q-1 -9 -43 -142t-53 -167q-12 -26 -37 -26q-31 0 -40 36l-71 223q-14 42 -21 78h-1v-483q17 0 25.5 -1t17 -7.5t8.5 -20.5q0 -29 -41 -29h-76q-41 0 -41 29q0 14 8.5 20.5t17 7.5t25.5 1v495
q-17 0 -25.5 1t-17 7.5t-8.5 20.5q0 29 41 29h53q37 0 48 -23q2 -3 24 -70t45.5 -145.5t27.5 -100.5h1q5 27 35 122l58 179q7 22 16.5 30t36.5 8h53q41 0 41 -29q0 -14 -8.5 -20.5t-17 -7.5t-25.5 -1v-495q17 0 25.5 -1t17 -7.5t8.5 -20.5z" />
    <glyph glyph-name="Nu" unicode="&#x39d;" 
d="M485 582q0 -29 -40 -29h-22v-512q0 -27 -8.5 -34t-33.5 -7q-14 0 -21.5 1t-17 9t-15.5 24l-149 420q-26 75 -30 88h-1v-484h22q41 0 41 -29t-41 -29h-100q-40 0 -40 29t40 29h22v495h-22q-40 0 -40 29t40 29h65q14 0 21 -1t16.5 -9t15.5 -24l149 -420q26 -75 30 -88h1
v484h-22q-41 0 -41 29t41 29h100q40 0 40 -29z" />
    <glyph glyph-name="Xi" unicode="&#x39e;" 
d="M478 556q0 -13 -1 -20t-9 -14t-23 -7t-22.5 7.5t-8.5 14t-1 18.5h-312q0 -12 -1 -18.5t-8.5 -14t-22.5 -7.5t-23 7t-9 14t-1 20v14q0 25 8 33t33 8h361q25 0 32.5 -8.5t7.5 -32.5v-14zM482 41q0 -24 -8 -32.5t-32 -8.5h-369q-25 0 -33 8t-8 33v19q0 13 1 19.5t8.5 14
t22.5 7.5t23 -7t9 -14.5t1 -23.5h320q0 16 1 23.5t9 14.5t23 7t22.5 -7.5t8.5 -14t1 -19.5v-19zM407 297q0 -13 -1 -19.5t-9 -14t-23 -7.5q-32 0 -32 34h-170q0 -34 -32 -34q-15 0 -23 7.5t-9 14t-1 19.5v42q0 13 1 19.5t9 14t23 7.5q32 0 32 -34h170q0 34 32 34
q15 0 23 -7.5t9 -14t1 -19.5v-42z" />
    <glyph glyph-name="Omicron" unicode="&#x39f;" 
d="M459 305q0 -58 -1 -97t-5.5 -74.5t-9.5 -56.5t-17 -39t-25 -26.5t-36 -14.5t-47 -7.5t-61 -1.5t-61 1.5t-47 7.5t-36 14.5t-25 26.5t-17 39t-9.5 57t-5.5 74.5t-1 97.5q0 58 1 97t5.5 74.5t9.5 56.5t17 39t25 26.5t36 14.5t47 7.5t61 1.5t61 -1.5t47 -7.5t36 -14.5
t25 -26.5t17 -39t9.5 -57t5.5 -74.5t1 -97.5zM394 314q0 139 -12 186q-10 39 -37 52t-88 13q-63 0 -89.5 -13.5t-36.5 -54.5q-11 -48 -11 -183q0 -147 13 -198q9 -37 34.5 -53.5t89.5 -16.5q66 0 91.5 17t34.5 58q11 54 11 193z" />
    <glyph glyph-name="Pi" unicode="&#x3a0;" 
d="M490 29q0 -29 -40 -29h-109q-41 0 -41 29t41 29h22v495h-212v-495h22q41 0 41 -29t-41 -29h-109q-40 0 -40 29t40 29h22v495h-22q-40 0 -40 29t40 29h386q40 0 40 -29t-40 -29h-22v-495h22q40 0 40 -29z" />
    <glyph glyph-name="Rho" unicode="&#x3a1;" 
d="M471 429q0 -71 -51.5 -126t-134.5 -55h-124v-190h27q41 0 41 -29t-41 -29h-119q-41 0 -41 29t41 29h27v495h-27q-41 0 -41 29t41 29h216q82 0 134 -54.5t52 -127.5zM406 430q0 46 -36.5 84.5t-102.5 38.5h-106v-247h106q66 0 102.5 38t36.5 86z" />
    <glyph glyph-name="Sigma" unicode="&#x3a3;" 
d="M474 41q0 -24 -8 -32.5t-32 -8.5h-353q-41 0 -41 28q0 8 9 22l145 255l-146 254q-8 15 -8 23q0 29 41 29h353q25 0 32.5 -8.5t7.5 -32.5v-66q0 -13 -1 -20t-9 -14t-23 -7t-22.5 7.5t-8.5 14t-1 19.5v49h-282l137 -240q0 -17 -7 -29l-128 -224h280v49q0 13 1 20t9 14t23 7
t22.5 -7.5t8.5 -14t1 -19.5v-68z" />
    <glyph glyph-name="Tau" unicode="&#x3a4;" 
d="M488 504q0 -13 -1 -20t-9 -14t-23 -7t-22.5 7.5t-8.5 14t-1 19.5v49h-133v-495h48q40 0 40 -29t-40 -29h-161q-40 0 -40 29t40 29h48v495h-134v-49q0 -13 -1 -20t-9 -14t-23 -7t-22.5 7.5t-8.5 14t-1 19.5v66q0 25 8 33t33 8h381q25 0 32.5 -8.5t7.5 -32.5v-66z" />
    <glyph glyph-name="Upsilon" unicode="&#x3a5;" 
d="M477 493q0 -32 -32 -32q-33 0 -33 35q0 8 -1 17.5t-5.5 25t-15 25.5t-26.5 10q-74 0 -74 -217v-299h32q41 0 41 -29t-41 -29h-129q-41 0 -41 29t41 29h32v299q0 79 -11 133q-13 84 -64 84q-44 0 -48 -82q-1 -31 -33 -31t-32 32q0 47 30.5 88.5t81.5 41.5q90 0 108 -145h1
q16 145 107 145q51 0 81.5 -41.5t30.5 -88.5z" />
    <glyph glyph-name="Phi" unicode="&#x3a6;" 
d="M474 305q0 -53 -49.5 -98.5t-134.5 -54.5v-94h38q40 0 40 -29t-40 -29h-141q-40 0 -40 29t40 29h38v94q-83 9 -134 53.5t-51 100.5q0 54 50.5 99t134.5 54v94h-38q-40 0 -40 29t40 29h141q40 0 40 -29t-40 -29h-38v-94q84 -9 134 -53.5t50 -100.5zM225 210v191
q-48 -7 -84 -33t-36 -63q0 -35 35.5 -62t84.5 -33zM409 306q0 36 -35.5 62.5t-83.5 32.5v-191q47 7 83 32.5t36 63.5z" />
    <glyph glyph-name="Chi" unicode="&#x3a7;" 
d="M486 29q0 -29 -40 -29h-95q-41 0 -41 29t44 29l-102 200l-95 -200q14 0 21.5 -1t15.5 -8t8 -20q0 -29 -40 -29h-95q-40 0 -40 29t40 29h19l133 267l-121 228h-20q-40 0 -40 29t40 29h95q40 0 40 -29t-42 -29l81 -154l75 154q-10 0 -15.5 0.5t-13.5 3t-12 9t-4 16.5
q0 29 41 29h94q41 0 41 -29t-41 -29h-18l-115 -228l142 -267h20q40 0 40 -29z" />
    <glyph glyph-name="Psi" unicode="&#x3a8;" 
d="M477 455q0 -25 -26 -29q-15 -3 -15 -59q-2 -189 -146 -214v-95h32q41 0 41 -29t-41 -29h-129q-41 0 -41 29t41 29h32v95q-41 8 -71 29t-46 51t-23 61t-7 65q0 64 -15 67q-26 4 -26 29q0 29 34 29q72 0 72 -113q0 -135 82 -158v340h-32q-41 0 -41 29t41 29h129
q41 0 41 -29t-41 -29h-32v-340q81 23 81 156q0 115 72 115q34 0 34 -29z" />
    <glyph glyph-name="Omega" unicode="&#x3a9;" 
d="M482 41q0 -24 -8 -32.5t-32 -8.5h-97q-13 0 -20 1t-14 9.5t-7 24.5q0 69 61 207q44 105 44 164q0 68 -45 113.5t-107 45.5t-107 -45.5t-45 -113.5q0 -56 44 -164q61 -140 61 -207q0 -16 -7 -24.5t-13.5 -9.5t-19.5 -1h-97q-25 0 -33 8t-8 33v21q0 41 28 41
q13 0 19.5 -8.5t7.5 -16t1 -20.5h62q-7 54 -51 146q-20 45 -29 67t-19.5 62t-10.5 73q0 92 64.5 154.5t152.5 62.5q89 0 153 -62.5t64 -154.5q0 -75 -56 -195q-47 -100 -54 -153h62q0 13 1 20.5t7.5 16t19.5 8.5q28 0 28 -41v-21z" />
    <glyph glyph-name="baht" unicode="&#xe3f;" 
d="M473 167q0 -65 -46 -116t-124 -51h-25v-58q0 -12 -8.5 -20.5t-20.5 -8.5t-20.5 8.5t-8.5 20.5v58h-154q-40 0 -40 29t41 29h24v495h-24q-41 0 -41 29t40 29h154v58q0 12 8.5 20.5t20.5 8.5t20.5 -8.5t8.5 -20.5v-58h5q78 0 123.5 -47.5t45.5 -107.5q0 -50 -32.5 -86
t-74.5 -50q58 -13 93 -56t35 -97zM387 455q0 35 -25.5 66.5t-81.5 31.5h-2v-205q51 4 80 37t29 70zM220 347v206h-64v-206h64zM408 169q0 16 -5 34t-17 38.5t-38 34t-61 13.5h-9v-231h3q61 0 94 34.5t33 76.5zM220 58v231h-64v-231h64z" />
    <glyph glyph-name="Ddotbelow" unicode="&#x1e0c;" 
d="M476 300q0 -122 -60.5 -211t-154.5 -89h-199q-40 0 -40 29t40 29h20v495h-20q-40 0 -40 29t40 29h198q96 0 156 -92.5t60 -218.5zM411 301q0 61 -17.5 116.5t-57 95.5t-94.5 40h-95v-495h96q52 0 91.5 36t58 90.5t18.5 116.5zM240 -155q0 -19 -13 -32t-32 -13t-32 13
t-13 32t13 32t32 13t32 -13t13 -32z" />
    <glyph glyph-name="ddotbelow" unicode="&#x1e0d;" 
d="M499 29q0 -29 -40 -29h-66q-28 0 -34 10t-6 45q-53 -61 -127 -61q-78 0 -133.5 64.5t-55.5 156.5q0 93 58.5 157.5t139.5 64.5q68 0 118 -50v166h-41q-40 0 -40 29t40 29h66q25 0 32.5 -8.5t7.5 -32.5v-512h41q40 0 40 -29zM353 190v78q0 41 -32.5 76t-79.5 35
q-55 0 -97 -47t-42 -117q0 -68 38 -115.5t92 -47.5q52 0 86.5 45.5t34.5 92.5zM302 -155q0 -19 -13 -32t-32 -13t-32 13t-13 32t13 32t32 13t32 -13t13 -32z" />
    <glyph glyph-name="Dlinebelow" unicode="&#x1e0e;" 
d="M476 300q0 -122 -60.5 -211t-154.5 -89h-199q-40 0 -40 29t40 29h20v495h-20q-40 0 -40 29t40 29h198q96 0 156 -92.5t60 -218.5zM411 301q0 61 -17.5 116.5t-57 95.5t-94.5 40h-95v-495h96q52 0 91.5 36t58 90.5t18.5 116.5zM381 -155q0 -29 -40 -29h-291q-41 0 -41 30
q0 29 40 29h292q40 0 40 -30z" />
    <glyph glyph-name="dlinebelow" unicode="&#x1e0f;" 
d="M499 29q0 -29 -40 -29h-66q-28 0 -34 10t-6 45q-53 -61 -127 -61q-78 0 -133.5 64.5t-55.5 156.5q0 93 58.5 157.5t139.5 64.5q68 0 118 -50v166h-41q-40 0 -40 29t40 29h66q25 0 32.5 -8.5t7.5 -32.5v-512h41q40 0 40 -29zM353 190v78q0 41 -32.5 76t-79.5 35
q-55 0 -97 -47t-42 -117q0 -68 38 -115.5t92 -47.5q52 0 86.5 45.5t34.5 92.5zM443 -155q0 -29 -40 -29h-291q-41 0 -41 30q0 29 40 29h292q40 0 40 -30z" />
    <glyph glyph-name="Hdotbelow" unicode="&#x1e24;" 
d="M490 29q0 -29 -40 -29h-109q-41 0 -41 29t41 29h22v231h-212v-231h22q41 0 41 -29t-41 -29h-109q-40 0 -40 29t40 29h22v495h-22q-40 0 -40 29t40 29h109q41 0 41 -29t-41 -29h-22v-206h212v206h-22q-41 0 -41 29t41 29h109q40 0 40 -29t-40 -29h-22v-495h22q40 0 40 -29
zM302 -155q0 -19 -13 -32t-32 -13t-32 13t-13 32t13 32t32 13t32 -13t13 -32z" />
    <glyph glyph-name="hdotbelow" unicode="&#x1e25;" 
d="M499 29q0 -29 -40 -29h-147q-40 0 -40 29t40 29h41v231q0 47 -14.5 68.5t-55.5 21.5q-46 0 -84 -36.5t-38 -103.5v-181h41q40 0 40 -29t-40 -29h-147q-40 0 -40 29t40 29h41v495h-41q-40 0 -40 29t40 29h66q25 0 32.5 -8.5t7.5 -32.5v-190q51 57 129 57q128 0 128 -144
v-235h41q40 0 40 -29zM302 -155q0 -19 -13 -32t-32 -13t-32 13t-13 32t13 32t32 13t32 -13t13 -32z" />
    <glyph glyph-name="Hdieresis" unicode="&#x1e26;" 
d="M490 29q0 -29 -40 -29h-109q-41 0 -41 29t41 29h22v231h-212v-231h22q41 0 41 -29t-41 -29h-109q-40 0 -40 29t40 29h22v495h-22q-40 0 -40 29t40 29h109q41 0 41 -29t-41 -29h-22v-206h212v206h-22q-41 0 -41 29t41 29h109q40 0 40 -29t-40 -29h-22v-495h22q40 0 40 -29
zM211 705q0 -17 -11.5 -28.5t-28.5 -11.5t-29 11.5t-12 28.5t12 29t29 12t28.5 -12t11.5 -29zM386 705q0 -17 -12 -28.5t-28 -11.5q-17 0 -29 11.5t-12 28.5t12 29t29 12t28.5 -12t11.5 -29z" />
    <glyph glyph-name="hdieresis" unicode="&#x1e27;" 
d="M499 29q0 -29 -40 -29h-147q-40 0 -40 29t40 29h41v231q0 47 -14.5 68.5t-55.5 21.5q-46 0 -84 -36.5t-38 -103.5v-181h41q40 0 40 -29t-40 -29h-147q-40 0 -40 29t40 29h41v495h-41q-40 0 -40 29t40 29h66q25 0 32.5 -8.5t7.5 -32.5v-190q51 57 129 57q128 0 128 -144
v-235h41q40 0 40 -29zM211 705q0 -17 -11.5 -28.5t-28.5 -11.5t-29 11.5t-12 28.5t12 29t29 12t28.5 -12t11.5 -29zM386 705q0 -17 -12 -28.5t-28 -11.5q-17 0 -29 11.5t-12 28.5t12 29t29 12t28.5 -12t11.5 -29z" />
    <glyph glyph-name="Hbrevebelow" unicode="&#x1e2a;" 
d="M490 29q0 -29 -40 -29h-109q-41 0 -41 29t41 29h22v231h-212v-231h22q41 0 41 -29t-41 -29h-109q-40 0 -40 29t40 29h22v495h-22q-40 0 -40 29t40 29h109q41 0 41 -29t-41 -29h-22v-206h212v206h-22q-41 0 -41 29t41 29h109q40 0 40 -29t-40 -29h-22v-495h22q40 0 40 -29
zM429 -130q0 -23 -12.5 -39.5t-28.5 -24.5t-44 -12t-44 -4.5t-43 -0.5t-43 0.5t-44 4.5t-44 12t-28.5 24.5t-12.5 39.5q0 16 9 23.5t20 7.5q24 0 29 -24q2 -11 6.5 -15.5t30 -8.5t77.5 -4q61 0 86.5 5t27.5 20q5 27 29 27q11 0 20 -7.5t9 -23.5z" />
    <glyph glyph-name="hbrevebelow" unicode="&#x1e2b;" 
d="M499 29q0 -29 -40 -29h-147q-40 0 -40 29t40 29h41v231q0 47 -14.5 68.5t-55.5 21.5q-46 0 -84 -36.5t-38 -103.5v-181h41q40 0 40 -29t-40 -29h-147q-40 0 -40 29t40 29h41v495h-41q-40 0 -40 29t40 29h66q25 0 32.5 -8.5t7.5 -32.5v-190q51 57 129 57q128 0 128 -144
v-235h41q40 0 40 -29zM429 -130q0 -23 -12.5 -39.5t-28.5 -24.5t-44 -12t-44 -4.5t-43 -0.5t-43 0.5t-44 4.5t-44 12t-28.5 24.5t-12.5 39.5q0 16 9 23.5t20 7.5q24 0 29 -24q2 -11 6.5 -15.5t30 -8.5t77.5 -4q61 0 86.5 5t27.5 20q5 27 29 27q11 0 20 -7.5t9 -23.5z" />
    <glyph glyph-name="Idieresisacute" unicode="&#x1e2e;" 
d="M432 29q0 -29 -40 -29h-269q-40 0 -40 29t40 29h102v495h-102q-40 0 -40 29t40 29h269q40 0 40 -29t-40 -29h-102v-495h102q40 0 40 -29zM211 705q0 -17 -11.5 -28.5t-28.5 -11.5t-29 11.5t-12 28.5t12 29t29 12t28.5 -12t11.5 -29zM386 705q0 -17 -12 -28.5t-28 -11.5
q-17 0 -29 11.5t-12 28.5t12 29t29 12t28.5 -12t11.5 -29zM362 911q0 -21 -26 -33l-146 -69q-16 0 -25.5 9t-11 15.5t-1.5 11.5q0 17 22 28l149 71q39 0 39 -33z" />
    <glyph glyph-name="idieresisacute" unicode="&#x1e2f;" 
d="M441 29q0 -29 -40 -29h-278q-41 0 -41 29t41 29h114v315h-107q-40 0 -40 29t40 29h132q25 0 32.5 -8.5t7.5 -32.5v-332h99q40 0 40 -29zM224 555q0 -17 -12 -28.5t-28 -11.5q-17 0 -29 11.5t-12 28.5t12 29t29 12t28.5 -12t11.5 -29zM373 555q0 -17 -11.5 -28.5
t-28.5 -11.5t-29 11.5t-12 28.5t12 29t29 12t28.5 -12t11.5 -29zM362 761q0 -21 -26 -33l-146 -69q-16 0 -25.5 9t-11 15.5t-1.5 11.5q0 17 22 28l149 71q39 0 39 -33z" />
    <glyph glyph-name="Ldotbelow" unicode="&#x1e36;" 
d="M479 41q0 -24 -8 -32.5t-32 -8.5h-364q-41 0 -41 29t41 29h33v495h-33q-41 0 -41 29t41 29h150q40 0 40 -29t-40 -29h-52v-495h241v65q0 12 1 19t9 14t23 7t22.5 -7.5t8.5 -14t1 -18.5v-82zM302 -155q0 -19 -13 -32t-32 -13t-32 13t-13 32t13 32t32 13t32 -13t13 -32z
" />
    <glyph glyph-name="ldotbelow" unicode="&#x1e37;" 
d="M452 29q0 -29 -40 -29h-309q-40 0 -40 29t40 29h122v495h-122q-40 0 -40 29t40 29h147q25 0 32.5 -8.5t7.5 -32.5v-512h122q40 0 40 -29zM302 -155q0 -19 -13 -32t-32 -13t-32 13t-13 32t13 32t32 13t32 -13t13 -32z" />
    <glyph glyph-name="Ldotbelowmacron" unicode="&#x1e38;" 
d="M479 41q0 -24 -8 -32.5t-32 -8.5h-364q-41 0 -41 29t41 29h33v495h-33q-41 0 -41 29t41 29h150q40 0 40 -29t-40 -29h-52v-495h241v65q0 12 1 19t9 14t23 7t22.5 -7.5t8.5 -14t1 -18.5v-82zM302 -155q0 -19 -13 -32t-32 -13t-32 13t-13 32t13 32t32 13t32 -13t13 -32z
M335 714q0 -29 -40 -29h-291q-41 0 -41 30q0 29 40 29h292q40 0 40 -30z" />
    <glyph glyph-name="ldotbelowmacron" unicode="&#x1e39;" 
d="M452 29q0 -29 -40 -29h-309q-40 0 -40 29t40 29h122v495h-122q-40 0 -40 29t40 29h147q25 0 32.5 -8.5t7.5 -32.5v-512h122q40 0 40 -29zM302 -155q0 -19 -13 -32t-32 -13t-32 13t-13 32t13 32t32 13t32 -13t13 -32zM400 714q0 -29 -40 -29h-291q-41 0 -41 30q0 29 40 29
h292q40 0 40 -30z" />
    <glyph glyph-name="Mdotbelow" unicode="&#x1e42;" 
d="M497 29q0 -29 -41 -29h-76q-41 0 -41 29q0 14 8.5 20.5t17 7.5t25.5 1v481q-1 -9 -43 -142t-53 -167q-12 -26 -37 -26q-31 0 -40 36l-71 223q-14 42 -21 78h-1v-483q17 0 25.5 -1t17 -7.5t8.5 -20.5q0 -29 -41 -29h-76q-41 0 -41 29q0 14 8.5 20.5t17 7.5t25.5 1v495
q-17 0 -25.5 1t-17 7.5t-8.5 20.5q0 29 41 29h53q37 0 48 -23q2 -3 24 -70t45.5 -145.5t27.5 -100.5h1q5 27 35 122l58 179q7 22 16.5 30t36.5 8h53q41 0 41 -29q0 -14 -8.5 -20.5t-17 -7.5t-25.5 -1v-495q17 0 25.5 -1t17 -7.5t8.5 -20.5zM302 -155q0 -19 -13 -32t-32 -13
t-32 13t-13 32t13 32t32 13t32 -13t13 -32z" />
    <glyph glyph-name="mdotbelow" unicode="&#x1e43;" 
d="M507 29q0 -29 -40 -29h-73q-41 0 -41 29t44 29v239q0 82 -36 82q-34 0 -57 -37.5t-23 -99.5v-184q20 0 29 -1t17 -7.5t8 -20.5q0 -29 -40 -29h-73q-41 0 -41 29t44 29v239q0 82 -36 82q-34 0 -57 -37.5t-23 -99.5v-184q20 0 29 -1t17 -7.5t8 -20.5q0 -29 -40 -29h-84
q-40 0 -40 29q0 20 12.5 24.5t41.5 4.5v315q-20 0 -29 1t-17 7.5t-8 20.5q0 29 40 29h30q12 0 18.5 -1t14 -8.5t7.5 -22.5q34 38 84 38q31 0 50 -17.5t26 -35.5q39 53 96 53q31 0 50.5 -16.5t26.5 -43.5t9 -42t2 -32v-245q20 0 29 -1t17 -7.5t8 -20.5zM302 -155
q0 -19 -13 -32t-32 -13t-32 13t-13 32t13 32t32 13t32 -13t13 -32z" />
    <glyph glyph-name="Ndotaccent" unicode="&#x1e44;" 
d="M485 582q0 -29 -40 -29h-22v-512q0 -27 -8.5 -34t-33.5 -7q-14 0 -21.5 1t-17 9t-15.5 24l-149 420q-26 75 -30 88h-1v-484h22q41 0 41 -29t-41 -29h-100q-40 0 -40 29t40 29h22v495h-22q-40 0 -40 29t40 29h65q14 0 21 -1t16.5 -9t15.5 -24l149 -420q26 -75 30 -88h1
v484h-22q-41 0 -41 29t41 29h100q40 0 40 -29zM302 710q0 -19 -13 -32t-32 -13t-32 13t-13 32t13 32t32 13t32 -13t13 -32z" />
    <glyph glyph-name="ndotaccent" unicode="&#x1e45;" 
d="M499 29q0 -29 -40 -29h-147q-40 0 -40 29t40 29h41v231q0 47 -14.5 68.5t-55.5 21.5q-46 0 -84 -36.5t-38 -103.5v-181h41q40 0 40 -29t-40 -29h-147q-40 0 -40 29t40 29h41v315h-41q-40 0 -40 29t40 29h66q28 0 34 -10t6 -41q51 57 129 57q128 0 128 -144v-235h41
q40 0 40 -29zM302 556q0 -19 -13 -32t-32 -13t-32 13t-13 32t13 32t32 13t32 -13t13 -32z" />
    <glyph glyph-name="Ndotbelow" unicode="&#x1e46;" 
d="M485 582q0 -29 -40 -29h-22v-512q0 -27 -8.5 -34t-33.5 -7q-14 0 -21.5 1t-17 9t-15.5 24l-149 420q-26 75 -30 88h-1v-484h22q41 0 41 -29t-41 -29h-100q-40 0 -40 29t40 29h22v495h-22q-40 0 -40 29t40 29h65q14 0 21 -1t16.5 -9t15.5 -24l149 -420q26 -75 30 -88h1
v484h-22q-41 0 -41 29t41 29h100q40 0 40 -29zM302 -155q0 -19 -13 -32t-32 -13t-32 13t-13 32t13 32t32 13t32 -13t13 -32z" />
    <glyph glyph-name="ndotbelow" unicode="&#x1e47;" 
d="M499 29q0 -29 -40 -29h-147q-40 0 -40 29t40 29h41v231q0 47 -14.5 68.5t-55.5 21.5q-46 0 -84 -36.5t-38 -103.5v-181h41q40 0 40 -29t-40 -29h-147q-40 0 -40 29t40 29h41v315h-41q-40 0 -40 29t40 29h66q28 0 34 -10t6 -41q51 57 129 57q128 0 128 -144v-235h41
q40 0 40 -29zM302 -155q0 -19 -13 -32t-32 -13t-32 13t-13 32t13 32t32 13t32 -13t13 -32z" />
    <glyph glyph-name="Rdotaccent" unicode="&#x1e58;" 
d="M512 93q0 -36 -21 -70.5t-65 -34.5q-48 0 -73 41q-13 24 -16 48.5t-3 84.5q0 26 -1 38t-6 25.5t-16 23.5q-32 28 -81 28h-79v-219h22q41 0 41 -29t-41 -29h-109q-40 0 -40 29t40 29h22v495h-22q-40 0 -40 29t40 29h170q85 0 138 -50.5t53 -116.5q0 -41 -22.5 -78.5
t-62.5 -61.5q35 -26 49 -58q7 -18 8.5 -32t1.5 -67q0 -28 0.5 -41t3 -30t8 -23.5t15.5 -6.5q11 0 16 17t5 30q0 33 32 33q33 0 33 -33zM360 444q0 41 -36 75t-100 34h-73v-218h73q64 0 100 34t36 75zM302 722q0 -19 -13 -32t-32 -13t-32 13t-13 32t13 32t32 13t32 -13
t13 -32z" />
    <glyph glyph-name="rdotaccent" unicode="&#x1e59;" 
d="M478 378q0 -17 -11 -28t-28 -11q-6 0 -12.5 2t-15.5 11.5t-10 25.5q-5 1 -16 1q-68 0 -118.5 -52.5t-50.5 -137.5v-131h105q40 0 40 -29t-40 -29h-246q-40 0 -40 29t40 29h76v315h-76q-40 0 -40 29t40 29h101q25 0 32.5 -8.5t7.5 -32.5v-39q71 86 170 86q92 0 92 -59z
M302 556q0 -19 -13 -32t-32 -13t-32 13t-13 32t13 32t32 13t32 -13t13 -32z" />
    <glyph glyph-name="Rdotbelow" unicode="&#x1e5a;" 
d="M512 93q0 -36 -21 -70.5t-65 -34.5q-48 0 -73 41q-13 24 -16 48.5t-3 84.5q0 26 -1 38t-6 25.5t-16 23.5q-32 28 -81 28h-79v-219h22q41 0 41 -29t-41 -29h-109q-40 0 -40 29t40 29h22v495h-22q-40 0 -40 29t40 29h170q85 0 138 -50.5t53 -116.5q0 -41 -22.5 -78.5
t-62.5 -61.5q35 -26 49 -58q7 -18 8.5 -32t1.5 -67q0 -28 0.5 -41t3 -30t8 -23.5t15.5 -6.5q11 0 16 17t5 30q0 33 32 33q33 0 33 -33zM360 444q0 41 -36 75t-100 34h-73v-218h73q64 0 100 34t36 75zM302 -155q0 -19 -13 -32t-32 -13t-32 13t-13 32t13 32t32 13t32 -13
t13 -32z" />
    <glyph glyph-name="rdotbelow" unicode="&#x1e5b;" 
d="M478 378q0 -17 -11 -28t-28 -11q-6 0 -12.5 2t-15.5 11.5t-10 25.5q-5 1 -16 1q-68 0 -118.5 -52.5t-50.5 -137.5v-131h105q40 0 40 -29t-40 -29h-246q-40 0 -40 29t40 29h76v315h-76q-40 0 -40 29t40 29h101q25 0 32.5 -8.5t7.5 -32.5v-39q71 86 170 86q92 0 92 -59z
M243 -155q0 -19 -13 -32t-32 -13t-32 13t-13 32t13 32t32 13t32 -13t13 -32z" />
    <glyph glyph-name="Rdotbelowmacron" unicode="&#x1e5c;" 
d="M512 93q0 -36 -21 -70.5t-65 -34.5q-48 0 -73 41q-13 24 -16 48.5t-3 84.5q0 26 -1 38t-6 25.5t-16 23.5q-32 28 -81 28h-79v-219h22q41 0 41 -29t-41 -29h-109q-40 0 -40 29t40 29h22v495h-22q-40 0 -40 29t40 29h170q85 0 138 -50.5t53 -116.5q0 -41 -22.5 -78.5
t-62.5 -61.5q35 -26 49 -58q7 -18 8.5 -32t1.5 -67q0 -28 0.5 -41t3 -30t8 -23.5t15.5 -6.5q11 0 16 17t5 30q0 33 32 33q33 0 33 -33zM360 444q0 41 -36 75t-100 34h-73v-218h73q64 0 100 34t36 75zM302 -155q0 -19 -13 -32t-32 -13t-32 13t-13 32t13 32t32 13t32 -13
t13 -32zM443 714q0 -29 -40 -29h-291q-41 0 -41 30q0 29 40 29h292q40 0 40 -30z" />
    <glyph glyph-name="rdotbelowmacron" unicode="&#x1e5d;" 
d="M478 378q0 -17 -11 -28t-28 -11q-6 0 -12.5 2t-15.5 11.5t-10 25.5q-5 1 -16 1q-68 0 -118.5 -52.5t-50.5 -137.5v-131h105q40 0 40 -29t-40 -29h-246q-40 0 -40 29t40 29h76v315h-76q-40 0 -40 29t40 29h101q25 0 32.5 -8.5t7.5 -32.5v-39q71 86 170 86q92 0 92 -59z
M243 -155q0 -19 -13 -32t-32 -13t-32 13t-13 32t13 32t32 13t32 -13t13 -32zM443 555q0 -29 -40 -29h-291q-41 0 -41 30q0 29 40 29h292q40 0 40 -30z" />
    <glyph glyph-name="Sdotbelow" unicode="&#x1e62;" 
d="M463 164q0 -70 -51.5 -123t-132.5 -53q-101 0 -165 50q-10 -34 -15 -42t-20 -8q-13 0 -19.5 7t-7.5 13.5t-1 17.5v138q0 13 1 19.5t9 13t23 6.5q14 0 21.5 -5.5t8.5 -11t2 -15.5q4 -63 49 -94t114 -31q56 0 89 35t33 79q0 41 -28 75q-18 20 -37.5 27.5t-79.5 21.5
q-83 20 -108.5 30.5t-55.5 40.5q-41 41 -41 104q0 67 52 115.5t130 48.5q84 0 141 -50q10 34 15 42t20 8q13 0 19.5 -7t7.5 -13.5t1 -17.5v-139q0 -13 -1 -19.5t-9 -12.5t-23 -6q-19 0 -24.5 7t-8.5 25q-19 125 -139 125q-51 0 -85 -30.5t-34 -71.5q0 -32 21 -57.5t53 -37.5
l70 -17q81 -19 106.5 -29.5t53.5 -39.5l3 -4q3 -3 5.5 -6.5t7 -10t8.5 -13.5t8 -17t7 -20t5 -22t2 -25zM302 -155q0 -19 -13 -32t-32 -13t-32 13t-13 32t13 32t32 13t32 -13t13 -32z" />
    <glyph glyph-name="sdotbelow" unicode="&#x1e63;" 
d="M449 124q0 -8 -1 -17.5t-11 -32t-27.5 -38.5t-55.5 -29t-90 -13q-79 0 -129 41q-10 -28 -17.5 -34.5t-18.5 -6.5q-13 0 -19.5 7t-7.5 13.5t-1 17.5v103q0 13 1 19.5t9 13t23 6.5q17 0 22.5 -5.5t10.5 -19.5q15 -52 46 -74.5t81 -22.5q65 0 96 20.5t31 51.5
q0 16 -9.5 28.5t-20.5 19.5t-31 13.5t-29.5 8.5t-28.5 5q-110 17 -143 36q-58 32 -58 88q0 16 6.5 33t24 37.5t57.5 33.5t97 13q66 0 106 -24q6 24 30 24q13 0 19.5 -7t7.5 -13.5t1 -17.5v-76q0 -13 -1 -19.5t-9 -12.5t-23 -6q-30 0 -32 23q-1 14 -3.5 23t-11.5 22t-31 19.5
t-55 6.5q-65 0 -95 -17.5t-30 -41.5q0 -15 9 -25.5t33.5 -18.5t43.5 -12t62 -11q172 -25 172 -132zM302 -155q0 -19 -13 -32t-32 -13t-32 13t-13 32t13 32t32 13t32 -13t13 -32z" />
    <glyph glyph-name="Tdotbelow" unicode="&#x1e6c;" 
d="M488 504q0 -13 -1 -20t-9 -14t-23 -7t-22.5 7.5t-8.5 14t-1 19.5v49h-133v-495h48q40 0 40 -29t-40 -29h-161q-40 0 -40 29t40 29h48v495h-134v-49q0 -13 -1 -20t-9 -14t-23 -7t-22.5 7.5t-8.5 14t-1 19.5v66q0 25 8 33t33 8h381q25 0 32.5 -8.5t7.5 -32.5v-66zM302 -155
q0 -19 -13 -32t-32 -13t-32 13t-13 32t13 32t32 13t32 -13t13 -32z" />
    <glyph glyph-name="tdotbelow" unicode="&#x1e6d;" 
d="M440 123q0 -36 -16 -63t-41 -40.5t-49 -19.5t-47 -6q-59 0 -97.5 31t-38.5 96v252h-86q-40 0 -40 29t41 29h85v82q0 13 1 19.5t9 14t23 7.5t22.5 -7.5t8.5 -14t1 -19.5v-82h162q40 0 40 -29t-40 -29h-162v-247q0 -14 1.5 -22.5t8 -22.5t24 -21.5t44.5 -7.5q16 0 32 4.5
t32.5 21.5t16.5 44q0 14 1 21t8.5 14.5t22.5 7.5t23 -7t9 -14t1 -21zM302 -155q0 -19 -13 -32t-32 -13t-32 13t-13 32t13 32t32 13t32 -13t13 -32z" />
    <glyph glyph-name="Tlinebelow" unicode="&#x1e6e;" 
d="M488 504q0 -13 -1 -20t-9 -14t-23 -7t-22.5 7.5t-8.5 14t-1 19.5v49h-133v-495h48q40 0 40 -29t-40 -29h-161q-40 0 -40 29t40 29h48v495h-134v-49q0 -13 -1 -20t-9 -14t-23 -7t-22.5 7.5t-8.5 14t-1 19.5v66q0 25 8 33t33 8h381q25 0 32.5 -8.5t7.5 -32.5v-66zM443 -155
q0 -29 -40 -29h-291q-41 0 -41 30q0 29 40 29h292q40 0 40 -30z" />
    <glyph glyph-name="tlinebelow" unicode="&#x1e6f;" 
d="M440 123q0 -36 -16 -63t-41 -40.5t-49 -19.5t-47 -6q-59 0 -97.5 31t-38.5 96v252h-86q-40 0 -40 29t41 29h85v82q0 13 1 19.5t9 14t23 7.5t22.5 -7.5t8.5 -14t1 -19.5v-82h162q40 0 40 -29t-40 -29h-162v-247q0 -14 1.5 -22.5t8 -22.5t24 -21.5t44.5 -7.5q16 0 32 4.5
t32.5 21.5t16.5 44q0 14 1 21t8.5 14.5t22.5 7.5t23 -7t9 -14t1 -21zM443 -155q0 -29 -40 -29h-291q-41 0 -41 30q0 29 40 29h292q40 0 40 -30z" />
    <glyph glyph-name="Wgrave" unicode="&#x1e80;" 
d="M503 582q0 -29 -36 -29l-72 -524q-2 -10 -3 -14t-4.5 -11t-11.5 -10t-20 -3q-29 0 -39 20q-4 9 -30.5 131.5t-29.5 153.5h-1q-2 -22 -16 -91.5t-27.5 -128t-14.5 -62.5q-9 -23 -40 -23q-16 0 -24.5 6.5t-10.5 12.5t-4 20l-72 523h-1q-35 0 -35 29t41 29h74q41 0 41 -29
t-41 -29h-22l51 -400q7 -57 8 -81h1q3 44 26 154t28 120q9 21 39 21q34 0 41 -26q47 -198 52 -269h1q1 24 17 157l43 324h-23q-41 0 -41 29t41 29h74q41 0 41 -29zM363 711q0 -5 -1.5 -11.5t-11 -15.5t-25.5 -9l-146 69q-26 12 -26 33q0 33 39 33l149 -71q22 -11 22 -28z
" />
    </font>
</defs>
</svg>
