<?xml version="1.0" standalone="no"?>
<!DOCTYPE svg PUBLIC "-//W3C//DTD SVG 1.1//EN" "http://www.w3.org/Graphics/SVG/1.1/DTD/svg11.dtd" >
<svg>
<metadata>
Created by FontForge 20120731 at Mon Jul 14 22:19:44 2014
 By tom,,,
Copyright 2003, 2009 B. Jackowski and J. M. Nowacki (on behalf of TeX users groups). This work is released under the GUST Font License --  see http://tug.org/fonts/licenses/GUST-FONT-LICENSE.txt for details.
</metadata>
<defs>
<font id="lmroman7-bold" horiz-adv-x="647" >
  <font-face 
    font-family="LM Roman 7"
    font-weight="700"
    font-stretch="normal"
    units-per-em="1000"
    panose-1="0 0 8 0 0 0 0 0 0 0"
    ascent="806"
    descent="-194"
    x-height="444"
    cap-height="686"
    bbox="-544 -304 1774 1146"
    underline-thickness="51"
    underline-position="-52"
    unicode-range="U+0020-FB04"
  />
<missing-glyph horiz-adv-x="280" 
 />
    <glyph glyph-name="I_J" unicode="IJ" horiz-adv-x="1097" 
d="M428 0q-50 4 -189 4q-138 0 -188 -4v56h113v574h-113v56q50 -4 189 -4q138 0 188 4v-56h-113v-574h113v-56zM1011 630h-80v-480q0 -75 -66.5 -118.5t-182.5 -43.5q-105 0 -160 34t-55 92q0 37 24.5 59.5t57.5 22.5q32 0 56.5 -21.5t24.5 -60.5q0 -42 -33 -66
q34 -14 81 -14q109 0 109 117v479h-139v56q40 -3 96 -3l110 -1l157 4v-56z" />
    <glyph glyph-name="i_j" unicode="ij" horiz-adv-x="725" 
d="M263 602q0 -33 -24 -57t-58 -24t-58 24t-24 58q0 33 24 57t58 24t58 -24t24 -58zM632 602q0 -33 -24 -57t-58 -24t-58 24t-24 58q0 33 24 57t58 24t58 -24t24 -58zM315 0q-55 4 -122 4l-126 -4v56h67v291q0 28 -10 33.5t-54 5.5v56l184 8v-394h61v-56zM631 -38
q0 -79 -62 -120.5t-139 -41.5q-69 0 -113.5 25t-44.5 74q0 29 19.5 49t50.5 20q29 0 49 -19.5t20 -49.5q0 -28 -12 -40l-4 -8q0 -5 34 -5q39 0 60.5 33t21.5 85v382q0 29 -11.5 34.5t-62.5 5.5v56l194 8v-488z" />
    <glyph glyph-name="f_k" unicode="fk" horiz-adv-x="1071" 
d="M1016 0q-48 4 -107 4l-130 -4v56q21 0 21 6q-1 2 -9 11l-126 137l-62 -44v-110h67v-56q-1 0 -9.5 0.5t-22.5 1t-30 1t-33.5 1t-31.5 0.5q-20 0 -51 -1t-54 -2l-22 -1v56h67v332h-241v-332h67v-56q-1 0 -9.5 0.5t-22.5 1t-30 1t-33.5 1t-31.5 0.5q-20 0 -51 -1t-53 -2
l-23 -1v56h67v332h-83v56h83v95q0 44 26.5 76.5t72 50t96.5 26t108 8.5q49 0 87 -9q6 -2 14 -2l77 5l-1 -452l183 131q9 6 12 9q-8 6 -20 6v56q1 0 24.5 -1t54.5 -2t50 -1q28 0 82 4v-56q-50 0 -65 -3t-27 -11l-143 -102l182 -198q14 -14 21 -15q9 -3 60 -3v-56zM483 444
v106q-28 20 -28 56q0 22 11 39l2 4q0 5 -53 5q-77 0 -122 -25q-58 -30 -58 -93v-92h248z" />
    <glyph glyph-name="f_f" unicode="ff" horiz-adv-x="762" 
d="M841 606q0 -32 -21 -50.5t-48 -18.5q-25 0 -46.5 18t-21.5 51q0 23 12 41l3 5q0 2 -11 2q-31 0 -54 -11t-33.5 -24.5t-16.5 -33t-6.5 -28.5t-0.5 -19v-94h136v-56h-129v-332h84v-56l-143 4q-21 0 -52 -1t-53 -2l-23 -1v56h67v332h-242v-332h67v-56q-1 0 -9.5 0.5t-22.5 1
t-30 1t-33.5 1t-31.5 0.5q-20 0 -51 -1t-53 -2l-23 -1v56h67v332h-83v56h83v95q0 44 27.5 77t73.5 50.5t96 25.5t105 8q88 0 134 -36q65 36 156 36q62 0 94.5 -28.5t32.5 -65.5zM484 444v93q-28 17 -28 56q0 15 6 28.5t12 18.5l5 6q-28 8 -66 8q-77 0 -127.5 -28t-50.5 -90
v-92h249z" />
    <glyph glyph-name="f_i" unicode="fi" horiz-adv-x="726" 
d="M670 0q-1 0 -9.5 0.5t-22.5 1t-30 1t-33.5 1t-31.5 0.5q-20 0 -51 -1t-54 -2l-22 -1v56h67v297q0 25 -5.5 30t-24.5 5h-211v-332h67v-56q-1 0 -9.5 0.5t-22.5 1t-30 1t-33.5 1t-31.5 0.5q-20 0 -51 -1t-53 -2l-23 -1v56h67v332h-83v56h83v95q0 45 28.5 78t75.5 50t97 25
t103 8q88 0 130.5 -37.5t42.5 -84.5q0 -32 -20 -52t-52 -20q-30 0 -50.5 20t-20.5 51q0 45 34 62q-30 15 -75 15q-14 0 -28.5 -1t-44.5 -7t-51.5 -17.5t-38.5 -35.5t-17 -57v-92h181l1 4l186 6v-398h67v-56z" />
    <glyph glyph-name="f_l" unicode="fl" horiz-adv-x="726" 
d="M670 0q-1 0 -9.5 0.5t-22.5 1t-30 1t-33.5 1t-31.5 0.5q-20 0 -51 -1t-54 -2l-22 -1v56h67v332h-241v-332h67v-56q-1 0 -9.5 0.5t-22.5 1t-30 1t-33.5 1t-31.5 0.5q-20 0 -51 -1t-53 -2l-23 -1v56h67v332h-83v56h83v95q0 44 26.5 76.5t72 50t96.5 26t108 8.5q49 0 87 -9
q6 -2 14 -2l77 5v-638h67v-56zM483 444v106q-28 20 -28 56q0 22 11 39l2 4q0 5 -53 5q-77 0 -122 -25q-58 -30 -58 -93v-92h248z" />
    <glyph glyph-name="f_f_i" unicode="&#xfb00;i" horiz-adv-x="1089" 
d="M1033 0q-1 0 -9.5 0.5t-22.5 1t-30 1t-33.5 1t-31.5 0.5q-20 0 -51 -1t-53 -2l-23 -1v56h67v297q0 25 -5 30t-25 5h-212v-332h67v-56q-1 0 -9.5 0.5t-22.5 1t-30 1t-33.5 1t-31.5 0.5q-20 0 -51 -1t-53 -2l-23 -1v56h67v332h-242v-332h67v-56q-1 0 -9.5 0.5t-22.5 1
t-30 1t-33.5 1t-31.5 0.5q-20 0 -51 -1t-53 -2l-23 -1v56h67v332h-83v56h83v95q0 44 27.5 76.5t73 50.5t95.5 26t105 8q87 0 138 -46q83 46 228 46q87 0 130 -37t43 -85q0 -32 -20 -52t-52 -20q-30 0 -50.5 20t-20.5 51q0 45 34 62q-32 15 -75 15q-15 0 -28.5 -0.5t-44 -7
t-52 -17.5t-39 -35.5t-17.5 -57.5v-92h182l1 4l186 6v-398h67v-56zM485 640q-28 14 -73 14q-14 0 -28 -0.5t-43.5 -7t-50.5 -17.5t-38 -35.5t-17 -57.5v-92h249v72q-34 18 -34 61q0 44 35 63z" />
    <glyph glyph-name="f_f_l" unicode="ffl" horiz-adv-x="1089" 
d="M1033 0q-1 0 -9.5 0.5t-22.5 1t-30 1t-33.5 1t-31.5 0.5q-20 0 -51 -1t-53 -2l-23 -1v56h67v332h-242v-332h67v-56q-1 0 -9.5 0.5t-22.5 1t-30 1t-33.5 1t-31.5 0.5q-20 0 -51 -1t-53 -2l-23 -1v56h67v332h-242v-332h67v-56q-1 0 -9.5 0.5t-22.5 1t-30 1t-33.5 1
t-31.5 0.5q-20 0 -51 -1t-53 -2l-23 -1v56h67v332h-83v56h83v95q0 44 27 76.5t72 50t96 26t107 8.5q98 0 142 -43q79 43 222 43q49 0 87 -9q6 -2 14 -2l77 5v-638h67v-56zM484 444v75q0 16 -5 21q-23 22 -23 53q0 15 5.5 28t10.5 19l6 6q-16 8 -65 8q-47 0 -84.5 -10
t-65.5 -37.5t-28 -70.5v-92h249zM846 444v106q-28 20 -28 56q0 22 11 39l2 4q0 5 -53 5q-81 0 -130 -28q-51 -31 -51 -90v-92h249z" />
    <glyph glyph-name=".notdef" horiz-adv-x="280" 
 />
    <glyph glyph-name=".null" horiz-adv-x="0" 
 />
    <glyph glyph-name="nonmarkingreturn" horiz-adv-x="333" 
 />
    <glyph glyph-name="space" unicode=" " horiz-adv-x="434" 
 />
    <glyph glyph-name="exclam" unicode="!" horiz-adv-x="397" 
d="M280 631q0 -6 -3 -27l-46 -346q-2 -18 -7 -22.5t-25 -4.5q-21 0 -26 4.5t-7 23.5l-46 345q-3 24 -3 27q0 34 24.5 54.5t57.5 20.5q31 0 56 -20.5t25 -54.5zM280 81q0 -32 -23.5 -56.5t-58.5 -24.5q-32 0 -56.5 23.5t-24.5 58.5q0 32 23.5 56.5t58.5 24.5q32 0 56.5 -23.5
t24.5 -58.5z" />
    <glyph glyph-name="quotedbl" unicode="&#x22;" horiz-adv-x="551" 
d="M245 635l-32 -216h-62l-32 216q-4 26 15 44.5t48 18.5q28 0 47.5 -18.5t15.5 -44.5zM433 635l-32 -216h-62l-32 216q-4 26 15 44.5t48 18.5q28 0 47.5 -18.5t15.5 -44.5z" />
    <glyph glyph-name="numbersign" unicode="#" horiz-adv-x="1073" 
d="M997 126q0 -37 -52 -37h-285l-86 -251q-12 -32 -37 -32q-17 0 -27 11t-10 25q0 3 17 57l66 190h-206l-86 -251q-12 -32 -37 -32q-16 0 -26.5 11t-10.5 25q0 3 17 57l66 190h-173q-52 0 -52 37q0 36 46 36h205l61 177h-266q-46 0 -46 36q0 37 52 37h286l85 250
q11 32 37 32q17 0 27 -11t10 -25q0 -8 -5 -22l-77 -224h206l85 250q11 32 37 32q16 0 26.5 -11t10.5 -25q0 -8 -5 -22l-77 -224h172q52 0 52 -37q0 -36 -46 -36h-204l-61 -177h265q46 0 46 -36zM670 339h-206l-61 -177h206z" />
    <glyph glyph-name="dollar" unicode="$" 
d="M571 212q0 -34 -10.5 -67.5t-34 -66t-69 -55.5t-106.5 -28v-51h-56v51q-111 7 -165.5 61.5t-54.5 131.5q0 38 22 55.5t48 17.5q28 0 48.5 -18.5t20.5 -51.5q0 -57 -59 -68q36 -63 140 -72v238q-38 8 -55.5 13t-46 18.5t-53.5 34.5q-65 60 -65 140q0 33 11 64.5t34.5 62.5
t68.5 51.5t106 25.5v51h56v-51q111 -6 165.5 -56t54.5 -123q0 -37 -21.5 -55t-48.5 -18q-29 0 -49 19t-20 50q0 25 14 42.5t28 22.5l13 5q-38 51 -136 57v-211q65 -11 111 -37.5t68 -60.5t31.5 -64t9.5 -58zM295 443v200q-70 -6 -100.5 -36t-30.5 -63q0 -78 131 -101z
M482 164q0 42 -35.5 73.5t-95.5 40.5v-227q60 5 95.5 36.5t35.5 76.5z" />
    <glyph glyph-name="percent" unicode="%" horiz-adv-x="1073" 
d="M890 713q0 -14 -13 -29l-627 -723q-14 -17 -31 -17q-15 0 -26 10.5t-11 26.5q0 14 13 29l524 604q-51 -17 -112 -17q-88 0 -192 41q14 -41 14 -90q0 -95 -47 -148t-118 -53q-80 0 -134.5 53t-54.5 149q0 94 54 147.5t135 53.5q31 0 51.5 -8t48.5 -26q118 -74 241 -74
q133 0 217 92q18 16 32 16t25 -10t11 -27zM997 145q0 -95 -47 -148t-118 -53q-80 0 -134.5 53t-54.5 149q0 94 54 147.5t135 53.5q70 0 117.5 -52t47.5 -150zM366 549q0 78 -29.5 116.5t-70.5 38.5q-26 0 -43 -14t-23 -42t-7.5 -47t-1.5 -52t1.5 -52.5t7.5 -47.5t23 -42
t43 -14q40 0 70 37.5t30 118.5zM934 146q0 78 -29.5 116.5t-70.5 38.5q-26 0 -43 -14t-23 -42t-7.5 -47t-1.5 -52t1.5 -52.5t7.5 -47.5t23 -42t43 -14q40 0 70 37.5t30 118.5z" />
    <glyph glyph-name="ampersand" unicode="&#x26;" horiz-adv-x="1002" 
d="M933 388h-24q-62 0 -69 -8q-3 -3 -15 -17q-1 -3 -27 -35q-38 -50 -61 -78t-63 -70t-80 -74q84 -62 156 -62q11 0 23 1.5t35 7t38 21.5t17 41h63q-2 -63 -56 -95t-126 -32q-126 0 -240 58q-105 -58 -216 -58q-97 0 -164 40.5t-67 113.5q0 61 65 109l116 84q-43 93 -43 185
q0 86 62.5 136t138.5 50q59 0 95.5 -43t36.5 -95q0 -14 -3 -25t-17 -35t-51 -59t-95 -80q60 -111 189 -226q55 45 102 98q9 10 112 140q-25 7 -64 7v56q2 0 25.5 -1t54.5 -2t50 -1q57 0 102 4v-56zM465 568q0 32 -17.5 62t-50.5 30q-31 0 -58.5 -25t-27.5 -75q0 -74 31 -147
q123 96 123 155zM449 79q-60 40 -110.5 100.5t-79.5 114.5q-63 -43 -63 -121q0 -47 27 -88t79 -41q75 0 147 35z" />
    <glyph glyph-name="quotesingle" unicode="'" horiz-adv-x="363" 
d="M245 635l-32 -216h-62l-32 216q-4 26 15 44.5t48 18.5q28 0 47.5 -18.5t15.5 -44.5z" />
    <glyph glyph-name="parenleft" unicode="(" horiz-adv-x="505" 
d="M429 -231q0 -18 -23 -18q-15 0 -46 22.5t-53 43.5q-185 182 -185 434q0 250 185 433q21 20 53 43t46 23q23 0 23 -18q0 -9 -10 -17q-72 -60 -115.5 -147.5t-57 -162.5t-13.5 -155q0 -153 48 -270t129 -187q19 -15 19 -24z" />
    <glyph glyph-name="parenright" unicode=")" horiz-adv-x="505" 
d="M382 250q0 -250 -185 -433q-21 -20 -53 -43t-46 -23q-23 0 -23 18q0 9 10 17q72 60 115.5 147.5t57 162.5t13.5 155q0 153 -48 270t-129 187q-19 15 -19 24q0 18 23 18q15 0 46 -22.5t53 -43.5q185 -182 185 -434z" />
    <glyph glyph-name="asterisk" unicode="*" 
d="M559 441q0 -22 -14.5 -38t-35.5 -16q-14 0 -28 10l-133 92l23 -122l3 -18q0 -18 -15 -30.5t-36 -12.5t-36 12.5t-15 30.5l25 139l-124 -85q-24 -16 -36 -16q-21 0 -35.5 16t-14.5 38q0 16 7 26t13.5 13t16.5 6l138 42l-138 42q-10 3 -16.5 6t-13.5 13t-7 26q0 22 14.5 38
t35.5 16q14 0 28 -10l133 -92l-23 122l-3 18q0 18 15 30.5t36 12.5t36 -12.5t15 -30.5l-26 -140l134 92q14 10 27 10q21 0 35.5 -16t14.5 -38q0 -16 -7 -26t-12.5 -12.5t-17.5 -6.5l-135 -42l100 -31q47 -14 59.5 -23t12.5 -33z" />
    <glyph glyph-name="plus" unicode="+" horiz-adv-x="1002" 
d="M926 250q0 -36 -48 -36h-341v-341q0 -48 -37 -48q-36 0 -36 48v341h-341q-48 0 -48 37q0 36 48 36h341v341q0 48 37 48q36 0 36 -48v-341h341q48 0 48 -37z" />
    <glyph glyph-name="comma" unicode="," horiz-adv-x="363" 
d="M277 34q0 -40 -11.5 -77.5t-28.5 -64t-35 -46.5t-32 -30t-20 -10q-8 0 -16.5 8.5t-8.5 16.5q0 9 11 18q82 60 94 165q-19 -14 -48 -14q-37 0 -59.5 24t-22.5 58q0 33 22 57t59 24q44 0 70 -37.5t26 -91.5z" />
    <glyph glyph-name="hyphen" unicode="-" horiz-adv-x="434" 
d="M358 167h-340v111h340v-111z" />
    <glyph glyph-name="period" unicode="." horiz-adv-x="363" 
d="M263 81q0 -32 -23.5 -56.5t-58.5 -24.5q-32 0 -56.5 23.5t-24.5 58.5q0 32 23.5 56.5t58.5 24.5q32 0 56.5 -23.5t24.5 -58.5z" />
    <glyph glyph-name="slash" unicode="/" 
d="M571 713q0 -9 -6 -22l-417 -913q-14 -28 -36 -28q-16 0 -26.5 10.5t-10.5 26.5q0 9 6 22l417 913q14 28 36 28q16 0 26.5 -10.5t10.5 -26.5z" />
    <glyph glyph-name="zero" unicode="0" 
d="M592 318q0 -48 -3.5 -84.5t-19 -85.5t-42.5 -81.5t-79.5 -55.5t-124.5 -23q-52 0 -94 12t-70 31t-48 48t-31 56t-17 63t-7.5 62t-1.5 58t1.5 57.5t7.5 62.5t16.5 65t30.5 58t47.5 49.5t70 32.5t95.5 13q73 0 126 -24.5t79.5 -58t42 -84.5t18.5 -87t3 -84zM453 331
q0 147 -11 194q-11 46 -46.5 65.5t-72.5 19.5q-38 0 -73 -19.5t-46 -63.5q-11 -48 -11 -196q0 -108 6 -165t13.5 -71.5t24.5 -28.5q37 -32 86 -32q23 0 45 7t45.5 30.5t29.5 60.5q10 56 10 199z" />
    <glyph glyph-name="one" unicode="1" 
d="M553 0q-43 3 -111 3l-108 1q-174 0 -223 -4v56h158v501q-63 -21 -143 -21h-24v56h24q145 0 224 64q33 0 41 -5t8 -30v-565h154v-56z" />
    <glyph glyph-name="two" unicode="2" 
d="M578 228l-34 -228h-476v24q0 15 2 19.5t11 13.5l238 211q110 97 110 192q0 63 -43.5 101.5t-108.5 38.5q-56 0 -94 -24q4 -1 12 -7t18 -23.5t10 -38.5q0 -37 -24 -57.5t-54 -20.5q-28 0 -52.5 20t-24.5 59q0 69 66.5 108.5t171.5 39.5q121 0 196.5 -53t75.5 -142
q0 -36 -12.5 -65.5t-41 -56.5t-49 -42t-61.5 -41q-65 -41 -169 -119h137q83 0 104 4q15 3 29 87h63z" />
    <glyph glyph-name="three" unicode="3" 
d="M589 181q0 -34 -15 -66t-45.5 -61.5t-87 -47.5t-131.5 -18q-111 0 -182 41.5t-71 115.5q0 36 22.5 59t59.5 23q36 0 58.5 -23t22.5 -58q0 -55 -47 -75q51 -32 133 -32q34 0 58.5 11.5t36 26t17.5 38t7 36t1 31.5q0 27 -3 46t-14 44t-38 39t-69 14h-53q-12 0 -17.5 1
t-10 6t-4.5 16q0 18 13 22q6 2 56 4q46 2 75 29.5t37 56t8 57.5q0 16 -2 27t-10 29t-30 27.5t-56 9.5q-68 0 -114 -34q5 -2 12 -6t16.5 -12t15.5 -22t6 -32q0 -31 -20 -53t-56 -22q-31 0 -53 20.5t-22 56.5q0 64 60 107t160 43q115 0 177.5 -40t62.5 -102q0 -59 -39 -99.5
t-100 -63.5q83 -17 129 -63.5t46 -106.5z" />
    <glyph glyph-name="four" unicode="4" 
d="M606 0q-50 4 -179 4q-142 0 -191 -4v56h124v98h-320v56l367 437q13 15 40 15h15q22 0 28.5 -6t6.5 -29v-417h109v-56h-109v-98h109v-56zM373 210v314l-264 -314h264z" />
    <glyph glyph-name="five" unicode="5" 
d="M578 201q0 -90 -75 -151.5t-210 -61.5q-99 0 -162 49t-63 120q0 36 22 55.5t52 19.5q29 0 51 -19.5t22 -54.5q0 -56 -54 -70q43 -49 128 -49q40 0 67.5 12t41 26.5t20.5 41t8 42.5t1 44q0 29 -0.5 45t-6 41t-16 38.5t-31 24t-50.5 10.5q-96 0 -151 -61q-8 -8 -25 -8
q-20 0 -24.5 7.5t-4.5 26.5v296q0 31 18 31q4 0 18 -5q81 -27 169 -27q87 0 171 28l16 4q18 0 18 -23q0 -20 -34 -50t-64 -48q-74 -44 -167 -44q-38 0 -74 5v-119q57 33 139 33q121 0 185.5 -61t64.5 -148z" />
    <glyph glyph-name="six" unicode="6" 
d="M589 206q0 -99 -71 -158.5t-191 -59.5q-67 0 -117.5 22t-79 55t-45.5 79.5t-22.5 87t-5.5 86.5q0 85 28 151.5t76 106.5t106.5 60t123.5 20q86 0 126 -39t40 -93q0 -32 -19.5 -51.5t-50.5 -19.5t-50 20t-19 49q0 49 47 67q-26 21 -72 21q-98 0 -149 -72q-40 -56 -40 -195
q50 77 140 77q109 0 177 -58t68 -156zM442 207q0 36 -1 53.5t-6.5 43.5t-16 38.5t-32 22t-53.5 9.5q-60 0 -93.5 -47.5t-33.5 -107.5q0 -26 1 -43t7 -46t18 -46t36 -31t58 -14q24 0 43 5t31 11.5t20.5 21t12.5 25t6 32t2.5 34.5t0.5 39z" />
    <glyph glyph-name="seven" unicode="7" 
d="M624 644q0 -39 -2 -42q-1 -3 -5 -9l-170 -175q-46 -47 -67.5 -120t-21.5 -191q0 -53 -2 -67.5t-14 -28.5q-23 -23 -54 -23q-4 0 -9 0.5t-17 4.5t-20.5 11.5t-15.5 23t-7 37.5q0 105 45.5 202.5t106.5 162.5q14 15 36.5 37.5t37.5 39.5h-163q-98 0 -113 -5q-19 -2 -31 -86
h-63l38 258h63q1 -8 3 -12t11.5 -8t27.5 -4q8 0 15 1l69 -3l71 -4h251z" />
    <glyph glyph-name="eight" unicode="8" 
d="M589 188q0 -88 -68.5 -144t-199.5 -56q-31 0 -59.5 2.5t-68 13t-67.5 28t-48.5 51.5t-20.5 80q0 115 132 167q-96 58 -96 148q0 78 59 128t174 50q17 0 31 -1t44 -4.5t53.5 -13.5t47.5 -25t37.5 -42.5t13.5 -62.5q0 -87 -105 -138q26 -13 41.5 -23t43 -32.5t42 -54.5
t14.5 -71zM465 506q0 50 -38 77t-107 27q-139 0 -139 -73q0 -32 46 -56l163 -82q75 41 75 107zM487 135q0 21 -13.5 38.5t-28.5 26.5t-50 27l-142 71q-94 -47 -94 -135q0 -61 45.5 -92.5t120.5 -31.5q162 0 162 96z" />
    <glyph glyph-name="nine" unicode="9" 
d="M589 328q0 -85 -26 -151t-71 -106.5t-101.5 -61.5t-120.5 -21q-92 0 -136.5 37.5t-44.5 94.5q0 32 19.5 51.5t50.5 19.5t50 -20t19 -49q0 -46 -41 -64q31 -19 81 -19q95 0 141 73q33 53 33 190q-52 -77 -140 -77q-108 0 -176.5 58t-68.5 157q0 98 73 157t195 59
q62 0 109.5 -19.5t76.5 -50.5t47 -75t24.5 -88t6.5 -95zM440 435q0 86 -17 117q-31 58 -97 58q-35 0 -59.5 -10.5t-36.5 -23.5t-18 -40t-7 -44.5t-1 -52.5q0 -36 1 -54t6.5 -44t16 -38.5t32 -22t53.5 -9.5q55 0 91 44.5t36 119.5z" />
    <glyph glyph-name="colon" unicode=":" horiz-adv-x="363" 
d="M263 362q0 -32 -23.5 -56.5t-58.5 -24.5q-32 0 -56.5 23.5t-24.5 58.5q0 32 23.5 56.5t58.5 24.5q32 0 56.5 -23.5t24.5 -58.5zM263 81q0 -32 -23.5 -56.5t-58.5 -24.5q-32 0 -56.5 23.5t-24.5 58.5q0 32 23.5 56.5t58.5 24.5q32 0 56.5 -23.5t24.5 -58.5z" />
    <glyph glyph-name="semicolon" unicode=";" horiz-adv-x="363" 
d="M263 362q0 -32 -23.5 -56.5t-58.5 -24.5q-32 0 -56.5 23.5t-24.5 58.5q0 32 23.5 56.5t58.5 24.5q32 0 56.5 -23.5t24.5 -58.5zM267 34q0 -62 -26.5 -118t-53 -83t-37.5 -27q-8 0 -16.5 8.5t-8.5 16.5t9 17q75 64 85 160q-18 -8 -37 -8q-37 0 -59.5 24t-22.5 58
q0 33 22 57t59 24q39 0 62.5 -35t23.5 -94z" />
    <glyph glyph-name="less" unicode="&#x3c;" horiz-adv-x="894" 
d="M797 -56q0 -11 -8.5 -20.5t-22.5 -9.5q-8 0 -22 7l-623 298q-25 12 -25 32t25 31l626 299q11 6 19 6q14 0 22.5 -9.5t8.5 -20.5q0 -19 -25 -32l-575 -275l575 -274q25 -12 25 -32z" />
    <glyph glyph-name="equal" unicode="=" horiz-adv-x="1002" 
d="M926 375q0 -36 -46 -36h-759q-46 0 -46 36q0 37 52 37h747q52 0 52 -37zM926 126q0 -37 -52 -37h-747q-52 0 -52 37q0 36 46 36h759q46 0 46 -36z" />
    <glyph glyph-name="greater" unicode="&#x3e;" horiz-adv-x="894" 
d="M797 251q0 -21 -25 -32l-626 -299q-10 -6 -19 -6q-14 0 -22.5 9.5t-8.5 20.5q0 20 25 32l575 275l-575 274q-25 13 -25 32q0 12 9 21t21 9q9 0 23 -7l623 -298q25 -11 25 -31z" />
    <glyph glyph-name="question" unicode="?" horiz-adv-x="612" 
d="M536 570q0 -63 -69 -100q-81 -42 -114.5 -86t-33.5 -99v-22q0 -20 -5 -26t-26 -6q-24 0 -28 6.5t-4 40.5q0 60 22.5 115t94.5 116q24 20 24 67q0 20 -2.5 31t-12 23.5t-32 18t-59.5 5.5q-70 0 -111 -23q5 -3 11.5 -8.5t14.5 -20t8 -32.5q0 -29 -19 -49t-51 -20
q-29 0 -49 19.5t-20 50.5q0 54 52 91.5t169 37.5q23 0 42 -1t59.5 -7.5t67.5 -19t49 -39t22 -63.5zM369 81q0 -32 -23.5 -56.5t-58.5 -24.5q-32 0 -56.5 23.5t-24.5 58.5q0 32 23.5 56.5t58.5 24.5q32 0 56.5 -23.5t24.5 -58.5z" />
    <glyph glyph-name="at" unicode="@" horiz-adv-x="1002" 
d="M926 83q0 -11 -8 -14q-4 -4 -54 -20.5t-153 -35.5t-206 -19q-91 0 -165 21t-122.5 55.5t-81.5 81t-47 95.5t-14 100q0 69 25.5 130.5t75.5 112t134 80.5t191 30q104 0 186.5 -28.5t133.5 -78t78 -112.5t27 -135q0 -34 -6.5 -68t-21.5 -70t-47 -59t-76 -23q-96 0 -133 44
q-58 -44 -143 -44q-118 0 -185.5 62.5t-67.5 158.5q0 95 67.5 158t185.5 63q113 0 176 -74q9 -10 25 -10h22q22 0 27.5 -5.5t5.5 -26.5v-226q0 -54 32 -54q76 0 76 171q0 141 -96.5 226t-266.5 85q-174 0 -268 -87.5t-94 -219.5q0 -57 20 -109t61 -98t114.5 -73t171.5 -27
q167 0 324 54q19 7 36 7h29q32 0 32 -18zM628 233v228q-44 61 -126 61q-57 0 -93 -45.5t-36 -129.5t36 -129.5t93 -45.5q82 0 126 61z" />
    <glyph glyph-name="A" unicode="A" horiz-adv-x="968" 
d="M916 0l-165 4q-130 0 -182 -4v56h90l-63 140h-305l-54 -121l-5 -11q0 -8 86 -8v-56l-142 4q-20 0 -50 -1t-52 -2t-23 -1v56h30q27 0 46 2q18 2 22.5 4.5t9.5 11.5l269 602q6 14 14 20t15.5 7t26.5 1q18 0 25.5 -1t15.5 -7t14 -20l278 -620h99v-56zM571 252l-128 284
l-127 -284h255z" />
    <glyph glyph-name="B" unicode="B" horiz-adv-x="914" 
d="M838 187q0 -79 -73.5 -133t-202.5 -54h-503v56h107v574h-107v56h469q125 0 199.5 -49.5t74.5 -124.5q0 -53 -46 -95t-135 -58q109 -13 163 -61.5t54 -110.5zM652 512q0 50 -34 84t-103 34h-211v-250h183q74 0 119.5 36t45.5 96zM682 189q0 14 -2 29t-11.5 37t-25 38.5
t-45.5 28.5t-70 12h-224v-278h214q81 0 122.5 39t41.5 94z" />
    <glyph glyph-name="C" unicode="C" horiz-adv-x="931" 
d="M855 228q0 -97 -94 -168.5t-243 -71.5q-211 0 -327 102t-116 253q0 152 116.5 253.5t325.5 101.5q125 0 224 -68l67 58q11 10 24 10q11 0 16 -4.5t6 -10t1 -17.5v-213q0 -22 -5 -27t-27 -5h-7q-21 0 -25.5 4t-8.5 25q-16 81 -81.5 136.5t-159.5 55.5q-132 0 -215 -64
q-88 -69 -88 -235q0 -149 71 -220q80 -79 234 -79q37 0 75 9t78 29t66.5 60t29.5 94q1 17 31 17q13 0 18.5 -1t9.5 -6.5t4 -17.5z" />
    <glyph glyph-name="D" unicode="D" horiz-adv-x="985" 
d="M909 338q0 -155 -107.5 -246.5t-275.5 -91.5h-469v56h107v574h-107v56h468q171 0 277.5 -96t106.5 -252zM753 338q0 22 -0.5 34.5t-2.5 38.5t-6.5 43.5t-14 42.5t-22.5 41.5t-34 35.5t-47 30t-62.5 18.5t-80.5 7.5h-175v-574h176q56 0 99.5 11.5t71.5 28t47.5 44t29 49
t15 55t6 50t0.5 44.5z" />
    <glyph glyph-name="E" unicode="E" horiz-adv-x="844" 
d="M803 269l-51 -269h-695v56h107v567h-107v56h677l34 -239h-63q-15 106 -62.5 144.5t-154.5 38.5h-173v-243h66q65 0 89.5 23t24.5 87h63v-276h-63q0 64 -24.5 87t-89.5 23h-66v-268h183q64 0 106.5 12.5t69 41t41 65t25.5 94.5h63z" />
    <glyph glyph-name="F" unicode="F" horiz-adv-x="809" 
d="M751 440h-63q-14 104 -59 143.5t-151 39.5h-163v-255h62q65 0 88 24t23 86h63v-276h-63q0 63 -23 86.5t-88 23.5h-62v-256h134v-56q-15 1 -52.5 2t-43.5 1l-111 1q-133 0 -185 -4v56h107v567h-107v56h660z" />
    <glyph glyph-name="G" unicode="G" horiz-adv-x="1012" 
d="M945 219h-89v-187q0 -32 -18 -32q-7 0 -41 15.5t-50 26.5q-53 -54 -221 -54q-97 0 -175.5 21.5t-129 57t-84.5 82.5t-48 95t-14 99q0 152 117 253.5t325 101.5q124 0 225 -68l67 58q11 10 24 10q11 0 16 -4.5t6 -10t1 -17.5v-213q0 -22 -5 -27t-27 -5h-7q-20 0 -25 4
t-8 20q-18 93 -86.5 145t-156.5 52q-147 0 -227 -74q-76 -72 -76 -224q0 -158 83 -229q84 -71 234 -71q43 0 73 6.5t44.5 14.5t22.5 21.5t9 20.5t1 19v93h-160v56q43 -3 108 -3l122 -1l170 4v-56z" />
    <glyph glyph-name="H" unicode="H" horiz-adv-x="1002" 
d="M944 0q-44 4 -183 4q-136 0 -182 -4v56h107v273h-371v-273h107v-56q-44 4 -183 4q-136 0 -182 -4v56h107v574h-107v56q44 -4 183 -4q136 0 182 4v-56h-107v-245h371v245h-107v56q44 -4 183 -4q136 0 182 4v-56h-107v-574h107v-56z" />
    <glyph glyph-name="I" unicode="I" horiz-adv-x="479" 
d="M428 0q-50 4 -189 4q-138 0 -188 -4v56h113v574h-113v56q50 -4 189 -4q138 0 188 4v-56h-113v-574h113v-56z" />
    <glyph glyph-name="J" unicode="J" horiz-adv-x="665" 
d="M580 630h-80v-480q0 -75 -66.5 -118.5t-182.5 -43.5q-105 0 -160 34t-55 92q0 37 24.5 59.5t57.5 22.5q32 0 56.5 -21.5t24.5 -60.5q0 -42 -33 -66q34 -14 81 -14q109 0 109 117v479h-139v56q41 -3 96 -3l110 -1l157 4v-56z" />
    <glyph glyph-name="K" unicode="K" horiz-adv-x="1003" 
d="M944 0l-147 4q-131 0 -183 -4v56q42 0 64 6l-240 275l-123 -91v-190h107v-56q-44 4 -183 4q-136 0 -182 -4v56h107v574h-107v56q44 -4 183 -4q136 0 182 4v-56h-107v-306l402 300q-24 6 -58 6v56l161 -4l107 4v-56h-27q-32 0 -49.5 -2t-23.5 -4t-13 -8l-270 -201
l301 -345q7 -9 16.5 -11.5t43.5 -2.5h39v-56z" />
    <glyph glyph-name="L" unicode="L" horiz-adv-x="773" 
d="M715 269l-34 -269h-624v56h107v574h-107v56q55 -4 185 -4l107 1q65 0 100 3v-56h-134v-574h118q50 0 89 14t61 34.5t37.5 51.5t21.5 56t10 57h63z" />
    <glyph glyph-name="M" unicode="M" horiz-adv-x="1215" 
d="M1151 0l-172 4l-173 -4v56h107v571h-1l-297 -600q-13 -27 -42 -27q-28 0 -42 28l-290 585h-1v-532q0 -15 3.5 -18.5t20.5 -4.5q30 -2 50 -2h33v-56l-142 4l-142 -4v56h33q62 0 71 6q3 3 3 19v549h-107v56h230q13 0 19.5 -1t15 -7.5t15.5 -19.5l264 -533l264 534
q6 13 15 19t15.5 7t19.5 1h230v-56h-107v-574h107v-56z" />
    <glyph glyph-name="N" unicode="N" horiz-adv-x="1002" 
d="M944 630h-33q-62 0 -71 -6q-3 -3 -3 -19v-570q0 -23 -6.5 -29t-28.5 -6q-16 0 -21 1.5t-13 10.5l-534 569v-500q0 -15 3.5 -18.5t20.5 -4.5q30 -2 50 -2h33v-56l-142 4l-142 -4v56h33q62 0 71 6q3 3 3 19v549h-107v56h235q16 0 21 -2t14 -11l440 -469v401q0 15 -3.5 18.5
t-20.5 4.5q-30 2 -50 2h-33v56l142 -4l142 4v-56z" />
    <glyph glyph-name="O" unicode="O" horiz-adv-x="968" 
d="M892 339q0 -151 -106.5 -251t-302.5 -100q-194 0 -301 99.5t-107 251.5q0 73 26 137t75 114t128.5 79t179.5 29q194 0 301 -102t107 -257zM729 354q0 21 -0.5 36t-5.5 48t-13.5 57.5t-26.5 55t-43.5 50t-65.5 33t-91 13.5q-124 0 -189 -81q-56 -72 -56 -212
q0 -143 50 -217q67 -96 195 -96q134 0 198 99q48 76 48 214z" />
    <glyph glyph-name="P" unicode="P" horiz-adv-x="879" 
d="M803 487q0 -85 -79.5 -140t-213.5 -55h-195v-236h107v-56q-44 4 -183 4q-136 0 -182 -4v56h107v574h-107v56h453q135 0 214 -57t79 -142zM640 487q0 19 -0.5 28.5t-3.5 27.5t-9 28t-18 22.5t-29 19.5t-43.5 12t-60.5 5h-168v-287h166q35 0 61.5 5t44 12t29.5 20t18 23
t9 27.5t3.5 27.5t0.5 29z" />
    <glyph glyph-name="Q" unicode="Q" horiz-adv-x="968" 
d="M899 -7q0 -67 -41.5 -127t-111.5 -60q-29 0 -52.5 11.5t-38 27t-29 44.5t-21.5 50t-18 58q-46 -9 -104 -9q-194 0 -301 99.5t-107 251.5q0 73 26 137t75 114t128.5 79t179.5 29q194 0 301 -102t107 -257q0 -42 -9.5 -83t-32.5 -87t-69.5 -85.5t-111.5 -64.5
q18 -23 37.5 -35t30.5 -13.5t30 -1.5q83 0 88 29q3 24 22 24q22 0 22 -29zM736 339q0 137 -49 210q-68 98 -204 98q-133 0 -202 -97q-50 -71 -50 -211q0 -219 142 -279q-1 4 -1 15q0 38 32.5 61.5t78.5 23.5q30 0 58 -14.5t42.5 -28.5t39.5 -42q113 67 113 264zM566 50
q-29 64 -83 64q-24 0 -44.5 -10t-20.5 -29q0 -36 66 -36q49 0 82 11z" />
    <glyph glyph-name="R" unicode="R" horiz-adv-x="960" 
d="M951 99q0 -12 -5 -27.5t-17.5 -36t-42 -34t-70.5 -13.5q-48 0 -85.5 6t-61.5 14t-41 24t-25 28t-12.5 33.5t-5 34t-0.5 35.5q0 60 -5.5 82t-30.5 42q-41 33 -102 33h-139v-264h107v-56l-179 4q-131 0 -179 -4v56h107v574h-107v56h410q147 0 237.5 -53t90.5 -135
q0 -34 -17 -62.5t-45.5 -47.5t-52.5 -30t-50 -19q34 -13 55.5 -29.5t32.5 -41t15 -41t9 -50.5q5 -38 8.5 -57t12.5 -42.5t24.5 -33.5t38.5 -10q21 0 40 15.5t22 51.5q1 11 6.5 16t10.5 6t14 1q10 0 15 -1t11 -6.5t6 -17.5zM632 498q0 29 -5 49t-21.5 41t-53.5 31.5t-95 10.5
h-149v-264h145q59 0 97.5 11t55 32.5t21.5 40.5t5 48z" />
    <glyph glyph-name="S" unicode="S" horiz-adv-x="718" 
d="M642 203q0 -30 -8 -59t-26.5 -58t-46.5 -50t-72 -34.5t-99 -13.5q-141 0 -224 52q-6 -5 -24.5 -23t-22.5 -22q-8 -7 -21 -7q-11 0 -16 4.5t-6 10t-1 17.5v176q0 22 5 27t27 5q21 0 25.5 -5t5.5 -21q5 -88 82 -126q67 -32 169 -32q42 0 73 11t45.5 25t22.5 33t9 27.5
t1 16.5q0 41 -29 69.5t-70 39.5l-86 16q-105 20 -147 35t-80 53q-53 55 -53 127q0 80 62 140.5t187 60.5q109 0 181 -48l8 -5q2 0 10 8l34 32q13 13 26 13q11 0 16 -4.5t6 -10t1 -17.5v-176q0 -22 -5 -27t-27 -5q-20 0 -24.5 4.5t-8.5 24.5q-9 46 -31.5 79t-54.5 50
t-63.5 24t-67.5 7q-79 0 -113 -31t-34 -71q0 -34 28 -61.5t81 -37.5l164 -32q78 -15 135 -72.5t57 -138.5z" />
    <glyph glyph-name="T" unicode="T" horiz-adv-x="897" 
d="M846 434h-63q-4 39 -8 62t-15 49.5t-28 40t-47 22.5t-72 9h-89v-561h152v-56q-44 3 -105 3l-123 1l-119 -1q-69 0 -108 -3v56h152v561h-90q-42 0 -72 -9.5t-47 -23t-28 -40t-15 -49t-8 -61.5h-63l24 239h748z" />
    <glyph glyph-name="U" unicode="U" horiz-adv-x="985" 
d="M927 630h-33q-62 0 -71 -6q-3 -3 -3 -19v-375q0 -46 -17.5 -87.5t-53 -77t-97 -56.5t-142.5 -21q-169 0 -257.5 70.5t-88.5 172.5v399h-107v56q44 -4 183 -4q136 0 182 4v-56h-107v-402q0 -26 2.5 -46.5t14 -48t31.5 -45.5t59 -31t92 -13q46 0 85.5 9.5t74.5 30t55 59
t20 91.5v371q0 15 -3.5 18.5t-20.5 4.5q-30 2 -50 2h-33v56l143 -4l142 4v-56z" />
    <glyph glyph-name="V" unicode="V" horiz-adv-x="968" 
d="M932 630h-27q-47 0 -59 -3.5t-17 -14.5l-288 -594q-9 -18 -17.5 -24t-32.5 -6h-15q-14 0 -20.5 1t-14.5 7.5t-15 20.5l-297 613h-94v56l160 -4q130 0 183 4v-56h-88l234 -485l231 479q-31 6 -84 6v56l142 -4q59 0 119 4v-56z" />
    <glyph glyph-name="W" unicode="W" horiz-adv-x="1323" 
d="M1289 630h-23q-41 0 -54 -2.5t-18 -15.5l-246 -595q-8 -18 -16.5 -23.5t-32.5 -5.5q-15 0 -22 1t-15 7.5t-14 20.5l-187 454l-188 -454q-9 -20 -17.5 -24.5t-32.5 -4.5t-32.5 5.5t-16.5 23.5l-254 613h-87v56l154 -4l180 4v-56h-91l191 -463l160 386l-32 77h-87v56
l154 -4q128 0 181 4v-56h-92l192 -463l183 443q0 1 1.5 3.5t2 5t0.5 3.5q0 8 -80 8h-18v56l147 -4q61 0 110 4v-56z" />
    <glyph glyph-name="X" unicode="X" horiz-adv-x="968" 
d="M921 0l-166 4q-137 0 -187 -4v56h72l-187 227l-187 -220q29 -7 82 -7v-56l-162 4q-21 0 -53.5 -1t-58 -2t-27.5 -1v56h39q21 0 53 2q21 1 27 3.5t14 11.5l227 266l-241 291h-102v56l165 -4q138 0 188 4v-56h-72l152 -185l151 178q-30 7 -82 7v56l162 -4q22 0 54.5 1
t56.5 2t27 1v-56h-38q-22 0 -54 -2q-21 -2 -26.5 -4t-14.5 -11l-190 -223l276 -334h102v-56z" />
    <glyph glyph-name="Y" unicode="Y" horiz-adv-x="968" 
d="M936 630h-30q-20 0 -50 -2q-18 -1 -22.5 -3.5t-11.5 -10.5l-267 -340v-218h107v-56l-179 4q-131 0 -179 -4v56h107v218l-279 356h-101v56l168 -4q142 0 191 4v-56h-75l215 -273l209 267q-24 6 -69 6v56l144 -4q67 0 122 4v-56z" />
    <glyph glyph-name="Z" unicode="Z" horiz-adv-x="789" 
d="M720 280l-20 -280h-590q-14 0 -19.5 1t-10.5 8t-5 22q0 18 10 30l441 569h-142q-216 0 -228 -183h-63l14 239h571q13 0 19 -1t11 -8t5 -21q0 -15 -11 -29l-439 -566h157q120 0 174 49.5t63 169.5h63z" />
    <glyph glyph-name="bracketleft" unicode="[" horiz-adv-x="364" 
d="M331 -250h-187v1000h187v-73h-114v-854h114v-73z" />
    <glyph glyph-name="backslash" unicode="\" horiz-adv-x="575" 
d="M510 -219q0 -14 -9.5 -22.5t-20.5 -8.5q-10 0 -17 5t-9.5 10t-6.5 15l-377 919q-6 16 -6 20q0 14 9.5 22.5t20.5 8.5q10 0 16.5 -4.5t9 -9.5t7.5 -16l377 -919q6 -16 6 -20z" />
    <glyph glyph-name="bracketright" unicode="]" horiz-adv-x="364" 
d="M219 -250h-187v73h114v854h-114v73h187v-1000z" />
    <glyph glyph-name="asciicircum" unicode="^" horiz-adv-x="556" 
d="M561 584l-12 -22l-272 123l-271 -123l-11 22l283 160z" />
    <glyph glyph-name="underscore" unicode="_" horiz-adv-x="968" 
d="M968 -156h-968v62h968v-62z" />
    <glyph glyph-name="grave" unicode="`" 
d="M405 553l-36 -52l-167 76q-42 18 -42 57q0 23 18.5 46t47.5 23q25 0 42 -17z" />
    <glyph glyph-name="a" unicode="a" horiz-adv-x="629" 
d="M619 28q0 -13 -5.5 -19.5t-11.5 -7.5t-18 -1h-59q-59 0 -84 17t-25 51q-48 -74 -170 -74q-55 0 -99.5 10t-77.5 38.5t-33 72.5q0 42 34 72.5t77.5 45t102 23t89 10t57.5 1.5v27q0 113 -122 113q-71 0 -71 -7q1 -4 3 -7q12 -12 12 -40q0 -29 -19 -49t-51 -20q-29 0 -49 19
t-20 51q0 24 10 42t29 28t37.5 16.5t45.5 9t40.5 3t35.5 0.5q126 0 186 -45t60 -113v-208q0 -14 2.5 -19t15.5 -8.5t42 -3.5q13 0 19 -1t11.5 -7.5t5.5 -19.5zM396 137v91q-41 -1 -79.5 -7.5t-74.5 -18.5t-58 -34.5t-22 -51.5q0 -33 30.5 -54.5t73.5 -21.5q53 0 91 23
q39 24 39 74z" />
    <glyph glyph-name="b" unicode="b" horiz-adv-x="718" 
d="M670 223q0 -101 -75 -165t-202 -64q-94 0 -166 61q-5 -5 -19 -25t-19 -25q-6 -5 -22 -5h-45v591q0 28 -10.5 33.5t-56.5 5.5v56l187 8v-289q72 45 165 45q125 0 194 -65.5t69 -161.5zM531 225q0 27 -1 43t-8 45t-20.5 46.5t-41.5 31t-67 13.5q-45 0 -83.5 -18t-60.5 -45
v-229q51 -72 132 -72q36 0 63 8.5t42.5 26t25.5 34t13.5 42t4.5 39t1 35.5z" />
    <glyph glyph-name="c" unicode="c" horiz-adv-x="576" 
d="M535 114q0 -5 -5.5 -18t-23 -34.5t-43.5 -36.5q-54 -31 -140 -31q-134 0 -205 66.5t-71 161.5q0 39 13.5 76t43 73.5t88 59t137.5 22.5q192 0 192 -99q0 -31 -19.5 -50.5t-50.5 -19.5q-30 0 -49.5 19.5t-19.5 49.5q0 23 11 40l2 4q0 5 -63 5q-48 0 -79 -16t-44.5 -45
t-18 -55t-4.5 -60q0 -181 161 -181q92 0 124 71q5 11 10 13.5t22 2.5q32 0 32 -18z" />
    <glyph glyph-name="d" unicode="d" horiz-adv-x="718" 
d="M662 0l-194 -6v48q-69 -48 -157 -48q-124 0 -194 65t-70 162q0 99 73.5 164t203.5 65q82 0 151 -42v183q0 28 -10.5 33.5t-56.5 5.5v56l187 8v-599q0 -28 10.5 -33.5t56.5 -5.5v-56zM468 116v228q-6 8 -17 18.5t-44 26t-71 15.5q-36 0 -63 -8.5t-42.5 -26t-25.5 -34
t-13.5 -42t-4.5 -39t-1 -35.5q0 -26 1 -42t8 -45.5t20.5 -46.5t41 -31t66.5 -14q49 0 86.5 23t58.5 53z" />
    <glyph glyph-name="e" unicode="e" horiz-adv-x="592" 
d="M551 114q0 -7 -6.5 -20.5t-25 -34t-45.5 -34.5q-57 -31 -144 -31q-140 0 -215 67t-75 164q0 95 71 161.5t202 66.5q121 0 183 -62q55 -56 55 -153q0 -14 -5 -21t-11 -8t-19 -1h-337q1 -21 2.5 -35.5t11 -41t25.5 -43t48.5 -30t77.5 -13.5q108 0 144 74q6 11 11.5 14
t19.5 3q32 0 32 -22zM452 250q-7 157 -138 157t-135 -157h273z" />
    <glyph glyph-name="f" unicode="f" horiz-adv-x="399" 
d="M491 606q0 -32 -21 -50.5t-48 -18.5q-25 0 -46.5 18t-21.5 51q0 23 12 41l3 5q0 2 -11 2q-31 0 -53.5 -11t-33 -24.5t-16.5 -33t-6.5 -28.5t-0.5 -19v-94h135v-56h-128v-332h84v-56l-143 4q-21 0 -52 -1t-54 -2l-22 -1v56h67v332h-83v56h83v96q0 79 67 119.5t163 40.5
q60 0 93 -28t33 -66z" />
    <glyph glyph-name="g" unicode="g" 
d="M624 389q0 -24 -16 -37.5t-35 -13.5q-18 0 -34 13t-16 38q0 11 3 19q-27 -3 -60 -15q40 -36 40 -93t-52.5 -103t-166.5 -46q-79 0 -131 25q-7 -9 -7 -26q0 -29 23 -47q12 -10 24 -12t42 -2h54q64 0 94 -1t67.5 -7t66.5 -19q86 -40 86 -131q0 -61 -74 -96.5t-209 -35.5
q-146 0 -214.5 38.5t-68.5 90.5q0 35 28 56t62 29q-40 40 -40 96q0 49 32 88q-53 44 -53 104q0 57 53.5 103t164.5 46q87 0 146 -32q52 38 116 38q35 0 55 -20.5t20 -46.5zM387 301q0 17 -0.5 26.5t-6 26.5t-15 26t-29.5 16.5t-49 7.5q-28 0 -48 -7.5t-29.5 -17t-15 -26
t-6 -26.5t-0.5 -27t0.5 -26.5t6 -26t15 -26t29.5 -17t48 -7.5q35 0 57.5 9.5t30.5 28.5t10 31.5t2 34.5zM508 -72q0 53 -155 53h-133q-82 0 -82 -52q0 -33 45.5 -58.5t139.5 -25.5q96 0 140.5 26t44.5 57z" />
    <glyph glyph-name="h" unicode="h" horiz-adv-x="718" 
d="M679 0q-82 4 -131 4l-130 -4v56h67v253q0 53 -14.5 74t-48.5 21t-69.5 -13.5t-65 -50.5t-29.5 -91v-193h67v-56q-82 4 -131 4l-130 -4v56h67v535q0 28 -10.5 33.5t-56.5 5.5v56l187 8v-338q64 94 190 94q79 0 125 -32t46 -117v-245h67v-56z" />
    <glyph glyph-name="i" unicode="i" horiz-adv-x="363" 
d="M315 0q-55 4 -122 4l-126 -4v56h67v291q0 28 -10 33.5t-54 5.5v56l184 8v-394h61v-56zM264 602q0 -33 -24 -57t-58 -24t-58 24t-24 58q0 33 24 57t58 24t58 -24t24 -58z" />
    <glyph glyph-name="j" unicode="j" horiz-adv-x="399" 
d="M304 -38q0 -79 -62 -120.5t-139 -41.5q-69 0 -113.5 25t-44.5 74q0 29 19.5 49t50.5 20q29 0 49 -19.5t20 -49.5q0 -28 -12 -40l-4 -8q0 -5 34 -5q39 0 60.5 33t21.5 85v382q0 29 -11 34.5t-63 5.5v56l194 8v-488zM304 602q0 -33 -24 -57t-58 -24t-58 24t-24 58
q0 33 24 57t58 24t58 -24t24 -58z" />
    <glyph glyph-name="k" unicode="k" horiz-adv-x="683" 
d="M656 0q-48 4 -107 4l-130 -4v56q21 0 21 6q-1 2 -9 11l-126 137l-69 -49v-105h67v-56q-76 4 -124 4q-19 0 -48.5 -1t-52 -2t-23.5 -1v56h67v533q0 30 -10 35.5t-57 5.5v56l187 8v-452l183 131q9 6 12 9q-8 6 -20 6v56q1 0 24.5 -1t54.5 -2t50 -1q28 0 82 4v-56
q-50 0 -65 -3t-27 -11l-143 -102l182 -198q14 -14 21 -15q9 -3 60 -3v-56z" />
    <glyph glyph-name="l" unicode="l" horiz-adv-x="363" 
d="M321 0q-1 0 -9.5 0.5t-22.5 1t-30 1t-33.5 1t-31.5 0.5q-20 0 -51 -1t-53 -2l-23 -1v56h67v535q0 28 -10.5 33.5t-56.5 5.5v56l187 8v-638h67v-56z" />
    <glyph glyph-name="m" unicode="m" horiz-adv-x="1073" 
d="M1035 0q-82 4 -131 4l-130 -4v56h67v252q0 54 -14.5 75t-49.5 21q-24 0 -50 -8t-53 -25t-44 -48.5t-17 -73.5v-193h67v-56q-82 4 -131 4l-130 -4v56h67v252q0 54 -14.5 75t-49.5 21q-24 0 -50 -8t-53 -25t-44 -48.5t-17 -73.5v-193h67v-56q-82 4 -131 4l-130 -4v56h67
v291q0 28 -10.5 33.5t-56.5 5.5v56l181 8v-104q13 23 33 43t64.5 40.5t99.5 20.5q138 0 165 -94q63 94 190 94q36 0 64 -6t53.5 -21.5t39.5 -46t14 -75.5v-245h67v-56z" />
    <glyph glyph-name="n" unicode="n" horiz-adv-x="718" 
d="M679 0q-82 4 -131 4l-130 -4v56h67v253q0 53 -14.5 74t-48.5 21t-69.5 -13.5t-65 -50.5t-29.5 -91v-193h67v-56q-82 4 -131 4l-130 -4v56h67v291q0 28 -10.5 33.5t-56.5 5.5v56l181 8v-104q13 22 32 42t64 41t100 21q79 0 125 -32t46 -117v-245h67v-56z" />
    <glyph glyph-name="o" unicode="o" 
d="M606 218q0 -94 -72.5 -159t-210.5 -65t-210.5 64.5t-72.5 159.5q0 97 72 166t211 69q138 0 210.5 -68.5t72.5 -166.5zM467 230q0 27 -1 41.5t-4.5 39t-12.5 38.5t-24.5 29t-41 22t-60.5 7t-60.5 -7t-41 -22t-24.5 -29t-12.5 -38.5t-4.5 -39t-1 -41.5q0 -35 1 -53.5
t8.5 -48t21.5 -44.5t43 -27t70 -12t70 12t43 27t21.5 44.5t8.5 48t1 53.5z" />
    <glyph glyph-name="p" unicode="p" horiz-adv-x="718" 
d="M670 223q0 -101 -75 -165t-202 -64q-81 0 -144 43v-175h67v-56q-82 4 -131 4l-130 -4v56h67v489q0 17 -2.5 24t-14.5 9q-13 2 -50 2v56l187 8v-46q74 46 171 46q122 0 189.5 -65.5t67.5 -161.5zM531 223q0 81 -37.5 128.5t-101.5 47.5q-75 0 -128 -46q-11 -10 -13 -14.5
t-2 -18.5v-209q50 -71 131 -71q63 0 107 46t44 137z" />
    <glyph glyph-name="q" unicode="q" horiz-adv-x="683" 
d="M663 -194q-82 4 -131 4l-130 -4v56h67v183q-69 -51 -157 -51q-125 0 -195 65.5t-70 161.5q0 100 74 164.5t200 64.5q103 0 173 -77l46 77h56v-588h67v-56zM476 134v135q0 44 -40 87t-99 43q-63 0 -107 -45t-44 -133q0 -87 39.5 -134t98.5 -47q47 0 87 24.5t65 69.5z" />
    <glyph glyph-name="r" unicode="r" horiz-adv-x="535" 
d="M495 361q0 -29 -19 -48.5t-49 -19.5t-49 19.5t-19 48.5q0 11 3.5 22t7.5 16l3 5q-63 -4 -97 -61.5t-34 -132.5v-154h84v-56l-143 4q-21 0 -52 -1t-53 -2l-23 -1v56h67v291q0 28 -10.5 33.5t-56.5 5.5v56l174 8v-110h1q48 110 147 110q48 0 83 -24.5t35 -64.5z" />
    <glyph glyph-name="s" unicode="s" horiz-adv-x="512" 
d="M464 142q0 -35 -12 -62t-34 -42t-43 -25t-48.5 -13.5t-40 -4.5t-27.5 -1q-77 0 -129 29q-12 -8 -28 -16q-21 -13 -32 -13t-16 4.5t-6 10t-1 17.5v98q0 22 5 27t27 5q18 0 22.5 -3t9.5 -16q16 -46 49.5 -71.5t99.5 -25.5q123 0 123 68q0 18 -11 31.5t-34.5 21t-40.5 11
t-48 8.5t-49 8.5t-51 14t-52 24t-34.5 37.5t-15.5 55q0 71 65 107q50 27 140 27q63 0 104 -13l7 -2q5 0 19 7q16 8 26 8q16 0 20 -7t4 -25v-69q0 -22 -5 -27t-27 -5q-18 0 -24 4t-7 18q-2 14 -5 22t-13.5 21.5t-36 20t-65.5 6.5q-121 0 -121 -56q0 -14 9 -24t29 -16.5
t34.5 -9.5t43.5 -8q50 -8 73.5 -13t50 -16t49.5 -30q47 -39 47 -97z" />
    <glyph glyph-name="t" unicode="t" horiz-adv-x="505" 
d="M429 121q0 -59 -41 -93t-102 -34q-168 0 -168 127v267h-90v46q74 2 113.5 62.5t40.5 138.5h63v-191h163v-56h-163v-267q0 -20 2 -33t16 -28t41 -15q13 0 25.5 5t24.5 24t12 51v48h63v-52z" />
    <glyph glyph-name="u" unicode="u" horiz-adv-x="718" 
d="M679 0l-187 -6v71q-57 -71 -164 -71q-31 0 -54.5 2t-51.5 9.5t-46.5 20.5t-31.5 37.5t-13 57.5v226q0 28 -10.5 33.5t-56.5 5.5v56l194 8v-340q0 -22 1.5 -32t9.5 -20.5t26 -14t50 -3.5q61 0 100.5 31.5t39.5 90.5v185q0 28 -10.5 33.5t-56.5 5.5v56l194 8v-355
q0 -28 10.5 -33.5t56.5 -5.5v-56z" />
    <glyph glyph-name="v" unicode="v" horiz-adv-x="683" 
d="M646 388q-32 0 -44 -1q-16 -1 -20 -3.5t-9 -12.5l-179 -349q-10 -19 -19.5 -23.5t-33.5 -4.5t-34 4.5t-19 23.5l-187 366h-65v56q52 -4 117 -4l130 4v-56h-47l137 -269l134 263q-18 6 -44 6v56q40 -4 99 -4q22 0 84 4v-56z" />
    <glyph glyph-name="w" unicode="w" horiz-adv-x="931" 
d="M897 388q-28 0 -43 -2q-13 -1 -16.5 -3.5t-8.5 -13.5l-151 -348q-6 -13 -14 -19t-15 -7t-21 -1q-15 0 -22 1t-15 7.5t-14 19.5l-112 259l-112 -260q-6 -13 -14.5 -19t-15.5 -7t-21 -1t-21 1t-15 7t-14 19l-159 367h-60v56q2 0 22 -1t46.5 -2t43.5 -1l130 4v-56h-51
l110 -252l92 212q4 8 4 12q0 5 -11 28h-60v56q40 -4 101 -4q19 0 47.5 1t49.5 2l21 1v-56h-50l120 -277l117 271q-24 6 -54 6v56q47 -4 104 -4q28 0 82 4v-56z" />
    <glyph glyph-name="x" unicode="x" horiz-adv-x="683" 
d="M648 0q-49 4 -112 4l-127 -4v56h26l-111 115l-108 -108q10 -7 27 -7v-56q-52 4 -111 4q-54 0 -97 -4v56q40 0 56 1q23 1 29 3.5t16 11.5l144 145l-164 171h-75v56q51 -4 113 -4q18 0 48.5 1t54 2t24.5 1v-56h-27l97 -101l94 95q-11 6 -27 6v56q32 -4 111 -4q54 0 97 4
v-56q-69 0 -93 -7l-138 -139l179 -186h74v-56z" />
    <glyph glyph-name="y" unicode="y" horiz-adv-x="683" 
d="M646 388q-33 0 -45 -1q-16 -2 -20 -4.5t-10 -13.5l-227 -440q-33 -63 -86 -96t-111 -33q-50 0 -84 29t-34 71q0 31 19 48t46 17t46 -17t19 -48q0 -35 -26 -53q4 -1 15 -1q32 0 66 18.5t56 59.5q17 28 39 76l-207 388h-66v56l20 -1q21 -1 49.5 -2t48.5 -1q21 0 52.5 1
t55.5 2l23 1v-56h-46l138 -258l129 252q-18 6 -43 6v56q40 -4 99 -4q28 0 84 4v-56z" />
    <glyph glyph-name="z" unicode="z" horiz-adv-x="576" 
d="M518 203l-20 -203h-423q-12 0 -18 1t-11.5 7.5t-5.5 19.5q0 14 12 27l298 343h-83q-74 0 -107.5 -26.5t-39.5 -103.5h-63l14 176h408q12 0 18 -1t11.5 -7t5.5 -18q0 -14 -10 -25l-299 -342h90q86 0 119 34t41 118h63z" />
    <glyph glyph-name="braceleft" unicode="{" horiz-adv-x="575" 
d="M496 -232q0 -12 -6 -15t-25 -3q-21 0 -41 1.5t-49 6t-52.5 14t-45 24t-33.5 38.5t-12 55v210q0 39 -2 47q-8 32 -41 57.5t-94 28.5q-17 1 -17 18q0 12 4.5 14.5t17.5 3.5q62 3 99 37q23 20 28 40t5 72v206q1 58 64 92.5t169 34.5q13 0 18.5 -0.5t9 -4.5t3.5 -13
q0 -12 -4.5 -14.5t-17.5 -3.5q-53 -3 -92 -28q-39 -29 -39 -80v-210q0 -19 -1 -30t-7 -31t-17.5 -33.5t-35.5 -28t-58 -23.5q60 -16 89 -48t30 -68v-237q0 -25 3 -35q23 -69 133 -76q17 -1 17 -18z" />
    <glyph glyph-name="bar" unicode="|" horiz-adv-x="319" 
d="M190 -206q0 -44 -31 -44q-30 0 -30 44v912q0 44 31 44q30 0 30 -44v-912z" />
    <glyph glyph-name="braceright" unicode="}" horiz-adv-x="575" 
d="M496 250q0 -12 -4.5 -14.5t-17.5 -3.5q-65 -4 -97 -36q-24 -22 -29 -41t-5 -72v-206q-1 -56 -62.5 -91.5t-171.5 -35.5q-13 0 -18 0.5t-9 4.5t-4 13q0 12 4.5 14.5t17.5 3.5q57 3 95 30q17 13 26 28.5t10 24.5t1 25v210q0 19 1 30t7 31t17.5 33.5t35.5 28t58 23.5
q-61 17 -89.5 48.5t-29.5 67.5v237q0 25 -3 35q-22 70 -134 76q-17 1 -17 18q0 12 6.5 15t24.5 3q38 0 72.5 -5t74 -18t63.5 -43t24 -73v-210q0 -41 3 -49q24 -79 133 -84q17 -1 17 -18z" />
    <glyph glyph-name="asciitilde" unicode="~" horiz-adv-x="556" 
d="M555 290l-54 -44q-20 -17 -57 -35q-40 -18 -73 -18q-42 0 -100 34q-65 37 -104 37q-68 0 -153 -71l-14 17l54 44q20 17 57 35q40 18 73 18q42 0 100 -34q65 -37 104 -37q68 0 153 71z" />
    <glyph glyph-name="uni00A0" unicode="&#xa0;" 
 />
    <glyph glyph-name="exclamdown" unicode="&#xa1;" horiz-adv-x="397" 
d="M280 418q0 -32 -23.5 -56.5t-58.5 -24.5q-32 0 -56.5 23.5t-24.5 58.5q0 32 23.5 56.5t58.5 24.5q32 0 56.5 -23.5t24.5 -58.5zM280 -131q0 -34 -24.5 -54.5t-57.5 -20.5q-31 0 -56 20.5t-25 54.5q0 6 3 27l46 346q2 18 7 22.5t25 4.5q21 0 26 -4.5t7 -23.5l46 -345
q3 -24 3 -27z" />
    <glyph glyph-name="cent" unicode="&#xa2;" horiz-adv-x="576" 
d="M535 114q0 -5 -5.5 -18t-23 -34.5t-43.5 -36.5q-45 -27 -118 -30v-51q0 -11 -8.5 -19.5t-19.5 -8.5q-12 0 -20 8.5t-8 19.5v51q-117 9 -179.5 73.5t-62.5 153.5q0 36 11.5 71t37.5 70t75.5 59t117.5 29v49q0 12 8 20t20 8q11 0 19.5 -8t8.5 -20v-47q176 -3 176 -99
q0 -31 -19.5 -50.5t-50.5 -19.5q-30 0 -49.5 19.5t-19.5 49.5q0 23 11 40l2 4q0 2 -50 5v-357h2q92 0 124 71q5 11 10 13.5t22 2.5q32 0 32 -18zM289 52v346q-33 -7 -55 -25t-32 -44.5t-13 -49.5t-3 -53q0 -144 103 -174z" />
    <glyph glyph-name="sterling" unicode="&#xa3;" horiz-adv-x="968" 
d="M902 148q0 -72 -41.5 -125.5t-104.5 -53.5q-20 0 -39.5 2t-42 8t-36.5 10t-40 15t-35.5 15t-40 18t-36.5 17q-17 -31 -67.5 -46.5t-91.5 -17.5t-117 -2q-59 0 -101.5 25t-42.5 70q0 95 200 95q51 0 105 -16q-4 19 -11.5 41.5t-12.5 34.5t-18 41.5t-16 35.5h-160v56h138
q-11 38 -11 73q0 104 82.5 173t195.5 69q100 0 173.5 -50t73.5 -133q0 -29 -20.5 -49t-48.5 -20t-48.5 20t-20.5 49q0 24 14 42t36 25q-51 54 -159 54q-65 0 -108.5 -53.5t-43.5 -126.5q0 -39 10 -73h221v-56h-203q4 -11 18.5 -46.5t21 -53t13.5 -46t9 -52.5
q125 -48 200 -48q60 0 102 19t42 60h62zM370 100q-54 16 -104 16q-32 0 -49 -0.5t-41.5 -3.5t-36 -10t-11.5 -19t6.5 -19t21 -10t25 -3.5t29.5 -0.5q140 0 160 50z" />
    <glyph glyph-name="currency" unicode="&#xa4;" horiz-adv-x="1002" 
d="M802 551q27 -27 -9 -59l-76 -76q57 -73 57 -166q0 -91 -56 -165l75 -76q36 -32 8 -60q-27 -27 -59 9l-76 75q-72 -55 -165 -55q-94 0 -166 56l-76 -76q-32 -36 -60 -8q-27 27 9 59l76 77q-55 71 -55 164t55 165l-76 77q-36 32 -8 60q27 27 59 -9l77 -76q72 55 165 55
t165 -55l76 76q32 36 60 8zM702 250q0 83 -59 141.5t-142 58.5t-141.5 -58.5t-58.5 -141.5t58.5 -141.5t141.5 -58.5t142 58.5t59 141.5z" />
    <glyph glyph-name="yen" unicode="&#xa5;" horiz-adv-x="968" 
d="M936 630h-30q-20 0 -50 -2q-18 -1 -22.5 -3.5t-11.5 -10.5l-189 -241h141v-56h-185l-34 -43v-91h219v-56h-219v-71h107v-56l-179 4q-131 0 -179 -4v56h107v71h-217v56h217v91l-34 43h-183v56h139l-201 257h-101v56l168 -4q142 0 191 4v-56h-75l202 -257h26l196 251
q-24 6 -69 6v56l144 -4q67 0 122 4v-56z" />
    <glyph glyph-name="brokenbar" unicode="&#xa6;" horiz-adv-x="319" 
d="M190 341q0 -12 -9 -20t-21 -8q-13 0 -22 8t-9 20v365q0 44 31 44q30 0 30 -44v-365zM190 -206q0 -44 -31 -44q-30 0 -30 44v365q0 12 9 20t22 8q12 0 21 -8t9 -20v-365z" />
    <glyph glyph-name="section" unicode="&#xa7;" horiz-adv-x="783" 
d="M716 200q0 -47 -28 -83t-73 -53q26 -44 26 -90q0 -83 -74.5 -134.5t-174.5 -51.5q-91 0 -158 49t-67 126q0 29 20.5 49t48.5 20t48.5 -20t20.5 -49q0 -43 -37 -61q41 -24 124 -24q56 0 97.5 26t41.5 70q0 25 -20.5 42t-41.5 23.5t-58 14.5l-135 32q-89 21 -148.5 78.5
t-59.5 135.5q0 47 28 83t73 53q-26 42 -26 90q0 83 74.5 134.5t174.5 51.5q91 0 158 -49t67 -126q0 -29 -20.5 -49t-48.5 -20t-48.5 20t-20.5 49q0 43 37 61q-41 24 -124 24q-56 0 -97.5 -26t-41.5 -70q0 -25 20.5 -42t41.5 -23.5t58 -14.5l135 -32q89 -21 148.5 -78.5
t59.5 -135.5zM594 200q0 67 -114 91l-135 32q-74 18 -122 56q-33 -25 -33 -79q0 -67 114 -91l135 -32q72 -18 122 -56q33 25 33 79z" />
    <glyph glyph-name="dieresis" unicode="&#xa8;" 
d="M262 602q0 -29 -22 -51t-52 -22q-31 0 -52.5 21.5t-21.5 52.5q0 30 21.5 51.5t52.5 21.5q30 0 52 -21.5t22 -52.5zM533 602q0 -29 -22 -51t-52 -22q-31 0 -52.5 21.5t-21.5 52.5q0 30 21.5 51.5t52.5 21.5q30 0 52 -21.5t22 -52.5z" />
    <glyph glyph-name="copyright" unicode="&#xa9;" horiz-adv-x="686" 
d="M686 343q0 -142 -100.5 -242.5t-242.5 -100.5t-242.5 100.5t-100.5 242.5t100.5 242.5t242.5 100.5q143 0 243 -100t100 -243zM614 343q0 113 -79 192t-192 79t-192 -79t-79 -192t79 -192t192 -79t192 79t79 192zM474 299q0 -38 -36.5 -65.5t-93.5 -27.5
q-82 0 -126.5 39.5t-44.5 97.5q0 59 44.5 98t125.5 39q48 0 87 -26l25 22q4 4 10 4q9 0 9 -12v-82q0 -9 -2.5 -11t-10.5 -2h-2q-9 0 -10.5 1.5t-3.5 9.5q-5 31 -31 52.5t-62 21.5q-51 0 -83 -24q-34 -27 -34 -91q0 -57 28 -85q30 -30 90 -30q34 0 64 17.5t32 56.5q1 6 12 6
q13 0 13 -9z" />
    <glyph glyph-name="ordfeminine" unicode="&#xaa;" horiz-adv-x="559" 
d="M524 401q0 -9 -4.5 -14t-9.5 -5.5t-15 -0.5h-50q-91 0 -91 48q-41 -52 -143 -52q-74 0 -125.5 20t-51.5 65q0 29 28.5 50.5t65 31.5t86 16t75 7t48.5 1v19q0 79 -103 79q-59 0 -59 -5q1 -3 2 -5q10 -7 10 -28q0 -20 -16 -34t-42 -14q-25 0 -41.5 13t-16.5 36q0 69 166 69
q106 0 156.5 -31.5t50.5 -78.5v-146q0 -10 2 -13.5t13 -6t35 -2.5q11 0 16 -0.5t9.5 -5t4.5 -13.5zM496 327q0 -19 -28 -19h-378q-11 0 -19.5 5.5t-8.5 13.5t8.5 14t19.5 6h378q12 0 20 -6t8 -14zM337 477v64q-77 -2 -137 -21t-60 -58q0 -23 26 -38t62 -15q44 0 76 16
q33 17 33 52z" />
    <glyph glyph-name="guillemotleft" unicode="&#xab;" horiz-adv-x="718" 
d="M358 18q0 -8 -5 -13t-13 -5h-9q-13 0 -16 11q-54 122 -163 205q-7 5 -7 14q0 8 7 15q109 81 163 205q3 10 16 10h9q8 0 13 -5t5 -13v-4q-26 -111 -84 -208q58 -94 84 -208v-4zM572 18q0 -8 -5 -13t-13 -5h-9q-13 0 -16 11q-54 122 -163 205q-7 5 -7 14q0 8 7 15
q109 81 163 205q3 10 16 10h9q8 0 13 -5t5 -13v-4q-26 -111 -84 -208q58 -94 84 -208v-4z" />
    <glyph glyph-name="logicalnot" unicode="&#xac;" horiz-adv-x="1002" 
d="M926 125q0 -15 -10.5 -25.5t-25.5 -10.5t-25.5 10.5t-10.5 25.5v215h-743q-15 0 -25.5 10.5t-10.5 25.5t10.5 25.5t25.5 10.5h779q15 0 25.5 -10.5t10.5 -25.5v-251z" />
    <glyph glyph-name="uni00AD" unicode="&#xad;" horiz-adv-x="434" 
d="M358 167h-340v111h340v-111z" />
    <glyph glyph-name="registered" unicode="&#xae;" horiz-adv-x="686" 
d="M686 343q0 -142 -100.5 -242.5t-242.5 -100.5t-242.5 100.5t-100.5 242.5t100.5 242.5t242.5 100.5q143 0 243 -100t100 -243zM614 343q0 113 -79 192t-192 79t-192 -79t-79 -192t79 -192t192 -79t192 79t79 192zM531 251q0 -7 -3 -15.5t-16 -18t-34 -9.5
q-32 0 -51.5 5.5t-27 17.5t-9 20.5t-1.5 24.5q0 23 -2 31.5t-12 16.5q-15 12 -39 12h-54v-101h42v-22l-69 2q-51 0 -69 -2v22h41v221h-41v22h158q56 0 91 -20.5t35 -52.5q0 -43 -63 -61q17 -7 26.5 -18t11.5 -19.5t5 -25.5q3 -20 5 -29t8.5 -17.5t18.5 -8.5q22 0 24 26
q1 9 12 9q13 0 13 -10zM407 405q0 11 -2 18.5t-8 16t-20.5 12.5t-36.5 4h-58v-102h56q43 0 56 14t13 37z" />
    <glyph glyph-name="macron" unicode="&#xaf;" 
d="M554 571h-460v62h460v-62z" />
    <glyph glyph-name="degree" unicode="&#xb0;" horiz-adv-x="485" 
d="M420 509q0 -74 -51.5 -126t-125.5 -52t-126 52t-52 126q0 73 52 125t126 52q73 0 125 -52t52 -125zM348 509q0 43 -31 74t-74 31q-44 0 -75 -30.5t-31 -74.5t31 -75t75 -31t74.5 31t30.5 75z" />
    <glyph glyph-name="plusminus" unicode="&#xb1;" horiz-adv-x="1002" 
d="M926 36q0 -36 -48 -36h-755q-48 0 -48 37q0 36 48 36h341v237h-341q-48 0 -48 37q0 36 48 36h341v262q0 48 37 48q36 0 36 -48v-262h341q48 0 48 -37q0 -36 -48 -36h-341v-237h341q48 0 48 -37z" />
    <glyph glyph-name="two.superior" unicode="&#xb2;" horiz-adv-x="465" 
d="M416 441l-24 -136h-343v14q0 12 9 20l172 126q79 60 79 116q0 38 -31.5 61t-78.5 23q-39 0 -67 -15q2 0 8.5 -4t13.5 -14t7 -23q0 -22 -17.5 -34.5t-39.5 -12.5q-19 0 -37 12t-18 35q0 42 47.5 65.5t123.5 23.5q87 0 141.5 -32t54.5 -85q0 -21 -9 -39t-29.5 -34
t-35.5 -25t-44 -25q-29 -15 -122 -71h99q60 0 75 2q4 1 8.5 8.5t6.5 15.5t4 17.5t2 10.5h45z" />
    <glyph glyph-name="three.superior" unicode="&#xb3;" horiz-adv-x="465" 
d="M424 413q0 -45 -49 -80.5t-152 -35.5q-80 0 -131 25t-51 70q0 21 16 35t43 14q26 0 42 -14t16 -35q0 -32 -33 -45q37 -19 95 -19q30 0 49.5 9t27 25.5t9 26.5t1.5 25q0 16 -2.5 27.5t-10 26.5t-27.5 23.5t-50 8.5h-38q-23 0 -23 13q0 11 10 14q2 0 7.5 0.5t15.5 1t17 0.5
q48 2 67 29t19 57q0 10 -1.5 16.5t-7 17t-21 16.5t-40.5 6q-48 0 -82 -21q36 -10 36 -43q0 -18 -14.5 -31.5t-40.5 -13.5q-22 0 -38 12.5t-16 33.5q0 39 43 64.5t115 25.5q83 0 128 -24t45 -61q0 -35 -28.5 -60t-71.5 -38q60 -10 93 -38t33 -64z" />
    <glyph glyph-name="acute" unicode="&#xb4;" 
d="M487 634q0 -39 -42 -57l-167 -76l-36 52l137 133q17 17 42 17q29 0 47.5 -23t18.5 -46z" />
    <glyph glyph-name="uni00B5" unicode="&#xb5;" horiz-adv-x="718" 
d="M679 0q-35 -3 -94 -3t-93 -3v71q-57 -71 -164 -71q-43 0 -70 4v-136h67v-56q-82 4 -131 4l-130 -4v56h67v483q0 30 -10 35.5t-57 5.5v56l194 8v-339q0 -23 1.5 -32.5t9.5 -20.5t26 -14.5t50 -3.5q59 0 99.5 30.5t40.5 93.5v181q0 30 -10 35.5t-57 5.5v56l194 8v-353
q0 -30 10 -35.5t57 -5.5v-56z" />
    <glyph glyph-name="paragraph" unicode="&#xb6;" horiz-adv-x="703" 
d="M670 663q0 -30 -45 -30h-51v-783q0 -44 -31 -44q-30 0 -30 44v783h-80v-783q0 -44 -31 -44q-30 0 -30 44v370q-138 8 -223 72.5t-85 164.5q0 102 85 169.5t202 67.5h274q45 0 45 -31z" />
    <glyph glyph-name="periodcentered" unicode="&#xb7;" horiz-adv-x="1002" 
d="M583 343q0 -32 -23.5 -56.5t-58.5 -24.5q-32 0 -56.5 23.5t-24.5 58.5q0 32 23.5 56.5t58.5 24.5q32 0 56.5 -23.5t24.5 -58.5z" />
    <glyph glyph-name="cedilla" unicode="&#xb8;" horiz-adv-x="576" 
d="M461 -118q0 -20 -11 -34.5t-35.5 -23t-46.5 -14t-61.5 -7.5t-63 -2.5t-66.5 -0.5h-62v62h31q177 0 177 20t-97 20v104h124v-42q45 0 78 -22.5t33 -59.5z" />
    <glyph glyph-name="one.superior" unicode="&#xb9;" horiz-adv-x="472" 
d="M398 305l-80 1l-78 1q-125 0 -160 -2v33h114v301q-45 -13 -103 -13h-18v34h18q104 0 161 38q24 0 29.5 -3t5.5 -18v-339h111v-33z" />
    <glyph glyph-name="ordmasculine" unicode="&#xba;" horiz-adv-x="543" 
d="M509 534q0 -66 -61 -111.5t-177 -45.5t-176.5 45.5t-60.5 111.5q0 68 60 116t177 48q116 0 177 -48t61 -116zM481 327q0 -19 -28 -19h-363q-28 0 -28 19q0 8 8 14t20 6h363q12 0 20 -6t8 -14zM392 542q0 23 -1 35t-7 32t-18 30.5t-36 18.5t-59 8t-59 -8t-36 -18.5
t-18 -30.5t-7 -32t-1 -35q0 -31 2.5 -47t12.5 -38.5t36.5 -33t69.5 -10.5t69.5 10.5t36.5 33t12.5 38.5t2.5 47z" />
    <glyph glyph-name="guillemotright" unicode="&#xbb;" horiz-adv-x="718" 
d="M573 230q0 -9 -7 -14q-109 -83 -162 -205q-5 -11 -17 -11h-9q-8 0 -13 5t-5 13q0 3 1 4q24 108 83 208q-60 102 -83 208q-1 2 -1 4q0 8 5 13t13 5h9q12 0 17 -10q53 -123 162 -205q7 -7 7 -15zM359 230q0 -9 -7 -14q-109 -83 -162 -205q-5 -11 -17 -11h-9q-8 0 -13 5
t-5 13q0 3 1 4q24 108 83 208q-60 102 -83 208q-1 2 -1 4q0 8 5 13t13 5h9q12 0 17 -10q53 -123 162 -205q7 -7 7 -15z" />
    <glyph glyph-name="onequarter" unicode="&#xbc;" horiz-adv-x="1094" 
d="M398 305l-80 1l-78 1q-125 0 -160 -2v33h114v301q-45 -13 -103 -13h-18v34h18q104 0 161 38q24 0 29.5 -3t5.5 -18v-339h111v-33zM1021 0l-129 2q-103 0 -138 -2v34h89v58h-230v34l264 262q10 9 29 9h11q16 0 20.5 -4t4.5 -17v-250h79v-34h-79v-58h79v-34zM896 666
q0 -12 -8 -22l-517 -646q-11 -14 -28 -14q-15 0 -25.5 10.5t-10.5 25.5q0 12 7 22l518 647q11 13 28 13q15 0 25.5 -10.5t10.5 -25.5zM853 126v188l-190 -188h190z" />
    <glyph glyph-name="onehalf" unicode="&#xbd;" horiz-adv-x="1094" 
d="M398 305l-80 1l-78 1q-125 0 -160 -2v33h114v301q-45 -13 -103 -13h-18v34h18q104 0 161 38q24 0 29.5 -3t5.5 -18v-339h111v-33zM1021 137l-25 -137h-343v14q0 12 10 20l171 127q79 56 79 115q0 38 -31 61t-78 23q-40 0 -68 -14q29 -14 29 -42q0 -22 -17 -34.5
t-39 -12.5q-20 0 -38 12t-18 36q0 42 48 65.5t124 23.5q87 0 141.5 -32t54.5 -85q0 -21 -9 -39t-29.5 -34t-36 -25.5t-44.5 -24.5q-70 -39 -121 -72h98q60 0 75 3q14 2 21 52h46zM842 666q0 -12 -8 -22l-518 -646q-11 -14 -28 -14q-15 0 -25.5 10.5t-10.5 25.5q0 12 8 22
l518 647q10 13 28 13q15 0 25.5 -10.5t10.5 -25.5z" />
    <glyph glyph-name="threequarters" unicode="&#xbe;" horiz-adv-x="1094" 
d="M465 413q0 -45 -49 -80.5t-152 -35.5q-80 0 -131 25t-51 70q0 21 16 35t43 14q26 0 42 -14t16 -35q0 -32 -33 -45q37 -19 95 -19q30 0 49.5 9t27 25.5t9 26.5t1.5 25q0 16 -2.5 27.5t-10 26.5t-27.5 23.5t-50 8.5h-38q-23 0 -23 13q0 11 10 14q2 0 7.5 0.5t15.5 1t17 0.5
q48 2 67 29t19 57q0 10 -1.5 16.5t-7 17t-21 16.5t-40.5 6q-48 0 -82 -21q36 -10 36 -43q0 -18 -14.5 -31.5t-40.5 -13.5q-22 0 -38 12.5t-16 33.5q0 39 43 64.5t115 25.5q83 0 128 -24t45 -61q0 -35 -28.5 -60t-71.5 -38q60 -10 93 -38t33 -64zM1021 0l-129 2
q-103 0 -138 -2v34h89v58h-230v34l264 262q10 9 29 9h11q16 0 20.5 -4t4.5 -17v-250h79v-34h-79v-58h79v-34zM896 666q0 -12 -8 -22l-517 -646q-11 -14 -28 -14q-15 0 -25.5 10.5t-10.5 25.5q0 12 7 22l518 647q11 13 28 13q15 0 25.5 -10.5t10.5 -25.5zM853 126v188
l-190 -188h190z" />
    <glyph glyph-name="questiondown" unicode="&#xbf;" horiz-adv-x="612" 
d="M369 418q0 -32 -23.5 -56.5t-58.5 -24.5q-32 0 -56.5 23.5t-24.5 58.5q0 32 23.5 56.5t58.5 24.5q32 0 56.5 -23.5t24.5 -58.5zM536 -71q0 -129 -248 -129q-213 0 -213 130q0 63 66 104q115 71 115 181v22q0 20 5 26t26 6q24 0 28 -6.5t4 -40.5q0 -127 -84 -225
q-21 -25 -21 -74q0 -47 12.5 -62t66.5 -15q87 0 138 24q-34 17 -34 60q0 29 19 49t51 20q29 0 49 -19.5t20 -50.5z" />
    <glyph glyph-name="Agrave" unicode="&#xc0;" horiz-adv-x="968" 
d="M916 0l-165 4q-130 0 -182 -4v56h90l-63 140h-305l-54 -121l-5 -11q0 -8 86 -8v-56l-142 4q-20 0 -50 -1t-52 -2t-23 -1v56h30q27 0 46 2q18 2 22.5 4.5t9.5 11.5l269 602q6 14 14 20t15.5 7t26.5 1q18 0 25.5 -1t15.5 -7t14 -20l278 -620h99v-56zM571 252l-128 284
l-127 -284h255zM569 802l-27 -58l-177 46q-45 12 -52 49q-8 31 12 56t52 25q16 0 34 -11z" />
    <glyph glyph-name="Aacute" unicode="&#xc1;" horiz-adv-x="968" 
d="M916 0l-165 4q-130 0 -182 -4v56h90l-63 140h-305l-54 -121l-5 -11q0 -8 86 -8v-56l-142 4q-20 0 -50 -1t-52 -2t-23 -1v56h30q27 0 46 2q18 2 22.5 4.5t9.5 11.5l269 602q6 14 14 20t15.5 7t26.5 1q18 0 25.5 -1t15.5 -7t14 -20l278 -620h99v-56zM571 252l-128 284
l-127 -284h255zM654 839q-7 -37 -52 -49l-177 -46l-27 58l158 107q18 11 34 11q32 0 52 -25t12 -56z" />
    <glyph glyph-name="Acircumflex" unicode="&#xc2;" horiz-adv-x="968" 
d="M916 0l-165 4q-130 0 -182 -4v56h90l-63 140h-305l-54 -121l-5 -11q0 -8 86 -8v-56l-142 4q-20 0 -50 -1t-52 -2t-23 -1v56h30q27 0 46 2q18 2 22.5 4.5t9.5 11.5l269 602q6 14 14 20t15.5 7t26.5 1q18 0 25.5 -1t15.5 -7t14 -20l278 -620h99v-56zM571 252l-128 284
l-127 -284h255zM659 758l-16 -24l-160 58l-160 -58l-14 24l175 141z" />
    <glyph glyph-name="Atilde" unicode="&#xc3;" horiz-adv-x="968" 
d="M916 0l-165 4q-130 0 -182 -4v56h90l-63 140h-305l-54 -121l-5 -11q0 -8 86 -8v-56l-142 4q-20 0 -50 -1t-52 -2t-23 -1v56h30q27 0 46 2q18 2 22.5 4.5t9.5 11.5l269 602q6 14 14 20t15.5 7t26.5 1q18 0 25.5 -1t15.5 -7t14 -20l278 -620h99v-56zM571 252l-128 284
l-127 -284h255zM696 833q-68 -66 -91 -82.5t-55 -16.5q-29 0 -75 21q-52 23 -80 23q-47 0 -91 -44l-32 33q68 66 91 82.5t55 16.5q29 0 75 -21q52 -23 80 -23q47 0 91 44z" />
    <glyph glyph-name="Adieresis" unicode="&#xc4;" horiz-adv-x="968" 
d="M916 0l-165 4q-130 0 -182 -4v56h90l-63 140h-305l-54 -121l-5 -11q0 -8 86 -8v-56l-142 4q-20 0 -50 -1t-52 -2t-23 -1v56h30q27 0 46 2q18 2 22.5 4.5t9.5 11.5l269 602q6 14 14 20t15.5 7t26.5 1q18 0 25.5 -1t15.5 -7t14 -20l278 -620h99v-56zM571 252l-128 284
l-127 -284h255zM397 807q0 -29 -22 -51t-52 -22q-31 0 -52.5 21.5t-21.5 52.5q0 30 21.5 51.5t52.5 21.5q30 0 52 -21.5t22 -52.5zM718 807q0 -29 -22 -51t-52 -22q-31 0 -52.5 21.5t-21.5 52.5q0 30 21.5 51.5t52.5 21.5q30 0 52 -21.5t22 -52.5z" />
    <glyph glyph-name="Aring" unicode="&#xc5;" horiz-adv-x="968" 
d="M916 0l-165 4q-130 0 -182 -4v56h90l-63 140h-305l-54 -121l-5 -11q0 -8 86 -8v-56l-142 4q-20 0 -50 -1t-52 -2t-23 -1v56h30q27 0 46 2q18 2 22.5 4.5t9.5 11.5l269 602q6 14 14 20t15.5 7t26.5 1q18 0 25.5 -1t15.5 -7t14 -20l278 -620h99v-56zM571 252l-128 284
l-127 -284h255zM551 788q0 18 -9.5 26t-21 9.5t-36.5 1.5q-26 0 -37 -1.5t-20.5 -9.5t-9.5 -26t9.5 -26t21 -9.5t36.5 -1.5q26 0 37 1.5t20.5 9.5t9.5 26zM623 787q0 -31 -33 -57t-107 -26q-69 0 -103.5 25t-34.5 60q0 31 33 57t107 26q69 0 103.5 -25t34.5 -60z" />
    <glyph glyph-name="AE" unicode="&#xc6;" horiz-adv-x="1163" 
d="M1122 269l-51 -269h-614v56h80v246h-195l-109 -239q35 -7 85 -7v-56l-142 4l-124 -4v56h29q19 0 47 2q18 2 22.5 4.5t9.5 11.5l255 556h-64v56h702l34 -239h-63q-13 103 -55.5 143t-142.5 40h-147v-272h73q65 0 90 23t25 87h63v-276h-63q0 64 -25 87t-90 23h-73v-246h150
q45 0 79.5 6.5t57.5 22.5t38 31.5t26 44.5t16 49.5t13 58.5h63zM537 358v272h-44l-125 -272h169z" />
    <glyph glyph-name="Ccedilla" unicode="&#xc7;" horiz-adv-x="931" 
d="M855 228q0 -87 -77 -155t-204 -82v-27q45 0 78 -22.5t33 -59.5q0 -20 -11 -34.5t-35.5 -23t-46.5 -14t-61.5 -7.5t-63 -2.5t-66.5 -0.5h-62v62h31q177 0 177 20t-97 20v89q-180 17 -277.5 116t-97.5 236q0 152 116.5 253.5t325.5 101.5q125 0 224 -68l67 58q11 10 24 10
q11 0 16 -4.5t6 -10t1 -17.5v-213q0 -22 -5 -27t-27 -5h-7q-21 0 -25.5 4t-8.5 25q-16 81 -81.5 136.5t-159.5 55.5q-132 0 -215 -64q-88 -69 -88 -235q0 -149 71 -220q80 -79 234 -79q37 0 75 9t78 29t66.5 60t29.5 94q1 17 31 17q13 0 18.5 -1t9.5 -6.5t4 -17.5z" />
    <glyph glyph-name="Egrave" unicode="&#xc8;" horiz-adv-x="844" 
d="M803 269l-51 -269h-695v56h107v567h-107v56h677l34 -239h-63q-15 106 -62.5 144.5t-154.5 38.5h-173v-243h66q65 0 89.5 23t24.5 87h63v-276h-63q0 64 -24.5 87t-89.5 23h-66v-268h183q64 0 106.5 12.5t69 41t41 65t25.5 94.5h63zM508 802l-27 -58l-177 46q-45 12 -52 49
q-8 31 12 56t52 25q16 0 34 -11z" />
    <glyph glyph-name="Eacute" unicode="&#xc9;" horiz-adv-x="844" 
d="M803 269l-51 -269h-695v56h107v567h-107v56h677l34 -239h-63q-15 106 -62.5 144.5t-154.5 38.5h-173v-243h66q65 0 89.5 23t24.5 87h63v-276h-63q0 64 -24.5 87t-89.5 23h-66v-268h183q64 0 106.5 12.5t69 41t41 65t25.5 94.5h63zM593 839q-7 -37 -52 -49l-177 -46
l-27 58l158 107q18 11 34 11q32 0 52 -25t12 -56z" />
    <glyph glyph-name="Ecircumflex" unicode="&#xca;" horiz-adv-x="844" 
d="M803 269l-51 -269h-695v56h107v567h-107v56h677l34 -239h-63q-15 106 -62.5 144.5t-154.5 38.5h-173v-243h66q65 0 89.5 23t24.5 87h63v-276h-63q0 64 -24.5 87t-89.5 23h-66v-268h183q64 0 106.5 12.5t69 41t41 65t25.5 94.5h63zM598 758l-16 -24l-160 58l-160 -58
l-14 24l175 141z" />
    <glyph glyph-name="Edieresis" unicode="&#xcb;" horiz-adv-x="844" 
d="M803 269l-51 -269h-695v56h107v567h-107v56h677l34 -239h-63q-15 106 -62.5 144.5t-154.5 38.5h-173v-243h66q65 0 89.5 23t24.5 87h63v-276h-63q0 64 -24.5 87t-89.5 23h-66v-268h183q64 0 106.5 12.5t69 41t41 65t25.5 94.5h63zM336 807q0 -29 -22 -51t-52 -22
q-31 0 -52.5 21.5t-21.5 52.5q0 30 21.5 51.5t52.5 21.5q30 0 52 -21.5t22 -52.5zM657 807q0 -29 -22 -51t-52 -22q-31 0 -52.5 21.5t-21.5 52.5q0 30 21.5 51.5t52.5 21.5q30 0 52 -21.5t22 -52.5z" />
    <glyph glyph-name="Igrave" unicode="&#xcc;" horiz-adv-x="479" 
d="M428 0q-50 4 -189 4q-138 0 -188 -4v56h113v574h-113v56q50 -4 189 -4q138 0 188 4v-56h-113v-574h113v-56zM325 802l-27 -58l-177 46q-45 12 -52 49q-8 31 12 56t52 25q16 0 34 -11z" />
    <glyph glyph-name="Iacute" unicode="&#xcd;" horiz-adv-x="479" 
d="M428 0q-50 4 -189 4q-138 0 -188 -4v56h113v574h-113v56q50 -4 189 -4q138 0 188 4v-56h-113v-574h113v-56zM410 839q-7 -37 -52 -49l-177 -46l-27 58l158 107q18 11 34 11q32 0 52 -25t12 -56z" />
    <glyph glyph-name="Icircumflex" unicode="&#xce;" horiz-adv-x="479" 
d="M428 0q-50 4 -189 4q-138 0 -188 -4v56h113v574h-113v56q50 -4 189 -4q138 0 188 4v-56h-113v-574h113v-56zM415 758l-16 -24l-160 58l-160 -58l-14 24l175 141z" />
    <glyph glyph-name="Idieresis" unicode="&#xcf;" horiz-adv-x="479" 
d="M428 0q-50 4 -189 4q-138 0 -188 -4v56h113v574h-113v56q50 -4 189 -4q138 0 188 4v-56h-113v-574h113v-56zM153 807q0 -29 -22 -51t-52 -22q-31 0 -52.5 21.5t-21.5 52.5q0 30 21.5 51.5t52.5 21.5q30 0 52 -21.5t22 -52.5zM474 807q0 -29 -22 -51t-52 -22
q-31 0 -52.5 21.5t-21.5 52.5q0 30 21.5 51.5t52.5 21.5q30 0 52 -21.5t22 -52.5z" />
    <glyph glyph-name="Eth" unicode="&#xd0;" horiz-adv-x="985" 
d="M909 338q0 -155 -107.5 -246.5t-275.5 -91.5h-469v56h107v259h-107v56h107v259h-107v56h468q171 0 277.5 -96t106.5 -252zM753 338q0 22 -0.5 34.5t-2.5 38.5t-6.5 43.5t-14 42.5t-22.5 41.5t-34 35.5t-47 30t-62.5 18.5t-80.5 7.5h-175v-259h185v-56h-185v-259h176
q56 0 99.5 11.5t71.5 28t47.5 44t29 49t15 55t6 50t0.5 44.5z" />
    <glyph glyph-name="Ntilde" unicode="&#xd1;" horiz-adv-x="1002" 
d="M944 630h-33q-62 0 -71 -6q-3 -3 -3 -19v-570q0 -23 -6.5 -29t-28.5 -6q-16 0 -21 1.5t-13 10.5l-534 569v-500q0 -15 3.5 -18.5t20.5 -4.5q30 -2 50 -2h33v-56l-142 4l-142 -4v56h33q62 0 71 6q3 3 3 19v549h-107v56h235q16 0 21 -2t14 -11l440 -469v401q0 15 -3.5 18.5
t-20.5 4.5q-30 2 -50 2h-33v56l142 -4l142 4v-56zM713 833q-68 -66 -91 -82.5t-55 -16.5q-29 0 -75 21q-52 23 -80 23q-47 0 -91 -44l-32 33q68 66 91 82.5t55 16.5q29 0 75 -21q52 -23 80 -23q47 0 91 44z" />
    <glyph glyph-name="Ograve" unicode="&#xd2;" horiz-adv-x="968" 
d="M892 339q0 -151 -106.5 -251t-302.5 -100q-194 0 -301 99.5t-107 251.5q0 73 26 137t75 114t128.5 79t179.5 29q194 0 301 -102t107 -257zM729 354q0 21 -0.5 36t-5.5 48t-13.5 57.5t-26.5 55t-43.5 50t-65.5 33t-91 13.5q-124 0 -189 -81q-56 -72 -56 -212
q0 -143 50 -217q67 -96 195 -96q134 0 198 99q48 76 48 214zM570 802l-27 -58l-177 46q-45 12 -52 49q-8 31 12 56t52 25q16 0 34 -11z" />
    <glyph glyph-name="Oacute" unicode="&#xd3;" horiz-adv-x="968" 
d="M892 339q0 -151 -106.5 -251t-302.5 -100q-194 0 -301 99.5t-107 251.5q0 73 26 137t75 114t128.5 79t179.5 29q194 0 301 -102t107 -257zM729 354q0 21 -0.5 36t-5.5 48t-13.5 57.5t-26.5 55t-43.5 50t-65.5 33t-91 13.5q-124 0 -189 -81q-56 -72 -56 -212
q0 -143 50 -217q67 -96 195 -96q134 0 198 99q48 76 48 214zM655 839q-7 -37 -52 -49l-177 -46l-27 58l158 107q18 11 34 11q32 0 52 -25t12 -56z" />
    <glyph glyph-name="Ocircumflex" unicode="&#xd4;" horiz-adv-x="968" 
d="M892 339q0 -151 -106.5 -251t-302.5 -100q-194 0 -301 99.5t-107 251.5q0 73 26 137t75 114t128.5 79t179.5 29q194 0 301 -102t107 -257zM729 354q0 21 -0.5 36t-5.5 48t-13.5 57.5t-26.5 55t-43.5 50t-65.5 33t-91 13.5q-124 0 -189 -81q-56 -72 -56 -212
q0 -143 50 -217q67 -96 195 -96q134 0 198 99q48 76 48 214zM660 758l-16 -24l-160 58l-160 -58l-14 24l175 141z" />
    <glyph glyph-name="Otilde" unicode="&#xd5;" horiz-adv-x="968" 
d="M892 339q0 -151 -106.5 -251t-302.5 -100q-194 0 -301 99.5t-107 251.5q0 73 26 137t75 114t128.5 79t179.5 29q194 0 301 -102t107 -257zM729 354q0 21 -0.5 36t-5.5 48t-13.5 57.5t-26.5 55t-43.5 50t-65.5 33t-91 13.5q-124 0 -189 -81q-56 -72 -56 -212
q0 -143 50 -217q67 -96 195 -96q134 0 198 99q48 76 48 214zM697 833q-68 -66 -91 -82.5t-55 -16.5q-29 0 -75 21q-52 23 -80 23q-47 0 -91 -44l-32 33q68 66 91 82.5t55 16.5q29 0 75 -21q52 -23 80 -23q47 0 91 44z" />
    <glyph glyph-name="Odieresis" unicode="&#xd6;" horiz-adv-x="968" 
d="M892 339q0 -151 -106.5 -251t-302.5 -100q-194 0 -301 99.5t-107 251.5q0 73 26 137t75 114t128.5 79t179.5 29q194 0 301 -102t107 -257zM729 354q0 21 -0.5 36t-5.5 48t-13.5 57.5t-26.5 55t-43.5 50t-65.5 33t-91 13.5q-124 0 -189 -81q-56 -72 -56 -212
q0 -143 50 -217q67 -96 195 -96q134 0 198 99q48 76 48 214zM398 807q0 -29 -22 -51t-52 -22q-31 0 -52.5 21.5t-21.5 52.5q0 30 21.5 51.5t52.5 21.5q30 0 52 -21.5t22 -52.5zM719 807q0 -29 -22 -51t-52 -22q-31 0 -52.5 21.5t-21.5 52.5q0 30 21.5 51.5t52.5 21.5
q30 0 52 -21.5t22 -52.5z" />
    <glyph glyph-name="multiply" unicode="&#xd7;" horiz-adv-x="1002" 
d="M802 551q27 -27 -9 -59l-241 -241l241 -242q36 -32 8 -60q-27 -27 -59 9l-241 241l-242 -241q-32 -36 -60 -8q-27 27 9 59l241 242l-241 241q-36 32 -8 60q27 27 59 -9l242 -241l241 241q32 36 60 8z" />
    <glyph glyph-name="Oslash" unicode="&#xd8;" horiz-adv-x="1002" 
d="M926 339q0 -149 -110 -250t-316 -101q-120 0 -213 38l-71 -91l-39 32l63 83q-92 53 -128.5 132.5t-36.5 156.5q0 71 26 134.5t77 114.5t134 80.5t189 29.5q121 0 213 -39l70 92l41 -32l-65 -84q85 -48 125.5 -129t40.5 -167zM673 607q-70 45 -173 45q-140 0 -208 -77
q-37 -40 -51.5 -94t-14.5 -142q0 -73 12 -129t50 -99zM775 339q0 80 -13 136t-50 98l-384 -495q68 -44 173 -44q56 0 101 13t73 31t48.5 48t30 54t15 59.5t6 53t0.5 46.5z" />
    <glyph glyph-name="Ugrave" unicode="&#xd9;" horiz-adv-x="985" 
d="M927 630h-33q-62 0 -71 -6q-3 -3 -3 -19v-375q0 -46 -17.5 -87.5t-53 -77t-97 -56.5t-142.5 -21q-169 0 -257.5 70.5t-88.5 172.5v399h-107v56q44 -4 183 -4q136 0 182 4v-56h-107v-402q0 -26 2.5 -46.5t14 -48t31.5 -45.5t59 -31t92 -13q46 0 85.5 9.5t74.5 30t55 59
t20 91.5v371q0 15 -3.5 18.5t-20.5 4.5q-30 2 -50 2h-33v56l143 -4l142 4v-56zM607 802l-27 -58l-177 46q-45 12 -52 49q-8 31 12 56t52 25q16 0 34 -11z" />
    <glyph glyph-name="Uacute" unicode="&#xda;" horiz-adv-x="985" 
d="M927 630h-33q-62 0 -71 -6q-3 -3 -3 -19v-375q0 -46 -17.5 -87.5t-53 -77t-97 -56.5t-142.5 -21q-169 0 -257.5 70.5t-88.5 172.5v399h-107v56q44 -4 183 -4q136 0 182 4v-56h-107v-402q0 -26 2.5 -46.5t14 -48t31.5 -45.5t59 -31t92 -13q46 0 85.5 9.5t74.5 30t55 59
t20 91.5v371q0 15 -3.5 18.5t-20.5 4.5q-30 2 -50 2h-33v56l143 -4l142 4v-56zM692 839q-7 -37 -52 -49l-177 -46l-27 58l158 107q18 11 34 11q32 0 52 -25t12 -56z" />
    <glyph glyph-name="Ucircumflex" unicode="&#xdb;" horiz-adv-x="985" 
d="M927 630h-33q-62 0 -71 -6q-3 -3 -3 -19v-375q0 -46 -17.5 -87.5t-53 -77t-97 -56.5t-142.5 -21q-169 0 -257.5 70.5t-88.5 172.5v399h-107v56q44 -4 183 -4q136 0 182 4v-56h-107v-402q0 -26 2.5 -46.5t14 -48t31.5 -45.5t59 -31t92 -13q46 0 85.5 9.5t74.5 30t55 59
t20 91.5v371q0 15 -3.5 18.5t-20.5 4.5q-30 2 -50 2h-33v56l143 -4l142 4v-56zM697 758l-16 -24l-160 58l-160 -58l-14 24l175 141z" />
    <glyph glyph-name="Udieresis" unicode="&#xdc;" horiz-adv-x="985" 
d="M927 630h-33q-62 0 -71 -6q-3 -3 -3 -19v-375q0 -46 -17.5 -87.5t-53 -77t-97 -56.5t-142.5 -21q-169 0 -257.5 70.5t-88.5 172.5v399h-107v56q44 -4 183 -4q136 0 182 4v-56h-107v-402q0 -26 2.5 -46.5t14 -48t31.5 -45.5t59 -31t92 -13q46 0 85.5 9.5t74.5 30t55 59
t20 91.5v371q0 15 -3.5 18.5t-20.5 4.5q-30 2 -50 2h-33v56l143 -4l142 4v-56zM435 807q0 -29 -22 -51t-52 -22q-31 0 -52.5 21.5t-21.5 52.5q0 30 21.5 51.5t52.5 21.5q30 0 52 -21.5t22 -52.5zM756 807q0 -29 -22 -51t-52 -22q-31 0 -52.5 21.5t-21.5 52.5q0 30 21.5 51.5
t52.5 21.5q30 0 52 -21.5t22 -52.5z" />
    <glyph glyph-name="Yacute" unicode="&#xdd;" horiz-adv-x="968" 
d="M936 630h-30q-20 0 -50 -2q-18 -1 -22.5 -3.5t-11.5 -10.5l-267 -340v-218h107v-56l-179 4q-131 0 -179 -4v56h107v218l-279 356h-101v56l168 -4q142 0 191 4v-56h-75l215 -273l209 267q-24 6 -69 6v56l144 -4q67 0 122 4v-56zM654 839q-7 -37 -52 -49l-177 -46l-27 58
l158 107q18 11 34 11q32 0 52 -25t12 -56z" />
    <glyph glyph-name="Thorn" unicode="&#xde;" horiz-adv-x="809" 
d="M731 373q0 -23 -6 -46.5t-24.5 -51t-47.5 -48.5t-79.5 -35t-115.5 -14h-154v-122h107v-55l-176 3l-176 -3v55h107v574h-107v55l176 -3l176 3v-55h-107v-62h166q122 0 191.5 -55.5t69.5 -139.5zM575 374q0 16 -3.5 33t-15 44t-41.5 44t-74 17h-137v-278h113q74 0 114 34
q44 38 44 106z" />
    <glyph glyph-name="germandbls" unicode="&#xdf;" horiz-adv-x="669" 
d="M628 180q0 -84 -64 -135t-167 -51q-55 0 -86.5 28t-31.5 64q0 25 15.5 41t40.5 16q24 0 40 -15.5t16 -40.5q0 -12 -4.5 -23t-8.5 -16l-5 -4q11 -4 22 -4q103 0 103 139q0 21 -1 38t-9.5 52t-23 59.5t-46.5 45.5t-76 24q-11 1 -16 2t-9 6t-4 15t4 15.5t8.5 6t15.5 1.5
q122 5 122 116q0 94 -108 94q-40 0 -65 -10.5t-34.5 -30t-11.5 -31t-2 -29.5v-553q-27 4 -65 4l-122 -4v56h67v332h-67v56h67v110q0 68 62 107t172 39q121 0 179 -42t58 -98q0 -41 -29.5 -80.5t-91.5 -60.5q82 -36 119 -102.5t37 -136.5z" />
    <glyph glyph-name="agrave" unicode="&#xe0;" horiz-adv-x="629" 
d="M619 28q0 -13 -5.5 -19.5t-11.5 -7.5t-18 -1h-59q-59 0 -84 17t-25 51q-48 -74 -170 -74q-55 0 -99.5 10t-77.5 38.5t-33 72.5q0 42 34 72.5t77.5 45t102 23t89 10t57.5 1.5v27q0 113 -122 113q-71 0 -71 -7q1 -4 3 -7q12 -12 12 -40q0 -29 -19 -49t-51 -20q-29 0 -49 19
t-20 51q0 24 10 42t29 28t37.5 16.5t45.5 9t40.5 3t35.5 0.5q126 0 186 -45t60 -113v-208q0 -14 2.5 -19t15.5 -8.5t42 -3.5q13 0 19 -1t11.5 -7.5t5.5 -19.5zM396 137v91q-41 -1 -79.5 -7.5t-74.5 -18.5t-58 -34.5t-22 -51.5q0 -33 30.5 -54.5t73.5 -21.5q53 0 91 23
q39 24 39 74zM396 553l-36 -52l-167 76q-42 18 -42 57q0 23 18.5 46t47.5 23q25 0 42 -17z" />
    <glyph glyph-name="aacute" unicode="&#xe1;" horiz-adv-x="629" 
d="M619 28q0 -13 -5.5 -19.5t-11.5 -7.5t-18 -1h-59q-59 0 -84 17t-25 51q-48 -74 -170 -74q-55 0 -99.5 10t-77.5 38.5t-33 72.5q0 42 34 72.5t77.5 45t102 23t89 10t57.5 1.5v27q0 113 -122 113q-71 0 -71 -7q1 -4 3 -7q12 -12 12 -40q0 -29 -19 -49t-51 -20q-29 0 -49 19
t-20 51q0 24 10 42t29 28t37.5 16.5t45.5 9t40.5 3t35.5 0.5q126 0 186 -45t60 -113v-208q0 -14 2.5 -19t15.5 -8.5t42 -3.5q13 0 19 -1t11.5 -7.5t5.5 -19.5zM396 137v91q-41 -1 -79.5 -7.5t-74.5 -18.5t-58 -34.5t-22 -51.5q0 -33 30.5 -54.5t73.5 -21.5q53 0 91 23
q39 24 39 74zM478 634q0 -39 -42 -57l-167 -76l-36 52l137 133q17 17 42 17q29 0 47.5 -23t18.5 -46z" />
    <glyph glyph-name="acircumflex" unicode="&#xe2;" horiz-adv-x="629" 
d="M619 28q0 -13 -5.5 -19.5t-11.5 -7.5t-18 -1h-59q-59 0 -84 17t-25 51q-48 -74 -170 -74q-55 0 -99.5 10t-77.5 38.5t-33 72.5q0 42 34 72.5t77.5 45t102 23t89 10t57.5 1.5v27q0 113 -122 113q-71 0 -71 -7q1 -4 3 -7q12 -12 12 -40q0 -29 -19 -49t-51 -20q-29 0 -49 19
t-20 51q0 24 10 42t29 28t37.5 16.5t45.5 9t40.5 3t35.5 0.5q126 0 186 -45t60 -113v-208q0 -14 2.5 -19t15.5 -8.5t42 -3.5q13 0 19 -1t11.5 -7.5t5.5 -19.5zM396 137v91q-41 -1 -79.5 -7.5t-74.5 -18.5t-58 -34.5t-22 -51.5q0 -33 30.5 -54.5t73.5 -21.5q53 0 91 23
q39 24 39 74zM492 521l-20 -22l-158 99l-158 -99l-18 22l177 185z" />
    <glyph glyph-name="atilde" unicode="&#xe3;" horiz-adv-x="629" 
d="M619 28q0 -13 -5.5 -19.5t-11.5 -7.5t-18 -1h-59q-59 0 -84 17t-25 51q-48 -74 -170 -74q-55 0 -99.5 10t-77.5 38.5t-33 72.5q0 42 34 72.5t77.5 45t102 23t89 10t57.5 1.5v27q0 113 -122 113q-71 0 -71 -7q1 -4 3 -7q12 -12 12 -40q0 -29 -19 -49t-51 -20q-29 0 -49 19
t-20 51q0 24 10 42t29 28t37.5 16.5t45.5 9t40.5 3t35.5 0.5q126 0 186 -45t60 -113v-208q0 -14 2.5 -19t15.5 -8.5t42 -3.5q13 0 19 -1t11.5 -7.5t5.5 -19.5zM396 137v91q-41 -1 -79.5 -7.5t-74.5 -18.5t-58 -34.5t-22 -51.5q0 -33 30.5 -54.5t73.5 -21.5q53 0 91 23
q39 24 39 74zM527 635q-68 -66 -91 -82.5t-55 -16.5q-29 0 -75 21q-52 23 -80 23q-47 0 -91 -44l-32 33q68 66 91 82.5t55 16.5q29 0 75 -21q52 -23 80 -23q47 0 91 44z" />
    <glyph glyph-name="adieresis" unicode="&#xe4;" horiz-adv-x="629" 
d="M619 28q0 -13 -5.5 -19.5t-11.5 -7.5t-18 -1h-59q-59 0 -84 17t-25 51q-48 -74 -170 -74q-55 0 -99.5 10t-77.5 38.5t-33 72.5q0 42 34 72.5t77.5 45t102 23t89 10t57.5 1.5v27q0 113 -122 113q-71 0 -71 -7q1 -4 3 -7q12 -12 12 -40q0 -29 -19 -49t-51 -20q-29 0 -49 19
t-20 51q0 24 10 42t29 28t37.5 16.5t45.5 9t40.5 3t35.5 0.5q126 0 186 -45t60 -113v-208q0 -14 2.5 -19t15.5 -8.5t42 -3.5q13 0 19 -1t11.5 -7.5t5.5 -19.5zM396 137v91q-41 -1 -79.5 -7.5t-74.5 -18.5t-58 -34.5t-22 -51.5q0 -33 30.5 -54.5t73.5 -21.5q53 0 91 23
q39 24 39 74zM253 602q0 -29 -22 -51t-52 -22q-31 0 -52.5 21.5t-21.5 52.5q0 30 21.5 51.5t52.5 21.5q30 0 52 -21.5t22 -52.5zM524 602q0 -29 -22 -51t-52 -22q-31 0 -52.5 21.5t-21.5 52.5q0 30 21.5 51.5t52.5 21.5q30 0 52 -21.5t22 -52.5z" />
    <glyph glyph-name="aring" unicode="&#xe5;" horiz-adv-x="629" 
d="M619 28q0 -13 -5.5 -19.5t-11.5 -7.5t-18 -1h-59q-59 0 -84 17t-25 51q-48 -74 -170 -74q-55 0 -99.5 10t-77.5 38.5t-33 72.5q0 42 34 72.5t77.5 45t102 23t89 10t57.5 1.5v27q0 113 -122 113q-71 0 -71 -7q1 -4 3 -7q12 -12 12 -40q0 -29 -19 -49t-51 -20q-29 0 -49 19
t-20 51q0 24 10 42t29 28t37.5 16.5t45.5 9t40.5 3t35.5 0.5q126 0 186 -45t60 -113v-208q0 -14 2.5 -19t15.5 -8.5t42 -3.5q13 0 19 -1t11.5 -7.5t5.5 -19.5zM396 137v91q-41 -1 -79.5 -7.5t-74.5 -18.5t-58 -34.5t-22 -51.5q0 -33 30.5 -54.5t73.5 -21.5q53 0 91 23
q39 24 39 74zM382 611q0 18 -9.5 26t-21 9.5t-36.5 1.5q-26 0 -37 -1.5t-20.5 -9.5t-9.5 -26t9.5 -26t21 -9.5t36.5 -1.5q26 0 37 1.5t20.5 9.5t9.5 26zM454 610q0 -31 -33 -57t-107 -26q-69 0 -103.5 25t-34.5 60q0 31 33 57t107 26q69 0 103.5 -25t34.5 -60z" />
    <glyph glyph-name="ae" unicode="&#xe6;" horiz-adv-x="931" 
d="M890 114q0 -6 -5 -18.5t-19.5 -30.5t-36 -33.5t-59 -26.5t-83.5 -11q-123 0 -204 61q-57 -61 -226 -61q-21 0 -37.5 0.5t-51.5 7t-58.5 17t-42.5 34t-19 55.5q0 23 11.5 42t26.5 30.5t39.5 22t41 15t39.5 10.5q61 13 196 19v47q0 113 -122 113q-72 0 -72 -7q1 -4 3 -7
q12 -12 12 -40q0 -29 -19 -49t-51 -20q-29 0 -49 19t-20 51q0 34 20 56t57 30.5t61.5 10.5t59.5 2q137 0 202 -56q73 56 186 56q112 0 166 -60q54 -59 54 -154q0 -15 -5 -22t-10.5 -8t-19.5 -1h-326q8 -163 171 -163q95 0 128 76q7 15 30 15q32 0 32 -22zM791 250
q-5 157 -120 157q-39 0 -67.5 -14.5t-42 -32.5t-21.5 -43.5t-9 -39t-1 -27.5h261zM422 125q0 8 -4 16q-12 33 -15 63q-91 -3 -148 -21q-81 -28 -81 -75q0 -27 27 -47.5t73 -20.5q32 0 63.5 7t58 27.5t26.5 50.5z" />
    <glyph glyph-name="ccedilla" unicode="&#xe7;" horiz-adv-x="576" 
d="M535 114q0 -5 -5.5 -18t-23 -34.5t-43.5 -36.5q-37 -21 -84 -27v-34q45 0 78 -22.5t33 -59.5q0 -20 -11 -34.5t-35.5 -23t-47 -14t-62 -7.5t-62.5 -2.5t-66 -0.5h-62v62h31q177 0 177 20t-97 20v97q-102 17 -155 79.5t-53 143.5q0 39 13.5 76t43 73.5t88 59t137.5 22.5
q192 0 192 -99q0 -31 -19.5 -50.5t-50.5 -19.5q-30 0 -49.5 19.5t-19.5 49.5q0 23 11 40l2 4q0 5 -63 5q-48 0 -79 -16t-44.5 -45t-18 -55t-4.5 -60q0 -181 161 -181q92 0 124 71q5 11 10 13.5t22 2.5q32 0 32 -18z" />
    <glyph glyph-name="egrave" unicode="&#xe8;" horiz-adv-x="592" 
d="M551 114q0 -7 -6.5 -20.5t-25 -34t-45.5 -34.5q-57 -31 -144 -31q-140 0 -215 67t-75 164q0 95 71 161.5t202 66.5q121 0 183 -62q55 -56 55 -153q0 -14 -5 -21t-11 -8t-19 -1h-337q1 -21 2.5 -35.5t11 -41t25.5 -43t48.5 -30t77.5 -13.5q108 0 144 74q6 11 11.5 14
t19.5 3q32 0 32 -22zM452 250q-7 157 -138 157t-135 -157h273zM378 553l-36 -52l-167 76q-42 18 -42 57q0 23 18.5 46t47.5 23q25 0 42 -17z" />
    <glyph glyph-name="eacute" unicode="&#xe9;" horiz-adv-x="592" 
d="M551 114q0 -7 -6.5 -20.5t-25 -34t-45.5 -34.5q-57 -31 -144 -31q-140 0 -215 67t-75 164q0 95 71 161.5t202 66.5q121 0 183 -62q55 -56 55 -153q0 -14 -5 -21t-11 -8t-19 -1h-337q1 -21 2.5 -35.5t11 -41t25.5 -43t48.5 -30t77.5 -13.5q108 0 144 74q6 11 11.5 14
t19.5 3q32 0 32 -22zM452 250q-7 157 -138 157t-135 -157h273zM460 634q0 -39 -42 -57l-167 -76l-36 52l137 133q17 17 42 17q29 0 47.5 -23t18.5 -46z" />
    <glyph glyph-name="ecircumflex" unicode="&#xea;" horiz-adv-x="592" 
d="M551 114q0 -7 -6.5 -20.5t-25 -34t-45.5 -34.5q-57 -31 -144 -31q-140 0 -215 67t-75 164q0 95 71 161.5t202 66.5q121 0 183 -62q55 -56 55 -153q0 -14 -5 -21t-11 -8t-19 -1h-337q1 -21 2.5 -35.5t11 -41t25.5 -43t48.5 -30t77.5 -13.5q108 0 144 74q6 11 11.5 14
t19.5 3q32 0 32 -22zM452 250q-7 157 -138 157t-135 -157h273zM474 521l-20 -22l-158 99l-158 -99l-18 22l177 185z" />
    <glyph glyph-name="edieresis" unicode="&#xeb;" horiz-adv-x="592" 
d="M551 114q0 -7 -6.5 -20.5t-25 -34t-45.5 -34.5q-57 -31 -144 -31q-140 0 -215 67t-75 164q0 95 71 161.5t202 66.5q121 0 183 -62q55 -56 55 -153q0 -14 -5 -21t-11 -8t-19 -1h-337q1 -21 2.5 -35.5t11 -41t25.5 -43t48.5 -30t77.5 -13.5q108 0 144 74q6 11 11.5 14
t19.5 3q32 0 32 -22zM452 250q-7 157 -138 157t-135 -157h273zM235 602q0 -29 -22 -51t-52 -22q-31 0 -52.5 21.5t-21.5 52.5q0 30 21.5 51.5t52.5 21.5q30 0 52 -21.5t22 -52.5zM506 602q0 -29 -22 -51t-52 -22q-31 0 -52.5 21.5t-21.5 52.5q0 30 21.5 51.5t52.5 21.5
q30 0 52 -21.5t22 -52.5z" />
    <glyph glyph-name="igrave" unicode="&#xec;" horiz-adv-x="363" 
d="M315 0q-55 4 -122 4l-126 -4v56h67v291q0 28 -10 33.5t-54 5.5v56l184 8v-394h61v-56zM263 553l-36 -52l-167 76q-42 18 -42 57q0 23 18.5 46t47.5 23q25 0 42 -17z" />
    <glyph glyph-name="iacute" unicode="&#xed;" horiz-adv-x="363" 
d="M315 0q-55 4 -122 4l-126 -4v56h67v291q0 28 -10 33.5t-54 5.5v56l184 8v-394h61v-56zM345 634q0 -39 -42 -57l-167 -76l-36 52l137 133q17 17 42 17q29 0 47.5 -23t18.5 -46z" />
    <glyph glyph-name="icircumflex" unicode="&#xee;" horiz-adv-x="363" 
d="M315 0q-55 4 -122 4l-126 -4v56h67v291q0 28 -10 33.5t-54 5.5v56l184 8v-394h61v-56zM359 521l-20 -22l-158 99l-158 -99l-18 22l177 185z" />
    <glyph glyph-name="idieresis" unicode="&#xef;" horiz-adv-x="363" 
d="M315 0q-55 4 -122 4l-126 -4v56h67v291q0 28 -10 33.5t-54 5.5v56l184 8v-394h61v-56zM120 602q0 -29 -22 -51t-52 -22q-31 0 -52.5 21.5t-21.5 52.5q0 30 21.5 51.5t52.5 21.5q30 0 52 -21.5t22 -52.5zM391 602q0 -29 -22 -51t-52 -22q-31 0 -52.5 21.5t-21.5 52.5
q0 30 21.5 51.5t52.5 21.5q30 0 52 -21.5t22 -52.5z" />
    <glyph glyph-name="eth" unicode="&#xf0;" 
d="M607 222q0 -103 -76.5 -165.5t-207.5 -62.5q-138 0 -211 65t-73 159q0 101 75.5 168t204.5 67q81 0 139 -48q-27 99 -108 166l-121 -54l-23 52l89 39q-78 44 -172 49l3 53q163 5 278 -53l123 55l23 -52l-89 -39l7 -6q69 -57 104 -131.5t35 -153.5v-108zM468 218
q0 13 -1 24.5t-4.5 37t-13 44.5t-24.5 39.5t-41.5 32t-61.5 11.5q-78 0 -116 -49q-28 -36 -28 -129q0 -27 1 -44t8.5 -46.5t21.5 -47.5t43.5 -32t70.5 -14t70.5 14.5t43.5 32t21.5 46t8.5 43.5t1 37z" />
    <glyph glyph-name="ntilde" unicode="&#xf1;" horiz-adv-x="718" 
d="M679 0q-82 4 -131 4l-130 -4v56h67v253q0 53 -14.5 74t-48.5 21t-69.5 -13.5t-65 -50.5t-29.5 -91v-193h67v-56q-82 4 -131 4l-130 -4v56h67v291q0 28 -10.5 33.5t-56.5 5.5v56l181 8v-104q13 22 32 42t64 41t100 21q79 0 125 -32t46 -117v-245h67v-56zM572 635
q-68 -66 -91 -82.5t-55 -16.5q-29 0 -75 21q-52 23 -80 23q-47 0 -91 -44l-32 33q68 66 91 82.5t55 16.5q29 0 75 -21q52 -23 80 -23q47 0 91 44z" />
    <glyph glyph-name="ograve" unicode="&#xf2;" 
d="M606 218q0 -94 -72.5 -159t-210.5 -65t-210.5 64.5t-72.5 159.5q0 97 72 166t211 69q138 0 210.5 -68.5t72.5 -166.5zM467 230q0 27 -1 41.5t-4.5 39t-12.5 38.5t-24.5 29t-41 22t-60.5 7t-60.5 -7t-41 -22t-24.5 -29t-12.5 -38.5t-4.5 -39t-1 -41.5q0 -35 1 -53.5
t8.5 -48t21.5 -44.5t43 -27t70 -12t70 12t43 27t21.5 44.5t8.5 48t1 53.5zM405 553l-36 -52l-167 76q-42 18 -42 57q0 23 18.5 46t47.5 23q25 0 42 -17z" />
    <glyph glyph-name="oacute" unicode="&#xf3;" 
d="M606 218q0 -94 -72.5 -159t-210.5 -65t-210.5 64.5t-72.5 159.5q0 97 72 166t211 69q138 0 210.5 -68.5t72.5 -166.5zM467 230q0 27 -1 41.5t-4.5 39t-12.5 38.5t-24.5 29t-41 22t-60.5 7t-60.5 -7t-41 -22t-24.5 -29t-12.5 -38.5t-4.5 -39t-1 -41.5q0 -35 1 -53.5
t8.5 -48t21.5 -44.5t43 -27t70 -12t70 12t43 27t21.5 44.5t8.5 48t1 53.5zM487 634q0 -39 -42 -57l-167 -76l-36 52l137 133q17 17 42 17q29 0 47.5 -23t18.5 -46z" />
    <glyph glyph-name="ocircumflex" unicode="&#xf4;" 
d="M606 218q0 -94 -72.5 -159t-210.5 -65t-210.5 64.5t-72.5 159.5q0 97 72 166t211 69q138 0 210.5 -68.5t72.5 -166.5zM467 230q0 27 -1 41.5t-4.5 39t-12.5 38.5t-24.5 29t-41 22t-60.5 7t-60.5 -7t-41 -22t-24.5 -29t-12.5 -38.5t-4.5 -39t-1 -41.5q0 -35 1 -53.5
t8.5 -48t21.5 -44.5t43 -27t70 -12t70 12t43 27t21.5 44.5t8.5 48t1 53.5zM501 521l-20 -22l-158 99l-158 -99l-18 22l177 185z" />
    <glyph glyph-name="otilde" unicode="&#xf5;" 
d="M606 218q0 -94 -72.5 -159t-210.5 -65t-210.5 64.5t-72.5 159.5q0 97 72 166t211 69q138 0 210.5 -68.5t72.5 -166.5zM467 230q0 27 -1 41.5t-4.5 39t-12.5 38.5t-24.5 29t-41 22t-60.5 7t-60.5 -7t-41 -22t-24.5 -29t-12.5 -38.5t-4.5 -39t-1 -41.5q0 -35 1 -53.5
t8.5 -48t21.5 -44.5t43 -27t70 -12t70 12t43 27t21.5 44.5t8.5 48t1 53.5zM536 635q-68 -66 -91 -82.5t-55 -16.5q-29 0 -75 21q-52 23 -80 23q-47 0 -91 -44l-32 33q68 66 91 82.5t55 16.5q29 0 75 -21q52 -23 80 -23q47 0 91 44z" />
    <glyph glyph-name="odieresis" unicode="&#xf6;" 
d="M606 218q0 -94 -72.5 -159t-210.5 -65t-210.5 64.5t-72.5 159.5q0 97 72 166t211 69q138 0 210.5 -68.5t72.5 -166.5zM467 230q0 27 -1 41.5t-4.5 39t-12.5 38.5t-24.5 29t-41 22t-60.5 7t-60.5 -7t-41 -22t-24.5 -29t-12.5 -38.5t-4.5 -39t-1 -41.5q0 -35 1 -53.5
t8.5 -48t21.5 -44.5t43 -27t70 -12t70 12t43 27t21.5 44.5t8.5 48t1 53.5zM262 602q0 -29 -22 -51t-52 -22q-31 0 -52.5 21.5t-21.5 52.5q0 30 21.5 51.5t52.5 21.5q30 0 52 -21.5t22 -52.5zM533 602q0 -29 -22 -51t-52 -22q-31 0 -52.5 21.5t-21.5 52.5q0 30 21.5 51.5
t52.5 21.5q30 0 52 -21.5t22 -52.5z" />
    <glyph glyph-name="divide" unicode="&#xf7;" horiz-adv-x="1002" 
d="M926 250q0 -36 -46 -36h-759q-46 0 -46 36q0 37 52 37h747q52 0 52 -37zM582 519q0 -32 -23.5 -56.5t-58.5 -24.5q-32 0 -56.5 23.5t-24.5 58.5q0 32 23.5 56.5t58.5 24.5q32 0 56.5 -23.5t24.5 -58.5zM582 -19q0 -32 -23.5 -56.5t-58.5 -24.5q-32 0 -56.5 23.5
t-24.5 58.5q0 32 23.5 56.5t58.5 24.5q32 0 56.5 -23.5t24.5 -58.5z" />
    <glyph glyph-name="oslash" unicode="&#xf8;" 
d="M606 218q0 -94 -72.5 -159t-210.5 -65q-67 0 -118 16l-83 -120l-37 26l76 112q-56 25 -88.5 76.5t-32.5 113.5q0 97 72 166t211 69q68 0 119 -17l82 119l37 -26l-75 -111q120 -66 120 -200zM410 390q-34 17 -87 17q-32 0 -57.5 -7t-41.5 -16.5t-27.5 -27t-17 -31
t-8.5 -36.5t-3.5 -35.5t-0.5 -34.5q0 -32 1 -50t8.5 -44t22.5 -42zM479 219q0 54 -5 81q-3 16 -10 31t-12 21l-5 7q-7 -6 -8 -8l-202 -295q34 -16 86 -16q45 0 76 12.5t46.5 28t23.5 44t9 46t1 48.5z" />
    <glyph glyph-name="ugrave" unicode="&#xf9;" horiz-adv-x="718" 
d="M679 0l-187 -6v71q-57 -71 -164 -71q-31 0 -54.5 2t-51.5 9.5t-46.5 20.5t-31.5 37.5t-13 57.5v226q0 28 -10.5 33.5t-56.5 5.5v56l194 8v-340q0 -22 1.5 -32t9.5 -20.5t26 -14t50 -3.5q61 0 100.5 31.5t39.5 90.5v185q0 28 -10.5 33.5t-56.5 5.5v56l194 8v-355
q0 -28 10.5 -33.5t56.5 -5.5v-56zM441 553l-36 -52l-167 76q-42 18 -42 57q0 23 18.5 46t47.5 23q25 0 42 -17z" />
    <glyph glyph-name="uacute" unicode="&#xfa;" horiz-adv-x="718" 
d="M679 0l-187 -6v71q-57 -71 -164 -71q-31 0 -54.5 2t-51.5 9.5t-46.5 20.5t-31.5 37.5t-13 57.5v226q0 28 -10.5 33.5t-56.5 5.5v56l194 8v-340q0 -22 1.5 -32t9.5 -20.5t26 -14t50 -3.5q61 0 100.5 31.5t39.5 90.5v185q0 28 -10.5 33.5t-56.5 5.5v56l194 8v-355
q0 -28 10.5 -33.5t56.5 -5.5v-56zM523 634q0 -39 -42 -57l-167 -76l-36 52l137 133q17 17 42 17q29 0 47.5 -23t18.5 -46z" />
    <glyph glyph-name="ucircumflex" unicode="&#xfb;" horiz-adv-x="718" 
d="M679 0l-187 -6v71q-57 -71 -164 -71q-31 0 -54.5 2t-51.5 9.5t-46.5 20.5t-31.5 37.5t-13 57.5v226q0 28 -10.5 33.5t-56.5 5.5v56l194 8v-340q0 -22 1.5 -32t9.5 -20.5t26 -14t50 -3.5q61 0 100.5 31.5t39.5 90.5v185q0 28 -10.5 33.5t-56.5 5.5v56l194 8v-355
q0 -28 10.5 -33.5t56.5 -5.5v-56zM537 521l-20 -22l-158 99l-158 -99l-18 22l177 185z" />
    <glyph glyph-name="udieresis" unicode="&#xfc;" horiz-adv-x="718" 
d="M679 0l-187 -6v71q-57 -71 -164 -71q-31 0 -54.5 2t-51.5 9.5t-46.5 20.5t-31.5 37.5t-13 57.5v226q0 28 -10.5 33.5t-56.5 5.5v56l194 8v-340q0 -22 1.5 -32t9.5 -20.5t26 -14t50 -3.5q61 0 100.5 31.5t39.5 90.5v185q0 28 -10.5 33.5t-56.5 5.5v56l194 8v-355
q0 -28 10.5 -33.5t56.5 -5.5v-56zM298 602q0 -29 -22 -51t-52 -22q-31 0 -52.5 21.5t-21.5 52.5q0 30 21.5 51.5t52.5 21.5q30 0 52 -21.5t22 -52.5zM569 602q0 -29 -22 -51t-52 -22q-31 0 -52.5 21.5t-21.5 52.5q0 30 21.5 51.5t52.5 21.5q30 0 52 -21.5t22 -52.5z" />
    <glyph glyph-name="yacute" unicode="&#xfd;" horiz-adv-x="683" 
d="M646 388q-33 0 -45 -1q-16 -2 -20 -4.5t-10 -13.5l-227 -440q-33 -63 -86 -96t-111 -33q-50 0 -84 29t-34 71q0 31 19 48t46 17t46 -17t19 -48q0 -35 -26 -53q4 -1 15 -1q32 0 66 18.5t56 59.5q17 28 39 76l-207 388h-66v56l20 -1q21 -1 49.5 -2t48.5 -1q21 0 52.5 1
t55.5 2l23 1v-56h-46l138 -258l129 252q-18 6 -43 6v56q40 -4 99 -4q28 0 84 4v-56zM505 634q0 -39 -42 -57l-167 -76l-36 52l137 133q17 17 42 17q29 0 47.5 -23t18.5 -46z" />
    <glyph glyph-name="thorn" unicode="&#xfe;" horiz-adv-x="718" 
d="M670 223q0 -101 -75 -165t-202 -64q-81 0 -144 43v-175h67v-56q-82 4 -131 4l-130 -4v56h67v489v240q0 28 -10.5 33.5t-56.5 5.5v56l187 8v-290q74 46 171 46q122 0 189.5 -65.5t67.5 -161.5zM531 223q0 81 -37.5 128.5t-101.5 47.5q-75 0 -128 -46q-11 -10 -13 -14.5
t-2 -18.5v-209q50 -71 131 -71q63 0 107 46t44 137z" />
    <glyph glyph-name="ydieresis" unicode="&#xff;" horiz-adv-x="683" 
d="M646 388q-33 0 -45 -1q-16 -2 -20 -4.5t-10 -13.5l-227 -440q-33 -63 -86 -96t-111 -33q-50 0 -84 29t-34 71q0 31 19 48t46 17t46 -17t19 -48q0 -35 -26 -53q4 -1 15 -1q32 0 66 18.5t56 59.5q17 28 39 76l-207 388h-66v56l20 -1q21 -1 49.5 -2t48.5 -1q21 0 52.5 1
t55.5 2l23 1v-56h-46l138 -258l129 252q-18 6 -43 6v56q40 -4 99 -4q28 0 84 4v-56zM280 602q0 -29 -22 -51t-52 -22q-31 0 -52.5 21.5t-21.5 52.5q0 30 21.5 51.5t52.5 21.5q30 0 52 -21.5t22 -52.5zM551 602q0 -29 -22 -51t-52 -22q-31 0 -52.5 21.5t-21.5 52.5
q0 30 21.5 51.5t52.5 21.5q30 0 52 -21.5t22 -52.5z" />
    <glyph glyph-name="Amacron" unicode="&#x100;" horiz-adv-x="968" 
d="M916 0l-165 4q-130 0 -182 -4v56h90l-63 140h-305l-54 -121l-5 -11q0 -8 86 -8v-56l-142 4q-20 0 -50 -1t-52 -2t-23 -1v56h30q27 0 46 2q18 2 22.5 4.5t9.5 11.5l269 602q6 14 14 20t15.5 7t26.5 1q18 0 25.5 -1t15.5 -7t14 -20l278 -620h99v-56zM571 252l-128 284
l-127 -284h255zM714 754h-460v62h460v-62z" />
    <glyph glyph-name="amacron" unicode="&#x101;" horiz-adv-x="629" 
d="M619 28q0 -13 -5.5 -19.5t-11.5 -7.5t-18 -1h-59q-59 0 -84 17t-25 51q-48 -74 -170 -74q-55 0 -99.5 10t-77.5 38.5t-33 72.5q0 42 34 72.5t77.5 45t102 23t89 10t57.5 1.5v27q0 113 -122 113q-71 0 -71 -7q1 -4 3 -7q12 -12 12 -40q0 -29 -19 -49t-51 -20q-29 0 -49 19
t-20 51q0 24 10 42t29 28t37.5 16.5t45.5 9t40.5 3t35.5 0.5q126 0 186 -45t60 -113v-208q0 -14 2.5 -19t15.5 -8.5t42 -3.5q13 0 19 -1t11.5 -7.5t5.5 -19.5zM396 137v91q-41 -1 -79.5 -7.5t-74.5 -18.5t-58 -34.5t-22 -51.5q0 -33 30.5 -54.5t73.5 -21.5q53 0 91 23
q39 24 39 74zM545 571h-460v62h460v-62z" />
    <glyph glyph-name="Abreve" unicode="&#x102;" horiz-adv-x="968" 
d="M916 0l-165 4q-130 0 -182 -4v56h90l-63 140h-305l-54 -121l-5 -11q0 -8 86 -8v-56l-142 4q-20 0 -50 -1t-52 -2t-23 -1v56h30q27 0 46 2q18 2 22.5 4.5t9.5 11.5l269 602q6 14 14 20t15.5 7t26.5 1q18 0 25.5 -1t15.5 -7t14 -20l278 -620h99v-56zM571 252l-128 284
l-127 -284h255zM684 935q-2 -86 -62.5 -138.5t-137.5 -52.5q-78 0 -138 52.5t-62 138.5h46q2 -42 29.5 -70t59.5 -38t65 -10t65 10t59.5 38t29.5 70h46z" />
    <glyph glyph-name="abreve" unicode="&#x103;" horiz-adv-x="629" 
d="M619 28q0 -13 -5.5 -19.5t-11.5 -7.5t-18 -1h-59q-59 0 -84 17t-25 51q-48 -74 -170 -74q-55 0 -99.5 10t-77.5 38.5t-33 72.5q0 42 34 72.5t77.5 45t102 23t89 10t57.5 1.5v27q0 113 -122 113q-71 0 -71 -7q1 -4 3 -7q12 -12 12 -40q0 -29 -19 -49t-51 -20q-29 0 -49 19
t-20 51q0 24 10 42t29 28t37.5 16.5t45.5 9t40.5 3t35.5 0.5q126 0 186 -45t60 -113v-208q0 -14 2.5 -19t15.5 -8.5t42 -3.5q13 0 19 -1t11.5 -7.5t5.5 -19.5zM396 137v91q-41 -1 -79.5 -7.5t-74.5 -18.5t-58 -34.5t-22 -51.5q0 -33 30.5 -54.5t73.5 -21.5q53 0 91 23
q39 24 39 74zM515 698q-2 -86 -62.5 -138.5t-137.5 -52.5q-78 0 -138 52.5t-62 138.5h46q2 -42 29.5 -70t59.5 -38t65 -10t65 10t59.5 38t29.5 70h46z" />
    <glyph glyph-name="Aogonek" unicode="&#x104;" horiz-adv-x="968" 
d="M916 0l-124 4q-39 -26 -45 -59.5t13 -55.5t46 -22q7 0 14.5 3.5t19 12t13.5 9.5q12 10 31 -6q7 -8 10.5 -18.5t-0.5 -18.5q-47 -70 -121 -70q-55 0 -90 33t-35 78q0 68 58 114q-85 0 -137 -4v56h90l-63 140h-305l-54 -121l-5 -11q0 -8 86 -8v-56l-142 4q-20 0 -50 -1
t-52 -2t-23 -1v56h30q27 0 46 2q18 2 22.5 4.5t9.5 11.5l269 602q6 14 14 20t15.5 7t26.5 1q18 0 25.5 -1t15.5 -7t14 -20l278 -620h99v-56zM571 252l-128 284l-127 -284h255z" />
    <glyph glyph-name="aogonek" unicode="&#x105;" horiz-adv-x="629" 
d="M619 28q0 -13 -5.5 -19.5t-11.5 -7.5t-18 -1h-59q-3 0 -7 0.5t-6 0.5q-39 -26 -45 -58.5t12.5 -54t45.5 -21.5q7 0 14.5 3.5t19 12t13.5 9.5q12 10 31 -6q7 -8 10.5 -18.5t-0.5 -18.5q-47 -70 -121 -70q-55 0 -90 33t-35 78q0 30 23 65t55 60q-29 15 -29 53
q-48 -74 -170 -74q-55 0 -99.5 10t-77.5 38.5t-33 72.5q0 42 34 72.5t77.5 45t102 23t89 10t57.5 1.5v27q0 113 -122 113q-71 0 -71 -7q1 -4 3 -7q12 -12 12 -40q0 -29 -19 -49t-51 -20q-29 0 -49 19t-20 51q0 24 10 42t29 28t37.5 16.5t45.5 9t40.5 3t35.5 0.5
q126 0 186 -45t60 -113v-208q0 -14 2.5 -19t15.5 -8.5t42 -3.5q13 0 19 -1t11.5 -7.5t5.5 -19.5zM396 137v91q-41 -1 -79.5 -7.5t-74.5 -18.5t-58 -34.5t-22 -51.5q0 -33 30.5 -54.5t73.5 -21.5q53 0 91 23q39 24 39 74z" />
    <glyph glyph-name="Cacute" unicode="&#x106;" horiz-adv-x="931" 
d="M855 228q0 -97 -94 -168.5t-243 -71.5q-211 0 -327 102t-116 253q0 152 116.5 253.5t325.5 101.5q125 0 224 -68l67 58q11 10 24 10q11 0 16 -4.5t6 -10t1 -17.5v-213q0 -22 -5 -27t-27 -5h-7q-21 0 -25.5 4t-8.5 25q-16 81 -81.5 136.5t-159.5 55.5q-132 0 -215 -64
q-88 -69 -88 -235q0 -149 71 -220q80 -79 234 -79q37 0 75 9t78 29t66.5 60t29.5 94q1 17 31 17q13 0 18.5 -1t9.5 -6.5t4 -17.5zM682 839q-7 -37 -52 -49l-177 -46l-27 58l158 107q18 11 34 11q32 0 52 -25t12 -56z" />
    <glyph glyph-name="cacute" unicode="&#x107;" horiz-adv-x="576" 
d="M535 114q0 -5 -5.5 -18t-23 -34.5t-43.5 -36.5q-54 -31 -140 -31q-134 0 -205 66.5t-71 161.5q0 39 13.5 76t43 73.5t88 59t137.5 22.5q192 0 192 -99q0 -31 -19.5 -50.5t-50.5 -19.5q-30 0 -49.5 19.5t-19.5 49.5q0 23 11 40l2 4q0 5 -63 5q-48 0 -79 -16t-44.5 -45
t-18 -55t-4.5 -60q0 -181 161 -181q92 0 124 71q5 11 10 13.5t22 2.5q32 0 32 -18zM480 634q0 -39 -42 -57l-167 -76l-36 52l137 133q17 17 42 17q29 0 47.5 -23t18.5 -46z" />
    <glyph glyph-name="Ccircumflex" unicode="&#x108;" horiz-adv-x="931" 
d="M855 228q0 -97 -94 -168.5t-243 -71.5q-211 0 -327 102t-116 253q0 152 116.5 253.5t325.5 101.5q125 0 224 -68l67 58q11 10 24 10q11 0 16 -4.5t6 -10t1 -17.5v-213q0 -22 -5 -27t-27 -5h-7q-21 0 -25.5 4t-8.5 25q-16 81 -81.5 136.5t-159.5 55.5q-132 0 -215 -64
q-88 -69 -88 -235q0 -149 71 -220q80 -79 234 -79q37 0 75 9t78 29t66.5 60t29.5 94q1 17 31 17q13 0 18.5 -1t9.5 -6.5t4 -17.5zM687 758l-16 -24l-160 58l-160 -58l-14 24l175 141z" />
    <glyph glyph-name="ccircumflex" unicode="&#x109;" horiz-adv-x="576" 
d="M535 114q0 -5 -5.5 -18t-23 -34.5t-43.5 -36.5q-54 -31 -140 -31q-134 0 -205 66.5t-71 161.5q0 39 13.5 76t43 73.5t88 59t137.5 22.5q192 0 192 -99q0 -31 -19.5 -50.5t-50.5 -19.5q-30 0 -49.5 19.5t-19.5 49.5q0 23 11 40l2 4q0 5 -63 5q-48 0 -79 -16t-44.5 -45
t-18 -55t-4.5 -60q0 -181 161 -181q92 0 124 71q5 11 10 13.5t22 2.5q32 0 32 -18zM494 521l-20 -22l-158 99l-158 -99l-18 22l177 185z" />
    <glyph glyph-name="Cdotaccent" unicode="&#x10a;" horiz-adv-x="931" 
d="M855 228q0 -97 -94 -168.5t-243 -71.5q-211 0 -327 102t-116 253q0 152 116.5 253.5t325.5 101.5q125 0 224 -68l67 58q11 10 24 10q11 0 16 -4.5t6 -10t1 -17.5v-213q0 -22 -5 -27t-27 -5h-7q-21 0 -25.5 4t-8.5 25q-16 81 -81.5 136.5t-159.5 55.5q-132 0 -215 -64
q-88 -69 -88 -235q0 -149 71 -220q80 -79 234 -79q37 0 75 9t78 29t66.5 60t29.5 94q1 17 31 17q13 0 18.5 -1t9.5 -6.5t4 -17.5zM594 827q0 -33 -24 -57t-58 -24t-58 24t-24 58q0 33 24 57t58 24t58 -24t24 -58z" />
    <glyph glyph-name="cdotaccent" unicode="&#x10b;" horiz-adv-x="576" 
d="M535 114q0 -5 -5.5 -18t-23 -34.5t-43.5 -36.5q-54 -31 -140 -31q-134 0 -205 66.5t-71 161.5q0 39 13.5 76t43 73.5t88 59t137.5 22.5q192 0 192 -99q0 -31 -19.5 -50.5t-50.5 -19.5q-30 0 -49.5 19.5t-19.5 49.5q0 23 11 40l2 4q0 5 -63 5q-48 0 -79 -16t-44.5 -45
t-18 -55t-4.5 -60q0 -181 161 -181q92 0 124 71q5 11 10 13.5t22 2.5q32 0 32 -18zM399 602q0 -33 -24 -57t-58 -24t-58 24t-24 58q0 33 24 57t58 24t58 -24t24 -58z" />
    <glyph glyph-name="Ccaron" unicode="&#x10c;" horiz-adv-x="931" 
d="M855 228q0 -97 -94 -168.5t-243 -71.5q-211 0 -327 102t-116 253q0 152 116.5 253.5t325.5 101.5q125 0 224 -68l67 58q11 10 24 10q11 0 16 -4.5t6 -10t1 -17.5v-213q0 -22 -5 -27t-27 -5h-7q-21 0 -25.5 4t-8.5 25q-16 81 -81.5 136.5t-159.5 55.5q-132 0 -215 -64
q-88 -69 -88 -235q0 -149 71 -220q80 -79 234 -79q37 0 75 9t78 29t66.5 60t29.5 94q1 17 31 17q13 0 18.5 -1t9.5 -6.5t4 -17.5zM687 875l-175 -141l-175 141l16 24l160 -58l160 58z" />
    <glyph glyph-name="ccaron" unicode="&#x10d;" horiz-adv-x="576" 
d="M535 114q0 -5 -5.5 -18t-23 -34.5t-43.5 -36.5q-54 -31 -140 -31q-134 0 -205 66.5t-71 161.5q0 39 13.5 76t43 73.5t88 59t137.5 22.5q192 0 192 -99q0 -31 -19.5 -50.5t-50.5 -19.5q-30 0 -49.5 19.5t-19.5 49.5q0 23 11 40l2 4q0 5 -63 5q-48 0 -79 -16t-44.5 -45
t-18 -55t-4.5 -60q0 -181 161 -181q92 0 124 71q5 11 10 13.5t22 2.5q32 0 32 -18zM494 684l-177 -185l-177 185l20 22l158 -99l158 99z" />
    <glyph glyph-name="Dcaron" unicode="&#x10e;" horiz-adv-x="985" 
d="M909 338q0 -155 -107.5 -246.5t-275.5 -91.5h-469v56h107v574h-107v56h468q171 0 277.5 -96t106.5 -252zM753 338q0 22 -0.5 34.5t-2.5 38.5t-6.5 43.5t-14 42.5t-22.5 41.5t-34 35.5t-47 30t-62.5 18.5t-80.5 7.5h-175v-574h176q56 0 99.5 11.5t71.5 28t47.5 44t29 49
t15 55t6 50t0.5 44.5zM571 875l-175 -141l-175 141l16 24l160 -58l160 58z" />
    <glyph glyph-name="dcaron" unicode="&#x10f;" horiz-adv-x="718" 
d="M662 0l-194 -6v48q-69 -48 -157 -48q-124 0 -194 65t-70 162q0 99 73.5 164t203.5 65q82 0 151 -42v183q0 28 -10.5 33.5t-56.5 5.5v56l187 8v-599q0 -28 10.5 -33.5t56.5 -5.5v-56zM468 116v228q-6 8 -17 18.5t-44 26t-71 15.5q-36 0 -63 -8.5t-42.5 -26t-25.5 -34
t-13.5 -42t-4.5 -39t-1 -35.5q0 -26 1 -42t8 -45.5t20.5 -46.5t41 -31t66.5 -14q49 0 86.5 23t58.5 53zM775 597q0 -47 -22 -89.5t-43.5 -62t-29.5 -19.5q-6 0 -12.5 6.5t-6.5 12.5q0 8 8 14q62 43 71 123q-15 -10 -36 -10q-28 0 -45 18t-17 43t17 43t44 18q33 0 52.5 -28
t19.5 -69z" />
    <glyph glyph-name="Dcroat" unicode="&#x110;" horiz-adv-x="985" 
d="M909 338q0 -155 -107.5 -246.5t-275.5 -91.5h-469v56h107v259h-107v56h107v259h-107v56h468q171 0 277.5 -96t106.5 -252zM753 338q0 22 -0.5 34.5t-2.5 38.5t-6.5 43.5t-14 42.5t-22.5 41.5t-34 35.5t-47 30t-62.5 18.5t-80.5 7.5h-175v-259h185v-56h-185v-259h176
q56 0 99.5 11.5t71.5 28t47.5 44t29 49t15 55t6 50t0.5 44.5z" />
    <glyph glyph-name="dcroat" unicode="&#x111;" horiz-adv-x="718" 
d="M662 0l-194 -6v48q-69 -48 -157 -48q-124 0 -194 65t-70 162q0 99 73.5 164t203.5 65q82 0 151 -42v105h-188v56h188v22q0 28 -10.5 33.5t-56.5 5.5v56l187 8v-125h67v-56h-67v-418q0 -28 10.5 -33.5t56.5 -5.5v-56zM468 116v228q-6 8 -17 18.5t-44 26t-71 15.5
q-36 0 -63 -8.5t-42.5 -26t-25.5 -34t-13.5 -42t-4.5 -39t-1 -35.5q0 -26 1 -42t8 -45.5t20.5 -46.5t41 -31t66.5 -14q49 0 86.5 23t58.5 53z" />
    <glyph glyph-name="Emacron" unicode="&#x112;" horiz-adv-x="844" 
d="M803 269l-51 -269h-695v56h107v567h-107v56h677l34 -239h-63q-15 106 -62.5 144.5t-154.5 38.5h-173v-243h66q65 0 89.5 23t24.5 87h63v-276h-63q0 64 -24.5 87t-89.5 23h-66v-268h183q64 0 106.5 12.5t69 41t41 65t25.5 94.5h63zM653 754h-460v62h460v-62z" />
    <glyph glyph-name="emacron" unicode="&#x113;" horiz-adv-x="592" 
d="M551 114q0 -7 -6.5 -20.5t-25 -34t-45.5 -34.5q-57 -31 -144 -31q-140 0 -215 67t-75 164q0 95 71 161.5t202 66.5q121 0 183 -62q55 -56 55 -153q0 -14 -5 -21t-11 -8t-19 -1h-337q1 -21 2.5 -35.5t11 -41t25.5 -43t48.5 -30t77.5 -13.5q108 0 144 74q6 11 11.5 14
t19.5 3q32 0 32 -22zM452 250q-7 157 -138 157t-135 -157h273zM527 571h-460v62h460v-62z" />
    <glyph glyph-name="Ebreve" unicode="&#x114;" horiz-adv-x="844" 
d="M803 269l-51 -269h-695v56h107v567h-107v56h677l34 -239h-63q-15 106 -62.5 144.5t-154.5 38.5h-173v-243h66q65 0 89.5 23t24.5 87h63v-276h-63q0 64 -24.5 87t-89.5 23h-66v-268h183q64 0 106.5 12.5t69 41t41 65t25.5 94.5h63zM623 935q-2 -86 -62.5 -138.5
t-137.5 -52.5q-78 0 -138 52.5t-62 138.5h46q2 -42 29.5 -70t59.5 -38t65 -10t65 10t59.5 38t29.5 70h46z" />
    <glyph glyph-name="ebreve" unicode="&#x115;" horiz-adv-x="592" 
d="M551 114q0 -7 -6.5 -20.5t-25 -34t-45.5 -34.5q-57 -31 -144 -31q-140 0 -215 67t-75 164q0 95 71 161.5t202 66.5q121 0 183 -62q55 -56 55 -153q0 -14 -5 -21t-11 -8t-19 -1h-337q1 -21 2.5 -35.5t11 -41t25.5 -43t48.5 -30t77.5 -13.5q108 0 144 74q6 11 11.5 14
t19.5 3q32 0 32 -22zM452 250q-7 157 -138 157t-135 -157h273zM497 698q-2 -86 -62.5 -138.5t-137.5 -52.5q-78 0 -138 52.5t-62 138.5h46q2 -42 29.5 -70t59.5 -38t65 -10t65 10t59.5 38t29.5 70h46z" />
    <glyph glyph-name="Edotaccent" unicode="&#x116;" horiz-adv-x="844" 
d="M803 269l-51 -269h-695v56h107v567h-107v56h677l34 -239h-63q-15 106 -62.5 144.5t-154.5 38.5h-173v-243h66q65 0 89.5 23t24.5 87h63v-276h-63q0 64 -24.5 87t-89.5 23h-66v-268h183q64 0 106.5 12.5t69 41t41 65t25.5 94.5h63zM505 827q0 -33 -24 -57t-58 -24t-58 24
t-24 58q0 33 24 57t58 24t58 -24t24 -58z" />
    <glyph glyph-name="edotaccent" unicode="&#x117;" horiz-adv-x="592" 
d="M551 114q0 -7 -6.5 -20.5t-25 -34t-45.5 -34.5q-57 -31 -144 -31q-140 0 -215 67t-75 164q0 95 71 161.5t202 66.5q121 0 183 -62q55 -56 55 -153q0 -14 -5 -21t-11 -8t-19 -1h-337q1 -21 2.5 -35.5t11 -41t25.5 -43t48.5 -30t77.5 -13.5q108 0 144 74q6 11 11.5 14
t19.5 3q32 0 32 -22zM452 250q-7 157 -138 157t-135 -157h273zM379 602q0 -33 -24 -57t-58 -24t-58 24t-24 58q0 33 24 57t58 24t58 -24t24 -58z" />
    <glyph glyph-name="Eogonek" unicode="&#x118;" horiz-adv-x="844" 
d="M803 269l-51 -269h-112q-39 -26 -44.5 -58.5t14 -53.5t46.5 -21q7 0 14.5 3.5t19 12t13.5 9.5q12 10 31 -6q7 -8 10.5 -18.5t-0.5 -18.5q-47 -70 -121 -70q-55 0 -90 33t-35 78q0 65 57 110h-498v56h107v567h-107v56h677l34 -239h-63q-15 106 -62.5 144.5t-154.5 38.5
h-173v-243h66q65 0 89.5 23t24.5 87h63v-276h-63q0 64 -24.5 87t-89.5 23h-66v-268h183q64 0 106.5 12.5t69 41t41 65t25.5 94.5h63z" />
    <glyph glyph-name="eogonek" unicode="&#x119;" horiz-adv-x="592" 
d="M551 114q0 -7 -6.5 -20.5t-25 -34t-45.5 -34.5q-26 -14 -73 -24q-38 -26 -44 -58.5t13 -54t46 -21.5q7 0 14.5 3.5t19 12t13.5 9.5q12 10 31 -6q7 -8 10.5 -18.5t-0.5 -18.5q-47 -70 -121 -70q-55 0 -90 33t-35 78q0 62 52 103q-131 6 -200.5 72.5t-69.5 159.5
q0 95 71 161.5t202 66.5q121 0 183 -62q55 -56 55 -153q0 -14 -5 -21t-11 -8t-19 -1h-337q1 -21 2.5 -35.5t11 -41t25.5 -43t48.5 -30t77.5 -13.5q108 0 144 74q6 11 11.5 14t19.5 3q32 0 32 -22zM452 250q-7 157 -138 157t-135 -157h273z" />
    <glyph glyph-name="Ecaron" unicode="&#x11a;" horiz-adv-x="844" 
d="M803 269l-51 -269h-695v56h107v567h-107v56h677l34 -239h-63q-15 106 -62.5 144.5t-154.5 38.5h-173v-243h66q65 0 89.5 23t24.5 87h63v-276h-63q0 64 -24.5 87t-89.5 23h-66v-268h183q64 0 106.5 12.5t69 41t41 65t25.5 94.5h63zM598 875l-175 -141l-175 141l16 24
l160 -58l160 58z" />
    <glyph glyph-name="ecaron" unicode="&#x11b;" horiz-adv-x="592" 
d="M551 114q0 -7 -6.5 -20.5t-25 -34t-45.5 -34.5q-57 -31 -144 -31q-140 0 -215 67t-75 164q0 95 71 161.5t202 66.5q121 0 183 -62q55 -56 55 -153q0 -14 -5 -21t-11 -8t-19 -1h-337q1 -21 2.5 -35.5t11 -41t25.5 -43t48.5 -30t77.5 -13.5q108 0 144 74q6 11 11.5 14
t19.5 3q32 0 32 -22zM452 250q-7 157 -138 157t-135 -157h273zM474 684l-177 -185l-177 185l20 22l158 -99l158 99z" />
    <glyph glyph-name="Gcircumflex" unicode="&#x11c;" horiz-adv-x="1012" 
d="M945 219h-89v-187q0 -32 -18 -32q-7 0 -41 15.5t-50 26.5q-53 -54 -221 -54q-97 0 -175.5 21.5t-129 57t-84.5 82.5t-48 95t-14 99q0 152 117 253.5t325 101.5q124 0 225 -68l67 58q11 10 24 10q11 0 16 -4.5t6 -10t1 -17.5v-213q0 -22 -5 -27t-27 -5h-7q-20 0 -25 4
t-8 20q-18 93 -86.5 145t-156.5 52q-147 0 -227 -74q-76 -72 -76 -224q0 -158 83 -229q84 -71 234 -71q43 0 73 6.5t44.5 14.5t22.5 21.5t9 20.5t1 19v93h-160v56q43 -3 108 -3l122 -1l170 4v-56zM681 758l-16 -24l-160 58l-160 -58l-14 24l175 141z" />
    <glyph glyph-name="gcircumflex" unicode="&#x11d;" 
d="M624 389q0 -24 -16 -37.5t-35 -13.5q-18 0 -34 13t-16 38q0 11 3 19q-27 -3 -60 -15q40 -36 40 -93t-52.5 -103t-166.5 -46q-79 0 -131 25q-7 -9 -7 -26q0 -29 23 -47q12 -10 24 -12t42 -2h54q64 0 94 -1t67.5 -7t66.5 -19q86 -40 86 -131q0 -61 -74 -96.5t-209 -35.5
q-146 0 -214.5 38.5t-68.5 90.5q0 35 28 56t62 29q-40 40 -40 96q0 49 32 88q-53 44 -53 104q0 57 53.5 103t164.5 46q87 0 146 -32q52 38 116 38q35 0 55 -20.5t20 -46.5zM387 301q0 17 -0.5 26.5t-6 26.5t-15 26t-29.5 16.5t-49 7.5q-28 0 -48 -7.5t-29.5 -17t-15 -26
t-6 -26.5t-0.5 -27t0.5 -26.5t6 -26t15 -26t29.5 -17t48 -7.5q35 0 57.5 9.5t30.5 28.5t10 31.5t2 34.5zM508 -72q0 53 -155 53h-133q-82 0 -82 -52q0 -33 45.5 -58.5t139.5 -25.5q96 0 140.5 26t44.5 57zM455 521l-20 -22l-158 99l-158 -99l-18 22l177 185z" />
    <glyph glyph-name="Gbreve" unicode="&#x11e;" horiz-adv-x="1012" 
d="M945 219h-89v-187q0 -32 -18 -32q-7 0 -41 15.5t-50 26.5q-53 -54 -221 -54q-97 0 -175.5 21.5t-129 57t-84.5 82.5t-48 95t-14 99q0 152 117 253.5t325 101.5q124 0 225 -68l67 58q11 10 24 10q11 0 16 -4.5t6 -10t1 -17.5v-213q0 -22 -5 -27t-27 -5h-7q-20 0 -25 4
t-8 20q-18 93 -86.5 145t-156.5 52q-147 0 -227 -74q-76 -72 -76 -224q0 -158 83 -229q84 -71 234 -71q43 0 73 6.5t44.5 14.5t22.5 21.5t9 20.5t1 19v93h-160v56q43 -3 108 -3l122 -1l170 4v-56zM706 935q-2 -86 -62.5 -138.5t-137.5 -52.5q-78 0 -138 52.5t-62 138.5h46
q2 -42 29.5 -70t59.5 -38t65 -10t65 10t59.5 38t29.5 70h46z" />
    <glyph glyph-name="gbreve" unicode="&#x11f;" 
d="M624 389q0 -24 -16 -37.5t-35 -13.5q-18 0 -34 13t-16 38q0 11 3 19q-27 -3 -60 -15q40 -36 40 -93t-52.5 -103t-166.5 -46q-79 0 -131 25q-7 -9 -7 -26q0 -29 23 -47q12 -10 24 -12t42 -2h54q64 0 94 -1t67.5 -7t66.5 -19q86 -40 86 -131q0 -61 -74 -96.5t-209 -35.5
q-146 0 -214.5 38.5t-68.5 90.5q0 35 28 56t62 29q-40 40 -40 96q0 49 32 88q-53 44 -53 104q0 57 53.5 103t164.5 46q87 0 146 -32q52 38 116 38q35 0 55 -20.5t20 -46.5zM387 301q0 17 -0.5 26.5t-6 26.5t-15 26t-29.5 16.5t-49 7.5q-28 0 -48 -7.5t-29.5 -17t-15 -26
t-6 -26.5t-0.5 -27t0.5 -26.5t6 -26t15 -26t29.5 -17t48 -7.5q35 0 57.5 9.5t30.5 28.5t10 31.5t2 34.5zM508 -72q0 53 -155 53h-133q-82 0 -82 -52q0 -33 45.5 -58.5t139.5 -25.5q96 0 140.5 26t44.5 57zM478 698q-2 -86 -62.5 -138.5t-137.5 -52.5q-78 0 -138 52.5
t-62 138.5h46q2 -42 29.5 -70t59.5 -38t65 -10t65 10t59.5 38t29.5 70h46z" />
    <glyph glyph-name="Gdotaccent" unicode="&#x120;" horiz-adv-x="1012" 
d="M945 219h-89v-187q0 -32 -18 -32q-7 0 -41 15.5t-50 26.5q-53 -54 -221 -54q-97 0 -175.5 21.5t-129 57t-84.5 82.5t-48 95t-14 99q0 152 117 253.5t325 101.5q124 0 225 -68l67 58q11 10 24 10q11 0 16 -4.5t6 -10t1 -17.5v-213q0 -22 -5 -27t-27 -5h-7q-20 0 -25 4
t-8 20q-18 93 -86.5 145t-156.5 52q-147 0 -227 -74q-76 -72 -76 -224q0 -158 83 -229q84 -71 234 -71q43 0 73 6.5t44.5 14.5t22.5 21.5t9 20.5t1 19v93h-160v56q43 -3 108 -3l122 -1l170 4v-56zM588 827q0 -33 -24 -57t-58 -24t-58 24t-24 58q0 33 24 57t58 24t58 -24
t24 -58z" />
    <glyph glyph-name="gdotaccent" unicode="&#x121;" 
d="M624 389q0 -24 -16 -37.5t-35 -13.5q-18 0 -34 13t-16 38q0 11 3 19q-27 -3 -60 -15q40 -36 40 -93t-52.5 -103t-166.5 -46q-79 0 -131 25q-7 -9 -7 -26q0 -29 23 -47q12 -10 24 -12t42 -2h54q64 0 94 -1t67.5 -7t66.5 -19q86 -40 86 -131q0 -61 -74 -96.5t-209 -35.5
q-146 0 -214.5 38.5t-68.5 90.5q0 35 28 56t62 29q-40 40 -40 96q0 49 32 88q-53 44 -53 104q0 57 53.5 103t164.5 46q87 0 146 -32q52 38 116 38q35 0 55 -20.5t20 -46.5zM387 301q0 17 -0.5 26.5t-6 26.5t-15 26t-29.5 16.5t-49 7.5q-28 0 -48 -7.5t-29.5 -17t-15 -26
t-6 -26.5t-0.5 -27t0.5 -26.5t6 -26t15 -26t29.5 -17t48 -7.5q35 0 57.5 9.5t30.5 28.5t10 31.5t2 34.5zM508 -72q0 53 -155 53h-133q-82 0 -82 -52q0 -33 45.5 -58.5t139.5 -25.5q96 0 140.5 26t44.5 57zM360 602q0 -33 -24 -57t-58 -24t-58 24t-24 58q0 33 24 57t58 24
t58 -24t24 -58z" />
    <glyph glyph-name="Gcommaaccent" unicode="&#x122;" horiz-adv-x="1012" 
d="M945 219h-89v-187q0 -32 -18 -32q-7 0 -41 15.5t-50 26.5q-53 -54 -221 -54q-97 0 -175.5 21.5t-129 57t-84.5 82.5t-48 95t-14 99q0 152 117 253.5t325 101.5q124 0 225 -68l67 58q11 10 24 10q11 0 16 -4.5t6 -10t1 -17.5v-213q0 -22 -5 -27t-27 -5h-7q-20 0 -25 4
t-8 20q-18 93 -86.5 145t-156.5 52q-147 0 -227 -74q-76 -72 -76 -224q0 -158 83 -229q84 -71 234 -71q43 0 73 6.5t44.5 14.5t22.5 21.5t9 20.5t1 19v93h-160v56q43 -3 108 -3l122 -1l170 4v-56zM572 -133q0 -47 -22 -89.5t-43.5 -62t-29.5 -19.5q-6 0 -12.5 6.5t-6.5 12.5
q0 8 8 14q62 43 71 123q-15 -10 -36 -10q-28 0 -45 18t-17 43t17 43t44 18q33 0 52.5 -28t19.5 -69z" />
    <glyph glyph-name="gcommaaccent" unicode="&#x123;" 
d="M345 541q0 -25 -17 -43t-44 -18q-33 0 -52.5 28t-19.5 69q0 47 22 89.5t43.5 62t29.5 19.5q6 0 12.5 -6.5t6.5 -12.5q0 -8 -8 -14q-62 -43 -71 -123q15 10 36 10q28 0 45 -18t17 -43zM624 389q0 -24 -16 -37.5t-35 -13.5q-18 0 -34 13t-16 38q0 11 3 19q-27 -3 -60 -15
q40 -36 40 -93t-52.5 -103t-166.5 -46q-79 0 -131 25q-7 -9 -7 -26q0 -29 23 -47q12 -10 24 -12t42 -2h54q64 0 94 -1t67.5 -7t66.5 -19q86 -40 86 -131q0 -61 -74 -96.5t-209 -35.5q-146 0 -214.5 38.5t-68.5 90.5q0 35 28 56t62 29q-40 40 -40 96q0 49 32 88
q-53 44 -53 104q0 57 53.5 103t164.5 46q87 0 146 -32q52 38 116 38q35 0 55 -20.5t20 -46.5zM387 301q0 17 -0.5 26.5t-6 26.5t-15 26t-29.5 16.5t-49 7.5q-28 0 -48 -7.5t-29.5 -17t-15 -26t-6 -26.5t-0.5 -27t0.5 -26.5t6 -26t15 -26t29.5 -17t48 -7.5q35 0 57.5 9.5
t30.5 28.5t10 31.5t2 34.5zM508 -72q0 53 -155 53h-133q-82 0 -82 -52q0 -33 45.5 -58.5t139.5 -25.5q96 0 140.5 26t44.5 57z" />
    <glyph glyph-name="Hcircumflex" unicode="&#x124;" horiz-adv-x="1002" 
d="M944 0q-44 4 -183 4q-136 0 -182 -4v56h107v273h-371v-273h107v-56q-44 4 -183 4q-136 0 -182 -4v56h107v574h-107v56q44 -4 183 -4q136 0 182 4v-56h-107v-245h371v245h-107v56q44 -4 183 -4q136 0 182 4v-56h-107v-574h107v-56zM676 758l-16 -24l-160 58l-160 -58
l-14 24l175 141z" />
    <glyph glyph-name="hcircumflex" unicode="&#x125;" horiz-adv-x="718" 
d="M679 0q-82 4 -131 4l-130 -4v56h67v253q0 53 -14.5 74t-48.5 21t-69.5 -13.5t-65 -50.5t-29.5 -91v-193h67v-56q-82 4 -131 4l-130 -4v56h67v535q0 28 -10.5 33.5t-56.5 5.5v56l187 8v-338q64 94 190 94q79 0 125 -32t46 -117v-245h67v-56zM535 766l-16 -24l-160 58
l-160 -58l-14 24l175 141z" />
    <glyph glyph-name="Hbar" unicode="&#x126;" horiz-adv-x="1002" 
d="M944 0q-44 4 -183 4q-136 0 -182 -4v56h107v273h-371v-273h107v-56q-44 4 -183 4q-136 0 -182 -4v56h107v431h-107v56h107v87h-107v56q44 -4 183 -4q136 0 182 4v-56h-107v-87h371v87h-107v56q44 -4 183 -4q136 0 182 4v-56h-107v-87h107v-56h-107v-431h107v-56zM686 385
v102h-371v-102h371z" />
    <glyph glyph-name="hbar" unicode="&#x127;" horiz-adv-x="718" 
d="M679 0q-82 4 -131 4l-130 -4v56h67v253q0 53 -14.5 74t-48.5 21t-69.5 -13.5t-65 -50.5t-29.5 -91v-193h67v-56q-82 4 -131 4l-130 -4v56h67v457h-67v56h67v22q0 28 -10.5 33.5t-56.5 5.5v56l187 8v-125h108v-56h-108v-157q64 94 190 94q79 0 125 -32t46 -117v-245h67
v-56z" />
    <glyph glyph-name="Itilde" unicode="&#x128;" horiz-adv-x="479" 
d="M428 0q-50 4 -189 4q-138 0 -188 -4v56h113v574h-113v56q50 -4 189 -4q138 0 188 4v-56h-113v-574h113v-56zM452 833q-68 -66 -91 -82.5t-55 -16.5q-29 0 -75 21q-52 23 -80 23q-47 0 -91 -44l-32 33q68 66 91 82.5t55 16.5q29 0 75 -21q52 -23 80 -23q47 0 91 44z" />
    <glyph glyph-name="itilde" unicode="&#x129;" horiz-adv-x="363" 
d="M315 0q-55 4 -122 4l-126 -4v56h67v291q0 28 -10 33.5t-54 5.5v56l184 8v-394h61v-56zM394 635q-68 -66 -91 -82.5t-55 -16.5q-29 0 -75 21q-52 23 -80 23q-47 0 -91 -44l-32 33q68 66 91 82.5t55 16.5q29 0 75 -21q52 -23 80 -23q47 0 91 44z" />
    <glyph glyph-name="Imacron" unicode="&#x12a;" horiz-adv-x="479" 
d="M428 0q-50 4 -189 4q-138 0 -188 -4v56h113v574h-113v56q50 -4 189 -4q138 0 188 4v-56h-113v-574h113v-56zM470 754h-460v62h460v-62z" />
    <glyph glyph-name="imacron" unicode="&#x12b;" horiz-adv-x="363" 
d="M315 0q-55 4 -122 4l-126 -4v56h67v291q0 28 -10 33.5t-54 5.5v56l184 8v-394h61v-56zM412 571h-460v62h460v-62z" />
    <glyph glyph-name="Ibreve" unicode="&#x12c;" horiz-adv-x="479" 
d="M428 0q-50 4 -189 4q-138 0 -188 -4v56h113v574h-113v56q50 -4 189 -4q138 0 188 4v-56h-113v-574h113v-56zM440 935q-2 -86 -62.5 -138.5t-137.5 -52.5q-78 0 -138 52.5t-62 138.5h46q2 -42 29.5 -70t59.5 -38t65 -10t65 10t59.5 38t29.5 70h46z" />
    <glyph glyph-name="ibreve" unicode="&#x12d;" horiz-adv-x="363" 
d="M315 0q-55 4 -122 4l-126 -4v56h67v291q0 28 -10 33.5t-54 5.5v56l184 8v-394h61v-56zM382 698q-2 -86 -62.5 -138.5t-137.5 -52.5q-78 0 -138 52.5t-62 138.5h46q2 -42 29.5 -70t59.5 -38t65 -10t65 10t59.5 38t29.5 70h46z" />
    <glyph glyph-name="Iogonek" unicode="&#x12e;" horiz-adv-x="479" 
d="M428 0l-101 4q-35 -19 -46 -57q-9 -31 9 -55.5t47 -24.5q7 0 14.5 3.5t19 12t13.5 9.5q12 10 31 -6q7 -8 10.5 -18.5t-0.5 -18.5q-47 -70 -121 -70q-55 0 -90 33t-35 78q0 26 19 57.5t47 56.5h-6q-138 0 -188 -4v56h113v574h-113v56q50 -4 189 -4q138 0 188 4v-56h-113
v-574h113v-56z" />
    <glyph glyph-name="iogonek" unicode="&#x12f;" horiz-adv-x="363" 
d="M262 613q0 -32 -23.5 -56.5t-58.5 -24.5q-32 0 -56.5 23.5t-24.5 58.5q0 32 23.5 56.5t58.5 24.5q32 0 56.5 -23.5t24.5 -58.5zM315 0q-49 4 -110 4q-35 -19 -47 -57q-9 -31 9.5 -55.5t47.5 -24.5q7 0 14.5 3.5t19 12t13.5 9.5q12 10 31 -6q7 -8 10.5 -18.5t-0.5 -18.5
q-47 -70 -121 -70q-55 0 -90 33t-35 78q0 54 64 112l-54 -2v56h67v291q0 28 -10 33.5t-54 5.5v56l184 8v-394h61v-56z" />
    <glyph glyph-name="Idotaccent" unicode="&#x130;" horiz-adv-x="479" 
d="M428 0q-50 4 -189 4q-138 0 -188 -4v56h113v574h-113v56q50 -4 189 -4q138 0 188 4v-56h-113v-574h113v-56zM322 827q0 -33 -24 -57t-58 -24t-58 24t-24 58q0 33 24 57t58 24t58 -24t24 -58z" />
    <glyph glyph-name="dotlessi" unicode="&#x131;" horiz-adv-x="363" 
d="M315 0q-55 4 -122 4l-126 -4v56h67v291q0 28 -10 33.5t-54 5.5v56l184 8v-394h61v-56z" />
    <glyph glyph-name="Jcircumflex" unicode="&#x134;" horiz-adv-x="665" 
d="M580 630h-80v-480q0 -75 -66.5 -118.5t-182.5 -43.5q-105 0 -160 34t-55 92q0 37 24.5 59.5t57.5 22.5q32 0 56.5 -21.5t24.5 -60.5q0 -42 -33 -66q34 -14 81 -14q109 0 109 117v479h-139v56q41 -3 96 -3l110 -1l157 4v-56zM574 758l-16 -24l-160 58l-160 -58l-14 24
l175 141z" />
    <glyph glyph-name="jcircumflex" unicode="&#x135;" horiz-adv-x="399" 
d="M304 -38q0 -79 -62 -120.5t-139 -41.5q-69 0 -113.5 25t-44.5 74q0 29 19.5 49t50.5 20q29 0 49 -19.5t20 -49.5q0 -28 -12 -40l-4 -8q0 -5 34 -5q39 0 60.5 33t21.5 85v382q0 29 -11 34.5t-63 5.5v56l194 8v-488zM399 521l-20 -22l-158 99l-158 -99l-18 22l177 185z" />
    <glyph glyph-name="Kcommaaccent" unicode="&#x136;" horiz-adv-x="1003" 
d="M944 0l-147 4q-131 0 -183 -4v56q42 0 64 6l-240 275l-123 -91v-190h107v-56q-44 4 -183 4q-136 0 -182 -4v56h107v574h-107v56q44 -4 183 -4q136 0 182 4v-56h-107v-306l402 300q-24 6 -58 6v56l161 -4l107 4v-56h-27q-32 0 -49.5 -2t-23.5 -4t-13 -8l-270 -201
l301 -345q7 -9 16.5 -11.5t43.5 -2.5h39v-56zM568 -133q0 -47 -22 -89.5t-43.5 -62t-29.5 -19.5q-6 0 -12.5 6.5t-6.5 12.5q0 8 8 14q62 43 71 123q-15 -10 -36 -10q-28 0 -45 18t-17 43t17 43t44 18q33 0 52.5 -28t19.5 -69z" />
    <glyph glyph-name="kcommaaccent" unicode="&#x137;" horiz-adv-x="683" 
d="M656 0q-48 4 -107 4l-130 -4v56q21 0 21 6q-1 2 -9 11l-126 137l-69 -49v-105h67v-56q-76 4 -124 4q-19 0 -48.5 -1t-52 -2t-23.5 -1v56h67v533q0 30 -10 35.5t-57 5.5v56l187 8v-452l183 131q9 6 12 9q-8 6 -20 6v56q1 0 24.5 -1t54.5 -2t50 -1q28 0 82 4v-56
q-50 0 -65 -3t-27 -11l-143 -102l182 -198q14 -14 21 -15q9 -3 60 -3v-56zM408 -133q0 -47 -22 -89.5t-43.5 -62t-29.5 -19.5q-6 0 -12.5 6.5t-6.5 12.5q0 8 8 14q62 43 71 123q-15 -10 -36 -10q-28 0 -45 18t-17 43t17 43t44 18q33 0 52.5 -28t19.5 -69z" />
    <glyph glyph-name="Lacute" unicode="&#x139;" horiz-adv-x="773" 
d="M715 269l-34 -269h-624v56h107v574h-107v56q55 -4 185 -4l107 1q65 0 100 3v-56h-134v-574h118q50 0 89 14t61 34.5t37.5 51.5t21.5 56t10 57h63zM412 839q-7 -37 -52 -49l-177 -46l-27 58l158 107q18 11 34 11q32 0 52 -25t12 -56z" />
    <glyph glyph-name="lacute" unicode="&#x13a;" horiz-adv-x="363" 
d="M321 0q-1 0 -9.5 0.5t-22.5 1t-30 1t-33.5 1t-31.5 0.5q-20 0 -51 -1t-53 -2l-23 -1v56h67v535q0 28 -10.5 33.5t-56.5 5.5v56l187 8v-638h67v-56zM352 847q-7 -37 -52 -49l-177 -46l-27 58l158 107q18 11 34 11q32 0 52 -25t12 -56z" />
    <glyph glyph-name="Lcommaaccent" unicode="&#x13b;" horiz-adv-x="773" 
d="M715 269l-34 -269h-624v56h107v574h-107v56q55 -4 185 -4l107 1q65 0 100 3v-56h-134v-574h118q50 0 89 14t61 34.5t37.5 51.5t21.5 56t10 57h63zM453 -133q0 -47 -22 -89.5t-43.5 -62t-29.5 -19.5q-6 0 -12.5 6.5t-6.5 12.5q0 8 8 14q62 43 71 123q-15 -10 -36 -10
q-28 0 -45 18t-17 43t17 43t44 18q33 0 52.5 -28t19.5 -69z" />
    <glyph glyph-name="lcommaaccent" unicode="&#x13c;" horiz-adv-x="363" 
d="M321 0q-1 0 -9.5 0.5t-22.5 1t-30 1t-33.5 1t-31.5 0.5q-20 0 -51 -1t-53 -2l-23 -1v56h67v535q0 28 -10.5 33.5t-56.5 5.5v56l187 8v-638h67v-56zM248 -133q0 -47 -22 -89.5t-43.5 -62t-29.5 -19.5q-6 0 -12.5 6.5t-6.5 12.5q0 8 8 14q62 43 71 123q-15 -10 -36 -10
q-28 0 -45 18t-17 43t17 43t44 18q33 0 52.5 -28t19.5 -69z" />
    <glyph glyph-name="Lcaron" unicode="&#x13d;" horiz-adv-x="773" 
d="M715 269l-34 -269h-624v56h107v574h-107v56q55 -4 185 -4l107 1q65 0 100 3v-56h-134v-574h118q50 0 89 14t61 34.5t37.5 51.5t21.5 56t10 57h63zM653 589q0 -47 -22 -89.5t-43.5 -62t-29.5 -19.5q-6 0 -12.5 6.5t-6.5 12.5q0 8 8 14q62 43 71 123q-15 -10 -36 -10
q-28 0 -45 18t-17 43t17 43t44 18q33 0 52.5 -28t19.5 -69z" />
    <glyph glyph-name="lcaron" unicode="&#x13e;" horiz-adv-x="363" 
d="M321 0q-1 0 -9.5 0.5t-22.5 1t-30 1t-33.5 1t-31.5 0.5q-20 0 -51 -1t-53 -2l-23 -1v56h67v535q0 28 -10.5 33.5t-56.5 5.5v56l187 8v-638h67v-56zM434 597q0 -47 -22 -89.5t-43.5 -62t-29.5 -19.5q-6 0 -12.5 6.5t-6.5 12.5q0 8 8 14q62 43 71 123q-15 -10 -36 -10
q-28 0 -45 18t-17 43t17 43t44 18q33 0 52.5 -28t19.5 -69z" />
    <glyph glyph-name="Ldot" unicode="&#x13f;" horiz-adv-x="773" 
d="M715 269l-34 -269h-624v56h107v574h-107v56q55 -4 185 -4l107 1q65 0 100 3v-56h-134v-574h118q50 0 89 14t61 34.5t37.5 51.5t21.5 56t10 57h63zM708 428q0 -33 -24 -57t-58 -24t-58 24t-24 58q0 33 24 57t58 24t58 -24t24 -58z" />
    <glyph glyph-name="ldot" unicode="&#x140;" horiz-adv-x="407" 
d="M321 0q-1 0 -9.5 0.5t-22.5 1t-30 1t-33.5 1t-31.5 0.5q-20 0 -51 -1t-53 -2l-23 -1v56h67v535q0 28 -10.5 33.5t-56.5 5.5v56l187 8v-638h67v-56zM480 358q0 -33 -24 -57t-58 -24t-58 24t-24 58q0 33 24 57t58 24t58 -24t24 -58z" />
    <glyph glyph-name="Lslash" unicode="&#x141;" horiz-adv-x="773" 
d="M715 269l-34 -269h-624v56h107v215l-67 -44l-32 46l99 66v291h-107v56q55 -4 185 -4l107 1q65 0 100 3v-56h-134v-192l183 121l33 -47l-216 -142v-314h118q50 0 89 14t61 34.5t37.5 51.5t21.5 56t10 57h63z" />
    <glyph glyph-name="lslash" unicode="&#x142;" horiz-adv-x="438" 
d="M392 431l-110 -72v-303h67v-56q-1 0 -9.5 0.5t-22.5 1t-30 1t-33.5 1t-31.5 0.5q-20 0 -51 -1t-53 -2l-23 -1v56h67v225l-64 -42l-30 49l94 62v241q0 28 -10.5 33.5t-56.5 5.5v56l187 8v-265l79 52z" />
    <glyph glyph-name="Nacute" unicode="&#x143;" horiz-adv-x="1002" 
d="M944 630h-33q-62 0 -71 -6q-3 -3 -3 -19v-570q0 -23 -6.5 -29t-28.5 -6q-16 0 -21 1.5t-13 10.5l-534 569v-500q0 -15 3.5 -18.5t20.5 -4.5q30 -2 50 -2h33v-56l-142 4l-142 -4v56h33q62 0 71 6q3 3 3 19v549h-107v56h235q16 0 21 -2t14 -11l440 -469v401q0 15 -3.5 18.5
t-20.5 4.5q-30 2 -50 2h-33v56l142 -4l142 4v-56zM671 839q-7 -37 -52 -49l-177 -46l-27 58l158 107q18 11 34 11q32 0 52 -25t12 -56z" />
    <glyph glyph-name="nacute" unicode="&#x144;" horiz-adv-x="718" 
d="M679 0q-82 4 -131 4l-130 -4v56h67v253q0 53 -14.5 74t-48.5 21t-69.5 -13.5t-65 -50.5t-29.5 -91v-193h67v-56q-82 4 -131 4l-130 -4v56h67v291q0 28 -10.5 33.5t-56.5 5.5v56l181 8v-104q13 22 32 42t64 41t100 21q79 0 125 -32t46 -117v-245h67v-56zM523 634
q0 -39 -42 -57l-167 -76l-36 52l137 133q17 17 42 17q29 0 47.5 -23t18.5 -46z" />
    <glyph glyph-name="Ncommaaccent" unicode="&#x145;" horiz-adv-x="1002" 
d="M944 630h-33q-62 0 -71 -6q-3 -3 -3 -19v-570q0 -23 -6.5 -29t-28.5 -6q-16 0 -21 1.5t-13 10.5l-534 569v-500q0 -15 3.5 -18.5t20.5 -4.5q30 -2 50 -2h33v-56l-142 4l-142 -4v56h33q62 0 71 6q3 3 3 19v549h-107v56h235q16 0 21 -2t14 -11l440 -469v401q0 15 -3.5 18.5
t-20.5 4.5q-30 2 -50 2h-33v56l142 -4l142 4v-56zM567 -133q0 -47 -22 -89.5t-43.5 -62t-29.5 -19.5q-6 0 -12.5 6.5t-6.5 12.5q0 8 8 14q62 43 71 123q-15 -10 -36 -10q-28 0 -45 18t-17 43t17 43t44 18q33 0 52.5 -28t19.5 -69z" />
    <glyph glyph-name="ncommaaccent" unicode="&#x146;" horiz-adv-x="718" 
d="M679 0q-82 4 -131 4l-130 -4v56h67v253q0 53 -14.5 74t-48.5 21t-69.5 -13.5t-65 -50.5t-29.5 -91v-193h67v-56q-82 4 -131 4l-130 -4v56h67v291q0 28 -10.5 33.5t-56.5 5.5v56l181 8v-104q13 22 32 42t64 41t100 21q79 0 125 -32t46 -117v-245h67v-56zM426 -133
q0 -47 -22 -89.5t-43.5 -62t-29.5 -19.5q-6 0 -12.5 6.5t-6.5 12.5q0 8 8 14q62 43 71 123q-15 -10 -36 -10q-28 0 -45 18t-17 43t17 43t44 18q33 0 52.5 -28t19.5 -69z" />
    <glyph glyph-name="Ncaron" unicode="&#x147;" horiz-adv-x="1002" 
d="M944 630h-33q-62 0 -71 -6q-3 -3 -3 -19v-570q0 -23 -6.5 -29t-28.5 -6q-16 0 -21 1.5t-13 10.5l-534 569v-500q0 -15 3.5 -18.5t20.5 -4.5q30 -2 50 -2h33v-56l-142 4l-142 -4v56h33q62 0 71 6q3 3 3 19v549h-107v56h235q16 0 21 -2t14 -11l440 -469v401q0 15 -3.5 18.5
t-20.5 4.5q-30 2 -50 2h-33v56l142 -4l142 4v-56zM676 875l-175 -141l-175 141l16 24l160 -58l160 58z" />
    <glyph glyph-name="ncaron" unicode="&#x148;" horiz-adv-x="718" 
d="M679 0q-82 4 -131 4l-130 -4v56h67v253q0 53 -14.5 74t-48.5 21t-69.5 -13.5t-65 -50.5t-29.5 -91v-193h67v-56q-82 4 -131 4l-130 -4v56h67v291q0 28 -10.5 33.5t-56.5 5.5v56l181 8v-104q13 22 32 42t64 41t100 21q79 0 125 -32t46 -117v-245h67v-56zM537 684
l-177 -185l-177 185l20 22l158 -99l158 99z" />
    <glyph glyph-name="Eng" unicode="&#x14a;" horiz-adv-x="1002" 
d="M933 343q0 -144 -73 -249.5t-192 -105.5q-28 0 -48.5 20t-20.5 49t20.5 49t48.5 20q21 0 38.5 -12t25.5 -31q18 25 27 73t10.5 84.5t1.5 102.5q0 118 -60.5 205.5t-159.5 87.5q-71 0 -134.5 -19t-101.5 -55v-506h113v-56q-50 4 -189 4q-138 0 -188 -4v56h113v574h-113v56
q50 -4 189 -4q42 0 75 4v-51q98 63 236 63q156 0 269 -103t113 -252z" />
    <glyph glyph-name="eng" unicode="&#x14b;" horiz-adv-x="665" 
d="M612 56q0 -106 -61.5 -184t-155.5 -78q-26 0 -44.5 18.5t-18.5 44.5t18.5 44.5t44.5 18.5q40 0 57 -37q33 43 33 173v253q0 53 -14.5 74t-48.5 21t-69.5 -13.5t-65 -50.5t-29.5 -91v-193h67v-56q-82 4 -131 4l-130 -4v56h67v291q0 28 -10.5 33.5t-56.5 5.5v56l181 8v-104
q13 22 32 42t64 41t100 21q79 0 125 -32t46 -117v-245z" />
    <glyph glyph-name="Omacron" unicode="&#x14c;" horiz-adv-x="968" 
d="M892 339q0 -151 -106.5 -251t-302.5 -100q-194 0 -301 99.5t-107 251.5q0 73 26 137t75 114t128.5 79t179.5 29q194 0 301 -102t107 -257zM729 354q0 21 -0.5 36t-5.5 48t-13.5 57.5t-26.5 55t-43.5 50t-65.5 33t-91 13.5q-124 0 -189 -81q-56 -72 -56 -212
q0 -143 50 -217q67 -96 195 -96q134 0 198 99q48 76 48 214zM715 754h-460v62h460v-62z" />
    <glyph glyph-name="omacron" unicode="&#x14d;" 
d="M606 218q0 -94 -72.5 -159t-210.5 -65t-210.5 64.5t-72.5 159.5q0 97 72 166t211 69q138 0 210.5 -68.5t72.5 -166.5zM467 230q0 27 -1 41.5t-4.5 39t-12.5 38.5t-24.5 29t-41 22t-60.5 7t-60.5 -7t-41 -22t-24.5 -29t-12.5 -38.5t-4.5 -39t-1 -41.5q0 -35 1 -53.5
t8.5 -48t21.5 -44.5t43 -27t70 -12t70 12t43 27t21.5 44.5t8.5 48t1 53.5zM554 571h-460v62h460v-62z" />
    <glyph glyph-name="Obreve" unicode="&#x14e;" horiz-adv-x="968" 
d="M892 339q0 -151 -106.5 -251t-302.5 -100q-194 0 -301 99.5t-107 251.5q0 73 26 137t75 114t128.5 79t179.5 29q194 0 301 -102t107 -257zM729 354q0 21 -0.5 36t-5.5 48t-13.5 57.5t-26.5 55t-43.5 50t-65.5 33t-91 13.5q-124 0 -189 -81q-56 -72 -56 -212
q0 -143 50 -217q67 -96 195 -96q134 0 198 99q48 76 48 214zM685 935q-2 -86 -62.5 -138.5t-137.5 -52.5q-78 0 -138 52.5t-62 138.5h46q2 -42 29.5 -70t59.5 -38t65 -10t65 10t59.5 38t29.5 70h46z" />
    <glyph glyph-name="obreve" unicode="&#x14f;" 
d="M606 218q0 -94 -72.5 -159t-210.5 -65t-210.5 64.5t-72.5 159.5q0 97 72 166t211 69q138 0 210.5 -68.5t72.5 -166.5zM467 230q0 27 -1 41.5t-4.5 39t-12.5 38.5t-24.5 29t-41 22t-60.5 7t-60.5 -7t-41 -22t-24.5 -29t-12.5 -38.5t-4.5 -39t-1 -41.5q0 -35 1 -53.5
t8.5 -48t21.5 -44.5t43 -27t70 -12t70 12t43 27t21.5 44.5t8.5 48t1 53.5zM524 698q-2 -86 -62.5 -138.5t-137.5 -52.5q-78 0 -138 52.5t-62 138.5h46q2 -42 29.5 -70t59.5 -38t65 -10t65 10t59.5 38t29.5 70h46z" />
    <glyph glyph-name="Ohungarumlaut" unicode="&#x150;" horiz-adv-x="968" 
d="M892 339q0 -151 -106.5 -251t-302.5 -100q-194 0 -301 99.5t-107 251.5q0 73 26 137t75 114t128.5 79t179.5 29q194 0 301 -102t107 -257zM729 354q0 21 -0.5 36t-5.5 48t-13.5 57.5t-26.5 55t-43.5 50t-65.5 33t-91 13.5q-124 0 -189 -81q-56 -72 -56 -212
q0 -143 50 -217q67 -96 195 -96q134 0 198 99q48 76 48 214zM497 879q0 -28 -29 -52l-100 -83l-51 38l51 122q18 43 57 43q26 0 49 -20.5t23 -47.5zM710 879q0 -28 -29 -52l-100 -83l-51 38l51 122q18 43 57 43q26 0 49 -20.5t23 -47.5z" />
    <glyph glyph-name="ohungarumlaut" unicode="&#x151;" 
d="M606 218q0 -94 -72.5 -159t-210.5 -65t-210.5 64.5t-72.5 159.5q0 97 72 166t211 69q138 0 210.5 -68.5t72.5 -166.5zM467 230q0 27 -1 41.5t-4.5 39t-12.5 38.5t-24.5 29t-41 22t-60.5 7t-60.5 -7t-41 -22t-24.5 -29t-12.5 -38.5t-4.5 -39t-1 -41.5q0 -35 1 -53.5
t8.5 -48t21.5 -44.5t43 -27t70 -12t70 12t43 27t21.5 44.5t8.5 48t1 53.5zM336 636q0 -28 -29 -52l-100 -83l-51 38l51 122q18 43 57 43q26 0 49 -20.5t23 -47.5zM549 636q0 -28 -29 -52l-100 -83l-51 38l51 122q18 43 57 43q26 0 49 -20.5t23 -47.5z" />
    <glyph glyph-name="OE" unicode="&#x152;" horiz-adv-x="1305" 
d="M1264 269l-51 -269h-493q-31 0 -109 -7q-55 -5 -92 -5q-206 0 -316 101t-110 250q0 72 26 135.5t77 114t134 80t189 29.5q37 0 93 -5q77 -7 108 -7h475l34 -239h-63q-15 103 -58.5 143t-148.5 40h-165v-246h103q67 0 98.5 21t31.5 89h63v-276h-63q0 68 -31.5 89t-98.5 21
h-103v-272h171q65 0 108 13.5t68 44.5t37 64.5t23 90.5h63zM661 200v286q0 73 -15.5 109.5t-41.5 46.5t-78 10q-134 0 -205.5 -82.5t-71.5 -214.5q0 -140 71.5 -230.5t205.5 -90.5q39 0 61 5t40.5 21.5t26 50t7.5 89.5z" />
    <glyph glyph-name="oe" unicode="&#x153;" horiz-adv-x="1002" 
d="M961 114q0 -6 -5 -18.5t-19.5 -30.5t-36 -33.5t-59 -26.5t-83.5 -11q-141 0 -221 76q-78 -76 -217 -76q-136 0 -208 67t-72 164q0 94 71.5 161t208.5 67q138 0 216 -73q75 73 205 73q112 0 166 -60q54 -59 54 -154q0 -15 -5 -22t-10.5 -8t-19.5 -1h-326q8 -163 171 -163
q95 0 128 76q7 15 30 15q32 0 32 -22zM862 250q-5 157 -120 157q-39 0 -67.5 -14.5t-42 -32.5t-21.5 -43.5t-9 -39t-1 -27.5h261zM473 229q0 20 -1 32.5t-4.5 36.5t-13.5 40.5t-26 33.5t-43.5 26t-64.5 9q-44 0 -75 -14.5t-46 -32t-23 -47t-9 -45t-1 -39.5q0 -25 1 -41
t9 -47t23 -50.5t46 -35t75 -15.5q43 0 74 15.5t46 35t23 50.5t9 47t1 41z" />
    <glyph glyph-name="Racute" unicode="&#x154;" horiz-adv-x="960" 
d="M951 99q0 -12 -5 -27.5t-17.5 -36t-42 -34t-70.5 -13.5q-48 0 -85.5 6t-61.5 14t-41 24t-25 28t-12.5 33.5t-5 34t-0.5 35.5q0 60 -5.5 82t-30.5 42q-41 33 -102 33h-139v-264h107v-56l-179 4q-131 0 -179 -4v56h107v574h-107v56h410q147 0 237.5 -53t90.5 -135
q0 -34 -17 -62.5t-45.5 -47.5t-52.5 -30t-50 -19q34 -13 55.5 -29.5t32.5 -41t15 -41t9 -50.5q5 -38 8.5 -57t12.5 -42.5t24.5 -33.5t38.5 -10q21 0 40 15.5t22 51.5q1 11 6.5 16t10.5 6t14 1q10 0 15 -1t11 -6.5t6 -17.5zM632 498q0 29 -5 49t-21.5 41t-53.5 31.5t-95 10.5
h-149v-264h145q59 0 97.5 11t55 32.5t21.5 40.5t5 48zM650 839q-7 -37 -52 -49l-177 -46l-27 58l158 107q18 11 34 11q32 0 52 -25t12 -56z" />
    <glyph glyph-name="racute" unicode="&#x155;" horiz-adv-x="535" 
d="M495 361q0 -29 -19 -48.5t-49 -19.5t-49 19.5t-19 48.5q0 11 3.5 22t7.5 16l3 5q-63 -4 -97 -61.5t-34 -132.5v-154h84v-56l-143 4q-21 0 -52 -1t-53 -2l-23 -1v56h67v291q0 28 -10.5 33.5t-56.5 5.5v56l174 8v-110h1q48 110 147 110q48 0 83 -24.5t35 -64.5zM431 634
q0 -39 -42 -57l-167 -76l-36 52l137 133q17 17 42 17q29 0 47.5 -23t18.5 -46z" />
    <glyph glyph-name="Rcommaaccent" unicode="&#x156;" horiz-adv-x="960" 
d="M951 99q0 -12 -5 -27.5t-17.5 -36t-42 -34t-70.5 -13.5q-48 0 -85.5 6t-61.5 14t-41 24t-25 28t-12.5 33.5t-5 34t-0.5 35.5q0 60 -5.5 82t-30.5 42q-41 33 -102 33h-139v-264h107v-56l-179 4q-131 0 -179 -4v56h107v574h-107v56h410q147 0 237.5 -53t90.5 -135
q0 -34 -17 -62.5t-45.5 -47.5t-52.5 -30t-50 -19q34 -13 55.5 -29.5t32.5 -41t15 -41t9 -50.5q5 -38 8.5 -57t12.5 -42.5t24.5 -33.5t38.5 -10q21 0 40 15.5t22 51.5q1 11 6.5 16t10.5 6t14 1q10 0 15 -1t11 -6.5t6 -17.5zM632 498q0 29 -5 49t-21.5 41t-53.5 31.5t-95 10.5
h-149v-264h145q59 0 97.5 11t55 32.5t21.5 40.5t5 48zM546 -133q0 -47 -22 -89.5t-43.5 -62t-29.5 -19.5q-6 0 -12.5 6.5t-6.5 12.5q0 8 8 14q62 43 71 123q-15 -10 -36 -10q-28 0 -45 18t-17 43t17 43t44 18q33 0 52.5 -28t19.5 -69z" />
    <glyph glyph-name="rcommaaccent" unicode="&#x157;" horiz-adv-x="535" 
d="M495 361q0 -29 -19 -48.5t-49 -19.5t-49 19.5t-19 48.5q0 11 3.5 22t7.5 16l3 5q-63 -4 -97 -61.5t-34 -132.5v-154h84v-56l-143 4q-21 0 -52 -1t-53 -2l-23 -1v56h67v291q0 28 -10.5 33.5t-56.5 5.5v56l174 8v-110h1q48 110 147 110q48 0 83 -24.5t35 -64.5zM248 -133
q0 -47 -22 -89.5t-43.5 -62t-29.5 -19.5q-6 0 -12.5 6.5t-6.5 12.5q0 8 8 14q62 43 71 123q-15 -10 -36 -10q-28 0 -45 18t-17 43t17 43t44 18q33 0 52.5 -28t19.5 -69z" />
    <glyph glyph-name="Rcaron" unicode="&#x158;" horiz-adv-x="960" 
d="M951 99q0 -12 -5 -27.5t-17.5 -36t-42 -34t-70.5 -13.5q-48 0 -85.5 6t-61.5 14t-41 24t-25 28t-12.5 33.5t-5 34t-0.5 35.5q0 60 -5.5 82t-30.5 42q-41 33 -102 33h-139v-264h107v-56l-179 4q-131 0 -179 -4v56h107v574h-107v56h410q147 0 237.5 -53t90.5 -135
q0 -34 -17 -62.5t-45.5 -47.5t-52.5 -30t-50 -19q34 -13 55.5 -29.5t32.5 -41t15 -41t9 -50.5q5 -38 8.5 -57t12.5 -42.5t24.5 -33.5t38.5 -10q21 0 40 15.5t22 51.5q1 11 6.5 16t10.5 6t14 1q10 0 15 -1t11 -6.5t6 -17.5zM632 498q0 29 -5 49t-21.5 41t-53.5 31.5t-95 10.5
h-149v-264h145q59 0 97.5 11t55 32.5t21.5 40.5t5 48zM655 875l-175 -141l-175 141l16 24l160 -58l160 58z" />
    <glyph glyph-name="rcaron" unicode="&#x159;" horiz-adv-x="535" 
d="M495 361q0 -29 -19 -48.5t-49 -19.5t-49 19.5t-19 48.5q0 11 3.5 22t7.5 16l3 5q-63 -4 -97 -61.5t-34 -132.5v-154h84v-56l-143 4q-21 0 -52 -1t-53 -2l-23 -1v56h67v291q0 28 -10.5 33.5t-56.5 5.5v56l174 8v-110h1q48 110 147 110q48 0 83 -24.5t35 -64.5zM445 684
l-177 -185l-177 185l20 22l158 -99l158 99z" />
    <glyph glyph-name="Sacute" unicode="&#x15a;" horiz-adv-x="718" 
d="M642 203q0 -30 -8 -59t-26.5 -58t-46.5 -50t-72 -34.5t-99 -13.5q-141 0 -224 52q-6 -5 -24.5 -23t-22.5 -22q-8 -7 -21 -7q-11 0 -16 4.5t-6 10t-1 17.5v176q0 22 5 27t27 5q21 0 25.5 -5t5.5 -21q5 -88 82 -126q67 -32 169 -32q42 0 73 11t45.5 25t22.5 33t9 27.5
t1 16.5q0 41 -29 69.5t-70 39.5l-86 16q-105 20 -147 35t-80 53q-53 55 -53 127q0 80 62 140.5t187 60.5q109 0 181 -48l8 -5q2 0 10 8l34 32q13 13 26 13q11 0 16 -4.5t6 -10t1 -17.5v-176q0 -22 -5 -27t-27 -5q-20 0 -24.5 4.5t-8.5 24.5q-9 46 -31.5 79t-54.5 50
t-63.5 24t-67.5 7q-79 0 -113 -31t-34 -71q0 -34 28 -61.5t81 -37.5l164 -32q78 -15 135 -72.5t57 -138.5zM530 839q-7 -37 -52 -49l-177 -46l-27 58l158 107q18 11 34 11q32 0 52 -25t12 -56z" />
    <glyph glyph-name="sacute" unicode="&#x15b;" horiz-adv-x="512" 
d="M464 142q0 -35 -12 -62t-34 -42t-43 -25t-48.5 -13.5t-40 -4.5t-27.5 -1q-77 0 -129 29q-12 -8 -28 -16q-21 -13 -32 -13t-16 4.5t-6 10t-1 17.5v98q0 22 5 27t27 5q18 0 22.5 -3t9.5 -16q16 -46 49.5 -71.5t99.5 -25.5q123 0 123 68q0 18 -11 31.5t-34.5 21t-40.5 11
t-48 8.5t-49 8.5t-51 14t-52 24t-34.5 37.5t-15.5 55q0 71 65 107q50 27 140 27q63 0 104 -13l7 -2q5 0 19 7q16 8 26 8q16 0 20 -7t4 -25v-69q0 -22 -5 -27t-27 -5q-18 0 -24 4t-7 18q-2 14 -5 22t-13.5 21.5t-36 20t-65.5 6.5q-121 0 -121 -56q0 -14 9 -24t29 -16.5
t34.5 -9.5t43.5 -8q50 -8 73.5 -13t50 -16t49.5 -30q47 -39 47 -97zM420 634q0 -39 -42 -57l-167 -76l-36 52l137 133q17 17 42 17q29 0 47.5 -23t18.5 -46z" />
    <glyph glyph-name="Scircumflex" unicode="&#x15c;" horiz-adv-x="718" 
d="M642 203q0 -30 -8 -59t-26.5 -58t-46.5 -50t-72 -34.5t-99 -13.5q-141 0 -224 52q-6 -5 -24.5 -23t-22.5 -22q-8 -7 -21 -7q-11 0 -16 4.5t-6 10t-1 17.5v176q0 22 5 27t27 5q21 0 25.5 -5t5.5 -21q5 -88 82 -126q67 -32 169 -32q42 0 73 11t45.5 25t22.5 33t9 27.5
t1 16.5q0 41 -29 69.5t-70 39.5l-86 16q-105 20 -147 35t-80 53q-53 55 -53 127q0 80 62 140.5t187 60.5q109 0 181 -48l8 -5q2 0 10 8l34 32q13 13 26 13q11 0 16 -4.5t6 -10t1 -17.5v-176q0 -22 -5 -27t-27 -5q-20 0 -24.5 4.5t-8.5 24.5q-9 46 -31.5 79t-54.5 50
t-63.5 24t-67.5 7q-79 0 -113 -31t-34 -71q0 -34 28 -61.5t81 -37.5l164 -32q78 -15 135 -72.5t57 -138.5zM535 758l-16 -24l-160 58l-160 -58l-14 24l175 141z" />
    <glyph glyph-name="scircumflex" unicode="&#x15d;" horiz-adv-x="512" 
d="M464 142q0 -35 -12 -62t-34 -42t-43 -25t-48.5 -13.5t-40 -4.5t-27.5 -1q-77 0 -129 29q-12 -8 -28 -16q-21 -13 -32 -13t-16 4.5t-6 10t-1 17.5v98q0 22 5 27t27 5q18 0 22.5 -3t9.5 -16q16 -46 49.5 -71.5t99.5 -25.5q123 0 123 68q0 18 -11 31.5t-34.5 21t-40.5 11
t-48 8.5t-49 8.5t-51 14t-52 24t-34.5 37.5t-15.5 55q0 71 65 107q50 27 140 27q63 0 104 -13l7 -2q5 0 19 7q16 8 26 8q16 0 20 -7t4 -25v-69q0 -22 -5 -27t-27 -5q-18 0 -24 4t-7 18q-2 14 -5 22t-13.5 21.5t-36 20t-65.5 6.5q-121 0 -121 -56q0 -14 9 -24t29 -16.5
t34.5 -9.5t43.5 -8q50 -8 73.5 -13t50 -16t49.5 -30q47 -39 47 -97zM434 521l-20 -22l-158 99l-158 -99l-18 22l177 185z" />
    <glyph glyph-name="Scedilla" unicode="&#x15e;" horiz-adv-x="718" 
d="M642 203q0 -36 -12 -70.5t-36.5 -65.5t-69 -52t-103.5 -26v-25q45 0 78 -22.5t33 -59.5q0 -20 -11 -34.5t-35.5 -23t-46.5 -14t-61.5 -7.5t-63 -2.5t-66.5 -0.5h-62v62h31q177 0 177 20t-97 20v93q-75 10 -131 45q-6 -5 -24.5 -23t-22.5 -22q-8 -7 -21 -7q-11 0 -16 4.5
t-6 10t-1 17.5v176q0 22 5 27t27 5q21 0 25.5 -5t5.5 -21q5 -88 82 -126q67 -32 169 -32q42 0 73 11t45.5 25t22.5 33t9 27.5t1 16.5q0 41 -29 69.5t-70 39.5l-86 16q-105 20 -147 35t-80 53q-53 55 -53 127q0 80 62 140.5t187 60.5q109 0 181 -48l8 -5q2 0 10 8l34 32
q13 13 26 13q11 0 16 -4.5t6 -10t1 -17.5v-176q0 -22 -5 -27t-27 -5q-20 0 -24.5 4.5t-8.5 24.5q-9 46 -31.5 79t-54.5 50t-63.5 24t-67.5 7q-79 0 -113 -31t-34 -71q0 -34 28 -61.5t81 -37.5l164 -32q78 -15 135 -72.5t57 -138.5z" />
    <glyph glyph-name="scedilla" unicode="&#x15f;" horiz-adv-x="512" 
d="M464 142q0 -69 -43 -102t-103 -42v-34q45 0 78 -22.5t33 -59.5q0 -20 -11 -34.5t-35.5 -23t-46.5 -14t-61.5 -7.5t-63 -2.5t-66.5 -0.5h-62v62h31q177 0 177 20t-97 20v98q-34 7 -64 23q-12 -8 -28 -16q-21 -13 -32 -13t-16 4.5t-6 10t-1 17.5v98q0 22 5 27t27 5
q18 0 22.5 -3t9.5 -16q16 -46 49.5 -71.5t99.5 -25.5q123 0 123 68q0 18 -11 31.5t-34.5 21t-40.5 11t-48 8.5t-49 8.5t-51 14t-52 24t-34.5 37.5t-15.5 55q0 71 65 107q50 27 140 27q63 0 104 -13l7 -2q5 0 19 7q16 8 26 8q16 0 20 -7t4 -25v-69q0 -22 -5 -27t-27 -5
q-18 0 -24 4t-7 18q-2 14 -5 22t-13.5 21.5t-36 20t-65.5 6.5q-121 0 -121 -56q0 -14 9 -24t29 -16.5t34.5 -9.5t43.5 -8q50 -8 73.5 -13t50 -16t49.5 -30q47 -39 47 -97z" />
    <glyph glyph-name="Scaron" unicode="&#x160;" horiz-adv-x="718" 
d="M642 203q0 -30 -8 -59t-26.5 -58t-46.5 -50t-72 -34.5t-99 -13.5q-141 0 -224 52q-6 -5 -24.5 -23t-22.5 -22q-8 -7 -21 -7q-11 0 -16 4.5t-6 10t-1 17.5v176q0 22 5 27t27 5q21 0 25.5 -5t5.5 -21q5 -88 82 -126q67 -32 169 -32q42 0 73 11t45.5 25t22.5 33t9 27.5
t1 16.5q0 41 -29 69.5t-70 39.5l-86 16q-105 20 -147 35t-80 53q-53 55 -53 127q0 80 62 140.5t187 60.5q109 0 181 -48l8 -5q2 0 10 8l34 32q13 13 26 13q11 0 16 -4.5t6 -10t1 -17.5v-176q0 -22 -5 -27t-27 -5q-20 0 -24.5 4.5t-8.5 24.5q-9 46 -31.5 79t-54.5 50
t-63.5 24t-67.5 7q-79 0 -113 -31t-34 -71q0 -34 28 -61.5t81 -37.5l164 -32q78 -15 135 -72.5t57 -138.5zM535 875l-175 -141l-175 141l16 24l160 -58l160 58z" />
    <glyph glyph-name="scaron" unicode="&#x161;" horiz-adv-x="512" 
d="M464 142q0 -35 -12 -62t-34 -42t-43 -25t-48.5 -13.5t-40 -4.5t-27.5 -1q-77 0 -129 29q-12 -8 -28 -16q-21 -13 -32 -13t-16 4.5t-6 10t-1 17.5v98q0 22 5 27t27 5q18 0 22.5 -3t9.5 -16q16 -46 49.5 -71.5t99.5 -25.5q123 0 123 68q0 18 -11 31.5t-34.5 21t-40.5 11
t-48 8.5t-49 8.5t-51 14t-52 24t-34.5 37.5t-15.5 55q0 71 65 107q50 27 140 27q63 0 104 -13l7 -2q5 0 19 7q16 8 26 8q16 0 20 -7t4 -25v-69q0 -22 -5 -27t-27 -5q-18 0 -24 4t-7 18q-2 14 -5 22t-13.5 21.5t-36 20t-65.5 6.5q-121 0 -121 -56q0 -14 9 -24t29 -16.5
t34.5 -9.5t43.5 -8q50 -8 73.5 -13t50 -16t49.5 -30q47 -39 47 -97zM434 684l-177 -185l-177 185l20 22l158 -99l158 99z" />
    <glyph glyph-name="Tcedilla" unicode="&#x162;" horiz-adv-x="897" 
d="M846 434h-63q-4 39 -8 62t-15 49.5t-28 40t-47 22.5t-72 9h-89v-561h152v-56q-44 3 -105 3h-61l1 -39q45 0 78 -22.5t33 -59.5q0 -20 -11 -34.5t-35.5 -23t-46.5 -14t-61.5 -7.5t-63 -2.5t-66.5 -0.5h-62v62h31q177 0 177 20t-97 20v101h-58q-69 0 -108 -3v56h152v561
h-90q-42 0 -72 -9.5t-47 -23t-28 -40t-15 -49t-8 -61.5h-63l24 239h748z" />
    <glyph glyph-name="tcedilla" unicode="&#x163;" horiz-adv-x="505" 
d="M442 -118q0 -20 -11 -34.5t-35.5 -23t-46.5 -14t-61.5 -7.5t-63 -2.5t-66.5 -0.5h-62v62h31q177 0 177 20t-97 20v102q-89 26 -89 117v267h-90v46q74 2 113.5 62.5t40.5 138.5h63v-191h163v-56h-163v-267q0 -20 2 -33t16 -28t41 -15q13 0 25.5 5t24.5 24t12 51v48h63v-52
q0 -47 -27 -79t-71 -43v-35q45 0 78 -22.5t33 -59.5z" />
    <glyph glyph-name="Tcaron" unicode="&#x164;" horiz-adv-x="897" 
d="M846 434h-63q-4 39 -8 62t-15 49.5t-28 40t-47 22.5t-72 9h-89v-561h152v-56q-44 3 -105 3l-123 1l-119 -1q-69 0 -108 -3v56h152v561h-90q-42 0 -72 -9.5t-47 -23t-28 -40t-15 -49t-8 -61.5h-63l24 239h748zM624 875l-175 -141l-175 141l16 24l160 -58l160 58z" />
    <glyph glyph-name="tcaron" unicode="&#x165;" horiz-adv-x="505" 
d="M429 121q0 -59 -41 -93t-102 -34q-168 0 -168 127v267h-90v46q74 2 113.5 62.5t40.5 138.5h63v-191h163v-56h-163v-267q0 -20 2 -33t16 -28t41 -15q13 0 25.5 5t24.5 24t12 51v48h63v-52zM425 663q0 -47 -22 -89.5t-43.5 -62t-29.5 -19.5q-6 0 -12.5 6.5t-6.5 12.5
q0 8 8 14q62 43 71 123q-15 -10 -36 -10q-28 0 -45 18t-17 43t17 43t44 18q33 0 52.5 -28t19.5 -69z" />
    <glyph glyph-name="Utilde" unicode="&#x168;" horiz-adv-x="985" 
d="M927 630h-33q-62 0 -71 -6q-3 -3 -3 -19v-375q0 -46 -17.5 -87.5t-53 -77t-97 -56.5t-142.5 -21q-169 0 -257.5 70.5t-88.5 172.5v399h-107v56q44 -4 183 -4q136 0 182 4v-56h-107v-402q0 -26 2.5 -46.5t14 -48t31.5 -45.5t59 -31t92 -13q46 0 85.5 9.5t74.5 30t55 59
t20 91.5v371q0 15 -3.5 18.5t-20.5 4.5q-30 2 -50 2h-33v56l143 -4l142 4v-56zM734 833q-68 -66 -91 -82.5t-55 -16.5q-29 0 -75 21q-52 23 -80 23q-47 0 -91 -44l-32 33q68 66 91 82.5t55 16.5q29 0 75 -21q52 -23 80 -23q47 0 91 44z" />
    <glyph glyph-name="utilde" unicode="&#x169;" horiz-adv-x="718" 
d="M679 0l-187 -6v71q-57 -71 -164 -71q-31 0 -54.5 2t-51.5 9.5t-46.5 20.5t-31.5 37.5t-13 57.5v226q0 28 -10.5 33.5t-56.5 5.5v56l194 8v-340q0 -22 1.5 -32t9.5 -20.5t26 -14t50 -3.5q61 0 100.5 31.5t39.5 90.5v185q0 28 -10.5 33.5t-56.5 5.5v56l194 8v-355
q0 -28 10.5 -33.5t56.5 -5.5v-56zM572 635q-68 -66 -91 -82.5t-55 -16.5q-29 0 -75 21q-52 23 -80 23q-47 0 -91 -44l-32 33q68 66 91 82.5t55 16.5q29 0 75 -21q52 -23 80 -23q47 0 91 44z" />
    <glyph glyph-name="Umacron" unicode="&#x16a;" horiz-adv-x="985" 
d="M927 630h-33q-62 0 -71 -6q-3 -3 -3 -19v-375q0 -46 -17.5 -87.5t-53 -77t-97 -56.5t-142.5 -21q-169 0 -257.5 70.5t-88.5 172.5v399h-107v56q44 -4 183 -4q136 0 182 4v-56h-107v-402q0 -26 2.5 -46.5t14 -48t31.5 -45.5t59 -31t92 -13q46 0 85.5 9.5t74.5 30t55 59
t20 91.5v371q0 15 -3.5 18.5t-20.5 4.5q-30 2 -50 2h-33v56l143 -4l142 4v-56zM752 754h-460v62h460v-62z" />
    <glyph glyph-name="umacron" unicode="&#x16b;" horiz-adv-x="718" 
d="M679 0l-187 -6v71q-57 -71 -164 -71q-31 0 -54.5 2t-51.5 9.5t-46.5 20.5t-31.5 37.5t-13 57.5v226q0 28 -10.5 33.5t-56.5 5.5v56l194 8v-340q0 -22 1.5 -32t9.5 -20.5t26 -14t50 -3.5q61 0 100.5 31.5t39.5 90.5v185q0 28 -10.5 33.5t-56.5 5.5v56l194 8v-355
q0 -28 10.5 -33.5t56.5 -5.5v-56zM590 571h-460v62h460v-62z" />
    <glyph glyph-name="Ubreve" unicode="&#x16c;" horiz-adv-x="985" 
d="M927 630h-33q-62 0 -71 -6q-3 -3 -3 -19v-375q0 -46 -17.5 -87.5t-53 -77t-97 -56.5t-142.5 -21q-169 0 -257.5 70.5t-88.5 172.5v399h-107v56q44 -4 183 -4q136 0 182 4v-56h-107v-402q0 -26 2.5 -46.5t14 -48t31.5 -45.5t59 -31t92 -13q46 0 85.5 9.5t74.5 30t55 59
t20 91.5v371q0 15 -3.5 18.5t-20.5 4.5q-30 2 -50 2h-33v56l143 -4l142 4v-56zM722 935q-2 -86 -62.5 -138.5t-137.5 -52.5q-78 0 -138 52.5t-62 138.5h46q2 -42 29.5 -70t59.5 -38t65 -10t65 10t59.5 38t29.5 70h46z" />
    <glyph glyph-name="ubreve" unicode="&#x16d;" horiz-adv-x="718" 
d="M679 0l-187 -6v71q-57 -71 -164 -71q-31 0 -54.5 2t-51.5 9.5t-46.5 20.5t-31.5 37.5t-13 57.5v226q0 28 -10.5 33.5t-56.5 5.5v56l194 8v-340q0 -22 1.5 -32t9.5 -20.5t26 -14t50 -3.5q61 0 100.5 31.5t39.5 90.5v185q0 28 -10.5 33.5t-56.5 5.5v56l194 8v-355
q0 -28 10.5 -33.5t56.5 -5.5v-56zM560 698q-2 -86 -62.5 -138.5t-137.5 -52.5q-78 0 -138 52.5t-62 138.5h46q2 -42 29.5 -70t59.5 -38t65 -10t65 10t59.5 38t29.5 70h46z" />
    <glyph glyph-name="Uring" unicode="&#x16e;" horiz-adv-x="985" 
d="M927 630h-33q-62 0 -71 -6q-3 -3 -3 -19v-375q0 -46 -17.5 -87.5t-53 -77t-97 -56.5t-142.5 -21q-169 0 -257.5 70.5t-88.5 172.5v399h-107v56q44 -4 183 -4q136 0 182 4v-56h-107v-402q0 -26 2.5 -46.5t14 -48t31.5 -45.5t59 -31t92 -13q46 0 85.5 9.5t74.5 30t55 59
t20 91.5v371q0 15 -3.5 18.5t-20.5 4.5q-30 2 -50 2h-33v56l143 -4l142 4v-56zM589 788q0 18 -9.5 26t-21 9.5t-36.5 1.5q-26 0 -37 -1.5t-20.5 -9.5t-9.5 -26t9.5 -26t21 -9.5t36.5 -1.5q26 0 37 1.5t20.5 9.5t9.5 26zM661 787q0 -31 -33 -57t-107 -26q-69 0 -103.5 25
t-34.5 60q0 31 33 57t107 26q69 0 103.5 -25t34.5 -60z" />
    <glyph glyph-name="uring" unicode="&#x16f;" horiz-adv-x="718" 
d="M679 0l-187 -6v71q-57 -71 -164 -71q-31 0 -54.5 2t-51.5 9.5t-46.5 20.5t-31.5 37.5t-13 57.5v226q0 28 -10.5 33.5t-56.5 5.5v56l194 8v-340q0 -22 1.5 -32t9.5 -20.5t26 -14t50 -3.5q61 0 100.5 31.5t39.5 90.5v185q0 28 -10.5 33.5t-56.5 5.5v56l194 8v-355
q0 -28 10.5 -33.5t56.5 -5.5v-56zM426 611q0 18 -9.5 26t-21 9.5t-36.5 1.5q-26 0 -37 -1.5t-20.5 -9.5t-9.5 -26t9.5 -26t21 -9.5t36.5 -1.5q26 0 37 1.5t20.5 9.5t9.5 26zM498 610q0 -31 -33 -57t-107 -26q-69 0 -103.5 25t-34.5 60q0 31 33 57t107 26q69 0 103.5 -25
t34.5 -60z" />
    <glyph glyph-name="Uhungarumlaut" unicode="&#x170;" horiz-adv-x="985" 
d="M927 630h-33q-62 0 -71 -6q-3 -3 -3 -19v-375q0 -46 -17.5 -87.5t-53 -77t-97 -56.5t-142.5 -21q-169 0 -257.5 70.5t-88.5 172.5v399h-107v56q44 -4 183 -4q136 0 182 4v-56h-107v-402q0 -26 2.5 -46.5t14 -48t31.5 -45.5t59 -31t92 -13q46 0 85.5 9.5t74.5 30t55 59
t20 91.5v371q0 15 -3.5 18.5t-20.5 4.5q-30 2 -50 2h-33v56l143 -4l142 4v-56zM534 879q0 -28 -29 -52l-100 -83l-51 38l51 122q18 43 57 43q26 0 49 -20.5t23 -47.5zM747 879q0 -28 -29 -52l-100 -83l-51 38l51 122q18 43 57 43q26 0 49 -20.5t23 -47.5z" />
    <glyph glyph-name="uhungarumlaut" unicode="&#x171;" horiz-adv-x="718" 
d="M679 0l-187 -6v71q-57 -71 -164 -71q-31 0 -54.5 2t-51.5 9.5t-46.5 20.5t-31.5 37.5t-13 57.5v226q0 28 -10.5 33.5t-56.5 5.5v56l194 8v-340q0 -22 1.5 -32t9.5 -20.5t26 -14t50 -3.5q61 0 100.5 31.5t39.5 90.5v185q0 28 -10.5 33.5t-56.5 5.5v56l194 8v-355
q0 -28 10.5 -33.5t56.5 -5.5v-56zM372 636q0 -28 -29 -52l-100 -83l-51 38l51 122q18 43 57 43q26 0 49 -20.5t23 -47.5zM585 636q0 -28 -29 -52l-100 -83l-51 38l51 122q18 43 57 43q26 0 49 -20.5t23 -47.5z" />
    <glyph glyph-name="Uogonek" unicode="&#x172;" horiz-adv-x="985" 
d="M927 630h-33q-62 0 -71 -6q-3 -3 -3 -19v-375q0 -90 -65.5 -159t-196.5 -81q-20 -18 -27 -43q-9 -31 9.5 -55.5t47.5 -24.5q7 0 14.5 3.5t19 12t13.5 9.5q12 10 31 -6q7 -8 10.5 -18.5t-0.5 -18.5q-47 -70 -121 -70q-55 0 -90 33t-35 78t50 99q-155 6 -235.5 75.5
t-80.5 166.5v399h-107v56q44 -4 183 -4q136 0 182 4v-56h-107v-402q0 -26 2.5 -46.5t14 -48t31.5 -45.5t59 -31t92 -13q46 0 85.5 9.5t74.5 30t55 59t20 91.5v371q0 15 -3.5 18.5t-20.5 4.5q-30 2 -50 2h-33v56l143 -4l142 4v-56z" />
    <glyph glyph-name="uogonek" unicode="&#x173;" horiz-adv-x="718" 
d="M696 -151q-47 -70 -121 -70q-55 0 -90 33t-35 78q0 48 56 104h-14v71q-57 -71 -164 -71q-31 0 -54.5 2t-51.5 9.5t-46.5 20.5t-31.5 37.5t-13 57.5v226q0 28 -10.5 33.5t-56.5 5.5v56l194 8v-340q0 -22 1.5 -32t9.5 -20.5t26 -14t50 -3.5q61 0 100.5 31.5t39.5 90.5v185
q0 28 -10.5 33.5t-56.5 5.5v56l194 8v-355q0 -28 10.5 -33.5t56.5 -5.5v-56l-92 -3q-26 -18 -35 -50q-9 -31 9 -55.5t47 -24.5q7 0 14.5 3.5t19 12t13.5 9.5q12 10 31 -6q7 -8 10.5 -18.5t-0.5 -18.5z" />
    <glyph glyph-name="Wcircumflex" unicode="&#x174;" horiz-adv-x="1323" 
d="M1289 630h-23q-41 0 -54 -2.5t-18 -15.5l-246 -595q-8 -18 -16.5 -23.5t-32.5 -5.5q-15 0 -22 1t-15 7.5t-14 20.5l-187 454l-188 -454q-9 -20 -17.5 -24.5t-32.5 -4.5t-32.5 5.5t-16.5 23.5l-254 613h-87v56l154 -4l180 4v-56h-91l191 -463l160 386l-32 77h-87v56
l154 -4q128 0 181 4v-56h-92l192 -463l183 443q0 1 1.5 3.5t2 5t0.5 3.5q0 8 -80 8h-18v56l147 -4q61 0 110 4v-56zM837 758l-16 -24l-160 58l-160 -58l-14 24l175 141z" />
    <glyph glyph-name="wcircumflex" unicode="&#x175;" horiz-adv-x="931" 
d="M897 388q-28 0 -43 -2q-13 -1 -16.5 -3.5t-8.5 -13.5l-151 -348q-6 -13 -14 -19t-15 -7t-21 -1q-15 0 -22 1t-15 7.5t-14 19.5l-112 259l-112 -260q-6 -13 -14.5 -19t-15.5 -7t-21 -1t-21 1t-15 7t-14 19l-159 367h-60v56q2 0 22 -1t46.5 -2t43.5 -1l130 4v-56h-51
l110 -252l92 212q4 8 4 12q0 5 -11 28h-60v56q40 -4 101 -4q19 0 47.5 1t49.5 2l21 1v-56h-50l120 -277l117 271q-24 6 -54 6v56q47 -4 104 -4q28 0 82 4v-56zM643 521l-20 -22l-158 99l-158 -99l-18 22l177 185z" />
    <glyph glyph-name="Ycircumflex" unicode="&#x176;" horiz-adv-x="968" 
d="M936 630h-30q-20 0 -50 -2q-18 -1 -22.5 -3.5t-11.5 -10.5l-267 -340v-218h107v-56l-179 4q-131 0 -179 -4v56h107v218l-279 356h-101v56l168 -4q142 0 191 4v-56h-75l215 -273l209 267q-24 6 -69 6v56l144 -4q67 0 122 4v-56zM659 758l-16 -24l-160 58l-160 -58l-14 24
l175 141z" />
    <glyph glyph-name="ycircumflex" unicode="&#x177;" horiz-adv-x="683" 
d="M646 388q-33 0 -45 -1q-16 -2 -20 -4.5t-10 -13.5l-227 -440q-33 -63 -86 -96t-111 -33q-50 0 -84 29t-34 71q0 31 19 48t46 17t46 -17t19 -48q0 -35 -26 -53q4 -1 15 -1q32 0 66 18.5t56 59.5q17 28 39 76l-207 388h-66v56l20 -1q21 -1 49.5 -2t48.5 -1q21 0 52.5 1
t55.5 2l23 1v-56h-46l138 -258l129 252q-18 6 -43 6v56q40 -4 99 -4q28 0 84 4v-56zM519 521l-20 -22l-158 99l-158 -99l-18 22l177 185z" />
    <glyph glyph-name="Ydieresis" unicode="&#x178;" horiz-adv-x="968" 
d="M936 630h-30q-20 0 -50 -2q-18 -1 -22.5 -3.5t-11.5 -10.5l-267 -340v-218h107v-56l-179 4q-131 0 -179 -4v56h107v218l-279 356h-101v56l168 -4q142 0 191 4v-56h-75l215 -273l209 267q-24 6 -69 6v56l144 -4q67 0 122 4v-56zM397 807q0 -29 -22 -51t-52 -22
q-31 0 -52.5 21.5t-21.5 52.5q0 30 21.5 51.5t52.5 21.5q30 0 52 -21.5t22 -52.5zM718 807q0 -29 -22 -51t-52 -22q-31 0 -52.5 21.5t-21.5 52.5q0 30 21.5 51.5t52.5 21.5q30 0 52 -21.5t22 -52.5z" />
    <glyph glyph-name="Zacute" unicode="&#x179;" horiz-adv-x="789" 
d="M720 280l-20 -280h-590q-14 0 -19.5 1t-10.5 8t-5 22q0 18 10 30l441 569h-142q-216 0 -228 -183h-63l14 239h571q13 0 19 -1t11 -8t5 -21q0 -15 -11 -29l-439 -566h157q120 0 174 49.5t63 169.5h63zM565 839q-7 -37 -52 -49l-177 -46l-27 58l158 107q18 11 34 11
q32 0 52 -25t12 -56z" />
    <glyph glyph-name="zacute" unicode="&#x17a;" horiz-adv-x="576" 
d="M518 203l-20 -203h-423q-12 0 -18 1t-11.5 7.5t-5.5 19.5q0 14 12 27l298 343h-83q-74 0 -107.5 -26.5t-39.5 -103.5h-63l14 176h408q12 0 18 -1t11.5 -7t5.5 -18q0 -14 -10 -25l-299 -342h90q86 0 119 34t41 118h63zM451 634q0 -39 -42 -57l-167 -76l-36 52l137 133
q17 17 42 17q29 0 47.5 -23t18.5 -46z" />
    <glyph glyph-name="Zdotaccent" unicode="&#x17b;" horiz-adv-x="789" 
d="M720 280l-20 -280h-590q-14 0 -19.5 1t-10.5 8t-5 22q0 18 10 30l441 569h-142q-216 0 -228 -183h-63l14 239h571q13 0 19 -1t11 -8t5 -21q0 -15 -11 -29l-439 -566h157q120 0 174 49.5t63 169.5h63zM477 827q0 -33 -24 -57t-58 -24t-58 24t-24 58q0 33 24 57t58 24
t58 -24t24 -58z" />
    <glyph glyph-name="zdotaccent" unicode="&#x17c;" horiz-adv-x="576" 
d="M518 203l-20 -203h-423q-12 0 -18 1t-11.5 7.5t-5.5 19.5q0 14 12 27l298 343h-83q-74 0 -107.5 -26.5t-39.5 -103.5h-63l14 176h408q12 0 18 -1t11.5 -7t5.5 -18q0 -14 -10 -25l-299 -342h90q86 0 119 34t41 118h63zM371 602q0 -33 -24 -57t-58 -24t-58 24t-24 58
q0 33 24 57t58 24t58 -24t24 -58z" />
    <glyph glyph-name="Zcaron" unicode="&#x17d;" horiz-adv-x="789" 
d="M720 280l-20 -280h-590q-14 0 -19.5 1t-10.5 8t-5 22q0 18 10 30l441 569h-142q-216 0 -228 -183h-63l14 239h571q13 0 19 -1t11 -8t5 -21q0 -15 -11 -29l-439 -566h157q120 0 174 49.5t63 169.5h63zM570 875l-175 -141l-175 141l16 24l160 -58l160 58z" />
    <glyph glyph-name="zcaron" unicode="&#x17e;" horiz-adv-x="576" 
d="M518 203l-20 -203h-423q-12 0 -18 1t-11.5 7.5t-5.5 19.5q0 14 12 27l298 343h-83q-74 0 -107.5 -26.5t-39.5 -103.5h-63l14 176h408q12 0 18 -1t11.5 -7t5.5 -18q0 -14 -10 -25l-299 -342h90q86 0 119 34t41 118h63zM465 684l-177 -185l-177 185l20 22l158 -99l158 99z
" />
    <glyph glyph-name="longs" unicode="&#x17f;" horiz-adv-x="399" 
d="M491 606q0 -32 -21 -50.5t-48 -18.5q-25 0 -46.5 18t-21.5 51q0 12 7.5 26t7.5 15v5q0 2 -11 2q-36 0 -59 -14.5t-31.5 -38.5t-10.5 -36.5t-2 -26.5v-482h84v-56l-143 4l-128 -4v56h67v332h-83v56h83v96q0 79 67 119.5t163 40.5q60 0 93 -28t33 -66z" />
    <glyph glyph-name="Ereversed" unicode="&#x18e;" horiz-adv-x="844" 
d="M803 0h-695l-51 269h63q11 -58 25.5 -94.5t41 -65t69 -41t106.5 -12.5h183v268h-66q-65 0 -89.5 -23t-24.5 -87h-63v276h63q0 -64 24.5 -87t89.5 -23h66v243h-173q-107 0 -154.5 -38.5t-62.5 -144.5h-63l34 239h677v-56h-107v-567h107v-56z" />
    <glyph glyph-name="florin" unicode="&#x192;" horiz-adv-x="399" 
d="M491 606q0 -32 -21 -50.5t-48 -18.5q-25 0 -46.5 18t-21.5 51q0 23 12 41l3 5q0 2 -11 2q-31 0 -53.5 -11t-33 -24.5t-16.5 -33t-6.5 -28.5t-0.5 -19v-94h135v-56h-128v-332h84v-56l-143 4q-21 0 -52 -1t-54 -2l-22 -1v56h67v332h-83v56h83v96q0 79 67 119.5t163 40.5
q60 0 93 -28t33 -66z" />
    <glyph glyph-name="Ohorn" unicode="&#x1a0;" horiz-adv-x="968" 
d="M890 338q0 -74 -28.5 -141t-82.5 -113q-111 -96 -296 -96q-186 0 -297 96q-54 46 -82.5 113t-28.5 141q0 76 28.5 145t82.5 117q112 98 297 98q125 0 219 -47q32 9 49 35q-28 3 -43.5 22t-15.5 45q0 27 17.5 46.5t49.5 19.5q29 0 47.5 -25t18.5 -59q0 -40 -17 -72.5
t-47 -47.5l18 -15q54 -48 82.5 -117t28.5 -145zM728 357q0 142 -60 213q-64 77 -185 77q-122 0 -186 -77q-60 -71 -60 -213q0 -157 60 -233q65 -83 186 -83q120 0 185 83q60 76 60 233z" />
    <glyph glyph-name="ohorn" unicode="&#x1a1;" 
d="M621 494q0 -43 -20 -77t-53 -47q57 -63 57 -153q0 -101 -77 -162t-206 -61t-206 61t-77 162q0 107 77 172q78 64 206 64q105 0 177 -43q29 8 47 35q-28 2 -43.5 21.5t-15.5 44.5q0 27 17.5 47t49.5 20q29 0 48 -25t19 -59zM466 231q0 100 -27 132q-36 45 -117 45
q-80 0 -117 -45q-27 -32 -27 -132q0 -106 27 -141q35 -46 117 -46t117 46q27 35 27 141z" />
    <glyph glyph-name="Uhorn" unicode="&#x1af;" horiz-adv-x="985" 
d="M958 734q0 -54 -40 -91.5t-100 -46.5v-367q0 -110 -86 -177q-83 -64 -221 -64q-155 0 -249 63q-45 31 -71.5 78t-26.5 100v401h-107v56l182 -4l182 4v-56h-106v-401q0 -95 42 -136q52 -49 154 -49q113 0 176 50q60 48 60 135v393q0 6 -27 6q-27 2 -80 2v56l142 -4
q12 0 36 4v-30q41 8 62 31q-26 4 -40.5 22.5t-14.5 43.5q0 27 17.5 46.5t49.5 19.5q29 0 47.5 -25.5t18.5 -59.5z" />
    <glyph glyph-name="uhorn" unicode="&#x1b0;" horiz-adv-x="754" 
d="M754 492q0 -52 -40 -87t-103 -48v-274q0 -18 12 -23q11 -4 56 -4v-56l-188 -6v72q-24 -33 -64 -52.5t-85 -19.5q-107 0 -157 26q-54 29 -54 95v244q0 17 -11 23q-12 4 -56 4v56l194 8v-335q0 -50 10 -59q21 -16 85 -16q54 0 92.5 32.5t38.5 79.5v207q0 18 -11 23
q-11 4 -56 4v56l194 8v-34q42 10 63 29q-25 4 -39 23t-14 43q0 27 17.5 47t48.5 20q30 0 48.5 -25.5t18.5 -60.5z" />
    <glyph glyph-name="Acaron" unicode="&#x1cd;" horiz-adv-x="968" 
d="M916 0l-165 4q-130 0 -182 -4v56h90l-63 140h-305l-54 -121l-5 -11q0 -8 86 -8v-56l-142 4q-20 0 -50 -1t-52 -2t-23 -1v56h30q27 0 46 2q18 2 22.5 4.5t9.5 11.5l269 602q6 14 14 20t15.5 7t26.5 1q18 0 25.5 -1t15.5 -7t14 -20l278 -620h99v-56zM571 252l-128 284
l-127 -284h255zM659 875l-175 -141l-175 141l16 24l160 -58l160 58z" />
    <glyph glyph-name="acaron" unicode="&#x1ce;" horiz-adv-x="629" 
d="M619 28q0 -13 -5.5 -19.5t-11.5 -7.5t-18 -1h-59q-59 0 -84 17t-25 51q-48 -74 -170 -74q-55 0 -99.5 10t-77.5 38.5t-33 72.5q0 42 34 72.5t77.5 45t102 23t89 10t57.5 1.5v27q0 113 -122 113q-71 0 -71 -7q1 -4 3 -7q12 -12 12 -40q0 -29 -19 -49t-51 -20q-29 0 -49 19
t-20 51q0 24 10 42t29 28t37.5 16.5t45.5 9t40.5 3t35.5 0.5q126 0 186 -45t60 -113v-208q0 -14 2.5 -19t15.5 -8.5t42 -3.5q13 0 19 -1t11.5 -7.5t5.5 -19.5zM396 137v91q-41 -1 -79.5 -7.5t-74.5 -18.5t-58 -34.5t-22 -51.5q0 -33 30.5 -54.5t73.5 -21.5q53 0 91 23
q39 24 39 74zM492 684l-177 -185l-177 185l20 22l158 -99l158 99z" />
    <glyph glyph-name="Icaron" unicode="&#x1cf;" horiz-adv-x="479" 
d="M428 0q-50 4 -189 4q-138 0 -188 -4v56h113v574h-113v56q50 -4 189 -4q138 0 188 4v-56h-113v-574h113v-56zM415 875l-175 -141l-175 141l16 24l160 -58l160 58z" />
    <glyph glyph-name="icaron" unicode="&#x1d0;" horiz-adv-x="363" 
d="M315 0q-55 4 -122 4l-126 -4v56h67v291q0 28 -10 33.5t-54 5.5v56l184 8v-394h61v-56zM359 684l-177 -185l-177 185l20 22l158 -99l158 99z" />
    <glyph glyph-name="Ocaron" unicode="&#x1d1;" horiz-adv-x="968" 
d="M892 339q0 -151 -106.5 -251t-302.5 -100q-194 0 -301 99.5t-107 251.5q0 73 26 137t75 114t128.5 79t179.5 29q194 0 301 -102t107 -257zM729 354q0 21 -0.5 36t-5.5 48t-13.5 57.5t-26.5 55t-43.5 50t-65.5 33t-91 13.5q-124 0 -189 -81q-56 -72 -56 -212
q0 -143 50 -217q67 -96 195 -96q134 0 198 99q48 76 48 214zM660 875l-175 -141l-175 141l16 24l160 -58l160 58z" />
    <glyph glyph-name="ocaron" unicode="&#x1d2;" 
d="M606 218q0 -94 -72.5 -159t-210.5 -65t-210.5 64.5t-72.5 159.5q0 97 72 166t211 69q138 0 210.5 -68.5t72.5 -166.5zM467 230q0 27 -1 41.5t-4.5 39t-12.5 38.5t-24.5 29t-41 22t-60.5 7t-60.5 -7t-41 -22t-24.5 -29t-12.5 -38.5t-4.5 -39t-1 -41.5q0 -35 1 -53.5
t8.5 -48t21.5 -44.5t43 -27t70 -12t70 12t43 27t21.5 44.5t8.5 48t1 53.5zM501 684l-177 -185l-177 185l20 22l158 -99l158 99z" />
    <glyph glyph-name="Ucaron" unicode="&#x1d3;" horiz-adv-x="985" 
d="M927 630h-33q-62 0 -71 -6q-3 -3 -3 -19v-375q0 -46 -17.5 -87.5t-53 -77t-97 -56.5t-142.5 -21q-169 0 -257.5 70.5t-88.5 172.5v399h-107v56q44 -4 183 -4q136 0 182 4v-56h-107v-402q0 -26 2.5 -46.5t14 -48t31.5 -45.5t59 -31t92 -13q46 0 85.5 9.5t74.5 30t55 59
t20 91.5v371q0 15 -3.5 18.5t-20.5 4.5q-30 2 -50 2h-33v56l143 -4l142 4v-56zM697 875l-175 -141l-175 141l16 24l160 -58l160 58z" />
    <glyph glyph-name="ucaron" unicode="&#x1d4;" horiz-adv-x="718" 
d="M679 0l-187 -6v71q-57 -71 -164 -71q-31 0 -54.5 2t-51.5 9.5t-46.5 20.5t-31.5 37.5t-13 57.5v226q0 28 -10.5 33.5t-56.5 5.5v56l194 8v-340q0 -22 1.5 -32t9.5 -20.5t26 -14t50 -3.5q61 0 100.5 31.5t39.5 90.5v185q0 28 -10.5 33.5t-56.5 5.5v56l194 8v-355
q0 -28 10.5 -33.5t56.5 -5.5v-56zM537 684l-177 -185l-177 185l20 22l158 -99l158 99z" />
    <glyph glyph-name="Udieresisacute" unicode="&#x1d7;" horiz-adv-x="985" 
d="M927 630h-33q-62 0 -71 -6q-3 -3 -3 -19v-375q0 -46 -17.5 -87.5t-53 -77t-97 -56.5t-142.5 -21q-169 0 -257.5 70.5t-88.5 172.5v399h-107v56q44 -4 183 -4q136 0 182 4v-56h-107v-402q0 -26 2.5 -46.5t14 -48t31.5 -45.5t59 -31t92 -13q46 0 85.5 9.5t74.5 30t55 59
t20 91.5v371q0 15 -3.5 18.5t-20.5 4.5q-30 2 -50 2h-33v56l143 -4l142 4v-56zM435 807q0 -29 -22 -51t-52 -22q-31 0 -52.5 21.5t-21.5 52.5q0 30 21.5 51.5t52.5 21.5q30 0 52 -21.5t22 -52.5zM756 807q0 -29 -22 -51t-52 -22q-31 0 -52.5 21.5t-21.5 52.5q0 30 21.5 51.5
t52.5 21.5q30 0 52 -21.5t22 -52.5zM692 1039q-7 -37 -52 -49l-177 -46l-27 58l158 107q18 11 34 11q32 0 52 -25t12 -56z" />
    <glyph glyph-name="udieresisacute" unicode="&#x1d8;" horiz-adv-x="718" 
d="M679 0l-187 -6v71q-57 -71 -164 -71q-31 0 -54.5 2t-51.5 9.5t-46.5 20.5t-31.5 37.5t-13 57.5v226q0 28 -10.5 33.5t-56.5 5.5v56l194 8v-340q0 -22 1.5 -32t9.5 -20.5t26 -14t50 -3.5q61 0 100.5 31.5t39.5 90.5v185q0 28 -10.5 33.5t-56.5 5.5v56l194 8v-355
q0 -28 10.5 -33.5t56.5 -5.5v-56zM298 602q0 -29 -22 -51t-52 -22q-31 0 -52.5 21.5t-21.5 52.5q0 30 21.5 51.5t52.5 21.5q30 0 52 -21.5t22 -52.5zM569 602q0 -29 -22 -51t-52 -22q-31 0 -52.5 21.5t-21.5 52.5q0 30 21.5 51.5t52.5 21.5q30 0 52 -21.5t22 -52.5zM530 829
q-7 -37 -52 -49l-177 -46l-27 58l158 107q18 11 34 11q32 0 52 -25t12 -56z" />
    <glyph glyph-name="Udieresiscaron" unicode="&#x1d9;" horiz-adv-x="985" 
d="M927 630h-33q-62 0 -71 -6q-3 -3 -3 -19v-375q0 -46 -17.5 -87.5t-53 -77t-97 -56.5t-142.5 -21q-169 0 -257.5 70.5t-88.5 172.5v399h-107v56q44 -4 183 -4q136 0 182 4v-56h-107v-402q0 -26 2.5 -46.5t14 -48t31.5 -45.5t59 -31t92 -13q46 0 85.5 9.5t74.5 30t55 59
t20 91.5v371q0 15 -3.5 18.5t-20.5 4.5q-30 2 -50 2h-33v56l143 -4l142 4v-56zM435 807q0 -29 -22 -51t-52 -22q-31 0 -52.5 21.5t-21.5 52.5q0 30 21.5 51.5t52.5 21.5q30 0 52 -21.5t22 -52.5zM756 807q0 -29 -22 -51t-52 -22q-31 0 -52.5 21.5t-21.5 52.5q0 30 21.5 51.5
t52.5 21.5q30 0 52 -21.5t22 -52.5zM697 1075l-175 -141l-175 141l16 24l160 -58l160 58z" />
    <glyph glyph-name="udieresiscaron" unicode="&#x1da;" horiz-adv-x="718" 
d="M679 0l-187 -6v71q-57 -71 -164 -71q-31 0 -54.5 2t-51.5 9.5t-46.5 20.5t-31.5 37.5t-13 57.5v226q0 28 -10.5 33.5t-56.5 5.5v56l194 8v-340q0 -22 1.5 -32t9.5 -20.5t26 -14t50 -3.5q61 0 100.5 31.5t39.5 90.5v185q0 28 -10.5 33.5t-56.5 5.5v56l194 8v-355
q0 -28 10.5 -33.5t56.5 -5.5v-56zM298 602q0 -29 -22 -51t-52 -22q-31 0 -52.5 21.5t-21.5 52.5q0 30 21.5 51.5t52.5 21.5q30 0 52 -21.5t22 -52.5zM569 602q0 -29 -22 -51t-52 -22q-31 0 -52.5 21.5t-21.5 52.5q0 30 21.5 51.5t52.5 21.5q30 0 52 -21.5t22 -52.5zM535 865
l-175 -141l-175 141l16 24l160 -58l160 58z" />
    <glyph glyph-name="Udieresisgrave" unicode="&#x1db;" horiz-adv-x="985" 
d="M927 630h-33q-62 0 -71 -6q-3 -3 -3 -19v-375q0 -46 -17.5 -87.5t-53 -77t-97 -56.5t-142.5 -21q-169 0 -257.5 70.5t-88.5 172.5v399h-107v56q44 -4 183 -4q136 0 182 4v-56h-107v-402q0 -26 2.5 -46.5t14 -48t31.5 -45.5t59 -31t92 -13q46 0 85.5 9.5t74.5 30t55 59
t20 91.5v371q0 15 -3.5 18.5t-20.5 4.5q-30 2 -50 2h-33v56l143 -4l142 4v-56zM435 807q0 -29 -22 -51t-52 -22q-31 0 -52.5 21.5t-21.5 52.5q0 30 21.5 51.5t52.5 21.5q30 0 52 -21.5t22 -52.5zM756 807q0 -29 -22 -51t-52 -22q-31 0 -52.5 21.5t-21.5 52.5q0 30 21.5 51.5
t52.5 21.5q30 0 52 -21.5t22 -52.5zM607 1002l-27 -58l-177 46q-45 12 -52 49q-8 31 12 56t52 25q16 0 34 -11z" />
    <glyph glyph-name="udieresisgrave" unicode="&#x1dc;" horiz-adv-x="718" 
d="M679 0l-187 -6v71q-57 -71 -164 -71q-31 0 -54.5 2t-51.5 9.5t-46.5 20.5t-31.5 37.5t-13 57.5v226q0 28 -10.5 33.5t-56.5 5.5v56l194 8v-340q0 -22 1.5 -32t9.5 -20.5t26 -14t50 -3.5q61 0 100.5 31.5t39.5 90.5v185q0 28 -10.5 33.5t-56.5 5.5v56l194 8v-355
q0 -28 10.5 -33.5t56.5 -5.5v-56zM298 602q0 -29 -22 -51t-52 -22q-31 0 -52.5 21.5t-21.5 52.5q0 30 21.5 51.5t52.5 21.5q30 0 52 -21.5t22 -52.5zM569 602q0 -29 -22 -51t-52 -22q-31 0 -52.5 21.5t-21.5 52.5q0 30 21.5 51.5t52.5 21.5q30 0 52 -21.5t22 -52.5zM445 792
l-27 -58l-177 46q-45 12 -52 49q-8 31 12 56t52 25q16 0 34 -11z" />
    <glyph glyph-name="eturned" unicode="&#x1dd;" horiz-adv-x="592" 
d="M551 222q0 -95 -71 -161.5t-202 -66.5q-121 0 -183 62q-55 56 -55 153q0 14 5 21t11 8t19 1h337q-1 21 -2.5 35.5t-11 41t-25.5 43t-48.5 30t-77.5 13.5q-108 0 -144 -74q-6 -12 -11.5 -14.5t-19.5 -2.5q-32 0 -32 22q0 7 6.5 20.5t25 34t45.5 34.5q57 31 144 31
q140 0 215 -67t75 -164zM412 197h-273q7 -157 138 -157t135 157z" />
    <glyph glyph-name="Gcaron" unicode="&#x1e6;" horiz-adv-x="1012" 
d="M945 219h-89v-187q0 -32 -18 -32q-7 0 -41 15.5t-50 26.5q-53 -54 -221 -54q-97 0 -175.5 21.5t-129 57t-84.5 82.5t-48 95t-14 99q0 152 117 253.5t325 101.5q124 0 225 -68l67 58q11 10 24 10q11 0 16 -4.5t6 -10t1 -17.5v-213q0 -22 -5 -27t-27 -5h-7q-20 0 -25 4
t-8 20q-18 93 -86.5 145t-156.5 52q-147 0 -227 -74q-76 -72 -76 -224q0 -158 83 -229q84 -71 234 -71q43 0 73 6.5t44.5 14.5t22.5 21.5t9 20.5t1 19v93h-160v56q43 -3 108 -3l122 -1l170 4v-56zM681 875l-175 -141l-175 141l16 24l160 -58l160 58z" />
    <glyph glyph-name="gcaron" unicode="&#x1e7;" 
d="M624 389q0 -24 -16 -37.5t-35 -13.5q-18 0 -34 13t-16 38q0 11 3 19q-27 -3 -60 -15q40 -36 40 -93t-52.5 -103t-166.5 -46q-79 0 -131 25q-7 -9 -7 -26q0 -29 23 -47q12 -10 24 -12t42 -2h54q64 0 94 -1t67.5 -7t66.5 -19q86 -40 86 -131q0 -61 -74 -96.5t-209 -35.5
q-146 0 -214.5 38.5t-68.5 90.5q0 35 28 56t62 29q-40 40 -40 96q0 49 32 88q-53 44 -53 104q0 57 53.5 103t164.5 46q87 0 146 -32q52 38 116 38q35 0 55 -20.5t20 -46.5zM387 301q0 17 -0.5 26.5t-6 26.5t-15 26t-29.5 16.5t-49 7.5q-28 0 -48 -7.5t-29.5 -17t-15 -26
t-6 -26.5t-0.5 -27t0.5 -26.5t6 -26t15 -26t29.5 -17t48 -7.5q35 0 57.5 9.5t30.5 28.5t10 31.5t2 34.5zM508 -72q0 53 -155 53h-133q-82 0 -82 -52q0 -33 45.5 -58.5t139.5 -25.5q96 0 140.5 26t44.5 57zM455 684l-177 -185l-177 185l20 22l158 -99l158 99z" />
    <glyph glyph-name="Oogonek" unicode="&#x1ea;" horiz-adv-x="968" 
d="M892 339q0 -144 -97.5 -242.5t-278.5 -107.5q-18 -17 -26 -42q-9 -31 9.5 -55.5t47.5 -24.5q7 0 14.5 3.5t19 12t13.5 9.5q12 10 31 -6q7 -8 10.5 -18.5t-0.5 -18.5q-47 -70 -121 -70q-55 0 -90 33t-35 78q0 47 50 99q-173 12 -268.5 109.5t-95.5 240.5q0 73 26 137
t75 114t128.5 79t179.5 29q194 0 301 -102t107 -257zM729 354q0 21 -0.5 36t-5.5 48t-13.5 57.5t-26.5 55t-43.5 50t-65.5 33t-91 13.5q-124 0 -189 -81q-56 -72 -56 -212q0 -143 50 -217q67 -96 195 -96q134 0 198 99q48 76 48 214z" />
    <glyph glyph-name="oogonek" unicode="&#x1eb;" 
d="M606 218q0 -90 -66.5 -154t-193.5 -70q-23 -16 -33 -47q-9 -31 9.5 -55.5t47.5 -24.5q7 0 14.5 3.5t19 12t13.5 9.5q12 10 31 -6q7 -8 10.5 -18.5t-0.5 -18.5q-47 -70 -121 -70q-55 0 -90 33t-35 78q0 49 58 107q-112 13 -171 74.5t-59 146.5q0 97 72 166t211 69
q138 0 210.5 -68.5t72.5 -166.5zM467 230q0 27 -1 41.5t-4.5 39t-12.5 38.5t-24.5 29t-41 22t-60.5 7t-60.5 -7t-41 -22t-24.5 -29t-12.5 -38.5t-4.5 -39t-1 -41.5q0 -35 1 -53.5t8.5 -48t21.5 -44.5t43 -27t70 -12t70 12t43 27t21.5 44.5t8.5 48t1 53.5z" />
    <glyph glyph-name="jcaron" unicode="&#x1f0;" horiz-adv-x="399" 
d="M304 -38q0 -79 -62 -120.5t-139 -41.5q-69 0 -113.5 25t-44.5 74q0 29 19.5 49t50.5 20q29 0 49 -19.5t20 -49.5q0 -28 -12 -40l-4 -8q0 -5 34 -5q39 0 60.5 33t21.5 85v382q0 29 -11 34.5t-63 5.5v56l194 8v-488zM399 684l-177 -185l-177 185l20 22l158 -99l158 99z" />
    <glyph glyph-name="Gacute" unicode="&#x1f4;" horiz-adv-x="1012" 
d="M945 219h-89v-187q0 -32 -18 -32q-7 0 -41 15.5t-50 26.5q-53 -54 -221 -54q-97 0 -175.5 21.5t-129 57t-84.5 82.5t-48 95t-14 99q0 152 117 253.5t325 101.5q124 0 225 -68l67 58q11 10 24 10q11 0 16 -4.5t6 -10t1 -17.5v-213q0 -22 -5 -27t-27 -5h-7q-20 0 -25 4
t-8 20q-18 93 -86.5 145t-156.5 52q-147 0 -227 -74q-76 -72 -76 -224q0 -158 83 -229q84 -71 234 -71q43 0 73 6.5t44.5 14.5t22.5 21.5t9 20.5t1 19v93h-160v56q43 -3 108 -3l122 -1l170 4v-56zM676 839q-7 -37 -52 -49l-177 -46l-27 58l158 107q18 11 34 11q32 0 52 -25
t12 -56z" />
    <glyph glyph-name="gacute" unicode="&#x1f5;" 
d="M624 389q0 -24 -16 -37.5t-35 -13.5q-18 0 -34 13t-16 38q0 11 3 19q-27 -3 -60 -15q40 -36 40 -93t-52.5 -103t-166.5 -46q-79 0 -131 25q-7 -9 -7 -26q0 -29 23 -47q12 -10 24 -12t42 -2h54q64 0 94 -1t67.5 -7t66.5 -19q86 -40 86 -131q0 -61 -74 -96.5t-209 -35.5
q-146 0 -214.5 38.5t-68.5 90.5q0 35 28 56t62 29q-40 40 -40 96q0 49 32 88q-53 44 -53 104q0 57 53.5 103t164.5 46q87 0 146 -32q52 38 116 38q35 0 55 -20.5t20 -46.5zM387 301q0 17 -0.5 26.5t-6 26.5t-15 26t-29.5 16.5t-49 7.5q-28 0 -48 -7.5t-29.5 -17t-15 -26
t-6 -26.5t-0.5 -27t0.5 -26.5t6 -26t15 -26t29.5 -17t48 -7.5q35 0 57.5 9.5t30.5 28.5t10 31.5t2 34.5zM508 -72q0 53 -155 53h-133q-82 0 -82 -52q0 -33 45.5 -58.5t139.5 -25.5q96 0 140.5 26t44.5 57zM441 634q0 -39 -42 -57l-167 -76l-36 52l137 133q17 17 42 17
q29 0 47.5 -23t18.5 -46z" />
    <glyph glyph-name="Aringacute" unicode="&#x1fa;" horiz-adv-x="968" 
d="M916 0l-165 4q-130 0 -182 -4v56h90l-63 140h-305l-54 -121l-5 -11q0 -8 86 -8v-56l-142 4q-20 0 -50 -1t-52 -2t-23 -1v56h30q27 0 46 2q18 2 22.5 4.5t9.5 11.5l269 602q6 14 14 20t15.5 7t26.5 1q18 0 25.5 -1t15.5 -7t14 -20l278 -620h99v-56zM571 252l-128 284
l-127 -284h255zM551 788q0 18 -9.5 26t-21 9.5t-36.5 1.5q-26 0 -37 -1.5t-20.5 -9.5t-9.5 -26t9.5 -26t21 -9.5t36.5 -1.5q26 0 37 1.5t20.5 9.5t9.5 26zM623 787q0 -31 -33 -57t-107 -26q-69 0 -103.5 25t-34.5 60q0 31 33 57t107 26q69 0 103.5 -25t34.5 -60zM611 1002
q-7 -37 -52 -49l-177 -46l-27 58l158 107q18 11 34 11q32 0 52 -25t12 -56z" />
    <glyph glyph-name="aringacute" unicode="&#x1fb;" horiz-adv-x="629" 
d="M619 28q0 -13 -5.5 -19.5t-11.5 -7.5t-18 -1h-59q-59 0 -84 17t-25 51q-48 -74 -170 -74q-55 0 -99.5 10t-77.5 38.5t-33 72.5q0 42 34 72.5t77.5 45t102 23t89 10t57.5 1.5v27q0 113 -122 113q-71 0 -71 -7q1 -4 3 -7q12 -12 12 -40q0 -29 -19 -49t-51 -20q-29 0 -49 19
t-20 51q0 24 10 42t29 28t37.5 16.5t45.5 9t40.5 3t35.5 0.5q126 0 186 -45t60 -113v-208q0 -14 2.5 -19t15.5 -8.5t42 -3.5q13 0 19 -1t11.5 -7.5t5.5 -19.5zM396 137v91q-41 -1 -79.5 -7.5t-74.5 -18.5t-58 -34.5t-22 -51.5q0 -33 30.5 -54.5t73.5 -21.5q53 0 91 23
q39 24 39 74zM382 611q0 18 -9.5 26t-21 9.5t-36.5 1.5q-26 0 -37 -1.5t-20.5 -9.5t-9.5 -26t9.5 -26t21 -9.5t36.5 -1.5q26 0 37 1.5t20.5 9.5t9.5 26zM454 610q0 -31 -33 -57t-107 -26q-69 0 -103.5 25t-34.5 60q0 31 33 57t107 26q69 0 103.5 -25t34.5 -60zM442 825
q-7 -37 -52 -49l-177 -46l-27 58l158 107q18 11 34 11q32 0 52 -25t12 -56z" />
    <glyph glyph-name="AEacute" unicode="&#x1fc;" horiz-adv-x="1163" 
d="M1122 269l-51 -269h-614v56h80v246h-195l-109 -239q35 -7 85 -7v-56l-142 4l-124 -4v56h29q19 0 47 2q18 2 22.5 4.5t9.5 11.5l255 556h-64v56h702l34 -239h-63q-13 103 -55.5 143t-142.5 40h-147v-272h73q65 0 90 23t25 87h63v-276h-63q0 64 -25 87t-90 23h-73v-246h150
q45 0 79.5 6.5t57.5 22.5t38 31.5t26 44.5t16 49.5t13 58.5h63zM537 358v272h-44l-125 -272h169zM752 839q-7 -37 -52 -49l-177 -46l-27 58l158 107q18 11 34 11q32 0 52 -25t12 -56z" />
    <glyph glyph-name="aeacute" unicode="&#x1fd;" horiz-adv-x="931" 
d="M890 114q0 -6 -5 -18.5t-19.5 -30.5t-36 -33.5t-59 -26.5t-83.5 -11q-123 0 -204 61q-57 -61 -226 -61q-21 0 -37.5 0.5t-51.5 7t-58.5 17t-42.5 34t-19 55.5q0 23 11.5 42t26.5 30.5t39.5 22t41 15t39.5 10.5q61 13 196 19v47q0 113 -122 113q-72 0 -72 -7q1 -4 3 -7
q12 -12 12 -40q0 -29 -19 -49t-51 -20q-29 0 -49 19t-20 51q0 34 20 56t57 30.5t61.5 10.5t59.5 2q137 0 202 -56q73 56 186 56q112 0 166 -60q54 -59 54 -154q0 -15 -5 -22t-10.5 -8t-19.5 -1h-326q8 -163 171 -163q95 0 128 76q7 15 30 15q32 0 32 -22zM791 250
q-5 157 -120 157q-39 0 -67.5 -14.5t-42 -32.5t-21.5 -43.5t-9 -39t-1 -27.5h261zM422 125q0 8 -4 16q-12 33 -15 63q-91 -3 -148 -21q-81 -28 -81 -75q0 -27 27 -47.5t73 -20.5q32 0 63.5 7t58 27.5t26.5 50.5zM629 634q0 -39 -42 -57l-167 -76l-36 52l137 133q17 17 42 17
q29 0 47.5 -23t18.5 -46z" />
    <glyph glyph-name="Oslashacute" unicode="&#x1fe;" horiz-adv-x="1002" 
d="M926 339q0 -149 -110 -250t-316 -101q-120 0 -213 38l-71 -91l-39 32l63 83q-92 53 -128.5 132.5t-36.5 156.5q0 71 26 134.5t77 114.5t134 80.5t189 29.5q121 0 213 -39l70 92l41 -32l-65 -84q85 -48 125.5 -129t40.5 -167zM673 607q-70 45 -173 45q-140 0 -208 -77
q-37 -40 -51.5 -94t-14.5 -142q0 -73 12 -129t50 -99zM775 339q0 80 -13 136t-50 98l-384 -495q68 -44 173 -44q56 0 101 13t73 31t48.5 48t30 54t15 59.5t6 53t0.5 46.5zM672 839q-7 -37 -52 -49l-177 -46l-27 58l158 107q18 11 34 11q32 0 52 -25t12 -56z" />
    <glyph glyph-name="oslashacute" unicode="&#x1ff;" 
d="M606 218q0 -94 -72.5 -159t-210.5 -65q-67 0 -118 16l-83 -120l-37 26l76 112q-56 25 -88.5 76.5t-32.5 113.5q0 97 72 166t211 69q68 0 119 -17l82 119l37 -26l-75 -111q120 -66 120 -200zM410 390q-34 17 -87 17q-32 0 -57.5 -7t-41.5 -16.5t-27.5 -27t-17 -31
t-8.5 -36.5t-3.5 -35.5t-0.5 -34.5q0 -32 1 -50t8.5 -44t22.5 -42zM479 219q0 54 -5 81q-3 16 -10 31t-12 21l-5 7q-7 -6 -8 -8l-202 -295q34 -16 86 -16q45 0 76 12.5t46.5 28t23.5 44t9 46t1 48.5zM487 634q0 -39 -42 -57l-167 -76l-36 52l137 133q17 17 42 17
q29 0 47.5 -23t18.5 -46z" />
    <glyph glyph-name="Adblgrave" unicode="&#x200;" horiz-adv-x="968" 
d="M916 0l-165 4q-130 0 -182 -4v56h90l-63 140h-305l-54 -121l-5 -11q0 -8 86 -8v-56l-142 4q-20 0 -50 -1t-52 -2t-23 -1v56h30q27 0 46 2q18 2 22.5 4.5t9.5 11.5l269 602q6 14 14 20t15.5 7t26.5 1q18 0 25.5 -1t15.5 -7t14 -20l278 -620h99v-56zM571 252l-128 284
l-127 -284h255zM616 782l-51 -38l-100 83q-29 24 -29 52q0 27 23 47.5t49 20.5q39 0 57 -43zM403 782l-51 -38l-100 83q-29 24 -29 52q0 27 23 47.5t49 20.5q39 0 57 -43z" />
    <glyph glyph-name="adblgrave" unicode="&#x201;" horiz-adv-x="629" 
d="M619 28q0 -13 -5.5 -19.5t-11.5 -7.5t-18 -1h-59q-59 0 -84 17t-25 51q-48 -74 -170 -74q-55 0 -99.5 10t-77.5 38.5t-33 72.5q0 42 34 72.5t77.5 45t102 23t89 10t57.5 1.5v27q0 113 -122 113q-71 0 -71 -7q1 -4 3 -7q12 -12 12 -40q0 -29 -19 -49t-51 -20q-29 0 -49 19
t-20 51q0 24 10 42t29 28t37.5 16.5t45.5 9t40.5 3t35.5 0.5q126 0 186 -45t60 -113v-208q0 -14 2.5 -19t15.5 -8.5t42 -3.5q13 0 19 -1t11.5 -7.5t5.5 -19.5zM396 137v91q-41 -1 -79.5 -7.5t-74.5 -18.5t-58 -34.5t-22 -51.5q0 -33 30.5 -54.5t73.5 -21.5q53 0 91 23
q39 24 39 74zM482 539l-51 -38l-100 83q-29 24 -29 52q0 27 23 47.5t49 20.5q39 0 57 -43zM269 539l-51 -38l-100 83q-29 24 -29 52q0 27 23 47.5t49 20.5q39 0 57 -43z" />
    <glyph glyph-name="Edblgrave" unicode="&#x204;" horiz-adv-x="844" 
d="M803 269l-51 -269h-695v56h107v567h-107v56h677l34 -239h-63q-15 106 -62.5 144.5t-154.5 38.5h-173v-243h66q65 0 89.5 23t24.5 87h63v-276h-63q0 64 -24.5 87t-89.5 23h-66v-268h183q64 0 106.5 12.5t69 41t41 65t25.5 94.5h63zM590 782l-51 -38l-100 83q-29 24 -29 52
q0 27 23 47.5t49 20.5q39 0 57 -43zM377 782l-51 -38l-100 83q-29 24 -29 52q0 27 23 47.5t49 20.5q39 0 57 -43z" />
    <glyph glyph-name="edblgrave" unicode="&#x205;" horiz-adv-x="592" 
d="M551 114q0 -7 -6.5 -20.5t-25 -34t-45.5 -34.5q-57 -31 -144 -31q-140 0 -215 67t-75 164q0 95 71 161.5t202 66.5q121 0 183 -62q55 -56 55 -153q0 -14 -5 -21t-11 -8t-19 -1h-337q1 -21 2.5 -35.5t11 -41t25.5 -43t48.5 -30t77.5 -13.5q108 0 144 74q6 11 11.5 14
t19.5 3q32 0 32 -22zM452 250q-7 157 -138 157t-135 -157h273zM464 539l-51 -38l-100 83q-29 24 -29 52q0 27 23 47.5t49 20.5q39 0 57 -43zM251 539l-51 -38l-100 83q-29 24 -29 52q0 27 23 47.5t49 20.5q39 0 57 -43z" />
    <glyph glyph-name="Idblgrave" unicode="&#x208;" horiz-adv-x="479" 
d="M428 0q-50 4 -189 4q-138 0 -188 -4v56h113v574h-113v56q50 -4 189 -4q138 0 188 4v-56h-113v-574h113v-56zM407 782l-51 -38l-100 83q-29 24 -29 52q0 27 23 47.5t49 20.5q39 0 57 -43zM194 782l-51 -38l-100 83q-29 24 -29 52q0 27 23 47.5t49 20.5q39 0 57 -43z" />
    <glyph glyph-name="idblgrave" unicode="&#x209;" horiz-adv-x="363" 
d="M315 0q-55 4 -122 4l-126 -4v56h67v291q0 28 -10 33.5t-54 5.5v56l184 8v-394h61v-56zM349 539l-51 -38l-100 83q-29 24 -29 52q0 27 23 47.5t49 20.5q39 0 57 -43zM136 539l-51 -38l-100 83q-29 24 -29 52q0 27 23 47.5t49 20.5q39 0 57 -43z" />
    <glyph glyph-name="Odblgrave" unicode="&#x20c;" horiz-adv-x="968" 
d="M892 339q0 -151 -106.5 -251t-302.5 -100q-194 0 -301 99.5t-107 251.5q0 73 26 137t75 114t128.5 79t179.5 29q194 0 301 -102t107 -257zM729 354q0 21 -0.5 36t-5.5 48t-13.5 57.5t-26.5 55t-43.5 50t-65.5 33t-91 13.5q-124 0 -189 -81q-56 -72 -56 -212
q0 -143 50 -217q67 -96 195 -96q134 0 198 99q48 76 48 214zM652 782l-51 -38l-100 83q-29 24 -29 52q0 27 23 47.5t49 20.5q39 0 57 -43zM439 782l-51 -38l-100 83q-29 24 -29 52q0 27 23 47.5t49 20.5q39 0 57 -43z" />
    <glyph glyph-name="odblgrave" unicode="&#x20d;" 
d="M606 218q0 -94 -72.5 -159t-210.5 -65t-210.5 64.5t-72.5 159.5q0 97 72 166t211 69q138 0 210.5 -68.5t72.5 -166.5zM467 230q0 27 -1 41.5t-4.5 39t-12.5 38.5t-24.5 29t-41 22t-60.5 7t-60.5 -7t-41 -22t-24.5 -29t-12.5 -38.5t-4.5 -39t-1 -41.5q0 -35 1 -53.5
t8.5 -48t21.5 -44.5t43 -27t70 -12t70 12t43 27t21.5 44.5t8.5 48t1 53.5zM491 539l-51 -38l-100 83q-29 24 -29 52q0 27 23 47.5t49 20.5q39 0 57 -43zM278 539l-51 -38l-100 83q-29 24 -29 52q0 27 23 47.5t49 20.5q39 0 57 -43z" />
    <glyph glyph-name="Rdblgrave" unicode="&#x210;" horiz-adv-x="960" 
d="M951 99q0 -12 -5 -27.5t-17.5 -36t-42 -34t-70.5 -13.5q-48 0 -85.5 6t-61.5 14t-41 24t-25 28t-12.5 33.5t-5 34t-0.5 35.5q0 60 -5.5 82t-30.5 42q-41 33 -102 33h-139v-264h107v-56l-179 4q-131 0 -179 -4v56h107v574h-107v56h410q147 0 237.5 -53t90.5 -135
q0 -34 -17 -62.5t-45.5 -47.5t-52.5 -30t-50 -19q34 -13 55.5 -29.5t32.5 -41t15 -41t9 -50.5q5 -38 8.5 -57t12.5 -42.5t24.5 -33.5t38.5 -10q21 0 40 15.5t22 51.5q1 11 6.5 16t10.5 6t14 1q10 0 15 -1t11 -6.5t6 -17.5zM632 498q0 29 -5 49t-21.5 41t-53.5 31.5t-95 10.5
h-149v-264h145q59 0 97.5 11t55 32.5t21.5 40.5t5 48zM612 782l-51 -38l-100 83q-29 24 -29 52q0 27 23 47.5t49 20.5q39 0 57 -43zM399 782l-51 -38l-100 83q-29 24 -29 52q0 27 23 47.5t49 20.5q39 0 57 -43z" />
    <glyph glyph-name="rdblgrave" unicode="&#x211;" horiz-adv-x="535" 
d="M495 361q0 -29 -19 -48.5t-49 -19.5t-49 19.5t-19 48.5q0 11 3.5 22t7.5 16l3 5q-63 -4 -97 -61.5t-34 -132.5v-154h84v-56l-143 4q-21 0 -52 -1t-53 -2l-23 -1v56h67v291q0 28 -10.5 33.5t-56.5 5.5v56l174 8v-110h1q48 110 147 110q48 0 83 -24.5t35 -64.5zM435 539
l-51 -38l-100 83q-29 24 -29 52q0 27 23 47.5t49 20.5q39 0 57 -43zM222 539l-51 -38l-100 83q-29 24 -29 52q0 27 23 47.5t49 20.5q39 0 57 -43z" />
    <glyph glyph-name="Udblgrave" unicode="&#x214;" horiz-adv-x="985" 
d="M927 630h-33q-62 0 -71 -6q-3 -3 -3 -19v-375q0 -46 -17.5 -87.5t-53 -77t-97 -56.5t-142.5 -21q-169 0 -257.5 70.5t-88.5 172.5v399h-107v56q44 -4 183 -4q136 0 182 4v-56h-107v-402q0 -26 2.5 -46.5t14 -48t31.5 -45.5t59 -31t92 -13q46 0 85.5 9.5t74.5 30t55 59
t20 91.5v371q0 15 -3.5 18.5t-20.5 4.5q-30 2 -50 2h-33v56l143 -4l142 4v-56zM689 782l-51 -38l-100 83q-29 24 -29 52q0 27 23 47.5t49 20.5q39 0 57 -43zM476 782l-51 -38l-100 83q-29 24 -29 52q0 27 23 47.5t49 20.5q39 0 57 -43z" />
    <glyph glyph-name="udblgrave" unicode="&#x215;" horiz-adv-x="718" 
d="M679 0l-187 -6v71q-57 -71 -164 -71q-31 0 -54.5 2t-51.5 9.5t-46.5 20.5t-31.5 37.5t-13 57.5v226q0 28 -10.5 33.5t-56.5 5.5v56l194 8v-340q0 -22 1.5 -32t9.5 -20.5t26 -14t50 -3.5q61 0 100.5 31.5t39.5 90.5v185q0 28 -10.5 33.5t-56.5 5.5v56l194 8v-355
q0 -28 10.5 -33.5t56.5 -5.5v-56zM527 539l-51 -38l-100 83q-29 24 -29 52q0 27 23 47.5t49 20.5q39 0 57 -43zM314 539l-51 -38l-100 83q-29 24 -29 52q0 27 23 47.5t49 20.5q39 0 57 -43z" />
    <glyph glyph-name="uni0218" unicode="&#x218;" horiz-adv-x="718" 
d="M642 203q0 -30 -8 -59t-26.5 -58t-46.5 -50t-72 -34.5t-99 -13.5q-141 0 -224 52q-6 -5 -24.5 -23t-22.5 -22q-8 -7 -21 -7q-11 0 -16 4.5t-6 10t-1 17.5v176q0 22 5 27t27 5q21 0 25.5 -5t5.5 -21q5 -88 82 -126q67 -32 169 -32q42 0 73 11t45.5 25t22.5 33t9 27.5
t1 16.5q0 41 -29 69.5t-70 39.5l-86 16q-105 20 -147 35t-80 53q-53 55 -53 127q0 80 62 140.5t187 60.5q109 0 181 -48l8 -5q2 0 10 8l34 32q13 13 26 13q11 0 16 -4.5t6 -10t1 -17.5v-176q0 -22 -5 -27t-27 -5q-20 0 -24.5 4.5t-8.5 24.5q-9 46 -31.5 79t-54.5 50
t-63.5 24t-67.5 7q-79 0 -113 -31t-34 -71q0 -34 28 -61.5t81 -37.5l164 -32q78 -15 135 -72.5t57 -138.5zM426 -133q0 -47 -22 -89.5t-43.5 -62t-29.5 -19.5q-6 0 -12.5 6.5t-6.5 12.5q0 8 8 14q62 43 71 123q-15 -10 -36 -10q-28 0 -45 18t-17 43t17 43t44 18
q33 0 52.5 -28t19.5 -69z" />
    <glyph glyph-name="uni0219" unicode="&#x219;" horiz-adv-x="512" 
d="M464 142q0 -35 -12 -62t-34 -42t-43 -25t-48.5 -13.5t-40 -4.5t-27.5 -1q-77 0 -129 29q-12 -8 -28 -16q-21 -13 -32 -13t-16 4.5t-6 10t-1 17.5v98q0 22 5 27t27 5q18 0 22.5 -3t9.5 -16q16 -46 49.5 -71.5t99.5 -25.5q123 0 123 68q0 18 -11 31.5t-34.5 21t-40.5 11
t-48 8.5t-49 8.5t-51 14t-52 24t-34.5 37.5t-15.5 55q0 71 65 107q50 27 140 27q63 0 104 -13l7 -2q5 0 19 7q16 8 26 8q16 0 20 -7t4 -25v-69q0 -22 -5 -27t-27 -5q-18 0 -24 4t-7 18q-2 14 -5 22t-13.5 21.5t-36 20t-65.5 6.5q-121 0 -121 -56q0 -14 9 -24t29 -16.5
t34.5 -9.5t43.5 -8q50 -8 73.5 -13t50 -16t49.5 -30q47 -39 47 -97zM323 -133q0 -47 -22 -89.5t-43.5 -62t-29.5 -19.5q-6 0 -12.5 6.5t-6.5 12.5q0 8 8 14q62 43 71 123q-15 -10 -36 -10q-28 0 -45 18t-17 43t17 43t44 18q33 0 52.5 -28t19.5 -69z" />
    <glyph glyph-name="uni021A" unicode="&#x21a;" horiz-adv-x="897" 
d="M846 434h-63q-4 39 -8 62t-15 49.5t-28 40t-47 22.5t-72 9h-89v-561h152v-56q-44 3 -105 3l-123 1l-119 -1q-69 0 -108 -3v56h152v561h-90q-42 0 -72 -9.5t-47 -23t-28 -40t-15 -49t-8 -61.5h-63l24 239h748zM515 -133q0 -47 -22 -89.5t-43.5 -62t-29.5 -19.5
q-6 0 -12.5 6.5t-6.5 12.5q0 8 8 14q62 43 71 123q-15 -10 -36 -10q-28 0 -45 18t-17 43t17 43t44 18q33 0 52.5 -28t19.5 -69z" />
    <glyph glyph-name="uni021B" unicode="&#x21b;" horiz-adv-x="505" 
d="M429 121q0 -59 -41 -93t-102 -34q-168 0 -168 127v267h-90v46q74 2 113.5 62.5t40.5 138.5h63v-191h163v-56h-163v-267q0 -20 2 -33t16 -28t41 -15q13 0 25.5 5t24.5 24t12 51v48h63v-52zM319 -133q0 -47 -22 -89.5t-43.5 -62t-29.5 -19.5q-6 0 -12.5 6.5t-6.5 12.5
q0 8 8 14q62 43 71 123q-15 -10 -36 -10q-28 0 -45 18t-17 43t17 43t44 18q33 0 52.5 -28t19.5 -69z" />
    <glyph glyph-name="uni0237" unicode="&#x237;" horiz-adv-x="399" 
d="M304 -38q0 -79 -62 -120.5t-139 -41.5q-69 0 -113.5 25t-44.5 74q0 29 19.5 49t50.5 20q29 0 49 -19.5t20 -49.5q0 -28 -12 -40l-4 -8q0 -5 34 -5q39 0 60.5 33t21.5 85v382q0 29 -11 34.5t-63 5.5v56l194 8v-488z" />
    <glyph glyph-name="ereversed" unicode="&#x258;" horiz-adv-x="592" 
d="M551 225q0 -97 -75 -164t-215 -67q-87 0 -144 31q-27 14 -45.5 34.5t-25 34t-6.5 20.5q0 22 32 22q14 0 19.5 -3t11.5 -14q36 -74 144 -74q45 0 77.5 13.5t48.5 30t25.5 43t11 41t2.5 35.5h-337q-13 0 -19 1t-11 8t-5 21q0 97 55 153q62 62 183 62q131 0 202 -66.5
t71 -161.5zM412 250q-4 157 -135 157t-138 -157h273z" />
    <glyph glyph-name="schwa" unicode="&#x259;" horiz-adv-x="592" 
d="M551 222q0 -95 -71 -161.5t-202 -66.5q-121 0 -183 62q-55 56 -55 153q0 14 5 21t11 8t19 1h337q-1 21 -2.5 35.5t-11 41t-25.5 43t-48.5 30t-77.5 13.5q-108 0 -144 -74q-6 -12 -11.5 -14.5t-19.5 -2.5q-32 0 -32 22q0 7 6.5 20.5t25 34t45.5 34.5q57 31 144 31
q140 0 215 -67t75 -164zM412 197h-273q7 -157 138 -157t135 157z" />
    <glyph glyph-name="ringhalfright" unicode="&#x2be;" horiz-adv-x="529" 
d="M458 465q0 -30 -10.5 -59.5t-34 -58.5t-69.5 -47t-108 -18q-154 0 -154 82q0 27 17 43.5t43 16.5q25 0 42 -16.5t17 -42.5q0 -21 -9 -33q4 -2 11 -1.5t18 1.5t12 1q35 0 57.5 11.5t32.5 33t13 40.5t3 44q0 133 -117 133q-67 0 -90 -51q-6 -11 -10 -13.5t-20 -2.5
q-31 0 -31 20q0 4 4.5 15t19 28.5t35.5 30.5q41 24 110 24q106 0 162 -52.5t56 -128.5z" />
    <glyph glyph-name="ringhalfleft" unicode="&#x2bf;" horiz-adv-x="529" 
d="M458 380q0 -4 -4.5 -15t-19 -28.5t-35.5 -30.5q-41 -24 -110 -24q-106 0 -162 52.5t-56 128.5q0 30 10.5 59.5t34 58.5t69.5 47t108 18q154 0 154 -82q0 -27 -17 -43.5t-43 -16.5q-25 0 -42 16.5t-17 42.5q0 21 9 33q-4 2 -11 1.5t-18 -1.5t-12 -1q-35 0 -57.5 -11.5
t-32.5 -33t-13 -40.5t-3 -44q0 -133 117 -133q67 0 90 51q5 11 9.5 13.5t20.5 2.5q31 0 31 -20z" />
    <glyph glyph-name="circumflex" unicode="&#x2c6;" 
d="M501 521l-20 -22l-158 99l-158 -99l-18 22l177 185z" />
    <glyph glyph-name="caron" unicode="&#x2c7;" 
d="M501 684l-177 -185l-177 185l20 22l158 -99l158 99z" />
    <glyph glyph-name="breve" unicode="&#x2d8;" 
d="M524 698q-2 -86 -62.5 -138.5t-137.5 -52.5q-78 0 -138 52.5t-62 138.5h46q2 -42 29.5 -70t59.5 -38t65 -10t65 10t59.5 38t29.5 70h46z" />
    <glyph glyph-name="dotaccent" unicode="&#x2d9;" horiz-adv-x="363" 
d="M264 602q0 -33 -24 -57t-58 -24t-58 24t-24 58q0 33 24 57t58 24t58 -24t24 -58z" />
    <glyph glyph-name="ring" unicode="&#x2da;" horiz-adv-x="968" 
d="M551 611q0 18 -9.5 26t-21 9.5t-36.5 1.5q-26 0 -37 -1.5t-20.5 -9.5t-9.5 -26t9.5 -26t21 -9.5t36.5 -1.5q26 0 37 1.5t20.5 9.5t9.5 26zM623 610q0 -31 -33 -57t-107 -26q-69 0 -103.5 25t-34.5 60q0 31 33 57t107 26q69 0 103.5 -25t34.5 -60z" />
    <glyph glyph-name="ogonek" unicode="&#x2db;" 
d="M445 -151q-47 -70 -121 -70q-55 0 -90 33t-35 78q0 27 20 59t48 57h85q-40 -18 -51 -59q-9 -31 9 -55.5t47 -24.5q7 0 14.5 3.5t19 12t13.5 9.5q12 10 31 -6q7 -8 10.5 -18.5t-0.5 -18.5z" />
    <glyph glyph-name="tilde" unicode="&#x2dc;" 
d="M536 635q-68 -66 -91 -82.5t-55 -16.5q-29 0 -75 21q-52 23 -80 23q-47 0 -91 -44l-32 33q68 66 91 82.5t55 16.5q29 0 75 -21q52 -23 80 -23q47 0 91 44z" />
    <glyph glyph-name="hungarumlaut" unicode="&#x2dd;" 
d="M336 636q0 -28 -29 -52l-100 -83l-51 38l51 122q18 43 57 43q26 0 49 -20.5t23 -47.5zM549 636q0 -28 -29 -52l-100 -83l-51 38l51 122q18 43 57 43q26 0 49 -20.5t23 -47.5z" />
    <glyph glyph-name="uni0300" unicode="&#x300;" horiz-adv-x="0" 
d="M-233 553l-36 -52l-167 76q-42 18 -42 57q0 23 18.5 46t47.5 23q25 0 42 -17z" />
    <glyph glyph-name="uni0301" unicode="&#x301;" horiz-adv-x="0" 
d="M-151 634q0 -39 -42 -57l-167 -76l-36 52l137 133q17 17 42 17q29 0 47.5 -23t18.5 -46z" />
    <glyph glyph-name="uni0302" unicode="&#x302;" horiz-adv-x="0" 
d="M-137 521l-20 -22l-158 99l-158 -99l-18 22l177 185z" />
    <glyph glyph-name="uni0303" unicode="&#x303;" horiz-adv-x="0" 
d="M-102 635q-68 -66 -91 -82.5t-55 -16.5q-29 0 -75 21q-52 23 -80 23q-47 0 -91 -44l-32 33q68 66 91 82.5t55 16.5q29 0 75 -21q52 -23 80 -23q47 0 91 44z" />
    <glyph glyph-name="uni0304" unicode="&#x304;" horiz-adv-x="0" 
d="M-84 571h-460v62h460v-62z" />
    <glyph glyph-name="uni0306" unicode="&#x306;" horiz-adv-x="0" 
d="M-114 698q-2 -86 -62.5 -138.5t-137.5 -52.5q-78 0 -138 52.5t-62 138.5h46q2 -42 29.5 -70t59.5 -38t65 -10t65 10t59.5 38t29.5 70h46z" />
    <glyph glyph-name="uni0307" unicode="&#x307;" horiz-adv-x="0" 
d="M-232 602q0 -33 -24 -57t-58 -24t-58 24t-24 58q0 33 24 57t58 24t58 -24t24 -58z" />
    <glyph glyph-name="uni0308" unicode="&#x308;" horiz-adv-x="0" 
d="M-376 602q0 -29 -22 -51t-52 -22q-31 0 -52.5 21.5t-21.5 52.5q0 30 21.5 51.5t52.5 21.5q30 0 52 -21.5t22 -52.5zM-105 602q0 -29 -22 -51t-52 -22q-31 0 -52.5 21.5t-21.5 52.5q0 30 21.5 51.5t52.5 21.5q30 0 52 -21.5t22 -52.5z" />
    <glyph glyph-name="uni0309" unicode="&#x309;" horiz-adv-x="0" 
d="M-190 633q0 -32 -41 -46l-11 -3q-37 -13 -50.5 -21.5t-13.5 -22.5v-15q0 -7 -5 -12.5t-13 -5.5q-7 0 -12 5.5t-5 12.5v16q0 7 2 19q10 33 51 59q7 4 7 14q0 18 -3 21q-11 8 -40 8q-13 0 -33 -2q8 -13 8 -27q0 -20 -13 -32.5t-32 -12.5t-32 12.5t-13 32.5q0 64 115 64
q61 0 93 -13q41 -15 41 -51z" />
    <glyph glyph-name="uni030A" unicode="&#x30a;" horiz-adv-x="0" 
d="M-248 611q0 18 -9.5 26t-21 9.5t-36.5 1.5q-26 0 -37 -1.5t-20.5 -9.5t-9.5 -26t9.5 -26t21 -9.5t36.5 -1.5q26 0 37 1.5t20.5 9.5t9.5 26zM-176 610q0 -31 -33 -57t-107 -26q-69 0 -103.5 25t-34.5 60q0 31 33 57t107 26q69 0 103.5 -25t34.5 -60z" />
    <glyph glyph-name="uni030B" unicode="&#x30b;" horiz-adv-x="0" 
d="M-302 636q0 -28 -29 -52l-100 -83l-51 38l51 122q18 43 57 43q26 0 49 -20.5t23 -47.5zM-89 636q0 -28 -29 -52l-100 -83l-51 38l51 122q18 43 57 43q26 0 49 -20.5t23 -47.5z" />
    <glyph glyph-name="uni030C" unicode="&#x30c;" horiz-adv-x="0" 
d="M-137 684l-177 -185l-177 185l20 22l158 -99l158 99z" />
    <glyph glyph-name="uni030F" unicode="&#x30f;" horiz-adv-x="0" 
d="M-147 539l-51 -38l-100 83q-29 24 -29 52q0 27 23 47.5t49 20.5q39 0 57 -43zM-360 539l-51 -38l-100 83q-29 24 -29 52q0 27 23 47.5t49 20.5q39 0 57 -43z" />
    <glyph glyph-name="uni0311" unicode="&#x311;" horiz-adv-x="0" 
d="M-114 507h-46q-2 42 -29.5 70t-59.5 38t-65 10t-65 -10t-59.5 -38t-29.5 -70h-46q2 86 62.5 138.5t137.5 52.5q78 0 138 -52.5t62 -138.5z" />
    <glyph glyph-name="uni0323" unicode="&#x323;" horiz-adv-x="0" 
d="M-232 -119q0 -33 -24 -57t-58 -24t-58 24t-24 58q0 33 24 57t58 24t58 -24t24 -58z" />
    <glyph glyph-name="uni0326" unicode="&#x326;" horiz-adv-x="0" 
d="M-248 -133q0 -47 -22 -89.5t-43.5 -62t-29.5 -19.5q-6 0 -12.5 6.5t-6.5 12.5q0 8 8 14q62 43 71 123q-15 -10 -36 -10q-28 0 -45 18t-17 43t17 43t44 18q33 0 52.5 -28t19.5 -69z" />
    <glyph glyph-name="uni032E" unicode="&#x32e;" horiz-adv-x="0" 
d="M-114 -22q-2 -86 -62.5 -138.5t-137.5 -52.5q-78 0 -138 52.5t-62 138.5h46q2 -42 29.5 -70t59.5 -38t65 -10t65 10t59.5 38t29.5 70h46z" />
    <glyph glyph-name="uni032F" unicode="&#x32f;" horiz-adv-x="0" 
d="M-114 -213h-46q-2 42 -29.5 70t-59.5 38t-65 10t-65 -10t-59.5 -38t-29.5 -70h-46q2 86 62.5 138.5t137.5 52.5q78 0 138 -52.5t62 -138.5z" />
    <glyph glyph-name="uni0330" unicode="&#x330;" horiz-adv-x="0" 
d="M-102 -85q-68 -66 -91 -82.5t-55 -16.5q-29 0 -75 21q-52 23 -80 23q-47 0 -91 -44l-32 33q68 66 91 82.5t55 16.5q29 0 75 -21q52 -23 80 -23q47 0 91 44z" />
    <glyph glyph-name="uni0331" unicode="&#x331;" horiz-adv-x="0" 
d="M-84 -149h-460v62h460v-62z" />
    <glyph glyph-name="uni0332" unicode="&#x332;" horiz-adv-x="0" 
d="M-84 -149h-460v62h460v-62z" />
    <glyph glyph-name="Alpha" unicode="&#x391;" horiz-adv-x="968" 
d="M916 0l-165 4q-130 0 -182 -4v56h90l-63 140h-305l-54 -121l-5 -11q0 -8 86 -8v-56l-142 4q-20 0 -50 -1t-52 -2t-23 -1v56h30q27 0 46 2q18 2 22.5 4.5t9.5 11.5l269 602q6 14 14 20t15.5 7t26.5 1q18 0 25.5 -1t15.5 -7t14 -20l278 -620h99v-56zM571 252l-128 284
l-127 -284h255z" />
    <glyph glyph-name="Beta" unicode="&#x392;" horiz-adv-x="914" 
d="M838 187q0 -79 -73.5 -133t-202.5 -54h-503v56h107v574h-107v56h469q125 0 199.5 -49.5t74.5 -124.5q0 -53 -46 -95t-135 -58q109 -13 163 -61.5t54 -110.5zM652 512q0 50 -34 84t-103 34h-211v-250h183q74 0 119.5 36t45.5 96zM682 189q0 14 -2 29t-11.5 37t-25 38.5
t-45.5 28.5t-70 12h-224v-278h214q81 0 122.5 39t41.5 94z" />
    <glyph glyph-name="Gamma" unicode="&#x393;" horiz-adv-x="773" 
d="M715 440h-63q-13 101 -54.5 142t-141.5 41h-141v-567h134v-56q-15 1 -52.5 2t-43.5 1l-111 1q-133 0 -185 -4v56h107v567h-107v56h624z" />
    <glyph glyph-name="Delta" unicode="&#x394;" horiz-adv-x="1073" 
d="M1003 14q0 -14 -28 -14h-878q-28 0 -28 14q0 6 7 16l397 646q8 13 17.5 19.5t16.5 7.5t20 1h18q13 0 20 -1t16.5 -7.5t17.5 -19.5l397 -646q7 -10 7 -16zM757 130l-268 436l-268 -436h536z" />
    <glyph glyph-name="Epsilon" unicode="&#x395;" horiz-adv-x="844" 
d="M803 269l-51 -269h-695v56h107v567h-107v56h677l34 -239h-63q-15 106 -62.5 144.5t-154.5 38.5h-173v-243h66q65 0 89.5 23t24.5 87h63v-276h-63q0 64 -24.5 87t-89.5 23h-66v-268h183q64 0 106.5 12.5t69 41t41 65t25.5 94.5h63z" />
    <glyph glyph-name="Zeta" unicode="&#x396;" horiz-adv-x="789" 
d="M720 280l-20 -280h-590q-14 0 -19.5 1t-10.5 8t-5 22q0 18 10 30l441 569h-142q-216 0 -228 -183h-63l14 239h571q13 0 19 -1t11 -8t5 -21q0 -15 -11 -29l-439 -566h157q120 0 174 49.5t63 169.5h63z" />
    <glyph glyph-name="Eta" unicode="&#x397;" horiz-adv-x="1002" 
d="M944 0q-44 4 -183 4q-136 0 -182 -4v56h107v273h-371v-273h107v-56q-44 4 -183 4q-136 0 -182 -4v56h107v574h-107v56q44 -4 183 -4q136 0 182 4v-56h-107v-245h371v245h-107v56q44 -4 183 -4q136 0 182 4v-56h-107v-574h107v-56z" />
    <glyph glyph-name="Theta" unicode="&#x398;" horiz-adv-x="1002" 
d="M926 339q0 -149 -110 -250t-316 -101q-104 0 -186.5 28t-134 77t-78 111.5t-26.5 134.5q0 71 26 134.5t77 114.5t134 80.5t189 29.5q105 0 188 -29.5t133.5 -80t77 -114t26.5 -135.5zM776 339q0 144 -58 217q-76 96 -218 96q-138 0 -211 -88q-64 -79 -64 -225
q0 -138 56 -208q75 -95 219 -95q71 0 124 22t81 53.5t45 76t21.5 79t4.5 72.5zM704 245h-63v34h-281v-34h-63v198h63v-34h281v34h63v-198z" />
    <glyph glyph-name="Iota" unicode="&#x399;" horiz-adv-x="479" 
d="M428 0q-50 4 -189 4q-138 0 -188 -4v56h113v574h-113v56q50 -4 189 -4q138 0 188 4v-56h-113v-574h113v-56z" />
    <glyph glyph-name="Kappa" unicode="&#x39a;" horiz-adv-x="1003" 
d="M944 0l-147 4q-131 0 -183 -4v56q42 0 64 6l-240 275l-123 -91v-190h107v-56q-44 4 -183 4q-136 0 -182 -4v56h107v574h-107v56q44 -4 183 -4q136 0 182 4v-56h-107v-306l402 300q-24 6 -58 6v56l161 -4l107 4v-56h-27q-32 0 -49.5 -2t-23.5 -4t-13 -8l-270 -201
l301 -345q7 -9 16.5 -11.5t43.5 -2.5h39v-56z" />
    <glyph glyph-name="Lambda" unicode="&#x39b;" horiz-adv-x="897" 
d="M846 0l-158 4q-132 0 -184 -4v56h91l-190 460l-182 -440l-4 -11q0 -9 87 -9v-56l-142 4q-58 0 -114 -4v56h24q17 0 43 2q16 1 19.5 3.5t8.5 13.5l249 600q8 19 17 24t30 5h14q13 0 19.5 -1t14.5 -7.5t14 -20.5l255 -619h88v-56z" />
    <glyph glyph-name="Mu" unicode="&#x39c;" horiz-adv-x="1215" 
d="M1151 0l-172 4l-173 -4v56h107v571h-1l-297 -600q-13 -27 -42 -27q-28 0 -42 28l-290 585h-1v-532q0 -15 3.5 -18.5t20.5 -4.5q30 -2 50 -2h33v-56l-142 4l-142 -4v56h33q62 0 71 6q3 3 3 19v549h-107v56h230q13 0 19.5 -1t15 -7.5t15.5 -19.5l264 -533l264 534
q6 13 15 19t15.5 7t19.5 1h230v-56h-107v-574h107v-56z" />
    <glyph glyph-name="Nu" unicode="&#x39d;" horiz-adv-x="1002" 
d="M944 630h-33q-62 0 -71 -6q-3 -3 -3 -19v-570q0 -23 -6.5 -29t-28.5 -6q-16 0 -21 1.5t-13 10.5l-534 569v-500q0 -15 3.5 -18.5t20.5 -4.5q30 -2 50 -2h33v-56l-142 4l-142 -4v56h33q62 0 71 6q3 3 3 19v549h-107v56h235q16 0 21 -2t14 -11l440 -469v401q0 15 -3.5 18.5
t-20.5 4.5q-30 2 -50 2h-33v56l142 -4l142 4v-56z" />
    <glyph glyph-name="Xi" unicode="&#x39e;" horiz-adv-x="860" 
d="M795 472h-63q-3 66 -18 75q-8 6 -81 6h-407q-76 0 -84 -7q-12 -13 -15 -74h-63l10 201h711zM802 211l-10 -211h-725l-10 211h63q3 -66 15 -81q6 -10 89 -10h411q79 0 87 8q13 10 17 83h63zM677 249h-63v41h-369v-41h-63v202h63v-41h369v41h63v-202z" />
    <glyph glyph-name="Omicron" unicode="&#x39f;" horiz-adv-x="968" 
d="M892 339q0 -151 -106.5 -251t-302.5 -100q-194 0 -301 99.5t-107 251.5q0 73 26 137t75 114t128.5 79t179.5 29q194 0 301 -102t107 -257zM729 354q0 21 -0.5 36t-5.5 48t-13.5 57.5t-26.5 55t-43.5 50t-65.5 33t-91 13.5q-124 0 -189 -81q-56 -72 -56 -212
q0 -143 50 -217q67 -96 195 -96q134 0 198 99q48 76 48 214z" />
    <glyph glyph-name="Pi" unicode="&#x3a0;" horiz-adv-x="1002" 
d="M944 0q-44 4 -183 4q-136 0 -182 -4v56h107v567h-371v-567h107v-56q-44 4 -183 4q-136 0 -182 -4v56h107v567h-107v56h887v-56h-107v-567h107v-56z" />
    <glyph glyph-name="Rho" unicode="&#x3a1;" horiz-adv-x="879" 
d="M803 487q0 -85 -79.5 -140t-213.5 -55h-195v-236h107v-56q-44 4 -183 4q-136 0 -182 -4v56h107v574h-107v56h453q135 0 214 -57t79 -142zM640 487q0 19 -0.5 28.5t-3.5 27.5t-9 28t-18 22.5t-29 19.5t-43.5 12t-60.5 5h-168v-287h166q35 0 61.5 5t44 12t29.5 20t18 23
t9 27.5t3.5 27.5t0.5 29z" />
    <glyph glyph-name="Sigma" unicode="&#x3a3;" horiz-adv-x="931" 
d="M855 258l-34 -258h-710q-36 0 -36 22q0 10 16 23l302 252l-307 334q-11 12 -11 27q0 13 6 19.5t12 7.5t18 1h710l34 -239h-63q-8 55 -34 97t-66 61q-55 25 -179 25h-221l237 -258q19 -19 19 -29t-16 -23l-294 -245h278q47 0 78 2.5t68.5 13t61 29t42.5 53.5t26 85h63z
" />
    <glyph glyph-name="Tau" unicode="&#x3a4;" horiz-adv-x="897" 
d="M846 434h-63q-4 39 -8 62t-15 49.5t-28 40t-47 22.5t-72 9h-89v-561h152v-56q-44 3 -105 3l-123 1l-119 -1q-69 0 -108 -3v56h152v561h-90q-42 0 -72 -9.5t-47 -23t-28 -40t-15 -49t-8 -61.5h-63l24 239h748z" />
    <glyph glyph-name="Upsilon" unicode="&#x3a5;" horiz-adv-x="1002" 
d="M926 553q0 -12 -5.5 -18t-11.5 -7t-19 -1q-19 0 -25.5 4t-9.5 20q-5 25 -95 25q-44 0 -78.5 -18t-53.5 -44t-31.5 -60t-16.5 -60.5t-4 -50.5v-287h134v-56q-48 4 -210 4q-161 0 -209 -4v56h134v287q0 24 -4 51t-16.5 60.5t-31.5 59.5t-53.5 44t-78.5 18q-90 0 -95 -25
q-3 -17 -9.5 -20.5t-25.5 -3.5q-13 0 -19 1t-11.5 7t-5.5 18q0 57 51 101t127 44q92 0 156.5 -66t90.5 -165h1q22 93 86.5 162t160.5 69q76 0 127 -44t51 -101z" />
    <glyph glyph-name="Phi" unicode="&#x3a6;" horiz-adv-x="931" 
d="M855 343q0 -68 -80.5 -119.5t-235.5 -62.5q-8 -1 -9.5 -3.5t-1.5 -15.5v-86h134v-56q-48 4 -203 4t-203 -4v56h134v105q-167 13 -241 66t-74 116q0 29 15.5 56t49.5 54t98.5 46t151.5 26v105h-134v56q48 -4 203 -4t203 4v-56h-134v-86q0 -13 2 -15.5t11 -3.5
q148 -10 231 -60.5t83 -121.5zM390 207v272q-86 -7 -122.5 -41.5t-36.5 -94.5q0 -61 37.5 -95t121.5 -41zM699 343q0 62 -39 96.5t-132 40.5v-274q93 6 132 40.5t39 96.5z" />
    <glyph glyph-name="Chi" unicode="&#x3a7;" horiz-adv-x="968" 
d="M921 0l-166 4q-137 0 -187 -4v56h72l-187 227l-187 -220q29 -7 82 -7v-56l-162 4q-21 0 -53.5 -1t-58 -2t-27.5 -1v56h39q21 0 53 2q21 1 27 3.5t14 11.5l227 266l-241 291h-102v56l165 -4q138 0 188 4v-56h-72l152 -185l151 178q-30 7 -82 7v56l162 -4q22 0 54.5 1
t56.5 2t27 1v-56h-38q-22 0 -54 -2q-21 -2 -26.5 -4t-14.5 -11l-190 -223l276 -334h102v-56z" />
    <glyph glyph-name="Psi" unicode="&#x3a8;" horiz-adv-x="1002" 
d="M926 520q0 -20 -25 -23q-48 -6 -48 -98q0 -19 -5 -45t-29.5 -68.5t-64.5 -68.5q-76 -48 -191 -56v-105h134v-56q-48 4 -203 4t-203 -4v56h134v105q-128 10 -200 70q-39 33 -57.5 81t-19.5 85q-1 21 -2 32.5t-5.5 29t-16.5 27t-30 11.5q-19 4 -19 23q0 23 36 23h72
q29 0 50 -13t30.5 -29t15.5 -36.5t6.5 -29.5t0.5 -15q0 -21 1 -33.5t5 -38t13 -43t23 -38t39 -34.5t58 -21v418h-134v56q48 -4 203 -4t203 4v-56h-134v-419q150 27 152 188q2 144 103 144h73q35 0 35 -23z" />
    <glyph glyph-name="Omega" unicode="&#x3a9;" horiz-adv-x="931" 
d="M869 203l-41 -203h-217q-13 0 -19 1t-11.5 8t-5.5 21q0 75 59 214q20 48 30 75t19 66t9 72q0 56 -19.5 95.5t-54 60.5t-72 30t-81.5 9q-45 0 -83 -9.5t-71.5 -30.5t-53 -60.5t-19.5 -94.5q0 -33 9 -71.5t19.5 -66t30.5 -75.5q58 -144 58 -214q0 -14 -5 -21t-11 -8t-19 -1
h-218l-41 203h63q13 -67 24 -79t64 -12h73q-22 42 -96 122q-55 60 -84.5 111.5t-29.5 110.5q0 44 20.5 84.5t64 77t122.5 58.5t183 22q105 0 184 -22t122 -58.5t63.5 -77t20.5 -84.5q0 -43 -20 -87.5t-40.5 -71.5t-58.5 -69q-64 -68 -91 -116h73q53 0 64 12t24 79h63z" />
    <glyph glyph-name="baht" unicode="&#xe3f;" horiz-adv-x="914" 
d="M838 187q0 -79 -73.5 -133t-202.5 -54h-85v-56q0 -11 -8 -19.5t-20 -8.5q-11 0 -19.5 8.5t-8.5 19.5v56h-362v56h107v574h-107v56h362v56q0 12 8.5 20t19.5 8q12 0 20 -8t8 -20v-56h51q125 0 199.5 -49.5t74.5 -124.5q0 -53 -46 -95t-135 -58q109 -13 163 -61.5
t54 -110.5zM652 512q0 50 -34 84t-103 34h-38v-250h10q74 0 119.5 36t45.5 96zM421 380v250h-117v-250h117zM682 189q0 14 -2 29t-11.5 37t-25 38.5t-45.5 28.5t-70 12h-51v-278h41q81 0 122.5 39t41.5 94zM421 56v278h-117v-278h117z" />
    <glyph glyph-name="Ddotbelow" unicode="&#x1e0c;" horiz-adv-x="985" 
d="M909 338q0 -155 -107.5 -246.5t-275.5 -91.5h-469v56h107v574h-107v56h468q171 0 277.5 -96t106.5 -252zM753 338q0 22 -0.5 34.5t-2.5 38.5t-6.5 43.5t-14 42.5t-22.5 41.5t-34 35.5t-47 30t-62.5 18.5t-80.5 7.5h-175v-574h176q56 0 99.5 11.5t71.5 28t47.5 44t29 49
t15 55t6 50t0.5 44.5zM478 -119q0 -33 -24 -57t-58 -24t-58 24t-24 58q0 33 24 57t58 24t58 -24t24 -58z" />
    <glyph glyph-name="ddotbelow" unicode="&#x1e0d;" horiz-adv-x="718" 
d="M662 0l-194 -6v48q-69 -48 -157 -48q-124 0 -194 65t-70 162q0 99 73.5 164t203.5 65q82 0 151 -42v183q0 28 -10.5 33.5t-56.5 5.5v56l187 8v-599q0 -28 10.5 -33.5t56.5 -5.5v-56zM468 116v228q-6 8 -17 18.5t-44 26t-71 15.5q-36 0 -63 -8.5t-42.5 -26t-25.5 -34
t-13.5 -42t-4.5 -39t-1 -35.5q0 -26 1 -42t8 -45.5t20.5 -46.5t41 -31t66.5 -14q49 0 86.5 23t58.5 53zM442 -119q0 -33 -24 -57t-58 -24t-58 24t-24 58q0 33 24 57t58 24t58 -24t24 -58z" />
    <glyph glyph-name="Dlinebelow" unicode="&#x1e0e;" horiz-adv-x="985" 
d="M909 338q0 -155 -107.5 -246.5t-275.5 -91.5h-469v56h107v574h-107v56h468q171 0 277.5 -96t106.5 -252zM753 338q0 22 -0.5 34.5t-2.5 38.5t-6.5 43.5t-14 42.5t-22.5 41.5t-34 35.5t-47 30t-62.5 18.5t-80.5 7.5h-175v-574h176q56 0 99.5 11.5t71.5 28t47.5 44t29 49
t15 55t6 50t0.5 44.5zM626 -149h-460v62h460v-62z" />
    <glyph glyph-name="dlinebelow" unicode="&#x1e0f;" horiz-adv-x="718" 
d="M662 0l-194 -6v48q-69 -48 -157 -48q-124 0 -194 65t-70 162q0 99 73.5 164t203.5 65q82 0 151 -42v183q0 28 -10.5 33.5t-56.5 5.5v56l187 8v-599q0 -28 10.5 -33.5t56.5 -5.5v-56zM468 116v228q-6 8 -17 18.5t-44 26t-71 15.5q-36 0 -63 -8.5t-42.5 -26t-25.5 -34
t-13.5 -42t-4.5 -39t-1 -35.5q0 -26 1 -42t8 -45.5t20.5 -46.5t41 -31t66.5 -14q49 0 86.5 23t58.5 53zM590 -149h-460v62h460v-62z" />
    <glyph glyph-name="Hdotbelow" unicode="&#x1e24;" horiz-adv-x="1002" 
d="M944 0q-44 4 -183 4q-136 0 -182 -4v56h107v273h-371v-273h107v-56q-44 4 -183 4q-136 0 -182 -4v56h107v574h-107v56q44 -4 183 -4q136 0 182 4v-56h-107v-245h371v245h-107v56q44 -4 183 -4q136 0 182 4v-56h-107v-574h107v-56zM583 -119q0 -33 -24 -57t-58 -24t-58 24
t-24 58q0 33 24 57t58 24t58 -24t24 -58z" />
    <glyph glyph-name="hdotbelow" unicode="&#x1e25;" horiz-adv-x="718" 
d="M679 0q-82 4 -131 4l-130 -4v56h67v253q0 53 -14.5 74t-48.5 21t-69.5 -13.5t-65 -50.5t-29.5 -91v-193h67v-56q-82 4 -131 4l-130 -4v56h67v535q0 28 -10.5 33.5t-56.5 5.5v56l187 8v-338q64 94 190 94q79 0 125 -32t46 -117v-245h67v-56zM454 -119q0 -33 -24 -57
t-58 -24t-58 24t-24 58q0 33 24 57t58 24t58 -24t24 -58z" />
    <glyph glyph-name="Hdieresis" unicode="&#x1e26;" horiz-adv-x="1002" 
d="M944 0q-44 4 -183 4q-136 0 -182 -4v56h107v273h-371v-273h107v-56q-44 4 -183 4q-136 0 -182 -4v56h107v574h-107v56q44 -4 183 -4q136 0 182 4v-56h-107v-245h371v245h-107v56q44 -4 183 -4q136 0 182 4v-56h-107v-574h107v-56zM414 807q0 -29 -22 -51t-52 -22
q-31 0 -52.5 21.5t-21.5 52.5q0 30 21.5 51.5t52.5 21.5q30 0 52 -21.5t22 -52.5zM735 807q0 -29 -22 -51t-52 -22q-31 0 -52.5 21.5t-21.5 52.5q0 30 21.5 51.5t52.5 21.5q30 0 52 -21.5t22 -52.5z" />
    <glyph glyph-name="hdieresis" unicode="&#x1e27;" horiz-adv-x="718" 
d="M679 0q-82 4 -131 4l-130 -4v56h67v253q0 53 -14.5 74t-48.5 21t-69.5 -13.5t-65 -50.5t-29.5 -91v-193h67v-56q-82 4 -131 4l-130 -4v56h67v535q0 28 -10.5 33.5t-56.5 5.5v56l187 8v-338q64 94 190 94q79 0 125 -32t46 -117v-245h67v-56zM273 815q0 -29 -22 -51
t-52 -22q-31 0 -52.5 21.5t-21.5 52.5q0 30 21.5 51.5t52.5 21.5q30 0 52 -21.5t22 -52.5zM594 815q0 -29 -22 -51t-52 -22q-31 0 -52.5 21.5t-21.5 52.5q0 30 21.5 51.5t52.5 21.5q30 0 52 -21.5t22 -52.5z" />
    <glyph glyph-name="Hbrevebelow" unicode="&#x1e2a;" horiz-adv-x="1002" 
d="M944 0q-44 4 -183 4q-136 0 -182 -4v56h107v273h-371v-273h107v-56q-44 4 -183 4q-136 0 -182 -4v56h107v574h-107v56q44 -4 183 -4q136 0 182 4v-56h-107v-245h371v245h-107v56q44 -4 183 -4q136 0 182 4v-56h-107v-574h107v-56zM701 -22q-2 -86 -62.5 -138.5
t-137.5 -52.5q-78 0 -138 52.5t-62 138.5h46q2 -42 29.5 -70t59.5 -38t65 -10t65 10t59.5 38t29.5 70h46z" />
    <glyph glyph-name="hbrevebelow" unicode="&#x1e2b;" horiz-adv-x="718" 
d="M679 0q-82 4 -131 4l-130 -4v56h67v253q0 53 -14.5 74t-48.5 21t-69.5 -13.5t-65 -50.5t-29.5 -91v-193h67v-56q-82 4 -131 4l-130 -4v56h67v535q0 28 -10.5 33.5t-56.5 5.5v56l187 8v-338q64 94 190 94q79 0 125 -32t46 -117v-245h67v-56zM572 -22q-2 -86 -62.5 -138.5
t-137.5 -52.5q-78 0 -138 52.5t-62 138.5h46q2 -42 29.5 -70t59.5 -38t65 -10t65 10t59.5 38t29.5 70h46z" />
    <glyph glyph-name="Idieresisacute" unicode="&#x1e2e;" horiz-adv-x="479" 
d="M428 0q-50 4 -189 4q-138 0 -188 -4v56h113v574h-113v56q50 -4 189 -4q138 0 188 4v-56h-113v-574h113v-56zM153 807q0 -29 -22 -51t-52 -22q-31 0 -52.5 21.5t-21.5 52.5q0 30 21.5 51.5t52.5 21.5q30 0 52 -21.5t22 -52.5zM474 807q0 -29 -22 -51t-52 -22
q-31 0 -52.5 21.5t-21.5 52.5q0 30 21.5 51.5t52.5 21.5q30 0 52 -21.5t22 -52.5zM410 1039q-7 -37 -52 -49l-177 -46l-27 58l158 107q18 11 34 11q32 0 52 -25t12 -56z" />
    <glyph glyph-name="idieresisacute" unicode="&#x1e2f;" horiz-adv-x="363" 
d="M315 0q-55 4 -122 4l-126 -4v56h67v291q0 28 -10 33.5t-54 5.5v56l184 8v-394h61v-56zM120 602q0 -29 -22 -51t-52 -22q-31 0 -52.5 21.5t-21.5 52.5q0 30 21.5 51.5t52.5 21.5q30 0 52 -21.5t22 -52.5zM391 602q0 -29 -22 -51t-52 -22q-31 0 -52.5 21.5t-21.5 52.5
q0 30 21.5 51.5t52.5 21.5q30 0 52 -21.5t22 -52.5zM352 829q-7 -37 -52 -49l-177 -46l-27 58l158 107q18 11 34 11q32 0 52 -25t12 -56z" />
    <glyph glyph-name="Ldotbelow" unicode="&#x1e36;" horiz-adv-x="773" 
d="M715 269l-34 -269h-624v56h107v574h-107v56q55 -4 185 -4l107 1q65 0 100 3v-56h-134v-574h118q50 0 89 14t61 34.5t37.5 51.5t21.5 56t10 57h63zM469 -119q0 -33 -24 -57t-58 -24t-58 24t-24 58q0 33 24 57t58 24t58 -24t24 -58z" />
    <glyph glyph-name="ldotbelow" unicode="&#x1e37;" horiz-adv-x="363" 
d="M321 0q-1 0 -9.5 0.5t-22.5 1t-30 1t-33.5 1t-31.5 0.5q-20 0 -51 -1t-53 -2l-23 -1v56h67v535q0 28 -10.5 33.5t-56.5 5.5v56l187 8v-638h67v-56zM264 -119q0 -33 -24 -57t-58 -24t-58 24t-24 58q0 33 24 57t58 24t58 -24t24 -58z" />
    <glyph glyph-name="Ldotbelowmacron" unicode="&#x1e38;" horiz-adv-x="773" 
d="M715 269l-34 -269h-624v56h107v574h-107v56q55 -4 185 -4l107 1q65 0 100 3v-56h-134v-574h118q50 0 89 14t61 34.5t37.5 51.5t21.5 56t10 57h63zM469 -119q0 -33 -24 -57t-58 -24t-58 24t-24 58q0 33 24 57t58 24t58 -24t24 -58zM483 754h-460v62h460v-62z" />
    <glyph glyph-name="ldotbelowmacron" unicode="&#x1e39;" horiz-adv-x="363" 
d="M321 0q-1 0 -9.5 0.5t-22.5 1t-30 1t-33.5 1t-31.5 0.5q-20 0 -51 -1t-53 -2l-23 -1v56h67v535q0 28 -10.5 33.5t-56.5 5.5v56l187 8v-638h67v-56zM264 -119q0 -33 -24 -57t-58 -24t-58 24t-24 58q0 33 24 57t58 24t58 -24t24 -58zM422 762h-460v62h460v-62z" />
    <glyph glyph-name="Mdotbelow" unicode="&#x1e42;" horiz-adv-x="1215" 
d="M1151 0l-172 4l-173 -4v56h107v571h-1l-297 -600q-13 -27 -42 -27q-28 0 -42 28l-290 585h-1v-532q0 -15 3.5 -18.5t20.5 -4.5q30 -2 50 -2h33v-56l-142 4l-142 -4v56h33q62 0 71 6q3 3 3 19v549h-107v56h230q13 0 19.5 -1t15 -7.5t15.5 -19.5l264 -533l264 534
q6 13 15 19t15.5 7t19.5 1h230v-56h-107v-574h107v-56zM690 -119q0 -33 -24 -57t-58 -24t-58 24t-24 58q0 33 24 57t58 24t58 -24t24 -58z" />
    <glyph glyph-name="mdotbelow" unicode="&#x1e43;" horiz-adv-x="1073" 
d="M1035 0q-82 4 -131 4l-130 -4v56h67v252q0 54 -14.5 75t-49.5 21q-24 0 -50 -8t-53 -25t-44 -48.5t-17 -73.5v-193h67v-56q-82 4 -131 4l-130 -4v56h67v252q0 54 -14.5 75t-49.5 21q-24 0 -50 -8t-53 -25t-44 -48.5t-17 -73.5v-193h67v-56q-82 4 -131 4l-130 -4v56h67
v291q0 28 -10.5 33.5t-56.5 5.5v56l181 8v-104q13 23 33 43t64.5 40.5t99.5 20.5q138 0 165 -94q63 94 190 94q36 0 64 -6t53.5 -21.5t39.5 -46t14 -75.5v-245h67v-56zM619 -119q0 -33 -24 -57t-58 -24t-58 24t-24 58q0 33 24 57t58 24t58 -24t24 -58z" />
    <glyph glyph-name="Ndotaccent" unicode="&#x1e44;" horiz-adv-x="1002" 
d="M944 630h-33q-62 0 -71 -6q-3 -3 -3 -19v-570q0 -23 -6.5 -29t-28.5 -6q-16 0 -21 1.5t-13 10.5l-534 569v-500q0 -15 3.5 -18.5t20.5 -4.5q30 -2 50 -2h33v-56l-142 4l-142 -4v56h33q62 0 71 6q3 3 3 19v549h-107v56h235q16 0 21 -2t14 -11l440 -469v401q0 15 -3.5 18.5
t-20.5 4.5q-30 2 -50 2h-33v56l142 -4l142 4v-56zM583 815q0 -33 -24 -57t-58 -24t-58 24t-24 58q0 33 24 57t58 24t58 -24t24 -58z" />
    <glyph glyph-name="ndotaccent" unicode="&#x1e45;" horiz-adv-x="718" 
d="M679 0q-82 4 -131 4l-130 -4v56h67v253q0 53 -14.5 74t-48.5 21t-69.5 -13.5t-65 -50.5t-29.5 -91v-193h67v-56q-82 4 -131 4l-130 -4v56h67v291q0 28 -10.5 33.5t-56.5 5.5v56l181 8v-104q13 22 32 42t64 41t100 21q79 0 125 -32t46 -117v-245h67v-56zM442 602
q0 -33 -24 -57t-58 -24t-58 24t-24 58q0 33 24 57t58 24t58 -24t24 -58z" />
    <glyph glyph-name="Ndotbelow" unicode="&#x1e46;" horiz-adv-x="1002" 
d="M944 630h-33q-62 0 -71 -6q-3 -3 -3 -19v-570q0 -23 -6.5 -29t-28.5 -6q-16 0 -21 1.5t-13 10.5l-534 569v-500q0 -15 3.5 -18.5t20.5 -4.5q30 -2 50 -2h33v-56l-142 4l-142 -4v56h33q62 0 71 6q3 3 3 19v549h-107v56h235q16 0 21 -2t14 -11l440 -469v401q0 15 -3.5 18.5
t-20.5 4.5q-30 2 -50 2h-33v56l142 -4l142 4v-56zM583 -119q0 -33 -24 -57t-58 -24t-58 24t-24 58q0 33 24 57t58 24t58 -24t24 -58z" />
    <glyph glyph-name="ndotbelow" unicode="&#x1e47;" horiz-adv-x="718" 
d="M679 0q-82 4 -131 4l-130 -4v56h67v253q0 53 -14.5 74t-48.5 21t-69.5 -13.5t-65 -50.5t-29.5 -91v-193h67v-56q-82 4 -131 4l-130 -4v56h67v291q0 28 -10.5 33.5t-56.5 5.5v56l181 8v-104q13 22 32 42t64 41t100 21q79 0 125 -32t46 -117v-245h67v-56zM442 -119
q0 -33 -24 -57t-58 -24t-58 24t-24 58q0 33 24 57t58 24t58 -24t24 -58z" />
    <glyph glyph-name="Rdotaccent" unicode="&#x1e58;" horiz-adv-x="960" 
d="M951 99q0 -12 -5 -27.5t-17.5 -36t-42 -34t-70.5 -13.5q-48 0 -85.5 6t-61.5 14t-41 24t-25 28t-12.5 33.5t-5 34t-0.5 35.5q0 60 -5.5 82t-30.5 42q-41 33 -102 33h-139v-264h107v-56l-179 4q-131 0 -179 -4v56h107v574h-107v56h410q147 0 237.5 -53t90.5 -135
q0 -34 -17 -62.5t-45.5 -47.5t-52.5 -30t-50 -19q34 -13 55.5 -29.5t32.5 -41t15 -41t9 -50.5q5 -38 8.5 -57t12.5 -42.5t24.5 -33.5t38.5 -10q21 0 40 15.5t22 51.5q1 11 6.5 16t10.5 6t14 1q10 0 15 -1t11 -6.5t6 -17.5zM632 498q0 29 -5 49t-21.5 41t-53.5 31.5t-95 10.5
h-149v-264h145q59 0 97.5 11t55 32.5t21.5 40.5t5 48zM562 827q0 -33 -24 -57t-58 -24t-58 24t-24 58q0 33 24 57t58 24t58 -24t24 -58z" />
    <glyph glyph-name="rdotaccent" unicode="&#x1e59;" horiz-adv-x="535" 
d="M495 361q0 -29 -19 -48.5t-49 -19.5t-49 19.5t-19 48.5q0 11 3.5 22t7.5 16l3 5q-63 -4 -97 -61.5t-34 -132.5v-154h84v-56l-143 4q-21 0 -52 -1t-53 -2l-23 -1v56h67v291q0 28 -10.5 33.5t-56.5 5.5v56l174 8v-110h1q48 110 147 110q48 0 83 -24.5t35 -64.5zM350 602
q0 -33 -24 -57t-58 -24t-58 24t-24 58q0 33 24 57t58 24t58 -24t24 -58z" />
    <glyph glyph-name="Rdotbelow" unicode="&#x1e5a;" horiz-adv-x="960" 
d="M951 99q0 -12 -5 -27.5t-17.5 -36t-42 -34t-70.5 -13.5q-48 0 -85.5 6t-61.5 14t-41 24t-25 28t-12.5 33.5t-5 34t-0.5 35.5q0 60 -5.5 82t-30.5 42q-41 33 -102 33h-139v-264h107v-56l-179 4q-131 0 -179 -4v56h107v574h-107v56h410q147 0 237.5 -53t90.5 -135
q0 -34 -17 -62.5t-45.5 -47.5t-52.5 -30t-50 -19q34 -13 55.5 -29.5t32.5 -41t15 -41t9 -50.5q5 -38 8.5 -57t12.5 -42.5t24.5 -33.5t38.5 -10q21 0 40 15.5t22 51.5q1 11 6.5 16t10.5 6t14 1q10 0 15 -1t11 -6.5t6 -17.5zM632 498q0 29 -5 49t-21.5 41t-53.5 31.5t-95 10.5
h-149v-264h145q59 0 97.5 11t55 32.5t21.5 40.5t5 48zM562 -119q0 -33 -24 -57t-58 -24t-58 24t-24 58q0 33 24 57t58 24t58 -24t24 -58z" />
    <glyph glyph-name="rdotbelow" unicode="&#x1e5b;" horiz-adv-x="535" 
d="M495 361q0 -29 -19 -48.5t-49 -19.5t-49 19.5t-19 48.5q0 11 3.5 22t7.5 16l3 5q-63 -4 -97 -61.5t-34 -132.5v-154h84v-56l-143 4q-21 0 -52 -1t-53 -2l-23 -1v56h67v291q0 28 -10.5 33.5t-56.5 5.5v56l174 8v-110h1q48 110 147 110q48 0 83 -24.5t35 -64.5zM273 -119
q0 -33 -24 -57t-58 -24t-58 24t-24 58q0 33 24 57t58 24t58 -24t24 -58z" />
    <glyph glyph-name="Rdotbelowmacron" unicode="&#x1e5c;" horiz-adv-x="960" 
d="M951 99q0 -12 -5 -27.5t-17.5 -36t-42 -34t-70.5 -13.5q-48 0 -85.5 6t-61.5 14t-41 24t-25 28t-12.5 33.5t-5 34t-0.5 35.5q0 60 -5.5 82t-30.5 42q-41 33 -102 33h-139v-264h107v-56l-179 4q-131 0 -179 -4v56h107v574h-107v56h410q147 0 237.5 -53t90.5 -135
q0 -34 -17 -62.5t-45.5 -47.5t-52.5 -30t-50 -19q34 -13 55.5 -29.5t32.5 -41t15 -41t9 -50.5q5 -38 8.5 -57t12.5 -42.5t24.5 -33.5t38.5 -10q21 0 40 15.5t22 51.5q1 11 6.5 16t10.5 6t14 1q10 0 15 -1t11 -6.5t6 -17.5zM632 498q0 29 -5 49t-21.5 41t-53.5 31.5t-95 10.5
h-149v-264h145q59 0 97.5 11t55 32.5t21.5 40.5t5 48zM562 -119q0 -33 -24 -57t-58 -24t-58 24t-24 58q0 33 24 57t58 24t58 -24t24 -58zM710 754h-460v62h460v-62z" />
    <glyph glyph-name="rdotbelowmacron" unicode="&#x1e5d;" horiz-adv-x="535" 
d="M495 361q0 -29 -19 -48.5t-49 -19.5t-49 19.5t-19 48.5q0 11 3.5 22t7.5 16l3 5q-63 -4 -97 -61.5t-34 -132.5v-154h84v-56l-143 4q-21 0 -52 -1t-53 -2l-23 -1v56h67v291q0 28 -10.5 33.5t-56.5 5.5v56l174 8v-110h1q48 110 147 110q48 0 83 -24.5t35 -64.5zM273 -119
q0 -33 -24 -57t-58 -24t-58 24t-24 58q0 33 24 57t58 24t58 -24t24 -58zM498 571h-460v62h460v-62z" />
    <glyph glyph-name="Sdotbelow" unicode="&#x1e62;" horiz-adv-x="718" 
d="M642 203q0 -30 -8 -59t-26.5 -58t-46.5 -50t-72 -34.5t-99 -13.5q-141 0 -224 52q-6 -5 -24.5 -23t-22.5 -22q-8 -7 -21 -7q-11 0 -16 4.5t-6 10t-1 17.5v176q0 22 5 27t27 5q21 0 25.5 -5t5.5 -21q5 -88 82 -126q67 -32 169 -32q42 0 73 11t45.5 25t22.5 33t9 27.5
t1 16.5q0 41 -29 69.5t-70 39.5l-86 16q-105 20 -147 35t-80 53q-53 55 -53 127q0 80 62 140.5t187 60.5q109 0 181 -48l8 -5q2 0 10 8l34 32q13 13 26 13q11 0 16 -4.5t6 -10t1 -17.5v-176q0 -22 -5 -27t-27 -5q-20 0 -24.5 4.5t-8.5 24.5q-9 46 -31.5 79t-54.5 50
t-63.5 24t-67.5 7q-79 0 -113 -31t-34 -71q0 -34 28 -61.5t81 -37.5l164 -32q78 -15 135 -72.5t57 -138.5zM442 -119q0 -33 -24 -57t-58 -24t-58 24t-24 58q0 33 24 57t58 24t58 -24t24 -58z" />
    <glyph glyph-name="sdotbelow" unicode="&#x1e63;" horiz-adv-x="512" 
d="M464 142q0 -35 -12 -62t-34 -42t-43 -25t-48.5 -13.5t-40 -4.5t-27.5 -1q-77 0 -129 29q-12 -8 -28 -16q-21 -13 -32 -13t-16 4.5t-6 10t-1 17.5v98q0 22 5 27t27 5q18 0 22.5 -3t9.5 -16q16 -46 49.5 -71.5t99.5 -25.5q123 0 123 68q0 18 -11 31.5t-34.5 21t-40.5 11
t-48 8.5t-49 8.5t-51 14t-52 24t-34.5 37.5t-15.5 55q0 71 65 107q50 27 140 27q63 0 104 -13l7 -2q5 0 19 7q16 8 26 8q16 0 20 -7t4 -25v-69q0 -22 -5 -27t-27 -5q-18 0 -24 4t-7 18q-2 14 -5 22t-13.5 21.5t-36 20t-65.5 6.5q-121 0 -121 -56q0 -14 9 -24t29 -16.5
t34.5 -9.5t43.5 -8q50 -8 73.5 -13t50 -16t49.5 -30q47 -39 47 -97zM339 -119q0 -33 -24 -57t-58 -24t-58 24t-24 58q0 33 24 57t58 24t58 -24t24 -58z" />
    <glyph glyph-name="Tdotbelow" unicode="&#x1e6c;" horiz-adv-x="897" 
d="M846 434h-63q-4 39 -8 62t-15 49.5t-28 40t-47 22.5t-72 9h-89v-561h152v-56q-44 3 -105 3l-123 1l-119 -1q-69 0 -108 -3v56h152v561h-90q-42 0 -72 -9.5t-47 -23t-28 -40t-15 -49t-8 -61.5h-63l24 239h748zM531 -119q0 -33 -24 -57t-58 -24t-58 24t-24 58q0 33 24 57
t58 24t58 -24t24 -58z" />
    <glyph glyph-name="tdotbelow" unicode="&#x1e6d;" horiz-adv-x="505" 
d="M429 121q0 -59 -41 -93t-102 -34q-168 0 -168 127v267h-90v46q74 2 113.5 62.5t40.5 138.5h63v-191h163v-56h-163v-267q0 -20 2 -33t16 -28t41 -15q13 0 25.5 5t24.5 24t12 51v48h63v-52zM335 -119q0 -33 -24 -57t-58 -24t-58 24t-24 58q0 33 24 57t58 24t58 -24t24 -58z
" />
    <glyph glyph-name="Tlinebelow" unicode="&#x1e6e;" horiz-adv-x="897" 
d="M846 434h-63q-4 39 -8 62t-15 49.5t-28 40t-47 22.5t-72 9h-89v-561h152v-56q-44 3 -105 3l-123 1l-119 -1q-69 0 -108 -3v56h152v561h-90q-42 0 -72 -9.5t-47 -23t-28 -40t-15 -49t-8 -61.5h-63l24 239h748zM679 -149h-460v62h460v-62z" />
    <glyph glyph-name="tlinebelow" unicode="&#x1e6f;" horiz-adv-x="505" 
d="M429 121q0 -59 -41 -93t-102 -34q-168 0 -168 127v267h-90v46q74 2 113.5 62.5t40.5 138.5h63v-191h163v-56h-163v-267q0 -20 2 -33t16 -28t41 -15q13 0 25.5 5t24.5 24t12 51v48h63v-52zM483 -149h-460v62h460v-62z" />
    <glyph glyph-name="Wgrave" unicode="&#x1e80;" horiz-adv-x="1323" 
d="M1289 630h-23q-41 0 -54 -2.5t-18 -15.5l-246 -595q-8 -18 -16.5 -23.5t-32.5 -5.5q-15 0 -22 1t-15 7.5t-14 20.5l-187 454l-188 -454q-9 -20 -17.5 -24.5t-32.5 -4.5t-32.5 5.5t-16.5 23.5l-254 613h-87v56l154 -4l180 4v-56h-91l191 -463l160 386l-32 77h-87v56
l154 -4q128 0 181 4v-56h-92l192 -463l183 443q0 1 1.5 3.5t2 5t0.5 3.5q0 8 -80 8h-18v56l147 -4q61 0 110 4v-56zM747 802l-27 -58l-177 46q-45 12 -52 49q-8 31 12 56t52 25q16 0 34 -11z" />
    <glyph glyph-name="wgrave" unicode="&#x1e81;" horiz-adv-x="931" 
d="M897 388q-28 0 -43 -2q-13 -1 -16.5 -3.5t-8.5 -13.5l-151 -348q-6 -13 -14 -19t-15 -7t-21 -1q-15 0 -22 1t-15 7.5t-14 19.5l-112 259l-112 -260q-6 -13 -14.5 -19t-15.5 -7t-21 -1t-21 1t-15 7t-14 19l-159 367h-60v56q2 0 22 -1t46.5 -2t43.5 -1l130 4v-56h-51
l110 -252l92 212q4 8 4 12q0 5 -11 28h-60v56q40 -4 101 -4q19 0 47.5 1t49.5 2l21 1v-56h-50l120 -277l117 271q-24 6 -54 6v56q47 -4 104 -4q28 0 82 4v-56zM547 553l-36 -52l-167 76q-42 18 -42 57q0 23 18.5 46t47.5 23q25 0 42 -17z" />
    <glyph glyph-name="Wacute" unicode="&#x1e82;" horiz-adv-x="1323" 
d="M1289 630h-23q-41 0 -54 -2.5t-18 -15.5l-246 -595q-8 -18 -16.5 -23.5t-32.5 -5.5q-15 0 -22 1t-15 7.5t-14 20.5l-187 454l-188 -454q-9 -20 -17.5 -24.5t-32.5 -4.5t-32.5 5.5t-16.5 23.5l-254 613h-87v56l154 -4l180 4v-56h-91l191 -463l160 386l-32 77h-87v56
l154 -4q128 0 181 4v-56h-92l192 -463l183 443q0 1 1.5 3.5t2 5t0.5 3.5q0 8 -80 8h-18v56l147 -4q61 0 110 4v-56zM832 839q-7 -37 -52 -49l-177 -46l-27 58l158 107q18 11 34 11q32 0 52 -25t12 -56z" />
    <glyph glyph-name="wacute" unicode="&#x1e83;" horiz-adv-x="931" 
d="M897 388q-28 0 -43 -2q-13 -1 -16.5 -3.5t-8.5 -13.5l-151 -348q-6 -13 -14 -19t-15 -7t-21 -1q-15 0 -22 1t-15 7.5t-14 19.5l-112 259l-112 -260q-6 -13 -14.5 -19t-15.5 -7t-21 -1t-21 1t-15 7t-14 19l-159 367h-60v56q2 0 22 -1t46.5 -2t43.5 -1l130 4v-56h-51
l110 -252l92 212q4 8 4 12q0 5 -11 28h-60v56q40 -4 101 -4q19 0 47.5 1t49.5 2l21 1v-56h-50l120 -277l117 271q-24 6 -54 6v56q47 -4 104 -4q28 0 82 4v-56zM629 634q0 -39 -42 -57l-167 -76l-36 52l137 133q17 17 42 17q29 0 47.5 -23t18.5 -46z" />
    <glyph glyph-name="Wdieresis" unicode="&#x1e84;" horiz-adv-x="1323" 
d="M1289 630h-23q-41 0 -54 -2.5t-18 -15.5l-246 -595q-8 -18 -16.5 -23.5t-32.5 -5.5q-15 0 -22 1t-15 7.5t-14 20.5l-187 454l-188 -454q-9 -20 -17.5 -24.5t-32.5 -4.5t-32.5 5.5t-16.5 23.5l-254 613h-87v56l154 -4l180 4v-56h-91l191 -463l160 386l-32 77h-87v56
l154 -4q128 0 181 4v-56h-92l192 -463l183 443q0 1 1.5 3.5t2 5t0.5 3.5q0 8 -80 8h-18v56l147 -4q61 0 110 4v-56zM575 807q0 -29 -22 -51t-52 -22q-31 0 -52.5 21.5t-21.5 52.5q0 30 21.5 51.5t52.5 21.5q30 0 52 -21.5t22 -52.5zM896 807q0 -29 -22 -51t-52 -22
q-31 0 -52.5 21.5t-21.5 52.5q0 30 21.5 51.5t52.5 21.5q30 0 52 -21.5t22 -52.5z" />
    </font>
</defs>
</svg>
