<?xml version="1.0" standalone="no"?>
<!DOCTYPE svg PUBLIC "-//W3C//DTD SVG 1.1//EN" "http://www.w3.org/Graphics/SVG/1.1/DTD/svg11.dtd" >
<svg>
<metadata>
Created by FontForge 20120731 at Mon Jul 14 22:19:43 2014
 By tom,,,
Copyright 2003, 2009 B. Jackowski and J. M. Nowacki (on behalf of TeX users groups). This work is released under the GUST Font License --  see http://tug.org/fonts/licenses/GUST-FONT-LICENSE.txt for details.
</metadata>
<defs>
<font id="lmroman6-bold" horiz-adv-x="694" >
  <font-face 
    font-family="LM Roman 6"
    font-weight="700"
    font-stretch="normal"
    units-per-em="1000"
    panose-1="0 0 8 0 0 0 0 0 0 0"
    ascent="806"
    descent="-194"
    x-height="444"
    cap-height="686"
    bbox="-580 -313 1872 1146"
    underline-thickness="47"
    underline-position="-42"
    unicode-range="U+0020-FB04"
  />
<missing-glyph horiz-adv-x="280" 
 />
    <glyph glyph-name="I_J" unicode="IJ" horiz-adv-x="1167" 
d="M441 0q-55 4 -188 4q-134 0 -189 -4v60h112v566h-112v60q55 -4 189 -4q133 0 188 4v-60h-112v-566h112v-60zM1068 626h-80v-475q0 -78 -69 -121.5t-189 -43.5q-28 0 -53.5 2.5t-71 13t-73.5 39.5t-28 73q0 40 25 62t59 22q32 0 57.5 -22t25.5 -62q0 -17 -6.5 -32.5
t-11.5 -21.5t-9 -9q36 -14 83 -14q115 0 115 114v475h-138v60q47 -4 204 -4l160 4v-60z" />
    <glyph glyph-name="i_j" unicode="ij" horiz-adv-x="785" 
d="M280 600q0 -34 -24 -58.5t-59 -24.5t-59 24.5t-24 59.5q0 34 24 58.5t59 24.5t59 -24.5t24 -59.5zM679 600q0 -34 -24 -58.5t-59 -24.5t-59 24.5t-24 59.5q0 34 24 58.5t59 24.5t59 -24.5t24 -59.5zM335 0l-125 4l-130 -4v60h69v284q0 28 -10 33.5t-56 5.5v60l189 8v-391
h63v-60zM679 -36q0 -57 -35 -96t-80.5 -54t-95.5 -15q-75 0 -119 27t-44 75q0 31 20.5 51.5t51.5 20.5t51.5 -20.5t20.5 -51.5q0 -21 -11 -39l-3 -7q0 -5 35 -5q37 0 61.5 31.5t24.5 83.5v378q0 13 -1 19t-6 11.5t-15 7.5q-15 2 -54 2v60l199 8v-487z" />
    <glyph glyph-name="f_k" unicode="fk" horiz-adv-x="1164" 
d="M1098 0l-112 4q-65 0 -133 -4v60q14 0 20 4l-142 144l-81 -56v-92h69v-60q-48 4 -131 4l-130 -4v60h69v324h-269v-324h69v-60q-48 4 -131 4l-130 -4v60h69v324h-90v60h90v92q0 47 30 81t80 51t103 25t111 8q62 0 102 -10q7 -2 13 -2l76 5v-455l207 141q-7 4 -19 4v60
q48 -4 136 -4q54 0 94 4v-60h-27q-52 0 -68 -11l-151 -103l195 -199q7 -7 14.5 -9t31.5 -2h35v-60zM527 444v104q-27 20 -27 57q0 20 9 37l1 3q0 5 -61 5q-82 0 -134 -24q-64 -30 -64 -93v-89h276z" />
    <glyph glyph-name="f_f" unicode="ff" horiz-adv-x="825" 
d="M899 605q0 -33 -21.5 -52t-49.5 -19q-26 0 -48 19t-22 52q0 21 10 37l2 6q0 2 -11 2q-53 0 -86 -30q-29 -28 -29 -84v-92h145v-60h-138v-324h87v-60l-146 4q-79 0 -133 -4v60h69v324h-270v-324h69v-60q-48 4 -131 4l-130 -4v60h69v324h-90v60h90v92q0 47 30.5 81.5
t81 51.5t102.5 24.5t108 7.5q101 0 148 -36q61 36 160 36q65 0 99.5 -29t34.5 -67zM528 444v92q-27 19 -27 56q0 22 19 50q-32 8 -73 8q-35 0 -66.5 -5t-62.5 -17.5t-49 -36.5t-18 -58v-89h277z" />
    <glyph glyph-name="f_i" unicode="fi" horiz-adv-x="787" 
d="M719 0q-48 4 -131 4l-130 -4v60h69v287q0 25 -6.5 31t-30.5 6h-232v-324h69v-60q-48 4 -131 4l-130 -4v60h69v324h-90v60h90v92q0 48 32.5 83t85.5 51.5t103.5 23.5t102.5 7q98 0 143.5 -38t45.5 -86q0 -34 -21 -54.5t-53 -20.5q-33 0 -53.5 21t-20.5 53q0 37 29 59
q-34 15 -80 15q-81 0 -136 -26q-62 -30 -62 -91v-89h189q16 0 18 1q4 2 18 2l174 6v-393h69v-60z" />
    <glyph glyph-name="f_l" unicode="fl" horiz-adv-x="787" 
d="M719 0q-48 4 -131 4l-130 -4v60h69v324h-269v-324h69v-60q-48 4 -131 4l-130 -4v60h69v324h-90v60h90v92q0 47 30 81t80 51t103 25t111 8q62 0 102 -10q7 -2 13 -2l76 5v-634h69v-60zM527 444v104q-27 20 -27 57q0 20 9 37l1 3q0 5 -61 5q-82 0 -134 -24q-64 -30 -64 -93
v-89h276z" />
    <glyph glyph-name="f_f_i" unicode="&#xfb00;i" horiz-adv-x="1181" 
d="M1113 0q-48 4 -131 4l-130 -4v60h69v287q0 25 -6.5 31t-30.5 6h-233v-324h69v-60q-48 4 -131 4l-130 -4v60h69v324h-270v-324h69v-60q-48 4 -131 4l-130 -4v60h69v324h-90v60h90v92q0 48 32 82.5t84 51.5t102 24t102 7q104 0 152 -48q99 48 246 48q97 0 143 -38t46 -86
q0 -34 -21 -54.5t-53 -20.5q-33 0 -53.5 21t-20.5 53q0 37 29 59q-33 15 -81 15q-79 0 -130 -23q-68 -30 -68 -94v-89h190q16 0 18 1q4 2 18 2l174 6v-393h69v-60zM528 444v69q-34 20 -34 63q0 38 29 60q-33 14 -79 14q-77 0 -127 -23q-66 -31 -66 -94v-89h277z" />
    <glyph glyph-name="f_f_l" unicode="ffl" horiz-adv-x="1181" 
d="M1113 0q-48 4 -131 4l-130 -4v60h69v324h-270v-324h69v-60q-48 4 -131 4l-130 -4v60h69v324h-270v-324h69v-60q-48 4 -131 4l-130 -4v60h69v324h-90v60h90v92q0 47 31 81.5t82 51.5t102.5 24.5t106.5 7.5q112 0 157 -44q96 44 239 44q62 0 102 -10q7 -2 13 -2l76 5v-634
h69v-60zM528 444v92q-27 19 -27 56q0 31 18 49q-30 9 -73 9q-77 0 -129 -23q-66 -31 -66 -94v-89h277zM921 444v104q-27 20 -27 57q0 20 9 37l1 3q0 5 -61 5q-30 0 -57.5 -3.5t-63 -14t-57 -36t-21.5 -63.5v-89h277z" />
    <glyph glyph-name=".notdef" horiz-adv-x="280" 
 />
    <glyph glyph-name=".null" horiz-adv-x="0" 
 />
    <glyph glyph-name="nonmarkingreturn" horiz-adv-x="333" 
 />
    <glyph glyph-name="space" unicode=" " horiz-adv-x="469" 
 />
    <glyph glyph-name="exclam" unicode="!" horiz-adv-x="430" 
d="M298 630l-3 -26l-44 -339q-2 -20 -8 -24.5t-28 -4.5q-23 0 -29 5t-8 25l-44 338q-3 23 -3 26q0 35 25.5 56.5t58.5 21.5q31 0 57 -21t26 -57zM298 83q0 -33 -24 -58t-60 -25q-33 0 -58 24t-25 60q0 33 24 58t60 25q33 0 58 -24t25 -60z" />
    <glyph glyph-name="quotedbl" unicode="&#x22;" horiz-adv-x="596" 
d="M262 635l-29 -215h-72l-29 215q-4 27 16 46t49 19t49 -19t16 -46zM464 635l-29 -215h-72l-29 215q-4 27 16 46t49 19t49 -19t16 -46z" />
    <glyph glyph-name="numbersign" unicode="#" horiz-adv-x="1144" 
d="M1058 121q0 -39 -51 -39h-307l-89 -244q-14 -32 -39 -32q-17 0 -28.5 11.5t-11.5 28.5q0 4 16 52l68 184h-214l-89 -244q-14 -32 -39 -32q-17 0 -28.5 11.5t-11.5 28.5q0 4 16 52l68 184h-183q-51 0 -51 39q0 40 51 40h213l65 179h-278q-51 0 -51 40q0 39 51 39h308
l88 243q14 32 39 32q17 0 28.5 -11.5t11.5 -28.5q0 -7 -6 -22l-77 -213h214l88 243q14 32 39 32q17 0 28.5 -11.5t11.5 -28.5q0 -7 -6 -22l-77 -213h182q51 0 51 -39q0 -40 -51 -40h-212l-65 -179h277q51 0 51 -40zM711 340h-214l-65 -179h214z" />
    <glyph glyph-name="dollar" unicode="$" 
d="M608 212q0 -83 -58.5 -146.5t-173.5 -71.5v-50h-60v50q-117 6 -174.5 61t-57.5 133q0 41 23 58.5t49 17.5q29 0 50.5 -20t21.5 -52q0 -27 -15 -45.5t-39 -24.5q39 -61 142 -68v235q-37 7 -57.5 12t-51.5 19.5t-56 36.5q-67 58 -67 139q0 29 10 58.5t33.5 62t72 55.5
t116.5 28v50h60v-50q25 -1 50 -4.5t60 -15.5t60 -30.5t43.5 -52.5t18.5 -78q0 -39 -22.5 -57t-49.5 -18q-29 0 -50.5 20t-21.5 52q0 27 15 45t36 24q-38 47 -139 55v-207q105 -18 162 -69q70 -65 70 -152zM316 444v196q-67 -5 -103 -32.5t-36 -65.5q0 -75 139 -98zM515 166
q0 39 -36 70t-103 41v-223q61 5 100 35t39 77z" />
    <glyph glyph-name="percent" unicode="%" horiz-adv-x="1144" 
d="M946 710q0 -16 -15 -32l-663 -718q-14 -16 -32 -16q-16 0 -28 12t-12 28t15 32l545 590q-54 -14 -109 -14q-100 0 -201 41q13 -36 13 -84q0 -95 -49.5 -148.5t-127.5 -53.5q-85 0 -141.5 54t-56.5 148q0 92 56 146.5t142 54.5q49 0 100 -29q134 -79 264 -79q136 0 225 89
q21 19 36 19q16 0 27.5 -11.5t11.5 -28.5zM1058 145q0 -92 -49 -146.5t-128 -54.5q-85 0 -141.5 54t-56.5 148q0 92 56 146.5t142 54.5q77 0 127 -53.5t50 -148.5zM388 549q0 75 -31 112.5t-72 37.5q-19 0 -34 -6.5t-23.5 -20t-13.5 -26t-7 -33.5t-2.5 -32.5t-0.5 -32.5
q0 -20 0.5 -31.5t2.5 -32.5t7 -33.5t13.5 -26t23.5 -20t34 -6.5q40 0 71.5 36t31.5 115zM987 146q0 75 -31 112.5t-72 37.5q-19 0 -34 -6.5t-23.5 -20t-13.5 -26t-7 -33.5t-2.5 -32.5t-0.5 -32.5q0 -20 0.5 -31.5t2.5 -32.5t7 -33.5t13.5 -26t23.5 -20t34 -6.5q40 0 71.5 36
t31.5 115z" />
    <glyph glyph-name="ampersand" unicode="&#x26;" horiz-adv-x="1069" 
d="M991 384h-35q-53 0 -61 -5q-3 -2 -53 -63q-39 -47 -58.5 -70t-63.5 -66t-88 -77q84 -57 164 -57q111 0 116 67h71q-2 -62 -58 -94.5t-135 -32.5q-132 0 -256 56q-110 -56 -225 -56q-106 0 -175 42t-69 115q0 64 66 109l113 77l9 8q0 3 -4 10q-37 92 -37 170q0 89 65 140
t145 51q65 0 105 -44t40 -98q0 -44 -44.5 -90.5t-136.5 -111.5q26 -49 75 -104.5t85 -86.5l36 -31q63 48 126 116l100 121q0 5 -62 5v60q64 -4 136 -4q64 0 109 4v-60zM496 565q0 34 -19.5 63t-53.5 29q-32 0 -62 -24t-30 -75q0 -75 33 -147q132 95 132 154zM471 78
q-105 71 -194 212q-68 -41 -68 -118q0 -48 30.5 -87t85.5 -39q72 0 146 32z" />
    <glyph glyph-name="quotesingle" unicode="'" horiz-adv-x="394" 
d="M262 635l-29 -215h-72l-29 215q-4 27 16 46t49 19t49 -19t16 -46z" />
    <glyph glyph-name="parenleft" unicode="(" horiz-adv-x="544" 
d="M458 -228q0 -21 -26 -21q-23 0 -90.5 55.5t-113.5 126.5q-95 144 -95 318q0 146 67.5 271t181.5 202q38 26 50 26q26 0 26 -21q0 -10 -20 -26q-101 -83 -145.5 -205t-44.5 -248q0 -139 49 -258t138 -191q17 -14 20 -18t3 -11z" />
    <glyph glyph-name="parenright" unicode=")" horiz-adv-x="544" 
d="M409 250q0 -146 -67.5 -271t-181.5 -202q-38 -26 -50 -26q-26 0 -26 21q0 10 20 26q100 82 145 203.5t45 249.5q0 145 -51 263t-135 185q-17 15 -20.5 19t-3.5 11q0 21 26 21q23 0 90.5 -55.5t113.5 -126.5q95 -144 95 -318z" />
    <glyph glyph-name="asterisk" unicode="*" 
d="M595 441q0 -21 -15 -38.5t-37 -17.5q-12 0 -29 11l-139 89l21 -116q0 -3 1 -7t1.5 -7t0.5 -4q0 -18 -15.5 -31.5t-37.5 -13.5t-37.5 13.5t-15.5 31.5q0 7 2 13l22 120l-126 -80q-30 -19 -42 -19q-22 0 -37 17.5t-15 38.5q0 37 39 47l136 40l-136 40q-39 10 -39 47
q0 21 15 38.5t37 17.5q12 0 29 -11l139 -89l-21 116q0 3 -1 7t-1.5 7t-0.5 4q0 18 15.5 31.5t37.5 13.5t37.5 -13.5t15.5 -31.5q0 -7 -2 -13l-22 -120l126 80q30 19 42 19q22 0 37 -17.5t15 -38.5q0 -37 -39 -47l-136 -40l136 -40q39 -10 39 -47z" />
    <glyph glyph-name="plus" unicode="+" horiz-adv-x="1069" 
d="M983 250q0 -39 -51 -39h-359v-359q0 -51 -40 -51q-39 0 -39 51v359h-359q-51 0 -51 40q0 39 51 39h359v359q0 51 40 51q39 0 39 -51v-359h359q51 0 51 -40z" />
    <glyph glyph-name="comma" unicode="," horiz-adv-x="394" 
d="M295 36q0 -50 -18 -96t-41.5 -73.5t-44 -44t-29.5 -16.5t-18 9t-9 18q0 12 12 19q85 62 95 160q-18 -12 -45 -12q-37 0 -60.5 24.5t-23.5 59.5t23 59t60 24q44 0 71.5 -37.5t27.5 -93.5z" />
    <glyph glyph-name="hyphen" unicode="-" horiz-adv-x="469" 
d="M383 165h-359v115h359v-115z" />
    <glyph glyph-name="period" unicode="." horiz-adv-x="394" 
d="M280 83q0 -33 -24.5 -58t-59.5 -25q-33 0 -58 24.5t-25 59.5q0 33 24.5 58t59.5 25q33 0 58 -24.5t25 -59.5z" />
    <glyph glyph-name="slash" unicode="/" 
d="M608 710q0 -7 -8 -24l-437 -906q-15 -30 -40 -30q-16 0 -27.5 11.5t-11.5 28.5q0 7 8 24l437 906q15 30 40 30q16 0 27.5 -11.5t11.5 -28.5z" />
    <glyph glyph-name="zero" unicode="0" 
d="M631 318q0 -50 -4.5 -89.5t-21.5 -87.5t-46 -79.5t-83.5 -53.5t-129.5 -22q-74 0 -128.5 21.5t-84 53t-46.5 79.5t-21.5 87.5t-4.5 90.5q0 35 2 64t9 65.5t19 64.5t33.5 56.5t50.5 47.5t73 30.5t98 11.5q75 0 129.5 -22.5t83.5 -55t46 -81.5t21.5 -89.5t4.5 -91.5z
M487 331q0 130 -10 182q-6 29 -21.5 49.5t-37 29.5t-38.5 12t-34 3q-42 0 -79.5 -19t-50.5 -68q-11 -47 -11 -189q0 -138 10 -192q6 -32 22 -54.5t37.5 -31.5t38 -12.5t33.5 -3.5q25 0 48 5.5t49 30t34 66.5q10 54 10 192z" />
    <glyph glyph-name="one" unicode="1" 
d="M589 0q-49 4 -232 4t-234 -4v60h169v496q-75 -22 -151 -22h-25v60h25q148 0 230 64h17q23 0 29.5 -6.5t6.5 -29.5v-562h165v-60z" />
    <glyph glyph-name="two" unicode="2" 
d="M616 222l-36 -222h-504v25q0 16 2 22t12 14l247 200q126 102 126 196q0 61 -44.5 101t-118.5 40q-58 0 -98 -24q33 -21 33 -65q0 -38 -24 -59t-56 -21q-29 0 -54 20t-25 61q0 70 67 109t184 39q131 0 210 -54t79 -146q0 -86 -95 -157q-22 -16 -67 -42.5t-138 -89.5
l-12 -9t-18 -12.5t-13 -8.5h138q81 0 101 4q20 3 33 79h71z" />
    <glyph glyph-name="three" unicode="3" 
d="M627 181q0 -77 -72.5 -136t-220.5 -59q-126 0 -197.5 43.5t-71.5 116.5q0 39 24 62t60 23t59.5 -23.5t23.5 -59.5q0 -50 -40 -72q53 -35 138 -35q130 0 130 140q0 19 -1.5 33.5t-8.5 36.5t-20 36t-39.5 24.5t-63.5 10.5h-59q-12 0 -18 1t-11 7t-5 18q0 24 30 26l61 3
q45 2 79.5 42t34.5 97q0 92 -107 92q-74 0 -119 -34q7 -3 16 -9t19.5 -23.5t10.5 -39.5q0 -35 -23 -56.5t-55 -21.5q-31 0 -54.5 21t-23.5 58q0 68 63.5 111.5t170.5 43.5q121 0 186.5 -41t65.5 -103q0 -58 -38.5 -99.5t-95.5 -62.5q88 -22 130 -69.5t42 -101.5z" />
    <glyph glyph-name="four" unicode="4" 
d="M646 0q-56 4 -189 4q-150 0 -199 -4v60h131v95h-343v60l368 433q10 12 16 14.5t25 2.5h37q23 0 29.5 -6.5t6.5 -29.5v-414h118v-60h-118v-95h118v-60zM404 215v331l-281 -331h281z" />
    <glyph glyph-name="five" unicode="5" 
d="M616 201q0 -90 -78 -152.5t-223 -62.5q-105 0 -172 48t-67 121q0 35 22 56t54 21q34 0 55 -22.5t21 -53.5q0 -52 -48 -70q46 -45 132 -45q43 0 73.5 12t45 27t22.5 42t9 42.5t1 42.5q0 26 -1 41t-6.5 39.5t-17 38t-34.5 24.5t-56 11q-104 0 -157 -58q-8 -9 -12.5 -11
t-19.5 -2q-23 0 -28.5 7.5t-5.5 28.5v298q0 34 21 34q4 0 16 -4q92 -28 182 -28t180 27l18 5q21 0 21 -26q0 -21 -34.5 -50t-62.5 -46q-82 -48 -179 -48q-41 0 -79 5v-114q59 33 145 33q130 0 196.5 -63t66.5 -148z" />
    <glyph glyph-name="six" unicode="6" 
d="M627 205q0 -99 -75 -159t-201 -60q-146 0 -216 87t-70 245q0 162 100.5 251t253.5 89q90 0 132 -39.5t42 -94.5q0 -37 -22 -55.5t-50 -18.5q-29 0 -50.5 20t-21.5 52q0 46 42 67q-28 19 -71 19q-50 0 -94.5 -20.5t-70.5 -58.5q-38 -60 -38 -183q60 76 145 76
q68 0 109.5 -14t81.5 -45q74 -58 74 -158zM475 206q0 34 -1 51.5t-6.5 43t-17.5 38t-35 22t-57 9.5q-61 0 -99.5 -43t-38.5 -114q0 -24 1 -41.5t8.5 -44t20 -43.5t38.5 -30t62 -13t61 10t37.5 22.5t18.5 38.5t7 43t1 51z" />
    <glyph glyph-name="seven" unicode="7" 
d="M664 644q0 -41 -2 -46t-48 -51t-59 -57l-70 -68q-57 -57 -80 -132.5t-24 -219.5q0 -42 -20 -64q-19 -20 -52 -20q-7 0 -15.5 2t-23 8.5t-24 24t-9.5 44.5q0 102 43 197t102 158l85 85h-167q-91 0 -112 -4q-20 -4 -33 -79h-71l41 250h70q4 -22 28 -23l202 -5h239z" />
    <glyph glyph-name="eight" unicode="8" 
d="M627 187q0 -87 -69.5 -144t-214.5 -57q-34 0 -64.5 2.5t-72 13t-70.5 28.5t-50 52.5t-21 80.5q0 38 13 68t38.5 50.5t41.5 30t43 21.5q-98 53 -98 146q0 76 60 127.5t186 51.5q240 0 240 -151q0 -85 -107 -139q24 -11 41 -21.5t45 -33t43.5 -55t15.5 -71.5zM496 506
q0 102 -154 102q-146 0 -146 -72q0 -22 16.5 -35t72.5 -40l130 -61q81 39 81 106zM519 135q0 31 -22 49t-68 39l-155 74q-101 -46 -101 -133q0 -65 49.5 -94t126.5 -29q170 0 170 94z" />
    <glyph glyph-name="nine" unicode="9" 
d="M627 328q0 -163 -96 -252.5t-241 -89.5q-16 0 -30.5 1t-47 8t-55 19.5t-40.5 40t-18 65.5q0 37 22 55.5t50 18.5q29 0 50.5 -20t21.5 -52q0 -41 -37 -64q32 -17 83 -17q49 0 91 21.5t65 61.5q30 59 30 175q-56 -76 -145 -76q-125 0 -195 61t-70 156q0 99 77 158.5
t205 59.5q146 0 213 -88t67 -242zM473 427q0 27 -1 45.5t-8 46.5t-19.5 45.5t-37 30.5t-58.5 13q-32 0 -55.5 -6t-37.5 -20t-22.5 -26.5t-12 -36t-4 -38t-0.5 -41.5q0 -29 0.5 -43.5t3.5 -37.5t10.5 -35t20 -25t33.5 -18.5t49 -5.5q48 0 81 27t45.5 59.5t12.5 65.5z" />
    <glyph glyph-name="colon" unicode=":" horiz-adv-x="394" 
d="M280 360q0 -33 -24.5 -58t-59.5 -25q-33 0 -58 24.5t-25 59.5q0 33 24.5 58t59.5 25q33 0 58 -24.5t25 -59.5zM280 83q0 -33 -24.5 -58t-59.5 -25q-33 0 -58 24.5t-25 59.5q0 33 24.5 58t59.5 25q33 0 58 -24.5t25 -59.5z" />
    <glyph glyph-name="semicolon" unicode=";" horiz-adv-x="394" 
d="M280 360q0 -33 -24.5 -58t-59.5 -25q-33 0 -58 24.5t-25 59.5q0 33 24.5 58t59.5 25q33 0 58 -24.5t25 -59.5zM284 37q0 -40 -11 -78t-26.5 -64.5t-33 -47.5t-31.5 -31t-20 -10q-9 0 -18 9t-9 18q0 10 10 18q74 64 86 155q-14 -6 -34 -6q-37 0 -60.5 24.5t-23.5 59.5
t23 59t60 24q41 0 64.5 -36.5t23.5 -93.5z" />
    <glyph glyph-name="less" unicode="&#x3c;" horiz-adv-x="894" 
d="M797 -56q0 -11 -8.5 -20.5t-22.5 -9.5q-8 0 -22 7l-623 298q-25 12 -25 32t25 31l626 299q11 6 19 6q14 0 22.5 -9.5t8.5 -20.5q0 -19 -25 -32l-575 -275l575 -274q25 -12 25 -32z" />
    <glyph glyph-name="equal" unicode="=" horiz-adv-x="1069" 
d="M983 380q0 -40 -51 -40h-797q-51 0 -51 40q0 39 51 39h797q51 0 51 -39zM983 121q0 -39 -51 -39h-797q-51 0 -51 39q0 40 51 40h797q51 0 51 -40z" />
    <glyph glyph-name="greater" unicode="&#x3e;" horiz-adv-x="894" 
d="M797 251q0 -21 -25 -32l-626 -299q-10 -6 -19 -6q-14 0 -22.5 9.5t-8.5 20.5q0 20 25 32l575 275l-575 274q-25 13 -25 32q0 12 9 21t21 9q9 0 23 -7l623 -298q25 -11 25 -31z" />
    <glyph glyph-name="question" unicode="?" horiz-adv-x="656" 
d="M570 571q0 -23 -8.5 -42t-25 -32t-27.5 -19.5t-28 -14.5q-137 -67 -137 -172v-21q0 -23 -6.5 -28.5t-28.5 -5.5q-26 0 -31 7t-5 41q0 26 3 45t13.5 50.5t37.5 64.5t70 66q29 24 29 65q0 40 -20 57.5t-93 17.5q-72 0 -114 -21q29 -19 29 -58q0 -32 -20.5 -52t-51.5 -20
q-30 0 -51 19.5t-21 53.5q0 26 11.5 47.5t27.5 34.5t40.5 22.5t44.5 14t46 7t37 3t26 0.5q107 0 169 -25q43 -17 63.5 -45.5t20.5 -59.5zM392 83q0 -33 -24 -58t-60 -25q-33 0 -58 24t-25 60q0 33 24 58t60 25q33 0 58 -24t25 -60z" />
    <glyph glyph-name="at" unicode="@" horiz-adv-x="1069" 
d="M983 84q0 -11 -10 -17q-4 -4 -57 -20.5t-161.5 -35t-216.5 -18.5q-98 0 -177.5 22t-130 57t-84.5 82t-48 95t-14 98q0 67 26 128t78 113t141.5 82.5t204.5 30.5q112 0 200 -29.5t141.5 -80t80.5 -113t27 -132.5q0 -50 -13 -97t-51 -86t-96 -39q-98 0 -134 45
q-65 -45 -157 -45q-126 0 -197 64t-71 159t70.5 159t197.5 64q132 0 195 -83h39q25 0 31 -6.5t6 -28.5v-226q0 -51 31 -51q25 0 42.5 19.5t24.5 51t9 53.5t2 44q0 137 -99.5 222t-279.5 85q-184 0 -281 -87t-97 -216q0 -55 20 -106t62.5 -96.5t120 -73t180.5 -27.5
q176 0 339 52q26 9 43 9h29q34 0 34 -21zM673 240v214q-46 65 -138 65q-62 0 -101.5 -45t-39.5 -127t39 -127t102 -45q91 0 138 65z" />
    <glyph glyph-name="A" unicode="A" horiz-adv-x="1029" 
d="M968 0l-166 4q-127 0 -182 -4v60h88l-66 142h-326l-57 -125l-5 -11q0 -6 63 -6h21v-60l-147 4q-44 0 -132 -4v60h39q31 0 42 1q15 1 18.5 3.5t8.5 11.5l276 603q6 13 15 19.5t15.5 7.5t19.5 1h41q14 0 20.5 -1t15 -7.5t14.5 -20.5l284 -618h100v-60zM615 262l-136 296
l-136 -296h272z" />
    <glyph glyph-name="B" unicode="B" horiz-adv-x="974" 
d="M888 188q0 -79 -77.5 -133.5t-212.5 -54.5h-521v60h106v566h-106v60h485q132 0 210.5 -50t78.5 -124q0 -52 -47 -93.5t-141 -59.5q105 -12 165 -59t60 -112zM699 511q0 45 -35.5 80t-113.5 35h-229v-244h190q101 0 144.5 40.5t43.5 88.5zM728 190q0 61 -41 101t-117 40
h-249v-271h231q81 0 128.5 35t47.5 95z" />
    <glyph glyph-name="C" unicode="C" horiz-adv-x="994" 
d="M908 228q0 -101 -99 -171.5t-260 -70.5q-115 0 -206.5 30t-146.5 80.5t-83.5 113.5t-28.5 133q0 71 29.5 134.5t85.5 113.5t145.5 79.5t202.5 29.5q139 0 240 -68l67 57q12 11 27 11q13 0 19 -5t7 -11t1 -18v-213q0 -22 -6 -28t-28 -6h-15q-30 0 -33 17q-11 59 -41 101.5
t-69 63.5t-75 30t-71 9q-85 0 -148 -23t-96 -56q-75 -77 -75 -218q0 -151 77 -218q87 -79 245 -79q41 0 82.5 9.5t83 29.5t69 58.5t29.5 90.5q0 10 6 15t12 5.5t17 0.5q14 0 20 -1t11 -7t5 -19z" />
    <glyph glyph-name="D" unicode="D" horiz-adv-x="1049" 
d="M963 337q0 -152 -112 -244.5t-291 -92.5h-487v60h106v566h-106v60h486q180 0 292 -96.5t112 -252.5zM803 339q0 27 -0.5 44t-6 50.5t-15.5 56t-31.5 50.5t-51 45t-76 29t-105.5 12h-192v-566h194q59 0 105 11.5t75.5 27.5t50.5 43.5t31 49t15.5 54t6 49.5t0.5 44z" />
    <glyph glyph-name="E" unicode="E" horiz-adv-x="900" 
d="M852 254l-54 -254h-727v60h106v559h-106v60h707l36 -227h-71q-16 102 -69 134.5t-156 32.5h-188v-237h76q61 0 89.5 19t28.5 81h71v-260h-71q0 62 -28.5 81t-89.5 19h-76v-262h199q113 0 171 39t81 155h71z" />
    <glyph glyph-name="F" unicode="F" horiz-adv-x="863" 
d="M796 452h-71q-16 100 -66.5 133.5t-151.5 33.5h-177v-249h71q61 0 88.5 19t27.5 81h71v-260h-71q0 62 -27.5 81t-88.5 19h-71v-250h133v-60q-48 4 -206 4q-125 0 -186 -4v60h106v559h-106v60h689z" />
    <glyph glyph-name="G" unicode="G" horiz-adv-x="1077" 
d="M1001 213h-94v-179q0 -34 -21 -34q-7 0 -37.5 13t-44.5 22q-33 -31 -90.5 -40t-145.5 -9q-122 0 -215 28.5t-142.5 68.5t-79.5 93t-38.5 91.5t-8.5 75.5q0 71 29 134.5t85 113.5t146 79.5t203 29.5q136 0 239 -68l67 57q12 11 27 11q13 0 19 -5t7 -11t1 -18v-213
q0 -22 -6 -28t-28 -6h-15q-30 0 -33 17q-11 58 -40 100.5t-68 63.5t-75.5 30.5t-72.5 9.5q-148 0 -238 -74q-80 -69 -80 -223q0 -297 339 -297q58 0 94.5 7t50 21t16.5 24t3 26v89h-169v60q51 -4 236 -4l180 4v-60z" />
    <glyph glyph-name="H" unicode="H" horiz-adv-x="1065" 
d="M992 0q-59 4 -183 4l-182 -4v60h106v267h-403v-267h106v-60q-59 4 -183 4l-182 -4v60h106v566h-106v60q59 -4 183 -4l182 4v-60h-106v-239h403v239h-106v60q59 -4 183 -4l182 4v-60h-106v-566h106v-60z" />
    <glyph glyph-name="I" unicode="I" horiz-adv-x="506" 
d="M441 0q-55 4 -188 4q-134 0 -189 -4v60h112v566h-112v60q55 -4 189 -4q133 0 188 4v-60h-112v-566h112v-60z" />
    <glyph glyph-name="J" unicode="J" horiz-adv-x="711" 
d="M612 626h-80v-475q0 -78 -69 -121.5t-189 -43.5q-28 0 -53.5 2.5t-71 13t-73.5 39.5t-28 73q0 40 25 62t59 22q32 0 57.5 -22t25.5 -62q0 -17 -6.5 -32.5t-11.5 -21.5t-9 -9q36 -14 83 -14q115 0 115 114v475h-138v60q47 -4 204 -4l160 4v-60z" />
    <glyph glyph-name="K" unicode="K" horiz-adv-x="1066" 
d="M999 0l-150 4q-128 0 -183 -4v60h17q20 0 42 4l-255 273l-140 -98v-179h106v-60q-59 4 -183 4l-182 -4v60h106v566h-106v60q59 -4 183 -4l182 4v-60h-106v-300l420 296q-25 4 -51 4v60l165 -4q77 0 116 4v-60h-39q-61 0 -76 -11l-287 -202l321 -343q10 -10 50 -10h50v-60
z" />
    <glyph glyph-name="L" unicode="L" horiz-adv-x="825" 
d="M758 254l-36 -254h-651v60h106v566h-106v60q60 -4 186 -4q158 0 206 4v-60h-133v-566h131q104 0 158 48t68 146h71z" />
    <glyph glyph-name="M" unicode="M" horiz-adv-x="1290" 
d="M1208 0l-172 4l-171 -4v60h106v563h-1l-309 -595q-15 -28 -47 -28t-47 29l-302 580h-1v-527q0 -14 3.5 -17t19.5 -4q12 -1 41 -1h42v-60q-2 0 -27.5 1t-60 2t-57.5 1t-57.5 -1t-60 -2t-27.5 -1v60l85 1q15 1 18 4t3 17v544h-106v60h231q14 0 21 -1.5t15.5 -8t15.5 -19.5
l281 -539l280 540q7 13 16.5 19.5t16 7.5t19.5 1h232v-60h-106v-566h106v-60z" />
    <glyph glyph-name="N" unicode="N" horiz-adv-x="1065" 
d="M992 626l-85 -1q-15 -1 -18 -4t-3 -17v-568q0 -23 -6.5 -29.5t-29.5 -6.5h-6q-16 0 -21.5 2t-14.5 11l-553 562v-493q0 -14 3.5 -17t19.5 -4q12 -1 41 -1h42v-60q-2 0 -27.5 1t-60 2t-57.5 1t-57.5 -1t-60 -2t-27.5 -1v60l85 1q15 1 18 4t3 17v544h-106v60h235
q16 0 21.5 -2t14.5 -11l466 -473v404q0 14 -3.5 17t-19.5 4q-12 1 -41 1h-42v60q2 0 27.5 -1t60 -2t57.5 -1t57.5 1t60 2t27.5 1v-60z" />
    <glyph glyph-name="O" unicode="O" horiz-adv-x="1032" 
d="M946 338q0 -70 -26.5 -132t-77.5 -112t-135.5 -79t-191.5 -29q-108 0 -192.5 29t-135.5 79t-77 112t-26 132q0 72 26.5 136.5t78 115.5t135.5 80.5t191 29.5t191 -29.5t135.5 -80.5t78 -115t26.5 -137zM779 355q0 148 -67 216q-73 73 -197 73q-126 0 -200 -76
q-64 -67 -64 -213q0 -157 69 -233q68 -77 195 -77q133 0 204 87q60 75 60 223z" />
    <glyph glyph-name="P" unicode="P" horiz-adv-x="936" 
d="M850 485q0 -90 -86.5 -143.5t-209.5 -53.5h-222v-228h106v-60q-59 4 -183 4l-182 -4v60h106v566h-106v60h469q142 0 225 -57.5t83 -143.5zM683 485q0 31 -3.5 49.5t-18.5 43t-52.5 36.5t-97.5 12h-186v-283h185q49 0 83.5 9.5t51.5 22t26 34.5t10.5 36.5t1.5 39.5z" />
    <glyph glyph-name="Q" unicode="Q" horiz-adv-x="1032" 
d="M954 -6q0 -68 -44 -128t-118 -60q-29 0 -52 10.5t-37.5 24t-30.5 43t-24 49t-23 61.5q-53 -8 -110 -8q-108 0 -192.5 29t-135.5 79t-77 112t-26 132q0 72 26.5 136.5t78 115.5t135.5 80.5t191 29.5t191 -29.5t135.5 -80.5t78 -115t26.5 -137q0 -107 -60 -194t-172 -126
q23 -22 40.5 -32t29 -11.5t35.5 -1.5q40 0 60.5 4.5t24 9.5t4.5 14q3 22 23 22q23 0 23 -29zM786 339q0 138 -56 212q-70 93 -215 93q-74 0 -129 -26t-85 -66q-57 -77 -57 -213q0 -221 153 -276q-1 3 -1 13q0 39 34.5 63t83.5 24q76 0 148 -87q124 68 124 263zM599 52
q-31 60 -85 60q-24 0 -45.5 -9t-21.5 -27q0 -34 68 -34q44 0 84 10z" />
    <glyph glyph-name="R" unicode="R" horiz-adv-x="1019" 
d="M1004 100q0 -12 -5.5 -28.5t-18.5 -37t-44 -34.5t-75 -14q-118 0 -175 31q-23 13 -36.5 28t-19.5 37.5t-7 39.5t-1 53q0 51 -6.5 72t-35.5 43q-40 28 -105 28h-150v-258h106v-60l-179 4l-179 -4v60h106v566h-106v60h423q153 0 248 -53t95 -135q0 -56 -47.5 -97
t-119.5 -61q32 -14 53 -31t32 -40t15 -39t8 -46q6 -33 8.5 -48t10 -38.5t16 -33.5t23 -18.5t34.5 -8.5q11 0 21.5 3t24 19.5t15.5 45.5q2 21 35 21q12 0 18 -1t12 -7t6 -18zM672 498q0 30 -7 51t-25.5 39.5t-56.5 28t-96 9.5h-162v-257h161q60 0 99 10t57 30t24 40t6 49z
" />
    <glyph glyph-name="S" unicode="S" horiz-adv-x="769" 
d="M683 201q0 -28 -7.5 -56t-27 -57.5t-48.5 -51.5t-76.5 -36t-107.5 -14q-150 0 -237 50q-20 -18 -30 -28q-16 -16 -21.5 -19t-16.5 -3q-13 0 -19 5t-7 11t-1 18v173q0 23 6.5 29t29.5 6t28.5 -5.5t6.5 -23.5q8 -153 261 -153q53 0 89 13t51 33.5t20 36t5 30.5
q0 43 -33.5 70.5t-76.5 37.5q-4 1 -31 6t-57.5 11t-37.5 7q-53 9 -80 15.5t-61 22t-58 38.5q-62 59 -62 131q0 37 14.5 71.5t44.5 64.5t82.5 48t121.5 18q115 0 192 -47l9 -5q8 6 10 8l34 33q11 11 27 11q13 0 19 -5t7 -11t1 -18v-174q0 -23 -6.5 -28.5t-29.5 -5.5
q-20 0 -26.5 4t-9.5 21q-29 162 -227 162q-85 0 -123 -31t-38 -71q0 -36 32.5 -62.5t83.5 -35.5l179 -33q81 -15 141.5 -71.5t60.5 -139.5z" />
    <glyph glyph-name="T" unicode="T" horiz-adv-x="957" 
d="M897 444h-71q-9 90 -42 128.5t-127 38.5h-103v-551h151v-60q-49 4 -228 4q-178 0 -227 -4v60h151v551h-103q-94 0 -127 -38.5t-42 -128.5h-71l25 227h789z" />
    <glyph glyph-name="U" unicode="U" horiz-adv-x="1047" 
d="M974 626l-85 -1q-15 -1 -18 -4t-3 -17v-373q0 -46 -18.5 -88t-56 -78t-103.5 -57.5t-152 -21.5q-176 0 -268.5 71t-92.5 175v394h-106v60q59 -4 183 -4l182 4v-60h-106v-397q0 -38 8 -67t29 -57t65 -43.5t109 -15.5q108 0 176 44.5t68 142.5v371q0 14 -3.5 17t-19.5 4
q-12 1 -41 1h-42v60q56 -4 148 -4q24 0 59.5 1t61 2t26.5 1v-60z" />
    <glyph glyph-name="V" unicode="V" horiz-adv-x="1029" 
d="M985 626h-36q-30 0 -41 -1q-15 -1 -18.5 -3.5t-8.5 -11.5l-296 -596q-7 -13 -15.5 -19.5t-15 -7.5t-20.5 -1h-41q-14 0 -20.5 1t-15.5 7.5t-16 20.5l-304 611h-95v60l162 -4q128 0 181 4v-60h-85l248 -500l247 496q-25 4 -64 4h-20v60l147 -4q80 0 127 4v-60z" />
    <glyph glyph-name="W" unicode="W" horiz-adv-x="1404" 
d="M1363 626l-72 -1q-12 -1 -15 -3.5t-8 -12.5l-250 -594q-6 -14 -14.5 -20.5t-15.5 -7.5t-20 -1h-26q-13 0 -20 1t-15.5 8t-14.5 21l-191 455l-192 -455q-8 -18 -16.5 -24t-32.5 -6h-26q-13 0 -20 1t-15.5 7.5t-14.5 20.5l-256 611h-89v60l156 -4q108 0 179 4v-60h-89
l202 -480l175 417l-26 63h-88v60l155 -4q127 0 180 4v-60h-89l202 -480l194 462l4 11q0 7 -70 7h-26v60l149 -4q64 0 116 4v-60z" />
    <glyph glyph-name="X" unicode="X" horiz-adv-x="1029" 
d="M971 0l-168 4q-132 0 -187 -4v60h66l-197 221l-194 -217q36 -4 75 -4v-60l-165 4l-145 -4v60h50q33 0 46 1q18 1 22.5 3t12.5 10l243 270l-250 282h-105v60l168 -4q135 0 187 4v-60h-66l159 -178l157 174q-36 4 -75 4v60l165 -4q68 0 144 4v-60h-49q-33 0 -46 -1
q-19 -2 -24 -3.5t-12 -8.5l-205 -229l288 -324h105v-60z" />
    <glyph glyph-name="Y" unicode="Y" horiz-adv-x="1029" 
d="M988 626h-41q-30 0 -42 -1q-18 -2 -22 -3.5t-11 -8.5l-285 -338v-215h106v-60l-179 4l-179 -4v60h106v214l-298 352h-104v60l172 -4q139 0 191 4v-60h-68l221 -261l216 257q-29 4 -64 4v60l150 -4q71 0 131 4v-60z" />
    <glyph glyph-name="Z" unicode="Z" horiz-adv-x="844" 
d="M766 265l-22 -265h-624q-14 0 -20.5 1.5t-11 9t-4.5 22.5q0 19 10 31l468 562h-159q-217 0 -229 -167h-71l14 227h605q13 0 19 -1t11.5 -8.5t5.5 -22.5q0 -17 -11 -30l-466 -559h174q51 0 88 7.5t71.5 28t54.5 61.5t26 103h71z" />
    <glyph glyph-name="bracketleft" unicode="[" horiz-adv-x="395" 
d="M355 -250h-199v1000h199v-79h-120v-842h120v-79z" />
    <glyph glyph-name="backslash" unicode="\" horiz-adv-x="575" 
d="M510 -219q0 -14 -9.5 -22.5t-20.5 -8.5q-10 0 -17 5t-9.5 10t-6.5 15l-377 919q-6 16 -6 20q0 14 9.5 22.5t20.5 8.5q10 0 16.5 -4.5t9 -9.5t7.5 -16l377 -919q6 -16 6 -20z" />
    <glyph glyph-name="bracketright" unicode="]" horiz-adv-x="395" 
d="M237 -250h-199v79h120v842h-120v79h199v-1000z" />
    <glyph glyph-name="asciicircum" unicode="^" horiz-adv-x="556" 
d="M561 584l-12 -22l-272 123l-271 -123l-11 22l283 160z" />
    <glyph glyph-name="underscore" unicode="_" horiz-adv-x="1029" 
d="M1029 -161h-1029v72h1029v-72z" />
    <glyph glyph-name="grave" unicode="`" 
d="M433 559l-37 -60l-175 73q-45 19 -45 59q0 25 19 48t47 23q24 0 44 -18z" />
    <glyph glyph-name="a" unicode="a" horiz-adv-x="675" 
d="M659 30q0 -14 -5.5 -21t-11.5 -8t-19 -1h-66q-103 0 -110 61q-48 -68 -181 -68q-15 0 -28 0.5t-43 3.5t-53 11.5t-47 21.5t-37.5 35.5t-13.5 52.5t16.5 54t46.5 39t58.5 26t66 17t56 8t39.5 4q24 2 47.5 2.5t36.5 1t15 0.5v21q0 113 -130 113q-77 0 -77 -8l2 -4
q12 -20 12 -42q0 -32 -21.5 -52t-50.5 -20q-28 0 -50 19.5t-22 53.5q0 30 16.5 51t37 31t54.5 15.5t52.5 6t47.5 0.5q131 0 195 -45.5t64 -117.5v-221q18 -11 63 -11q16 0 22.5 -1t12 -8t5.5 -21zM426 135v90q-95 -4 -147 -19q-106 -28 -106 -87q0 -33 32.5 -54t81.5 -21
q56 0 96 21q20 10 30 23.5t11.5 22.5t1.5 24z" />
    <glyph glyph-name="b" unicode="b" horiz-adv-x="769" 
d="M713 223q0 -98 -78 -164t-217 -66q-101 0 -174 61q-12 -15 -38 -54h-71v587q0 28 -10.5 33.5t-58.5 5.5v60l192 8v-287q9 6 25 14t59.5 19t90.5 11q136 0 208 -67t72 -161zM569 224q0 25 -1 41t-9 44.5t-22 45.5t-44.5 31t-72.5 14q-54 0 -95 -20.5t-60 -44.5v-214
q51 -77 143 -77q46 0 78.5 14.5t48 32t24 47t9.5 45.5t1 41z" />
    <glyph glyph-name="c" unicode="c" horiz-adv-x="619" 
d="M571 113q0 -13 -21.5 -43t-57.5 -49q-55 -28 -146 -28q-144 0 -218 67.5t-74 161.5q0 29 7.5 57.5t28 61t52.5 57.5t86.5 41t124.5 16q22 0 38 -0.5t43 -3.5t45.5 -10t37.5 -17.5t29 -29.5t10 -43q0 -34 -22 -53.5t-50 -19.5q-29 0 -50.5 20t-21.5 52q0 26 13 45
q-28 4 -69 4q-49 0 -81.5 -14t-48.5 -40.5t-22 -54.5t-6 -65q0 -176 172 -176q34 0 59 7.5t40 21.5t20.5 22t12.5 21q4 9 10.5 11t22.5 2q36 0 36 -21z" />
    <glyph glyph-name="d" unicode="d" horiz-adv-x="769" 
d="M701 0l-199 -7v48q-73 -48 -168 -48q-133 0 -206.5 66.5t-73.5 161.5q0 98 77.5 164t216.5 66q93 0 161 -42v178q0 28 -10.5 33.5t-58.5 5.5v60l192 8v-595q0 -28 10.5 -33.5t58.5 -5.5v-60zM502 124v195q0 13 -2 17.5t-11 13.5q-50 50 -130 50q-46 0 -78.5 -14.5
t-48 -32t-24 -47t-9.5 -45.5t-1 -41t1 -40.5t8.5 -44.5t22 -46t44 -31t71.5 -14q98 0 157 80z" />
    <glyph glyph-name="e" unicode="e" horiz-adv-x="634" 
d="M586 113q0 -15 -23.5 -45t-64.5 -48q-58 -27 -145 -27q-151 0 -229 68.5t-78 164.5q0 92 73 160.5t216 68.5q111 0 173 -47q78 -58 78 -173q0 -15 -5.5 -22t-11.5 -8t-19 -1h-359q6 -155 181 -155q110 0 145 74q7 13 33 13q36 0 36 -23zM486 251q-8 153 -151 153
q-141 0 -145 -153h296z" />
    <glyph glyph-name="f" unicode="f" horiz-adv-x="431" 
d="M520 605q0 -33 -21.5 -52t-49.5 -19q-26 0 -48 19t-22 52q0 21 10 37l2 6q0 2 -11 2q-51 0 -84 -29q-30 -28 -30 -87v-90h144v-60h-137v-324h87v-60l-146 4q-79 0 -133 -4v60h69v324h-90v60h90v91q0 45 21.5 78.5t57 52t75.5 27t83 8.5q64 0 98.5 -28.5t34.5 -67.5z" />
    <glyph glyph-name="g" unicode="g" 
d="M664 387q0 -23 -15 -38.5t-39 -15.5t-38.5 15.5t-14.5 38.5q1 13 2 18q-29 -3 -60 -15q39 -39 39 -91q0 -26 -11.5 -50.5t-36 -48.5t-71.5 -38.5t-111 -14.5q-80 0 -137 25q-5 -8 -5 -22q0 -28 22 -45q13 -11 25 -13t46 -2h56q70 0 101.5 -1t68.5 -7.5t70 -19.5
q49 -20 70 -57t21 -74q0 -64 -81 -98.5t-219 -34.5q-151 0 -225.5 37.5t-74.5 92.5q0 31 24.5 53.5t69.5 33.5q-39 39 -39 96q0 47 31 85q-53 46 -53 103q0 26 11.5 50.5t36 48.5t71.5 38.5t111 14.5q89 0 150 -31q59 38 124 38q38 0 59.5 -22t21.5 -49zM416 299q0 16 -1 26
t-6.5 25.5t-16.5 25t-32.5 16.5t-51.5 7q-37 0 -61 -9.5t-33 -27.5t-11 -30.5t-2 -32.5q0 -16 1 -26t6.5 -25.5t16.5 -25t32.5 -16.5t51.5 -7q37 0 61 9.5t33 27.5t11 30.5t2 32.5zM544 -72q0 50 -163 50h-146q-23 0 -40.5 -4.5t-26 -10t-13.5 -13t-6 -12t-1 -9.5
q0 -31 49.5 -55t148.5 -24q53 0 93.5 7.5t62 20t32 25t10.5 25.5z" />
    <glyph glyph-name="h" unicode="h" horiz-adv-x="769" 
d="M720 0q-64 4 -134 4l-134 -4v60h69v245q0 54 -16.5 74.5t-53.5 20.5q-36 0 -73.5 -13t-69.5 -49.5t-32 -90.5v-187h69v-60q-64 4 -134 4l-134 -4v60h69v527q0 28 -10.5 33.5t-58.5 5.5v60l192 8v-333q71 90 201 90q37 0 66 -5.5t57 -21t43 -47.5t15 -79v-238h69v-60z" />
    <glyph glyph-name="i" unicode="i" horiz-adv-x="394" 
d="M335 0l-125 4l-130 -4v60h69v284q0 28 -10 33.5t-56 5.5v60l189 8v-391h63v-60zM280 600q0 -34 -24 -58.5t-59 -24.5t-59 24.5t-24 59.5q0 34 24 58.5t59 24.5t59 -24.5t24 -59.5z" />
    <glyph glyph-name="j" unicode="j" horiz-adv-x="431" 
d="M325 -36q0 -57 -35 -96t-80.5 -54t-95.5 -15q-75 0 -119 27t-44 75q0 31 20.5 51.5t51.5 20.5t51.5 -20.5t20.5 -51.5q0 -21 -11 -39l-3 -7q0 -5 35 -5q37 0 61.5 31.5t24.5 83.5v378q0 13 -1 19t-6 11.5t-15 7.5q-15 2 -54 2v60l199 8v-487zM325 600q0 -34 -24 -58.5
t-59 -24.5t-59 24.5t-24 59.5q0 34 24 58.5t59 24.5t59 -24.5t24 -59.5z" />
    <glyph glyph-name="k" unicode="k" horiz-adv-x="731" 
d="M698 0l-112 4q-65 0 -133 -4v60q14 0 20 4l-142 144l-81 -56v-92h69v-60q-72 4 -127 4q-50 0 -126 -4v60h69v527q0 28 -10.5 33.5t-58.5 5.5v60l192 8v-450l199 136q-7 4 -19 4v60q48 -4 136 -4q54 0 94 4v-60h-27q-52 0 -68 -11l-151 -103l195 -199q7 -7 14.5 -9
t31.5 -2h35v-60z" />
    <glyph glyph-name="l" unicode="l" horiz-adv-x="394" 
d="M341 0q-48 4 -131 4l-130 -4v60h69v527q0 28 -10.5 33.5t-58.5 5.5v60l192 8v-634h69v-60z" />
    <glyph glyph-name="m" unicode="m" horiz-adv-x="1144" 
d="M1095 0q-64 4 -134 4l-134 -4v60h69v245q0 54 -16 74.5t-54 20.5q-36 0 -73.5 -13t-69.5 -49.5t-32 -90.5v-187h69v-60q-64 4 -134 4l-134 -4v60h69v245q0 54 -16.5 74.5t-53.5 20.5q-36 0 -73.5 -13t-69.5 -49.5t-32 -90.5v-187h69v-60q-64 4 -134 4l-134 -4v60h69v284
q0 28 -10.5 33.5t-58.5 5.5v60l184 8v-102q15 22 35 41.5t67.5 40t106.5 20.5q143 0 173 -92q33 46 87 69t115 23q37 0 66 -5.5t57 -21t43 -47.5t15 -79v-238h69v-60z" />
    <glyph glyph-name="n" unicode="n" horiz-adv-x="769" 
d="M720 0q-64 4 -134 4l-134 -4v60h69v245q0 54 -16.5 74.5t-53.5 20.5q-36 0 -73.5 -13t-69.5 -49.5t-32 -90.5v-187h69v-60q-64 4 -134 4l-134 -4v60h69v284q0 28 -10.5 33.5t-58.5 5.5v60l184 8v-102q15 22 35 41.5t67.5 40t106.5 20.5q37 0 66 -5.5t57 -21t43 -47.5
t15 -79v-238h69v-60z" />
    <glyph glyph-name="o" unicode="o" 
d="M646 218q0 -94 -75.5 -159.5t-224.5 -65.5q-148 0 -224 65.5t-76 159.5q0 44 17 85t51.5 75.5t94 55.5t137.5 21q77 0 137 -20.5t94.5 -55.5t51.5 -75.5t17 -85.5zM502 230q0 32 -1 49.5t-9 45t-23.5 42t-46.5 26t-76 11.5t-76 -11.5t-46.5 -26t-23.5 -42t-9 -45
t-1 -49.5q0 -24 0.5 -37t3.5 -35.5t8.5 -35t17 -28.5t27.5 -24.5t41.5 -14.5t57.5 -6t57.5 6t41.5 14.5t27.5 24.5t17 28.5t8.5 35t3.5 35.5t0.5 37z" />
    <glyph glyph-name="p" unicode="p" horiz-adv-x="769" 
d="M713 223q0 -99 -78.5 -164.5t-215.5 -65.5q-86 0 -154 44v-171h69v-60q-64 4 -134 4l-134 -4v60h69v482q0 13 -0.5 18t-5 9.5t-13.5 5.5q-13 2 -50 2v60l192 8v-45q77 45 181 45q134 0 204 -67t70 -161zM569 222q0 80 -40 126.5t-110 46.5q-80 0 -137 -46
q-12 -11 -14.5 -15.5t-2.5 -19.5v-194q51 -76 142 -76q71 0 116.5 46.5t45.5 131.5z" />
    <glyph glyph-name="q" unicode="q" horiz-adv-x="731" 
d="M701 -194q-64 4 -134 4l-134 -4v60h69v177q-72 -50 -168 -50q-131 0 -205.5 65.5t-74.5 163.5q0 97 77 163t213 66q113 0 184 -76l40 76h64v-585h69v-60zM509 157v106q0 45 -43 88.5t-106 43.5q-69 0 -115.5 -44.5t-46.5 -129.5q0 -81 40.5 -129t108.5 -48q87 0 142 67
q14 17 17 24t3 22z" />
    <glyph glyph-name="r" unicode="r" horiz-adv-x="571" 
d="M523 359q0 -32 -21.5 -51t-48.5 -19t-48.5 19t-21.5 51q0 25 12 41q-63 -4 -100 -61.5t-37 -135.5v-143h87v-60l-146 4q-79 0 -133 -4v60h69v284q0 28 -10.5 33.5t-58.5 5.5v60l177 8v-111h1q21 45 61 78t97 33q49 0 85 -25t36 -67z" />
    <glyph glyph-name="s" unicode="s" horiz-adv-x="551" 
d="M495 142q0 -35 -13 -62.5t-36 -42.5t-45 -25t-51 -13.5t-42.5 -4.5t-29.5 -1q-84 0 -137 28q-3 -1 -13.5 -7.5t-13.5 -8.5q-20 -12 -33 -12t-19 5t-7 11t-1 18v94q0 23 6.5 29t29.5 6q20 0 25.5 -3.5t11.5 -19.5q33 -89 152 -89q132 0 132 66q0 18 -11.5 30.5t-35.5 20.5
t-40.5 11t-48.5 8q-25 3 -40.5 5.5t-41.5 8.5t-42.5 12t-37 17t-32 24t-19.5 31.5t-8 41.5q0 71 66 107q52 28 153 28q75 0 116 -15q32 15 45 15t19 -5t7 -11t1 -18v-66q0 -23 -6.5 -28.5t-29.5 -5.5q-14 0 -19.5 1t-10 6.5t-5.5 18.5q-5 62 -122 62q-130 0 -130 -54
q0 -14 9 -23.5t29.5 -15.5t38 -9.5t48.5 -7.5q53 -8 77 -12.5t52 -15t50 -27.5q53 -45 53 -102z" />
    <glyph glyph-name="t" unicode="t" horiz-adv-x="544" 
d="M458 121q0 -64 -45.5 -96t-108.5 -32q-173 0 -173 127v264h-97v51q72 2 113 60.5t43 139.5h71v-191h175v-60h-175v-264q0 -11 0.5 -17.5t3.5 -18t9 -18t18.5 -12t29.5 -5.5q14 0 26.5 4t25.5 22t13 49v46h71v-49z" />
    <glyph glyph-name="u" unicode="u" horiz-adv-x="769" 
d="M720 0l-192 -7v65q-60 -65 -175 -65q-45 0 -77.5 4.5t-64.5 17.5t-48.5 39.5t-16.5 66.5v223q0 28 -10.5 33.5t-58.5 5.5v60l199 8v-341q0 -27 3.5 -38t24.5 -19.5t67 -8.5q62 0 106 28t44 88v184q0 28 -10.5 33.5t-58.5 5.5v60l199 8v-352q0 -28 10.5 -33.5t58.5 -5.5
v-60z" />
    <glyph glyph-name="v" unicode="v" horiz-adv-x="731" 
d="M686 384h-20q-23 0 -35 -1q-10 -1 -12.5 -3.5t-7.5 -10.5l-180 -348q-7 -13 -16.5 -19.5t-16 -7.5t-19.5 -1h-29q-13 0 -20 1t-16 7.5t-16 20.5l-187 362h-68v60q76 -4 120 -4q23 0 54 1t53.5 2t25.5 1v-60h-47l145 -280l142 276q-21 4 -45 4v60q36 -4 104 -4
q16 0 37.5 1t37 2t16.5 1v-60z" />
    <glyph glyph-name="w" unicode="w" horiz-adv-x="994" 
d="M952 384h-17q-24 0 -34 -1q-5 -1 -7 -1.5t-4.5 -2t-4 -4t-3.5 -7.5l-149 -347q-12 -28 -50 -28h-26q-14 0 -20.5 1t-15.5 8t-15 21l-110 255l-110 -255q-6 -14 -15 -21t-15.5 -8t-20.5 -1h-26q-13 0 -20 1t-15.5 7.5t-14.5 20.5l-157 362h-62v60l116 -4q79 0 131 4v-60
h-51l114 -264l107 248q-1 1 -7 16h-62v60q44 -4 103 -4q56 0 120 4v-60h-51l126 -291l119 273q0 1 1.5 3.5t2 5t0.5 3.5q0 6 -55 6v60q39 -4 110 -4q56 0 88 4v-60z" />
    <glyph glyph-name="x" unicode="x" horiz-adv-x="731" 
d="M686 0l-116 4q-77 0 -129 -4v60h22l-113 109q-6 -4 -12 -10l-101 -96l25 -4v-59q-46 4 -115 4q-63 0 -103 -4v60h32q39 0 49.5 2.5t19.5 10.5l154 146l-169 165h-80v60l116 -4q61 0 129 4v-60h-21l98 -95l95 91q-12 4 -23 4v60q54 -4 116 -4q63 0 103 4v-60h-32
q-25 0 -39 -1q-20 -2 -30 -12l-139 -132l9 -10l174 -169h80v-60z" />
    <glyph glyph-name="y" unicode="y" horiz-adv-x="731" 
d="M686 384h-21q-23 0 -35 -1q-10 -1 -13 -3.5t-8 -11.5l-230 -438q-38 -72 -100 -101.5t-118 -29.5q-55 0 -90.5 30t-35.5 73q0 33 20 50.5t48 17.5q27 0 47 -18t20 -49q0 -32 -22 -51q5 -2 14 -2q99 0 144 94l30 56l-222 384h-69v60q68 -4 121 -4q59 0 135 4v-60h-45
l147 -256l132 252q-21 4 -45 4v60l105 -4q16 0 37.5 1t37 2t16.5 1v-60z" />
    <glyph glyph-name="z" unicode="z" horiz-adv-x="619" 
d="M552 195l-22 -195h-448q-13 0 -19 1t-11.5 8t-5.5 21q0 16 12 29l315 334h-86q-73 0 -109 -23t-42 -96h-71l14 170h433q12 0 18 -1t12 -7.5t6 -20.5q0 -15 -13 -28l-312 -331h92q81 0 119 28t47 111h71z" />
    <glyph glyph-name="braceleft" unicode="{" horiz-adv-x="575" 
d="M496 -232q0 -12 -6 -15t-25 -3q-21 0 -41 1.5t-49 6t-52.5 14t-45 24t-33.5 38.5t-12 55v210q0 39 -2 47q-8 32 -41 57.5t-94 28.5q-17 1 -17 18q0 12 4.5 14.5t17.5 3.5q62 3 99 37q23 20 28 40t5 72v206q1 58 64 92.5t169 34.5q13 0 18.5 -0.5t9 -4.5t3.5 -13
q0 -12 -4.5 -14.5t-17.5 -3.5q-53 -3 -92 -28q-39 -29 -39 -80v-210q0 -19 -1 -30t-7 -31t-17.5 -33.5t-35.5 -28t-58 -23.5q60 -16 89 -48t30 -68v-237q0 -25 3 -35q23 -69 133 -76q17 -1 17 -18z" />
    <glyph glyph-name="bar" unicode="|" horiz-adv-x="319" 
d="M190 -206q0 -44 -31 -44q-30 0 -30 44v912q0 44 31 44q30 0 30 -44v-912z" />
    <glyph glyph-name="braceright" unicode="}" horiz-adv-x="575" 
d="M496 250q0 -12 -4.5 -14.5t-17.5 -3.5q-65 -4 -97 -36q-24 -22 -29 -41t-5 -72v-206q-1 -56 -62.5 -91.5t-171.5 -35.5q-13 0 -18 0.5t-9 4.5t-4 13q0 12 4.5 14.5t17.5 3.5q57 3 95 30q17 13 26 28.5t10 24.5t1 25v210q0 19 1 30t7 31t17.5 33.5t35.5 28t58 23.5
q-61 17 -89.5 48.5t-29.5 67.5v237q0 25 -3 35q-22 70 -134 76q-17 1 -17 18q0 12 6.5 15t24.5 3q38 0 72.5 -5t74 -18t63.5 -43t24 -73v-210q0 -41 3 -49q24 -79 133 -84q17 -1 17 -18z" />
    <glyph glyph-name="asciitilde" unicode="~" horiz-adv-x="556" 
d="M555 290l-54 -44q-20 -17 -57 -35q-40 -18 -73 -18q-42 0 -100 34q-65 37 -104 37q-68 0 -153 -71l-14 17l54 44q20 17 57 35q40 18 73 18q42 0 100 -34q65 -37 104 -37q68 0 153 71z" />
    <glyph glyph-name="uni00A0" unicode="&#xa0;" 
 />
    <glyph glyph-name="exclamdown" unicode="&#xa1;" horiz-adv-x="430" 
d="M298 416q0 -33 -24 -58t-60 -25q-33 0 -58 24t-25 60q0 33 24 58t60 25q33 0 58 -24t25 -60zM298 -130q0 -35 -25.5 -56.5t-58.5 -21.5q-31 0 -57 21t-26 57l3 26l44 339q2 20 8 24.5t28 4.5q23 0 29 -5t8 -25l44 -338q3 -23 3 -26z" />
    <glyph glyph-name="cent" unicode="&#xa2;" horiz-adv-x="619" 
d="M571 113q0 -13 -21.5 -43t-57.5 -49q-47 -24 -122 -28v-53q0 -13 -8.5 -21.5t-21.5 -8.5q-12 0 -21 8.5t-9 21.5v54q-126 9 -191 75t-65 153q0 34 11.5 68.5t38 70.5t79.5 61t127 31v51q0 13 9 21.5t21 8.5q13 0 21.5 -8.5t8.5 -21.5v-49q186 -3 186 -104
q0 -34 -22 -53.5t-50 -19.5q-29 0 -50.5 20t-21.5 52q0 26 13 45q-29 4 -55 4v-350q34 0 59 7.5t40 21.5t20.5 22t12.5 21q4 9 10.5 11t22.5 2q36 0 36 -21zM310 56v339q-64 -12 -88 -56.5t-24 -113.5q0 -142 112 -169z" />
    <glyph glyph-name="sterling" unicode="&#xa3;" horiz-adv-x="1029" 
d="M962 148q0 -73 -47 -126t-116 -53q-18 0 -38 2.5t-35 5t-37.5 9.5t-33.5 10.5t-36.5 14t-33 13.5t-36.5 16t-34 15q-14 -25 -43 -40t-76.5 -20.5t-80 -7t-92.5 -1.5q-64 0 -110 26.5t-46 75.5q0 31 18.5 52.5t52 31.5t67.5 13.5t78 3.5q52 0 110 -16q-9 35 -64 140h-166
v60h140q-13 37 -13 71q0 106 89 174t210 68q109 0 189.5 -52t80.5 -141q0 -29 -21 -50.5t-51 -21.5t-51 21.5t-21 50.5q0 22 12.5 40.5t32.5 26.5q-53 54 -171 54q-70 0 -119.5 -49.5t-49.5 -120.5q0 -35 11 -71h246v-60h-223q6 -14 20.5 -44.5t22.5 -48t16.5 -44
t11.5 -49.5q137 -52 219 -52q146 0 146 73h72zM395 100q-57 17 -112 17q-33 0 -51 -0.5t-43.5 -3t-37.5 -9t-12 -16.5q0 -11 7 -17.5t21.5 -9t25 -3t30.5 -0.5q48 0 74 1.5t57 11.5t41 29z" />
    <glyph glyph-name="currency" unicode="&#xa4;" horiz-adv-x="1069" 
d="M852 568q27 -28 -9 -64l-77 -77q60 -77 60 -177t-60 -177l77 -76q36 -36 8 -65q-28 -27 -64 9l-76 77q-77 -60 -177 -60q-98 0 -177 60l-77 -77q-36 -36 -65 -8q-27 28 9 64l77 77q-58 77 -58 176q0 98 59 176l-78 78q-36 36 -8 65q28 27 64 -9l78 -78q77 60 176 60
q98 0 176 -59l77 77q36 36 65 8zM748 250q0 88 -63 151t-151 63t-150.5 -62.5t-62.5 -151.5t62.5 -151.5t150.5 -62.5t151 63t63 151z" />
    <glyph glyph-name="yen" unicode="&#xa5;" horiz-adv-x="1029" 
d="M988 626h-41q-30 0 -42 -1q-18 -2 -22 -3.5t-11 -8.5l-196 -233h147v-60h-198l-38 -45v-95h236v-60h-236v-60h106v-60l-179 4l-179 -4v60h106v60h-235v60h235v94l-39 46h-196v60h145l-208 246h-104v60l172 -4q139 0 191 4v-60h-68l208 -246h26l203 242q-29 4 -64 4v60
l150 -4q71 0 131 4v-60z" />
    <glyph glyph-name="brokenbar" unicode="&#xa6;" horiz-adv-x="319" 
d="M190 341q0 -12 -9 -21t-21 -9q-13 0 -22 9t-9 21v365q0 44 31 44q30 0 30 -44v-365zM190 -206q0 -44 -31 -44q-30 0 -30 44v365q0 12 9 21t22 9q12 0 21 -9t9 -21v-365z" />
    <glyph glyph-name="section" unicode="&#xa7;" horiz-adv-x="838" 
d="M769 200q0 -49 -29.5 -87t-75.5 -55q21 -39 21 -81q0 -87 -79 -138.5t-187 -51.5q-99 0 -171.5 48t-72.5 128q0 30 21 51t51 21t51 -21t21 -51q0 -38 -31 -59q40 -19 131 -19q62 0 106 23.5t44 68.5q0 19 -10.5 33t-32 22.5t-38.5 12.5t-46 9l-147 27q-95 17 -160.5 76.5
t-65.5 142.5q0 49 29.5 87t75.5 54q-21 40 -21 82q0 87 79 138.5t187 51.5q99 0 171.5 -48t72.5 -128q0 -30 -21 -51t-51 -21t-51 21t-21 51q0 38 31 59q-40 19 -131 19q-62 0 -106 -23.5t-44 -68.5q0 -19 10.5 -33t32 -22.5t38.5 -12.5t46 -9l147 -27q95 -17 160.5 -76.5
t65.5 -142.5zM641 200q0 70 -121 91l-147 27q-81 14 -139 57q-37 -22 -37 -75q0 -70 121 -91l147 -27q82 -14 139 -58q37 24 37 76z" />
    <glyph glyph-name="dieresis" unicode="&#xa8;" 
d="M285 600q0 -30 -21.5 -52t-53.5 -22q-31 0 -52.5 22t-21.5 53q0 30 21.5 52.5t52.5 22.5q32 0 53.5 -22t21.5 -54zM558 600q0 -30 -21.5 -52t-53.5 -22q-31 0 -52.5 22t-21.5 53q0 30 21.5 52.5t52.5 22.5q32 0 53.5 -22t21.5 -54z" />
    <glyph glyph-name="copyright" unicode="&#xa9;" horiz-adv-x="686" 
d="M686 343q0 -142 -100.5 -242.5t-242.5 -100.5t-242.5 100.5t-100.5 242.5t100.5 242.5t242.5 100.5q143 0 243 -100t100 -243zM608 343q0 109 -78 187t-187 78t-187 -78t-78 -187t78 -187t187 -78t187 78t78 187zM472 301q0 -36 -36 -61.5t-94 -25.5q-81 0 -124.5 37.5
t-43.5 91.5q0 55 43.5 92t124.5 37q51 0 87 -24l24 20q4 4 10 4q9 0 9 -12v-77q0 -8 -2 -10t-10 -2h-5q-11 0 -12 6q-8 40 -35.5 57t-57.5 17q-58 0 -89 -29q-27 -29 -27 -79q0 -55 28 -79q31 -29 89 -29q34 0 64 16.5t32 52.5q0 7 12 7q13 0 13 -10z" />
    <glyph glyph-name="ordfeminine" unicode="&#xaa;" horiz-adv-x="599" 
d="M558 403q0 -10 -5 -15t-10 -5.5t-15 -0.5h-56q-87 0 -92 42q-41 -47 -152 -47q-16 0 -30.5 0.5t-46 5t-53.5 13t-39.5 26t-17.5 42.5q0 87 238 104q20 1 40 1.5t30.5 1t12.5 0.5v14q0 79 -109 79q-65 0 -65 -5l2 -3q10 -13 10 -29q0 -23 -18 -37t-43 -14
q-23 0 -41.5 13.5t-18.5 37.5q0 26 18 42t51 22t53.5 7.5t52.5 1.5q110 0 163.5 -32t53.5 -82v-155q15 -7 53 -7q14 0 19.5 -1t10 -5.5t4.5 -14.5zM528 326q0 -9 -9 -15t-21 -6h-397q-12 0 -21 6t-9 15q0 8 9 14.5t21 6.5h397q12 0 21 -6.5t9 -14.5zM362 476v63
q-81 -3 -123 -13q-89 -18 -89 -61q0 -24 27 -38.5t68 -14.5q47 0 81 15q36 15 36 49z" />
    <glyph glyph-name="guillemotleft" unicode="&#xab;" horiz-adv-x="769" 
d="M384 21q0 -9 -6 -15t-15 -6h-9q-14 0 -19 12q-57 122 -167 198q-9 5 -9 17q0 10 9 17q111 77 167 198q5 12 19 12h9q9 0 15 -6.5t6 -14.5q0 -4 -1 -6q-28 -110 -90 -200q62 -91 90 -201q1 -1 1 -5zM609 21q0 -9 -6 -15t-15 -6h-9q-14 0 -19 12q-57 122 -167 198
q-9 5 -9 17q0 10 9 17q111 77 167 198q5 12 19 12h9q9 0 15 -6.5t6 -14.5q0 -4 -1 -6q-28 -110 -90 -200q62 -91 90 -201q1 -1 1 -5z" />
    <glyph glyph-name="logicalnot" unicode="&#xac;" horiz-adv-x="1069" 
d="M983 121q0 -17 -11.5 -28t-27.5 -11t-27.5 11t-11.5 28v220h-782q-17 0 -28 11.5t-11 27.5t11 27.5t28 11.5h821q16 0 27.5 -11.5t11.5 -27.5v-259z" />
    <glyph glyph-name="uni00AD" unicode="&#xad;" horiz-adv-x="469" 
d="M383 165h-359v115h359v-115z" />
    <glyph glyph-name="registered" unicode="&#xae;" horiz-adv-x="686" 
d="M686 343q0 -142 -100.5 -242.5t-242.5 -100.5t-242.5 100.5t-100.5 242.5t100.5 242.5t242.5 100.5q143 0 243 -100t100 -243zM608 343q0 109 -78 187t-187 78t-187 -78t-78 -187t78 -187t187 -78t187 78t78 187zM527 258q0 -7 -3 -15.5t-16 -17.5t-33 -9q-41 0 -63 11
q-16 10 -20 21.5t-4 36.5q0 19 -2.5 26t-12.5 15q-14 11 -38 11h-54v-94h38v-22l-65 2l-65 -2v22h39v205h-39v22h154q55 0 89.5 -19t34.5 -49q0 -21 -17.5 -36t-43.5 -21q15 -7 24 -17.5t11 -17.5t5 -22q3 -20 5 -28t9 -16.5t19 -8.5q20 0 22 24q1 8 13 8q13 0 13 -9z
M406 402q0 23 -13.5 34.5t-53.5 11.5h-58v-93h58q41 0 54 12.5t13 34.5z" />
    <glyph glyph-name="macron" unicode="&#xaf;" 
d="M590 567h-486v67h486v-67z" />
    <glyph glyph-name="degree" unicode="&#xb0;" horiz-adv-x="520" 
d="M448 499q0 -78 -55 -133t-133 -55q-77 0 -132 55t-55 133q0 77 55 132t132 55q78 0 133 -55t55 -132zM370 499q0 45 -32 77t-78 32q-45 0 -77 -32t-32 -77q0 -46 32 -78t77 -32q46 0 78 32t32 78z" />
    <glyph glyph-name="plusminus" unicode="&#xb1;" horiz-adv-x="1069" 
d="M983 39q0 -39 -51 -39h-797q-51 0 -51 40q0 39 51 39h359v228h-359q-51 0 -51 40q0 39 51 39h359v256q0 51 40 51q39 0 39 -51v-256h359q51 0 51 -40q0 -39 -51 -39h-359v-228h359q51 0 51 -40z" />
    <glyph glyph-name="two.superior" unicode="&#xb2;" horiz-adv-x="498" 
d="M444 439l-26 -134h-363v15q0 15 10 22l178 120q90 62 90 118q0 37 -32 60.5t-85 23.5q-42 0 -71 -14q24 -12 24 -39q0 -23 -17 -35.5t-40 -12.5q-21 0 -39 12t-18 36q0 42 48 65.5t132 23.5q95 0 152 -32.5t57 -87.5q0 -51 -69 -94q-16 -10 -48.5 -25.5t-98.5 -53.5
l-31 -18h99q58 0 73 2q17 2 23 48h52z" />
    <glyph glyph-name="three.superior" unicode="&#xb3;" horiz-adv-x="498" 
d="M451 414q0 -46 -52 -81.5t-159 -35.5q-90 0 -141.5 26t-51.5 70q0 23 17 37t43 14t43 -14t17 -36q0 -29 -29 -43q38 -21 100 -21q32 0 52.5 8.5t28.5 24.5t10 26.5t2 24.5q0 15 -2.5 26t-10.5 26.5t-29 24t-54 8.5h-42q-9 0 -13 0.5t-8 4t-4 10.5q0 14 22 16l44 2
q32 1 57 25t25 58q0 55 -77 55q-52 0 -86 -20q5 -2 11.5 -5.5t14 -14t7.5 -23.5q0 -22 -16.5 -34.5t-39.5 -12.5q-22 0 -39 12.5t-17 34.5q0 41 45.5 67t123.5 26q87 0 134 -24.5t47 -61.5q0 -35 -27.5 -59.5t-68.5 -37.5q63 -14 93 -42.5t30 -60.5z" />
    <glyph glyph-name="acute" unicode="&#xb4;" 
d="M518 631q0 -40 -45 -59l-175 -73l-37 60l147 125q20 18 44 18q28 0 47 -23t19 -48z" />
    <glyph glyph-name="uni00B5" unicode="&#xb5;" horiz-adv-x="769" 
d="M719 0q-72 -5 -138 -5q-20 0 -54 -2v65q-60 -65 -174 -65q-52 0 -77 4v-131h69v-60q-64 4 -134 4l-134 -4v60h69v476q0 30 -10 35.5t-59 5.5v60l199 8v-339q0 -28 3.5 -39.5t24 -20t66.5 -8.5q64 0 105 28q45 31 45 90v180q0 30 -10 35.5t-59 5.5v60l199 8v-350
q0 -30 10 -35.5t59 -5.5v-60z" />
    <glyph glyph-name="paragraph" unicode="&#xb6;" horiz-adv-x="703" 
d="M670 663q0 -30 -45 -30h-51v-783q0 -44 -31 -44q-30 0 -30 44v783h-80v-783q0 -44 -31 -44q-30 0 -30 44v370q-138 8 -223 72.5t-85 164.5q0 102 85 169.5t202 67.5h274q45 0 45 -31z" />
    <glyph glyph-name="periodcentered" unicode="&#xb7;" horiz-adv-x="1069" 
d="M618 343q0 -33 -24.5 -58t-59.5 -25q-33 0 -58 24.5t-25 59.5q0 33 24.5 58t59.5 25q33 0 58 -24.5t25 -59.5z" />
    <glyph glyph-name="cedilla" unicode="&#xb8;" horiz-adv-x="619" 
d="M523 -109q0 -44 -46 -66.5t-142 -30.5q-29 -2 -85 -2t-81 -2v51q20 1 62 1.5t65 2.5q28 3 47.5 7.5t29 9t14.5 10.5t5.5 9.5t0.5 9.5q0 21 -20.5 32t-40 12.5t-51.5 1.5v52l82 -3l48 -4q112 -15 112 -91z" />
    <glyph glyph-name="one.superior" unicode="&#xb9;" horiz-adv-x="508" 
d="M424 305q-35 3 -167 3t-168 -3v36h121v298q-53 -13 -108 -13h-18v36h18q106 0 165 38h12q17 0 21.5 -3.5t4.5 -17.5v-338h119v-36z" />
    <glyph glyph-name="ordmasculine" unicode="&#xba;" horiz-adv-x="581" 
d="M543 534q0 -65 -63.5 -111t-188.5 -46t-188.5 45.5t-63.5 111.5q0 67 63 116.5t189 49.5q125 0 188.5 -49t63.5 -117zM513 326q0 -9 -9 -15t-21 -6h-384q-13 0 -21.5 6t-8.5 15q0 8 8.5 14.5t21.5 6.5h384q12 0 21 -6.5t9 -14.5zM422 543q0 22 -1 34t-7.5 31.5
t-19.5 29.5t-39 18t-64 8t-64 -8t-39 -18t-19.5 -29.5t-7.5 -31.5t-1 -34q0 -24 1 -36.5t7.5 -33t19.5 -30.5t39 -18.5t64 -8.5t64 8.5t39 18.5t19.5 30.5t7.5 33t1 36.5z" />
    <glyph glyph-name="guillemotright" unicode="&#xbb;" horiz-adv-x="769" 
d="M609 227q0 -12 -9 -17q-110 -76 -167 -198q-5 -12 -19 -12h-9q-9 0 -15 6t-6 15q0 4 1 5q28 110 90 201q-62 90 -90 200q-1 2 -1 6q0 8 6 14.5t15 6.5h9q14 0 19 -12q56 -121 167 -198q9 -7 9 -17zM384 227q0 -12 -9 -17q-110 -76 -167 -198q-5 -12 -19 -12h-9
q-9 0 -15 6t-6 15q0 4 1 5q28 110 90 201q-62 90 -90 200q-1 2 -1 6q0 8 6 14.5t15 6.5h9q14 0 19 -12q56 -121 167 -198q9 -7 9 -17z" />
    <glyph glyph-name="onequarter" unicode="&#xbc;" horiz-adv-x="1161" 
d="M424 305q-35 3 -167 3t-168 -3v36h121v298q-53 -13 -108 -13h-18v36h18q106 0 165 38h12q17 0 21.5 -3.5t4.5 -17.5v-338h119v-36zM1077 0q-41 2 -136 2q-108 0 -144 -2v36h95v57h-247v36l265 260q10 10 29 10h27q16 0 21 -4t5 -18v-248h85v-36h-85v-57h85v-36zM955 666
q0 -13 -10 -25l-554 -646q-11 -14 -30 -14q-16 0 -27.5 11.5t-11.5 27.5q0 14 9 25l555 647q11 13 30 13q16 0 27.5 -11.5t11.5 -27.5zM903 129v199l-203 -199h203z" />
    <glyph glyph-name="onehalf" unicode="&#xbd;" horiz-adv-x="1161" 
d="M424 305q-35 3 -167 3t-168 -3v36h121v298q-53 -13 -108 -13h-18v36h18q106 0 165 38h12q17 0 21.5 -3.5t4.5 -17.5v-338h119v-36zM1077 133l-26 -133h-363v15q0 15 10 22l178 120q91 61 91 117q0 37 -32.5 61t-85.5 24q-41 0 -70 -15q23 -12 23 -39q0 -22 -17.5 -35
t-39.5 -13q-20 0 -38.5 12.5t-18.5 36.5q0 42 48 65.5t133 23.5q94 0 151 -32.5t57 -87.5q0 -53 -69 -94q-17 -11 -49 -27t-98 -53q-29 -17 -31 -18h99q59 0 73 3q5 1 8.5 5t6.5 10.5t4.5 12t3 12t1.5 7.5h51zM897 666q0 -13 -10 -25l-554 -646q-12 -14 -30 -14
q-17 0 -28 11.5t-11 27.5q0 14 9 25l555 647q11 13 30 13q16 0 27.5 -11.5t11.5 -27.5z" />
    <glyph glyph-name="threequarters" unicode="&#xbe;" horiz-adv-x="1161" 
d="M498 414q0 -46 -52 -81.5t-159 -35.5q-90 0 -141.5 26t-51.5 70q0 23 17 37t43 14t43 -14t17 -36q0 -28 -29 -43q38 -21 99 -21q32 0 53 8.5t29 24.5t10 26.5t2 24.5q0 15 -2.5 26t-10.5 26.5t-29 24t-54 8.5h-42q-9 0 -13 0.5t-8 4t-4 10.5q0 15 22 16l44 2q32 1 57 25
t25 58q0 55 -77 55q-52 0 -86 -20q5 -2 11.5 -5.5t14 -14t7.5 -23.5q0 -22 -16.5 -34.5t-39.5 -12.5q-22 0 -39 12.5t-17 34.5q0 41 45.5 67t122.5 26q87 0 134.5 -24.5t47.5 -61.5q0 -67 -97 -97q64 -14 94 -42t30 -61zM1077 0q-41 2 -136 2q-108 0 -144 -2v36h95v57h-247
v36l265 260q10 10 29 10h27q16 0 21 -4t5 -18v-248h85v-36h-85v-57h85v-36zM955 666q0 -13 -10 -25l-554 -646q-11 -14 -30 -14q-16 0 -27.5 11.5t-11.5 27.5q0 14 9 25l555 647q11 13 30 13q16 0 27.5 -11.5t11.5 -27.5zM903 129v199l-203 -199h203z" />
    <glyph glyph-name="questiondown" unicode="&#xbf;" horiz-adv-x="656" 
d="M392 416q0 -33 -24 -58t-60 -25q-33 0 -58 24t-25 60q0 33 24 58t60 25q33 0 58 -24t25 -60zM570 -72q0 -27 -11 -48t-27 -34t-41.5 -22.5t-46 -14t-50.5 -7t-45 -3t-38 -0.5q-98 0 -151 23q-34 15 -55 43t-21 64q0 29 14.5 53t27 33.5t32.5 20.5q115 64 115 172v22
q0 23 6.5 28.5t28.5 5.5q26 0 31 -7t5 -41q0 -128 -88 -217q-11 -12 -16 -19t-8.5 -21t-3.5 -37q0 -44 14 -58t73 -14q89 0 140 20q-29 20 -29 59q0 32 20.5 52t51.5 20q30 0 51 -19.5t21 -53.5z" />
    <glyph glyph-name="Agrave" unicode="&#xc0;" horiz-adv-x="1029" 
d="M968 0l-166 4q-127 0 -182 -4v60h88l-66 142h-326l-57 -125l-5 -11q0 -6 63 -6h21v-60l-147 4q-44 0 -132 -4v60h39q31 0 42 1q15 1 18.5 3.5t8.5 11.5l276 603q6 13 15 19.5t15.5 7.5t19.5 1h41q14 0 20.5 -1t15 -7.5t14.5 -20.5l284 -618h100v-60zM615 262l-136 296
l-136 -296h272zM604 812l-26 -65l-185 41q-48 12 -54 50q-9 31 10.5 57t51.5 26q16 0 37 -11z" />
    <glyph glyph-name="Aacute" unicode="&#xc1;" horiz-adv-x="1029" 
d="M968 0l-166 4q-127 0 -182 -4v60h88l-66 142h-326l-57 -125l-5 -11q0 -6 63 -6h21v-60l-147 4q-44 0 -132 -4v60h39q31 0 42 1q15 1 18.5 3.5t8.5 11.5l276 603q6 13 15 19.5t15.5 7.5t19.5 1h41q14 0 20.5 -1t15 -7.5t14.5 -20.5l284 -618h100v-60zM615 262l-136 296
l-136 -296h272zM691 838q-6 -38 -54 -50l-185 -41l-26 65l166 98q21 11 37 11q32 0 51.5 -26t10.5 -57z" />
    <glyph glyph-name="Acircumflex" unicode="&#xc2;" horiz-adv-x="1029" 
d="M968 0l-166 4q-127 0 -182 -4v60h88l-66 142h-326l-57 -125l-5 -11q0 -6 63 -6h21v-60l-147 4q-44 0 -132 -4v60h39q31 0 42 1q15 1 18.5 3.5t8.5 11.5l276 603q6 13 15 19.5t15.5 7.5t19.5 1h41q14 0 20.5 -1t15 -7.5t14.5 -20.5l284 -618h100v-60zM615 262l-136 296
l-136 -296h272zM690 761l-16 -24l-160 58l-160 -58l-14 24l175 141z" />
    <glyph glyph-name="Atilde" unicode="&#xc3;" horiz-adv-x="1029" 
d="M968 0l-166 4q-127 0 -182 -4v60h88l-66 142h-326l-57 -125l-5 -11q0 -6 63 -6h21v-60l-147 4q-44 0 -132 -4v60h39q31 0 42 1q15 1 18.5 3.5t8.5 11.5l276 603q6 13 15 19.5t15.5 7.5t19.5 1h41q14 0 20.5 -1t15 -7.5t14.5 -20.5l284 -618h100v-60zM615 262l-136 296
l-136 -296h272zM740 843q-4 -3 -17 -15t-16 -15q-29 -27 -44 -40t-38 -24.5t-46 -11.5q-29 0 -71 22q-51 28 -82 28q-50 0 -102 -50l-34 38q4 3 17 15t16 15q29 27 44 40t38 24.5t46 11.5q29 0 71 -22q51 -28 82 -28q50 0 102 50z" />
    <glyph glyph-name="Adieresis" unicode="&#xc4;" horiz-adv-x="1029" 
d="M968 0l-166 4q-127 0 -182 -4v60h88l-66 142h-326l-57 -125l-5 -11q0 -6 63 -6h21v-60l-147 4q-44 0 -132 -4v60h39q31 0 42 1q15 1 18.5 3.5t8.5 11.5l276 603q6 13 15 19.5t15.5 7.5t19.5 1h41q14 0 20.5 -1t15 -7.5t14.5 -20.5l284 -618h100v-60zM615 262l-136 296
l-136 -296h272zM428 811q0 -30 -21.5 -52t-53.5 -22q-31 0 -52.5 22t-21.5 53q0 30 21.5 52.5t52.5 22.5q32 0 53.5 -22t21.5 -54zM751 811q0 -30 -21.5 -52t-53.5 -22q-31 0 -52.5 22t-21.5 53q0 30 21.5 52.5t52.5 22.5q32 0 53.5 -22t21.5 -54z" />
    <glyph glyph-name="Aring" unicode="&#xc5;" horiz-adv-x="1029" 
d="M968 0l-166 4q-127 0 -182 -4v60h88l-66 142h-326l-57 -125l-5 -11q0 -6 63 -6h21v-60l-147 4q-44 0 -132 -4v60h39q31 0 42 1q15 1 18.5 3.5t8.5 11.5l276 603q6 13 15 19.5t15.5 7.5t19.5 1h41q14 0 20.5 -1t15 -7.5t14.5 -20.5l284 -618h100v-60zM615 262l-136 296
l-136 -296h272zM582 791q0 18 -9.5 26t-20.5 9.5t-38 1.5t-38 -1.5t-20.5 -9.5t-9.5 -26t9 -26t20 -9.5t39 -1.5q40 0 54 6.5t14 30.5zM662 790q0 -31 -34 -57t-115 -26q-77 0 -112 26t-35 57q0 34 35 59.5t114 25.5q75 0 111 -25t36 -60z" />
    <glyph glyph-name="AE" unicode="&#xc6;" horiz-adv-x="1236" 
d="M1188 254l-54 -254h-644v60h80v240h-208l-103 -223l-5 -11q0 -6 63 -6h21v-60l-59 2q-59 2 -88 2q-44 0 -132 -4v60h39q31 0 42 1q15 1 18.5 3.5t8.5 11.5l254 550h-56v60h749l36 -227h-71q-15 99 -61.5 133t-143.5 34h-159v-266h82q61 0 90 19t29 81h71v-260h-71
q0 62 -29 81t-90 19h-82v-240h171q112 0 160 43.5t71 150.5h71zM570 360v266h-57l-123 -266h180z" />
    <glyph glyph-name="Ccedilla" unicode="&#xc7;" horiz-adv-x="994" 
d="M908 228q0 -96 -90 -165t-238 -76l20 -1l48 -4q112 -15 112 -91q0 -44 -46 -66.5t-142 -30.5q-28 -2 -84.5 -2t-81.5 -2v51q20 1 62 1.5t65 2.5q28 3 47.5 7.5t29 9t14.5 10.5t5.5 9.5t0.5 9.5q0 21 -20.5 32t-40 12.5t-51.5 1.5v50q-108 4 -192.5 35t-136.5 81
t-78.5 111t-26.5 129q0 71 29.5 134.5t85.5 113.5t145.5 79.5t202.5 29.5q139 0 240 -68l67 57q12 11 27 11q13 0 19 -5t7 -11t1 -18v-213q0 -22 -6 -28t-28 -6h-15q-30 0 -33 17q-11 59 -41 101.5t-69 63.5t-75 30t-71 9q-85 0 -148 -23t-96 -56q-75 -77 -75 -218
q0 -151 77 -218q87 -79 245 -79q41 0 82.5 9.5t83 29.5t69 58.5t29.5 90.5q0 10 6 15t12 5.5t17 0.5q14 0 20 -1t11 -7t5 -19z" />
    <glyph glyph-name="Egrave" unicode="&#xc8;" horiz-adv-x="900" 
d="M852 254l-54 -254h-727v60h106v559h-106v60h707l36 -227h-71q-16 102 -69 134.5t-156 32.5h-188v-237h76q61 0 89.5 19t28.5 81h71v-260h-71q0 62 -28.5 81t-89.5 19h-76v-262h199q113 0 171 39t81 155h71zM539 812l-26 -65l-185 41q-48 12 -54 50q-9 31 10.5 57t51.5 26
q16 0 37 -11z" />
    <glyph glyph-name="Eacute" unicode="&#xc9;" horiz-adv-x="900" 
d="M852 254l-54 -254h-727v60h106v559h-106v60h707l36 -227h-71q-16 102 -69 134.5t-156 32.5h-188v-237h76q61 0 89.5 19t28.5 81h71v-260h-71q0 62 -28.5 81t-89.5 19h-76v-262h199q113 0 171 39t81 155h71zM626 838q-6 -38 -54 -50l-185 -41l-26 65l166 98q21 11 37 11
q32 0 51.5 -26t10.5 -57z" />
    <glyph glyph-name="Ecircumflex" unicode="&#xca;" horiz-adv-x="900" 
d="M852 254l-54 -254h-727v60h106v559h-106v60h707l36 -227h-71q-16 102 -69 134.5t-156 32.5h-188v-237h76q61 0 89.5 19t28.5 81h71v-260h-71q0 62 -28.5 81t-89.5 19h-76v-262h199q113 0 171 39t81 155h71zM625 761l-16 -24l-160 58l-160 -58l-14 24l175 141z" />
    <glyph glyph-name="Edieresis" unicode="&#xcb;" horiz-adv-x="900" 
d="M852 254l-54 -254h-727v60h106v559h-106v60h707l36 -227h-71q-16 102 -69 134.5t-156 32.5h-188v-237h76q61 0 89.5 19t28.5 81h71v-260h-71q0 62 -28.5 81t-89.5 19h-76v-262h199q113 0 171 39t81 155h71zM363 811q0 -30 -21.5 -52t-53.5 -22q-31 0 -52.5 22t-21.5 53
q0 30 21.5 52.5t52.5 22.5q32 0 53.5 -22t21.5 -54zM686 811q0 -30 -21.5 -52t-53.5 -22q-31 0 -52.5 22t-21.5 53q0 30 21.5 52.5t52.5 22.5q32 0 53.5 -22t21.5 -54z" />
    <glyph glyph-name="Igrave" unicode="&#xcc;" horiz-adv-x="506" 
d="M441 0q-55 4 -188 4q-134 0 -189 -4v60h112v566h-112v60q55 -4 189 -4q133 0 188 4v-60h-112v-566h112v-60zM342 812l-26 -65l-185 41q-48 12 -54 50q-9 31 10.5 57t51.5 26q16 0 37 -11z" />
    <glyph glyph-name="Iacute" unicode="&#xcd;" horiz-adv-x="506" 
d="M441 0q-55 4 -188 4q-134 0 -189 -4v60h112v566h-112v60q55 -4 189 -4q133 0 188 4v-60h-112v-566h112v-60zM429 838q-6 -38 -54 -50l-185 -41l-26 65l166 98q21 11 37 11q32 0 51.5 -26t10.5 -57z" />
    <glyph glyph-name="Icircumflex" unicode="&#xce;" horiz-adv-x="506" 
d="M441 0q-55 4 -188 4q-134 0 -189 -4v60h112v566h-112v60q55 -4 189 -4q133 0 188 4v-60h-112v-566h112v-60zM428 761l-16 -24l-160 58l-160 -58l-14 24l175 141z" />
    <glyph glyph-name="Idieresis" unicode="&#xcf;" horiz-adv-x="506" 
d="M441 0q-55 4 -188 4q-134 0 -189 -4v60h112v566h-112v60q55 -4 189 -4q133 0 188 4v-60h-112v-566h112v-60zM166 811q0 -30 -21.5 -52t-53.5 -22q-31 0 -52.5 22t-21.5 53q0 30 21.5 52.5t52.5 22.5q32 0 53.5 -22t21.5 -54zM489 811q0 -30 -21.5 -52t-53.5 -22
q-31 0 -52.5 22t-21.5 53q0 30 21.5 52.5t52.5 22.5q32 0 53.5 -22t21.5 -54z" />
    <glyph glyph-name="Eth" unicode="&#xd0;" horiz-adv-x="1049" 
d="M963 337q0 -152 -112 -244.5t-291 -92.5h-487v60h106v253h-106v60h106v253h-106v60h486q180 0 292 -96.5t112 -252.5zM803 339q0 27 -0.5 44t-6 50.5t-15.5 56t-31.5 50.5t-51 45t-76 29t-105.5 12h-192v-253h199v-60h-199v-253h194q59 0 105 11.5t75.5 27.5t50.5 43.5
t31 49t15.5 54t6 49.5t0.5 44z" />
    <glyph glyph-name="Ntilde" unicode="&#xd1;" horiz-adv-x="1065" 
d="M992 626l-85 -1q-15 -1 -18 -4t-3 -17v-568q0 -23 -6.5 -29.5t-29.5 -6.5h-6q-16 0 -21.5 2t-14.5 11l-553 562v-493q0 -14 3.5 -17t19.5 -4q12 -1 41 -1h42v-60q-2 0 -27.5 1t-60 2t-57.5 1t-57.5 -1t-60 -2t-27.5 -1v60l85 1q15 1 18 4t3 17v544h-106v60h235
q16 0 21.5 -2t14.5 -11l466 -473v404q0 14 -3.5 17t-19.5 4q-12 1 -41 1h-42v60q2 0 27.5 -1t60 -2t57.5 -1t57.5 1t60 2t27.5 1v-60zM758 843q-4 -3 -17 -15t-16 -15q-29 -27 -44 -40t-38 -24.5t-46 -11.5q-29 0 -71 22q-51 28 -82 28q-50 0 -102 -50l-34 38q4 3 17 15
t16 15q29 27 44 40t38 24.5t46 11.5q29 0 71 -22q51 -28 82 -28q50 0 102 50z" />
    <glyph glyph-name="Ograve" unicode="&#xd2;" horiz-adv-x="1032" 
d="M946 338q0 -70 -26.5 -132t-77.5 -112t-135.5 -79t-191.5 -29q-108 0 -192.5 29t-135.5 79t-77 112t-26 132q0 72 26.5 136.5t78 115.5t135.5 80.5t191 29.5t191 -29.5t135.5 -80.5t78 -115t26.5 -137zM779 355q0 148 -67 216q-73 73 -197 73q-126 0 -200 -76
q-64 -67 -64 -213q0 -157 69 -233q68 -77 195 -77q133 0 204 87q60 75 60 223zM605 812l-26 -65l-185 41q-48 12 -54 50q-9 31 10.5 57t51.5 26q16 0 37 -11z" />
    <glyph glyph-name="Oacute" unicode="&#xd3;" horiz-adv-x="1032" 
d="M946 338q0 -70 -26.5 -132t-77.5 -112t-135.5 -79t-191.5 -29q-108 0 -192.5 29t-135.5 79t-77 112t-26 132q0 72 26.5 136.5t78 115.5t135.5 80.5t191 29.5t191 -29.5t135.5 -80.5t78 -115t26.5 -137zM779 355q0 148 -67 216q-73 73 -197 73q-126 0 -200 -76
q-64 -67 -64 -213q0 -157 69 -233q68 -77 195 -77q133 0 204 87q60 75 60 223zM692 838q-6 -38 -54 -50l-185 -41l-26 65l166 98q21 11 37 11q32 0 51.5 -26t10.5 -57z" />
    <glyph glyph-name="Ocircumflex" unicode="&#xd4;" horiz-adv-x="1032" 
d="M946 338q0 -70 -26.5 -132t-77.5 -112t-135.5 -79t-191.5 -29q-108 0 -192.5 29t-135.5 79t-77 112t-26 132q0 72 26.5 136.5t78 115.5t135.5 80.5t191 29.5t191 -29.5t135.5 -80.5t78 -115t26.5 -137zM779 355q0 148 -67 216q-73 73 -197 73q-126 0 -200 -76
q-64 -67 -64 -213q0 -157 69 -233q68 -77 195 -77q133 0 204 87q60 75 60 223zM691 761l-16 -24l-160 58l-160 -58l-14 24l175 141z" />
    <glyph glyph-name="Otilde" unicode="&#xd5;" horiz-adv-x="1032" 
d="M946 338q0 -70 -26.5 -132t-77.5 -112t-135.5 -79t-191.5 -29q-108 0 -192.5 29t-135.5 79t-77 112t-26 132q0 72 26.5 136.5t78 115.5t135.5 80.5t191 29.5t191 -29.5t135.5 -80.5t78 -115t26.5 -137zM779 355q0 148 -67 216q-73 73 -197 73q-126 0 -200 -76
q-64 -67 -64 -213q0 -157 69 -233q68 -77 195 -77q133 0 204 87q60 75 60 223zM741 843q-3 -3 -16 -15t-17 -15q-29 -27 -44 -40t-38 -24.5t-46 -11.5q-29 0 -71 22q-51 28 -82 28q-50 0 -102 -50l-34 38q3 3 16 15t17 15q29 27 44 40t38 24.5t46 11.5q29 0 71 -22
q51 -28 82 -28q50 0 102 50z" />
    <glyph glyph-name="Odieresis" unicode="&#xd6;" horiz-adv-x="1032" 
d="M946 338q0 -70 -26.5 -132t-77.5 -112t-135.5 -79t-191.5 -29q-108 0 -192.5 29t-135.5 79t-77 112t-26 132q0 72 26.5 136.5t78 115.5t135.5 80.5t191 29.5t191 -29.5t135.5 -80.5t78 -115t26.5 -137zM779 355q0 148 -67 216q-73 73 -197 73q-126 0 -200 -76
q-64 -67 -64 -213q0 -157 69 -233q68 -77 195 -77q133 0 204 87q60 75 60 223zM429 811q0 -30 -21.5 -52t-53.5 -22q-31 0 -52.5 22t-21.5 53q0 30 21.5 52.5t52.5 22.5q32 0 53.5 -22t21.5 -54zM752 811q0 -30 -21.5 -52t-53.5 -22q-31 0 -52.5 22t-21.5 53q0 30 21.5 52.5
t52.5 22.5q32 0 53.5 -22t21.5 -54z" />
    <glyph glyph-name="multiply" unicode="&#xd7;" horiz-adv-x="1069" 
d="M852 568q27 -28 -9 -64l-254 -253l254 -254q36 -36 8 -65q-28 -27 -64 9l-253 254l-254 -254q-36 -36 -65 -8q-27 28 9 64l254 254l-254 253q-36 36 -8 65q28 27 64 -9l254 -254l253 254q36 36 65 8z" />
    <glyph glyph-name="Oslash" unicode="&#xd8;" horiz-adv-x="1069" 
d="M983 339q0 -70 -27 -131.5t-79.5 -112t-141 -80t-202.5 -29.5q-125 0 -226 38l-74 -91l-43 36l65 80q-84 49 -127.5 124t-43.5 166q0 69 26 131.5t78 115t141.5 83.5t204.5 31q123 0 225 -39l75 92l43 -36l-67 -82q61 -34 101.5 -86.5t56 -104.5t15.5 -105zM714 608
q-72 41 -181 41q-61 0 -109.5 -13t-79 -32t-52 -49.5t-32 -55t-16.5 -60.5t-6.5 -54t-0.5 -46q0 -162 70 -227zM830 339q0 171 -72 234l-406 -496q71 -40 182 -40q61 0 109 12.5t78.5 30.5t52.5 47.5t32.5 53.5t16 58.5t6.5 53t1 46.5z" />
    <glyph glyph-name="Ugrave" unicode="&#xd9;" horiz-adv-x="1047" 
d="M974 626l-85 -1q-15 -1 -18 -4t-3 -17v-373q0 -46 -18.5 -88t-56 -78t-103.5 -57.5t-152 -21.5q-176 0 -268.5 71t-92.5 175v394h-106v60q59 -4 183 -4l182 4v-60h-106v-397q0 -38 8 -67t29 -57t65 -43.5t109 -15.5q108 0 176 44.5t68 142.5v371q0 14 -3.5 17t-19.5 4
q-12 1 -41 1h-42v60q56 -4 148 -4q24 0 59.5 1t61 2t26.5 1v-60zM644 812l-26 -65l-185 41q-48 12 -54 50q-9 31 10.5 57t51.5 26q16 0 37 -11z" />
    <glyph glyph-name="Uacute" unicode="&#xda;" horiz-adv-x="1047" 
d="M974 626l-85 -1q-15 -1 -18 -4t-3 -17v-373q0 -46 -18.5 -88t-56 -78t-103.5 -57.5t-152 -21.5q-176 0 -268.5 71t-92.5 175v394h-106v60q59 -4 183 -4l182 4v-60h-106v-397q0 -38 8 -67t29 -57t65 -43.5t109 -15.5q108 0 176 44.5t68 142.5v371q0 14 -3.5 17t-19.5 4
q-12 1 -41 1h-42v60q56 -4 148 -4q24 0 59.5 1t61 2t26.5 1v-60zM731 838q-6 -38 -54 -50l-185 -41l-26 65l166 98q21 11 37 11q32 0 51.5 -26t10.5 -57z" />
    <glyph glyph-name="Ucircumflex" unicode="&#xdb;" horiz-adv-x="1047" 
d="M974 626l-85 -1q-15 -1 -18 -4t-3 -17v-373q0 -46 -18.5 -88t-56 -78t-103.5 -57.5t-152 -21.5q-176 0 -268.5 71t-92.5 175v394h-106v60q59 -4 183 -4l182 4v-60h-106v-397q0 -38 8 -67t29 -57t65 -43.5t109 -15.5q108 0 176 44.5t68 142.5v371q0 14 -3.5 17t-19.5 4
q-12 1 -41 1h-42v60q56 -4 148 -4q24 0 59.5 1t61 2t26.5 1v-60zM730 761l-16 -24l-160 58l-160 -58l-14 24l175 141z" />
    <glyph glyph-name="Udieresis" unicode="&#xdc;" horiz-adv-x="1047" 
d="M974 626l-85 -1q-15 -1 -18 -4t-3 -17v-373q0 -46 -18.5 -88t-56 -78t-103.5 -57.5t-152 -21.5q-176 0 -268.5 71t-92.5 175v394h-106v60q59 -4 183 -4l182 4v-60h-106v-397q0 -38 8 -67t29 -57t65 -43.5t109 -15.5q108 0 176 44.5t68 142.5v371q0 14 -3.5 17t-19.5 4
q-12 1 -41 1h-42v60q56 -4 148 -4q24 0 59.5 1t61 2t26.5 1v-60zM468 811q0 -30 -21.5 -52t-53.5 -22q-31 0 -52.5 22t-21.5 53q0 30 21.5 52.5t52.5 22.5q32 0 53.5 -22t21.5 -54zM791 811q0 -30 -21.5 -52t-53.5 -22q-31 0 -52.5 22t-21.5 53q0 30 21.5 52.5t52.5 22.5
q32 0 53.5 -22t21.5 -54z" />
    <glyph glyph-name="Yacute" unicode="&#xdd;" horiz-adv-x="1029" 
d="M988 626h-41q-30 0 -42 -1q-18 -2 -22 -3.5t-11 -8.5l-285 -338v-215h106v-60l-179 4l-179 -4v60h106v214l-298 352h-104v60l172 -4q139 0 191 4v-60h-68l221 -261l216 257q-29 4 -64 4v60l150 -4q71 0 131 4v-60zM691 838q-6 -38 -54 -50l-185 -41l-26 65l166 98
q21 11 37 11q32 0 51.5 -26t10.5 -57z" />
    <glyph glyph-name="Thorn" unicode="&#xde;" horiz-adv-x="863" 
d="M775 374q0 -24 -6.5 -47.5t-26 -51.5t-50 -48.5t-83.5 -34.5t-121 -14h-168v-118h106v-59l-175 3l-175 -3v59h106v566h-106v59l175 -3l175 3v-59h-106v-56h164q73 0 129 -15.5t85.5 -37.5t48 -51t23.5 -50.5t5 -41.5zM615 375q0 38 -14 65.5t-32 40.5t-43.5 20t-38 8
t-26.5 1h-141v-272h126q78 0 122 34q47 36 47 103z" />
    <glyph glyph-name="germandbls" unicode="&#xdf;" horiz-adv-x="708" 
d="M660 180q0 -85 -66.5 -136t-172.5 -51q-60 0 -92 29.5t-32 66.5q0 25 16.5 42t42.5 17q24 0 41 -15.5t17 -42.5q0 -24 -13 -38l-2 -4q7 -4 19 -4q108 0 108 136q0 205 -172 213q-21 1 -21 25q0 17 7 21t24 5q124 5 124 115q0 91 -113 91q-41 0 -67 -10.5t-35.5 -29
t-12 -30t-2.5 -28.5v-552q-31 4 -70 4q-86 0 -122 -4v60h69v324h-69v60h69v108q0 74 66 111.5t175 37.5q128 0 187 -43t59 -99q0 -22 -7.5 -44t-35.5 -51.5t-75 -47.5q72 -30 114 -94t42 -142z" />
    <glyph glyph-name="agrave" unicode="&#xe0;" horiz-adv-x="675" 
d="M659 30q0 -14 -5.5 -21t-11.5 -8t-19 -1h-66q-103 0 -110 61q-48 -68 -181 -68q-15 0 -28 0.5t-43 3.5t-53 11.5t-47 21.5t-37.5 35.5t-13.5 52.5t16.5 54t46.5 39t58.5 26t66 17t56 8t39.5 4q24 2 47.5 2.5t36.5 1t15 0.5v21q0 113 -130 113q-77 0 -77 -8l2 -4
q12 -20 12 -42q0 -32 -21.5 -52t-50.5 -20q-28 0 -50 19.5t-22 53.5q0 30 16.5 51t37 31t54.5 15.5t52.5 6t47.5 0.5q131 0 195 -45.5t64 -117.5v-221q18 -11 63 -11q16 0 22.5 -1t12 -8t5.5 -21zM426 135v90q-95 -4 -147 -19q-106 -28 -106 -87q0 -33 32.5 -54t81.5 -21
q56 0 96 21q20 10 30 23.5t11.5 22.5t1.5 24zM424 559l-37 -60l-175 73q-45 19 -45 59q0 25 19 48t47 23q24 0 44 -18z" />
    <glyph glyph-name="aacute" unicode="&#xe1;" horiz-adv-x="675" 
d="M659 30q0 -14 -5.5 -21t-11.5 -8t-19 -1h-66q-103 0 -110 61q-48 -68 -181 -68q-15 0 -28 0.5t-43 3.5t-53 11.5t-47 21.5t-37.5 35.5t-13.5 52.5t16.5 54t46.5 39t58.5 26t66 17t56 8t39.5 4q24 2 47.5 2.5t36.5 1t15 0.5v21q0 113 -130 113q-77 0 -77 -8l2 -4
q12 -20 12 -42q0 -32 -21.5 -52t-50.5 -20q-28 0 -50 19.5t-22 53.5q0 30 16.5 51t37 31t54.5 15.5t52.5 6t47.5 0.5q131 0 195 -45.5t64 -117.5v-221q18 -11 63 -11q16 0 22.5 -1t12 -8t5.5 -21zM426 135v90q-95 -4 -147 -19q-106 -28 -106 -87q0 -33 32.5 -54t81.5 -21
q56 0 96 21q20 10 30 23.5t11.5 22.5t1.5 24zM509 631q0 -40 -45 -59l-175 -73l-37 60l147 125q20 18 44 18q28 0 47 -23t19 -48z" />
    <glyph glyph-name="acircumflex" unicode="&#xe2;" horiz-adv-x="675" 
d="M659 30q0 -14 -5.5 -21t-11.5 -8t-19 -1h-66q-103 0 -110 61q-48 -68 -181 -68q-15 0 -28 0.5t-43 3.5t-53 11.5t-47 21.5t-37.5 35.5t-13.5 52.5t16.5 54t46.5 39t58.5 26t66 17t56 8t39.5 4q24 2 47.5 2.5t36.5 1t15 0.5v21q0 113 -130 113q-77 0 -77 -8l2 -4
q12 -20 12 -42q0 -32 -21.5 -52t-50.5 -20q-28 0 -50 19.5t-22 53.5q0 30 16.5 51t37 31t54.5 15.5t52.5 6t47.5 0.5q131 0 195 -45.5t64 -117.5v-221q18 -11 63 -11q16 0 22.5 -1t12 -8t5.5 -21zM426 135v90q-95 -4 -147 -19q-106 -28 -106 -87q0 -33 32.5 -54t81.5 -21
q56 0 96 21q20 10 30 23.5t11.5 22.5t1.5 24zM515 519l-20 -22l-158 99l-158 -99l-18 22l177 185z" />
    <glyph glyph-name="atilde" unicode="&#xe3;" horiz-adv-x="675" 
d="M659 30q0 -14 -5.5 -21t-11.5 -8t-19 -1h-66q-103 0 -110 61q-48 -68 -181 -68q-15 0 -28 0.5t-43 3.5t-53 11.5t-47 21.5t-37.5 35.5t-13.5 52.5t16.5 54t46.5 39t58.5 26t66 17t56 8t39.5 4q24 2 47.5 2.5t36.5 1t15 0.5v21q0 113 -130 113q-77 0 -77 -8l2 -4
q12 -20 12 -42q0 -32 -21.5 -52t-50.5 -20q-28 0 -50 19.5t-22 53.5q0 30 16.5 51t37 31t54.5 15.5t52.5 6t47.5 0.5q131 0 195 -45.5t64 -117.5v-221q18 -11 63 -11q16 0 22.5 -1t12 -8t5.5 -21zM426 135v90q-95 -4 -147 -19q-106 -28 -106 -87q0 -33 32.5 -54t81.5 -21
q56 0 96 21q20 10 30 23.5t11.5 22.5t1.5 24zM563 635q-3 -3 -16 -15t-17 -15q-29 -27 -44 -40t-38 -24.5t-46 -11.5q-29 0 -71 22q-51 28 -82 28q-50 0 -102 -50l-34 38q3 3 16 15t17 15q29 27 44 40t38 24.5t46 11.5q29 0 71 -22q51 -28 82 -28q50 0 102 50z" />
    <glyph glyph-name="adieresis" unicode="&#xe4;" horiz-adv-x="675" 
d="M659 30q0 -14 -5.5 -21t-11.5 -8t-19 -1h-66q-103 0 -110 61q-48 -68 -181 -68q-15 0 -28 0.5t-43 3.5t-53 11.5t-47 21.5t-37.5 35.5t-13.5 52.5t16.5 54t46.5 39t58.5 26t66 17t56 8t39.5 4q24 2 47.5 2.5t36.5 1t15 0.5v21q0 113 -130 113q-77 0 -77 -8l2 -4
q12 -20 12 -42q0 -32 -21.5 -52t-50.5 -20q-28 0 -50 19.5t-22 53.5q0 30 16.5 51t37 31t54.5 15.5t52.5 6t47.5 0.5q131 0 195 -45.5t64 -117.5v-221q18 -11 63 -11q16 0 22.5 -1t12 -8t5.5 -21zM426 135v90q-95 -4 -147 -19q-106 -28 -106 -87q0 -33 32.5 -54t81.5 -21
q56 0 96 21q20 10 30 23.5t11.5 22.5t1.5 24zM276 600q0 -30 -21.5 -52t-53.5 -22q-31 0 -52.5 22t-21.5 53q0 30 21.5 52.5t52.5 22.5q32 0 53.5 -22t21.5 -54zM549 600q0 -30 -21.5 -52t-53.5 -22q-31 0 -52.5 22t-21.5 53q0 30 21.5 52.5t52.5 22.5q32 0 53.5 -22
t21.5 -54z" />
    <glyph glyph-name="aring" unicode="&#xe5;" horiz-adv-x="675" 
d="M659 30q0 -14 -5.5 -21t-11.5 -8t-19 -1h-66q-103 0 -110 61q-48 -68 -181 -68q-15 0 -28 0.5t-43 3.5t-53 11.5t-47 21.5t-37.5 35.5t-13.5 52.5t16.5 54t46.5 39t58.5 26t66 17t56 8t39.5 4q24 2 47.5 2.5t36.5 1t15 0.5v21q0 113 -130 113q-77 0 -77 -8l2 -4
q12 -20 12 -42q0 -32 -21.5 -52t-50.5 -20q-28 0 -50 19.5t-22 53.5q0 30 16.5 51t37 31t54.5 15.5t52.5 6t47.5 0.5q131 0 195 -45.5t64 -117.5v-221q18 -11 63 -11q16 0 22.5 -1t12 -8t5.5 -21zM426 135v90q-95 -4 -147 -19q-106 -28 -106 -87q0 -33 32.5 -54t81.5 -21
q56 0 96 21q20 10 30 23.5t11.5 22.5t1.5 24zM405 614q0 18 -9.5 26t-20.5 9.5t-38 1.5t-38 -1.5t-20.5 -9.5t-9.5 -26t9 -26t20 -9.5t39 -1.5q40 0 54 6.5t14 30.5zM485 613q0 -31 -34 -57t-115 -26q-77 0 -112 26t-35 57q0 34 35 59.5t114 25.5q75 0 111 -25t36 -60z" />
    <glyph glyph-name="ae" unicode="&#xe6;" horiz-adv-x="994" 
d="M946 113q0 -5 -4.5 -17t-19 -30.5t-37 -34t-62.5 -27t-91 -11.5q-131 0 -215 61q-56 -61 -237 -61q-223 0 -223 118q0 49 42.5 75t118.5 43q92 19 192 19h21v43q0 113 -130 113q-77 0 -77 -8l2 -4q12 -20 12 -42q0 -32 -21.5 -52t-50.5 -20q-28 0 -50 19.5t-22 53.5
q0 30 16.5 51t37 31t54.5 15.5t52.5 6t47.5 0.5q142 0 213 -59q75 59 200 59q113 0 172 -58q59 -59 59 -161q0 -22 -8 -27t-28 -5h-348q6 -78 51 -114q52 -41 137 -41q93 0 125 67q6 14 11.5 17t23.5 3q36 0 36 -23zM845 251q-4 153 -130 153q-44 0 -75.5 -14t-47.5 -38.5
t-22.5 -48.5t-7.5 -52h283zM451 125q0 11 -3 17q-13 33 -16 59q-85 -2 -145 -17q-101 -24 -101 -72q0 -29 30 -48.5t78 -19.5q16 0 35.5 2t50.5 9t51 25t20 45z" />
    <glyph glyph-name="ccedilla" unicode="&#xe7;" horiz-adv-x="619" 
d="M571 113q0 -13 -21.5 -43t-57.5 -49q-55 -28 -146 -28q-144 0 -218 67.5t-74 161.5q0 29 7.5 57.5t28 61t52.5 57.5t86.5 41t124.5 16q22 0 38 -0.5t43 -3.5t45.5 -10t37.5 -17.5t29 -29.5t10 -43q0 -34 -22 -53.5t-50 -19.5q-29 0 -50.5 20t-21.5 52q0 26 13 45
q-28 4 -69 4q-49 0 -81.5 -14t-48.5 -40.5t-22 -54.5t-6 -65q0 -176 172 -176q34 0 59 7.5t40 21.5t20.5 22t12.5 21q4 9 10.5 11t22.5 2q36 0 36 -21zM554 -109q0 -44 -46 -66.5t-142 -30.5q-28 -2 -84.5 -2t-81.5 -2v51q20 1 62 1.5t65 2.5q28 3 47.5 7.5t29 9t14.5 10.5
t5.5 9.5t0.5 9.5q0 21 -20.5 32t-40 12.5t-51.5 1.5v52l82 -3l48 -4q112 -15 112 -91z" />
    <glyph glyph-name="egrave" unicode="&#xe8;" horiz-adv-x="634" 
d="M586 113q0 -15 -23.5 -45t-64.5 -48q-58 -27 -145 -27q-151 0 -229 68.5t-78 164.5q0 92 73 160.5t216 68.5q111 0 173 -47q78 -58 78 -173q0 -15 -5.5 -22t-11.5 -8t-19 -1h-359q6 -155 181 -155q110 0 145 74q7 13 33 13q36 0 36 -23zM486 251q-8 153 -151 153
q-141 0 -145 -153h296zM403 559l-37 -60l-175 73q-45 19 -45 59q0 25 19 48t47 23q24 0 44 -18z" />
    <glyph glyph-name="eacute" unicode="&#xe9;" horiz-adv-x="634" 
d="M586 113q0 -15 -23.5 -45t-64.5 -48q-58 -27 -145 -27q-151 0 -229 68.5t-78 164.5q0 92 73 160.5t216 68.5q111 0 173 -47q78 -58 78 -173q0 -15 -5.5 -22t-11.5 -8t-19 -1h-359q6 -155 181 -155q110 0 145 74q7 13 33 13q36 0 36 -23zM486 251q-8 153 -151 153
q-141 0 -145 -153h296zM488 631q0 -40 -45 -59l-175 -73l-37 60l147 125q20 18 44 18q28 0 47 -23t19 -48z" />
    <glyph glyph-name="ecircumflex" unicode="&#xea;" horiz-adv-x="634" 
d="M586 113q0 -15 -23.5 -45t-64.5 -48q-58 -27 -145 -27q-151 0 -229 68.5t-78 164.5q0 92 73 160.5t216 68.5q111 0 173 -47q78 -58 78 -173q0 -15 -5.5 -22t-11.5 -8t-19 -1h-359q6 -155 181 -155q110 0 145 74q7 13 33 13q36 0 36 -23zM486 251q-8 153 -151 153
q-141 0 -145 -153h296zM494 519l-20 -22l-158 99l-158 -99l-18 22l177 185z" />
    <glyph glyph-name="edieresis" unicode="&#xeb;" horiz-adv-x="634" 
d="M586 113q0 -15 -23.5 -45t-64.5 -48q-58 -27 -145 -27q-151 0 -229 68.5t-78 164.5q0 92 73 160.5t216 68.5q111 0 173 -47q78 -58 78 -173q0 -15 -5.5 -22t-11.5 -8t-19 -1h-359q6 -155 181 -155q110 0 145 74q7 13 33 13q36 0 36 -23zM486 251q-8 153 -151 153
q-141 0 -145 -153h296zM255 600q0 -30 -21.5 -52t-53.5 -22q-31 0 -52.5 22t-21.5 53q0 30 21.5 52.5t52.5 22.5q32 0 53.5 -22t21.5 -54zM528 600q0 -30 -21.5 -52t-53.5 -22q-31 0 -52.5 22t-21.5 53q0 30 21.5 52.5t52.5 22.5q32 0 53.5 -22t21.5 -54z" />
    <glyph glyph-name="igrave" unicode="&#xec;" horiz-adv-x="394" 
d="M335 0l-125 4l-130 -4v60h69v284q0 28 -10 33.5t-56 5.5v60l189 8v-391h63v-60zM283 559l-37 -60l-175 73q-45 19 -45 59q0 25 19 48t47 23q24 0 44 -18z" />
    <glyph glyph-name="iacute" unicode="&#xed;" horiz-adv-x="394" 
d="M335 0l-125 4l-130 -4v60h69v284q0 28 -10 33.5t-56 5.5v60l189 8v-391h63v-60zM368 631q0 -40 -45 -59l-175 -73l-37 60l147 125q20 18 44 18q28 0 47 -23t19 -48z" />
    <glyph glyph-name="icircumflex" unicode="&#xee;" horiz-adv-x="394" 
d="M335 0l-125 4l-130 -4v60h69v284q0 28 -10 33.5t-56 5.5v60l189 8v-391h63v-60zM374 519l-20 -22l-158 99l-158 -99l-18 22l177 185z" />
    <glyph glyph-name="idieresis" unicode="&#xef;" horiz-adv-x="394" 
d="M335 0l-125 4l-130 -4v60h69v284q0 28 -10 33.5t-56 5.5v60l189 8v-391h63v-60zM135 600q0 -30 -21.5 -52t-53.5 -22q-31 0 -52.5 22t-21.5 53q0 30 21.5 52.5t52.5 22.5q32 0 53.5 -22t21.5 -54zM408 600q0 -30 -21.5 -52t-53.5 -22q-31 0 -52.5 22t-21.5 53
q0 30 21.5 52.5t52.5 22.5q32 0 53.5 -22t21.5 -54z" />
    <glyph glyph-name="eth" unicode="&#xf0;" 
d="M645 222q0 -102 -79 -165.5t-221 -63.5q-146 0 -222.5 65.5t-76.5 159.5q0 100 78 168.5t218 68.5q92 0 153 -51q-20 98 -102 167l-133 -59l-24 55l99 44q-92 51 -204 56l5 52q63 0 106 -2t106 -15t108 -37l129 57l24 -55l-95 -42l12 -12q22 -23 36.5 -40.5t37 -52
t34 -78.5t11.5 -94v-126zM501 220q0 88 -41.5 136t-115.5 48q-80 0 -120 -44q-34 -39 -34 -131q0 -26 1 -42t9 -45.5t23.5 -47t47 -31.5t75.5 -14q42 0 73 13t46 30.5t24 44t10.5 43.5t1.5 40z" />
    <glyph glyph-name="ntilde" unicode="&#xf1;" horiz-adv-x="769" 
d="M720 0q-64 4 -134 4l-134 -4v60h69v245q0 54 -16.5 74.5t-53.5 20.5q-36 0 -73.5 -13t-69.5 -49.5t-32 -90.5v-187h69v-60q-64 4 -134 4l-134 -4v60h69v284q0 28 -10.5 33.5t-58.5 5.5v60l184 8v-102q15 22 35 41.5t67.5 40t106.5 20.5q37 0 66 -5.5t57 -21t43 -47.5
t15 -79v-238h69v-60zM610 635q-4 -3 -17 -15t-16 -15q-29 -27 -44 -40t-38 -24.5t-46 -11.5q-29 0 -71 22q-51 28 -82 28q-50 0 -102 -50l-34 38q4 3 17 15t16 15q29 27 44 40t38 24.5t46 11.5q29 0 71 -22q51 -28 82 -28q50 0 102 50z" />
    <glyph glyph-name="ograve" unicode="&#xf2;" 
d="M646 218q0 -94 -75.5 -159.5t-224.5 -65.5q-148 0 -224 65.5t-76 159.5q0 44 17 85t51.5 75.5t94 55.5t137.5 21q77 0 137 -20.5t94.5 -55.5t51.5 -75.5t17 -85.5zM502 230q0 32 -1 49.5t-9 45t-23.5 42t-46.5 26t-76 11.5t-76 -11.5t-46.5 -26t-23.5 -42t-9 -45
t-1 -49.5q0 -24 0.5 -37t3.5 -35.5t8.5 -35t17 -28.5t27.5 -24.5t41.5 -14.5t57.5 -6t57.5 6t41.5 14.5t27.5 24.5t17 28.5t8.5 35t3.5 35.5t0.5 37zM433 559l-37 -60l-175 73q-45 19 -45 59q0 25 19 48t47 23q24 0 44 -18z" />
    <glyph glyph-name="oacute" unicode="&#xf3;" 
d="M646 218q0 -94 -75.5 -159.5t-224.5 -65.5q-148 0 -224 65.5t-76 159.5q0 44 17 85t51.5 75.5t94 55.5t137.5 21q77 0 137 -20.5t94.5 -55.5t51.5 -75.5t17 -85.5zM502 230q0 32 -1 49.5t-9 45t-23.5 42t-46.5 26t-76 11.5t-76 -11.5t-46.5 -26t-23.5 -42t-9 -45
t-1 -49.5q0 -24 0.5 -37t3.5 -35.5t8.5 -35t17 -28.5t27.5 -24.5t41.5 -14.5t57.5 -6t57.5 6t41.5 14.5t27.5 24.5t17 28.5t8.5 35t3.5 35.5t0.5 37zM518 631q0 -40 -45 -59l-175 -73l-37 60l147 125q20 18 44 18q28 0 47 -23t19 -48z" />
    <glyph glyph-name="ocircumflex" unicode="&#xf4;" 
d="M646 218q0 -94 -75.5 -159.5t-224.5 -65.5q-148 0 -224 65.5t-76 159.5q0 44 17 85t51.5 75.5t94 55.5t137.5 21q77 0 137 -20.5t94.5 -55.5t51.5 -75.5t17 -85.5zM502 230q0 32 -1 49.5t-9 45t-23.5 42t-46.5 26t-76 11.5t-76 -11.5t-46.5 -26t-23.5 -42t-9 -45
t-1 -49.5q0 -24 0.5 -37t3.5 -35.5t8.5 -35t17 -28.5t27.5 -24.5t41.5 -14.5t57.5 -6t57.5 6t41.5 14.5t27.5 24.5t17 28.5t8.5 35t3.5 35.5t0.5 37zM524 519l-20 -22l-158 99l-158 -99l-18 22l177 185z" />
    <glyph glyph-name="otilde" unicode="&#xf5;" 
d="M646 218q0 -94 -75.5 -159.5t-224.5 -65.5q-148 0 -224 65.5t-76 159.5q0 44 17 85t51.5 75.5t94 55.5t137.5 21q77 0 137 -20.5t94.5 -55.5t51.5 -75.5t17 -85.5zM502 230q0 32 -1 49.5t-9 45t-23.5 42t-46.5 26t-76 11.5t-76 -11.5t-46.5 -26t-23.5 -42t-9 -45
t-1 -49.5q0 -24 0.5 -37t3.5 -35.5t8.5 -35t17 -28.5t27.5 -24.5t41.5 -14.5t57.5 -6t57.5 6t41.5 14.5t27.5 24.5t17 28.5t8.5 35t3.5 35.5t0.5 37zM572 635q-4 -3 -17 -15t-16 -15q-29 -27 -44 -40t-38 -24.5t-46 -11.5q-29 0 -71 22q-51 28 -82 28q-50 0 -102 -50l-34 38
q4 3 17 15t16 15q29 27 44 40t38 24.5t46 11.5q29 0 71 -22q51 -28 82 -28q50 0 102 50z" />
    <glyph glyph-name="odieresis" unicode="&#xf6;" 
d="M646 218q0 -94 -75.5 -159.5t-224.5 -65.5q-148 0 -224 65.5t-76 159.5q0 44 17 85t51.5 75.5t94 55.5t137.5 21q77 0 137 -20.5t94.5 -55.5t51.5 -75.5t17 -85.5zM502 230q0 32 -1 49.5t-9 45t-23.5 42t-46.5 26t-76 11.5t-76 -11.5t-46.5 -26t-23.5 -42t-9 -45
t-1 -49.5q0 -24 0.5 -37t3.5 -35.5t8.5 -35t17 -28.5t27.5 -24.5t41.5 -14.5t57.5 -6t57.5 6t41.5 14.5t27.5 24.5t17 28.5t8.5 35t3.5 35.5t0.5 37zM285 600q0 -30 -21.5 -52t-53.5 -22q-31 0 -52.5 22t-21.5 53q0 30 21.5 52.5t52.5 22.5q32 0 53.5 -22t21.5 -54zM558 600
q0 -30 -21.5 -52t-53.5 -22q-31 0 -52.5 22t-21.5 53q0 30 21.5 52.5t52.5 22.5q32 0 53.5 -22t21.5 -54z" />
    <glyph glyph-name="divide" unicode="&#xf7;" horiz-adv-x="1069" 
d="M983 251q0 -40 -51 -40h-797q-51 0 -51 40q0 39 51 39h797q51 0 51 -39zM617 526q0 -33 -24.5 -58t-59.5 -25q-33 0 -58 24.5t-25 59.5q0 33 24.5 58t59.5 25q33 0 58 -24.5t25 -59.5zM617 -26q0 -33 -24.5 -58t-59.5 -25q-33 0 -58 24.5t-25 59.5q0 33 24.5 58t59.5 25
q33 0 58 -24.5t25 -59.5z" />
    <glyph glyph-name="oslash" unicode="&#xf8;" 
d="M646 218q0 -94 -75.5 -159.5t-224.5 -65.5q-68 0 -126 16l-88 -121l-42 30l81 110q-59 27 -92 78t-33 112q0 44 17 85t51.5 75.5t94 55.5t137.5 21q68 0 127 -17l87 119l42 -30l-80 -109q51 -27 81 -69.5t36.5 -72t6.5 -58.5zM436 389q-37 15 -90 15q-41 0 -71.5 -8
t-48.5 -24.5t-29 -32t-15 -41t-5 -40t-1 -39.5q0 -31 1.5 -50t10 -44t25.5 -40zM516 219q0 103 -37 141l-223 -303q36 -13 90 -13q41 0 71.5 7t48.5 22.5t29 29.5t15 38.5t5 38.5t1 39z" />
    <glyph glyph-name="ugrave" unicode="&#xf9;" horiz-adv-x="769" 
d="M720 0l-192 -7v65q-60 -65 -175 -65q-45 0 -77.5 4.5t-64.5 17.5t-48.5 39.5t-16.5 66.5v223q0 28 -10.5 33.5t-58.5 5.5v60l199 8v-341q0 -27 3.5 -38t24.5 -19.5t67 -8.5q62 0 106 28t44 88v184q0 28 -10.5 33.5t-58.5 5.5v60l199 8v-352q0 -28 10.5 -33.5t58.5 -5.5
v-60zM471 559l-37 -60l-175 73q-45 19 -45 59q0 25 19 48t47 23q24 0 44 -18z" />
    <glyph glyph-name="uacute" unicode="&#xfa;" horiz-adv-x="769" 
d="M720 0l-192 -7v65q-60 -65 -175 -65q-45 0 -77.5 4.5t-64.5 17.5t-48.5 39.5t-16.5 66.5v223q0 28 -10.5 33.5t-58.5 5.5v60l199 8v-341q0 -27 3.5 -38t24.5 -19.5t67 -8.5q62 0 106 28t44 88v184q0 28 -10.5 33.5t-58.5 5.5v60l199 8v-352q0 -28 10.5 -33.5t58.5 -5.5
v-60zM556 631q0 -40 -45 -59l-175 -73l-37 60l147 125q20 18 44 18q28 0 47 -23t19 -48z" />
    <glyph glyph-name="ucircumflex" unicode="&#xfb;" horiz-adv-x="769" 
d="M720 0l-192 -7v65q-60 -65 -175 -65q-45 0 -77.5 4.5t-64.5 17.5t-48.5 39.5t-16.5 66.5v223q0 28 -10.5 33.5t-58.5 5.5v60l199 8v-341q0 -27 3.5 -38t24.5 -19.5t67 -8.5q62 0 106 28t44 88v184q0 28 -10.5 33.5t-58.5 5.5v60l199 8v-352q0 -28 10.5 -33.5t58.5 -5.5
v-60zM562 519l-20 -22l-158 99l-158 -99l-18 22l177 185z" />
    <glyph glyph-name="udieresis" unicode="&#xfc;" horiz-adv-x="769" 
d="M720 0l-192 -7v65q-60 -65 -175 -65q-45 0 -77.5 4.5t-64.5 17.5t-48.5 39.5t-16.5 66.5v223q0 28 -10.5 33.5t-58.5 5.5v60l199 8v-341q0 -27 3.5 -38t24.5 -19.5t67 -8.5q62 0 106 28t44 88v184q0 28 -10.5 33.5t-58.5 5.5v60l199 8v-352q0 -28 10.5 -33.5t58.5 -5.5
v-60zM323 600q0 -30 -21.5 -52t-53.5 -22q-31 0 -52.5 22t-21.5 53q0 30 21.5 52.5t52.5 22.5q32 0 53.5 -22t21.5 -54zM596 600q0 -30 -21.5 -52t-53.5 -22q-31 0 -52.5 22t-21.5 53q0 30 21.5 52.5t52.5 22.5q32 0 53.5 -22t21.5 -54z" />
    <glyph glyph-name="yacute" unicode="&#xfd;" horiz-adv-x="731" 
d="M686 384h-21q-23 0 -35 -1q-10 -1 -13 -3.5t-8 -11.5l-230 -438q-38 -72 -100 -101.5t-118 -29.5q-55 0 -90.5 30t-35.5 73q0 33 20 50.5t48 17.5q27 0 47 -18t20 -49q0 -32 -22 -51q5 -2 14 -2q99 0 144 94l30 56l-222 384h-69v60q68 -4 121 -4q59 0 135 4v-60h-45
l147 -256l132 252q-21 4 -45 4v60l105 -4q16 0 37.5 1t37 2t16.5 1v-60zM537 631q0 -40 -45 -59l-175 -73l-37 60l147 125q20 18 44 18q28 0 47 -23t19 -48z" />
    <glyph glyph-name="thorn" unicode="&#xfe;" horiz-adv-x="769" 
d="M713 223q0 -99 -78.5 -164.5t-215.5 -65.5q-86 0 -154 44v-171h69v-60q-64 4 -134 4l-134 -4v60h69v482v239q0 28 -10.5 33.5t-58.5 5.5v60l192 8v-288q77 45 181 45q134 0 204 -67t70 -161zM569 222q0 80 -40 126.5t-110 46.5q-80 0 -137 -46q-12 -11 -14.5 -15.5
t-2.5 -19.5v-194q51 -76 142 -76q71 0 116.5 46.5t45.5 131.5z" />
    <glyph glyph-name="ydieresis" unicode="&#xff;" horiz-adv-x="731" 
d="M686 384h-21q-23 0 -35 -1q-10 -1 -13 -3.5t-8 -11.5l-230 -438q-38 -72 -100 -101.5t-118 -29.5q-55 0 -90.5 30t-35.5 73q0 33 20 50.5t48 17.5q27 0 47 -18t20 -49q0 -32 -22 -51q5 -2 14 -2q99 0 144 94l30 56l-222 384h-69v60q68 -4 121 -4q59 0 135 4v-60h-45
l147 -256l132 252q-21 4 -45 4v60l105 -4q16 0 37.5 1t37 2t16.5 1v-60zM304 600q0 -30 -21.5 -52t-53.5 -22q-31 0 -52.5 22t-21.5 53q0 30 21.5 52.5t52.5 22.5q32 0 53.5 -22t21.5 -54zM577 600q0 -30 -21.5 -52t-53.5 -22q-31 0 -52.5 22t-21.5 53q0 30 21.5 52.5
t52.5 22.5q32 0 53.5 -22t21.5 -54z" />
    <glyph glyph-name="Amacron" unicode="&#x100;" horiz-adv-x="1029" 
d="M968 0l-166 4q-127 0 -182 -4v60h88l-66 142h-326l-57 -125l-5 -11q0 -6 63 -6h21v-60l-147 4q-44 0 -132 -4v60h39q31 0 42 1q15 1 18.5 3.5t8.5 11.5l276 603q6 13 15 19.5t15.5 7.5t19.5 1h41q14 0 20.5 -1t15 -7.5t14.5 -20.5l284 -618h100v-60zM615 262l-136 296
l-136 -296h272zM758 757h-486v67h486v-67z" />
    <glyph glyph-name="amacron" unicode="&#x101;" horiz-adv-x="675" 
d="M659 30q0 -14 -5.5 -21t-11.5 -8t-19 -1h-66q-103 0 -110 61q-48 -68 -181 -68q-15 0 -28 0.5t-43 3.5t-53 11.5t-47 21.5t-37.5 35.5t-13.5 52.5t16.5 54t46.5 39t58.5 26t66 17t56 8t39.5 4q24 2 47.5 2.5t36.5 1t15 0.5v21q0 113 -130 113q-77 0 -77 -8l2 -4
q12 -20 12 -42q0 -32 -21.5 -52t-50.5 -20q-28 0 -50 19.5t-22 53.5q0 30 16.5 51t37 31t54.5 15.5t52.5 6t47.5 0.5q131 0 195 -45.5t64 -117.5v-221q18 -11 63 -11q16 0 22.5 -1t12 -8t5.5 -21zM426 135v90q-95 -4 -147 -19q-106 -28 -106 -87q0 -33 32.5 -54t81.5 -21
q56 0 96 21q20 10 30 23.5t11.5 22.5t1.5 24zM581 567h-486v67h486v-67z" />
    <glyph glyph-name="Abreve" unicode="&#x102;" horiz-adv-x="1029" 
d="M968 0l-166 4q-127 0 -182 -4v60h88l-66 142h-326l-57 -125l-5 -11q0 -6 63 -6h21v-60l-147 4q-44 0 -132 -4v60h39q31 0 42 1q15 1 18.5 3.5t8.5 11.5l276 603q6 13 15 19.5t15.5 7.5t19.5 1h41q14 0 20.5 -1t15 -7.5t14.5 -20.5l284 -618h100v-60zM615 262l-136 296
l-136 -296h272zM728 937q-2 -87 -66.5 -138.5t-146.5 -51.5t-146.5 51.5t-66.5 138.5h51q2 -58 53 -85.5t109 -27.5t109 27.5t53 85.5h51z" />
    <glyph glyph-name="abreve" unicode="&#x103;" horiz-adv-x="675" 
d="M659 30q0 -14 -5.5 -21t-11.5 -8t-19 -1h-66q-103 0 -110 61q-48 -68 -181 -68q-15 0 -28 0.5t-43 3.5t-53 11.5t-47 21.5t-37.5 35.5t-13.5 52.5t16.5 54t46.5 39t58.5 26t66 17t56 8t39.5 4q24 2 47.5 2.5t36.5 1t15 0.5v21q0 113 -130 113q-77 0 -77 -8l2 -4
q12 -20 12 -42q0 -32 -21.5 -52t-50.5 -20q-28 0 -50 19.5t-22 53.5q0 30 16.5 51t37 31t54.5 15.5t52.5 6t47.5 0.5q131 0 195 -45.5t64 -117.5v-221q18 -11 63 -11q16 0 22.5 -1t12 -8t5.5 -21zM426 135v90q-95 -4 -147 -19q-106 -28 -106 -87q0 -33 32.5 -54t81.5 -21
q56 0 96 21q20 10 30 23.5t11.5 22.5t1.5 24zM551 696q-2 -87 -66.5 -138.5t-146.5 -51.5t-146.5 51.5t-66.5 138.5h51q2 -58 53 -85.5t109 -27.5t109 27.5t53 85.5h51z" />
    <glyph glyph-name="Aogonek" unicode="&#x104;" horiz-adv-x="1029" 
d="M968 0l-115 4q-40 -27 -45.5 -60.5t15 -55t48.5 -21.5q13 0 48 25q14 9 33 -6q7 -7 10.5 -18.5t-0.5 -19.5q-49 -72 -125 -72q-58 0 -94.5 34.5t-36.5 80.5q0 65 60 113q-87 0 -146 -4v60h88l-66 142h-326l-57 -125l-5 -11q0 -6 63 -6h21v-60l-147 4q-44 0 -132 -4v60h39
q31 0 42 1q15 1 18.5 3.5t8.5 11.5l276 603q6 13 15 19.5t15.5 7.5t19.5 1h41q14 0 20.5 -1t15 -7.5t14.5 -20.5l284 -618h100v-60zM615 262l-136 296l-136 -296h272z" />
    <glyph glyph-name="aogonek" unicode="&#x105;" horiz-adv-x="675" 
d="M659 30q0 -14 -5.5 -21t-11.5 -8t-19 -1h-66q-40 -27 -47.5 -59t10.5 -53t46 -21q13 0 48 25q14 9 33 -6q7 -7 10.5 -18.5t-0.5 -19.5q-49 -72 -125 -72q-58 0 -94.5 34.5t-36.5 80.5q0 31 22 64t54 59q-27 15 -30 47q-48 -68 -181 -68q-15 0 -28 0.5t-43 3.5t-53 11.5
t-47 21.5t-37.5 35.5t-13.5 52.5t16.5 54t46.5 39t58.5 26t66 17t56 8t39.5 4q24 2 47.5 2.5t36.5 1t15 0.5v21q0 113 -130 113q-77 0 -77 -8l2 -4q12 -20 12 -42q0 -32 -21.5 -52t-50.5 -20q-28 0 -50 19.5t-22 53.5q0 30 16.5 51t37 31t54.5 15.5t52.5 6t47.5 0.5
q131 0 195 -45.5t64 -117.5v-221q18 -11 63 -11q16 0 22.5 -1t12 -8t5.5 -21zM426 135v90q-95 -4 -147 -19q-106 -28 -106 -87q0 -33 32.5 -54t81.5 -21q56 0 96 21q20 10 30 23.5t11.5 22.5t1.5 24z" />
    <glyph glyph-name="Cacute" unicode="&#x106;" horiz-adv-x="994" 
d="M908 228q0 -101 -99 -171.5t-260 -70.5q-115 0 -206.5 30t-146.5 80.5t-83.5 113.5t-28.5 133q0 71 29.5 134.5t85.5 113.5t145.5 79.5t202.5 29.5q139 0 240 -68l67 57q12 11 27 11q13 0 19 -5t7 -11t1 -18v-213q0 -22 -6 -28t-28 -6h-15q-30 0 -33 17q-11 59 -41 101.5
t-69 63.5t-75 30t-71 9q-85 0 -148 -23t-96 -56q-75 -77 -75 -218q0 -151 77 -218q87 -79 245 -79q41 0 82.5 9.5t83 29.5t69 58.5t29.5 90.5q0 10 6 15t12 5.5t17 0.5q14 0 20 -1t11 -7t5 -19zM722 838q-6 -38 -54 -50l-185 -41l-26 65l166 98q21 11 37 11q32 0 51.5 -26
t10.5 -57z" />
    <glyph glyph-name="cacute" unicode="&#x107;" horiz-adv-x="619" 
d="M571 113q0 -13 -21.5 -43t-57.5 -49q-55 -28 -146 -28q-144 0 -218 67.5t-74 161.5q0 29 7.5 57.5t28 61t52.5 57.5t86.5 41t124.5 16q22 0 38 -0.5t43 -3.5t45.5 -10t37.5 -17.5t29 -29.5t10 -43q0 -34 -22 -53.5t-50 -19.5q-29 0 -50.5 20t-21.5 52q0 26 13 45
q-28 4 -69 4q-49 0 -81.5 -14t-48.5 -40.5t-22 -54.5t-6 -65q0 -176 172 -176q34 0 59 7.5t40 21.5t20.5 22t12.5 21q4 9 10.5 11t22.5 2q36 0 36 -21zM511 631q0 -40 -45 -59l-175 -73l-37 60l147 125q20 18 44 18q28 0 47 -23t19 -48z" />
    <glyph glyph-name="Ccircumflex" unicode="&#x108;" horiz-adv-x="994" 
d="M908 228q0 -101 -99 -171.5t-260 -70.5q-115 0 -206.5 30t-146.5 80.5t-83.5 113.5t-28.5 133q0 71 29.5 134.5t85.5 113.5t145.5 79.5t202.5 29.5q139 0 240 -68l67 57q12 11 27 11q13 0 19 -5t7 -11t1 -18v-213q0 -22 -6 -28t-28 -6h-15q-30 0 -33 17q-11 59 -41 101.5
t-69 63.5t-75 30t-71 9q-85 0 -148 -23t-96 -56q-75 -77 -75 -218q0 -151 77 -218q87 -79 245 -79q41 0 82.5 9.5t83 29.5t69 58.5t29.5 90.5q0 10 6 15t12 5.5t17 0.5q14 0 20 -1t11 -7t5 -19zM721 761l-16 -24l-160 58l-160 -58l-14 24l175 141z" />
    <glyph glyph-name="ccircumflex" unicode="&#x109;" horiz-adv-x="619" 
d="M571 113q0 -13 -21.5 -43t-57.5 -49q-55 -28 -146 -28q-144 0 -218 67.5t-74 161.5q0 29 7.5 57.5t28 61t52.5 57.5t86.5 41t124.5 16q22 0 38 -0.5t43 -3.5t45.5 -10t37.5 -17.5t29 -29.5t10 -43q0 -34 -22 -53.5t-50 -19.5q-29 0 -50.5 20t-21.5 52q0 26 13 45
q-28 4 -69 4q-49 0 -81.5 -14t-48.5 -40.5t-22 -54.5t-6 -65q0 -176 172 -176q34 0 59 7.5t40 21.5t20.5 22t12.5 21q4 9 10.5 11t22.5 2q36 0 36 -21zM517 519l-20 -22l-158 99l-158 -99l-18 22l177 185z" />
    <glyph glyph-name="Cdotaccent" unicode="&#x10a;" horiz-adv-x="994" 
d="M908 228q0 -101 -99 -171.5t-260 -70.5q-115 0 -206.5 30t-146.5 80.5t-83.5 113.5t-28.5 133q0 71 29.5 134.5t85.5 113.5t145.5 79.5t202.5 29.5q139 0 240 -68l67 57q12 11 27 11q13 0 19 -5t7 -11t1 -18v-213q0 -22 -6 -28t-28 -6h-15q-30 0 -33 17q-11 59 -41 101.5
t-69 63.5t-75 30t-71 9q-85 0 -148 -23t-96 -56q-75 -77 -75 -218q0 -151 77 -218q87 -79 245 -79q41 0 82.5 9.5t83 29.5t69 58.5t29.5 90.5q0 10 6 15t12 5.5t17 0.5q14 0 20 -1t11 -7t5 -19zM629 834q0 -34 -24 -58.5t-59 -24.5t-59 24.5t-24 59.5q0 34 24 58.5t59 24.5
t59 -24.5t24 -59.5z" />
    <glyph glyph-name="cdotaccent" unicode="&#x10b;" horiz-adv-x="619" 
d="M571 113q0 -13 -21.5 -43t-57.5 -49q-55 -28 -146 -28q-144 0 -218 67.5t-74 161.5q0 29 7.5 57.5t28 61t52.5 57.5t86.5 41t124.5 16q22 0 38 -0.5t43 -3.5t45.5 -10t37.5 -17.5t29 -29.5t10 -43q0 -34 -22 -53.5t-50 -19.5q-29 0 -50.5 20t-21.5 52q0 26 13 45
q-28 4 -69 4q-49 0 -81.5 -14t-48.5 -40.5t-22 -54.5t-6 -65q0 -176 172 -176q34 0 59 7.5t40 21.5t20.5 22t12.5 21q4 9 10.5 11t22.5 2q36 0 36 -21zM423 600q0 -34 -24 -58.5t-59 -24.5t-59 24.5t-24 59.5q0 34 24 58.5t59 24.5t59 -24.5t24 -59.5z" />
    <glyph glyph-name="Ccaron" unicode="&#x10c;" horiz-adv-x="994" 
d="M908 228q0 -101 -99 -171.5t-260 -70.5q-115 0 -206.5 30t-146.5 80.5t-83.5 113.5t-28.5 133q0 71 29.5 134.5t85.5 113.5t145.5 79.5t202.5 29.5q139 0 240 -68l67 57q12 11 27 11q13 0 19 -5t7 -11t1 -18v-213q0 -22 -6 -28t-28 -6h-15q-30 0 -33 17q-11 59 -41 101.5
t-69 63.5t-75 30t-71 9q-85 0 -148 -23t-96 -56q-75 -77 -75 -218q0 -151 77 -218q87 -79 245 -79q41 0 82.5 9.5t83 29.5t69 58.5t29.5 90.5q0 10 6 15t12 5.5t17 0.5q14 0 20 -1t11 -7t5 -19zM721 878l-175 -141l-175 141l16 24l160 -58l160 58z" />
    <glyph glyph-name="ccaron" unicode="&#x10d;" horiz-adv-x="619" 
d="M571 113q0 -13 -21.5 -43t-57.5 -49q-55 -28 -146 -28q-144 0 -218 67.5t-74 161.5q0 29 7.5 57.5t28 61t52.5 57.5t86.5 41t124.5 16q22 0 38 -0.5t43 -3.5t45.5 -10t37.5 -17.5t29 -29.5t10 -43q0 -34 -22 -53.5t-50 -19.5q-29 0 -50.5 20t-21.5 52q0 26 13 45
q-28 4 -69 4q-49 0 -81.5 -14t-48.5 -40.5t-22 -54.5t-6 -65q0 -176 172 -176q34 0 59 7.5t40 21.5t20.5 22t12.5 21q4 9 10.5 11t22.5 2q36 0 36 -21zM517 682l-177 -185l-177 185l20 22l158 -99l158 99z" />
    <glyph glyph-name="Dcaron" unicode="&#x10e;" horiz-adv-x="1049" 
d="M963 337q0 -152 -112 -244.5t-291 -92.5h-487v60h106v566h-106v60h486q180 0 292 -96.5t112 -252.5zM803 339q0 27 -0.5 44t-6 50.5t-15.5 56t-31.5 50.5t-51 45t-76 29t-105.5 12h-192v-566h194q59 0 105 11.5t75.5 27.5t50.5 43.5t31 49t15.5 54t6 49.5t0.5 44z
M595 878l-175 -141l-175 141l16 24l160 -58l160 58z" />
    <glyph glyph-name="dcaron" unicode="&#x10f;" horiz-adv-x="769" 
d="M701 0l-199 -7v48q-73 -48 -168 -48q-133 0 -206.5 66.5t-73.5 161.5q0 98 77.5 164t216.5 66q93 0 161 -42v178q0 28 -10.5 33.5t-58.5 5.5v60l192 8v-595q0 -28 10.5 -33.5t58.5 -5.5v-60zM502 124v195q0 13 -2 17.5t-11 13.5q-50 50 -130 50q-46 0 -78.5 -14.5
t-48 -32t-24 -47t-9.5 -45.5t-1 -41t1 -40.5t8.5 -44.5t22 -46t44 -31t71.5 -14q98 0 157 80zM818 596q0 -37 -13.5 -71.5t-31 -55.5t-33 -33.5t-22.5 -12.5t-13.5 7t-6.5 14q0 9 9 14q65 48 71 120q-12 -9 -33 -9q-29 0 -46 18t-17 45q0 26 17 44t45 18q33 0 53.5 -28
t20.5 -70z" />
    <glyph glyph-name="Dcroat" unicode="&#x110;" horiz-adv-x="1049" 
d="M963 337q0 -152 -112 -244.5t-291 -92.5h-487v60h106v253h-106v60h106v253h-106v60h486q180 0 292 -96.5t112 -252.5zM803 339q0 27 -0.5 44t-6 50.5t-15.5 56t-31.5 50.5t-51 45t-76 29t-105.5 12h-192v-253h199v-60h-199v-253h194q59 0 105 11.5t75.5 27.5t50.5 43.5
t31 49t15.5 54t6 49.5t0.5 44z" />
    <glyph glyph-name="dcroat" unicode="&#x111;" horiz-adv-x="769" 
d="M701 0l-199 -7v48q-73 -48 -168 -48q-133 0 -206.5 66.5t-73.5 161.5q0 98 77.5 164t216.5 66q93 0 161 -42v100h-202v60h202v18q0 28 -10.5 33.5t-58.5 5.5v60l192 8v-125h69v-60h-69v-410q0 -28 10.5 -33.5t58.5 -5.5v-60zM502 124v195q0 13 -2 17.5t-11 13.5
q-50 50 -130 50q-46 0 -78.5 -14.5t-48 -32t-24 -47t-9.5 -45.5t-1 -41t1 -40.5t8.5 -44.5t22 -46t44 -31t71.5 -14q98 0 157 80z" />
    <glyph glyph-name="Emacron" unicode="&#x112;" horiz-adv-x="900" 
d="M852 254l-54 -254h-727v60h106v559h-106v60h707l36 -227h-71q-16 102 -69 134.5t-156 32.5h-188v-237h76q61 0 89.5 19t28.5 81h71v-260h-71q0 62 -28.5 81t-89.5 19h-76v-262h199q113 0 171 39t81 155h71zM693 757h-486v67h486v-67z" />
    <glyph glyph-name="emacron" unicode="&#x113;" horiz-adv-x="634" 
d="M586 113q0 -15 -23.5 -45t-64.5 -48q-58 -27 -145 -27q-151 0 -229 68.5t-78 164.5q0 92 73 160.5t216 68.5q111 0 173 -47q78 -58 78 -173q0 -15 -5.5 -22t-11.5 -8t-19 -1h-359q6 -155 181 -155q110 0 145 74q7 13 33 13q36 0 36 -23zM486 251q-8 153 -151 153
q-141 0 -145 -153h296zM560 567h-486v67h486v-67z" />
    <glyph glyph-name="Ebreve" unicode="&#x114;" horiz-adv-x="900" 
d="M852 254l-54 -254h-727v60h106v559h-106v60h707l36 -227h-71q-16 102 -69 134.5t-156 32.5h-188v-237h76q61 0 89.5 19t28.5 81h71v-260h-71q0 62 -28.5 81t-89.5 19h-76v-262h199q113 0 171 39t81 155h71zM663 937q-2 -87 -66.5 -138.5t-146.5 -51.5t-146.5 51.5
t-66.5 138.5h51q2 -58 53 -85.5t109 -27.5t109 27.5t53 85.5h51z" />
    <glyph glyph-name="ebreve" unicode="&#x115;" horiz-adv-x="634" 
d="M586 113q0 -15 -23.5 -45t-64.5 -48q-58 -27 -145 -27q-151 0 -229 68.5t-78 164.5q0 92 73 160.5t216 68.5q111 0 173 -47q78 -58 78 -173q0 -15 -5.5 -22t-11.5 -8t-19 -1h-359q6 -155 181 -155q110 0 145 74q7 13 33 13q36 0 36 -23zM486 251q-8 153 -151 153
q-141 0 -145 -153h296zM530 696q-2 -87 -66.5 -138.5t-146.5 -51.5t-146.5 51.5t-66.5 138.5h51q2 -58 53 -85.5t109 -27.5t109 27.5t53 85.5h51z" />
    <glyph glyph-name="Edotaccent" unicode="&#x116;" horiz-adv-x="900" 
d="M852 254l-54 -254h-727v60h106v559h-106v60h707l36 -227h-71q-16 102 -69 134.5t-156 32.5h-188v-237h76q61 0 89.5 19t28.5 81h71v-260h-71q0 62 -28.5 81t-89.5 19h-76v-262h199q113 0 171 39t81 155h71zM533 834q0 -34 -24 -58.5t-59 -24.5t-59 24.5t-24 59.5
q0 34 24 58.5t59 24.5t59 -24.5t24 -59.5z" />
    <glyph glyph-name="edotaccent" unicode="&#x117;" horiz-adv-x="634" 
d="M586 113q0 -15 -23.5 -45t-64.5 -48q-58 -27 -145 -27q-151 0 -229 68.5t-78 164.5q0 92 73 160.5t216 68.5q111 0 173 -47q78 -58 78 -173q0 -15 -5.5 -22t-11.5 -8t-19 -1h-359q6 -155 181 -155q110 0 145 74q7 13 33 13q36 0 36 -23zM486 251q-8 153 -151 153
q-141 0 -145 -153h296zM400 600q0 -34 -24 -58.5t-59 -24.5t-59 24.5t-24 59.5q0 34 24 58.5t59 24.5t59 -24.5t24 -59.5z" />
    <glyph glyph-name="Eogonek" unicode="&#x118;" horiz-adv-x="900" 
d="M852 254l-54 -254h-113q-40 -26 -46 -58.5t14 -53.5t48 -21q13 0 48 25q14 9 33 -6q7 -7 10.5 -18.5t-0.5 -19.5q-49 -72 -125 -72q-58 0 -94.5 34.5t-36.5 80.5q0 61 60 109h-525v60h106v559h-106v60h707l36 -227h-71q-16 102 -69 134.5t-156 32.5h-188v-237h76
q61 0 89.5 19t28.5 81h71v-260h-71q0 62 -28.5 81t-89.5 19h-76v-262h199q113 0 171 39t81 155h71z" />
    <glyph glyph-name="eogonek" unicode="&#x119;" horiz-adv-x="634" 
d="M586 113q0 -15 -23.5 -45t-64.5 -48q-19 -8 -61 -19q-40 -27 -46.5 -59.5t13 -53.5t47.5 -21q13 0 48 25q14 9 33 -6q7 -7 10.5 -18.5t-0.5 -19.5q-49 -72 -125 -72q-58 0 -94.5 34.5t-36.5 80.5q0 33 11 55.5t41 46.5q-144 4 -218 72t-74 161q0 92 73 160.5t216 68.5
q111 0 173 -47q78 -58 78 -173q0 -15 -5.5 -22t-11.5 -8t-19 -1h-359q6 -155 181 -155q110 0 145 74q7 13 33 13q36 0 36 -23zM486 251q-8 153 -151 153q-141 0 -145 -153h296z" />
    <glyph glyph-name="Ecaron" unicode="&#x11a;" horiz-adv-x="900" 
d="M852 254l-54 -254h-727v60h106v559h-106v60h707l36 -227h-71q-16 102 -69 134.5t-156 32.5h-188v-237h76q61 0 89.5 19t28.5 81h71v-260h-71q0 62 -28.5 81t-89.5 19h-76v-262h199q113 0 171 39t81 155h71zM625 878l-175 -141l-175 141l16 24l160 -58l160 58z" />
    <glyph glyph-name="ecaron" unicode="&#x11b;" horiz-adv-x="634" 
d="M586 113q0 -15 -23.5 -45t-64.5 -48q-58 -27 -145 -27q-151 0 -229 68.5t-78 164.5q0 92 73 160.5t216 68.5q111 0 173 -47q78 -58 78 -173q0 -15 -5.5 -22t-11.5 -8t-19 -1h-359q6 -155 181 -155q110 0 145 74q7 13 33 13q36 0 36 -23zM486 251q-8 153 -151 153
q-141 0 -145 -153h296zM494 682l-177 -185l-177 185l20 22l158 -99l158 99z" />
    <glyph glyph-name="Gcircumflex" unicode="&#x11c;" horiz-adv-x="1077" 
d="M1001 213h-94v-179q0 -34 -21 -34q-7 0 -37.5 13t-44.5 22q-33 -31 -90.5 -40t-145.5 -9q-122 0 -215 28.5t-142.5 68.5t-79.5 93t-38.5 91.5t-8.5 75.5q0 71 29 134.5t85 113.5t146 79.5t203 29.5q136 0 239 -68l67 57q12 11 27 11q13 0 19 -5t7 -11t1 -18v-213
q0 -22 -6 -28t-28 -6h-15q-30 0 -33 17q-11 58 -40 100.5t-68 63.5t-75.5 30.5t-72.5 9.5q-148 0 -238 -74q-80 -69 -80 -223q0 -297 339 -297q58 0 94.5 7t50 21t16.5 24t3 26v89h-169v60q51 -4 236 -4l180 4v-60zM714 761l-16 -24l-160 58l-160 -58l-14 24l175 141z" />
    <glyph glyph-name="gcircumflex" unicode="&#x11d;" 
d="M664 387q0 -23 -15 -38.5t-39 -15.5t-38.5 15.5t-14.5 38.5q1 13 2 18q-29 -3 -60 -15q39 -39 39 -91q0 -26 -11.5 -50.5t-36 -48.5t-71.5 -38.5t-111 -14.5q-80 0 -137 25q-5 -8 -5 -22q0 -28 22 -45q13 -11 25 -13t46 -2h56q70 0 101.5 -1t68.5 -7.5t70 -19.5
q49 -20 70 -57t21 -74q0 -64 -81 -98.5t-219 -34.5q-151 0 -225.5 37.5t-74.5 92.5q0 31 24.5 53.5t69.5 33.5q-39 39 -39 96q0 47 31 85q-53 46 -53 103q0 26 11.5 50.5t36 48.5t71.5 38.5t111 14.5q89 0 150 -31q59 38 124 38q38 0 59.5 -22t21.5 -49zM416 299q0 16 -1 26
t-6.5 25.5t-16.5 25t-32.5 16.5t-51.5 7q-37 0 -61 -9.5t-33 -27.5t-11 -30.5t-2 -32.5q0 -16 1 -26t6.5 -25.5t16.5 -25t32.5 -16.5t51.5 -7q37 0 61 9.5t33 27.5t11 30.5t2 32.5zM544 -72q0 50 -163 50h-146q-23 0 -40.5 -4.5t-26 -10t-13.5 -13t-6 -12t-1 -9.5
q0 -31 49.5 -55t148.5 -24q53 0 93.5 7.5t62 20t32 25t10.5 25.5zM475 519l-20 -22l-158 99l-158 -99l-18 22l177 185z" />
    <glyph glyph-name="Gbreve" unicode="&#x11e;" horiz-adv-x="1077" 
d="M1001 213h-94v-179q0 -34 -21 -34q-7 0 -37.5 13t-44.5 22q-33 -31 -90.5 -40t-145.5 -9q-122 0 -215 28.5t-142.5 68.5t-79.5 93t-38.5 91.5t-8.5 75.5q0 71 29 134.5t85 113.5t146 79.5t203 29.5q136 0 239 -68l67 57q12 11 27 11q13 0 19 -5t7 -11t1 -18v-213
q0 -22 -6 -28t-28 -6h-15q-30 0 -33 17q-11 58 -40 100.5t-68 63.5t-75.5 30.5t-72.5 9.5q-148 0 -238 -74q-80 -69 -80 -223q0 -297 339 -297q58 0 94.5 7t50 21t16.5 24t3 26v89h-169v60q51 -4 236 -4l180 4v-60zM752 937q-2 -87 -66.5 -138.5t-146.5 -51.5t-146.5 51.5
t-66.5 138.5h51q2 -58 53 -85.5t109 -27.5t109 27.5t53 85.5h51z" />
    <glyph glyph-name="gbreve" unicode="&#x11f;" 
d="M664 387q0 -23 -15 -38.5t-39 -15.5t-38.5 15.5t-14.5 38.5q1 13 2 18q-29 -3 -60 -15q39 -39 39 -91q0 -26 -11.5 -50.5t-36 -48.5t-71.5 -38.5t-111 -14.5q-80 0 -137 25q-5 -8 -5 -22q0 -28 22 -45q13 -11 25 -13t46 -2h56q70 0 101.5 -1t68.5 -7.5t70 -19.5
q49 -20 70 -57t21 -74q0 -64 -81 -98.5t-219 -34.5q-151 0 -225.5 37.5t-74.5 92.5q0 31 24.5 53.5t69.5 33.5q-39 39 -39 96q0 47 31 85q-53 46 -53 103q0 26 11.5 50.5t36 48.5t71.5 38.5t111 14.5q89 0 150 -31q59 38 124 38q38 0 59.5 -22t21.5 -49zM416 299q0 16 -1 26
t-6.5 25.5t-16.5 25t-32.5 16.5t-51.5 7q-37 0 -61 -9.5t-33 -27.5t-11 -30.5t-2 -32.5q0 -16 1 -26t6.5 -25.5t16.5 -25t32.5 -16.5t51.5 -7q37 0 61 9.5t33 27.5t11 30.5t2 32.5zM544 -72q0 50 -163 50h-146q-23 0 -40.5 -4.5t-26 -10t-13.5 -13t-6 -12t-1 -9.5
q0 -31 49.5 -55t148.5 -24q53 0 93.5 7.5t62 20t32 25t10.5 25.5zM511 696q-2 -87 -66.5 -138.5t-146.5 -51.5t-146.5 51.5t-66.5 138.5h51q2 -58 53 -85.5t109 -27.5t109 27.5t53 85.5h51z" />
    <glyph glyph-name="Gdotaccent" unicode="&#x120;" horiz-adv-x="1077" 
d="M1001 213h-94v-179q0 -34 -21 -34q-7 0 -37.5 13t-44.5 22q-33 -31 -90.5 -40t-145.5 -9q-122 0 -215 28.5t-142.5 68.5t-79.5 93t-38.5 91.5t-8.5 75.5q0 71 29 134.5t85 113.5t146 79.5t203 29.5q136 0 239 -68l67 57q12 11 27 11q13 0 19 -5t7 -11t1 -18v-213
q0 -22 -6 -28t-28 -6h-15q-30 0 -33 17q-11 58 -40 100.5t-68 63.5t-75.5 30.5t-72.5 9.5q-148 0 -238 -74q-80 -69 -80 -223q0 -297 339 -297q58 0 94.5 7t50 21t16.5 24t3 26v89h-169v60q51 -4 236 -4l180 4v-60zM622 834q0 -34 -24 -58.5t-59 -24.5t-59 24.5t-24 59.5
q0 34 24 58.5t59 24.5t59 -24.5t24 -59.5z" />
    <glyph glyph-name="gdotaccent" unicode="&#x121;" 
d="M664 387q0 -23 -15 -38.5t-39 -15.5t-38.5 15.5t-14.5 38.5q1 13 2 18q-29 -3 -60 -15q39 -39 39 -91q0 -26 -11.5 -50.5t-36 -48.5t-71.5 -38.5t-111 -14.5q-80 0 -137 25q-5 -8 -5 -22q0 -28 22 -45q13 -11 25 -13t46 -2h56q70 0 101.5 -1t68.5 -7.5t70 -19.5
q49 -20 70 -57t21 -74q0 -64 -81 -98.5t-219 -34.5q-151 0 -225.5 37.5t-74.5 92.5q0 31 24.5 53.5t69.5 33.5q-39 39 -39 96q0 47 31 85q-53 46 -53 103q0 26 11.5 50.5t36 48.5t71.5 38.5t111 14.5q89 0 150 -31q59 38 124 38q38 0 59.5 -22t21.5 -49zM416 299q0 16 -1 26
t-6.5 25.5t-16.5 25t-32.5 16.5t-51.5 7q-37 0 -61 -9.5t-33 -27.5t-11 -30.5t-2 -32.5q0 -16 1 -26t6.5 -25.5t16.5 -25t32.5 -16.5t51.5 -7q37 0 61 9.5t33 27.5t11 30.5t2 32.5zM544 -72q0 50 -163 50h-146q-23 0 -40.5 -4.5t-26 -10t-13.5 -13t-6 -12t-1 -9.5
q0 -31 49.5 -55t148.5 -24q53 0 93.5 7.5t62 20t32 25t10.5 25.5zM381 600q0 -34 -24 -58.5t-59 -24.5t-59 24.5t-24 59.5q0 34 24 58.5t59 24.5t59 -24.5t24 -59.5z" />
    <glyph glyph-name="Gcommaaccent" unicode="&#x122;" horiz-adv-x="1077" 
d="M1001 213h-94v-179q0 -34 -21 -34q-7 0 -37.5 13t-44.5 22q-33 -31 -90.5 -40t-145.5 -9q-122 0 -215 28.5t-142.5 68.5t-79.5 93t-38.5 91.5t-8.5 75.5q0 71 29 134.5t85 113.5t146 79.5t203 29.5q136 0 239 -68l67 57q12 11 27 11q13 0 19 -5t7 -11t1 -18v-213
q0 -22 -6 -28t-28 -6h-15q-30 0 -33 17q-11 58 -40 100.5t-68 63.5t-75.5 30.5t-72.5 9.5q-148 0 -238 -74q-80 -69 -80 -223q0 -297 339 -297q58 0 94.5 7t50 21t16.5 24t3 26v89h-169v60q51 -4 236 -4l180 4v-60zM607 -140q0 -37 -13.5 -71.5t-31 -55.5t-33 -33.5
t-22.5 -12.5t-13.5 7t-6.5 14q0 9 9 14q65 48 71 120q-12 -9 -33 -9q-29 0 -46 18t-17 45q0 26 17 44t45 18q33 0 53.5 -28t20.5 -70z" />
    <glyph glyph-name="gcommaaccent" unicode="&#x123;" 
d="M366 542q0 -26 -17 -44t-45 -18q-33 0 -53.5 28t-20.5 70q0 37 13.5 71.5t31 55.5t33 33.5t22.5 12.5t13.5 -7t6.5 -14q0 -9 -9 -14q-65 -48 -71 -120q12 9 33 9q29 0 46 -18t17 -45zM664 387q0 -23 -15 -38.5t-39 -15.5t-38.5 15.5t-14.5 38.5q1 13 2 18q-29 -3 -60 -15
q39 -39 39 -91q0 -26 -11.5 -50.5t-36 -48.5t-71.5 -38.5t-111 -14.5q-80 0 -137 25q-5 -8 -5 -22q0 -28 22 -45q13 -11 25 -13t46 -2h56q70 0 101.5 -1t68.5 -7.5t70 -19.5q49 -20 70 -57t21 -74q0 -64 -81 -98.5t-219 -34.5q-151 0 -225.5 37.5t-74.5 92.5q0 31 24.5 53.5
t69.5 33.5q-39 39 -39 96q0 47 31 85q-53 46 -53 103q0 26 11.5 50.5t36 48.5t71.5 38.5t111 14.5q89 0 150 -31q59 38 124 38q38 0 59.5 -22t21.5 -49zM416 299q0 16 -1 26t-6.5 25.5t-16.5 25t-32.5 16.5t-51.5 7q-37 0 -61 -9.5t-33 -27.5t-11 -30.5t-2 -32.5
q0 -16 1 -26t6.5 -25.5t16.5 -25t32.5 -16.5t51.5 -7q37 0 61 9.5t33 27.5t11 30.5t2 32.5zM544 -72q0 50 -163 50h-146q-23 0 -40.5 -4.5t-26 -10t-13.5 -13t-6 -12t-1 -9.5q0 -31 49.5 -55t148.5 -24q53 0 93.5 7.5t62 20t32 25t10.5 25.5z" />
    <glyph glyph-name="Hcircumflex" unicode="&#x124;" horiz-adv-x="1065" 
d="M992 0q-59 4 -183 4l-182 -4v60h106v267h-403v-267h106v-60q-59 4 -183 4l-182 -4v60h106v566h-106v60q59 -4 183 -4l182 4v-60h-106v-239h403v239h-106v60q59 -4 183 -4l182 4v-60h-106v-566h106v-60zM708 761l-16 -24l-160 58l-160 -58l-14 24l175 141z" />
    <glyph glyph-name="hcircumflex" unicode="&#x125;" horiz-adv-x="769" 
d="M720 0q-64 4 -134 4l-134 -4v60h69v245q0 54 -16.5 74.5t-53.5 20.5q-36 0 -73.5 -13t-69.5 -49.5t-32 -90.5v-187h69v-60q-64 4 -134 4l-134 -4v60h69v527q0 28 -10.5 33.5t-58.5 5.5v60l192 8v-333q71 90 201 90q37 0 66 -5.5t57 -21t43 -47.5t15 -79v-238h69v-60z
M560 769l-16 -24l-160 58l-160 -58l-14 24l175 141z" />
    <glyph glyph-name="Hbar" unicode="&#x126;" horiz-adv-x="1065" 
d="M992 0q-59 4 -183 4l-182 -4v60h106v267h-403v-267h106v-60q-59 4 -183 4l-182 -4v60h106v425h-106v60h106v81h-106v60q59 -4 183 -4l182 4v-60h-106v-81h403v81h-106v60q59 -4 183 -4l182 4v-60h-106v-81h106v-60h-106v-425h106v-60zM733 387v98h-403v-98h403z" />
    <glyph glyph-name="hbar" unicode="&#x127;" horiz-adv-x="769" 
d="M720 0q-64 4 -134 4l-134 -4v60h69v245q0 54 -16.5 74.5t-53.5 20.5q-36 0 -73.5 -13t-69.5 -49.5t-32 -90.5v-187h69v-60q-64 4 -134 4l-134 -4v60h69v449h-69v60h69v18q0 28 -10.5 33.5t-58.5 5.5v60l192 8v-125h115v-60h-115v-148q71 90 201 90q37 0 66 -5.5t57 -21
t43 -47.5t15 -79v-238h69v-60z" />
    <glyph glyph-name="Itilde" unicode="&#x128;" horiz-adv-x="506" 
d="M441 0q-55 4 -188 4q-134 0 -189 -4v60h112v566h-112v60q55 -4 189 -4q133 0 188 4v-60h-112v-566h112v-60zM478 843q-4 -3 -17 -15t-16 -15q-29 -27 -44 -40t-38 -24.5t-46 -11.5q-29 0 -71 22q-51 28 -82 28q-50 0 -102 -50l-34 38q4 3 16.5 15t16.5 15q29 27 44 40
t38 24.5t46 11.5q29 0 71 -22q51 -28 82 -28q50 0 102 50z" />
    <glyph glyph-name="itilde" unicode="&#x129;" horiz-adv-x="394" 
d="M335 0l-125 4l-130 -4v60h69v284q0 28 -10 33.5t-56 5.5v60l189 8v-391h63v-60zM422 635q-4 -3 -17 -15t-16 -15q-29 -27 -44 -40t-38 -24.5t-46 -11.5q-29 0 -71 22q-51 28 -82 28q-50 0 -102 -50l-34 38q4 3 16.5 15t16.5 15q29 27 44 40t38 24.5t46 11.5q29 0 71 -22
q51 -28 82 -28q50 0 102 50z" />
    <glyph glyph-name="Imacron" unicode="&#x12a;" horiz-adv-x="506" 
d="M441 0q-55 4 -188 4q-134 0 -189 -4v60h112v566h-112v60q55 -4 189 -4q133 0 188 4v-60h-112v-566h112v-60zM496 757h-486v67h486v-67z" />
    <glyph glyph-name="imacron" unicode="&#x12b;" horiz-adv-x="394" 
d="M335 0l-125 4l-130 -4v60h69v284q0 28 -10 33.5t-56 5.5v60l189 8v-391h63v-60zM440 567h-486v67h486v-67z" />
    <glyph glyph-name="Ibreve" unicode="&#x12c;" horiz-adv-x="506" 
d="M441 0q-55 4 -188 4q-134 0 -189 -4v60h112v566h-112v60q55 -4 189 -4q133 0 188 4v-60h-112v-566h112v-60zM466 937q-2 -87 -66.5 -138.5t-146.5 -51.5t-146.5 51.5t-66.5 138.5h51q2 -58 53 -85.5t109 -27.5t109 27.5t53 85.5h51z" />
    <glyph glyph-name="ibreve" unicode="&#x12d;" horiz-adv-x="394" 
d="M335 0l-125 4l-130 -4v60h69v284q0 28 -10 33.5t-56 5.5v60l189 8v-391h63v-60zM410 696q-2 -87 -66.5 -138.5t-146.5 -51.5t-146.5 51.5t-66.5 138.5h51q2 -58 53 -85.5t109 -27.5t109 27.5t53 85.5h51z" />
    <glyph glyph-name="Iogonek" unicode="&#x12e;" horiz-adv-x="506" 
d="M441 0l-99 4q-36 -19 -50 -58q-10 -31 8 -55t47 -24q13 0 48 25q14 9 33 -6q7 -7 10.5 -18.5t-0.5 -19.5q-49 -72 -125 -72q-58 0 -94.5 34.5t-36.5 80.5q0 55 65 113q-130 0 -183 -4v60h112v566h-112v60q55 -4 189 -4q133 0 188 4v-60h-112v-566h112v-60z" />
    <glyph glyph-name="iogonek" unicode="&#x12f;" horiz-adv-x="394" 
d="M280 611q0 -35 -25 -59t-58 -24q-35 0 -59.5 24.5t-24.5 59.5q0 33 24.5 58t59.5 25q32 0 57.5 -23.5t25.5 -60.5zM335 0l-107 4q-37 -18 -51 -58q-10 -31 8 -55t48 -24q13 0 48 25q14 9 33 -6q7 -7 10.5 -18.5t-0.5 -19.5q-49 -72 -125 -72q-58 0 -94.5 34.5t-36.5 80.5
q0 54 62 111l-50 -2v60h69v284q0 28 -10 33.5t-56 5.5v60l189 8v-391h63v-60z" />
    <glyph glyph-name="Idotaccent" unicode="&#x130;" horiz-adv-x="506" 
d="M441 0q-55 4 -188 4q-134 0 -189 -4v60h112v566h-112v60q55 -4 189 -4q133 0 188 4v-60h-112v-566h112v-60zM336 834q0 -34 -24 -58.5t-59 -24.5t-59 24.5t-24 59.5q0 34 24 58.5t59 24.5t59 -24.5t24 -59.5z" />
    <glyph glyph-name="dotlessi" unicode="&#x131;" horiz-adv-x="394" 
d="M335 0l-125 4l-130 -4v60h69v284q0 28 -10 33.5t-56 5.5v60l189 8v-391h63v-60z" />
    <glyph glyph-name="Jcircumflex" unicode="&#x134;" horiz-adv-x="711" 
d="M612 626h-80v-475q0 -78 -69 -121.5t-189 -43.5q-28 0 -53.5 2.5t-71 13t-73.5 39.5t-28 73q0 40 25 62t59 22q32 0 57.5 -22t25.5 -62q0 -17 -6.5 -32.5t-11.5 -21.5t-9 -9q36 -14 83 -14q115 0 115 114v475h-138v60q47 -4 204 -4l160 4v-60zM605 761l-16 -24l-160 58
l-160 -58l-14 24l175 141z" />
    <glyph glyph-name="jcircumflex" unicode="&#x135;" horiz-adv-x="431" 
d="M325 -36q0 -57 -35 -96t-80.5 -54t-95.5 -15q-75 0 -119 27t-44 75q0 31 20.5 51.5t51.5 20.5t51.5 -20.5t20.5 -51.5q0 -21 -11 -39l-3 -7q0 -5 35 -5q37 0 61.5 31.5t24.5 83.5v378q0 13 -1 19t-6 11.5t-15 7.5q-15 2 -54 2v60l199 8v-487zM419 519l-20 -22l-158 99
l-158 -99l-18 22l177 185z" />
    <glyph glyph-name="Kcommaaccent" unicode="&#x136;" horiz-adv-x="1066" 
d="M999 0l-150 4q-128 0 -183 -4v60h17q20 0 42 4l-255 273l-140 -98v-179h106v-60q-59 4 -183 4l-182 -4v60h106v566h-106v60q59 -4 183 -4l182 4v-60h-106v-300l420 296q-25 4 -51 4v60l165 -4q77 0 116 4v-60h-39q-61 0 -76 -11l-287 -202l321 -343q10 -10 50 -10h50v-60
zM601 -140q0 -37 -13.5 -71.5t-31 -55.5t-33 -33.5t-22.5 -12.5t-13.5 7t-6.5 14q0 9 9 14q65 48 71 120q-12 -9 -33 -9q-29 0 -46 18t-17 45q0 26 17 44t45 18q33 0 53.5 -28t20.5 -70z" />
    <glyph glyph-name="kcommaaccent" unicode="&#x137;" horiz-adv-x="731" 
d="M698 0l-112 4q-65 0 -133 -4v60q14 0 20 4l-142 144l-81 -56v-92h69v-60q-72 4 -127 4q-50 0 -126 -4v60h69v527q0 28 -10.5 33.5t-58.5 5.5v60l192 8v-450l199 136q-7 4 -19 4v60q48 -4 136 -4q54 0 94 4v-60h-27q-52 0 -68 -11l-151 -103l195 -199q7 -7 14.5 -9
t31.5 -2h35v-60zM434 -140q0 -37 -13.5 -71.5t-31 -55.5t-33 -33.5t-22.5 -12.5t-13.5 7t-6.5 14q0 9 9 14q65 48 71 120q-12 -9 -33 -9q-29 0 -46 18t-17 45q0 26 17 44t45 18q33 0 53.5 -28t20.5 -70z" />
    <glyph glyph-name="Lacute" unicode="&#x139;" horiz-adv-x="825" 
d="M758 254l-36 -254h-651v60h106v566h-106v60q60 -4 186 -4q158 0 206 4v-60h-133v-566h131q104 0 158 48t68 146h71zM433 838q-6 -38 -54 -50l-185 -41l-26 65l166 98q21 11 37 11q32 0 51.5 -26t10.5 -57z" />
    <glyph glyph-name="lacute" unicode="&#x13a;" horiz-adv-x="394" 
d="M341 0q-48 4 -131 4l-130 -4v60h69v527q0 28 -10.5 33.5t-58.5 5.5v60l192 8v-634h69v-60zM373 846q-6 -38 -54 -50l-185 -41l-26 65l166 98q21 11 37 11q32 0 51.5 -26t10.5 -57z" />
    <glyph glyph-name="Lcommaaccent" unicode="&#x13b;" horiz-adv-x="825" 
d="M758 254l-36 -254h-651v60h106v566h-106v60q60 -4 186 -4q158 0 206 4v-60h-133v-566h131q104 0 158 48t68 146h71zM481 -140q0 -37 -13.5 -71.5t-31 -55.5t-33 -33.5t-22.5 -12.5t-13.5 7t-6.5 14q0 9 9 14q65 48 71 120q-12 -9 -33 -9q-29 0 -46 18t-17 45q0 26 17 44
t45 18q33 0 53.5 -28t20.5 -70z" />
    <glyph glyph-name="lcommaaccent" unicode="&#x13c;" horiz-adv-x="394" 
d="M341 0q-48 4 -131 4l-130 -4v60h69v527q0 28 -10.5 33.5t-58.5 5.5v60l192 8v-634h69v-60zM265 -140q0 -37 -13.5 -71.5t-31 -55.5t-33 -33.5t-22.5 -12.5t-13.5 7t-6.5 14q0 9 9 14q65 48 71 120q-12 -9 -33 -9q-29 0 -46 18t-17 45q0 26 17 44t45 18q33 0 53.5 -28
t20.5 -70z" />
    <glyph glyph-name="Lcaron" unicode="&#x13d;" horiz-adv-x="825" 
d="M758 254l-36 -254h-651v60h106v566h-106v60q60 -4 186 -4q158 0 206 4v-60h-133v-566h131q104 0 158 48t68 146h71zM674 588q0 -37 -13.5 -71.5t-31 -55.5t-33 -33.5t-22.5 -12.5t-13.5 7t-6.5 14q0 9 9 14q65 48 71 120q-12 -9 -33 -9q-29 0 -46 18t-17 45q0 26 17 44
t45 18q33 0 53.5 -28t20.5 -70z" />
    <glyph glyph-name="lcaron" unicode="&#x13e;" horiz-adv-x="394" 
d="M341 0q-48 4 -131 4l-130 -4v60h69v527q0 28 -10.5 33.5t-58.5 5.5v60l192 8v-634h69v-60zM458 596q0 -37 -13.5 -71.5t-31 -55.5t-33 -33.5t-22.5 -12.5t-13.5 7t-6.5 14q0 9 9 14q65 48 71 120q-12 -9 -33 -9q-29 0 -46 18t-17 45q0 26 17 44t45 18q33 0 53.5 -28
t20.5 -70z" />
    <glyph glyph-name="Ldot" unicode="&#x13f;" horiz-adv-x="825" 
d="M758 254l-36 -254h-651v60h106v566h-106v60q60 -4 186 -4q158 0 206 4v-60h-133v-566h131q104 0 158 48t68 146h71zM749 430q0 -34 -24 -58.5t-59 -24.5t-59 24.5t-24 59.5q0 34 24 58.5t59 24.5t59 -24.5t24 -59.5z" />
    <glyph glyph-name="ldot" unicode="&#x140;" horiz-adv-x="434" 
d="M341 0q-48 4 -131 4l-130 -4v60h69v527q0 28 -10.5 33.5t-58.5 5.5v60l192 8v-634h69v-60zM510 360q0 -34 -24 -58.5t-59 -24.5t-59 24.5t-24 59.5q0 34 24 58.5t59 24.5t59 -24.5t24 -59.5z" />
    <glyph glyph-name="Lslash" unicode="&#x141;" horiz-adv-x="825" 
d="M758 254l-36 -254h-651v60h106v210l-62 -39l-34 53l96 60v282h-106v60q60 -4 186 -4q158 0 206 4v-60h-133v-188l191 118l34 -52l-225 -139v-305h131q104 0 158 48t68 146h71z" />
    <glyph glyph-name="lslash" unicode="&#x142;" horiz-adv-x="472" 
d="M407 425l-111 -70v-295h69v-60q-48 4 -131 4l-130 -4v60h69v218l-62 -39l-31 52l93 59v237q0 28 -10.5 33.5t-58.5 5.5v60l192 8v-266l79 50z" />
    <glyph glyph-name="Nacute" unicode="&#x143;" horiz-adv-x="1065" 
d="M992 626l-85 -1q-15 -1 -18 -4t-3 -17v-568q0 -23 -6.5 -29.5t-29.5 -6.5h-6q-16 0 -21.5 2t-14.5 11l-553 562v-493q0 -14 3.5 -17t19.5 -4q12 -1 41 -1h42v-60q-2 0 -27.5 1t-60 2t-57.5 1t-57.5 -1t-60 -2t-27.5 -1v60l85 1q15 1 18 4t3 17v544h-106v60h235
q16 0 21.5 -2t14.5 -11l466 -473v404q0 14 -3.5 17t-19.5 4q-12 1 -41 1h-42v60q2 0 27.5 -1t60 -2t57.5 -1t57.5 1t60 2t27.5 1v-60zM709 838q-6 -38 -54 -50l-185 -41l-26 65l166 98q21 11 37 11q32 0 51.5 -26t10.5 -57z" />
    <glyph glyph-name="nacute" unicode="&#x144;" horiz-adv-x="769" 
d="M720 0q-64 4 -134 4l-134 -4v60h69v245q0 54 -16.5 74.5t-53.5 20.5q-36 0 -73.5 -13t-69.5 -49.5t-32 -90.5v-187h69v-60q-64 4 -134 4l-134 -4v60h69v284q0 28 -10.5 33.5t-58.5 5.5v60l184 8v-102q15 22 35 41.5t67.5 40t106.5 20.5q37 0 66 -5.5t57 -21t43 -47.5
t15 -79v-238h69v-60zM556 631q0 -40 -45 -59l-175 -73l-37 60l147 125q20 18 44 18q28 0 47 -23t19 -48z" />
    <glyph glyph-name="Ncommaaccent" unicode="&#x145;" horiz-adv-x="1065" 
d="M992 626l-85 -1q-15 -1 -18 -4t-3 -17v-568q0 -23 -6.5 -29.5t-29.5 -6.5h-6q-16 0 -21.5 2t-14.5 11l-553 562v-493q0 -14 3.5 -17t19.5 -4q12 -1 41 -1h42v-60q-2 0 -27.5 1t-60 2t-57.5 1t-57.5 -1t-60 -2t-27.5 -1v60l85 1q15 1 18 4t3 17v544h-106v60h235
q16 0 21.5 -2t14.5 -11l466 -473v404q0 14 -3.5 17t-19.5 4q-12 1 -41 1h-42v60q2 0 27.5 -1t60 -2t57.5 -1t57.5 1t60 2t27.5 1v-60zM601 -140q0 -37 -13.5 -71.5t-31 -55.5t-33 -33.5t-22.5 -12.5t-13.5 7t-6.5 14q0 9 9 14q65 48 71 120q-12 -9 -33 -9q-29 0 -46 18
t-17 45q0 26 17 44t45 18q33 0 53.5 -28t20.5 -70z" />
    <glyph glyph-name="ncommaaccent" unicode="&#x146;" horiz-adv-x="769" 
d="M720 0q-64 4 -134 4l-134 -4v60h69v245q0 54 -16.5 74.5t-53.5 20.5q-36 0 -73.5 -13t-69.5 -49.5t-32 -90.5v-187h69v-60q-64 4 -134 4l-134 -4v60h69v284q0 28 -10.5 33.5t-58.5 5.5v60l184 8v-102q15 22 35 41.5t67.5 40t106.5 20.5q37 0 66 -5.5t57 -21t43 -47.5
t15 -79v-238h69v-60zM453 -140q0 -37 -13.5 -71.5t-31 -55.5t-33 -33.5t-22.5 -12.5t-13.5 7t-6.5 14q0 9 9 14q65 48 71 120q-12 -9 -33 -9q-29 0 -46 18t-17 45q0 26 17 44t45 18q33 0 53.5 -28t20.5 -70z" />
    <glyph glyph-name="Ncaron" unicode="&#x147;" horiz-adv-x="1065" 
d="M992 626l-85 -1q-15 -1 -18 -4t-3 -17v-568q0 -23 -6.5 -29.5t-29.5 -6.5h-6q-16 0 -21.5 2t-14.5 11l-553 562v-493q0 -14 3.5 -17t19.5 -4q12 -1 41 -1h42v-60q-2 0 -27.5 1t-60 2t-57.5 1t-57.5 -1t-60 -2t-27.5 -1v60l85 1q15 1 18 4t3 17v544h-106v60h235
q16 0 21.5 -2t14.5 -11l466 -473v404q0 14 -3.5 17t-19.5 4q-12 1 -41 1h-42v60q2 0 27.5 -1t60 -2t57.5 -1t57.5 1t60 2t27.5 1v-60zM708 878l-175 -141l-175 141l16 24l160 -58l160 58z" />
    <glyph glyph-name="ncaron" unicode="&#x148;" horiz-adv-x="769" 
d="M720 0q-64 4 -134 4l-134 -4v60h69v245q0 54 -16.5 74.5t-53.5 20.5q-36 0 -73.5 -13t-69.5 -49.5t-32 -90.5v-187h69v-60q-64 4 -134 4l-134 -4v60h69v284q0 28 -10.5 33.5t-58.5 5.5v60l184 8v-102q15 22 35 41.5t67.5 40t106.5 20.5q37 0 66 -5.5t57 -21t43 -47.5
t15 -79v-238h69v-60zM562 682l-177 -185l-177 185l20 22l158 -99l158 99z" />
    <glyph glyph-name="Eng" unicode="&#x14a;" horiz-adv-x="1065" 
d="M996 343q0 -144 -80.5 -250.5t-205.5 -106.5q-30 0 -51 21t-21 51t21 51t51 21q23 0 41 -12.5t26 -33.5q33 33 43 97t10 162q0 116 -69.5 200.5t-174.5 84.5q-181 0 -257 -73v-495h112v-60q-55 4 -188 4q-134 0 -189 -4v60h112v566h-112v60q55 -4 189 -4q43 0 76 4v-49
q103 63 257 63q108 0 202 -45t151 -128t57 -184z" />
    <glyph glyph-name="eng" unicode="&#x14b;" horiz-adv-x="710" 
d="M651 60q0 -109 -65 -188.5t-163 -79.5q-27 0 -46 19t-19 46q0 26 19 45.5t46 19.5q37 0 56 -34q42 46 42 172v245q0 54 -16.5 74.5t-53.5 20.5q-36 0 -73.5 -13t-69.5 -49.5t-32 -90.5v-187h69v-60q-64 4 -134 4l-134 -4v60h69v284q0 28 -10.5 33.5t-58.5 5.5v60l184 8
v-102q15 22 35 41.5t67.5 40t106.5 20.5q37 0 66 -5.5t57 -21t43 -47.5t15 -79v-238z" />
    <glyph glyph-name="Omacron" unicode="&#x14c;" horiz-adv-x="1032" 
d="M946 338q0 -70 -26.5 -132t-77.5 -112t-135.5 -79t-191.5 -29q-108 0 -192.5 29t-135.5 79t-77 112t-26 132q0 72 26.5 136.5t78 115.5t135.5 80.5t191 29.5t191 -29.5t135.5 -80.5t78 -115t26.5 -137zM779 355q0 148 -67 216q-73 73 -197 73q-126 0 -200 -76
q-64 -67 -64 -213q0 -157 69 -233q68 -77 195 -77q133 0 204 87q60 75 60 223zM759 757h-486v67h486v-67z" />
    <glyph glyph-name="omacron" unicode="&#x14d;" 
d="M646 218q0 -94 -75.5 -159.5t-224.5 -65.5q-148 0 -224 65.5t-76 159.5q0 44 17 85t51.5 75.5t94 55.5t137.5 21q77 0 137 -20.5t94.5 -55.5t51.5 -75.5t17 -85.5zM502 230q0 32 -1 49.5t-9 45t-23.5 42t-46.5 26t-76 11.5t-76 -11.5t-46.5 -26t-23.5 -42t-9 -45
t-1 -49.5q0 -24 0.5 -37t3.5 -35.5t8.5 -35t17 -28.5t27.5 -24.5t41.5 -14.5t57.5 -6t57.5 6t41.5 14.5t27.5 24.5t17 28.5t8.5 35t3.5 35.5t0.5 37zM590 567h-486v67h486v-67z" />
    <glyph glyph-name="Obreve" unicode="&#x14e;" horiz-adv-x="1032" 
d="M946 338q0 -70 -26.5 -132t-77.5 -112t-135.5 -79t-191.5 -29q-108 0 -192.5 29t-135.5 79t-77 112t-26 132q0 72 26.5 136.5t78 115.5t135.5 80.5t191 29.5t191 -29.5t135.5 -80.5t78 -115t26.5 -137zM779 355q0 148 -67 216q-73 73 -197 73q-126 0 -200 -76
q-64 -67 -64 -213q0 -157 69 -233q68 -77 195 -77q133 0 204 87q60 75 60 223zM729 937q-2 -87 -66.5 -138.5t-146.5 -51.5t-146.5 51.5t-66.5 138.5h51q2 -58 53 -85.5t109 -27.5t109 27.5t53 85.5h51z" />
    <glyph glyph-name="obreve" unicode="&#x14f;" 
d="M646 218q0 -94 -75.5 -159.5t-224.5 -65.5q-148 0 -224 65.5t-76 159.5q0 44 17 85t51.5 75.5t94 55.5t137.5 21q77 0 137 -20.5t94.5 -55.5t51.5 -75.5t17 -85.5zM502 230q0 32 -1 49.5t-9 45t-23.5 42t-46.5 26t-76 11.5t-76 -11.5t-46.5 -26t-23.5 -42t-9 -45
t-1 -49.5q0 -24 0.5 -37t3.5 -35.5t8.5 -35t17 -28.5t27.5 -24.5t41.5 -14.5t57.5 -6t57.5 6t41.5 14.5t27.5 24.5t17 28.5t8.5 35t3.5 35.5t0.5 37zM560 696q-2 -87 -66.5 -138.5t-146.5 -51.5t-146.5 51.5t-66.5 138.5h51q2 -58 53 -85.5t109 -27.5t109 27.5t53 85.5h51z
" />
    <glyph glyph-name="Ohungarumlaut" unicode="&#x150;" horiz-adv-x="1032" 
d="M946 338q0 -70 -26.5 -132t-77.5 -112t-135.5 -79t-191.5 -29q-108 0 -192.5 29t-135.5 79t-77 112t-26 132q0 72 26.5 136.5t78 115.5t135.5 80.5t191 29.5t191 -29.5t135.5 -80.5t78 -115t26.5 -137zM779 355q0 148 -67 216q-73 73 -197 73q-126 0 -200 -76
q-64 -67 -64 -213q0 -157 69 -233q68 -77 195 -77q133 0 204 87q60 75 60 223zM529 880q0 -30 -32 -54l-104 -79l-55 46l62 117q22 40 56 40q29 0 51 -22t22 -48zM754 880q0 -30 -32 -54l-104 -79l-55 46l62 117q22 40 56 40q29 0 51 -22t22 -48z" />
    <glyph glyph-name="ohungarumlaut" unicode="&#x151;" 
d="M646 218q0 -94 -75.5 -159.5t-224.5 -65.5q-148 0 -224 65.5t-76 159.5q0 44 17 85t51.5 75.5t94 55.5t137.5 21q77 0 137 -20.5t94.5 -55.5t51.5 -75.5t17 -85.5zM502 230q0 32 -1 49.5t-9 45t-23.5 42t-46.5 26t-76 11.5t-76 -11.5t-46.5 -26t-23.5 -42t-9 -45
t-1 -49.5q0 -24 0.5 -37t3.5 -35.5t8.5 -35t17 -28.5t27.5 -24.5t41.5 -14.5t57.5 -6t57.5 6t41.5 14.5t27.5 24.5t17 28.5t8.5 35t3.5 35.5t0.5 37zM360 632q0 -30 -32 -54l-104 -79l-55 46l62 117q22 40 56 40q29 0 51 -22t22 -48zM585 632q0 -30 -32 -54l-104 -79l-55 46
l62 117q22 40 56 40q29 0 51 -22t22 -48z" />
    <glyph glyph-name="OE" unicode="&#x152;" horiz-adv-x="1386" 
d="M1338 254l-54 -254h-521q-37 0 -113 -8q-42 -6 -101 -6q-216 0 -331.5 101.5t-115.5 251.5q0 71 27.5 135t80.5 115t140.5 81t198.5 30q48 0 111 -7q60 -7 103 -7h501l36 -227h-71q-16 99 -64 133t-150 34h-177v-240h112q33 0 53.5 3t41 12.5t30 30.5t10.5 54h71v-260
h-71q-1 33 -10.5 54t-30 30.5t-41 12.5t-53.5 3h-112v-266h189q113 0 165 41.5t75 152.5h71zM701 201v284q0 55 -7.5 88t-27 49.5t-43 21.5t-64.5 5q-77 0 -135.5 -24.5t-93 -66.5t-51.5 -93t-17 -110q0 -134 74.5 -226t222.5 -92q41 0 64.5 5t43 21.5t27 49.5t7.5 88z" />
    <glyph glyph-name="oe" unicode="&#x153;" horiz-adv-x="1069" 
d="M1021 113q0 -5 -4.5 -17t-19 -30.5t-37 -34t-62.5 -27t-91 -11.5q-151 0 -235 78q-84 -78 -231 -78q-146 0 -220.5 69t-74.5 163t74.5 162t220.5 68q67 0 123 -18t74.5 -31t31.5 -26q81 75 220 75q113 0 172 -58q59 -59 59 -161q0 -22 -8 -27t-28 -5h-348q6 -78 51 -114
q52 -41 137 -41q93 0 125 67q6 14 11.5 17t23.5 3q36 0 36 -23zM920 251q-4 153 -130 153q-44 0 -75.5 -14t-47.5 -38.5t-22.5 -48.5t-7.5 -52h283zM506 229q0 16 -0.5 25.5t-3.5 30t-9 34.5t-18 31.5t-29 28t-44 18t-61 7.5q-47 0 -80.5 -14.5t-49.5 -32t-25 -46.5t-10 -44
t-1 -38q0 -185 166 -185q47 0 80.5 15.5t49 34.5t24.5 49.5t10 46.5t1 39z" />
    <glyph glyph-name="Racute" unicode="&#x154;" horiz-adv-x="1019" 
d="M1004 100q0 -12 -5.5 -28.5t-18.5 -37t-44 -34.5t-75 -14q-118 0 -175 31q-23 13 -36.5 28t-19.5 37.5t-7 39.5t-1 53q0 51 -6.5 72t-35.5 43q-40 28 -105 28h-150v-258h106v-60l-179 4l-179 -4v60h106v566h-106v60h423q153 0 248 -53t95 -135q0 -56 -47.5 -97
t-119.5 -61q32 -14 53 -31t32 -40t15 -39t8 -46q6 -33 8.5 -48t10 -38.5t16 -33.5t23 -18.5t34.5 -8.5q11 0 21.5 3t24 19.5t15.5 45.5q2 21 35 21q12 0 18 -1t12 -7t6 -18zM672 498q0 30 -7 51t-25.5 39.5t-56.5 28t-96 9.5h-162v-257h161q60 0 99 10t57 30t24 40t6 49z
M686 838q-6 -38 -54 -50l-185 -41l-26 65l166 98q21 11 37 11q32 0 51.5 -26t10.5 -57z" />
    <glyph glyph-name="racute" unicode="&#x155;" horiz-adv-x="571" 
d="M523 359q0 -32 -21.5 -51t-48.5 -19t-48.5 19t-21.5 51q0 25 12 41q-63 -4 -100 -61.5t-37 -135.5v-143h87v-60l-146 4q-79 0 -133 -4v60h69v284q0 28 -10.5 33.5t-58.5 5.5v60l177 8v-111h1q21 45 61 78t97 33q49 0 85 -25t36 -67zM457 631q0 -40 -45 -59l-175 -73
l-37 60l147 125q20 18 44 18q28 0 47 -23t19 -48z" />
    <glyph glyph-name="Rcommaaccent" unicode="&#x156;" horiz-adv-x="1019" 
d="M1004 100q0 -12 -5.5 -28.5t-18.5 -37t-44 -34.5t-75 -14q-118 0 -175 31q-23 13 -36.5 28t-19.5 37.5t-7 39.5t-1 53q0 51 -6.5 72t-35.5 43q-40 28 -105 28h-150v-258h106v-60l-179 4l-179 -4v60h106v566h-106v60h423q153 0 248 -53t95 -135q0 -56 -47.5 -97
t-119.5 -61q32 -14 53 -31t32 -40t15 -39t8 -46q6 -33 8.5 -48t10 -38.5t16 -33.5t23 -18.5t34.5 -8.5q11 0 21.5 3t24 19.5t15.5 45.5q2 21 35 21q12 0 18 -1t12 -7t6 -18zM672 498q0 30 -7 51t-25.5 39.5t-56.5 28t-96 9.5h-162v-257h161q60 0 99 10t57 30t24 40t6 49z
M578 -140q0 -37 -13.5 -71.5t-31 -55.5t-33 -33.5t-22.5 -12.5t-13.5 7t-6.5 14q0 9 9 14q65 48 71 120q-12 -9 -33 -9q-29 0 -46 18t-17 45q0 26 17 44t45 18q33 0 53.5 -28t20.5 -70z" />
    <glyph glyph-name="rcommaaccent" unicode="&#x157;" horiz-adv-x="571" 
d="M523 359q0 -32 -21.5 -51t-48.5 -19t-48.5 19t-21.5 51q0 25 12 41q-63 -4 -100 -61.5t-37 -135.5v-143h87v-60l-146 4q-79 0 -133 -4v60h69v284q0 28 -10.5 33.5t-58.5 5.5v60l177 8v-111h1q21 45 61 78t97 33q49 0 85 -25t36 -67zM264 -140q0 -37 -13.5 -71.5
t-31 -55.5t-33 -33.5t-22.5 -12.5t-13.5 7t-6.5 14q0 9 9 14q65 48 71 120q-12 -9 -33 -9q-29 0 -46 18t-17 45q0 26 17 44t45 18q33 0 53.5 -28t20.5 -70z" />
    <glyph glyph-name="Rcaron" unicode="&#x158;" horiz-adv-x="1019" 
d="M1004 100q0 -12 -5.5 -28.5t-18.5 -37t-44 -34.5t-75 -14q-118 0 -175 31q-23 13 -36.5 28t-19.5 37.5t-7 39.5t-1 53q0 51 -6.5 72t-35.5 43q-40 28 -105 28h-150v-258h106v-60l-179 4l-179 -4v60h106v566h-106v60h423q153 0 248 -53t95 -135q0 -56 -47.5 -97
t-119.5 -61q32 -14 53 -31t32 -40t15 -39t8 -46q6 -33 8.5 -48t10 -38.5t16 -33.5t23 -18.5t34.5 -8.5q11 0 21.5 3t24 19.5t15.5 45.5q2 21 35 21q12 0 18 -1t12 -7t6 -18zM672 498q0 30 -7 51t-25.5 39.5t-56.5 28t-96 9.5h-162v-257h161q60 0 99 10t57 30t24 40t6 49z
M685 878l-175 -141l-175 141l16 24l160 -58l160 58z" />
    <glyph glyph-name="rcaron" unicode="&#x159;" horiz-adv-x="571" 
d="M523 359q0 -32 -21.5 -51t-48.5 -19t-48.5 19t-21.5 51q0 25 12 41q-63 -4 -100 -61.5t-37 -135.5v-143h87v-60l-146 4q-79 0 -133 -4v60h69v284q0 28 -10.5 33.5t-58.5 5.5v60l177 8v-111h1q21 45 61 78t97 33q49 0 85 -25t36 -67zM463 682l-177 -185l-177 185l20 22
l158 -99l158 99z" />
    <glyph glyph-name="Sacute" unicode="&#x15a;" horiz-adv-x="769" 
d="M683 201q0 -28 -7.5 -56t-27 -57.5t-48.5 -51.5t-76.5 -36t-107.5 -14q-150 0 -237 50q-20 -18 -30 -28q-16 -16 -21.5 -19t-16.5 -3q-13 0 -19 5t-7 11t-1 18v173q0 23 6.5 29t29.5 6t28.5 -5.5t6.5 -23.5q8 -153 261 -153q53 0 89 13t51 33.5t20 36t5 30.5
q0 43 -33.5 70.5t-76.5 37.5q-4 1 -31 6t-57.5 11t-37.5 7q-53 9 -80 15.5t-61 22t-58 38.5q-62 59 -62 131q0 37 14.5 71.5t44.5 64.5t82.5 48t121.5 18q115 0 192 -47l9 -5q8 6 10 8l34 33q11 11 27 11q13 0 19 -5t7 -11t1 -18v-174q0 -23 -6.5 -28.5t-29.5 -5.5
q-20 0 -26.5 4t-9.5 21q-29 162 -227 162q-85 0 -123 -31t-38 -71q0 -36 32.5 -62.5t83.5 -35.5l179 -33q81 -15 141.5 -71.5t60.5 -139.5zM561 838q-6 -38 -54 -50l-185 -41l-26 65l166 98q21 11 37 11q32 0 51.5 -26t10.5 -57z" />
    <glyph glyph-name="sacute" unicode="&#x15b;" horiz-adv-x="551" 
d="M495 142q0 -35 -13 -62.5t-36 -42.5t-45 -25t-51 -13.5t-42.5 -4.5t-29.5 -1q-84 0 -137 28q-3 -1 -13.5 -7.5t-13.5 -8.5q-20 -12 -33 -12t-19 5t-7 11t-1 18v94q0 23 6.5 29t29.5 6q20 0 25.5 -3.5t11.5 -19.5q33 -89 152 -89q132 0 132 66q0 18 -11.5 30.5t-35.5 20.5
t-40.5 11t-48.5 8q-25 3 -40.5 5.5t-41.5 8.5t-42.5 12t-37 17t-32 24t-19.5 31.5t-8 41.5q0 71 66 107q52 28 153 28q75 0 116 -15q32 15 45 15t19 -5t7 -11t1 -18v-66q0 -23 -6.5 -28.5t-29.5 -5.5q-14 0 -19.5 1t-10 6.5t-5.5 18.5q-5 62 -122 62q-130 0 -130 -54
q0 -14 9 -23.5t29.5 -15.5t38 -9.5t48.5 -7.5q53 -8 77 -12.5t52 -15t50 -27.5q53 -45 53 -102zM447 631q0 -40 -45 -59l-175 -73l-37 60l147 125q20 18 44 18q28 0 47 -23t19 -48z" />
    <glyph glyph-name="Scircumflex" unicode="&#x15c;" horiz-adv-x="769" 
d="M683 201q0 -28 -7.5 -56t-27 -57.5t-48.5 -51.5t-76.5 -36t-107.5 -14q-150 0 -237 50q-20 -18 -30 -28q-16 -16 -21.5 -19t-16.5 -3q-13 0 -19 5t-7 11t-1 18v173q0 23 6.5 29t29.5 6t28.5 -5.5t6.5 -23.5q8 -153 261 -153q53 0 89 13t51 33.5t20 36t5 30.5
q0 43 -33.5 70.5t-76.5 37.5q-4 1 -31 6t-57.5 11t-37.5 7q-53 9 -80 15.5t-61 22t-58 38.5q-62 59 -62 131q0 37 14.5 71.5t44.5 64.5t82.5 48t121.5 18q115 0 192 -47l9 -5q8 6 10 8l34 33q11 11 27 11q13 0 19 -5t7 -11t1 -18v-174q0 -23 -6.5 -28.5t-29.5 -5.5
q-20 0 -26.5 4t-9.5 21q-29 162 -227 162q-85 0 -123 -31t-38 -71q0 -36 32.5 -62.5t83.5 -35.5l179 -33q81 -15 141.5 -71.5t60.5 -139.5zM560 761l-16 -24l-160 58l-160 -58l-14 24l175 141z" />
    <glyph glyph-name="scircumflex" unicode="&#x15d;" horiz-adv-x="551" 
d="M495 142q0 -35 -13 -62.5t-36 -42.5t-45 -25t-51 -13.5t-42.5 -4.5t-29.5 -1q-84 0 -137 28q-3 -1 -13.5 -7.5t-13.5 -8.5q-20 -12 -33 -12t-19 5t-7 11t-1 18v94q0 23 6.5 29t29.5 6q20 0 25.5 -3.5t11.5 -19.5q33 -89 152 -89q132 0 132 66q0 18 -11.5 30.5t-35.5 20.5
t-40.5 11t-48.5 8q-25 3 -40.5 5.5t-41.5 8.5t-42.5 12t-37 17t-32 24t-19.5 31.5t-8 41.5q0 71 66 107q52 28 153 28q75 0 116 -15q32 15 45 15t19 -5t7 -11t1 -18v-66q0 -23 -6.5 -28.5t-29.5 -5.5q-14 0 -19.5 1t-10 6.5t-5.5 18.5q-5 62 -122 62q-130 0 -130 -54
q0 -14 9 -23.5t29.5 -15.5t38 -9.5t48.5 -7.5q53 -8 77 -12.5t52 -15t50 -27.5q53 -45 53 -102zM453 519l-20 -22l-158 99l-158 -99l-18 22l177 185z" />
    <glyph glyph-name="Scedilla" unicode="&#x15e;" horiz-adv-x="769" 
d="M683 201q0 -35 -12.5 -69.5t-39.5 -67.5t-78.5 -54.5t-121.5 -23.5h7l48 -4q112 -15 112 -91q0 -44 -46 -66.5t-142 -30.5q-28 -2 -84.5 -2t-81.5 -2v51q20 1 62 1.5t65 2.5q28 3 47.5 7.5t29 9t14.5 10.5t5.5 9.5t0.5 9.5q0 21 -20.5 32t-40 12.5t-51.5 1.5v51
q-110 8 -177 48q-20 -18 -30 -28q-16 -16 -21.5 -19t-16.5 -3q-13 0 -19 5t-7 11t-1 18v173q0 23 6.5 29t29.5 6t28.5 -5.5t6.5 -23.5q8 -153 261 -153q53 0 89 13t51 33.5t20 36t5 30.5q0 43 -33.5 70.5t-76.5 37.5q-4 1 -31 6t-57.5 11t-37.5 7q-53 9 -80 15.5t-61 22
t-58 38.5q-62 59 -62 131q0 37 14.5 71.5t44.5 64.5t82.5 48t121.5 18q115 0 192 -47l9 -5q8 6 10 8l34 33q11 11 27 11q13 0 19 -5t7 -11t1 -18v-174q0 -23 -6.5 -28.5t-29.5 -5.5q-20 0 -26.5 4t-9.5 21q-29 162 -227 162q-85 0 -123 -31t-38 -71q0 -36 32.5 -62.5
t83.5 -35.5l179 -33q81 -15 141.5 -71.5t60.5 -139.5z" />
    <glyph glyph-name="scedilla" unicode="&#x15f;" horiz-adv-x="551" 
d="M495 142q0 -35 -13 -62.5t-36 -42.5t-45 -25t-51 -13.5t-42.5 -4.5t-29.5 -1q-84 0 -137 28q-3 -1 -13.5 -7.5t-13.5 -8.5q-20 -12 -33 -12t-19 5t-7 11t-1 18v94q0 23 6.5 29t29.5 6q20 0 25.5 -3.5t11.5 -19.5q33 -89 152 -89q132 0 132 66q0 18 -11.5 30.5t-35.5 20.5
t-40.5 11t-48.5 8q-25 3 -40.5 5.5t-41.5 8.5t-42.5 12t-37 17t-32 24t-19.5 31.5t-8 41.5q0 71 66 107q52 28 153 28q75 0 116 -15q32 15 45 15t19 -5t7 -11t1 -18v-66q0 -23 -6.5 -28.5t-29.5 -5.5q-14 0 -19.5 1t-10 6.5t-5.5 18.5q-5 62 -122 62q-130 0 -130 -54
q0 -14 9 -23.5t29.5 -15.5t38 -9.5t48.5 -7.5q53 -8 77 -12.5t52 -15t50 -27.5q53 -45 53 -102zM489 -109q0 -44 -46 -66.5t-142 -30.5q-29 -2 -85 -2t-81 -2v51q20 1 62 1.5t65 2.5q28 3 47.5 7.5t29 9t14.5 10.5t5.5 9.5t0.5 9.5q0 21 -20.5 32t-40 12.5t-51.5 1.5v52
l82 -3l48 -4q112 -15 112 -91z" />
    <glyph glyph-name="Scaron" unicode="&#x160;" horiz-adv-x="769" 
d="M683 201q0 -28 -7.5 -56t-27 -57.5t-48.5 -51.5t-76.5 -36t-107.5 -14q-150 0 -237 50q-20 -18 -30 -28q-16 -16 -21.5 -19t-16.5 -3q-13 0 -19 5t-7 11t-1 18v173q0 23 6.5 29t29.5 6t28.5 -5.5t6.5 -23.5q8 -153 261 -153q53 0 89 13t51 33.5t20 36t5 30.5
q0 43 -33.5 70.5t-76.5 37.5q-4 1 -31 6t-57.5 11t-37.5 7q-53 9 -80 15.5t-61 22t-58 38.5q-62 59 -62 131q0 37 14.5 71.5t44.5 64.5t82.5 48t121.5 18q115 0 192 -47l9 -5q8 6 10 8l34 33q11 11 27 11q13 0 19 -5t7 -11t1 -18v-174q0 -23 -6.5 -28.5t-29.5 -5.5
q-20 0 -26.5 4t-9.5 21q-29 162 -227 162q-85 0 -123 -31t-38 -71q0 -36 32.5 -62.5t83.5 -35.5l179 -33q81 -15 141.5 -71.5t60.5 -139.5zM560 878l-175 -141l-175 141l16 24l160 -58l160 58z" />
    <glyph glyph-name="scaron" unicode="&#x161;" horiz-adv-x="551" 
d="M495 142q0 -35 -13 -62.5t-36 -42.5t-45 -25t-51 -13.5t-42.5 -4.5t-29.5 -1q-84 0 -137 28q-3 -1 -13.5 -7.5t-13.5 -8.5q-20 -12 -33 -12t-19 5t-7 11t-1 18v94q0 23 6.5 29t29.5 6q20 0 25.5 -3.5t11.5 -19.5q33 -89 152 -89q132 0 132 66q0 18 -11.5 30.5t-35.5 20.5
t-40.5 11t-48.5 8q-25 3 -40.5 5.5t-41.5 8.5t-42.5 12t-37 17t-32 24t-19.5 31.5t-8 41.5q0 71 66 107q52 28 153 28q75 0 116 -15q32 15 45 15t19 -5t7 -11t1 -18v-66q0 -23 -6.5 -28.5t-29.5 -5.5q-14 0 -19.5 1t-10 6.5t-5.5 18.5q-5 62 -122 62q-130 0 -130 -54
q0 -14 9 -23.5t29.5 -15.5t38 -9.5t48.5 -7.5q53 -8 77 -12.5t52 -15t50 -27.5q53 -45 53 -102zM453 682l-177 -185l-177 185l20 22l158 -99l158 99z" />
    <glyph glyph-name="Tcedilla" unicode="&#x162;" horiz-adv-x="957" 
d="M897 444h-71q-9 90 -42 128.5t-127 38.5h-103v-551h151v-60q-49 4 -228 4q-178 0 -227 -4v60h151v551h-103q-94 0 -127 -38.5t-42 -128.5h-71l25 227h789zM655 -109q0 -44 -46 -66.5t-142 -30.5q-29 -2 -85 -2t-81 -2v51q20 1 62 1.5t65 2.5q28 3 47.5 7.5t29 9
t14.5 10.5t5.5 9.5t0.5 9.5q0 21 -20.5 32t-40 12.5t-51.5 1.5v52l82 -3l48 -4q112 -15 112 -91z" />
    <glyph glyph-name="tcedilla" unicode="&#x163;" horiz-adv-x="544" 
d="M458 121q0 -64 -45.5 -96t-108.5 -32q-173 0 -173 127v264h-97v51q72 2 113 60.5t43 139.5h71v-191h175v-60h-175v-264q0 -11 0.5 -17.5t3.5 -18t9 -18t18.5 -12t29.5 -5.5q14 0 26.5 4t25.5 22t13 49v46h71v-49zM467 -109q0 -44 -46 -66.5t-142 -30.5q-29 -2 -85 -2
t-81 -2v51q20 1 62 1.5t65 2.5q28 3 47.5 7.5t29 9t14.5 10.5t5.5 9.5t0.5 9.5q0 21 -20.5 32t-40 12.5t-51.5 1.5v52l82 -3l48 -4q112 -15 112 -91z" />
    <glyph glyph-name="Tcaron" unicode="&#x164;" horiz-adv-x="957" 
d="M897 444h-71q-9 90 -42 128.5t-127 38.5h-103v-551h151v-60q-49 4 -228 4q-178 0 -227 -4v60h151v551h-103q-94 0 -127 -38.5t-42 -128.5h-71l25 227h789zM654 878l-175 -141l-175 141l16 24l160 -58l160 58z" />
    <glyph glyph-name="tcaron" unicode="&#x165;" horiz-adv-x="544" 
d="M458 121q0 -64 -45.5 -96t-108.5 -32q-173 0 -173 127v264h-97v51q72 2 113 60.5t43 139.5h71v-191h175v-60h-175v-264q0 -11 0.5 -17.5t3.5 -18t9 -18t18.5 -12t29.5 -5.5q14 0 26.5 4t25.5 22t13 49v46h71v-49zM447 667q0 -37 -13.5 -71.5t-31 -55.5t-33 -33.5
t-22.5 -12.5t-13.5 7t-6.5 14q0 9 9 14q65 48 71 120q-12 -9 -33 -9q-29 0 -46 18t-17 45q0 26 17 44t45 18q33 0 53.5 -28t20.5 -70z" />
    <glyph glyph-name="Utilde" unicode="&#x168;" horiz-adv-x="1047" 
d="M974 626l-85 -1q-15 -1 -18 -4t-3 -17v-373q0 -46 -18.5 -88t-56 -78t-103.5 -57.5t-152 -21.5q-176 0 -268.5 71t-92.5 175v394h-106v60q59 -4 183 -4l182 4v-60h-106v-397q0 -38 8 -67t29 -57t65 -43.5t109 -15.5q108 0 176 44.5t68 142.5v371q0 14 -3.5 17t-19.5 4
q-12 1 -41 1h-42v60q56 -4 148 -4q24 0 59.5 1t61 2t26.5 1v-60zM780 843q-4 -3 -17 -15t-16 -15q-29 -27 -44 -40t-38 -24.5t-46 -11.5q-29 0 -71 22q-51 28 -82 28q-50 0 -102 -50l-34 38q4 3 17 15t16 15q29 27 44 40t38 24.5t46 11.5q29 0 71 -22q51 -28 82 -28
q50 0 102 50z" />
    <glyph glyph-name="utilde" unicode="&#x169;" horiz-adv-x="769" 
d="M720 0l-192 -7v65q-60 -65 -175 -65q-45 0 -77.5 4.5t-64.5 17.5t-48.5 39.5t-16.5 66.5v223q0 28 -10.5 33.5t-58.5 5.5v60l199 8v-341q0 -27 3.5 -38t24.5 -19.5t67 -8.5q62 0 106 28t44 88v184q0 28 -10.5 33.5t-58.5 5.5v60l199 8v-352q0 -28 10.5 -33.5t58.5 -5.5
v-60zM610 635q-4 -3 -17 -15t-16 -15q-29 -27 -44 -40t-38 -24.5t-46 -11.5q-29 0 -71 22q-51 28 -82 28q-50 0 -102 -50l-34 38q4 3 17 15t16 15q29 27 44 40t38 24.5t46 11.5q29 0 71 -22q51 -28 82 -28q50 0 102 50z" />
    <glyph glyph-name="Umacron" unicode="&#x16a;" horiz-adv-x="1047" 
d="M974 626l-85 -1q-15 -1 -18 -4t-3 -17v-373q0 -46 -18.5 -88t-56 -78t-103.5 -57.5t-152 -21.5q-176 0 -268.5 71t-92.5 175v394h-106v60q59 -4 183 -4l182 4v-60h-106v-397q0 -38 8 -67t29 -57t65 -43.5t109 -15.5q108 0 176 44.5t68 142.5v371q0 14 -3.5 17t-19.5 4
q-12 1 -41 1h-42v60q56 -4 148 -4q24 0 59.5 1t61 2t26.5 1v-60zM798 757h-486v67h486v-67z" />
    <glyph glyph-name="umacron" unicode="&#x16b;" horiz-adv-x="769" 
d="M720 0l-192 -7v65q-60 -65 -175 -65q-45 0 -77.5 4.5t-64.5 17.5t-48.5 39.5t-16.5 66.5v223q0 28 -10.5 33.5t-58.5 5.5v60l199 8v-341q0 -27 3.5 -38t24.5 -19.5t67 -8.5q62 0 106 28t44 88v184q0 28 -10.5 33.5t-58.5 5.5v60l199 8v-352q0 -28 10.5 -33.5t58.5 -5.5
v-60zM628 567h-486v67h486v-67z" />
    <glyph glyph-name="Ubreve" unicode="&#x16c;" horiz-adv-x="1047" 
d="M974 626l-85 -1q-15 -1 -18 -4t-3 -17v-373q0 -46 -18.5 -88t-56 -78t-103.5 -57.5t-152 -21.5q-176 0 -268.5 71t-92.5 175v394h-106v60q59 -4 183 -4l182 4v-60h-106v-397q0 -38 8 -67t29 -57t65 -43.5t109 -15.5q108 0 176 44.5t68 142.5v371q0 14 -3.5 17t-19.5 4
q-12 1 -41 1h-42v60q56 -4 148 -4q24 0 59.5 1t61 2t26.5 1v-60zM768 937q-2 -87 -66.5 -138.5t-146.5 -51.5t-146.5 51.5t-66.5 138.5h51q2 -58 53 -85.5t109 -27.5t109 27.5t53 85.5h51z" />
    <glyph glyph-name="ubreve" unicode="&#x16d;" horiz-adv-x="769" 
d="M720 0l-192 -7v65q-60 -65 -175 -65q-45 0 -77.5 4.5t-64.5 17.5t-48.5 39.5t-16.5 66.5v223q0 28 -10.5 33.5t-58.5 5.5v60l199 8v-341q0 -27 3.5 -38t24.5 -19.5t67 -8.5q62 0 106 28t44 88v184q0 28 -10.5 33.5t-58.5 5.5v60l199 8v-352q0 -28 10.5 -33.5t58.5 -5.5
v-60zM598 696q-2 -87 -66.5 -138.5t-146.5 -51.5t-146.5 51.5t-66.5 138.5h51q2 -58 53 -85.5t109 -27.5t109 27.5t53 85.5h51z" />
    <glyph glyph-name="Uring" unicode="&#x16e;" horiz-adv-x="1047" 
d="M974 626l-85 -1q-15 -1 -18 -4t-3 -17v-373q0 -46 -18.5 -88t-56 -78t-103.5 -57.5t-152 -21.5q-176 0 -268.5 71t-92.5 175v394h-106v60q59 -4 183 -4l182 4v-60h-106v-397q0 -38 8 -67t29 -57t65 -43.5t109 -15.5q108 0 176 44.5t68 142.5v371q0 14 -3.5 17t-19.5 4
q-12 1 -41 1h-42v60q56 -4 148 -4q24 0 59.5 1t61 2t26.5 1v-60zM623 791q0 18 -9.5 26t-20.5 9.5t-38 1.5t-38 -1.5t-20.5 -9.5t-9.5 -26t9 -26t20 -9.5t39 -1.5q40 0 54 6.5t14 30.5zM703 790q0 -31 -34 -57t-115 -26q-77 0 -112 26t-35 57q0 34 35 59.5t114 25.5
q75 0 111 -25t36 -60z" />
    <glyph glyph-name="uring" unicode="&#x16f;" horiz-adv-x="769" 
d="M720 0l-192 -7v65q-60 -65 -175 -65q-45 0 -77.5 4.5t-64.5 17.5t-48.5 39.5t-16.5 66.5v223q0 28 -10.5 33.5t-58.5 5.5v60l199 8v-341q0 -27 3.5 -38t24.5 -19.5t67 -8.5q62 0 106 28t44 88v184q0 28 -10.5 33.5t-58.5 5.5v60l199 8v-352q0 -28 10.5 -33.5t58.5 -5.5
v-60zM452 614q0 18 -9.5 26t-20.5 9.5t-38 1.5t-38 -1.5t-20.5 -9.5t-9.5 -26t9 -26t20 -9.5t39 -1.5q40 0 54 6.5t14 30.5zM532 613q0 -31 -34 -57t-115 -26q-77 0 -112 26t-35 57q0 34 35 59.5t114 25.5q75 0 111 -25t36 -60z" />
    <glyph glyph-name="Uhungarumlaut" unicode="&#x170;" horiz-adv-x="1047" 
d="M974 626l-85 -1q-15 -1 -18 -4t-3 -17v-373q0 -46 -18.5 -88t-56 -78t-103.5 -57.5t-152 -21.5q-176 0 -268.5 71t-92.5 175v394h-106v60q59 -4 183 -4l182 4v-60h-106v-397q0 -38 8 -67t29 -57t65 -43.5t109 -15.5q108 0 176 44.5t68 142.5v371q0 14 -3.5 17t-19.5 4
q-12 1 -41 1h-42v60q56 -4 148 -4q24 0 59.5 1t61 2t26.5 1v-60zM568 880q0 -30 -32 -54l-104 -79l-55 46l62 117q22 40 56 40q29 0 51 -22t22 -48zM793 880q0 -30 -32 -54l-104 -79l-55 46l62 117q22 40 56 40q29 0 51 -22t22 -48z" />
    <glyph glyph-name="uhungarumlaut" unicode="&#x171;" horiz-adv-x="769" 
d="M720 0l-192 -7v65q-60 -65 -175 -65q-45 0 -77.5 4.5t-64.5 17.5t-48.5 39.5t-16.5 66.5v223q0 28 -10.5 33.5t-58.5 5.5v60l199 8v-341q0 -27 3.5 -38t24.5 -19.5t67 -8.5q62 0 106 28t44 88v184q0 28 -10.5 33.5t-58.5 5.5v60l199 8v-352q0 -28 10.5 -33.5t58.5 -5.5
v-60zM398 632q0 -30 -32 -54l-104 -79l-55 46l62 117q22 40 56 40q29 0 51 -22t22 -48zM623 632q0 -30 -32 -54l-104 -79l-55 46l62 117q22 40 56 40q29 0 51 -22t22 -48z" />
    <glyph glyph-name="Uogonek" unicode="&#x172;" horiz-adv-x="1047" 
d="M974 626l-85 -1q-15 -1 -18 -4t-3 -17v-373q0 -89 -65 -157.5t-198 -83.5q-20 -18 -29 -44q-11 -31 7 -55t48 -24q13 0 48 25q14 9 33 -6q7 -7 10.5 -18.5t-0.5 -19.5q-49 -72 -125 -72q-58 0 -94.5 34.5t-36.5 80.5t47 95q-164 6 -250 76t-86 170v394h-106v60
q59 -4 183 -4l182 4v-60h-106v-397q0 -38 8 -67t29 -57t65 -43.5t109 -15.5q108 0 176 44.5t68 142.5v371q0 14 -3.5 17t-19.5 4q-12 1 -41 1h-42v60q56 -4 148 -4q24 0 59.5 1t61 2t26.5 1v-60z" />
    <glyph glyph-name="uogonek" unicode="&#x173;" horiz-adv-x="769" 
d="M737 -152q-49 -72 -125 -72q-58 0 -94.5 34.5t-36.5 80.5q0 47 53 102h-6v65q-60 -65 -175 -65q-45 0 -77.5 4.5t-64.5 17.5t-48.5 39.5t-16.5 66.5v223q0 28 -10.5 33.5t-58.5 5.5v60l199 8v-341q0 -27 3.5 -38t24.5 -19.5t67 -8.5q62 0 106 28t44 88v184
q0 28 -10.5 33.5t-58.5 5.5v60l199 8v-352q0 -28 10.5 -33.5t58.5 -5.5v-60l-90 -3q-28 -19 -39 -51q-10 -31 8 -55t47 -24q13 0 48 25q14 9 33 -6q7 -7 10.5 -18.5t-0.5 -19.5z" />
    <glyph glyph-name="Wcircumflex" unicode="&#x174;" horiz-adv-x="1404" 
d="M1363 626l-72 -1q-12 -1 -15 -3.5t-8 -12.5l-250 -594q-6 -14 -14.5 -20.5t-15.5 -7.5t-20 -1h-26q-13 0 -20 1t-15.5 8t-14.5 21l-191 455l-192 -455q-8 -18 -16.5 -24t-32.5 -6h-26q-13 0 -20 1t-15.5 7.5t-14.5 20.5l-256 611h-89v60l156 -4q108 0 179 4v-60h-89
l202 -480l175 417l-26 63h-88v60l155 -4q127 0 180 4v-60h-89l202 -480l194 462l4 11q0 7 -70 7h-26v60l149 -4q64 0 116 4v-60zM877 761l-16 -24l-160 58l-160 -58l-14 24l175 141z" />
    <glyph glyph-name="wcircumflex" unicode="&#x175;" horiz-adv-x="994" 
d="M952 384h-17q-24 0 -34 -1q-5 -1 -7 -1.5t-4.5 -2t-4 -4t-3.5 -7.5l-149 -347q-12 -28 -50 -28h-26q-14 0 -20.5 1t-15.5 8t-15 21l-110 255l-110 -255q-6 -14 -15 -21t-15.5 -8t-20.5 -1h-26q-13 0 -20 1t-15.5 7.5t-14.5 20.5l-157 362h-62v60l116 -4q79 0 131 4v-60
h-51l114 -264l107 248q-1 1 -7 16h-62v60q44 -4 103 -4q56 0 120 4v-60h-51l126 -291l119 273q0 1 1.5 3.5t2 5t0.5 3.5q0 6 -55 6v60q39 -4 110 -4q56 0 88 4v-60zM674 519l-20 -22l-158 99l-158 -99l-18 22l177 185z" />
    <glyph glyph-name="Ycircumflex" unicode="&#x176;" horiz-adv-x="1029" 
d="M988 626h-41q-30 0 -42 -1q-18 -2 -22 -3.5t-11 -8.5l-285 -338v-215h106v-60l-179 4l-179 -4v60h106v214l-298 352h-104v60l172 -4q139 0 191 4v-60h-68l221 -261l216 257q-29 4 -64 4v60l150 -4q71 0 131 4v-60zM690 761l-16 -24l-160 58l-160 -58l-14 24l175 141z" />
    <glyph glyph-name="ycircumflex" unicode="&#x177;" horiz-adv-x="731" 
d="M686 384h-21q-23 0 -35 -1q-10 -1 -13 -3.5t-8 -11.5l-230 -438q-38 -72 -100 -101.5t-118 -29.5q-55 0 -90.5 30t-35.5 73q0 33 20 50.5t48 17.5q27 0 47 -18t20 -49q0 -32 -22 -51q5 -2 14 -2q99 0 144 94l30 56l-222 384h-69v60q68 -4 121 -4q59 0 135 4v-60h-45
l147 -256l132 252q-21 4 -45 4v60l105 -4q16 0 37.5 1t37 2t16.5 1v-60zM543 519l-20 -22l-158 99l-158 -99l-18 22l177 185z" />
    <glyph glyph-name="Ydieresis" unicode="&#x178;" horiz-adv-x="1029" 
d="M988 626h-41q-30 0 -42 -1q-18 -2 -22 -3.5t-11 -8.5l-285 -338v-215h106v-60l-179 4l-179 -4v60h106v214l-298 352h-104v60l172 -4q139 0 191 4v-60h-68l221 -261l216 257q-29 4 -64 4v60l150 -4q71 0 131 4v-60zM428 811q0 -30 -21.5 -52t-53.5 -22q-31 0 -52.5 22
t-21.5 53q0 30 21.5 52.5t52.5 22.5q32 0 53.5 -22t21.5 -54zM751 811q0 -30 -21.5 -52t-53.5 -22q-31 0 -52.5 22t-21.5 53q0 30 21.5 52.5t52.5 22.5q32 0 53.5 -22t21.5 -54z" />
    <glyph glyph-name="Zacute" unicode="&#x179;" horiz-adv-x="844" 
d="M766 265l-22 -265h-624q-14 0 -20.5 1.5t-11 9t-4.5 22.5q0 19 10 31l468 562h-159q-217 0 -229 -167h-71l14 227h605q13 0 19 -1t11.5 -8.5t5.5 -22.5q0 -17 -11 -30l-466 -559h174q51 0 88 7.5t71.5 28t54.5 61.5t26 103h71zM598 838q-6 -38 -54 -50l-185 -41l-26 65
l166 98q21 11 37 11q32 0 51.5 -26t10.5 -57z" />
    <glyph glyph-name="zacute" unicode="&#x17a;" horiz-adv-x="619" 
d="M552 195l-22 -195h-448q-13 0 -19 1t-11.5 8t-5.5 21q0 16 12 29l315 334h-86q-73 0 -109 -23t-42 -96h-71l14 170h433q12 0 18 -1t12 -7.5t6 -20.5q0 -15 -13 -28l-312 -331h92q81 0 119 28t47 111h71zM481 631q0 -40 -45 -59l-175 -73l-37 60l147 125q20 18 44 18
q28 0 47 -23t19 -48z" />
    <glyph glyph-name="Zdotaccent" unicode="&#x17b;" horiz-adv-x="844" 
d="M766 265l-22 -265h-624q-14 0 -20.5 1.5t-11 9t-4.5 22.5q0 19 10 31l468 562h-159q-217 0 -229 -167h-71l14 227h605q13 0 19 -1t11.5 -8.5t5.5 -22.5q0 -17 -11 -30l-466 -559h174q51 0 88 7.5t71.5 28t54.5 61.5t26 103h71zM505 834q0 -34 -24 -58.5t-59 -24.5
t-59 24.5t-24 59.5q0 34 24 58.5t59 24.5t59 -24.5t24 -59.5z" />
    <glyph glyph-name="zdotaccent" unicode="&#x17c;" horiz-adv-x="619" 
d="M552 195l-22 -195h-448q-13 0 -19 1t-11.5 8t-5.5 21q0 16 12 29l315 334h-86q-73 0 -109 -23t-42 -96h-71l14 170h433q12 0 18 -1t12 -7.5t6 -20.5q0 -15 -13 -28l-312 -331h92q81 0 119 28t47 111h71zM392 600q0 -34 -24 -58.5t-59 -24.5t-59 24.5t-24 59.5
q0 34 24 58.5t59 24.5t59 -24.5t24 -59.5z" />
    <glyph glyph-name="Zcaron" unicode="&#x17d;" horiz-adv-x="844" 
d="M766 265l-22 -265h-624q-14 0 -20.5 1.5t-11 9t-4.5 22.5q0 19 10 31l468 562h-159q-217 0 -229 -167h-71l14 227h605q13 0 19 -1t11.5 -8.5t5.5 -22.5q0 -17 -11 -30l-466 -559h174q51 0 88 7.5t71.5 28t54.5 61.5t26 103h71zM597 878l-175 -141l-175 141l16 24l160 -58
l160 58z" />
    <glyph glyph-name="zcaron" unicode="&#x17e;" horiz-adv-x="619" 
d="M552 195l-22 -195h-448q-13 0 -19 1t-11.5 8t-5.5 21q0 16 12 29l315 334h-86q-73 0 -109 -23t-42 -96h-71l14 170h433q12 0 18 -1t12 -7.5t6 -20.5q0 -15 -13 -28l-312 -331h92q81 0 119 28t47 111h71zM487 682l-177 -185l-177 185l20 22l158 -99l158 99z" />
    <glyph glyph-name="longs" unicode="&#x17f;" horiz-adv-x="431" 
d="M520 605q0 -33 -21.5 -52t-49.5 -19q-26 0 -48 19t-22 52q0 22 12 37v6q0 2 -11 2q-51 0 -84 -29q-23 -28 -23 -87v-474h87v-60l-146 4q-79 0 -133 -4v60h69v324h-90v60h90v91q0 45 21.5 78.5t57 52t75.5 27t83 8.5q64 0 98.5 -28.5t34.5 -67.5z" />
    <glyph glyph-name="Ereversed" unicode="&#x18e;" horiz-adv-x="900" 
d="M852 0h-727l-54 254h71q23 -116 81 -155t171 -39h199v262h-76q-61 0 -89.5 -19t-28.5 -81h-71v260h71q0 -62 28.5 -81t89.5 -19h76v237h-188q-103 0 -156 -32.5t-69 -134.5h-71l36 227h707v-60h-106v-559h106v-60z" />
    <glyph glyph-name="florin" unicode="&#x192;" horiz-adv-x="431" 
d="M520 605q0 -33 -21.5 -52t-49.5 -19q-26 0 -48 19t-22 52q0 21 10 37l2 6q0 2 -11 2q-51 0 -84 -29q-30 -28 -30 -87v-90h144v-60h-137v-324h87v-60l-146 4q-79 0 -133 -4v60h69v324h-90v60h90v91q0 45 21.5 78.5t57 52t75.5 27t83 8.5q64 0 98.5 -28.5t34.5 -67.5z" />
    <glyph glyph-name="Ohorn" unicode="&#x1a0;" horiz-adv-x="1032" 
d="M945 338q0 -75 -30.5 -142.5t-87.5 -113.5q-118 -96 -313 -96t-313 96q-56 46 -86.5 113.5t-30.5 142.5q0 77 30 146t87 117q118 99 313 99q129 0 227 -45q27 7 45 32q-25 4 -38.5 23t-13.5 43q0 27 17.5 46.5t48.5 19.5q30 0 48.5 -25.5t18.5 -59.5q0 -38 -16 -70
t-43 -48q7 -5 19 -15q57 -48 87.5 -117t30.5 -146zM778 357q0 141 -64 211q-70 76 -200 76q-129 0 -199 -76q-64 -69 -64 -211q0 -154 64 -230q69 -82 199 -82q131 0 200 82q64 76 64 230z" />
    <glyph glyph-name="ohorn" unicode="&#x1a1;" horiz-adv-x="693" 
d="M651 492q0 -41 -18.5 -75t-49.5 -47q60 -62 60 -153q0 -101 -81 -163q-82 -61 -217 -61t-217 61q-81 62 -81 163q0 108 81 173q83 65 217 65q107 0 181 -41q29 8 44 32q-25 4 -38.5 22.5t-13.5 42.5q0 27 17.5 47t48.5 20q30 0 48.5 -25.5t18.5 -60.5zM500 231
q0 31 -1 48.5t-8 42t-20 39.5q-39 43 -126 43t-126 -43q-13 -15 -20 -39.5t-8 -42t-1 -48.5q0 -104 29 -138q38 -44 126 -44t126 44q29 34 29 138z" />
    <glyph glyph-name="Uhorn" unicode="&#x1af;" horiz-adv-x="1047" 
d="M1007 733q0 -53 -40 -89.5t-100 -47.5v-367q0 -53 -24.5 -100t-68.5 -79q-90 -64 -235 -64q-161 0 -260 64q-47 31 -75 78t-28 101v397h-106v60l183 -4l182 4v-60h-106v-397q0 -92 46 -134q56 -49 164 -49q119 0 184 50q61 47 61 133v392q-16 3 -27 4l-80 1v60
q67 -4 148 -4q23 0 42 4v-23q34 8 54 25q-23 6 -35 24.5t-12 40.5q0 27 17.5 46.5t48.5 19.5q30 0 48.5 -25.5t18.5 -60.5z" />
    <glyph glyph-name="uhorn" unicode="&#x1b0;" horiz-adv-x="768" 
d="M792 491q0 -52 -40 -86.5t-103 -47.5v-269q0 -19 11 -23q12 -5 58 -5v-60l-191 -7v67q-57 -67 -160 -67q-112 0 -163 25q-27 13 -42.5 39t-15.5 56v242q0 19 -12 23q-11 5 -57 5v60l198 8v-338q0 -45 12 -53q21 -16 92 -16q58 0 98.5 30.5t41.5 75.5v205q0 19 -11 23
q-12 5 -58 5v60l199 8v-28q37 7 57 24q-22 6 -34.5 24t-12.5 40q0 27 17.5 47t49.5 20q30 0 48 -26t18 -61z" />
    <glyph glyph-name="Acaron" unicode="&#x1cd;" horiz-adv-x="1029" 
d="M968 0l-166 4q-127 0 -182 -4v60h88l-66 142h-326l-57 -125l-5 -11q0 -6 63 -6h21v-60l-147 4q-44 0 -132 -4v60h39q31 0 42 1q15 1 18.5 3.5t8.5 11.5l276 603q6 13 15 19.5t15.5 7.5t19.5 1h41q14 0 20.5 -1t15 -7.5t14.5 -20.5l284 -618h100v-60zM615 262l-136 296
l-136 -296h272zM690 878l-175 -141l-175 141l16 24l160 -58l160 58z" />
    <glyph glyph-name="acaron" unicode="&#x1ce;" horiz-adv-x="675" 
d="M659 30q0 -14 -5.5 -21t-11.5 -8t-19 -1h-66q-103 0 -110 61q-48 -68 -181 -68q-15 0 -28 0.5t-43 3.5t-53 11.5t-47 21.5t-37.5 35.5t-13.5 52.5t16.5 54t46.5 39t58.5 26t66 17t56 8t39.5 4q24 2 47.5 2.5t36.5 1t15 0.5v21q0 113 -130 113q-77 0 -77 -8l2 -4
q12 -20 12 -42q0 -32 -21.5 -52t-50.5 -20q-28 0 -50 19.5t-22 53.5q0 30 16.5 51t37 31t54.5 15.5t52.5 6t47.5 0.5q131 0 195 -45.5t64 -117.5v-221q18 -11 63 -11q16 0 22.5 -1t12 -8t5.5 -21zM426 135v90q-95 -4 -147 -19q-106 -28 -106 -87q0 -33 32.5 -54t81.5 -21
q56 0 96 21q20 10 30 23.5t11.5 22.5t1.5 24zM515 682l-177 -185l-177 185l20 22l158 -99l158 99z" />
    <glyph glyph-name="Icaron" unicode="&#x1cf;" horiz-adv-x="506" 
d="M441 0q-55 4 -188 4q-134 0 -189 -4v60h112v566h-112v60q55 -4 189 -4q133 0 188 4v-60h-112v-566h112v-60zM428 878l-175 -141l-175 141l16 24l160 -58l160 58z" />
    <glyph glyph-name="icaron" unicode="&#x1d0;" horiz-adv-x="394" 
d="M335 0l-125 4l-130 -4v60h69v284q0 28 -10 33.5t-56 5.5v60l189 8v-391h63v-60zM374 682l-177 -185l-177 185l20 22l158 -99l158 99z" />
    <glyph glyph-name="Ocaron" unicode="&#x1d1;" horiz-adv-x="1032" 
d="M946 338q0 -70 -26.5 -132t-77.5 -112t-135.5 -79t-191.5 -29q-108 0 -192.5 29t-135.5 79t-77 112t-26 132q0 72 26.5 136.5t78 115.5t135.5 80.5t191 29.5t191 -29.5t135.5 -80.5t78 -115t26.5 -137zM779 355q0 148 -67 216q-73 73 -197 73q-126 0 -200 -76
q-64 -67 -64 -213q0 -157 69 -233q68 -77 195 -77q133 0 204 87q60 75 60 223zM691 878l-175 -141l-175 141l16 24l160 -58l160 58z" />
    <glyph glyph-name="ocaron" unicode="&#x1d2;" 
d="M646 218q0 -94 -75.5 -159.5t-224.5 -65.5q-148 0 -224 65.5t-76 159.5q0 44 17 85t51.5 75.5t94 55.5t137.5 21q77 0 137 -20.5t94.5 -55.5t51.5 -75.5t17 -85.5zM502 230q0 32 -1 49.5t-9 45t-23.5 42t-46.5 26t-76 11.5t-76 -11.5t-46.5 -26t-23.5 -42t-9 -45
t-1 -49.5q0 -24 0.5 -37t3.5 -35.5t8.5 -35t17 -28.5t27.5 -24.5t41.5 -14.5t57.5 -6t57.5 6t41.5 14.5t27.5 24.5t17 28.5t8.5 35t3.5 35.5t0.5 37zM524 682l-177 -185l-177 185l20 22l158 -99l158 99z" />
    <glyph glyph-name="Ucaron" unicode="&#x1d3;" horiz-adv-x="1047" 
d="M974 626l-85 -1q-15 -1 -18 -4t-3 -17v-373q0 -46 -18.5 -88t-56 -78t-103.5 -57.5t-152 -21.5q-176 0 -268.5 71t-92.5 175v394h-106v60q59 -4 183 -4l182 4v-60h-106v-397q0 -38 8 -67t29 -57t65 -43.5t109 -15.5q108 0 176 44.5t68 142.5v371q0 14 -3.5 17t-19.5 4
q-12 1 -41 1h-42v60q56 -4 148 -4q24 0 59.5 1t61 2t26.5 1v-60zM730 878l-175 -141l-175 141l16 24l160 -58l160 58z" />
    <glyph glyph-name="ucaron" unicode="&#x1d4;" horiz-adv-x="769" 
d="M720 0l-192 -7v65q-60 -65 -175 -65q-45 0 -77.5 4.5t-64.5 17.5t-48.5 39.5t-16.5 66.5v223q0 28 -10.5 33.5t-58.5 5.5v60l199 8v-341q0 -27 3.5 -38t24.5 -19.5t67 -8.5q62 0 106 28t44 88v184q0 28 -10.5 33.5t-58.5 5.5v60l199 8v-352q0 -28 10.5 -33.5t58.5 -5.5
v-60zM562 682l-177 -185l-177 185l20 22l158 -99l158 99z" />
    <glyph glyph-name="Udieresisacute" unicode="&#x1d7;" horiz-adv-x="1047" 
d="M974 626l-85 -1q-15 -1 -18 -4t-3 -17v-373q0 -46 -18.5 -88t-56 -78t-103.5 -57.5t-152 -21.5q-176 0 -268.5 71t-92.5 175v394h-106v60q59 -4 183 -4l182 4v-60h-106v-397q0 -38 8 -67t29 -57t65 -43.5t109 -15.5q108 0 176 44.5t68 142.5v371q0 14 -3.5 17t-19.5 4
q-12 1 -41 1h-42v60q56 -4 148 -4q24 0 59.5 1t61 2t26.5 1v-60zM468 811q0 -30 -21.5 -52t-53.5 -22q-31 0 -52.5 22t-21.5 53q0 30 21.5 52.5t52.5 22.5q32 0 53.5 -22t21.5 -54zM791 811q0 -30 -21.5 -52t-53.5 -22q-31 0 -52.5 22t-21.5 53q0 30 21.5 52.5t52.5 22.5
q32 0 53.5 -22t21.5 -54zM731 1038q-6 -38 -54 -50l-185 -41l-26 65l166 98q21 11 37 11q32 0 51.5 -26t10.5 -57z" />
    <glyph glyph-name="udieresisacute" unicode="&#x1d8;" horiz-adv-x="769" 
d="M720 0l-192 -7v65q-60 -65 -175 -65q-45 0 -77.5 4.5t-64.5 17.5t-48.5 39.5t-16.5 66.5v223q0 28 -10.5 33.5t-58.5 5.5v60l199 8v-341q0 -27 3.5 -38t24.5 -19.5t67 -8.5q62 0 106 28t44 88v184q0 28 -10.5 33.5t-58.5 5.5v60l199 8v-352q0 -28 10.5 -33.5t58.5 -5.5
v-60zM323 600q0 -30 -21.5 -52t-53.5 -22q-31 0 -52.5 22t-21.5 53q0 30 21.5 52.5t52.5 22.5q32 0 53.5 -22t21.5 -54zM596 600q0 -30 -21.5 -52t-53.5 -22q-31 0 -52.5 22t-21.5 53q0 30 21.5 52.5t52.5 22.5q32 0 53.5 -22t21.5 -54zM561 828q-6 -38 -54 -50l-185 -41
l-26 65l166 98q21 11 37 11q32 0 51.5 -26t10.5 -57z" />
    <glyph glyph-name="Udieresiscaron" unicode="&#x1d9;" horiz-adv-x="1047" 
d="M974 626l-85 -1q-15 -1 -18 -4t-3 -17v-373q0 -46 -18.5 -88t-56 -78t-103.5 -57.5t-152 -21.5q-176 0 -268.5 71t-92.5 175v394h-106v60q59 -4 183 -4l182 4v-60h-106v-397q0 -38 8 -67t29 -57t65 -43.5t109 -15.5q108 0 176 44.5t68 142.5v371q0 14 -3.5 17t-19.5 4
q-12 1 -41 1h-42v60q56 -4 148 -4q24 0 59.5 1t61 2t26.5 1v-60zM468 811q0 -30 -21.5 -52t-53.5 -22q-31 0 -52.5 22t-21.5 53q0 30 21.5 52.5t52.5 22.5q32 0 53.5 -22t21.5 -54zM791 811q0 -30 -21.5 -52t-53.5 -22q-31 0 -52.5 22t-21.5 53q0 30 21.5 52.5t52.5 22.5
q32 0 53.5 -22t21.5 -54zM730 1078l-175 -141l-175 141l16 24l160 -58l160 58z" />
    <glyph glyph-name="udieresiscaron" unicode="&#x1da;" horiz-adv-x="769" 
d="M720 0l-192 -7v65q-60 -65 -175 -65q-45 0 -77.5 4.5t-64.5 17.5t-48.5 39.5t-16.5 66.5v223q0 28 -10.5 33.5t-58.5 5.5v60l199 8v-341q0 -27 3.5 -38t24.5 -19.5t67 -8.5q62 0 106 28t44 88v184q0 28 -10.5 33.5t-58.5 5.5v60l199 8v-352q0 -28 10.5 -33.5t58.5 -5.5
v-60zM323 600q0 -30 -21.5 -52t-53.5 -22q-31 0 -52.5 22t-21.5 53q0 30 21.5 52.5t52.5 22.5q32 0 53.5 -22t21.5 -54zM596 600q0 -30 -21.5 -52t-53.5 -22q-31 0 -52.5 22t-21.5 53q0 30 21.5 52.5t52.5 22.5q32 0 53.5 -22t21.5 -54zM560 868l-175 -141l-175 141l16 24
l160 -58l160 58z" />
    <glyph glyph-name="Udieresisgrave" unicode="&#x1db;" horiz-adv-x="1047" 
d="M974 626l-85 -1q-15 -1 -18 -4t-3 -17v-373q0 -46 -18.5 -88t-56 -78t-103.5 -57.5t-152 -21.5q-176 0 -268.5 71t-92.5 175v394h-106v60q59 -4 183 -4l182 4v-60h-106v-397q0 -38 8 -67t29 -57t65 -43.5t109 -15.5q108 0 176 44.5t68 142.5v371q0 14 -3.5 17t-19.5 4
q-12 1 -41 1h-42v60q56 -4 148 -4q24 0 59.5 1t61 2t26.5 1v-60zM468 811q0 -30 -21.5 -52t-53.5 -22q-31 0 -52.5 22t-21.5 53q0 30 21.5 52.5t52.5 22.5q32 0 53.5 -22t21.5 -54zM791 811q0 -30 -21.5 -52t-53.5 -22q-31 0 -52.5 22t-21.5 53q0 30 21.5 52.5t52.5 22.5
q32 0 53.5 -22t21.5 -54zM644 1012l-26 -65l-185 41q-48 12 -54 50q-9 31 10.5 57t51.5 26q16 0 37 -11z" />
    <glyph glyph-name="udieresisgrave" unicode="&#x1dc;" horiz-adv-x="769" 
d="M720 0l-192 -7v65q-60 -65 -175 -65q-45 0 -77.5 4.5t-64.5 17.5t-48.5 39.5t-16.5 66.5v223q0 28 -10.5 33.5t-58.5 5.5v60l199 8v-341q0 -27 3.5 -38t24.5 -19.5t67 -8.5q62 0 106 28t44 88v184q0 28 -10.5 33.5t-58.5 5.5v60l199 8v-352q0 -28 10.5 -33.5t58.5 -5.5
v-60zM323 600q0 -30 -21.5 -52t-53.5 -22q-31 0 -52.5 22t-21.5 53q0 30 21.5 52.5t52.5 22.5q32 0 53.5 -22t21.5 -54zM596 600q0 -30 -21.5 -52t-53.5 -22q-31 0 -52.5 22t-21.5 53q0 30 21.5 52.5t52.5 22.5q32 0 53.5 -22t21.5 -54zM474 802l-26 -65l-185 41
q-48 12 -54 50q-9 31 10.5 57t51.5 26q16 0 37 -11z" />
    <glyph glyph-name="eturned" unicode="&#x1dd;" horiz-adv-x="634" 
d="M586 222q0 -92 -73 -160.5t-216 -68.5q-111 0 -173 47q-78 58 -78 173q0 15 5.5 22t11.5 8t19 1h359q-6 155 -181 155q-110 0 -145 -74q-7 -13 -33 -13q-36 0 -36 23q0 15 23.5 45t64.5 48q58 27 145 27q151 0 229 -68.5t78 -164.5zM442 197h-296q8 -153 151 -153
q141 0 145 153z" />
    <glyph glyph-name="Gcaron" unicode="&#x1e6;" horiz-adv-x="1077" 
d="M1001 213h-94v-179q0 -34 -21 -34q-7 0 -37.5 13t-44.5 22q-33 -31 -90.5 -40t-145.5 -9q-122 0 -215 28.5t-142.5 68.5t-79.5 93t-38.5 91.5t-8.5 75.5q0 71 29 134.5t85 113.5t146 79.5t203 29.5q136 0 239 -68l67 57q12 11 27 11q13 0 19 -5t7 -11t1 -18v-213
q0 -22 -6 -28t-28 -6h-15q-30 0 -33 17q-11 58 -40 100.5t-68 63.5t-75.5 30.5t-72.5 9.5q-148 0 -238 -74q-80 -69 -80 -223q0 -297 339 -297q58 0 94.5 7t50 21t16.5 24t3 26v89h-169v60q51 -4 236 -4l180 4v-60zM714 878l-175 -141l-175 141l16 24l160 -58l160 58z" />
    <glyph glyph-name="gcaron" unicode="&#x1e7;" 
d="M664 387q0 -23 -15 -38.5t-39 -15.5t-38.5 15.5t-14.5 38.5q1 13 2 18q-29 -3 -60 -15q39 -39 39 -91q0 -26 -11.5 -50.5t-36 -48.5t-71.5 -38.5t-111 -14.5q-80 0 -137 25q-5 -8 -5 -22q0 -28 22 -45q13 -11 25 -13t46 -2h56q70 0 101.5 -1t68.5 -7.5t70 -19.5
q49 -20 70 -57t21 -74q0 -64 -81 -98.5t-219 -34.5q-151 0 -225.5 37.5t-74.5 92.5q0 31 24.5 53.5t69.5 33.5q-39 39 -39 96q0 47 31 85q-53 46 -53 103q0 26 11.5 50.5t36 48.5t71.5 38.5t111 14.5q89 0 150 -31q59 38 124 38q38 0 59.5 -22t21.5 -49zM416 299q0 16 -1 26
t-6.5 25.5t-16.5 25t-32.5 16.5t-51.5 7q-37 0 -61 -9.5t-33 -27.5t-11 -30.5t-2 -32.5q0 -16 1 -26t6.5 -25.5t16.5 -25t32.5 -16.5t51.5 -7q37 0 61 9.5t33 27.5t11 30.5t2 32.5zM544 -72q0 50 -163 50h-146q-23 0 -40.5 -4.5t-26 -10t-13.5 -13t-6 -12t-1 -9.5
q0 -31 49.5 -55t148.5 -24q53 0 93.5 7.5t62 20t32 25t10.5 25.5zM475 682l-177 -185l-177 185l20 22l158 -99l158 99z" />
    <glyph glyph-name="Oogonek" unicode="&#x1ea;" horiz-adv-x="1032" 
d="M946 338q0 -67 -24 -126.5t-70.5 -108.5t-123 -80t-174.5 -36q-18 -17 -26 -41q-11 -31 7 -55t48 -24q13 0 48 25q14 9 33 -6q7 -7 10.5 -18.5t-0.5 -19.5q-49 -72 -125 -72q-58 0 -94.5 34.5t-36.5 80.5q0 47 47 97q-187 13 -284 112.5t-97 237.5q0 72 26.5 136.5
t78 115.5t135.5 80.5t191 29.5t191 -29.5t135.5 -80.5t78 -115t26.5 -137zM779 355q0 148 -67 216q-73 73 -197 73q-126 0 -200 -76q-64 -67 -64 -213q0 -157 69 -233q68 -77 195 -77q133 0 204 87q60 75 60 223z" />
    <glyph glyph-name="oogonek" unicode="&#x1eb;" 
d="M646 218q0 -89 -68 -153t-203 -71q-23 -19 -34 -48q-10 -31 8 -55t47 -24q13 0 48 25q14 9 33 -6q7 -7 10.5 -18.5t-0.5 -19.5q-49 -72 -125 -72q-58 0 -94.5 34.5t-36.5 80.5q0 51 56 105q-119 13 -180 75.5t-61 146.5q0 44 17 85t51.5 75.5t94 55.5t137.5 21
q77 0 137 -20.5t94.5 -55.5t51.5 -75.5t17 -85.5zM502 230q0 32 -1 49.5t-9 45t-23.5 42t-46.5 26t-76 11.5t-76 -11.5t-46.5 -26t-23.5 -42t-9 -45t-1 -49.5q0 -24 0.5 -37t3.5 -35.5t8.5 -35t17 -28.5t27.5 -24.5t41.5 -14.5t57.5 -6t57.5 6t41.5 14.5t27.5 24.5t17 28.5
t8.5 35t3.5 35.5t0.5 37z" />
    <glyph glyph-name="jcaron" unicode="&#x1f0;" horiz-adv-x="431" 
d="M325 -36q0 -57 -35 -96t-80.5 -54t-95.5 -15q-75 0 -119 27t-44 75q0 31 20.5 51.5t51.5 20.5t51.5 -20.5t20.5 -51.5q0 -21 -11 -39l-3 -7q0 -5 35 -5q37 0 61.5 31.5t24.5 83.5v378q0 13 -1 19t-6 11.5t-15 7.5q-15 2 -54 2v60l199 8v-487zM419 682l-177 -185l-177 185
l20 22l158 -99l158 99z" />
    <glyph glyph-name="Gacute" unicode="&#x1f4;" horiz-adv-x="1077" 
d="M1001 213h-94v-179q0 -34 -21 -34q-7 0 -37.5 13t-44.5 22q-33 -31 -90.5 -40t-145.5 -9q-122 0 -215 28.5t-142.5 68.5t-79.5 93t-38.5 91.5t-8.5 75.5q0 71 29 134.5t85 113.5t146 79.5t203 29.5q136 0 239 -68l67 57q12 11 27 11q13 0 19 -5t7 -11t1 -18v-213
q0 -22 -6 -28t-28 -6h-15q-30 0 -33 17q-11 58 -40 100.5t-68 63.5t-75.5 30.5t-72.5 9.5q-148 0 -238 -74q-80 -69 -80 -223q0 -297 339 -297q58 0 94.5 7t50 21t16.5 24t3 26v89h-169v60q51 -4 236 -4l180 4v-60zM715 838q-6 -38 -54 -50l-185 -41l-26 65l166 98
q21 11 37 11q32 0 51.5 -26t10.5 -57z" />
    <glyph glyph-name="gacute" unicode="&#x1f5;" 
d="M664 387q0 -23 -15 -38.5t-39 -15.5t-38.5 15.5t-14.5 38.5q1 13 2 18q-29 -3 -60 -15q39 -39 39 -91q0 -26 -11.5 -50.5t-36 -48.5t-71.5 -38.5t-111 -14.5q-80 0 -137 25q-5 -8 -5 -22q0 -28 22 -45q13 -11 25 -13t46 -2h56q70 0 101.5 -1t68.5 -7.5t70 -19.5
q49 -20 70 -57t21 -74q0 -64 -81 -98.5t-219 -34.5q-151 0 -225.5 37.5t-74.5 92.5q0 31 24.5 53.5t69.5 33.5q-39 39 -39 96q0 47 31 85q-53 46 -53 103q0 26 11.5 50.5t36 48.5t71.5 38.5t111 14.5q89 0 150 -31q59 38 124 38q38 0 59.5 -22t21.5 -49zM416 299q0 16 -1 26
t-6.5 25.5t-16.5 25t-32.5 16.5t-51.5 7q-37 0 -61 -9.5t-33 -27.5t-11 -30.5t-2 -32.5q0 -16 1 -26t6.5 -25.5t16.5 -25t32.5 -16.5t51.5 -7q37 0 61 9.5t33 27.5t11 30.5t2 32.5zM544 -72q0 50 -163 50h-146q-23 0 -40.5 -4.5t-26 -10t-13.5 -13t-6 -12t-1 -9.5
q0 -31 49.5 -55t148.5 -24q53 0 93.5 7.5t62 20t32 25t10.5 25.5zM469 631q0 -40 -45 -59l-175 -73l-37 60l147 125q20 18 44 18q28 0 47 -23t19 -48z" />
    <glyph glyph-name="Aringacute" unicode="&#x1fa;" horiz-adv-x="1029" 
d="M968 0l-166 4q-127 0 -182 -4v60h88l-66 142h-326l-57 -125l-5 -11q0 -6 63 -6h21v-60l-147 4q-44 0 -132 -4v60h39q31 0 42 1q15 1 18.5 3.5t8.5 11.5l276 603q6 13 15 19.5t15.5 7.5t19.5 1h41q14 0 20.5 -1t15 -7.5t14.5 -20.5l284 -618h100v-60zM615 262l-136 296
l-136 -296h272zM582 791q0 18 -9.5 26t-20.5 9.5t-38 1.5t-38 -1.5t-20.5 -9.5t-9.5 -26t9 -26t20 -9.5t39 -1.5q40 0 54 6.5t14 30.5zM662 790q0 -31 -34 -57t-115 -26q-77 0 -112 26t-35 57q0 34 35 59.5t114 25.5q75 0 111 -25t36 -60zM645 1001q-6 -38 -54 -50l-185 -41
l-26 65l166 98q21 11 37 11q32 0 51.5 -26t10.5 -57z" />
    <glyph glyph-name="aringacute" unicode="&#x1fb;" horiz-adv-x="675" 
d="M659 30q0 -14 -5.5 -21t-11.5 -8t-19 -1h-66q-103 0 -110 61q-48 -68 -181 -68q-15 0 -28 0.5t-43 3.5t-53 11.5t-47 21.5t-37.5 35.5t-13.5 52.5t16.5 54t46.5 39t58.5 26t66 17t56 8t39.5 4q24 2 47.5 2.5t36.5 1t15 0.5v21q0 113 -130 113q-77 0 -77 -8l2 -4
q12 -20 12 -42q0 -32 -21.5 -52t-50.5 -20q-28 0 -50 19.5t-22 53.5q0 30 16.5 51t37 31t54.5 15.5t52.5 6t47.5 0.5q131 0 195 -45.5t64 -117.5v-221q18 -11 63 -11q16 0 22.5 -1t12 -8t5.5 -21zM426 135v90q-95 -4 -147 -19q-106 -28 -106 -87q0 -33 32.5 -54t81.5 -21
q56 0 96 21q20 10 30 23.5t11.5 22.5t1.5 24zM405 614q0 18 -9.5 26t-20.5 9.5t-38 1.5t-38 -1.5t-20.5 -9.5t-9.5 -26t9 -26t20 -9.5t39 -1.5q40 0 54 6.5t14 30.5zM485 613q0 -31 -34 -57t-115 -26q-77 0 -112 26t-35 57q0 34 35 59.5t114 25.5q75 0 111 -25t36 -60z
M468 824q-6 -38 -54 -50l-185 -41l-26 65l166 98q21 11 37 11q32 0 51.5 -26t10.5 -57z" />
    <glyph glyph-name="AEacute" unicode="&#x1fc;" horiz-adv-x="1236" 
d="M1188 254l-54 -254h-644v60h80v240h-208l-103 -223l-5 -11q0 -6 63 -6h21v-60l-59 2q-59 2 -88 2q-44 0 -132 -4v60h39q31 0 42 1q15 1 18.5 3.5t8.5 11.5l254 550h-56v60h749l36 -227h-71q-15 99 -61.5 133t-143.5 34h-159v-266h82q61 0 90 19t29 81h71v-260h-71
q0 62 -29 81t-90 19h-82v-240h171q112 0 160 43.5t71 150.5h71zM570 360v266h-57l-123 -266h180zM794 838q-6 -38 -54 -50l-185 -41l-26 65l166 98q21 11 37 11q32 0 51.5 -26t10.5 -57z" />
    <glyph glyph-name="aeacute" unicode="&#x1fd;" horiz-adv-x="994" 
d="M946 113q0 -5 -4.5 -17t-19 -30.5t-37 -34t-62.5 -27t-91 -11.5q-131 0 -215 61q-56 -61 -237 -61q-223 0 -223 118q0 49 42.5 75t118.5 43q92 19 192 19h21v43q0 113 -130 113q-77 0 -77 -8l2 -4q12 -20 12 -42q0 -32 -21.5 -52t-50.5 -20q-28 0 -50 19.5t-22 53.5
q0 30 16.5 51t37 31t54.5 15.5t52.5 6t47.5 0.5q142 0 213 -59q75 59 200 59q113 0 172 -58q59 -59 59 -161q0 -22 -8 -27t-28 -5h-348q6 -78 51 -114q52 -41 137 -41q93 0 125 67q6 14 11.5 17t23.5 3q36 0 36 -23zM845 251q-4 153 -130 153q-44 0 -75.5 -14t-47.5 -38.5
t-22.5 -48.5t-7.5 -52h283zM451 125q0 11 -3 17q-13 33 -16 59q-85 -2 -145 -17q-101 -24 -101 -72q0 -29 30 -48.5t78 -19.5q16 0 35.5 2t50.5 9t51 25t20 45zM668 631q0 -40 -45 -59l-175 -73l-37 60l147 125q20 18 44 18q28 0 47 -23t19 -48z" />
    <glyph glyph-name="Oslashacute" unicode="&#x1fe;" horiz-adv-x="1069" 
d="M983 339q0 -70 -27 -131.5t-79.5 -112t-141 -80t-202.5 -29.5q-125 0 -226 38l-74 -91l-43 36l65 80q-84 49 -127.5 124t-43.5 166q0 69 26 131.5t78 115t141.5 83.5t204.5 31q123 0 225 -39l75 92l43 -36l-67 -82q61 -34 101.5 -86.5t56 -104.5t15.5 -105zM714 608
q-72 41 -181 41q-61 0 -109.5 -13t-79 -32t-52 -49.5t-32 -55t-16.5 -60.5t-6.5 -54t-0.5 -46q0 -162 70 -227zM830 339q0 171 -72 234l-406 -496q71 -40 182 -40q61 0 109 12.5t78.5 30.5t52.5 47.5t32.5 53.5t16 58.5t6.5 53t1 46.5zM711 838q-6 -38 -54 -50l-185 -41
l-26 65l166 98q21 11 37 11q32 0 51.5 -26t10.5 -57z" />
    <glyph glyph-name="oslashacute" unicode="&#x1ff;" 
d="M646 218q0 -94 -75.5 -159.5t-224.5 -65.5q-68 0 -126 16l-88 -121l-42 30l81 110q-59 27 -92 78t-33 112q0 44 17 85t51.5 75.5t94 55.5t137.5 21q68 0 127 -17l87 119l42 -30l-80 -109q51 -27 81 -69.5t36.5 -72t6.5 -58.5zM436 389q-37 15 -90 15q-41 0 -71.5 -8
t-48.5 -24.5t-29 -32t-15 -41t-5 -40t-1 -39.5q0 -31 1.5 -50t10 -44t25.5 -40zM516 219q0 103 -37 141l-223 -303q36 -13 90 -13q41 0 71.5 7t48.5 22.5t29 29.5t15 38.5t5 38.5t1 39zM518 631q0 -40 -45 -59l-175 -73l-37 60l147 125q20 18 44 18q28 0 47 -23t19 -48z" />
    <glyph glyph-name="Adblgrave" unicode="&#x200;" horiz-adv-x="1029" 
d="M968 0l-166 4q-127 0 -182 -4v60h88l-66 142h-326l-57 -125l-5 -11q0 -6 63 -6h21v-60l-147 4q-44 0 -132 -4v60h39q31 0 42 1q15 1 18.5 3.5t8.5 11.5l276 603q6 13 15 19.5t15.5 7.5t19.5 1h41q14 0 20.5 -1t15 -7.5t14.5 -20.5l284 -618h100v-60zM615 262l-136 296
l-136 -296h272zM655 793l-55 -46l-104 79q-32 24 -32 54q0 26 22 48t51 22q34 0 56 -40zM430 793l-55 -46l-104 79q-32 24 -32 54q0 26 22 48t51 22q34 0 56 -40z" />
    <glyph glyph-name="adblgrave" unicode="&#x201;" horiz-adv-x="675" 
d="M659 30q0 -14 -5.5 -21t-11.5 -8t-19 -1h-66q-103 0 -110 61q-48 -68 -181 -68q-15 0 -28 0.5t-43 3.5t-53 11.5t-47 21.5t-37.5 35.5t-13.5 52.5t16.5 54t46.5 39t58.5 26t66 17t56 8t39.5 4q24 2 47.5 2.5t36.5 1t15 0.5v21q0 113 -130 113q-77 0 -77 -8l2 -4
q12 -20 12 -42q0 -32 -21.5 -52t-50.5 -20q-28 0 -50 19.5t-22 53.5q0 30 16.5 51t37 31t54.5 15.5t52.5 6t47.5 0.5q131 0 195 -45.5t64 -117.5v-221q18 -11 63 -11q16 0 22.5 -1t12 -8t5.5 -21zM426 135v90q-95 -4 -147 -19q-106 -28 -106 -87q0 -33 32.5 -54t81.5 -21
q56 0 96 21q20 10 30 23.5t11.5 22.5t1.5 24zM516 545l-55 -46l-104 79q-32 24 -32 54q0 26 22 48t51 22q34 0 56 -40zM291 545l-55 -46l-104 79q-32 24 -32 54q0 26 22 48t51 22q34 0 56 -40z" />
    <glyph glyph-name="Edblgrave" unicode="&#x204;" horiz-adv-x="900" 
d="M852 254l-54 -254h-727v60h106v559h-106v60h707l36 -227h-71q-16 102 -69 134.5t-156 32.5h-188v-237h76q61 0 89.5 19t28.5 81h71v-260h-71q0 62 -28.5 81t-89.5 19h-76v-262h199q113 0 171 39t81 155h71zM628 793l-55 -46l-104 79q-32 24 -32 54q0 26 22 48t51 22
q34 0 56 -40zM403 793l-55 -46l-104 79q-32 24 -32 54q0 26 22 48t51 22q34 0 56 -40z" />
    <glyph glyph-name="edblgrave" unicode="&#x205;" horiz-adv-x="634" 
d="M586 113q0 -15 -23.5 -45t-64.5 -48q-58 -27 -145 -27q-151 0 -229 68.5t-78 164.5q0 92 73 160.5t216 68.5q111 0 173 -47q78 -58 78 -173q0 -15 -5.5 -22t-11.5 -8t-19 -1h-359q6 -155 181 -155q110 0 145 74q7 13 33 13q36 0 36 -23zM486 251q-8 153 -151 153
q-141 0 -145 -153h296zM495 545l-55 -46l-104 79q-32 24 -32 54q0 26 22 48t51 22q34 0 56 -40zM270 545l-55 -46l-104 79q-32 24 -32 54q0 26 22 48t51 22q34 0 56 -40z" />
    <glyph glyph-name="Idblgrave" unicode="&#x208;" horiz-adv-x="506" 
d="M441 0q-55 4 -188 4q-134 0 -189 -4v60h112v566h-112v60q55 -4 189 -4q133 0 188 4v-60h-112v-566h112v-60zM431 793l-55 -46l-104 79q-32 24 -32 54q0 26 22 48t51 22q34 0 56 -40zM206 793l-55 -46l-104 79q-32 24 -32 54q0 26 22 48t51 22q34 0 56 -40z" />
    <glyph glyph-name="idblgrave" unicode="&#x209;" horiz-adv-x="394" 
d="M335 0l-125 4l-130 -4v60h69v284q0 28 -10 33.5t-56 5.5v60l189 8v-391h63v-60zM375 545l-55 -46l-104 79q-32 24 -32 54q0 26 22 48t51 22q34 0 56 -40zM150 545l-55 -46l-104 79q-32 24 -32 54q0 26 22 48t51 22q34 0 56 -40z" />
    <glyph glyph-name="Odblgrave" unicode="&#x20c;" horiz-adv-x="1032" 
d="M946 338q0 -70 -26.5 -132t-77.5 -112t-135.5 -79t-191.5 -29q-108 0 -192.5 29t-135.5 79t-77 112t-26 132q0 72 26.5 136.5t78 115.5t135.5 80.5t191 29.5t191 -29.5t135.5 -80.5t78 -115t26.5 -137zM779 355q0 148 -67 216q-73 73 -197 73q-126 0 -200 -76
q-64 -67 -64 -213q0 -157 69 -233q68 -77 195 -77q133 0 204 87q60 75 60 223zM694 793l-55 -46l-104 79q-32 24 -32 54q0 26 22 48t51 22q34 0 56 -40zM469 793l-55 -46l-104 79q-32 24 -32 54q0 26 22 48t51 22q34 0 56 -40z" />
    <glyph glyph-name="odblgrave" unicode="&#x20d;" 
d="M646 218q0 -94 -75.5 -159.5t-224.5 -65.5q-148 0 -224 65.5t-76 159.5q0 44 17 85t51.5 75.5t94 55.5t137.5 21q77 0 137 -20.5t94.5 -55.5t51.5 -75.5t17 -85.5zM502 230q0 32 -1 49.5t-9 45t-23.5 42t-46.5 26t-76 11.5t-76 -11.5t-46.5 -26t-23.5 -42t-9 -45
t-1 -49.5q0 -24 0.5 -37t3.5 -35.5t8.5 -35t17 -28.5t27.5 -24.5t41.5 -14.5t57.5 -6t57.5 6t41.5 14.5t27.5 24.5t17 28.5t8.5 35t3.5 35.5t0.5 37zM525 545l-55 -46l-104 79q-32 24 -32 54q0 26 22 48t51 22q34 0 56 -40zM300 545l-55 -46l-104 79q-32 24 -32 54
q0 26 22 48t51 22q34 0 56 -40z" />
    <glyph glyph-name="Rdblgrave" unicode="&#x210;" horiz-adv-x="1019" 
d="M1004 100q0 -12 -5.5 -28.5t-18.5 -37t-44 -34.5t-75 -14q-118 0 -175 31q-23 13 -36.5 28t-19.5 37.5t-7 39.5t-1 53q0 51 -6.5 72t-35.5 43q-40 28 -105 28h-150v-258h106v-60l-179 4l-179 -4v60h106v566h-106v60h423q153 0 248 -53t95 -135q0 -56 -47.5 -97
t-119.5 -61q32 -14 53 -31t32 -40t15 -39t8 -46q6 -33 8.5 -48t10 -38.5t16 -33.5t23 -18.5t34.5 -8.5q11 0 21.5 3t24 19.5t15.5 45.5q2 21 35 21q12 0 18 -1t12 -7t6 -18zM672 498q0 30 -7 51t-25.5 39.5t-56.5 28t-96 9.5h-162v-257h161q60 0 99 10t57 30t24 40t6 49z
M650 793l-55 -46l-104 79q-32 24 -32 54q0 26 22 48t51 22q34 0 56 -40zM425 793l-55 -46l-104 79q-32 24 -32 54q0 26 22 48t51 22q34 0 56 -40z" />
    <glyph glyph-name="rdblgrave" unicode="&#x211;" horiz-adv-x="571" 
d="M523 359q0 -32 -21.5 -51t-48.5 -19t-48.5 19t-21.5 51q0 25 12 41q-63 -4 -100 -61.5t-37 -135.5v-143h87v-60l-146 4q-79 0 -133 -4v60h69v284q0 28 -10.5 33.5t-58.5 5.5v60l177 8v-111h1q21 45 61 78t97 33q49 0 85 -25t36 -67zM464 545l-55 -46l-104 79
q-32 24 -32 54q0 26 22 48t51 22q34 0 56 -40zM239 545l-55 -46l-104 79q-32 24 -32 54q0 26 22 48t51 22q34 0 56 -40z" />
    <glyph glyph-name="Udblgrave" unicode="&#x214;" horiz-adv-x="1047" 
d="M974 626l-85 -1q-15 -1 -18 -4t-3 -17v-373q0 -46 -18.5 -88t-56 -78t-103.5 -57.5t-152 -21.5q-176 0 -268.5 71t-92.5 175v394h-106v60q59 -4 183 -4l182 4v-60h-106v-397q0 -38 8 -67t29 -57t65 -43.5t109 -15.5q108 0 176 44.5t68 142.5v371q0 14 -3.5 17t-19.5 4
q-12 1 -41 1h-42v60q56 -4 148 -4q24 0 59.5 1t61 2t26.5 1v-60zM733 793l-55 -46l-104 79q-32 24 -32 54q0 26 22 48t51 22q34 0 56 -40zM508 793l-55 -46l-104 79q-32 24 -32 54q0 26 22 48t51 22q34 0 56 -40z" />
    <glyph glyph-name="udblgrave" unicode="&#x215;" horiz-adv-x="769" 
d="M720 0l-192 -7v65q-60 -65 -175 -65q-45 0 -77.5 4.5t-64.5 17.5t-48.5 39.5t-16.5 66.5v223q0 28 -10.5 33.5t-58.5 5.5v60l199 8v-341q0 -27 3.5 -38t24.5 -19.5t67 -8.5q62 0 106 28t44 88v184q0 28 -10.5 33.5t-58.5 5.5v60l199 8v-352q0 -28 10.5 -33.5t58.5 -5.5
v-60zM563 545l-55 -46l-104 79q-32 24 -32 54q0 26 22 48t51 22q34 0 56 -40zM338 545l-55 -46l-104 79q-32 24 -32 54q0 26 22 48t51 22q34 0 56 -40z" />
    <glyph glyph-name="uni0218" unicode="&#x218;" horiz-adv-x="769" 
d="M683 201q0 -28 -7.5 -56t-27 -57.5t-48.5 -51.5t-76.5 -36t-107.5 -14q-150 0 -237 50q-20 -18 -30 -28q-16 -16 -21.5 -19t-16.5 -3q-13 0 -19 5t-7 11t-1 18v173q0 23 6.5 29t29.5 6t28.5 -5.5t6.5 -23.5q8 -153 261 -153q53 0 89 13t51 33.5t20 36t5 30.5
q0 43 -33.5 70.5t-76.5 37.5q-4 1 -31 6t-57.5 11t-37.5 7q-53 9 -80 15.5t-61 22t-58 38.5q-62 59 -62 131q0 37 14.5 71.5t44.5 64.5t82.5 48t121.5 18q115 0 192 -47l9 -5q8 6 10 8l34 33q11 11 27 11q13 0 19 -5t7 -11t1 -18v-174q0 -23 -6.5 -28.5t-29.5 -5.5
q-20 0 -26.5 4t-9.5 21q-29 162 -227 162q-85 0 -123 -31t-38 -71q0 -36 32.5 -62.5t83.5 -35.5l179 -33q81 -15 141.5 -71.5t60.5 -139.5zM453 -140q0 -37 -13.5 -71.5t-31 -55.5t-33 -33.5t-22.5 -12.5t-13.5 7t-6.5 14q0 9 9 14q65 48 71 120q-12 -9 -33 -9q-29 0 -46 18
t-17 45q0 26 17 44t45 18q33 0 53.5 -28t20.5 -70z" />
    <glyph glyph-name="uni0219" unicode="&#x219;" horiz-adv-x="551" 
d="M495 142q0 -35 -13 -62.5t-36 -42.5t-45 -25t-51 -13.5t-42.5 -4.5t-29.5 -1q-84 0 -137 28q-3 -1 -13.5 -7.5t-13.5 -8.5q-20 -12 -33 -12t-19 5t-7 11t-1 18v94q0 23 6.5 29t29.5 6q20 0 25.5 -3.5t11.5 -19.5q33 -89 152 -89q132 0 132 66q0 18 -11.5 30.5t-35.5 20.5
t-40.5 11t-48.5 8q-25 3 -40.5 5.5t-41.5 8.5t-42.5 12t-37 17t-32 24t-19.5 31.5t-8 41.5q0 71 66 107q52 28 153 28q75 0 116 -15q32 15 45 15t19 -5t7 -11t1 -18v-66q0 -23 -6.5 -28.5t-29.5 -5.5q-14 0 -19.5 1t-10 6.5t-5.5 18.5q-5 62 -122 62q-130 0 -130 -54
q0 -14 9 -23.5t29.5 -15.5t38 -9.5t48.5 -7.5q53 -8 77 -12.5t52 -15t50 -27.5q53 -45 53 -102zM344 -140q0 -37 -13.5 -71.5t-31 -55.5t-33 -33.5t-22.5 -12.5t-13.5 7t-6.5 14q0 9 9 14q65 48 71 120q-12 -9 -33 -9q-29 0 -46 18t-17 45q0 26 17 44t45 18q33 0 53.5 -28
t20.5 -70z" />
    <glyph glyph-name="uni021A" unicode="&#x21a;" horiz-adv-x="957" 
d="M897 444h-71q-9 90 -42 128.5t-127 38.5h-103v-551h151v-60q-49 4 -228 4q-178 0 -227 -4v60h151v551h-103q-94 0 -127 -38.5t-42 -128.5h-71l25 227h789zM547 -140q0 -37 -13.5 -71.5t-31 -55.5t-33 -33.5t-22.5 -12.5t-13.5 7t-6.5 14q0 9 9 14q65 48 71 120
q-12 -9 -33 -9q-29 0 -46 18t-17 45q0 26 17 44t45 18q33 0 53.5 -28t20.5 -70z" />
    <glyph glyph-name="uni021B" unicode="&#x21b;" horiz-adv-x="544" 
d="M458 121q0 -64 -45.5 -96t-108.5 -32q-173 0 -173 127v264h-97v51q72 2 113 60.5t43 139.5h71v-191h175v-60h-175v-264q0 -11 0.5 -17.5t3.5 -18t9 -18t18.5 -12t29.5 -5.5q14 0 26.5 4t25.5 22t13 49v46h71v-49zM340 -140q0 -37 -13.5 -71.5t-31 -55.5t-33 -33.5
t-22.5 -12.5t-13.5 7t-6.5 14q0 9 9 14q65 48 71 120q-12 -9 -33 -9q-29 0 -46 18t-17 45q0 26 17 44t45 18q33 0 53.5 -28t20.5 -70z" />
    <glyph glyph-name="uni0237" unicode="&#x237;" horiz-adv-x="431" 
d="M325 -36q0 -57 -35 -96t-80.5 -54t-95.5 -15q-75 0 -119 27t-44 75q0 31 20.5 51.5t51.5 20.5t51.5 -20.5t20.5 -51.5q0 -21 -11 -39l-3 -7q0 -5 35 -5q37 0 61.5 31.5t24.5 83.5v378q0 13 -1 19t-6 11.5t-15 7.5q-15 2 -54 2v60l199 8v-487z" />
    <glyph glyph-name="ereversed" unicode="&#x258;" horiz-adv-x="634" 
d="M586 226q0 -96 -78 -164.5t-229 -68.5q-87 0 -145 27q-41 18 -64.5 48t-23.5 45q0 23 36 23q26 0 33 -13q35 -74 145 -74q175 0 181 155h-359q-13 0 -19 1t-11.5 8t-5.5 22q0 115 78 173q62 47 173 47q143 0 216 -68.5t73 -160.5zM442 251q-4 153 -145 153
q-143 0 -151 -153h296z" />
    <glyph glyph-name="schwa" unicode="&#x259;" horiz-adv-x="634" 
d="M586 222q0 -92 -73 -160.5t-216 -68.5q-111 0 -173 47q-78 58 -78 173q0 15 5.5 22t11.5 8t19 1h359q-6 155 -181 155q-110 0 -145 -74q-7 -13 -33 -13q-36 0 -36 23q0 15 23.5 45t64.5 48q58 27 145 27q151 0 229 -68.5t78 -164.5zM442 197h-296q8 -153 151 -153
q141 0 145 153z" />
    <glyph glyph-name="ringhalfright" unicode="&#x2be;" horiz-adv-x="567" 
d="M492 456q0 -23 -6 -46.5t-22.5 -49.5t-42 -46t-69.5 -33t-100 -13q-165 0 -165 87q0 30 19 47t43 17q25 0 43.5 -17.5t18.5 -45.5q0 -16 -6 -30q16 -2 44 -2q69 0 93.5 35.5t24.5 94.5q0 132 -129 132q-72 0 -98 -53q-6 -14 -31 -14q-34 0 -34 23q0 11 17.5 36t47.5 41
q45 23 117 23q116 0 175.5 -55t59.5 -131z" />
    <glyph glyph-name="ringhalfleft" unicode="&#x2bf;" horiz-adv-x="567" 
d="M492 368q0 -11 -17.5 -36t-47.5 -41q-45 -23 -117 -23q-116 0 -175.5 55t-59.5 131q0 23 6 46.5t22.5 49.5t42 46t69.5 33t100 13q165 0 165 -87q0 -30 -19 -47t-43 -17q-25 0 -43.5 17.5t-18.5 45.5q0 16 6 30q-16 2 -44 2q-69 0 -93.5 -35.5t-24.5 -94.5
q0 -132 129 -132q71 0 98 53q6 14 31 14q34 0 34 -23z" />
    <glyph glyph-name="circumflex" unicode="&#x2c6;" 
d="M524 519l-20 -22l-158 99l-158 -99l-18 22l177 185z" />
    <glyph glyph-name="caron" unicode="&#x2c7;" 
d="M524 682l-177 -185l-177 185l20 22l158 -99l158 99z" />
    <glyph glyph-name="breve" unicode="&#x2d8;" 
d="M560 696q-2 -87 -66.5 -138.5t-146.5 -51.5t-146.5 51.5t-66.5 138.5h51q2 -58 53 -85.5t109 -27.5t109 27.5t53 85.5h51z" />
    <glyph glyph-name="dotaccent" unicode="&#x2d9;" horiz-adv-x="394" 
d="M280 600q0 -34 -24 -58.5t-59 -24.5t-59 24.5t-24 59.5q0 34 24 58.5t59 24.5t59 -24.5t24 -59.5z" />
    <glyph glyph-name="ring" unicode="&#x2da;" horiz-adv-x="1029" 
d="M582 614q0 18 -9.5 26t-20.5 9.5t-38 1.5t-38 -1.5t-20.5 -9.5t-9.5 -26t9 -26t20 -9.5t39 -1.5q40 0 54 6.5t14 30.5zM662 613q0 -31 -34 -57t-115 -26q-77 0 -112 26t-35 57q0 34 35 59.5t114 25.5q75 0 111 -25t36 -60z" />
    <glyph glyph-name="ogonek" unicode="&#x2db;" 
d="M473 -152q-49 -72 -125 -72q-58 0 -94.5 34.5t-36.5 80.5q0 55 67 115h98q-41 -17 -55 -60q-10 -31 8 -55t47 -24q13 0 48 25q14 9 33 -6q7 -7 10.5 -18.5t-0.5 -19.5z" />
    <glyph glyph-name="tilde" unicode="&#x2dc;" 
d="M572 635q-4 -3 -17 -15t-16 -15q-29 -27 -44 -40t-38 -24.5t-46 -11.5q-29 0 -71 22q-51 28 -82 28q-50 0 -102 -50l-34 38q4 3 17 15t16 15q29 27 44 40t38 24.5t46 11.5q29 0 71 -22q51 -28 82 -28q50 0 102 50z" />
    <glyph glyph-name="hungarumlaut" unicode="&#x2dd;" 
d="M360 632q0 -30 -32 -54l-104 -79l-55 46l62 117q22 40 56 40q29 0 51 -22t22 -48zM585 632q0 -30 -32 -54l-104 -79l-55 46l62 117q22 40 56 40q29 0 51 -22t22 -48z" />
    <glyph glyph-name="uni0300" unicode="&#x300;" horiz-adv-x="0" 
d="M-251 559l-37 -60l-175 73q-45 19 -45 59q0 25 19 48t47 23q24 0 44 -18z" />
    <glyph glyph-name="uni0301" unicode="&#x301;" horiz-adv-x="0" 
d="M-166 631q0 -40 -45 -59l-175 -73l-37 60l147 125q20 18 44 18q28 0 47 -23t19 -48z" />
    <glyph glyph-name="uni0302" unicode="&#x302;" horiz-adv-x="0" 
d="M-160 519l-20 -22l-158 99l-158 -99l-18 22l177 185z" />
    <glyph glyph-name="uni0303" unicode="&#x303;" horiz-adv-x="0" 
d="M-112 635q-4 -3 -17 -15t-16 -15q-29 -27 -44 -40t-38 -24.5t-46 -11.5q-29 0 -71 22q-51 28 -82 28q-50 0 -102 -50l-34 38q4 3 17 15t16 15q29 27 44 40t38 24.5t46 11.5q29 0 71 -22q51 -28 82 -28q50 0 102 50z" />
    <glyph glyph-name="uni0304" unicode="&#x304;" horiz-adv-x="0" 
d="M-94 567h-486v67h486v-67z" />
    <glyph glyph-name="uni0306" unicode="&#x306;" horiz-adv-x="0" 
d="M-124 696q-2 -87 -66.5 -138.5t-146.5 -51.5t-146.5 51.5t-66.5 138.5h51q2 -58 53 -85.5t109 -27.5t109 27.5t53 85.5h51z" />
    <glyph glyph-name="uni0307" unicode="&#x307;" horiz-adv-x="0" 
d="M-254 600q0 -34 -24 -58.5t-59 -24.5t-59 24.5t-24 59.5q0 34 24 58.5t59 24.5t59 -24.5t24 -59.5z" />
    <glyph glyph-name="uni0308" unicode="&#x308;" horiz-adv-x="0" 
d="M-399 600q0 -30 -21.5 -52t-53.5 -22q-31 0 -52.5 22t-21.5 53q0 30 21.5 52.5t52.5 22.5q32 0 53.5 -22t21.5 -54zM-126 600q0 -30 -21.5 -52t-53.5 -22q-31 0 -52.5 22t-21.5 53q0 30 21.5 52.5t52.5 22.5q32 0 53.5 -22t21.5 -54z" />
    <glyph glyph-name="uni0309" unicode="&#x309;" horiz-adv-x="0" 
d="M-206 631q0 -34 -45 -48l-16 -4q-34 -11 -46.5 -18.5t-12.5 -18.5v-15q0 -8 -6.5 -14.5t-14.5 -6.5q-9 0 -15 6.5t-6 14.5v16q0 18 8 31q15 26 54 47q6 5 6 10q0 15 -3 16q-11 7 -45 7q-24 0 -33 -1q5 -12 5 -22q0 -21 -13.5 -34t-32.5 -13t-33 13t-14 34q0 38 32 51.5
t90 13.5q62 0 97 -12q43 -17 44 -53z" />
    <glyph glyph-name="uni030A" unicode="&#x30a;" horiz-adv-x="0" 
d="M-270 614q0 18 -9.5 26t-20.5 9.5t-38 1.5t-38 -1.5t-20.5 -9.5t-9.5 -26t9 -26t20 -9.5t39 -1.5q40 0 54 6.5t14 30.5zM-190 613q0 -31 -34 -57t-115 -26q-77 0 -112 26t-35 57q0 34 35 59.5t114 25.5q75 0 111 -25t36 -60z" />
    <glyph glyph-name="uni030B" unicode="&#x30b;" horiz-adv-x="0" 
d="M-324 632q0 -30 -32 -54l-104 -79l-55 46l62 117q22 40 56 40q29 0 51 -22t22 -48zM-99 632q0 -30 -32 -54l-104 -79l-55 46l62 117q22 40 56 40q29 0 51 -22t22 -48z" />
    <glyph glyph-name="uni030C" unicode="&#x30c;" horiz-adv-x="0" 
d="M-160 682l-177 -185l-177 185l20 22l158 -99l158 99z" />
    <glyph glyph-name="uni030F" unicode="&#x30f;" horiz-adv-x="0" 
d="M-159 545l-55 -46l-104 79q-32 24 -32 54q0 26 22 48t51 22q34 0 56 -40zM-384 545l-55 -46l-104 79q-32 24 -32 54q0 26 22 48t51 22q34 0 56 -40z" />
    <glyph glyph-name="uni0311" unicode="&#x311;" horiz-adv-x="0" 
d="M-124 506h-51q-2 58 -53 85.5t-109 27.5t-109 -27.5t-53 -85.5h-51q2 87 66.5 138.5t146.5 51.5t146.5 -51.5t66.5 -138.5z" />
    <glyph glyph-name="uni0323" unicode="&#x323;" horiz-adv-x="0" 
d="M-254 -117q0 -34 -24 -58.5t-59 -24.5t-59 24.5t-24 59.5q0 34 24 58.5t59 24.5t59 -24.5t24 -59.5z" />
    <glyph glyph-name="uni0326" unicode="&#x326;" horiz-adv-x="0" 
d="M-269 -140q0 -37 -13.5 -71.5t-31 -55.5t-33 -33.5t-22.5 -12.5t-13.5 7t-6.5 14q0 9 9 14q65 48 71 120q-12 -9 -33 -9q-29 0 -46 18t-17 45q0 26 17 44t45 18q33 0 53.5 -28t20.5 -70z" />
    <glyph glyph-name="uni032E" unicode="&#x32e;" horiz-adv-x="0" 
d="M-124 -21q-2 -87 -66.5 -138.5t-146.5 -51.5t-146.5 51.5t-66.5 138.5h51q2 -58 53 -85.5t109 -27.5t109 27.5t53 85.5h51z" />
    <glyph glyph-name="uni032F" unicode="&#x32f;" horiz-adv-x="0" 
d="M-124 -211h-51q-2 58 -53 85.5t-109 27.5t-109 -27.5t-53 -85.5h-51q2 87 66.5 138.5t146.5 51.5t146.5 -51.5t66.5 -138.5z" />
    <glyph glyph-name="uni0330" unicode="&#x330;" horiz-adv-x="0" 
d="M-112 -82q-4 -4 -17 -15t-16 -15q-29 -27 -44 -40t-38 -24.5t-46 -11.5q-29 0 -71 22q-51 28 -82 28q-50 0 -102 -50l-34 38q4 4 17 15t16 15q29 27 44 40t38 24.5t46 11.5q29 0 71 -22q51 -28 82 -28q50 0 102 50z" />
    <glyph glyph-name="uni0331" unicode="&#x331;" horiz-adv-x="0" 
d="M-94 -149h-486v67h486v-67z" />
    <glyph glyph-name="uni0332" unicode="&#x332;" horiz-adv-x="0" 
d="M-94 -149h-486v67h486v-67z" />
    <glyph glyph-name="Alpha" unicode="&#x391;" horiz-adv-x="1029" 
d="M968 0l-166 4q-127 0 -182 -4v60h88l-66 142h-326l-57 -125l-5 -11q0 -6 63 -6h21v-60l-147 4q-44 0 -132 -4v60h39q31 0 42 1q15 1 18.5 3.5t8.5 11.5l276 603q6 13 15 19.5t15.5 7.5t19.5 1h41q14 0 20.5 -1t15 -7.5t14.5 -20.5l284 -618h100v-60zM615 262l-136 296
l-136 -296h272z" />
    <glyph glyph-name="Beta" unicode="&#x392;" horiz-adv-x="974" 
d="M888 188q0 -79 -77.5 -133.5t-212.5 -54.5h-521v60h106v566h-106v60h485q132 0 210.5 -50t78.5 -124q0 -52 -47 -93.5t-141 -59.5q105 -12 165 -59t60 -112zM699 511q0 45 -35.5 80t-113.5 35h-229v-244h190q101 0 144.5 40.5t43.5 88.5zM728 190q0 61 -41 101t-117 40
h-249v-271h231q81 0 128.5 35t47.5 95z" />
    <glyph glyph-name="Gamma" unicode="&#x393;" horiz-adv-x="825" 
d="M758 452h-71q-15 98 -61 132.5t-142 34.5h-154v-559h133v-60q-48 4 -206 4q-125 0 -186 -4v60h106v559h-106v60h651z" />
    <glyph glyph-name="Delta" unicode="&#x394;" horiz-adv-x="1144" 
d="M1064 15q0 -15 -29 -15h-928q-29 0 -29 15q0 6 6 16l409 648q12 19 23.5 23.5t32.5 4.5h44q21 0 32.5 -4.5t23.5 -23.5l410 -650zM812 133l-282 449l-283 -449h565z" />
    <glyph glyph-name="Epsilon" unicode="&#x395;" horiz-adv-x="900" 
d="M852 254l-54 -254h-727v60h106v559h-106v60h707l36 -227h-71q-16 102 -69 134.5t-156 32.5h-188v-237h76q61 0 89.5 19t28.5 81h71v-260h-71q0 62 -28.5 81t-89.5 19h-76v-262h199q113 0 171 39t81 155h71z" />
    <glyph glyph-name="Zeta" unicode="&#x396;" horiz-adv-x="844" 
d="M766 265l-22 -265h-624q-14 0 -20.5 1.5t-11 9t-4.5 22.5q0 19 10 31l468 562h-159q-217 0 -229 -167h-71l14 227h605q13 0 19 -1t11.5 -8.5t5.5 -22.5q0 -17 -11 -30l-466 -559h174q51 0 88 7.5t71.5 28t54.5 61.5t26 103h71z" />
    <glyph glyph-name="Eta" unicode="&#x397;" horiz-adv-x="1065" 
d="M992 0q-59 4 -183 4l-182 -4v60h106v267h-403v-267h106v-60q-59 4 -183 4l-182 -4v60h106v566h-106v60q59 -4 183 -4l182 4v-60h-106v-239h403v239h-106v60q59 -4 183 -4l182 4v-60h-106v-566h106v-60z" />
    <glyph glyph-name="Theta" unicode="&#x398;" horiz-adv-x="1069" 
d="M983 339q0 -70 -27 -131.5t-79.5 -112t-141 -80t-202.5 -29.5q-112 0 -200 29.5t-141.5 79.5t-80.5 112t-27 132q0 69 26 131.5t78 115t141.5 83.5t204.5 31q92 0 167.5 -20.5t127 -55t87 -81t51.5 -98t16 -106.5zM831 339q0 148 -72 226q-79 84 -226 84q-141 0 -222 -81
q-75 -76 -75 -229q0 -152 84 -230q77 -69 214 -69q143 0 220 77t77 222zM755 244h-71v34h-301v-34h-71v201h71v-34h301v34h71v-201z" />
    <glyph glyph-name="Iota" unicode="&#x399;" horiz-adv-x="506" 
d="M441 0q-55 4 -188 4q-134 0 -189 -4v60h112v566h-112v60q55 -4 189 -4q133 0 188 4v-60h-112v-566h112v-60z" />
    <glyph glyph-name="Kappa" unicode="&#x39a;" horiz-adv-x="1066" 
d="M999 0l-150 4q-128 0 -183 -4v60h17q20 0 42 4l-255 273l-140 -98v-179h106v-60q-59 4 -183 4l-182 -4v60h106v566h-106v60q59 -4 183 -4l182 4v-60h-106v-300l420 296q-25 4 -51 4v60l165 -4q77 0 116 4v-60h-39q-61 0 -76 -11l-287 -202l321 -343q10 -10 50 -10h50v-60
z" />
    <glyph glyph-name="Lambda" unicode="&#x39b;" horiz-adv-x="954" 
d="M894 0l-160 4q-128 0 -183 -4v60h89l-202 478l-200 -474q27 -4 66 -4h21v-60l-145 4q-78 0 -122 -4v60l72 1q12 1 15 3.5t8 12.5l254 602q6 13 14.5 19.5t15 7.5t19.5 1h40q25 0 33 -6t16 -25l261 -616h88v-60z" />
    <glyph glyph-name="Mu" unicode="&#x39c;" horiz-adv-x="1290" 
d="M1208 0l-172 4l-171 -4v60h106v563h-1l-309 -595q-15 -28 -47 -28t-47 29l-302 580h-1v-527q0 -14 3.5 -17t19.5 -4q12 -1 41 -1h42v-60q-2 0 -27.5 1t-60 2t-57.5 1t-57.5 -1t-60 -2t-27.5 -1v60l85 1q15 1 18 4t3 17v544h-106v60h231q14 0 21 -1.5t15.5 -8t15.5 -19.5
l281 -539l280 540q7 13 16.5 19.5t16 7.5t19.5 1h232v-60h-106v-566h106v-60z" />
    <glyph glyph-name="Nu" unicode="&#x39d;" horiz-adv-x="1065" 
d="M992 626l-85 -1q-15 -1 -18 -4t-3 -17v-568q0 -23 -6.5 -29.5t-29.5 -6.5h-6q-16 0 -21.5 2t-14.5 11l-553 562v-493q0 -14 3.5 -17t19.5 -4q12 -1 41 -1h42v-60q-2 0 -27.5 1t-60 2t-57.5 1t-57.5 -1t-60 -2t-27.5 -1v60l85 1q15 1 18 4t3 17v544h-106v60h235
q16 0 21.5 -2t14.5 -11l466 -473v404q0 14 -3.5 17t-19.5 4q-12 1 -41 1h-42v60q2 0 27.5 -1t60 -2t57.5 -1t57.5 1t60 2t27.5 1v-60z" />
    <glyph glyph-name="Xi" unicode="&#x39e;" horiz-adv-x="919" 
d="M844 475h-71q0 57 -18 68q-8 6 -81 6h-431q-71 0 -81 -5q-14 -8 -18 -69h-71l11 196h749zM852 205l-11 -205h-765l-11 205h71q5 -70 18 -77q12 -6 87 -6h435q75 0 87 6q13 7 18 77h71zM721 245h-71v43h-383v-43h-71v208h71v-43h383v43h71v-208z" />
    <glyph glyph-name="Omicron" unicode="&#x39f;" horiz-adv-x="1032" 
d="M946 338q0 -70 -26.5 -132t-77.5 -112t-135.5 -79t-191.5 -29q-108 0 -192.5 29t-135.5 79t-77 112t-26 132q0 72 26.5 136.5t78 115.5t135.5 80.5t191 29.5t191 -29.5t135.5 -80.5t78 -115t26.5 -137zM779 355q0 148 -67 216q-73 73 -197 73q-126 0 -200 -76
q-64 -67 -64 -213q0 -157 69 -233q68 -77 195 -77q133 0 204 87q60 75 60 223z" />
    <glyph glyph-name="Pi" unicode="&#x3a0;" horiz-adv-x="1065" 
d="M992 0q-59 4 -183 4l-182 -4v60h106v559h-403v-559h106v-60q-59 4 -183 4l-182 -4v60h106v559h-106v60h921v-60h-106v-559h106v-60z" />
    <glyph glyph-name="Rho" unicode="&#x3a1;" horiz-adv-x="936" 
d="M850 485q0 -90 -86.5 -143.5t-209.5 -53.5h-222v-228h106v-60q-59 4 -183 4l-182 -4v60h106v566h-106v60h469q142 0 225 -57.5t83 -143.5zM683 485q0 31 -3.5 49.5t-18.5 43t-52.5 36.5t-97.5 12h-186v-283h185q49 0 83.5 9.5t51.5 22t26 34.5t10.5 36.5t1.5 39.5z" />
    <glyph glyph-name="Sigma" unicode="&#x3a3;" horiz-adv-x="994" 
d="M908 245l-36 -245h-752q-36 0 -36 23q0 10 14 22l315 258l-316 323q-13 13 -13 30q0 14 5.5 21t11.5 8t19 1h752l36 -227h-71q-8 46 -29 78.5t-46 49.5t-65 26t-70.5 11t-79.5 2h-236l257 -261q11 -11 11 -22t-16 -24l-294 -241h285q134 0 186 25q81 40 97 142h71z" />
    <glyph glyph-name="Tau" unicode="&#x3a4;" horiz-adv-x="957" 
d="M897 444h-71q-9 90 -42 128.5t-127 38.5h-103v-551h151v-60q-49 4 -228 4q-178 0 -227 -4v60h151v551h-103q-94 0 -127 -38.5t-42 -128.5h-71l25 227h789z" />
    <glyph glyph-name="Upsilon" unicode="&#x3a5;" horiz-adv-x="1069" 
d="M983 553q0 -13 -6 -19t-12 -7t-17 -1h-13q-11 0 -16.5 0.5t-11 5.5t-7.5 15q-1 9 -5 13.5t-27 9.5t-67 5q-55 0 -95 -25t-59.5 -63.5t-28 -74.5t-8.5 -69v-283h133v-60q-48 4 -210 4q-161 0 -209 -4v60h133v283q0 33 -8.5 68.5t-28 74.5t-59.5 64t-95 25q-44 0 -66.5 -5
t-26.5 -10t-6 -15q-4 -19 -35 -19h-13q-11 0 -17 1t-12 7t-6 19q0 60 56 103.5t137 43.5q95 0 161.5 -65.5t94.5 -168.5h1q24 95 90.5 164.5t165.5 69.5q81 0 137 -43.5t56 -103.5z" />
    <glyph glyph-name="Phi" unicode="&#x3a6;" horiz-adv-x="994" 
d="M908 343q0 -72 -92 -121.5t-258 -57.5v-104h133v-60q-49 4 -202 4t-202 -4v60h133v105q-148 8 -242 56t-94 122t93.5 122t242.5 56v105h-133v60q49 -4 202 -4t202 4v-60h-133v-104q166 -8 258 -58t92 -121zM420 216v254q-176 -9 -176 -127t176 -127zM748 343q0 67 -50 96
t-140 32v-256q90 3 140 32t50 96z" />
    <glyph glyph-name="Chi" unicode="&#x3a7;" horiz-adv-x="1029" 
d="M971 0l-168 4q-132 0 -187 -4v60h66l-197 221l-194 -217q36 -4 75 -4v-60l-165 4l-145 -4v60h50q33 0 46 1q18 1 22.5 3t12.5 10l243 270l-250 282h-105v60l168 -4q135 0 187 4v-60h-66l159 -178l157 174q-36 4 -75 4v60l165 -4q68 0 144 4v-60h-49q-33 0 -46 -1
q-19 -2 -24 -3.5t-12 -8.5l-205 -229l288 -324h105v-60z" />
    <glyph glyph-name="Psi" unicode="&#x3a8;" horiz-adv-x="1069" 
d="M983 516q0 -23 -27 -25q-50 -6 -54 -92q-1 -21 -6.5 -45.5t-29.5 -65t-63 -65.5q-79 -49 -208 -58v-105h133v-60q-49 4 -202 4t-202 -4v60h133v105q-128 9 -201 61q-30 22 -50.5 51.5t-28 56.5t-10 41t-2.5 23q-3 88 -57 93l-2 1h-4t-3.5 1t-4.5 2t-4 3t-3 4.5t-2 6
t-1 7.5q0 12 6.5 18t12.5 7t17 1h71q56 0 83.5 -38.5t28.5 -103.5q2 -74 40.5 -121.5t113.5 -59.5v407h-133v60q49 -4 202 -4t202 4v-60h-133v-407q84 11 126 59q43 49 43 120q3 144 112 144h71q12 0 18 -1t12 -7t6 -18z" />
    <glyph glyph-name="Omega" unicode="&#x3a9;" horiz-adv-x="994" 
d="M923 198l-43 -198h-234q-13 0 -19 1t-11.5 8t-5.5 21q0 35 12.5 79t24 71t33.5 74q21 46 30.5 69t20 62t10.5 72q0 98 -67 145t-178 47q-69 0 -121.5 -17t-88 -61.5t-35.5 -113.5q0 -33 10.5 -71.5t20.5 -63t31 -68.5q69 -149 69 -224q0 -14 -5.5 -21t-11.5 -8t-19 -1
h-234l-43 198h71q12 -61 23.5 -72t64.5 -11h76q-30 49 -97 116q-60 61 -91.5 113.5t-31.5 111.5q0 43 21.5 84t66.5 78t129 59.5t195 22.5q90 0 162 -15t118 -39.5t76.5 -57t43 -65.5t12.5 -67q0 -55 -29 -107t-90 -113q-78 -79 -101 -121h76q53 0 64.5 11t23.5 72h71z" />
    <glyph glyph-name="baht" unicode="&#xe3f;" horiz-adv-x="974" 
d="M888 188q0 -79 -77.5 -133.5t-212.5 -54.5h-89v-60q0 -13 -9 -21.5t-21 -8.5q-13 0 -21.5 8.5t-8.5 21.5v60h-372v60h106v566h-106v60h372v60q0 13 8.5 21.5t21.5 8.5q12 0 21 -8.5t9 -21.5v-60h53q132 0 210.5 -50t78.5 -124q0 -52 -47 -93.5t-141 -59.5
q105 -12 165 -59t60 -112zM699 511q0 45 -35.5 80t-113.5 35h-41v-244h2q101 0 144.5 40.5t43.5 88.5zM449 382v244h-128v-244h128zM728 190q0 61 -41 101t-117 40h-61v-271h43q81 0 128.5 35t47.5 95zM449 60v271h-128v-271h128z" />
    <glyph glyph-name="Ddotbelow" unicode="&#x1e0c;" horiz-adv-x="1049" 
d="M963 337q0 -152 -112 -244.5t-291 -92.5h-487v60h106v566h-106v60h486q180 0 292 -96.5t112 -252.5zM803 339q0 27 -0.5 44t-6 50.5t-15.5 56t-31.5 50.5t-51 45t-76 29t-105.5 12h-192v-566h194q59 0 105 11.5t75.5 27.5t50.5 43.5t31 49t15.5 54t6 49.5t0.5 44z
M503 -117q0 -34 -24 -58.5t-59 -24.5t-59 24.5t-24 59.5q0 34 24 58.5t59 24.5t59 -24.5t24 -59.5z" />
    <glyph glyph-name="ddotbelow" unicode="&#x1e0d;" horiz-adv-x="769" 
d="M701 0l-199 -7v48q-73 -48 -168 -48q-133 0 -206.5 66.5t-73.5 161.5q0 98 77.5 164t216.5 66q93 0 161 -42v178q0 28 -10.5 33.5t-58.5 5.5v60l192 8v-595q0 -28 10.5 -33.5t58.5 -5.5v-60zM502 124v195q0 13 -2 17.5t-11 13.5q-50 50 -130 50q-46 0 -78.5 -14.5
t-48 -32t-24 -47t-9.5 -45.5t-1 -41t1 -40.5t8.5 -44.5t22 -46t44 -31t71.5 -14q98 0 157 80zM467 -117q0 -34 -24 -58.5t-59 -24.5t-59 24.5t-24 59.5q0 34 24 58.5t59 24.5t59 -24.5t24 -59.5z" />
    <glyph glyph-name="Dlinebelow" unicode="&#x1e0e;" horiz-adv-x="1049" 
d="M963 337q0 -152 -112 -244.5t-291 -92.5h-487v60h106v566h-106v60h486q180 0 292 -96.5t112 -252.5zM803 339q0 27 -0.5 44t-6 50.5t-15.5 56t-31.5 50.5t-51 45t-76 29t-105.5 12h-192v-566h194q59 0 105 11.5t75.5 27.5t50.5 43.5t31 49t15.5 54t6 49.5t0.5 44z
M663 -149h-486v67h486v-67z" />
    <glyph glyph-name="dlinebelow" unicode="&#x1e0f;" horiz-adv-x="769" 
d="M701 0l-199 -7v48q-73 -48 -168 -48q-133 0 -206.5 66.5t-73.5 161.5q0 98 77.5 164t216.5 66q93 0 161 -42v178q0 28 -10.5 33.5t-58.5 5.5v60l192 8v-595q0 -28 10.5 -33.5t58.5 -5.5v-60zM502 124v195q0 13 -2 17.5t-11 13.5q-50 50 -130 50q-46 0 -78.5 -14.5
t-48 -32t-24 -47t-9.5 -45.5t-1 -41t1 -40.5t8.5 -44.5t22 -46t44 -31t71.5 -14q98 0 157 80zM628 -149h-486v67h486v-67z" />
    <glyph glyph-name="Hdotbelow" unicode="&#x1e24;" horiz-adv-x="1065" 
d="M992 0q-59 4 -183 4l-182 -4v60h106v267h-403v-267h106v-60q-59 4 -183 4l-182 -4v60h106v566h-106v60q59 -4 183 -4l182 4v-60h-106v-239h403v239h-106v60q59 -4 183 -4l182 4v-60h-106v-566h106v-60zM616 -117q0 -34 -24 -58.5t-59 -24.5t-59 24.5t-24 59.5
q0 34 24 58.5t59 24.5t59 -24.5t24 -59.5z" />
    <glyph glyph-name="hdotbelow" unicode="&#x1e25;" horiz-adv-x="769" 
d="M720 0q-64 4 -134 4l-134 -4v60h69v245q0 54 -16.5 74.5t-53.5 20.5q-36 0 -73.5 -13t-69.5 -49.5t-32 -90.5v-187h69v-60q-64 4 -134 4l-134 -4v60h69v527q0 28 -10.5 33.5t-58.5 5.5v60l192 8v-333q71 90 201 90q37 0 66 -5.5t57 -21t43 -47.5t15 -79v-238h69v-60z
M482 -117q0 -34 -24 -58.5t-59 -24.5t-59 24.5t-24 59.5q0 34 24 58.5t59 24.5t59 -24.5t24 -59.5z" />
    <glyph glyph-name="Hdieresis" unicode="&#x1e26;" horiz-adv-x="1065" 
d="M992 0q-59 4 -183 4l-182 -4v60h106v267h-403v-267h106v-60q-59 4 -183 4l-182 -4v60h106v566h-106v60q59 -4 183 -4l182 4v-60h-106v-239h403v239h-106v60q59 -4 183 -4l182 4v-60h-106v-566h106v-60zM446 811q0 -30 -21.5 -52t-53.5 -22q-31 0 -52.5 22t-21.5 53
q0 30 21.5 52.5t52.5 22.5q32 0 53.5 -22t21.5 -54zM769 811q0 -30 -21.5 -52t-53.5 -22q-31 0 -52.5 22t-21.5 53q0 30 21.5 52.5t52.5 22.5q32 0 53.5 -22t21.5 -54z" />
    <glyph glyph-name="hdieresis" unicode="&#x1e27;" horiz-adv-x="769" 
d="M720 0q-64 4 -134 4l-134 -4v60h69v245q0 54 -16.5 74.5t-53.5 20.5q-36 0 -73.5 -13t-69.5 -49.5t-32 -90.5v-187h69v-60q-64 4 -134 4l-134 -4v60h69v527q0 28 -10.5 33.5t-58.5 5.5v60l192 8v-333q71 90 201 90q37 0 66 -5.5t57 -21t43 -47.5t15 -79v-238h69v-60z
M298 819q0 -30 -21.5 -52t-53.5 -22q-31 0 -52.5 22t-21.5 53q0 30 21.5 52.5t52.5 22.5q32 0 53.5 -22t21.5 -54zM621 819q0 -30 -21.5 -52t-53.5 -22q-31 0 -52.5 22t-21.5 53q0 30 21.5 52.5t52.5 22.5q32 0 53.5 -22t21.5 -54z" />
    <glyph glyph-name="Hbrevebelow" unicode="&#x1e2a;" horiz-adv-x="1065" 
d="M992 0q-59 4 -183 4l-182 -4v60h106v267h-403v-267h106v-60q-59 4 -183 4l-182 -4v60h106v566h-106v60q59 -4 183 -4l182 4v-60h-106v-239h403v239h-106v60q59 -4 183 -4l182 4v-60h-106v-566h106v-60zM746 -21q-2 -87 -66.5 -138.5t-146.5 -51.5t-146.5 51.5
t-66.5 138.5h51q2 -58 53 -85.5t109 -27.5t109 27.5t53 85.5h51z" />
    <glyph glyph-name="hbrevebelow" unicode="&#x1e2b;" horiz-adv-x="769" 
d="M720 0q-64 4 -134 4l-134 -4v60h69v245q0 54 -16.5 74.5t-53.5 20.5q-36 0 -73.5 -13t-69.5 -49.5t-32 -90.5v-187h69v-60q-64 4 -134 4l-134 -4v60h69v527q0 28 -10.5 33.5t-58.5 5.5v60l192 8v-333q71 90 201 90q37 0 66 -5.5t57 -21t43 -47.5t15 -79v-238h69v-60z
M612 -21q-2 -87 -66.5 -138.5t-146.5 -51.5t-146.5 51.5t-66.5 138.5h51q2 -58 53 -85.5t109 -27.5t109 27.5t53 85.5h51z" />
    <glyph glyph-name="Idieresisacute" unicode="&#x1e2e;" horiz-adv-x="506" 
d="M441 0q-55 4 -188 4q-134 0 -189 -4v60h112v566h-112v60q55 -4 189 -4q133 0 188 4v-60h-112v-566h112v-60zM166 811q0 -30 -21.5 -52t-53.5 -22q-31 0 -52.5 22t-21.5 53q0 30 21.5 52.5t52.5 22.5q32 0 53.5 -22t21.5 -54zM489 811q0 -30 -21.5 -52t-53.5 -22
q-31 0 -52.5 22t-21.5 53q0 30 21.5 52.5t52.5 22.5q32 0 53.5 -22t21.5 -54zM429 1038q-6 -38 -54 -50l-185 -41l-26 65l166 98q21 11 37 11q32 0 51.5 -26t10.5 -57z" />
    <glyph glyph-name="idieresisacute" unicode="&#x1e2f;" horiz-adv-x="394" 
d="M335 0l-125 4l-130 -4v60h69v284q0 28 -10 33.5t-56 5.5v60l189 8v-391h63v-60zM135 600q0 -30 -21.5 -52t-53.5 -22q-31 0 -52.5 22t-21.5 53q0 30 21.5 52.5t52.5 22.5q32 0 53.5 -22t21.5 -54zM408 600q0 -30 -21.5 -52t-53.5 -22q-31 0 -52.5 22t-21.5 53
q0 30 21.5 52.5t52.5 22.5q32 0 53.5 -22t21.5 -54zM373 828q-6 -38 -54 -50l-185 -41l-26 65l166 98q21 11 37 11q32 0 51.5 -26t10.5 -57z" />
    <glyph glyph-name="Ldotbelow" unicode="&#x1e36;" horiz-adv-x="825" 
d="M758 254l-36 -254h-651v60h106v566h-106v60q60 -4 186 -4q158 0 206 4v-60h-133v-566h131q104 0 158 48t68 146h71zM496 -117q0 -34 -24 -58.5t-59 -24.5t-59 24.5t-24 59.5q0 34 24 58.5t59 24.5t59 -24.5t24 -59.5z" />
    <glyph glyph-name="ldotbelow" unicode="&#x1e37;" horiz-adv-x="394" 
d="M341 0q-48 4 -131 4l-130 -4v60h69v527q0 28 -10.5 33.5t-58.5 5.5v60l192 8v-634h69v-60zM280 -117q0 -34 -24 -58.5t-59 -24.5t-59 24.5t-24 59.5q0 34 24 58.5t59 24.5t59 -24.5t24 -59.5z" />
    <glyph glyph-name="Ldotbelowmacron" unicode="&#x1e38;" horiz-adv-x="825" 
d="M758 254l-36 -254h-651v60h106v566h-106v60q60 -4 186 -4q158 0 206 4v-60h-133v-566h131q104 0 158 48t68 146h71zM496 -117q0 -34 -24 -58.5t-59 -24.5t-59 24.5t-24 59.5q0 34 24 58.5t59 24.5t59 -24.5t24 -59.5zM510 757h-486v67h486v-67z" />
    <glyph glyph-name="ldotbelowmacron" unicode="&#x1e39;" horiz-adv-x="394" 
d="M341 0q-48 4 -131 4l-130 -4v60h69v527q0 28 -10.5 33.5t-58.5 5.5v60l192 8v-634h69v-60zM280 -117q0 -34 -24 -58.5t-59 -24.5t-59 24.5t-24 59.5q0 34 24 58.5t59 24.5t59 -24.5t24 -59.5zM451 765h-486v67h486v-67z" />
    <glyph glyph-name="Mdotbelow" unicode="&#x1e42;" horiz-adv-x="1290" 
d="M1208 0l-172 4l-171 -4v60h106v563h-1l-309 -595q-15 -28 -47 -28t-47 29l-302 580h-1v-527q0 -14 3.5 -17t19.5 -4q12 -1 41 -1h42v-60q-2 0 -27.5 1t-60 2t-57.5 1t-57.5 -1t-60 -2t-27.5 -1v60l85 1q15 1 18 4t3 17v544h-106v60h231q14 0 21 -1.5t15.5 -8t15.5 -19.5
l281 -539l280 540q7 13 16.5 19.5t16 7.5t19.5 1h232v-60h-106v-566h106v-60zM728 -117q0 -34 -24 -58.5t-59 -24.5t-59 24.5t-24 59.5q0 34 24 58.5t59 24.5t59 -24.5t24 -59.5z" />
    <glyph glyph-name="mdotbelow" unicode="&#x1e43;" horiz-adv-x="1144" 
d="M1095 0q-64 4 -134 4l-134 -4v60h69v245q0 54 -16 74.5t-54 20.5q-36 0 -73.5 -13t-69.5 -49.5t-32 -90.5v-187h69v-60q-64 4 -134 4l-134 -4v60h69v245q0 54 -16.5 74.5t-53.5 20.5q-36 0 -73.5 -13t-69.5 -49.5t-32 -90.5v-187h69v-60q-64 4 -134 4l-134 -4v60h69v284
q0 28 -10.5 33.5t-58.5 5.5v60l184 8v-102q15 22 35 41.5t67.5 40t106.5 20.5q143 0 173 -92q33 46 87 69t115 23q37 0 66 -5.5t57 -21t43 -47.5t15 -79v-238h69v-60zM655 -117q0 -34 -24 -58.5t-59 -24.5t-59 24.5t-24 59.5q0 34 24 58.5t59 24.5t59 -24.5t24 -59.5z" />
    <glyph glyph-name="Ndotaccent" unicode="&#x1e44;" horiz-adv-x="1065" 
d="M992 626l-85 -1q-15 -1 -18 -4t-3 -17v-568q0 -23 -6.5 -29.5t-29.5 -6.5h-6q-16 0 -21.5 2t-14.5 11l-553 562v-493q0 -14 3.5 -17t19.5 -4q12 -1 41 -1h42v-60q-2 0 -27.5 1t-60 2t-57.5 1t-57.5 -1t-60 -2t-27.5 -1v60l85 1q15 1 18 4t3 17v544h-106v60h235
q16 0 21.5 -2t14.5 -11l466 -473v404q0 14 -3.5 17t-19.5 4q-12 1 -41 1h-42v60q2 0 27.5 -1t60 -2t57.5 -1t57.5 1t60 2t27.5 1v-60zM616 820q0 -34 -24 -58.5t-59 -24.5t-59 24.5t-24 59.5q0 34 24 58.5t59 24.5t59 -24.5t24 -59.5z" />
    <glyph glyph-name="ndotaccent" unicode="&#x1e45;" horiz-adv-x="769" 
d="M720 0q-64 4 -134 4l-134 -4v60h69v245q0 54 -16.5 74.5t-53.5 20.5q-36 0 -73.5 -13t-69.5 -49.5t-32 -90.5v-187h69v-60q-64 4 -134 4l-134 -4v60h69v284q0 28 -10.5 33.5t-58.5 5.5v60l184 8v-102q15 22 35 41.5t67.5 40t106.5 20.5q37 0 66 -5.5t57 -21t43 -47.5
t15 -79v-238h69v-60zM467 600q0 -34 -24 -58.5t-59 -24.5t-59 24.5t-24 59.5q0 34 24 58.5t59 24.5t59 -24.5t24 -59.5z" />
    <glyph glyph-name="Ndotbelow" unicode="&#x1e46;" horiz-adv-x="1065" 
d="M992 626l-85 -1q-15 -1 -18 -4t-3 -17v-568q0 -23 -6.5 -29.5t-29.5 -6.5h-6q-16 0 -21.5 2t-14.5 11l-553 562v-493q0 -14 3.5 -17t19.5 -4q12 -1 41 -1h42v-60q-2 0 -27.5 1t-60 2t-57.5 1t-57.5 -1t-60 -2t-27.5 -1v60l85 1q15 1 18 4t3 17v544h-106v60h235
q16 0 21.5 -2t14.5 -11l466 -473v404q0 14 -3.5 17t-19.5 4q-12 1 -41 1h-42v60q2 0 27.5 -1t60 -2t57.5 -1t57.5 1t60 2t27.5 1v-60zM616 -117q0 -34 -24 -58.5t-59 -24.5t-59 24.5t-24 59.5q0 34 24 58.5t59 24.5t59 -24.5t24 -59.5z" />
    <glyph glyph-name="ndotbelow" unicode="&#x1e47;" horiz-adv-x="769" 
d="M720 0q-64 4 -134 4l-134 -4v60h69v245q0 54 -16.5 74.5t-53.5 20.5q-36 0 -73.5 -13t-69.5 -49.5t-32 -90.5v-187h69v-60q-64 4 -134 4l-134 -4v60h69v284q0 28 -10.5 33.5t-58.5 5.5v60l184 8v-102q15 22 35 41.5t67.5 40t106.5 20.5q37 0 66 -5.5t57 -21t43 -47.5
t15 -79v-238h69v-60zM467 -117q0 -34 -24 -58.5t-59 -24.5t-59 24.5t-24 59.5q0 34 24 58.5t59 24.5t59 -24.5t24 -59.5z" />
    <glyph glyph-name="Rdotaccent" unicode="&#x1e58;" horiz-adv-x="1019" 
d="M1004 100q0 -12 -5.5 -28.5t-18.5 -37t-44 -34.5t-75 -14q-118 0 -175 31q-23 13 -36.5 28t-19.5 37.5t-7 39.5t-1 53q0 51 -6.5 72t-35.5 43q-40 28 -105 28h-150v-258h106v-60l-179 4l-179 -4v60h106v566h-106v60h423q153 0 248 -53t95 -135q0 -56 -47.5 -97
t-119.5 -61q32 -14 53 -31t32 -40t15 -39t8 -46q6 -33 8.5 -48t10 -38.5t16 -33.5t23 -18.5t34.5 -8.5q11 0 21.5 3t24 19.5t15.5 45.5q2 21 35 21q12 0 18 -1t12 -7t6 -18zM672 498q0 30 -7 51t-25.5 39.5t-56.5 28t-96 9.5h-162v-257h161q60 0 99 10t57 30t24 40t6 49z
M593 834q0 -34 -24 -58.5t-59 -24.5t-59 24.5t-24 59.5q0 34 24 58.5t59 24.5t59 -24.5t24 -59.5z" />
    <glyph glyph-name="rdotaccent" unicode="&#x1e59;" horiz-adv-x="571" 
d="M523 359q0 -32 -21.5 -51t-48.5 -19t-48.5 19t-21.5 51q0 25 12 41q-63 -4 -100 -61.5t-37 -135.5v-143h87v-60l-146 4q-79 0 -133 -4v60h69v284q0 28 -10.5 33.5t-58.5 5.5v60l177 8v-111h1q21 45 61 78t97 33q49 0 85 -25t36 -67zM369 600q0 -34 -24 -58.5t-59 -24.5
t-59 24.5t-24 59.5q0 34 24 58.5t59 24.5t59 -24.5t24 -59.5z" />
    <glyph glyph-name="Rdotbelow" unicode="&#x1e5a;" horiz-adv-x="1019" 
d="M1004 100q0 -12 -5.5 -28.5t-18.5 -37t-44 -34.5t-75 -14q-118 0 -175 31q-23 13 -36.5 28t-19.5 37.5t-7 39.5t-1 53q0 51 -6.5 72t-35.5 43q-40 28 -105 28h-150v-258h106v-60l-179 4l-179 -4v60h106v566h-106v60h423q153 0 248 -53t95 -135q0 -56 -47.5 -97
t-119.5 -61q32 -14 53 -31t32 -40t15 -39t8 -46q6 -33 8.5 -48t10 -38.5t16 -33.5t23 -18.5t34.5 -8.5q11 0 21.5 3t24 19.5t15.5 45.5q2 21 35 21q12 0 18 -1t12 -7t6 -18zM672 498q0 30 -7 51t-25.5 39.5t-56.5 28t-96 9.5h-162v-257h161q60 0 99 10t57 30t24 40t6 49z
M593 -117q0 -34 -24 -58.5t-59 -24.5t-59 24.5t-24 59.5q0 34 24 58.5t59 24.5t59 -24.5t24 -59.5z" />
    <glyph glyph-name="rdotbelow" unicode="&#x1e5b;" horiz-adv-x="571" 
d="M523 359q0 -32 -21.5 -51t-48.5 -19t-48.5 19t-21.5 51q0 25 12 41q-63 -4 -100 -61.5t-37 -135.5v-143h87v-60l-146 4q-79 0 -133 -4v60h69v284q0 28 -10.5 33.5t-58.5 5.5v60l177 8v-111h1q21 45 61 78t97 33q49 0 85 -25t36 -67zM289 -117q0 -34 -24 -58.5t-59 -24.5
t-59 24.5t-24 59.5q0 34 24 58.5t59 24.5t59 -24.5t24 -59.5z" />
    <glyph glyph-name="Rdotbelowmacron" unicode="&#x1e5c;" horiz-adv-x="1019" 
d="M1004 100q0 -12 -5.5 -28.5t-18.5 -37t-44 -34.5t-75 -14q-118 0 -175 31q-23 13 -36.5 28t-19.5 37.5t-7 39.5t-1 53q0 51 -6.5 72t-35.5 43q-40 28 -105 28h-150v-258h106v-60l-179 4l-179 -4v60h106v566h-106v60h423q153 0 248 -53t95 -135q0 -56 -47.5 -97
t-119.5 -61q32 -14 53 -31t32 -40t15 -39t8 -46q6 -33 8.5 -48t10 -38.5t16 -33.5t23 -18.5t34.5 -8.5q11 0 21.5 3t24 19.5t15.5 45.5q2 21 35 21q12 0 18 -1t12 -7t6 -18zM672 498q0 30 -7 51t-25.5 39.5t-56.5 28t-96 9.5h-162v-257h161q60 0 99 10t57 30t24 40t6 49z
M593 -117q0 -34 -24 -58.5t-59 -24.5t-59 24.5t-24 59.5q0 34 24 58.5t59 24.5t59 -24.5t24 -59.5zM753 757h-486v67h486v-67z" />
    <glyph glyph-name="rdotbelowmacron" unicode="&#x1e5d;" horiz-adv-x="571" 
d="M523 359q0 -32 -21.5 -51t-48.5 -19t-48.5 19t-21.5 51q0 25 12 41q-63 -4 -100 -61.5t-37 -135.5v-143h87v-60l-146 4q-79 0 -133 -4v60h69v284q0 28 -10.5 33.5t-58.5 5.5v60l177 8v-111h1q21 45 61 78t97 33q49 0 85 -25t36 -67zM289 -117q0 -34 -24 -58.5t-59 -24.5
t-59 24.5t-24 59.5q0 34 24 58.5t59 24.5t59 -24.5t24 -59.5zM529 567h-486v67h486v-67z" />
    <glyph glyph-name="Sdotbelow" unicode="&#x1e62;" horiz-adv-x="769" 
d="M683 201q0 -28 -7.5 -56t-27 -57.5t-48.5 -51.5t-76.5 -36t-107.5 -14q-150 0 -237 50q-20 -18 -30 -28q-16 -16 -21.5 -19t-16.5 -3q-13 0 -19 5t-7 11t-1 18v173q0 23 6.5 29t29.5 6t28.5 -5.5t6.5 -23.5q8 -153 261 -153q53 0 89 13t51 33.5t20 36t5 30.5
q0 43 -33.5 70.5t-76.5 37.5q-4 1 -31 6t-57.5 11t-37.5 7q-53 9 -80 15.5t-61 22t-58 38.5q-62 59 -62 131q0 37 14.5 71.5t44.5 64.5t82.5 48t121.5 18q115 0 192 -47l9 -5q8 6 10 8l34 33q11 11 27 11q13 0 19 -5t7 -11t1 -18v-174q0 -23 -6.5 -28.5t-29.5 -5.5
q-20 0 -26.5 4t-9.5 21q-29 162 -227 162q-85 0 -123 -31t-38 -71q0 -36 32.5 -62.5t83.5 -35.5l179 -33q81 -15 141.5 -71.5t60.5 -139.5zM467 -117q0 -34 -24 -58.5t-59 -24.5t-59 24.5t-24 59.5q0 34 24 58.5t59 24.5t59 -24.5t24 -59.5z" />
    <glyph glyph-name="sdotbelow" unicode="&#x1e63;" horiz-adv-x="551" 
d="M495 142q0 -35 -13 -62.5t-36 -42.5t-45 -25t-51 -13.5t-42.5 -4.5t-29.5 -1q-84 0 -137 28q-3 -1 -13.5 -7.5t-13.5 -8.5q-20 -12 -33 -12t-19 5t-7 11t-1 18v94q0 23 6.5 29t29.5 6q20 0 25.5 -3.5t11.5 -19.5q33 -89 152 -89q132 0 132 66q0 18 -11.5 30.5t-35.5 20.5
t-40.5 11t-48.5 8q-25 3 -40.5 5.5t-41.5 8.5t-42.5 12t-37 17t-32 24t-19.5 31.5t-8 41.5q0 71 66 107q52 28 153 28q75 0 116 -15q32 15 45 15t19 -5t7 -11t1 -18v-66q0 -23 -6.5 -28.5t-29.5 -5.5q-14 0 -19.5 1t-10 6.5t-5.5 18.5q-5 62 -122 62q-130 0 -130 -54
q0 -14 9 -23.5t29.5 -15.5t38 -9.5t48.5 -7.5q53 -8 77 -12.5t52 -15t50 -27.5q53 -45 53 -102zM359 -117q0 -34 -24 -58.5t-59 -24.5t-59 24.5t-24 59.5q0 34 24 58.5t59 24.5t59 -24.5t24 -59.5z" />
    <glyph glyph-name="Tdotbelow" unicode="&#x1e6c;" horiz-adv-x="957" 
d="M897 444h-71q-9 90 -42 128.5t-127 38.5h-103v-551h151v-60q-49 4 -228 4q-178 0 -227 -4v60h151v551h-103q-94 0 -127 -38.5t-42 -128.5h-71l25 227h789zM562 -117q0 -34 -24 -58.5t-59 -24.5t-59 24.5t-24 59.5q0 34 24 58.5t59 24.5t59 -24.5t24 -59.5z" />
    <glyph glyph-name="tdotbelow" unicode="&#x1e6d;" horiz-adv-x="544" 
d="M458 121q0 -64 -45.5 -96t-108.5 -32q-173 0 -173 127v264h-97v51q72 2 113 60.5t43 139.5h71v-191h175v-60h-175v-264q0 -11 0.5 -17.5t3.5 -18t9 -18t18.5 -12t29.5 -5.5q14 0 26.5 4t25.5 22t13 49v46h71v-49zM355 -117q0 -34 -24 -58.5t-59 -24.5t-59 24.5t-24 59.5
q0 34 24 58.5t59 24.5t59 -24.5t24 -59.5z" />
    <glyph glyph-name="Tlinebelow" unicode="&#x1e6e;" horiz-adv-x="957" 
d="M897 444h-71q-9 90 -42 128.5t-127 38.5h-103v-551h151v-60q-49 4 -228 4q-178 0 -227 -4v60h151v551h-103q-94 0 -127 -38.5t-42 -128.5h-71l25 227h789zM722 -149h-486v67h486v-67z" />
    <glyph glyph-name="tlinebelow" unicode="&#x1e6f;" horiz-adv-x="544" 
d="M458 121q0 -64 -45.5 -96t-108.5 -32q-173 0 -173 127v264h-97v51q72 2 113 60.5t43 139.5h71v-191h175v-60h-175v-264q0 -11 0.5 -17.5t3.5 -18t9 -18t18.5 -12t29.5 -5.5q14 0 26.5 4t25.5 22t13 49v46h71v-49zM515 -149h-486v67h486v-67z" />
    <glyph glyph-name="Wgrave" unicode="&#x1e80;" horiz-adv-x="1404" 
d="M1363 626l-72 -1q-12 -1 -15 -3.5t-8 -12.5l-250 -594q-6 -14 -14.5 -20.5t-15.5 -7.5t-20 -1h-26q-13 0 -20 1t-15.5 8t-14.5 21l-191 455l-192 -455q-8 -18 -16.5 -24t-32.5 -6h-26q-13 0 -20 1t-15.5 7.5t-14.5 20.5l-256 611h-89v60l156 -4q108 0 179 4v-60h-89
l202 -480l175 417l-26 63h-88v60l155 -4q127 0 180 4v-60h-89l202 -480l194 462l4 11q0 7 -70 7h-26v60l149 -4q64 0 116 4v-60zM791 812l-26 -65l-185 41q-48 12 -54 50q-9 31 10.5 57t51.5 26q16 0 37 -11z" />
    <glyph glyph-name="wgrave" unicode="&#x1e81;" horiz-adv-x="994" 
d="M952 384h-17q-24 0 -34 -1q-5 -1 -7 -1.5t-4.5 -2t-4 -4t-3.5 -7.5l-149 -347q-12 -28 -50 -28h-26q-14 0 -20.5 1t-15.5 8t-15 21l-110 255l-110 -255q-6 -14 -15 -21t-15.5 -8t-20.5 -1h-26q-13 0 -20 1t-15.5 7.5t-14.5 20.5l-157 362h-62v60l116 -4q79 0 131 4v-60
h-51l114 -264l107 248q-1 1 -7 16h-62v60q44 -4 103 -4q56 0 120 4v-60h-51l126 -291l119 273q0 1 1.5 3.5t2 5t0.5 3.5q0 6 -55 6v60q39 -4 110 -4q56 0 88 4v-60zM583 559l-37 -60l-175 73q-45 19 -45 59q0 25 19 48t47 23q24 0 44 -18z" />
    <glyph glyph-name="Wacute" unicode="&#x1e82;" horiz-adv-x="1404" 
d="M1363 626l-72 -1q-12 -1 -15 -3.5t-8 -12.5l-250 -594q-6 -14 -14.5 -20.5t-15.5 -7.5t-20 -1h-26q-13 0 -20 1t-15.5 8t-14.5 21l-191 455l-192 -455q-8 -18 -16.5 -24t-32.5 -6h-26q-13 0 -20 1t-15.5 7.5t-14.5 20.5l-256 611h-89v60l156 -4q108 0 179 4v-60h-89
l202 -480l175 417l-26 63h-88v60l155 -4q127 0 180 4v-60h-89l202 -480l194 462l4 11q0 7 -70 7h-26v60l149 -4q64 0 116 4v-60zM878 838q-6 -38 -54 -50l-185 -41l-26 65l166 98q21 11 37 11q32 0 51.5 -26t10.5 -57z" />
    </font>
</defs>
</svg>
