<?xml version="1.0" standalone="no"?>
<!DOCTYPE svg PUBLIC "-//W3C//DTD SVG 1.1//EN" "http://www.w3.org/Graphics/SVG/1.1/DTD/svg11.dtd" >
<svg>
<metadata>
Created by FontForge 20120731 at Mon Jul 14 22:19:45 2014
 By tom,,,
Copyright 2003, 2009 B. Jackowski and J. M. Nowacki (on behalf of TeX users groups). This work is released under the GUST Font License --  see http://tug.org/fonts/licenses/GUST-FONT-LICENSE.txt for details.
</metadata>
<defs>
<font id="lmroman8-italic" horiz-adv-x="549" >
  <font-face 
    font-family="LM Roman 8"
    font-weight="400"
    font-style="italic"
    font-stretch="normal"
    units-per-em="1000"
    panose-1="0 0 5 0 0 0 0 0 0 0"
    ascent="806"
    descent="-194"
    x-height="441"
    cap-height="683"
    bbox="-489 -292 1472 1124"
    underline-thickness="36"
    underline-position="-81"
    slope="-14.0362"
    unicode-range="U+0020-FB04"
  />
<missing-glyph horiz-adv-x="280" 
 />
    <glyph glyph-name="I_J" unicode="IJ" horiz-adv-x="934" 
d="M350 19q0 -19 -21 -19q-22 0 -58 3h-128q-48 -3 -57 -3q-16 0 -16 14q0 13 7 16t23 3q50 0 63.5 7.5t20.5 36.5l135 540q3 12 3 18q0 15 -59 15q-17 0 -23.5 2t-6.5 12q0 19 20 19q1 0 13 -0.5t41 -1.5t69 -1h64q36 3 57 3q6 0 10 -3.5t5 -7.5v-3q0 -13 -7 -16t-25 -3
q-49 0 -62 -8t-19 -35l-134 -536q-4 -14 -4 -22q0 -16 59 -16q11 0 16 -0.5t9.5 -3.5t4.5 -10zM1018 669q0 -13 -6.5 -16t-20.5 -3q-32 0 -41.5 -7.5t-16.5 -34.5l-117 -471q-15 -60 -76 -109t-134 -49q-57 0 -92.5 30.5t-35.5 78.5q0 31 14 49t25 21.5t20 3.5
q19 0 30.5 -11t11.5 -28q0 -8 -3.5 -19.5t-18.5 -24.5t-39 -13q9 -31 34 -45t51 -14q42 0 81.5 41.5t54.5 100.5l116 465q3 11 3 17t-3.5 9.5t-8.5 4.5t-19 3q-18 2 -43 2h-9q-29 0 -29 14q0 19 22 19q21 0 64.5 -1.5t65.5 -1.5q40 0 64 1t32.5 1.5t9.5 0.5q14 0 14 -14z
" />
    <glyph glyph-name="i_j" unicode="ij" horiz-adv-x="625" 
d="M347 608q0 -26 -21 -45.5t-46 -19.5q-19 0 -32.5 12.5t-13.5 33.5q0 25 20.5 45t46.5 20q17 0 31.5 -11t14.5 -35zM679 608q0 -26 -21 -45.5t-46 -19.5q-19 0 -32.5 12.5t-13.5 33.5q0 25 20.5 45t46.5 20q17 0 31.5 -11t14.5 -35zM355 143q0 -7 -8.5 -29.5t-23.5 -51
t-43 -50.5t-61 -22q-37 0 -60.5 24t-23.5 59q0 19 11 46l70 186q20 54 20 77q0 31 -22 31q-33 0 -56.5 -34.5t-37.5 -82.5q-3 -14 -6 -17.5t-15 -3.5q-19 0 -19 13q0 12 13 45.5t46.5 70.5t76.5 37q34 0 58.5 -22t24.5 -61q0 -19 -12 -52l-66 -174q-22 -58 -22 -82
q0 -32 22 -32q30 0 54.5 32.5t38.5 84.5q4 14 7.5 17.5t14.5 3.5q19 0 19 -13zM536 -52q-16 -65 -71 -108.5t-117 -43.5q-38 0 -62.5 16t-24.5 43q0 22 15 37.5t35 15.5q16 0 26 -9.5t10 -24.5q0 -29 -28 -44q18 -6 29 -6q42 0 74.5 39.5t43.5 85.5l97 393q3 15 3 27
q0 44 -30 44q-27 0 -59 -26t-61 -96q-4 -11 -7 -13.5t-14 -2.5q-19 0 -19 12q0 7 11.5 30t30.5 51.5t52 50.5t69 22q40 0 66.5 -25.5t26.5 -66.5q0 -15 -5 -35z" />
    <glyph glyph-name="f_k" unicode="fk" horiz-adv-x="849" 
d="M874 143q0 -4 -4.5 -20t-14.5 -40t-20 -41q-35 -52 -82 -52q-41 0 -67 28t-26 71q0 16 4 30q3 15 3 25q0 68 -112 82l-49 -198q-10 -38 -41 -38q-15 0 -23 8.5t-8 20.5q0 3 3 15l92 364h-240l-68 -357q-7 -39 -18 -75t-29.5 -78t-47 -67t-63.5 -25t-61.5 18t-26.5 49
q0 23 14.5 39t36.5 16q35 0 35 -34t-35 -48q14 -12 38 -12q9 0 13.5 1.5t14 12t17.5 30.5t19 61t22 100l70 369h-66q-28 0 -28 14q0 13 7 16t23 3h70q20 110 31 147t35 67q49 59 161 59q132 0 135 -64h1l4 16t5 19q4 14 8 16.5t21 2.5h16h11.5t8 -1.5t6 -4t0.5 -6.5l-4 -17
l-100 -400q40 19 101 84q86 92 149 92q34 0 51.5 -19.5t17.5 -46.5t-15.5 -42.5t-35.5 -15.5q-35 0 -35 34q0 19 13 32.5t29 16.5q-9 13 -26 13q-56 0 -132 -86q-57 -57 -84 -75q138 -24 138 -107q0 -15 -4 -31q-7 -26 -7 -50q0 -46 30 -46t47.5 32t30.5 86q3 12 7 16t15 4
q19 0 19 -13zM537 431l43 173h-1q-4 -8 -16 -15t-26 -7q-35 0 -35 34q0 19 11 31t20 15q-27 14 -79 14q-94 0 -120 -68q-8 -23 -39 -177h242z" />
    <glyph glyph-name="f_f" unicode="ff" horiz-adv-x="658" 
d="M801 637q0 -23 -14.5 -39t-36.5 -16q-35 0 -35 34t34 46q-18 14 -45 14q-15 0 -26 -7.5t-17.5 -23t-10 -26.5t-7.5 -30l-30 -158h82q15 0 21.5 -2t6.5 -12q0 -13 -6.5 -16t-22.5 -3h-88l-57 -305q-2 -14 -9.5 -46.5t-25 -87t-34.5 -79.5q-11 -16 -27.5 -32t-51 -34
t-69.5 -18q-43 0 -74.5 17t-31.5 50q0 23 14.5 39t36.5 16q35 0 35 -34q0 -33 -32 -46q21 -14 53 -14q36 0 69 35q18 18 25.5 33t18.5 51q15 55 27 117l64 338h-248l-61 -324q-52 -278 -165 -278q-36 0 -62 18t-26 49q0 23 14.5 39t36.5 16q35 0 35 -34t-35 -48
q14 -12 38 -12q34 0 57 77q1 4 1 5q16 60 28 124l70 368h-66q-10 0 -15 0.5t-9 3.5t-4 10q0 13 7 16t23 3h70l19 102q15 81 58.5 126t132.5 45q59 0 89 -18.5t30 -48.5q0 -23 -14.5 -39t-36.5 -16q-35 0 -35 34q0 32 32 45q-25 15 -64 15q-34 0 -58.5 -13t-33.5 -28
q-16 -24 -34 -118q-10 -54 -16 -86h248l22 115q31 158 139 158q41 0 69 -18.5t28 -48.5z" />
    <glyph glyph-name="f_i" unicode="fi" horiz-adv-x="603" 
d="M629 143q-13 -60 -34 -100q-29 -53 -77 -53q-37 0 -64.5 24.5t-27.5 67.5q0 16 5 36l70 280h-212l-61 -323q-52 -279 -166 -279q-33 0 -60 17.5t-27 49.5q0 23 14.5 39t36.5 16q35 0 35 -34t-34 -48q15 -12 37 -12q35 0 57 80q15 54 31 137l67 357h-65q-10 0 -15 0.5
t-9 3.5t-4 10q0 13 6.5 16t22.5 3h71l18 97q9 48 28.5 82.5t41 52t52.5 27.5t52.5 12t52.5 2q156 0 156 -75q0 -25 -15.5 -41t-35.5 -16q-16 0 -26 9.5t-10 24.5t9 27t18 17l9 4q-30 22 -103 22q-46 0 -74 -8t-45 -30.5t-24.5 -45t-16.5 -67.5l-18 -94h254q26 0 26 -12
q0 -3 -2 -13l-78 -315q-3 -12 -3 -29q0 -44 28 -44q40 0 67 110q4 15 5.5 19t5 6.5t12.5 2.5q19 0 19 -13z" />
    <glyph glyph-name="f_l" unicode="fl" horiz-adv-x="631" 
d="M657 143q-13 -60 -34 -100q-29 -53 -77 -53q-37 0 -64.5 24.5t-27.5 67.5q0 16 5 36l70 280h-240l-68 -357q-7 -39 -18 -75t-29.5 -78t-47 -67t-63.5 -25t-61.5 18t-26.5 49q0 23 14.5 39t36.5 16q35 0 35 -34t-35 -48q14 -12 38 -12q9 0 13.5 1.5t14 12t17.5 30.5t19 61
t22 100l70 369h-66q-28 0 -28 14q0 13 7 16t23 3h70q20 110 31 147t35 67q49 59 161 59q132 0 135 -64h1l4 16t5 19q4 14 8 16.5t21 2.5h16q10 0 14.5 -0.5t8 -3t3.5 -8.5l-146 -591q-3 -12 -3 -29q0 -44 28 -44q40 0 67 110q4 15 5.5 19t5 6.5t12.5 2.5q19 0 19 -13z
M537 431l43 173h-1q-4 -8 -16 -15t-26 -7q-35 0 -35 34q0 19 11 31t20 15q-27 14 -79 14q-94 0 -120 -68q-8 -23 -39 -177h242z" />
    <glyph glyph-name="f_f_i" unicode="&#xfb00;i" horiz-adv-x="946" 
d="M972 143q-13 -60 -34 -100q-29 -53 -77 -53q-37 0 -64.5 24.5t-27.5 67.5q0 16 5 36l70 280h-226l-59 -312q-36 -162 -70 -209q-66 -81 -151 -81q-48 0 -79.5 17.5t-31.5 49.5q0 23 14.5 39t36.5 16q35 0 35 -34q0 -33 -32 -46q23 -14 58 -14q39 0 77 38q24 25 39 76
q18 62 30 124l63 336h-259l-60 -321q-10 -53 -21.5 -94t-30.5 -88t-48.5 -73t-65.5 -26q-35 0 -61.5 18t-26.5 49q0 23 14.5 39t36.5 16q35 0 35 -34t-35 -48q14 -12 38 -12q9 0 14 1.5t14.5 12t17.5 31t19 62.5t22 102l69 365h-65q-29 0 -29 14q0 13 7 16t23 3h70
q19 102 30 141t32 67q50 65 162 65q132 0 132 -67q0 -23 -14.5 -39t-36.5 -16q-35 0 -35 34q0 19 11 31t20 15q-26 14 -76 14q-93 0 -117 -70q-14 -38 -38 -175h258l18 93q9 50 30 86t42.5 53.5t54.5 27.5t54 11.5t53 1.5q164 0 164 -74q0 -26 -15 -42t-36 -16
q-16 0 -26 9.5t-10 24.5q0 4 1 10.5t10.5 19t25.5 17.5q-30 23 -112 23q-24 0 -42 -2.5t-33.5 -5t-27 -12t-20 -16.5t-16.5 -25.5t-13 -31t-11 -42t-10 -49.5t-11 -61h268q26 0 26 -12q0 -3 -2 -13l-78 -315q-3 -12 -3 -29q0 -44 28 -44q40 0 67 110q4 15 5.5 19t5 6.5
t12.5 2.5q19 0 19 -13z" />
    <glyph glyph-name="f_f_l" unicode="ffl" horiz-adv-x="960" 
d="M986 143q-13 -60 -34 -100q-29 -53 -77 -53q-37 0 -64.5 24.5t-27.5 67.5q0 16 5 36l70 280h-240l-64 -336q-16 -85 -47 -154q-19 -42 -66.5 -77t-102.5 -35q-48 0 -79.5 17.5t-31.5 49.5q0 23 14.5 39t36.5 16q35 0 35 -34q0 -33 -32 -46q23 -14 58 -14q34 0 62.5 25
t38.5 47q20 41 44 164l64 338h-258l-62 -326q-51 -276 -165 -276q-35 0 -61.5 18t-26.5 49q0 23 14.5 39t36.5 16q35 0 35 -34t-35 -48q14 -12 38 -12q35 0 57 79q19 68 29 125l70 370h-65q-28 0 -28 14q0 13 6.5 16t22.5 3h70l20 104q15 80 58 124.5t132 44.5
q61 0 90 -19.5t29 -47.5q0 -23 -14.5 -39t-36.5 -16q-35 0 -35 34q0 32 32 45q-25 15 -64 15q-36 0 -59.5 -13.5t-31.5 -25.5q-16 -27 -34 -120q-3 -16 -16 -86h259q19 107 31 146.5t39 71.5q47 55 157 55q132 0 135 -64h1l4 16t5 19q4 14 8 16.5t21 2.5h16q10 0 14.5 -0.5
t8 -3t3.5 -8.5l-146 -591q-3 -12 -3 -29q0 -44 28 -44q40 0 67 110q4 15 5.5 19t5 6.5t12.5 2.5q19 0 19 -13zM866 431l43 173h-1q-4 -8 -16 -15t-26 -7q-35 0 -35 34q0 19 11 31t20 15q-27 14 -79 14q-94 0 -120 -67q-13 -35 -39 -178h242z" />
    <glyph glyph-name=".notdef" horiz-adv-x="280" 
 />
    <glyph glyph-name=".null" horiz-adv-x="0" 
 />
    <glyph glyph-name="nonmarkingreturn" horiz-adv-x="333" 
 />
    <glyph glyph-name="space" unicode=" " horiz-adv-x="384" 
 />
    <glyph glyph-name="exclam" unicode="!" horiz-adv-x="329" 
d="M381 647l-145 -439q-4 -12 -8 -14.5t-14 -2.5q-19 0 -19 13l2 13l75 439q6 33 27.5 46t39.5 13q20 0 33.5 -12t13.5 -32q0 -11 -5 -24zM234 65q0 -25 -20.5 -45t-46.5 -20q-17 0 -31.5 11t-14.5 35q0 26 21 45.5t46 19.5q19 0 32.5 -12.5t13.5 -33.5z" />
    <glyph glyph-name="quotedbl" unicode="&#x22;" horiz-adv-x="437" 
d="M367 669l-78 -246h-38l46 246q2 15 15.5 25t28.5 10t22.5 -10t3.5 -25zM475 669l-78 -246h-38l46 246q2 15 15.5 25t28.5 10t22.5 -10t3.5 -25z" />
    <glyph glyph-name="numbersign" unicode="#" horiz-adv-x="878" 
d="M830 144q0 -23 -39 -23h-220l-152 -295q-10 -20 -24 -20q-10 0 -16.5 7t-6.5 16q0 4 8 20l139 272h-171l-152 -295q-10 -20 -24 -20q-10 0 -16.5 7t-6.5 16q0 4 8 20l139 272h-138q-40 0 -40 23t35 23h168l85 166h-201q-34 0 -34 23t39 23h220l152 295q10 20 24 20
q10 0 16.5 -7t6.5 -16q0 -4 -8 -20l-139 -272h171l152 295q10 20 24 20q10 0 16.5 -7t6.5 -16q0 -4 -8 -20l-139 -272h138q40 0 40 -23t-35 -23h-168l-85 -166h201q34 0 34 -23zM629 333h-172l-85 -166h172z" />
    <glyph glyph-name="dollar" unicode="$" horiz-adv-x="531" 
d="M525 228q-8 -90 -80.5 -160.5t-165.5 -76.5l-11 -47h-33l11 47q-78 4 -116 47.5t-32 108.5q9 84 63 84q15 0 27.5 -10t11.5 -31q-2 -22 -18.5 -37.5t-39.5 -15.5q-10 0 -13 1q-1 -58 36 -85t90 -30l73 295q-45 11 -66.5 21t-42.5 33q-42 46 -37 112q6 75 69.5 139.5
t160.5 78.5q9 2 11.5 4.5t5.5 13.5l7 30h33l-11 -47q71 -3 113 -40.5t36 -106.5q-5 -79 -61 -79q-14 0 -27.5 9t-11.5 32q2 22 19 37.5t39 15.5q9 0 11 -1q0 50 -39 76q-39 22 -87 25l-67 -267q75 -18 106 -54q41 -49 36 -122zM417 670q-70 -8 -118.5 -52t-53.5 -96
q-2 -29 8 -50t30.5 -33.5t34 -17.5t33.5 -10zM463 190q8 94 -103 120l-72 -286q69 8 119.5 58.5t55.5 107.5z" />
    <glyph glyph-name="percent" unicode="%" horiz-adv-x="878" 
d="M894 727q0 -8 -12 -21l-680 -748q-12 -14 -23 -14q-8 0 -15.5 6.5t-7.5 16.5q0 9 12 22l589 648v1q-59 -24 -118 -24q-77 0 -139 41q3 -28 3 -36q0 -95 -59 -183.5t-129 -88.5q-43 0 -73.5 36t-30.5 101q0 100 63 183t135 83q37 0 69 -37q60 -71 162 -71q121 0 206 93
q15 15 25 15t16.5 -7t6.5 -16zM840 216q0 -96 -59 -184t-129 -88q-44 0 -74 37t-30 100q0 99 63 182.5t136 83.5q45 0 69 -38.5t24 -92.5zM465 623q0 44 -15 71.5t-41 27.5q-42 0 -76 -54t-49.5 -114t-15.5 -99q0 -31 11.5 -55.5t37.5 -24.5q49 0 98.5 80.5t49.5 167.5z
M803 221q0 21 -4 41t-18 38.5t-35 18.5q-41 0 -75.5 -54t-50 -114t-15.5 -100q0 -7 1 -15.5t5 -25t15 -27.5t28 -11q50 0 99.5 81t49.5 168z" />
    <glyph glyph-name="ampersand" unicode="&#x26;" horiz-adv-x="823" 
d="M781 304q0 -22 -4.5 -47.5t-17 -57.5t-30.5 -62t-47.5 -59t-67 -51t-90 -35t-114.5 -13q-129 0 -203.5 59t-74.5 142q0 44 26 103t71 104q-13 32 -13 68q0 94 70 177t154 83q51 0 83.5 -33t32.5 -84q0 -77 -53 -77q-35 0 -35 34q0 16 12 31.5t38 17.5q-1 41 -24 62
t-54 21q-43 0 -79.5 -40t-57 -98.5t-23.5 -120.5q52 34 104 34q35 0 52.5 -19.5t17.5 -44.5q0 -34 -30 -64t-73 -30q-51 0 -89 34q-22 -43 -36 -92.5t-14 -81.5q0 -78 57.5 -117.5t142.5 -39.5q79 0 140.5 24t96 58.5t57 78t29.5 76t7 57.5q0 71 -56 142
q-41 -24 -57.5 -34.5t-37.5 -27.5t-27.5 -32t-6.5 -34q0 -13 6 -24q13 33 46 33q15 0 25 -10t10 -24q0 -15 -13 -31.5t-38 -16.5q-31 0 -52.5 21t-21.5 53q0 25 10.5 47t33 41t40 30.5t48.5 29.5q25 15 36.5 23t34.5 27t40.5 43.5t31.5 54.5q-30 5 -30 33q0 19 14.5 34
t34.5 15q35 0 35 -33q0 -13 -9.5 -41t-41 -74t-77.5 -80q61 -84 61 -162zM416 403q0 31 -32 31q-46 0 -95 -57q7 -17 23 -31t40 -14q29 0 46.5 22.5t17.5 48.5z" />
    <glyph glyph-name="quotesingle" unicode="'" horiz-adv-x="329" 
d="M367 669l-78 -246h-38l46 246q2 15 15.5 25t28.5 10t22.5 -10t3.5 -25z" />
    <glyph glyph-name="parenleft" unicode="(" horiz-adv-x="439" 
d="M295 -238q0 -12 -14 -12q-13 0 -42.5 40t-48.5 88q-31 81 -31 182q0 87 27.5 201t92.5 228q44 77 103.5 142t97 92t45.5 27q14 0 14 -12q0 -5 -2 -6q-1 -2 -18 -16q-82 -66 -144.5 -162t-95.5 -194t-48.5 -182.5t-15.5 -150.5q0 -151 72 -251q8 -10 8 -14z" />
    <glyph glyph-name="parenright" unicode=")" horiz-adv-x="439" 
d="M403 440q0 -87 -27.5 -201t-92.5 -228q-44 -77 -103.5 -142t-97 -92t-45.5 -27q-14 0 -14 12q0 4 2 6l18 16q82 66 145 162.5t95.5 194.5t48 182t15.5 150q0 153 -75 253q-5 8 -5 12q0 12 14 12q13 0 42.5 -40t48.5 -88q31 -81 31 -182z" />
    <glyph glyph-name="asterisk" unicode="*" 
d="M567 448q0 -14 -11.5 -24.5t-23.5 -10.5q-10 0 -21 10l-96 86l-26 -154q-6 -36 -35 -36q-12 0 -17.5 7t-5.5 13l4 16l52 154l-147 -90q-8 -6 -17 -6q-22 0 -22 22q0 19 27 32l152 68l-117 65q-16 8 -16 21t11.5 24t23.5 11q10 0 21 -10l96 -86l26 154q6 36 35 36
q23 0 23 -20q0 -4 -5 -17l-51 -154l147 91q9 6 18 6q21 0 21 -22q0 -21 -27 -33l-152 -67l116 -64q17 -9 17 -22z" />
    <glyph glyph-name="plus" unicode="+" horiz-adv-x="823" 
d="M801 250q0 -23 -35 -23h-275l-69 -279q-8 -27 -25 -27q-10 0 -16.5 6.5t-6.5 16.5q0 5 4 19l66 264h-264q-35 0 -35 23t35 23h276l69 279q8 27 25 27q10 0 16.5 -6.5t6.5 -16.5q0 -5 -4 -19l-66 -264h263q35 0 35 -23z" />
    <glyph glyph-name="comma" unicode="," horiz-adv-x="329" 
d="M237 48q0 -56 -33 -115.5t-67 -93t-45 -33.5q-6 0 -10 4.5t-4 10.5t9 12q93 79 117 178q-15 -11 -37 -11q-24 0 -35.5 13t-11.5 31q0 24 19 45.5t49 21.5q49 0 49 -63z" />
    <glyph glyph-name="hyphen" unicode="-" horiz-adv-x="384" 
d="M350 199q-3 -10 -7.5 -12t-20.5 -2h-207q-8 0 -11.5 0.5t-8 1.5t-6 4.5t-1.5 8.5q0 8 8 32q2 10 7 12t21 2h206q28 0 28 -14q0 -5 -8 -33z" />
    <glyph glyph-name="period" unicode="." horiz-adv-x="329" 
d="M234 66q0 -27 -21 -46.5t-46 -19.5q-19 0 -32.5 12t-13.5 33q0 27 21 46.5t46 19.5q19 0 32.5 -12t13.5 -33z" />
    <glyph glyph-name="slash" unicode="/" 
d="M647 727q0 -7 -8 -20l-567 -939q-10 -18 -24 -18q-10 0 -16.5 7t-6.5 16q0 7 8 20l567 939q10 18 24 18q10 0 16.5 -7t6.5 -16z" />
    <glyph glyph-name="zero" unicode="0" 
d="M585 488q0 -66 -27 -173.5t-65 -177.5t-96 -114t-128 -44q-40 0 -69.5 15t-44 34.5t-22.5 47t-9.5 44t-1.5 34.5q0 66 28 176t66 177q89 158 223 158q35 0 61.5 -10.5t41.5 -29t24.5 -36.5t13 -41.5t4.5 -34.5t1 -25zM519 540q0 48 -25.5 72.5t-60.5 24.5
q-108 0 -163 -169q-16 -49 -47.5 -177t-31.5 -185q0 -47 24 -73t61 -26q79 0 132 97q27 50 69 214t42 222z" />
    <glyph glyph-name="one" unicode="1" 
d="M447 19q0 -19 -21 -19q-3 0 -72 3h-142l-67 -3q-7 0 -11.5 3.5t-5.5 6.5v4q0 13 7 16t23 3h10q61 0 77 9t23 39l116 464q-64 -42 -117 -42q-18 0 -18 14q0 8 3.5 12.5t6.5 5t8 1.5q103 10 181 114q10 15 18 15q16 0 16 -14q0 -4 -3 -13l-141 -563q-4 -14 -4 -22
q0 -10 5 -13t24 -5l46 -2h10q10 0 15 -0.5t9 -3.5t4 -10z" />
    <glyph glyph-name="two" unicode="2" 
d="M553 164q0 -10 -11 -37.5t-30.5 -62t-55 -60t-76.5 -25.5q-42 0 -100 36q-64 39 -97 39q-36 0 -56 -60q-3 -10 -6.5 -12.5t-13.5 -2.5q-19 0 -19 13q0 9 10 34.5t30.5 62.5t63 78.5t96.5 70.5q50 26 84.5 50.5t67 58.5t49 78.5t16.5 98.5q0 59 -29 86t-69 27
q-56 0 -105 -47t-73.5 -101.5t-24.5 -91.5q0 -33 22 -33q40 0 70 48.5t30 79.5q0 22 -8 30q-5 10 -5 14q0 5 5 9.5t10 4.5q9 0 17.5 -19.5t8.5 -37.5q0 -42 -37.5 -99.5t-91.5 -57.5q-30 0 -44 20.5t-14 47.5q0 28 17.5 71t47 86t77.5 73.5t101 30.5q72 0 121.5 -47
t49.5 -126q0 -80 -53 -139.5t-195 -133.5q-112 -55 -165 -138l19 1q31 0 102 -15q76 -14 100 -14q41 0 75 29t50 80q3 9 6.5 11.5t13.5 2.5q19 0 19 -12z" />
    <glyph glyph-name="three" unicode="3" 
d="M593 527q0 -58 -45 -114.5t-117 -81.5q79 -39 79 -130q0 -92 -82.5 -157t-182.5 -65q-67 0 -106.5 38t-39.5 92q0 28 11.5 52t41.5 24q18 0 27 -10t9 -23q0 -8 -2.5 -16.5t-15 -20t-32.5 -13.5q3 -48 34.5 -71.5t72.5 -23.5q47 0 85 22t59.5 56.5t33 72.5t11.5 74
q0 49 -25 67.5t-58 18.5h-33q-11 0 -15.5 0.5t-8.5 3.5t-4 9q0 14 6 17t21 3h28q48 0 84 19t54 44t28.5 56.5t13 48.5t2.5 28q0 45 -26.5 67.5t-66.5 22.5q-73 0 -132.5 -52t-59.5 -109q0 -36 26 -36q20 0 39.5 16.5t19.5 39.5q0 12 -9 28l-5 12q0 5 5 9.5t10 4.5
q9 0 18 -17.5t9 -36.5q0 -34 -27.5 -59t-61.5 -25q-29 0 -45.5 20t-16.5 47q0 66 69.5 126t162.5 60q72 0 114.5 -40.5t42.5 -97.5z" />
    <glyph glyph-name="four" unicode="4" 
d="M509 15q0 -12 -37 -21.5t-63 -9.5q-16 0 -23 1l-27 -112q-6 -22 -8.5 -30.5t-8 -19t-13 -14t-19.5 -3.5q-13 0 -21.5 8t-8.5 20q0 5 41 167l-64 22q-37 12 -79 12q-64 0 -84 -15q-25 -20 -32 -20q-6 0 -11 6t-5 12q0 15 42 38q31 21 89 82q162 174 245 489q11 33 34 37
q4 1 8 1q10 0 19.5 -6.5t9.5 -21.5q0 -10 -11.5 -53t-49.5 -131t-92 -171q-70 -109 -186 -214h35q30 0 53 -6t87 -28l32 130q9 35 13.5 47.5t13.5 21.5t25 9q11 0 20.5 -7t9.5 -22q-1 -7 -3 -14l-45 -181q5 -1 17 -1q31 0 67 12l14 4q7 0 11.5 -7t4.5 -11z" />
    <glyph glyph-name="five" unicode="5" 
d="M529 259q0 -110 -85.5 -195t-188.5 -85q-67 0 -105.5 41.5t-38.5 100.5q0 86 57 86q16 0 26.5 -9t10.5 -26t-12.5 -34t-43.5 -18q1 -50 30 -80.5t76 -30.5q36 0 76.5 23.5t71.5 75.5q22 36 37 96.5t15 93.5q0 35 -16 64t-55 29q-77 0 -138 -61q-17 -17 -25 -17
q-16 0 -16 14q0 3 3 15l76 304q6 19 14 19q5 0 12 -5q57 -27 123 -27q65 0 137 27q10 5 13 5q12 0 12 -13q0 -11 -25 -29q-85 -67 -182 -67q-45 0 -84 13l-48 -193q61 43 130 43q68 0 105.5 -46.5t37.5 -113.5z" />
    <glyph glyph-name="six" unicode="6" 
d="M539 265q0 -109 -82 -197.5t-184 -88.5q-56 0 -91 31t-46 70.5t-11 86.5q0 16 3 43.5t12.5 80.5t35 114t63.5 110q58 74 124.5 112t128.5 38q46 0 75.5 -20t29.5 -61q0 -33 -14.5 -49.5t-37.5 -16.5q-35 0 -35 33q0 7 2 15.5t13.5 20t31.5 13.5q-10 39 -66 39
q-12 0 -25.5 -2t-47 -18t-62.5 -44.5t-62 -89.5t-54 -144q65 85 147 85q35 0 62.5 -12.5t44 -31t27 -41.5t14.5 -41.5t4 -34.5zM462 306q0 10 -1.5 20t-8 29t-24.5 31t-46 12q-40 0 -75 -26t-58 -63q-53 -87 -53 -200q0 -52 22.5 -76t56.5 -24q35 0 67 21t45.5 39t21.5 34
q19 35 36 104.5t17 98.5z" />
    <glyph glyph-name="seven" unicode="7" 
d="M661 653q0 -5 -16 -27q-175 -248 -265 -596q-3 -13 -6.5 -21t-16 -19t-31.5 -11q-16 0 -26.5 9.5t-10.5 25.5q0 7 8 38t33.5 98.5t60.5 138.5q46 91 145 244q-21 -9 -44 -9q-21 0 -34 10.5t-27 32.5q-17 24 -38 24q-52 0 -109 -40t-95 -108l-13 -21q-3 -3 -14 -3
q-19 0 -19 12q0 4 6 16l99 202q4 8 6 10.5t5.5 4t10.5 1.5q19 0 19 -12q0 -5 -21 -47q69 59 138 59q29 0 39.5 -16t16.5 -51q5 -27 10.5 -36.5t19.5 -9.5q24 0 50 18.5t41.5 36.5t36.5 46q6 8 9 10t13 2q19 0 19 -12z" />
    <glyph glyph-name="eight" unicode="8" 
d="M525 204q0 -88 -78.5 -156.5t-175.5 -68.5q-69 0 -119 37t-50 102q0 134 195 222q-45 35 -62.5 59t-17.5 67q0 79 68 139t152 60q64 0 105.5 -33.5t41.5 -86.5q0 -18 -6 -37.5t-21 -45.5t-50 -53.5t-86 -50.5q68 -57 71 -60q33 -38 33 -94zM534 548q0 40 -27 65.5
t-72 25.5q-60 0 -109.5 -40t-49.5 -91q0 -17 7.5 -32.5t13.5 -22t9 -7.5l89 -68q58 26 98.5 72.5t40.5 97.5zM460 167q0 33 -14.5 51t-68.5 60q-51 40 -54 40q-7 0 -32.5 -15.5t-55.5 -40.5t-53.5 -65t-23.5 -81q0 -46 31.5 -76.5t83.5 -30.5q71 0 129 48.5t58 109.5z" />
    <glyph glyph-name="nine" unicode="9" 
d="M584 481q0 -30 -6 -76t-32.5 -127.5t-69.5 -141.5q-55 -75 -119 -116t-129 -41q-49 0 -83 19.5t-34 62.5q0 31 14.5 48t37.5 17q35 0 35 -33q0 -7 -2 -15.5t-13.5 -19.5t-30.5 -14q16 -35 78 -35q19 0 40.5 6.5t50 26.5t54 51t51 86t42.5 125q-65 -85 -147 -85
q-41 0 -72 16.5t-47 42.5t-24 52t-8 50q0 114 84 199.5t186 85.5q67 0 105.5 -47t38.5 -137zM467 348q20 38 32 86.5t13 77.5l2 30q0 42 -19 69.5t-55 27.5q-77 0 -132 -81q-25 -40 -43 -112.5t-18 -105.5q0 -41 19 -67t61 -26q43 0 80 29.5t60 71.5z" />
    <glyph glyph-name="colon" unicode=":" horiz-adv-x="329" 
d="M314 386q0 -27 -21 -46.5t-46 -19.5q-19 0 -32.5 12t-13.5 33q0 27 21 46.5t46 19.5q19 0 32.5 -12t13.5 -33zM234 66q0 -27 -21 -46.5t-46 -19.5q-19 0 -32.5 12t-13.5 33q0 27 21 46.5t46 19.5q19 0 32.5 -12t13.5 -33z" />
    <glyph glyph-name="semicolon" unicode=";" horiz-adv-x="329" 
d="M314 386q0 -27 -21 -46.5t-46 -19.5q-19 0 -32.5 12t-13.5 33q0 27 21 46.5t46 19.5q19 0 32.5 -12t13.5 -33zM231 56q0 -55 -31.5 -117t-64 -97.5t-43.5 -35.5q-6 0 -10 4.5t-4 10.5q0 4 16 19q76 70 101 166q-12 -6 -28 -6q-24 0 -35.5 13t-11.5 31q0 24 19 45.5
t49 21.5q43 0 43 -55z" />
    <glyph glyph-name="less" unicode="&#x3c;" horiz-adv-x="826" 
d="M727 -41q-2 -10 -10.5 -16.5t-18.5 -6.5q-5 0 -16 7l-517 282q-18 11 -14 25q3 15 27 25l657 282q15 7 20 7q10 0 15 -6.5t2 -16.5q-3 -15 -27 -25l-618 -266l485 -266q18 -10 15 -25z" />
    <glyph glyph-name="equal" unicode="=" horiz-adv-x="823" 
d="M828 356q0 -23 -35 -23h-588q-34 0 -34 23t39 23h578q40 0 40 -23zM775 144q0 -23 -39 -23h-578q-40 0 -40 23t35 23h588q34 0 34 -23z" />
    <glyph glyph-name="greater" unicode="&#x3e;" horiz-adv-x="826" 
d="M800 250q-5 -15 -28 -25l-657 -282q-15 -7 -20 -7q-10 0 -14.5 6.5t-2.5 16.5q3 14 27 25l619 266l-486 266q-18 11 -15 25q7 23 29 23q5 0 16 -7l517 -282q18 -11 15 -25z" />
    <glyph glyph-name="question" unicode="?" 
d="M580 587q0 -33 -11 -62t-31 -52t-33 -34t-33 -26l-124 -92q-16 -12 -23.5 -18.5t-15.5 -21t-8 -31.5q0 -31 27 -31q20 0 44 17t36 51q4 12 20 12q18 0 18 -12q0 -25 -35 -60.5t-85 -35.5q-34 0 -50 22t-16 50q0 31 14 56t29 38t47 36l110 82q79 58 79 125q0 43 -27 65
t-64 22q-61 0 -114 -50t-82 -123q32 -4 32 -34q0 -20 -15 -34.5t-34 -14.5q-16 0 -26 9.5t-10 24.5q0 16 10.5 44.5t32 64t50 67t70 53t86.5 21.5q57 0 94.5 -34.5t37.5 -93.5zM344 65q0 -25 -20.5 -45t-46.5 -20q-17 0 -31.5 11t-14.5 35q0 26 21 45.5t46 19.5
q19 0 32.5 -12.5t13.5 -33.5z" />
    <glyph glyph-name="at" unicode="@" horiz-adv-x="823" 
d="M757 72q0 -7 -8 -11q-50 -23 -141.5 -47t-190.5 -24q-125 0 -192.5 77.5t-67.5 188.5t61.5 215.5t160.5 168.5t204 64q109 0 181.5 -72t72.5 -195q0 -28 -8.5 -74.5t-26.5 -102t-53.5 -94.5t-80.5 -39q-32 0 -54.5 17t-25.5 47q-67 -64 -143 -64q-68 0 -110 46.5
t-42 116.5q0 105 80 191t175 86q45 0 77.5 -23.5t46.5 -60.5h24q11 0 15.5 -0.5t8.5 -3.5t4 -9l-2 -13l-65 -257l-2 -20q0 -25 18 -25q32 0 58.5 38.5t40.5 90.5t21 94.5t7 61.5q0 102 -59.5 169t-158.5 67q-93 0 -183 -60t-147 -158.5t-57 -203.5q0 -101 58 -168.5
t164 -67.5q139 0 278 59q15 7 34 7q11 0 15.5 -0.5t8.5 -3t4 -8.5zM644 425l2 13q0 9 -5 24t-15 33t-30.5 31t-46.5 13q-68 0 -128.5 -84.5t-60.5 -177.5q0 -49 22 -85.5t65 -36.5q48 0 99 42q51 41 60 79z" />
    <glyph glyph-name="A" unicode="A" horiz-adv-x="797" 
d="M739 19q0 -19 -19 -19q-2 0 -11 1t-32.5 1.5t-61.5 0.5q-19 0 -56.5 -1.5t-54.5 -1.5q-16 0 -16 14q0 13 6.5 16t20.5 3q28 0 42.5 7.5t16.5 15t1 20.5l-15 155h-253q-49 -82 -50 -84q-40 -67 -40 -83q0 -27 37 -31q18 0 18 -14q0 -19 -20 -19l-10 1q-11 1 -32.5 1.5
t-49.5 0.5q-30 0 -48 -0.5t-25 -1.5t-9 -1q-14 0 -14 14q0 8 3.5 12t7 5t11.5 2q67 6 114 85l343 575q13 21 33 21q13 0 17 -5t6 -22l60 -621q1 -14 3.5 -19.5t13.5 -9.5t35 -4q10 0 15 -0.5t9 -3.5t4 -10zM557 264l-32 330l-198 -330h230z" />
    <glyph glyph-name="B" unicode="B" horiz-adv-x="755" 
d="M721 217q0 -80 -81.5 -148.5t-188.5 -68.5h-345q-10 0 -15 0.5t-9 3.5t-4 10q0 13 7 16t26 3q44 0 56.5 8t19.5 35l134 537q4 14 4 22q0 15 -55 15q-11 0 -15.5 0.5t-9 3.5t-4.5 10q0 13 6.5 16t22.5 3h324q81 0 131.5 -39t50.5 -99q0 -67 -61 -119.5t-143 -68.5
q66 -8 107.5 -46.5t41.5 -93.5zM690 547q0 10 -2.5 22t-11.5 33t-34 34.5t-62 13.5h-136q-25 0 -33 -5t-14 -30l-61 -246h147q87 0 147 56.5t60 121.5zM632 226q0 11 -3 25t-12.5 37t-35 38t-63.5 15h-189l-70 -279q-3 -11 -4 -27q9 -2 28 -2h145q83 0 143.5 59t60.5 134z
" />
    <glyph glyph-name="C" unicode="C" horiz-adv-x="768" 
d="M794 437q-4 -14 -7.5 -17t-14.5 -3q-19 0 -19 13q0 1 1 8.5t2 20t1 23.5q0 82 -40 135.5t-115 53.5q-65 0 -132.5 -36t-117.5 -99q-56 -72 -82 -164t-26 -154q0 -102 55 -154t133 -52q35 0 73 13t77 39t72.5 72.5t52.5 106.5q2 10 18 10q19 0 19 -13q0 -4 -3.5 -16
t-13 -34.5t-23.5 -44.5q-46 -72 -122.5 -119t-160.5 -47q-114 0 -189.5 74.5t-75.5 198.5q0 113 64 218.5t166 169.5t209 64t165 -87l65 76q9 11 18 11q14 0 14 -12q0 -5 -3 -14z" />
    <glyph glyph-name="D" unicode="D" horiz-adv-x="810" 
d="M822 432q0 -82 -34.5 -162t-90.5 -139t-128.5 -95t-145.5 -36h-319q-10 0 -15 0.5t-9 3.5t-4 10q0 13 7 16t26 3q44 0 56.5 8t19.5 35l134 537q4 14 4 22q0 15 -55 15q-11 0 -15.5 0.5t-9 3.5t-4.5 10q0 13 6.5 16t22.5 3h325q103 0 166 -70t63 -181zM739 466
q0 91 -50 137.5t-128 46.5h-115q-25 0 -33 -5t-14 -30l-138 -553q-3 -11 -4 -27q9 -2 28 -2h122q73 0 137 36.5t106 98.5t65.5 152.5t23.5 145.5z" />
    <glyph glyph-name="E" unicode="E" horiz-adv-x="727" 
d="M732 246q0 -7 -5 -17l-91 -211q-6 -13 -10.5 -15.5t-20.5 -2.5h-502q-10 0 -15 0.5t-9 3.5t-4 10q0 13 7 16t26 3q44 0 56.5 8t19.5 35l133 533q4 14 4 22q0 11 -13 13.5t-42 2.5q-12 0 -16.5 0.5t-8.5 4t-4 10.5q0 12 6.5 15t22.5 3h488q28 0 28 -14l-1 -14l-20 -175
q-1 -10 -2.5 -14t-5.5 -7t-12 -3q-19 0 -19 16q0 3 0.5 8t0.5 7q5 32 5 58q0 60 -29 82.5t-112 22.5h-140q-25 0 -33 -5t-14 -31l-60 -241h90q60 0 84 18t39 74q4 17 7.5 21t14.5 4q19 0 19 -15q0 -1 -4 -18l-53 -213q-3 -13 -6.5 -17t-14.5 -4q-19 0 -19 14q0 5 3 14
q7 28 7 47q0 22 -14.5 32t-63.5 10h-97l-69 -275q-3 -11 -4 -27q9 -2 28 -2h142q48 0 84 8.5t60 22.5t45.5 42t35.5 55.5t35 75.5q8 17 11 20t13 3q19 0 19 -14z" />
    <glyph glyph-name="F" unicode="F" horiz-adv-x="700" 
d="M748 477q-1 -10 -2.5 -14t-5.5 -7t-12 -3q-19 0 -19 16q0 6 3 24q3 36 3 51q0 58 -28 80.5t-108 22.5h-132q-25 0 -33 -5t-14 -31l-63 -254h87q61 0 84 19t38 77q3 13 6.5 17t14.5 4q19 0 19 -14q0 -3 -3 -15l-54 -217q-4 -14 -8 -17.5t-14 -3.5q-19 0 -19 14q0 3 4 15
q7 30 7 47q0 22 -14.5 31.5t-62.5 9.5h-94l-62 -251q-4 -15 -4 -21q0 -10 4.5 -12.5t23.5 -4.5q26 -2 43 -2h7q29 0 29 -14q0 -19 -21 -19h-6q-6 1 -17.5 1.5t-26.5 0.5t-37.5 0.5t-47.5 0.5h-61q-10 0 -31.5 -1.5t-30.5 -1.5q-15 0 -15 14q0 13 7 16t26 3q44 0 56.5 8
t19.5 35l133 533q4 14 4 22q0 11 -13 13.5t-42 2.5q-12 0 -16.5 0.5t-8.5 4t-4 10.5q0 12 6.5 15t22.5 3h475q28 0 28 -14l-1 -14z" />
    <glyph glyph-name="G" unicode="G" horiz-adv-x="830" 
d="M818 262q0 -19 -18 -19q-46 0 -55 -14q-6 -10 -23 -78q-1 -5 -10 -42t-17 -68t-10 -34q-1 -3 -3.5 -5t-4.5 -2h-2q-9 0 -21 19.5t-18 35.5q-77 -76 -213 -76q-118 0 -192.5 75.5t-74.5 197.5q0 113 64 218.5t166 169.5t209 64t165 -87l65 76q9 11 18 11q14 0 14 -12
q0 -5 -3 -14l-60 -241q-4 -14 -7.5 -17t-14.5 -3q-19 0 -19 13q0 1 1 8.5t2 20t1 23.5q0 82 -40 135.5t-115 53.5q-65 0 -132.5 -36t-117.5 -99q-55 -71 -81.5 -163t-26.5 -154q0 -100 55.5 -153.5t138.5 -53.5q54 0 108.5 22t78.5 68q5 11 18 63t13 58q0 10 -5 13t-24 5
l-46 2h-10q-10 0 -15 0.5t-9 3.5t-4 10q0 19 22 19q21 0 65.5 -1.5t66.5 -1.5q32 0 54.5 0.5t30.5 1t13.5 1t7.5 0.5q15 0 15 -14z" />
    <glyph glyph-name="H" unicode="H" horiz-adv-x="797" 
d="M891 669q0 -13 -7 -16t-24 -3q-46 0 -58.5 -8t-20.5 -38l-133 -532q-4 -14 -4 -23q0 -11 13 -13.5t42 -2.5q11 0 15.5 -0.5t9 -3.5t4.5 -10q0 -19 -20 -19q-1 0 -6 0.5t-13.5 1t-21 0.5t-33 0.5t-44.5 0.5h-60q-24 -3 -57 -3q-15 0 -15 14q0 13 6.5 16t20.5 3
q49 0 62 7.5t20 35.5l65 263h-300l-67 -268l-4 -22q0 -11 13 -13.5t42 -2.5q11 0 15.5 -0.5t9 -3.5t4.5 -10q0 -19 -20 -19q-1 0 -6 0.5t-13.5 1t-21 0.5t-33 0.5t-44.5 0.5h-60q-24 -3 -57 -3q-15 0 -15 14q0 13 7 16t26 3q44 0 56.5 8t19.5 35l134 537q4 14 4 22
q0 15 -55 15q-11 0 -15.5 0.5t-9 3.5t-4.5 10q0 19 20 19l58 -3h119q54 3 57 3q16 0 16 -14q0 -13 -7 -16t-26 -3q-44 0 -57 -8t-19 -35l-58 -235h300l60 242q0 1 2 9t2 12q0 15 -55 15q-30 0 -30 14q0 19 21 19l58 -3h119q54 3 57 3q16 0 16 -14z" />
    <glyph glyph-name="I" unicode="I" horiz-adv-x="413" 
d="M350 19q0 -19 -21 -19q-22 0 -58 3h-128q-48 -3 -57 -3q-16 0 -16 14q0 13 7 16t23 3q50 0 63.5 7.5t20.5 36.5l135 540q3 12 3 18q0 15 -59 15q-17 0 -23.5 2t-6.5 12q0 19 20 19q1 0 13 -0.5t41 -1.5t69 -1h64q36 3 57 3q6 0 10 -3.5t5 -7.5v-3q0 -13 -7 -16t-25 -3
q-49 0 -62 -8t-19 -35l-134 -536q-4 -14 -4 -22q0 -16 59 -16q11 0 16 -0.5t9.5 -3.5t4.5 -10z" />
    <glyph glyph-name="J" unicode="J" horiz-adv-x="563" 
d="M647 669q0 -13 -6.5 -16t-20.5 -3q-32 0 -41.5 -7.5t-16.5 -34.5l-117 -471q-15 -60 -76 -109t-134 -49q-57 0 -92.5 30.5t-35.5 78.5q0 31 14 49t25 21.5t20 3.5q19 0 30.5 -11t11.5 -28q0 -8 -3.5 -19.5t-18.5 -24.5t-39 -13q9 -31 34 -45t51 -14q42 0 81.5 41.5
t54.5 100.5l116 465q3 11 3 17t-3.5 9.5t-8.5 4.5t-19 3q-18 2 -43 2h-9q-29 0 -29 14q0 19 22 19q21 0 64.5 -1.5t65.5 -1.5q40 0 64 1t32.5 1.5t9.5 0.5q14 0 14 -14z" />
    <glyph glyph-name="K" unicode="K" horiz-adv-x="824" 
d="M759 19q0 -19 -19 -19q-3 0 -9 1t-26 1.5t-57 0.5q-18 0 -53.5 -1.5t-52.5 -1.5q-15 0 -15 14q0 19 24 19q43 2 43 29q0 7 -6 19l-124 282l-156 -122l-38 -151q-1 -5 -3.5 -15t-4 -17t-1.5 -9q0 -11 13 -13.5t42 -2.5q11 0 15.5 -0.5t9 -3.5t4.5 -10q0 -19 -20 -19
q-1 0 -6 0.5t-13.5 1t-21 0.5t-33 0.5t-44.5 0.5h-60q-24 -3 -57 -3q-15 0 -15 14q0 13 7 16t26 3q44 0 56.5 8t19.5 35l134 537q4 14 4 22q0 15 -55 15q-11 0 -15.5 0.5t-9 3.5t-4.5 10q0 19 20 19l58 -3h119q54 3 57 3q16 0 16 -14q0 -13 -7 -16t-26 -3q-44 0 -57 -8
t-19 -35l-78 -313l373 291q9 8 11 9l6 6q22 16 22 35q0 14 -22 15q-16 1 -16 14q0 19 21 19q16 0 50.5 -1.5t51.5 -1.5h40l36 3q13 0 13 -14q0 -17 -19 -19q-65 -7 -165 -86l-194 -151l150 -341q11 -25 23 -31.5t39 -7.5q18 0 18 -14z" />
    <glyph glyph-name="L" unicode="L" horiz-adv-x="673" 
d="M664 245q0 -5 -5 -18l-77 -209q-5 -13 -9.5 -15.5t-21.5 -2.5h-448q-10 0 -15 0.5t-9 3.5t-4 10q0 13 7 16t26 3q44 0 56.5 8t19.5 35l134 537q4 14 4 22q0 15 -55 15q-11 0 -15.5 0.5t-9 3.5t-4.5 10q0 19 20 19q1 0 11.5 -0.5t39.5 -1.5t73 -1q22 0 67 1.5t66 1.5
q16 0 16 -14q0 -13 -6.5 -16t-22.5 -3h-8q-58 0 -73.5 -8.5t-22.5 -38.5l-135 -541q-3 -11 -4 -27q9 -2 28 -2h95q39 0 71.5 8t56 25.5t40 33.5t31.5 44.5t22 44.5t19 47q6 17 9.5 20.5t13.5 3.5q19 0 19 -15z" />
    <glyph glyph-name="M" unicode="M" horiz-adv-x="961" 
d="M1050 669q0 -13 -7 -16t-24 -3q-46 0 -58.5 -8t-20.5 -38l-133 -532q-4 -14 -4 -23q0 -11 13 -13.5t42 -2.5q11 0 15.5 -0.5t9 -3.5t4.5 -10q0 -19 -20 -19q-1 0 -5.5 0.5t-13 1t-20.5 0.5t-32 0.5t-43 0.5h-58q-45 -3 -53 -3q-15 0 -15 14q0 13 6.5 16t20.5 3
q49 0 62 7.5t20 35.5l138 556h-1l-380 -611q-13 -21 -30 -21q-9 0 -13 3t-5.5 7.5t-2.5 15.5l-74 598h-1l-131 -526q-4 -12 -4 -24q0 -40 59 -41q18 0 18 -14q0 -19 -19 -19q-2 0 -11 1t-31.5 1.5t-56.5 0.5q-16 0 -48.5 -1.5t-47.5 -1.5t-15 14q0 19 19 19q49 2 68.5 20.5
t28.5 54.5l127 505q4 14 4 22q0 15 -55 15q-11 0 -15.5 0.5t-9 3.5t-4.5 10q0 13 6.5 16t22.5 3h129q20 0 24.5 -3.5t6.5 -22.5l70 -566l356 572q8 14 15 17t25 3h124q28 0 28 -14z" />
    <glyph glyph-name="N" unicode="N" horiz-adv-x="797" 
d="M891 669q0 -17 -17 -19q-18 -1 -28 -3t-27 -8.5t-28 -22t-17 -40.5l-139 -557q-3 -12 -6.5 -15.5t-15.5 -3.5t-15 3t-8 15l-233 585l-126 -505q-4 -12 -4 -24q0 -40 59 -41q18 0 18 -14q0 -19 -19 -19q-2 0 -11 1t-31.5 1.5t-56.5 0.5q-16 0 -48.5 -1.5t-47.5 -1.5
t-15 14q0 19 19 19q49 2 68.5 20.5t28.5 54.5l135 536q-21 6 -59 6q-11 0 -15.5 0.5t-9 3.5t-4.5 10q0 13 6.5 16t22.5 3h117q16 0 20.5 -2.5t10.5 -16.5l209 -524l111 446q4 15 4 24q0 38 -59 40q-19 0 -19 14q0 19 20 19q1 0 10.5 -0.5t32 -1.5t56.5 -1q32 0 54 1
t31.5 1.5t10.5 0.5q15 0 15 -14z" />
    <glyph glyph-name="O" unicode="O" horiz-adv-x="823" 
d="M836 436q0 -86 -38 -171t-98 -147t-138 -100.5t-156 -38.5q-114 0 -183 75t-69 189q0 111 62 218.5t163 175t207 67.5q109 0 179.5 -73.5t70.5 -194.5zM750 471q0 97 -49 149.5t-123 52.5q-65 0 -132.5 -42t-113.5 -116q-47 -73 -66.5 -155t-19.5 -139q0 -101 48 -155
t120 -54q70 0 134.5 45t107.5 113t68.5 148.5t25.5 152.5z" />
    <glyph glyph-name="P" unicode="P" horiz-adv-x="727" 
d="M772 532q0 -84 -86 -152t-191 -68h-169l-60 -241l-4 -22q0 -11 13 -13.5t42 -2.5q11 0 15.5 -0.5t9 -3.5t4.5 -10q0 -19 -20 -19q-1 0 -6 0.5t-13.5 1t-21 0.5t-33 0.5t-44.5 0.5h-60q-24 -3 -57 -3q-15 0 -15 14q0 13 7 16t21 3q48 0 61 7.5t21 38.5l133 535q0 1 2 9
t2 12q0 15 -55 15q-11 0 -15.5 0.5t-9 3.5t-4.5 10q0 13 6.5 16t22.5 3h313q87 0 139 -43.5t52 -107.5zM682 555q0 95 -133 95h-103q-25 0 -33 -5t-14 -30l-68 -273h141q101 0 157 59q25 27 39 75.5t14 78.5z" />
    <glyph glyph-name="Q" unicode="Q" horiz-adv-x="823" 
d="M744 0q0 -5 -5.5 -24.5t-18.5 -48.5t-31.5 -56t-47.5 -46t-63 -19q-85 0 -85 107q0 26 6 80q-50 -14 -93 -14q-114 0 -183 75t-69 189q0 111 62 218.5t163 175t207 67.5q109 0 179.5 -73.5t70.5 -194.5q0 -128 -81.5 -250.5t-217.5 -179.5q5 -63 19.5 -84.5t44.5 -21.5
q29 0 62.5 23t52.5 78q3 13 14 13q5 0 9.5 -4t4.5 -10zM750 464q0 101 -49 155t-123 54q-90 0 -169.5 -70.5t-123.5 -175.5t-44 -210q0 -148 105 -194q-4 14 -4 25q0 38 31 70.5t73 32.5q76 0 88 -106q62 35 107.5 94.5t67.5 122.5t31.5 113t9.5 89zM502 46q0 41 -13.5 59
t-42.5 18q-30 0 -53 -24t-23 -51q0 -38 43 -38q20 0 40.5 4t30.5 8l11 5q7 3 7 19z" />
    <glyph glyph-name="R" unicode="R" horiz-adv-x="782" 
d="M774 96q0 -12 -11.5 -37.5t-41.5 -52.5t-69 -27q-50 0 -88.5 25.5t-38.5 82.5q0 24 18 89q12 50 12 64q0 37 -26.5 62.5t-80.5 25.5h-121l-64 -257l-4 -22q0 -11 13 -13.5t42 -2.5q11 0 15.5 -0.5t9 -3.5t4.5 -10q0 -19 -20 -19q-18 0 -57 3h-118q-54 -3 -57 -3
q-15 0 -15 14q0 13 7 16t26 3q44 0 56.5 8t19.5 35l134 537q4 14 4 22q0 15 -55 15q-11 0 -15.5 0.5t-9 3.5t-4.5 10q0 13 6.5 16t22.5 3h274q96 0 157 -43t61 -107q0 -60 -58 -114.5t-153 -79.5q86 -34 86 -115q0 -2 -10 -92q-6 -45 -6 -70q0 -28 7 -41.5t29 -13.5
q26 0 47 24.5t32 59.5q4 12 7 15.5t14 3.5q19 0 19 -14zM668 551q0 99 -145 99h-77q-25 0 -33 -5t-14 -30l-64 -259h114q92 0 149 42q36 26 53 70.5t17 82.5z" />
    <glyph glyph-name="S" unicode="S" horiz-adv-x="603" 
d="M571 232q0 -95 -75.5 -174t-172.5 -79q-111 0 -166 69l-46 -57q-9 -12 -17 -12q-14 0 -14 13q0 1 4 18l49 197q4 14 7.5 17t14.5 3q18 0 18 -12l-1 -11q-7 -24 -7 -53q0 -71 45.5 -105t114.5 -34q70 0 125 58t55 127q0 81 -77 103l-94 25q-129 31 -129 147q0 87 74 159.5
t168 72.5q95 0 142 -68l45 56q10 12 17 12q14 0 14 -12q0 -5 -3 -14l-51 -202q-4 -14 -6.5 -17t-14.5 -3q-19 0 -19 13q0 2 1.5 10t2.5 21.5t1 27.5q0 146 -130 146q-68 0 -121.5 -52.5t-53.5 -114.5q0 -33 17.5 -58t48.5 -35q56 -14 60 -16q71 -18 93 -27t41 -29
q40 -45 40 -110z" />
    <glyph glyph-name="T" unicode="T" horiz-adv-x="768" 
d="M820 470q-1 -7 -1.5 -9.5t-2.5 -6t-6 -4.5t-10 -1q-9 0 -14 3.5t-4.5 7.5t0.5 5v5v5l8 65q2 18 2 26q0 51 -28 64t-109 13q-50 0 -57 -2q-14 -2 -22 -34l-134 -537q-3 -11 -3 -17q0 -9 6 -12.5t25 -5.5q34 -2 50 -2h13q10 0 15 -0.5t9 -3.5t4 -10q0 -19 -21 -19
q-19 0 -60 1.5t-61 1.5h-73q-20 0 -58.5 -1.5t-57.5 -1.5q-17 0 -17 14q0 13 6.5 16t23.5 3h13q65 0 82 9.5t25 41.5l131 525q4 14 5 32q-15 2 -60 2q-55 0 -84 -4.5t-54.5 -22t-41 -47.5t-35.5 -86q-10 -30 -12 -31q-4 -3 -14 -3q-19 0 -19 14q0 4 5 17l61 178q4 13 9 15.5
t22 2.5h545q28 0 28 -14l-1 -14z" />
    <glyph glyph-name="U" unicode="U" horiz-adv-x="797" 
d="M891 669q0 -17 -17 -19q-18 -1 -28 -3t-27 -8.5t-28 -22t-17 -40.5l-89 -359q-21 -88 -101.5 -163t-177.5 -75q-79 0 -135 51t-56 140q0 31 7 59l96 384q4 14 4 22q0 15 -55 15q-11 0 -15.5 0.5t-9 3.5t-4.5 10q0 19 20 19l58 -3h119q54 3 57 3q16 0 16 -14q0 -13 -7 -16
t-26 -3q-44 0 -57 -8t-19 -35l-97 -389q-10 -42 -10 -76q0 -68 35 -99t82 -31q77 0 147.5 63.5t92.5 153.5l89 357q4 15 4 24q0 38 -59 40q-19 0 -19 14q0 19 20 19q1 0 10 -0.5t31.5 -1.5t55.5 -1q19 0 35 0.5t26.5 1t18 0.5t11 0.5t4.5 0.5q15 0 15 -14z" />
    <glyph glyph-name="V" unicode="V" horiz-adv-x="797" 
d="M915 669q0 -17 -19 -19q-20 -2 -34 -6.5t-37 -24.5t-45 -55l-356 -566q-11 -19 -32 -19q-14 0 -17 4.5t-6 21.5l-79 613q-2 20 -10 26t-41 6q-26 0 -26 14q0 19 20 19q2 0 10 -0.5t31 -1.5t61 -1q18 0 55.5 1.5t54.5 1.5q15 0 15 -14q0 -13 -6.5 -16t-20.5 -3
q-36 -1 -48 -11t-10 -31l67 -518l306 489q17 28 17 42q0 26 -38 29q-15 0 -15 14q0 19 19 19q1 0 11 -0.5t31.5 -1.5t48.5 -1q31 0 48 1t22.5 1.5t8.5 0.5q14 0 14 -14z" />
    <glyph glyph-name="W" unicode="W" horiz-adv-x="1071" 
d="M1190 669q0 -8 -3 -12t-6.5 -5t-11.5 -2q-58 -6 -102 -84l-318 -565q-12 -22 -33 -22q-20 0 -21 18l-1 8l-32 504l-287 -509q-12 -21 -32 -21q-14 0 -17.5 5.5t-4.5 22.5l-40 611q-1 15 -3 20t-11 8.5t-29 3.5q-26 0 -26 14q0 19 19 19q3 0 10 -0.5t29 -1.5t60 -1
q18 0 54.5 1.5t53.5 1.5q15 0 15 -14q0 -19 -22 -19q-25 0 -40 -4t-20 -12t-6.5 -13.5t-0.5 -15.5l32 -495l262 463l-4 57q-2 11 -9.5 15.5t-33.5 4.5q-25 0 -25 14q0 19 19 19q3 0 10 -0.5t28.5 -1.5t59.5 -1q18 0 54.5 1.5t53.5 1.5q16 0 16 -14q0 -19 -24 -19t-38.5 -4
t-20 -12t-6.5 -13.5t0 -15.5l32 -495l264 467q13 22 13 38q0 33 -47 35q-18 0 -18 14q0 19 20 19q1 0 12 -0.5l33 -1.5t51 -1q46 0 62 1.5t17 1.5q4 0 8.5 -3.5t4.5 -10.5z" />
    <glyph glyph-name="X" unicode="X" horiz-adv-x="797" 
d="M746 19q0 -19 -19 -19q-3 0 -11 1t-31 1.5t-62 0.5q-19 0 -56.5 -1.5t-54.5 -1.5q-16 0 -16 14q0 19 19 19q21 1 35.5 10.5t14.5 17.5q0 3 -4 12l-104 238l-196 -209q-1 -1 -15 -19q-9 -14 -9 -25q0 -23 28 -25q15 0 15 -14q0 -19 -19 -19q-1 0 -12 1t-34.5 1.5
t-54.5 0.5q-33 0 -52.5 -0.5t-27 -1.5t-9.5 -1q-5 0 -9.5 4t-4.5 10q0 17 21 19q76 7 134 68l231 244l-120 276q-7 17 -19.5 23t-46.5 6q-24 0 -24 14q0 19 20 19q2 0 10.5 -0.5t32 -1.5t61.5 -1l111 3q15 0 15 -14q0 -12 -5 -15t-14 -4q-22 -2 -36 -11.5t-14 -16.5
q1 -4 4 -11l87 -199l158 168q5 5 9 13l4 4q12 14 12 28q0 23 -28 25q-16 0 -16 14q0 19 20 19q1 0 11.5 -0.5t33.5 -1.5t55 -1t52.5 1t28 1.5t8.5 0.5q15 0 15 -14q0 -8 -3.5 -12.5t-7.5 -5l-12 -1.5q-77 -6 -152 -86l-174 -186l138 -317q7 -15 19 -21.5t43 -6.5
q10 0 14.5 -0.5t8.5 -3.5t4 -10z" />
    <glyph glyph-name="Y" unicode="Y" horiz-adv-x="797" 
d="M921 669q0 -17 -21 -19q-68 -7 -128 -75l-267 -302l-43 -172q-12 -45 -12 -54q0 -14 55 -14q11 0 16 -0.5t9.5 -3.5t4.5 -10q0 -19 -20 -19q-1 0 -6 0.5t-14 1t-21.5 0.5t-32.5 0.5t-43 0.5h-58q-54 -3 -57 -3q-15 0 -15 14q0 13 6.5 16t19.5 3q53 1 64.5 9.5t24.5 57.5
q2 7 12.5 50t20 82t9.5 40q0 4 -4 15l-127 334q-4 12 -8 17t-17 8.5t-38 3.5q-24 0 -24 14q0 19 20 19q2 0 10 -0.5t32 -1.5t63 -1q19 0 57 1.5t55 1.5q16 0 16 -14q0 -19 -24 -19q-51 0 -51 -21q0 -7 5 -17l111 -292l229 260l8 10q1 2 2.5 4.5t3.5 4.5q7 8 11 16t5 12v4
q0 17 -28 19q-16 1 -16 14q0 19 20 19q1 0 11 -0.5t31.5 -1.5t48.5 -1q24 0 40.5 0.5t22 1t10 1t7.5 0.5q5 0 9.5 -4t4.5 -10z" />
    <glyph glyph-name="Z" unicode="Z" horiz-adv-x="658" 
d="M644 255q0 -3 -4 -13l-70 -224q-4 -13 -9 -15.5t-22 -2.5h-429q-25 0 -25 11q0 14 12 27l544 612h-152q-102 0 -153 -41t-81 -130q-4 -11 -6 -15t-5.5 -6t-10.5 -2q-19 0 -19 14q0 3 3 12l55 181q5 14 9 17t22 3h413q25 0 25 -11t-13 -26l-541 -610h161q51 0 90 10.5
t63.5 26.5t44 45.5t30.5 55.5t25 70q6 18 9.5 21.5t14.5 3.5q19 0 19 -14z" />
    <glyph glyph-name="bracketleft" unicode="[" horiz-adv-x="329" 
d="M463 736q0 -14 -7 -26q-4 -6 -26 -6h-68l-226 -908h60q28 0 28 -14q-3 -20 -7 -25q-4 -7 -25 -7h-83q-28 0 -28 14q0 3 3 15l238 951q4 15 8 17.5t22 2.5h83q28 0 28 -14z" />
    <glyph glyph-name="backslash" unicode="\" horiz-adv-x="531" 
d="M414 -227q-2 -10 -10 -16.5t-18 -6.5q-11 0 -14 5.5t-5 18.5l-126 935v18q2 10 10.5 16.5t18.5 6.5q11 0 14 -5.5t5 -18.5l125 -935v-18z" />
    <glyph glyph-name="bracketright" unicode="]" horiz-adv-x="329" 
d="M368 721l-238 -951q-4 -15 -8 -17.5t-22 -2.5h-83q-28 0 -28 14t7 26q4 6 26 6h68l227 908h-61q-28 0 -28 14q3 20 7 25q4 7 25 7h83q28 0 28 -14q0 -3 -3 -15z" />
    <glyph glyph-name="asciicircum" unicode="^" horiz-adv-x="556" 
d="M707 584l-17 -22l-242 123l-301 -123l-6 22l323 160z" />
    <glyph glyph-name="underscore" unicode="_" horiz-adv-x="797" 
d="M784 -125q-1 -7 -8 -13t-15 -6h-797q-8 0 -12 6t-2 13q2 8 9 13.5t15 5.5h796q8 0 12 -5.5t2 -13.5z" />
    <glyph glyph-name="grave" unicode="`" 
d="M468 522q-3 -6 -13 -13.5t-17 -7.5q-4 0 -10 7l-108 122q-14 15 -5 35q8 15 21.5 23t25.5 8q6 0 11.5 -3t7.5 -7l2 -3l83 -143q4 -13 2 -18z" />
    <glyph glyph-name="a" unicode="a" 
d="M565 143q-13 -60 -34 -100q-29 -53 -77 -53q-35 0 -59 19.5t-31 48.5q-60 -68 -129 -68q-57 0 -94.5 44.5t-37.5 115.5q0 107 75.5 199t163.5 92q58 0 92 -56q3 19 15.5 28t25.5 9t21.5 -8t8.5 -20q0 -1 -4 -21l-70 -282q-3 -12 -3 -29q0 -44 28 -44q40 0 67 110
q4 15 5.5 19t5 6.5t12.5 2.5q19 0 19 -13zM371 133l42 171l3 14q0 11 -4.5 30t-23 42t-46.5 23q-61 0 -112 -93q-18 -34 -36 -104.5t-18 -106.5t15 -63.5t47 -27.5q40 0 83 42t50 73z" />
    <glyph glyph-name="b" unicode="b" horiz-adv-x="494" 
d="M486 281q0 -110 -75.5 -200.5t-163.5 -90.5q-56 0 -91.5 43.5t-35.5 113.5q0 46 10 76l98 390q0 2 1 7t2 9t1 6q0 6 -1.5 8.5t-12.5 4.5t-34 2q-26 0 -26 14q0 8 4 12.5t8 5.5t13 2l104 9q27 2 27 -13q0 -3 -3 -15l-69 -275q60 51 112 51q54 0 93 -42t39 -118zM364 119
q16 34 32.5 99t16.5 103q0 47 -18 69.5t-43 22.5q-34 0 -82 -40q-43 -41 -51 -77q-37 -139 -37 -180q0 -40 16.5 -69t49.5 -29q29 0 61 26.5t55 74.5z" />
    <glyph glyph-name="c" unicode="c" horiz-adv-x="494" 
d="M502 100q0 -5 -9 -17t-29 -28t-45.5 -30.5t-63 -24.5t-78.5 -10q-72 0 -117 46.5t-45 122.5q0 109 83 195.5t182 86.5q52 0 84.5 -24t32.5 -62q0 -28 -15.5 -44t-35.5 -16q-18 0 -27 10t-9 23q0 40 43 49q-19 36 -73 36q-33 0 -72 -24t-70 -80q-19 -34 -33.5 -91
t-14.5 -94q0 -50 24 -78t64 -28q47 0 98.5 22.5t89.5 68.5q11 12 16 12t12.5 -7.5t7.5 -13.5z" />
    <glyph glyph-name="d" unicode="d" 
d="M575 143q-13 -60 -34 -100q-29 -53 -77 -53q-35 0 -59 19.5t-31 48.5q-60 -68 -129 -68q-57 0 -94.5 44.5t-37.5 115.5q0 107 75.5 199t163.5 92q58 0 92 -56l57 228q0 2 1 7t2 9t1 6q0 6 -1.5 8.5t-12.5 4.5t-34 2q-26 0 -26 14q0 8 4 12.5t8 5.5t13 2l104 9
q27 2 27 -13q0 -3 -3 -15l-143 -574q-3 -12 -3 -29q0 -44 28 -44q40 0 67 110q4 15 5.5 19t5 6.5t12.5 2.5q19 0 19 -13zM381 133l42 171l3 14q0 11 -4.5 30t-23 42t-46.5 23q-61 0 -112 -93q-18 -34 -36 -104.5t-18 -106.5t15 -63.5t47 -27.5q40 0 83 42t50 73z" />
    <glyph glyph-name="e" unicode="e" horiz-adv-x="494" 
d="M502 100q0 -5 -9 -17t-29 -28t-45.5 -30.5t-63 -24.5t-78.5 -10q-75 0 -116.5 53t-41.5 127q0 63 25 116.5t64.5 86t84 50.5t86.5 18q50 0 81 -24.5t31 -62.5q0 -30 -13.5 -53t-37.5 -36t-47 -21t-53.5 -11.5t-44.5 -4t-31 -0.5h-57q-14 -60 -14 -96q0 -44 19.5 -79
t65.5 -35q47 0 98.5 22.5t89.5 68.5q11 12 16 12t12.5 -7.5t7.5 -13.5zM447 354q0 28 -20 43.5t-48 15.5q-26 0 -55 -12t-61.5 -50t-47.5 -95h41q191 0 191 98z" />
    <glyph glyph-name="f" unicode="f" horiz-adv-x="329" 
d="M472 637q0 -23 -14.5 -39t-36.5 -16q-35 0 -35 34t34 47q-15 13 -39 13q-13 0 -22.5 -7t-16.5 -24t-10 -29t-8 -36q-6 -25 -29 -149h82q29 0 29 -14q0 -13 -7 -16t-23 -3h-87l-59 -312q-10 -55 -21.5 -96.5t-31 -90.5t-49 -76t-66.5 -27q-33 0 -60 17.5t-27 49.5
q0 23 14.5 39t36.5 16q35 0 35 -34t-34 -48q15 -12 37 -12q35 0 56 79q17 61 31 134l68 361h-65q-28 0 -28 14q0 13 6.5 16t22.5 3h70l21 109q30 164 136 164q36 0 63 -18t27 -49z" />
    <glyph glyph-name="g" unicode="g" horiz-adv-x="494" 
d="M511 373l-110 -439q-14 -55 -70 -96.5t-144 -41.5q-58 0 -92.5 11.5t-34.5 46.5q0 24 15 39t35 15q16 0 26 -9.5t10 -24.5q-2 -28 -25 -42q27 -8 68 -8q62 0 104 44q14 15 23 31.5t12.5 28.5t10.5 38l21 84q-58 -50 -112 -50q-56 0 -94.5 42.5t-38.5 115.5
q0 106 75 194.5t162 88.5q61 0 91 -54q4 15 15.5 25t26.5 10q13 0 21.5 -8t8.5 -20q0 -1 -4 -21zM383 141l41 165q3 14 3 15q0 11 -5 30t-23.5 40.5t-46.5 21.5q-29 0 -61 -26.5t-55 -72.5q-17 -35 -32.5 -99t-15.5 -97q0 -38 16 -64t46 -26q40 0 82.5 40.5t50.5 72.5z" />
    <glyph glyph-name="h" unicode="h" 
d="M575 143q0 -8 -8.5 -30.5t-24 -51t-43.5 -50t-61 -21.5q-37 0 -60.5 24t-23.5 59q0 19 13 52q61 164 61 222q0 66 -51 66q-37 0 -70 -20t-53 -48.5t-31 -50.5t-14 -35q-3 -11 -8 -32.5t-8 -32.5q-45 -177 -46 -179q-9 -25 -36 -25q-15 0 -23 8.5t-8 20.5q0 3 3 15
l145 579q0 2 1 7t2 9t1 6q0 6 -1.5 8.5t-12.5 4.5t-34 2q-26 0 -26 14q0 8 4 12.5t8 5.5t13 2l104 9q27 2 27 -13q0 -3 -3 -15l-73 -291q64 67 142 67q48 0 81 -24.5t33 -83.5q0 -57 -61 -219q-15 -43 -15 -64q0 -32 22 -32q31 0 55.5 32.5t38.5 84.5q4 14 7.5 17.5
t14.5 3.5q19 0 19 -13z" />
    <glyph glyph-name="i" unicode="i" horiz-adv-x="329" 
d="M355 143q0 -7 -8.5 -29.5t-23.5 -51t-43 -50.5t-61 -22q-37 0 -60.5 24t-23.5 59q0 19 11 46l70 186q20 54 20 77q0 31 -22 31q-33 0 -56.5 -34.5t-37.5 -82.5q-3 -14 -6 -17.5t-15 -3.5q-19 0 -19 13q0 12 13 45.5t46.5 70.5t76.5 37q34 0 58.5 -22t24.5 -61
q0 -19 -12 -52l-66 -174q-22 -58 -22 -82q0 -32 22 -32q30 0 54.5 32.5t38.5 84.5q4 14 7.5 17.5t14.5 3.5q19 0 19 -13zM371 608q0 -26 -21 -45.5t-46 -19.5q-19 0 -32.5 12.5t-13.5 33.5q0 25 20.5 45t46.5 20q17 0 31.5 -11t14.5 -35z" />
    <glyph glyph-name="j" unicode="j" horiz-adv-x="329" 
d="M241 -52q-15 -62 -67 -107t-114 -45q-42 0 -68.5 15.5t-26.5 43.5q0 22 15 37.5t35 15.5q16 0 26 -9.5t10 -24.5q-1 -29 -27 -43q17 -7 36 -7q44 0 72.5 42t38.5 83l97 393q3 15 3 27q0 44 -30 44q-29 0 -61.5 -28t-59.5 -94q-4 -11 -7 -13.5t-14 -2.5q-19 0 -19 12
q0 7 11.5 30t30.5 51.5t52.5 50.5t69.5 22q40 0 66.5 -25.5t26.5 -66.5q0 -15 -5 -35zM371 608q0 -26 -21 -45.5t-46 -19.5q-19 0 -32.5 12.5t-13.5 33.5q0 25 20.5 45t46.5 20q17 0 31.5 -11t14.5 -35z" />
    <glyph glyph-name="k" unicode="k" horiz-adv-x="494" 
d="M520 143q0 -4 -4.5 -20t-14.5 -40t-20 -41q-35 -52 -82 -52q-41 0 -67 28t-26 71q0 16 4 30q3 15 3 25q0 68 -112 82l-49 -198q-10 -38 -41 -38q-15 0 -23 8.5t-8 20.5q0 3 3 15l145 579q0 2 1 7t2 9t1 6q0 6 -1.5 8.5t-12.5 4.5t-34 2q-26 0 -26 14q0 8 4 12.5t8 5.5
t13 2l104 9q27 2 27 -13q0 -3 -3 -15l-100 -400q40 19 101 84q86 92 149 92q34 0 51.5 -19.5t17.5 -46.5t-15.5 -42.5t-35.5 -15.5q-35 0 -35 34q0 19 13 32.5t29 16.5q-9 13 -26 13q-56 0 -132 -86q-57 -57 -84 -75q138 -24 138 -107q0 -15 -4 -31q-7 -26 -7 -50
q0 -46 30 -46t47.5 32t30.5 86q3 12 7 16t15 4q19 0 19 -13z" />
    <glyph glyph-name="l" unicode="l" horiz-adv-x="274" 
d="M300 143q0 -3 -4 -18.5t-12 -39.5t-16 -40q-29 -55 -77 -55q-37 0 -64.5 24.5t-27.5 67.5q0 16 5 36l124 495q0 2 1 7t2 9t1 6q0 6 -1.5 8.5t-12.5 4.5t-34 2q-26 0 -26 14q0 8 4 12.5t8 5.5t13 2l104 9q27 2 27 -13q0 -3 -3 -15l-143 -574q-3 -12 -3 -29q0 -44 28 -44
q9 0 16.5 4.5t14 15t11 19t10 26t8 26t7.5 27.5q3 13 6.5 16.5t14.5 3.5q19 0 19 -13z" />
    <glyph glyph-name="m" unicode="m" horiz-adv-x="878" 
d="M904 143q0 -8 -8.5 -30.5t-24 -51t-43.5 -50t-61 -21.5q-37 0 -60.5 24t-23.5 59q0 19 13 52q61 164 61 222q0 66 -51 66q-50 0 -92 -35q-28 -25 -48.5 -59.5t-25.5 -50.5l-16 -65q-6 -22 -16 -65l-22 -86q-6 -24 -9.5 -34.5t-13 -19t-24.5 -8.5q-13 0 -21.5 8t-8.5 20
q0 1 4 21l63 251q8 30 8 57q0 66 -52 66q-31 0 -59 -14.5t-46.5 -34.5t-32.5 -40.5t-20 -35.5l-6 -14l-34 -136l-22 -86q-6 -24 -9.5 -34.5t-13 -19t-24.5 -8.5q-13 0 -21.5 8t-8.5 20q0 2 3 15l73 292q6 21 6 44q0 44 -28 44q-39 0 -67 -111q-5 -19 -8 -23t-15 -4
q-19 0 -19 13q0 3 4.5 19.5t12.5 40.5t16 39q31 54 78 54q36 0 61.5 -22.5t30.5 -57.5q66 80 153 80q43 0 75.5 -20.5t37.5 -69.5q66 90 160 90q48 0 81 -24.5t33 -83.5q0 -57 -61 -219q-15 -43 -15 -64q0 -32 22 -32q31 0 55.5 32.5t38.5 84.5q4 14 7.5 17.5t14.5 3.5
q19 0 19 -13z" />
    <glyph glyph-name="n" unicode="n" horiz-adv-x="603" 
d="M629 143q0 -8 -8.5 -30.5t-24 -51t-43.5 -50t-61 -21.5q-37 0 -60.5 24t-23.5 59q0 19 13 52q61 161 61 222q0 66 -51 66t-98 -41q-21 -19 -41.5 -53.5t-25.5 -50.5l-16 -65q-6 -22 -16 -65l-22 -86q-6 -24 -9.5 -34.5t-13 -19t-24.5 -8.5q-13 0 -21.5 8t-8.5 20
q0 2 3 15l73 292q6 21 6 44q0 44 -28 44q-39 0 -67 -111q-5 -19 -8 -23t-15 -4q-19 0 -19 13q0 3 4.5 19.5t12.5 40.5t16 39q31 54 78 54q36 0 61.5 -22.5t30.5 -57.5q66 80 151 80q49 0 81.5 -24.5t32.5 -83.5q0 -57 -61 -219q-15 -43 -15 -64q0 -32 22 -32q31 0 55.5 32.5
t38.5 84.5q4 14 7.5 17.5t14.5 3.5q19 0 19 -13z" />
    <glyph glyph-name="o" unicode="o" 
d="M540 272q0 -108 -83 -195t-183 -87q-67 0 -113 45t-46 124q0 109 83.5 195.5t181.5 86.5q69 0 114.5 -46.5t45.5 -122.5zM465 307q0 51 -24 78.5t-62 27.5q-31 0 -69 -23t-67 -72q-23 -39 -38 -98t-15 -96q0 -55 25.5 -80.5t59.5 -25.5q36 0 73 25.5t61 66.5
q27 45 41.5 104.5t14.5 92.5z" />
    <glyph glyph-name="p" unicode="p" 
d="M541 281q0 -111 -75.5 -201t-162.5 -90q-60 0 -92 56l-36 -145q-11 -44 -11 -48q0 -9 11.5 -11.5t37.5 -2.5q25 0 25 -14q0 -19 -19 -19q-2 0 -11.5 1t-31.5 1.5t-53 0.5q-32 0 -51 -0.5t-26 -1.5t-9 -1q-14 0 -14 14q0 19 24 19q28 0 37 6.5t15 31.5l115 465q3 15 3 27
q0 44 -28 44q-39 0 -67 -111q-5 -19 -8 -23t-15 -4q-19 0 -19 13q0 3 4.5 19.5t12.5 40.5t16 39q31 54 78 54q30 0 55.5 -17t33.5 -51q63 68 129 68q54 0 93 -42t39 -118zM419 119q16 34 32.5 99t16.5 103q0 47 -18 69.5t-43 22.5q-55 0 -114 -77q-15 -21 -19 -39l-43 -171
q0 -2 -1.5 -6.5t-1.5 -6.5q0 -6 3 -18.5t10 -31t23.5 -32t38.5 -13.5q29 0 61 26.5t55 74.5z" />
    <glyph glyph-name="q" unicode="q" horiz-adv-x="494" 
d="M456 -175q0 -19 -19 -19q-2 0 -11 1t-32.5 1.5t-58.5 0.5q-17 0 -51 -1.5t-49 -1.5t-15 14q0 13 6 16t18 3q47 1 57 8.5t21 47.5l36 146q-64 -51 -113 -51q-57 0 -94.5 44.5t-37.5 115.5q0 107 75.5 199t163.5 92q64 0 95 -63q11 19 32 41t31 22q5 0 9.5 -4t4.5 -10
q0 -4 -3 -13l-135 -539l-4 -22q0 -9 11.5 -11.5t37.5 -2.5q25 0 25 -14zM424 304l2 13q0 11 -4.5 30.5t-23 42.5t-46.5 23q-61 0 -112 -93q-18 -34 -36 -104.5t-18 -106.5t15 -63.5t47 -27.5q40 0 82.5 41.5t50.5 73.5z" />
    <glyph glyph-name="r" unicode="r" horiz-adv-x="453" 
d="M515 372q0 -28 -16 -41.5t-34 -13.5q-35 0 -35 34q0 33 34 46q-20 16 -56 16q-25 0 -48.5 -13t-39 -31.5t-27.5 -39.5t-18 -35t-7 -20l-61 -245q-10 -39 -42 -39q-13 0 -21.5 8t-8.5 20q0 2 3 15l73 292q6 21 6 44q0 44 -28 44q-39 0 -67 -111q-5 -19 -8 -23t-15 -4
q-19 0 -19 13q0 3 4.5 19.5t12.5 40.5t16 39q31 54 78 54q35 0 59 -19.5t31 -49.5q52 69 128 69q37 0 71.5 -15.5t34.5 -53.5z" />
    <glyph glyph-name="s" unicode="s" horiz-adv-x="439" 
d="M419 156q0 -21 -9.5 -46.5t-30 -54t-62 -47t-96.5 -18.5q-65 0 -104 27t-39 70q0 30 15 46t37 16q16 0 25.5 -9.5t9.5 -23.5q0 -41 -45 -49q22 -49 101 -49q72 0 104 35.5t32 69.5q0 52 -75 66q-48 11 -62 16t-30 18q-32 26 -32 71q0 13 4 30t16 38t29.5 38t48.5 29
t69 12q47 0 81.5 -22.5t34.5 -63.5q0 -25 -11.5 -38.5t-18.5 -15t-14 -1.5q-13 0 -22 8.5t-9 21.5q0 4 1 9.5t9.5 16.5t24.5 15q-16 42 -78 42q-52 0 -77.5 -29t-25.5 -57t18.5 -38.5t59.5 -18.5q121 -26 121 -114z" />
    <glyph glyph-name="t" unicode="t" horiz-adv-x="357" 
d="M382 144q0 -7 -11 -30t-30.5 -51.5t-52.5 -50.5t-69 -22q-39 0 -66 25t-27 67q0 16 5 36l70 280h-84q-28 0 -28 14q0 13 6.5 16t23.5 3h90l39 155q9 39 42 39q10 0 19.5 -6.5t9.5 -21.5q0 -7 -4 -22l-36 -144h84q10 0 15 -0.5t9 -3.5t4 -10q0 -13 -6.5 -16t-22.5 -3h-91
l-76 -307q-3 -12 -3 -29q0 -44 29 -44q69 0 122 122q4 11 7 13.5t14 2.5q18 0 18 -12z" />
    <glyph glyph-name="u" unicode="u" horiz-adv-x="576" 
d="M602 143q-13 -60 -34 -100q-29 -53 -77 -53q-26 0 -51.5 14t-35.5 47q-53 -61 -118 -61q-50 0 -86 28.5t-36 91.5q0 26 10 65t17.5 60.5t28.5 79.5q17 43 17 67q0 31 -22 31q-31 0 -55.5 -33t-39.5 -84q-3 -14 -6 -17.5t-15 -3.5q-19 0 -19 13q0 7 8.5 29.5t23.5 51.5
t43.5 50.5t61.5 21.5q34 0 58.5 -22t24.5 -61q0 -20 -12 -50q-57 -155 -57 -212q0 -78 59 -78q43 0 75.5 36t38.5 62l68 275q9 40 42 40q30 0 30 -29q0 -5 -4 -19l-72 -292q-3 -12 -3 -29q0 -44 28 -44q40 0 67 110q4 15 5.5 19t5 6.5t12.5 2.5q19 0 19 -13z" />
    <glyph glyph-name="v" unicode="v" horiz-adv-x="494" 
d="M521 368q0 -19 -6.5 -59t-23.5 -96t-41 -105t-64 -83.5t-87 -34.5q-55 0 -94.5 29t-39.5 96q0 50 55 200q17 43 17 67q0 31 -22 31q-31 0 -55.5 -33t-39.5 -84q-3 -14 -6 -17.5t-15 -3.5q-19 0 -19 13q0 7 8.5 29.5t23.5 51.5t43.5 50.5t61.5 21.5q34 0 58.5 -22
t24.5 -61q0 -15 -19 -72q-49 -128 -49 -184q0 -84 70 -84q39 0 73 36.5t52.5 86t29 90.5t10.5 59q0 48 -27 76q-13 13 -13 27q0 20 16 34t33 14q10 0 19 -4.5t17.5 -22t8.5 -46.5z" />
    <glyph glyph-name="w" unicode="w" horiz-adv-x="713" 
d="M740 368q0 -41 -21.5 -125.5t-45.5 -135.5q-53 -117 -142 -117t-121 62q-42 -62 -103 -62q-23 0 -44 4.5t-44.5 17t-38 39.5t-14.5 66q0 32 10.5 71t43.5 127q17 43 17 67q0 31 -22 31q-31 0 -55.5 -33t-39.5 -84q-3 -14 -6 -17.5t-15 -3.5q-19 0 -19 13q0 7 8.5 29.5
t23.5 51.5t43.5 50.5t61.5 21.5q34 0 58.5 -22t24.5 -61q0 -20 -16 -61q-52 -139 -52 -192q0 -87 77 -87q34 0 60 35q27 38 28 67q1 25 8 53l54 218q9 40 42 40q13 0 21.5 -7.5t8.5 -21.5q0 -8 -10 -43l-14 -56l-25 -101q-18 -71 -18 -100q0 -84 71 -84q64 0 103 91
q15 34 31.5 94t16.5 87q0 48 -27 76q-13 13 -13 27q0 20 16 34t33 14q10 0 19 -4.5t17.5 -22t8.5 -46.5z" />
    <glyph glyph-name="x" unicode="x" horiz-adv-x="495" 
d="M521 144q0 -13 -11.5 -37t-31 -51t-52.5 -46.5t-69 -19.5q-35 0 -62.5 17.5t-40.5 45.5q-43 -63 -102 -63q-37 0 -66 18t-29 51q0 23 14.5 39t36.5 16q35 0 35 -34t-35 -48q17 -14 45 -14q18 0 33 10t24 21t17.5 32t11 29t7.5 26l32 130q16 63 16 84q0 28 -14 45.5
t-38 17.5q-32 0 -67.5 -29.5t-56.5 -95.5q-4 -13 -19 -13q-19 0 -19 13q0 33 48 93t116 60q72 0 103 -63q43 63 102 63q33 0 63.5 -16t30.5 -53q0 -28 -16 -41.5t-34 -13.5q-35 0 -35 34q0 19 12 31.5t23 16.5q-28 14 -45 14q-29 0 -52.5 -26t-35.5 -72l-32 -130
q-21 -79 -21 -104q0 -30 14 -46.5t38 -16.5q30 0 66 28.5t57 96.5q4 13 20 13q19 0 19 -12z" />
    <glyph glyph-name="y" unicode="y" horiz-adv-x="521" 
d="M442 -9q-19 -73 -85 -134t-145 -61q-45 0 -74 24.5t-29 62.5q0 33 17 47t34 14t26.5 -9.5t9.5 -23.5q0 -17 -12.5 -31.5t-32.5 -18.5q16 -37 62 -37q58 0 108 63q40 52 60 140q-42 -37 -95 -37q-50 0 -86 28.5t-36 91.5q0 26 10 65t17.5 60.5t28.5 79.5q17 43 17 67
q0 31 -22 31q-31 0 -55.5 -33t-39.5 -84q-3 -14 -6 -17.5t-15 -3.5q-19 0 -19 13q0 7 8.5 29.5t23.5 51.5t43.5 50.5t61.5 21.5q34 0 58.5 -22t24.5 -61q0 -20 -12 -50q-57 -155 -57 -212q0 -78 59 -78q43 0 75.5 36t38.5 62l68 275q9 40 42 40q13 0 21.5 -7.5t8.5 -21.5
l-4 -19z" />
    <glyph glyph-name="z" unicode="z" horiz-adv-x="439" 
d="M465 145q0 -13 -11.5 -37.5t-31 -51t-52 -46.5t-68.5 -20q-35 0 -66 37q-19 21 -29.5 27.5t-24.5 6.5q-40 0 -77 -57q-6 -10 -9 -12t-13 -2q-19 0 -19 12q0 8 27.5 46.5t65.5 78.5q23 24 97 91q104 92 130 124q-25 1 -65 16q-35 14 -58 14q-59 0 -79 -49q-4 -11 -19 -11
q-19 0 -19 12q0 28 37.5 72.5t88.5 44.5q34 0 68 -37q28 -34 50 -34q16 0 28 11.5t35 49.5q7 10 20 10q19 0 19 -12q0 -15 -56 -83q-12 -14 -76 -80l-112 -101l-76 -76q40 0 75 -13q48 -17 67 -17q35 0 68 23.5t46 58.5q3 11 6.5 14t13.5 3q19 0 19 -13z" />
    <glyph glyph-name="braceleft" unicode="{" horiz-adv-x="531" 
d="M396 -236q-3 -14 -26 -14q-90 0 -140 38q-47 36 -27 110l51 204q9 40 9 49q0 12 -4.5 23.5t-15.5 25.5t-35.5 24t-58.5 12q-15 0 -11 14q2 9 7 11t16 3q60 4 105 35q20 14 33.5 31.5t17 28.5t9.5 31l58 234q15 56 83.5 91t152.5 35q8 0 12 -0.5t6.5 -3.5t0.5 -10
q-2 -9 -7 -11t-16 -3q-66 -3 -116 -41q-24 -19 -33 -40t-27 -95l-38 -150q-6 -25 -12 -39.5t-21 -37t-44.5 -39.5t-73.5 -30q54 -19 76 -53q9 -15 10 -30.5t-2.5 -34t-16.5 -74.5l-38 -150q-9 -36 -9 -47q4 -76 114 -83q14 0 11 -14z" />
    <glyph glyph-name="bar" unicode="|" horiz-adv-x="295" 
d="M117 -214q-10 -36 -32 -36q-24 0 -14 36l232 928q8 36 32 36q22 0 14 -36z" />
    <glyph glyph-name="braceright" unicode="}" horiz-adv-x="531" 
d="M518 250q-3 -9 -8 -11t-16 -3q-58 -4 -104 -35q-20 -14 -33 -31.5t-17 -29t-9 -30.5l-59 -234q-14 -56 -83 -91t-152 -35q-8 0 -12 0.5t-7 3.5t-2 10q2 9 7 11t17 3q45 3 86.5 23.5t63.5 58.5q6 12 27 94l37 150q6 24 12 38.5t21 37.5t45 40.5t74 29.5q-88 29 -89 95
q1 13 22 97l37 150q10 39 9 47q-3 76 -114 83q-15 0 -12 14q4 14 28 14q90 0 138 -38q22 -17 29.5 -39.5t6 -35t-6.5 -35.5l-59 -234q-5 -10 -0.5 -27t12.5 -33t34 -29t65 -15q15 0 12 -14z" />
    <glyph glyph-name="asciitilde" unicode="~" horiz-adv-x="556" 
d="M627 290l-65 -44q-22 -16 -65 -35q-45 -18 -78 -18q-43 0 -91 34q-20 13 -30 19t-28 12t-37 6q-69 0 -171 -71l-10 17l65 44q24 16 66 35q45 18 78 18q41 0 91 -34q20 -13 30 -19t28 -12t37 -6q67 0 171 71z" />
    <glyph glyph-name="uni00A0" unicode="&#xa0;" 
 />
    <glyph glyph-name="exclamdown" unicode="&#xa1;" horiz-adv-x="329" 
d="M331 454q0 -26 -21 -45.5t-46 -19.5q-19 0 -32.5 12.5t-13.5 33.5q0 25 20.5 45t46.5 20q17 0 31.5 -11t14.5 -35zM180 -156q-6 -33 -27.5 -46t-39.5 -13q-20 0 -33.5 12t-13.5 32q0 11 5 24l145 439q4 12 8 14.5t14 2.5q19 0 19 -13l-2 -13z" />
    <glyph glyph-name="cent" unicode="&#xa2;" horiz-adv-x="494" 
d="M502 100q0 -5 -9 -16.5t-28 -27t-43.5 -30t-61 -25t-75.5 -11.5l-5 -22q-5 -16 -20 -16q-7 0 -10.5 4.5t-1.5 11.5l5 23q-63 8 -100.5 53.5t-37.5 114.5q0 105 77.5 189.5t173.5 91.5l5 23q4 16 20 16q7 0 10.5 -5t1.5 -11l-5 -23q45 -4 72 -27t27 -58q0 -28 -15.5 -44
t-35.5 -16q-18 0 -27 10t-9 23q0 40 43 49q-16 31 -62 36l-99 -394q105 6 174 90q11 12 16 12t12.5 -7.5t7.5 -13.5zM260 19l98 392q-74 -17 -120 -102q-19 -34 -33.5 -91t-14.5 -94q0 -44 18.5 -71.5t51.5 -33.5z" />
    <glyph glyph-name="sterling" unicode="&#xa3;" horiz-adv-x="816" 
d="M677 139q0 -37 -55.5 -93t-135.5 -56q-45 0 -93 24q-16 8 -23 12t-21 12.5t-34 20.5q-70 -69 -149 -69q-32 0 -52.5 13t-20.5 37q0 35 39.5 67t98.5 32q31 0 64 -11q8 20 27 99l26 104h-56q-26 0 -26 12q0 10 4 15t8.5 5.5t15.5 0.5h63l40 163q17 67 79 123t135 56
q57 0 92 -38t35 -100q0 -89 -54 -89q-16 0 -26 9.5t-10 24.5q0 5 1.5 13t14.5 21.5t36 14.5q0 116 -89 116q-45 0 -86 -40.5t-58 -109.5l-41 -164h85q10 0 14.5 -0.5t8 -3.5t3.5 -9q0 -14 -6.5 -17t-22.5 -3h-90l-40 -162q-9 -38 -30 -67q73 -43 97.5 -54t57.5 -11
q46 0 83 28t52 70q4 11 7 13.5t14 2.5q18 0 18 -12zM270 81q-25 11 -56 11q-36 0 -56.5 -18t-20.5 -34q0 -22 30 -22q55 0 103 63z" />
    <glyph glyph-name="currency" unicode="&#xa4;" horiz-adv-x="823" 
d="M653 22q-20 -16 -38 -4q-3 2 -10 13l-41 54q-71 -46 -143 -46q-73 0 -120 47l-70 -55q-29 -26 -48 -13q-18 13 14 37l79 64q-31 58 -13 131q19 75 79 131l-50 66q-14 19 2 32q21 17 37 4q4 -2 11 -13l42 -55q71 46 143 46q73 0 119 -46l69 54q29 26 48 13q18 -13 -14 -37
l-78 -63q32 -57 14 -132q-19 -75 -79 -131l49 -65q13 -20 -2 -32zM639 250q17 68 -19.5 116.5t-104.5 48.5t-128.5 -48.5t-77.5 -116.5t19.5 -116.5t104.5 -48.5t128.5 48.5t77.5 116.5z" />
    <glyph glyph-name="yen" unicode="&#xa5;" horiz-adv-x="797" 
d="M921 669q0 -17 -21 -19q-68 -7 -128 -75l-206 -233h157q19 0 14 -19q-6 -19 -24 -19h-181l-27 -31l-19 -77h200q8 0 12 -5.5t2 -13.5q-3 -19 -23 -19h-201l-14 -57q-12 -45 -12 -54q0 -14 55 -14q11 0 16 -0.5t9.5 -3.5t4.5 -10q0 -19 -20 -19q-1 0 -6 0.5t-14 1
t-21.5 0.5t-32.5 0.5t-43 0.5h-58q-54 -3 -57 -3q-15 0 -15 14q0 13 6.5 16t19.5 3q53 1 64.5 9.5t24.5 57.5l14 58h-198q-18 0 -15 19q6 19 24 19h199l18 76q0 4 -4 15l-6 17h-180q-8 0 -12 6t-2 13q5 19 24 19h155l-106 279q-4 12 -8 17t-17 8.5t-38 3.5q-24 0 -24 14
q0 19 20 19q2 0 10 -0.5t32 -1.5t63 -1q19 0 57 1.5t55 1.5q16 0 16 -14q0 -19 -24 -19q-51 0 -51 -21q0 -7 5 -17l103 -270h27l210 238l8 10q1 2 2.5 4.5t3.5 4.5q7 8 11 16t5 12v4q0 17 -28 19q-16 1 -16 14q0 19 20 19q1 0 11 -0.5t31.5 -1.5t48.5 -1q24 0 40.5 0.5t22 1
t10 1t7.5 0.5q5 0 9.5 -4t4.5 -10z" />
    <glyph glyph-name="brokenbar" unicode="&#xa6;" horiz-adv-x="295" 
d="M349 714l-93 -371q-4 -16 -27 -16q-10 0 -15.5 4t-3.5 12l93 371q8 36 32 36q22 0 14 -36zM117 -214q-10 -36 -32 -36q-24 0 -14 36l92 371q4 16 27 16q10 0 15.5 -4t3.5 -12z" />
    <glyph glyph-name="section" unicode="&#xa7;" horiz-adv-x="534" 
d="M546 194q-10 -40 -42.5 -72t-77.5 -50q26 -48 11 -107q-18 -73 -83.5 -124.5t-139.5 -51.5q-70 0 -105 54t-16 128q4 17 19.5 29.5t32.5 12.5t26.5 -12.5t5.5 -29.5q-5 -17 -19 -29t-31 -13q3 -39 30.5 -63.5t69.5 -24.5q49 0 92 36.5t56 87.5q18 73 -73 119l-90 45
q-55 29 -84 74t-15 103q10 40 42.5 71.5t77.5 49.5q-26 50 -11 108q18 73 83.5 124.5t139.5 51.5q70 0 105 -54t16 -128q-4 -17 -19.5 -29.5t-32.5 -12.5t-26.5 12.5t-5.5 29.5q5 17 19 29t31 13q-3 39 -30.5 63.5t-69.5 24.5q-49 0 -92 -36.5t-56 -87.5q-18 -73 73 -119
l90 -45q55 -29 84 -74t15 -103zM470 194q17 69 -68 113l-90 45q-36 19 -59 46q-46 -24 -64 -92q-17 -69 68 -113l90 -45q34 -18 59 -46q46 24 64 92z" />
    <glyph glyph-name="dieresis" unicode="&#xa8;" 
d="M383 608q0 -24 -19 -41.5t-42 -17.5q-17 0 -29 11.5t-12 30.5q0 22 18.5 40t41.5 18q15 0 28.5 -10t13.5 -31zM568 608q0 -24 -19 -41.5t-42 -17.5q-17 0 -29 11.5t-12 30.5q0 22 18.5 40t41.5 18q15 0 28.5 -10t13.5 -31z" />
    <glyph glyph-name="copyright" unicode="&#xa9;" horiz-adv-x="683" 
d="M683 342q0 -142 -100 -242t-241 -100q-142 0 -242 100t-100 242q0 141 100 241t242 100q141 0 241 -100t100 -241zM637 342q0 122 -86.5 208.5t-208.5 86.5q-123 0 -209.5 -86.5t-86.5 -208.5q0 -123 86.5 -209.5t209.5 -86.5q122 0 208.5 86.5t86.5 209.5zM505 395
q-2 -8 -4 -10t-8 -2q-11 0 -11 8q2 14 2 29q0 45 -21.5 74.5t-63.5 29.5q-37 0 -74 -19.5t-65 -55.5q-31 -39 -45.5 -90t-14.5 -86q0 -57 30.5 -85.5t73.5 -28.5q44 0 88.5 32t64.5 96q1 6 10 6q10 0 10 -8q0 -18 -22 -52q-26 -40 -68 -66t-89 -26q-63 0 -105 41t-42 110
q0 96 76 173t168 77q59 0 91 -48l36 42q5 6 10 6q8 0 8 -6q0 -4 -2 -8z" />
    <glyph glyph-name="ordfeminine" unicode="&#xaa;" horiz-adv-x="510" 
d="M577 496q-9 -42 -25 -70q-22 -37 -63 -37q-29 0 -50 13.5t-28 33.5q-47 -47 -106 -47q-48 0 -81 31t-35 81q-4 75 56 139t134 64q51 0 79 -39q5 26 34 26q24 0 26 -20q0 -5 -3 -14l-49 -198q-3 -11 -1 -20q0 -31 25 -31q33 0 52 77q3 14 5.5 17t12.5 3q16 0 17 -9z
M524 347q-4 -11 -19 -11h-333q-6 0 -10 3.5t-3 7.5q3 12 19 12h333q7 0 10.5 -3.5t2.5 -8.5zM444 608l2 10q-1 9 -5.5 21.5t-20.5 29t-40 16.5q-51 0 -91 -65q-14 -24 -26.5 -73.5t-11.5 -74.5q2 -25 15.5 -44.5t40.5 -19.5q34 0 68.5 29.5t38.5 51.5z" />
    <glyph glyph-name="guillemotleft" unicode="&#xab;" horiz-adv-x="603" 
d="M418 466q-61 -125 -150 -227q39 -109 36 -227q0 -12 -12 -12h-4q-10 0 -12 11q-11 128 -77 224q-3 3 -3 7q0 6 5 9q117 98 191 226q4 6 11 6h4q12 0 12 -12q0 -1 -0.5 -2.5t-0.5 -2.5zM583 466q-61 -125 -150 -227q39 -109 36 -227q0 -12 -12 -12h-4q-10 0 -12 11
q-11 128 -77 224q-3 3 -3 7q0 6 5 9q117 98 191 226q5 6 11 6h4q12 0 12 -12q0 -1 -0.5 -2.5t-0.5 -2.5z" />
    <glyph glyph-name="logicalnot" unicode="&#xac;" horiz-adv-x="823" 
d="M776 144q-2 -10 -10.5 -16.5t-18.5 -6.5q-9 0 -14 6.5t-3 16.5l47 189h-590q-9 0 -14 6.5t-3 16.5t10.5 16.5t18.5 6.5h613q9 0 14 -6.5t3 -16.5z" />
    <glyph glyph-name="uni00AD" unicode="&#xad;" horiz-adv-x="384" 
d="M350 199q-3 -10 -7.5 -12t-20.5 -2h-207q-8 0 -11.5 0.5t-8 1.5t-6 4.5t-1.5 8.5q0 8 8 32q2 10 7 12t21 2h206q28 0 28 -14q0 -5 -8 -33z" />
    <glyph glyph-name="registered" unicode="&#xae;" horiz-adv-x="683" 
d="M683 342q0 -142 -100 -242t-241 -100q-142 0 -242 100t-100 242q0 141 100 241t242 100q141 0 241 -100t100 -241zM637 342q0 122 -86.5 208.5t-208.5 86.5q-123 0 -209.5 -86.5t-86.5 -208.5q0 -123 86.5 -209.5t209.5 -86.5q122 0 208.5 86.5t86.5 209.5zM548 211
q0 -13 -18 -38.5t-49 -25.5q-28 0 -49.5 14t-21.5 45q0 10 10 50q7 26 7 35q0 21 -14.5 35t-44.5 14h-67l-36 -142l-2 -13q0 -8 30 -8q16 0 16 -8q0 -11 -11 -11q-17 0 -31 2h-66q-20 -2 -31 -2q-9 0 -9 8q0 11 19 11q24 0 31 4.5t11 18.5l74 298q2 8 2 12q0 8 -30 8
q-16 0 -16 8q0 11 16 11h152q53 0 86.5 -24t33.5 -59q0 -34 -32 -64t-85 -44q48 -18 48 -64q0 -1 -5 -51q-4 -21 -4 -38q0 -31 20 -31q30 0 44 47q2 5 2.5 6.5t3 2.5t6.5 1q10 0 10 -8zM489 464q0 54 -80 54h-43q-10 0 -13.5 -1t-6.5 -4.5t-6 -13.5l-35 -143h63q51 0 83 23
q38 28 38 85z" />
    <glyph glyph-name="macron" unicode="&#xaf;" 
d="M603 603q0 -10 -4.5 -15t-10 -6t-16.5 -1h-298q-10 0 -15 0.5t-9 3.5t-4 10q0 10 4.5 15t9.5 6t16 1h298q29 0 29 -14z" />
    <glyph glyph-name="degree" unicode="&#xb0;" horiz-adv-x="411" 
d="M479 546q-14 -57 -64 -97t-107 -40t-87 40t-16 97t64.5 97t107.5 40q56 0 86 -40t16 -97zM433 546q10 38 -10 64.5t-58 26.5t-71 -26.5t-43 -64.5q-9 -38 11 -64.5t57 -26.5q38 0 71.5 26.5t42.5 64.5z" />
    <glyph glyph-name="plusminus" unicode="&#xb1;" horiz-adv-x="823" 
d="M821 329q0 -23 -35 -23h-275l-65 -260h263q35 0 35 -23t-35 -23h-586q-35 0 -35 23t35 23h276l65 260h-264q-35 0 -35 23t35 23h276l69 279q8 27 25 27q10 0 16.5 -6.5t6.5 -16.5q0 -5 -4 -19l-66 -264h263q35 0 35 -23z" />
    <glyph glyph-name="two.superior" unicode="&#xb2;" horiz-adv-x="414" 
d="M470 404q0 -6 -7 -22.5t-20 -37t-38 -36t-54 -15.5q-32 0 -74 21q-45 24 -71 24t-38 -36q-3 -9 -14 -9q-14 0 -14 8q-1 8 9.5 31t44.5 58.5t83 57.5q73 33 111.5 71.5t35.5 100.5q-1 35 -23 51.5t-51 16.5q-59 0 -100 -53t-39 -91q2 -20 17 -20q29 0 49 29t19 48
q0 6 -6 18q-4 4 -4 8q-1 3 2.5 5.5t7.5 2.5q7 0 13.5 -11.5t6.5 -22.5q2 -25 -23.5 -59.5t-64.5 -34.5q-21 0 -32 12t-12 29q-2 41 46.5 98.5t121.5 57.5q52 0 89 -28t39 -75q2 -48 -34 -84t-136 -80q-79 -32 -115 -83l14 1q19 0 73 -9q60 -9 73 -9q29 0 53 17.5t34 48.5
q3 8 14 8q13 0 14 -7z" />
    <glyph glyph-name="three.superior" unicode="&#xb3;" horiz-adv-x="384" 
d="M438 426q2 -55 -55.5 -94t-129.5 -39q-48 0 -77.5 22.5t-31.5 55.5q0 45 36 45q13 0 20 -6t7 -13q0 -28 -34 -30q3 -29 26.5 -43t53.5 -14q65 0 98.5 43t30.5 92q-2 51 -62 51h-24q-20 0 -21 8q0 12 19 12h20q35 0 60.5 11.5t37.5 26.5t18.5 33.5t8 29.5t0.5 17
q-1 26 -20.5 40t-48.5 14q-53 0 -94.5 -31.5t-39.5 -65.5q2 -22 20 -22q15 0 28.5 10t12.5 24q0 3 -7 17l-4 7q-1 3 2.5 5.5t7.5 2.5q7 0 13.5 -10.5t7.5 -21.5q1 -21 -18 -35.5t-44 -14.5q-21 0 -33 11.5t-13 28.5q-2 40 46 75.5t115 35.5q52 0 83.5 -24t33.5 -58
q2 -35 -28 -69t-82 -49q58 -24 61 -78z" />
    <glyph glyph-name="acute" unicode="&#xb4;" 
d="M566 665q0 -20 -22 -35l-169 -122q-10 -7 -14 -7q-7 0 -13 7.5t-6 13.5q0 7 11 18l154 143q14 13 28 13q12 0 21.5 -8t9.5 -23z" />
    <glyph glyph-name="uni00B5" unicode="&#xb5;" 
d="M573 143q0 -3 -4 -18.5t-12 -39.5t-17 -40q-29 -55 -77 -55q-11 0 -24 2t-35 18.5t-30 46.5q-19 -20 -31.5 -31t-40.5 -23.5t-58 -12.5q-56 0 -95 29q-46 -185 -47 -187q-10 -47 -43 -47q-14 0 -22.5 8.5t-8.5 20.5q0 6 4 21l141 562q9 43 43 43q11 0 20.5 -7.5
t9.5 -21.5q0 -4 -14 -60l-42 -168q-13 -56 -13 -81q0 -84 70 -84q40 0 80 34q29 26 49 65l43 173l21 83q4 19 8 29t13.5 19t24.5 9q13 0 22 -8t9 -21q0 -1 -40 -160l-22 -90q-17 -70 -17 -90q0 -43 27 -43q17 0 31 19.5t21 40t16 54.5q4 16 7 19.5t15 3.5q18 0 18 -12z" />
    <glyph glyph-name="paragraph" unicode="&#xb6;" horiz-adv-x="649" 
d="M786 671q-6 -23 -42 -23h-53l-201 -806q-10 -36 -32 -36q-24 0 -14 36l201 806h-74l-201 -806q-10 -36 -32 -36q-24 0 -14 36l96 386q-50 1 -98 15.5t-87.5 41.5t-57 73t-3.5 103q25 99 120.5 166t203.5 67h258q10 0 16 -0.5t11.5 -6t2.5 -16.5z" />
    <glyph glyph-name="periodcentered" unicode="&#xb7;" horiz-adv-x="823" 
d="M554 352q0 -27 -21 -46.5t-46 -19.5q-19 0 -32.5 12t-13.5 33q0 27 21 46.5t46 19.5q19 0 32.5 -12t13.5 -33z" />
    <glyph glyph-name="cedilla" unicode="&#xb8;" horiz-adv-x="494" 
d="M363 -104q0 -30 -21.5 -49.5t-61 -27t-64 -9t-61.5 -1.5q-27 0 -34.5 2t-7.5 12q0 14 28 14h13q140 0 140 58q0 31 -51 35q-18 0 -18 14q0 2 15 62q1 6 5.5 7t22.5 1h12q28 0 29 -9q0 -1 -3.5 -16t-8.5 -35q25 -4 45.5 -18t20.5 -40z" />
    <glyph glyph-name="one.superior" unicode="&#xb9;" horiz-adv-x="405" 
d="M398 317q0 -12 -15 -12q-9 0 -26 1t-26 1h-102l-48 -2q-5 0 -8.5 2.5t-4.5 4.5v2q0 11 21 11h7q44 0 55.5 5.5t15.5 23.5l69 278q-47 -25 -83 -25q-13 0 -13 9t12 11q74 6 127 68q7 9 13 9q12 0 12 -8l-2 -8l-85 -338q-2 -8 -2 -13q1 -9 22 -11l33 -1h7q20 0 21 -8z" />
    <glyph glyph-name="ordmasculine" unicode="&#xba;" horiz-adv-x="460" 
d="M543 586q4 -75 -63 -136t-151 -61q-56 0 -96 31.5t-43 86.5q-4 76 63 136.5t150 60.5q58 0 97.5 -32t42.5 -86zM474 347q-4 -11 -19 -11h-282q-7 0 -10.5 3.5t-2.5 7.5q2 12 19 12h281q7 0 11 -3.5t3 -8.5zM479 611q-2 35 -23.5 54.5t-52.5 19.5q-26 0 -57.5 -16
t-53.5 -51q-18 -27 -28.5 -68t-9.5 -68q2 -38 24.5 -56t50.5 -18q31 0 61 18t49 47q21 31 31 72.5t9 65.5z" />
    <glyph glyph-name="guillemotright" unicode="&#xbb;" horiz-adv-x="603" 
d="M527 242q0 -4 -4 -10q-117 -97 -192 -226q-3 -6 -10 -6h-4q-12 0 -12 12q0 4 1 5q57 119 149 227q-38 105 -36 228q2 11 12 11h4q12 0 12 -11q11 -126 78 -224q2 -2 2 -6zM362 242q0 -4 -4 -10q-117 -97 -192 -226q-3 -6 -10 -6h-4q-12 0 -12 12q0 4 1 5q57 119 149 227
q-38 105 -36 228q2 11 12 11h4q12 0 12 -11q11 -126 78 -224q2 -2 2 -6z" />
    <glyph glyph-name="onequarter" unicode="&#xbc;" horiz-adv-x="865" 
d="M397 317q1 -12 -14 -12q-9 0 -26 1t-26 1h-102l-49 -2q-5 0 -7.5 2.5t-2.5 4.5l-1 2q-1 7 4 9t16 2h7q44 0 55.5 5.5t15.5 23.5l69 278q-47 -25 -82 -25q-14 0 -14 9q0 8 13 11q74 6 127 68q6 9 12 9q12 0 12 -8l-2 -8l-84 -338q-3 -12 -3 -13q0 -9 22 -11l33 -1h7
q20 0 20 -8zM781 9q1 -5 -12.5 -9.5t-30 -7t-27.5 -2.5t-17 1l-16 -67q-4 -17 -6.5 -23.5t-9 -11.5t-17.5 -5q-21 0 -23 16q0 3 25 101l-46 13q-28 7 -58 7q-47 0 -60 -9q-17 -12 -23 -12q-4 0 -7.5 4t-3.5 7q-1 8 29 23q19 10 61 49q110 103 162 293q8 23 29 23t22 -17
q0 -7 -7 -32t-32 -78t-61 -103q-49 -67 -128 -128h26q29 0 101 -21l20 78q5 21 7.5 29t9 13t18.5 5q21 0 22 -17q0 -4 -1 -9l-27 -108q4 -1 12 -1q5 0 47 7l11 3q5 0 8.5 -4.5t2.5 -6.5zM884 663q-1 -5 -7 -13l-600 -643q-10 -10 -21 -10q-10 0 -15 6.5t-3 16.5q3 8 8 13
l599 643q10 10 22 10q9 0 14 -6.5t3 -16.5z" />
    <glyph glyph-name="onehalf" unicode="&#xbd;" horiz-adv-x="865" 
d="M397 317q1 -12 -14 -12q-9 0 -26 1t-26 1h-102l-49 -2q-5 0 -7.5 2.5t-2.5 4.5l-1 2q-1 7 4 9t16 2h7q44 0 55.5 5.5t15.5 23.5l69 278q-47 -25 -82 -25q-14 0 -14 9q0 8 13 11q74 6 127 68q6 9 12 9q12 0 12 -8l-2 -8l-84 -338q-3 -12 -3 -13q0 -9 22 -11l33 -1h7
q20 0 20 -8zM804 98q1 -9 -10.5 -34t-41 -51t-67.5 -26q-30 0 -74 22q-46 23 -71 23q-17 0 -26.5 -13t-11.5 -23q-4 -9 -14 -9q-13 0 -14 8t9.5 31t44.5 59t83 58q73 33 112 71t36 100q-3 35 -24.5 51.5t-49.5 16.5q-59 0 -100 -53t-39 -91q2 -20 17 -20q29 0 49 29.5
t19 47.5q-2 15 -8 18q0 1 -1 3q-2 4 -2 6q0 8 11 8q6 0 12.5 -11.5t7.5 -22.5q1 -25 -24 -59.5t-64 -34.5q-22 0 -33 12t-11 28q-3 42 45.5 99.5t121.5 57.5q52 0 89 -28t39 -76t-34.5 -84t-135.5 -80q-76 -28 -115 -82h13q20 0 74 -9q53 -8 73 -8q29 0 52.5 17.5t33.5 47.5
q4 9 15 9q14 0 14 -8zM806 663q-1 -5 -7 -13l-600 -643q-8 -10 -21 -10q-10 0 -15 6.5t-3 16.5q3 8 8 13l599 643q10 10 22 10q10 0 14.5 -6.5t2.5 -16.5z" />
    <glyph glyph-name="threequarters" unicode="&#xbe;" horiz-adv-x="865" 
d="M537 622q1 -35 -30 -69.5t-82 -48.5q59 -25 62 -78q3 -55 -55 -94t-130 -39q-48 0 -77.5 22.5t-31.5 55.5q-3 45 36 45q13 0 20 -6t7 -13q0 -5 -1.5 -10.5t-10 -12t-22.5 -7.5q3 -29 26.5 -43t53.5 -14q65 0 98 43t30 92q-2 51 -62 51h-24q-20 0 -20 8q-1 8 3.5 10
t15.5 2h20q34 0 59.5 11.5t37.5 26t19.5 34t8.5 29.5t1 17q-2 26 -22 40t-49 14q-52 0 -93.5 -31.5t-39.5 -65.5q2 -22 19 -22q15 0 29 10t13 24q-2 9 -8 17l-3 7q-1 3 2.5 5.5t7.5 2.5q6 0 13 -10.5t8 -21.5q1 -21 -18 -35.5t-44 -14.5q-21 0 -33.5 11.5t-13.5 28.5
q-2 40 46.5 75.5t115.5 35.5q52 0 84 -24t34 -58zM781 9q1 -5 -12.5 -9.5t-30 -7t-27.5 -2.5t-17 1l-16 -67q-4 -17 -6.5 -23.5t-9 -11.5t-17.5 -5q-21 0 -23 16q0 3 25 101l-46 13q-28 7 -58 7q-47 0 -60 -9q-17 -12 -23 -12q-4 0 -7.5 4t-3.5 7q-1 8 29 23q19 10 61 49
q110 103 162 293q8 23 29 23t22 -17q0 -7 -7 -32t-32 -78t-61 -103q-49 -67 -128 -128h26q29 0 101 -21l20 78q5 21 7.5 29t9 13t18.5 5q21 0 22 -17q0 -4 -1 -9l-27 -108q4 -1 12 -1q5 0 47 7l11 3q5 0 8.5 -4.5t2.5 -6.5zM884 663q-1 -5 -7 -13l-600 -643q-10 -10 -21 -10
q-10 0 -15 6.5t-3 16.5q3 8 8 13l599 643q10 10 22 10q9 0 14 -6.5t3 -16.5z" />
    <glyph glyph-name="questiondown" unicode="&#xbf;" 
d="M441 454q0 -26 -21 -45.5t-46 -19.5q-19 0 -32.5 12.5t-13.5 33.5q0 25 20.5 45t46.5 20q17 0 31.5 -11t14.5 -35zM473 35q0 -16 -10.5 -44.5t-32 -64t-50 -67t-70 -53t-86.5 -21.5q-57 0 -94.5 34.5t-37.5 93.5q0 33 11 62t31 52t33 34t33 26l124 92q16 12 23.5 18.5
t15.5 21t8 31.5q0 31 -27 31q-20 0 -44 -17t-36 -51q-4 -12 -20 -12q-18 0 -18 12q0 25 35 60.5t85 35.5q34 0 50 -22t16 -50q0 -31 -14 -56t-29 -38t-47 -36l-110 -82q-79 -58 -79 -125q0 -43 27 -65t64 -22q61 0 114 50t82 123q-32 4 -32 34q0 20 15 34.5t34 14.5
q16 0 26 -9.5t10 -24.5z" />
    <glyph glyph-name="Agrave" unicode="&#xc0;" horiz-adv-x="797" 
d="M739 19q0 -19 -19 -19q-2 0 -11 1t-32.5 1.5t-61.5 0.5q-19 0 -56.5 -1.5t-54.5 -1.5q-16 0 -16 14q0 13 6.5 16t20.5 3q28 0 42.5 7.5t16.5 15t1 20.5l-15 155h-253q-49 -82 -50 -84q-40 -67 -40 -83q0 -27 37 -31q18 0 18 -14q0 -19 -20 -19l-10 1q-11 1 -32.5 1.5
t-49.5 0.5q-30 0 -48 -0.5t-25 -1.5t-9 -1q-14 0 -14 14q0 8 3.5 12t7 5t11.5 2q67 6 114 85l343 575q13 21 33 21q13 0 17 -5t6 -22l60 -621q1 -14 3.5 -19.5t13.5 -9.5t35 -4q10 0 15 -0.5t9 -3.5t4 -10zM557 264l-32 330l-198 -330h230zM663 768q-2 -6 -10.5 -14.5
t-16.5 -9.5q-6 0 -12 5l-143 91q-17 10 -13 30q5 16 19 26.5t29 10.5q6 0 11 -2.5t7 -4.5l3 -2l120 -114q9 -9 6 -16z" />
    <glyph glyph-name="Aacute" unicode="&#xc1;" horiz-adv-x="797" 
d="M739 19q0 -19 -19 -19q-2 0 -11 1t-32.5 1.5t-61.5 0.5q-19 0 -56.5 -1.5t-54.5 -1.5q-16 0 -16 14q0 13 6.5 16t20.5 3q28 0 42.5 7.5t16.5 15t1 20.5l-15 155h-253q-49 -82 -50 -84q-40 -67 -40 -83q0 -27 37 -31q18 0 18 -14q0 -19 -20 -19l-10 1q-11 1 -32.5 1.5
t-49.5 0.5q-30 0 -48 -0.5t-25 -1.5t-9 -1q-14 0 -14 14q0 8 3.5 12t7 5t11.5 2q67 6 114 85l343 575q13 21 33 21q13 0 17 -5t6 -22l60 -621q1 -14 3.5 -19.5t13.5 -9.5t35 -4q10 0 15 -0.5t9 -3.5t4 -10zM557 264l-32 330l-198 -330h230zM763 870q-4 -19 -28 -30l-188 -91
q-9 -5 -15 -5q-7 1 -11.5 9.5t-3.5 14.5q1 7 14 16l177 114q12 9 25 9q16 0 24.5 -10.5t5.5 -26.5z" />
    <glyph glyph-name="Acircumflex" unicode="&#xc2;" horiz-adv-x="797" 
d="M739 19q0 -19 -19 -19q-2 0 -11 1t-32.5 1.5t-61.5 0.5q-19 0 -56.5 -1.5t-54.5 -1.5q-16 0 -16 14q0 13 6.5 16t20.5 3q28 0 42.5 7.5t16.5 15t1 20.5l-15 155h-253q-49 -82 -50 -84q-40 -67 -40 -83q0 -27 37 -31q18 0 18 -14q0 -19 -20 -19l-10 1q-11 1 -32.5 1.5
t-49.5 0.5q-30 0 -48 -0.5t-25 -1.5t-9 -1q-14 0 -14 14q0 8 3.5 12t7 5t11.5 2q67 6 114 85l343 575q13 21 33 21q13 0 17 -5t6 -22l60 -621q1 -14 3.5 -19.5t13.5 -9.5t35 -4q10 0 15 -0.5t9 -3.5t4 -10zM557 264l-32 330l-198 -330h230zM722 753q7 -5 0.5 -13.5
t-14.5 -4.5l-112 55l-140 -55q-10 -4 -12.5 4.5t5.5 13.5l156 98q5 3 12 0z" />
    <glyph glyph-name="Atilde" unicode="&#xc3;" horiz-adv-x="797" 
d="M739 19q0 -19 -19 -19q-2 0 -11 1t-32.5 1.5t-61.5 0.5q-19 0 -56.5 -1.5t-54.5 -1.5q-16 0 -16 14q0 13 6.5 16t20.5 3q28 0 42.5 7.5t16.5 15t1 20.5l-15 155h-253q-49 -82 -50 -84q-40 -67 -40 -83q0 -27 37 -31q18 0 18 -14q0 -19 -20 -19l-10 1q-11 1 -32.5 1.5
t-49.5 0.5q-30 0 -48 -0.5t-25 -1.5t-9 -1q-14 0 -14 14q0 8 3.5 12t7 5t11.5 2q67 6 114 85l343 575q13 21 33 21q13 0 17 -5t6 -22l60 -621q1 -14 3.5 -19.5t13.5 -9.5t35 -4q10 0 15 -0.5t9 -3.5t4 -10zM557 264l-32 330l-198 -330h230zM770 828q0 -11 -54 -53
q-47 -41 -83 -41q-30 0 -54 38q-12 19 -18.5 24t-16.5 5q-29 0 -95 -59q-8 -8 -14 -8q-13 0 -13 14q0 11 53 53q51 41 83 41q20 0 32 -10.5t27 -33.5t30 -23q26 0 92 56q11 11 17 11q14 0 14 -14z" />
    <glyph glyph-name="Adieresis" unicode="&#xc4;" horiz-adv-x="797" 
d="M739 19q0 -19 -19 -19q-2 0 -11 1t-32.5 1.5t-61.5 0.5q-19 0 -56.5 -1.5t-54.5 -1.5q-16 0 -16 14q0 13 6.5 16t20.5 3q28 0 42.5 7.5t16.5 15t1 20.5l-15 155h-253q-49 -82 -50 -84q-40 -67 -40 -83q0 -27 37 -31q18 0 18 -14q0 -19 -20 -19l-10 1q-11 1 -32.5 1.5
t-49.5 0.5q-30 0 -48 -0.5t-25 -1.5t-9 -1q-14 0 -14 14q0 8 3.5 12t7 5t11.5 2q67 6 114 85l343 575q13 21 33 21q13 0 17 -5t6 -22l60 -621q1 -14 3.5 -19.5t13.5 -9.5t35 -4q10 0 15 -0.5t9 -3.5t4 -10zM557 264l-32 330l-198 -330h230zM536 793q0 -24 -19 -41.5
t-42 -17.5q-17 0 -29 11.5t-12 30.5q0 22 18.5 40t41.5 18q15 0 28.5 -10t13.5 -31zM755 793q0 -24 -19 -41.5t-42 -17.5q-17 0 -29 11.5t-12 30.5q0 22 18.5 40t41.5 18q15 0 28.5 -10t13.5 -31z" />
    <glyph glyph-name="Aring" unicode="&#xc5;" horiz-adv-x="797" 
d="M739 19q0 -19 -19 -19q-2 0 -11 1t-32.5 1.5t-61.5 0.5q-19 0 -56.5 -1.5t-54.5 -1.5q-16 0 -16 14q0 13 6.5 16t20.5 3q28 0 42.5 7.5t16.5 15t1 20.5l-15 155h-253q-49 -82 -50 -84q-40 -67 -40 -83q0 -27 37 -31q18 0 18 -14q0 -19 -20 -19l-10 1q-11 1 -32.5 1.5
t-49.5 0.5q-30 0 -48 -0.5t-25 -1.5t-9 -1q-14 0 -14 14q0 8 3.5 12t7 5t11.5 2q67 6 114 85l343 575q13 21 33 21q13 0 17 -5t6 -22l60 -621q1 -14 3.5 -19.5t13.5 -9.5t35 -4q10 0 15 -0.5t9 -3.5t4 -10zM557 264l-32 330l-198 -330h230zM659 823q0 32 -48 32
q-36 0 -54 -21.5t-18 -52.5q0 -32 46 -32q22 0 37.5 8t22 16.5t10.5 22t4 17.5v10zM702 821q0 -42 -38.5 -74.5t-86.5 -32.5q-33 0 -57 18t-24 52q0 41 38 73.5t87 32.5q35 0 58 -19t23 -50z" />
    <glyph glyph-name="AE" unicode="&#xc6;" horiz-adv-x="947" 
d="M952 246q0 -7 -5 -17l-91 -211q-6 -13 -10.5 -15.5t-20.5 -2.5h-425q-29 0 -29 14q0 19 24 19q34 0 44 6.5t17 32.5l60 240h-155l-127 -206q-16 -26 -16 -43q0 -26 37 -30q17 0 17 -14q0 -19 -19 -19l-11 1q-10 1 -31.5 1.5t-49.5 0.5q-31 0 -49 -0.5t-24.5 -1.5t-9.5 -1
q-5 0 -9.5 3.5t-4.5 10.5q0 17 20 19q36 3 62.5 20.5t55.5 65.5l325 530q-7 1 -24 1h-19q-28 0 -28 14q0 13 6.5 16t22.5 3h490q19 0 24 -4t3 -24l-20 -175q-1 -10 -2.5 -14.5t-5.5 -7t-13 -2.5q-18 0 -18 14q0 11 2 19q4 38 4 62q0 53 -24 76t-101 23h-107q-25 0 -33 -5
t-14 -30l-67 -270h86q59 0 82 18.5t38 77.5q3 13 6.5 17t14.5 4q19 0 19 -14q0 -3 -3 -15l-54 -217q-4 -14 -8 -17.5t-14 -3.5q-19 0 -19 14q0 3 4 15l3 18q4 18 4 29q0 22 -13.5 31.5t-61.5 9.5h-93l-62 -250q-3 -11 -4 -27q9 -2 28 -2h107q38 0 67 5t52.5 18.5t39 26.5
t32.5 41t27.5 49.5t28.5 63.5q7 17 10 20t13 3q19 0 19 -14zM524 345l65 261q4 15 4 21t-1 9t-7.5 6.5t-19.5 3.5l-184 -301h143z" />
    <glyph glyph-name="Ccedilla" unicode="&#xc7;" horiz-adv-x="768" 
d="M794 437q-4 -14 -7.5 -17t-14.5 -3q-19 0 -19 13q0 1 1 8.5t2 20t1 23.5q0 82 -40 135.5t-115 53.5q-65 0 -132.5 -36t-117.5 -99q-56 -72 -82 -164t-26 -154q0 -102 55 -154t133 -52q35 0 73 13t77 39t72.5 72.5t52.5 106.5q2 10 18 10q19 0 19 -13q0 -4 -3.5 -16
t-13 -34.5t-23.5 -44.5q-46 -72 -122.5 -119t-160.5 -47h-7l-6 -26q25 -4 45.5 -18t20.5 -40q0 -30 -21.5 -49.5t-61 -27t-64 -9t-61.5 -1.5q-27 0 -34.5 2t-7.5 12q0 14 28 14h13q140 0 140 58q0 31 -51 35q-18 0 -18 14l10 45q-85 23 -137.5 93t-52.5 171q0 113 64 218.5
t166 169.5t209 64t165 -87l65 76q9 11 18 11q14 0 14 -12q0 -5 -3 -14z" />
    <glyph glyph-name="Egrave" unicode="&#xc8;" horiz-adv-x="727" 
d="M732 246q0 -7 -5 -17l-91 -211q-6 -13 -10.5 -15.5t-20.5 -2.5h-502q-10 0 -15 0.5t-9 3.5t-4 10q0 13 7 16t26 3q44 0 56.5 8t19.5 35l133 533q4 14 4 22q0 11 -13 13.5t-42 2.5q-12 0 -16.5 0.5t-8.5 4t-4 10.5q0 12 6.5 15t22.5 3h488q28 0 28 -14l-1 -14l-20 -175
q-1 -10 -2.5 -14t-5.5 -7t-12 -3q-19 0 -19 16q0 3 0.5 8t0.5 7q5 32 5 58q0 60 -29 82.5t-112 22.5h-140q-25 0 -33 -5t-14 -31l-60 -241h90q60 0 84 18t39 74q4 17 7.5 21t14.5 4q19 0 19 -15q0 -1 -4 -18l-53 -213q-3 -13 -6.5 -17t-14.5 -4q-19 0 -19 14q0 5 3 14
q7 28 7 47q0 22 -14.5 32t-63.5 10h-97l-69 -275q-3 -11 -4 -27q9 -2 28 -2h142q48 0 84 8.5t60 22.5t45.5 42t35.5 55.5t35 75.5q8 17 11 20t13 3q19 0 19 -14zM629 768q-2 -6 -10.5 -14.5t-16.5 -9.5q-6 0 -12 5l-143 91q-17 10 -13 30q5 16 19 26.5t29 10.5q6 0 11 -2.5
t7 -4.5l3 -2l120 -114q9 -9 6 -16z" />
    <glyph glyph-name="Eacute" unicode="&#xc9;" horiz-adv-x="727" 
d="M732 246q0 -7 -5 -17l-91 -211q-6 -13 -10.5 -15.5t-20.5 -2.5h-502q-10 0 -15 0.5t-9 3.5t-4 10q0 13 7 16t26 3q44 0 56.5 8t19.5 35l133 533q4 14 4 22q0 11 -13 13.5t-42 2.5q-12 0 -16.5 0.5t-8.5 4t-4 10.5q0 12 6.5 15t22.5 3h488q28 0 28 -14l-1 -14l-20 -175
q-1 -10 -2.5 -14t-5.5 -7t-12 -3q-19 0 -19 16q0 3 0.5 8t0.5 7q5 32 5 58q0 60 -29 82.5t-112 22.5h-140q-25 0 -33 -5t-14 -31l-60 -241h90q60 0 84 18t39 74q4 17 7.5 21t14.5 4q19 0 19 -15q0 -1 -4 -18l-53 -213q-3 -13 -6.5 -17t-14.5 -4q-19 0 -19 14q0 5 3 14
q7 28 7 47q0 22 -14.5 32t-63.5 10h-97l-69 -275q-3 -11 -4 -27q9 -2 28 -2h142q48 0 84 8.5t60 22.5t45.5 42t35.5 55.5t35 75.5q8 17 11 20t13 3q19 0 19 -14zM729 870q-4 -19 -28 -30l-188 -91q-9 -5 -15 -5q-7 1 -11.5 9.5t-3.5 14.5q1 7 14 16l177 114q12 9 25 9
q16 0 24.5 -10.5t5.5 -26.5z" />
    <glyph glyph-name="Ecircumflex" unicode="&#xca;" horiz-adv-x="727" 
d="M732 246q0 -7 -5 -17l-91 -211q-6 -13 -10.5 -15.5t-20.5 -2.5h-502q-10 0 -15 0.5t-9 3.5t-4 10q0 13 7 16t26 3q44 0 56.5 8t19.5 35l133 533q4 14 4 22q0 11 -13 13.5t-42 2.5q-12 0 -16.5 0.5t-8.5 4t-4 10.5q0 12 6.5 15t22.5 3h488q28 0 28 -14l-1 -14l-20 -175
q-1 -10 -2.5 -14t-5.5 -7t-12 -3q-19 0 -19 16q0 3 0.5 8t0.5 7q5 32 5 58q0 60 -29 82.5t-112 22.5h-140q-25 0 -33 -5t-14 -31l-60 -241h90q60 0 84 18t39 74q4 17 7.5 21t14.5 4q19 0 19 -15q0 -1 -4 -18l-53 -213q-3 -13 -6.5 -17t-14.5 -4q-19 0 -19 14q0 5 3 14
q7 28 7 47q0 22 -14.5 32t-63.5 10h-97l-69 -275q-3 -11 -4 -27q9 -2 28 -2h142q48 0 84 8.5t60 22.5t45.5 42t35.5 55.5t35 75.5q8 17 11 20t13 3q19 0 19 -14zM688 753q7 -5 0.5 -13.5t-14.5 -4.5l-112 55l-140 -55q-10 -4 -12.5 4.5t5.5 13.5l156 98q5 3 12 0z" />
    <glyph glyph-name="Edieresis" unicode="&#xcb;" horiz-adv-x="727" 
d="M732 246q0 -7 -5 -17l-91 -211q-6 -13 -10.5 -15.5t-20.5 -2.5h-502q-10 0 -15 0.5t-9 3.5t-4 10q0 13 7 16t26 3q44 0 56.5 8t19.5 35l133 533q4 14 4 22q0 11 -13 13.5t-42 2.5q-12 0 -16.5 0.5t-8.5 4t-4 10.5q0 12 6.5 15t22.5 3h488q28 0 28 -14l-1 -14l-20 -175
q-1 -10 -2.5 -14t-5.5 -7t-12 -3q-19 0 -19 16q0 3 0.5 8t0.5 7q5 32 5 58q0 60 -29 82.5t-112 22.5h-140q-25 0 -33 -5t-14 -31l-60 -241h90q60 0 84 18t39 74q4 17 7.5 21t14.5 4q19 0 19 -15q0 -1 -4 -18l-53 -213q-3 -13 -6.5 -17t-14.5 -4q-19 0 -19 14q0 5 3 14
q7 28 7 47q0 22 -14.5 32t-63.5 10h-97l-69 -275q-3 -11 -4 -27q9 -2 28 -2h142q48 0 84 8.5t60 22.5t45.5 42t35.5 55.5t35 75.5q8 17 11 20t13 3q19 0 19 -14zM502 793q0 -24 -19 -41.5t-42 -17.5q-17 0 -29 11.5t-12 30.5q0 22 18.5 40t41.5 18q15 0 28.5 -10t13.5 -31z
M721 793q0 -24 -19 -41.5t-42 -17.5q-17 0 -29 11.5t-12 30.5q0 22 18.5 40t41.5 18q15 0 28.5 -10t13.5 -31z" />
    <glyph glyph-name="Igrave" unicode="&#xcc;" horiz-adv-x="413" 
d="M350 19q0 -19 -21 -19q-22 0 -58 3h-128q-48 -3 -57 -3q-16 0 -16 14q0 13 7 16t23 3q50 0 63.5 7.5t20.5 36.5l135 540q3 12 3 18q0 15 -59 15q-17 0 -23.5 2t-6.5 12q0 19 20 19q1 0 13 -0.5t41 -1.5t69 -1h64q36 3 57 3q6 0 10 -3.5t5 -7.5v-3q0 -13 -7 -16t-25 -3
q-49 0 -62 -8t-19 -35l-134 -536q-4 -14 -4 -22q0 -16 59 -16q11 0 16 -0.5t9.5 -3.5t4.5 -10zM471 768q-2 -6 -10.5 -14.5t-16.5 -9.5q-6 0 -12 5l-143 91q-17 10 -13 30q5 16 19 26.5t29 10.5q6 0 11 -2.5t7 -4.5l3 -2l120 -114q9 -9 6 -16z" />
    <glyph glyph-name="Iacute" unicode="&#xcd;" horiz-adv-x="413" 
d="M350 19q0 -19 -21 -19q-22 0 -58 3h-128q-48 -3 -57 -3q-16 0 -16 14q0 13 7 16t23 3q50 0 63.5 7.5t20.5 36.5l135 540q3 12 3 18q0 15 -59 15q-17 0 -23.5 2t-6.5 12q0 19 20 19q1 0 13 -0.5t41 -1.5t69 -1h64q36 3 57 3q6 0 10 -3.5t5 -7.5v-3q0 -13 -7 -16t-25 -3
q-49 0 -62 -8t-19 -35l-134 -536q-4 -14 -4 -22q0 -16 59 -16q11 0 16 -0.5t9.5 -3.5t4.5 -10zM571 870q-4 -19 -28 -30l-188 -91q-9 -5 -15 -5q-7 1 -11.5 9.5t-3.5 14.5q1 7 14 16l177 114q12 9 25 9q16 0 24.5 -10.5t5.5 -26.5z" />
    <glyph glyph-name="Icircumflex" unicode="&#xce;" horiz-adv-x="413" 
d="M350 19q0 -19 -21 -19q-22 0 -58 3h-128q-48 -3 -57 -3q-16 0 -16 14q0 13 7 16t23 3q50 0 63.5 7.5t20.5 36.5l135 540q3 12 3 18q0 15 -59 15q-17 0 -23.5 2t-6.5 12q0 19 20 19q1 0 13 -0.5t41 -1.5t69 -1h64q36 3 57 3q6 0 10 -3.5t5 -7.5v-3q0 -13 -7 -16t-25 -3
q-49 0 -62 -8t-19 -35l-134 -536q-4 -14 -4 -22q0 -16 59 -16q11 0 16 -0.5t9.5 -3.5t4.5 -10zM530 753q7 -5 0.5 -13.5t-14.5 -4.5l-112 55l-140 -55q-10 -4 -12.5 4.5t5.5 13.5l156 98q5 3 12 0z" />
    <glyph glyph-name="Idieresis" unicode="&#xcf;" horiz-adv-x="413" 
d="M350 19q0 -19 -21 -19q-22 0 -58 3h-128q-48 -3 -57 -3q-16 0 -16 14q0 13 7 16t23 3q50 0 63.5 7.5t20.5 36.5l135 540q3 12 3 18q0 15 -59 15q-17 0 -23.5 2t-6.5 12q0 19 20 19q1 0 13 -0.5t41 -1.5t69 -1h64q36 3 57 3q6 0 10 -3.5t5 -7.5v-3q0 -13 -7 -16t-25 -3
q-49 0 -62 -8t-19 -35l-134 -536q-4 -14 -4 -22q0 -16 59 -16q11 0 16 -0.5t9.5 -3.5t4.5 -10zM344 793q0 -24 -19 -41.5t-42 -17.5q-17 0 -29 11.5t-12 30.5q0 22 18.5 40t41.5 18q15 0 28.5 -10t13.5 -31zM563 793q0 -24 -19 -41.5t-42 -17.5q-17 0 -29 11.5t-12 30.5
q0 22 18.5 40t41.5 18q15 0 28.5 -10t13.5 -31z" />
    <glyph glyph-name="Eth" unicode="&#xd0;" horiz-adv-x="810" 
d="M822 432q0 -82 -34.5 -162t-90.5 -139t-128.5 -95t-145.5 -36h-319q-10 0 -15 0.5t-9 3.5t-4 10q0 13 7 16t26 3q44 0 56.5 8t19.5 35l62 250h-94q-6 0 -10 5t-2 11q4 16 20 16h94l64 255q4 14 4 22q0 15 -55 15q-11 0 -15.5 0.5t-9 3.5t-4.5 10q0 13 6.5 16t22.5 3h325
q103 0 166 -70t63 -181zM739 466q0 91 -50 137.5t-128 46.5h-115q-25 0 -33 -5t-14 -30l-64 -257h159q16 0 12 -16t-20 -16h-159l-66 -264q-3 -11 -4 -27q9 -2 28 -2h122q73 0 137 36.5t106 98.5t65.5 152.5t23.5 145.5z" />
    <glyph glyph-name="Ntilde" unicode="&#xd1;" horiz-adv-x="797" 
d="M891 669q0 -17 -17 -19q-18 -1 -28 -3t-27 -8.5t-28 -22t-17 -40.5l-139 -557q-3 -12 -6.5 -15.5t-15.5 -3.5t-15 3t-8 15l-233 585l-126 -505q-4 -12 -4 -24q0 -40 59 -41q18 0 18 -14q0 -19 -19 -19q-2 0 -11 1t-31.5 1.5t-56.5 0.5q-16 0 -48.5 -1.5t-47.5 -1.5
t-15 14q0 19 19 19q49 2 68.5 20.5t28.5 54.5l135 536q-21 6 -59 6q-11 0 -15.5 0.5t-9 3.5t-4.5 10q0 13 6.5 16t22.5 3h117q16 0 20.5 -2.5t10.5 -16.5l209 -524l111 446q4 15 4 24q0 38 -59 40q-19 0 -19 14q0 19 20 19q1 0 10.5 -0.5t32 -1.5t56.5 -1q32 0 54 1
t31.5 1.5t10.5 0.5q15 0 15 -14zM770 828q0 -11 -54 -53q-47 -41 -83 -41q-30 0 -54 38q-12 19 -18.5 24t-16.5 5q-29 0 -95 -59q-8 -8 -14 -8q-13 0 -13 14q0 11 53 53q51 41 83 41q20 0 32 -10.5t27 -33.5t30 -23q26 0 92 56q11 11 17 11q14 0 14 -14z" />
    <glyph glyph-name="Ograve" unicode="&#xd2;" horiz-adv-x="823" 
d="M836 436q0 -86 -38 -171t-98 -147t-138 -100.5t-156 -38.5q-114 0 -183 75t-69 189q0 111 62 218.5t163 175t207 67.5q109 0 179.5 -73.5t70.5 -194.5zM750 471q0 97 -49 149.5t-123 52.5q-65 0 -132.5 -42t-113.5 -116q-47 -73 -66.5 -155t-19.5 -139q0 -101 48 -155
t120 -54q70 0 134.5 45t107.5 113t68.5 148.5t25.5 152.5zM676 768q-2 -6 -10.5 -14.5t-16.5 -9.5q-6 0 -12 5l-143 91q-17 10 -13 30q5 16 19 26.5t29 10.5q6 0 11 -2.5t8 -4.5l2 -2l120 -114q9 -9 6 -16z" />
    <glyph glyph-name="Oacute" unicode="&#xd3;" horiz-adv-x="823" 
d="M836 436q0 -86 -38 -171t-98 -147t-138 -100.5t-156 -38.5q-114 0 -183 75t-69 189q0 111 62 218.5t163 175t207 67.5q109 0 179.5 -73.5t70.5 -194.5zM750 471q0 97 -49 149.5t-123 52.5q-65 0 -132.5 -42t-113.5 -116q-47 -73 -66.5 -155t-19.5 -139q0 -101 48 -155
t120 -54q70 0 134.5 45t107.5 113t68.5 148.5t25.5 152.5zM776 870q-4 -19 -28 -30l-188 -91q-9 -5 -15 -5q-7 1 -11.5 9.5t-3.5 14.5q1 7 14 16l177 114q12 9 25 9q16 0 24.5 -10.5t5.5 -26.5z" />
    <glyph glyph-name="Ocircumflex" unicode="&#xd4;" horiz-adv-x="823" 
d="M836 436q0 -86 -38 -171t-98 -147t-138 -100.5t-156 -38.5q-114 0 -183 75t-69 189q0 111 62 218.5t163 175t207 67.5q109 0 179.5 -73.5t70.5 -194.5zM750 471q0 97 -49 149.5t-123 52.5q-65 0 -132.5 -42t-113.5 -116q-47 -73 -66.5 -155t-19.5 -139q0 -101 48 -155
t120 -54q70 0 134.5 45t107.5 113t68.5 148.5t25.5 152.5zM735 753q7 -5 0.5 -13.5t-14.5 -4.5l-112 55l-140 -55q-10 -4 -12.5 4.5t5.5 13.5l156 98q5 3 12 0z" />
    <glyph glyph-name="Otilde" unicode="&#xd5;" horiz-adv-x="823" 
d="M836 436q0 -86 -38 -171t-98 -147t-138 -100.5t-156 -38.5q-114 0 -183 75t-69 189q0 111 62 218.5t163 175t207 67.5q109 0 179.5 -73.5t70.5 -194.5zM750 471q0 97 -49 149.5t-123 52.5q-65 0 -132.5 -42t-113.5 -116q-47 -73 -66.5 -155t-19.5 -139q0 -101 48 -155
t120 -54q70 0 134.5 45t107.5 113t68.5 148.5t25.5 152.5zM783 828q0 -11 -54 -53q-47 -41 -83 -41q-30 0 -54 38q-12 19 -18.5 24t-16.5 5q-29 0 -95 -59q-8 -8 -14 -8q-13 0 -13 14q0 11 53 53q51 41 83 41q20 0 32 -10.5t27 -33.5t30 -23q26 0 92 56q11 11 17 11
q14 0 14 -14z" />
    <glyph glyph-name="Odieresis" unicode="&#xd6;" horiz-adv-x="823" 
d="M836 436q0 -86 -38 -171t-98 -147t-138 -100.5t-156 -38.5q-114 0 -183 75t-69 189q0 111 62 218.5t163 175t207 67.5q109 0 179.5 -73.5t70.5 -194.5zM750 471q0 97 -49 149.5t-123 52.5q-65 0 -132.5 -42t-113.5 -116q-47 -73 -66.5 -155t-19.5 -139q0 -101 48 -155
t120 -54q70 0 134.5 45t107.5 113t68.5 148.5t25.5 152.5zM549 793q0 -24 -19 -41.5t-42 -17.5q-17 0 -29 11.5t-12 30.5q0 22 18.5 40t41.5 18q15 0 28.5 -10t13.5 -31zM768 793q0 -24 -19 -41.5t-42 -17.5q-17 0 -29 11.5t-12 30.5q0 22 18.5 40t41.5 18q15 0 28.5 -10
t13.5 -31z" />
    <glyph glyph-name="multiply" unicode="&#xd7;" horiz-adv-x="823" 
d="M653 22q-20 -16 -38 -4q-3 2 -10 13l-140 186l-234 -186q-29 -26 -48 -13q-18 13 14 37l244 195l-149 197q-14 19 2 32q21 17 37 4q4 -2 11 -13l140 -187l233 186q29 26 48 13q18 -13 -14 -37l-243 -194l149 -197q13 -20 -2 -32z" />
    <glyph glyph-name="Oslash" unicode="&#xd8;" horiz-adv-x="823" 
d="M836 436q0 -86 -38 -171t-98 -147t-138 -100.5t-156 -38.5q-100 0 -166 59l-79 -85q-14 -17 -21 -17q-5 0 -10.5 4t-5.5 12q0 7 17 24l76 84q-63 76 -63 183q0 111 62 218.5t163 175t207 67.5q98 0 166 -60l83 91q11 12 17 12q5 0 10.5 -4.5t5.5 -11.5q0 -6 -12 -18
l-82 -91q62 -78 62 -186zM721 611q-6 9 -17.5 20.5t-47 28t-77.5 16.5q-61 0 -122 -32t-105 -85q-65 -80 -93.5 -183t-28.5 -169q0 -61 22 -108zM761 473q0 65 -23 110l-468 -512q57 -64 142 -64q57 0 120.5 30t119.5 100q52 67 80.5 167.5t28.5 168.5z" />
    <glyph glyph-name="Ugrave" unicode="&#xd9;" horiz-adv-x="797" 
d="M891 669q0 -17 -17 -19q-18 -1 -28 -3t-27 -8.5t-28 -22t-17 -40.5l-89 -359q-21 -88 -101.5 -163t-177.5 -75q-79 0 -135 51t-56 140q0 31 7 59l96 384q4 14 4 22q0 15 -55 15q-11 0 -15.5 0.5t-9 3.5t-4.5 10q0 19 20 19l58 -3h119q54 3 57 3q16 0 16 -14q0 -13 -7 -16
t-26 -3q-44 0 -57 -8t-19 -35l-97 -389q-10 -42 -10 -76q0 -68 35 -99t82 -31q77 0 147.5 63.5t92.5 153.5l89 357q4 15 4 24q0 38 -59 40q-19 0 -19 14q0 19 20 19q1 0 10 -0.5t31.5 -1.5t55.5 -1q19 0 35 0.5t26.5 1t18 0.5t11 0.5t4.5 0.5q15 0 15 -14zM687 768
q-2 -6 -10.5 -14.5t-16.5 -9.5q-6 0 -12 5l-143 91q-17 10 -13 30q5 16 19 26.5t29 10.5q6 0 11 -2.5t7 -4.5l3 -2l120 -114q9 -9 6 -16z" />
    <glyph glyph-name="Uacute" unicode="&#xda;" horiz-adv-x="797" 
d="M891 669q0 -17 -17 -19q-18 -1 -28 -3t-27 -8.5t-28 -22t-17 -40.5l-89 -359q-21 -88 -101.5 -163t-177.5 -75q-79 0 -135 51t-56 140q0 31 7 59l96 384q4 14 4 22q0 15 -55 15q-11 0 -15.5 0.5t-9 3.5t-4.5 10q0 19 20 19l58 -3h119q54 3 57 3q16 0 16 -14q0 -13 -7 -16
t-26 -3q-44 0 -57 -8t-19 -35l-97 -389q-10 -42 -10 -76q0 -68 35 -99t82 -31q77 0 147.5 63.5t92.5 153.5l89 357q4 15 4 24q0 38 -59 40q-19 0 -19 14q0 19 20 19q1 0 10 -0.5t31.5 -1.5t55.5 -1q19 0 35 0.5t26.5 1t18 0.5t11 0.5t4.5 0.5q15 0 15 -14zM787 870
q-4 -19 -28 -30l-188 -91q-9 -5 -15 -5q-7 1 -11.5 9.5t-3.5 14.5q1 7 14 16l177 114q12 9 25 9q16 0 24.5 -10.5t5.5 -26.5z" />
    <glyph glyph-name="Ucircumflex" unicode="&#xdb;" horiz-adv-x="797" 
d="M891 669q0 -17 -17 -19q-18 -1 -28 -3t-27 -8.5t-28 -22t-17 -40.5l-89 -359q-21 -88 -101.5 -163t-177.5 -75q-79 0 -135 51t-56 140q0 31 7 59l96 384q4 14 4 22q0 15 -55 15q-11 0 -15.5 0.5t-9 3.5t-4.5 10q0 19 20 19l58 -3h119q54 3 57 3q16 0 16 -14q0 -13 -7 -16
t-26 -3q-44 0 -57 -8t-19 -35l-97 -389q-10 -42 -10 -76q0 -68 35 -99t82 -31q77 0 147.5 63.5t92.5 153.5l89 357q4 15 4 24q0 38 -59 40q-19 0 -19 14q0 19 20 19q1 0 10 -0.5t31.5 -1.5t55.5 -1q19 0 35 0.5t26.5 1t18 0.5t11 0.5t4.5 0.5q15 0 15 -14zM746 753
q7 -5 0.5 -13.5t-14.5 -4.5l-112 55l-140 -55q-10 -4 -12.5 4.5t5.5 13.5l156 98q5 3 12 0z" />
    <glyph glyph-name="Udieresis" unicode="&#xdc;" horiz-adv-x="797" 
d="M891 669q0 -17 -17 -19q-18 -1 -28 -3t-27 -8.5t-28 -22t-17 -40.5l-89 -359q-21 -88 -101.5 -163t-177.5 -75q-79 0 -135 51t-56 140q0 31 7 59l96 384q4 14 4 22q0 15 -55 15q-11 0 -15.5 0.5t-9 3.5t-4.5 10q0 19 20 19l58 -3h119q54 3 57 3q16 0 16 -14q0 -13 -7 -16
t-26 -3q-44 0 -57 -8t-19 -35l-97 -389q-10 -42 -10 -76q0 -68 35 -99t82 -31q77 0 147.5 63.5t92.5 153.5l89 357q4 15 4 24q0 38 -59 40q-19 0 -19 14q0 19 20 19q1 0 10 -0.5t31.5 -1.5t55.5 -1q19 0 35 0.5t26.5 1t18 0.5t11 0.5t4.5 0.5q15 0 15 -14zM560 793
q0 -24 -19 -41.5t-42 -17.5q-17 0 -29 11.5t-12 30.5q0 22 18.5 40t41.5 18q15 0 28.5 -10t13.5 -31zM779 793q0 -24 -19 -41.5t-42 -17.5q-17 0 -29 11.5t-12 30.5q0 22 18.5 40t41.5 18q15 0 28.5 -10t13.5 -31z" />
    <glyph glyph-name="Yacute" unicode="&#xdd;" horiz-adv-x="797" 
d="M921 669q0 -17 -21 -19q-68 -7 -128 -75l-267 -302l-43 -172q-12 -45 -12 -54q0 -14 55 -14q11 0 16 -0.5t9.5 -3.5t4.5 -10q0 -19 -20 -19q-1 0 -6 0.5t-14 1t-21.5 0.5t-32.5 0.5t-43 0.5h-58q-54 -3 -57 -3q-15 0 -15 14q0 13 6.5 16t19.5 3q53 1 64.5 9.5t24.5 57.5
q2 7 12.5 50t20 82t9.5 40q0 4 -4 15l-127 334q-4 12 -8 17t-17 8.5t-38 3.5q-24 0 -24 14q0 19 20 19q2 0 10 -0.5t32 -1.5t63 -1q19 0 57 1.5t55 1.5q16 0 16 -14q0 -19 -24 -19q-51 0 -51 -21q0 -7 5 -17l111 -292l229 260l8 10q1 2 2.5 4.5t3.5 4.5q7 8 11 16t5 12v4
q0 17 -28 19q-16 1 -16 14q0 19 20 19q1 0 11 -0.5t31.5 -1.5t48.5 -1q24 0 40.5 0.5t22 1t10 1t7.5 0.5q5 0 9.5 -4t4.5 -10zM763 870q-4 -19 -28 -30l-188 -91q-9 -5 -15 -5q-7 1 -11.5 9.5t-3.5 14.5q1 7 14 16l177 114q12 9 25 9q16 0 24.5 -10.5t5.5 -26.5z" />
    <glyph glyph-name="Thorn" unicode="&#xde;" horiz-adv-x="673" 
d="M684 406q0 -87 -78.5 -157.5t-177.5 -70.5h-140l-16 -66q-15 -52 -15 -63q0 -6 2 -9t14.5 -5t38.5 -2q11 0 15.5 -0.5t9 -4t4.5 -10.5q0 -18 -20 -18l-115 3l-113 -3q-15 0 -15 14q0 13 7 16t22 3q48 0 60 7.5t19 33.5l135 540q3 22 0 27t-17 7q-17 2 -34 2
q-11 0 -15.5 0.5t-9 3.5t-4.5 10q0 19 20 19l115 -3l112 3q6 0 10 -3.5t4 -7.5l1 -3q0 -13 -6.5 -16t-26.5 -3q-27 0 -41.5 -3t-19 -7t-7.5 -11q-5 -10 -20 -77h130q86 0 129 -43t43 -103zM594 409q0 31 -10 53.5t-22 33t-30 16.5t-27 6.5t-19 0.5h-113l-77 -308h108
q77 0 133.5 61.5t56.5 136.5z" />
    <glyph glyph-name="germandbls" unicode="&#xdf;" horiz-adv-x="576" 
d="M558 164q0 -61 -56.5 -117.5t-130.5 -56.5q-44 0 -76 20t-32 56q0 25 13 36.5t27 11.5q4 0 9 -1t12 -8t7 -19q0 -26 -27 -35q18 -33 67 -33q32 0 57.5 31t36 62t10.5 48q0 30 -27 60q-35 40 -35 91q0 31 10 53t37 46q27 25 35.5 37.5t20.5 43.5q25 69 25 104
q0 9 -2.5 19.5t-9.5 26.5t-26 26t-46 10q-32 0 -56 -7.5t-38 -18.5t-24 -32.5t-14.5 -39t-10.5 -48.5l-85 -449q-28 -146 -62 -203q-8 -14 -20.5 -29.5t-39.5 -34t-55 -18.5q-31 0 -51.5 18.5t-20.5 46.5q0 26 15.5 41.5t35.5 15.5q35 0 35 -34q0 -14 -9.5 -28.5
t-30.5 -19.5q8 -12 27 -12q35 0 56.5 53.5t42.5 164.5l67 356h-65q-16 0 -22 2t-6 12q0 13 6.5 16t22.5 3h70l19 98q19 99 72 137t141 38q72 0 112 -33t40 -82q0 -35 -24.5 -86t-70.5 -98q-47 -47 -47 -70t42 -68q49 -55 49 -103z" />
    <glyph glyph-name="agrave" unicode="&#xe0;" 
d="M565 143q-13 -60 -34 -100q-29 -53 -77 -53q-35 0 -59 19.5t-31 48.5q-60 -68 -129 -68q-57 0 -94.5 44.5t-37.5 115.5q0 107 75.5 199t163.5 92q58 0 92 -56q3 19 15.5 28t25.5 9t21.5 -8t8.5 -20q0 -1 -4 -21l-70 -282q-3 -12 -3 -29q0 -44 28 -44q40 0 67 110
q4 15 5.5 19t5 6.5t12.5 2.5q19 0 19 -13zM371 133l42 171l3 14q0 11 -4.5 30t-23 42t-46.5 23q-61 0 -112 -93q-18 -34 -36 -104.5t-18 -106.5t15 -63.5t47 -27.5q40 0 83 42t50 73zM468 522q-3 -6 -13 -13.5t-17 -7.5q-4 0 -10 7l-108 122q-14 15 -5 35q8 15 21.5 23
t25.5 8q6 0 11.5 -3t7.5 -7l2 -3l83 -143q4 -13 2 -18z" />
    <glyph glyph-name="aacute" unicode="&#xe1;" 
d="M565 143q-13 -60 -34 -100q-29 -53 -77 -53q-35 0 -59 19.5t-31 48.5q-60 -68 -129 -68q-57 0 -94.5 44.5t-37.5 115.5q0 107 75.5 199t163.5 92q58 0 92 -56q3 19 15.5 28t25.5 9t21.5 -8t8.5 -20q0 -1 -4 -21l-70 -282q-3 -12 -3 -29q0 -44 28 -44q40 0 67 110
q4 15 5.5 19t5 6.5t12.5 2.5q19 0 19 -13zM371 133l42 171l3 14q0 11 -4.5 30t-23 42t-46.5 23q-61 0 -112 -93q-18 -34 -36 -104.5t-18 -106.5t15 -63.5t47 -27.5q40 0 83 42t50 73zM566 665q0 -20 -22 -35l-169 -122q-10 -7 -14 -7q-7 0 -13 7.5t-6 13.5q0 7 11 18
l154 143q14 13 28 13q12 0 21.5 -8t9.5 -23z" />
    <glyph glyph-name="acircumflex" unicode="&#xe2;" 
d="M565 143q-13 -60 -34 -100q-29 -53 -77 -53q-35 0 -59 19.5t-31 48.5q-60 -68 -129 -68q-57 0 -94.5 44.5t-37.5 115.5q0 107 75.5 199t163.5 92q58 0 92 -56q3 19 15.5 28t25.5 9t21.5 -8t8.5 -20q0 -1 -4 -21l-70 -282q-3 -12 -3 -29q0 -44 28 -44q40 0 67 110
q4 15 5.5 19t5 6.5t12.5 2.5q19 0 19 -13zM371 133l42 171l3 14q0 11 -4.5 30t-23 42t-46.5 23q-61 0 -112 -93q-18 -34 -36 -104.5t-18 -106.5t15 -63.5t47 -27.5q40 0 83 42t50 73zM545 534q6 -7 -3 -14.5t-15 -1.5l-98 99l-148 -99q-9 -6 -14 1t3 15l166 144q9 8 15 0z
" />
    <glyph glyph-name="atilde" unicode="&#xe3;" 
d="M565 143q-13 -60 -34 -100q-29 -53 -77 -53q-35 0 -59 19.5t-31 48.5q-60 -68 -129 -68q-57 0 -94.5 44.5t-37.5 115.5q0 107 75.5 199t163.5 92q58 0 92 -56q3 19 15.5 28t25.5 9t21.5 -8t8.5 -20q0 -1 -4 -21l-70 -282q-3 -12 -3 -29q0 -44 28 -44q40 0 67 110
q4 15 5.5 19t5 6.5t12.5 2.5q19 0 19 -13zM371 133l42 171l3 14q0 11 -4.5 30t-23 42t-46.5 23q-61 0 -112 -93q-18 -34 -36 -104.5t-18 -106.5t15 -63.5t47 -27.5q40 0 83 42t50 73zM599 639q0 -11 -54 -53q-47 -41 -83 -41q-30 0 -54 38q-12 19 -18.5 24t-16.5 5
q-29 0 -95 -59q-8 -8 -14 -8q-13 0 -13 14q0 11 53 53q51 41 83 41q20 0 32 -10.5t27 -33.5t30 -23q26 0 92 56q11 11 17 11q14 0 14 -14z" />
    <glyph glyph-name="adieresis" unicode="&#xe4;" 
d="M565 143q-13 -60 -34 -100q-29 -53 -77 -53q-35 0 -59 19.5t-31 48.5q-60 -68 -129 -68q-57 0 -94.5 44.5t-37.5 115.5q0 107 75.5 199t163.5 92q58 0 92 -56q3 19 15.5 28t25.5 9t21.5 -8t8.5 -20q0 -1 -4 -21l-70 -282q-3 -12 -3 -29q0 -44 28 -44q40 0 67 110
q4 15 5.5 19t5 6.5t12.5 2.5q19 0 19 -13zM371 133l42 171l3 14q0 11 -4.5 30t-23 42t-46.5 23q-61 0 -112 -93q-18 -34 -36 -104.5t-18 -106.5t15 -63.5t47 -27.5q40 0 83 42t50 73zM383 608q0 -24 -19 -41.5t-42 -17.5q-17 0 -29 11.5t-12 30.5q0 22 18.5 40t41.5 18
q15 0 28.5 -10t13.5 -31zM568 608q0 -24 -19 -41.5t-42 -17.5q-17 0 -29 11.5t-12 30.5q0 22 18.5 40t41.5 18q15 0 28.5 -10t13.5 -31z" />
    <glyph glyph-name="aring" unicode="&#xe5;" 
d="M565 143q-13 -60 -34 -100q-29 -53 -77 -53q-35 0 -59 19.5t-31 48.5q-60 -68 -129 -68q-57 0 -94.5 44.5t-37.5 115.5q0 107 75.5 199t163.5 92q58 0 92 -56q3 19 15.5 28t25.5 9t21.5 -8t8.5 -20q0 -1 -4 -21l-70 -282q-3 -12 -3 -29q0 -44 28 -44q40 0 67 110
q4 15 5.5 19t5 6.5t12.5 2.5q19 0 19 -13zM371 133l42 171l3 14q0 11 -4.5 30t-23 42t-46.5 23q-61 0 -112 -93q-18 -34 -36 -104.5t-18 -106.5t15 -63.5t47 -27.5q40 0 83 42t50 73zM488 636q0 32 -48 32q-36 0 -54 -21.5t-18 -52.5q0 -32 46 -32q22 0 37.5 7.5t22 16.5
t10.5 22.5t4 17.5v10zM531 634q0 -42 -38.5 -74.5t-86.5 -32.5q-33 0 -57 18t-24 52q0 41 38 73.5t87 32.5q35 0 58 -19t23 -50z" />
    <glyph glyph-name="ae" unicode="&#xe6;" horiz-adv-x="768" 
d="M749 100q0 -5 -9 -17t-27.5 -28t-41.5 -30.5t-55.5 -24.5t-65.5 -10q-79 0 -121 70q-10 -44 -17.5 -57t-27.5 -13q-12 0 -19.5 8t-7.5 18q0 4 8 36q-61 -62 -121 -62q-59 0 -103 30.5t-44 83.5q0 37 27.5 87.5t74.5 89.5q94 79 258 134q9 26 33 26q27 0 27 -26
q0 -10 -5 -25q71 51 142 51q48 0 79.5 -24t31.5 -63q0 -26 -11 -46.5t-27.5 -33.5t-41 -22.5t-44.5 -14t-46 -6.5t-37.5 -2.5t-26.5 -0.5h-60q-11 -51 -11 -85q0 -54 23.5 -89.5t67.5 -35.5q36 0 80.5 21t82.5 70q8 12 15 12q5 0 12.5 -7.5t7.5 -13.5zM721 354q0 29 -20 44
t-48 15q-49 0 -100 -39.5t-74 -117.5h46q196 0 196 98zM391 154l57 228q-133 -52 -203 -139t-70 -162q0 -22 9.5 -36t24.5 -19t22.5 -6.5t14.5 -1.5q48 0 92 50.5t53 85.5z" />
    <glyph glyph-name="ccedilla" unicode="&#xe7;" horiz-adv-x="494" 
d="M502 100q0 -5 -9 -17t-28.5 -27.5t-45 -30t-63 -25t-77.5 -10.5q-2 -12 -8 -36q25 -4 45.5 -18t20.5 -40q0 -30 -21.5 -49.5t-61 -27t-64 -9t-61.5 -1.5q-27 0 -34.5 2t-7.5 12q0 14 28 14h13q140 0 140 58q0 31 -51 35q-18 0 -18 14q0 5 14 58q-46 17 -72 58.5t-26 98.5
q0 109 83 195.5t182 86.5q52 0 84.5 -24t32.5 -62q0 -28 -15.5 -44t-35.5 -16q-18 0 -27 10t-9 23q0 40 43 49q-19 36 -73 36q-33 0 -72 -24t-70 -80q-19 -34 -33.5 -91t-14.5 -94q0 -50 24 -78t64 -28q47 0 98.5 22.5t89.5 68.5q11 12 16 12t12.5 -7.5t7.5 -13.5z" />
    <glyph glyph-name="egrave" unicode="&#xe8;" horiz-adv-x="494" 
d="M502 100q0 -5 -9 -17t-29 -28t-45.5 -30.5t-63 -24.5t-78.5 -10q-75 0 -116.5 53t-41.5 127q0 63 25 116.5t64.5 86t84 50.5t86.5 18q50 0 81 -24.5t31 -62.5q0 -30 -13.5 -53t-37.5 -36t-47 -21t-53.5 -11.5t-44.5 -4t-31 -0.5h-57q-14 -60 -14 -96q0 -44 19.5 -79
t65.5 -35q47 0 98.5 22.5t89.5 68.5q11 12 16 12t12.5 -7.5t7.5 -13.5zM447 354q0 28 -20 43.5t-48 15.5q-26 0 -55 -12t-61.5 -50t-47.5 -95h41q191 0 191 98zM441 522q-3 -6 -13 -13.5t-17 -7.5q-4 0 -10 7l-108 122q-14 15 -5 35q8 15 21.5 23t25.5 8q6 0 11.5 -3t7.5 -7
l2 -3l83 -143q4 -13 2 -18z" />
    <glyph glyph-name="eacute" unicode="&#xe9;" horiz-adv-x="494" 
d="M502 100q0 -5 -9 -17t-29 -28t-45.5 -30.5t-63 -24.5t-78.5 -10q-75 0 -116.5 53t-41.5 127q0 63 25 116.5t64.5 86t84 50.5t86.5 18q50 0 81 -24.5t31 -62.5q0 -30 -13.5 -53t-37.5 -36t-47 -21t-53.5 -11.5t-44.5 -4t-31 -0.5h-57q-14 -60 -14 -96q0 -44 19.5 -79
t65.5 -35q47 0 98.5 22.5t89.5 68.5q11 12 16 12t12.5 -7.5t7.5 -13.5zM447 354q0 28 -20 43.5t-48 15.5q-26 0 -55 -12t-61.5 -50t-47.5 -95h41q191 0 191 98zM539 665q0 -20 -22 -35l-169 -122q-10 -7 -14 -7q-7 0 -13 7.5t-6 13.5q0 7 11 18l154 143q14 13 28 13
q12 0 21.5 -8t9.5 -23z" />
    <glyph glyph-name="ecircumflex" unicode="&#xea;" horiz-adv-x="494" 
d="M502 100q0 -5 -9 -17t-29 -28t-45.5 -30.5t-63 -24.5t-78.5 -10q-75 0 -116.5 53t-41.5 127q0 63 25 116.5t64.5 86t84 50.5t86.5 18q50 0 81 -24.5t31 -62.5q0 -30 -13.5 -53t-37.5 -36t-47 -21t-53.5 -11.5t-44.5 -4t-31 -0.5h-57q-14 -60 -14 -96q0 -44 19.5 -79
t65.5 -35q47 0 98.5 22.5t89.5 68.5q11 12 16 12t12.5 -7.5t7.5 -13.5zM447 354q0 28 -20 43.5t-48 15.5q-26 0 -55 -12t-61.5 -50t-47.5 -95h41q191 0 191 98zM518 534q6 -7 -3 -14.5t-15 -1.5l-98 99l-148 -99q-9 -6 -14 1t3 15l166 144q9 8 15 0z" />
    <glyph glyph-name="edieresis" unicode="&#xeb;" horiz-adv-x="494" 
d="M502 100q0 -5 -9 -17t-29 -28t-45.5 -30.5t-63 -24.5t-78.5 -10q-75 0 -116.5 53t-41.5 127q0 63 25 116.5t64.5 86t84 50.5t86.5 18q50 0 81 -24.5t31 -62.5q0 -30 -13.5 -53t-37.5 -36t-47 -21t-53.5 -11.5t-44.5 -4t-31 -0.5h-57q-14 -60 -14 -96q0 -44 19.5 -79
t65.5 -35q47 0 98.5 22.5t89.5 68.5q11 12 16 12t12.5 -7.5t7.5 -13.5zM447 354q0 28 -20 43.5t-48 15.5q-26 0 -55 -12t-61.5 -50t-47.5 -95h41q191 0 191 98zM356 608q0 -24 -19 -41.5t-42 -17.5q-17 0 -29 11.5t-12 30.5q0 22 18.5 40t41.5 18q15 0 28.5 -10t13.5 -31z
M541 608q0 -24 -19 -41.5t-42 -17.5q-17 0 -29 11.5t-12 30.5q0 22 18.5 40t41.5 18q15 0 28.5 -10t13.5 -31z" />
    <glyph glyph-name="igrave" unicode="&#xec;" horiz-adv-x="329" 
d="M355 143q0 -7 -8.5 -29.5t-23.5 -51t-43 -50.5t-61 -22q-37 0 -60.5 24t-23.5 59q0 19 11 46l70 186q20 54 20 77q0 31 -22 31q-33 0 -56.5 -34.5t-37.5 -82.5q-3 -14 -6 -17.5t-15 -3.5q-19 0 -19 13q0 12 13 45.5t46.5 70.5t76.5 37q34 0 58.5 -22t24.5 -61
q0 -19 -12 -52l-66 -174q-22 -58 -22 -82q0 -32 22 -32q30 0 54.5 32.5t38.5 84.5q4 14 7.5 17.5t14.5 3.5q19 0 19 -13zM358 522q-3 -6 -13 -13.5t-17 -7.5q-4 0 -10 7l-108 122q-14 15 -5 35q8 15 21.5 23t25.5 8q6 0 11.5 -3t7.5 -7l2 -3l83 -143q4 -13 2 -18z" />
    <glyph glyph-name="iacute" unicode="&#xed;" horiz-adv-x="329" 
d="M355 143q0 -7 -8.5 -29.5t-23.5 -51t-43 -50.5t-61 -22q-37 0 -60.5 24t-23.5 59q0 19 11 46l70 186q20 54 20 77q0 31 -22 31q-33 0 -56.5 -34.5t-37.5 -82.5q-3 -14 -6 -17.5t-15 -3.5q-19 0 -19 13q0 12 13 45.5t46.5 70.5t76.5 37q34 0 58.5 -22t24.5 -61
q0 -19 -12 -52l-66 -174q-22 -58 -22 -82q0 -32 22 -32q30 0 54.5 32.5t38.5 84.5q4 14 7.5 17.5t14.5 3.5q19 0 19 -13zM456 665q0 -20 -22 -35l-169 -122q-10 -7 -14 -7q-7 0 -13 7.5t-6 13.5q0 7 11 18l154 143q14 13 28 13q12 0 21.5 -8t9.5 -23z" />
    <glyph glyph-name="icircumflex" unicode="&#xee;" horiz-adv-x="329" 
d="M355 143q0 -7 -8.5 -29.5t-23.5 -51t-43 -50.5t-61 -22q-37 0 -60.5 24t-23.5 59q0 19 11 46l70 186q20 54 20 77q0 31 -22 31q-33 0 -56.5 -34.5t-37.5 -82.5q-3 -14 -6 -17.5t-15 -3.5q-19 0 -19 13q0 12 13 45.5t46.5 70.5t76.5 37q34 0 58.5 -22t24.5 -61
q0 -19 -12 -52l-66 -174q-22 -58 -22 -82q0 -32 22 -32q30 0 54.5 32.5t38.5 84.5q4 14 7.5 17.5t14.5 3.5q19 0 19 -13zM435 534q6 -7 -3 -14.5t-15 -1.5l-98 99l-148 -99q-9 -6 -14 1t3 15l166 144q9 8 15 0z" />
    <glyph glyph-name="idieresis" unicode="&#xef;" horiz-adv-x="329" 
d="M355 143q0 -7 -8.5 -29.5t-23.5 -51t-43 -50.5t-61 -22q-37 0 -60.5 24t-23.5 59q0 19 11 46l70 186q20 54 20 77q0 31 -22 31q-33 0 -56.5 -34.5t-37.5 -82.5q-3 -14 -6 -17.5t-15 -3.5q-19 0 -19 13q0 12 13 45.5t46.5 70.5t76.5 37q34 0 58.5 -22t24.5 -61
q0 -19 -12 -52l-66 -174q-22 -58 -22 -82q0 -32 22 -32q30 0 54.5 32.5t38.5 84.5q4 14 7.5 17.5t14.5 3.5q19 0 19 -13zM273 608q0 -24 -19 -41.5t-42 -17.5q-17 0 -29 11.5t-12 30.5q0 22 18.5 40t41.5 18q15 0 28.5 -10t13.5 -31zM458 608q0 -24 -19 -41.5t-42 -17.5
q-17 0 -29 11.5t-12 30.5q0 22 18.5 40t41.5 18q15 0 28.5 -10t13.5 -31z" />
    <glyph glyph-name="eth" unicode="&#xf0;" 
d="M544 208q-24 -90 -104 -154t-169 -64q-75 0 -123 46.5t-48 121.5q0 105 88.5 196t194.5 91q69 0 103 -58q-6 117 -80 199l-91 -46q-6 -3 -11 -3q-13 0 -13 15q0 12 13 19l77 39q-36 31 -84 53q-10 4 -10 13q0 8 5.5 13.5t12.5 4.5q75 -15 133 -56l104 53q6 3 11 3
q13 0 13 -15q0 -12 -13 -19l-87 -44q104 -95 104 -249q0 -59 -26 -159zM475 298q0 67 -30.5 93t-68.5 26q-39 0 -80 -23.5t-68 -69.5q-22 -39 -37 -102t-15 -94q0 -58 31 -82.5t72 -24.5q83 0 139 79q23 34 40 93t17 105z" />
    <glyph glyph-name="ntilde" unicode="&#xf1;" horiz-adv-x="603" 
d="M629 143q0 -8 -8.5 -30.5t-24 -51t-43.5 -50t-61 -21.5q-37 0 -60.5 24t-23.5 59q0 19 13 52q61 161 61 222q0 66 -51 66t-98 -41q-21 -19 -41.5 -53.5t-25.5 -50.5l-16 -65q-6 -22 -16 -65l-22 -86q-6 -24 -9.5 -34.5t-13 -19t-24.5 -8.5q-13 0 -21.5 8t-8.5 20
q0 2 3 15l73 292q6 21 6 44q0 44 -28 44q-39 0 -67 -111q-5 -19 -8 -23t-15 -4q-19 0 -19 13q0 3 4.5 19.5t12.5 40.5t16 39q31 54 78 54q36 0 61.5 -22.5t30.5 -57.5q66 80 151 80q49 0 81.5 -24.5t32.5 -83.5q0 -57 -61 -219q-15 -43 -15 -64q0 -32 22 -32q31 0 55.5 32.5
t38.5 84.5q4 14 7.5 17.5t14.5 3.5q19 0 19 -13zM626 639q0 -11 -54 -53q-47 -41 -83 -41q-30 0 -54 38q-12 19 -18.5 24t-16.5 5q-29 0 -95 -59q-8 -8 -14 -8q-13 0 -13 14q0 11 53 53q51 41 83 41q20 0 32 -10.5t27 -33.5t30 -23q26 0 92 56q11 11 17 11q14 0 14 -14z" />
    <glyph glyph-name="ograve" unicode="&#xf2;" 
d="M540 272q0 -108 -83 -195t-183 -87q-67 0 -113 45t-46 124q0 109 83.5 195.5t181.5 86.5q69 0 114.5 -46.5t45.5 -122.5zM465 307q0 51 -24 78.5t-62 27.5q-31 0 -69 -23t-67 -72q-23 -39 -38 -98t-15 -96q0 -55 25.5 -80.5t59.5 -25.5q36 0 73 25.5t61 66.5
q27 45 41.5 104.5t14.5 92.5zM468 522q-3 -6 -13 -13.5t-17 -7.5q-4 0 -10 7l-108 122q-14 15 -5 35q8 15 21.5 23t25.5 8q6 0 11.5 -3t7.5 -7l2 -3l83 -143q4 -13 2 -18z" />
    <glyph glyph-name="oacute" unicode="&#xf3;" 
d="M540 272q0 -108 -83 -195t-183 -87q-67 0 -113 45t-46 124q0 109 83.5 195.5t181.5 86.5q69 0 114.5 -46.5t45.5 -122.5zM465 307q0 51 -24 78.5t-62 27.5q-31 0 -69 -23t-67 -72q-23 -39 -38 -98t-15 -96q0 -55 25.5 -80.5t59.5 -25.5q36 0 73 25.5t61 66.5
q27 45 41.5 104.5t14.5 92.5zM566 665q0 -20 -22 -35l-169 -122q-10 -7 -14 -7q-7 0 -13 7.5t-6 13.5q0 7 11 18l154 143q14 13 28 13q12 0 21.5 -8t9.5 -23z" />
    <glyph glyph-name="ocircumflex" unicode="&#xf4;" 
d="M540 272q0 -108 -83 -195t-183 -87q-67 0 -113 45t-46 124q0 109 83.5 195.5t181.5 86.5q69 0 114.5 -46.5t45.5 -122.5zM465 307q0 51 -24 78.5t-62 27.5q-31 0 -69 -23t-67 -72q-23 -39 -38 -98t-15 -96q0 -55 25.5 -80.5t59.5 -25.5q36 0 73 25.5t61 66.5
q27 45 41.5 104.5t14.5 92.5zM545 534q6 -7 -3 -14.5t-15 -1.5l-98 99l-148 -99q-9 -6 -14 1t3 15l166 144q9 8 15 0z" />
    <glyph glyph-name="otilde" unicode="&#xf5;" 
d="M540 272q0 -108 -83 -195t-183 -87q-67 0 -113 45t-46 124q0 109 83.5 195.5t181.5 86.5q69 0 114.5 -46.5t45.5 -122.5zM465 307q0 51 -24 78.5t-62 27.5q-31 0 -69 -23t-67 -72q-23 -39 -38 -98t-15 -96q0 -55 25.5 -80.5t59.5 -25.5q36 0 73 25.5t61 66.5
q27 45 41.5 104.5t14.5 92.5zM599 639q0 -11 -54 -53q-47 -41 -83 -41q-30 0 -54 38q-12 19 -18.5 24t-16.5 5q-29 0 -95 -59q-8 -8 -14 -8q-13 0 -13 14q0 11 53 53q51 41 83 41q20 0 32 -10.5t27 -33.5t30 -23q26 0 92 56q11 11 17 11q14 0 14 -14z" />
    <glyph glyph-name="odieresis" unicode="&#xf6;" 
d="M540 272q0 -108 -83 -195t-183 -87q-67 0 -113 45t-46 124q0 109 83.5 195.5t181.5 86.5q69 0 114.5 -46.5t45.5 -122.5zM465 307q0 51 -24 78.5t-62 27.5q-31 0 -69 -23t-67 -72q-23 -39 -38 -98t-15 -96q0 -55 25.5 -80.5t59.5 -25.5q36 0 73 25.5t61 66.5
q27 45 41.5 104.5t14.5 92.5zM383 608q0 -24 -19 -41.5t-42 -17.5q-17 0 -29 11.5t-12 30.5q0 22 18.5 40t41.5 18q15 0 28.5 -10t13.5 -31zM568 608q0 -24 -19 -41.5t-42 -17.5q-17 0 -29 11.5t-12 30.5q0 22 18.5 40t41.5 18q15 0 28.5 -10t13.5 -31z" />
    <glyph glyph-name="divide" unicode="&#xf7;" horiz-adv-x="823" 
d="M802 250q0 -23 -35 -23h-588q-34 0 -34 23t39 23h578q40 0 40 -23zM572 429q0 -27 -21 -46.5t-46 -19.5q-19 0 -32.5 12t-13.5 33q0 27 21 46.5t46 19.5q19 0 32.5 -12t13.5 -33zM487 91q0 -27 -21 -46.5t-46 -19.5q-19 0 -32.5 12t-13.5 33q0 27 21 46.5t46 19.5
q19 0 32.5 -12t13.5 -33z" />
    <glyph glyph-name="oslash" unicode="&#xf8;" 
d="M534 276q0 -109 -81 -198.5t-179 -89.5q-23 0 -44.5 6t-31.5 12l-10 7l-79 -102q-18 -22 -24 -22q-5 0 -9 4t-4 10t17 29l78 99q-46 48 -46 125q0 108 81 197.5t179 89.5q49 0 86 -25l87 112q9 12 15 12q14 0 14 -14q0 -7 -9 -17l-86 -112q46 -47 46 -123zM443 388
q-26 27 -63 27q-34 0 -70.5 -23t-64.5 -64q-30 -46 -45 -105.5t-15 -93.5q0 -35 11 -59zM470 303q0 31 -11 59l-247 -319q2 -3 8.5 -8.5t22 -12t32.5 -6.5q56 0 102 48t69.5 113.5t23.5 125.5z" />
    <glyph glyph-name="ugrave" unicode="&#xf9;" horiz-adv-x="576" 
d="M602 143q-13 -60 -34 -100q-29 -53 -77 -53q-26 0 -51.5 14t-35.5 47q-53 -61 -118 -61q-50 0 -86 28.5t-36 91.5q0 26 10 65t17.5 60.5t28.5 79.5q17 43 17 67q0 31 -22 31q-31 0 -55.5 -33t-39.5 -84q-3 -14 -6 -17.5t-15 -3.5q-19 0 -19 13q0 7 8.5 29.5t23.5 51.5
t43.5 50.5t61.5 21.5q34 0 58.5 -22t24.5 -61q0 -20 -12 -50q-57 -155 -57 -212q0 -78 59 -78q43 0 75.5 36t38.5 62l68 275q9 40 42 40q30 0 30 -29q0 -5 -4 -19l-72 -292q-3 -12 -3 -29q0 -44 28 -44q40 0 67 110q4 15 5.5 19t5 6.5t12.5 2.5q19 0 19 -13zM482 522
q-3 -6 -13 -13.5t-17 -7.5q-4 0 -10 7l-108 122q-14 15 -5 35q8 15 21.5 23t25.5 8q6 0 11.5 -3t7.5 -7l2 -3l83 -143q4 -13 2 -18z" />
    <glyph glyph-name="uacute" unicode="&#xfa;" horiz-adv-x="576" 
d="M602 143q-13 -60 -34 -100q-29 -53 -77 -53q-26 0 -51.5 14t-35.5 47q-53 -61 -118 -61q-50 0 -86 28.5t-36 91.5q0 26 10 65t17.5 60.5t28.5 79.5q17 43 17 67q0 31 -22 31q-31 0 -55.5 -33t-39.5 -84q-3 -14 -6 -17.5t-15 -3.5q-19 0 -19 13q0 7 8.5 29.5t23.5 51.5
t43.5 50.5t61.5 21.5q34 0 58.5 -22t24.5 -61q0 -20 -12 -50q-57 -155 -57 -212q0 -78 59 -78q43 0 75.5 36t38.5 62l68 275q9 40 42 40q30 0 30 -29q0 -5 -4 -19l-72 -292q-3 -12 -3 -29q0 -44 28 -44q40 0 67 110q4 15 5.5 19t5 6.5t12.5 2.5q19 0 19 -13zM580 665
q0 -20 -22 -35l-169 -122q-10 -7 -14 -7q-7 0 -13 7.5t-6 13.5q0 7 11 18l154 143q14 13 28 13q12 0 21.5 -8t9.5 -23z" />
    <glyph glyph-name="ucircumflex" unicode="&#xfb;" horiz-adv-x="576" 
d="M602 143q-13 -60 -34 -100q-29 -53 -77 -53q-26 0 -51.5 14t-35.5 47q-53 -61 -118 -61q-50 0 -86 28.5t-36 91.5q0 26 10 65t17.5 60.5t28.5 79.5q17 43 17 67q0 31 -22 31q-31 0 -55.5 -33t-39.5 -84q-3 -14 -6 -17.5t-15 -3.5q-19 0 -19 13q0 7 8.5 29.5t23.5 51.5
t43.5 50.5t61.5 21.5q34 0 58.5 -22t24.5 -61q0 -20 -12 -50q-57 -155 -57 -212q0 -78 59 -78q43 0 75.5 36t38.5 62l68 275q9 40 42 40q30 0 30 -29q0 -5 -4 -19l-72 -292q-3 -12 -3 -29q0 -44 28 -44q40 0 67 110q4 15 5.5 19t5 6.5t12.5 2.5q19 0 19 -13zM559 534
q6 -7 -3 -14.5t-15 -1.5l-98 99l-148 -99q-9 -6 -14 1t3 15l166 144q9 8 15 0z" />
    <glyph glyph-name="udieresis" unicode="&#xfc;" horiz-adv-x="576" 
d="M602 143q-13 -60 -34 -100q-29 -53 -77 -53q-26 0 -51.5 14t-35.5 47q-53 -61 -118 -61q-50 0 -86 28.5t-36 91.5q0 26 10 65t17.5 60.5t28.5 79.5q17 43 17 67q0 31 -22 31q-31 0 -55.5 -33t-39.5 -84q-3 -14 -6 -17.5t-15 -3.5q-19 0 -19 13q0 7 8.5 29.5t23.5 51.5
t43.5 50.5t61.5 21.5q34 0 58.5 -22t24.5 -61q0 -20 -12 -50q-57 -155 -57 -212q0 -78 59 -78q43 0 75.5 36t38.5 62l68 275q9 40 42 40q30 0 30 -29q0 -5 -4 -19l-72 -292q-3 -12 -3 -29q0 -44 28 -44q40 0 67 110q4 15 5.5 19t5 6.5t12.5 2.5q19 0 19 -13zM397 608
q0 -24 -19 -41.5t-42 -17.5q-17 0 -29 11.5t-12 30.5q0 22 18.5 40t41.5 18q15 0 28.5 -10t13.5 -31zM582 608q0 -24 -19 -41.5t-42 -17.5q-17 0 -29 11.5t-12 30.5q0 22 18.5 40t41.5 18q15 0 28.5 -10t13.5 -31z" />
    <glyph glyph-name="yacute" unicode="&#xfd;" horiz-adv-x="521" 
d="M442 -9q-19 -73 -85 -134t-145 -61q-45 0 -74 24.5t-29 62.5q0 33 17 47t34 14t26.5 -9.5t9.5 -23.5q0 -17 -12.5 -31.5t-32.5 -18.5q16 -37 62 -37q58 0 108 63q40 52 60 140q-42 -37 -95 -37q-50 0 -86 28.5t-36 91.5q0 26 10 65t17.5 60.5t28.5 79.5q17 43 17 67
q0 31 -22 31q-31 0 -55.5 -33t-39.5 -84q-3 -14 -6 -17.5t-15 -3.5q-19 0 -19 13q0 7 8.5 29.5t23.5 51.5t43.5 50.5t61.5 21.5q34 0 58.5 -22t24.5 -61q0 -20 -12 -50q-57 -155 -57 -212q0 -78 59 -78q43 0 75.5 36t38.5 62l68 275q9 40 42 40q13 0 21.5 -7.5t8.5 -21.5
l-4 -19zM552 665q0 -20 -22 -35l-169 -122q-10 -7 -14 -7q-7 0 -13 7.5t-6 13.5q0 7 11 18l154 143q14 13 28 13q12 0 21.5 -8t9.5 -23z" />
    <glyph glyph-name="thorn" unicode="&#xfe;" 
d="M541 281q0 -111 -75.5 -201t-162.5 -90q-60 0 -92 56l-36 -145q-11 -44 -11 -48q0 -9 11.5 -11.5t37.5 -2.5q25 0 25 -14q0 -19 -19 -19q-2 0 -11.5 1t-31.5 1.5t-53 0.5q-32 0 -51 -0.5t-26 -1.5t-9 -1q-14 0 -14 14q0 19 24 19q28 0 37 6.5t15 31.5l85 346l98 390
q0 2 1 7t2 9t1 6q0 6 -1.5 8.5t-12.5 4.5t-34 2q-26 0 -26 14q0 8 4 12.5t8 5.5t13 2l104 9q27 2 27 -13q0 -3 -3 -15l-69 -275q60 51 112 51q55 0 94 -42t39 -118zM419 119q16 34 32.5 99t16.5 103q0 47 -18 69.5t-43 22.5q-55 0 -114 -77q-15 -21 -19 -39l-43 -171
q0 -2 -1.5 -6.5t-1.5 -6.5q0 -6 3 -18.5t10 -31t23.5 -32t38.5 -13.5q29 0 61 26.5t55 74.5z" />
    <glyph glyph-name="ydieresis" unicode="&#xff;" horiz-adv-x="521" 
d="M442 -9q-19 -73 -85 -134t-145 -61q-45 0 -74 24.5t-29 62.5q0 33 17 47t34 14t26.5 -9.5t9.5 -23.5q0 -17 -12.5 -31.5t-32.5 -18.5q16 -37 62 -37q58 0 108 63q40 52 60 140q-42 -37 -95 -37q-50 0 -86 28.5t-36 91.5q0 26 10 65t17.5 60.5t28.5 79.5q17 43 17 67
q0 31 -22 31q-31 0 -55.5 -33t-39.5 -84q-3 -14 -6 -17.5t-15 -3.5q-19 0 -19 13q0 7 8.5 29.5t23.5 51.5t43.5 50.5t61.5 21.5q34 0 58.5 -22t24.5 -61q0 -20 -12 -50q-57 -155 -57 -212q0 -78 59 -78q43 0 75.5 36t38.5 62l68 275q9 40 42 40q13 0 21.5 -7.5t8.5 -21.5
l-4 -19zM369 608q0 -24 -19 -41.5t-42 -17.5q-17 0 -29 11.5t-12 30.5q0 22 18.5 40t41.5 18q15 0 28.5 -10t13.5 -31zM554 608q0 -24 -19 -41.5t-42 -17.5q-17 0 -29 11.5t-12 30.5q0 22 18.5 40t41.5 18q15 0 28.5 -10t13.5 -31z" />
    <glyph glyph-name="Amacron" unicode="&#x100;" horiz-adv-x="797" 
d="M739 19q0 -19 -19 -19q-2 0 -11 1t-32.5 1.5t-61.5 0.5q-19 0 -56.5 -1.5t-54.5 -1.5q-16 0 -16 14q0 13 6.5 16t20.5 3q28 0 42.5 7.5t16.5 15t1 20.5l-15 155h-253q-49 -82 -50 -84q-40 -67 -40 -83q0 -27 37 -31q18 0 18 -14q0 -19 -20 -19l-10 1q-11 1 -32.5 1.5
t-49.5 0.5q-30 0 -48 -0.5t-25 -1.5t-9 -1q-14 0 -14 14q0 8 3.5 12t7 5t11.5 2q67 6 114 85l343 575q13 21 33 21q13 0 17 -5t6 -22l60 -621q1 -14 3.5 -19.5t13.5 -9.5t35 -4q10 0 15 -0.5t9 -3.5t4 -10zM557 264l-32 330l-198 -330h230zM770 776q0 -10 -4.5 -15t-10 -6
t-16.5 -1h-298q-10 0 -15 0.5t-9 3.5t-4 10q0 10 4.5 15t9.5 6t16 1h298q29 0 29 -14z" />
    <glyph glyph-name="amacron" unicode="&#x101;" 
d="M565 143q-13 -60 -34 -100q-29 -53 -77 -53q-35 0 -59 19.5t-31 48.5q-60 -68 -129 -68q-57 0 -94.5 44.5t-37.5 115.5q0 107 75.5 199t163.5 92q58 0 92 -56q3 19 15.5 28t25.5 9t21.5 -8t8.5 -20q0 -1 -4 -21l-70 -282q-3 -12 -3 -29q0 -44 28 -44q40 0 67 110
q4 15 5.5 19t5 6.5t12.5 2.5q19 0 19 -13zM371 133l42 171l3 14q0 11 -4.5 30t-23 42t-46.5 23q-61 0 -112 -93q-18 -34 -36 -104.5t-18 -106.5t15 -63.5t47 -27.5q40 0 83 42t50 73zM603 603q0 -10 -4.5 -15t-10 -6t-16.5 -1h-298q-10 0 -15 0.5t-9 3.5t-4 10q0 10 4.5 15
t9.5 6t16 1h298q29 0 29 -14z" />
    <glyph glyph-name="Abreve" unicode="&#x102;" horiz-adv-x="797" 
d="M739 19q0 -19 -19 -19q-2 0 -11 1t-32.5 1.5t-61.5 0.5q-19 0 -56.5 -1.5t-54.5 -1.5q-16 0 -16 14q0 13 6.5 16t20.5 3q28 0 42.5 7.5t16.5 15t1 20.5l-15 155h-253q-49 -82 -50 -84q-40 -67 -40 -83q0 -27 37 -31q18 0 18 -14q0 -19 -20 -19l-10 1q-11 1 -32.5 1.5
t-49.5 0.5q-30 0 -48 -0.5t-25 -1.5t-9 -1q-14 0 -14 14q0 8 3.5 12t7 5t11.5 2q67 6 114 85l343 575q13 21 33 21q13 0 17 -5t6 -22l60 -621q1 -14 3.5 -19.5t13.5 -9.5t35 -4q10 0 15 -0.5t9 -3.5t4 -10zM557 264l-32 330l-198 -330h230zM774 905q0 -38 -55 -99.5
t-132 -61.5q-55 0 -87 35t-32 88q0 52 19 52q14 0 14 -15l-2 -11q-2 -11 -2 -19q0 -39 26 -63.5t68 -24.5q15 0 34 5t42.5 17t45 37.5t33.5 60.5q3 13 14 13q5 0 9.5 -4t4.5 -10z" />
    <glyph glyph-name="abreve" unicode="&#x103;" 
d="M565 143q-13 -60 -34 -100q-29 -53 -77 -53q-35 0 -59 19.5t-31 48.5q-60 -68 -129 -68q-57 0 -94.5 44.5t-37.5 115.5q0 107 75.5 199t163.5 92q58 0 92 -56q3 19 15.5 28t25.5 9t21.5 -8t8.5 -20q0 -1 -4 -21l-70 -282q-3 -12 -3 -29q0 -44 28 -44q40 0 67 110
q4 15 5.5 19t5 6.5t12.5 2.5q19 0 19 -13zM371 133l42 171l3 14q0 11 -4.5 30t-23 42t-46.5 23q-61 0 -112 -93q-18 -34 -36 -104.5t-18 -106.5t15 -63.5t47 -27.5q40 0 83 42t50 73zM592 672q0 -38 -55 -99.5t-132 -61.5q-55 0 -87 35t-32 88q0 52 19 52q14 0 14 -15
l-2 -11q-2 -11 -2 -19q0 -39 26 -63.5t68 -24.5q15 0 34 5t42.5 17t45 37.5t33.5 60.5q3 13 14 13q5 0 9.5 -4t4.5 -10z" />
    <glyph glyph-name="Aogonek" unicode="&#x104;" horiz-adv-x="797" 
d="M717 -115q-21 -42 -61 -69t-78 -27q-47 0 -73 27t-18 63q14 65 110 124q-10 0 -29.5 -1t-35 -1.5t-28.5 -0.5q-16 0 -16 14q0 13 6.5 16t20.5 3q28 0 42.5 7.5t16.5 15t1 20.5l-15 155h-253q-49 -82 -50 -84q-40 -67 -40 -83q0 -27 37 -31q18 0 18 -14q0 -19 -20 -19
l-10 1q-11 1 -32.5 1.5t-49.5 0.5q-30 0 -48 -0.5t-25 -1.5t-9 -1q-14 0 -14 14q0 8 3.5 12t7 5t11.5 2q67 6 114 85l343 575q13 21 33 21q13 0 17 -5t6 -22l60 -621q1 -14 3.5 -19.5t13.5 -9.5t35 -4q10 0 15 -0.5t9 -3.5t4 -10q0 -19 -19 -19q-3 0 -10 0.5t-26 1.5t-48 1
q-85 -51 -96 -98q-7 -32 17 -50.5t55 -18.5q52 0 89 56q5 8 12.5 5t3.5 -12zM557 264l-32 330l-198 -330h230z" />
    <glyph glyph-name="aogonek" unicode="&#x105;" 
d="M507 -115q-21 -42 -61 -69t-78 -27q-47 0 -73 27t-18 63q14 67 119 131q-25 20 -32 48q-60 -68 -129 -68q-57 0 -94.5 44.5t-37.5 115.5q0 107 75.5 199t163.5 92q58 0 92 -56q3 19 15.5 28t25.5 9t21.5 -8t8.5 -20q0 -1 -4 -21l-70 -282q-3 -12 -3 -29q0 -44 28 -44
q40 0 67 110q4 15 5.5 19t5 6.5t12.5 2.5q19 0 19 -13q-13 -60 -34 -100q-29 -53 -77 -53q-14 0 -36 8q-78 -47 -88 -93q-7 -32 17 -50.5t55 -18.5q52 0 89 56q5 8 12.5 5t3.5 -12zM371 133l42 171l3 14q0 11 -4.5 30t-23 42t-46.5 23q-61 0 -112 -93q-18 -34 -36 -104.5
t-18 -106.5t15 -63.5t47 -27.5q40 0 83 42t50 73z" />
    <glyph glyph-name="Cacute" unicode="&#x106;" horiz-adv-x="768" 
d="M794 437q-4 -14 -7.5 -17t-14.5 -3q-19 0 -19 13q0 1 1 8.5t2 20t1 23.5q0 82 -40 135.5t-115 53.5q-65 0 -132.5 -36t-117.5 -99q-56 -72 -82 -164t-26 -154q0 -102 55 -154t133 -52q35 0 73 13t77 39t72.5 72.5t52.5 106.5q2 10 18 10q19 0 19 -13q0 -4 -3.5 -16
t-13 -34.5t-23.5 -44.5q-46 -72 -122.5 -119t-160.5 -47q-114 0 -189.5 74.5t-75.5 198.5q0 113 64 218.5t166 169.5t209 64t165 -87l65 76q9 11 18 11q14 0 14 -12q0 -5 -3 -14zM787 870q-4 -19 -28 -30l-188 -91q-9 -5 -15 -5q-7 1 -11.5 9.5t-3.5 14.5q1 7 14 16l177 114
q12 9 25 9q16 0 24.5 -10.5t5.5 -26.5z" />
    <glyph glyph-name="cacute" unicode="&#x107;" horiz-adv-x="494" 
d="M502 100q0 -5 -9 -17t-29 -28t-45.5 -30.5t-63 -24.5t-78.5 -10q-72 0 -117 46.5t-45 122.5q0 109 83 195.5t182 86.5q52 0 84.5 -24t32.5 -62q0 -28 -15.5 -44t-35.5 -16q-18 0 -27 10t-9 23q0 40 43 49q-19 36 -73 36q-33 0 -72 -24t-70 -80q-19 -34 -33.5 -91
t-14.5 -94q0 -50 24 -78t64 -28q47 0 98.5 22.5t89.5 68.5q11 12 16 12t12.5 -7.5t7.5 -13.5zM564 665q0 -20 -22 -35l-169 -122q-10 -7 -14 -7q-7 0 -13 7.5t-6 13.5q0 7 11 18l154 143q14 13 28 13q12 0 21.5 -8t9.5 -23z" />
    <glyph glyph-name="Ccircumflex" unicode="&#x108;" horiz-adv-x="768" 
d="M794 437q-4 -14 -7.5 -17t-14.5 -3q-19 0 -19 13q0 1 1 8.5t2 20t1 23.5q0 82 -40 135.5t-115 53.5q-65 0 -132.5 -36t-117.5 -99q-56 -72 -82 -164t-26 -154q0 -102 55 -154t133 -52q35 0 73 13t77 39t72.5 72.5t52.5 106.5q2 10 18 10q19 0 19 -13q0 -4 -3.5 -16
t-13 -34.5t-23.5 -44.5q-46 -72 -122.5 -119t-160.5 -47q-114 0 -189.5 74.5t-75.5 198.5q0 113 64 218.5t166 169.5t209 64t165 -87l65 76q9 11 18 11q14 0 14 -12q0 -5 -3 -14zM746 753q7 -5 0.5 -13.5t-14.5 -4.5l-112 55l-140 -55q-10 -4 -12.5 4.5t5.5 13.5l156 98
q5 3 12 0z" />
    <glyph glyph-name="ccircumflex" unicode="&#x109;" horiz-adv-x="494" 
d="M502 100q0 -5 -9 -17t-29 -28t-45.5 -30.5t-63 -24.5t-78.5 -10q-72 0 -117 46.5t-45 122.5q0 109 83 195.5t182 86.5q52 0 84.5 -24t32.5 -62q0 -28 -15.5 -44t-35.5 -16q-18 0 -27 10t-9 23q0 40 43 49q-19 36 -73 36q-33 0 -72 -24t-70 -80q-19 -34 -33.5 -91
t-14.5 -94q0 -50 24 -78t64 -28q47 0 98.5 22.5t89.5 68.5q11 12 16 12t12.5 -7.5t7.5 -13.5zM543 534q6 -7 -3 -14.5t-15 -1.5l-98 99l-148 -99q-9 -6 -14 1t3 15l166 144q9 8 15 0z" />
    <glyph glyph-name="Cdotaccent" unicode="&#x10a;" horiz-adv-x="768" 
d="M794 437q-4 -14 -7.5 -17t-14.5 -3q-19 0 -19 13q0 1 1 8.5t2 20t1 23.5q0 82 -40 135.5t-115 53.5q-65 0 -132.5 -36t-117.5 -99q-56 -72 -82 -164t-26 -154q0 -102 55 -154t133 -52q35 0 73 13t77 39t72.5 72.5t52.5 106.5q2 10 18 10q19 0 19 -13q0 -4 -3.5 -16
t-13 -34.5t-23.5 -44.5q-46 -72 -122.5 -119t-160.5 -47q-114 0 -189.5 74.5t-75.5 198.5q0 113 64 218.5t166 169.5t209 64t165 -87l65 76q9 11 18 11q14 0 14 -12q0 -5 -3 -14zM681 820q0 -26 -21 -45.5t-46 -19.5q-19 0 -32.5 12.5t-13.5 33.5q0 25 20.5 45t46.5 20
q17 0 31.5 -11t14.5 -35z" />
    <glyph glyph-name="cdotaccent" unicode="&#x10b;" horiz-adv-x="494" 
d="M502 100q0 -5 -9 -17t-29 -28t-45.5 -30.5t-63 -24.5t-78.5 -10q-72 0 -117 46.5t-45 122.5q0 109 83 195.5t182 86.5q52 0 84.5 -24t32.5 -62q0 -28 -15.5 -44t-35.5 -16q-18 0 -27 10t-9 23q0 40 43 49q-19 36 -73 36q-33 0 -72 -24t-70 -80q-19 -34 -33.5 -91
t-14.5 -94q0 -50 24 -78t64 -28q47 0 98.5 22.5t89.5 68.5q11 12 16 12t12.5 -7.5t7.5 -13.5zM478 608q0 -26 -21 -45.5t-46 -19.5q-19 0 -32.5 12.5t-13.5 33.5q0 25 20.5 45t46.5 20q17 0 31.5 -11t14.5 -35z" />
    <glyph glyph-name="Ccaron" unicode="&#x10c;" horiz-adv-x="768" 
d="M794 437q-4 -14 -7.5 -17t-14.5 -3q-19 0 -19 13q0 1 1 8.5t2 20t1 23.5q0 82 -40 135.5t-115 53.5q-65 0 -132.5 -36t-117.5 -99q-56 -72 -82 -164t-26 -154q0 -102 55 -154t133 -52q35 0 73 13t77 39t72.5 72.5t52.5 106.5q2 10 18 10q19 0 19 -13q0 -4 -3.5 -16
t-13 -34.5t-23.5 -44.5q-46 -72 -122.5 -119t-160.5 -47q-114 0 -189.5 74.5t-75.5 198.5q0 113 64 218.5t166 169.5t209 64t165 -87l65 76q9 11 18 11q14 0 14 -12q0 -5 -3 -14zM767 834l-155 -98q-7 -3 -12 0l-106 98q-4 4 -2.5 9t7 8t10.5 1l111 -55l141 55q6 2 9.5 -1
t2.5 -8.5t-6 -8.5z" />
    <glyph glyph-name="ccaron" unicode="&#x10d;" horiz-adv-x="494" 
d="M502 100q0 -5 -9 -17t-29 -28t-45.5 -30.5t-63 -24.5t-78.5 -10q-72 0 -117 46.5t-45 122.5q0 109 83 195.5t182 86.5q52 0 84.5 -24t32.5 -62q0 -28 -15.5 -44t-35.5 -16q-18 0 -27 10t-9 23q0 40 43 49q-19 36 -73 36q-33 0 -72 -24t-70 -80q-19 -34 -33.5 -91
t-14.5 -94q0 -50 24 -78t64 -28q47 0 98.5 22.5t89.5 68.5q11 12 16 12t12.5 -7.5t7.5 -13.5zM576 663l-166 -144q-9 -7 -15 0l-94 144q-5 7 3.5 14.5t14.5 1.5l98 -99l148 99q9 6 14 -1.5t-3 -14.5z" />
    <glyph glyph-name="Dcaron" unicode="&#x10e;" horiz-adv-x="810" 
d="M822 432q0 -82 -34.5 -162t-90.5 -139t-128.5 -95t-145.5 -36h-319q-10 0 -15 0.5t-9 3.5t-4 10q0 13 7 16t26 3q44 0 56.5 8t19.5 35l134 537q4 14 4 22q0 15 -55 15q-11 0 -15.5 0.5t-9 3.5t-4.5 10q0 13 6.5 16t22.5 3h325q103 0 166 -70t63 -181zM739 466
q0 91 -50 137.5t-128 46.5h-115q-25 0 -33 -5t-14 -30l-138 -553q-3 -11 -4 -27q9 -2 28 -2h122q73 0 137 36.5t106 98.5t65.5 152.5t23.5 145.5zM686 834l-155 -98q-7 -3 -12 0l-106 98q-4 4 -2.5 9t7 8t10.5 1l111 -55l141 55q6 2 9.5 -1t2.5 -8.5t-6 -8.5z" />
    <glyph glyph-name="dcaron" unicode="&#x10f;" 
d="M575 143q-13 -60 -34 -100q-29 -53 -77 -53q-35 0 -59 19.5t-31 48.5q-60 -68 -129 -68q-57 0 -94.5 44.5t-37.5 115.5q0 107 75.5 199t163.5 92q58 0 92 -56l57 228q0 2 1 7t2 9t1 6q0 6 -1.5 8.5t-12.5 4.5t-34 2q-26 0 -26 14q0 8 4 12.5t8 5.5t13 2l104 9
q27 2 27 -13q0 -3 -3 -15l-143 -574q-3 -12 -3 -29q0 -44 28 -44q40 0 67 110q4 15 5.5 19t5 6.5t12.5 2.5q19 0 19 -13zM381 133l42 171l3 14q0 11 -4.5 30t-23 42t-46.5 23q-61 0 -112 -93q-18 -34 -36 -104.5t-18 -106.5t15 -63.5t47 -27.5q40 0 83 42t50 73zM705 647
q0 -42 -25 -87t-50.5 -70t-33.5 -25q-11 0 -11 12q0 4 7 9q69 56 88 133q-12 -8 -28 -8q-18 0 -26.5 10t-8.5 23q0 18 14.5 34t36.5 16q37 0 37 -47z" />
    <glyph glyph-name="Dcroat" unicode="&#x110;" horiz-adv-x="810" 
d="M822 432q0 -82 -34.5 -162t-90.5 -139t-128.5 -95t-145.5 -36h-319q-10 0 -15 0.5t-9 3.5t-4 10q0 13 7 16t26 3q44 0 56.5 8t19.5 35l62 250h-94q-6 0 -10 5t-2 11q4 16 20 16h94l64 255q4 14 4 22q0 15 -55 15q-11 0 -15.5 0.5t-9 3.5t-4.5 10q0 13 6.5 16t22.5 3h325
q103 0 166 -70t63 -181zM739 466q0 91 -50 137.5t-128 46.5h-115q-25 0 -33 -5t-14 -30l-64 -257h159q16 0 12 -16t-20 -16h-159l-66 -264q-3 -11 -4 -27q9 -2 28 -2h122q73 0 137 36.5t106 98.5t65.5 152.5t23.5 145.5z" />
    <glyph glyph-name="dcroat" unicode="&#x111;" 
d="M575 143q-13 -60 -34 -100q-29 -53 -77 -53q-35 0 -59 19.5t-31 48.5q-60 -68 -129 -68q-57 0 -94.5 44.5t-37.5 115.5q0 107 75.5 199t163.5 92q58 0 92 -56l36 146h-128q-6 0 -9.5 4.5t-2.5 11.5q2 6 8 11t12 5h128l13 50q0 2 1 7t2 9t1 6q0 6 -1.5 8.5t-12.5 4.5
t-34 2q-26 0 -26 14q0 8 4 12.5t8 5.5t13 2l104 9q27 2 27 -13q0 -3 -3 -15l-25 -102h51q7 0 10.5 -5t1.5 -11q-4 -16 -20 -16h-51l-110 -440q-3 -12 -3 -29q0 -44 28 -44q40 0 67 110q4 15 5.5 19t5 6.5t12.5 2.5q19 0 19 -13zM381 133l42 171l3 14q0 11 -4.5 30t-23 42
t-46.5 23q-61 0 -112 -93q-18 -34 -36 -104.5t-18 -106.5t15 -63.5t47 -27.5q40 0 83 42t50 73z" />
    <glyph glyph-name="Emacron" unicode="&#x112;" horiz-adv-x="727" 
d="M732 246q0 -7 -5 -17l-91 -211q-6 -13 -10.5 -15.5t-20.5 -2.5h-502q-10 0 -15 0.5t-9 3.5t-4 10q0 13 7 16t26 3q44 0 56.5 8t19.5 35l133 533q4 14 4 22q0 11 -13 13.5t-42 2.5q-12 0 -16.5 0.5t-8.5 4t-4 10.5q0 12 6.5 15t22.5 3h488q28 0 28 -14l-1 -14l-20 -175
q-1 -10 -2.5 -14t-5.5 -7t-12 -3q-19 0 -19 16q0 3 0.5 8t0.5 7q5 32 5 58q0 60 -29 82.5t-112 22.5h-140q-25 0 -33 -5t-14 -31l-60 -241h90q60 0 84 18t39 74q4 17 7.5 21t14.5 4q19 0 19 -15q0 -1 -4 -18l-53 -213q-3 -13 -6.5 -17t-14.5 -4q-19 0 -19 14q0 5 3 14
q7 28 7 47q0 22 -14.5 32t-63.5 10h-97l-69 -275q-3 -11 -4 -27q9 -2 28 -2h142q48 0 84 8.5t60 22.5t45.5 42t35.5 55.5t35 75.5q8 17 11 20t13 3q19 0 19 -14zM736 776q0 -10 -4.5 -15t-10 -6t-16.5 -1h-298q-10 0 -15 0.5t-9 3.5t-4 10q0 10 4.5 15t9.5 6t16 1h298
q29 0 29 -14z" />
    <glyph glyph-name="emacron" unicode="&#x113;" horiz-adv-x="494" 
d="M502 100q0 -5 -9 -17t-29 -28t-45.5 -30.5t-63 -24.5t-78.5 -10q-75 0 -116.5 53t-41.5 127q0 63 25 116.5t64.5 86t84 50.5t86.5 18q50 0 81 -24.5t31 -62.5q0 -30 -13.5 -53t-37.5 -36t-47 -21t-53.5 -11.5t-44.5 -4t-31 -0.5h-57q-14 -60 -14 -96q0 -44 19.5 -79
t65.5 -35q47 0 98.5 22.5t89.5 68.5q11 12 16 12t12.5 -7.5t7.5 -13.5zM447 354q0 28 -20 43.5t-48 15.5q-26 0 -55 -12t-61.5 -50t-47.5 -95h41q191 0 191 98zM576 603q0 -10 -4.5 -15t-10 -6t-16.5 -1h-298q-10 0 -15 0.5t-9 3.5t-4 10q0 10 4.5 15t9.5 6t16 1h298
q29 0 29 -14z" />
    <glyph glyph-name="Ebreve" unicode="&#x114;" horiz-adv-x="727" 
d="M732 246q0 -7 -5 -17l-91 -211q-6 -13 -10.5 -15.5t-20.5 -2.5h-502q-10 0 -15 0.5t-9 3.5t-4 10q0 13 7 16t26 3q44 0 56.5 8t19.5 35l133 533q4 14 4 22q0 11 -13 13.5t-42 2.5q-12 0 -16.5 0.5t-8.5 4t-4 10.5q0 12 6.5 15t22.5 3h488q28 0 28 -14l-1 -14l-20 -175
q-1 -10 -2.5 -14t-5.5 -7t-12 -3q-19 0 -19 16q0 3 0.5 8t0.5 7q5 32 5 58q0 60 -29 82.5t-112 22.5h-140q-25 0 -33 -5t-14 -31l-60 -241h90q60 0 84 18t39 74q4 17 7.5 21t14.5 4q19 0 19 -15q0 -1 -4 -18l-53 -213q-3 -13 -6.5 -17t-14.5 -4q-19 0 -19 14q0 5 3 14
q7 28 7 47q0 22 -14.5 32t-63.5 10h-97l-69 -275q-3 -11 -4 -27q9 -2 28 -2h142q48 0 84 8.5t60 22.5t45.5 42t35.5 55.5t35 75.5q8 17 11 20t13 3q19 0 19 -14zM740 905q0 -38 -55 -99.5t-132 -61.5q-55 0 -87 35t-32 88q0 52 19 52q14 0 14 -15l-2 -11q-2 -11 -2 -19
q0 -39 26 -63.5t68 -24.5q15 0 34 5t42.5 17t45 37.5t33.5 60.5q3 13 14 13q5 0 9.5 -4t4.5 -10z" />
    <glyph glyph-name="ebreve" unicode="&#x115;" horiz-adv-x="494" 
d="M502 100q0 -5 -9 -17t-29 -28t-45.5 -30.5t-63 -24.5t-78.5 -10q-75 0 -116.5 53t-41.5 127q0 63 25 116.5t64.5 86t84 50.5t86.5 18q50 0 81 -24.5t31 -62.5q0 -30 -13.5 -53t-37.5 -36t-47 -21t-53.5 -11.5t-44.5 -4t-31 -0.5h-57q-14 -60 -14 -96q0 -44 19.5 -79
t65.5 -35q47 0 98.5 22.5t89.5 68.5q11 12 16 12t12.5 -7.5t7.5 -13.5zM447 354q0 28 -20 43.5t-48 15.5q-26 0 -55 -12t-61.5 -50t-47.5 -95h41q191 0 191 98zM565 672q0 -38 -55 -99.5t-132 -61.5q-55 0 -87 35t-32 88q0 52 19 52q14 0 14 -15l-2 -11q-2 -11 -2 -19
q0 -39 26 -63.5t68 -24.5q15 0 34 5t42.5 17t45 37.5t33.5 60.5q3 13 14 13q5 0 9.5 -4t4.5 -10z" />
    <glyph glyph-name="Edotaccent" unicode="&#x116;" horiz-adv-x="727" 
d="M732 246q0 -7 -5 -17l-91 -211q-6 -13 -10.5 -15.5t-20.5 -2.5h-502q-10 0 -15 0.5t-9 3.5t-4 10q0 13 7 16t26 3q44 0 56.5 8t19.5 35l133 533q4 14 4 22q0 11 -13 13.5t-42 2.5q-12 0 -16.5 0.5t-8.5 4t-4 10.5q0 12 6.5 15t22.5 3h488q28 0 28 -14l-1 -14l-20 -175
q-1 -10 -2.5 -14t-5.5 -7t-12 -3q-19 0 -19 16q0 3 0.5 8t0.5 7q5 32 5 58q0 60 -29 82.5t-112 22.5h-140q-25 0 -33 -5t-14 -31l-60 -241h90q60 0 84 18t39 74q4 17 7.5 21t14.5 4q19 0 19 -15q0 -1 -4 -18l-53 -213q-3 -13 -6.5 -17t-14.5 -4q-19 0 -19 14q0 5 3 14
q7 28 7 47q0 22 -14.5 32t-63.5 10h-97l-69 -275q-3 -11 -4 -27q9 -2 28 -2h142q48 0 84 8.5t60 22.5t45.5 42t35.5 55.5t35 75.5q8 17 11 20t13 3q19 0 19 -14zM623 820q0 -26 -21 -45.5t-46 -19.5q-19 0 -32.5 12.5t-13.5 33.5q0 25 20.5 45t46.5 20q17 0 31.5 -11
t14.5 -35z" />
    <glyph glyph-name="edotaccent" unicode="&#x117;" horiz-adv-x="494" 
d="M502 100q0 -5 -9 -17t-29 -28t-45.5 -30.5t-63 -24.5t-78.5 -10q-75 0 -116.5 53t-41.5 127q0 63 25 116.5t64.5 86t84 50.5t86.5 18q50 0 81 -24.5t31 -62.5q0 -30 -13.5 -53t-37.5 -36t-47 -21t-53.5 -11.5t-44.5 -4t-31 -0.5h-57q-14 -60 -14 -96q0 -44 19.5 -79
t65.5 -35q47 0 98.5 22.5t89.5 68.5q11 12 16 12t12.5 -7.5t7.5 -13.5zM447 354q0 28 -20 43.5t-48 15.5q-26 0 -55 -12t-61.5 -50t-47.5 -95h41q191 0 191 98zM453 608q0 -26 -21 -45.5t-46 -19.5q-19 0 -32.5 12.5t-13.5 33.5q0 25 20.5 45t46.5 20q17 0 31.5 -11
t14.5 -35z" />
    <glyph glyph-name="Eogonek" unicode="&#x118;" horiz-adv-x="727" 
d="M732 246q0 -7 -5 -17l-91 -211q-6 -13 -10.5 -15.5t-20.5 -2.5h-80q-85 -51 -95 -95q-7 -32 17 -50.5t55 -18.5q52 0 89 56q5 8 12.5 5t3.5 -12q-21 -42 -61 -69t-78 -27q-47 0 -73 27t-18 63q16 75 108 121h-382q-10 0 -15 0.5t-9 3.5t-4 10q0 13 7 16t26 3q44 0 56.5 8
t19.5 35l133 533q4 14 4 22q0 11 -13 13.5t-42 2.5q-12 0 -16.5 0.5t-8.5 4t-4 10.5q0 12 6.5 15t22.5 3h488q28 0 28 -14l-1 -14l-20 -175q-1 -10 -2.5 -14t-5.5 -7t-12 -3q-19 0 -19 16q0 3 0.5 8t0.5 7q5 32 5 58q0 60 -29 82.5t-112 22.5h-140q-25 0 -33 -5t-14 -31
l-60 -241h90q60 0 84 18t39 74q4 17 7.5 21t14.5 4q19 0 19 -15q0 -1 -4 -18l-53 -213q-3 -13 -6.5 -17t-14.5 -4q-19 0 -19 14q0 5 3 14q7 28 7 47q0 22 -14.5 32t-63.5 10h-97l-69 -275q-3 -11 -4 -27q9 -2 28 -2h142q48 0 84 8.5t60 22.5t45.5 42t35.5 55.5t35 75.5
q8 17 11 20t13 3q19 0 19 -14z" />
    <glyph glyph-name="eogonek" unicode="&#x119;" horiz-adv-x="494" 
d="M502 100q0 -7 -14.5 -24t-48.5 -39t-74 -34q-84 -51 -95 -98q-7 -32 17 -50.5t55 -18.5q52 0 89 56q5 8 12.5 5t3.5 -12q-21 -42 -61 -69t-78 -27q-47 0 -73 27t-18 63q13 62 92 113q-20 -2 -32 -2q-75 0 -116.5 53t-41.5 127q0 63 25 116.5t64.5 86t84 50.5t86.5 18
q50 0 81 -24.5t31 -62.5q0 -30 -13.5 -53t-37.5 -36t-47 -21t-53.5 -11.5t-44.5 -4t-31 -0.5h-57q-14 -60 -14 -96q0 -44 19.5 -79t65.5 -35q47 0 98.5 22.5t89.5 68.5q11 12 16 12t12.5 -7.5t7.5 -13.5zM447 354q0 28 -20 43.5t-48 15.5q-26 0 -55 -12t-61.5 -50t-47.5 -95
h41q191 0 191 98z" />
    <glyph glyph-name="Ecaron" unicode="&#x11a;" horiz-adv-x="727" 
d="M732 246q0 -7 -5 -17l-91 -211q-6 -13 -10.5 -15.5t-20.5 -2.5h-502q-10 0 -15 0.5t-9 3.5t-4 10q0 13 7 16t26 3q44 0 56.5 8t19.5 35l133 533q4 14 4 22q0 11 -13 13.5t-42 2.5q-12 0 -16.5 0.5t-8.5 4t-4 10.5q0 12 6.5 15t22.5 3h488q28 0 28 -14l-1 -14l-20 -175
q-1 -10 -2.5 -14t-5.5 -7t-12 -3q-19 0 -19 16q0 3 0.5 8t0.5 7q5 32 5 58q0 60 -29 82.5t-112 22.5h-140q-25 0 -33 -5t-14 -31l-60 -241h90q60 0 84 18t39 74q4 17 7.5 21t14.5 4q19 0 19 -15q0 -1 -4 -18l-53 -213q-3 -13 -6.5 -17t-14.5 -4q-19 0 -19 14q0 5 3 14
q7 28 7 47q0 22 -14.5 32t-63.5 10h-97l-69 -275q-3 -11 -4 -27q9 -2 28 -2h142q48 0 84 8.5t60 22.5t45.5 42t35.5 55.5t35 75.5q8 17 11 20t13 3q19 0 19 -14zM709 834l-155 -98q-7 -3 -12 0l-106 98q-4 4 -2.5 9t7 8t10.5 1l111 -55l141 55q6 2 9.5 -1t2.5 -8.5t-6 -8.5z
" />
    <glyph glyph-name="ecaron" unicode="&#x11b;" horiz-adv-x="494" 
d="M502 100q0 -5 -9 -17t-29 -28t-45.5 -30.5t-63 -24.5t-78.5 -10q-75 0 -116.5 53t-41.5 127q0 63 25 116.5t64.5 86t84 50.5t86.5 18q50 0 81 -24.5t31 -62.5q0 -30 -13.5 -53t-37.5 -36t-47 -21t-53.5 -11.5t-44.5 -4t-31 -0.5h-57q-14 -60 -14 -96q0 -44 19.5 -79
t65.5 -35q47 0 98.5 22.5t89.5 68.5q11 12 16 12t12.5 -7.5t7.5 -13.5zM447 354q0 28 -20 43.5t-48 15.5q-26 0 -55 -12t-61.5 -50t-47.5 -95h41q191 0 191 98zM551 663l-166 -144q-9 -7 -15 0l-94 144q-5 7 3.5 14.5t14.5 1.5l98 -99l148 99q9 6 14 -1.5t-3 -14.5z" />
    <glyph glyph-name="Gcircumflex" unicode="&#x11c;" horiz-adv-x="830" 
d="M818 262q0 -19 -18 -19q-46 0 -55 -14q-6 -10 -23 -78q-1 -5 -10 -42t-17 -68t-10 -34q-1 -3 -3.5 -5t-4.5 -2h-2q-9 0 -21 19.5t-18 35.5q-77 -76 -213 -76q-118 0 -192.5 75.5t-74.5 197.5q0 113 64 218.5t166 169.5t209 64t165 -87l65 76q9 11 18 11q14 0 14 -12
q0 -5 -3 -14l-60 -241q-4 -14 -7.5 -17t-14.5 -3q-19 0 -19 13q0 1 1 8.5t2 20t1 23.5q0 82 -40 135.5t-115 53.5q-65 0 -132.5 -36t-117.5 -99q-55 -71 -81.5 -163t-26.5 -154q0 -100 55.5 -153.5t138.5 -53.5q54 0 108.5 22t78.5 68q5 11 18 63t13 58q0 10 -5 13t-24 5
l-46 2h-10q-10 0 -15 0.5t-9 3.5t-4 10q0 19 22 19q21 0 65.5 -1.5t66.5 -1.5q32 0 54.5 0.5t30.5 1t13.5 1t7.5 0.5q15 0 15 -14zM739 753q7 -5 0.5 -13.5t-14.5 -4.5l-112 55l-140 -55q-10 -4 -12.5 4.5t5.5 13.5l156 98q5 3 12 0z" />
    <glyph glyph-name="gcircumflex" unicode="&#x11d;" horiz-adv-x="494" 
d="M511 373l-110 -439q-14 -55 -70 -96.5t-144 -41.5q-58 0 -92.5 11.5t-34.5 46.5q0 24 15 39t35 15q16 0 26 -9.5t10 -24.5q-2 -28 -25 -42q27 -8 68 -8q62 0 104 44q14 15 23 31.5t12.5 28.5t10.5 38l21 84q-58 -50 -112 -50q-56 0 -94.5 42.5t-38.5 115.5
q0 106 75 194.5t162 88.5q61 0 91 -54q4 15 15.5 25t26.5 10q13 0 21.5 -8t8.5 -20q0 -1 -4 -21zM383 141l41 165q3 14 3 15q0 11 -5 30t-23.5 40.5t-46.5 21.5q-29 0 -61 -26.5t-55 -72.5q-17 -35 -32.5 -99t-15.5 -97q0 -38 16 -64t46 -26q40 0 82.5 40.5t50.5 72.5z
M533 534q6 -7 -3 -14.5t-15 -1.5l-98 99l-148 -99q-9 -6 -14 1t3 15l166 144q9 8 15 0z" />
    <glyph glyph-name="Gbreve" unicode="&#x11e;" horiz-adv-x="830" 
d="M818 262q0 -19 -18 -19q-46 0 -55 -14q-6 -10 -23 -78q-1 -5 -10 -42t-17 -68t-10 -34q-1 -3 -3.5 -5t-4.5 -2h-2q-9 0 -21 19.5t-18 35.5q-77 -76 -213 -76q-118 0 -192.5 75.5t-74.5 197.5q0 113 64 218.5t166 169.5t209 64t165 -87l65 76q9 11 18 11q14 0 14 -12
q0 -5 -3 -14l-60 -241q-4 -14 -7.5 -17t-14.5 -3q-19 0 -19 13q0 1 1 8.5t2 20t1 23.5q0 82 -40 135.5t-115 53.5q-65 0 -132.5 -36t-117.5 -99q-55 -71 -81.5 -163t-26.5 -154q0 -100 55.5 -153.5t138.5 -53.5q54 0 108.5 22t78.5 68q5 11 18 63t13 58q0 10 -5 13t-24 5
l-46 2h-10q-10 0 -15 0.5t-9 3.5t-4 10q0 19 22 19q21 0 65.5 -1.5t66.5 -1.5q32 0 54.5 0.5t30.5 1t13.5 1t7.5 0.5q15 0 15 -14zM791 905q0 -38 -55 -99.5t-132 -61.5q-55 0 -87 35t-32 88q0 52 19 52q14 0 14 -15l-2 -11q-2 -11 -2 -19q0 -39 26 -63.5t68 -24.5
q15 0 34 5t42.5 17t45 37.5t33.5 60.5q3 13 14 13q5 0 9.5 -4t4.5 -10z" />
    <glyph glyph-name="gbreve" unicode="&#x11f;" horiz-adv-x="494" 
d="M511 373l-110 -439q-14 -55 -70 -96.5t-144 -41.5q-58 0 -92.5 11.5t-34.5 46.5q0 24 15 39t35 15q16 0 26 -9.5t10 -24.5q-2 -28 -25 -42q27 -8 68 -8q62 0 104 44q14 15 23 31.5t12.5 28.5t10.5 38l21 84q-58 -50 -112 -50q-56 0 -94.5 42.5t-38.5 115.5
q0 106 75 194.5t162 88.5q61 0 91 -54q4 15 15.5 25t26.5 10q13 0 21.5 -8t8.5 -20q0 -1 -4 -21zM383 141l41 165q3 14 3 15q0 11 -5 30t-23.5 40.5t-46.5 21.5q-29 0 -61 -26.5t-55 -72.5q-17 -35 -32.5 -99t-15.5 -97q0 -38 16 -64t46 -26q40 0 82.5 40.5t50.5 72.5z
M580 672q0 -38 -55 -99.5t-132 -61.5q-55 0 -87 35t-32 88q0 52 19 52q14 0 14 -15l-2 -11q-2 -11 -2 -19q0 -39 26 -63.5t68 -24.5q15 0 34 5t42.5 17t45 37.5t33.5 60.5q3 13 14 13q5 0 9.5 -4t4.5 -10z" />
    <glyph glyph-name="Gdotaccent" unicode="&#x120;" horiz-adv-x="830" 
d="M818 262q0 -19 -18 -19q-46 0 -55 -14q-6 -10 -23 -78q-1 -5 -10 -42t-17 -68t-10 -34q-1 -3 -3.5 -5t-4.5 -2h-2q-9 0 -21 19.5t-18 35.5q-77 -76 -213 -76q-118 0 -192.5 75.5t-74.5 197.5q0 113 64 218.5t166 169.5t209 64t165 -87l65 76q9 11 18 11q14 0 14 -12
q0 -5 -3 -14l-60 -241q-4 -14 -7.5 -17t-14.5 -3q-19 0 -19 13q0 1 1 8.5t2 20t1 23.5q0 82 -40 135.5t-115 53.5q-65 0 -132.5 -36t-117.5 -99q-55 -71 -81.5 -163t-26.5 -154q0 -100 55.5 -153.5t138.5 -53.5q54 0 108.5 22t78.5 68q5 11 18 63t13 58q0 10 -5 13t-24 5
l-46 2h-10q-10 0 -15 0.5t-9 3.5t-4 10q0 19 22 19q21 0 65.5 -1.5t66.5 -1.5q32 0 54.5 0.5t30.5 1t13.5 1t7.5 0.5q15 0 15 -14zM674 820q0 -26 -21 -45.5t-46 -19.5q-19 0 -32.5 12.5t-13.5 33.5q0 25 20.5 45t46.5 20q17 0 31.5 -11t14.5 -35z" />
    <glyph glyph-name="gdotaccent" unicode="&#x121;" horiz-adv-x="494" 
d="M511 373l-110 -439q-14 -55 -70 -96.5t-144 -41.5q-58 0 -92.5 11.5t-34.5 46.5q0 24 15 39t35 15q16 0 26 -9.5t10 -24.5q-2 -28 -25 -42q27 -8 68 -8q62 0 104 44q14 15 23 31.5t12.5 28.5t10.5 38l21 84q-58 -50 -112 -50q-56 0 -94.5 42.5t-38.5 115.5
q0 106 75 194.5t162 88.5q61 0 91 -54q4 15 15.5 25t26.5 10q13 0 21.5 -8t8.5 -20q0 -1 -4 -21zM383 141l41 165q3 14 3 15q0 11 -5 30t-23.5 40.5t-46.5 21.5q-29 0 -61 -26.5t-55 -72.5q-17 -35 -32.5 -99t-15.5 -97q0 -38 16 -64t46 -26q40 0 82.5 40.5t50.5 72.5z
M468 608q0 -26 -21 -45.5t-46 -19.5q-19 0 -32.5 12.5t-13.5 33.5q0 25 20.5 45t46.5 20q17 0 31.5 -11t14.5 -35z" />
    <glyph glyph-name="Gcommaaccent" unicode="&#x122;" horiz-adv-x="830" 
d="M818 262q0 -19 -18 -19q-46 0 -55 -14q-6 -10 -23 -78q-1 -5 -10 -42t-17 -68t-10 -34q-1 -3 -3.5 -5t-4.5 -2h-2q-9 0 -21 19.5t-18 35.5q-77 -76 -213 -76q-118 0 -192.5 75.5t-74.5 197.5q0 113 64 218.5t166 169.5t209 64t165 -87l65 76q9 11 18 11q14 0 14 -12
q0 -5 -3 -14l-60 -241q-4 -14 -7.5 -17t-14.5 -3q-19 0 -19 13q0 1 1 8.5t2 20t1 23.5q0 82 -40 135.5t-115 53.5q-65 0 -132.5 -36t-117.5 -99q-55 -71 -81.5 -163t-26.5 -154q0 -100 55.5 -153.5t138.5 -53.5q54 0 108.5 22t78.5 68q5 11 18 63t13 58q0 10 -5 13t-24 5
l-46 2h-10q-10 0 -15 0.5t-9 3.5t-4 10q0 19 22 19q21 0 65.5 -1.5t66.5 -1.5q32 0 54.5 0.5t30.5 1t13.5 1t7.5 0.5q15 0 15 -14zM430 -110q0 -42 -25 -87t-50.5 -70t-33.5 -25q-11 0 -11 12q0 4 7 9q69 56 88 133q-12 -8 -28 -8q-18 0 -26.5 10t-8.5 23q0 18 14.5 34
t36.5 16q37 0 37 -47z" />
    <glyph glyph-name="gcommaaccent" unicode="&#x123;" horiz-adv-x="494" 
d="M446 556q0 -18 -14.5 -34t-36.5 -16q-37 0 -37 47q0 42 25 87t50.5 70t33.5 25q11 0 11 -12q0 -4 -7 -9q-69 -56 -88 -133q12 8 28 8q18 0 26.5 -10t8.5 -23zM511 373l-110 -439q-14 -55 -70 -96.5t-144 -41.5q-58 0 -92.5 11.5t-34.5 46.5q0 24 15 39t35 15
q16 0 26 -9.5t10 -24.5q-2 -28 -25 -42q27 -8 68 -8q62 0 104 44q14 15 23 31.5t12.5 28.5t10.5 38l21 84q-58 -50 -112 -50q-56 0 -94.5 42.5t-38.5 115.5q0 106 75 194.5t162 88.5q61 0 91 -54q4 15 15.5 25t26.5 10q13 0 21.5 -8t8.5 -20q0 -1 -4 -21zM383 141l41 165
q3 14 3 15q0 11 -5 30t-23.5 40.5t-46.5 21.5q-29 0 -61 -26.5t-55 -72.5q-17 -35 -32.5 -99t-15.5 -97q0 -38 16 -64t46 -26q40 0 82.5 40.5t50.5 72.5z" />
    <glyph glyph-name="Hcircumflex" unicode="&#x124;" horiz-adv-x="797" 
d="M891 669q0 -13 -7 -16t-24 -3q-46 0 -58.5 -8t-20.5 -38l-133 -532q-4 -14 -4 -23q0 -11 13 -13.5t42 -2.5q11 0 15.5 -0.5t9 -3.5t4.5 -10q0 -19 -20 -19q-1 0 -6 0.5t-13.5 1t-21 0.5t-33 0.5t-44.5 0.5h-60q-24 -3 -57 -3q-15 0 -15 14q0 13 6.5 16t20.5 3
q49 0 62 7.5t20 35.5l65 263h-300l-67 -268l-4 -22q0 -11 13 -13.5t42 -2.5q11 0 15.5 -0.5t9 -3.5t4.5 -10q0 -19 -20 -19q-1 0 -6 0.5t-13.5 1t-21 0.5t-33 0.5t-44.5 0.5h-60q-24 -3 -57 -3q-15 0 -15 14q0 13 7 16t26 3q44 0 56.5 8t19.5 35l134 537q4 14 4 22
q0 15 -55 15q-11 0 -15.5 0.5t-9 3.5t-4.5 10q0 19 20 19l58 -3h119q54 3 57 3q16 0 16 -14q0 -13 -7 -16t-26 -3q-44 0 -57 -8t-19 -35l-58 -235h300l60 242q0 1 2 9t2 12q0 15 -55 15q-30 0 -30 14q0 19 21 19l58 -3h119q54 3 57 3q16 0 16 -14zM722 753q7 -5 0.5 -13.5
t-14.5 -4.5l-112 55l-140 -55q-10 -4 -12.5 4.5t5.5 13.5l156 98q5 3 12 0z" />
    <glyph glyph-name="hcircumflex" unicode="&#x125;" 
d="M575 143q0 -8 -8.5 -30.5t-24 -51t-43.5 -50t-61 -21.5q-37 0 -60.5 24t-23.5 59q0 19 13 52q61 164 61 222q0 66 -51 66q-37 0 -70 -20t-53 -48.5t-31 -50.5t-14 -35q-3 -11 -8 -32.5t-8 -32.5q-45 -177 -46 -179q-9 -25 -36 -25q-15 0 -23 8.5t-8 20.5q0 3 3 15
l145 579q0 2 1 7t2 9t1 6q0 6 -1.5 8.5t-12.5 4.5t-34 2q-26 0 -26 14q0 8 4 12.5t8 5.5t13 2l104 9q27 2 27 -13q0 -3 -3 -15l-73 -291q64 67 142 67q48 0 81 -24.5t33 -83.5q0 -57 -61 -219q-15 -43 -15 -64q0 -32 22 -32q31 0 55.5 32.5t38.5 84.5q4 14 7.5 17.5
t14.5 3.5q19 0 19 -13zM601 764q7 -5 0.5 -13.5t-14.5 -4.5l-112 55l-140 -55q-10 -4 -12.5 4.5t5.5 13.5l156 98q5 3 12 0z" />
    <glyph glyph-name="Hbar" unicode="&#x126;" horiz-adv-x="797" 
d="M891 669q0 -13 -7 -16t-24 -3q-46 0 -58.5 -8t-20.5 -38l-19 -75h76q7 0 10.5 -5t1.5 -11q-4 -16 -20 -16h-76l-106 -425q-4 -14 -4 -23q0 -11 13 -13.5t42 -2.5q11 0 15.5 -0.5t9 -3.5t4.5 -10q0 -19 -20 -19q-1 0 -6 0.5t-13.5 1t-21 0.5t-33 0.5t-44.5 0.5h-60
q-24 -3 -57 -3q-15 0 -15 14q0 13 6.5 16t20.5 3q49 0 62 7.5t20 35.5l65 263h-300l-67 -268l-4 -22q0 -11 13 -13.5t42 -2.5q11 0 15.5 -0.5t9 -3.5t4.5 -10q0 -19 -20 -19q-1 0 -6 0.5t-13.5 1t-21 0.5t-33 0.5t-44.5 0.5h-60q-24 -3 -57 -3q-15 0 -15 14q0 13 7 16t26 3
q44 0 56.5 8t19.5 35l105 421h-76q-6 0 -9.5 4.5t-2.5 11.5q1 6 7.5 11t12.5 5h76l21 84q4 14 4 22q0 15 -55 15q-11 0 -15.5 0.5t-9 3.5t-4.5 10q0 19 20 19l58 -3h119q54 3 57 3q16 0 16 -14q0 -13 -7 -16t-26 -3q-44 0 -57 -8t-19 -35l-19 -78h300l21 85q0 1 2 9t2 12
q0 15 -55 15q-30 0 -30 14q0 19 21 19l58 -3h119q54 3 57 3q16 0 16 -14zM641 372l31 125h-300l-31 -125h300z" />
    <glyph glyph-name="hbar" unicode="&#x127;" 
d="M575 143q0 -8 -8.5 -30.5t-24 -51t-43.5 -50t-61 -21.5q-37 0 -60.5 24t-23.5 59q0 19 13 52q61 164 61 222q0 66 -51 66q-37 0 -70 -20t-53 -48.5t-31 -50.5t-14 -35q-3 -11 -8 -32.5t-8 -32.5q-45 -177 -46 -179q-9 -25 -36 -25q-15 0 -23 8.5t-8 20.5q0 3 3 15
l124 497h-48q-16 0 -12 16t20 16h48l13 50q0 2 1 7t2 9t1 6q0 6 -1.5 8.5t-12.5 4.5t-34 2q-26 0 -26 14q0 8 4 12.5t8 5.5t13 2l104 9q27 2 27 -13q0 -3 -3 -15l-26 -102h130q7 0 10.5 -5t1.5 -11q-4 -16 -20 -16h-130l-39 -157q64 67 142 67q48 0 81 -24.5t33 -83.5
q0 -57 -61 -219q-15 -43 -15 -64q0 -32 22 -32q31 0 55.5 32.5t38.5 84.5q4 14 7.5 17.5t14.5 3.5q19 0 19 -13z" />
    <glyph glyph-name="Itilde" unicode="&#x128;" horiz-adv-x="413" 
d="M350 19q0 -19 -21 -19q-22 0 -58 3h-128q-48 -3 -57 -3q-16 0 -16 14q0 13 7 16t23 3q50 0 63.5 7.5t20.5 36.5l135 540q3 12 3 18q0 15 -59 15q-17 0 -23.5 2t-6.5 12q0 19 20 19q1 0 13 -0.5t41 -1.5t69 -1h64q36 3 57 3q6 0 10 -3.5t5 -7.5v-3q0 -13 -7 -16t-25 -3
q-49 0 -62 -8t-19 -35l-134 -536q-4 -14 -4 -22q0 -16 59 -16q11 0 16 -0.5t9.5 -3.5t4.5 -10zM578 828q0 -11 -54 -53q-47 -41 -83 -41q-30 0 -54 38q-12 19 -18.5 24t-16.5 5q-29 0 -95 -59q-8 -8 -14 -8q-13 0 -13 14q0 11 53 53q51 41 83 41q20 0 32 -10.5t27 -33.5
t30 -23q26 0 92 56q11 11 17 11q14 0 14 -14z" />
    <glyph glyph-name="itilde" unicode="&#x129;" horiz-adv-x="329" 
d="M355 143q0 -7 -8.5 -29.5t-23.5 -51t-43 -50.5t-61 -22q-37 0 -60.5 24t-23.5 59q0 19 11 46l70 186q20 54 20 77q0 31 -22 31q-33 0 -56.5 -34.5t-37.5 -82.5q-3 -14 -6 -17.5t-15 -3.5q-19 0 -19 13q0 12 13 45.5t46.5 70.5t76.5 37q34 0 58.5 -22t24.5 -61
q0 -19 -12 -52l-66 -174q-22 -58 -22 -82q0 -32 22 -32q30 0 54.5 32.5t38.5 84.5q4 14 7.5 17.5t14.5 3.5q19 0 19 -13zM489 639q0 -11 -54 -53q-47 -41 -83 -41q-30 0 -54 38q-12 19 -18.5 24t-16.5 5q-29 0 -95 -59q-8 -8 -14 -8q-13 0 -13 14q0 11 53 53q51 41 83 41
q20 0 32 -10.5t27 -33.5t30 -23q26 0 92 56q11 11 17 11q14 0 14 -14z" />
    <glyph glyph-name="Imacron" unicode="&#x12a;" horiz-adv-x="413" 
d="M350 19q0 -19 -21 -19q-22 0 -58 3h-128q-48 -3 -57 -3q-16 0 -16 14q0 13 7 16t23 3q50 0 63.5 7.5t20.5 36.5l135 540q3 12 3 18q0 15 -59 15q-17 0 -23.5 2t-6.5 12q0 19 20 19q1 0 13 -0.5t41 -1.5t69 -1h64q36 3 57 3q6 0 10 -3.5t5 -7.5v-3q0 -13 -7 -16t-25 -3
q-49 0 -62 -8t-19 -35l-134 -536q-4 -14 -4 -22q0 -16 59 -16q11 0 16 -0.5t9.5 -3.5t4.5 -10zM578 776q0 -10 -4.5 -15t-10 -6t-16.5 -1h-298q-10 0 -15 0.5t-9 3.5t-4 10q0 10 4.5 15t9.5 6t16 1h298q29 0 29 -14z" />
    <glyph glyph-name="imacron" unicode="&#x12b;" horiz-adv-x="329" 
d="M355 143q0 -7 -8.5 -29.5t-23.5 -51t-43 -50.5t-61 -22q-37 0 -60.5 24t-23.5 59q0 19 11 46l70 186q20 54 20 77q0 31 -22 31q-33 0 -56.5 -34.5t-37.5 -82.5q-3 -14 -6 -17.5t-15 -3.5q-19 0 -19 13q0 12 13 45.5t46.5 70.5t76.5 37q34 0 58.5 -22t24.5 -61
q0 -19 -12 -52l-66 -174q-22 -58 -22 -82q0 -32 22 -32q30 0 54.5 32.5t38.5 84.5q4 14 7.5 17.5t14.5 3.5q19 0 19 -13zM493 603q0 -10 -4.5 -15t-10 -6t-16.5 -1h-298q-10 0 -15 0.5t-9 3.5t-4 10q0 10 4.5 15t9.5 6t16 1h298q29 0 29 -14z" />
    <glyph glyph-name="Ibreve" unicode="&#x12c;" horiz-adv-x="413" 
d="M350 19q0 -19 -21 -19q-22 0 -58 3h-128q-48 -3 -57 -3q-16 0 -16 14q0 13 7 16t23 3q50 0 63.5 7.5t20.5 36.5l135 540q3 12 3 18q0 15 -59 15q-17 0 -23.5 2t-6.5 12q0 19 20 19q1 0 13 -0.5t41 -1.5t69 -1h64q36 3 57 3q6 0 10 -3.5t5 -7.5v-3q0 -13 -7 -16t-25 -3
q-49 0 -62 -8t-19 -35l-134 -536q-4 -14 -4 -22q0 -16 59 -16q11 0 16 -0.5t9.5 -3.5t4.5 -10zM582 905q0 -38 -55 -99.5t-132 -61.5q-55 0 -87 35t-32 88q0 52 19 52q14 0 14 -15l-2 -11q-2 -11 -2 -19q0 -39 26 -63.5t68 -24.5q15 0 34 5t42.5 17t45 37.5t33.5 60.5
q3 13 14 13q5 0 9.5 -4t4.5 -10z" />
    <glyph glyph-name="ibreve" unicode="&#x12d;" horiz-adv-x="329" 
d="M355 143q0 -7 -8.5 -29.5t-23.5 -51t-43 -50.5t-61 -22q-37 0 -60.5 24t-23.5 59q0 19 11 46l70 186q20 54 20 77q0 31 -22 31q-33 0 -56.5 -34.5t-37.5 -82.5q-3 -14 -6 -17.5t-15 -3.5q-19 0 -19 13q0 12 13 45.5t46.5 70.5t76.5 37q34 0 58.5 -22t24.5 -61
q0 -19 -12 -52l-66 -174q-22 -58 -22 -82q0 -32 22 -32q30 0 54.5 32.5t38.5 84.5q4 14 7.5 17.5t14.5 3.5q19 0 19 -13zM482 672q0 -38 -55 -99.5t-132 -61.5q-55 0 -87 35t-32 88q0 52 19 52q14 0 14 -15l-2 -11q-2 -11 -2 -19q0 -39 26 -63.5t68 -24.5q15 0 34 5t42.5 17
t45 37.5t33.5 60.5q3 13 14 13q5 0 9.5 -4t4.5 -10z" />
    <glyph glyph-name="Iogonek" unicode="&#x12e;" horiz-adv-x="413" 
d="M317 -115q-21 -42 -61 -69t-78 -27q-47 0 -73 27t-18 63q15 64 108 124h-52q-48 -3 -57 -3q-16 0 -16 14q0 13 7 16t23 3q50 0 63.5 7.5t20.5 36.5l135 540q3 12 3 18q0 15 -59 15q-17 0 -23.5 2t-6.5 12q0 19 20 19q1 0 13 -0.5t41 -1.5t69 -1h64q36 3 57 3q6 0 10 -3.5
t5 -7.5v-3q0 -13 -7 -16t-25 -3q-49 0 -62 -8t-19 -35l-134 -536q-4 -14 -4 -22q0 -16 59 -16q11 0 16 -0.5t9.5 -3.5t4.5 -10q0 -19 -21 -19q-22 0 -58 3h-37l-41 -28q-44 -33 -53 -70q-7 -32 17 -50.5t55 -18.5q52 0 89 56q5 8 12.5 5t3.5 -12z" />
    <glyph glyph-name="iogonek" unicode="&#x12f;" horiz-adv-x="329" 
d="M337 623q0 -20 -15.5 -34t-33.5 -14q-15 0 -25 9t-10 26q0 20 15.5 34t33.5 14q14 0 24.5 -9t10.5 -26zM309 -115q-21 -42 -61 -69t-78 -27q-47 0 -73 27t-18 63q14 63 101 119q-45 22 -45 75q0 19 11 46l70 186q20 54 20 77q0 31 -22 31q-33 0 -56.5 -34.5t-37.5 -82.5
q-3 -14 -6 -17.5t-15 -3.5q-19 0 -19 13q0 12 13 45.5t46.5 70.5t76.5 37q34 0 58.5 -22t24.5 -61q0 -19 -12 -52l-66 -174q-22 -58 -22 -82q0 -32 22 -32q30 0 54.5 32.5t38.5 84.5q4 14 7.5 17.5t14.5 3.5q19 0 19 -13q0 -7 -8.5 -29.5t-23.5 -51t-43 -50.5t-61 -22
q-8 0 -12 1l-22 -16q-45 -33 -53 -70q-7 -32 17 -50.5t55 -18.5q52 0 89 56q5 8 12.5 5t3.5 -12z" />
    <glyph glyph-name="Idotaccent" unicode="&#x130;" horiz-adv-x="413" 
d="M350 19q0 -19 -21 -19q-22 0 -58 3h-128q-48 -3 -57 -3q-16 0 -16 14q0 13 7 16t23 3q50 0 63.5 7.5t20.5 36.5l135 540q3 12 3 18q0 15 -59 15q-17 0 -23.5 2t-6.5 12q0 19 20 19q1 0 13 -0.5t41 -1.5t69 -1h64q36 3 57 3q6 0 10 -3.5t5 -7.5v-3q0 -13 -7 -16t-25 -3
q-49 0 -62 -8t-19 -35l-134 -536q-4 -14 -4 -22q0 -16 59 -16q11 0 16 -0.5t9.5 -3.5t4.5 -10zM465 820q0 -26 -21 -45.5t-46 -19.5q-19 0 -32.5 12.5t-13.5 33.5q0 25 20.5 45t46.5 20q17 0 31.5 -11t14.5 -35z" />
    <glyph glyph-name="dotlessi" unicode="&#x131;" horiz-adv-x="329" 
d="M355 143q0 -7 -8.5 -29.5t-23.5 -51t-43 -50.5t-61 -22q-37 0 -60.5 24t-23.5 59q0 19 11 46l70 186q20 54 20 77q0 31 -22 31q-33 0 -56.5 -34.5t-37.5 -82.5q-3 -14 -6 -17.5t-15 -3.5q-19 0 -19 13q0 12 13 45.5t46.5 70.5t76.5 37q34 0 58.5 -22t24.5 -61
q0 -19 -12 -52l-66 -174q-22 -58 -22 -82q0 -32 22 -32q30 0 54.5 32.5t38.5 84.5q4 14 7.5 17.5t14.5 3.5q19 0 19 -13z" />
    <glyph glyph-name="Jcircumflex" unicode="&#x134;" horiz-adv-x="563" 
d="M647 669q0 -13 -6.5 -16t-20.5 -3q-32 0 -41.5 -7.5t-16.5 -34.5l-117 -471q-15 -60 -76 -109t-134 -49q-57 0 -92.5 30.5t-35.5 78.5q0 31 14 49t25 21.5t20 3.5q19 0 30.5 -11t11.5 -28q0 -8 -3.5 -19.5t-18.5 -24.5t-39 -13q9 -31 34 -45t51 -14q42 0 81.5 41.5
t54.5 100.5l116 465q3 11 3 17t-3.5 9.5t-8.5 4.5t-19 3q-18 2 -43 2h-9q-29 0 -29 14q0 19 22 19q21 0 64.5 -1.5t65.5 -1.5q40 0 64 1t32.5 1.5t9.5 0.5q14 0 14 -14zM668 753q7 -5 0.5 -13.5t-14.5 -4.5l-112 55l-140 -55q-10 -4 -12.5 4.5t5.5 13.5l156 98q5 3 12 0z
" />
    <glyph glyph-name="jcircumflex" unicode="&#x135;" horiz-adv-x="329" 
d="M241 -52q-15 -62 -67 -107t-114 -45q-42 0 -68.5 15.5t-26.5 43.5q0 22 15 37.5t35 15.5q16 0 26 -9.5t10 -24.5q-1 -29 -27 -43q17 -7 36 -7q44 0 72.5 42t38.5 83l97 393q3 15 3 27q0 44 -30 44q-29 0 -61.5 -28t-59.5 -94q-4 -11 -7 -13.5t-14 -2.5q-19 0 -19 12
q0 7 11.5 30t30.5 51.5t52.5 50.5t69.5 22q40 0 66.5 -25.5t26.5 -66.5q0 -15 -5 -35zM435 534q6 -7 -3 -14.5t-15 -1.5l-98 99l-148 -99q-9 -6 -14 1t3 15l166 144q9 8 15 0z" />
    <glyph glyph-name="Kcommaaccent" unicode="&#x136;" horiz-adv-x="824" 
d="M759 19q0 -19 -19 -19q-3 0 -9 1t-26 1.5t-57 0.5q-18 0 -53.5 -1.5t-52.5 -1.5q-15 0 -15 14q0 19 24 19q43 2 43 29q0 7 -6 19l-124 282l-156 -122l-38 -151q-1 -5 -3.5 -15t-4 -17t-1.5 -9q0 -11 13 -13.5t42 -2.5q11 0 15.5 -0.5t9 -3.5t4.5 -10q0 -19 -20 -19
q-1 0 -6 0.5t-13.5 1t-21 0.5t-33 0.5t-44.5 0.5h-60q-24 -3 -57 -3q-15 0 -15 14q0 13 7 16t26 3q44 0 56.5 8t19.5 35l134 537q4 14 4 22q0 15 -55 15q-11 0 -15.5 0.5t-9 3.5t-4.5 10q0 19 20 19l58 -3h119q54 3 57 3q16 0 16 -14q0 -13 -7 -16t-26 -3q-44 0 -57 -8
t-19 -35l-78 -313l373 291q9 8 11 9l6 6q22 16 22 35q0 14 -22 15q-16 1 -16 14q0 19 21 19q16 0 50.5 -1.5t51.5 -1.5h40l36 3q13 0 13 -14q0 -17 -19 -19q-65 -7 -165 -86l-194 -151l150 -341q11 -25 23 -31.5t39 -7.5q18 0 18 -14zM427 -110q0 -42 -25 -87t-50.5 -70
t-33.5 -25q-11 0 -11 12q0 4 7 9q69 56 88 133q-12 -8 -28 -8q-18 0 -26.5 10t-8.5 23q0 18 14.5 34t36.5 16q37 0 37 -47z" />
    <glyph glyph-name="kcommaaccent" unicode="&#x137;" horiz-adv-x="494" 
d="M520 143q0 -4 -4.5 -20t-14.5 -40t-20 -41q-35 -52 -82 -52q-41 0 -67 28t-26 71q0 16 4 30q3 15 3 25q0 68 -112 82l-49 -198q-10 -38 -41 -38q-15 0 -23 8.5t-8 20.5q0 3 3 15l145 579q0 2 1 7t2 9t1 6q0 6 -1.5 8.5t-12.5 4.5t-34 2q-26 0 -26 14q0 8 4 12.5t8 5.5
t13 2l104 9q27 2 27 -13q0 -3 -3 -15l-100 -400q40 19 101 84q86 92 149 92q34 0 51.5 -19.5t17.5 -46.5t-15.5 -42.5t-35.5 -15.5q-35 0 -35 34q0 19 13 32.5t29 16.5q-9 13 -26 13q-56 0 -132 -86q-57 -57 -84 -75q138 -24 138 -107q0 -15 -4 -31q-7 -26 -7 -50
q0 -46 30 -46t47.5 32t30.5 86q3 12 7 16t15 4q19 0 19 -13zM262 -110q0 -42 -25 -87t-50.5 -70t-33.5 -25q-11 0 -11 12q0 4 7 9q69 56 88 133q-12 -8 -28 -8q-18 0 -26.5 10t-8.5 23q0 18 14.5 34t36.5 16q37 0 37 -47z" />
    <glyph glyph-name="Lacute" unicode="&#x139;" horiz-adv-x="673" 
d="M664 245q0 -5 -5 -18l-77 -209q-5 -13 -9.5 -15.5t-21.5 -2.5h-448q-10 0 -15 0.5t-9 3.5t-4 10q0 13 7 16t26 3q44 0 56.5 8t19.5 35l134 537q4 14 4 22q0 15 -55 15q-11 0 -15.5 0.5t-9 3.5t-4.5 10q0 19 20 19q1 0 11.5 -0.5t39.5 -1.5t73 -1q22 0 67 1.5t66 1.5
q16 0 16 -14q0 -13 -6.5 -16t-22.5 -3h-8q-58 0 -73.5 -8.5t-22.5 -38.5l-135 -541q-3 -11 -4 -27q9 -2 28 -2h95q39 0 71.5 8t56 25.5t40 33.5t31.5 44.5t22 44.5t19 47q6 17 9.5 20.5t13.5 3.5q19 0 19 -15zM577 870q-4 -19 -28 -30l-188 -91q-9 -5 -15 -5q-7 1 -11.5 9.5
t-3.5 14.5q1 7 14 16l177 114q12 9 25 9q16 0 24.5 -10.5t5.5 -26.5z" />
    <glyph glyph-name="lacute" unicode="&#x13a;" horiz-adv-x="274" 
d="M300 143q0 -3 -4 -18.5t-12 -39.5t-16 -40q-29 -55 -77 -55q-37 0 -64.5 24.5t-27.5 67.5q0 16 5 36l124 495q0 2 1 7t2 9t1 6q0 6 -1.5 8.5t-12.5 4.5t-34 2q-26 0 -26 14q0 8 4 12.5t8 5.5t13 2l104 9q27 2 27 -13q0 -3 -3 -15l-143 -574q-3 -12 -3 -29q0 -44 28 -44
q9 0 16.5 4.5t14 15t11 19t10 26t8 26t7.5 27.5q3 13 6.5 16.5t14.5 3.5q19 0 19 -13zM505 881q-4 -19 -28 -30l-188 -91q-9 -5 -15 -5q-7 1 -11.5 9.5t-3.5 14.5q1 7 14 16l177 114q12 9 25 9q16 0 24.5 -10.5t5.5 -26.5z" />
    <glyph glyph-name="Lcommaaccent" unicode="&#x13b;" horiz-adv-x="673" 
d="M664 245q0 -5 -5 -18l-77 -209q-5 -13 -9.5 -15.5t-21.5 -2.5h-448q-10 0 -15 0.5t-9 3.5t-4 10q0 13 7 16t26 3q44 0 56.5 8t19.5 35l134 537q4 14 4 22q0 15 -55 15q-11 0 -15.5 0.5t-9 3.5t-4.5 10q0 19 20 19q1 0 11.5 -0.5t39.5 -1.5t73 -1q22 0 67 1.5t66 1.5
q16 0 16 -14q0 -13 -6.5 -16t-22.5 -3h-8q-58 0 -73.5 -8.5t-22.5 -38.5l-135 -541q-3 -11 -4 -27q9 -2 28 -2h95q39 0 71.5 8t56 25.5t40 33.5t31.5 44.5t22 44.5t19 47q6 17 9.5 20.5t13.5 3.5q19 0 19 -15zM351 -110q0 -42 -25 -87t-50.5 -70t-33.5 -25q-11 0 -11 12
q0 4 7 9q69 56 88 133q-12 -8 -28 -8q-18 0 -26.5 10t-8.5 23q0 18 14.5 34t36.5 16q37 0 37 -47z" />
    <glyph glyph-name="lcommaaccent" unicode="&#x13c;" horiz-adv-x="274" 
d="M300 143q0 -3 -4 -18.5t-12 -39.5t-16 -40q-29 -55 -77 -55q-37 0 -64.5 24.5t-27.5 67.5q0 16 5 36l124 495q0 2 1 7t2 9t1 6q0 6 -1.5 8.5t-12.5 4.5t-34 2q-26 0 -26 14q0 8 4 12.5t8 5.5t13 2l104 9q27 2 27 -13q0 -3 -3 -15l-143 -574q-3 -12 -3 -29q0 -44 28 -44
q9 0 16.5 4.5t14 15t11 19t10 26t8 26t7.5 27.5q3 13 6.5 16.5t14.5 3.5q19 0 19 -13zM152 -110q0 -42 -25 -87t-50.5 -70t-33.5 -25q-11 0 -11 12q0 4 7 9q69 56 88 133q-12 -8 -28 -8q-18 0 -26.5 10t-8.5 23q0 18 14.5 34t36.5 16q37 0 37 -47z" />
    <glyph glyph-name="Lcaron" unicode="&#x13d;" horiz-adv-x="673" 
d="M664 245q0 -5 -5 -18l-77 -209q-5 -13 -9.5 -15.5t-21.5 -2.5h-448q-10 0 -15 0.5t-9 3.5t-4 10q0 13 7 16t26 3q44 0 56.5 8t19.5 35l134 537q4 14 4 22q0 15 -55 15q-11 0 -15.5 0.5t-9 3.5t-4.5 10q0 19 20 19q1 0 11.5 -0.5t39.5 -1.5t73 -1q22 0 67 1.5t66 1.5
q16 0 16 -14q0 -13 -6.5 -16t-22.5 -3h-8q-58 0 -73.5 -8.5t-22.5 -38.5l-135 -541q-3 -11 -4 -27q9 -2 28 -2h95q39 0 71.5 8t56 25.5t40 33.5t31.5 44.5t22 44.5t19 47q6 17 9.5 20.5t13.5 3.5q19 0 19 -15zM666 636q0 -42 -25 -87t-50.5 -70t-33.5 -25q-11 0 -11 12
q0 4 7 9q69 56 88 133q-12 -8 -28 -8q-18 0 -26.5 10t-8.5 23q0 18 14.5 34t36.5 16q37 0 37 -47z" />
    <glyph glyph-name="lcaron" unicode="&#x13e;" horiz-adv-x="274" 
d="M300 143q0 -3 -4 -18.5t-12 -39.5t-16 -40q-29 -55 -77 -55q-37 0 -64.5 24.5t-27.5 67.5q0 16 5 36l124 495q0 2 1 7t2 9t1 6q0 6 -1.5 8.5t-12.5 4.5t-34 2q-26 0 -26 14q0 8 4 12.5t8 5.5t13 2l104 9q27 2 27 -13q0 -3 -3 -15l-143 -574q-3 -12 -3 -29q0 -44 28 -44
q9 0 16.5 4.5t14 15t11 19t10 26t8 26t7.5 27.5q3 13 6.5 16.5t14.5 3.5q19 0 19 -13zM432 647q0 -42 -25 -87t-50.5 -70t-33.5 -25q-11 0 -11 12q0 4 7 9q69 56 88 133q-12 -8 -28 -8q-18 0 -26.5 10t-8.5 23q0 18 14.5 34t36.5 16q37 0 37 -47z" />
    <glyph glyph-name="Ldot" unicode="&#x13f;" horiz-adv-x="673" 
d="M664 245q0 -5 -5 -18l-77 -209q-5 -13 -9.5 -15.5t-21.5 -2.5h-448q-10 0 -15 0.5t-9 3.5t-4 10q0 13 7 16t26 3q44 0 56.5 8t19.5 35l134 537q4 14 4 22q0 15 -55 15q-11 0 -15.5 0.5t-9 3.5t-4.5 10q0 19 20 19q1 0 11.5 -0.5t39.5 -1.5t73 -1q22 0 67 1.5t66 1.5
q16 0 16 -14q0 -13 -6.5 -16t-22.5 -3h-8q-58 0 -73.5 -8.5t-22.5 -38.5l-135 -541q-3 -11 -4 -27q9 -2 28 -2h95q39 0 71.5 8t56 25.5t40 33.5t31.5 44.5t22 44.5t19 47q6 17 9.5 20.5t13.5 3.5q19 0 19 -15zM700 416q0 -26 -21 -45.5t-46 -19.5q-19 0 -32.5 12.5
t-13.5 33.5q0 25 20.5 45t46.5 20q17 0 31.5 -11t14.5 -35z" />
    <glyph glyph-name="ldot" unicode="&#x140;" horiz-adv-x="274" 
d="M300 143q0 -3 -4 -18.5t-12 -39.5t-16 -40q-29 -55 -77 -55q-37 0 -64.5 24.5t-27.5 67.5q0 16 5 36l124 495q0 2 1 7t2 9t1 6q0 6 -1.5 8.5t-12.5 4.5t-34 2q-26 0 -26 14q0 8 4 12.5t8 5.5t13 2l104 9q27 2 27 -13q0 -3 -3 -15l-143 -574q-3 -12 -3 -29q0 -44 28 -44
q9 0 16.5 4.5t14 15t11 19t10 26t8 26t7.5 27.5q3 13 6.5 16.5t14.5 3.5q19 0 19 -13zM395 377q0 -26 -21 -45.5t-46 -19.5q-19 0 -32.5 12.5t-13.5 33.5q0 25 20.5 45t46.5 20q17 0 31.5 -11t14.5 -35z" />
    <glyph glyph-name="Lslash" unicode="&#x141;" horiz-adv-x="673" 
d="M664 245q0 -5 -5 -18l-77 -209q-5 -13 -9.5 -15.5t-21.5 -2.5h-448q-10 0 -15 0.5t-9 3.5t-4 10q0 13 7 16t26 3q44 0 56.5 8t19.5 35l56 223l-68 -54l-22 25l103 80l65 263q4 19 4 22q0 15 -55 15q-11 0 -15.5 0.5t-9 3.5t-4.5 10q0 19 20 19q1 0 11.5 -0.5t39.5 -1.5
t73 -1q22 0 67 1.5t66 1.5q16 0 16 -14q0 -13 -6.5 -16t-22.5 -3h-8q-58 0 -73.5 -8.5t-22.5 -38.5l-42 -171l131 105l20 -26l-164 -130l-80 -319q-3 -11 -4 -27q9 -2 28 -2h95q39 0 71.5 8t56 25.5t40 33.5t31.5 44.5t22 44.5t19 47q6 17 9.5 20.5t13.5 3.5q19 0 19 -15z
" />
    <glyph glyph-name="lslash" unicode="&#x142;" horiz-adv-x="343" 
d="M344 143q0 -3 -4 -18.5t-12 -39.5t-16 -40q-29 -55 -77 -55q-37 0 -64.5 24.5t-27.5 67.5q0 16 5 36l44 177l-54 -41l-16 20l80 61l70 278q0 2 1 7t2 9t1 6q0 6 -1.5 8.5t-12.5 4.5t-34 2q-26 0 -26 14q0 8 4 12.5t8 5.5t13 2l104 9q27 2 27 -13q0 -3 -3 -15l-66 -266
l55 41l16 -21l-81 -61l-67 -267q-3 -12 -3 -29q0 -44 28 -44q9 0 16.5 4.5t14 15t11 19t10 26t8 26t7.5 27.5q3 13 6.5 16.5t14.5 3.5q19 0 19 -13z" />
    <glyph glyph-name="Nacute" unicode="&#x143;" horiz-adv-x="797" 
d="M891 669q0 -17 -17 -19q-18 -1 -28 -3t-27 -8.5t-28 -22t-17 -40.5l-139 -557q-3 -12 -6.5 -15.5t-15.5 -3.5t-15 3t-8 15l-233 585l-126 -505q-4 -12 -4 -24q0 -40 59 -41q18 0 18 -14q0 -19 -19 -19q-2 0 -11 1t-31.5 1.5t-56.5 0.5q-16 0 -48.5 -1.5t-47.5 -1.5
t-15 14q0 19 19 19q49 2 68.5 20.5t28.5 54.5l135 536q-21 6 -59 6q-11 0 -15.5 0.5t-9 3.5t-4.5 10q0 13 6.5 16t22.5 3h117q16 0 20.5 -2.5t10.5 -16.5l209 -524l111 446q4 15 4 24q0 38 -59 40q-19 0 -19 14q0 19 20 19q1 0 10.5 -0.5t32 -1.5t56.5 -1q32 0 54 1
t31.5 1.5t10.5 0.5q15 0 15 -14zM763 870q-4 -19 -28 -30l-188 -91q-9 -5 -15 -5q-7 1 -11.5 9.5t-3.5 14.5q1 7 14 16l177 114q12 9 25 9q16 0 24.5 -10.5t5.5 -26.5z" />
    <glyph glyph-name="nacute" unicode="&#x144;" horiz-adv-x="603" 
d="M629 143q0 -8 -8.5 -30.5t-24 -51t-43.5 -50t-61 -21.5q-37 0 -60.5 24t-23.5 59q0 19 13 52q61 161 61 222q0 66 -51 66t-98 -41q-21 -19 -41.5 -53.5t-25.5 -50.5l-16 -65q-6 -22 -16 -65l-22 -86q-6 -24 -9.5 -34.5t-13 -19t-24.5 -8.5q-13 0 -21.5 8t-8.5 20
q0 2 3 15l73 292q6 21 6 44q0 44 -28 44q-39 0 -67 -111q-5 -19 -8 -23t-15 -4q-19 0 -19 13q0 3 4.5 19.5t12.5 40.5t16 39q31 54 78 54q36 0 61.5 -22.5t30.5 -57.5q66 80 151 80q49 0 81.5 -24.5t32.5 -83.5q0 -57 -61 -219q-15 -43 -15 -64q0 -32 22 -32q31 0 55.5 32.5
t38.5 84.5q4 14 7.5 17.5t14.5 3.5q19 0 19 -13zM593 665q0 -20 -22 -35l-169 -122q-10 -7 -14 -7q-7 0 -13 7.5t-6 13.5q0 7 11 18l154 143q14 13 28 13q12 0 21.5 -8t9.5 -23z" />
    <glyph glyph-name="Ncommaaccent" unicode="&#x145;" horiz-adv-x="797" 
d="M891 669q0 -17 -17 -19q-18 -1 -28 -3t-27 -8.5t-28 -22t-17 -40.5l-139 -557q-3 -12 -6.5 -15.5t-15.5 -3.5t-15 3t-8 15l-233 585l-126 -505q-4 -12 -4 -24q0 -40 59 -41q18 0 18 -14q0 -19 -19 -19q-2 0 -11 1t-31.5 1.5t-56.5 0.5q-16 0 -48.5 -1.5t-47.5 -1.5
t-15 14q0 19 19 19q49 2 68.5 20.5t28.5 54.5l135 536q-21 6 -59 6q-11 0 -15.5 0.5t-9 3.5t-4.5 10q0 13 6.5 16t22.5 3h117q16 0 20.5 -2.5t10.5 -16.5l209 -524l111 446q4 15 4 24q0 38 -59 40q-19 0 -19 14q0 19 20 19q1 0 10.5 -0.5t32 -1.5t56.5 -1q32 0 54 1
t31.5 1.5t10.5 0.5q15 0 15 -14zM413 -110q0 -42 -25 -87t-50.5 -70t-33.5 -25q-11 0 -11 12q0 4 7 9q69 56 88 133q-12 -8 -28 -8q-18 0 -26.5 10t-8.5 23q0 18 14.5 34t36.5 16q37 0 37 -47z" />
    <glyph glyph-name="ncommaaccent" unicode="&#x146;" horiz-adv-x="603" 
d="M629 143q0 -8 -8.5 -30.5t-24 -51t-43.5 -50t-61 -21.5q-37 0 -60.5 24t-23.5 59q0 19 13 52q61 161 61 222q0 66 -51 66t-98 -41q-21 -19 -41.5 -53.5t-25.5 -50.5l-16 -65q-6 -22 -16 -65l-22 -86q-6 -24 -9.5 -34.5t-13 -19t-24.5 -8.5q-13 0 -21.5 8t-8.5 20
q0 2 3 15l73 292q6 21 6 44q0 44 -28 44q-39 0 -67 -111q-5 -19 -8 -23t-15 -4q-19 0 -19 13q0 3 4.5 19.5t12.5 40.5t16 39q31 54 78 54q36 0 61.5 -22.5t30.5 -57.5q66 80 151 80q49 0 81.5 -24.5t32.5 -83.5q0 -57 -61 -219q-15 -43 -15 -64q0 -32 22 -32q31 0 55.5 32.5
t38.5 84.5q4 14 7.5 17.5t14.5 3.5q19 0 19 -13zM316 -110q0 -42 -25 -87t-50.5 -70t-33.5 -25q-11 0 -11 12q0 4 7 9q69 56 88 133q-12 -8 -28 -8q-18 0 -26.5 10t-8.5 23q0 18 14.5 34t36.5 16q37 0 37 -47z" />
    <glyph glyph-name="Ncaron" unicode="&#x147;" horiz-adv-x="797" 
d="M891 669q0 -17 -17 -19q-18 -1 -28 -3t-27 -8.5t-28 -22t-17 -40.5l-139 -557q-3 -12 -6.5 -15.5t-15.5 -3.5t-15 3t-8 15l-233 585l-126 -505q-4 -12 -4 -24q0 -40 59 -41q18 0 18 -14q0 -19 -19 -19q-2 0 -11 1t-31.5 1.5t-56.5 0.5q-16 0 -48.5 -1.5t-47.5 -1.5
t-15 14q0 19 19 19q49 2 68.5 20.5t28.5 54.5l135 536q-21 6 -59 6q-11 0 -15.5 0.5t-9 3.5t-4.5 10q0 13 6.5 16t22.5 3h117q16 0 20.5 -2.5t10.5 -16.5l209 -524l111 446q4 15 4 24q0 38 -59 40q-19 0 -19 14q0 19 20 19q1 0 10.5 -0.5t32 -1.5t56.5 -1q32 0 54 1
t31.5 1.5t10.5 0.5q15 0 15 -14zM743 834l-155 -98q-7 -3 -12 0l-106 98q-4 4 -2.5 9t7 8t10.5 1l111 -55l141 55q6 2 9.5 -1t2.5 -8.5t-6 -8.5z" />
    <glyph glyph-name="ncaron" unicode="&#x148;" horiz-adv-x="603" 
d="M629 143q0 -8 -8.5 -30.5t-24 -51t-43.5 -50t-61 -21.5q-37 0 -60.5 24t-23.5 59q0 19 13 52q61 161 61 222q0 66 -51 66t-98 -41q-21 -19 -41.5 -53.5t-25.5 -50.5l-16 -65q-6 -22 -16 -65l-22 -86q-6 -24 -9.5 -34.5t-13 -19t-24.5 -8.5q-13 0 -21.5 8t-8.5 20
q0 2 3 15l73 292q6 21 6 44q0 44 -28 44q-39 0 -67 -111q-5 -19 -8 -23t-15 -4q-19 0 -19 13q0 3 4.5 19.5t12.5 40.5t16 39q31 54 78 54q36 0 61.5 -22.5t30.5 -57.5q66 80 151 80q49 0 81.5 -24.5t32.5 -83.5q0 -57 -61 -219q-15 -43 -15 -64q0 -32 22 -32q31 0 55.5 32.5
t38.5 84.5q4 14 7.5 17.5t14.5 3.5q19 0 19 -13zM605 663l-166 -144q-9 -7 -15 0l-94 144q-5 7 3.5 14.5t14.5 1.5l98 -99l148 99q9 6 14 -1.5t-3 -14.5z" />
    <glyph glyph-name="Eng" unicode="&#x14a;" horiz-adv-x="797" 
d="M847 342q-37 -148 -123.5 -255.5t-197.5 -107.5q-17 0 -26.5 12.5t-5.5 29.5t20 29.5t33 12.5t26 -11.5t6 -27.5q35 12 63.5 43t49 80.5t33.5 91t28 103.5q18 85 12.5 157t-47.5 119.5t-113 47.5q-62 0 -121 -31.5t-99 -83.5l-120 -480q-4 -14 -4 -22q0 -16 59 -16
q11 0 16 -0.5t9.5 -3.5t4.5 -10q0 -19 -21 -19q-22 0 -58 3h-128q-48 -3 -57 -3q-16 0 -16 14q0 13 7 16t23 3q50 0 63.5 7.5t20.5 36.5l135 540q3 12 3 18q0 15 -59 15q-17 0 -23.5 2t-6.5 12q0 19 20 19q1 0 13 -0.5t41 -1.5t69 -1q21 0 42 3l-17 -67q98 88 213 88
q137 0 203.5 -107.5t29.5 -254.5z" />
    <glyph glyph-name="eng" unicode="&#x14b;" horiz-adv-x="534" 
d="M548 333q0 -53 -35 -155.5t-38 -115.5q-14 -57 -29.5 -100t-38.5 -86.5t-56 -67t-73 -23.5q-14 0 -22 10t-4 25q4 14 16.5 24.5t27.5 10.5q18 0 25 -16q38 38 84 223q4 14 40.5 122t36.5 163q0 66 -51 66t-98 -41q-21 -19 -41.5 -53.5t-25.5 -50.5l-16 -65
q-6 -22 -16 -65l-22 -86q-6 -24 -9.5 -34.5t-13 -19t-24.5 -8.5q-13 0 -21.5 8t-8.5 20q0 2 3 15l73 292q6 21 6 44q0 44 -28 44q-39 0 -67 -111q-5 -19 -8 -23t-15 -4q-19 0 -19 13q0 3 4.5 19.5t12.5 40.5t16 39q31 54 78 54q36 0 61.5 -22.5t30.5 -57.5q66 80 151 80
q49 0 81.5 -24.5t32.5 -83.5z" />
    <glyph glyph-name="Omacron" unicode="&#x14c;" horiz-adv-x="823" 
d="M836 436q0 -86 -38 -171t-98 -147t-138 -100.5t-156 -38.5q-114 0 -183 75t-69 189q0 111 62 218.5t163 175t207 67.5q109 0 179.5 -73.5t70.5 -194.5zM750 471q0 97 -49 149.5t-123 52.5q-65 0 -132.5 -42t-113.5 -116q-47 -73 -66.5 -155t-19.5 -139q0 -101 48 -155
t120 -54q70 0 134.5 45t107.5 113t68.5 148.5t25.5 152.5zM783 776q0 -10 -4.5 -15t-10 -6t-16.5 -1h-298q-10 0 -15 0.5t-9 3.5t-4 10q0 10 4.5 15t9.5 6t16 1h298q29 0 29 -14z" />
    <glyph glyph-name="omacron" unicode="&#x14d;" 
d="M540 272q0 -108 -83 -195t-183 -87q-67 0 -113 45t-46 124q0 109 83.5 195.5t181.5 86.5q69 0 114.5 -46.5t45.5 -122.5zM465 307q0 51 -24 78.5t-62 27.5q-31 0 -69 -23t-67 -72q-23 -39 -38 -98t-15 -96q0 -55 25.5 -80.5t59.5 -25.5q36 0 73 25.5t61 66.5
q27 45 41.5 104.5t14.5 92.5zM603 603q0 -10 -4.5 -15t-10 -6t-16.5 -1h-298q-10 0 -15 0.5t-9 3.5t-4 10q0 10 4.5 15t9.5 6t16 1h298q29 0 29 -14z" />
    <glyph glyph-name="Obreve" unicode="&#x14e;" horiz-adv-x="823" 
d="M836 436q0 -86 -38 -171t-98 -147t-138 -100.5t-156 -38.5q-114 0 -183 75t-69 189q0 111 62 218.5t163 175t207 67.5q109 0 179.5 -73.5t70.5 -194.5zM750 471q0 97 -49 149.5t-123 52.5q-65 0 -132.5 -42t-113.5 -116q-47 -73 -66.5 -155t-19.5 -139q0 -101 48 -155
t120 -54q70 0 134.5 45t107.5 113t68.5 148.5t25.5 152.5zM787 905q0 -38 -55 -99.5t-132 -61.5q-55 0 -87 35t-32 88q0 52 19 52q14 0 14 -15l-2 -11q-2 -11 -2 -19q0 -39 26 -63.5t68 -24.5q15 0 34 5t42.5 17t45 37.5t33.5 60.5q3 13 14 13q5 0 9.5 -4t4.5 -10z" />
    <glyph glyph-name="obreve" unicode="&#x14f;" 
d="M540 272q0 -108 -83 -195t-183 -87q-67 0 -113 45t-46 124q0 109 83.5 195.5t181.5 86.5q69 0 114.5 -46.5t45.5 -122.5zM465 307q0 51 -24 78.5t-62 27.5q-31 0 -69 -23t-67 -72q-23 -39 -38 -98t-15 -96q0 -55 25.5 -80.5t59.5 -25.5q36 0 73 25.5t61 66.5
q27 45 41.5 104.5t14.5 92.5zM592 672q0 -38 -55 -99.5t-132 -61.5q-55 0 -87 35t-32 88q0 52 19 52q14 0 14 -15l-2 -11q-2 -11 -2 -19q0 -39 26 -63.5t68 -24.5q15 0 34 5t42.5 17t45 37.5t33.5 60.5q3 13 14 13q5 0 9.5 -4t4.5 -10z" />
    <glyph glyph-name="Ohungarumlaut" unicode="&#x150;" horiz-adv-x="823" 
d="M836 436q0 -86 -38 -171t-98 -147t-138 -100.5t-156 -38.5q-114 0 -183 75t-69 189q0 111 62 218.5t163 175t207 67.5q109 0 179.5 -73.5t70.5 -194.5zM750 471q0 97 -49 149.5t-123 52.5q-65 0 -132.5 -42t-113.5 -116q-47 -73 -66.5 -155t-19.5 -139q0 -101 48 -155
t120 -54q70 0 134.5 45t107.5 113t68.5 148.5t25.5 152.5zM638 907q0 -15 -16 -31l-109 -120q-11 -12 -19 -12q-21 5 -21 18q0 6 8 17l90 135q15 23 35 23q15 0 23.5 -9.5t8.5 -20.5zM803 907q0 -15 -16 -31l-109 -120q-11 -12 -19 -12q-21 5 -21 18q0 6 8 17l90 135
q15 23 35 23q15 0 23.5 -9.5t8.5 -20.5z" />
    <glyph glyph-name="ohungarumlaut" unicode="&#x151;" 
d="M540 272q0 -108 -83 -195t-183 -87q-67 0 -113 45t-46 124q0 109 83.5 195.5t181.5 86.5q69 0 114.5 -46.5t45.5 -122.5zM465 307q0 51 -24 78.5t-62 27.5q-31 0 -69 -23t-67 -72q-23 -39 -38 -98t-15 -96q0 -55 25.5 -80.5t59.5 -25.5q36 0 73 25.5t61 66.5
q27 45 41.5 104.5t14.5 92.5zM441 665q0 -15 -16 -31l-109 -120q-11 -12 -19 -12q-21 5 -21 18q0 6 8 17l90 135q15 23 35 23q15 0 23.5 -9.5t8.5 -20.5zM606 665q0 -15 -16 -31l-109 -120q-11 -12 -19 -12q-21 5 -21 18q0 6 8 17l90 135q15 23 35 23q15 0 23.5 -9.5
t8.5 -20.5z" />
    <glyph glyph-name="OE" unicode="&#x152;" horiz-adv-x="1057" 
d="M1062 246q0 -7 -5 -17l-91 -211q-6 -13 -10.5 -15.5t-20.5 -2.5h-359q-33 0 -79 -10q-53 -11 -80 -11q-107 0 -178 73.5t-71 190.5q0 112 62.5 219.5t163 174.5t205.5 67q29 0 79 -12q39 -9 69 -9h338q19 0 24 -4t3 -24l-20 -175q-1 -10 -2.5 -14.5t-5.5 -7t-13 -2.5
q-18 0 -18 14q0 8 1 10q5 43 5 70q0 55 -26 77.5t-102 22.5h-122q-25 0 -33 -5t-14 -30l-61 -244h107q63 0 88.5 18t40.5 74q5 17 8 21t14 4q19 0 19 -14q0 -7 -2 -13l-55 -220q-3 -12 -6.5 -16t-14.5 -4q-19 0 -19 15q0 1 1 5.5t1 6.5q8 16 8 46q0 24 -16.5 34t-68.5 10
h-113l-69 -276q-3 -11 -4 -27q9 -2 28 -2h120q47 0 81 9t57 22t44 42t34.5 55.5t34.5 75.5q8 17 11 20t13 3q19 0 19 -14zM582 189l81 326q13 50 13 94q0 14 -1.5 22t-8.5 20.5t-25 18.5t-47 6q-78 0 -155.5 -60.5t-128 -164t-50.5 -216.5q0 -99 45 -163.5t123 -64.5
q63 0 95 36t59 146z" />
    <glyph glyph-name="oe" unicode="&#x153;" horiz-adv-x="768" 
d="M749 100q0 -5 -9 -17t-27.5 -28t-41.5 -30.5t-55.5 -24.5t-65.5 -10q-98 0 -137 98q-79 -100 -167 -100q-58 0 -95.5 44.5t-37.5 116.5q0 109 75.5 201.5t165.5 92.5q36 0 67.5 -21t48.5 -68q80 87 184 87q48 0 79.5 -24t31.5 -63q0 -35 -20 -60t-45.5 -37.5t-62.5 -19.5
t-58.5 -8t-45.5 -1h-58q-12 -52 -12 -90q0 -53 22.5 -86.5t65.5 -33.5q36 0 80.5 21t82.5 70q8 12 15 12q5 0 12.5 -7.5t7.5 -13.5zM721 354q0 29 -20 44t-48 15q-27 0 -57 -12.5t-63.5 -50t-49.5 -94.5h45q193 0 193 98zM418 316q0 54 -20 76.5t-45 22.5q-30 0 -62.5 -28
t-55.5 -77q-17 -36 -33 -101.5t-16 -100.5q0 -37 15.5 -64.5t46.5 -27.5q48 0 89 54.5t61 122.5t20 123z" />
    <glyph glyph-name="Racute" unicode="&#x154;" horiz-adv-x="782" 
d="M774 96q0 -12 -11.5 -37.5t-41.5 -52.5t-69 -27q-50 0 -88.5 25.5t-38.5 82.5q0 24 18 89q12 50 12 64q0 37 -26.5 62.5t-80.5 25.5h-121l-64 -257l-4 -22q0 -11 13 -13.5t42 -2.5q11 0 15.5 -0.5t9 -3.5t4.5 -10q0 -19 -20 -19q-18 0 -57 3h-118q-54 -3 -57 -3
q-15 0 -15 14q0 13 7 16t26 3q44 0 56.5 8t19.5 35l134 537q4 14 4 22q0 15 -55 15q-11 0 -15.5 0.5t-9 3.5t-4.5 10q0 13 6.5 16t22.5 3h274q96 0 157 -43t61 -107q0 -60 -58 -114.5t-153 -79.5q86 -34 86 -115q0 -2 -10 -92q-6 -45 -6 -70q0 -28 7 -41.5t29 -13.5
q26 0 47 24.5t32 59.5q4 12 7 15.5t14 3.5q19 0 19 -14zM668 551q0 99 -145 99h-77q-25 0 -33 -5t-14 -30l-64 -259h114q92 0 149 42q36 26 53 70.5t17 82.5zM756 870q-4 -19 -28 -30l-188 -91q-9 -5 -15 -5q-7 1 -11.5 9.5t-3.5 14.5q1 7 14 16l177 114q12 9 25 9
q16 0 24.5 -10.5t5.5 -26.5z" />
    <glyph glyph-name="racute" unicode="&#x155;" horiz-adv-x="453" 
d="M515 372q0 -28 -16 -41.5t-34 -13.5q-35 0 -35 34q0 33 34 46q-20 16 -56 16q-25 0 -48.5 -13t-39 -31.5t-27.5 -39.5t-18 -35t-7 -20l-61 -245q-10 -39 -42 -39q-13 0 -21.5 8t-8.5 20q0 2 3 15l73 292q6 21 6 44q0 44 -28 44q-39 0 -67 -111q-5 -19 -8 -23t-15 -4
q-19 0 -19 13q0 3 4.5 19.5t12.5 40.5t16 39q31 54 78 54q35 0 59 -19.5t31 -49.5q52 69 128 69q37 0 71.5 -15.5t34.5 -53.5zM518 665q0 -20 -22 -35l-169 -122q-10 -7 -14 -7q-7 0 -13 7.5t-6 13.5q0 7 11 18l154 143q14 13 28 13q12 0 21.5 -8t9.5 -23z" />
    <glyph glyph-name="Rcommaaccent" unicode="&#x156;" horiz-adv-x="782" 
d="M774 96q0 -12 -11.5 -37.5t-41.5 -52.5t-69 -27q-50 0 -88.5 25.5t-38.5 82.5q0 24 18 89q12 50 12 64q0 37 -26.5 62.5t-80.5 25.5h-121l-64 -257l-4 -22q0 -11 13 -13.5t42 -2.5q11 0 15.5 -0.5t9 -3.5t4.5 -10q0 -19 -20 -19q-18 0 -57 3h-118q-54 -3 -57 -3
q-15 0 -15 14q0 13 7 16t26 3q44 0 56.5 8t19.5 35l134 537q4 14 4 22q0 15 -55 15q-11 0 -15.5 0.5t-9 3.5t-4.5 10q0 13 6.5 16t22.5 3h274q96 0 157 -43t61 -107q0 -60 -58 -114.5t-153 -79.5q86 -34 86 -115q0 -2 -10 -92q-6 -45 -6 -70q0 -28 7 -41.5t29 -13.5
q26 0 47 24.5t32 59.5q4 12 7 15.5t14 3.5q19 0 19 -14zM668 551q0 99 -145 99h-77q-25 0 -33 -5t-14 -30l-64 -259h114q92 0 149 42q36 26 53 70.5t17 82.5zM406 -110q0 -42 -25 -87t-50.5 -70t-33.5 -25q-11 0 -11 12q0 4 7 9q69 56 88 133q-12 -8 -28 -8q-18 0 -26.5 10
t-8.5 23q0 18 14.5 34t36.5 16q37 0 37 -47z" />
    <glyph glyph-name="rcommaaccent" unicode="&#x157;" horiz-adv-x="453" 
d="M515 372q0 -28 -16 -41.5t-34 -13.5q-35 0 -35 34q0 33 34 46q-20 16 -56 16q-25 0 -48.5 -13t-39 -31.5t-27.5 -39.5t-18 -35t-7 -20l-61 -245q-10 -39 -42 -39q-13 0 -21.5 8t-8.5 20q0 2 3 15l73 292q6 21 6 44q0 44 -28 44q-39 0 -67 -111q-5 -19 -8 -23t-15 -4
q-19 0 -19 13q0 3 4.5 19.5t12.5 40.5t16 39q31 54 78 54q35 0 59 -19.5t31 -49.5q52 69 128 69q37 0 71.5 -15.5t34.5 -53.5zM179 -110q0 -42 -25 -87t-50.5 -70t-33.5 -25q-11 0 -11 12q0 4 7 9q69 56 88 133q-12 -8 -28 -8q-18 0 -26.5 10t-8.5 23q0 18 14.5 34t36.5 16
q37 0 37 -47z" />
    <glyph glyph-name="Rcaron" unicode="&#x158;" horiz-adv-x="782" 
d="M774 96q0 -12 -11.5 -37.5t-41.5 -52.5t-69 -27q-50 0 -88.5 25.5t-38.5 82.5q0 24 18 89q12 50 12 64q0 37 -26.5 62.5t-80.5 25.5h-121l-64 -257l-4 -22q0 -11 13 -13.5t42 -2.5q11 0 15.5 -0.5t9 -3.5t4.5 -10q0 -19 -20 -19q-18 0 -57 3h-118q-54 -3 -57 -3
q-15 0 -15 14q0 13 7 16t26 3q44 0 56.5 8t19.5 35l134 537q4 14 4 22q0 15 -55 15q-11 0 -15.5 0.5t-9 3.5t-4.5 10q0 13 6.5 16t22.5 3h274q96 0 157 -43t61 -107q0 -60 -58 -114.5t-153 -79.5q86 -34 86 -115q0 -2 -10 -92q-6 -45 -6 -70q0 -28 7 -41.5t29 -13.5
q26 0 47 24.5t32 59.5q4 12 7 15.5t14 3.5q19 0 19 -14zM668 551q0 99 -145 99h-77q-25 0 -33 -5t-14 -30l-64 -259h114q92 0 149 42q36 26 53 70.5t17 82.5zM736 834l-155 -98q-7 -3 -12 0l-106 98q-4 4 -2.5 9t7 8t10.5 1l111 -55l141 55q6 2 9.5 -1t2.5 -8.5t-6 -8.5z
" />
    <glyph glyph-name="rcaron" unicode="&#x159;" horiz-adv-x="453" 
d="M515 372q0 -28 -16 -41.5t-34 -13.5q-35 0 -35 34q0 33 34 46q-20 16 -56 16q-25 0 -48.5 -13t-39 -31.5t-27.5 -39.5t-18 -35t-7 -20l-61 -245q-10 -39 -42 -39q-13 0 -21.5 8t-8.5 20q0 2 3 15l73 292q6 21 6 44q0 44 -28 44q-39 0 -67 -111q-5 -19 -8 -23t-15 -4
q-19 0 -19 13q0 3 4.5 19.5t12.5 40.5t16 39q31 54 78 54q35 0 59 -19.5t31 -49.5q52 69 128 69q37 0 71.5 -15.5t34.5 -53.5zM530 663l-166 -144q-9 -7 -15 0l-94 144q-5 7 3.5 14.5t14.5 1.5l98 -99l148 99q9 6 14 -1.5t-3 -14.5z" />
    <glyph glyph-name="Sacute" unicode="&#x15a;" horiz-adv-x="603" 
d="M571 232q0 -95 -75.5 -174t-172.5 -79q-111 0 -166 69l-46 -57q-9 -12 -17 -12q-14 0 -14 13q0 1 4 18l49 197q4 14 7.5 17t14.5 3q18 0 18 -12l-1 -11q-7 -24 -7 -53q0 -71 45.5 -105t114.5 -34q70 0 125 58t55 127q0 81 -77 103l-94 25q-129 31 -129 147q0 87 74 159.5
t168 72.5q95 0 142 -68l45 56q10 12 17 12q14 0 14 -12q0 -5 -3 -14l-51 -202q-4 -14 -6.5 -17t-14.5 -3q-19 0 -19 13q0 2 1.5 10t2.5 21.5t1 27.5q0 146 -130 146q-68 0 -121.5 -52.5t-53.5 -114.5q0 -33 17.5 -58t48.5 -35q56 -14 60 -16q71 -18 93 -27t41 -29
q40 -45 40 -110zM667 870q-4 -19 -28 -30l-188 -91q-9 -5 -15 -5q-7 1 -11.5 9.5t-3.5 14.5q1 7 14 16l177 114q12 9 25 9q16 0 24.5 -10.5t5.5 -26.5z" />
    <glyph glyph-name="sacute" unicode="&#x15b;" horiz-adv-x="439" 
d="M419 156q0 -21 -9.5 -46.5t-30 -54t-62 -47t-96.5 -18.5q-65 0 -104 27t-39 70q0 30 15 46t37 16q16 0 25.5 -9.5t9.5 -23.5q0 -41 -45 -49q22 -49 101 -49q72 0 104 35.5t32 69.5q0 52 -75 66q-48 11 -62 16t-30 18q-32 26 -32 71q0 13 4 30t16 38t29.5 38t48.5 29
t69 12q47 0 81.5 -22.5t34.5 -63.5q0 -25 -11.5 -38.5t-18.5 -15t-14 -1.5q-13 0 -22 8.5t-9 21.5q0 4 1 9.5t9.5 16.5t24.5 15q-16 42 -78 42q-52 0 -77.5 -29t-25.5 -57t18.5 -38.5t59.5 -18.5q121 -26 121 -114zM511 665q0 -20 -22 -35l-169 -122q-10 -7 -14 -7
q-7 0 -13 7.5t-6 13.5q0 7 11 18l154 143q14 13 28 13q12 0 21.5 -8t9.5 -23z" />
    <glyph glyph-name="Scircumflex" unicode="&#x15c;" horiz-adv-x="603" 
d="M571 232q0 -95 -75.5 -174t-172.5 -79q-111 0 -166 69l-46 -57q-9 -12 -17 -12q-14 0 -14 13q0 1 4 18l49 197q4 14 7.5 17t14.5 3q18 0 18 -12l-1 -11q-7 -24 -7 -53q0 -71 45.5 -105t114.5 -34q70 0 125 58t55 127q0 81 -77 103l-94 25q-129 31 -129 147q0 87 74 159.5
t168 72.5q95 0 142 -68l45 56q10 12 17 12q14 0 14 -12q0 -5 -3 -14l-51 -202q-4 -14 -6.5 -17t-14.5 -3q-19 0 -19 13q0 2 1.5 10t2.5 21.5t1 27.5q0 146 -130 146q-68 0 -121.5 -52.5t-53.5 -114.5q0 -33 17.5 -58t48.5 -35q56 -14 60 -16q71 -18 93 -27t41 -29
q40 -45 40 -110zM626 753q7 -5 0.5 -13.5t-14.5 -4.5l-112 55l-140 -55q-10 -4 -12.5 4.5t5.5 13.5l156 98q5 3 12 0z" />
    <glyph glyph-name="scircumflex" unicode="&#x15d;" horiz-adv-x="439" 
d="M419 156q0 -21 -9.5 -46.5t-30 -54t-62 -47t-96.5 -18.5q-65 0 -104 27t-39 70q0 30 15 46t37 16q16 0 25.5 -9.5t9.5 -23.5q0 -41 -45 -49q22 -49 101 -49q72 0 104 35.5t32 69.5q0 52 -75 66q-48 11 -62 16t-30 18q-32 26 -32 71q0 13 4 30t16 38t29.5 38t48.5 29
t69 12q47 0 81.5 -22.5t34.5 -63.5q0 -25 -11.5 -38.5t-18.5 -15t-14 -1.5q-13 0 -22 8.5t-9 21.5q0 4 1 9.5t9.5 16.5t24.5 15q-16 42 -78 42q-52 0 -77.5 -29t-25.5 -57t18.5 -38.5t59.5 -18.5q121 -26 121 -114zM490 534q6 -7 -3 -14.5t-15 -1.5l-98 99l-148 -99
q-9 -6 -14 1t3 15l166 144q9 8 15 0z" />
    <glyph glyph-name="Scedilla" unicode="&#x15e;" horiz-adv-x="603" 
d="M571 232q0 -92 -72 -170.5t-167 -82.5l-7 -27q25 -4 45.5 -18t20.5 -40q0 -30 -21.5 -49.5t-61 -27t-64 -9t-61.5 -1.5q-27 0 -34.5 2t-7.5 12q0 14 28 14h13q140 0 140 58q0 31 -51 35q-18 0 -18 14q0 2 1.5 8.5t4 17t4.5 17.5q-67 13 -106 63l-46 -57q-9 -12 -17 -12
q-14 0 -14 13q0 1 4 18l49 197q4 14 7.5 17t14.5 3q18 0 18 -12l-1 -11q-7 -24 -7 -53q0 -71 45.5 -105t114.5 -34q70 0 125 58t55 127q0 81 -77 103l-94 25q-129 31 -129 147q0 87 74 159.5t168 72.5q95 0 142 -68l45 56q10 12 17 12q14 0 14 -12q0 -5 -3 -14l-51 -202
q-4 -14 -6.5 -17t-14.5 -3q-19 0 -19 13q0 2 1.5 10t2.5 21.5t1 27.5q0 146 -130 146q-68 0 -121.5 -52.5t-53.5 -114.5q0 -33 17.5 -58t48.5 -35q56 -14 60 -16q71 -18 93 -27t41 -29q40 -45 40 -110z" />
    <glyph glyph-name="scedilla" unicode="&#x15f;" horiz-adv-x="439" 
d="M419 156q0 -28 -13 -60t-53 -65t-101 -39q-2 -14 -9 -38q25 -4 45.5 -18t20.5 -40q0 -30 -21.5 -49.5t-61 -27t-64 -9t-61.5 -1.5q-27 0 -34.5 2t-7.5 12q0 14 28 14h13q140 0 140 58q0 31 -51 35q-18 0 -18 14q0 3 12 49q-49 7 -77 32.5t-28 61.5q0 30 15 46t37 16
q16 0 25.5 -9.5t9.5 -23.5q0 -41 -45 -49q22 -49 101 -49q72 0 104 35.5t32 69.5q0 52 -75 66q-48 11 -62 16t-30 18q-32 26 -32 71q0 13 4 30t16 38t29.5 38t48.5 29t69 12q47 0 81.5 -22.5t34.5 -63.5q0 -25 -11.5 -38.5t-18.5 -15t-14 -1.5q-13 0 -22 8.5t-9 21.5
q0 4 1 9.5t9.5 16.5t24.5 15q-16 42 -78 42q-52 0 -77.5 -29t-25.5 -57t18.5 -38.5t59.5 -18.5q121 -26 121 -114z" />
    <glyph glyph-name="Scaron" unicode="&#x160;" horiz-adv-x="603" 
d="M571 232q0 -95 -75.5 -174t-172.5 -79q-111 0 -166 69l-46 -57q-9 -12 -17 -12q-14 0 -14 13q0 1 4 18l49 197q4 14 7.5 17t14.5 3q18 0 18 -12l-1 -11q-7 -24 -7 -53q0 -71 45.5 -105t114.5 -34q70 0 125 58t55 127q0 81 -77 103l-94 25q-129 31 -129 147q0 87 74 159.5
t168 72.5q95 0 142 -68l45 56q10 12 17 12q14 0 14 -12q0 -5 -3 -14l-51 -202q-4 -14 -6.5 -17t-14.5 -3q-19 0 -19 13q0 2 1.5 10t2.5 21.5t1 27.5q0 146 -130 146q-68 0 -121.5 -52.5t-53.5 -114.5q0 -33 17.5 -58t48.5 -35q56 -14 60 -16q71 -18 93 -27t41 -29
q40 -45 40 -110zM647 834l-155 -98q-7 -3 -12 0l-106 98q-4 4 -2.5 9t7 8t10.5 1l111 -55l141 55q6 2 9.5 -1t2.5 -8.5t-6 -8.5z" />
    <glyph glyph-name="scaron" unicode="&#x161;" horiz-adv-x="439" 
d="M419 156q0 -21 -9.5 -46.5t-30 -54t-62 -47t-96.5 -18.5q-65 0 -104 27t-39 70q0 30 15 46t37 16q16 0 25.5 -9.5t9.5 -23.5q0 -41 -45 -49q22 -49 101 -49q72 0 104 35.5t32 69.5q0 52 -75 66q-48 11 -62 16t-30 18q-32 26 -32 71q0 13 4 30t16 38t29.5 38t48.5 29
t69 12q47 0 81.5 -22.5t34.5 -63.5q0 -25 -11.5 -38.5t-18.5 -15t-14 -1.5q-13 0 -22 8.5t-9 21.5q0 4 1 9.5t9.5 16.5t24.5 15q-16 42 -78 42q-52 0 -77.5 -29t-25.5 -57t18.5 -38.5t59.5 -18.5q121 -26 121 -114zM523 663l-166 -144q-9 -7 -15 0l-94 144q-5 7 3.5 14.5
t14.5 1.5l98 -99l148 99q9 6 14 -1.5t-3 -14.5z" />
    <glyph glyph-name="Tcedilla" unicode="&#x162;" horiz-adv-x="768" 
d="M820 470q-1 -7 -1.5 -9.5t-2.5 -6t-6 -4.5t-10 -1q-9 0 -14 3.5t-4.5 7.5t0.5 5v5v5l8 65q2 18 2 26q0 51 -28 64t-109 13q-50 0 -57 -2q-14 -2 -22 -34l-134 -537q-3 -11 -3 -17q0 -9 6 -12.5t25 -5.5q34 -2 50 -2h13q10 0 15 -0.5t9 -3.5t4 -10q0 -19 -21 -19
q-19 0 -60 1.5t-61 1.5h-1q-3 -18 -11 -49q25 -4 45.5 -18t20.5 -40q0 -30 -21.5 -49.5t-61 -27t-64 -9t-61.5 -1.5q-27 0 -34.5 2t-7.5 12q0 14 28 14h13q140 0 140 58q0 31 -51 35q-18 0 -18 14q0 2 2.5 12.5t6 25t5.5 21.5h-3q-20 0 -58.5 -1.5t-57.5 -1.5q-17 0 -17 14
q0 13 6.5 16t23.5 3h13q65 0 82 9.5t25 41.5l131 525q4 14 5 32q-15 2 -60 2q-55 0 -84 -4.5t-54.5 -22t-41 -47.5t-35.5 -86q-10 -30 -12 -31q-4 -3 -14 -3q-19 0 -19 14q0 4 5 17l61 178q4 13 9 15.5t22 2.5h545q28 0 28 -14l-1 -14z" />
    <glyph glyph-name="tcedilla" unicode="&#x163;" horiz-adv-x="357" 
d="M382 144q0 -9 -14 -38t-46 -64.5t-70 -46.5q-1 -10 -9 -41q25 -4 45.5 -18t20.5 -40q0 -30 -21.5 -49.5t-61 -27t-64 -9t-61.5 -1.5q-27 0 -34.5 2t-7.5 12q0 14 28 14h13q140 0 140 58q0 31 -51 35q-18 0 -18 14q0 6 12 52q-57 22 -57 86q0 16 5 36l70 280h-84
q-28 0 -28 14q0 13 6.5 16t23.5 3h90l39 155q9 39 42 39q10 0 19.5 -6.5t9.5 -21.5q0 -7 -4 -22l-36 -144h84q10 0 15 -0.5t9 -3.5t4 -10q0 -13 -6.5 -16t-22.5 -3h-91l-76 -307q-3 -12 -3 -29q0 -44 29 -44q69 0 122 122q4 11 7 13.5t14 2.5q18 0 18 -12z" />
    <glyph glyph-name="Tcaron" unicode="&#x164;" horiz-adv-x="768" 
d="M820 470q-1 -7 -1.5 -9.5t-2.5 -6t-6 -4.5t-10 -1q-9 0 -14 3.5t-4.5 7.5t0.5 5v5v5l8 65q2 18 2 26q0 51 -28 64t-109 13q-50 0 -57 -2q-14 -2 -22 -34l-134 -537q-3 -11 -3 -17q0 -9 6 -12.5t25 -5.5q34 -2 50 -2h13q10 0 15 -0.5t9 -3.5t4 -10q0 -19 -21 -19
q-19 0 -60 1.5t-61 1.5h-73q-20 0 -58.5 -1.5t-57.5 -1.5q-17 0 -17 14q0 13 6.5 16t23.5 3h13q65 0 82 9.5t25 41.5l131 525q4 14 5 32q-15 2 -60 2q-55 0 -84 -4.5t-54.5 -22t-41 -47.5t-35.5 -86q-10 -30 -12 -31q-4 -3 -14 -3q-19 0 -19 14q0 4 5 17l61 178q4 13 9 15.5
t22 2.5h545q28 0 28 -14l-1 -14zM729 834l-155 -98q-7 -3 -12 0l-106 98q-4 4 -2.5 9t7 8t10.5 1l111 -55l141 55q6 2 9.5 -1t2.5 -8.5t-6 -8.5z" />
    <glyph glyph-name="tcaron" unicode="&#x165;" horiz-adv-x="357" 
d="M382 144q0 -7 -11 -30t-30.5 -51.5t-52.5 -50.5t-69 -22q-39 0 -66 25t-27 67q0 16 5 36l70 280h-84q-28 0 -28 14q0 13 6.5 16t23.5 3h90l39 155q9 39 42 39q10 0 19.5 -6.5t9.5 -21.5q0 -7 -4 -22l-36 -144h84q10 0 15 -0.5t9 -3.5t4 -10q0 -13 -6.5 -16t-22.5 -3h-91
l-76 -307q-3 -12 -3 -29q0 -44 29 -44q69 0 122 122q4 11 7 13.5t14 2.5q18 0 18 -12zM459 649q0 -42 -25 -87t-50.5 -70t-33.5 -25q-11 0 -11 12q0 4 7 9q69 56 88 133q-12 -8 -28 -8q-18 0 -26.5 10t-8.5 23q0 18 14.5 34t36.5 16q37 0 37 -47z" />
    <glyph glyph-name="Utilde" unicode="&#x168;" horiz-adv-x="797" 
d="M891 669q0 -17 -17 -19q-18 -1 -28 -3t-27 -8.5t-28 -22t-17 -40.5l-89 -359q-21 -88 -101.5 -163t-177.5 -75q-79 0 -135 51t-56 140q0 31 7 59l96 384q4 14 4 22q0 15 -55 15q-11 0 -15.5 0.5t-9 3.5t-4.5 10q0 19 20 19l58 -3h119q54 3 57 3q16 0 16 -14q0 -13 -7 -16
t-26 -3q-44 0 -57 -8t-19 -35l-97 -389q-10 -42 -10 -76q0 -68 35 -99t82 -31q77 0 147.5 63.5t92.5 153.5l89 357q4 15 4 24q0 38 -59 40q-19 0 -19 14q0 19 20 19q1 0 10 -0.5t31.5 -1.5t55.5 -1q19 0 35 0.5t26.5 1t18 0.5t11 0.5t4.5 0.5q15 0 15 -14zM794 828
q0 -11 -54 -53q-47 -41 -83 -41q-30 0 -54 38q-12 19 -18.5 24t-16.5 5q-29 0 -95 -59q-8 -8 -14 -8q-13 0 -13 14q0 11 53 53q51 41 83 41q20 0 32 -10.5t27 -33.5t30 -23q26 0 92 56q11 11 17 11q14 0 14 -14z" />
    <glyph glyph-name="utilde" unicode="&#x169;" horiz-adv-x="576" 
d="M602 143q-13 -60 -34 -100q-29 -53 -77 -53q-26 0 -51.5 14t-35.5 47q-53 -61 -118 -61q-50 0 -86 28.5t-36 91.5q0 26 10 65t17.5 60.5t28.5 79.5q17 43 17 67q0 31 -22 31q-31 0 -55.5 -33t-39.5 -84q-3 -14 -6 -17.5t-15 -3.5q-19 0 -19 13q0 7 8.5 29.5t23.5 51.5
t43.5 50.5t61.5 21.5q34 0 58.5 -22t24.5 -61q0 -20 -12 -50q-57 -155 -57 -212q0 -78 59 -78q43 0 75.5 36t38.5 62l68 275q9 40 42 40q30 0 30 -29q0 -5 -4 -19l-72 -292q-3 -12 -3 -29q0 -44 28 -44q40 0 67 110q4 15 5.5 19t5 6.5t12.5 2.5q19 0 19 -13zM613 639
q0 -11 -54 -53q-47 -41 -83 -41q-30 0 -54 38q-12 19 -18.5 24t-16.5 5q-29 0 -95 -59q-8 -8 -14 -8q-13 0 -13 14q0 11 53 53q51 41 83 41q20 0 32 -10.5t27 -33.5t30 -23q26 0 92 56q11 11 17 11q14 0 14 -14z" />
    <glyph glyph-name="Umacron" unicode="&#x16a;" horiz-adv-x="797" 
d="M891 669q0 -17 -17 -19q-18 -1 -28 -3t-27 -8.5t-28 -22t-17 -40.5l-89 -359q-21 -88 -101.5 -163t-177.5 -75q-79 0 -135 51t-56 140q0 31 7 59l96 384q4 14 4 22q0 15 -55 15q-11 0 -15.5 0.5t-9 3.5t-4.5 10q0 19 20 19l58 -3h119q54 3 57 3q16 0 16 -14q0 -13 -7 -16
t-26 -3q-44 0 -57 -8t-19 -35l-97 -389q-10 -42 -10 -76q0 -68 35 -99t82 -31q77 0 147.5 63.5t92.5 153.5l89 357q4 15 4 24q0 38 -59 40q-19 0 -19 14q0 19 20 19q1 0 10 -0.5t31.5 -1.5t55.5 -1q19 0 35 0.5t26.5 1t18 0.5t11 0.5t4.5 0.5q15 0 15 -14zM794 776
q0 -10 -4.5 -15t-10 -6t-16.5 -1h-298q-10 0 -15 0.5t-9 3.5t-4 10q0 10 4.5 15t9.5 6t16 1h298q29 0 29 -14z" />
    <glyph glyph-name="umacron" unicode="&#x16b;" horiz-adv-x="576" 
d="M602 143q-13 -60 -34 -100q-29 -53 -77 -53q-26 0 -51.5 14t-35.5 47q-53 -61 -118 -61q-50 0 -86 28.5t-36 91.5q0 26 10 65t17.5 60.5t28.5 79.5q17 43 17 67q0 31 -22 31q-31 0 -55.5 -33t-39.5 -84q-3 -14 -6 -17.5t-15 -3.5q-19 0 -19 13q0 7 8.5 29.5t23.5 51.5
t43.5 50.5t61.5 21.5q34 0 58.5 -22t24.5 -61q0 -20 -12 -50q-57 -155 -57 -212q0 -78 59 -78q43 0 75.5 36t38.5 62l68 275q9 40 42 40q30 0 30 -29q0 -5 -4 -19l-72 -292q-3 -12 -3 -29q0 -44 28 -44q40 0 67 110q4 15 5.5 19t5 6.5t12.5 2.5q19 0 19 -13zM617 603
q0 -10 -4.5 -15t-10 -6t-16.5 -1h-298q-10 0 -15 0.5t-9 3.5t-4 10q0 10 4.5 15t9.5 6t16 1h298q29 0 29 -14z" />
    <glyph glyph-name="Ubreve" unicode="&#x16c;" horiz-adv-x="797" 
d="M891 669q0 -17 -17 -19q-18 -1 -28 -3t-27 -8.5t-28 -22t-17 -40.5l-89 -359q-21 -88 -101.5 -163t-177.5 -75q-79 0 -135 51t-56 140q0 31 7 59l96 384q4 14 4 22q0 15 -55 15q-11 0 -15.5 0.5t-9 3.5t-4.5 10q0 19 20 19l58 -3h119q54 3 57 3q16 0 16 -14q0 -13 -7 -16
t-26 -3q-44 0 -57 -8t-19 -35l-97 -389q-10 -42 -10 -76q0 -68 35 -99t82 -31q77 0 147.5 63.5t92.5 153.5l89 357q4 15 4 24q0 38 -59 40q-19 0 -19 14q0 19 20 19q1 0 10 -0.5t31.5 -1.5t55.5 -1q19 0 35 0.5t26.5 1t18 0.5t11 0.5t4.5 0.5q15 0 15 -14zM798 905
q0 -38 -55 -99.5t-132 -61.5q-55 0 -87 35t-32 88q0 52 19 52q14 0 14 -15l-2 -11q-2 -11 -2 -19q0 -39 26 -63.5t68 -24.5q15 0 34 5t42.5 17t45 37.5t33.5 60.5q3 13 14 13q5 0 9.5 -4t4.5 -10z" />
    <glyph glyph-name="ubreve" unicode="&#x16d;" horiz-adv-x="576" 
d="M602 143q-13 -60 -34 -100q-29 -53 -77 -53q-26 0 -51.5 14t-35.5 47q-53 -61 -118 -61q-50 0 -86 28.5t-36 91.5q0 26 10 65t17.5 60.5t28.5 79.5q17 43 17 67q0 31 -22 31q-31 0 -55.5 -33t-39.5 -84q-3 -14 -6 -17.5t-15 -3.5q-19 0 -19 13q0 7 8.5 29.5t23.5 51.5
t43.5 50.5t61.5 21.5q34 0 58.5 -22t24.5 -61q0 -20 -12 -50q-57 -155 -57 -212q0 -78 59 -78q43 0 75.5 36t38.5 62l68 275q9 40 42 40q30 0 30 -29q0 -5 -4 -19l-72 -292q-3 -12 -3 -29q0 -44 28 -44q40 0 67 110q4 15 5.5 19t5 6.5t12.5 2.5q19 0 19 -13zM606 672
q0 -38 -55 -99.5t-132 -61.5q-55 0 -87 35t-32 88q0 52 19 52q14 0 14 -15l-2 -11q-2 -11 -2 -19q0 -39 26 -63.5t68 -24.5q15 0 34 5t42.5 17t45 37.5t33.5 60.5q3 13 14 13q5 0 9.5 -4t4.5 -10z" />
    <glyph glyph-name="Uring" unicode="&#x16e;" horiz-adv-x="797" 
d="M891 669q0 -17 -17 -19q-18 -1 -28 -3t-27 -8.5t-28 -22t-17 -40.5l-89 -359q-21 -88 -101.5 -163t-177.5 -75q-79 0 -135 51t-56 140q0 31 7 59l96 384q4 14 4 22q0 15 -55 15q-11 0 -15.5 0.5t-9 3.5t-4.5 10q0 19 20 19l58 -3h119q54 3 57 3q16 0 16 -14q0 -13 -7 -16
t-26 -3q-44 0 -57 -8t-19 -35l-97 -389q-10 -42 -10 -76q0 -68 35 -99t82 -31q77 0 147.5 63.5t92.5 153.5l89 357q4 15 4 24q0 38 -59 40q-19 0 -19 14q0 19 20 19q1 0 10 -0.5t31.5 -1.5t55.5 -1q19 0 35 0.5t26.5 1t18 0.5t11 0.5t4.5 0.5q15 0 15 -14zM683 823
q0 32 -48 32q-36 0 -54 -21.5t-18 -52.5q0 -32 46 -32q22 0 37.5 8t22 16.5t10.5 22t4 17.5v10zM726 821q0 -42 -38.5 -74.5t-86.5 -32.5q-33 0 -57 18t-24 52q0 41 38 73.5t87 32.5q35 0 58 -19t23 -50z" />
    <glyph glyph-name="uring" unicode="&#x16f;" horiz-adv-x="576" 
d="M602 143q-13 -60 -34 -100q-29 -53 -77 -53q-26 0 -51.5 14t-35.5 47q-53 -61 -118 -61q-50 0 -86 28.5t-36 91.5q0 26 10 65t17.5 60.5t28.5 79.5q17 43 17 67q0 31 -22 31q-31 0 -55.5 -33t-39.5 -84q-3 -14 -6 -17.5t-15 -3.5q-19 0 -19 13q0 7 8.5 29.5t23.5 51.5
t43.5 50.5t61.5 21.5q34 0 58.5 -22t24.5 -61q0 -20 -12 -50q-57 -155 -57 -212q0 -78 59 -78q43 0 75.5 36t38.5 62l68 275q9 40 42 40q30 0 30 -29q0 -5 -4 -19l-72 -292q-3 -12 -3 -29q0 -44 28 -44q40 0 67 110q4 15 5.5 19t5 6.5t12.5 2.5q19 0 19 -13zM502 636
q0 32 -48 32q-36 0 -54 -21.5t-18 -52.5q0 -32 46 -32q22 0 37.5 7.5t22 16.5t10.5 22.5t4 17.5v10zM545 634q0 -42 -38.5 -74.5t-86.5 -32.5q-33 0 -57 18t-24 52q0 41 38 73.5t87 32.5q35 0 58 -19t23 -50z" />
    <glyph glyph-name="Uhungarumlaut" unicode="&#x170;" horiz-adv-x="797" 
d="M891 669q0 -17 -17 -19q-18 -1 -28 -3t-27 -8.5t-28 -22t-17 -40.5l-89 -359q-21 -88 -101.5 -163t-177.5 -75q-79 0 -135 51t-56 140q0 31 7 59l96 384q4 14 4 22q0 15 -55 15q-11 0 -15.5 0.5t-9 3.5t-4.5 10q0 19 20 19l58 -3h119q54 3 57 3q16 0 16 -14q0 -13 -7 -16
t-26 -3q-44 0 -57 -8t-19 -35l-97 -389q-10 -42 -10 -76q0 -68 35 -99t82 -31q77 0 147.5 63.5t92.5 153.5l89 357q4 15 4 24q0 38 -59 40q-19 0 -19 14q0 19 20 19q1 0 10 -0.5t31.5 -1.5t55.5 -1q19 0 35 0.5t26.5 1t18 0.5t11 0.5t4.5 0.5q15 0 15 -14zM649 907
q0 -15 -16 -31l-109 -120q-11 -12 -19 -12q-21 5 -21 18q0 6 8 17l90 135q15 23 35 23q15 0 23.5 -9.5t8.5 -20.5zM814 907q0 -15 -16 -31l-109 -120q-11 -12 -19 -12q-21 5 -21 18q0 6 8 17l90 135q15 23 35 23q15 0 23.5 -9.5t8.5 -20.5z" />
    <glyph glyph-name="uhungarumlaut" unicode="&#x171;" horiz-adv-x="576" 
d="M602 143q-13 -60 -34 -100q-29 -53 -77 -53q-26 0 -51.5 14t-35.5 47q-53 -61 -118 -61q-50 0 -86 28.5t-36 91.5q0 26 10 65t17.5 60.5t28.5 79.5q17 43 17 67q0 31 -22 31q-31 0 -55.5 -33t-39.5 -84q-3 -14 -6 -17.5t-15 -3.5q-19 0 -19 13q0 7 8.5 29.5t23.5 51.5
t43.5 50.5t61.5 21.5q34 0 58.5 -22t24.5 -61q0 -20 -12 -50q-57 -155 -57 -212q0 -78 59 -78q43 0 75.5 36t38.5 62l68 275q9 40 42 40q30 0 30 -29q0 -5 -4 -19l-72 -292q-3 -12 -3 -29q0 -44 28 -44q40 0 67 110q4 15 5.5 19t5 6.5t12.5 2.5q19 0 19 -13zM455 665
q0 -15 -16 -31l-109 -120q-11 -12 -19 -12q-21 5 -21 18q0 6 8 17l90 135q15 23 35 23q15 0 23.5 -9.5t8.5 -20.5zM620 665q0 -15 -16 -31l-109 -120q-11 -12 -19 -12q-21 5 -21 18q0 6 8 17l90 135q15 23 35 23q15 0 23.5 -9.5t8.5 -20.5z" />
    <glyph glyph-name="Uogonek" unicode="&#x172;" horiz-adv-x="797" 
d="M891 669q0 -17 -17 -19q-18 -1 -28 -3t-27 -8.5t-28 -22t-17 -40.5l-89 -359q-21 -88 -101.5 -163t-177.5 -75h-3l-5 -4q-45 -33 -53 -70q-7 -32 17 -50.5t55 -18.5q52 0 89 56q5 8 12.5 5t3.5 -12q-21 -42 -61 -69t-78 -27q-47 0 -73 27t-18 63q11 52 78 103
q-67 11 -111 60t-44 128q0 31 7 59l96 384q4 14 4 22q0 15 -55 15q-11 0 -15.5 0.5t-9 3.5t-4.5 10q0 19 20 19l58 -3h119q54 3 57 3q16 0 16 -14q0 -13 -7 -16t-26 -3q-44 0 -57 -8t-19 -35l-97 -389q-10 -42 -10 -76q0 -68 35 -99t82 -31q77 0 147.5 63.5t92.5 153.5
l89 357q4 15 4 24q0 38 -59 40q-19 0 -19 14q0 19 20 19q1 0 10 -0.5t31.5 -1.5t55.5 -1q19 0 35 0.5t26.5 1t18 0.5t11 0.5t4.5 0.5q15 0 15 -14z" />
    <glyph glyph-name="uogonek" unicode="&#x173;" horiz-adv-x="576" 
d="M577 -115q-21 -42 -61 -69t-78 -27q-47 0 -73 27t-18 63q13 61 102 120q-34 14 -45 52q-53 -61 -118 -61q-50 0 -86 28.5t-36 91.5q0 26 10 65t17.5 60.5t28.5 79.5q17 43 17 67q0 31 -22 31q-31 0 -55.5 -33t-39.5 -84q-3 -14 -6 -17.5t-15 -3.5q-19 0 -19 13
q0 7 8.5 29.5t23.5 51.5t43.5 50.5t61.5 21.5q34 0 58.5 -22t24.5 -61q0 -20 -12 -50q-57 -155 -57 -212q0 -78 59 -78q43 0 75.5 36t38.5 62l68 275q9 40 42 40q30 0 30 -29q0 -5 -4 -19l-72 -292q-3 -12 -3 -29q0 -44 28 -44q40 0 67 110q4 15 5.5 19t5 6.5t12.5 2.5
q19 0 19 -13q-13 -60 -34 -100q-29 -53 -77 -53q-9 0 -15 1l-22 -16q-45 -33 -54 -70q-7 -32 17 -50.5t55 -18.5q52 0 89 56q5 8 12.5 5t3.5 -12z" />
    <glyph glyph-name="Wcircumflex" unicode="&#x174;" horiz-adv-x="1071" 
d="M1190 669q0 -8 -3 -12t-6.5 -5t-11.5 -2q-58 -6 -102 -84l-318 -565q-12 -22 -33 -22q-20 0 -21 18l-1 8l-32 504l-287 -509q-12 -21 -32 -21q-14 0 -17.5 5.5t-4.5 22.5l-40 611q-1 15 -3 20t-11 8.5t-29 3.5q-26 0 -26 14q0 19 19 19q3 0 10 -0.5t29 -1.5t60 -1
q18 0 54.5 1.5t53.5 1.5q15 0 15 -14q0 -19 -22 -19q-25 0 -40 -4t-20 -12t-6.5 -13.5t-0.5 -15.5l32 -495l262 463l-4 57q-2 11 -9.5 15.5t-33.5 4.5q-25 0 -25 14q0 19 19 19q3 0 10 -0.5t28.5 -1.5t59.5 -1q18 0 54.5 1.5t53.5 1.5q16 0 16 -14q0 -19 -24 -19t-38.5 -4
t-20 -12t-6.5 -13.5t0 -15.5l32 -495l264 467q13 22 13 38q0 33 -47 35q-18 0 -18 14q0 19 20 19q1 0 12 -0.5l33 -1.5t51 -1q46 0 62 1.5t17 1.5q4 0 8.5 -3.5t4.5 -10.5zM859 753q7 -5 0.5 -13.5t-14.5 -4.5l-112 55l-140 -55q-10 -4 -12.5 4.5t5.5 13.5l156 98q5 3 12 0z
" />
    <glyph glyph-name="wcircumflex" unicode="&#x175;" horiz-adv-x="713" 
d="M740 368q0 -41 -21.5 -125.5t-45.5 -135.5q-53 -117 -142 -117t-121 62q-42 -62 -103 -62q-23 0 -44 4.5t-44.5 17t-38 39.5t-14.5 66q0 32 10.5 71t43.5 127q17 43 17 67q0 31 -22 31q-31 0 -55.5 -33t-39.5 -84q-3 -14 -6 -17.5t-15 -3.5q-19 0 -19 13q0 7 8.5 29.5
t23.5 51.5t43.5 50.5t61.5 21.5q34 0 58.5 -22t24.5 -61q0 -20 -16 -61q-52 -139 -52 -192q0 -87 77 -87q34 0 60 35q27 38 28 67q1 25 8 53l54 218q9 40 42 40q13 0 21.5 -7.5t8.5 -21.5q0 -8 -10 -43l-14 -56l-25 -101q-18 -71 -18 -100q0 -84 71 -84q64 0 103 91
q15 34 31.5 94t16.5 87q0 48 -27 76q-13 13 -13 27q0 20 16 34t33 14q10 0 19 -4.5t17.5 -22t8.5 -46.5zM627 534q6 -7 -3 -14.5t-15 -1.5l-98 99l-148 -99q-9 -6 -14 1t3 15l166 144q9 8 15 0z" />
    <glyph glyph-name="Ycircumflex" unicode="&#x176;" horiz-adv-x="797" 
d="M921 669q0 -17 -21 -19q-68 -7 -128 -75l-267 -302l-43 -172q-12 -45 -12 -54q0 -14 55 -14q11 0 16 -0.5t9.5 -3.5t4.5 -10q0 -19 -20 -19q-1 0 -6 0.5t-14 1t-21.5 0.5t-32.5 0.5t-43 0.5h-58q-54 -3 -57 -3q-15 0 -15 14q0 13 6.5 16t19.5 3q53 1 64.5 9.5t24.5 57.5
q2 7 12.5 50t20 82t9.5 40q0 4 -4 15l-127 334q-4 12 -8 17t-17 8.5t-38 3.5q-24 0 -24 14q0 19 20 19q2 0 10 -0.5t32 -1.5t63 -1q19 0 57 1.5t55 1.5q16 0 16 -14q0 -19 -24 -19q-51 0 -51 -21q0 -7 5 -17l111 -292l229 260l8 10q1 2 2.5 4.5t3.5 4.5q7 8 11 16t5 12v4
q0 17 -28 19q-16 1 -16 14q0 19 20 19q1 0 11 -0.5t31.5 -1.5t48.5 -1q24 0 40.5 0.5t22 1t10 1t7.5 0.5q5 0 9.5 -4t4.5 -10zM722 753q7 -5 0.5 -13.5t-14.5 -4.5l-112 55l-140 -55q-10 -4 -12.5 4.5t5.5 13.5l156 98q5 3 12 0z" />
    <glyph glyph-name="ycircumflex" unicode="&#x177;" horiz-adv-x="521" 
d="M442 -9q-19 -73 -85 -134t-145 -61q-45 0 -74 24.5t-29 62.5q0 33 17 47t34 14t26.5 -9.5t9.5 -23.5q0 -17 -12.5 -31.5t-32.5 -18.5q16 -37 62 -37q58 0 108 63q40 52 60 140q-42 -37 -95 -37q-50 0 -86 28.5t-36 91.5q0 26 10 65t17.5 60.5t28.5 79.5q17 43 17 67
q0 31 -22 31q-31 0 -55.5 -33t-39.5 -84q-3 -14 -6 -17.5t-15 -3.5q-19 0 -19 13q0 7 8.5 29.5t23.5 51.5t43.5 50.5t61.5 21.5q34 0 58.5 -22t24.5 -61q0 -20 -12 -50q-57 -155 -57 -212q0 -78 59 -78q43 0 75.5 36t38.5 62l68 275q9 40 42 40q13 0 21.5 -7.5t8.5 -21.5
l-4 -19zM531 534q6 -7 -3 -14.5t-15 -1.5l-98 99l-148 -99q-9 -6 -14 1t3 15l166 144q9 8 15 0z" />
    <glyph glyph-name="Ydieresis" unicode="&#x178;" horiz-adv-x="797" 
d="M921 669q0 -17 -21 -19q-68 -7 -128 -75l-267 -302l-43 -172q-12 -45 -12 -54q0 -14 55 -14q11 0 16 -0.5t9.5 -3.5t4.5 -10q0 -19 -20 -19q-1 0 -6 0.5t-14 1t-21.5 0.5t-32.5 0.5t-43 0.5h-58q-54 -3 -57 -3q-15 0 -15 14q0 13 6.5 16t19.5 3q53 1 64.5 9.5t24.5 57.5
q2 7 12.5 50t20 82t9.5 40q0 4 -4 15l-127 334q-4 12 -8 17t-17 8.5t-38 3.5q-24 0 -24 14q0 19 20 19q2 0 10 -0.5t32 -1.5t63 -1q19 0 57 1.5t55 1.5q16 0 16 -14q0 -19 -24 -19q-51 0 -51 -21q0 -7 5 -17l111 -292l229 260l8 10q1 2 2.5 4.5t3.5 4.5q7 8 11 16t5 12v4
q0 17 -28 19q-16 1 -16 14q0 19 20 19q1 0 11 -0.5t31.5 -1.5t48.5 -1q24 0 40.5 0.5t22 1t10 1t7.5 0.5q5 0 9.5 -4t4.5 -10zM536 793q0 -24 -19 -41.5t-42 -17.5q-17 0 -29 11.5t-12 30.5q0 22 18.5 40t41.5 18q15 0 28.5 -10t13.5 -31zM755 793q0 -24 -19 -41.5
t-42 -17.5q-17 0 -29 11.5t-12 30.5q0 22 18.5 40t41.5 18q15 0 28.5 -10t13.5 -31z" />
    <glyph glyph-name="Zacute" unicode="&#x179;" horiz-adv-x="658" 
d="M644 255q0 -3 -4 -13l-70 -224q-4 -13 -9 -15.5t-22 -2.5h-429q-25 0 -25 11q0 14 12 27l544 612h-152q-102 0 -153 -41t-81 -130q-4 -11 -6 -15t-5.5 -6t-10.5 -2q-19 0 -19 14q0 3 3 12l55 181q5 14 9 17t22 3h413q25 0 25 -11t-13 -26l-541 -610h161q51 0 90 10.5
t63.5 26.5t44 45.5t30.5 55.5t25 70q6 18 9.5 21.5t14.5 3.5q19 0 19 -14zM694 870q-4 -19 -28 -30l-188 -91q-9 -5 -15 -5q-7 1 -11.5 9.5t-3.5 14.5q1 7 14 16l177 114q12 9 25 9q16 0 24.5 -10.5t5.5 -26.5z" />
    <glyph glyph-name="zacute" unicode="&#x17a;" horiz-adv-x="439" 
d="M465 145q0 -13 -11.5 -37.5t-31 -51t-52 -46.5t-68.5 -20q-35 0 -66 37q-19 21 -29.5 27.5t-24.5 6.5q-40 0 -77 -57q-6 -10 -9 -12t-13 -2q-19 0 -19 12q0 8 27.5 46.5t65.5 78.5q23 24 97 91q104 92 130 124q-25 1 -65 16q-35 14 -58 14q-59 0 -79 -49q-4 -11 -19 -11
q-19 0 -19 12q0 28 37.5 72.5t88.5 44.5q34 0 68 -37q28 -34 50 -34q16 0 28 11.5t35 49.5q7 10 20 10q19 0 19 -12q0 -15 -56 -83q-12 -14 -76 -80l-112 -101l-76 -76q40 0 75 -13q48 -17 67 -17q35 0 68 23.5t46 58.5q3 11 6.5 14t13.5 3q19 0 19 -13zM511 665
q0 -20 -22 -35l-169 -122q-10 -7 -14 -7q-7 0 -13 7.5t-6 13.5q0 7 11 18l154 143q14 13 28 13q12 0 21.5 -8t9.5 -23z" />
    <glyph glyph-name="Zdotaccent" unicode="&#x17b;" horiz-adv-x="658" 
d="M644 255q0 -3 -4 -13l-70 -224q-4 -13 -9 -15.5t-22 -2.5h-429q-25 0 -25 11q0 14 12 27l544 612h-152q-102 0 -153 -41t-81 -130q-4 -11 -6 -15t-5.5 -6t-10.5 -2q-19 0 -19 14q0 3 3 12l55 181q5 14 9 17t22 3h413q25 0 25 -11t-13 -26l-541 -610h161q51 0 90 10.5
t63.5 26.5t44 45.5t30.5 55.5t25 70q6 18 9.5 21.5t14.5 3.5q19 0 19 -14zM588 820q0 -26 -21 -45.5t-46 -19.5q-19 0 -32.5 12.5t-13.5 33.5q0 25 20.5 45t46.5 20q17 0 31.5 -11t14.5 -35z" />
    <glyph glyph-name="zdotaccent" unicode="&#x17c;" horiz-adv-x="439" 
d="M465 145q0 -13 -11.5 -37.5t-31 -51t-52 -46.5t-68.5 -20q-35 0 -66 37q-19 21 -29.5 27.5t-24.5 6.5q-40 0 -77 -57q-6 -10 -9 -12t-13 -2q-19 0 -19 12q0 8 27.5 46.5t65.5 78.5q23 24 97 91q104 92 130 124q-25 1 -65 16q-35 14 -58 14q-59 0 -79 -49q-4 -11 -19 -11
q-19 0 -19 12q0 28 37.5 72.5t88.5 44.5q34 0 68 -37q28 -34 50 -34q16 0 28 11.5t35 49.5q7 10 20 10q19 0 19 -12q0 -15 -56 -83q-12 -14 -76 -80l-112 -101l-76 -76q40 0 75 -13q48 -17 67 -17q35 0 68 23.5t46 58.5q3 11 6.5 14t13.5 3q19 0 19 -13zM426 608
q0 -26 -21 -45.5t-46 -19.5q-19 0 -32.5 12.5t-13.5 33.5q0 25 20.5 45t46.5 20q17 0 31.5 -11t14.5 -35z" />
    <glyph glyph-name="Zcaron" unicode="&#x17d;" horiz-adv-x="658" 
d="M644 255q0 -3 -4 -13l-70 -224q-4 -13 -9 -15.5t-22 -2.5h-429q-25 0 -25 11q0 14 12 27l544 612h-152q-102 0 -153 -41t-81 -130q-4 -11 -6 -15t-5.5 -6t-10.5 -2q-19 0 -19 14q0 3 3 12l55 181q5 14 9 17t22 3h413q25 0 25 -11t-13 -26l-541 -610h161q51 0 90 10.5
t63.5 26.5t44 45.5t30.5 55.5t25 70q6 18 9.5 21.5t14.5 3.5q19 0 19 -14zM674 834l-155 -98q-7 -3 -12 0l-106 98q-4 4 -2.5 9t7 8t10.5 1l111 -55l141 55q6 2 9.5 -1t2.5 -8.5t-6 -8.5z" />
    <glyph glyph-name="zcaron" unicode="&#x17e;" horiz-adv-x="439" 
d="M465 145q0 -13 -11.5 -37.5t-31 -51t-52 -46.5t-68.5 -20q-35 0 -66 37q-19 21 -29.5 27.5t-24.5 6.5q-40 0 -77 -57q-6 -10 -9 -12t-13 -2q-19 0 -19 12q0 8 27.5 46.5t65.5 78.5q23 24 97 91q104 92 130 124q-25 1 -65 16q-35 14 -58 14q-59 0 -79 -49q-4 -11 -19 -11
q-19 0 -19 12q0 28 37.5 72.5t88.5 44.5q34 0 68 -37q28 -34 50 -34q16 0 28 11.5t35 49.5q7 10 20 10q19 0 19 -12q0 -15 -56 -83q-12 -14 -76 -80l-112 -101l-76 -76q40 0 75 -13q48 -17 67 -17q35 0 68 23.5t46 58.5q3 11 6.5 14t13.5 3q19 0 19 -13zM523 663l-166 -144
q-9 -7 -15 0l-94 144q-5 7 3.5 14.5t14.5 1.5l98 -99l148 99q9 6 14 -1.5t-3 -14.5z" />
    <glyph glyph-name="longs" unicode="&#x17f;" horiz-adv-x="329" 
d="M472 637q-14 -55 -51 -55q-14 0 -27 7.5t-8 26.5q9 38 34 47q-7 6 -16.5 9t-15.5 4h-7q-15 0 -27 -16t-17 -32t-13 -48q-8 -35 -31.5 -158.5t-42.5 -229.5l-20 -106q-34 -139 -53 -184q-45 -106 -115 -106q-33 0 -60 17.5t-27 49.5q14 55 51 55q14 0 27 -7.5t8 -26.5
q-8 -37 -34 -48q15 -12 37 -12q33 0 54 79l33 134l68 361h-65q-8 0 -11.5 0.5t-9 1.5t-7 4t-0.5 8q3 13 8.5 16t20.5 3h64l27 109l4 18q5 17 7 24.5t8.5 26t13 28.5t17 24.5t22.5 22.5t28.5 14t35.5 6q36 0 63 -18t27 -49z" />
    <glyph glyph-name="Ereversed" unicode="&#x18e;" horiz-adv-x="727" 
d="M673 14q-7 -14 -35 -14h-502q-16 0 -19 2.5t-3 15.5l15 211q0 9 3 17q7 14 26 14q10 0 11.5 -3t1.5 -20q-5 -52 -2.5 -90.5t17 -63.5t49 -37.5t94.5 -12.5h142q19 0 29 2q8 21 9 27l69 275h-97q-49 0 -68.5 -10t-30.5 -32q-10 -21 -17 -47q-2 -11 -4 -14q-7 -14 -26 -14
q-11 0 -12.5 4.5t2.5 16.5l53 213q2 8 3.5 12.5t1.5 5.5q8 15 27 15q11 0 12.5 -4.5t-3.5 -20.5q-13 -56 2 -74t75 -18h90l61 241q5 27 0.5 31.5t-29.5 4.5h-140q-83 0 -123.5 -22.5t-70.5 -82.5q-10 -20 -24 -58l-6 -15q-8 -16 -27 -16q-12 0 -13 5.5t5 18.5l67 175l6 14
q7 14 35 14h488q11 0 15 -0.5t7.5 -4.5t-2.5 -13q-5 -10 -12 -12.5t-24 -2.5q-55 0 -63 -16q-5 -9 -7 -22l-134 -533q-6 -27 2.5 -35t52.5 -8q19 0 23.5 -2.5t-0.5 -16.5z" />
    <glyph glyph-name="florin" unicode="&#x192;" horiz-adv-x="329" 
d="M472 637q0 -23 -14.5 -39t-36.5 -16q-35 0 -35 34t34 47q-15 13 -39 13q-13 0 -22.5 -7t-16.5 -24t-10 -29t-8 -36q-6 -25 -29 -149h82q29 0 29 -14q0 -13 -7 -16t-23 -3h-87l-59 -312q-10 -55 -21.5 -96.5t-31 -90.5t-49 -76t-66.5 -27q-33 0 -60 17.5t-27 49.5
q0 23 14.5 39t36.5 16q35 0 35 -34t-34 -48q15 -12 37 -12q35 0 56 79q17 61 31 134l68 361h-65q-28 0 -28 14q0 13 6.5 16t22.5 3h70l21 109q30 164 136 164q36 0 63 -18t27 -49z" />
    <glyph glyph-name="Ohorn" unicode="&#x1a0;" horiz-adv-x="823" 
d="M823 338q-38 -150 -160 -254q-123 -105 -258 -105t-206 105q-45 69 -45 159q0 43 13 95q36 151 160 259q123 107 259 107q91 0 158 -54q34 1 64 33h-2q-21 0 -33.5 12.5t-12.5 31.5q0 26 19.5 46.5t47.5 20.5q20 0 32 -14t13 -36q0 -8 -3 -19q-9 -37 -35.5 -66t-59.5 -39
q10 -11 17 -23q44 -67 44 -160q0 -48 -12 -99zM733 355q16 64 16 117q0 64 -22 109q-21 42 -59.5 67t-89.5 25q-102 0 -194 -92q-83 -83 -119 -226q-19 -71 -19 -134q0 -62 20 -111q20 -45 58 -71.5t89 -26.5q105 0 196 98q87 95 124 245z" />
    <glyph glyph-name="ohorn" unicode="&#x1a1;" horiz-adv-x="548" 
d="M613 473q-9 -38 -37 -68t-62 -38q25 -41 25 -94q0 -27 -8 -61q-24 -94 -98 -157q-75 -65 -160 -65q-86 0 -130 68q-28 41 -28 100q0 28 8 60q22 92 98 157q76 66 159 66q65 0 110 -43q34 2 61 32h-1q-21 0 -33.5 13t-13.5 32q0 26 20 46t48 21q20 -1 32 -15t12 -35
q0 -13 -2 -19zM450 218q14 54 14 90q0 28 -9 52q-22 53 -76 53q-58 0 -108 -57q-45 -50 -67 -144q-14 -53 -14 -89q0 -29 9 -52q20 -54 75 -54q57 0 109 57q43 48 67 144z" />
    <glyph glyph-name="Uhorn" unicode="&#x1af;" horiz-adv-x="796" 
d="M915 722q-11 -45 -49.5 -78t-84.5 -38l-96 -382q-25 -102 -106 -173q-80 -72 -172 -72q-102 0 -157 75q-36 50 -36 116q0 27 8 61l97 386q3 12 3 20l-2 7q-10 6 -68 6h-1l-3 1q-11 2 -11 13l1 3l1 6q3 10 14 10h3l120 -3l119 3h2q10 -3 10 -14v-3l-2 -5q-2 -11 -13 -11
q-60 0 -74 -7q-12 -5 -18 -32l-97 -387q-12 -50 -12 -82q0 -41 15 -71q32 -59 103 -59q79 0 150 63q72 64 94 156l90 358q3 12 3 21q0 15 -8 25q-15 15 -55 15l-4 1q-10 2 -10 13v3l1 6q3 10 14 10h98h2h-97q48 -3 95 -3l4 3q10 -3 10 -14v-3l-6 -22q37 7 65 39h-2
q-22 0 -34.5 12.5t-12.5 31.5q0 26 19.5 46.5t47.5 20.5q21 0 32.5 -14.5t11.5 -36.5q0 -14 -2 -21z" />
    <glyph glyph-name="uhorn" unicode="&#x1b0;" horiz-adv-x="576" 
d="M601 140q-19 -75 -43 -112.5t-66 -37.5q-33 0 -56.5 16.5t-32.5 43.5q-51 -60 -116 -60q-77 0 -106 50q-17 28 -17 69q0 31 9 67q10 42 51 151q12 30 12 56q0 30 -20 30q-33 0 -58 -35t-40 -94q-2 -9 -12 -9h-14h-3q-9 4 -9 12l1 3q16 64 52 107.5t83 43.5
q37 0 60.5 -23.5t23.5 -59.5q0 -18 -8 -39q-38 -101 -51 -149q-11 -46 -11 -75q0 -23 6 -42q13 -36 52 -36q65 0 113 87l1 6l72 289q8 31 40 31q13 0 21.5 -7.5t8.5 -20.5q0 -4 -1 -7q31 10 58 35h-1q-21 0 -33.5 13t-12.5 32q0 26 19.5 46t47.5 21q20 -1 32 -15.5t12 -35.5
q0 -11 -3 -22q-10 -42 -46 -73t-82 -40l-63 -251q-6 -24 -6 -45q0 -43 28 -43q22 0 37 30t33 99q2 10 12 10h14l3 -1q9 -2 9 -12v-3z" />
    <glyph glyph-name="Acaron" unicode="&#x1cd;" horiz-adv-x="797" 
d="M739 19q0 -19 -19 -19q-2 0 -11 1t-32.5 1.5t-61.5 0.5q-19 0 -56.5 -1.5t-54.5 -1.5q-16 0 -16 14q0 13 6.5 16t20.5 3q28 0 42.5 7.5t16.5 15t1 20.5l-15 155h-253q-49 -82 -50 -84q-40 -67 -40 -83q0 -27 37 -31q18 0 18 -14q0 -19 -20 -19l-10 1q-11 1 -32.5 1.5
t-49.5 0.5q-30 0 -48 -0.5t-25 -1.5t-9 -1q-14 0 -14 14q0 8 3.5 12t7 5t11.5 2q67 6 114 85l343 575q13 21 33 21q13 0 17 -5t6 -22l60 -621q1 -14 3.5 -19.5t13.5 -9.5t35 -4q10 0 15 -0.5t9 -3.5t4 -10zM557 264l-32 330l-198 -330h230zM743 834l-155 -98q-7 -3 -12 0
l-106 98q-4 4 -2.5 9t7 8t10.5 1l111 -55l141 55q6 2 9.5 -1t2.5 -8.5t-6 -8.5z" />
    <glyph glyph-name="acaron" unicode="&#x1ce;" 
d="M565 143q-13 -60 -34 -100q-29 -53 -77 -53q-35 0 -59 19.5t-31 48.5q-60 -68 -129 -68q-57 0 -94.5 44.5t-37.5 115.5q0 107 75.5 199t163.5 92q58 0 92 -56q3 19 15.5 28t25.5 9t21.5 -8t8.5 -20q0 -1 -4 -21l-70 -282q-3 -12 -3 -29q0 -44 28 -44q40 0 67 110
q4 15 5.5 19t5 6.5t12.5 2.5q19 0 19 -13zM371 133l42 171l3 14q0 11 -4.5 30t-23 42t-46.5 23q-61 0 -112 -93q-18 -34 -36 -104.5t-18 -106.5t15 -63.5t47 -27.5q40 0 83 42t50 73zM578 663l-166 -144q-9 -7 -15 0l-94 144q-5 7 3.5 14.5t14.5 1.5l98 -99l148 99
q9 6 14 -1.5t-3 -14.5z" />
    <glyph glyph-name="Icaron" unicode="&#x1cf;" horiz-adv-x="413" 
d="M350 19q0 -19 -21 -19q-22 0 -58 3h-128q-48 -3 -57 -3q-16 0 -16 14q0 13 7 16t23 3q50 0 63.5 7.5t20.5 36.5l135 540q3 12 3 18q0 15 -59 15q-17 0 -23.5 2t-6.5 12q0 19 20 19q1 0 13 -0.5t41 -1.5t69 -1h64q36 3 57 3q6 0 10 -3.5t5 -7.5v-3q0 -13 -7 -16t-25 -3
q-49 0 -62 -8t-19 -35l-134 -536q-4 -14 -4 -22q0 -16 59 -16q11 0 16 -0.5t9.5 -3.5t4.5 -10zM551 834l-155 -98q-7 -3 -12 0l-106 98q-4 4 -2.5 9t7 8t10.5 1l111 -55l141 55q6 2 9.5 -1t2.5 -8.5t-6 -8.5z" />
    <glyph glyph-name="icaron" unicode="&#x1d0;" horiz-adv-x="329" 
d="M355 143q0 -7 -8.5 -29.5t-23.5 -51t-43 -50.5t-61 -22q-37 0 -60.5 24t-23.5 59q0 19 11 46l70 186q20 54 20 77q0 31 -22 31q-33 0 -56.5 -34.5t-37.5 -82.5q-3 -14 -6 -17.5t-15 -3.5q-19 0 -19 13q0 12 13 45.5t46.5 70.5t76.5 37q34 0 58.5 -22t24.5 -61
q0 -19 -12 -52l-66 -174q-22 -58 -22 -82q0 -32 22 -32q30 0 54.5 32.5t38.5 84.5q4 14 7.5 17.5t14.5 3.5q19 0 19 -13zM468 663l-166 -144q-9 -7 -15 0l-94 144q-5 7 3.5 14.5t14.5 1.5l98 -99l148 99q9 6 14 -1.5t-3 -14.5z" />
    <glyph glyph-name="Ocaron" unicode="&#x1d1;" horiz-adv-x="823" 
d="M836 436q0 -86 -38 -171t-98 -147t-138 -100.5t-156 -38.5q-114 0 -183 75t-69 189q0 111 62 218.5t163 175t207 67.5q109 0 179.5 -73.5t70.5 -194.5zM750 471q0 97 -49 149.5t-123 52.5q-65 0 -132.5 -42t-113.5 -116q-47 -73 -66.5 -155t-19.5 -139q0 -101 48 -155
t120 -54q70 0 134.5 45t107.5 113t68.5 148.5t25.5 152.5zM756 834l-155 -98q-7 -3 -12 0l-106 98q-4 4 -2.5 9t7 8t10.5 1l111 -55l141 55q6 2 9.5 -1t2.5 -8.5t-6 -8.5z" />
    <glyph glyph-name="ocaron" unicode="&#x1d2;" 
d="M540 272q0 -108 -83 -195t-183 -87q-67 0 -113 45t-46 124q0 109 83.5 195.5t181.5 86.5q69 0 114.5 -46.5t45.5 -122.5zM465 307q0 51 -24 78.5t-62 27.5q-31 0 -69 -23t-67 -72q-23 -39 -38 -98t-15 -96q0 -55 25.5 -80.5t59.5 -25.5q36 0 73 25.5t61 66.5
q27 45 41.5 104.5t14.5 92.5zM578 663l-166 -144q-9 -7 -15 0l-94 144q-5 7 3.5 14.5t14.5 1.5l98 -99l148 99q9 6 14 -1.5t-3 -14.5z" />
    <glyph glyph-name="Ucaron" unicode="&#x1d3;" horiz-adv-x="797" 
d="M891 669q0 -17 -17 -19q-18 -1 -28 -3t-27 -8.5t-28 -22t-17 -40.5l-89 -359q-21 -88 -101.5 -163t-177.5 -75q-79 0 -135 51t-56 140q0 31 7 59l96 384q4 14 4 22q0 15 -55 15q-11 0 -15.5 0.5t-9 3.5t-4.5 10q0 19 20 19l58 -3h119q54 3 57 3q16 0 16 -14q0 -13 -7 -16
t-26 -3q-44 0 -57 -8t-19 -35l-97 -389q-10 -42 -10 -76q0 -68 35 -99t82 -31q77 0 147.5 63.5t92.5 153.5l89 357q4 15 4 24q0 38 -59 40q-19 0 -19 14q0 19 20 19q1 0 10 -0.5t31.5 -1.5t55.5 -1q19 0 35 0.5t26.5 1t18 0.5t11 0.5t4.5 0.5q15 0 15 -14zM767 834l-155 -98
q-7 -3 -12 0l-106 98q-4 4 -2.5 9t7 8t10.5 1l111 -55l141 55q6 2 9.5 -1t2.5 -8.5t-6 -8.5z" />
    <glyph glyph-name="ucaron" unicode="&#x1d4;" horiz-adv-x="576" 
d="M602 143q-13 -60 -34 -100q-29 -53 -77 -53q-26 0 -51.5 14t-35.5 47q-53 -61 -118 -61q-50 0 -86 28.5t-36 91.5q0 26 10 65t17.5 60.5t28.5 79.5q17 43 17 67q0 31 -22 31q-31 0 -55.5 -33t-39.5 -84q-3 -14 -6 -17.5t-15 -3.5q-19 0 -19 13q0 7 8.5 29.5t23.5 51.5
t43.5 50.5t61.5 21.5q34 0 58.5 -22t24.5 -61q0 -20 -12 -50q-57 -155 -57 -212q0 -78 59 -78q43 0 75.5 36t38.5 62l68 275q9 40 42 40q30 0 30 -29q0 -5 -4 -19l-72 -292q-3 -12 -3 -29q0 -44 28 -44q40 0 67 110q4 15 5.5 19t5 6.5t12.5 2.5q19 0 19 -13zM592 663
l-166 -144q-9 -7 -15 0l-94 144q-5 7 3.5 14.5t14.5 1.5l98 -99l148 99q9 6 14 -1.5t-3 -14.5z" />
    <glyph glyph-name="Udieresisacute" unicode="&#x1d7;" horiz-adv-x="797" 
d="M891 669q0 -17 -17 -19q-18 -1 -28 -3t-27 -8.5t-28 -22t-17 -40.5l-89 -359q-21 -88 -101.5 -163t-177.5 -75q-79 0 -135 51t-56 140q0 31 7 59l96 384q4 14 4 22q0 15 -55 15q-11 0 -15.5 0.5t-9 3.5t-4.5 10q0 19 20 19l58 -3h119q54 3 57 3q16 0 16 -14q0 -13 -7 -16
t-26 -3q-44 0 -57 -8t-19 -35l-97 -389q-10 -42 -10 -76q0 -68 35 -99t82 -31q77 0 147.5 63.5t92.5 153.5l89 357q4 15 4 24q0 38 -59 40q-19 0 -19 14q0 19 20 19q1 0 10 -0.5t31.5 -1.5t55.5 -1q19 0 35 0.5t26.5 1t18 0.5t11 0.5t4.5 0.5q15 0 15 -14zM560 793
q0 -24 -19 -41.5t-42 -17.5q-17 0 -29 11.5t-12 30.5q0 22 18.5 40t41.5 18q15 0 28.5 -10t13.5 -31zM779 793q0 -24 -19 -41.5t-42 -17.5q-17 0 -29 11.5t-12 30.5q0 22 18.5 40t41.5 18q15 0 28.5 -10t13.5 -31zM825 1020q-4 -19 -28 -30l-188 -91q-9 -5 -15 -5
q-7 1 -11.5 9.5t-3.5 14.5q1 7 14 16l177 114q12 9 25 9q16 0 24.5 -10.5t5.5 -26.5z" />
    </font>
</defs>
</svg>
