<?xml version="1.0" standalone="no"?>
<!DOCTYPE svg PUBLIC "-//W3C//DTD SVG 1.1//EN" "http://www.w3.org/Graphics/SVG/1.1/DTD/svg11.dtd" >
<svg>
<metadata>
Created by FontForge 20120731 at Mon Jul 14 22:19:51 2014
 By tom,,,
Copyright 2003, 2009 B. Jackowski and J. M. Nowacki (on behalf of TeX users groups). This work is released under the GUST Font License --  see http://tug.org/fonts/licenses/GUST-FONT-LICENSE.txt for details.
</metadata>
<defs>
<font id="lmromanunsl10-regular" horiz-adv-x="556" >
  <font-face 
    font-family="LM Roman Unslanted 10"
    font-weight="400"
    font-stretch="normal"
    units-per-em="1000"
    panose-1="0 0 5 0 0 0 0 0 0 0"
    ascent="806"
    descent="-194"
    x-height="441"
    cap-height="683"
    bbox="-458.545 -292 1443.68 1124"
    underline-thickness="40"
    underline-position="-106"
    unicode-range="U+0020-FB04"
  />
<missing-glyph horiz-adv-x="280" 
 />
    <glyph glyph-name="I_J" unicode="IJ" horiz-adv-x="946" 
d="M350 19q4 -19 -17 -19q-23 0 -59 3h-130q-48 -3 -57 -3q-17 0 -20 14q-3 13 3 16t23 3q51 0 62.5 7.5t10.5 36.5v540v18q-4 15 -64 15q-17 0 -24.5 2t-9.5 12q-5 19 15 19q1 0 13.5 -0.5t42 -1.5t70.5 -1h64q36 3 57 3q7 0 11.5 -3.5t6.5 -7.5l1 -3q3 -13 -3 -16t-24 -3
q-49 0 -60.5 -8t-11.5 -35v-536v-22q6 -16 66 -16q30 0 34 -14zM862 669q3 -13 -3 -16t-20 -3q-30 0 -37.5 -7t-7.5 -35v-471q0 -60 -50.5 -109t-124.5 -49q-57 0 -101 30.5t-56 78.5q-8 31 1.5 49t20 21.5t19.5 3.5q19 0 33.5 -11t18.5 -28q5 -15 -4 -35.5t-43 -21.5
q16 -31 45 -45t56 -14q43 0 72 41.5t29 100.5v465v17q-2 6 -6.5 9.5t-10.5 4.5t-20 3q-18 2 -44 2h-9q-29 0 -33 14q-2 9 1.5 13.5t7 5t9.5 0.5q21 0 65.5 -1.5t66.5 -1.5q32 0 54 0.5t30.5 1t14.5 1t8 0.5q14 0 18 -14z" />
    <glyph glyph-name="i_j" unicode="ij" horiz-adv-x="633" 
d="M198 608q7 -26 -9.5 -45.5t-42.5 -19.5q-19 0 -35.5 12.5t-22.5 33.5q-6 25 10 45t42 20q17 0 34.5 -11t23.5 -35zM533 608q7 -26 -9.5 -45.5t-42.5 -19.5q-19 0 -35.5 12.5t-22.5 33.5q-6 25 10 45t42 20q17 0 34.5 -11t23.5 -35zM323 143q2 -7 -1 -29.5t-11 -51
t-30.5 -50.5t-56.5 -22q-38 0 -67.5 24t-38.5 59q-5 22 0 46l24 186q6 54 0 77q-7 31 -30 31q-33 0 -48 -35t-17 -82v-11t-2 -6t-5 -3.5t-9 -0.5q-20 0 -23 13q-2 7 1 29.5t11 51.5t31 50.5t56 21.5q35 0 65 -22t40 -61q5 -21 1 -52l-23 -174q-7 -59 -1 -82q7 -32 30 -32
q31 0 47 32.5t18 84.5q1 10 1.5 13.5t4 5.5t11.5 2q19 0 22 -13zM556 -52q0 -65 -44.5 -108.5t-107.5 -43.5q-39 0 -67.5 16t-35.5 43q-6 22 5 37.5t32 15.5q36 0 45 -34q7 -29 -17 -44q18 -6 31 -6q42 0 64.5 39.5t22.5 85.5v393q0 12 -4 27q-11 44 -42 44q-27 0 -53 -26
t-37 -96q-1 -6 -1.5 -8t-2.5 -4.5t-5 -3t-9 -0.5q-19 0 -22 12q-2 7 4 30t18 51.5t40 50.5t64 22q41 0 74.5 -25.5t43.5 -66.5q4 -28 4 -35v-366z" />
    <glyph glyph-name="f_k" unicode="fk" horiz-adv-x="860" 
d="M849 143q1 -9 -2 -43t-12 -58q-23 -52 -70 -52q-42 0 -75 28t-44 71q-4 15 -4 30q0 16 -3 25q-17 68 -134 82v-198q0 -38 -32 -38q-15 0 -25.5 9t-12.5 20q-1 4 -1 15l1 364h-243l21 -357q4 -31 1 -73.5t-10 -80.5t-30 -64.5t-59 -26.5q-35 0 -66.5 18t-39.5 49
q-5 23 5.5 39t32.5 16q36 0 44 -34q9 -34 -23 -48q16 -12 41 -12q9 0 13.5 1.5t12.5 11.5t9 31.5t4 60.5t-3 100l-23 369h-67q-28 0 -32 14q-3 13 3 16t23 3h71q-8 100 -6 142t18 72q35 59 149 59q134 0 152 -64h1q0 4 0.5 16t0.5 19q0 14 3.5 16.5t20.5 2.5h16q30 0 30 -12
v-17v-400q36 19 81 84q33 47 62.5 69.5t65.5 22.5q34 0 56.5 -19.5t29.5 -46.5t-4.5 -42.5t-32.5 -15.5q-35 0 -44 34q-5 19 5 32.5t25 16.5q-11 13 -29 13q-56 0 -112 -86q-37 -52 -66 -75q146 -24 167 -107q3 -13 3 -31q0 -26 6 -50q11 -46 42 -46q30 0 39.5 31.5
t9.5 86.5q0 12 3 16t14 4q20 0 23 -13zM435 431l-1 173h-1q-2 -8 -12 -15t-25 -7q-35 0 -44 34q-3 13 1.5 24t9.5 15.5t9 6.5q-30 14 -83 14q-58 0 -79 -19t-26 -49q-2 -27 6 -177h245z" />
    <glyph glyph-name="f_f" unicode="ff" horiz-adv-x="667" 
d="M650 637q6 -23 -5 -39t-33 -16q-36 0 -44 34q-1 4 -2 11t5 18.5t20 16.5q-22 14 -49 14q-15 0 -24.5 -8.5t-12 -21t-3.5 -28t0 -29.5l10 -158h83q28 0 32 -14q3 -13 -3 -16t-22 -3h-89l19 -305q1 -8 2.5 -45t-2.5 -90t-16 -78q-4 -10 -13 -22.5t-24 -27t-39 -24.5
t-52 -10q-44 0 -80 17t-44 50q-6 23 4.5 39t32.5 16q36 0 44 -34q8 -33 -20 -46q24 -14 57 -14q35 0 61 35q13 18 17 33t6 51q1 59 -2 117l-21 338h-251l20 -324q18 -278 -97 -278q-36 0 -66.5 18t-39.5 49q-5 23 5.5 39t32.5 16q36 0 44 -34q9 -34 -23 -48q16 -12 41 -12
q35 0 38 78v4q2 52 -3 124l-22 368h-67q-28 0 -32 14q-3 13 3 16t23 3h71l-7 102q-5 81 27.5 126t122.5 45q60 0 95 -18.5t43 -48.5q6 -23 -5 -39t-33 -16q-36 0 -44 34q-8 32 21 45q-29 15 -69 15q-34 0 -55 -13t-27 -28q-11 -25 -5 -118q2 -23 3 -43t3 -43h251l-7 115
q-9 158 101 158q41 0 74 -18.5t41 -48.5z" />
    <glyph glyph-name="f_i" unicode="fi" horiz-adv-x="611" 
d="M601 143q2 -60 -9 -100q-17 -53 -65 -53q-37 0 -71 24.5t-45 67.5q-4 13 -4 36v280h-215l20 -323q5 -42 2.5 -91t-9 -91t-30 -69.5t-61.5 -27.5q-33 0 -65 17.5t-40 49.5q-5 23 5.5 39t32.5 16q36 0 44 -34q9 -33 -22 -48q18 -12 40 -12q35 0 38 80q1 55 -3 137l-23 357
h-66q-28 0 -32 14q-3 13 3 16t22 3h72l-7 97q-3 48 8 82.5t28.5 52t46 27.5t50.5 12t53 2q157 0 177 -75q7 -25 -5 -41t-33 -16q-36 0 -45 34q-4 15 2.5 27t14.5 17l8 4q-36 22 -110 22q-46 0 -73 -9t-38 -28t-13.5 -47.5t0.5 -66.5l6 -94h257q26 0 29 -12q1 -3 1 -13
l1 -315q0 -11 5 -29q11 -44 39 -44q40 0 40 110q0 15 0.5 19t3.5 6.5t12 2.5q19 0 23 -13z" />
    <glyph glyph-name="f_l" unicode="fl" horiz-adv-x="639" 
d="M629 143q2 -60 -9 -100q-15 -53 -65 -53q-37 0 -71 24.5t-45 67.5q-4 13 -4 36v280h-243l21 -357q4 -31 1 -73.5t-10 -80.5t-30 -64.5t-59 -26.5q-35 0 -66.5 18t-39.5 49q-5 23 5.5 39t32.5 16q36 0 44 -34q9 -34 -23 -48q16 -12 41 -12q9 0 13.5 1.5t12.5 11.5t9 31.5
t4 60.5t-3 100l-23 369h-67q-28 0 -32 14q-3 13 3 16t23 3h71q-8 100 -6 142t18 72q35 59 149 59q134 0 152 -64h1q0 4 0.5 16t0.5 19q0 14 3.5 16.5t20.5 2.5h16q27 0 30 -12l2 -591q0 -15 4 -29q11 -44 39 -44q41 0 40 110q0 20 2 24t15 4q19 0 22 -13zM435 431l-1 173h-1
q-2 -8 -12 -15t-25 -7q-35 0 -44 34q-3 13 1.5 24t9.5 15.5t9 6.5q-30 14 -83 14q-58 0 -79 -19t-26 -49q-2 -27 6 -177h245z" />
    <glyph glyph-name="f_f_i" unicode="&#xfb00;i" horiz-adv-x="958" 
d="M948 143q2 -60 -9 -100q-15 -53 -65 -53q-37 0 -71 24.5t-45 67.5q-4 13 -4 36v280h-229l19 -312q1 -12 2 -45.5t-3.5 -86t-16.5 -77.5q-5 -9 -12 -18t-23 -25.5t-41.5 -27t-55.5 -10.5q-49 0 -85 17.5t-44 49.5q-6 23 4.5 39t32.5 16q36 0 44 -34q8 -33 -20 -46
q26 -14 62 -14q39 0 68 38q19 26 20 76q3 65 -1 124l-21 336h-262l20 -321q5 -43 2.5 -92.5t-9 -91.5t-30 -69.5t-60.5 -27.5q-35 0 -66.5 18t-39.5 49q-5 23 5.5 39t32.5 16q36 0 44 -34q9 -34 -23 -48q16 -12 41 -12q9 0 13.5 1.5t12.5 11.5t9.5 32t4 62t-3.5 102l-23 365
h-66q-29 0 -33 14q-3 13 3.5 16t22.5 3h71q-7 87 -6 133.5t16 74.5q34 65 147 65q134 0 151 -67q6 -23 -5 -39t-33 -16q-35 0 -44 34q-3 13 1.5 24t9.5 15.5t9 6.5q-30 14 -80 14q-32 0 -53.5 -7t-31 -19t-12.5 -21.5t-4 -22.5q-4 -42 6 -175h261l-5 93q-3 50 8.5 86
t29 53.5t48.5 27.5t51.5 11.5t53.5 1.5q166 0 185 -74q6 -26 -5 -42t-32 -16q-36 0 -45 34q1 2 -1 10t4.5 20t21.5 17q-36 23 -119 23q-71 0 -98.5 -19.5t-31.5 -73.5t6 -152h271q27 0 30 -12q0 -1 0.5 -5.5t0.5 -7.5l1 -315q0 -15 4 -29q11 -44 39 -44q41 0 40 110
q0 20 2 24t15 4q19 0 22 -13z" />
    <glyph glyph-name="f_f_l" unicode="ffl" horiz-adv-x="972" 
d="M962 143q2 -60 -9 -100q-15 -53 -64 -53q-38 0 -72 24.5t-45 67.5q-4 20 -4 36v280h-243l20 -336q6 -84 -8 -154q-9 -42 -48 -77t-95 -35q-49 0 -85 17.5t-44 49.5q-6 23 4.5 39t32.5 16q36 0 44 -34q8 -33 -20 -46q26 -14 62 -14q35 0 57.5 25t26.5 47q9 35 3 164
l-21 338h-261l20 -326q16 -276 -98 -276q-35 0 -66.5 18t-39.5 49q-5 23 5.5 39t32.5 16q36 0 44 -34q9 -34 -23 -48q16 -12 41 -12q38 0 38 79q2 62 -2 125l-23 370h-66q-28 0 -32 14q-3 13 3 16t22 3h71l-6 104q-5 80 27.5 124.5t121.5 44.5q61 0 95.5 -19.5t42.5 -47.5
q6 -23 -5 -39t-33 -16q-36 0 -44 34q-8 32 21 45q-29 15 -69 15q-36 0 -56.5 -13.5t-25.5 -25.5q-8 -23 -4 -120q1 -19 1.5 -30.5t2 -25t2.5 -30.5h262q-9 96 -6.5 141t22.5 77q33 55 145 55q133 0 153 -64h1v35q0 14 3.5 16.5t20.5 2.5h17q26 0 29 -12l2 -591q0 -15 4 -29
q11 -44 40 -44q40 0 40 110q-1 19 1.5 23.5t14.5 4.5q19 0 22 -13zM768 431v173h-1q-3 -8 -13 -15t-24 -7q-36 0 -44 34q-4 13 0.5 24t9.5 15.5t9 6.5q-30 14 -83 14q-41 0 -65.5 -12.5t-30.5 -24.5t-9 -30q-4 -39 6 -178h245z" />
    <glyph glyph-name=".notdef" horiz-adv-x="280" 
 />
    <glyph glyph-name=".null" horiz-adv-x="0" 
 />
    <glyph glyph-name="nonmarkingreturn" horiz-adv-x="333" 
 />
    <glyph glyph-name="space" unicode=" " horiz-adv-x="389" 
 />
    <glyph glyph-name="exclam" unicode="!" horiz-adv-x="333" 
d="M222 647l-36 -439q-1 -12 -4 -14.5t-14 -2.5q-19 0 -22 13l-1 13l-36 439q-2 33 16.5 46t36.5 13q21 0 37.5 -12t21.5 -32q3 -12 1 -24zM221 65q6 -25 -10 -45t-42 -20q-17 0 -34.5 11t-23.5 35q-7 26 9.5 45.5t41.5 19.5q19 0 36 -12.5t23 -33.5z" />
    <glyph glyph-name="quotedbl" unicode="&#x22;" horiz-adv-x="444" 
d="M202 669l-16 -246h-39l-16 246q-1 15 10 25t26 10t25.5 -10t9.5 -25zM312 669l-17 -246h-39l-15 246q-1 15 9.5 25t25.5 10q16 0 26.5 -10t9.5 -25z" />
    <glyph glyph-name="numbersign" unicode="#" horiz-adv-x="889" 
d="M804 144q3 -11 -3 -16.5t-12.5 -6t-18.5 -0.5h-222l-80 -295q-2 -8 -3.5 -11t-5 -6t-10.5 -3q-10 0 -18.5 7t-10.5 16q-1 6 3 20l72 272h-173l-79 -295q-3 -8 -4 -11t-5 -6t-11 -3q-10 0 -18.5 7t-10.5 16q-1 3 3 20l72 272h-140q-40 0 -46 23q-3 11 2.5 16.5t11 6
t16.5 0.5h170l44 166h-204q-34 0 -40 23q-3 11 3.5 16.5t13 6t17.5 0.5h222l80 295q2 8 3.5 11t5 6t10.5 3q10 0 18.5 -7t10.5 -16q1 -6 -3 -20l-72 -272h173l80 295q2 8 3.5 11t5 6t10.5 3q10 0 18.5 -7t10.5 -16q1 -3 -3 -20l-72 -272h140q40 0 46 -23q3 -11 -2.5 -16.5
t-11 -6t-16.5 -0.5h-170l-44 -166h204q34 0 40 -23zM553 333h-175l-44 -166h175z" />
    <glyph glyph-name="dollar" unicode="$" horiz-adv-x="538" 
d="M474 228q15 -90 -41 -160.5t-148 -76.5l1 -47h-34l-1 47q-79 4 -128.5 47.5t-60.5 108.5q-13 84 43 84q15 0 30 -10t19 -31q4 -22 -8.5 -37.5t-36.5 -15.5q-10 0 -13 1q14 -58 58 -85t98 -30v295q-48 11 -72 21t-52 33q-56 47 -66 112q-13 74 35 139t142 79q9 2 11 4.5
t2 13.5v30h33l1 -47q73 -3 124.5 -40.5t63.5 -106.5q14 -79 -42 -79q-14 0 -30 9t-20 32q-3 22 10 37.5t36 15.5q9 0 11 -1q-11 49 -59 76q-44 22 -94 25v-267q27 -6 41 -10t37.5 -15.5t42.5 -28.5q52 -48 67 -122zM253 670q-70 -8 -108 -52t-29 -96q15 -83 135 -111z
M421 190q-16 94 -135 120v-286q67 8 105.5 58.5t29.5 107.5z" />
    <glyph glyph-name="percent" unicode="%" horiz-adv-x="889" 
d="M721 727q2 -8 -7 -21l-499 -748q-9 -14 -20 -14q-8 0 -17 6.5t-12 16.5q-2 8 7 22l432 648v1q-54 -24 -113 -24q-79 0 -151 41q10 -28 12 -36q13 -65 3.5 -125.5t-44 -103.5t-81.5 -43q-44 0 -84 36t-56 101q-25 100 18 183t115 83q18 0 35 -7t23.5 -12t21.5 -18
q78 -71 182 -71q122 0 185 93q11 15 21 15t18.5 -7t10.5 -16zM796 216q13 -66 4 -126.5t-44 -103t-82 -42.5q-45 0 -84.5 37t-55.5 100q-25 99 18 182.5t117 83.5q45 0 79 -38.5t48 -92.5zM313 623q-11 44 -33 71.5t-49 27.5q-32 0 -52.5 -32t-26 -76.5t-4.5 -87.5t8 -71
q8 -30 26 -55t44 -25q32 0 58 38t34 93t-5 117zM757 221q-8 34 -29.5 66t-52.5 32q-32 0 -52.5 -32t-26.5 -76.5t-4.5 -88t8.5 -71.5q1 -5 4.5 -15t11.5 -26t22 -27t31 -11q33 0 59.5 38.5t34 94t-5.5 116.5z" />
    <glyph glyph-name="ampersand" unicode="&#x26;" horiz-adv-x="833" 
d="M714 304q6 -26 7 -56.5t-5 -68.5t-26.5 -72.5t-52.5 -63.5t-88 -46.5t-128 -17.5q-131 0 -221.5 59t-111.5 142q-12 39 0 100.5t46 106.5q-21 31 -30 68q-24 94 25.5 177t135.5 83q51 0 92.5 -33t54.5 -84q19 -77 -35 -77q-34 0 -44 34v18.5t10.5 20t28.5 10.5
q-12 41 -40.5 62t-59.5 21q-64 0 -90.5 -81t-6.5 -178q45 34 97 34q36 0 58.5 -19.5t28.5 -44.5q9 -34 -14 -64t-67 -30q-52 0 -98 34q-12 -42 -13.5 -93t6.5 -81q20 -78 88 -117.5t154 -39.5q80 0 136.5 24t82.5 59t38 78t11 75.5t-8 57.5q-18 71 -92 142
q-19 -13 -26.5 -18t-21.5 -15.5t-19.5 -15.5t-14.5 -13.5t-11.5 -15t-5.5 -15t-2.5 -17t2.5 -18.5q4 -13 12 -24q5 33 39 33q16 0 28 -10t16 -24q4 -15 -5.5 -31.5t-34.5 -16.5q-31 0 -58 21t-35 53q-3 13 -3.5 25t3 23t8 20.5t13 19t16 16.5t19 15.5t19.5 14.5t21 14
q27 20 41.5 32t36 44t29.5 72q-32 5 -39 33q-5 19 6 34t32 15q35 0 43 -33q4 -4 1.5 -27t-7.5 -49t-24.5 -59.5t-49.5 -59.5q83 -85 103 -162zM319 403q-7 31 -40 31q-47 0 -82 -57q30 -45 75 -45q30 0 42 22.5t5 48.5z" />
    <glyph glyph-name="quotesingle" unicode="'" horiz-adv-x="333" 
d="M202 669l-16 -246h-39l-16 246q-1 15 10 25t26 10t25.5 -10t9.5 -25z" />
    <glyph glyph-name="parenleft" unicode="(" horiz-adv-x="444" 
d="M359 -238q3 -12 -11 -12q-13 0 -53 40t-72 88q-51 80 -77 182q-14 53 -20 115t0.5 148.5t32.5 165.5q15 48 38.5 92.5t46 74t44.5 52t36 32.5t18 10q14 0 17 -12q1 -5 -1 -6q-1 -3 -14 -16q-66 -66 -105 -162t-47.5 -194.5t-3 -182.5t22.5 -150q38 -151 136 -251
q11 -10 12 -14z" />
    <glyph glyph-name="parenright" unicode=")" horiz-adv-x="444" 
d="M297 440q13 -54 19.5 -115t-0.5 -148t-32 -166q-15 -48 -38.5 -92.5t-46.5 -74t-44.5 -52t-35.5 -32.5t-18 -10q-14 0 -17 12q-1 4 0 6l14 16q67 66 106 162.5t47.5 194.5t3 182t-22.5 150q-38 151 -140 253q-7 7 -8 12q-3 12 11 12q13 0 53 -40t71 -88q53 -83 78 -182z
" />
    <glyph glyph-name="asterisk" unicode="*" 
d="M461 448q4 -14 -5.5 -24.5t-21.5 -10.5q-10 0 -24 10l-119 86l13 -154q2 -36 -26 -36q-22 0 -29 20v16l14 154l-126 -90q-6 -6 -16 -6q-22 0 -28 22q-5 19 20 32l136 68l-135 65q-18 8 -21 21t5.5 24t20.5 11q11 0 24 -10l119 -86l-12 154q-4 36 26 36q23 0 28 -20
q1 -4 0 -17l-13 -154l126 91q7 6 16 6q21 0 27 -22q6 -21 -19 -33l-137 -67l134 -64q19 -9 23 -22z" />
    <glyph glyph-name="plus" unicode="+" horiz-adv-x="833" 
d="M748 250q3 -11 -3 -16.5t-11.5 -6t-15.5 -0.5h-278v-279q0 -27 -18 -27q-10 0 -18.5 6.5t-9.5 16.5v283h-269q-36 0 -41 23q-3 11 2.5 16.5t11 6t15.5 0.5h281v279q0 27 16 27q23 0 30 -23v-19v-264h267q35 0 41 -23z" />
    <glyph glyph-name="comma" unicode="," horiz-adv-x="333" 
d="M228 48q9 -37 5 -72t-16.5 -66t-27.5 -54t-28 -36.5t-19 -13.5q-14 0 -18 15q-1 6 6 12q75 79 74 178q-13 -11 -35 -11q-24 0 -39.5 13.5t-19.5 30.5q-6 24 8 45.5t44 21.5q49 0 66 -63z" />
    <glyph glyph-name="hyphen" unicode="-" horiz-adv-x="389" 
d="M304 199q0 -10 -4.5 -12t-20.5 -2h-209q-11 0 -16 0.5t-9.5 4t-6.5 10.5v32q0 10 4.5 12t20.5 2h209q28 0 32 -14v-33z" />
    <glyph glyph-name="period" unicode="." horiz-adv-x="333" 
d="M220 66q7 -27 -9 -46.5t-42 -19.5q-19 0 -35.5 12t-22.5 33q-6 27 10 46.5t41 19.5q19 0 36 -12t22 -33z" />
    <glyph glyph-name="slash" unicode="/" 
d="M471 727q2 -7 -3 -20l-336 -939q-6 -18 -20 -18q-10 0 -18.5 7t-10.5 16q-2 7 3 20l336 939q6 18 20 18q10 0 18.5 -7t10.5 -16z" />
    <glyph glyph-name="zero" unicode="0" 
d="M469 488q17 -65 17 -173t-21 -178t-69 -114t-118 -44q-41 0 -74.5 15t-53 34.5t-34.5 47t-21 44t-10 34.5q-17 58 -16.5 172t21.5 181q51 158 186 158q42 0 76 -16t53.5 -36t34.5 -49.5t20 -44t9 -31.5zM389 540q-13 48 -44.5 72.5t-67.5 24.5q-109 0 -122 -169
q-5 -13 -4 -159t16 -203q12 -47 42.5 -73t68.5 -26q32 0 62.5 22t46.5 75q15 50 16 213.5t-14 222.5z" />
    <glyph glyph-name="one" unicode="1" 
d="M448 19q5 -19 -17 -19q-4 0 -73 3h-144l-67 -3q-7 0 -12.5 3.5t-6.5 6.5l-2 4q-3 13 3 16t23 3h10q61 0 75 8.5t14 39.5v464q-55 -42 -108 -42q-19 0 -22 14q-2 8 0.5 12.5t5.5 5t8 1.5q101 10 154 114q3 7 4.5 9.5t4 4t6.5 1.5q14 0 19 -14v-13v-563q0 -15 2 -22
q2 -10 8 -13t26 -5l47 -2h10q28 0 32 -14z" />
    <glyph glyph-name="two" unicode="2" 
d="M518 164q3 -10 -1 -38t-15.5 -62t-40.5 -59.5t-71 -25.5q-43 0 -110 36q-74 39 -108 39q-7 0 -13 -2.5t-10 -6t-7 -9t-5 -10.5t-3.5 -10.5t-2 -9.5t-1.5 -8v-4q-1 -10 -3.5 -12.5t-12.5 -2.5q-20 0 -23 13q-2 9 1.5 34.5t15 62.5t44 78.5t79.5 70.5q35 21 59 39.5t49 45
t34.5 54t14.5 66t-9 81.5q-15 58 -51.5 85.5t-76.5 27.5q-57 0 -95 -47t-48.5 -101.5t-1.5 -91.5q8 -33 31 -33q40 0 58 48.5t11 79.5q-5 19 -16 30q-8 11 -9 14q-1 5 3 9.5t9 4.5q9 0 22.5 -19.5t18.5 -37.5q6 -24 0 -59t-29.5 -66.5t-61.5 -31.5q-31 0 -50 20t-26 48
q-3 23 -3 54.5t14.5 68t34 67t55 51t79.5 20.5q73 0 135 -47t82 -126q20 -80 -19 -139.5t-163 -133.5q-100 -55 -132 -138l19 1q32 0 107 -15q78 -14 105 -14q41 0 68 29t30 80q1 6 2 8.5t4.5 4t10.5 1.5q19 0 22 -12z" />
    <glyph glyph-name="three" unicode="3" 
d="M467 527q15 -58 -16 -114.5t-98 -81.5q90 -40 113 -130q23 -92 -44.5 -157t-168.5 -65q-67 0 -117 38t-63 92q-9 20 -2.5 48t36.5 28q18 0 30 -10t15 -23q0 -6 1 -16t-9 -21t-30 -13q15 -48 53 -71.5t79 -23.5q48 0 81 22t45.5 56t16 73.5t-7.5 73.5q-22 86 -106 86h-33
q-29 0 -32 13q-3 14 2 17t20 3h29q48 0 80 19t43.5 44t14.5 56t1 48.5t-5 28.5q-11 45 -43.5 67.5t-73.5 22.5q-74 0 -121 -52t-32 -109q9 -36 35 -36q21 0 36.5 16.5t9.5 39.5q-4 13 -17 28l-8 12q-1 5 3 9.5t9 4.5q9 0 23 -18t18 -36q9 -34 -12.5 -59t-56.5 -25
q-29 0 -51 20t-29 47q-17 66 39 126t149 60q73 0 126.5 -40.5t67.5 -97.5z" />
    <glyph glyph-name="four" unicode="4" 
d="M512 15q3 -12 -32 -21.5t-62 -9.5q-16 0 -23 1l1 -112q-1 -28 -2 -39t-8.5 -19.5t-22.5 -8.5q-13 0 -23.5 8t-13.5 20q-2 7 -1 167l-71 22q-40 12 -83 12q-64 0 -81 -15q-20 -20 -27 -20q-6 0 -12.5 6t-8.5 12q1 5 0 7t3 6.5t4.5 6t6.5 6t7 5l7 3.5l5 4q38 38 69 82
q120 172 125 489q0 38 33 38q29 0 36 -28q-1 -17 1 -55t-15 -127.5t-51 -172.5q-43 -107 -134 -214h35q31 0 55 -5.5t96 -28.5l-1 130q1 35 2 47.5t8 21.5t23 9q30 0 38 -29v-14v-181q6 -1 18 -1q29 0 65 12l13 4q7 0 13.5 -7t7.5 -11z" />
    <glyph glyph-name="five" unicode="5" 
d="M470 259q28 -110 -37 -195t-169 -85q-69 0 -118 41.5t-64 100.5q-22 86 36 86q37 0 46 -35q5 -17 -3.5 -34t-39.5 -18q13 -50 50 -80.5t85 -30.5q36 0 71.5 23.5t53.5 75.5q13 44 13 101t-9 89q-9 36 -32.5 64.5t-62.5 28.5q-78 0 -124 -61q-10 -13 -12.5 -15t-8.5 -2
q-17 0 -20 14q-1 4 -1 15v304q4 18 9 19q5 0 14 -5q65 -27 131 -27t132 27q9 5 12 5q12 0 15 -13q2 -7 -1.5 -12.5t-16.5 -16.5q-67 -67 -167 -67q-45 0 -88 13v-193q50 43 121 43q68 0 118 -46.5t67 -113.5z" />
    <glyph glyph-name="six" unicode="6" 
d="M479 265q18 -71 -3.5 -137.5t-73.5 -107.5t-120 -41q-43 0 -78.5 17t-58.5 46.5t-37.5 60t-23.5 64.5q-4 17 -8 43.5t-8 80t7 114.5t37 110q40 74 97.5 112t120.5 38q47 0 81.5 -20t45.5 -61q8 -33 -2.5 -49.5t-33.5 -16.5q-36 0 -44 33q0 5 -1.5 15t8 21t28.5 13
q-20 39 -77 39q-7 0 -15 -1t-26.5 -6.5t-34.5 -16t-35.5 -33t-33.5 -53t-23.5 -79t-9.5 -109.5q45 85 127 85q43 0 80 -18t60 -45.5t36.5 -52t18.5 -45.5zM390 306q-1 8 -6 19.5t-16 30t-32.5 30.5t-49.5 12q-41 0 -69.5 -26t-42.5 -63q-13 -35 -14.5 -80.5t2.5 -72.5t9 -47
q13 -52 42 -76t63 -24q28 0 50 11.5t34.5 28.5t18.5 30t9 24q10 41 10 107.5t-8 95.5z" />
    <glyph glyph-name="seven" unicode="7" 
d="M504 653q1 -4 -9 -27q-115 -247 -118 -596q0 -51 -42 -51q-16 0 -29 10t-17 25q0 13 -1 39.5t8 95.5t27 140q23 89 85 244q-20 -9 -42 -9q-35 0 -73 43q-23 24 -45 24q-52 0 -100 -40t-69 -108q-7 -20 -8 -21q-2 -3 -13 -3q-19 0 -22 12q-2 4 2 16l49 202q2 11 5 13.5
t13 2.5q19 0 22 -12q1 -5 -9 -47q55 59 125 59q29 0 43.5 -16t29.5 -51q12 -27 20 -36.5t22 -9.5q18 0 34.5 9t30 26.5t22 31.5t18.5 34q4 8 6.5 10t12.5 2q19 0 22 -12z" />
    <glyph glyph-name="eight" unicode="8" 
d="M480 204q22 -88 -40 -156.5t-160 -68.5q-70 0 -130 37t-77 102q-33 135 142 222q-38 24 -55.5 37.5t-34 36t-23.5 52.5q-20 79 33.5 139t138.5 60q64 0 115 -33.5t64 -86.5q4 -14 4.5 -28.5t-4.5 -35.5t-17 -40.5t-37.5 -41.5t-62.5 -41l87 -60q43 -38 57 -94zM402 548
q-10 40 -44 65.5t-79 25.5q-61 0 -101 -40t-27 -91q4 -17 16 -32.5t19.5 -21.5t10.5 -8l107 -68q53 26 82 72.5t16 97.5zM424 167q-8 33 -27.5 51t-85.5 60q-60 40 -64 40q-8 0 -29.5 -15.5t-45.5 -40.5t-37.5 -65t-3.5 -81q11 -46 51 -76.5t92 -30.5q72 0 118.5 48.5
t31.5 109.5z" />
    <glyph glyph-name="nine" unicode="9" 
d="M470 481q5 -21 9 -51.5t6.5 -81.5t-6.5 -108t-31 -104q-37 -75 -91.5 -116t-120.5 -41q-50 0 -89 19.5t-50 62.5q-8 31 2.5 48t33.5 17q36 0 44 -33q0 -5 1.5 -15t-7.5 -20.5t-28 -13.5q25 -35 88 -35q19 0 39 6.5t44 26.5t42 51t30 86t11 125q-45 -85 -127 -85
q-78 0 -128.5 52t-65.5 109q-29 114 34.5 199.5t166.5 85.5q68 0 119 -47t74 -137zM385 348q11 45 10.5 88.5t-6.5 74.5l-6 31q-10 42 -36 69.5t-63 27.5q-34 0 -60.5 -18t-36 -32.5t-16.5 -30.5q-16 -54 -15.5 -119.5t8.5 -98.5q10 -41 36 -67t69 -26t73 30t43 71z" />
    <glyph glyph-name="colon" unicode=":" horiz-adv-x="333" 
d="M220 386q7 -27 -9 -46.5t-42 -19.5q-19 0 -35.5 12t-22.5 33q-6 27 10 46.5t41 19.5q19 0 36 -12t22 -33zM220 66q7 -27 -9 -46.5t-42 -19.5q-19 0 -35.5 12t-22.5 33q-6 27 10 46.5t41 19.5q19 0 36 -12t22 -33z" />
    <glyph glyph-name="semicolon" unicode=";" horiz-adv-x="333" 
d="M220 386q7 -27 -9 -46.5t-42 -19.5q-19 0 -35.5 12t-22.5 33q-6 27 10 46.5t41 19.5q19 0 36 -12t22 -33zM220 56q9 -37 6 -73t-14 -68t-25 -56t-26.5 -38.5t-18.5 -14.5q-14 0 -18 15q-1 4 12 19q59 73 60 166q-10 -6 -27 -6q-24 0 -39.5 13.5t-19.5 30.5q-6 24 8 45.5
t44 21.5q43 0 58 -55z" />
    <glyph glyph-name="less" unicode="&#x3c;" horiz-adv-x="837" 
d="M747 -41q0 -10 -7 -16.5t-17 -6.5q-5 0 -18 7l-595 282q-21 11 -20 25q-1 15 21 25l594 282q13 7 18 7q10 0 17 -6.5t6 -16.5q0 -15 -21 -25l-558 -266l558 -266q21 -10 22 -25z" />
    <glyph glyph-name="equal" unicode="=" horiz-adv-x="833" 
d="M748 356q3 -11 -2.5 -16.5t-11 -6t-15.5 -0.5h-596q-34 0 -40 23q-3 11 3.5 16.5t13 6t17.5 0.5h585q41 0 46 -23zM748 144q3 -11 -3 -16.5t-12.5 -6t-17.5 -0.5h-586q-40 0 -46 23q-3 11 2.5 16.5t11 6t16.5 0.5h595q35 0 40 -23z" />
    <glyph glyph-name="greater" unicode="&#x3e;" horiz-adv-x="837" 
d="M747 250q-1 -15 -22 -25l-594 -282q-14 -7 -19 -7q-21 0 -23 23q0 14 21 25l560 266l-560 266q-21 11 -21 25q2 23 23 23q5 0 18 -7l595 -282q22 -11 22 -25z" />
    <glyph glyph-name="question" unicode="?" 
d="M439 587q5 -19 5 -38t-2.5 -33t-9.5 -29t-13 -24t-16.5 -20.5t-15.5 -16.5t-14 -13l-102 -92q-10 -9 -14 -13t-11.5 -15t-6 -19t2.5 -24q7 -31 35 -31q21 0 40.5 17t23.5 51q1 8 4 10t13 2q18 0 21 -12q6 -25 -20 -60.5t-77 -35.5q-35 0 -56.5 22t-28.5 50
q-4 16 -4.5 29.5t3 25.5t8 20.5t14.5 19.5t17 17t20 18l91 82q65 59 48 125q-11 43 -44 65t-70 22q-62 0 -103.5 -50t-51.5 -123q33 -4 41 -34q5 -19 -6 -34t-31 -15q-16 0 -28.5 9.5t-16.5 24.5q-5 20 2.5 59.5t27 83t61.5 75.5t98 32q58 0 104.5 -34.5t61.5 -93.5zM332 65
q7 -25 -9 -45t-42 -20q-18 0 -35.5 11t-23.5 35q-7 26 9.5 45.5t42.5 19.5q19 0 35.5 -12.5t22.5 -33.5z" />
    <glyph glyph-name="at" unicode="@" horiz-adv-x="833" 
d="M748 72q3 -7 -5 -11q-46 -23 -132 -47t-186 -24q-127 0 -215 77.5t-116 188.5q-23 85 -5 165.5t61 143.5t112.5 101t149.5 38q110 0 202 -72t123 -195q7 -28 10 -74.5t-1 -102t-30 -94.5t-72 -39q-32 0 -59 17t-38 47q-52 -64 -129 -64q-69 0 -123 46.5t-72 116.5
q-26 105 33 191t155 86q46 0 84.5 -23.5t62.5 -60.5h25q28 0 31 -13l1 -13v-257l3 -20q6 -25 24 -25q33 0 50 38.5t17.5 91t-2.5 94t-8 61.5q-26 102 -103.5 169t-177.5 67q-94 0 -170 -59.5t-109 -158.5t-6 -204q25 -101 101.5 -168.5t183.5 -67.5q140 0 266 59q14 7 33 7
q28 0 31 -12zM545 425l-2 13q-7 27 -40.5 64t-83.5 37q-69 0 -108.5 -84.5t-16.5 -177.5q13 -49 44.5 -85.5t74.5 -36.5q50 0 90 42q41 41 41 79z" />
    <glyph glyph-name="A" unicode="A" horiz-adv-x="806" 
d="M744 19q4 -19 -15 -19q-3 0 -9.5 0.5t-15 1t-30.5 1t-52 0.5q-19 0 -56.5 -1.5t-55.5 -1.5q-16 0 -19 14q-3 13 2.5 16t19.5 3q29 0 42 7t12 16.5t-4 19.5l-54 155h-257q-4 -12 -11.5 -35t-17.5 -49q-23 -70 -19 -83q7 -28 45 -31q18 0 22 -14q4 -19 -16 -19l-11 1
q-10 1 -32 1.5t-51 0.5q-30 0 -48.5 -0.5t-25 -1.5t-8.5 -1q-14 0 -18 14q-2 8 0.5 12t6 5t11.5 2q66 6 94 85l201 575q8 21 29 21q13 0 18.5 -5t11.5 -22l218 -621q5 -14 8.5 -19.5t16 -9.5t36.5 -4q28 0 32 -14zM497 264l-116 330l-117 -330h233z" />
    <glyph glyph-name="B" unicode="B" horiz-adv-x="764" 
d="M675 217q20 -80 -44.5 -148.5t-173.5 -68.5h-350q-28 0 -32 14q-3 13 3.5 16t25.5 3q44 0 55 8t11 35v537q0 16 -2 22q-3 15 -59 15q-30 0 -33 14q-3 13 2.5 16t22.5 3h328q82 0 143 -39t76 -99q17 -67 -31.5 -119.5t-127.5 -68.5q69 -8 120.5 -46.5t65.5 -93.5zM560 547
q-3 10 -8.5 22t-19.5 33t-42.5 34.5t-66.5 13.5h-138q-25 0 -32 -5t-7 -30v-246h150q88 0 134.5 56.5t29.5 121.5zM583 226q-3 12 -9.5 25.5t-22 36.5t-45.5 38t-68 15h-192v-279q0 -6 0.5 -10t1.5 -8.5t1 -8.5q10 -2 29 -2h147q84 0 130.5 59t27.5 134z" />
    <glyph glyph-name="C" unicode="C" horiz-adv-x="778" 
d="M693 240v-16t-4.5 -34t-12.5 -45q-28 -72 -94 -119t-150 -47q-115 0 -210.5 74.5t-127.5 198.5q-29 113 9.5 218.5t125.5 169.5t195 64q109 0 189 -87l47 76q6 11 15 11q13 0 18 -12v-14v-241q0 -14 -3 -17t-14 -3q-19 0 -22 13q0 1 -1 8.5t-3 20t-5 23.5
q-22 82 -75.5 135.5t-129.5 53.5q-66 0 -125 -36t-94 -99q-27 -50 -36.5 -116.5t-5.5 -115.5t13 -86q26 -102 95 -154t147 -52q36 0 71.5 13t68.5 39t55 72.5t25 106.5q0 10 16 10q19 0 23 -13z" />
    <glyph glyph-name="D" unicode="D" horiz-adv-x="819" 
d="M723 432q28 -110 -5.5 -211t-112 -161t-177.5 -60h-323q-28 0 -32 14q-3 13 3.5 16t25.5 3q44 0 55 8t11 35v537q0 16 -2 22q-3 15 -59 15q-30 0 -33 14q-3 13 2.5 16t21.5 3h330q104 0 185.5 -70t109.5 -181zM630 466q-23 91 -85.5 137.5t-140.5 46.5h-117q-25 0 -32 -5
t-7 -30v-553q0 -6 0.5 -10t1.5 -8.5t1 -8.5q10 -2 29 -2h124q74 0 129.5 36.5t82.5 98.5t27.5 162t-13.5 136z" />
    <glyph glyph-name="E" unicode="E" horiz-adv-x="736" 
d="M679 246q1 -7 -1 -17l-39 -211q-2 -13 -6 -15.5t-20 -2.5h-509q-28 0 -32 14q-3 13 3.5 16t25.5 3q44 0 55 8t11 35v533q0 15 -2 22q-3 11 -16.5 13.5t-42.5 2.5q-12 0 -17.5 0.5t-10 4t-6.5 10.5q-3 12 3 15t22 3h494q29 0 32 -14l3 -14l24 -175q2 -13 0 -18.5t-14 -5.5
q-20 0 -24 16q0 3 -1 8t-1 7q-3 31 -10 58q-15 60 -50.5 82.5t-118.5 22.5h-142q-26 0 -32.5 -5t-6.5 -31l1 -241h91q61 0 80.5 17.5t20.5 74.5q0 12 0.5 16t4 6.5t11.5 2.5q19 0 23 -15q0 -1 0.5 -2.5t0 -3t0 -5t0.5 -7.5v-213q0 -13 -2.5 -17t-13.5 -4q-19 0 -23 14
q-2 5 0 14q0 24 -5 47q-6 22 -23 32t-67 10h-98v-275q0 -5 2 -27q10 -2 29 -2h144q49 0 83 8.5t55 22.5t35.5 42t22 55.5t16.5 75.5q5 20 9 22q2 1 9 1q19 0 23 -14z" />
    <glyph glyph-name="F" unicode="F" horiz-adv-x="708" 
d="M637 477q2 -13 0 -18.5t-14 -5.5q-20 0 -24 16q-1 3 -2 12t-1 12q-6 33 -10 51q-15 58 -49 80.5t-114 22.5h-134q-26 0 -32.5 -5t-6.5 -31l1 -254h88q62 0 80 19t19 77q0 9 0.5 12.5t4 6t11.5 2.5q19 0 23 -14q1 -4 1 -15v-217q0 -14 -3.5 -17.5t-13.5 -3.5q-19 0 -23 14
q-1 3 0 15q0 30 -4 47q-6 22 -23 31.5t-66 9.5h-95l1 -251q0 -17 1 -21q3 -10 8 -12.5t25 -4.5q26 -2 44 -2h7q29 0 33 -14q5 -19 -17 -19h-6q-7 1 -18 1.5t-26.5 0.5t-38.5 0.5t-48 0.5h-62q-10 0 -31.5 -1.5t-30.5 -1.5q-15 0 -19 14q-3 13 3.5 16t25.5 3q44 0 55 8t11 35
v533q0 15 -2 22q-3 11 -16.5 13.5t-42.5 2.5q-12 0 -17.5 0.5t-10 4t-6.5 10.5q-3 12 3 15t22 3h481q29 0 32 -14l3 -14z" />
    <glyph glyph-name="G" unicode="G" horiz-adv-x="840" 
d="M762 262q5 -19 -13 -19q-48 0 -53 -14q-3 -9 -3 -78q0 -141 -1 -144q0 -3 -2 -5t-4 -2h-2q-18 0 -54 55q-59 -76 -196 -76q-119 0 -214 75.5t-126 197.5q-29 113 9.5 218.5t125.5 169.5t195 64q109 0 189 -87l47 76q6 11 15 11q13 0 18 -12v-14v-241q0 -14 -3 -17t-14 -3
q-19 0 -22 13q0 1 -1 8.5t-3 20t-5 23.5q-22 82 -75.5 135.5t-129.5 53.5q-66 0 -125 -36t-94 -99q-26 -49 -35.5 -115.5t-6 -116t12.5 -85.5q25 -100 94.5 -153.5t154.5 -53.5q54 0 103.5 22t62.5 68q3 14 2.5 64t-1.5 57q-2 10 -8 13t-26 5l-47 2h-10q-29 0 -32 14
q-2 9 1 13.5t6.5 5t9.5 0.5q21 0 66.5 -1.5t68.5 -1.5q33 0 55.5 0.5t30.5 1t13 1t7 0.5q7 0 12.5 -4.5t6.5 -9.5z" />
    <glyph glyph-name="H" unicode="H" horiz-adv-x="806" 
d="M733 669q3 -13 -3 -16t-24 -3q-46 0 -57 -8t-11 -38v-532v-23q6 -16 61 -16q30 0 33 -14q5 -19 -15 -19q-1 0 -6 0.5t-14 1t-22 0.5t-33.5 0.5t-44.5 0.5h-61q-24 -3 -57 -3q-15 0 -19 14q-3 13 2.5 16t20.5 3q49 0 60 7t11 36v263h-304v-268v-22q6 -16 62 -16
q29 0 33 -14q4 -19 -16 -19q-1 0 -6 0.5t-14 1t-22 0.5t-33.5 0.5t-44.5 0.5h-61q-24 -3 -57 -3q-15 0 -19 14q-3 13 3.5 16t25.5 3q44 0 54.5 8t10.5 35v537v22q-4 15 -60 15q-30 0 -33 14q-5 19 15 19l60 -3h120q54 3 57 3q17 0 20 -14q3 -13 -3 -16t-26 -3q-44 0 -55 -8
t-11 -35v-235h304v242v21q-5 15 -60 15q-31 0 -34 14q-5 19 16 19l60 -3h120q54 3 57 3q17 0 20 -14z" />
    <glyph glyph-name="I" unicode="I" horiz-adv-x="417" 
d="M350 19q4 -19 -17 -19q-23 0 -59 3h-130q-48 -3 -57 -3q-17 0 -20 14q-3 13 3 16t23 3q51 0 62.5 7.5t10.5 36.5v540v18q-4 15 -64 15q-17 0 -24.5 2t-9.5 12q-5 19 15 19q1 0 13.5 -0.5t42 -1.5t70.5 -1h64q36 3 57 3q7 0 11.5 -3.5t6.5 -7.5l1 -3q3 -13 -3 -16t-24 -3
q-49 0 -60.5 -8t-11.5 -35v-536q0 -16 2 -22q4 -16 64 -16q30 0 34 -14z" />
    <glyph glyph-name="J" unicode="J" horiz-adv-x="570" 
d="M486 669q3 -13 -2.5 -16t-20.5 -3q-32 0 -39.5 -7t-7.5 -35v-471q0 -60 -49 -109t-124 -49q-57 0 -101 30.5t-56 78.5q-8 31 1.5 49t20 21.5t19.5 3.5q19 0 33.5 -11t18.5 -28q0 -7 1 -19t-11.5 -25t-36.5 -13q17 -31 46 -45t55 -14q42 0 70.5 41t28.5 101v465v17
q-1 9 -7.5 12t-26.5 5q-19 2 -44 2h-9q-30 0 -33 14q-2 9 1 13.5t6.5 5t9.5 0.5q21 0 66 -1.5t67 -1.5q32 0 54 0.5t30.5 1t14 1t7.5 0.5q14 0 18 -14z" />
    <glyph glyph-name="K" unicode="K" horiz-adv-x="833" 
d="M764 19q5 -19 -15 -19q-4 0 -8.5 0.5t-11 1t-26 1t-48.5 0.5q-18 0 -53.5 -1.5t-52.5 -1.5q-15 0 -19 14q-2 8 1 12.5t7 5.5t12 1q12 1 20 2.5t13.5 8.5t2.5 18q-1 6 -11 19l-197 282l-128 -122v-151v-41q6 -16 62 -16q29 0 33 -14q4 -19 -16 -19q-1 0 -6 0.5t-14 1
t-22 0.5t-33.5 0.5t-44.5 0.5h-61q-24 -3 -57 -3q-15 0 -19 14q-3 13 3.5 16t25.5 3q44 0 54.5 8t10.5 35v537v22q-4 15 -60 15q-30 0 -33 14q-5 19 15 19l60 -3h120q54 3 57 3q17 0 20 -14q3 -13 -3 -16t-26 -3q-44 0 -55 -8t-11 -35v-313l305 291q7 8 9 9l4 6q18 18 14 35
q-5 14 -27 15q-16 1 -19 14q-5 19 16 19q16 0 51.5 -1.5t52.5 -1.5h41l35 3q15 0 17 -14q4 -17 -14 -19q-64 -7 -146 -86l-158 -151l238 -341q17 -25 31.5 -31.5t41.5 -7.5q19 0 22 -14z" />
    <glyph glyph-name="L" unicode="L" horiz-adv-x="681" 
d="M610 227l-25 -209q-2 -13 -6 -15.5t-21 -2.5h-454q-28 0 -32 14q-3 13 3.5 16t25.5 3q44 0 54.5 8t10.5 35v537v22q-4 15 -60 15q-30 0 -33 14q-5 19 15 19q1 0 12 -0.5t40.5 -1.5t74.5 -1q22 0 67 1.5t67 1.5q16 0 19 -14q3 -13 -2.5 -16t-21.5 -3h-8q-59 0 -72.5 -8.5
t-13.5 -38.5v-541q0 -6 0.5 -10t1.5 -8.5t1 -8.5q10 -2 29 -2h96q34 0 62 7t46.5 17t33 28.5t22 32.5t14 39.5t8.5 38.5t6 40q2 17 4.5 20.5t12.5 3.5q20 0 23 -15q2 -5 0 -18z" />
    <glyph glyph-name="M" unicode="M" horiz-adv-x="972" 
d="M894 669q3 -13 -3 -16t-24 -3q-46 0 -56.5 -8t-10.5 -38v-532v-23q3 -11 17 -13.5t44 -2.5q29 0 32 -14q5 -19 -15 -19q-1 0 -5.5 0.5t-13 1t-21 0.5t-32.5 0.5t-44 0.5h-59q-45 -3 -53 -3q-16 0 -19 14q-3 13 3 16t20 3q49 0 60.5 7.5t11.5 35.5v224v332l-232 -611
q-8 -21 -25 -21q-9 0 -14 3t-7.5 7.5t-6.5 15.5l-227 598v-324v-202q0 -16 2 -24q11 -40 70 -41q19 0 22 -14q5 -19 -14 -19q-2 0 -11.5 1t-32 1.5t-57.5 0.5q-16 0 -49 -1.5t-48 -1.5q-16 0 -19 14q-4 19 15 19q49 2 64.5 20.5t15.5 54.5v505q0 16 -2 22q-3 15 -59 15
q-29 0 -33 14q-3 13 2.5 16t22.5 3h130q21 0 26 -3.5t12 -22.5l214 -566l216 572q5 14 11 17t24 3h126q28 0 32 -14z" />
    <glyph glyph-name="N" unicode="N" horiz-adv-x="806" 
d="M733 669q4 -17 -12 -19q-18 -1 -28 -3t-25 -8.5t-22.5 -22t-7.5 -40.5v-557q0 -12 -2.5 -15.5t-14.5 -3.5t-16 3t-12 15l-385 585v-505q0 -12 3 -24q10 -40 70 -41q19 0 22 -14q5 -19 -14 -19q-3 0 -12 1t-31.5 1.5t-57.5 0.5q-16 0 -49 -1.5t-48 -1.5t-19 14
q-4 19 15 19q49 2 64 20.5t15 54.5v536q-22 6 -60 6q-30 0 -33 14q-3 13 2.5 16t21.5 3h119q16 0 21 -2.5t15 -16.5l344 -524v446q0 15 -2 24q-9 38 -70 40q-19 0 -23 14q-5 19 16 19q1 0 10.5 -0.5t33 -1.5t57.5 -1q32 0 54.5 1t31.5 1.5t10 0.5q14 0 19 -14z" />
    <glyph glyph-name="O" unicode="O" horiz-adv-x="833" 
d="M736 436q29 -115 -8 -222t-122 -171t-190 -64q-115 0 -204 75t-118 189q-28 111 7.5 218.5t120.5 175t193 67.5q111 0 201 -73.5t120 -194.5zM640 471q-24 97 -87 149.5t-138 52.5q-66 0 -123.5 -42.5t-85.5 -115.5q-20 -51 -25.5 -113.5t-1 -105t13.5 -75.5
q26 -101 88.5 -155t134.5 -54q57 0 104 29.5t74.5 77t45 108.5t15.5 123t-15 121z" />
    <glyph glyph-name="P" unicode="P" horiz-adv-x="736" 
d="M647 532q22 -84 -48.5 -152t-176.5 -68h-172v-241q0 -22 3 -22q3 -11 16.5 -13.5t43.5 -2.5q29 0 33 -14q4 -19 -16 -19q-1 0 -6 0.5t-14 1t-22 0.5t-33.5 0.5t-44.5 0.5h-61q-24 -3 -57 -3q-16 0 -19 14q-3 13 3 16t21 3q48 0 58.5 7.5t10.5 38.5v535q0 9 -2 21
q-1 15 -57 15q-30 0 -33 14q-3 13 2.5 16t21.5 3h317q88 0 152 -43.5t80 -107.5zM550 555q-24 95 -159 95h-104q-25 0 -31 -5t-6 -30v-273h141q102 0 144 59q19 27 21 81t-6 73z" />
    <glyph glyph-name="Q" unicode="Q" horiz-adv-x="833" 
d="M753 0q2 -7 -0.5 -35.5t-11.5 -65.5t-37 -65t-70 -28q-85 0 -113 107q-5 21 -14 80q-46 -14 -91 -14q-115 0 -204 75t-118 189q-28 111 7.5 218.5t120.5 175t193 67.5q111 0 201 -73.5t120 -194.5q33 -128 -18.5 -250.5t-175.5 -179.5q21 -63 41 -84.5t51 -21.5
q18 0 35.5 7.5t34.5 31.5t21 62q0 13 11 13q14 0 17 -14zM642 464q-26 101 -89.5 155t-137.5 54q-69 0 -123 -42t-81 -108t-35.5 -147t13.5 -159q37 -148 156 -194q-9 15 -11 25q-9 38 14 70.5t65 32.5q77 0 116 -106q54 35 85 94.5t37.5 122t3.5 113.5t-13 89zM497 46
q-10 41 -28.5 59t-47.5 18q-30 0 -47.5 -24t-10.5 -51q9 -38 53 -38q20 0 39.5 4t28.5 8l10 5q7 4 3 19z" />
    <glyph glyph-name="R" unicode="R" horiz-adv-x="792" 
d="M759 96q3 -12 -2 -37.5t-28 -52.5t-63 -27q-31 0 -60.5 9t-57.5 34.5t-38 64.5q-5 20 -5 89q0 49 -4 64q-9 37 -42 62.5t-88 25.5h-123v-257l2 -22q3 -11 16.5 -13.5t43.5 -2.5q29 0 33 -14q4 -19 -16 -19q-19 0 -58 3h-120q-54 -3 -57 -3q-16 0 -19 14q-3 13 3.5 16
t25.5 3q44 0 55 8t11 35v537q0 16 -2 22q-3 15 -59 15q-30 0 -33 14q-3 13 2.5 16t21.5 3h278q98 0 170.5 -43t88.5 -107q15 -60 -30 -114.5t-135 -79.5q96 -34 116 -115q5 -16 13 -92q7 -50 12 -70q7 -28 18 -41.5t33 -13.5q26 0 41 24.5t17 59.5q1 9 2 12t4.5 5t10.5 2
q19 0 22 -14zM537 551q-25 99 -172 99h-78q-25 0 -32 -5t-7 -30v-259h117q93 0 140 42q30 26 36.5 75.5t-4.5 77.5z" />
    <glyph glyph-name="S" unicode="S" horiz-adv-x="611" 
d="M519 232q24 -95 -32 -174t-155 -79q-112 0 -185 69l-32 -57q-7 -12 -14 -12q-14 0 -18 13v18l-1 197q1 14 3.5 17t13.5 3q19 0 22 -12l2 -11q-2 -24 6 -53q18 -71 72.5 -105t124.5 -34q71 0 112.5 58t23.5 127q-21 81 -105 103l-101 25q-138 31 -168 147
q-22 87 34.5 159.5t151.5 72.5q97 0 161 -68l32 56q7 12 14 12q15 0 17 -12q1 -3 1 -14l-1 -202q0 -14 -2 -17t-14 -3q-19 0 -23 13q0 1 -1 9.5t-2.5 21.5t-5.5 28q-38 146 -169 146q-69 0 -109.5 -52.5t-25.5 -114.5q8 -33 32 -58t58 -35q59 -13 65 -16q77 -18 101.5 -27
t48.5 -29q52 -45 68 -110z" />
    <glyph glyph-name="T" unicode="T" horiz-adv-x="778" 
d="M711 470q1 -7 1 -11.5t-3.5 -7t-12.5 -2.5t-14.5 4t-6.5 8l-1 4l-1 5l-1 5l-9 65q-1 14 -4 26q-13 51 -45 64t-113 13q-51 0 -58 -2q-13 -2 -13 -34v-537q0 -11 1 -17q2 -9 9 -12.5t27 -5.5q36 -2 51 -2h13q29 0 32 -14q5 -19 -16 -19q-20 0 -61.5 1.5t-61.5 1.5h-74
q-20 0 -59 -1.5t-58 -1.5q-17 0 -21 14q-3 13 3 16t23 3h13q46 0 66 5t24.5 14t4.5 32v525q0 18 -3 32q-16 2 -61 2q-55 0 -83.5 -4.5t-50 -22t-29.5 -47.5t-14 -86q-3 -30 -5 -31q-3 -3 -13 -3q-19 0 -23 14q-1 4 1 17l17 178q1 13 5 15.5t21 2.5h552q29 0 32 -14l3 -14z
" />
    <glyph glyph-name="U" unicode="U" horiz-adv-x="806" 
d="M733 669q4 -17 -12 -19q-18 -1 -27.5 -3t-24.5 -8.5t-22 -22t-7 -40.5v-359q0 -88 -63 -163t-161 -75q-80 0 -149.5 51t-91.5 140q-9 32 -9 59v384v22q-4 15 -60 15q-30 0 -33 14q-5 19 15 19l60 -3h120q54 3 57 3q17 0 20 -14q3 -13 -3 -16t-26 -3q-44 0 -55 -8t-11 -35
l1 -389q0 -43 9 -76q17 -68 60.5 -99t90.5 -31q77 0 132 63.5t55 153.5v357q1 15 -1 24q-9 38 -70 40q-19 0 -23 14q-5 19 16 19q1 0 10.5 -0.5t32 -1.5t56.5 -1q19 0 35.5 0.5t26.5 1t17.5 0.5h11.5l4 1q14 0 19 -14z" />
    <glyph glyph-name="V" unicode="V" horiz-adv-x="806" 
d="M757 669q5 -17 -14 -19q-15 -1 -25 -4t-23.5 -11t-25.5 -26t-22 -45l-217 -566q-2 -7 -4 -10.5t-8 -6t-16 -2.5q-13 0 -17.5 4t-10.5 18l-2 4l-235 613q-7 20 -16.5 26t-43.5 6q-26 0 -29 14q-5 19 15 19q2 0 10 -0.5t32 -1.5t62 -1q19 0 56 1.5t55 1.5q14 0 18 -14
q3 -13 -2.5 -16t-19.5 -3q-36 -1 -46 -11t-2 -31l199 -518l186 489q10 26 6 42q-6 25 -45 29q-16 0 -19 14q-5 19 14 19l11 -1q11 0 32.5 -1t49.5 -1q25 0 41 0.5t21.5 1t9.5 1t7 0.5q15 0 18 -14z" />
    <glyph glyph-name="W" unicode="W" horiz-adv-x="1083" 
d="M1036 669q3 -8 0 -12t-6 -5t-11 -2q-10 -1 -18 -3.5t-20.5 -10t-24 -25.5t-19.5 -45l-179 -565q-3 -10 -7.5 -15t-8.5 -6t-12 -1q-20 0 -25 18l-3 8l-160 504l-162 -509q-7 -21 -27 -21q-15 0 -19.5 5t-10.5 23l-195 611q-7 21 -14.5 26.5t-37.5 5.5q-26 0 -29 14
q-5 19 14 19q3 0 10.5 -0.5t29.5 -1.5t61 -1q18 0 55 1.5t54 1.5q15 0 18 -14q3 -13 -2 -16t-15 -3q-32 0 -47 -7.5t-13.5 -17t3.5 -20.5l158 -495l148 463l-18 57q-5 11 -14 15.5t-35 4.5q-25 0 -29 14q-4 19 15 19q2 0 9.5 -0.5t30 -1.5t60.5 -1q18 0 54.5 1.5t53.5 1.5
q16 0 20 -14q3 -13 -2.5 -16t-16.5 -3q-32 0 -46.5 -7.5t-12.5 -17.5l4 -20l158 -495l149 467q8 20 4 38q-9 33 -57 35q-18 0 -22 14q-4 19 16 19q1 0 12 -0.5t34 -1.5t52 -1q47 0 62.5 1.5t16.5 1.5q13 0 17 -14z" />
    <glyph glyph-name="X" unicode="X" horiz-adv-x="806" 
d="M751 19q4 -19 -15 -19q-3 0 -11 1t-31.5 1.5t-63.5 0.5q-19 0 -56.5 -1.5t-55.5 -1.5q-16 0 -19 14q-5 19 14 19q21 1 33.5 10.5t10.5 17.5q-1 3 -7 12l-166 238l-146 -209q-2 -2 -5 -8t-5 -11q-5 -14 -3 -25q6 -23 35 -25q16 0 19 -14q5 -19 -15 -19q-1 0 -12.5 1
t-35.5 1.5t-55 0.5q-26 0 -44.5 -0.5t-25 -1t-11.5 -1t-8 -0.5q-14 0 -18 14q-2 8 1 12.5t6 5t10 1.5q75 8 118 68l172 244l-191 276q-12 17 -26 23t-48 6q-25 0 -28 14q-5 19 15 19q2 0 10.5 -0.5t33 -1.5t62.5 -1l112 3q14 0 19 -14q3 -12 -1.5 -15t-13.5 -4
q-15 -1 -25.5 -6.5t-14.5 -11.5t-3 -10q2 -4 7 -11l138 -199l118 168q4 7 5 13l3 4q9 14 5 28q-5 23 -34 25q-16 0 -20 14q-5 19 15 19q2 0 13 -0.5t34.5 -1.5t55.5 -1t52.5 1t28 1.5t8.5 0.5q14 0 19 -14q2 -8 -1 -12.5t-6.5 -5t-11.5 -1.5q-76 -6 -132 -86l-129 -186
l220 -317q11 -16 24.5 -22t45.5 -6q27 0 31 -14z" />
    <glyph glyph-name="Y" unicode="Y" horiz-adv-x="806" 
d="M763 669q4 -8 0.5 -12t-6.5 -5t-10 -2q-66 -7 -111 -75l-192 -302v-226q3 -14 59 -14q30 0 34 -14q5 -19 -15 -19l-13 1q-13 1 -41.5 1.5t-65.5 0.5h-58q-54 -3 -57 -3q-15 0 -19 14q-3 13 2.5 16t18.5 3q52 1 61.5 9.5t9.5 57.5v172l-219 349q-11 17 -23 23t-49 6
q-24 0 -27 14q-5 19 15 19q2 0 10.5 -0.5t33 -1.5t63.5 -1q19 0 57 1.5t56 1.5q17 0 19 -14q3 -13 -2.5 -16t-16.5 -3q-51 0 -46 -21q1 -7 9 -17l186 -292l166 260l6 10q1 1 1.5 4t2.5 5q5 8 7 16t1 12v4q-5 17 -33 19q-17 1 -20 14q-5 19 15 19q1 0 11.5 -0.5t32.5 -1.5
t49 -1q25 0 41 0.5t21.5 1t10 1t8.5 0.5q14 0 17 -14z" />
    <glyph glyph-name="Z" unicode="Z" horiz-adv-x="667" 
d="M588 255q0 -3 -1 -13l-14 -224q-1 -13 -5.5 -15.5t-21.5 -2.5h-435q-25 0 -28 11q-3 14 6 27l396 612h-154q-104 0 -145.5 -41t-48.5 -130q-1 -12 -2 -15.5t-4 -5.5t-10 -2q-20 0 -23 14q-1 3 0 12l10 181q1 14 4.5 17t21.5 3h418q25 0 28 -11q3 -10 -6 -26l-394 -610
h163q44 0 76.5 6.5t54 21t35 30t21 42.5t11 49t6.5 59q2 17 4.5 21t13.5 4q19 0 23 -14z" />
    <glyph glyph-name="bracketleft" unicode="[" horiz-adv-x="333" 
d="M283 736q1 -3 0.5 -13t-1.5 -13q-3 -6 -25 -6h-69v-908h62q28 0 32 -14q2 -20 -1 -25q-2 -7 -23 -7h-84q-29 0 -32 14v15v951q-1 15 2.5 17.5t22.5 2.5h84q28 0 32 -14z" />
    <glyph glyph-name="backslash" unicode="\" horiz-adv-x="538" 
d="M477 -227q0 -10 -6.5 -16.5t-16.5 -6.5q-11 0 -15.5 5.5t-9.5 18.5l-364 935l-5 18q0 10 7 16.5t17 6.5q11 0 15.5 -5.5t9.5 -18.5l363 -935z" />
    <glyph glyph-name="bracketright" unicode="]" horiz-adv-x="333" 
d="M190 -230q0 -15 -3.5 -17.5t-21.5 -2.5h-84q-29 0 -32 14q-4 16 0 26q3 6 25 6h70v908h-63q-28 0 -32 14q-2 20 1 25q2 7 23 7h84q29 0 32 -14q1 -4 1 -15v-951z" />
    <glyph glyph-name="asciicircum" unicode="^" horiz-adv-x="563" 
d="M568 584l-12 -22l-276 123l-273 -123l-12 22l287 160z" />
    <glyph glyph-name="underscore" unicode="_" horiz-adv-x="806" 
d="M826 -125q0 -7 -6 -13t-13 -6h-807q-8 0 -13.5 6t-5.5 13q0 8 5.5 13.5t14.5 5.5h806q8 0 13.5 -5.5t5.5 -13.5z" />
    <glyph glyph-name="grave" unicode="`" 
d="M342 522q-2 -6 -10 -13.5t-15 -7.5q-5 0 -12 7l-140 122q-18 15 -14 35q3 15 15 23t24 8q7 0 13 -3t9 -7l3 -3l120 -143q8 -12 7 -18z" />
    <glyph glyph-name="a" unicode="a" 
d="M531 143q2 -60 -9 -100q-15 -53 -65 -53q-35 0 -64 19.5t-44 48.5q-43 -68 -113 -68q-58 0 -107 44.5t-68 115.5q-27 107 26 199t143 92q59 0 107 -56q-1 19 9 28t23 9t24 -8t14 -20q1 -5 1 -21l1 -282q0 -15 4 -29q11 -44 39 -44q41 0 40 110q0 20 2 24t15 4
q19 0 22 -13zM337 133l-1 171v14q-4 12 -12.5 30t-33 41.5t-53.5 23.5q-25 0 -50 -21.5t-40 -71.5q-10 -34 -10 -104.5t9 -106.5t31 -63.5t55 -27.5q40 0 73 42t32 73z" />
    <glyph glyph-name="b" unicode="b" horiz-adv-x="500" 
d="M421 281q28 -110 -25.5 -200.5t-142.5 -90.5q-57 0 -104 43.5t-65 113.5q-9 32 -9 76v412q0 5 -3 8t-15 5t-35 2q-27 0 -30 14q-4 9 0 13t7.5 5t12.5 2l103 9q30 3 30 -13v-290q51 51 102 51q55 0 105 -42t69 -118zM338 119q8 33 8 96.5t-9 105.5q-12 47 -35.5 69.5
t-49.5 22.5q-33 0 -73 -40q-34 -42 -34 -77q0 -141 10 -180q10 -40 34 -69t58 -29q29 0 54.5 26.5t36.5 74.5z" />
    <glyph glyph-name="c" unicode="c" horiz-adv-x="500" 
d="M483 100q1 -5 -5 -17t-22 -28t-38 -30.5t-58 -24.5t-77 -10q-73 0 -130.5 46.5t-76.5 122.5q-27 109 35 195.5t162 86.5q53 0 92 -24t48 -62q8 -28 -3.5 -44t-32.5 -16q-18 0 -30 10t-15 23q1 3 -1.5 12t6 21t26.5 16q-29 36 -83 36q-33 0 -66.5 -24t-50.5 -80
q-10 -34 -10.5 -91.5t8.5 -93.5q13 -50 44 -78t72 -28q47 0 94 22.5t73 68.5q8 12 13 12q6 0 15 -7.5t11 -13.5z" />
    <glyph glyph-name="d" unicode="d" 
d="M546 143q2 -60 -9 -100q-15 -53 -65 -53q-35 0 -64 19.5t-44 48.5q-16 -25 -45 -46.5t-68 -21.5q-58 0 -107 44.5t-68 115.5q-27 107 26 199t143 92q59 0 107 -56v228q0 17 -1 22q-2 6 -4 8.5t-14 4.5t-35 2q-26 0 -30 14q-2 8 1 12.5t7 5.5t13 2l103 9q26 2 30 -13v-15
v-574q0 -11 6 -29q11 -44 39 -44q41 0 40 110q0 20 2 24t15 4q19 0 22 -13zM352 133v171v14q-38 95 -100 95q-25 0 -50 -21.5t-40 -71.5q-10 -34 -10 -104.5t9 -106.5t31 -63.5t55 -27.5q40 0 73 42t32 73z" />
    <glyph glyph-name="e" unicode="e" horiz-adv-x="500" 
d="M483 100q1 -5 -5 -17t-22 -28t-38 -30.5t-58 -24.5t-77 -10q-76 0 -131.5 53t-74.5 127q-30 123 36 197t159 74q51 0 88.5 -24.5t47.5 -62.5q7 -30 -0.5 -53t-29 -36t-42.5 -21t-51 -11.5t-44 -4t-31 -0.5h-58q0 -58 10 -96q11 -43 39.5 -78.5t75.5 -35.5t94 22.5
t73 68.5q8 12 13 12q6 0 15 -7.5t11 -13.5zM363 354q-7 28 -31 43.5t-53 15.5q-19 0 -38.5 -7.5t-40 -24t-33.5 -49t-14 -76.5h41q16 0 28 0.5t37.5 3t43 9t35.5 16.5t24.5 28t0.5 41z" />
    <glyph glyph-name="f" unicode="f" horiz-adv-x="333" 
d="M317 637q6 -23 -5 -39t-33 -16q-36 0 -44 34t22 47q-18 13 -42 13q-14 0 -22 -8t-10 -22t-2.5 -31t0.5 -35q1 -17 9 -149h83q29 0 33 -14q3 -13 -3.5 -16t-22.5 -3h-88l19 -312q5 -44 3 -94.5t-8.5 -94t-30 -72.5t-61.5 -29q-33 0 -65 17.5t-40 49.5q-5 23 5.5 39
t32.5 16q36 0 44 -34q9 -33 -22 -48q18 -12 40 -12q37 0 37 79q2 67 -2 134l-23 361h-66q-28 0 -32 14q-3 13 3 16t22 3h71l-7 109q-9 164 97 164q37 0 68.5 -18t39.5 -49z" />
    <glyph glyph-name="g" unicode="g" horiz-adv-x="500" 
d="M422 -66q0 -55 -45.5 -96.5t-135.5 -41.5q-59 0 -96.5 11.5t-46.5 46.5q-6 24 5 39t32 15q16 0 28.5 -9.5t16.5 -24.5q5 -28 -15 -42q29 -8 71 -8q63 0 94 44q15 22 18.5 42t3.5 56v84q-45 -50 -101 -50q-57 0 -106.5 42.5t-68.5 115.5q-26 106 27 194.5t142 88.5
q60 0 106 -54q0 15 9 25t24 10q13 0 24 -8t14 -20v-21v-439zM352 141v165q-5 31 -32 69t-68 38q-30 0 -55.5 -26.5t-37.5 -72.5q-8 -34 -7.5 -99t9.5 -97q9 -37 32 -63.5t53 -26.5q41 0 73.5 40.5t32.5 72.5z" />
    <glyph glyph-name="h" unicode="h" 
d="M546 143q2 -7 -1 -30t-11.5 -51.5t-31.5 -50t-56 -21.5q-38 0 -67.5 24t-38.5 59q-5 19 0 52q20 166 6 222q-17 66 -69 66q-38 0 -66 -20t-41 -48.5t-18.5 -50.5t-5.5 -35v-65q0 -176 -1 -179q-1 -11 -9.5 -18t-20.5 -7q-15 0 -27.5 9t-12.5 20v616q-2 6 -4.5 8.5
t-14 4.5t-34.5 2q-27 0 -30 14q-4 9 0 13t7.5 5t12.5 2l103 9q27 2 30 -13v-306q51 67 128 67q115 0 143 -108q13 -51 -6 -219q-4 -43 1 -64q7 -32 30 -32q31 0 47.5 32.5t18.5 84.5q0 14 2.5 17.5t14.5 3.5q19 0 22 -13z" />
    <glyph glyph-name="i" unicode="i" horiz-adv-x="333" 
d="M323 143q2 -7 -1 -29.5t-11 -51t-30.5 -50.5t-56.5 -22q-38 0 -67.5 24t-38.5 59q-5 22 0 46l24 186q6 54 0 77q-7 31 -30 31q-33 0 -48 -35t-17 -82v-11t-2 -6t-5 -3.5t-9 -0.5q-20 0 -23 13q-2 7 1 29.5t11 51.5t31 50.5t56 21.5q35 0 65 -22t40 -61q5 -21 1 -52
l-23 -174q-7 -59 -1 -82q7 -32 30 -32q31 0 47 32.5t18 84.5q1 10 1.5 13.5t4 5.5t11.5 2q19 0 22 -13zM222 608q7 -26 -9.5 -45.5t-42.5 -19.5q-19 0 -35.5 12.5t-22.5 33.5q-6 25 10 45t42 20q17 0 34.5 -11t23.5 -35z" />
    <glyph glyph-name="j" unicode="j" horiz-adv-x="333" 
d="M256 -52q0 -62 -40.5 -107t-103.5 -45q-42 0 -73 15.5t-38 43.5q-5 22 6 37.5t31 15.5q36 0 46 -34q6 -29 -17 -43q20 -7 38 -7q24 0 41 14t24.5 36t10.5 40.5t3 34.5v393q0 12 -3 27q-11 44 -42 44q-29 0 -54.5 -28t-36.5 -94q-1 -6 -1.5 -8t-2 -4.5t-4.5 -3t-9 -0.5
q-20 0 -23 12q-2 7 4 30t18.5 51.5t40 50.5t64.5 22q41 0 74.5 -25.5t43.5 -66.5q3 -11 3 -35v-366zM222 608q7 -26 -9.5 -45.5t-42.5 -19.5q-19 0 -35.5 12.5t-22.5 33.5q-6 25 10 45t42 20q17 0 34.5 -11t23.5 -35z" />
    <glyph glyph-name="k" unicode="k" horiz-adv-x="500" 
d="M490 143q2 -7 -1.5 -42t-12.5 -59q-20 -52 -69 -52q-42 0 -75.5 28t-44.5 71q-3 17 -3 30q-1 12 -3 25q-17 68 -135 82v-198q0 -38 -31 -38q-15 0 -25.5 8.5t-13.5 20.5v15v579q0 12 -2 22q-1 6 -3.5 8.5t-14 4.5t-34.5 2q-27 0 -30 14q-4 9 0 13t7.5 5t12.5 2l103 9
q27 2 31 -13v-15v-400q35 17 82 84q62 92 127 92q34 0 57 -19.5t30 -46.5t-5 -42.5t-32 -15.5q-35 0 -44 34q-5 19 5 32.5t25 16.5q-13 13 -30 13q-56 0 -112 -86q-38 -53 -66 -75q146 -24 167 -107q4 -18 4 -31q0 -30 5 -50q12 -46 43 -46q21 0 32.5 19t14 42t2.5 57
q0 12 3 16t14 4q19 0 22 -13z" />
    <glyph glyph-name="l" unicode="l" horiz-adv-x="278" 
d="M268 143q0 -5 0.5 -19t-2 -38.5t-6.5 -40.5q-15 -55 -64 -55q-38 0 -72 24.5t-45 67.5q-4 20 -4 36v495v22q-2 6 -4.5 8.5t-14 4.5t-34.5 2q-27 0 -30 14q-4 9 0 13t7.5 5t12.5 2l103 9q27 2 30 -13v-15v-574q0 -7 2.5 -17t2.5 -12q15 -44 41 -44q13 0 21 10t11.5 31
t4 35.5t1.5 41.5q0 9 0.5 12.5t4 5.5t11.5 2q19 0 23 -13z" />
    <glyph glyph-name="m" unicode="m" horiz-adv-x="889" 
d="M879 143q2 -7 -1 -30t-11.5 -51.5t-31.5 -50t-56 -21.5q-38 0 -67.5 24t-38.5 59q-4 17 0 52q20 166 6 222q-17 66 -69 66q-49 0 -84 -35q-16 -18 -27.5 -44.5t-15 -41.5t-4.5 -24v-65v-65v-86q0 -24 -1 -34t-8.5 -19t-22.5 -9q-13 0 -23.5 8t-13.5 20q-1 3 -1.5 11
t-0.5 10l1 251q0 29 -7 57q-16 66 -69 66q-31 0 -56 -14.5t-38.5 -34.5t-22.5 -40.5t-12 -35.5l-2 -14v-136v-86q0 -24 -1 -34t-8.5 -19t-22.5 -9q-13 0 -24 8t-14 20v6t-1 9v292q2 21 -5 44q-10 44 -39 44q-24 0 -32 -29t-8 -82q0 -19 -2 -23t-14 -4q-20 0 -23 13
q-1 7 0.5 42t7.5 57q19 54 66 54q36 0 67.5 -22.5t45.5 -57.5q49 80 135 80q104 0 137 -90q43 90 139 90q115 0 143 -108q15 -59 -6 -219q-4 -43 1 -64q7 -32 30 -32q31 0 47.5 32.5t18.5 84.5q1 10 1.5 13.5t4 5.5t11.5 2q19 0 22 -13z" />
    <glyph glyph-name="n" unicode="n" horiz-adv-x="611" 
d="M601 143q2 -8 -1 -30.5t-11.5 -51t-31.5 -50t-56 -21.5q-38 0 -68 24t-38 59q-5 19 0 52q20 165 5 222q-16 66 -68 66q-51 0 -89 -41q-16 -19 -28 -53.5t-13 -50.5v-65v-65v-86q0 -24 -1 -34t-8.5 -19t-22.5 -9q-13 0 -24 8t-14 20v6t-1 9v292q2 21 -5 44q-10 44 -39 44
q-24 0 -32 -29t-8 -82q0 -19 -2 -23t-14 -4q-20 0 -23 13q-1 7 0.5 42t7.5 57q19 54 66 54q36 0 67.5 -22.5t45.5 -57.5q9 14 15.5 23t23 24.5t40.5 24t54 8.5q115 0 143 -108q14 -59 -7 -219q-4 -43 1 -64q9 -32 31 -32q31 0 47 33t18 84q1 10 1.5 13.5t4 5.5t11.5 2
q19 0 23 -13z" />
    <glyph glyph-name="o" unicode="o" 
d="M478 272q18 -70 -4.5 -136t-75 -106t-118.5 -40q-67 0 -125.5 45t-78.5 124q-27 109 35.5 195.5t161.5 86.5q70 0 128 -46.5t77 -122.5zM393 307q-13 51 -44.5 78.5t-69.5 27.5q-31 0 -63.5 -23t-49.5 -72q-13 -39 -13.5 -101t8.5 -93q14 -55 46 -80.5t67 -25.5
q37 0 67.5 25.5t44.5 66.5q11 31 14 74t0.5 73.5t-7.5 49.5z" />
    <glyph glyph-name="p" unicode="p" 
d="M477 281q28 -111 -26 -201t-142 -90q-60 0 -107 56v-145q0 -43 1 -48q4 -14 53 -14q26 0 29 -14q5 -19 -14 -19q-2 0 -11.5 1t-32 1.5t-54.5 0.5q-25 0 -42.5 -0.5t-24.5 -1t-12 -1t-7 -0.5q-15 0 -18 14q-3 13 2 16t17 3q29 0 35.5 6.5t6.5 31.5v465q0 12 -4 27
q-10 44 -39 44q-24 0 -32 -29t-8 -82q0 -19 -2 -23t-14 -4q-20 0 -23 13q-1 7 0.5 42t7.5 57q19 54 66 54q30 0 60 -17t47 -51q46 68 114 68q54 0 104 -42t70 -118zM394 119q8 33 8 96.5t-9 105.5q-13 47 -36.5 69.5t-48.5 22.5q-57 0 -96 -77q-12 -27 -12 -39v-171v-13
l3 -7q3 -7 7.5 -15t10.5 -18.5t14.5 -19.5t18 -17t22.5 -13t26 -5q30 0 55 26.5t37 74.5z" />
    <glyph glyph-name="q" unicode="q" horiz-adv-x="500" 
d="M506 -175q5 -19 -14 -19q-2 0 -11.5 1t-33 1.5t-59.5 0.5q-17 0 -51.5 -1.5t-49.5 -1.5q-14 0 -19 14q-3 13 2.5 16t17.5 3q48 1 56.5 8.5t8.5 47.5v146l-5 -5q-5 -5 -10.5 -10t-15 -12t-20 -12t-24 -8.5t-27.5 -3.5q-58 0 -107 44.5t-68 115.5q-27 107 26 199t143 92
q64 0 112 -63q7 19 22.5 41t25.5 22q15 0 18 -14v-13v-539q2 -17 10.5 -25t17 -9.5t26.5 -1.5q26 0 29 -14zM352 133v171l-1 13q-2 7 -8 20t-18 31.5t-31.5 31.5t-41.5 13q-25 0 -50 -21.5t-40 -71.5q-10 -34 -10 -104.5t9 -106.5t31 -63.5t55 -27.5q40 0 72.5 42t32.5 73z
" />
    <glyph glyph-name="r" unicode="r" horiz-adv-x="458" 
d="M427 372q7 -28 -5.5 -41.5t-30.5 -13.5q-35 0 -44 34q-8 33 22 46q-25 16 -60 16q-32 0 -55 -19t-33.5 -46t-14.5 -46t-4 -28v-245q0 -39 -32 -39q-13 0 -24 8t-14 20v15v292q0 23 -6 44q-10 44 -39 44q-24 0 -32 -29t-8 -82q0 -19 -2 -23t-14 -4q-20 0 -23 13
q-1 7 0.5 42t7.5 57q19 54 66 54q35 0 64.5 -19.5t43.5 -49.5q35 69 113 69q22 0 45 -4.5t48 -21t31 -43.5z" />
    <glyph glyph-name="s" unicode="s" horiz-adv-x="444" 
d="M385 156q2 -15 3.5 -35.5t-8.5 -43.5t-26 -42.5t-49.5 -32t-78.5 -12.5q-66 0 -112 27t-57 70q-8 30 3.5 46t33.5 16q16 0 28 -9.5t16 -23.5v-3q1 -3 1 -6.5t-0.5 -8.5t-2.5 -9.5t-5.5 -9t-10 -7.5t-15.5 -5q34 -49 114 -49q39 0 65.5 12t35 29t12.5 35t-2 29
q-13 52 -92 66q-51 11 -67 16t-35 18q-40 26 -50 71q-1 12 -3 30t6 38.5t20.5 38t40.5 29t67 11.5q48 0 88.5 -22.5t51.5 -63.5q6 -16 2.5 -26.5t-6.5 -16.5t-10.5 -8.5t-10.5 -3t-6 -0.5q-13 0 -24 8.5t-15 21.5q1 2 -1 9t4.5 17.5t21.5 14.5q-27 42 -89 42
q-53 0 -71.5 -29t-11.5 -57q4 -15 11.5 -25t22.5 -16t25.5 -9t33.5 -7q129 -25 152 -114z" />
    <glyph glyph-name="t" unicode="t" horiz-adv-x="361" 
d="M350 144q2 -7 -3.5 -30t-17.5 -51.5t-40 -50.5t-65 -22q-39 0 -72.5 25t-44.5 67q-4 13 -4 36v280h-85q-29 0 -32 14q-3 13 2.5 16t22.5 3h92v155q0 39 32 39q29 0 38 -28v-22v-144h85q29 0 32 -14q3 -13 -2.5 -16t-21.5 -3h-93v-307q0 -8 6 -29q10 -44 40 -44
q70 0 93 122q1 6 1.5 8t2 4.5t4.5 3t9 0.5q18 0 21 -12z" />
    <glyph glyph-name="u" unicode="u" horiz-adv-x="583" 
d="M573 143q2 -60 -9 -100q-15 -53 -64 -53q-70 0 -104 61q-38 -61 -104 -61q-51 0 -94.5 28.5t-59.5 91.5q-7 26 -6.5 65t2.5 60.5t9 79.5q6 45 0 67q-7 31 -30 31q-31 0 -47.5 -33t-18.5 -84v-11t-2 -6t-5 -3.5t-9 -0.5q-20 0 -23 13q-2 7 1 29.5t11 51.5t31 50.5t57 21.5
q35 0 65 -22t40 -61q5 -21 1 -50q-7 -54 -9.5 -83.5t-2 -66t7.5 -62.5q18 -78 79 -78q44 0 67.5 36t23.5 62l-1 275q0 40 32 40q30 0 38 -29q1 -3 1 -19l1 -292q0 -15 4 -29q11 -44 40 -44q40 0 40 110q-1 19 1.5 23.5t14.5 4.5q19 0 22 -13z" />
    <glyph glyph-name="v" unicode="v" horiz-adv-x="500" 
d="M434 368q5 -19 8.5 -59t0 -96t-15 -105t-43 -83.5t-79.5 -34.5q-55 0 -102.5 29t-64.5 96q-13 51 5 200q6 45 0 67q-7 31 -30 31q-31 0 -47.5 -33t-18.5 -84v-11t-2 -6t-5 -3.5t-9 -0.5q-20 0 -23 13q-2 7 1 29.5t11 51.5t31 50.5t57 21.5q35 0 65 -22t40 -61
q4 -15 -1 -72q-17 -128 -3 -184q22 -84 92 -84q40 0 65 36.5t31.5 86t6.5 90.5t-5 59q-10 46 -46 76q-17 13 -20 27q-5 20 7.5 34t29.5 14q45 0 64 -73z" />
    <glyph glyph-name="w" unicode="w" horiz-adv-x="722" 
d="M656 368q11 -40 10 -124.5t-12 -136.5q-23 -117 -114 -117q-90 0 -138 62q-27 -62 -89 -62q-23 0 -45.5 4.5t-49.5 17t-48.5 39.5t-31.5 66q-8 30 -7 70.5t12 127.5q6 45 0 67q-7 31 -30 31q-31 0 -47.5 -33t-18.5 -84v-11t-2 -6t-5 -3.5t-9 -0.5q-20 0 -23 13
q-2 7 1 29.5t11 51.5t31 50.5t57 21.5q35 0 65 -22t40 -61q5 -21 -1 -61q-17 -139 -4 -192q22 -87 100 -87q34 0 52 35q18 36 12 67q-6 29 -6 53v218q0 40 32 40q30 0 38 -29q1 -3 1 -43v-56v-101q0 -73 7 -100q21 -84 93 -84q65 0 81 91q7 33 8.5 91t-5.5 90q-12 48 -46 76
q-17 13 -20 27q-5 20 7.5 34t29.5 14q10 0 20 -4.5t23.5 -22t20.5 -46.5z" />
    <glyph glyph-name="x" unicode="x" horiz-adv-x="508" 
d="M491 144q3 -13 -2.5 -37t-18.5 -51t-41 -46.5t-65 -19.5q-36 0 -68 17.5t-52 45.5q-29 -63 -88 -63q-37 0 -71 18t-42 51q-6 23 5 39t33 16q35 0 44 -34q8 -34 -24 -48q22 -14 49 -14q64 0 64 118v130q0 64 -5 84q-7 28 -25.5 45.5t-42.5 17.5q-33 0 -61.5 -29.5
t-32.5 -95.5q-1 -8 -4 -10.5t-12 -2.5q-20 0 -23 13q-3 12 2.5 35.5t18.5 50.5t41 47t65 20q71 0 121 -63q27 63 87 63q20 0 41 -5.5t43.5 -22t28.5 -41.5q7 -28 -6 -41.5t-31 -13.5q-35 0 -44 34q-5 19 4 31.5t19 16.5q-28 14 -49 14q-29 0 -47 -26t-18 -72v-130
q0 -78 6 -104q8 -30 26.5 -46.5t42.5 -16.5q31 0 60 28.5t33 96.5q0 13 17 13q19 0 22 -12z" />
    <glyph glyph-name="y" unicode="y" horiz-adv-x="528" 
d="M450 -9q-1 -73 -52 -134t-132 -61q-45 0 -80.5 24.5t-45.5 62.5q-9 33 4.5 47t31.5 14q17 0 29 -9.5t16 -23.5q5 -17 -4 -31.5t-29 -18.5q26 -37 72 -37q60 0 94 63q27 54 25 140q-32 -37 -87 -37q-51 0 -94.5 28.5t-59.5 91.5q-7 26 -6.5 65t2.5 60.5t9 79.5q6 45 0 67
q-7 31 -30 31q-31 0 -47.5 -33t-18.5 -84v-11t-2 -6t-5 -3.5t-9 -0.5q-20 0 -23 13q-2 7 1 29.5t11 51.5t31 50.5t57 21.5q35 0 65 -22t40 -61q5 -21 1 -50q-7 -54 -9.5 -83.5t-2 -66t7.5 -62.5q18 -78 79 -78q44 0 67.5 36t23.5 62l-1 275q0 40 32 40q30 0 38 -29v-3.5
t0.5 -5.5t0.5 -10v-392z" />
    <glyph glyph-name="z" unicode="z" horiz-adv-x="444" 
d="M434 145q3 -13 -2.5 -37.5t-18.5 -51t-41 -46.5t-64 -20t-76 37q-40 34 -63 34q-41 0 -64 -57q-3 -10 -5.5 -12t-12.5 -2q-20 0 -23 12q-2 9 16.5 47.5t46.5 77.5q19 26 75 91q85 97 100 124q-26 1 -70 16q-37 14 -62 14q-60 0 -67 -49q-2 -11 -17 -11q-19 0 -22 12
q-7 28 19.5 72.5t78.5 44.5q34 0 78 -37q38 -34 59 -34q16 0 25.5 11.5t23.5 49.5q3 10 17 10q20 0 23 -12q3 -13 -36 -83q-7 -14 -57 -80l-88 -101l-57 -76q40 0 79 -13q53 -17 72 -17q36 0 63.5 23.5t31.5 58.5q0 8 0.5 10.5t4 4.5t11.5 2q19 0 22 -13z" />
    <glyph glyph-name="braceleft" unicode="{" horiz-adv-x="538" 
d="M461 -236q0 -14 -23 -14q-91 0 -151 38q-20 13 -32.5 27.5t-17 31t-5.5 26t-1 25.5v204q0 37 -3 49q-5 17 -16 32.5t-43 32.5t-78 20q-15 0 -15 14q0 9 4.5 11t15.5 3q60 4 98 35q17 14 26 31.5t10 28.5t1 31v234q1 56 61.5 91t145.5 35q23 0 23 -14q0 -10 -4.5 -12
t-15.5 -2q-61 0 -107 -41q-19 -19 -23 -40t-4 -95v-150q0 -25 -2 -39.5t-12 -37t-35.5 -39.5t-66.5 -30q59 -19 90 -53q19 -22 22.5 -43t3.5 -96v-150q0 -38 3 -47q22 -76 136 -83q15 0 15 -14z" />
    <glyph glyph-name="bar" unicode="|" horiz-adv-x="299" 
d="M172 -214q0 -36 -23 -36t-23 36v928q0 36 23 36t23 -36v-928z" />
    <glyph glyph-name="braceright" unicode="}" horiz-adv-x="538" 
d="M461 250q0 -9 -4.5 -11t-15.5 -3q-58 -4 -97 -35q-17 -14 -26 -31.5t-10 -28.5t-1 -31v-234q-1 -56 -61.5 -91t-144.5 -35q-25 0 -25 14q0 10 4.5 12t16.5 2q43 0 80.5 21.5t50.5 60.5q3 11 3 94v150q0 24 2.5 38.5t12 37.5t35.5 40.5t67 29.5q-96 29 -114 95
q-3 14 -3 97v150q0 38 -3 47q-22 76 -136 83q-16 0 -16 14t25 14q91 0 149 -38q20 -13 32.5 -27t17.5 -30.5t6 -26.5t1 -26v-234q0 -12 6.5 -27t20.5 -32.5t43 -30t69 -14.5q15 0 15 -14z" />
    <glyph glyph-name="asciitilde" unicode="~" horiz-adv-x="563" 
d="M562 290l-55 -44q-20 -17 -57 -35q-41 -18 -75 -18q-44 0 -100 34q-25 14 -36 19.5t-31 11.5t-39 6q-70 0 -155 -71l-15 17l55 44q22 17 58 35q41 18 75 18q42 0 100 -34q25 -14 36 -19.5t31 -11.5t39 -6q68 0 155 71z" />
    <glyph glyph-name="uni00A0" unicode="&#xa0;" 
 />
    <glyph glyph-name="exclamdown" unicode="&#xa1;" horiz-adv-x="333" 
d="M220 454q7 -26 -9.5 -45.5t-41.5 -19.5q-19 0 -36 12.5t-22 33.5q-7 25 9 45t42 20q17 0 34.5 -11t23.5 -35zM222 -156q2 -33 -16.5 -46t-36.5 -13q-20 0 -37 12t-22 32q-3 12 -1 24l36 439q1 12 4 14.5t14 2.5q19 0 22 -13l2 -13z" />
    <glyph glyph-name="cent" unicode="&#xa2;" horiz-adv-x="500" 
d="M483 100q1 -5 -5 -16.5t-21 -27t-36.5 -30t-56 -25t-73.5 -11.5l1 -22q-2 -16 -17 -16q-7 0 -12 4.5t-4 11.5l-1 23q-65 8 -114.5 53.5t-67.5 114.5q-27 105 30.5 189.5t152.5 91.5l-1 23q0 6 5 11t12 5t11.5 -5t4.5 -11l1 -23q46 -4 79.5 -27t41.5 -58q8 -28 -3.5 -44
t-32.5 -16q-18 0 -30 10t-15 23q1 3 -1.5 12t6 21t26.5 16q-24 30 -71 36v-394q44 2 85.5 24.5t66.5 65.5q8 12 13 12q6 0 15 -7.5t11 -13.5zM258 19v392q-70 -17 -95 -102q-10 -34 -10.5 -91.5t8.5 -93.5q11 -44 37 -71.5t60 -33.5z" />
    <glyph glyph-name="sterling" unicode="&#xa3;" horiz-adv-x="694" 
d="M650 139q5 -21 -8 -54.5t-52.5 -64t-94.5 -30.5q-46 0 -101 24l-90 45q-53 -69 -133 -69q-32 0 -56.5 13t-30.5 37q-9 35 23 67t92 32q31 0 67 -11q3 18 3 99v104h-57q-26 0 -29 12q-5 10 -0.5 14.5t8.5 5.5t15 1h63v163q0 67 48.5 123t122.5 56q58 0 103 -38t61 -100
q21 -89 -33 -89q-16 0 -28.5 9.5t-16.5 24.5q0 2 -0.5 5t0.5 11t4 14.5t12.5 12t24.5 6.5q-4 14 -9 27.5t-18.5 37t-37.5 37.5t-55 14q-45 0 -76.5 -40.5t-31.5 -109.5v-164h86q11 0 15.5 -0.5t9 -3.5t5.5 -9q3 -14 -2.5 -17t-21.5 -3h-92l1 -162q0 -38 -13 -67
q84 -43 111.5 -54t61.5 -11q47 0 77 28t35 70q1 11 3.5 13.5t13.5 2.5q18 0 21 -12zM253 81q-29 11 -60 11q-36 0 -52.5 -18t-11.5 -34q5 -22 36 -22q55 0 88 63z" />
    <glyph glyph-name="currency" unicode="&#xa4;" horiz-adv-x="833" 
d="M656 22q-17 -17 -38 -4q-3 2 -13 13l-55 54q-61 -46 -134 -46t-133 47l-57 -55q-23 -26 -45 -13t5 37l63 64q-45 58 -45 131q0 74 46 131l-67 66q-19 19 -7 32q7 7 18 8t19 -4q6 -4 14 -13l57 -55q59 46 133 46q75 0 132 -46l56 54q23 26 46 13q22 -13 -5 -37l-63 -63
q47 -58 47 -132t-46 -131l66 -65q18 -20 6 -32zM584 250q-1 68 -49.5 116.5t-118.5 48.5q-69 0 -117.5 -48.5t-48.5 -116.5t49 -116.5t118 -48.5t118 48.5t49 116.5z" />
    <glyph glyph-name="yen" unicode="&#xa5;" horiz-adv-x="806" 
d="M763 669q4 -8 0.5 -12t-6.5 -5t-10 -2q-66 -7 -111 -75l-149 -233h159q19 0 19 -19q-2 -19 -20 -19h-183l-20 -31l1 -77h202q8 0 14 -6t5 -13q1 -8 -4.5 -13.5t-13.5 -5.5h-204v-57q0 -46 2 -54q3 -14 59 -14q30 0 34 -14q5 -19 -15 -19l-13 1q-13 1 -41.5 1.5t-65.5 0.5
h-58q-54 -3 -57 -3q-15 0 -19 14q-3 13 2.5 16t18.5 3q54 1 63.5 9.5t10.5 57.5l-1 58h-200q-8 0 -14 5.5t-6 13.5q0 7 6 13t13 6h202l-1 76q-1 4 -8 15l-11 17h-182q-7 0 -13 6t-6 13q0 8 6 13.5t14 5.5h156l-177 279q-11 17 -23 23t-49 6q-24 0 -27 14q-5 19 15 19
q2 0 10.5 -0.5t33 -1.5t63.5 -1q19 0 57 1.5t56 1.5q17 0 19 -14q3 -13 -2.5 -16t-16.5 -3q-51 0 -46 -21q1 -7 9 -17l173 -270h27l152 238l6 10q1 1 1.5 4t2.5 5q5 8 7 16t1 12v4q-5 17 -33 19q-17 1 -20 14q-5 19 15 19q1 0 11.5 -0.5t32.5 -1.5t49 -1q25 0 41 0.5t21.5 1
t10 1t8.5 0.5q14 0 17 -14z" />
    <glyph glyph-name="brokenbar" unicode="&#xa6;" horiz-adv-x="299" 
d="M173 343q-1 -16 -24 -16q-24 0 -24 16v371q1 9 1 12t2.5 10.5t7.5 10.5t13 3q24 0 24 -36v-371zM173 -214q-2 -28 -11 -33q-5 -3 -13 -3q-24 0 -24 36v371q1 16 24 16q24 0 24 -16v-371z" />
    <glyph glyph-name="section" unicode="&#xa7;" horiz-adv-x="541" 
d="M504 194q0 -40 -25 -72t-66 -50q39 -49 39 -107q0 -73 -53.5 -124.5t-128.5 -51.5q-71 0 -120 54t-48 128q-1 17 11.5 29.5t30.5 12.5q17 0 29.5 -12.5t13.5 -29.5q-1 -17 -12.5 -29t-27.5 -13q13 -39 46.5 -63.5t76.5 -24.5q50 0 84.5 36.5t34.5 87.5q0 72 -104 119
l-103 45q-64 29 -104.5 74t-40.5 103q0 40 25 71.5t66 49.5q-39 50 -39 108q0 73 53.5 124.5t128.5 51.5q71 0 120 -54t48 -128q1 -17 -11.5 -29.5t-30.5 -12.5q-17 0 -29.5 12.5t-13.5 29.5q1 17 12 29t28 13q-13 39 -47 63.5t-76 24.5q-50 0 -84.5 -36.5t-34.5 -87.5
q0 -72 104 -119l103 -45q63 -29 103.5 -74t41.5 -103zM427 194q0 69 -98 113l-102 45q-43 20 -72 46q-39 -24 -41 -92q0 -68 97 -113l103 -45q41 -19 71 -46q40 24 42 92z" />
    <glyph glyph-name="dieresis" unicode="&#xa8;" 
d="M234 608q6 -24 -9 -41.5t-38 -17.5q-17 0 -32 11.5t-20 30.5q-6 22 8.5 40t37.5 18q15 0 31.5 -10t21.5 -31zM421 608q7 -24 -8 -41.5t-39 -17.5q-17 0 -32 11.5t-20 30.5q-5 23 9 40.5t37 17.5q16 0 32 -10t21 -31z" />
    <glyph glyph-name="copyright" unicode="&#xa9;" horiz-adv-x="692" 
d="M690 342q1 -142 -100 -242t-245 -100q-143 0 -244 100t-101 242q0 141 100.5 241t244.5 100q143 0 244 -100t101 -241zM644 342q-1 122 -88.5 208.5t-210.5 86.5q-125 0 -212 -86t-87 -209t87.5 -209.5t211.5 -86.5t211.5 86.5t87.5 209.5zM504 285q1 -26 -9 -52
q-16 -40 -52.5 -66t-83.5 -26q-64 0 -116.5 41t-70.5 110q-25 96 33 173t151 77q60 0 104 -48l26 42q3 6 9 6q7 0 9 -6q2 -4 0 -8v-133q0 -8 -1.5 -10t-7.5 -2q-11 0 -13 8q-1 14 -5 29q-12 46 -41.5 75t-71.5 29q-37 0 -69.5 -20t-51.5 -55q-21 -39 -23.5 -97t6.5 -79
q15 -57 53.5 -85.5t81.5 -28.5q44 0 81.5 32t40.5 96q0 6 9 6q10 0 12 -8z" />
    <glyph glyph-name="ordfeminine" unicode="&#xaa;" horiz-adv-x="516" 
d="M459 496q1 -42 -8 -70q-12 -37 -54 -37q-62 0 -91 47q-36 -47 -96 -47q-48 0 -89 31t-56 81q-23 75 21 139t120 64q52 0 89 -39q-1 14 8 20t20 6q25 0 32 -20v-14l1 -198q0 -13 4 -20q8 -31 33 -31q34 0 33 77v3q0 9 0.5 11.5t3 4t9.5 1.5q16 0 20 -9zM443 347
q-2 -11 -17 -11h-337q-14 0 -16 11q0 12 16 12h338q14 0 16 -12zM296 608l-1 10q-3 6 -7.5 14t-15 21.5t-26.5 22.5t-35 9q-52 0 -75 -65q-8 -24 -8.5 -74t7.5 -74q21 -64 73 -64q34 0 61.5 29.5t25.5 51.5z" />
    <glyph glyph-name="guillemotleft" unicode="&#xab;" horiz-adv-x="611" 
d="M305 10q0 -10 -10 -10h-2q-7 0 -9 7q-46 131 -142 228q-3 1 -3 7q0 4 3 7q96 96 142 228q2 6 9 6h2q10 0 10 -10v-2q-28 -120 -94 -229q65 -108 94 -230v-2zM472 10q0 -10 -10 -10h-2q-7 0 -9 7q-46 131 -142 228q-3 1 -3 7q0 4 3 7q96 96 142 228q1 6 9 6h2q10 0 10 -10
v-2q-28 -120 -94 -229q65 -108 94 -230v-2z" />
    <glyph glyph-name="logicalnot" unicode="&#xac;" horiz-adv-x="833" 
d="M749 144q1 -10 -6 -16.5t-17 -6.5q-9 0 -16 6.5t-7 16.5v189h-598q-9 0 -16 6.5t-7 16.5t7 16.5t17 6.5h620q9 0 16 -6.5t7 -16.5v-212z" />
    <glyph glyph-name="uni00AD" unicode="&#xad;" horiz-adv-x="389" 
d="M304 199q0 -10 -4.5 -12t-20.5 -2h-209q-11 0 -16 0.5t-9.5 4t-6.5 10.5v32q0 10 4.5 12t20.5 2h209q28 0 32 -14v-33z" />
    <glyph glyph-name="registered" unicode="&#xae;" horiz-adv-x="692" 
d="M690 342q0 -142 -100.5 -242t-244.5 -100q-143 0 -244 100t-101 242q0 141 100.5 241t244.5 100q143 0 244 -100t101 -241zM644 342q0 122 -88 208.5t-211 86.5q-125 0 -212 -86t-87 -209t87.5 -209.5t211.5 -86.5t211.5 86.5t87.5 209.5zM545 211q2 -6 -1 -20t-16 -29
t-35 -15q-28 0 -53.5 14t-32.5 45q-3 12 -3 50q0 27 -2 35q-12 49 -72 49h-66v-155q1 -8 31 -8q17 0 19 -8q3 -11 -9 -11q-16 0 -32 2h-66q-20 -2 -31 -2q-9 0 -11 8t1.5 9.5t14.5 1.5q24 0 30.5 4.5t6.5 18.5v298q0 6 -2 12q-2 8 -32 8q-16 0 -18 8t1 9.5t12 1.5h154
q54 0 94 -24t48 -59q9 -33 -16 -63.5t-75 -44.5q54 -18 65 -64q1 -4 4 -25.5t4 -25.5q1 -19 6 -38q7 -31 28 -31q30 0 32 47q6 9 10 10q10 0 12 -8zM421 464q-14 54 -94 54h-44q-13 0 -16 -2.5t-3 -16.5v-143h62q52 0 78 23q16 14 19.5 41.5t-2.5 43.5z" />
    <glyph glyph-name="macron" unicode="&#xaf;" 
d="M458 603q3 -10 -0.5 -15t-8.5 -6t-17 -1h-302q-28 0 -32 14q0 8 -0.5 12.5t4.5 6.5t8.5 2.5t12.5 0.5h302q29 0 33 -14z" />
    <glyph glyph-name="degree" unicode="&#xb0;" horiz-adv-x="417" 
d="M343 546q0 -57 -40 -97t-97 -40t-97 40t-40 97t40 97t97 40t97 -40t40 -97zM297 546q0 -38 -26.5 -64.5t-64.5 -26.5t-64.5 26.5t-26.5 64.5t26.5 64.5t64.5 26.5t64.5 -26.5t26.5 -64.5z" />
    <glyph glyph-name="plusminus" unicode="&#xb1;" horiz-adv-x="833" 
d="M748 23q2 -11 -3.5 -16.5t-11 -6t-15.5 -0.5h-593q-36 0 -42 23q-3 11 3 16.5t11.5 6t15.5 0.5h281v260h-269q-35 0 -41 23q-3 11 2.5 16.5t11 6t15.5 0.5h281v279v4v4.5t0.5 4t1 5t2 3.5t3 3t4.5 2t6 1q22 0 29 -23v-19v-264h267q35 0 41 -23q3 -11 -2.5 -16.5t-11.5 -6
t-16 -0.5h-278v-260h266q36 0 42 -23z" />
    <glyph glyph-name="two.superior" unicode="&#xb2;" horiz-adv-x="419" 
d="M374 404q2 -6 -1.5 -22.5t-11.5 -37t-29 -36t-51 -15.5q-31 0 -80 21q-51 24 -78 24q-12 0 -19 -9t-8.5 -16t-1.5 -11q0 -3 -0.5 -4.5t-2 -3t-3.5 -1.5h-6q-14 0 -16 8q-3 8 1.5 31t29.5 58.5t70 57.5q66 32 95 71t10 101q-10 35 -36 51.5t-56 16.5q-59 0 -87 -53
t-17 -91q6 -20 22 -20q30 0 42.5 29t7.5 48q-1 4 -3.5 8t-4.5 7l-3 3l-6 8q-1 3 1.5 5.5t6.5 2.5q7 0 16.5 -11.5t12.5 -22.5q8 -25 -9 -59.5t-56 -34.5q-22 0 -36.5 12.5t-18.5 28.5q-7 24 2.5 59t43 66t84.5 31q53 0 97 -28t59 -75q15 -48 -13 -84t-118 -80
q-73 -33 -95 -83l14 1q20 0 76 -9q63 -9 76 -9q30 0 49.5 17.5t22.5 48.5q0 8 12 8q13 0 16 -7z" />
    <glyph glyph-name="three.superior" unicode="&#xb3;" horiz-adv-x="389" 
d="M336 426q16 -55 -32.5 -94t-121.5 -39q-49 0 -84.5 22.5t-45.5 55.5q-11 45 25 45q13 0 21.5 -6t10.5 -13q0 -4 1 -10t-6.5 -12.5t-21.5 -7.5q11 -29 38 -43t58 -14q66 0 88.5 43t7.5 92q-15 51 -76 51h-24q-20 0 -23 8q-2 8 2 10t14 2h20q43 0 68 16t29 39.5t3.5 38.5
t-3.5 24q-8 26 -31 40t-52 14q-54 0 -88 -31.5t-24 -65.5q7 -22 26 -22q15 0 26 10t7 24q0 1 -11 17l-6 7q-1 3 1.5 5.5t6.5 2.5q7 0 16.5 -10.5t12.5 -21.5q6 -21 -9.5 -35.5t-40.5 -14.5q-21 0 -36 11.5t-20 28.5q-13 39 26.5 75t107.5 36q53 0 91.5 -24t48.5 -58
q11 -35 -11 -69.5t-71 -48.5q65 -25 82 -78z" />
    <glyph glyph-name="acute" unicode="&#xb4;" 
d="M405 665q4 -20 -14 -35l-140 -122q-8 -7 -12 -7q-7 0 -15 7.5t-10 13.5q-2 9 7 18l120 143q10 13 25 13q12 0 23.5 -8t15.5 -23z" />
    <glyph glyph-name="uni00B5" unicode="&#xb5;" 
d="M538 122q0 -41 -4.5 -68t-20.5 -46t-44 -19q-35 0 -64 20.5t-43 51.5q-41 -72 -115 -72q-57 0 -101 28v-184q0 -49 -35 -49t-35 49v559q0 49 35 49t35 -49v-222q0 -18 2 -35.5t10.5 -49t32 -51t59.5 -19.5q64 0 94 65q9 19 9 36v265q0 49 35 49t35 -49v-270q0 -96 47 -96
q21 0 29.5 21t8.5 87q0 30 17 30q9 0 11 -5.5t2 -25.5z" />
    <glyph glyph-name="paragraph" unicode="&#xb6;" horiz-adv-x="658" 
d="M626 671q0 -23 -37 -23h-53v-806q0 -36 -23 -36t-23 36v806h-76v-806q0 -36 -23 -36t-23 36v386q-51 1 -103 15.5t-99 41.5t-77 73t-30 103q1 99 80.5 166t189.5 67h261q36 0 36 -23z" />
    <glyph glyph-name="periodcentered" unicode="&#xb7;" horiz-adv-x="833" 
d="M472 352q7 -27 -9.5 -46.5t-41.5 -19.5q-20 0 -36.5 12t-21.5 33q-7 27 9.5 46.5t41.5 19.5q19 0 35.5 -12t22.5 -33z" />
    <glyph glyph-name="cedilla" unicode="&#xb8;" horiz-adv-x="500" 
d="M394 -104q5 -21 -1.5 -36.5t-24.5 -24.5t-35.5 -15t-46 -8t-43 -2.5t-38.5 -0.5q-27 0 -35 2t-11 12q-1 7 2.5 10t8 3.5t14.5 0.5h13q21 0 36.5 1t42.5 6t40 18t8 33q-8 31 -60 35q-19 0 -24 14v62q0 4 3.5 5t24.5 1h12q28 0 35 -4v-54q67 -11 79 -58z" />
    <glyph glyph-name="one.superior" unicode="&#xb9;" horiz-adv-x="410" 
d="M323 317q3 -12 -12 -12q-9 0 -27 1t-27 1h-103l-48 -2q-5 0 -9 2.5t-5 4.5l-1 2q-2 7 2.5 9t15.5 2h7q45 0 55.5 5.5t9.5 23.5l-1 278q-41 -25 -77 -25q-14 0 -16 9t7 11h2q74 6 112 68q4 9 11 9q10 0 14 -8v-8l-1 -338q0 -5 2 -13q3 -9 25 -11l33 -1h7q21 0 24 -8z" />
    <glyph glyph-name="ordmasculine" unicode="&#xba;" horiz-adv-x="465" 
d="M402 586q22 -75 -30 -136t-137 -61q-56 0 -105 31.5t-66 86.5q-23 76 29.5 136.5t136.5 60.5q58 0 106.5 -32t65.5 -86zM392 347q0 -11 -16 -11h-286q-16 0 -16 11q-1 5 4 8.5t12 3.5h285q15 0 17 -12zM330 611q-11 35 -37.5 54.5t-57.5 19.5q-27 0 -54.5 -16t-41.5 -51
q-11 -27 -11 -70.5t7 -65.5q12 -38 39 -56t56 -18q31 0 57 18t38 47q13 41 12.5 78t-7.5 60z" />
    <glyph glyph-name="guillemotright" unicode="&#xbb;" horiz-adv-x="611" 
d="M473 242q0 -4 -3 -7q-96 -97 -142 -228q-2 -7 -9 -7h-2q-10 0 -10 10v2q27 122 94 230q-67 108 -94 229v2q0 10 10 10h2q7 0 9 -6q46 -132 142 -228q3 -6 3 -7zM306 242q0 -4 -3 -7q-96 -97 -142 -228q-2 -7 -9 -7h-2q-10 0 -10 10v2q27 122 94 230q-67 108 -94 229v2
q0 10 10 10h2q8 0 9 -6q46 -132 142 -228q3 -6 3 -7z" />
    <glyph glyph-name="onequarter" unicode="&#xbc;" horiz-adv-x="876" 
d="M322 317q4 -12 -11 -12q-9 0 -27 1t-27 1h-103l-49 -2q-5 0 -8 2.5t-4 4.5l-1 2q-3 7 1.5 9t15.5 2h7q45 0 55.5 5.5t9.5 23.5l-1 278q-41 -25 -76 -25q-15 0 -17 9t8 11h2q74 6 112 68q3 9 10 9q10 0 14 -8v-8v-338q0 -9 1 -13q2 -9 25 -11l33 -1h7q21 0 23 -8zM789 9
q1 -4 -6 -7.5t-18 -6t-22.5 -4t-19.5 -1.5q-12 0 -18 1l1 -67q0 -16 -1 -23t-6 -12t-16 -5q-23 0 -28 16q-1 6 0 101l-50 13q-30 7 -60 7q-48 0 -59 -9q-14 -12 -20 -12q-4 0 -8.5 4t-5.5 7t0 5.5t4 5.5t6 4.5t7.5 4t5.5 3.5q17 8 50 49q85 102 90 293q0 23 23 23
q21 0 27 -17q1 -7 0.5 -32t-12.5 -78t-36 -103q-34 -70 -97 -128h27q29 0 107 -21l1 78q-1 29 2.5 38t20.5 9q22 0 27 -17q1 -4 1 -9v-108q4 -1 12 -1q4 0 46 7l11 3q3 0 6.5 -3t5.5 -5zM727 663q0 -7 -3 -13l-445 -643q-8 -10 -19 -10q-10 0 -17 6.5t-7 16.5q2 9 5 13
l444 643q7 10 19 10q9 0 16 -6.5t7 -16.5z" />
    <glyph glyph-name="onehalf" unicode="&#xbd;" horiz-adv-x="876" 
d="M322 317q4 -12 -11 -12q-9 0 -27 1t-27 1h-103l-49 -2q-5 0 -8 2.5t-4 4.5l-1 2q-3 7 1.5 9t15.5 2h7q45 0 55.5 5.5t9.5 23.5l-1 278q-41 -25 -76 -25q-15 0 -17 9t8 11h2q74 6 112 68q3 9 10 9q10 0 14 -8v-8v-338q0 -9 1 -13q2 -9 25 -11l33 -1h7q21 0 23 -8zM789 98
q3 -9 -2 -34t-28 -51t-62 -26q-30 0 -81 22q-51 23 -77 23q-13 0 -20 -9t-8.5 -15.5t-1.5 -11.5q0 -3 -0.5 -4.5t-1.5 -2.5t-3.5 -1.5t-6.5 -0.5q-13 0 -16 8q1 4 0 14t6 28t16.5 35.5t30.5 37t49 33.5q66 33 95 71t11 100q-12 35 -37.5 51.5t-54.5 16.5q-59 0 -87 -53
t-17 -91q7 -20 22 -20q29 0 42 29.5t7 47.5q-5 14 -12 18q-1 1 -2 3q-3 4 -4 6q-1 3 2 5.5t7 2.5q7 0 16.5 -11.5t12.5 -22.5q8 -25 -9 -59.5t-56 -34.5q-22 0 -36.5 12t-18.5 28q-8 24 1.5 59.5t43.5 66.5t85 31q53 0 97 -28t59 -76q14 -48 -14 -84t-117 -80
q-69 -28 -96 -82h13q20 0 78 -9q56 -8 76 -8q29 0 48.5 17.5t21.5 47.5q3 9 13 9q14 0 16 -8zM648 663q0 -7 -3 -13l-445 -643q-7 -10 -19 -10q-10 0 -17 6.5t-7 16.5q2 9 5 13l444 643q7 10 19 10q10 0 16.5 -6.5t6.5 -16.5z" />
    <glyph glyph-name="threequarters" unicode="&#xbe;" horiz-adv-x="876" 
d="M386 622q10 -35 -12.5 -69.5t-70.5 -48.5q66 -25 82 -78q17 -55 -32 -94t-121 -39q-49 0 -85 22.5t-45 55.5q-7 12 -2.5 28.5t27.5 16.5q26 0 32 -19q5 -28 -27 -30q10 -29 37.5 -43t57.5 -14q66 0 88.5 42.5t7.5 92.5q-15 51 -76 51h-24q-20 0 -22 8q-3 8 1 10t15 2h20
q29 0 50 7.5t31 20.5t15.5 26t5 28t-1.5 22.5t-2 13.5q-19 54 -86 54q-53 0 -86.5 -31.5t-23.5 -65.5q7 -22 25 -22q15 0 26.5 10t7.5 24q-5 10 -13 17l-4 7q-2 3 1 5.5t7 2.5q6 0 15.5 -10.5t13.5 -21.5q6 -20 -9.5 -35t-40.5 -15q-22 0 -37.5 11.5t-20.5 28.5
q-12 40 28 75.5t108 35.5q52 0 90.5 -24t49.5 -58zM789 9q1 -4 -6 -7.5t-18 -6t-22.5 -4t-19.5 -1.5q-12 0 -18 1l1 -67q0 -16 -1 -23t-6 -12t-16 -5q-23 0 -28 16q-1 6 0 101l-50 13q-30 7 -60 7q-48 0 -59 -9q-14 -12 -20 -12q-4 0 -8.5 4t-5.5 7t0 5.5t4 5.5t6 4.5t7.5 4
t5.5 3.5q17 8 50 49q85 102 90 293q0 23 23 23q21 0 27 -17q1 -7 0.5 -32t-12.5 -78t-36 -103q-34 -70 -97 -128h27q29 0 107 -21l1 78q-1 29 2.5 38t20.5 9q22 0 27 -17q1 -4 1 -9v-108q4 -1 12 -1q4 0 46 7l11 3q3 0 6.5 -3t5.5 -5zM727 663q0 -7 -3 -13l-445 -643
q-8 -10 -19 -10q-10 0 -17 6.5t-7 16.5q2 9 5 13l444 643q7 10 19 10q9 0 16 -6.5t7 -16.5z" />
    <glyph glyph-name="questiondown" unicode="&#xbf;" 
d="M332 454q7 -26 -9.5 -45.5t-42.5 -19.5q-19 0 -35.5 12.5t-22.5 33.5q-7 25 9 45t42 20q18 0 35.5 -11t23.5 -35zM470 35q5 -20 -2.5 -59.5t-27 -83t-61.5 -75.5t-98 -32q-58 0 -104.5 34.5t-61.5 93.5q-5 19 -5 38t2.5 33t9.5 29t13 24t16.5 20.5t15.5 16.5t14 13
l102 92q10 9 14 13t11.5 15t6 19t-2.5 24q-7 31 -35 31q-21 0 -40.5 -17t-23.5 -51q-1 -8 -4 -10t-13 -2q-18 0 -21 12q-6 25 20 60.5t77 35.5q35 0 56.5 -22t28.5 -50q4 -16 4.5 -29.5t-3 -25.5t-8 -20.5t-14.5 -19.5t-17 -17t-20 -18l-91 -82q-65 -59 -48 -125
q11 -43 44 -65t70 -22q62 0 103.5 50t51.5 123q-33 4 -41 34q-5 19 6 34t31 15q16 0 28.5 -9.5t16.5 -24.5z" />
    <glyph glyph-name="Agrave" unicode="&#xc0;" horiz-adv-x="806" 
d="M744 19q4 -19 -15 -19q-3 0 -9.5 0.5t-15 1t-30.5 1t-52 0.5q-19 0 -56.5 -1.5t-55.5 -1.5q-16 0 -19 14q-3 13 2.5 16t19.5 3q29 0 42 7t12 16.5t-4 19.5l-54 155h-257q-4 -12 -11.5 -35t-17.5 -49q-23 -70 -19 -83q7 -28 45 -31q18 0 22 -14q4 -19 -16 -19l-11 1
q-10 1 -32 1.5t-51 0.5q-30 0 -48.5 -0.5t-25 -1.5t-8.5 -1q-14 0 -18 14q-2 8 0.5 12t6 5t11.5 2q66 6 94 85l201 575q8 21 29 21q13 0 18.5 -5t11.5 -22l218 -621q5 -14 8.5 -19.5t16 -9.5t36.5 -4q28 0 32 -14zM497 264l-116 330l-117 -330h233zM477 768
q-1 -6 -7.5 -14.5t-14.5 -9.5q-5 0 -13 5l-168 91q-19 9 -21 30q2 16 13 26.5t27 10.5q6 0 11.5 -2.5t8.5 -4.5l3 -2l151 -114q11 -11 10 -16z" />
    <glyph glyph-name="Aacute" unicode="&#xc1;" horiz-adv-x="806" 
d="M744 19q4 -19 -15 -19q-3 0 -9.5 0.5t-15 1t-30.5 1t-52 0.5q-19 0 -56.5 -1.5t-55.5 -1.5q-16 0 -19 14q-3 13 2.5 16t19.5 3q29 0 42 7t12 16.5t-4 19.5l-54 155h-257q-4 -12 -11.5 -35t-17.5 -49q-23 -70 -19 -83q7 -28 45 -31q18 0 22 -14q4 -19 -16 -19l-11 1
q-10 1 -32 1.5t-51 0.5q-30 0 -48.5 -0.5t-25 -1.5t-8.5 -1q-14 0 -18 14q-2 8 0.5 12t6 5t11.5 2q66 6 94 85l201 575q8 21 29 21q13 0 18.5 -5t11.5 -22l218 -621q5 -14 8.5 -19.5t16 -9.5t36.5 -4q28 0 32 -14zM497 264l-116 330l-117 -330h233zM552 870q0 -20 -21 -30
l-167 -91q-8 -5 -14 -5q-8 1 -14.5 9.5t-6.5 14.5q-1 9 10 16l150 114q10 9 23 9q16 0 27.5 -10.5t12.5 -26.5z" />
    <glyph glyph-name="Acircumflex" unicode="&#xc2;" horiz-adv-x="806" 
d="M744 19q4 -19 -15 -19q-3 0 -9.5 0.5t-15 1t-30.5 1t-52 0.5q-19 0 -56.5 -1.5t-55.5 -1.5q-16 0 -19 14q-3 13 2.5 16t19.5 3q29 0 42 7t12 16.5t-4 19.5l-54 155h-257q-4 -12 -11.5 -35t-17.5 -49q-23 -70 -19 -83q7 -28 45 -31q18 0 22 -14q4 -19 -16 -19l-11 1
q-10 1 -32 1.5t-51 0.5q-30 0 -48.5 -0.5t-25 -1.5t-8.5 -1q-14 0 -18 14q-2 8 0.5 12t6 5t11.5 2q66 6 94 85l201 575q8 21 29 21q13 0 18.5 -5t11.5 -22l218 -621q5 -14 8.5 -19.5t16 -9.5t36.5 -4q28 0 32 -14zM497 264l-116 330l-117 -330h233zM540 753q8 -5 3.5 -13.5
t-12.5 -4.5l-128 55l-128 -55q-9 -4 -14 4.5t3 13.5l133 98q3 3 12 0z" />
    <glyph glyph-name="Atilde" unicode="&#xc3;" horiz-adv-x="806" 
d="M744 19q4 -19 -15 -19q-3 0 -9.5 0.5t-15 1t-30.5 1t-52 0.5q-19 0 -56.5 -1.5t-55.5 -1.5q-16 0 -19 14q-3 13 2.5 16t19.5 3q29 0 42 7t12 16.5t-4 19.5l-54 155h-257q-4 -12 -11.5 -35t-17.5 -49q-23 -70 -19 -83q7 -28 45 -31q18 0 22 -14q4 -19 -16 -19l-11 1
q-10 1 -32 1.5t-51 0.5q-30 0 -48.5 -0.5t-25 -1.5t-8.5 -1q-14 0 -18 14q-2 8 0.5 12t6 5t11.5 2q66 6 94 85l201 575q8 21 29 21q13 0 18.5 -5t11.5 -22l218 -621q5 -14 8.5 -19.5t16 -9.5t36.5 -4q28 0 32 -14zM497 264l-116 330l-117 -330h233zM570 828q3 -11 -41 -53
q-38 -41 -74 -41q-31 0 -64 38q-27 29 -43 29q-29 0 -81 -59q-6 -8 -13 -8q-12 0 -16 14q-3 10 40 53q41 41 74 41q20 0 35 -10.5t35 -33.5q22 -23 37 -23q7 0 15.5 3.5t15.5 8.5t15.5 12t13.5 12t11.5 12t7.5 8q7 11 14 11q14 0 18 -14z" />
    <glyph glyph-name="Adieresis" unicode="&#xc4;" horiz-adv-x="806" 
d="M744 19q4 -19 -15 -19q-3 0 -9.5 0.5t-15 1t-30.5 1t-52 0.5q-19 0 -56.5 -1.5t-55.5 -1.5q-16 0 -19 14q-3 13 2.5 16t19.5 3q29 0 42 7t12 16.5t-4 19.5l-54 155h-257q-4 -12 -11.5 -35t-17.5 -49q-23 -70 -19 -83q7 -28 45 -31q18 0 22 -14q4 -19 -16 -19l-11 1
q-10 1 -32 1.5t-51 0.5q-30 0 -48.5 -0.5t-25 -1.5t-8.5 -1q-14 0 -18 14q-2 8 0.5 12t6 5t11.5 2q66 6 94 85l201 575q8 21 29 21q13 0 18.5 -5t11.5 -22l218 -621q5 -14 8.5 -19.5t16 -9.5t36.5 -4q28 0 32 -14zM497 264l-116 330l-117 -330h233zM342 793q6 -24 -9 -41.5
t-38 -17.5q-17 0 -32 11.5t-20 30.5q-6 23 8 40.5t38 17.5q15 0 31.5 -10t21.5 -31zM563 793q7 -24 -8 -41.5t-38 -17.5q-17 0 -32.5 11.5t-20.5 30.5q-5 23 9 40.5t38 17.5q15 0 31 -10t21 -31z" />
    <glyph glyph-name="Aring" unicode="&#xc5;" horiz-adv-x="806" 
d="M744 19q4 -19 -15 -19q-3 0 -9.5 0.5t-15 1t-30.5 1t-52 0.5q-19 0 -56.5 -1.5t-55.5 -1.5q-16 0 -19 14q-3 13 2.5 16t19.5 3q29 0 42 7t12 16.5t-4 19.5l-54 155h-257q-4 -12 -11.5 -35t-17.5 -49q-23 -70 -19 -83q7 -28 45 -31q18 0 22 -14q4 -19 -16 -19l-11 1
q-10 1 -32 1.5t-51 0.5q-30 0 -48.5 -0.5t-25 -1.5t-8.5 -1q-14 0 -18 14q-2 8 0.5 12t6 5t11.5 2q66 6 94 85l201 575q8 21 29 21q13 0 18.5 -5t11.5 -22l218 -621q5 -14 8.5 -19.5t16 -9.5t36.5 -4q28 0 32 -14zM497 264l-116 330l-117 -330h233zM459 823q-9 32 -57 32
q-36 0 -49 -21.5t-5 -52.5q8 -32 54 -32q22 0 36 8t18.5 16.5t5 22t-0.5 18t-2 9.5zM503 821q10 -42 -21 -74.5t-79 -32.5q-33 0 -62 18t-38 52q-10 41 20.5 73.5t79.5 32.5q35 0 63.5 -19t36.5 -50z" />
    <glyph glyph-name="AE" unicode="&#xc6;" horiz-adv-x="958" 
d="M902 246q1 -7 -1 -17l-39 -211q-3 -13 -6.5 -15.5t-20.5 -2.5h-430q-29 0 -33 14v11t4.5 5.5t7.5 2t8 0.5q34 0 42.5 6.5t9.5 32.5v240h-157l-77 -206q-9 -25 -5 -43q6 -26 45 -30q17 0 21 -14q4 -19 -15 -19l-10 1q-11 1 -33 1.5t-51 0.5q-25 0 -42 -0.5t-23 -1
t-10.5 -1t-7.5 -0.5q-14 0 -18 14q-2 8 0.5 12.5t6 5t9.5 1.5q35 3 57.5 20.5t39.5 65.5l195 530q-7 1 -24 1h-19q-29 0 -32 14q-3 13 2.5 16t21.5 3h496q19 0 25.5 -4t9.5 -24l24 -175q2 -9 1.5 -14.5t-4 -7.5t-12.5 -2q-19 0 -22 14q-3 11 -3 19q-7 43 -11 62
q-14 53 -44 76t-108 23h-108q-26 0 -32.5 -5t-6.5 -30v-270h87q60 0 78.5 19t19.5 77q0 10 0.5 13t4 5.5t11.5 2.5q19 0 22 -14q1 -4 1 -15v-217q0 -14 -3 -17.5t-14 -3.5q-19 0 -22 14q-1 3 0 15q0 1 -0.5 9.5t-1.5 19t-3 18.5q-5 22 -21 31.5t-65 9.5h-94v-250
q0 -10 3 -27q9 -2 29 -2h108q39 0 67 5t48 18.5t32.5 26.5t22.5 41.5t15.5 49.5t13.5 63q2 16 4.5 19.5t12.5 3.5q19 0 23 -14zM443 345v261q0 17 -1 21q-5 19 -33 19l-111 -301h145z" />
    <glyph glyph-name="Ccedilla" unicode="&#xc7;" horiz-adv-x="778" 
d="M693 240v-16t-4.5 -34t-12.5 -45q-28 -72 -94 -119t-150 -47h-6v-25q67 -11 79 -58q5 -21 -1.5 -36.5t-24.5 -24.5t-35.5 -15t-46 -8t-43 -2.5t-38.5 -0.5q-27 0 -35 2t-11 12q-1 7 2.5 10t8 3.5t14.5 0.5h13q20 0 36 1t43 6t40 18t8 33q-8 31 -60 35q-19 0 -24 14v45
q-91 23 -161 92.5t-96 170.5q-29 113 9.5 218.5t125.5 169.5t195 64q109 0 189 -87l47 76q6 11 15 11q13 0 18 -12v-14v-241q0 -14 -3 -17t-14 -3q-19 0 -22 13q0 1 -1 8.5t-3 20t-5 23.5q-22 82 -75.5 135.5t-129.5 53.5q-66 0 -125 -36t-94 -99q-27 -50 -36.5 -116.5
t-5.5 -115.5t13 -86q26 -102 95 -154t147 -52q36 0 71.5 13t68.5 39t55 72.5t25 106.5q0 10 16 10q19 0 23 -13z" />
    <glyph glyph-name="Egrave" unicode="&#xc8;" horiz-adv-x="736" 
d="M679 246q1 -7 -1 -17l-39 -211q-2 -13 -6 -15.5t-20 -2.5h-509q-28 0 -32 14q-3 13 3.5 16t25.5 3q44 0 55 8t11 35v533q0 15 -2 22q-3 11 -16.5 13.5t-42.5 2.5q-12 0 -17.5 0.5t-10 4t-6.5 10.5q-3 12 3 15t22 3h494q29 0 32 -14l3 -14l24 -175q2 -13 0 -18.5t-14 -5.5
q-20 0 -24 16q0 3 -1 8t-1 7q-3 31 -10 58q-15 60 -50.5 82.5t-118.5 22.5h-142q-26 0 -32.5 -5t-6.5 -31l1 -241h91q61 0 80.5 17.5t20.5 74.5q0 12 0.5 16t4 6.5t11.5 2.5q19 0 23 -15q0 -1 0.5 -2.5t0 -3t0 -5t0.5 -7.5v-213q0 -13 -2.5 -17t-13.5 -4q-19 0 -23 14
q-2 5 0 14q0 24 -5 47q-6 22 -23 32t-67 10h-98v-275q0 -5 2 -27q10 -2 29 -2h144q49 0 83 8.5t55 22.5t35.5 42t22 55.5t16.5 75.5q5 20 9 22q2 1 9 1q19 0 23 -14zM442 768q-1 -6 -7.5 -14.5t-14.5 -9.5q-6 0 -13 5l-168 91q-19 9 -21 30q2 16 13 26.5t27 10.5
q6 0 11.5 -2.5t8.5 -4.5l3 -2l151 -114q11 -11 10 -16z" />
    <glyph glyph-name="Eacute" unicode="&#xc9;" horiz-adv-x="736" 
d="M679 246q1 -7 -1 -17l-39 -211q-2 -13 -6 -15.5t-20 -2.5h-509q-28 0 -32 14q-3 13 3.5 16t25.5 3q44 0 55 8t11 35v533q0 15 -2 22q-3 11 -16.5 13.5t-42.5 2.5q-12 0 -17.5 0.5t-10 4t-6.5 10.5q-3 12 3 15t22 3h494q29 0 32 -14l3 -14l24 -175q2 -13 0 -18.5t-14 -5.5
q-20 0 -24 16q0 3 -1 8t-1 7q-3 31 -10 58q-15 60 -50.5 82.5t-118.5 22.5h-142q-26 0 -32.5 -5t-6.5 -31l1 -241h91q61 0 80.5 17.5t20.5 74.5q0 12 0.5 16t4 6.5t11.5 2.5q19 0 23 -15q0 -1 0.5 -2.5t0 -3t0 -5t0.5 -7.5v-213q0 -13 -2.5 -17t-13.5 -4q-19 0 -23 14
q-2 5 0 14q0 24 -5 47q-6 22 -23 32t-67 10h-98v-275q0 -5 2 -27q10 -2 29 -2h144q49 0 83 8.5t55 22.5t35.5 42t22 55.5t16.5 75.5q5 20 9 22q2 1 9 1q19 0 23 -14zM517 870q0 -20 -21 -30l-167 -91q-7 -5 -14 -5q-8 1 -14.5 9.5t-6.5 14.5q-1 9 10 16l150 114q10 9 23 9
q16 0 27.5 -10.5t12.5 -26.5z" />
    <glyph glyph-name="Ecircumflex" unicode="&#xca;" horiz-adv-x="736" 
d="M679 246q1 -7 -1 -17l-39 -211q-2 -13 -6 -15.5t-20 -2.5h-509q-28 0 -32 14q-3 13 3.5 16t25.5 3q44 0 55 8t11 35v533q0 15 -2 22q-3 11 -16.5 13.5t-42.5 2.5q-12 0 -17.5 0.5t-10 4t-6.5 10.5q-3 12 3 15t22 3h494q29 0 32 -14l3 -14l24 -175q2 -13 0 -18.5t-14 -5.5
q-20 0 -24 16q0 3 -1 8t-1 7q-3 31 -10 58q-15 60 -50.5 82.5t-118.5 22.5h-142q-26 0 -32.5 -5t-6.5 -31l1 -241h91q61 0 80.5 17.5t20.5 74.5q0 12 0.5 16t4 6.5t11.5 2.5q19 0 23 -15q0 -1 0.5 -2.5t0 -3t0 -5t0.5 -7.5v-213q0 -13 -2.5 -17t-13.5 -4q-19 0 -23 14
q-2 5 0 14q0 24 -5 47q-6 22 -23 32t-67 10h-98v-275q0 -5 2 -27q10 -2 29 -2h144q49 0 83 8.5t55 22.5t35.5 42t22 55.5t16.5 75.5q5 20 9 22q2 1 9 1q19 0 23 -14zM505 753q8 -5 3.5 -13.5t-12.5 -4.5l-128 55l-128 -55q-9 -4 -14 4.5t3 13.5l133 98q3 3 12 0z" />
    <glyph glyph-name="Edieresis" unicode="&#xcb;" horiz-adv-x="736" 
d="M679 246q1 -7 -1 -17l-39 -211q-2 -13 -6 -15.5t-20 -2.5h-509q-28 0 -32 14q-3 13 3.5 16t25.5 3q44 0 55 8t11 35v533q0 15 -2 22q-3 11 -16.5 13.5t-42.5 2.5q-12 0 -17.5 0.5t-10 4t-6.5 10.5q-3 12 3 15t22 3h494q29 0 32 -14l3 -14l24 -175q2 -13 0 -18.5t-14 -5.5
q-20 0 -24 16q0 3 -1 8t-1 7q-3 31 -10 58q-15 60 -50.5 82.5t-118.5 22.5h-142q-26 0 -32.5 -5t-6.5 -31l1 -241h91q61 0 80.5 17.5t20.5 74.5q0 12 0.5 16t4 6.5t11.5 2.5q19 0 23 -15q0 -1 0.5 -2.5t0 -3t0 -5t0.5 -7.5v-213q0 -13 -2.5 -17t-13.5 -4q-19 0 -23 14
q-2 5 0 14q0 24 -5 47q-6 22 -23 32t-67 10h-98v-275q0 -5 2 -27q10 -2 29 -2h144q49 0 83 8.5t55 22.5t35.5 42t22 55.5t16.5 75.5q5 20 9 22q2 1 9 1q19 0 23 -14zM307 793q6 -24 -9 -41.5t-38 -17.5q-17 0 -32 11.5t-20 30.5q-6 23 8 40.5t38 17.5q15 0 31.5 -10
t21.5 -31zM528 793q7 -24 -8 -41.5t-38 -17.5q-17 0 -32.5 11.5t-20.5 30.5q-5 23 9 40.5t38 17.5q15 0 31 -10t21 -31z" />
    <glyph glyph-name="Igrave" unicode="&#xcc;" horiz-adv-x="417" 
d="M350 19q4 -19 -17 -19q-23 0 -59 3h-130q-48 -3 -57 -3q-17 0 -20 14q-3 13 3 16t23 3q51 0 62.5 7.5t10.5 36.5v540v18q-4 15 -64 15q-17 0 -24.5 2t-9.5 12q-5 19 15 19q1 0 13.5 -0.5t42 -1.5t70.5 -1h64q36 3 57 3q7 0 11.5 -3.5t6.5 -7.5l1 -3q3 -13 -3 -16t-24 -3
q-49 0 -60.5 -8t-11.5 -35v-536q0 -16 2 -22q4 -16 64 -16q30 0 34 -14zM283 768q-1 -6 -7.5 -14.5t-14.5 -9.5q-5 0 -13 5l-168 91q-19 9 -21 30q2 16 13 26.5t27 10.5q6 0 11.5 -2.5t8.5 -4.5l3 -2l151 -114q11 -11 10 -16z" />
    <glyph glyph-name="Iacute" unicode="&#xcd;" horiz-adv-x="417" 
d="M350 19q4 -19 -17 -19q-23 0 -59 3h-130q-48 -3 -57 -3q-17 0 -20 14q-3 13 3 16t23 3q51 0 62.5 7.5t10.5 36.5v540v18q-4 15 -64 15q-17 0 -24.5 2t-9.5 12q-5 19 15 19q1 0 13.5 -0.5t42 -1.5t70.5 -1h64q36 3 57 3q7 0 11.5 -3.5t6.5 -7.5l1 -3q3 -13 -3 -16t-24 -3
q-49 0 -60.5 -8t-11.5 -35v-536q0 -16 2 -22q4 -16 64 -16q30 0 34 -14zM358 870q0 -20 -21 -30l-167 -91q-8 -5 -14 -5q-8 1 -14.5 9.5t-6.5 14.5q-1 9 10 16l150 114q10 9 23 9q16 0 27.5 -10.5t12.5 -26.5z" />
    <glyph glyph-name="Icircumflex" unicode="&#xce;" horiz-adv-x="417" 
d="M350 19q4 -19 -17 -19q-23 0 -59 3h-130q-48 -3 -57 -3q-17 0 -20 14q-3 13 3 16t23 3q51 0 62.5 7.5t10.5 36.5v540v18q-4 15 -64 15q-17 0 -24.5 2t-9.5 12q-5 19 15 19q1 0 13.5 -0.5t42 -1.5t70.5 -1h64q36 3 57 3q7 0 11.5 -3.5t6.5 -7.5l1 -3q3 -13 -3 -16t-24 -3
q-49 0 -60.5 -8t-11.5 -35v-536q0 -16 2 -22q4 -16 64 -16q30 0 34 -14zM346 753q8 -5 3.5 -13.5t-12.5 -4.5l-128 55l-128 -55q-9 -4 -14 4.5t3 13.5l133 98q3 3 12 0z" />
    <glyph glyph-name="Idieresis" unicode="&#xcf;" horiz-adv-x="417" 
d="M350 19q4 -19 -17 -19q-23 0 -59 3h-130q-48 -3 -57 -3q-17 0 -20 14q-3 13 3 16t23 3q51 0 62.5 7.5t10.5 36.5v540v18q-4 15 -64 15q-17 0 -24.5 2t-9.5 12q-5 19 15 19q1 0 13.5 -0.5t42 -1.5t70.5 -1h64q36 3 57 3q7 0 11.5 -3.5t6.5 -7.5l1 -3q3 -13 -3 -16t-24 -3
q-49 0 -60.5 -8t-11.5 -35v-536q0 -16 2 -22q4 -16 64 -16q30 0 34 -14zM148 793q6 -24 -9 -41.5t-38 -17.5q-17 0 -32 11.5t-20 30.5q-6 23 8 40.5t38 17.5q15 0 31.5 -10t21.5 -31zM369 793q7 -24 -8 -41.5t-38 -17.5q-17 0 -32.5 11.5t-20.5 30.5q-5 23 9 40.5t38 17.5
q15 0 31 -10t21 -31z" />
    <glyph glyph-name="Eth" unicode="&#xd0;" horiz-adv-x="819" 
d="M723 432q28 -110 -5.5 -211t-112 -161t-177.5 -60h-323q-28 0 -32 14q-3 13 3.5 16t25.5 3q44 0 54 8t10 35v250h-94q-6 0 -11.5 5t-4.5 11q0 7 5 11.5t11 4.5h96v255l-2 22q-3 15 -59 15q-30 0 -33 14q-3 13 2.5 16t21.5 3h330q104 0 185.5 -70t109.5 -181zM630 466
q-23 91 -85.5 137.5t-140.5 46.5h-117q-25 0 -31 -5t-6 -30v-257h160q16 0 16 -16t-16 -16h-160v-264v-27q11 -2 30 -2h124q74 0 129.5 36.5t82.5 98.5t27.5 162t-13.5 136z" />
    <glyph glyph-name="Ntilde" unicode="&#xd1;" horiz-adv-x="806" 
d="M733 669q4 -17 -12 -19q-18 -1 -28 -3t-25 -8.5t-22.5 -22t-7.5 -40.5v-557q0 -12 -2.5 -15.5t-14.5 -3.5t-16 3t-12 15l-385 585v-505q0 -12 3 -24q10 -40 70 -41q19 0 22 -14q5 -19 -14 -19q-3 0 -12 1t-31.5 1.5t-57.5 0.5q-16 0 -49 -1.5t-48 -1.5t-19 14
q-4 19 15 19q49 2 64 20.5t15 54.5v536q-22 6 -60 6q-30 0 -33 14q-3 13 2.5 16t21.5 3h119q16 0 21 -2.5t15 -16.5l344 -524v446q0 15 -2 24q-9 38 -70 40q-19 0 -23 14q-5 19 16 19q1 0 10.5 -0.5t33 -1.5t57.5 -1q32 0 54.5 1t31.5 1.5t10 0.5q14 0 19 -14zM570 828
q3 -11 -41 -53q-38 -41 -74 -41q-31 0 -64 38q-27 29 -43 29q-29 0 -81 -59q-6 -8 -13 -8q-12 0 -16 14q-3 10 40 53q41 41 74 41q20 0 35 -10.5t35 -33.5q22 -23 37 -23q7 0 15.5 3.5t15.5 8.5t15.5 12t13.5 12t11.5 12t7.5 8q7 11 14 11q14 0 18 -14z" />
    <glyph glyph-name="Ograve" unicode="&#xd2;" horiz-adv-x="833" 
d="M736 436q29 -115 -8 -222t-122 -171t-190 -64q-115 0 -204 75t-118 189q-28 111 7.5 218.5t120.5 175t193 67.5q111 0 201 -73.5t120 -194.5zM640 471q-24 97 -87 149.5t-138 52.5q-66 0 -123.5 -42.5t-85.5 -115.5q-20 -51 -25.5 -113.5t-1 -105t13.5 -75.5
q26 -101 88.5 -155t134.5 -54q57 0 104 29.5t74.5 77t45 108.5t15.5 123t-15 121zM491 768q-1 -6 -7.5 -14.5t-14.5 -9.5q-5 0 -13 5l-168 91q-19 9 -21 30q2 16 13 26.5t27 10.5q6 0 11.5 -2.5t8.5 -4.5l3 -2l151 -114q11 -11 10 -16z" />
    <glyph glyph-name="Oacute" unicode="&#xd3;" horiz-adv-x="833" 
d="M736 436q29 -115 -8 -222t-122 -171t-190 -64q-115 0 -204 75t-118 189q-28 111 7.5 218.5t120.5 175t193 67.5q111 0 201 -73.5t120 -194.5zM640 471q-24 97 -87 149.5t-138 52.5q-66 0 -123.5 -42.5t-85.5 -115.5q-20 -51 -25.5 -113.5t-1 -105t13.5 -75.5
q26 -101 88.5 -155t134.5 -54q57 0 104 29.5t74.5 77t45 108.5t15.5 123t-15 121zM566 870q0 -20 -21 -30l-167 -91q-8 -5 -14 -5q-8 1 -14.5 9.5t-6.5 14.5q-1 9 10 16l150 114q10 9 23 9q16 0 27.5 -10.5t12.5 -26.5z" />
    <glyph glyph-name="Ocircumflex" unicode="&#xd4;" horiz-adv-x="833" 
d="M736 436q29 -115 -8 -222t-122 -171t-190 -64q-115 0 -204 75t-118 189q-28 111 7.5 218.5t120.5 175t193 67.5q111 0 201 -73.5t120 -194.5zM640 471q-24 97 -87 149.5t-138 52.5q-66 0 -123.5 -42.5t-85.5 -115.5q-20 -51 -25.5 -113.5t-1 -105t13.5 -75.5
q26 -101 88.5 -155t134.5 -54q57 0 104 29.5t74.5 77t45 108.5t15.5 123t-15 121zM554 753q8 -5 3.5 -13.5t-12.5 -4.5l-128 55l-128 -55q-9 -4 -14 4.5t3 13.5l133 98q3 3 12 0z" />
    <glyph glyph-name="Otilde" unicode="&#xd5;" horiz-adv-x="833" 
d="M736 436q29 -115 -8 -222t-122 -171t-190 -64q-115 0 -204 75t-118 189q-28 111 7.5 218.5t120.5 175t193 67.5q111 0 201 -73.5t120 -194.5zM640 471q-24 97 -87 149.5t-138 52.5q-66 0 -123.5 -42.5t-85.5 -115.5q-20 -51 -25.5 -113.5t-1 -105t13.5 -75.5
q26 -101 88.5 -155t134.5 -54q57 0 104 29.5t74.5 77t45 108.5t15.5 123t-15 121zM584 828q3 -11 -41 -53q-38 -41 -74 -41q-31 0 -64 38q-27 29 -43 29q-29 0 -81 -59q-6 -8 -13 -8q-12 0 -16 14q-3 10 40 53q41 41 74 41q20 0 35 -10.5t35 -33.5q22 -23 37 -23
q7 0 15.5 3.5t15.5 8.5t15.5 12t13.5 12t11.5 12t7.5 8q7 11 14 11q14 0 18 -14z" />
    <glyph glyph-name="Odieresis" unicode="&#xd6;" horiz-adv-x="833" 
d="M736 436q29 -115 -8 -222t-122 -171t-190 -64q-115 0 -204 75t-118 189q-28 111 7.5 218.5t120.5 175t193 67.5q111 0 201 -73.5t120 -194.5zM640 471q-24 97 -87 149.5t-138 52.5q-66 0 -123.5 -42.5t-85.5 -115.5q-20 -51 -25.5 -113.5t-1 -105t13.5 -75.5
q26 -101 88.5 -155t134.5 -54q57 0 104 29.5t74.5 77t45 108.5t15.5 123t-15 121zM356 793q6 -24 -9 -41.5t-38 -17.5q-17 0 -32 11.5t-20 30.5q-6 23 8 40.5t38 17.5q15 0 31.5 -10t21.5 -31zM577 793q7 -24 -8 -41.5t-38 -17.5q-17 0 -32.5 11.5t-20.5 30.5q-5 23 9 40.5
t38 17.5q15 0 31 -10t21 -31z" />
    <glyph glyph-name="multiply" unicode="&#xd7;" horiz-adv-x="833" 
d="M656 22q-17 -17 -38 -4q-3 2 -13 13l-189 186l-190 -186q-23 -26 -45 -13t5 37l197 195l-200 197q-19 19 -7 32q7 7 18 8t19 -4q6 -4 14 -13l189 -187l189 186q23 26 46 13q22 -13 -5 -37l-197 -194l201 -197q18 -20 6 -32z" />
    <glyph glyph-name="Oslash" unicode="&#xd8;" horiz-adv-x="833" 
d="M736 436q29 -115 -8 -222t-122 -171t-190 -64q-100 0 -183 59l-58 -85q-10 -17 -17 -17q-16 0 -20 16q-3 6 11 24l56 84q-82 74 -111 183q-28 111 7.5 218.5t120.5 175t193 67.5q99 0 183 -60l61 91q9 12 15 12q5 0 11.5 -4.5t8.5 -11.5q1 -5 -8 -18l-60 -91
q84 -79 110 -186zM575 611q-6 8 -22 20.5t-55.5 28.5t-82.5 16q-62 0 -115.5 -32t-84.5 -85q-32 -56 -42.5 -133t-6 -129.5t14.5 -89.5q12 -57 49 -108zM651 473q-17 65 -51 110l-345 -512q74 -64 160 -64q58 0 115 30t96 100q24 46 33 114t5.5 124.5t-13.5 97.5z" />
    <glyph glyph-name="Ugrave" unicode="&#xd9;" horiz-adv-x="806" 
d="M733 669q4 -17 -12 -19q-18 -1 -27.5 -3t-24.5 -8.5t-22 -22t-7 -40.5v-359q0 -88 -63 -163t-161 -75q-80 0 -149.5 51t-91.5 140q-9 32 -9 59v384v22q-4 15 -60 15q-30 0 -33 14q-5 19 15 19l60 -3h120q54 3 57 3q17 0 20 -14q3 -13 -3 -16t-26 -3q-44 0 -55 -8t-11 -35
l1 -389q0 -43 9 -76q17 -68 60.5 -99t90.5 -31q77 0 132 63.5t55 153.5v357q1 15 -1 24q-9 38 -70 40q-19 0 -23 14q-5 19 16 19q1 0 10.5 -0.5t32 -1.5t56.5 -1q19 0 35.5 0.5t26.5 1t17.5 0.5h11.5l4 1q14 0 19 -14zM501 768q-1 -6 -7.5 -14.5t-14.5 -9.5q-5 0 -13 5
l-168 91q-19 9 -21 30q2 16 13 26.5t27 10.5q6 0 11.5 -2.5t8.5 -4.5l3 -2l151 -114q11 -11 10 -16z" />
    <glyph glyph-name="Uacute" unicode="&#xda;" horiz-adv-x="806" 
d="M733 669q4 -17 -12 -19q-18 -1 -27.5 -3t-24.5 -8.5t-22 -22t-7 -40.5v-359q0 -88 -63 -163t-161 -75q-80 0 -149.5 51t-91.5 140q-9 32 -9 59v384v22q-4 15 -60 15q-30 0 -33 14q-5 19 15 19l60 -3h120q54 3 57 3q17 0 20 -14q3 -13 -3 -16t-26 -3q-44 0 -55 -8t-11 -35
l1 -389q0 -43 9 -76q17 -68 60.5 -99t90.5 -31q77 0 132 63.5t55 153.5v357q1 15 -1 24q-9 38 -70 40q-19 0 -23 14q-5 19 16 19q1 0 10.5 -0.5t32 -1.5t56.5 -1q19 0 35.5 0.5t26.5 1t17.5 0.5h11.5l4 1q14 0 19 -14zM576 870q0 -20 -21 -30l-167 -91q-8 -5 -14 -5
q-8 1 -14.5 9.5t-6.5 14.5q-1 9 10 16l150 114q10 9 23 9q16 0 27.5 -10.5t12.5 -26.5z" />
    <glyph glyph-name="Ucircumflex" unicode="&#xdb;" horiz-adv-x="806" 
d="M733 669q4 -17 -12 -19q-18 -1 -27.5 -3t-24.5 -8.5t-22 -22t-7 -40.5v-359q0 -88 -63 -163t-161 -75q-80 0 -149.5 51t-91.5 140q-9 32 -9 59v384v22q-4 15 -60 15q-30 0 -33 14q-5 19 15 19l60 -3h120q54 3 57 3q17 0 20 -14q3 -13 -3 -16t-26 -3q-44 0 -55 -8t-11 -35
l1 -389q0 -43 9 -76q17 -68 60.5 -99t90.5 -31q77 0 132 63.5t55 153.5v357q1 15 -1 24q-9 38 -70 40q-19 0 -23 14q-5 19 16 19q1 0 10.5 -0.5t32 -1.5t56.5 -1q19 0 35.5 0.5t26.5 1t17.5 0.5h11.5l4 1q14 0 19 -14zM564 753q8 -5 3.5 -13.5t-12.5 -4.5l-128 55l-128 -55
q-9 -4 -14 4.5t3 13.5l133 98q3 3 12 0z" />
    <glyph glyph-name="Udieresis" unicode="&#xdc;" horiz-adv-x="806" 
d="M733 669q4 -17 -12 -19q-18 -1 -27.5 -3t-24.5 -8.5t-22 -22t-7 -40.5v-359q0 -88 -63 -163t-161 -75q-80 0 -149.5 51t-91.5 140q-9 32 -9 59v384v22q-4 15 -60 15q-30 0 -33 14q-5 19 15 19l60 -3h120q54 3 57 3q17 0 20 -14q3 -13 -3 -16t-26 -3q-44 0 -55 -8t-11 -35
l1 -389q0 -43 9 -76q17 -68 60.5 -99t90.5 -31q77 0 132 63.5t55 153.5v357q1 15 -1 24q-9 38 -70 40q-19 0 -23 14q-5 19 16 19q1 0 10.5 -0.5t32 -1.5t56.5 -1q19 0 35.5 0.5t26.5 1t17.5 0.5h11.5l4 1q14 0 19 -14zM366 793q6 -24 -9 -41.5t-38 -17.5q-17 0 -32 11.5
t-20 30.5q-6 23 8 40.5t38 17.5q15 0 31.5 -10t21.5 -31zM587 793q7 -24 -8 -41.5t-38 -17.5q-17 0 -32.5 11.5t-20.5 30.5q-5 23 9 40.5t38 17.5q15 0 31 -10t21 -31z" />
    <glyph glyph-name="Yacute" unicode="&#xdd;" horiz-adv-x="806" 
d="M763 669q4 -8 0.5 -12t-6.5 -5t-10 -2q-66 -7 -111 -75l-192 -302v-226q3 -14 59 -14q30 0 34 -14q5 -19 -15 -19l-13 1q-13 1 -41.5 1.5t-65.5 0.5h-58q-54 -3 -57 -3q-15 0 -19 14q-3 13 2.5 16t18.5 3q52 1 61.5 9.5t9.5 57.5v172l-219 349q-11 17 -23 23t-49 6
q-24 0 -27 14q-5 19 15 19q2 0 10.5 -0.5t33 -1.5t63.5 -1q19 0 57 1.5t56 1.5q17 0 19 -14q3 -13 -2.5 -16t-16.5 -3q-51 0 -46 -21q1 -7 9 -17l186 -292l166 260l6 10q1 1 1.5 4t2.5 5q5 8 7 16t1 12v4q-5 17 -33 19q-17 1 -20 14q-5 19 15 19q1 0 11.5 -0.5t32.5 -1.5
t49 -1q25 0 41 0.5t21.5 1t10 1t8.5 0.5q14 0 17 -14zM552 870q0 -20 -21 -30l-167 -91q-8 -5 -14 -5q-8 1 -14.5 9.5t-6.5 14.5q-1 9 10 16l150 114q10 9 23 9q16 0 27.5 -10.5t12.5 -26.5z" />
    <glyph glyph-name="Thorn" unicode="&#xde;" horiz-adv-x="681" 
d="M596 365q0 -75 -59.5 -131t-147.5 -56h-139v-98q0 -15 1 -22t7 -14.5t19 -9.5q21 -3 75 -3v-31l-144 3l-143 -3v31q51 0 70 3q22 3 27 12t5 34v523q0 15 -1 22t-7 14.5t-19 9.5q-21 3 -75 3v31l144 -3l143 3v-31q-51 0 -70 -3q-22 -3 -27 -12t-5 -34v-50h129
q101 0 159 -57.5t58 -130.5zM496 366q0 64 -36 111q-36 45 -99 45h-111v-313h105q68 0 104.5 49t36.5 108z" />
    <glyph glyph-name="germandbls" unicode="&#xdf;" horiz-adv-x="583" 
d="M524 164q15 -61 -27.5 -117.5t-118.5 -56.5q-44 0 -81.5 20t-46.5 56q-7 25 3.5 36.5t24.5 11.5q4 0 9.5 -1t14 -8t11.5 -19q7 -26 -18 -35q26 -33 76 -33q33 0 51.5 31t19 62.5t-0.5 47.5q-7 29 -43 60q-45 40 -58 91q-8 29 -3.5 52t25.5 47q21 25 26.5 37.5t9.5 43.5
q2 13 2.5 47t-3.5 57q-2 9 -7 20t-16 26.5t-32.5 25.5t-49.5 10q-41 0 -65.5 -11t-33 -30.5t-11 -46t1.5 -58.5l27 -449q9 -146 -11 -203q-5 -14 -13.5 -29.5t-31.5 -34t-51 -18.5q-31 0 -56.5 18.5t-32.5 46.5q-6 26 5.5 41.5t31.5 15.5q36 0 44 -34q4 -14 -2 -28.5
t-26 -19.5q12 -12 30 -12q35 0 43.5 53t1.5 165l-22 356h-66q-28 0 -32 14q-3 13 3 16t22 3h71l-6 98q-6 99 38 137t134 38q73 0 121.5 -33t61.5 -82q8 -35 -3.5 -86t-46.5 -98q-36 -47 -30 -70q6 -24 60 -68q63 -54 76 -103z" />
    <glyph glyph-name="agrave" unicode="&#xe0;" 
d="M531 143q2 -60 -9 -100q-15 -53 -65 -53q-35 0 -64 19.5t-44 48.5q-43 -68 -113 -68q-58 0 -107 44.5t-68 115.5q-27 107 26 199t143 92q59 0 107 -56q-1 19 9 28t23 9t24 -8t14 -20q1 -5 1 -21l1 -282q0 -15 4 -29q11 -44 39 -44q41 0 40 110q0 20 2 24t15 4
q19 0 22 -13zM337 133l-1 171v14q-4 12 -12.5 30t-33 41.5t-53.5 23.5q-25 0 -50 -21.5t-40 -71.5q-10 -34 -10 -104.5t9 -106.5t31 -63.5t55 -27.5q40 0 73 42t32 73zM342 522q-2 -6 -10 -13.5t-15 -7.5q-5 0 -12 7l-140 122q-18 15 -14 35q3 15 15 23t24 8q7 0 13 -3t9 -7
l3 -3l120 -143q8 -12 7 -18z" />
    <glyph glyph-name="aacute" unicode="&#xe1;" 
d="M531 143q2 -60 -9 -100q-15 -53 -65 -53q-35 0 -64 19.5t-44 48.5q-43 -68 -113 -68q-58 0 -107 44.5t-68 115.5q-27 107 26 199t143 92q59 0 107 -56q-1 19 9 28t23 9t24 -8t14 -20q1 -5 1 -21l1 -282q0 -15 4 -29q11 -44 39 -44q41 0 40 110q0 20 2 24t15 4
q19 0 22 -13zM337 133l-1 171v14q-4 12 -12.5 30t-33 41.5t-53.5 23.5q-25 0 -50 -21.5t-40 -71.5q-10 -34 -10 -104.5t9 -106.5t31 -63.5t55 -27.5q40 0 73 42t32 73zM405 665q4 -20 -14 -35l-140 -122q-8 -7 -12 -7q-7 0 -15 7.5t-10 13.5q-2 9 7 18l120 143q10 13 25 13
q12 0 23.5 -8t15.5 -23z" />
    <glyph glyph-name="acircumflex" unicode="&#xe2;" 
d="M531 143q2 -60 -9 -100q-15 -53 -65 -53q-35 0 -64 19.5t-44 48.5q-43 -68 -113 -68q-58 0 -107 44.5t-68 115.5q-27 107 26 199t143 92q59 0 107 -56q-1 19 9 28t23 9t24 -8t14 -20q1 -5 1 -21l1 -282q0 -15 4 -29q11 -44 39 -44q41 0 40 110q0 20 2 24t15 4
q19 0 22 -13zM337 133l-1 171v14q-4 12 -12.5 30t-33 41.5t-53.5 23.5q-25 0 -50 -21.5t-40 -71.5q-10 -34 -10 -104.5t9 -106.5t31 -63.5t55 -27.5q40 0 73 42t32 73zM417 534q7 -7 0.5 -14.5t-14.5 -1.5l-125 99l-125 -99q-7 -6 -13.5 1t-1.5 15l132 144q8 8 15 0z" />
    <glyph glyph-name="atilde" unicode="&#xe3;" 
d="M531 143q2 -60 -9 -100q-15 -53 -65 -53q-35 0 -64 19.5t-44 48.5q-43 -68 -113 -68q-58 0 -107 44.5t-68 115.5q-27 107 26 199t143 92q59 0 107 -56q-1 19 9 28t23 9t24 -8t14 -20q1 -5 1 -21l1 -282q0 -15 4 -29q11 -44 39 -44q41 0 40 110q0 20 2 24t15 4
q19 0 22 -13zM337 133l-1 171v14q-4 12 -12.5 30t-33 41.5t-53.5 23.5q-25 0 -50 -21.5t-40 -71.5q-10 -34 -10 -104.5t9 -106.5t31 -63.5t55 -27.5q40 0 73 42t32 73zM445 639q3 -11 -41 -53q-38 -41 -74 -41q-31 0 -64 38q-27 29 -43 29q-29 0 -81 -59q-6 -8 -13 -8
q-13 0 -16 14q-3 10 40 53q41 41 74 41q20 0 35 -10.5t35 -33.5q22 -23 37 -23q7 0 15.5 3.5t15.5 8.5t15.5 12t13.5 12t11.5 12t7.5 8q7 11 14 11q15 0 18 -14z" />
    <glyph glyph-name="adieresis" unicode="&#xe4;" 
d="M531 143q2 -60 -9 -100q-15 -53 -65 -53q-35 0 -64 19.5t-44 48.5q-43 -68 -113 -68q-58 0 -107 44.5t-68 115.5q-27 107 26 199t143 92q59 0 107 -56q-1 19 9 28t23 9t24 -8t14 -20q1 -5 1 -21l1 -282q0 -15 4 -29q11 -44 39 -44q41 0 40 110q0 20 2 24t15 4
q19 0 22 -13zM337 133l-1 171v14q-4 12 -12.5 30t-33 41.5t-53.5 23.5q-25 0 -50 -21.5t-40 -71.5q-10 -34 -10 -104.5t9 -106.5t31 -63.5t55 -27.5q40 0 73 42t32 73zM234 608q6 -24 -9 -41.5t-38 -17.5q-17 0 -32 11.5t-20 30.5q-6 22 8.5 40t37.5 18q15 0 31.5 -10
t21.5 -31zM421 608q7 -24 -8 -41.5t-39 -17.5q-17 0 -32 11.5t-20 30.5q-5 23 9 40.5t37 17.5q16 0 32 -10t21 -31z" />
    <glyph glyph-name="aring" unicode="&#xe5;" 
d="M531 143q2 -60 -9 -100q-15 -53 -65 -53q-35 0 -64 19.5t-44 48.5q-43 -68 -113 -68q-58 0 -107 44.5t-68 115.5q-27 107 26 199t143 92q59 0 107 -56q-1 19 9 28t23 9t24 -8t14 -20q1 -5 1 -21l1 -282q0 -15 4 -29q11 -44 39 -44q41 0 40 110q0 20 2 24t15 4
q19 0 22 -13zM337 133l-1 171v14q-4 12 -12.5 30t-33 41.5t-53.5 23.5q-25 0 -50 -21.5t-40 -71.5q-10 -34 -10 -104.5t9 -106.5t31 -63.5t55 -27.5q40 0 73 42t32 73zM334 636q-9 32 -57 32q-37 0 -49.5 -21.5t-4.5 -52.5q8 -32 54 -32q72 0 57 74zM378 634
q10 -42 -21 -74.5t-79 -32.5q-33 0 -62 18t-38 52q-10 41 20.5 73.5t79.5 32.5q35 0 63.5 -19t36.5 -50z" />
    <glyph glyph-name="ae" unicode="&#xe6;" horiz-adv-x="778" 
d="M733 100q1 -5 -5 -17t-20.5 -28t-34 -30.5t-50 -24.5t-64.5 -10q-80 0 -140 70q1 -44 -3 -57t-25 -13q-26 0 -34 26l-1 36q-46 -62 -106 -62t-112 30.5t-66 83.5q-10 37 5.5 87.5t52.5 89.5q78 80 228 134q2 26 27 26q27 0 33 -26q2 -6 2 -25q59 51 131 51q48 0 86 -24
t48 -63q11 -44 -10 -72.5t-66.5 -38.5t-71.5 -12.5t-57 -2.5h-61q2 -52 11 -85q14 -54 46.5 -89.5t76.5 -35.5q37 0 76.5 21t65.5 70q6 12 13 12q5 0 14.5 -7.5t10.5 -13.5zM641 354q-8 29 -32 44t-52 15q-50 0 -92 -39.5t-45 -117.5h47q27 0 48.5 2t59.5 10t56 30t10 56z
M357 154v228q-121 -52 -170 -139.5t-30 -161.5q6 -22 19 -36t29.5 -19t24.5 -6.5t15 -1.5q48 0 80 50.5t32 85.5z" />
    <glyph glyph-name="ccedilla" unicode="&#xe7;" horiz-adv-x="500" 
d="M483 100q1 -4 -4.5 -15.5t-20 -26.5t-34.5 -29t-52.5 -25t-69.5 -13l1 -37q67 -11 79 -58q5 -21 -1.5 -36.5t-24.5 -24.5t-35.5 -15t-46 -8t-43 -2.5t-38.5 -0.5q-27 0 -35 2t-11 12q-1 7 2.5 10t8 3.5t14.5 0.5h13q21 0 36.5 1t42.5 6t40 18t8 33q-8 31 -60 35
q-19 0 -24 14v54q-55 15 -95.5 57.5t-56.5 103.5q-27 109 35 195.5t162 86.5q53 0 92 -24t48 -62q8 -28 -3.5 -44t-32.5 -16q-18 0 -30 10t-15 23q1 3 -1.5 12t6 21t26.5 16q-29 36 -83 36q-33 0 -66.5 -24t-50.5 -80q-10 -34 -10.5 -91.5t8.5 -93.5q13 -50 44 -78t72 -28
q47 0 94 22.5t73 68.5q8 12 13 12q6 0 15 -7.5t11 -13.5z" />
    <glyph glyph-name="egrave" unicode="&#xe8;" horiz-adv-x="500" 
d="M483 100q1 -5 -5 -17t-22 -28t-38 -30.5t-58 -24.5t-77 -10q-76 0 -131.5 53t-74.5 127q-30 123 36 197t159 74q51 0 88.5 -24.5t47.5 -62.5q7 -30 -0.5 -53t-29 -36t-42.5 -21t-51 -11.5t-44 -4t-31 -0.5h-58q0 -58 10 -96q11 -43 39.5 -78.5t75.5 -35.5t94 22.5
t73 68.5q8 12 13 12q6 0 15 -7.5t11 -13.5zM363 354q-7 28 -31 43.5t-53 15.5q-19 0 -38.5 -7.5t-40 -24t-33.5 -49t-14 -76.5h41q16 0 28 0.5t37.5 3t43 9t35.5 16.5t24.5 28t0.5 41zM314 522q-2 -6 -10 -13.5t-15 -7.5q-5 0 -12 7l-140 122q-18 15 -14 35q3 15 15 23t24 8
q7 0 13 -3t9 -7l3 -3l120 -143q8 -12 7 -18z" />
    <glyph glyph-name="eacute" unicode="&#xe9;" horiz-adv-x="500" 
d="M483 100q1 -5 -5 -17t-22 -28t-38 -30.5t-58 -24.5t-77 -10q-76 0 -131.5 53t-74.5 127q-30 123 36 197t159 74q51 0 88.5 -24.5t47.5 -62.5q7 -30 -0.5 -53t-29 -36t-42.5 -21t-51 -11.5t-44 -4t-31 -0.5h-58q0 -58 10 -96q11 -43 39.5 -78.5t75.5 -35.5t94 22.5
t73 68.5q8 12 13 12q6 0 15 -7.5t11 -13.5zM363 354q-7 28 -31 43.5t-53 15.5q-19 0 -38.5 -7.5t-40 -24t-33.5 -49t-14 -76.5h41q16 0 28 0.5t37.5 3t43 9t35.5 16.5t24.5 28t0.5 41zM377 665q4 -20 -14 -35l-140 -122q-8 -7 -12 -7q-7 0 -15 7.5t-10 13.5q-2 9 7 18
l120 143q10 13 25 13q12 0 23.5 -8t15.5 -23z" />
    <glyph glyph-name="ecircumflex" unicode="&#xea;" horiz-adv-x="500" 
d="M483 100q1 -5 -5 -17t-22 -28t-38 -30.5t-58 -24.5t-77 -10q-76 0 -131.5 53t-74.5 127q-30 123 36 197t159 74q51 0 88.5 -24.5t47.5 -62.5q7 -30 -0.5 -53t-29 -36t-42.5 -21t-51 -11.5t-44 -4t-31 -0.5h-58q0 -58 10 -96q11 -43 39.5 -78.5t75.5 -35.5t94 22.5
t73 68.5q8 12 13 12q6 0 15 -7.5t11 -13.5zM363 354q-7 28 -31 43.5t-53 15.5q-19 0 -38.5 -7.5t-40 -24t-33.5 -49t-14 -76.5h41q16 0 28 0.5t37.5 3t43 9t35.5 16.5t24.5 28t0.5 41zM389 534q7 -7 0.5 -14.5t-14.5 -1.5l-125 99l-125 -99q-7 -6 -13.5 1t-1.5 15l132 144
q8 8 15 0z" />
    <glyph glyph-name="edieresis" unicode="&#xeb;" horiz-adv-x="500" 
d="M483 100q1 -5 -5 -17t-22 -28t-38 -30.5t-58 -24.5t-77 -10q-76 0 -131.5 53t-74.5 127q-30 123 36 197t159 74q51 0 88.5 -24.5t47.5 -62.5q7 -30 -0.5 -53t-29 -36t-42.5 -21t-51 -11.5t-44 -4t-31 -0.5h-58q0 -58 10 -96q11 -43 39.5 -78.5t75.5 -35.5t94 22.5
t73 68.5q8 12 13 12q6 0 15 -7.5t11 -13.5zM363 354q-7 28 -31 43.5t-53 15.5q-19 0 -38.5 -7.5t-40 -24t-33.5 -49t-14 -76.5h41q16 0 28 0.5t37.5 3t43 9t35.5 16.5t24.5 28t0.5 41zM206 608q6 -24 -9 -41.5t-38 -17.5q-17 0 -32 11.5t-20 30.5q-6 22 8.5 40t37.5 18
q15 0 31.5 -10t21.5 -31zM393 608q7 -24 -8 -41.5t-39 -17.5q-17 0 -32 11.5t-20 30.5q-5 23 9 40.5t37 17.5q16 0 32 -10t21 -31z" />
    <glyph glyph-name="igrave" unicode="&#xec;" horiz-adv-x="333" 
d="M323 143q2 -7 -1 -29.5t-11 -51t-30.5 -50.5t-56.5 -22q-38 0 -67.5 24t-38.5 59q-5 22 0 46l24 186q6 54 0 77q-7 31 -30 31q-33 0 -48 -35t-17 -82v-11t-2 -6t-5 -3.5t-9 -0.5q-20 0 -23 13q-2 7 1 29.5t11 51.5t31 50.5t56 21.5q35 0 65 -22t40 -61q5 -21 1 -52
l-23 -174q-7 -59 -1 -82q7 -32 30 -32q31 0 47 32.5t18 84.5q1 10 1.5 13.5t4 5.5t11.5 2q19 0 22 -13zM231 522q-2 -6 -10 -13.5t-15 -7.5q-5 0 -12 7l-140 122q-18 15 -14 35q3 15 15 23t24 8q7 0 13 -3t9 -7l3 -3l120 -143q8 -12 7 -18z" />
    <glyph glyph-name="iacute" unicode="&#xed;" horiz-adv-x="333" 
d="M323 143q2 -7 -1 -29.5t-11 -51t-30.5 -50.5t-56.5 -22q-38 0 -67.5 24t-38.5 59q-5 22 0 46l24 186q6 54 0 77q-7 31 -30 31q-33 0 -48 -35t-17 -82v-11t-2 -6t-5 -3.5t-9 -0.5q-20 0 -23 13q-2 7 1 29.5t11 51.5t31 50.5t56 21.5q35 0 65 -22t40 -61q5 -21 1 -52
l-23 -174q-7 -59 -1 -82q7 -32 30 -32q31 0 47 32.5t18 84.5q1 10 1.5 13.5t4 5.5t11.5 2q19 0 22 -13zM294 665q4 -20 -14 -35l-140 -122q-8 -7 -12 -7q-7 0 -15 7.5t-10 13.5q-2 9 7 18l120 143q10 13 25 13q12 0 23.5 -8t15.5 -23z" />
    <glyph glyph-name="icircumflex" unicode="&#xee;" horiz-adv-x="333" 
d="M323 143q2 -7 -1 -29.5t-11 -51t-30.5 -50.5t-56.5 -22q-38 0 -67.5 24t-38.5 59q-5 22 0 46l24 186q6 54 0 77q-7 31 -30 31q-33 0 -48 -35t-17 -82v-11t-2 -6t-5 -3.5t-9 -0.5q-20 0 -23 13q-2 7 1 29.5t11 51.5t31 50.5t56 21.5q35 0 65 -22t40 -61q5 -21 1 -52
l-23 -174q-7 -59 -1 -82q7 -32 30 -32q31 0 47 32.5t18 84.5q1 10 1.5 13.5t4 5.5t11.5 2q19 0 22 -13zM306 534q7 -7 0.5 -14.5t-14.5 -1.5l-125 99l-125 -99q-7 -6 -13.5 1t-1.5 15l132 144q7 8 15 0z" />
    <glyph glyph-name="idieresis" unicode="&#xef;" horiz-adv-x="333" 
d="M323 143q2 -7 -1 -29.5t-11 -51t-30.5 -50.5t-56.5 -22q-38 0 -67.5 24t-38.5 59q-5 22 0 46l24 186q6 54 0 77q-7 31 -30 31q-33 0 -48 -35t-17 -82v-11t-2 -6t-5 -3.5t-9 -0.5q-20 0 -23 13q-2 7 1 29.5t11 51.5t31 50.5t56 21.5q35 0 65 -22t40 -61q5 -21 1 -52
l-23 -174q-7 -59 -1 -82q7 -32 30 -32q31 0 47 32.5t18 84.5q1 10 1.5 13.5t4 5.5t11.5 2q19 0 22 -13zM123 608q6 -24 -9 -41.5t-38 -17.5q-17 0 -32 11.5t-20 30.5q-6 22 8.5 40t37.5 18q15 0 31.5 -10t21.5 -31zM310 608q7 -24 -8 -41.5t-39 -17.5q-17 0 -32 11.5
t-20 30.5q-5 23 9 40.5t37 17.5q16 0 32 -10t21 -31z" />
    <glyph glyph-name="eth" unicode="&#xf0;" 
d="M498 239q0 -33 -2 -54t-15 -57t-39 -65q-67 -74 -165 -74q-91 0 -156 65t-65 159q0 98 65.5 166t153.5 68q75 0 125 -81q-34 137 -134 226l-90 -52q-6 -3 -10 -3q-7 0 -12.5 5.5t-5.5 13.5q0 9 9 15l78 45q-56 40 -122 58q-7 3 -7 10q0 10 11 10q89 -7 164 -52l87 50
q4 3 9 3q7 0 12.5 -5.5t5.5 -13.5q0 -9 -9 -15l-71 -41q85 -63 134 -164t49 -217zM414 211q0 110 -42.5 162t-95.5 52q-71 0 -110 -63q-26 -43 -26 -140q0 -96 24 -141q18 -32 48 -49.5t65 -17.5q75 0 112 67q25 44 25 130z" />
    <glyph glyph-name="ntilde" unicode="&#xf1;" horiz-adv-x="611" 
d="M601 143q2 -8 -1 -30.5t-11.5 -51t-31.5 -50t-56 -21.5q-38 0 -68 24t-38 59q-5 19 0 52q20 165 5 222q-16 66 -68 66q-51 0 -89 -41q-16 -19 -28 -53.5t-13 -50.5v-65v-65v-86q0 -24 -1 -34t-8.5 -19t-22.5 -9q-13 0 -24 8t-14 20v6t-1 9v292q2 21 -5 44q-10 44 -39 44
q-24 0 -32 -29t-8 -82q0 -19 -2 -23t-14 -4q-20 0 -23 13q-1 7 0.5 42t7.5 57q19 54 66 54q36 0 67.5 -22.5t45.5 -57.5q9 14 15.5 23t23 24.5t40.5 24t54 8.5q115 0 143 -108q14 -59 -7 -219q-4 -43 1 -64q9 -32 31 -32q31 0 47 33t18 84q1 10 1.5 13.5t4 5.5t11.5 2
q19 0 23 -13zM473 639q3 -11 -41 -53q-38 -41 -74 -41q-31 0 -64 38q-27 29 -43 29q-29 0 -81 -59q-6 -8 -13 -8q-13 0 -16 14q-3 10 40 53q41 41 74 41q20 0 35 -10.5t35 -33.5q22 -23 37 -23q7 0 15.5 3.5t15.5 8.5t15.5 12t13.5 12t11.5 12t7.5 8q7 11 14 11q15 0 18 -14
z" />
    <glyph glyph-name="ograve" unicode="&#xf2;" 
d="M478 272q18 -70 -4.5 -136t-75 -106t-118.5 -40q-67 0 -125.5 45t-78.5 124q-27 109 35.5 195.5t161.5 86.5q70 0 128 -46.5t77 -122.5zM393 307q-13 51 -44.5 78.5t-69.5 27.5q-31 0 -63.5 -23t-49.5 -72q-13 -39 -13.5 -101t8.5 -93q14 -55 46 -80.5t67 -25.5
q37 0 67.5 25.5t44.5 66.5q11 31 14 74t0.5 73.5t-7.5 49.5zM342 522q-2 -6 -10 -13.5t-15 -7.5q-5 0 -12 7l-140 122q-18 15 -14 35q3 15 15 23t24 8q7 0 13 -3t9 -7l3 -3l120 -143q8 -12 7 -18z" />
    <glyph glyph-name="oacute" unicode="&#xf3;" 
d="M478 272q18 -70 -4.5 -136t-75 -106t-118.5 -40q-67 0 -125.5 45t-78.5 124q-27 109 35.5 195.5t161.5 86.5q70 0 128 -46.5t77 -122.5zM393 307q-13 51 -44.5 78.5t-69.5 27.5q-31 0 -63.5 -23t-49.5 -72q-13 -39 -13.5 -101t8.5 -93q14 -55 46 -80.5t67 -25.5
q37 0 67.5 25.5t44.5 66.5q11 31 14 74t0.5 73.5t-7.5 49.5zM405 665q4 -20 -14 -35l-140 -122q-8 -7 -12 -7q-7 0 -15 7.5t-10 13.5q-2 9 7 18l120 143q10 13 25 13q12 0 23.5 -8t15.5 -23z" />
    <glyph glyph-name="ocircumflex" unicode="&#xf4;" 
d="M478 272q18 -70 -4.5 -136t-75 -106t-118.5 -40q-67 0 -125.5 45t-78.5 124q-27 109 35.5 195.5t161.5 86.5q70 0 128 -46.5t77 -122.5zM393 307q-13 51 -44.5 78.5t-69.5 27.5q-31 0 -63.5 -23t-49.5 -72q-13 -39 -13.5 -101t8.5 -93q14 -55 46 -80.5t67 -25.5
q37 0 67.5 25.5t44.5 66.5q11 31 14 74t0.5 73.5t-7.5 49.5zM417 534q7 -7 0.5 -14.5t-14.5 -1.5l-125 99l-125 -99q-7 -6 -13.5 1t-1.5 15l132 144q8 8 15 0z" />
    <glyph glyph-name="otilde" unicode="&#xf5;" 
d="M478 272q18 -70 -4.5 -136t-75 -106t-118.5 -40q-67 0 -125.5 45t-78.5 124q-27 109 35.5 195.5t161.5 86.5q70 0 128 -46.5t77 -122.5zM393 307q-13 51 -44.5 78.5t-69.5 27.5q-31 0 -63.5 -23t-49.5 -72q-13 -39 -13.5 -101t8.5 -93q14 -55 46 -80.5t67 -25.5
q37 0 67.5 25.5t44.5 66.5q11 31 14 74t0.5 73.5t-7.5 49.5zM445 639q3 -11 -41 -53q-38 -41 -74 -41q-31 0 -64 38q-27 29 -43 29q-29 0 -81 -59q-6 -8 -13 -8q-13 0 -16 14q-3 10 40 53q41 41 74 41q20 0 35 -10.5t35 -33.5q22 -23 37 -23q7 0 15.5 3.5t15.5 8.5t15.5 12
t13.5 12t11.5 12t7.5 8q7 11 14 11q15 0 18 -14z" />
    <glyph glyph-name="odieresis" unicode="&#xf6;" 
d="M478 272q18 -70 -4.5 -136t-75 -106t-118.5 -40q-67 0 -125.5 45t-78.5 124q-27 109 35.5 195.5t161.5 86.5q70 0 128 -46.5t77 -122.5zM393 307q-13 51 -44.5 78.5t-69.5 27.5q-31 0 -63.5 -23t-49.5 -72q-13 -39 -13.5 -101t8.5 -93q14 -55 46 -80.5t67 -25.5
q37 0 67.5 25.5t44.5 66.5q11 31 14 74t0.5 73.5t-7.5 49.5zM234 608q6 -24 -9 -41.5t-38 -17.5q-17 0 -32 11.5t-20 30.5q-6 22 8.5 40t37.5 18q15 0 31.5 -10t21.5 -31zM421 608q7 -24 -8 -41.5t-39 -17.5q-17 0 -32 11.5t-20 30.5q-5 23 9 40.5t37 17.5q16 0 32 -10
t21 -31z" />
    <glyph glyph-name="divide" unicode="&#xf7;" horiz-adv-x="833" 
d="M749 250q3 -11 -2.5 -16.5t-11.5 -6t-16 -0.5h-595q-35 0 -40 23q-3 11 3 16.5t12.5 6t17.5 0.5h586q40 0 46 -23zM471 429q7 -27 -9.5 -46.5t-42.5 -19.5q-19 0 -35.5 12t-21.5 33q-7 27 9.5 46.5t41.5 19.5q19 0 35.5 -12t22.5 -33zM470 91q7 -27 -9.5 -46.5
t-41.5 -19.5q-19 0 -35.5 12t-22.5 33q-7 27 9.5 46.5t41.5 19.5q19 0 36 -12t22 -33z" />
    <glyph glyph-name="oslash" unicode="&#xf8;" 
d="M471 276q18 -71 -3 -138t-72 -108.5t-115 -41.5q-23 0 -46.5 6t-35.5 12l-12 7l-54 -102q-9 -16 -11.5 -19t-7.5 -3t-10.5 4t-6.5 10q-1 5 10 29l54 99q-59 49 -78 125q-27 108 32.5 197.5t158.5 89.5q49 0 93 -25l60 112q5 12 12 12q14 0 18 -14q1 -6 -5 -17l-59 -112
q60 -49 78 -123zM350 388q-32 27 -70 27q-34 0 -66 -23t-49 -64q-13 -32 -17 -75t-1 -73.5t8 -50.5q9 -34 26 -59zM399 303q-9 35 -26 59l-169 -319q27 -27 70 -27t74.5 28.5t44.5 71.5t16 93.5t-10 93.5z" />
    <glyph glyph-name="ugrave" unicode="&#xf9;" horiz-adv-x="583" 
d="M573 143q2 -60 -9 -100q-15 -53 -64 -53q-70 0 -104 61q-38 -61 -104 -61q-51 0 -94.5 28.5t-59.5 91.5q-7 26 -6.5 65t2.5 60.5t9 79.5q6 45 0 67q-7 31 -30 31q-31 0 -47.5 -33t-18.5 -84v-11t-2 -6t-5 -3.5t-9 -0.5q-20 0 -23 13q-2 7 1 29.5t11 51.5t31 50.5t57 21.5
q35 0 65 -22t40 -61q5 -21 1 -50q-7 -54 -9.5 -83.5t-2 -66t7.5 -62.5q18 -78 79 -78q44 0 67.5 36t23.5 62l-1 275q0 40 32 40q30 0 38 -29q1 -3 1 -19l1 -292q0 -15 4 -29q11 -44 40 -44q40 0 40 110q-1 19 1.5 23.5t14.5 4.5q19 0 22 -13zM356 522q-2 -6 -10 -13.5
t-15 -7.5q-5 0 -12 7l-140 122q-18 15 -14 35q3 15 15 23t24 8q7 0 13 -3t9 -7l3 -3l120 -143q8 -12 7 -18z" />
    <glyph glyph-name="uacute" unicode="&#xfa;" horiz-adv-x="583" 
d="M573 143q2 -60 -9 -100q-15 -53 -64 -53q-70 0 -104 61q-38 -61 -104 -61q-51 0 -94.5 28.5t-59.5 91.5q-7 26 -6.5 65t2.5 60.5t9 79.5q6 45 0 67q-7 31 -30 31q-31 0 -47.5 -33t-18.5 -84v-11t-2 -6t-5 -3.5t-9 -0.5q-20 0 -23 13q-2 7 1 29.5t11 51.5t31 50.5t57 21.5
q35 0 65 -22t40 -61q5 -21 1 -50q-7 -54 -9.5 -83.5t-2 -66t7.5 -62.5q18 -78 79 -78q44 0 67.5 36t23.5 62l-1 275q0 40 32 40q30 0 38 -29q1 -3 1 -19l1 -292q0 -15 4 -29q11 -44 40 -44q40 0 40 110q-1 19 1.5 23.5t14.5 4.5q19 0 22 -13zM419 665q4 -20 -14 -35
l-140 -122q-8 -7 -12 -7q-7 0 -15 7.5t-10 13.5q-2 9 7 18l120 143q10 13 25 13q12 0 23.5 -8t15.5 -23z" />
    <glyph glyph-name="ucircumflex" unicode="&#xfb;" horiz-adv-x="583" 
d="M573 143q2 -60 -9 -100q-15 -53 -64 -53q-70 0 -104 61q-38 -61 -104 -61q-51 0 -94.5 28.5t-59.5 91.5q-7 26 -6.5 65t2.5 60.5t9 79.5q6 45 0 67q-7 31 -30 31q-31 0 -47.5 -33t-18.5 -84v-11t-2 -6t-5 -3.5t-9 -0.5q-20 0 -23 13q-2 7 1 29.5t11 51.5t31 50.5t57 21.5
q35 0 65 -22t40 -61q5 -21 1 -50q-7 -54 -9.5 -83.5t-2 -66t7.5 -62.5q18 -78 79 -78q44 0 67.5 36t23.5 62l-1 275q0 40 32 40q30 0 38 -29q1 -3 1 -19l1 -292q0 -15 4 -29q11 -44 40 -44q40 0 40 110q-1 19 1.5 23.5t14.5 4.5q19 0 22 -13zM431 534q7 -7 0.5 -14.5
t-14.5 -1.5l-125 99l-125 -99q-7 -6 -13.5 1t-1.5 15l132 144q8 8 15 0z" />
    <glyph glyph-name="udieresis" unicode="&#xfc;" horiz-adv-x="583" 
d="M573 143q2 -60 -9 -100q-15 -53 -64 -53q-70 0 -104 61q-38 -61 -104 -61q-51 0 -94.5 28.5t-59.5 91.5q-7 26 -6.5 65t2.5 60.5t9 79.5q6 45 0 67q-7 31 -30 31q-31 0 -47.5 -33t-18.5 -84v-11t-2 -6t-5 -3.5t-9 -0.5q-20 0 -23 13q-2 7 1 29.5t11 51.5t31 50.5t57 21.5
q35 0 65 -22t40 -61q5 -21 1 -50q-7 -54 -9.5 -83.5t-2 -66t7.5 -62.5q18 -78 79 -78q44 0 67.5 36t23.5 62l-1 275q0 40 32 40q30 0 38 -29q1 -3 1 -19l1 -292q0 -15 4 -29q11 -44 40 -44q40 0 40 110q-1 19 1.5 23.5t14.5 4.5q19 0 22 -13zM248 608q6 -24 -9 -41.5
t-38 -17.5q-17 0 -32 11.5t-20 30.5q-6 22 8.5 40t37.5 18q15 0 31.5 -10t21.5 -31zM435 608q7 -24 -8 -41.5t-39 -17.5q-17 0 -32 11.5t-20 30.5q-5 23 9 40.5t37 17.5q16 0 32 -10t21 -31z" />
    <glyph glyph-name="yacute" unicode="&#xfd;" horiz-adv-x="528" 
d="M450 -9q-1 -73 -52 -134t-132 -61q-45 0 -80.5 24.5t-45.5 62.5q-9 33 4.5 47t31.5 14q17 0 29 -9.5t16 -23.5q5 -17 -4 -31.5t-29 -18.5q26 -37 72 -37q60 0 94 63q27 54 25 140q-32 -37 -87 -37q-51 0 -94.5 28.5t-59.5 91.5q-7 26 -6.5 65t2.5 60.5t9 79.5q6 45 0 67
q-7 31 -30 31q-31 0 -47.5 -33t-18.5 -84v-11t-2 -6t-5 -3.5t-9 -0.5q-20 0 -23 13q-2 7 1 29.5t11 51.5t31 50.5t57 21.5q35 0 65 -22t40 -61q5 -21 1 -50q-7 -54 -9.5 -83.5t-2 -66t7.5 -62.5q18 -78 79 -78q44 0 67.5 36t23.5 62l-1 275q0 40 32 40q30 0 38 -29v-3.5
t0.5 -5.5t0.5 -10v-392zM391 665q4 -20 -14 -35l-140 -122q-8 -7 -12 -7q-7 0 -15 7.5t-10 13.5q-2 9 7 18l120 143q10 13 25 13q12 0 23.5 -8t15.5 -23z" />
    <glyph glyph-name="thorn" unicode="&#xfe;" 
d="M486 211q0 -91 -52 -156t-125 -65q-60 0 -107 56v-145q0 -43 1 -48q4 -14 53 -14q26 0 29 -14q1 -3 1 -7q0 -12 -15 -12q-2 0 -11.5 1t-32 1.5t-54.5 0.5q-25 0 -42.5 -0.5t-24.5 -1t-12 -1t-7 -0.5q-15 0 -18 14q-3 13 2.5 16t17.5 3q28 0 35.5 6.5t5.5 31.5v346v390
q0 17 -1 22q-1 6 -3.5 8.5t-14 4.5t-34.5 2q-27 0 -30 14q-4 9 0 13t7.5 5t12.5 2l103 9q27 2 30 -13v-15v-275q51 51 102 51q55 0 105 -42t69 -118h1q9 -36 9 -70zM402 218q0 64 -9 103q-12 47 -35.5 69.5t-49.5 22.5q-56 0 -96 -77q-10 -22 -12 -39v-184q0 -6 11 -27.5
t36.5 -44.5t55.5 -23q29 0 54.5 26.5t36.5 74.5q8 34 8 99z" />
    <glyph glyph-name="ydieresis" unicode="&#xff;" horiz-adv-x="528" 
d="M450 -9q-1 -73 -52 -134t-132 -61q-45 0 -80.5 24.5t-45.5 62.5q-9 33 4.5 47t31.5 14q17 0 29 -9.5t16 -23.5q5 -17 -4 -31.5t-29 -18.5q26 -37 72 -37q60 0 94 63q27 54 25 140q-32 -37 -87 -37q-51 0 -94.5 28.5t-59.5 91.5q-7 26 -6.5 65t2.5 60.5t9 79.5q6 45 0 67
q-7 31 -30 31q-31 0 -47.5 -33t-18.5 -84v-11t-2 -6t-5 -3.5t-9 -0.5q-20 0 -23 13q-2 7 1 29.5t11 51.5t31 50.5t57 21.5q35 0 65 -22t40 -61q5 -21 1 -50q-7 -54 -9.5 -83.5t-2 -66t7.5 -62.5q18 -78 79 -78q44 0 67.5 36t23.5 62l-1 275q0 40 32 40q30 0 38 -29v-3.5
t0.5 -5.5t0.5 -10v-392zM220 608q6 -24 -9 -41.5t-38 -17.5q-17 0 -32 11.5t-20 30.5q-6 22 8.5 40t37.5 18q15 0 31.5 -10t21.5 -31zM407 608q7 -24 -8 -41.5t-39 -17.5q-17 0 -32 11.5t-20 30.5q-5 23 9 40.5t37 17.5q16 0 32 -10t21 -31z" />
    <glyph glyph-name="Amacron" unicode="&#x100;" horiz-adv-x="806" 
d="M744 19q4 -19 -15 -19q-3 0 -9.5 0.5t-15 1t-30.5 1t-52 0.5q-19 0 -56.5 -1.5t-55.5 -1.5q-16 0 -19 14q-3 13 2.5 16t19.5 3q29 0 42 7t12 16.5t-4 19.5l-54 155h-257q-4 -12 -11.5 -35t-17.5 -49q-23 -70 -19 -83q7 -28 45 -31q18 0 22 -14q4 -19 -16 -19l-11 1
q-10 1 -32 1.5t-51 0.5q-30 0 -48.5 -0.5t-25 -1.5t-8.5 -1q-14 0 -18 14q-2 8 0.5 12t6 5t11.5 2q66 6 94 85l201 575q8 21 29 21q13 0 18.5 -5t11.5 -22l218 -621q5 -14 8.5 -19.5t16 -9.5t36.5 -4q28 0 32 -14zM497 264l-116 330l-117 -330h233zM583 776q3 -10 -0.5 -15
t-8.5 -6t-17 -1h-302q-28 0 -32 14q0 8 -0.5 12.5t4.5 6.5t8.5 2.5t12.5 0.5h302q29 0 33 -14z" />
    <glyph glyph-name="amacron" unicode="&#x101;" 
d="M531 143q2 -60 -9 -100q-15 -53 -65 -53q-35 0 -64 19.5t-44 48.5q-43 -68 -113 -68q-58 0 -107 44.5t-68 115.5q-27 107 26 199t143 92q59 0 107 -56q-1 19 9 28t23 9t24 -8t14 -20q1 -5 1 -21l1 -282q0 -15 4 -29q11 -44 39 -44q41 0 40 110q0 20 2 24t15 4
q19 0 22 -13zM337 133l-1 171v14q-4 12 -12.5 30t-33 41.5t-53.5 23.5q-25 0 -50 -21.5t-40 -71.5q-10 -34 -10 -104.5t9 -106.5t31 -63.5t55 -27.5q40 0 73 42t32 73zM458 603q3 -10 -0.5 -15t-8.5 -6t-17 -1h-302q-28 0 -32 14q0 8 -0.5 12.5t4.5 6.5t8.5 2.5t12.5 0.5
h302q29 0 33 -14z" />
    <glyph glyph-name="Abreve" unicode="&#x102;" horiz-adv-x="806" 
d="M744 19q4 -19 -15 -19q-3 0 -9.5 0.5t-15 1t-30.5 1t-52 0.5q-19 0 -56.5 -1.5t-55.5 -1.5q-16 0 -19 14q-3 13 2.5 16t19.5 3q29 0 42 7t12 16.5t-4 19.5l-54 155h-257q-4 -12 -11.5 -35t-17.5 -49q-23 -70 -19 -83q7 -28 45 -31q18 0 22 -14q4 -19 -16 -19l-11 1
q-10 1 -32 1.5t-51 0.5q-30 0 -48.5 -0.5t-25 -1.5t-8.5 -1q-14 0 -18 14q-2 8 0.5 12t6 5t11.5 2q66 6 94 85l201 575q8 21 29 21q13 0 18.5 -5t11.5 -22l218 -621q5 -14 8.5 -19.5t16 -9.5t36.5 -4q28 0 32 -14zM497 264l-116 330l-117 -330h233zM554 905q5 -21 -7 -57
t-49.5 -70t-91.5 -34q-55 0 -97 35t-55 88q-13 52 6 52q15 0 18 -15l1 -11q1 -11 3 -19q10 -39 42 -63.5t75 -24.5q16 0 33.5 5t38.5 17t36.5 37.5t18.5 60.5q0 13 11 13q13 0 17 -14z" />
    <glyph glyph-name="abreve" unicode="&#x103;" 
d="M531 143q2 -60 -9 -100q-15 -53 -65 -53q-35 0 -64 19.5t-44 48.5q-43 -68 -113 -68q-58 0 -107 44.5t-68 115.5q-27 107 26 199t143 92q59 0 107 -56q-1 19 9 28t23 9t24 -8t14 -20q1 -5 1 -21l1 -282q0 -15 4 -29q11 -44 39 -44q41 0 40 110q0 20 2 24t15 4
q19 0 22 -13zM337 133l-1 171v14q-4 12 -12.5 30t-33 41.5t-53.5 23.5q-25 0 -50 -21.5t-40 -71.5q-10 -34 -10 -104.5t9 -106.5t31 -63.5t55 -27.5q40 0 73 42t32 73zM429 672q5 -21 -7 -57t-49.5 -70t-91.5 -34q-55 0 -97 35t-55 88q-13 52 6 52q15 0 18 -15l1 -11
q1 -11 3 -19q10 -39 42 -63.5t75 -24.5q16 0 33.5 5t38.5 17t36.5 37.5t18.5 60.5q0 13 11 13q14 0 17 -14z" />
    <glyph glyph-name="Aogonek" unicode="&#x104;" horiz-adv-x="806" 
d="M755 -115q-10 -42 -44 -69t-72 -27q-48 0 -81 27t-34 63q-3 66 80 124q-93 -3 -94 -3q-16 0 -19 14q-3 13 2.5 16t19.5 3q29 0 42 7t12 16.5t-4 19.5l-54 155h-257q-4 -12 -11.5 -35t-17.5 -49q-23 -70 -19 -83q7 -28 45 -31q18 0 22 -14q4 -19 -16 -19l-11 1
q-10 1 -32 1.5t-51 0.5q-30 0 -48.5 -0.5t-25 -1.5t-8.5 -1q-14 0 -18 14q-2 8 0.5 12t6 5t11.5 2q66 6 94 85l201 575q8 21 29 21q13 0 18.5 -5t11.5 -22l218 -621q5 -14 8.5 -19.5t16 -9.5t36.5 -4q28 0 32 -14q4 -19 -15 -19q-3 0 -10.5 0.5t-26.5 1.5t-49 1
q-73 -52 -72 -98q1 -32 30 -50.5t60 -18.5q53 0 76 56q4 8 11.5 5t6.5 -12zM497 264l-116 330l-117 -330h233z" />
    <glyph glyph-name="aogonek" unicode="&#x105;" 
d="M538 -115q-10 -42 -44 -69t-73 -27q-47 0 -80 27t-35 63q-3 67 88 131q-30 20 -45 48q-43 -68 -113 -68q-58 0 -107 44.5t-68 115.5q-27 107 26 199t143 92q59 0 107 -56q-1 19 9 28t23 9t24 -8t14 -20q1 -5 1 -21l1 -282q0 -15 4 -29q11 -44 39 -44q41 0 40 110
q0 20 2 24t15 4q19 0 22 -13q2 -60 -9 -100q-15 -53 -65 -53q-14 0 -38 8q-67 -46 -66 -93q1 -32 30 -50.5t61 -18.5q51 0 76 56q3 8 11 5t7 -12zM337 133l-1 171v14q-4 12 -12.5 30t-33 41.5t-53.5 23.5q-25 0 -50 -21.5t-40 -71.5q-10 -34 -10 -104.5t9 -106.5t31 -63.5
t55 -27.5q40 0 73 42t32 73z" />
    <glyph glyph-name="Cacute" unicode="&#x106;" horiz-adv-x="778" 
d="M693 240v-16t-4.5 -34t-12.5 -45q-28 -72 -94 -119t-150 -47q-115 0 -210.5 74.5t-127.5 198.5q-29 113 9.5 218.5t125.5 169.5t195 64q109 0 189 -87l47 76q6 11 15 11q13 0 18 -12v-14v-241q0 -14 -3 -17t-14 -3q-19 0 -22 13q0 1 -1 8.5t-3 20t-5 23.5
q-22 82 -75.5 135.5t-129.5 53.5q-66 0 -125 -36t-94 -99q-27 -50 -36.5 -116.5t-5.5 -115.5t13 -86q26 -102 95 -154t147 -52q36 0 71.5 13t68.5 39t55 72.5t25 106.5q0 10 16 10q19 0 23 -13zM577 870q0 -20 -21 -30l-167 -91q-7 -5 -14 -5q-8 1 -14.5 9.5t-6.5 14.5
q-1 9 10 16l150 114q10 9 23 9q16 0 27.5 -10.5t12.5 -26.5z" />
    <glyph glyph-name="cacute" unicode="&#x107;" horiz-adv-x="500" 
d="M483 100q1 -5 -5 -17t-22 -28t-38 -30.5t-58 -24.5t-77 -10q-73 0 -130.5 46.5t-76.5 122.5q-27 109 35 195.5t162 86.5q53 0 92 -24t48 -62q8 -28 -3.5 -44t-32.5 -16q-18 0 -30 10t-15 23q1 3 -1.5 12t6 21t26.5 16q-29 36 -83 36q-33 0 -66.5 -24t-50.5 -80
q-10 -34 -10.5 -91.5t8.5 -93.5q13 -50 44 -78t72 -28q47 0 94 22.5t73 68.5q8 12 13 12q6 0 15 -7.5t11 -13.5zM402 665q4 -20 -14 -35l-140 -122q-8 -7 -12 -7q-7 0 -15 7.5t-10 13.5q-2 9 7 18l120 143q10 13 25 13q12 0 23.5 -8t15.5 -23z" />
    <glyph glyph-name="Ccircumflex" unicode="&#x108;" horiz-adv-x="778" 
d="M693 240v-16t-4.5 -34t-12.5 -45q-28 -72 -94 -119t-150 -47q-115 0 -210.5 74.5t-127.5 198.5q-29 113 9.5 218.5t125.5 169.5t195 64q109 0 189 -87l47 76q6 11 15 11q13 0 18 -12v-14v-241q0 -14 -3 -17t-14 -3q-19 0 -22 13q0 1 -1 8.5t-3 20t-5 23.5
q-22 82 -75.5 135.5t-129.5 53.5q-66 0 -125 -36t-94 -99q-27 -50 -36.5 -116.5t-5.5 -115.5t13 -86q26 -102 95 -154t147 -52q36 0 71.5 13t68.5 39t55 72.5t25 106.5q0 10 16 10q19 0 23 -13zM565 753q8 -5 3.5 -13.5t-12.5 -4.5l-128 55l-128 -55q-9 -4 -14 4.5t3 13.5
l133 98q3 3 12 0z" />
    <glyph glyph-name="ccircumflex" unicode="&#x109;" horiz-adv-x="500" 
d="M483 100q1 -5 -5 -17t-22 -28t-38 -30.5t-58 -24.5t-77 -10q-73 0 -130.5 46.5t-76.5 122.5q-27 109 35 195.5t162 86.5q53 0 92 -24t48 -62q8 -28 -3.5 -44t-32.5 -16q-18 0 -30 10t-15 23q1 3 -1.5 12t6 21t26.5 16q-29 36 -83 36q-33 0 -66.5 -24t-50.5 -80
q-10 -34 -10.5 -91.5t8.5 -93.5q13 -50 44 -78t72 -28q47 0 94 22.5t73 68.5q8 12 13 12q6 0 15 -7.5t11 -13.5zM414 534q7 -7 0.5 -14.5t-14.5 -1.5l-125 99l-125 -99q-7 -6 -13.5 1t-1.5 15l132 144q7 8 15 0z" />
    <glyph glyph-name="Cdotaccent" unicode="&#x10a;" horiz-adv-x="778" 
d="M693 240v-16t-4.5 -34t-12.5 -45q-28 -72 -94 -119t-150 -47q-115 0 -210.5 74.5t-127.5 198.5q-29 113 9.5 218.5t125.5 169.5t195 64q109 0 189 -87l47 76q6 11 15 11q13 0 18 -12v-14v-241q0 -14 -3 -17t-14 -3q-19 0 -22 13q0 1 -1 8.5t-3 20t-5 23.5
q-22 82 -75.5 135.5t-129.5 53.5q-66 0 -125 -36t-94 -99q-27 -50 -36.5 -116.5t-5.5 -115.5t13 -86q26 -102 95 -154t147 -52q36 0 71.5 13t68.5 39t55 72.5t25 106.5q0 10 16 10q19 0 23 -13zM482 821q7 -26 -9.5 -45.5t-41.5 -19.5q-19 0 -36 12.5t-22 33.5q-7 25 9 45
t42 20q17 0 34.5 -11t23.5 -35z" />
    <glyph glyph-name="cdotaccent" unicode="&#x10b;" horiz-adv-x="500" 
d="M483 100q1 -5 -5 -17t-22 -28t-38 -30.5t-58 -24.5t-77 -10q-73 0 -130.5 46.5t-76.5 122.5q-27 109 35 195.5t162 86.5q53 0 92 -24t48 -62q8 -28 -3.5 -44t-32.5 -16q-18 0 -30 10t-15 23q1 3 -1.5 12t6 21t26.5 16q-29 36 -83 36q-33 0 -66.5 -24t-50.5 -80
q-10 -34 -10.5 -91.5t8.5 -93.5q13 -50 44 -78t72 -28q47 0 94 22.5t73 68.5q8 12 13 12q6 0 15 -7.5t11 -13.5zM330 608q7 -26 -9.5 -45.5t-42.5 -19.5q-19 0 -35.5 12.5t-22.5 33.5q-6 25 10 45t42 20q17 0 34.5 -11t23.5 -35z" />
    <glyph glyph-name="Ccaron" unicode="&#x10c;" horiz-adv-x="778" 
d="M693 240v-16t-4.5 -34t-12.5 -45q-28 -72 -94 -119t-150 -47q-115 0 -210.5 74.5t-127.5 198.5q-29 113 9.5 218.5t125.5 169.5t195 64q109 0 189 -87l47 76q6 11 15 11q13 0 18 -12v-14v-241q0 -14 -3 -17t-14 -3q-19 0 -22 13q0 1 -1 8.5t-3 20t-5 23.5
q-22 82 -75.5 135.5t-129.5 53.5q-66 0 -125 -36t-94 -99q-27 -50 -36.5 -116.5t-5.5 -115.5t13 -86q26 -102 95 -154t147 -52q36 0 71.5 13t68.5 39t55 72.5t25 106.5q0 10 16 10q19 0 23 -13zM566 834l-132 -98q-7 -3 -12 0l-133 98q-8 5 -3 13.5t14 4.5l126 -55l129 55
q8 4 13 -4.5t-2 -13.5z" />
    <glyph glyph-name="ccaron" unicode="&#x10d;" horiz-adv-x="500" 
d="M483 100q1 -5 -5 -17t-22 -28t-38 -30.5t-58 -24.5t-77 -10q-73 0 -130.5 46.5t-76.5 122.5q-27 109 35 195.5t162 86.5q53 0 92 -24t48 -62q8 -28 -3.5 -44t-32.5 -16q-18 0 -30 10t-15 23q1 3 -1.5 12t6 21t26.5 16q-29 36 -83 36q-33 0 -66.5 -24t-50.5 -80
q-10 -34 -10.5 -91.5t8.5 -93.5q13 -50 44 -78t72 -28q47 0 94 22.5t73 68.5q8 12 13 12q6 0 15 -7.5t11 -13.5zM414 663l-131 -144q-7 -7 -15 0l-132 144q-7 7 -0.5 14.5t14.5 1.5l124 -99l125 99q8 6 15 -1.5t0 -14.5z" />
    <glyph glyph-name="Dcaron" unicode="&#x10e;" horiz-adv-x="819" 
d="M723 432q28 -110 -5.5 -211t-112 -161t-177.5 -60h-323q-28 0 -32 14q-3 13 3.5 16t25.5 3q44 0 55 8t11 35v537q0 16 -2 22q-3 15 -59 15q-30 0 -33 14q-3 13 2.5 16t21.5 3h330q104 0 185.5 -70t109.5 -181zM630 466q-23 91 -85.5 137.5t-140.5 46.5h-117q-25 0 -32 -5
t-7 -30v-553q0 -6 0.5 -10t1.5 -8.5t1 -8.5q10 -2 29 -2h124q74 0 129.5 36.5t82.5 98.5t27.5 162t-13.5 136zM483 834l-132 -98q-7 -3 -12 0l-133 98q-8 5 -3 13.5t14 4.5l126 -55l129 55q8 4 13 -4.5t-2 -13.5z" />
    <glyph glyph-name="dcaron" unicode="&#x10f;" 
d="M546 143q2 -60 -9 -100q-15 -53 -65 -53q-35 0 -64 19.5t-44 48.5q-16 -25 -45 -46.5t-68 -21.5q-58 0 -107 44.5t-68 115.5q-27 107 26 199t143 92q59 0 107 -56v228q0 17 -1 22q-2 6 -4 8.5t-14 4.5t-35 2q-26 0 -30 14q-2 8 1 12.5t7 5.5t13 2l103 9q26 2 30 -13v-15
v-574q0 -11 6 -29q11 -44 39 -44q41 0 40 110q0 20 2 24t15 4q19 0 22 -13zM352 133v171v14q-38 95 -100 95q-25 0 -50 -21.5t-40 -71.5q-10 -34 -10 -104.5t9 -106.5t31 -63.5t55 -27.5q40 0 73 42t32 73zM549 647q10 -42 -4 -87t-33.5 -70t-27.5 -25q-10 0 -14 12
q-1 3 5 9q56 56 55 133q-10 -8 -26 -8q-35 0 -44 33q-4 18 6.5 34t32.5 16q38 0 50 -47z" />
    <glyph glyph-name="Dcroat" unicode="&#x110;" horiz-adv-x="819" 
d="M723 432q28 -110 -5.5 -211t-112 -161t-177.5 -60h-323q-28 0 -32 14q-3 13 3.5 16t25.5 3q44 0 54 8t10 35v250h-94q-6 0 -11.5 5t-4.5 11q0 7 5 11.5t11 4.5h96v255l-2 22q-3 15 -59 15q-30 0 -33 14q-3 13 2.5 16t21.5 3h330q104 0 185.5 -70t109.5 -181zM630 466
q-23 91 -85.5 137.5t-140.5 46.5h-117q-25 0 -31 -5t-6 -30v-257h160q16 0 16 -16t-16 -16h-160v-264v-27q11 -2 30 -2h124q74 0 129.5 36.5t82.5 98.5t27.5 162t-13.5 136z" />
    <glyph glyph-name="dcroat" unicode="&#x111;" 
d="M546 143q2 -60 -9 -100q-15 -53 -65 -53q-35 0 -64 19.5t-44 48.5q-16 -25 -45 -46.5t-68 -21.5q-58 0 -107 44.5t-68 115.5q-27 107 26 199t143 92q59 0 107 -56v146h-130q-6 0 -11 4.5t-5 11.5q0 6 5 11t11 5h130v50q0 17 -1 22q-2 6 -4 8.5t-14 4.5t-35 2
q-26 0 -30 14q-2 8 1 12.5t7 5.5t13 2l103 9q26 2 30 -13q1 -4 1 -15l1 -102h51q7 0 11.5 -5t4.5 -11q1 -7 -4 -11.5t-12 -4.5h-51v-440q0 -17 4 -29q11 -44 39 -44q41 0 40 110q0 20 2 24t15 4q19 0 22 -13zM352 133l-1 171v14q-4 12 -12.5 30t-33 41.5t-53.5 23.5
q-25 0 -50 -21.5t-40 -71.5q-10 -34 -10 -104.5t9 -106.5t31 -63.5t55 -27.5q40 0 73 42t32 73z" />
    <glyph glyph-name="Emacron" unicode="&#x112;" horiz-adv-x="736" 
d="M679 246q1 -7 -1 -17l-39 -211q-2 -13 -6 -15.5t-20 -2.5h-509q-28 0 -32 14q-3 13 3.5 16t25.5 3q44 0 55 8t11 35v533q0 15 -2 22q-3 11 -16.5 13.5t-42.5 2.5q-12 0 -17.5 0.5t-10 4t-6.5 10.5q-3 12 3 15t22 3h494q29 0 32 -14l3 -14l24 -175q2 -13 0 -18.5t-14 -5.5
q-20 0 -24 16q0 3 -1 8t-1 7q-3 31 -10 58q-15 60 -50.5 82.5t-118.5 22.5h-142q-26 0 -32.5 -5t-6.5 -31l1 -241h91q61 0 80.5 17.5t20.5 74.5q0 12 0.5 16t4 6.5t11.5 2.5q19 0 23 -15q0 -1 0.5 -2.5t0 -3t0 -5t0.5 -7.5v-213q0 -13 -2.5 -17t-13.5 -4q-19 0 -23 14
q-2 5 0 14q0 24 -5 47q-6 22 -23 32t-67 10h-98v-275q0 -5 2 -27q10 -2 29 -2h144q49 0 83 8.5t55 22.5t35.5 42t22 55.5t16.5 75.5q5 20 9 22q2 1 9 1q19 0 23 -14zM548 776q3 -10 -0.5 -15t-8.5 -6t-17 -1h-302q-28 0 -32 14q0 8 -0.5 12.5t4.5 6.5t8.5 2.5t12.5 0.5h302
q29 0 33 -14z" />
    <glyph glyph-name="emacron" unicode="&#x113;" horiz-adv-x="500" 
d="M483 100q1 -5 -5 -17t-22 -28t-38 -30.5t-58 -24.5t-77 -10q-76 0 -131.5 53t-74.5 127q-30 123 36 197t159 74q51 0 88.5 -24.5t47.5 -62.5q7 -30 -0.5 -53t-29 -36t-42.5 -21t-51 -11.5t-44 -4t-31 -0.5h-58q0 -58 10 -96q11 -43 39.5 -78.5t75.5 -35.5t94 22.5
t73 68.5q8 12 13 12q6 0 15 -7.5t11 -13.5zM363 354q-7 28 -31 43.5t-53 15.5q-19 0 -38.5 -7.5t-40 -24t-33.5 -49t-14 -76.5h41q16 0 28 0.5t37.5 3t43 9t35.5 16.5t24.5 28t0.5 41zM430 603q3 -10 -0.5 -15t-8.5 -6t-17 -1h-302q-28 0 -32 14q0 8 -0.5 12.5t4.5 6.5
t8.5 2.5t12.5 0.5h302q29 0 33 -14z" />
    <glyph glyph-name="Ebreve" unicode="&#x114;" horiz-adv-x="736" 
d="M679 246q1 -7 -1 -17l-39 -211q-2 -13 -6 -15.5t-20 -2.5h-509q-28 0 -32 14q-3 13 3.5 16t25.5 3q44 0 55 8t11 35v533q0 15 -2 22q-3 11 -16.5 13.5t-42.5 2.5q-12 0 -17.5 0.5t-10 4t-6.5 10.5q-3 12 3 15t22 3h494q29 0 32 -14l3 -14l24 -175q2 -13 0 -18.5t-14 -5.5
q-20 0 -24 16q0 3 -1 8t-1 7q-3 31 -10 58q-15 60 -50.5 82.5t-118.5 22.5h-142q-26 0 -32.5 -5t-6.5 -31l1 -241h91q61 0 80.5 17.5t20.5 74.5q0 12 0.5 16t4 6.5t11.5 2.5q19 0 23 -15q0 -1 0.5 -2.5t0 -3t0 -5t0.5 -7.5v-213q0 -13 -2.5 -17t-13.5 -4q-19 0 -23 14
q-2 5 0 14q0 24 -5 47q-6 22 -23 32t-67 10h-98v-275q0 -5 2 -27q10 -2 29 -2h144q49 0 83 8.5t55 22.5t35.5 42t22 55.5t16.5 75.5q5 20 9 22q2 1 9 1q19 0 23 -14zM519 905q5 -21 -7 -57t-49.5 -70t-91.5 -34q-55 0 -97 35t-55 88q-13 52 6 52q15 0 18 -15l1 -11
q1 -11 3 -19q10 -39 42 -63.5t75 -24.5q16 0 33.5 5t38.5 17t36.5 37.5t18.5 60.5q0 13 11 13q14 0 17 -14z" />
    <glyph glyph-name="ebreve" unicode="&#x115;" horiz-adv-x="500" 
d="M483 100q1 -5 -5 -17t-22 -28t-38 -30.5t-58 -24.5t-77 -10q-76 0 -131.5 53t-74.5 127q-30 123 36 197t159 74q51 0 88.5 -24.5t47.5 -62.5q7 -30 -0.5 -53t-29 -36t-42.5 -21t-51 -11.5t-44 -4t-31 -0.5h-58q0 -58 10 -96q11 -43 39.5 -78.5t75.5 -35.5t94 22.5
t73 68.5q8 12 13 12q6 0 15 -7.5t11 -13.5zM363 354q-7 28 -31 43.5t-53 15.5q-19 0 -38.5 -7.5t-40 -24t-33.5 -49t-14 -76.5h41q16 0 28 0.5t37.5 3t43 9t35.5 16.5t24.5 28t0.5 41zM401 672q5 -21 -7 -57t-49.5 -70t-91.5 -34q-55 0 -97 35t-55 88q-13 52 6 52
q15 0 18 -15l1 -11q1 -11 3 -19q10 -39 42 -63.5t75 -24.5q16 0 33.5 5t38.5 17t36.5 37.5t18.5 60.5q0 13 11 13q14 0 17 -14z" />
    <glyph glyph-name="Edotaccent" unicode="&#x116;" horiz-adv-x="736" 
d="M679 246q1 -7 -1 -17l-39 -211q-2 -13 -6 -15.5t-20 -2.5h-509q-28 0 -32 14q-3 13 3.5 16t25.5 3q44 0 55 8t11 35v533q0 15 -2 22q-3 11 -16.5 13.5t-42.5 2.5q-12 0 -17.5 0.5t-10 4t-6.5 10.5q-3 12 3 15t22 3h494q29 0 32 -14l3 -14l24 -175q2 -13 0 -18.5t-14 -5.5
q-20 0 -24 16q0 3 -1 8t-1 7q-3 31 -10 58q-15 60 -50.5 82.5t-118.5 22.5h-142q-26 0 -32.5 -5t-6.5 -31l1 -241h91q61 0 80.5 17.5t20.5 74.5q0 12 0.5 16t4 6.5t11.5 2.5q19 0 23 -15q0 -1 0.5 -2.5t0 -3t0 -5t0.5 -7.5v-213q0 -13 -2.5 -17t-13.5 -4q-19 0 -23 14
q-2 5 0 14q0 24 -5 47q-6 22 -23 32t-67 10h-98v-275q0 -5 2 -27q10 -2 29 -2h144q49 0 83 8.5t55 22.5t35.5 42t22 55.5t16.5 75.5q5 20 9 22q2 1 9 1q19 0 23 -14zM422 821q7 -26 -9.5 -45.5t-41.5 -19.5q-19 0 -36 12.5t-22 33.5q-7 25 9 45t42 20q17 0 34.5 -11
t23.5 -35z" />
    <glyph glyph-name="edotaccent" unicode="&#x117;" horiz-adv-x="500" 
d="M483 100q1 -5 -5 -17t-22 -28t-38 -30.5t-58 -24.5t-77 -10q-76 0 -131.5 53t-74.5 127q-30 123 36 197t159 74q51 0 88.5 -24.5t47.5 -62.5q7 -30 -0.5 -53t-29 -36t-42.5 -21t-51 -11.5t-44 -4t-31 -0.5h-58q0 -58 10 -96q11 -43 39.5 -78.5t75.5 -35.5t94 22.5
t73 68.5q8 12 13 12q6 0 15 -7.5t11 -13.5zM363 354q-7 28 -31 43.5t-53 15.5q-19 0 -38.5 -7.5t-40 -24t-33.5 -49t-14 -76.5h41q16 0 28 0.5t37.5 3t43 9t35.5 16.5t24.5 28t0.5 41zM305 608q7 -26 -9.5 -45.5t-42.5 -19.5q-19 0 -35.5 12.5t-22.5 33.5q-6 25 10 45t42 20
q17 0 34.5 -11t23.5 -35z" />
    <glyph glyph-name="Eogonek" unicode="&#x118;" horiz-adv-x="736" 
d="M679 246q1 -7 -1 -17l-39 -211q-2 -13 -6 -15.5t-20 -2.5h-81q-74 -51 -73 -95q1 -32 30 -50.5t61 -18.5q53 0 76 56q3 8 11 5t7 -12q-10 -42 -44 -69t-73 -27q-47 0 -80 27t-35 63q-3 75 79 121h-387q-28 0 -32 14q-3 13 3.5 16t25.5 3q44 0 55 8t11 35v533q0 15 -2 22
q-3 11 -16.5 13.5t-42.5 2.5q-12 0 -17.5 0.5t-10 4t-6.5 10.5q-3 12 3 15t22 3h494q29 0 32 -14l3 -14l24 -175q2 -13 0 -18.5t-14 -5.5q-20 0 -24 16q0 3 -1 8t-1 7q-3 31 -10 58q-15 60 -50.5 82.5t-118.5 22.5h-142q-26 0 -32.5 -5t-6.5 -31l1 -241h91q61 0 80.5 17.5
t20.5 74.5q0 12 0.5 16t4 6.5t11.5 2.5q19 0 23 -15q0 -1 0.5 -2.5t0 -3t0 -5t0.5 -7.5v-213q0 -13 -2.5 -17t-13.5 -4q-19 0 -23 14q-2 5 0 14q0 24 -5 47q-6 22 -23 32t-67 10h-98v-275q0 -5 2 -27q10 -2 29 -2h144q49 0 83 8.5t55 22.5t35.5 42t22 55.5t16.5 75.5
q5 20 9 22q2 1 9 1q19 0 23 -14z" />
    <glyph glyph-name="eogonek" unicode="&#x119;" horiz-adv-x="500" 
d="M483 100q2 -7 -8.5 -24t-39 -39t-66.5 -34q-73 -50 -72 -98q1 -32 30 -50.5t61 -18.5q53 0 76 56q3 8 11 5t7 -12q-10 -42 -44 -69t-73 -27q-47 0 -80 27t-35 63q-1 63 65 113q-20 -2 -32 -2q-76 0 -131.5 53t-74.5 127q-30 123 36 197t159 74q51 0 88.5 -24.5
t47.5 -62.5q7 -30 -0.5 -53t-29 -36t-42.5 -21t-51 -11.5t-44 -4t-31 -0.5h-58q0 -58 10 -96q11 -43 39.5 -78.5t75.5 -35.5t94 22.5t73 68.5q8 12 13 12q6 0 15 -7.5t11 -13.5zM363 354q-7 28 -31 43.5t-53 15.5q-19 0 -38.5 -7.5t-40 -24t-33.5 -49t-14 -76.5h41
q16 0 28 0.5t37.5 3t43 9t35.5 16.5t24.5 28t0.5 41z" />
    <glyph glyph-name="Ecaron" unicode="&#x11a;" horiz-adv-x="736" 
d="M679 246q1 -7 -1 -17l-39 -211q-2 -13 -6 -15.5t-20 -2.5h-509q-28 0 -32 14q-3 13 3.5 16t25.5 3q44 0 55 8t11 35v533q0 15 -2 22q-3 11 -16.5 13.5t-42.5 2.5q-12 0 -17.5 0.5t-10 4t-6.5 10.5q-3 12 3 15t22 3h494q29 0 32 -14l3 -14l24 -175q2 -13 0 -18.5t-14 -5.5
q-20 0 -24 16q0 3 -1 8t-1 7q-3 31 -10 58q-15 60 -50.5 82.5t-118.5 22.5h-142q-26 0 -32.5 -5t-6.5 -31l1 -241h91q61 0 80.5 17.5t20.5 74.5q0 12 0.5 16t4 6.5t11.5 2.5q19 0 23 -15q0 -1 0.5 -2.5t0 -3t0 -5t0.5 -7.5v-213q0 -13 -2.5 -17t-13.5 -4q-19 0 -23 14
q-2 5 0 14q0 24 -5 47q-6 22 -23 32t-67 10h-98v-275q0 -5 2 -27q10 -2 29 -2h144q49 0 83 8.5t55 22.5t35.5 42t22 55.5t16.5 75.5q5 20 9 22q2 1 9 1q19 0 23 -14zM506 834l-132 -98q-7 -3 -12 0l-133 98q-8 5 -3 13.5t14 4.5l126 -55l129 55q8 4 13 -4.5t-2 -13.5z" />
    <glyph glyph-name="ecaron" unicode="&#x11b;" horiz-adv-x="500" 
d="M483 100q1 -5 -5 -17t-22 -28t-38 -30.5t-58 -24.5t-77 -10q-76 0 -131.5 53t-74.5 127q-30 123 36 197t159 74q51 0 88.5 -24.5t47.5 -62.5q7 -30 -0.5 -53t-29 -36t-42.5 -21t-51 -11.5t-44 -4t-31 -0.5h-58q0 -58 10 -96q11 -43 39.5 -78.5t75.5 -35.5t94 22.5
t73 68.5q8 12 13 12q6 0 15 -7.5t11 -13.5zM363 354q-7 28 -31 43.5t-53 15.5q-19 0 -38.5 -7.5t-40 -24t-33.5 -49t-14 -76.5h41q16 0 28 0.5t37.5 3t43 9t35.5 16.5t24.5 28t0.5 41zM389 663l-131 -144q-8 -7 -15 0l-132 144q-7 7 -0.5 14.5t14.5 1.5l124 -99l125 99
q8 6 15 -1.5t0 -14.5z" />
    <glyph glyph-name="Gcircumflex" unicode="&#x11c;" horiz-adv-x="840" 
d="M762 262q5 -19 -13 -19q-48 0 -53 -14q-3 -9 -3 -78q0 -141 -1 -144q0 -3 -2 -5t-4 -2h-2q-18 0 -54 55q-59 -76 -196 -76q-119 0 -214 75.5t-126 197.5q-29 113 9.5 218.5t125.5 169.5t195 64q109 0 189 -87l47 76q6 11 15 11q13 0 18 -12v-14v-241q0 -14 -3 -17t-14 -3
q-19 0 -22 13q0 1 -1 8.5t-3 20t-5 23.5q-22 82 -75.5 135.5t-129.5 53.5q-66 0 -125 -36t-94 -99q-26 -49 -35.5 -115.5t-6 -116t12.5 -85.5q25 -100 94.5 -153.5t154.5 -53.5q54 0 103.5 22t62.5 68q3 14 2.5 64t-1.5 57q-2 10 -8 13t-26 5l-47 2h-10q-29 0 -32 14
q-2 9 1 13.5t6.5 5t9.5 0.5q21 0 66.5 -1.5t68.5 -1.5q33 0 55.5 0.5t30.5 1t13 1t7 0.5q7 0 12.5 -4.5t6.5 -9.5zM557 753q8 -5 3.5 -13.5t-12.5 -4.5l-128 55l-128 -55q-9 -4 -14 4.5t3 13.5l133 98q3 3 12 0z" />
    <glyph glyph-name="gcircumflex" unicode="&#x11d;" horiz-adv-x="500" 
d="M422 -66q0 -55 -45.5 -96.5t-135.5 -41.5q-59 0 -96.5 11.5t-46.5 46.5q-6 24 5 39t32 15q16 0 28.5 -9.5t16.5 -24.5q5 -28 -15 -42q29 -8 71 -8q63 0 94 44q15 22 18.5 42t3.5 56v84q-45 -50 -101 -50q-57 0 -106.5 42.5t-68.5 115.5q-26 106 27 194.5t142 88.5
q60 0 106 -54q0 15 9 25t24 10q13 0 24 -8t14 -20v-21v-439zM352 141v165q-5 31 -32 69t-68 38q-30 0 -55.5 -26.5t-37.5 -72.5q-8 -34 -7.5 -99t9.5 -97q9 -37 32 -63.5t53 -26.5q41 0 73.5 40.5t32.5 72.5zM404 534q7 -7 0.5 -14.5t-14.5 -1.5l-125 99l-125 -99
q-7 -6 -13.5 1t-1.5 15l132 144q7 8 15 0z" />
    <glyph glyph-name="Gbreve" unicode="&#x11e;" horiz-adv-x="840" 
d="M762 262q5 -19 -13 -19q-48 0 -53 -14q-3 -9 -3 -78q0 -141 -1 -144q0 -3 -2 -5t-4 -2h-2q-18 0 -54 55q-59 -76 -196 -76q-119 0 -214 75.5t-126 197.5q-29 113 9.5 218.5t125.5 169.5t195 64q109 0 189 -87l47 76q6 11 15 11q13 0 18 -12v-14v-241q0 -14 -3 -17t-14 -3
q-19 0 -22 13q0 1 -1 8.5t-3 20t-5 23.5q-22 82 -75.5 135.5t-129.5 53.5q-66 0 -125 -36t-94 -99q-26 -49 -35.5 -115.5t-6 -116t12.5 -85.5q25 -100 94.5 -153.5t154.5 -53.5q54 0 103.5 22t62.5 68q3 14 2.5 64t-1.5 57q-2 10 -8 13t-26 5l-47 2h-10q-29 0 -32 14
q-2 9 1 13.5t6.5 5t9.5 0.5q21 0 66.5 -1.5t68.5 -1.5q33 0 55.5 0.5t30.5 1t13 1t7 0.5q7 0 12.5 -4.5t6.5 -9.5zM571 905q5 -21 -7 -57t-49.5 -70t-91.5 -34q-55 0 -97 35t-55 88q-13 52 6 52q15 0 18 -15l1 -11q1 -11 3 -19q10 -39 42 -63.5t75 -24.5q16 0 33.5 5
t38.5 17t36.5 37.5t18.5 60.5q0 13 11 13q14 0 17 -14z" />
    <glyph glyph-name="gbreve" unicode="&#x11f;" horiz-adv-x="500" 
d="M422 -66q0 -55 -45.5 -96.5t-135.5 -41.5q-59 0 -96.5 11.5t-46.5 46.5q-6 24 5 39t32 15q16 0 28.5 -9.5t16.5 -24.5q5 -28 -15 -42q29 -8 71 -8q63 0 94 44q15 22 18.5 42t3.5 56v84q-45 -50 -101 -50q-57 0 -106.5 42.5t-68.5 115.5q-26 106 27 194.5t142 88.5
q60 0 106 -54q0 15 9 25t24 10q13 0 24 -8t14 -20v-21v-439zM352 141v165q-5 31 -32 69t-68 38q-30 0 -55.5 -26.5t-37.5 -72.5q-8 -34 -7.5 -99t9.5 -97q9 -37 32 -63.5t53 -26.5q41 0 73.5 40.5t32.5 72.5zM416 672q5 -21 -7 -57t-49.5 -70t-91.5 -34q-55 0 -97 35t-55 88
q-13 52 6 52q15 0 18 -15l1 -11q1 -11 3 -19q10 -39 42 -63.5t75 -24.5q16 0 33.5 5t38.5 17t36.5 37.5t18.5 60.5q0 13 11 13q13 0 17 -14z" />
    <glyph glyph-name="Gdotaccent" unicode="&#x120;" horiz-adv-x="840" 
d="M762 262q5 -19 -13 -19q-48 0 -53 -14q-3 -9 -3 -78q0 -141 -1 -144q0 -3 -2 -5t-4 -2h-2q-18 0 -54 55q-59 -76 -196 -76q-119 0 -214 75.5t-126 197.5q-29 113 9.5 218.5t125.5 169.5t195 64q109 0 189 -87l47 76q6 11 15 11q13 0 18 -12v-14v-241q0 -14 -3 -17t-14 -3
q-19 0 -22 13q0 1 -1 8.5t-3 20t-5 23.5q-22 82 -75.5 135.5t-129.5 53.5q-66 0 -125 -36t-94 -99q-26 -49 -35.5 -115.5t-6 -116t12.5 -85.5q25 -100 94.5 -153.5t154.5 -53.5q54 0 103.5 22t62.5 68q3 14 2.5 64t-1.5 57q-2 10 -8 13t-26 5l-47 2h-10q-29 0 -32 14
q-2 9 1 13.5t6.5 5t9.5 0.5q21 0 66.5 -1.5t68.5 -1.5q33 0 55.5 0.5t30.5 1t13 1t7 0.5q7 0 12.5 -4.5t6.5 -9.5zM474 821q7 -26 -9.5 -45.5t-41.5 -19.5q-19 0 -36 12.5t-22 33.5q-7 25 9 45t42 20q17 0 34.5 -11t23.5 -35z" />
    <glyph glyph-name="gdotaccent" unicode="&#x121;" horiz-adv-x="500" 
d="M422 -66q0 -55 -45.5 -96.5t-135.5 -41.5q-59 0 -96.5 11.5t-46.5 46.5q-6 24 5 39t32 15q16 0 28.5 -9.5t16.5 -24.5q5 -28 -15 -42q29 -8 71 -8q63 0 94 44q15 22 18.5 42t3.5 56v84q-45 -50 -101 -50q-57 0 -106.5 42.5t-68.5 115.5q-26 106 27 194.5t142 88.5
q60 0 106 -54q0 15 9 25t24 10q13 0 24 -8t14 -20v-21v-439zM352 141v165q-5 31 -32 69t-68 38q-30 0 -55.5 -26.5t-37.5 -72.5q-8 -34 -7.5 -99t9.5 -97q9 -37 32 -63.5t53 -26.5q41 0 73.5 40.5t32.5 72.5zM320 608q7 -26 -9.5 -45.5t-42.5 -19.5q-19 0 -35.5 12.5
t-22.5 33.5q-6 25 10 45t42 20q17 0 34.5 -11t23.5 -35z" />
    <glyph glyph-name="Gcommaaccent" unicode="&#x122;" horiz-adv-x="840" 
d="M762 262q5 -19 -13 -19q-48 0 -53 -14q-3 -9 -3 -78q0 -141 -1 -144q0 -3 -2 -5t-4 -2h-2q-18 0 -54 55q-59 -76 -196 -76q-119 0 -214 75.5t-126 197.5q-29 113 9.5 218.5t125.5 169.5t195 64q109 0 189 -87l47 76q6 11 15 11q13 0 18 -12v-14v-241q0 -14 -3 -17t-14 -3
q-19 0 -22 13q0 1 -1 8.5t-3 20t-5 23.5q-22 82 -75.5 135.5t-129.5 53.5q-66 0 -125 -36t-94 -99q-26 -49 -35.5 -115.5t-6 -116t12.5 -85.5q25 -100 94.5 -153.5t154.5 -53.5q54 0 103.5 22t62.5 68q3 14 2.5 64t-1.5 57q-2 10 -8 13t-26 5l-47 2h-10q-29 0 -32 14
q-2 9 1 13.5t6.5 5t9.5 0.5q21 0 66.5 -1.5t68.5 -1.5q33 0 55.5 0.5t30.5 1t13 1t7 0.5q7 0 12.5 -4.5t6.5 -9.5zM463 -110q10 -42 -4 -87t-33.5 -70t-27.5 -25q-10 0 -14 12q-1 3 5 9q56 56 55 133q-10 -8 -26 -8q-35 0 -44 33q-4 18 6.5 34t32.5 16q38 0 50 -47z" />
    <glyph glyph-name="gcommaaccent" unicode="&#x123;" horiz-adv-x="500" 
d="M311 557q4 -18 -6.5 -34t-32.5 -16q-38 0 -50 47q-10 42 4 87t33.5 70t27.5 25q10 0 14 -12q1 -3 -5 -9q-56 -56 -55 -133q10 8 26 8q35 0 44 -33zM422 -66q0 -55 -45.5 -96.5t-135.5 -41.5q-59 0 -96.5 11.5t-46.5 46.5q-6 24 5 39t32 15q16 0 28.5 -9.5t16.5 -24.5
q5 -28 -15 -42q29 -8 71 -8q63 0 94 44q15 22 18.5 42t3.5 56v84q-45 -50 -101 -50q-57 0 -106.5 42.5t-68.5 115.5q-26 106 27 194.5t142 88.5q60 0 106 -54q0 15 9 25t24 10q13 0 24 -8t14 -20v-21v-439zM352 141v165q-5 31 -32 69t-68 38q-30 0 -55.5 -26.5t-37.5 -72.5
q-8 -34 -7.5 -99t9.5 -97q9 -37 32 -63.5t53 -26.5q41 0 73.5 40.5t32.5 72.5z" />
    <glyph glyph-name="Hcircumflex" unicode="&#x124;" horiz-adv-x="806" 
d="M733 669q3 -13 -3 -16t-24 -3q-46 0 -57 -8t-11 -38v-532v-23q6 -16 61 -16q30 0 33 -14q5 -19 -15 -19q-1 0 -6 0.5t-14 1t-22 0.5t-33.5 0.5t-44.5 0.5h-61q-24 -3 -57 -3q-15 0 -19 14q-3 13 2.5 16t20.5 3q49 0 60 7t11 36v263h-304v-268v-22q6 -16 62 -16
q29 0 33 -14q4 -19 -16 -19q-1 0 -6 0.5t-14 1t-22 0.5t-33.5 0.5t-44.5 0.5h-61q-24 -3 -57 -3q-15 0 -19 14q-3 13 3.5 16t25.5 3q44 0 54.5 8t10.5 35v537v22q-4 15 -60 15q-30 0 -33 14q-5 19 15 19l60 -3h120q54 3 57 3q17 0 20 -14q3 -13 -3 -16t-26 -3q-44 0 -55 -8
t-11 -35v-235h304v242v21q-5 15 -60 15q-31 0 -34 14q-5 19 16 19l60 -3h120q54 3 57 3q17 0 20 -14zM540 753q8 -5 3.5 -13.5t-12.5 -4.5l-128 55l-128 -55q-9 -4 -14 4.5t3 13.5l133 98q3 3 12 0z" />
    <glyph glyph-name="hcircumflex" unicode="&#x125;" 
d="M546 143q2 -7 -1 -30t-11.5 -51.5t-31.5 -50t-56 -21.5q-38 0 -67.5 24t-38.5 59q-5 19 0 52q20 166 6 222q-17 66 -69 66q-38 0 -66 -20t-41 -48.5t-18.5 -50.5t-5.5 -35v-65q0 -176 -1 -179q-1 -11 -9.5 -18t-20.5 -7q-15 0 -27.5 9t-12.5 20v616q-2 6 -4.5 8.5
t-14 4.5t-34.5 2q-27 0 -30 14q-4 9 0 13t7.5 5t12.5 2l103 9q27 2 30 -13v-306q51 67 128 67q115 0 143 -108q13 -51 -6 -219q-4 -43 1 -64q7 -32 30 -32q31 0 47.5 32.5t18.5 84.5q0 14 2.5 17.5t14.5 3.5q19 0 22 -13zM415 764q8 -5 3.5 -13.5t-12.5 -4.5l-128 55
l-128 -55q-9 -4 -14 4.5t3 13.5l133 98q3 3 12 0z" />
    <glyph glyph-name="Hbar" unicode="&#x126;" horiz-adv-x="806" 
d="M733 669q3 -13 -3 -16t-24 -3q-46 0 -57 -8t-11 -38v-75h77q7 0 11.5 -5t4.5 -11q0 -16 -16 -16h-77v-425v-23q6 -16 61 -16q30 0 33 -14q5 -19 -15 -19q-1 0 -6 0.5t-14 1t-22 0.5t-33.5 0.5t-44.5 0.5h-61q-24 -3 -57 -3q-15 0 -19 14q-3 13 2.5 16t20.5 3l71 43v263
h-304v-268v-22q6 -16 62 -16q29 0 33 -14q4 -19 -16 -19q-1 0 -6 0.5t-14 1t-22 0.5t-33.5 0.5t-44.5 0.5h-61q-24 -3 -57 -3q-15 0 -19 14q-3 13 3.5 16t25.5 3q44 0 54.5 8t10.5 35v421h-76q-6 0 -11 4.5t-5 11.5q0 6 5 11t11 5h76v84v22q-4 15 -60 15q-30 0 -33 14
q-5 19 15 19l60 -3h120q54 3 57 3q17 0 20 -14q3 -13 -3 -16t-26 -3q-44 0 -55 -8t-11 -35v-78h304v85v21q-5 15 -60 15q-31 0 -34 14q-5 19 16 19l60 -3h120q54 3 57 3q17 0 20 -14zM555 372v125h-304v-125h304z" />
    <glyph glyph-name="hbar" unicode="&#x127;" 
d="M546 143q2 -7 -1 -30t-11.5 -51.5t-31.5 -50t-56 -21.5q-38 0 -67.5 24t-38.5 59q-5 19 0 52q20 166 6 222q-17 66 -69 66q-38 0 -66 -20t-41 -48.5t-19 -50.5t-6 -35v-65v-179q-1 -11 -9.5 -18t-20.5 -7q-15 0 -27.5 9t-12.5 20v15v497h-48q-15 0 -17 16q0 6 5 11t12 5
h48v50v22q-2 6 -4.5 8.5t-14 4.5t-34.5 2q-27 0 -30 14q-4 9 0 13t7.5 5t12.5 2l103 9q27 2 30 -13v-15v-102h133q7 0 11.5 -5t4.5 -11q0 -16 -16 -16h-133v-157q51 67 128 67q115 0 143 -108q13 -51 -6 -219q-4 -43 1 -64q7 -32 30 -32q31 0 47.5 32.5t18.5 84.5
q0 14 2.5 17.5t14.5 3.5q19 0 22 -13z" />
    <glyph glyph-name="Itilde" unicode="&#x128;" horiz-adv-x="417" 
d="M350 19q4 -19 -17 -19q-23 0 -59 3h-130q-48 -3 -57 -3q-17 0 -20 14q-3 13 3 16t23 3q51 0 62.5 7.5t10.5 36.5v540v18q-4 15 -64 15q-17 0 -24.5 2t-9.5 12q-5 19 15 19q1 0 13.5 -0.5t42 -1.5t70.5 -1h64q36 3 57 3q7 0 11.5 -3.5t6.5 -7.5l1 -3q3 -13 -3 -16t-24 -3
q-49 0 -60.5 -8t-11.5 -35v-536q0 -16 2 -22q4 -16 64 -16q30 0 34 -14zM376 828q3 -11 -41 -53q-38 -41 -74 -41q-31 0 -64 38q-27 29 -43 29q-29 0 -81 -59q-6 -8 -13 -8q-12 0 -16 14q-3 10 40 53q41 41 74 41q20 0 35 -10.5t35 -33.5q22 -23 37 -23q7 0 15.5 3.5
t15.5 8.5t15.5 12t13.5 12t11.5 12t7.5 8q7 11 14 11q14 0 18 -14z" />
    <glyph glyph-name="itilde" unicode="&#x129;" horiz-adv-x="333" 
d="M323 143q2 -7 -1 -29.5t-11 -51t-30.5 -50.5t-56.5 -22q-38 0 -67.5 24t-38.5 59q-5 22 0 46l24 186q6 54 0 77q-7 31 -30 31q-33 0 -48 -35t-17 -82v-11t-2 -6t-5 -3.5t-9 -0.5q-20 0 -23 13q-2 7 1 29.5t11 51.5t31 50.5t56 21.5q35 0 65 -22t40 -61q5 -21 1 -52
l-23 -174q-7 -59 -1 -82q7 -32 30 -32q31 0 47 32.5t18 84.5q1 10 1.5 13.5t4 5.5t11.5 2q19 0 22 -13zM334 639q3 -11 -41 -53q-38 -41 -74 -41q-31 0 -64 38q-27 29 -43 29q-29 0 -81 -59q-6 -8 -13 -8q-12 0 -16 14q-3 10 40 53q41 41 74 41q20 0 35 -10.5t35 -33.5
q22 -23 37 -23q7 0 15.5 3.5t15.5 8.5t15.5 12t13.5 12t11.5 12t7.5 8q7 11 14 11q14 0 18 -14z" />
    <glyph glyph-name="Imacron" unicode="&#x12a;" horiz-adv-x="417" 
d="M350 19q4 -19 -17 -19q-23 0 -59 3h-130q-48 -3 -57 -3q-17 0 -20 14q-3 13 3 16t23 3q51 0 62.5 7.5t10.5 36.5v540v18q-4 15 -64 15q-17 0 -24.5 2t-9.5 12q-5 19 15 19q1 0 13.5 -0.5t42 -1.5t70.5 -1h64q36 3 57 3q7 0 11.5 -3.5t6.5 -7.5l1 -3q3 -13 -3 -16t-24 -3
q-49 0 -60.5 -8t-11.5 -35v-536q0 -16 2 -22q4 -16 64 -16q30 0 34 -14zM389 776q3 -10 -0.5 -15t-8.5 -6t-17 -1h-302q-28 0 -32 14q0 8 -0.5 12.5t4.5 6.5t8.5 2.5t12.5 0.5h302q29 0 33 -14z" />
    <glyph glyph-name="imacron" unicode="&#x12b;" horiz-adv-x="333" 
d="M323 143q2 -7 -1 -29.5t-11 -51t-30.5 -50.5t-56.5 -22q-38 0 -67.5 24t-38.5 59q-5 22 0 46l24 186q6 54 0 77q-7 31 -30 31q-33 0 -48 -35t-17 -82v-11t-2 -6t-5 -3.5t-9 -0.5q-20 0 -23 13q-2 7 1 29.5t11 51.5t31 50.5t56 21.5q35 0 65 -22t40 -61q5 -21 1 -52
l-23 -174q-7 -59 -1 -82q7 -32 30 -32q31 0 47 32.5t18 84.5q1 10 1.5 13.5t4 5.5t11.5 2q19 0 22 -13zM347 603q3 -10 -0.5 -15t-8.5 -6t-17 -1h-302q-28 0 -32 14q0 8 -0.5 12.5t4.5 6.5t8.5 2.5t12.5 0.5h302q29 0 33 -14z" />
    <glyph glyph-name="Ibreve" unicode="&#x12c;" horiz-adv-x="417" 
d="M350 19q4 -19 -17 -19q-23 0 -59 3h-130q-48 -3 -57 -3q-17 0 -20 14q-3 13 3 16t23 3q51 0 62.5 7.5t10.5 36.5v540v18q-4 15 -64 15q-17 0 -24.5 2t-9.5 12q-5 19 15 19q1 0 13.5 -0.5t42 -1.5t70.5 -1h64q36 3 57 3q7 0 11.5 -3.5t6.5 -7.5l1 -3q3 -13 -3 -16t-24 -3
q-49 0 -60.5 -8t-11.5 -35v-536q0 -16 2 -22q4 -16 64 -16q30 0 34 -14zM360 905q5 -21 -7 -57t-49.5 -70t-91.5 -34q-55 0 -97 35t-55 88q-13 52 6 52q15 0 18 -15l1 -11q1 -11 3 -19q10 -39 42 -63.5t75 -24.5q16 0 33.5 5t38.5 17t36.5 37.5t18.5 60.5q0 13 11 13
q13 0 17 -14z" />
    <glyph glyph-name="ibreve" unicode="&#x12d;" horiz-adv-x="333" 
d="M323 143q2 -7 -1 -29.5t-11 -51t-30.5 -50.5t-56.5 -22q-38 0 -67.5 24t-38.5 59q-5 22 0 46l24 186q6 54 0 77q-7 31 -30 31q-33 0 -48 -35t-17 -82v-11t-2 -6t-5 -3.5t-9 -0.5q-20 0 -23 13q-2 7 1 29.5t11 51.5t31 50.5t56 21.5q35 0 65 -22t40 -61q5 -21 1 -52
l-23 -174q-7 -59 -1 -82q7 -32 30 -32q31 0 47 32.5t18 84.5q1 10 1.5 13.5t4 5.5t11.5 2q19 0 22 -13zM318 672q5 -21 -7 -57t-49.5 -70t-91.5 -34q-55 0 -97 35t-55 88q-13 52 6 52q15 0 18 -15l1 -11q1 -11 3 -19q10 -39 42 -63.5t75 -24.5q16 0 33.5 5t38.5 17
t36.5 37.5t18.5 60.5q0 13 11 13q13 0 17 -14z" />
    <glyph glyph-name="Iogonek" unicode="&#x12e;" horiz-adv-x="417" 
d="M350 -115q-10 -42 -44 -69t-72 -27q-48 0 -81 27t-34 63q-1 65 78 124h-53q-48 -3 -57 -3q-17 0 -20 14q-3 13 3 16t23 3q51 0 62 7.5t11 36.5v540v18q-4 15 -64 15q-17 0 -24.5 2t-9.5 12q-5 19 15 19q1 0 13.5 -0.5t42 -1.5t70.5 -1h64q36 3 57 3q7 0 11.5 -3.5
t6.5 -7.5l1 -3q3 -13 -3 -16t-24 -3q-49 0 -60.5 -8t-11.5 -35v-536v-22q6 -16 66 -16q30 0 34 -14q4 -19 -17 -19q-23 0 -59 3h-38q-18 -14 -34 -28q-36 -33 -36 -70q1 -32 30 -50.5t60 -18.5q53 0 76 56q4 8 11.5 5t6.5 -12z" />
    <glyph glyph-name="iogonek" unicode="&#x12f;" horiz-adv-x="333" 
d="M184 623q5 -20 -7.5 -34t-30.5 -14q-35 0 -44 35q-5 20 7 34t30 14q35 0 45 -35zM342 -115q-10 -42 -44 -69t-72 -27q-48 0 -81 27t-34 63q-3 63 72 119q-51 22 -65 75q-5 22 0 46l24 186q6 54 0 77q-7 31 -30 31q-33 0 -48 -35t-17 -82v-11t-2 -6t-5 -3.5t-9 -0.5
q-20 0 -23 13q-2 7 1 29.5t11 51.5t31 50.5t56 21.5q35 0 65 -22t40 -61q5 -21 1 -52l-23 -174q-7 -59 -1 -82q7 -32 30 -32q31 0 47 32.5t18 84.5q1 10 1.5 13.5t4 5.5t11.5 2q19 0 22 -13q2 -7 -1 -29.5t-11 -51t-30.5 -50.5t-56.5 -22q-8 0 -12 1l-18 -16
q-37 -32 -36 -70q1 -32 30 -50.5t60 -18.5q53 0 76 56q4 8 11.5 5t6.5 -12z" />
    <glyph glyph-name="Idotaccent" unicode="&#x130;" horiz-adv-x="417" 
d="M350 19q4 -19 -17 -19q-23 0 -59 3h-130q-48 -3 -57 -3q-17 0 -20 14q-3 13 3 16t23 3q51 0 62.5 7.5t10.5 36.5v540v18q-4 15 -64 15q-17 0 -24.5 2t-9.5 12q-5 19 15 19q1 0 13.5 -0.5t42 -1.5t70.5 -1h64q36 3 57 3q7 0 11.5 -3.5t6.5 -7.5l1 -3q3 -13 -3 -16t-24 -3
q-49 0 -60.5 -8t-11.5 -35v-536q0 -16 2 -22q4 -16 64 -16q30 0 34 -14zM263 821q7 -26 -9.5 -45.5t-41.5 -19.5q-19 0 -36 12.5t-22 33.5q-7 25 9 45t42 20q17 0 34.5 -11t23.5 -35z" />
    <glyph glyph-name="dotlessi" unicode="&#x131;" horiz-adv-x="333" 
d="M323 143q2 -7 -1 -29.5t-11 -51t-30.5 -50.5t-56.5 -22q-38 0 -67.5 24t-38.5 59q-5 22 0 46l24 186q6 54 0 77q-7 31 -30 31q-33 0 -48 -35t-17 -82v-11t-2 -6t-5 -3.5t-9 -0.5q-20 0 -23 13q-2 7 1 29.5t11 51.5t31 50.5t56 21.5q35 0 65 -22t40 -61q5 -21 1 -52
l-23 -174q-7 -59 -1 -82q7 -32 30 -32q31 0 47 32.5t18 84.5q1 10 1.5 13.5t4 5.5t11.5 2q19 0 22 -13z" />
    <glyph glyph-name="Jcircumflex" unicode="&#x134;" horiz-adv-x="570" 
d="M486 669q3 -13 -2.5 -16t-20.5 -3q-32 0 -39.5 -7t-7.5 -35v-471q0 -60 -49 -109t-124 -49q-57 0 -101 30.5t-56 78.5q-8 31 1.5 49t20 21.5t19.5 3.5q19 0 33.5 -11t18.5 -28q0 -7 1 -19t-11.5 -25t-36.5 -13q17 -31 46 -45t55 -14q42 0 70.5 41t28.5 101v465v17
q-1 9 -7.5 12t-26.5 5q-19 2 -44 2h-9q-30 0 -33 14q-2 9 1 13.5t6.5 5t9.5 0.5q21 0 66 -1.5t67 -1.5q32 0 54 0.5t30.5 1t14 1t7.5 0.5q14 0 18 -14zM486 753q8 -5 3.5 -13.5t-12.5 -4.5l-128 55l-128 -55q-9 -4 -14 4.5t3 13.5l133 98q3 3 12 0z" />
    <glyph glyph-name="jcircumflex" unicode="&#x135;" horiz-adv-x="333" 
d="M256 -52q0 -62 -40.5 -107t-103.5 -45q-42 0 -73 15.5t-38 43.5q-5 22 6 37.5t31 15.5q36 0 46 -34q6 -29 -17 -43q20 -7 38 -7q24 0 41 14t24.5 36t10.5 40.5t3 34.5v393q0 12 -3 27q-11 44 -42 44q-29 0 -54.5 -28t-36.5 -94q-1 -6 -1.5 -8t-2 -4.5t-4.5 -3t-9 -0.5
q-20 0 -23 12q-2 7 4 30t18.5 51.5t40 50.5t64.5 22q41 0 74.5 -25.5t43.5 -66.5q3 -11 3 -35v-366zM306 534q7 -7 0.5 -14.5t-14.5 -1.5l-125 99l-125 -99q-7 -6 -13.5 1t-1.5 15l132 144q7 8 15 0z" />
    <glyph glyph-name="Kcommaaccent" unicode="&#x136;" horiz-adv-x="833" 
d="M764 19q5 -19 -15 -19q-4 0 -8.5 0.5t-11 1t-26 1t-48.5 0.5q-18 0 -53.5 -1.5t-52.5 -1.5q-15 0 -19 14q-2 8 1 12.5t7 5.5t12 1q12 1 20 2.5t13.5 8.5t2.5 18q-1 6 -11 19l-197 282l-128 -122v-151v-41q6 -16 62 -16q29 0 33 -14q4 -19 -16 -19q-1 0 -6 0.5t-14 1
t-22 0.5t-33.5 0.5t-44.5 0.5h-61q-24 -3 -57 -3q-15 0 -19 14q-3 13 3.5 16t25.5 3q44 0 54.5 8t10.5 35v537v22q-4 15 -60 15q-30 0 -33 14q-5 19 15 19l60 -3h120q54 3 57 3q17 0 20 -14q3 -13 -3 -16t-26 -3q-44 0 -55 -8t-11 -35v-313l305 291q7 8 9 9l4 6q18 18 14 35
q-5 14 -27 15q-16 1 -19 14q-5 19 16 19q16 0 51.5 -1.5t52.5 -1.5h41l35 3q15 0 17 -14q4 -17 -14 -19q-64 -7 -146 -86l-158 -151l238 -341q17 -25 31.5 -31.5t41.5 -7.5q19 0 22 -14zM460 -110q10 -42 -4 -87t-33.5 -70t-27.5 -25q-10 0 -14 12q-1 3 5 9q56 56 55 133
q-10 -8 -26 -8q-35 0 -44 33q-4 18 6.5 34t32.5 16q38 0 50 -47z" />
    <glyph glyph-name="kcommaaccent" unicode="&#x137;" horiz-adv-x="500" 
d="M490 143q2 -7 -1.5 -42t-12.5 -59q-20 -52 -69 -52q-42 0 -75.5 28t-44.5 71q-3 17 -3 30q-1 12 -3 25q-17 68 -135 82v-198q0 -38 -31 -38q-15 0 -25.5 8.5t-13.5 20.5v15v579q0 12 -2 22q-1 6 -3.5 8.5t-14 4.5t-34.5 2q-27 0 -30 14q-4 9 0 13t7.5 5t12.5 2l103 9
q27 2 31 -13v-15v-400q35 17 82 84q62 92 127 92q34 0 57 -19.5t30 -46.5t-5 -42.5t-32 -15.5q-35 0 -44 34q-5 19 5 32.5t25 16.5q-13 13 -30 13q-56 0 -112 -86q-38 -53 -66 -75q146 -24 167 -107q4 -18 4 -31q0 -30 5 -50q12 -46 43 -46q21 0 32.5 19t14 42t2.5 57
q0 12 3 16t14 4q19 0 22 -13zM293 -110q10 -42 -4 -87t-33.5 -70t-27.5 -25q-10 0 -14 12q-1 3 5 9q56 56 55 133q-10 -8 -26 -8q-35 0 -44 33q-4 18 6.5 34t32.5 16q38 0 50 -47z" />
    <glyph glyph-name="Lacute" unicode="&#x139;" horiz-adv-x="681" 
d="M610 227l-25 -209q-2 -13 -6 -15.5t-21 -2.5h-454q-28 0 -32 14q-3 13 3.5 16t25.5 3q44 0 54.5 8t10.5 35v537v22q-4 15 -60 15q-30 0 -33 14q-5 19 15 19q1 0 12 -0.5t40.5 -1.5t74.5 -1q22 0 67 1.5t67 1.5q16 0 19 -14q3 -13 -2.5 -16t-21.5 -3h-8q-59 0 -72.5 -8.5
t-13.5 -38.5v-541q0 -6 0.5 -10t1.5 -8.5t1 -8.5q10 -2 29 -2h96q34 0 62 7t46.5 17t33 28.5t22 32.5t14 39.5t8.5 38.5t6 40q2 17 4.5 20.5t12.5 3.5q20 0 23 -15q2 -5 0 -18zM363 870q0 -20 -21 -30l-167 -91q-7 -5 -14 -5q-8 1 -14.5 9.5t-6.5 14.5q-1 9 10 16l150 114
q10 9 23 9q16 0 27.5 -10.5t12.5 -26.5z" />
    <glyph glyph-name="lacute" unicode="&#x13a;" horiz-adv-x="278" 
d="M268 143q0 -5 0.5 -19t-2 -38.5t-6.5 -40.5q-15 -55 -64 -55q-38 0 -72 24.5t-45 67.5q-4 20 -4 36v495v22q-2 6 -4.5 8.5t-14 4.5t-34.5 2q-27 0 -30 14q-4 9 0 13t7.5 5t12.5 2l103 9q27 2 30 -13v-15v-574q0 -7 2.5 -17t2.5 -12q15 -44 41 -44q13 0 21 10t11.5 31
t4 35.5t1.5 41.5q0 9 0.5 12.5t4 5.5t11.5 2q19 0 23 -13zM259 881q0 -19 -21 -30l-167 -91q-7 -5 -14 -5q-8 1 -14.5 10t-6.5 14q-1 9 10 16l150 114q10 9 23 9q16 0 27.5 -10.5t12.5 -26.5z" />
    <glyph glyph-name="Lcommaaccent" unicode="&#x13b;" horiz-adv-x="681" 
d="M610 227l-25 -209q-2 -13 -6 -15.5t-21 -2.5h-454q-28 0 -32 14q-3 13 3.5 16t25.5 3q44 0 54.5 8t10.5 35v537v22q-4 15 -60 15q-30 0 -33 14q-5 19 15 19q1 0 12 -0.5t40.5 -1.5t74.5 -1q22 0 67 1.5t67 1.5q16 0 19 -14q3 -13 -2.5 -16t-21.5 -3h-8q-59 0 -72.5 -8.5
t-13.5 -38.5v-541q0 -6 0.5 -10t1.5 -8.5t1 -8.5q10 -2 29 -2h96q34 0 62 7t46.5 17t33 28.5t22 32.5t14 39.5t8.5 38.5t6 40q2 17 4.5 20.5t12.5 3.5q20 0 23 -15q2 -5 0 -18zM384 -110q10 -42 -4 -87t-33.5 -70t-27.5 -25q-10 0 -14 12q-1 3 5 9q56 56 55 133
q-10 -8 -26 -8q-35 0 -44 33q-4 18 6.5 34t32.5 16q38 0 50 -47z" />
    <glyph glyph-name="lcommaaccent" unicode="&#x13c;" horiz-adv-x="278" 
d="M268 143q0 -5 0.5 -19t-2 -38.5t-6.5 -40.5q-15 -55 -64 -55q-38 0 -72 24.5t-45 67.5q-4 20 -4 36v495v22q-2 6 -4.5 8.5t-14 4.5t-34.5 2q-27 0 -30 14q-4 9 0 13t7.5 5t12.5 2l103 9q27 2 30 -13v-15v-574q0 -7 2.5 -17t2.5 -12q15 -44 41 -44q13 0 21 10t11.5 31
t4 35.5t1.5 41.5q0 9 0.5 12.5t4 5.5t11.5 2q19 0 23 -13zM153 -110q10 -42 -4 -87t-33.5 -70t-27.5 -25q-10 0 -14 12q-1 3 5 9q56 56 55 133q-10 -8 -26 -8q-35 0 -44 33q-4 18 6.5 34t32.5 16q38 0 50 -47z" />
    <glyph glyph-name="Lcaron" unicode="&#x13d;" horiz-adv-x="681" 
d="M610 227l-25 -209q-2 -13 -6 -15.5t-21 -2.5h-454q-28 0 -32 14q-3 13 3.5 16t25.5 3q44 0 54.5 8t10.5 35v537v22q-4 15 -60 15q-30 0 -33 14q-5 19 15 19q1 0 12 -0.5t40.5 -1.5t74.5 -1q22 0 67 1.5t67 1.5q16 0 19 -14q3 -13 -2.5 -16t-21.5 -3h-8q-59 0 -72.5 -8.5
t-13.5 -38.5v-541q0 -6 0.5 -10t1.5 -8.5t1 -8.5q10 -2 29 -2h96q34 0 62 7t46.5 17t33 28.5t22 32.5t14 39.5t8.5 38.5t6 40q2 17 4.5 20.5t12.5 3.5q20 0 23 -15q2 -5 0 -18zM514 636q10 -42 -4 -87t-33.5 -70t-27.5 -25q-10 0 -14 12q-1 3 5 9q56 56 55 133
q-10 -8 -26 -8q-35 0 -44 33q-4 18 6.5 34t32.5 16q38 0 50 -47z" />
    <glyph glyph-name="lcaron" unicode="&#x13e;" horiz-adv-x="278" 
d="M268 143q0 -5 0.5 -19t-2 -38.5t-6.5 -40.5q-15 -55 -64 -55q-38 0 -72 24.5t-45 67.5q-4 20 -4 36v495v22q-2 6 -4.5 8.5t-14 4.5t-34.5 2q-27 0 -30 14q-4 9 0 13t7.5 5t12.5 2l103 9q27 2 30 -13v-15v-574q0 -7 2.5 -17t2.5 -12q15 -44 41 -44q13 0 21 10t11.5 31
t4 35.5t1.5 41.5q0 9 0.5 12.5t4 5.5t11.5 2q19 0 23 -13zM272 647q10 -42 -4 -87t-33.5 -70t-27.5 -25q-10 0 -14 12q-1 3 5 9q56 56 55 133q-10 -8 -26 -8q-35 0 -44 33q-4 18 6.5 34t32.5 16q38 0 50 -47z" />
    <glyph glyph-name="Ldot" unicode="&#x13f;" horiz-adv-x="681" 
d="M610 227l-25 -209q-2 -13 -6 -15.5t-21 -2.5h-454q-28 0 -32 14q-3 13 3.5 16t25.5 3q44 0 54.5 8t10.5 35v537v22q-4 15 -60 15q-30 0 -33 14q-5 19 15 19q1 0 12 -0.5t40.5 -1.5t74.5 -1q22 0 67 1.5t67 1.5q16 0 19 -14q3 -13 -2.5 -16t-21.5 -3h-8q-59 0 -72.5 -8.5
t-13.5 -38.5v-541q0 -6 0.5 -10t1.5 -8.5t1 -8.5q10 -2 29 -2h96q34 0 62 7t46.5 17t33 28.5t22 32.5t14 39.5t8.5 38.5t6 40q2 17 4.5 20.5t12.5 3.5q20 0 23 -15q2 -5 0 -18zM603 417q7 -26 -9.5 -45.5t-42.5 -19.5q-19 0 -35.5 12.5t-22.5 33.5q-6 25 10 45t42 20
q17 0 34.5 -11t23.5 -35z" />
    <glyph glyph-name="ldot" unicode="&#x140;" horiz-adv-x="278" 
d="M268 143q0 -5 0.5 -19t-2 -38.5t-6.5 -40.5q-15 -55 -64 -55q-38 0 -72 24.5t-45 67.5q-4 20 -4 36v495v22q-2 6 -4.5 8.5t-14 4.5t-34.5 2q-27 0 -30 14q-4 9 0 13t7.5 5t12.5 2l103 9q27 2 30 -13v-15v-574q0 -7 2.5 -17t2.5 -12q15 -44 41 -44q13 0 21 10t11.5 31
t4 35.5t1.5 41.5q0 9 0.5 12.5t4 5.5t11.5 2q19 0 23 -13zM304 378q7 -26 -9.5 -45.5t-42.5 -19.5q-19 0 -35.5 12.5t-22.5 33.5q-6 25 10 45t42 20q17 0 34.5 -11t23.5 -35z" />
    <glyph glyph-name="Lslash" unicode="&#x141;" horiz-adv-x="681" 
d="M610 227l-25 -209q-2 -13 -6 -15.5t-21 -2.5h-454q-28 0 -32 14q-3 13 3.5 16t25.5 3q44 0 54.5 8t10.5 35v223l-54 -54l-28 25l82 80v263q0 19 -1 22q-3 15 -59 15q-30 0 -33 14q-5 19 15 19q1 0 12 -0.5t40.5 -1.5t74.5 -1q22 0 67 1.5t67 1.5q16 0 19 -14
q3 -13 -2.5 -16t-21.5 -3h-8q-59 0 -72.5 -8.5t-13.5 -38.5v-171l107 105l27 -26l-134 -130v-319q0 -6 0.5 -10t1.5 -8.5t1 -8.5q10 -2 29 -2h96q34 0 62 7t46.5 17t33 28.5t22 32.5t14 39.5t8.5 38.5t6 40q2 17 4.5 20.5t12.5 3.5q20 0 23 -15q2 -5 0 -18z" />
    <glyph glyph-name="lslash" unicode="&#x142;" horiz-adv-x="347" 
d="M312 143q0 -5 0.5 -19t-1.5 -38.5t-6 -40.5q-16 -55 -64 -55q-38 0 -72 24.5t-45 67.5q-4 20 -4 36v177l-45 -41l-21 20l66 61v278v22q-3 6 -5 8.5t-14 4.5t-35 2q-26 0 -30 14q-2 8 1 12.5t7 5.5t13 2l103 9q27 2 30 -13v-15v-266l47 41l21 -21l-66 -61v-267
q0 -17 4 -29q11 -44 39 -44q13 0 21 9.5t11.5 31.5t4 35t1.5 42q0 13 2.5 16.5t14.5 3.5q19 0 22 -13z" />
    <glyph glyph-name="Nacute" unicode="&#x143;" horiz-adv-x="806" 
d="M733 669q4 -17 -12 -19q-18 -1 -28 -3t-25 -8.5t-22.5 -22t-7.5 -40.5v-557q0 -12 -2.5 -15.5t-14.5 -3.5t-16 3t-12 15l-385 585v-505q0 -12 3 -24q10 -40 70 -41q19 0 22 -14q5 -19 -14 -19q-3 0 -12 1t-31.5 1.5t-57.5 0.5q-16 0 -49 -1.5t-48 -1.5t-19 14
q-4 19 15 19q49 2 64 20.5t15 54.5v536q-22 6 -60 6q-30 0 -33 14q-3 13 2.5 16t21.5 3h119q16 0 21 -2.5t15 -16.5l344 -524v446q0 15 -2 24q-9 38 -70 40q-19 0 -23 14q-5 19 16 19q1 0 10.5 -0.5t33 -1.5t57.5 -1q32 0 54.5 1t31.5 1.5t10 0.5q14 0 19 -14zM552 870
q0 -20 -21 -30l-167 -91q-8 -5 -14 -5q-8 1 -14.5 9.5t-6.5 14.5q-1 9 10 16l150 114q10 9 23 9q16 0 27.5 -10.5t12.5 -26.5z" />
    <glyph glyph-name="nacute" unicode="&#x144;" horiz-adv-x="611" 
d="M601 143q2 -8 -1 -30.5t-11.5 -51t-31.5 -50t-56 -21.5q-38 0 -68 24t-38 59q-5 19 0 52q20 165 5 222q-16 66 -68 66q-51 0 -89 -41q-16 -19 -28 -53.5t-13 -50.5v-65v-65v-86q0 -24 -1 -34t-8.5 -19t-22.5 -9q-13 0 -24 8t-14 20v6t-1 9v292q2 21 -5 44q-10 44 -39 44
q-24 0 -32 -29t-8 -82q0 -19 -2 -23t-14 -4q-20 0 -23 13q-1 7 0.5 42t7.5 57q19 54 66 54q36 0 67.5 -22.5t45.5 -57.5q9 14 15.5 23t23 24.5t40.5 24t54 8.5q115 0 143 -108q14 -59 -7 -219q-4 -43 1 -64q9 -32 31 -32q31 0 47 33t18 84q1 10 1.5 13.5t4 5.5t11.5 2
q19 0 23 -13zM433 665q4 -20 -14 -35l-140 -122q-8 -7 -12 -7q-7 0 -15 7.5t-10 13.5q-2 9 7 18l120 143q10 13 25 13q12 0 23.5 -8t15.5 -23z" />
    <glyph glyph-name="Ncommaaccent" unicode="&#x145;" horiz-adv-x="806" 
d="M733 669q4 -17 -12 -19q-18 -1 -28 -3t-25 -8.5t-22.5 -22t-7.5 -40.5v-557q0 -12 -2.5 -15.5t-14.5 -3.5t-16 3t-12 15l-385 585v-505q0 -12 3 -24q10 -40 70 -41q19 0 22 -14q5 -19 -14 -19q-3 0 -12 1t-31.5 1.5t-57.5 0.5q-16 0 -49 -1.5t-48 -1.5t-19 14
q-4 19 15 19q49 2 64 20.5t15 54.5v536q-22 6 -60 6q-30 0 -33 14q-3 13 2.5 16t21.5 3h119q16 0 21 -2.5t15 -16.5l344 -524v446q0 15 -2 24q-9 38 -70 40q-19 0 -23 14q-5 19 16 19q1 0 10.5 -0.5t33 -1.5t57.5 -1q32 0 54.5 1t31.5 1.5t10 0.5q14 0 19 -14zM446 -110
q10 -42 -4 -87t-33.5 -70t-27.5 -25q-10 0 -14 12q-1 3 5 9q56 56 55 133q-10 -8 -26 -8q-35 0 -44 33q-4 18 6.5 34t32.5 16q38 0 50 -47z" />
    <glyph glyph-name="ncommaaccent" unicode="&#x146;" horiz-adv-x="611" 
d="M601 143q2 -8 -1 -30.5t-11.5 -51t-31.5 -50t-56 -21.5q-38 0 -68 24t-38 59q-5 19 0 52q20 165 5 222q-16 66 -68 66q-51 0 -89 -41q-16 -19 -28 -53.5t-13 -50.5v-65v-65v-86q0 -24 -1 -34t-8.5 -19t-22.5 -9q-13 0 -24 8t-14 20v6t-1 9v292q2 21 -5 44q-10 44 -39 44
q-24 0 -32 -29t-8 -82q0 -19 -2 -23t-14 -4q-20 0 -23 13q-1 7 0.5 42t7.5 57q19 54 66 54q36 0 67.5 -22.5t45.5 -57.5q9 14 15.5 23t23 24.5t40.5 24t54 8.5q115 0 143 -108q14 -59 -7 -219q-4 -43 1 -64q9 -32 31 -32q31 0 47 33t18 84q1 10 1.5 13.5t4 5.5t11.5 2
q19 0 23 -13zM349 -110q10 -42 -4 -87t-33.5 -70t-27.5 -25q-10 0 -14 12q-1 3 5 9q56 56 55 133q-10 -8 -26 -8q-35 0 -44 33q-4 18 6.5 34t32.5 16q38 0 50 -47z" />
    <glyph glyph-name="Ncaron" unicode="&#x147;" horiz-adv-x="806" 
d="M733 669q4 -17 -12 -19q-18 -1 -28 -3t-25 -8.5t-22.5 -22t-7.5 -40.5v-557q0 -12 -2.5 -15.5t-14.5 -3.5t-16 3t-12 15l-385 585v-505q0 -12 3 -24q10 -40 70 -41q19 0 22 -14q5 -19 -14 -19q-3 0 -12 1t-31.5 1.5t-57.5 0.5q-16 0 -49 -1.5t-48 -1.5t-19 14
q-4 19 15 19q49 2 64 20.5t15 54.5v536q-22 6 -60 6q-30 0 -33 14q-3 13 2.5 16t21.5 3h119q16 0 21 -2.5t15 -16.5l344 -524v446q0 15 -2 24q-9 38 -70 40q-19 0 -23 14q-5 19 16 19q1 0 10.5 -0.5t33 -1.5t57.5 -1q32 0 54.5 1t31.5 1.5t10 0.5q14 0 19 -14zM541 834
l-132 -98q-7 -3 -12 0l-133 98q-8 5 -3 13.5t14 4.5l126 -55l129 55q8 4 13 -4.5t-2 -13.5z" />
    <glyph glyph-name="ncaron" unicode="&#x148;" horiz-adv-x="611" 
d="M601 143q2 -8 -1 -30.5t-11.5 -51t-31.5 -50t-56 -21.5q-38 0 -68 24t-38 59q-5 19 0 52q20 165 5 222q-16 66 -68 66q-51 0 -89 -41q-16 -19 -28 -53.5t-13 -50.5v-65v-65v-86q0 -24 -1 -34t-8.5 -19t-22.5 -9q-13 0 -24 8t-14 20v6t-1 9v292q2 21 -5 44q-10 44 -39 44
q-24 0 -32 -29t-8 -82q0 -19 -2 -23t-14 -4q-20 0 -23 13q-1 7 0.5 42t7.5 57q19 54 66 54q36 0 67.5 -22.5t45.5 -57.5q9 14 15.5 23t23 24.5t40.5 24t54 8.5q115 0 143 -108q14 -59 -7 -219q-4 -43 1 -64q9 -32 31 -32q31 0 47 33t18 84q1 10 1.5 13.5t4 5.5t11.5 2
q19 0 23 -13zM445 663l-131 -144q-8 -7 -15 0l-132 144q-7 7 -0.5 14.5t14.5 1.5l124 -99l125 99q8 6 15 -1.5t0 -14.5z" />
    <glyph glyph-name="Eng" unicode="&#x14a;" horiz-adv-x="806" 
d="M771 342q0 -94 -24 -174t-78.5 -134.5t-130.5 -54.5q-17 0 -30 12.5t-13 29.5t13 29.5t30 12.5t29 -11.5t13 -27.5q27 10 45.5 34.5t28 52.5t15 72t6.5 76.5t1 82.5q0 131 -63 227.5t-169 96.5q-62 0 -114 -31.5t-80 -83.5v-480q0 -16 2 -22q4 -16 64 -16q30 0 34 -14
q4 -19 -17 -19q-23 0 -59 3h-130q-48 -3 -57 -3q-17 0 -20 14q-3 13 3 16t23 3q51 0 62 7.5t11 36.5v540q0 14 -1 18q-3 15 -63 15q-17 0 -24.5 2t-9.5 12q-5 19 15 19q1 0 13.5 -0.5t42 -1.5t70.5 -1q21 0 41 3v-67q77 88 194 88q139 0 233 -107.5t94 -254.5z" />
    <glyph glyph-name="eng" unicode="&#x14b;" horiz-adv-x="541" 
d="M471 333q8 -31 8.5 -68t-3 -66.5t-7.5 -69t-4 -67.5q0 -57 -4.5 -100t-17 -86.5t-39.5 -67t-68 -23.5q-14 0 -24.5 10t-10.5 25q0 14 10 24.5t25 10.5q18 0 30 -16q13 18 20 60.5t7.5 72t0.5 90.5q0 29 4.5 71t8 73t2.5 70t-9 71q-16 66 -68 66q-51 0 -89 -41
q-16 -19 -28 -53.5t-13 -50.5v-65v-65v-86q0 -24 -1 -34t-8.5 -19t-22.5 -9q-13 0 -24 8t-14 20v6t-1 9v292q2 21 -5 44q-10 44 -39 44q-24 0 -32 -29t-8 -82q0 -19 -2 -23t-14 -4q-20 0 -23 13q-1 7 0.5 42t7.5 57q19 54 66 54q36 0 67.5 -22.5t45.5 -57.5q9 14 15.5 23
t23 24.5t40.5 24t54 8.5q115 0 143 -108z" />
    <glyph glyph-name="Omacron" unicode="&#x14c;" horiz-adv-x="833" 
d="M736 436q29 -115 -8 -222t-122 -171t-190 -64q-115 0 -204 75t-118 189q-28 111 7.5 218.5t120.5 175t193 67.5q111 0 201 -73.5t120 -194.5zM640 471q-24 97 -87 149.5t-138 52.5q-66 0 -123.5 -42.5t-85.5 -115.5q-20 -51 -25.5 -113.5t-1 -105t13.5 -75.5
q26 -101 88.5 -155t134.5 -54q57 0 104 29.5t74.5 77t45 108.5t15.5 123t-15 121zM597 776q3 -10 -0.5 -15t-8.5 -6t-17 -1h-302q-28 0 -32 14q0 8 -0.5 12.5t4.5 6.5t8.5 2.5t12.5 0.5h302q29 0 33 -14z" />
    <glyph glyph-name="omacron" unicode="&#x14d;" 
d="M478 272q18 -70 -4.5 -136t-75 -106t-118.5 -40q-67 0 -125.5 45t-78.5 124q-27 109 35.5 195.5t161.5 86.5q70 0 128 -46.5t77 -122.5zM393 307q-13 51 -44.5 78.5t-69.5 27.5q-31 0 -63.5 -23t-49.5 -72q-13 -39 -13.5 -101t8.5 -93q14 -55 46 -80.5t67 -25.5
q37 0 67.5 25.5t44.5 66.5q11 31 14 74t0.5 73.5t-7.5 49.5zM458 603q3 -10 -0.5 -15t-8.5 -6t-17 -1h-302q-28 0 -32 14q0 8 -0.5 12.5t4.5 6.5t8.5 2.5t12.5 0.5h302q29 0 33 -14z" />
    <glyph glyph-name="Obreve" unicode="&#x14e;" horiz-adv-x="833" 
d="M736 436q29 -115 -8 -222t-122 -171t-190 -64q-115 0 -204 75t-118 189q-28 111 7.5 218.5t120.5 175t193 67.5q111 0 201 -73.5t120 -194.5zM640 471q-24 97 -87 149.5t-138 52.5q-66 0 -123.5 -42.5t-85.5 -115.5q-20 -51 -25.5 -113.5t-1 -105t13.5 -75.5
q26 -101 88.5 -155t134.5 -54q57 0 104 29.5t74.5 77t45 108.5t15.5 123t-15 121zM568 905q5 -21 -7 -57t-49.5 -70t-91.5 -34q-55 0 -97 35t-55 88q-13 52 6 52q15 0 18 -15l1 -11q1 -11 3 -19q10 -39 42 -63.5t75 -24.5q16 0 33.5 5t38.5 17t36.5 37.5t18.5 60.5
q0 13 11 13q13 0 17 -14z" />
    <glyph glyph-name="obreve" unicode="&#x14f;" 
d="M478 272q18 -70 -4.5 -136t-75 -106t-118.5 -40q-67 0 -125.5 45t-78.5 124q-27 109 35.5 195.5t161.5 86.5q70 0 128 -46.5t77 -122.5zM393 307q-13 51 -44.5 78.5t-69.5 27.5q-31 0 -63.5 -23t-49.5 -72q-13 -39 -13.5 -101t8.5 -93q14 -55 46 -80.5t67 -25.5
q37 0 67.5 25.5t44.5 66.5q11 31 14 74t0.5 73.5t-7.5 49.5zM429 672q5 -21 -7 -57t-49.5 -70t-91.5 -34q-55 0 -97 35t-55 88q-13 52 6 52q15 0 18 -15l1 -11q1 -11 3 -19q10 -39 42 -63.5t75 -24.5q16 0 33.5 5t38.5 17t36.5 37.5t18.5 60.5q0 13 11 13q14 0 17 -14z" />
    <glyph glyph-name="Ohungarumlaut" unicode="&#x150;" horiz-adv-x="833" 
d="M736 436q29 -115 -8 -222t-122 -171t-190 -64q-115 0 -204 75t-118 189q-28 111 7.5 218.5t120.5 175t193 67.5q111 0 201 -73.5t120 -194.5zM640 471q-24 97 -87 149.5t-138 52.5q-66 0 -123.5 -42.5t-85.5 -115.5q-20 -51 -25.5 -113.5t-1 -105t13.5 -75.5
q26 -101 88.5 -155t134.5 -54q57 0 104 29.5t74.5 77t45 108.5t15.5 123t-15 121zM417 907q3 -14 -8 -31l-80 -120q-8 -12 -17 -12q-22 5 -25 18q-2 6 3 17l57 135q10 23 30 23q15 0 26 -9.5t14 -20.5zM584 907q3 -14 -8 -31l-80 -120q-8 -12 -16 -12q-23 5 -26 18
q-2 6 3 17l57 135q10 23 30 23q15 0 26 -9.5t14 -20.5z" />
    <glyph glyph-name="ohungarumlaut" unicode="&#x151;" 
d="M478 272q18 -70 -4.5 -136t-75 -106t-118.5 -40q-67 0 -125.5 45t-78.5 124q-27 109 35.5 195.5t161.5 86.5q70 0 128 -46.5t77 -122.5zM393 307q-13 51 -44.5 78.5t-69.5 27.5q-31 0 -63.5 -23t-49.5 -72q-13 -39 -13.5 -101t8.5 -93q14 -55 46 -80.5t67 -25.5
q37 0 67.5 25.5t44.5 66.5q11 31 14 74t0.5 73.5t-7.5 49.5zM278 665q4 -13 -8 -31l-80 -120q-8 -12 -16 -12q-23 5 -26 18q-2 6 4 17l57 135q8 23 29 23q15 0 26 -9.5t14 -20.5zM445 665q5 -16 -8 -31l-80 -120q-8 -12 -16 -12q-23 5 -26 18q-2 6 4 17l57 135q8 23 29 23
q15 0 26 -9.5t14 -20.5z" />
    <glyph glyph-name="OE" unicode="&#x152;" horiz-adv-x="1069" 
d="M1013 246q1 -7 -1 -17l-38 -211q-3 -13 -7 -15.5t-20 -2.5h-364q-33 0 -77 -10q-50 -11 -78 -11q-109 0 -199 73.5t-120 190.5q-28 112 8 219.5t120.5 174.5t190.5 67q30 0 83 -12q42 -9 73 -9h342q18 0 24.5 -4t9.5 -24l24 -175q2 -9 1.5 -14.5t-4 -7.5t-12.5 -2
q-18 0 -22 14q0 1 -1 5t0 5q-8 52 -13 70q-14 55 -45.5 77.5t-109.5 22.5h-123q-26 0 -32.5 -5t-6.5 -30v-244h108q64 0 85 18t23 74q0 12 0.5 16t4 6.5t11.5 2.5q19 0 22 -14q2 -6 2 -13v-220q-1 -9 -1.5 -12t-4 -5.5t-11.5 -2.5q-19 0 -23 15q0 8 -1 12q1 2 0.5 18.5
t-3.5 27.5q-7 24 -25.5 34t-71.5 10h-115v-276q0 -10 3 -27q10 -2 29 -2h121q47 0 79.5 9t52.5 22t34 42t21 55t16 76q5 20 9 22q2 1 9 1q20 0 23 -14zM542 189l-1 326q0 50 -11 94q-4 18 -10 30t-29 24.5t-61 12.5q-79 0 -142.5 -62t-87 -160t3.5 -219q25 -99 87 -163.5
t141 -64.5q63 0 86.5 36t23.5 146z" />
    <glyph glyph-name="oe" unicode="&#x153;" horiz-adv-x="778" 
d="M733 100q1 -5 -5 -17t-20.5 -28t-34 -30.5t-50 -24.5t-64.5 -10q-98 0 -163 98q-54 -100 -144 -100q-59 0 -108 44.5t-67 116.5q-28 108 25 201t144 93q86 0 140 -89q29 43 73.5 65t91.5 22q48 0 86 -24t48 -63q9 -35 -4.5 -60t-36.5 -37.5t-58.5 -19.5t-57 -8t-46.5 -1
h-59q2 -55 11 -90q13 -53 44.5 -86.5t74.5 -33.5q37 0 76.5 21t65.5 70q6 12 13 12q5 0 14.5 -7.5t10.5 -13.5zM641 354q-8 29 -32 44t-52 15t-55 -12.5t-51.5 -50t-26.5 -94.5h46q26 0 48 2t59 10t54.5 30t9.5 56zM343 316q-13 54 -39 76.5t-52 22.5q-30 0 -55.5 -28
t-37.5 -77q-8 -35 -7.5 -101t9.5 -101q9 -37 32 -64.5t54 -27.5q37 0 62.5 32t35 79.5t9 98t-10.5 90.5z" />
    <glyph glyph-name="Racute" unicode="&#x154;" horiz-adv-x="792" 
d="M759 96q3 -12 -2 -37.5t-28 -52.5t-63 -27q-31 0 -60.5 9t-57.5 34.5t-38 64.5q-5 20 -5 89q0 49 -4 64q-9 37 -42 62.5t-88 25.5h-123v-257l2 -22q3 -11 16.5 -13.5t43.5 -2.5q29 0 33 -14q4 -19 -16 -19q-19 0 -58 3h-120q-54 -3 -57 -3q-16 0 -19 14q-3 13 3.5 16
t25.5 3q44 0 55 8t11 35v537q0 16 -2 22q-3 15 -59 15q-30 0 -33 14q-3 13 2.5 16t21.5 3h278q98 0 170.5 -43t88.5 -107q15 -60 -30 -114.5t-135 -79.5q96 -34 116 -115q5 -16 13 -92q7 -50 12 -70q7 -28 18 -41.5t33 -13.5q26 0 41 24.5t17 59.5q1 9 2 12t4.5 5t10.5 2
q19 0 22 -14zM537 551q-25 99 -172 99h-78q-25 0 -32 -5t-7 -30v-259h117q93 0 140 42q30 26 36.5 75.5t-4.5 77.5zM545 870q0 -20 -21 -30l-167 -91q-7 -5 -14 -5q-8 1 -14.5 9.5t-6.5 14.5q-1 9 10 16l150 114q10 9 23 9q16 0 27.5 -10.5t12.5 -26.5z" />
    <glyph glyph-name="racute" unicode="&#x155;" horiz-adv-x="458" 
d="M427 372q7 -28 -5.5 -41.5t-30.5 -13.5q-35 0 -44 34q-8 33 22 46q-25 16 -60 16q-32 0 -55 -19t-33.5 -46t-14.5 -46t-4 -28v-245q0 -39 -32 -39q-13 0 -24 8t-14 20v15v292q0 23 -6 44q-10 44 -39 44q-24 0 -32 -29t-8 -82q0 -19 -2 -23t-14 -4q-20 0 -23 13
q-1 7 0.5 42t7.5 57q19 54 66 54q35 0 64.5 -19.5t43.5 -49.5q35 69 113 69q22 0 45 -4.5t48 -21t31 -43.5zM356 665q4 -20 -14 -35l-140 -122q-8 -7 -12 -7q-7 0 -15 7.5t-10 13.5q-2 9 7 18l120 143q10 13 25 13q12 0 23.5 -8t15.5 -23z" />
    <glyph glyph-name="Rcommaaccent" unicode="&#x156;" horiz-adv-x="792" 
d="M759 96q3 -12 -2 -37.5t-28 -52.5t-63 -27q-31 0 -60.5 9t-57.5 34.5t-38 64.5q-5 20 -5 89q0 49 -4 64q-9 37 -42 62.5t-88 25.5h-123v-257l2 -22q3 -11 16.5 -13.5t43.5 -2.5q29 0 33 -14q4 -19 -16 -19q-19 0 -58 3h-120q-54 -3 -57 -3q-16 0 -19 14q-3 13 3.5 16
t25.5 3q44 0 55 8t11 35v537q0 16 -2 22q-3 15 -59 15q-30 0 -33 14q-3 13 2.5 16t21.5 3h278q98 0 170.5 -43t88.5 -107q15 -60 -30 -114.5t-135 -79.5q96 -34 116 -115q5 -16 13 -92q7 -50 12 -70q7 -28 18 -41.5t33 -13.5q26 0 41 24.5t17 59.5q1 9 2 12t4.5 5t10.5 2
q19 0 22 -14zM537 551q-25 99 -172 99h-78q-25 0 -32 -5t-7 -30v-259h117q93 0 140 42q30 26 36.5 75.5t-4.5 77.5zM439 -110q10 -42 -4 -87t-33.5 -70t-27.5 -25q-10 0 -14 12q-1 3 5 9q56 56 55 133q-10 -8 -26 -8q-35 0 -44 33q-4 18 6.5 34t32.5 16q38 0 50 -47z" />
    <glyph glyph-name="rcommaaccent" unicode="&#x157;" horiz-adv-x="458" 
d="M427 372q7 -28 -5.5 -41.5t-30.5 -13.5q-35 0 -44 34q-8 33 22 46q-25 16 -60 16q-32 0 -55 -19t-33.5 -46t-14.5 -46t-4 -28v-245q0 -39 -32 -39q-13 0 -24 8t-14 20v15v292q0 23 -6 44q-10 44 -39 44q-24 0 -32 -29t-8 -82q0 -19 -2 -23t-14 -4q-20 0 -23 13
q-1 7 0.5 42t7.5 57q19 54 66 54q35 0 64.5 -19.5t43.5 -49.5q35 69 113 69q22 0 45 -4.5t48 -21t31 -43.5zM209 -110q10 -42 -4 -87t-33.5 -70t-27.5 -25q-10 0 -14 12q-1 3 5 9q56 56 55 133q-10 -8 -26 -8q-35 0 -44 33q-4 18 6.5 34t32.5 16q38 0 50 -47z" />
    <glyph glyph-name="Rcaron" unicode="&#x158;" horiz-adv-x="792" 
d="M759 96q3 -12 -2 -37.5t-28 -52.5t-63 -27q-31 0 -60.5 9t-57.5 34.5t-38 64.5q-5 20 -5 89q0 49 -4 64q-9 37 -42 62.5t-88 25.5h-123v-257l2 -22q3 -11 16.5 -13.5t43.5 -2.5q29 0 33 -14q4 -19 -16 -19q-19 0 -58 3h-120q-54 -3 -57 -3q-16 0 -19 14q-3 13 3.5 16
t25.5 3q44 0 55 8t11 35v537q0 16 -2 22q-3 15 -59 15q-30 0 -33 14q-3 13 2.5 16t21.5 3h278q98 0 170.5 -43t88.5 -107q15 -60 -30 -114.5t-135 -79.5q96 -34 116 -115q5 -16 13 -92q7 -50 12 -70q7 -28 18 -41.5t33 -13.5q26 0 41 24.5t17 59.5q1 9 2 12t4.5 5t10.5 2
q19 0 22 -14zM537 551q-25 99 -172 99h-78q-25 0 -32 -5t-7 -30v-259h117q93 0 140 42q30 26 36.5 75.5t-4.5 77.5zM534 834l-132 -98q-7 -3 -12 0l-133 98q-8 5 -3 13.5t14 4.5l126 -55l129 55q8 4 13 -4.5t-2 -13.5z" />
    <glyph glyph-name="rcaron" unicode="&#x159;" horiz-adv-x="458" 
d="M427 372q7 -28 -5.5 -41.5t-30.5 -13.5q-35 0 -44 34q-8 33 22 46q-25 16 -60 16q-32 0 -55 -19t-33.5 -46t-14.5 -46t-4 -28v-245q0 -39 -32 -39q-13 0 -24 8t-14 20v15v292q0 23 -6 44q-10 44 -39 44q-24 0 -32 -29t-8 -82q0 -19 -2 -23t-14 -4q-20 0 -23 13
q-1 7 0.5 42t7.5 57q19 54 66 54q35 0 64.5 -19.5t43.5 -49.5q35 69 113 69q22 0 45 -4.5t48 -21t31 -43.5zM368 663l-131 -144q-7 -7 -15 0l-132 144q-7 7 -0.5 14.5t14.5 1.5l124 -99l125 99q8 6 15 -1.5t0 -14.5z" />
    <glyph glyph-name="Sacute" unicode="&#x15a;" horiz-adv-x="611" 
d="M519 232q24 -95 -32 -174t-155 -79q-112 0 -185 69l-32 -57q-7 -12 -14 -12q-14 0 -18 13v18l-1 197q1 14 3.5 17t13.5 3q19 0 22 -12l2 -11q-2 -24 6 -53q18 -71 72.5 -105t124.5 -34q71 0 112.5 58t23.5 127q-21 81 -105 103l-101 25q-138 31 -168 147
q-22 87 34.5 159.5t151.5 72.5q97 0 161 -68l32 56q7 12 14 12q15 0 17 -12q1 -3 1 -14l-1 -202q0 -14 -2 -17t-14 -3q-19 0 -23 13q0 1 -1 9.5t-2.5 21.5t-5.5 28q-38 146 -169 146q-69 0 -109.5 -52.5t-25.5 -114.5q8 -33 32 -58t58 -35q59 -13 65 -16q77 -18 101.5 -27
t48.5 -29q52 -45 68 -110zM455 870q0 -20 -21 -30l-167 -91q-7 -5 -14 -5q-8 1 -14.5 9.5t-6.5 14.5q-1 9 10 16l150 114q10 9 23 9q16 0 27.5 -10.5t12.5 -26.5z" />
    <glyph glyph-name="sacute" unicode="&#x15b;" horiz-adv-x="444" 
d="M385 156q2 -15 3.5 -35.5t-8.5 -43.5t-26 -42.5t-49.5 -32t-78.5 -12.5q-66 0 -112 27t-57 70q-8 30 3.5 46t33.5 16q16 0 28 -9.5t16 -23.5v-3q1 -3 1 -6.5t-0.5 -8.5t-2.5 -9.5t-5.5 -9t-10 -7.5t-15.5 -5q34 -49 114 -49q39 0 65.5 12t35 29t12.5 35t-2 29
q-13 52 -92 66q-51 11 -67 16t-35 18q-40 26 -50 71q-1 12 -3 30t6 38.5t20.5 38t40.5 29t67 11.5q48 0 88.5 -22.5t51.5 -63.5q6 -16 2.5 -26.5t-6.5 -16.5t-10.5 -8.5t-10.5 -3t-6 -0.5q-13 0 -24 8.5t-15 21.5q1 2 -1 9t4.5 17.5t21.5 14.5q-27 42 -89 42
q-53 0 -71.5 -29t-11.5 -57q4 -15 11.5 -25t22.5 -16t25.5 -9t33.5 -7q129 -25 152 -114zM349 665q4 -20 -14 -35l-140 -122q-8 -7 -12 -7q-7 0 -15 7.5t-10 13.5q-2 9 7 18l120 143q10 13 25 13q12 0 23.5 -8t15.5 -23z" />
    <glyph glyph-name="Scircumflex" unicode="&#x15c;" horiz-adv-x="611" 
d="M519 232q24 -95 -32 -174t-155 -79q-112 0 -185 69l-32 -57q-7 -12 -14 -12q-14 0 -18 13v18l-1 197q1 14 3.5 17t13.5 3q19 0 22 -12l2 -11q-2 -24 6 -53q18 -71 72.5 -105t124.5 -34q71 0 112.5 58t23.5 127q-21 81 -105 103l-101 25q-138 31 -168 147
q-22 87 34.5 159.5t151.5 72.5q97 0 161 -68l32 56q7 12 14 12q15 0 17 -12q1 -3 1 -14l-1 -202q0 -14 -2 -17t-14 -3q-19 0 -23 13q0 1 -1 9.5t-2.5 21.5t-5.5 28q-38 146 -169 146q-69 0 -109.5 -52.5t-25.5 -114.5q8 -33 32 -58t58 -35q59 -13 65 -16q77 -18 101.5 -27
t48.5 -29q52 -45 68 -110zM443 753q8 -5 3.5 -13.5t-12.5 -4.5l-128 55l-128 -55q-9 -4 -14 4.5t3 13.5l133 98q3 3 12 0z" />
    <glyph glyph-name="scircumflex" unicode="&#x15d;" horiz-adv-x="444" 
d="M385 156q2 -15 3.5 -35.5t-8.5 -43.5t-26 -42.5t-49.5 -32t-78.5 -12.5q-66 0 -112 27t-57 70q-8 30 3.5 46t33.5 16q16 0 28 -9.5t16 -23.5v-3q1 -3 1 -6.5t-0.5 -8.5t-2.5 -9.5t-5.5 -9t-10 -7.5t-15.5 -5q34 -49 114 -49q39 0 65.5 12t35 29t12.5 35t-2 29
q-13 52 -92 66q-51 11 -67 16t-35 18q-40 26 -50 71q-1 12 -3 30t6 38.5t20.5 38t40.5 29t67 11.5q48 0 88.5 -22.5t51.5 -63.5q6 -16 2.5 -26.5t-6.5 -16.5t-10.5 -8.5t-10.5 -3t-6 -0.5q-13 0 -24 8.5t-15 21.5q1 2 -1 9t4.5 17.5t21.5 14.5q-27 42 -89 42
q-53 0 -71.5 -29t-11.5 -57q4 -15 11.5 -25t22.5 -16t25.5 -9t33.5 -7q129 -25 152 -114zM361 534q7 -7 0.5 -14.5t-14.5 -1.5l-125 99l-125 -99q-7 -6 -13.5 1t-1.5 15l132 144q8 8 15 0z" />
    <glyph glyph-name="Scedilla" unicode="&#x15e;" horiz-adv-x="611" 
d="M519 232q24 -92 -28.5 -170t-147.5 -83v-25q67 -11 79 -58q5 -21 -1.5 -36.5t-24.5 -24.5t-35.5 -15t-46 -8t-43 -2.5t-38.5 -0.5q-27 0 -35 2t-11 12q-1 7 2.5 10t8 3.5t14.5 0.5h13q21 0 36.5 1t42.5 6t40 18t8 33q-8 31 -60 35q-19 0 -24 14v41q-70 15 -121 63
l-32 -57q-7 -12 -14 -12q-14 0 -18 13v18l-1 197q1 14 3.5 17t13.5 3q19 0 22 -12l2 -11q-2 -24 6 -53q18 -71 72.5 -105t124.5 -34q71 0 112.5 58t23.5 127q-21 81 -105 103l-101 25q-138 31 -168 147q-22 87 34.5 159.5t151.5 72.5q97 0 161 -68l32 56q7 12 14 12
q15 0 17 -12q1 -3 1 -14l-1 -202q0 -14 -2 -17t-14 -3q-19 0 -23 13q0 1 -1 9.5t-2.5 21.5t-5.5 28q-38 146 -169 146q-69 0 -109.5 -52.5t-25.5 -114.5q8 -33 32 -58t58 -35q59 -13 65 -16q77 -18 101.5 -27t48.5 -29q52 -45 68 -110z" />
    <glyph glyph-name="scedilla" unicode="&#x15f;" horiz-adv-x="444" 
d="M385 156q7 -16 3 -42t-13.5 -50.5t-39.5 -45t-75 -26.5v-38q67 -11 79 -58q5 -21 -1.5 -36.5t-24.5 -24.5t-35.5 -15t-46 -8t-43 -2.5t-38.5 -0.5q-27 0 -35 2t-11 12q-1 7 2.5 10t8 3.5t14.5 0.5h13q20 0 36 1t43 6t40 18t8 33q-8 31 -60 35q-19 0 -24 14v49
q-51 8 -85 33.5t-43 60.5q-8 30 3.5 46t33.5 16q16 0 28 -9.5t16 -23.5v-3q1 -3 1 -6.5t-0.5 -8.5t-2.5 -9.5t-5.5 -9t-10 -7.5t-15.5 -5q34 -49 114 -49q39 0 65.5 12t35 29t12.5 35t-2 29q-13 52 -92 66q-51 11 -67 16t-35 18q-40 26 -50 71q-1 12 -3 30t6 38.5t20.5 38
t40.5 29t67 11.5q48 0 88.5 -22.5t51.5 -63.5q6 -16 2.5 -26.5t-6.5 -16.5t-10.5 -8.5t-10.5 -3t-6 -0.5q-13 0 -24 8.5t-15 21.5q1 2 -1 9t4.5 17.5t21.5 14.5q-27 42 -89 42q-53 0 -71.5 -29t-11.5 -57q4 -15 11.5 -25t22.5 -16t25.5 -9t33.5 -7q129 -25 152 -114z" />
    <glyph glyph-name="Scaron" unicode="&#x160;" horiz-adv-x="611" 
d="M519 232q24 -95 -32 -174t-155 -79q-112 0 -185 69l-32 -57q-7 -12 -14 -12q-14 0 -18 13v18l-1 197q1 14 3.5 17t13.5 3q19 0 22 -12l2 -11q-2 -24 6 -53q18 -71 72.5 -105t124.5 -34q71 0 112.5 58t23.5 127q-21 81 -105 103l-101 25q-138 31 -168 147
q-22 87 34.5 159.5t151.5 72.5q97 0 161 -68l32 56q7 12 14 12q15 0 17 -12q1 -3 1 -14l-1 -202q0 -14 -2 -17t-14 -3q-19 0 -23 13q0 1 -1 9.5t-2.5 21.5t-5.5 28q-38 146 -169 146q-69 0 -109.5 -52.5t-25.5 -114.5q8 -33 32 -58t58 -35q59 -13 65 -16q77 -18 101.5 -27
t48.5 -29q52 -45 68 -110zM444 834l-132 -98q-7 -3 -12 0l-133 98q-8 5 -3 13.5t14 4.5l126 -55l129 55q8 4 13 -4.5t-2 -13.5z" />
    <glyph glyph-name="scaron" unicode="&#x161;" horiz-adv-x="444" 
d="M385 156q2 -15 3.5 -35.5t-8.5 -43.5t-26 -42.5t-49.5 -32t-78.5 -12.5q-66 0 -112 27t-57 70q-8 30 3.5 46t33.5 16q16 0 28 -9.5t16 -23.5v-3q1 -3 1 -6.5t-0.5 -8.5t-2.5 -9.5t-5.5 -9t-10 -7.5t-15.5 -5q34 -49 114 -49q39 0 65.5 12t35 29t12.5 35t-2 29
q-13 52 -92 66q-51 11 -67 16t-35 18q-40 26 -50 71q-1 12 -3 30t6 38.5t20.5 38t40.5 29t67 11.5q48 0 88.5 -22.5t51.5 -63.5q6 -16 2.5 -26.5t-6.5 -16.5t-10.5 -8.5t-10.5 -3t-6 -0.5q-13 0 -24 8.5t-15 21.5q1 2 -1 9t4.5 17.5t21.5 14.5q-27 42 -89 42
q-53 0 -71.5 -29t-11.5 -57q4 -15 11.5 -25t22.5 -16t25.5 -9t33.5 -7q129 -25 152 -114zM361 663l-131 -144q-8 -7 -15 0l-132 144q-7 7 -0.5 14.5t14.5 1.5l124 -99l125 99q8 6 15 -1.5t0 -14.5z" />
    <glyph glyph-name="Tcedilla" unicode="&#x162;" horiz-adv-x="778" 
d="M711 470q1 -7 1 -11.5t-3.5 -7t-12.5 -2.5t-14.5 4t-6.5 8l-1 4l-1 5l-1 5l-9 65q-1 14 -4 26q-13 51 -45 64t-113 13q-51 0 -58 -2q-13 -2 -13 -34v-537q0 -11 1 -17q2 -9 9 -12.5t27 -5.5q36 -2 51 -2h13q29 0 32 -14q5 -19 -16 -19q-20 0 -61 1.5t-61 1.5v-49
q67 -11 79 -58q5 -21 -1.5 -36.5t-24.5 -24.5t-35.5 -15t-46 -8t-43 -2.5t-38.5 -0.5q-27 0 -35 2t-11 12q-1 7 2.5 10t8 3.5t14.5 0.5h13q21 0 36.5 1t42.5 6t40 18t8 33q-8 31 -60 35q-19 0 -24 14v59q-20 0 -59 -1.5t-58 -1.5q-17 0 -21 14q-3 13 3 16t23 3h13q46 0 66 5
t24.5 14t4.5 32v525q0 18 -3 32q-16 2 -61 2q-55 0 -83.5 -4.5t-50 -22t-29.5 -47.5t-14 -86q-3 -30 -5 -31q-3 -3 -13 -3q-19 0 -23 14q-1 4 1 17l17 178q1 13 5 15.5t21 2.5h552q29 0 32 -14l3 -14z" />
    <glyph glyph-name="tcedilla" unicode="&#x163;" horiz-adv-x="361" 
d="M350 144q3 -9 -3.5 -37.5t-29.5 -63.5t-58 -47v-42q67 -11 79 -58q5 -21 -1.5 -36.5t-24.5 -24.5t-35.5 -15t-46 -8t-43 -2.5t-38.5 -0.5q-27 0 -35 2t-11 12q-1 7 2.5 10t8 3.5t14.5 0.5h13q21 0 36.5 1t42.5 6t40 18t8 33q-8 31 -60 35q-19 0 -24 14v53q-61 23 -77 85
q-4 13 -4 36v280h-85q-29 0 -32 14q-3 13 2.5 16t22.5 3h92v155q0 39 32 39q29 0 38 -28v-22v-144h85q29 0 32 -14q3 -13 -2.5 -16t-21.5 -3h-93v-307q0 -8 6 -29q10 -44 40 -44q70 0 93 122q1 6 1.5 8t2 4.5t4.5 3t9 0.5q18 0 21 -12z" />
    <glyph glyph-name="Tcaron" unicode="&#x164;" horiz-adv-x="778" 
d="M711 470q1 -7 1 -11.5t-3.5 -7t-12.5 -2.5t-14.5 4t-6.5 8l-1 4l-1 5l-1 5l-9 65q-1 14 -4 26q-13 51 -45 64t-113 13q-51 0 -58 -2q-13 -2 -13 -34v-537q0 -11 1 -17q2 -9 9 -12.5t27 -5.5q36 -2 51 -2h13q29 0 32 -14q5 -19 -16 -19q-20 0 -61.5 1.5t-61.5 1.5h-74
q-20 0 -59 -1.5t-58 -1.5q-17 0 -21 14q-3 13 3 16t23 3h13q46 0 66 5t24.5 14t4.5 32v525q0 18 -3 32q-16 2 -61 2q-55 0 -83.5 -4.5t-50 -22t-29.5 -47.5t-14 -86q-3 -30 -5 -31q-3 -3 -13 -3q-19 0 -23 14q-1 4 1 17l17 178q1 13 5 15.5t21 2.5h552q29 0 32 -14l3 -14z
M527 834l-132 -98q-7 -3 -12 0l-133 98q-8 5 -3 13.5t14 4.5l126 -55l129 55q8 4 13 -4.5t-2 -13.5z" />
    <glyph glyph-name="tcaron" unicode="&#x165;" horiz-adv-x="361" 
d="M350 144q2 -7 -3.5 -30t-17.5 -51.5t-40 -50.5t-65 -22q-39 0 -72.5 25t-44.5 67q-4 13 -4 36v280h-85q-29 0 -32 14q-3 13 2.5 16t22.5 3h92v155q0 39 32 39q29 0 38 -28v-22v-144h85q29 0 32 -14q3 -13 -2.5 -16t-21.5 -3h-93v-307q0 -8 6 -29q10 -44 40 -44
q70 0 93 122q1 6 1.5 8t2 4.5t4.5 3t9 0.5q18 0 21 -12zM300 650q10 -42 -4 -87t-33.5 -70t-27.5 -25q-10 0 -14 12q-1 3 5 9q56 56 55 133q-10 -8 -26 -8q-35 0 -44 33q-4 18 6.5 34t32.5 16q38 0 50 -47z" />
    <glyph glyph-name="Utilde" unicode="&#x168;" horiz-adv-x="806" 
d="M733 669q4 -17 -12 -19q-18 -1 -27.5 -3t-24.5 -8.5t-22 -22t-7 -40.5v-359q0 -88 -63 -163t-161 -75q-80 0 -149.5 51t-91.5 140q-9 32 -9 59v384v22q-4 15 -60 15q-30 0 -33 14q-5 19 15 19l60 -3h120q54 3 57 3q17 0 20 -14q3 -13 -3 -16t-26 -3q-44 0 -55 -8t-11 -35
l1 -389q0 -43 9 -76q17 -68 60.5 -99t90.5 -31q77 0 132 63.5t55 153.5v357q1 15 -1 24q-9 38 -70 40q-19 0 -23 14q-5 19 16 19q1 0 10.5 -0.5t32 -1.5t56.5 -1q19 0 35.5 0.5t26.5 1t17.5 0.5h11.5l4 1q14 0 19 -14zM594 828q3 -11 -41 -53q-38 -41 -74 -41q-31 0 -64 38
q-27 29 -43 29q-29 0 -81 -59q-6 -8 -13 -8q-12 0 -16 14q-3 10 40 53q41 41 74 41q20 0 35 -10.5t35 -33.5q22 -23 37 -23q7 0 15.5 3.5t15.5 8.5t15.5 12t13.5 12t11.5 12t7.5 8q7 11 14 11q14 0 18 -14z" />
    <glyph glyph-name="utilde" unicode="&#x169;" horiz-adv-x="583" 
d="M573 143q2 -60 -9 -100q-15 -53 -64 -53q-70 0 -104 61q-38 -61 -104 -61q-51 0 -94.5 28.5t-59.5 91.5q-7 26 -6.5 65t2.5 60.5t9 79.5q6 45 0 67q-7 31 -30 31q-31 0 -47.5 -33t-18.5 -84v-11t-2 -6t-5 -3.5t-9 -0.5q-20 0 -23 13q-2 7 1 29.5t11 51.5t31 50.5t57 21.5
q35 0 65 -22t40 -61q5 -21 1 -50q-7 -54 -9.5 -83.5t-2 -66t7.5 -62.5q18 -78 79 -78q44 0 67.5 36t23.5 62l-1 275q0 40 32 40q30 0 38 -29q1 -3 1 -19l1 -292q0 -15 4 -29q11 -44 40 -44q40 0 40 110q-1 19 1.5 23.5t14.5 4.5q19 0 22 -13zM459 639q3 -11 -41 -53
q-38 -41 -74 -41q-31 0 -64 38q-27 29 -43 29q-29 0 -81 -59q-6 -8 -13 -8q-13 0 -16 14q-3 10 40 53q41 41 74 41q20 0 35 -10.5t35 -33.5q22 -23 37 -23q7 0 15.5 3.5t15.5 8.5t15.5 12t13.5 12t11.5 12t7.5 8q7 11 14 11q15 0 18 -14z" />
    <glyph glyph-name="Umacron" unicode="&#x16a;" horiz-adv-x="806" 
d="M733 669q4 -17 -12 -19q-18 -1 -27.5 -3t-24.5 -8.5t-22 -22t-7 -40.5v-359q0 -88 -63 -163t-161 -75q-80 0 -149.5 51t-91.5 140q-9 32 -9 59v384v22q-4 15 -60 15q-30 0 -33 14q-5 19 15 19l60 -3h120q54 3 57 3q17 0 20 -14q3 -13 -3 -16t-26 -3q-44 0 -55 -8t-11 -35
l1 -389q0 -43 9 -76q17 -68 60.5 -99t90.5 -31q77 0 132 63.5t55 153.5v357q1 15 -1 24q-9 38 -70 40q-19 0 -23 14q-5 19 16 19q1 0 10.5 -0.5t32 -1.5t56.5 -1q19 0 35.5 0.5t26.5 1t17.5 0.5h11.5l4 1q14 0 19 -14zM607 776q3 -10 -0.5 -15t-8.5 -6t-17 -1h-302
q-28 0 -32 14q0 8 -0.5 12.5t4.5 6.5t8.5 2.5t12.5 0.5h302q29 0 33 -14z" />
    <glyph glyph-name="umacron" unicode="&#x16b;" horiz-adv-x="583" 
d="M573 143q2 -60 -9 -100q-15 -53 -64 -53q-70 0 -104 61q-38 -61 -104 -61q-51 0 -94.5 28.5t-59.5 91.5q-7 26 -6.5 65t2.5 60.5t9 79.5q6 45 0 67q-7 31 -30 31q-31 0 -47.5 -33t-18.5 -84v-11t-2 -6t-5 -3.5t-9 -0.5q-20 0 -23 13q-2 7 1 29.5t11 51.5t31 50.5t57 21.5
q35 0 65 -22t40 -61q5 -21 1 -50q-7 -54 -9.5 -83.5t-2 -66t7.5 -62.5q18 -78 79 -78q44 0 67.5 36t23.5 62l-1 275q0 40 32 40q30 0 38 -29q1 -3 1 -19l1 -292q0 -15 4 -29q11 -44 40 -44q40 0 40 110q-1 19 1.5 23.5t14.5 4.5q19 0 22 -13zM472 603q3 -10 -0.5 -15
t-8.5 -6t-17 -1h-302q-28 0 -32 14q0 8 -0.5 12.5t4.5 6.5t8.5 2.5t12.5 0.5h302q29 0 33 -14z" />
    <glyph glyph-name="Ubreve" unicode="&#x16c;" horiz-adv-x="806" 
d="M733 669q4 -17 -12 -19q-18 -1 -27.5 -3t-24.5 -8.5t-22 -22t-7 -40.5v-359q0 -88 -63 -163t-161 -75q-80 0 -149.5 51t-91.5 140q-9 32 -9 59v384v22q-4 15 -60 15q-30 0 -33 14q-5 19 15 19l60 -3h120q54 3 57 3q17 0 20 -14q3 -13 -3 -16t-26 -3q-44 0 -55 -8t-11 -35
l1 -389q0 -43 9 -76q17 -68 60.5 -99t90.5 -31q77 0 132 63.5t55 153.5v357q1 15 -1 24q-9 38 -70 40q-19 0 -23 14q-5 19 16 19q1 0 10.5 -0.5t32 -1.5t56.5 -1q19 0 35.5 0.5t26.5 1t17.5 0.5h11.5l4 1q14 0 19 -14zM578 905q5 -21 -7 -57t-49.5 -70t-91.5 -34
q-55 0 -97 35t-55 88q-13 52 6 52q15 0 18 -15l1 -11q1 -11 3 -19q10 -39 42 -63.5t75 -24.5q16 0 33.5 5t38.5 17t36.5 37.5t18.5 60.5q0 13 11 13q13 0 17 -14z" />
    <glyph glyph-name="ubreve" unicode="&#x16d;" horiz-adv-x="583" 
d="M573 143q2 -60 -9 -100q-15 -53 -64 -53q-70 0 -104 61q-38 -61 -104 -61q-51 0 -94.5 28.5t-59.5 91.5q-7 26 -6.5 65t2.5 60.5t9 79.5q6 45 0 67q-7 31 -30 31q-31 0 -47.5 -33t-18.5 -84v-11t-2 -6t-5 -3.5t-9 -0.5q-20 0 -23 13q-2 7 1 29.5t11 51.5t31 50.5t57 21.5
q35 0 65 -22t40 -61q5 -21 1 -50q-7 -54 -9.5 -83.5t-2 -66t7.5 -62.5q18 -78 79 -78q44 0 67.5 36t23.5 62l-1 275q0 40 32 40q30 0 38 -29q1 -3 1 -19l1 -292q0 -15 4 -29q11 -44 40 -44q40 0 40 110q-1 19 1.5 23.5t14.5 4.5q19 0 22 -13zM443 672q5 -21 -7 -57
t-49.5 -70t-91.5 -34q-55 0 -97 35t-55 88q-13 52 6 52q15 0 18 -15l1 -11q1 -11 3 -19q10 -39 42 -63.5t75 -24.5q16 0 33.5 5t38.5 17t36.5 37.5t18.5 60.5q0 13 11 13q14 0 17 -14z" />
    <glyph glyph-name="Uring" unicode="&#x16e;" horiz-adv-x="806" 
d="M733 669q4 -17 -12 -19q-18 -1 -27.5 -3t-24.5 -8.5t-22 -22t-7 -40.5v-359q0 -88 -63 -163t-161 -75q-80 0 -149.5 51t-91.5 140q-9 32 -9 59v384v22q-4 15 -60 15q-30 0 -33 14q-5 19 15 19l60 -3h120q54 3 57 3q17 0 20 -14q3 -13 -3 -16t-26 -3q-44 0 -55 -8t-11 -35
l1 -389q0 -43 9 -76q17 -68 60.5 -99t90.5 -31q77 0 132 63.5t55 153.5v357q1 15 -1 24q-9 38 -70 40q-19 0 -23 14q-5 19 16 19q1 0 10.5 -0.5t32 -1.5t56.5 -1q19 0 35.5 0.5t26.5 1t17.5 0.5h11.5l4 1q14 0 19 -14zM483 823q-9 32 -57 32q-36 0 -49 -21.5t-5 -52.5
q8 -32 54 -32q22 0 36 8t18.5 16.5t5 22t-0.5 18t-2 9.5zM527 821q10 -42 -21 -74.5t-79 -32.5q-33 0 -62 18t-38 52q-10 41 20.5 73.5t79.5 32.5q35 0 63.5 -19t36.5 -50z" />
    <glyph glyph-name="uring" unicode="&#x16f;" horiz-adv-x="583" 
d="M573 143q2 -60 -9 -100q-15 -53 -64 -53q-70 0 -104 61q-38 -61 -104 -61q-51 0 -94.5 28.5t-59.5 91.5q-7 26 -6.5 65t2.5 60.5t9 79.5q6 45 0 67q-7 31 -30 31q-31 0 -47.5 -33t-18.5 -84v-11t-2 -6t-5 -3.5t-9 -0.5q-20 0 -23 13q-2 7 1 29.5t11 51.5t31 50.5t57 21.5
q35 0 65 -22t40 -61q5 -21 1 -50q-7 -54 -9.5 -83.5t-2 -66t7.5 -62.5q18 -78 79 -78q44 0 67.5 36t23.5 62l-1 275q0 40 32 40q30 0 38 -29q1 -3 1 -19l1 -292q0 -15 4 -29q11 -44 40 -44q40 0 40 110q-1 19 1.5 23.5t14.5 4.5q19 0 22 -13zM348 636q-9 32 -57 32
q-37 0 -49.5 -21.5t-4.5 -52.5q8 -32 54 -32q72 0 57 74zM392 634q10 -42 -21 -74.5t-79 -32.5q-33 0 -62 18t-38 52q-10 41 20.5 73.5t79.5 32.5q35 0 63.5 -19t36.5 -50z" />
    <glyph glyph-name="Uhungarumlaut" unicode="&#x170;" horiz-adv-x="806" 
d="M733 669q4 -17 -12 -19q-18 -1 -27.5 -3t-24.5 -8.5t-22 -22t-7 -40.5v-359q0 -88 -63 -163t-161 -75q-80 0 -149.5 51t-91.5 140q-9 32 -9 59v384v22q-4 15 -60 15q-30 0 -33 14q-5 19 15 19l60 -3h120q54 3 57 3q17 0 20 -14q3 -13 -3 -16t-26 -3q-44 0 -55 -8t-11 -35
l1 -389q0 -43 9 -76q17 -68 60.5 -99t90.5 -31q77 0 132 63.5t55 153.5v357q1 15 -1 24q-9 38 -70 40q-19 0 -23 14q-5 19 16 19q1 0 10.5 -0.5t32 -1.5t56.5 -1q19 0 35.5 0.5t26.5 1t17.5 0.5h11.5l4 1q14 0 19 -14zM427 907q3 -14 -8 -31l-80 -120q-8 -12 -17 -12
q-22 5 -25 18q-2 6 3 17l57 135q10 23 30 23q15 0 26 -9.5t14 -20.5zM594 907q3 -14 -8 -31l-80 -120q-8 -12 -16 -12q-23 5 -26 18q-2 6 3 17l57 135q10 23 30 23q15 0 26 -9.5t14 -20.5z" />
    <glyph glyph-name="uhungarumlaut" unicode="&#x171;" horiz-adv-x="583" 
d="M573 143q2 -60 -9 -100q-15 -53 -64 -53q-70 0 -104 61q-38 -61 -104 -61q-51 0 -94.5 28.5t-59.5 91.5q-7 26 -6.5 65t2.5 60.5t9 79.5q6 45 0 67q-7 31 -30 31q-31 0 -47.5 -33t-18.5 -84v-11t-2 -6t-5 -3.5t-9 -0.5q-20 0 -23 13q-2 7 1 29.5t11 51.5t31 50.5t57 21.5
q35 0 65 -22t40 -61q5 -21 1 -50q-7 -54 -9.5 -83.5t-2 -66t7.5 -62.5q18 -78 79 -78q44 0 67.5 36t23.5 62l-1 275q0 40 32 40q30 0 38 -29q1 -3 1 -19l1 -292q0 -15 4 -29q11 -44 40 -44q40 0 40 110q-1 19 1.5 23.5t14.5 4.5q19 0 22 -13zM292 665q4 -13 -8 -31l-80 -120
q-8 -12 -16 -12q-23 5 -26 18q-2 6 4 17l57 135q8 23 29 23q15 0 26 -9.5t14 -20.5zM459 665q5 -16 -8 -31l-80 -120q-8 -12 -16 -12q-23 5 -26 18q-2 6 4 17l57 135q8 23 29 23q15 0 26 -9.5t14 -20.5z" />
    <glyph glyph-name="Uogonek" unicode="&#x172;" horiz-adv-x="806" 
d="M733 669q4 -17 -12 -19q-18 -1 -28 -3t-25 -8.5t-22 -22t-6 -40.5v-359q0 -88 -63 -163t-161 -75h-3l-4 -4q-37 -34 -36 -70q1 -32 30 -50.5t61 -18.5q53 0 76 56q3 8 11 5t7 -12q-10 -42 -44 -69t-73 -27q-47 0 -80 27t-35 63q-1 52 53 103q-70 11 -127 60t-77 128
q-9 32 -9 59v384v22q-4 15 -60 15q-30 0 -33 14q-5 19 15 19l60 -3h120q54 3 57 3q17 0 20 -14q3 -13 -3 -16t-26 -3q-44 0 -55 -8t-11 -35l1 -389q0 -43 9 -76q17 -68 60.5 -99t90.5 -31q77 0 132 63.5t55 153.5v357v24q-10 38 -71 40q-19 0 -23 14q-5 19 16 19
q1 0 10.5 -0.5t32 -1.5t56.5 -1q19 0 35.5 0.5t26.5 1t17.5 0.5h11.5l4 1q14 0 19 -14z" />
    <glyph glyph-name="uogonek" unicode="&#x173;" horiz-adv-x="583" 
d="M613 -115q-10 -42 -43.5 -69t-72.5 -27q-47 0 -80 27t-35 63q-1 62 73 120q-39 15 -59 52q-38 -61 -104 -61q-51 0 -94.5 28.5t-59.5 91.5q-7 26 -6.5 65t2.5 60.5t9 79.5q6 45 0 67q-7 31 -30 31q-31 0 -47.5 -33t-18.5 -84v-11t-2 -6t-5 -3.5t-9 -0.5q-20 0 -23 13
q-2 7 1 29.5t11 51.5t31 50.5t57 21.5q35 0 65 -22t40 -61q5 -21 1 -50q-7 -54 -9.5 -83.5t-2 -66t7.5 -62.5q18 -78 79 -78q44 0 67.5 36t23.5 62l-1 275q0 40 32 40q30 0 38 -29q1 -3 1 -19l1 -292q0 -15 4 -29q11 -44 40 -44q40 0 40 110q-1 19 1.5 23.5t14.5 4.5
q19 0 22 -13q2 -60 -9 -100q-15 -53 -64 -53q-9 0 -16 1l-18 -16q-37 -33 -37 -70q1 -32 30 -50.5t60 -18.5q53 0 76 56q4 8 11.5 5t6.5 -12z" />
    <glyph glyph-name="Wcircumflex" unicode="&#x174;" horiz-adv-x="1083" 
d="M1036 669q3 -8 0 -12t-6 -5t-11 -2q-10 -1 -18 -3.5t-20.5 -10t-24 -25.5t-19.5 -45l-179 -565q-3 -10 -7.5 -15t-8.5 -6t-12 -1q-20 0 -25 18l-3 8l-160 504l-162 -509q-7 -21 -27 -21q-15 0 -19.5 5t-10.5 23l-195 611q-7 21 -14.5 26.5t-37.5 5.5q-26 0 -29 14
q-5 19 14 19q3 0 10.5 -0.5t29.5 -1.5t61 -1q18 0 55 1.5t54 1.5q15 0 18 -14q3 -13 -2 -16t-15 -3q-32 0 -47 -7.5t-13.5 -17t3.5 -20.5l158 -495l148 463l-18 57q-5 11 -14 15.5t-35 4.5q-25 0 -29 14q-4 19 15 19q2 0 9.5 -0.5t30 -1.5t60.5 -1q18 0 54.5 1.5t53.5 1.5
q16 0 20 -14q3 -13 -2.5 -16t-16.5 -3q-32 0 -46.5 -7.5t-12.5 -17.5l4 -20l158 -495l149 467q8 20 4 38q-9 33 -57 35q-18 0 -22 14q-4 19 16 19q1 0 12 -0.5t34 -1.5t52 -1q47 0 62.5 1.5t16.5 1.5q13 0 17 -14zM679 753q8 -5 3.5 -13.5t-12.5 -4.5l-128 55l-128 -55
q-9 -4 -14 4.5t3 13.5l133 98q3 3 12 0z" />
    <glyph glyph-name="wcircumflex" unicode="&#x175;" horiz-adv-x="722" 
d="M656 368q11 -40 10 -124.5t-12 -136.5q-23 -117 -114 -117q-90 0 -138 62q-27 -62 -89 -62q-23 0 -45.5 4.5t-49.5 17t-48.5 39.5t-31.5 66q-8 30 -7 70.5t12 127.5q6 45 0 67q-7 31 -30 31q-31 0 -47.5 -33t-18.5 -84v-11t-2 -6t-5 -3.5t-9 -0.5q-20 0 -23 13
q-2 7 1 29.5t11 51.5t31 50.5t57 21.5q35 0 65 -22t40 -61q5 -21 -1 -61q-17 -139 -4 -192q22 -87 100 -87q34 0 52 35q18 36 12 67q-6 29 -6 53v218q0 40 32 40q30 0 38 -29q1 -3 1 -43v-56v-101q0 -73 7 -100q21 -84 93 -84q65 0 81 91q7 33 8.5 91t-5.5 90q-12 48 -46 76
q-17 13 -20 27q-5 20 7.5 34t29.5 14q10 0 20 -4.5t23.5 -22t20.5 -46.5zM500 534q7 -7 0.5 -14.5t-14.5 -1.5l-125 99l-125 -99q-7 -6 -13.5 1t-1.5 15l132 144q7 8 15 0z" />
    <glyph glyph-name="Ycircumflex" unicode="&#x176;" horiz-adv-x="806" 
d="M763 669q4 -8 0.5 -12t-6.5 -5t-10 -2q-66 -7 -111 -75l-192 -302v-226q3 -14 59 -14q30 0 34 -14q5 -19 -15 -19l-13 1q-13 1 -41.5 1.5t-65.5 0.5h-58q-54 -3 -57 -3q-15 0 -19 14q-3 13 2.5 16t18.5 3q52 1 61.5 9.5t9.5 57.5v172l-219 349q-11 17 -23 23t-49 6
q-24 0 -27 14q-5 19 15 19q2 0 10.5 -0.5t33 -1.5t63.5 -1q19 0 57 1.5t56 1.5q17 0 19 -14q3 -13 -2.5 -16t-16.5 -3q-51 0 -46 -21q1 -7 9 -17l186 -292l166 260l6 10q1 1 1.5 4t2.5 5q5 8 7 16t1 12v4q-5 17 -33 19q-17 1 -20 14q-5 19 15 19q1 0 11.5 -0.5t32.5 -1.5
t49 -1q25 0 41 0.5t21.5 1t10 1t8.5 0.5q14 0 17 -14zM540 753q8 -5 3.5 -13.5t-12.5 -4.5l-128 55l-128 -55q-9 -4 -14 4.5t3 13.5l133 98q3 3 12 0z" />
    <glyph glyph-name="ycircumflex" unicode="&#x177;" horiz-adv-x="528" 
d="M450 -9q-1 -73 -52 -134t-132 -61q-45 0 -80.5 24.5t-45.5 62.5q-9 33 4.5 47t31.5 14q17 0 29 -9.5t16 -23.5q5 -17 -4 -31.5t-29 -18.5q26 -37 72 -37q60 0 94 63q27 54 25 140q-32 -37 -87 -37q-51 0 -94.5 28.5t-59.5 91.5q-7 26 -6.5 65t2.5 60.5t9 79.5q6 45 0 67
q-7 31 -30 31q-31 0 -47.5 -33t-18.5 -84v-11t-2 -6t-5 -3.5t-9 -0.5q-20 0 -23 13q-2 7 1 29.5t11 51.5t31 50.5t57 21.5q35 0 65 -22t40 -61q5 -21 1 -50q-7 -54 -9.5 -83.5t-2 -66t7.5 -62.5q18 -78 79 -78q44 0 67.5 36t23.5 62l-1 275q0 40 32 40q30 0 38 -29v-3.5
t0.5 -5.5t0.5 -10v-392zM403 534q7 -7 0.5 -14.5t-14.5 -1.5l-125 99l-125 -99q-7 -6 -13.5 1t-1.5 15l132 144q8 8 15 0z" />
    <glyph glyph-name="Ydieresis" unicode="&#x178;" horiz-adv-x="806" 
d="M763 669q4 -8 0.5 -12t-6.5 -5t-10 -2q-66 -7 -111 -75l-192 -302v-226q3 -14 59 -14q30 0 34 -14q5 -19 -15 -19l-13 1q-13 1 -41.5 1.5t-65.5 0.5h-58q-54 -3 -57 -3q-15 0 -19 14q-3 13 2.5 16t18.5 3q52 1 61.5 9.5t9.5 57.5v172l-219 349q-11 17 -23 23t-49 6
q-24 0 -27 14q-5 19 15 19q2 0 10.5 -0.5t33 -1.5t63.5 -1q19 0 57 1.5t56 1.5q17 0 19 -14q3 -13 -2.5 -16t-16.5 -3q-51 0 -46 -21q1 -7 9 -17l186 -292l166 260l6 10q1 1 1.5 4t2.5 5q5 8 7 16t1 12v4q-5 17 -33 19q-17 1 -20 14q-5 19 15 19q1 0 11.5 -0.5t32.5 -1.5
t49 -1q25 0 41 0.5t21.5 1t10 1t8.5 0.5q14 0 17 -14zM342 793q6 -24 -9 -41.5t-38 -17.5q-17 0 -32 11.5t-20 30.5q-6 23 8 40.5t38 17.5q15 0 31.5 -10t21.5 -31zM563 793q7 -24 -8 -41.5t-38 -17.5q-17 0 -32.5 11.5t-20.5 30.5q-5 23 9 40.5t38 17.5q15 0 31 -10t21 -31
z" />
    <glyph glyph-name="Zacute" unicode="&#x179;" horiz-adv-x="667" 
d="M588 255q0 -3 -1 -13l-14 -224q-1 -13 -5.5 -15.5t-21.5 -2.5h-435q-25 0 -28 11q-3 14 6 27l396 612h-154q-104 0 -145.5 -41t-48.5 -130q-1 -12 -2 -15.5t-4 -5.5t-10 -2q-20 0 -23 14q-1 3 0 12l10 181q1 14 4.5 17t21.5 3h418q25 0 28 -11q3 -10 -6 -26l-394 -610
h163q44 0 76.5 6.5t54 21t35 30t21 42.5t11 49t6.5 59q2 17 4.5 21t13.5 4q19 0 23 -14zM483 870q0 -20 -21 -30l-167 -91q-7 -5 -14 -5q-8 1 -14.5 9.5t-6.5 14.5q-1 9 10 16l150 114q10 9 23 9q16 0 27.5 -10.5t12.5 -26.5z" />
    <glyph glyph-name="zacute" unicode="&#x17a;" horiz-adv-x="444" 
d="M434 145q3 -13 -2.5 -37.5t-18.5 -51t-41 -46.5t-64 -20t-76 37q-40 34 -63 34q-41 0 -64 -57q-3 -10 -5.5 -12t-12.5 -2q-20 0 -23 12q-2 9 16.5 47.5t46.5 77.5q19 26 75 91q85 97 100 124q-26 1 -70 16q-37 14 -62 14q-60 0 -67 -49q-2 -11 -17 -11q-19 0 -22 12
q-7 28 19.5 72.5t78.5 44.5q34 0 78 -37q38 -34 59 -34q16 0 25.5 11.5t23.5 49.5q3 10 17 10q20 0 23 -12q3 -13 -36 -83q-7 -14 -57 -80l-88 -101l-57 -76q40 0 79 -13q53 -17 72 -17q36 0 63.5 23.5t31.5 58.5q0 8 0.5 10.5t4 4.5t11.5 2q19 0 22 -13zM349 665
q4 -20 -14 -35l-140 -122q-8 -7 -12 -7q-7 0 -15 7.5t-10 13.5q-2 9 7 18l120 143q10 13 25 13q12 0 23.5 -8t15.5 -23z" />
    <glyph glyph-name="Zdotaccent" unicode="&#x17b;" horiz-adv-x="667" 
d="M588 255q0 -3 -1 -13l-14 -224q-1 -13 -5.5 -15.5t-21.5 -2.5h-435q-25 0 -28 11q-3 14 6 27l396 612h-154q-104 0 -145.5 -41t-48.5 -130q-1 -12 -2 -15.5t-4 -5.5t-10 -2q-20 0 -23 14q-1 3 0 12l10 181q1 14 4.5 17t21.5 3h418q25 0 28 -11q3 -10 -6 -26l-394 -610
h163q44 0 76.5 6.5t54 21t35 30t21 42.5t11 49t6.5 59q2 17 4.5 21t13.5 4q19 0 23 -14zM388 821q7 -26 -9.5 -45.5t-41.5 -19.5q-19 0 -36 12.5t-22 33.5q-7 25 9 45t42 20q17 0 34.5 -11t23.5 -35z" />
    <glyph glyph-name="zdotaccent" unicode="&#x17c;" horiz-adv-x="444" 
d="M434 145q3 -13 -2.5 -37.5t-18.5 -51t-41 -46.5t-64 -20t-76 37q-40 34 -63 34q-41 0 -64 -57q-3 -10 -5.5 -12t-12.5 -2q-20 0 -23 12q-2 9 16.5 47.5t46.5 77.5q19 26 75 91q85 97 100 124q-26 1 -70 16q-37 14 -62 14q-60 0 -67 -49q-2 -11 -17 -11q-19 0 -22 12
q-7 28 19.5 72.5t78.5 44.5q34 0 78 -37q38 -34 59 -34q16 0 25.5 11.5t23.5 49.5q3 10 17 10q20 0 23 -12q3 -13 -36 -83q-7 -14 -57 -80l-88 -101l-57 -76q40 0 79 -13q53 -17 72 -17q36 0 63.5 23.5t31.5 58.5q0 8 0.5 10.5t4 4.5t11.5 2q19 0 22 -13zM278 608
q7 -26 -9.5 -45.5t-42.5 -19.5q-19 0 -35.5 12.5t-22.5 33.5q-6 25 10 45t42 20q17 0 34.5 -11t23.5 -35z" />
    <glyph glyph-name="Zcaron" unicode="&#x17d;" horiz-adv-x="667" 
d="M588 255q0 -3 -1 -13l-14 -224q-1 -13 -5.5 -15.5t-21.5 -2.5h-435q-25 0 -28 11q-3 14 6 27l396 612h-154q-104 0 -145.5 -41t-48.5 -130q-1 -12 -2 -15.5t-4 -5.5t-10 -2q-20 0 -23 14q-1 3 0 12l10 181q1 14 4.5 17t21.5 3h418q25 0 28 -11q3 -10 -6 -26l-394 -610
h163q44 0 76.5 6.5t54 21t35 30t21 42.5t11 49t6.5 59q2 17 4.5 21t13.5 4q19 0 23 -14zM472 834l-132 -98q-7 -3 -12 0l-133 98q-8 5 -3 13.5t14 4.5l126 -55l129 55q8 4 13 -4.5t-2 -13.5z" />
    <glyph glyph-name="zcaron" unicode="&#x17e;" horiz-adv-x="444" 
d="M434 145q3 -13 -2.5 -37.5t-18.5 -51t-41 -46.5t-64 -20t-76 37q-40 34 -63 34q-41 0 -64 -57q-3 -10 -5.5 -12t-12.5 -2q-20 0 -23 12q-2 9 16.5 47.5t46.5 77.5q19 26 75 91q85 97 100 124q-26 1 -70 16q-37 14 -62 14q-60 0 -67 -49q-2 -11 -17 -11q-19 0 -22 12
q-7 28 19.5 72.5t78.5 44.5q34 0 78 -37q38 -34 59 -34q16 0 25.5 11.5t23.5 49.5q3 10 17 10q20 0 23 -12q3 -13 -36 -83q-7 -14 -57 -80l-88 -101l-57 -76q40 0 79 -13q53 -17 72 -17q36 0 63.5 23.5t31.5 58.5q0 8 0.5 10.5t4 4.5t11.5 2q19 0 22 -13zM361 663l-131 -144
q-8 -7 -15 0l-132 144q-7 7 -0.5 14.5t14.5 1.5l124 -99l125 99q8 6 15 -1.5t0 -14.5z" />
    <glyph glyph-name="longs" unicode="&#x17f;" horiz-adv-x="333" 
d="M317 637q-2 -55 -38 -55q-14 0 -29 7.5t-15 26.5q0 38 22 47q-8 6 -18.5 9t-16.5 4h-7q-23 0 -28.5 -24t-5.5 -72l30 -494q0 -137 -7 -179q-17 -111 -90 -111q-33 0 -65 17.5t-40 49.5q2 55 38 55q14 0 29 -7.5t15 -26.5q2 -37 -22 -48q18 -12 40 -12q35 0 35 79v134
l-23 361h-66q-31 0 -32 14q1 13 6 16t19 3h65l-1 109v17.5t0.5 24.5t2.5 26t5.5 28.5t11 25.5t17.5 22t25.5 14t34.5 6q37 0 68.5 -18t39.5 -49z" />
    <glyph glyph-name="Ereversed" unicode="&#x18e;" horiz-adv-x="736" 
d="M679 14q-4 -14 -32 -14h-509q-16 0 -20 2.5t-6 15.5l-39 211q-2 10 -1 17q4 14 23 14q10 0 12 -3t6 -20q9 -48 16.5 -75.5t22 -55.5t35.5 -42t55 -22.5t83 -8.5h144q19 0 29 2q2 22 2 27v275h-98q-50 0 -67 -10t-23 -32q-5 -23 -5 -47q2 -9 0 -14q-4 -14 -23 -14
q-11 0 -13.5 4t-2.5 17v213q0 4 0.5 7.5t0 5t0 3t0.5 2.5q4 15 23 15q11 0 13.5 -4t2.5 -21q1 -57 20.5 -74.5t80.5 -17.5h91l1 241q0 26 -6.5 31t-32.5 5h-142q-83 0 -118.5 -22.5t-50.5 -82.5q-7 -27 -10 -58q-1 -2 -1 -7t-1 -8q-4 -16 -24 -16q-12 0 -14 5.5t0 18.5
l24 175l3 14q3 14 32 14h494q11 0 15.5 -0.5t8 -4.5t1.5 -13q-2 -7 -6.5 -10.5t-10 -4t-17.5 -0.5q-15 0 -22.5 -0.5t-17 -1.5t-14 -4.5t-5.5 -9.5q-2 -7 -2 -22v-533q0 -27 11 -35t55 -8q13 0 18.5 -0.5t9 -5t1.5 -13.5z" />
    <glyph glyph-name="florin" unicode="&#x192;" horiz-adv-x="333" 
d="M317 637q6 -23 -5 -39t-33 -16q-36 0 -44 34t22 47q-18 13 -42 13q-14 0 -22 -8t-10 -22t-2.5 -31t0.5 -35q1 -17 9 -149h83q29 0 33 -14q3 -13 -3.5 -16t-22.5 -3h-88l19 -312q5 -44 3 -94.5t-8.5 -94t-30 -72.5t-61.5 -29q-33 0 -65 17.5t-40 49.5q-5 23 5.5 39
t32.5 16q36 0 44 -34q9 -33 -22 -48q18 -12 40 -12q37 0 37 79q2 67 -2 134l-23 361h-66q-28 0 -32 14q-3 13 3 16t22 3h71l-7 109q-9 164 97 164q37 0 68.5 -18t39.5 -49z" />
    <glyph glyph-name="Ohorn" unicode="&#x1a0;" horiz-adv-x="833" 
d="M748 338q-2 -152 -98 -254q-97 -105 -235 -105q-136 0 -235 105q-63 69 -86 159q-10 44 -10 95q-2 151 96 259q46 50 107 78.5t128 28.5q93 0 174 -54q34 1 56 33h-2q-21 0 -36.5 12.5t-20.5 31.5q-7 26 7.5 46.5t42.5 20.5q21 0 37 -14t22 -36q2 -12 1 -19
q1 -37 -18.5 -66t-50.5 -39q12 -11 23 -23q61 -67 85 -160q11 -46 13 -99zM652 355q0 68 -13 117q-17 65 -50 109q-69 92 -174 92q-103 0 -173 -92q-64 -84 -64 -226q0 -75 15 -134q15 -61 49 -111q69 -98 173 -98q52 0 97.5 26.5t76.5 71.5q65 97 63 245z" />
    <glyph glyph-name="ohorn" unicode="&#x1a1;" 
d="M501 473q1 -38 -20 -68t-53 -38q35 -41 49 -94q7 -28 7 -61q0 -93 -59 -157q-60 -65 -146 -65q-87 0 -149 68q-38 41 -54 100q-7 33 -7 60q0 92 60 157q60 66 144 66q66 0 122 -43q34 2 54 32h-1q-21 0 -37.5 13t-21.5 32q-6 26 9 46t43 21q44 -2 57 -50q4 -14 3 -19z
M401 218q0 51 -9 90q-8 29 -22 52q-36 53 -91 53q-58 0 -95 -57q-33 -50 -31 -144q-1 -48 8 -89q7 -28 23 -52q33 -54 89 -54q57 0 96 57q32 49 32 144z" />
    <glyph glyph-name="Uhorn" unicode="&#x1af;" horiz-adv-x="806" 
d="M744 722q0 -44 -30.5 -77.5t-73.5 -38.5v-382q0 -98 -67 -173q-62 -72 -156 -72q-103 0 -178 75q-49 50 -65 116q-8 32 -8 61v386v20l-5 7q-11 6 -70 6h-1l-4 1q-12 2 -14 13v3v6q0 10 11 10h3l123 -3l119 3h2q11 -3 14 -14l1 -3l-1 -5q1 -4 -2 -7.5t-8 -3.5
q-61 0 -73 -7q-11 -5 -11 -32v-387q0 -50 9 -82q11 -41 33 -71q48 -59 119 -59q81 0 136 63q51 58 51 156v358v21q0 14 -11 25q-19 15 -60 15l-4 1q-10 1 -14 13v3l-1 6q2 10 12 10h99h2h-98q49 -3 97 -3l3 3q9 -3 17 -14v-3v-22q33 8 53 39h-2q-22 0 -38 12.5t-21 31.5
q-6 26 8.5 46.5t42.5 20.5q43 0 58 -51z" />
    <glyph glyph-name="uhorn" unicode="&#x1b0;" horiz-adv-x="583" 
d="M573 140q-1 -76 -15.5 -113t-56.5 -37q-69 0 -106 60q-35 -60 -102 -60q-77 0 -120 50q-23 28 -35 69q-7 29 -7 67q-1 43 13 151q5 31 -2 56q-7 30 -28 30q-33 0 -49.5 -35t-16.5 -94q0 -9 -10 -9h-14h-3q-9 3 -13 12l1 3q-1 64 25 107.5t73 43.5q38 0 67.5 -23.5
t38.5 -59.5q5 -20 2 -39q-13 -96 -14 -149q0 -46 8 -75q6 -24 17 -42q21 -36 61 -36q66 0 93 87l-1 6v289q0 14 9.5 22.5t23.5 8.5q13 0 23.5 -7.5t13.5 -20.5q1 -4 1 -7q28 10 50 35h-1q-22 0 -37.5 13t-20.5 32q-7 26 7.5 46t43.5 21q20 -1 36 -15.5t21 -35.5q3 -11 3 -22
q0 -42 -28.5 -73t-72.5 -40l-1 -251q0 -25 6 -45q11 -43 39 -43q22 0 30 30t8 99q0 10 10 10h14l3 -1q10 -2 12 -12z" />
    <glyph glyph-name="Acaron" unicode="&#x1cd;" horiz-adv-x="806" 
d="M744 19q4 -19 -15 -19q-3 0 -9.5 0.5t-15 1t-30.5 1t-52 0.5q-19 0 -56.5 -1.5t-55.5 -1.5q-16 0 -19 14q-3 13 2.5 16t19.5 3q29 0 42 7t12 16.5t-4 19.5l-54 155h-257q-4 -12 -11.5 -35t-17.5 -49q-23 -70 -19 -83q7 -28 45 -31q18 0 22 -14q4 -19 -16 -19l-11 1
q-10 1 -32 1.5t-51 0.5q-30 0 -48.5 -0.5t-25 -1.5t-8.5 -1q-14 0 -18 14q-2 8 0.5 12t6 5t11.5 2q66 6 94 85l201 575q8 21 29 21q13 0 18.5 -5t11.5 -22l218 -621q5 -14 8.5 -19.5t16 -9.5t36.5 -4q28 0 32 -14zM497 264l-116 330l-117 -330h233zM541 834l-132 -98
q-7 -3 -12 0l-133 98q-8 5 -3 13.5t14 4.5l126 -55l129 55q8 4 13 -4.5t-2 -13.5z" />
    <glyph glyph-name="acaron" unicode="&#x1ce;" 
d="M531 143q2 -60 -9 -100q-15 -53 -65 -53q-35 0 -64 19.5t-44 48.5q-43 -68 -113 -68q-58 0 -107 44.5t-68 115.5q-27 107 26 199t143 92q59 0 107 -56q-1 19 9 28t23 9t24 -8t14 -20q1 -5 1 -21l1 -282q0 -15 4 -29q11 -44 39 -44q41 0 40 110q0 20 2 24t15 4
q19 0 22 -13zM337 133l-1 171v14q-4 12 -12.5 30t-33 41.5t-53.5 23.5q-25 0 -50 -21.5t-40 -71.5q-10 -34 -10 -104.5t9 -106.5t31 -63.5t55 -27.5q40 0 73 42t32 73zM417 663l-131 -144q-8 -7 -15 0l-132 144q-7 7 -0.5 14.5t14.5 1.5l124 -99l125 99q8 6 15 -1.5t0 -14.5
z" />
    <glyph glyph-name="Icaron" unicode="&#x1cf;" horiz-adv-x="417" 
d="M350 19q4 -19 -17 -19q-23 0 -59 3h-130q-48 -3 -57 -3q-17 0 -20 14q-3 13 3 16t23 3q51 0 62.5 7.5t10.5 36.5v540v18q-4 15 -64 15q-17 0 -24.5 2t-9.5 12q-5 19 15 19q1 0 13.5 -0.5t42 -1.5t70.5 -1h64q36 3 57 3q7 0 11.5 -3.5t6.5 -7.5l1 -3q3 -13 -3 -16t-24 -3
q-49 0 -60.5 -8t-11.5 -35v-536q0 -16 2 -22q4 -16 64 -16q30 0 34 -14zM347 834l-132 -98q-7 -3 -12 0l-133 98q-8 5 -3 13.5t14 4.5l126 -55l129 55q8 4 13 -4.5t-2 -13.5z" />
    <glyph glyph-name="icaron" unicode="&#x1d0;" horiz-adv-x="333" 
d="M323 143q2 -7 -1 -29.5t-11 -51t-30.5 -50.5t-56.5 -22q-38 0 -67.5 24t-38.5 59q-5 22 0 46l24 186q6 54 0 77q-7 31 -30 31q-33 0 -48 -35t-17 -82v-11t-2 -6t-5 -3.5t-9 -0.5q-20 0 -23 13q-2 7 1 29.5t11 51.5t31 50.5t56 21.5q35 0 65 -22t40 -61q5 -21 1 -52
l-23 -174q-7 -59 -1 -82q7 -32 30 -32q31 0 47 32.5t18 84.5q1 10 1.5 13.5t4 5.5t11.5 2q19 0 22 -13zM306 663l-131 -144q-7 -7 -15 0l-132 144q-7 7 -0.5 14.5t14.5 1.5l124 -99l125 99q8 6 15 -1.5t0 -14.5z" />
    <glyph glyph-name="Ocaron" unicode="&#x1d1;" horiz-adv-x="833" 
d="M736 436q29 -115 -8 -222t-122 -171t-190 -64q-115 0 -204 75t-118 189q-28 111 7.5 218.5t120.5 175t193 67.5q111 0 201 -73.5t120 -194.5zM640 471q-24 97 -87 149.5t-138 52.5q-66 0 -123.5 -42.5t-85.5 -115.5q-20 -51 -25.5 -113.5t-1 -105t13.5 -75.5
q26 -101 88.5 -155t134.5 -54q57 0 104 29.5t74.5 77t45 108.5t15.5 123t-15 121zM555 834l-132 -98q-7 -3 -12 0l-133 98q-8 5 -3 13.5t14 4.5l126 -55l129 55q8 4 13 -4.5t-2 -13.5z" />
    <glyph glyph-name="ocaron" unicode="&#x1d2;" 
d="M478 272q18 -70 -4.5 -136t-75 -106t-118.5 -40q-67 0 -125.5 45t-78.5 124q-27 109 35.5 195.5t161.5 86.5q70 0 128 -46.5t77 -122.5zM393 307q-13 51 -44.5 78.5t-69.5 27.5q-31 0 -63.5 -23t-49.5 -72q-13 -39 -13.5 -101t8.5 -93q14 -55 46 -80.5t67 -25.5
q37 0 67.5 25.5t44.5 66.5q11 31 14 74t0.5 73.5t-7.5 49.5zM417 663l-131 -144q-8 -7 -15 0l-132 144q-7 7 -0.5 14.5t14.5 1.5l124 -99l125 99q8 6 15 -1.5t0 -14.5z" />
    <glyph glyph-name="Ucaron" unicode="&#x1d3;" horiz-adv-x="806" 
d="M733 669q4 -17 -12 -19q-18 -1 -27.5 -3t-24.5 -8.5t-22 -22t-7 -40.5v-359q0 -88 -63 -163t-161 -75q-80 0 -149.5 51t-91.5 140q-9 32 -9 59v384v22q-4 15 -60 15q-30 0 -33 14q-5 19 15 19l60 -3h120q54 3 57 3q17 0 20 -14q3 -13 -3 -16t-26 -3q-44 0 -55 -8t-11 -35
l1 -389q0 -43 9 -76q17 -68 60.5 -99t90.5 -31q77 0 132 63.5t55 153.5v357q1 15 -1 24q-9 38 -70 40q-19 0 -23 14q-5 19 16 19q1 0 10.5 -0.5t32 -1.5t56.5 -1q19 0 35.5 0.5t26.5 1t17.5 0.5h11.5l4 1q14 0 19 -14zM565 834l-132 -98q-7 -3 -12 0l-133 98q-8 5 -3 13.5
t14 4.5l126 -55l129 55q8 4 13 -4.5t-2 -13.5z" />
    <glyph glyph-name="ucaron" unicode="&#x1d4;" horiz-adv-x="583" 
d="M573 143q2 -60 -9 -100q-15 -53 -64 -53q-70 0 -104 61q-38 -61 -104 -61q-51 0 -94.5 28.5t-59.5 91.5q-7 26 -6.5 65t2.5 60.5t9 79.5q6 45 0 67q-7 31 -30 31q-31 0 -47.5 -33t-18.5 -84v-11t-2 -6t-5 -3.5t-9 -0.5q-20 0 -23 13q-2 7 1 29.5t11 51.5t31 50.5t57 21.5
q35 0 65 -22t40 -61q5 -21 1 -50q-7 -54 -9.5 -83.5t-2 -66t7.5 -62.5q18 -78 79 -78q44 0 67.5 36t23.5 62l-1 275q0 40 32 40q30 0 38 -29q1 -3 1 -19l1 -292q0 -15 4 -29q11 -44 40 -44q40 0 40 110q-1 19 1.5 23.5t14.5 4.5q19 0 22 -13zM431 663l-131 -144q-8 -7 -15 0
l-132 144q-7 7 -0.5 14.5t14.5 1.5l124 -99l125 99q8 6 15 -1.5t0 -14.5z" />
    <glyph glyph-name="Udieresisacute" unicode="&#x1d7;" horiz-adv-x="806" 
d="M733 669q4 -17 -12 -19q-18 -1 -27.5 -3t-24.5 -8.5t-22 -22t-7 -40.5v-359q0 -88 -63 -163t-161 -75q-80 0 -149.5 51t-91.5 140q-9 32 -9 59v384v22q-4 15 -60 15q-30 0 -33 14q-5 19 15 19l60 -3h120q54 3 57 3q17 0 20 -14q3 -13 -3 -16t-26 -3q-44 0 -55 -8t-11 -35
l1 -389q0 -43 9 -76q17 -68 60.5 -99t90.5 -31q77 0 132 63.5t55 153.5v357q1 15 -1 24q-9 38 -70 40q-19 0 -23 14q-5 19 16 19q1 0 10.5 -0.5t32 -1.5t56.5 -1q19 0 35.5 0.5t26.5 1t17.5 0.5h11.5l4 1q14 0 19 -14zM366 793q6 -24 -9 -41.5t-38 -17.5q-17 0 -32 11.5
t-20 30.5q-6 23 8 40.5t38 17.5q15 0 31.5 -10t21.5 -31zM587 793q7 -24 -8 -41.5t-38 -17.5q-17 0 -32.5 11.5t-20.5 30.5q-5 23 9 40.5t38 17.5q15 0 31 -10t21 -31zM576 1020q0 -20 -21 -30l-167 -91q-8 -5 -14 -5q-8 1 -14.5 9.5t-6.5 14.5q-1 9 10 16l150 114
q10 9 23 9q16 0 27.5 -10.5t12.5 -26.5z" />
    <glyph glyph-name="udieresisacute" unicode="&#x1d8;" horiz-adv-x="583" 
d="M573 143q2 -60 -9 -100q-15 -53 -64 -53q-70 0 -104 61q-38 -61 -104 -61q-51 0 -94.5 28.5t-59.5 91.5q-7 26 -6.5 65t2.5 60.5t9 79.5q6 45 0 67q-7 31 -30 31q-31 0 -47.5 -33t-18.5 -84v-11t-2 -6t-5 -3.5t-9 -0.5q-20 0 -23 13q-2 7 1 29.5t11 51.5t31 50.5t57 21.5
q35 0 65 -22t40 -61q5 -21 1 -50q-7 -54 -9.5 -83.5t-2 -66t7.5 -62.5q18 -78 79 -78q44 0 67.5 36t23.5 62l-1 275q0 40 32 40q30 0 38 -29q1 -3 1 -19l1 -292q0 -15 4 -29q11 -44 40 -44q40 0 40 110q-1 19 1.5 23.5t14.5 4.5q19 0 22 -13zM248 608q6 -24 -9 -41.5
t-38 -17.5q-17 0 -32 11.5t-20 30.5q-6 22 8.5 40t37.5 18q15 0 31.5 -10t21.5 -31zM435 608q7 -24 -8 -41.5t-39 -17.5q-17 0 -32 11.5t-20 30.5q-5 23 9 40.5t37 17.5q16 0 32 -10t21 -31zM441 831q0 -19 -21 -30l-167 -91q-7 -5 -14 -5q-8 1 -14.5 10t-6.5 14q-1 9 10 16
l150 114q10 9 23 9q16 0 27.5 -10.5t12.5 -26.5z" />
    <glyph glyph-name="Udieresiscaron" unicode="&#x1d9;" horiz-adv-x="806" 
d="M733 669q4 -17 -12 -19q-18 -1 -27.5 -3t-24.5 -8.5t-22 -22t-7 -40.5v-359q0 -88 -63 -163t-161 -75q-80 0 -149.5 51t-91.5 140q-9 32 -9 59v384v22q-4 15 -60 15q-30 0 -33 14q-5 19 15 19l60 -3h120q54 3 57 3q17 0 20 -14q3 -13 -3 -16t-26 -3q-44 0 -55 -8t-11 -35
l1 -389q0 -43 9 -76q17 -68 60.5 -99t90.5 -31q77 0 132 63.5t55 153.5v357q1 15 -1 24q-9 38 -70 40q-19 0 -23 14q-5 19 16 19q1 0 10.5 -0.5t32 -1.5t56.5 -1q19 0 35.5 0.5t26.5 1t17.5 0.5h11.5l4 1q14 0 19 -14zM366 793q6 -24 -9 -41.5t-38 -17.5q-17 0 -32 11.5
t-20 30.5q-6 23 8 40.5t38 17.5q15 0 31.5 -10t21.5 -31zM587 793q7 -24 -8 -41.5t-38 -17.5q-17 0 -32.5 11.5t-20.5 30.5q-5 23 9 40.5t38 17.5q15 0 31 -10t21 -31zM565 984l-132 -98q-7 -3 -12 0l-133 98q-8 5 -3 13.5t14 4.5l126 -55l129 55q8 4 13 -4.5t-2 -13.5z" />
    <glyph glyph-name="udieresiscaron" unicode="&#x1da;" horiz-adv-x="583" 
d="M573 143q2 -60 -9 -100q-15 -53 -64 -53q-70 0 -104 61q-38 -61 -104 -61q-51 0 -94.5 28.5t-59.5 91.5q-7 26 -6.5 65t2.5 60.5t9 79.5q6 45 0 67q-7 31 -30 31q-31 0 -47.5 -33t-18.5 -84v-11t-2 -6t-5 -3.5t-9 -0.5q-20 0 -23 13q-2 7 1 29.5t11 51.5t31 50.5t57 21.5
q35 0 65 -22t40 -61q5 -21 1 -50q-7 -54 -9.5 -83.5t-2 -66t7.5 -62.5q18 -78 79 -78q44 0 67.5 36t23.5 62l-1 275q0 40 32 40q30 0 38 -29q1 -3 1 -19l1 -292q0 -15 4 -29q11 -44 40 -44q40 0 40 110q-1 19 1.5 23.5t14.5 4.5q19 0 22 -13zM248 608q6 -24 -9 -41.5
t-38 -17.5q-17 0 -32 11.5t-20 30.5q-6 22 8.5 40t37.5 18q15 0 31.5 -10t21.5 -31zM435 608q7 -24 -8 -41.5t-39 -17.5q-17 0 -32 11.5t-20 30.5q-5 23 9 40.5t37 17.5q16 0 32 -10t21 -31zM430 795l-132 -98q-7 -3 -12 0l-133 98q-8 5 -3 13.5t14 4.5l126 -55l129 55
q8 4 13 -4.5t-2 -13.5z" />
    </font>
</defs>
</svg>
