<?xml version="1.0" standalone="no"?>
<!DOCTYPE svg PUBLIC "-//W3C//DTD SVG 1.1//EN" "http://www.w3.org/Graphics/SVG/1.1/DTD/svg11.dtd" >
<svg>
<metadata>
Created by FontForge 20120731 at Mon Jul 14 22:19:48 2014
 By tom,,,
Copyright 2003, 2009 B. Jackowski and J. M. Nowacki (on behalf of TeX users groups). This work is released under the GUST Font License --  see http://tug.org/fonts/licenses/GUST-FONT-LICENSE.txt for details.
</metadata>
<defs>
<font id="lmromandunh10-oblique" horiz-adv-x="500" >
  <font-face 
    font-family="LM Roman Dunhill 10"
    font-weight="400"
    font-style="oblique"
    font-stretch="normal"
    units-per-em="1000"
    panose-1="0 0 5 0 0 0 0 0 0 0"
    ascent="972"
    descent="-28"
    x-height="431"
    cap-height="961"
    bbox="-474 -549 1499.9 1514"
    underline-thickness="40"
    underline-position="-106"
    slope="-9.4626"
    unicode-range="U+0020-FB04"
  />
<missing-glyph horiz-adv-x="280" 
 />
    <glyph glyph-name="I_J" unicode="IJ" horiz-adv-x="861" 
d="M967 931q-44 0 -61.5 -7t-21.5 -32l-101 -605l-9 -60q-7 -42 -17 -71q-22 -71 -83.5 -124t-130.5 -53t-104.5 56t-23.5 124q4 26 22.5 42t42.5 16t37 -16t9 -40t-22.5 -39.5t-41.5 -15.5q-5 0 -17 2q3 -43 30 -75t70 -32q17 0 34 9q81 45 109 218l12 75l97 582
q5 28 -13.5 37t-53.5 9h-59l5 31h296zM333 1h-305l5 31h46q19 0 31.5 2.5t24 13.5t14.5 31l134 805q5 30 -11 38.5t-56 8.5h-33l5 31h305l-5 -31h-46q-19 0 -31 -2.5t-23.5 -13.5t-15.5 -31l-134 -805q-5 -30 11 -38.5t56 -8.5h33z" />
    <glyph glyph-name="i_j" unicode="ij" horiz-adv-x="583" 
d="M486 -51q-10 -65 -57.5 -109t-104.5 -44q-40 0 -70 21.5t-24 58.5q4 21 19.5 33.5t34.5 12.5q20 0 31 -13t7 -33q-3 -17 -15 -29.5t-28 -15.5q24 -13 48 -13q72 0 96 146q1 8 3.5 26t4.5 27l56 334q5 31 -10.5 40t-47.5 9h-19l5 31l154 11zM260 1h-215l5 31
q46 0 63.5 7.5t21.5 33.5l46 277q5 31 -7 40.5t-39 9.5h-19l5 31l143 11l-63 -375q-3 -22 8.5 -28.5t35.5 -6.5h20zM314 716q-3 -20 -21 -36.5t-42 -16.5q-22 0 -35 16t-9 37q3 20 21 36.5t42 16.5q22 0 34.5 -16t9.5 -37zM615 716q-3 -20 -21 -36.5t-42 -16.5q-22 0 -35 16
t-9 37q3 20 21 36.5t42 16.5q22 0 34.5 -16t9.5 -37z" />
    <glyph glyph-name="f_k" unicode="fk" horiz-adv-x="812" 
d="M788 0q-44 3 -86 3l-109 -3l5 31q36 0 40 23q3 16 -70 145q-12 23 -19 35l-73 -55l-17 -103q-6 -32 5.5 -38.5t64.5 -6.5l-5 -31l-109 3l-110 -3l5 31q53 0 66.5 6.5t19.5 38.5l54 324h-211l-54 -324q-6 -32 5.5 -38.5t64.5 -6.5l-5 -31l-110 3l-112 -3l5 31
q53 0 66.5 6.5t19.5 38.5l54 324h-79l5 31h79l44 263q20 118 96 203.5t164 85.5q44 0 75 -20l54 9l-126 -758l161 122q25 20 29 39q4 23 -25 25l5 31q42 -3 111 -3q41 0 71 3l-5 -31q-64 -3 -135 -54q-13 -9 -53 -39t-40 -33q-1 -2 4 -11l97 -179q14 -25 28.5 -37t25.5 -14
t34 -2zM455 431l69 414q-22 10 -19 39q6 30 32 40l3 20q-27 17 -62 17q-63 0 -119 -80t-74 -186l-44 -264h214z" />
    <glyph glyph-name="f_f" unicode="ff" horiz-adv-x="583" 
d="M776 886q-4 -22 -18.5 -33.5t-33.5 -11.5t-29 12t-7 31q8 43 58 43q-13 34 -49 34q-42 0 -81.5 -86t-53.5 -173l-45 -271h118l-5 -31h-115l-54 -322q-5 -29 5.5 -38t62.5 -9h21l-5 -31q-39 3 -126 3l-115 -3l5 31q53 0 66.5 6.5t19.5 38.5l54 324h-210l-54 -324
q-6 -32 5.5 -38.5t64.5 -6.5l-5 -31l-110 3l-112 -3l5 31q53 0 66.5 6.5t19.5 38.5l54 324h-79l5 31h79l44 263q19 119 96 204t162 85q47 0 72.5 -24.5t32.5 -49.5q57 74 116 74q40 0 60.5 -30t14.5 -67zM560 899q-10 32 -33.5 47t-50.5 15q-60 0 -116.5 -79t-74.5 -187
l-44 -264h213l45 268q0 3 3 19t11.5 43.5t18.5 51.5q-38 5 -32 44q3 19 17 31t33 12q7 0 10 -1z" />
    <glyph glyph-name="f_i" unicode="fi" horiz-adv-x="556" 
d="M527 0l-110 3l-112 -3l5 31q53 0 66.5 6.5t19.5 38.5l45 270q5 32 -3 43t-41 11h-158l-54 -324q-6 -32 5.5 -38.5t64.5 -6.5l-5 -31l-110 3l-112 -3l5 31q53 0 66.5 6.5t19.5 38.5l54 324h-79l5 31h79l44 263q20 120 97 204.5t163 84.5q58 0 85.5 -47t17.5 -109
q-3 -20 -17.5 -33t-36.5 -13q-20 0 -30 13t-7 33q4 21 20 33.5t33 12.5q3 0 15 -3q-4 43 -27 67t-57 24q-61 0 -118 -79t-75 -187l-44 -264h118q16 0 18 1t18 2l128 9l-61 -367q-6 -32 5.5 -38.5t64.5 -6.5z" />
    <glyph glyph-name="f_l" unicode="fl" horiz-adv-x="556" 
d="M527 0l-110 3l-112 -3l5 31q53 0 66.5 6.5t19.5 38.5l54 324h-211l-54 -324q-6 -32 5.5 -38.5t64.5 -6.5l-5 -31l-110 3l-112 -3l5 31q53 0 66.5 6.5t19.5 38.5l54 324h-79l5 31h79l44 263q20 118 96 203.5t164 85.5q44 0 75 -20l54 9l-149 -896q-6 -32 5.5 -38.5
t64.5 -6.5zM455 431l69 414q-22 10 -19 39q6 30 32 40l3 20q-27 17 -62 17q-63 0 -119 -80t-74 -186l-44 -264h214z" />
    <glyph glyph-name="f_f_i" unicode="&#xfb00;i" horiz-adv-x="833" 
d="M804 0l-110 3l-112 -3l5 31q53 0 66.5 6.5t19.5 38.5l45 270q5 32 -3 43t-41 11h-158l-54 -324q-6 -32 5.5 -38.5t64.5 -6.5l-5 -31l-110 3l-112 -3l5 31q53 0 66.5 6.5t19.5 38.5l54 324h-211l-54 -324q-6 -32 5.5 -38.5t64.5 -6.5l-5 -31l-110 3l-112 -3l5 31
q53 0 66.5 6.5t19.5 38.5l54 324h-79l5 31h79l44 263q19 119 95.5 204t163.5 85q83 0 104 -98q38 48 85 73t89 25q58 0 85.5 -47t17.5 -109q-3 -20 -17.5 -33t-36.5 -13q-20 0 -30 13t-7 33q4 21 20 33.5t33 12.5q3 0 15 -3q-4 43 -27 67t-57 24q-61 0 -118 -79t-75 -187
l-44 -264h118q16 0 18 1t18 2l128 9l-61 -367q-6 -32 5.5 -38.5t64.5 -6.5zM559 870q-4 42 -26 66.5t-57 24.5q-59 0 -116 -79t-75 -187l-44 -264h214l44 263q7 43 24 87q-38 6 -32 46q3 22 19.5 34t34.5 12q2 0 14 -3z" />
    <glyph glyph-name="f_f_l" unicode="ffl" horiz-adv-x="833" 
d="M804 0l-110 3l-112 -3l5 31q53 0 66.5 6.5t19.5 38.5l54 324h-211l-54 -324q-6 -32 5.5 -38.5t64.5 -6.5l-5 -31l-110 3l-112 -3l5 31q53 0 66.5 6.5t19.5 38.5l54 324h-211l-54 -324q-6 -32 5.5 -38.5t64.5 -6.5l-5 -31l-110 3l-112 -3l5 31q53 0 66.5 6.5t19.5 38.5
l54 324h-79l5 31h79l44 263q19 119 95.5 204t163.5 85q43 0 72.5 -25t35.5 -67q82 92 170 92q44 0 75 -20l54 9l-149 -896q-6 -32 5.5 -38.5t64.5 -6.5zM560 900q-19 61 -83 61q-61 0 -117.5 -79t-74.5 -187l-44 -264h214l44 263q11 67 39 119q-44 4 -37 44q7 43 59 43z
M732 431l69 414q-22 10 -19 39q6 30 32 40l3 20q-27 17 -62 17q-63 0 -119 -80t-74 -186l-44 -264h214z" />
    <glyph glyph-name=".notdef" horiz-adv-x="280" 
 />
    <glyph glyph-name=".null" horiz-adv-x="0" 
 />
    <glyph glyph-name="nonmarkingreturn" horiz-adv-x="333" 
 />
    <glyph glyph-name="space" unicode=" " horiz-adv-x="333" 
 />
    <glyph glyph-name="exclam" unicode="!" horiz-adv-x="278" 
d="M347 932l-160 -722q-3 -15 -6 -19t-11 -4t-9.5 5t0.5 19l81 722q3 33 23.5 47t39.5 14q7 0 14 -2t16.5 -8.5t12 -19t-0.5 -32.5zM201 53q-4 -22 -22 -37.5t-40 -15.5t-35 15.5t-9 37.5t22 37.5t40 15.5t35 -15.5t9 -37.5z" />
    <glyph glyph-name="quotedbl" unicode="&#x22;" 
d="M367 943q0 -4 -2 -6l-100 -395h-22l31 395l1 6q4 21 19.5 32.5t34.5 11.5t30.5 -11.5t7.5 -32.5zM536 937l-101 -395h-22l31 395l1 6q4 21 19.5 32.5t34.5 11.5t30.5 -11.5t7.5 -32.5z" />
    <glyph glyph-name="numbersign" unicode="#" horiz-adv-x="833" 
d="M802 153q-4 -20 -37 -20h-212l-190 -577q-4 -11 -6 -15t-7 -8.5t-13 -4.5t-13 6t-3 14q2 10 4 13l188 572h-189l-190 -577q-4 -11 -6 -15t-7 -8.5t-13 -4.5t-13 6t-3 14q2 10 4 13l188 572h-173q-10 0 -15.5 0.5t-10.5 5.5t-3 14q3 20 37 20h179l51 154h-204
q-10 0 -16 0.5t-11 5.5t-4 14q3 20 36 20h212l190 577q4 11 6 15t7 8.5t13 4.5t13 -6t4 -14q-3 -10 -4 -13l-189 -572h189l190 577q4 11 6 15t7 8.5t13 4.5t13 -6t4 -14q-3 -10 -4 -13l-189 -572h173q10 0 15.5 -0.5t10.5 -5.5t4 -14q-3 -20 -37 -20h-179l-51 -154h204
q10 0 16 -0.5t11 -5.5t4 -14zM578 327h-189l-51 -154h189z" />
    <glyph glyph-name="dollar" unicode="$" 
d="M488 267q-18 -106 -80.5 -185.5t-144.5 -91.5l-7 -46h-31l7 46q-46 3 -77 25.5t-44 51.5t-17.5 67t-2.5 63.5t6 48.5q10 55 55 55q17 0 29.5 -12t9.5 -34q-4 -21 -19.5 -33.5t-34.5 -12.5q-10 0 -18 4q-7 -84 21.5 -135.5t97.5 -56.5l73 443q-34 13 -49.5 20t-34.5 24.5
t-31 43.5q-37 76 -19 173q16 96 76.5 171t144.5 86l7 46h31l-7 -46q51 -3 84 -28.5t44 -61t14.5 -76t-4.5 -72.5q-9 -54 -55 -54q-18 0 -30 12.5t-8 33.5q3 20 17 33t36 13q13 0 19 -3q6 162 -122 172l-68 -404q29 -10 44.5 -17t34.5 -24t32 -42q40 -78 21 -197zM327 558
l66 393q-55 -9 -101 -63.5t-59 -132.5q-11 -80 11 -129q24 -50 83 -68zM432 237q13 83 -7 139q-23 57 -84 77l-72 -432q55 10 101.5 70t61.5 146z" />
    <glyph glyph-name="percent" unicode="%" horiz-adv-x="833" 
d="M812 215q-19 -110 -68.5 -190.5t-106.5 -80.5q-60 0 -90.5 78t-11.5 193t75.5 193t116.5 78q57 0 80 -80.5t5 -190.5zM787 215q17 103 -2 176t-61 73q-45 0 -86 -93q-26 -57 -41 -156q-17 -100 -12 -155q13 -94 56 -94q42 0 85.5 73t60.5 176zM861 1008q-1 -6 -9 -17
l-678 -1028q-1 -2 -3.5 -5t-3 -4t-2 -3t-2.5 -2.5t-2.5 -2t-3 -1.5t-3.5 -0.5t-4 -0.5q-8 0 -13 6t-4 14q0 4 10 18l619 940h-1q-74 -52 -161 -52q-82 0 -138 48q12 -71 -3 -161q-18 -110 -68 -190.5t-107 -80.5q-60 0 -90.5 78t-11.5 193t75.5 193t116.5 78q18 0 33 -9
t20.5 -16.5t14.5 -22.5q51 -88 161 -88q130 0 216 117q14 19 25 19q9 0 14 -6t3 -14zM434 757q17 104 -1.5 176.5t-60.5 72.5q-46 0 -87 -93q-22 -48 -41 -156q-16 -105 -12 -155q13 -94 57 -94q42 0 85 73t60 176z" />
    <glyph glyph-name="ampersand" unicode="&#x26;" horiz-adv-x="778" 
d="M794 400q-32 0 -54.5 -5.5t-42 -21t-31 -28t-33.5 -41.5q-105 -136 -148 -184q51 -111 102 -111q38 0 78 28.5t51 83.5h25q-12 -64 -60.5 -103.5t-102.5 -39.5q-78 0 -143 95q-106 -95 -215 -95q-80 0 -120.5 59.5t-27.5 139.5q9 63 53 117l167 205q-21 147 3 290
q16 98 65 151.5t106 53.5q49 0 61 -50.5t-3 -114.5q-15 -96 -167 -282q9 -90 52 -222.5t66 -180.5q69 75 154 192q8 12 9 20q4 19 -12.5 31.5t-50.5 12.5l5 31q40 -3 121 -3l98 3zM500 831q11 86 1.5 113.5t-38.5 27.5q-76 0 -101 -158q-20 -115 -8 -238q130 162 146 255z
M423 94q-36 65 -74.5 181t-51.5 196l-45 -54q-25 -31 -38 -49.5t-28.5 -57.5t-23.5 -90q-14 -80 -6 -134q5 -35 22 -53.5t28.5 -21t26.5 -2.5q53 0 104 26t86 59z" />
    <glyph glyph-name="quotesingle" unicode="'" horiz-adv-x="278" 
d="M340 937l-101 -395h-22l31 395l1 6q4 21 19.5 32.5t34.5 11.5t30.5 -11.5t7.5 -32.5z" />
    <glyph glyph-name="parenleft" unicode="(" horiz-adv-x="389" 
d="M245 -518q-3 -10 -12 -10q-5 0 -13 10.5t-16 25.5t-17 34t-15 34t-11 27l-5 12q-82 231 -15 635q78 469 287 714q54 64 64 64t9 -10q-2 -5 -3 -7q-115 -141 -184.5 -313.5t-114.5 -447.5q-19 -116 -28 -210t-8 -191t19.5 -184t55.5 -163z" />
    <glyph glyph-name="parenright" unicode=")" horiz-adv-x="389" 
d="M331 250q-78 -469 -287 -714q-55 -64 -65 -64t-8 10q0 4 14 20q64 78 113 169t82 190.5t53.5 189t39.5 199.5q33 198 35 344t-18 236.5t-63 179.5v8q2 10 11 10q8 0 21.5 -22t25 -48t21.5 -50l10 -23q81 -233 15 -635z" />
    <glyph glyph-name="asterisk" unicode="*" 
d="M554 719q-2 -10 -11.5 -19t-20.5 -9q-9 0 -19 10l-110 91l-12 -156l-1 -14q-2 -11 -11 -18t-19 -7q-12 0 -18.5 7.5t-4.5 17.5l43 170l-140 -92q-14 -9 -23 -9q-11 0 -17.5 9t-4.5 19q1 8 5.5 13.5t8 7.5t12.5 6l152 67l-131 67q-19 8 -16 26q2 10 11.5 19t20.5 9
q9 0 19 -10l110 -91l13 170q2 10 10.5 17.5t20.5 7.5q10 0 17 -7t5 -18l-43 -170l140 92q14 9 23 9q11 0 17.5 -9t4.5 -19q-1 -8 -5.5 -13.5t-8 -7.5t-12.5 -6l-152 -67l131 -67q19 -8 16 -26z" />
    <glyph glyph-name="plus" unicode="+" horiz-adv-x="778" 
d="M763 250q-4 -20 -37 -20h-279l-46 -280q-2 -11 -3.5 -15.5t-7.5 -11t-15 -6.5q-21 0 -14 33l46 280h-280q-10 0 -15.5 0.5t-10.5 5.5t-3 14q3 20 36 20h280l47 280q5 33 25 33t15 -33l-47 -280h279q10 0 15.5 -0.5t10.5 -5.5t4 -14z" />
    <glyph glyph-name="comma" unicode="," horiz-adv-x="278" 
d="M203 1q-9 -52 -37.5 -100t-53 -71t-32.5 -23q-11 0 -8 11q0 4 8 11q85 76 101 172l1 15q-22 -16 -43 -16q-25 0 -36 15.5t-8 37.5q3 21 20 37t42 16q30 0 42 -28.5t4 -76.5z" />
    <glyph glyph-name="hyphen" unicode="-" horiz-adv-x="333" 
d="M307 187h-265l10 58h265z" />
    <glyph glyph-name="period" unicode="." horiz-adv-x="278" 
d="M201 53q-4 -22 -22 -37.5t-40 -15.5t-35 15.5t-9 37.5t22 37.5t40 15.5t35 -15.5t9 -37.5z" />
    <glyph glyph-name="slash" unicode="/" 
d="M611 1008q-1 -4 -7 -19l-589 -1489q-5 -11 -7 -15.5t-7 -8.5t-13 -4t-13 6t-4 14q1 4 7 19l590 1489q1 1 2 4.5t1.5 5t2 4t2 3.5t2 3t2.5 3t2.5 2t3 1.5t4 1t4.5 0.5q8 0 13 -6t4 -14z" />
    <glyph glyph-name="zero" unicode="0" 
d="M537 459q-31 -188 -80 -296q-36 -82 -91 -133.5t-121 -51.5q-125 0 -149 187q-13 100 20 294q31 188 76 291q89 194 215 194q114 0 146 -160q19 -107 -16 -325zM456 475q33 203 36 268q7 179 -89 179q-51 0 -89 -52t-62 -136q-20 -75 -51 -259q-31 -187 -37 -269.5
t9 -139.5q22 -66 77 -66q42 0 83 46t70 158q20 77 53 271z" />
    <glyph glyph-name="one" unicode="1" 
d="M419 0q-34 3 -161 3t-163 -3l5 31h32q63 0 79.5 9t21.5 39l130 781q-60 -39 -137 -39l5 31q65 0 116.5 27.5t80.5 64.5q17 0 19.5 -4t-0.5 -22l-140 -839q-5 -30 8 -39t77 -9h32z" />
    <glyph glyph-name="two" unicode="2" 
d="M478 174l-57 -174h-371q4 26 14 37l223 288q86 111 129 195t56 164q38 229 -91 229q-66 0 -111 -57.5t-66 -138.5q9 3 18 3q20 0 34.5 -13.5t9.5 -39.5q-4 -22 -20.5 -37t-39.5 -15q-32 0 -40 19t-3 41q7 41 23.5 84.5t43.5 86.5t70 70.5t94 27.5q98 0 142.5 -75.5
t26.5 -187.5q-8 -46 -26 -89.5t-54 -93t-54.5 -71.5t-65.5 -76l-241 -274h198q88 0 96 8q12 14 37 89h25z" />
    <glyph glyph-name="three" unicode="3" 
d="M498 246q-19 -112 -94.5 -190t-163.5 -78q-60 0 -101.5 37t-55.5 90.5t-5 110.5q4 27 21.5 42.5t27 17t17.5 1.5q21 0 36 -15t11 -41q-4 -24 -21.5 -40t-43.5 -16q-14 0 -20 3q3 -73 41 -117.5t96 -44.5q43 0 86.5 55.5t65.5 184.5q16 94 6 153q-6 31 -17.5 50.5
t-25.5 27t-22.5 9t-20.5 1.5h-43q-14 0 -18.5 1.5t-3.5 9.5q1 4 3.5 6.5t4.5 3.5h2q5 2 33 5q21 2 32 4.5t30.5 10t32.5 23t28 40.5t27 66t21 96q8 43 5 72.5t-9.5 48t-19 28.5t-23 13.5t-22.5 3.5q-46 0 -92.5 -34t-70.5 -95q8 3 20 3q22 0 34.5 -14t8.5 -37
q-4 -21 -21 -35.5t-39 -14.5q-10 0 -20 3.5t-17.5 16.5t-4.5 34q13 75 72 136.5t137 61.5q75 0 121.5 -53.5t32.5 -135.5q-5 -29 -17 -61t-33.5 -70t-59 -70.5t-84.5 -50.5q78 -18 115 -90.5t21 -166.5z" />
    <glyph glyph-name="four" unicode="4" 
d="M512 243h-100l-28 -165q-5 -29 5.5 -38t62.5 -9h21l-5 -31q-40 3 -135 3q-94 0 -136 -3l5 31h21q52 0 65.5 9t18.5 38l28 165h-266q5 33 13 44l414 654q6 10 8.5 12t10.5 2q11 0 12.5 -5.5t-1.5 -20.5l-109 -655h100zM346 274l88 527h-1l-333 -527h246z" />
    <glyph glyph-name="five" unicode="5" 
d="M497 288q-23 -134 -103 -222t-168 -88q-46 0 -78.5 25t-45 63t-17.5 82.5t4 83.5q9 56 58 56q23 0 34 -14.5t8 -34.5t-18.5 -34.5t-39.5 -14.5q-13 0 -21 4q-4 -85 28.5 -136.5t90.5 -51.5q69 0 124 95q36 64 56 193q20 120 13 174q-12 102 -69 102q-81 0 -143 -90
q-9 -13 -17 -13q-10 0 -11.5 6.5t1.5 19.5l71 426q4 24 14 24q3 0 11 -4q50 -41 127 -41q73 0 136 38l15 7q11 0 9 -10q-2 -11 -27 -37.5t-76.5 -53.5t-106.5 -27q-46 0 -85 21l-51 -310q61 66 138 66q81 0 120.5 -89.5t18.5 -214.5z" />
    <glyph glyph-name="six" unicode="6" 
d="M505 290q-19 -118 -83 -203q-39 -52 -80 -80.5t-95 -28.5q-68 0 -103 56.5t-44 141.5q-11 110 17 275q37 221 138.5 357t206.5 136q64 0 89 -40.5t16 -93.5q-9 -50 -54 -50q-18 0 -30.5 12t-8.5 34t20 34t34 12q7 0 15 -2q-4 32 -25.5 50.5t-58.5 18.5q-74 0 -141 -105
t-99 -294l-5 -28q51 107 143 107q48 0 80.5 -26t56.5 -87q31 -80 11 -196zM416 291q4 26 6.5 41t6 44t3.5 48.5t-0.5 45.5t-6.5 42.5t-15 32.5t-24 24t-36 8q-120 0 -159 -235q-6 -36 -9 -59.5t-8 -69t-2.5 -76.5t9 -64t24.5 -50t46 -17q73 0 120 105q22 50 45 180z" />
    <glyph glyph-name="seven" unicode="7" 
d="M639 922q-4 -25 -12 -35l-194 -298q-57 -87 -102 -263q-18 -70 -43 -207l-14 -86q-11 -55 -56 -55t-35 61q17 107 70 256.5t154 305.5l159 244h-221q-91 0 -99 -6q-15 -12 -40 -91h-25l67 206h25q1 -12 5 -17.5t32 -10t86 -4.5h243z" />
    <glyph glyph-name="eight" unicode="8" 
d="M497 237q-17 -104 -88.5 -181.5t-163.5 -77.5q-88 0 -135.5 71t-31.5 168q28 159 202 267l-54 58q-19 28 -24 40q-26 60 -13 136q15 91 76 158.5t142 67.5q77 0 118.5 -61t27.5 -143q-21 -129 -170 -225l43 -48q11 -12 18 -20t17.5 -22t16.5 -26.5t12.5 -30.5t9 -36.5
t2 -43t-4.5 -51.5zM509 739q13 72 -16.5 126t-90.5 54q-58 0 -104.5 -47t-57.5 -111q-12 -69 29 -123l100 -107q46 32 87.5 85.5t52.5 122.5zM440 197q3 20 3.5 37.5t-1 31t-6.5 27t-9 22t-12 19.5t-12.5 16t-12.5 14l-95 103q-60 -35 -106.5 -101.5t-60.5 -147.5
q-14 -86 19 -149t104 -63q67 0 121.5 57t67.5 134z" />
    <glyph glyph-name="nine" unicode="9" 
d="M536 472q-37 -217 -133 -355.5t-201 -138.5q-64 0 -95 38.5t-21 96.5q5 28 21.5 38.5t32.5 10.5q18 0 30 -12t8 -34t-19.5 -34t-33.5 -12l-14 2q15 -66 96 -66q73 0 134.5 106.5t92.5 287.5l5 30q-50 -107 -143 -107q-51 0 -79.5 25.5t-48.5 69.5q-41 87 -21 214
q21 124 90 210q82 102 173 102q59 0 94 -46t46 -121q17 -123 -14 -305zM463 582q18 106 20 175q2 72 -16 117t-60 45q-71 0 -122 -101q-26 -55 -48 -188q-4 -24 -6.5 -40t-6 -44.5t-3.5 -48t0.5 -45t6.5 -42.5t15 -33t24 -24t36 -8q121 0 160 237z" />
    <glyph glyph-name="colon" unicode=":" horiz-adv-x="278" 
d="M255 378q-4 -22 -22 -37.5t-40 -15.5t-35 15.5t-9 37.5t22 37.5t40 15.5t35 -15.5t9 -37.5zM201 53q-4 -22 -22 -37.5t-40 -15.5t-35 15.5t-9 37.5t22 37.5t40 15.5t35 -15.5t9 -37.5z" />
    <glyph glyph-name="semicolon" unicode=";" horiz-adv-x="278" 
d="M255 378q-4 -22 -22 -37.5t-40 -15.5t-35 15.5t-9 37.5t22 37.5t40 15.5t35 -15.5t9 -37.5zM196 3q-9 -52 -36 -100.5t-50 -72t-30 -23.5q-11 0 -8 11q0 5 9 13q75 73 94 180q-9 -7 -28 -10q-3 -1 -8 -1q-25 0 -36 15.5t-8 37.5q3 21 20 37t42 16q53 0 39 -103z" />
    <glyph glyph-name="less" unicode="&#x3c;" horiz-adv-x="778" 
d="M691 -20q-4 -20 -24 -20q-5 0 -17 7l-510 261q-17 9 -15 22t22 22l598 261q14 7 19 7q8 0 13 -6t4 -14q-2 -12 -23 -22l-566 -248l483 -248q17 -9 16 -22z" />
    <glyph glyph-name="equal" unicode="=" horiz-adv-x="778" 
d="M779 347q-3 -20 -37 -20h-597q-10 0 -16 0.5t-11 5.5t-4 14q3 20 36 20h599q10 0 15.5 -0.5t10.5 -5.5t4 -14zM747 153q-4 -20 -37 -20h-599q-10 0 -15.5 0.5t-10.5 5.5t-3 14q3 20 37 20h597q10 0 16 -0.5t11 -5.5t4 -14z" />
    <glyph glyph-name="greater" unicode="&#x3e;" horiz-adv-x="778" 
d="M736 250q-2 -13 -23 -22l-598 -261q-14 -7 -19 -7q-8 0 -13 6t-3 14q1 12 22 22l567 248l-484 248q-18 10 -15 22q4 20 23 20q5 0 17 -7l510 -261q18 -8 16 -22z" />
    <glyph glyph-name="question" unicode="?" horiz-adv-x="472" 
d="M545 778q-7 -43 -24.5 -78.5t-28.5 -48t-30 -30.5q-46 -43 -82 -95.5t-55 -100t-28 -79t-13 -55.5l-13 -77q-2 -11 -3.5 -15.5t-5 -8t-9.5 -3.5q-8 0 -9.5 5.5t1.5 18.5l15 90q32 184 148 338q40 55 55 148q4 22 5.5 34.5t2.5 37t-3.5 39t-13.5 31t-27.5 24.5t-44.5 8
q-50 0 -93.5 -37.5t-66.5 -102.5q8 3 17 3q20 0 31 -12.5t8 -33.5q-4 -21 -20 -33.5t-34 -12.5q-4 0 -9.5 1t-14 5.5t-12.5 16t-1 28.5q5 32 21 66t40.5 64.5t61.5 50t78 19.5q80 0 127 -49t30 -156zM284 53q-4 -22 -22 -37.5t-40 -15.5t-35 15.5t-9 37.5t22 37.5t40 15.5
t35 -15.5t9 -37.5z" />
    <glyph glyph-name="at" unicode="@" horiz-adv-x="778" 
d="M798 464q-8 -48 -14.5 -80.5t-18.5 -74t-26.5 -66.5t-37 -42.5t-50.5 -17.5q-39 0 -63 27.5t-22 69.5q-70 -97 -147 -97q-81 0 -125.5 87t-23.5 216t95 216t155 87q39 0 71.5 -28.5t49.5 -89.5h33q19 0 22 -3.5t0 -21.5l-60 -360q-14 -81 20 -81q51 0 84 104
q18 58 33 155q34 202 -18 331q-32 77 -84.5 121.5t-122.5 44.5q-122 0 -237 -135.5t-149 -339.5q-33 -200 35 -337.5t197 -137.5q150 0 294 95h27h10.5t6.5 -1t4 -3t0 -6q-1 -9 -54 -34.5t-95 -39.5q-99 -33 -195 -33q-95 0 -162 67.5t-91 181t-2 248.5q35 211 158 354
t258 143q70 0 127.5 -42.5t92.5 -121.5q63 -144 25 -355zM579 357l43 258q6 42 -25 97t-80 55q-54 0 -106.5 -82t-71.5 -199t5.5 -199t78.5 -82q48 0 94 50q6 6 16.5 18.5t26 38t19.5 45.5z" />
    <glyph glyph-name="A" unicode="A" horiz-adv-x="750" 
d="M718 0l-129 3q-107 0 -144 -3l5 31q89 0 95 32q-1 7 -1 13l-21 249h-246l-90 -218q-6 -13 -8 -21q-3 -22 16 -38t57 -17l-5 -31l-114 3q-39 0 -102 -3l5 31q54 0 79 20t38 52l362 870q5 13 10 17t16 4q10 0 13 -4t4 -17l75 -901q2 -25 15 -33t58 -8h17zM520 356l-38 458
l-192 -458h230z" />
    <glyph glyph-name="B" unicode="B" horiz-adv-x="708" 
d="M694 255q-18 -104 -94.5 -179.5t-173.5 -75.5h-390l5 31h24q54 0 68 9t19 38l134 805q5 29 -6 38t-65 9h-24l5 31h362q98 0 150.5 -70.5t36.5 -165.5q-14 -81 -73 -143.5t-139 -79.5q83 -9 130 -79t31 -168zM648 725q7 27 4 62.5t-10.5 67t-32 53.5t-61.5 22h-122
q-34 0 -42.5 -7t-13.5 -33l-63 -379h147q74 0 127 66t67 148zM594 256q13 87 -7 150q-9 29 -22.5 47.5t-30 25.5t-25.5 8.5t-23 1.5h-182l-70 -418q-5 -26 1.5 -33t40.5 -7h123q76 0 128 69.5t67 155.5z" />
    <glyph glyph-name="C" unicode="C" horiz-adv-x="722" 
d="M722 343q-7 -44 -23.5 -91t-44.5 -96.5t-63 -88.5t-85 -64t-105 -25q-67 0 -124.5 37t-94.5 104t-51 159t5 203q36 214 164 358t269 144q113 0 168 -115l65 101q9 14 16 14q8 0 9 -5.5t-2 -18.5l-60 -358q-2 -16 -5 -20t-15 -4q-10 0 -11.5 3.5t-0.5 20.5q8 51 3.5 112
t-17 114t-50.5 89t-96 36q-72 0 -133 -51t-98 -112q-71 -117 -103 -309q-15 -87 -15.5 -159.5t9 -120t27.5 -84t38.5 -56t44 -32t40.5 -16t33 -3.5q99 0 176.5 94.5t105.5 246.5q8 14 15 15q9 0 10.5 -5t-1.5 -17z" />
    <glyph glyph-name="D" unicode="D" horiz-adv-x="764" 
d="M786 472q-34 -199 -146.5 -335.5t-240.5 -136.5h-364l5 31h24q54 0 68 9t19 38l134 805q5 29 -6 38t-65 9h-24l5 31h363q87 0 147 -66.5t81.5 -178.5t-0.5 -244zM686 473q30 180 12 282q-5 25 -14 48.5t-27.5 55.5t-52.5 51.5t-78 19.5h-98q-34 0 -42.5 -7t-13.5 -33
l-136 -819q-5 -26 1.5 -33t40.5 -7h98q131 0 224 158q54 95 86 284z" />
    <glyph glyph-name="E" unicode="E" horiz-adv-x="681" 
d="M695 258l-85 -258h-577l5 31h24q54 0 68 9t19 38l134 802q5 29 -6 38t-65 9h-24l5 31h563l-10 -225h-25q6 112 -24 153t-139 41h-129q-34 0 -43 -7t-13 -33l-62 -374h90q69 0 92.5 24t34.5 93h25l-44 -265h-25q11 68 -4.5 92.5t-84.5 24.5h-90l-68 -411q-5 -26 1.5 -33
t40.5 -7h133q51 0 88 9.5t62 25t45 47t32.5 62t30.5 83.5h25z" />
    <glyph glyph-name="F" unicode="F" horiz-adv-x="653" 
d="M732 733h-25q6 111 -22.5 152.5t-135.5 41.5h-120q-34 0 -43 -7t-13 -33l-65 -392h86q68 0 91 24.5t34 92.5h25l-44 -265h-25q11 68 -4 92.5t-83 24.5h-86l-64 -385q-4 -17 -1.5 -28t22.5 -15.5t66 -4.5h33l-5 -31q-35 3 -167 3q-117 0 -153 -3l5 31h24q54 0 68 9t19 38
l134 802q5 29 -6 38t-65 9h-24l5 31h549z" />
    <glyph glyph-name="G" unicode="G" horiz-adv-x="785" 
d="M775 242q-48 0 -59.5 -7t-16.5 -37l-29 -174q-3 -23 -13 -23q-8 0 -27 22.5t-26 39.5q-33 -43 -89 -64t-111 -21q-94 0 -164 64.5t-98.5 181t-5.5 257.5q36 213 164 357.5t270 144.5q112 0 168 -115l65 101q9 14 16 14q8 0 9 -5.5t-2 -18.5l-60 -358q-2 -16 -5 -20
t-15 -4q-10 0 -11.5 3.5t-0.5 20.5q2 43 3.5 89.5t-8 93.5t-25.5 84t-50 60.5t-81 23.5q-24 0 -52.5 -8t-72 -37.5t-80.5 -77t-73 -138.5t-56 -210q-15 -89 -15 -162t10.5 -121t30 -84.5t41 -55.5t46.5 -31t42 -15t32 -3q13 0 32 3t51.5 13.5t57.5 37.5t32 67l10 64
q6 30 -7.5 39t-77.5 9h-32l6 31q35 -3 160 -3l123 3z" />
    <glyph glyph-name="H" unicode="H" horiz-adv-x="750" 
d="M716 0q-34 3 -147 3q-112 0 -148 -3l5 31h24q54 0 68 9t19 38l68 406h-299l-68 -406q-5 -29 6 -38t65 -9h24l-5 -31q-34 3 -147 3q-112 0 -148 -3l5 31h24q54 0 68 9t19 38l134 805q5 29 -6 38t-65 9h-24l5 31q35 -3 148 -3q112 0 147 3l-5 -31h-24q-54 0 -68 -9t-19 -38
l-61 -368h299l61 368q5 29 -6 38t-65 9h-24l5 31q35 -3 148 -3q112 0 147 3l-5 -31h-24q-54 0 -68 -9t-19 -38l-134 -805q-5 -29 6 -38t65 -9h24z" />
    <glyph glyph-name="I" unicode="I" horiz-adv-x="361" 
d="M333 0q-34 3 -152 3q-117 0 -153 -3l5 31h26q56 0 70.5 9t19.5 38l134 805q5 29 -6.5 38t-67.5 9h-26l5 31q35 -3 152 -3q118 0 153 3l-5 -31h-26q-56 0 -70.5 -9t-19.5 -38l-134 -805q-5 -29 6.5 -38t67.5 -9h26z" />
    <glyph glyph-name="J" unicode="J" horiz-adv-x="514" 
d="M620 930q-41 0 -57 -3.5t-22 -18.5q-3 -6 -9 -47l-104 -624q-9 -49 -10 -53q-22 -92 -87 -149t-134 -57q-70 0 -105.5 55t-24.5 124q5 32 25.5 45.5t40.5 13.5q24 0 37.5 -15t9.5 -41t-23.5 -41t-42.5 -15q-6 0 -16 2q4 -47 32 -76.5t69 -29.5q45 0 84 61t52 139l114 682
q4 17 1 28t-23 15.5t-68 4.5h-36l5 31q38 -3 168 -3l129 3z" />
    <glyph glyph-name="K" unicode="K" horiz-adv-x="778" 
d="M736 0l-111 3q-104 0 -141 -3l5 31q69 0 75 36v7q0 11 -4 23l-131 421l-144 -159l-47 -281q-5 -29 6 -38t65 -9h24l-5 -31q-34 3 -147 3q-112 0 -148 -3l5 31h24q54 0 68 9t19 38l134 805q5 29 -6 38t-65 9h-24l5 31q35 -3 148 -3q112 0 147 3l-5 -31h-24q-54 0 -68 -9
t-19 -38l-80 -482l418 460q11 13 14 24q2 15 -11.5 29.5t-46.5 15.5l5 31q34 -3 126 -3q58 0 85 3l-5 -31q-78 -4 -131 -63l-250 -276l157 -505q12 -37 29 -46t59 -9z" />
    <glyph glyph-name="L" unicode="L" horiz-adv-x="625" 
d="M625 258l-71 -258h-521l5 31h24q54 0 68 9t19 38l134 805q5 29 -6 38t-65 9h-24l5 31q35 -3 152 -3q132 0 168 3l-5 -31h-33q-46 0 -68 -6t-26.5 -13.5t-8.5 -28.5l-135 -811q-5 -26 1.5 -33t40.5 -7h82q37 0 67.5 8t52 18.5t40 31t29 36.5t21.5 44t16 44t13 45h25z" />
    <glyph glyph-name="M" unicode="M" horiz-adv-x="917" 
d="M879 0q-36 3 -142 3q-107 0 -145 -3l5 31h24q54 0 68 9t19 38l140 839l-399 -897q-8 -20 -19 -20t-13 20l-98 886l-133 -801q-4 -10 -2.5 -23t7 -24t27.5 -19t58 -8l-5 -31l-116 3l-118 -3l5 31q36 0 60 7t35 20.5t14.5 22.5t6.5 24l129 778q5 29 -6 38t-65 9h-24l5 31
h169q19 0 22.5 -3t5.5 -17l88 -800l353 800q6 14 11.5 17t23.5 3h169l-5 -31h-24q-54 0 -68 -9t-19 -38l-134 -805q-5 -29 6 -38t65 -9h24z" />
    <glyph glyph-name="N" unicode="N" horiz-adv-x="750" 
d="M871 930q-36 0 -60 -7t-35 -20.5t-14.5 -23t-5.5 -23.5l-139 -830q-2 -11 -3 -15.5t-4.5 -7.5t-10.5 -3t-9 2.5t-5 12.5l-272 872h-1l-130 -782q-4 -10 -2.5 -23t7 -24t27.5 -19t58 -8l-5 -31l-116 3l-118 -3l5 31q36 0 60 7t35 20.5t14.5 22.5t6.5 24l136 817
q-24 8 -74 8h-28l5 31h165q15 0 18.5 -2t7.5 -13l233 -749h1l110 659q4 10 2 23t-7.5 24t-27.5 19t-58 8l5 31l117 -3l117 3z" />
    <glyph glyph-name="O" unicode="O" horiz-adv-x="778" 
d="M801 478q-36 -213 -159 -356.5t-258 -143.5q-133 0 -208.5 142.5t-39.5 357.5q23 142 89 259t153 181.5t175 64.5q86 0 151 -63.5t93 -181t4 -260.5zM701 497q19 131 14 219t-33 142t-61.5 77t-72.5 23q-38 0 -79.5 -24t-86 -74t-82 -144.5t-58.5 -218.5q-40 -243 8 -368
t140 -125q42 0 86 28.5t87.5 85.5t80 155t57.5 224z" />
    <glyph glyph-name="P" unicode="P" horiz-adv-x="681" 
d="M742 706q-18 -106 -99 -178.5t-175 -72.5h-165l-63 -377q-5 -29 6 -38t65 -9h24l-5 -31q-34 3 -147 3q-112 0 -148 -3l5 31h24q54 0 68 9t19 38l134 805q5 29 -6 38t-65 9h-24l5 31h350q104 0 159 -76t38 -179zM639 706q6 38 8.5 58t0 50.5t-14.5 51.5q-31 64 -120 64
h-85q-34 0 -42.5 -7t-13.5 -33l-68 -409h134q90 0 144 67q18 22 30 52t16 48.5t11 57.5z" />
    <glyph glyph-name="Q" unicode="Q" horiz-adv-x="778" 
d="M725 -10q-4 -24 -13.5 -51t-26.5 -59t-46 -53t-65 -21q-31 0 -51 13t-29 30t-11 47.5t-1 50t5 53.5q-54 -22 -102 -22q-87 0 -152.5 63.5t-93 179.5t-3.5 257q23 142 89 259t153 181.5t175 64.5q86 0 151 -63.5t93 -181t4 -260.5q-30 -176 -113 -295t-166 -164
q5 -61 23 -85.5t54 -24.5q34 0 64 22.5t41 61.5q5 18 14 18q11 0 7 -21zM701 478q19 130 15 221t-30.5 148.5t-61 84t-76.5 26.5q-40 0 -83.5 -26.5t-88 -80.5t-82 -151t-58.5 -222q-26 -157 -11 -259q6 -57 30 -114.5t73 -85.5q-11 31 -5 72q8 46 35.5 79t65.5 33
q36 0 57 -22t27.5 -48.5t10.5 -68.5q133 121 182 414zM491 39q1 37 0.5 68.5t-18 52.5t-52.5 21q-24 0 -42.5 -20t-24.5 -36.5t-9 -33.5l-1 -3v-9t-0.5 -12t0.5 -14t3 -14.5t5.5 -13.5t8 -11t12.5 -8t17 -3q49 0 101 36z" />
    <glyph glyph-name="R" unicode="R" horiz-adv-x="736" 
d="M752 119q-1 -9 -6 -26.5t-17.5 -46t-37.5 -48.5t-57 -20q-44 0 -75 18t-45 44t-17.5 52.5t-0.5 54t14 94.5q8 44 10.5 67t0.5 52.5t-12 51.5q-12 26 -30.5 39.5t-31 16t-30.5 2.5h-115l-65 -392q-5 -29 6 -38t65 -9h24l-5 -31q-35 3 -145 3t-147 -3l5 31h24q54 0 68 9
t19 38l134 805q5 29 -6 38t-65 9h-24l5 31h310q113 0 177 -74t47 -176q-13 -78 -75.5 -143t-153.5 -89q114 -51 108 -189l-5 -107q-7 -103 0 -138q6 -45 39 -45q25 0 44.5 23.5t27.5 46.5t13 47q3 22 15 22q14 0 10 -20zM626 711q18 117 -14 163q-19 26 -48 39t-49.5 15
t-57.5 2q-46 0 -56 -2q-16 -2 -20.5 -10t-8.5 -28l-66 -398h106q91 0 151 63q45 48 63 156z" />
    <glyph glyph-name="S" unicode="S" horiz-adv-x="556" 
d="M542 256q-20 -116 -90 -197t-154 -81q-117 0 -169 93q-20 -31 -34 -54l-14 -23q-9 -16 -18 -16q-8 0 -9 5.5t2 18.5l49 292q2 11 3 15t4.5 7t9.5 3q12 0 10 -11q-3 -21 -4 -32t-2 -47t3 -59.5t15 -57t30 -53.5t52 -35t77 -15q59 0 106.5 62.5t62.5 151.5q3 32 5.5 71
t-16 79.5t-57.5 55.5l-98 36q-28 10 -44.5 18t-38.5 29.5t-34 52.5q-27 71 -12 159q18 109 87.5 184t151.5 75q105 0 147 -89l44 74q10 15 18 15t9 -5.5t-2 -18.5l-49 -293q-2 -15 -5 -19.5t-12 -4.5q-8 0 -9.5 4.5t0.5 19.5q7 49 3.5 100.5t-15 93.5t-46 68.5t-87.5 26.5
q-58 0 -105 -57.5t-60 -137.5q-15 -82 11 -135q10 -19 22.5 -31.5t23 -17.5t32.5 -13l87 -31q83 -30 107 -99q28 -82 12 -177z" />
    <glyph glyph-name="T" unicode="T" horiz-adv-x="722" 
d="M807 730h-25q10 79 1 122t-40.5 57.5t-108.5 14.5q-46 0 -57 -2q-9 -2 -14 -8t-6.5 -11.5t-4.5 -18.5l-134 -805q-3 -17 -0.5 -27.5t24.5 -15.5t73 -5h40l-5 -31q-40 3 -189 3q-148 0 -190 -3l5 31h40q73 0 91 9.5t22 38.5l134 805q4 17 2 26t-16 12q-10 2 -54 2
q-59 0 -91.5 -6.5t-56 -31t-35.5 -57t-29 -99.5h-25l56 225h611z" />
    <glyph glyph-name="U" unicode="U" horiz-adv-x="750" 
d="M871 930q-103 0 -114 -69l-85 -510q-14 -71 -15 -74q-33 -131 -110.5 -215t-162.5 -84q-68 0 -118.5 46t-71.5 123.5t-6 166.5l95 569q5 29 -6 38t-65 9h-24l5 31q35 -3 148 -3q112 0 147 3l-5 -31h-24q-54 0 -68 -9t-19 -38l-96 -579q-25 -150 13.5 -222.5t102.5 -72.5
q78 0 149.5 88t93.5 219l90 540q4 10 2 23t-7.5 24t-27.5 19t-58 8l5 31l119 -3l118 3z" />
    <glyph glyph-name="V" unicode="V" horiz-adv-x="750" 
d="M887 930q-37 0 -62.5 -13.5t-33.5 -25.5t-16 -30l-379 -862q-4 -9 -6.5 -13t-7 -6t-12.5 -2q-11 0 -13.5 4t-3.5 17l-94 889q-3 30 -17.5 36t-69.5 6l5 31l126 -3q108 0 143 3l-5 -31q-88 0 -93 -31l1 -18l78 -739l312 712q5 10 8 22q3 21 -14 37t-57 17l5 31l114 -3
q52 0 97 3z" />
    <glyph glyph-name="W" unicode="W" horiz-adv-x="1028" 
d="M1165 930q-76 0 -103 -68l-345 -863q-9 -21 -22 -21q-14 0 -14 20l-48 717h-1l-286 -717q-9 -20 -22 -20q-14 0 -14 21l-59 891q-1 28 -15.5 34t-63.5 6l5 31l121 -3q105 0 141 3l-5 -31q-89 0 -94 -32q-1 -3 0 -20l47 -708h1l242 602l-9 116q-2 29 -14 35.5t-65 6.5
l5 31l122 -3q105 0 141 3l-5 -31q-90 0 -95 -32l1 -13l47 -715h1l273 684l8 20q3 20 -17.5 37.5t-67.5 18.5l5 31l119 -3q46 0 91 3z" />
    <glyph glyph-name="X" unicode="X" horiz-adv-x="750" 
d="M729 0l-126 3q-107 0 -144 -3l5 31q32 1 55 11t25 20q1 6 -1 13l-116 368l-222 -341q-8 -10 -9 -19q-3 -18 15.5 -34.5t52.5 -17.5l-5 -31q-35 3 -127 3l-112 -3l5 31q99 0 142 66l249 382l-129 413q-7 23 -22 30.5t-59 7.5h-17l5 31l127 -3q107 0 143 3l-5 -31
q-30 -1 -54 -11t-26 -20q-1 -4 3 -14l96 -310l187 286l3 7q3 6 4 10q3 16 -14 33.5t-54 18.5l5 31q40 -3 127 -3l111 3l-5 -31q-99 0 -141 -65l-212 -325l148 -470q7 -23 20 -31t60 -8h17z" />
    <glyph glyph-name="Y" unicode="Y" horiz-adv-x="750" 
d="M895 930q-84 0 -124 -65l-290 -481l-51 -304q-5 -31 6 -40t66 -9h23l-5 -31q-35 3 -145 3t-147 -3l5 31h24q54 0 68 9t19 38l51 306l-136 504q-8 29 -21.5 35.5t-73.5 6.5l5 31l127 -3q108 0 144 3l-5 -31q-78 0 -83 -28q0 -10 2 -18l122 -452l258 428q9 15 10 23
q3 18 -11 32t-49 15l5 31l114 -3q51 0 97 3z" />
    <glyph glyph-name="Z" unicode="Z" horiz-adv-x="611" 
d="M605 267l-62 -267h-461q-17 0 -21 2.5t-2 14.5q1 10 9 21l547 892h-164q-113 0 -162.5 -48.5t-71.5 -145.5h-25l48 225h448q12 0 16 -0.5t6.5 -4t1.5 -11.5q-1 -7 -10 -20l-546 -891h172q67 0 112 15.5t72 50t40.5 70.5t27.5 97h25z" />
    <glyph glyph-name="bracketleft" unicode="[" horiz-adv-x="278" 
d="M167 -528h-137l259 1556h137l-6 -40h-97l-246 -1476h97z" />
    <glyph glyph-name="backslash" unicode="\" 
d="M361 -490q-4 -20 -23 -20q-14 0 -18 22l-95 1470l-2 18q4 20 23 20q14 0 18 -22l95 -1470z" />
    <glyph glyph-name="bracketright" unicode="]" horiz-adv-x="278" 
d="M71 -528h-137l7 40h97l246 1476h-97l6 40h137z" />
    <glyph glyph-name="asciicircum" unicode="^" horiz-adv-x="611" 
d="M688 584l-15 -22l-252 123l-291 -123l-8 22l310 160z" />
    <glyph glyph-name="underscore" unicode="_" horiz-adv-x="750" 
d="M727 -138h-750l4 26h750z" />
    <glyph glyph-name="grave" unicode="`" 
d="M409 581l-23 -13l-115 235q-8 16 -7 27q3 14 16 24t26 10q14 0 19.5 -7t9.5 -22z" />
    <glyph glyph-name="a" unicode="a" 
d="M498 89q-6 -37 -27 -60t-38.5 -29t-32.5 -6q-33 0 -49.5 24.5t-14.5 57.5q-22 -38 -60.5 -62.5t-85.5 -24.5q-59 0 -105 25.5t-37 80.5q13 84 122 130q65 29 190 36l6 37q10 62 -16.5 95t-68.5 33q-73 0 -116 -46q30 -1 38.5 -16t5.5 -30q-4 -20 -18.5 -33t-35.5 -13
q-20 0 -31 12.5t-7 34.5q8 49 57.5 81t112.5 32q81 0 128 -55q19 -25 21.5 -57t-5.5 -61l-33 -200q0 -4 -1 -15t6.5 -23t22.5 -12q36 0 47 64l9 56h25zM339 140l17 100q-112 -4 -167 -48t-64 -96q-6 -37 16.5 -61t59.5 -24q42 0 85 32.5t53 96.5z" />
    <glyph glyph-name="b" unicode="b" horiz-adv-x="556" 
d="M557 216q-16 -95 -93 -161t-168 -66q-81 0 -119 73l-46 -62h-25l146 874q6 37 -5.5 46.5t-63.5 9.5l5 31l146 11l-99 -595q69 65 148 65q86 0 138 -66t36 -160zM474 217q16 94 -6 139q-29 64 -94 64q-73 0 -129 -64q-13 -16 -17 -36l-34 -206q-2 -13 -1 -20t8 -22
q30 -61 95 -61q68 0 124 64q39 49 54 142z" />
    <glyph glyph-name="c" unicode="c" horiz-adv-x="444" 
d="M435 119q-1 -5 -7 -17.5t-21.5 -32.5t-36 -37.5t-53 -30t-70.5 -12.5q-88 0 -140.5 66t-36.5 161t90 163.5t166 68.5q61 0 102 -29t33 -78q-4 -22 -19 -34.5t-35 -12.5q-21 0 -31.5 13t-6.5 33q2 15 14.5 29.5t39.5 16.5q-30 37 -100 37q-51 0 -101 -48t-69 -157
q-17 -108 19 -156t88 -48q98 0 149 105q5 10 15 10q3 0 5 -0.5t4.5 -2.5t1.5 -7z" />
    <glyph glyph-name="d" unicode="d" horiz-adv-x="556" 
d="M527 0l-149 -11l11 66q-62 -66 -145 -66q-86 0 -138 66t-36 160q15 95 93 161t168 66q75 0 115 -62l83 494q6 37 -5.5 46.5t-63.5 9.5l5 31l146 11l-147 -885q-7 -37 4.5 -46.5t63.5 -9.5zM400 118l34 205q3 19 -5 37q-31 60 -98 60q-68 0 -124 -64q-39 -49 -54 -142
q-16 -94 6 -139q29 -64 94 -64q75 0 130 70q14 18 17 37z" />
    <glyph glyph-name="e" unicode="e" horiz-adv-x="444" 
d="M435 119q-1 -9 -14 -28.5t-35 -43t-60 -41t-80 -17.5q-89 0 -143.5 66.5t-37.5 164.5q16 94 87.5 161t158.5 67q88 0 124 -57.5t22 -138.5q-2 -15 -6.5 -18t-21.5 -3h-279q-17 -102 5 -150q13 -30 39 -48.5t62 -18.5q10 0 22 2t37 10.5t50.5 31.5t43.5 59q5 14 15 14
q13 0 11 -12zM391 252q3 15 4 33.5t-1.5 44.5t-10.5 46.5t-27.5 35t-48.5 14.5q-16 0 -34.5 -7t-42.5 -23.5t-44.5 -54t-31.5 -89.5h237z" />
    <glyph glyph-name="f" unicode="f" horiz-adv-x="306" 
d="M505 886q-4 -22 -18.5 -33.5t-33.5 -11.5t-29 12t-7 31q8 43 59 43q-15 34 -49 34q-43 0 -82 -87t-53 -172l-45 -271h117l-5 -31h-114l-54 -322q-5 -29 5.5 -38t62.5 -9h21l-5 -31q-39 3 -126 3l-115 -3l5 31q53 0 66.5 6.5t19.5 38.5l54 324h-79l5 31h79l45 268
q18 109 76 196.5t126 87.5q40 0 60 -30t14 -67z" />
    <glyph glyph-name="g" unicode="g" 
d="M552 404q-2 -15 -13 -22.5t-21 -7.5q-12 0 -19 8t-5 21q4 21 21 27l-10 1q-49 0 -97 -39q35 -36 25 -97q-10 -59 -64 -102.5t-122 -43.5q-56 0 -94 31q-18 -18 -25 -47q-4 -25 7.5 -44.5t34.5 -22.5q7 -1 75 -1q40 0 61.5 -1t52.5 -7.5t53 -19.5q59 -35 46 -114
q-9 -57 -80.5 -93t-162.5 -36q-92 0 -150.5 36.5t-49.5 90.5q5 31 34 59.5t75 40.5q-40 28 -30 89q8 46 45 83q-40 40 -30 103q10 59 64.5 102.5t122.5 43.5q60 0 100 -36q56 47 114 47q26 0 35.5 -16t6.5 -33zM358 296q21 123 -66 123q-45 0 -78 -40q-19 -25 -30 -84
q-3 -16 -3.5 -30.5t2.5 -38.5t20.5 -39t47.5 -15q44 0 77 40q22 27 30 84zM406 -79q3 16 0.5 28.5t-11.5 21t-18 15t-26 10.5t-29 6.5t-33.5 3.5t-33 1h-33.5h-59q-34 -2 -62.5 -27t-33.5 -59q-7 -41 36 -72.5t116 -31.5q72 0 126 31t61 73z" />
    <glyph glyph-name="h" unicode="h" horiz-adv-x="556" 
d="M535 0l-111 3l-114 -3l5 31q53 0 66.5 6.5t19.5 38.5l39 233q18 111 -56 111q-52 0 -100.5 -43.5t-61.5 -116.5l-30 -184q-6 -32 5.5 -38.5t64.5 -6.5l-5 -31l-111 3l-114 -3l5 31q53 0 66.5 6.5t19.5 38.5l133 798q6 37 -5.5 46.5t-63.5 9.5l5 31l146 11l-104 -626h1
q22 36 63 66t97 30q73 0 99 -37q12 -18 15 -39.5t1 -41t-11 -72.5l-32 -191q-3 -21 12.5 -25.5t60.5 -4.5z" />
    <glyph glyph-name="i" unicode="i" horiz-adv-x="278" 
d="M247 0q-102 3 -103 3l-111 -3l5 31q53 0 66.5 6.5t19.5 38.5l45 269q6 37 -5 46t-60 9l5 31l142 11l-61 -367q-5 -30 4 -37t58 -7zM311 716q-3 -20 -20.5 -36.5t-41.5 -16.5q-22 0 -35 16t-10 37q4 20 21.5 36.5t41.5 16.5q22 0 35 -16t9 -37z" />
    <glyph glyph-name="j" unicode="j" horiz-adv-x="306" 
d="M202 -50q-12 -67 -59 -111t-104 -44q-46 0 -76 21.5t-24 58.5q3 20 18 33t36 13t31 -13t7 -33q-3 -18 -15.5 -29.5t-26.5 -15.5q23 -13 51 -13q23 0 41 13.5t28.5 35.5t16.5 42t9 40l66 396q7 37 -6 46.5t-70 9.5l5 31l154 11zM329 716q-3 -20 -20.5 -36.5t-41.5 -16.5
q-22 0 -35 16t-10 37q4 20 21.5 36.5t41.5 16.5q22 0 35 -16t9 -37z" />
    <glyph glyph-name="k" unicode="k" horiz-adv-x="528" 
d="M511 0q-43 3 -86 3l-109 -3l5 31q36 0 40 23q3 16 -70 145q-12 23 -19 35l-73 -55l-17 -103q-6 -32 5.5 -38.5t64.5 -6.5l-5 -31l-109 3l-110 -3l5 31q53 0 66.5 6.5t19.5 38.5l133 798q6 37 -5.5 46.5t-63.5 9.5l5 31l146 11l-126 -758l161 122q25 20 29 39q4 23 -25 25
l5 31q42 -3 111 -3q41 0 71 3l-5 -31q-64 -3 -135 -54q-13 -9 -53 -39t-40 -33q-1 -2 4 -11l97 -179q14 -25 28.5 -37t25.5 -14t34 -2z" />
    <glyph glyph-name="l" unicode="l" horiz-adv-x="278" 
d="M255 0l-110 3l-112 -3l5 31q53 0 66.5 6.5t19.5 38.5l133 798q6 37 -5.5 46.5t-63.5 9.5l5 31l146 11l-149 -896q-6 -32 5.5 -38.5t64.5 -6.5z" />
    <glyph glyph-name="m" unicode="m" horiz-adv-x="833" 
d="M813 0l-111 3l-114 -3l5 31q53 0 66.5 6.5t19.5 38.5l39 233q18 111 -56 111q-52 0 -100.5 -43.5t-61.5 -116.5l-30 -184q-6 -32 5.5 -38.5t64.5 -6.5l-5 -31l-111 3l-114 -3l5 31q53 0 66.5 6.5t19.5 38.5l39 233q18 111 -56 111q-52 0 -100.5 -43.5t-61.5 -116.5
l-30 -184q-6 -32 5.5 -38.5t64.5 -6.5l-5 -31l-111 3l-114 -3l5 31q53 0 66.5 6.5t19.5 38.5l44 268q7 37 -4.5 46.5t-63.5 9.5l5 31l143 11l-17 -103h1q64 103 164 103q20 0 37.5 -3.5t37 -12.5t30.5 -30t11 -52q24 38 65 68t97 30q73 0 99 -37q12 -18 15 -39.5t1 -41
t-11 -72.5l-32 -191q-3 -21 12.5 -25.5t60.5 -4.5z" />
    <glyph glyph-name="n" unicode="n" horiz-adv-x="556" 
d="M535 0l-111 3l-114 -3l5 31q53 0 66.5 6.5t19.5 38.5l39 233q18 111 -56 111q-52 0 -100.5 -43.5t-61.5 -116.5l-30 -184q-6 -32 5.5 -38.5t64.5 -6.5l-5 -31l-111 3l-114 -3l5 31q53 0 66.5 6.5t19.5 38.5l44 268q7 37 -4.5 46.5t-63.5 9.5l5 31l143 11l-17 -103h1
q64 103 164 103q73 0 99 -37q12 -18 15 -39.5t1 -41t-11 -72.5l-32 -191q-3 -21 12.5 -25.5t60.5 -4.5z" />
    <glyph glyph-name="o" unicode="o" 
d="M507 214q-16 -94 -92 -159.5t-168 -65.5q-89 0 -144 65t-39 160t92 164.5t169 69.5q91 0 144.5 -69t37.5 -165zM425 222q15 97 -3 139q-29 65 -102 65q-32 0 -66 -17t-59 -50q-30 -43 -47 -137q-16 -97 2 -141q28 -67 102 -67q37 0 71.5 20t57.5 54q29 44 44 134z" />
    <glyph glyph-name="p" unicode="p" horiz-adv-x="556" 
d="M557 216q-16 -95 -93 -161t-168 -66q-34 0 -62 15t-37 26t-14 20l-28 -168q-5 -32 6.5 -38.5t64.5 -6.5l-5 -31l-113 3l-112 -3l5 31q53 0 66.5 6.5t18.5 38.5l78 468q6 33 -5 41.5t-64 8.5l5 31l146 11l-11 -66q69 66 151 66q85 0 136 -66t35 -160zM474 216
q14 84 -15.5 142.5t-84.5 58.5q-83 0 -143 -80l-37 -223q-2 -15 -1 -20.5t8 -21.5q30 -61 95 -61q57 0 110 58.5t68 146.5z" />
    <glyph glyph-name="q" unicode="q" horiz-adv-x="528" 
d="M495 -194l-113 3l-112 -3l5 31q53 0 66.5 6.5t18.5 38.5l30 179q-67 -72 -145 -72q-87 0 -139 66.5t-36 159.5q16 96 93 161.5t166 65.5q37 0 64.5 -18t38 -36t16.5 -37l53 91h22l-94 -560q-5 -32 6.5 -38.5t64.5 -6.5zM406 136l23 141q8 47 -17.5 93.5t-80.5 46.5
q-57 0 -110 -57.5t-68 -144.5q-14 -86 15.5 -145t84.5 -59q52 0 99 41q46 43 54 84z" />
    <glyph glyph-name="r" unicode="r" horiz-adv-x="392" 
d="M428 381q-4 -22 -19.5 -33t-31.5 -11q-18 0 -28.5 11.5t-7.5 31.5q2 12 9.5 21.5t12.5 13t8 4.5q-2 1 -11 1q-55 0 -95.5 -55t-53.5 -133l-26 -154q-5 -29 5.5 -38t62.5 -9h21l-5 -31q-39 3 -126 3l-115 -3l5 31q53 0 66.5 6.5t19.5 38.5l44 268q7 37 -4.5 46.5
t-63.5 9.5l5 31l141 11l-18 -107h1q20 41 56 74t84 33q32 0 50 -18t14 -43z" />
    <glyph glyph-name="s" unicode="s" horiz-adv-x="394" 
d="M381 128q-10 -59 -56.5 -99t-127.5 -40q-65 0 -103 43l-23 -23q-24 -20 -29 -20q-8 0 -9 5.5t2 18.5l22 132q2 11 3 15t4.5 7t9.5 3q7 0 9 -3.5t3 -13.5q3 -69 29 -105.5t86 -36.5q56 0 89 25.5t39 65.5q12 74 -89 92q-58 12 -81 20t-43 26q-37 36 -29 85q9 50 53.5 86.5
t127.5 36.5q56 0 89 -28q10 6 20 16q15 12 22 12q8 0 9 -5.5t-2 -18.5l-17 -101q-2 -15 -5 -19.5t-12 -4.5q-11 0 -11 9q16 121 -96 121q-59 0 -89.5 -22.5t-35.5 -53.5q-3 -17 3 -30t15 -20.5t27.5 -14.5t30 -9.5t33.5 -7.5q78 -15 106 -48q35 -42 26 -95z" />
    <glyph glyph-name="t" unicode="t" horiz-adv-x="389" 
d="M353 124q-9 -54 -41 -94.5t-81 -40.5q-11 0 -22 1.5t-26.5 6t-26 13.5t-21.5 24t-12 37t2 53l46 276h-85l3 22q67 3 107.5 60.5t54.5 132.5h25l-31 -184h143l-5 -31h-143l-47 -278q-13 -108 49 -108q29 0 53 29.5t33 82.5l9 55h25z" />
    <glyph glyph-name="u" unicode="u" horiz-adv-x="556" 
d="M535 0l-146 -11l15 88h-1q-56 -88 -143 -88q-44 0 -72.5 11t-41 25t-16 41t-1.5 43.5t7 48.5l25 150q12 67 4 79.5t-66 12.5l5 31l149 11l-56 -332q-3 -27 -3.5 -49t18 -36t57.5 -14q54 0 95 44t52 111l29 178q7 37 -4.5 46.5t-63.5 9.5l5 31l149 11l-59 -355
q-7 -37 4.5 -46.5t63.5 -9.5z" />
    <glyph glyph-name="v" unicode="v" horiz-adv-x="528" 
d="M575 400q-69 -1 -103 -67l-186 -325q-10 -19 -24 -19q-9 0 -12 3.5t-6 15.5l-84 355q-6 25 -17.5 31t-56.5 6l5 31q45 -3 96 -3l110 3l-5 -31q-57 0 -62 -26q0 -4 4 -17l65 -279l145 255q9 20 10 24q3 17 -6.5 29.5t-34.5 13.5l5 31q51 -3 86 -3q42 0 76 3z" />
    <glyph glyph-name="w" unicode="w" horiz-adv-x="722" 
d="M770 400q-63 -2 -95 -64l-172 -328q-9 -19 -23 -19t-17 19l-54 284l-148 -283q-11 -20 -24 -20q-14 0 -17 22l-67 354q-5 23 -17 29t-51 6l5 31l92 -3l110 3l-5 -31q-59 0 -64 -27q0 -10 2 -18l51 -267l126 242q-10 50 -14 55q-9 15 -60 15l5 31q45 -3 88 -3l105 3
l-5 -31q-59 0 -64 -27q-1 -3 2 -19l53 -279l133 256q8 15 9 21q4 22 -9.5 34.5t-40.5 13.5l5 31q57 -3 92 -3q41 0 74 3z" />
    <glyph glyph-name="x" unicode="x" horiz-adv-x="528" 
d="M516 0q-45 3 -95 3l-109 -3l5 31q18 1 28.5 9t11.5 16q1 4 -15 33l-59 100q-92 -90 -104 -110q-7 -10 -8 -17q-4 -27 24 -31l-5 -31l-94 3q-45 0 -84 -3l5 31q79 0 138 60q19 19 114 119l-77 129q-28 45 -42 53t-66 8l5 31q41 -3 94 -3l109 3l-5 -31q-36 -2 -39 -25
q-1 -9 6 -18l61 -101l75 78q18 18 21 35q4 28 -24 31l5 31q39 -3 95 -3q44 0 83 3l-5 -31q-76 -2 -128 -52q-10 -9 -111 -113l105 -173q14 -21 30.5 -26t59.5 -5z" />
    <glyph glyph-name="y" unicode="y" horiz-adv-x="528" 
d="M575 400q-66 0 -104 -64l-247 -427q-68 -114 -147 -114q-38 0 -61 23.5t-18 57.5q3 21 17.5 32t31.5 11q18 0 28.5 -11.5t6.5 -30.5q-5 -37 -46 -42q16 -18 44 -18q23 0 43 10.5t37.5 32t28.5 38t26 43.5l35 59l-89 365q-6 24 -20 29.5t-55 5.5l5 31q45 -3 96 -3l110 3
l-5 -31q-56 0 -61 -26q0 -3 3 -18l67 -269l142 246q8 14 10 24q7 41 -40 43l5 31l86 -3q42 0 76 3z" />
    <glyph glyph-name="z" unicode="z" horiz-adv-x="444" 
d="M432 187l-48 -187h-330q-16 0 -20.5 2t-3.5 12q1 6 12 18l342 377h-114q-79 0 -109.5 -29t-48.5 -110h-25l38 161h320h11.5t7.5 -1.5t5 -4t0 -7.5q-2 -7 -12 -17l-341 -376h118q83 0 117 34.5t56 127.5h25z" />
    <glyph glyph-name="braceleft" unicode="{" 
d="M340 -518q-2 -10 -12 -10h-2q-83 0 -131.5 59.5t-34.5 142.5l64 383q12 76 -16.5 129t-85.5 53q-10 0 -8 10v2q2 10 12 10q57 0 103 53t59 129l64 383q14 83 82 142.5t151 59.5h2q11 0 9 -10l-1 -3q-2 -10 -11 -10q-58 0 -104 -52t-58 -127l-64 -383q-11 -67 -58.5 -120
t-111.5 -73q57 -20 87 -73t19 -120l-64 -383q-13 -75 15.5 -127t86.5 -52q10 0 8 -10v-3z" />
    <glyph glyph-name="bar" unicode="|" horiz-adv-x="278" 
d="M73 -508q-4 -20 -23 -20q-8 0 -13 6t-4 14l253 1515q4 21 23 21q8 0 13 -6t4 -15z" />
    <glyph glyph-name="braceright" unicode="}" 
d="M468 249q-2 -10 -12 -10q-57 0 -103.5 -53t-58.5 -129l-64 -383q-14 -83 -82.5 -142.5t-151.5 -59.5h-2q-10 0 -8 10v3q2 10 12 10q57 0 103 52t59 127l64 383q11 67 58.5 120t111.5 73q-58 20 -87.5 73t-18.5 120l64 383q12 75 -16.5 127t-85.5 52q-11 0 -9 10l1 3
q2 10 11 10h2q83 0 132 -59.5t35 -142.5l-64 -383q-13 -76 15.5 -129t86.5 -53q10 0 8 -10v-2z" />
    <glyph glyph-name="asciitilde" unicode="~" horiz-adv-x="611" 
d="M623 290l-61 -44q-23 -17 -63 -35q-41 -18 -76 -18q-42 0 -94 34q-59 37 -98 37q-68 0 -165 -71l-11 17l61 44q22 16 63 35q43 18 76 18q41 0 95 -34q57 -37 97 -37q68 0 165 71z" />
    <glyph glyph-name="uni00A0" unicode="&#xa0;" 
 />
    <glyph glyph-name="exclamdown" unicode="&#xa1;" horiz-adv-x="278" 
d="M313 725q-4 -22 -22 -37.5t-40 -15.5t-35 15.5t-9 37.5t22 37.5t40 15.5t35 -15.5t9 -37.5zM166 -155q-3 -33 -23.5 -47t-39.5 -14q-7 0 -14 2t-17 8.5t-12.5 19t0.5 32.5l161 722q3 15 6 19t11 4t9.5 -5t-0.5 -19z" />
    <glyph glyph-name="cent" unicode="&#xa2;" horiz-adv-x="444" 
d="M435 119q-1 -5 -6.5 -16.5t-19.5 -30t-32 -35.5t-47.5 -30.5t-63.5 -16.5l-14 -86h-31l14 85q-84 5 -132.5 70t-32.5 157q15 91 84 158.5t158 73.5l14 86h31l-14 -86q56 -5 90.5 -33.5t27.5 -73.5q-4 -22 -19 -34.5t-35 -12.5q-21 0 -31.5 13t-6.5 33q2 15 14.5 29.5
t39.5 16.5q-24 31 -85 36l-68 -408q92 7 139 105q5 10 15 10q3 0 5 -0.5t4.5 -2.5t1.5 -7zM240 16l67 406q-49 -7 -93 -55.5t-61 -148.5q-16 -96 12 -144.5t75 -57.5z" />
    <glyph glyph-name="sterling" unicode="&#xa3;" horiz-adv-x="639" 
d="M642 186q-7 -44 -28 -86.5t-62.5 -76t-91.5 -33.5q-13 0 -26.5 3.5t-23.5 7t-23.5 12.5t-20.5 13.5t-20.5 17.5t-17 17t-17.5 18.5t-15 15.5q-26 -43 -69.5 -74t-88.5 -31q-32 0 -53 20t-19 53l1 10q8 50 50 86t92 36q33 0 62 -16l8 37l43 256h-65q-7 0 -11 1t-7 4.5
t-2 10.5q3 15 20 15h70l41 244q16 87 77 163t137 76q6 0 20 -2q39 -8 65 -35.5t34.5 -63.5t10.5 -76t-6 -74q-4 -21 -18 -36t-36 -15q-21 0 -32 12.5t-7 32.5q3 19 17.5 33t34.5 14q12 0 20 -4q2 33 -1.5 63.5t-13.5 61t-32.5 48.5t-55.5 18q-108 0 -149 -245l-36 -215h96
q18 0 15 -15q-2 -16 -24 -16h-92l-41 -243q-7 -35 -17 -60q-10 -23 -10 -25v-2q0 -2 10 -12q2 -2 15.5 -17t18.5 -19.5t18.5 -17t22 -18t21.5 -12.5t26 -10t27 -3q38 0 68 28t43.5 58t22.5 65l2 12q3 9 14 9q12 0 10 -14zM253 125v2q0 7 -23 15.5t-40 8.5q-34 0 -57.5 -24
t-29.5 -57q-5 -26 8 -41.5t32 -15.5q33 0 68.5 39.5t41.5 72.5z" />
    <glyph glyph-name="currency" unicode="&#xa4;" horiz-adv-x="737" 
d="M687 -25q-2 -8 -8.5 -14t-15.5 -6q-5 0 -9 2.5t-6.5 5t-6 7.5t-5.5 7l-62 75q-5 5 -7 5h-1q-5 0 -20 -12q-84 -55 -182 -55q-89 0 -165 60q-5 7 -10 7h-1q-3 -1 -6.5 -3.5t-4.5 -3.5l-90 -77q-20 -18 -30 -18q-7 0 -12.5 6t-3.5 13q1 11 25 30l86 74q7 6 10 9v2q0 5 -2 7
q-48 95 -34 181q15 87 80 167q18 18 19 22v2q0 2 -2.5 5t-2.5 4l-70 83q-10 12 -8 20q2 16 18 20l5 1q5 0 9 -2.5t6.5 -5t7 -7.5t5.5 -7l62 -75q5 -5 7 -5h1q5 0 20 12q84 55 181 55q90 0 165 -60q7 -7 11 -7h1q2 1 6 4l4 3l90 77q23 18 30 18q8 0 13 -6t4 -13
q-2 -9 -25 -30l-87 -75l-9 -9v-1q0 -1 3 -10q49 -83 33 -178q-17 -95 -83 -169q-16 -19 -16 -20v-2q0 -2 2.5 -5t2.5 -4l68 -82q11 -13 10 -22zM663 280q17 104 -46 175t-162 71q-103 0 -187.5 -75t-101.5 -174l-2 -13q-7 -105 53.5 -169t157.5 -64q104 0 187.5 74.5
t100.5 174.5z" />
    <glyph glyph-name="yen" unicode="&#xa5;" horiz-adv-x="750" 
d="M895 930q-84 0 -124 -65l-258 -427h230l-5 -30h-242l-15 -24l-22 -132h253l-5 -30h-253l-24 -142q-5 -31 6 -40t66 -9h23l-5 -31q-35 3 -145 3t-147 -3l5 31h24q54 0 68 9t19 38l24 144h-251l5 30h251l22 132l-6 24h-241l5 30h227l-121 450q-8 29 -21.5 35.5t-73.5 6.5
l5 31l127 -3q108 0 144 3l-5 -31q-78 0 -83 -28q0 -10 2 -18l120 -446h5l255 422q9 15 10 23q3 18 -11 32t-49 15l5 31l114 -3q51 0 97 3z" />
    <glyph glyph-name="brokenbar" unicode="&#xa6;" horiz-adv-x="167" 
d="M20 -497q-4 -27 -21 -29h-4q-20 0 -15 26l106 640q6 27 16 31l6 2l5 1q18 0 16 -20zM163 361q-4 -29 -22 -32h-4q-20 0 -14 28l106 638q5 30 21 33l6 1q7 0 11.5 -5.5t3.5 -13.5z" />
    <glyph glyph-name="section" unicode="&#xa7;" horiz-adv-x="484" 
d="M479 194q-15 -92 -126 -212q36 -86 17 -201q-18 -113 -73 -193.5t-137 -80.5q-33 0 -55.5 13t-34 38.5t-17 55t-4 70.5t6 75.5t11.5 79.5q3 19 19 32.5t35 13.5t30 -13.5t8 -32.5t-19 -32.5t-35 -13.5q-7 0 -19 4q-8 -53 -9.5 -91t4 -75.5t27.5 -57.5t59 -20
q33 0 58.5 19.5t41.5 55t25.5 71t17.5 82.5q23 134 -61 225l-75 81q-104 106 -86 219q14 88 126 211q-36 87 -17 202q12 72 38 131.5t71.5 101t101.5 41.5q33 0 55.5 -13t34 -38.5t17 -55t3.5 -70.5t-6 -75.5t-12 -79.5q-3 -19 -18.5 -32.5t-34.5 -13.5t-30.5 13.5
t-8.5 32.5t19 32.5t35 13.5q9 0 19 -4q8 63 10.5 117.5t-20 90.5t-71.5 36q-33 0 -58.5 -19.5t-41.5 -55t-25.5 -71t-17.5 -82.5q-22 -136 61 -225l76 -81q104 -108 85 -219zM401 194q14 87 -62 167l-75 81q-22 22 -38 51q-17 -26 -29.5 -61t-18 -59.5t-12.5 -66.5
q-14 -85 62 -167l76 -81q22 -23 37 -52q41 61 60 188z" />
    <glyph glyph-name="dieresis" unicode="&#xa8;" 
d="M322 716q-3 -19 -20 -34.5t-38 -15.5t-33 14.5t-9 35.5q4 21 21 35.5t38 14.5t32.5 -15.5t8.5 -34.5zM515 716q-3 -21 -20 -35.5t-38 -14.5q-22 0 -33.5 15.5t-8.5 34.5t20 34.5t39 15.5q21 0 33 -14.5t8 -35.5z" />
    <glyph glyph-name="copyright" unicode="&#xa9;" horiz-adv-x="1111" 
d="M1095 241q-45 -273 -191 -491q-83 -126 -198.5 -212.5t-242.5 -86.5q-126 0 -211.5 85t-127.5 211q-74 219 -29 495q50 293 192 505q187 281 424 304q6 1 18 1q117 0 200.5 -74.5t128.5 -188.5q91 -228 37 -548zM1057 249q39 238 -7 427q-16 65 -43 121t-66 106t-95.5 79
t-123.5 29q-150 0 -300 -154q-223 -230 -288 -618q0 -1 -1.5 -9.5t-1.5 -13.5q0 -8 -2.5 -22t-2.5 -20q-18 -189 13 -328q11 -48 27.5 -94t45 -94.5t64 -84.5t86.5 -59t109 -23h9q159 7 310 173q107 118 173.5 269.5t93.5 315.5zM818 241q-15 -96 -83.5 -175t-162.5 -87h-9
q-87 0 -146 55t-78.5 136t-5.5 168q11 64 41.5 127t75 115t106 84t127.5 32q78 0 130 -75q6 11 20 25q3 4 15 19t20 23t14 8q11 0 9 -15l-44 -261q-3 -16 -18 -16q-7 0 -10 3.5t-3.5 7t0.5 11t1 9.5q7 216 -124 230q-47 0 -87.5 -21t-67.5 -53.5t-48.5 -78t-33.5 -87.5
t-20 -88q-10 -60 -12 -104.5t11 -96.5t46 -85q44 -41 96 -41q82 0 135 65.5t79 159.5l2 13q3 9 15 9q14 0 10 -16z" />
    <glyph glyph-name="ordfeminine" unicode="&#xaa;" horiz-adv-x="444" 
d="M536 586q-7 -40 -37.5 -58.5t-69.5 -18.5q-24 0 -40 13.5t-16 39.5h-1q-17 -29 -50.5 -43.5t-67.5 -14.5q-52 0 -87 21t-28 60q7 44 52.5 72t95 37t100.5 9l14 76q15 95 9 152q-9 93 -49 93q-35 0 -63 -30q-11 -11 -19.5 -26t-14 -26t-11.5 -32t-8.5 -29.5t-7.5 -33
t-6 -29.5q16 4 23 4q19 0 30 -13t8 -32q-4 -20 -19.5 -33.5t-34.5 -13.5q-21 0 -31.5 13.5t-6.5 37.5l3 17q42 248 163 248q38 0 64 -23.5t35 -58.5t13 -74.5t-2 -72.5l-39 -238q-4 -18 4.5 -28t24.5 -10q36 0 43 41l6 34h25q-2 -10 -4 -30zM372 612l12 70q-22 0 -47.5 -5
t-51 -15.5t-44.5 -30t-23 -44.5q-4 -24 10 -42.5t42 -18.5q35 0 65.5 25.5t36.5 60.5zM475 464q-1 -11 -17 -11h-322q-7 0 -11.5 2.5t-3.5 8.5q2 7 10 10q6 2 11 2q2 0 8 -0.5t8 -0.5h309q10 -2 8 -11z" />
    <glyph glyph-name="guillemotleft" unicode="&#xab;" horiz-adv-x="556" 
d="M356 473q0 -2 -1 -3q-48 -122 -132 -230q47 -104 56 -229q0 -11 -10 -11h-2q-8 0 -10 8q-22 128 -103 227q-3 3 -3 7q0 3 4 7q114 100 180 229q3 5 9 5h2q10 0 10 -10zM523 473q0 -2 -1 -3q-48 -122 -132 -230q47 -104 56 -229q0 -11 -10 -11h-2q-8 0 -10 8
q-22 128 -103 227q-3 3 -3 7q0 3 4 7q114 100 180 229q3 5 9 5h2q10 0 10 -10z" />
    <glyph glyph-name="logicalnot" unicode="&#xac;" horiz-adv-x="667" 
d="M631 121q-5 -30 -26 -30q-19 1 -13 32l32 194h-484q-9 0 -14.5 0.5t-10.5 5.5t-4 14q3 17 22 20h514q23 0 19 -29z" />
    <glyph glyph-name="uni00AD" unicode="&#xad;" horiz-adv-x="333" 
d="M307 187h-265l10 58h265z" />
    <glyph glyph-name="registered" unicode="&#xae;" horiz-adv-x="1111" 
d="M1095 241q-45 -273 -191 -491q-83 -126 -198.5 -212.5t-242.5 -86.5q-126 0 -211.5 85t-127.5 211q-74 219 -29 495q50 293 192 505q187 281 424 304q6 1 18 1q117 0 200.5 -74.5t128.5 -188.5q91 -228 37 -548zM1057 249q39 238 -7 427q-16 65 -43 121t-66 106t-95.5 79
t-123.5 29q-150 0 -300 -154q-223 -230 -288 -618q0 -1 -1.5 -9.5t-1.5 -13.5q0 -8 -2.5 -22t-2.5 -20q-18 -189 13 -328q11 -48 27.5 -94t45 -94.5t64 -84.5t86.5 -59t109 -23h9q159 7 310 173q107 118 173.5 269.5t93.5 315.5zM893 112q-9 -52 -36.5 -92.5t-76.5 -40.5
q-47 0 -78.5 14.5t-43 37t-15.5 50.5t3 54l9 48q11 67 -11 105.5t-73 38.5h-85l-42 -251q-5 -29 9.5 -36.5t51.5 -7.5h34l-5 -31h-292l5 31q5 0 17.5 -0.5t19.5 -0.5q66 0 74 45l87 524q5 27 -11 35.5t-48 8.5q-6 0 -18.5 -0.5t-18.5 -0.5l5 31h220q9 0 28 0.5t28 0.5
q37 0 76 -10t74 -30t54 -55.5t12 -80.5q-4 -26 -13.5 -47t-27.5 -37.5t-30 -26.5t-39.5 -22.5t-36.5 -16t-40 -14.5q18 -6 33 -18q22 -15 34 -35.5t16 -44.5t5 -54.5t0 -65.5q-6 -116 42 -116q24 0 40.5 20.5t23.5 45t14.5 45t15.5 20.5q13 0 10 -20zM743 496q6 23 4 41.5
t-3.5 33t-10 25.5t-15 18.5t-19.5 13t-23 8.5t-25 4.5t-26.5 2t-27.5 0.5h-10q-24 0 -37.5 -5.5t-16.5 -25.5l-44 -263h64q72 0 112 20q37 20 54 51.5t24 75.5z" />
    <glyph glyph-name="macron" unicode="&#xaf;" 
d="M547 700h-361l5 32h361z" />
    <glyph glyph-name="degree" unicode="&#xb0;" horiz-adv-x="333" 
d="M418 852q-8 -45 -45 -77t-82 -32q-46 0 -72.5 32t-18.5 77t44.5 77t82.5 32q45 0 71.5 -32t19.5 -77zM379 852q5 29 -12 49.5t-46 20.5t-53 -20.5t-29 -49.5t12 -49.5t46 -20.5t53.5 20.5t28.5 49.5z" />
    <glyph glyph-name="plusminus" unicode="&#xb1;" horiz-adv-x="778" 
d="M726 21q-4 -21 -32 -21q-4 0 -10.5 0.5t-9.5 0.5h-593q-10 0 -17 4.5t-6 14.5q1 7 9 13.5t16 7.5h293l45 273h-289q-11 0 -17 5t-4 15q3 20 28 20h289l48 288q5 25 23 25q21 0 17 -27l-48 -286h287q11 0 17.5 -5t5.5 -15q-4 -20 -29 -20h-288l-45 -273h290q9 0 15 -5.5
t5 -14.5z" />
    <glyph glyph-name="two.superior" unicode="&#xb2;" horiz-adv-x="444" 
d="M503 662l-57 -175h-315l9 52q2 11 13.5 23t34.5 29t30 23q14 12 55 45t61.5 52t49.5 49.5t44.5 60t20.5 61.5q9 54 -11 96t-72 42q-34 0 -65.5 -19.5t-50.5 -51.5q4 1 11 1q22 0 35 -14.5t9 -37.5q-4 -24 -22 -38.5t-41 -14.5q-21 0 -33 14t-10 35l1 5q10 64 65.5 108
t122.5 44q74 0 119 -49t32 -124q-3 -20 -10.5 -38.5t-22 -36.5t-24.5 -29.5t-33.5 -29t-32 -24t-36.5 -24.5t-32 -21q-31 -20 -86 -60.5t-68 -49.5h150q22 0 34 1h29q25 0 33 6q6 5 12 17t9.5 21.5t9 27.5t7.5 24h25z" />
    <glyph glyph-name="three.superior" unicode="&#xb3;" horiz-adv-x="444" 
d="M507 636q-12 -74 -77.5 -117.5t-138.5 -43.5q-37 0 -71.5 9.5t-60 36t-19.5 65.5q4 25 22.5 40.5t44.5 15.5h7q20 -3 30 -19.5t7 -37.5q-4 -20 -21 -36.5t-37 -16.5v-1q57 -27 104 -27q17 0 29 5q27 13 44 36t23 43t12 51q21 125 -73 125h-30q-7 2 -7 9v2q1 8 12.5 11
t28.5 4.5t25 4.5q57 22 76 140q6 39 -7 65t-46 26q-74 0 -130 -103q9 3 20 3q22 0 34 -15.5t9 -35.5q-4 -22 -21 -36t-39 -14q-50 0 -41 58q9 57 57.5 112.5t110.5 55.5h9q56 0 99 -30t39 -82l-2 -7q-16 -103 -140 -153q53 -9 88 -46t31 -89z" />
    <glyph glyph-name="acute" unicode="&#xb4;" 
d="M512 830q-1 -10 -15 -27l-193 -235l-19 13l158 254q7 11 10 15t11 9t18 5q13 0 23 -10t7 -24z" />
    <glyph glyph-name="uni00B5" unicode="&#xb5;" horiz-adv-x="556" 
d="M535 0l-146 -11l15 88h-1q-56 -88 -143 -88q-48 0 -81 13l-20 -120q-5 -32 6.5 -38.5t64.5 -6.5l-5 -31l-113 3l-112 -3l5 31q53 0 66.5 6.5t18.5 38.5l71 426q12 67 4 79.5t-66 12.5l5 31l149 11l-56 -332q-3 -27 -3.5 -49t18 -36t57.5 -14q54 0 95 44t52 111l29 178
q7 37 -4.5 46.5t-63.5 9.5l5 31l149 11l-59 -355q-7 -37 4.5 -46.5t63.5 -9.5z" />
    <glyph glyph-name="paragraph" unicode="&#xb6;" horiz-adv-x="611" 
d="M741 954q-4 -21 -30 -21h-56l-182 -1086h57q12 0 18 -5.5t4 -14.5q-3 -20 -28 -20h-264q-10 0 -17 4.5t-6 14.5q3 21 30 21h56l88 524q-45 0 -92 20q-83 33 -125.5 109.5t-26.5 173.5q21 127 109.5 213t203.5 86h237q7 0 12 -1t9 -5.5t3 -12.5zM433 -153l182 1086h-70
l-182 -1086h70z" />
    <glyph glyph-name="periodcentered" unicode="&#xb7;" horiz-adv-x="278" 
d="M234 250q-4 -22 -22 -37.5t-40 -15.5t-35 15.5t-9 37.5t22 37.5t40 15.5t35 -15.5t9 -37.5z" />
    <glyph glyph-name="cedilla" unicode="&#xb8;" horiz-adv-x="444" 
d="M346 -126q-9 -50 -85 -66q-49 -11 -120 -11h-44l4 22h31q136 0 145 55q4 24 -15.5 39t-58.5 16l13 76h69l-10 -60q81 -13 71 -71z" />
    <glyph glyph-name="one.superior" unicode="&#xb9;" horiz-adv-x="444" 
d="M455 487h-291l5 31q6 0 19.5 -0.5t20.5 -0.5q69 0 77 44l66 398q-65 -42 -130 -42l5 31q101 0 181 88q9 15 19 15q15 0 13 -16l-80 -475q-4 -25 12 -34t46 -9q7 0 21.5 0.5t20.5 0.5z" />
    <glyph glyph-name="ordmasculine" unicode="&#xba;" horiz-adv-x="444" 
d="M543 769q-16 -95 -78 -175.5t-149 -89.5q-66 0 -107 42t-52 100.5t0 124.5q15 96 77 180.5t150 94.5q52 0 89 -26t52.5 -66.5t21.5 -89.5t-4 -95zM465 795q8 56 9 83q5 56 -15 101t-68 45q-5 0 -17 -2q-32 -9 -55.5 -32t-38 -56.5t-22.5 -62t-14 -65.5l-5 -35
q-5 -27 -5 -41q0 -7 -2 -20t-2 -17q-3 -25 0 -54t9.5 -53.5t24.5 -40.5t45 -16q26 0 48 12.5t37.5 37t27 48t20.5 59.5t13 56.5t10 52.5zM475 464q-1 -11 -17 -11h-322q-7 0 -11.5 2.5t-3.5 8.5q2 7 10 10q6 2 11 2q2 0 8 -0.5t8 -0.5h309q10 -2 8 -11z" />
    <glyph glyph-name="guillemotright" unicode="&#xbb;" horiz-adv-x="556" 
d="M485 242q0 -4 -4 -8q-114 -100 -180 -229q-3 -5 -9 -5h-2q-10 0 -10 10q0 3 1 4q47 120 132 229q-47 103 -56 230q0 10 10 10h2q8 0 10 -8q25 -131 104 -227q2 -4 2 -6zM318 242q0 -4 -4 -8q-114 -100 -180 -229q-3 -5 -9 -5h-2q-10 0 -10 10q0 3 1 4q47 120 132 229
q-47 103 -56 230q0 10 10 10h2q8 0 10 -8q25 -131 104 -227q2 -4 2 -6z" />
    <glyph glyph-name="onequarter" unicode="&#xbc;" horiz-adv-x="444" 
d="M406 -54h-99l-10 -62q-4 -26 2 -34q11 -12 55 -12h32l-5 -31h-272l5 31h22q19 0 30.5 1t24 5.5t19 14t9.5 25.5l10 62h-210q1 3 1 9t1 9q3 14 26 42l232 291q5 7 16 21t19.5 25.5t18.5 23.5t18.5 18.5t14.5 6.5q17 0 13 -18q0 -3 -3 -12l-64 -385h99zM454 478h-291l5 31
q5 0 17.5 -0.5t19.5 -0.5q72 0 79 43l73 436q-47 -21 -127 -21l5 31q90 0 152 33q2 1 17.5 11t23.5 10q14 0 12 -16l-81 -484q-4 -25 12 -34t46 -9q7 0 21.5 0.5t20.5 0.5zM239 -23l50 299l-237 -299h187zM505 418q-4 -20 -30 -20h-355q-3 0 -9 -0.5t-9 -0.5q-13 0 -19 5.5
t-4 15.5q2 16 18 19q10 2 15 2q4 0 11 -0.5t10 -0.5h350q11 0 17 -5.5t5 -14.5z" />
    <glyph glyph-name="onehalf" unicode="&#xbd;" horiz-adv-x="444" 
d="M390 -18l-57 -175h-315v8t1 7q1 7 15 23l83 82q9 9 51 49.5t58.5 58.5t45.5 52.5t43.5 64.5t21.5 61l1 10q8 49 -13 87.5t-70 38.5q-66 0 -110 -55q25 0 39.5 -14t10.5 -39q-4 -22 -21 -37t-40 -15q-26 0 -36.5 16.5t-6.5 39.5q10 61 65.5 98t119.5 37q72 0 119 -42
t35 -115q-2 -15 -6.5 -29t-13.5 -28t-15 -24.5t-20 -25t-20 -21.5t-24 -22t-23 -19l-25 -20t-23 -18q-39 -31 -155 -131h130q49 0 73 2q11 2 18.5 7.5t13.5 17t9 20t8.5 26t7.5 24.5h25zM454 478h-291l5 31q5 0 17.5 -0.5t19.5 -0.5q72 0 79 43l73 436q-47 -21 -127 -21
l5 31q90 0 152 33q2 1 17.5 11t23.5 10q14 0 12 -16l-81 -484q-4 -25 12 -34t46 -9q7 0 21.5 0.5t20.5 0.5zM505 418q-4 -20 -30 -20h-355q-3 0 -9 -0.5t-9 -0.5q-13 0 -19 5.5t-4 15.5q2 16 18 19q10 2 15 2q4 0 11 -0.5t10 -0.5h350q11 0 17 -5.5t5 -14.5z" />
    <glyph glyph-name="threequarters" unicode="&#xbe;" horiz-adv-x="444" 
d="M406 -54h-99l-10 -62q-4 -26 2 -34q11 -12 55 -12h32l-5 -31h-272l5 31h22q19 0 30.5 1t24 5.5t19 14t9.5 25.5l10 62h-210q1 3 1 9t1 9q3 14 26 42l232 291q5 7 16 21t19.5 25.5t18.5 23.5t18.5 18.5t14.5 6.5q17 0 13 -18q0 -3 -3 -12l-64 -385h99zM504 619
q-12 -71 -76 -117t-138 -46q-36 0 -71 9.5t-62 36.5t-20 68q4 26 23 42t43 16t36.5 -16t8.5 -40q-4 -23 -21 -38.5t-40 -16.5v-1q53 -32 108 -32q84 0 107 140q4 32 2 61t-20 49t-49 20h-33q-9 2 -9 9l1 2q1 8 13 11.5t29.5 5t23.5 3.5q56 21 76 145q7 41 -5.5 68.5
t-46.5 27.5q-65 0 -113 -55h8q25 0 37 -14.5t8 -36.5t-21.5 -36t-37.5 -14q-21 0 -33.5 14.5t-8.5 38.5q10 59 62 93.5t108 34.5q58 0 102 -33.5t35 -90.5q-2 -11 -16 -46q-12 -29 -34 -51t-41 -33.5t-52 -27.5q57 -11 91.5 -52.5t25.5 -97.5zM239 -23l50 299l-237 -299h187
zM505 418q-4 -20 -30 -20h-355q-3 0 -9 -0.5t-9 -0.5q-13 0 -19 5.5t-4 15.5q2 16 18 19q10 2 15 2q4 0 11 -0.5t10 -0.5h350q11 0 17 -5.5t5 -14.5z" />
    <glyph glyph-name="questiondown" unicode="&#xbf;" horiz-adv-x="472" 
d="M396 725q-4 -22 -22 -37.5t-40 -15.5t-35 15.5t-9 37.5t22 37.5t40 15.5t35 -15.5t9 -37.5zM414 -4q-13 -78 -78 -139.5t-148 -61.5q-29 0 -53 8.5t-48.5 31t-31 62.5t0.5 103q16 93 72 154q132 143 169 369l8 44q2 11 3 15t4 6.5t9 2.5q12 0 10 -18l-6 -32
q-39 -244 -136 -398q-22 -34 -32 -66t-20 -87q-4 -21 -5.5 -32.5t-3.5 -32.5t-1 -33.5t4.5 -28.5t11 -24.5t20 -15t30.5 -6.5q53 0 105.5 36.5t79.5 102.5q-10 -2 -17 -2q-20 0 -31 12.5t-7 33.5t20 33.5t34 12.5q7 0 15 -2t17 -14.5t5 -33.5z" />
    <glyph glyph-name="Agrave" unicode="&#xc0;" horiz-adv-x="750" 
d="M718 0l-129 3q-107 0 -144 -3l5 31q89 0 95 32q-1 7 -1 13l-21 249h-246l-90 -218q-6 -13 -8 -21q-3 -22 16 -38t57 -17l-5 -31l-114 3q-39 0 -102 -3l5 31q54 0 79 20t38 52l362 870q5 13 10 17t16 4q10 0 13 -4t4 -17l75 -901q2 -25 15 -33t58 -8h17zM520 356l-38 458
l-192 -458h230zM646 1046l-16 -22l-230 126q-16 10 -20 18q-7 17 6 34.5t33 17.5q9 0 27 -12z" />
    <glyph glyph-name="Aacute" unicode="&#xc1;" horiz-adv-x="750" 
d="M718 0l-129 3q-107 0 -144 -3l5 31q89 0 95 32q-1 7 -1 13l-21 249h-246l-90 -218q-6 -13 -8 -21q-3 -22 16 -38t57 -17l-5 -31l-114 3q-39 0 -102 -3l5 31q54 0 79 20t38 52l362 870q5 13 10 17t16 4q10 0 13 -4t4 -17l75 -901q2 -25 15 -33t58 -8h17zM520 356l-38 458
l-192 -458h230zM758 1168q-5 -7 -26 -18l-272 -126l-8 22l254 162q22 12 31 12q20 0 27 -17.5t-6 -34.5z" />
    <glyph glyph-name="Acircumflex" unicode="&#xc2;" horiz-adv-x="750" 
d="M718 0l-129 3q-107 0 -144 -3l5 31q89 0 95 32q-1 7 -1 13l-21 249h-246l-90 -218q-6 -13 -8 -21q-3 -22 16 -38t57 -17l-5 -31l-114 3q-39 0 -102 -3l5 31q54 0 79 20t38 52l362 870q5 13 10 17t16 4q10 0 13 -4t4 -17l75 -901q2 -25 15 -33t58 -8h17zM520 356l-38 458
l-192 -458h230zM712 1029l-24 -15l-123 129l-166 -129l-20 15l197 181z" />
    <glyph glyph-name="Atilde" unicode="&#xc3;" horiz-adv-x="750" 
d="M718 0l-129 3q-107 0 -144 -3l5 31q89 0 95 32q-1 7 -1 13l-21 249h-246l-90 -218q-6 -13 -8 -21q-3 -22 16 -38t57 -17l-5 -31l-114 3q-39 0 -102 -3l5 31q54 0 79 20t38 52l362 870q5 13 10 17t16 4q10 0 13 -4t4 -17l75 -901q2 -25 15 -33t58 -8h17zM520 356l-38 458
l-192 -458h230zM749 1083q-23 -23 -35 -33t-34 -22t-44 -14h-9q-32 0 -88 19.5t-86 19.5q-43 0 -87 -39l-15 15q2 2 11 10.5t11 10.5t10 9t11.5 9.5t11 8t12.5 7.5t12.5 5.5t14 5t14.5 2.5t16 1q31 0 86.5 -19.5t85.5 -19.5q15 0 28 4t20 8t21 13.5t20 13.5z" />
    <glyph glyph-name="Adieresis" unicode="&#xc4;" horiz-adv-x="750" 
d="M718 0l-129 3q-107 0 -144 -3l5 31q89 0 95 32q-1 7 -1 13l-21 249h-246l-90 -218q-6 -13 -8 -21q-3 -22 16 -38t57 -17l-5 -31l-114 3q-39 0 -102 -3l5 31q54 0 79 20t38 52l362 870q5 13 10 17t16 4q10 0 13 -4t4 -17l75 -901q2 -25 15 -33t58 -8h17zM520 356l-38 458
l-192 -458h230zM505 1064q-3 -19 -20 -34.5t-38 -15.5t-33.5 14.5t-8.5 35.5t20.5 35.5t37.5 14.5q22 0 33.5 -15.5t8.5 -34.5zM698 1064q-4 -21 -20.5 -35.5t-37.5 -14.5q-22 0 -33.5 15.5t-8.5 34.5t20 34.5t38 15.5t33.5 -14.5t8.5 -35.5z" />
    <glyph glyph-name="Aring" unicode="&#xc5;" horiz-adv-x="750" 
d="M718 0l-129 3q-107 0 -144 -3l5 31q89 0 95 32q-1 7 -1 13l-21 249h-246l-90 -218q-6 -13 -8 -21q-3 -22 16 -38t57 -17l-5 -31l-114 3q-39 0 -102 -3l5 31q54 0 79 20t38 52l362 870q5 13 10 17t16 4q10 0 13 -4t4 -17l75 -901q2 -25 15 -33t58 -8h17zM520 356l-38 458
l-192 -458h230zM625 1082q11 65 -59 65q-71 0 -81 -65q-11 -65 59 -65q69 0 81 65zM651 1083q-6 -37 -38 -63t-74 -26q-39 0 -62.5 25.5t-17.5 63.5q5 34 37.5 60.5t74.5 26.5q40 0 63 -26t17 -61z" />
    <glyph glyph-name="AE" unicode="&#xc6;" horiz-adv-x="903" 
d="M917 258l-85 -258h-493l5 31q52 0 65.5 6.5t19.5 38.5l61 370h-160l-143 -341q-5 -10 -8 -19q-3 -21 15 -37.5t58 -17.5l-5 -31l-114 3q-39 0 -102 -3l5 31q88 0 117 69l349 829l-26 1h-63l5 31h560l-9 -225h-25q3 57 0 88.5t-17.5 58.5t-45 37t-83.5 10h-95
q-34 0 -42.5 -7t-13.5 -33l-68 -413h85q67 0 89 24.5t33 92.5h25l-44 -265h-25q11 68 -3 92.5t-81 24.5h-85l-62 -375q-5 -26 1.5 -33t40.5 -7h95q31 0 56.5 3t46 12t35 17t28.5 26.5t22.5 31t20 40.5t17.5 44.5t18 52.5h25zM496 477l67 405q8 42 -31 44l-188 -449h152z" />
    <glyph glyph-name="Ccedilla" unicode="&#xc7;" horiz-adv-x="722" 
d="M722 343q-8 -52 -30 -108t-56 -111t-86.5 -94.5t-113.5 -48.5l-5 -36q81 -13 71 -71q-9 -50 -85 -66q-49 -11 -120 -11h-44l4 22h31q136 0 145 55q4 24 -15.5 39t-58.5 16l9 52q-127 19 -196.5 159t-35.5 341q36 214 164 358t269 144q113 0 168 -115l65 101q9 14 16 14
q8 0 9 -5.5t-2 -18.5l-60 -358q-2 -16 -5 -20t-15 -4q-10 0 -11.5 3.5t-0.5 20.5q8 51 3.5 112t-17 114t-50.5 89t-96 36q-72 0 -133 -51t-98 -112q-71 -117 -103 -309q-15 -87 -15.5 -159.5t9 -120t27.5 -84t38.5 -56t44 -32t40.5 -16t33 -3.5q99 0 176.5 94.5t105.5 246.5
q8 14 15 15q9 0 10.5 -5t-1.5 -17z" />
    <glyph glyph-name="Egrave" unicode="&#xc8;" horiz-adv-x="681" 
d="M695 258l-85 -258h-577l5 31h24q54 0 68 9t19 38l134 802q5 29 -6 38t-65 9h-24l5 31h563l-10 -225h-25q6 112 -24 153t-139 41h-129q-34 0 -43 -7t-13 -33l-62 -374h90q69 0 92.5 24t34.5 93h25l-44 -265h-25q11 68 -4.5 92.5t-84.5 24.5h-90l-68 -411q-5 -26 1.5 -33
t40.5 -7h133q51 0 88 9.5t62 25t45 47t32.5 62t30.5 83.5h25zM612 1046l-16 -22l-230 126q-16 10 -20 18q-7 17 6 34.5t33 17.5q9 0 27 -12z" />
    <glyph glyph-name="Eacute" unicode="&#xc9;" horiz-adv-x="681" 
d="M695 258l-85 -258h-577l5 31h24q54 0 68 9t19 38l134 802q5 29 -6 38t-65 9h-24l5 31h563l-10 -225h-25q6 112 -24 153t-139 41h-129q-34 0 -43 -7t-13 -33l-62 -374h90q69 0 92.5 24t34.5 93h25l-44 -265h-25q11 68 -4.5 92.5t-84.5 24.5h-90l-68 -411q-5 -26 1.5 -33
t40.5 -7h133q51 0 88 9.5t62 25t45 47t32.5 62t30.5 83.5h25zM724 1168q-5 -7 -26 -18l-272 -126l-8 22l254 162q22 12 31 12q20 0 27 -17.5t-6 -34.5z" />
    <glyph glyph-name="Ecircumflex" unicode="&#xca;" horiz-adv-x="681" 
d="M695 258l-85 -258h-577l5 31h24q54 0 68 9t19 38l134 802q5 29 -6 38t-65 9h-24l5 31h563l-10 -225h-25q6 112 -24 153t-139 41h-129q-34 0 -43 -7t-13 -33l-62 -374h90q69 0 92.5 24t34.5 93h25l-44 -265h-25q11 68 -4.5 92.5t-84.5 24.5h-90l-68 -411q-5 -26 1.5 -33
t40.5 -7h133q51 0 88 9.5t62 25t45 47t32.5 62t30.5 83.5h25zM678 1029l-24 -15l-123 129l-166 -129l-20 15l197 181z" />
    <glyph glyph-name="Edieresis" unicode="&#xcb;" horiz-adv-x="681" 
d="M695 258l-85 -258h-577l5 31h24q54 0 68 9t19 38l134 802q5 29 -6 38t-65 9h-24l5 31h563l-10 -225h-25q6 112 -24 153t-139 41h-129q-34 0 -43 -7t-13 -33l-62 -374h90q69 0 92.5 24t34.5 93h25l-44 -265h-25q11 68 -4.5 92.5t-84.5 24.5h-90l-68 -411q-5 -26 1.5 -33
t40.5 -7h133q51 0 88 9.5t62 25t45 47t32.5 62t30.5 83.5h25zM471 1064q-3 -19 -20 -34.5t-38 -15.5t-33.5 14.5t-8.5 35.5t20.5 35.5t37.5 14.5q22 0 33.5 -15.5t8.5 -34.5zM664 1064q-4 -21 -20.5 -35.5t-37.5 -14.5q-22 0 -33.5 15.5t-8.5 34.5t20 34.5t38 15.5
t33.5 -14.5t8.5 -35.5z" />
    <glyph glyph-name="Igrave" unicode="&#xcc;" horiz-adv-x="361" 
d="M333 0q-34 3 -152 3q-117 0 -153 -3l5 31h26q56 0 70.5 9t19.5 38l134 805q5 29 -6.5 38t-67.5 9h-26l5 31q35 -3 152 -3q118 0 153 3l-5 -31h-26q-56 0 -70.5 -9t-19.5 -38l-134 -805q-5 -29 6.5 -38t67.5 -9h26zM452 1046l-16 -22l-230 126q-16 10 -20 18q-7 17 6 34.5
t33 17.5q9 0 27 -12z" />
    <glyph glyph-name="Iacute" unicode="&#xcd;" horiz-adv-x="361" 
d="M333 0q-34 3 -152 3q-117 0 -153 -3l5 31h26q56 0 70.5 9t19.5 38l134 805q5 29 -6.5 38t-67.5 9h-26l5 31q35 -3 152 -3q118 0 153 3l-5 -31h-26q-56 0 -70.5 -9t-19.5 -38l-134 -805q-5 -29 6.5 -38t67.5 -9h26zM564 1168q-5 -7 -26 -18l-272 -126l-8 22l254 162
q22 12 31 12q20 0 27 -17.5t-6 -34.5z" />
    <glyph glyph-name="Icircumflex" unicode="&#xce;" horiz-adv-x="361" 
d="M333 0q-34 3 -152 3q-117 0 -153 -3l5 31h26q56 0 70.5 9t19.5 38l134 805q5 29 -6.5 38t-67.5 9h-26l5 31q35 -3 152 -3q118 0 153 3l-5 -31h-26q-56 0 -70.5 -9t-19.5 -38l-134 -805q-5 -29 6.5 -38t67.5 -9h26zM518 1029l-24 -15l-123 129l-166 -129l-20 15l197 181z
" />
    <glyph glyph-name="Idieresis" unicode="&#xcf;" horiz-adv-x="361" 
d="M333 0q-34 3 -152 3q-117 0 -153 -3l5 31h26q56 0 70.5 9t19.5 38l134 805q5 29 -6.5 38t-67.5 9h-26l5 31q35 -3 152 -3q118 0 153 3l-5 -31h-26q-56 0 -70.5 -9t-19.5 -38l-134 -805q-5 -29 6.5 -38t67.5 -9h26zM311 1064q-3 -19 -20 -34.5t-38 -15.5t-33.5 14.5
t-8.5 35.5t20.5 35.5t37.5 14.5q22 0 33.5 -15.5t8.5 -34.5zM504 1064q-4 -21 -20.5 -35.5t-37.5 -14.5q-22 0 -33.5 15.5t-8.5 34.5t20 34.5t38 15.5t33.5 -14.5t8.5 -35.5z" />
    <glyph glyph-name="Eth" unicode="&#xd0;" horiz-adv-x="764" 
d="M787 472q-10 -60 -30.5 -121.5t-55.5 -125.5t-79 -113t-107 -80t-134 -31h-347l5 31h33q22 0 35.5 2.5t26.5 12.5t16 28l63 382h-86q-17 0 -14 15q2 14 13 16h92l67 399q4 27 -10.5 36t-45.5 9q-7 0 -20 -0.5t-20 -0.5l5 31h347q38 0 57 -3q71 -12 116.5 -73t66.5 -142
q31 -116 6 -272zM690 491l2 11q12 73 13 139.5t-12.5 136t-59 111.5t-119.5 42h-93q-21 0 -33 -6t-15 -28l-69 -409h174q17 0 14 -15l-1 -7q-5 -9 -15 -9h-177l-65 -393q-3 -19 6 -25.5t27 -6.5h103q113 0 198 109q37 49 63 114.5t36 111t23 124.5z" />
    <glyph glyph-name="Ntilde" unicode="&#xd1;" horiz-adv-x="750" 
d="M871 930q-36 0 -60 -7t-35 -20.5t-14.5 -23t-5.5 -23.5l-139 -830q-2 -11 -3 -15.5t-4.5 -7.5t-10.5 -3t-9 2.5t-5 12.5l-272 872h-1l-130 -782q-4 -10 -2.5 -23t7 -24t27.5 -19t58 -8l-5 -31l-116 3l-118 -3l5 31q36 0 60 7t35 20.5t14.5 22.5t6.5 24l136 817
q-24 8 -74 8h-28l5 31h165q15 0 18.5 -2t7.5 -13l233 -749h1l110 659q4 10 2 23t-7.5 24t-27.5 19t-58 8l5 31l117 -3l117 3zM749 1083q-23 -23 -35 -33t-34 -22t-44 -14h-9q-32 0 -88 19.5t-86 19.5q-43 0 -87 -39l-15 15q2 2 11 10.5t11 10.5t10 9t11.5 9.5t11 8t12.5 7.5
t12.5 5.5t14 5t14.5 2.5t16 1q31 0 86.5 -19.5t85.5 -19.5q15 0 28 4t20 8t21 13.5t20 13.5z" />
    <glyph glyph-name="Ograve" unicode="&#xd2;" horiz-adv-x="778" 
d="M801 478q-36 -213 -159 -356.5t-258 -143.5q-133 0 -208.5 142.5t-39.5 357.5q23 142 89 259t153 181.5t175 64.5q86 0 151 -63.5t93 -181t4 -260.5zM701 497q19 131 14 219t-33 142t-61.5 77t-72.5 23q-38 0 -79.5 -24t-86 -74t-82 -144.5t-58.5 -218.5q-40 -243 8 -368
t140 -125q42 0 86 28.5t87.5 85.5t80 155t57.5 224zM660 1046l-16 -22l-230 126q-16 10 -20 18q-7 17 6 34.5t33 17.5q9 0 27 -12z" />
    <glyph glyph-name="Oacute" unicode="&#xd3;" horiz-adv-x="778" 
d="M801 478q-36 -213 -159 -356.5t-258 -143.5q-133 0 -208.5 142.5t-39.5 357.5q23 142 89 259t153 181.5t175 64.5q86 0 151 -63.5t93 -181t4 -260.5zM701 497q19 131 14 219t-33 142t-61.5 77t-72.5 23q-38 0 -79.5 -24t-86 -74t-82 -144.5t-58.5 -218.5q-40 -243 8 -368
t140 -125q42 0 86 28.5t87.5 85.5t80 155t57.5 224zM772 1168q-5 -7 -26 -18l-272 -126l-8 22l254 162q22 12 31 12q20 0 27 -17.5t-6 -34.5z" />
    <glyph glyph-name="Ocircumflex" unicode="&#xd4;" horiz-adv-x="778" 
d="M801 478q-36 -213 -159 -356.5t-258 -143.5q-133 0 -208.5 142.5t-39.5 357.5q23 142 89 259t153 181.5t175 64.5q86 0 151 -63.5t93 -181t4 -260.5zM701 497q19 131 14 219t-33 142t-61.5 77t-72.5 23q-38 0 -79.5 -24t-86 -74t-82 -144.5t-58.5 -218.5q-40 -243 8 -368
t140 -125q42 0 86 28.5t87.5 85.5t80 155t57.5 224zM726 1029l-24 -15l-123 129l-166 -129l-20 15l197 181z" />
    <glyph glyph-name="Otilde" unicode="&#xd5;" horiz-adv-x="778" 
d="M801 478q-36 -213 -159 -356.5t-258 -143.5q-133 0 -208.5 142.5t-39.5 357.5q23 142 89 259t153 181.5t175 64.5q86 0 151 -63.5t93 -181t4 -260.5zM701 497q19 131 14 219t-33 142t-61.5 77t-72.5 23q-38 0 -79.5 -24t-86 -74t-82 -144.5t-58.5 -218.5q-40 -243 8 -368
t140 -125q42 0 86 28.5t87.5 85.5t80 155t57.5 224zM763 1083q-23 -23 -35 -33t-34 -22t-44 -14h-9q-32 0 -88 19.5t-86 19.5q-43 0 -87 -39l-15 15q2 2 11 10.5t11 10.5t10 9t11.5 9.5t11 8t12.5 7.5t12.5 5.5t14 5t14.5 2.5t16 1q31 0 86.5 -19.5t85.5 -19.5q15 0 28 4
t20 8t21 13.5t20 13.5z" />
    <glyph glyph-name="Odieresis" unicode="&#xd6;" horiz-adv-x="778" 
d="M801 478q-36 -213 -159 -356.5t-258 -143.5q-133 0 -208.5 142.5t-39.5 357.5q23 142 89 259t153 181.5t175 64.5q86 0 151 -63.5t93 -181t4 -260.5zM701 497q19 131 14 219t-33 142t-61.5 77t-72.5 23q-38 0 -79.5 -24t-86 -74t-82 -144.5t-58.5 -218.5q-40 -243 8 -368
t140 -125q42 0 86 28.5t87.5 85.5t80 155t57.5 224zM519 1064q-3 -19 -20 -34.5t-38 -15.5t-33.5 14.5t-8.5 35.5t20.5 35.5t37.5 14.5q22 0 33.5 -15.5t8.5 -34.5zM712 1064q-4 -21 -20.5 -35.5t-37.5 -14.5q-22 0 -33.5 15.5t-8.5 34.5t20 34.5t38 15.5t33.5 -14.5
t8.5 -35.5z" />
    <glyph glyph-name="multiply" unicode="&#xd7;" horiz-adv-x="778" 
d="M626 16q-7 -9 -16 -6t-11.5 5t-9.5 10l-164 197l-231 -198q-27 -22 -39 -9q-12 14 16 38l231 198l-165 198q-19 24 -4 37q17 14 37 -9l165 -198l231 198q26 23 38 9t-15 -37l-231 -198l164 -198q20 -23 4 -37z" />
    <glyph glyph-name="Oslash" unicode="&#xd8;" horiz-adv-x="778" 
d="M801 478q-36 -213 -159 -356.5t-258 -143.5q-99 0 -176 92l-84 -125l-19 12l88 134q-11 17 -21.5 37.5t-22 57t-18 77t-6 97.5t10.5 118q23 142 89 259t153 181.5t175 64.5q34 0 63.5 -9t53.5 -27.5t33 -27.5t26 -28l84 125l20 -12l-90 -134q11 -16 21.5 -36.5t22 -57.5
t18.5 -78t6.5 -99t-10.5 -121zM699 847q-52 114 -151 114q-58 0 -113.5 -41t-100.5 -112q-73 -115 -109 -330q-37 -222 3 -336zM712 478q37 221 -2 341l-472 -705q20 -48 58 -81t93 -33q57 0 116 42.5t108 123.5q63 108 99 312z" />
    <glyph glyph-name="Ugrave" unicode="&#xd9;" horiz-adv-x="750" 
d="M871 930q-103 0 -114 -69l-85 -510q-14 -71 -15 -74q-33 -131 -110.5 -215t-162.5 -84q-68 0 -118.5 46t-71.5 123.5t-6 166.5l95 569q5 29 -6 38t-65 9h-24l5 31q35 -3 148 -3q112 0 147 3l-5 -31h-24q-54 0 -68 -9t-19 -38l-96 -579q-25 -150 13.5 -222.5t102.5 -72.5
q78 0 149.5 88t93.5 219l90 540q4 10 2 23t-7.5 24t-27.5 19t-58 8l5 31l119 -3l118 3zM669 1046l-16 -22l-230 126q-16 10 -20 18q-7 17 6 34.5t33 17.5q9 0 27 -12z" />
    <glyph glyph-name="Uacute" unicode="&#xda;" horiz-adv-x="750" 
d="M871 930q-103 0 -114 -69l-85 -510q-14 -71 -15 -74q-33 -131 -110.5 -215t-162.5 -84q-68 0 -118.5 46t-71.5 123.5t-6 166.5l95 569q5 29 -6 38t-65 9h-24l5 31q35 -3 148 -3q112 0 147 3l-5 -31h-24q-54 0 -68 -9t-19 -38l-96 -579q-25 -150 13.5 -222.5t102.5 -72.5
q78 0 149.5 88t93.5 219l90 540q4 10 2 23t-7.5 24t-27.5 19t-58 8l5 31l119 -3l118 3zM781 1168q-5 -7 -26 -18l-272 -126l-8 22l254 162q22 12 31 12q20 0 27 -17.5t-6 -34.5z" />
    <glyph glyph-name="Ucircumflex" unicode="&#xdb;" horiz-adv-x="750" 
d="M871 930q-103 0 -114 -69l-85 -510q-14 -71 -15 -74q-33 -131 -110.5 -215t-162.5 -84q-68 0 -118.5 46t-71.5 123.5t-6 166.5l95 569q5 29 -6 38t-65 9h-24l5 31q35 -3 148 -3q112 0 147 3l-5 -31h-24q-54 0 -68 -9t-19 -38l-96 -579q-25 -150 13.5 -222.5t102.5 -72.5
q78 0 149.5 88t93.5 219l90 540q4 10 2 23t-7.5 24t-27.5 19t-58 8l5 31l119 -3l118 3zM735 1029l-24 -15l-123 129l-166 -129l-20 15l197 181z" />
    <glyph glyph-name="Udieresis" unicode="&#xdc;" horiz-adv-x="750" 
d="M871 930q-103 0 -114 -69l-85 -510q-14 -71 -15 -74q-33 -131 -110.5 -215t-162.5 -84q-68 0 -118.5 46t-71.5 123.5t-6 166.5l95 569q5 29 -6 38t-65 9h-24l5 31q35 -3 148 -3q112 0 147 3l-5 -31h-24q-54 0 -68 -9t-19 -38l-96 -579q-25 -150 13.5 -222.5t102.5 -72.5
q78 0 149.5 88t93.5 219l90 540q4 10 2 23t-7.5 24t-27.5 19t-58 8l5 31l119 -3l118 3zM528 1064q-3 -19 -20 -34.5t-38 -15.5t-33.5 14.5t-8.5 35.5t20.5 35.5t37.5 14.5q22 0 33.5 -15.5t8.5 -34.5zM721 1064q-4 -21 -20.5 -35.5t-37.5 -14.5q-22 0 -33.5 15.5t-8.5 34.5
t20 34.5t38 15.5t33.5 -14.5t8.5 -35.5z" />
    <glyph glyph-name="Yacute" unicode="&#xdd;" horiz-adv-x="750" 
d="M895 930q-84 0 -124 -65l-290 -481l-51 -304q-5 -31 6 -40t66 -9h23l-5 -31q-35 3 -145 3t-147 -3l5 31h24q54 0 68 9t19 38l51 306l-136 504q-8 29 -21.5 35.5t-73.5 6.5l5 31l127 -3q108 0 144 3l-5 -31q-78 0 -83 -28q0 -10 2 -18l122 -452l258 428q9 15 10 23
q3 18 -11 32t-49 15l5 31l114 -3q51 0 97 3zM758 1168q-5 -7 -26 -18l-272 -126l-8 22l254 162q22 12 31 12q20 0 27 -17.5t-6 -34.5z" />
    <glyph glyph-name="Thorn" unicode="&#xde;" horiz-adv-x="625" 
d="M654 510q-17 -105 -89.5 -182.5t-167.5 -77.5h-133l-29 -170q-5 -18 -1 -30.5t22 -15.5q20 -3 74 -3l-5 -31l-144 3l-145 -3l5 31q52 0 72 3q22 3 29 12.5t10 33.5l134 801q5 18 1.5 30.5t-21.5 15.5q-21 3 -75 3l5 31l145 -3l144 3l-5 -31q-52 0 -71 -3q-22 -3 -29 -12
t-11 -34l-19 -111h124q101 0 150 -76q48 -76 30 -184zM554 510q15 88 -8 158q-8 25 -19.5 40.5t-26 21.5t-23.5 7.5t-24 1.5h-108l-76 -458h101q73 0 127 81q44 66 57 148z" />
    <glyph glyph-name="germandbls" unicode="&#xdf;" 
d="M500 174q-14 -81 -76 -133t-130 -52q-42 0 -64.5 22.5t-17.5 53.5q3 18 15.5 27.5t26.5 9.5q15 0 24 -10t6 -26q-5 -30 -36 -36q17 -19 47 -19q38 0 76.5 38t53.5 124q8 39 5 79.5t-14 74t-40 56t-71 26.5q-4 0 -5.5 3t-1.5 6v2q1 4 3.5 6.5t4.5 3.5h3q74 12 124 106
q34 63 53 169q18 128 2 192t-56 64q-43 0 -83.5 -72.5t-57.5 -172.5l-119 -716q-17 3 -45 3l-99 -3l5 31q53 0 66.5 6.5t19.5 38.5l54 324h-78l5 31h78l46 276q18 111 80 193.5t132 82.5q71 0 107 -81.5t17 -198.5q-17 -103 -70.5 -178t-120.5 -103q72 -23 108.5 -92.5
t22.5 -155.5z" />
    <glyph glyph-name="agrave" unicode="&#xe0;" 
d="M498 89q-6 -37 -27 -60t-38.5 -29t-32.5 -6q-33 0 -49.5 24.5t-14.5 57.5q-22 -38 -60.5 -62.5t-85.5 -24.5q-59 0 -105 25.5t-37 80.5q13 84 122 130q65 29 190 36l6 37q10 62 -16.5 95t-68.5 33q-73 0 -116 -46q30 -1 38.5 -16t5.5 -30q-4 -20 -18.5 -33t-35.5 -13
q-20 0 -31 12.5t-7 34.5q8 49 57.5 81t112.5 32q81 0 128 -55q19 -25 21.5 -57t-5.5 -61l-33 -200q0 -4 -1 -15t6.5 -23t22.5 -12q36 0 47 64l9 56h25zM339 140l17 100q-112 -4 -167 -48t-64 -96q-6 -37 16.5 -61t59.5 -24q42 0 85 32.5t53 96.5zM409 581l-23 -13l-115 235
q-8 16 -7 27q3 14 16 24t26 10q14 0 19.5 -7t9.5 -22z" />
    <glyph glyph-name="aacute" unicode="&#xe1;" 
d="M498 89q-6 -37 -27 -60t-38.5 -29t-32.5 -6q-33 0 -49.5 24.5t-14.5 57.5q-22 -38 -60.5 -62.5t-85.5 -24.5q-59 0 -105 25.5t-37 80.5q13 84 122 130q65 29 190 36l6 37q10 62 -16.5 95t-68.5 33q-73 0 -116 -46q30 -1 38.5 -16t5.5 -30q-4 -20 -18.5 -33t-35.5 -13
q-20 0 -31 12.5t-7 34.5q8 49 57.5 81t112.5 32q81 0 128 -55q19 -25 21.5 -57t-5.5 -61l-33 -200q0 -4 -1 -15t6.5 -23t22.5 -12q36 0 47 64l9 56h25zM339 140l17 100q-112 -4 -167 -48t-64 -96q-6 -37 16.5 -61t59.5 -24q42 0 85 32.5t53 96.5zM512 830q-1 -10 -15 -27
l-193 -235l-19 13l158 254q7 11 10 15t11 9t18 5q13 0 23 -10t7 -24z" />
    <glyph glyph-name="acircumflex" unicode="&#xe2;" 
d="M498 89q-6 -37 -27 -60t-38.5 -29t-32.5 -6q-33 0 -49.5 24.5t-14.5 57.5q-22 -38 -60.5 -62.5t-85.5 -24.5q-59 0 -105 25.5t-37 80.5q13 84 122 130q65 29 190 36l6 37q10 62 -16.5 95t-68.5 33q-73 0 -116 -46q30 -1 38.5 -16t5.5 -30q-4 -20 -18.5 -33t-35.5 -13
q-20 0 -31 12.5t-7 34.5q8 49 57.5 81t112.5 32q81 0 128 -55q19 -25 21.5 -57t-5.5 -61l-33 -200q0 -4 -1 -15t6.5 -23t22.5 -12q36 0 47 64l9 56h25zM339 140l17 100q-112 -4 -167 -48t-64 -96q-6 -37 16.5 -61t59.5 -24q42 0 85 32.5t53 96.5zM503 583l-24 -15l-99 213
l-170 -213l-20 15l204 281z" />
    <glyph glyph-name="atilde" unicode="&#xe3;" 
d="M498 89q-6 -37 -27 -60t-38.5 -29t-32.5 -6q-33 0 -49.5 24.5t-14.5 57.5q-22 -38 -60.5 -62.5t-85.5 -24.5q-59 0 -105 25.5t-37 80.5q13 84 122 130q65 29 190 36l6 37q10 62 -16.5 95t-68.5 33q-73 0 -116 -46q30 -1 38.5 -16t5.5 -30q-4 -20 -18.5 -33t-35.5 -13
q-20 0 -31 12.5t-7 34.5q8 49 57.5 81t112.5 32q81 0 128 -55q19 -25 21.5 -57t-5.5 -61l-33 -200q0 -4 -1 -15t6.5 -23t22.5 -12q36 0 47 64l9 56h25zM339 140l17 100q-112 -4 -167 -48t-64 -96q-6 -37 16.5 -61t59.5 -24q42 0 85 32.5t53 96.5zM541 748q-39 -36 -52.5 -47
t-32 -21t-36.5 -10q-24 0 -58 23q-40 25 -61 25q-20 0 -42.5 -12t-34.5 -24l-13 -12l-14 15q39 36 52.5 47t32 21t36.5 10q24 0 58 -23q40 -25 61 -25q20 0 42.5 12t34.5 24l13 12z" />
    <glyph glyph-name="adieresis" unicode="&#xe4;" 
d="M498 89q-6 -37 -27 -60t-38.5 -29t-32.5 -6q-33 0 -49.5 24.5t-14.5 57.5q-22 -38 -60.5 -62.5t-85.5 -24.5q-59 0 -105 25.5t-37 80.5q13 84 122 130q65 29 190 36l6 37q10 62 -16.5 95t-68.5 33q-73 0 -116 -46q30 -1 38.5 -16t5.5 -30q-4 -20 -18.5 -33t-35.5 -13
q-20 0 -31 12.5t-7 34.5q8 49 57.5 81t112.5 32q81 0 128 -55q19 -25 21.5 -57t-5.5 -61l-33 -200q0 -4 -1 -15t6.5 -23t22.5 -12q36 0 47 64l9 56h25zM339 140l17 100q-112 -4 -167 -48t-64 -96q-6 -37 16.5 -61t59.5 -24q42 0 85 32.5t53 96.5zM322 716q-3 -19 -20 -34.5
t-38 -15.5t-33 14.5t-9 35.5q4 21 21 35.5t38 14.5t32.5 -15.5t8.5 -34.5zM515 716q-3 -21 -20 -35.5t-38 -14.5q-22 0 -33.5 15.5t-8.5 34.5t20 34.5t39 15.5q21 0 33 -14.5t8 -35.5z" />
    <glyph glyph-name="aring" unicode="&#xe5;" 
d="M498 89q-6 -37 -27 -60t-38.5 -29t-32.5 -6q-33 0 -49.5 24.5t-14.5 57.5q-22 -38 -60.5 -62.5t-85.5 -24.5q-59 0 -105 25.5t-37 80.5q13 84 122 130q65 29 190 36l6 37q10 62 -16.5 95t-68.5 33q-73 0 -116 -46q30 -1 38.5 -16t5.5 -30q-4 -20 -18.5 -33t-35.5 -13
q-20 0 -31 12.5t-7 34.5q8 49 57.5 81t112.5 32q81 0 128 -55q19 -25 21.5 -57t-5.5 -61l-33 -200q0 -4 -1 -15t6.5 -23t22.5 -12q36 0 47 64l9 56h25zM339 140l17 100q-112 -4 -167 -48t-64 -96q-6 -37 16.5 -61t59.5 -24q42 0 85 32.5t53 96.5zM454 802q10 46 6.5 76
t-7.5 46.5t-15 24.5t-16.5 9.5t-11.5 1.5q-10 0 -21 -5.5t-26 -20t-28 -48.5t-21 -84q-8 -42 -6.5 -71t5.5 -46.5t13.5 -26.5t16 -11.5t14.5 -2.5q6 0 13 1.5t20 10.5t23.5 24.5t22 47t18.5 74.5zM480 803q-13 -76 -49.5 -129t-77.5 -53q-39 0 -58.5 52t-6.5 130
q12 74 49 127t78 53q39 0 58.5 -52t6.5 -128z" />
    <glyph glyph-name="ae" unicode="&#xe6;" horiz-adv-x="722" 
d="M713 119q-1 -9 -13.5 -28.5t-33.5 -43t-56 -41t-74 -17.5q-103 0 -152 89q-25 -38 -74 -63.5t-108 -25.5q-38 0 -70 8.5t-55 33t-17 61.5q12 71 98.5 114.5t209.5 43.5l8 48q10 61 -16.5 94.5t-68.5 33.5q-71 0 -116 -46q30 -1 38.5 -16t5.5 -30q-4 -20 -18.5 -33
t-35.5 -13q-20 0 -31 12.5t-7 34.5q8 49 58 81t112 32q48 0 86 -20.5t54 -56.5q77 77 164 77q79 0 114 -55t20 -141q-2 -15 -6.5 -18t-21.5 -3h-273q-6 -35 -6 -64.5t4 -50.5t12 -37.5t17 -27t21 -18.5t21 -11.5t19 -5.5t14 -2h8q44 0 82.5 28.5t57.5 68.5q4 9 6 12.5
t4.5 5.5t7.5 2q13 0 11 -12zM669 252q22 174 -73 174q-16 0 -35.5 -7t-43.5 -24.5t-45.5 -54.5t-33.5 -88h231zM360 132q2 7 1 22q-4 32 3 75q-110 -4 -164.5 -45t-62.5 -92q-5 -35 16.5 -58t57.5 -23q53 0 97 36t52 85z" />
    <glyph glyph-name="ccedilla" unicode="&#xe7;" horiz-adv-x="444" 
d="M435 119q-1 -4 -6 -15t-17.5 -28.5t-29 -33.5t-43 -30.5t-57.5 -19.5l-7 -47q81 -13 71 -71q-9 -50 -85 -66q-49 -11 -120 -11h-44l4 22h31q136 0 145 55q4 24 -15.5 39t-58.5 16l11 63q-75 13 -116.5 76t-27.5 148q16 95 90 163.5t166 68.5q61 0 102 -29t33 -78
q-4 -22 -19 -34.5t-35 -12.5q-21 0 -31.5 13t-6.5 33q2 15 14.5 29.5t39.5 16.5q-30 37 -100 37q-51 0 -101 -48t-69 -157q-17 -108 19 -156t88 -48q98 0 149 105q5 10 15 10q3 0 5 -0.5t4.5 -2.5t1.5 -7z" />
    <glyph glyph-name="egrave" unicode="&#xe8;" horiz-adv-x="444" 
d="M435 119q-1 -9 -14 -28.5t-35 -43t-60 -41t-80 -17.5q-89 0 -143.5 66.5t-37.5 164.5q16 94 87.5 161t158.5 67q88 0 124 -57.5t22 -138.5q-2 -15 -6.5 -18t-21.5 -3h-279q-17 -102 5 -150q13 -30 39 -48.5t62 -18.5q10 0 22 2t37 10.5t50.5 31.5t43.5 59q5 14 15 14
q13 0 11 -12zM391 252q3 15 4 33.5t-1.5 44.5t-10.5 46.5t-27.5 35t-48.5 14.5q-16 0 -34.5 -7t-42.5 -23.5t-44.5 -54t-31.5 -89.5h237zM381 581l-23 -13l-115 235q-8 16 -7 27q3 14 16 24t26 10q14 0 19.5 -7t9.5 -22z" />
    <glyph glyph-name="eacute" unicode="&#xe9;" horiz-adv-x="444" 
d="M435 119q-1 -9 -14 -28.5t-35 -43t-60 -41t-80 -17.5q-89 0 -143.5 66.5t-37.5 164.5q16 94 87.5 161t158.5 67q88 0 124 -57.5t22 -138.5q-2 -15 -6.5 -18t-21.5 -3h-279q-17 -102 5 -150q13 -30 39 -48.5t62 -18.5q10 0 22 2t37 10.5t50.5 31.5t43.5 59q5 14 15 14
q13 0 11 -12zM391 252q3 15 4 33.5t-1.5 44.5t-10.5 46.5t-27.5 35t-48.5 14.5q-16 0 -34.5 -7t-42.5 -23.5t-44.5 -54t-31.5 -89.5h237zM484 830q-1 -10 -15 -27l-193 -235l-19 13l158 254q7 11 10 15t11 9t18 5q13 0 23 -10t7 -24z" />
    <glyph glyph-name="ecircumflex" unicode="&#xea;" horiz-adv-x="444" 
d="M435 119q-1 -9 -14 -28.5t-35 -43t-60 -41t-80 -17.5q-89 0 -143.5 66.5t-37.5 164.5q16 94 87.5 161t158.5 67q88 0 124 -57.5t22 -138.5q-2 -15 -6.5 -18t-21.5 -3h-279q-17 -102 5 -150q13 -30 39 -48.5t62 -18.5q10 0 22 2t37 10.5t50.5 31.5t43.5 59q5 14 15 14
q13 0 11 -12zM391 252q3 15 4 33.5t-1.5 44.5t-10.5 46.5t-27.5 35t-48.5 14.5q-16 0 -34.5 -7t-42.5 -23.5t-44.5 -54t-31.5 -89.5h237zM475 583l-24 -15l-99 213l-170 -213l-20 15l204 281z" />
    <glyph glyph-name="edieresis" unicode="&#xeb;" horiz-adv-x="444" 
d="M435 119q-1 -9 -14 -28.5t-35 -43t-60 -41t-80 -17.5q-89 0 -143.5 66.5t-37.5 164.5q16 94 87.5 161t158.5 67q88 0 124 -57.5t22 -138.5q-2 -15 -6.5 -18t-21.5 -3h-279q-17 -102 5 -150q13 -30 39 -48.5t62 -18.5q10 0 22 2t37 10.5t50.5 31.5t43.5 59q5 14 15 14
q13 0 11 -12zM391 252q3 15 4 33.5t-1.5 44.5t-10.5 46.5t-27.5 35t-48.5 14.5q-16 0 -34.5 -7t-42.5 -23.5t-44.5 -54t-31.5 -89.5h237zM294 716q-3 -19 -20 -34.5t-38 -15.5t-33 14.5t-9 35.5q4 21 21 35.5t38 14.5t32.5 -15.5t8.5 -34.5zM487 716q-3 -21 -20 -35.5
t-38 -14.5q-22 0 -33.5 15.5t-8.5 34.5t20 34.5t39 15.5q21 0 33 -14.5t8 -35.5z" />
    <glyph glyph-name="igrave" unicode="&#xec;" horiz-adv-x="278" 
d="M247 0q-102 3 -103 3l-111 -3l5 31q53 0 66.5 6.5t19.5 38.5l45 269q6 37 -5 46t-60 9l5 31l142 11l-61 -367q-5 -30 4 -37t58 -7zM298 581l-23 -13l-115 235q-8 16 -7 27q3 14 16 24t26 10q14 0 19.5 -7t9.5 -22z" />
    <glyph glyph-name="iacute" unicode="&#xed;" horiz-adv-x="278" 
d="M247 0q-102 3 -103 3l-111 -3l5 31q53 0 66.5 6.5t19.5 38.5l45 269q6 37 -5 46t-60 9l5 31l142 11l-61 -367q-5 -30 4 -37t58 -7zM401 830q-1 -10 -15 -27l-193 -235l-19 13l158 254q7 11 10 15t11 9t18 5q13 0 23 -10t7 -24z" />
    <glyph glyph-name="icircumflex" unicode="&#xee;" horiz-adv-x="278" 
d="M247 0q-102 3 -103 3l-111 -3l5 31q53 0 66.5 6.5t19.5 38.5l45 269q6 37 -5 46t-60 9l5 31l142 11l-61 -367q-5 -30 4 -37t58 -7zM392 583l-24 -15l-99 213l-170 -213l-20 15l204 281z" />
    <glyph glyph-name="idieresis" unicode="&#xef;" horiz-adv-x="278" 
d="M247 0q-102 3 -103 3l-111 -3l5 31q53 0 66.5 6.5t19.5 38.5l45 269q6 37 -5 46t-60 9l5 31l142 11l-61 -367q-5 -30 4 -37t58 -7zM211 716q-3 -19 -20 -34.5t-38 -15.5t-33 14.5t-9 35.5q4 21 21 35.5t38 14.5t32.5 -15.5t8.5 -34.5zM404 716q-3 -21 -20 -35.5
t-38 -14.5q-22 0 -33.5 15.5t-8.5 34.5t20 34.5t39 15.5q21 0 33 -14.5t8 -35.5z" />
    <glyph glyph-name="eth" unicode="&#xf0;" 
d="M511 242q-6 -39 -12 -62t-28.5 -60.5t-60.5 -69.5q-73 -61 -162 -61q-92 0 -146 65.5t-38 158.5q16 98 93.5 166t164.5 68q27 0 49 -10.5t35.5 -27.5t21 -30t12.5 -26q8 211 -70 384l-112 -59l-10 27l110 58q-51 104 -132 188l19 18q96 -77 162 -180l113 60l11 -27
l-109 -57q67 -115 90 -243q25 -135 -1 -280zM423 214q15 90 -15.5 150.5t-87.5 60.5q-64 0 -114 -58q-40 -48 -57 -145q-15 -95 5 -141q28 -67 98 -67q10 0 22.5 2t36.5 13.5t44 30.5t39.5 59.5t28.5 94.5z" />
    <glyph glyph-name="ntilde" unicode="&#xf1;" horiz-adv-x="556" 
d="M535 0l-111 3l-114 -3l5 31q53 0 66.5 6.5t19.5 38.5l39 233q18 111 -56 111q-52 0 -100.5 -43.5t-61.5 -116.5l-30 -184q-6 -32 5.5 -38.5t64.5 -6.5l-5 -31l-111 3l-114 -3l5 31q53 0 66.5 6.5t19.5 38.5l44 268q7 37 -4.5 46.5t-63.5 9.5l5 31l143 11l-17 -103h1
q64 103 164 103q73 0 99 -37q12 -18 15 -39.5t1 -41t-11 -72.5l-32 -191q-3 -21 12.5 -25.5t60.5 -4.5zM569 748q-39 -36 -52.5 -47t-32 -21t-36.5 -10q-24 0 -58 23q-40 25 -61 25q-20 0 -42.5 -12t-34.5 -24l-13 -12l-14 15q39 36 52.5 47t32 21t36.5 10q24 0 58 -23
q40 -25 61 -25q20 0 42.5 12t34.5 24l13 12z" />
    <glyph glyph-name="ograve" unicode="&#xf2;" 
d="M507 214q-16 -94 -92 -159.5t-168 -65.5q-89 0 -144 65t-39 160t92 164.5t169 69.5q91 0 144.5 -69t37.5 -165zM425 222q15 97 -3 139q-29 65 -102 65q-32 0 -66 -17t-59 -50q-30 -43 -47 -137q-16 -97 2 -141q28 -67 102 -67q37 0 71.5 20t57.5 54q29 44 44 134z
M409 581l-23 -13l-115 235q-8 16 -7 27q3 14 16 24t26 10q14 0 19.5 -7t9.5 -22z" />
    <glyph glyph-name="oacute" unicode="&#xf3;" 
d="M507 214q-16 -94 -92 -159.5t-168 -65.5q-89 0 -144 65t-39 160t92 164.5t169 69.5q91 0 144.5 -69t37.5 -165zM425 222q15 97 -3 139q-29 65 -102 65q-32 0 -66 -17t-59 -50q-30 -43 -47 -137q-16 -97 2 -141q28 -67 102 -67q37 0 71.5 20t57.5 54q29 44 44 134z
M512 830q-1 -10 -15 -27l-193 -235l-19 13l158 254q7 11 10 15t11 9t18 5q13 0 23 -10t7 -24z" />
    <glyph glyph-name="ocircumflex" unicode="&#xf4;" 
d="M507 214q-16 -94 -92 -159.5t-168 -65.5q-89 0 -144 65t-39 160t92 164.5t169 69.5q91 0 144.5 -69t37.5 -165zM425 222q15 97 -3 139q-29 65 -102 65q-32 0 -66 -17t-59 -50q-30 -43 -47 -137q-16 -97 2 -141q28 -67 102 -67q37 0 71.5 20t57.5 54q29 44 44 134z
M503 583l-24 -15l-99 213l-170 -213l-20 15l204 281z" />
    <glyph glyph-name="otilde" unicode="&#xf5;" 
d="M507 214q-16 -94 -92 -159.5t-168 -65.5q-89 0 -144 65t-39 160t92 164.5t169 69.5q91 0 144.5 -69t37.5 -165zM425 222q15 97 -3 139q-29 65 -102 65q-32 0 -66 -17t-59 -50q-30 -43 -47 -137q-16 -97 2 -141q28 -67 102 -67q37 0 71.5 20t57.5 54q29 44 44 134z
M541 748q-39 -36 -52.5 -47t-32 -21t-36.5 -10q-24 0 -58 23q-40 25 -61 25q-20 0 -42.5 -12t-34.5 -24l-13 -12l-14 15q39 36 52.5 47t32 21t36.5 10q24 0 58 -23q40 -25 61 -25q20 0 42.5 12t34.5 24l13 12z" />
    <glyph glyph-name="odieresis" unicode="&#xf6;" 
d="M507 214q-16 -94 -92 -159.5t-168 -65.5q-89 0 -144 65t-39 160t92 164.5t169 69.5q91 0 144.5 -69t37.5 -165zM425 222q15 97 -3 139q-29 65 -102 65q-32 0 -66 -17t-59 -50q-30 -43 -47 -137q-16 -97 2 -141q28 -67 102 -67q37 0 71.5 20t57.5 54q29 44 44 134z
M322 716q-3 -19 -20 -34.5t-38 -15.5t-33 14.5t-9 35.5q4 21 21 35.5t38 14.5t32.5 -15.5t8.5 -34.5zM515 716q-3 -21 -20 -35.5t-38 -14.5q-22 0 -33.5 15.5t-8.5 34.5t20 34.5t39 15.5q21 0 33 -14.5t8 -35.5z" />
    <glyph glyph-name="divide" unicode="&#xf7;" horiz-adv-x="778" 
d="M764 251q-4 -20 -27 -20h-618q-11 0 -17 5.5t-5 14.5q3 20 27 20h625q19 -2 15 -20zM458 36q-4 -27 -26.5 -45.5t-48.5 -18.5q-27 0 -41.5 19t-10.5 45q5 26 27 44.5t48 18.5t41.5 -19t10.5 -44zM530 467q-4 -27 -26.5 -45.5t-48.5 -18.5t-41.5 19t-10.5 44q5 27 26 45.5
t48 18.5q26 0 41.5 -19t11.5 -44z" />
    <glyph glyph-name="oslash" unicode="&#xf8;" 
d="M500 213q-16 -93 -90 -158.5t-163 -65.5q-53 0 -97 27l-88 -118q-1 1 -6.5 4t-10.5 7l89 119q-38 30 -55.5 78.5t-7.5 106.5q16 97 90.5 166t163.5 69q57 0 99 -30l85 115q1 -1 6.5 -4t10.5 -7l-86 -116q31 -26 51 -76.5t9 -116.5zM403 392q-32 34 -83 34
q-31 0 -66 -16.5t-61 -52.5q-37 -48 -53 -143q-19 -106 16 -155zM431 214q19 111 -15 160l-246 -332q31 -31 82 -31q76 0 127 64q35 44 52 139z" />
    <glyph glyph-name="ugrave" unicode="&#xf9;" horiz-adv-x="556" 
d="M535 0l-146 -11l15 88h-1q-56 -88 -143 -88q-44 0 -72.5 11t-41 25t-16 41t-1.5 43.5t7 48.5l25 150q12 67 4 79.5t-66 12.5l5 31l149 11l-56 -332q-3 -27 -3.5 -49t18 -36t57.5 -14q54 0 95 44t52 111l29 178q7 37 -4.5 46.5t-63.5 9.5l5 31l149 11l-59 -355
q-7 -37 4.5 -46.5t63.5 -9.5zM437 581l-23 -13l-115 235q-8 16 -7 27q3 14 16 24t26 10q14 0 19.5 -7t9.5 -22z" />
    <glyph glyph-name="uacute" unicode="&#xfa;" horiz-adv-x="556" 
d="M535 0l-146 -11l15 88h-1q-56 -88 -143 -88q-44 0 -72.5 11t-41 25t-16 41t-1.5 43.5t7 48.5l25 150q12 67 4 79.5t-66 12.5l5 31l149 11l-56 -332q-3 -27 -3.5 -49t18 -36t57.5 -14q54 0 95 44t52 111l29 178q7 37 -4.5 46.5t-63.5 9.5l5 31l149 11l-59 -355
q-7 -37 4.5 -46.5t63.5 -9.5zM540 830q-1 -10 -15 -27l-193 -235l-19 13l158 254q7 11 10 15t11 9t18 5q13 0 23 -10t7 -24z" />
    <glyph glyph-name="ucircumflex" unicode="&#xfb;" horiz-adv-x="556" 
d="M535 0l-146 -11l15 88h-1q-56 -88 -143 -88q-44 0 -72.5 11t-41 25t-16 41t-1.5 43.5t7 48.5l25 150q12 67 4 79.5t-66 12.5l5 31l149 11l-56 -332q-3 -27 -3.5 -49t18 -36t57.5 -14q54 0 95 44t52 111l29 178q7 37 -4.5 46.5t-63.5 9.5l5 31l149 11l-59 -355
q-7 -37 4.5 -46.5t63.5 -9.5zM531 583l-24 -15l-99 213l-170 -213l-20 15l204 281z" />
    <glyph glyph-name="udieresis" unicode="&#xfc;" horiz-adv-x="556" 
d="M535 0l-146 -11l15 88h-1q-56 -88 -143 -88q-44 0 -72.5 11t-41 25t-16 41t-1.5 43.5t7 48.5l25 150q12 67 4 79.5t-66 12.5l5 31l149 11l-56 -332q-3 -27 -3.5 -49t18 -36t57.5 -14q54 0 95 44t52 111l29 178q7 37 -4.5 46.5t-63.5 9.5l5 31l149 11l-59 -355
q-7 -37 4.5 -46.5t63.5 -9.5zM350 716q-3 -19 -20 -34.5t-38 -15.5t-33 14.5t-9 35.5q4 21 21 35.5t38 14.5t32.5 -15.5t8.5 -34.5zM543 716q-3 -21 -20 -35.5t-38 -14.5q-22 0 -33.5 15.5t-8.5 34.5t20 34.5t39 15.5q21 0 33 -14.5t8 -35.5z" />
    <glyph glyph-name="yacute" unicode="&#xfd;" horiz-adv-x="528" 
d="M575 400q-66 0 -104 -64l-247 -427q-68 -114 -147 -114q-38 0 -61 23.5t-18 57.5q3 21 17.5 32t31.5 11q18 0 28.5 -11.5t6.5 -30.5q-5 -37 -46 -42q16 -18 44 -18q23 0 43 10.5t37.5 32t28.5 38t26 43.5l35 59l-89 365q-6 24 -20 29.5t-55 5.5l5 31q45 -3 96 -3l110 3
l-5 -31q-56 0 -61 -26q0 -3 3 -18l67 -269l142 246q8 14 10 24q7 41 -40 43l5 31l86 -3q42 0 76 3zM526 830q-1 -10 -15 -27l-193 -235l-19 13l158 254q7 11 10 15t11 9t18 5q13 0 23 -10t7 -24z" />
    <glyph glyph-name="thorn" unicode="&#xfe;" horiz-adv-x="556" 
d="M557 216q-16 -95 -93 -161t-168 -66q-34 0 -62 15t-37 26t-14 20l-28 -168q-5 -32 6.5 -38.5t64.5 -6.5l-5 -31l-113 3l-112 -3l5 31q53 0 66.5 6.5t18.5 38.5l168 1005q5 35 -8.5 45t-42.5 10h-19l5 31l147 11l-101 -608q69 66 151 66q85 0 136 -66t35 -160zM474 216
q14 84 -15.5 142.5t-84.5 58.5q-83 0 -143 -80l-37 -223q-2 -15 -1 -20.5t8 -21.5q30 -61 95 -61q57 0 110 58.5t68 146.5z" />
    <glyph glyph-name="ydieresis" unicode="&#xff;" horiz-adv-x="528" 
d="M575 400q-66 0 -104 -64l-247 -427q-68 -114 -147 -114q-38 0 -61 23.5t-18 57.5q3 21 17.5 32t31.5 11q18 0 28.5 -11.5t6.5 -30.5q-5 -37 -46 -42q16 -18 44 -18q23 0 43 10.5t37.5 32t28.5 38t26 43.5l35 59l-89 365q-6 24 -20 29.5t-55 5.5l5 31q45 -3 96 -3l110 3
l-5 -31q-56 0 -61 -26q0 -3 3 -18l67 -269l142 246q8 14 10 24q7 41 -40 43l5 31l86 -3q42 0 76 3zM336 716q-3 -19 -20 -34.5t-38 -15.5t-33 14.5t-9 35.5q4 21 21 35.5t38 14.5t32.5 -15.5t8.5 -34.5zM529 716q-3 -21 -20 -35.5t-38 -14.5q-22 0 -33.5 15.5t-8.5 34.5
t20 34.5t39 15.5q21 0 33 -14.5t8 -35.5z" />
    <glyph glyph-name="Amacron" unicode="&#x100;" horiz-adv-x="750" 
d="M718 0l-129 3q-107 0 -144 -3l5 31q89 0 95 32q-1 7 -1 13l-21 249h-246l-90 -218q-6 -13 -8 -21q-3 -22 16 -38t57 -17l-5 -31l-114 3q-39 0 -102 -3l5 31q54 0 79 20t38 52l362 870q5 13 10 17t16 4q10 0 13 -4t4 -17l75 -901q2 -25 15 -33t58 -8h17zM520 356l-38 458
l-192 -458h230zM727 1034h-361l5 32h361z" />
    <glyph glyph-name="amacron" unicode="&#x101;" 
d="M498 89q-6 -37 -27 -60t-38.5 -29t-32.5 -6q-33 0 -49.5 24.5t-14.5 57.5q-22 -38 -60.5 -62.5t-85.5 -24.5q-59 0 -105 25.5t-37 80.5q13 84 122 130q65 29 190 36l6 37q10 62 -16.5 95t-68.5 33q-73 0 -116 -46q30 -1 38.5 -16t5.5 -30q-4 -20 -18.5 -33t-35.5 -13
q-20 0 -31 12.5t-7 34.5q8 49 57.5 81t112.5 32q81 0 128 -55q19 -25 21.5 -57t-5.5 -61l-33 -200q0 -4 -1 -15t6.5 -23t22.5 -12q36 0 47 64l9 56h25zM339 140l17 100q-112 -4 -167 -48t-64 -96q-6 -37 16.5 -61t59.5 -24q42 0 85 32.5t53 96.5zM547 700h-361l5 32h361z
" />
    <glyph glyph-name="Abreve" unicode="&#x102;" horiz-adv-x="750" 
d="M718 0l-129 3q-107 0 -144 -3l5 31q89 0 95 32q-1 7 -1 13l-21 249h-246l-90 -218q-6 -13 -8 -21q-3 -22 16 -38t57 -17l-5 -31l-114 3q-39 0 -102 -3l5 31q54 0 79 20t38 52l362 870q5 13 10 17t16 4q10 0 13 -4t4 -17l75 -901q2 -25 15 -33t58 -8h17zM520 356l-38 458
l-192 -458h230zM728 1220q-17 -104 -69 -150t-114 -46q-64 0 -99 48t-18 148h22q-14 -87 17.5 -124t84.5 -37q52 0 96 37.5t58 123.5h22z" />
    <glyph glyph-name="abreve" unicode="&#x103;" 
d="M498 89q-6 -37 -27 -60t-38.5 -29t-32.5 -6q-33 0 -49.5 24.5t-14.5 57.5q-22 -38 -60.5 -62.5t-85.5 -24.5q-59 0 -105 25.5t-37 80.5q13 84 122 130q65 29 190 36l6 37q10 62 -16.5 95t-68.5 33q-73 0 -116 -46q30 -1 38.5 -16t5.5 -30q-4 -20 -18.5 -33t-35.5 -13
q-20 0 -31 12.5t-7 34.5q8 49 57.5 81t112.5 32q81 0 128 -55q19 -25 21.5 -57t-5.5 -61l-33 -200q0 -4 -1 -15t6.5 -23t22.5 -12q36 0 47 64l9 56h25zM339 140l17 100q-112 -4 -167 -48t-64 -96q-6 -37 16.5 -61t59.5 -24q42 0 85 32.5t53 96.5zM542 858q-6 -34 -13 -64.5
t-23.5 -73t-36.5 -73t-52.5 -52t-71.5 -21.5q-38 0 -63 21.5t-35.5 51.5t-12.5 72t0.5 73.5t8.5 65.5h22q-40 -246 87 -246q43 0 75.5 28t51 74t27 78t14.5 66h22z" />
    <glyph glyph-name="Aogonek" unicode="&#x104;" horiz-adv-x="750" 
d="M700 -115q-19 -42 -57.5 -69t-76.5 -27q-47 0 -74.5 27.5t-21.5 62.5q10 67 102 124q-95 0 -127 -3l5 31q89 0 95 32q-1 7 -1 13l-21 249h-246l-90 -218q-6 -13 -8 -21q-3 -22 16 -38t57 -17l-5 -31l-114 3q-39 0 -102 -3l5 31q54 0 79 20t38 52l362 870q5 13 10 17t16 4
q10 0 13 -4t4 -17l75 -901q2 -25 15 -33t58 -8h17l-5 -31q-54 3 -108 3q-79 -47 -88 -98q-6 -32 19.5 -50.5t56.5 -18.5q50 0 86 56q5 8 12.5 5t3.5 -12zM520 356l-38 458l-192 -458h230z" />
    <glyph glyph-name="aogonek" unicode="&#x105;" 
d="M498 89q-6 -37 -27 -60t-38.5 -29t-32.5 -6q-18 0 -28 6q-81 -50 -89 -95q-6 -32 19.5 -50.5t56.5 -18.5q50 0 86 56q5 8 12.5 5t3.5 -12q-19 -42 -57.5 -69t-76.5 -27q-47 0 -74.5 27.5t-21.5 62.5q6 37 42 74t81 62q-21 24 -18 61q-22 -38 -60.5 -62.5t-85.5 -24.5
q-59 0 -105 25.5t-37 80.5q13 84 122 130q65 29 190 36l6 37q10 62 -16.5 95t-68.5 33q-73 0 -116 -46q30 -1 38.5 -16t5.5 -30q-4 -20 -18.5 -33t-35.5 -13q-20 0 -31 12.5t-7 34.5q8 49 57.5 81t112.5 32q81 0 128 -55q19 -25 21.5 -57t-5.5 -61l-33 -200q0 -4 -1 -15
t6.5 -23t22.5 -12q36 0 47 64l9 56h25zM339 140l17 100q-112 -4 -167 -48t-64 -96q-6 -37 16.5 -61t59.5 -24q42 0 85 32.5t53 96.5z" />
    <glyph glyph-name="Cacute" unicode="&#x106;" horiz-adv-x="722" 
d="M722 343q-7 -44 -23.5 -91t-44.5 -96.5t-63 -88.5t-85 -64t-105 -25q-67 0 -124.5 37t-94.5 104t-51 159t5 203q36 214 164 358t269 144q113 0 168 -115l65 101q9 14 16 14q8 0 9 -5.5t-2 -18.5l-60 -358q-2 -16 -5 -20t-15 -4q-10 0 -11.5 3.5t-0.5 20.5q8 51 3.5 112
t-17 114t-50.5 89t-96 36q-72 0 -133 -51t-98 -112q-71 -117 -103 -309q-15 -87 -15.5 -159.5t9 -120t27.5 -84t38.5 -56t44 -32t40.5 -16t33 -3.5q99 0 176.5 94.5t105.5 246.5q8 14 15 15q9 0 10.5 -5t-1.5 -17zM780 1168q-5 -7 -26 -18l-272 -126l-8 22l254 162
q22 12 31 12q20 0 27 -17.5t-6 -34.5z" />
    <glyph glyph-name="cacute" unicode="&#x107;" horiz-adv-x="444" 
d="M435 119q-1 -5 -7 -17.5t-21.5 -32.5t-36 -37.5t-53 -30t-70.5 -12.5q-88 0 -140.5 66t-36.5 161t90 163.5t166 68.5q61 0 102 -29t33 -78q-4 -22 -19 -34.5t-35 -12.5q-21 0 -31.5 13t-6.5 33q2 15 14.5 29.5t39.5 16.5q-30 37 -100 37q-51 0 -101 -48t-69 -157
q-17 -108 19 -156t88 -48q98 0 149 105q5 10 15 10q3 0 5 -0.5t4.5 -2.5t1.5 -7zM506 830q-1 -10 -15 -27l-193 -235l-19 13l158 254q7 11 10 15t11 9t18 5q13 0 23 -10t7 -24z" />
    <glyph glyph-name="Ccircumflex" unicode="&#x108;" horiz-adv-x="722" 
d="M722 343q-7 -44 -23.5 -91t-44.5 -96.5t-63 -88.5t-85 -64t-105 -25q-67 0 -124.5 37t-94.5 104t-51 159t5 203q36 214 164 358t269 144q113 0 168 -115l65 101q9 14 16 14q8 0 9 -5.5t-2 -18.5l-60 -358q-2 -16 -5 -20t-15 -4q-10 0 -11.5 3.5t-0.5 20.5q8 51 3.5 112
t-17 114t-50.5 89t-96 36q-72 0 -133 -51t-98 -112q-71 -117 -103 -309q-15 -87 -15.5 -159.5t9 -120t27.5 -84t38.5 -56t44 -32t40.5 -16t33 -3.5q99 0 176.5 94.5t105.5 246.5q8 14 15 15q9 0 10.5 -5t-1.5 -17zM734 1029l-24 -15l-123 129l-166 -129l-20 15l197 181z" />
    <glyph glyph-name="ccircumflex" unicode="&#x109;" horiz-adv-x="444" 
d="M435 119q-1 -5 -7 -17.5t-21.5 -32.5t-36 -37.5t-53 -30t-70.5 -12.5q-88 0 -140.5 66t-36.5 161t90 163.5t166 68.5q61 0 102 -29t33 -78q-4 -22 -19 -34.5t-35 -12.5q-21 0 -31.5 13t-6.5 33q2 15 14.5 29.5t39.5 16.5q-30 37 -100 37q-51 0 -101 -48t-69 -157
q-17 -108 19 -156t88 -48q98 0 149 105q5 10 15 10q3 0 5 -0.5t4.5 -2.5t1.5 -7zM497 583l-24 -15l-99 213l-170 -213l-20 15l204 281z" />
    <glyph glyph-name="Cdotaccent" unicode="&#x10a;" horiz-adv-x="722" 
d="M722 343q-7 -44 -23.5 -91t-44.5 -96.5t-63 -88.5t-85 -64t-105 -25q-67 0 -124.5 37t-94.5 104t-51 159t5 203q36 214 164 358t269 144q113 0 168 -115l65 101q9 14 16 14q8 0 9 -5.5t-2 -18.5l-60 -358q-2 -16 -5 -20t-15 -4q-10 0 -11.5 3.5t-0.5 20.5q8 51 3.5 112
t-17 114t-50.5 89t-96 36q-72 0 -133 -51t-98 -112q-71 -117 -103 -309q-15 -87 -15.5 -159.5t9 -120t27.5 -84t38.5 -56t44 -32t40.5 -16t33 -3.5q99 0 176.5 94.5t105.5 246.5q8 14 15 15q9 0 10.5 -5t-1.5 -17zM631 1089q-3 -20 -20.5 -36.5t-41.5 -16.5q-22 0 -35 16
t-10 37q4 20 21.5 36.5t41.5 16.5q22 0 35 -16t9 -37z" />
    <glyph glyph-name="cdotaccent" unicode="&#x10b;" horiz-adv-x="444" 
d="M435 119q-1 -5 -7 -17.5t-21.5 -32.5t-36 -37.5t-53 -30t-70.5 -12.5q-88 0 -140.5 66t-36.5 161t90 163.5t166 68.5q61 0 102 -29t33 -78q-4 -22 -19 -34.5t-35 -12.5q-21 0 -31.5 13t-6.5 33q2 15 14.5 29.5t39.5 16.5q-30 37 -100 37q-51 0 -101 -48t-69 -157
q-17 -108 19 -156t88 -48q98 0 149 105q5 10 15 10q3 0 5 -0.5t4.5 -2.5t1.5 -7zM416 716q-3 -20 -20.5 -36.5t-41.5 -16.5q-22 0 -35 16t-10 37q4 20 21.5 36.5t41.5 16.5q22 0 35 -16t9 -37z" />
    <glyph glyph-name="Ccaron" unicode="&#x10c;" horiz-adv-x="722" 
d="M722 343q-7 -44 -23.5 -91t-44.5 -96.5t-63 -88.5t-85 -64t-105 -25q-67 0 -124.5 37t-94.5 104t-51 159t5 203q36 214 164 358t269 144q113 0 168 -115l65 101q9 14 16 14q8 0 9 -5.5t-2 -18.5l-60 -358q-2 -16 -5 -20t-15 -4q-10 0 -11.5 3.5t-0.5 20.5q8 51 3.5 112
t-17 114t-50.5 89t-96 36q-72 0 -133 -51t-98 -112q-71 -117 -103 -309q-15 -87 -15.5 -159.5t9 -120t27.5 -84t38.5 -56t44 -32t40.5 -16t33 -3.5q99 0 176.5 94.5t105.5 246.5q8 14 15 15q9 0 10.5 -5t-1.5 -17zM762 1195l-197 -181l-136 181l24 15l123 -129l166 129z" />
    <glyph glyph-name="ccaron" unicode="&#x10d;" horiz-adv-x="444" 
d="M435 119q-1 -5 -7 -17.5t-21.5 -32.5t-36 -37.5t-53 -30t-70.5 -12.5q-88 0 -140.5 66t-36.5 161t90 163.5t166 68.5q61 0 102 -29t33 -78q-4 -22 -19 -34.5t-35 -12.5q-21 0 -31.5 13t-6.5 33q2 15 14.5 29.5t39.5 16.5q-30 37 -100 37q-51 0 -101 -48t-69 -157
q-17 -108 19 -156t88 -48q98 0 149 105q5 10 15 10q3 0 5 -0.5t4.5 -2.5t1.5 -7zM542 849l-204 -281l-109 281l24 15l99 -213l170 213z" />
    <glyph glyph-name="Dcaron" unicode="&#x10e;" horiz-adv-x="764" 
d="M786 472q-34 -199 -146.5 -335.5t-240.5 -136.5h-364l5 31h24q54 0 68 9t19 38l134 805q5 29 -6 38t-65 9h-24l5 31h363q87 0 147 -66.5t81.5 -178.5t-0.5 -244zM686 473q30 180 12 282q-5 25 -14 48.5t-27.5 55.5t-52.5 51.5t-78 19.5h-98q-34 0 -42.5 -7t-13.5 -33
l-136 -819q-5 -26 1.5 -33t40.5 -7h98q131 0 224 158q54 95 86 284zM688 1195l-197 -181l-136 181l24 15l123 -129l166 129z" />
    <glyph glyph-name="dcaron" unicode="&#x10f;" horiz-adv-x="556" 
d="M527 0l-149 -11l11 66q-62 -66 -145 -66q-86 0 -138 66t-36 160q15 95 93 161t168 66q75 0 115 -62l83 494q6 37 -5.5 46.5t-63.5 9.5l5 31l146 11l-147 -885q-7 -37 4.5 -46.5t63.5 -9.5zM400 118l34 205q3 19 -5 37q-31 60 -98 60q-68 0 -124 -64q-39 -49 -54 -142
q-16 -94 6 -139q29 -64 94 -64q75 0 130 70q14 18 17 37zM738 878q-8 -47 -33.5 -90t-48 -64t-29.5 -21q-9 0 -7 10q1 4 8 10q77 68 90 155l1 13q-20 -14 -39 -14q-23 0 -33 14.5t-7 33.5t18.5 33t37.5 14q27 0 38.5 -25.5t3.5 -68.5z" />
    <glyph glyph-name="Dcroat" unicode="&#x110;" horiz-adv-x="764" 
d="M787 472q-10 -60 -30.5 -121.5t-55.5 -125.5t-79 -113t-107 -80t-134 -31h-347l5 31h33q22 0 35.5 2.5t26.5 12.5t16 28l63 382h-86q-17 0 -14 15q2 14 13 16h92l67 399q4 27 -10.5 36t-45.5 9q-7 0 -20 -0.5t-20 -0.5l5 31h347q38 0 57 -3q71 -12 116.5 -73t66.5 -142
q31 -116 6 -272zM690 491l2 11q12 73 13 139.5t-12.5 136t-59 111.5t-119.5 42h-93q-21 0 -33 -6t-15 -28l-69 -409h174q17 0 14 -15l-1 -7q-5 -9 -15 -9h-177l-65 -393q-3 -19 6 -25.5t27 -6.5h103q113 0 198 109q37 49 63 114.5t36 111t23 124.5z" />
    <glyph glyph-name="dcroat" unicode="&#x111;" horiz-adv-x="556" 
d="M526 0l-149 -11l11 66q-63 -66 -143 -66q-89 0 -141 66q-51 66 -35 160t93 160q76 67 170 67q74 0 113 -62l56 332h-119l6 37h119l21 126q6 37 -5 46q-12 9 -64 9l5 31l146 11l-37 -223h78l-6 -37h-78l-105 -626q-4 -38 6 -46q11 -9 63 -9zM396 101l40 239
q-11 36 -39.5 57.5t-66.5 21.5q-66 0 -118 -58q-43 -50 -59 -146q-16 -98 8 -146q30 -58 90 -58q42 0 81 24.5t64 65.5z" />
    <glyph glyph-name="Emacron" unicode="&#x112;" horiz-adv-x="681" 
d="M695 258l-85 -258h-577l5 31h24q54 0 68 9t19 38l134 802q5 29 -6 38t-65 9h-24l5 31h563l-10 -225h-25q6 112 -24 153t-139 41h-129q-34 0 -43 -7t-13 -33l-62 -374h90q69 0 92.5 24t34.5 93h25l-44 -265h-25q11 68 -4.5 92.5t-84.5 24.5h-90l-68 -411q-5 -26 1.5 -33
t40.5 -7h133q51 0 88 9.5t62 25t45 47t32.5 62t30.5 83.5h25zM693 1034h-361l5 32h361z" />
    <glyph glyph-name="emacron" unicode="&#x113;" horiz-adv-x="444" 
d="M435 119q-1 -9 -14 -28.5t-35 -43t-60 -41t-80 -17.5q-89 0 -143.5 66.5t-37.5 164.5q16 94 87.5 161t158.5 67q88 0 124 -57.5t22 -138.5q-2 -15 -6.5 -18t-21.5 -3h-279q-17 -102 5 -150q13 -30 39 -48.5t62 -18.5q10 0 22 2t37 10.5t50.5 31.5t43.5 59q5 14 15 14
q13 0 11 -12zM391 252q3 15 4 33.5t-1.5 44.5t-10.5 46.5t-27.5 35t-48.5 14.5q-16 0 -34.5 -7t-42.5 -23.5t-44.5 -54t-31.5 -89.5h237zM519 700h-361l5 32h361z" />
    <glyph glyph-name="Ebreve" unicode="&#x114;" horiz-adv-x="681" 
d="M695 258l-85 -258h-577l5 31h24q54 0 68 9t19 38l134 802q5 29 -6 38t-65 9h-24l5 31h563l-10 -225h-25q6 112 -24 153t-139 41h-129q-34 0 -43 -7t-13 -33l-62 -374h90q69 0 92.5 24t34.5 93h25l-44 -265h-25q11 68 -4.5 92.5t-84.5 24.5h-90l-68 -411q-5 -26 1.5 -33
t40.5 -7h133q51 0 88 9.5t62 25t45 47t32.5 62t30.5 83.5h25zM694 1220q-17 -104 -69 -150t-114 -46q-64 0 -99 48t-18 148h22q-14 -87 17.5 -124t84.5 -37q52 0 96 37.5t58 123.5h22z" />
    <glyph glyph-name="ebreve" unicode="&#x115;" horiz-adv-x="444" 
d="M435 119q-1 -9 -14 -28.5t-35 -43t-60 -41t-80 -17.5q-89 0 -143.5 66.5t-37.5 164.5q16 94 87.5 161t158.5 67q88 0 124 -57.5t22 -138.5q-2 -15 -6.5 -18t-21.5 -3h-279q-17 -102 5 -150q13 -30 39 -48.5t62 -18.5q10 0 22 2t37 10.5t50.5 31.5t43.5 59q5 14 15 14
q13 0 11 -12zM391 252q3 15 4 33.5t-1.5 44.5t-10.5 46.5t-27.5 35t-48.5 14.5q-16 0 -34.5 -7t-42.5 -23.5t-44.5 -54t-31.5 -89.5h237zM514 858q-6 -34 -13 -64.5t-23.5 -73t-36.5 -73t-52.5 -52t-71.5 -21.5q-38 0 -63 21.5t-35.5 51.5t-12.5 72t0.5 73.5t8.5 65.5h22
q-40 -246 87 -246q43 0 75.5 28t51 74t27 78t14.5 66h22z" />
    <glyph glyph-name="Edotaccent" unicode="&#x116;" horiz-adv-x="681" 
d="M695 258l-85 -258h-577l5 31h24q54 0 68 9t19 38l134 802q5 29 -6 38t-65 9h-24l5 31h563l-10 -225h-25q6 112 -24 153t-139 41h-129q-34 0 -43 -7t-13 -33l-62 -374h90q69 0 92.5 24t34.5 93h25l-44 -265h-25q11 68 -4.5 92.5t-84.5 24.5h-90l-68 -411q-5 -26 1.5 -33
t40.5 -7h133q51 0 88 9.5t62 25t45 47t32.5 62t30.5 83.5h25zM574 1089q-3 -20 -20.5 -36.5t-41.5 -16.5q-22 0 -35 16t-10 37q4 20 21.5 36.5t41.5 16.5q22 0 35 -16t9 -37z" />
    <glyph glyph-name="edotaccent" unicode="&#x117;" horiz-adv-x="444" 
d="M435 119q-1 -9 -14 -28.5t-35 -43t-60 -41t-80 -17.5q-89 0 -143.5 66.5t-37.5 164.5q16 94 87.5 161t158.5 67q88 0 124 -57.5t22 -138.5q-2 -15 -6.5 -18t-21.5 -3h-279q-17 -102 5 -150q13 -30 39 -48.5t62 -18.5q10 0 22 2t37 10.5t50.5 31.5t43.5 59q5 14 15 14
q13 0 11 -12zM391 252q3 15 4 33.5t-1.5 44.5t-10.5 46.5t-27.5 35t-48.5 14.5q-16 0 -34.5 -7t-42.5 -23.5t-44.5 -54t-31.5 -89.5h237zM394 716q-3 -20 -20.5 -36.5t-41.5 -16.5q-22 0 -35 16t-10 37q4 20 21.5 36.5t41.5 16.5q22 0 35 -16t9 -37z" />
    <glyph glyph-name="Eogonek" unicode="&#x118;" horiz-adv-x="681" 
d="M695 258l-85 -258h-125q-73 -45 -82 -95q-6 -32 19.5 -50.5t56.5 -18.5q50 0 86 56q5 8 12.5 5t3.5 -12q-19 -42 -57.5 -69t-76.5 -27q-47 0 -74.5 27.5t-21.5 62.5q10 67 97 121h-415l5 31h24q54 0 68 9t19 38l134 802q5 29 -6 38t-65 9h-24l5 31h563l-10 -225h-25
q6 112 -24 153t-139 41h-129q-34 0 -43 -7t-13 -33l-62 -374h90q69 0 92.5 24t34.5 93h25l-44 -265h-25q11 68 -4.5 92.5t-84.5 24.5h-90l-68 -411q-5 -26 1.5 -33t40.5 -7h133q51 0 88 9.5t62 25t45 47t32.5 62t30.5 83.5h25z" />
    <glyph glyph-name="eogonek" unicode="&#x119;" horiz-adv-x="444" 
d="M435 119q-4 -22 -43 -65.5t-98 -58.5q-83 -42 -91 -90q-6 -32 19.5 -50.5t56.5 -18.5q50 0 86 56q5 8 12.5 5t3.5 -12q-19 -42 -57.5 -69t-76.5 -27q-47 0 -74.5 27.5t-21.5 62.5q9 54 84 110q-85 5 -135.5 70.5t-34.5 160.5q16 94 87.5 161t158.5 67q88 0 124 -57.5
t22 -138.5q-2 -15 -6.5 -18t-21.5 -3h-279q-17 -102 5 -150q13 -30 39 -48.5t62 -18.5q10 0 22 2t37 10.5t50.5 31.5t43.5 59q5 14 15 14q13 0 11 -12zM391 252q3 15 4 33.5t-1.5 44.5t-10.5 46.5t-27.5 35t-48.5 14.5q-16 0 -34.5 -7t-42.5 -23.5t-44.5 -54t-31.5 -89.5
h237z" />
    <glyph glyph-name="Ecaron" unicode="&#x11a;" horiz-adv-x="681" 
d="M695 258l-85 -258h-577l5 31h24q54 0 68 9t19 38l134 802q5 29 -6 38t-65 9h-24l5 31h563l-10 -225h-25q6 112 -24 153t-139 41h-129q-34 0 -43 -7t-13 -33l-62 -374h90q69 0 92.5 24t34.5 93h25l-44 -265h-25q11 68 -4.5 92.5t-84.5 24.5h-90l-68 -411q-5 -26 1.5 -33
t40.5 -7h133q51 0 88 9.5t62 25t45 47t32.5 62t30.5 83.5h25zM706 1195l-197 -181l-136 181l24 15l123 -129l166 129z" />
    <glyph glyph-name="ecaron" unicode="&#x11b;" horiz-adv-x="444" 
d="M435 119q-1 -9 -14 -28.5t-35 -43t-60 -41t-80 -17.5q-89 0 -143.5 66.5t-37.5 164.5q16 94 87.5 161t158.5 67q88 0 124 -57.5t22 -138.5q-2 -15 -6.5 -18t-21.5 -3h-279q-17 -102 5 -150q13 -30 39 -48.5t62 -18.5q10 0 22 2t37 10.5t50.5 31.5t43.5 59q5 14 15 14
q13 0 11 -12zM391 252q3 15 4 33.5t-1.5 44.5t-10.5 46.5t-27.5 35t-48.5 14.5q-16 0 -34.5 -7t-42.5 -23.5t-44.5 -54t-31.5 -89.5h237zM520 849l-204 -281l-109 281l24 15l99 -213l170 213z" />
    <glyph glyph-name="Gcircumflex" unicode="&#x11c;" horiz-adv-x="785" 
d="M775 242q-48 0 -59.5 -7t-16.5 -37l-29 -174q-3 -23 -13 -23q-8 0 -27 22.5t-26 39.5q-33 -43 -89 -64t-111 -21q-94 0 -164 64.5t-98.5 181t-5.5 257.5q36 213 164 357.5t270 144.5q112 0 168 -115l65 101q9 14 16 14q8 0 9 -5.5t-2 -18.5l-60 -358q-2 -16 -5 -20
t-15 -4q-10 0 -11.5 3.5t-0.5 20.5q2 43 3.5 89.5t-8 93.5t-25.5 84t-50 60.5t-81 23.5q-24 0 -52.5 -8t-72 -37.5t-80.5 -77t-73 -138.5t-56 -210q-15 -89 -15 -162t10.5 -121t30 -84.5t41 -55.5t46.5 -31t42 -15t32 -3q13 0 32 3t51.5 13.5t57.5 37.5t32 67l10 64
q6 30 -7.5 39t-77.5 9h-32l6 31q35 -3 160 -3l123 3zM730 1029l-24 -15l-123 129l-166 -129l-20 15l197 181z" />
    <glyph glyph-name="gcircumflex" unicode="&#x11d;" 
d="M552 404q-2 -15 -13 -22.5t-21 -7.5q-12 0 -19 8t-5 21q4 21 21 27l-10 1q-49 0 -97 -39q35 -36 25 -97q-10 -59 -64 -102.5t-122 -43.5q-56 0 -94 31q-18 -18 -25 -47q-4 -25 7.5 -44.5t34.5 -22.5q7 -1 75 -1q40 0 61.5 -1t52.5 -7.5t53 -19.5q59 -35 46 -114
q-9 -57 -80.5 -93t-162.5 -36q-92 0 -150.5 36.5t-49.5 90.5q5 31 34 59.5t75 40.5q-40 28 -30 89q8 46 45 83q-40 40 -30 103q10 59 64.5 102.5t122.5 43.5q60 0 100 -36q56 47 114 47q26 0 35.5 -16t6.5 -33zM358 296q21 123 -66 123q-45 0 -78 -40q-19 -25 -30 -84
q-3 -16 -3.5 -30.5t2.5 -38.5t20.5 -39t47.5 -15q44 0 77 40q22 27 30 84zM406 -79q3 16 0.5 28.5t-11.5 21t-18 15t-26 10.5t-29 6.5t-33.5 3.5t-33 1h-33.5h-59q-34 -2 -62.5 -27t-33.5 -59q-7 -41 36 -72.5t116 -31.5q72 0 126 31t61 73zM468 583l-24 -15l-99 213
l-170 -213l-20 15l204 281z" />
    <glyph glyph-name="Gbreve" unicode="&#x11e;" horiz-adv-x="785" 
d="M775 242q-48 0 -59.5 -7t-16.5 -37l-29 -174q-3 -23 -13 -23q-8 0 -27 22.5t-26 39.5q-33 -43 -89 -64t-111 -21q-94 0 -164 64.5t-98.5 181t-5.5 257.5q36 213 164 357.5t270 144.5q112 0 168 -115l65 101q9 14 16 14q8 0 9 -5.5t-2 -18.5l-60 -358q-2 -16 -5 -20
t-15 -4q-10 0 -11.5 3.5t-0.5 20.5q2 43 3.5 89.5t-8 93.5t-25.5 84t-50 60.5t-81 23.5q-24 0 -52.5 -8t-72 -37.5t-80.5 -77t-73 -138.5t-56 -210q-15 -89 -15 -162t10.5 -121t30 -84.5t41 -55.5t46.5 -31t42 -15t32 -3q13 0 32 3t51.5 13.5t57.5 37.5t32 67l10 64
q6 30 -7.5 39t-77.5 9h-32l6 31q35 -3 160 -3l123 3zM746 1220q-17 -104 -69 -150t-114 -46q-64 0 -99 48t-18 148h22q-14 -87 17.5 -124t84.5 -37q52 0 96 37.5t58 123.5h22z" />
    <glyph glyph-name="gbreve" unicode="&#x11f;" 
d="M552 404q-2 -15 -13 -22.5t-21 -7.5q-12 0 -19 8t-5 21q4 21 21 27l-10 1q-49 0 -97 -39q35 -36 25 -97q-10 -59 -64 -102.5t-122 -43.5q-56 0 -94 31q-18 -18 -25 -47q-4 -25 7.5 -44.5t34.5 -22.5q7 -1 75 -1q40 0 61.5 -1t52.5 -7.5t53 -19.5q59 -35 46 -114
q-9 -57 -80.5 -93t-162.5 -36q-92 0 -150.5 36.5t-49.5 90.5q5 31 34 59.5t75 40.5q-40 28 -30 89q8 46 45 83q-40 40 -30 103q10 59 64.5 102.5t122.5 43.5q60 0 100 -36q56 47 114 47q26 0 35.5 -16t6.5 -33zM358 296q21 123 -66 123q-45 0 -78 -40q-19 -25 -30 -84
q-3 -16 -3.5 -30.5t2.5 -38.5t20.5 -39t47.5 -15q44 0 77 40q22 27 30 84zM406 -79q3 16 0.5 28.5t-11.5 21t-18 15t-26 10.5t-29 6.5t-33.5 3.5t-33 1h-33.5h-59q-34 -2 -62.5 -27t-33.5 -59q-7 -41 36 -72.5t116 -31.5q72 0 126 31t61 73zM507 858q-6 -34 -13 -64.5
t-23.5 -73t-36.5 -73t-52.5 -52t-71.5 -21.5q-38 0 -63 21.5t-35.5 51.5t-12.5 72t0.5 73.5t8.5 65.5h22q-40 -246 87 -246q43 0 75.5 28t51 74t27 78t14.5 66h22z" />
    <glyph glyph-name="Gdotaccent" unicode="&#x120;" horiz-adv-x="785" 
d="M775 242q-48 0 -59.5 -7t-16.5 -37l-29 -174q-3 -23 -13 -23q-8 0 -27 22.5t-26 39.5q-33 -43 -89 -64t-111 -21q-94 0 -164 64.5t-98.5 181t-5.5 257.5q36 213 164 357.5t270 144.5q112 0 168 -115l65 101q9 14 16 14q8 0 9 -5.5t-2 -18.5l-60 -358q-2 -16 -5 -20
t-15 -4q-10 0 -11.5 3.5t-0.5 20.5q2 43 3.5 89.5t-8 93.5t-25.5 84t-50 60.5t-81 23.5q-24 0 -52.5 -8t-72 -37.5t-80.5 -77t-73 -138.5t-56 -210q-15 -89 -15 -162t10.5 -121t30 -84.5t41 -55.5t46.5 -31t42 -15t32 -3q13 0 32 3t51.5 13.5t57.5 37.5t32 67l10 64
q6 30 -7.5 39t-77.5 9h-32l6 31q35 -3 160 -3l123 3zM627 1089q-3 -20 -20.5 -36.5t-41.5 -16.5q-22 0 -35 16t-10 37q4 20 21.5 36.5t41.5 16.5q22 0 35 -16t9 -37z" />
    <glyph glyph-name="gdotaccent" unicode="&#x121;" 
d="M552 404q-2 -15 -13 -22.5t-21 -7.5q-12 0 -19 8t-5 21q4 21 21 27l-10 1q-49 0 -97 -39q35 -36 25 -97q-10 -59 -64 -102.5t-122 -43.5q-56 0 -94 31q-18 -18 -25 -47q-4 -25 7.5 -44.5t34.5 -22.5q7 -1 75 -1q40 0 61.5 -1t52.5 -7.5t53 -19.5q59 -35 46 -114
q-9 -57 -80.5 -93t-162.5 -36q-92 0 -150.5 36.5t-49.5 90.5q5 31 34 59.5t75 40.5q-40 28 -30 89q8 46 45 83q-40 40 -30 103q10 59 64.5 102.5t122.5 43.5q60 0 100 -36q56 47 114 47q26 0 35.5 -16t6.5 -33zM358 296q21 123 -66 123q-45 0 -78 -40q-19 -25 -30 -84
q-3 -16 -3.5 -30.5t2.5 -38.5t20.5 -39t47.5 -15q44 0 77 40q22 27 30 84zM406 -79q3 16 0.5 28.5t-11.5 21t-18 15t-26 10.5t-29 6.5t-33.5 3.5t-33 1h-33.5h-59q-34 -2 -62.5 -27t-33.5 -59q-7 -41 36 -72.5t116 -31.5q72 0 126 31t61 73zM387 716q-3 -20 -20.5 -36.5
t-41.5 -16.5q-22 0 -35 16t-10 37q4 20 21.5 36.5t41.5 16.5q22 0 35 -16t9 -37z" />
    <glyph glyph-name="Gcommaaccent" unicode="&#x122;" horiz-adv-x="785" 
d="M775 242q-48 0 -59.5 -7t-16.5 -37l-29 -174q-3 -23 -13 -23q-8 0 -27 22.5t-26 39.5q-33 -43 -89 -64t-111 -21q-94 0 -164 64.5t-98.5 181t-5.5 257.5q36 213 164 357.5t270 144.5q112 0 168 -115l65 101q9 14 16 14q8 0 9 -5.5t-2 -18.5l-60 -358q-2 -16 -5 -20
t-15 -4q-10 0 -11.5 3.5t-0.5 20.5q2 43 3.5 89.5t-8 93.5t-25.5 84t-50 60.5t-81 23.5q-24 0 -52.5 -8t-72 -37.5t-80.5 -77t-73 -138.5t-56 -210q-15 -89 -15 -162t10.5 -121t30 -84.5t41 -55.5t46.5 -31t42 -15t32 -3q13 0 32 3t51.5 13.5t57.5 37.5t32 67l10 64
q6 30 -7.5 39t-77.5 9h-32l6 31q35 -3 160 -3l123 3zM413 -139q-8 -47 -34 -90t-48 -64t-29 -21q-10 0 -8 10q1 4 8 10q76 68 91 155v13q-20 -14 -38 -14q-23 0 -33 14t-7 34q2 18 17.5 32.5t37.5 14.5q27 0 38.5 -25.5t4.5 -68.5z" />
    <glyph glyph-name="gcommaaccent" unicode="&#x123;" 
d="M377 651q-3 -19 -18.5 -33t-37.5 -14q-27 0 -38.5 25.5t-4.5 68.5q8 47 34 90t48.5 64t29.5 21q9 0 7 -10q-1 -4 -8 -10q-76 -68 -91 -155v-13q20 14 39 14q23 0 33 -14.5t7 -33.5zM552 404q-2 -15 -13 -22.5t-21 -7.5q-12 0 -19 8t-5 21q4 21 21 27l-10 1q-49 0 -97 -39
q35 -36 25 -97q-10 -59 -64 -102.5t-122 -43.5q-56 0 -94 31q-18 -18 -25 -47q-4 -25 7.5 -44.5t34.5 -22.5q7 -1 75 -1q40 0 61.5 -1t52.5 -7.5t53 -19.5q59 -35 46 -114q-9 -57 -80.5 -93t-162.5 -36q-92 0 -150.5 36.5t-49.5 90.5q5 31 34 59.5t75 40.5q-40 28 -30 89
q8 46 45 83q-40 40 -30 103q10 59 64.5 102.5t122.5 43.5q60 0 100 -36q56 47 114 47q26 0 35.5 -16t6.5 -33zM358 296q21 123 -66 123q-45 0 -78 -40q-19 -25 -30 -84q-3 -16 -3.5 -30.5t2.5 -38.5t20.5 -39t47.5 -15q44 0 77 40q22 27 30 84zM406 -79q3 16 0.5 28.5
t-11.5 21t-18 15t-26 10.5t-29 6.5t-33.5 3.5t-33 1h-33.5h-59q-34 -2 -62.5 -27t-33.5 -59q-7 -41 36 -72.5t116 -31.5q72 0 126 31t61 73z" />
    <glyph glyph-name="Hcircumflex" unicode="&#x124;" horiz-adv-x="750" 
d="M716 0q-34 3 -147 3q-112 0 -148 -3l5 31h24q54 0 68 9t19 38l68 406h-299l-68 -406q-5 -29 6 -38t65 -9h24l-5 -31q-34 3 -147 3q-112 0 -148 -3l5 31h24q54 0 68 9t19 38l134 805q5 29 -6 38t-65 9h-24l5 31q35 -3 148 -3q112 0 147 3l-5 -31h-24q-54 0 -68 -9t-19 -38
l-61 -368h299l61 368q5 29 -6 38t-65 9h-24l5 31q35 -3 148 -3q112 0 147 3l-5 -31h-24q-54 0 -68 -9t-19 -38l-134 -805q-5 -29 6 -38t65 -9h24zM712 1029l-24 -15l-123 129l-166 -129l-20 15l197 181z" />
    <glyph glyph-name="hcircumflex" unicode="&#x125;" horiz-adv-x="556" 
d="M535 0l-111 3l-114 -3l5 31q53 0 66.5 6.5t19.5 38.5l39 233q18 111 -56 111q-52 0 -100.5 -43.5t-61.5 -116.5l-30 -184q-6 -32 5.5 -38.5t64.5 -6.5l-5 -31l-111 3l-114 -3l5 31q53 0 66.5 6.5t19.5 38.5l133 798q6 37 -5.5 46.5t-63.5 9.5l5 31l146 11l-104 -626h1
q22 36 63 66t97 30q73 0 99 -37q12 -18 15 -39.5t1 -41t-11 -72.5l-32 -191q-3 -21 12.5 -25.5t60.5 -4.5zM617 1040l-24 -15l-123 129l-166 -129l-20 15l197 181z" />
    <glyph glyph-name="Hbar" unicode="&#x126;" horiz-adv-x="750" 
d="M716 0q-34 3 -147 3q-112 0 -148 -3l5 31h24q54 0 68 9t19 38l68 406h-299l-68 -406q-5 -29 6 -38t65 -9h24l-5 -31q-34 3 -147 3q-112 0 -148 -3l5 31h24q54 0 68 9t19 38l105 629h-103l5 31h103l24 145q5 29 -6 38t-65 9h-24l5 31q35 -3 148 -3q112 0 147 3l-5 -31h-24
q-54 0 -68 -9t-19 -38l-24 -145h299l24 145q5 29 -6 38t-65 9h-24l5 31q35 -3 148 -3q112 0 147 3l-5 -31h-24q-54 0 -68 -9t-19 -38l-24 -145h103l-5 -31h-103l-105 -629q-5 -29 6 -38t65 -9h24zM610 515l32 192h-299l-32 -192h299z" />
    <glyph glyph-name="hbar" unicode="&#x127;" horiz-adv-x="556" 
d="M535 0l-111 3l-114 -3l5 31q53 0 66.5 6.5t19.5 38.5l39 233q18 111 -56 111q-52 0 -100.5 -43.5t-61.5 -116.5l-30 -184q-6 -32 5.5 -38.5t64.5 -6.5l-5 -31l-111 3l-114 -3l5 31q53 0 66.5 6.5t19.5 38.5l106 636h-78l6 37h78l21 125q6 37 -5.5 46.5t-63.5 9.5l5 31
l146 11l-37 -223h145l-6 -37h-145l-61 -366h1q22 36 63 66t97 30q73 0 99 -37q12 -18 15 -39.5t1 -41t-11 -72.5l-32 -191q-3 -21 12.5 -25.5t60.5 -4.5z" />
    <glyph glyph-name="Itilde" unicode="&#x128;" horiz-adv-x="361" 
d="M333 0q-34 3 -152 3q-117 0 -153 -3l5 31h26q56 0 70.5 9t19.5 38l134 805q5 29 -6.5 38t-67.5 9h-26l5 31q35 -3 152 -3q118 0 153 3l-5 -31h-26q-56 0 -70.5 -9t-19.5 -38l-134 -805q-5 -29 6.5 -38t67.5 -9h26zM555 1083q-23 -23 -35 -33t-34 -22t-44 -14h-9
q-32 0 -88 19.5t-86 19.5q-43 0 -87 -39l-15 15q2 2 11 10.5t11 10.5t10 9t11.5 9.5t11 8t12.5 7.5t12.5 5.5t14 5t14.5 2.5t16 1q31 0 86.5 -19.5t85.5 -19.5q15 0 28 4t20 8t21 13.5t20 13.5z" />
    <glyph glyph-name="itilde" unicode="&#x129;" horiz-adv-x="278" 
d="M247 0q-102 3 -103 3l-111 -3l5 31q53 0 66.5 6.5t19.5 38.5l45 269q6 37 -5 46t-60 9l5 31l142 11l-61 -367q-5 -30 4 -37t58 -7zM430 748q-39 -36 -52.5 -47t-32 -21t-36.5 -10q-23 0 -58 23q-40 25 -61 25q-20 0 -42.5 -12t-35.5 -24l-12 -12l-14 15q39 36 52.5 47
t32 21t36.5 10q23 0 58 -23q40 -25 61 -25q20 0 42.5 12t35.5 24l12 12z" />
    <glyph glyph-name="Imacron" unicode="&#x12a;" horiz-adv-x="361" 
d="M333 0q-34 3 -152 3q-117 0 -153 -3l5 31h26q56 0 70.5 9t19.5 38l134 805q5 29 -6.5 38t-67.5 9h-26l5 31q35 -3 152 -3q118 0 153 3l-5 -31h-26q-56 0 -70.5 -9t-19.5 -38l-134 -805q-5 -29 6.5 -38t67.5 -9h26zM533 1034h-361l5 32h361z" />
    <glyph glyph-name="imacron" unicode="&#x12b;" horiz-adv-x="278" 
d="M247 0q-102 3 -103 3l-111 -3l5 31q53 0 66.5 6.5t19.5 38.5l45 269q6 37 -5 46t-60 9l5 31l142 11l-61 -367q-5 -30 4 -37t58 -7zM436 700h-361l5 32h361z" />
    <glyph glyph-name="Ibreve" unicode="&#x12c;" horiz-adv-x="361" 
d="M333 0q-34 3 -152 3q-117 0 -153 -3l5 31h26q56 0 70.5 9t19.5 38l134 805q5 29 -6.5 38t-67.5 9h-26l5 31q35 -3 152 -3q118 0 153 3l-5 -31h-26q-56 0 -70.5 -9t-19.5 -38l-134 -805q-5 -29 6.5 -38t67.5 -9h26zM534 1220q-17 -104 -69 -150t-114 -46q-64 0 -99 48
t-18 148h22q-14 -87 17.5 -124t84.5 -37q52 0 96 37.5t58 123.5h22z" />
    <glyph glyph-name="ibreve" unicode="&#x12d;" horiz-adv-x="278" 
d="M247 0q-102 3 -103 3l-111 -3l5 31q53 0 66.5 6.5t19.5 38.5l45 269q6 37 -5 46t-60 9l5 31l142 11l-61 -367q-5 -30 4 -37t58 -7zM431 858q-6 -34 -13 -64.5t-23.5 -73t-36.5 -73t-52.5 -52t-71.5 -21.5q-38 0 -63 21.5t-35.5 51.5t-12.5 72t0.5 73.5t8.5 65.5h22
q-40 -246 87 -246q43 0 75.5 28t51 74t27 78t14.5 66h22z" />
    <glyph glyph-name="Iogonek" unicode="&#x12e;" horiz-adv-x="361" 
d="M314 -115q-19 -42 -57.5 -69t-76.5 -27q-47 0 -74.5 27.5t-21.5 62.5q10 65 103 124h-6q-117 0 -153 -3l5 31h26q56 0 70.5 9t19.5 38l134 805q5 29 -6.5 38t-67.5 9h-26l5 31q35 -3 153 -3q117 0 152 3l-5 -31h-26q-56 0 -70.5 -9t-19.5 -38l-134 -805q-5 -29 6.5 -38
t67.5 -9h26l-5 -31q-35 3 -101 3q-35 -17 -64 -44q-28 -26 -32 -54q-6 -32 19.5 -50.5t56.5 -18.5q50 0 86 56q5 8 12.5 5t3.5 -12z" />
    <glyph glyph-name="iogonek" unicode="&#x12f;" horiz-adv-x="278" 
d="M284 616q-4 -23 -22 -38t-40 -15q-23 0 -35.5 16t-8.5 37q3 20 21.5 36.5t40.5 16.5t35 -15t9 -38zM234 -115q-19 -42 -57.5 -69t-76.5 -27q-47 0 -74.5 27.5t-21.5 62.5q10 63 101 123l-72 -2l5 31q53 0 66.5 6.5t19.5 38.5l45 269q6 37 -5 46t-60 9l5 31l142 11
l-61 -367q-5 -30 4 -37t58 -7l-5 -31l-94 3q-35 -17 -64 -44t-33 -54q-6 -32 19.5 -50.5t56.5 -18.5q50 0 86 56q5 8 12.5 5t3.5 -12z" />
    <glyph glyph-name="Idotaccent" unicode="&#x130;" horiz-adv-x="361" 
d="M333 0q-34 3 -152 3q-117 0 -153 -3l5 31h26q56 0 70.5 9t19.5 38l134 805q5 29 -6.5 38t-67.5 9h-26l5 31q35 -3 152 -3q118 0 153 3l-5 -31h-26q-56 0 -70.5 -9t-19.5 -38l-134 -805q-5 -29 6.5 -38t67.5 -9h26zM415 1089q-3 -20 -20.5 -36.5t-41.5 -16.5q-22 0 -35 16
t-10 37q4 20 21.5 36.5t41.5 16.5q22 0 35 -16t9 -37z" />
    <glyph glyph-name="dotlessi" unicode="&#x131;" horiz-adv-x="278" 
d="M247 0q-102 3 -103 3l-111 -3l5 31q53 0 66.5 6.5t19.5 38.5l45 269q6 37 -5 46t-60 9l5 31l142 11l-61 -367q-5 -30 4 -37t58 -7z" />
    <glyph glyph-name="Jcircumflex" unicode="&#x134;" horiz-adv-x="514" 
d="M620 930q-41 0 -57 -3.5t-22 -18.5q-3 -6 -9 -47l-104 -624q-9 -49 -10 -53q-22 -92 -87 -149t-134 -57q-70 0 -105.5 55t-24.5 124q5 32 25.5 45.5t40.5 13.5q24 0 37.5 -15t9.5 -41t-23.5 -41t-42.5 -15q-6 0 -16 2q4 -47 32 -76.5t69 -29.5q45 0 84 61t52 139l114 682
q4 17 1 28t-23 15.5t-68 4.5h-36l5 31q38 -3 168 -3l129 3zM654 1029l-24 -15l-123 129l-166 -129l-20 15l197 181z" />
    <glyph glyph-name="jcircumflex" unicode="&#x135;" horiz-adv-x="306" 
d="M202 -50q-12 -67 -59 -111t-104 -44q-46 0 -76 21.5t-24 58.5q3 20 18 33t36 13t31 -13t7 -33q-3 -18 -15.5 -29.5t-26.5 -15.5q23 -13 51 -13q23 0 41 13.5t28.5 35.5t16.5 42t9 40l66 396q7 37 -6 46.5t-70 9.5l5 31l154 11zM410 583l-24 -15l-99 213l-170 -213l-20 15
l204 281z" />
    <glyph glyph-name="Kcommaaccent" unicode="&#x136;" horiz-adv-x="778" 
d="M736 0l-111 3q-104 0 -141 -3l5 31q69 0 75 36v7q0 11 -4 23l-131 421l-144 -159l-47 -281q-5 -29 6 -38t65 -9h24l-5 -31q-34 3 -147 3q-112 0 -148 -3l5 31h24q54 0 68 9t19 38l134 805q5 29 -6 38t-65 9h-24l5 31q35 -3 148 -3q112 0 147 3l-5 -31h-24q-54 0 -68 -9
t-19 -38l-80 -482l418 460q11 13 14 24q2 15 -11.5 29.5t-46.5 15.5l5 31q34 -3 126 -3q58 0 85 3l-5 -31q-78 -4 -131 -63l-250 -276l157 -505q12 -37 29 -46t59 -9zM410 -139q-8 -47 -34 -90t-48 -64t-29 -21q-10 0 -8 10q1 4 8 10q76 68 91 155v13q-20 -14 -38 -14
q-23 0 -33 14t-7 34q2 18 17.5 32.5t37.5 14.5q27 0 38.5 -25.5t4.5 -68.5z" />
    <glyph glyph-name="kcommaaccent" unicode="&#x137;" horiz-adv-x="528" 
d="M511 0q-43 3 -86 3l-109 -3l5 31q36 0 40 23q3 16 -70 145q-12 23 -19 35l-73 -55l-17 -103q-6 -32 5.5 -38.5t64.5 -6.5l-5 -31l-109 3l-110 -3l5 31q53 0 66.5 6.5t19.5 38.5l133 798q6 37 -5.5 46.5t-63.5 9.5l5 31l146 11l-126 -758l161 122q25 20 29 39q4 23 -25 25
l5 31q42 -3 111 -3q41 0 71 3l-5 -31q-64 -3 -135 -54q-13 -9 -53 -39t-40 -33q-1 -2 4 -11l97 -179q14 -25 28.5 -37t25.5 -14t34 -2zM285 -139q-8 -47 -34 -90t-48 -64t-29 -21q-10 0 -8 10q1 4 8 10q76 68 91 155v13q-20 -14 -38 -14q-23 0 -33 14t-7 34q2 18 17.5 32.5
t37.5 14.5q27 0 38.5 -25.5t4.5 -68.5z" />
    <glyph glyph-name="Lacute" unicode="&#x139;" horiz-adv-x="625" 
d="M625 258l-71 -258h-521l5 31h24q54 0 68 9t19 38l134 805q5 29 -6 38t-65 9h-24l5 31q35 -3 152 -3q132 0 168 3l-5 -31h-33q-46 0 -68 -6t-26.5 -13.5t-8.5 -28.5l-135 -811q-5 -26 1.5 -33t40.5 -7h82q37 0 67.5 8t52 18.5t40 31t29 36.5t21.5 44t16 44t13 45h25z
M568 1168q-5 -7 -26 -18l-272 -126l-8 22l254 162q22 12 31 12q20 0 27 -17.5t-6 -34.5z" />
    <glyph glyph-name="lacute" unicode="&#x13a;" horiz-adv-x="278" 
d="M255 0l-110 3l-112 -3l5 31q53 0 66.5 6.5t19.5 38.5l133 798q6 37 -5.5 46.5t-63.5 9.5l5 31l146 11l-149 -896q-6 -32 5.5 -38.5t64.5 -6.5zM524 1179q-5 -7 -26 -18l-272 -126l-8 22l254 162q22 12 31 12q20 0 27 -17.5t-6 -34.5z" />
    <glyph glyph-name="Lcommaaccent" unicode="&#x13b;" horiz-adv-x="625" 
d="M625 258l-71 -258h-521l5 31h24q54 0 68 9t19 38l134 805q5 29 -6 38t-65 9h-24l5 31q35 -3 152 -3q132 0 168 3l-5 -31h-33q-46 0 -68 -6t-26.5 -13.5t-8.5 -28.5l-135 -811q-5 -26 1.5 -33t40.5 -7h82q37 0 67.5 8t52 18.5t40 31t29 36.5t21.5 44t16 44t13 45h25z
M334 -139q-8 -47 -34 -90t-48 -64t-29 -21q-10 0 -8 10q1 4 8 10q76 68 91 155v13q-20 -14 -38 -14q-23 0 -33 14t-7 34q2 18 17.5 32.5t37.5 14.5q27 0 38.5 -25.5t4.5 -68.5z" />
    <glyph glyph-name="lcommaaccent" unicode="&#x13c;" horiz-adv-x="278" 
d="M255 0l-110 3l-112 -3l5 31q53 0 66.5 6.5t19.5 38.5l133 798q6 37 -5.5 46.5t-63.5 9.5l5 31l146 11l-149 -896q-6 -32 5.5 -38.5t64.5 -6.5zM160 -139q-8 -47 -34 -90t-48 -64t-29 -21q-10 0 -8 10q1 4 8 10q76 68 91 155v13q-20 -14 -38 -14q-23 0 -33 14t-7 34
q2 18 17.5 32.5t37.5 14.5q27 0 38.5 -25.5t4.5 -68.5z" />
    <glyph glyph-name="Lcaron" unicode="&#x13d;" horiz-adv-x="625" 
d="M625 258l-71 -258h-521l5 31h24q54 0 68 9t19 38l134 805q5 29 -6 38t-65 9h-24l5 31q35 -3 152 -3q132 0 168 3l-5 -31h-33q-46 0 -68 -6t-26.5 -13.5t-8.5 -28.5l-135 -811q-5 -26 1.5 -33t40.5 -7h82q37 0 67.5 8t52 18.5t40 31t29 36.5t21.5 44t16 44t13 45h25z
M660 867q-8 -47 -34 -90t-48.5 -64t-29.5 -21q-9 0 -7 10q1 4 8 10q76 68 91 155v13q-20 -14 -39 -14q-23 0 -33 14t-7 34q3 19 18.5 33t37.5 14q27 0 38.5 -25.5t4.5 -68.5z" />
    <glyph glyph-name="lcaron" unicode="&#x13e;" horiz-adv-x="278" 
d="M255 0l-110 3l-112 -3l5 31q53 0 66.5 6.5t19.5 38.5l133 798q6 37 -5.5 46.5t-63.5 9.5l5 31l146 11l-149 -896q-6 -32 5.5 -38.5t64.5 -6.5zM466 878q-8 -47 -33.5 -90t-48 -64t-29.5 -21q-9 0 -7 10q1 4 8 10q77 68 90 155l1 13q-20 -14 -39 -14q-23 0 -33 14.5
t-7 33.5t18.5 33t37.5 14q27 0 38.5 -25.5t3.5 -68.5z" />
    <glyph glyph-name="Ldot" unicode="&#x13f;" horiz-adv-x="625" 
d="M625 258l-71 -258h-521l5 31h24q54 0 68 9t19 38l134 805q5 29 -6 38t-65 9h-24l5 31q35 -3 152 -3q132 0 168 3l-5 -31h-33q-46 0 -68 -6t-26.5 -13.5t-8.5 -28.5l-135 -811q-5 -26 1.5 -33t40.5 -7h82q37 0 67.5 8t52 18.5t40 31t29 36.5t21.5 44t16 44t13 45h25z
M640 562q-3 -20 -21 -36.5t-42 -16.5q-22 0 -35 16t-9 37q3 20 21 36.5t42 16.5q22 0 34.5 -16t9.5 -37z" />
    <glyph glyph-name="ldot" unicode="&#x140;" horiz-adv-x="278" 
d="M255 0l-110 3l-112 -3l5 31q53 0 66.5 6.5t19.5 38.5l133 798q6 37 -5.5 46.5t-63.5 9.5l5 31l146 11l-149 -896q-6 -32 5.5 -38.5t64.5 -6.5zM421 508q-3 -20 -21 -36.5t-42 -16.5q-22 0 -35 16t-9 37q3 20 21 36.5t42 16.5q22 0 34.5 -16t9.5 -37z" />
    <glyph glyph-name="Lslash" unicode="&#x141;" horiz-adv-x="625" 
d="M635 258l-71 -258h-521l5 31h24q54 0 68 9t19 38l54 321l-76 -54l-18 25l101 71l73 442q5 29 -6 38t-65 9h-24l5 31q35 -3 152 -3q132 0 168 3l-5 -31h-33q-46 0 -68 -6t-26.5 -13.5t-8.5 -28.5l-62 -371l180 126l16 -26l-203 -142l-66 -398q-5 -26 1.5 -33t40.5 -7h82
q37 0 67.5 8t52 18.5t40 31t29 36.5t21.5 44t16 44t13 45h25z" />
    <glyph glyph-name="lslash" unicode="&#x142;" horiz-adv-x="336" 
d="M417 565l-123 -81l-68 -408q-6 -32 5.5 -38.5t64.5 -6.5l-5 -31l-110 3l-112 -3l5 31q53 0 66.5 6.5t19.5 38.5l60 364l-103 -68l-13 20l122 80l67 402q6 37 -5.5 46.5t-63.5 9.5l5 31l146 11l-76 -456l106 70z" />
    <glyph glyph-name="Nacute" unicode="&#x143;" horiz-adv-x="750" 
d="M871 930q-36 0 -60 -7t-35 -20.5t-14.5 -23t-5.5 -23.5l-139 -830q-2 -11 -3 -15.5t-4.5 -7.5t-10.5 -3t-9 2.5t-5 12.5l-272 872h-1l-130 -782q-4 -10 -2.5 -23t7 -24t27.5 -19t58 -8l-5 -31l-116 3l-118 -3l5 31q36 0 60 7t35 20.5t14.5 22.5t6.5 24l136 817
q-24 8 -74 8h-28l5 31h165q15 0 18.5 -2t7.5 -13l233 -749h1l110 659q4 10 2 23t-7.5 24t-27.5 19t-58 8l5 31l117 -3l117 3zM758 1168q-5 -7 -26 -18l-272 -126l-8 22l254 162q22 12 31 12q20 0 27 -17.5t-6 -34.5z" />
    <glyph glyph-name="nacute" unicode="&#x144;" horiz-adv-x="556" 
d="M535 0l-111 3l-114 -3l5 31q53 0 66.5 6.5t19.5 38.5l39 233q18 111 -56 111q-52 0 -100.5 -43.5t-61.5 -116.5l-30 -184q-6 -32 5.5 -38.5t64.5 -6.5l-5 -31l-111 3l-114 -3l5 31q53 0 66.5 6.5t19.5 38.5l44 268q7 37 -4.5 46.5t-63.5 9.5l5 31l143 11l-17 -103h1
q64 103 164 103q73 0 99 -37q12 -18 15 -39.5t1 -41t-11 -72.5l-32 -191q-3 -21 12.5 -25.5t60.5 -4.5zM540 830q-1 -10 -15 -27l-193 -235l-19 13l158 254q7 11 10 15t11 9t18 5q13 0 23 -10t7 -24z" />
    <glyph glyph-name="Ncommaaccent" unicode="&#x145;" horiz-adv-x="750" 
d="M871 930q-36 0 -60 -7t-35 -20.5t-14.5 -23t-5.5 -23.5l-139 -830q-2 -11 -3 -15.5t-4.5 -7.5t-10.5 -3t-9 2.5t-5 12.5l-272 872h-1l-130 -782q-4 -10 -2.5 -23t7 -24t27.5 -19t58 -8l-5 -31l-116 3l-118 -3l5 31q36 0 60 7t35 20.5t14.5 22.5t6.5 24l136 817
q-24 8 -74 8h-28l5 31h165q15 0 18.5 -2t7.5 -13l233 -749h1l110 659q4 10 2 23t-7.5 24t-27.5 19t-58 8l5 31l117 -3l117 3zM396 -139q-8 -47 -34 -90t-48 -64t-29 -21q-10 0 -8 10q1 4 8 10q76 68 91 155v13q-20 -14 -38 -14q-23 0 -33 14t-7 34q2 18 17.5 32.5t37.5 14.5
q27 0 38.5 -25.5t4.5 -68.5z" />
    <glyph glyph-name="ncommaaccent" unicode="&#x146;" horiz-adv-x="556" 
d="M535 0l-111 3l-114 -3l5 31q53 0 66.5 6.5t19.5 38.5l39 233q18 111 -56 111q-52 0 -100.5 -43.5t-61.5 -116.5l-30 -184q-6 -32 5.5 -38.5t64.5 -6.5l-5 -31l-111 3l-114 -3l5 31q53 0 66.5 6.5t19.5 38.5l44 268q7 37 -4.5 46.5t-63.5 9.5l5 31l143 11l-17 -103h1
q64 103 164 103q73 0 99 -37q12 -18 15 -39.5t1 -41t-11 -72.5l-32 -191q-3 -21 12.5 -25.5t60.5 -4.5zM299 -139q-8 -47 -34 -90t-48 -64t-29 -21q-10 0 -8 10q1 4 8 10q76 68 91 155v13q-20 -14 -38 -14q-23 0 -33 14t-7 34q2 18 17.5 32.5t37.5 14.5q27 0 38.5 -25.5
t4.5 -68.5z" />
    <glyph glyph-name="Ncaron" unicode="&#x147;" horiz-adv-x="750" 
d="M871 930q-36 0 -60 -7t-35 -20.5t-14.5 -23t-5.5 -23.5l-139 -830q-2 -11 -3 -15.5t-4.5 -7.5t-10.5 -3t-9 2.5t-5 12.5l-272 872h-1l-130 -782q-4 -10 -2.5 -23t7 -24t27.5 -19t58 -8l-5 -31l-116 3l-118 -3l5 31q36 0 60 7t35 20.5t14.5 22.5t6.5 24l136 817
q-24 8 -74 8h-28l5 31h165q15 0 18.5 -2t7.5 -13l233 -749h1l110 659q4 10 2 23t-7.5 24t-27.5 19t-58 8l5 31l117 -3l117 3zM740 1195l-197 -181l-136 181l24 15l123 -129l166 129z" />
    <glyph glyph-name="ncaron" unicode="&#x148;" horiz-adv-x="556" 
d="M535 0l-111 3l-114 -3l5 31q53 0 66.5 6.5t19.5 38.5l39 233q18 111 -56 111q-52 0 -100.5 -43.5t-61.5 -116.5l-30 -184q-6 -32 5.5 -38.5t64.5 -6.5l-5 -31l-111 3l-114 -3l5 31q53 0 66.5 6.5t19.5 38.5l44 268q7 37 -4.5 46.5t-63.5 9.5l5 31l143 11l-17 -103h1
q64 103 164 103q73 0 99 -37q12 -18 15 -39.5t1 -41t-11 -72.5l-32 -191q-3 -21 12.5 -25.5t60.5 -4.5zM576 849l-204 -281l-109 281l24 15l99 -213l170 213z" />
    <glyph glyph-name="Eng" unicode="&#x14a;" horiz-adv-x="792" 
d="M772 223q-7 -46 -20 -82q-28 -68 -85.5 -115t-126.5 -47q-66 0 -101.5 53.5t-25.5 119.5q11 64 67 64q25 0 37.5 -16t8.5 -39t-22.5 -39t-41.5 -16q-6 0 -18 2q24 -107 100 -107q33 0 68 39q50 58 72 186l68 409q11 49 6 105.5t-20 104.5t-55 80t-98 32q-73 0 -138 -51
q-31 -25 -59 -59t-31 -58l-120 -718q-4 -24 12.5 -32t48.5 -8q6 0 18 0.5t17 0.5l-5 -31h-295l5 31q5 0 17.5 -0.5t19.5 -0.5q66 0 73 40l137 821q4 24 -14 31.5t-51 7.5h-32l5 31h193l-17 -103q35 56 107 93t138 37q40 0 79 -14q65 -23 103.5 -80.5t45.5 -125.5t-3 -143z
" />
    <glyph glyph-name="eng" unicode="&#x14b;" horiz-adv-x="556" 
d="M460 25q-38 -229 -169 -229q-39 0 -67.5 20.5t-22.5 57.5q3 19 17.5 33.5t34.5 14.5q22 0 32.5 -13t7.5 -33q-5 -30 -44 -46q28 -12 47 -12q20 0 35 13.5t24.5 39.5t15 46.5t10.5 51.5l58 351q16 100 -55 100q-59 0 -101.5 -44.5t-56.5 -99.5l-34 -204q-4 -24 9 -32
t39 -8h23l-5 -31h-226l5 31h6q27 0 40 1.5t24.5 11t14.5 29.5l46 276q5 32 -9 41t-45 9h-15l5 31l144 11l-16 -102q22 44 68.5 73t92.5 29q86 0 109 -52q14 -34 3 -96z" />
    <glyph glyph-name="Omacron" unicode="&#x14c;" horiz-adv-x="778" 
d="M801 478q-36 -213 -159 -356.5t-258 -143.5q-133 0 -208.5 142.5t-39.5 357.5q23 142 89 259t153 181.5t175 64.5q86 0 151 -63.5t93 -181t4 -260.5zM701 497q19 131 14 219t-33 142t-61.5 77t-72.5 23q-38 0 -79.5 -24t-86 -74t-82 -144.5t-58.5 -218.5q-40 -243 8 -368
t140 -125q42 0 86 28.5t87.5 85.5t80 155t57.5 224zM741 1034h-361l5 32h361z" />
    <glyph glyph-name="omacron" unicode="&#x14d;" 
d="M507 214q-16 -94 -92 -159.5t-168 -65.5q-89 0 -144 65t-39 160t92 164.5t169 69.5q91 0 144.5 -69t37.5 -165zM425 222q15 97 -3 139q-29 65 -102 65q-32 0 -66 -17t-59 -50q-30 -43 -47 -137q-16 -97 2 -141q28 -67 102 -67q37 0 71.5 20t57.5 54q29 44 44 134z
M547 700h-361l5 32h361z" />
    <glyph glyph-name="Obreve" unicode="&#x14e;" horiz-adv-x="778" 
d="M801 478q-36 -213 -159 -356.5t-258 -143.5q-133 0 -208.5 142.5t-39.5 357.5q23 142 89 259t153 181.5t175 64.5q86 0 151 -63.5t93 -181t4 -260.5zM701 497q19 131 14 219t-33 142t-61.5 77t-72.5 23q-38 0 -79.5 -24t-86 -74t-82 -144.5t-58.5 -218.5q-40 -243 8 -368
t140 -125q42 0 86 28.5t87.5 85.5t80 155t57.5 224zM742 1220q-17 -104 -69 -150t-114 -46q-64 0 -99 48t-18 148h22q-14 -87 17.5 -124t84.5 -37q52 0 96 37.5t58 123.5h22z" />
    <glyph glyph-name="obreve" unicode="&#x14f;" 
d="M507 214q-16 -94 -92 -159.5t-168 -65.5q-89 0 -144 65t-39 160t92 164.5t169 69.5q91 0 144.5 -69t37.5 -165zM425 222q15 97 -3 139q-29 65 -102 65q-32 0 -66 -17t-59 -50q-30 -43 -47 -137q-16 -97 2 -141q28 -67 102 -67q37 0 71.5 20t57.5 54q29 44 44 134z
M542 858q-6 -34 -13 -64.5t-23.5 -73t-36.5 -73t-52.5 -52t-71.5 -21.5q-38 0 -63 21.5t-35.5 51.5t-12.5 72t0.5 73.5t8.5 65.5h22q-40 -246 87 -246q43 0 75.5 28t51 74t27 78t14.5 66h22z" />
    <glyph glyph-name="Ohungarumlaut" unicode="&#x150;" horiz-adv-x="778" 
d="M801 478q-36 -213 -159 -356.5t-258 -143.5q-133 0 -208.5 142.5t-39.5 357.5q23 142 89 259t153 181.5t175 64.5q86 0 151 -63.5t93 -181t4 -260.5zM701 497q19 131 14 219t-33 142t-61.5 77t-72.5 23q-38 0 -79.5 -24t-86 -74t-82 -144.5t-58.5 -218.5q-40 -243 8 -368
t140 -125q42 0 86 28.5t87.5 85.5t80 155t57.5 224zM848 1168q-5 -7 -26 -18l-272 -126l-8 22l254 162q29 18 45 8q10 -6 13 -20t-6 -28zM688 1168q-5 -7 -26 -18l-272 -126l-8 22l254 162q29 18 45 8q10 -6 13 -20t-6 -28z" />
    <glyph glyph-name="ohungarumlaut" unicode="&#x151;" 
d="M507 214q-16 -94 -92 -159.5t-168 -65.5q-89 0 -144 65t-39 160t92 164.5t169 69.5q91 0 144.5 -69t37.5 -165zM425 222q15 97 -3 139q-29 65 -102 65q-32 0 -66 -17t-59 -50q-30 -43 -47 -137q-16 -97 2 -141q28 -67 102 -67q37 0 71.5 20t57.5 54q29 44 44 134z
M608 830q-1 -10 -15 -27l-193 -235l-19 13l158 254q7 11 10 15t11 9t18 5q13 0 23 -10t7 -24zM448 830q-1 -10 -15 -27l-193 -235l-19 13l158 254q7 11 10 15t11 9t18 5q13 0 23 -10t7 -24z" />
    <glyph glyph-name="OE" unicode="&#x152;" horiz-adv-x="1014" 
d="M1028 258l-85 -258h-387q-32 0 -83 -12q-46 -10 -75 -10q-133 0 -208.5 142.5t-39.5 357.5q36 216 159.5 360.5t256.5 144.5q26 0 66 -10q53 -12 84 -12h373l-9 -225h-25q3 57 -0.5 88.5t-18 58t-46 37t-84.5 10.5h-112q-34 0 -42.5 -7t-13.5 -33l-62 -375h108
q72 0 97 24.5t36 92.5h25l-44 -265h-25q12 68 -5 92.5t-89 24.5h-108l-69 -413q-5 -26 1.5 -33t40.5 -7h110q42 0 74 5.5t56 21t39.5 30t31 46.5t24 55t24.5 69h25zM594 481q47 282 50 326l3 43.5t-1.5 39.5t-11 37.5t-26.5 23t-46 10.5q-95 0 -185.5 -132.5t-123.5 -330.5
q-20 -138 -10.5 -249t52.5 -180t107 -69q25 0 44.5 6.5t33.5 22.5t23.5 30t17.5 40.5t12 43t11 48.5z" />
    <glyph glyph-name="oe" unicode="&#x153;" horiz-adv-x="778" 
d="M769 119q-1 -9 -13.5 -28.5t-33.5 -43t-56 -41t-74 -17.5q-50 0 -93.5 26t-65.5 78q-35 -45 -86 -74.5t-108 -29.5q-87 0 -138.5 66.5t-35.5 163.5q16 96 90 162.5t161 66.5q55 0 96 -28t62 -73q37 49 85.5 75t97.5 26q79 0 114 -55t20 -141q-2 -15 -6.5 -18t-21.5 -3
h-273q-6 -35 -6 -64.5t4 -50.5t12 -37.5t17 -27t21 -18.5t21 -11.5t19 -5.5t14 -2h8q44 0 82.5 28.5t57.5 68.5q4 9 6 12.5t4.5 5.5t7.5 2q13 0 11 -12zM725 252q22 174 -73 174q-16 0 -35.5 -7t-43.5 -24.5t-45.5 -54.5t-33.5 -88h231zM419 223q4 37 5.5 65t-5.5 49
t-14.5 36t-19.5 25t-21.5 15.5t-21.5 8.5t-18 3.5t-11 0.5q-12 0 -25 -2t-36.5 -14t-43 -32t-38.5 -60.5t-28 -94.5q-6 -51 -6 -86.5t12.5 -59t23.5 -37t28 -20t26.5 -8t17.5 -1.5q17 0 37.5 7t49 26.5t53 65.5t35.5 113z" />
    <glyph glyph-name="Racute" unicode="&#x154;" horiz-adv-x="736" 
d="M752 119q-1 -9 -6 -26.5t-17.5 -46t-37.5 -48.5t-57 -20q-44 0 -75 18t-45 44t-17.5 52.5t-0.5 54t14 94.5q8 44 10.5 67t0.5 52.5t-12 51.5q-12 26 -30.5 39.5t-31 16t-30.5 2.5h-115l-65 -392q-5 -29 6 -38t65 -9h24l-5 -31q-35 3 -145 3t-147 -3l5 31h24q54 0 68 9
t19 38l134 805q5 29 -6 38t-65 9h-24l5 31h310q113 0 177 -74t47 -176q-13 -78 -75.5 -143t-153.5 -89q114 -51 108 -189l-5 -107q-7 -103 0 -138q6 -45 39 -45q25 0 44.5 23.5t27.5 46.5t13 47q3 22 15 22q14 0 10 -20zM626 711q18 117 -14 163q-19 26 -48 39t-49.5 15
t-57.5 2q-46 0 -56 -2q-16 -2 -20.5 -10t-8.5 -28l-66 -398h106q91 0 151 63q45 48 63 156zM751 1168q-5 -7 -26 -18l-272 -126l-8 22l254 162q22 12 31 12q20 0 27 -17.5t-6 -34.5z" />
    <glyph glyph-name="racute" unicode="&#x155;" horiz-adv-x="392" 
d="M428 381q-4 -22 -19.5 -33t-31.5 -11q-18 0 -28.5 11.5t-7.5 31.5q2 12 9.5 21.5t12.5 13t8 4.5q-2 1 -11 1q-55 0 -95.5 -55t-53.5 -133l-26 -154q-5 -29 5.5 -38t62.5 -9h21l-5 -31q-39 3 -126 3l-115 -3l5 31q53 0 66.5 6.5t19.5 38.5l44 268q7 37 -4.5 46.5
t-63.5 9.5l5 31l141 11l-18 -107h1q20 41 56 74t84 33q32 0 50 -18t14 -43zM458 830q-1 -10 -15 -27l-193 -235l-19 13l158 254q7 11 10 15t11 9t18 5q13 0 23 -10t7 -24z" />
    <glyph glyph-name="Rcommaaccent" unicode="&#x156;" horiz-adv-x="736" 
d="M752 119q-1 -9 -6 -26.5t-17.5 -46t-37.5 -48.5t-57 -20q-44 0 -75 18t-45 44t-17.5 52.5t-0.5 54t14 94.5q8 44 10.5 67t0.5 52.5t-12 51.5q-12 26 -30.5 39.5t-31 16t-30.5 2.5h-115l-65 -392q-5 -29 6 -38t65 -9h24l-5 -31q-35 3 -145 3t-147 -3l5 31h24q54 0 68 9
t19 38l134 805q5 29 -6 38t-65 9h-24l5 31h310q113 0 177 -74t47 -176q-13 -78 -75.5 -143t-153.5 -89q114 -51 108 -189l-5 -107q-7 -103 0 -138q6 -45 39 -45q25 0 44.5 23.5t27.5 46.5t13 47q3 22 15 22q14 0 10 -20zM626 711q18 117 -14 163q-19 26 -48 39t-49.5 15
t-57.5 2q-46 0 -56 -2q-16 -2 -20.5 -10t-8.5 -28l-66 -398h106q91 0 151 63q45 48 63 156zM389 -139q-8 -47 -34 -90t-48 -64t-29 -21q-10 0 -8 10q1 4 8 10q76 68 91 155v13q-20 -14 -38 -14q-23 0 -33 14t-7 34q2 18 17.5 32.5t37.5 14.5q27 0 38.5 -25.5t4.5 -68.5z" />
    <glyph glyph-name="rcommaaccent" unicode="&#x157;" horiz-adv-x="392" 
d="M428 381q-4 -22 -19.5 -33t-31.5 -11q-18 0 -28.5 11.5t-7.5 31.5q2 12 9.5 21.5t12.5 13t8 4.5q-2 1 -11 1q-55 0 -95.5 -55t-53.5 -133l-26 -154q-5 -29 5.5 -38t62.5 -9h21l-5 -31q-39 3 -126 3l-115 -3l5 31q53 0 66.5 6.5t19.5 38.5l44 268q7 37 -4.5 46.5
t-63.5 9.5l5 31l141 11l-18 -107h1q20 41 56 74t84 33q32 0 50 -18t14 -43zM160 -139q-8 -47 -34 -90t-48 -64t-29 -21q-10 0 -8 10q1 4 8 10q76 68 91 155v13q-20 -14 -38 -14q-23 0 -33 14t-7 34q2 18 17.5 32.5t37.5 14.5q27 0 38.5 -25.5t4.5 -68.5z" />
    <glyph glyph-name="Rcaron" unicode="&#x158;" horiz-adv-x="736" 
d="M752 119q-1 -9 -6 -26.5t-17.5 -46t-37.5 -48.5t-57 -20q-44 0 -75 18t-45 44t-17.5 52.5t-0.5 54t14 94.5q8 44 10.5 67t0.5 52.5t-12 51.5q-12 26 -30.5 39.5t-31 16t-30.5 2.5h-115l-65 -392q-5 -29 6 -38t65 -9h24l-5 -31q-35 3 -145 3t-147 -3l5 31h24q54 0 68 9
t19 38l134 805q5 29 -6 38t-65 9h-24l5 31h310q113 0 177 -74t47 -176q-13 -78 -75.5 -143t-153.5 -89q114 -51 108 -189l-5 -107q-7 -103 0 -138q6 -45 39 -45q25 0 44.5 23.5t27.5 46.5t13 47q3 22 15 22q14 0 10 -20zM626 711q18 117 -14 163q-19 26 -48 39t-49.5 15
t-57.5 2q-46 0 -56 -2q-16 -2 -20.5 -10t-8.5 -28l-66 -398h106q91 0 151 63q45 48 63 156zM733 1195l-197 -181l-136 181l24 15l123 -129l166 129z" />
    <glyph glyph-name="rcaron" unicode="&#x159;" horiz-adv-x="392" 
d="M428 381q-4 -22 -19.5 -33t-31.5 -11q-18 0 -28.5 11.5t-7.5 31.5q2 12 9.5 21.5t12.5 13t8 4.5q-2 1 -11 1q-55 0 -95.5 -55t-53.5 -133l-26 -154q-5 -29 5.5 -38t62.5 -9h21l-5 -31q-39 3 -126 3l-115 -3l5 31q53 0 66.5 6.5t19.5 38.5l44 268q7 37 -4.5 46.5
t-63.5 9.5l5 31l141 11l-18 -107h1q20 41 56 74t84 33q32 0 50 -18t14 -43zM494 849l-204 -281l-109 281l24 15l99 -213l170 213z" />
    <glyph glyph-name="Sacute" unicode="&#x15a;" horiz-adv-x="556" 
d="M542 256q-20 -116 -90 -197t-154 -81q-117 0 -169 93q-20 -31 -34 -54l-14 -23q-9 -16 -18 -16q-8 0 -9 5.5t2 18.5l49 292q2 11 3 15t4.5 7t9.5 3q12 0 10 -11q-3 -21 -4 -32t-2 -47t3 -59.5t15 -57t30 -53.5t52 -35t77 -15q59 0 106.5 62.5t62.5 151.5q3 32 5.5 71
t-16 79.5t-57.5 55.5l-98 36q-28 10 -44.5 18t-38.5 29.5t-34 52.5q-27 71 -12 159q18 109 87.5 184t151.5 75q105 0 147 -89l44 74q10 15 18 15t9 -5.5t-2 -18.5l-49 -293q-2 -15 -5 -19.5t-12 -4.5q-8 0 -9.5 4.5t0.5 19.5q7 49 3.5 100.5t-15 93.5t-46 68.5t-87.5 26.5
q-58 0 -105 -57.5t-60 -137.5q-15 -82 11 -135q10 -19 22.5 -31.5t23 -17.5t32.5 -13l87 -31q83 -30 107 -99q28 -82 12 -177zM661 1168q-5 -7 -26 -18l-272 -126l-8 22l254 162q22 12 31 12q20 0 27 -17.5t-6 -34.5z" />
    <glyph glyph-name="sacute" unicode="&#x15b;" horiz-adv-x="394" 
d="M381 128q-10 -59 -56.5 -99t-127.5 -40q-65 0 -103 43l-23 -23q-24 -20 -29 -20q-8 0 -9 5.5t2 18.5l22 132q2 11 3 15t4.5 7t9.5 3q7 0 9 -3.5t3 -13.5q3 -69 29 -105.5t86 -36.5q56 0 89 25.5t39 65.5q12 74 -89 92q-58 12 -81 20t-43 26q-37 36 -29 85q9 50 53.5 86.5
t127.5 36.5q56 0 89 -28q10 6 20 16q15 12 22 12q8 0 9 -5.5t-2 -18.5l-17 -101q-2 -15 -5 -19.5t-12 -4.5q-11 0 -11 9q16 121 -96 121q-59 0 -89.5 -22.5t-35.5 -53.5q-3 -17 3 -30t15 -20.5t27.5 -14.5t30 -9.5t33.5 -7.5q78 -15 106 -48q35 -42 26 -95zM459 830
q-1 -10 -15 -27l-193 -235l-19 13l158 254q7 11 10 15t11 9t18 5q13 0 23 -10t7 -24z" />
    <glyph glyph-name="Scircumflex" unicode="&#x15c;" horiz-adv-x="556" 
d="M542 256q-20 -116 -90 -197t-154 -81q-117 0 -169 93q-20 -31 -34 -54l-14 -23q-9 -16 -18 -16q-8 0 -9 5.5t2 18.5l49 292q2 11 3 15t4.5 7t9.5 3q12 0 10 -11q-3 -21 -4 -32t-2 -47t3 -59.5t15 -57t30 -53.5t52 -35t77 -15q59 0 106.5 62.5t62.5 151.5q3 32 5.5 71
t-16 79.5t-57.5 55.5l-98 36q-28 10 -44.5 18t-38.5 29.5t-34 52.5q-27 71 -12 159q18 109 87.5 184t151.5 75q105 0 147 -89l44 74q10 15 18 15t9 -5.5t-2 -18.5l-49 -293q-2 -15 -5 -19.5t-12 -4.5q-8 0 -9.5 4.5t0.5 19.5q7 49 3.5 100.5t-15 93.5t-46 68.5t-87.5 26.5
q-58 0 -105 -57.5t-60 -137.5q-15 -82 11 -135q10 -19 22.5 -31.5t23 -17.5t32.5 -13l87 -31q83 -30 107 -99q28 -82 12 -177zM615 1029l-24 -15l-123 129l-166 -129l-20 15l197 181z" />
    <glyph glyph-name="scircumflex" unicode="&#x15d;" horiz-adv-x="394" 
d="M381 128q-10 -59 -56.5 -99t-127.5 -40q-65 0 -103 43l-23 -23q-24 -20 -29 -20q-8 0 -9 5.5t2 18.5l22 132q2 11 3 15t4.5 7t9.5 3q7 0 9 -3.5t3 -13.5q3 -69 29 -105.5t86 -36.5q56 0 89 25.5t39 65.5q12 74 -89 92q-58 12 -81 20t-43 26q-37 36 -29 85q9 50 53.5 86.5
t127.5 36.5q56 0 89 -28q10 6 20 16q15 12 22 12q8 0 9 -5.5t-2 -18.5l-17 -101q-2 -15 -5 -19.5t-12 -4.5q-11 0 -11 9q16 121 -96 121q-59 0 -89.5 -22.5t-35.5 -53.5q-3 -17 3 -30t15 -20.5t27.5 -14.5t30 -9.5t33.5 -7.5q78 -15 106 -48q35 -42 26 -95zM450 583l-24 -15
l-99 213l-170 -213l-20 15l204 281z" />
    <glyph glyph-name="Scedilla" unicode="&#x15e;" horiz-adv-x="556" 
d="M542 256q-17 -103 -76 -180.5t-133 -93.5l-5 -37q81 -13 71 -71q-9 -50 -85 -66q-49 -11 -120 -11h-44l4 22h31q136 0 145 55q4 24 -15.5 39t-58.5 16l9 51q-93 13 -136 91q-20 -31 -34 -54l-14 -23q-9 -16 -18 -16q-8 0 -9 5.5t2 18.5l49 292q2 11 3 15t4.5 7t9.5 3
q12 0 10 -11q-3 -21 -4 -32t-2 -47t3 -59.5t15 -57t30 -53.5t52 -35t77 -15q59 0 106.5 62.5t62.5 151.5q3 32 5.5 71t-16 79.5t-57.5 55.5l-98 36q-28 10 -44.5 18t-38.5 29.5t-34 52.5q-27 71 -12 159q18 109 87.5 184t151.5 75q105 0 147 -89l44 74q10 15 18 15t9 -5.5
t-2 -18.5l-49 -293q-2 -15 -5 -19.5t-12 -4.5q-8 0 -9.5 4.5t0.5 19.5q7 49 3.5 100.5t-15 93.5t-46 68.5t-87.5 26.5q-58 0 -105 -57.5t-60 -137.5q-15 -82 11 -135q10 -19 22.5 -31.5t23 -17.5t32.5 -13l87 -31q83 -30 107 -99q28 -82 12 -177z" />
    <glyph glyph-name="scedilla" unicode="&#x15f;" horiz-adv-x="394" 
d="M381 128q-8 -52 -46 -90.5t-104 -46.5l-6 -46q81 -13 71 -71q-9 -50 -85 -66q-49 -11 -120 -11h-44l4 22h31q136 0 145 55q4 24 -15.5 39t-58.5 16l11 63q-40 7 -70 40l-23 -23q-24 -20 -29 -20q-8 0 -9 5.5t2 18.5l22 132q2 11 3 15t4.5 7t9.5 3q7 0 9 -3.5t3 -13.5
q3 -69 29 -105.5t86 -36.5q56 0 89 25.5t39 65.5q12 74 -89 92q-58 12 -81 20t-43 26q-37 36 -29 85q9 50 53.5 86.5t127.5 36.5q56 0 89 -28q10 6 20 16q15 12 22 12q8 0 9 -5.5t-2 -18.5l-17 -101q-2 -15 -5 -19.5t-12 -4.5q-11 0 -11 9q16 121 -96 121q-59 0 -89.5 -22.5
t-35.5 -53.5q-3 -17 3 -30t15 -20.5t27.5 -14.5t30 -9.5t33.5 -7.5q78 -15 106 -48q35 -42 26 -95z" />
    <glyph glyph-name="Scaron" unicode="&#x160;" horiz-adv-x="556" 
d="M542 256q-20 -116 -90 -197t-154 -81q-117 0 -169 93q-20 -31 -34 -54l-14 -23q-9 -16 -18 -16q-8 0 -9 5.5t2 18.5l49 292q2 11 3 15t4.5 7t9.5 3q12 0 10 -11q-3 -21 -4 -32t-2 -47t3 -59.5t15 -57t30 -53.5t52 -35t77 -15q59 0 106.5 62.5t62.5 151.5q3 32 5.5 71
t-16 79.5t-57.5 55.5l-98 36q-28 10 -44.5 18t-38.5 29.5t-34 52.5q-27 71 -12 159q18 109 87.5 184t151.5 75q105 0 147 -89l44 74q10 15 18 15t9 -5.5t-2 -18.5l-49 -293q-2 -15 -5 -19.5t-12 -4.5q-8 0 -9.5 4.5t0.5 19.5q7 49 3.5 100.5t-15 93.5t-46 68.5t-87.5 26.5
q-58 0 -105 -57.5t-60 -137.5q-15 -82 11 -135q10 -19 22.5 -31.5t23 -17.5t32.5 -13l87 -31q83 -30 107 -99q28 -82 12 -177zM643 1195l-197 -181l-136 181l24 15l123 -129l166 129z" />
    <glyph glyph-name="scaron" unicode="&#x161;" horiz-adv-x="394" 
d="M381 128q-10 -59 -56.5 -99t-127.5 -40q-65 0 -103 43l-23 -23q-24 -20 -29 -20q-8 0 -9 5.5t2 18.5l22 132q2 11 3 15t4.5 7t9.5 3q7 0 9 -3.5t3 -13.5q3 -69 29 -105.5t86 -36.5q56 0 89 25.5t39 65.5q12 74 -89 92q-58 12 -81 20t-43 26q-37 36 -29 85q9 50 53.5 86.5
t127.5 36.5q56 0 89 -28q10 6 20 16q15 12 22 12q8 0 9 -5.5t-2 -18.5l-17 -101q-2 -15 -5 -19.5t-12 -4.5q-11 0 -11 9q16 121 -96 121q-59 0 -89.5 -22.5t-35.5 -53.5q-3 -17 3 -30t15 -20.5t27.5 -14.5t30 -9.5t33.5 -7.5q78 -15 106 -48q35 -42 26 -95zM495 849
l-204 -281l-109 281l24 15l99 -213l170 213z" />
    <glyph glyph-name="Tcedilla" unicode="&#x162;" horiz-adv-x="722" 
d="M807 730h-25q10 79 1 122t-40.5 57.5t-108.5 14.5q-46 0 -57 -2q-9 -2 -14 -8t-6.5 -11.5t-4.5 -18.5l-134 -805q-3 -17 -0.5 -27.5t24.5 -15.5t73 -5h40l-5 -31q-48 3 -155 3l-9 -58q81 -13 71 -71q-9 -50 -85 -66q-49 -11 -120 -11h-44l4 22h31q136 0 145 55
q4 24 -15.5 39t-58.5 16l12 74q-106 0 -155 -3l5 31h40q73 0 91 9.5t22 38.5l134 805q4 17 2 26t-16 12q-10 2 -54 2q-59 0 -91.5 -6.5t-56 -31t-35.5 -57t-29 -99.5h-25l56 225h611z" />
    <glyph glyph-name="tcedilla" unicode="&#x163;" horiz-adv-x="389" 
d="M353 124q-8 -50 -36 -89t-71 -45l-8 -45q82 -13 71 -71q-8 -50 -85 -66q-48 -11 -119 -11h-44l3 22h31q136 0 145 55q5 24 -14.5 39t-58.5 16l11 69q-69 29 -53 126l46 276h-85l3 22q67 3 107.5 60.5t54.5 132.5h25l-31 -184h143l-5 -31h-143l-47 -278q-13 -108 49 -108
q29 0 53 29.5t33 82.5l9 55h25z" />
    <glyph glyph-name="Tcaron" unicode="&#x164;" horiz-adv-x="722" 
d="M807 730h-25q10 79 1 122t-40.5 57.5t-108.5 14.5q-46 0 -57 -2q-9 -2 -14 -8t-6.5 -11.5t-4.5 -18.5l-134 -805q-3 -17 -0.5 -27.5t24.5 -15.5t73 -5h40l-5 -31q-40 3 -189 3q-148 0 -190 -3l5 31h40q73 0 91 9.5t22 38.5l134 805q4 17 2 26t-16 12q-10 2 -54 2
q-59 0 -91.5 -6.5t-56 -31t-35.5 -57t-29 -99.5h-25l56 225h611zM727 1195l-197 -181l-136 181l24 15l123 -129l166 129z" />
    <glyph glyph-name="tcaron" unicode="&#x165;" horiz-adv-x="389" 
d="M353 124q-9 -54 -41 -94.5t-81 -40.5q-11 0 -22 1.5t-26.5 6t-26 13.5t-21.5 24t-12 37t2 53l46 276h-85l3 22q67 3 107.5 60.5t54.5 132.5h25l-31 -184h143l-5 -31h-143l-47 -278q-13 -108 49 -108q29 0 53 29.5t33 82.5l9 55h25zM423 643q-8 -47 -33.5 -90t-48 -64
t-29.5 -21q-9 0 -7 10q0 3 7 10q78 69 91 155v13q-19 -14 -38 -14q-23 0 -33 14t-7 34q3 19 18.5 33t37.5 14q27 0 38.5 -25.5t3.5 -68.5z" />
    <glyph glyph-name="Utilde" unicode="&#x168;" horiz-adv-x="750" 
d="M871 930q-103 0 -114 -69l-85 -510q-14 -71 -15 -74q-33 -131 -110.5 -215t-162.5 -84q-68 0 -118.5 46t-71.5 123.5t-6 166.5l95 569q5 29 -6 38t-65 9h-24l5 31q35 -3 148 -3q112 0 147 3l-5 -31h-24q-54 0 -68 -9t-19 -38l-96 -579q-25 -150 13.5 -222.5t102.5 -72.5
q78 0 149.5 88t93.5 219l90 540q4 10 2 23t-7.5 24t-27.5 19t-58 8l5 31l119 -3l118 3zM772 1083q-23 -23 -35 -33t-34 -22t-44 -14h-9q-32 0 -88 19.5t-86 19.5q-43 0 -87 -39l-15 15q2 2 11 10.5t11 10.5t10 9t11.5 9.5t11 8t12.5 7.5t12.5 5.5t14 5t14.5 2.5t16 1
q31 0 86.5 -19.5t85.5 -19.5q15 0 28 4t20 8t21 13.5t20 13.5z" />
    <glyph glyph-name="utilde" unicode="&#x169;" horiz-adv-x="556" 
d="M535 0l-146 -11l15 88h-1q-56 -88 -143 -88q-44 0 -72.5 11t-41 25t-16 41t-1.5 43.5t7 48.5l25 150q12 67 4 79.5t-66 12.5l5 31l149 11l-56 -332q-3 -27 -3.5 -49t18 -36t57.5 -14q54 0 95 44t52 111l29 178q7 37 -4.5 46.5t-63.5 9.5l5 31l149 11l-59 -355
q-7 -37 4.5 -46.5t63.5 -9.5zM569 748q-39 -36 -52.5 -47t-32 -21t-36.5 -10q-24 0 -58 23q-40 25 -61 25q-20 0 -42.5 -12t-34.5 -24l-13 -12l-14 15q39 36 52.5 47t32 21t36.5 10q24 0 58 -23q40 -25 61 -25q20 0 42.5 12t34.5 24l13 12z" />
    <glyph glyph-name="Umacron" unicode="&#x16a;" horiz-adv-x="750" 
d="M871 930q-103 0 -114 -69l-85 -510q-14 -71 -15 -74q-33 -131 -110.5 -215t-162.5 -84q-68 0 -118.5 46t-71.5 123.5t-6 166.5l95 569q5 29 -6 38t-65 9h-24l5 31q35 -3 148 -3q112 0 147 3l-5 -31h-24q-54 0 -68 -9t-19 -38l-96 -579q-25 -150 13.5 -222.5t102.5 -72.5
q78 0 149.5 88t93.5 219l90 540q4 10 2 23t-7.5 24t-27.5 19t-58 8l5 31l119 -3l118 3zM750 1034h-361l5 32h361z" />
    <glyph glyph-name="umacron" unicode="&#x16b;" horiz-adv-x="556" 
d="M535 0l-146 -11l15 88h-1q-56 -88 -143 -88q-44 0 -72.5 11t-41 25t-16 41t-1.5 43.5t7 48.5l25 150q12 67 4 79.5t-66 12.5l5 31l149 11l-56 -332q-3 -27 -3.5 -49t18 -36t57.5 -14q54 0 95 44t52 111l29 178q7 37 -4.5 46.5t-63.5 9.5l5 31l149 11l-59 -355
q-7 -37 4.5 -46.5t63.5 -9.5zM575 700h-361l5 32h361z" />
    <glyph glyph-name="Ubreve" unicode="&#x16c;" horiz-adv-x="750" 
d="M871 930q-103 0 -114 -69l-85 -510q-14 -71 -15 -74q-33 -131 -110.5 -215t-162.5 -84q-68 0 -118.5 46t-71.5 123.5t-6 166.5l95 569q5 29 -6 38t-65 9h-24l5 31q35 -3 148 -3q112 0 147 3l-5 -31h-24q-54 0 -68 -9t-19 -38l-96 -579q-25 -150 13.5 -222.5t102.5 -72.5
q78 0 149.5 88t93.5 219l90 540q4 10 2 23t-7.5 24t-27.5 19t-58 8l5 31l119 -3l118 3zM751 1220q-17 -104 -69 -150t-114 -46q-64 0 -99 48t-18 148h22q-14 -87 17.5 -124t84.5 -37q52 0 96 37.5t58 123.5h22z" />
    <glyph glyph-name="ubreve" unicode="&#x16d;" horiz-adv-x="556" 
d="M535 0l-146 -11l15 88h-1q-56 -88 -143 -88q-44 0 -72.5 11t-41 25t-16 41t-1.5 43.5t7 48.5l25 150q12 67 4 79.5t-66 12.5l5 31l149 11l-56 -332q-3 -27 -3.5 -49t18 -36t57.5 -14q54 0 95 44t52 111l29 178q7 37 -4.5 46.5t-63.5 9.5l5 31l149 11l-59 -355
q-7 -37 4.5 -46.5t63.5 -9.5zM570 858q-6 -34 -13 -64.5t-23.5 -73t-36.5 -73t-52.5 -52t-71.5 -21.5q-38 0 -63 21.5t-35.5 51.5t-12.5 72t0.5 73.5t8.5 65.5h22q-40 -246 87 -246q43 0 75.5 28t51 74t27 78t14.5 66h22z" />
    <glyph glyph-name="Uring" unicode="&#x16e;" horiz-adv-x="750" 
d="M871 930q-103 0 -114 -69l-85 -510q-14 -71 -15 -74q-33 -131 -110.5 -215t-162.5 -84q-68 0 -118.5 46t-71.5 123.5t-6 166.5l95 569q5 29 -6 38t-65 9h-24l5 31q35 -3 148 -3q112 0 147 3l-5 -31h-24q-54 0 -68 -9t-19 -38l-96 -579q-25 -150 13.5 -222.5t102.5 -72.5
q78 0 149.5 88t93.5 219l90 540q4 10 2 23t-7.5 24t-27.5 19t-58 8l5 31l119 -3l118 3zM648 1082q11 65 -59 65q-71 0 -81 -65q-11 -65 59 -65q69 0 81 65zM674 1083q-6 -37 -38 -63t-74 -26q-39 0 -62.5 25.5t-17.5 63.5q5 34 37.5 60.5t74.5 26.5q40 0 63 -26t17 -61z" />
    <glyph glyph-name="uring" unicode="&#x16f;" horiz-adv-x="556" 
d="M535 0l-146 -11l15 88h-1q-56 -88 -143 -88q-44 0 -72.5 11t-41 25t-16 41t-1.5 43.5t7 48.5l25 150q12 67 4 79.5t-66 12.5l5 31l149 11l-56 -332q-3 -27 -3.5 -49t18 -36t57.5 -14q54 0 95 44t52 111l29 178q7 37 -4.5 46.5t-63.5 9.5l5 31l149 11l-59 -355
q-7 -37 4.5 -46.5t63.5 -9.5zM482 802q10 46 6.5 76t-7.5 46.5t-15 24.5t-16.5 9.5t-11.5 1.5q-10 0 -21 -5.5t-26 -20t-28 -48.5t-21 -84q-8 -42 -6.5 -71t5.5 -46.5t13.5 -26.5t16 -11.5t14.5 -2.5q6 0 13 1.5t20 10.5t23.5 24.5t22 47t18.5 74.5zM508 803
q-13 -76 -49.5 -129t-77.5 -53q-39 0 -58.5 52t-6.5 130q12 74 49 127t78 53q39 0 58.5 -52t6.5 -128z" />
    <glyph glyph-name="Uhungarumlaut" unicode="&#x170;" horiz-adv-x="750" 
d="M871 930q-103 0 -114 -69l-85 -510q-14 -71 -15 -74q-33 -131 -110.5 -215t-162.5 -84q-68 0 -118.5 46t-71.5 123.5t-6 166.5l95 569q5 29 -6 38t-65 9h-24l5 31q35 -3 148 -3q112 0 147 3l-5 -31h-24q-54 0 -68 -9t-19 -38l-96 -579q-25 -150 13.5 -222.5t102.5 -72.5
q78 0 149.5 88t93.5 219l90 540q4 10 2 23t-7.5 24t-27.5 19t-58 8l5 31l119 -3l118 3zM857 1168q-5 -7 -26 -18l-272 -126l-8 22l254 162q29 18 45 8q10 -6 13 -20t-6 -28zM697 1168q-5 -7 -26 -18l-272 -126l-8 22l254 162q29 18 45 8q10 -6 13 -20t-6 -28z" />
    <glyph glyph-name="uhungarumlaut" unicode="&#x171;" horiz-adv-x="556" 
d="M535 0l-146 -11l15 88h-1q-56 -88 -143 -88q-44 0 -72.5 11t-41 25t-16 41t-1.5 43.5t7 48.5l25 150q12 67 4 79.5t-66 12.5l5 31l149 11l-56 -332q-3 -27 -3.5 -49t18 -36t57.5 -14q54 0 95 44t52 111l29 178q7 37 -4.5 46.5t-63.5 9.5l5 31l149 11l-59 -355
q-7 -37 4.5 -46.5t63.5 -9.5zM636 830q-1 -10 -15 -27l-193 -235l-19 13l158 254q7 11 10 15t11 9t18 5q13 0 23 -10t7 -24zM476 830q-1 -10 -15 -27l-193 -235l-19 13l158 254q7 11 10 15t11 9t18 5q13 0 23 -10t7 -24z" />
    <glyph glyph-name="Uogonek" unicode="&#x172;" horiz-adv-x="750" 
d="M871 930q-36 0 -60 -6.5t-35 -21t-14.5 -23.5t-6.5 -27l-100 -598q-7 -45 -14 -69q-28 -87 -100 -147t-157 -60h-10q-16 -12 -23 -19q-29 -27 -33 -54q-6 -32 19.5 -50.5t56.5 -18.5q50 0 86 56q5 8 12.5 5t3.5 -12q-19 -42 -57.5 -69t-76.5 -27q-47 0 -74.5 27.5
t-21.5 62.5q9 52 74 103q-86 16 -133.5 85t-32.5 161l109 655q5 29 -6 38t-65 9h-24l5 31q35 -3 148 -3q112 0 147 3l-5 -31h-24q-54 0 -68 -9t-19 -38l-110 -659q-11 -67 0 -113t36.5 -66.5t48 -28t45.5 -7.5q76 0 144 60.5t85 161.5l104 625q4 10 2 23t-7.5 24t-27.5 19
t-58 8l5 31l119 -3l118 3z" />
    <glyph glyph-name="uogonek" unicode="&#x173;" horiz-adv-x="556" 
d="M536 -115q-19 -42 -57.5 -69t-76.5 -27q-47 0 -74.5 27.5t-21.5 62.5q8 54 83 111l15 89q-57 -90 -144 -90q-44 0 -72.5 11t-41 25t-16 41t-1.5 43.5t7 48.5l25 150q12 67 4 79.5t-66 12.5l5 31l149 11l-56 -332q-3 -27 -3.5 -49t18 -36t57.5 -14q54 0 95 44t52 111
l29 178q7 37 -4.5 46.5t-63.5 9.5l5 31l149 11l-59 -355q-7 -37 4.5 -46.5t63.5 -9.5l-5 -31l-100 -8q-22 -11 -45 -33q-28 -26 -32 -54q-6 -32 19.5 -50.5t56.5 -18.5q50 0 86 56q5 8 12.5 5t3.5 -12z" />
    <glyph glyph-name="Wcircumflex" unicode="&#x174;" horiz-adv-x="1028" 
d="M1165 930q-76 0 -103 -68l-345 -863q-9 -21 -22 -21q-14 0 -14 20l-48 717h-1l-286 -717q-9 -20 -22 -20q-14 0 -14 21l-59 891q-1 28 -15.5 34t-63.5 6l5 31l121 -3q105 0 141 3l-5 -31q-89 0 -94 -32q-1 -3 0 -20l47 -708h1l242 602l-9 116q-2 29 -14 35.5t-65 6.5
l5 31l122 -3q105 0 141 3l-5 -31q-90 0 -95 -32l1 -13l47 -715h1l273 684l8 20q3 20 -17.5 37.5t-67.5 18.5l5 31l119 -3q46 0 91 3zM851 1029l-24 -15l-123 129l-166 -129l-20 15l197 181z" />
    <glyph glyph-name="wcircumflex" unicode="&#x175;" horiz-adv-x="722" 
d="M770 400q-63 -2 -95 -64l-172 -328q-9 -19 -23 -19t-17 19l-54 284l-148 -283q-11 -20 -24 -20q-14 0 -17 22l-67 354q-5 23 -17 29t-51 6l5 31l92 -3l110 3l-5 -31q-59 0 -64 -27q0 -10 2 -18l51 -267l126 242q-10 50 -14 55q-9 15 -60 15l5 31q45 -3 88 -3l105 3
l-5 -31q-59 0 -64 -27q-1 -3 2 -19l53 -279l133 256q8 15 9 21q4 22 -9.5 34.5t-40.5 13.5l5 31q57 -3 92 -3q41 0 74 3zM614 583l-24 -15l-99 213l-170 -213l-20 15l204 281z" />
    <glyph glyph-name="Ycircumflex" unicode="&#x176;" horiz-adv-x="750" 
d="M895 930q-84 0 -124 -65l-290 -481l-51 -304q-5 -31 6 -40t66 -9h23l-5 -31q-35 3 -145 3t-147 -3l5 31h24q54 0 68 9t19 38l51 306l-136 504q-8 29 -21.5 35.5t-73.5 6.5l5 31l127 -3q108 0 144 3l-5 -31q-78 0 -83 -28q0 -10 2 -18l122 -452l258 428q9 15 10 23
q3 18 -11 32t-49 15l5 31l114 -3q51 0 97 3zM712 1029l-24 -15l-123 129l-166 -129l-20 15l197 181z" />
    <glyph glyph-name="ycircumflex" unicode="&#x177;" horiz-adv-x="528" 
d="M575 400q-66 0 -104 -64l-247 -427q-68 -114 -147 -114q-38 0 -61 23.5t-18 57.5q3 21 17.5 32t31.5 11q18 0 28.5 -11.5t6.5 -30.5q-5 -37 -46 -42q16 -18 44 -18q23 0 43 10.5t37.5 32t28.5 38t26 43.5l35 59l-89 365q-6 24 -20 29.5t-55 5.5l5 31q45 -3 96 -3l110 3
l-5 -31q-56 0 -61 -26q0 -3 3 -18l67 -269l142 246q8 14 10 24q7 41 -40 43l5 31l86 -3q42 0 76 3zM517 583l-24 -15l-99 213l-170 -213l-20 15l204 281z" />
    <glyph glyph-name="Ydieresis" unicode="&#x178;" horiz-adv-x="750" 
d="M895 930q-84 0 -124 -65l-290 -481l-51 -304q-5 -31 6 -40t66 -9h23l-5 -31q-35 3 -145 3t-147 -3l5 31h24q54 0 68 9t19 38l51 306l-136 504q-8 29 -21.5 35.5t-73.5 6.5l5 31l127 -3q108 0 144 3l-5 -31q-78 0 -83 -28q0 -10 2 -18l122 -452l258 428q9 15 10 23
q3 18 -11 32t-49 15l5 31l114 -3q51 0 97 3zM505 1064q-3 -19 -20 -34.5t-38 -15.5t-33.5 14.5t-8.5 35.5t20.5 35.5t37.5 14.5q22 0 33.5 -15.5t8.5 -34.5zM698 1064q-4 -21 -20.5 -35.5t-37.5 -14.5q-22 0 -33.5 15.5t-8.5 34.5t20 34.5t38 15.5t33.5 -14.5t8.5 -35.5z
" />
    <glyph glyph-name="Zacute" unicode="&#x179;" horiz-adv-x="611" 
d="M605 267l-62 -267h-461q-17 0 -21 2.5t-2 14.5q1 10 9 21l547 892h-164q-113 0 -162.5 -48.5t-71.5 -145.5h-25l48 225h448q12 0 16 -0.5t6.5 -4t1.5 -11.5q-1 -7 -10 -20l-546 -891h172q67 0 112 15.5t72 50t40.5 70.5t27.5 97h25zM689 1168q-5 -7 -26 -18l-272 -126
l-8 22l254 162q22 12 31 12q20 0 27 -17.5t-6 -34.5z" />
    <glyph glyph-name="zacute" unicode="&#x17a;" horiz-adv-x="444" 
d="M432 187l-48 -187h-330q-16 0 -20.5 2t-3.5 12q1 6 12 18l342 377h-114q-79 0 -109.5 -29t-48.5 -110h-25l38 161h320h11.5t7.5 -1.5t5 -4t0 -7.5q-2 -7 -12 -17l-341 -376h118q83 0 117 34.5t56 127.5h25zM484 830q-1 -10 -15 -27l-193 -235l-19 13l158 254q7 11 10 15
t11 9t18 5q13 0 23 -10t7 -24z" />
    <glyph glyph-name="Zdotaccent" unicode="&#x17b;" horiz-adv-x="611" 
d="M605 267l-62 -267h-461q-17 0 -21 2.5t-2 14.5q1 10 9 21l547 892h-164q-113 0 -162.5 -48.5t-71.5 -145.5h-25l48 225h448q12 0 16 -0.5t6.5 -4t1.5 -11.5q-1 -7 -10 -20l-546 -891h172q67 0 112 15.5t72 50t40.5 70.5t27.5 97h25zM540 1089q-3 -20 -20.5 -36.5
t-41.5 -16.5q-22 0 -35 16t-10 37q4 20 21.5 36.5t41.5 16.5q22 0 35 -16t9 -37z" />
    <glyph glyph-name="zdotaccent" unicode="&#x17c;" horiz-adv-x="444" 
d="M432 187l-48 -187h-330q-16 0 -20.5 2t-3.5 12q1 6 12 18l342 377h-114q-79 0 -109.5 -29t-48.5 -110h-25l38 161h320h11.5t7.5 -1.5t5 -4t0 -7.5q-2 -7 -12 -17l-341 -376h118q83 0 117 34.5t56 127.5h25zM394 716q-3 -20 -20.5 -36.5t-41.5 -16.5q-22 0 -35 16t-10 37
q4 20 21.5 36.5t41.5 16.5q22 0 35 -16t9 -37z" />
    <glyph glyph-name="Zcaron" unicode="&#x17d;" horiz-adv-x="611" 
d="M605 267l-62 -267h-461q-17 0 -21 2.5t-2 14.5q1 10 9 21l547 892h-164q-113 0 -162.5 -48.5t-71.5 -145.5h-25l48 225h448q12 0 16 -0.5t6.5 -4t1.5 -11.5q-1 -7 -10 -20l-546 -891h172q67 0 112 15.5t72 50t40.5 70.5t27.5 97h25zM671 1195l-197 -181l-136 181l24 15
l123 -129l166 129z" />
    <glyph glyph-name="zcaron" unicode="&#x17e;" horiz-adv-x="444" 
d="M432 187l-48 -187h-330q-16 0 -20.5 2t-3.5 12q1 6 12 18l342 377h-114q-79 0 -109.5 -29t-48.5 -110h-25l38 161h320h11.5t7.5 -1.5t5 -4t0 -7.5q-2 -7 -12 -17l-341 -376h118q83 0 117 34.5t56 127.5h25zM520 849l-204 -281l-109 281l24 15l99 -213l170 213z" />
    <glyph glyph-name="longs" unicode="&#x17f;" horiz-adv-x="306" 
d="M505 886q-4 -22 -18.5 -33.5t-33.5 -11.5t-29 12t-7 31q8 43 59 43q1 10 -14 22t-35 12q-30 0 -59 -47.5t-46.5 -104t-26.5 -107.5l-104 -624q-5 -29 5.5 -38t62.5 -9h21l-5 -31q-39 3 -126 3l-115 -3l5 31q53 0 66.5 6.5t19.5 38.5l54 324h-79l5 31h79l45 268
q18 109 76 196.5t126 87.5q40 0 60 -30t14 -67z" />
    <glyph glyph-name="Ereversed" unicode="&#x18e;" horiz-adv-x="681" 
d="M652 0h-577l1 258h25q0 -53 2 -83.5t12 -62t29.5 -47t53.5 -25t85 -9.5h133q34 0 42.5 7t13.5 33l68 411h-90q-69 0 -92.5 -24.5t-34.5 -92.5h-25l44 265h25q-11 -69 4.5 -93t84.5 -24h90l62 374q4 26 -2 33t-40 7h-129q-76 0 -119.5 -21t-66 -59t-43.5 -114h-25l66 225
h563l-5 -31h-24q-54 0 -68 -9t-19 -38l-134 -802q-5 -29 6 -38t65 -9h24z" />
    <glyph glyph-name="florin" unicode="&#x192;" horiz-adv-x="306" 
d="M505 886q-4 -22 -18.5 -33.5t-33.5 -11.5t-29 12t-7 31q8 43 59 43q-15 34 -49 34q-43 0 -82 -87t-53 -172l-45 -271h117l-5 -31h-114l-54 -322q-5 -29 5.5 -38t62.5 -9h21l-5 -31q-39 3 -126 3l-115 -3l5 31q53 0 66.5 6.5t19.5 38.5l54 324h-79l5 31h79l45 268
q18 109 76 196.5t126 87.5q40 0 60 -30t14 -67z" />
    <glyph glyph-name="Ohorn" unicode="&#x1a0;" horiz-adv-x="778" 
d="M800 478q-35 -208 -156 -354q-123 -146 -260 -146q-70 0 -124 40t-86 106q-74 147 -39 354q35 210 157 357q54 66 122 107t138 41q86 0 149 -63q39 8 62 42q-4 -1 -13 -1q-25 0 -36 15.5t-8 37.5q3 21 20 36.5t42 15.5q23 0 35 -18.5t7 -43.5q-6 -37 -31.5 -67t-58.5 -37
q21 -25 42 -65q73 -147 38 -357zM700 500q35 202 -6 325q-46 133 -146 133q-102 0 -191 -133q-81 -121 -116 -325q-36 -219 3 -353q43 -143 145 -143q101 0 192 143q82 131 119 353z" />
    <glyph glyph-name="ohorn" unicode="&#x1a1;" 
d="M567 473q-6 -38 -32 -67.5t-59 -36.5q44 -67 29 -157q-14 -92 -91 -158q-76 -65 -167 -65t-146 65q-52 65 -38 158q18 99 92 166q75 69 169 69q83 0 135 -57q39 8 62 42q-8 -2 -13 -2q-25 0 -36.5 16t-7.5 37q3 22 19 37.5t42 15.5q23 0 34.5 -18.5t7.5 -44.5zM424 224
q18 100 -7 144q-29 57 -97 57q-70 0 -117 -57q-37 -43 -55 -144q-6 -37 -8 -55.5t0.5 -47.5t13.5 -49q13 -27 39 -42.5t58 -15.5q70 0 117 58q41 50 56 152z" />
    <glyph glyph-name="Uhorn" unicode="&#x1af;" horiz-adv-x="750" 
d="M893 1002q-7 -45 -46 -77t-87 -37l-95 -568q-22 -139 -104 -240q-82 -102 -177 -102q-51 0 -93.5 27t-68.5 74q-55 99 -33 241l96 574q4 24 -12 30q-17 6 -85 6l5 31l147 -3l147 3l-5 -31q-68 0 -86 -6q-19 -6 -23 -30l-96 -574q-24 -148 6 -224q15 -40 42.5 -64
t63.5 -24q81 0 152 89q72 91 94 223l91 546q6 32 -18 48q-21 16 -74 16l5 31l118 -3q7 0 15 3l-8 -48q56 6 88 50q-12 -2 -19 -2q-25 0 -36 15.5t-8 37.5q3 21 20 36.5t42 15.5q23 0 35 -19t7 -45z" />
    <glyph glyph-name="uhorn" unicode="&#x1b0;" horiz-adv-x="556" 
d="M650 471q-7 -43 -45.5 -73t-89.5 -38l-46 -274q-4 -38 6 -46q11 -9 63 -9l-5 -31l-146 -11l15 89q-55 -89 -138 -89q-79 0 -112 32t-23 100l37 223q6 38 -5 47t-62 9l5 30l149 12l-54 -321q-11 -66 1 -85q17 -25 70 -25q50 0 90.5 43t51.5 104l32 191q6 32 -6 42
q-11 9 -63 9l5 30l149 12l-9 -53q52 10 82 42q-2 0 -6 -0.5t-6 -0.5q-25 0 -36.5 16t-7.5 37q3 22 19.5 37.5t41.5 15.5q23 0 35 -19t8 -46z" />
    <glyph glyph-name="Acaron" unicode="&#x1cd;" horiz-adv-x="750" 
d="M718 0l-129 3q-107 0 -144 -3l5 31q89 0 95 32q-1 7 -1 13l-21 249h-246l-90 -218q-6 -13 -8 -21q-3 -22 16 -38t57 -17l-5 -31l-114 3q-39 0 -102 -3l5 31q54 0 79 20t38 52l362 870q5 13 10 17t16 4q10 0 13 -4t4 -17l75 -901q2 -25 15 -33t58 -8h17zM520 356l-38 458
l-192 -458h230zM740 1195l-197 -181l-136 181l24 15l123 -129l166 129z" />
    <glyph glyph-name="acaron" unicode="&#x1ce;" 
d="M498 89q-6 -37 -27 -60t-38.5 -29t-32.5 -6q-33 0 -49.5 24.5t-14.5 57.5q-22 -38 -60.5 -62.5t-85.5 -24.5q-59 0 -105 25.5t-37 80.5q13 84 122 130q65 29 190 36l6 37q10 62 -16.5 95t-68.5 33q-73 0 -116 -46q30 -1 38.5 -16t5.5 -30q-4 -20 -18.5 -33t-35.5 -13
q-20 0 -31 12.5t-7 34.5q8 49 57.5 81t112.5 32q81 0 128 -55q19 -25 21.5 -57t-5.5 -61l-33 -200q0 -4 -1 -15t6.5 -23t22.5 -12q36 0 47 64l9 56h25zM339 140l17 100q-112 -4 -167 -48t-64 -96q-6 -37 16.5 -61t59.5 -24q42 0 85 32.5t53 96.5zM548 849l-204 -281
l-109 281l24 15l99 -213l170 213z" />
    <glyph glyph-name="Icaron" unicode="&#x1cf;" horiz-adv-x="361" 
d="M333 0q-34 3 -152 3q-117 0 -153 -3l5 31h26q56 0 70.5 9t19.5 38l134 805q5 29 -6.5 38t-67.5 9h-26l5 31q35 -3 152 -3q118 0 153 3l-5 -31h-26q-56 0 -70.5 -9t-19.5 -38l-134 -805q-5 -29 6.5 -38t67.5 -9h26zM546 1195l-197 -181l-136 181l24 15l123 -129l166 129z
" />
    <glyph glyph-name="icaron" unicode="&#x1d0;" horiz-adv-x="278" 
d="M247 0q-102 3 -103 3l-111 -3l5 31q53 0 66.5 6.5t19.5 38.5l45 269q6 37 -5 46t-60 9l5 31l142 11l-61 -367q-5 -30 4 -37t58 -7zM437 849l-204 -281l-109 281l24 15l99 -213l170 213z" />
    <glyph glyph-name="Ocaron" unicode="&#x1d1;" horiz-adv-x="778" 
d="M801 478q-36 -213 -159 -356.5t-258 -143.5q-133 0 -208.5 142.5t-39.5 357.5q23 142 89 259t153 181.5t175 64.5q86 0 151 -63.5t93 -181t4 -260.5zM701 497q19 131 14 219t-33 142t-61.5 77t-72.5 23q-38 0 -79.5 -24t-86 -74t-82 -144.5t-58.5 -218.5q-40 -243 8 -368
t140 -125q42 0 86 28.5t87.5 85.5t80 155t57.5 224zM754 1195l-197 -181l-136 181l24 15l123 -129l166 129z" />
    <glyph glyph-name="ocaron" unicode="&#x1d2;" 
d="M507 214q-16 -94 -92 -159.5t-168 -65.5q-89 0 -144 65t-39 160t92 164.5t169 69.5q91 0 144.5 -69t37.5 -165zM425 222q15 97 -3 139q-29 65 -102 65q-32 0 -66 -17t-59 -50q-30 -43 -47 -137q-16 -97 2 -141q28 -67 102 -67q37 0 71.5 20t57.5 54q29 44 44 134z
M548 849l-204 -281l-109 281l24 15l99 -213l170 213z" />
    <glyph glyph-name="Ucaron" unicode="&#x1d3;" horiz-adv-x="750" 
d="M871 930q-103 0 -114 -69l-85 -510q-14 -71 -15 -74q-33 -131 -110.5 -215t-162.5 -84q-68 0 -118.5 46t-71.5 123.5t-6 166.5l95 569q5 29 -6 38t-65 9h-24l5 31q35 -3 148 -3q112 0 147 3l-5 -31h-24q-54 0 -68 -9t-19 -38l-96 -579q-25 -150 13.5 -222.5t102.5 -72.5
q78 0 149.5 88t93.5 219l90 540q4 10 2 23t-7.5 24t-27.5 19t-58 8l5 31l119 -3l118 3zM763 1195l-197 -181l-136 181l24 15l123 -129l166 129z" />
    <glyph glyph-name="ucaron" unicode="&#x1d4;" horiz-adv-x="556" 
d="M535 0l-146 -11l15 88h-1q-56 -88 -143 -88q-44 0 -72.5 11t-41 25t-16 41t-1.5 43.5t7 48.5l25 150q12 67 4 79.5t-66 12.5l5 31l149 11l-56 -332q-3 -27 -3.5 -49t18 -36t57.5 -14q54 0 95 44t52 111l29 178q7 37 -4.5 46.5t-63.5 9.5l5 31l149 11l-59 -355
q-7 -37 4.5 -46.5t63.5 -9.5zM576 849l-204 -281l-109 281l24 15l99 -213l170 213z" />
    <glyph glyph-name="Udieresisacute" unicode="&#x1d7;" horiz-adv-x="750" 
d="M871 930q-103 0 -114 -69l-85 -510q-14 -71 -15 -74q-33 -131 -110.5 -215t-162.5 -84q-68 0 -118.5 46t-71.5 123.5t-6 166.5l95 569q5 29 -6 38t-65 9h-24l5 31q35 -3 148 -3q112 0 147 3l-5 -31h-24q-54 0 -68 -9t-19 -38l-96 -579q-25 -150 13.5 -222.5t102.5 -72.5
q78 0 149.5 88t93.5 219l90 540q4 10 2 23t-7.5 24t-27.5 19t-58 8l5 31l119 -3l118 3zM528 1064q-3 -19 -20 -34.5t-38 -15.5t-33.5 14.5t-8.5 35.5t20.5 35.5t37.5 14.5q22 0 33.5 -15.5t8.5 -34.5zM721 1064q-4 -21 -20.5 -35.5t-37.5 -14.5q-22 0 -33.5 15.5t-8.5 34.5
t20 34.5t38 15.5t33.5 -14.5t8.5 -35.5zM806 1320q-5 -7 -26 -18l-272 -126l-8 22l254 162q22 12 31 12q20 0 27 -17.5t-6 -34.5z" />
    <glyph glyph-name="udieresisacute" unicode="&#x1d8;" horiz-adv-x="556" 
d="M535 0l-146 -11l15 88h-1q-56 -88 -143 -88q-44 0 -72.5 11t-41 25t-16 41t-1.5 43.5t7 48.5l25 150q12 67 4 79.5t-66 12.5l5 31l149 11l-56 -332q-3 -27 -3.5 -49t18 -36t57.5 -14q54 0 95 44t52 111l29 178q7 37 -4.5 46.5t-63.5 9.5l5 31l149 11l-59 -355
q-7 -37 4.5 -46.5t63.5 -9.5zM350 716q-3 -19 -20 -34.5t-38 -15.5t-33 14.5t-9 35.5q4 21 21 35.5t38 14.5t32.5 -15.5t8.5 -34.5zM543 716q-3 -21 -20 -35.5t-38 -14.5q-22 0 -33.5 15.5t-8.5 34.5t20 34.5t39 15.5q21 0 33 -14.5t8 -35.5zM629 972q-5 -7 -26 -18
l-272 -126l-8 22l254 162q22 12 31 12q20 0 27 -17.5t-6 -34.5z" />
    <glyph glyph-name="Udieresiscaron" unicode="&#x1d9;" horiz-adv-x="750" 
d="M871 930q-103 0 -114 -69l-85 -510q-14 -71 -15 -74q-33 -131 -110.5 -215t-162.5 -84q-68 0 -118.5 46t-71.5 123.5t-6 166.5l95 569q5 29 -6 38t-65 9h-24l5 31q35 -3 148 -3q112 0 147 3l-5 -31h-24q-54 0 -68 -9t-19 -38l-96 -579q-25 -150 13.5 -222.5t102.5 -72.5
q78 0 149.5 88t93.5 219l90 540q4 10 2 23t-7.5 24t-27.5 19t-58 8l5 31l119 -3l118 3zM528 1064q-3 -19 -20 -34.5t-38 -15.5t-33.5 14.5t-8.5 35.5t20.5 35.5t37.5 14.5q22 0 33.5 -15.5t8.5 -34.5zM721 1064q-4 -21 -20.5 -35.5t-37.5 -14.5q-22 0 -33.5 15.5t-8.5 34.5
t20 34.5t38 15.5t33.5 -14.5t8.5 -35.5zM788 1347l-197 -181l-136 181l24 15l123 -129l166 129z" />
    <glyph glyph-name="udieresiscaron" unicode="&#x1da;" horiz-adv-x="556" 
d="M535 0l-146 -11l15 88h-1q-56 -88 -143 -88q-44 0 -72.5 11t-41 25t-16 41t-1.5 43.5t7 48.5l25 150q12 67 4 79.5t-66 12.5l5 31l149 11l-56 -332q-3 -27 -3.5 -49t18 -36t57.5 -14q54 0 95 44t52 111l29 178q7 37 -4.5 46.5t-63.5 9.5l5 31l149 11l-59 -355
q-7 -37 4.5 -46.5t63.5 -9.5zM350 716q-3 -19 -20 -34.5t-38 -15.5t-33 14.5t-9 35.5q4 21 21 35.5t38 14.5t32.5 -15.5t8.5 -34.5zM543 716q-3 -21 -20 -35.5t-38 -14.5q-22 0 -33.5 15.5t-8.5 34.5t20 34.5t39 15.5q21 0 33 -14.5t8 -35.5zM611 999l-197 -181l-136 181
l24 15l123 -129l166 129z" />
    <glyph glyph-name="Udieresisgrave" unicode="&#x1db;" horiz-adv-x="750" 
d="M871 930q-103 0 -114 -69l-85 -510q-14 -71 -15 -74q-33 -131 -110.5 -215t-162.5 -84q-68 0 -118.5 46t-71.5 123.5t-6 166.5l95 569q5 29 -6 38t-65 9h-24l5 31q35 -3 148 -3q112 0 147 3l-5 -31h-24q-54 0 -68 -9t-19 -38l-96 -579q-25 -150 13.5 -222.5t102.5 -72.5
q78 0 149.5 88t93.5 219l90 540q4 10 2 23t-7.5 24t-27.5 19t-58 8l5 31l119 -3l118 3zM528 1064q-3 -19 -20 -34.5t-38 -15.5t-33.5 14.5t-8.5 35.5t20.5 35.5t37.5 14.5q22 0 33.5 -15.5t8.5 -34.5zM721 1064q-4 -21 -20.5 -35.5t-37.5 -14.5q-22 0 -33.5 15.5t-8.5 34.5
t20 34.5t38 15.5t33.5 -14.5t8.5 -35.5zM694 1198l-16 -22l-230 126q-16 10 -20 18q-7 17 6 34.5t33 17.5q9 0 27 -12z" />
    <glyph glyph-name="udieresisgrave" unicode="&#x1dc;" horiz-adv-x="556" 
d="M535 0l-146 -11l15 88h-1q-56 -88 -143 -88q-44 0 -72.5 11t-41 25t-16 41t-1.5 43.5t7 48.5l25 150q12 67 4 79.5t-66 12.5l5 31l149 11l-56 -332q-3 -27 -3.5 -49t18 -36t57.5 -14q54 0 95 44t52 111l29 178q7 37 -4.5 46.5t-63.5 9.5l5 31l149 11l-59 -355
q-7 -37 4.5 -46.5t63.5 -9.5zM350 716q-3 -19 -20 -34.5t-38 -15.5t-33 14.5t-9 35.5q4 21 21 35.5t38 14.5t32.5 -15.5t8.5 -34.5zM543 716q-3 -21 -20 -35.5t-38 -14.5q-22 0 -33.5 15.5t-8.5 34.5t20 34.5t39 15.5q21 0 33 -14.5t8 -35.5zM517 850l-16 -22l-230 126
q-16 10 -20 18q-7 17 6 34.5t33 17.5q9 0 27 -12z" />
    <glyph glyph-name="eturned" unicode="&#x1dd;" horiz-adv-x="444" 
d="M451 217q-16 -94 -87.5 -161t-158.5 -67q-88 0 -124 57.5t-22 138.5q2 15 6.5 18t21.5 3h279q17 102 -5 150q-13 30 -39 48.5t-62 18.5q-10 0 -22 -2t-37 -10.5t-50.5 -31.5t-43.5 -59q-5 -14 -15 -14q-13 0 -11 12q1 9 14 28.5t35 43t60 41t80 17.5q89 0 143.5 -66.5
t37.5 -164.5zM362 185h-237q-3 -15 -4 -33.5t1.5 -44.5t10.5 -46.5t27.5 -35t48.5 -14.5q16 0 34.5 7t42.5 23.5t44.5 54t31.5 89.5z" />
    <glyph glyph-name="Gcaron" unicode="&#x1e6;" horiz-adv-x="785" 
d="M775 242q-48 0 -59.5 -7t-16.5 -37l-29 -174q-3 -23 -13 -23q-8 0 -27 22.5t-26 39.5q-33 -43 -89 -64t-111 -21q-94 0 -164 64.5t-98.5 181t-5.5 257.5q36 213 164 357.5t270 144.5q112 0 168 -115l65 101q9 14 16 14q8 0 9 -5.5t-2 -18.5l-60 -358q-2 -16 -5 -20
t-15 -4q-10 0 -11.5 3.5t-0.5 20.5q2 43 3.5 89.5t-8 93.5t-25.5 84t-50 60.5t-81 23.5q-24 0 -52.5 -8t-72 -37.5t-80.5 -77t-73 -138.5t-56 -210q-15 -89 -15 -162t10.5 -121t30 -84.5t41 -55.5t46.5 -31t42 -15t32 -3q13 0 32 3t51.5 13.5t57.5 37.5t32 67l10 64
q6 30 -7.5 39t-77.5 9h-32l6 31q35 -3 160 -3l123 3zM758 1195l-197 -181l-136 181l24 15l123 -129l166 129z" />
    <glyph glyph-name="gcaron" unicode="&#x1e7;" 
d="M552 404q-2 -15 -13 -22.5t-21 -7.5q-12 0 -19 8t-5 21q4 21 21 27l-10 1q-49 0 -97 -39q35 -36 25 -97q-10 -59 -64 -102.5t-122 -43.5q-56 0 -94 31q-18 -18 -25 -47q-4 -25 7.5 -44.5t34.5 -22.5q7 -1 75 -1q40 0 61.5 -1t52.5 -7.5t53 -19.5q59 -35 46 -114
q-9 -57 -80.5 -93t-162.5 -36q-92 0 -150.5 36.5t-49.5 90.5q5 31 34 59.5t75 40.5q-40 28 -30 89q8 46 45 83q-40 40 -30 103q10 59 64.5 102.5t122.5 43.5q60 0 100 -36q56 47 114 47q26 0 35.5 -16t6.5 -33zM358 296q21 123 -66 123q-45 0 -78 -40q-19 -25 -30 -84
q-3 -16 -3.5 -30.5t2.5 -38.5t20.5 -39t47.5 -15q44 0 77 40q22 27 30 84zM406 -79q3 16 0.5 28.5t-11.5 21t-18 15t-26 10.5t-29 6.5t-33.5 3.5t-33 1h-33.5h-59q-34 -2 -62.5 -27t-33.5 -59q-7 -41 36 -72.5t116 -31.5q72 0 126 31t61 73zM513 849l-204 -281l-109 281
l24 15l99 -213l170 213z" />
    <glyph glyph-name="Oogonek" unicode="&#x1ea;" horiz-adv-x="778" 
d="M801 478q-36 -213 -158.5 -356t-257.5 -144q-13 -9 -25 -19q-29 -27 -33 -54q-6 -32 19.5 -50.5t56.5 -18.5q50 0 86 56q5 8 12.5 5t3.5 -12q-19 -42 -57.5 -69t-76.5 -27q-47 0 -74.5 27.5t-21.5 62.5q9 52 71 102q-118 23 -180.5 161t-29.5 336q23 142 89 259
t153 181.5t175 64.5q86 0 151 -63.5t93 -181t4 -260.5zM701 497q19 131 14 219t-33 142t-61.5 77t-72.5 23q-38 0 -79.5 -24t-86 -74t-82 -144.5t-58.5 -218.5q-40 -243 8 -368.5t140 -125.5q42 0 86 29t87.5 86t80 155t57.5 224z" />
    <glyph glyph-name="oogonek" unicode="&#x1eb;" 
d="M507 214q-16 -94 -92 -159t-167 -66q-22 -15 -38 -30q-29 -27 -33 -54q-6 -32 19.5 -50.5t56.5 -18.5q50 0 86 56q5 8 12.5 5t3.5 -12q-19 -42 -57.5 -69t-76.5 -27q-47 0 -74.5 27.5t-21.5 62.5q10 57 87 113q-76 13 -119.5 75t-28.5 147q16 95 92 164.5t169 69.5
q91 0 144.5 -69t37.5 -165zM425 222q15 97 -3 139q-29 65 -102 65q-32 0 -66 -17t-59 -50q-30 -43 -47 -137q-16 -97 2 -141q28 -67 102 -67q37 0 71.5 20t57.5 54q29 44 44 134z" />
    <glyph glyph-name="jcaron" unicode="&#x1f0;" horiz-adv-x="306" 
d="M202 -50q-12 -67 -59 -111t-104 -44q-46 0 -76 21.5t-24 58.5q3 20 18 33t36 13t31 -13t7 -33q-3 -18 -15.5 -29.5t-26.5 -15.5q23 -13 51 -13q23 0 41 13.5t28.5 35.5t16.5 42t9 40l66 396q7 37 -6 46.5t-70 9.5l5 31l154 11zM455 849l-204 -281l-109 281l24 15l99 -213
l170 213z" />
    <glyph glyph-name="Gacute" unicode="&#x1f4;" horiz-adv-x="785" 
d="M775 242q-48 0 -59.5 -7t-16.5 -37l-29 -174q-3 -23 -13 -23q-8 0 -27 22.5t-26 39.5q-33 -43 -89 -64t-111 -21q-94 0 -164 64.5t-98.5 181t-5.5 257.5q36 213 164 357.5t270 144.5q112 0 168 -115l65 101q9 14 16 14q8 0 9 -5.5t-2 -18.5l-60 -358q-2 -16 -5 -20
t-15 -4q-10 0 -11.5 3.5t-0.5 20.5q2 43 3.5 89.5t-8 93.5t-25.5 84t-50 60.5t-81 23.5q-24 0 -52.5 -8t-72 -37.5t-80.5 -77t-73 -138.5t-56 -210q-15 -89 -15 -162t10.5 -121t30 -84.5t41 -55.5t46.5 -31t42 -15t32 -3q13 0 32 3t51.5 13.5t57.5 37.5t32 67l10 64
q6 30 -7.5 39t-77.5 9h-32l6 31q35 -3 160 -3l123 3zM776 1168q-5 -7 -26 -18l-272 -126l-8 22l254 162q22 12 31 12q20 0 27 -17.5t-6 -34.5z" />
    <glyph glyph-name="gacute" unicode="&#x1f5;" 
d="M552 404q-2 -15 -13 -22.5t-21 -7.5q-12 0 -19 8t-5 21q4 21 21 27l-10 1q-49 0 -97 -39q35 -36 25 -97q-10 -59 -64 -102.5t-122 -43.5q-56 0 -94 31q-18 -18 -25 -47q-4 -25 7.5 -44.5t34.5 -22.5q7 -1 75 -1q40 0 61.5 -1t52.5 -7.5t53 -19.5q59 -35 46 -114
q-9 -57 -80.5 -93t-162.5 -36q-92 0 -150.5 36.5t-49.5 90.5q5 31 34 59.5t75 40.5q-40 28 -30 89q8 46 45 83q-40 40 -30 103q10 59 64.5 102.5t122.5 43.5q60 0 100 -36q56 47 114 47q26 0 35.5 -16t6.5 -33zM358 296q21 123 -66 123q-45 0 -78 -40q-19 -25 -30 -84
q-3 -16 -3.5 -30.5t2.5 -38.5t20.5 -39t47.5 -15q44 0 77 40q22 27 30 84zM406 -79q3 16 0.5 28.5t-11.5 21t-18 15t-26 10.5t-29 6.5t-33.5 3.5t-33 1h-33.5h-59q-34 -2 -62.5 -27t-33.5 -59q-7 -41 36 -72.5t116 -31.5q72 0 126 31t61 73zM477 830q-1 -10 -15 -27
l-193 -235l-19 13l158 254q7 11 10 15t11 9t18 5q13 0 23 -10t7 -24z" />
    <glyph glyph-name="Aringacute" unicode="&#x1fa;" horiz-adv-x="750" 
d="M718 0l-129 3q-107 0 -144 -3l5 31q89 0 95 32q-1 7 -1 13l-21 249h-246l-90 -218q-6 -13 -8 -21q-3 -22 16 -38t57 -17l-5 -31l-114 3q-39 0 -102 -3l5 31q54 0 79 20t38 52l362 870q5 13 10 17t16 4q10 0 13 -4t4 -17l75 -901q2 -25 15 -33t58 -8h17zM520 356l-38 458
l-192 -458h230zM625 1082q11 65 -59 65q-71 0 -81 -65q-11 -65 59 -65q69 0 81 65zM651 1083q-6 -37 -38 -63t-74 -26q-39 0 -62.5 25.5t-17.5 63.5q5 34 37.5 60.5t74.5 26.5q40 0 63 -26t17 -61zM738 1334q-5 -7 -26 -18l-272 -126l-8 22l254 162q22 12 31 12
q20 0 27 -17.5t-6 -34.5z" />
    <glyph glyph-name="aringacute" unicode="&#x1fb;" 
d="M498 89q-6 -37 -27 -60t-38.5 -29t-32.5 -6q-33 0 -49.5 24.5t-14.5 57.5q-22 -38 -60.5 -62.5t-85.5 -24.5q-59 0 -105 25.5t-37 80.5q13 84 122 130q65 29 190 36l6 37q10 62 -16.5 95t-68.5 33q-73 0 -116 -46q30 -1 38.5 -16t5.5 -30q-4 -20 -18.5 -33t-35.5 -13
q-20 0 -31 12.5t-7 34.5q8 49 57.5 81t112.5 32q81 0 128 -55q19 -25 21.5 -57t-5.5 -61l-33 -200q0 -4 -1 -15t6.5 -23t22.5 -12q36 0 47 64l9 56h25zM339 140l17 100q-112 -4 -167 -48t-64 -96q-6 -37 16.5 -61t59.5 -24q42 0 85 32.5t53 96.5zM438 709q11 65 -59 65
q-69 0 -81 -65q-10 -65 59 -65q71 0 81 65zM464 710q-6 -37 -37.5 -63t-73.5 -26q-39 0 -63 25.5t-18 63.5q6 35 38 61t74 26q40 0 63 -26t17 -61zM551 961q-5 -7 -26 -18l-272 -126l-8 22l254 162q22 12 31 12q20 0 27 -17.5t-6 -34.5z" />
    <glyph glyph-name="AEacute" unicode="&#x1fc;" horiz-adv-x="903" 
d="M917 258l-85 -258h-493l5 31q52 0 65.5 6.5t19.5 38.5l61 370h-160l-143 -341q-5 -10 -8 -19q-3 -21 15 -37.5t58 -17.5l-5 -31l-114 3q-39 0 -102 -3l5 31q88 0 117 69l349 829l-26 1h-63l5 31h560l-9 -225h-25q3 57 0 88.5t-17.5 58.5t-45 37t-83.5 10h-95
q-34 0 -42.5 -7t-13.5 -33l-68 -413h85q67 0 89 24.5t33 92.5h25l-44 -265h-25q11 68 -3 92.5t-81 24.5h-85l-62 -375q-5 -26 1.5 -33t40.5 -7h95q31 0 56.5 3t46 12t35 17t28.5 26.5t22.5 31t20 40.5t17.5 44.5t18 52.5h25zM496 477l67 405q8 42 -31 44l-188 -449h152z
M835 1168q-5 -7 -26 -18l-272 -126l-8 22l254 162q22 12 31 12q20 0 27 -17.5t-6 -34.5z" />
    <glyph glyph-name="aeacute" unicode="&#x1fd;" horiz-adv-x="722" 
d="M713 119q-1 -9 -13.5 -28.5t-33.5 -43t-56 -41t-74 -17.5q-103 0 -152 89q-25 -38 -74 -63.5t-108 -25.5q-38 0 -70 8.5t-55 33t-17 61.5q12 71 98.5 114.5t209.5 43.5l8 48q10 61 -16.5 94.5t-68.5 33.5q-71 0 -116 -46q30 -1 38.5 -16t5.5 -30q-4 -20 -18.5 -33
t-35.5 -13q-20 0 -31 12.5t-7 34.5q8 49 58 81t112 32q48 0 86 -20.5t54 -56.5q77 77 164 77q79 0 114 -55t20 -141q-2 -15 -6.5 -18t-21.5 -3h-273q-6 -35 -6 -64.5t4 -50.5t12 -37.5t17 -27t21 -18.5t21 -11.5t19 -5.5t14 -2h8q44 0 82.5 28.5t57.5 68.5q4 9 6 12.5
t4.5 5.5t7.5 2q13 0 11 -12zM669 252q22 174 -73 174q-16 0 -35.5 -7t-43.5 -24.5t-45.5 -54.5t-33.5 -88h231zM360 132q2 7 1 22q-4 32 3 75q-110 -4 -164.5 -45t-62.5 -92q-5 -35 16.5 -58t57.5 -23q53 0 97 36t52 85zM623 830q-1 -10 -15 -27l-193 -235l-19 13l158 254
q7 11 10 15t11 9t18 5q13 0 23 -10t7 -24z" />
    <glyph glyph-name="Oslashacute" unicode="&#x1fe;" horiz-adv-x="778" 
d="M801 478q-36 -213 -159 -356.5t-258 -143.5q-99 0 -176 92l-84 -125l-19 12l88 134q-11 17 -21.5 37.5t-22 57t-18 77t-6 97.5t10.5 118q23 142 89 259t153 181.5t175 64.5q34 0 63.5 -9t53.5 -27.5t33 -27.5t26 -28l84 125l20 -12l-90 -134q11 -16 21.5 -36.5t22 -57.5
t18.5 -78t6.5 -99t-10.5 -121zM699 847q-52 114 -151 114q-58 0 -113.5 -41t-100.5 -112q-73 -115 -109 -330q-37 -222 3 -336zM712 478q37 221 -2 341l-472 -705q20 -48 58 -81t93 -33q57 0 116 42.5t108 123.5q63 108 99 312zM772 1168q-5 -7 -26 -18l-272 -126l-8 22
l254 162q22 12 31 12q20 0 27 -17.5t-6 -34.5z" />
    <glyph glyph-name="oslashacute" unicode="&#x1ff;" 
d="M500 213q-16 -93 -90 -158.5t-163 -65.5q-53 0 -97 27l-88 -118q-1 1 -6.5 4t-10.5 7l89 119q-38 30 -55.5 78.5t-7.5 106.5q16 97 90.5 166t163.5 69q57 0 99 -30l85 115q1 -1 6.5 -4t10.5 -7l-86 -116q31 -26 51 -76.5t9 -116.5zM403 392q-32 34 -83 34
q-31 0 -66 -16.5t-61 -52.5q-37 -48 -53 -143q-19 -106 16 -155zM431 214q19 111 -15 160l-246 -332q31 -31 82 -31q76 0 127 64q35 44 52 139zM512 830q-1 -10 -15 -27l-193 -235l-19 13l158 254q7 11 10 15t11 9t18 5q13 0 23 -10t7 -24z" />
    <glyph glyph-name="Adblgrave" unicode="&#x200;" horiz-adv-x="750" 
d="M718 0l-129 3q-107 0 -144 -3l5 31q89 0 95 32q-1 7 -1 13l-21 249h-246l-90 -218q-6 -13 -8 -21q-3 -22 16 -38t57 -17l-5 -31l-114 3q-39 0 -102 -3l5 31q54 0 79 20t38 52l362 870q5 13 10 17t16 4q10 0 13 -4t4 -17l75 -901q2 -25 15 -33t58 -8h17zM520 356l-38 458
l-192 -458h230zM543 1046l-16 -22l-230 126q-16 10 -20 18q-5 13 3 27t20 21q19 5 24 3t19 -11zM703 1046l-16 -22l-230 126q-16 10 -20 18q-5 13 3 27t20 21q19 5 24 3t19 -11z" />
    <glyph glyph-name="adblgrave" unicode="&#x201;" 
d="M498 89q-6 -37 -27 -60t-38.5 -29t-32.5 -6q-33 0 -49.5 24.5t-14.5 57.5q-22 -38 -60.5 -62.5t-85.5 -24.5q-59 0 -105 25.5t-37 80.5q13 84 122 130q65 29 190 36l6 37q10 62 -16.5 95t-68.5 33q-73 0 -116 -46q30 -1 38.5 -16t5.5 -30q-4 -20 -18.5 -33t-35.5 -13
q-20 0 -31 12.5t-7 34.5q8 49 57.5 81t112.5 32q81 0 128 -55q19 -25 21.5 -57t-5.5 -61l-33 -200q0 -4 -1 -15t6.5 -23t22.5 -12q36 0 47 64l9 56h25zM339 140l17 100q-112 -4 -167 -48t-64 -96q-6 -37 16.5 -61t59.5 -24q42 0 85 32.5t53 96.5zM313 581l-23 -13l-115 235
q-8 16 -7 27q3 14 16 24t26 10q14 0 19.5 -7t9.5 -22zM473 581l-23 -13l-115 235q-8 16 -7 27q3 14 16 24t26 10q14 0 19.5 -7t9.5 -22z" />
    <glyph glyph-name="Edblgrave" unicode="&#x204;" horiz-adv-x="681" 
d="M695 258l-85 -258h-577l5 31h24q54 0 68 9t19 38l134 802q5 29 -6 38t-65 9h-24l5 31h563l-10 -225h-25q6 112 -24 153t-139 41h-129q-34 0 -43 -7t-13 -33l-62 -374h90q69 0 92.5 24t34.5 93h25l-44 -265h-25q11 68 -4.5 92.5t-84.5 24.5h-90l-68 -411q-5 -26 1.5 -33
t40.5 -7h133q51 0 88 9.5t62 25t45 47t32.5 62t30.5 83.5h25zM536 1046l-16 -22l-230 126q-16 10 -20 18q-5 13 3 27t20 21q19 5 24 3t19 -11zM696 1046l-16 -22l-230 126q-16 10 -20 18q-5 13 3 27t20 21q19 5 24 3t19 -11z" />
    <glyph glyph-name="edblgrave" unicode="&#x205;" horiz-adv-x="444" 
d="M435 119q-1 -9 -14 -28.5t-35 -43t-60 -41t-80 -17.5q-89 0 -143.5 66.5t-37.5 164.5q16 94 87.5 161t158.5 67q88 0 124 -57.5t22 -138.5q-2 -15 -6.5 -18t-21.5 -3h-279q-17 -102 5 -150q13 -30 39 -48.5t62 -18.5q10 0 22 2t37 10.5t50.5 31.5t43.5 59q5 14 15 14
q13 0 11 -12zM391 252q3 15 4 33.5t-1.5 44.5t-10.5 46.5t-27.5 35t-48.5 14.5q-16 0 -34.5 -7t-42.5 -23.5t-44.5 -54t-31.5 -89.5h237zM285 581l-23 -13l-115 235q-8 16 -7 27q3 14 16 24t26 10q14 0 19.5 -7t9.5 -22zM445 581l-23 -13l-115 235q-8 16 -7 27q3 14 16 24
t26 10q14 0 19.5 -7t9.5 -22z" />
    <glyph glyph-name="Idblgrave" unicode="&#x208;" horiz-adv-x="361" 
d="M333 0q-34 3 -152 3q-117 0 -153 -3l5 31h26q56 0 70.5 9t19.5 38l134 805q5 29 -6.5 38t-67.5 9h-26l5 31q35 -3 152 -3q118 0 153 3l-5 -31h-26q-56 0 -70.5 -9t-19.5 -38l-134 -805q-5 -29 6.5 -38t67.5 -9h26zM376 1046l-16 -22l-230 126q-16 10 -20 18q-5 13 3 27
t20 21q19 5 24 3t19 -11zM536 1046l-16 -22l-230 126q-16 10 -20 18q-5 13 3 27t20 21q19 5 24 3t19 -11z" />
    <glyph glyph-name="idblgrave" unicode="&#x209;" horiz-adv-x="278" 
d="M247 0q-102 3 -103 3l-111 -3l5 31q53 0 66.5 6.5t19.5 38.5l45 269q6 37 -5 46t-60 9l5 31l142 11l-61 -367q-5 -30 4 -37t58 -7zM202 581l-23 -13l-115 235q-8 16 -7 27q3 14 16 24t26 10q14 0 19.5 -7t9.5 -22zM362 581l-23 -13l-115 235q-8 16 -7 27q3 14 16 24
t26 10q14 0 19.5 -7t9.5 -22z" />
    <glyph glyph-name="Odblgrave" unicode="&#x20c;" horiz-adv-x="778" 
d="M801 478q-36 -213 -159 -356.5t-258 -143.5q-133 0 -208.5 142.5t-39.5 357.5q23 142 89 259t153 181.5t175 64.5q86 0 151 -63.5t93 -181t4 -260.5zM701 497q19 131 14 219t-33 142t-61.5 77t-72.5 23q-38 0 -79.5 -24t-86 -74t-82 -144.5t-58.5 -218.5q-40 -243 8 -368
t140 -125q42 0 86 28.5t87.5 85.5t80 155t57.5 224zM584 1046l-16 -22l-230 126q-16 10 -20 18q-5 13 3 27t20 21q19 5 24 3t19 -11zM744 1046l-16 -22l-230 126q-16 10 -20 18q-5 13 3 27t20 21q19 5 24 3t19 -11z" />
    <glyph glyph-name="odblgrave" unicode="&#x20d;" 
d="M507 214q-16 -94 -92 -159.5t-168 -65.5q-89 0 -144 65t-39 160t92 164.5t169 69.5q91 0 144.5 -69t37.5 -165zM425 222q15 97 -3 139q-29 65 -102 65q-32 0 -66 -17t-59 -50q-30 -43 -47 -137q-16 -97 2 -141q28 -67 102 -67q37 0 71.5 20t57.5 54q29 44 44 134z
M313 581l-23 -13l-115 235q-8 16 -7 27q3 14 16 24t26 10q14 0 19.5 -7t9.5 -22zM473 581l-23 -13l-115 235q-8 16 -7 27q3 14 16 24t26 10q14 0 19.5 -7t9.5 -22z" />
    <glyph glyph-name="Rdblgrave" unicode="&#x210;" horiz-adv-x="736" 
d="M752 119q-1 -9 -6 -26.5t-17.5 -46t-37.5 -48.5t-57 -20q-44 0 -75 18t-45 44t-17.5 52.5t-0.5 54t14 94.5q8 44 10.5 67t0.5 52.5t-12 51.5q-12 26 -30.5 39.5t-31 16t-30.5 2.5h-115l-65 -392q-5 -29 6 -38t65 -9h24l-5 -31q-35 3 -145 3t-147 -3l5 31h24q54 0 68 9
t19 38l134 805q5 29 -6 38t-65 9h-24l5 31h310q113 0 177 -74t47 -176q-13 -78 -75.5 -143t-153.5 -89q114 -51 108 -189l-5 -107q-7 -103 0 -138q6 -45 39 -45q25 0 44.5 23.5t27.5 46.5t13 47q3 22 15 22q14 0 10 -20zM626 711q18 117 -14 163q-19 26 -48 39t-49.5 15
t-57.5 2q-46 0 -56 -2q-16 -2 -20.5 -10t-8.5 -28l-66 -398h106q91 0 151 63q45 48 63 156zM536 1046l-16 -22l-230 126q-16 10 -20 18q-5 13 3 27t20 21q19 5 24 3t19 -11zM696 1046l-16 -22l-230 126q-16 10 -20 18q-5 13 3 27t20 21q19 5 24 3t19 -11z" />
    <glyph glyph-name="rdblgrave" unicode="&#x211;" horiz-adv-x="392" 
d="M428 381q-4 -22 -19.5 -33t-31.5 -11q-18 0 -28.5 11.5t-7.5 31.5q2 12 9.5 21.5t12.5 13t8 4.5q-2 1 -11 1q-55 0 -95.5 -55t-53.5 -133l-26 -154q-5 -29 5.5 -38t62.5 -9h21l-5 -31q-39 3 -126 3l-115 -3l5 31q53 0 66.5 6.5t19.5 38.5l44 268q7 37 -4.5 46.5
t-63.5 9.5l5 31l141 11l-18 -107h1q20 41 56 74t84 33q32 0 50 -18t14 -43zM259 581l-23 -13l-115 235q-8 16 -7 27q3 14 16 24t26 10q14 0 19.5 -7t9.5 -22zM419 581l-23 -13l-115 235q-8 16 -7 27q3 14 16 24t26 10q14 0 19.5 -7t9.5 -22z" />
    <glyph glyph-name="Udblgrave" unicode="&#x214;" horiz-adv-x="750" 
d="M871 930q-103 0 -114 -69l-85 -510q-14 -71 -15 -74q-33 -131 -110.5 -215t-162.5 -84q-68 0 -118.5 46t-71.5 123.5t-6 166.5l95 569q5 29 -6 38t-65 9h-24l5 31q35 -3 148 -3q112 0 147 3l-5 -31h-24q-54 0 -68 -9t-19 -38l-96 -579q-25 -150 13.5 -222.5t102.5 -72.5
q78 0 149.5 88t93.5 219l90 540q4 10 2 23t-7.5 24t-27.5 19t-58 8l5 31l119 -3l118 3zM593 1046l-16 -22l-230 126q-16 10 -20 18q-5 13 3 27t20 21q19 5 24 3t19 -11zM753 1046l-16 -22l-230 126q-16 10 -20 18q-5 13 3 27t20 21q19 5 24 3t19 -11z" />
    <glyph glyph-name="udblgrave" unicode="&#x215;" horiz-adv-x="556" 
d="M535 0l-146 -11l15 88h-1q-56 -88 -143 -88q-44 0 -72.5 11t-41 25t-16 41t-1.5 43.5t7 48.5l25 150q12 67 4 79.5t-66 12.5l5 31l149 11l-56 -332q-3 -27 -3.5 -49t18 -36t57.5 -14q54 0 95 44t52 111l29 178q7 37 -4.5 46.5t-63.5 9.5l5 31l149 11l-59 -355
q-7 -37 4.5 -46.5t63.5 -9.5zM341 581l-23 -13l-115 235q-8 16 -7 27q3 14 16 24t26 10q14 0 19.5 -7t9.5 -22zM501 581l-23 -13l-115 235q-8 16 -7 27q3 14 16 24t26 10q14 0 19.5 -7t9.5 -22z" />
    <glyph glyph-name="uni0218" unicode="&#x218;" horiz-adv-x="556" 
d="M542 256q-20 -116 -90 -197t-154 -81q-117 0 -169 93q-20 -31 -34 -54l-14 -23q-9 -16 -18 -16q-8 0 -9 5.5t2 18.5l49 292q2 11 3 15t4.5 7t9.5 3q12 0 10 -11q-3 -21 -4 -32t-2 -47t3 -59.5t15 -57t30 -53.5t52 -35t77 -15q59 0 106.5 62.5t62.5 151.5q3 32 5.5 71
t-16 79.5t-57.5 55.5l-98 36q-28 10 -44.5 18t-38.5 29.5t-34 52.5q-27 71 -12 159q18 109 87.5 184t151.5 75q105 0 147 -89l44 74q10 15 18 15t9 -5.5t-2 -18.5l-49 -293q-2 -15 -5 -19.5t-12 -4.5q-8 0 -9.5 4.5t0.5 19.5q7 49 3.5 100.5t-15 93.5t-46 68.5t-87.5 26.5
q-58 0 -105 -57.5t-60 -137.5q-15 -82 11 -135q10 -19 22.5 -31.5t23 -17.5t32.5 -13l87 -31q83 -30 107 -99q28 -82 12 -177zM299 -139q-8 -47 -34 -90t-48 -64t-29 -21q-10 0 -8 10q1 4 8 10q76 68 91 155v13q-20 -14 -38 -14q-23 0 -33 14t-7 34q2 18 17.5 32.5
t37.5 14.5q27 0 38.5 -25.5t4.5 -68.5z" />
    <glyph glyph-name="uni0219" unicode="&#x219;" horiz-adv-x="394" 
d="M381 128q-10 -59 -56.5 -99t-127.5 -40q-65 0 -103 43l-23 -23q-24 -20 -29 -20q-8 0 -9 5.5t2 18.5l22 132q2 11 3 15t4.5 7t9.5 3q7 0 9 -3.5t3 -13.5q3 -69 29 -105.5t86 -36.5q56 0 89 25.5t39 65.5q12 74 -89 92q-58 12 -81 20t-43 26q-37 36 -29 85q9 50 53.5 86.5
t127.5 36.5q56 0 89 -28q10 6 20 16q15 12 22 12q8 0 9 -5.5t-2 -18.5l-17 -101q-2 -15 -5 -19.5t-12 -4.5q-11 0 -11 9q16 121 -96 121q-59 0 -89.5 -22.5t-35.5 -53.5q-3 -17 3 -30t15 -20.5t27.5 -14.5t30 -9.5t33.5 -7.5q78 -15 106 -48q35 -42 26 -95zM218 -139
q-8 -47 -34 -90t-48 -64t-29 -21q-10 0 -8 10q1 4 8 10q76 68 91 155v13q-20 -14 -38 -14q-23 0 -33 14t-7 34q2 18 17.5 32.5t37.5 14.5q27 0 38.5 -25.5t4.5 -68.5z" />
    <glyph glyph-name="uni021A" unicode="&#x21a;" horiz-adv-x="722" 
d="M807 730h-25q10 79 1 122t-40.5 57.5t-108.5 14.5q-46 0 -57 -2q-9 -2 -14 -8t-6.5 -11.5t-4.5 -18.5l-134 -805q-3 -17 -0.5 -27.5t24.5 -15.5t73 -5h40l-5 -31q-40 3 -189 3q-148 0 -190 -3l5 31h40q73 0 91 9.5t22 38.5l134 805q4 17 2 26t-16 12q-10 2 -54 2
q-59 0 -91.5 -6.5t-56 -31t-35.5 -57t-29 -99.5h-25l56 225h611zM382 -139q-8 -47 -34 -90t-48 -64t-29 -21q-10 0 -8 10q1 4 8 10q76 68 91 155v13q-20 -14 -38 -14q-23 0 -33 14t-7 34q2 18 17.5 32.5t37.5 14.5q27 0 38.5 -25.5t4.5 -68.5z" />
    <glyph glyph-name="uni021B" unicode="&#x21b;" horiz-adv-x="389" 
d="M353 124q-9 -54 -41 -94.5t-81 -40.5q-11 0 -22 1.5t-26.5 6t-26 13.5t-21.5 24t-12 37t2 53l46 276h-85l3 22q67 3 107.5 60.5t54.5 132.5h25l-31 -184h143l-5 -31h-143l-47 -278q-13 -108 49 -108q29 0 53 29.5t33 82.5l9 55h25zM216 -139q-8 -47 -34 -90t-48 -64
t-29 -21q-10 0 -8 10q1 4 8 10q76 68 91 155v13q-20 -14 -38 -14q-23 0 -33 14t-7 34q2 18 17.5 32.5t37.5 14.5q27 0 38.5 -25.5t4.5 -68.5z" />
    <glyph glyph-name="uni0237" unicode="&#x237;" horiz-adv-x="306" 
d="M202 -50q-12 -67 -59 -111t-104 -44q-46 0 -76 21.5t-24 58.5q3 20 18 33t36 13t31 -13t7 -33q-3 -18 -15.5 -29.5t-26.5 -15.5q23 -13 51 -13q23 0 41 13.5t28.5 35.5t16.5 42t9 40l66 396q7 37 -6 46.5t-70 9.5l5 31l154 11z" />
    <glyph glyph-name="ereversed" unicode="&#x258;" horiz-adv-x="444" 
d="M452 220q-17 -98 -94 -164.5t-165 -66.5q-42 0 -74 17.5t-46 41t-20 43t-5 28.5q2 12 15 12q9 0 11 -14q6 -36 23 -59t39.5 -31.5t33.5 -10.5t21 -2q71 0 125 67q38 48 55 150h-279q-17 0 -20.5 3t-1.5 18q14 82 69 139t143 57q87 0 136.5 -67t33.5 -161zM373 252
q7 52 -1.5 89.5t-26.5 54t-34.5 23.5t-32.5 7q-36 0 -64 -20.5t-43.5 -53t-23 -55.5t-11.5 -45h237z" />
    <glyph glyph-name="schwa" unicode="&#x259;" horiz-adv-x="444" 
d="M451 217q-16 -94 -87.5 -161t-158.5 -67q-88 0 -124 57.5t-22 138.5q2 15 6.5 18t21.5 3h279q17 102 -5 150q-13 30 -39 48.5t-62 18.5q-10 0 -22 -2t-37 -10.5t-50.5 -31.5t-43.5 -59q-5 -14 -15 -14q-13 0 -11 12q1 9 14 28.5t35 43t60 41t80 17.5q89 0 143.5 -66.5
t37.5 -164.5zM362 185h-237q-3 -15 -4 -33.5t1.5 -44.5t10.5 -46.5t27.5 -35t48.5 -14.5q16 0 34.5 7t42.5 23.5t44.5 54t31.5 89.5z" />
    <glyph glyph-name="ringhalfright" unicode="&#x2be;" horiz-adv-x="398" 
d="M471 775q-11 -70 -65.5 -121t-123.5 -51q-47 0 -78 23t-25 61q3 18 15.5 28.5t28.5 10.5q18 0 27 -11.5t6 -28.5q-3 -28 -32 -37q22 -16 60 -16q35 0 69 33.5t46 108.5q12 73 -12 106.5t-58 33.5q-68 0 -101 -72q-8 -11 -17 -11q-16 0 -14 14q0 4 5 13.5t16.5 24.5
t27 28.5t40 23t52.5 9.5q66 0 105.5 -49.5t27.5 -120.5z" />
    <glyph glyph-name="ringhalfleft" unicode="&#x2bf;" horiz-adv-x="398" 
d="M459 702q0 -4 -5 -13.5t-16 -24.5t-26.5 -28.5t-40 -23t-52.5 -9.5q-66 0 -106 49.5t-28 120.5q11 70 66 121t124 51q47 0 78 -23t25 -61q-8 -39 -45 -39q-18 0 -27 11.5t-6 28.5q3 28 32 37q-21 16 -59 16q-35 0 -69 -33.5t-47 -108.5q-12 -73 12 -106.5t59 -33.5
q67 0 101 72q6 11 16 11q16 0 14 -14z" />
    <glyph glyph-name="circumflex" unicode="&#x2c6;" 
d="M503 583l-24 -15l-99 213l-170 -213l-20 15l204 281z" />
    <glyph glyph-name="caron" unicode="&#x2c7;" 
d="M548 849l-204 -281l-109 281l24 15l99 -213l170 213z" />
    <glyph glyph-name="breve" unicode="&#x2d8;" 
d="M542 858q-6 -34 -13 -64.5t-23.5 -73t-36.5 -73t-52.5 -52t-71.5 -21.5q-38 0 -63 21.5t-35.5 51.5t-12.5 72t0.5 73.5t8.5 65.5h22q-40 -246 87 -246q43 0 75.5 28t51 74t27 78t14.5 66h22z" />
    <glyph glyph-name="dotaccent" unicode="&#x2d9;" horiz-adv-x="278" 
d="M311 716q-3 -20 -20.5 -36.5t-41.5 -16.5q-22 0 -35 16t-10 37q4 20 21.5 36.5t41.5 16.5q22 0 35 -16t9 -37z" />
    <glyph glyph-name="ring" unicode="&#x2da;" horiz-adv-x="870" 
d="M639 802q10 46 6.5 76t-7.5 46.5t-15 24.5t-16.5 9.5t-11.5 1.5q-10 0 -21 -5.5t-26 -20t-28 -48.5t-21 -84q-8 -42 -6.5 -71t5.5 -46.5t13.5 -26.5t16 -11.5t14.5 -2.5q6 0 13 1.5t20 10.5t23.5 24.5t22 47t18.5 74.5zM665 803q-13 -76 -49.5 -129t-77.5 -53
q-39 0 -58.5 52t-6.5 130q12 74 49 127t78 53q39 0 58.5 -52t6.5 -128z" />
    <glyph glyph-name="ogonek" unicode="&#x2db;" 
d="M345 -115q-19 -42 -57.5 -69t-76.5 -27q-47 0 -74.5 27.5t-21.5 62.5q6 33 36 66.5t70 59.5h47q-40 -19 -68 -46q-29 -27 -33 -54q-6 -32 19.5 -50.5t56.5 -18.5q50 0 86 56q5 8 12.5 5t3.5 -12z" />
    <glyph glyph-name="tilde" unicode="&#x2dc;" 
d="M541 748q-39 -36 -52.5 -47t-32 -21t-36.5 -10q-24 0 -58 23q-40 25 -61 25q-20 0 -42.5 -12t-34.5 -24l-13 -12l-14 15q39 36 52.5 47t32 21t36.5 10q24 0 58 -23q40 -25 61 -25q20 0 42.5 12t34.5 24l13 12z" />
    <glyph glyph-name="hungarumlaut" unicode="&#x2dd;" 
d="M608 830q-1 -10 -15 -27l-193 -235l-19 13l158 254q7 11 10 15t11 9t18 5q13 0 23 -10t7 -24zM448 830q-1 -10 -15 -27l-193 -235l-19 13l158 254q7 11 10 15t11 9t18 5q13 0 23 -10t7 -24z" />
    <glyph glyph-name="uni0300" unicode="&#x300;" horiz-adv-x="0" 
d="M-91 581l-23 -13l-115 235q-8 16 -7 27q3 14 16 24t26 10q14 0 19.5 -7t9.5 -22z" />
    <glyph glyph-name="uni0301" unicode="&#x301;" horiz-adv-x="0" 
d="M12 830q-1 -10 -15 -27l-193 -235l-19 13l158 254q7 11 10 15t11 9t18 5q13 0 23 -10t7 -24z" />
    <glyph glyph-name="uni0302" unicode="&#x302;" horiz-adv-x="0" 
d="M3 583l-24 -15l-99 213l-170 -213l-20 15l204 281z" />
    <glyph glyph-name="uni0303" unicode="&#x303;" horiz-adv-x="0" 
d="M41 748q-39 -36 -52.5 -47t-32 -21t-36.5 -10q-24 0 -58 23q-40 25 -61 25q-20 0 -42.5 -12t-34.5 -24l-13 -12l-14 15q39 36 52.5 47t32 21t36.5 10q24 0 58 -23q40 -25 61 -25q20 0 42.5 12t34.5 24l13 12z" />
    <glyph glyph-name="uni0304" unicode="&#x304;" horiz-adv-x="0" 
d="M47 700h-361l5 32h361z" />
    <glyph glyph-name="uni0306" unicode="&#x306;" horiz-adv-x="0" 
d="M42 858q-6 -34 -13 -64.5t-23.5 -73t-36.5 -73t-52.5 -52t-71.5 -21.5q-38 0 -63 21.5t-35.5 51.5t-12.5 72t0.5 73.5t8.5 65.5h22q-40 -246 87 -246q43 0 75.5 28t51 74t27 78t14.5 66h22z" />
    <glyph glyph-name="uni0307" unicode="&#x307;" horiz-adv-x="0" 
d="M-78 716q-3 -20 -20.5 -36.5t-41.5 -16.5q-22 0 -35 16t-10 37q4 20 21.5 36.5t41.5 16.5q22 0 35 -16t9 -37z" />
    <glyph glyph-name="uni0308" unicode="&#x308;" horiz-adv-x="0" 
d="M-178 716q-3 -19 -20 -34.5t-38 -15.5t-33 14.5t-9 35.5q4 21 21 35.5t38 14.5t32.5 -15.5t8.5 -34.5zM15 716q-3 -21 -20 -35.5t-38 -14.5q-22 0 -33.5 15.5t-8.5 34.5t20 34.5t39 15.5q21 0 33 -14.5t8 -35.5z" />
    <glyph glyph-name="uni0309" unicode="&#x309;" horiz-adv-x="0" 
d="M-28 754q-5 -29 -37 -43q-69 -31 -77 -70l-3 -19q0 -10 -11 -10q-10 0 -8 10l3 19q7 47 62 86q26 18 28 27q5 28 -2 35q-6 13 -51 13q-34 0 -59 -18q25 -4 20 -30q-2 -13 -12 -21t-22 -8q-13 0 -20 8t-5 22q5 30 34.5 48t66.5 18q47 0 72 -16q26 -18 21 -51z" />
    <glyph glyph-name="uni030A" unicode="&#x30a;" horiz-adv-x="0" 
d="M-46 802q10 46 6.5 76t-7.5 46.5t-15 24.5t-16.5 9.5t-11.5 1.5q-10 0 -21 -5.5t-26 -20t-28 -48.5t-21 -84q-8 -42 -6.5 -71t5.5 -46.5t13.5 -26.5t16 -11.5t14.5 -2.5q6 0 13 1.5t20 10.5t23.5 24.5t22 47t18.5 74.5zM-20 803q-13 -76 -49.5 -129t-77.5 -53
q-39 0 -58.5 52t-6.5 130q12 74 49 127t78 53q39 0 58.5 -52t6.5 -128z" />
    <glyph glyph-name="uni030B" unicode="&#x30b;" horiz-adv-x="0" 
d="M108 830q-1 -10 -15 -27l-193 -235l-19 13l158 254q7 11 10 15t11 9t18 5q13 0 23 -10t7 -24zM-52 830q-1 -10 -15 -27l-193 -235l-19 13l158 254q7 11 10 15t11 9t18 5q13 0 23 -10t7 -24z" />
    <glyph glyph-name="uni030C" unicode="&#x30c;" horiz-adv-x="0" 
d="M48 849l-204 -281l-109 281l24 15l99 -213l170 213z" />
    <glyph glyph-name="uni030F" unicode="&#x30f;" horiz-adv-x="0" 
d="M-187 581l-23 -13l-115 235q-8 16 -7 27q3 14 16 24t26 10q14 0 19.5 -7t9.5 -22zM-27 581l-23 -13l-115 235q-8 16 -7 27q3 14 16 24t26 10q14 0 19.5 -7t9.5 -22z" />
    <glyph glyph-name="uni0311" unicode="&#x311;" horiz-adv-x="0" 
d="M-5 574h-22q40 246 -87 246q-43 0 -75.5 -28t-51 -74t-27 -78t-14.5 -66h-22q6 34 13 64.5t23.5 73t36.5 73t52.5 52t71.5 21.5q38 0 63 -21.5t35.5 -51.5t12.5 -72t-0.5 -73.5t-8.5 -65.5z" />
    <glyph glyph-name="uni0323" unicode="&#x323;" horiz-adv-x="0" 
d="M-222 -147q-3 -20 -20.5 -36.5t-41.5 -16.5q-22 0 -35 16t-10 37q4 20 21.5 36.5t41.5 16.5q22 0 35 -16t9 -37z" />
    <glyph glyph-name="uni0326" unicode="&#x326;" horiz-adv-x="0" 
d="M-229 -139q-8 -47 -34 -90t-48 -64t-29 -21q-10 0 -8 10q1 4 8 10q76 68 91 155v13q-20 -14 -38 -14q-23 0 -33 14t-7 34q2 18 17.5 32.5t37.5 14.5q27 0 38.5 -25.5t4.5 -68.5z" />
    <glyph glyph-name="uni032E" unicode="&#x32e;" horiz-adv-x="0" 
d="M-108 -49q-18 -104 -70 -150t-113 -46q-64 0 -99 48t-18 148h22q-15 -87 17 -124t85 -37q52 0 96 37.5t58 123.5h22z" />
    <glyph glyph-name="uni032F" unicode="&#x32f;" horiz-adv-x="0" 
d="M-141 -245h-22q14 87 -17.5 124t-84.5 37q-52 0 -96 -37.5t-58 -123.5h-22q17 104 69 150t114 46q64 0 99 -48t18 -148z" />
    <glyph glyph-name="uni0330" unicode="&#x330;" horiz-adv-x="0" 
d="M-76 -120q-26 -25 -36 -33.5t-33 -21t-45 -14.5h-9q-32 0 -87.5 19.5t-85.5 19.5q-42 0 -88 -39l-14 15q3 3 12 11.5t12 11.5t11.5 10.5t13 10t12.5 8t14 7.5t14 5t16.5 4t17.5 1q31 0 87 -19.5t86 -19.5q15 0 28.5 4t20 7.5t20.5 14t19 13.5z" />
    <glyph glyph-name="uni0331" unicode="&#x331;" horiz-adv-x="0" 
d="M-97 -163h-361l5 32h361z" />
    <glyph glyph-name="uni0332" unicode="&#x332;" horiz-adv-x="0" 
d="M-97 -163h-361l5 32h361z" />
    <glyph glyph-name="Alpha" unicode="&#x391;" horiz-adv-x="750" 
d="M718 0l-129 3q-107 0 -144 -3l5 31q89 0 95 32q-1 7 -1 13l-21 249h-246l-90 -218q-6 -13 -8 -21q-3 -22 16 -38t57 -17l-5 -31l-114 3q-39 0 -102 -3l5 31q54 0 79 20t38 52l362 870q5 13 10 17t16 4q10 0 13 -4t4 -17l75 -901q2 -25 15 -33t58 -8h17zM520 356l-38 458
l-192 -458h230z" />
    <glyph glyph-name="Beta" unicode="&#x392;" horiz-adv-x="708" 
d="M694 255q-18 -104 -94.5 -179.5t-173.5 -75.5h-390l5 31h24q54 0 68 9t19 38l134 805q5 29 -6 38t-65 9h-24l5 31h362q98 0 150.5 -70.5t36.5 -165.5q-14 -81 -73 -143.5t-139 -79.5q83 -9 130 -79t31 -168zM648 725q7 27 4 62.5t-10.5 67t-32 53.5t-61.5 22h-122
q-34 0 -42.5 -7t-13.5 -33l-63 -379h147q74 0 127 66t67 148zM594 256q13 87 -7 150q-9 29 -22.5 47.5t-30 25.5t-25.5 8.5t-23 1.5h-182l-70 -418q-5 -26 1.5 -33t40.5 -7h123q76 0 128 69.5t67 155.5z" />
    <glyph glyph-name="Gamma" unicode="&#x393;" horiz-adv-x="625" 
d="M704 733h-25q3 51 0 87.5t-17.5 60t-45.5 35t-84 11.5h-103q-34 0 -43 -7t-13 -33l-135 -808q-4 -17 -1.5 -28t22.5 -15.5t66 -4.5h33l-5 -31q-35 3 -167 3q-117 0 -153 -3l5 31h24q54 0 68 9t19 38l134 802q5 29 -6 38t-65 9h-24l5 31h521z" />
    <glyph glyph-name="Delta" unicode="&#x394;" horiz-adv-x="833" 
d="M788 9q-2 -9 -25 -9h-694h-10.5t-6.5 1t-4 3t0 5q0 5 5 12l501 953q10 20 28 20q11 0 14.5 -4t5.5 -17l185 -952q0 -1 0.5 -6t0.5 -6zM681 76l-152 787l-414 -787h566z" />
    <glyph glyph-name="Epsilon" unicode="&#x395;" horiz-adv-x="681" 
d="M695 258l-85 -258h-577l5 31h24q54 0 68 9t19 38l134 802q5 29 -6 38t-65 9h-24l5 31h563l-10 -225h-25q6 112 -24 153t-139 41h-129q-34 0 -43 -7t-13 -33l-62 -374h90q69 0 92.5 24t34.5 93h25l-44 -265h-25q11 68 -4.5 92.5t-84.5 24.5h-90l-68 -411q-5 -26 1.5 -33
t40.5 -7h133q51 0 88 9.5t62 25t45 47t32.5 62t30.5 83.5h25z" />
    <glyph glyph-name="Zeta" unicode="&#x396;" horiz-adv-x="611" 
d="M605 267l-62 -267h-461q-17 0 -21 2.5t-2 14.5q1 10 9 21l547 892h-164q-113 0 -162.5 -48.5t-71.5 -145.5h-25l48 225h448q12 0 16 -0.5t6.5 -4t1.5 -11.5q-1 -7 -10 -20l-546 -891h172q67 0 112 15.5t72 50t40.5 70.5t27.5 97h25z" />
    <glyph glyph-name="Eta" unicode="&#x397;" horiz-adv-x="750" 
d="M716 0q-34 3 -147 3q-112 0 -148 -3l5 31h24q54 0 68 9t19 38l68 406h-299l-68 -406q-5 -29 6 -38t65 -9h24l-5 -31q-34 3 -147 3q-112 0 -148 -3l5 31h24q54 0 68 9t19 38l134 805q5 29 -6 38t-65 9h-24l5 31q35 -3 148 -3q112 0 147 3l-5 -31h-24q-54 0 -68 -9t-19 -38
l-61 -368h299l61 368q5 29 -6 38t-65 9h-24l5 31q35 -3 148 -3q112 0 147 3l-5 -31h-24q-54 0 -68 -9t-19 -38l-134 -805q-5 -29 6 -38t65 -9h24z" />
    <glyph glyph-name="Theta" unicode="&#x398;" horiz-adv-x="778" 
d="M801 478q-36 -213 -159 -356.5t-258 -143.5q-133 0 -208.5 142.5t-39.5 357.5q23 142 89 259t153 181.5t175 64.5q86 0 151 -63.5t93 -181t4 -260.5zM704 478q30 172 9 279.5t-64 155.5t-100 48q-93 0 -184.5 -123t-131.5 -360q-19 -128 -14.5 -218.5t31 -148t62 -84
t77.5 -26.5q32 0 66.5 16t72 52.5t70 90t61 136t45.5 182.5zM633 395h-25l8 48h-307l-8 -48h-25l29 172h25l-8 -48h307l8 48h25z" />
    <glyph glyph-name="Iota" unicode="&#x399;" horiz-adv-x="361" 
d="M333 0q-34 3 -152 3q-117 0 -153 -3l5 31h26q56 0 70.5 9t19.5 38l134 805q5 29 -6.5 38t-67.5 9h-26l5 31q35 -3 152 -3q118 0 153 3l-5 -31h-26q-56 0 -70.5 -9t-19.5 -38l-134 -805q-5 -29 6.5 -38t67.5 -9h26z" />
    <glyph glyph-name="Kappa" unicode="&#x39a;" horiz-adv-x="778" 
d="M736 0l-111 3q-104 0 -141 -3l5 31q69 0 75 36v7q0 11 -4 23l-131 421l-144 -159l-47 -281q-5 -29 6 -38t65 -9h24l-5 -31q-34 3 -147 3q-112 0 -148 -3l5 31h24q54 0 68 9t19 38l134 805q5 29 -6 38t-65 9h-24l5 31q35 -3 148 -3q112 0 147 3l-5 -31h-24q-54 0 -68 -9
t-19 -38l-80 -482l418 460q11 13 14 24q2 15 -11.5 29.5t-46.5 15.5l5 31q34 -3 126 -3q58 0 85 3l-5 -31q-78 -4 -131 -63l-250 -276l157 -505q12 -37 29 -46t59 -9z" />
    <glyph glyph-name="Lambda" unicode="&#x39b;" horiz-adv-x="694" 
d="M662 0l-121 3q-108 0 -144 -3l5 31q90 0 95 31v15l-47 718h-1l-274 -686q-7 -19 -7 -22q-4 -23 15.5 -39t58.5 -17l-5 -31l-112 3l-94 -3l5 31q76 0 104 68l348 873q4 10 6 13.5t6.5 6t12.5 2.5q11 0 13 -4t3 -18l59 -900q2 -29 16 -35t63 -6z" />
    <glyph glyph-name="Mu" unicode="&#x39c;" horiz-adv-x="917" 
d="M879 0q-36 3 -142 3q-107 0 -145 -3l5 31h24q54 0 68 9t19 38l140 839l-399 -897q-8 -20 -19 -20t-13 20l-98 886l-133 -801q-4 -10 -2.5 -23t7 -24t27.5 -19t58 -8l-5 -31l-116 3l-118 -3l5 31q36 0 60 7t35 20.5t14.5 22.5t6.5 24l129 778q5 29 -6 38t-65 9h-24l5 31
h169q19 0 22.5 -3t5.5 -17l88 -800l353 800q6 14 11.5 17t23.5 3h169l-5 -31h-24q-54 0 -68 -9t-19 -38l-134 -805q-5 -29 6 -38t65 -9h24z" />
    <glyph glyph-name="Nu" unicode="&#x39d;" horiz-adv-x="750" 
d="M871 930q-36 0 -60 -7t-35 -20.5t-14.5 -23t-5.5 -23.5l-139 -830q-2 -11 -3 -15.5t-4.5 -7.5t-10.5 -3t-9 2.5t-5 12.5l-272 872h-1l-130 -782q-4 -10 -2.5 -23t7 -24t27.5 -19t58 -8l-5 -31l-116 3l-118 -3l5 31q36 0 60 7t35 20.5t14.5 22.5t6.5 24l136 817
q-24 8 -74 8h-28l5 31h165q15 0 18.5 -2t7.5 -13l233 -749h1l110 659q4 10 2 23t-7.5 24t-27.5 19t-58 8l5 31l117 -3l117 3z" />
    <glyph glyph-name="Xi" unicode="&#x39e;" horiz-adv-x="667" 
d="M752 799h-25q8 63 1 78q-4 8 -74 8h-346q-70 0 -78 -8q-11 -13 -25 -78h-25l34 156h556zM652 167l-36 -167h-566l20 167h25q-8 -73 -3 -87q6 -10 79 -10h348q74 0 82 11t26 86h25zM596 411h-25l8 51h-338l-8 -51h-25l28 172h25l-8 -51h338l8 51h25z" />
    <glyph glyph-name="Omicron" unicode="&#x39f;" horiz-adv-x="778" 
d="M801 478q-36 -213 -159 -356.5t-258 -143.5q-133 0 -208.5 142.5t-39.5 357.5q23 142 89 259t153 181.5t175 64.5q86 0 151 -63.5t93 -181t4 -260.5zM701 497q19 131 14 219t-33 142t-61.5 77t-72.5 23q-38 0 -79.5 -24t-86 -74t-82 -144.5t-58.5 -218.5q-40 -243 8 -368
t140 -125q42 0 86 28.5t87.5 85.5t80 155t57.5 224z" />
    <glyph glyph-name="Pi" unicode="&#x3a0;" horiz-adv-x="750" 
d="M716 0q-34 3 -147 3q-112 0 -148 -3l5 31h24q54 0 68 9t19 38l142 849h-299l-142 -849q-5 -29 6 -38t65 -9h24l-5 -31q-34 3 -147 3q-112 0 -148 -3l5 31h24q54 0 68 9t19 38l134 802q5 29 -6 38t-65 9h-24l5 31h683l-5 -31h-24q-54 0 -68 -9t-19 -38l-134 -802
q-5 -29 6 -38t65 -9h24z" />
    <glyph glyph-name="Rho" unicode="&#x3a1;" horiz-adv-x="681" 
d="M742 706q-18 -106 -99 -178.5t-175 -72.5h-165l-63 -377q-5 -29 6 -38t65 -9h24l-5 -31q-34 3 -147 3q-112 0 -148 -3l5 31h24q54 0 68 9t19 38l134 805q5 29 -6 38t-65 9h-24l5 31h350q104 0 159 -76t38 -179zM639 706q6 38 8.5 58t0 50.5t-14.5 51.5q-31 64 -120 64
h-85q-34 0 -42.5 -7t-13.5 -33l-68 -409h134q90 0 144 67q18 22 30 52t16 48.5t11 57.5z" />
    <glyph glyph-name="Sigma" unicode="&#x3a3;" horiz-adv-x="722" 
d="M704 236l-67 -236h-555h-10.5t-7.5 1t-5 3.5t0 6.5t8 14l309 398l-164 515q3 17 7.5 20t22.5 3h555l-9 -225h-25q3 62 -6 100t-36.5 59t-65 28t-101.5 7h-240l137 -434l3 -15q0 -4 -9 -15l-329 -424h284q130 0 187.5 37.5t91.5 156.5h25z" />
    <glyph glyph-name="Tau" unicode="&#x3a4;" horiz-adv-x="722" 
d="M807 730h-25q10 79 1 122t-40.5 57.5t-108.5 14.5q-46 0 -57 -2q-9 -2 -14 -8t-6.5 -11.5t-4.5 -18.5l-134 -805q-3 -17 -0.5 -27.5t24.5 -15.5t73 -5h40l-5 -31q-40 3 -189 3q-148 0 -190 -3l5 31h40q73 0 91 9.5t22 38.5l134 805q4 17 2 26t-16 12q-10 2 -54 2
q-59 0 -91.5 -6.5t-56 -31t-35.5 -57t-29 -99.5h-25l56 225h611z" />
    <glyph glyph-name="Upsilon" unicode="&#x3a5;" horiz-adv-x="778" 
d="M851 779q-2 -9 -3 -12.5t-5 -6t-12 -2.5q-10 0 -11.5 4.5t0.5 15.5q6 54 -14 91t-65 37q-83 0 -134.5 -88t-81.5 -268l-79 -471q-4 -17 -1.5 -28t22.5 -15.5t66 -4.5h33l-5 -31q-35 3 -172 3q-136 0 -173 -3l5 31h33q66 0 82.5 9.5t20.5 38.5l79 471q31 172 8.5 264
t-106.5 92q-40 0 -74 -34t-48 -98q-2 -6 -3.5 -9t-5 -5t-9.5 -2q-11 0 -13 5t1 16q1 11 8.5 37t25 67t52.5 70.5t80 29.5q168 0 155 -272h1q13 52 32 96t48 86t71.5 66t93.5 24q37 0 60.5 -21.5t31.5 -48.5t9.5 -60.5t-0.5 -50t-3 -23.5z" />
    <glyph glyph-name="Phi" unicode="&#x3a6;" horiz-adv-x="722" 
d="M745 480q-19 -116 -110.5 -202.5t-205.5 -99.5l-17 -99q-4 -17 -1.5 -28t22.5 -15.5t66 -4.5h33l-5 -31q-35 3 -169 3q-133 0 -170 -3l5 31h33q66 0 82.5 9.5t20.5 38.5l17 99q-110 17 -169.5 103t-40.5 200q19 112 107 198t204 104l16 99q4 17 1.5 28t-22.5 15.5
t-66 4.5h-33l5 31q36 -3 169 -3q134 0 170 3l-5 -31h-33q-46 0 -68 -6t-26.5 -13.5t-8.5 -28.5l-16 -99q109 -13 172 -99t43 -204zM350 202l93 557q-34 -8 -63.5 -25.5t-49 -36t-36 -46t-25 -47.5t-16.5 -48.5t-10.5 -41.5t-6.5 -34q-4 -25 -5.5 -40.5t-3.5 -49.5t4.5 -58.5
t18.5 -52.5t38 -47.5t62 -29.5zM645 481q41 244 -119 279l-93 -559q172 35 212 280z" />
    <glyph glyph-name="Chi" unicode="&#x3a7;" horiz-adv-x="750" 
d="M729 0l-126 3q-107 0 -144 -3l5 31q32 1 55 11t25 20q1 6 -1 13l-116 368l-222 -341q-8 -10 -9 -19q-3 -18 15.5 -34.5t52.5 -17.5l-5 -31q-35 3 -127 3l-112 -3l5 31q99 0 142 66l249 382l-129 413q-7 23 -22 30.5t-59 7.5h-17l5 31l127 -3q107 0 143 3l-5 -31
q-30 -1 -54 -11t-26 -20q-1 -4 3 -14l96 -310l187 286l3 7q3 6 4 10q3 16 -14 33.5t-54 18.5l5 31q40 -3 127 -3l111 3l-5 -31q-99 0 -141 -65l-212 -325l148 -470q7 -23 20 -31t60 -8h17z" />
    <glyph glyph-name="Psi" unicode="&#x3a8;" horiz-adv-x="778" 
d="M849 776q-1 -9 -15 -11q-35 -5 -52.5 -49.5t-32.5 -136.5q-4 -25 -7.5 -42.5t-15 -59.5t-25 -73.5t-37 -72.5t-51 -69t-68.5 -51.5t-88 -31.5l-17 -100q-4 -17 -1.5 -28t22.5 -15.5t66 -4.5h33l-5 -31q-35 3 -169 3q-133 0 -170 -3l5 31h33q66 0 82.5 9.5t20.5 38.5
l17 100q-211 41 -151 411q8 48 10 82t0.5 51.5t-9 27t-13.5 11.5t-17 3q-8 1 -8 11q2 11 27 11h37q30 0 45.5 -13t22 -53.5t-8.5 -116.5q-6 -37 -10 -63.5t-8.5 -73.5t-1.5 -83t11 -74.5t28 -65t50 -39.5l113 677q4 17 1.5 28t-22.5 15.5t-66 4.5h-33l5 31q36 -3 169 -3
q134 0 170 3l-5 -31h-33q-46 0 -68 -6t-26.5 -13.5t-8.5 -28.5l-113 -677q40 13 73 47t54 72.5t37.5 88t24 83.5t13.5 69q7 43 11 62t11.5 51.5t15.5 47t20.5 31.5t29 23.5t38.5 6.5h38q14 0 18.5 -1.5t3.5 -9.5z" />
    <glyph glyph-name="Omega" unicode="&#x3a9;" horiz-adv-x="722" 
d="M704 162l-60 -162h-159q-19 0 -22 3t0 21q15 94 105 309q83 201 101 308q26 156 -23 238t-126 82q-34 0 -70.5 -18t-73 -54t-66.5 -100.5t-44 -147.5q-18 -109 -2 -298q18 -219 2 -319q-3 -18 -7 -21t-22 -3h-160l-6 162h25q0 -2 1 -18t2 -33t3 -25q1 -7 4 -11t17.5 -7
t41.5 -3h82q2 42 -5.5 90.5t-15.5 81t-28 101.5q-13 47 -20.5 77t-15 74.5t-6 74t6.5 76.5q24 145 130.5 244t231.5 99q123 0 197 -99t50 -244q-12 -72 -45.5 -140.5t-95.5 -170.5q-37 -60 -57.5 -94t-43 -81t-34.5 -89h82q41 0 52.5 5t18.5 19q14 27 30 73h25z" />
    <glyph glyph-name="baht" unicode="&#xe3f;" horiz-adv-x="708" 
d="M695 256q-14 -82 -68.5 -151t-132.5 -94q-32 -10 -92 -10l-9 -56h-31l9 56h-335l5 31q5 0 17.5 -0.5t19.5 -0.5q66 0 73 40l137 821q4 24 -14 31.5t-51 7.5h-32l5 31h335l12 67h31l-12 -67q99 0 148.5 -72.5t34.5 -163.5q-13 -79 -72 -141.5t-140 -81.5v-1q32 0 68 -20
q58 -33 82 -94t12 -132zM376 32l77 458h-149l-71 -426q-3 -18 5 -25t26 -7h112zM456 512l70 419h-112q-38 0 -42 -34l-65 -385h149zM594 254q8 32 5.5 72.5t-10.5 77t-35.5 61.5t-69.5 25l-77 -458q49 1 91 39t65 86.5t31 96.5zM647 728l2 10q5 39 0.5 79.5t-27.5 76.5
t-65 37l-69 -416q69 26 108 83.5t51 129.5z" />
    <glyph glyph-name="Ddotbelow" unicode="&#x1e0c;" horiz-adv-x="764" 
d="M786 472q-34 -199 -146.5 -335.5t-240.5 -136.5h-364l5 31h24q54 0 68 9t19 38l134 805q5 29 -6 38t-65 9h-24l5 31h363q87 0 147 -66.5t81.5 -178.5t-0.5 -244zM686 473q30 180 12 282q-5 25 -14 48.5t-27.5 55.5t-52.5 51.5t-78 19.5h-98q-34 0 -42.5 -7t-13.5 -33
l-136 -819q-5 -26 1.5 -33t40.5 -7h98q131 0 224 158q54 95 86 284zM351 -147q-3 -20 -20.5 -36.5t-41.5 -16.5q-22 0 -35 16t-10 37q4 20 21.5 36.5t41.5 16.5q22 0 35 -16t9 -37z" />
    </font>
</defs>
</svg>
