<?xml version="1.0" standalone="no"?>
<!DOCTYPE svg PUBLIC "-//W3C//DTD SVG 1.1//EN" "http://www.w3.org/Graphics/SVG/1.1/DTD/svg11.dtd" >
<svg>
<metadata>
Created by FontForge 20120731 at Mon Jul 14 22:19:44 2014
 By tom,,,
Copyright 2003, 2009 B. Jackowski and J. M. Nowacki (on behalf of TeX users groups). This work is released under the GUST Font License --  see http://tug.org/fonts/licenses/GUST-FONT-LICENSE.txt for details.
</metadata>
<defs>
<font id="lmroman7-italic" horiz-adv-x="603" >
  <font-face 
    font-family="LM Roman 7"
    font-weight="400"
    font-style="italic"
    font-stretch="normal"
    units-per-em="1000"
    panose-1="0 0 5 0 0 0 0 0 0 0"
    ascent="806"
    descent="-194"
    x-height="441"
    cap-height="683"
    bbox="-528 -292 1571 1123"
    underline-thickness="34"
    underline-position="-68"
    slope="-14.0362"
    unicode-range="U+0020-FB04"
  />
<missing-glyph horiz-adv-x="280" 
 />
    <glyph glyph-name="I_J" unicode="IJ" horiz-adv-x="1026" 
d="M536 668q0 -10 -4.5 -14.5t-10 -5.5t-17.5 -1q-36 0 -52.5 -4t-21 -11t-9.5 -26l-133 -533q-4 -14 -4 -20t1 -8t6 -4t16 -3l38 -2q11 0 15.5 -0.5t9 -3.5t4.5 -10q0 -22 -21 -22q-20 0 -62.5 2t-63.5 2q-20 0 -62 -2t-62 -2q-6 0 -10 3.5t-5 6.5v4q0 11 4.5 15.5t10 5.5
t18.5 1q49 0 62.5 7.5t19.5 33.5l133 531q4 14 4 23q0 11 -14 13.5t-47 2.5q-30 0 -30 14q0 22 22 22q20 0 62 -2t63 -2q20 0 62.5 2t61.5 2q16 0 16 -15zM1094 669q0 -10 -4.5 -15.5t-8.5 -6t-12 -0.5q-35 0 -45 -6.5t-16 -32.5l-117 -470q-15 -63 -78.5 -110.5
t-138.5 -47.5q-60 0 -98 30.5t-38 78.5q0 37 18 54.5t41 17.5t32 -12.5t9 -25.5q0 -17 -13 -35.5t-42 -21.5q8 -28 33.5 -43t55.5 -15q43 0 84 40.5t56 100.5l114 457q4 15 4 21q0 10 -4.5 13t-23.5 5q-18 2 -46 2h-11q-28 0 -28 14q0 10 4.5 15.5t8 6t9.5 0.5q22 0 70.5 -2
t71.5 -2q16 0 50 2t49 2q14 0 14 -14z" />
    <glyph glyph-name="i_j" unicode="ij" horiz-adv-x="700" 
d="M369 609q0 -26 -21.5 -47t-48.5 -21q-21 0 -34.5 14t-13.5 33q0 25 21 46.5t49 21.5q21 0 34.5 -13t13.5 -34zM741 609q0 -26 -21.5 -47t-48.5 -21q-21 0 -34.5 14t-13.5 33q0 25 21 46.5t49 21.5q21 0 34.5 -13t13.5 -34zM386 143q0 -8 -9 -31t-25.5 -51t-46 -49.5
t-64.5 -21.5q-39 0 -64 24.5t-25 59.5q0 18 24 80l35 93l27 69q16 42 16 63q0 34 -25 34q-63 0 -99 -125q-2 -9 -6 -11t-15 -2q-21 0 -21 13q0 14 14.5 48t50 69.5t79.5 35.5q40 0 65 -24.5t25 -59.5q0 -16 -6 -33l-66 -173q-30 -74 -30 -99q0 -34 24 -34q34 0 59.5 36
t37.5 81q4 14 7.5 17.5t16.5 3.5q21 0 21 -13zM596 -52q-16 -66 -74.5 -109t-123.5 -43q-43 0 -68.5 16t-25.5 43q0 22 15 37.5t35 15.5q16 0 26 -9.5t10 -24.5q0 -28 -26 -43q16 -7 34 -7q43 0 77.5 39t46.5 86l95 382q4 16 4 34q0 48 -33 48q-29 0 -63 -28.5t-62 -93.5
q-5 -11 -8 -13.5t-15 -2.5q-21 0 -21 12q0 8 12 31.5t33 51.5t55.5 49.5t71.5 21.5q44 0 72.5 -26.5t28.5 -66.5q0 -14 -5 -34z" />
    <glyph glyph-name="f_k" unicode="fk" horiz-adv-x="933" 
d="M957 143q0 -3 -4 -17.5t-14 -37.5t-23.5 -45t-36.5 -37.5t-50 -15.5q-45 0 -73 29.5t-28 71.5q0 13 4 28q3 15 3 25q0 39 -36 58t-85 24l-47 -188q-4 -14 -7 -22t-13 -17t-25 -9q-14 0 -23 8t-9 22q0 7 4 21l89 354h-274l-57 -312q-22 -119 -52 -189q-4 -9 -12.5 -22.5
t-24 -32t-38 -31t-47.5 -12.5q-37 0 -66 17.5t-29 49.5q0 23 14.5 39t36.5 16q35 0 35 -34q0 -32 -32 -45q16 -15 42 -15q9 0 14.5 1.5t15.5 12.5t18.5 32t20 64t22.5 104l66 357h-72q-16 0 -22 2t-6 12t4.5 15t9.5 6t16 1h76q24 123 26 129q11 41 32 70t42 43t52 21.5
t49 8.5t48 1q78 0 114.5 -14t37.5 -50h1l4 16t5 19q4 14 8 16.5t21 2.5h20h11.5t8 -1.5t6 -4t0.5 -6.5l-4 -17l-100 -400q40 17 112 88q88 88 153 88q34 0 54 -19.5t20 -47.5q0 -26 -15 -41.5t-36 -15.5q-35 0 -35 34q0 37 38 48q-7 14 -28 14q-23 0 -50 -14t-46 -30
t-47 -44q-49 -49 -85 -73q150 -19 150 -106q0 -8 -5 -33q-6 -24 -6 -45q0 -50 34 -50q51 0 80 118q4 13 7.5 16.5t16.5 3.5q21 0 21 -13zM592 431l43 173h-1q-4 -8 -16 -15t-26 -7q-35 0 -35 34q0 30 29 45q-28 15 -95 15q-97 0 -127 -50q-20 -33 -48 -195h276z" />
    <glyph glyph-name="f_f" unicode="ff" horiz-adv-x="737" 
d="M871 637q0 -23 -14.5 -39t-36.5 -16q-35 0 -35 34q0 31 30 46q-19 14 -49 14q-17 0 -30 -10t-20.5 -30t-11 -33.5t-7.5 -36.5l-25 -135h90q28 0 28 -14q0 -10 -4.5 -15t-9.5 -6t-16 -1h-94l-57 -308q-17 -93 -46 -164q-25 -59 -76.5 -93t-107.5 -34q-48 0 -83 15.5
t-35 51.5q0 23 14.5 39t36.5 16q35 0 35 -34q0 -30 -29 -45q25 -15 63 -15q40 0 79 39q17 17 25 32t19 52q15 53 27 117l61 331h-282l-58 -314q-51 -285 -174 -285q-37 0 -66 17.5t-29 49.5q0 23 14.5 39t36.5 16q35 0 35 -34q0 -32 -32 -45q16 -15 43 -15q39 0 62 88
q18 71 30 135l64 348h-72q-28 0 -28 14q0 10 4.5 15t9.5 6t16 1h77q18 102 28.5 140t30.5 67q48 66 165 66q132 0 132 -67q0 -23 -14.5 -39t-36.5 -16q-35 0 -35 34q0 30 29 45q-27 15 -74 15q-64 0 -98 -36q-16 -18 -38 -123l-16 -86h282l24 123q29 150 144 150
q44 0 74.5 -17.5t30.5 -49.5z" />
    <glyph glyph-name="f_i" unicode="fi" horiz-adv-x="678" 
d="M696 143q0 -3 -4 -18.5t-13.5 -41t-20.5 -42.5q-31 -51 -79 -51q-38 0 -68.5 24t-30.5 70q0 14 5 34l69 277h-245l-57 -313q-10 -55 -24 -106q-6 -24 -14 -45.5t-26 -57t-46.5 -56.5t-63.5 -21q-37 0 -66 17.5t-29 49.5q0 23 14.5 39t36.5 16q35 0 35 -34q0 -32 -32 -45
q16 -15 43 -15q8 0 13.5 1.5t15.5 12t18.5 31t19.5 62.5t22 101l67 363h-72q-10 0 -15 0.5t-9 3.5t-4 10q0 10 4.5 15t9.5 6t16 1h77q20 111 33.5 150t50.5 76q49 47 181 47q36 0 58 -1.5t54 -8t48.5 -22.5t16.5 -42q0 -25 -15 -41.5t-36 -16.5q-16 0 -26 9.5t-10 24.5
t10 28.5t24 18.5q-29 23 -123 23q-26 0 -45 -2.5t-35 -5t-28.5 -12t-21.5 -16t-17 -25.5t-13 -30.5t-11.5 -42t-10 -49.5t-11.5 -62h291q26 0 26 -12q0 -7 -2 -13l-75 -300q-6 -18 -6 -41q0 -47 32 -47q13 0 24 9t19 28t13 34t12 40q5 19 8.5 23t16.5 4q21 0 21 -13z" />
    <glyph glyph-name="f_l" unicode="fl" horiz-adv-x="707" 
d="M725 143q0 -3 -4 -18.5t-13.5 -41t-20.5 -42.5q-31 -51 -79 -51q-38 0 -68.5 24t-30.5 70q0 14 5 34l69 277h-274l-57 -312q-22 -119 -52 -189q-4 -9 -12.5 -22.5t-24 -32t-38 -31t-47.5 -12.5q-37 0 -66 17.5t-29 49.5q0 23 14.5 39t36.5 16q35 0 35 -34q0 -32 -32 -45
q16 -15 42 -15q9 0 14.5 1.5t15.5 12.5t18.5 32t20 64t22.5 104l66 357h-72q-16 0 -22 2t-6 12t4.5 15t9.5 6t16 1h76q24 123 26 129q11 41 32 70t42 43t52 21.5t49 8.5t48 1q78 0 114.5 -14t37.5 -50h1l4 16t5 19q4 14 8 16.5t21 2.5h20q10 0 14.5 -0.5t8 -3t3.5 -8.5
l-143 -575q-6 -23 -6 -42q0 -47 32 -47q13 0 24 9t19 28t13 34t12 40q5 19 8.5 23t16.5 4q21 0 21 -13zM592 431l43 173h-1q-4 -8 -16 -15t-26 -7q-35 0 -35 34q0 30 29 45q-28 15 -95 15q-97 0 -127 -50q-20 -33 -48 -195h276z" />
    <glyph glyph-name="f_f_i" unicode="&#xfb00;i" horiz-adv-x="1061" 
d="M1079 143q0 -3 -4 -18.5t-13.5 -41t-20.5 -42.5q-31 -51 -79 -51q-38 0 -68.5 24t-30.5 70q0 14 5 34l69 277h-260l-56 -307q-31 -154 -70 -208q-11 -15 -29 -31.5t-57 -34.5t-80 -18q-124 0 -124 67q0 23 14.5 39t36.5 16q35 0 35 -34q0 -30 -29 -45q26 -15 68 -15
q40 0 79 33q14 13 23 25.5t13 22t10 28.5q19 58 32 132l61 330h-294l-58 -315q-9 -50 -24 -102q-46 -182 -150 -182q-36 0 -65.5 17.5t-29.5 49.5q0 23 14.5 39t36.5 16q35 0 35 -34q0 -33 -32 -46q17 -14 43 -14q38 0 62 87q16 60 30 135l64 349h-71q-29 0 -29 14
q0 10 4.5 15t10 6t16.5 1h76l18 98q9 47 27 81t38.5 51.5t50 27.5t52 12.5t53.5 2.5q146 0 146 -66q0 -25 -15 -40.5t-36 -15.5q-35 0 -35 34q0 30 29 45q-27 15 -88 15q-35 0 -60 -7.5t-39 -18t-24.5 -34.5t-15 -42t-11.5 -56q-4 -16 -17 -87h295q18 100 30.5 140.5
t41.5 71.5q26 28 63 42t64.5 16.5t75.5 2.5q30 0 47.5 -0.5t46.5 -4.5t45.5 -11t29.5 -21.5t13 -35.5q0 -27 -15.5 -43t-35.5 -16q-16 0 -26 9.5t-10 24.5q0 12 8.5 26.5t26.5 20.5q-31 23 -131 23q-89 0 -124.5 -26t-54.5 -105l-22 -114h306q26 0 26 -12q0 -7 -2 -13
l-75 -300q-6 -18 -6 -41q0 -47 32 -47q13 0 24 9t19 28t13 34t12 40q5 19 8.5 23t16.5 4q21 0 21 -13z" />
    <glyph glyph-name="f_f_l" unicode="ffl" horiz-adv-x="1075" 
d="M1093 143q0 -3 -4 -18.5t-13.5 -41t-20.5 -42.5q-31 -51 -79 -51q-38 0 -68.5 24t-30.5 70q0 14 5 34l69 277h-274l-57 -311q-27 -149 -70 -205q-25 -31 -67.5 -57t-97.5 -26q-124 0 -124 67q0 23 14.5 39t36.5 16q35 0 35 -34q0 -30 -29 -45q26 -15 68 -15
q28 0 55.5 17.5t37 29t16.5 21.5q20 37 48 176l61 327h-295l-57 -313q-10 -55 -25 -107q-47 -179 -149 -179q-37 0 -66 17.5t-29 49.5q0 23 14.5 39t36.5 16q35 0 35 -34q0 -32 -32 -45q16 -15 43 -15q16 0 27 10.5t28 58.5t34 139l67 363h-72q-10 0 -15 0.5t-9 3.5t-4 10
q0 10 4.5 15t9.5 6t16 1h77l18 100q18 98 69.5 135.5t136.5 37.5q132 0 132 -67q0 -23 -14.5 -39t-36.5 -16q-35 0 -35 34q0 30 29 45q-27 15 -74 15q-92 0 -115 -72q-12 -33 -37 -173h294l19 101q8 41 22.5 72t36 49t40.5 29.5t47 15.5t43 5t40 1q79 0 115.5 -13.5
t37.5 -50.5h1l4 16t5 19q4 14 8 16.5t21 2.5h20q10 0 14.5 -0.5t8 -3t3.5 -8.5l-143 -575q-6 -23 -6 -42q0 -47 32 -47q13 0 24 9t19 28t13 34t12 40q5 19 8.5 23t16.5 4q21 0 21 -13zM960 431l43 173h-1q-4 -8 -16 -15t-26 -7q-35 0 -35 34q0 30 29 45q-28 15 -95 15
q-20 0 -36 -1t-30 -5.5t-23.5 -8t-19 -14t-15.5 -17.5t-12.5 -26t-10 -30.5t-9.5 -39.5t-9 -46.5t-10 -56.5h276z" />
    <glyph glyph-name=".notdef" horiz-adv-x="280" 
 />
    <glyph glyph-name=".null" horiz-adv-x="0" 
 />
    <glyph glyph-name="nonmarkingreturn" horiz-adv-x="333" 
 />
    <glyph glyph-name="space" unicode=" " horiz-adv-x="427" 
 />
    <glyph glyph-name="exclam" unicode="!" horiz-adv-x="368" 
d="M402 645l-143 -434q-4 -12 -8 -14.5t-16 -2.5q-21 0 -21 13l75 445q5 33 27.5 47.5t42.5 14.5q19 0 33.5 -12t14.5 -33q0 -9 -5 -24zM257 68q0 -25 -21 -46.5t-49 -21.5q-21 0 -34.5 13t-13.5 34q0 26 21.5 47t48.5 21q22 0 35 -14t13 -33z" />
    <glyph glyph-name="quotedbl" unicode="&#x22;" horiz-adv-x="484" 
d="M388 666l-77 -244h-42l45 244q2 15 16 26t30 11t24 -10.5t4 -26.5zM504 666l-77 -244h-42l45 244q2 15 16 26t30 11t24 -10.5t4 -26.5z" />
    <glyph glyph-name="numbersign" unicode="#" horiz-adv-x="956" 
d="M893 140q0 -24 -37 -24h-241l-155 -290q-10 -20 -25 -20q-9 0 -16.5 6.5t-7.5 18.5q0 7 7 20l142 265h-185l-155 -290q-10 -20 -25 -20q-9 0 -16.5 6.5t-7.5 18.5q0 7 7 20l142 265h-151q-38 0 -38 25q0 24 38 24h178l90 171h-213q-38 0 -38 25q0 24 38 24h240l155 289
q10 20 25 20q9 0 16.5 -6.5t7.5 -18.5q0 -7 -7 -20l-141 -264h184l155 289q10 20 25 20q9 0 16.5 -6.5t7.5 -18.5q0 -7 -7 -20l-141 -264h151q37 0 37 -25q0 -24 -37 -24h-179l-90 -171h214q37 0 37 -25zM677 336h-185l-90 -171h185z" />
    <glyph glyph-name="dollar" unicode="$" horiz-adv-x="531" 
d="M525 228q-8 -90 -80.5 -160.5t-165.5 -76.5l-11 -47h-33l11 47q-78 4 -116 47.5t-32 108.5q9 84 63 84q15 0 27.5 -10t11.5 -31q-2 -22 -18.5 -37.5t-39.5 -15.5q-10 0 -13 1q-1 -58 36 -85t90 -30l73 295q-45 11 -66.5 21t-42.5 33q-42 46 -37 112q6 75 69.5 139.5
t160.5 78.5q9 2 11.5 4.5t5.5 13.5l7 30h33l-11 -47q71 -3 113 -40.5t36 -106.5q-5 -79 -61 -79q-14 0 -27.5 9t-11.5 32q2 22 19 37.5t39 15.5q9 0 11 -1q0 50 -39 76q-39 22 -87 25l-67 -267q75 -18 106 -54q41 -49 36 -122zM417 670q-70 -8 -118.5 -52t-53.5 -96
q-2 -29 8 -50t30.5 -33.5t34 -17.5t33.5 -10zM463 190q8 94 -103 120l-72 -286q69 8 119.5 58.5t55.5 107.5z" />
    <glyph glyph-name="percent" unicode="%" horiz-adv-x="956" 
d="M951 725q0 -9 -12 -22l-716 -746q-13 -13 -22 -13q-11 0 -18 7.5t-7 17.5q0 7 12 21l619 646v1q-61 -24 -124 -24q-86 0 -152 43l4 -41q0 -97 -61.5 -182.5t-135.5 -85.5q-49 0 -81 39.5t-32 101.5q0 96 65.5 179t142.5 83q19 0 34 -6.5t22 -12.5t18 -18q68 -73 177 -73
q129 0 222 99q11 11 21 11q9 0 16.5 -6.5t7.5 -18.5zM903 211q0 -97 -62 -182t-134 -85q-51 0 -82.5 40t-31.5 101q0 96 65.5 179t142.5 83q45 0 73.5 -36.5t28.5 -99.5zM494 620q0 37 -14.5 69.5t-47.5 32.5q-25 0 -51.5 -22t-44.5 -57q-20 -38 -34.5 -94.5t-14.5 -91.5
q0 -44 15.5 -63t37.5 -19q53 0 103.5 80t50.5 165zM862 217q0 44 -16 73t-45 29q-44 0 -79.5 -52.5t-51 -111.5t-15.5 -101q0 -40 15 -61t38 -21q53 0 103.5 79.5t50.5 165.5z" />
    <glyph glyph-name="ampersand" unicode="&#x26;" horiz-adv-x="897" 
d="M838 298q0 -30 -9 -66t-36 -82t-68 -82.5t-113.5 -62t-164.5 -25.5q-140 0 -220.5 60.5t-80.5 142.5q0 40 26 98.5t74 104.5q-15 34 -15 73q0 96 73.5 175.5t161.5 79.5q58 0 92.5 -34.5t34.5 -84.5q0 -28 -12 -51t-41 -23q-35 0 -35 34q0 17 12 31.5t34 17.5
q-4 40 -28 61t-57 21q-72 0 -119.5 -85t-47.5 -174q55 34 112 34q33 0 54 -17.5t21 -47.5q0 -35 -32 -63.5t-76 -28.5q-57 0 -97 35q-20 -35 -35.5 -84.5t-15.5 -85.5q0 -82 63.5 -121.5t155.5 -39.5q87 0 153.5 25.5t101.5 60.5t57 78.5t28 72.5t6 49q0 37 -14 69t-47 77
q-46 -22 -69 -35.5t-44 -37.5t-21 -51q0 -12 7 -26q13 37 49 37t36 -35q0 -19 -14.5 -34.5t-37.5 -15.5q-32 0 -56.5 20t-24.5 56q0 25 11.5 47.5t34.5 41.5t37.5 28t40.5 24q30 16 46.5 26.5t41 29.5t43 42t32.5 53q-28 6 -28 33q0 21 15 36t36 15q15 0 25.5 -9t10.5 -25
q0 -8 -6 -27t-19 -47t-42 -61.5t-67 -59.5q21 -30 32.5 -48.5t23 -52t11.5 -66.5zM445 402q0 31 -34 31q-51 0 -102 -55q20 -46 71 -46q30 0 47.5 22t17.5 48z" />
    <glyph glyph-name="quotesingle" unicode="'" horiz-adv-x="368" 
d="M388 666l-77 -244h-42l45 244q2 15 16 26t30 11t24 -10.5t4 -26.5z" />
    <glyph glyph-name="parenleft" unicode="(" horiz-adv-x="486" 
d="M572 738q0 -7 -9 -13q-139 -106 -221 -269q-50 -101 -77 -214t-27 -202q0 -160 78 -257q12 -15 12 -20q0 -12 -13 -12q-14 0 -46.5 40.5t-50.5 82.5q-39 91 -39 201q0 215 127 425q27 45 61 86.5t64.5 70t58.5 50.5t45.5 32.5t22.5 10.5q14 0 14 -12z" />
    <glyph glyph-name="parenright" unicode=")" horiz-adv-x="486" 
d="M431 426q0 -94 -30 -204t-91 -211q-30 -50 -66.5 -94.5t-67.5 -73.5t-59.5 -51t-45 -31.5t-20.5 -9.5q-14 0 -14 12q0 5 12 15q79 60 139.5 141.5t94 157t54.5 156t27.5 134t6.5 94.5q0 160 -79 258q-11 13 -11 19q0 12 14 12q13 0 47 -42.5t54 -90.5q35 -86 35 -191z
" />
    <glyph glyph-name="asterisk" unicode="*" 
d="M607 449q0 -14 -12 -26t-26 -12q-6 0 -19 10l-108 89l-24 -154q-6 -37 -37 -37q-24 0 -24 21q0 4 5 17l52 153l-157 -92q-12 -7 -19 -7q-10 0 -16.5 7.5t-6.5 16.5q0 22 30 34l160 66l-127 64q-16 8 -16 22t12 25.5t25 11.5q7 0 19 -10l108 -89l24 153q6 38 37 38
q10 0 17 -6t7 -15q0 -5 -5 -18l-51 -152l135 79q32 20 40 20q9 0 16 -6.5t7 -17.5q0 -22 -30 -34l-160 -66l126 -63q18 -9 18 -22z" />
    <glyph glyph-name="plus" unicode="+" horiz-adv-x="897" 
d="M862 250q0 -24 -38 -24h-295l-74 -299q-6 -28 -27 -28q-8 0 -16 6.5t-8 18.5l4 19l71 283h-283q-37 0 -37 24q0 25 37 25h295l75 300q7 27 26 27q9 0 16.5 -6.5t7.5 -18.5q0 -6 -4 -20l-70 -282h282q38 0 38 -25z" />
    <glyph glyph-name="comma" unicode="," horiz-adv-x="368" 
d="M261 49q0 -43 -20.5 -89.5t-47.5 -79t-51 -53.5t-32 -21q-5 0 -9.5 5t-4.5 10t14 16q93 74 118 176q-17 -13 -41 -13q-21 0 -34.5 12t-13.5 34q0 26 20 47.5t50 21.5q25 0 38.5 -18t13.5 -48z" />
    <glyph glyph-name="hyphen" unicode="-" horiz-adv-x="427" 
d="M379 200q-3 -12 -7 -14.5t-21 -2.5h-225q-28 0 -28 14q0 3 4 18t5 17q3 12 7.5 14t21.5 2h223q28 0 28 -14z" />
    <glyph glyph-name="period" unicode="." horiz-adv-x="368" 
d="M257 68q0 -25 -21.5 -46.5t-48.5 -21.5q-22 0 -35 13.5t-13 33.5q0 26 21.5 47t48.5 21q22 0 35 -13.5t13 -33.5z" />
    <glyph glyph-name="slash" unicode="/" 
d="M686 725q0 -7 -8 -20l-589 -936q-12 -19 -25 -19q-9 0 -16.5 6.5t-7.5 18.5q0 7 8 20l589 936q12 19 25 19q9 0 16.5 -6.5t7.5 -18.5z" />
    <glyph glyph-name="zero" unicode="0" 
d="M623 482q0 -17 -3.5 -47.5t-13 -78.5t-24.5 -97.5t-41 -100t-58.5 -89.5t-81 -64t-105.5 -25q-85 0 -121.5 50.5t-36.5 129.5q0 64 29.5 179t79.5 192q87 133 219 133q42 0 73 -14.5t46.5 -34t24.5 -47.5t11 -46.5t2 -39.5zM460 144q25 62 59 198t34 192q0 32 -10.5 54.5
t-28 31.5t-30.5 12.5t-25 3.5q-109 0 -161 -143q-23 -62 -55 -192t-32 -188q0 -34 10.5 -57t27.5 -32.5t29.5 -12.5t24.5 -3q41 0 84 30t73 106z" />
    <glyph glyph-name="one" unicode="1" 
d="M486 22q0 -10 -4.5 -15.5t-8 -6t-9.5 -0.5q-24 0 -75 2t-76 2t-75.5 -2t-74.5 -2q-7 0 -11 3.5t-4 6.5l-1 4q0 10 4.5 15t9.5 6t16 1h14q63 0 80 8.5t24 36.5l115 461q-69 -43 -125 -43q-19 0 -19 15q0 9 4 14t7.5 6t12.5 2q103 8 185 112q15 15 21 16q6 0 10 -3.5
t4 -6.5l1 -4q0 -7 -2 -13l-140 -559q-4 -15 -4 -21q0 -11 5 -14t28 -5q28 -2 46 -2h14q28 0 28 -14z" />
    <glyph glyph-name="two" unicode="2" 
d="M597 164q0 -9 -7 -29t-22.5 -47t-36 -51t-52 -40.5t-65.5 -16.5q-44 0 -112 40q-61 35 -100 35q-20 0 -35 -18.5t-22 -41.5q-3 -10 -6.5 -12.5t-15.5 -2.5q-21 0 -21 12q0 4 4 19t19 45t37.5 60.5t65.5 66.5t97 62q120 57 168 122.5t48 151.5q0 62 -33 89.5t-75 27.5
q-45 0 -87 -27.5t-68.5 -66t-42 -78t-15.5 -65.5q0 -35 24 -35q42 0 74 48t32 79q0 16 -10 33q-5 8 -5 12q0 5 5 9.5t10 4.5q10 0 19 -20t9 -38q0 -42 -39.5 -99t-95.5 -57q-28 0 -45.5 18t-17.5 53q0 31 19 73.5t50.5 84t81.5 70.5t104 29q82 0 134 -50t52 -127
q0 -81 -62 -143t-218 -135q-101 -51 -153 -127l15 2q49 0 109 -14q82 -14 111 -14q45 0 80.5 29.5t50.5 76.5q3 9 6.5 11.5t15.5 2.5q21 0 21 -12z" />
    <glyph glyph-name="three" unicode="3" 
d="M632 524q0 -63 -50 -118t-120 -77q47 -19 67.5 -55.5t20.5 -75.5q0 -89 -86 -153.5t-193 -64.5q-70 0 -114 36.5t-44 94.5q0 74 52 74q18 0 27 -10t9 -23q0 -15 -11 -30.5t-35 -19.5q4 -46 37.5 -70t78.5 -24q92 0 145.5 67t53.5 152q0 90 -96 90h-36q-10 0 -14.5 0.5
t-8 3t-3.5 8.5q0 16 7 20t23 4h39q49 0 86.5 20.5t57 52t28.5 61.5t9 56q0 52 -30.5 72.5t-70.5 20.5q-78 0 -139.5 -51.5t-61.5 -107.5q0 -37 28 -37q22 0 42.5 16.5t20.5 38.5q0 14 -12 30q-4 6 -4 11t5 9.5t10 4.5q9 0 19 -18t10 -36q0 -35 -29.5 -59.5t-62.5 -24.5
q-31 0 -49.5 19t-18.5 50q0 67 73 125t171 58q75 0 122 -39t47 -101z" />
    <glyph glyph-name="four" unicode="4" 
d="M552 13q0 -8 -10 -12.5t-36 -10.5q-31 -8 -62 -8q-16 0 -23 1l-27 -107q-7 -28 -11 -40t-14 -21t-26 -9q-31 0 -31 30q0 6 4 21l35 142q-45 17 -75 25t-43 9t-35 1q-49 0 -65.5 -4t-35.5 -18q-16 -12 -22 -12t-11.5 8t-5.5 12q0 18 39 36q10 5 35 25t66.5 63.5t77.5 93.5
q113 158 172 384q10 42 44 42q14 0 23 -9t9 -21q0 -10 -13 -57t-56.5 -142t-104.5 -178q-77 -104 -175 -187h36q51 0 149 -35q9 37 16.5 65t10.5 41.5t5.5 23t3 11t1.5 5t1 5t3 11.5q12 45 45 45q11 0 21 -7t10 -23q0 -7 -4 -21l-43 -171q5 -2 18 -2q37 0 73 12q8 3 13 3
q7 0 12.5 -7.5t5.5 -12.5z" />
    <glyph glyph-name="five" unicode="5" 
d="M568 255q0 -110 -89.5 -192.5t-197.5 -82.5q-68 0 -111.5 40t-43.5 104q0 83 56 83q16 0 26.5 -9.5t10.5 -25.5q0 -15 -11.5 -32t-39.5 -20q2 -52 35 -80t79 -28q37 0 77 20t72 65q29 40 44.5 102t15.5 94q0 40 -19 68.5t-60 28.5q-88 0 -158 -70q-6 -7 -15 -7
q-18 0 -18 14q0 3 3 13l76 305q4 19 15 19q2 0 12 -5q61 -27 133 -27q73 0 142 26l19 6q12 0 12 -12q0 -13 -28 -33t-55 -33q-68 -34 -137 -34q-46 0 -90 13l-47 -189q62 42 138 42q69 0 111.5 -45.5t42.5 -117.5z" />
    <glyph glyph-name="six" unicode="6" 
d="M579 262q0 -111 -86.5 -196.5t-191.5 -85.5q-45 0 -78 18t-48.5 40.5t-24 55t-9.5 47.5t-1 33q0 28 4 61.5t15.5 84t39.5 106.5t68 102q55 63 122 99.5t134 36.5q54 0 84 -22t30 -60q0 -29 -14 -47t-38 -18q-20 0 -28 11t-8 22q0 4 1.5 11t12 20.5t29.5 17.5
q-15 36 -71 36q-88 0 -167 -88q-63 -72 -100 -213q74 91 161 91q44 0 77.5 -17t51.5 -43t26.5 -52.5t8.5 -50.5zM499 301q0 20 -4.5 38.5t-26.5 38t-59 19.5q-79 0 -139 -83q-24 -35 -38 -84t-16.5 -73t-2.5 -41q0 -49 24.5 -76.5t65.5 -27.5q75 0 127 68q33 42 51 117.5
t18 103.5z" />
    <glyph glyph-name="seven" unicode="7" 
d="M704 652q0 -5 -16 -25q-186 -253 -276 -597q-12 -50 -55 -50q-17 0 -27.5 10t-10.5 26q0 8 8 38.5t34 98.5t63 141q45 87 147 239q-24 -9 -47 -9q-19 0 -31.5 8t-30.5 28q-9 11 -13.5 15.5t-12.5 8.5t-18 4q-19 0 -42 -6t-55 -21.5t-66 -50t-61 -83.5q-4 -8 -20 -8
q-21 0 -21 12q0 4 6 16l103 202q6 11 9.5 13t14.5 2q20 0 20 -12q0 -5 -21 -47q72 59 146 59q26 0 38.5 -14.5t20.5 -46.5q4 -20 7 -28.5t10 -15.5t18 -7q55 0 131 97q9 11 13 13t14 2q21 0 21 -12z" />
    <glyph glyph-name="eight" unicode="8" 
d="M566 203q0 -88 -82 -155.5t-186 -67.5q-77 0 -130 38t-53 102q0 71 59 129.5t146 89.5q-35 26 -49.5 39t-27 36t-12.5 54q0 77 71 136.5t162 59.5q64 0 111.5 -31.5t47.5 -89.5q0 -110 -170 -185l37 -27q22 -16 35 -27.5t27 -39t14 -61.5zM569 544q0 41 -30 66t-78 25
q-64 0 -115.5 -38t-51.5 -88q0 -18 7.5 -31.5t16 -21t29.5 -22.5l79 -56q78 37 110.5 82t32.5 84zM497 166q0 31 -14 49t-42 37l-94 67q-81 -34 -126 -90t-45 -110q0 -48 35.5 -77.5t89.5 -29.5q76 0 136 47t60 107z" />
    <glyph glyph-name="nine" unicode="9" 
d="M623 473q0 -58 -21 -148.5t-73 -166.5q-55 -81 -127.5 -129.5t-149.5 -48.5q-15 0 -29 1.5t-40 8.5t-42 25.5t-16 47.5q0 28 13.5 46t38.5 18q20 0 28 -11t8 -22q0 -12 -9 -27.5t-32 -21.5q18 -33 82 -33q19 0 40 5t52.5 24t59 49t56 87.5t46.5 133.5q-72 -91 -160 -91
q-45 0 -79.5 18t-52 45t-25.5 52.5t-8 47.5q0 111 88 196t196 85q37 0 65.5 -12t45.5 -31t27.5 -45.5t14 -51t3.5 -51.5zM550 534q0 48 -23 74.5t-61 26.5q-90 0 -147 -88q-22 -36 -39 -106t-17 -97q0 -8 0.5 -15.5t5.5 -23.5t13.5 -27.5t27 -20.5t43.5 -9q42 0 79 25t59 58
q59 85 59 203z" />
    <glyph glyph-name="colon" unicode=":" horiz-adv-x="368" 
d="M336 384q0 -25 -21.5 -46.5t-48.5 -21.5q-22 0 -35 13.5t-13 33.5q0 26 21.5 47t48.5 21q22 0 35 -13.5t13 -33.5zM257 68q0 -25 -21.5 -46.5t-48.5 -21.5q-22 0 -35 13.5t-13 33.5q0 26 21.5 47t48.5 21q22 0 35 -13.5t13 -33.5z" />
    <glyph glyph-name="semicolon" unicode=";" horiz-adv-x="368" 
d="M336 384q0 -25 -21.5 -46.5t-48.5 -21.5q-22 0 -35 13.5t-13 33.5q0 26 21.5 47t48.5 21q22 0 35 -13.5t13 -33.5zM253 59q0 -57 -32.5 -119.5t-65.5 -98t-45 -35.5q-5 0 -9.5 5t-4.5 10t13 16q83 75 108 170q-16 -7 -30 -7q-21 0 -34.5 12t-13.5 34q0 26 20 47.5
t50 21.5q44 0 44 -56z" />
    <glyph glyph-name="less" unicode="&#x3c;" horiz-adv-x="893" 
d="M922 552q-3 -15 -28 -26l-642 -276l505 -276q18 -9 14 -25q-2 -10 -11 -17.5t-20 -7.5q-6 0 -18 7l-537 294q-18 11 -14 26q3 15 28 26l685 294l19 6q11 0 16.5 -7.5t2.5 -17.5z" />
    <glyph glyph-name="equal" unicode="=" horiz-adv-x="897" 
d="M889 360q0 -24 -37 -24h-628q-38 0 -38 25q0 24 38 24h628q37 0 37 -25zM834 140q0 -24 -37 -24h-628q-38 0 -38 25q0 24 38 24h628q37 0 37 -25z" />
    <glyph glyph-name="greater" unicode="&#x3e;" horiz-adv-x="893" 
d="M847 250q-5 -16 -29 -26l-684 -294l-20 -6q-10 0 -15.5 7t-3.5 18q5 16 29 26l642 276l-505 276q-19 10 -15 25q7 25 31 25q6 0 19 -7l536 -294q19 -10 15 -26z" />
    <glyph glyph-name="question" unicode="?" 
d="M618 584q0 -52 -30 -94t-60 -62l-171 -117q-13 -9 -23 -25.5t-10 -31.5q0 -32 31 -32q25 0 49.5 19t33.5 45q4 12 7 14t15 2q21 0 21 -12q0 -26 -37 -61t-90 -35q-36 0 -53.5 22t-17.5 52q0 36 19 63.5t37 39.5l171 117q10 7 22 17.5t28 38t16 55.5q0 40 -29 63.5
t-72 23.5q-56 0 -112 -43.5t-93 -128.5q28 -7 28 -34q0 -20 -15 -34.5t-34 -14.5q-16 0 -26 9.5t-10 24.5q0 21 18.5 60.5t50 82.5t84 74.5t110.5 31.5q63 0 102.5 -36.5t39.5 -93.5zM374 68q0 -25 -21 -46.5t-49 -21.5q-21 0 -34.5 13t-13.5 34q0 26 21.5 47t48.5 21
q22 0 35 -14t13 -33z" />
    <glyph glyph-name="at" unicode="@" horiz-adv-x="897" 
d="M817 72q0 -7 -8 -11q-177 -71 -355 -71q-134 0 -208 79t-74 193q0 110 64.5 213t168.5 166t215 63q124 0 200.5 -77.5t76.5 -194.5q0 -28 -9.5 -74.5t-28.5 -100.5t-56 -92t-83 -38q-32 0 -56.5 16t-28.5 48q-73 -64 -153 -64q-71 0 -118 46.5t-47 121.5
q0 103 83.5 187.5t184.5 84.5q55 0 88.5 -27t46.5 -57h27q11 0 15.5 -0.5t8.5 -3.5t4 -9l-2 -13l-62 -246q-4 -16 -4 -29q0 -27 18 -27q34 0 61.5 38t41 90t20.5 93t7 58q0 107 -65.5 174.5t-170.5 67.5q-98 0 -192 -58.5t-153.5 -156t-59.5 -201.5q0 -105 64 -173.5
t177 -68.5q152 0 310 64q5 2 24 2q11 0 15.5 -0.5t8.5 -3t4 -8.5zM654 278l36 144q3 12 3 14q0 13 -8 34.5t-34.5 45t-64.5 23.5q-72 0 -135 -82t-63 -176q0 -54 25.5 -90t70.5 -36q54 0 107.5 43.5t62.5 79.5z" />
    <glyph glyph-name="A" unicode="A" horiz-adv-x="866" 
d="M797 22q0 -22 -21 -22q-16 0 -51.5 2t-52.5 2q-19 0 -59.5 -2t-58.5 -2q-6 0 -10 3.5t-4 6.5l-1 4q0 10 4 15t9 6t15 1q50 0 60 25l-21 170h-275q-36 -60 -52 -84q-42 -65 -42 -82q0 -27 39 -29q16 0 16 -14q0 -22 -20 -22q-15 0 -49 2t-50 2q-13 0 -41.5 -2t-40.5 -2
q-7 0 -11 4.5t-4 9.5q0 20 23 22q36 3 62.5 20t54.5 62l359 574q8 13 14 17t21 4q16 0 20 -4.5t6 -22.5l77 -617q2 -21 10.5 -27t44.5 -6q29 0 29 -14zM601 267l-41 330l-206 -330h247z" />
    <glyph glyph-name="B" unicode="B" horiz-adv-x="823" 
d="M775 215q0 -79 -85.5 -147t-198.5 -68h-366q-10 0 -15 0.5t-9 3.5t-4 10q0 10 4.5 15t9.5 6t16 1q48 0 61 7.5t19 33.5l133 531q4 14 4 23q0 11 -12.5 13.5t-43.5 2.5q-30 0 -30 14q0 10 4.5 15t10 6t16.5 1h344q87 0 141 -40.5t54 -99.5q0 -65 -62.5 -117t-151.5 -69
q68 -7 114.5 -45.5t46.5 -96.5zM738 543q0 41 -29.5 72.5t-90.5 31.5h-151q-26 0 -34 -5t-14 -30l-60 -243h160q90 0 154.5 53.5t64.5 120.5zM682 222q0 52 -33 85.5t-91 33.5h-206l-69 -276q-4 -15 -4 -27q9 -2 28 -2h160q84 0 149.5 55t65.5 131z" />
    <glyph glyph-name="C" unicode="C" horiz-adv-x="838" 
d="M850 437q-4 -14 -7.5 -17t-16.5 -3q-21 0 -21 13q0 6 2 22t2 23q0 79 -43 135.5t-126 56.5q-75 0 -147.5 -38t-120.5 -96q-61 -76 -85 -161t-24 -144q0 -57 19 -100t51 -66.5t67 -34.5t73 -11q85 0 169 59.5t116 165.5q3 12 21 12q21 0 21 -13q-2 -10 -7 -28t-34 -64.5
t-74 -83.5q-104 -84 -227 -84q-124 0 -205.5 76.5t-81.5 201.5q0 112 67 216t174 166.5t219 62.5q109 0 171 -77l9 -11l9 9l61 69q10 10 17 10q6 0 9.5 -3t4.5 -6v-3q0 -1 -2 -13z" />
    <glyph glyph-name="D" unicode="D" horiz-adv-x="881" 
d="M878 426q0 -110 -61.5 -209.5t-158 -158t-197.5 -58.5h-337q-10 0 -15 0.5t-9 3.5t-4 10q0 10 4.5 15t9.5 6t16 1q48 0 61 7.5t19 33.5l133 531q4 14 4 23q0 11 -12.5 13.5t-43.5 2.5q-30 0 -30 14q0 10 4.5 15t10 6t16.5 1h343q107 0 177 -70t70 -187zM791 457
q0 54 -18 93t-48.5 59t-62 29t-65.5 9h-128q-26 0 -34 -5t-14 -30l-136 -547q-4 -15 -4 -27q9 -2 28 -2h136q150 0 248 121q46 57 72 146.5t26 153.5z" />
    <glyph glyph-name="E" unicode="E" horiz-adv-x="793" 
d="M787 249q0 -5 -6 -17l-94 -215q-5 -12 -9.5 -14.5t-21.5 -2.5h-534q-10 0 -15 0.5t-9 3.5t-4 10q0 11 4 15.5t9.5 5.5t18.5 1q47 0 59.5 8t19.5 36l131 524q4 14 4 23q0 11 -12.5 13.5t-43.5 2.5q-30 0 -30 14q0 10 4.5 15t10 6t16.5 1h519q13 0 18 -1t7.5 -6.5
t1.5 -18.5l-19 -180q-1 -10 -2.5 -14t-6 -7t-13.5 -3q-21 0 -21 17q5 48 5 67q0 63 -31.5 86.5t-119.5 23.5h-153q-26 0 -34 -5t-14 -30l-59 -237h99q64 0 89 18.5t40 74.5q4 16 7.5 20t15.5 4q21 0 21 -14q0 -7 -2 -13l-56 -223q-3 -13 -7 -16.5t-16 -3.5q-21 0 -21 14
q0 3 3 12q7 29 7 47q0 24 -15 34t-68 10h-106l-67 -270q-4 -15 -4 -27q9 -2 28 -2h161q58 0 98 10.5t70 36t49.5 57.5t44.5 87q12 30 17 33q4 3 15 3q21 0 21 -14z" />
    <glyph glyph-name="F" unicode="F" horiz-adv-x="764" 
d="M798 473q-1 -10 -2.5 -14t-6 -7t-13.5 -3q-21 0 -21 17q0 1 1.5 13.5t2.5 28.5t1 26q0 61 -29.5 85t-115.5 24h-145q-26 0 -34 -5t-14 -30l-62 -250h95q62 0 87 18.5t40 75.5q3 15 6.5 19t16.5 4q21 0 21 -15q0 -1 -4 -18l-54 -217q-3 -13 -7 -16.5t-16 -3.5
q-21 0 -21 15q0 4 3 12q7 33 7 47q0 23 -15 33t-66 10h-102l-62 -250l-4 -18q0 -6 3.5 -9.5t8.5 -4.5t17 -2q18 -2 43 -2h9q28 0 28 -14q0 -10 -4.5 -15.5t-8 -6t-9.5 -0.5q-22 0 -70.5 2t-71.5 2q-20 0 -61 -2t-60 -2q-15 0 -15 14q0 11 4 15.5t9.5 5.5t18.5 1q47 0 59.5 8
t19.5 36l131 524q4 14 4 23q0 11 -12.5 13.5t-43.5 2.5q-30 0 -30 14q0 10 4.5 15t10 6t16.5 1h505q13 0 18 -1t7.5 -6.5t1.5 -18.5z" />
    <glyph glyph-name="G" unicode="G" horiz-adv-x="904" 
d="M880 262q0 -22 -21 -22q-49 -1 -58 -14q-5 -5 -22 -75q-1 -5 -10 -42t-17 -68t-10 -34q-1 -3 -3.5 -5t-4.5 -2h-2q-8 0 -20 16t-20 38q-28 -30 -88.5 -52t-142.5 -22q-129 0 -209.5 77.5t-80.5 200.5q0 112 67 216t174 166.5t220 62.5q109 0 171 -79l9 -9l9 9l61 69
q10 10 17 10q6 0 9.5 -3t3.5 -6l1 -3q0 -1 -2 -13l-60 -241q-4 -14 -7.5 -17t-16.5 -3q-21 0 -21 13q0 6 2 22t2 23q0 79 -43 135.5t-126 56.5q-70 0 -141 -34.5t-122 -92.5q-63 -73 -89 -161.5t-26 -148.5q0 -107 64 -160.5t155 -53.5q75 0 131 27q28 14 45 32t21.5 28.5
t9.5 28.5q20 83 20 87q0 11 -5 14t-28 5q-28 2 -46 2h-14q-28 0 -28 14q0 10 4.5 15.5t8 6t9.5 0.5q24 0 75.5 -2t76.5 -2q17 0 52 2t51 2q15 0 15 -14z" />
    <glyph glyph-name="H" unicode="H" horiz-adv-x="866" 
d="M941 669q0 -11 -4 -15.5t-9.5 -5.5t-17.5 -1q-47 0 -60 -7.5t-20 -35.5l-134 -537q-3 -13 -3 -17q0 -14 57 -14q11 0 15.5 -0.5t9 -3.5t4.5 -10q0 -22 -21 -22q-19 0 -60 2t-61 2t-60 -2t-59 -2q-15 0 -15 14q0 10 4.5 15t9.5 6t16 1q48 0 61 7.5t19 33.5l65 260h-323
l-68 -270q-3 -13 -3 -17q0 -14 57 -14q11 0 15.5 -0.5t9 -3.5t4.5 -10q0 -22 -21 -22q-19 0 -60 2t-61 2t-60 -2t-59 -2q-15 0 -15 14q0 10 4.5 15t9.5 6t16 1q48 0 61 7.5t19 33.5l133 531q4 14 4 23q0 11 -12.5 13.5t-43.5 2.5q-30 0 -30 14q0 22 21 22q19 0 60.5 -2
t61.5 -2t60 2t59 2q15 0 15 -14q0 -11 -4 -15.5t-9.5 -5.5t-17.5 -1q-47 0 -60 -7t-19 -33l-58 -234h323l59 238q4 14 4 20q0 11 -12.5 13.5t-43.5 2.5q-30 0 -30 14q0 22 21 22q19 0 60.5 -2t61.5 -2t60 2t59 2q15 0 15 -14z" />
    <glyph glyph-name="I" unicode="I" horiz-adv-x="455" 
d="M536 668q0 -10 -4.5 -14.5t-10 -5.5t-17.5 -1q-36 0 -52.5 -4t-21 -11t-9.5 -26l-133 -533q-4 -14 -4 -20t1 -8t6 -4t16 -3l38 -2q11 0 15.5 -0.5t9 -3.5t4.5 -10q0 -22 -21 -22q-20 0 -62.5 2t-63.5 2q-20 0 -62 -2t-62 -2q-6 0 -10 3.5t-5 6.5v4q0 11 4.5 15.5t10 5.5
t18.5 1q49 0 62.5 7.5t19.5 33.5l133 531q4 14 4 23q0 11 -14 13.5t-47 2.5q-30 0 -30 14q0 22 22 22q20 0 62 -2t63 -2q20 0 62.5 2t61.5 2q16 0 16 -15z" />
    <glyph glyph-name="J" unicode="J" horiz-adv-x="617" 
d="M685 669q0 -10 -4.5 -15.5t-8.5 -6t-12 -0.5q-35 0 -45 -6.5t-16 -32.5l-117 -470q-15 -63 -78.5 -110.5t-138.5 -47.5q-60 0 -98 30.5t-38 78.5q0 37 17.5 54.5t41.5 17.5q23 0 32 -12.5t9 -25.5q0 -17 -13 -35.5t-42 -21.5q8 -28 33.5 -43t55.5 -15q43 0 84 40.5
t56 100.5l114 457q4 15 4 21q0 10 -4.5 13t-23.5 5q-18 2 -46 2h-11q-28 0 -28 14q0 10 4.5 15.5t8 6t9.5 0.5q22 0 70.5 -2t71.5 -2q16 0 50 2t49 2q14 0 14 -14z" />
    <glyph glyph-name="K" unicode="K" horiz-adv-x="895" 
d="M817 22q0 -22 -19 -22q-13 0 -43.5 2t-44.5 2q-19 0 -59 -2t-58 -2q-15 0 -15 15q0 21 23 21q43 0 43 25q0 7 -6 18l-139 283l-169 -125l-36 -143q-10 -37 -10 -44q0 -14 57 -14q11 0 15.5 -0.5t9 -3.5t4.5 -10q0 -22 -21 -22q-19 0 -60 2t-61 2t-60 -2t-59 -2
q-15 0 -15 14q0 10 4.5 15t9.5 6t16 1q48 0 61 7.5t19 33.5l133 531q4 14 4 23q0 11 -12.5 13.5t-43.5 2.5q-30 0 -30 14q0 22 21 22q19 0 60.5 -2t61.5 -2t60 2t59 2q15 0 15 -14q0 -11 -4 -15.5t-9.5 -5.5t-17.5 -1q-47 0 -60 -7t-19 -33l-78 -312l394 290q4 3 10 9l6 6
q24 18 24 33q0 13 -20 14q-16 1 -16 14q0 22 22 22q18 0 58 -2t59 -2q11 0 35.5 2t34.5 2q4 0 8.5 -3.5t4.5 -10.5q0 -9 -3.5 -14t-7 -6t-10.5 -2q-66 -6 -170 -83l-206 -151l167 -341q10 -19 22 -27t38 -9q23 0 23 -14z" />
    <glyph glyph-name="L" unicode="L" horiz-adv-x="735" 
d="M714 248q0 -4 -5 -17l-80 -213q-5 -13 -9.5 -15.5t-21.5 -2.5h-476q-10 0 -15 0.5t-9 3.5t-4 10q0 10 4.5 15t9.5 6t16 1q48 0 61 7.5t19 33.5l133 531q4 14 4 23q0 11 -12.5 13.5t-43.5 2.5q-30 0 -30 14q0 22 21 22q19 0 61 -2t62 -2q23 0 71 2t70 2q16 0 16 -15
q0 -10 -4.5 -15t-9.5 -5.5t-16 -0.5h-10q-58 0 -73.5 -8.5t-21.5 -35.5l-134 -538q-4 -15 -4 -27q9 -2 28 -2h106q48 0 87 13t63 30.5t45 47.5t30.5 50.5t22.5 53.5q10 25 14 29q3 3 14 3q21 0 21 -15z" />
    <glyph glyph-name="M" unicode="M" horiz-adv-x="1042" 
d="M1112 669q0 -11 -4 -15.5t-9.5 -5.5t-17.5 -1q-47 0 -60 -7.5t-20 -35.5l-134 -537q-3 -13 -3 -17q0 -14 57 -14q11 0 15.5 -0.5t9 -3.5t4.5 -10q0 -22 -20 -22q-18 0 -57.5 2t-58.5 2t-57.5 -2t-56.5 -2q-15 0 -15 14q0 10 4.5 15t9.5 6t16 1q48 0 61 7.5t19 33.5
l138 554h-1l-395 -609q-4 -7 -6.5 -9.5t-6 -6.5t-8.5 -5t-12 -1q-12 0 -16.5 5t-6.5 20l-89 596l-1 1l-130 -524q-3 -9 -3 -22q0 -39 60 -40q18 0 18 -14q0 -22 -20 -22q-16 0 -50.5 2t-51.5 2t-51 -2t-50 -2q-14 0 -14 14q0 20 18 22q26 1 42 5t33 20.5t25 46.5l125 500
q4 14 4 23q0 11 -12.5 13.5t-43.5 2.5q-30 0 -30 14q0 10 4.5 15t10 6t16.5 1h135q19 0 24.5 -3.5t8.5 -21.5l84 -569l373 575q8 13 14.5 16t25.5 3h128q16 0 22 -2t6 -12z" />
    <glyph glyph-name="N" unicode="N" horiz-adv-x="866" 
d="M941 669q0 -20 -18 -22q-45 -2 -68 -18t-33 -57l-138 -553q-3 -13 -7 -16t-18 -3q-12 0 -16 2.5t-9 13.5l-253 583l-125 -501q-3 -9 -3 -22q0 -39 60 -40q18 0 18 -14q0 -22 -20 -22q-16 0 -50.5 2t-51.5 2t-51 -2t-50 -2q-14 0 -14 14q0 20 18 22q25 1 41.5 5t34 21
t24.5 46l132 531q0 8 -59 8q-30 0 -30 14q0 10 4.5 15t10 6t16.5 1h122q16 0 21 -2.5t11 -15.5l227 -525l111 441q4 16 4 26q0 18 -12 28.5t-48 11.5q-19 0 -19 14q0 22 21 22q16 0 50.5 -2t51.5 -2q16 0 50.5 2t49.5 2t15 -14z" />
    <glyph glyph-name="O" unicode="O" horiz-adv-x="897" 
d="M895 429q0 -113 -65.5 -218t-170.5 -168t-216 -63q-122 0 -198 76t-76 194q0 109 64 214.5t170.5 172t219.5 66.5q119 0 195.5 -75t76.5 -199zM805 462q0 56 -17 98t-46 65.5t-61 34.5t-66 11q-93 0 -174 -61.5t-128.5 -163.5t-47.5 -216q0 -110 55 -163.5t131 -53.5
q73 0 140.5 42t113 107.5t73 145t27.5 154.5z" />
    <glyph glyph-name="P" unicode="P" horiz-adv-x="793" 
d="M823 529q0 -85 -90.5 -152t-207.5 -67h-175l-61 -243q-3 -13 -3 -17q0 -14 57 -14q11 0 15.5 -0.5t9 -3.5t4.5 -10q0 -22 -21 -22q-19 0 -60 2t-61 2t-60 -2t-59 -2q-15 0 -15 14q0 11 4 15.5t9.5 5.5t18.5 1q47 0 59.5 8t19.5 36l132 531q4 14 4 20q0 11 -12.5 13.5
t-43.5 2.5q-30 0 -30 14q0 10 4.5 15t10 6t16.5 1h330q91 0 148 -44t57 -110zM729 548q0 99 -143 99h-117q-26 0 -34 -5t-14 -30l-67 -270h156q93 0 153 47q31 25 48.5 72.5t17.5 86.5z" />
    <glyph glyph-name="Q" unicode="Q" horiz-adv-x="897" 
d="M805 0q0 -9 -10.5 -37.5t-30 -65t-55.5 -64t-78 -27.5q-31 0 -50.5 12.5t-27.5 35t-10 39t-2 39.5q0 22 2 62q-49 -14 -100 -14q-122 0 -198 76t-76 194q0 109 64 214.5t170.5 172t219.5 66.5q119 0 195.5 -75t76.5 -199q0 -131 -88 -250.5t-224 -171.5q9 -59 24.5 -81.5
t47.5 -22.5t68 22.5t54 75.5q3 13 14 13q5 0 9.5 -4t4.5 -10zM806 454q0 111 -57 164t-134 53q-74 0 -141.5 -41t-114 -105.5t-74 -143.5t-27.5 -155q0 -24 4 -47.5t15 -54.5t37 -57.5t65 -41.5q-4 9 -4 25q0 41 33.5 71t73.5 30q44 0 65 -28.5t31 -77.5q63 33 110.5 88
t71.5 114.5t35 111.5t11 95zM544 30q0 47 -13.5 70t-47.5 23q-31 0 -55.5 -22.5t-24.5 -49.5q0 -39 48 -39q45 0 93 18z" />
    <glyph glyph-name="R" unicode="R" horiz-adv-x="852" 
d="M834 96q0 -25 -35 -70.5t-92 -45.5q-55 0 -95.5 26t-40.5 83q0 22 18 87q12 50 12 63q0 38 -30 63.5t-89 25.5h-132l-65 -261q-3 -13 -3 -17q0 -14 57 -14q11 0 15.5 -0.5t9 -3.5t4.5 -10q0 -22 -20 -22q-19 0 -59.5 2t-60.5 2q-19 0 -59 -2t-58 -2q-15 0 -15 14
q0 10 4.5 15t9.5 6t16 1q48 0 61 7.5t19 33.5l133 531q4 14 4 23q0 11 -12.5 13.5t-43.5 2.5q-30 0 -30 14q0 10 4.5 15t10 6t16.5 1h289q100 0 166.5 -43.5t66.5 -109.5q0 -67 -67.5 -119t-150.5 -71q14 -5 27 -12.5t28.5 -21t25.5 -35t10 -47.5q0 -19 -8 -83
q-6 -52 -6 -72q0 -29 7.5 -45t33.5 -16q27 0 48.5 25t31.5 58q4 13 7.5 16t15.5 3q21 0 21 -14zM715 545q0 56 -47 81q-41 21 -110 21h-89q-26 0 -34 -5t-14 -30l-63 -256h126q59 0 103.5 15.5t68 36.5t38 49.5t18 48.5t3.5 39z" />
    <glyph glyph-name="S" unicode="S" horiz-adv-x="662" 
d="M616 228q0 -92 -78.5 -170t-183.5 -78q-119 0 -179 70l-46 -56q-13 -14 -20 -14q-15 0 -15 12q0 5 3 14l50 201q4 14 7.5 17t16.5 3q20 0 20 -12l-1 -11q-6 -24 -6 -48q0 -43 18 -72.5t47 -43t55 -19t53 -5.5q75 0 133 56t58 124q0 29 -9.5 50t-28.5 32.5t-32 16t-34 9.5
q-6 2 -28.5 7.5t-28.5 7.5q-49 11 -51 12q-57 15 -87 54.5t-30 89.5q0 86 77.5 157t178.5 71q105 0 153 -70l48 60q8 10 17 10q6 0 9.5 -3t3.5 -6l1 -3q0 -3 -2 -13l-50 -202q-4 -14 -8 -17t-16 -3q-21 0 -21 13l2 16q2 16 2 36q0 75 -38 113q-37 37 -103 37
q-73 0 -129.5 -51t-56.5 -112q0 -43 33 -73q13 -11 28.5 -16.5t64.5 -17.5q54 -11 96 -24q46 -13 76.5 -53t30.5 -96z" />
    <glyph glyph-name="T" unicode="T" horiz-adv-x="838" 
d="M878 469q-2 -15 -6.5 -19t-16.5 -4q-21 0 -21 15q0 3 3 19q7 55 7 77q0 55 -29.5 69t-117.5 14q-50 0 -56 -1q-8 -1 -12 -2.5t-8.5 -8.5t-7.5 -21l-132 -529q-4 -15 -4 -21q0 -10 4.5 -13.5t26.5 -5.5q1 0 10 -0.5t21 -1t19 -0.5h15q10 0 15 -0.5t9 -3.5t4 -10
q0 -10 -4.5 -15.5t-8 -6t-9.5 -0.5q-26 0 -80 2t-80 2t-79 -2t-78 -2q-17 0 -17 14q0 10 4.5 15t9.5 6t16 1h16q65 0 82 9t24 39l131 524q4 17 4 30q-9 2 -28 2h-74q-38 0 -65 -7t-45 -18t-33.5 -35t-25 -45t-24.5 -62q-7 -19 -10.5 -23t-15.5 -4q-21 0 -21 14q0 7 4 15
l65 183q4 13 9 15.5t22 2.5h587q28 0 28 -14q0 -5 -1 -14z" />
    <glyph glyph-name="U" unicode="U" horiz-adv-x="866" 
d="M941 669q0 -20 -18 -22q-44 -2 -67.5 -17.5t-33.5 -57.5l-88 -355q-22 -87 -105.5 -162t-188.5 -75q-87 0 -146 53.5t-59 140.5q0 28 7 55l95 379q4 14 4 23q0 11 -12.5 13.5t-43.5 2.5q-30 0 -30 14q0 22 21 22q19 0 60.5 -2t61.5 -2t60 2t59 2q15 0 15 -14
q0 -11 -4 -15.5t-9.5 -5.5t-17.5 -1q-47 0 -60 -7t-19 -33l-97 -389q-9 -34 -9 -70q0 -70 39 -101t89 -31q83 0 155.5 62t94.5 151l88 352q4 16 4 26q0 18 -12 28.5t-48 11.5q-19 0 -19 14q0 22 21 22q15 0 49.5 -2t50.5 -2t49.5 2t48.5 2t15 -14z" />
    <glyph glyph-name="V" unicode="V" horiz-adv-x="866" 
d="M973 669q0 -9 -4 -14t-7.5 -6t-10.5 -2q-35 -3 -61 -20.5t-56 -62.5l-371 -563q-6 -9 -9 -12.5t-9.5 -6t-17.5 -2.5q-15 0 -20 4.5t-7 20.5l-96 610q-3 21 -11 26.5t-42 5.5q-10 0 -14.5 0.5t-8.5 4t-4 10.5q0 21 20 21q15 0 49.5 -2t51.5 -2q19 0 59 2t58 2q16 0 16 -14
q0 -10 -4.5 -15.5t-9 -6t-14.5 -0.5q-58 0 -58 -27q2 -10 2 -13l81 -519l322 490l7 11q0 1 1 3l2 4q8 13 8 24q0 27 -38 27q-16 1 -16 14q0 22 20 22q15 0 49.5 -2t50.5 -2q12 0 39 2t38 2q7 0 11 -4.5t4 -9.5z" />
    <glyph glyph-name="W" unicode="W" horiz-adv-x="1160" 
d="M1268 669q0 -21 -15 -22t-24.5 -3.5t-25 -9.5t-31 -24.5t-31.5 -44.5l-331 -565q-12 -20 -34 -20q-14 0 -19 4.5t-6 22.5l-43 508l-302 -515q-12 -20 -34 -20q-14 0 -19 4.5t-6 22.5l-52 610q-1 13 -3.5 18t-12 8.5t-31.5 3.5q-25 0 -25 14q0 22 20 22q14 0 47 -2t48 -2
q19 0 59 2t58 2q6 0 10 -3.5t5 -7.5v-3q0 -22 -23 -22q-24 0 -39 -4t-19.5 -10t-6.5 -13t0 -14l43 -498l277 473q-6 51 -6 52q-4 14 -44 14q-25 0 -25 14q0 22 20 22q14 0 47 -2t48 -2q19 0 59 2t58 2q6 0 10 -3.5t5 -7.5v-3q0 -22 -24 -22q-65 -1 -65 -28l44 -511l276 470
q13 23 13 36q0 30 -48 33q-18 0 -18 14q0 22 20 22q17 0 53.5 -2t54.5 -2q12 0 37.5 2t36.5 2q6 0 10 -4.5t4 -9.5z" />
    <glyph glyph-name="X" unicode="X" horiz-adv-x="866" 
d="M804 22q0 -22 -20 -22q-16 0 -51 2t-52 2q-20 0 -60.5 -2t-59.5 -2q-15 0 -15 14q0 20 20 22q33 2 48 24l-123 251l-207 -209q-5 -5 -15 -19t-10 -24q0 -20 26 -23q16 0 16 -14q0 -22 -21 -22q-17 0 -54 2t-55 2q-14 0 -44.5 -2t-43.5 -2q-5 0 -9.5 3.5t-4.5 10.5
q0 10 4 15t7.5 5.5t11.5 1.5q80 6 157 83l225 227l-134 273q-5 10 -9.5 15t-18 9t-38.5 4q-10 0 -15 0.5t-9 3.5t-4 10q0 22 20 22q16 0 50.5 -2t51.5 -2q20 0 60.5 2t59.5 2q16 0 16 -14q0 -22 -18 -22q-17 -1 -29.5 -6.5t-16.5 -10.5t-4 -8q1 -3 5 -11l98 -199l167 170
q26 26 26 43q0 20 -26 22q-16 0 -16 14q0 22 20 22q17 0 54 -2t55 -2q14 0 44.5 2t43.5 2q7 0 11 -4.5t4 -9.5q0 -10 -4 -15t-7.5 -5.5t-11.5 -1.5q-42 -3 -78 -21.5t-79 -61.5l-186 -188l155 -314q5 -10 9 -14t17.5 -8t38.5 -4q28 0 28 -14z" />
    <glyph glyph-name="Y" unicode="Y" horiz-adv-x="866" 
d="M979 669q0 -9 -4 -14t-7.5 -6t-10.5 -2q-74 -6 -145 -83l-263 -281q-8 -8 -12 -23l-30 -124q-20 -80 -20 -85q0 -15 56 -15q17 0 23.5 -2t6.5 -12q0 -22 -21 -22q-19 0 -59.5 2t-60.5 2q-19 0 -59 -2t-58 -2q-15 0 -15 14q0 10 4 15t9 6t15 1q53 1 64.5 9.5t23.5 56.5
l43 172l-149 346q-6 15 -19 21t-46 6q-10 0 -14.5 0.5t-8.5 4t-4 10.5q0 21 20 21q16 0 51.5 -2t52.5 -2q20 0 61 2t60 2q16 0 16 -14q0 -22 -24 -22q-50 0 -50 -18q0 -3 6 -15l125 -291l241 257q2 2 4 5.5t4 5.5q1 1 3 3.5t4 4.5q16 19 16 32q0 14 -27 16q-16 2 -16 14
q0 22 21 22q15 0 49.5 -2t50.5 -2q13 0 40 2t38 2q7 0 11 -4.5t4 -9.5z" />
    <glyph glyph-name="Z" unicode="Z" horiz-adv-x="721" 
d="M694 259q0 -3 -4 -13l-73 -228q-4 -13 -9 -15.5t-22 -2.5h-462q-25 0 -25 11q0 13 16 32l568 604h-167q-108 0 -160.5 -42t-84.5 -133q-4 -13 -7.5 -16t-15.5 -3q-21 0 -21 14q0 8 4 18l56 178q5 14 9 17t22 3h447q25 0 25 -11q0 -14 -13 -27l-568 -605h176
q117 0 171.5 47.5t90.5 157.5q7 20 10.5 24t15.5 4q21 0 21 -14z" />
    <glyph glyph-name="bracketleft" unicode="[" horiz-adv-x="368" 
d="M252 -216q0 -17 -7 -26q-4 -8 -26 -8h-92q-28 0 -28 14q0 3 3 15l238 951q4 15 8 17.5t22 2.5h92q28 0 28 -14t-7 -28q-5 -7 -27 -7h-73l-226 -902h67q11 0 15.5 -0.5t8.5 -4t4 -10.5z" />
    <glyph glyph-name="backslash" unicode="\" horiz-adv-x="585" 
d="M450 -225q-3 -12 -12 -18.5t-18 -6.5q-8 0 -12.5 4t-6 8.5t-2.5 12.5l-139 932l-1 18q3 12 12.5 18.5t18.5 6.5q18 0 20 -25l139 -932z" />
    <glyph glyph-name="bracketright" unicode="]" horiz-adv-x="368" 
d="M389 721l-238 -951q-4 -15 -8 -17.5t-22 -2.5h-92q-28 0 -28 14t7 28q5 7 27 7h74l225 902h-67q-11 0 -15.5 0.5t-8.5 4t-4 10.5q0 17 7 26q4 8 26 8h92q28 0 28 -14q0 -3 -3 -15z" />
    <glyph glyph-name="asciicircum" unicode="^" horiz-adv-x="556" 
d="M707 584l-17 -22l-242 123l-301 -123l-6 22l323 160z" />
    <glyph glyph-name="underscore" unicode="_" horiz-adv-x="866" 
d="M856 -125q-2 -9 -10 -15t-17 -6h-865q-9 0 -13.5 6t-2.5 15q5 21 26 21h866q8 0 13 -6t3 -15z" />
    <glyph glyph-name="grave" unicode="`" 
d="M500 524q-3 -6 -14 -15t-19 -9q-6 0 -12 7l-116 119q-17 17 -7 37q7 15 21.5 24t26.5 9q16 0 23 -13l93 -143q7 -10 4 -16z" />
    <glyph glyph-name="a" unicode="a" 
d="M611 143q0 -3 -4 -18.5t-13.5 -41t-20.5 -42.5q-31 -51 -79 -51q-31 0 -59 17.5t-37 50.5q-65 -68 -137 -68q-59 0 -100.5 43.5t-41.5 120.5q0 109 78.5 198t170.5 89q64 0 98 -56q12 37 44 37q31 0 31 -30q0 -6 -4 -21l-66 -264q-6 -23 -6 -42q0 -47 32 -47q13 0 24 9
t19 28t13 34t12 40q5 19 8.5 23t16.5 4q21 0 21 -13zM446 302q3 10 3 14q0 11 -5 30.5t-25.5 43t-50.5 23.5q-31 0 -63.5 -25.5t-56.5 -68.5q-20 -39 -36.5 -105.5t-16.5 -100.5q0 -41 18 -68t51 -27q40 0 87 41q44 42 53 77z" />
    <glyph glyph-name="b" unicode="b" horiz-adv-x="544" 
d="M521 278q0 -108 -78 -198t-171 -90q-57 0 -97 42.5t-40 118.5q0 36 9 72l97 386q4 14 4 22q0 6 -1.5 8.5t-12.5 5t-34 2.5q-26 0 -26 14t6.5 18t19.5 5l108 9q27 2 27 -13q0 -3 -3 -15l-69 -275q65 51 119 51q61 0 101.5 -45t40.5 -118zM445 319q0 39 -17.5 66.5
t-50.5 27.5q-35 0 -71.5 -28.5t-61.5 -68.5q-6 -11 -24.5 -86.5t-18.5 -110.5q0 -48 20 -74.5t52 -26.5q27 0 60 24t59 72q18 35 35.5 102.5t17.5 102.5z" />
    <glyph glyph-name="c" unicode="c" horiz-adv-x="544" 
d="M541 97q0 -5 -9 -16.5t-28.5 -27t-46 -29.5t-67.5 -24t-86 -10q-81 0 -127.5 49.5t-46.5 122.5q0 106 86 192.5t191 86.5q49 0 87 -21.5t38 -65.5q0 -32 -16 -45.5t-34 -13.5t-27 10t-9 23q0 38 39 49q-20 36 -77 36q-73 0 -131 -74q-31 -40 -49.5 -104.5t-18.5 -106.5
q0 -57 27 -83.5t69 -26.5q47 0 102 21.5t96 70.5q10 11 15 11q7 0 15 -9t8 -15z" />
    <glyph glyph-name="d" unicode="d" 
d="M621 143q0 -3 -4 -18.5t-13.5 -41t-20.5 -42.5q-31 -51 -79 -51q-31 0 -59 17.5t-37 50.5q-65 -68 -137 -68q-59 0 -100.5 43.5t-41.5 120.5q0 109 78.5 198t170.5 89q62 0 99 -56l56 227q4 14 4 19q0 6 -1.5 8.5t-12.5 5t-34 2.5q-26 0 -26 14t6.5 18t19.5 5l108 9
q27 2 27 -13q0 -3 -3 -15l-140 -559q-6 -18 -6 -41q0 -47 32 -47q13 0 24 9t19 28t13 34t12 40q5 19 8.5 23t16.5 4q21 0 21 -13zM456 302q3 10 3 14q0 11 -5 30.5t-25.5 43t-50.5 23.5q-31 0 -63.5 -25.5t-56.5 -68.5q-20 -39 -36.5 -105.5t-16.5 -100.5q0 -41 18 -68
t51 -27q40 0 87 41q44 42 53 77z" />
    <glyph glyph-name="e" unicode="e" horiz-adv-x="544" 
d="M541 97q0 -5 -9 -16.5t-28.5 -27t-46 -29.5t-67 -24t-85.5 -10q-79 0 -124.5 52t-45.5 133q0 83 45.5 146t105.5 91.5t120 28.5q53 0 87 -24t34 -64q0 -30 -14 -52.5t-39.5 -35.5t-49.5 -21.5t-56.5 -11.5t-47 -3.5t-33.5 -0.5h-62q-13 -56 -13 -92q0 -51 23.5 -84.5
t69.5 -33.5q47 0 102 21.5t96 70.5q10 11 15 11q7 0 15 -9t8 -15zM479 354q0 27 -20.5 43t-52.5 16q-8 0 -18.5 -1t-34 -10t-44 -23.5t-42 -46.5t-34.5 -76h47q199 0 199 98z" />
    <glyph glyph-name="f" unicode="f" horiz-adv-x="368" 
d="M502 637q0 -23 -14.5 -39t-36.5 -16q-35 0 -35 34q0 33 32 46q-17 14 -44 14q-19 0 -31.5 -16t-17 -32.5t-11.5 -48.5q-11 -47 -28 -148h89q29 0 29 -14q0 -10 -4.5 -15t-10 -6t-16.5 -1h-94l-59 -321q-6 -34 -24 -102q-48 -176 -148 -176q-38 0 -66.5 17.5t-28.5 49.5
q0 23 14.5 39t36.5 16q35 0 35 -34q0 -32 -32 -45q17 -15 42 -15q9 0 14.5 1.5t15.5 12.5t18.5 32.5t20 64.5t22.5 105l65 355h-71q-10 0 -15 0.5t-9 3.5t-4 10q0 10 4.5 15t9.5 6t16 1h76l24 124q29 149 138 149q41 0 69.5 -18t28.5 -49z" />
    <glyph glyph-name="g" unicode="g" horiz-adv-x="544" 
d="M438 -64q-14 -56 -71.5 -98t-156.5 -42q-30 0 -50 2t-40.5 7t-31 17.5t-10.5 31.5q0 24 15 39t35 15q16 0 26 -9.5t10 -24.5q0 -27 -24 -41q24 -9 73 -9q36 0 65 12.5t45.5 32t24.5 32.5t13 26l31 123q-59 -50 -119 -50q-63 0 -103 46t-40 115q0 105 77.5 192.5
t169.5 87.5q63 0 98 -54q11 35 44 35q31 0 31 -30q0 -6 -4 -21zM415 141l40 163l3 14q0 6 -3.5 19t-11 31.5t-25 31.5t-41.5 13q-27 0 -58 -21.5t-56 -63.5q-22 -37 -39 -104.5t-17 -102.5q0 -41 18 -67t51 -26q43 0 87 42t52 71z" />
    <glyph glyph-name="h" unicode="h" 
d="M621 143q0 -8 -9 -31t-25.5 -51t-46 -49.5t-64.5 -21.5q-37 0 -63 22.5t-26 61.5q0 20 10 45q64 169 64 226q0 68 -56 68q-57 0 -102 -40q-31 -29 -51.5 -65.5t-25.5 -53.5l-34 -134l-22 -90q-9 -40 -43 -40q-14 0 -23 8t-9 22q0 7 4 21l142 567q4 20 4 23q0 6 -1.5 8.5
t-12.5 5t-34 2.5q-26 0 -26 14t6.5 18t19.5 5l108 9q27 2 27 -13q0 -3 -3 -15l-75 -299q67 75 154 75q53 0 88 -26.5t35 -84.5q0 -54 -60 -211q-17 -49 -17 -67q0 -34 25 -34q31 0 57 33.5t40 83.5q4 14 7.5 17.5t16.5 3.5q21 0 21 -13z" />
    <glyph glyph-name="i" unicode="i" horiz-adv-x="368" 
d="M386 143q0 -8 -9 -31t-25.5 -51t-46 -49.5t-64.5 -21.5q-39 0 -64 24.5t-25 59.5q0 18 24 80l35 93l27 69q16 42 16 63q0 34 -25 34q-63 0 -99 -125q-2 -9 -6 -11t-15 -2q-21 0 -21 13q0 14 14.5 48t50 69.5t79.5 35.5q40 0 65 -24.5t25 -59.5q0 -16 -6 -33l-66 -173
q-30 -74 -30 -99q0 -34 24 -34q34 0 59.5 36t37.5 81q4 14 7.5 17.5t16.5 3.5q21 0 21 -13zM392 609q0 -26 -21.5 -47t-48.5 -21q-21 0 -34.5 14t-13.5 33q0 25 21 46.5t49 21.5q21 0 34.5 -13t13.5 -34z" />
    <glyph glyph-name="j" unicode="j" horiz-adv-x="368" 
d="M266 -52q-15 -63 -70 -107.5t-121 -44.5q-44 0 -73 14.5t-29 44.5q0 22 15 37.5t35 15.5q16 0 26 -9.5t10 -24.5q0 -26 -24 -42q20 -8 41 -8q44 0 74.5 40.5t41.5 84.5l95 382q4 16 4 34q0 48 -33 48q-30 0 -64.5 -29t-61.5 -93q-5 -11 -8 -13.5t-15 -2.5q-21 0 -21 12
q0 8 12 31.5t33 51.5t55.5 49.5t72.5 21.5q44 0 72.5 -26.5t28.5 -66.5q0 -14 -5 -34zM392 609q0 -26 -21.5 -47t-48.5 -21q-21 0 -34.5 14t-13.5 33q0 25 21 46.5t49 21.5q21 0 34.5 -13t13.5 -34z" />
    <glyph glyph-name="k" unicode="k" horiz-adv-x="544" 
d="M562 143q0 -3 -4 -17.5t-14 -37.5t-23.5 -45t-36.5 -37.5t-50 -15.5q-45 0 -73 29.5t-28 71.5q0 13 4 28q3 15 3 25q0 39 -36 58t-85 24l-47 -188q-4 -14 -7 -22t-13 -17t-25 -9q-14 0 -23 8t-9 22q0 7 4 21l142 567q4 20 4 23q0 6 -1.5 8.5t-12.5 5t-34 2.5
q-26 0 -26 14t6.5 18t19.5 5l108 9q27 2 27 -13q0 -3 -3 -15l-100 -400q40 17 112 88q88 88 153 88q34 0 54 -19.5t20 -47.5q0 -26 -15 -41.5t-36 -15.5q-35 0 -35 34q0 37 38 48q-7 14 -28 14q-23 0 -50 -14t-46 -30t-47 -44q-49 -49 -85 -73q150 -19 150 -106q0 -8 -5 -33
q-6 -24 -6 -45q0 -50 34 -50q51 0 80 118q4 13 7.5 16.5t16.5 3.5q21 0 21 -13z" />
    <glyph glyph-name="l" unicode="l" horiz-adv-x="310" 
d="M328 143q0 -3 -4 -18t-12.5 -39t-18.5 -42q-32 -54 -81 -54q-38 0 -68.5 24t-30.5 70q0 14 5 34l123 491q4 14 4 22q0 6 -1.5 8.5t-12.5 5t-34 2.5q-26 0 -26 14t6.5 18t19.5 5l108 9q27 2 27 -13q0 -3 -3 -15l-140 -559q-6 -18 -6 -41q0 -47 32 -47q18 0 32.5 21
t20.5 40.5t16 56.5q3 13 6.5 16.5t16.5 3.5q21 0 21 -13z" />
    <glyph glyph-name="m" unicode="m" horiz-adv-x="956" 
d="M974 143q0 -8 -9 -31t-25.5 -51t-46 -49.5t-64.5 -21.5q-37 0 -63 22.5t-26 61.5q0 20 10 45q64 173 64 226q0 68 -57 68q-56 0 -105 -44q-18 -17 -36 -44t-26.5 -43.5t-10.5 -22.5q-3 -20 -17 -67q-2 -8 -8 -34t-8 -34l-23 -89q-12 -45 -45 -45q-31 0 -31 30q0 9 16 68
l21 84l24 96q13 56 13 76q0 69 -57 69q-51 0 -101 -39q-20 -17 -39.5 -45.5t-29.5 -48.5l-9 -21l-33 -135l-23 -89q-12 -45 -45 -45q-31 0 -31 30q0 2 14 64q14 51 17 68l28 108q21 92 21 105q0 48 -31 48q-40 0 -67 -109q-5 -21 -8.5 -25t-17.5 -4q-21 0 -21 13
q0 8 11.5 43.5t25.5 56.5q32 53 80 53q35 0 65 -21.5t34 -64.5q14 16 24 25.5t31.5 26.5t49 25.5t58.5 8.5q113 0 123 -96q74 96 171 96q55 0 89 -27.5t34 -83.5q0 -54 -60 -211q-17 -49 -17 -67q0 -34 25 -34q31 0 57 33.5t40 83.5q4 14 7.5 17.5t16.5 3.5q21 0 21 -13z
" />
    <glyph glyph-name="n" unicode="n" horiz-adv-x="662" 
d="M680 143q0 -8 -9 -31t-25.5 -51t-46 -49.5t-64.5 -21.5q-37 0 -63 22.5t-26 61.5q0 20 10 45q64 173 64 226q0 68 -57 68q-56 0 -105 -44q-18 -17 -36 -44t-26.5 -43.5t-10.5 -22.5q-3 -20 -17 -67q-2 -8 -8 -34t-8 -34l-23 -89q-12 -45 -45 -45q-31 0 -31 30q0 2 14 64
q14 51 17 68l28 108q21 92 21 105q0 48 -31 48q-40 0 -67 -109q-5 -21 -8.5 -25t-17.5 -4q-21 0 -21 13q0 8 11.5 43.5t25.5 56.5q32 53 80 53q35 0 64.5 -21.5t34.5 -63.5q67 85 163 85q55 0 89 -27.5t34 -83.5q0 -54 -60 -211q-17 -49 -17 -67q0 -34 25 -34q31 0 57 33.5
t40 83.5q4 14 7.5 17.5t16.5 3.5q21 0 21 -13z" />
    <glyph glyph-name="o" unicode="o" 
d="M579 269q0 -105 -85.5 -192t-192.5 -87q-75 0 -123 48t-48 124q0 106 85.5 192.5t192.5 86.5q76 0 123.5 -49t47.5 -123zM500 303q0 59 -29 84.5t-64 25.5q-34 0 -69 -19.5t-61 -54.5q-32 -42 -50 -106t-18 -105q0 -34 10 -57.5t26.5 -34t30 -14.5t26.5 -4q39 0 77.5 25
t62.5 62q29 45 43.5 104.5t14.5 93.5z" />
    <glyph glyph-name="p" unicode="p" 
d="M580 277q0 -108 -78 -197.5t-171 -89.5q-63 0 -99 56l-37 -148q-9 -34 -9 -44q0 -12 45 -12q12 0 16.5 -0.5t8.5 -4t4 -10.5q0 -21 -20 -21q-16 0 -50.5 2t-51.5 2q-14 0 -42.5 -2t-41.5 -2q-14 0 -14 14q0 10 4 15.5t8.5 6t13.5 0.5q27 0 36 6.5t14 28.5l113 454
q4 16 4 34q0 48 -31 48q-40 0 -67 -109q-5 -21 -8.5 -25t-17.5 -4q-21 0 -21 13q0 8 11.5 43.5t25.5 56.5q32 53 80 53q28 0 56.5 -15.5t39.5 -52.5q62 68 137 68q60 0 101 -45t41 -119zM504 319q0 41 -18 67.5t-51 26.5q-43 0 -88 -42.5t-53 -75.5l-41 -165q-3 -14 -3 -15
q0 -12 5.5 -32t25.5 -42.5t50 -22.5q26 0 59 22t62 75q18 34 35 100.5t17 103.5z" />
    <glyph glyph-name="q" unicode="q" horiz-adv-x="544" 
d="M493 -172q0 -22 -20 -22q-16 0 -51.5 2t-52.5 2t-51.5 -2t-50.5 -2q-15 0 -15 15q0 10 4.5 15t8.5 5.5t13 0.5q46 1 56 8t20 45l36 146q-61 -51 -119 -51q-60 0 -101 44t-41 120q0 108 78.5 197.5t169.5 89.5q67 0 103 -62q12 20 34.5 41t31.5 21q5 0 9.5 -4t4.5 -10
q0 -4 -3 -13l-136 -543q-2 -13 -2 -17q0 -12 48 -12q26 0 26 -14zM414 135l41 166q1 4 1.5 7t1 4.5t0.5 3.5q0 10 -5 29.5t-25 43.5t-51 24t-64.5 -26.5t-55.5 -71.5q-21 -40 -36.5 -104.5t-15.5 -98.5q0 -39 17.5 -66.5t50.5 -27.5q44 0 88.5 43.5t52.5 73.5z" />
    <glyph glyph-name="r" unicode="r" horiz-adv-x="500" 
d="M560 372q0 -28 -16 -41.5t-34 -13.5q-35 0 -35 34q0 31 30 45q-24 17 -68 17q-54 0 -93 -45q-44 -50 -61 -117q-3 -11 -8 -32.5t-8 -32.5l-27 -108q-13 -55 -17 -64q-12 -24 -39 -24q-31 0 -31 30q0 2 14 64q14 51 17 68l28 108q21 92 21 105q0 48 -31 48q-40 0 -67 -109
q-5 -21 -8.5 -25t-17.5 -4q-21 0 -21 13q0 8 11.5 43.5t25.5 56.5q32 53 80 53q28 0 56.5 -15.5t39.5 -52.5q59 68 138 68q50 0 85.5 -17t35.5 -52z" />
    <glyph glyph-name="s" unicode="s" horiz-adv-x="486" 
d="M454 156q0 -16 -5 -35t-20 -43t-37 -43t-60.5 -32t-87.5 -13q-70 0 -112 26t-42 71q0 30 15 46t37 16q16 0 25.5 -9.5t9.5 -23.5q0 -38 -41 -49q24 -49 110 -49q42 0 73 12t45 30t20.5 33t6.5 28q0 18 -8.5 30.5t-27 20.5t-30.5 11t-37 8q-16 3 -26.5 5.5t-29.5 10.5
t-30.5 18t-20.5 28t-9 41q0 18 8 40t26 47.5t55 42.5t87 17t88 -21.5t38 -65.5q0 -31 -14.5 -42.5t-29.5 -11.5q-32 0 -32 30q0 17 11 28t20 14q-18 41 -82 41q-33 0 -57 -10t-35 -25.5t-15.5 -27.5t-4.5 -21q0 -19 14 -31.5t26 -16t34 -7.5q46 -9 67 -15.5t41 -23.5
q37 -32 37 -79z" />
    <glyph glyph-name="t" unicode="t" horiz-adv-x="398" 
d="M415 144q0 -8 -12 -31t-33 -51.5t-55.5 -50t-71.5 -21.5q-42 0 -71.5 25t-29.5 69q0 14 5 34l69 277h-92q-10 0 -15 0.5t-9 3.5t-4 10q0 10 4.5 15t9.5 6t16 1h99l38 152q9 42 44 42q14 0 23 -8.5t9 -21.5q0 -6 -4 -20l-36 -144h92q10 0 15 -0.5t9 -3.5t4 -10
q0 -10 -4.5 -15t-9.5 -6t-16 -1h-99l-72 -289q-6 -18 -6 -41q0 -47 34 -47q72 0 126 122q5 11 8 13.5t15 2.5q20 0 20 -12z" />
    <glyph glyph-name="u" unicode="u" horiz-adv-x="633" 
d="M651 143q0 -3 -4 -18.5t-13.5 -41t-20.5 -42.5q-31 -51 -79 -51q-28 0 -55.5 15t-38.5 48q-19 -19 -32.5 -30t-39 -22t-54.5 -11q-53 0 -92.5 28.5t-39.5 95.5q0 54 48 179q25 67 25 87q0 33 -25 33q-64 0 -100 -125q-2 -9 -6 -11t-15 -2q-21 0 -21 13q0 9 9 31.5
t25.5 51t46.5 49.5t64 21q37 0 63 -23.5t26 -60.5q0 -19 -11 -49q-59 -151 -59 -209q0 -81 66 -81q46 0 81 38.5t43 69.5l65 262q9 43 45 43q15 0 23.5 -9t8.5 -21q-1 -3 -3 -12l-70 -282q-6 -23 -6 -42q0 -47 32 -47q13 0 24 9t19 28t13 34t12 40q5 19 8.5 23t16.5 4
q21 0 21 -13z" />
    <glyph glyph-name="v" unicode="v" horiz-adv-x="544" 
d="M558 364q0 -33 -13.5 -90t-39 -123t-73 -113.5t-105.5 -47.5q-25 0 -48 5.5t-46 18.5t-36.5 39.5t-13.5 64.5q0 53 47 175q25 67 25 87q0 33 -25 33q-64 0 -100 -125q-2 -9 -6 -11t-15 -2q-21 0 -21 13q0 9 9 31.5t25.5 51t46.5 49.5t64 21q37 0 63 -23.5t26 -60.5
q0 -19 -9 -44q-60 -152 -60 -208q0 -87 77 -87q40 0 75 36t54.5 85t30.5 90.5t11 59.5q0 46 -29 75q-13 16 -13 27q0 19 16.5 35t35.5 16q4 0 8 -1t11.5 -5t13 -12t10 -23.5t4.5 -36.5z" />
    <glyph glyph-name="w" unicode="w" horiz-adv-x="779" 
d="M793 364q0 -42 -21 -122t-44 -130q-58 -122 -152 -122q-96 0 -131 64q-42 -64 -109 -64q-28 0 -53.5 6t-48.5 20t-37 41t-14 64q0 48 47 172q25 67 25 87q0 33 -25 33q-64 0 -100 -125q-2 -9 -6 -11t-15 -2q-21 0 -21 13q0 9 9 31.5t25.5 51t46.5 49.5t64 21
q37 0 63 -23.5t26 -60.5q0 -20 -10 -45q-58 -149 -58 -204q0 -90 84 -90q36 0 61 33q32 39 33 70q0 22 7 52l53 215q12 43 45 43q15 0 23.5 -9t8.5 -21q0 -7 -19 -78q-5 -23 -31 -123q-17 -69 -17 -96q0 -49 23.5 -67.5t53.5 -18.5q68 0 110 96q15 35 31 92t16 83
q0 46 -29 75q-13 16 -13 27q0 19 16.5 35t35.5 16q4 0 8 -1t11.5 -5t13 -12t10 -23.5t4.5 -36.5z" />
    <glyph glyph-name="x" unicode="x" horiz-adv-x="544" 
d="M562 144q0 -36 -51 -95t-123 -59q-76 0 -110 62q-43 -62 -108 -62q-41 0 -71.5 17.5t-30.5 51.5q0 23 14.5 39t36.5 16q35 0 35 -34q0 -32 -32 -45q18 -17 49 -17q30 0 55 26.5t36 70.5l34 137q19 76 19 97q0 30 -15 47t-41 17q-33 0 -71 -30t-58 -95q-3 -13 -21 -13
q-21 0 -21 13q0 18 19 52.5t61.5 67.5t92.5 33q74 0 110 -62q41 62 109 62q12 0 26.5 -2.5t32.5 -9t30 -21.5t12 -36q0 -28 -16 -41.5t-34 -13.5q-35 0 -35 34q0 31 32 45q-19 17 -50 17q-28 0 -53.5 -24t-40.5 -83l-34 -137q-17 -68 -17 -86q0 -31 16 -48t41 -17
q39 0 75 33.5t52 82.5q3 11 5 15t6 5.5t13 1.5q21 0 21 -12z" />
    <glyph glyph-name="y" unicode="y" horiz-adv-x="574" 
d="M482 -7q-19 -74 -89 -135.5t-154 -61.5q-48 0 -78.5 24.5t-30.5 62.5q0 33 17 47t34 14t26.5 -9.5t9.5 -23.5q0 -15 -10.5 -29.5t-30.5 -19.5q14 -38 64 -38q59 0 109 58q20 24 34.5 52.5t20 46t13.5 50.5q-48 -41 -103 -41q-54 0 -93 28.5t-39 95.5q0 56 48 179
q25 67 25 87q0 33 -25 33q-64 0 -100 -125q-2 -9 -6 -11t-15 -2q-21 0 -21 13q0 9 9 31.5t25.5 51t46.5 49.5t64 21q37 0 63 -23.5t26 -60.5q0 -17 -11 -48q-59 -149 -59 -210q0 -81 65 -81q48 0 83 40t41 66l65 264q11 43 45 43q15 0 23.5 -9t8.5 -21q-1 -3 -3 -12z" />
    <glyph glyph-name="z" unicode="z" horiz-adv-x="486" 
d="M504 145q0 -36 -51.5 -95.5t-120.5 -59.5q-23 0 -38.5 9.5t-40.5 33.5q-27 28 -51 28q-43 0 -83 -59q-3 -5 -4 -6.5t-4 -3.5t-5.5 -2h-8.5q-21 0 -21 12q0 9 28.5 46.5t60.5 69.5q17 17 38.5 36.5t43.5 39t27 23.5q85 71 138 125q-26 2 -62 12q-46 14 -70 14
q-64 0 -82 -45q-4 -11 -21 -11q-21 0 -21 12q0 29 40 73t94 44q36 0 74 -40q31 -31 53 -31q15 0 28 11t35 46q6 10 9 12t15 2q21 0 21 -12q0 -5 -9 -21.5t-59.5 -71.5t-134.5 -126q-104 -87 -133 -121q43 0 83 -12q50 -14 70 -14q36 0 71 21t48 59q3 10 6.5 12.5t15.5 2.5
q21 0 21 -13z" />
    <glyph glyph-name="braceleft" unicode="{" horiz-adv-x="585" 
d="M431 -236q-3 -14 -27 -14q-36 0 -78 9t-66 27q-23 18 -31.5 39.5t-7 35t7.5 37.5l51 204q9 39 9 49t-4 21.5t-15 26t-37.5 25t-64.5 12.5q-15 0 -11 14q2 9 7 11t17 3q66 4 122 43q34 25 49 83l58 234q15 57 85.5 91.5t158.5 34.5q9 0 13 -0.5t6.5 -3.5t0.5 -10
q-2 -9 -7 -11t-17 -3q-62 -3 -110 -34q-30 -19 -41 -40t-24 -72l-45 -180q-6 -25 -12 -39.5t-21.5 -37t-45.5 -40t-75 -29.5q54 -17 75.5 -48t13.5 -68l-65 -257q-5 -10 0 -26t13.5 -31t36.5 -27.5t70 -14.5q14 0 11 -14z" />
    <glyph glyph-name="bar" unicode="|" horiz-adv-x="339" 
d="M141 -213l-4 -12t-5 -11t-10 -11t-15 -3q-24 0 -15 37l231 926q11 37 35 37q25 0 14 -37z" />
    <glyph glyph-name="braceright" unicode="}" horiz-adv-x="585" 
d="M553 250q-2 -6 -5.5 -9.5t-6.5 -4.5h-3q-152 -8 -179 -126l-59 -234q-15 -58 -85.5 -92t-157.5 -34q-14 0 -19 2t-3 12q2 9 7 11t18 3q67 4 111 35q31 21 41 40t23 71l45 180q5 20 8.5 30.5t14.5 30.5t26 33t42.5 27.5t63.5 24.5q-53 17 -75.5 48t-13.5 68l64 257
q0 7 1 18t-6.5 24.5t-18.5 25.5t-36 20.5t-60 10.5q-15 0 -12 14q4 14 29 14q96 0 144 -36q33 -26 36.5 -57.5t-9.5 -67.5l-55 -222q-7 -31 18 -65t100 -38q15 0 12 -14z" />
    <glyph glyph-name="asciitilde" unicode="~" horiz-adv-x="556" 
d="M627 290l-65 -44q-22 -16 -65 -35q-45 -18 -78 -18q-43 0 -91 34q-20 13 -30 19t-28 12t-37 6q-69 0 -171 -71l-10 17l65 44q24 16 66 35q45 18 78 18q41 0 91 -34q20 -13 30 -19t28 -12t37 -6q67 0 171 71z" />
    <glyph glyph-name="uni00A0" unicode="&#xa0;" 
 />
    <glyph glyph-name="exclamdown" unicode="&#xa1;" horiz-adv-x="368" 
d="M353 453q0 -26 -21.5 -47t-48.5 -21q-21 0 -34.5 14t-13.5 33q0 25 21 46.5t49 21.5q21 0 34.5 -13t13.5 -34zM203 -152q-5 -33 -27.5 -47.5t-42.5 -14.5q-19 0 -33.5 12t-14.5 33q0 9 5 24l143 434q4 12 8 14.5t16 2.5q21 0 21 -13z" />
    <glyph glyph-name="cent" unicode="&#xa2;" horiz-adv-x="544" 
d="M541 97q0 -5 -8.5 -16t-27.5 -26t-44 -29t-64 -24.5t-82 -11.5l-7 -26q-4 -18 -22 -18q-7 0 -11.5 5t-2.5 13l7 27q-69 8 -109 56t-40 115q0 102 80 186.5t182 91.5l6 27q6 18 23 18q7 0 11 -5.5t2 -12.5l-7 -27q44 -4 74.5 -25.5t30.5 -60.5q0 -32 -16 -45.5t-34 -13.5
t-27 10t-9 23q0 38 39 49q-17 30 -64 35l-99 -393q111 9 181 91q10 11 15 11q7 0 15 -9t8 -15zM286 19l98 392q-60 -12 -107 -72q-31 -40 -49.5 -104.5t-18.5 -106.5q0 -96 77 -109z" />
    <glyph glyph-name="sterling" unicode="&#xa3;" horiz-adv-x="880" 
d="M733 139q0 -39 -59 -94t-146 -55q-47 0 -101 24q-17 8 -45 23.5t-40 21.5q-25 -27 -68 -48t-89 -21q-33 0 -55.5 12.5t-22.5 37.5q0 35 41 67t105 32q33 0 69 -11q7 21 27 97l26 104h-62q-10 0 -14.5 0.5t-8 3t-3.5 8.5q0 16 6.5 20t22.5 4h68l38 155q19 78 86 132
t141 54q64 0 101.5 -41t37.5 -100q0 -86 -54 -86q-16 0 -26 9.5t-10 24.5q0 2 0.5 5t3 10.5t7 14t14.5 12t23 7.5q0 65 -30 90.5t-67 25.5q-38 0 -75 -27.5t-57 -69.5q-19 -44 -59 -216h91q27 0 27 -12q0 -16 -7 -20t-23 -4h-98l-39 -160q-8 -31 -30 -67q75 -40 104.5 -52
t63.5 -12q44 0 85.5 26t57.5 70q5 12 8 14.5t15 2.5q20 0 20 -12zM294 79q-29 12 -61 12t-55.5 -16t-23.5 -35q0 -22 33 -22q25 0 55 16t52 45z" />
    <glyph glyph-name="currency" unicode="&#xa4;" horiz-adv-x="897" 
d="M702 6q-7 -6 -18 -8t-22 4q-1 1 -11 13l-43 57q-73 -49 -154 -49q-80 0 -130 50l-73 -58q-34 -25 -51 -13q-7 5 -8.5 9.5t4 11t8 9t10.5 9.5l84 67q-35 62 -14 142q19 79 84 142l-52 70q-14 19 2 33q23 16 40 3q5 -4 12 -13l43 -58q73 50 155 50q80 0 129 -49l72 57
q35 27 53 14q17 -13 -16 -40l-83 -66q36 -63 15 -143q-19 -79 -85 -142l51 -68q17 -19 -2 -34zM690 250q19 74 -20.5 126.5t-113.5 52.5t-140 -52.5t-84 -126.5q-19 -74 20.5 -126.5t113.5 -52.5t140 52.5t84 126.5z" />
    <glyph glyph-name="yen" unicode="&#xa5;" horiz-adv-x="866" 
d="M979 669q0 -9 -4 -14t-7.5 -6t-10.5 -2q-74 -6 -145 -83l-201 -215h169q8 0 13 -6t3 -15q-2 -8 -10 -14.5t-16 -6.5h-199l-22 -24q-8 -8 -12 -23l-16 -67h220q8 0 13 -6.5t3 -14.5q-2 -9 -10 -15t-16 -6h-221l-3 -15q-20 -80 -20 -85q0 -15 56 -15q17 0 23.5 -2t6.5 -12
q0 -22 -21 -22q-19 0 -59.5 2t-60.5 2q-19 0 -59 -2t-58 -2q-15 0 -15 14q0 10 4 15t9 6t15 1q53 1 64.5 9.5t23.5 56.5l13 49h-218q-8 0 -13 6t-3 15q2 8 10 14.5t16 6.5h218l20 81l-14 33h-195q-8 0 -13 6.5t-3 14.5q2 9 10 15t16 6h167l-117 271q-6 15 -19 21t-46 6
q-10 0 -14.5 0.5t-8.5 4t-4 10.5q0 21 20 21q16 0 51.5 -2t52.5 -2q20 0 61 2t60 2q16 0 16 -14q0 -22 -24 -22q-50 0 -50 -18q0 -3 6 -15l114 -265h35l217 231q2 2 4 5.5t4 5.5q1 1 3 3.5t4 4.5q16 19 16 32q0 14 -27 16q-16 2 -16 14q0 22 21 22q15 0 49.5 -2t50.5 -2
q13 0 40 2t38 2q7 0 11 -4.5t4 -9.5z" />
    <glyph glyph-name="brokenbar" unicode="&#xa6;" horiz-adv-x="339" 
d="M280 343q-4 -18 -29 -18q-10 0 -16 4.5t-4 13.5l92 370q11 37 35 37q25 0 14 -37zM141 -213l-4 -12t-5 -11t-10 -11t-15 -3q-24 0 -15 37l92 370q4 18 29 18q10 0 16 -4.5t4 -13.5z" />
    <glyph glyph-name="section" unicode="&#xa7;" horiz-adv-x="591" 
d="M599 194q-11 -42 -46 -75t-81 -48q25 -48 11 -103q-19 -75 -90 -126.5t-151 -51.5q-76 0 -116.5 53t-21.5 128q4 17 19.5 29.5t32.5 12.5t26.5 -12.5t5.5 -29.5q-4 -16 -17 -27.5t-28 -13.5q5 -38 36.5 -61t76.5 -23q53 0 100.5 35.5t60.5 86.5q18 73 -84 115l-102 41
q-63 25 -97 72.5t-18 109.5q11 42 46 74.5t81 47.5q-25 50 -11 104q19 75 90 126.5t151 51.5q76 0 116.5 -53t21.5 -128q-4 -17 -19.5 -29.5t-32.5 -12.5t-26.5 12.5t-5.5 29.5q4 16 17 27.5t28 13.5q-5 38 -36.5 61t-76.5 23q-53 0 -100.5 -35.5t-60.5 -86.5
q-18 -73 84 -115l102 -41q63 -25 97 -72.5t18 -109.5zM519 194q18 73 -78 112l-102 41q-42 17 -72 48q-25 -9 -44 -34t-27 -55q-18 -73 78 -112l102 -41q45 -19 72 -49q25 10 44 35t27 55z" />
    <glyph glyph-name="dieresis" unicode="&#xa8;" 
d="M409 608q0 -24 -19.5 -43t-43.5 -19q-20 0 -32 12.5t-11 30.5q-1 22 18 41.5t44 19.5q19 0 31.5 -11.5t12.5 -30.5zM600 608q0 -24 -19.5 -43t-43.5 -19q-20 0 -32 12.5t-11 30.5q-1 22 18 41.5t44 19.5q19 0 31.5 -11.5t12.5 -30.5z" />
    <glyph glyph-name="copyright" unicode="&#xa9;" horiz-adv-x="683" 
d="M683 342q0 -142 -100 -242t-241 -100q-142 0 -242 100t-100 242q0 141 100 241t242 100q141 0 241 -100t100 -241zM635 342q0 122 -85.5 207.5t-207.5 85.5t-208 -85.5t-86 -207.5t86 -208t208 -86t207.5 86t85.5 208zM536 516l-32 -125q-1 -7 -3.5 -8.5t-8.5 -1.5
q-11 0 -11 7q0 3 1 11t1 12q0 41 -22.5 70.5t-65.5 29.5q-38 0 -76 -20t-63 -50q-56 -70 -56 -158q0 -57 33 -83.5t76 -26.5q44 0 87.5 31t60.5 86q1 6 11 6t10 -7q-7 -48 -59 -91q-54 -44 -118 -44t-106.5 39.5t-42.5 104.5q0 89 74.5 160t164.5 71q57 0 88 -40l5 -5l5 4
l31 36q5 5 9 5t6 -1.5t2 -3.5v-1q0 -1 -0.5 -3t-0.5 -4z" />
    <glyph glyph-name="ordfeminine" unicode="&#xaa;" horiz-adv-x="561" 
d="M615 495q0 -2 -3 -13t-10 -28.5t-15 -30.5q-24 -35 -65 -35q-25 0 -49.5 12t-33.5 35q-54 -47 -112 -47q-50 0 -86.5 30.5t-38.5 83.5q-4 77 58.5 139t140.5 62q54 0 84 -39q13 26 36 26q26 0 27 -21q0 -4 -3 -15l-46 -184q-4 -17 -4 -30q3 -33 29 -33q14 0 25.5 13.5
t16 27t11.5 37.5q3 13 6 16t14 3q18 0 18 -9zM560 345q-4 -13 -21 -13h-351q-7 0 -11.5 4t-3.5 9q4 13 22 13h350q8 0 12 -4t3 -9zM442 490l29 116q2 5 2 10q0 7 -5 21t-22.5 30.5t-43.5 16.5t-52.5 -18t-45.5 -48q-15 -28 -27 -74.5t-10 -69.5q2 -29 18 -48t43 -19
q34 0 72 29q35 29 42 54z" />
    <glyph glyph-name="guillemotleft" unicode="&#xab;" horiz-adv-x="662" 
d="M448 466q-63 -124 -157 -227q43 -102 43 -227q0 -12 -12 -12h-4q-10 0 -12 11q-14 129 -88 223q-3 3 -3 8q0 6 5 9q121 94 203 227q3 5 10 5h4q12 0 12 -12q0 -1 -0.5 -2.5t-0.5 -2.5zM624 466q-63 -124 -157 -227q43 -102 43 -227q0 -12 -12 -12h-4q-10 0 -12 11
q-14 129 -88 223q-3 3 -3 8q0 6 5 9q121 94 203 227q3 5 10 5h4q12 0 12 -12q0 -1 -0.5 -2.5t-0.5 -2.5z" />
    <glyph glyph-name="logicalnot" unicode="&#xac;" horiz-adv-x="897" 
d="M835 140q-2 -10 -11 -17t-19 -7t-15 7t-3 17l49 197h-633q-10 0 -15 7t-3 17t11 17t19 7h657q10 0 15.5 -7t2.5 -17z" />
    <glyph glyph-name="uni00AD" unicode="&#xad;" horiz-adv-x="427" 
d="M379 200q-3 -12 -7 -14.5t-21 -2.5h-225q-28 0 -28 14q0 3 4 18t5 17q3 12 7.5 14t21.5 2h223q28 0 28 -14z" />
    <glyph glyph-name="registered" unicode="&#xae;" horiz-adv-x="683" 
d="M683 342q0 -142 -100 -242t-241 -100q-142 0 -242 100t-100 242q0 141 100 241t242 100q141 0 241 -100t100 -241zM635 342q0 122 -85.5 207.5t-207.5 85.5t-208 -85.5t-86 -207.5t86 -208t208 -86t207.5 86t85.5 208zM549 219q0 -13 -18 -36.5t-48 -23.5q-28 0 -49.5 14
t-21.5 43q0 8 10 45q1 4 2.5 11t2.5 12.5t1 9.5q0 20 -16 33t-46 13h-68l-34 -136q-2 -6 -2 -8q0 -8 30 -8q15 0 15 -7q0 -11 -10 -11t-31 1t-32 1q-10 0 -30 -1t-30 -1q-8 0 -8 7q0 11 15 11q25 0 32 4t10 18l69 275q2 8 2 12q0 8 -29 8q-16 0 -16 8q0 11 17 11h150
q51 0 85.5 -22.5t34.5 -56.5q0 -35 -35 -62.5t-78 -36.5q48 -16 48 -60q0 -13 -5 -43q0 -3 -1.5 -16.5t-1.5 -21.5q0 -31 22 -31q13 0 24.5 13t16.5 30q2 5 2.5 6.5t3 2.5t6.5 1q11 0 11 -8zM487 452q0 30 -24 42q-21 11 -57 11h-47q-13 0 -17 -2.5t-7 -15.5l-33 -133h65
q38 0 64 11t37 29t15 31.5t4 26.5z" />
    <glyph glyph-name="macron" unicode="&#xaf;" 
d="M643 603q0 -11 -4.5 -16t-10 -6t-16.5 -1h-324q-11 0 -15.5 0.5t-8.5 4t-4 10.5q0 10 4.5 15t9.5 6t16 1h324q29 0 29 -14z" />
    <glyph glyph-name="degree" unicode="&#xb0;" horiz-adv-x="452" 
d="M507 537q-15 -61 -68.5 -104t-114.5 -43t-93.5 43t-17.5 104q16 61 69.5 103.5t114.5 42.5t93 -42.5t17 -103.5zM459 537q11 41 -11 69.5t-63 28.5t-77 -28.5t-47 -69.5q-10 -41 12 -70t63 -29t77 29t46 70z" />
    <glyph glyph-name="plusminus" unicode="&#xb1;" horiz-adv-x="897" 
d="M806 24q0 -24 -38 -24h-628q-37 0 -37 24q0 25 37 25h295l68 273h-283q-37 0 -37 24q0 25 37 25h295l74 295q7 27 26 27q9 0 16.5 -6.5t7.5 -18.5q0 -6 -4 -20l-69 -277h282q38 0 38 -25q0 -24 -38 -24h-295l-68 -273h283q38 0 38 -25z" />
    <glyph glyph-name="two.superior" unicode="&#xb2;" horiz-adv-x="455" 
d="M501 403q1 -11 -11.5 -35.5t-43.5 -49.5t-71 -25q-34 0 -82 24q-45 21 -73 21q-27 0 -39 -36q-3 -9 -16 -9q-15 0 -15 7q0 3 2.5 11.5t12 27t25 37t45.5 39.5t68 37q84 34 116.5 73.5t30.5 90.5q-2 37 -26.5 54t-54.5 17q-63 0 -105.5 -52t-40.5 -91q0 -21 18 -21
q30 0 51.5 29t21.5 48q-2 10 -9 19l-4 8q0 8 11 8q7 0 14 -12t8 -23q1 -25 -26 -59t-67 -34q-20 0 -33 10.5t-14 31.5q-3 44 49 99t127 55q59 0 98 -30t41 -76q2 -48 -41 -85.5t-153 -81.5q-71 -30 -106 -76l11 1q27 0 79 -8q50 -8 80 -8q33 0 57.5 17.5t33.5 45.5q4 9 16 9
q15 0 15 -8z" />
    <glyph glyph-name="three.superior" unicode="&#xb3;" horiz-adv-x="422" 
d="M516 619q1 -38 -33.5 -71t-83.5 -46q34 -11 50 -33t17 -45q3 -53 -57 -92t-137 -39q-50 0 -83 22t-35 57q0 44 35 44q27 0 27 -20q1 -8 -6.5 -17.5t-24.5 -12.5q4 -27 29 -41.5t57 -14.5q66 0 102.5 40t34.5 91q-3 54 -72 54h-26q-19 0 -19 7q0 5 1 8.5t4.5 4.5t6.5 1.5
t9 0.5h28q36 0 62 12.5t39 31t18.5 36.5t5.5 34q-4 56 -76 56q-56 0 -99 -31t-41 -65q3 -22 21 -22q17 0 31 9.5t13 23.5q0 7 -9 18q-4 4 -4 7q0 8 11 8q6 0 14 -11t8 -21q1 -21 -19 -36t-44 -15q-22 0 -36 11.5t-16 30.5q-2 40 49 74.5t122 34.5q54 0 89 -23.5t37 -60.5z
" />
    <glyph glyph-name="acute" unicode="&#xb4;" 
d="M603 663q0 -20 -26 -37l-175 -119q-10 -7 -16 -7q-8 0 -14.5 9t-6.5 15q0 5 12 16l165 143q13 13 29 13q12 0 22 -9t10 -24z" />
    <glyph glyph-name="uni00B5" unicode="&#xb5;" 
d="M621 143q0 -3 -4 -18t-13 -39.5t-20 -43.5q-31 -52 -79 -52q-16 0 -32 4t-36.5 20.5t-28.5 43.5q-64 -68 -139 -68q-60 0 -101 29q-12 -45 -25 -98.5t-20 -80t-11 -33.5q-12 -21 -37 -21q-14 0 -23 8t-9 22q0 8 4 23l139 555q11 37 32 44q6 2 14 2q14 0 23 -8.5t9 -21.5
q0 -7 -16 -68l-42 -168q-11 -44 -11 -70q0 -86 79 -86q70 0 126 86q10 16 20 53l31 125l21 83q6 24 10 35t14 20.5t26 9.5q14 0 23 -8t9 -22q0 -2 -2.5 -13.5t-6.5 -28t-6 -25.5q-8 -28 -16 -64l-29 -115q-18 -65 -18 -89q0 -47 31 -47q40 0 66 104q8 28 9 29q3 4 18 4
q21 0 21 -12z" />
    <glyph glyph-name="paragraph" unicode="&#xb6;" horiz-adv-x="708" 
d="M827 669q-6 -24 -43 -24h-55l-200 -802l-4 -12t-5 -11t-10 -11t-15 -3q-24 0 -15 37l200 802h-77l-200 -802l-4 -12t-5 -11t-10 -11t-15 -3q-24 0 -15 37l96 383q-53 1 -103 15.5t-91 41.5t-59 73t-4 104q25 100 124 167t210 67h270q8 0 12 -0.5t11 -2.5t7 -7.5v-14.5z
" />
    <glyph glyph-name="periodcentered" unicode="&#xb7;" horiz-adv-x="897" 
d="M593 352q0 -25 -21.5 -46.5t-48.5 -21.5q-22 0 -35 13.5t-13 33.5q0 26 21.5 47t48.5 21q22 0 35 -13.5t13 -33.5z" />
    <glyph glyph-name="cedilla" unicode="&#xb8;" horiz-adv-x="544" 
d="M398 -103q0 -29 -19.5 -47.5t-56.5 -26.5t-69 -10.5t-77 -2.5h-30q-14 2 -14 14q0 7 4 10t9 3.5t15 0.5h16q149 0 149 58q0 30 -56 35q-19 0 -19 14q0 7 15 62q1 4 5 5t22 1h16q28 0 31 -6q-8 -35 -13 -52q72 -10 72 -58z" />
    <glyph glyph-name="one.superior" unicode="&#xb9;" horiz-adv-x="445" 
d="M425 318q1 -13 -15 -13q-17 0 -54 1t-55 1t-54 -1t-53 -1q-5 0 -8 2t-4 4v2q0 5 1 8t4.5 4.5t6.5 1.5h9h10q45 0 57 5t16 22l69 276q-50 -26 -89 -26q-13 0 -14 9q0 11 14 13q2 1 3 1q74 5 130 67q8 9 14 9q5 0 8 -2t3 -4l1 -2q0 -1 -0.5 -4t-0.5 -4l-84 -335
q-3 -9 -3 -13q1 -6 4.5 -8t18.5 -3h2q10 -1 33 -1h10q20 0 20 -9z" />
    <glyph glyph-name="ordmasculine" unicode="&#xba;" horiz-adv-x="505" 
d="M576 583q3 -73 -66 -134t-158 -61q-63 0 -105 33.5t-45 86.5q-4 74 65 134.5t159 60.5q64 0 105.5 -34t44.5 -86zM504 345q-4 -13 -21 -13h-295q-7 0 -11.5 4t-2.5 9q2 13 21 13h294q8 0 12 -4t3 -9zM508 607q-2 41 -27.5 59t-54.5 18q-63 0 -107 -52q-26 -29 -38.5 -74
t-10.5 -74q2 -44 28 -60.5t54 -16.5q32 0 63.5 17.5t50.5 43.5q23 32 33 73t9 66z" />
    <glyph glyph-name="guillemotright" unicode="&#xbb;" horiz-adv-x="662" 
d="M567 242q0 -7 -5 -10q-122 -95 -202 -226q-4 -6 -11 -6h-4q-12 0 -12 12q0 3 2 5q62 126 156 227q-43 104 -43 227q0 12 12 12h4q10 0 12 -10q14 -128 88 -224q3 -3 3 -7zM391 242q0 -7 -5 -10q-122 -95 -202 -226q-4 -6 -11 -6h-4q-12 0 -12 12q0 3 2 5q62 126 156 227
q-43 104 -43 227q0 12 12 12h4q10 0 12 -10q14 -128 88 -224q3 -3 3 -7z" />
    <glyph glyph-name="onequarter" unicode="&#xbc;" horiz-adv-x="938" 
d="M426 318q0 -13 -16 -13q-17 0 -53.5 1t-54.5 1t-55 -1t-54 -1q-5 0 -8 2t-3 4l-1 2q0 14 22 14h10q45 0 57 5t17 22l69 276q-51 -26 -90 -26q-13 0 -14 9q0 11 14 13q2 1 3 1q74 5 130 67q9 9 15 9q4 0 7 -2t3 -4l1 -2q-1 -2 -1 -8l-84 -335q-2 -6 -2 -13q0 -6 4 -8
t18 -3h2q10 -1 33 -1h10q20 0 21 -9zM841 8q0 -8 -32 -14q-20 -5 -45 -5q-11 0 -16 1l-16 -64q-4 -18 -6.5 -25t-9.5 -12t-19 -5q-23 0 -23 18q0 6 2 12l21 85q-69 21 -111 21q-36 0 -47.5 -2.5t-24.5 -10.5q-11 -7 -16 -7q-7 0 -13 12q0 11 28 22q13 5 50.5 35.5t72.5 73.5
q78 98 112 230q7 25 31 25q23 0 23 -18q0 -7 -7.5 -34.5t-36 -84.5t-69.5 -107q-52 -61 -120 -112h26q36 0 107 -21q17 67 21 82l4 15l1 4q1 3 1.5 4l2 4t3 4.5t3.5 4t5 3.5t6.5 2t8.5 1q23 0 23 -18q0 -7 -2 -12l-26 -103q4 -1 14 -1q26 0 52 7q5 2 9 2q5 0 9 -4.5t4 -7.5z
M947 663q-1 -7 -8 -14l-644 -643q-10 -10 -21 -10q-10 0 -15.5 7t-2.5 17q2 8 8 14l643 644q9 9 22 9q10 0 15 -7t3 -17z" />
    <glyph glyph-name="onehalf" unicode="&#xbd;" horiz-adv-x="938" 
d="M426 318q0 -13 -16 -13q-17 0 -53.5 1t-54.5 1t-55 -1t-54 -1q-5 0 -8 2t-3 4l-1 2q0 14 22 14h10q45 0 57 5t17 22l69 276q-51 -26 -90 -26q-13 0 -14 9q0 11 14 13q2 1 3 1q74 5 130 67q9 9 15 9q4 0 7 -2t3 -4l1 -2q-1 -2 -1 -8l-84 -335q-2 -6 -2 -13q0 -6 4 -8
t18 -3h2q10 -1 33 -1h10q20 0 21 -9zM864 98q0 -7 -7.5 -24t-22 -36.5t-40.5 -34.5t-57 -15q-32 0 -82 24q-44 21 -73 21q-27 0 -39 -36q-3 -9 -15 -9q-15 0 -16 7q12 36 26 57q42 60 127 95q84 34 117 73.5t31 90.5q-2 37 -26.5 54t-54.5 17q-63 0 -106 -52t-41 -91
q2 -21 19 -21q30 0 51.5 29t20.5 48q-2 9 -8 19q-4 4 -4 8q0 8 10 8q8 0 14.5 -12t7.5 -23q1 -25 -25.5 -59t-66.5 -34q-20 0 -33.5 10.5t-14.5 31.5q-2 44 49.5 99t126.5 55q59 0 98 -30t41 -76q2 -48 -41 -85.5t-153 -81.5q-74 -34 -106 -76l12 1q27 0 79 -8q50 -8 80 -8
q33 0 57 17.5t33 45.5q4 9 17 9q15 0 15 -8zM863 663q-3 -8 -9 -14l-643 -643q-10 -10 -22 -10q-10 0 -15 7t-3 17q3 8 9 14l643 644q9 9 22 9q10 0 15 -7t3 -17z" />
    <glyph glyph-name="threequarters" unicode="&#xbe;" horiz-adv-x="938" 
d="M574 619q2 -38 -32.5 -71t-83.5 -46q34 -11 50 -33t17 -45q3 -53 -57.5 -92t-137.5 -39q-50 0 -83 22t-34 57q-3 44 35 44q27 0 27 -20q0 -9 -7 -18t-24 -12q4 -28 28.5 -42t57.5 -14q66 0 102 40t34 91q-3 54 -71 54h-26q-19 0 -19 7q-1 7 2 10.5t6.5 4t11.5 0.5h28
q67 0 97 38t28 76q-4 56 -75 56q-56 0 -99 -31t-41 -65q0 -22 21 -22q16 0 30.5 9.5t13.5 23.5q-1 9 -10 18q-3 6 -3 7q0 8 10 8q7 0 14.5 -11t8.5 -21q1 -21 -20 -36t-44 -15q-22 0 -36 11.5t-15 30.5q-2 40 48.5 74.5t121.5 34.5q54 0 89 -23.5t37 -60.5zM841 8
q0 -8 -32 -14q-20 -5 -45 -5q-11 0 -16 1l-16 -64q-4 -18 -6.5 -25t-9.5 -12t-19 -5q-23 0 -23 18q0 6 2 12l21 85q-69 21 -111 21q-36 0 -47.5 -2.5t-24.5 -10.5q-11 -7 -16 -7q-7 0 -13 12q0 11 28 22q13 5 50.5 35.5t72.5 73.5q78 98 112 230q7 25 31 25q23 0 23 -18
q0 -7 -7.5 -34.5t-36 -84.5t-69.5 -107q-52 -61 -120 -112h26q36 0 107 -21q17 67 21 82l4 15l1 4q1 3 1.5 4l2 4t3 4.5t3.5 4t5 3.5t6.5 2t8.5 1q23 0 23 -18q0 -7 -2 -12l-26 -103q4 -1 14 -1q26 0 52 7q5 2 9 2q5 0 9 -4.5t4 -7.5zM947 663q-1 -7 -8 -14l-644 -643
q-10 -10 -21 -10q-10 0 -15.5 7t-2.5 17q2 8 8 14l643 644q9 9 22 9q10 0 15 -7t3 -17z" />
    <glyph glyph-name="questiondown" unicode="&#xbf;" 
d="M470 453q0 -26 -21.5 -47t-48.5 -21q-21 0 -34.5 14t-13.5 33q0 25 21 46.5t49 21.5q21 0 34.5 -13t13.5 -34zM513 35q0 -21 -18.5 -60.5t-50 -82.5t-84 -74.5t-110.5 -31.5q-63 0 -102.5 36.5t-39.5 93.5q0 93 112 171l75 52q71 48 82 57q25 19 25 50q0 32 -31 32
q-25 0 -49.5 -19t-33.5 -45q-4 -12 -7 -14t-15 -2q-21 0 -21 13q0 26 37 60.5t90 34.5q36 0 53.5 -22t17.5 -52t-15 -55t-30 -37.5t-49 -36.5l-144 -100q-55 -44 -55 -102q0 -40 29 -63.5t72 -23.5q56 0 112 43.5t93 128.5q-28 7 -28 34q0 20 15 34.5t34 14.5q16 0 26 -9.5
t10 -24.5z" />
    <glyph glyph-name="Agrave" unicode="&#xc0;" horiz-adv-x="866" 
d="M797 22q0 -22 -21 -22q-16 0 -51.5 2t-52.5 2q-19 0 -59.5 -2t-58.5 -2q-6 0 -10 3.5t-4 6.5l-1 4q0 10 4 15t9 6t15 1q50 0 60 25l-21 170h-275q-36 -60 -52 -84q-42 -65 -42 -82q0 -27 39 -29q16 0 16 -14q0 -22 -20 -22q-15 0 -49 2t-50 2q-13 0 -41.5 -2t-40.5 -2
q-7 0 -11 4.5t-4 9.5q0 20 23 22q36 3 62.5 20t54.5 62l359 574q8 13 14 17t21 4q16 0 20 -4.5t6 -22.5l77 -617q2 -21 10.5 -27t44.5 -6q29 0 29 -14zM601 267l-41 330l-206 -330h247zM704 770q-2 -5 -12 -15.5t-18 -11.5q-8 0 -15 4l-149 87q-23 12 -16 32q5 17 20 28
t31 11q14 0 20 -9l132 -112q9 -9 7 -14z" />
    <glyph glyph-name="Aacute" unicode="&#xc1;" horiz-adv-x="866" 
d="M797 22q0 -22 -21 -22q-16 0 -51.5 2t-52.5 2q-19 0 -59.5 -2t-58.5 -2q-6 0 -10 3.5t-4 6.5l-1 4q0 10 4 15t9 6t15 1q50 0 60 25l-21 170h-275q-36 -60 -52 -84q-42 -65 -42 -82q0 -27 39 -29q16 0 16 -14q0 -22 -20 -22q-15 0 -49 2t-50 2q-13 0 -41.5 -2t-40.5 -2
q-7 0 -11 4.5t-4 9.5q0 20 23 22q36 3 62.5 20t54.5 62l359 574q8 13 14 17t21 4q16 0 20 -4.5t6 -22.5l77 -617q2 -21 10.5 -27t44.5 -6q29 0 29 -14zM601 267l-41 330l-206 -330h247zM806 866q-1 -9 -6.5 -15.5t-10.5 -9.5t-15 -7l-193 -87q-9 -4 -17 -4q-7 1 -12 11.5
t-4 15.5q1 6 14 14l188 112q9 9 24 9q17 0 26 -11.5t6 -27.5z" />
    <glyph glyph-name="Acircumflex" unicode="&#xc2;" horiz-adv-x="866" 
d="M797 22q0 -22 -21 -22q-16 0 -51.5 2t-52.5 2q-19 0 -59.5 -2t-58.5 -2q-6 0 -10 3.5t-4 6.5l-1 4q0 10 4 15t9 6t15 1q50 0 60 25l-21 170h-275q-36 -60 -52 -84q-42 -65 -42 -82q0 -27 39 -29q16 0 16 -14q0 -22 -20 -22q-15 0 -49 2t-50 2q-13 0 -41.5 -2t-40.5 -2
q-7 0 -11 4.5t-4 9.5q0 20 23 22q36 3 62.5 20t54.5 62l359 574q8 13 14 17t21 4q16 0 20 -4.5t6 -22.5l77 -617q2 -21 10.5 -27t44.5 -6q29 0 29 -14zM601 267l-41 330l-206 -330h247zM758 752q6 -5 -1 -13.5t-14 -4.5l-112 55l-140 -55q-6 -2 -10 1t-3 8.5t7 8.5l155 98
q7 3 12 0z" />
    <glyph glyph-name="Atilde" unicode="&#xc3;" horiz-adv-x="866" 
d="M797 22q0 -22 -21 -22q-16 0 -51.5 2t-52.5 2q-19 0 -59.5 -2t-58.5 -2q-6 0 -10 3.5t-4 6.5l-1 4q0 10 4 15t9 6t15 1q50 0 60 25l-21 170h-275q-36 -60 -52 -84q-42 -65 -42 -82q0 -27 39 -29q16 0 16 -14q0 -22 -20 -22q-15 0 -49 2t-50 2q-13 0 -41.5 -2t-40.5 -2
q-7 0 -11 4.5t-4 9.5q0 20 23 22q36 3 62.5 20t54.5 62l359 574q8 13 14 17t21 4q16 0 20 -4.5t6 -22.5l77 -617q2 -21 10.5 -27t44.5 -6q29 0 29 -14zM601 267l-41 330l-206 -330h247zM815 828q0 -10 -59 -57q-56 -38 -85 -38q-33 0 -57 36q-22 31 -39 31q-32 0 -103 -59
q-8 -8 -13 -8q-14 0 -14 14q0 5 3.5 9t21.5 19q78 67 120 67q31 0 58 -37q9 -12 12.5 -16.5t10.5 -9t15 -4.5q31 0 94 53q15 14 22 14q13 0 13 -14z" />
    <glyph glyph-name="Adieresis" unicode="&#xc4;" horiz-adv-x="866" 
d="M797 22q0 -22 -21 -22q-16 0 -51.5 2t-52.5 2q-19 0 -59.5 -2t-58.5 -2q-6 0 -10 3.5t-4 6.5l-1 4q0 10 4 15t9 6t15 1q50 0 60 25l-21 170h-275q-36 -60 -52 -84q-42 -65 -42 -82q0 -27 39 -29q16 0 16 -14q0 -22 -20 -22q-15 0 -49 2t-50 2q-13 0 -41.5 -2t-40.5 -2
q-7 0 -11 4.5t-4 9.5q0 20 23 22q36 3 62.5 20t54.5 62l359 574q8 13 14 17t21 4q16 0 20 -4.5t6 -22.5l77 -617q2 -21 10.5 -27t44.5 -6q29 0 29 -14zM601 267l-41 330l-206 -330h247zM570 795q0 -24 -19 -43t-43 -19q-20 0 -32 12.5t-11 30.5q-1 22 18 41.5t44 19.5
q19 0 31.5 -12t11.5 -30zM796 795q0 -24 -19 -43t-43 -19q-20 0 -32 12.5t-11 30.5q-1 22 18 41.5t44 19.5q19 0 31.5 -12t11.5 -30z" />
    <glyph glyph-name="Aring" unicode="&#xc5;" horiz-adv-x="866" 
d="M797 22q0 -22 -21 -22q-16 0 -51.5 2t-52.5 2q-19 0 -59.5 -2t-58.5 -2q-6 0 -10 3.5t-4 6.5l-1 4q0 10 4 15t9 6t15 1q50 0 60 25l-21 170h-275q-36 -60 -52 -84q-42 -65 -42 -82q0 -27 39 -29q16 0 16 -14q0 -22 -20 -22q-15 0 -49 2t-50 2q-13 0 -41.5 -2t-40.5 -2
q-7 0 -11 4.5t-4 9.5q0 20 23 22q36 3 62.5 20t54.5 62l359 574q8 13 14 17t21 4q16 0 20 -4.5t6 -22.5l77 -617q2 -21 10.5 -27t44.5 -6q29 0 29 -14zM601 267l-41 330l-206 -330h247zM696 821q0 33 -50 33q-40 0 -56 -19q-20 -21 -20 -55q0 -32 49 -32q40 0 57 18
q20 24 20 55zM744 818q0 -40 -40.5 -72.5t-92.5 -32.5q-40 0 -64.5 19.5t-24.5 51.5q0 40 40.5 72.5t91.5 32.5q41 0 65.5 -20.5t24.5 -50.5z" />
    <glyph glyph-name="AE" unicode="&#xc6;" horiz-adv-x="1028" 
d="M1022 249q0 -5 -6 -17l-94 -215q-5 -12 -9.5 -14.5t-21.5 -2.5h-454q-29 0 -29 14q0 10 4.5 15.5t9.5 6t14 0.5q33 0 42.5 7t15.5 30l59 237h-167l-130 -204q-18 -28 -18 -42q0 -24 39 -28q16 -1 16 -14q0 -22 -21 -22q-15 0 -49 2t-50 2q-13 0 -41.5 -2t-40.5 -2
q-14 0 -14 14q0 9 3.5 14t7.5 6t12 2q38 3 65 22t54 62l337 527h-40q-10 0 -15 0.5t-9 3.5t-4 10q0 10 4.5 15t9.5 6t16 1h522q13 0 18 -1t7.5 -6.5t1.5 -18.5l-19 -180q-1 -10 -2.5 -14t-6 -7t-13.5 -3q-21 0 -21 17q0 1 2.5 26t2.5 46q0 56 -24 80.5t-106 24.5h-122
q-26 0 -34 -5t-14 -30l-66 -266h94q61 0 86 18.5t40 75.5q3 15 6.5 19t16.5 4q21 0 21 -15q0 -1 -4 -18l-54 -217q-3 -13 -7 -16.5t-16 -3.5q-21 0 -21 15q0 4 3 12q7 28 7 47q0 23 -14.5 33t-65.5 10h-101l-61 -245q-4 -15 -4 -27q9 -2 28 -2h121q56 0 94 10t66 37
t46.5 57.5t43.5 86.5q13 30 17 33t15 3q21 0 21 -14zM562 346l65 261l4 18q0 19 -32 19l-190 -298h153z" />
    <glyph glyph-name="Ccedilla" unicode="&#xc7;" horiz-adv-x="838" 
d="M850 437q-4 -14 -7.5 -17t-16.5 -3q-21 0 -21 13q0 6 2 22t2 23q0 79 -43 135.5t-126 56.5q-75 0 -147.5 -38t-120.5 -96q-61 -76 -85 -161t-24 -144q0 -57 19 -100t51 -66.5t67 -34.5t73 -11q85 0 169 59.5t116 165.5q3 12 21 12q21 0 21 -13q-2 -10 -7 -28t-34 -64.5
t-74 -83.5q-104 -84 -227 -84h-6q-2 -5 -4.5 -14.5t-2.5 -10.5q72 -10 72 -58q0 -29 -19.5 -47.5t-56.5 -26.5t-69 -10.5t-77 -2.5h-30q-14 2 -14 14q0 7 4 10t9 3.5t15 0.5h16q149 0 149 58q0 30 -56 35q-19 0 -19 14q0 1 1.5 8t4 18t4.5 18q-94 22 -151 93.5t-57 175.5
q0 112 67 216t174 166.5t219 62.5q109 0 171 -77l9 -11l9 9l61 69q10 10 17 10q6 0 9.5 -3t4.5 -6v-3q0 -1 -2 -13z" />
    <glyph glyph-name="Egrave" unicode="&#xc8;" horiz-adv-x="793" 
d="M787 249q0 -5 -6 -17l-94 -215q-5 -12 -9.5 -14.5t-21.5 -2.5h-534q-10 0 -15 0.5t-9 3.5t-4 10q0 11 4 15.5t9.5 5.5t18.5 1q47 0 59.5 8t19.5 36l131 524q4 14 4 23q0 11 -12.5 13.5t-43.5 2.5q-30 0 -30 14q0 10 4.5 15t10 6t16.5 1h519q13 0 18 -1t7.5 -6.5
t1.5 -18.5l-19 -180q-1 -10 -2.5 -14t-6 -7t-13.5 -3q-21 0 -21 17q5 48 5 67q0 63 -31.5 86.5t-119.5 23.5h-153q-26 0 -34 -5t-14 -30l-59 -237h99q64 0 89 18.5t40 74.5q4 16 7.5 20t15.5 4q21 0 21 -14q0 -7 -2 -13l-56 -223q-3 -13 -7 -16.5t-16 -3.5q-21 0 -21 14
q0 3 3 12q7 29 7 47q0 24 -15 34t-68 10h-106l-67 -270q-4 -15 -4 -27q9 -2 28 -2h161q58 0 98 10.5t70 36t49.5 57.5t44.5 87q12 30 17 33q4 3 15 3q21 0 21 -14zM667 770q-2 -5 -12 -15.5t-18 -11.5q-8 0 -15 4l-149 87q-23 12 -16 32q5 17 20 28t31 11q14 0 20 -9
l132 -112q9 -9 7 -14z" />
    <glyph glyph-name="Eacute" unicode="&#xc9;" horiz-adv-x="793" 
d="M787 249q0 -5 -6 -17l-94 -215q-5 -12 -9.5 -14.5t-21.5 -2.5h-534q-10 0 -15 0.5t-9 3.5t-4 10q0 11 4 15.5t9.5 5.5t18.5 1q47 0 59.5 8t19.5 36l131 524q4 14 4 23q0 11 -12.5 13.5t-43.5 2.5q-30 0 -30 14q0 10 4.5 15t10 6t16.5 1h519q13 0 18 -1t7.5 -6.5
t1.5 -18.5l-19 -180q-1 -10 -2.5 -14t-6 -7t-13.5 -3q-21 0 -21 17q5 48 5 67q0 63 -31.5 86.5t-119.5 23.5h-153q-26 0 -34 -5t-14 -30l-59 -237h99q64 0 89 18.5t40 74.5q4 16 7.5 20t15.5 4q21 0 21 -14q0 -7 -2 -13l-56 -223q-3 -13 -7 -16.5t-16 -3.5q-21 0 -21 14
q0 3 3 12q7 29 7 47q0 24 -15 34t-68 10h-106l-67 -270q-4 -15 -4 -27q9 -2 28 -2h161q58 0 98 10.5t70 36t49.5 57.5t44.5 87q12 30 17 33q4 3 15 3q21 0 21 -14zM769 866q-1 -9 -6.5 -15.5t-10.5 -9.5t-15 -7l-193 -87q-9 -4 -17 -4q-7 1 -12 11.5t-4 15.5q1 6 14 14
l188 112q9 9 24 9q17 0 26 -11.5t6 -27.5z" />
    <glyph glyph-name="Ecircumflex" unicode="&#xca;" horiz-adv-x="793" 
d="M787 249q0 -5 -6 -17l-94 -215q-5 -12 -9.5 -14.5t-21.5 -2.5h-534q-10 0 -15 0.5t-9 3.5t-4 10q0 11 4 15.5t9.5 5.5t18.5 1q47 0 59.5 8t19.5 36l131 524q4 14 4 23q0 11 -12.5 13.5t-43.5 2.5q-30 0 -30 14q0 10 4.5 15t10 6t16.5 1h519q13 0 18 -1t7.5 -6.5
t1.5 -18.5l-19 -180q-1 -10 -2.5 -14t-6 -7t-13.5 -3q-21 0 -21 17q5 48 5 67q0 63 -31.5 86.5t-119.5 23.5h-153q-26 0 -34 -5t-14 -30l-59 -237h99q64 0 89 18.5t40 74.5q4 16 7.5 20t15.5 4q21 0 21 -14q0 -7 -2 -13l-56 -223q-3 -13 -7 -16.5t-16 -3.5q-21 0 -21 14
q0 3 3 12q7 29 7 47q0 24 -15 34t-68 10h-106l-67 -270q-4 -15 -4 -27q9 -2 28 -2h161q58 0 98 10.5t70 36t49.5 57.5t44.5 87q12 30 17 33q4 3 15 3q21 0 21 -14zM721 752q6 -5 -1 -13.5t-14 -4.5l-112 55l-140 -55q-6 -2 -10 1t-3 8.5t7 8.5l155 98q7 3 12 0z" />
    <glyph glyph-name="Edieresis" unicode="&#xcb;" horiz-adv-x="793" 
d="M787 249q0 -5 -6 -17l-94 -215q-5 -12 -9.5 -14.5t-21.5 -2.5h-534q-10 0 -15 0.5t-9 3.5t-4 10q0 11 4 15.5t9.5 5.5t18.5 1q47 0 59.5 8t19.5 36l131 524q4 14 4 23q0 11 -12.5 13.5t-43.5 2.5q-30 0 -30 14q0 10 4.5 15t10 6t16.5 1h519q13 0 18 -1t7.5 -6.5
t1.5 -18.5l-19 -180q-1 -10 -2.5 -14t-6 -7t-13.5 -3q-21 0 -21 17q5 48 5 67q0 63 -31.5 86.5t-119.5 23.5h-153q-26 0 -34 -5t-14 -30l-59 -237h99q64 0 89 18.5t40 74.5q4 16 7.5 20t15.5 4q21 0 21 -14q0 -7 -2 -13l-56 -223q-3 -13 -7 -16.5t-16 -3.5q-21 0 -21 14
q0 3 3 12q7 29 7 47q0 24 -15 34t-68 10h-106l-67 -270q-4 -15 -4 -27q9 -2 28 -2h161q58 0 98 10.5t70 36t49.5 57.5t44.5 87q12 30 17 33q4 3 15 3q21 0 21 -14zM533 795q0 -24 -19 -43t-43 -19q-20 0 -32 12.5t-11 30.5q-1 22 18 41.5t44 19.5q19 0 31.5 -12t11.5 -30z
M759 795q0 -24 -19 -43t-43 -19q-20 0 -32 12.5t-11 30.5q-1 22 18 41.5t44 19.5q19 0 31.5 -12t11.5 -30z" />
    <glyph glyph-name="Igrave" unicode="&#xcc;" horiz-adv-x="455" 
d="M536 668q0 -10 -4.5 -14.5t-10 -5.5t-17.5 -1q-36 0 -52.5 -4t-21 -11t-9.5 -26l-133 -533q-4 -14 -4 -20t1 -8t6 -4t16 -3l38 -2q11 0 15.5 -0.5t9 -3.5t4.5 -10q0 -22 -21 -22q-20 0 -62.5 2t-63.5 2q-20 0 -62 -2t-62 -2q-6 0 -10 3.5t-5 6.5v4q0 11 4.5 15.5t10 5.5
t18.5 1q49 0 62.5 7.5t19.5 33.5l133 531q4 14 4 23q0 11 -14 13.5t-47 2.5q-30 0 -30 14q0 22 22 22q20 0 62 -2t63 -2q20 0 62.5 2t61.5 2q16 0 16 -15zM498 770q-2 -5 -12 -15.5t-18 -11.5q-8 0 -15 4l-149 87q-23 12 -16 32q5 17 20 28t31 11q14 0 20 -9l132 -112
q9 -9 7 -14z" />
    <glyph glyph-name="Iacute" unicode="&#xcd;" horiz-adv-x="455" 
d="M536 668q0 -10 -4.5 -14.5t-10 -5.5t-17.5 -1q-36 0 -52.5 -4t-21 -11t-9.5 -26l-133 -533q-4 -14 -4 -20t1 -8t6 -4t16 -3l38 -2q11 0 15.5 -0.5t9 -3.5t4.5 -10q0 -22 -21 -22q-20 0 -62.5 2t-63.5 2q-20 0 -62 -2t-62 -2q-6 0 -10 3.5t-5 6.5v4q0 11 4.5 15.5t10 5.5
t18.5 1q49 0 62.5 7.5t19.5 33.5l133 531q4 14 4 23q0 11 -14 13.5t-47 2.5q-30 0 -30 14q0 22 22 22q20 0 62 -2t63 -2q20 0 62.5 2t61.5 2q16 0 16 -15zM600 866q-1 -9 -6.5 -15.5t-10.5 -9.5t-15 -7l-193 -87q-9 -4 -17 -4q-7 1 -12 11.5t-4 15.5q1 6 14 14l188 112
q9 9 24 9q17 0 26 -11.5t6 -27.5z" />
    <glyph glyph-name="Icircumflex" unicode="&#xce;" horiz-adv-x="455" 
d="M536 668q0 -10 -4.5 -14.5t-10 -5.5t-17.5 -1q-36 0 -52.5 -4t-21 -11t-9.5 -26l-133 -533q-4 -14 -4 -20t1 -8t6 -4t16 -3l38 -2q11 0 15.5 -0.5t9 -3.5t4.5 -10q0 -22 -21 -22q-20 0 -62.5 2t-63.5 2q-20 0 -62 -2t-62 -2q-6 0 -10 3.5t-5 6.5v4q0 11 4.5 15.5t10 5.5
t18.5 1q49 0 62.5 7.5t19.5 33.5l133 531q4 14 4 23q0 11 -14 13.5t-47 2.5q-30 0 -30 14q0 22 22 22q20 0 62 -2t63 -2q20 0 62.5 2t61.5 2q16 0 16 -15zM552 752q6 -5 -1 -13.5t-14 -4.5l-112 55l-140 -55q-6 -2 -10 1t-3 8.5t7 8.5l155 98q7 3 12 0z" />
    <glyph glyph-name="Idieresis" unicode="&#xcf;" horiz-adv-x="455" 
d="M536 668q0 -10 -4.5 -14.5t-10 -5.5t-17.5 -1q-36 0 -52.5 -4t-21 -11t-9.5 -26l-133 -533q-4 -14 -4 -20t1 -8t6 -4t16 -3l38 -2q11 0 15.5 -0.5t9 -3.5t4.5 -10q0 -22 -21 -22q-20 0 -62.5 2t-63.5 2q-20 0 -62 -2t-62 -2q-6 0 -10 3.5t-5 6.5v4q0 11 4.5 15.5t10 5.5
t18.5 1q49 0 62.5 7.5t19.5 33.5l133 531q4 14 4 23q0 11 -14 13.5t-47 2.5q-30 0 -30 14q0 22 22 22q20 0 62 -2t63 -2q20 0 62.5 2t61.5 2q16 0 16 -15zM364 795q0 -24 -19 -43t-43 -19q-20 0 -32 12.5t-11 30.5q-1 22 18 41.5t44 19.5q19 0 31.5 -12t11.5 -30zM590 795
q0 -24 -19 -43t-43 -19q-20 0 -32 12.5t-11 30.5q-1 22 18 41.5t44 19.5q19 0 31.5 -12t11.5 -30z" />
    <glyph glyph-name="Eth" unicode="&#xd0;" horiz-adv-x="881" 
d="M878 426q0 -110 -61.5 -209.5t-158 -158t-197.5 -58.5h-337q-10 0 -15 0.5t-9 3.5t-4 10q0 10 4.5 15t9.5 6t16 1q48 0 61 7.5t19 33.5l62 247h-97q-7 0 -11 5.5t-2 12.5q4 18 22 18h97l62 248q4 14 4 23q0 11 -12.5 13.5t-43.5 2.5q-30 0 -30 14q0 10 4.5 15t10 6
t16.5 1h343q107 0 177 -70t70 -187zM791 457q0 54 -18 93t-48.5 59t-62 29t-65.5 9h-128q-26 0 -34 -5t-14 -30l-63 -252h173q8 0 11.5 -5.5t1.5 -12.5q-4 -18 -22 -18h-173l-64 -259q-4 -15 -4 -27q9 -2 28 -2h136q150 0 248 121q46 57 72 146.5t26 153.5z" />
    <glyph glyph-name="Ntilde" unicode="&#xd1;" horiz-adv-x="866" 
d="M941 669q0 -20 -18 -22q-45 -2 -68 -18t-33 -57l-138 -553q-3 -13 -7 -16t-18 -3q-12 0 -16 2.5t-9 13.5l-253 583l-125 -501q-3 -9 -3 -22q0 -39 60 -40q18 0 18 -14q0 -22 -20 -22q-16 0 -50.5 2t-51.5 2t-51 -2t-50 -2q-14 0 -14 14q0 20 18 22q25 1 41.5 5t34 21
t24.5 46l132 531q0 8 -59 8q-30 0 -30 14q0 10 4.5 15t10 6t16.5 1h122q16 0 21 -2.5t11 -15.5l227 -525l111 441q4 16 4 26q0 18 -12 28.5t-48 11.5q-19 0 -19 14q0 22 21 22q16 0 50.5 -2t51.5 -2q16 0 50.5 2t49.5 2t15 -14zM815 828q0 -10 -59 -57q-56 -38 -85 -38
q-33 0 -57 36q-22 31 -39 31q-32 0 -103 -59q-8 -8 -13 -8q-14 0 -14 14q0 5 3.5 9t21.5 19q78 67 120 67q31 0 58 -37q9 -12 12.5 -16.5t10.5 -9t15 -4.5q31 0 94 53q15 14 22 14q13 0 13 -14z" />
    <glyph glyph-name="Ograve" unicode="&#xd2;" horiz-adv-x="897" 
d="M895 429q0 -113 -65.5 -218t-170.5 -168t-216 -63q-122 0 -198 76t-76 194q0 109 64 214.5t170.5 172t219.5 66.5q119 0 195.5 -75t76.5 -199zM805 462q0 56 -17 98t-46 65.5t-61 34.5t-66 11q-93 0 -174 -61.5t-128.5 -163.5t-47.5 -216q0 -110 55 -163.5t131 -53.5
q73 0 140.5 42t113 107.5t73 145t27.5 154.5zM719 770q-2 -5 -12 -15.5t-18 -11.5q-8 0 -15 4l-149 87q-23 12 -16 32q5 17 20 28t31 11q14 0 20 -9l132 -112q9 -9 7 -14z" />
    <glyph glyph-name="Oacute" unicode="&#xd3;" horiz-adv-x="897" 
d="M895 429q0 -113 -65.5 -218t-170.5 -168t-216 -63q-122 0 -198 76t-76 194q0 109 64 214.5t170.5 172t219.5 66.5q119 0 195.5 -75t76.5 -199zM805 462q0 56 -17 98t-46 65.5t-61 34.5t-66 11q-93 0 -174 -61.5t-128.5 -163.5t-47.5 -216q0 -110 55 -163.5t131 -53.5
q73 0 140.5 42t113 107.5t73 145t27.5 154.5zM821 866q-1 -9 -6.5 -15.5t-10.5 -9.5t-15 -7l-193 -87q-9 -4 -17 -4q-7 1 -12 11.5t-4 15.5q1 6 14 14l188 112q9 9 24 9q17 0 26 -11.5t6 -27.5z" />
    <glyph glyph-name="Ocircumflex" unicode="&#xd4;" horiz-adv-x="897" 
d="M895 429q0 -113 -65.5 -218t-170.5 -168t-216 -63q-122 0 -198 76t-76 194q0 109 64 214.5t170.5 172t219.5 66.5q119 0 195.5 -75t76.5 -199zM805 462q0 56 -17 98t-46 65.5t-61 34.5t-66 11q-93 0 -174 -61.5t-128.5 -163.5t-47.5 -216q0 -110 55 -163.5t131 -53.5
q73 0 140.5 42t113 107.5t73 145t27.5 154.5zM773 752q6 -5 -1 -13.5t-14 -4.5l-112 55l-140 -55q-6 -2 -10 1t-3 8.5t7 8.5l155 98q7 3 12 0z" />
    <glyph glyph-name="Otilde" unicode="&#xd5;" horiz-adv-x="897" 
d="M895 429q0 -113 -65.5 -218t-170.5 -168t-216 -63q-122 0 -198 76t-76 194q0 109 64 214.5t170.5 172t219.5 66.5q119 0 195.5 -75t76.5 -199zM805 462q0 56 -17 98t-46 65.5t-61 34.5t-66 11q-93 0 -174 -61.5t-128.5 -163.5t-47.5 -216q0 -110 55 -163.5t131 -53.5
q73 0 140.5 42t113 107.5t73 145t27.5 154.5zM830 828q0 -10 -59 -57q-56 -38 -85 -38q-33 0 -57 36q-22 31 -39 31q-32 0 -103 -59q-8 -8 -13 -8q-14 0 -14 14q0 5 3.5 9t21.5 19q78 67 120 67q31 0 58 -37q9 -12 12.5 -16.5t10.5 -9t15 -4.5q31 0 94 53q15 14 22 14
q13 0 13 -14z" />
    <glyph glyph-name="Odieresis" unicode="&#xd6;" horiz-adv-x="897" 
d="M895 429q0 -113 -65.5 -218t-170.5 -168t-216 -63q-122 0 -198 76t-76 194q0 109 64 214.5t170.5 172t219.5 66.5q119 0 195.5 -75t76.5 -199zM805 462q0 56 -17 98t-46 65.5t-61 34.5t-66 11q-93 0 -174 -61.5t-128.5 -163.5t-47.5 -216q0 -110 55 -163.5t131 -53.5
q73 0 140.5 42t113 107.5t73 145t27.5 154.5zM585 795q0 -24 -19 -43t-43 -19q-20 0 -32 12.5t-11 30.5q-1 22 18 41.5t44 19.5q19 0 31.5 -12t11.5 -30zM811 795q0 -24 -19 -43t-43 -19q-20 0 -32 12.5t-11 30.5q-1 22 18 41.5t44 19.5q19 0 31.5 -12t11.5 -30z" />
    <glyph glyph-name="multiply" unicode="&#xd7;" horiz-adv-x="897" 
d="M702 6q-7 -6 -18 -8t-22 4q-1 1 -11 13l-150 200l-250 -200q-34 -25 -51 -13q-7 5 -8.5 9.5t4 11t8 9t10.5 9.5l261 209l-159 212q-14 19 2 33q23 16 40 3q5 -4 12 -13l150 -199l249 199q35 27 53 14q17 -13 -16 -40l-261 -208l159 -211q17 -19 -2 -34z" />
    <glyph glyph-name="Oslash" unicode="&#xd8;" horiz-adv-x="897" 
d="M895 429q0 -113 -65.5 -218t-170.5 -168t-216 -63q-106 0 -181 60q-25 -29 -82 -86q-19 -18 -24 -18q-7 0 -12 5t-5 11q0 7 18 24q3 3 12 12.5t11 12.5q44 44 59 61q-70 76 -70 188q0 109 64 214.5t170.5 172t219.5 66.5q106 0 180 -61q74 78 79 83q23 22 28 22
q7 0 12 -5t5 -11q0 -7 -38 -46l-44 -44l-19 -21q69 -77 69 -191zM770 609q-55 66 -154 66q-66 0 -136.5 -34t-125.5 -106q-53 -68 -79.5 -162t-26.5 -157q0 -67 27 -117zM816 464q0 73 -27 118l-494 -509q55 -65 155 -65q75 0 140.5 35.5t103.5 80.5q48 56 78 132.5t37 124
t7 83.5z" />
    <glyph glyph-name="Ugrave" unicode="&#xd9;" horiz-adv-x="866" 
d="M941 669q0 -20 -18 -22q-44 -2 -67.5 -17.5t-33.5 -57.5l-88 -355q-22 -87 -105.5 -162t-188.5 -75q-87 0 -146 53.5t-59 140.5q0 28 7 55l95 379q4 14 4 23q0 11 -12.5 13.5t-43.5 2.5q-30 0 -30 14q0 22 21 22q19 0 60.5 -2t61.5 -2t60 2t59 2q15 0 15 -14
q0 -11 -4 -15.5t-9.5 -5.5t-17.5 -1q-47 0 -60 -7t-19 -33l-97 -389q-9 -34 -9 -70q0 -70 39 -101t89 -31q83 0 155.5 62t94.5 151l88 352q4 16 4 26q0 18 -12 28.5t-48 11.5q-19 0 -19 14q0 22 21 22q15 0 49.5 -2t50.5 -2t49.5 2t48.5 2t15 -14zM730 770q-2 -5 -12 -15.5
t-18 -11.5q-8 0 -15 4l-149 87q-23 12 -16 32q5 17 20 28t31 11q14 0 20 -9l132 -112q9 -9 7 -14z" />
    <glyph glyph-name="Uacute" unicode="&#xda;" horiz-adv-x="866" 
d="M941 669q0 -20 -18 -22q-44 -2 -67.5 -17.5t-33.5 -57.5l-88 -355q-22 -87 -105.5 -162t-188.5 -75q-87 0 -146 53.5t-59 140.5q0 28 7 55l95 379q4 14 4 23q0 11 -12.5 13.5t-43.5 2.5q-30 0 -30 14q0 22 21 22q19 0 60.5 -2t61.5 -2t60 2t59 2q15 0 15 -14
q0 -11 -4 -15.5t-9.5 -5.5t-17.5 -1q-47 0 -60 -7t-19 -33l-97 -389q-9 -34 -9 -70q0 -70 39 -101t89 -31q83 0 155.5 62t94.5 151l88 352q4 16 4 26q0 18 -12 28.5t-48 11.5q-19 0 -19 14q0 22 21 22q15 0 49.5 -2t50.5 -2t49.5 2t48.5 2t15 -14zM832 866q-1 -9 -6.5 -15.5
t-10.5 -9.5t-15 -7l-193 -87q-9 -4 -17 -4q-7 1 -12 11.5t-4 15.5q1 6 14 14l188 112q9 9 24 9q17 0 26 -11.5t6 -27.5z" />
    <glyph glyph-name="Ucircumflex" unicode="&#xdb;" horiz-adv-x="866" 
d="M941 669q0 -20 -18 -22q-44 -2 -67.5 -17.5t-33.5 -57.5l-88 -355q-22 -87 -105.5 -162t-188.5 -75q-87 0 -146 53.5t-59 140.5q0 28 7 55l95 379q4 14 4 23q0 11 -12.5 13.5t-43.5 2.5q-30 0 -30 14q0 22 21 22q19 0 60.5 -2t61.5 -2t60 2t59 2q15 0 15 -14
q0 -11 -4 -15.5t-9.5 -5.5t-17.5 -1q-47 0 -60 -7t-19 -33l-97 -389q-9 -34 -9 -70q0 -70 39 -101t89 -31q83 0 155.5 62t94.5 151l88 352q4 16 4 26q0 18 -12 28.5t-48 11.5q-19 0 -19 14q0 22 21 22q15 0 49.5 -2t50.5 -2t49.5 2t48.5 2t15 -14zM784 752q6 -5 -1 -13.5
t-14 -4.5l-112 55l-140 -55q-6 -2 -10 1t-3 8.5t7 8.5l155 98q7 3 12 0z" />
    <glyph glyph-name="Udieresis" unicode="&#xdc;" horiz-adv-x="866" 
d="M941 669q0 -20 -18 -22q-44 -2 -67.5 -17.5t-33.5 -57.5l-88 -355q-22 -87 -105.5 -162t-188.5 -75q-87 0 -146 53.5t-59 140.5q0 28 7 55l95 379q4 14 4 23q0 11 -12.5 13.5t-43.5 2.5q-30 0 -30 14q0 22 21 22q19 0 60.5 -2t61.5 -2t60 2t59 2q15 0 15 -14
q0 -11 -4 -15.5t-9.5 -5.5t-17.5 -1q-47 0 -60 -7t-19 -33l-97 -389q-9 -34 -9 -70q0 -70 39 -101t89 -31q83 0 155.5 62t94.5 151l88 352q4 16 4 26q0 18 -12 28.5t-48 11.5q-19 0 -19 14q0 22 21 22q15 0 49.5 -2t50.5 -2t49.5 2t48.5 2t15 -14zM596 795q0 -24 -19 -43
t-43 -19q-20 0 -32 12.5t-11 30.5q-1 22 18 41.5t44 19.5q19 0 31.5 -12t11.5 -30zM822 795q0 -24 -19 -43t-43 -19q-20 0 -32 12.5t-11 30.5q-1 22 18 41.5t44 19.5q19 0 31.5 -12t11.5 -30z" />
    <glyph glyph-name="Yacute" unicode="&#xdd;" horiz-adv-x="866" 
d="M979 669q0 -9 -4 -14t-7.5 -6t-10.5 -2q-74 -6 -145 -83l-263 -281q-8 -8 -12 -23l-30 -124q-20 -80 -20 -85q0 -15 56 -15q17 0 23.5 -2t6.5 -12q0 -22 -21 -22q-19 0 -59.5 2t-60.5 2q-19 0 -59 -2t-58 -2q-15 0 -15 14q0 10 4 15t9 6t15 1q53 1 64.5 9.5t23.5 56.5
l43 172l-149 346q-6 15 -19 21t-46 6q-10 0 -14.5 0.5t-8.5 4t-4 10.5q0 21 20 21q16 0 51.5 -2t52.5 -2q20 0 61 2t60 2q16 0 16 -14q0 -22 -24 -22q-50 0 -50 -18q0 -3 6 -15l125 -291l241 257q2 2 4 5.5t4 5.5q1 1 3 3.5t4 4.5q16 19 16 32q0 14 -27 16q-16 2 -16 14
q0 22 21 22q15 0 49.5 -2t50.5 -2q13 0 40 2t38 2q7 0 11 -4.5t4 -9.5zM806 866q-1 -9 -6.5 -15.5t-10.5 -9.5t-15 -7l-193 -87q-9 -4 -17 -4q-7 1 -12 11.5t-4 15.5q1 6 14 14l188 112q9 9 24 9q17 0 26 -11.5t6 -27.5z" />
    <glyph glyph-name="Thorn" unicode="&#xde;" horiz-adv-x="735" 
d="M729 405q0 -86 -82 -156.5t-186 -70.5h-153l-16 -66q-15 -50 -15 -62q0 -14 57 -14q11 0 15.5 -0.5t9 -4t4.5 -10.5q0 -24 -21 -20l-117 3l-116 -3q-5 -1 -10 2.5t-5 11.5q0 10 4.5 15t9.5 5.5t16 0.5q49 0 61 7t19 36l133 530q3 25 0.5 29.5t-18.5 6.5l-34 2
q-29 0 -29 14q0 13 6 17.5t14 3.5l118 -3l116 3q7 1 11 -3.5t4 -9.5q0 -10 -4.5 -15.5t-9 -6t-14.5 -0.5q-29 0 -45.5 -2.5t-20.5 -5t-8 -8.5q-6 -10 -21 -76h142q96 0 140.5 -45.5t44.5 -104.5zM636 406q0 46 -26.5 79.5t-92.5 33.5h-124l-76 -305h118q81 0 141 59.5
t60 132.5z" />
    <glyph glyph-name="germandbls" unicode="&#xdf;" horiz-adv-x="633" 
d="M603 163q0 -61 -59 -117t-138 -56q-50 0 -84 20t-34 56q0 23 12 36t29 13q14 0 21.5 -8t7.5 -19q0 -25 -24 -36q16 -34 72 -34q34 0 61.5 30.5t38.5 61.5t11 47q0 29 -36 67q-35 35 -35 89q0 34 12 56t55 59q22 19 38 59.5t21 68t5 36.5q0 37 -23.5 60.5t-67.5 23.5
q-76 0 -106 -32t-45 -110l-85 -461q-18 -97 -42 -156q-22 -56 -61.5 -88.5t-78.5 -32.5q-34 0 -56.5 18.5t-22.5 47.5q0 25 15 40.5t36 15.5q35 0 35 -34q0 -24 -22 -41l-13 -8q11 -11 28 -11q38 0 61 57.5t44 172.5l63 341h-72q-16 0 -22 2t-6 12t4.5 15t9.5 6t16 1h76
l19 100q9 47 28.5 81t41 51.5t52 27t51 11.5t49.5 2q86 0 126.5 -34.5t40.5 -80.5q0 -31 -23.5 -83.5t-78.5 -104.5q-44 -44 -44 -65q0 -23 43 -66q56 -56 56 -107z" />
    <glyph glyph-name="agrave" unicode="&#xe0;" 
d="M611 143q0 -3 -4 -18.5t-13.5 -41t-20.5 -42.5q-31 -51 -79 -51q-31 0 -59 17.5t-37 50.5q-65 -68 -137 -68q-59 0 -100.5 43.5t-41.5 120.5q0 109 78.5 198t170.5 89q64 0 98 -56q12 37 44 37q31 0 31 -30q0 -6 -4 -21l-66 -264q-6 -23 -6 -42q0 -47 32 -47q13 0 24 9
t19 28t13 34t12 40q5 19 8.5 23t16.5 4q21 0 21 -13zM446 302q3 10 3 14q0 11 -5 30.5t-25.5 43t-50.5 23.5q-31 0 -63.5 -25.5t-56.5 -68.5q-20 -39 -36.5 -105.5t-16.5 -100.5q0 -41 18 -68t51 -27q40 0 87 41q44 42 53 77zM500 524q-3 -6 -14 -15t-19 -9q-6 0 -12 7
l-116 119q-17 17 -7 37q7 15 21.5 24t26.5 9q16 0 23 -13l93 -143q7 -10 4 -16z" />
    <glyph glyph-name="aacute" unicode="&#xe1;" 
d="M611 143q0 -3 -4 -18.5t-13.5 -41t-20.5 -42.5q-31 -51 -79 -51q-31 0 -59 17.5t-37 50.5q-65 -68 -137 -68q-59 0 -100.5 43.5t-41.5 120.5q0 109 78.5 198t170.5 89q64 0 98 -56q12 37 44 37q31 0 31 -30q0 -6 -4 -21l-66 -264q-6 -23 -6 -42q0 -47 32 -47q13 0 24 9
t19 28t13 34t12 40q5 19 8.5 23t16.5 4q21 0 21 -13zM446 302q3 10 3 14q0 11 -5 30.5t-25.5 43t-50.5 23.5q-31 0 -63.5 -25.5t-56.5 -68.5q-20 -39 -36.5 -105.5t-16.5 -100.5q0 -41 18 -68t51 -27q40 0 87 41q44 42 53 77zM603 663q0 -20 -26 -37l-175 -119
q-10 -7 -16 -7q-8 0 -14.5 9t-6.5 15q0 5 12 16l165 143q13 13 29 13q12 0 22 -9t10 -24z" />
    <glyph glyph-name="acircumflex" unicode="&#xe2;" 
d="M611 143q0 -3 -4 -18.5t-13.5 -41t-20.5 -42.5q-31 -51 -79 -51q-31 0 -59 17.5t-37 50.5q-65 -68 -137 -68q-59 0 -100.5 43.5t-41.5 120.5q0 109 78.5 198t170.5 89q64 0 98 -56q12 37 44 37q31 0 31 -30q0 -6 -4 -21l-66 -264q-6 -23 -6 -42q0 -47 32 -47q13 0 24 9
t19 28t13 34t12 40q5 19 8.5 23t16.5 4q21 0 21 -13zM446 302q3 10 3 14q0 11 -5 30.5t-25.5 43t-50.5 23.5q-31 0 -63.5 -25.5t-56.5 -68.5q-20 -39 -36.5 -105.5t-16.5 -100.5q0 -41 18 -68t51 -27q40 0 87 41q44 42 53 77zM572 534q6 -7 -3 -14.5t-15 -1.5l-97 99
l-149 -99q-9 -6 -14 1t3 15l166 144q9 8 15 0z" />
    <glyph glyph-name="atilde" unicode="&#xe3;" 
d="M611 143q0 -3 -4 -18.5t-13.5 -41t-20.5 -42.5q-31 -51 -79 -51q-31 0 -59 17.5t-37 50.5q-65 -68 -137 -68q-59 0 -100.5 43.5t-41.5 120.5q0 109 78.5 198t170.5 89q64 0 98 -56q12 37 44 37q31 0 31 -30q0 -6 -4 -21l-66 -264q-6 -23 -6 -42q0 -47 32 -47q13 0 24 9
t19 28t13 34t12 40q5 19 8.5 23t16.5 4q21 0 21 -13zM446 302q3 10 3 14q0 11 -5 30.5t-25.5 43t-50.5 23.5q-31 0 -63.5 -25.5t-56.5 -68.5q-20 -39 -36.5 -105.5t-16.5 -100.5q0 -41 18 -68t51 -27q40 0 87 41q44 42 53 77zM636 639q0 -10 -59 -57q-56 -38 -85 -38
q-33 0 -57 36q-22 31 -39 31q-32 0 -103 -59q-8 -8 -13 -8q-14 0 -14 14q0 5 3.5 9t21.5 19q78 67 120 67q31 0 58 -37q9 -12 12.5 -16.5t10.5 -9t15 -4.5q31 0 94 53q15 14 22 14q13 0 13 -14z" />
    <glyph glyph-name="adieresis" unicode="&#xe4;" 
d="M611 143q0 -3 -4 -18.5t-13.5 -41t-20.5 -42.5q-31 -51 -79 -51q-31 0 -59 17.5t-37 50.5q-65 -68 -137 -68q-59 0 -100.5 43.5t-41.5 120.5q0 109 78.5 198t170.5 89q64 0 98 -56q12 37 44 37q31 0 31 -30q0 -6 -4 -21l-66 -264q-6 -23 -6 -42q0 -47 32 -47q13 0 24 9
t19 28t13 34t12 40q5 19 8.5 23t16.5 4q21 0 21 -13zM446 302q3 10 3 14q0 11 -5 30.5t-25.5 43t-50.5 23.5q-31 0 -63.5 -25.5t-56.5 -68.5q-20 -39 -36.5 -105.5t-16.5 -100.5q0 -41 18 -68t51 -27q40 0 87 41q44 42 53 77zM409 608q0 -24 -19.5 -43t-43.5 -19
q-20 0 -32 12.5t-11 30.5q-1 22 18 41.5t44 19.5q19 0 31.5 -11.5t12.5 -30.5zM600 608q0 -24 -19.5 -43t-43.5 -19q-20 0 -32 12.5t-11 30.5q-1 22 18 41.5t44 19.5q19 0 31.5 -11.5t12.5 -30.5z" />
    <glyph glyph-name="aring" unicode="&#xe5;" 
d="M611 143q0 -3 -4 -18.5t-13.5 -41t-20.5 -42.5q-31 -51 -79 -51q-31 0 -59 17.5t-37 50.5q-65 -68 -137 -68q-59 0 -100.5 43.5t-41.5 120.5q0 109 78.5 198t170.5 89q64 0 98 -56q12 37 44 37q31 0 31 -30q0 -6 -4 -21l-66 -264q-6 -23 -6 -42q0 -47 32 -47q13 0 24 9
t19 28t13 34t12 40q5 19 8.5 23t16.5 4q21 0 21 -13zM446 302q3 10 3 14q0 11 -5 30.5t-25.5 43t-50.5 23.5q-31 0 -63.5 -25.5t-56.5 -68.5q-20 -39 -36.5 -105.5t-16.5 -100.5q0 -41 18 -68t51 -27q40 0 87 41q44 42 53 77zM518 634q0 33 -50 33q-40 0 -56 -19
q-20 -21 -20 -55q0 -32 49 -32q40 0 57 18q20 24 20 55zM566 631q0 -40 -40.5 -72.5t-92.5 -32.5q-40 0 -64.5 19.5t-24.5 51.5q0 40 40.5 72.5t91.5 32.5q41 0 65.5 -20.5t24.5 -50.5z" />
    <glyph glyph-name="ae" unicode="&#xe6;" horiz-adv-x="838" 
d="M806 97q0 -10 -24 -34t-75.5 -48.5t-109.5 -24.5q-85 0 -130 70q-11 -43 -19 -56.5t-29 -13.5q-12 0 -20 7.5t-8 19.5t6 33v1q-66 -61 -128 -61q-64 0 -110.5 31.5t-46.5 83.5q0 35 28 87.5t89 98.5q87 66 248 118q11 4 12 7q15 25 36 25q14 0 21.5 -8.5t7.5 -18.5
q0 -8 -5 -25q70 52 152 52q51 0 85.5 -23.5t34.5 -64.5q0 -30 -14.5 -52.5t-40.5 -35.5t-51 -21.5t-58 -11.5t-48.5 -3.5t-35.5 -0.5h-65q-10 -40 -10 -82q0 -63 28.5 -95.5t70.5 -32.5q37 0 84 20.5t89 71.5q8 11 13 11q7 0 15 -9t8 -15zM773 354q0 26 -20.5 42.5
t-53.5 16.5q-52 0 -106 -40t-77 -117h50q207 0 207 98zM425 156l55 224q-141 -51 -214 -137t-73 -160q0 -26 16.5 -42t32 -19.5t30.5 -3.5q52 0 98.5 52.5t54.5 85.5z" />
    <glyph glyph-name="ccedilla" unicode="&#xe7;" horiz-adv-x="544" 
d="M541 97q0 -5 -8.5 -16t-28 -27t-46 -30t-66.5 -24t-85 -10q-6 -26 -9 -35q72 -10 72 -58q0 -29 -19.5 -47.5t-56.5 -26.5t-69 -10.5t-77 -2.5h-30q-14 2 -14 14q0 7 4 10t9 3.5t15 0.5h16q149 0 149 58q0 30 -56 35q-19 0 -19 14q0 11 14 56q-50 18 -78 61.5t-28 99.5
q0 106 86 192.5t191 86.5q49 0 87 -21.5t38 -65.5q0 -32 -16 -45.5t-34 -13.5t-27 10t-9 23q0 38 39 49q-20 36 -77 36q-73 0 -131 -74q-31 -40 -49.5 -104.5t-18.5 -106.5q0 -57 27 -83.5t69 -26.5q47 0 102 21.5t96 70.5q10 11 15 11q7 0 15 -9t8 -15z" />
    <glyph glyph-name="egrave" unicode="&#xe8;" horiz-adv-x="544" 
d="M541 97q0 -5 -9 -16.5t-28.5 -27t-46 -29.5t-67 -24t-85.5 -10q-79 0 -124.5 52t-45.5 133q0 83 45.5 146t105.5 91.5t120 28.5q53 0 87 -24t34 -64q0 -30 -14 -52.5t-39.5 -35.5t-49.5 -21.5t-56.5 -11.5t-47 -3.5t-33.5 -0.5h-62q-13 -56 -13 -92q0 -51 23.5 -84.5
t69.5 -33.5q47 0 102 21.5t96 70.5q10 11 15 11q7 0 15 -9t8 -15zM479 354q0 27 -20.5 43t-52.5 16q-8 0 -18.5 -1t-34 -10t-44 -23.5t-42 -46.5t-34.5 -76h47q199 0 199 98zM471 524q-3 -6 -14 -15t-19 -9q-6 0 -12 7l-116 119q-17 17 -7 37q7 15 21.5 24t26.5 9
q17 0 23 -13l93 -143q7 -10 4 -16z" />
    <glyph glyph-name="eacute" unicode="&#xe9;" horiz-adv-x="544" 
d="M541 97q0 -5 -9 -16.5t-28.5 -27t-46 -29.5t-67 -24t-85.5 -10q-79 0 -124.5 52t-45.5 133q0 83 45.5 146t105.5 91.5t120 28.5q53 0 87 -24t34 -64q0 -30 -14 -52.5t-39.5 -35.5t-49.5 -21.5t-56.5 -11.5t-47 -3.5t-33.5 -0.5h-62q-13 -56 -13 -92q0 -51 23.5 -84.5
t69.5 -33.5q47 0 102 21.5t96 70.5q10 11 15 11q7 0 15 -9t8 -15zM479 354q0 27 -20.5 43t-52.5 16q-8 0 -18.5 -1t-34 -10t-44 -23.5t-42 -46.5t-34.5 -76h47q199 0 199 98zM574 663q0 -20 -26 -37l-175 -119q-10 -7 -16 -7q-8 0 -14.5 9t-6.5 15q0 5 12 16l165 143
q13 13 29 13q12 0 22 -9t10 -24z" />
    <glyph glyph-name="ecircumflex" unicode="&#xea;" horiz-adv-x="544" 
d="M541 97q0 -5 -9 -16.5t-28.5 -27t-46 -29.5t-67 -24t-85.5 -10q-79 0 -124.5 52t-45.5 133q0 83 45.5 146t105.5 91.5t120 28.5q53 0 87 -24t34 -64q0 -30 -14 -52.5t-39.5 -35.5t-49.5 -21.5t-56.5 -11.5t-47 -3.5t-33.5 -0.5h-62q-13 -56 -13 -92q0 -51 23.5 -84.5
t69.5 -33.5q47 0 102 21.5t96 70.5q10 11 15 11q7 0 15 -9t8 -15zM479 354q0 27 -20.5 43t-52.5 16q-8 0 -18.5 -1t-34 -10t-44 -23.5t-42 -46.5t-34.5 -76h47q199 0 199 98zM543 534q6 -7 -3 -14.5t-15 -1.5l-97 99l-149 -99q-9 -6 -14 1t3 15l166 144q9 8 15 0z" />
    <glyph glyph-name="edieresis" unicode="&#xeb;" horiz-adv-x="544" 
d="M541 97q0 -5 -9 -16.5t-28.5 -27t-46 -29.5t-67 -24t-85.5 -10q-79 0 -124.5 52t-45.5 133q0 83 45.5 146t105.5 91.5t120 28.5q53 0 87 -24t34 -64q0 -30 -14 -52.5t-39.5 -35.5t-49.5 -21.5t-56.5 -11.5t-47 -3.5t-33.5 -0.5h-62q-13 -56 -13 -92q0 -51 23.5 -84.5
t69.5 -33.5q47 0 102 21.5t96 70.5q10 11 15 11q7 0 15 -9t8 -15zM479 354q0 27 -20.5 43t-52.5 16q-8 0 -18.5 -1t-34 -10t-44 -23.5t-42 -46.5t-34.5 -76h47q199 0 199 98zM380 608q0 -24 -19.5 -43t-43.5 -19q-20 0 -32 12.5t-11 30.5q-1 22 18 41.5t44 19.5
q19 0 31.5 -11.5t12.5 -30.5zM571 608q0 -24 -19.5 -43t-43.5 -19q-20 0 -32 12.5t-11 30.5q-1 22 18 41.5t44 19.5q19 0 31.5 -11.5t12.5 -30.5z" />
    <glyph glyph-name="igrave" unicode="&#xec;" horiz-adv-x="368" 
d="M386 143q0 -8 -9 -31t-25.5 -51t-46 -49.5t-64.5 -21.5q-39 0 -64 24.5t-25 59.5q0 18 24 80l35 93l27 69q16 42 16 63q0 34 -25 34q-63 0 -99 -125q-2 -9 -6 -11t-15 -2q-21 0 -21 13q0 14 14.5 48t50 69.5t79.5 35.5q40 0 65 -24.5t25 -59.5q0 -16 -6 -33l-66 -173
q-30 -74 -30 -99q0 -34 24 -34q34 0 59.5 36t37.5 81q4 14 7.5 17.5t16.5 3.5q21 0 21 -13zM383 524q-3 -6 -14 -15t-19 -9q-6 0 -12 7l-116 119q-17 17 -7 37q7 15 21.5 24t26.5 9q17 0 23 -13l93 -143q7 -10 4 -16z" />
    <glyph glyph-name="iacute" unicode="&#xed;" horiz-adv-x="368" 
d="M386 143q0 -8 -9 -31t-25.5 -51t-46 -49.5t-64.5 -21.5q-39 0 -64 24.5t-25 59.5q0 18 24 80l35 93l27 69q16 42 16 63q0 34 -25 34q-63 0 -99 -125q-2 -9 -6 -11t-15 -2q-21 0 -21 13q0 14 14.5 48t50 69.5t79.5 35.5q40 0 65 -24.5t25 -59.5q0 -16 -6 -33l-66 -173
q-30 -74 -30 -99q0 -34 24 -34q34 0 59.5 36t37.5 81q4 14 7.5 17.5t16.5 3.5q21 0 21 -13zM486 663q0 -20 -26 -37l-175 -119q-10 -7 -16 -7q-8 0 -14.5 9t-6.5 15q0 5 12 16l165 143q13 13 29 13q12 0 22 -9t10 -24z" />
    <glyph glyph-name="icircumflex" unicode="&#xee;" horiz-adv-x="368" 
d="M386 143q0 -8 -9 -31t-25.5 -51t-46 -49.5t-64.5 -21.5q-39 0 -64 24.5t-25 59.5q0 18 24 80l35 93l27 69q16 42 16 63q0 34 -25 34q-63 0 -99 -125q-2 -9 -6 -11t-15 -2q-21 0 -21 13q0 14 14.5 48t50 69.5t79.5 35.5q40 0 65 -24.5t25 -59.5q0 -16 -6 -33l-66 -173
q-30 -74 -30 -99q0 -34 24 -34q34 0 59.5 36t37.5 81q4 14 7.5 17.5t16.5 3.5q21 0 21 -13zM455 534q6 -7 -3 -14.5t-15 -1.5l-97 99l-149 -99q-9 -6 -14 1t3 15l166 144q9 8 15 0z" />
    <glyph glyph-name="idieresis" unicode="&#xef;" horiz-adv-x="368" 
d="M386 143q0 -8 -9 -31t-25.5 -51t-46 -49.5t-64.5 -21.5q-39 0 -64 24.5t-25 59.5q0 18 24 80l35 93l27 69q16 42 16 63q0 34 -25 34q-63 0 -99 -125q-2 -9 -6 -11t-15 -2q-21 0 -21 13q0 14 14.5 48t50 69.5t79.5 35.5q40 0 65 -24.5t25 -59.5q0 -16 -6 -33l-66 -173
q-30 -74 -30 -99q0 -34 24 -34q34 0 59.5 36t37.5 81q4 14 7.5 17.5t16.5 3.5q21 0 21 -13zM292 608q0 -24 -19.5 -43t-43.5 -19q-20 0 -32 12.5t-11 30.5q-1 22 18 41.5t44 19.5q19 0 31.5 -11.5t12.5 -30.5zM483 608q0 -24 -19.5 -43t-43.5 -19q-20 0 -32 12.5t-11 30.5
q-1 22 18 41.5t44 19.5q19 0 31.5 -11.5t12.5 -30.5z" />
    <glyph glyph-name="eth" unicode="&#xf0;" 
d="M555 139q-44 -70 -114.5 -109.5t-142.5 -39.5q-82 0 -133 48.5t-51 122.5q0 103 91.5 193.5t204.5 90.5q78 0 119 -68q0 125 -75 208l-105 -53q-6 -3 -11 -3q-14 0 -14 16q0 13 14 20l89 45q-43 38 -110 55q-12 3 -12 12q0 7 4.5 12t10.5 5q95 -6 166 -54l101 51
q6 3 11 3q14 0 14 -16q0 -13 -14 -20l-82 -42q99 -88 99 -236q0 -52 -18 -127t-42 -114zM513 294q0 60 -30.5 91.5t-78.5 31.5q-84 0 -142 -70q-31 -39 -49.5 -109.5t-18.5 -105.5q0 -58 33.5 -84t78.5 -26q40 0 79.5 19.5t66.5 56.5q29 40 45 99.5t16 96.5z" />
    <glyph glyph-name="ntilde" unicode="&#xf1;" horiz-adv-x="662" 
d="M680 143q0 -8 -9 -31t-25.5 -51t-46 -49.5t-64.5 -21.5q-37 0 -63 22.5t-26 61.5q0 20 10 45q64 173 64 226q0 68 -57 68q-56 0 -105 -44q-18 -17 -36 -44t-26.5 -43.5t-10.5 -22.5q-3 -20 -17 -67q-2 -8 -8 -34t-8 -34l-23 -89q-12 -45 -45 -45q-31 0 -31 30q0 2 14 64
q14 51 17 68l28 108q21 92 21 105q0 48 -31 48q-40 0 -67 -109q-5 -21 -8.5 -25t-17.5 -4q-21 0 -21 13q0 8 11.5 43.5t25.5 56.5q32 53 80 53q35 0 64.5 -21.5t34.5 -63.5q67 85 163 85q55 0 89 -27.5t34 -83.5q0 -54 -60 -211q-17 -49 -17 -67q0 -34 25 -34q31 0 57 33.5
t40 83.5q4 14 7.5 17.5t16.5 3.5q21 0 21 -13zM665 639q0 -10 -59 -57q-56 -38 -85 -38q-33 0 -57 36q-22 31 -39 31q-32 0 -103 -59q-8 -8 -13 -8q-14 0 -14 14q0 5 3.5 9t21.5 19q78 67 120 67q31 0 58 -37q9 -12 12.5 -16.5t10.5 -9t15 -4.5q31 0 94 53q15 14 22 14
q13 0 13 -14z" />
    <glyph glyph-name="ograve" unicode="&#xf2;" 
d="M579 269q0 -105 -85.5 -192t-192.5 -87q-75 0 -123 48t-48 124q0 106 85.5 192.5t192.5 86.5q76 0 123.5 -49t47.5 -123zM500 303q0 59 -29 84.5t-64 25.5q-34 0 -69 -19.5t-61 -54.5q-32 -42 -50 -106t-18 -105q0 -34 10 -57.5t26.5 -34t30 -14.5t26.5 -4q39 0 77.5 25
t62.5 62q29 45 43.5 104.5t14.5 93.5zM500 524q-3 -6 -14 -15t-19 -9q-6 0 -12 7l-116 119q-17 17 -7 37q7 15 21.5 24t26.5 9q16 0 23 -13l93 -143q7 -10 4 -16z" />
    <glyph glyph-name="oacute" unicode="&#xf3;" 
d="M579 269q0 -105 -85.5 -192t-192.5 -87q-75 0 -123 48t-48 124q0 106 85.5 192.5t192.5 86.5q76 0 123.5 -49t47.5 -123zM500 303q0 59 -29 84.5t-64 25.5q-34 0 -69 -19.5t-61 -54.5q-32 -42 -50 -106t-18 -105q0 -34 10 -57.5t26.5 -34t30 -14.5t26.5 -4q39 0 77.5 25
t62.5 62q29 45 43.5 104.5t14.5 93.5zM603 663q0 -20 -26 -37l-175 -119q-10 -7 -16 -7q-8 0 -14.5 9t-6.5 15q0 5 12 16l165 143q13 13 29 13q12 0 22 -9t10 -24z" />
    <glyph glyph-name="ocircumflex" unicode="&#xf4;" 
d="M579 269q0 -105 -85.5 -192t-192.5 -87q-75 0 -123 48t-48 124q0 106 85.5 192.5t192.5 86.5q76 0 123.5 -49t47.5 -123zM500 303q0 59 -29 84.5t-64 25.5q-34 0 -69 -19.5t-61 -54.5q-32 -42 -50 -106t-18 -105q0 -34 10 -57.5t26.5 -34t30 -14.5t26.5 -4q39 0 77.5 25
t62.5 62q29 45 43.5 104.5t14.5 93.5zM572 534q6 -7 -3 -14.5t-15 -1.5l-97 99l-149 -99q-9 -6 -14 1t3 15l166 144q9 8 15 0z" />
    <glyph glyph-name="otilde" unicode="&#xf5;" 
d="M579 269q0 -105 -85.5 -192t-192.5 -87q-75 0 -123 48t-48 124q0 106 85.5 192.5t192.5 86.5q76 0 123.5 -49t47.5 -123zM500 303q0 59 -29 84.5t-64 25.5q-34 0 -69 -19.5t-61 -54.5q-32 -42 -50 -106t-18 -105q0 -34 10 -57.5t26.5 -34t30 -14.5t26.5 -4q39 0 77.5 25
t62.5 62q29 45 43.5 104.5t14.5 93.5zM636 639q0 -10 -59 -57q-56 -38 -85 -38q-33 0 -57 36q-22 31 -39 31q-32 0 -103 -59q-8 -8 -13 -8q-14 0 -14 14q0 5 3.5 9t21.5 19q78 67 120 67q31 0 58 -37q9 -12 12.5 -16.5t10.5 -9t15 -4.5q31 0 94 53q15 14 22 14q13 0 13 -14z
" />
    <glyph glyph-name="odieresis" unicode="&#xf6;" 
d="M579 269q0 -105 -85.5 -192t-192.5 -87q-75 0 -123 48t-48 124q0 106 85.5 192.5t192.5 86.5q76 0 123.5 -49t47.5 -123zM500 303q0 59 -29 84.5t-64 25.5q-34 0 -69 -19.5t-61 -54.5q-32 -42 -50 -106t-18 -105q0 -34 10 -57.5t26.5 -34t30 -14.5t26.5 -4q39 0 77.5 25
t62.5 62q29 45 43.5 104.5t14.5 93.5zM409 608q0 -24 -19.5 -43t-43.5 -19q-20 0 -32 12.5t-11 30.5q-1 22 18 41.5t44 19.5q19 0 31.5 -11.5t12.5 -30.5zM600 608q0 -24 -19.5 -43t-43.5 -19q-20 0 -32 12.5t-11 30.5q-1 22 18 41.5t44 19.5q19 0 31.5 -11.5t12.5 -30.5z
" />
    <glyph glyph-name="divide" unicode="&#xf7;" horiz-adv-x="897" 
d="M862 250q0 -24 -37 -24h-628q-38 0 -38 25q0 24 38 24h628q37 0 37 -25zM613 438q0 -25 -21.5 -46.5t-48.5 -21.5q-22 0 -35 13.5t-13 33.5q0 26 21.5 47t48.5 21q22 0 35 -13.5t13 -33.5zM524 84q0 -25 -21.5 -46.5t-48.5 -21.5q-22 0 -35 13.5t-13 33.5q0 26 21.5 47
t48.5 21q22 0 35 -13.5t13 -33.5z" />
    <glyph glyph-name="oslash" unicode="&#xf8;" 
d="M573 271q0 -108 -85 -195.5t-187 -87.5q-53 0 -92 25q-14 -17 -45 -55.5t-38 -46.5q-19 -22 -25 -22q-5 0 -9 4t-4 10t20 31l78 97q-50 50 -50 129q0 108 84.5 195.5t187.5 87.5q52 0 93 -25l90 111q11 13 16 13q14 0 14 -14q0 -6 -10 -18l-89 -110q51 -55 51 -129z
M475 387q-27 28 -68 28q-38 0 -77 -24t-66 -64q-28 -41 -44 -98t-16 -97q0 -37 13 -63zM505 299q0 37 -13 63l-258 -319q27 -27 68 -27q37 0 76 23.5t68 65.5t44 99t15 95z" />
    <glyph glyph-name="ugrave" unicode="&#xf9;" horiz-adv-x="633" 
d="M651 143q0 -3 -4 -18.5t-13.5 -41t-20.5 -42.5q-31 -51 -79 -51q-28 0 -55.5 15t-38.5 48q-19 -19 -32.5 -30t-39 -22t-54.5 -11q-53 0 -92.5 28.5t-39.5 95.5q0 54 48 179q25 67 25 87q0 33 -25 33q-64 0 -100 -125q-2 -9 -6 -11t-15 -2q-21 0 -21 13q0 9 9 31.5
t25.5 51t46.5 49.5t64 21q37 0 63 -23.5t26 -60.5q0 -19 -11 -49q-59 -151 -59 -209q0 -81 66 -81q46 0 81 38.5t43 69.5l65 262q9 43 45 43q15 0 23.5 -9t8.5 -21q-1 -3 -3 -12l-70 -282q-6 -23 -6 -42q0 -47 32 -47q13 0 24 9t19 28t13 34t12 40q5 19 8.5 23t16.5 4
q21 0 21 -13zM515 524q-3 -6 -14 -15t-19 -9q-6 0 -12 7l-116 119q-17 17 -7 37q7 15 21.5 24t26.5 9q17 0 23 -13l93 -143q7 -10 4 -16z" />
    <glyph glyph-name="uacute" unicode="&#xfa;" horiz-adv-x="633" 
d="M651 143q0 -3 -4 -18.5t-13.5 -41t-20.5 -42.5q-31 -51 -79 -51q-28 0 -55.5 15t-38.5 48q-19 -19 -32.5 -30t-39 -22t-54.5 -11q-53 0 -92.5 28.5t-39.5 95.5q0 54 48 179q25 67 25 87q0 33 -25 33q-64 0 -100 -125q-2 -9 -6 -11t-15 -2q-21 0 -21 13q0 9 9 31.5
t25.5 51t46.5 49.5t64 21q37 0 63 -23.5t26 -60.5q0 -19 -11 -49q-59 -151 -59 -209q0 -81 66 -81q46 0 81 38.5t43 69.5l65 262q9 43 45 43q15 0 23.5 -9t8.5 -21q-1 -3 -3 -12l-70 -282q-6 -23 -6 -42q0 -47 32 -47q13 0 24 9t19 28t13 34t12 40q5 19 8.5 23t16.5 4
q21 0 21 -13zM618 663q0 -20 -26 -37l-175 -119q-10 -7 -16 -7q-8 0 -14.5 9t-6.5 15q0 5 12 16l165 143q13 13 29 13q12 0 22 -9t10 -24z" />
    <glyph glyph-name="ucircumflex" unicode="&#xfb;" horiz-adv-x="633" 
d="M651 143q0 -3 -4 -18.5t-13.5 -41t-20.5 -42.5q-31 -51 -79 -51q-28 0 -55.5 15t-38.5 48q-19 -19 -32.5 -30t-39 -22t-54.5 -11q-53 0 -92.5 28.5t-39.5 95.5q0 54 48 179q25 67 25 87q0 33 -25 33q-64 0 -100 -125q-2 -9 -6 -11t-15 -2q-21 0 -21 13q0 9 9 31.5
t25.5 51t46.5 49.5t64 21q37 0 63 -23.5t26 -60.5q0 -19 -11 -49q-59 -151 -59 -209q0 -81 66 -81q46 0 81 38.5t43 69.5l65 262q9 43 45 43q15 0 23.5 -9t8.5 -21q-1 -3 -3 -12l-70 -282q-6 -23 -6 -42q0 -47 32 -47q13 0 24 9t19 28t13 34t12 40q5 19 8.5 23t16.5 4
q21 0 21 -13zM587 534q6 -7 -3 -14.5t-15 -1.5l-97 99l-149 -99q-9 -6 -14 1t3 15l166 144q9 8 15 0z" />
    <glyph glyph-name="udieresis" unicode="&#xfc;" horiz-adv-x="633" 
d="M651 143q0 -3 -4 -18.5t-13.5 -41t-20.5 -42.5q-31 -51 -79 -51q-28 0 -55.5 15t-38.5 48q-19 -19 -32.5 -30t-39 -22t-54.5 -11q-53 0 -92.5 28.5t-39.5 95.5q0 54 48 179q25 67 25 87q0 33 -25 33q-64 0 -100 -125q-2 -9 -6 -11t-15 -2q-21 0 -21 13q0 9 9 31.5
t25.5 51t46.5 49.5t64 21q37 0 63 -23.5t26 -60.5q0 -19 -11 -49q-59 -151 -59 -209q0 -81 66 -81q46 0 81 38.5t43 69.5l65 262q9 43 45 43q15 0 23.5 -9t8.5 -21q-1 -3 -3 -12l-70 -282q-6 -23 -6 -42q0 -47 32 -47q13 0 24 9t19 28t13 34t12 40q5 19 8.5 23t16.5 4
q21 0 21 -13zM424 608q0 -24 -19.5 -43t-43.5 -19q-20 0 -32 12.5t-11 30.5q-1 22 18 41.5t44 19.5q19 0 31.5 -11.5t12.5 -30.5zM615 608q0 -24 -19.5 -43t-43.5 -19q-20 0 -32 12.5t-11 30.5q-1 22 18 41.5t44 19.5q19 0 31.5 -11.5t12.5 -30.5z" />
    <glyph glyph-name="yacute" unicode="&#xfd;" horiz-adv-x="574" 
d="M482 -7q-19 -74 -89 -135.5t-154 -61.5q-48 0 -78.5 24.5t-30.5 62.5q0 33 17 47t34 14t26.5 -9.5t9.5 -23.5q0 -15 -10.5 -29.5t-30.5 -19.5q14 -38 64 -38q59 0 109 58q20 24 34.5 52.5t20 46t13.5 50.5q-48 -41 -103 -41q-54 0 -93 28.5t-39 95.5q0 56 48 179
q25 67 25 87q0 33 -25 33q-64 0 -100 -125q-2 -9 -6 -11t-15 -2q-21 0 -21 13q0 9 9 31.5t25.5 51t46.5 49.5t64 21q37 0 63 -23.5t26 -60.5q0 -17 -11 -48q-59 -149 -59 -210q0 -81 65 -81q48 0 83 40t41 66l65 264q11 43 45 43q15 0 23.5 -9t8.5 -21q-1 -3 -3 -12z
M588 663q0 -20 -26 -37l-175 -119q-10 -7 -16 -7q-8 0 -14.5 9t-6.5 15q0 5 12 16l165 143q13 13 29 13q12 0 22 -9t10 -24z" />
    <glyph glyph-name="thorn" unicode="&#xfe;" 
d="M580 277q0 -108 -78 -197.5t-171 -89.5q-63 0 -99 56l-37 -148q-9 -34 -9 -44q0 -12 45 -12q12 0 16.5 -0.5t8.5 -4t4 -10.5q0 -21 -20 -21q-16 0 -50.5 2t-51.5 2q-14 0 -42.5 -2t-41.5 -2q-14 0 -14 14q0 10 4 15.5t8.5 6t13.5 0.5q27 0 36 6.5t14 28.5l86 346l97 386
q4 14 4 22q0 6 -1.5 8.5t-12.5 5t-34 2.5q-26 0 -26 14t6.5 18t19.5 5l108 9q27 2 27 -13q0 -3 -3 -15l-69 -275q65 51 119 51q61 0 102 -45t41 -119zM504 319q0 41 -18 67.5t-51 26.5q-43 0 -88 -42.5t-53 -75.5l-41 -165q-3 -14 -3 -15q0 -12 5.5 -32t25.5 -42.5t50 -22.5
q26 0 59 22t62 75q18 34 35 100.5t17 103.5z" />
    <glyph glyph-name="ydieresis" unicode="&#xff;" horiz-adv-x="574" 
d="M482 -7q-19 -74 -89 -135.5t-154 -61.5q-48 0 -78.5 24.5t-30.5 62.5q0 33 17 47t34 14t26.5 -9.5t9.5 -23.5q0 -15 -10.5 -29.5t-30.5 -19.5q14 -38 64 -38q59 0 109 58q20 24 34.5 52.5t20 46t13.5 50.5q-48 -41 -103 -41q-54 0 -93 28.5t-39 95.5q0 56 48 179
q25 67 25 87q0 33 -25 33q-64 0 -100 -125q-2 -9 -6 -11t-15 -2q-21 0 -21 13q0 9 9 31.5t25.5 51t46.5 49.5t64 21q37 0 63 -23.5t26 -60.5q0 -17 -11 -48q-59 -149 -59 -210q0 -81 65 -81q48 0 83 40t41 66l65 264q11 43 45 43q15 0 23.5 -9t8.5 -21q-1 -3 -3 -12z
M394 608q0 -24 -19.5 -43t-43.5 -19q-20 0 -32 12.5t-11 30.5q-1 22 18 41.5t44 19.5q19 0 31.5 -11.5t12.5 -30.5zM585 608q0 -24 -19.5 -43t-43.5 -19q-20 0 -32 12.5t-11 30.5q-1 22 18 41.5t44 19.5q19 0 31.5 -11.5t12.5 -30.5z" />
    <glyph glyph-name="Amacron" unicode="&#x100;" horiz-adv-x="866" 
d="M797 22q0 -22 -21 -22q-16 0 -51.5 2t-52.5 2q-19 0 -59.5 -2t-58.5 -2q-6 0 -10 3.5t-4 6.5l-1 4q0 10 4 15t9 6t15 1q50 0 60 25l-21 170h-275q-36 -60 -52 -84q-42 -65 -42 -82q0 -27 39 -29q16 0 16 -14q0 -22 -20 -22q-15 0 -49 2t-50 2q-13 0 -41.5 -2t-40.5 -2
q-7 0 -11 4.5t-4 9.5q0 20 23 22q36 3 62.5 20t54.5 62l359 574q8 13 14 17t21 4q16 0 20 -4.5t6 -22.5l77 -617q2 -21 10.5 -27t44.5 -6q29 0 29 -14zM601 267l-41 330l-206 -330h247zM818 776q0 -11 -4.5 -16t-10 -6t-16.5 -1h-324q-11 0 -15.5 0.5t-8.5 4t-4 10.5
q0 10 4.5 15t9.5 6t16 1h324q29 0 29 -14z" />
    <glyph glyph-name="amacron" unicode="&#x101;" 
d="M611 143q0 -3 -4 -18.5t-13.5 -41t-20.5 -42.5q-31 -51 -79 -51q-31 0 -59 17.5t-37 50.5q-65 -68 -137 -68q-59 0 -100.5 43.5t-41.5 120.5q0 109 78.5 198t170.5 89q64 0 98 -56q12 37 44 37q31 0 31 -30q0 -6 -4 -21l-66 -264q-6 -23 -6 -42q0 -47 32 -47q13 0 24 9
t19 28t13 34t12 40q5 19 8.5 23t16.5 4q21 0 21 -13zM446 302q3 10 3 14q0 11 -5 30.5t-25.5 43t-50.5 23.5q-31 0 -63.5 -25.5t-56.5 -68.5q-20 -39 -36.5 -105.5t-16.5 -100.5q0 -41 18 -68t51 -27q40 0 87 41q44 42 53 77zM643 603q0 -11 -4.5 -16t-10 -6t-16.5 -1h-324
q-11 0 -15.5 0.5t-8.5 4t-4 10.5q0 10 4.5 15t9.5 6t16 1h324q29 0 29 -14z" />
    <glyph glyph-name="Abreve" unicode="&#x102;" horiz-adv-x="866" 
d="M797 22q0 -22 -21 -22q-16 0 -51.5 2t-52.5 2q-19 0 -59.5 -2t-58.5 -2q-6 0 -10 3.5t-4 6.5l-1 4q0 10 4 15t9 6t15 1q50 0 60 25l-21 170h-275q-36 -60 -52 -84q-42 -65 -42 -82q0 -27 39 -29q16 0 16 -14q0 -22 -20 -22q-15 0 -49 2t-50 2q-13 0 -41.5 -2t-40.5 -2
q-7 0 -11 4.5t-4 9.5q0 20 23 22q36 3 62.5 20t54.5 62l359 574q8 13 14 17t21 4q16 0 20 -4.5t6 -22.5l77 -617q2 -21 10.5 -27t44.5 -6q29 0 29 -14zM601 267l-41 330l-206 -330h247zM820 906q0 -15 -14 -41.5t-38 -54t-63 -47.5t-82 -20q-59 0 -94 37t-35 90q0 50 19 50
q14 0 14 -15l-2 -11q-2 -11 -2 -18q0 -40 29 -65t74 -25q17 0 38 5t46 17.5t47.5 38t34.5 60.5q3 13 14 13q5 0 9.5 -4t4.5 -10z" />
    <glyph glyph-name="abreve" unicode="&#x103;" 
d="M611 143q0 -3 -4 -18.5t-13.5 -41t-20.5 -42.5q-31 -51 -79 -51q-31 0 -59 17.5t-37 50.5q-65 -68 -137 -68q-59 0 -100.5 43.5t-41.5 120.5q0 109 78.5 198t170.5 89q64 0 98 -56q12 37 44 37q31 0 31 -30q0 -6 -4 -21l-66 -264q-6 -23 -6 -42q0 -47 32 -47q13 0 24 9
t19 28t13 34t12 40q5 19 8.5 23t16.5 4q21 0 21 -13zM446 302q3 10 3 14q0 11 -5 30.5t-25.5 43t-50.5 23.5q-31 0 -63.5 -25.5t-56.5 -68.5q-20 -39 -36.5 -105.5t-16.5 -100.5q0 -41 18 -68t51 -27q40 0 87 41q44 42 53 77zM630 673q0 -15 -14 -41.5t-38 -54t-63 -47.5
t-82 -20q-59 0 -94 37t-35 90q0 50 19 50q14 0 14 -15l-2 -11q-2 -11 -2 -18q0 -40 29 -65t74 -25q17 0 38 5t46 17.5t47.5 38t34.5 60.5q3 13 14 13q5 0 9.5 -4t4.5 -10z" />
    <glyph glyph-name="Aogonek" unicode="&#x104;" horiz-adv-x="866" 
d="M767 -115q-21 -42 -61 -69t-78 -27q-47 0 -73 27t-18 63q14 66 110 125q-62 -4 -93 -4q-6 0 -10 3.5t-4 6.5l-1 4q0 10 4 15t9 6t15 1q50 0 60 25l-21 170h-275q-36 -60 -52 -84q-42 -65 -42 -82q0 -27 39 -29q16 0 16 -14q0 -22 -20 -22q-15 0 -49 2t-50 2
q-13 0 -41.5 -2t-40.5 -2q-7 0 -11 4.5t-4 9.5q0 20 23 22q36 3 62.5 20t54.5 62l359 574q8 13 14 17t21 4q16 0 20 -4.5t6 -22.5l77 -617q2 -21 10.5 -27t44.5 -6q29 0 29 -14q0 -22 -21 -22q-16 0 -48 2t-42 2q-85 -51 -96 -99q-7 -32 17 -50.5t55 -18.5q52 0 89 56
q5 8 12.5 5t3.5 -12zM601 267l-41 330l-206 -330h247z" />
    <glyph glyph-name="aogonek" unicode="&#x105;" 
d="M547 -115q-21 -42 -61 -69t-78 -27q-47 0 -73 27t-18 63q14 67 117 130q-27 18 -36 49q-65 -68 -137 -68q-59 0 -100.5 43.5t-41.5 120.5q0 109 78.5 198t170.5 89q64 0 98 -56q12 37 44 37q31 0 31 -30q0 -6 -4 -21l-66 -264q-6 -23 -6 -42q0 -47 32 -47q13 0 24 9
t19 28t13 34t12 40q5 19 8.5 23t16.5 4q21 0 21 -13q0 -3 -4 -18.5t-13.5 -41t-20.5 -42.5q-31 -51 -79 -51q-19 0 -36 7q-78 -47 -88 -92q-7 -32 17 -50.5t55 -18.5q52 0 89 56q5 8 12.5 5t3.5 -12zM446 302q3 10 3 14q0 11 -5 30.5t-25.5 43t-50.5 23.5q-31 0 -63.5 -25.5
t-56.5 -68.5q-20 -39 -36.5 -105.5t-16.5 -100.5q0 -41 18 -68t51 -27q40 0 87 41q44 42 53 77z" />
    <glyph glyph-name="Cacute" unicode="&#x106;" horiz-adv-x="838" 
d="M850 437q-4 -14 -7.5 -17t-16.5 -3q-21 0 -21 13q0 6 2 22t2 23q0 79 -43 135.5t-126 56.5q-75 0 -147.5 -38t-120.5 -96q-61 -76 -85 -161t-24 -144q0 -57 19 -100t51 -66.5t67 -34.5t73 -11q85 0 169 59.5t116 165.5q3 12 21 12q21 0 21 -13q-2 -10 -7 -28t-34 -64.5
t-74 -83.5q-104 -84 -227 -84q-124 0 -205.5 76.5t-81.5 201.5q0 112 67 216t174 166.5t219 62.5q109 0 171 -77l9 -11l9 9l61 69q10 10 17 10q6 0 9.5 -3t4.5 -6v-3q0 -1 -2 -13zM834 866q-1 -9 -6.5 -15.5t-10.5 -9.5t-15 -7l-193 -87q-9 -4 -17 -4q-7 1 -12 11.5t-4 15.5
q1 6 14 14l188 112q9 9 24 9q17 0 26 -11.5t6 -27.5z" />
    <glyph glyph-name="cacute" unicode="&#x107;" horiz-adv-x="544" 
d="M541 97q0 -5 -9 -16.5t-28.5 -27t-46 -29.5t-67.5 -24t-86 -10q-81 0 -127.5 49.5t-46.5 122.5q0 106 86 192.5t191 86.5q49 0 87 -21.5t38 -65.5q0 -32 -16 -45.5t-34 -13.5t-27 10t-9 23q0 38 39 49q-20 36 -77 36q-73 0 -131 -74q-31 -40 -49.5 -104.5t-18.5 -106.5
q0 -57 27 -83.5t69 -26.5q47 0 102 21.5t96 70.5q10 11 15 11q7 0 15 -9t8 -15zM600 663q0 -20 -26 -37l-175 -119q-10 -7 -16 -7q-8 0 -14.5 9t-6.5 15q0 5 12 16l165 143q13 13 29 13q12 0 22 -9t10 -24z" />
    <glyph glyph-name="Ccircumflex" unicode="&#x108;" horiz-adv-x="838" 
d="M850 437q-4 -14 -7.5 -17t-16.5 -3q-21 0 -21 13q0 6 2 22t2 23q0 79 -43 135.5t-126 56.5q-75 0 -147.5 -38t-120.5 -96q-61 -76 -85 -161t-24 -144q0 -57 19 -100t51 -66.5t67 -34.5t73 -11q85 0 169 59.5t116 165.5q3 12 21 12q21 0 21 -13q-2 -10 -7 -28t-34 -64.5
t-74 -83.5q-104 -84 -227 -84q-124 0 -205.5 76.5t-81.5 201.5q0 112 67 216t174 166.5t219 62.5q109 0 171 -77l9 -11l9 9l61 69q10 10 17 10q6 0 9.5 -3t4.5 -6v-3q0 -1 -2 -13zM786 752q6 -5 -1 -13.5t-14 -4.5l-112 55l-140 -55q-6 -2 -10 1t-3 8.5t7 8.5l155 98
q7 3 12 0z" />
    <glyph glyph-name="ccircumflex" unicode="&#x109;" horiz-adv-x="544" 
d="M541 97q0 -5 -9 -16.5t-28.5 -27t-46 -29.5t-67.5 -24t-86 -10q-81 0 -127.5 49.5t-46.5 122.5q0 106 86 192.5t191 86.5q49 0 87 -21.5t38 -65.5q0 -32 -16 -45.5t-34 -13.5t-27 10t-9 23q0 38 39 49q-20 36 -77 36q-73 0 -131 -74q-31 -40 -49.5 -104.5t-18.5 -106.5
q0 -57 27 -83.5t69 -26.5q47 0 102 21.5t96 70.5q10 11 15 11q7 0 15 -9t8 -15zM569 534q6 -7 -3 -14.5t-15 -1.5l-97 99l-149 -99q-9 -6 -14 1t3 15l166 144q9 8 15 0z" />
    <glyph glyph-name="Cdotaccent" unicode="&#x10a;" horiz-adv-x="838" 
d="M850 437q-4 -14 -7.5 -17t-16.5 -3q-21 0 -21 13q0 6 2 22t2 23q0 79 -43 135.5t-126 56.5q-75 0 -147.5 -38t-120.5 -96q-61 -76 -85 -161t-24 -144q0 -57 19 -100t51 -66.5t67 -34.5t73 -11q85 0 169 59.5t116 165.5q3 12 21 12q21 0 21 -13q-2 -10 -7 -28t-34 -64.5
t-74 -83.5q-104 -84 -227 -84q-124 0 -205.5 76.5t-81.5 201.5q0 112 67 216t174 166.5t219 62.5q109 0 171 -77l9 -11l9 9l61 69q10 10 17 10q6 0 9.5 -3t4.5 -6v-3q0 -1 -2 -13zM722 821q0 -26 -21.5 -47t-48.5 -21q-21 0 -34.5 14t-13.5 33q0 25 21 46.5t49 21.5
q21 0 34.5 -13t13.5 -34z" />
    <glyph glyph-name="cdotaccent" unicode="&#x10b;" horiz-adv-x="544" 
d="M541 97q0 -5 -9 -16.5t-28.5 -27t-46 -29.5t-67.5 -24t-86 -10q-81 0 -127.5 49.5t-46.5 122.5q0 106 86 192.5t191 86.5q49 0 87 -21.5t38 -65.5q0 -32 -16 -45.5t-34 -13.5t-27 10t-9 23q0 38 39 49q-20 36 -77 36q-73 0 -131 -74q-31 -40 -49.5 -104.5t-18.5 -106.5
q0 -57 27 -83.5t69 -26.5q47 0 102 21.5t96 70.5q10 11 15 11q7 0 15 -9t8 -15zM507 609q0 -26 -21.5 -47t-48.5 -21q-21 0 -34.5 14t-13.5 33q0 25 21 46.5t49 21.5q21 0 34.5 -13t13.5 -34z" />
    <glyph glyph-name="Ccaron" unicode="&#x10c;" horiz-adv-x="838" 
d="M850 437q-4 -14 -7.5 -17t-16.5 -3q-21 0 -21 13q0 6 2 22t2 23q0 79 -43 135.5t-126 56.5q-75 0 -147.5 -38t-120.5 -96q-61 -76 -85 -161t-24 -144q0 -57 19 -100t51 -66.5t67 -34.5t73 -11q85 0 169 59.5t116 165.5q3 12 21 12q21 0 21 -13q-2 -10 -7 -28t-34 -64.5
t-74 -83.5q-104 -84 -227 -84q-124 0 -205.5 76.5t-81.5 201.5q0 112 67 216t174 166.5t219 62.5q109 0 171 -77l9 -11l9 9l61 69q10 10 17 10q6 0 9.5 -3t4.5 -6v-3q0 -1 -2 -13zM806 833l-155 -98q-7 -3 -12 0l-106 98q-6 5 1 13.5t14 4.5l112 -55l140 55q6 2 10 -1
t3 -8.5t-7 -8.5z" />
    <glyph glyph-name="ccaron" unicode="&#x10d;" horiz-adv-x="544" 
d="M541 97q0 -5 -9 -16.5t-28.5 -27t-46 -29.5t-67.5 -24t-86 -10q-81 0 -127.5 49.5t-46.5 122.5q0 106 86 192.5t191 86.5q49 0 87 -21.5t38 -65.5q0 -32 -16 -45.5t-34 -13.5t-27 10t-9 23q0 38 39 49q-20 36 -77 36q-73 0 -131 -74q-31 -40 -49.5 -104.5t-18.5 -106.5
q0 -57 27 -83.5t69 -26.5q47 0 102 21.5t96 70.5q10 11 15 11q7 0 15 -9t8 -15zM603 662l-166 -144q-9 -8 -15 0l-94 144q-6 7 3 14.5t15 1.5l97 -99l149 99q9 6 14 -1t-3 -15z" />
    <glyph glyph-name="Dcaron" unicode="&#x10e;" horiz-adv-x="881" 
d="M878 426q0 -110 -61.5 -209.5t-158 -158t-197.5 -58.5h-337q-10 0 -15 0.5t-9 3.5t-4 10q0 10 4.5 15t9.5 6t16 1q48 0 61 7.5t19 33.5l133 531q4 14 4 23q0 11 -12.5 13.5t-43.5 2.5q-30 0 -30 14q0 10 4.5 15t10 6t16.5 1h343q107 0 177 -70t70 -187zM791 457
q0 54 -18 93t-48.5 59t-62 29t-65.5 9h-128q-26 0 -34 -5t-14 -30l-136 -547q-4 -15 -4 -27q9 -2 28 -2h136q150 0 248 121q46 57 72 146.5t26 153.5zM716 833l-155 -98q-7 -3 -12 0l-106 98q-6 5 1 13.5t14 4.5l112 -55l140 55q6 2 10 -1t3 -8.5t-7 -8.5z" />
    <glyph glyph-name="dcaron" unicode="&#x10f;" 
d="M621 143q0 -3 -4 -18.5t-13.5 -41t-20.5 -42.5q-31 -51 -79 -51q-31 0 -59 17.5t-37 50.5q-65 -68 -137 -68q-59 0 -100.5 43.5t-41.5 120.5q0 109 78.5 198t170.5 89q62 0 99 -56l56 227q4 14 4 19q0 6 -1.5 8.5t-12.5 5t-34 2.5q-26 0 -26 14t6.5 18t19.5 5l108 9
q27 2 27 -13q0 -3 -3 -15l-140 -559q-6 -18 -6 -41q0 -47 32 -47q13 0 24 9t19 28t13 34t12 40q5 19 8.5 23t16.5 4q21 0 21 -13zM456 302q3 10 3 14q0 11 -5 30.5t-25.5 43t-50.5 23.5q-31 0 -63.5 -25.5t-56.5 -68.5q-20 -39 -36.5 -105.5t-16.5 -100.5q0 -41 18 -68
t51 -27q40 0 87 41q44 42 53 77zM747 645q0 -42 -25.5 -87t-52 -70.5t-35.5 -25.5q-4 0 -7.5 4t-3.5 8q0 3 11 12q71 56 88 132q-12 -10 -30 -10q-36 0 -36 34q0 20 15 36t37 16q19 0 29 -13.5t10 -35.5z" />
    <glyph glyph-name="Dcroat" unicode="&#x110;" horiz-adv-x="881" 
d="M878 426q0 -110 -61.5 -209.5t-158 -158t-197.5 -58.5h-337q-10 0 -15 0.5t-9 3.5t-4 10q0 10 4.5 15t9.5 6t16 1q48 0 61 7.5t19 33.5l62 247h-97q-7 0 -11 5.5t-2 12.5q4 18 22 18h97l62 248q4 14 4 23q0 11 -12.5 13.5t-43.5 2.5q-30 0 -30 14q0 10 4.5 15t10 6
t16.5 1h343q107 0 177 -70t70 -187zM791 457q0 54 -18 93t-48.5 59t-62 29t-65.5 9h-128q-26 0 -34 -5t-14 -30l-63 -252h173q8 0 11.5 -5.5t1.5 -12.5q-4 -18 -22 -18h-173l-64 -259q-4 -15 -4 -27q9 -2 28 -2h136q150 0 248 121q46 57 72 146.5t26 153.5z" />
    <glyph glyph-name="dcroat" unicode="&#x111;" 
d="M621 143q0 -3 -4 -18.5t-13.5 -41t-20.5 -42.5q-31 -51 -79 -51q-31 0 -59 17.5t-37 50.5q-65 -68 -137 -68q-59 0 -100.5 43.5t-41.5 120.5q0 109 78.5 198t170.5 89q62 0 99 -56l35 142h-139q-7 0 -11.5 5t-2.5 13q6 18 23 18h139l12 49q4 14 4 19q0 6 -1.5 8.5
t-12.5 5t-34 2.5q-26 0 -26 14t6.5 18t19.5 5l108 9q27 2 27 -13q0 -3 -3 -15l-26 -102h58q7 0 11 -5.5t2 -12.5q-4 -18 -22 -18h-58l-105 -421q-6 -18 -6 -41q0 -47 32 -47q13 0 24 9t19 28t13 34t12 40q5 19 8.5 23t16.5 4q21 0 21 -13zM456 302q3 10 3 14q0 11 -5 30.5
t-25.5 43t-50.5 23.5q-31 0 -63.5 -25.5t-56.5 -68.5q-20 -39 -36.5 -105.5t-16.5 -100.5q0 -41 18 -68t51 -27q40 0 87 41q44 42 53 77z" />
    <glyph glyph-name="Emacron" unicode="&#x112;" horiz-adv-x="793" 
d="M787 249q0 -5 -6 -17l-94 -215q-5 -12 -9.5 -14.5t-21.5 -2.5h-534q-10 0 -15 0.5t-9 3.5t-4 10q0 11 4 15.5t9.5 5.5t18.5 1q47 0 59.5 8t19.5 36l131 524q4 14 4 23q0 11 -12.5 13.5t-43.5 2.5q-30 0 -30 14q0 10 4.5 15t10 6t16.5 1h519q13 0 18 -1t7.5 -6.5
t1.5 -18.5l-19 -180q-1 -10 -2.5 -14t-6 -7t-13.5 -3q-21 0 -21 17q5 48 5 67q0 63 -31.5 86.5t-119.5 23.5h-153q-26 0 -34 -5t-14 -30l-59 -237h99q64 0 89 18.5t40 74.5q4 16 7.5 20t15.5 4q21 0 21 -14q0 -7 -2 -13l-56 -223q-3 -13 -7 -16.5t-16 -3.5q-21 0 -21 14
q0 3 3 12q7 29 7 47q0 24 -15 34t-68 10h-106l-67 -270q-4 -15 -4 -27q9 -2 28 -2h161q58 0 98 10.5t70 36t49.5 57.5t44.5 87q12 30 17 33q4 3 15 3q21 0 21 -14zM781 776q0 -11 -4.5 -16t-10 -6t-16.5 -1h-324q-11 0 -15.5 0.5t-8.5 4t-4 10.5q0 10 4.5 15t9.5 6t16 1h324
q29 0 29 -14z" />
    <glyph glyph-name="emacron" unicode="&#x113;" horiz-adv-x="544" 
d="M541 97q0 -5 -9 -16.5t-28.5 -27t-46 -29.5t-67 -24t-85.5 -10q-79 0 -124.5 52t-45.5 133q0 83 45.5 146t105.5 91.5t120 28.5q53 0 87 -24t34 -64q0 -30 -14 -52.5t-39.5 -35.5t-49.5 -21.5t-56.5 -11.5t-47 -3.5t-33.5 -0.5h-62q-13 -56 -13 -92q0 -51 23.5 -84.5
t69.5 -33.5q47 0 102 21.5t96 70.5q10 11 15 11q7 0 15 -9t8 -15zM479 354q0 27 -20.5 43t-52.5 16q-8 0 -18.5 -1t-34 -10t-44 -23.5t-42 -46.5t-34.5 -76h47q199 0 199 98zM614 603q0 -11 -4.5 -16t-10 -6t-16.5 -1h-324q-11 0 -15.5 0.5t-8.5 4t-4 10.5q0 10 4.5 15
t9.5 6t16 1h324q29 0 29 -14z" />
    <glyph glyph-name="Ebreve" unicode="&#x114;" horiz-adv-x="793" 
d="M787 249q0 -5 -6 -17l-94 -215q-5 -12 -9.5 -14.5t-21.5 -2.5h-534q-10 0 -15 0.5t-9 3.5t-4 10q0 11 4 15.5t9.5 5.5t18.5 1q47 0 59.5 8t19.5 36l131 524q4 14 4 23q0 11 -12.5 13.5t-43.5 2.5q-30 0 -30 14q0 10 4.5 15t10 6t16.5 1h519q13 0 18 -1t7.5 -6.5
t1.5 -18.5l-19 -180q-1 -10 -2.5 -14t-6 -7t-13.5 -3q-21 0 -21 17q5 48 5 67q0 63 -31.5 86.5t-119.5 23.5h-153q-26 0 -34 -5t-14 -30l-59 -237h99q64 0 89 18.5t40 74.5q4 16 7.5 20t15.5 4q21 0 21 -14q0 -7 -2 -13l-56 -223q-3 -13 -7 -16.5t-16 -3.5q-21 0 -21 14
q0 3 3 12q7 29 7 47q0 24 -15 34t-68 10h-106l-67 -270q-4 -15 -4 -27q9 -2 28 -2h161q58 0 98 10.5t70 36t49.5 57.5t44.5 87q12 30 17 33q4 3 15 3q21 0 21 -14zM783 906q0 -15 -14 -41.5t-38 -54t-63 -47.5t-82 -20q-59 0 -94 37t-35 90q0 50 19 50q14 0 14 -15l-2 -11
q-2 -11 -2 -18q0 -40 29 -65t74 -25q17 0 38 5t46 17.5t47.5 38t34.5 60.5q3 13 14 13q5 0 9.5 -4t4.5 -10z" />
    <glyph glyph-name="ebreve" unicode="&#x115;" horiz-adv-x="544" 
d="M541 97q0 -5 -9 -16.5t-28.5 -27t-46 -29.5t-67 -24t-85.5 -10q-79 0 -124.5 52t-45.5 133q0 83 45.5 146t105.5 91.5t120 28.5q53 0 87 -24t34 -64q0 -30 -14 -52.5t-39.5 -35.5t-49.5 -21.5t-56.5 -11.5t-47 -3.5t-33.5 -0.5h-62q-13 -56 -13 -92q0 -51 23.5 -84.5
t69.5 -33.5q47 0 102 21.5t96 70.5q10 11 15 11q7 0 15 -9t8 -15zM479 354q0 27 -20.5 43t-52.5 16q-8 0 -18.5 -1t-34 -10t-44 -23.5t-42 -46.5t-34.5 -76h47q199 0 199 98zM601 673q0 -15 -14 -41.5t-38 -54t-63 -47.5t-82 -20q-59 0 -94 37t-35 90q0 50 19 50
q14 0 14 -15l-2 -11q-2 -11 -2 -18q0 -40 29 -65t74 -25q17 0 38 5t46 17.5t47.5 38t34.5 60.5q3 13 14 13q5 0 9.5 -4t4.5 -10z" />
    <glyph glyph-name="Edotaccent" unicode="&#x116;" horiz-adv-x="793" 
d="M787 249q0 -5 -6 -17l-94 -215q-5 -12 -9.5 -14.5t-21.5 -2.5h-534q-10 0 -15 0.5t-9 3.5t-4 10q0 11 4 15.5t9.5 5.5t18.5 1q47 0 59.5 8t19.5 36l131 524q4 14 4 23q0 11 -12.5 13.5t-43.5 2.5q-30 0 -30 14q0 10 4.5 15t10 6t16.5 1h519q13 0 18 -1t7.5 -6.5
t1.5 -18.5l-19 -180q-1 -10 -2.5 -14t-6 -7t-13.5 -3q-21 0 -21 17q5 48 5 67q0 63 -31.5 86.5t-119.5 23.5h-153q-26 0 -34 -5t-14 -30l-59 -237h99q64 0 89 18.5t40 74.5q4 16 7.5 20t15.5 4q21 0 21 -14q0 -7 -2 -13l-56 -223q-3 -13 -7 -16.5t-16 -3.5q-21 0 -21 14
q0 3 3 12q7 29 7 47q0 24 -15 34t-68 10h-106l-67 -270q-4 -15 -4 -27q9 -2 28 -2h161q58 0 98 10.5t70 36t49.5 57.5t44.5 87q12 30 17 33q4 3 15 3q21 0 21 -14zM658 821q0 -26 -21.5 -47t-48.5 -21q-21 0 -34.5 14t-13.5 33q0 25 21 46.5t49 21.5q21 0 34.5 -13t13.5 -34
z" />
    <glyph glyph-name="edotaccent" unicode="&#x117;" horiz-adv-x="544" 
d="M541 97q0 -5 -9 -16.5t-28.5 -27t-46 -29.5t-67 -24t-85.5 -10q-79 0 -124.5 52t-45.5 133q0 83 45.5 146t105.5 91.5t120 28.5q53 0 87 -24t34 -64q0 -30 -14 -52.5t-39.5 -35.5t-49.5 -21.5t-56.5 -11.5t-47 -3.5t-33.5 -0.5h-62q-13 -56 -13 -92q0 -51 23.5 -84.5
t69.5 -33.5q47 0 102 21.5t96 70.5q10 11 15 11q7 0 15 -9t8 -15zM479 354q0 27 -20.5 43t-52.5 16q-8 0 -18.5 -1t-34 -10t-44 -23.5t-42 -46.5t-34.5 -76h47q199 0 199 98zM480 609q0 -26 -21.5 -47t-48.5 -21q-21 0 -34.5 14t-13.5 33q0 25 21 46.5t49 21.5
q21 0 34.5 -13t13.5 -34z" />
    <glyph glyph-name="Eogonek" unicode="&#x118;" horiz-adv-x="793" 
d="M787 249q0 -5 -6 -17l-94 -215q-5 -12 -9.5 -14.5t-21.5 -2.5h-81q-85 -49 -95 -95q-7 -32 17 -50.5t55 -18.5q52 0 89 56q5 8 12.5 5t3.5 -12q-21 -42 -61 -69t-78 -27q-47 0 -73 27t-18 63q16 74 109 121h-414q-10 0 -15 0.5t-9 3.5t-4 10q0 11 4 15.5t9.5 5.5t18.5 1
q47 0 59.5 8t19.5 36l131 524q4 14 4 23q0 11 -12.5 13.5t-43.5 2.5q-30 0 -30 14q0 10 4.5 15t10 6t16.5 1h519q13 0 18 -1t7.5 -6.5t1.5 -18.5l-19 -180q-1 -10 -2.5 -14t-6 -7t-13.5 -3q-21 0 -21 17q5 48 5 67q0 63 -31.5 86.5t-119.5 23.5h-153q-26 0 -34 -5t-14 -30
l-59 -237h99q64 0 89 18.5t40 74.5q4 16 7.5 20t15.5 4q21 0 21 -14q0 -7 -2 -13l-56 -223q-3 -13 -7 -16.5t-16 -3.5q-21 0 -21 14q0 3 3 12q7 29 7 47q0 24 -15 34t-68 10h-106l-67 -270q-4 -15 -4 -27q9 -2 28 -2h161q58 0 98 10.5t70 36t49.5 57.5t44.5 87q12 30 17 33
q4 3 15 3q21 0 21 -14z" />
    <glyph glyph-name="eogonek" unicode="&#x119;" horiz-adv-x="544" 
d="M541 97q0 -7 -14.5 -23t-48.5 -37.5t-77 -33.5q-84 -51 -95 -98q-7 -32 17 -50.5t55 -18.5q52 0 89 56q5 8 12.5 5t3.5 -12q-21 -42 -61 -69t-78 -27q-47 0 -73 27t-18 63q13 61 93 113q-26 -2 -41 -2q-79 0 -124.5 52t-45.5 133q0 83 45.5 146t105.5 91.5t120 28.5
q53 0 87 -24t34 -64q0 -30 -14 -52.5t-39.5 -35.5t-49.5 -21.5t-56.5 -11.5t-47 -3.5t-33.5 -0.5h-62q-13 -56 -13 -92q0 -51 23.5 -84.5t69.5 -33.5q47 0 102 21.5t96 70.5q10 11 15 11q7 0 15 -9t8 -15zM479 354q0 27 -20.5 43t-52.5 16q-8 0 -18.5 -1t-34 -10t-44 -23.5
t-42 -46.5t-34.5 -76h47q199 0 199 98z" />
    <glyph glyph-name="Ecaron" unicode="&#x11a;" horiz-adv-x="793" 
d="M787 249q0 -5 -6 -17l-94 -215q-5 -12 -9.5 -14.5t-21.5 -2.5h-534q-10 0 -15 0.5t-9 3.5t-4 10q0 11 4 15.5t9.5 5.5t18.5 1q47 0 59.5 8t19.5 36l131 524q4 14 4 23q0 11 -12.5 13.5t-43.5 2.5q-30 0 -30 14q0 10 4.5 15t10 6t16.5 1h519q13 0 18 -1t7.5 -6.5
t1.5 -18.5l-19 -180q-1 -10 -2.5 -14t-6 -7t-13.5 -3q-21 0 -21 17q5 48 5 67q0 63 -31.5 86.5t-119.5 23.5h-153q-26 0 -34 -5t-14 -30l-59 -237h99q64 0 89 18.5t40 74.5q4 16 7.5 20t15.5 4q21 0 21 -14q0 -7 -2 -13l-56 -223q-3 -13 -7 -16.5t-16 -3.5q-21 0 -21 14
q0 3 3 12q7 29 7 47q0 24 -15 34t-68 10h-106l-67 -270q-4 -15 -4 -27q9 -2 28 -2h161q58 0 98 10.5t70 36t49.5 57.5t44.5 87q12 30 17 33q4 3 15 3q21 0 21 -14zM741 833l-155 -98q-7 -3 -12 0l-106 98q-6 5 1 13.5t14 4.5l112 -55l140 55q6 2 10 -1t3 -8.5t-7 -8.5z" />
    <glyph glyph-name="ecaron" unicode="&#x11b;" horiz-adv-x="544" 
d="M541 97q0 -5 -9 -16.5t-28.5 -27t-46 -29.5t-67 -24t-85.5 -10q-79 0 -124.5 52t-45.5 133q0 83 45.5 146t105.5 91.5t120 28.5q53 0 87 -24t34 -64q0 -30 -14 -52.5t-39.5 -35.5t-49.5 -21.5t-56.5 -11.5t-47 -3.5t-33.5 -0.5h-62q-13 -56 -13 -92q0 -51 23.5 -84.5
t69.5 -33.5q47 0 102 21.5t96 70.5q10 11 15 11q7 0 15 -9t8 -15zM479 354q0 27 -20.5 43t-52.5 16q-8 0 -18.5 -1t-34 -10t-44 -23.5t-42 -46.5t-34.5 -76h47q199 0 199 98zM577 662l-166 -144q-9 -8 -15 0l-94 144q-6 7 3 14.5t15 1.5l97 -99l149 99q9 6 14 -1t-3 -15z
" />
    <glyph glyph-name="Gcircumflex" unicode="&#x11c;" horiz-adv-x="904" 
d="M880 262q0 -22 -21 -22q-49 -1 -58 -14q-5 -5 -22 -75q-1 -5 -10 -42t-17 -68t-10 -34q-1 -3 -3.5 -5t-4.5 -2h-2q-8 0 -20 16t-20 38q-28 -30 -88.5 -52t-142.5 -22q-129 0 -209.5 77.5t-80.5 200.5q0 112 67 216t174 166.5t220 62.5q109 0 171 -79l9 -9l9 9l61 69
q10 10 17 10q6 0 9.5 -3t3.5 -6l1 -3q0 -1 -2 -13l-60 -241q-4 -14 -7.5 -17t-16.5 -3q-21 0 -21 13q0 6 2 22t2 23q0 79 -43 135.5t-126 56.5q-70 0 -141 -34.5t-122 -92.5q-63 -73 -89 -161.5t-26 -148.5q0 -107 64 -160.5t155 -53.5q75 0 131 27q28 14 45 32t21.5 28.5
t9.5 28.5q20 83 20 87q0 11 -5 14t-28 5q-28 2 -46 2h-14q-28 0 -28 14q0 10 4.5 15.5t8 6t9.5 0.5q24 0 75.5 -2t76.5 -2q17 0 52 2t51 2q15 0 15 -14zM776 752q6 -5 -1 -13.5t-14 -4.5l-112 55l-140 -55q-6 -2 -10 1t-3 8.5t7 8.5l155 98q7 3 12 0z" />
    <glyph glyph-name="gcircumflex" unicode="&#x11d;" horiz-adv-x="544" 
d="M438 -64q-14 -56 -71.5 -98t-156.5 -42q-30 0 -50 2t-40.5 7t-31 17.5t-10.5 31.5q0 24 15 39t35 15q16 0 26 -9.5t10 -24.5q0 -27 -24 -41q24 -9 73 -9q36 0 65 12.5t45.5 32t24.5 32.5t13 26l31 123q-59 -50 -119 -50q-63 0 -103 46t-40 115q0 105 77.5 192.5
t169.5 87.5q63 0 98 -54q11 35 44 35q31 0 31 -30q0 -6 -4 -21zM415 141l40 163l3 14q0 6 -3.5 19t-11 31.5t-25 31.5t-41.5 13q-27 0 -58 -21.5t-56 -63.5q-22 -37 -39 -104.5t-17 -102.5q0 -41 18 -67t51 -26q43 0 87 42t52 71zM559 534q6 -7 -3 -14.5t-15 -1.5l-97 99
l-149 -99q-9 -6 -14 1t3 15l166 144q9 8 15 0z" />
    <glyph glyph-name="Gbreve" unicode="&#x11e;" horiz-adv-x="904" 
d="M880 262q0 -22 -21 -22q-49 -1 -58 -14q-5 -5 -22 -75q-1 -5 -10 -42t-17 -68t-10 -34q-1 -3 -3.5 -5t-4.5 -2h-2q-8 0 -20 16t-20 38q-28 -30 -88.5 -52t-142.5 -22q-129 0 -209.5 77.5t-80.5 200.5q0 112 67 216t174 166.5t220 62.5q109 0 171 -79l9 -9l9 9l61 69
q10 10 17 10q6 0 9.5 -3t3.5 -6l1 -3q0 -1 -2 -13l-60 -241q-4 -14 -7.5 -17t-16.5 -3q-21 0 -21 13q0 6 2 22t2 23q0 79 -43 135.5t-126 56.5q-70 0 -141 -34.5t-122 -92.5q-63 -73 -89 -161.5t-26 -148.5q0 -107 64 -160.5t155 -53.5q75 0 131 27q28 14 45 32t21.5 28.5
t9.5 28.5q20 83 20 87q0 11 -5 14t-28 5q-28 2 -46 2h-14q-28 0 -28 14q0 10 4.5 15.5t8 6t9.5 0.5q24 0 75.5 -2t76.5 -2q17 0 52 2t51 2q15 0 15 -14zM838 906q0 -15 -14 -41.5t-38 -54t-63 -47.5t-82 -20q-59 0 -94 37t-35 90q0 50 19 50q14 0 14 -15l-2 -11
q-2 -11 -2 -18q0 -40 29 -65t74 -25q17 0 38 5t46 17.5t47.5 38t34.5 60.5q3 13 14 13q5 0 9.5 -4t4.5 -10z" />
    <glyph glyph-name="gbreve" unicode="&#x11f;" horiz-adv-x="544" 
d="M438 -64q-14 -56 -71.5 -98t-156.5 -42q-30 0 -50 2t-40.5 7t-31 17.5t-10.5 31.5q0 24 15 39t35 15q16 0 26 -9.5t10 -24.5q0 -27 -24 -41q24 -9 73 -9q36 0 65 12.5t45.5 32t24.5 32.5t13 26l31 123q-59 -50 -119 -50q-63 0 -103 46t-40 115q0 105 77.5 192.5
t169.5 87.5q63 0 98 -54q11 35 44 35q31 0 31 -30q0 -6 -4 -21zM415 141l40 163l3 14q0 6 -3.5 19t-11 31.5t-25 31.5t-41.5 13q-27 0 -58 -21.5t-56 -63.5q-22 -37 -39 -104.5t-17 -102.5q0 -41 18 -67t51 -26q43 0 87 42t52 71zM617 673q0 -15 -14 -41.5t-38 -54
t-63 -47.5t-82 -20q-59 0 -94 37t-35 90q0 50 19 50q14 0 14 -15l-2 -11q-2 -11 -2 -18q0 -40 29 -65t74 -25q17 0 38 5t46 17.5t47.5 38t34.5 60.5q3 13 14 13q5 0 9.5 -4t4.5 -10z" />
    <glyph glyph-name="Gdotaccent" unicode="&#x120;" horiz-adv-x="904" 
d="M880 262q0 -22 -21 -22q-49 -1 -58 -14q-5 -5 -22 -75q-1 -5 -10 -42t-17 -68t-10 -34q-1 -3 -3.5 -5t-4.5 -2h-2q-8 0 -20 16t-20 38q-28 -30 -88.5 -52t-142.5 -22q-129 0 -209.5 77.5t-80.5 200.5q0 112 67 216t174 166.5t220 62.5q109 0 171 -79l9 -9l9 9l61 69
q10 10 17 10q6 0 9.5 -3t3.5 -6l1 -3q0 -1 -2 -13l-60 -241q-4 -14 -7.5 -17t-16.5 -3q-21 0 -21 13q0 6 2 22t2 23q0 79 -43 135.5t-126 56.5q-70 0 -141 -34.5t-122 -92.5q-63 -73 -89 -161.5t-26 -148.5q0 -107 64 -160.5t155 -53.5q75 0 131 27q28 14 45 32t21.5 28.5
t9.5 28.5q20 83 20 87q0 11 -5 14t-28 5q-28 2 -46 2h-14q-28 0 -28 14q0 10 4.5 15.5t8 6t9.5 0.5q24 0 75.5 -2t76.5 -2q17 0 52 2t51 2q15 0 15 -14zM713 821q0 -26 -21.5 -47t-48.5 -21q-21 0 -34.5 14t-13.5 33q0 25 21 46.5t49 21.5q21 0 34.5 -13t13.5 -34z" />
    <glyph glyph-name="gdotaccent" unicode="&#x121;" horiz-adv-x="544" 
d="M438 -64q-14 -56 -71.5 -98t-156.5 -42q-30 0 -50 2t-40.5 7t-31 17.5t-10.5 31.5q0 24 15 39t35 15q16 0 26 -9.5t10 -24.5q0 -27 -24 -41q24 -9 73 -9q36 0 65 12.5t45.5 32t24.5 32.5t13 26l31 123q-59 -50 -119 -50q-63 0 -103 46t-40 115q0 105 77.5 192.5
t169.5 87.5q63 0 98 -54q11 35 44 35q31 0 31 -30q0 -6 -4 -21zM415 141l40 163l3 14q0 6 -3.5 19t-11 31.5t-25 31.5t-41.5 13q-27 0 -58 -21.5t-56 -63.5q-22 -37 -39 -104.5t-17 -102.5q0 -41 18 -67t51 -26q43 0 87 42t52 71zM497 609q0 -26 -21.5 -47t-48.5 -21
q-21 0 -34.5 14t-13.5 33q0 25 21 46.5t49 21.5q21 0 34.5 -13t13.5 -34z" />
    <glyph glyph-name="Gcommaaccent" unicode="&#x122;" horiz-adv-x="904" 
d="M880 262q0 -22 -21 -22q-49 -1 -58 -14q-5 -5 -22 -75q-1 -5 -10 -42t-17 -68t-10 -34q-1 -3 -3.5 -5t-4.5 -2h-2q-8 0 -20 16t-20 38q-28 -30 -88.5 -52t-142.5 -22q-129 0 -209.5 77.5t-80.5 200.5q0 112 67 216t174 166.5t220 62.5q109 0 171 -79l9 -9l9 9l61 69
q10 10 17 10q6 0 9.5 -3t3.5 -6l1 -3q0 -1 -2 -13l-60 -241q-4 -14 -7.5 -17t-16.5 -3q-21 0 -21 13q0 6 2 22t2 23q0 79 -43 135.5t-126 56.5q-70 0 -141 -34.5t-122 -92.5q-63 -73 -89 -161.5t-26 -148.5q0 -107 64 -160.5t155 -53.5q75 0 131 27q28 14 45 32t21.5 28.5
t9.5 28.5q20 83 20 87q0 11 -5 14t-28 5q-28 2 -46 2h-14q-28 0 -28 14q0 10 4.5 15.5t8 6t9.5 0.5q24 0 75.5 -2t76.5 -2q17 0 52 2t51 2q15 0 15 -14zM468 -109q0 -42 -25.5 -87t-52 -70.5t-35.5 -25.5q-4 0 -7.5 4t-3.5 8q0 3 11 12q71 56 88 132q-12 -10 -30 -10
q-36 0 -36 34q0 20 15 36t37 16q19 0 29 -13.5t10 -35.5z" />
    <glyph glyph-name="gcommaaccent" unicode="&#x123;" horiz-adv-x="544" 
d="M475 554q0 -20 -15 -36t-37 -16q-19 0 -29 13.5t-10 35.5q0 42 25.5 87t52 70.5t35.5 25.5q4 0 7.5 -4t3.5 -8q0 -3 -11 -12q-71 -56 -88 -132q12 10 30 10q36 0 36 -34zM438 -64q-14 -56 -71.5 -98t-156.5 -42q-30 0 -50 2t-40.5 7t-31 17.5t-10.5 31.5q0 24 15 39
t35 15q16 0 26 -9.5t10 -24.5q0 -27 -24 -41q24 -9 73 -9q36 0 65 12.5t45.5 32t24.5 32.5t13 26l31 123q-59 -50 -119 -50q-63 0 -103 46t-40 115q0 105 77.5 192.5t169.5 87.5q63 0 98 -54q11 35 44 35q31 0 31 -30q0 -6 -4 -21zM415 141l40 163l3 14q0 6 -3.5 19
t-11 31.5t-25 31.5t-41.5 13q-27 0 -58 -21.5t-56 -63.5q-22 -37 -39 -104.5t-17 -102.5q0 -41 18 -67t51 -26q43 0 87 42t52 71z" />
    <glyph glyph-name="Hcircumflex" unicode="&#x124;" horiz-adv-x="866" 
d="M941 669q0 -11 -4 -15.5t-9.5 -5.5t-17.5 -1q-47 0 -60 -7.5t-20 -35.5l-134 -537q-3 -13 -3 -17q0 -14 57 -14q11 0 15.5 -0.5t9 -3.5t4.5 -10q0 -22 -21 -22q-19 0 -60 2t-61 2t-60 -2t-59 -2q-15 0 -15 14q0 10 4.5 15t9.5 6t16 1q48 0 61 7.5t19 33.5l65 260h-323
l-68 -270q-3 -13 -3 -17q0 -14 57 -14q11 0 15.5 -0.5t9 -3.5t4.5 -10q0 -22 -21 -22q-19 0 -60 2t-61 2t-60 -2t-59 -2q-15 0 -15 14q0 10 4.5 15t9.5 6t16 1q48 0 61 7.5t19 33.5l133 531q4 14 4 23q0 11 -12.5 13.5t-43.5 2.5q-30 0 -30 14q0 22 21 22q19 0 60.5 -2
t61.5 -2t60 2t59 2q15 0 15 -14q0 -11 -4 -15.5t-9.5 -5.5t-17.5 -1q-47 0 -60 -7t-19 -33l-58 -234h323l59 238q4 14 4 20q0 11 -12.5 13.5t-43.5 2.5q-30 0 -30 14q0 22 21 22q19 0 60.5 -2t61.5 -2t60 2t59 2q15 0 15 -14zM758 752q6 -5 -1 -13.5t-14 -4.5l-112 55
l-140 -55q-6 -2 -10 1t-3 8.5t7 8.5l155 98q7 3 12 0z" />
    <glyph glyph-name="hcircumflex" unicode="&#x125;" 
d="M621 143q0 -8 -9 -31t-25.5 -51t-46 -49.5t-64.5 -21.5q-37 0 -63 22.5t-26 61.5q0 20 10 45q64 169 64 226q0 68 -56 68q-57 0 -102 -40q-31 -29 -51.5 -65.5t-25.5 -53.5l-34 -134l-22 -90q-9 -40 -43 -40q-14 0 -23 8t-9 22q0 7 4 21l142 567q4 20 4 23q0 6 -1.5 8.5
t-12.5 5t-34 2.5q-26 0 -26 14t6.5 18t19.5 5l108 9q27 2 27 -13q0 -3 -3 -15l-75 -299q67 75 154 75q53 0 88 -26.5t35 -84.5q0 -54 -60 -211q-17 -49 -17 -67q0 -34 25 -34q31 0 57 33.5t40 83.5q4 14 7.5 17.5t16.5 3.5q21 0 21 -13zM629 763q6 -5 -1 -13.5t-14 -4.5
l-112 55l-140 -55q-6 -2 -10 1t-3 8.5t7 8.5l155 98q7 3 12 0z" />
    <glyph glyph-name="Hbar" unicode="&#x126;" horiz-adv-x="866" 
d="M941 669q0 -11 -4 -15.5t-9.5 -5.5t-17.5 -1q-47 0 -60 -7.5t-20 -35.5l-18 -73h75q7 0 11 -5.5t2 -12.5q-4 -18 -22 -18h-75l-107 -428q-3 -13 -3 -17q0 -14 57 -14q11 0 15.5 -0.5t9 -3.5t4.5 -10q0 -22 -21 -22q-19 0 -60 2t-61 2t-60 -2t-59 -2q-15 0 -15 14
q0 10 4.5 15t9.5 6t16 1q48 0 61 7.5t19 33.5l65 260h-323l-68 -270q-3 -13 -3 -17q0 -14 57 -14q11 0 15.5 -0.5t9 -3.5t4.5 -10q0 -22 -21 -22q-19 0 -60 2t-61 2t-60 -2t-59 -2q-15 0 -15 14q0 10 4.5 15t9.5 6t16 1q48 0 61 7.5t19 33.5l105 418h-75q-7 0 -11.5 5
t-2.5 13q6 18 23 18h75l19 77q4 14 4 23q0 11 -12.5 13.5t-43.5 2.5q-30 0 -30 14q0 22 21 22q19 0 60.5 -2t61.5 -2t60 2t59 2q15 0 15 -14q0 -11 -4 -15.5t-9.5 -5.5t-17.5 -1q-47 0 -60 -7t-19 -33l-19 -76h323l20 80q4 14 4 20q0 11 -12.5 13.5t-43.5 2.5q-30 0 -30 14
q0 22 21 22q19 0 60.5 -2t61.5 -2t60 2t59 2q15 0 15 -14zM687 373l30 122h-323l-30 -122h323z" />
    <glyph glyph-name="hbar" unicode="&#x127;" 
d="M621 143q0 -8 -9 -31t-25.5 -51t-46 -49.5t-64.5 -21.5q-37 0 -63 22.5t-26 61.5q0 20 10 45q64 169 64 226q0 68 -56 68q-57 0 -102 -40q-31 -29 -51.5 -65.5t-25.5 -53.5l-34 -134l-22 -90q-9 -40 -43 -40q-14 0 -23 8t-9 22q0 7 4 21l122 486h-47q-7 0 -11.5 5
t-2.5 13q6 18 23 18h47l11 45q4 20 4 23q0 6 -1.5 8.5t-12.5 5t-34 2.5q-26 0 -26 14t6.5 18t19.5 5l108 9q27 2 27 -13q0 -3 -3 -15l-26 -102h140q7 0 11 -5.5t2 -12.5q-4 -18 -22 -18h-140l-40 -161q67 75 154 75q53 0 88 -26.5t35 -84.5q0 -54 -60 -211q-17 -49 -17 -67
q0 -34 25 -34q31 0 57 33.5t40 83.5q4 14 7.5 17.5t16.5 3.5q21 0 21 -13z" />
    <glyph glyph-name="Itilde" unicode="&#x128;" horiz-adv-x="455" 
d="M536 668q0 -10 -4.5 -14.5t-10 -5.5t-17.5 -1q-36 0 -52.5 -4t-21 -11t-9.5 -26l-133 -533q-4 -14 -4 -20t1 -8t6 -4t16 -3l38 -2q11 0 15.5 -0.5t9 -3.5t4.5 -10q0 -22 -21 -22q-20 0 -62.5 2t-63.5 2q-20 0 -62 -2t-62 -2q-6 0 -10 3.5t-5 6.5v4q0 11 4.5 15.5t10 5.5
t18.5 1q49 0 62.5 7.5t19.5 33.5l133 531q4 14 4 23q0 11 -14 13.5t-47 2.5q-30 0 -30 14q0 22 22 22q20 0 62 -2t63 -2q20 0 62.5 2t61.5 2q16 0 16 -15zM609 828q0 -10 -59 -57q-56 -38 -85 -38q-33 0 -57 36q-22 31 -39 31q-32 0 -103 -59q-8 -8 -13 -8q-14 0 -14 14
q0 5 3.5 9t21.5 19q78 67 120 67q31 0 58 -37q9 -12 12.5 -16.5t10.5 -9t15 -4.5q31 0 94 53q15 14 22 14q13 0 13 -14z" />
    <glyph glyph-name="itilde" unicode="&#x129;" horiz-adv-x="368" 
d="M386 143q0 -8 -9 -31t-25.5 -51t-46 -49.5t-64.5 -21.5q-39 0 -64 24.5t-25 59.5q0 18 24 80l35 93l27 69q16 42 16 63q0 34 -25 34q-63 0 -99 -125q-2 -9 -6 -11t-15 -2q-21 0 -21 13q0 14 14.5 48t50 69.5t79.5 35.5q40 0 65 -24.5t25 -59.5q0 -16 -6 -33l-66 -173
q-30 -74 -30 -99q0 -34 24 -34q34 0 59.5 36t37.5 81q4 14 7.5 17.5t16.5 3.5q21 0 21 -13zM519 639q0 -10 -59 -57q-56 -38 -85 -38q-33 0 -57 36q-22 31 -39 31q-32 0 -103 -59q-8 -8 -13 -8q-14 0 -14 14q0 5 3.5 9t21.5 19q78 67 120 67q31 0 58 -37q9 -12 12.5 -16.5
t10.5 -9t15 -4.5q31 0 94 53q15 14 22 14q13 0 13 -14z" />
    <glyph glyph-name="Imacron" unicode="&#x12a;" horiz-adv-x="455" 
d="M536 668q0 -10 -4.5 -14.5t-10 -5.5t-17.5 -1q-36 0 -52.5 -4t-21 -11t-9.5 -26l-133 -533q-4 -14 -4 -20t1 -8t6 -4t16 -3l38 -2q11 0 15.5 -0.5t9 -3.5t4.5 -10q0 -22 -21 -22q-20 0 -62.5 2t-63.5 2q-20 0 -62 -2t-62 -2q-6 0 -10 3.5t-5 6.5v4q0 11 4.5 15.5t10 5.5
t18.5 1q49 0 62.5 7.5t19.5 33.5l133 531q4 14 4 23q0 11 -14 13.5t-47 2.5q-30 0 -30 14q0 22 22 22q20 0 62 -2t63 -2q20 0 62.5 2t61.5 2q16 0 16 -15zM612 776q0 -11 -4.5 -16t-10 -6t-16.5 -1h-324q-11 0 -15.5 0.5t-8.5 4t-4 10.5q0 10 4.5 15t9.5 6t16 1h324
q29 0 29 -14z" />
    <glyph glyph-name="imacron" unicode="&#x12b;" horiz-adv-x="368" 
d="M386 143q0 -8 -9 -31t-25.5 -51t-46 -49.5t-64.5 -21.5q-39 0 -64 24.5t-25 59.5q0 18 24 80l35 93l27 69q16 42 16 63q0 34 -25 34q-63 0 -99 -125q-2 -9 -6 -11t-15 -2q-21 0 -21 13q0 14 14.5 48t50 69.5t79.5 35.5q40 0 65 -24.5t25 -59.5q0 -16 -6 -33l-66 -173
q-30 -74 -30 -99q0 -34 24 -34q34 0 59.5 36t37.5 81q4 14 7.5 17.5t16.5 3.5q21 0 21 -13zM526 603q0 -11 -4.5 -16t-10 -6t-16.5 -1h-324q-11 0 -15.5 0.5t-8.5 4t-4 10.5q0 10 4.5 15t9.5 6t16 1h324q29 0 29 -14z" />
    <glyph glyph-name="Ibreve" unicode="&#x12c;" horiz-adv-x="455" 
d="M536 668q0 -10 -4.5 -14.5t-10 -5.5t-17.5 -1q-36 0 -52.5 -4t-21 -11t-9.5 -26l-133 -533q-4 -14 -4 -20t1 -8t6 -4t16 -3l38 -2q11 0 15.5 -0.5t9 -3.5t4.5 -10q0 -22 -21 -22q-20 0 -62.5 2t-63.5 2q-20 0 -62 -2t-62 -2q-6 0 -10 3.5t-5 6.5v4q0 11 4.5 15.5t10 5.5
t18.5 1q49 0 62.5 7.5t19.5 33.5l133 531q4 14 4 23q0 11 -14 13.5t-47 2.5q-30 0 -30 14q0 22 22 22q20 0 62 -2t63 -2q20 0 62.5 2t61.5 2q16 0 16 -15zM614 906q0 -15 -14 -41.5t-38 -54t-63 -47.5t-82 -20q-59 0 -94 37t-35 90q0 50 19 50q14 0 14 -15l-2 -11
q-2 -11 -2 -18q0 -40 29 -65t74 -25q17 0 38 5t46 17.5t47.5 38t34.5 60.5q3 13 14 13q5 0 9.5 -4t4.5 -10z" />
    <glyph glyph-name="ibreve" unicode="&#x12d;" horiz-adv-x="368" 
d="M386 143q0 -8 -9 -31t-25.5 -51t-46 -49.5t-64.5 -21.5q-39 0 -64 24.5t-25 59.5q0 18 24 80l35 93l27 69q16 42 16 63q0 34 -25 34q-63 0 -99 -125q-2 -9 -6 -11t-15 -2q-21 0 -21 13q0 14 14.5 48t50 69.5t79.5 35.5q40 0 65 -24.5t25 -59.5q0 -16 -6 -33l-66 -173
q-30 -74 -30 -99q0 -34 24 -34q34 0 59.5 36t37.5 81q4 14 7.5 17.5t16.5 3.5q21 0 21 -13zM513 673q0 -15 -14 -41.5t-38 -54t-63 -47.5t-82 -20q-59 0 -94 37t-35 90q0 50 19 50q14 0 14 -15l-2 -11q-2 -11 -2 -18q0 -40 29 -65t74 -25q17 0 38 5t46 17.5t47.5 38
t34.5 60.5q3 13 14 13q5 0 9.5 -4t4.5 -10z" />
    <glyph glyph-name="Iogonek" unicode="&#x12e;" horiz-adv-x="455" 
d="M341 -115q-21 -42 -61 -69t-78 -27q-47 0 -73 27t-18 63q14 64 109 125q-19 0 -58.5 -2t-58.5 -2q-6 0 -10 3.5t-5 6.5v4q0 11 4.5 15.5t10 5.5t18.5 1q49 0 62.5 7.5t19.5 33.5l133 531q4 14 4 23q0 11 -14 13.5t-47 2.5q-30 0 -30 14q0 22 22 22q20 0 62 -2t63 -2
q20 0 62.5 2t61.5 2q16 0 16 -15q0 -10 -4.5 -14.5t-10 -5.5t-17.5 -1q-36 0 -52.5 -4t-21 -11t-9.5 -26l-133 -533q-4 -14 -4 -20t1 -8t6 -4t16 -3l38 -2q11 0 15.5 -0.5t9 -3.5t4.5 -10q0 -22 -21 -22q-13 0 -28 0.5t-34.5 1.5t-29.5 1q-21 -13 -44 -29q-44 -34 -53 -69
q-7 -32 17 -50.5t55 -18.5q52 0 89 56q5 8 12.5 5t3.5 -12z" />
    <glyph glyph-name="iogonek" unicode="&#x12f;" horiz-adv-x="368" 
d="M357 623q0 -18 -15 -33t-34 -15q-17 0 -26.5 10.5t-9.5 24.5q0 17 15 32.5t35 15.5q15 0 25 -9.5t10 -25.5zM340 -115q-21 -42 -61 -69t-78 -27q-47 0 -73 27t-18 63q13 61 97 117q-25 9 -40 30.5t-15 47.5q0 18 24 80l35 93l27 69q16 42 16 63q0 34 -25 34
q-63 0 -99 -125q-2 -9 -6 -11t-15 -2q-21 0 -21 13q0 14 14.5 48t50 69.5t79.5 35.5q40 0 65 -24.5t25 -59.5q0 -16 -6 -33l-66 -173q-30 -74 -30 -99q0 -34 24 -34q34 0 59.5 36t37.5 81q4 14 7.5 17.5t16.5 3.5q21 0 21 -13q0 -8 -9 -31t-25.5 -51t-46 -49.5t-64.5 -21.5
h-2l-23 -16q-45 -33 -53 -69q-7 -32 17 -50.5t55 -18.5q52 0 89 56q5 8 12.5 5t3.5 -12z" />
    <glyph glyph-name="Idotaccent" unicode="&#x130;" horiz-adv-x="455" 
d="M536 668q0 -10 -4.5 -14.5t-10 -5.5t-17.5 -1q-36 0 -52.5 -4t-21 -11t-9.5 -26l-133 -533q-4 -14 -4 -20t1 -8t6 -4t16 -3l38 -2q11 0 15.5 -0.5t9 -3.5t4.5 -10q0 -22 -21 -22q-20 0 -62.5 2t-63.5 2q-20 0 -62 -2t-62 -2q-6 0 -10 3.5t-5 6.5v4q0 11 4.5 15.5t10 5.5
t18.5 1q49 0 62.5 7.5t19.5 33.5l133 531q4 14 4 23q0 11 -14 13.5t-47 2.5q-30 0 -30 14q0 22 22 22q20 0 62 -2t63 -2q20 0 62.5 2t61.5 2q16 0 16 -15zM488 821q0 -26 -21.5 -47t-48.5 -21q-21 0 -34.5 14t-13.5 33q0 25 21 46.5t49 21.5q21 0 34.5 -13t13.5 -34z" />
    <glyph glyph-name="dotlessi" unicode="&#x131;" horiz-adv-x="368" 
d="M386 143q0 -8 -9 -31t-25.5 -51t-46 -49.5t-64.5 -21.5q-39 0 -64 24.5t-25 59.5q0 18 24 80l35 93l27 69q16 42 16 63q0 34 -25 34q-63 0 -99 -125q-2 -9 -6 -11t-15 -2q-21 0 -21 13q0 14 14.5 48t50 69.5t79.5 35.5q40 0 65 -24.5t25 -59.5q0 -16 -6 -33l-66 -173
q-30 -74 -30 -99q0 -34 24 -34q34 0 59.5 36t37.5 81q4 14 7.5 17.5t16.5 3.5q21 0 21 -13z" />
    <glyph glyph-name="Jcircumflex" unicode="&#x134;" horiz-adv-x="617" 
d="M685 669q0 -10 -4.5 -15.5t-8.5 -6t-12 -0.5q-35 0 -45 -6.5t-16 -32.5l-117 -470q-15 -63 -78.5 -110.5t-138.5 -47.5q-60 0 -98 30.5t-38 78.5q0 37 17.5 54.5t41.5 17.5q23 0 32 -12.5t9 -25.5q0 -17 -13 -35.5t-42 -21.5q8 -28 33.5 -43t55.5 -15q43 0 84 40.5
t56 100.5l114 457q4 15 4 21q0 10 -4.5 13t-23.5 5q-18 2 -46 2h-11q-28 0 -28 14q0 10 4.5 15.5t8 6t9.5 0.5q22 0 70.5 -2t71.5 -2q16 0 50 2t49 2q14 0 14 -14zM705 752q6 -5 -1 -13.5t-14 -4.5l-112 55l-140 -55q-6 -2 -10 1t-3 8.5t7 8.5l155 98q7 3 12 0z" />
    <glyph glyph-name="jcircumflex" unicode="&#x135;" horiz-adv-x="368" 
d="M266 -52q-15 -63 -70 -107.5t-121 -44.5q-44 0 -73 14.5t-29 44.5q0 22 15 37.5t35 15.5q16 0 26 -9.5t10 -24.5q0 -26 -24 -42q20 -8 41 -8q44 0 74.5 40.5t41.5 84.5l95 382q4 16 4 34q0 48 -33 48q-30 0 -64.5 -29t-61.5 -93q-5 -11 -8 -13.5t-15 -2.5q-21 0 -21 12
q0 8 12 31.5t33 51.5t55.5 49.5t72.5 21.5q44 0 72.5 -26.5t28.5 -66.5q0 -14 -5 -34zM455 534q6 -7 -3 -14.5t-15 -1.5l-97 99l-149 -99q-9 -6 -14 1t3 15l166 144q9 8 15 0z" />
    <glyph glyph-name="Kcommaaccent" unicode="&#x136;" horiz-adv-x="895" 
d="M817 22q0 -22 -19 -22q-13 0 -43.5 2t-44.5 2q-19 0 -59 -2t-58 -2q-15 0 -15 15q0 21 23 21q43 0 43 25q0 7 -6 18l-139 283l-169 -125l-36 -143q-10 -37 -10 -44q0 -14 57 -14q11 0 15.5 -0.5t9 -3.5t4.5 -10q0 -22 -21 -22q-19 0 -60 2t-61 2t-60 -2t-59 -2
q-15 0 -15 14q0 10 4.5 15t9.5 6t16 1q48 0 61 7.5t19 33.5l133 531q4 14 4 23q0 11 -12.5 13.5t-43.5 2.5q-30 0 -30 14q0 22 21 22q19 0 60.5 -2t61.5 -2t60 2t59 2q15 0 15 -14q0 -11 -4 -15.5t-9.5 -5.5t-17.5 -1q-47 0 -60 -7t-19 -33l-78 -312l394 290q4 3 10 9l6 6
q24 18 24 33q0 13 -20 14q-16 1 -16 14q0 22 22 22q18 0 58 -2t59 -2q11 0 35.5 2t34.5 2q4 0 8.5 -3.5t4.5 -10.5q0 -9 -3.5 -14t-7 -6t-10.5 -2q-66 -6 -170 -83l-206 -151l167 -341q10 -19 22 -27t38 -9q23 0 23 -14zM464 -109q0 -42 -25.5 -87t-52 -70.5t-35.5 -25.5
q-4 0 -7.5 4t-3.5 8q0 3 11 12q71 56 88 132q-12 -10 -30 -10q-36 0 -36 34q0 20 15 36t37 16q19 0 29 -13.5t10 -35.5z" />
    <glyph glyph-name="kcommaaccent" unicode="&#x137;" horiz-adv-x="544" 
d="M562 143q0 -3 -4 -17.5t-14 -37.5t-23.5 -45t-36.5 -37.5t-50 -15.5q-45 0 -73 29.5t-28 71.5q0 13 4 28q3 15 3 25q0 39 -36 58t-85 24l-47 -188q-4 -14 -7 -22t-13 -17t-25 -9q-14 0 -23 8t-9 22q0 7 4 21l142 567q4 20 4 23q0 6 -1.5 8.5t-12.5 5t-34 2.5
q-26 0 -26 14t6.5 18t19.5 5l108 9q27 2 27 -13q0 -3 -3 -15l-100 -400q40 17 112 88q88 88 153 88q34 0 54 -19.5t20 -47.5q0 -26 -15 -41.5t-36 -15.5q-35 0 -35 34q0 37 38 48q-7 14 -28 14q-23 0 -50 -14t-46 -30t-47 -44q-49 -49 -85 -73q150 -19 150 -106q0 -8 -5 -33
q-6 -24 -6 -45q0 -50 34 -50q51 0 80 118q4 13 7.5 16.5t16.5 3.5q21 0 21 -13zM289 -109q0 -42 -25.5 -87t-52 -70.5t-35.5 -25.5q-4 0 -7.5 4t-3.5 8q0 3 11 12q71 56 88 132q-12 -10 -30 -10q-36 0 -36 34q0 20 15 36t37 16q19 0 29 -13.5t10 -35.5z" />
    <glyph glyph-name="Lacute" unicode="&#x139;" horiz-adv-x="735" 
d="M714 248q0 -4 -5 -17l-80 -213q-5 -13 -9.5 -15.5t-21.5 -2.5h-476q-10 0 -15 0.5t-9 3.5t-4 10q0 10 4.5 15t9.5 6t16 1q48 0 61 7.5t19 33.5l133 531q4 14 4 23q0 11 -12.5 13.5t-43.5 2.5q-30 0 -30 14q0 22 21 22q19 0 61 -2t62 -2q23 0 71 2t70 2q16 0 16 -15
q0 -10 -4.5 -15t-9.5 -5.5t-16 -0.5h-10q-58 0 -73.5 -8.5t-21.5 -35.5l-134 -538q-4 -15 -4 -27q9 -2 28 -2h106q48 0 87 13t63 30.5t45 47.5t30.5 50.5t22.5 53.5q10 25 14 29q3 3 14 3q21 0 21 -15zM602 866q-1 -9 -6.5 -15.5t-10.5 -9.5t-15 -7l-193 -87q-9 -4 -17 -4
q-7 1 -12 11.5t-4 15.5q1 6 14 14l188 112q9 9 24 9q17 0 26 -11.5t6 -27.5z" />
    <glyph glyph-name="lacute" unicode="&#x13a;" horiz-adv-x="310" 
d="M328 143q0 -3 -4 -18t-12.5 -39t-18.5 -42q-32 -54 -81 -54q-38 0 -68.5 24t-30.5 70q0 14 5 34l123 491q4 14 4 22q0 6 -1.5 8.5t-12.5 5t-34 2.5q-26 0 -26 14t6.5 18t19.5 5l108 9q27 2 27 -13q0 -3 -3 -15l-140 -559q-6 -18 -6 -41q0 -47 32 -47q18 0 32.5 21
t20.5 40.5t16 56.5q3 13 6.5 16.5t16.5 3.5q21 0 21 -13zM530 877q-1 -9 -6.5 -15.5t-10.5 -9.5t-15 -7l-193 -87q-9 -4 -17 -4q-7 1 -12 11.5t-4 15.5q1 6 14 14l188 112q9 9 24 9q17 0 26 -11.5t6 -27.5z" />
    <glyph glyph-name="Lcommaaccent" unicode="&#x13b;" horiz-adv-x="735" 
d="M714 248q0 -4 -5 -17l-80 -213q-5 -13 -9.5 -15.5t-21.5 -2.5h-476q-10 0 -15 0.5t-9 3.5t-4 10q0 10 4.5 15t9.5 6t16 1q48 0 61 7.5t19 33.5l133 531q4 14 4 23q0 11 -12.5 13.5t-43.5 2.5q-30 0 -30 14q0 22 21 22q19 0 61 -2t62 -2q23 0 71 2t70 2q16 0 16 -15
q0 -10 -4.5 -15t-9.5 -5.5t-16 -0.5h-10q-58 0 -73.5 -8.5t-21.5 -35.5l-134 -538q-4 -15 -4 -27q9 -2 28 -2h106q48 0 87 13t63 30.5t45 47.5t30.5 50.5t22.5 53.5q10 25 14 29q3 3 14 3q21 0 21 -15zM384 -109q0 -42 -25.5 -87t-52 -70.5t-35.5 -25.5q-4 0 -7.5 4t-3.5 8
q0 3 11 12q71 56 88 132q-12 -10 -30 -10q-36 0 -36 34q0 20 15 36t37 16q19 0 29 -13.5t10 -35.5z" />
    <glyph glyph-name="lcommaaccent" unicode="&#x13c;" horiz-adv-x="310" 
d="M328 143q0 -3 -4 -18t-12.5 -39t-18.5 -42q-32 -54 -81 -54q-38 0 -68.5 24t-30.5 70q0 14 5 34l123 491q4 14 4 22q0 6 -1.5 8.5t-12.5 5t-34 2.5q-26 0 -26 14t6.5 18t19.5 5l108 9q27 2 27 -13q0 -3 -3 -15l-140 -559q-6 -18 -6 -41q0 -47 32 -47q18 0 32.5 21
t20.5 40.5t16 56.5q3 13 6.5 16.5t16.5 3.5q21 0 21 -13zM171 -109q0 -42 -25.5 -87t-52 -70.5t-35.5 -25.5q-4 0 -7.5 4t-3.5 8q0 3 11 12q71 56 88 132q-12 -10 -30 -10q-36 0 -36 34q0 20 15 36t37 16q19 0 29 -13.5t10 -35.5z" />
    <glyph glyph-name="Lcaron" unicode="&#x13d;" horiz-adv-x="735" 
d="M714 248q0 -4 -5 -17l-80 -213q-5 -13 -9.5 -15.5t-21.5 -2.5h-476q-10 0 -15 0.5t-9 3.5t-4 10q0 10 4.5 15t9.5 6t16 1q48 0 61 7.5t19 33.5l133 531q4 14 4 23q0 11 -12.5 13.5t-43.5 2.5q-30 0 -30 14q0 22 21 22q19 0 61 -2t62 -2q23 0 71 2t70 2q16 0 16 -15
q0 -10 -4.5 -15t-9.5 -5.5t-16 -0.5h-10q-58 0 -73.5 -8.5t-21.5 -35.5l-134 -538q-4 -15 -4 -27q9 -2 28 -2h106q48 0 87 13t63 30.5t45 47.5t30.5 50.5t22.5 53.5q10 25 14 29q3 3 14 3q21 0 21 -15zM698 634q0 -42 -25.5 -87t-52 -70.5t-35.5 -25.5q-4 0 -7.5 4t-3.5 8
q0 3 11 12q71 56 88 132q-12 -10 -30 -10q-36 0 -36 34q0 20 15 36t37 16q19 0 29 -13.5t10 -35.5z" />
    <glyph glyph-name="lcaron" unicode="&#x13e;" horiz-adv-x="310" 
d="M328 143q0 -3 -4 -18t-12.5 -39t-18.5 -42q-32 -54 -81 -54q-38 0 -68.5 24t-30.5 70q0 14 5 34l123 491q4 14 4 22q0 6 -1.5 8.5t-12.5 5t-34 2.5q-26 0 -26 14t6.5 18t19.5 5l108 9q27 2 27 -13q0 -3 -3 -15l-140 -559q-6 -18 -6 -41q0 -47 32 -47q18 0 32.5 21
t20.5 40.5t16 56.5q3 13 6.5 16.5t16.5 3.5q21 0 21 -13zM455 645q0 -42 -25.5 -87t-52 -70.5t-35.5 -25.5q-4 0 -7.5 4t-3.5 8q0 3 11 12q71 56 88 132q-12 -10 -30 -10q-36 0 -36 34q0 20 15 36t37 16q19 0 29 -13.5t10 -35.5z" />
    <glyph glyph-name="Ldot" unicode="&#x13f;" horiz-adv-x="735" 
d="M714 248q0 -4 -5 -17l-80 -213q-5 -13 -9.5 -15.5t-21.5 -2.5h-476q-10 0 -15 0.5t-9 3.5t-4 10q0 10 4.5 15t9.5 6t16 1q48 0 61 7.5t19 33.5l133 531q4 14 4 23q0 11 -12.5 13.5t-43.5 2.5q-30 0 -30 14q0 22 21 22q19 0 61 -2t62 -2q23 0 71 2t70 2q16 0 16 -15
q0 -10 -4.5 -15t-9.5 -5.5t-16 -0.5h-10q-58 0 -73.5 -8.5t-21.5 -35.5l-134 -538q-4 -15 -4 -27q9 -2 28 -2h106q48 0 87 13t63 30.5t45 47.5t30.5 50.5t22.5 53.5q10 25 14 29q3 3 14 3q21 0 21 -15zM756 416q0 -26 -21.5 -47t-48.5 -21q-21 0 -34.5 14t-13.5 33
q0 25 21 46.5t49 21.5q21 0 34.5 -13t13.5 -34z" />
    <glyph glyph-name="ldot" unicode="&#x140;" horiz-adv-x="310" 
d="M328 143q0 -3 -4 -18t-12.5 -39t-18.5 -42q-32 -54 -81 -54q-38 0 -68.5 24t-30.5 70q0 14 5 34l123 491q4 14 4 22q0 6 -1.5 8.5t-12.5 5t-34 2.5q-26 0 -26 14t6.5 18t19.5 5l108 9q27 2 27 -13q0 -3 -3 -15l-140 -559q-6 -18 -6 -41q0 -47 32 -47q18 0 32.5 21
t20.5 40.5t16 56.5q3 13 6.5 16.5t16.5 3.5q21 0 21 -13zM432 377q0 -26 -21.5 -47t-48.5 -21q-21 0 -34.5 14t-13.5 33q0 25 21 46.5t49 21.5q21 0 34.5 -13t13.5 -34z" />
    <glyph glyph-name="Lslash" unicode="&#x141;" horiz-adv-x="735" 
d="M714 248q0 -4 -5 -17l-80 -213q-5 -13 -9.5 -15.5t-21.5 -2.5h-476q-10 0 -15 0.5t-9 3.5t-4 10q0 10 4.5 15t9.5 6t16 1q48 0 61 7.5t19 33.5l55 220l-64 -52l-22 25l99 78l65 260q4 14 4 23q0 11 -12.5 13.5t-43.5 2.5q-30 0 -30 14q0 22 21 22q19 0 61 -2t62 -2
q23 0 71 2t70 2q16 0 16 -15q0 -10 -4.5 -15t-9.5 -5.5t-16 -0.5h-10q-58 0 -73.5 -8.5t-21.5 -35.5l-42 -169l131 103l20 -26l-164 -131l-79 -315q-4 -15 -4 -27q9 -2 28 -2h106q48 0 87 13t63 30.5t45 47.5t30.5 50.5t22.5 53.5q10 25 14 29q3 3 14 3q21 0 21 -15z" />
    <glyph glyph-name="lslash" unicode="&#x142;" horiz-adv-x="383" 
d="M364 143q0 -3 -4 -18t-12.5 -39t-18.5 -42q-32 -54 -81 -54q-38 0 -68.5 24t-30.5 70q0 14 5 34l44 175l-52 -39l-16 20l78 60l69 275q4 14 4 22q0 6 -1.5 8.5t-12.5 5t-34 2.5q-26 0 -26 14t6.5 18t19.5 5l108 9q27 2 27 -13q0 -3 -3 -15l-66 -264l53 39l16 -21l-79 -60
l-64 -253q-6 -18 -6 -41q0 -47 32 -47q18 0 32.5 21t20.5 40.5t16 56.5q3 13 6.5 16.5t16.5 3.5q21 0 21 -13z" />
    <glyph glyph-name="Nacute" unicode="&#x143;" horiz-adv-x="866" 
d="M941 669q0 -20 -18 -22q-45 -2 -68 -18t-33 -57l-138 -553q-3 -13 -7 -16t-18 -3q-12 0 -16 2.5t-9 13.5l-253 583l-125 -501q-3 -9 -3 -22q0 -39 60 -40q18 0 18 -14q0 -22 -20 -22q-16 0 -50.5 2t-51.5 2t-51 -2t-50 -2q-14 0 -14 14q0 20 18 22q25 1 41.5 5t34 21
t24.5 46l132 531q0 8 -59 8q-30 0 -30 14q0 10 4.5 15t10 6t16.5 1h122q16 0 21 -2.5t11 -15.5l227 -525l111 441q4 16 4 26q0 18 -12 28.5t-48 11.5q-19 0 -19 14q0 22 21 22q16 0 50.5 -2t51.5 -2q16 0 50.5 2t49.5 2t15 -14zM806 866q-1 -9 -6.5 -15.5t-10.5 -9.5t-15 -7
l-193 -87q-9 -4 -17 -4q-7 1 -12 11.5t-4 15.5q1 6 14 14l188 112q9 9 24 9q17 0 26 -11.5t6 -27.5z" />
    <glyph glyph-name="nacute" unicode="&#x144;" horiz-adv-x="662" 
d="M680 143q0 -8 -9 -31t-25.5 -51t-46 -49.5t-64.5 -21.5q-37 0 -63 22.5t-26 61.5q0 20 10 45q64 173 64 226q0 68 -57 68q-56 0 -105 -44q-18 -17 -36 -44t-26.5 -43.5t-10.5 -22.5q-3 -20 -17 -67q-2 -8 -8 -34t-8 -34l-23 -89q-12 -45 -45 -45q-31 0 -31 30q0 2 14 64
q14 51 17 68l28 108q21 92 21 105q0 48 -31 48q-40 0 -67 -109q-5 -21 -8.5 -25t-17.5 -4q-21 0 -21 13q0 8 11.5 43.5t25.5 56.5q32 53 80 53q35 0 64.5 -21.5t34.5 -63.5q67 85 163 85q55 0 89 -27.5t34 -83.5q0 -54 -60 -211q-17 -49 -17 -67q0 -34 25 -34q31 0 57 33.5
t40 83.5q4 14 7.5 17.5t16.5 3.5q21 0 21 -13zM632 663q0 -20 -26 -37l-175 -119q-10 -7 -16 -7q-8 0 -14.5 9t-6.5 15q0 5 12 16l165 143q13 13 29 13q12 0 22 -9t10 -24z" />
    <glyph glyph-name="Ncommaaccent" unicode="&#x145;" horiz-adv-x="866" 
d="M941 669q0 -20 -18 -22q-45 -2 -68 -18t-33 -57l-138 -553q-3 -13 -7 -16t-18 -3q-12 0 -16 2.5t-9 13.5l-253 583l-125 -501q-3 -9 -3 -22q0 -39 60 -40q18 0 18 -14q0 -22 -20 -22q-16 0 -50.5 2t-51.5 2t-51 -2t-50 -2q-14 0 -14 14q0 20 18 22q25 1 41.5 5t34 21
t24.5 46l132 531q0 8 -59 8q-30 0 -30 14q0 10 4.5 15t10 6t16.5 1h122q16 0 21 -2.5t11 -15.5l227 -525l111 441q4 16 4 26q0 18 -12 28.5t-48 11.5q-19 0 -19 14q0 22 21 22q16 0 50.5 -2t51.5 -2q16 0 50.5 2t49.5 2t15 -14zM449 -109q0 -42 -25.5 -87t-52 -70.5
t-35.5 -25.5q-4 0 -7.5 4t-3.5 8q0 3 11 12q71 56 88 132q-12 -10 -30 -10q-36 0 -36 34q0 20 15 36t37 16q19 0 29 -13.5t10 -35.5z" />
    <glyph glyph-name="ncommaaccent" unicode="&#x146;" horiz-adv-x="662" 
d="M680 143q0 -8 -9 -31t-25.5 -51t-46 -49.5t-64.5 -21.5q-37 0 -63 22.5t-26 61.5q0 20 10 45q64 173 64 226q0 68 -57 68q-56 0 -105 -44q-18 -17 -36 -44t-26.5 -43.5t-10.5 -22.5q-3 -20 -17 -67q-2 -8 -8 -34t-8 -34l-23 -89q-12 -45 -45 -45q-31 0 -31 30q0 2 14 64
q14 51 17 68l28 108q21 92 21 105q0 48 -31 48q-40 0 -67 -109q-5 -21 -8.5 -25t-17.5 -4q-21 0 -21 13q0 8 11.5 43.5t25.5 56.5q32 53 80 53q35 0 64.5 -21.5t34.5 -63.5q67 85 163 85q55 0 89 -27.5t34 -83.5q0 -54 -60 -211q-17 -49 -17 -67q0 -34 25 -34q31 0 57 33.5
t40 83.5q4 14 7.5 17.5t16.5 3.5q21 0 21 -13zM347 -109q0 -42 -25.5 -87t-52 -70.5t-35.5 -25.5q-4 0 -7.5 4t-3.5 8q0 3 11 12q71 56 88 132q-12 -10 -30 -10q-36 0 -36 34q0 20 15 36t37 16q19 0 29 -13.5t10 -35.5z" />
    <glyph glyph-name="Ncaron" unicode="&#x147;" horiz-adv-x="866" 
d="M941 669q0 -20 -18 -22q-45 -2 -68 -18t-33 -57l-138 -553q-3 -13 -7 -16t-18 -3q-12 0 -16 2.5t-9 13.5l-253 583l-125 -501q-3 -9 -3 -22q0 -39 60 -40q18 0 18 -14q0 -22 -20 -22q-16 0 -50.5 2t-51.5 2t-51 -2t-50 -2q-14 0 -14 14q0 20 18 22q25 1 41.5 5t34 21
t24.5 46l132 531q0 8 -59 8q-30 0 -30 14q0 10 4.5 15t10 6t16.5 1h122q16 0 21 -2.5t11 -15.5l227 -525l111 441q4 16 4 26q0 18 -12 28.5t-48 11.5q-19 0 -19 14q0 22 21 22q16 0 50.5 -2t51.5 -2q16 0 50.5 2t49.5 2t15 -14zM778 833l-155 -98q-7 -3 -12 0l-106 98
q-6 5 1 13.5t14 4.5l112 -55l140 55q6 2 10 -1t3 -8.5t-7 -8.5z" />
    <glyph glyph-name="ncaron" unicode="&#x148;" horiz-adv-x="662" 
d="M680 143q0 -8 -9 -31t-25.5 -51t-46 -49.5t-64.5 -21.5q-37 0 -63 22.5t-26 61.5q0 20 10 45q64 173 64 226q0 68 -57 68q-56 0 -105 -44q-18 -17 -36 -44t-26.5 -43.5t-10.5 -22.5q-3 -20 -17 -67q-2 -8 -8 -34t-8 -34l-23 -89q-12 -45 -45 -45q-31 0 -31 30q0 2 14 64
q14 51 17 68l28 108q21 92 21 105q0 48 -31 48q-40 0 -67 -109q-5 -21 -8.5 -25t-17.5 -4q-21 0 -21 13q0 8 11.5 43.5t25.5 56.5q32 53 80 53q35 0 64.5 -21.5t34.5 -63.5q67 85 163 85q55 0 89 -27.5t34 -83.5q0 -54 -60 -211q-17 -49 -17 -67q0 -34 25 -34q31 0 57 33.5
t40 83.5q4 14 7.5 17.5t16.5 3.5q21 0 21 -13zM635 662l-166 -144q-9 -8 -15 0l-94 144q-6 7 3 14.5t15 1.5l97 -99l149 99q9 6 14 -1t-3 -15z" />
    <glyph glyph-name="Eng" unicode="&#x14a;" horiz-adv-x="866" 
d="M914 342q-36 -147 -130.5 -254.5t-211.5 -107.5q-17 0 -26.5 12.5t-4.5 29.5t20 29.5t32 12.5q16 0 25.5 -10t7.5 -25q123 39 190 313q17 62 12 120t-25.5 102t-62.5 70.5t-98 26.5q-66 0 -130 -31t-106 -83l-118 -474q-4 -14 -4 -20t1 -8t6 -4t16 -3l38 -2
q11 0 15.5 -0.5t9 -3.5t4.5 -10q0 -22 -21 -22q-20 0 -62.5 2t-63.5 2q-20 0 -62 -2t-62 -2q-6 0 -10 3.5t-5 6.5v4q0 11 4.5 15.5t10 5.5t18.5 1q49 0 62.5 7.5t19.5 33.5l133 531q4 14 4 23q0 11 -14 13.5t-47 2.5q-30 0 -30 14q0 22 22 22q20 0 62 -2t63 -2q24 0 44 4
l-17 -68q102 88 229 88q96 0 165.5 -48.5t95.5 -131.5t1 -181z" />
    <glyph glyph-name="eng" unicode="&#x14b;" horiz-adv-x="585" 
d="M590 330q0 -51 -34.5 -148.5t-39.5 -118.5q-69 -277 -206 -277q-15 0 -23 10.5t-4 26.5q4 15 17.5 26t28.5 11q20 0 27 -18q19 17 37 58t27 73t23 90q4 16 40.5 122t36.5 160q0 68 -57 68q-56 0 -105 -44q-18 -17 -36 -44t-26.5 -43.5t-10.5 -22.5q-3 -20 -17 -67
q-2 -8 -8 -34t-8 -34l-23 -89q-12 -45 -45 -45q-31 0 -31 30q0 2 14 64q14 51 17 68l28 108q21 92 21 105q0 48 -31 48q-40 0 -67 -109q-5 -21 -8.5 -25t-17.5 -4q-21 0 -21 13q0 8 11.5 43.5t25.5 56.5q32 53 80 53q35 0 64.5 -21.5t34.5 -63.5q67 85 163 85q55 0 89 -27.5
t34 -83.5z" />
    <glyph glyph-name="Omacron" unicode="&#x14c;" horiz-adv-x="897" 
d="M895 429q0 -113 -65.5 -218t-170.5 -168t-216 -63q-122 0 -198 76t-76 194q0 109 64 214.5t170.5 172t219.5 66.5q119 0 195.5 -75t76.5 -199zM805 462q0 56 -17 98t-46 65.5t-61 34.5t-66 11q-93 0 -174 -61.5t-128.5 -163.5t-47.5 -216q0 -110 55 -163.5t131 -53.5
q73 0 140.5 42t113 107.5t73 145t27.5 154.5zM833 776q0 -11 -4.5 -16t-10 -6t-16.5 -1h-324q-11 0 -15.5 0.5t-8.5 4t-4 10.5q0 10 4.5 15t9.5 6t16 1h324q29 0 29 -14z" />
    <glyph glyph-name="omacron" unicode="&#x14d;" 
d="M579 269q0 -105 -85.5 -192t-192.5 -87q-75 0 -123 48t-48 124q0 106 85.5 192.5t192.5 86.5q76 0 123.5 -49t47.5 -123zM500 303q0 59 -29 84.5t-64 25.5q-34 0 -69 -19.5t-61 -54.5q-32 -42 -50 -106t-18 -105q0 -34 10 -57.5t26.5 -34t30 -14.5t26.5 -4q39 0 77.5 25
t62.5 62q29 45 43.5 104.5t14.5 93.5zM643 603q0 -11 -4.5 -16t-10 -6t-16.5 -1h-324q-11 0 -15.5 0.5t-8.5 4t-4 10.5q0 10 4.5 15t9.5 6t16 1h324q29 0 29 -14z" />
    <glyph glyph-name="Obreve" unicode="&#x14e;" horiz-adv-x="897" 
d="M895 429q0 -113 -65.5 -218t-170.5 -168t-216 -63q-122 0 -198 76t-76 194q0 109 64 214.5t170.5 172t219.5 66.5q119 0 195.5 -75t76.5 -199zM805 462q0 56 -17 98t-46 65.5t-61 34.5t-66 11q-93 0 -174 -61.5t-128.5 -163.5t-47.5 -216q0 -110 55 -163.5t131 -53.5
q73 0 140.5 42t113 107.5t73 145t27.5 154.5zM835 906q0 -15 -14 -41.5t-38 -54t-63 -47.5t-82 -20q-59 0 -94 37t-35 90q0 50 19 50q14 0 14 -15l-2 -11q-2 -11 -2 -18q0 -40 29 -65t74 -25q17 0 38 5t46 17.5t47.5 38t34.5 60.5q3 13 14 13q5 0 9.5 -4t4.5 -10z" />
    <glyph glyph-name="obreve" unicode="&#x14f;" 
d="M579 269q0 -105 -85.5 -192t-192.5 -87q-75 0 -123 48t-48 124q0 106 85.5 192.5t192.5 86.5q76 0 123.5 -49t47.5 -123zM500 303q0 59 -29 84.5t-64 25.5q-34 0 -69 -19.5t-61 -54.5q-32 -42 -50 -106t-18 -105q0 -34 10 -57.5t26.5 -34t30 -14.5t26.5 -4q39 0 77.5 25
t62.5 62q29 45 43.5 104.5t14.5 93.5zM630 673q0 -15 -14 -41.5t-38 -54t-63 -47.5t-82 -20q-59 0 -94 37t-35 90q0 50 19 50q14 0 14 -15l-2 -11q-2 -11 -2 -18q0 -40 29 -65t74 -25q17 0 38 5t46 17.5t47.5 38t34.5 60.5q3 13 14 13q5 0 9.5 -4t4.5 -10z" />
    <glyph glyph-name="Ohungarumlaut" unicode="&#x150;" horiz-adv-x="897" 
d="M895 429q0 -113 -65.5 -218t-170.5 -168t-216 -63q-122 0 -198 76t-76 194q0 109 64 214.5t170.5 172t219.5 66.5q119 0 195.5 -75t76.5 -199zM805 462q0 56 -17 98t-46 65.5t-61 34.5t-66 11q-93 0 -174 -61.5t-128.5 -163.5t-47.5 -216q0 -110 55 -163.5t131 -53.5
q73 0 140.5 42t113 107.5t73 145t27.5 154.5zM675 906q0 -15 -20 -36q-4 -4 -18.5 -19t-18.5 -20q-50 -55 -81 -85q-6 -3 -10 -3q-6 0 -15 6.5t-9 13.5q0 6 7 16l95 136q15 22 37 22q14 0 23.5 -9t9.5 -22zM851 906q0 -15 -20 -36q-4 -4 -18.5 -19t-18.5 -20
q-50 -55 -81 -85q-6 -3 -10 -3q-6 0 -15 6.5t-9 13.5q0 6 7 16l95 136q15 22 37 22q14 0 23.5 -9t9.5 -22z" />
    <glyph glyph-name="ohungarumlaut" unicode="&#x151;" 
d="M579 269q0 -105 -85.5 -192t-192.5 -87q-75 0 -123 48t-48 124q0 106 85.5 192.5t192.5 86.5q76 0 123.5 -49t47.5 -123zM500 303q0 59 -29 84.5t-64 25.5q-34 0 -69 -19.5t-61 -54.5q-32 -42 -50 -106t-18 -105q0 -34 10 -57.5t26.5 -34t30 -14.5t26.5 -4q39 0 77.5 25
t62.5 62q29 45 43.5 104.5t14.5 93.5zM467 664q0 -15 -20 -36q-4 -4 -18.5 -19t-18.5 -20q-50 -55 -81 -85q-6 -3 -10 -3q-6 0 -15 6.5t-9 13.5q0 6 7 16l95 136q15 22 37 22q14 0 23.5 -9t9.5 -22zM643 664q0 -15 -20 -36q-4 -4 -18.5 -19t-18.5 -20q-50 -55 -81 -85
q-6 -3 -10 -3q-6 0 -15 6.5t-9 13.5q0 6 7 16l95 136q15 22 37 22q14 0 23.5 -9t9.5 -22z" />
    <glyph glyph-name="OE" unicode="&#x152;" horiz-adv-x="1146" 
d="M1140 249q0 -5 -6 -17l-94 -215q-5 -12 -9.5 -14.5t-21.5 -2.5h-389q-31 0 -85 -10q-53 -10 -81 -10q-116 0 -193.5 74.5t-77.5 195.5q0 110 65 215.5t170.5 171.5t216.5 66q31 0 75 -10q51 -10 81 -10h367q13 0 18 -1t7.5 -6.5t1.5 -18.5l-19 -180q-1 -10 -2.5 -14
t-6 -7t-13.5 -3q-21 0 -21 17q0 1 2.5 26.5t2.5 43.5q0 59 -26.5 83t-110.5 24h-135q-26 0 -34 -5t-14 -30l-59 -239h117q67 0 94 18.5t43 76.5q4 15 7 18.5t16 3.5q21 0 21 -14q0 -3 -3 -15l-55 -220q-4 -14 -7.5 -17.5t-15.5 -3.5q-21 0 -21 14q1 6 3 14q6 24 6 42
q0 26 -17 36.5t-74 10.5h-123l-68 -272q-4 -15 -4 -27q9 -2 28 -2h136q75 0 122 21.5t73.5 58.5t59.5 111q13 30 17 33t15 3q21 0 21 -14zM624 179l84 339q12 50 12 88q0 15 -2 24.5t-10 21t-27.5 17.5t-49.5 6q-63 0 -127 -35.5t-114 -93.5t-81.5 -138.5t-31.5 -163.5
q0 -100 50 -168t138 -68q31 0 51.5 5.5t41 22.5t36.5 52t30 91z" />
    <glyph glyph-name="oe" unicode="&#x153;" horiz-adv-x="838" 
d="M806 97q0 -10 -24 -34t-75.5 -48.5t-109.5 -24.5q-107 0 -148 99q-38 -47 -84.5 -74t-92.5 -27q-60 0 -101.5 44t-41.5 121q0 110 79 200t171 90q49 0 81 -27t45 -62q34 35 86 61t110 26q51 0 85.5 -23.5t34.5 -64.5q0 -30 -14.5 -52.5t-40.5 -35.5t-50.5 -21.5
t-57.5 -11.5t-48 -3.5t-34 -0.5h-64q-11 -52 -11 -86q0 -61 27.5 -92.5t68.5 -31.5q37 0 84 20.5t89 71.5q8 11 13 11q7 0 15 -9t8 -15zM773 354q0 26 -20.5 42.5t-53.5 16.5q-27 0 -57.5 -11t-67.5 -49t-54 -97h49q204 0 204 98zM451 313q0 48 -20 75t-52 27
q-30 0 -61.5 -23.5t-55.5 -64.5q-22 -40 -39.5 -109.5t-17.5 -105.5q0 -46 19 -71t49 -25q29 0 63 23.5t61 70.5q22 40 38 103t16 100z" />
    <glyph glyph-name="Racute" unicode="&#x154;" horiz-adv-x="852" 
d="M834 96q0 -25 -35 -70.5t-92 -45.5q-55 0 -95.5 26t-40.5 83q0 22 18 87q12 50 12 63q0 38 -30 63.5t-89 25.5h-132l-65 -261q-3 -13 -3 -17q0 -14 57 -14q11 0 15.5 -0.5t9 -3.5t4.5 -10q0 -22 -20 -22q-19 0 -59.5 2t-60.5 2q-19 0 -59 -2t-58 -2q-15 0 -15 14
q0 10 4.5 15t9.5 6t16 1q48 0 61 7.5t19 33.5l133 531q4 14 4 23q0 11 -12.5 13.5t-43.5 2.5q-30 0 -30 14q0 10 4.5 15t10 6t16.5 1h289q100 0 166.5 -43.5t66.5 -109.5q0 -67 -67.5 -119t-150.5 -71q14 -5 27 -12.5t28.5 -21t25.5 -35t10 -47.5q0 -19 -8 -83
q-6 -52 -6 -72q0 -29 7.5 -45t33.5 -16q27 0 48.5 25t31.5 58q4 13 7.5 16t15.5 3q21 0 21 -14zM715 545q0 56 -47 81q-41 21 -110 21h-89q-26 0 -34 -5t-14 -30l-63 -256h126q59 0 103.5 15.5t68 36.5t38 49.5t18 48.5t3.5 39zM799 866q-1 -9 -6.5 -15.5t-10.5 -9.5t-15 -7
l-193 -87q-9 -4 -17 -4q-7 1 -12 11.5t-4 15.5q1 6 14 14l188 112q9 9 24 9q17 0 26 -11.5t6 -27.5z" />
    <glyph glyph-name="racute" unicode="&#x155;" horiz-adv-x="500" 
d="M560 372q0 -28 -16 -41.5t-34 -13.5q-35 0 -35 34q0 31 30 45q-24 17 -68 17q-54 0 -93 -45q-44 -50 -61 -117q-3 -11 -8 -32.5t-8 -32.5l-27 -108q-13 -55 -17 -64q-12 -24 -39 -24q-31 0 -31 30q0 2 14 64q14 51 17 68l28 108q21 92 21 105q0 48 -31 48q-40 0 -67 -109
q-5 -21 -8.5 -25t-17.5 -4q-21 0 -21 13q0 8 11.5 43.5t25.5 56.5q32 53 80 53q28 0 56.5 -15.5t39.5 -52.5q59 68 138 68q50 0 85.5 -17t35.5 -52zM552 663q0 -20 -26 -37l-175 -119q-10 -7 -16 -7q-8 0 -14.5 9t-6.5 15q0 5 12 16l165 143q13 13 29 13q12 0 22 -9t10 -24z
" />
    <glyph glyph-name="Rcommaaccent" unicode="&#x156;" horiz-adv-x="852" 
d="M834 96q0 -25 -35 -70.5t-92 -45.5q-55 0 -95.5 26t-40.5 83q0 22 18 87q12 50 12 63q0 38 -30 63.5t-89 25.5h-132l-65 -261q-3 -13 -3 -17q0 -14 57 -14q11 0 15.5 -0.5t9 -3.5t4.5 -10q0 -22 -20 -22q-19 0 -59.5 2t-60.5 2q-19 0 -59 -2t-58 -2q-15 0 -15 14
q0 10 4.5 15t9.5 6t16 1q48 0 61 7.5t19 33.5l133 531q4 14 4 23q0 11 -12.5 13.5t-43.5 2.5q-30 0 -30 14q0 10 4.5 15t10 6t16.5 1h289q100 0 166.5 -43.5t66.5 -109.5q0 -67 -67.5 -119t-150.5 -71q14 -5 27 -12.5t28.5 -21t25.5 -35t10 -47.5q0 -19 -8 -83
q-6 -52 -6 -72q0 -29 7.5 -45t33.5 -16q27 0 48.5 25t31.5 58q4 13 7.5 16t15.5 3q21 0 21 -14zM715 545q0 56 -47 81q-41 21 -110 21h-89q-26 0 -34 -5t-14 -30l-63 -256h126q59 0 103.5 15.5t68 36.5t38 49.5t18 48.5t3.5 39zM442 -109q0 -42 -25.5 -87t-52 -70.5
t-35.5 -25.5q-4 0 -7.5 4t-3.5 8q0 3 11 12q71 56 88 132q-12 -10 -30 -10q-36 0 -36 34q0 20 15 36t37 16q19 0 29 -13.5t10 -35.5z" />
    <glyph glyph-name="rcommaaccent" unicode="&#x157;" horiz-adv-x="500" 
d="M560 372q0 -28 -16 -41.5t-34 -13.5q-35 0 -35 34q0 31 30 45q-24 17 -68 17q-54 0 -93 -45q-44 -50 -61 -117q-3 -11 -8 -32.5t-8 -32.5l-27 -108q-13 -55 -17 -64q-12 -24 -39 -24q-31 0 -31 30q0 2 14 64q14 51 17 68l28 108q21 92 21 105q0 48 -31 48q-40 0 -67 -109
q-5 -21 -8.5 -25t-17.5 -4q-21 0 -21 13q0 8 11.5 43.5t25.5 56.5q32 53 80 53q28 0 56.5 -15.5t39.5 -52.5q59 68 138 68q50 0 85.5 -17t35.5 -52zM200 -109q0 -42 -25.5 -87t-52 -70.5t-35.5 -25.5q-4 0 -7.5 4t-3.5 8q0 3 11 12q71 56 88 132q-12 -10 -30 -10
q-36 0 -36 34q0 20 15 36t37 16q19 0 29 -13.5t10 -35.5z" />
    <glyph glyph-name="Rcaron" unicode="&#x158;" horiz-adv-x="852" 
d="M834 96q0 -25 -35 -70.5t-92 -45.5q-55 0 -95.5 26t-40.5 83q0 22 18 87q12 50 12 63q0 38 -30 63.5t-89 25.5h-132l-65 -261q-3 -13 -3 -17q0 -14 57 -14q11 0 15.5 -0.5t9 -3.5t4.5 -10q0 -22 -20 -22q-19 0 -59.5 2t-60.5 2q-19 0 -59 -2t-58 -2q-15 0 -15 14
q0 10 4.5 15t9.5 6t16 1q48 0 61 7.5t19 33.5l133 531q4 14 4 23q0 11 -12.5 13.5t-43.5 2.5q-30 0 -30 14q0 10 4.5 15t10 6t16.5 1h289q100 0 166.5 -43.5t66.5 -109.5q0 -67 -67.5 -119t-150.5 -71q14 -5 27 -12.5t28.5 -21t25.5 -35t10 -47.5q0 -19 -8 -83
q-6 -52 -6 -72q0 -29 7.5 -45t33.5 -16q27 0 48.5 25t31.5 58q4 13 7.5 16t15.5 3q21 0 21 -14zM715 545q0 56 -47 81q-41 21 -110 21h-89q-26 0 -34 -5t-14 -30l-63 -256h126q59 0 103.5 15.5t68 36.5t38 49.5t18 48.5t3.5 39zM771 833l-155 -98q-7 -3 -12 0l-106 98
q-6 5 1 13.5t14 4.5l112 -55l140 55q6 2 10 -1t3 -8.5t-7 -8.5z" />
    <glyph glyph-name="rcaron" unicode="&#x159;" horiz-adv-x="500" 
d="M560 372q0 -28 -16 -41.5t-34 -13.5q-35 0 -35 34q0 31 30 45q-24 17 -68 17q-54 0 -93 -45q-44 -50 -61 -117q-3 -11 -8 -32.5t-8 -32.5l-27 -108q-13 -55 -17 -64q-12 -24 -39 -24q-31 0 -31 30q0 2 14 64q14 51 17 68l28 108q21 92 21 105q0 48 -31 48q-40 0 -67 -109
q-5 -21 -8.5 -25t-17.5 -4q-21 0 -21 13q0 8 11.5 43.5t25.5 56.5q32 53 80 53q28 0 56.5 -15.5t39.5 -52.5q59 68 138 68q50 0 85.5 -17t35.5 -52zM555 662l-166 -144q-9 -8 -15 0l-94 144q-6 7 3 14.5t15 1.5l97 -99l149 99q9 6 14 -1t-3 -15z" />
    <glyph glyph-name="Sacute" unicode="&#x15a;" horiz-adv-x="662" 
d="M616 228q0 -92 -78.5 -170t-183.5 -78q-119 0 -179 70l-46 -56q-13 -14 -20 -14q-15 0 -15 12q0 5 3 14l50 201q4 14 7.5 17t16.5 3q20 0 20 -12l-1 -11q-6 -24 -6 -48q0 -43 18 -72.5t47 -43t55 -19t53 -5.5q75 0 133 56t58 124q0 29 -9.5 50t-28.5 32.5t-32 16t-34 9.5
q-6 2 -28.5 7.5t-28.5 7.5q-49 11 -51 12q-57 15 -87 54.5t-30 89.5q0 86 77.5 157t178.5 71q105 0 153 -70l48 60q8 10 17 10q6 0 9.5 -3t3.5 -6l1 -3q0 -3 -2 -13l-50 -202q-4 -14 -8 -17t-16 -3q-21 0 -21 13l2 16q2 16 2 36q0 75 -38 113q-37 37 -103 37
q-73 0 -129.5 -51t-56.5 -112q0 -43 33 -73q13 -11 28.5 -16.5t64.5 -17.5q54 -11 96 -24q46 -13 76.5 -53t30.5 -96zM704 866q-1 -9 -6.5 -15.5t-10.5 -9.5t-15 -7l-193 -87q-9 -4 -17 -4q-7 1 -12 11.5t-4 15.5q1 6 14 14l188 112q9 9 24 9q17 0 26 -11.5t6 -27.5z" />
    <glyph glyph-name="sacute" unicode="&#x15b;" horiz-adv-x="486" 
d="M454 156q0 -16 -5 -35t-20 -43t-37 -43t-60.5 -32t-87.5 -13q-70 0 -112 26t-42 71q0 30 15 46t37 16q16 0 25.5 -9.5t9.5 -23.5q0 -38 -41 -49q24 -49 110 -49q42 0 73 12t45 30t20.5 33t6.5 28q0 18 -8.5 30.5t-27 20.5t-30.5 11t-37 8q-16 3 -26.5 5.5t-29.5 10.5
t-30.5 18t-20.5 28t-9 41q0 18 8 40t26 47.5t55 42.5t87 17t88 -21.5t38 -65.5q0 -31 -14.5 -42.5t-29.5 -11.5q-32 0 -32 30q0 17 11 28t20 14q-18 41 -82 41q-33 0 -57 -10t-35 -25.5t-15.5 -27.5t-4.5 -21q0 -19 14 -31.5t26 -16t34 -7.5q46 -9 67 -15.5t41 -23.5
q37 -32 37 -79zM544 663q0 -20 -26 -37l-175 -119q-10 -7 -16 -7q-8 0 -14.5 9t-6.5 15q0 5 12 16l165 143q13 13 29 13q12 0 22 -9t10 -24z" />
    <glyph glyph-name="Scircumflex" unicode="&#x15c;" horiz-adv-x="662" 
d="M616 228q0 -92 -78.5 -170t-183.5 -78q-119 0 -179 70l-46 -56q-13 -14 -20 -14q-15 0 -15 12q0 5 3 14l50 201q4 14 7.5 17t16.5 3q20 0 20 -12l-1 -11q-6 -24 -6 -48q0 -43 18 -72.5t47 -43t55 -19t53 -5.5q75 0 133 56t58 124q0 29 -9.5 50t-28.5 32.5t-32 16t-34 9.5
q-6 2 -28.5 7.5t-28.5 7.5q-49 11 -51 12q-57 15 -87 54.5t-30 89.5q0 86 77.5 157t178.5 71q105 0 153 -70l48 60q8 10 17 10q6 0 9.5 -3t3.5 -6l1 -3q0 -3 -2 -13l-50 -202q-4 -14 -8 -17t-16 -3q-21 0 -21 13l2 16q2 16 2 36q0 75 -38 113q-37 37 -103 37
q-73 0 -129.5 -51t-56.5 -112q0 -43 33 -73q13 -11 28.5 -16.5t64.5 -17.5q54 -11 96 -24q46 -13 76.5 -53t30.5 -96zM656 752q6 -5 -1 -13.5t-14 -4.5l-112 55l-140 -55q-6 -2 -10 1t-3 8.5t7 8.5l155 98q7 3 12 0z" />
    <glyph glyph-name="scircumflex" unicode="&#x15d;" horiz-adv-x="486" 
d="M454 156q0 -16 -5 -35t-20 -43t-37 -43t-60.5 -32t-87.5 -13q-70 0 -112 26t-42 71q0 30 15 46t37 16q16 0 25.5 -9.5t9.5 -23.5q0 -38 -41 -49q24 -49 110 -49q42 0 73 12t45 30t20.5 33t6.5 28q0 18 -8.5 30.5t-27 20.5t-30.5 11t-37 8q-16 3 -26.5 5.5t-29.5 10.5
t-30.5 18t-20.5 28t-9 41q0 18 8 40t26 47.5t55 42.5t87 17t88 -21.5t38 -65.5q0 -31 -14.5 -42.5t-29.5 -11.5q-32 0 -32 30q0 17 11 28t20 14q-18 41 -82 41q-33 0 -57 -10t-35 -25.5t-15.5 -27.5t-4.5 -21q0 -19 14 -31.5t26 -16t34 -7.5q46 -9 67 -15.5t41 -23.5
q37 -32 37 -79zM513 534q6 -7 -3 -14.5t-15 -1.5l-97 99l-149 -99q-9 -6 -14 1t3 15l166 144q9 8 15 0z" />
    <glyph glyph-name="Scedilla" unicode="&#x15e;" horiz-adv-x="662" 
d="M616 228q0 -89 -75 -166.5t-177 -81.5q-2 -5 -4.5 -14.5t-2.5 -10.5q72 -10 72 -58q0 -29 -19.5 -47.5t-56.5 -26.5t-69 -10.5t-77 -2.5h-30q-14 2 -14 14q0 7 4 10t9 3.5t15 0.5h16q149 0 149 58q0 30 -56 35q-19 0 -19 14q0 1 9 41q-74 14 -115 64l-46 -56
q-13 -14 -20 -14q-15 0 -15 12q0 5 3 14l50 201q4 14 7.5 17t16.5 3q20 0 20 -12l-1 -11q-6 -24 -6 -48q0 -43 18 -72.5t47 -43t55 -19t53 -5.5q75 0 133 56t58 124q0 29 -9.5 50t-28.5 32.5t-32 16t-34 9.5q-6 2 -28.5 7.5t-28.5 7.5q-49 11 -51 12q-57 15 -87 54.5
t-30 89.5q0 86 77.5 157t178.5 71q105 0 153 -70l48 60q8 10 17 10q6 0 9.5 -3t3.5 -6l1 -3q0 -3 -2 -13l-50 -202q-4 -14 -8 -17t-16 -3q-21 0 -21 13l2 16q2 16 2 36q0 75 -38 113q-37 37 -103 37q-73 0 -129.5 -51t-56.5 -112q0 -43 33 -73q13 -11 28.5 -16.5t64.5 -17.5
q54 -11 96 -24q46 -13 76.5 -53t30.5 -96z" />
    <glyph glyph-name="scedilla" unicode="&#x15f;" horiz-adv-x="486" 
d="M454 156q0 -19 -8 -42t-26 -49.5t-55 -47t-87 -25.5q-6 -28 -9 -37q72 -10 72 -58q0 -29 -19.5 -47.5t-56.5 -26.5t-69 -10.5t-77 -2.5h-30q-14 2 -14 14q0 7 4 10t9 3.5t15 0.5h16q149 0 149 58q0 30 -56 35q-19 0 -19 14q0 6 11 48q-53 7 -83.5 31.5t-30.5 62.5
q0 30 15 46t37 16q16 0 25.5 -9.5t9.5 -23.5q0 -38 -41 -49q24 -49 110 -49q42 0 73 12t45 30t20.5 33t6.5 28q0 18 -8.5 30.5t-27 20.5t-30.5 11t-37 8q-16 3 -26.5 5.5t-29.5 10.5t-30.5 18t-20.5 28t-9 41q0 18 8 40t26 47.5t55 42.5t87 17t88 -21.5t38 -65.5
q0 -31 -14.5 -42.5t-29.5 -11.5q-32 0 -32 30q0 17 11 28t20 14q-18 41 -82 41q-33 0 -57 -10t-35 -25.5t-15.5 -27.5t-4.5 -21q0 -19 14 -31.5t26 -16t34 -7.5q46 -9 67 -15.5t41 -23.5q37 -32 37 -79z" />
    <glyph glyph-name="Scaron" unicode="&#x160;" horiz-adv-x="662" 
d="M616 228q0 -92 -78.5 -170t-183.5 -78q-119 0 -179 70l-46 -56q-13 -14 -20 -14q-15 0 -15 12q0 5 3 14l50 201q4 14 7.5 17t16.5 3q20 0 20 -12l-1 -11q-6 -24 -6 -48q0 -43 18 -72.5t47 -43t55 -19t53 -5.5q75 0 133 56t58 124q0 29 -9.5 50t-28.5 32.5t-32 16t-34 9.5
q-6 2 -28.5 7.5t-28.5 7.5q-49 11 -51 12q-57 15 -87 54.5t-30 89.5q0 86 77.5 157t178.5 71q105 0 153 -70l48 60q8 10 17 10q6 0 9.5 -3t3.5 -6l1 -3q0 -3 -2 -13l-50 -202q-4 -14 -8 -17t-16 -3q-21 0 -21 13l2 16q2 16 2 36q0 75 -38 113q-37 37 -103 37
q-73 0 -129.5 -51t-56.5 -112q0 -43 33 -73q13 -11 28.5 -16.5t64.5 -17.5q54 -11 96 -24q46 -13 76.5 -53t30.5 -96zM676 833l-155 -98q-7 -3 -12 0l-106 98q-6 5 1 13.5t14 4.5l112 -55l140 55q6 2 10 -1t3 -8.5t-7 -8.5z" />
    <glyph glyph-name="scaron" unicode="&#x161;" horiz-adv-x="486" 
d="M454 156q0 -16 -5 -35t-20 -43t-37 -43t-60.5 -32t-87.5 -13q-70 0 -112 26t-42 71q0 30 15 46t37 16q16 0 25.5 -9.5t9.5 -23.5q0 -38 -41 -49q24 -49 110 -49q42 0 73 12t45 30t20.5 33t6.5 28q0 18 -8.5 30.5t-27 20.5t-30.5 11t-37 8q-16 3 -26.5 5.5t-29.5 10.5
t-30.5 18t-20.5 28t-9 41q0 18 8 40t26 47.5t55 42.5t87 17t88 -21.5t38 -65.5q0 -31 -14.5 -42.5t-29.5 -11.5q-32 0 -32 30q0 17 11 28t20 14q-18 41 -82 41q-33 0 -57 -10t-35 -25.5t-15.5 -27.5t-4.5 -21q0 -19 14 -31.5t26 -16t34 -7.5q46 -9 67 -15.5t41 -23.5
q37 -32 37 -79zM547 662l-166 -144q-9 -8 -15 0l-94 144q-6 7 3 14.5t15 1.5l97 -99l149 99q9 6 14 -1t-3 -15z" />
    <glyph glyph-name="Tcedilla" unicode="&#x162;" horiz-adv-x="838" 
d="M878 469q-2 -15 -6.5 -19t-16.5 -4q-21 0 -21 15q0 3 3 19q7 55 7 77q0 55 -29.5 69t-117.5 14q-50 0 -56 -1q-8 -1 -12 -2.5t-8.5 -8.5t-7.5 -21l-132 -529q-4 -15 -4 -21q0 -10 4.5 -13.5t26.5 -5.5q1 0 10 -0.5t21 -1t19 -0.5h15q10 0 15 -0.5t9 -3.5t4 -10
q0 -10 -4.5 -15.5t-8 -6t-9.5 -0.5l-123 3q-2 -14 -11 -48q72 -10 72 -58q0 -29 -19.5 -47.5t-56.5 -26.5t-69 -10.5t-77 -2.5h-30q-14 2 -14 14q0 7 4 10t9 3.5t15 0.5h16q149 0 149 58q0 30 -56 35q-19 0 -19 14q0 6 14 58q-14 0 -39 -1t-45 -1.5t-37 -0.5t-17 14
q0 10 4.5 15t9.5 6t16 1h16q65 0 82 9t24 39l131 524q4 17 4 30q-9 2 -28 2h-74q-38 0 -65 -7t-45 -18t-33.5 -35t-25 -45t-24.5 -62q-7 -19 -10.5 -23t-15.5 -4q-21 0 -21 14q0 7 4 15l65 183q4 13 9 15.5t22 2.5h587q28 0 28 -14q0 -5 -1 -14z" />
    <glyph glyph-name="tcedilla" unicode="&#x163;" horiz-adv-x="398" 
d="M415 144q0 -10 -15 -38.5t-48.5 -63.5t-72.5 -47q-5 -23 -10 -40q72 -10 72 -58q0 -29 -19.5 -47.5t-56.5 -26.5t-69 -10.5t-77 -2.5h-30q-14 2 -14 14q0 7 4 10t9 3.5t15 0.5h16q149 0 149 58q0 30 -56 35q-19 0 -19 14q0 1 2 9.5t5 21.5t5 20q-63 22 -63 88q0 14 5 34
l69 277h-92q-10 0 -15 0.5t-9 3.5t-4 10q0 10 4.5 15t9.5 6t16 1h99l38 152q9 42 44 42q14 0 23 -8.5t9 -21.5q0 -6 -4 -20l-36 -144h92q10 0 15 -0.5t9 -3.5t4 -10q0 -10 -4.5 -15t-9.5 -6t-16 -1h-99l-72 -289q-6 -18 -6 -41q0 -47 34 -47q72 0 126 122q5 11 8 13.5
t15 2.5q20 0 20 -12z" />
    <glyph glyph-name="Tcaron" unicode="&#x164;" horiz-adv-x="838" 
d="M878 469q-2 -15 -6.5 -19t-16.5 -4q-21 0 -21 15q0 3 3 19q7 55 7 77q0 55 -29.5 69t-117.5 14q-50 0 -56 -1q-8 -1 -12 -2.5t-8.5 -8.5t-7.5 -21l-132 -529q-4 -15 -4 -21q0 -10 4.5 -13.5t26.5 -5.5q1 0 10 -0.5t21 -1t19 -0.5h15q10 0 15 -0.5t9 -3.5t4 -10
q0 -10 -4.5 -15.5t-8 -6t-9.5 -0.5q-26 0 -80 2t-80 2t-79 -2t-78 -2q-17 0 -17 14q0 10 4.5 15t9.5 6t16 1h16q65 0 82 9t24 39l131 524q4 17 4 30q-9 2 -28 2h-74q-38 0 -65 -7t-45 -18t-33.5 -35t-25 -45t-24.5 -62q-7 -19 -10.5 -23t-15.5 -4q-21 0 -21 14q0 7 4 15
l65 183q4 13 9 15.5t22 2.5h587q28 0 28 -14q0 -5 -1 -14zM764 833l-155 -98q-7 -3 -12 0l-106 98q-6 5 1 13.5t14 4.5l112 -55l140 55q6 2 10 -1t3 -8.5t-7 -8.5z" />
    <glyph glyph-name="tcaron" unicode="&#x165;" horiz-adv-x="398" 
d="M415 144q0 -8 -12 -31t-33 -51.5t-55.5 -50t-71.5 -21.5q-42 0 -71.5 25t-29.5 69q0 14 5 34l69 277h-92q-10 0 -15 0.5t-9 3.5t-4 10q0 10 4.5 15t9.5 6t16 1h99l38 152q9 42 44 42q14 0 23 -8.5t9 -21.5q0 -6 -4 -20l-36 -144h92q10 0 15 -0.5t9 -3.5t4 -10
q0 -10 -4.5 -15t-9.5 -6t-16 -1h-99l-72 -289q-6 -18 -6 -41q0 -47 34 -47q72 0 126 122q5 11 8 13.5t15 2.5q20 0 20 -12zM485 653q0 -42 -25.5 -87t-52 -70.5t-35.5 -25.5q-4 0 -7.5 4t-3.5 8q0 3 11 12q71 56 88 132q-12 -10 -30 -10q-36 0 -36 34q0 20 15 36t37 16
q19 0 29 -13.5t10 -35.5z" />
    <glyph glyph-name="Utilde" unicode="&#x168;" horiz-adv-x="866" 
d="M941 669q0 -20 -18 -22q-44 -2 -67.5 -17.5t-33.5 -57.5l-88 -355q-22 -87 -105.5 -162t-188.5 -75q-87 0 -146 53.5t-59 140.5q0 28 7 55l95 379q4 14 4 23q0 11 -12.5 13.5t-43.5 2.5q-30 0 -30 14q0 22 21 22q19 0 60.5 -2t61.5 -2t60 2t59 2q15 0 15 -14
q0 -11 -4 -15.5t-9.5 -5.5t-17.5 -1q-47 0 -60 -7t-19 -33l-97 -389q-9 -34 -9 -70q0 -70 39 -101t89 -31q83 0 155.5 62t94.5 151l88 352q4 16 4 26q0 18 -12 28.5t-48 11.5q-19 0 -19 14q0 22 21 22q15 0 49.5 -2t50.5 -2t49.5 2t48.5 2t15 -14zM841 828q0 -10 -59 -57
q-56 -38 -85 -38q-33 0 -57 36q-22 31 -39 31q-32 0 -103 -59q-8 -8 -13 -8q-14 0 -14 14q0 5 3.5 9t21.5 19q78 67 120 67q31 0 58 -37q9 -12 12.5 -16.5t10.5 -9t15 -4.5q31 0 94 53q15 14 22 14q13 0 13 -14z" />
    <glyph glyph-name="utilde" unicode="&#x169;" horiz-adv-x="633" 
d="M651 143q0 -3 -4 -18.5t-13.5 -41t-20.5 -42.5q-31 -51 -79 -51q-28 0 -55.5 15t-38.5 48q-19 -19 -32.5 -30t-39 -22t-54.5 -11q-53 0 -92.5 28.5t-39.5 95.5q0 54 48 179q25 67 25 87q0 33 -25 33q-64 0 -100 -125q-2 -9 -6 -11t-15 -2q-21 0 -21 13q0 9 9 31.5
t25.5 51t46.5 49.5t64 21q37 0 63 -23.5t26 -60.5q0 -19 -11 -49q-59 -151 -59 -209q0 -81 66 -81q46 0 81 38.5t43 69.5l65 262q9 43 45 43q15 0 23.5 -9t8.5 -21q-1 -3 -3 -12l-70 -282q-6 -23 -6 -42q0 -47 32 -47q13 0 24 9t19 28t13 34t12 40q5 19 8.5 23t16.5 4
q21 0 21 -13zM651 639q0 -10 -59 -57q-56 -38 -85 -38q-33 0 -57 36q-22 31 -39 31q-32 0 -103 -59q-8 -8 -13 -8q-14 0 -14 14q0 5 3.5 9t21.5 19q78 67 120 67q31 0 58 -37q9 -12 12.5 -16.5t10.5 -9t15 -4.5q31 0 94 53q15 14 22 14q13 0 13 -14z" />
    <glyph glyph-name="Umacron" unicode="&#x16a;" horiz-adv-x="866" 
d="M941 669q0 -20 -18 -22q-44 -2 -67.5 -17.5t-33.5 -57.5l-88 -355q-22 -87 -105.5 -162t-188.5 -75q-87 0 -146 53.5t-59 140.5q0 28 7 55l95 379q4 14 4 23q0 11 -12.5 13.5t-43.5 2.5q-30 0 -30 14q0 22 21 22q19 0 60.5 -2t61.5 -2t60 2t59 2q15 0 15 -14
q0 -11 -4 -15.5t-9.5 -5.5t-17.5 -1q-47 0 -60 -7t-19 -33l-97 -389q-9 -34 -9 -70q0 -70 39 -101t89 -31q83 0 155.5 62t94.5 151l88 352q4 16 4 26q0 18 -12 28.5t-48 11.5q-19 0 -19 14q0 22 21 22q15 0 49.5 -2t50.5 -2t49.5 2t48.5 2t15 -14zM844 776q0 -11 -4.5 -16
t-10 -6t-16.5 -1h-324q-11 0 -15.5 0.5t-8.5 4t-4 10.5q0 10 4.5 15t9.5 6t16 1h324q29 0 29 -14z" />
    <glyph glyph-name="umacron" unicode="&#x16b;" horiz-adv-x="633" 
d="M651 143q0 -3 -4 -18.5t-13.5 -41t-20.5 -42.5q-31 -51 -79 -51q-28 0 -55.5 15t-38.5 48q-19 -19 -32.5 -30t-39 -22t-54.5 -11q-53 0 -92.5 28.5t-39.5 95.5q0 54 48 179q25 67 25 87q0 33 -25 33q-64 0 -100 -125q-2 -9 -6 -11t-15 -2q-21 0 -21 13q0 9 9 31.5
t25.5 51t46.5 49.5t64 21q37 0 63 -23.5t26 -60.5q0 -19 -11 -49q-59 -151 -59 -209q0 -81 66 -81q46 0 81 38.5t43 69.5l65 262q9 43 45 43q15 0 23.5 -9t8.5 -21q-1 -3 -3 -12l-70 -282q-6 -23 -6 -42q0 -47 32 -47q13 0 24 9t19 28t13 34t12 40q5 19 8.5 23t16.5 4
q21 0 21 -13zM658 603q0 -11 -4.5 -16t-10 -6t-16.5 -1h-324q-11 0 -15.5 0.5t-8.5 4t-4 10.5q0 10 4.5 15t9.5 6t16 1h324q29 0 29 -14z" />
    <glyph glyph-name="Ubreve" unicode="&#x16c;" horiz-adv-x="866" 
d="M941 669q0 -20 -18 -22q-44 -2 -67.5 -17.5t-33.5 -57.5l-88 -355q-22 -87 -105.5 -162t-188.5 -75q-87 0 -146 53.5t-59 140.5q0 28 7 55l95 379q4 14 4 23q0 11 -12.5 13.5t-43.5 2.5q-30 0 -30 14q0 22 21 22q19 0 60.5 -2t61.5 -2t60 2t59 2q15 0 15 -14
q0 -11 -4 -15.5t-9.5 -5.5t-17.5 -1q-47 0 -60 -7t-19 -33l-97 -389q-9 -34 -9 -70q0 -70 39 -101t89 -31q83 0 155.5 62t94.5 151l88 352q4 16 4 26q0 18 -12 28.5t-48 11.5q-19 0 -19 14q0 22 21 22q15 0 49.5 -2t50.5 -2t49.5 2t48.5 2t15 -14zM846 906q0 -15 -14 -41.5
t-38 -54t-63 -47.5t-82 -20q-59 0 -94 37t-35 90q0 50 19 50q14 0 14 -15l-2 -11q-2 -11 -2 -18q0 -40 29 -65t74 -25q17 0 38 5t46 17.5t47.5 38t34.5 60.5q3 13 14 13q5 0 9.5 -4t4.5 -10z" />
    <glyph glyph-name="ubreve" unicode="&#x16d;" horiz-adv-x="633" 
d="M651 143q0 -3 -4 -18.5t-13.5 -41t-20.5 -42.5q-31 -51 -79 -51q-28 0 -55.5 15t-38.5 48q-19 -19 -32.5 -30t-39 -22t-54.5 -11q-53 0 -92.5 28.5t-39.5 95.5q0 54 48 179q25 67 25 87q0 33 -25 33q-64 0 -100 -125q-2 -9 -6 -11t-15 -2q-21 0 -21 13q0 9 9 31.5
t25.5 51t46.5 49.5t64 21q37 0 63 -23.5t26 -60.5q0 -19 -11 -49q-59 -151 -59 -209q0 -81 66 -81q46 0 81 38.5t43 69.5l65 262q9 43 45 43q15 0 23.5 -9t8.5 -21q-1 -3 -3 -12l-70 -282q-6 -23 -6 -42q0 -47 32 -47q13 0 24 9t19 28t13 34t12 40q5 19 8.5 23t16.5 4
q21 0 21 -13zM645 673q0 -15 -14 -41.5t-38 -54t-63 -47.5t-82 -20q-59 0 -94 37t-35 90q0 50 19 50q14 0 14 -15l-2 -11q-2 -11 -2 -18q0 -40 29 -65t74 -25q17 0 38 5t46 17.5t47.5 38t34.5 60.5q3 13 14 13q5 0 9.5 -4t4.5 -10z" />
    <glyph glyph-name="Uring" unicode="&#x16e;" horiz-adv-x="866" 
d="M941 669q0 -20 -18 -22q-44 -2 -67.5 -17.5t-33.5 -57.5l-88 -355q-22 -87 -105.5 -162t-188.5 -75q-87 0 -146 53.5t-59 140.5q0 28 7 55l95 379q4 14 4 23q0 11 -12.5 13.5t-43.5 2.5q-30 0 -30 14q0 22 21 22q19 0 60.5 -2t61.5 -2t60 2t59 2q15 0 15 -14
q0 -11 -4 -15.5t-9.5 -5.5t-17.5 -1q-47 0 -60 -7t-19 -33l-97 -389q-9 -34 -9 -70q0 -70 39 -101t89 -31q83 0 155.5 62t94.5 151l88 352q4 16 4 26q0 18 -12 28.5t-48 11.5q-19 0 -19 14q0 22 21 22q15 0 49.5 -2t50.5 -2t49.5 2t48.5 2t15 -14zM722 821q0 33 -50 33
q-40 0 -56 -19q-20 -21 -20 -55q0 -32 49 -32q40 0 57 18q20 24 20 55zM770 818q0 -40 -40.5 -72.5t-92.5 -32.5q-40 0 -64.5 19.5t-24.5 51.5q0 40 40.5 72.5t91.5 32.5q41 0 65.5 -20.5t24.5 -50.5z" />
    <glyph glyph-name="uring" unicode="&#x16f;" horiz-adv-x="633" 
d="M651 143q0 -3 -4 -18.5t-13.5 -41t-20.5 -42.5q-31 -51 -79 -51q-28 0 -55.5 15t-38.5 48q-19 -19 -32.5 -30t-39 -22t-54.5 -11q-53 0 -92.5 28.5t-39.5 95.5q0 54 48 179q25 67 25 87q0 33 -25 33q-64 0 -100 -125q-2 -9 -6 -11t-15 -2q-21 0 -21 13q0 9 9 31.5
t25.5 51t46.5 49.5t64 21q37 0 63 -23.5t26 -60.5q0 -19 -11 -49q-59 -151 -59 -209q0 -81 66 -81q46 0 81 38.5t43 69.5l65 262q9 43 45 43q15 0 23.5 -9t8.5 -21q-1 -3 -3 -12l-70 -282q-6 -23 -6 -42q0 -47 32 -47q13 0 24 9t19 28t13 34t12 40q5 19 8.5 23t16.5 4
q21 0 21 -13zM532 634q0 33 -50 33q-40 0 -56 -19q-20 -21 -20 -55q0 -32 49 -32q40 0 57 18q20 24 20 55zM580 631q0 -40 -40.5 -72.5t-92.5 -32.5q-40 0 -64.5 19.5t-24.5 51.5q0 40 40.5 72.5t91.5 32.5q41 0 65.5 -20.5t24.5 -50.5z" />
    <glyph glyph-name="Uhungarumlaut" unicode="&#x170;" horiz-adv-x="866" 
d="M941 669q0 -20 -18 -22q-44 -2 -67.5 -17.5t-33.5 -57.5l-88 -355q-22 -87 -105.5 -162t-188.5 -75q-87 0 -146 53.5t-59 140.5q0 28 7 55l95 379q4 14 4 23q0 11 -12.5 13.5t-43.5 2.5q-30 0 -30 14q0 22 21 22q19 0 60.5 -2t61.5 -2t60 2t59 2q15 0 15 -14
q0 -11 -4 -15.5t-9.5 -5.5t-17.5 -1q-47 0 -60 -7t-19 -33l-97 -389q-9 -34 -9 -70q0 -70 39 -101t89 -31q83 0 155.5 62t94.5 151l88 352q4 16 4 26q0 18 -12 28.5t-48 11.5q-19 0 -19 14q0 22 21 22q15 0 49.5 -2t50.5 -2t49.5 2t48.5 2t15 -14zM686 906q0 -15 -20 -36
q-4 -4 -18.5 -19t-18.5 -20q-50 -55 -81 -85q-6 -3 -10 -3q-6 0 -15 6.5t-9 13.5q0 6 7 16l95 136q15 22 37 22q14 0 23.5 -9t9.5 -22zM862 906q0 -15 -20 -36q-4 -4 -18.5 -19t-18.5 -20q-50 -55 -81 -85q-6 -3 -10 -3q-6 0 -15 6.5t-9 13.5q0 6 7 16l95 136q15 22 37 22
q14 0 23.5 -9t9.5 -22z" />
    <glyph glyph-name="uhungarumlaut" unicode="&#x171;" horiz-adv-x="633" 
d="M651 143q0 -3 -4 -18.5t-13.5 -41t-20.5 -42.5q-31 -51 -79 -51q-28 0 -55.5 15t-38.5 48q-19 -19 -32.5 -30t-39 -22t-54.5 -11q-53 0 -92.5 28.5t-39.5 95.5q0 54 48 179q25 67 25 87q0 33 -25 33q-64 0 -100 -125q-2 -9 -6 -11t-15 -2q-21 0 -21 13q0 9 9 31.5
t25.5 51t46.5 49.5t64 21q37 0 63 -23.5t26 -60.5q0 -19 -11 -49q-59 -151 -59 -209q0 -81 66 -81q46 0 81 38.5t43 69.5l65 262q9 43 45 43q15 0 23.5 -9t8.5 -21q-1 -3 -3 -12l-70 -282q-6 -23 -6 -42q0 -47 32 -47q13 0 24 9t19 28t13 34t12 40q5 19 8.5 23t16.5 4
q21 0 21 -13zM482 664q0 -15 -20 -36q-4 -4 -18.5 -19t-18.5 -20q-50 -55 -81 -85q-6 -3 -10 -3q-6 0 -15 6.5t-9 13.5q0 6 7 16l95 136q15 22 37 22q14 0 23.5 -9t9.5 -22zM658 664q0 -15 -20 -36q-4 -4 -18.5 -19t-18.5 -20q-50 -55 -81 -85q-6 -3 -10 -3q-6 0 -15 6.5
t-9 13.5q0 6 7 16l95 136q15 22 37 22q14 0 23.5 -9t9.5 -22z" />
    <glyph glyph-name="Uogonek" unicode="&#x172;" horiz-adv-x="866" 
d="M941 669q0 -20 -18 -22q-44 -2 -67.5 -17.5t-33.5 -57.5l-88 -355q-21 -86 -103.5 -160.5t-185.5 -76.5l-9 -6q-44 -34 -53 -69q-7 -32 17 -50.5t55 -18.5q52 0 89 56q5 8 12.5 5t3.5 -12q-21 -42 -61 -69t-78 -27q-47 0 -73 27t-18 63q12 53 78 103q-76 10 -124.5 62
t-48.5 130q0 28 7 55l95 379q4 14 4 23q0 11 -12.5 13.5t-43.5 2.5q-30 0 -30 14q0 22 21 22q19 0 60.5 -2t61.5 -2t60 2t59 2q15 0 15 -14q0 -11 -4 -15.5t-9.5 -5.5t-17.5 -1q-47 0 -60 -7t-19 -33l-97 -389q-9 -34 -9 -70q0 -70 39 -101t89 -31q83 0 155.5 62t94.5 151
l88 352q4 16 4 26q0 18 -12 28.5t-48 11.5q-19 0 -19 14q0 22 21 22q15 0 49.5 -2t50.5 -2t49.5 2t48.5 2t15 -14z" />
    <glyph glyph-name="uogonek" unicode="&#x173;" horiz-adv-x="633" 
d="M627 -115q-21 -42 -61 -69t-78 -27q-47 0 -73 27t-18 63q12 61 98 118q-42 17 -55 56q-19 -19 -32.5 -30t-39 -22t-54.5 -11q-53 0 -92.5 28.5t-39.5 95.5q0 54 48 179q25 67 25 87q0 33 -25 33q-64 0 -100 -125q-2 -9 -6 -11t-15 -2q-21 0 -21 13q0 9 9 31.5t25.5 51
t46.5 49.5t64 21q37 0 63 -23.5t26 -60.5q0 -19 -11 -49q-59 -151 -59 -209q0 -81 66 -81q46 0 81 38.5t43 69.5l65 262q9 43 45 43q15 0 23.5 -9t8.5 -21q-1 -3 -3 -12l-70 -282q-6 -23 -6 -42q0 -47 32 -47q13 0 24 9t19 28t13 34t12 40q5 19 8.5 23t16.5 4q21 0 21 -13
q0 -3 -4 -18.5t-13.5 -41t-20.5 -42.5q-31 -51 -79 -51h-8l-23 -16q-45 -33 -53 -69q-7 -32 17 -50.5t55 -18.5q52 0 89 56q5 8 12.5 5t3.5 -12z" />
    <glyph glyph-name="Wcircumflex" unicode="&#x174;" horiz-adv-x="1160" 
d="M1268 669q0 -21 -15 -22t-24.5 -3.5t-25 -9.5t-31 -24.5t-31.5 -44.5l-331 -565q-12 -20 -34 -20q-14 0 -19 4.5t-6 22.5l-43 508l-302 -515q-12 -20 -34 -20q-14 0 -19 4.5t-6 22.5l-52 610q-1 13 -3.5 18t-12 8.5t-31.5 3.5q-25 0 -25 14q0 22 20 22q14 0 47 -2t48 -2
q19 0 59 2t58 2q6 0 10 -3.5t5 -7.5v-3q0 -22 -23 -22q-24 0 -39 -4t-19.5 -10t-6.5 -13t0 -14l43 -498l277 473q-6 51 -6 52q-4 14 -44 14q-25 0 -25 14q0 22 20 22q14 0 47 -2t48 -2q19 0 59 2t58 2q6 0 10 -3.5t5 -7.5v-3q0 -22 -24 -22q-65 -1 -65 -28l44 -511l276 470
q13 23 13 36q0 30 -48 33q-18 0 -18 14q0 22 20 22q17 0 53.5 -2t54.5 -2q12 0 37.5 2t36.5 2q6 0 10 -4.5t4 -9.5zM904 752q6 -5 -1 -13.5t-14 -4.5l-112 55l-140 -55q-6 -2 -10 1t-3 8.5t7 8.5l155 98q7 3 12 0z" />
    <glyph glyph-name="wcircumflex" unicode="&#x175;" horiz-adv-x="779" 
d="M793 364q0 -42 -21 -122t-44 -130q-58 -122 -152 -122q-96 0 -131 64q-42 -64 -109 -64q-28 0 -53.5 6t-48.5 20t-37 41t-14 64q0 48 47 172q25 67 25 87q0 33 -25 33q-64 0 -100 -125q-2 -9 -6 -11t-15 -2q-21 0 -21 13q0 9 9 31.5t25.5 51t46.5 49.5t64 21
q37 0 63 -23.5t26 -60.5q0 -20 -10 -45q-58 -149 -58 -204q0 -90 84 -90q36 0 61 33q32 39 33 70q0 22 7 52l53 215q12 43 45 43q15 0 23.5 -9t8.5 -21q0 -7 -19 -78q-5 -23 -31 -123q-17 -69 -17 -96q0 -49 23.5 -67.5t53.5 -18.5q68 0 110 96q15 35 31 92t16 83
q0 46 -29 75q-13 16 -13 27q0 19 16.5 35t35.5 16q4 0 8 -1t11.5 -5t13 -12t10 -23.5t4.5 -36.5zM660 534q6 -7 -3 -14.5t-15 -1.5l-97 99l-149 -99q-9 -6 -14 1t3 15l166 144q9 8 15 0z" />
    <glyph glyph-name="Ycircumflex" unicode="&#x176;" horiz-adv-x="866" 
d="M979 669q0 -9 -4 -14t-7.5 -6t-10.5 -2q-74 -6 -145 -83l-263 -281q-8 -8 -12 -23l-30 -124q-20 -80 -20 -85q0 -15 56 -15q17 0 23.5 -2t6.5 -12q0 -22 -21 -22q-19 0 -59.5 2t-60.5 2q-19 0 -59 -2t-58 -2q-15 0 -15 14q0 10 4 15t9 6t15 1q53 1 64.5 9.5t23.5 56.5
l43 172l-149 346q-6 15 -19 21t-46 6q-10 0 -14.5 0.5t-8.5 4t-4 10.5q0 21 20 21q16 0 51.5 -2t52.5 -2q20 0 61 2t60 2q16 0 16 -14q0 -22 -24 -22q-50 0 -50 -18q0 -3 6 -15l125 -291l241 257q2 2 4 5.5t4 5.5q1 1 3 3.5t4 4.5q16 19 16 32q0 14 -27 16q-16 2 -16 14
q0 22 21 22q15 0 49.5 -2t50.5 -2q13 0 40 2t38 2q7 0 11 -4.5t4 -9.5zM758 752q6 -5 -1 -13.5t-14 -4.5l-112 55l-140 -55q-6 -2 -10 1t-3 8.5t7 8.5l155 98q7 3 12 0z" />
    <glyph glyph-name="ycircumflex" unicode="&#x177;" horiz-adv-x="574" 
d="M482 -7q-19 -74 -89 -135.5t-154 -61.5q-48 0 -78.5 24.5t-30.5 62.5q0 33 17 47t34 14t26.5 -9.5t9.5 -23.5q0 -15 -10.5 -29.5t-30.5 -19.5q14 -38 64 -38q59 0 109 58q20 24 34.5 52.5t20 46t13.5 50.5q-48 -41 -103 -41q-54 0 -93 28.5t-39 95.5q0 56 48 179
q25 67 25 87q0 33 -25 33q-64 0 -100 -125q-2 -9 -6 -11t-15 -2q-21 0 -21 13q0 9 9 31.5t25.5 51t46.5 49.5t64 21q37 0 63 -23.5t26 -60.5q0 -17 -11 -48q-59 -149 -59 -210q0 -81 65 -81q48 0 83 40t41 66l65 264q11 43 45 43q15 0 23.5 -9t8.5 -21q-1 -3 -3 -12z
M557 534q6 -7 -3 -14.5t-15 -1.5l-97 99l-149 -99q-9 -6 -14 1t3 15l166 144q9 8 15 0z" />
    <glyph glyph-name="Ydieresis" unicode="&#x178;" horiz-adv-x="866" 
d="M979 669q0 -9 -4 -14t-7.5 -6t-10.5 -2q-74 -6 -145 -83l-263 -281q-8 -8 -12 -23l-30 -124q-20 -80 -20 -85q0 -15 56 -15q17 0 23.5 -2t6.5 -12q0 -22 -21 -22q-19 0 -59.5 2t-60.5 2q-19 0 -59 -2t-58 -2q-15 0 -15 14q0 10 4 15t9 6t15 1q53 1 64.5 9.5t23.5 56.5
l43 172l-149 346q-6 15 -19 21t-46 6q-10 0 -14.5 0.5t-8.5 4t-4 10.5q0 21 20 21q16 0 51.5 -2t52.5 -2q20 0 61 2t60 2q16 0 16 -14q0 -22 -24 -22q-50 0 -50 -18q0 -3 6 -15l125 -291l241 257q2 2 4 5.5t4 5.5q1 1 3 3.5t4 4.5q16 19 16 32q0 14 -27 16q-16 2 -16 14
q0 22 21 22q15 0 49.5 -2t50.5 -2q13 0 40 2t38 2q7 0 11 -4.5t4 -9.5zM570 795q0 -24 -19 -43t-43 -19q-20 0 -32 12.5t-11 30.5q-1 22 18 41.5t44 19.5q19 0 31.5 -12t11.5 -30zM796 795q0 -24 -19 -43t-43 -19q-20 0 -32 12.5t-11 30.5q-1 22 18 41.5t44 19.5
q19 0 31.5 -12t11.5 -30z" />
    <glyph glyph-name="Zacute" unicode="&#x179;" horiz-adv-x="721" 
d="M694 259q0 -3 -4 -13l-73 -228q-4 -13 -9 -15.5t-22 -2.5h-462q-25 0 -25 11q0 13 16 32l568 604h-167q-108 0 -160.5 -42t-84.5 -133q-4 -13 -7.5 -16t-15.5 -3q-21 0 -21 14q0 8 4 18l56 178q5 14 9 17t22 3h447q25 0 25 -11q0 -14 -13 -27l-568 -605h176
q117 0 171.5 47.5t90.5 157.5q7 20 10.5 24t15.5 4q21 0 21 -14zM733 866q-1 -9 -6.5 -15.5t-10.5 -9.5t-15 -7l-193 -87q-9 -4 -17 -4q-7 1 -12 11.5t-4 15.5q1 6 14 14l188 112q9 9 24 9q17 0 26 -11.5t6 -27.5z" />
    <glyph glyph-name="zacute" unicode="&#x17a;" horiz-adv-x="486" 
d="M504 145q0 -36 -51.5 -95.5t-120.5 -59.5q-23 0 -38.5 9.5t-40.5 33.5q-27 28 -51 28q-43 0 -83 -59q-3 -5 -4 -6.5t-4 -3.5t-5.5 -2h-8.5q-21 0 -21 12q0 9 28.5 46.5t60.5 69.5q17 17 38.5 36.5t43.5 39t27 23.5q85 71 138 125q-26 2 -62 12q-46 14 -70 14
q-64 0 -82 -45q-4 -11 -21 -11q-21 0 -21 12q0 29 40 73t94 44q36 0 74 -40q31 -31 53 -31q15 0 28 11t35 46q6 10 9 12t15 2q21 0 21 -12q0 -5 -9 -21.5t-59.5 -71.5t-134.5 -126q-104 -87 -133 -121q43 0 83 -12q50 -14 70 -14q36 0 71 21t48 59q3 10 6.5 12.5t15.5 2.5
q21 0 21 -13zM544 663q0 -20 -26 -37l-175 -119q-10 -7 -16 -7q-8 0 -14.5 9t-6.5 15q0 5 12 16l165 143q13 13 29 13q12 0 22 -9t10 -24z" />
    <glyph glyph-name="Zdotaccent" unicode="&#x17b;" horiz-adv-x="721" 
d="M694 259q0 -3 -4 -13l-73 -228q-4 -13 -9 -15.5t-22 -2.5h-462q-25 0 -25 11q0 13 16 32l568 604h-167q-108 0 -160.5 -42t-84.5 -133q-4 -13 -7.5 -16t-15.5 -3q-21 0 -21 14q0 8 4 18l56 178q5 14 9 17t22 3h447q25 0 25 -11q0 -14 -13 -27l-568 -605h176
q117 0 171.5 47.5t90.5 157.5q7 20 10.5 24t15.5 4q21 0 21 -14zM621 821q0 -26 -21.5 -47t-48.5 -21q-21 0 -34.5 14t-13.5 33q0 25 21 46.5t49 21.5q21 0 34.5 -13t13.5 -34z" />
    <glyph glyph-name="zdotaccent" unicode="&#x17c;" horiz-adv-x="486" 
d="M504 145q0 -36 -51.5 -95.5t-120.5 -59.5q-23 0 -38.5 9.5t-40.5 33.5q-27 28 -51 28q-43 0 -83 -59q-3 -5 -4 -6.5t-4 -3.5t-5.5 -2h-8.5q-21 0 -21 12q0 9 28.5 46.5t60.5 69.5q17 17 38.5 36.5t43.5 39t27 23.5q85 71 138 125q-26 2 -62 12q-46 14 -70 14
q-64 0 -82 -45q-4 -11 -21 -11q-21 0 -21 12q0 29 40 73t94 44q36 0 74 -40q31 -31 53 -31q15 0 28 11t35 46q6 10 9 12t15 2q21 0 21 -12q0 -5 -9 -21.5t-59.5 -71.5t-134.5 -126q-104 -87 -133 -121q43 0 83 -12q50 -14 70 -14q36 0 71 21t48 59q3 10 6.5 12.5t15.5 2.5
q21 0 21 -13zM451 609q0 -26 -21.5 -47t-48.5 -21q-21 0 -34.5 14t-13.5 33q0 25 21 46.5t49 21.5q21 0 34.5 -13t13.5 -34z" />
    <glyph glyph-name="Zcaron" unicode="&#x17d;" horiz-adv-x="721" 
d="M694 259q0 -3 -4 -13l-73 -228q-4 -13 -9 -15.5t-22 -2.5h-462q-25 0 -25 11q0 13 16 32l568 604h-167q-108 0 -160.5 -42t-84.5 -133q-4 -13 -7.5 -16t-15.5 -3q-21 0 -21 14q0 8 4 18l56 178q5 14 9 17t22 3h447q25 0 25 -11q0 -14 -13 -27l-568 -605h176
q117 0 171.5 47.5t90.5 157.5q7 20 10.5 24t15.5 4q21 0 21 -14zM705 833l-155 -98q-7 -3 -12 0l-106 98q-6 5 1 13.5t14 4.5l112 -55l140 55q6 2 10 -1t3 -8.5t-7 -8.5z" />
    <glyph glyph-name="zcaron" unicode="&#x17e;" horiz-adv-x="486" 
d="M504 145q0 -36 -51.5 -95.5t-120.5 -59.5q-23 0 -38.5 9.5t-40.5 33.5q-27 28 -51 28q-43 0 -83 -59q-3 -5 -4 -6.5t-4 -3.5t-5.5 -2h-8.5q-21 0 -21 12q0 9 28.5 46.5t60.5 69.5q17 17 38.5 36.5t43.5 39t27 23.5q85 71 138 125q-26 2 -62 12q-46 14 -70 14
q-64 0 -82 -45q-4 -11 -21 -11q-21 0 -21 12q0 29 40 73t94 44q36 0 74 -40q31 -31 53 -31q15 0 28 11t35 46q6 10 9 12t15 2q21 0 21 -12q0 -5 -9 -21.5t-59.5 -71.5t-134.5 -126q-104 -87 -133 -121q43 0 83 -12q50 -14 70 -14q36 0 71 21t48 59q3 10 6.5 12.5t15.5 2.5
q21 0 21 -13zM547 662l-166 -144q-9 -8 -15 0l-94 144q-6 7 3 14.5t15 1.5l97 -99l149 99q9 6 14 -1t-3 -15z" />
    <glyph glyph-name="longs" unicode="&#x17f;" horiz-adv-x="368" 
d="M502 637q-14 -55 -51 -55q-14 0 -27 7.5t-8 26.5q9 36 32 46q-17 14 -44 14q-17 0 -29.5 -16t-17.5 -32.5t-13 -48.5l-92 -505l-26 -102q-6 -25 -15.5 -49t-26.5 -56t-44.5 -51.5t-61.5 -19.5q-38 0 -66.5 17.5t-28.5 49.5q14 55 51 55q14 0 27 -7.5t8 -26.5l-1 -4
q0 -3 -0.5 -6.5t-3 -8.5t-5.5 -9.5t-8.5 -9t-13.5 -7.5q8 -7 18.5 -10.5t16.5 -4.5h7q9 0 14.5 1.5t15.5 12.5t18.5 32.5t20 64.5t22.5 105l65 355h-71q-8 0 -12 0.5t-9 1.5t-6.5 4t-0.5 8q3 11 7 15.5t8 5.5t15 1h69l31 124q17 67 38 96q36 53 100 53q41 0 69.5 -18
t28.5 -49z" />
    <glyph glyph-name="Ereversed" unicode="&#x18e;" horiz-adv-x="793" 
d="M888 657q-7 -14 -37 -14q-21 0 -31 -0.5t-19.5 -4t-13.5 -11.5q-5 -10 -7 -23l-131 -524q-7 -28 1.5 -36t55.5 -8q13 0 17.5 -1t8 -5.5t-4.5 -15.5q-7 -14 -35 -14h-534q-17 0 -20.5 2.5t-2.5 14.5l14 215q0 11 2 17q7 14 28 14q11 0 14 -3t0 -33q-2 -55 2 -87
t20.5 -57.5t51.5 -36t93 -10.5h161q19 0 29 2q6 12 9 27l68 270h-106q-53 0 -73 -10t-32 -34q-12 -29 -16 -47l-3 -12q-7 -14 -28 -14q-12 0 -14.5 4t1.5 16l55 223q4 11 5 13q7 14 28 14q12 0 13.5 -4t-2.5 -20q-13 -56 2.5 -74.5t79.5 -18.5h99l60 237q6 25 0.5 30
t-31.5 5h-153q-88 0 -131 -23.5t-75 -86.5l-28 -67q-9 -17 -30 -17q-13 0 -14.5 5.5t4.5 18.5l71 180q7 18 14 22t26 4h519q17 0 21 -2.5t-1 -19.5z" />
    <glyph glyph-name="florin" unicode="&#x192;" horiz-adv-x="368" 
d="M502 637q0 -23 -14.5 -39t-36.5 -16q-35 0 -35 34q0 33 32 46q-17 14 -44 14q-19 0 -31.5 -16t-17 -32.5t-11.5 -48.5q-11 -47 -28 -148h89q29 0 29 -14q0 -10 -4.5 -15t-10 -6t-16.5 -1h-94l-59 -321q-6 -34 -24 -102q-48 -176 -148 -176q-38 0 -66.5 17.5t-28.5 49.5
q0 23 14.5 39t36.5 16q35 0 35 -34q0 -32 -32 -45q17 -15 42 -15q9 0 14.5 1.5t15.5 12.5t18.5 32.5t20 64.5t22.5 105l65 355h-71q-10 0 -15 0.5t-9 3.5t-4 10q0 10 4.5 15t9.5 6t16 1h76l24 124q29 149 138 149q41 0 69.5 -18t28.5 -49z" />
    <glyph glyph-name="Ohorn" unicode="&#x1a0;" horiz-adv-x="897" 
d="M882 338q-36 -148 -166 -253q-129 -105 -274 -105t-222 105q-51 69 -51 165q0 41 11 88q38 151 168 258q129 107 275 107q99 0 171 -55q37 0 69 35h-3q-22 0 -35 13t-13 33q0 26 20.5 47.5t49.5 21.5q21 0 33.5 -14.5t12.5 -36.5q0 -6 -2 -20q-10 -38 -37.5 -68.5
t-62.5 -40.5q11 -11 18 -22q50 -71 50 -166q0 -46 -12 -92zM790 355q14 58 14 109q0 68 -27 116q-23 43 -65.5 67.5t-96.5 24.5q-113 0 -208 -92q-90 -85 -125 -225q-17 -65 -17 -125q0 -68 24 -119q23 -45 65 -71.5t96 -26.5q112 0 210 98q92 93 130 244z" />
    <glyph glyph-name="ohorn" unicode="&#x1a1;" 
d="M655 474q-10 -39 -38.5 -69.5t-64.5 -39.5q27 -42 27 -96q0 -27 -8 -57q-22 -91 -102 -157q-79 -65 -168 -65q-92 0 -140 68q-32 44 -32 104q0 23 7 56q23 91 102 157q81 65 169 65q73 0 120 -45q38 3 66 36l-3 -1q-22 0 -35 13t-14 33q0 26 20.5 47.5t49.5 22.5
q21 -1 34 -15.5t13 -36.5q0 -10 -3 -20zM487 218q13 54 13 86q0 33 -11 55q-22 52 -83 54q-64 -2 -116 -57q-45 -49 -69 -144q-13 -52 -13 -86q0 -31 10 -54q24 -54 84 -54q61 0 115 57q46 47 70 143z" />
    <glyph glyph-name="Uhorn" unicode="&#x1af;" horiz-adv-x="866" 
d="M969 724q-11 -47 -50.5 -81t-88.5 -40l-95 -379q-25 -101 -110 -172q-88 -72 -183 -72q-108 0 -167 74q-41 50 -41 120q0 24 7 57l97 386q3 11 3 17l-2 7q-11 6 -70 6h-1l-3 1q-11 2 -11 13l1 4l2 8q2 10 13 10h4l123 -3l122 3h2q10 -3 10 -14v-3l-2 -8q-2 -11 -14 -11
q-59 0 -75 -6q-10 -5 -18 -30l-96 -387q-11 -42 -11 -76q0 -42 18 -74q33 -58 111 -58q86 0 159 62q74 61 97 153l90 358q2 7 2 19q0 17 -8 25q-15 14 -56 14h-1l-3 1q-10 2 -10 13v4l2 8q3 10 13 10h4q48 -3 98 -3q4 1 5 3q10 -3 10 -14v-3l-6 -25q41 9 69 42h-4
q-23 0 -35.5 13t-12.5 33q0 27 20 48t50 21q21 0 33 -15t12 -37q0 -12 -3 -22z" />
    <glyph glyph-name="uhorn" unicode="&#x1b0;" horiz-adv-x="632" 
d="M649 140q-39 -150 -115 -150q-34 0 -60 17t-36 46q-55 -63 -123 -63q-80 0 -114 50q-19 31 -19 73q0 28 8 63q12 48 53 151q11 30 11 53q0 33 -23 33q-33 0 -60 -36t-41 -93q-4 -9 -12 -9h-18h-3q-9 4 -9 12l1 3q16 63 55.5 106.5t87.5 43.5q39 0 64.5 -23.5t25.5 -60.5
q0 -16 -7 -37q-42 -106 -52 -149q-11 -42 -11 -72q0 -23 8 -44q13 -36 56 -36q71 0 121 93l71 286q9 33 43 33q13 0 22 -7.5t9 -21.5q0 -6 -1 -8q37 11 63 37h-2q-23 0 -35.5 13t-12.5 33q0 26 20 47.5t49 22.5q22 -1 34 -15.5t12 -37.5q0 -11 -3 -22q-11 -43 -48.5 -75.5
t-85.5 -42.5l-63 -248q-5 -23 -5 -41q0 -46 31 -46q24 0 39.5 29.5t33.5 98.5q2 9 11 9h18h3q9 -2 9 -12v-3z" />
    <glyph glyph-name="Acaron" unicode="&#x1cd;" horiz-adv-x="866" 
d="M797 22q0 -22 -21 -22q-16 0 -51.5 2t-52.5 2q-19 0 -59.5 -2t-58.5 -2q-6 0 -10 3.5t-4 6.5l-1 4q0 10 4 15t9 6t15 1q50 0 60 25l-21 170h-275q-36 -60 -52 -84q-42 -65 -42 -82q0 -27 39 -29q16 0 16 -14q0 -22 -20 -22q-15 0 -49 2t-50 2q-13 0 -41.5 -2t-40.5 -2
q-7 0 -11 4.5t-4 9.5q0 20 23 22q36 3 62.5 20t54.5 62l359 574q8 13 14 17t21 4q16 0 20 -4.5t6 -22.5l77 -617q2 -21 10.5 -27t44.5 -6q29 0 29 -14zM601 267l-41 330l-206 -330h247zM778 833l-155 -98q-7 -3 -12 0l-106 98q-6 5 1 13.5t14 4.5l112 -55l140 55q6 2 10 -1
t3 -8.5t-7 -8.5z" />
    <glyph glyph-name="acaron" unicode="&#x1ce;" 
d="M611 143q0 -3 -4 -18.5t-13.5 -41t-20.5 -42.5q-31 -51 -79 -51q-31 0 -59 17.5t-37 50.5q-65 -68 -137 -68q-59 0 -100.5 43.5t-41.5 120.5q0 109 78.5 198t170.5 89q64 0 98 -56q12 37 44 37q31 0 31 -30q0 -6 -4 -21l-66 -264q-6 -23 -6 -42q0 -47 32 -47q13 0 24 9
t19 28t13 34t12 40q5 19 8.5 23t16.5 4q21 0 21 -13zM446 302q3 10 3 14q0 11 -5 30.5t-25.5 43t-50.5 23.5q-31 0 -63.5 -25.5t-56.5 -68.5q-20 -39 -36.5 -105.5t-16.5 -100.5q0 -41 18 -68t51 -27q40 0 87 41q44 42 53 77zM606 662l-166 -144q-9 -8 -15 0l-94 144
q-6 7 3 14.5t15 1.5l97 -99l149 99q9 6 14 -1t-3 -15z" />
    <glyph glyph-name="Icaron" unicode="&#x1cf;" horiz-adv-x="455" 
d="M536 668q0 -10 -4.5 -14.5t-10 -5.5t-17.5 -1q-36 0 -52.5 -4t-21 -11t-9.5 -26l-133 -533q-4 -14 -4 -20t1 -8t6 -4t16 -3l38 -2q11 0 15.5 -0.5t9 -3.5t4.5 -10q0 -22 -21 -22q-20 0 -62.5 2t-63.5 2q-20 0 -62 -2t-62 -2q-6 0 -10 3.5t-5 6.5v4q0 11 4.5 15.5t10 5.5
t18.5 1q49 0 62.5 7.5t19.5 33.5l133 531q4 14 4 23q0 11 -14 13.5t-47 2.5q-30 0 -30 14q0 22 22 22q20 0 62 -2t63 -2q20 0 62.5 2t61.5 2q16 0 16 -15zM572 833l-155 -98q-7 -3 -12 0l-106 98q-6 5 1 13.5t14 4.5l112 -55l140 55q6 2 10 -1t3 -8.5t-7 -8.5z" />
    <glyph glyph-name="icaron" unicode="&#x1d0;" horiz-adv-x="368" 
d="M386 143q0 -8 -9 -31t-25.5 -51t-46 -49.5t-64.5 -21.5q-39 0 -64 24.5t-25 59.5q0 18 24 80l35 93l27 69q16 42 16 63q0 34 -25 34q-63 0 -99 -125q-2 -9 -6 -11t-15 -2q-21 0 -21 13q0 14 14.5 48t50 69.5t79.5 35.5q40 0 65 -24.5t25 -59.5q0 -16 -6 -33l-66 -173
q-30 -74 -30 -99q0 -34 24 -34q34 0 59.5 36t37.5 81q4 14 7.5 17.5t16.5 3.5q21 0 21 -13zM489 662l-166 -144q-9 -8 -15 0l-94 144q-6 7 3 14.5t15 1.5l97 -99l149 99q9 6 14 -1t-3 -15z" />
    <glyph glyph-name="Ocaron" unicode="&#x1d1;" horiz-adv-x="897" 
d="M895 429q0 -113 -65.5 -218t-170.5 -168t-216 -63q-122 0 -198 76t-76 194q0 109 64 214.5t170.5 172t219.5 66.5q119 0 195.5 -75t76.5 -199zM805 462q0 56 -17 98t-46 65.5t-61 34.5t-66 11q-93 0 -174 -61.5t-128.5 -163.5t-47.5 -216q0 -110 55 -163.5t131 -53.5
q73 0 140.5 42t113 107.5t73 145t27.5 154.5zM793 833l-155 -98q-7 -3 -12 0l-106 98q-6 5 1 13.5t14 4.5l112 -55l140 55q6 2 10 -1t3 -8.5t-7 -8.5z" />
    <glyph glyph-name="ocaron" unicode="&#x1d2;" 
d="M579 269q0 -105 -85.5 -192t-192.5 -87q-75 0 -123 48t-48 124q0 106 85.5 192.5t192.5 86.5q76 0 123.5 -49t47.5 -123zM500 303q0 59 -29 84.5t-64 25.5q-34 0 -69 -19.5t-61 -54.5q-32 -42 -50 -106t-18 -105q0 -34 10 -57.5t26.5 -34t30 -14.5t26.5 -4q39 0 77.5 25
t62.5 62q29 45 43.5 104.5t14.5 93.5zM606 662l-166 -144q-9 -8 -15 0l-94 144q-6 7 3 14.5t15 1.5l97 -99l149 99q9 6 14 -1t-3 -15z" />
    <glyph glyph-name="Ucaron" unicode="&#x1d3;" horiz-adv-x="866" 
d="M941 669q0 -20 -18 -22q-44 -2 -67.5 -17.5t-33.5 -57.5l-88 -355q-22 -87 -105.5 -162t-188.5 -75q-87 0 -146 53.5t-59 140.5q0 28 7 55l95 379q4 14 4 23q0 11 -12.5 13.5t-43.5 2.5q-30 0 -30 14q0 22 21 22q19 0 60.5 -2t61.5 -2t60 2t59 2q15 0 15 -14
q0 -11 -4 -15.5t-9.5 -5.5t-17.5 -1q-47 0 -60 -7t-19 -33l-97 -389q-9 -34 -9 -70q0 -70 39 -101t89 -31q83 0 155.5 62t94.5 151l88 352q4 16 4 26q0 18 -12 28.5t-48 11.5q-19 0 -19 14q0 22 21 22q15 0 49.5 -2t50.5 -2t49.5 2t48.5 2t15 -14zM804 833l-155 -98
q-7 -3 -12 0l-106 98q-6 5 1 13.5t14 4.5l112 -55l140 55q6 2 10 -1t3 -8.5t-7 -8.5z" />
    </font>
</defs>
</svg>
