<?xml version="1.0" standalone="no"?>
<!DOCTYPE svg PUBLIC "-//W3C//DTD SVG 1.1//EN" "http://www.w3.org/Graphics/SVG/1.1/DTD/svg11.dtd" >
<svg>
<metadata>
Created by FontForge 20120731 at Mon Jul 14 22:19:45 2014
 By tom,,,
Copyright 2003, 2009 B. Jackowski and J. M. Nowacki (on behalf of TeX users groups). This work is released under the GUST Font License --  see http://tug.org/fonts/licenses/GUST-FONT-LICENSE.txt for details.
</metadata>
<defs>
<font id="lmroman8-bold" horiz-adv-x="613" >
  <font-face 
    font-family="LM Roman 8"
    font-weight="700"
    font-stretch="normal"
    units-per-em="1000"
    panose-1="0 0 8 0 0 0 0 0 0 0"
    ascent="806"
    descent="-194"
    x-height="444"
    cap-height="686"
    bbox="-519 -307 1704 1136"
    underline-thickness="54"
    underline-position="-63"
    unicode-range="U+0020-FB04"
  />
<missing-glyph horiz-adv-x="280" 
 />
    <glyph glyph-name="I_J" unicode="IJ" horiz-adv-x="1044" 
d="M417 0q-37 3 -188 3q-150 0 -187 -3v52h113v582h-113v52q37 -3 188 -3q150 0 187 3v-52h-113v-582h113v-52zM969 634h-81v-484q0 -77 -66 -120.5t-176 -43.5q-97 0 -152.5 34.5t-55.5 93.5q0 36 23 58.5t58 22.5t58 -22.5t23 -58.5q0 -47 -39 -70q36 -16 80 -16
q47 0 75.5 29.5t28.5 91.5v485h-140v52q37 -3 196 -3l168 3v-52z" />
    <glyph glyph-name="i_j" unicode="ij" horiz-adv-x="681" 
d="M251 605q0 -33 -23.5 -56.5t-57.5 -23.5q-32 0 -56 23.5t-24 56.5t23.5 56.5t57.5 23.5q32 0 56 -23.5t24 -56.5zM594 605q0 -33 -23.5 -56.5t-57.5 -23.5q-32 0 -56 23.5t-24 56.5t23.5 56.5t57.5 23.5q32 0 56 -23.5t24 -56.5zM300 0q-49 3 -119 3q-64 0 -122 -3v52h66
v301q0 28 -9.5 33t-53.5 5v52l179 8v-399h59v-52zM593 -38q0 -78 -59 -120.5t-134 -42.5q-68 0 -110.5 25.5t-42.5 71.5q0 30 19 49t49 19q29 0 48 -19t19 -48q0 -26 -17 -46l-2 -4q0 -6 35 -6q41 0 60 36t19 84v391q0 13 -0.5 18.5t-5 10.5t-14.5 7q-13 3 -53 3v52l189 8
v-489z" />
    <glyph glyph-name="f_k" unicode="fk" horiz-adv-x="1014" 
d="M966 0q-32 3 -109 3q-62 0 -120 -3v52q23 0 23 7q0 3 -57.5 68.5t-76.5 85.5l-58 -43v-118h66v-52q-58 3 -124 3t-124 -3v52h66v340h-224v-340h66v-52q-58 3 -124 3t-124 -3v52h66v340h-79v52h79v96q0 57 44 95t105 52t135 14q49 0 80 -8q14 -4 20 -4q23 0 50 3l4 1
q3 1 5.5 1.5t5.5 1t5 0t2 -1.5v-454l195 143q-6 9 -22 9v52q55 -3 111 -3q52 0 87 3v-52q-32 0 -50 -2t-24 -5t-15 -9l-140 -102l180 -205q9 -11 19 -14t38 -3h19v-52zM452 444v112q-26 18 -26 53q0 22 12 40l3 5q0 5 -50 5q-28 0 -53.5 -4.5t-53.5 -16t-45 -37t-17 -62.5
v-95h230z" />
    <glyph glyph-name="f_f" unicode="ff" horiz-adv-x="715" 
d="M795 609q0 -31 -20.5 -48.5t-45.5 -17.5q-26 0 -46 17.5t-20 48.5q0 27 16 44l2 4q-10 2 -13 2q-51 0 -79 -32q-27 -30 -27 -85v-98h129v-52h-123v-340h82v-52l-136 3q-70 0 -128 -3v52h66v340h-224v-340h66v-52q-58 3 -124 3t-124 -3v52h66v340h-79v52h79v96
q0 44 25.5 77t68.5 50.5t90 25.5t98 8q85 0 131 -35q59 35 146 35q58 0 91 -27t33 -65zM452 444v99q-26 18 -26 53q0 36 25 54q-28 9 -63 9q-75 0 -120.5 -29.5t-45.5 -90.5v-95h230z" />
    <glyph glyph-name="f_i" unicode="fi" horiz-adv-x="681" 
d="M634 0q-58 3 -124 3t-124 -3v52h66v305q0 25 -5.5 30t-25.5 5h-193v-340h66v-52q-58 3 -124 3t-124 -3v52h66v340h-79v52h79v96q0 45 26.5 78t70.5 50t91 25t97 8q80 0 123.5 -36t43.5 -85q0 -30 -19 -49.5t-50 -19.5q-30 0 -49.5 19t-19.5 50q0 45 38 63q-31 16 -73 16
q-70 0 -119.5 -28.5t-49.5 -91.5v-95h164v4l182 6v-402h66v-52z" />
    <glyph glyph-name="f_l" unicode="fl" horiz-adv-x="681" 
d="M634 0q-58 3 -124 3t-124 -3v52h66v340h-224v-340h66v-52q-58 3 -124 3t-124 -3v52h66v340h-79v52h79v96q0 57 44 95t105 52t135 14q49 0 80 -8q14 -4 20 -4q23 0 50 3q8 2 22 2v-642h66v-52zM452 444v112q-26 18 -26 53q0 22 12 40l3 5q0 5 -50 5q-28 0 -53.5 -4.5
t-53.5 -16t-45 -37t-17 -62.5v-95h230z" />
    <glyph glyph-name="f_f_i" unicode="&#xfb00;i" horiz-adv-x="1021" 
d="M974 0q-58 3 -124 3t-124 -3v52h66v305q0 25 -5.5 30t-25.5 5h-193v-340h66v-52q-58 3 -124 3t-124 -3v52h66v340h-224v-340h66v-52q-58 3 -124 3t-124 -3v52h66v340h-79v52h79v96q0 45 26 78t69.5 50t89.5 25t96 8q86 0 132 -45q83 45 212 45q80 0 123.5 -36t43.5 -85
q0 -30 -19 -49.5t-50 -19.5q-30 0 -49.5 19t-19.5 50q0 45 38 63q-31 16 -73 16q-70 0 -119.5 -28.5t-49.5 -91.5v-95h164v4l182 6v-402h66v-52zM459 644q-32 15 -71 15q-73 0 -119.5 -29.5t-46.5 -90.5v-95h230v77q-33 19 -33 59q0 44 40 64z" />
    <glyph glyph-name="f_f_l" unicode="ffl" horiz-adv-x="1021" 
d="M974 0q-58 3 -124 3t-124 -3v52h66v340h-224v-340h66v-52q-58 3 -124 3t-124 -3v52h66v340h-224v-340h66v-52q-58 3 -124 3t-124 -3v52h66v340h-79v52h79v96q0 44 25.5 77t68.5 50.5t90 25.5t98 8q94 0 137 -41q78 41 205 41q49 0 80 -8q14 -4 20 -4q23 0 50 3q8 2 22 2
v-642h66v-52zM452 444v100q-26 18 -26 52t26 54q-27 9 -63 9q-72 0 -119 -29q-48 -30 -48 -91v-95h230zM792 444v112q-26 18 -26 53q0 22 12 40l3 5q0 5 -50 5q-28 0 -53.5 -4.5t-53.5 -16t-45 -37t-17 -62.5v-95h230z" />
    <glyph glyph-name=".notdef" horiz-adv-x="280" 
 />
    <glyph glyph-name=".null" horiz-adv-x="0" 
 />
    <glyph glyph-name="nonmarkingreturn" horiz-adv-x="333" 
 />
    <glyph glyph-name="space" unicode=" " horiz-adv-x="408" 
 />
    <glyph glyph-name="exclam" unicode="!" horiz-adv-x="373" 
d="M266 634l-3 -26l-48 -352q-2 -17 -6.5 -22t-22.5 -5t-22.5 5t-6.5 23l-48 351q-1 6 -1.5 11t-1 7.5t-0.5 4.5v3q0 34 25 54t55 20t55 -19.5t25 -54.5zM266 80q0 -33 -23.5 -56.5t-56.5 -23.5t-56.5 23.5t-23.5 56.5t23.5 56.5t56.5 23.5t56.5 -23.5t23.5 -56.5z" />
    <glyph glyph-name="quotedbl" unicode="&#x22;" horiz-adv-x="518" 
d="M231 639l-33 -219h-56l-33 219q-4 24 15 42.5t46 18.5t46 -18.5t15 -42.5zM409 639l-33 -219h-56l-33 219q-4 24 15 42.5t46 18.5t46 -18.5t15 -42.5z" />
    <glyph glyph-name="numbersign" unicode="#" horiz-adv-x="1021" 
d="M952 129q0 -34 -50 -34h-272l-85 -259q-9 -30 -35 -30q-14 0 -24 10t-10 24q0 5 5 19l78 236h-201l-85 -259q-9 -30 -35 -30q-14 0 -24 10t-10 24q0 5 5 19l78 236h-169q-50 0 -50 34t44 34h198l56 174h-254q-44 0 -44 34t50 34h272l85 259q9 30 35 30q14 0 24 -10
t10 -24q0 -5 -5 -19l-78 -236h201l85 259q9 30 35 30q14 0 24 -10t10 -24q0 -5 -5 -19l-78 -236h169q50 0 50 -34t-44 -34h-198l-56 -174h254q44 0 44 -34zM638 337h-200l-56 -174h200z" />
    <glyph glyph-name="dollar" unicode="$" 
d="M544 211q0 -34 -10 -66.5t-32.5 -66t-66 -56.5t-103.5 -28v-50h-52v50q-111 8 -161.5 64.5t-50.5 127.5q0 35 20 53t48 18q29 0 48 -19t19 -48t-18.5 -47.5t-44.5 -20.5q36 -67 140 -76v244q-31 6 -48 10.5t-46 18.5t-53 35q-65 61 -65 143q0 76 52.5 135.5t159.5 67.5
v50h52v-50q101 -5 156.5 -54t55.5 -125q0 -37 -22 -54t-46 -17q-26 0 -46.5 18t-20.5 50q0 24 14.5 43t46.5 24q-33 54 -138 63v-217q62 -10 106.5 -36.5t66 -60.5t30.5 -64t9 -59zM280 442v206q-60 -5 -93 -33.5t-33 -69.5q0 -35 31.5 -63.5t94.5 -39.5zM458 162
q0 45 -35.5 77t-90.5 40v-233q59 6 92.5 38t33.5 78z" />
    <glyph glyph-name="percent" unicode="%" horiz-adv-x="1021" 
d="M850 716q0 -11 -12 -26l-604 -730q-14 -16 -30 -16q-14 0 -24 10t-10 24q0 13 14 29l508 613q-56 -19 -115 -19q-91 0 -183 41q14 -38 14 -93q0 -98 -45.5 -150t-112.5 -52q-76 0 -129 52.5t-53 149.5q0 94 52.5 147.5t129.5 53.5q48 0 89 -29q114 -78 237 -78
q130 0 209 89q16 18 31 18q14 0 24 -10t10 -24zM952 145q0 -96 -45 -148.5t-113 -52.5q-76 0 -129 52.5t-53 149.5q0 94 52.5 147.5t129.5 53.5q67 0 112.5 -52t45.5 -150zM352 549q0 82 -30.5 120.5t-68.5 38.5q-21 0 -36 -11.5t-22 -26t-11 -40t-4.5 -40.5t-0.5 -42
q0 -26 0.5 -41t4.5 -40.5t11 -40t22 -26t36 -11.5q37 0 68 37t31 123zM896 145q0 85 -31 122.5t-68 37.5q-21 0 -36 -11.5t-22 -26t-11 -40t-4.5 -40.5t-0.5 -41t0.5 -41t4.5 -41t11 -40.5t22 -26t36 -11.5q38 0 68.5 38t30.5 121z" />
    <glyph glyph-name="ampersand" unicode="&#x26;" horiz-adv-x="953" 
d="M891 392h-17q-61 0 -73 -10q-1 0 -23 -28q-46 -63 -71.5 -96.5t-64 -76t-76.5 -75.5q81 -68 149 -68q12 0 26.5 2.5t35.5 9.5t35.5 24t15.5 42h56q-2 -61 -53 -95.5t-121 -34.5q-106 0 -228 61q-97 -61 -209 -61q-95 0 -158.5 42t-63.5 111q0 27 13 51.5t24 35t30 25.5
l108 85q-43 102 -43 189q0 84 60 133.5t132 49.5q57 0 90 -42.5t33 -94.5q0 -39 -36 -84t-119 -113q51 -104 184 -233q103 88 206 243q-23 8 -63 8v52q54 -3 118 -3q73 0 103 3v-52zM442 571q0 33 -16.5 64t-48.5 31q-34 0 -58.5 -28.5t-24.5 -71.5q0 -71 31 -152
q39 34 58.5 53t39 49t19.5 55zM434 78q-111 76 -189 219q-59 -41 -59 -125q0 -28 7.5 -56t31 -53t59.5 -25q78 0 150 40z" />
    <glyph glyph-name="quotesingle" unicode="'" horiz-adv-x="340" 
d="M231 639l-33 -219h-56l-33 219q-4 24 15 42.5t46 18.5t46 -18.5t15 -42.5z" />
    <glyph glyph-name="parenleft" unicode="(" horiz-adv-x="476" 
d="M407 -232q0 -18 -21 -18q-20 0 -78.5 52t-101.5 120q-92 147 -92 328q0 257 180 436q22 20 50.5 42t41.5 22q21 0 21 -18q0 -7 -17 -23q-170 -151 -170 -459q0 -306 172 -462q15 -12 15 -20z" />
    <glyph glyph-name="parenright" unicode=")" horiz-adv-x="476" 
d="M361 250q0 -257 -180 -436q-22 -20 -50.5 -42t-41.5 -22q-21 0 -21 18q0 7 17 23q170 151 170 459q0 306 -172 462q-15 12 -15 20q0 18 21 18q20 0 78.5 -52t101.5 -120q92 -147 92 -328z" />
    <glyph glyph-name="asterisk" unicode="*" 
d="M533 441q0 -20 -14 -36t-34 -16q-13 0 -29 11l-126 90l22 -125l3 -17q0 -17 -14.5 -29.5t-34.5 -12.5t-34.5 12.5t-14.5 29.5q0 2 1 7t1 6l23 129l-126 -90q-16 -11 -29 -11q-20 0 -34 16t-14 36q0 33 34 43l137 44l-137 44q-34 11 -34 43q0 20 14 36t34 16q13 0 29 -11
l126 -90l-22 125l-3 17q0 17 14.5 29.5t34.5 12.5t34.5 -12.5t14.5 -29.5q0 -2 -1 -7t-1 -6l-23 -129l126 90q16 11 29 11q20 0 34 -16t14 -36q0 -33 -34 -43l-137 -44l154 -51q17 -11 17 -36z" />
    <glyph glyph-name="plus" unicode="+" horiz-adv-x="953" 
d="M884 250q0 -34 -46 -34h-328v-328q0 -46 -34 -46t-34 46v328h-328q-46 0 -46 34t46 34h328v328q0 46 34 46t34 -46v-328h328q46 0 46 -34z" />
    <glyph glyph-name="comma" unicode="," horiz-adv-x="340" 
d="M264 33q0 -40 -11.5 -77.5t-28 -63.5t-34.5 -46.5t-32 -30t-20 -9.5q-8 0 -15 7t-7 15q0 7 12 19q85 65 93 169q-19 -16 -51 -16q-37 0 -58.5 23.5t-21.5 56.5t21.5 56.5t58.5 23.5q41 0 67.5 -36t26.5 -91z" />
    <glyph glyph-name="hyphen" unicode="-" horiz-adv-x="408" 
d="M339 170h-325v105h325v-105z" />
    <glyph glyph-name="period" unicode="." horiz-adv-x="340" 
d="M250 80q0 -33 -23.5 -56.5t-56.5 -23.5t-56.5 23.5t-23.5 56.5t23.5 56.5t56.5 23.5t56.5 -23.5t23.5 -56.5z" />
    <glyph glyph-name="slash" unicode="/" 
d="M544 716q0 -10 -6 -22l-401 -916q-13 -28 -35 -28q-14 0 -24 10t-10 24q0 10 6 22l401 916q13 28 35 28q14 0 24 -10t10 -24z" />
    <glyph glyph-name="zero" unicode="0" 
d="M564 319q0 -31 -1 -54t-6.5 -60t-15 -64t-28.5 -58t-45.5 -51t-68 -33t-93.5 -13q-46 0 -83.5 9.5t-63 27.5t-45.5 38.5t-31.5 49.5t-19 53t-10.5 56t-4 52t-1 47q0 32 1 55.5t6.5 61t15 65.5t29 59t46 51t67.5 33.5t93 13.5q45 0 82.5 -9.5t63 -27.5t45.5 -39
t31.5 -50.5t19.5 -54t11 -57t4 -53.5t1 -48zM429 331q0 135 -8 184q-5 33 -20 55.5t-35 31t-33.5 11.5t-26.5 3q-36 0 -70 -21t-43 -69q-10 -50 -10 -195q0 -113 6 -170t14 -73t27 -33q33 -27 76 -27q51 0 78 30q19 18 26.5 34t13 72t5.5 167z" />
    <glyph glyph-name="one" unicode="1" 
d="M527 0q-37 3 -212 3q-177 0 -213 -3v52h150v510q-68 -20 -138 -20h-22v52h22q138 0 219 64q31 0 38.5 -4.5t7.5 -29.5v-572h148v-52z" />
    <glyph glyph-name="two" unicode="2" 
d="M551 228l-33 -228h-457v21q0 15 1.5 19t10.5 13l221 206q112 104 112 203q0 61 -37.5 102.5t-102.5 41.5q-60 0 -99 -29q47 -18 47 -71q0 -36 -24 -56.5t-53 -20.5q-27 0 -51.5 19t-24.5 59q0 69 65 110t164 41q115 0 188 -53.5t73 -141.5q0 -87 -95 -162
q-6 -5 -79 -55.5t-152 -112.5h138q94 0 105 6q17 9 27 89h56z" />
    <glyph glyph-name="three" unicode="3" 
d="M561 179q0 -76 -66.5 -134.5t-201.5 -58.5q-105 0 -173.5 43t-68.5 115q0 38 23.5 60t57.5 22q35 0 58 -22.5t23 -58.5q0 -55 -53 -77q55 -35 128 -35q32 0 55 11.5t34 26.5t17 39t6.5 37t0.5 33q0 21 -1 35t-7 37.5t-17.5 38t-35 25.5t-56.5 11h-49q-11 0 -16.5 0.5
t-10 5.5t-4.5 15t4.5 14.5t11.5 6t25 2.5q45 3 63 8t38 27q37 49 37 113q0 17 -2 28.5t-9.5 29.5t-28 28t-53.5 10q-69 0 -113 -38q56 -14 56 -72q0 -33 -21.5 -53.5t-52.5 -20.5q-27 0 -50.5 19t-23.5 57q0 63 58 107t153 44q108 0 169.5 -40t61.5 -102q0 -107 -137 -163
q80 -18 125.5 -65t45.5 -109z" />
    <glyph glyph-name="four" unicode="4" 
d="M578 0q-45 3 -175 3q-144 0 -181 -3v52h119v102h-307v52l365 438q8 10 15.5 12.5t24.5 2.5q22 0 28.5 -5.5t6.5 -28.5v-419h104v-52h-104v-102h104v-52zM354 206v309l-258 -309h258z" />
    <glyph glyph-name="five" unicode="5" 
d="M551 201q0 -92 -73 -153.5t-202 -61.5q-95 0 -155 51t-60 121q0 37 22.5 55.5t49.5 18.5q29 0 50.5 -19.5t21.5 -52.5q0 -26 -16 -46.5t-46 -24.5q20 -26 55 -41t74 -15q37 0 63 12t39 27t19.5 42.5t7.5 43.5t1 45q0 31 -0.5 47.5t-5.5 43t-14.5 40.5t-28.5 25t-47 11
q-94 0 -141 -57q-12 -14 -28 -14q-13 0 -19 5t-7 11t-1 18v294q0 31 17 31q5 0 13 -4q83 -28 167 -28q85 0 163 27l15 5q18 0 18 -21q0 -17 -30 -46.5t-56 -46.5q-75 -48 -169 -48q-40 0 -72 5v-123q54 34 134 34q115 0 178 -61t63 -150z" />
    <glyph glyph-name="six" unicode="6" 
d="M561 205q0 -100 -69 -159.5t-182 -59.5q-65 0 -114 23t-76 56t-43.5 80.5t-21 87t-4.5 84.5q0 88 28 156t74.5 107t102 58.5t116.5 19.5q81 0 119.5 -38.5t38.5 -91.5q0 -31 -19 -50t-49 -19q-29 0 -48 19t-19 48q0 26 15.5 43.5t35.5 22.5q-27 23 -73 23q-43 0 -84 -21
t-64 -64q-31 -56 -31 -183q47 74 124 74q106 0 173 -57q70 -60 70 -159zM418 206q0 37 -0.5 55.5t-6 45t-15.5 39t-30 22.5t-50 10q-57 0 -88.5 -47.5t-31.5 -118.5q0 -85 17 -119q28 -60 96 -60q32 0 53.5 10t32 22.5t16 39.5t6.5 45.5t1 55.5z" />
    <glyph glyph-name="seven" unicode="7" 
d="M595 626q0 -16 -1.5 -20.5t-10.5 -13.5l-172 -189q-6 -6 -16 -20.5t-27 -62.5t-23 -106q-5 -57 -5 -128q0 -38 -2.5 -51.5t-13.5 -25.5q-18 -23 -51 -23q-7 0 -14.5 1.5t-21.5 7.5t-23 23t-9 43q0 140 81 275q25 39 44 62.5t98 112.5h-163q-101 0 -113 -6q-17 -7 -28 -89
h-56l38 260h56q1 -8 2.5 -12t11.5 -8.5t30 -5.5h17t16 -1q83 -5 124 -5h232v-18z" />
    <glyph glyph-name="eight" unicode="8" 
d="M561 187q0 -88 -66.5 -144.5t-190.5 -56.5q-113 0 -183 43t-70 132q0 111 130 169q-43 24 -69.5 63t-26.5 87q0 77 58 127.5t165 50.5q31 0 61 -4.5t69.5 -18t64 -46t24.5 -81.5q0 -36 -18.5 -65.5t-37 -43.5t-46.5 -29q136 -70 136 -183zM444 508q0 50 -36.5 78.5
t-104.5 28.5q-135 0 -135 -76q0 -34 47 -59l157 -82q72 42 72 110zM466 132q0 45 -62 80l-114 60l-52 26l-10 -5t-22 -15t-28 -26t-22 -38.5t-10 -52.5q0 -62 44 -95t118 -33q27 0 51 4t50 13.5t41.5 30.5t15.5 51z" />
    <glyph glyph-name="nine" unicode="9" 
d="M561 328q0 -88 -26 -156t-70.5 -107.5t-97.5 -59t-112 -19.5q-85 0 -129 37t-44 93q0 31 19 50t49 19q29 0 48 -19t19 -48q0 -48 -46 -65q31 -20 82 -20q50 0 86 24.5t53 59.5q26 57 26 182q-46 -75 -124 -75q-62 0 -100 14t-74 43q-69 59 -69 159q0 101 70.5 159.5
t186.5 58.5q138 0 202 -102q51 -81 51 -228zM416 437q0 21 -0.5 34t-3 37.5t-10 40t-18.5 32.5t-30 25.5t-45 8.5q-28 0 -48.5 -6t-32.5 -20t-19.5 -27t-10.5 -37.5t-3.5 -40t-0.5 -45.5q0 -37 0.5 -55t6 -45t15.5 -39.5t30 -22.5t50 -10q56 0 88 46.5t32 123.5z" />
    <glyph glyph-name="colon" unicode=":" horiz-adv-x="340" 
d="M250 364q0 -33 -23.5 -56.5t-56.5 -23.5t-56.5 23.5t-23.5 56.5t23.5 56.5t56.5 23.5t56.5 -23.5t23.5 -56.5zM250 80q0 -33 -23.5 -56.5t-56.5 -23.5t-56.5 23.5t-23.5 56.5t23.5 56.5t56.5 23.5t56.5 -23.5t23.5 -56.5z" />
    <glyph glyph-name="semicolon" unicode=";" horiz-adv-x="340" 
d="M250 364q0 -33 -23.5 -56.5t-56.5 -23.5t-56.5 23.5t-23.5 56.5t23.5 56.5t56.5 23.5t56.5 -23.5t23.5 -56.5zM253 33q0 -38 -10 -75t-25 -63.5t-31.5 -47t-29.5 -31t-19 -10.5q-8 0 -15 7t-7 15t11 17q74 68 83 164q-18 -9 -40 -9q-37 0 -58.5 23.5t-21.5 56.5
q0 34 22 57t57 23q40 0 62 -35t22 -92z" />
    <glyph glyph-name="less" unicode="&#x3c;" horiz-adv-x="894" 
d="M797 -56q0 -11 -8.5 -20.5t-22.5 -9.5q-8 0 -22 7l-623 298q-25 12 -25 32t25 31l626 299q11 6 19 6q14 0 22.5 -9.5t8.5 -20.5q0 -19 -25 -32l-575 -275l575 -274q25 -12 25 -32z" />
    <glyph glyph-name="equal" unicode="=" horiz-adv-x="953" 
d="M884 371q0 -34 -44 -34h-728q-44 0 -44 34t50 34h716q50 0 50 -34zM884 129q0 -34 -50 -34h-716q-50 0 -50 34t44 34h728q44 0 44 -34z" />
    <glyph glyph-name="greater" unicode="&#x3e;" horiz-adv-x="894" 
d="M797 251q0 -21 -25 -32l-626 -299q-10 -6 -19 -6q-14 0 -22.5 9.5t-8.5 20.5q0 20 25 32l575 275l-575 274q-25 13 -25 32q0 12 9 21t21 9q9 0 23 -7l623 -298q25 -11 25 -31z" />
    <glyph glyph-name="question" unicode="?" horiz-adv-x="578" 
d="M509 572q0 -65 -68 -101q-142 -76 -142 -187v-24q0 -13 -1 -18.5t-7 -9t-20 -3.5q-20 0 -24 7t-4 39q0 27 2.5 46t11.5 51t32 66t60 68q25 23 25 72q0 21 -2 32t-11 24.5t-30.5 19t-57.5 5.5q-66 0 -109 -25q39 -18 39 -62q0 -32 -20.5 -50t-47.5 -18q-24 0 -45.5 17
t-21.5 52q0 52 50.5 90t160.5 38q91 0 147 -22q43 -17 63 -46t20 -61zM351 80q0 -33 -23.5 -56.5t-56.5 -23.5t-56.5 23.5t-23.5 56.5t23.5 56.5t56.5 23.5t56.5 -23.5t23.5 -56.5z" />
    <glyph glyph-name="at" unicode="@" horiz-adv-x="953" 
d="M884 80q0 -6 -5 -11t-33 -14q-180 -62 -366 -62q-85 0 -155 20t-117 54t-79 80t-46.5 96t-14.5 104q0 151 106.5 252.5t301.5 101.5q194 0 301 -101t107 -254q0 -31 -5 -62t-18 -70t-43.5 -63.5t-74.5 -24.5q-96 0 -130 45q-58 -45 -139 -45q-110 0 -176.5 61.5
t-66.5 159.5q0 97 66 159t177 62q112 0 174 -83h39q23 0 28.5 -5t5.5 -26v-231q0 -55 32 -55q75 0 75 174q0 149 -96.5 233t-255.5 84q-167 0 -259.5 -88t-92.5 -224q0 -61 20.5 -115.5t62 -99.5t112 -71t161.5 -26q159 0 309 55q20 8 38 8h26q31 0 31 -18zM599 228v238
q-43 60 -121 60q-55 0 -90 -46t-35 -133t35 -133t90 -46q78 0 121 60z" />
    <glyph glyph-name="A" unicode="A" horiz-adv-x="922" 
d="M876 0q-63 3 -168 3q-141 0 -178 -3v52h93l-61 139h-287l-51 -116l-5 -14q29 -9 88 -9v-52l-136 3q-75 0 -126 -3v52h24q25 0 51 3q18 2 22.5 5t9.5 14l261 601q7 18 17.5 22t30.5 4q13 0 19.5 -1t14.5 -7t13 -18l270 -623h98v-52zM540 243l-121 279l-121 -279h242z" />
    <glyph glyph-name="B" unicode="B" horiz-adv-x="869" 
d="M800 187q0 -80 -70.5 -133.5t-194.5 -53.5h-488v52h108v582h-108v52h455q122 0 193 -50t71 -123q0 -57 -49 -98.5t-129 -55.5q101 -11 156.5 -59t55.5 -113zM618 513q0 29 -10 54.5t-40.5 46t-78.5 20.5h-198v-256h171q72 0 114 37.5t42 97.5zM646 189q0 25 -6 48
t-21 46.5t-45 38t-72 14.5h-211v-284h201q73 0 113.5 37t40.5 100z" />
    <glyph glyph-name="C" unicode="C" horiz-adv-x="885" 
d="M816 227q0 -96 -90 -168.5t-232 -72.5q-200 0 -313 101.5t-113 255.5t113.5 255.5t311.5 101.5q115 0 212 -68l66 58q11 10 23 10q10 0 15 -4.5t6 -9.5t1 -17v-215q0 -22 -5.5 -26.5t-27.5 -4.5q-14 0 -19 1t-9 5t-5 14q-18 100 -85.5 152.5t-151.5 52.5q-145 0 -222 -84
q-63 -69 -63 -221q0 -151 65 -222q75 -83 223 -83q99 0 169 53t75 131q1 19 5.5 24t22.5 5q11 0 15.5 -1t8.5 -6.5t4 -16.5z" />
    <glyph glyph-name="D" unicode="D" horiz-adv-x="938" 
d="M869 337q0 -154 -102.5 -245.5t-265.5 -91.5h-454v52h108v582h-108v52h453q162 0 265.5 -94.5t103.5 -254.5zM715 339q0 30 -0.5 47.5t-5.5 52t-14 57.5t-28 51.5t-45.5 45.5t-68.5 29t-95 12h-160v-582h161q53 0 94.5 11.5t68 27.5t45.5 44t28 49.5t14 55.5t5.5 51.5
t0.5 47.5z" />
    <glyph glyph-name="E" unicode="E" horiz-adv-x="803" 
d="M768 275l-49 -275h-672v52h108v576h-108v52h654l33 -243h-56q-14 108 -59 149.5t-152 41.5h-163v-249h60q67 0 89 25.5t22 89.5h56v-282h-56q0 64 -22 89.5t-89 25.5h-60v-275h166q54 0 93 10t64 26.5t42 46.5t26 61.5t17 78.5h56z" />
    <glyph glyph-name="F" unicode="F" horiz-adv-x="769" 
d="M717 437h-56q-7 52 -18 85t-34 58.5t-59.5 36.5t-92.5 11h-153v-262h56q67 0 87.5 26.5t20.5 88.5h56v-282h-56q0 62 -20.5 88.5t-87.5 26.5h-56v-262h135v-52q-37 3 -203 3q-151 0 -189 -3v52h108v576h-108v52h637z" />
    <glyph glyph-name="G" unicode="G" horiz-adv-x="962" 
d="M901 224h-85v-193q0 -31 -17 -31q-7 0 -40.5 15.5t-52.5 29.5q-53 -59 -209 -59q-207 0 -318 103.5t-111 253.5q0 154 113.5 255.5t311.5 101.5q115 0 212 -68l66 58q11 10 23 10q10 0 15 -4.5t6 -9.5t1 -17v-215q0 -22 -5.5 -26.5t-27.5 -4.5q-14 0 -19 1t-9 5t-5 14
q-18 100 -85.5 152.5t-151.5 52.5q-145 0 -222 -84q-63 -69 -63 -220q0 -157 74 -231q77 -75 221 -75q57 0 97 18q22 9 33 23.5t12.5 23.5t1.5 23v98h-153v52q38 -3 210 -3l177 3v-52z" />
    <glyph glyph-name="H" unicode="H" horiz-adv-x="955" 
d="M907 0q-38 3 -182 3q-145 0 -183 -3v52h108v279h-346v-279h108v-52q-38 3 -182 3q-145 0 -183 -3v52h108v582h-108v52q38 -3 183 -3q144 0 182 3v-52h-108v-251h346v251h-108v52q38 -3 183 -3q144 0 182 3v-52h-108v-582h108v-52z" />
    <glyph glyph-name="I" unicode="I" horiz-adv-x="459" 
d="M417 0q-37 3 -188 3q-150 0 -187 -3v52h113v582h-113v52q37 -3 188 -3q150 0 187 3v-52h-113v-582h113v-52z" />
    <glyph glyph-name="J" unicode="J" horiz-adv-x="631" 
d="M556 634h-81v-484q0 -77 -66 -120.5t-176 -43.5q-97 0 -152.5 34.5t-55.5 93.5q0 36 23 58.5t58 22.5t58 -22.5t23 -58.5q0 -47 -39 -70q36 -16 80 -16q47 0 75.5 29.5t28.5 91.5v485h-140v52q37 -3 196 -3l168 3v-52z" />
    <glyph glyph-name="K" unicode="K" horiz-adv-x="956" 
d="M904 0l-155 3q-137 0 -174 -3v52q67 0 67 9q0 2 -4 7l-3 4l-220 266l-111 -87v-199h108v-52q-38 3 -182 3q-145 0 -183 -3v52h108v582h-108v52q38 -3 183 -3q144 0 182 3v-52h-108v-312l388 303q-26 9 -64 9v52q63 -3 144 -3q85 0 115 3v-52h-21q-70 0 -91 -16l-257 -200
l288 -349q9 -11 19 -14t46 -3h33v-52z" />
    <glyph glyph-name="L" unicode="L" horiz-adv-x="735" 
d="M683 275l-33 -275h-603v52h108v582h-108v52q38 -3 190 -3q165 0 202 3v-52h-135v-582h110q53 0 92.5 17.5t60.5 40t35 58.5t17.5 56.5t7.5 50.5h56z" />
    <glyph glyph-name="M" unicode="M" horiz-adv-x="1159" 
d="M1108 0q-41 3 -173 3t-173 -3v52h108v580h-1l-288 -603q-15 -29 -39 -29q-25 0 -40 30l-281 589h-1v-540q0 -15 4 -18.5t23 -5.5q23 -3 53 -3h28v-52l-139 3l-139 -3v52h28q25 0 51 2q21 2 25 5.5t4 19.5v555h-108v52h228q14 0 20.5 -1t14.5 -8t15 -21l251 -526l252 527
q7 14 14.5 20t14 7.5t20.5 1.5h228v-52h-108v-582h108v-52z" />
    <glyph glyph-name="N" unicode="N" horiz-adv-x="955" 
d="M907 634h-28q-25 0 -51 -2q-21 -2 -25 -5.5t-4 -19.5v-573q0 -20 -5 -27t-26 -7q-20 0 -31 12l-520 576v-509q0 -15 4 -18.5t23 -5.5q23 -3 53 -3h28v-52l-139 3l-139 -3v52h28q25 0 51 2q21 2 25 5.5t4 19.5v555h-108v52h234q15 0 20 -2t15 -12l421 -465v400
q0 15 -4 18.5t-23 5.5q-23 3 -53 3h-28v52l139 -3l139 3v-52z" />
    <glyph glyph-name="O" unicode="O" horiz-adv-x="920" 
d="M851 339q0 -153 -103.5 -253t-288.5 -100q-183 0 -287 99t-104 254q0 158 104 259.5t287 101.5q185 0 288.5 -102t103.5 -259zM691 354q0 145 -52 215q-63 84 -180 84q-61 0 -106 -23.5t-69 -54.5q-32 -43 -44 -94.5t-12 -126.5q0 -142 42 -213q63 -106 190 -106
q57 0 106 25.5t78 72.5q47 78 47 221z" />
    <glyph glyph-name="P" unicode="P" horiz-adv-x="835" 
d="M766 489q0 -83 -75.5 -138t-205.5 -55h-181v-244h108v-52q-38 3 -182 3q-145 0 -183 -3v52h108v582h-108v52h438q131 0 206 -56.5t75 -140.5zM606 489q0 28 -1 42.5t-9 37.5t-24 34.5t-47 21t-77 9.5h-150v-291h149q38 0 66.5 5.5t45.5 17.5t27 23.5t14 31.5t5 32.5
t1 35.5z" />
    <glyph glyph-name="Q" unicode="Q" horiz-adv-x="920" 
d="M858 -7q0 -67 -38.5 -127t-108.5 -60q-29 0 -51.5 11.5t-36.5 26t-27 44.5t-19 49t-17 58q-45 -9 -100 -9q-185 0 -288.5 99.5t-103.5 253.5q0 158 104 259.5t287 101.5q185 0 288.5 -102t103.5 -259q0 -109 -53.5 -194.5t-161.5 -128.5q19 -23 37.5 -35t28.5 -13.5
t27 -1.5q83 0 87 31q3 24 21 24q21 0 21 -28zM697 339q0 153 -56 228q-65 86 -182 86q-119 0 -183 -88q-54 -75 -54 -226q0 -102 27.5 -174t105.5 -110q-2 10 -2 18q0 37 31 61t75 24q30 0 57.5 -14.5t43 -30.5t33.5 -41q104 66 104 267zM542 47q-14 34 -33 51.5t-50 17.5
q-24 0 -44 -11.5t-20 -31.5q0 -40 65 -40q46 0 82 14z" />
    <glyph glyph-name="R" unicode="R" horiz-adv-x="915" 
d="M911 98q0 -9 -2.5 -20.5t-11 -28.5t-21.5 -30.5t-37.5 -23t-56.5 -9.5q-107 0 -162 31q-23 13 -37 28t-19.5 36.5t-6.5 37t-1 47.5q0 56 -4.5 77t-25.5 41q-37 38 -100 38h-128v-270h108v-52q-39 3 -179 3q-141 0 -180 -3v52h108v582h-108v52h398q142 0 229 -53t87 -134
q0 -53 -43.5 -95t-121.5 -64q46 -17 71.5 -45.5t31.5 -51.5t11 -66q4 -34 6.5 -49.5t9 -39t14 -33.5t21 -18.5t31.5 -8.5q20 0 40 15.5t23 56.5q2 23 28 23q28 0 28 -25zM601 499q0 30 -4 48.5t-19 41t-52 34t-95 11.5h-133v-270h130q48 0 82 9t51.5 21t27 32.5t11 35
t1.5 37.5z" />
    <glyph glyph-name="S" unicode="S" horiz-adv-x="681" 
d="M612 202q0 -39 -13 -75.5t-40 -69t-76 -52t-113 -19.5q-133 0 -214 53l-30 -29q-18 -18 -22.5 -21t-13.5 -3q-10 0 -15 4.5t-6 9.5t-1 17v180q0 19 4 25t24 6q27 0 28 -16q3 -92 68 -132q67 -42 177 -42q36 0 63.5 9t42 22t23 30.5t11 29.5t2.5 24q0 38 -27 71t-86 45
l-123 25q-32 7 -51 12t-51.5 23t-56.5 45q-48 55 -48 124q0 82 60.5 142t178.5 60q107 0 182 -54l31 30q18 18 22.5 21t13.5 3q10 0 15 -4.5t6 -9.5t1 -17v-180q0 -19 -4.5 -25t-23.5 -6q-18 0 -22.5 4.5t-6.5 19.5q-14 85 -71 129q-56 42 -143 42q-73 0 -105.5 -32
t-32.5 -72q0 -35 27 -63.5t79 -39.5l152 -31q78 -16 131.5 -74.5t53.5 -138.5z" />
    <glyph glyph-name="T" unicode="T" horiz-adv-x="852" 
d="M807 430h-56q-4 52 -10.5 80.5t-23.5 57.5t-50 41t-85 12h-82v-569h152v-52q-38 3 -227 3q-188 0 -226 -3v52h152v569h-82q-52 0 -85 -12t-50 -41t-23.5 -57.5t-10.5 -80.5h-56l23 243h717z" />
    <glyph glyph-name="U" unicode="U" horiz-adv-x="939" 
d="M891 634h-28q-25 0 -51 -2q-21 -2 -25 -5.5t-4 -19.5v-377q0 -102 -74.5 -173t-221.5 -71q-158 0 -245 70t-87 175v403h-108v52q38 -3 183 -3q144 0 182 3v-52h-108v-409q0 -24 1.5 -41.5t11.5 -47.5t28 -49t55.5 -34t90.5 -15q100 0 163 47.5t63 146.5v375q0 15 -4 18.5
t-23 5.5q-23 3 -53 3h-28v52l141 -3l141 3v-52z" />
    <glyph glyph-name="V" unicode="V" horiz-adv-x="922" 
d="M892 634h-22q-49 0 -62.5 -4.5t-18.5 -16.5l-280 -597q-8 -18 -18 -22t-31 -4q-13 0 -19.5 1t-15 7t-14.5 19l-289 617h-93v52l165 -3q140 0 177 3v-52h-91l223 -476l212 454l6 13q-27 9 -86 9v52l135 -3q82 0 122 3v-52z" />
    <glyph glyph-name="W" unicode="W" horiz-adv-x="1263" 
d="M1235 634h-19q-47 0 -58.5 -4t-17.5 -18l-242 -593q-6 -16 -13.5 -22.5t-28.5 -6.5q-30 0 -41 27l-184 453l-184 -454q-11 -26 -41 -26q-21 0 -28.5 6.5t-13.5 22.5l-250 615h-87v52l160 -3q136 0 174 3v-52h-93l184 -454l149 364l-37 90h-86v52l160 -3q136 0 174 3v-52
h-94l185 -454l176 431q1 2 5 14q-30 9 -100 9v52l135 -3q81 0 116 3v-52z" />
    <glyph glyph-name="X" unicode="X" horiz-adv-x="922" 
d="M882 0q-63 3 -169 3q-144 0 -181 -3v52h78l-181 231l-178 -220v-3q36 -8 85 -8v-52l-154 3l-142 -3v52h32q32 0 57 3q24 2 30 4.5t14 11.5l214 266l-232 297h-99v52q63 -3 169 -3q144 0 181 3v-52h-78l147 -188l144 178l-7.5 2.5t-7 2.5t-3.5 1q-31 4 -68 4v52
q63 -3 155 -3l142 3v-52h-32q-32 0 -57 -3q-24 -2 -30 -4.5t-14 -11.5l-180 -223l266 -340h99v-52z" />
    <glyph glyph-name="Y" unicode="Y" horiz-adv-x="922" 
d="M897 634h-24q-26 0 -53 -3q-18 -2 -23.5 -4t-12.5 -12l-252 -340v-223h107v-52q-39 3 -178 3q-141 0 -180 -3v52h108v222l-266 360h-99v52q51 -3 172 -3q148 0 184 3v-52h-80l208 -281l201 272q-27 9 -72 9v52l136 -3q79 0 124 3v-52z" />
    <glyph glyph-name="Z" unicode="Z" horiz-adv-x="749" 
d="M687 286l-20 -286h-565q-13 0 -18.5 1t-10.5 7.5t-5 20.5q0 16 10 29l423 576h-136q-97 0 -156.5 -41t-67.5 -150h-56l13 243h548q13 0 18.5 -1t10.5 -7.5t5 -19.5q0 -14 -11 -28l-421 -573h147q130 0 179 55.5t57 173.5h56z" />
    <glyph glyph-name="bracketleft" unicode="[" horiz-adv-x="340" 
d="M312 -250h-177v1000h177v-68h-109v-864h109v-68z" />
    <glyph glyph-name="backslash" unicode="\" horiz-adv-x="575" 
d="M510 -219q0 -14 -9.5 -22.5t-20.5 -8.5q-10 0 -17 5t-9.5 10t-6.5 15l-377 919q-6 16 -6 20q0 14 9.5 22.5t20.5 8.5q10 0 16.5 -4.5t9 -9.5t7.5 -16l377 -919q6 -16 6 -20z" />
    <glyph glyph-name="bracketright" unicode="]" horiz-adv-x="340" 
d="M204 -250h-177v68h109v864h-109v68h177v-1000z" />
    <glyph glyph-name="asciicircum" unicode="^" horiz-adv-x="556" 
d="M561 584l-12 -22l-272 123l-271 -123l-11 22l283 160z" />
    <glyph glyph-name="underscore" unicode="_" horiz-adv-x="922" 
d="M922 -153h-922v56h922v-56z" />
    <glyph glyph-name="grave" unicode="`" 
d="M385 550l-32 -45l-163 78q-39 22 -39 54q0 24 19 45.5t45 21.5q25 0 46 -23z" />
    <glyph glyph-name="a" unicode="a" horiz-adv-x="596" 
d="M589 26q0 -18 -8 -22t-26 -4h-53q-65 0 -86.5 19t-21.5 49q-49 -75 -159 -75q-89 0 -147 29.5t-58 89.5q0 43 32 75t85.5 48.5t109.5 24.5t118 8v29q0 116 -115 116q-48 0 -76 -7q21 -19 21 -51q0 -29 -19 -48t-49 -19q-27 0 -47 18.5t-20 49.5q0 99 192 99
q117 0 176 -44t59 -115v-211q0 -14 2.5 -19.5t16 -9.5t43.5 -4q10 0 15 -1t10 -7t5 -18zM375 137v93q-99 -2 -161 -33t-62 -83q0 -35 29.5 -57t69.5 -22q6 0 15 0.5t30 6t37 15t29 30.5t13 50z" />
    <glyph glyph-name="b" unicode="b" horiz-adv-x="681" 
d="M639 222q0 -99 -72.5 -164t-196.5 -65q-91 0 -156 62l-46 -55h-56v595q0 28 -10 33.5t-56 5.5v52l182 8v-289q68 46 156 46q116 0 185.5 -64t69.5 -165zM504 225q0 27 -1 44t-7.5 46.5t-19.5 47.5t-39.5 32t-63.5 14q-47 0 -84.5 -20.5t-54.5 -44.5v-237q9 -13 21.5 -27
t42 -29.5t63.5 -15.5q41 0 69.5 14.5t42.5 33t21.5 49.5t8.5 48t1 45z" />
    <glyph glyph-name="c" unicode="c" horiz-adv-x="544" 
d="M509 115q0 -5 -5.5 -18t-22 -34.5t-40.5 -36.5q-54 -33 -136 -33q-125 0 -194.5 65.5t-69.5 163.5q0 95 67 164t201 69q186 0 186 -99q0 -31 -19.5 -49.5t-48.5 -18.5q-28 0 -47.5 19t-19.5 48q0 23 12 41l4 6q0 6 -63 6q-38 0 -65.5 -14t-41 -32t-21 -47t-8.5 -46.5
t-1 -42.5q0 -186 149 -186q95 0 127 75q5 13 9.5 15.5t19.5 2.5q28 0 28 -18z" />
    <glyph glyph-name="d" unicode="d" horiz-adv-x="681" 
d="M634 0l-188 -7v49q-64 -49 -149 -49q-117 0 -186.5 64.5t-69.5 164.5t72 164.5t196 64.5q80 0 143 -43v187q0 28 -10 33.5t-56 5.5v52l182 8v-603q0 -28 10 -33.5t56 -5.5v-52zM446 111v236q-49 62 -127 62q-41 0 -69.5 -14.5t-42.5 -33t-21.5 -49.5t-8.5 -48t-1 -45
q0 -18 0.5 -29.5t3 -33t7 -35.5t14 -32t23 -28.5t34.5 -18t48 -7.5q86 0 140 76z" />
    <glyph glyph-name="e" unicode="e" horiz-adv-x="561" 
d="M526 115q0 -6 -5 -18t-20 -30.5t-37.5 -34.5t-62 -27.5t-89.5 -11.5q-130 0 -204 66t-74 167q0 95 68.5 162t194.5 67q113 0 169 -56q60 -59 60 -158q0 -20 -7.5 -24.5t-26.5 -4.5h-323q1 -24 2.5 -40t10.5 -44t24 -44.5t45.5 -30t72.5 -13.5q14 0 30.5 2.5t39.5 9.5
t43.5 24t31.5 41q6 13 11 16t18 3q28 0 28 -21zM428 251q-4 162 -130 162q-125 0 -129 -162h259z" />
    <glyph glyph-name="f" unicode="f" horiz-adv-x="374" 
d="M467 609q0 -31 -20.5 -48.5t-45.5 -17.5q-26 0 -46 17.5t-20 48.5q0 27 16 44l2 4q-10 2 -13 2q-56 0 -80.5 -34t-24.5 -83v-98h128v-52h-122v-340h82v-52l-136 3q-70 0 -128 -3v52h66v340h-79v52h79v97q0 56 34.5 93.5t81.5 52t102 14.5q59 0 91.5 -27t32.5 -65z" />
    <glyph glyph-name="g" unicode="g" 
d="M595 393q0 -21 -14 -34.5t-34 -13.5t-33.5 13.5t-13.5 34.5q0 13 4 21q-34 -5 -61 -19q6 -5 13.5 -14.5t17 -32.5t9.5 -47q0 -25 -10.5 -49.5t-33.5 -47.5t-66 -37.5t-101 -14.5q-76 0 -127 25q-8 -11 -8 -28q0 -26 23 -49q15 -13 64 -13h52q57 0 84.5 -1t61.5 -6t60 -15
q96 -37 96 -136q0 -57 -68.5 -94t-203.5 -37q-144 0 -208 39.5t-64 88.5q0 33 25.5 55.5t61.5 31.5q-41 39 -41 96q0 49 33 89q-52 46 -52 104q0 25 10.5 49.5t33.5 47.5t66 37.5t101 14.5q82 0 140 -32q49 39 113 39q33 0 51.5 -20t18.5 -45zM367 302q0 22 -2 34.5t-9.5 32
t-29 29.5t-54.5 10q-27 0 -46 -7.5t-28.5 -17.5t-14.5 -27t-5.5 -27t-0.5 -28q0 -22 2 -34.5t9.5 -32t29 -29.5t54.5 -10q27 0 46 7.5t28.5 17.5t14.5 27t5.5 27t0.5 28zM485 -74q0 57 -151 57h-127q-80 0 -80 -56q0 -34 44 -60t135 -26q93 0 136 26.5t43 58.5z" />
    <glyph glyph-name="h" unicode="h" horiz-adv-x="681" 
d="M650 0q-54 3 -127 3t-127 -3v52h66v262q0 55 -14.5 75t-43.5 20q-35 0 -70 -15t-62.5 -52t-27.5 -89v-201h66v-52q-54 3 -127 3t-127 -3v52h66v543q0 28 -10 33.5t-56 5.5v52l182 8v-335q62 92 181 92q77 0 121 -32t44 -116v-251h66v-52z" />
    <glyph glyph-name="i" unicode="i" horiz-adv-x="340" 
d="M300 0q-49 3 -119 3q-64 0 -122 -3v52h66v301q0 28 -9.5 33t-53.5 5v52l179 8v-399h59v-52zM251 605q0 -33 -23.5 -56.5t-57.5 -23.5q-32 0 -56 23.5t-24 56.5t23.5 56.5t57.5 23.5q32 0 56 -23.5t24 -56.5z" />
    <glyph glyph-name="j" unicode="j" horiz-adv-x="374" 
d="M287 -38q0 -78 -59 -120.5t-134 -42.5q-68 0 -110.5 25.5t-42.5 71.5q0 30 19 49t49 19q29 0 48 -19t19 -48q0 -26 -17 -46l-2 -4q0 -6 35 -6q41 0 60 36t19 84v391q0 13 -0.5 18.5t-5 10.5t-14.5 7q-13 3 -53 3v52l189 8v-489zM288 605q0 -33 -23.5 -56.5t-57.5 -23.5
q-32 0 -56 23.5t-24 56.5t23.5 56.5t57.5 23.5q32 0 56 -23.5t24 -56.5z" />
    <glyph glyph-name="k" unicode="k" horiz-adv-x="647" 
d="M626 0q-32 3 -109 3q-62 0 -120 -3v52q23 0 23 7q0 3 -57.5 68.5t-76.5 85.5l-65 -48v-113h66v-52q-51 3 -121 3q-69 0 -120 -3v52h66v543q0 28 -10 33.5t-56 5.5v52l182 8v-454l195 143q-6 9 -22 9v52q55 -3 111 -3q52 0 87 3v-52q-32 0 -50 -2t-24 -5t-15 -9l-140 -102
l180 -205q9 -11 19 -14t38 -3h19v-52z" />
    <glyph glyph-name="l" unicode="l" horiz-adv-x="340" 
d="M307 0q-58 3 -124 3t-124 -3v52h66v543q0 28 -10 33.5t-56 5.5v52l182 8v-642h66v-52z" />
    <glyph glyph-name="m" unicode="m" horiz-adv-x="1021" 
d="M990 0q-54 3 -127 3t-127 -3v52h66v262q0 55 -14.5 75t-43.5 20q-35 0 -70 -15t-62.5 -52t-27.5 -89v-201h66v-52q-54 3 -127 3t-127 -3v52h66v262q0 55 -14.5 75t-43.5 20q-35 0 -70 -15t-62.5 -52t-27.5 -89v-201h66v-52q-54 3 -127 3t-127 -3v52h66v300q0 28 -10 33.5
t-56 5.5v52l175 8v-102h1q7 12 18.5 26t33.5 33t57.5 31t77.5 12q131 0 159 -92q62 92 181 92q78 0 121.5 -32t43.5 -116v-251h66v-52z" />
    <glyph glyph-name="n" unicode="n" horiz-adv-x="681" 
d="M650 0q-54 3 -127 3t-127 -3v52h66v262q0 55 -14.5 75t-43.5 20q-35 0 -70 -15t-62.5 -52t-27.5 -89v-201h66v-52q-54 3 -127 3t-127 -3v52h66v300q0 28 -10 33.5t-56 5.5v52l175 8v-102h1q7 12 18.5 26t33.5 33t57.5 31t77.5 12q77 0 121 -32t44 -116v-251h66v-52z" />
    <glyph glyph-name="o" unicode="o" 
d="M578 218q0 -95 -70 -160t-202 -65q-131 0 -201.5 64.5t-70.5 160.5q0 100 70.5 168.5t201.5 68.5t201.5 -68t70.5 -169zM443 230q0 28 -1 42.5t-4 40t-12 40t-23.5 30.5t-39 23t-57.5 7q-39 0 -66.5 -12t-41 -27.5t-20.5 -44.5t-8 -47t-1 -52q0 -35 1 -54t8 -49.5
t20.5 -46t41 -28t66.5 -12.5t66.5 12.5t41 28t20.5 46t8 49.5t1 54z" />
    <glyph glyph-name="p" unicode="p" horiz-adv-x="681" 
d="M639 223q0 -102 -73.5 -166t-195.5 -64q-76 0 -136 44v-179h66v-52q-54 3 -127 3t-127 -3v52h66v497q0 17 -2.5 24t-14.5 9q-12 3 -49 3v52l182 8v-47q70 47 161 47q117 0 183.5 -65t66.5 -163zM504 223q0 84 -36 132.5t-96 48.5q-47 0 -83.5 -20t-54.5 -42v-236
q48 -71 126 -71q61 0 102.5 47t41.5 141z" />
    <glyph glyph-name="q" unicode="q" horiz-adv-x="647" 
d="M634 -194q-54 3 -127 3t-127 -3v52h66v188q-65 -53 -149 -53q-116 0 -186 63.5t-70 165.5q0 101 72.5 165t192.5 64q94 0 163 -78l49 78h50v-593h66v-52zM452 150v125q0 43 -38 86t-95 43q-59 0 -101 -45.5t-42 -137.5q0 -89 37 -137.5t94 -48.5q77 0 129 70q16 23 16 45
z" />
    <glyph glyph-name="r" unicode="r" horiz-adv-x="506" 
d="M471 364q0 -29 -19 -47.5t-47 -18.5t-47 18.5t-19 47.5q0 12 4 23.5t8 16.5l4 5q-45 -1 -75 -34.5t-41 -75t-11 -85.5v-162h82v-52l-136 3q-70 0 -128 -3v52h66v300q0 28 -10 33.5t-56 5.5v52l169 8v-107l1 -1q16 41 50.5 74.5t90.5 33.5q46 0 80 -24t34 -63z" />
    <glyph glyph-name="s" unicode="s" horiz-adv-x="483" 
d="M441 141q0 -42 -18.5 -72t-41 -44t-55 -22t-48 -9t-33.5 -1q-74 0 -124 30l-26 -17q-21 -13 -32 -13q-10 0 -15 4.5t-6 9.5t-1 17v103q0 19 4 25t24 6q16 0 20.5 -3t8.5 -16q10 -29 22.5 -49t45 -37.5t79.5 -17.5q119 0 119 72q0 19 -11 33t-33.5 22.5t-38 12t-41.5 7.5
q-109 18 -148 46q-51 39 -51 93q0 38 18 65.5t40.5 40t55.5 19.5t48.5 8t34.5 1q64 0 106 -17q34 17 45 17q10 0 15 -4.5t6 -9.5t1 -17v-73q0 -19 -4.5 -25t-23.5 -6q-26 0 -28 16q-1 15 -4 25.5t-13.5 25.5t-36.5 23t-65 8q-118 0 -118 -59q0 -16 8.5 -26.5t32 -18.5
t43 -12t62.5 -11q90 -14 134 -55q43 -39 43 -95z" />
    <glyph glyph-name="t" unicode="t" horiz-adv-x="476" 
d="M407 123q0 -59 -37 -94.5t-95 -35.5q-166 0 -166 130v269h-86v42q71 1 111 61t41 140h56v-191h156v-52h-156v-272q0 -80 59 -80q23 0 42 19.5t19 65.5v49h56v-51z" />
    <glyph glyph-name="u" unicode="u" horiz-adv-x="681" 
d="M650 0l-182 -7v70q-54 -70 -154 -70q-41 0 -72 5t-60 18t-44.5 40t-15.5 67v229q0 28 -10 33.5t-56 5.5v52l188 8v-342q0 -43 14 -58.5t70 -15.5q61 0 97.5 35t36.5 92v190q0 28 -10 33.5t-56 5.5v52l188 8v-360q0 -28 10 -33.5t56 -5.5v-52z" />
    <glyph glyph-name="v" unicode="v" horiz-adv-x="647" 
d="M616 392q-44 0 -55 -4t-18 -17l-174 -348q-7 -13 -15.5 -19.5t-14 -7.5t-16.5 -1q-21 0 -29 6t-16 22l-185 369h-63v52q43 -3 117 -3q62 0 123 3v-52h-48l135 -268l123 247q2 4 3.5 6.5t2 4t0.5 2.5q-16 8 -43 8v52q30 -3 90 -3q45 0 83 3v-52z" />
    <glyph glyph-name="w" unicode="w" horiz-adv-x="885" 
d="M856 392q-41 0 -50.5 -3.5t-15.5 -17.5l-150 -348q-12 -28 -43 -28q-21 0 -28 6t-15 24l-112 258l-112 -258q-5 -13 -8.5 -18t-11.5 -8.5t-23 -3.5q-31 0 -43 28l-158 369h-58v52q35 -3 113 -3q63 0 121 3v-52h-50l108 -251l86 200l5 15q-4 8 -16 36h-57v52q30 -3 102 -3
q67 0 112 3v-52h-51l118 -274l109 252q1 2 5 14q-21 8 -53 8v52q32 -3 94 -3q47 0 82 3v-52z" />
    <glyph glyph-name="x" unicode="x" horiz-adv-x="647" 
d="M619 0q-35 3 -112 3q-62 0 -120 -3v52h30l-112 122l-108 -113q11 -9 29 -9v-52q-35 3 -103 3q-64 0 -95 -3v52h17q42 0 57.5 4t25.5 14l139 145l-163 177h-70v52q35 -3 112 -3q62 0 120 3v-52h-30l99 -107l85 88q7 7 7 10q0 9 -27 9v52q35 -3 102 -3q65 0 95 3v-52
q-32 0 -46.5 -0.5t-29 -4.5t-22.5 -12l-127 -131l177 -192h70v-52z" />
    <glyph glyph-name="y" unicode="y" horiz-adv-x="647" 
d="M616 392q-44 0 -55 -3.5t-18 -17.5l-235 -461q-18 -35 -63 -73t-108 -38q-48 0 -80.5 29t-32.5 69q0 29 18.5 46t44.5 17q25 0 43.5 -16.5t18.5 -45.5q0 -37 -29 -54q8 -3 18 -3q55 0 97 54q17 25 56 105l-198 392h-63v52q40 -3 117 -3q65 0 123 3v-52h-47l134 -264
l122 241q5 10 5 13q0 4 -10 6.5t-20 3.5h-11v52q30 -3 90 -3q45 0 83 3v-52z" />
    <glyph glyph-name="z" unicode="z" horiz-adv-x="544" 
d="M492 206l-20 -206h-404q-12 0 -18 1t-11 7t-5 18q0 14 11 27l290 349h-83q-78 0 -109 -29.5t-36 -106.5h-56l13 178h391q12 0 17.5 -1t11 -6.5t5.5 -17.5q0 -11 -10 -23l-290 -349h88q47 0 77.5 10t47 32t23.5 48.5t11 68.5h56z" />
    <glyph glyph-name="braceleft" unicode="{" horiz-adv-x="575" 
d="M496 -232q0 -12 -6 -15t-25 -3q-21 0 -41 1.5t-49 6t-52.5 14t-45 24t-33.5 38.5t-12 55v210q0 39 -2 47q-8 32 -41 57.5t-94 28.5q-17 1 -17 18q0 12 4.5 14.5t17.5 3.5q62 3 99 37q23 20 28 40t5 72v206q1 58 64 92.5t169 34.5q13 0 18.5 -0.5t9 -4.5t3.5 -13
q0 -12 -4.5 -14.5t-17.5 -3.5q-53 -3 -92 -28q-39 -29 -39 -80v-210q0 -19 -1 -30t-7 -31t-17.5 -33.5t-35.5 -28t-58 -23.5q60 -16 89 -48t30 -68v-237q0 -25 3 -35q23 -69 133 -76q17 -1 17 -18z" />
    <glyph glyph-name="bar" unicode="|" horiz-adv-x="319" 
d="M190 -206q0 -44 -31 -44q-30 0 -30 44v912q0 44 31 44q30 0 30 -44v-912z" />
    <glyph glyph-name="braceright" unicode="}" horiz-adv-x="575" 
d="M496 250q0 -12 -4.5 -14.5t-17.5 -3.5q-65 -4 -97 -36q-24 -22 -29 -41t-5 -72v-206q-1 -56 -62.5 -91.5t-171.5 -35.5q-13 0 -18 0.5t-9 4.5t-4 13q0 12 4.5 14.5t17.5 3.5q57 3 95 30q17 13 26 28.5t10 24.5t1 25v210q0 19 1 30t7 31t17.5 33.5t35.5 28t58 23.5
q-61 17 -89.5 48.5t-29.5 67.5v237q0 25 -3 35q-22 70 -134 76q-17 1 -17 18q0 12 6.5 15t24.5 3q38 0 72.5 -5t74 -18t63.5 -43t24 -73v-210q0 -41 3 -49q24 -79 133 -84q17 -1 17 -18z" />
    <glyph glyph-name="asciitilde" unicode="~" horiz-adv-x="556" 
d="M555 290l-54 -44q-20 -17 -57 -35q-40 -18 -73 -18q-42 0 -100 34q-65 37 -104 37q-68 0 -153 -71l-14 17l54 44q20 17 57 35q40 18 73 18q42 0 100 -34q65 -37 104 -37q68 0 153 71z" />
    <glyph glyph-name="uni00A0" unicode="&#xa0;" 
 />
    <glyph glyph-name="exclamdown" unicode="&#xa1;" horiz-adv-x="373" 
d="M266 420q0 -33 -23.5 -56.5t-56.5 -23.5t-56.5 23.5t-23.5 56.5t23.5 56.5t56.5 23.5t56.5 -23.5t23.5 -56.5zM266 -134q0 -34 -25 -54t-55 -20t-55 19.5t-25 54.5l3 26l48 352q2 17 6.5 22t22.5 5t22.5 -5t6.5 -23l48 -351q1 -6 1.5 -11t1 -7.5t0.5 -4.5v-3z" />
    <glyph glyph-name="cent" unicode="&#xa2;" horiz-adv-x="544" 
d="M509 115q0 -5 -5.5 -18t-22 -34.5t-40.5 -36.5q-48 -29 -116 -32v-46q0 -11 -7.5 -18.5t-18.5 -7.5t-18.5 8t-7.5 18v46q-110 9 -171 73t-61 155q0 88 58 155t174 77v42q0 11 7.5 18.5t18.5 7.5t18.5 -7.5t7.5 -18.5v-41q170 -3 170 -99q0 -31 -19.5 -49.5t-48.5 -18.5
q-28 0 -47.5 19t-19.5 48q0 23 12 41l4 6q0 3 -51 6v-368q95 0 127 75q5 13 9.5 15.5t19.5 2.5q28 0 28 -18zM273 47v357q-33 -8 -54.5 -28.5t-30 -50.5t-10.5 -50.5t-2 -48.5q0 -150 97 -179z" />
    <glyph glyph-name="sterling" unicode="&#xa3;" horiz-adv-x="922" 
d="M858 148q0 -73 -37 -127t-98 -54q-44 0 -95 16.5t-75 28.5t-87 46q-12 -25 -38 -40.5t-68 -22t-74.5 -8t-85.5 -1.5q-55 0 -95.5 26.5t-40.5 71.5q0 97 190 97q44 0 98 -17q-3 19 -10 41t-12 35t-16.5 41t-14.5 36h-153v52h135q-11 46 -11 75q0 102 78 172t186 70
q94 0 163 -49t69 -128q0 -28 -20 -48t-48 -20t-48 20t-20 48q0 24 15 43t39 24q-50 54 -150 54q-63 0 -102.5 -55.5t-39.5 -130.5q0 -33 10 -75h205v-52h-190q4 -13 17 -48.5t19 -53.5t13 -47t8 -54q118 -53 187 -53q57 0 99 22t42 65h56zM354 108q-54 17 -100 17h-32
t-29.5 -1.5t-29 -4t-22 -6.5t-16.5 -11.5t-5 -17.5q0 -42 80 -42q139 0 154 66z" />
    <glyph glyph-name="currency" unicode="&#xa4;" horiz-adv-x="953" 
d="M764 -38q-24 -24 -56 8l-75 75q-68 -54 -157 -54q-87 0 -157 54l-75 -75q-32 -32 -56 -8t8 56l75 75q-53 71 -53 157t53 157l-75 75q-32 32 -8 56t56 -8l75 -75q70 54 157 54q89 0 157 -54l75 75q32 32 56 8t-8 -56l-74 -75q53 -69 53 -157t-53 -157l74 -75q32 -32 8 -56
zM667 250q0 79 -56 135t-135 56t-134.5 -56t-55.5 -135t55.5 -135t134.5 -56t135 56t56 135z" />
    <glyph glyph-name="yen" unicode="&#xa5;" horiz-adv-x="922" 
d="M897 634h-24q-26 0 -53 -3q-18 -2 -23.5 -4t-12.5 -12l-184 -248h138v-52h-176l-30 -40v-90h206v-52h-206v-81h107v-52q-39 3 -178 3q-141 0 -180 -3v52h108v81h-205v52h205v89l-30 41h-175v52h136l-197 267h-99v52q51 -3 172 -3q148 0 184 3v-52h-80l198 -267h20
l191 258q-27 9 -72 9v52l136 -3q79 0 124 3v-52z" />
    <glyph glyph-name="brokenbar" unicode="&#xa6;" horiz-adv-x="319" 
d="M190 341q0 -11 -9 -18.5t-21 -7.5q-13 0 -22 7.5t-9 18.5v365q0 44 31 44q30 0 30 -44v-365zM190 -206q0 -44 -31 -44q-30 0 -30 44v365q0 11 9 18.5t22 7.5q12 0 21 -7.5t9 -18.5v-365z" />
    <glyph glyph-name="section" unicode="&#xa7;" horiz-adv-x="737" 
d="M674 200q0 -45 -27.5 -80t-71.5 -52q30 -46 30 -97q0 -82 -70.5 -134t-166.5 -52q-86 0 -149 50.5t-63 127.5q0 29 20 48.5t48 19.5t48 -19.5t20 -48.5q0 -22 -12 -39t-32 -25q43 -28 120 -28q53 0 92 27.5t39 72.5q0 24 -19.5 42t-40 25.5t-55.5 16.5l-127 35
q-84 23 -139.5 79t-55.5 131q0 45 27 79.5t72 52.5q-30 44 -30 97q0 82 70.5 134t166.5 52q86 0 149 -50.5t63 -127.5q0 -29 -20 -48.5t-48 -19.5t-48 19.5t-20 48.5q0 22 12 39t32 25q-43 28 -120 28q-53 0 -92 -27.5t-39 -72.5q0 -24 19.5 -42t40 -25.5t55.5 -16.5
l127 -35q84 -23 139.5 -79t55.5 -131zM556 200q0 64 -109 92l-127 35q-62 17 -110 54q-30 -28 -30 -81q0 -64 109 -92l127 -35q67 -20 110 -55q30 28 30 82z" />
    <glyph glyph-name="dieresis" unicode="&#xa8;" 
d="M246 605q0 -29 -21.5 -50.5t-51.5 -21.5q-29 0 -50.5 21t-21.5 51t21 51t52 21q29 0 50.5 -21t21.5 -51zM512 605q0 -29 -21.5 -50.5t-51.5 -21.5q-29 0 -50.5 21t-21.5 51t21 51t52 21q29 0 50.5 -21t21.5 -51z" />
    <glyph glyph-name="copyright" unicode="&#xa9;" horiz-adv-x="686" 
d="M686 343q0 -142 -100.5 -242.5t-242.5 -100.5t-242.5 100.5t-100.5 242.5t100.5 242.5t242.5 100.5q143 0 243 -100t100 -243zM618 343q0 114 -80.5 194.5t-194.5 80.5t-194.5 -80.5t-80.5 -194.5t80.5 -194.5t194.5 -80.5t194.5 80.5t80.5 194.5zM475 296
q0 -39 -36.5 -68.5t-94.5 -29.5q-81 0 -126.5 41.5t-45.5 103.5q0 63 46 104t126 41q47 0 86 -28l26 24q5 4 10 4q9 0 9 -13v-87q0 -9 -2.5 -11t-11.5 -2q-12 0 -13 9q-7 40 -34.5 61.5t-61.5 21.5q-58 0 -90 -34q-26 -29 -26 -90q0 -62 27 -90q30 -34 90 -34
q40 0 68.5 21.5t30.5 53.5q0 8 2 10t9 2q12 0 12 -10z" />
    <glyph glyph-name="ordfeminine" unicode="&#xaa;" horiz-adv-x="528" 
d="M499 400q0 -12 -7 -15t-22 -3h-44q-91 0 -91 47q-41 -52 -133 -52q-75 0 -124 20.5t-49 62.5q0 30 27 52.5t71.5 34t92 17t99.5 5.5v21q0 81 -96 81q-34 0 -64 -5q17 -13 17 -36q0 -20 -16 -33.5t-41 -13.5q-22 0 -39 13t-17 35q0 69 161 69q98 0 148 -30.5t50 -80.5
v-148q0 -10 2 -13.5t13.5 -6.5t36.5 -3t25 -18zM473 329q0 -8 -7.5 -13.5t-18.5 -5.5h-366q-11 0 -18.5 5.5t-7.5 13.5q0 7 7.5 12.5t18.5 5.5h366q11 0 18.5 -5.5t7.5 -12.5zM319 478v65q-83 -2 -135 -24t-52 -58q0 -24 24.5 -39.5t58.5 -15.5q5 0 12.5 0.5t25 4.5t31 10.5
t24.5 21.5t11 35z" />
    <glyph glyph-name="guillemotleft" unicode="&#xab;" horiz-adv-x="681" 
d="M337 17q0 -7 -5 -12t-12 -5h-8q-11 0 -16 10q-52 125 -157 209q-6 6 -6 14q0 9 6 13q105 84 157 209q5 10 16 10h8q7 0 12 -5t5 -12v-3q-24 -111 -79 -212q55 -103 79 -212v-4zM544 17q0 -7 -5 -12t-12 -5h-8q-11 0 -16 10q-52 125 -157 209q-6 6 -6 14q0 9 6 13
q105 84 157 209q5 10 16 10h8q7 0 12 -5t5 -12v-3q-24 -111 -79 -212q55 -103 79 -212v-4z" />
    <glyph glyph-name="logicalnot" unicode="&#xac;" horiz-adv-x="953" 
d="M884 129q0 -14 -10 -24t-24 -10t-24 10t-10 24v208h-714q-14 0 -24 10t-10 24t10 24t24 10h748q14 0 24 -10t10 -24v-242z" />
    <glyph glyph-name="uni00AD" unicode="&#xad;" horiz-adv-x="408" 
d="M339 170h-325v105h325v-105z" />
    <glyph glyph-name="registered" unicode="&#xae;" horiz-adv-x="686" 
d="M686 343q0 -142 -100.5 -242.5t-242.5 -100.5t-242.5 100.5t-100.5 242.5t100.5 242.5t242.5 100.5q143 0 243 -100t100 -243zM618 343q0 114 -80.5 194.5t-194.5 80.5t-194.5 -80.5t-80.5 -194.5t80.5 -194.5t194.5 -80.5t194.5 80.5t80.5 194.5zM533 247q0 -8 -3 -17
t-16 -19t-33 -10q-43 0 -66 13q-18 10 -22 22.5t-4 37.5q0 23 -2 31.5t-10 16.5q-15 15 -40 15h-52v-109h43v-21q-15 1 -72 1t-73 -1v21h44v236h-44v21h161q58 0 93 -21.5t35 -54.5q0 -21 -17.5 -38.5t-49.5 -25.5q19 -7 29 -19t12.5 -20.5t5.5 -26.5q3 -22 5 -32.5t9 -19.5
t19 -9q23 0 25 29q2 10 12 10q11 0 11 -10zM407 409q0 17 -2.5 26.5t-18.5 19t-47 9.5h-54v-110h52q24 0 39.5 5t21.5 14t7.5 16.5t1.5 19.5z" />
    <glyph glyph-name="macron" unicode="&#xaf;" 
d="M527 576h-442v58h442v-58z" />
    <glyph glyph-name="degree" unicode="&#xb0;" horiz-adv-x="459" 
d="M400 516q0 -70 -50 -120t-120 -50t-120 50t-50 120t50 120t120 50t120 -50t50 -120zM332 516q0 42 -30 72t-72 30q-43 0 -72.5 -30t-29.5 -72t29.5 -72t72.5 -30q42 0 72 30t30 72z" />
    <glyph glyph-name="plusminus" unicode="&#xb1;" horiz-adv-x="953" 
d="M884 34q0 -34 -46 -34h-724q-46 0 -46 34t46 34h328v245h-328q-46 0 -46 34t46 34h328v267q0 46 34 46t34 -46v-267h328q46 0 46 -34t-46 -34h-328v-245h328q46 0 46 -34z" />
    <glyph glyph-name="two.superior" unicode="&#xb2;" horiz-adv-x="441" 
d="M397 442l-24 -137h-329v13q0 12 9 19l159 124q80 63 80 122q0 36 -27 61t-73 25q-44 0 -72 -17q34 -10 34 -43q0 -22 -17 -34t-38 -12q-20 0 -37.5 11.5t-17.5 35.5q0 41 47 65.5t118 24.5q83 0 135.5 -32t52.5 -85q0 -52 -69 -97q-5 -3 -57 -33.5t-109 -67.5h99
q68 0 76 4q13 7 19 53h41z" />
    <glyph glyph-name="three.superior" unicode="&#xb3;" horiz-adv-x="441" 
d="M404 413q0 -45 -48 -80.5t-145 -35.5q-76 0 -125 26t-49 69q0 23 16.5 36t41.5 13q26 0 42 -13.5t16 -35.5q0 -33 -38 -46q40 -21 92 -21q29 0 47 9t25 26t8.5 27t1.5 26t-2 27t-9 27.5t-26 25.5t-48 9h-35q-22 0 -22 12q0 9 5.5 11t23.5 3q33 2 45.5 5t27.5 16
q27 27 27 68q0 10 -1.5 17t-7 17.5t-20.5 16.5t-38 6q-50 0 -82 -22q41 -9 41 -44q0 -20 -16 -32t-38 -12q-19 0 -36 11.5t-17 34.5q0 38 42 64t110 26q78 0 122 -24t44 -61q0 -62 -98 -98q58 -10 90.5 -38.5t32.5 -65.5z" />
    <glyph glyph-name="acute" unicode="&#xb4;" 
d="M462 637q0 -32 -39 -54l-163 -78l-32 45l124 131q21 23 46 23q26 0 45 -21.5t19 -45.5z" />
    <glyph glyph-name="uni00B5" unicode="&#xb5;" horiz-adv-x="681" 
d="M648 0l-182 -7v70q-52 -70 -153 -70q-45 0 -70 4v-139h66v-52q-54 3 -127 3t-127 -3v52h66v492q0 30 -9.5 35.5t-56.5 5.5v52l188 8v-340q0 -45 13 -60.5t71 -15.5t95.5 34t37.5 95v186q0 30 -10 35.5t-56 5.5v52l188 8v-358q0 -30 10 -35.5t56 -5.5v-52z" />
    <glyph glyph-name="paragraph" unicode="&#xb6;" horiz-adv-x="703" 
d="M670 663q0 -30 -45 -30h-51v-783q0 -44 -31 -44q-30 0 -30 44v783h-80v-783q0 -44 -31 -44q-30 0 -30 44v370q-138 8 -223 72.5t-85 164.5q0 102 85 169.5t202 67.5h274q45 0 45 -31z" />
    <glyph glyph-name="periodcentered" unicode="&#xb7;" horiz-adv-x="953" 
d="M556 343q0 -33 -23.5 -56.5t-56.5 -23.5t-56.5 23.5t-23.5 56.5t23.5 56.5t56.5 23.5t56.5 -23.5t23.5 -56.5z" />
    <glyph glyph-name="cedilla" unicode="&#xb8;" horiz-adv-x="544" 
d="M436 -121q0 -19 -10.5 -33t-33.5 -22.5t-44.5 -13.5t-59 -7t-60 -2.5t-63.5 -0.5h-56v56h28q163 0 163 23q0 15 -22 19t-62 4v103h112v-47q44 0 76 -21.5t32 -57.5z" />
    <glyph glyph-name="one.superior" unicode="&#xb9;" horiz-adv-x="446" 
d="M379 305q-26 2 -152 2q-128 0 -154 -2v32h108v306q-45 -12 -99 -12h-16v31h16q100 0 158 38q17 0 22.5 -1t8 -5t2.5 -14v-343h106v-32z" />
    <glyph glyph-name="ordmasculine" unicode="&#xba;" horiz-adv-x="514" 
d="M486 534q0 -66 -59 -111.5t-170 -45.5q-110 0 -169 45t-59 112q0 71 59 118.5t169 47.5t169.5 -48t59.5 -118zM460 329q0 -8 -7.5 -13.5t-18.5 -5.5h-353q-26 0 -26 19q0 8 7.5 13t18.5 5h353q11 0 18.5 -5.5t7.5 -12.5zM372 543q0 29 -2 45t-12 38.5t-35 33.5t-66 11
q-33 0 -56 -8.5t-34.5 -19.5t-17 -31t-6.5 -33t-1 -36q0 -31 2 -48t12 -40t35 -34t66 -11t66 11t35 34t12 40t2 48z" />
    <glyph glyph-name="guillemotright" unicode="&#xbb;" horiz-adv-x="681" 
d="M548 233q0 -7 -7 -14q-105 -84 -157 -209q-3 -10 -15 -10h-8q-7 0 -12 5t-5 12v4q24 113 79 212q-54 96 -79 212v3q0 17 17 17h8q12 0 15 -10q52 -125 157 -209q7 -5 7 -13zM341 233q0 -7 -7 -14q-105 -84 -157 -209q-3 -10 -15 -10h-8q-7 0 -12 5t-5 12v4q24 113 79 212
q-54 96 -79 212v3q0 17 17 17h8q12 0 15 -10q52 -125 157 -209q7 -5 7 -13z" />
    <glyph glyph-name="onequarter" unicode="&#xbc;" horiz-adv-x="1043" 
d="M379 305q-26 2 -152 2q-128 0 -154 -2v32h108v306q-45 -12 -99 -12h-16v31h16q100 0 158 38q17 0 22.5 -1t8 -5t2.5 -14v-343h106v-32zM977 0q-32 2 -126 2q-104 0 -130 -2v31h85v61h-221v32l263 262q9 9 29 9q16 0 20.5 -3t4.5 -17v-251h75v-32h-75v-61h75v-31zM853 666
q0 -11 -7 -20l-490 -647q-10 -13 -27 -13q-14 0 -24 10t-10 24q0 13 7 21l490 646q10 13 27 13q14 0 24 -10t10 -24zM816 124v185l-186 -185h186z" />
    <glyph glyph-name="onehalf" unicode="&#xbd;" horiz-adv-x="1043" 
d="M379 305q-26 2 -152 2q-128 0 -154 -2v32h108v306q-45 -12 -99 -12h-16v31h16q100 0 158 38q17 0 22.5 -1t8 -5t2.5 -14v-343h106v-32zM977 137l-24 -137h-329v13q0 11 9 19l159 123q81 62 81 122q0 36 -27 61.5t-74 25.5q-43 0 -71 -18q33 -11 33 -42q0 -22 -17 -34.5
t-38 -12.5q-19 0 -37 11.5t-18 35.5q0 42 47 66.5t118 24.5q83 0 135.5 -32t52.5 -85q0 -52 -68 -97q-6 -4 -58 -34t-109 -67h100q67 0 75 3q13 5 20 54h40zM801 666q0 -11 -7 -20l-490 -647q-11 -13 -27 -13q-14 0 -24 10t-10 24q0 12 6 21l490 646q11 13 28 13
q14 0 24 -10t10 -24z" />
    <glyph glyph-name="threequarters" unicode="&#xbe;" horiz-adv-x="1043" 
d="M441 413q0 -45 -48 -80.5t-145 -35.5q-76 0 -125.5 26t-49.5 69q0 22 17 35.5t42 13.5q26 0 42 -13.5t16 -35.5q0 -33 -38 -46q40 -21 92 -21q23 0 39.5 7t24 15.5t12 23t5 22.5t0.5 20q0 17 -1.5 27.5t-8.5 27t-26 25.5t-48 9h-35q-22 0 -22 12q0 9 5.5 11t23.5 3
q33 2 45.5 5t27.5 16q26 26 26 68q0 10 -1.5 17t-6.5 17.5t-20 16.5t-38 6q-50 0 -82 -22q40 -9 40 -44q0 -20 -15.5 -32t-37.5 -12q-19 0 -36 11.5t-17 34.5q0 38 41.5 64t110.5 26q78 0 122 -24t44 -61q0 -62 -98 -98q57 -10 90 -38.5t33 -65.5zM977 0q-32 2 -126 2
q-104 0 -130 -2v31h85v61h-221v32l263 262q9 9 29 9q16 0 20.5 -3t4.5 -17v-251h75v-32h-75v-61h75v-31zM853 666q0 -11 -7 -20l-490 -647q-10 -13 -27 -13q-14 0 -24 10t-10 24q0 13 7 21l490 646q10 13 27 13q14 0 24 -10t10 -24zM816 124v185l-186 -185h186z" />
    <glyph glyph-name="questiondown" unicode="&#xbf;" horiz-adv-x="578" 
d="M351 420q0 -33 -23.5 -56.5t-56.5 -23.5t-56.5 23.5t-23.5 56.5t23.5 56.5t56.5 23.5t56.5 -23.5t23.5 -56.5zM509 -73q0 -30 -14 -53.5t-39 -36.5t-49 -21.5t-55.5 -11.5t-46.5 -4t-34 -1q-16 0 -29 1t-40.5 4t-47.5 11.5t-41.5 21.5t-33 36.5t-11.5 54.5q0 63 56 99
q119 76 119 188v25q0 13 1 18.5t7 9t20 3.5q20 0 24 -7t4 -40q0 -127 -74 -222q-9 -12 -12.5 -19t-6.5 -22.5t-3 -39.5q0 -26 1.5 -37.5t8 -23.5t21.5 -15.5t42 -3.5q87 0 136 26q-38 18 -38 61q0 32 20.5 50t47.5 18q24 0 45.5 -17t21.5 -52z" />
    <glyph glyph-name="Agrave" unicode="&#xc0;" horiz-adv-x="922" 
d="M876 0q-63 3 -168 3q-141 0 -178 -3v52h93l-61 139h-287l-51 -116l-5 -14q29 -9 88 -9v-52l-136 3q-75 0 -126 -3v52h24q25 0 51 3q18 2 22.5 5t9.5 14l261 601q7 18 17.5 22t30.5 4q13 0 19.5 -1t14.5 -7t13 -18l270 -623h98v-52zM540 243l-121 279l-121 -279h242z
M544 791l-24 -50l-174 48l-5 2q-5 2 -8 3t-8 4t-8.5 6t-8 8t-7 11t-3.5 13q-8 29 10.5 53.5t49.5 24.5q19 0 41 -16z" />
    <glyph glyph-name="Aacute" unicode="&#xc1;" horiz-adv-x="922" 
d="M876 0q-63 3 -168 3q-141 0 -178 -3v52h93l-61 139h-287l-51 -116l-5 -14q29 -9 88 -9v-52l-136 3q-75 0 -126 -3v52h24q25 0 51 3q18 2 22.5 5t9.5 14l261 601q7 18 17.5 22t30.5 4q13 0 19.5 -1t14.5 -7t13 -18l270 -623h98v-52zM540 243l-121 279l-121 -279h242z
M625 836q-1 -7 -3.5 -13t-7 -11t-8 -8t-8.5 -6t-8 -4t-8 -3l-5 -2l-174 -48l-24 50l145 107q21 16 41 16q31 0 49.5 -24.5t10.5 -53.5z" />
    <glyph glyph-name="Acircumflex" unicode="&#xc2;" horiz-adv-x="922" 
d="M876 0q-63 3 -168 3q-141 0 -178 -3v52h93l-61 139h-287l-51 -116l-5 -14q29 -9 88 -9v-52l-136 3q-75 0 -126 -3v52h24q25 0 51 3q18 2 22.5 5t9.5 14l261 601q7 18 17.5 22t30.5 4q13 0 19.5 -1t14.5 -7t13 -18l270 -623h98v-52zM540 243l-121 279l-121 -279h242z
M636 755l-16 -24l-160 58l-160 -58l-14 24l175 141z" />
    <glyph glyph-name="Atilde" unicode="&#xc3;" horiz-adv-x="922" 
d="M876 0q-63 3 -168 3q-141 0 -178 -3v52h93l-61 139h-287l-51 -116l-5 -14q29 -9 88 -9v-52l-136 3q-75 0 -126 -3v52h24q25 0 51 3q18 2 22.5 5t9.5 14l261 601q7 18 17.5 22t30.5 4q13 0 19.5 -1t14.5 -7t13 -18l270 -623h98v-52zM540 243l-121 279l-121 -279h242z
M665 823q-27 -26 -38.5 -38.5t-16.5 -17.5q-38 -36 -81 -36q-27 0 -70 16q-61 24 -88 24q-28 0 -50.5 -13t-33.5 -27l-30 30q27 26 38.5 38.5t16.5 17.5q38 36 81 36q27 0 70 -16q61 -24 88 -24q28 0 50.5 13t33.5 27z" />
    <glyph glyph-name="Adieresis" unicode="&#xc4;" horiz-adv-x="922" 
d="M876 0q-63 3 -168 3q-141 0 -178 -3v52h93l-61 139h-287l-51 -116l-5 -14q29 -9 88 -9v-52l-136 3q-75 0 -126 -3v52h24q25 0 51 3q18 2 22.5 5t9.5 14l261 601q7 18 17.5 22t30.5 4q13 0 19.5 -1t14.5 -7t13 -18l270 -623h98v-52zM540 243l-121 279l-121 -279h242z
M377 803q0 -29 -21.5 -50.5t-51.5 -21.5q-29 0 -50.5 21t-21.5 51t21 51t52 21q29 0 50.5 -21t21.5 -51zM691 803q0 -29 -21.5 -50.5t-51.5 -21.5q-29 0 -50.5 21t-21.5 51t21 51t52 21q29 0 50.5 -21t21.5 -51z" />
    <glyph glyph-name="Aring" unicode="&#xc5;" horiz-adv-x="922" 
d="M876 0q-63 3 -168 3q-141 0 -178 -3v52h93l-61 139h-287l-51 -116l-5 -14q29 -9 88 -9v-52l-136 3q-75 0 -126 -3v52h24q25 0 51 3q18 2 22.5 5t9.5 14l261 601q7 18 17.5 22t30.5 4q13 0 19.5 -1t14.5 -7t13 -18l270 -623h98v-52zM540 243l-121 279l-121 -279h242z
M528 785q0 18 -10 26t-21 9.5t-36 1.5q-37 0 -52 -6.5t-15 -30.5q0 -18 10 -26t21 -9.5t36 -1.5q37 0 52 6.5t15 30.5zM592 784q0 -31 -31 -57t-101 -26q-65 0 -97.5 24.5t-32.5 60.5q0 31 31 57t101 26q65 0 97.5 -24.5t32.5 -60.5z" />
    <glyph glyph-name="AE" unicode="&#xc6;" horiz-adv-x="1108" 
d="M1073 275l-49 -275h-593v52h81v252h-183l-103 -228l-5 -15q29 -9 87 -9v-52l-136 3q-77 0 -126 -3v52h23q27 0 52 3q18 2 22.5 5t9.5 14l252 560h-69v52h670l33 -243h-56q-6 51 -15 81t-29.5 58t-57.5 40t-95 12h-134v-278h67q68 0 90 25.5t22 89.5h56v-282h-56
q0 64 -22 89.5t-90 25.5h-67v-252h137q64 0 106.5 14.5t66 47.5t34.5 67.5t21 93.5h56zM512 356v278h-34l-125 -278h159z" />
    <glyph glyph-name="Ccedilla" unicode="&#xc7;" horiz-adv-x="885" 
d="M816 227q0 -87 -75.5 -156.5t-197.5 -81.5v-31q44 0 75.5 -21.5t31.5 -57.5q0 -19 -10.5 -33t-33.5 -22.5t-44.5 -13.5t-59 -7t-60 -2.5t-63.5 -0.5h-56v56h28q163 0 163 23t-83 23v87q-172 17 -267.5 115.5t-95.5 238.5q0 154 113.5 255.5t311.5 101.5q115 0 212 -68
l66 58q11 10 23 10q10 0 15 -4.5t6 -9.5t1 -17v-215q0 -22 -5.5 -26.5t-27.5 -4.5q-14 0 -19 1t-9 5t-5 14q-18 100 -85.5 152.5t-151.5 52.5q-145 0 -222 -84q-63 -69 -63 -221q0 -151 65 -222q75 -83 223 -83q99 0 169 53t75 131q1 19 5.5 24t22.5 5q11 0 15.5 -1
t8.5 -6.5t4 -16.5z" />
    <glyph glyph-name="Egrave" unicode="&#xc8;" horiz-adv-x="803" 
d="M768 275l-49 -275h-672v52h108v576h-108v52h654l33 -243h-56q-14 108 -59 149.5t-152 41.5h-163v-249h60q67 0 89 25.5t22 89.5h56v-282h-56q0 64 -22 89.5t-89 25.5h-60v-275h166q54 0 93 10t64 26.5t42 46.5t26 61.5t17 78.5h56zM484 791l-24 -50l-174 48l-5 2
q-5 2 -8 3t-8 4t-8.5 6t-8 8t-7 11t-3.5 13q-8 29 10.5 53.5t49.5 24.5q19 0 41 -16z" />
    <glyph glyph-name="Eacute" unicode="&#xc9;" horiz-adv-x="803" 
d="M768 275l-49 -275h-672v52h108v576h-108v52h654l33 -243h-56q-14 108 -59 149.5t-152 41.5h-163v-249h60q67 0 89 25.5t22 89.5h56v-282h-56q0 64 -22 89.5t-89 25.5h-60v-275h166q54 0 93 10t64 26.5t42 46.5t26 61.5t17 78.5h56zM565 836q-1 -7 -3.5 -13t-7 -11t-8 -8
t-8.5 -6t-8 -4t-8 -3l-5 -2l-174 -48l-24 50l145 107q21 16 41 16q31 0 49.5 -24.5t10.5 -53.5z" />
    <glyph glyph-name="Ecircumflex" unicode="&#xca;" horiz-adv-x="803" 
d="M768 275l-49 -275h-672v52h108v576h-108v52h654l33 -243h-56q-14 108 -59 149.5t-152 41.5h-163v-249h60q67 0 89 25.5t22 89.5h56v-282h-56q0 64 -22 89.5t-89 25.5h-60v-275h166q54 0 93 10t64 26.5t42 46.5t26 61.5t17 78.5h56zM576 755l-16 -24l-160 58l-160 -58
l-14 24l175 141z" />
    <glyph glyph-name="Edieresis" unicode="&#xcb;" horiz-adv-x="803" 
d="M768 275l-49 -275h-672v52h108v576h-108v52h654l33 -243h-56q-14 108 -59 149.5t-152 41.5h-163v-249h60q67 0 89 25.5t22 89.5h56v-282h-56q0 64 -22 89.5t-89 25.5h-60v-275h166q54 0 93 10t64 26.5t42 46.5t26 61.5t17 78.5h56zM317 803q0 -29 -21.5 -50.5
t-51.5 -21.5q-29 0 -50.5 21t-21.5 51t21 51t52 21q29 0 50.5 -21t21.5 -51zM631 803q0 -29 -21.5 -50.5t-51.5 -21.5q-29 0 -50.5 21t-21.5 51t21 51t52 21q29 0 50.5 -21t21.5 -51z" />
    <glyph glyph-name="Igrave" unicode="&#xcc;" horiz-adv-x="459" 
d="M417 0q-37 3 -188 3q-150 0 -187 -3v52h113v582h-113v52q37 -3 188 -3q150 0 187 3v-52h-113v-582h113v-52zM312 791l-24 -50l-174 48l-5 2q-5 2 -8 3t-8 4t-8.5 6t-8 8t-7 11t-3.5 13q-8 29 10.5 53.5t49.5 24.5q19 0 41 -16z" />
    <glyph glyph-name="Iacute" unicode="&#xcd;" horiz-adv-x="459" 
d="M417 0q-37 3 -188 3q-150 0 -187 -3v52h113v582h-113v52q37 -3 188 -3q150 0 187 3v-52h-113v-582h113v-52zM393 836q-1 -7 -3.5 -13t-7 -11t-8 -8t-8.5 -6t-8 -4t-8 -3l-5 -2l-174 -48l-24 50l145 107q21 16 41 16q31 0 49.5 -24.5t10.5 -53.5z" />
    <glyph glyph-name="Icircumflex" unicode="&#xce;" horiz-adv-x="459" 
d="M417 0q-37 3 -188 3q-150 0 -187 -3v52h113v582h-113v52q37 -3 188 -3q150 0 187 3v-52h-113v-582h113v-52zM404 755l-16 -24l-160 58l-160 -58l-14 24l175 141z" />
    <glyph glyph-name="Idieresis" unicode="&#xcf;" horiz-adv-x="459" 
d="M417 0q-37 3 -188 3q-150 0 -187 -3v52h113v582h-113v52q37 -3 188 -3q150 0 187 3v-52h-113v-582h113v-52zM145 803q0 -29 -21.5 -50.5t-51.5 -21.5q-29 0 -50.5 21t-21.5 51t21 51t52 21q29 0 50.5 -21t21.5 -51zM459 803q0 -29 -21.5 -50.5t-51.5 -21.5
q-29 0 -50.5 21t-21.5 51t21 51t52 21q29 0 50.5 -21t21.5 -51z" />
    <glyph glyph-name="Eth" unicode="&#xd0;" horiz-adv-x="938" 
d="M869 337q0 -154 -102.5 -245.5t-265.5 -91.5h-454v52h108v265h-108v52h108v265h-108v52h453q162 0 265.5 -94.5t103.5 -254.5zM715 339q0 30 -0.5 47.5t-5.5 52t-14 57.5t-28 51.5t-45.5 45.5t-68.5 29t-95 12h-160v-265h171v-52h-171v-265h161q53 0 94.5 11.5t68 27.5
t45.5 44t28 49.5t14 55.5t5.5 51.5t0.5 47.5z" />
    <glyph glyph-name="Ntilde" unicode="&#xd1;" horiz-adv-x="955" 
d="M907 634h-28q-25 0 -51 -2q-21 -2 -25 -5.5t-4 -19.5v-573q0 -20 -5 -27t-26 -7q-20 0 -31 12l-520 576v-509q0 -15 4 -18.5t23 -5.5q23 -3 53 -3h28v-52l-139 3l-139 -3v52h28q25 0 51 2q21 2 25 5.5t4 19.5v555h-108v52h234q15 0 20 -2t15 -12l421 -465v400
q0 15 -4 18.5t-23 5.5q-23 3 -53 3h-28v52l139 -3l139 3v-52zM681 823q-27 -26 -38.5 -38.5t-16.5 -17.5q-38 -36 -81 -36q-27 0 -70 16q-61 24 -88 24q-28 0 -50.5 -13t-33.5 -27l-30 30q27 26 38.5 38.5t16.5 17.5q38 36 81 36q27 0 70 -16q61 -24 88 -24q28 0 50.5 13
t33.5 27z" />
    <glyph glyph-name="Ograve" unicode="&#xd2;" horiz-adv-x="920" 
d="M851 339q0 -153 -103.5 -253t-288.5 -100q-183 0 -287 99t-104 254q0 158 104 259.5t287 101.5q185 0 288.5 -102t103.5 -259zM691 354q0 145 -52 215q-63 84 -180 84q-61 0 -106 -23.5t-69 -54.5q-32 -43 -44 -94.5t-12 -126.5q0 -142 42 -213q63 -106 190 -106
q57 0 106 25.5t78 72.5q47 78 47 221zM543 791l-24 -50l-174 48l-5 2q-5 2 -8 3t-8 4t-8.5 6t-8 8t-7 11t-3.5 13q-8 29 10.5 53.5t49.5 24.5q19 0 41 -16z" />
    <glyph glyph-name="Oacute" unicode="&#xd3;" horiz-adv-x="920" 
d="M851 339q0 -153 -103.5 -253t-288.5 -100q-183 0 -287 99t-104 254q0 158 104 259.5t287 101.5q185 0 288.5 -102t103.5 -259zM691 354q0 145 -52 215q-63 84 -180 84q-61 0 -106 -23.5t-69 -54.5q-32 -43 -44 -94.5t-12 -126.5q0 -142 42 -213q63 -106 190 -106
q57 0 106 25.5t78 72.5q47 78 47 221zM624 836q-1 -7 -3.5 -13t-7 -11t-8 -8t-8.5 -6t-8 -4t-8 -3l-5 -2l-174 -48l-24 50l145 107q21 16 41 16q31 0 49.5 -24.5t10.5 -53.5z" />
    <glyph glyph-name="Ocircumflex" unicode="&#xd4;" horiz-adv-x="920" 
d="M851 339q0 -153 -103.5 -253t-288.5 -100q-183 0 -287 99t-104 254q0 158 104 259.5t287 101.5q185 0 288.5 -102t103.5 -259zM691 354q0 145 -52 215q-63 84 -180 84q-61 0 -106 -23.5t-69 -54.5q-32 -43 -44 -94.5t-12 -126.5q0 -142 42 -213q63 -106 190 -106
q57 0 106 25.5t78 72.5q47 78 47 221zM635 755l-16 -24l-160 58l-160 -58l-14 24l175 141z" />
    <glyph glyph-name="Otilde" unicode="&#xd5;" horiz-adv-x="920" 
d="M851 339q0 -153 -103.5 -253t-288.5 -100q-183 0 -287 99t-104 254q0 158 104 259.5t287 101.5q185 0 288.5 -102t103.5 -259zM691 354q0 145 -52 215q-63 84 -180 84q-61 0 -106 -23.5t-69 -54.5q-32 -43 -44 -94.5t-12 -126.5q0 -142 42 -213q63 -106 190 -106
q57 0 106 25.5t78 72.5q47 78 47 221zM664 823q-27 -26 -38.5 -38.5t-16.5 -17.5q-38 -36 -81 -36q-27 0 -70 16q-61 24 -88 24q-28 0 -50.5 -13t-33.5 -27l-30 30q27 26 38.5 38.5t16.5 17.5q38 36 81 36q27 0 70 -16q61 -24 88 -24q28 0 50.5 13t33.5 27z" />
    <glyph glyph-name="Odieresis" unicode="&#xd6;" horiz-adv-x="920" 
d="M851 339q0 -153 -103.5 -253t-288.5 -100q-183 0 -287 99t-104 254q0 158 104 259.5t287 101.5q185 0 288.5 -102t103.5 -259zM691 354q0 145 -52 215q-63 84 -180 84q-61 0 -106 -23.5t-69 -54.5q-32 -43 -44 -94.5t-12 -126.5q0 -142 42 -213q63 -106 190 -106
q57 0 106 25.5t78 72.5q47 78 47 221zM376 803q0 -29 -21.5 -50.5t-51.5 -21.5q-29 0 -50.5 21t-21.5 51t21 51t52 21q29 0 50.5 -21t21.5 -51zM690 803q0 -29 -21.5 -50.5t-51.5 -21.5q-29 0 -50.5 21t-21.5 51t21 51t52 21q29 0 50.5 -21t21.5 -51z" />
    <glyph glyph-name="multiply" unicode="&#xd7;" horiz-adv-x="953" 
d="M764 -38q-24 -24 -56 8l-232 232l-232 -232q-32 -32 -56 -8t8 56l232 232l-232 232q-32 32 -8 56t56 -8l232 -232l232 232q32 32 56 8t-8 -56l-232 -232l232 -232q32 -32 8 -56z" />
    <glyph glyph-name="Oslash" unicode="&#xd8;" horiz-adv-x="953" 
d="M884 339q0 -152 -107 -252.5t-301 -100.5q-118 0 -207 40l-66 -89l-37 28l61 83q-51 31 -86 73t-49 85.5t-19 73.5t-5 59q0 155 106.5 258t301.5 103q116 0 207 -40l66 89l37 -28l-62 -84q85 -51 122.5 -132t37.5 -166zM643 608q-63 50 -167 50q-128 0 -198 -78
q-61 -70 -61 -240q0 -75 10.5 -131t45.5 -99zM735 340q0 80 -11.5 135.5t-45.5 99.5l-370 -498q62 -49 168 -49q132 0 199 77q37 44 48.5 99t11.5 136z" />
    <glyph glyph-name="Ugrave" unicode="&#xd9;" horiz-adv-x="939" 
d="M891 634h-28q-25 0 -51 -2q-21 -2 -25 -5.5t-4 -19.5v-377q0 -102 -74.5 -173t-221.5 -71q-158 0 -245 70t-87 175v403h-108v52q38 -3 183 -3q144 0 182 3v-52h-108v-409q0 -24 1.5 -41.5t11.5 -47.5t28 -49t55.5 -34t90.5 -15q100 0 163 47.5t63 146.5v375q0 15 -4 18.5
t-23 5.5q-23 3 -53 3h-28v52l141 -3l141 3v-52zM580 791l-24 -50l-174 48l-5 2q-5 2 -8 3t-8 4t-8.5 6t-8 8t-7 11t-3.5 13q-8 29 10.5 53.5t49.5 24.5q19 0 41 -16z" />
    <glyph glyph-name="Uacute" unicode="&#xda;" horiz-adv-x="939" 
d="M891 634h-28q-25 0 -51 -2q-21 -2 -25 -5.5t-4 -19.5v-377q0 -102 -74.5 -173t-221.5 -71q-158 0 -245 70t-87 175v403h-108v52q38 -3 183 -3q144 0 182 3v-52h-108v-409q0 -24 1.5 -41.5t11.5 -47.5t28 -49t55.5 -34t90.5 -15q100 0 163 47.5t63 146.5v375q0 15 -4 18.5
t-23 5.5q-23 3 -53 3h-28v52l141 -3l141 3v-52zM661 836q-1 -7 -3.5 -13t-7 -11t-8 -8t-8.5 -6t-8 -4t-8 -3l-5 -2l-174 -48l-24 50l145 107q21 16 41 16q31 0 49.5 -24.5t10.5 -53.5z" />
    <glyph glyph-name="Ucircumflex" unicode="&#xdb;" horiz-adv-x="939" 
d="M891 634h-28q-25 0 -51 -2q-21 -2 -25 -5.5t-4 -19.5v-377q0 -102 -74.5 -173t-221.5 -71q-158 0 -245 70t-87 175v403h-108v52q38 -3 183 -3q144 0 182 3v-52h-108v-409q0 -24 1.5 -41.5t11.5 -47.5t28 -49t55.5 -34t90.5 -15q100 0 163 47.5t63 146.5v375q0 15 -4 18.5
t-23 5.5q-23 3 -53 3h-28v52l141 -3l141 3v-52zM672 755l-16 -24l-160 58l-160 -58l-14 24l175 141z" />
    <glyph glyph-name="Udieresis" unicode="&#xdc;" horiz-adv-x="939" 
d="M891 634h-28q-25 0 -51 -2q-21 -2 -25 -5.5t-4 -19.5v-377q0 -102 -74.5 -173t-221.5 -71q-158 0 -245 70t-87 175v403h-108v52q38 -3 183 -3q144 0 182 3v-52h-108v-409q0 -24 1.5 -41.5t11.5 -47.5t28 -49t55.5 -34t90.5 -15q100 0 163 47.5t63 146.5v375q0 15 -4 18.5
t-23 5.5q-23 3 -53 3h-28v52l141 -3l141 3v-52zM413 803q0 -29 -21.5 -50.5t-51.5 -21.5q-29 0 -50.5 21t-21.5 51t21 51t52 21q29 0 50.5 -21t21.5 -51zM727 803q0 -29 -21.5 -50.5t-51.5 -21.5q-29 0 -50.5 21t-21.5 51t21 51t52 21q29 0 50.5 -21t21.5 -51z" />
    <glyph glyph-name="Yacute" unicode="&#xdd;" horiz-adv-x="922" 
d="M897 634h-24q-26 0 -53 -3q-18 -2 -23.5 -4t-12.5 -12l-252 -340v-223h107v-52q-39 3 -178 3q-141 0 -180 -3v52h108v222l-266 360h-99v52q51 -3 172 -3q148 0 184 3v-52h-80l208 -281l201 272q-27 9 -72 9v52l136 -3q79 0 124 3v-52zM625 836q-1 -7 -3.5 -13t-7 -11
t-8 -8t-8.5 -6t-8 -4t-8 -3l-5 -2l-174 -48l-24 50l145 107q21 16 41 16q31 0 49.5 -24.5t10.5 -53.5z" />
    <glyph glyph-name="Thorn" unicode="&#xde;" horiz-adv-x="769" 
d="M699 372q0 -30 -11 -60.5t-37.5 -62t-81.5 -51.5t-132 -20h-144v-126h107v-52l-176 3l-175 -3v52h107v582h-107v52l176 -3l175 3v-52h-107v-68h155q120 0 185.5 -56t65.5 -138zM545 373q0 57 -28.5 99t-96.5 42h-127v-284h105q14 0 25.5 1t36 8.5t41.5 21t30.5 43
t13.5 69.5z" />
    <glyph glyph-name="germandbls" unicode="&#xdf;" horiz-adv-x="638" 
d="M603 180q0 -86 -63 -136.5t-162 -50.5q-54 0 -84.5 28t-30.5 63q0 24 15.5 39.5t38.5 15.5t38.5 -14.5t15.5 -39.5q0 -32 -22 -45q10 -5 27 -5q101 0 101 144q0 214 -165 223q-16 3 -16 21q0 9 4.5 14t8.5 5.5t14 1.5q120 6 120 117q0 18 -3.5 32.5t-13 31t-32.5 25.5
t-57 9q-31 0 -53 -8.5t-32.5 -19t-16.5 -27.5t-6.5 -26t-0.5 -22v-556q-22 3 -76 3q-53 0 -106 -3v52h66v340h-66v52h66v110q0 72 62 109.5t165 37.5q116 0 173 -41.5t57 -98.5q0 -37 -27 -77t-96 -64q157 -70 157 -240z" />
    <glyph glyph-name="agrave" unicode="&#xe0;" horiz-adv-x="596" 
d="M589 26q0 -18 -8 -22t-26 -4h-53q-65 0 -86.5 19t-21.5 49q-49 -75 -159 -75q-89 0 -147 29.5t-58 89.5q0 43 32 75t85.5 48.5t109.5 24.5t118 8v29q0 116 -115 116q-48 0 -76 -7q21 -19 21 -51q0 -29 -19 -48t-49 -19q-27 0 -47 18.5t-20 49.5q0 99 192 99
q117 0 176 -44t59 -115v-211q0 -14 2.5 -19.5t16 -9.5t43.5 -4q10 0 15 -1t10 -7t5 -18zM375 137v93q-99 -2 -161 -33t-62 -83q0 -35 29.5 -57t69.5 -22q6 0 15 0.5t30 6t37 15t29 30.5t13 50zM377 550l-32 -45l-163 78q-39 22 -39 54q0 24 19 45.5t45 21.5q25 0 46 -23z
" />
    <glyph glyph-name="aacute" unicode="&#xe1;" horiz-adv-x="596" 
d="M589 26q0 -18 -8 -22t-26 -4h-53q-65 0 -86.5 19t-21.5 49q-49 -75 -159 -75q-89 0 -147 29.5t-58 89.5q0 43 32 75t85.5 48.5t109.5 24.5t118 8v29q0 116 -115 116q-48 0 -76 -7q21 -19 21 -51q0 -29 -19 -48t-49 -19q-27 0 -47 18.5t-20 49.5q0 99 192 99
q117 0 176 -44t59 -115v-211q0 -14 2.5 -19.5t16 -9.5t43.5 -4q10 0 15 -1t10 -7t5 -18zM375 137v93q-99 -2 -161 -33t-62 -83q0 -35 29.5 -57t69.5 -22q6 0 15 0.5t30 6t37 15t29 30.5t13 50zM454 637q0 -32 -39 -54l-163 -78l-32 45l124 131q21 23 46 23q26 0 45 -21.5
t19 -45.5z" />
    <glyph glyph-name="acircumflex" unicode="&#xe2;" horiz-adv-x="596" 
d="M589 26q0 -18 -8 -22t-26 -4h-53q-65 0 -86.5 19t-21.5 49q-49 -75 -159 -75q-89 0 -147 29.5t-58 89.5q0 43 32 75t85.5 48.5t109.5 24.5t118 8v29q0 116 -115 116q-48 0 -76 -7q21 -19 21 -51q0 -29 -19 -48t-49 -19q-27 0 -47 18.5t-20 49.5q0 99 192 99
q117 0 176 -44t59 -115v-211q0 -14 2.5 -19.5t16 -9.5t43.5 -4q10 0 15 -1t10 -7t5 -18zM375 137v93q-99 -2 -161 -33t-62 -83q0 -35 29.5 -57t69.5 -22q6 0 15 0.5t30 6t37 15t29 30.5t13 50zM475 523l-20 -22l-158 99l-158 -99l-18 22l177 185z" />
    <glyph glyph-name="atilde" unicode="&#xe3;" horiz-adv-x="596" 
d="M589 26q0 -18 -8 -22t-26 -4h-53q-65 0 -86.5 19t-21.5 49q-49 -75 -159 -75q-89 0 -147 29.5t-58 89.5q0 43 32 75t85.5 48.5t109.5 24.5t118 8v29q0 116 -115 116q-48 0 -76 -7q21 -19 21 -51q0 -29 -19 -48t-49 -19q-27 0 -47 18.5t-20 49.5q0 99 192 99
q117 0 176 -44t59 -115v-211q0 -14 2.5 -19.5t16 -9.5t43.5 -4q10 0 15 -1t10 -7t5 -18zM375 137v93q-99 -2 -161 -33t-62 -83q0 -35 29.5 -57t69.5 -22q6 0 15 0.5t30 6t37 15t29 30.5t13 50zM502 636q-27 -26 -38.5 -38.5t-16.5 -17.5q-38 -36 -81 -36q-27 0 -70 16
q-61 24 -88 24q-28 0 -50.5 -13t-33.5 -27l-30 30q27 26 38.5 38.5t16.5 17.5q38 36 81 36q27 0 70 -16q61 -24 88 -24q28 0 50.5 13t33.5 27z" />
    <glyph glyph-name="adieresis" unicode="&#xe4;" horiz-adv-x="596" 
d="M589 26q0 -18 -8 -22t-26 -4h-53q-65 0 -86.5 19t-21.5 49q-49 -75 -159 -75q-89 0 -147 29.5t-58 89.5q0 43 32 75t85.5 48.5t109.5 24.5t118 8v29q0 116 -115 116q-48 0 -76 -7q21 -19 21 -51q0 -29 -19 -48t-49 -19q-27 0 -47 18.5t-20 49.5q0 99 192 99
q117 0 176 -44t59 -115v-211q0 -14 2.5 -19.5t16 -9.5t43.5 -4q10 0 15 -1t10 -7t5 -18zM375 137v93q-99 -2 -161 -33t-62 -83q0 -35 29.5 -57t69.5 -22q6 0 15 0.5t30 6t37 15t29 30.5t13 50zM238 605q0 -29 -21.5 -50.5t-51.5 -21.5q-29 0 -50.5 21t-21.5 51t21 51t52 21
q29 0 50.5 -21t21.5 -51zM504 605q0 -29 -21.5 -50.5t-51.5 -21.5q-29 0 -50.5 21t-21.5 51t21 51t52 21q29 0 50.5 -21t21.5 -51z" />
    <glyph glyph-name="aring" unicode="&#xe5;" horiz-adv-x="596" 
d="M589 26q0 -18 -8 -22t-26 -4h-53q-65 0 -86.5 19t-21.5 49q-49 -75 -159 -75q-89 0 -147 29.5t-58 89.5q0 43 32 75t85.5 48.5t109.5 24.5t118 8v29q0 116 -115 116q-48 0 -76 -7q21 -19 21 -51q0 -29 -19 -48t-49 -19q-27 0 -47 18.5t-20 49.5q0 99 192 99
q117 0 176 -44t59 -115v-211q0 -14 2.5 -19.5t16 -9.5t43.5 -4q10 0 15 -1t10 -7t5 -18zM375 137v93q-99 -2 -161 -33t-62 -83q0 -35 29.5 -57t69.5 -22q6 0 15 0.5t30 6t37 15t29 30.5t13 50zM365 608q0 18 -10 26t-21 9.5t-36 1.5q-37 0 -52 -6.5t-15 -30.5q0 -18 10 -26
t21 -9.5t36 -1.5q37 0 52 6.5t15 30.5zM429 607q0 -31 -31 -57t-101 -26q-65 0 -97.5 24.5t-32.5 60.5q0 31 31 57t101 26q65 0 97.5 -24.5t32.5 -60.5z" />
    <glyph glyph-name="ae" unicode="&#xe6;" horiz-adv-x="885" 
d="M850 115q0 -7 -5.5 -20t-19.5 -31t-35 -33.5t-57 -26.5t-79 -11q-118 0 -197 63q-58 -63 -211 -63q-20 0 -36.5 0.5t-50.5 6.5t-57.5 17t-42 34t-18.5 55q0 27 15 48.5t35.5 35.5t55 25t61 16.5t66 10t58.5 5.5t49 2v48q0 116 -116 116q-41 0 -76 -7q21 -19 21 -51
q0 -29 -19 -48t-49 -19q-27 0 -47 18.5t-20 49.5q0 99 193 99q128 0 192 -57q72 57 179 57q103 0 159 -58q52 -55 52 -155q0 -21 -7 -25.5t-27 -4.5h-313q8 -172 161 -172q39 0 75.5 18t53.5 59q5 12 10.5 15.5t18.5 3.5q28 0 28 -21zM753 251q-4 162 -114 162
q-45 0 -75 -19.5t-42 -51.5t-15 -51t-4 -40h250zM401 125q0 6 -4 15q-13 34 -15 69q-219 -11 -219 -103q0 -30 27 -50.5t68 -20.5q57 0 100 25t43 65z" />
    <glyph glyph-name="ccedilla" unicode="&#xe7;" horiz-adv-x="544" 
d="M509 115q0 -5 -5.5 -18t-22 -34.5t-40.5 -36.5q-36 -22 -86 -29v-39q44 0 76 -21.5t32 -57.5q0 -19 -10.5 -33t-33.5 -22.5t-44.5 -13.5t-59 -7t-60 -2.5t-63.5 -0.5h-56v56h28q163 0 163 23q0 15 -22 19t-62 4v96q-97 16 -149.5 78t-52.5 146q0 95 67 164t201 69
q186 0 186 -99q0 -31 -19.5 -49.5t-48.5 -18.5q-28 0 -47.5 19t-19.5 48q0 23 12 41l4 6q0 6 -63 6q-38 0 -65.5 -14t-41 -32t-21 -47t-8.5 -46.5t-1 -42.5q0 -186 149 -186q95 0 127 75q5 13 9.5 15.5t19.5 2.5q28 0 28 -18z" />
    <glyph glyph-name="egrave" unicode="&#xe8;" horiz-adv-x="561" 
d="M526 115q0 -6 -5 -18t-20 -30.5t-37.5 -34.5t-62 -27.5t-89.5 -11.5q-130 0 -204 66t-74 167q0 95 68.5 162t194.5 67q113 0 169 -56q60 -59 60 -158q0 -20 -7.5 -24.5t-26.5 -4.5h-323q1 -24 2.5 -40t10.5 -44t24 -44.5t45.5 -30t72.5 -13.5q14 0 30.5 2.5t39.5 9.5
t43.5 24t31.5 41q6 13 11 16t18 3q28 0 28 -21zM428 251q-4 162 -130 162q-125 0 -129 -162h259zM359 550l-32 -45l-163 78q-39 22 -39 54q0 24 19 45.5t45 21.5q25 0 46 -23z" />
    <glyph glyph-name="eacute" unicode="&#xe9;" horiz-adv-x="561" 
d="M526 115q0 -6 -5 -18t-20 -30.5t-37.5 -34.5t-62 -27.5t-89.5 -11.5q-130 0 -204 66t-74 167q0 95 68.5 162t194.5 67q113 0 169 -56q60 -59 60 -158q0 -20 -7.5 -24.5t-26.5 -4.5h-323q1 -24 2.5 -40t10.5 -44t24 -44.5t45.5 -30t72.5 -13.5q14 0 30.5 2.5t39.5 9.5
t43.5 24t31.5 41q6 13 11 16t18 3q28 0 28 -21zM428 251q-4 162 -130 162q-125 0 -129 -162h259zM436 637q0 -32 -39 -54l-163 -78l-32 45l124 131q21 23 46 23q26 0 45 -21.5t19 -45.5z" />
    <glyph glyph-name="ecircumflex" unicode="&#xea;" horiz-adv-x="561" 
d="M526 115q0 -6 -5 -18t-20 -30.5t-37.5 -34.5t-62 -27.5t-89.5 -11.5q-130 0 -204 66t-74 167q0 95 68.5 162t194.5 67q113 0 169 -56q60 -59 60 -158q0 -20 -7.5 -24.5t-26.5 -4.5h-323q1 -24 2.5 -40t10.5 -44t24 -44.5t45.5 -30t72.5 -13.5q14 0 30.5 2.5t39.5 9.5
t43.5 24t31.5 41q6 13 11 16t18 3q28 0 28 -21zM428 251q-4 162 -130 162q-125 0 -129 -162h259zM457 523l-20 -22l-158 99l-158 -99l-18 22l177 185z" />
    <glyph glyph-name="edieresis" unicode="&#xeb;" horiz-adv-x="561" 
d="M526 115q0 -6 -5 -18t-20 -30.5t-37.5 -34.5t-62 -27.5t-89.5 -11.5q-130 0 -204 66t-74 167q0 95 68.5 162t194.5 67q113 0 169 -56q60 -59 60 -158q0 -20 -7.5 -24.5t-26.5 -4.5h-323q1 -24 2.5 -40t10.5 -44t24 -44.5t45.5 -30t72.5 -13.5q14 0 30.5 2.5t39.5 9.5
t43.5 24t31.5 41q6 13 11 16t18 3q28 0 28 -21zM428 251q-4 162 -130 162q-125 0 -129 -162h259zM220 605q0 -29 -21.5 -50.5t-51.5 -21.5q-29 0 -50.5 21t-21.5 51t21 51t52 21q29 0 50.5 -21t21.5 -51zM486 605q0 -29 -21.5 -50.5t-51.5 -21.5q-29 0 -50.5 21t-21.5 51
t21 51t52 21q29 0 50.5 -21t21.5 -51z" />
    <glyph glyph-name="igrave" unicode="&#xec;" horiz-adv-x="340" 
d="M300 0q-49 3 -119 3q-64 0 -122 -3v52h66v301q0 28 -9.5 33t-53.5 5v52l179 8v-399h59v-52zM249 550l-32 -45l-163 78q-39 22 -39 54q0 24 19 45.5t45 21.5q25 0 46 -23z" />
    <glyph glyph-name="iacute" unicode="&#xed;" horiz-adv-x="340" 
d="M300 0q-49 3 -119 3q-64 0 -122 -3v52h66v301q0 28 -9.5 33t-53.5 5v52l179 8v-399h59v-52zM326 637q0 -32 -39 -54l-163 -78l-32 45l124 131q21 23 46 23q26 0 45 -21.5t19 -45.5z" />
    <glyph glyph-name="icircumflex" unicode="&#xee;" horiz-adv-x="340" 
d="M300 0q-49 3 -119 3q-64 0 -122 -3v52h66v301q0 28 -9.5 33t-53.5 5v52l179 8v-399h59v-52zM347 523l-20 -22l-158 99l-158 -99l-18 22l177 185z" />
    <glyph glyph-name="idieresis" unicode="&#xef;" horiz-adv-x="340" 
d="M300 0q-49 3 -119 3q-64 0 -122 -3v52h66v301q0 28 -9.5 33t-53.5 5v52l179 8v-399h59v-52zM110 605q0 -29 -21.5 -50.5t-51.5 -21.5q-29 0 -50.5 21t-21.5 51t21 51t52 21q29 0 50.5 -21t21.5 -51zM376 605q0 -29 -21.5 -50.5t-51.5 -21.5q-29 0 -50.5 21t-21.5 51
t21 51t52 21q29 0 50.5 -21t21.5 -51z" />
    <glyph glyph-name="eth" unicode="&#xf0;" 
d="M577 222q0 -103 -72.5 -166t-199.5 -63q-130 0 -200.5 64.5t-70.5 160.5q0 105 74 171t193 66q72 0 125 -45q-34 103 -128 170l-109 -48l-21 47l75 34q-70 35 -149 44l4 45q152 -2 248 -43l116 51l21 -48l-78 -34q12 -8 17 -12q61 -46 108 -123.5t47 -177.5v-93zM441 216
q0 17 -1 32.5t-8 48.5t-20 56t-41 41.5t-67 18.5q-71 0 -109 -52q-25 -36 -25 -132q0 -91 23 -132q33 -57 113 -57q135 0 135 176z" />
    <glyph glyph-name="ntilde" unicode="&#xf1;" horiz-adv-x="681" 
d="M650 0q-54 3 -127 3t-127 -3v52h66v262q0 55 -14.5 75t-43.5 20q-35 0 -70 -15t-62.5 -52t-27.5 -89v-201h66v-52q-54 3 -127 3t-127 -3v52h66v300q0 28 -10 33.5t-56 5.5v52l175 8v-102h1q7 12 18.5 26t33.5 33t57.5 31t77.5 12q77 0 121 -32t44 -116v-251h66v-52z
M544 636q-27 -26 -38.5 -38.5t-16.5 -17.5q-38 -36 -81 -36q-27 0 -70 16q-61 24 -88 24q-28 0 -50.5 -13t-33.5 -27l-30 30q27 26 38.5 38.5t16.5 17.5q38 36 81 36q27 0 70 -16q61 -24 88 -24q28 0 50.5 13t33.5 27z" />
    <glyph glyph-name="ograve" unicode="&#xf2;" 
d="M578 218q0 -95 -70 -160t-202 -65q-131 0 -201.5 64.5t-70.5 160.5q0 100 70.5 168.5t201.5 68.5t201.5 -68t70.5 -169zM443 230q0 28 -1 42.5t-4 40t-12 40t-23.5 30.5t-39 23t-57.5 7q-39 0 -66.5 -12t-41 -27.5t-20.5 -44.5t-8 -47t-1 -52q0 -35 1 -54t8 -49.5
t20.5 -46t41 -28t66.5 -12.5t66.5 12.5t41 28t20.5 46t8 49.5t1 54zM385 550l-32 -45l-163 78q-39 22 -39 54q0 24 19 45.5t45 21.5q25 0 46 -23z" />
    <glyph glyph-name="oacute" unicode="&#xf3;" 
d="M578 218q0 -95 -70 -160t-202 -65q-131 0 -201.5 64.5t-70.5 160.5q0 100 70.5 168.5t201.5 68.5t201.5 -68t70.5 -169zM443 230q0 28 -1 42.5t-4 40t-12 40t-23.5 30.5t-39 23t-57.5 7q-39 0 -66.5 -12t-41 -27.5t-20.5 -44.5t-8 -47t-1 -52q0 -35 1 -54t8 -49.5
t20.5 -46t41 -28t66.5 -12.5t66.5 12.5t41 28t20.5 46t8 49.5t1 54zM462 637q0 -32 -39 -54l-163 -78l-32 45l124 131q21 23 46 23q26 0 45 -21.5t19 -45.5z" />
    <glyph glyph-name="ocircumflex" unicode="&#xf4;" 
d="M578 218q0 -95 -70 -160t-202 -65q-131 0 -201.5 64.5t-70.5 160.5q0 100 70.5 168.5t201.5 68.5t201.5 -68t70.5 -169zM443 230q0 28 -1 42.5t-4 40t-12 40t-23.5 30.5t-39 23t-57.5 7q-39 0 -66.5 -12t-41 -27.5t-20.5 -44.5t-8 -47t-1 -52q0 -35 1 -54t8 -49.5
t20.5 -46t41 -28t66.5 -12.5t66.5 12.5t41 28t20.5 46t8 49.5t1 54zM483 523l-20 -22l-158 99l-158 -99l-18 22l177 185z" />
    <glyph glyph-name="otilde" unicode="&#xf5;" 
d="M578 218q0 -95 -70 -160t-202 -65q-131 0 -201.5 64.5t-70.5 160.5q0 100 70.5 168.5t201.5 68.5t201.5 -68t70.5 -169zM443 230q0 28 -1 42.5t-4 40t-12 40t-23.5 30.5t-39 23t-57.5 7q-39 0 -66.5 -12t-41 -27.5t-20.5 -44.5t-8 -47t-1 -52q0 -35 1 -54t8 -49.5
t20.5 -46t41 -28t66.5 -12.5t66.5 12.5t41 28t20.5 46t8 49.5t1 54zM510 636q-27 -26 -38.5 -38.5t-16.5 -17.5q-38 -36 -81 -36q-27 0 -70 16q-61 24 -88 24q-28 0 -50.5 -13t-33.5 -27l-30 30q27 26 38.5 38.5t16.5 17.5q38 36 81 36q27 0 70 -16q61 -24 88 -24
q28 0 50.5 13t33.5 27z" />
    <glyph glyph-name="odieresis" unicode="&#xf6;" 
d="M578 218q0 -95 -70 -160t-202 -65q-131 0 -201.5 64.5t-70.5 160.5q0 100 70.5 168.5t201.5 68.5t201.5 -68t70.5 -169zM443 230q0 28 -1 42.5t-4 40t-12 40t-23.5 30.5t-39 23t-57.5 7q-39 0 -66.5 -12t-41 -27.5t-20.5 -44.5t-8 -47t-1 -52q0 -35 1 -54t8 -49.5
t20.5 -46t41 -28t66.5 -12.5t66.5 12.5t41 28t20.5 46t8 49.5t1 54zM246 605q0 -29 -21.5 -50.5t-51.5 -21.5q-29 0 -50.5 21t-21.5 51t21 51t52 21q29 0 50.5 -21t21.5 -51zM512 605q0 -29 -21.5 -50.5t-51.5 -21.5q-29 0 -50.5 21t-21.5 51t21 51t52 21q29 0 50.5 -21
t21.5 -51z" />
    <glyph glyph-name="divide" unicode="&#xf7;" horiz-adv-x="953" 
d="M884 250q0 -34 -44 -34h-728q-44 0 -44 34t50 34h716q50 0 50 -34zM556 510q0 -33 -23.5 -56.5t-56.5 -23.5t-56.5 23.5t-23.5 56.5t23.5 56.5t56.5 23.5t56.5 -23.5t23.5 -56.5zM556 -10q0 -33 -23.5 -56.5t-56.5 -23.5t-56.5 23.5t-23.5 56.5t23.5 56.5t56.5 23.5
t56.5 -23.5t23.5 -56.5z" />
    <glyph glyph-name="oslash" unicode="&#xf8;" 
d="M578 218q0 -95 -70 -160t-202 -65q-64 0 -116 17l-78 -119l-34 24l73 111q-61 31 -89 83t-28 109q0 100 70.5 168.5t201.5 68.5q63 0 117 -18l77 117l34 -24l-72 -111q59 -32 87.5 -86.5t28.5 -114.5zM393 393q-30 20 -87 20q-43 0 -73 -14t-44.5 -31.5t-22.5 -48.5
t-9 -49.5t-1 -50.5q0 -33 1 -51t8 -44.5t21 -43.5zM456 219q0 54 -5.5 87t-25.5 58l-205 -310q33 -19 86 -19q43 0 73 13t44.5 29t22.5 45.5t9 47t1 49.5z" />
    <glyph glyph-name="ugrave" unicode="&#xf9;" horiz-adv-x="681" 
d="M650 0l-182 -7v70q-54 -70 -154 -70q-41 0 -72 5t-60 18t-44.5 40t-15.5 67v229q0 28 -10 33.5t-56 5.5v52l188 8v-342q0 -43 14 -58.5t70 -15.5q61 0 97.5 35t36.5 92v190q0 28 -10 33.5t-56 5.5v52l188 8v-360q0 -28 10 -33.5t56 -5.5v-52zM419 550l-32 -45l-163 78
q-39 22 -39 54q0 24 19 45.5t45 21.5q25 0 46 -23z" />
    <glyph glyph-name="uacute" unicode="&#xfa;" horiz-adv-x="681" 
d="M650 0l-182 -7v70q-54 -70 -154 -70q-41 0 -72 5t-60 18t-44.5 40t-15.5 67v229q0 28 -10 33.5t-56 5.5v52l188 8v-342q0 -43 14 -58.5t70 -15.5q61 0 97.5 35t36.5 92v190q0 28 -10 33.5t-56 5.5v52l188 8v-360q0 -28 10 -33.5t56 -5.5v-52zM496 637q0 -32 -39 -54
l-163 -78l-32 45l124 131q21 23 46 23q26 0 45 -21.5t19 -45.5z" />
    <glyph glyph-name="ucircumflex" unicode="&#xfb;" horiz-adv-x="681" 
d="M650 0l-182 -7v70q-54 -70 -154 -70q-41 0 -72 5t-60 18t-44.5 40t-15.5 67v229q0 28 -10 33.5t-56 5.5v52l188 8v-342q0 -43 14 -58.5t70 -15.5q61 0 97.5 35t36.5 92v190q0 28 -10 33.5t-56 5.5v52l188 8v-360q0 -28 10 -33.5t56 -5.5v-52zM517 523l-20 -22l-158 99
l-158 -99l-18 22l177 185z" />
    <glyph glyph-name="udieresis" unicode="&#xfc;" horiz-adv-x="681" 
d="M650 0l-182 -7v70q-54 -70 -154 -70q-41 0 -72 5t-60 18t-44.5 40t-15.5 67v229q0 28 -10 33.5t-56 5.5v52l188 8v-342q0 -43 14 -58.5t70 -15.5q61 0 97.5 35t36.5 92v190q0 28 -10 33.5t-56 5.5v52l188 8v-360q0 -28 10 -33.5t56 -5.5v-52zM280 605q0 -29 -21.5 -50.5
t-51.5 -21.5q-29 0 -50.5 21t-21.5 51t21 51t52 21q29 0 50.5 -21t21.5 -51zM546 605q0 -29 -21.5 -50.5t-51.5 -21.5q-29 0 -50.5 21t-21.5 51t21 51t52 21q29 0 50.5 -21t21.5 -51z" />
    <glyph glyph-name="yacute" unicode="&#xfd;" horiz-adv-x="647" 
d="M616 392q-44 0 -55 -3.5t-18 -17.5l-235 -461q-18 -35 -63 -73t-108 -38q-48 0 -80.5 29t-32.5 69q0 29 18.5 46t44.5 17q25 0 43.5 -16.5t18.5 -45.5q0 -37 -29 -54q8 -3 18 -3q55 0 97 54q17 25 56 105l-198 392h-63v52q40 -3 117 -3q65 0 123 3v-52h-47l134 -264
l122 241q5 10 5 13q0 4 -10 6.5t-20 3.5h-11v52q30 -3 90 -3q45 0 83 3v-52zM479 637q0 -32 -39 -54l-163 -78l-32 45l124 131q21 23 46 23q26 0 45 -21.5t19 -45.5z" />
    <glyph glyph-name="thorn" unicode="&#xfe;" horiz-adv-x="681" 
d="M639 223q0 -102 -73.5 -166t-195.5 -64q-76 0 -136 44v-179h66v-52q-54 3 -127 3t-127 -3v52h66v497v240q0 28 -10 33.5t-56 5.5v52l182 8v-290q70 47 161 47q117 0 183.5 -65t66.5 -163zM504 223q0 84 -36 132.5t-96 48.5q-47 0 -83.5 -20t-54.5 -42v-236
q48 -71 126 -71q61 0 102.5 47t41.5 141z" />
    <glyph glyph-name="ydieresis" unicode="&#xff;" horiz-adv-x="647" 
d="M616 392q-44 0 -55 -3.5t-18 -17.5l-235 -461q-18 -35 -63 -73t-108 -38q-48 0 -80.5 29t-32.5 69q0 29 18.5 46t44.5 17q25 0 43.5 -16.5t18.5 -45.5q0 -37 -29 -54q8 -3 18 -3q55 0 97 54q17 25 56 105l-198 392h-63v52q40 -3 117 -3q65 0 123 3v-52h-47l134 -264
l122 241q5 10 5 13q0 4 -10 6.5t-20 3.5h-11v52q30 -3 90 -3q45 0 83 3v-52zM263 605q0 -29 -21.5 -50.5t-51.5 -21.5q-29 0 -50.5 21t-21.5 51t21 51t52 21q29 0 50.5 -21t21.5 -51zM529 605q0 -29 -21.5 -50.5t-51.5 -21.5q-29 0 -50.5 21t-21.5 51t21 51t52 21
q29 0 50.5 -21t21.5 -51z" />
    <glyph glyph-name="Amacron" unicode="&#x100;" horiz-adv-x="922" 
d="M876 0q-63 3 -168 3q-141 0 -178 -3v52h93l-61 139h-287l-51 -116l-5 -14q29 -9 88 -9v-52l-136 3q-75 0 -126 -3v52h24q25 0 51 3q18 2 22.5 5t9.5 14l261 601q7 18 17.5 22t30.5 4q13 0 19.5 -1t14.5 -7t13 -18l270 -623h98v-52zM540 243l-121 279l-121 -279h242z
M682 751h-442v58h442v-58z" />
    <glyph glyph-name="amacron" unicode="&#x101;" horiz-adv-x="596" 
d="M589 26q0 -18 -8 -22t-26 -4h-53q-65 0 -86.5 19t-21.5 49q-49 -75 -159 -75q-89 0 -147 29.5t-58 89.5q0 43 32 75t85.5 48.5t109.5 24.5t118 8v29q0 116 -115 116q-48 0 -76 -7q21 -19 21 -51q0 -29 -19 -48t-49 -19q-27 0 -47 18.5t-20 49.5q0 99 192 99
q117 0 176 -44t59 -115v-211q0 -14 2.5 -19.5t16 -9.5t43.5 -4q10 0 15 -1t10 -7t5 -18zM375 137v93q-99 -2 -161 -33t-62 -83q0 -35 29.5 -57t69.5 -22q6 0 15 0.5t30 6t37 15t29 30.5t13 50zM519 576h-442v58h442v-58z" />
    <glyph glyph-name="Abreve" unicode="&#x102;" horiz-adv-x="922" 
d="M876 0q-63 3 -168 3q-141 0 -178 -3v52h93l-61 139h-287l-51 -116l-5 -14q29 -9 88 -9v-52l-136 3q-75 0 -126 -3v52h24q25 0 51 3q18 2 22.5 5t9.5 14l261 601q7 18 17.5 22t30.5 4q13 0 19.5 -1t14.5 -7t13 -18l270 -623h98v-52zM540 243l-121 279l-121 -279h242z
M652 928q-1 -83 -58.5 -135t-132.5 -52t-132.5 52t-58.5 135h42q1 -57 47.5 -87.5t101.5 -30.5t101.5 30.5t47.5 87.5h42z" />
    <glyph glyph-name="abreve" unicode="&#x103;" horiz-adv-x="596" 
d="M589 26q0 -18 -8 -22t-26 -4h-53q-65 0 -86.5 19t-21.5 49q-49 -75 -159 -75q-89 0 -147 29.5t-58 89.5q0 43 32 75t85.5 48.5t109.5 24.5t118 8v29q0 116 -115 116q-48 0 -76 -7q21 -19 21 -51q0 -29 -19 -48t-49 -19q-27 0 -47 18.5t-20 49.5q0 99 192 99
q117 0 176 -44t59 -115v-211q0 -14 2.5 -19.5t16 -9.5t43.5 -4q10 0 15 -1t10 -7t5 -18zM375 137v93q-99 -2 -161 -33t-62 -83q0 -35 29.5 -57t69.5 -22q6 0 15 0.5t30 6t37 15t29 30.5t13 50zM489 698q-1 -83 -58.5 -135t-132.5 -52t-132.5 52t-58.5 135h42
q1 -57 47.5 -87.5t101.5 -30.5t101.5 30.5t47.5 87.5h42z" />
    <glyph glyph-name="Aogonek" unicode="&#x104;" horiz-adv-x="922" 
d="M876 0l-122 3q-28 -19 -38 -42.5t-3.5 -42.5t21.5 -32t34 -13q11 0 44 23q14 9 31 -6q6 -6 9.5 -17t-0.5 -19q-46 -66 -116 -66q-52 0 -85.5 32t-33.5 74q0 64 55 109q-98 0 -142 -3v52h93l-61 139h-287l-51 -116l-5 -14q29 -9 88 -9v-52l-136 3q-75 0 -126 -3v52h24
q25 0 51 3q18 2 22.5 5t9.5 14l261 601q7 18 17.5 22t30.5 4q13 0 19.5 -1t14.5 -7t13 -18l270 -623h98v-52zM540 243l-121 279l-121 -279h242z" />
    <glyph glyph-name="aogonek" unicode="&#x105;" horiz-adv-x="596" 
d="M589 26q0 -18 -8 -22t-26 -4h-53h-13q-28 -19 -38 -42t-3.5 -41.5t21.5 -31t34 -12.5q11 0 44 23q14 9 31 -6q6 -6 9.5 -17t-0.5 -19q-46 -66 -116 -66q-52 0 -85.5 32t-33.5 74q0 29 21.5 62.5t51.5 57.5q-31 16 -31 54q-49 -75 -159 -75q-89 0 -147 29.5t-58 89.5
q0 43 32 75t85.5 48.5t109.5 24.5t118 8v29q0 116 -115 116q-48 0 -76 -7q21 -19 21 -51q0 -29 -19 -48t-49 -19q-27 0 -47 18.5t-20 49.5q0 99 192 99q117 0 176 -44t59 -115v-211q0 -14 2.5 -19.5t16 -9.5t43.5 -4q10 0 15 -1t10 -7t5 -18zM375 137v93q-99 -2 -161 -33
t-62 -83q0 -35 29.5 -57t69.5 -22q6 0 15 0.5t30 6t37 15t29 30.5t13 50z" />
    <glyph glyph-name="Cacute" unicode="&#x106;" horiz-adv-x="885" 
d="M816 227q0 -96 -90 -168.5t-232 -72.5q-200 0 -313 101.5t-113 255.5t113.5 255.5t311.5 101.5q115 0 212 -68l66 58q11 10 23 10q10 0 15 -4.5t6 -9.5t1 -17v-215q0 -22 -5.5 -26.5t-27.5 -4.5q-14 0 -19 1t-9 5t-5 14q-18 100 -85.5 152.5t-151.5 52.5q-145 0 -222 -84
q-63 -69 -63 -221q0 -151 65 -222q75 -83 223 -83q99 0 169 53t75 131q1 19 5.5 24t22.5 5q11 0 15.5 -1t8.5 -6.5t4 -16.5zM651 836q-1 -7 -3.5 -13t-7 -11t-8 -8t-8.5 -6t-8 -4t-8 -3l-5 -2l-174 -48l-24 50l145 107q21 16 41 16q31 0 49.5 -24.5t10.5 -53.5z" />
    <glyph glyph-name="cacute" unicode="&#x107;" horiz-adv-x="544" 
d="M509 115q0 -5 -5.5 -18t-22 -34.5t-40.5 -36.5q-54 -33 -136 -33q-125 0 -194.5 65.5t-69.5 163.5q0 95 67 164t201 69q186 0 186 -99q0 -31 -19.5 -49.5t-48.5 -18.5q-28 0 -47.5 19t-19.5 48q0 23 12 41l4 6q0 6 -63 6q-38 0 -65.5 -14t-41 -32t-21 -47t-8.5 -46.5
t-1 -42.5q0 -186 149 -186q95 0 127 75q5 13 9.5 15.5t19.5 2.5q28 0 28 -18zM455 637q0 -32 -39 -54l-163 -78l-32 45l124 131q21 23 46 23q26 0 45 -21.5t19 -45.5z" />
    <glyph glyph-name="Ccircumflex" unicode="&#x108;" horiz-adv-x="885" 
d="M816 227q0 -96 -90 -168.5t-232 -72.5q-200 0 -313 101.5t-113 255.5t113.5 255.5t311.5 101.5q115 0 212 -68l66 58q11 10 23 10q10 0 15 -4.5t6 -9.5t1 -17v-215q0 -22 -5.5 -26.5t-27.5 -4.5q-14 0 -19 1t-9 5t-5 14q-18 100 -85.5 152.5t-151.5 52.5q-145 0 -222 -84
q-63 -69 -63 -221q0 -151 65 -222q75 -83 223 -83q99 0 169 53t75 131q1 19 5.5 24t22.5 5q11 0 15.5 -1t8.5 -6.5t4 -16.5zM662 755l-16 -24l-160 58l-160 -58l-14 24l175 141z" />
    <glyph glyph-name="ccircumflex" unicode="&#x109;" horiz-adv-x="544" 
d="M509 115q0 -5 -5.5 -18t-22 -34.5t-40.5 -36.5q-54 -33 -136 -33q-125 0 -194.5 65.5t-69.5 163.5q0 95 67 164t201 69q186 0 186 -99q0 -31 -19.5 -49.5t-48.5 -18.5q-28 0 -47.5 19t-19.5 48q0 23 12 41l4 6q0 6 -63 6q-38 0 -65.5 -14t-41 -32t-21 -47t-8.5 -46.5
t-1 -42.5q0 -186 149 -186q95 0 127 75q5 13 9.5 15.5t19.5 2.5q28 0 28 -18zM476 523l-20 -22l-158 99l-158 -99l-18 22l177 185z" />
    <glyph glyph-name="Cdotaccent" unicode="&#x10a;" horiz-adv-x="885" 
d="M816 227q0 -96 -90 -168.5t-232 -72.5q-200 0 -313 101.5t-113 255.5t113.5 255.5t311.5 101.5q115 0 212 -68l66 58q11 10 23 10q10 0 15 -4.5t6 -9.5t1 -17v-215q0 -22 -5.5 -26.5t-27.5 -4.5q-14 0 -19 1t-9 5t-5 14q-18 100 -85.5 152.5t-151.5 52.5q-145 0 -222 -84
q-63 -69 -63 -221q0 -151 65 -222q75 -83 223 -83q99 0 169 53t75 131q1 19 5.5 24t22.5 5q11 0 15.5 -1t8.5 -6.5t4 -16.5zM568 825q0 -33 -23.5 -56.5t-57.5 -23.5q-32 0 -56 23.5t-24 56.5t23.5 56.5t57.5 23.5q32 0 56 -23.5t24 -56.5z" />
    <glyph glyph-name="cdotaccent" unicode="&#x10b;" horiz-adv-x="544" 
d="M509 115q0 -5 -5.5 -18t-22 -34.5t-40.5 -36.5q-54 -33 -136 -33q-125 0 -194.5 65.5t-69.5 163.5q0 95 67 164t201 69q186 0 186 -99q0 -31 -19.5 -49.5t-48.5 -18.5q-28 0 -47.5 19t-19.5 48q0 23 12 41l4 6q0 6 -63 6q-38 0 -65.5 -14t-41 -32t-21 -47t-8.5 -46.5
t-1 -42.5q0 -186 149 -186q95 0 127 75q5 13 9.5 15.5t19.5 2.5q28 0 28 -18zM380 605q0 -33 -23.5 -56.5t-57.5 -23.5q-32 0 -56 23.5t-24 56.5t23.5 56.5t57.5 23.5q32 0 56 -23.5t24 -56.5z" />
    <glyph glyph-name="Ccaron" unicode="&#x10c;" horiz-adv-x="885" 
d="M816 227q0 -96 -90 -168.5t-232 -72.5q-200 0 -313 101.5t-113 255.5t113.5 255.5t311.5 101.5q115 0 212 -68l66 58q11 10 23 10q10 0 15 -4.5t6 -9.5t1 -17v-215q0 -22 -5.5 -26.5t-27.5 -4.5q-14 0 -19 1t-9 5t-5 14q-18 100 -85.5 152.5t-151.5 52.5q-145 0 -222 -84
q-63 -69 -63 -221q0 -151 65 -222q75 -83 223 -83q99 0 169 53t75 131q1 19 5.5 24t22.5 5q11 0 15.5 -1t8.5 -6.5t4 -16.5zM662 872l-175 -141l-175 141l16 24l160 -58l160 58z" />
    <glyph glyph-name="ccaron" unicode="&#x10d;" horiz-adv-x="544" 
d="M509 115q0 -5 -5.5 -18t-22 -34.5t-40.5 -36.5q-54 -33 -136 -33q-125 0 -194.5 65.5t-69.5 163.5q0 95 67 164t201 69q186 0 186 -99q0 -31 -19.5 -49.5t-48.5 -18.5q-28 0 -47.5 19t-19.5 48q0 23 12 41l4 6q0 6 -63 6q-38 0 -65.5 -14t-41 -32t-21 -47t-8.5 -46.5
t-1 -42.5q0 -186 149 -186q95 0 127 75q5 13 9.5 15.5t19.5 2.5q28 0 28 -18zM476 686l-177 -185l-177 185l20 22l158 -99l158 99z" />
    <glyph glyph-name="Dcaron" unicode="&#x10e;" horiz-adv-x="938" 
d="M869 337q0 -154 -102.5 -245.5t-265.5 -91.5h-454v52h108v582h-108v52h453q162 0 265.5 -94.5t103.5 -254.5zM715 339q0 30 -0.5 47.5t-5.5 52t-14 57.5t-28 51.5t-45.5 45.5t-68.5 29t-95 12h-160v-582h161q53 0 94.5 11.5t68 27.5t45.5 44t28 49.5t14 55.5t5.5 51.5
t0.5 47.5zM553 872l-175 -141l-175 141l16 24l160 -58l160 58z" />
    <glyph glyph-name="dcaron" unicode="&#x10f;" horiz-adv-x="681" 
d="M634 0l-188 -7v49q-64 -49 -149 -49q-117 0 -186.5 64.5t-69.5 164.5t72 164.5t196 64.5q80 0 143 -43v187q0 28 -10 33.5t-56 5.5v52l182 8v-603q0 -28 10 -33.5t56 -5.5v-52zM446 111v236q-49 62 -127 62q-41 0 -69.5 -14.5t-42.5 -33t-21.5 -49.5t-8.5 -48t-1 -45
q0 -18 0.5 -29.5t3 -33t7 -35.5t14 -32t23 -28.5t34.5 -18t48 -7.5q86 0 140 76zM744 599q0 -48 -21.5 -90t-43 -61t-30.5 -19q-5 0 -10.5 5.5t-5.5 10.5q0 7 9 14q63 49 69 127q-13 -12 -38 -12q-28 0 -44 17.5t-16 42.5t16.5 42.5t43.5 17.5q31 0 51 -27t20 -68z" />
    <glyph glyph-name="Dcroat" unicode="&#x110;" horiz-adv-x="938" 
d="M869 337q0 -154 -102.5 -245.5t-265.5 -91.5h-454v52h108v265h-108v52h108v265h-108v52h453q162 0 265.5 -94.5t103.5 -254.5zM715 339q0 30 -0.5 47.5t-5.5 52t-14 57.5t-28 51.5t-45.5 45.5t-68.5 29t-95 12h-160v-265h171v-52h-171v-265h161q53 0 94.5 11.5t68 27.5
t45.5 44t28 49.5t14 55.5t5.5 51.5t0.5 47.5z" />
    <glyph glyph-name="dcroat" unicode="&#x111;" horiz-adv-x="681" 
d="M634 0l-188 -7v49q-64 -49 -149 -49q-117 0 -186.5 64.5t-69.5 164.5t72 164.5t196 64.5q80 0 143 -43v109h-180v52h180v26q0 28 -10 33.5t-56 5.5v52l182 8v-125h66v-52h-66v-426q0 -28 10 -33.5t56 -5.5v-52zM446 111v236q-49 62 -127 62q-41 0 -69.5 -14.5t-42.5 -33
t-21.5 -49.5t-8.5 -48t-1 -45q0 -18 0.5 -29.5t3 -33t7 -35.5t14 -32t23 -28.5t34.5 -18t48 -7.5q86 0 140 76z" />
    <glyph glyph-name="Emacron" unicode="&#x112;" horiz-adv-x="803" 
d="M768 275l-49 -275h-672v52h108v576h-108v52h654l33 -243h-56q-14 108 -59 149.5t-152 41.5h-163v-249h60q67 0 89 25.5t22 89.5h56v-282h-56q0 64 -22 89.5t-89 25.5h-60v-275h166q54 0 93 10t64 26.5t42 46.5t26 61.5t17 78.5h56zM622 751h-442v58h442v-58z" />
    <glyph glyph-name="emacron" unicode="&#x113;" horiz-adv-x="561" 
d="M526 115q0 -6 -5 -18t-20 -30.5t-37.5 -34.5t-62 -27.5t-89.5 -11.5q-130 0 -204 66t-74 167q0 95 68.5 162t194.5 67q113 0 169 -56q60 -59 60 -158q0 -20 -7.5 -24.5t-26.5 -4.5h-323q1 -24 2.5 -40t10.5 -44t24 -44.5t45.5 -30t72.5 -13.5q14 0 30.5 2.5t39.5 9.5
t43.5 24t31.5 41q6 13 11 16t18 3q28 0 28 -21zM428 251q-4 162 -130 162q-125 0 -129 -162h259zM501 576h-442v58h442v-58z" />
    <glyph glyph-name="Ebreve" unicode="&#x114;" horiz-adv-x="803" 
d="M768 275l-49 -275h-672v52h108v576h-108v52h654l33 -243h-56q-14 108 -59 149.5t-152 41.5h-163v-249h60q67 0 89 25.5t22 89.5h56v-282h-56q0 64 -22 89.5t-89 25.5h-60v-275h166q54 0 93 10t64 26.5t42 46.5t26 61.5t17 78.5h56zM592 928q-1 -83 -58.5 -135t-132.5 -52
t-132.5 52t-58.5 135h42q1 -57 47.5 -87.5t101.5 -30.5t101.5 30.5t47.5 87.5h42z" />
    <glyph glyph-name="ebreve" unicode="&#x115;" horiz-adv-x="561" 
d="M526 115q0 -6 -5 -18t-20 -30.5t-37.5 -34.5t-62 -27.5t-89.5 -11.5q-130 0 -204 66t-74 167q0 95 68.5 162t194.5 67q113 0 169 -56q60 -59 60 -158q0 -20 -7.5 -24.5t-26.5 -4.5h-323q1 -24 2.5 -40t10.5 -44t24 -44.5t45.5 -30t72.5 -13.5q14 0 30.5 2.5t39.5 9.5
t43.5 24t31.5 41q6 13 11 16t18 3q28 0 28 -21zM428 251q-4 162 -130 162q-125 0 -129 -162h259zM471 698q-1 -83 -58.5 -135t-132.5 -52t-132.5 52t-58.5 135h42q1 -57 47.5 -87.5t101.5 -30.5t101.5 30.5t47.5 87.5h42z" />
    <glyph glyph-name="Edotaccent" unicode="&#x116;" horiz-adv-x="803" 
d="M768 275l-49 -275h-672v52h108v576h-108v52h654l33 -243h-56q-14 108 -59 149.5t-152 41.5h-163v-249h60q67 0 89 25.5t22 89.5h56v-282h-56q0 64 -22 89.5t-89 25.5h-60v-275h166q54 0 93 10t64 26.5t42 46.5t26 61.5t17 78.5h56zM482 825q0 -33 -23.5 -56.5
t-57.5 -23.5q-32 0 -56 23.5t-24 56.5t23.5 56.5t57.5 23.5q32 0 56 -23.5t24 -56.5z" />
    <glyph glyph-name="edotaccent" unicode="&#x117;" horiz-adv-x="561" 
d="M526 115q0 -6 -5 -18t-20 -30.5t-37.5 -34.5t-62 -27.5t-89.5 -11.5q-130 0 -204 66t-74 167q0 95 68.5 162t194.5 67q113 0 169 -56q60 -59 60 -158q0 -20 -7.5 -24.5t-26.5 -4.5h-323q1 -24 2.5 -40t10.5 -44t24 -44.5t45.5 -30t72.5 -13.5q14 0 30.5 2.5t39.5 9.5
t43.5 24t31.5 41q6 13 11 16t18 3q28 0 28 -21zM428 251q-4 162 -130 162q-125 0 -129 -162h259zM361 605q0 -33 -23.5 -56.5t-57.5 -23.5q-32 0 -56 23.5t-24 56.5t23.5 56.5t57.5 23.5q32 0 56 -23.5t24 -56.5z" />
    <glyph glyph-name="Eogonek" unicode="&#x118;" horiz-adv-x="803" 
d="M768 275l-49 -275h-114q-26 -20 -36 -43.5t-4.5 -41.5t20 -30t33.5 -12q11 0 44 23q14 9 31 -6q6 -6 9.5 -17t-0.5 -19q-46 -66 -116 -66q-52 0 -85.5 32t-33.5 74q0 65 55 106h-475v52h108v576h-108v52h654l33 -243h-56q-14 108 -59 149.5t-152 41.5h-163v-249h60
q67 0 89 25.5t22 89.5h56v-282h-56q0 64 -22 89.5t-89 25.5h-60v-275h166q54 0 93 10t64 26.5t42 46.5t26 61.5t17 78.5h56z" />
    <glyph glyph-name="eogonek" unicode="&#x119;" horiz-adv-x="561" 
d="M526 115q0 -5 -3.5 -14.5t-14.5 -25t-27 -29.5t-44 -27.5t-62 -19.5q-37 -25 -42.5 -55.5t12 -50.5t43.5 -20q11 0 44 23q14 9 31 -6q6 -6 9.5 -17t-0.5 -19q-46 -66 -116 -66q-52 0 -85.5 32t-33.5 74q0 59 51 100q-119 7 -186.5 71.5t-67.5 160.5q0 95 68.5 162
t194.5 67q113 0 169 -56q60 -59 60 -158q0 -20 -7.5 -24.5t-26.5 -4.5h-323q1 -24 2.5 -40t10.5 -44t24 -44.5t45.5 -30t72.5 -13.5q14 0 30.5 2.5t39.5 9.5t43.5 24t31.5 41q6 13 11 16t18 3q28 0 28 -21zM428 251q-4 162 -130 162q-125 0 -129 -162h259z" />
    <glyph glyph-name="Ecaron" unicode="&#x11a;" horiz-adv-x="803" 
d="M768 275l-49 -275h-672v52h108v576h-108v52h654l33 -243h-56q-14 108 -59 149.5t-152 41.5h-163v-249h60q67 0 89 25.5t22 89.5h56v-282h-56q0 64 -22 89.5t-89 25.5h-60v-275h166q54 0 93 10t64 26.5t42 46.5t26 61.5t17 78.5h56zM576 872l-175 -141l-175 141l16 24
l160 -58l160 58z" />
    <glyph glyph-name="ecaron" unicode="&#x11b;" horiz-adv-x="561" 
d="M526 115q0 -6 -5 -18t-20 -30.5t-37.5 -34.5t-62 -27.5t-89.5 -11.5q-130 0 -204 66t-74 167q0 95 68.5 162t194.5 67q113 0 169 -56q60 -59 60 -158q0 -20 -7.5 -24.5t-26.5 -4.5h-323q1 -24 2.5 -40t10.5 -44t24 -44.5t45.5 -30t72.5 -13.5q14 0 30.5 2.5t39.5 9.5
t43.5 24t31.5 41q6 13 11 16t18 3q28 0 28 -21zM428 251q-4 162 -130 162q-125 0 -129 -162h259zM457 686l-177 -185l-177 185l20 22l158 -99l158 99z" />
    <glyph glyph-name="Gcircumflex" unicode="&#x11c;" horiz-adv-x="962" 
d="M901 224h-85v-193q0 -31 -17 -31q-7 0 -40.5 15.5t-52.5 29.5q-53 -59 -209 -59q-207 0 -318 103.5t-111 253.5q0 154 113.5 255.5t311.5 101.5q115 0 212 -68l66 58q11 10 23 10q10 0 15 -4.5t6 -9.5t1 -17v-215q0 -22 -5.5 -26.5t-27.5 -4.5q-14 0 -19 1t-9 5t-5 14
q-18 100 -85.5 152.5t-151.5 52.5q-145 0 -222 -84q-63 -69 -63 -220q0 -157 74 -231q77 -75 221 -75q57 0 97 18q22 9 33 23.5t12.5 23.5t1.5 23v98h-153v52q38 -3 210 -3l177 3v-52zM656 755l-16 -24l-160 58l-160 -58l-14 24l175 141z" />
    <glyph glyph-name="gcircumflex" unicode="&#x11d;" 
d="M595 393q0 -21 -14 -34.5t-34 -13.5t-33.5 13.5t-13.5 34.5q0 13 4 21q-34 -5 -61 -19q6 -5 13.5 -14.5t17 -32.5t9.5 -47q0 -25 -10.5 -49.5t-33.5 -47.5t-66 -37.5t-101 -14.5q-76 0 -127 25q-8 -11 -8 -28q0 -26 23 -49q15 -13 64 -13h52q57 0 84.5 -1t61.5 -6t60 -15
q96 -37 96 -136q0 -57 -68.5 -94t-203.5 -37q-144 0 -208 39.5t-64 88.5q0 33 25.5 55.5t61.5 31.5q-41 39 -41 96q0 49 33 89q-52 46 -52 104q0 25 10.5 49.5t33.5 47.5t66 37.5t101 14.5q82 0 140 -32q49 39 113 39q33 0 51.5 -20t18.5 -45zM367 302q0 22 -2 34.5t-9.5 32
t-29 29.5t-54.5 10q-27 0 -46 -7.5t-28.5 -17.5t-14.5 -27t-5.5 -27t-0.5 -28q0 -22 2 -34.5t9.5 -32t29 -29.5t54.5 -10q27 0 46 7.5t28.5 17.5t14.5 27t5.5 27t0.5 28zM485 -74q0 57 -151 57h-127q-80 0 -80 -56q0 -34 44 -60t135 -26q93 0 136 26.5t43 58.5zM440 523
l-20 -22l-158 99l-158 -99l-18 22l177 185z" />
    <glyph glyph-name="Gbreve" unicode="&#x11e;" horiz-adv-x="962" 
d="M901 224h-85v-193q0 -31 -17 -31q-7 0 -40.5 15.5t-52.5 29.5q-53 -59 -209 -59q-207 0 -318 103.5t-111 253.5q0 154 113.5 255.5t311.5 101.5q115 0 212 -68l66 58q11 10 23 10q10 0 15 -4.5t6 -9.5t1 -17v-215q0 -22 -5.5 -26.5t-27.5 -4.5q-14 0 -19 1t-9 5t-5 14
q-18 100 -85.5 152.5t-151.5 52.5q-145 0 -222 -84q-63 -69 -63 -220q0 -157 74 -231q77 -75 221 -75q57 0 97 18q22 9 33 23.5t12.5 23.5t1.5 23v98h-153v52q38 -3 210 -3l177 3v-52zM672 928q-1 -83 -58.5 -135t-132.5 -52t-132.5 52t-58.5 135h42q1 -57 47.5 -87.5
t101.5 -30.5t101.5 30.5t47.5 87.5h42z" />
    <glyph glyph-name="gbreve" unicode="&#x11f;" 
d="M595 393q0 -21 -14 -34.5t-34 -13.5t-33.5 13.5t-13.5 34.5q0 13 4 21q-34 -5 -61 -19q6 -5 13.5 -14.5t17 -32.5t9.5 -47q0 -25 -10.5 -49.5t-33.5 -47.5t-66 -37.5t-101 -14.5q-76 0 -127 25q-8 -11 -8 -28q0 -26 23 -49q15 -13 64 -13h52q57 0 84.5 -1t61.5 -6t60 -15
q96 -37 96 -136q0 -57 -68.5 -94t-203.5 -37q-144 0 -208 39.5t-64 88.5q0 33 25.5 55.5t61.5 31.5q-41 39 -41 96q0 49 33 89q-52 46 -52 104q0 25 10.5 49.5t33.5 47.5t66 37.5t101 14.5q82 0 140 -32q49 39 113 39q33 0 51.5 -20t18.5 -45zM367 302q0 22 -2 34.5t-9.5 32
t-29 29.5t-54.5 10q-27 0 -46 -7.5t-28.5 -17.5t-14.5 -27t-5.5 -27t-0.5 -28q0 -22 2 -34.5t9.5 -32t29 -29.5t54.5 -10q27 0 46 7.5t28.5 17.5t14.5 27t5.5 27t0.5 28zM485 -74q0 57 -151 57h-127q-80 0 -80 -56q0 -34 44 -60t135 -26q93 0 136 26.5t43 58.5zM454 698
q-1 -83 -58.5 -135t-132.5 -52t-132.5 52t-58.5 135h42q1 -57 47.5 -87.5t101.5 -30.5t101.5 30.5t47.5 87.5h42z" />
    <glyph glyph-name="Gdotaccent" unicode="&#x120;" horiz-adv-x="962" 
d="M901 224h-85v-193q0 -31 -17 -31q-7 0 -40.5 15.5t-52.5 29.5q-53 -59 -209 -59q-207 0 -318 103.5t-111 253.5q0 154 113.5 255.5t311.5 101.5q115 0 212 -68l66 58q11 10 23 10q10 0 15 -4.5t6 -9.5t1 -17v-215q0 -22 -5.5 -26.5t-27.5 -4.5q-14 0 -19 1t-9 5t-5 14
q-18 100 -85.5 152.5t-151.5 52.5q-145 0 -222 -84q-63 -69 -63 -220q0 -157 74 -231q77 -75 221 -75q57 0 97 18q22 9 33 23.5t12.5 23.5t1.5 23v98h-153v52q38 -3 210 -3l177 3v-52zM562 825q0 -33 -23.5 -56.5t-57.5 -23.5q-32 0 -56 23.5t-24 56.5t23.5 56.5t57.5 23.5
q32 0 56 -23.5t24 -56.5z" />
    <glyph glyph-name="gdotaccent" unicode="&#x121;" 
d="M595 393q0 -21 -14 -34.5t-34 -13.5t-33.5 13.5t-13.5 34.5q0 13 4 21q-34 -5 -61 -19q6 -5 13.5 -14.5t17 -32.5t9.5 -47q0 -25 -10.5 -49.5t-33.5 -47.5t-66 -37.5t-101 -14.5q-76 0 -127 25q-8 -11 -8 -28q0 -26 23 -49q15 -13 64 -13h52q57 0 84.5 -1t61.5 -6t60 -15
q96 -37 96 -136q0 -57 -68.5 -94t-203.5 -37q-144 0 -208 39.5t-64 88.5q0 33 25.5 55.5t61.5 31.5q-41 39 -41 96q0 49 33 89q-52 46 -52 104q0 25 10.5 49.5t33.5 47.5t66 37.5t101 14.5q82 0 140 -32q49 39 113 39q33 0 51.5 -20t18.5 -45zM367 302q0 22 -2 34.5t-9.5 32
t-29 29.5t-54.5 10q-27 0 -46 -7.5t-28.5 -17.5t-14.5 -27t-5.5 -27t-0.5 -28q0 -22 2 -34.5t9.5 -32t29 -29.5t54.5 -10q27 0 46 7.5t28.5 17.5t14.5 27t5.5 27t0.5 28zM485 -74q0 57 -151 57h-127q-80 0 -80 -56q0 -34 44 -60t135 -26q93 0 136 26.5t43 58.5zM344 605
q0 -33 -23.5 -56.5t-57.5 -23.5q-32 0 -56 23.5t-24 56.5t23.5 56.5t57.5 23.5q32 0 56 -23.5t24 -56.5z" />
    <glyph glyph-name="Gcommaaccent" unicode="&#x122;" horiz-adv-x="962" 
d="M901 224h-85v-193q0 -31 -17 -31q-7 0 -40.5 15.5t-52.5 29.5q-53 -59 -209 -59q-207 0 -318 103.5t-111 253.5q0 154 113.5 255.5t311.5 101.5q115 0 212 -68l66 58q11 10 23 10q10 0 15 -4.5t6 -9.5t1 -17v-215q0 -22 -5.5 -26.5t-27.5 -4.5q-14 0 -19 1t-9 5t-5 14
q-18 100 -85.5 152.5t-151.5 52.5q-145 0 -222 -84q-63 -69 -63 -220q0 -157 74 -231q77 -75 221 -75q57 0 97 18q22 9 33 23.5t12.5 23.5t1.5 23v98h-153v52q38 -3 210 -3l177 3v-52zM547 -137q0 -48 -21.5 -90t-43 -61t-30.5 -19q-5 0 -10.5 5.5t-5.5 10.5q0 7 9 14
q63 49 69 127q-13 -12 -38 -12q-28 0 -44 17.5t-16 42.5t16.5 42.5t43.5 17.5q31 0 51 -27t20 -68z" />
    <glyph glyph-name="gcommaaccent" unicode="&#x123;" 
d="M329 547q0 -25 -16.5 -42.5t-43.5 -17.5q-31 0 -51 27t-20 68q0 48 21.5 90t43 61t30.5 19q5 0 10.5 -5.5t5.5 -10.5q0 -7 -9 -14q-63 -49 -69 -127q13 12 38 12q28 0 44 -17.5t16 -42.5zM595 393q0 -21 -14 -34.5t-34 -13.5t-33.5 13.5t-13.5 34.5q0 13 4 21
q-34 -5 -61 -19q6 -5 13.5 -14.5t17 -32.5t9.5 -47q0 -25 -10.5 -49.5t-33.5 -47.5t-66 -37.5t-101 -14.5q-76 0 -127 25q-8 -11 -8 -28q0 -26 23 -49q15 -13 64 -13h52q57 0 84.5 -1t61.5 -6t60 -15q96 -37 96 -136q0 -57 -68.5 -94t-203.5 -37q-144 0 -208 39.5t-64 88.5
q0 33 25.5 55.5t61.5 31.5q-41 39 -41 96q0 49 33 89q-52 46 -52 104q0 25 10.5 49.5t33.5 47.5t66 37.5t101 14.5q82 0 140 -32q49 39 113 39q33 0 51.5 -20t18.5 -45zM367 302q0 22 -2 34.5t-9.5 32t-29 29.5t-54.5 10q-27 0 -46 -7.5t-28.5 -17.5t-14.5 -27t-5.5 -27
t-0.5 -28q0 -22 2 -34.5t9.5 -32t29 -29.5t54.5 -10q27 0 46 7.5t28.5 17.5t14.5 27t5.5 27t0.5 28zM485 -74q0 57 -151 57h-127q-80 0 -80 -56q0 -34 44 -60t135 -26q93 0 136 26.5t43 58.5z" />
    <glyph glyph-name="Hcircumflex" unicode="&#x124;" horiz-adv-x="955" 
d="M907 0q-38 3 -182 3q-145 0 -183 -3v52h108v279h-346v-279h108v-52q-38 3 -182 3q-145 0 -183 -3v52h108v582h-108v52q38 -3 183 -3q144 0 182 3v-52h-108v-251h346v251h-108v52q38 -3 183 -3q144 0 182 3v-52h-108v-582h108v-52zM652 755l-16 -24l-160 58l-160 -58
l-14 24l175 141z" />
    <glyph glyph-name="hcircumflex" unicode="&#x125;" horiz-adv-x="681" 
d="M650 0q-54 3 -127 3t-127 -3v52h66v262q0 55 -14.5 75t-43.5 20q-35 0 -70 -15t-62.5 -52t-27.5 -89v-201h66v-52q-54 3 -127 3t-127 -3v52h66v543q0 28 -10 33.5t-56 5.5v52l182 8v-335q62 92 181 92q77 0 121 -32t44 -116v-251h66v-52zM515 763l-16 -24l-160 58
l-160 -58l-14 24l175 141z" />
    <glyph glyph-name="Hbar" unicode="&#x126;" horiz-adv-x="955" 
d="M907 0q-38 3 -182 3q-145 0 -183 -3v52h108v279h-346v-279h108v-52q-38 3 -182 3q-145 0 -183 -3v52h108v437h-108v52h108v93h-108v52q38 -3 183 -3q144 0 182 3v-52h-108v-93h346v93h-108v52q38 -3 183 -3q144 0 182 3v-52h-108v-93h108v-52h-108v-437h108v-52zM650 383
v106h-346v-106h346z" />
    <glyph glyph-name="hbar" unicode="&#x127;" horiz-adv-x="681" 
d="M650 0q-54 3 -127 3t-127 -3v52h66v262q0 55 -14.5 75t-43.5 20q-35 0 -70 -15t-62.5 -52t-27.5 -89v-201h66v-52q-54 3 -127 3t-127 -3v52h66v465h-66v52h66v26q0 28 -10 33.5t-56 5.5v52l182 8v-125h102v-52h-102v-158q62 92 181 92q77 0 121 -32t44 -116v-251h66v-52z
" />
    <glyph glyph-name="Itilde" unicode="&#x128;" horiz-adv-x="459" 
d="M417 0q-37 3 -188 3q-150 0 -187 -3v52h113v582h-113v52q37 -3 188 -3q150 0 187 3v-52h-113v-582h113v-52zM433 823q-27 -26 -38.5 -38.5t-16.5 -17.5q-38 -36 -81 -36q-27 0 -70 16q-61 24 -88 24q-28 0 -50.5 -13t-33.5 -27l-30 30q27 26 38.5 38.5t16.5 17.5
q38 36 81 36q27 0 70 -16q61 -24 88 -24q28 0 50.5 13t33.5 27z" />
    <glyph glyph-name="itilde" unicode="&#x129;" horiz-adv-x="340" 
d="M300 0q-49 3 -119 3q-64 0 -122 -3v52h66v301q0 28 -9.5 33t-53.5 5v52l179 8v-399h59v-52zM374 636q-27 -26 -38.5 -38.5t-16.5 -17.5q-38 -36 -81 -36q-27 0 -70 16q-61 24 -88 24q-28 0 -50.5 -13t-33.5 -27l-30 30q27 26 38.5 38.5t16.5 17.5q38 36 81 36
q27 0 70 -16q61 -24 88 -24q28 0 50.5 13t33.5 27z" />
    <glyph glyph-name="Imacron" unicode="&#x12a;" horiz-adv-x="459" 
d="M417 0q-37 3 -188 3q-150 0 -187 -3v52h113v582h-113v52q37 -3 188 -3q150 0 187 3v-52h-113v-582h113v-52zM450 751h-442v58h442v-58z" />
    <glyph glyph-name="imacron" unicode="&#x12b;" horiz-adv-x="340" 
d="M300 0q-49 3 -119 3q-64 0 -122 -3v52h66v301q0 28 -9.5 33t-53.5 5v52l179 8v-399h59v-52zM391 576h-442v58h442v-58z" />
    <glyph glyph-name="Ibreve" unicode="&#x12c;" horiz-adv-x="459" 
d="M417 0q-37 3 -188 3q-150 0 -187 -3v52h113v582h-113v52q37 -3 188 -3q150 0 187 3v-52h-113v-582h113v-52zM420 928q-1 -83 -58.5 -135t-132.5 -52t-132.5 52t-58.5 135h42q1 -57 47.5 -87.5t101.5 -30.5t101.5 30.5t47.5 87.5h42z" />
    <glyph glyph-name="ibreve" unicode="&#x12d;" horiz-adv-x="340" 
d="M300 0q-49 3 -119 3q-64 0 -122 -3v52h66v301q0 28 -9.5 33t-53.5 5v52l179 8v-399h59v-52zM361 698q-1 -83 -58.5 -135t-132.5 -52t-132.5 52t-58.5 135h42q1 -57 47.5 -87.5t101.5 -30.5t101.5 30.5t47.5 87.5h42z" />
    <glyph glyph-name="Iogonek" unicode="&#x12e;" horiz-adv-x="459" 
d="M417 0q-6 1 -97 3q-35 -18 -44 -54q-9 -29 9.5 -52.5t45.5 -23.5q11 0 44 23q14 9 31 -6q6 -6 9.5 -17t-0.5 -19q-46 -66 -116 -66q-52 0 -85.5 32t-33.5 74q0 53 60 109h-11q-150 0 -187 -3v52h113v582h-113v52q37 -3 188 -3q150 0 187 3v-52h-113v-582h113v-52z" />
    <glyph glyph-name="iogonek" unicode="&#x12f;" horiz-adv-x="340" 
d="M250 615q0 -33 -23.5 -56.5t-56.5 -23.5t-56.5 23t-23.5 57t23.5 57t56.5 23t56.5 -23.5t23.5 -56.5zM300 0q-44 3 -107 3q-35 -18 -46 -54q-8 -29 10.5 -52.5t45.5 -23.5q11 0 44 23q14 9 31 -6q6 -6 9.5 -17t-0.5 -19q-46 -66 -116 -66q-52 0 -85.5 32t-33.5 74
q0 53 59 108l-52 -2v52h66v301q0 28 -9.5 33t-53.5 5v52l179 8v-399h59v-52z" />
    <glyph glyph-name="Idotaccent" unicode="&#x130;" horiz-adv-x="459" 
d="M417 0q-37 3 -188 3q-150 0 -187 -3v52h113v582h-113v52q37 -3 188 -3q150 0 187 3v-52h-113v-582h113v-52zM310 825q0 -33 -23.5 -56.5t-57.5 -23.5q-32 0 -56 23.5t-24 56.5t23.5 56.5t57.5 23.5q32 0 56 -23.5t24 -56.5z" />
    <glyph glyph-name="dotlessi" unicode="&#x131;" horiz-adv-x="340" 
d="M300 0q-49 3 -119 3q-64 0 -122 -3v52h66v301q0 28 -9.5 33t-53.5 5v52l179 8v-399h59v-52z" />
    <glyph glyph-name="Jcircumflex" unicode="&#x134;" horiz-adv-x="631" 
d="M556 634h-81v-484q0 -77 -66 -120.5t-176 -43.5q-97 0 -152.5 34.5t-55.5 93.5q0 36 23 58.5t58 22.5t58 -22.5t23 -58.5q0 -47 -39 -70q36 -16 80 -16q47 0 75.5 29.5t28.5 91.5v485h-140v52q37 -3 196 -3l168 3v-52zM549 755l-16 -24l-160 58l-160 -58l-14 24l175 141z
" />
    <glyph glyph-name="jcircumflex" unicode="&#x135;" horiz-adv-x="374" 
d="M287 -38q0 -78 -59 -120.5t-134 -42.5q-68 0 -110.5 25.5t-42.5 71.5q0 30 19 49t49 19q29 0 48 -19t19 -48q0 -26 -17 -46l-2 -4q0 -6 35 -6q41 0 60 36t19 84v391q0 13 -0.5 18.5t-5 10.5t-14.5 7q-13 3 -53 3v52l189 8v-489zM384 523l-20 -22l-158 99l-158 -99l-18 22
l177 185z" />
    <glyph glyph-name="Kcommaaccent" unicode="&#x136;" horiz-adv-x="956" 
d="M904 0l-155 3q-137 0 -174 -3v52q67 0 67 9q0 2 -4 7l-3 4l-220 266l-111 -87v-199h108v-52q-38 3 -182 3q-145 0 -183 -3v52h108v582h-108v52q38 -3 183 -3q144 0 182 3v-52h-108v-312l388 303q-26 9 -64 9v52q63 -3 144 -3q85 0 115 3v-52h-21q-70 0 -91 -16l-257 -200
l288 -349q9 -11 19 -14t46 -3h33v-52zM544 -137q0 -48 -21.5 -90t-43 -61t-30.5 -19q-5 0 -10.5 5.5t-5.5 10.5q0 7 9 14q63 49 69 127q-13 -12 -38 -12q-28 0 -44 17.5t-16 42.5t16.5 42.5t43.5 17.5q31 0 51 -27t20 -68z" />
    <glyph glyph-name="kcommaaccent" unicode="&#x137;" horiz-adv-x="647" 
d="M626 0q-32 3 -109 3q-62 0 -120 -3v52q23 0 23 7q0 3 -57.5 68.5t-76.5 85.5l-65 -48v-113h66v-52q-51 3 -121 3q-69 0 -120 -3v52h66v543q0 28 -10 33.5t-56 5.5v52l182 8v-454l195 143q-6 9 -22 9v52q55 -3 111 -3q52 0 87 3v-52q-32 0 -50 -2t-24 -5t-15 -9l-140 -102
l180 -205q9 -11 19 -14t38 -3h19v-52zM389 -137q0 -48 -21.5 -90t-43 -61t-30.5 -19q-5 0 -10.5 5.5t-5.5 10.5q0 7 9 14q63 49 69 127q-13 -12 -38 -12q-28 0 -44 17.5t-16 42.5t16.5 42.5t43.5 17.5q31 0 51 -27t20 -68z" />
    <glyph glyph-name="Lacute" unicode="&#x139;" horiz-adv-x="735" 
d="M683 275l-33 -275h-603v52h108v582h-108v52q38 -3 190 -3q165 0 202 3v-52h-135v-582h110q53 0 92.5 17.5t60.5 40t35 58.5t17.5 56.5t7.5 50.5h56zM401 836q-1 -7 -3.5 -13t-7 -11t-8 -8t-8.5 -6t-8 -4t-8 -3l-5 -2l-174 -48l-24 50l145 107q21 16 41 16
q31 0 49.5 -24.5t10.5 -53.5z" />
    <glyph glyph-name="lacute" unicode="&#x13a;" horiz-adv-x="340" 
d="M307 0q-58 3 -124 3t-124 -3v52h66v543q0 28 -10 33.5t-56 5.5v52l182 8v-642h66v-52zM334 844q-1 -7 -3.5 -13t-7 -11t-8 -8t-8.5 -6t-8 -4t-8 -3l-5 -2l-174 -48l-24 50l145 107q21 16 41 16q31 0 49.5 -24.5t10.5 -53.5z" />
    <glyph glyph-name="Lcommaaccent" unicode="&#x13b;" horiz-adv-x="735" 
d="M683 275l-33 -275h-603v52h108v582h-108v52q38 -3 190 -3q165 0 202 3v-52h-135v-582h110q53 0 92.5 17.5t60.5 40t35 58.5t17.5 56.5t7.5 50.5h56zM433 -137q0 -48 -21.5 -90t-43 -61t-30.5 -19q-5 0 -10.5 5.5t-5.5 10.5q0 7 9 14q63 49 69 127q-13 -12 -38 -12
q-28 0 -44 17.5t-16 42.5t16.5 42.5t43.5 17.5q31 0 51 -27t20 -68z" />
    <glyph glyph-name="lcommaaccent" unicode="&#x13c;" horiz-adv-x="340" 
d="M307 0q-58 3 -124 3t-124 -3v52h66v543q0 28 -10 33.5t-56 5.5v52l182 8v-642h66v-52zM236 -137q0 -48 -21.5 -90t-43 -61t-30.5 -19q-5 0 -10.5 5.5t-5.5 10.5q0 7 9 14q63 49 69 127q-13 -12 -38 -12q-28 0 -44 17.5t-16 42.5t16.5 42.5t43.5 17.5q31 0 51 -27t20 -68z
" />
    <glyph glyph-name="Lcaron" unicode="&#x13d;" horiz-adv-x="735" 
d="M683 275l-33 -275h-603v52h108v582h-108v52q38 -3 190 -3q165 0 202 3v-52h-135v-582h110q53 0 92.5 17.5t60.5 40t35 58.5t17.5 56.5t7.5 50.5h56zM638 591q0 -48 -21.5 -90t-43 -61t-30.5 -19q-5 0 -10.5 5.5t-5.5 10.5q0 7 9 14q63 49 69 127q-13 -12 -38 -12
q-28 0 -44 17.5t-16 42.5t16.5 42.5t43.5 17.5q31 0 51 -27t20 -68z" />
    <glyph glyph-name="lcaron" unicode="&#x13e;" horiz-adv-x="340" 
d="M307 0q-58 3 -124 3t-124 -3v52h66v543q0 28 -10 33.5t-56 5.5v52l182 8v-642h66v-52zM417 599q0 -48 -21.5 -90t-43 -61t-30.5 -19q-5 0 -10.5 5.5t-5.5 10.5q0 7 9 14q63 49 69 127q-13 -12 -38 -12q-28 0 -44 17.5t-16 42.5t16.5 42.5t43.5 17.5q31 0 51 -27t20 -68z
" />
    <glyph glyph-name="Ldot" unicode="&#x13f;" horiz-adv-x="735" 
d="M683 275l-33 -275h-603v52h108v582h-108v52q38 -3 190 -3q165 0 202 3v-52h-135v-582h110q53 0 92.5 17.5t60.5 40t35 58.5t17.5 56.5t7.5 50.5h56zM677 431q0 -33 -23.5 -56.5t-57.5 -23.5q-32 0 -56 23.5t-24 56.5t23.5 56.5t57.5 23.5q32 0 56 -23.5t24 -56.5z" />
    <glyph glyph-name="ldot" unicode="&#x140;" horiz-adv-x="389" 
d="M307 0q-58 3 -124 3t-124 -3v52h66v543q0 28 -10 33.5t-56 5.5v52l182 8v-642h66v-52zM458 361q0 -33 -23.5 -56.5t-57.5 -23.5q-32 0 -56 23.5t-24 56.5t23.5 56.5t57.5 23.5q32 0 56 -23.5t24 -56.5z" />
    <glyph glyph-name="Lslash" unicode="&#x141;" horiz-adv-x="735" 
d="M683 275l-33 -275h-603v52h108v224l-70 -48l-28 40l98 68v298h-108v52q38 -3 190 -3q165 0 202 3v-52h-135v-195l168 116l28 -41l-196 -135v-327h110q53 0 92.5 17.5t60.5 40t35 58.5t17.5 56.5t7.5 50.5h56z" />
    <glyph glyph-name="lslash" unicode="&#x142;" horiz-adv-x="412" 
d="M367 432l-98 -68v-312h66v-52q-58 3 -124 3t-124 -3v52h66v230l-56 -39l-29 39l85 60v253q0 28 -10 33.5t-56 5.5v52l182 8v-270l71 49z" />
    <glyph glyph-name="Nacute" unicode="&#x143;" horiz-adv-x="955" 
d="M907 634h-28q-25 0 -51 -2q-21 -2 -25 -5.5t-4 -19.5v-573q0 -20 -5 -27t-26 -7q-20 0 -31 12l-520 576v-509q0 -15 4 -18.5t23 -5.5q23 -3 53 -3h28v-52l-139 3l-139 -3v52h28q25 0 51 2q21 2 25 5.5t4 19.5v555h-108v52h234q15 0 20 -2t15 -12l421 -465v400
q0 15 -4 18.5t-23 5.5q-23 3 -53 3h-28v52l139 -3l139 3v-52zM641 836q-1 -7 -3.5 -13t-7 -11t-8 -8t-8.5 -6t-8 -4t-8 -3l-5 -2l-174 -48l-24 50l145 107q21 16 41 16q31 0 49.5 -24.5t10.5 -53.5z" />
    <glyph glyph-name="nacute" unicode="&#x144;" horiz-adv-x="681" 
d="M650 0q-54 3 -127 3t-127 -3v52h66v262q0 55 -14.5 75t-43.5 20q-35 0 -70 -15t-62.5 -52t-27.5 -89v-201h66v-52q-54 3 -127 3t-127 -3v52h66v300q0 28 -10 33.5t-56 5.5v52l175 8v-102h1q7 12 18.5 26t33.5 33t57.5 31t77.5 12q77 0 121 -32t44 -116v-251h66v-52z
M496 637q0 -32 -39 -54l-163 -78l-32 45l124 131q21 23 46 23q26 0 45 -21.5t19 -45.5z" />
    <glyph glyph-name="Ncommaaccent" unicode="&#x145;" horiz-adv-x="955" 
d="M907 634h-28q-25 0 -51 -2q-21 -2 -25 -5.5t-4 -19.5v-573q0 -20 -5 -27t-26 -7q-20 0 -31 12l-520 576v-509q0 -15 4 -18.5t23 -5.5q23 -3 53 -3h28v-52l-139 3l-139 -3v52h28q25 0 51 2q21 2 25 5.5t4 19.5v555h-108v52h234q15 0 20 -2t15 -12l421 -465v400
q0 15 -4 18.5t-23 5.5q-23 3 -53 3h-28v52l139 -3l139 3v-52zM543 -137q0 -48 -21.5 -90t-43 -61t-30.5 -19q-5 0 -10.5 5.5t-5.5 10.5q0 7 9 14q63 49 69 127q-13 -12 -38 -12q-28 0 -44 17.5t-16 42.5t16.5 42.5t43.5 17.5q31 0 51 -27t20 -68z" />
    <glyph glyph-name="ncommaaccent" unicode="&#x146;" horiz-adv-x="681" 
d="M650 0q-54 3 -127 3t-127 -3v52h66v262q0 55 -14.5 75t-43.5 20q-35 0 -70 -15t-62.5 -52t-27.5 -89v-201h66v-52q-54 3 -127 3t-127 -3v52h66v300q0 28 -10 33.5t-56 5.5v52l175 8v-102h1q7 12 18.5 26t33.5 33t57.5 31t77.5 12q77 0 121 -32t44 -116v-251h66v-52z
M406 -137q0 -48 -21.5 -90t-43 -61t-30.5 -19q-5 0 -10.5 5.5t-5.5 10.5q0 7 9 14q63 49 69 127q-13 -12 -38 -12q-28 0 -44 17.5t-16 42.5t16.5 42.5t43.5 17.5q31 0 51 -27t20 -68z" />
    <glyph glyph-name="Ncaron" unicode="&#x147;" horiz-adv-x="955" 
d="M907 634h-28q-25 0 -51 -2q-21 -2 -25 -5.5t-4 -19.5v-573q0 -20 -5 -27t-26 -7q-20 0 -31 12l-520 576v-509q0 -15 4 -18.5t23 -5.5q23 -3 53 -3h28v-52l-139 3l-139 -3v52h28q25 0 51 2q21 2 25 5.5t4 19.5v555h-108v52h234q15 0 20 -2t15 -12l421 -465v400
q0 15 -4 18.5t-23 5.5q-23 3 -53 3h-28v52l139 -3l139 3v-52zM652 872l-175 -141l-175 141l16 24l160 -58l160 58z" />
    <glyph glyph-name="ncaron" unicode="&#x148;" horiz-adv-x="681" 
d="M650 0q-54 3 -127 3t-127 -3v52h66v262q0 55 -14.5 75t-43.5 20q-35 0 -70 -15t-62.5 -52t-27.5 -89v-201h66v-52q-54 3 -127 3t-127 -3v52h66v300q0 28 -10 33.5t-56 5.5v52l175 8v-102h1q7 12 18.5 26t33.5 33t57.5 31t77.5 12q77 0 121 -32t44 -116v-251h66v-52z
M517 686l-177 -185l-177 185l20 22l158 -99l158 99z" />
    <glyph glyph-name="Eng" unicode="&#x14a;" horiz-adv-x="955" 
d="M885 343q0 -93 -27.5 -172.5t-85.5 -132t-135 -52.5q-29 0 -48.5 20t-19.5 48t19.5 48t48.5 20q39 0 60 -36q28 58 28 257q0 78 -21.5 145t-68 111.5t-110.5 44.5q-143 0 -221 -76v-516h113v-52q-37 3 -188 3q-150 0 -187 -3v52h113v582h-113v52q37 -3 188 -3q36 0 74 3
v-50q91 64 221 64q149 0 254.5 -104.5t105.5 -252.5z" />
    <glyph glyph-name="eng" unicode="&#x14b;" horiz-adv-x="632" 
d="M584 52q0 -105 -59 -182.5t-151 -77.5q-25 0 -43 18t-18 43t18 43t43 18q42 0 57 -39q31 42 31 177v262q0 55 -14.5 75t-43.5 20q-35 0 -70 -15t-62.5 -52t-27.5 -89v-201h66v-52q-54 3 -127 3t-127 -3v52h66v300q0 28 -10 33.5t-56 5.5v52l175 8v-102h1q7 12 18.5 26
t33.5 33t57.5 31t77.5 12q77 0 121 -32t44 -116v-251z" />
    <glyph glyph-name="Omacron" unicode="&#x14c;" horiz-adv-x="920" 
d="M851 339q0 -153 -103.5 -253t-288.5 -100q-183 0 -287 99t-104 254q0 158 104 259.5t287 101.5q185 0 288.5 -102t103.5 -259zM691 354q0 145 -52 215q-63 84 -180 84q-61 0 -106 -23.5t-69 -54.5q-32 -43 -44 -94.5t-12 -126.5q0 -142 42 -213q63 -106 190 -106
q57 0 106 25.5t78 72.5q47 78 47 221zM681 751h-442v58h442v-58z" />
    <glyph glyph-name="omacron" unicode="&#x14d;" 
d="M578 218q0 -95 -70 -160t-202 -65q-131 0 -201.5 64.5t-70.5 160.5q0 100 70.5 168.5t201.5 68.5t201.5 -68t70.5 -169zM443 230q0 28 -1 42.5t-4 40t-12 40t-23.5 30.5t-39 23t-57.5 7q-39 0 -66.5 -12t-41 -27.5t-20.5 -44.5t-8 -47t-1 -52q0 -35 1 -54t8 -49.5
t20.5 -46t41 -28t66.5 -12.5t66.5 12.5t41 28t20.5 46t8 49.5t1 54zM527 576h-442v58h442v-58z" />
    <glyph glyph-name="Obreve" unicode="&#x14e;" horiz-adv-x="920" 
d="M851 339q0 -153 -103.5 -253t-288.5 -100q-183 0 -287 99t-104 254q0 158 104 259.5t287 101.5q185 0 288.5 -102t103.5 -259zM691 354q0 145 -52 215q-63 84 -180 84q-61 0 -106 -23.5t-69 -54.5q-32 -43 -44 -94.5t-12 -126.5q0 -142 42 -213q63 -106 190 -106
q57 0 106 25.5t78 72.5q47 78 47 221zM651 928q-1 -83 -58.5 -135t-132.5 -52t-132.5 52t-58.5 135h42q1 -57 47.5 -87.5t101.5 -30.5t101.5 30.5t47.5 87.5h42z" />
    <glyph glyph-name="obreve" unicode="&#x14f;" 
d="M578 218q0 -95 -70 -160t-202 -65q-131 0 -201.5 64.5t-70.5 160.5q0 100 70.5 168.5t201.5 68.5t201.5 -68t70.5 -169zM443 230q0 28 -1 42.5t-4 40t-12 40t-23.5 30.5t-39 23t-57.5 7q-39 0 -66.5 -12t-41 -27.5t-20.5 -44.5t-8 -47t-1 -52q0 -35 1 -54t8 -49.5
t20.5 -46t41 -28t66.5 -12.5t66.5 12.5t41 28t20.5 46t8 49.5t1 54zM497 698q-1 -83 -58.5 -135t-132.5 -52t-132.5 52t-58.5 135h42q1 -57 47.5 -87.5t101.5 -30.5t101.5 30.5t47.5 87.5h42z" />
    <glyph glyph-name="Ohungarumlaut" unicode="&#x150;" horiz-adv-x="920" 
d="M851 339q0 -153 -103.5 -253t-288.5 -100q-183 0 -287 99t-104 254q0 158 104 259.5t287 101.5q185 0 288.5 -102t103.5 -259zM691 354q0 145 -52 215q-63 84 -180 84q-61 0 -106 -23.5t-69 -54.5q-32 -43 -44 -94.5t-12 -126.5q0 -142 42 -213q63 -106 190 -106
q57 0 106 25.5t78 72.5q47 78 47 221zM474 875q0 -24 -26 -47l-101 -87l-46 33l47 121q17 46 56 46q25 0 47.5 -20t22.5 -46zM678 875q0 -24 -26 -47l-101 -87l-46 33l47 121q17 46 56 46q25 0 47.5 -20t22.5 -46z" />
    <glyph glyph-name="ohungarumlaut" unicode="&#x151;" 
d="M578 218q0 -95 -70 -160t-202 -65q-131 0 -201.5 64.5t-70.5 160.5q0 100 70.5 168.5t201.5 68.5t201.5 -68t70.5 -169zM443 230q0 28 -1 42.5t-4 40t-12 40t-23.5 30.5t-39 23t-57.5 7q-39 0 -66.5 -12t-41 -27.5t-20.5 -44.5t-8 -47t-1 -52q0 -35 1 -54t8 -49.5
t20.5 -46t41 -28t66.5 -12.5t66.5 12.5t41 28t20.5 46t8 49.5t1 54zM320 639q0 -24 -26 -47l-101 -87l-46 33l47 121q17 46 56 46q25 0 47.5 -20t22.5 -46zM524 639q0 -24 -26 -47l-101 -87l-46 33l47 121q17 46 56 46q25 0 47.5 -20t22.5 -46z" />
    <glyph glyph-name="OE" unicode="&#x152;" horiz-adv-x="1244" 
d="M1209 275l-49 -275h-469q-28 0 -105 -8q-50 -6 -92 -6q-192 0 -299.5 100t-107.5 253q0 156 107 258.5t300 102.5q39 0 111 -8q60 -6 86 -6h451l33 -243h-56q-7 52 -17.5 84t-32.5 58t-59 37.5t-93 11.5h-156v-252h96q69 0 98 23t29 92h56v-282h-56q0 69 -29 92t-98 23
h-96v-278h158q53 0 91.5 11t62.5 28t40 47.5t24 60t16 76.5h56zM631 198v290q0 56 -7 90t-24.5 51.5t-39.5 23t-60 5.5q-118 0 -188.5 -81t-70.5 -222q0 -150 70 -238.5t189 -88.5q50 0 76 11t40.5 48t14.5 111z" />
    <glyph glyph-name="oe" unicode="&#x153;" horiz-adv-x="953" 
d="M918 115q0 -7 -5.5 -20t-19.5 -31t-35 -33.5t-57 -26.5t-79 -11q-135 0 -211 76q-77 -76 -209 -76q-127 0 -197.5 66.5t-70.5 165.5q0 96 69.5 163t199.5 67q127 0 206 -73q75 73 198 73q103 0 159 -58q52 -55 52 -155q0 -21 -7 -25.5t-27 -4.5h-313q8 -172 161 -172
q39 0 75.5 18t53.5 59q5 12 10.5 15.5t18.5 3.5q28 0 28 -21zM821 251q-4 162 -114 162q-45 0 -75 -19.5t-42 -51.5t-15 -51t-4 -40h250zM449 229q0 25 -1 41t-8.5 46t-22 48.5t-44 33.5t-71.5 15q-30 0 -54 -8t-39 -19t-25.5 -29t-16 -32.5t-8 -36t-3 -32t-0.5 -27.5
q0 -25 1 -42t8.5 -48.5t22 -51.5t44 -36t71.5 -16q35 0 61.5 10t41.5 29t24.5 37t13 44.5t4.5 40t1 33.5z" />
    <glyph glyph-name="Racute" unicode="&#x154;" horiz-adv-x="915" 
d="M911 98q0 -9 -2.5 -20.5t-11 -28.5t-21.5 -30.5t-37.5 -23t-56.5 -9.5q-107 0 -162 31q-23 13 -37 28t-19.5 36.5t-6.5 37t-1 47.5q0 56 -4.5 77t-25.5 41q-37 38 -100 38h-128v-270h108v-52q-39 3 -179 3q-141 0 -180 -3v52h108v582h-108v52h398q142 0 229 -53t87 -134
q0 -53 -43.5 -95t-121.5 -64q46 -17 71.5 -45.5t31.5 -51.5t11 -66q4 -34 6.5 -49.5t9 -39t14 -33.5t21 -18.5t31.5 -8.5q20 0 40 15.5t23 56.5q2 23 28 23q28 0 28 -25zM601 499q0 30 -4 48.5t-19 41t-52 34t-95 11.5h-133v-270h130q48 0 82 9t51.5 21t27 32.5t11 35
t1.5 37.5zM621 836q-1 -7 -3.5 -13t-7 -11t-8 -8t-8.5 -6t-8 -4t-8 -3l-5 -2l-174 -48l-24 50l145 107q21 16 41 16q31 0 49.5 -24.5t10.5 -53.5z" />
    <glyph glyph-name="racute" unicode="&#x155;" horiz-adv-x="506" 
d="M471 364q0 -29 -19 -47.5t-47 -18.5t-47 18.5t-19 47.5q0 12 4 23.5t8 16.5l4 5q-45 -1 -75 -34.5t-41 -75t-11 -85.5v-162h82v-52l-136 3q-70 0 -128 -3v52h66v300q0 28 -10 33.5t-56 5.5v52l169 8v-107l1 -1q16 41 50.5 74.5t90.5 33.5q46 0 80 -24t34 -63zM409 637
q0 -32 -39 -54l-163 -78l-32 45l124 131q21 23 46 23q26 0 45 -21.5t19 -45.5z" />
    <glyph glyph-name="Rcommaaccent" unicode="&#x156;" horiz-adv-x="915" 
d="M911 98q0 -9 -2.5 -20.5t-11 -28.5t-21.5 -30.5t-37.5 -23t-56.5 -9.5q-107 0 -162 31q-23 13 -37 28t-19.5 36.5t-6.5 37t-1 47.5q0 56 -4.5 77t-25.5 41q-37 38 -100 38h-128v-270h108v-52q-39 3 -179 3q-141 0 -180 -3v52h108v582h-108v52h398q142 0 229 -53t87 -134
q0 -53 -43.5 -95t-121.5 -64q46 -17 71.5 -45.5t31.5 -51.5t11 -66q4 -34 6.5 -49.5t9 -39t14 -33.5t21 -18.5t31.5 -8.5q20 0 40 15.5t23 56.5q2 23 28 23q28 0 28 -25zM601 499q0 30 -4 48.5t-19 41t-52 34t-95 11.5h-133v-270h130q48 0 82 9t51.5 21t27 32.5t11 35
t1.5 37.5zM523 -137q0 -48 -21.5 -90t-43 -61t-30.5 -19q-5 0 -10.5 5.5t-5.5 10.5q0 7 9 14q63 49 69 127q-13 -12 -38 -12q-28 0 -44 17.5t-16 42.5t16.5 42.5t43.5 17.5q31 0 51 -27t20 -68z" />
    <glyph glyph-name="rcommaaccent" unicode="&#x157;" horiz-adv-x="506" 
d="M471 364q0 -29 -19 -47.5t-47 -18.5t-47 18.5t-19 47.5q0 12 4 23.5t8 16.5l4 5q-45 -1 -75 -34.5t-41 -75t-11 -85.5v-162h82v-52l-136 3q-70 0 -128 -3v52h66v300q0 28 -10 33.5t-56 5.5v52l169 8v-107l1 -1q16 41 50.5 74.5t90.5 33.5q46 0 80 -24t34 -63zM236 -137
q0 -48 -21.5 -90t-43 -61t-30.5 -19q-5 0 -10.5 5.5t-5.5 10.5q0 7 9 14q63 49 69 127q-13 -12 -38 -12q-28 0 -44 17.5t-16 42.5t16.5 42.5t43.5 17.5q31 0 51 -27t20 -68z" />
    <glyph glyph-name="Rcaron" unicode="&#x158;" horiz-adv-x="915" 
d="M911 98q0 -9 -2.5 -20.5t-11 -28.5t-21.5 -30.5t-37.5 -23t-56.5 -9.5q-107 0 -162 31q-23 13 -37 28t-19.5 36.5t-6.5 37t-1 47.5q0 56 -4.5 77t-25.5 41q-37 38 -100 38h-128v-270h108v-52q-39 3 -179 3q-141 0 -180 -3v52h108v582h-108v52h398q142 0 229 -53t87 -134
q0 -53 -43.5 -95t-121.5 -64q46 -17 71.5 -45.5t31.5 -51.5t11 -66q4 -34 6.5 -49.5t9 -39t14 -33.5t21 -18.5t31.5 -8.5q20 0 40 15.5t23 56.5q2 23 28 23q28 0 28 -25zM601 499q0 30 -4 48.5t-19 41t-52 34t-95 11.5h-133v-270h130q48 0 82 9t51.5 21t27 32.5t11 35
t1.5 37.5zM632 872l-175 -141l-175 141l16 24l160 -58l160 58z" />
    <glyph glyph-name="rcaron" unicode="&#x159;" horiz-adv-x="506" 
d="M471 364q0 -29 -19 -47.5t-47 -18.5t-47 18.5t-19 47.5q0 12 4 23.5t8 16.5l4 5q-45 -1 -75 -34.5t-41 -75t-11 -85.5v-162h82v-52l-136 3q-70 0 -128 -3v52h66v300q0 28 -10 33.5t-56 5.5v52l169 8v-107l1 -1q16 41 50.5 74.5t90.5 33.5q46 0 80 -24t34 -63zM430 686
l-177 -185l-177 185l20 22l158 -99l158 99z" />
    <glyph glyph-name="Sacute" unicode="&#x15a;" horiz-adv-x="681" 
d="M612 202q0 -39 -13 -75.5t-40 -69t-76 -52t-113 -19.5q-133 0 -214 53l-30 -29q-18 -18 -22.5 -21t-13.5 -3q-10 0 -15 4.5t-6 9.5t-1 17v180q0 19 4 25t24 6q27 0 28 -16q3 -92 68 -132q67 -42 177 -42q36 0 63.5 9t42 22t23 30.5t11 29.5t2.5 24q0 38 -27 71t-86 45
l-123 25q-32 7 -51 12t-51.5 23t-56.5 45q-48 55 -48 124q0 82 60.5 142t178.5 60q107 0 182 -54l31 30q18 18 22.5 21t13.5 3q10 0 15 -4.5t6 -9.5t1 -17v-180q0 -19 -4.5 -25t-23.5 -6q-18 0 -22.5 4.5t-6.5 19.5q-14 85 -71 129q-56 42 -143 42q-73 0 -105.5 -32
t-32.5 -72q0 -35 27 -63.5t79 -39.5l152 -31q78 -16 131.5 -74.5t53.5 -138.5zM504 836q-1 -7 -3.5 -13t-7 -11t-8 -8t-8.5 -6t-8 -4t-8 -3l-5 -2l-174 -48l-24 50l145 107q21 16 41 16q31 0 49.5 -24.5t10.5 -53.5z" />
    <glyph glyph-name="sacute" unicode="&#x15b;" horiz-adv-x="483" 
d="M441 141q0 -42 -18.5 -72t-41 -44t-55 -22t-48 -9t-33.5 -1q-74 0 -124 30l-26 -17q-21 -13 -32 -13q-10 0 -15 4.5t-6 9.5t-1 17v103q0 19 4 25t24 6q16 0 20.5 -3t8.5 -16q10 -29 22.5 -49t45 -37.5t79.5 -17.5q119 0 119 72q0 19 -11 33t-33.5 22.5t-38 12t-41.5 7.5
q-109 18 -148 46q-51 39 -51 93q0 38 18 65.5t40.5 40t55.5 19.5t48.5 8t34.5 1q64 0 106 -17q34 17 45 17q10 0 15 -4.5t6 -9.5t1 -17v-73q0 -19 -4.5 -25t-23.5 -6q-26 0 -28 16q-1 15 -4 25.5t-13.5 25.5t-36.5 23t-65 8q-118 0 -118 -59q0 -16 8.5 -26.5t32 -18.5
t43 -12t62.5 -11q90 -14 134 -55q43 -39 43 -95zM397 637q0 -32 -39 -54l-163 -78l-32 45l124 131q21 23 46 23q26 0 45 -21.5t19 -45.5z" />
    <glyph glyph-name="Scircumflex" unicode="&#x15c;" horiz-adv-x="681" 
d="M612 202q0 -39 -13 -75.5t-40 -69t-76 -52t-113 -19.5q-133 0 -214 53l-30 -29q-18 -18 -22.5 -21t-13.5 -3q-10 0 -15 4.5t-6 9.5t-1 17v180q0 19 4 25t24 6q27 0 28 -16q3 -92 68 -132q67 -42 177 -42q36 0 63.5 9t42 22t23 30.5t11 29.5t2.5 24q0 38 -27 71t-86 45
l-123 25q-32 7 -51 12t-51.5 23t-56.5 45q-48 55 -48 124q0 82 60.5 142t178.5 60q107 0 182 -54l31 30q18 18 22.5 21t13.5 3q10 0 15 -4.5t6 -9.5t1 -17v-180q0 -19 -4.5 -25t-23.5 -6q-18 0 -22.5 4.5t-6.5 19.5q-14 85 -71 129q-56 42 -143 42q-73 0 -105.5 -32
t-32.5 -72q0 -35 27 -63.5t79 -39.5l152 -31q78 -16 131.5 -74.5t53.5 -138.5zM515 755l-16 -24l-160 58l-160 -58l-14 24l175 141z" />
    <glyph glyph-name="scircumflex" unicode="&#x15d;" horiz-adv-x="483" 
d="M441 141q0 -42 -18.5 -72t-41 -44t-55 -22t-48 -9t-33.5 -1q-74 0 -124 30l-26 -17q-21 -13 -32 -13q-10 0 -15 4.5t-6 9.5t-1 17v103q0 19 4 25t24 6q16 0 20.5 -3t8.5 -16q10 -29 22.5 -49t45 -37.5t79.5 -17.5q119 0 119 72q0 19 -11 33t-33.5 22.5t-38 12t-41.5 7.5
q-109 18 -148 46q-51 39 -51 93q0 38 18 65.5t40.5 40t55.5 19.5t48.5 8t34.5 1q64 0 106 -17q34 17 45 17q10 0 15 -4.5t6 -9.5t1 -17v-73q0 -19 -4.5 -25t-23.5 -6q-26 0 -28 16q-1 15 -4 25.5t-13.5 25.5t-36.5 23t-65 8q-118 0 -118 -59q0 -16 8.5 -26.5t32 -18.5
t43 -12t62.5 -11q90 -14 134 -55q43 -39 43 -95zM418 523l-20 -22l-158 99l-158 -99l-18 22l177 185z" />
    <glyph glyph-name="Scedilla" unicode="&#x15e;" horiz-adv-x="681" 
d="M612 202q0 -81 -53 -144t-163 -71v-29q44 0 76 -21.5t32 -57.5q0 -19 -10.5 -33t-33.5 -22.5t-44.5 -13.5t-59 -7t-60 -2.5t-63.5 -0.5h-56v56h28q163 0 163 23q0 15 -22 19t-62 4v91q-79 13 -128 46l-30 -29q-18 -18 -22.5 -21t-13.5 -3q-10 0 -15 4.5t-6 9.5t-1 17v180
q0 19 4 25t24 6q27 0 28 -16q3 -92 68 -132q67 -42 177 -42q36 0 63.5 9t42 22t23 30.5t11 29.5t2.5 24q0 38 -27 71t-86 45l-123 25q-32 7 -51 12t-51.5 23t-56.5 45q-48 55 -48 124q0 82 60.5 142t178.5 60q107 0 182 -54l31 30q18 18 22.5 21t13.5 3q10 0 15 -4.5t6 -9.5
t1 -17v-180q0 -19 -4.5 -25t-23.5 -6q-18 0 -22.5 4.5t-6.5 19.5q-14 85 -71 129q-56 42 -143 42q-73 0 -105.5 -32t-32.5 -72q0 -35 27 -63.5t79 -39.5l152 -31q78 -16 131.5 -74.5t53.5 -138.5z" />
    <glyph glyph-name="scedilla" unicode="&#x15f;" horiz-adv-x="483" 
d="M441 141q0 -123 -143 -145v-38q44 0 75.5 -21.5t31.5 -57.5q0 -19 -10.5 -33t-33.5 -22.5t-44.5 -13.5t-59 -7t-60 -2.5t-63.5 -0.5h-56v56h28q163 0 163 23t-83 23v96q-33 6 -65 25l-26 -17q-21 -13 -32 -13q-10 0 -15 4.5t-6 9.5t-1 17v103q0 19 4 25t24 6
q16 0 20.5 -3t8.5 -16q10 -29 22.5 -49t45 -37.5t79.5 -17.5q119 0 119 72q0 19 -11 33t-33.5 22.5t-38 12t-41.5 7.5q-109 18 -148 46q-51 39 -51 93q0 38 18 65.5t40.5 40t55.5 19.5t48.5 8t34.5 1q64 0 106 -17q34 17 45 17q10 0 15 -4.5t6 -9.5t1 -17v-73
q0 -19 -4.5 -25t-23.5 -6q-26 0 -28 16q-1 15 -4 25.5t-13.5 25.5t-36.5 23t-65 8q-118 0 -118 -59q0 -16 8.5 -26.5t32 -18.5t43 -12t62.5 -11q90 -14 134 -55q43 -39 43 -95z" />
    <glyph glyph-name="Scaron" unicode="&#x160;" horiz-adv-x="681" 
d="M612 202q0 -39 -13 -75.5t-40 -69t-76 -52t-113 -19.5q-133 0 -214 53l-30 -29q-18 -18 -22.5 -21t-13.5 -3q-10 0 -15 4.5t-6 9.5t-1 17v180q0 19 4 25t24 6q27 0 28 -16q3 -92 68 -132q67 -42 177 -42q36 0 63.5 9t42 22t23 30.5t11 29.5t2.5 24q0 38 -27 71t-86 45
l-123 25q-32 7 -51 12t-51.5 23t-56.5 45q-48 55 -48 124q0 82 60.5 142t178.5 60q107 0 182 -54l31 30q18 18 22.5 21t13.5 3q10 0 15 -4.5t6 -9.5t1 -17v-180q0 -19 -4.5 -25t-23.5 -6q-18 0 -22.5 4.5t-6.5 19.5q-14 85 -71 129q-56 42 -143 42q-73 0 -105.5 -32
t-32.5 -72q0 -35 27 -63.5t79 -39.5l152 -31q78 -16 131.5 -74.5t53.5 -138.5zM515 872l-175 -141l-175 141l16 24l160 -58l160 58z" />
    <glyph glyph-name="scaron" unicode="&#x161;" horiz-adv-x="483" 
d="M441 141q0 -42 -18.5 -72t-41 -44t-55 -22t-48 -9t-33.5 -1q-74 0 -124 30l-26 -17q-21 -13 -32 -13q-10 0 -15 4.5t-6 9.5t-1 17v103q0 19 4 25t24 6q16 0 20.5 -3t8.5 -16q10 -29 22.5 -49t45 -37.5t79.5 -17.5q119 0 119 72q0 19 -11 33t-33.5 22.5t-38 12t-41.5 7.5
q-109 18 -148 46q-51 39 -51 93q0 38 18 65.5t40.5 40t55.5 19.5t48.5 8t34.5 1q64 0 106 -17q34 17 45 17q10 0 15 -4.5t6 -9.5t1 -17v-73q0 -19 -4.5 -25t-23.5 -6q-26 0 -28 16q-1 15 -4 25.5t-13.5 25.5t-36.5 23t-65 8q-118 0 -118 -59q0 -16 8.5 -26.5t32 -18.5
t43 -12t62.5 -11q90 -14 134 -55q43 -39 43 -95zM418 686l-177 -185l-177 185l20 22l158 -99l158 99z" />
    <glyph glyph-name="Tcedilla" unicode="&#x162;" horiz-adv-x="852" 
d="M807 430h-56q-4 52 -10.5 80.5t-23.5 57.5t-50 41t-85 12h-82v-569h152v-52q-42 3 -171 3l1 -45q44 0 76 -21.5t32 -57.5q0 -19 -10.5 -33t-33.5 -22.5t-44.5 -13.5t-59 -7t-60 -2.5t-63.5 -0.5h-56v56h28q163 0 163 23q0 15 -22 19t-62 4v101q-129 0 -171 -3v52h152v569
h-82q-52 0 -85 -12t-50 -41t-23.5 -57.5t-10.5 -80.5h-56l23 243h717z" />
    <glyph glyph-name="tcedilla" unicode="&#x163;" horiz-adv-x="476" 
d="M417 -121q0 -19 -10.5 -33t-33.5 -22.5t-44.5 -13.5t-59 -7t-60 -2.5t-63.5 -0.5h-56v56h28q163 0 163 23q0 15 -22 19t-62 4v101q-88 26 -88 120v269h-86v42q71 1 111 61t41 140h56v-191h156v-52h-156v-272q0 -80 59 -80q23 0 42 19.5t19 65.5v49h56v-51
q0 -49 -27 -82.5t-71 -43.5v-39q44 0 76 -21.5t32 -57.5z" />
    <glyph glyph-name="Tcaron" unicode="&#x164;" horiz-adv-x="852" 
d="M807 430h-56q-4 52 -10.5 80.5t-23.5 57.5t-50 41t-85 12h-82v-569h152v-52q-38 3 -227 3q-188 0 -226 -3v52h152v569h-82q-52 0 -85 -12t-50 -41t-23.5 -57.5t-10.5 -80.5h-56l23 243h717zM601 872l-175 -141l-175 141l16 24l160 -58l160 58z" />
    <glyph glyph-name="tcaron" unicode="&#x165;" horiz-adv-x="476" 
d="M407 123q0 -59 -37 -94.5t-95 -35.5q-166 0 -166 130v269h-86v42q71 1 111 61t41 140h56v-191h156v-52h-156v-272q0 -80 59 -80q23 0 42 19.5t19 65.5v49h56v-51zM407 660q0 -48 -21.5 -90t-43 -61t-30.5 -19q-5 0 -10.5 5.5t-5.5 10.5q0 7 9 14q63 49 69 127
q-13 -12 -38 -12q-28 0 -44 17.5t-16 42.5t16.5 42.5t43.5 17.5q31 0 51 -27t20 -68z" />
    <glyph glyph-name="Utilde" unicode="&#x168;" horiz-adv-x="939" 
d="M891 634h-28q-25 0 -51 -2q-21 -2 -25 -5.5t-4 -19.5v-377q0 -102 -74.5 -173t-221.5 -71q-158 0 -245 70t-87 175v403h-108v52q38 -3 183 -3q144 0 182 3v-52h-108v-409q0 -24 1.5 -41.5t11.5 -47.5t28 -49t55.5 -34t90.5 -15q100 0 163 47.5t63 146.5v375q0 15 -4 18.5
t-23 5.5q-23 3 -53 3h-28v52l141 -3l141 3v-52zM701 823q-27 -26 -38.5 -38.5t-16.5 -17.5q-38 -36 -81 -36q-27 0 -70 16q-61 24 -88 24q-28 0 -50.5 -13t-33.5 -27l-30 30q27 26 38.5 38.5t16.5 17.5q38 36 81 36q27 0 70 -16q61 -24 88 -24q28 0 50.5 13t33.5 27z" />
    <glyph glyph-name="utilde" unicode="&#x169;" horiz-adv-x="681" 
d="M650 0l-182 -7v70q-54 -70 -154 -70q-41 0 -72 5t-60 18t-44.5 40t-15.5 67v229q0 28 -10 33.5t-56 5.5v52l188 8v-342q0 -43 14 -58.5t70 -15.5q61 0 97.5 35t36.5 92v190q0 28 -10 33.5t-56 5.5v52l188 8v-360q0 -28 10 -33.5t56 -5.5v-52zM544 636
q-27 -26 -38.5 -38.5t-16.5 -17.5q-38 -36 -81 -36q-27 0 -70 16q-61 24 -88 24q-28 0 -50.5 -13t-33.5 -27l-30 30q27 26 38.5 38.5t16.5 17.5q38 36 81 36q27 0 70 -16q61 -24 88 -24q28 0 50.5 13t33.5 27z" />
    <glyph glyph-name="Umacron" unicode="&#x16a;" horiz-adv-x="939" 
d="M891 634h-28q-25 0 -51 -2q-21 -2 -25 -5.5t-4 -19.5v-377q0 -102 -74.5 -173t-221.5 -71q-158 0 -245 70t-87 175v403h-108v52q38 -3 183 -3q144 0 182 3v-52h-108v-409q0 -24 1.5 -41.5t11.5 -47.5t28 -49t55.5 -34t90.5 -15q100 0 163 47.5t63 146.5v375q0 15 -4 18.5
t-23 5.5q-23 3 -53 3h-28v52l141 -3l141 3v-52zM718 751h-442v58h442v-58z" />
    <glyph glyph-name="umacron" unicode="&#x16b;" horiz-adv-x="681" 
d="M650 0l-182 -7v70q-54 -70 -154 -70q-41 0 -72 5t-60 18t-44.5 40t-15.5 67v229q0 28 -10 33.5t-56 5.5v52l188 8v-342q0 -43 14 -58.5t70 -15.5q61 0 97.5 35t36.5 92v190q0 28 -10 33.5t-56 5.5v52l188 8v-360q0 -28 10 -33.5t56 -5.5v-52zM561 576h-442v58h442v-58z
" />
    <glyph glyph-name="Ubreve" unicode="&#x16c;" horiz-adv-x="939" 
d="M891 634h-28q-25 0 -51 -2q-21 -2 -25 -5.5t-4 -19.5v-377q0 -102 -74.5 -173t-221.5 -71q-158 0 -245 70t-87 175v403h-108v52q38 -3 183 -3q144 0 182 3v-52h-108v-409q0 -24 1.5 -41.5t11.5 -47.5t28 -49t55.5 -34t90.5 -15q100 0 163 47.5t63 146.5v375q0 15 -4 18.5
t-23 5.5q-23 3 -53 3h-28v52l141 -3l141 3v-52zM688 928q-1 -83 -58.5 -135t-132.5 -52t-132.5 52t-58.5 135h42q1 -57 47.5 -87.5t101.5 -30.5t101.5 30.5t47.5 87.5h42z" />
    <glyph glyph-name="ubreve" unicode="&#x16d;" horiz-adv-x="681" 
d="M650 0l-182 -7v70q-54 -70 -154 -70q-41 0 -72 5t-60 18t-44.5 40t-15.5 67v229q0 28 -10 33.5t-56 5.5v52l188 8v-342q0 -43 14 -58.5t70 -15.5q61 0 97.5 35t36.5 92v190q0 28 -10 33.5t-56 5.5v52l188 8v-360q0 -28 10 -33.5t56 -5.5v-52zM531 698q-1 -83 -58.5 -135
t-132.5 -52t-132.5 52t-58.5 135h42q1 -57 47.5 -87.5t101.5 -30.5t101.5 30.5t47.5 87.5h42z" />
    <glyph glyph-name="Uring" unicode="&#x16e;" horiz-adv-x="939" 
d="M891 634h-28q-25 0 -51 -2q-21 -2 -25 -5.5t-4 -19.5v-377q0 -102 -74.5 -173t-221.5 -71q-158 0 -245 70t-87 175v403h-108v52q38 -3 183 -3q144 0 182 3v-52h-108v-409q0 -24 1.5 -41.5t11.5 -47.5t28 -49t55.5 -34t90.5 -15q100 0 163 47.5t63 146.5v375q0 15 -4 18.5
t-23 5.5q-23 3 -53 3h-28v52l141 -3l141 3v-52zM564 785q0 18 -10 26t-21 9.5t-36 1.5q-37 0 -52 -6.5t-15 -30.5q0 -18 10 -26t21 -9.5t36 -1.5q37 0 52 6.5t15 30.5zM628 784q0 -31 -31 -57t-101 -26q-65 0 -97.5 24.5t-32.5 60.5q0 31 31 57t101 26q65 0 97.5 -24.5
t32.5 -60.5z" />
    <glyph glyph-name="uring" unicode="&#x16f;" horiz-adv-x="681" 
d="M650 0l-182 -7v70q-54 -70 -154 -70q-41 0 -72 5t-60 18t-44.5 40t-15.5 67v229q0 28 -10 33.5t-56 5.5v52l188 8v-342q0 -43 14 -58.5t70 -15.5q61 0 97.5 35t36.5 92v190q0 28 -10 33.5t-56 5.5v52l188 8v-360q0 -28 10 -33.5t56 -5.5v-52zM407 608q0 18 -10 26
t-21 9.5t-36 1.5q-37 0 -52 -6.5t-15 -30.5q0 -18 10 -26t21 -9.5t36 -1.5q37 0 52 6.5t15 30.5zM471 607q0 -31 -31 -57t-101 -26q-65 0 -97.5 24.5t-32.5 60.5q0 31 31 57t101 26q65 0 97.5 -24.5t32.5 -60.5z" />
    <glyph glyph-name="Uhungarumlaut" unicode="&#x170;" horiz-adv-x="939" 
d="M891 634h-28q-25 0 -51 -2q-21 -2 -25 -5.5t-4 -19.5v-377q0 -102 -74.5 -173t-221.5 -71q-158 0 -245 70t-87 175v403h-108v52q38 -3 183 -3q144 0 182 3v-52h-108v-409q0 -24 1.5 -41.5t11.5 -47.5t28 -49t55.5 -34t90.5 -15q100 0 163 47.5t63 146.5v375q0 15 -4 18.5
t-23 5.5q-23 3 -53 3h-28v52l141 -3l141 3v-52zM511 875q0 -24 -26 -47l-101 -87l-46 33l47 121q17 46 56 46q25 0 47.5 -20t22.5 -46zM715 875q0 -24 -26 -47l-101 -87l-46 33l47 121q17 46 56 46q25 0 47.5 -20t22.5 -46z" />
    <glyph glyph-name="uhungarumlaut" unicode="&#x171;" horiz-adv-x="681" 
d="M650 0l-182 -7v70q-54 -70 -154 -70q-41 0 -72 5t-60 18t-44.5 40t-15.5 67v229q0 28 -10 33.5t-56 5.5v52l188 8v-342q0 -43 14 -58.5t70 -15.5q61 0 97.5 35t36.5 92v190q0 28 -10 33.5t-56 5.5v52l188 8v-360q0 -28 10 -33.5t56 -5.5v-52zM354 639q0 -24 -26 -47
l-101 -87l-46 33l47 121q17 46 56 46q25 0 47.5 -20t22.5 -46zM558 639q0 -24 -26 -47l-101 -87l-46 33l47 121q17 46 56 46q25 0 47.5 -20t22.5 -46z" />
    <glyph glyph-name="Uogonek" unicode="&#x172;" horiz-adv-x="939" 
d="M891 634h-28q-25 0 -51 -2q-21 -2 -25 -5.5t-4 -19.5v-377q0 -94 -65 -163.5t-193 -79.5q-15 -15 -23 -38q-8 -29 10.5 -52.5t45.5 -23.5q11 0 44 23q14 9 31 -6q6 -6 9.5 -17t-0.5 -19q-46 -66 -116 -66q-52 0 -85.5 32t-33.5 74q0 44 44 93q-141 8 -218.5 76.5
t-77.5 167.5v403h-108v52q38 -3 183 -3q144 0 182 3v-52h-108v-409q0 -24 1.5 -41.5t11.5 -47.5t28 -49t55.5 -34t90.5 -15q100 0 163 47.5t63 146.5v375q0 15 -4 18.5t-23 5.5q-23 3 -53 3h-28v52l141 -3l141 3v-52z" />
    <glyph glyph-name="uogonek" unicode="&#x173;" horiz-adv-x="681" 
d="M668 -146q-46 -66 -116 -66q-52 0 -85.5 32t-33.5 74q0 45 51 100l-16 -1v70q-54 -70 -154 -70q-41 0 -72 5t-60 18t-44.5 40t-15.5 67v229q0 28 -10 33.5t-56 5.5v52l188 8v-342q0 -43 14 -58.5t70 -15.5q61 0 97.5 35t36.5 92v190q0 28 -10 33.5t-56 5.5v52l188 8v-360
q0 -28 10 -33.5t56 -5.5v-52l-87 -3q-27 -19 -34 -48q-9 -29 9.5 -52.5t45.5 -23.5q11 0 44 23q14 9 31 -6q6 -6 9.5 -17t-0.5 -19z" />
    <glyph glyph-name="Wcircumflex" unicode="&#x174;" horiz-adv-x="1263" 
d="M1235 634h-19q-47 0 -58.5 -4t-17.5 -18l-242 -593q-6 -16 -13.5 -22.5t-28.5 -6.5q-30 0 -41 27l-184 453l-184 -454q-11 -26 -41 -26q-21 0 -28.5 6.5t-13.5 22.5l-250 615h-87v52l160 -3q136 0 174 3v-52h-93l184 -454l149 364l-37 90h-86v52l160 -3q136 0 174 3v-52
h-94l185 -454l176 431q1 2 5 14q-30 9 -100 9v52l135 -3q81 0 116 3v-52zM806 755l-16 -24l-160 58l-160 -58l-14 24l175 141z" />
    <glyph glyph-name="wcircumflex" unicode="&#x175;" horiz-adv-x="885" 
d="M856 392q-41 0 -50.5 -3.5t-15.5 -17.5l-150 -348q-12 -28 -43 -28q-21 0 -28 6t-15 24l-112 258l-112 -258q-5 -13 -8.5 -18t-11.5 -8.5t-23 -3.5q-31 0 -43 28l-158 369h-58v52q35 -3 113 -3q63 0 121 3v-52h-50l108 -251l86 200l5 15q-4 8 -16 36h-57v52q30 -3 102 -3
q67 0 112 3v-52h-51l118 -274l109 252q1 2 5 14q-21 8 -53 8v52q32 -3 94 -3q47 0 82 3v-52zM619 523l-20 -22l-158 99l-158 -99l-18 22l177 185z" />
    <glyph glyph-name="Ycircumflex" unicode="&#x176;" horiz-adv-x="922" 
d="M897 634h-24q-26 0 -53 -3q-18 -2 -23.5 -4t-12.5 -12l-252 -340v-223h107v-52q-39 3 -178 3q-141 0 -180 -3v52h108v222l-266 360h-99v52q51 -3 172 -3q148 0 184 3v-52h-80l208 -281l201 272q-27 9 -72 9v52l136 -3q79 0 124 3v-52zM636 755l-16 -24l-160 58l-160 -58
l-14 24l175 141z" />
    <glyph glyph-name="ycircumflex" unicode="&#x177;" horiz-adv-x="647" 
d="M616 392q-44 0 -55 -3.5t-18 -17.5l-235 -461q-18 -35 -63 -73t-108 -38q-48 0 -80.5 29t-32.5 69q0 29 18.5 46t44.5 17q25 0 43.5 -16.5t18.5 -45.5q0 -37 -29 -54q8 -3 18 -3q55 0 97 54q17 25 56 105l-198 392h-63v52q40 -3 117 -3q65 0 123 3v-52h-47l134 -264
l122 241q5 10 5 13q0 4 -10 6.5t-20 3.5h-11v52q30 -3 90 -3q45 0 83 3v-52zM500 523l-20 -22l-158 99l-158 -99l-18 22l177 185z" />
    <glyph glyph-name="Ydieresis" unicode="&#x178;" horiz-adv-x="922" 
d="M897 634h-24q-26 0 -53 -3q-18 -2 -23.5 -4t-12.5 -12l-252 -340v-223h107v-52q-39 3 -178 3q-141 0 -180 -3v52h108v222l-266 360h-99v52q51 -3 172 -3q148 0 184 3v-52h-80l208 -281l201 272q-27 9 -72 9v52l136 -3q79 0 124 3v-52zM377 803q0 -29 -21.5 -50.5
t-51.5 -21.5q-29 0 -50.5 21t-21.5 51t21 51t52 21q29 0 50.5 -21t21.5 -51zM691 803q0 -29 -21.5 -50.5t-51.5 -21.5q-29 0 -50.5 21t-21.5 51t21 51t52 21q29 0 50.5 -21t21.5 -51z" />
    <glyph glyph-name="Zacute" unicode="&#x179;" horiz-adv-x="749" 
d="M687 286l-20 -286h-565q-13 0 -18.5 1t-10.5 7.5t-5 20.5q0 16 10 29l423 576h-136q-97 0 -156.5 -41t-67.5 -150h-56l13 243h548q13 0 18.5 -1t10.5 -7.5t5 -19.5q0 -14 -11 -28l-421 -573h147q130 0 179 55.5t57 173.5h56zM538 836q-1 -7 -3.5 -13t-7 -11t-8 -8
t-8.5 -6t-8 -4t-8 -3l-5 -2l-174 -48l-24 50l145 107q21 16 41 16q31 0 49.5 -24.5t10.5 -53.5z" />
    <glyph glyph-name="zacute" unicode="&#x17a;" horiz-adv-x="544" 
d="M492 206l-20 -206h-404q-12 0 -18 1t-11 7t-5 18q0 14 11 27l290 349h-83q-78 0 -109 -29.5t-36 -106.5h-56l13 178h391q12 0 17.5 -1t11 -6.5t5.5 -17.5q0 -11 -10 -23l-290 -349h88q47 0 77.5 10t47 32t23.5 48.5t11 68.5h56zM428 637q0 -32 -39 -54l-163 -78l-32 45
l124 131q21 23 46 23q26 0 45 -21.5t19 -45.5z" />
    <glyph glyph-name="Zdotaccent" unicode="&#x17b;" horiz-adv-x="749" 
d="M687 286l-20 -286h-565q-13 0 -18.5 1t-10.5 7.5t-5 20.5q0 16 10 29l423 576h-136q-97 0 -156.5 -41t-67.5 -150h-56l13 243h548q13 0 18.5 -1t10.5 -7.5t5 -19.5q0 -14 -11 -28l-421 -573h147q130 0 179 55.5t57 173.5h56zM455 825q0 -33 -23.5 -56.5t-57.5 -23.5
q-32 0 -56 23.5t-24 56.5t23.5 56.5t57.5 23.5q32 0 56 -23.5t24 -56.5z" />
    <glyph glyph-name="zdotaccent" unicode="&#x17c;" horiz-adv-x="544" 
d="M492 206l-20 -206h-404q-12 0 -18 1t-11 7t-5 18q0 14 11 27l290 349h-83q-78 0 -109 -29.5t-36 -106.5h-56l13 178h391q12 0 17.5 -1t11 -6.5t5.5 -17.5q0 -11 -10 -23l-290 -349h88q47 0 77.5 10t47 32t23.5 48.5t11 68.5h56zM353 605q0 -33 -23.5 -56.5t-57.5 -23.5
q-32 0 -56 23.5t-24 56.5t23.5 56.5t57.5 23.5q32 0 56 -23.5t24 -56.5z" />
    <glyph glyph-name="Zcaron" unicode="&#x17d;" horiz-adv-x="749" 
d="M687 286l-20 -286h-565q-13 0 -18.5 1t-10.5 7.5t-5 20.5q0 16 10 29l423 576h-136q-97 0 -156.5 -41t-67.5 -150h-56l13 243h548q13 0 18.5 -1t10.5 -7.5t5 -19.5q0 -14 -11 -28l-421 -573h147q130 0 179 55.5t57 173.5h56zM549 872l-175 -141l-175 141l16 24l160 -58
l160 58z" />
    <glyph glyph-name="zcaron" unicode="&#x17e;" horiz-adv-x="544" 
d="M492 206l-20 -206h-404q-12 0 -18 1t-11 7t-5 18q0 14 11 27l290 349h-83q-78 0 -109 -29.5t-36 -106.5h-56l13 178h391q12 0 17.5 -1t11 -6.5t5.5 -17.5q0 -11 -10 -23l-290 -349h88q47 0 77.5 10t47 32t23.5 48.5t11 68.5h56zM449 686l-177 -185l-177 185l20 22
l158 -99l158 99z" />
    <glyph glyph-name="longs" unicode="&#x17f;" horiz-adv-x="374" 
d="M467 609q0 -31 -20.5 -48.5t-45.5 -17.5q-26 0 -46 17.5t-20 48.5q0 27 18 44v4l-13 2q-99 0 -99 -117v-490h82v-52l-136 3q-70 0 -128 -3v52h66v340h-79v52h79v97q0 56 34.5 93.5t81.5 52t102 14.5q59 0 91.5 -27t32.5 -65z" />
    <glyph glyph-name="Ereversed" unicode="&#x18e;" horiz-adv-x="803" 
d="M768 0h-672l-49 275h56q8 -47 17 -78.5t26 -61.5t42 -46.5t64 -26.5t93 -10h166v275h-60q-67 0 -89 -25.5t-22 -89.5h-56v282h56q0 -64 22 -89.5t89 -25.5h60v249h-163q-107 0 -152 -41.5t-59 -149.5h-56l33 243h654v-52h-108v-576h108v-52z" />
    <glyph glyph-name="florin" unicode="&#x192;" horiz-adv-x="374" 
d="M467 609q0 -31 -20.5 -48.5t-45.5 -17.5q-26 0 -46 17.5t-20 48.5q0 27 16 44l2 4q-10 2 -13 2q-56 0 -80.5 -34t-24.5 -83v-98h128v-52h-122v-340h82v-52l-136 3q-70 0 -128 -3v52h66v340h-79v52h79v97q0 56 34.5 93.5t81.5 52t102 14.5q59 0 91.5 -27t32.5 -65z" />
    <glyph glyph-name="Ohorn" unicode="&#x1a0;" horiz-adv-x="920" 
d="M850 338q0 -159 -107 -256q-107 -96 -284 -96q-178 0 -285 96q-106 97 -106 256q0 164 106 263q107 99 285 99q126 0 219 -52q32 11 50 38q-31 1 -48 20.5t-17 46.5t18 46.5t49 19.5q29 0 48 -24.5t19 -58.5q0 -40 -19 -74t-50 -48q10 -8 15 -13q107 -100 107 -263z
M690 357q0 146 -56 217q-61 80 -175 80t-176 -80q-55 -70 -55 -217q0 -159 55 -237q29 -41 76 -63t100 -22q114 0 175 85q56 78 56 237z" />
    <glyph glyph-name="ohorn" unicode="&#x1a1;" horiz-adv-x="612" 
d="M598 495q0 -44 -20.5 -78.5t-55.5 -46.5q54 -63 54 -152q0 -102 -74 -164q-75 -61 -197 -61q-124 0 -197 61q-74 62 -74 164q0 107 74 172q75 65 197 65q104 0 175 -48q31 9 49 37q-30 1 -47 21t-17 46q0 27 17.5 47t49.5 20q29 0 47.5 -24.5t18.5 -58.5zM441 231
q0 103 -25 136q-34 46 -111 46t-111 -46q-25 -33 -25 -136q0 -109 25 -144q33 -48 111 -48q77 0 111 48q25 35 25 144z" />
    <glyph glyph-name="Uhorn" unicode="&#x1af;" horiz-adv-x="938" 
d="M922 735q0 -54 -40.5 -92.5t-100.5 -47.5v-366q0 -111 -81 -178q-81 -65 -211 -65q-148 0 -240 64q-45 32 -70 79t-25 100v405h-107v52l182 -4l182 4v-52h-107v-405q0 -99 40 -140q50 -51 145 -51q107 0 168 52q58 49 58 139v394q0 6 -26 8q-27 3 -81 3v52l140 -4
q13 0 33 4v-36q44 10 68 36q-29 2 -45 21.5t-16 45.5q0 27 18 46.5t49 19.5q30 0 48.5 -25t18.5 -59z" />
    <glyph glyph-name="uhorn" unicode="&#x1b0;" horiz-adv-x="680" 
d="M724 493q0 -52 -40 -87.5t-102 -48.5v-277q0 -19 11 -23q11 -5 54 -5v-52l-181 -7v72q-49 -72 -139 -72q-106 0 -153 27q-53 30 -53 96v247q0 19 -11 23q-11 5 -54 5v52l187 8v-335q0 -54 11 -64q18 -17 80 -17q52 0 88.5 34.5t37.5 84.5v209q0 19 -11 23q-11 5 -55 5v52
l188 8v-40q46 10 68 34q-28 2 -43.5 21.5t-15.5 44.5q0 27 17.5 47t48.5 20q30 0 48.5 -25.5t18.5 -59.5z" />
    <glyph glyph-name="Acaron" unicode="&#x1cd;" horiz-adv-x="922" 
d="M876 0q-63 3 -168 3q-141 0 -178 -3v52h93l-61 139h-287l-51 -116l-5 -14q29 -9 88 -9v-52l-136 3q-75 0 -126 -3v52h24q25 0 51 3q18 2 22.5 5t9.5 14l261 601q7 18 17.5 22t30.5 4q13 0 19.5 -1t14.5 -7t13 -18l270 -623h98v-52zM540 243l-121 279l-121 -279h242z
M636 872l-175 -141l-175 141l16 24l160 -58l160 58z" />
    <glyph glyph-name="acaron" unicode="&#x1ce;" horiz-adv-x="596" 
d="M589 26q0 -18 -8 -22t-26 -4h-53q-65 0 -86.5 19t-21.5 49q-49 -75 -159 -75q-89 0 -147 29.5t-58 89.5q0 43 32 75t85.5 48.5t109.5 24.5t118 8v29q0 116 -115 116q-48 0 -76 -7q21 -19 21 -51q0 -29 -19 -48t-49 -19q-27 0 -47 18.5t-20 49.5q0 99 192 99
q117 0 176 -44t59 -115v-211q0 -14 2.5 -19.5t16 -9.5t43.5 -4q10 0 15 -1t10 -7t5 -18zM375 137v93q-99 -2 -161 -33t-62 -83q0 -35 29.5 -57t69.5 -22q6 0 15 0.5t30 6t37 15t29 30.5t13 50zM475 686l-177 -185l-177 185l20 22l158 -99l158 99z" />
    <glyph glyph-name="Icaron" unicode="&#x1cf;" horiz-adv-x="459" 
d="M417 0q-37 3 -188 3q-150 0 -187 -3v52h113v582h-113v52q37 -3 188 -3q150 0 187 3v-52h-113v-582h113v-52zM404 872l-175 -141l-175 141l16 24l160 -58l160 58z" />
    <glyph glyph-name="icaron" unicode="&#x1d0;" horiz-adv-x="340" 
d="M300 0q-49 3 -119 3q-64 0 -122 -3v52h66v301q0 28 -9.5 33t-53.5 5v52l179 8v-399h59v-52zM347 686l-177 -185l-177 185l20 22l158 -99l158 99z" />
    <glyph glyph-name="Ocaron" unicode="&#x1d1;" horiz-adv-x="920" 
d="M851 339q0 -153 -103.5 -253t-288.5 -100q-183 0 -287 99t-104 254q0 158 104 259.5t287 101.5q185 0 288.5 -102t103.5 -259zM691 354q0 145 -52 215q-63 84 -180 84q-61 0 -106 -23.5t-69 -54.5q-32 -43 -44 -94.5t-12 -126.5q0 -142 42 -213q63 -106 190 -106
q57 0 106 25.5t78 72.5q47 78 47 221zM635 872l-175 -141l-175 141l16 24l160 -58l160 58z" />
    <glyph glyph-name="ocaron" unicode="&#x1d2;" 
d="M578 218q0 -95 -70 -160t-202 -65q-131 0 -201.5 64.5t-70.5 160.5q0 100 70.5 168.5t201.5 68.5t201.5 -68t70.5 -169zM443 230q0 28 -1 42.5t-4 40t-12 40t-23.5 30.5t-39 23t-57.5 7q-39 0 -66.5 -12t-41 -27.5t-20.5 -44.5t-8 -47t-1 -52q0 -35 1 -54t8 -49.5
t20.5 -46t41 -28t66.5 -12.5t66.5 12.5t41 28t20.5 46t8 49.5t1 54zM483 686l-177 -185l-177 185l20 22l158 -99l158 99z" />
    <glyph glyph-name="Ucaron" unicode="&#x1d3;" horiz-adv-x="939" 
d="M891 634h-28q-25 0 -51 -2q-21 -2 -25 -5.5t-4 -19.5v-377q0 -102 -74.5 -173t-221.5 -71q-158 0 -245 70t-87 175v403h-108v52q38 -3 183 -3q144 0 182 3v-52h-108v-409q0 -24 1.5 -41.5t11.5 -47.5t28 -49t55.5 -34t90.5 -15q100 0 163 47.5t63 146.5v375q0 15 -4 18.5
t-23 5.5q-23 3 -53 3h-28v52l141 -3l141 3v-52zM672 872l-175 -141l-175 141l16 24l160 -58l160 58z" />
    <glyph glyph-name="ucaron" unicode="&#x1d4;" horiz-adv-x="681" 
d="M650 0l-182 -7v70q-54 -70 -154 -70q-41 0 -72 5t-60 18t-44.5 40t-15.5 67v229q0 28 -10 33.5t-56 5.5v52l188 8v-342q0 -43 14 -58.5t70 -15.5q61 0 97.5 35t36.5 92v190q0 28 -10 33.5t-56 5.5v52l188 8v-360q0 -28 10 -33.5t56 -5.5v-52zM517 686l-177 -185l-177 185
l20 22l158 -99l158 99z" />
    <glyph glyph-name="Udieresisacute" unicode="&#x1d7;" horiz-adv-x="939" 
d="M891 634h-28q-25 0 -51 -2q-21 -2 -25 -5.5t-4 -19.5v-377q0 -102 -74.5 -173t-221.5 -71q-158 0 -245 70t-87 175v403h-108v52q38 -3 183 -3q144 0 182 3v-52h-108v-409q0 -24 1.5 -41.5t11.5 -47.5t28 -49t55.5 -34t90.5 -15q100 0 163 47.5t63 146.5v375q0 15 -4 18.5
t-23 5.5q-23 3 -53 3h-28v52l141 -3l141 3v-52zM413 803q0 -29 -21.5 -50.5t-51.5 -21.5q-29 0 -50.5 21t-21.5 51t21 51t52 21q29 0 50.5 -21t21.5 -51zM727 803q0 -29 -21.5 -50.5t-51.5 -21.5q-29 0 -50.5 21t-21.5 51t21 51t52 21q29 0 50.5 -21t21.5 -51zM661 1036
q-1 -7 -3.5 -13t-7 -11t-8 -8t-8.5 -6t-8 -4t-8 -3l-5 -2l-174 -48l-24 50l145 107q21 16 41 16q31 0 49.5 -24.5t10.5 -53.5z" />
    <glyph glyph-name="udieresisacute" unicode="&#x1d8;" horiz-adv-x="681" 
d="M650 0l-182 -7v70q-54 -70 -154 -70q-41 0 -72 5t-60 18t-44.5 40t-15.5 67v229q0 28 -10 33.5t-56 5.5v52l188 8v-342q0 -43 14 -58.5t70 -15.5q61 0 97.5 35t36.5 92v190q0 28 -10 33.5t-56 5.5v52l188 8v-360q0 -28 10 -33.5t56 -5.5v-52zM280 605q0 -29 -21.5 -50.5
t-51.5 -21.5q-29 0 -50.5 21t-21.5 51t21 51t52 21q29 0 50.5 -21t21.5 -51zM546 605q0 -29 -21.5 -50.5t-51.5 -21.5q-29 0 -50.5 21t-21.5 51t21 51t52 21q29 0 50.5 -21t21.5 -51zM504 827q-1 -7 -3.5 -13t-7 -11t-8 -8t-8.5 -6t-8 -4t-8 -3l-5 -2l-174 -48l-24 50
l145 107q21 16 41 16q31 0 49.5 -24.5t10.5 -53.5z" />
    <glyph glyph-name="Udieresiscaron" unicode="&#x1d9;" horiz-adv-x="939" 
d="M891 634h-28q-25 0 -51 -2q-21 -2 -25 -5.5t-4 -19.5v-377q0 -102 -74.5 -173t-221.5 -71q-158 0 -245 70t-87 175v403h-108v52q38 -3 183 -3q144 0 182 3v-52h-108v-409q0 -24 1.5 -41.5t11.5 -47.5t28 -49t55.5 -34t90.5 -15q100 0 163 47.5t63 146.5v375q0 15 -4 18.5
t-23 5.5q-23 3 -53 3h-28v52l141 -3l141 3v-52zM413 803q0 -29 -21.5 -50.5t-51.5 -21.5q-29 0 -50.5 21t-21.5 51t21 51t52 21q29 0 50.5 -21t21.5 -51zM727 803q0 -29 -21.5 -50.5t-51.5 -21.5q-29 0 -50.5 21t-21.5 51t21 51t52 21q29 0 50.5 -21t21.5 -51zM672 1072
l-175 -141l-175 141l16 24l160 -58l160 58z" />
    <glyph glyph-name="udieresiscaron" unicode="&#x1da;" horiz-adv-x="681" 
d="M650 0l-182 -7v70q-54 -70 -154 -70q-41 0 -72 5t-60 18t-44.5 40t-15.5 67v229q0 28 -10 33.5t-56 5.5v52l188 8v-342q0 -43 14 -58.5t70 -15.5q61 0 97.5 35t36.5 92v190q0 28 -10 33.5t-56 5.5v52l188 8v-360q0 -28 10 -33.5t56 -5.5v-52zM280 605q0 -29 -21.5 -50.5
t-51.5 -21.5q-29 0 -50.5 21t-21.5 51t21 51t52 21q29 0 50.5 -21t21.5 -51zM546 605q0 -29 -21.5 -50.5t-51.5 -21.5q-29 0 -50.5 21t-21.5 51t21 51t52 21q29 0 50.5 -21t21.5 -51zM515 863l-175 -141l-175 141l16 24l160 -58l160 58z" />
    <glyph glyph-name="Udieresisgrave" unicode="&#x1db;" horiz-adv-x="939" 
d="M891 634h-28q-25 0 -51 -2q-21 -2 -25 -5.5t-4 -19.5v-377q0 -102 -74.5 -173t-221.5 -71q-158 0 -245 70t-87 175v403h-108v52q38 -3 183 -3q144 0 182 3v-52h-108v-409q0 -24 1.5 -41.5t11.5 -47.5t28 -49t55.5 -34t90.5 -15q100 0 163 47.5t63 146.5v375q0 15 -4 18.5
t-23 5.5q-23 3 -53 3h-28v52l141 -3l141 3v-52zM413 803q0 -29 -21.5 -50.5t-51.5 -21.5q-29 0 -50.5 21t-21.5 51t21 51t52 21q29 0 50.5 -21t21.5 -51zM727 803q0 -29 -21.5 -50.5t-51.5 -21.5q-29 0 -50.5 21t-21.5 51t21 51t52 21q29 0 50.5 -21t21.5 -51zM580 991
l-24 -50l-174 48l-5 2q-5 2 -8 3t-8 4t-8.5 6t-8 8t-7 11t-3.5 13q-8 29 10.5 53.5t49.5 24.5q19 0 41 -16z" />
    <glyph glyph-name="udieresisgrave" unicode="&#x1dc;" horiz-adv-x="681" 
d="M650 0l-182 -7v70q-54 -70 -154 -70q-41 0 -72 5t-60 18t-44.5 40t-15.5 67v229q0 28 -10 33.5t-56 5.5v52l188 8v-342q0 -43 14 -58.5t70 -15.5q61 0 97.5 35t36.5 92v190q0 28 -10 33.5t-56 5.5v52l188 8v-360q0 -28 10 -33.5t56 -5.5v-52zM280 605q0 -29 -21.5 -50.5
t-51.5 -21.5q-29 0 -50.5 21t-21.5 51t21 51t52 21q29 0 50.5 -21t21.5 -51zM546 605q0 -29 -21.5 -50.5t-51.5 -21.5q-29 0 -50.5 21t-21.5 51t21 51t52 21q29 0 50.5 -21t21.5 -51zM423 782l-24 -50l-174 48l-5 2q-5 2 -8 3t-8 4t-8.5 6t-8 8t-7 11t-3.5 13
q-8 29 10.5 53.5t49.5 24.5q19 0 41 -16z" />
    <glyph glyph-name="eturned" unicode="&#x1dd;" horiz-adv-x="561" 
d="M526 222q0 -95 -68.5 -162t-194.5 -67q-113 0 -169 56q-60 59 -60 158q0 20 7.5 24.5t26.5 4.5h323q-1 24 -2.5 40t-10.5 44t-24 44.5t-45.5 30t-72.5 13.5q-14 0 -30.5 -2.5t-39.5 -9.5t-43.5 -24t-31.5 -41q-6 -13 -11 -16t-18 -3q-28 0 -28 21q0 6 5 18t20 30.5
t37.5 34.5t62 27.5t89.5 11.5q130 0 204 -66t74 -167zM391 197h-259q4 -162 130 -162q125 0 129 162z" />
    <glyph glyph-name="Gcaron" unicode="&#x1e6;" horiz-adv-x="962" 
d="M901 224h-85v-193q0 -31 -17 -31q-7 0 -40.5 15.5t-52.5 29.5q-53 -59 -209 -59q-207 0 -318 103.5t-111 253.5q0 154 113.5 255.5t311.5 101.5q115 0 212 -68l66 58q11 10 23 10q10 0 15 -4.5t6 -9.5t1 -17v-215q0 -22 -5.5 -26.5t-27.5 -4.5q-14 0 -19 1t-9 5t-5 14
q-18 100 -85.5 152.5t-151.5 52.5q-145 0 -222 -84q-63 -69 -63 -220q0 -157 74 -231q77 -75 221 -75q57 0 97 18q22 9 33 23.5t12.5 23.5t1.5 23v98h-153v52q38 -3 210 -3l177 3v-52zM656 872l-175 -141l-175 141l16 24l160 -58l160 58z" />
    <glyph glyph-name="gcaron" unicode="&#x1e7;" 
d="M595 393q0 -21 -14 -34.5t-34 -13.5t-33.5 13.5t-13.5 34.5q0 13 4 21q-34 -5 -61 -19q6 -5 13.5 -14.5t17 -32.5t9.5 -47q0 -25 -10.5 -49.5t-33.5 -47.5t-66 -37.5t-101 -14.5q-76 0 -127 25q-8 -11 -8 -28q0 -26 23 -49q15 -13 64 -13h52q57 0 84.5 -1t61.5 -6t60 -15
q96 -37 96 -136q0 -57 -68.5 -94t-203.5 -37q-144 0 -208 39.5t-64 88.5q0 33 25.5 55.5t61.5 31.5q-41 39 -41 96q0 49 33 89q-52 46 -52 104q0 25 10.5 49.5t33.5 47.5t66 37.5t101 14.5q82 0 140 -32q49 39 113 39q33 0 51.5 -20t18.5 -45zM367 302q0 22 -2 34.5t-9.5 32
t-29 29.5t-54.5 10q-27 0 -46 -7.5t-28.5 -17.5t-14.5 -27t-5.5 -27t-0.5 -28q0 -22 2 -34.5t9.5 -32t29 -29.5t54.5 -10q27 0 46 7.5t28.5 17.5t14.5 27t5.5 27t0.5 28zM485 -74q0 57 -151 57h-127q-80 0 -80 -56q0 -34 44 -60t135 -26q93 0 136 26.5t43 58.5zM440 686
l-177 -185l-177 185l20 22l158 -99l158 99z" />
    <glyph glyph-name="Oogonek" unicode="&#x1ea;" horiz-adv-x="920" 
d="M851 339q0 -147 -95.5 -245.5t-268.5 -106.5q-17 -18 -22 -38q-8 -29 10 -52.5t45 -23.5q11 0 44 23q14 9 31 -6q6 -6 9.5 -17t-0.5 -19q-46 -66 -116 -66q-52 0 -85.5 32t-33.5 74t45 94q-163 12 -254.5 109t-91.5 242q0 158 104 259.5t287 101.5q185 0 288.5 -102
t103.5 -259zM691 354q0 145 -52 215q-63 84 -180 84q-61 0 -106 -23.5t-69 -54.5q-32 -43 -44 -94.5t-12 -126.5q0 -142 42 -213q63 -106 190 -106q57 0 106 25.5t78 72.5q47 78 47 221z" />
    <glyph glyph-name="oogonek" unicode="&#x1eb;" 
d="M578 218q0 -92 -65 -155.5t-188 -69.5q-21 -17 -29 -44q-9 -29 9.5 -52.5t45.5 -23.5q11 0 44 23q14 9 31 -6q6 -6 9.5 -17t-0.5 -19q-46 -66 -116 -66q-52 0 -85.5 32t-33.5 74q0 49 53 102q-106 13 -162.5 75t-56.5 147q0 100 70.5 168.5t201.5 68.5t201.5 -68
t70.5 -169zM443 230q0 28 -1 42.5t-4 40t-12 40t-23.5 30.5t-39 23t-57.5 7q-39 0 -66.5 -12t-41 -27.5t-20.5 -44.5t-8 -47t-1 -52q0 -35 1 -54t8 -49.5t20.5 -46t41 -28t66.5 -12.5t66.5 12.5t41 28t20.5 46t8 49.5t1 54z" />
    <glyph glyph-name="jcaron" unicode="&#x1f0;" horiz-adv-x="374" 
d="M287 -38q0 -78 -59 -120.5t-134 -42.5q-68 0 -110.5 25.5t-42.5 71.5q0 30 19 49t49 19q29 0 48 -19t19 -48q0 -26 -17 -46l-2 -4q0 -6 35 -6q41 0 60 36t19 84v391q0 13 -0.5 18.5t-5 10.5t-14.5 7q-13 3 -53 3v52l189 8v-489zM384 686l-177 -185l-177 185l20 22
l158 -99l158 99z" />
    <glyph glyph-name="Gacute" unicode="&#x1f4;" horiz-adv-x="962" 
d="M901 224h-85v-193q0 -31 -17 -31q-7 0 -40.5 15.5t-52.5 29.5q-53 -59 -209 -59q-207 0 -318 103.5t-111 253.5q0 154 113.5 255.5t311.5 101.5q115 0 212 -68l66 58q11 10 23 10q10 0 15 -4.5t6 -9.5t1 -17v-215q0 -22 -5.5 -26.5t-27.5 -4.5q-14 0 -19 1t-9 5t-5 14
q-18 100 -85.5 152.5t-151.5 52.5q-145 0 -222 -84q-63 -69 -63 -220q0 -157 74 -231q77 -75 221 -75q57 0 97 18q22 9 33 23.5t12.5 23.5t1.5 23v98h-153v52q38 -3 210 -3l177 3v-52zM645 836q-1 -7 -3.5 -13t-7 -11t-8 -8t-8.5 -6t-8 -4t-8 -3l-5 -2l-174 -48l-24 50
l145 107q21 16 41 16q31 0 49.5 -24.5t10.5 -53.5z" />
    <glyph glyph-name="gacute" unicode="&#x1f5;" 
d="M595 393q0 -21 -14 -34.5t-34 -13.5t-33.5 13.5t-13.5 34.5q0 13 4 21q-34 -5 -61 -19q6 -5 13.5 -14.5t17 -32.5t9.5 -47q0 -25 -10.5 -49.5t-33.5 -47.5t-66 -37.5t-101 -14.5q-76 0 -127 25q-8 -11 -8 -28q0 -26 23 -49q15 -13 64 -13h52q57 0 84.5 -1t61.5 -6t60 -15
q96 -37 96 -136q0 -57 -68.5 -94t-203.5 -37q-144 0 -208 39.5t-64 88.5q0 33 25.5 55.5t61.5 31.5q-41 39 -41 96q0 49 33 89q-52 46 -52 104q0 25 10.5 49.5t33.5 47.5t66 37.5t101 14.5q82 0 140 -32q49 39 113 39q33 0 51.5 -20t18.5 -45zM367 302q0 22 -2 34.5t-9.5 32
t-29 29.5t-54.5 10q-27 0 -46 -7.5t-28.5 -17.5t-14.5 -27t-5.5 -27t-0.5 -28q0 -22 2 -34.5t9.5 -32t29 -29.5t54.5 -10q27 0 46 7.5t28.5 17.5t14.5 27t5.5 27t0.5 28zM485 -74q0 57 -151 57h-127q-80 0 -80 -56q0 -34 44 -60t135 -26q93 0 136 26.5t43 58.5zM419 637
q0 -32 -39 -54l-163 -78l-32 45l124 131q21 23 46 23q26 0 45 -21.5t19 -45.5z" />
    <glyph glyph-name="Aringacute" unicode="&#x1fa;" horiz-adv-x="922" 
d="M876 0q-63 3 -168 3q-141 0 -178 -3v52h93l-61 139h-287l-51 -116l-5 -14q29 -9 88 -9v-52l-136 3q-75 0 -126 -3v52h24q25 0 51 3q18 2 22.5 5t9.5 14l261 601q7 18 17.5 22t30.5 4q13 0 19.5 -1t14.5 -7t13 -18l270 -623h98v-52zM540 243l-121 279l-121 -279h242z
M528 785q0 18 -10 26t-21 9.5t-36 1.5q-37 0 -52 -6.5t-15 -30.5q0 -18 10 -26t21 -9.5t36 -1.5q37 0 52 6.5t15 30.5zM592 784q0 -31 -31 -57t-101 -26q-65 0 -97.5 24.5t-32.5 60.5q0 31 31 57t101 26q65 0 97.5 -24.5t32.5 -60.5zM583 999q-1 -7 -3.5 -13t-7 -11t-8 -8
t-8.5 -6t-8 -4t-8 -3l-5 -2l-174 -48l-24 50l145 107q21 16 41 16q31 0 49.5 -24.5t10.5 -53.5z" />
    <glyph glyph-name="aringacute" unicode="&#x1fb;" horiz-adv-x="596" 
d="M589 26q0 -18 -8 -22t-26 -4h-53q-65 0 -86.5 19t-21.5 49q-49 -75 -159 -75q-89 0 -147 29.5t-58 89.5q0 43 32 75t85.5 48.5t109.5 24.5t118 8v29q0 116 -115 116q-48 0 -76 -7q21 -19 21 -51q0 -29 -19 -48t-49 -19q-27 0 -47 18.5t-20 49.5q0 99 192 99
q117 0 176 -44t59 -115v-211q0 -14 2.5 -19.5t16 -9.5t43.5 -4q10 0 15 -1t10 -7t5 -18zM375 137v93q-99 -2 -161 -33t-62 -83q0 -35 29.5 -57t69.5 -22q6 0 15 0.5t30 6t37 15t29 30.5t13 50zM365 608q0 18 -10 26t-21 9.5t-36 1.5q-37 0 -52 -6.5t-15 -30.5q0 -18 10 -26
t21 -9.5t36 -1.5q37 0 52 6.5t15 30.5zM429 607q0 -31 -31 -57t-101 -26q-65 0 -97.5 24.5t-32.5 60.5q0 31 31 57t101 26q65 0 97.5 -24.5t32.5 -60.5zM420 822q-1 -7 -3.5 -13t-7 -11t-8 -8t-8.5 -6t-8 -4t-8 -3l-5 -2l-174 -48l-24 50l145 107q21 16 41 16
q31 0 49.5 -24.5t10.5 -53.5z" />
    <glyph glyph-name="AEacute" unicode="&#x1fc;" horiz-adv-x="1108" 
d="M1073 275l-49 -275h-593v52h81v252h-183l-103 -228l-5 -15q29 -9 87 -9v-52l-136 3q-77 0 -126 -3v52h23q27 0 52 3q18 2 22.5 5t9.5 14l252 560h-69v52h670l33 -243h-56q-6 51 -15 81t-29.5 58t-57.5 40t-95 12h-134v-278h67q68 0 90 25.5t22 89.5h56v-282h-56
q0 64 -22 89.5t-90 25.5h-67v-252h137q64 0 106.5 14.5t66 47.5t34.5 67.5t21 93.5h56zM512 356v278h-34l-125 -278h159zM718 836q-1 -7 -3.5 -13t-7 -11t-8 -8t-8.5 -6t-8 -4t-8 -3l-5 -2l-174 -48l-24 50l145 107q21 16 41 16q31 0 49.5 -24.5t10.5 -53.5z" />
    <glyph glyph-name="aeacute" unicode="&#x1fd;" horiz-adv-x="885" 
d="M850 115q0 -7 -5.5 -20t-19.5 -31t-35 -33.5t-57 -26.5t-79 -11q-118 0 -197 63q-58 -63 -211 -63q-20 0 -36.5 0.5t-50.5 6.5t-57.5 17t-42 34t-18.5 55q0 27 15 48.5t35.5 35.5t55 25t61 16.5t66 10t58.5 5.5t49 2v48q0 116 -116 116q-41 0 -76 -7q21 -19 21 -51
q0 -29 -19 -48t-49 -19q-27 0 -47 18.5t-20 49.5q0 99 193 99q128 0 192 -57q72 57 179 57q103 0 159 -58q52 -55 52 -155q0 -21 -7 -25.5t-27 -4.5h-313q8 -172 161 -172q39 0 75.5 18t53.5 59q5 12 10.5 15.5t18.5 3.5q28 0 28 -21zM753 251q-4 162 -114 162
q-45 0 -75 -19.5t-42 -51.5t-15 -51t-4 -40h250zM401 125q0 6 -4 15q-13 34 -15 69q-219 -11 -219 -103q0 -30 27 -50.5t68 -20.5q57 0 100 25t43 65zM598 637q0 -32 -39 -54l-163 -78l-32 45l124 131q21 23 46 23q26 0 45 -21.5t19 -45.5z" />
    <glyph glyph-name="Oslashacute" unicode="&#x1fe;" horiz-adv-x="953" 
d="M884 339q0 -152 -107 -252.5t-301 -100.5q-118 0 -207 40l-66 -89l-37 28l61 83q-51 31 -86 73t-49 85.5t-19 73.5t-5 59q0 155 106.5 258t301.5 103q116 0 207 -40l66 89l37 -28l-62 -84q85 -51 122.5 -132t37.5 -166zM643 608q-63 50 -167 50q-128 0 -198 -78
q-61 -70 -61 -240q0 -75 10.5 -131t45.5 -99zM735 340q0 80 -11.5 135.5t-45.5 99.5l-370 -498q62 -49 168 -49q132 0 199 77q37 44 48.5 99t11.5 136zM640 836q-1 -7 -3.5 -13t-7 -11t-8 -8t-8.5 -6t-8 -4t-8 -3l-5 -2l-174 -48l-24 50l145 107q21 16 41 16
q31 0 49.5 -24.5t10.5 -53.5z" />
    <glyph glyph-name="oslashacute" unicode="&#x1ff;" 
d="M578 218q0 -95 -70 -160t-202 -65q-64 0 -116 17l-78 -119l-34 24l73 111q-61 31 -89 83t-28 109q0 100 70.5 168.5t201.5 68.5q63 0 117 -18l77 117l34 -24l-72 -111q59 -32 87.5 -86.5t28.5 -114.5zM393 393q-30 20 -87 20q-43 0 -73 -14t-44.5 -31.5t-22.5 -48.5
t-9 -49.5t-1 -50.5q0 -33 1 -51t8 -44.5t21 -43.5zM456 219q0 54 -5.5 87t-25.5 58l-205 -310q33 -19 86 -19q43 0 73 13t44.5 29t22.5 45.5t9 47t1 49.5zM462 637q0 -32 -39 -54l-163 -78l-32 45l124 131q21 23 46 23q26 0 45 -21.5t19 -45.5z" />
    <glyph glyph-name="Adblgrave" unicode="&#x200;" horiz-adv-x="922" 
d="M876 0q-63 3 -168 3q-141 0 -178 -3v52h93l-61 139h-287l-51 -116l-5 -14q29 -9 88 -9v-52l-136 3q-75 0 -126 -3v52h24q25 0 51 3q18 2 22.5 5t9.5 14l261 601q7 18 17.5 22t30.5 4q13 0 19.5 -1t14.5 -7t13 -18l270 -623h98v-52zM540 243l-121 279l-121 -279h242z
M587 774l-46 -33l-101 87q-26 23 -26 47q0 26 22.5 46t47.5 20q39 0 56 -46zM383 774l-46 -33l-101 87q-26 23 -26 47q0 26 22.5 46t47.5 20q39 0 56 -46z" />
    <glyph glyph-name="adblgrave" unicode="&#x201;" horiz-adv-x="596" 
d="M589 26q0 -18 -8 -22t-26 -4h-53q-65 0 -86.5 19t-21.5 49q-49 -75 -159 -75q-89 0 -147 29.5t-58 89.5q0 43 32 75t85.5 48.5t109.5 24.5t118 8v29q0 116 -115 116q-48 0 -76 -7q21 -19 21 -51q0 -29 -19 -48t-49 -19q-27 0 -47 18.5t-20 49.5q0 99 192 99
q117 0 176 -44t59 -115v-211q0 -14 2.5 -19.5t16 -9.5t43.5 -4q10 0 15 -1t10 -7t5 -18zM375 137v93q-99 -2 -161 -33t-62 -83q0 -35 29.5 -57t69.5 -22q6 0 15 0.5t30 6t37 15t29 30.5t13 50zM458 538l-46 -33l-101 87q-26 23 -26 47q0 26 22.5 46t47.5 20q39 0 56 -46z
M254 538l-46 -33l-101 87q-26 23 -26 47q0 26 22.5 46t47.5 20q39 0 56 -46z" />
    <glyph glyph-name="Edblgrave" unicode="&#x204;" horiz-adv-x="803" 
d="M768 275l-49 -275h-672v52h108v576h-108v52h654l33 -243h-56q-14 108 -59 149.5t-152 41.5h-163v-249h60q67 0 89 25.5t22 89.5h56v-282h-56q0 64 -22 89.5t-89 25.5h-60v-275h166q54 0 93 10t64 26.5t42 46.5t26 61.5t17 78.5h56zM561 774l-46 -33l-101 87
q-26 23 -26 47q0 26 22.5 46t47.5 20q39 0 56 -46zM357 774l-46 -33l-101 87q-26 23 -26 47q0 26 22.5 46t47.5 20q39 0 56 -46z" />
    <glyph glyph-name="edblgrave" unicode="&#x205;" horiz-adv-x="561" 
d="M526 115q0 -6 -5 -18t-20 -30.5t-37.5 -34.5t-62 -27.5t-89.5 -11.5q-130 0 -204 66t-74 167q0 95 68.5 162t194.5 67q113 0 169 -56q60 -59 60 -158q0 -20 -7.5 -24.5t-26.5 -4.5h-323q1 -24 2.5 -40t10.5 -44t24 -44.5t45.5 -30t72.5 -13.5q14 0 30.5 2.5t39.5 9.5
t43.5 24t31.5 41q6 13 11 16t18 3q28 0 28 -21zM428 251q-4 162 -130 162q-125 0 -129 -162h259zM440 538l-46 -33l-101 87q-26 23 -26 47q0 26 22.5 46t47.5 20q39 0 56 -46zM236 538l-46 -33l-101 87q-26 23 -26 47q0 26 22.5 46t47.5 20q39 0 56 -46z" />
    <glyph glyph-name="Idblgrave" unicode="&#x208;" horiz-adv-x="459" 
d="M417 0q-37 3 -188 3q-150 0 -187 -3v52h113v582h-113v52q37 -3 188 -3q150 0 187 3v-52h-113v-582h113v-52zM389 774l-46 -33l-101 87q-26 23 -26 47q0 26 22.5 46t47.5 20q39 0 56 -46zM185 774l-46 -33l-101 87q-26 23 -26 47q0 26 22.5 46t47.5 20q39 0 56 -46z" />
    <glyph glyph-name="idblgrave" unicode="&#x209;" horiz-adv-x="340" 
d="M300 0q-49 3 -119 3q-64 0 -122 -3v52h66v301q0 28 -9.5 33t-53.5 5v52l179 8v-399h59v-52zM330 538l-46 -33l-101 87q-26 23 -26 47q0 26 22.5 46t47.5 20q39 0 56 -46zM126 538l-46 -33l-101 87q-26 23 -26 47q0 26 22.5 46t47.5 20q39 0 56 -46z" />
    <glyph glyph-name="Odblgrave" unicode="&#x20c;" horiz-adv-x="920" 
d="M851 339q0 -153 -103.5 -253t-288.5 -100q-183 0 -287 99t-104 254q0 158 104 259.5t287 101.5q185 0 288.5 -102t103.5 -259zM691 354q0 145 -52 215q-63 84 -180 84q-61 0 -106 -23.5t-69 -54.5q-32 -43 -44 -94.5t-12 -126.5q0 -142 42 -213q63 -106 190 -106
q57 0 106 25.5t78 72.5q47 78 47 221zM620 774l-46 -33l-101 87q-26 23 -26 47q0 26 22.5 46t47.5 20q39 0 56 -46zM416 774l-46 -33l-101 87q-26 23 -26 47q0 26 22.5 46t47.5 20q39 0 56 -46z" />
    <glyph glyph-name="odblgrave" unicode="&#x20d;" 
d="M578 218q0 -95 -70 -160t-202 -65q-131 0 -201.5 64.5t-70.5 160.5q0 100 70.5 168.5t201.5 68.5t201.5 -68t70.5 -169zM443 230q0 28 -1 42.5t-4 40t-12 40t-23.5 30.5t-39 23t-57.5 7q-39 0 -66.5 -12t-41 -27.5t-20.5 -44.5t-8 -47t-1 -52q0 -35 1 -54t8 -49.5
t20.5 -46t41 -28t66.5 -12.5t66.5 12.5t41 28t20.5 46t8 49.5t1 54zM466 538l-46 -33l-101 87q-26 23 -26 47q0 26 22.5 46t47.5 20q39 0 56 -46zM262 538l-46 -33l-101 87q-26 23 -26 47q0 26 22.5 46t47.5 20q39 0 56 -46z" />
    <glyph glyph-name="Rdblgrave" unicode="&#x210;" horiz-adv-x="915" 
d="M911 98q0 -9 -2.5 -20.5t-11 -28.5t-21.5 -30.5t-37.5 -23t-56.5 -9.5q-107 0 -162 31q-23 13 -37 28t-19.5 36.5t-6.5 37t-1 47.5q0 56 -4.5 77t-25.5 41q-37 38 -100 38h-128v-270h108v-52q-39 3 -179 3q-141 0 -180 -3v52h108v582h-108v52h398q142 0 229 -53t87 -134
q0 -53 -43.5 -95t-121.5 -64q46 -17 71.5 -45.5t31.5 -51.5t11 -66q4 -34 6.5 -49.5t9 -39t14 -33.5t21 -18.5t31.5 -8.5q20 0 40 15.5t23 56.5q2 23 28 23q28 0 28 -25zM601 499q0 30 -4 48.5t-19 41t-52 34t-95 11.5h-133v-270h130q48 0 82 9t51.5 21t27 32.5t11 35
t1.5 37.5zM583 774l-46 -33l-101 87q-26 23 -26 47q0 26 22.5 46t47.5 20q39 0 56 -46zM379 774l-46 -33l-101 87q-26 23 -26 47q0 26 22.5 46t47.5 20q39 0 56 -46z" />
    <glyph glyph-name="rdblgrave" unicode="&#x211;" horiz-adv-x="506" 
d="M471 364q0 -29 -19 -47.5t-47 -18.5t-47 18.5t-19 47.5q0 12 4 23.5t8 16.5l4 5q-45 -1 -75 -34.5t-41 -75t-11 -85.5v-162h82v-52l-136 3q-70 0 -128 -3v52h66v300q0 28 -10 33.5t-56 5.5v52l169 8v-107l1 -1q16 41 50.5 74.5t90.5 33.5q46 0 80 -24t34 -63zM413 538
l-46 -33l-101 87q-26 23 -26 47q0 26 22.5 46t47.5 20q39 0 56 -46zM209 538l-46 -33l-101 87q-26 23 -26 47q0 26 22.5 46t47.5 20q39 0 56 -46z" />
    <glyph glyph-name="Udblgrave" unicode="&#x214;" horiz-adv-x="939" 
d="M891 634h-28q-25 0 -51 -2q-21 -2 -25 -5.5t-4 -19.5v-377q0 -102 -74.5 -173t-221.5 -71q-158 0 -245 70t-87 175v403h-108v52q38 -3 183 -3q144 0 182 3v-52h-108v-409q0 -24 1.5 -41.5t11.5 -47.5t28 -49t55.5 -34t90.5 -15q100 0 163 47.5t63 146.5v375q0 15 -4 18.5
t-23 5.5q-23 3 -53 3h-28v52l141 -3l141 3v-52zM657 774l-46 -33l-101 87q-26 23 -26 47q0 26 22.5 46t47.5 20q39 0 56 -46zM453 774l-46 -33l-101 87q-26 23 -26 47q0 26 22.5 46t47.5 20q39 0 56 -46z" />
    <glyph glyph-name="udblgrave" unicode="&#x215;" horiz-adv-x="681" 
d="M650 0l-182 -7v70q-54 -70 -154 -70q-41 0 -72 5t-60 18t-44.5 40t-15.5 67v229q0 28 -10 33.5t-56 5.5v52l188 8v-342q0 -43 14 -58.5t70 -15.5q61 0 97.5 35t36.5 92v190q0 28 -10 33.5t-56 5.5v52l188 8v-360q0 -28 10 -33.5t56 -5.5v-52zM500 538l-46 -33l-101 87
q-26 23 -26 47q0 26 22.5 46t47.5 20q39 0 56 -46zM296 538l-46 -33l-101 87q-26 23 -26 47q0 26 22.5 46t47.5 20q39 0 56 -46z" />
    <glyph glyph-name="uni0218" unicode="&#x218;" horiz-adv-x="681" 
d="M612 202q0 -39 -13 -75.5t-40 -69t-76 -52t-113 -19.5q-133 0 -214 53l-30 -29q-18 -18 -22.5 -21t-13.5 -3q-10 0 -15 4.5t-6 9.5t-1 17v180q0 19 4 25t24 6q27 0 28 -16q3 -92 68 -132q67 -42 177 -42q36 0 63.5 9t42 22t23 30.5t11 29.5t2.5 24q0 38 -27 71t-86 45
l-123 25q-32 7 -51 12t-51.5 23t-56.5 45q-48 55 -48 124q0 82 60.5 142t178.5 60q107 0 182 -54l31 30q18 18 22.5 21t13.5 3q10 0 15 -4.5t6 -9.5t1 -17v-180q0 -19 -4.5 -25t-23.5 -6q-18 0 -22.5 4.5t-6.5 19.5q-14 85 -71 129q-56 42 -143 42q-73 0 -105.5 -32
t-32.5 -72q0 -35 27 -63.5t79 -39.5l152 -31q78 -16 131.5 -74.5t53.5 -138.5zM406 -137q0 -48 -21.5 -90t-43 -61t-30.5 -19q-5 0 -10.5 5.5t-5.5 10.5q0 7 9 14q63 49 69 127q-13 -12 -38 -12q-28 0 -44 17.5t-16 42.5t16.5 42.5t43.5 17.5q31 0 51 -27t20 -68z" />
    <glyph glyph-name="uni0219" unicode="&#x219;" horiz-adv-x="483" 
d="M441 141q0 -42 -18.5 -72t-41 -44t-55 -22t-48 -9t-33.5 -1q-74 0 -124 30l-26 -17q-21 -13 -32 -13q-10 0 -15 4.5t-6 9.5t-1 17v103q0 19 4 25t24 6q16 0 20.5 -3t8.5 -16q10 -29 22.5 -49t45 -37.5t79.5 -17.5q119 0 119 72q0 19 -11 33t-33.5 22.5t-38 12t-41.5 7.5
q-109 18 -148 46q-51 39 -51 93q0 38 18 65.5t40.5 40t55.5 19.5t48.5 8t34.5 1q64 0 106 -17q34 17 45 17q10 0 15 -4.5t6 -9.5t1 -17v-73q0 -19 -4.5 -25t-23.5 -6q-26 0 -28 16q-1 15 -4 25.5t-13.5 25.5t-36.5 23t-65 8q-118 0 -118 -59q0 -16 8.5 -26.5t32 -18.5
t43 -12t62.5 -11q90 -14 134 -55q43 -39 43 -95zM307 -137q0 -48 -21.5 -90t-43 -61t-30.5 -19q-5 0 -10.5 5.5t-5.5 10.5q0 7 9 14q63 49 69 127q-13 -12 -38 -12q-28 0 -44 17.5t-16 42.5t16.5 42.5t43.5 17.5q31 0 51 -27t20 -68z" />
    <glyph glyph-name="uni021A" unicode="&#x21a;" horiz-adv-x="852" 
d="M807 430h-56q-4 52 -10.5 80.5t-23.5 57.5t-50 41t-85 12h-82v-569h152v-52q-38 3 -227 3q-188 0 -226 -3v52h152v569h-82q-52 0 -85 -12t-50 -41t-23.5 -57.5t-10.5 -80.5h-56l23 243h717zM492 -137q0 -48 -21.5 -90t-43 -61t-30.5 -19q-5 0 -10.5 5.5t-5.5 10.5
q0 7 9 14q63 49 69 127q-13 -12 -38 -12q-28 0 -44 17.5t-16 42.5t16.5 42.5t43.5 17.5q31 0 51 -27t20 -68z" />
    <glyph glyph-name="uni021B" unicode="&#x21b;" horiz-adv-x="476" 
d="M407 123q0 -59 -37 -94.5t-95 -35.5q-166 0 -166 130v269h-86v42q71 1 111 61t41 140h56v-191h156v-52h-156v-272q0 -80 59 -80q23 0 42 19.5t19 65.5v49h56v-51zM304 -137q0 -48 -21.5 -90t-43 -61t-30.5 -19q-5 0 -10.5 5.5t-5.5 10.5q0 7 9 14q63 49 69 127
q-13 -12 -38 -12q-28 0 -44 17.5t-16 42.5t16.5 42.5t43.5 17.5q31 0 51 -27t20 -68z" />
    <glyph glyph-name="uni0237" unicode="&#x237;" horiz-adv-x="374" 
d="M287 -38q0 -78 -59 -120.5t-134 -42.5q-68 0 -110.5 25.5t-42.5 71.5q0 30 19 49t49 19q29 0 48 -19t19 -48q0 -26 -17 -46l-2 -4q0 -6 35 -6q41 0 60 36t19 84v391q0 13 -0.5 18.5t-5 10.5t-14.5 7q-13 3 -53 3v52l189 8v-489z" />
    <glyph glyph-name="ereversed" unicode="&#x258;" horiz-adv-x="561" 
d="M526 226q0 -101 -74 -167t-204 -66q-50 0 -89.5 11.5t-62 27.5t-37.5 34.5t-20 30.5t-5 18q0 21 28 21q13 0 18 -3t11 -16q21 -45 64.5 -61t80.5 -16q42 0 72.5 13.5t45.5 30t24 44.5t10.5 44t2.5 40h-323q-13 0 -18.5 1t-10.5 7.5t-5 20.5q0 99 60 158q56 56 169 56
q126 0 194.5 -67t68.5 -162zM391 251q-4 162 -129 162q-126 0 -130 -162h259z" />
    <glyph glyph-name="schwa" unicode="&#x259;" horiz-adv-x="561" 
d="M526 222q0 -95 -68.5 -162t-194.5 -67q-113 0 -169 56q-60 59 -60 158q0 20 7.5 24.5t26.5 4.5h323q-1 24 -2.5 40t-10.5 44t-24 44.5t-45.5 30t-72.5 13.5q-14 0 -30.5 -2.5t-39.5 -9.5t-43.5 -24t-31.5 -41q-6 -13 -11 -16t-18 -3q-28 0 -28 21q0 6 5 18t20 30.5
t37.5 34.5t62 27.5t89.5 11.5q130 0 204 -66t74 -167zM391 197h-259q4 -162 130 -162q125 0 129 162z" />
    <glyph glyph-name="ringhalfright" unicode="&#x2be;" horiz-adv-x="500" 
d="M432 472q0 -74 -52 -127.5t-155 -53.5q-146 0 -146 80q0 26 16 41.5t41 15.5q23 0 39.5 -15.5t16.5 -40.5q0 -20 -9 -33q0 -3 8 -3t19 1l12 1q27 0 46.5 10t29 23t14.5 34t6 33.5t1 30.5q0 134 -106 134q-67 0 -90 -53q-5 -12 -9 -14.5t-19 -2.5q-27 0 -27 19q0 4 4 15
t17.5 28t32.5 29q42 26 106 26q97 0 150.5 -51t53.5 -127z" />
    <glyph glyph-name="ringhalfleft" unicode="&#x2bf;" horiz-adv-x="500" 
d="M432 389q0 -4 -4 -15t-17.5 -28t-32.5 -29q-42 -26 -106 -26q-97 0 -150.5 51t-53.5 127q0 74 52 127.5t155 53.5q146 0 146 -80q0 -26 -16 -41.5t-41 -15.5q-23 0 -39.5 15.5t-16.5 40.5q0 19 9 33q0 3 -8 3t-19 -1l-12 -1q-27 0 -46.5 -10t-29 -23t-14.5 -34t-6 -33.5
t-1 -30.5q0 -134 106 -134q67 0 90 53q5 12 9 14.5t19 2.5q27 0 27 -19z" />
    <glyph glyph-name="circumflex" unicode="&#x2c6;" 
d="M483 523l-20 -22l-158 99l-158 -99l-18 22l177 185z" />
    <glyph glyph-name="caron" unicode="&#x2c7;" 
d="M483 686l-177 -185l-177 185l20 22l158 -99l158 99z" />
    <glyph glyph-name="breve" unicode="&#x2d8;" 
d="M497 698q-1 -83 -58.5 -135t-132.5 -52t-132.5 52t-58.5 135h42q1 -57 47.5 -87.5t101.5 -30.5t101.5 30.5t47.5 87.5h42z" />
    <glyph glyph-name="dotaccent" unicode="&#x2d9;" horiz-adv-x="340" 
d="M251 605q0 -33 -23.5 -56.5t-57.5 -23.5q-32 0 -56 23.5t-24 56.5t23.5 56.5t57.5 23.5q32 0 56 -23.5t24 -56.5z" />
    <glyph glyph-name="ring" unicode="&#x2da;" horiz-adv-x="922" 
d="M528 608q0 18 -10 26t-21 9.5t-36 1.5q-37 0 -52 -6.5t-15 -30.5q0 -18 10 -26t21 -9.5t36 -1.5q37 0 52 6.5t15 30.5zM592 607q0 -31 -31 -57t-101 -26q-65 0 -97.5 24.5t-32.5 60.5q0 31 31 57t101 26q65 0 97.5 -24.5t32.5 -60.5z" />
    <glyph glyph-name="ogonek" unicode="&#x2db;" 
d="M423 -146q-46 -66 -116 -66q-52 0 -85.5 32t-33.5 74q0 55 62 111h83q-38 -16 -50 -56q-8 -29 10.5 -52.5t45.5 -23.5q11 0 44 23q14 9 31 -6q6 -6 9.5 -17t-0.5 -19z" />
    <glyph glyph-name="tilde" unicode="&#x2dc;" 
d="M510 636q-27 -26 -38.5 -38.5t-16.5 -17.5q-38 -36 -81 -36q-27 0 -70 16q-61 24 -88 24q-28 0 -50.5 -13t-33.5 -27l-30 30q27 26 38.5 38.5t16.5 17.5q38 36 81 36q27 0 70 -16q61 -24 88 -24q28 0 50.5 13t33.5 27z" />
    <glyph glyph-name="hungarumlaut" unicode="&#x2dd;" 
d="M320 639q0 -24 -26 -47l-101 -87l-46 33l47 121q17 46 56 46q25 0 47.5 -20t22.5 -46zM524 639q0 -24 -26 -47l-101 -87l-46 33l47 121q17 46 56 46q25 0 47.5 -20t22.5 -46z" />
    <glyph glyph-name="uni0300" unicode="&#x300;" horiz-adv-x="0" 
d="M-219 550l-32 -45l-163 78q-39 22 -39 54q0 24 19 45.5t45 21.5q25 0 46 -23z" />
    <glyph glyph-name="uni0301" unicode="&#x301;" horiz-adv-x="0" 
d="M-142 637q0 -32 -39 -54l-163 -78l-32 45l124 131q21 23 46 23q26 0 45 -21.5t19 -45.5z" />
    <glyph glyph-name="uni0302" unicode="&#x302;" horiz-adv-x="0" 
d="M-121 523l-20 -22l-158 99l-158 -99l-18 22l177 185z" />
    <glyph glyph-name="uni0303" unicode="&#x303;" horiz-adv-x="0" 
d="M-94 636q-27 -26 -38.5 -38.5t-16.5 -17.5q-38 -36 -81 -36q-27 0 -70 16q-61 24 -88 24q-28 0 -50.5 -13t-33.5 -27l-30 30q27 26 38.5 38.5t16.5 17.5q38 36 81 36q27 0 70 -16q61 -24 88 -24q28 0 50.5 13t33.5 27z" />
    <glyph glyph-name="uni0304" unicode="&#x304;" horiz-adv-x="0" 
d="M-77 576h-442v58h442v-58z" />
    <glyph glyph-name="uni0306" unicode="&#x306;" horiz-adv-x="0" 
d="M-107 698q-1 -83 -58.5 -135t-132.5 -52t-132.5 52t-58.5 135h42q1 -57 47.5 -87.5t101.5 -30.5t101.5 30.5t47.5 87.5h42z" />
    <glyph glyph-name="uni0307" unicode="&#x307;" horiz-adv-x="0" 
d="M-217 605q0 -33 -23.5 -56.5t-57.5 -23.5q-32 0 -56 23.5t-24 56.5t23.5 56.5t57.5 23.5q32 0 56 -23.5t24 -56.5z" />
    <glyph glyph-name="uni0308" unicode="&#x308;" horiz-adv-x="0" 
d="M-358 605q0 -29 -21.5 -50.5t-51.5 -21.5q-29 0 -50.5 21t-21.5 51t21 51t52 21q29 0 50.5 -21t21.5 -51zM-92 605q0 -29 -21.5 -50.5t-51.5 -21.5q-29 0 -50.5 21t-21.5 51t21 51t52 21q29 0 50.5 -21t21.5 -51z" />
    <glyph glyph-name="uni0309" unicode="&#x309;" horiz-adv-x="0" 
d="M-179 637q0 -33 -39 -46l-7 -3q-36 -12 -50 -22t-14 -24v-16q0 -7 -5 -12.5t-12 -5.5q-8 0 -13 5t-5 13v17q0 2 0.5 6t0.5 5q7 38 49 67q7 4 7 16q0 19 -3 22q-9 8 -37 8q-12 0 -32 -2q10 -13 10 -28q0 -20 -13 -32t-31 -12t-31 12t-13 32q0 64 110 64q59 0 90 -13
q38 -16 38 -51z" />
    <glyph glyph-name="uni030A" unicode="&#x30a;" horiz-adv-x="0" 
d="M-231 608q0 18 -10 26t-21 9.5t-36 1.5q-37 0 -52 -6.5t-15 -30.5q0 -18 10 -26t21 -9.5t36 -1.5q37 0 52 6.5t15 30.5zM-167 607q0 -31 -31 -57t-101 -26q-65 0 -97.5 24.5t-32.5 60.5q0 31 31 57t101 26q65 0 97.5 -24.5t32.5 -60.5z" />
    <glyph glyph-name="uni030B" unicode="&#x30b;" horiz-adv-x="0" 
d="M-284 639q0 -24 -26 -47l-101 -87l-46 33l47 121q17 46 56 46q25 0 47.5 -20t22.5 -46zM-80 639q0 -24 -26 -47l-101 -87l-46 33l47 121q17 46 56 46q25 0 47.5 -20t22.5 -46z" />
    <glyph glyph-name="uni030C" unicode="&#x30c;" horiz-adv-x="0" 
d="M-121 686l-177 -185l-177 185l20 22l158 -99l158 99z" />
    <glyph glyph-name="uni030F" unicode="&#x30f;" horiz-adv-x="0" 
d="M-138 538l-46 -33l-101 87q-26 23 -26 47q0 26 22.5 46t47.5 20q39 0 56 -46zM-342 538l-46 -33l-101 87q-26 23 -26 47q0 26 22.5 46t47.5 20q39 0 56 -46z" />
    <glyph glyph-name="uni0311" unicode="&#x311;" horiz-adv-x="0" 
d="M-107 511h-42q-1 57 -47.5 87.5t-101.5 30.5t-101.5 -30.5t-47.5 -87.5h-42q1 83 58.5 135t132.5 52t132.5 -52t58.5 -135z" />
    <glyph glyph-name="uni0323" unicode="&#x323;" horiz-adv-x="0" 
d="M-217 -120q0 -33 -23.5 -56.5t-57.5 -23.5q-32 0 -56 23.5t-24 56.5t23.5 56.5t57.5 23.5q32 0 56 -23.5t24 -56.5z" />
    <glyph glyph-name="uni0326" unicode="&#x326;" horiz-adv-x="0" 
d="M-232 -137q0 -48 -21.5 -90t-43 -61t-30.5 -19q-5 0 -10.5 5.5t-5.5 10.5q0 7 9 14q63 49 69 127q-13 -12 -38 -12q-28 0 -44 17.5t-16 42.5t16.5 42.5t43.5 17.5q31 0 51 -27t20 -68z" />
    <glyph glyph-name="uni032E" unicode="&#x32e;" horiz-adv-x="0" 
d="M-107 -26q-1 -83 -58.5 -135t-132.5 -52t-132.5 52t-58.5 135h42q1 -57 47.5 -87.5t101.5 -30.5t101.5 30.5t47.5 87.5h42z" />
    <glyph glyph-name="uni032F" unicode="&#x32f;" horiz-adv-x="0" 
d="M-107 -213h-42q-1 57 -47.5 87.5t-101.5 30.5t-101.5 -30.5t-47.5 -87.5h-42q1 83 58.5 135t132.5 52t132.5 -52t58.5 -135z" />
    <glyph glyph-name="uni0330" unicode="&#x330;" horiz-adv-x="0" 
d="M-94 -89q-27 -26 -38.5 -38.5t-16.5 -17.5q-38 -36 -81 -36q-27 0 -70 16q-61 24 -88 24q-28 0 -50.5 -13t-33.5 -27l-30 30q27 26 38.5 38.5t16.5 17.5q38 36 81 36q27 0 70 -16q61 -24 88 -24q28 0 50.5 13t33.5 27z" />
    <glyph glyph-name="uni0331" unicode="&#x331;" horiz-adv-x="0" 
d="M-77 -149h-442v58h442v-58z" />
    <glyph glyph-name="uni0332" unicode="&#x332;" horiz-adv-x="0" 
d="M-77 -149h-442v58h442v-58z" />
    <glyph glyph-name="Alpha" unicode="&#x391;" horiz-adv-x="922" 
d="M876 0q-63 3 -168 3q-141 0 -178 -3v52h93l-61 139h-287l-51 -116l-5 -14q29 -9 88 -9v-52l-136 3q-75 0 -126 -3v52h24q25 0 51 3q18 2 22.5 5t9.5 14l261 601q7 18 17.5 22t30.5 4q13 0 19.5 -1t14.5 -7t13 -18l270 -623h98v-52zM540 243l-121 279l-121 -279h242z" />
    <glyph glyph-name="Beta" unicode="&#x392;" horiz-adv-x="869" 
d="M800 187q0 -80 -70.5 -133.5t-194.5 -53.5h-488v52h108v582h-108v52h455q122 0 193 -50t71 -123q0 -57 -49 -98.5t-129 -55.5q101 -11 156.5 -59t55.5 -113zM618 513q0 29 -10 54.5t-40.5 46t-78.5 20.5h-198v-256h171q72 0 114 37.5t42 97.5zM646 189q0 25 -6 48
t-21 46.5t-45 38t-72 14.5h-211v-284h201q73 0 113.5 37t40.5 100z" />
    <glyph glyph-name="Gamma" unicode="&#x393;" horiz-adv-x="735" 
d="M683 437h-56q-6 50 -15 80t-29.5 58t-57.5 40.5t-94 12.5h-127v-576h135v-52q-37 3 -203 3q-151 0 -189 -3v52h108v576h-108v52h603z" />
    <glyph glyph-name="Delta" unicode="&#x394;" horiz-adv-x="1021" 
d="M958 19q0 -13 -5 -16t-23 -3h-840q-12 0 -17 1t-8 5t-3 13l393 654q11 18 21 23t31 5h6q13 0 19.5 -1t16 -7.5t17.5 -19.5zM719 128l-257 428l-257 -428h514z" />
    <glyph glyph-name="Epsilon" unicode="&#x395;" horiz-adv-x="803" 
d="M768 275l-49 -275h-672v52h108v576h-108v52h654l33 -243h-56q-14 108 -59 149.5t-152 41.5h-163v-249h60q67 0 89 25.5t22 89.5h56v-282h-56q0 64 -22 89.5t-89 25.5h-60v-275h166q54 0 93 10t64 26.5t42 46.5t26 61.5t17 78.5h56z" />
    <glyph glyph-name="Zeta" unicode="&#x396;" horiz-adv-x="749" 
d="M687 286l-20 -286h-565q-13 0 -18.5 1t-10.5 7.5t-5 20.5q0 16 10 29l423 576h-136q-97 0 -156.5 -41t-67.5 -150h-56l13 243h548q13 0 18.5 -1t10.5 -7.5t5 -19.5q0 -14 -11 -28l-421 -573h147q130 0 179 55.5t57 173.5h56z" />
    <glyph glyph-name="Eta" unicode="&#x397;" horiz-adv-x="955" 
d="M907 0q-38 3 -182 3q-145 0 -183 -3v52h108v279h-346v-279h108v-52q-38 3 -182 3q-145 0 -183 -3v52h108v582h-108v52q38 -3 183 -3q144 0 182 3v-52h-108v-251h346v251h-108v52q38 -3 183 -3q144 0 182 3v-52h-108v-582h108v-52z" />
    <glyph glyph-name="Theta" unicode="&#x398;" horiz-adv-x="953" 
d="M884 339q0 -152 -107 -252.5t-301 -100.5t-301 100.5t-107 252.5q0 155 106.5 258t301.5 103t301.5 -103t106.5 -258zM737 339q0 144 -53 219q-73 100 -208 100q-134 0 -205 -96q-56 -76 -56 -223t63 -226q69 -83 198 -83q65 0 117.5 23.5t82.5 62.5q61 79 61 223z
M668 246h-56v34h-272v-34h-56v196h56v-34h272v34h56v-196z" />
    <glyph glyph-name="Iota" unicode="&#x399;" horiz-adv-x="459" 
d="M417 0q-37 3 -188 3q-150 0 -187 -3v52h113v582h-113v52q37 -3 188 -3q150 0 187 3v-52h-113v-582h113v-52z" />
    <glyph glyph-name="Kappa" unicode="&#x39a;" horiz-adv-x="956" 
d="M904 0l-155 3q-137 0 -174 -3v52q67 0 67 9q0 2 -4 7l-3 4l-220 266l-111 -87v-199h108v-52q-38 3 -182 3q-145 0 -183 -3v52h108v582h-108v52q38 -3 183 -3q144 0 182 3v-52h-108v-312l388 303q-26 9 -64 9v52q63 -3 144 -3q85 0 115 3v-52h-21q-70 0 -91 -16l-257 -200
l288 -349q9 -11 19 -14t46 -3h33v-52z" />
    <glyph glyph-name="Lambda" unicode="&#x39b;" horiz-adv-x="854" 
d="M809 0l-163 3q-140 0 -177 -3v52h93l-180 449l-171 -425q-2 -4 -5 -16q30 -8 89 -8v-52l-133 3q-79 0 -118 -3v52h19q23 0 45 3q17 1 21 4t9 14l242 600q7 18 15.5 23t31.5 5q13 0 19.5 -1t14.5 -7.5t13 -19.5l249 -621h86v-52z" />
    <glyph glyph-name="Mu" unicode="&#x39c;" horiz-adv-x="1159" 
d="M1108 0q-41 3 -173 3t-173 -3v52h108v580h-1l-288 -603q-15 -29 -39 -29q-25 0 -40 30l-281 589h-1v-540q0 -15 4 -18.5t23 -5.5q23 -3 53 -3h28v-52l-139 3l-139 -3v52h28q25 0 51 2q21 2 25 5.5t4 19.5v555h-108v52h228q14 0 20.5 -1t14.5 -8t15 -21l251 -526l252 527
q7 14 14.5 20t14 7.5t20.5 1.5h228v-52h-108v-582h108v-52z" />
    <glyph glyph-name="Nu" unicode="&#x39d;" horiz-adv-x="955" 
d="M907 634h-28q-25 0 -51 -2q-21 -2 -25 -5.5t-4 -19.5v-573q0 -20 -5 -27t-26 -7q-20 0 -31 12l-520 576v-509q0 -15 4 -18.5t23 -5.5q23 -3 53 -3h28v-52l-139 3l-139 -3v52h28q25 0 51 2q21 2 25 5.5t4 19.5v555h-108v52h234q15 0 20 -2t15 -12l421 -465v400
q0 15 -4 18.5t-23 5.5q-23 3 -53 3h-28v52l139 -3l139 3v-52z" />
    <glyph glyph-name="Xi" unicode="&#x39e;" horiz-adv-x="817" 
d="M758 470h-56q-3 66 -16 77q-8 8 -82 8h-392q-71 0 -81 -7q-13 -8 -17 -78h-56l10 203h680zM765 213l-10 -213h-694l-10 213h56q3 -69 15 -85q6 -10 88 -10h396q78 0 87 9q13 11 16 86h56zM646 250h-56v41h-364v-41h-56v200h56v-41h364v41h56v-200z" />
    <glyph glyph-name="Omicron" unicode="&#x39f;" horiz-adv-x="920" 
d="M851 339q0 -153 -103.5 -253t-288.5 -100q-183 0 -287 99t-104 254q0 158 104 259.5t287 101.5q185 0 288.5 -102t103.5 -259zM691 354q0 145 -52 215q-63 84 -180 84q-61 0 -106 -23.5t-69 -54.5q-32 -43 -44 -94.5t-12 -126.5q0 -142 42 -213q63 -106 190 -106
q57 0 106 25.5t78 72.5q47 78 47 221z" />
    <glyph glyph-name="Pi" unicode="&#x3a0;" horiz-adv-x="955" 
d="M907 0q-38 3 -182 3q-145 0 -183 -3v52h108v576h-346v-576h108v-52q-38 3 -182 3q-145 0 -183 -3v52h108v576h-108v52h860v-52h-108v-576h108v-52z" />
    <glyph glyph-name="Rho" unicode="&#x3a1;" horiz-adv-x="835" 
d="M766 489q0 -83 -75.5 -138t-205.5 -55h-181v-244h108v-52q-38 3 -182 3q-145 0 -183 -3v52h108v582h-108v52h438q131 0 206 -56.5t75 -140.5zM606 489q0 28 -1 42.5t-9 37.5t-24 34.5t-47 21t-77 9.5h-150v-291h149q38 0 66.5 5.5t45.5 17.5t27 23.5t14 31.5t5 32.5
t1 35.5z" />
    <glyph glyph-name="Sigma" unicode="&#x3a3;" horiz-adv-x="885" 
d="M816 262l-33 -262h-680q-35 0 -35 21q0 8 14 21l294 252l-298 342q-10 11 -10 24q0 12 5.5 18t11.5 7t18 1h680l33 -243h-56q-7 50 -24.5 85.5t-40 56t-57.5 31.5t-68 14.5t-81 3.5h-212l237 -271q10 -12 10 -20t-14 -21l-293 -251h272q48 0 80.5 3t68 14t58 31.5t40 56
t24.5 86.5h56z" />
    <glyph glyph-name="Tau" unicode="&#x3a4;" horiz-adv-x="852" 
d="M807 430h-56q-4 52 -10.5 80.5t-23.5 57.5t-50 41t-85 12h-82v-569h152v-52q-38 3 -227 3q-188 0 -226 -3v52h152v569h-82q-52 0 -85 -12t-50 -41t-23.5 -57.5t-10.5 -80.5h-56l23 243h717z" />
    <glyph glyph-name="Upsilon" unicode="&#x3a5;" horiz-adv-x="953" 
d="M884 553q0 -17 -8.5 -21t-24.5 -4q-18 0 -24.5 3.5t-8.5 20.5q-5 28 -90 28q-23 0 -38.5 -2t-42.5 -18t-49 -46q-47 -66 -47 -170v-292h135v-52q-37 3 -210 3q-172 0 -209 -3v52h135v292q0 95 -42 161q-46 75 -136 75q-40 0 -60.5 -5.5t-24.5 -11t-5 -16.5
q-3 -19 -33 -19q-11 0 -16.5 1t-11 6.5t-5.5 17.5q0 57 48.5 102t120.5 45q90 0 153 -66t86 -164h1q29 111 92 170.5t146 59.5q72 0 120.5 -45t48.5 -102z" />
    <glyph glyph-name="Phi" unicode="&#x3a6;" horiz-adv-x="885" 
d="M816 343q0 -81 -92 -131t-220 -55v-105h135v-52q-37 3 -203 3t-203 -3v52h135v105q-135 10 -217.5 61t-82.5 125t82.5 125t217.5 61v105h-135v52q37 -3 203 -3t203 3v-52h-135v-105q128 -5 220 -55t92 -131zM368 200v286q-82 -10 -114 -45.5t-32 -97.5t31.5 -97.5
t114.5 -45.5zM662 343q0 63 -34 99.5t-124 44.5v-288q90 8 124 44.5t34 99.5z" />
    <glyph glyph-name="Chi" unicode="&#x3a7;" horiz-adv-x="922" 
d="M882 0q-63 3 -169 3q-144 0 -181 -3v52h78l-181 231l-178 -220v-3q36 -8 85 -8v-52l-154 3l-142 -3v52h32q32 0 57 3q24 2 30 4.5t14 11.5l214 266l-232 297h-99v52q63 -3 169 -3q144 0 181 3v-52h-78l147 -188l144 178l-7.5 2.5t-7 2.5t-3.5 1q-31 4 -68 4v52
q63 -3 155 -3l142 3v-52h-32q-32 0 -57 -3q-24 -2 -30 -4.5t-14 -11.5l-180 -223l266 -340h99v-52z" />
    <glyph glyph-name="Psi" unicode="&#x3a8;" horiz-adv-x="953" 
d="M884 524q0 -17 -17 -21q-15 -2 -22.5 -6t-15.5 -19q-13 -26 -13 -79q0 -18 -4 -41t-22 -61t-48 -66q-68 -63 -204 -74v-105h135v-52q-37 3 -203 3t-203 -3v52h135v106q-263 22 -266 262q0 38 -17 65q-10 15 -33 18q-18 2 -18 21q0 21 35 21h71q32 0 53.5 -15t30 -38.5
t11.5 -40.5t3 -33q0 -29 2 -50.5t10 -49.5t21 -48t38 -38t59 -27v429h-135v52q37 -3 203 -3t203 3v-52h-135v-430q66 14 103 61q39 52 39 135q1 77 25.5 111t72.5 34h72q34 0 34 -21z" />
    <glyph glyph-name="Omega" unicode="&#x3a9;" horiz-adv-x="885" 
d="M830 204l-39 -204h-206q-13 0 -19 1t-11 7.5t-5 20.5q0 77 54 216q52 140 52 212q0 100 -54 149q-61 52 -160 52q-94 0 -152 -46q-62 -50 -62 -155q0 -73 53 -213q53 -145 53 -215q0 -20 -7.5 -24.5t-26.5 -4.5h-207l-39 204h56q12 -59 18 -75q3 -7 6.5 -10.5t19 -6.5
t43.5 -3h73q-22 44 -86 118q-37 43 -57.5 70.5t-39.5 72t-19 87.5q0 42 19 82.5t60 77.5t117 60t178 23t178 -23t117 -60t60 -77.5t19 -82.5q0 -34 -8.5 -64.5t-30.5 -64t-39 -55.5t-53 -64q-48 -56 -71 -100h73q29 0 44 3.5t18.5 7t6.5 11.5q6 15 18 73h56z" />
    <glyph glyph-name="baht" unicode="&#xe3f;" horiz-adv-x="869" 
d="M800 187q0 -80 -70.5 -133.5t-194.5 -53.5h-82v-52q0 -10 -7.5 -18t-18.5 -8t-18.5 7.5t-7.5 18.5v52h-354v52h108v582h-108v52h354v52q0 11 7.5 18.5t18.5 7.5t18.5 -8t7.5 -18v-52h49q122 0 193 -50t71 -123q0 -57 -49 -98.5t-129 -55.5q101 -11 156.5 -59t55.5 -113z
M618 513q0 29 -10 54.5t-40.5 46t-78.5 20.5h-36v-256h9q72 0 114 37.5t42 97.5zM401 378v256h-110v-256h110zM646 189q0 25 -6 48t-21 46.5t-45 38t-72 14.5h-49v-284h39q73 0 113.5 37t40.5 100zM401 52v284h-110v-284h110z" />
    <glyph glyph-name="Ddotbelow" unicode="&#x1e0c;" horiz-adv-x="938" 
d="M869 337q0 -154 -102.5 -245.5t-265.5 -91.5h-454v52h108v582h-108v52h453q162 0 265.5 -94.5t103.5 -254.5zM715 339q0 30 -0.5 47.5t-5.5 52t-14 57.5t-28 51.5t-45.5 45.5t-68.5 29t-95 12h-160v-582h161q53 0 94.5 11.5t68 27.5t45.5 44t28 49.5t14 55.5t5.5 51.5
t0.5 47.5zM459 -120q0 -33 -23.5 -56.5t-57.5 -23.5q-32 0 -56 23.5t-24 56.5t23.5 56.5t57.5 23.5q32 0 56 -23.5t24 -56.5z" />
    <glyph glyph-name="ddotbelow" unicode="&#x1e0d;" horiz-adv-x="681" 
d="M634 0l-188 -7v49q-64 -49 -149 -49q-117 0 -186.5 64.5t-69.5 164.5t72 164.5t196 64.5q80 0 143 -43v187q0 28 -10 33.5t-56 5.5v52l182 8v-603q0 -28 10 -33.5t56 -5.5v-52zM446 111v236q-49 62 -127 62q-41 0 -69.5 -14.5t-42.5 -33t-21.5 -49.5t-8.5 -48t-1 -45
q0 -18 0.5 -29.5t3 -33t7 -35.5t14 -32t23 -28.5t34.5 -18t48 -7.5q86 0 140 76zM421 -120q0 -33 -23.5 -56.5t-57.5 -23.5q-32 0 -56 23.5t-24 56.5t23.5 56.5t57.5 23.5q32 0 56 -23.5t24 -56.5z" />
    <glyph glyph-name="Dlinebelow" unicode="&#x1e0e;" horiz-adv-x="938" 
d="M869 337q0 -154 -102.5 -245.5t-265.5 -91.5h-454v52h108v582h-108v52h453q162 0 265.5 -94.5t103.5 -254.5zM715 339q0 30 -0.5 47.5t-5.5 52t-14 57.5t-28 51.5t-45.5 45.5t-68.5 29t-95 12h-160v-582h161q53 0 94.5 11.5t68 27.5t45.5 44t28 49.5t14 55.5t5.5 51.5
t0.5 47.5zM599 -149h-442v58h442v-58z" />
    <glyph glyph-name="dlinebelow" unicode="&#x1e0f;" horiz-adv-x="681" 
d="M634 0l-188 -7v49q-64 -49 -149 -49q-117 0 -186.5 64.5t-69.5 164.5t72 164.5t196 64.5q80 0 143 -43v187q0 28 -10 33.5t-56 5.5v52l182 8v-603q0 -28 10 -33.5t56 -5.5v-52zM446 111v236q-49 62 -127 62q-41 0 -69.5 -14.5t-42.5 -33t-21.5 -49.5t-8.5 -48t-1 -45
q0 -18 0.5 -29.5t3 -33t7 -35.5t14 -32t23 -28.5t34.5 -18t48 -7.5q86 0 140 76zM561 -149h-442v58h442v-58z" />
    <glyph glyph-name="Hdotbelow" unicode="&#x1e24;" horiz-adv-x="955" 
d="M907 0q-38 3 -182 3q-145 0 -183 -3v52h108v279h-346v-279h108v-52q-38 3 -182 3q-145 0 -183 -3v52h108v582h-108v52q38 -3 183 -3q144 0 182 3v-52h-108v-251h346v251h-108v52q38 -3 183 -3q144 0 182 3v-52h-108v-582h108v-52zM558 -120q0 -33 -23.5 -56.5
t-57.5 -23.5q-32 0 -56 23.5t-24 56.5t23.5 56.5t57.5 23.5q32 0 56 -23.5t24 -56.5z" />
    <glyph glyph-name="hdotbelow" unicode="&#x1e25;" horiz-adv-x="681" 
d="M650 0q-54 3 -127 3t-127 -3v52h66v262q0 55 -14.5 75t-43.5 20q-35 0 -70 -15t-62.5 -52t-27.5 -89v-201h66v-52q-54 3 -127 3t-127 -3v52h66v543q0 28 -10 33.5t-56 5.5v52l182 8v-335q62 92 181 92q77 0 121 -32t44 -116v-251h66v-52zM434 -120q0 -33 -23.5 -56.5
t-57.5 -23.5q-32 0 -56 23.5t-24 56.5t23.5 56.5t57.5 23.5q32 0 56 -23.5t24 -56.5z" />
    <glyph glyph-name="Hdieresis" unicode="&#x1e26;" horiz-adv-x="955" 
d="M907 0q-38 3 -182 3q-145 0 -183 -3v52h108v279h-346v-279h108v-52q-38 3 -182 3q-145 0 -183 -3v52h108v582h-108v52q38 -3 183 -3q144 0 182 3v-52h-108v-251h346v251h-108v52q38 -3 183 -3q144 0 182 3v-52h-108v-582h108v-52zM393 803q0 -29 -21.5 -50.5t-51.5 -21.5
q-29 0 -50.5 21t-21.5 51t21 51t52 21q29 0 50.5 -21t21.5 -51zM707 803q0 -29 -21.5 -50.5t-51.5 -21.5q-29 0 -50.5 21t-21.5 51t21 51t52 21q29 0 50.5 -21t21.5 -51z" />
    <glyph glyph-name="hdieresis" unicode="&#x1e27;" horiz-adv-x="681" 
d="M650 0q-54 3 -127 3t-127 -3v52h66v262q0 55 -14.5 75t-43.5 20q-35 0 -70 -15t-62.5 -52t-27.5 -89v-201h66v-52q-54 3 -127 3t-127 -3v52h66v543q0 28 -10 33.5t-56 5.5v52l182 8v-335q62 92 181 92q77 0 121 -32t44 -116v-251h66v-52zM256 811q0 -29 -21.5 -50.5
t-51.5 -21.5q-29 0 -50.5 21t-21.5 51t21 51t52 21q29 0 50.5 -21t21.5 -51zM570 811q0 -29 -21.5 -50.5t-51.5 -21.5q-29 0 -50.5 21t-21.5 51t21 51t52 21q29 0 50.5 -21t21.5 -51z" />
    <glyph glyph-name="Hbrevebelow" unicode="&#x1e2a;" horiz-adv-x="955" 
d="M907 0q-38 3 -182 3q-145 0 -183 -3v52h108v279h-346v-279h108v-52q-38 3 -182 3q-145 0 -183 -3v52h108v582h-108v52q38 -3 183 -3q144 0 182 3v-52h-108v-251h346v251h-108v52q38 -3 183 -3q144 0 182 3v-52h-108v-582h108v-52zM668 -26q-1 -83 -58.5 -135t-132.5 -52
t-132.5 52t-58.5 135h42q1 -57 47.5 -87.5t101.5 -30.5t101.5 30.5t47.5 87.5h42z" />
    <glyph glyph-name="hbrevebelow" unicode="&#x1e2b;" horiz-adv-x="681" 
d="M650 0q-54 3 -127 3t-127 -3v52h66v262q0 55 -14.5 75t-43.5 20q-35 0 -70 -15t-62.5 -52t-27.5 -89v-201h66v-52q-54 3 -127 3t-127 -3v52h66v543q0 28 -10 33.5t-56 5.5v52l182 8v-335q62 92 181 92q77 0 121 -32t44 -116v-251h66v-52zM544 -26q-1 -83 -58.5 -135
t-132.5 -52t-132.5 52t-58.5 135h42q1 -57 47.5 -87.5t101.5 -30.5t101.5 30.5t47.5 87.5h42z" />
    <glyph glyph-name="Idieresisacute" unicode="&#x1e2e;" horiz-adv-x="459" 
d="M417 0q-37 3 -188 3q-150 0 -187 -3v52h113v582h-113v52q37 -3 188 -3q150 0 187 3v-52h-113v-582h113v-52zM145 803q0 -29 -21.5 -50.5t-51.5 -21.5q-29 0 -50.5 21t-21.5 51t21 51t52 21q29 0 50.5 -21t21.5 -51zM459 803q0 -29 -21.5 -50.5t-51.5 -21.5
q-29 0 -50.5 21t-21.5 51t21 51t52 21q29 0 50.5 -21t21.5 -51zM393 1036q-1 -7 -3.5 -13t-7 -11t-8 -8t-8.5 -6t-8 -4t-8 -3l-5 -2l-174 -48l-24 50l145 107q21 16 41 16q31 0 49.5 -24.5t10.5 -53.5z" />
    <glyph glyph-name="idieresisacute" unicode="&#x1e2f;" horiz-adv-x="340" 
d="M300 0q-49 3 -119 3q-64 0 -122 -3v52h66v301q0 28 -9.5 33t-53.5 5v52l179 8v-399h59v-52zM110 605q0 -29 -21.5 -50.5t-51.5 -21.5q-29 0 -50.5 21t-21.5 51t21 51t52 21q29 0 50.5 -21t21.5 -51zM376 605q0 -29 -21.5 -50.5t-51.5 -21.5q-29 0 -50.5 21t-21.5 51
t21 51t52 21q29 0 50.5 -21t21.5 -51zM334 827q-1 -7 -3.5 -13t-7 -11t-8 -8t-8.5 -6t-8 -4t-8 -3l-5 -2l-174 -48l-24 50l145 107q21 16 41 16q31 0 49.5 -24.5t10.5 -53.5z" />
    <glyph glyph-name="Ldotbelow" unicode="&#x1e36;" horiz-adv-x="735" 
d="M683 275l-33 -275h-603v52h108v582h-108v52q38 -3 190 -3q165 0 202 3v-52h-135v-582h110q53 0 92.5 17.5t60.5 40t35 58.5t17.5 56.5t7.5 50.5h56zM448 -120q0 -33 -23.5 -56.5t-57.5 -23.5q-32 0 -56 23.5t-24 56.5t23.5 56.5t57.5 23.5q32 0 56 -23.5t24 -56.5z" />
    <glyph glyph-name="ldotbelow" unicode="&#x1e37;" horiz-adv-x="340" 
d="M307 0q-58 3 -124 3t-124 -3v52h66v543q0 28 -10 33.5t-56 5.5v52l182 8v-642h66v-52zM251 -120q0 -33 -23.5 -56.5t-57.5 -23.5q-32 0 -56 23.5t-24 56.5t23.5 56.5t57.5 23.5q32 0 56 -23.5t24 -56.5z" />
    <glyph glyph-name="Ldotbelowmacron" unicode="&#x1e38;" horiz-adv-x="735" 
d="M683 275l-33 -275h-603v52h108v582h-108v52q38 -3 190 -3q165 0 202 3v-52h-135v-582h110q53 0 92.5 17.5t60.5 40t35 58.5t17.5 56.5t7.5 50.5h56zM448 -120q0 -33 -23.5 -56.5t-57.5 -23.5q-32 0 -56 23.5t-24 56.5t23.5 56.5t57.5 23.5q32 0 56 -23.5t24 -56.5z
M464 751h-442v58h442v-58z" />
    <glyph glyph-name="ldotbelowmacron" unicode="&#x1e39;" horiz-adv-x="340" 
d="M307 0q-58 3 -124 3t-124 -3v52h66v543q0 28 -10 33.5t-56 5.5v52l182 8v-642h66v-52zM251 -120q0 -33 -23.5 -56.5t-57.5 -23.5q-32 0 -56 23.5t-24 56.5t23.5 56.5t57.5 23.5q32 0 56 -23.5t24 -56.5zM401 759h-442v58h442v-58z" />
    <glyph glyph-name="Mdotbelow" unicode="&#x1e42;" horiz-adv-x="1159" 
d="M1108 0q-41 3 -173 3t-173 -3v52h108v580h-1l-288 -603q-15 -29 -39 -29q-25 0 -40 30l-281 589h-1v-540q0 -15 4 -18.5t23 -5.5q23 -3 53 -3h28v-52l-139 3l-139 -3v52h28q25 0 51 2q21 2 25 5.5t4 19.5v555h-108v52h228q14 0 20.5 -1t14.5 -8t15 -21l251 -526l252 527
q7 14 14.5 20t14 7.5t20.5 1.5h228v-52h-108v-582h108v-52zM660 -120q0 -33 -23.5 -56.5t-57.5 -23.5q-32 0 -56 23.5t-24 56.5t23.5 56.5t57.5 23.5q32 0 56 -23.5t24 -56.5z" />
    <glyph glyph-name="mdotbelow" unicode="&#x1e43;" horiz-adv-x="1021" 
d="M990 0q-54 3 -127 3t-127 -3v52h66v262q0 55 -14.5 75t-43.5 20q-35 0 -70 -15t-62.5 -52t-27.5 -89v-201h66v-52q-54 3 -127 3t-127 -3v52h66v262q0 55 -14.5 75t-43.5 20q-35 0 -70 -15t-62.5 -52t-27.5 -89v-201h66v-52q-54 3 -127 3t-127 -3v52h66v300q0 28 -10 33.5
t-56 5.5v52l175 8v-102h1q7 12 18.5 26t33.5 33t57.5 31t77.5 12q131 0 159 -92q62 92 181 92q78 0 121.5 -32t43.5 -116v-251h66v-52zM591 -120q0 -33 -23.5 -56.5t-57.5 -23.5q-32 0 -56 23.5t-24 56.5t23.5 56.5t57.5 23.5q32 0 56 -23.5t24 -56.5z" />
    <glyph glyph-name="Ndotaccent" unicode="&#x1e44;" horiz-adv-x="955" 
d="M907 634h-28q-25 0 -51 -2q-21 -2 -25 -5.5t-4 -19.5v-573q0 -20 -5 -27t-26 -7q-20 0 -31 12l-520 576v-509q0 -15 4 -18.5t23 -5.5q23 -3 53 -3h28v-52l-139 3l-139 -3v52h28q25 0 51 2q21 2 25 5.5t4 19.5v555h-108v52h234q15 0 20 -2t15 -12l421 -465v400
q0 15 -4 18.5t-23 5.5q-23 3 -53 3h-28v52l139 -3l139 3v-52zM558 811q0 -33 -23.5 -56.5t-57.5 -23.5q-32 0 -56 23.5t-24 56.5t23.5 56.5t57.5 23.5q32 0 56 -23.5t24 -56.5z" />
    <glyph glyph-name="ndotaccent" unicode="&#x1e45;" horiz-adv-x="681" 
d="M650 0q-54 3 -127 3t-127 -3v52h66v262q0 55 -14.5 75t-43.5 20q-35 0 -70 -15t-62.5 -52t-27.5 -89v-201h66v-52q-54 3 -127 3t-127 -3v52h66v300q0 28 -10 33.5t-56 5.5v52l175 8v-102h1q7 12 18.5 26t33.5 33t57.5 31t77.5 12q77 0 121 -32t44 -116v-251h66v-52z
M421 605q0 -33 -23.5 -56.5t-57.5 -23.5q-32 0 -56 23.5t-24 56.5t23.5 56.5t57.5 23.5q32 0 56 -23.5t24 -56.5z" />
    <glyph glyph-name="Ndotbelow" unicode="&#x1e46;" horiz-adv-x="955" 
d="M907 634h-28q-25 0 -51 -2q-21 -2 -25 -5.5t-4 -19.5v-573q0 -20 -5 -27t-26 -7q-20 0 -31 12l-520 576v-509q0 -15 4 -18.5t23 -5.5q23 -3 53 -3h28v-52l-139 3l-139 -3v52h28q25 0 51 2q21 2 25 5.5t4 19.5v555h-108v52h234q15 0 20 -2t15 -12l421 -465v400
q0 15 -4 18.5t-23 5.5q-23 3 -53 3h-28v52l139 -3l139 3v-52zM558 -120q0 -33 -23.5 -56.5t-57.5 -23.5q-32 0 -56 23.5t-24 56.5t23.5 56.5t57.5 23.5q32 0 56 -23.5t24 -56.5z" />
    <glyph glyph-name="ndotbelow" unicode="&#x1e47;" horiz-adv-x="681" 
d="M650 0q-54 3 -127 3t-127 -3v52h66v262q0 55 -14.5 75t-43.5 20q-35 0 -70 -15t-62.5 -52t-27.5 -89v-201h66v-52q-54 3 -127 3t-127 -3v52h66v300q0 28 -10 33.5t-56 5.5v52l175 8v-102h1q7 12 18.5 26t33.5 33t57.5 31t77.5 12q77 0 121 -32t44 -116v-251h66v-52z
M421 -120q0 -33 -23.5 -56.5t-57.5 -23.5q-32 0 -56 23.5t-24 56.5t23.5 56.5t57.5 23.5q32 0 56 -23.5t24 -56.5z" />
    <glyph glyph-name="Rdotaccent" unicode="&#x1e58;" horiz-adv-x="915" 
d="M911 98q0 -9 -2.5 -20.5t-11 -28.5t-21.5 -30.5t-37.5 -23t-56.5 -9.5q-107 0 -162 31q-23 13 -37 28t-19.5 36.5t-6.5 37t-1 47.5q0 56 -4.5 77t-25.5 41q-37 38 -100 38h-128v-270h108v-52q-39 3 -179 3q-141 0 -180 -3v52h108v582h-108v52h398q142 0 229 -53t87 -134
q0 -53 -43.5 -95t-121.5 -64q46 -17 71.5 -45.5t31.5 -51.5t11 -66q4 -34 6.5 -49.5t9 -39t14 -33.5t21 -18.5t31.5 -8.5q20 0 40 15.5t23 56.5q2 23 28 23q28 0 28 -25zM601 499q0 30 -4 48.5t-19 41t-52 34t-95 11.5h-133v-270h130q48 0 82 9t51.5 21t27 32.5t11 35
t1.5 37.5zM539 825q0 -33 -23.5 -56.5t-57.5 -23.5q-32 0 -56 23.5t-24 56.5t23.5 56.5t57.5 23.5q32 0 56 -23.5t24 -56.5z" />
    <glyph glyph-name="rdotaccent" unicode="&#x1e59;" horiz-adv-x="506" 
d="M471 364q0 -29 -19 -47.5t-47 -18.5t-47 18.5t-19 47.5q0 12 4 23.5t8 16.5l4 5q-45 -1 -75 -34.5t-41 -75t-11 -85.5v-162h82v-52l-136 3q-70 0 -128 -3v52h66v300q0 28 -10 33.5t-56 5.5v52l169 8v-107l1 -1q16 41 50.5 74.5t90.5 33.5q46 0 80 -24t34 -63zM334 605
q0 -33 -23.5 -56.5t-57.5 -23.5q-32 0 -56 23.5t-24 56.5t23.5 56.5t57.5 23.5q32 0 56 -23.5t24 -56.5z" />
    <glyph glyph-name="Rdotbelow" unicode="&#x1e5a;" horiz-adv-x="915" 
d="M911 98q0 -9 -2.5 -20.5t-11 -28.5t-21.5 -30.5t-37.5 -23t-56.5 -9.5q-107 0 -162 31q-23 13 -37 28t-19.5 36.5t-6.5 37t-1 47.5q0 56 -4.5 77t-25.5 41q-37 38 -100 38h-128v-270h108v-52q-39 3 -179 3q-141 0 -180 -3v52h108v582h-108v52h398q142 0 229 -53t87 -134
q0 -53 -43.5 -95t-121.5 -64q46 -17 71.5 -45.5t31.5 -51.5t11 -66q4 -34 6.5 -49.5t9 -39t14 -33.5t21 -18.5t31.5 -8.5q20 0 40 15.5t23 56.5q2 23 28 23q28 0 28 -25zM601 499q0 30 -4 48.5t-19 41t-52 34t-95 11.5h-133v-270h130q48 0 82 9t51.5 21t27 32.5t11 35
t1.5 37.5zM539 -120q0 -33 -23.5 -56.5t-57.5 -23.5q-32 0 -56 23.5t-24 56.5t23.5 56.5t57.5 23.5q32 0 56 -23.5t24 -56.5z" />
    <glyph glyph-name="rdotbelow" unicode="&#x1e5b;" horiz-adv-x="506" 
d="M471 364q0 -29 -19 -47.5t-47 -18.5t-47 18.5t-19 47.5q0 12 4 23.5t8 16.5l4 5q-45 -1 -75 -34.5t-41 -75t-11 -85.5v-162h82v-52l-136 3q-70 0 -128 -3v52h66v300q0 28 -10 33.5t-56 5.5v52l169 8v-107l1 -1q16 41 50.5 74.5t90.5 33.5q46 0 80 -24t34 -63zM259 -120
q0 -33 -23.5 -56.5t-57.5 -23.5q-32 0 -56 23.5t-24 56.5t23.5 56.5t57.5 23.5q32 0 56 -23.5t24 -56.5z" />
    <glyph glyph-name="Rdotbelowmacron" unicode="&#x1e5c;" horiz-adv-x="915" 
d="M911 98q0 -9 -2.5 -20.5t-11 -28.5t-21.5 -30.5t-37.5 -23t-56.5 -9.5q-107 0 -162 31q-23 13 -37 28t-19.5 36.5t-6.5 37t-1 47.5q0 56 -4.5 77t-25.5 41q-37 38 -100 38h-128v-270h108v-52q-39 3 -179 3q-141 0 -180 -3v52h108v582h-108v52h398q142 0 229 -53t87 -134
q0 -53 -43.5 -95t-121.5 -64q46 -17 71.5 -45.5t31.5 -51.5t11 -66q4 -34 6.5 -49.5t9 -39t14 -33.5t21 -18.5t31.5 -8.5q20 0 40 15.5t23 56.5q2 23 28 23q28 0 28 -25zM601 499q0 30 -4 48.5t-19 41t-52 34t-95 11.5h-133v-270h130q48 0 82 9t51.5 21t27 32.5t11 35
t1.5 37.5zM539 -120q0 -33 -23.5 -56.5t-57.5 -23.5q-32 0 -56 23.5t-24 56.5t23.5 56.5t57.5 23.5q32 0 56 -23.5t24 -56.5zM678 751h-442v58h442v-58z" />
    <glyph glyph-name="rdotbelowmacron" unicode="&#x1e5d;" horiz-adv-x="506" 
d="M471 364q0 -29 -19 -47.5t-47 -18.5t-47 18.5t-19 47.5q0 12 4 23.5t8 16.5l4 5q-45 -1 -75 -34.5t-41 -75t-11 -85.5v-162h82v-52l-136 3q-70 0 -128 -3v52h66v300q0 28 -10 33.5t-56 5.5v52l169 8v-107l1 -1q16 41 50.5 74.5t90.5 33.5q46 0 80 -24t34 -63zM259 -120
q0 -33 -23.5 -56.5t-57.5 -23.5q-32 0 -56 23.5t-24 56.5t23.5 56.5t57.5 23.5q32 0 56 -23.5t24 -56.5zM474 576h-442v58h442v-58z" />
    <glyph glyph-name="Sdotbelow" unicode="&#x1e62;" horiz-adv-x="681" 
d="M612 202q0 -39 -13 -75.5t-40 -69t-76 -52t-113 -19.5q-133 0 -214 53l-30 -29q-18 -18 -22.5 -21t-13.5 -3q-10 0 -15 4.5t-6 9.5t-1 17v180q0 19 4 25t24 6q27 0 28 -16q3 -92 68 -132q67 -42 177 -42q36 0 63.5 9t42 22t23 30.5t11 29.5t2.5 24q0 38 -27 71t-86 45
l-123 25q-32 7 -51 12t-51.5 23t-56.5 45q-48 55 -48 124q0 82 60.5 142t178.5 60q107 0 182 -54l31 30q18 18 22.5 21t13.5 3q10 0 15 -4.5t6 -9.5t1 -17v-180q0 -19 -4.5 -25t-23.5 -6q-18 0 -22.5 4.5t-6.5 19.5q-14 85 -71 129q-56 42 -143 42q-73 0 -105.5 -32
t-32.5 -72q0 -35 27 -63.5t79 -39.5l152 -31q78 -16 131.5 -74.5t53.5 -138.5zM421 -120q0 -33 -23.5 -56.5t-57.5 -23.5q-32 0 -56 23.5t-24 56.5t23.5 56.5t57.5 23.5q32 0 56 -23.5t24 -56.5z" />
    <glyph glyph-name="sdotbelow" unicode="&#x1e63;" horiz-adv-x="483" 
d="M441 141q0 -42 -18.5 -72t-41 -44t-55 -22t-48 -9t-33.5 -1q-74 0 -124 30l-26 -17q-21 -13 -32 -13q-10 0 -15 4.5t-6 9.5t-1 17v103q0 19 4 25t24 6q16 0 20.5 -3t8.5 -16q10 -29 22.5 -49t45 -37.5t79.5 -17.5q119 0 119 72q0 19 -11 33t-33.5 22.5t-38 12t-41.5 7.5
q-109 18 -148 46q-51 39 -51 93q0 38 18 65.5t40.5 40t55.5 19.5t48.5 8t34.5 1q64 0 106 -17q34 17 45 17q10 0 15 -4.5t6 -9.5t1 -17v-73q0 -19 -4.5 -25t-23.5 -6q-26 0 -28 16q-1 15 -4 25.5t-13.5 25.5t-36.5 23t-65 8q-118 0 -118 -59q0 -16 8.5 -26.5t32 -18.5
t43 -12t62.5 -11q90 -14 134 -55q43 -39 43 -95zM322 -120q0 -33 -23.5 -56.5t-57.5 -23.5q-32 0 -56 23.5t-24 56.5t23.5 56.5t57.5 23.5q32 0 56 -23.5t24 -56.5z" />
    <glyph glyph-name="Tdotbelow" unicode="&#x1e6c;" horiz-adv-x="852" 
d="M807 430h-56q-4 52 -10.5 80.5t-23.5 57.5t-50 41t-85 12h-82v-569h152v-52q-38 3 -227 3q-188 0 -226 -3v52h152v569h-82q-52 0 -85 -12t-50 -41t-23.5 -57.5t-10.5 -80.5h-56l23 243h717zM507 -120q0 -33 -23.5 -56.5t-57.5 -23.5q-32 0 -56 23.5t-24 56.5t23.5 56.5
t57.5 23.5q32 0 56 -23.5t24 -56.5z" />
    <glyph glyph-name="tdotbelow" unicode="&#x1e6d;" horiz-adv-x="476" 
d="M407 123q0 -59 -37 -94.5t-95 -35.5q-166 0 -166 130v269h-86v42q71 1 111 61t41 140h56v-191h156v-52h-156v-272q0 -80 59 -80q23 0 42 19.5t19 65.5v49h56v-51zM319 -120q0 -33 -23.5 -56.5t-57.5 -23.5q-32 0 -56 23.5t-24 56.5t23.5 56.5t57.5 23.5q32 0 56 -23.5
t24 -56.5z" />
    <glyph glyph-name="Tlinebelow" unicode="&#x1e6e;" horiz-adv-x="852" 
d="M807 430h-56q-4 52 -10.5 80.5t-23.5 57.5t-50 41t-85 12h-82v-569h152v-52q-38 3 -227 3q-188 0 -226 -3v52h152v569h-82q-52 0 -85 -12t-50 -41t-23.5 -57.5t-10.5 -80.5h-56l23 243h717zM647 -149h-442v58h442v-58z" />
    <glyph glyph-name="tlinebelow" unicode="&#x1e6f;" horiz-adv-x="476" 
d="M407 123q0 -59 -37 -94.5t-95 -35.5q-166 0 -166 130v269h-86v42q71 1 111 61t41 140h56v-191h156v-52h-156v-272q0 -80 59 -80q23 0 42 19.5t19 65.5v49h56v-51zM459 -149h-442v58h442v-58z" />
    <glyph glyph-name="Wgrave" unicode="&#x1e80;" horiz-adv-x="1263" 
d="M1235 634h-19q-47 0 -58.5 -4t-17.5 -18l-242 -593q-6 -16 -13.5 -22.5t-28.5 -6.5q-30 0 -41 27l-184 453l-184 -454q-11 -26 -41 -26q-21 0 -28.5 6.5t-13.5 22.5l-250 615h-87v52l160 -3q136 0 174 3v-52h-93l184 -454l149 364l-37 90h-86v52l160 -3q136 0 174 3v-52
h-94l185 -454l176 431q1 2 5 14q-30 9 -100 9v52l135 -3q81 0 116 3v-52zM714 791l-24 -50l-174 48l-5 2q-5 2 -8 3t-8 4t-8.5 6t-8 8t-7 11t-3.5 13q-8 29 10.5 53.5t49.5 24.5q19 0 41 -16z" />
    <glyph glyph-name="wgrave" unicode="&#x1e81;" horiz-adv-x="885" 
d="M856 392q-41 0 -50.5 -3.5t-15.5 -17.5l-150 -348q-12 -28 -43 -28q-21 0 -28 6t-15 24l-112 258l-112 -258q-5 -13 -8.5 -18t-11.5 -8.5t-23 -3.5q-31 0 -43 28l-158 369h-58v52q35 -3 113 -3q63 0 121 3v-52h-50l108 -251l86 200l5 15q-4 8 -16 36h-57v52q30 -3 102 -3
q67 0 112 3v-52h-51l118 -274l109 252q1 2 5 14q-21 8 -53 8v52q32 -3 94 -3q47 0 82 3v-52zM521 550l-32 -45l-163 78q-39 22 -39 54q0 24 19 45.5t45 21.5q25 0 46 -23z" />
    <glyph glyph-name="Wacute" unicode="&#x1e82;" horiz-adv-x="1263" 
d="M1235 634h-19q-47 0 -58.5 -4t-17.5 -18l-242 -593q-6 -16 -13.5 -22.5t-28.5 -6.5q-30 0 -41 27l-184 453l-184 -454q-11 -26 -41 -26q-21 0 -28.5 6.5t-13.5 22.5l-250 615h-87v52l160 -3q136 0 174 3v-52h-93l184 -454l149 364l-37 90h-86v52l160 -3q136 0 174 3v-52
h-94l185 -454l176 431q1 2 5 14q-30 9 -100 9v52l135 -3q81 0 116 3v-52zM795 836q-1 -7 -3.5 -13t-7 -11t-8 -8t-8.5 -6t-8 -4t-8 -3l-5 -2l-174 -48l-24 50l145 107q21 16 41 16q31 0 49.5 -24.5t10.5 -53.5z" />
    <glyph glyph-name="wacute" unicode="&#x1e83;" horiz-adv-x="885" 
d="M856 392q-41 0 -50.5 -3.5t-15.5 -17.5l-150 -348q-12 -28 -43 -28q-21 0 -28 6t-15 24l-112 258l-112 -258q-5 -13 -8.5 -18t-11.5 -8.5t-23 -3.5q-31 0 -43 28l-158 369h-58v52q35 -3 113 -3q63 0 121 3v-52h-50l108 -251l86 200l5 15q-4 8 -16 36h-57v52q30 -3 102 -3
q67 0 112 3v-52h-51l118 -274l109 252q1 2 5 14q-21 8 -53 8v52q32 -3 94 -3q47 0 82 3v-52zM598 637q0 -32 -39 -54l-163 -78l-32 45l124 131q21 23 46 23q26 0 45 -21.5t19 -45.5z" />
    <glyph glyph-name="Wdieresis" unicode="&#x1e84;" horiz-adv-x="1263" 
d="M1235 634h-19q-47 0 -58.5 -4t-17.5 -18l-242 -593q-6 -16 -13.5 -22.5t-28.5 -6.5q-30 0 -41 27l-184 453l-184 -454q-11 -26 -41 -26q-21 0 -28.5 6.5t-13.5 22.5l-250 615h-87v52l160 -3q136 0 174 3v-52h-93l184 -454l149 364l-37 90h-86v52l160 -3q136 0 174 3v-52
h-94l185 -454l176 431q1 2 5 14q-30 9 -100 9v52l135 -3q81 0 116 3v-52zM547 803q0 -29 -21.5 -50.5t-51.5 -21.5q-29 0 -50.5 21t-21.5 51t21 51t52 21q29 0 50.5 -21t21.5 -51zM861 803q0 -29 -21.5 -50.5t-51.5 -21.5q-29 0 -50.5 21t-21.5 51t21 51t52 21
q29 0 50.5 -21t21.5 -51z" />
    <glyph glyph-name="wdieresis" unicode="&#x1e85;" horiz-adv-x="885" 
d="M856 392q-41 0 -50.5 -3.5t-15.5 -17.5l-150 -348q-12 -28 -43 -28q-21 0 -28 6t-15 24l-112 258l-112 -258q-5 -13 -8.5 -18t-11.5 -8.5t-23 -3.5q-31 0 -43 28l-158 369h-58v52q35 -3 113 -3q63 0 121 3v-52h-50l108 -251l86 200l5 15q-4 8 -16 36h-57v52q30 -3 102 -3
q67 0 112 3v-52h-51l118 -274l109 252q1 2 5 14q-21 8 -53 8v52q32 -3 94 -3q47 0 82 3v-52zM382 605q0 -29 -21.5 -50.5t-51.5 -21.5q-29 0 -50.5 21t-21.5 51t21 51t52 21q29 0 50.5 -21t21.5 -51zM648 605q0 -29 -21.5 -50.5t-51.5 -21.5q-29 0 -50.5 21t-21.5 51t21 51
t52 21q29 0 50.5 -21t21.5 -51z" />
    <glyph glyph-name="Zdotbelow" unicode="&#x1e92;" horiz-adv-x="749" 
d="M687 286l-20 -286h-565q-13 0 -18.5 1t-10.5 7.5t-5 20.5q0 16 10 29l423 576h-136q-97 0 -156.5 -41t-67.5 -150h-56l13 243h548q13 0 18.5 -1t10.5 -7.5t5 -19.5q0 -14 -11 -28l-421 -573h147q130 0 179 55.5t57 173.5h56zM455 -120q0 -33 -23.5 -56.5t-57.5 -23.5
q-32 0 -56 23.5t-24 56.5t23.5 56.5t57.5 23.5q32 0 56 -23.5t24 -56.5z" />
    <glyph glyph-name="zdotbelow" unicode="&#x1e93;" horiz-adv-x="544" 
d="M492 206l-20 -206h-404q-12 0 -18 1t-11 7t-5 18q0 14 11 27l290 349h-83q-78 0 -109 -29.5t-36 -106.5h-56l13 178h391q12 0 17.5 -1t11 -6.5t5.5 -17.5q0 -11 -10 -23l-290 -349h88q47 0 77.5 10t47 32t23.5 48.5t11 68.5h56zM353 -120q0 -33 -23.5 -56.5t-57.5 -23.5
q-32 0 -56 23.5t-24 56.5t23.5 56.5t57.5 23.5q32 0 56 -23.5t24 -56.5z" />
    <glyph glyph-name="tdieresis" unicode="&#x1e97;" horiz-adv-x="476" 
d="M407 123q0 -59 -37 -94.5t-95 -35.5q-166 0 -166 130v269h-86v42q71 1 111 61t41 140h56v-191h156v-52h-156v-272q0 -80 59 -80q23 0 42 19.5t19 65.5v49h56v-51zM154 761q0 -29 -21.5 -50.5t-51.5 -21.5q-29 0 -50.5 21t-21.5 51t21 51t52 21q29 0 50.5 -21t21.5 -51z
M468 761q0 -29 -21.5 -50.5t-51.5 -21.5q-29 0 -50.5 21t-21.5 51t21 51t52 21q29 0 50.5 -21t21.5 -51z" />
    <glyph glyph-name="Adotbelow" unicode="&#x1ea0;" horiz-adv-x="922" 
d="M876 0q-63 3 -168 3q-141 0 -178 -3v52h93l-61 139h-287l-51 -116l-5 -14q29 -9 88 -9v-52l-136 3q-75 0 -126 -3v52h24q25 0 51 3q18 2 22.5 5t9.5 14l261 601q7 18 17.5 22t30.5 4q13 0 19.5 -1t14.5 -7t13 -18l270 -623h98v-52zM540 243l-121 279l-121 -279h242z
M542 -120q0 -33 -23.5 -56.5t-57.5 -23.5q-32 0 -56 23.5t-24 56.5t23.5 56.5t57.5 23.5q32 0 56 -23.5t24 -56.5z" />
    <glyph glyph-name="adotbelow" unicode="&#x1ea1;" horiz-adv-x="596" 
d="M589 26q0 -18 -8 -22t-26 -4h-53q-65 0 -86.5 19t-21.5 49q-49 -75 -159 -75q-89 0 -147 29.5t-58 89.5q0 43 32 75t85.5 48.5t109.5 24.5t118 8v29q0 116 -115 116q-48 0 -76 -7q21 -19 21 -51q0 -29 -19 -48t-49 -19q-27 0 -47 18.5t-20 49.5q0 99 192 99
q117 0 176 -44t59 -115v-211q0 -14 2.5 -19.5t16 -9.5t43.5 -4q10 0 15 -1t10 -7t5 -18zM375 137v93q-99 -2 -161 -33t-62 -83q0 -35 29.5 -57t69.5 -22q6 0 15 0.5t30 6t37 15t29 30.5t13 50zM379 -120q0 -33 -23.5 -56.5t-57.5 -23.5q-32 0 -56 23.5t-24 56.5t23.5 56.5
t57.5 23.5q32 0 56 -23.5t24 -56.5z" />
    </font>
</defs>
</svg>
