<?xml version="1.0" standalone="no"?>
<!DOCTYPE svg PUBLIC "-//W3C//DTD SVG 1.1//EN" "http://www.w3.org/Graphics/SVG/1.1/DTD/svg11.dtd" >
<svg>
<metadata>
Created by FontForge 20120731 at Mon Jul 14 22:19:50 2014
 By tom,,,
Copyright 2003, 2009 B. Jackowski and J. M. Nowacki (on behalf of TeX users groups). This work is released under the GUST Font License --  see http://tug.org/fonts/licenses/GUST-FONT-LICENSE.txt for details.
</metadata>
<defs>
<font id="lmromanslant17-regular" horiz-adv-x="459" >
  <font-face 
    font-family="LM Roman Slanted 17"
    font-weight="400"
    font-style="italic"
    font-stretch="normal"
    units-per-em="1000"
    panose-1="0 0 5 0 0 0 0 0 0 0"
    ascent="805"
    descent="-195"
    x-height="430"
    cap-height="683"
    bbox="-428 -286 1367.36 1125"
    underline-thickness="60"
    underline-position="-192"
    slope="-9.4626"
    unicode-range="U+0020-FB04"
  />
<missing-glyph horiz-adv-x="280" 
 />
    <glyph glyph-name="I_J" unicode="IJ" horiz-adv-x="766" 
d="M281 0q-32 2 -117 2t-117 -2l4 26q57 0 71.5 6.5t20.5 38.5l90 541q6 32 -6.5 38.5t-69.5 6.5l4 26q32 -2 117 -2t117 2l-4 -26q-57 0 -71.5 -6.5t-20.5 -38.5l-90 -541q-6 -32 6.5 -38.5t69.5 -6.5zM824 657q-20 0 -29 -0.5t-19 -5t-14 -13.5q-2 -3 -10 -51l-70 -420
q-7 -39 -8 -43q-19 -62 -72.5 -101t-113.5 -39t-94.5 38.5t-26.5 89.5q8 44 50 44q19 0 28.5 -12t6.5 -30q-3 -21 -18.5 -32t-31.5 -11q-5 0 -13 2q11 -40 41.5 -56.5t58.5 -16.5q40 0 77.5 40.5t48.5 106.5l77 463q5 29 -6 38t-66 9h-24l4 26q42 -2 130 -2l98 2z" />
    <glyph glyph-name="i_j" unicode="ij" horiz-adv-x="500" 
d="M255 604q-2 -17 -16 -29t-32 -12q-16 0 -26 11.5t-7 29.5q3 17 16.5 29t31.5 12q16 0 26 -11.5t7 -29.5zM507 604q-2 -17 -16 -29t-32 -12q-16 0 -26 11.5t-7 29.5q3 17 16.5 29t31.5 12q16 0 26 -11.5t7 -29.5zM214 0q-23 2 -88 2q-68 0 -92 -2l4 26q47 0 59 7t17 36
l46 278q6 36 -3.5 45t-51.5 9l4 26l117 11l-62 -370q-5 -28 3 -35t51 -7zM398 -55q-10 -64 -51.5 -106t-93.5 -42q-39 0 -64 18.5t-20 47.5q7 37 42 37q17 0 24.5 -10.5t5.5 -25.5q-2 -13 -10.5 -21.5t-15 -11t-12.5 -3.5q21 -15 54 -15q69 0 89 128l68 405q6 36 -5 45.5
t-60 9.5l4 26l127 11z" />
    <glyph glyph-name="f_k" unicode="fk" horiz-adv-x="748" 
d="M725 0l-72 2q-68 0 -92 -2l4 26q31 0 34 21q2 11 -15 45l-76 150l-79 -63l-18 -110q-5 -30 4 -36.5t56 -6.5l-4 -26q-24 2 -94 2q-69 0 -93 -2l4 26q47 0 59 7t17 36l55 335h-198l-55 -335q-5 -30 4 -36.5t56 -6.5l-4 -26q-24 2 -94 2q-69 0 -93 -2l4 26q47 0 59 7t17 36
l55 335h-80l5 26h80l19 117q8 50 45 87t81.5 52.5t89.5 15.5q48 0 75 -15l34 7l-82 -490l175 138q24 19 28 39q3 21 -21 23l5 26q26 -2 97 -2l50 1q3 1 9 1l-5 -26q-58 -2 -128 -54l-92 -75q-1 -2 4 -11l95 -185q18 -34 31.5 -43.5t47.5 -9.5zM420 430l30 180q-18 8 -15 31
q4 18 17 26l7 7q2 12 -58 12q-57 0 -104 -37.5t-58 -101.5l-19 -117h200z" />
    <glyph glyph-name="f_f" unicode="ff" horiz-adv-x="525" 
d="M666 641q-3 -18 -15 -26t-25 -8t-22 8t-6 26q4 27 35 34q-14 11 -37 11q-34 0 -65.5 -37.5t-41.5 -97.5l-20 -121h116l-5 -26h-114l-55 -333q-6 -32 6.5 -38.5t69.5 -6.5l-4 -26q-27 2 -107 2q-72 0 -96 -2l4 26q47 0 59 7t17 36l55 335h-198l-55 -335q-5 -30 4 -36.5
t56 -6.5l-4 -26q-24 2 -94 2q-69 0 -93 -2l4 26q47 0 59 7t17 36l55 335h-80l5 26h80l19 117q13 75 79 115t135 40q70 0 93 -43q52 43 103 43q31 0 50.5 -16.5t15.5 -44.5zM473 661q-23 25 -74 25q-54 0 -101.5 -37.5t-58.5 -101.5l-19 -117h200l20 119q4 27 12 45
q-3 1 -6.5 3t-9 10t-3.5 20q5 32 40 34z" />
    <glyph glyph-name="f_i" unicode="fi" horiz-adv-x="499" 
d="M467 0q-24 2 -94 2q-69 0 -93 -2l4 26q47 0 59 7t17 36l47 282q5 33 -3 43t-40 10h-147l-55 -335q-5 -30 4 -36.5t56 -6.5l-4 -26q-24 2 -94 2q-69 0 -93 -2l4 26q47 0 59 7t17 36l55 335h-80l5 26h80l19 117q13 75 79 115t136 40q47 0 74.5 -26t20.5 -63q-3 -19 -15 -28
t-27 -9q-16 0 -24.5 9.5t-5.5 26.5q6 35 48 35q-18 39 -78 39q-51 0 -99.5 -36.5t-59.5 -102.5l-19 -117h114q14 0 20 1l118 8l-61 -370q-5 -30 4 -36.5t56 -6.5z" />
    <glyph glyph-name="f_l" unicode="fl" horiz-adv-x="499" 
d="M467 0q-24 2 -94 2q-69 0 -93 -2l4 26q47 0 59 7t17 36l55 335h-198l-55 -335q-5 -30 4 -36.5t56 -6.5l-4 -26q-24 2 -94 2q-69 0 -93 -2l4 26q47 0 59 7t17 36l55 335h-80l5 26h80l19 117q8 50 45 87t81.5 52.5t89.5 15.5q48 0 75 -15l34 7l-104 -625q-5 -30 4 -36.5
t56 -6.5zM420 430l30 180q-18 8 -15 31q4 18 17 26l7 7q2 12 -58 12q-57 0 -104 -37.5t-58 -101.5l-19 -117h200z" />
    <glyph glyph-name="f_f_i" unicode="&#xfb00;i" horiz-adv-x="749" 
d="M717 0q-24 2 -94 2q-69 0 -93 -2l4 26q47 0 59 7t17 36l47 282q5 33 -3 43t-40 10h-147l-55 -335q-5 -30 4 -36.5t56 -6.5l-4 -26q-24 2 -94 2q-69 0 -93 -2l4 26q47 0 59 7t17 36l55 335h-199l-55 -335q-5 -30 4 -36.5t56 -6.5l-4 -26q-24 2 -94 2q-69 0 -93 -2l4 26
q47 0 59 7t17 36l55 335h-80l5 26h80l19 117q13 75 79 115t135 40q39 0 62.5 -16.5t31.5 -39.5q69 56 157 56q47 0 74.5 -26t20.5 -63q-3 -19 -15 -28t-27 -9q-16 0 -24.5 9.5t-5.5 26.5q6 35 48 35q-18 39 -78 39q-51 0 -99.5 -36.5t-59.5 -102.5l-19 -117h114q14 0 20 1
l118 8l-61 -370q-5 -30 4 -36.5t56 -6.5zM476 647q-8 18 -29.5 28.5t-48.5 10.5q-52 0 -100 -36.5t-59 -102.5l-19 -117h201l19 117q4 21 7 30q-24 8 -20 35q6 35 49 35z" />
    <glyph glyph-name="f_f_l" unicode="ffl" horiz-adv-x="749" 
d="M717 0q-24 2 -94 2q-69 0 -93 -2l4 26q47 0 59 7t17 36l55 335h-198l-55 -335q-5 -30 4 -36.5t56 -6.5l-4 -26q-24 2 -94 2q-69 0 -93 -2l4 26q47 0 59 7t17 36l55 335h-199l-55 -335q-5 -30 4 -36.5t56 -6.5l-4 -26q-24 2 -94 2q-69 0 -93 -2l4 26q47 0 59 7t17 36
l55 335h-80l5 26h80l19 117q8 51 45.5 88t81.5 52t88 15q41 0 66 -15t31 -37q68 52 154 52q48 0 75 -15l34 7l-104 -625q-5 -30 4 -36.5t56 -6.5zM474 661q-24 25 -74 25q-55 0 -102.5 -37.5t-58.5 -101.5l-19 -117h201l19 117q5 28 15 47q-25 7 -21 33q5 31 40 34zM670 430
l30 180q-18 8 -15 31q4 18 17 26l7 7q2 12 -58 12q-57 0 -104 -37.5t-58 -101.5l-19 -117h200z" />
    <glyph glyph-name=".notdef" horiz-adv-x="280" 
 />
    <glyph glyph-name=".null" horiz-adv-x="0" 
 />
    <glyph glyph-name="nonmarkingreturn" horiz-adv-x="333" 
 />
    <glyph glyph-name="space" unicode=" " horiz-adv-x="302" 
 />
    <glyph glyph-name="exclam" unicode="!" horiz-adv-x="250" 
d="M278 670l-112 -483q-2 -8 -3 -11t-3.5 -5t-6.5 -2q-6 0 -7 3.5t0 12.5v2l50 483q3 20 17.5 30t29.5 10t26.5 -10t8.5 -30zM173 41q-3 -17 -17 -29t-31 -12t-27 12t-7 29t17 29t31 12t27 -12t7 -29z" />
    <glyph glyph-name="quotedbl" unicode="&#x22;" horiz-adv-x="322" 
d="M264 672l-60 -252h-18l24 252q2 11 11 19t21 8q11 0 18 -8t4 -19zM336 672l-60 -252h-18l24 252q2 11 11 19t21 8q11 0 18 -8t4 -19z" />
    <glyph glyph-name="numbersign" unicode="#" horiz-adv-x="772" 
d="M752 161q-3 -18 -37 -18h-206l-133 -316q-8 -22 -23 -22q-17 0 -15 18q1 3 7 18l128 302h-181l-133 -316q-8 -22 -23 -22q-17 0 -15 18q1 3 7 18l128 302h-152q-11 0 -16.5 0.5t-10.5 5t-4 12.5q3 17 33 17h166l58 143h-200q-10 0 -15 0.5t-9.5 4.5t-3.5 12q3 18 37 18
h206l133 316q8 22 23 22q17 0 15 -18q-1 -3 -7 -18l-128 -302h181l133 316q8 22 23 22q17 0 15 -18q-1 -3 -7 -18l-128 -302h152q11 0 16.5 -0.5t10.5 -5t4 -12.5q-2 -17 -32 -17h-166l-58 -143h200q10 0 15 -0.5t9 -4.5t3 -12zM547 321h-181l-58 -143h181z" />
    <glyph glyph-name="dollar" unicode="$" 
d="M444 191q-13 -77 -69.5 -134t-133.5 -64l-8 -48h-26l8 47q-79 4 -115.5 56.5t-23.5 129.5q6 41 43 41q13 0 23 -8.5t7 -27.5q-4 -18 -16 -27t-26 -9q-10 0 -16 3q1 -68 39 -98.5t89 -33.5l52 312q-34 10 -48 15t-31.5 16.5t-32.5 30.5q-39 54 -27 126t69 124.5t132 59.5
l8 47h26l-8 -47q84 -5 118.5 -54.5t22.5 -117.5q-6 -41 -42 -41q-14 0 -23.5 9.5t-6.5 26.5q3 19 16 27.5t26 8.5q8 0 14 -3q-4 111 -129 118l-48 -285q28 -7 42.5 -12t34.5 -18.5t34 -33.5q38 -56 26 -136zM283 399l46 276q-61 -6 -103 -47t-50 -90q-9 -54 23 -95
q24 -30 84 -44zM400 170q10 59 -22 106q-27 35 -82 47l-51 -304q60 6 103 51t52 100z" />
    <glyph glyph-name="percent" unicode="%" horiz-adv-x="772" 
d="M768 731q-1 -5 -11 -17l-602 -753q-12 -16 -21 -16q-7 0 -11.5 5t-3.5 13q0 4 12 19l546 684l-1 1q-68 -41 -142 -41q-78 0 -139 44q16 -48 3 -122q-14 -86 -60 -143.5t-97 -57.5q-54 0 -86 56.5t-18 144.5q15 88 66 144.5t105 56.5q33 0 61 -31q68 -76 167 -76
q115 0 194 92q17 15 24 15q17 0 14 -18zM749 146q-14 -86 -60 -143.5t-97 -57.5q-54 0 -86 56.5t-18 144.5q15 88 66 144.5t105 56.5q51 0 78 -57.5t12 -143.5zM380 548q13 78 -9.5 131.5t-64.5 53.5q-12 0 -26.5 -7t-33.5 -24.5t-36 -57t-26 -96.5q-9 -48 -6 -81t9 -53.5
t18 -31.5t21.5 -15t18.5 -4q42 0 82.5 53.5t52.5 131.5zM731 146q13 78 -9.5 131.5t-64.5 53.5q-12 0 -26.5 -7t-33.5 -24.5t-36 -57t-26 -96.5q-9 -48 -6.5 -81t8.5 -53.5t18 -31.5t21.5 -15t18.5 -4q42 0 83 53.5t53 131.5z" />
    <glyph glyph-name="ampersand" unicode="&#x26;" horiz-adv-x="720" 
d="M745 404q-53 -1 -92 -30q-13 -10 -78 -96q-85 -119 -147 -181q40 -56 71 -74q23 -13 47 -13q39 0 79 29t50 82h18q-12 -61 -56.5 -99t-99.5 -38q-36 0 -70 16t-47 28t-32 33q-93 -77 -187 -77q-71 0 -114 41.5t-33 102.5q9 47 49 86l148 144q-20 107 -5 201q11 69 54 110
t91 41q30 0 45.5 -22.5t15 -50t-2.5 -49.5q-10 -63 -147 -201q28 -134 117 -275q47 45 105 124q85 111 88 127q3 19 -12.5 30t-41.5 11l5 26q28 -2 105 -2q62 0 82 2zM431 589q2 9 2.5 23t-1 34.5t-12.5 34t-30 13.5q-29 0 -56 -28t-37 -88q-15 -91 2 -172q121 119 132 183z
M378 75q-83 118 -123 266l-74 -71q-47 -45 -58 -112q-9 -56 13.5 -102t78.5 -46q82 0 163 65z" />
    <glyph glyph-name="quotesingle" unicode="'" horiz-adv-x="250" 
d="M264 672l-60 -252h-18l24 252q2 11 11 19t21 8q11 0 18 -8t4 -19z" />
    <glyph glyph-name="parenleft" unicode="(" horiz-adv-x="354" 
d="M265 -244q0 -6 -8 -6q-7 0 -27 21.5t-45.5 65t-39.5 90.5q-43 143 -13 323q29 173 116 315q31 50 72.5 95t69 67t34.5 22q3 0 5 -1.5t1 -3.5l-3 -6q-25 -22 -43.5 -40.5t-53.5 -63.5t-60.5 -93t-52 -125.5t-41.5 -166.5q-13 -74 -15 -140t6 -115.5t18 -86.5t27.5 -68
t27 -45t23.5 -32z" />
    <glyph glyph-name="parenright" unicode=")" horiz-adv-x="354" 
d="M305 249q-29 -173 -117 -315q-30 -50 -72 -95t-69.5 -67t-34.5 -22t-6 6q2 3 3 5q26 23 44 40.5t53.5 63t61 93.5t52 125.5t41.5 166.5q12 74 14.5 139.5t-6 115t-18 86.5t-27.5 68.5t-27.5 45.5t-24.5 33l-1 5q1 6 8 6t27 -21.5t45.5 -65t39.5 -90.5q44 -145 14 -323z
" />
    <glyph glyph-name="asterisk" unicode="*" 
d="M475 438q-1 -8 -7.5 -14.5t-16.5 -6.5q-7 0 -17 9l-110 93l-17 -165l-1 -15q-4 -20 -24 -20q-18 0 -18 19l44 181l-155 -102q-27 0 -24 21q1 8 4.5 11t15.5 9l154 76l-128 75q-16 10 -14 21q5 21 25 21q7 0 16 -9l111 -93l18 181q1 7 7.5 13t15.5 6q18 0 18 -20l-43 -180
l155 102q6 0 10 -0.5t9.5 -6t3.5 -14.5q-1 -8 -4.5 -11t-15.5 -9l-154 -76l129 -75q15 -9 13 -21z" />
    <glyph glyph-name="plus" unicode="+" horiz-adv-x="720" 
d="M715 249q-3 -17 -34 -17h-265l-45 -265q-4 -31 -23 -31q-11 0 -13 10t1 21l45 265h-265q-10 0 -15 0.5t-9.5 5t-3.5 12.5q3 17 34 17h265l44 265q4 31 23 31q11 0 13 -10.5t-1 -20.5l-44 -265h265q10 0 15 -0.5t9.5 -5t3.5 -12.5z" />
    <glyph glyph-name="comma" unicode="," horiz-adv-x="250" 
d="M174 -13q-5 -31 -17.5 -61t-26 -51t-27.5 -37t-23 -24t-11 -8q-9 0 -7 8q1 4 6 9q75 73 90 165q3 16 3 28q-15 -16 -36 -16q-17 0 -27 11t-7 30t17 30t31 11q49 0 35 -95z" />
    <glyph glyph-name="hyphen" unicode="-" horiz-adv-x="302" 
d="M287 193h-251l8 44h251z" />
    <glyph glyph-name="period" unicode="." horiz-adv-x="250" 
d="M173 41q-3 -18 -17.5 -29.5t-30.5 -11.5t-26.5 11.5t-7.5 29.5t17.5 29.5t30.5 11.5t26.5 -11.5t7.5 -29.5z" />
    <glyph glyph-name="slash" unicode="/" 
d="M534 731q-1 -4 -8 -17l-481 -943q-10 -20 -24 -20q-17 0 -14 18q1 4 8 17l482 943q10 20 23 20q17 0 14 -18z" />
    <glyph glyph-name="zero" unicode="0" 
d="M474 321q-26 -148 -72 -223q-67 -114 -176 -114t-139 117q-19 81 5 220q27 165 85 246q65 94 162 94q43 0 78.5 -23t53.5 -72q30 -82 3 -245zM411 332q24 140 20 204q-3 56 -30.5 82.5t-63.5 26.5q-35 0 -73 -26.5t-60 -84.5q-23 -62 -47 -202q-23 -143 -22 -201
q1 -60 24.5 -95.5t69.5 -35.5q35 0 72.5 27.5t63.5 100.5q25 67 46 204z" />
    <glyph glyph-name="one" unicode="1" 
d="M384 0l-146 2l-146 -2l4 26h30q60 0 75.5 9t20.5 38l88 527q-55 -30 -128 -30q5 24 5 25q2 2 10 2q104 4 164 64q11 0 12.5 -3t-0.5 -19l-95 -566q-5 -29 7 -38t73 -9h30z" />
    <glyph glyph-name="two" unicode="2" 
d="M443 155l-50 -155h-352l4 23l236 225q129 124 146 227q11 69 -21 114.5t-96 45.5q-48 0 -91.5 -33t-67.5 -94q6 3 16 3q14 0 25.5 -9.5t8.5 -30.5q-4 -23 -19 -32t-28 -9q-8 0 -15.5 2.5t-14.5 13t-4 28.5q12 72 71 129.5t137 57.5q83 0 132.5 -50.5t35.5 -135.5
q-7 -46 -38 -91.5t-56.5 -69.5t-74.5 -64l-223 -192h192q86 0 92 8q15 18 37 89h18z" />
    <glyph glyph-name="three" unicode="3" 
d="M454 173q-13 -77 -79.5 -133t-148.5 -56q-80 0 -130 48t-38 116q7 45 50 45q17 0 27.5 -11t7.5 -31q-3 -19 -17 -30.5t-32 -11.5q-10 0 -14 2q10 -52 55 -77.5t93 -25.5q49 0 92.5 41.5t57.5 124.5q12 72 -12.5 119t-87.5 47h-49q-15 0 -18 1.5t-2 6.5q1 8 13 9
q2 0 15.5 1t16.5 1q24 2 35.5 4t31.5 12t37 28q46 48 59 122q6 34 -1 58t-22 35t-29.5 15.5t-30.5 4.5q-39 0 -84.5 -17.5t-71.5 -60.5q5 2 14 2q17 0 26.5 -10t5.5 -29q-3 -19 -15.5 -29t-29.5 -10q-14 0 -25 9t-7 32q10 59 66.5 97.5t126.5 38.5q69 0 113 -39t34 -96
q-11 -65 -63.5 -113.5t-114.5 -61.5q72 -9 114.5 -58t30.5 -120z" />
    <glyph glyph-name="four" unicode="4" 
d="M466 170h-102l-16 -98q-5 -29 4.5 -37.5t59.5 -8.5h19l-4 -26q-32 2 -120 2t-120 -2l4 26h19q50 0 62.5 8.5t17.5 37.5l16 98h-258l5 26l376 473q13 0 15 -3t0 -19l-75 -451h102zM314 196l64 385l-305 -385h241z" />
    <glyph glyph-name="five" unicode="5" 
d="M451 202q-16 -94 -87 -156t-151 -62q-76 0 -116 54.5t-29 123.5q8 42 45 42q16 0 25.5 -9.5t6.5 -28.5q-3 -21 -17 -29.5t-28 -8.5q-3 0 -15 3q4 -56 41.5 -89.5t88.5 -33.5q70 0 118 62q38 47 52 136q10 51 6.5 86t-11 56t-22 32.5t-26 15t-24.5 3.5q-82 0 -137 -64
q-8 -9 -14 -9q-7 0 -8 5t2 18l49 290q3 21 9 21q3 0 13 -5q54 -26 120 -26q63 0 130 27l12 4q6 0 4 -13q-25 -22 -43.5 -35t-59 -28.5t-83.5 -15.5q-52 0 -90 17l-38 -225q61 55 137 55q73 0 114 -61.5t26 -151.5z" />
    <glyph glyph-name="six" unicode="6" 
d="M454 205q-16 -97 -83 -159t-143 -62q-26 0 -49 8.5t-47 30t-36 59t-16 95.5t11 139q26 157 115.5 251t185.5 94q53 0 81.5 -26.5t21.5 -72.5q-7 -38 -43 -38q-13 0 -23 9t-7 27q6 35 52 35q-14 43 -85 43q-28 0 -58 -13t-63.5 -43t-61.5 -91.5t-42 -145.5l-6 -34
q58 110 149 110q77 0 120 -61.5t27 -154.5zM386 206q16 90 4 130q-21 69 -87 69q-63 0 -104.5 -55.5t-52.5 -120.5q-3 -22 -5.5 -38.5t-2 -54t8 -62.5t29 -45.5t56.5 -20.5q66 0 111 64q13 19 22 42.5t12 39.5t9 52z" />
    <glyph glyph-name="seven" unicode="7" 
d="M555 623l-172 -205q-93 -111 -131 -341l-8 -46q-7 -47 -44 -47q-36 0 -28 46q16 96 68 201.5t122 190.5l139 165h-220q-91 0 -98 -8q-14 -17 -37 -89h-18l60 187h18q1 -12 5 -17.5t31 -10t82 -4.5h235z" />
    <glyph glyph-name="eight" unicode="8" 
d="M452 163q-13 -76 -79.5 -127.5t-147.5 -51.5q-77 0 -128 46.5t-39 120.5q19 112 182 188q-59 47 -70 59q-37 44 -27 106q11 67 69 112t128 45q65 0 110.5 -39.5t34.5 -104.5q-16 -92 -153 -157q15 -13 28.5 -23.5t17.5 -13.5q25 -20 39.5 -34t28 -49t6.5 -77zM451 517
q8 50 -25.5 85.5t-91.5 35.5q-55 0 -100 -31t-52 -76q-4 -21 4 -41t16 -28.5t14 -13.5l93 -71l9 -6q6 0 33 16t60 52t40 78zM411 138q10 59 -45 105l-111 85q-59 -25 -104.5 -72.5t-55.5 -103.5q-10 -60 29 -102t107 -42q64 0 117.5 37.5t62.5 92.5z" />
    <glyph glyph-name="nine" unicode="9" 
d="M475 330q-26 -157 -112 -251.5t-178 -94.5q-57 0 -89.5 25t-24.5 74q7 38 42 38q13 0 23 -9t7 -27q-3 -19 -17 -28.5t-34 -6.5q18 -42 95 -42q67 0 128 69t86 219l7 39q-11 -22 -27 -44t-50.5 -44.5t-72.5 -22.5q-77 0 -119.5 61.5t-27.5 154.5q17 97 85.5 159t145.5 62
q25 0 47.5 -8t45.5 -29.5t35 -58.5t16.5 -95t-11.5 -140zM420 417q33 221 -82 221q-60 0 -107 -55q-24 -30 -33.5 -60t-18.5 -84q-16 -96 -1 -134q23 -65 85 -65q64 0 105 56t52 121z" />
    <glyph glyph-name="colon" unicode=":" horiz-adv-x="250" 
d="M231 389q-3 -18 -17.5 -29.5t-30.5 -11.5t-26.5 11.5t-7.5 29.5t17.5 29.5t30.5 11.5t26.5 -11.5t7.5 -29.5zM173 41q-3 -18 -17.5 -29.5t-30.5 -11.5t-26.5 11.5t-7.5 29.5t17.5 29.5t30.5 11.5t26.5 -11.5t7.5 -29.5z" />
    <glyph glyph-name="semicolon" unicode=";" horiz-adv-x="250" 
d="M231 389q-3 -18 -17.5 -29.5t-30.5 -11.5t-26.5 11.5t-7.5 29.5t17.5 29.5t30.5 11.5t26.5 -11.5t7.5 -29.5zM167 -9q-9 -52 -32.5 -98t-42.5 -66.5t-23 -20.5q-9 0 -7 9q1 3 8 10q66 75 81 164l4 21q-11 -10 -30 -10q-17 0 -27 11t-7 30t17 30t31 11q44 0 28 -91z" />
    <glyph glyph-name="less" unicode="&#x3c;" horiz-adv-x="762" 
d="M677 -9q-2 -19 -22 -19q-4 1 -16 7l-499 249q-18 9 -16 22q2 12 23 21l583 249l18 7q19 0 16 -19q-2 -12 -24 -21l-554 -238l475 -237q18 -9 16 -21z" />
    <glyph glyph-name="equal" unicode="=" horiz-adv-x="720" 
d="M729 338q-2 -17 -32 -17h-567q-10 0 -15 0.5t-9.5 4.5t-3.5 12q3 18 37 18h559q11 0 16.5 -0.5t10.5 -5t4 -12.5zM700 161q-3 -18 -37 -18h-559q-11 0 -16.5 0.5t-10.5 5t-4 12.5q3 17 33 17h567q10 0 15 -0.5t9 -4.5t3 -12z" />
    <glyph glyph-name="greater" unicode="&#x3e;" horiz-adv-x="762" 
d="M721 250q-2 -12 -24 -22l-583 -249l-18 -7q-8 0 -12.5 5.5t-3.5 12.5q2 13 24 22l555 238l-475 237q-19 10 -17 22q1 7 7.5 12.5t14.5 5.5q4 -1 16 -7l499 -249q19 -9 17 -21z" />
    <glyph glyph-name="question" unicode="?" horiz-adv-x="433" 
d="M479 564q-10 -64 -71 -105q-64 -44 -106 -104.5t-53 -129.5l-6 -35q-2 -14 -4.5 -17.5t-8.5 -3.5t-7 4t2 17l6 39q10 61 42.5 124.5t87.5 113.5q15 13 22.5 22t17.5 30.5t15 49.5q3 16 3.5 27t-2.5 29.5t-12.5 30.5t-31.5 21t-55 9q-44 0 -85 -22t-63 -66q6 2 12 2
q14 0 23.5 -9.5t6.5 -26.5q-3 -19 -16.5 -27.5t-25.5 -8.5q-5 0 -11 1t-13.5 11t-4.5 27q9 53 60 94t122 41q86 0 126.5 -37.5t29.5 -100.5zM250 41q-3 -17 -17 -29t-31 -12t-27 12t-7 29t17 29t31 12t27 -12t7 -29z" />
    <glyph glyph-name="at" unicode="@" horiz-adv-x="720" 
d="M729 334q-8 -46 -16.5 -78t-23 -63t-36.5 -46.5t-52 -15.5q-33 0 -55.5 21.5t-16.5 60.5q-24 -31 -63 -56.5t-85 -25.5q-74 0 -120 61.5t-31 154.5t81.5 154.5t141.5 61.5q79 0 119 -78l6 -8h28q15 0 17 -3t0 -17l-40 -242q-13 -68 25 -68q25 0 43.5 16.5t30 48.5
t17 56.5t11.5 61.5q27 163 -46 260q-75 96 -191 96q-120 0 -223.5 -99t-127.5 -240q-23 -137 45.5 -238t197.5 -101t274 63q5 3 24 3q20 -2 20 -6q-1 -5 -44.5 -23t-122.5 -35.5t-152 -17.5q-137 0 -210.5 104.5t-49.5 250.5q25 151 135 253t238 102q54 0 104 -23
t89.5 -66.5t56.5 -116t2 -162.5zM539 271l26 152q7 43 -30 85q-36 39 -84 39q-56 0 -105.5 -58.5t-62.5 -141.5q-14 -83 16 -141.5t86 -58.5q34 0 70 21t65 62q16 21 19 41z" />
    <glyph glyph-name="A" unicode="A" horiz-adv-x="693" 
d="M669 0q-24 2 -100 2q-83 0 -112 -2l4 26q62 0 67 27q1 5 -2 18l-32 170h-262l-78 -149q-5 -9 -7 -20q-1 -8 0.5 -17t13 -18.5t32.5 -10.5l-4 -26q-24 2 -89 2q-59 0 -77 -2l4 26q71 0 105 65l312 600q9 16 20 16q7 0 9.5 -3t4.5 -13l118 -628q4 -26 18.5 -31.5t58.5 -5.5
zM490 267l-65 344l-179 -344h244z" />
    <glyph glyph-name="B" unicode="B" horiz-adv-x="654" 
d="M637 182q-12 -72 -80.5 -127t-160.5 -55h-344l4 26q54 0 68 6.5t20 38.5l90 541q6 32 -6 38.5t-66 6.5l4 26h318q93 0 143.5 -51t39.5 -117q-10 -57 -62.5 -101t-127.5 -58q79 -5 125 -55.5t35 -118.5zM594 515q9 54 -21 98t-98 44h-128q-29 0 -36.5 -6.5t-12.5 -32.5
l-42 -255h144q77 0 130.5 45.5t63.5 106.5zM564 183q10 62 -22 113t-104 51h-185l-47 -282q-5 -26 0.5 -32.5t34.5 -6.5h130q76 0 129 48.5t64 108.5z" />
    <glyph glyph-name="C" unicode="C" horiz-adv-x="668" 
d="M660 234q-15 -93 -98.5 -171.5t-191.5 -78.5q-132 0 -212.5 102.5t-54.5 255.5q25 151 140 254t246 103q109 0 169 -98l58 84q10 13 14 13q5 0 5.5 -3t-1.5 -16l-39 -237q-2 -14 -4.5 -17t-10.5 -3q-6 0 -7 1.5t-1 9.5v3q3 106 -44 171.5t-131 65.5q-32 0 -66.5 -9
t-74.5 -33t-74 -59.5t-62 -95t-41 -134.5q-15 -92 0 -160.5t51.5 -104t76.5 -51.5t82 -16q84 0 157 62t96 164q7 11 11 12q10 0 7 -14z" />
    <glyph glyph-name="D" unicode="D" horiz-adv-x="707" 
d="M716 336q-23 -141 -124 -238.5t-222 -97.5h-318l4 26q54 0 68 6.5t20 38.5l90 541q6 32 -6 38.5t-66 6.5l4 26h318q121 0 188.5 -102t43.5 -245zM642 336q9 68 8 118t-16.5 86t-34.5 58.5t-45 35.5t-48.5 18t-45.5 5h-112q-29 0 -36.5 -6.5t-12.5 -32.5l-92 -553
q-5 -26 0.5 -32.5t34.5 -6.5h112q109 0 191 85q75 88 97 225z" />
    <glyph glyph-name="E" unicode="E" horiz-adv-x="628" 
d="M649 253l-78 -253h-520l4 26q55 0 68.5 6.5t19.5 38.5l90 539q5 32 -7 38.5t-66 6.5l5 26h506l-13 -221h-18q4 50 1 86.5t-17.5 60.5t-48 36t-90.5 12h-137q-29 0 -36.5 -6.5t-11.5 -32.5l-42 -249h94q66 0 89 24.5t34 92.5h18l-44 -260h-18q7 41 5.5 67t-22 38t-66.5 12
h-94l-46 -276q-5 -26 0.5 -32.5t34.5 -6.5h139q33 0 59.5 3t47.5 12t37 17.5t29.5 26.5t22.5 31t19.5 40t16.5 45t17 52h18z" />
    <glyph glyph-name="F" unicode="F" horiz-adv-x="602" 
d="M645 460h-18q4 50 1.5 86.5t-16.5 60.5t-46.5 36t-88.5 12h-129q-29 0 -36.5 -6.5t-11.5 -32.5l-44 -262h90q66 0 88.5 24.5t33.5 92.5h18l-44 -260h-18q11 68 -2.5 92.5t-79.5 24.5h-90l-43 -256q-5 -29 5.5 -37.5t64.5 -8.5h22l-4 -26q-41 2 -130 2q-87 0 -116 -2l4 26
q55 0 68.5 6.5t19.5 38.5l90 539q5 32 -7 38.5t-66 6.5l5 26h493z" />
    <glyph glyph-name="G" unicode="G" horiz-adv-x="726" 
d="M726 242q-45 0 -56 -7t-16 -36l-30 -179q-3 -19 -9 -19q-3 0 -10 8.5t-15 25t-13 35.5q-30 -41 -86.5 -63.5t-119.5 -22.5q-134 0 -213.5 103t-54.5 255q25 151 140 254t246 103q109 0 169 -98l58 84q10 13 14 13q5 0 5.5 -3t-1.5 -16l-39 -237q-2 -14 -4.5 -17t-10.5 -3
q-6 0 -7 1.5t-1 9.5v3q3 106 -44 171.5t-131 65.5q-32 0 -66.5 -9t-74.5 -33t-74 -59.5t-62 -95t-41 -134.5q-15 -92 1 -161t53.5 -104t78.5 -51t84 -16q18 0 40 3.5t54 14t56 37t31 64.5l11 66q5 29 -7.5 38t-73.5 9h-30l5 26l143 -2q81 0 106 2z" />
    <glyph glyph-name="H" unicode="H" horiz-adv-x="693" 
d="M641 0q-29 2 -113 2t-113 -2l4 26q55 0 68.5 6.5t19.5 38.5l45 271h-298l-45 -271q-6 -32 5.5 -38.5t66.5 -6.5l-4 -26q-29 2 -113 2t-113 -2l4 26q55 0 68.5 6.5t19.5 38.5l90 541q6 32 -5.5 38.5t-66.5 6.5l4 26q29 -2 113 -2t113 2l-4 -26q-55 0 -68.5 -6.5
t-19.5 -38.5l-41 -244h298l41 244q6 32 -5.5 38.5t-66.5 6.5l4 26q29 -2 113 -2t113 2l-4 -26q-55 0 -68.5 -6.5t-19.5 -38.5l-90 -541q-6 -32 5.5 -38.5t66.5 -6.5z" />
    <glyph glyph-name="I" unicode="I" horiz-adv-x="328" 
d="M281 0q-32 2 -117 2t-117 -2l4 26q57 0 71.5 6.5t20.5 38.5l90 541q6 32 -6.5 38.5t-69.5 6.5l4 26q32 -2 117 -2t117 2l-4 -26q-57 0 -71.5 -6.5t-20.5 -38.5l-90 -541q-6 -32 6.5 -38.5t69.5 -6.5z" />
    <glyph glyph-name="J" unicode="J" horiz-adv-x="471" 
d="M529 657q-20 0 -29 -0.5t-19 -5t-14 -13.5q-2 -3 -10 -51l-70 -420q-7 -39 -8 -43q-19 -62 -72.5 -101t-113.5 -39t-94.5 38.5t-26.5 89.5q8 44 50 44q19 0 28.5 -12t6.5 -30q-3 -21 -18.5 -32t-31.5 -11q-5 0 -13 2q11 -40 41.5 -56.5t58.5 -16.5q40 0 77.5 40.5
t48.5 106.5l77 463q5 29 -6 38t-66 9h-24l4 26q42 -2 130 -2l98 2z" />
    <glyph glyph-name="K" unicode="K" horiz-adv-x="719" 
d="M685 0q-23 2 -88 2q-79 0 -111 -2l4 26q41 0 46 26q1 14 -8 33l-140 290l-150 -127l-29 -177q-6 -32 5.5 -38.5t66.5 -6.5l-4 -26q-29 2 -113 2t-113 -2l4 26q55 0 68.5 6.5t19.5 38.5l90 541q6 32 -5.5 38.5t-66.5 6.5l4 26q29 -2 113 -2t113 2l-4 -26q-55 0 -68.5 -6.5
t-19.5 -38.5l-56 -339l387 333q10 12 12 24q4 25 -25 27l4 26q26 -2 100 -2l65 2l-4 -26q-66 -2 -141 -65l-202 -173l166 -341q16 -34 31.5 -43t52.5 -9z" />
    <glyph glyph-name="L" unicode="L" horiz-adv-x="576" 
d="M584 253l-66 -253h-467l4 26q55 0 68.5 6.5t19.5 38.5l90 541q6 32 -5.5 38.5t-66.5 6.5l4 26q29 -2 116 -2q89 0 130 2l-4 -26h-22q-54 0 -67.5 -8.5t-18.5 -37.5l-91 -546q-5 -26 0.5 -32.5t34.5 -6.5h93q41 0 74.5 9t56.5 28.5t39 38.5t28 49t18 50t14 52h18z" />
    <glyph glyph-name="M" unicode="M" horiz-adv-x="850" 
d="M796 0q-27 2 -111 2q-83 0 -110 -2l4 26q55 0 68.5 6.5t19.5 38.5l98 587h-1l-344 -642q-10 -16 -17 -16q-8 0 -11 16l-129 637h-1l-93 -555q-2 -14 -2 -22.5t4.5 -22t21 -20.5t44.5 -7l-4 -26q-23 2 -90 2t-90 -2l4 26q28 0 47 7t28 20.5t12 22t5 22.5l86 514
q6 32 -5.5 38.5t-66.5 6.5l4 26h128q16 0 19.5 -2.5t5.5 -13.5l119 -586l313 586q7 11 11 13.5t20 2.5h127l-4 -26q-54 0 -68 -6.5t-20 -38.5l-90 -541q-6 -32 6 -38.5t66 -6.5z" />
    <glyph glyph-name="N" unicode="N" horiz-adv-x="693" 
d="M751 657q-28 0 -47 -7t-28 -20.5t-12 -22t-5 -22.5l-94 -563q-2 -15 -4.5 -18.5t-9.5 -3.5q-8 0 -13 12l-270 607q-7 14 -11 18l-90 -539q-2 -14 -2 -22.5t4.5 -22t21 -20.5t44.5 -7l-4 -26q-23 2 -90 2t-90 -2l4 26q28 0 47 7t28 20.5t12 22t5 22.5l93 553q-18 6 -60 6
h-19l4 26h127q14 0 17.5 -2t7.5 -10l244 -549l78 463q2 14 2 22.5t-4.5 22t-21 20.5t-44.5 7l4 26q23 -2 90 -2t90 2z" />
    <glyph glyph-name="O" unicode="O" horiz-adv-x="720" 
d="M730 340q-25 -149 -135 -252.5t-239 -103.5q-127 0 -202.5 103t-50.5 253q25 151 135 255t239 104q127 0 202.5 -104t50.5 -255zM656 353q13 87 3 149.5t-40 102t-67 58t-79 18.5q-40 0 -83 -19t-85.5 -56t-76 -103t-47.5 -150q-28 -166 28.5 -258.5t150.5 -92.5
q93 0 180.5 91.5t115.5 259.5z" />
    <glyph glyph-name="P" unicode="P" horiz-adv-x="628" 
d="M664 500q-11 -73 -84 -126t-168 -53h-160l-42 -250q-6 -32 6 -38.5t66 -6.5l-4 -26q-29 2 -113 2t-113 -2l4 26q54 0 68 6.5t20 38.5l90 541q6 32 -6 38.5t-66 6.5l4 26h306q96 0 150 -55t42 -128zM588 500q26 157 -139 157h-101q-29 0 -36.5 -6.5t-12.5 -32.5l-46 -276
h143q166 0 192 158z" />
    <glyph glyph-name="Q" unicode="Q" horiz-adv-x="720" 
d="M676 -11q-3 -15 -6.5 -30.5t-15 -45.5t-26 -52t-39.5 -39t-55 -17q-31 0 -49 13.5t-24.5 38.5t-8 61t0.5 82q-49 -16 -96 -16q-129 0 -204 103.5t-50 252.5q25 151 135 255t239 104q127 0 202.5 -104t50.5 -255q-19 -112 -89 -202t-166 -129q5 -65 20.5 -96.5t56.5 -31.5
q32 0 64.5 26t47.5 90q3 9 8 9q7 0 4 -17zM656 340q27 163 -31 252t-152 89q-42 0 -86.5 -20.5t-87 -60t-75.5 -107.5t-47 -153q-22 -134 15.5 -219t115.5 -111q-16 24 -11 55t29.5 55.5t58.5 24.5q43 0 61 -30.5t25 -80.5q64 37 115 113t70 193zM453 25q0 29 -3.5 49
t-20 37.5t-46.5 17.5q-27 0 -46.5 -19.5t-23.5 -44.5q-4 -22 6.5 -42.5t40.5 -20.5q46 0 93 23z" />
    <glyph glyph-name="R" unicode="R" horiz-adv-x="680" 
d="M696 84q-2 -10 -7.5 -23.5t-16.5 -32.5t-31.5 -31.5t-46.5 -12.5q-69 0 -103 45q-17 23 -17.5 55t9.5 80q11 49 8.5 78t-25.5 56q-33 36 -97 36h-117l-44 -263q-6 -32 6 -38.5t66 -6.5l-4 -26q-29 2 -112 2t-112 -2l4 26q54 0 68 6.5t20 38.5l90 541q6 32 -6 38.5
t-66 6.5l4 26h269q103 0 165.5 -53.5t50.5 -125.5q-9 -58 -67.5 -103t-134.5 -60q40 -13 64.5 -33t32 -41t10.5 -44t-1 -41q-2 -44 -2 -58q-2 -32 -2 -47t3 -36.5t14 -31t31 -9.5q26 0 47.5 20.5t32.5 66.5q0 10 10 10q9 0 7 -13zM575 504q14 84 -32.5 118.5t-121.5 34.5
h-73q-29 0 -36.5 -6.5t-12.5 -32.5l-45 -268h114q32 0 61.5 6.5t61.5 22t54.5 47.5t29.5 78z" />
    <glyph glyph-name="S" unicode="S" horiz-adv-x="511" 
d="M494 181q-13 -81 -76 -139t-143 -58q-47 0 -94.5 18t-73.5 62q-25 -36 -27 -43q-16 -25 -20.5 -30.5t-9.5 -5.5q-4 0 -4.5 2.5t1.5 16.5l33 202q3 15 5 18t8 3q4 0 5 -1t1.5 -4.5t-0.5 -11.5q-11 -99 41.5 -149.5t139.5 -50.5q62 0 107.5 45.5t55.5 103.5q7 44 -9.5 83.5
t-54.5 56.5q-8 3 -86 25q-48 13 -66 19t-38.5 20t-34.5 36q-33 51 -22 117q13 76 75.5 129.5t139.5 53.5q103 0 145 -80l41 66q9 13 14 13t5.5 -3t-1.5 -16l-34 -203q-2 -13 -3.5 -16.5t-8.5 -3.5q-5 0 -6.5 3t-1.5 16q5 95 -34.5 147.5t-118.5 52.5q-61 0 -106 -42t-54 -94
q-8 -54 22 -95q15 -19 33 -28t61 -20q58 -15 62 -17q30 -8 46 -14t38 -25t37 -49q22 -49 11 -110z" />
    <glyph glyph-name="T" unicode="T" horiz-adv-x="668" 
d="M716 459h-18q7 49 4.5 84t-7 56.5t-24 33.5t-47 16.5t-75.5 4.5q-47 0 -55 -1q-13 -3 -17 -11t-7 -27l-91 -542q-5 -29 7 -38t71 -9h28l-4 -26l-147 2l-147 -2l4 26h28q59 0 74 9t20 38l91 542q2 15 2 20.5t-3 11t-12 6.5q-8 1 -55 1q-48 0 -77.5 -5t-51.5 -15
t-36.5 -35.5t-24.5 -55t-23 -84.5h-18l53 221h577z" />
    <glyph glyph-name="U" unicode="U" horiz-adv-x="693" 
d="M751 657q-80 0 -91 -62l-63 -380q-13 -82 -83 -156.5t-161 -74.5q-90 0 -146 70t-38 175l64 383q6 32 -5.5 38.5t-66.5 6.5l4 26q29 -2 113 -2t113 2l-4 -26q-55 0 -68.5 -6.5t-19.5 -38.5l-65 -388q-13 -94 12 -145q16 -32 46 -50.5t68 -18.5q74 0 138 61t80 158l60 356
q2 14 2 22.5t-4.5 22t-21 20.5t-44.5 7l4 26q23 -2 91 -2q67 0 90 2z" />
    <glyph glyph-name="V" unicode="V" horiz-adv-x="693" 
d="M792 657q-68 -1 -103 -66l-326 -591q-5 -11 -8.5 -13.5t-11.5 -2.5t-10 2.5t-4 13.5l-134 621q-5 24 -18 30t-57 6l4 26q24 -2 97 -2q80 0 112 2l-4 -26q-61 0 -66 -27q-1 -6 2 -17l116 -539l283 513q8 17 10 26q1 7 0.5 14t-11.5 18t-33 12l4 26q23 -2 88 -2q51 0 74 2z
" />
    <glyph glyph-name="W" unicode="W" horiz-adv-x="955" 
d="M1055 657q-63 -2 -93 -64l-286 -592q-5 -12 -7.5 -14.5t-9.5 -2.5q-6 0 -8.5 3t-3.5 13l-80 542l-260 -542q-7 -16 -18 -16q-6 0 -7 2t-3 10q-1 3 -1 5l-92 618q-3 25 -13.5 31.5t-53.5 6.5l4 26q24 -2 94 -2q81 0 110 2l-4 -26q-64 0 -69 -28q-1 -4 2 -18l76 -519
l225 467q5 7 5 13q1 2 -3 29.5t-6 34.5q-5 13 -17 17t-47 4l4 26q23 -2 93 -2q81 0 110 2l-4 -26q-63 0 -68 -28q-1 -2 1 -18l76 -520l238 494q7 16 8 22q3 20 -10.5 34.5t-44.5 15.5l4 26q24 -2 93 -2l70 2z" />
    <glyph glyph-name="X" unicode="X" horiz-adv-x="693" 
d="M679 0q-24 2 -100 2q-82 0 -114 -2l4 26q24 1 36 10t13 17q0 8 -5 17l-132 254l-199 -232q-12 -14 -14 -27q-3 -14 4.5 -25.5t28.5 -13.5l-4 -26q-25 2 -99 2q-62 0 -85 -2l4 26q84 0 138 63l216 253l-146 282q-12 22 -28.5 27.5t-60.5 5.5l4 26q24 -2 100 -2q82 0 114 2
l-4 -26q-23 -1 -35 -9.5t-14 -17.5q0 -6 5 -17l112 -216l164 191q15 16 17 30q7 35 -33 39l4 26q25 -2 99 -2q62 0 85 2l-4 -26q-83 -1 -138 -65l-184 -213l167 -320q11 -21 26 -27t62 -6z" />
    <glyph glyph-name="Y" unicode="Y" horiz-adv-x="693" 
d="M800 657q-72 0 -122 -63l-254 -321l-33 -198q-7 -36 4.5 -42.5t67.5 -6.5l-4 -26q-29 2 -113 2q-83 0 -112 -2l4 26q54 0 68 6.5t20 38.5l34 202l-163 352q-9 21 -25 26.5t-60 5.5l4 26q24 -2 100 -2q82 0 114 2l-4 -26q-49 0 -53 -20q-1 -6 5 -20l144 -315l229 289
q16 21 18 33q5 31 -32 33l4 26q24 -2 89 -2q51 0 74 2z" />
    <glyph glyph-name="Z" unicode="Z" horiz-adv-x="563" 
d="M565 261l-58 -261h-439q-11 0 -14.5 0.5t-6 3.5t0.5 9q1 7 10 19l492 625h-165q-112 0 -161 -49t-70 -146h-18l47 221h425q16 0 18.5 -3t0.5 -17l-500 -635h174q40 0 72 7t54.5 16t41 28.5t29 34t21 44.5t15 48t13.5 55h18z" />
    <glyph glyph-name="bracketleft" unicode="[" horiz-adv-x="250" 
d="M193 -249h-129l167 998h129l-6 -35h-94l-155 -928h94z" />
    <glyph glyph-name="backslash" unicode="\" horiz-adv-x="500" 
d="M405 -230q-4 -20 -24 -20q-14 0 -18 22l-183 940l-2 18q4 20 23 20q14 0 18 -22l184 -940z" />
    <glyph glyph-name="bracketright" unicode="]" horiz-adv-x="250" 
d="M101 -249h-129l6 35h94l155 928h-94l6 35h129z" />
    <glyph glyph-name="asciicircum" unicode="^" horiz-adv-x="556" 
d="M658 584l-15 -22l-252 123l-291 -123l-8 22l310 160z" />
    <glyph glyph-name="underscore" unicode="_" horiz-adv-x="693" 
d="M671 -134h-693l3 18h693z" />
    <glyph glyph-name="grave" unicode="`" 
d="M374 524l-13 -12l-124 133q-13 13 -11 24q1 11 10.5 19t20.5 8q12 0 23 -17l89 -144z" />
    <glyph glyph-name="a" unicode="a" 
d="M464 89q-6 -36 -25 -58.5t-35 -28.5t-30 -6q-32 0 -48 24.5t-12 59.5q-23 -42 -61.5 -65t-80.5 -23q-31 0 -60 8t-51 31.5t-16 59.5q14 79 102 123q73 36 192 40l8 44q10 59 -16.5 93.5t-67.5 34.5q-32 0 -67 -19t-56 -62q6 2 12 2q14 0 23.5 -9.5t6.5 -26.5
q-3 -19 -16 -27.5t-26 -8.5q-6 0 -12.5 1.5t-13.5 11t-4 26.5q8 51 54 89.5t104 38.5q65 0 107 -43q24 -27 26.5 -60t-8.5 -80l-24 -144q-9 -33 -5.5 -64.5t30.5 -31.5q9 0 17.5 4t19 20.5t15.5 44.5l9 57h18zM320 139l17 100q-87 -5 -141 -33q-77 -39 -90 -115
q-5 -35 16.5 -59t58.5 -24q46 0 87.5 35t51.5 96z" />
    <glyph glyph-name="b" unicode="b" horiz-adv-x="511" 
d="M513 216q-17 -98 -88 -161t-150 -63q-82 0 -117 79l-41 -71h-18l101 603q6 36 -4 45t-55 9l4 26l121 11l-55 -328q68 72 148 72q77 0 123 -64t31 -158zM449 217q6 47 6 80.5t-11 56.5t-21.5 36.5t-26.5 20.5t-26 9t-20 2q-71 0 -124 -65q-9 -11 -13 -17t-5 -10t-3 -15
l-33 -198q-4 -21 4 -39q27 -70 96 -70q11 0 24.5 2.5t38 14.5t45 32.5t40.5 62t29 97.5z" />
    <glyph glyph-name="c" unicode="c" horiz-adv-x="406" 
d="M404 118q-1 -7 -11.5 -24.5t-30 -42t-55.5 -42t-79 -17.5q-79 0 -127 63.5t-32 160.5q16 95 85 160.5t149 65.5q59 0 96 -36.5t28 -88.5q-7 -38 -42 -38q-13 0 -23 8.5t-7 27.5q2 16 12 24.5t18 9.5t22 1q-8 38 -39.5 56t-66.5 18q-52 0 -101 -51.5t-67 -155.5
q-17 -102 17.5 -154.5t89.5 -52.5q93 0 143 101q3 7 5 9.5t3.5 3.5t5.5 1q7 0 7 -7z" />
    <glyph glyph-name="d" unicode="d" horiz-adv-x="511" 
d="M479 0l-122 -8l12 73q-63 -73 -146 -73q-76 0 -123 64t-31 159q16 96 87.5 159.5t150.5 63.5q17 0 32 -3.5t26 -9.5t20 -12.5t15.5 -14t11 -13.5t7.5 -11l3 -5l39 234q6 36 -4 45t-55 9l4 26l121 11l-103 -614q-6 -36 4 -45t55 -9zM378 120l33 198q4 22 -6 42
q-29 62 -96 62q-12 0 -25.5 -2.5t-38 -14.5t-44.5 -32.5t-39.5 -62t-28.5 -96.5q-8 -41 -6 -71.5t6.5 -52.5t15.5 -37t21 -24t23 -13.5t21.5 -6t16.5 -1.5q47 0 93 35q47 35 54 77z" />
    <glyph glyph-name="e" unicode="e" horiz-adv-x="406" 
d="M427 251q-2 -12 -7 -16h-290q-18 -104 5 -157q31 -68 102 -68q41 0 81.5 26.5t64.5 75.5q3 5 4 7t2.5 4t3 2.5t4.5 0.5h2t3 -2t2 -5q-6 -30 -55.5 -78.5t-121.5 -48.5q-81 0 -130 65t-34 161q16 93 82.5 158.5t145.5 65.5q81 0 115.5 -54.5t20.5 -136.5zM373 250
q13 83 -10.5 129.5t-75.5 46.5q-41 0 -86.5 -40.5t-66.5 -135.5h239z" />
    <glyph glyph-name="f" unicode="f" horiz-adv-x="276" 
d="M420 641q-3 -18 -15 -26t-25 -8t-22 8t-6 26q4 27 35 34q-14 11 -37 11q-34 0 -65.5 -37.5t-41.5 -97.5l-20 -121h116l-5 -26h-114l-55 -333q-6 -32 6.5 -38.5t69.5 -6.5l-4 -26q-27 2 -107 2q-72 0 -96 -2l4 26q47 0 59 7t17 36l55 335h-80l5 26h80l20 119q12 73 61 113
t99 40q31 0 50.5 -16.5t15.5 -44.5z" />
    <glyph glyph-name="g" unicode="g" 
d="M519 407q-4 -23 -27 -23q-21 0 -18 22q2 18 16 21q-4 3 -14 3q-55 0 -99 -40q31 -38 22 -97q-10 -61 -60.5 -103t-110.5 -42q-51 0 -87 32q-21 -20 -28 -53q-4 -26 7 -45t34 -23q5 -1 69 -1q43 0 69.5 -2.5t66.5 -14t57 -41.5t9 -78q-10 -55 -77.5 -90.5t-152.5 -35.5
q-87 0 -142 36t-46 89q6 36 37 64.5t73 38.5q-39 27 -30 85q9 47 44 81q-37 41 -26 103q10 61 60.5 103t110.5 42q56 0 92 -37q55 45 110 45q23 0 33 -11.5t8 -27.5zM340 293q19 128 -67 128q-31 0 -53.5 -16t-33.5 -41.5t-15.5 -40.5t-6.5 -30q-19 -128 67 -128
q31 0 53.5 16t33.5 41.5t15.5 40.5t6.5 30zM385 -79q4 22 -1.5 39t-21 26.5t-30.5 15.5t-42 8.5t-42.5 3t-43.5 0.5q-54 0 -70 -2.5t-36 -14.5q-43 -29 -51 -76q-7 -43 35.5 -75.5t115.5 -32.5t126.5 32.5t60.5 75.5z" />
    <glyph glyph-name="h" unicode="h" horiz-adv-x="511" 
d="M483 0q-24 2 -95 2q-70 0 -94 -2l4 26q47 0 59 7t17 36l39 239q19 114 -63 114q-53 0 -97 -46t-55 -115l-32 -192q-5 -30 4 -36.5t56 -6.5l-4 -26q-24 2 -95 2q-70 0 -94 -2l4 26q47 0 59 7t17 36l89 534q6 36 -4 45t-55 9l4 26l121 11l-59 -355h1q18 35 57 67t93 32
q127 0 106 -134l-39 -235q-5 -30 4 -36.5t56 -6.5z" />
    <glyph glyph-name="i" unicode="i" horiz-adv-x="250" 
d="M214 0q-23 2 -88 2q-68 0 -92 -2l4 26q47 0 59 7t17 36l46 278q6 36 -3.5 45t-51.5 9l4 26l117 11l-62 -370q-5 -28 3 -35t51 -7zM266 604q-3 -17 -16.5 -29t-31.5 -12q-16 0 -26 11.5t-7 29.5q2 17 16 29t32 12q16 0 26 -11.5t7 -29.5z" />
    <glyph glyph-name="j" unicode="j" horiz-adv-x="276" 
d="M173 -55q-10 -64 -51.5 -106t-93.5 -42q-39 0 -64 18.5t-20 47.5q7 37 42 37q17 0 24.5 -10.5t5.5 -25.5q-2 -13 -10.5 -21.5t-15 -11t-12.5 -3.5q21 -15 54 -15q69 0 89 128l68 405q6 36 -5 45.5t-60 9.5l4 26l127 11zM283 604q-3 -17 -16.5 -29t-31.5 -12
q-16 0 -26 11.5t-7 29.5q2 17 16 29t32 12q16 0 26 -11.5t7 -29.5z" />
    <glyph glyph-name="k" unicode="k" horiz-adv-x="485" 
d="M475 0l-72 2q-68 0 -92 -2l4 26q31 0 34 21q2 11 -15 45l-76 150l-79 -63l-18 -110q-5 -30 4 -36.5t56 -6.5l-4 -26q-24 2 -93 2t-93 -2l4 26q47 0 59 7t17 36l89 534q6 36 -4 45t-55 9l4 26l121 11l-82 -490l174 138q24 19 28 39q3 21 -21 23l5 26q26 -2 97 -2l50 1
q3 1 9 1l-5 -26q-58 -2 -128 -54l-92 -75q-1 -2 4 -11l95 -185q18 -34 31.5 -43.5t47.5 -9.5z" />
    <glyph glyph-name="l" unicode="l" horiz-adv-x="250" 
d="M221 0q-24 2 -94 2q-69 0 -93 -2l4 26q47 0 59 7t17 36l89 534q6 36 -4 45t-55 9l4 26l121 11l-104 -625q-5 -30 4 -36.5t56 -6.5z" />
    <glyph glyph-name="m" unicode="m" horiz-adv-x="772" 
d="M744 0q-24 2 -95 2q-70 0 -94 -2l4 26q47 0 59 7t17 36l39 239q19 114 -63 114q-53 0 -97 -46t-55 -115l-32 -192q-5 -30 4 -36.5t56 -6.5l-4 -26q-24 2 -95 2q-70 0 -94 -2l4 26q47 0 59 7t17 36l39 239q19 114 -63 114q-53 0 -97 -46t-55 -115l-32 -192q-5 -30 4 -36.5
t56 -6.5l-4 -26q-24 2 -95 2q-70 0 -94 -2l4 26q47 0 59 7t17 36l46 278q6 36 -4 45t-55 9l4 26l120 11l-17 -101h1q21 39 60 70t92 31q50 0 80.5 -22t29.5 -78h1q22 43 61.5 71.5t88.5 28.5q42 0 68 -14t32.5 -34.5t9 -43.5t-3.5 -42l-39 -235q-5 -30 4 -36.5t56 -6.5z" />
    <glyph glyph-name="n" unicode="n" horiz-adv-x="511" 
d="M483 0q-24 2 -95 2q-70 0 -94 -2l4 26q47 0 59 7t17 36l39 239q19 114 -63 114q-53 0 -97 -46t-55 -115l-32 -192q-5 -30 4 -36.5t56 -6.5l-4 -26q-24 2 -95 2q-70 0 -94 -2l4 26q47 0 59 7t17 36l46 278q6 36 -4 45t-55 9l4 26l120 11l-17 -101h1q21 39 60 70t92 31
q127 0 106 -134l-39 -235q-5 -30 4 -36.5t56 -6.5z" />
    <glyph glyph-name="o" unicode="o" 
d="M467 214q-16 -93 -86 -157.5t-153 -64.5t-132 64.5t-33 157.5q16 95 86.5 161.5t153.5 66.5q82 0 131 -66.5t33 -161.5zM404 222q16 98 -7 144q-31 60 -97 60q-70 0 -121 -65q-36 -49 -51 -139q-15 -97 4 -145q12 -30 38.5 -48.5t60.5 -18.5q69 0 120 65q39 53 53 147z
" />
    <glyph glyph-name="p" unicode="p" horiz-adv-x="511" 
d="M513 216q-17 -98 -88 -161t-150 -63q-77 0 -113 69l-31 -187q-5 -29 4 -36t57 -7l-5 -26q-23 2 -94 2q-70 0 -95 -2l5 26q47 0 58.5 7t16.5 36l79 473q6 36 -4 45t-55 9l4 26l121 11l-12 -73q64 73 149 73q78 0 123.5 -64t29.5 -158zM449 215q14 85 -15 145t-84 60
q-44 0 -95 -34q-43 -36 -51 -72l-33 -198q-3 -22 6 -44q30 -64 94 -64q59 0 111.5 61t66.5 146z" />
    <glyph glyph-name="q" unicode="q" horiz-adv-x="485" 
d="M446 -195q-23 2 -94 2q-70 0 -95 -2l5 26q47 0 58.5 7t16.5 36l33 199q-11 -16 -27.5 -31.5t-50 -32.5t-68.5 -17q-77 0 -124 63.5t-31 159.5t87 159.5t150 63.5q88 0 116 -99l46 99h16l-94 -564q-5 -29 4 -36t57 -7zM383 137l23 140q8 47 -17 95t-79 48
q-59 0 -111 -59.5t-66 -146.5q-14 -84 14 -145t84 -61q54 0 99 43q47 47 53 86z" />
    <glyph glyph-name="r" unicode="r" horiz-adv-x="354" 
d="M397 386q-3 -19 -15 -27t-24 -8q-13 0 -22.5 8.5t-6.5 25.5q2 12 9 20t13 11l6 2q-9 4 -21 4q-54 0 -94 -55t-53 -131l-27 -165q-6 -32 6.5 -38.5t69.5 -6.5l-4 -26q-27 2 -107 2q-72 0 -96 -2l4 26q47 0 59 7t17 36l46 278q6 36 -4 45t-55 9l4 26l118 11l-18 -109h1
q18 40 52.5 74.5t84.5 34.5q27 0 44 -14.5t13 -37.5z" />
    <glyph glyph-name="s" unicode="s" horiz-adv-x="359" 
d="M354 124q-10 -60 -55.5 -96t-118.5 -36t-102 53l-35 -43q-7 -9 -12 -9t-5.5 2.5t1.5 16.5l24 144q2 14 4.5 17.5t8.5 3.5t6.5 -2t1.5 -13q3 -75 26.5 -114.5t83.5 -39.5q62 0 94 28.5t38 67.5q6 38 -23 70q-12 12 -30 18t-70 17q-127 27 -112 117q8 49 51 82.5t120 33.5
q61 0 88 -35l18 18q15 16 20 16q4 0 4.5 -2.5t-1.5 -16.5l-18 -112q-2 -13 -4 -16.5t-9 -3.5t-8 6q16 132 -93 132q-46 0 -76.5 -16t-39.5 -32t-12 -33q-3 -18 3.5 -31.5t15 -21.5t28 -15.5t30 -10.5t33.5 -8q26 -5 40 -8.5t31 -13t29 -24.5q33 -36 25 -90z" />
    <glyph glyph-name="t" unicode="t" horiz-adv-x="354" 
d="M328 124q-10 -57 -41 -94.5t-74 -37.5q-33 0 -54.5 12t-30 28t-11 37t-1.5 32.5t3 21.5l46 281h-87l3 16q60 1 99.5 56t55.5 139h18l-31 -185h140l-5 -26h-140l-47 -283q-10 -61 6.5 -86t44.5 -25q31 0 55 31.5t33 83.5l9 56h18z" />
    <glyph glyph-name="u" unicode="u" horiz-adv-x="511" 
d="M483 0l-120 -8l15 93h-1q-9 -17 -22.5 -34.5t-47 -38t-71.5 -20.5q-71 0 -104 39q-10 13 -12 35t0 41.5t9 61.5l32 192q4 27 -10 33.5t-51 6.5l4 26l123 11l-55 -329q-3 -27 -3 -49.5t18.5 -37t56.5 -14.5q54 0 94.5 46t51.5 111l30 182q6 36 -4 45t-55 9l4 26l123 11
l-60 -358q-6 -36 4 -45t55 -9z" />
    <glyph glyph-name="v" unicode="v" horiz-adv-x="485" 
d="M541 404q-59 -2 -93 -64l-188 -331q-7 -12 -10 -14.5t-9 -2.5q-7 0 -9 3t-4 14l-85 364q-3 15 -12.5 22t-20 8t-33.5 1l5 26q21 -2 79 -2q69 0 94 2l-5 -26q-48 0 -52 -24q0 -9 3 -19l69 -300l157 278q7 13 10 25q6 37 -33 40l5 26q19 -2 73 -2l64 2z" />
    <glyph glyph-name="w" unicode="w" horiz-adv-x="668" 
d="M724 404q-55 -4 -85 -62l-170 -334q-7 -16 -17 -16q-11 0 -13 17l-54 302l-153 -302q-9 -17 -19 -17q-11 0 -13 16l-63 360q-4 24 -15 30t-45 6l5 26q20 -2 76 -2q67 0 92 2l-5 -26q-50 0 -54 -26q0 -9 2 -18l51 -289l137 268q-8 48 -16.5 56.5t-49.5 8.5l5 26
q22 -2 73 -2q66 0 90 2l-5 -26q-50 0 -54 -26q0 -2 2 -19l53 -295l139 272q7 16 8 23q3 19 -7.5 31.5t-33.5 13.5l5 26q16 -2 78 -2q21 0 61 2z" />
    <glyph glyph-name="x" unicode="x" horiz-adv-x="485" 
d="M483 0q-22 2 -81 2q-68 0 -92 -2l4 26q29 2 32 23q1 6 -14 33l-68 113l-100 -102q-21 -23 -24 -41q-4 -22 17 -26l-4 -26q-18 2 -82 2l-70 -2l4 26q73 3 129 59q117 117 119 125q1 4 -5 11l-90 149q-14 22 -29 28t-56 6l5 26q21 -2 80 -2q68 0 93 2l-5 -26
q-26 -2 -30 -23q-2 -8 6 -18l68 -115l90 94q19 22 21 36q3 23 -18 26l5 26q22 -2 80 -2l71 2l-5 -26q-68 -2 -124 -55l-111 -116l105 -174q14 -22 28.5 -27.5t54.5 -5.5z" />
    <glyph glyph-name="y" unicode="y" horiz-adv-x="485" 
d="M541 404q-58 0 -94 -62l-251 -439q-61 -106 -132 -106q-35 0 -57 20t-17 49q6 33 38 33q15 0 22 -9.5t5 -22.5q-5 -30 -39 -33q18 -21 51 -21q16 0 29 4.5t27.5 18.5t24.5 25t27 39t26 44t31 56l-88 367q-5 24 -16 30.5t-51 6.5l5 26q21 -2 80 -2q68 0 93 2l-5 -26
q-47 0 -51 -24q-1 -8 2 -20l70 -292l154 270q10 17 12 27q5 36 -33 39l5 26q19 -2 73 -2l64 2z" />
    <glyph glyph-name="z" unicode="z" horiz-adv-x="406" 
d="M402 180l-44 -180h-316q-16 0 -18.5 2t-0.5 13l352 399h-122q-43 0 -69.5 -7t-43 -27t-25 -41.5t-18.5 -63.5h-18l36 155h304q20 0 20 -5q1 -1 0 -4q0 -4 -10 -14l-343 -389h128q45 0 74 9t47.5 31.5t28 48.5t20.5 73h18z" />
    <glyph glyph-name="braceleft" unicode="{" horiz-adv-x="500" 
d="M387 -239q-2 -11 -22 -11q-84 0 -132 38q-32 25 -36.5 56.5t5.5 72.5l33 198q6 35 -3 60.5t-29 38t-38 18.5t-37 7q-5 1 -6.5 1t-5 1t-2.5 3t0 6q1 11 16 11q64 4 111 45q22 20 29 41t20 97l31 183q10 53 72 88t139 35q8 0 11 -0.5t5.5 -3t1.5 -7.5q-2 -9 -11 -11
q-32 -2 -57.5 -10.5t-35.5 -15.5t-25 -20q-20 -18 -27 -39t-17 -80l-30 -180q-3 -17 -7.5 -29t-17.5 -34t-42.5 -40t-72.5 -30q97 -29 99 -103q0 -7 -14 -91l-25 -150q-6 -36 -5 -48q3 -32 30 -57.5t81 -28.5q5 -1 6.5 -1t5 -1t2.5 -3t0 -6z" />
    <glyph glyph-name="bar" unicode="|" horiz-adv-x="278" 
d="M123 -217q-2 -11 -3.5 -15.5t-7.5 -11t-15 -6.5q-21 0 -14 33l156 934q5 33 25 33t15 -33z" />
    <glyph glyph-name="braceright" unicode="}" horiz-adv-x="500" 
d="M469 250q-2 -11 -16 -11q-62 -4 -112 -45q-22 -20 -29 -42t-20 -96l-30 -183q-10 -53 -72.5 -88t-139.5 -35q-7 0 -10 0.5t-6 3t-2 7.5q2 9 11 11q33 2 58.5 10.5t35.5 15.5t25 20q20 17 26.5 37.5t16.5 81.5l31 180q2 12 4 21.5t11 27t23 31t40.5 28.5t61.5 25
q-97 29 -99 103q0 13 13 91l25 150q6 36 5 48q-3 32 -30 57.5t-81 28.5q-6 1 -8 1.5t-4 2.5t-2 7q2 11 22 11q83 0 133 -38q31 -25 36 -56.5t-6 -72.5l-33 -198q-6 -35 3.5 -60.5t29 -38t37.5 -18.5t38 -7q6 -1 8 -1.5t4 -2.5t2 -7z" />
    <glyph glyph-name="asciitilde" unicode="~" horiz-adv-x="556" 
d="M603 290l-61 -44q-23 -17 -63 -35q-41 -18 -76 -18q-42 0 -94 34q-59 37 -98 37q-68 0 -165 -71l-11 17l61 44q22 16 63 35q43 18 76 18q41 0 95 -34q57 -37 97 -37q68 0 165 71z" />
    <glyph glyph-name="uni00A0" unicode="&#xa0;" 
 />
    <glyph glyph-name="exclamdown" unicode="&#xa1;" horiz-adv-x="250" 
d="M243 459q-3 -17 -17 -29t-31 -12t-27 12t-7 29q2 17 16 29t31 12t27 -12t8 -29zM137 -171q-3 -20 -17.5 -30t-29.5 -10t-26.5 10t-8.5 30l112 484q2 8 3 11t3.5 5t6.5 2q6 0 7 -3.5t0 -12.5v-2l-49 -475z" />
    <glyph glyph-name="cent" unicode="&#xa2;" horiz-adv-x="406" 
d="M404 118q-1 -7 -11 -24t-29 -40.5t-53.5 -41.5t-74.5 -20l-3 -18q-4 -13 -16 -13q-14 0 -10 13l3 19q-72 8 -114 70t-27 153q15 89 77.5 153t138.5 72l2 16q2 13 15 13t11 -13l-2 -15q55 -3 89.5 -38.5t26.5 -86.5q-7 -38 -42 -38q-13 0 -23 8.5t-7 27.5q2 16 12 24.5
t18 9.5t22 1q-8 36 -37 54t-62 20l-69 -414h1q93 0 143 101q3 7 5 9.5t3.5 3.5t5.5 1q7 0 7 -7zM213 14l68 408q-48 -9 -90 -60t-58 -145q-15 -89 10 -140t70 -63z" />
    <glyph glyph-name="sterling" unicode="&#xa3;" horiz-adv-x="693" 
d="M657 144q-12 -71 -44 -121t-82 -50q-23 0 -43 5.5t-40.5 19.5t-32 23.5t-35 31.5t-30.5 29q-18 -48 -75.5 -73t-127.5 -25q-37 0 -59 26.5t-16 63.5q7 42 50.5 66.5t96.5 24.5q44 0 89 -31q4 32 12 195h-155l4 26h152q3 36 9 76q17 103 71.5 177.5t132.5 74.5
q59 0 94.5 -42.5t25.5 -101.5q-2 -15 -14.5 -25.5t-27.5 -10.5t-23.5 10.5t-6.5 25.5t14.5 25.5t27.5 10.5q8 0 12 -3q-4 41 -33 67t-72 26q-34 0 -60.5 -20t-43 -56.5t-26 -73t-17.5 -84.5q-8 -53 -10 -76h141l-4 -26h-138q-2 -26 -4.5 -72.5t-5.5 -85t-8 -72.5l-1 -2
q25 -23 35 -31.5t31.5 -24.5t42 -22t43.5 -6q48 0 86.5 39t46.5 92h18zM305 116q-41 31 -89 31q-46 0 -83 -19t-43 -54q-5 -30 12.5 -51t47.5 -21q56 0 101.5 32t53.5 82z" />
    <glyph glyph-name="currency" unicode="&#xa4;" horiz-adv-x="720" 
d="M661 471q10 -12 -16 -34l-86 -74q31 -51 21 -113q-11 -65 -60 -113l62 -75q19 -22 4 -35q-14 -12 -33 10l-62 75q-54 -40 -119 -40q-63 0 -106 40l-88 -75q-25 -22 -36 -9q-10 12 15 34l88 75q-31 49 -21 113t58 112l-62 75q-18 22 -3 35q14 12 32 -10l63 -75
q54 41 119 41q64 0 107 -40l86 74q26 22 37 9zM546 250q10 60 -25.5 102t-94.5 42q-60 0 -109 -42t-59 -102t25 -102t95 -42q59 0 108.5 42t59.5 102z" />
    <glyph glyph-name="yen" unicode="&#xa5;" horiz-adv-x="693" 
d="M800 657q-72 0 -122 -63l-206 -261h139l-5 -26h-156l-26 -34l-14 -80h177l-4 -26h-177l-15 -92q-7 -36 4.5 -42.5t67.5 -6.5l-4 -26q-29 2 -113 2q-83 0 -112 -2l4 26q54 0 68 6.5t20 38.5l16 96h-175l4 26h175l14 80l-16 34h-154l5 26h137l-135 292q-9 21 -25 26.5
t-60 5.5l4 26q24 -2 100 -2q82 0 114 2l-4 -26q-49 0 -53 -20q-1 -6 5 -20l131 -284h38l204 258q16 21 18 33q5 31 -32 33l4 26q24 -2 89 -2q51 0 74 2zM426 307h-6l2 -5z" />
    <glyph glyph-name="brokenbar" unicode="&#xa6;" horiz-adv-x="278" 
d="M216 343q-2 -13 -22 -13q-8 0 -13.5 3.5t-4.5 9.5l63 374q5 33 25 33t15 -33zM123 -217q-2 -11 -3.5 -15.5t-7.5 -11t-15 -6.5q-21 0 -14 33l62 374q3 13 22 13q8 0 13.5 -3.5t4.5 -9.5z" />
    <glyph glyph-name="section" unicode="&#xa7;" horiz-adv-x="461" 
d="M455 194q-11 -75 -106 -120q33 -52 21 -113q-11 -68 -61.5 -118t-113.5 -50q-60 0 -87.5 53t-15.5 125q2 15 14.5 25.5t27.5 10.5t23.5 -10.5t6.5 -25.5t-14.5 -25.5t-27.5 -10.5q-8 0 -14 3q0 -47 25 -79t68 -32q45 0 79.5 40t43.5 94q13 74 -70 129l-76 51
q-106 70 -90 165q13 74 106 119q-31 52 -21 114q11 68 61.5 118t113.5 50q60 0 87.5 -53t15.5 -125q-2 -15 -14.5 -25.5t-27.5 -10.5t-23.5 10.5t-6.5 25.5q3 15 15 25.5t27 10.5q7 0 15 -3q-1 48 -26 79.5t-68 31.5q-45 0 -79.5 -40t-43.5 -94q-12 -75 70 -129l77 -51
q105 -69 89 -165zM395 194q12 68 -65 119l-76 51q-30 20 -49 47q-44 -31 -57 -105q-12 -67 65 -119l77 -51q30 -20 49 -47q45 30 56 105z" />
    <glyph glyph-name="dieresis" unicode="&#xa8;" 
d="M300 605q-2 -15 -14 -26t-28 -11q-15 0 -24 10.5t-6 26.5q2 15 14.5 25.5t27.5 10.5t23.5 -10.5t6.5 -25.5zM432 605q-2 -15 -14 -26t-28 -11q-15 0 -24 10.5t-6 26.5q2 15 14.5 25.5t27.5 10.5t23.5 -10.5t6.5 -25.5z" />
    <glyph glyph-name="copyright" unicode="&#xa9;" horiz-adv-x="683" 
d="M740 342q-23 -142 -140 -242t-258 -100q-142 0 -225 100t-60 242q23 141 140 241t259 100q141 0 224 -100t60 -241zM706 342q21 127 -54 217t-202 90t-232.5 -90t-126.5 -217q-21 -128 54.5 -218t202.5 -90t232 90.5t126 217.5zM546 275q-10 -58 -61.5 -107t-118.5 -49
q-82 0 -131.5 64t-34.5 159q15 94 86.5 158t153.5 64q66 0 105 -61l36 52q6 8 9 8q4 0 2 -12l-25 -147q-1 -8 -2.5 -10t-6.5 -2q-4 0 -4 8q2 66 -27.5 107t-81.5 41q-26 0 -53.5 -10t-57.5 -31.5t-53.5 -64.5t-33.5 -100t-0.5 -100t32 -64.5t47.5 -31.5t52 -10
q52 0 97.5 38.5t59.5 101.5q2 7 7 7t4 -8z" />
    <glyph glyph-name="ordfeminine" unicode="&#xaa;" horiz-adv-x="419" 
d="M461 452q-6 -36 -29 -50.5t-44 -14.5q-27 0 -41 17.5t-12 41.5q-18 -29 -49.5 -45.5t-67.5 -16.5q-43 0 -78.5 16.5t-29.5 52.5q8 55 82 87q58 24 161 28l5 30q7 42 -16 66t-57 24q-69 0 -103 -57q6 2 11 2q12 0 20 -6.5t6 -19.5t-13 -19t-22 -6q-5 0 -10.5 1.5t-11 8
t-3.5 18.5q5 35 43 62t86 27q54 0 91 -30q21 -19 23.5 -42t-5.5 -56l-17 -101q-7 -23 -3 -45t27 -22q33 0 41 48l7 40h16zM431 345q-2 -9 -15 -9h-300q-6 0 -9 2.5t-2 6.5q0 9 14 9h300q12 0 12 -9zM339 487l12 70q-71 -3 -118 -23q-64 -27 -72 -81q-5 -24 14.5 -41
t50.5 -17q38 0 72 24.5t41 67.5z" />
    <glyph glyph-name="guillemotleft" unicode="&#xab;" horiz-adv-x="511" 
d="M334 476v-2q-51 -124 -141 -234q54 -110 63 -234q0 -6 -6 -6h-4q-4 0 -6 5q-21 130 -101 232q0 1 -0.5 2t-0.5 2t2 5q111 99 179 233q1 3 5 3h4q6 0 6 -6zM491 476v-2q-51 -124 -141 -234q54 -110 63 -234q0 -6 -6 -6h-4q-4 0 -6 5q-21 130 -101 232q0 1 -0.5 2t-0.5 2
t2 5q111 99 179 233q2 3 5 3h4q6 0 6 -6z" />
    <glyph glyph-name="logicalnot" unicode="&#xac;" horiz-adv-x="720" 
d="M700 160q-4 -17 -20 -17q-7 0 -11 5t-3 12l27 162h-576q-7 0 -11 5t-3 12t6.5 12t12.5 5h593q7 0 11.5 -5t3.5 -12z" />
    <glyph glyph-name="uni00AD" unicode="&#xad;" horiz-adv-x="302" 
d="M287 193h-251l8 44h251z" />
    <glyph glyph-name="registered" unicode="&#xae;" horiz-adv-x="683" 
d="M740 342q-23 -142 -140 -242t-258 -100q-142 0 -225 100t-60 242q23 141 140 241t259 100q141 0 224 -100t60 -241zM706 342q21 127 -54 217t-202 90t-232.5 -90t-126.5 -217q-21 -128 54.5 -218t202.5 -90t232 90.5t126 217.5zM583 187q-2 -10 -6.5 -22t-19.5 -26.5
t-36 -14.5q-44 0 -65 28q-10 14 -10.5 34.5t5.5 49.5q7 31 5.5 48.5t-16.5 35.5q-19 22 -60 22h-73l-27 -164q-4 -19 3.5 -23t41.5 -4l-3 -17q-17 2 -69 2q-51 0 -70 -2l3 17q34 0 42.5 4t12.5 23l56 337q4 20 -3.5 24t-41.5 4l2 16h167q64 0 103 -33.5t32 -77.5
q-7 -36 -43 -64.5t-83 -37.5q25 -8 40 -20.5t20 -25.5t6.5 -27t-0.5 -26q-2 -26 -2 -36q-1 -20 -1 -29t2 -23t9 -19.5t19 -5.5q37 0 49 54q2 7 8 7t3 -8zM509 448q9 52 -20 73.5t-76 21.5h-46q-18 0 -23 -4t-8 -21l-27 -166h71q112 0 129 96z" />
    <glyph glyph-name="macron" unicode="&#xaf;" 
d="M498 593h-340l4 23h340z" />
    <glyph glyph-name="degree" unicode="&#xb0;" horiz-adv-x="344" 
d="M395 553q-9 -55 -54 -93t-99 -38t-86 38t-23 93q9 54 54 92t99 38t86 -38t23 -92zM361 553q7 40 -17 68t-64 28t-73 -28t-40 -68t17 -68.5t64 -28.5t73 28.5t40 68.5z" />
    <glyph glyph-name="plusminus" unicode="&#xb1;" horiz-adv-x="720" 
d="M676 17q-3 -17 -34 -17h-565q-10 0 -15 0.5t-9.5 5t-3.5 12.5q3 17 34 17h265l43 261h-265q-10 0 -15 0.5t-9.5 5t-3.5 12.5q3 17 34 17h265l44 265q6 31 24 31t11 -31l-44 -265h265q10 0 15 -0.5t9.5 -5t3.5 -12.5q-3 -17 -34 -17h-265l-43 -261h265q10 0 15 -0.5
t9.5 -5t3.5 -12.5z" />
    <glyph glyph-name="two.superior" unicode="&#xb2;" horiz-adv-x="330" 
d="M366 396l-32 -93h-253l2 13l165 135q90 73 101 137q7 41 -17.5 68.5t-70.5 27.5q-35 0 -65.5 -20t-46.5 -57q3 2 12 2q10 0 18.5 -5.5t6.5 -18.5q-5 -24 -33 -24q-30 0 -25 26q7 43 48.5 77.5t97.5 34.5q60 0 96.5 -30t27.5 -81q-4 -21 -15 -40.5t-30 -37.5t-33.5 -29
t-38.5 -28l-157 -116h138q62 0 66 5q11 11 25 54h13z" />
    <glyph glyph-name="three.superior" unicode="&#xb3;" horiz-adv-x="330" 
d="M374 406q-8 -46 -54.5 -79.5t-105.5 -33.5q-58 0 -95 28.5t-30 69.5q5 27 36 27q12 0 20 -6.5t6 -18.5q-5 -25 -35 -25q-7 0 -10 1q7 -31 40 -46.5t68 -15.5q36 0 66.5 25t38.5 75q7 43 -11.5 71.5t-63.5 28.5h-35q-15 0 -15 4q1 4 9 6q1 0 11 0.5t12 0.5q50 4 75 26
q31 30 39 74q5 26 -6.5 42t-25.5 20.5t-30 4.5q-78 0 -110 -46q3 1 10 1q27 0 24 -24q-5 -23 -32 -23q-11 0 -19 5.5t-6 19.5q6 35 46.5 58t91.5 23q49 0 81 -23t26 -58q-6 -39 -43 -68t-81 -37q52 -5 83.5 -34.5t24.5 -72.5z" />
    <glyph glyph-name="acute" unicode="&#xb4;" 
d="M457 669q0 -2 -0.5 -4t-2 -4t-2 -2.5t-2.5 -3t-3 -3t-4 -3.5t-5 -4l-170 -133l-9 12q1 2 9 11l137 144q17 17 29 17q11 0 17.5 -8t5.5 -19z" />
    <glyph glyph-name="uni00B5" unicode="&#xb5;" horiz-adv-x="511" 
d="M483 0l-120 -8l15 93h-1q-9 -17 -22.5 -34.5t-47 -38t-71.5 -20.5q-53 0 -80 18l-23 -136q-5 -29 4 -36t57 -7l-5 -26q-23 2 -94 2q-70 0 -95 -2l5 26q47 0 58.5 7t16.5 36l81 487q4 27 -10 33.5t-51 6.5l4 26l123 11l-55 -329q-3 -27 -3 -49.5t18.5 -37t56.5 -14.5
q54 0 94.5 46t51.5 111l30 182q6 36 -4 45t-55 9l4 26l123 11l-60 -358q-6 -36 4 -45t55 -9z" />
    <glyph glyph-name="paragraph" unicode="&#xb6;" horiz-adv-x="611" 
d="M694 674q-3 -20 -36 -20h-50l-136 -815q-5 -33 -25 -33t-15 33l136 815h-70l-136 -815q-5 -33 -25 -33t-15 33l65 391q-50 2 -97 17t-87 42t-59.5 72.5t-10.5 101.5q16 95 100.5 163t188.5 68h243q10 0 15.5 -0.5t10.5 -5.5t3 -14z" />
    <glyph glyph-name="periodcentered" unicode="&#xb7;" horiz-adv-x="720" 
d="M458 342q-3 -18 -17.5 -29.5t-30.5 -11.5t-26.5 11.5t-7.5 29.5t17.5 29.5t30.5 11.5t26.5 -11.5t7.5 -29.5z" />
    <glyph glyph-name="cedilla" unicode="&#xb8;" horiz-adv-x="406" 
d="M304 -124q-3 -22 -20.5 -37t-37.5 -22.5t-56.5 -11.5t-59 -4.5t-64.5 -0.5h-18l3 18h9q32 0 49 0.5t44.5 3.5t42.5 8.5t28 17t16 28.5q4 26 -15.5 42t-50.5 16l12 70h36l-9 -52q42 0 69.5 -21t21.5 -55z" />
    <glyph glyph-name="one.superior" unicode="&#xb9;" horiz-adv-x="339" 
d="M327 303l-105 1l-105 -1l2 15h22q43 0 54 5.5t14 22.5l53 317q-38 -18 -91 -18l2 15q1 1 7 1q75 2 118 38q8 0 9 -1.5t-1 -11.5l-56 -340q-3 -17 5.5 -22.5t52.5 -5.5h21z" />
    <glyph glyph-name="ordmasculine" unicode="&#xba;" horiz-adv-x="385" 
d="M452 540q-11 -66 -68.5 -111t-127.5 -45q-69 0 -111.5 45t-31.5 111t69 112.5t127 46.5q70 0 112 -46.5t31 -112.5zM407 345q-2 -9 -15 -9h-287q-5 0 -8.5 2.5t-2.5 6.5q0 9 14 9h287q12 0 12 -9zM399 545q12 66 -9 101q-28 42 -83 42q-60 0 -100 -46q-29 -34 -40 -97
q-11 -67 7 -101q24 -47 84 -47q58 0 100 45q28 34 41 103z" />
    <glyph glyph-name="guillemotright" unicode="&#xbb;" horiz-adv-x="511" 
d="M453 241q0 -2 -2 -4q-113 -101 -179 -234q-2 -3 -6 -3h-4q-6 0 -6 6l1 2q51 124 141 234q-54 108 -63 234q0 6 6 6h4q4 0 6 -5q21 -130 100 -232q2 -2 2 -4zM296 241q0 -2 -2 -4q-113 -101 -179 -234q-1 -3 -6 -3h-4q-6 0 -6 6l1 2q51 124 141 234q-54 108 -63 234
q0 6 6 6h4q4 0 6 -5q21 -130 100 -232q2 -2 2 -4z" />
    <glyph glyph-name="onequarter" unicode="&#xbc;" horiz-adv-x="765" 
d="M327 303l-105 1l-105 -1l2 15h22q43 0 54 5.5t14 22.5l53 317q-38 -18 -91 -18l2 15q1 1 7 1q75 2 118 38q8 0 9 -1.5t-1 -11.5l-56 -340q-3 -17 5.5 -22.5t52.5 -5.5h21zM719 102h-73l-10 -59q-2 -10 0 -16t12 -8.5t35 -2.5h14l-3 -16l-86 1l-87 -1l3 16h14q36 0 45 5
t11 22l10 59h-186l3 16l261 283q10 0 11.5 -1.5t0.5 -11.5l-45 -270h73zM732 663q-2 -6 -4 -8l-474 -643q-6 -9 -16 -9q-7 0 -11.5 5t-3.5 12q2 6 5 8l473 644q6 8 16 8q17 0 15 -17zM609 118l38 231l-212 -231h174z" />
    <glyph glyph-name="onehalf" unicode="&#xbd;" horiz-adv-x="765" 
d="M327 303l-105 1l-105 -1l2 15h22q43 0 54 5.5t14 22.5l53 317q-38 -18 -91 -18l2 15q1 1 7 1q75 2 118 38q8 0 9 -1.5t-1 -11.5l-56 -340q-3 -17 5.5 -22.5t52.5 -5.5h21zM718 93l-33 -93h-254l2 14l167 135q89 74 100 136q7 42 -17 69t-70 27q-35 0 -66 -19.5t-47 -56.5
q6 2 12 2q10 0 18.5 -6t6.5 -18q-4 -25 -33 -25t-26 26q7 43 49 78t98 35q59 0 96 -30.5t29 -81.5q-5 -27 -26 -54.5t-39.5 -42t-52.5 -38.5l-157 -115h139q62 0 66 5q10 10 25 53h13zM694 663q-2 -6 -4 -8l-474 -643q-6 -9 -16 -9q-7 0 -11.5 5t-3.5 12q2 6 4 8l474 644
q6 8 16 8q7 0 11.5 -5t3.5 -12z" />
    <glyph glyph-name="threequarters" unicode="&#xbe;" horiz-adv-x="765" 
d="M398 406q-8 -46 -54.5 -79.5t-105.5 -33.5q-58 0 -95 28.5t-30 69.5q5 27 35 27q13 0 21 -6t6 -19q-5 -25 -36 -25q-7 0 -9 1q7 -31 40 -46.5t68 -15.5q36 0 66.5 25t38.5 75q7 43 -11.5 71.5t-63.5 28.5h-35q-16 0 -16 4q1 4 9 6q2 0 12 0.5t11 0.5q51 4 75 26
q32 30 40 74q5 26 -6.5 42t-25.5 20.5t-30 4.5q-78 0 -110 -46q3 1 9 1q27 0 24 -24q-5 -23 -32 -23q-10 0 -18 5.5t-6 19.5q6 35 46.5 58t90.5 23t82 -23t26 -58q-6 -39 -43 -68t-81 -37q52 -5 83.5 -34.5t24.5 -72.5zM719 102h-73l-10 -59q-2 -10 0 -16t12 -8.5t35 -2.5
h14l-3 -16l-86 1l-87 -1l3 16h14q36 0 45 5t11 22l10 59h-186l3 16l261 283q10 0 11.5 -1.5t0.5 -11.5l-45 -270h73zM732 663q-2 -6 -4 -8l-474 -643q-6 -9 -16 -9q-7 0 -11.5 5t-3.5 12q2 6 5 8l473 644q6 8 16 8q17 0 15 -17zM609 118l38 231l-212 -231h174z" />
    <glyph glyph-name="questiondown" unicode="&#xbf;" horiz-adv-x="433" 
d="M320 459q-3 -17 -17 -29t-31 -12t-27 12t-7 29q2 17 16 29t31 12t27 -12t8 -29zM374 -67q-10 -60 -70.5 -98t-135.5 -38q-77 0 -110 37.5t-23 100.5q12 65 57 100q124 99 147 239l6 36q8 20 12 21q7 0 7.5 -4t-1.5 -17l-7 -42q-22 -135 -110 -234q-15 -18 -21 -26.5
t-14 -29t-13 -50.5q-2 -23 -4.5 -48.5t17 -46t62.5 -20.5q45 0 95 20.5t76 67.5q-6 -2 -12 -2q-13 0 -23 8.5t-7 27.5q3 17 15.5 26.5t26.5 9.5q13 0 23 -8.5t7 -29.5z" />
    <glyph glyph-name="Agrave" unicode="&#xc0;" horiz-adv-x="693" 
d="M669 0q-24 2 -100 2q-83 0 -112 -2l4 26q62 0 67 27q1 5 -2 18l-32 170h-262l-78 -149q-5 -9 -7 -20q-1 -8 0.5 -17t13 -18.5t32.5 -10.5l-4 -26q-24 2 -89 2q-59 0 -77 -2l4 26q71 0 105 65l312 600q9 16 20 16q7 0 9.5 -3t4.5 -13l118 -628q4 -26 18.5 -31.5t58.5 -5.5
zM490 267l-65 344l-179 -344h244zM537 750q-9 -11 -10 -13l-151 105q-14 16 -15 21q0 13 9.5 22.5t22.5 9.5q6 0 21 -13l116 -122z" />
    <glyph glyph-name="Aacute" unicode="&#xc1;" horiz-adv-x="693" 
d="M669 0q-24 2 -100 2q-83 0 -112 -2l4 26q62 0 67 27q1 5 -2 18l-32 170h-262l-78 -149q-5 -9 -7 -20q-1 -8 0.5 -17t13 -18.5t32.5 -10.5l-4 -26q-24 2 -89 2q-59 0 -77 -2l4 26q71 0 105 65l312 600q9 16 20 16q7 0 9.5 -3t4.5 -13l118 -628q4 -26 18.5 -31.5t58.5 -5.5
zM490 267l-65 344l-179 -344h244zM620 863q-4 -10 -20 -19q-2 -1 -3 -2l-185 -105l-6 13q0 2 11 10l156 122q18 13 24 13q13 0 20 -9.5t3 -22.5z" />
    <glyph glyph-name="Acircumflex" unicode="&#xc2;" horiz-adv-x="693" 
d="M669 0q-24 2 -100 2q-83 0 -112 -2l4 26q62 0 67 27q1 5 -2 18l-32 170h-262l-78 -149q-5 -9 -7 -20q-1 -8 0.5 -17t13 -18.5t32.5 -10.5l-4 -26q-24 2 -89 2q-59 0 -77 -2l4 26q71 0 105 65l312 600q9 16 20 16q7 0 9.5 -3t4.5 -13l118 -628q4 -26 18.5 -31.5t58.5 -5.5
zM490 267l-65 344l-179 -344h244zM621 743l-15 -16l-129 66l-151 -66l-7 16l170 117z" />
    <glyph glyph-name="Atilde" unicode="&#xc3;" horiz-adv-x="693" 
d="M669 0q-24 2 -100 2q-83 0 -112 -2l4 26q62 0 67 27q1 5 -2 18l-32 170h-262l-78 -149q-5 -9 -7 -20q-1 -8 0.5 -17t13 -18.5t32.5 -10.5l-4 -26q-24 2 -89 2q-59 0 -77 -2l4 26q71 0 105 65l312 600q9 16 20 16q7 0 9.5 -3t4.5 -13l118 -628q4 -26 18.5 -31.5t58.5 -5.5
zM490 267l-65 344l-179 -344h244zM637 802q-33 -30 -46 -41.5t-33 -22.5t-37 -11q-21 0 -54 26q-31 26 -53 26q-15 0 -30.5 -7.5t-26 -15.5t-36.5 -29l-9 11q61 56 82 67q17 8 33 8q21 0 54 -26t54 -26q15 0 30.5 7t26 15.5t35.5 29.5z" />
    <glyph glyph-name="Adieresis" unicode="&#xc4;" horiz-adv-x="693" 
d="M669 0q-24 2 -100 2q-83 0 -112 -2l4 26q62 0 67 27q1 5 -2 18l-32 170h-262l-78 -149q-5 -9 -7 -20q-1 -8 0.5 -17t13 -18.5t32.5 -10.5l-4 -26q-24 2 -89 2q-59 0 -77 -2l4 26q71 0 105 65l312 600q9 16 20 16q7 0 9.5 -3t4.5 -13l118 -628q4 -26 18.5 -31.5t58.5 -5.5
zM490 267l-65 344l-179 -344h244zM431 764q-2 -15 -14 -26t-28 -11q-15 0 -23.5 10.5t-6.5 26.5q2 15 14.5 25.5t27.5 10.5t24 -10.5t6 -25.5zM587 764q-2 -15 -14 -26t-28 -11q-15 0 -23.5 10.5t-6.5 26.5q2 15 14.5 25.5t27.5 10.5t24 -10.5t6 -25.5z" />
    <glyph glyph-name="Aring" unicode="&#xc5;" horiz-adv-x="693" 
d="M669 0q-24 2 -100 2q-83 0 -112 -2l4 26q62 0 67 27q1 5 -2 18l-32 170h-262l-78 -149q-5 -9 -7 -20q-1 -8 0.5 -17t13 -18.5t32.5 -10.5l-4 -26q-24 2 -89 2q-59 0 -77 -2l4 26q71 0 105 65l312 600q9 16 20 16q7 0 9.5 -3t4.5 -13l118 -628q4 -26 18.5 -31.5t58.5 -5.5
zM490 267l-65 344l-179 -344h244zM541 795q5 31 -8.5 48t-42.5 17q-28 0 -48 -17t-25 -48q-4 -31 9.5 -48t42.5 -17q28 0 47.5 17t24.5 48zM566 795q-6 -37 -35.5 -62.5t-65.5 -25.5t-57.5 25.5t-15.5 62.5q7 37 36.5 62.5t65.5 25.5t57.5 -25.5t14.5 -62.5z" />
    <glyph glyph-name="AE" unicode="&#xc6;" horiz-adv-x="837" 
d="M858 253l-78 -253h-455l4 26q42 0 52 7t15 35l42 247h-166l-115 -218q-8 -16 -10 -25q-2 -3 -0.5 -10t4 -15t14 -14t28.5 -7l-4 -26q-23 2 -89 2q-60 0 -77 -2l4 26q72 2 105 65l295 565q-8 1 -29 1h-36l4 26h514l-13 -221h-18q4 47 2 83.5t-13.5 61t-43 37.5t-86.5 13
h-110q-29 0 -36.5 -6.5t-12.5 -32.5l-46 -277h94q66 0 88 24.5t33 92.5h18l-43 -260h-18q11 68 -2.5 92.5t-79.5 24.5h-94l-42 -250q-5 -26 0.5 -32.5t34.5 -6.5h110q41 0 71.5 5.5t54 21t38 29.5t29 46.5t22.5 55t23 69.5h18zM442 341l45 268q1 10 1.5 20.5t-9 18
t-30.5 7.5l-164 -314h157z" />
    <glyph glyph-name="Ccedilla" unicode="&#xc7;" horiz-adv-x="668" 
d="M660 234q-15 -90 -94.5 -167.5t-183.5 -82.5l-5 -32q42 0 69.5 -21t21.5 -55q-3 -22 -20.5 -37t-37.5 -22.5t-56.5 -11.5t-59 -4.5t-64.5 -0.5h-18l3 18h9q32 0 49 0.5t44.5 3.5t42.5 8.5t28 17t16 28.5q4 26 -15.5 42t-50.5 16l8 51q-123 10 -195 111t-48 246
q25 151 140 254t246 103q109 0 169 -98l58 84q10 13 14 13q5 0 5.5 -3t-1.5 -16l-39 -237q-2 -14 -4.5 -17t-10.5 -3q-6 0 -7 1.5t-1 9.5v3q3 106 -44 171.5t-131 65.5q-32 0 -66.5 -9t-74.5 -33t-74 -59.5t-62 -95t-41 -134.5q-15 -92 0 -160.5t51.5 -104t76.5 -51.5
t82 -16q84 0 157 62t96 164q7 11 11 12q10 0 7 -14z" />
    <glyph glyph-name="Egrave" unicode="&#xc8;" horiz-adv-x="628" 
d="M649 253l-78 -253h-520l4 26q55 0 68.5 6.5t19.5 38.5l90 539q5 32 -7 38.5t-66 6.5l5 26h506l-13 -221h-18q4 50 1 86.5t-17.5 60.5t-48 36t-90.5 12h-137q-29 0 -36.5 -6.5t-11.5 -32.5l-42 -249h94q66 0 89 24.5t34 92.5h18l-44 -260h-18q7 41 5.5 67t-22 38t-66.5 12
h-94l-46 -276q-5 -26 0.5 -32.5t34.5 -6.5h139q33 0 59.5 3t47.5 12t37 17.5t29.5 26.5t22.5 31t19.5 40t16.5 45t17 52h18zM505 750q-9 -11 -10 -13l-151 105q-14 16 -15 21q0 13 9.5 22.5t22.5 9.5q6 0 21 -13l116 -122z" />
    <glyph glyph-name="Eacute" unicode="&#xc9;" horiz-adv-x="628" 
d="M649 253l-78 -253h-520l4 26q55 0 68.5 6.5t19.5 38.5l90 539q5 32 -7 38.5t-66 6.5l5 26h506l-13 -221h-18q4 50 1 86.5t-17.5 60.5t-48 36t-90.5 12h-137q-29 0 -36.5 -6.5t-11.5 -32.5l-42 -249h94q66 0 89 24.5t34 92.5h18l-44 -260h-18q7 41 5.5 67t-22 38t-66.5 12
h-94l-46 -276q-5 -26 0.5 -32.5t34.5 -6.5h139q33 0 59.5 3t47.5 12t37 17.5t29.5 26.5t22.5 31t19.5 40t16.5 45t17 52h18zM588 863q-4 -10 -20 -19q-2 -1 -3 -2l-185 -105l-6 13q0 2 11 10l156 122q18 13 24 13q13 0 20 -9.5t3 -22.5z" />
    <glyph glyph-name="Ecircumflex" unicode="&#xca;" horiz-adv-x="628" 
d="M649 253l-78 -253h-520l4 26q55 0 68.5 6.5t19.5 38.5l90 539q5 32 -7 38.5t-66 6.5l5 26h506l-13 -221h-18q4 50 1 86.5t-17.5 60.5t-48 36t-90.5 12h-137q-29 0 -36.5 -6.5t-11.5 -32.5l-42 -249h94q66 0 89 24.5t34 92.5h18l-44 -260h-18q7 41 5.5 67t-22 38t-66.5 12
h-94l-46 -276q-5 -26 0.5 -32.5t34.5 -6.5h139q33 0 59.5 3t47.5 12t37 17.5t29.5 26.5t22.5 31t19.5 40t16.5 45t17 52h18zM589 743l-15 -16l-129 66l-151 -66l-7 16l170 117z" />
    <glyph glyph-name="Edieresis" unicode="&#xcb;" horiz-adv-x="628" 
d="M649 253l-78 -253h-520l4 26q55 0 68.5 6.5t19.5 38.5l90 539q5 32 -7 38.5t-66 6.5l5 26h506l-13 -221h-18q4 50 1 86.5t-17.5 60.5t-48 36t-90.5 12h-137q-29 0 -36.5 -6.5t-11.5 -32.5l-42 -249h94q66 0 89 24.5t34 92.5h18l-44 -260h-18q7 41 5.5 67t-22 38t-66.5 12
h-94l-46 -276q-5 -26 0.5 -32.5t34.5 -6.5h139q33 0 59.5 3t47.5 12t37 17.5t29.5 26.5t22.5 31t19.5 40t16.5 45t17 52h18zM399 764q-2 -15 -14 -26t-28 -11q-15 0 -23.5 10.5t-6.5 26.5q2 15 14.5 25.5t27.5 10.5t24 -10.5t6 -25.5zM555 764q-2 -15 -14 -26t-28 -11
q-15 0 -23.5 10.5t-6.5 26.5q2 15 14.5 25.5t27.5 10.5t24 -10.5t6 -25.5z" />
    <glyph glyph-name="Igrave" unicode="&#xcc;" horiz-adv-x="328" 
d="M281 0q-32 2 -117 2t-117 -2l4 26q57 0 71.5 6.5t20.5 38.5l90 541q6 32 -6.5 38.5t-69.5 6.5l4 26q32 -2 117 -2t117 2l-4 -26q-57 0 -71.5 -6.5t-20.5 -38.5l-90 -541q-6 -32 6.5 -38.5t69.5 -6.5zM355 750q-9 -11 -10 -13l-151 105q-14 16 -15 21q0 13 9.5 22.5
t22.5 9.5q6 0 21 -13l116 -122z" />
    <glyph glyph-name="Iacute" unicode="&#xcd;" horiz-adv-x="328" 
d="M281 0q-32 2 -117 2t-117 -2l4 26q57 0 71.5 6.5t20.5 38.5l90 541q6 32 -6.5 38.5t-69.5 6.5l4 26q32 -2 117 -2t117 2l-4 -26q-57 0 -71.5 -6.5t-20.5 -38.5l-90 -541q-6 -32 6.5 -38.5t69.5 -6.5zM438 863q-4 -10 -20 -19q-2 -1 -3 -2l-185 -105l-6 13q0 2 11 10
l156 122q18 13 24 13q13 0 20 -9.5t3 -22.5z" />
    <glyph glyph-name="Icircumflex" unicode="&#xce;" horiz-adv-x="328" 
d="M281 0q-32 2 -117 2t-117 -2l4 26q57 0 71.5 6.5t20.5 38.5l90 541q6 32 -6.5 38.5t-69.5 6.5l4 26q32 -2 117 -2t117 2l-4 -26q-57 0 -71.5 -6.5t-20.5 -38.5l-90 -541q-6 -32 6.5 -38.5t69.5 -6.5zM439 743l-15 -16l-129 66l-151 -66l-7 16l170 117z" />
    <glyph glyph-name="Idieresis" unicode="&#xcf;" horiz-adv-x="328" 
d="M281 0q-32 2 -117 2t-117 -2l4 26q57 0 71.5 6.5t20.5 38.5l90 541q6 32 -6.5 38.5t-69.5 6.5l4 26q32 -2 117 -2t117 2l-4 -26q-57 0 -71.5 -6.5t-20.5 -38.5l-90 -541q-6 -32 6.5 -38.5t69.5 -6.5zM249 764q-2 -15 -14 -26t-28 -11q-15 0 -23.5 10.5t-6.5 26.5
q2 15 14.5 25.5t27.5 10.5t24 -10.5t6 -25.5zM405 764q-2 -15 -14 -26t-28 -11q-15 0 -23.5 10.5t-6.5 26.5q2 15 14.5 25.5t27.5 10.5t24 -10.5t6 -25.5z" />
    <glyph glyph-name="Eth" unicode="&#xd0;" horiz-adv-x="707" 
d="M716 336q-23 -141 -124 -238.5t-222 -97.5h-318l4 26q54 0 68 6.5t20 38.5l43 258h-80l4 26h80l43 257q6 32 -6 38.5t-66 6.5l4 26h318q121 0 188.5 -102t43.5 -245zM642 336q9 68 8 118t-16.5 86t-34.5 58.5t-45 35.5t-48.5 18t-45.5 5h-112q-29 0 -36.5 -6.5
t-12.5 -32.5l-44 -263h157l-4 -26h-157l-44 -264q-5 -26 0.5 -32.5t34.5 -6.5h112q109 0 191 85q75 88 97 225z" />
    <glyph glyph-name="Ntilde" unicode="&#xd1;" horiz-adv-x="693" 
d="M751 657q-28 0 -47 -7t-28 -20.5t-12 -22t-5 -22.5l-94 -563q-2 -15 -4.5 -18.5t-9.5 -3.5q-8 0 -13 12l-270 607q-7 14 -11 18l-90 -539q-2 -14 -2 -22.5t4.5 -22t21 -20.5t44.5 -7l-4 -26q-23 2 -90 2t-90 -2l4 26q28 0 47 7t28 20.5t12 22t5 22.5l93 553q-18 6 -60 6
h-19l4 26h127q14 0 17.5 -2t7.5 -10l244 -549l78 463q2 14 2 22.5t-4.5 22t-21 20.5t-44.5 7l4 26q23 -2 90 -2t90 2zM637 802q-33 -30 -46 -41.5t-33 -22.5t-37 -11q-21 0 -54 26q-31 26 -53 26q-15 0 -30.5 -7.5t-26 -15.5t-36.5 -29l-9 11q61 56 82 67q17 8 33 8
q21 0 54 -26t54 -26q15 0 30.5 7t26 15.5t35.5 29.5z" />
    <glyph glyph-name="Ograve" unicode="&#xd2;" horiz-adv-x="720" 
d="M730 340q-25 -149 -135 -252.5t-239 -103.5q-127 0 -202.5 103t-50.5 253q25 151 135 255t239 104q127 0 202.5 -104t50.5 -255zM656 353q13 87 3 149.5t-40 102t-67 58t-79 18.5q-40 0 -83 -19t-85.5 -56t-76 -103t-47.5 -150q-28 -166 28.5 -258.5t150.5 -92.5
q93 0 180.5 91.5t115.5 259.5zM551 750q-9 -11 -10 -13l-151 105q-14 16 -15 21q0 13 9.5 22.5t22.5 9.5q6 0 21 -13l116 -122z" />
    <glyph glyph-name="Oacute" unicode="&#xd3;" horiz-adv-x="720" 
d="M730 340q-25 -149 -135 -252.5t-239 -103.5q-127 0 -202.5 103t-50.5 253q25 151 135 255t239 104q127 0 202.5 -104t50.5 -255zM656 353q13 87 3 149.5t-40 102t-67 58t-79 18.5q-40 0 -83 -19t-85.5 -56t-76 -103t-47.5 -150q-28 -166 28.5 -258.5t150.5 -92.5
q93 0 180.5 91.5t115.5 259.5zM634 863q-4 -10 -20 -19q-2 -1 -3 -2l-185 -105l-6 13q0 2 11 10l156 122q18 13 24 13q13 0 20 -9.5t3 -22.5z" />
    <glyph glyph-name="Ocircumflex" unicode="&#xd4;" horiz-adv-x="720" 
d="M730 340q-25 -149 -135 -252.5t-239 -103.5q-127 0 -202.5 103t-50.5 253q25 151 135 255t239 104q127 0 202.5 -104t50.5 -255zM656 353q13 87 3 149.5t-40 102t-67 58t-79 18.5q-40 0 -83 -19t-85.5 -56t-76 -103t-47.5 -150q-28 -166 28.5 -258.5t150.5 -92.5
q93 0 180.5 91.5t115.5 259.5zM635 743l-15 -16l-129 66l-151 -66l-7 16l170 117z" />
    <glyph glyph-name="Otilde" unicode="&#xd5;" horiz-adv-x="720" 
d="M730 340q-25 -149 -135 -252.5t-239 -103.5q-127 0 -202.5 103t-50.5 253q25 151 135 255t239 104q127 0 202.5 -104t50.5 -255zM656 353q13 87 3 149.5t-40 102t-67 58t-79 18.5q-40 0 -83 -19t-85.5 -56t-76 -103t-47.5 -150q-28 -166 28.5 -258.5t150.5 -92.5
q93 0 180.5 91.5t115.5 259.5zM651 802q-33 -30 -46 -41.5t-33 -22.5t-37 -11q-21 0 -54 26q-31 26 -53 26q-15 0 -30.5 -7.5t-26 -15.5t-36.5 -29l-9 11q61 56 82 67q17 8 33 8q21 0 54 -26t54 -26q15 0 30.5 7t26 15.5t35.5 29.5z" />
    <glyph glyph-name="Odieresis" unicode="&#xd6;" horiz-adv-x="720" 
d="M730 340q-25 -149 -135 -252.5t-239 -103.5q-127 0 -202.5 103t-50.5 253q25 151 135 255t239 104q127 0 202.5 -104t50.5 -255zM656 353q13 87 3 149.5t-40 102t-67 58t-79 18.5q-40 0 -83 -19t-85.5 -56t-76 -103t-47.5 -150q-28 -166 28.5 -258.5t150.5 -92.5
q93 0 180.5 91.5t115.5 259.5zM445 764q-2 -15 -14 -26t-28 -11q-15 0 -23.5 10.5t-6.5 26.5q2 15 14.5 25.5t27.5 10.5t24 -10.5t6 -25.5zM601 764q-2 -15 -14 -26t-28 -11q-15 0 -23.5 10.5t-6.5 26.5q2 15 14.5 25.5t27.5 10.5t24 -10.5t6 -25.5z" />
    <glyph glyph-name="multiply" unicode="&#xd7;" horiz-adv-x="720" 
d="M661 471q10 -12 -16 -34l-219 -187l156 -188q19 -22 4 -35q-14 -12 -33 10l-155 188l-220 -188q-25 -22 -36 -9q-10 12 15 34l220 188l-157 187q-18 22 -3 35q14 12 32 -10l157 -188l218 188q26 22 37 9z" />
    <glyph glyph-name="Oslash" unicode="&#xd8;" horiz-adv-x="720" 
d="M730 340q-25 -149 -135 -252.5t-239 -103.5q-98 0 -173 68l-90 -106l-12 10l91 109q-98 111 -69 275q25 151 135 255t239 104q90 0 173 -68l90 106l12 -10l-91 -109q97 -109 69 -278zM627 604q-9 14 -24.5 29.5t-51.5 32.5t-78 17q-28 0 -58.5 -8t-69.5 -31.5t-72 -59.5
t-62 -99.5t-42 -144.5q-27 -157 27 -247zM664 340q26 160 -28 250l-431 -512q14 -15 22.5 -23.5t28.5 -24t46 -23t57 -7.5q29 0 60.5 8t70.5 32t71.5 60t61 98.5t41.5 141.5z" />
    <glyph glyph-name="Ugrave" unicode="&#xd9;" horiz-adv-x="693" 
d="M751 657q-80 0 -91 -62l-63 -380q-13 -82 -83 -156.5t-161 -74.5q-90 0 -146 70t-38 175l64 383q6 32 -5.5 38.5t-66.5 6.5l4 26q29 -2 113 -2t113 2l-4 -26q-55 0 -68.5 -6.5t-19.5 -38.5l-65 -388q-13 -94 12 -145q16 -32 46 -50.5t68 -18.5q74 0 138 61t80 158l60 356
q2 14 2 22.5t-4.5 22t-21 20.5t-44.5 7l4 26q23 -2 91 -2q67 0 90 2zM558 750q-9 -11 -10 -13l-151 105q-14 16 -15 21q0 13 9.5 22.5t22.5 9.5q6 0 21 -13l116 -122z" />
    <glyph glyph-name="Uacute" unicode="&#xda;" horiz-adv-x="693" 
d="M751 657q-80 0 -91 -62l-63 -380q-13 -82 -83 -156.5t-161 -74.5q-90 0 -146 70t-38 175l64 383q6 32 -5.5 38.5t-66.5 6.5l4 26q29 -2 113 -2t113 2l-4 -26q-55 0 -68.5 -6.5t-19.5 -38.5l-65 -388q-13 -94 12 -145q16 -32 46 -50.5t68 -18.5q74 0 138 61t80 158l60 356
q2 14 2 22.5t-4.5 22t-21 20.5t-44.5 7l4 26q23 -2 91 -2q67 0 90 2zM641 863q-4 -10 -20 -19q-2 -1 -3 -2l-185 -105l-6 13q0 2 11 10l156 122q18 13 24 13q13 0 20 -9.5t3 -22.5z" />
    <glyph glyph-name="Ucircumflex" unicode="&#xdb;" horiz-adv-x="693" 
d="M751 657q-80 0 -91 -62l-63 -380q-13 -82 -83 -156.5t-161 -74.5q-90 0 -146 70t-38 175l64 383q6 32 -5.5 38.5t-66.5 6.5l4 26q29 -2 113 -2t113 2l-4 -26q-55 0 -68.5 -6.5t-19.5 -38.5l-65 -388q-13 -94 12 -145q16 -32 46 -50.5t68 -18.5q74 0 138 61t80 158l60 356
q2 14 2 22.5t-4.5 22t-21 20.5t-44.5 7l4 26q23 -2 91 -2q67 0 90 2zM642 743l-15 -16l-129 66l-151 -66l-7 16l170 117z" />
    <glyph glyph-name="Udieresis" unicode="&#xdc;" horiz-adv-x="693" 
d="M751 657q-80 0 -91 -62l-63 -380q-13 -82 -83 -156.5t-161 -74.5q-90 0 -146 70t-38 175l64 383q6 32 -5.5 38.5t-66.5 6.5l4 26q29 -2 113 -2t113 2l-4 -26q-55 0 -68.5 -6.5t-19.5 -38.5l-65 -388q-13 -94 12 -145q16 -32 46 -50.5t68 -18.5q74 0 138 61t80 158l60 356
q2 14 2 22.5t-4.5 22t-21 20.5t-44.5 7l4 26q23 -2 91 -2q67 0 90 2zM452 764q-2 -15 -14 -26t-28 -11q-15 0 -23.5 10.5t-6.5 26.5q2 15 14.5 25.5t27.5 10.5t24 -10.5t6 -25.5zM608 764q-2 -15 -14 -26t-28 -11q-15 0 -23.5 10.5t-6.5 26.5q2 15 14.5 25.5t27.5 10.5
t24 -10.5t6 -25.5z" />
    <glyph glyph-name="Yacute" unicode="&#xdd;" horiz-adv-x="693" 
d="M800 657q-72 0 -122 -63l-254 -321l-33 -198q-7 -36 4.5 -42.5t67.5 -6.5l-4 -26q-29 2 -113 2q-83 0 -112 -2l4 26q54 0 68 6.5t20 38.5l34 202l-163 352q-9 21 -25 26.5t-60 5.5l4 26q24 -2 100 -2q82 0 114 2l-4 -26q-49 0 -53 -20q-1 -6 5 -20l144 -315l229 289
q16 21 18 33q5 31 -32 33l4 26q24 -2 89 -2q51 0 74 2zM620 863q-4 -10 -20 -19q-2 -1 -3 -2l-185 -105l-6 13q0 2 11 10l156 122q18 13 24 13q13 0 20 -9.5t3 -22.5z" />
    <glyph glyph-name="Thorn" unicode="&#xde;" horiz-adv-x="576" 
d="M588 364q-12 -74 -77 -130t-150 -56h-137l-18 -105q-6 -34 5 -40.5t67 -6.5l-4 -27q-56 3 -112 3l-111 -3l4 27q55 0 68.5 6.5t19.5 40.5l90 537q6 34 -5.5 40.5t-66.5 6.5l4 27q55 -3 112 -3l111 3l-4 -27q-56 0 -69 -6.5t-19 -40.5l-10 -59h128q97 0 141.5 -57.5
t32.5 -129.5zM514 365q6 17 1.5 44t-13 52.5t-37 44.5t-71.5 19h-112l-54 -321h107q72 0 120.5 50t58.5 111z" />
    <glyph glyph-name="germandbls" unicode="&#xdf;" 
d="M467 174q-14 -81 -73 -131.5t-124 -50.5q-40 0 -64 18t-19 47t32 29q10 0 18 -7t6 -21q-4 -23 -31 -28q20 -22 58 -22q43 0 84 42t55 123q16 96 -17 165t-109 76q-11 1 -11 5v3q2 7 16 8q67 5 109 43t51 91q10 55 -14 88.5t-67 33.5q-36 0 -74 -29.5t-50 -99.5l-93 -557
q-18 2 -35 2q-65 0 -84 -2l4 26q47 0 59 7t17 36l55 335h-68l5 26h68l21 125q12 72 66.5 109.5t112.5 37.5q65 0 105 -40.5t30 -99.5q-9 -52 -57.5 -90t-109.5 -52q71 -22 106.5 -91t21.5 -155z" />
    <glyph glyph-name="agrave" unicode="&#xe0;" 
d="M464 89q-6 -36 -25 -58.5t-35 -28.5t-30 -6q-32 0 -48 24.5t-12 59.5q-23 -42 -61.5 -65t-80.5 -23q-31 0 -60 8t-51 31.5t-16 59.5q14 79 102 123q73 36 192 40l8 44q10 59 -16.5 93.5t-67.5 34.5q-32 0 -67 -19t-56 -62q6 2 12 2q14 0 23.5 -9.5t6.5 -26.5
q-3 -19 -16 -27.5t-26 -8.5q-6 0 -12.5 1.5t-13.5 11t-4 26.5q8 51 54 89.5t104 38.5q65 0 107 -43q24 -27 26.5 -60t-8.5 -80l-24 -144q-9 -33 -5.5 -64.5t30.5 -31.5q9 0 17.5 4t19 20.5t15.5 44.5l9 57h18zM320 139l17 100q-87 -5 -141 -33q-77 -39 -90 -115
q-5 -35 16.5 -59t58.5 -24q46 0 87.5 35t51.5 96zM374 524l-13 -12l-124 133q-13 13 -11 24q1 11 10.5 19t20.5 8q12 0 23 -17l89 -144z" />
    <glyph glyph-name="aacute" unicode="&#xe1;" 
d="M464 89q-6 -36 -25 -58.5t-35 -28.5t-30 -6q-32 0 -48 24.5t-12 59.5q-23 -42 -61.5 -65t-80.5 -23q-31 0 -60 8t-51 31.5t-16 59.5q14 79 102 123q73 36 192 40l8 44q10 59 -16.5 93.5t-67.5 34.5q-32 0 -67 -19t-56 -62q6 2 12 2q14 0 23.5 -9.5t6.5 -26.5
q-3 -19 -16 -27.5t-26 -8.5q-6 0 -12.5 1.5t-13.5 11t-4 26.5q8 51 54 89.5t104 38.5q65 0 107 -43q24 -27 26.5 -60t-8.5 -80l-24 -144q-9 -33 -5.5 -64.5t30.5 -31.5q9 0 17.5 4t19 20.5t15.5 44.5l9 57h18zM320 139l17 100q-87 -5 -141 -33q-77 -39 -90 -115
q-5 -35 16.5 -59t58.5 -24q46 0 87.5 35t51.5 96zM457 669q0 -2 -0.5 -4t-2 -4t-2 -2.5t-2.5 -3t-3 -3t-4 -3.5t-5 -4l-170 -133l-9 12q1 2 9 11l137 144q17 17 29 17q11 0 17.5 -8t5.5 -19z" />
    <glyph glyph-name="acircumflex" unicode="&#xe2;" 
d="M464 89q-6 -36 -25 -58.5t-35 -28.5t-30 -6q-32 0 -48 24.5t-12 59.5q-23 -42 -61.5 -65t-80.5 -23q-31 0 -60 8t-51 31.5t-16 59.5q14 79 102 123q73 36 192 40l8 44q10 59 -16.5 93.5t-67.5 34.5q-32 0 -67 -19t-56 -62q6 2 12 2q14 0 23.5 -9.5t6.5 -26.5
q-3 -19 -16 -27.5t-26 -8.5q-6 0 -12.5 1.5t-13.5 11t-4 26.5q8 51 54 89.5t104 38.5q65 0 107 -43q24 -27 26.5 -60t-8.5 -80l-24 -144q-9 -33 -5.5 -64.5t30.5 -31.5q9 0 17.5 4t19 20.5t15.5 44.5l9 57h18zM320 139l17 100q-87 -5 -141 -33q-77 -39 -90 -115
q-5 -35 16.5 -59t58.5 -24q46 0 87.5 35t51.5 96zM469 530l-15 -14l-121 108l-157 -108l-11 14l179 162z" />
    <glyph glyph-name="atilde" unicode="&#xe3;" 
d="M464 89q-6 -36 -25 -58.5t-35 -28.5t-30 -6q-32 0 -48 24.5t-12 59.5q-23 -42 -61.5 -65t-80.5 -23q-31 0 -60 8t-51 31.5t-16 59.5q14 79 102 123q73 36 192 40l8 44q10 59 -16.5 93.5t-67.5 34.5q-32 0 -67 -19t-56 -62q6 2 12 2q14 0 23.5 -9.5t6.5 -26.5
q-3 -19 -16 -27.5t-26 -8.5q-6 0 -12.5 1.5t-13.5 11t-4 26.5q8 51 54 89.5t104 38.5q65 0 107 -43q24 -27 26.5 -60t-8.5 -80l-24 -144q-9 -33 -5.5 -64.5t30.5 -31.5q9 0 17.5 4t19 20.5t15.5 44.5l9 57h18zM320 139l17 100q-87 -5 -141 -33q-77 -39 -90 -115
q-5 -35 16.5 -59t58.5 -24q46 0 87.5 35t51.5 96zM492 636q-61 -56 -82 -67q-17 -8 -33 -8q-21 0 -54 26t-54 26q-15 0 -30.5 -7t-26 -15.5t-35.5 -29.5l-10 11q33 30 46 41.5t33 22.5t37 11q21 0 54 -26q31 -26 53 -26q15 0 30.5 7.5t26 15.5t36.5 29z" />
    <glyph glyph-name="adieresis" unicode="&#xe4;" 
d="M464 89q-6 -36 -25 -58.5t-35 -28.5t-30 -6q-32 0 -48 24.5t-12 59.5q-23 -42 -61.5 -65t-80.5 -23q-31 0 -60 8t-51 31.5t-16 59.5q14 79 102 123q73 36 192 40l8 44q10 59 -16.5 93.5t-67.5 34.5q-32 0 -67 -19t-56 -62q6 2 12 2q14 0 23.5 -9.5t6.5 -26.5
q-3 -19 -16 -27.5t-26 -8.5q-6 0 -12.5 1.5t-13.5 11t-4 26.5q8 51 54 89.5t104 38.5q65 0 107 -43q24 -27 26.5 -60t-8.5 -80l-24 -144q-9 -33 -5.5 -64.5t30.5 -31.5q9 0 17.5 4t19 20.5t15.5 44.5l9 57h18zM320 139l17 100q-87 -5 -141 -33q-77 -39 -90 -115
q-5 -35 16.5 -59t58.5 -24q46 0 87.5 35t51.5 96zM300 605q-2 -15 -14 -26t-28 -11q-15 0 -24 10.5t-6 26.5q2 15 14.5 25.5t27.5 10.5t23.5 -10.5t6.5 -25.5zM432 605q-2 -15 -14 -26t-28 -11q-15 0 -24 10.5t-6 26.5q2 15 14.5 25.5t27.5 10.5t23.5 -10.5t6.5 -25.5z" />
    <glyph glyph-name="aring" unicode="&#xe5;" 
d="M464 89q-6 -36 -25 -58.5t-35 -28.5t-30 -6q-32 0 -48 24.5t-12 59.5q-23 -42 -61.5 -65t-80.5 -23q-31 0 -60 8t-51 31.5t-16 59.5q14 79 102 123q73 36 192 40l8 44q10 59 -16.5 93.5t-67.5 34.5q-32 0 -67 -19t-56 -62q6 2 12 2q14 0 23.5 -9.5t6.5 -26.5
q-3 -19 -16 -27.5t-26 -8.5q-6 0 -12.5 1.5t-13.5 11t-4 26.5q8 51 54 89.5t104 38.5q65 0 107 -43q24 -27 26.5 -60t-8.5 -80l-24 -144q-9 -33 -5.5 -64.5t30.5 -31.5q9 0 17.5 4t19 20.5t15.5 44.5l9 57h18zM320 139l17 100q-87 -5 -141 -33q-77 -39 -90 -115
q-5 -35 16.5 -59t58.5 -24q46 0 87.5 35t51.5 96zM392 608q5 31 -8.5 48t-42.5 17q-28 0 -48 -17t-25 -48q-4 -31 9.5 -48t42.5 -17q28 0 47.5 17t24.5 48zM417 608q-6 -37 -35.5 -62.5t-65.5 -25.5t-57.5 25.5t-15.5 62.5q7 37 36.5 62.5t65.5 25.5t57.5 -25.5t14.5 -62.5z
" />
    <glyph glyph-name="ae" unicode="&#xe6;" horiz-adv-x="668" 
d="M689 253q-2 -13 -6 -15.5t-21 -2.5h-263q-16 -100 6 -151q33 -74 106 -74q38 0 75 26t60 77q4 9 6 11t7 2q8 0 7 -8q-2 -8 -13 -26.5t-30 -42t-51.5 -40.5t-69.5 -17q-39 0 -79 21.5t-65 73.5q-24 -40 -71 -67.5t-104 -27.5q-54 0 -94 23.5t-32 73.5q6 38 35.5 71
t73.5 52q68 30 182 36l8 48q10 63 -16 96.5t-67 33.5q-32 0 -67 -19t-56 -62q6 2 12 2q14 0 23.5 -9.5t6.5 -26.5q-3 -19 -16 -27.5t-26 -8.5q-6 0 -12.5 1.5t-13.5 11t-4 26.5q8 51 54 89.5t104 38.5q47 0 82 -23t48 -60q70 83 158 83q74 0 105.5 -54.5t17.5 -134.5z
M635 250q25 176 -74 176q-41 0 -88 -40.5t-70 -135.5h232zM338 133q3 15 2 29q-1 30 6 70q-109 -3 -164.5 -46.5t-63.5 -96.5q-5 -33 15.5 -57t58.5 -24q51 0 94.5 36.5t51.5 88.5z" />
    <glyph glyph-name="ccedilla" unicode="&#xe7;" horiz-adv-x="406" 
d="M404 118q-1 -7 -11 -24t-28 -40t-51.5 -41t-72.5 -21l-7 -40q41 0 68.5 -21t21.5 -55q-3 -22 -20.5 -37t-37 -22.5t-56 -11.5t-59 -4.5t-64.5 -0.5h-18l3 18h9q32 0 49 0.5t44.5 3.5t42 8.5t27.5 17t16 28.5q4 26 -15.5 42t-49.5 16l10 60q-71 9 -111 70.5t-25 151.5
q16 95 85 160.5t149 65.5q59 0 96 -36.5t28 -88.5q-7 -38 -42 -38q-13 0 -23 8.5t-7 27.5q2 16 12 24.5t18 9.5t22 1q-8 38 -39.5 56t-66.5 18q-52 0 -101 -51.5t-67 -155.5q-17 -102 17.5 -154.5t89.5 -52.5q93 0 143 101q3 7 5 9.5t3.5 3.5t5.5 1q7 0 7 -7z" />
    <glyph glyph-name="egrave" unicode="&#xe8;" horiz-adv-x="406" 
d="M427 251q-2 -12 -7 -16h-290q-18 -104 5 -157q31 -68 102 -68q41 0 81.5 26.5t64.5 75.5q3 5 4 7t2.5 4t3 2.5t4.5 0.5h2t3 -2t2 -5q-6 -30 -55.5 -78.5t-121.5 -48.5q-81 0 -130 65t-34 161q16 93 82.5 158.5t145.5 65.5q81 0 115.5 -54.5t20.5 -136.5zM373 250
q13 83 -10.5 129.5t-75.5 46.5q-41 0 -86.5 -40.5t-66.5 -135.5h239zM348 524l-13 -12l-124 133q-13 13 -11 24q1 11 10.5 19t20.5 8q12 0 23 -17l89 -144z" />
    <glyph glyph-name="eacute" unicode="&#xe9;" horiz-adv-x="406" 
d="M427 251q-2 -12 -7 -16h-290q-18 -104 5 -157q31 -68 102 -68q41 0 81.5 26.5t64.5 75.5q3 5 4 7t2.5 4t3 2.5t4.5 0.5h2t3 -2t2 -5q-6 -30 -55.5 -78.5t-121.5 -48.5q-81 0 -130 65t-34 161q16 93 82.5 158.5t145.5 65.5q81 0 115.5 -54.5t20.5 -136.5zM373 250
q13 83 -10.5 129.5t-75.5 46.5q-41 0 -86.5 -40.5t-66.5 -135.5h239zM431 669q0 -2 -0.5 -4t-2 -4t-2 -2.5t-2.5 -3t-3 -3t-4 -3.5t-5 -4l-170 -133l-9 12q1 2 9 11l137 144q17 17 29 17q11 0 17.5 -8t5.5 -19z" />
    <glyph glyph-name="ecircumflex" unicode="&#xea;" horiz-adv-x="406" 
d="M427 251q-2 -12 -7 -16h-290q-18 -104 5 -157q31 -68 102 -68q41 0 81.5 26.5t64.5 75.5q3 5 4 7t2.5 4t3 2.5t4.5 0.5h2t3 -2t2 -5q-6 -30 -55.5 -78.5t-121.5 -48.5q-81 0 -130 65t-34 161q16 93 82.5 158.5t145.5 65.5q81 0 115.5 -54.5t20.5 -136.5zM373 250
q13 83 -10.5 129.5t-75.5 46.5q-41 0 -86.5 -40.5t-66.5 -135.5h239zM443 530l-15 -14l-121 108l-157 -108l-11 14l179 162z" />
    <glyph glyph-name="edieresis" unicode="&#xeb;" horiz-adv-x="406" 
d="M427 251q-2 -12 -7 -16h-290q-18 -104 5 -157q31 -68 102 -68q41 0 81.5 26.5t64.5 75.5q3 5 4 7t2.5 4t3 2.5t4.5 0.5h2t3 -2t2 -5q-6 -30 -55.5 -78.5t-121.5 -48.5q-81 0 -130 65t-34 161q16 93 82.5 158.5t145.5 65.5q81 0 115.5 -54.5t20.5 -136.5zM373 250
q13 83 -10.5 129.5t-75.5 46.5q-41 0 -86.5 -40.5t-66.5 -135.5h239zM274 605q-2 -15 -14 -26t-28 -11q-15 0 -24 10.5t-6 26.5q2 15 14.5 25.5t27.5 10.5t23.5 -10.5t6.5 -25.5zM406 605q-2 -15 -14 -26t-28 -11q-15 0 -24 10.5t-6 26.5q2 15 14.5 25.5t27.5 10.5
t23.5 -10.5t6.5 -25.5z" />
    <glyph glyph-name="igrave" unicode="&#xec;" horiz-adv-x="250" 
d="M214 0q-23 2 -88 2q-68 0 -92 -2l4 26q47 0 59 7t17 36l46 278q6 36 -3.5 45t-51.5 9l4 26l117 11l-62 -370q-5 -28 3 -35t51 -7zM270 524l-13 -12l-124 133q-13 13 -11 24q1 11 10.5 19t20.5 8q12 0 23 -17l89 -144z" />
    <glyph glyph-name="iacute" unicode="&#xed;" horiz-adv-x="250" 
d="M214 0q-23 2 -88 2q-68 0 -92 -2l4 26q47 0 59 7t17 36l46 278q6 36 -3.5 45t-51.5 9l4 26l117 11l-62 -370q-5 -28 3 -35t51 -7zM353 669q0 -2 -0.5 -4t-2 -4t-2 -2.5t-2.5 -3t-3 -3t-4 -3.5t-5 -4l-170 -133l-9 12q1 2 9 11l137 144q17 17 29 17q11 0 17.5 -8t5.5 -19z
" />
    <glyph glyph-name="icircumflex" unicode="&#xee;" horiz-adv-x="250" 
d="M214 0q-23 2 -88 2q-68 0 -92 -2l4 26q47 0 59 7t17 36l46 278q6 36 -3.5 45t-51.5 9l4 26l117 11l-62 -370q-5 -28 3 -35t51 -7zM365 530l-15 -14l-121 108l-157 -108l-11 14l179 162z" />
    <glyph glyph-name="idieresis" unicode="&#xef;" horiz-adv-x="250" 
d="M214 0q-23 2 -88 2q-68 0 -92 -2l4 26q47 0 59 7t17 36l46 278q6 36 -3.5 45t-51.5 9l4 26l117 11l-62 -370q-5 -28 3 -35t51 -7zM196 605q-2 -15 -14 -26t-28 -11q-15 0 -24 10.5t-6 26.5q2 15 14.5 25.5t27.5 10.5t23.5 -10.5t6.5 -25.5zM328 605q-2 -15 -14 -26
t-28 -11q-15 0 -24 10.5t-6 26.5q2 15 14.5 25.5t27.5 10.5t23.5 -10.5t6.5 -25.5z" />
    <glyph glyph-name="eth" unicode="&#xf0;" 
d="M469 231q-18 -104 -85 -170q-69 -69 -157 -69q-81 0 -130.5 64t-33.5 158q16 96 87 162t151 66q74 0 107 -81q-17 151 -117 243l-96 -50l-9 23l85 44q-46 37 -97 55l9 18q65 -17 123 -55l95 51l9 -23l-83 -43q85 -67 123 -170.5t19 -222.5zM402 215q15 91 -15.5 151
t-87.5 60q-10 0 -21.5 -1.5t-36 -13t-44.5 -31t-40 -61t-29 -97.5q-12 -57 -5 -95.5t17 -61.5t30 -35.5t33.5 -16t27.5 -3.5q7 0 17 1t35.5 12.5t46 30.5t41.5 61.5t31 99.5z" />
    <glyph glyph-name="ntilde" unicode="&#xf1;" horiz-adv-x="511" 
d="M483 0q-24 2 -95 2q-70 0 -94 -2l4 26q47 0 59 7t17 36l39 239q19 114 -63 114q-53 0 -97 -46t-55 -115l-32 -192q-5 -30 4 -36.5t56 -6.5l-4 -26q-24 2 -95 2q-70 0 -94 -2l4 26q47 0 59 7t17 36l46 278q6 36 -4 45t-55 9l4 26l120 11l-17 -101h1q21 39 60 70t92 31
q127 0 106 -134l-39 -235q-5 -30 4 -36.5t56 -6.5zM518 636q-61 -56 -82 -67q-17 -8 -33 -8q-21 0 -54 26t-54 26q-15 0 -30.5 -7t-26 -15.5t-35.5 -29.5l-10 11q33 30 46 41.5t33 22.5t37 11q21 0 54 -26q31 -26 53 -26q15 0 30.5 7.5t26 15.5t36.5 29z" />
    <glyph glyph-name="ograve" unicode="&#xf2;" 
d="M467 214q-16 -93 -86 -157.5t-153 -64.5t-132 64.5t-33 157.5q16 95 86.5 161.5t153.5 66.5q82 0 131 -66.5t33 -161.5zM404 222q16 98 -7 144q-31 60 -97 60q-70 0 -121 -65q-36 -49 -51 -139q-15 -97 4 -145q12 -30 38.5 -48.5t60.5 -18.5q69 0 120 65q39 53 53 147z
M374 524l-13 -12l-124 133q-13 13 -11 24q1 11 10.5 19t20.5 8q12 0 23 -17l89 -144z" />
    <glyph glyph-name="oacute" unicode="&#xf3;" 
d="M467 214q-16 -93 -86 -157.5t-153 -64.5t-132 64.5t-33 157.5q16 95 86.5 161.5t153.5 66.5q82 0 131 -66.5t33 -161.5zM404 222q16 98 -7 144q-31 60 -97 60q-70 0 -121 -65q-36 -49 -51 -139q-15 -97 4 -145q12 -30 38.5 -48.5t60.5 -18.5q69 0 120 65q39 53 53 147z
M457 669q0 -2 -0.5 -4t-2 -4t-2 -2.5t-2.5 -3t-3 -3t-4 -3.5t-5 -4l-170 -133l-9 12q1 2 9 11l137 144q17 17 29 17q11 0 17.5 -8t5.5 -19z" />
    <glyph glyph-name="ocircumflex" unicode="&#xf4;" 
d="M467 214q-16 -93 -86 -157.5t-153 -64.5t-132 64.5t-33 157.5q16 95 86.5 161.5t153.5 66.5q82 0 131 -66.5t33 -161.5zM404 222q16 98 -7 144q-31 60 -97 60q-70 0 -121 -65q-36 -49 -51 -139q-15 -97 4 -145q12 -30 38.5 -48.5t60.5 -18.5q69 0 120 65q39 53 53 147z
M469 530l-15 -14l-121 108l-157 -108l-11 14l179 162z" />
    <glyph glyph-name="otilde" unicode="&#xf5;" 
d="M467 214q-16 -93 -86 -157.5t-153 -64.5t-132 64.5t-33 157.5q16 95 86.5 161.5t153.5 66.5q82 0 131 -66.5t33 -161.5zM404 222q16 98 -7 144q-31 60 -97 60q-70 0 -121 -65q-36 -49 -51 -139q-15 -97 4 -145q12 -30 38.5 -48.5t60.5 -18.5q69 0 120 65q39 53 53 147z
M492 636q-61 -56 -82 -67q-17 -8 -33 -8q-21 0 -54 26t-54 26q-15 0 -30.5 -7t-26 -15.5t-35.5 -29.5l-10 11q33 30 46 41.5t33 22.5t37 11q21 0 54 -26q31 -26 53 -26q15 0 30.5 7.5t26 15.5t36.5 29z" />
    <glyph glyph-name="odieresis" unicode="&#xf6;" 
d="M467 214q-16 -93 -86 -157.5t-153 -64.5t-132 64.5t-33 157.5q16 95 86.5 161.5t153.5 66.5q82 0 131 -66.5t33 -161.5zM404 222q16 98 -7 144q-31 60 -97 60q-70 0 -121 -65q-36 -49 -51 -139q-15 -97 4 -145q12 -30 38.5 -48.5t60.5 -18.5q69 0 120 65q39 53 53 147z
M300 605q-2 -15 -14 -26t-28 -11q-15 0 -24 10.5t-6 26.5q2 15 14.5 25.5t27.5 10.5t23.5 -10.5t6.5 -25.5zM432 605q-2 -15 -14 -26t-28 -11q-15 0 -24 10.5t-6 26.5q2 15 14.5 25.5t27.5 10.5t23.5 -10.5t6.5 -25.5z" />
    <glyph glyph-name="divide" unicode="&#xf7;" horiz-adv-x="720" 
d="M715 250q-3 -17 -33 -17h-567q-10 0 -15 0.5t-9 4.5t-3 12q3 18 37 18h559q11 0 16.5 -0.5t10.5 -5t4 -12.5zM464 375q-4 -18 -18 -29.5t-30 -11.5q-17 0 -27.5 11.5t-6.5 29.5q3 18 17 29.5t30 11.5q17 0 27.5 -11.5t7.5 -29.5zM422 127q-3 -18 -17.5 -29.5t-30.5 -11.5
t-26.5 11.5t-7.5 29.5t17.5 29.5t30.5 11.5t26.5 -11.5t7.5 -29.5z" />
    <glyph glyph-name="oslash" unicode="&#xf8;" 
d="M461 214q-16 -94 -84.5 -158t-148.5 -64q-52 0 -92 29l-87 -122l-12 8l87 123q-75 68 -55 184q16 95 84.5 161.5t149.5 66.5q54 0 93 -30l85 120l11 -8l-85 -122q35 -34 49 -84t5 -104zM380 391q-32 35 -80 35q-11 0 -23.5 -2t-37.5 -14t-45.5 -32t-41 -63t-30.5 -101
q-18 -109 19 -160zM408 214q17 112 -18 164l-239 -337q30 -33 79 -33q74 0 126 69q35 46 52 137z" />
    <glyph glyph-name="ugrave" unicode="&#xf9;" horiz-adv-x="511" 
d="M483 0l-120 -8l15 93h-1q-9 -17 -22.5 -34.5t-47 -38t-71.5 -20.5q-71 0 -104 39q-10 13 -12 35t0 41.5t9 61.5l32 192q4 27 -10 33.5t-51 6.5l4 26l123 11l-55 -329q-3 -27 -3 -49.5t18.5 -37t56.5 -14.5q54 0 94.5 46t51.5 111l30 182q6 36 -4 45t-55 9l4 26l123 11
l-60 -358q-6 -36 4 -45t55 -9zM400 524l-13 -12l-124 133q-13 13 -11 24q1 11 10.5 19t20.5 8q12 0 23 -17l89 -144z" />
    <glyph glyph-name="uacute" unicode="&#xfa;" horiz-adv-x="511" 
d="M483 0l-120 -8l15 93h-1q-9 -17 -22.5 -34.5t-47 -38t-71.5 -20.5q-71 0 -104 39q-10 13 -12 35t0 41.5t9 61.5l32 192q4 27 -10 33.5t-51 6.5l4 26l123 11l-55 -329q-3 -27 -3 -49.5t18.5 -37t56.5 -14.5q54 0 94.5 46t51.5 111l30 182q6 36 -4 45t-55 9l4 26l123 11
l-60 -358q-6 -36 4 -45t55 -9zM483 669q0 -2 -0.5 -4t-2 -4t-2 -2.5t-2.5 -3t-3 -3t-4 -3.5t-5 -4l-170 -133l-9 12q1 2 9 11l137 144q17 17 29 17q11 0 17.5 -8t5.5 -19z" />
    <glyph glyph-name="ucircumflex" unicode="&#xfb;" horiz-adv-x="511" 
d="M483 0l-120 -8l15 93h-1q-9 -17 -22.5 -34.5t-47 -38t-71.5 -20.5q-71 0 -104 39q-10 13 -12 35t0 41.5t9 61.5l32 192q4 27 -10 33.5t-51 6.5l4 26l123 11l-55 -329q-3 -27 -3 -49.5t18.5 -37t56.5 -14.5q54 0 94.5 46t51.5 111l30 182q6 36 -4 45t-55 9l4 26l123 11
l-60 -358q-6 -36 4 -45t55 -9zM495 530l-15 -14l-121 108l-157 -108l-11 14l179 162z" />
    <glyph glyph-name="udieresis" unicode="&#xfc;" horiz-adv-x="511" 
d="M483 0l-120 -8l15 93h-1q-9 -17 -22.5 -34.5t-47 -38t-71.5 -20.5q-71 0 -104 39q-10 13 -12 35t0 41.5t9 61.5l32 192q4 27 -10 33.5t-51 6.5l4 26l123 11l-55 -329q-3 -27 -3 -49.5t18.5 -37t56.5 -14.5q54 0 94.5 46t51.5 111l30 182q6 36 -4 45t-55 9l4 26l123 11
l-60 -358q-6 -36 4 -45t55 -9zM326 605q-2 -15 -14 -26t-28 -11q-15 0 -24 10.5t-6 26.5q2 15 14.5 25.5t27.5 10.5t23.5 -10.5t6.5 -25.5zM458 605q-2 -15 -14 -26t-28 -11q-15 0 -24 10.5t-6 26.5q2 15 14.5 25.5t27.5 10.5t23.5 -10.5t6.5 -25.5z" />
    <glyph glyph-name="yacute" unicode="&#xfd;" horiz-adv-x="485" 
d="M541 404q-58 0 -94 -62l-251 -439q-61 -106 -132 -106q-35 0 -57 20t-17 49q6 33 38 33q15 0 22 -9.5t5 -22.5q-5 -30 -39 -33q18 -21 51 -21q16 0 29 4.5t27.5 18.5t24.5 25t27 39t26 44t31 56l-88 367q-5 24 -16 30.5t-51 6.5l5 26q21 -2 80 -2q68 0 93 2l-5 -26
q-47 0 -51 -24q-1 -8 2 -20l70 -292l154 270q10 17 12 27q5 36 -33 39l5 26q19 -2 73 -2l64 2zM470 669q0 -2 -0.5 -4t-2 -4t-2 -2.5t-2.5 -3t-3 -3t-4 -3.5t-5 -4l-170 -133l-9 12q1 2 9 11l137 144q17 17 29 17q11 0 17.5 -8t5.5 -19z" />
    <glyph glyph-name="thorn" unicode="&#xfe;" horiz-adv-x="511" 
d="M513 216q-17 -98 -88 -161t-150 -63q-77 0 -113 69l-31 -187q-5 -29 4 -36t57 -7l-5 -26q-23 2 -94 2q-70 0 -95 -2l5 26q47 0 58.5 7t16.5 36l122 729q6 36 -4 45t-55 9l4 26l121 11l-55 -329q64 73 149 73q78 0 123.5 -64t29.5 -158zM449 215q14 85 -15 145t-84 60
q-44 0 -95 -34q-43 -36 -51 -72l-33 -198q-3 -22 6 -44q30 -64 94 -64q59 0 111.5 61t66.5 146z" />
    <glyph glyph-name="ydieresis" unicode="&#xff;" horiz-adv-x="485" 
d="M541 404q-58 0 -94 -62l-251 -439q-61 -106 -132 -106q-35 0 -57 20t-17 49q6 33 38 33q15 0 22 -9.5t5 -22.5q-5 -30 -39 -33q18 -21 51 -21q16 0 29 4.5t27.5 18.5t24.5 25t27 39t26 44t31 56l-88 367q-5 24 -16 30.5t-51 6.5l5 26q21 -2 80 -2q68 0 93 2l-5 -26
q-47 0 -51 -24q-1 -8 2 -20l70 -292l154 270q10 17 12 27q5 36 -33 39l5 26q19 -2 73 -2l64 2zM313 605q-2 -15 -14 -26t-28 -11q-15 0 -24 10.5t-6 26.5q2 15 14.5 25.5t27.5 10.5t23.5 -10.5t6.5 -25.5zM445 605q-2 -15 -14 -26t-28 -11q-15 0 -24 10.5t-6 26.5
q2 15 14.5 25.5t27.5 10.5t23.5 -10.5t6.5 -25.5z" />
    <glyph glyph-name="Amacron" unicode="&#x100;" horiz-adv-x="693" 
d="M669 0q-24 2 -100 2q-83 0 -112 -2l4 26q62 0 67 27q1 5 -2 18l-32 170h-262l-78 -149q-5 -9 -7 -20q-1 -8 0.5 -17t13 -18.5t32.5 -10.5l-4 -26q-24 2 -89 2q-59 0 -77 -2l4 26q71 0 105 65l312 600q9 16 20 16q7 0 9.5 -3t4.5 -13l118 -628q4 -26 18.5 -31.5t58.5 -5.5
zM490 267l-65 344l-179 -344h244zM640 747h-340l4 23h340z" />
    <glyph glyph-name="amacron" unicode="&#x101;" 
d="M464 89q-6 -36 -25 -58.5t-35 -28.5t-30 -6q-32 0 -48 24.5t-12 59.5q-23 -42 -61.5 -65t-80.5 -23q-31 0 -60 8t-51 31.5t-16 59.5q14 79 102 123q73 36 192 40l8 44q10 59 -16.5 93.5t-67.5 34.5q-32 0 -67 -19t-56 -62q6 2 12 2q14 0 23.5 -9.5t6.5 -26.5
q-3 -19 -16 -27.5t-26 -8.5q-6 0 -12.5 1.5t-13.5 11t-4 26.5q8 51 54 89.5t104 38.5q65 0 107 -43q24 -27 26.5 -60t-8.5 -80l-24 -144q-9 -33 -5.5 -64.5t30.5 -31.5q9 0 17.5 4t19 20.5t15.5 44.5l9 57h18zM320 139l17 100q-87 -5 -141 -33q-77 -39 -90 -115
q-5 -35 16.5 -59t58.5 -24q46 0 87.5 35t51.5 96zM498 593h-340l4 23h340z" />
    <glyph glyph-name="Abreve" unicode="&#x102;" horiz-adv-x="693" 
d="M669 0q-24 2 -100 2q-83 0 -112 -2l4 26q62 0 67 27q1 5 -2 18l-32 170h-262l-78 -149q-5 -9 -7 -20q-1 -8 0.5 -17t13 -18.5t32.5 -10.5l-4 -26q-24 2 -89 2q-59 0 -77 -2l4 26q71 0 105 65l312 600q9 16 20 16q7 0 9.5 -3t4.5 -13l118 -628q4 -26 18.5 -31.5t58.5 -5.5
zM490 267l-65 344l-179 -344h244zM637 911q-14 -76 -62 -125t-106 -49t-89.5 49t-20.5 125h16q-9 -66 19.5 -106t78.5 -40t93 40.5t55 105.5h16z" />
    <glyph glyph-name="abreve" unicode="&#x103;" 
d="M464 89q-6 -36 -25 -58.5t-35 -28.5t-30 -6q-32 0 -48 24.5t-12 59.5q-23 -42 -61.5 -65t-80.5 -23q-31 0 -60 8t-51 31.5t-16 59.5q14 79 102 123q73 36 192 40l8 44q10 59 -16.5 93.5t-67.5 34.5q-32 0 -67 -19t-56 -62q6 2 12 2q14 0 23.5 -9.5t6.5 -26.5
q-3 -19 -16 -27.5t-26 -8.5q-6 0 -12.5 1.5t-13.5 11t-4 26.5q8 51 54 89.5t104 38.5q65 0 107 -43q24 -27 26.5 -60t-8.5 -80l-24 -144q-9 -33 -5.5 -64.5t30.5 -31.5q9 0 17.5 4t19 20.5t15.5 44.5l9 57h18zM320 139l17 100q-87 -5 -141 -33q-77 -39 -90 -115
q-5 -35 16.5 -59t58.5 -24q46 0 87.5 35t51.5 96zM483 691q-14 -76 -62 -125t-106 -49t-89.5 49t-20.5 125h16q-9 -65 20 -105.5t79 -40.5t92.5 40.5t54.5 105.5h16z" />
    <glyph glyph-name="Aogonek" unicode="&#x104;" horiz-adv-x="693" 
d="M651 -115q-19 -42 -57.5 -69t-76.5 -27q-47 0 -74.5 27.5t-21.5 62.5q10 67 99 123q-31 0 -63 -2l4 26q62 0 67 27q1 5 -2 18l-32 170h-262l-78 -149q-5 -9 -7 -20q-1 -8 0.5 -17t13 -18.5t32.5 -10.5l-4 -26q-24 2 -89 2q-59 0 -77 -2l4 26q71 0 105 65l312 600
q9 16 20 16q7 0 9.5 -3t4.5 -13l118 -628q4 -26 18.5 -31.5t58.5 -5.5l-4 -26q-24 2 -100 2q-7 0 -14 -2.5t-12 -5t-13 -10t-10.5 -10t-11.5 -12.5t-11 -12q-19 -21 -24 -45q-6 -32 19.5 -50.5t56.5 -18.5q50 0 86 56q5 8 12.5 5t3.5 -12zM490 267l-65 344l-179 -344h244z
" />
    <glyph glyph-name="aogonek" unicode="&#x105;" 
d="M431 -115q-19 -42 -57.5 -69t-76.5 -27q-47 0 -74.5 27.5t-21.5 62.5q5 36 42.5 74.5t84.5 67.5q-17 25 -14 59q-23 -42 -61.5 -65t-80.5 -23q-31 0 -60 8t-51 31.5t-16 59.5q14 79 102 123q73 36 192 40l8 44q10 59 -16.5 93.5t-67.5 34.5q-32 0 -67 -19t-56 -62
q6 2 12 2q14 0 23.5 -9.5t6.5 -26.5q-3 -19 -16 -27.5t-26 -8.5q-6 0 -12.5 1.5t-13.5 11t-4 26.5q8 51 54 89.5t104 38.5q65 0 107 -43q24 -27 26.5 -60t-8.5 -80l-24 -144q-9 -33 -5.5 -64.5t30.5 -31.5q9 0 17.5 4t19 20.5t15.5 44.5l9 57h18l-9 -56q-6 -36 -25 -58.5
t-35 -28.5t-30 -6q-18 0 -30 9q-82 -51 -91 -100q-6 -32 19.5 -50.5t56.5 -18.5q50 0 86 56q5 8 12.5 5t3.5 -12zM320 139l17 100q-87 -5 -141 -33q-77 -39 -90 -115q-5 -35 16.5 -59t58.5 -24q46 0 87.5 35t51.5 96z" />
    <glyph glyph-name="Cacute" unicode="&#x106;" horiz-adv-x="668" 
d="M660 234q-15 -93 -98.5 -171.5t-191.5 -78.5q-132 0 -212.5 102.5t-54.5 255.5q25 151 140 254t246 103q109 0 169 -98l58 84q10 13 14 13q5 0 5.5 -3t-1.5 -16l-39 -237q-2 -14 -4.5 -17t-10.5 -3q-6 0 -7 1.5t-1 9.5v3q3 106 -44 171.5t-131 65.5q-32 0 -66.5 -9
t-74.5 -33t-74 -59.5t-62 -95t-41 -134.5q-15 -92 0 -160.5t51.5 -104t76.5 -51.5t82 -16q84 0 157 62t96 164q7 11 11 12q10 0 7 -14zM641 863q-4 -10 -20 -19q-2 -1 -3 -2l-185 -105l-6 13q0 2 11 10l156 122q18 13 24 13q13 0 20 -9.5t3 -22.5z" />
    <glyph glyph-name="cacute" unicode="&#x107;" horiz-adv-x="406" 
d="M404 118q-1 -7 -11.5 -24.5t-30 -42t-55.5 -42t-79 -17.5q-79 0 -127 63.5t-32 160.5q16 95 85 160.5t149 65.5q59 0 96 -36.5t28 -88.5q-7 -38 -42 -38q-13 0 -23 8.5t-7 27.5q2 16 12 24.5t18 9.5t22 1q-8 38 -39.5 56t-66.5 18q-52 0 -101 -51.5t-67 -155.5
q-17 -102 17.5 -154.5t89.5 -52.5q93 0 143 101q3 7 5 9.5t3.5 3.5t5.5 1q7 0 7 -7zM452 669q0 -2 -0.5 -4t-2 -4t-2 -2.5t-2.5 -3t-3 -3t-4 -3.5t-5 -4l-170 -133l-9 12q1 2 9 11l137 144q17 17 29 17q11 0 17.5 -8t5.5 -19z" />
    <glyph glyph-name="Ccircumflex" unicode="&#x108;" horiz-adv-x="668" 
d="M660 234q-15 -93 -98.5 -171.5t-191.5 -78.5q-132 0 -212.5 102.5t-54.5 255.5q25 151 140 254t246 103q109 0 169 -98l58 84q10 13 14 13q5 0 5.5 -3t-1.5 -16l-39 -237q-2 -14 -4.5 -17t-10.5 -3q-6 0 -7 1.5t-1 9.5v3q3 106 -44 171.5t-131 65.5q-32 0 -66.5 -9
t-74.5 -33t-74 -59.5t-62 -95t-41 -134.5q-15 -92 0 -160.5t51.5 -104t76.5 -51.5t82 -16q84 0 157 62t96 164q7 11 11 12q10 0 7 -14zM642 743l-15 -16l-129 66l-151 -66l-7 16l170 117z" />
    <glyph glyph-name="ccircumflex" unicode="&#x109;" horiz-adv-x="406" 
d="M404 118q-1 -7 -11.5 -24.5t-30 -42t-55.5 -42t-79 -17.5q-79 0 -127 63.5t-32 160.5q16 95 85 160.5t149 65.5q59 0 96 -36.5t28 -88.5q-7 -38 -42 -38q-13 0 -23 8.5t-7 27.5q2 16 12 24.5t18 9.5t22 1q-8 38 -39.5 56t-66.5 18q-52 0 -101 -51.5t-67 -155.5
q-17 -102 17.5 -154.5t89.5 -52.5q93 0 143 101q3 7 5 9.5t3.5 3.5t5.5 1q7 0 7 -7zM464 530l-15 -14l-121 108l-157 -108l-11 14l179 162z" />
    <glyph glyph-name="Cdotaccent" unicode="&#x10a;" horiz-adv-x="668" 
d="M660 234q-15 -93 -98.5 -171.5t-191.5 -78.5q-132 0 -212.5 102.5t-54.5 255.5q25 151 140 254t246 103q109 0 169 -98l58 84q10 13 14 13q5 0 5.5 -3t-1.5 -16l-39 -237q-2 -14 -4.5 -17t-10.5 -3q-6 0 -7 1.5t-1 9.5v3q3 106 -44 171.5t-131 65.5q-32 0 -66.5 -9
t-74.5 -33t-74 -59.5t-62 -95t-41 -134.5q-15 -92 0 -160.5t51.5 -104t76.5 -51.5t82 -16q84 0 157 62t96 164q7 11 11 12q10 0 7 -14zM538 784q-3 -17 -16.5 -29t-31.5 -12q-16 0 -26 11.5t-7 29.5q3 17 16.5 29t31.5 12q16 0 26 -11.5t7 -29.5z" />
    <glyph glyph-name="cdotaccent" unicode="&#x10b;" horiz-adv-x="406" 
d="M404 118q-1 -7 -11.5 -24.5t-30 -42t-55.5 -42t-79 -17.5q-79 0 -127 63.5t-32 160.5q16 95 85 160.5t149 65.5q59 0 96 -36.5t28 -88.5q-7 -38 -42 -38q-13 0 -23 8.5t-7 27.5q2 16 12 24.5t18 9.5t22 1q-8 38 -39.5 56t-66.5 18q-52 0 -101 -51.5t-67 -155.5
q-17 -102 17.5 -154.5t89.5 -52.5q93 0 143 101q3 7 5 9.5t3.5 3.5t5.5 1q7 0 7 -7zM365 604q-3 -17 -16.5 -29t-31.5 -12q-16 0 -26 11.5t-7 29.5q2 17 16 29t32 12q16 0 26 -11.5t7 -29.5z" />
    <glyph glyph-name="Ccaron" unicode="&#x10c;" horiz-adv-x="668" 
d="M660 234q-15 -93 -98.5 -171.5t-191.5 -78.5q-132 0 -212.5 102.5t-54.5 255.5q25 151 140 254t246 103q109 0 169 -98l58 84q10 13 14 13q5 0 5.5 -3t-1.5 -16l-39 -237q-2 -14 -4.5 -17t-10.5 -3q-6 0 -7 1.5t-1 9.5v3q3 106 -44 171.5t-131 65.5q-32 0 -66.5 -9
t-74.5 -33t-74 -59.5t-62 -95t-41 -134.5q-15 -92 0 -160.5t51.5 -104t76.5 -51.5t82 -16q84 0 157 62t96 164q7 11 11 12q10 0 7 -14zM659 844l-171 -117l-131 117l14 16l129 -66l151 66z" />
    <glyph glyph-name="ccaron" unicode="&#x10d;" horiz-adv-x="406" 
d="M404 118q-1 -7 -11.5 -24.5t-30 -42t-55.5 -42t-79 -17.5q-79 0 -127 63.5t-32 160.5q16 95 85 160.5t149 65.5q59 0 96 -36.5t28 -88.5q-7 -38 -42 -38q-13 0 -23 8.5t-7 27.5q2 16 12 24.5t18 9.5t22 1q-8 38 -39.5 56t-66.5 18q-52 0 -101 -51.5t-67 -155.5
q-17 -102 17.5 -154.5t89.5 -52.5q93 0 143 101q3 7 5 9.5t3.5 3.5t5.5 1q7 0 7 -7zM489 678l-179 -162l-125 162l15 14l121 -108l157 108z" />
    <glyph glyph-name="Dcaron" unicode="&#x10e;" horiz-adv-x="707" 
d="M716 336q-23 -141 -124 -238.5t-222 -97.5h-318l4 26q54 0 68 6.5t20 38.5l90 541q6 32 -6 38.5t-66 6.5l4 26h318q121 0 188.5 -102t43.5 -245zM642 336q9 68 8 118t-16.5 86t-34.5 58.5t-45 35.5t-48.5 18t-45.5 5h-112q-29 0 -36.5 -6.5t-12.5 -32.5l-92 -553
q-5 -26 0.5 -32.5t34.5 -6.5h112q109 0 191 85q75 88 97 225zM586 844l-171 -117l-131 117l14 16l129 -66l151 66z" />
    <glyph glyph-name="dcaron" unicode="&#x10f;" horiz-adv-x="511" 
d="M479 0l-122 -8l12 73q-63 -73 -146 -73q-76 0 -123 64t-31 159q16 96 87.5 159.5t150.5 63.5q17 0 32 -3.5t26 -9.5t20 -12.5t15.5 -14t11 -13.5t7.5 -11l3 -5l39 234q6 36 -4 45t-55 9l4 26l121 11l-103 -614q-6 -36 4 -45t55 -9zM378 120l33 198q4 22 -6 42
q-29 62 -96 62q-12 0 -25.5 -2.5t-38 -14.5t-44.5 -32.5t-39.5 -62t-28.5 -96.5q-8 -41 -6 -71.5t6.5 -52.5t15.5 -37t21 -24t23 -13.5t21.5 -6t16.5 -1.5q47 0 93 35q47 35 54 77zM619 623q-6 -37 -25.5 -71t-34.5 -49.5t-19 -15.5q-5 0 -5 6q1 3 4 7q57 54 68 124
q2 12 2 21q-11 -12 -26 -12q-13 0 -21 8t-5 22q5 31 36 31q37 0 26 -71z" />
    <glyph glyph-name="Dcroat" unicode="&#x110;" horiz-adv-x="707" 
d="M716 336q-23 -141 -124 -238.5t-222 -97.5h-318l4 26q54 0 68 6.5t20 38.5l43 258h-80l4 26h80l43 257q6 32 -6 38.5t-66 6.5l4 26h318q121 0 188.5 -102t43.5 -245zM642 336q9 68 8 118t-16.5 86t-34.5 58.5t-45 35.5t-48.5 18t-45.5 5h-112q-29 0 -36.5 -6.5
t-12.5 -32.5l-44 -263h157l-4 -26h-157l-44 -264q-5 -26 0.5 -32.5t34.5 -6.5h112q109 0 191 85q75 88 97 225z" />
    <glyph glyph-name="dcroat" unicode="&#x111;" horiz-adv-x="511" 
d="M479 0l-122 -8l12 73q-63 -73 -146 -73q-76 0 -123 64t-31 159q16 96 87.5 159.5t150.5 63.5q17 0 32 -3.5t26 -9.5t20 -12.5t15.5 -14t11 -13.5t7.5 -11l3 -5l27 167h-156l5 26h156l7 41q6 36 -4 45t-55 9l4 26l121 11l-22 -132h68l-5 -26h-68l-76 -456q-6 -36 4 -45
t55 -9zM378 120l33 198q4 22 -6 42q-29 62 -96 62q-12 0 -25.5 -2.5t-38 -14.5t-44.5 -32.5t-39.5 -62t-28.5 -96.5q-8 -41 -6 -71.5t6.5 -52.5t15.5 -37t21 -24t23 -13.5t21.5 -6t16.5 -1.5q47 0 93 35q47 35 54 77z" />
    <glyph glyph-name="Emacron" unicode="&#x112;" horiz-adv-x="628" 
d="M649 253l-78 -253h-520l4 26q55 0 68.5 6.5t19.5 38.5l90 539q5 32 -7 38.5t-66 6.5l5 26h506l-13 -221h-18q4 50 1 86.5t-17.5 60.5t-48 36t-90.5 12h-137q-29 0 -36.5 -6.5t-11.5 -32.5l-42 -249h94q66 0 89 24.5t34 92.5h18l-44 -260h-18q7 41 5.5 67t-22 38t-66.5 12
h-94l-46 -276q-5 -26 0.5 -32.5t34.5 -6.5h139q33 0 59.5 3t47.5 12t37 17.5t29.5 26.5t22.5 31t19.5 40t16.5 45t17 52h18zM608 747h-340l4 23h340z" />
    <glyph glyph-name="emacron" unicode="&#x113;" horiz-adv-x="406" 
d="M427 251q-2 -12 -7 -16h-290q-18 -104 5 -157q31 -68 102 -68q41 0 81.5 26.5t64.5 75.5q3 5 4 7t2.5 4t3 2.5t4.5 0.5h2t3 -2t2 -5q-6 -30 -55.5 -78.5t-121.5 -48.5q-81 0 -130 65t-34 161q16 93 82.5 158.5t145.5 65.5q81 0 115.5 -54.5t20.5 -136.5zM373 250
q13 83 -10.5 129.5t-75.5 46.5q-41 0 -86.5 -40.5t-66.5 -135.5h239zM472 593h-340l4 23h340z" />
    <glyph glyph-name="Ebreve" unicode="&#x114;" horiz-adv-x="628" 
d="M649 253l-78 -253h-520l4 26q55 0 68.5 6.5t19.5 38.5l90 539q5 32 -7 38.5t-66 6.5l5 26h506l-13 -221h-18q4 50 1 86.5t-17.5 60.5t-48 36t-90.5 12h-137q-29 0 -36.5 -6.5t-11.5 -32.5l-42 -249h94q66 0 89 24.5t34 92.5h18l-44 -260h-18q7 41 5.5 67t-22 38t-66.5 12
h-94l-46 -276q-5 -26 0.5 -32.5t34.5 -6.5h139q33 0 59.5 3t47.5 12t37 17.5t29.5 26.5t22.5 31t19.5 40t16.5 45t17 52h18zM605 911q-14 -76 -62 -125t-106 -49t-89.5 49t-20.5 125h16q-9 -66 19.5 -106t78.5 -40t93 40.5t55 105.5h16z" />
    <glyph glyph-name="ebreve" unicode="&#x115;" horiz-adv-x="406" 
d="M427 251q-2 -12 -7 -16h-290q-18 -104 5 -157q31 -68 102 -68q41 0 81.5 26.5t64.5 75.5q3 5 4 7t2.5 4t3 2.5t4.5 0.5h2t3 -2t2 -5q-6 -30 -55.5 -78.5t-121.5 -48.5q-81 0 -130 65t-34 161q16 93 82.5 158.5t145.5 65.5q81 0 115.5 -54.5t20.5 -136.5zM373 250
q13 83 -10.5 129.5t-75.5 46.5q-41 0 -86.5 -40.5t-66.5 -135.5h239zM457 691q-14 -76 -62 -125t-106 -49t-89.5 49t-20.5 125h16q-9 -65 20 -105.5t79 -40.5t92.5 40.5t54.5 105.5h16z" />
    <glyph glyph-name="Edotaccent" unicode="&#x116;" horiz-adv-x="628" 
d="M649 253l-78 -253h-520l4 26q55 0 68.5 6.5t19.5 38.5l90 539q5 32 -7 38.5t-66 6.5l5 26h506l-13 -221h-18q4 50 1 86.5t-17.5 60.5t-48 36t-90.5 12h-137q-29 0 -36.5 -6.5t-11.5 -32.5l-42 -249h94q66 0 89 24.5t34 92.5h18l-44 -260h-18q7 41 5.5 67t-22 38t-66.5 12
h-94l-46 -276q-5 -26 0.5 -32.5t34.5 -6.5h139q33 0 59.5 3t47.5 12t37 17.5t29.5 26.5t22.5 31t19.5 40t16.5 45t17 52h18zM485 784q-3 -17 -16.5 -29t-31.5 -12q-16 0 -26 11.5t-7 29.5q3 17 16.5 29t31.5 12q16 0 26 -11.5t7 -29.5z" />
    <glyph glyph-name="edotaccent" unicode="&#x117;" horiz-adv-x="406" 
d="M427 251q-2 -12 -7 -16h-290q-18 -104 5 -157q31 -68 102 -68q41 0 81.5 26.5t64.5 75.5q3 5 4 7t2.5 4t3 2.5t4.5 0.5h2t3 -2t2 -5q-6 -30 -55.5 -78.5t-121.5 -48.5q-81 0 -130 65t-34 161q16 93 82.5 158.5t145.5 65.5q81 0 115.5 -54.5t20.5 -136.5zM373 250
q13 83 -10.5 129.5t-75.5 46.5q-41 0 -86.5 -40.5t-66.5 -135.5h239zM344 604q-3 -17 -16.5 -29t-31.5 -12q-16 0 -26 11.5t-7 29.5q2 17 16 29t32 12q16 0 26 -11.5t7 -29.5z" />
    <glyph glyph-name="Eogonek" unicode="&#x118;" horiz-adv-x="628" 
d="M649 253l-78 -253h-109q-81 -50 -89 -95q-6 -32 19.5 -50.5t56.5 -18.5q50 0 86 56q5 8 12.5 5t3.5 -12q-19 -42 -57.5 -69t-76.5 -27q-47 0 -74.5 27.5t-21.5 62.5q10 66 96 121h-366l4 26q55 0 68.5 6.5t19.5 38.5l90 539q5 32 -7 38.5t-66 6.5l5 26h506l-13 -221h-18
q4 50 1 86.5t-17.5 60.5t-48 36t-90.5 12h-137q-29 0 -36.5 -6.5t-11.5 -32.5l-42 -249h94q66 0 89 24.5t34 92.5h18l-44 -260h-18q7 41 5.5 67t-22 38t-66.5 12h-94l-46 -276q-5 -26 0.5 -32.5t34.5 -6.5h139q33 0 59.5 3t47.5 12t37 17.5t29.5 26.5t22.5 31t19.5 40
t16.5 45t17 52h18z" />
    <glyph glyph-name="eogonek" unicode="&#x119;" horiz-adv-x="406" 
d="M427 251q-2 -12 -7 -16h-290q-18 -104 5 -157q31 -68 102 -68q41 0 81.5 26.5t64.5 75.5q3 5 4 7t2.5 4t3 2.5t4.5 0.5h2t3 -2t2 -5q-4 -22 -40.5 -64t-90.5 -57q-25 -15 -40.5 -26t-31 -29.5t-18.5 -37.5q-6 -32 19.5 -50.5t56.5 -18.5q50 0 86 56q5 8 12.5 5t3.5 -12
q-19 -42 -57.5 -69t-76.5 -27q-47 0 -74.5 27.5t-21.5 62.5q10 60 85 114q-77 5 -122.5 69t-30.5 156q16 93 82.5 158.5t145.5 65.5q81 0 115.5 -54.5t20.5 -136.5zM373 250q13 83 -10.5 129.5t-75.5 46.5q-41 0 -86.5 -40.5t-66.5 -135.5h239z" />
    <glyph glyph-name="Ecaron" unicode="&#x11a;" horiz-adv-x="628" 
d="M649 253l-78 -253h-520l4 26q55 0 68.5 6.5t19.5 38.5l90 539q5 32 -7 38.5t-66 6.5l5 26h506l-13 -221h-18q4 50 1 86.5t-17.5 60.5t-48 36t-90.5 12h-137q-29 0 -36.5 -6.5t-11.5 -32.5l-42 -249h94q66 0 89 24.5t34 92.5h18l-44 -260h-18q7 41 5.5 67t-22 38t-66.5 12
h-94l-46 -276q-5 -26 0.5 -32.5t34.5 -6.5h139q33 0 59.5 3t47.5 12t37 17.5t29.5 26.5t22.5 31t19.5 40t16.5 45t17 52h18zM606 844l-171 -117l-131 117l14 16l129 -66l151 66z" />
    <glyph glyph-name="ecaron" unicode="&#x11b;" horiz-adv-x="406" 
d="M427 251q-2 -12 -7 -16h-290q-18 -104 5 -157q31 -68 102 -68q41 0 81.5 26.5t64.5 75.5q3 5 4 7t2.5 4t3 2.5t4.5 0.5h2t3 -2t2 -5q-6 -30 -55.5 -78.5t-121.5 -48.5q-81 0 -130 65t-34 161q16 93 82.5 158.5t145.5 65.5q81 0 115.5 -54.5t20.5 -136.5zM373 250
q13 83 -10.5 129.5t-75.5 46.5q-41 0 -86.5 -40.5t-66.5 -135.5h239zM468 678l-179 -162l-125 162l15 14l121 -108l157 108z" />
    <glyph glyph-name="Gcircumflex" unicode="&#x11c;" horiz-adv-x="726" 
d="M726 242q-45 0 -56 -7t-16 -36l-30 -179q-3 -19 -9 -19q-3 0 -10 8.5t-15 25t-13 35.5q-30 -41 -86.5 -63.5t-119.5 -22.5q-134 0 -213.5 103t-54.5 255q25 151 140 254t246 103q109 0 169 -98l58 84q10 13 14 13q5 0 5.5 -3t-1.5 -16l-39 -237q-2 -14 -4.5 -17t-10.5 -3
q-6 0 -7 1.5t-1 9.5v3q3 106 -44 171.5t-131 65.5q-32 0 -66.5 -9t-74.5 -33t-74 -59.5t-62 -95t-41 -134.5q-15 -92 1 -161t53.5 -104t78.5 -51t84 -16q18 0 40 3.5t54 14t56 37t31 64.5l11 66q5 29 -7.5 38t-73.5 9h-30l5 26l143 -2q81 0 106 2zM638 743l-15 -16l-129 66
l-151 -66l-7 16l170 117z" />
    <glyph glyph-name="gcircumflex" unicode="&#x11d;" 
d="M519 407q-4 -23 -27 -23q-21 0 -18 22q2 18 16 21q-4 3 -14 3q-55 0 -99 -40q31 -38 22 -97q-10 -61 -60.5 -103t-110.5 -42q-51 0 -87 32q-21 -20 -28 -53q-4 -26 7 -45t34 -23q5 -1 69 -1q43 0 69.5 -2.5t66.5 -14t57 -41.5t9 -78q-10 -55 -77.5 -90.5t-152.5 -35.5
q-87 0 -142 36t-46 89q6 36 37 64.5t73 38.5q-39 27 -30 85q9 47 44 81q-37 41 -26 103q10 61 60.5 103t110.5 42q56 0 92 -37q55 45 110 45q23 0 33 -11.5t8 -27.5zM340 293q19 128 -67 128q-31 0 -53.5 -16t-33.5 -41.5t-15.5 -40.5t-6.5 -30q-19 -128 67 -128
q31 0 53.5 16t33.5 41.5t15.5 40.5t6.5 30zM385 -79q4 22 -1.5 39t-21 26.5t-30.5 15.5t-42 8.5t-42.5 3t-43.5 0.5q-54 0 -70 -2.5t-36 -14.5q-43 -29 -51 -76q-7 -43 35.5 -75.5t115.5 -32.5t126.5 32.5t60.5 75.5zM437 530l-15 -14l-121 108l-157 -108l-11 14l179 162z
" />
    <glyph glyph-name="Gbreve" unicode="&#x11e;" horiz-adv-x="726" 
d="M726 242q-45 0 -56 -7t-16 -36l-30 -179q-3 -19 -9 -19q-3 0 -10 8.5t-15 25t-13 35.5q-30 -41 -86.5 -63.5t-119.5 -22.5q-134 0 -213.5 103t-54.5 255q25 151 140 254t246 103q109 0 169 -98l58 84q10 13 14 13q5 0 5.5 -3t-1.5 -16l-39 -237q-2 -14 -4.5 -17t-10.5 -3
q-6 0 -7 1.5t-1 9.5v3q3 106 -44 171.5t-131 65.5q-32 0 -66.5 -9t-74.5 -33t-74 -59.5t-62 -95t-41 -134.5q-15 -92 1 -161t53.5 -104t78.5 -51t84 -16q18 0 40 3.5t54 14t56 37t31 64.5l11 66q5 29 -7.5 38t-73.5 9h-30l5 26l143 -2q81 0 106 2zM654 911q-14 -76 -62 -125
t-106 -49t-89.5 49t-20.5 125h16q-9 -66 19.5 -106t78.5 -40t93 40.5t55 105.5h16z" />
    <glyph glyph-name="gbreve" unicode="&#x11f;" 
d="M519 407q-4 -23 -27 -23q-21 0 -18 22q2 18 16 21q-4 3 -14 3q-55 0 -99 -40q31 -38 22 -97q-10 -61 -60.5 -103t-110.5 -42q-51 0 -87 32q-21 -20 -28 -53q-4 -26 7 -45t34 -23q5 -1 69 -1q43 0 69.5 -2.5t66.5 -14t57 -41.5t9 -78q-10 -55 -77.5 -90.5t-152.5 -35.5
q-87 0 -142 36t-46 89q6 36 37 64.5t73 38.5q-39 27 -30 85q9 47 44 81q-37 41 -26 103q10 61 60.5 103t110.5 42q56 0 92 -37q55 45 110 45q23 0 33 -11.5t8 -27.5zM340 293q19 128 -67 128q-31 0 -53.5 -16t-33.5 -41.5t-15.5 -40.5t-6.5 -30q-19 -128 67 -128
q31 0 53.5 16t33.5 41.5t15.5 40.5t6.5 30zM385 -79q4 22 -1.5 39t-21 26.5t-30.5 15.5t-42 8.5t-42.5 3t-43.5 0.5q-54 0 -70 -2.5t-36 -14.5q-43 -29 -51 -76q-7 -43 35.5 -75.5t115.5 -32.5t126.5 32.5t60.5 75.5zM451 691q-14 -76 -62 -125t-106 -49t-89.5 49t-20.5 125
h16q-9 -65 20 -105.5t79 -40.5t92.5 40.5t54.5 105.5h16z" />
    <glyph glyph-name="Gdotaccent" unicode="&#x120;" horiz-adv-x="726" 
d="M726 242q-45 0 -56 -7t-16 -36l-30 -179q-3 -19 -9 -19q-3 0 -10 8.5t-15 25t-13 35.5q-30 -41 -86.5 -63.5t-119.5 -22.5q-134 0 -213.5 103t-54.5 255q25 151 140 254t246 103q109 0 169 -98l58 84q10 13 14 13q5 0 5.5 -3t-1.5 -16l-39 -237q-2 -14 -4.5 -17t-10.5 -3
q-6 0 -7 1.5t-1 9.5v3q3 106 -44 171.5t-131 65.5q-32 0 -66.5 -9t-74.5 -33t-74 -59.5t-62 -95t-41 -134.5q-15 -92 1 -161t53.5 -104t78.5 -51t84 -16q18 0 40 3.5t54 14t56 37t31 64.5l11 66q5 29 -7.5 38t-73.5 9h-30l5 26l143 -2q81 0 106 2zM534 784q-3 -17 -16.5 -29
t-31.5 -12q-16 0 -26 11.5t-7 29.5q3 17 16.5 29t31.5 12q16 0 26 -11.5t7 -29.5z" />
    <glyph glyph-name="gdotaccent" unicode="&#x121;" 
d="M519 407q-4 -23 -27 -23q-21 0 -18 22q2 18 16 21q-4 3 -14 3q-55 0 -99 -40q31 -38 22 -97q-10 -61 -60.5 -103t-110.5 -42q-51 0 -87 32q-21 -20 -28 -53q-4 -26 7 -45t34 -23q5 -1 69 -1q43 0 69.5 -2.5t66.5 -14t57 -41.5t9 -78q-10 -55 -77.5 -90.5t-152.5 -35.5
q-87 0 -142 36t-46 89q6 36 37 64.5t73 38.5q-39 27 -30 85q9 47 44 81q-37 41 -26 103q10 61 60.5 103t110.5 42q56 0 92 -37q55 45 110 45q23 0 33 -11.5t8 -27.5zM340 293q19 128 -67 128q-31 0 -53.5 -16t-33.5 -41.5t-15.5 -40.5t-6.5 -30q-19 -128 67 -128
q31 0 53.5 16t33.5 41.5t15.5 40.5t6.5 30zM385 -79q4 22 -1.5 39t-21 26.5t-30.5 15.5t-42 8.5t-42.5 3t-43.5 0.5q-54 0 -70 -2.5t-36 -14.5q-43 -29 -51 -76q-7 -43 35.5 -75.5t115.5 -32.5t126.5 32.5t60.5 75.5zM338 604q-3 -17 -16.5 -29t-31.5 -12q-16 0 -26 11.5
t-7 29.5q2 17 16 29t32 12q16 0 26 -11.5t7 -29.5z" />
    <glyph glyph-name="Gcommaaccent" unicode="&#x122;" horiz-adv-x="726" 
d="M726 242q-45 0 -56 -7t-16 -36l-30 -179q-3 -19 -9 -19q-3 0 -10 8.5t-15 25t-13 35.5q-30 -41 -86.5 -63.5t-119.5 -22.5q-134 0 -213.5 103t-54.5 255q25 151 140 254t246 103q109 0 169 -98l58 84q10 13 14 13q5 0 5.5 -3t-1.5 -16l-39 -237q-2 -14 -4.5 -17t-10.5 -3
q-6 0 -7 1.5t-1 9.5v3q3 106 -44 171.5t-131 65.5q-32 0 -66.5 -9t-74.5 -33t-74 -59.5t-62 -95t-41 -134.5q-15 -92 1 -161t53.5 -104t78.5 -51t84 -16q18 0 40 3.5t54 14t56 37t31 64.5l11 66q5 29 -7.5 38t-73.5 9h-30l5 26l143 -2q81 0 106 2zM378 -119
q-6 -37 -25.5 -71t-34.5 -49.5t-19 -15.5q-5 0 -5 6q1 3 5 7q56 55 67 124q3 16 2 21q-11 -12 -26 -12q-13 0 -20.5 8t-5.5 22q5 31 36 31q37 0 26 -71z" />
    <glyph glyph-name="gcommaaccent" unicode="&#x123;" 
d="M323 548q-5 -31 -36 -31q-37 0 -26 71q6 37 25.5 71t34.5 49.5t19 15.5q5 0 5 -6q-1 -3 -4 -7q-57 -54 -68 -124q-2 -12 -2 -21q11 12 26 12q13 0 21 -8t5 -22zM519 407q-4 -23 -27 -23q-21 0 -18 22q2 18 16 21q-4 3 -14 3q-55 0 -99 -40q31 -38 22 -97
q-10 -61 -60.5 -103t-110.5 -42q-51 0 -87 32q-21 -20 -28 -53q-4 -26 7 -45t34 -23q5 -1 69 -1q43 0 69.5 -2.5t66.5 -14t57 -41.5t9 -78q-10 -55 -77.5 -90.5t-152.5 -35.5q-87 0 -142 36t-46 89q6 36 37 64.5t73 38.5q-39 27 -30 85q9 47 44 81q-37 41 -26 103
q10 61 60.5 103t110.5 42q56 0 92 -37q55 45 110 45q23 0 33 -11.5t8 -27.5zM340 293q19 128 -67 128q-31 0 -53.5 -16t-33.5 -41.5t-15.5 -40.5t-6.5 -30q-19 -128 67 -128q31 0 53.5 16t33.5 41.5t15.5 40.5t6.5 30zM385 -79q4 22 -1.5 39t-21 26.5t-30.5 15.5t-42 8.5
t-42.5 3t-43.5 0.5q-54 0 -70 -2.5t-36 -14.5q-43 -29 -51 -76q-7 -43 35.5 -75.5t115.5 -32.5t126.5 32.5t60.5 75.5z" />
    <glyph glyph-name="Hcircumflex" unicode="&#x124;" horiz-adv-x="693" 
d="M641 0q-29 2 -113 2t-113 -2l4 26q55 0 68.5 6.5t19.5 38.5l45 271h-298l-45 -271q-6 -32 5.5 -38.5t66.5 -6.5l-4 -26q-29 2 -113 2t-113 -2l4 26q55 0 68.5 6.5t19.5 38.5l90 541q6 32 -5.5 38.5t-66.5 6.5l4 26q29 -2 113 -2t113 2l-4 -26q-55 0 -68.5 -6.5
t-19.5 -38.5l-41 -244h298l41 244q6 32 -5.5 38.5t-66.5 6.5l4 26q29 -2 113 -2t113 2l-4 -26q-55 0 -68.5 -6.5t-19.5 -38.5l-90 -541q-6 -32 5.5 -38.5t66.5 -6.5zM621 743l-15 -16l-129 66l-151 -66l-7 16l170 117z" />
    <glyph glyph-name="hcircumflex" unicode="&#x125;" horiz-adv-x="511" 
d="M483 0q-24 2 -95 2q-70 0 -94 -2l4 26q47 0 59 7t17 36l39 239q19 114 -63 114q-53 0 -97 -46t-55 -115l-32 -192q-5 -30 4 -36.5t56 -6.5l-4 -26q-24 2 -95 2q-70 0 -94 -2l4 26q47 0 59 7t17 36l89 534q6 36 -4 45t-55 9l4 26l121 11l-59 -355h1q18 35 57 67t93 32
q127 0 106 -134l-39 -235q-5 -30 4 -36.5t56 -6.5zM532 754l-15 -16l-129 66l-151 -66l-7 16l170 117z" />
    <glyph glyph-name="Hbar" unicode="&#x126;" horiz-adv-x="693" 
d="M641 0q-29 2 -113 2t-113 -2l4 26q55 0 68.5 6.5t19.5 38.5l45 271h-298l-45 -271q-6 -32 5.5 -38.5t66.5 -6.5l-4 -26q-29 2 -113 2t-113 -2l4 26q55 0 68.5 6.5t19.5 38.5l71 428h-80l5 26h80l14 87q6 32 -5.5 38.5t-66.5 6.5l4 26q29 -2 113 -2t113 2l-4 -26
q-55 0 -68.5 -6.5t-19.5 -38.5l-14 -87h298l14 87q6 32 -5.5 38.5t-66.5 6.5l4 26q29 -2 113 -2t113 2l-4 -26q-55 0 -68.5 -6.5t-19.5 -38.5l-14 -87h80l-5 -26h-80l-71 -428q-6 -32 5.5 -38.5t66.5 -6.5zM556 368l22 131h-298l-22 -131h298z" />
    <glyph glyph-name="hbar" unicode="&#x127;" horiz-adv-x="511" 
d="M483 0q-24 2 -95 2q-70 0 -94 -2l4 26q47 0 59 7t17 36l39 239q19 114 -63 114q-53 0 -97 -46t-55 -115l-32 -192q-5 -30 4 -36.5t56 -6.5l-4 -26q-24 2 -95 2q-70 0 -94 -2l4 26q47 0 59 7t17 36l77 467h-68l5 26h68l7 41q6 36 -4 45t-55 9l4 26l121 11l-22 -132h103
l-5 -26h-103l-32 -197h1q18 35 57 67t93 32q127 0 106 -134l-39 -235q-5 -30 4 -36.5t56 -6.5z" />
    <glyph glyph-name="Itilde" unicode="&#x128;" horiz-adv-x="328" 
d="M281 0q-32 2 -117 2t-117 -2l4 26q57 0 71.5 6.5t20.5 38.5l90 541q6 32 -6.5 38.5t-69.5 6.5l4 26q32 -2 117 -2t117 2l-4 -26q-57 0 -71.5 -6.5t-20.5 -38.5l-90 -541q-6 -32 6.5 -38.5t69.5 -6.5zM455 802q-33 -30 -46 -41.5t-33 -22.5t-37 -11q-21 0 -54 26
q-31 26 -53 26q-15 0 -30.5 -7.5t-26 -15.5t-36.5 -29l-9 11q61 56 82 67q17 8 33 8q21 0 54 -26t54 -26q15 0 30.5 7t26 15.5t35.5 29.5z" />
    <glyph glyph-name="itilde" unicode="&#x129;" horiz-adv-x="250" 
d="M214 0q-23 2 -88 2q-68 0 -92 -2l4 26q47 0 59 7t17 36l46 278q6 36 -3.5 45t-51.5 9l4 26l117 11l-62 -370q-5 -28 3 -35t51 -7zM388 636q-61 -56 -82 -67q-17 -8 -33 -8q-21 0 -54 26t-54 26q-15 0 -30.5 -7t-26 -15.5t-35.5 -29.5l-10 11q33 30 46 41.5t33 22.5t37 11
q21 0 54 -26q31 -26 53 -26q15 0 30.5 7.5t26 15.5t36.5 29z" />
    <glyph glyph-name="Imacron" unicode="&#x12a;" horiz-adv-x="328" 
d="M281 0q-32 2 -117 2t-117 -2l4 26q57 0 71.5 6.5t20.5 38.5l90 541q6 32 -6.5 38.5t-69.5 6.5l4 26q32 -2 117 -2t117 2l-4 -26q-57 0 -71.5 -6.5t-20.5 -38.5l-90 -541q-6 -32 6.5 -38.5t69.5 -6.5zM458 747h-340l4 23h340z" />
    <glyph glyph-name="imacron" unicode="&#x12b;" horiz-adv-x="250" 
d="M214 0q-23 2 -88 2q-68 0 -92 -2l4 26q47 0 59 7t17 36l46 278q6 36 -3.5 45t-51.5 9l4 26l117 11l-62 -370q-5 -28 3 -35t51 -7zM394 593h-340l4 23h340z" />
    <glyph glyph-name="Ibreve" unicode="&#x12c;" horiz-adv-x="328" 
d="M281 0q-32 2 -117 2t-117 -2l4 26q57 0 71.5 6.5t20.5 38.5l90 541q6 32 -6.5 38.5t-69.5 6.5l4 26q32 -2 117 -2t117 2l-4 -26q-57 0 -71.5 -6.5t-20.5 -38.5l-90 -541q-6 -32 6.5 -38.5t69.5 -6.5zM455 911q-14 -76 -62 -125t-106 -49t-89.5 49t-20.5 125h16
q-9 -66 19.5 -106t78.5 -40t93 40.5t55 105.5h16z" />
    <glyph glyph-name="ibreve" unicode="&#x12d;" horiz-adv-x="250" 
d="M214 0q-23 2 -88 2q-68 0 -92 -2l4 26q47 0 59 7t17 36l46 278q6 36 -3.5 45t-51.5 9l4 26l117 11l-62 -370q-5 -28 3 -35t51 -7zM379 691q-14 -76 -62 -125t-106 -49t-89.5 49t-20.5 125h16q-9 -65 20 -105.5t79 -40.5t92.5 40.5t54.5 105.5h16z" />
    <glyph glyph-name="Iogonek" unicode="&#x12e;" horiz-adv-x="328" 
d="M262 -115q-19 -42 -57.5 -69t-76.5 -27q-47 0 -74.5 27.5t-21.5 62.5q9 58 98 123l-83 -2l4 26q57 0 71.5 6.5t20.5 38.5l90 541q6 32 -6.5 38.5t-69.5 6.5l4 26q32 -2 117 -2t117 2l-4 -26q-57 0 -71.5 -6.5t-20.5 -38.5l-90 -541q-6 -32 6.5 -38.5t69.5 -6.5l-4 -26
q-29 2 -106 2q-31 -15 -59 -41q-28 -30 -32 -56q-6 -32 19.5 -50.5t56.5 -18.5q50 0 86 56q5 8 12.5 5t3.5 -12z" />
    <glyph glyph-name="iogonek" unicode="&#x12f;" horiz-adv-x="250" 
d="M258 616q-3 -17 -17 -29t-31 -12t-27 12t-7 29t17 29t31 12t26.5 -12t7.5 -29zM220 -115q-19 -42 -57.5 -69t-76.5 -27q-47 0 -74.5 27.5t-21.5 62.5q9 56 98 123q-26 0 -54 -2l4 26q47 0 59 7t17 36l46 278q6 36 -3.5 45t-51.5 9l4 26l117 11l-62 -370q-5 -28 3 -35
t51 -7l-4 -26q-21 2 -80 2q-34 -16 -59 -41q-29 -31 -33 -56q-6 -32 19.5 -50.5t56.5 -18.5q50 0 86 56q5 8 12.5 5t3.5 -12z" />
    <glyph glyph-name="Idotaccent" unicode="&#x130;" horiz-adv-x="328" 
d="M281 0q-32 2 -117 2t-117 -2l4 26q57 0 71.5 6.5t20.5 38.5l90 541q6 32 -6.5 38.5t-69.5 6.5l4 26q32 -2 117 -2t117 2l-4 -26q-57 0 -71.5 -6.5t-20.5 -38.5l-90 -541q-6 -32 6.5 -38.5t69.5 -6.5zM335 784q-3 -17 -16.5 -29t-31.5 -12q-16 0 -26 11.5t-7 29.5
q3 17 16.5 29t31.5 12q16 0 26 -11.5t7 -29.5z" />
    <glyph glyph-name="dotlessi" unicode="&#x131;" horiz-adv-x="250" 
d="M214 0q-23 2 -88 2q-68 0 -92 -2l4 26q47 0 59 7t17 36l46 278q6 36 -3.5 45t-51.5 9l4 26l117 11l-62 -370q-5 -28 3 -35t51 -7z" />
    <glyph glyph-name="Jcircumflex" unicode="&#x134;" horiz-adv-x="471" 
d="M529 657q-20 0 -29 -0.5t-19 -5t-14 -13.5q-2 -3 -10 -51l-70 -420q-7 -39 -8 -43q-19 -62 -72.5 -101t-113.5 -39t-94.5 38.5t-26.5 89.5q8 44 50 44q19 0 28.5 -12t6.5 -30q-3 -21 -18.5 -32t-31.5 -11q-5 0 -13 2q11 -40 41.5 -56.5t58.5 -16.5q40 0 77.5 40.5
t48.5 106.5l77 463q5 29 -6 38t-66 9h-24l4 26q42 -2 130 -2l98 2zM580 743l-15 -16l-129 66l-151 -66l-7 16l170 117z" />
    <glyph glyph-name="jcircumflex" unicode="&#x135;" horiz-adv-x="276" 
d="M173 -55q-10 -64 -51.5 -106t-93.5 -42q-39 0 -64 18.5t-20 47.5q7 37 42 37q17 0 24.5 -10.5t5.5 -25.5q-2 -13 -10.5 -21.5t-15 -11t-12.5 -3.5q21 -15 54 -15q69 0 89 128l68 405q6 36 -5 45.5t-60 9.5l4 26l127 11zM382 530l-15 -14l-121 108l-157 -108l-11 14
l179 162z" />
    <glyph glyph-name="Kcommaaccent" unicode="&#x136;" horiz-adv-x="719" 
d="M685 0q-23 2 -88 2q-79 0 -111 -2l4 26q41 0 46 26q1 14 -8 33l-140 290l-150 -127l-29 -177q-6 -32 5.5 -38.5t66.5 -6.5l-4 -26q-29 2 -113 2t-113 -2l4 26q55 0 68.5 6.5t19.5 38.5l90 541q6 32 -5.5 38.5t-66.5 6.5l4 26q29 -2 113 -2t113 2l-4 -26q-55 0 -68.5 -6.5
t-19.5 -38.5l-56 -339l387 333q10 12 12 24q4 25 -25 27l4 26q26 -2 100 -2l65 2l-4 -26q-66 -2 -141 -65l-202 -173l166 -341q16 -34 31.5 -43t52.5 -9zM374 -119q-6 -37 -25.5 -71t-34.5 -49.5t-19 -15.5q-5 0 -5 6q1 3 5 7q56 55 67 124q3 16 2 21q-11 -12 -26 -12
q-13 0 -20.5 8t-5.5 22q5 31 36 31q37 0 26 -71z" />
    <glyph glyph-name="kcommaaccent" unicode="&#x137;" horiz-adv-x="485" 
d="M475 0l-72 2q-68 0 -92 -2l4 26q31 0 34 21q2 11 -15 45l-76 150l-79 -63l-18 -110q-5 -30 4 -36.5t56 -6.5l-4 -26q-24 2 -93 2t-93 -2l4 26q47 0 59 7t17 36l89 534q6 36 -4 45t-55 9l4 26l121 11l-82 -490l174 138q24 19 28 39q3 21 -21 23l5 26q26 -2 97 -2l50 1
q3 1 9 1l-5 -26q-58 -2 -128 -54l-92 -75q-1 -2 4 -11l95 -185q18 -34 31.5 -43.5t47.5 -9.5zM257 -119q-6 -37 -25.5 -71t-34.5 -49.5t-19 -15.5q-5 0 -5 6q1 3 5 7q56 55 67 124q3 16 2 21q-11 -12 -26 -12q-13 0 -20.5 8t-5.5 22q5 31 36 31q37 0 26 -71z" />
    <glyph glyph-name="Lacute" unicode="&#x139;" horiz-adv-x="576" 
d="M584 253l-66 -253h-467l4 26q55 0 68.5 6.5t19.5 38.5l90 541q6 32 -5.5 38.5t-66.5 6.5l4 26q29 -2 116 -2q89 0 130 2l-4 -26h-22q-54 0 -67.5 -8.5t-18.5 -37.5l-91 -546q-5 -26 0.5 -32.5t34.5 -6.5h93q41 0 74.5 9t56.5 28.5t39 38.5t28 49t18 50t14 52h18zM441 863
q-4 -10 -20 -19q-2 -1 -3 -2l-185 -105l-6 13q0 2 11 10l156 122q18 13 24 13q13 0 20 -9.5t3 -22.5z" />
    <glyph glyph-name="lacute" unicode="&#x13a;" horiz-adv-x="250" 
d="M221 0q-24 2 -94 2q-69 0 -93 -2l4 26q47 0 59 7t17 36l89 534q6 36 -4 45t-55 9l4 26l121 11l-104 -625q-5 -30 4 -36.5t56 -6.5zM401 874q-4 -10 -20 -19q-2 -1 -3 -2l-185 -105l-6 13q0 2 11 10l156 122q18 13 24 13q13 0 20 -9.5t3 -22.5z" />
    <glyph glyph-name="Lcommaaccent" unicode="&#x13b;" horiz-adv-x="576" 
d="M584 253l-66 -253h-467l4 26q55 0 68.5 6.5t19.5 38.5l90 541q6 32 -5.5 38.5t-66.5 6.5l4 26q29 -2 116 -2q89 0 130 2l-4 -26h-22q-54 0 -67.5 -8.5t-18.5 -37.5l-91 -546q-5 -26 0.5 -32.5t34.5 -6.5h93q41 0 74.5 9t56.5 28.5t39 38.5t28 49t18 50t14 52h18z
M303 -119q-6 -37 -25.5 -71t-34.5 -49.5t-19 -15.5q-5 0 -5 6q1 3 5 7q56 55 67 124q3 16 2 21q-11 -12 -26 -12q-13 0 -20.5 8t-5.5 22q5 31 36 31q37 0 26 -71z" />
    <glyph glyph-name="lcommaaccent" unicode="&#x13c;" horiz-adv-x="250" 
d="M221 0q-24 2 -94 2q-69 0 -93 -2l4 26q47 0 59 7t17 36l89 534q6 36 -4 45t-55 9l4 26l121 11l-104 -625q-5 -30 4 -36.5t56 -6.5zM140 -119q-6 -37 -25.5 -71t-34.5 -49.5t-19 -15.5q-5 0 -5 6q1 3 5 7q56 55 67 124q3 16 2 21q-11 -12 -26 -12q-13 0 -20.5 8t-5.5 22
q5 31 36 31q37 0 26 -71z" />
    <glyph glyph-name="Lcaron" unicode="&#x13d;" horiz-adv-x="576" 
d="M584 253l-66 -253h-467l4 26q55 0 68.5 6.5t19.5 38.5l90 541q6 32 -5.5 38.5t-66.5 6.5l4 26q29 -2 116 -2q89 0 130 2l-4 -26h-22q-54 0 -67.5 -8.5t-18.5 -37.5l-91 -546q-5 -26 0.5 -32.5t34.5 -6.5h93q41 0 74.5 9t56.5 28.5t39 38.5t28 49t18 50t14 52h18zM520 612
q-6 -37 -25.5 -71t-34.5 -49.5t-19 -15.5q-5 0 -5 6q1 3 5 7q56 55 67 124q3 16 2 21q-11 -12 -26 -12q-13 0 -20.5 8t-5.5 22q5 31 36 31q37 0 26 -71z" />
    <glyph glyph-name="lcaron" unicode="&#x13e;" horiz-adv-x="250" 
d="M221 0q-24 2 -94 2q-69 0 -93 -2l4 26q47 0 59 7t17 36l89 534q6 36 -4 45t-55 9l4 26l121 11l-104 -625q-5 -30 4 -36.5t56 -6.5zM361 623q-6 -37 -25.5 -71t-34.5 -49.5t-19 -15.5q-5 0 -5 6q1 3 4 7q57 54 68 124q2 12 2 21q-11 -12 -26 -12q-13 0 -21 8t-5 22
q5 31 36 31q37 0 26 -71z" />
    <glyph glyph-name="Ldot" unicode="&#x13f;" horiz-adv-x="576" 
d="M584 253l-66 -253h-467l4 26q55 0 68.5 6.5t19.5 38.5l90 541q6 32 -5.5 38.5t-66.5 6.5l4 26q29 -2 116 -2q89 0 130 2l-4 -26h-22q-54 0 -67.5 -8.5t-18.5 -37.5l-91 -546q-5 -26 0.5 -32.5t34.5 -6.5h93q41 0 74.5 9t56.5 28.5t39 38.5t28 49t18 50t14 52h18zM559 402
q-3 -17 -16.5 -29t-31.5 -12q-16 0 -26 11.5t-7 29.5q3 17 16.5 29t31.5 12q16 0 26 -11.5t7 -29.5z" />
    <glyph glyph-name="ldot" unicode="&#x140;" horiz-adv-x="250" 
d="M221 0q-24 2 -94 2q-69 0 -93 -2l4 26q47 0 59 7t17 36l89 534q6 36 -4 45t-55 9l4 26l121 11l-104 -625q-5 -30 4 -36.5t56 -6.5zM353 363q-3 -17 -16.5 -29t-31.5 -12q-16 0 -26 11.5t-7 29.5q2 17 15.5 29t31.5 12q16 0 26.5 -11.5t7.5 -29.5z" />
    <glyph glyph-name="Lslash" unicode="&#x141;" horiz-adv-x="576" 
d="M584 253h-18q-8 -32 -14 -52t-18 -50t-28 -49t-39 -38.5t-56.5 -28.5t-74.5 -9h-93q-29 0 -34.5 6.5t-0.5 32.5l46 279l203 142l-16 26l-180 -126l38 225q5 29 18.5 37.5t67.5 8.5h22l4 26q-41 -2 -130 -2q-87 0 -116 2l-4 -26q55 0 66.5 -6.5t5.5 -38.5l-45 -270
l-100 -72l18 -25l75 55l-38 -229q-6 -32 -19.5 -38.5t-68.5 -6.5l-4 -26h467z" />
    <glyph glyph-name="lslash" unicode="&#x142;" horiz-adv-x="305" 
d="M323 385l-83 -57l-43 -259q-5 -30 4 -36.5t56 -6.5l-4 -26q-24 2 -94 2q-69 0 -93 -2l4 26q47 0 59 7t17 36l36 220l-71 -47l-12 20l89 60l47 281q6 36 -4 45t-55 9l4 26l121 11l-56 -333l66 45z" />
    <glyph glyph-name="Nacute" unicode="&#x143;" horiz-adv-x="693" 
d="M751 657q-28 0 -47 -7t-28 -20.5t-12 -22t-5 -22.5l-94 -563q-2 -15 -4.5 -18.5t-9.5 -3.5q-8 0 -13 12l-270 607q-7 14 -11 18l-90 -539q-2 -14 -2 -22.5t4.5 -22t21 -20.5t44.5 -7l-4 -26q-23 2 -90 2t-90 -2l4 26q28 0 47 7t28 20.5t12 22t5 22.5l93 553q-18 6 -60 6
h-19l4 26h127q14 0 17.5 -2t7.5 -10l244 -549l78 463q2 14 2 22.5t-4.5 22t-21 20.5t-44.5 7l4 26q23 -2 90 -2t90 2zM620 863q-4 -10 -20 -19q-2 -1 -3 -2l-185 -105l-6 13q0 2 11 10l156 122q18 13 24 13q13 0 20 -9.5t3 -22.5z" />
    <glyph glyph-name="nacute" unicode="&#x144;" horiz-adv-x="511" 
d="M483 0q-24 2 -95 2q-70 0 -94 -2l4 26q47 0 59 7t17 36l39 239q19 114 -63 114q-53 0 -97 -46t-55 -115l-32 -192q-5 -30 4 -36.5t56 -6.5l-4 -26q-24 2 -95 2q-70 0 -94 -2l4 26q47 0 59 7t17 36l46 278q6 36 -4 45t-55 9l4 26l120 11l-17 -101h1q21 39 60 70t92 31
q127 0 106 -134l-39 -235q-5 -30 4 -36.5t56 -6.5zM483 669q0 -2 -0.5 -4t-2 -4t-2 -2.5t-2.5 -3t-3 -3t-4 -3.5t-5 -4l-170 -133l-9 12q1 2 9 11l137 144q17 17 29 17q11 0 17.5 -8t5.5 -19z" />
    <glyph glyph-name="Ncommaaccent" unicode="&#x145;" horiz-adv-x="693" 
d="M751 657q-28 0 -47 -7t-28 -20.5t-12 -22t-5 -22.5l-94 -563q-2 -15 -4.5 -18.5t-9.5 -3.5q-8 0 -13 12l-270 607q-7 14 -11 18l-90 -539q-2 -14 -2 -22.5t4.5 -22t21 -20.5t44.5 -7l-4 -26q-23 2 -90 2t-90 -2l4 26q28 0 47 7t28 20.5t12 22t5 22.5l93 553q-18 6 -60 6
h-19l4 26h127q14 0 17.5 -2t7.5 -10l244 -549l78 463q2 14 2 22.5t-4.5 22t-21 20.5t-44.5 7l4 26q23 -2 90 -2t90 2zM361 -119q-6 -37 -25.5 -71t-34.5 -49.5t-19 -15.5q-5 0 -5 6q1 3 5 7q56 55 67 124q3 16 2 21q-11 -12 -26 -12q-13 0 -20.5 8t-5.5 22q5 31 36 31
q37 0 26 -71z" />
    <glyph glyph-name="ncommaaccent" unicode="&#x146;" horiz-adv-x="511" 
d="M483 0q-24 2 -95 2q-70 0 -94 -2l4 26q47 0 59 7t17 36l39 239q19 114 -63 114q-53 0 -97 -46t-55 -115l-32 -192q-5 -30 4 -36.5t56 -6.5l-4 -26q-24 2 -95 2q-70 0 -94 -2l4 26q47 0 59 7t17 36l46 278q6 36 -4 45t-55 9l4 26l120 11l-17 -101h1q21 39 60 70t92 31
q127 0 106 -134l-39 -235q-5 -30 4 -36.5t56 -6.5zM270 -119q-6 -37 -25.5 -71t-34.5 -49.5t-19 -15.5q-5 0 -5 6q1 3 5 7q56 55 67 124q3 16 2 21q-11 -12 -26 -12q-13 0 -20.5 8t-5.5 22q5 31 36 31q37 0 26 -71z" />
    <glyph glyph-name="Ncaron" unicode="&#x147;" horiz-adv-x="693" 
d="M751 657q-28 0 -47 -7t-28 -20.5t-12 -22t-5 -22.5l-94 -563q-2 -15 -4.5 -18.5t-9.5 -3.5q-8 0 -13 12l-270 607q-7 14 -11 18l-90 -539q-2 -14 -2 -22.5t4.5 -22t21 -20.5t44.5 -7l-4 -26q-23 2 -90 2t-90 -2l4 26q28 0 47 7t28 20.5t12 22t5 22.5l93 553q-18 6 -60 6
h-19l4 26h127q14 0 17.5 -2t7.5 -10l244 -549l78 463q2 14 2 22.5t-4.5 22t-21 20.5t-44.5 7l4 26q23 -2 90 -2t90 2zM638 844l-171 -117l-131 117l14 16l129 -66l151 66z" />
    <glyph glyph-name="ncaron" unicode="&#x148;" horiz-adv-x="511" 
d="M483 0q-24 2 -95 2q-70 0 -94 -2l4 26q47 0 59 7t17 36l39 239q19 114 -63 114q-53 0 -97 -46t-55 -115l-32 -192q-5 -30 4 -36.5t56 -6.5l-4 -26q-24 2 -95 2q-70 0 -94 -2l4 26q47 0 59 7t17 36l46 278q6 36 -4 45t-55 9l4 26l120 11l-17 -101h1q21 39 60 70t92 31
q127 0 106 -134l-39 -235q-5 -30 4 -36.5t56 -6.5zM520 678l-179 -162l-125 162l15 14l121 -108l157 108z" />
    <glyph glyph-name="Eng" unicode="&#x14a;" horiz-adv-x="693" 
d="M722 342q-11 -69 -32.5 -130.5t-53 -114t-77.5 -83t-100 -30.5q-15 0 -23.5 10.5t-6.5 25.5q3 15 15 25.5t27 10.5t24 -10.5t6 -25.5q0 -5 -4 -13q24 7 43 24t34 46t25 54t20 69t14.5 68.5t12.5 73.5q13 63 9 123.5t-19 108.5t-51.5 77.5t-89.5 29.5q-60 0 -114.5 -32.5
t-89.5 -86.5l-82 -491q-6 -32 6.5 -38.5t69.5 -6.5l-4 -26q-32 2 -117 2t-117 -2l4 26q57 0 71.5 6.5t20.5 38.5l90 541q6 32 -6.5 38.5t-69.5 6.5l4 26q32 -2 117 -2q11 0 33 2l-15 -87q39 48 92 75.5t110 27.5q83 0 140.5 -51t78.5 -132t5 -174z" />
    <glyph glyph-name="eng" unicode="&#x14b;" horiz-adv-x="463" 
d="M427 69q-48 -280 -181 -280q-11 0 -18 8t-5 19t11.5 19t20.5 8t17.5 -8t4.5 -19v-2q21 10 37 34.5t28 68.5t17 70t15 82l39 239q19 114 -63 114q-53 0 -97 -46t-55 -115l-32 -192q-5 -30 4 -36.5t56 -6.5l-4 -26q-24 2 -95 2q-70 0 -94 -2l4 26q47 0 59 7t17 36l46 278
q6 36 -4 45t-55 9l4 26l120 11l-17 -101h1q21 39 60 70t92 31q127 0 106 -134z" />
    <glyph glyph-name="Omacron" unicode="&#x14c;" horiz-adv-x="720" 
d="M730 340q-25 -149 -135 -252.5t-239 -103.5q-127 0 -202.5 103t-50.5 253q25 151 135 255t239 104q127 0 202.5 -104t50.5 -255zM656 353q13 87 3 149.5t-40 102t-67 58t-79 18.5q-40 0 -83 -19t-85.5 -56t-76 -103t-47.5 -150q-28 -166 28.5 -258.5t150.5 -92.5
q93 0 180.5 91.5t115.5 259.5zM654 747h-340l4 23h340z" />
    <glyph glyph-name="omacron" unicode="&#x14d;" 
d="M467 214q-16 -93 -86 -157.5t-153 -64.5t-132 64.5t-33 157.5q16 95 86.5 161.5t153.5 66.5q82 0 131 -66.5t33 -161.5zM404 222q16 98 -7 144q-31 60 -97 60q-70 0 -121 -65q-36 -49 -51 -139q-15 -97 4 -145q12 -30 38.5 -48.5t60.5 -18.5q69 0 120 65q39 53 53 147z
M498 593h-340l4 23h340z" />
    <glyph glyph-name="Obreve" unicode="&#x14e;" horiz-adv-x="720" 
d="M730 340q-25 -149 -135 -252.5t-239 -103.5q-127 0 -202.5 103t-50.5 253q25 151 135 255t239 104q127 0 202.5 -104t50.5 -255zM656 353q13 87 3 149.5t-40 102t-67 58t-79 18.5q-40 0 -83 -19t-85.5 -56t-76 -103t-47.5 -150q-28 -166 28.5 -258.5t150.5 -92.5
q93 0 180.5 91.5t115.5 259.5zM651 911q-14 -76 -62 -125t-106 -49t-89.5 49t-20.5 125h16q-9 -66 19.5 -106t78.5 -40t93 40.5t55 105.5h16z" />
    <glyph glyph-name="obreve" unicode="&#x14f;" 
d="M467 214q-16 -93 -86 -157.5t-153 -64.5t-132 64.5t-33 157.5q16 95 86.5 161.5t153.5 66.5q82 0 131 -66.5t33 -161.5zM404 222q16 98 -7 144q-31 60 -97 60q-70 0 -121 -65q-36 -49 -51 -139q-15 -97 4 -145q12 -30 38.5 -48.5t60.5 -18.5q69 0 120 65q39 53 53 147z
M483 691q-14 -76 -62 -125t-106 -49t-89.5 49t-20.5 125h16q-9 -65 20 -105.5t79 -40.5t92.5 40.5t54.5 105.5h16z" />
    <glyph glyph-name="Ohungarumlaut" unicode="&#x150;" horiz-adv-x="720" 
d="M730 340q-25 -149 -135 -252.5t-239 -103.5q-127 0 -202.5 103t-50.5 253q25 151 135 255t239 104q127 0 202.5 -104t50.5 -255zM656 353q13 87 3 149.5t-40 102t-67 58t-79 18.5q-40 0 -83 -19t-85.5 -56t-76 -103t-47.5 -150q-28 -166 28.5 -258.5t150.5 -92.5
q93 0 180.5 91.5t115.5 259.5zM511 894q-3 -11 -14 -24l-111 -133q-13 4 -13 10l6 12l78 137q1 1 3 4t2.5 4t2 3.5t2.5 3t2.5 2.5t2.5 2.5t3 2t3.5 1.5t4 0.5t4.5 0.5q10 0 17.5 -7.5t6.5 -18.5zM668 894q-3 -11 -14 -24l-111 -133q-13 4 -13 10l6 12l78 137q1 1 3 4t2.5 4
t2 3.5t2.5 3t2.5 2.5t2.5 2.5t3 2t3.5 1.5t4 0.5t4.5 0.5q10 0 17.5 -7.5t6.5 -18.5z" />
    <glyph glyph-name="ohungarumlaut" unicode="&#x151;" 
d="M467 214q-16 -93 -86 -157.5t-153 -64.5t-132 64.5t-33 157.5q16 95 86.5 161.5t153.5 66.5q82 0 131 -66.5t33 -161.5zM404 222q16 98 -7 144q-31 60 -97 60q-70 0 -121 -65q-36 -49 -51 -139q-15 -97 4 -145q12 -30 38.5 -48.5t60.5 -18.5q69 0 120 65q39 53 53 147z
M343 670q-3 -11 -14 -24l-111 -133q-13 4 -13 10l6 12l78 137q14 24 30 24q10 0 17.5 -7.5t6.5 -18.5zM500 670q-3 -11 -14 -24l-111 -133q-13 4 -13 10l6 12l78 137q14 24 30 24q10 0 17.5 -7.5t6.5 -18.5z" />
    <glyph glyph-name="OE" unicode="&#x152;" horiz-adv-x="942" 
d="M963 253l-78 -253h-376q-26 0 -64 -7q-52 -9 -77 -9q-125 0 -201 102.5t-51 253.5q25 152 136 255.5t236 103.5q26 0 71 -9q37 -7 64 -7h362l-13 -221h-18q4 49 1.5 85.5t-15 61t-44.5 36.5t-86 12h-125q-29 0 -36.5 -6.5t-12.5 -32.5l-42 -250h115q71 0 96 24.5t36 92.5
h18l-43 -260h-18q11 68 -5.5 92.5t-87.5 24.5h-115l-46 -277q-5 -26 0.5 -32.5t34.5 -6.5h124q36 0 64.5 5.5t49.5 13t38.5 25t28.5 31.5t23 43t19 49t19 60h18zM508 186l52 311q18 113 3 149.5t-77 36.5q-95 0 -182.5 -93.5t-111.5 -235.5q-25 -149 29 -251.5t152 -102.5
q61 0 88.5 38t46.5 148z" />
    <glyph glyph-name="oe" unicode="&#x153;" horiz-adv-x="720" 
d="M741 253q-2 -13 -5.5 -15.5t-19.5 -2.5h-265l-3 -19q-17 -103 21 -154.5t94 -51.5q38 0 75 26t60 77q4 9 6 11t7 2q8 0 7 -8q-2 -8 -13 -26.5t-30 -42t-51.5 -40.5t-69.5 -17q-52 0 -92.5 30.5t-58.5 79.5q-34 -50 -82.5 -80t-100.5 -30q-78 0 -125.5 64.5t-31.5 160.5
q17 97 86 161t146 64q52 0 90 -29.5t56 -78.5q33 48 79.5 78t97.5 30q74 0 105.5 -54.5t17.5 -134.5zM687 250q25 176 -74 176q-41 0 -88 -40.5t-70 -135.5h232zM396 222q5 33 5 61t-4 47.5t-12 35t-16.5 25.5t-19.5 17t-19.5 10.5t-18 5.5t-12.5 2h-6q-15 0 -32.5 -5.5
t-46.5 -23t-53.5 -63t-35.5 -112.5q-6 -50 -6 -85.5t11.5 -59.5t22 -37.5t27 -20.5t25.5 -9t18 -2q20 0 42.5 9.5t49.5 31t49 66.5t32 107z" />
    <glyph glyph-name="Racute" unicode="&#x154;" horiz-adv-x="680" 
d="M696 84q-2 -10 -7.5 -23.5t-16.5 -32.5t-31.5 -31.5t-46.5 -12.5q-69 0 -103 45q-17 23 -17.5 55t9.5 80q11 49 8.5 78t-25.5 56q-33 36 -97 36h-117l-44 -263q-6 -32 6 -38.5t66 -6.5l-4 -26q-29 2 -112 2t-112 -2l4 26q54 0 68 6.5t20 38.5l90 541q6 32 -6 38.5
t-66 6.5l4 26h269q103 0 165.5 -53.5t50.5 -125.5q-9 -58 -67.5 -103t-134.5 -60q40 -13 64.5 -33t32 -41t10.5 -44t-1 -41q-2 -44 -2 -58q-2 -32 -2 -47t3 -36.5t14 -31t31 -9.5q26 0 47.5 20.5t32.5 66.5q0 10 10 10q9 0 7 -13zM575 504q14 84 -32.5 118.5t-121.5 34.5
h-73q-29 0 -36.5 -6.5t-12.5 -32.5l-45 -268h114q32 0 61.5 6.5t61.5 22t54.5 47.5t29.5 78zM614 863q-4 -10 -20 -19q-2 -1 -3 -2l-185 -105l-6 13q0 2 11 10l156 122q18 13 24 13q13 0 20 -9.5t3 -22.5z" />
    <glyph glyph-name="racute" unicode="&#x155;" horiz-adv-x="354" 
d="M397 386q-3 -19 -15 -27t-24 -8q-13 0 -22.5 8.5t-6.5 25.5q2 12 9 20t13 11l6 2q-9 4 -21 4q-54 0 -94 -55t-53 -131l-27 -165q-6 -32 6.5 -38.5t69.5 -6.5l-4 -26q-27 2 -107 2q-72 0 -96 -2l4 26q47 0 59 7t17 36l46 278q6 36 -4 45t-55 9l4 26l118 11l-18 -109h1
q18 40 52.5 74.5t84.5 34.5q27 0 44 -14.5t13 -37.5zM405 669q0 -2 -0.5 -4t-2 -4t-2 -2.5t-2.5 -3t-3 -3t-4 -3.5t-5 -4l-170 -133l-9 12q1 2 9 11l137 144q17 17 29 17q11 0 17.5 -8t5.5 -19z" />
    <glyph glyph-name="Rcommaaccent" unicode="&#x156;" horiz-adv-x="680" 
d="M696 84q-2 -10 -7.5 -23.5t-16.5 -32.5t-31.5 -31.5t-46.5 -12.5q-69 0 -103 45q-17 23 -17.5 55t9.5 80q11 49 8.5 78t-25.5 56q-33 36 -97 36h-117l-44 -263q-6 -32 6 -38.5t66 -6.5l-4 -26q-29 2 -112 2t-112 -2l4 26q54 0 68 6.5t20 38.5l90 541q6 32 -6 38.5
t-66 6.5l4 26h269q103 0 165.5 -53.5t50.5 -125.5q-9 -58 -67.5 -103t-134.5 -60q40 -13 64.5 -33t32 -41t10.5 -44t-1 -41q-2 -44 -2 -58q-2 -32 -2 -47t3 -36.5t14 -31t31 -9.5q26 0 47.5 20.5t32.5 66.5q0 10 10 10q9 0 7 -13zM575 504q14 84 -32.5 118.5t-121.5 34.5
h-73q-29 0 -36.5 -6.5t-12.5 -32.5l-45 -268h114q32 0 61.5 6.5t61.5 22t54.5 47.5t29.5 78zM355 -119q-6 -37 -25.5 -71t-34.5 -49.5t-19 -15.5q-5 0 -5 6q1 3 5 7q56 55 67 124q3 16 2 21q-11 -12 -26 -12q-13 0 -20.5 8t-5.5 22q5 31 36 31q37 0 26 -71z" />
    <glyph glyph-name="rcommaaccent" unicode="&#x157;" horiz-adv-x="354" 
d="M397 386q-3 -19 -15 -27t-24 -8q-13 0 -22.5 8.5t-6.5 25.5q2 12 9 20t13 11l6 2q-9 4 -21 4q-54 0 -94 -55t-53 -131l-27 -165q-6 -32 6.5 -38.5t69.5 -6.5l-4 -26q-27 2 -107 2q-72 0 -96 -2l4 26q47 0 59 7t17 36l46 278q6 36 -4 45t-55 9l4 26l118 11l-18 -109h1
q18 40 52.5 74.5t84.5 34.5q27 0 44 -14.5t13 -37.5zM140 -119q-6 -37 -25.5 -71t-34.5 -49.5t-19 -15.5q-5 0 -5 6q1 3 5 7q56 55 67 124q3 16 2 21q-11 -12 -26 -12q-13 0 -20.5 8t-5.5 22q5 31 36 31q37 0 26 -71z" />
    <glyph glyph-name="Rcaron" unicode="&#x158;" horiz-adv-x="680" 
d="M696 84q-2 -10 -7.5 -23.5t-16.5 -32.5t-31.5 -31.5t-46.5 -12.5q-69 0 -103 45q-17 23 -17.5 55t9.5 80q11 49 8.5 78t-25.5 56q-33 36 -97 36h-117l-44 -263q-6 -32 6 -38.5t66 -6.5l-4 -26q-29 2 -112 2t-112 -2l4 26q54 0 68 6.5t20 38.5l90 541q6 32 -6 38.5
t-66 6.5l4 26h269q103 0 165.5 -53.5t50.5 -125.5q-9 -58 -67.5 -103t-134.5 -60q40 -13 64.5 -33t32 -41t10.5 -44t-1 -41q-2 -44 -2 -58q-2 -32 -2 -47t3 -36.5t14 -31t31 -9.5q26 0 47.5 20.5t32.5 66.5q0 10 10 10q9 0 7 -13zM575 504q14 84 -32.5 118.5t-121.5 34.5
h-73q-29 0 -36.5 -6.5t-12.5 -32.5l-45 -268h114q32 0 61.5 6.5t61.5 22t54.5 47.5t29.5 78zM632 844l-171 -117l-131 117l14 16l129 -66l151 66z" />
    <glyph glyph-name="rcaron" unicode="&#x159;" horiz-adv-x="354" 
d="M397 386q-3 -19 -15 -27t-24 -8q-13 0 -22.5 8.5t-6.5 25.5q2 12 9 20t13 11l6 2q-9 4 -21 4q-54 0 -94 -55t-53 -131l-27 -165q-6 -32 6.5 -38.5t69.5 -6.5l-4 -26q-27 2 -107 2q-72 0 -96 -2l4 26q47 0 59 7t17 36l46 278q6 36 -4 45t-55 9l4 26l118 11l-18 -109h1
q18 40 52.5 74.5t84.5 34.5q27 0 44 -14.5t13 -37.5zM442 678l-179 -162l-125 162l15 14l121 -108l157 108z" />
    <glyph glyph-name="Sacute" unicode="&#x15a;" horiz-adv-x="511" 
d="M494 181q-13 -81 -76 -139t-143 -58q-47 0 -94.5 18t-73.5 62q-25 -36 -27 -43q-16 -25 -20.5 -30.5t-9.5 -5.5q-4 0 -4.5 2.5t1.5 16.5l33 202q3 15 5 18t8 3q4 0 5 -1t1.5 -4.5t-0.5 -11.5q-11 -99 41.5 -149.5t139.5 -50.5q62 0 107.5 45.5t55.5 103.5q7 44 -9.5 83.5
t-54.5 56.5q-8 3 -86 25q-48 13 -66 19t-38.5 20t-34.5 36q-33 51 -22 117q13 76 75.5 129.5t139.5 53.5q103 0 145 -80l41 66q9 13 14 13t5.5 -3t-1.5 -16l-34 -203q-2 -13 -3.5 -16.5t-8.5 -3.5q-5 0 -6.5 3t-1.5 16q5 95 -34.5 147.5t-118.5 52.5q-61 0 -106 -42t-54 -94
q-8 -54 22 -95q15 -19 33 -28t61 -20q58 -15 62 -17q30 -8 46 -14t38 -25t37 -49q22 -49 11 -110zM529 863q-4 -10 -20 -19q-2 -1 -3 -2l-185 -105l-6 13q0 2 11 10l156 122q18 13 24 13q13 0 20 -9.5t3 -22.5z" />
    <glyph glyph-name="sacute" unicode="&#x15b;" horiz-adv-x="359" 
d="M354 124q-10 -60 -55.5 -96t-118.5 -36t-102 53l-35 -43q-7 -9 -12 -9t-5.5 2.5t1.5 16.5l24 144q2 14 4.5 17.5t8.5 3.5t6.5 -2t1.5 -13q3 -75 26.5 -114.5t83.5 -39.5q62 0 94 28.5t38 67.5q6 38 -23 70q-12 12 -30 18t-70 17q-127 27 -112 117q8 49 51 82.5t120 33.5
q61 0 88 -35l18 18q15 16 20 16q4 0 4.5 -2.5t-1.5 -16.5l-18 -112q-2 -13 -4 -16.5t-9 -3.5t-8 6q16 132 -93 132q-46 0 -76.5 -16t-39.5 -32t-12 -33q-3 -18 3.5 -31.5t15 -21.5t28 -15.5t30 -10.5t33.5 -8q26 -5 40 -8.5t31 -13t29 -24.5q33 -36 25 -90zM407 669
q0 -2 -0.5 -4t-2 -4t-2 -2.5t-2.5 -3t-3 -3t-4 -3.5t-5 -4l-170 -133l-9 12q1 2 9 11l137 144q17 17 29 17q11 0 17.5 -8t5.5 -19z" />
    <glyph glyph-name="Scircumflex" unicode="&#x15c;" horiz-adv-x="511" 
d="M494 181q-13 -81 -76 -139t-143 -58q-47 0 -94.5 18t-73.5 62q-25 -36 -27 -43q-16 -25 -20.5 -30.5t-9.5 -5.5q-4 0 -4.5 2.5t1.5 16.5l33 202q3 15 5 18t8 3q4 0 5 -1t1.5 -4.5t-0.5 -11.5q-11 -99 41.5 -149.5t139.5 -50.5q62 0 107.5 45.5t55.5 103.5q7 44 -9.5 83.5
t-54.5 56.5q-8 3 -86 25q-48 13 -66 19t-38.5 20t-34.5 36q-33 51 -22 117q13 76 75.5 129.5t139.5 53.5q103 0 145 -80l41 66q9 13 14 13t5.5 -3t-1.5 -16l-34 -203q-2 -13 -3.5 -16.5t-8.5 -3.5q-5 0 -6.5 3t-1.5 16q5 95 -34.5 147.5t-118.5 52.5q-61 0 -106 -42t-54 -94
q-8 -54 22 -95q15 -19 33 -28t61 -20q58 -15 62 -17q30 -8 46 -14t38 -25t37 -49q22 -49 11 -110zM530 743l-15 -16l-129 66l-151 -66l-7 16l170 117z" />
    <glyph glyph-name="scircumflex" unicode="&#x15d;" horiz-adv-x="359" 
d="M354 124q-10 -60 -55.5 -96t-118.5 -36t-102 53l-35 -43q-7 -9 -12 -9t-5.5 2.5t1.5 16.5l24 144q2 14 4.5 17.5t8.5 3.5t6.5 -2t1.5 -13q3 -75 26.5 -114.5t83.5 -39.5q62 0 94 28.5t38 67.5q6 38 -23 70q-12 12 -30 18t-70 17q-127 27 -112 117q8 49 51 82.5t120 33.5
q61 0 88 -35l18 18q15 16 20 16q4 0 4.5 -2.5t-1.5 -16.5l-18 -112q-2 -13 -4 -16.5t-9 -3.5t-8 6q16 132 -93 132q-46 0 -76.5 -16t-39.5 -32t-12 -33q-3 -18 3.5 -31.5t15 -21.5t28 -15.5t30 -10.5t33.5 -8q26 -5 40 -8.5t31 -13t29 -24.5q33 -36 25 -90zM419 530l-15 -14
l-121 108l-157 -108l-11 14l179 162z" />
    <glyph glyph-name="Scedilla" unicode="&#x15e;" horiz-adv-x="511" 
d="M494 181q-13 -81 -76 -139t-143 -58h-5l-5 -32q42 0 69.5 -21t21.5 -55q-3 -22 -20.5 -37t-37.5 -22.5t-56.5 -11.5t-58.5 -4.5t-64 -0.5h-18l3 18h9q31 0 48 0.5t44.5 3.5t42.5 8.5t28 17t16 28.5q4 26 -15.5 42t-50.5 16l9 53q-92 14 -128 77q-25 -36 -27 -43
q-16 -25 -20.5 -30.5t-9.5 -5.5q-4 0 -4.5 2.5t1.5 16.5l33 202q3 15 5 18t8 3q4 0 5 -1t1.5 -4.5t-0.5 -11.5q-11 -99 41.5 -149.5t139.5 -50.5q62 0 107.5 45.5t55.5 103.5q7 44 -9.5 83.5t-54.5 56.5q-8 3 -86 25q-48 13 -66 19t-38.5 20t-34.5 36q-33 51 -22 117
q13 76 75.5 129.5t139.5 53.5q103 0 145 -80l41 66q9 13 14 13t5.5 -3t-1.5 -16l-34 -203q-2 -13 -3.5 -16.5t-8.5 -3.5q-5 0 -6.5 3t-1.5 16q5 95 -34.5 147.5t-118.5 52.5q-61 0 -106 -42t-54 -94q-8 -54 22 -95q15 -19 33 -28t61 -20q58 -15 62 -17q30 -8 46 -14t38 -25
t37 -49q22 -49 11 -110z" />
    <glyph glyph-name="scedilla" unicode="&#x15f;" horiz-adv-x="359" 
d="M354 124q-9 -56 -50.5 -91.5t-106.5 -39.5l-7 -41q42 0 69 -20.5t21 -55.5q-3 -22 -20.5 -37t-37 -22.5t-56 -11.5t-59 -4.5t-64.5 -0.5h-18l3 18h9q32 0 49 0.5t44.5 3.5t42 8.5t27.5 17t16 28.5q4 26 -15 42t-50 16l10 59q-56 6 -83 52l-35 -43q-7 -9 -12 -9t-5.5 2.5
t1.5 16.5l24 144q2 14 4.5 17.5t8.5 3.5t6.5 -2t1.5 -13q3 -75 26.5 -114.5t83.5 -39.5q62 0 94 28.5t38 67.5q6 38 -23 70q-12 12 -30 18t-70 17q-127 27 -112 117q8 49 51 82.5t120 33.5q61 0 88 -35l18 18q15 16 20 16q4 0 4.5 -2.5t-1.5 -16.5l-18 -112q-2 -13 -4 -16.5
t-9 -3.5t-8 6q16 132 -93 132q-46 0 -76.5 -16t-39.5 -32t-12 -33q-3 -18 3.5 -31.5t15 -21.5t28 -15.5t30 -10.5t33.5 -8q26 -5 40 -8.5t31 -13t29 -24.5q33 -36 25 -90z" />
    <glyph glyph-name="Scaron" unicode="&#x160;" horiz-adv-x="511" 
d="M494 181q-13 -81 -76 -139t-143 -58q-47 0 -94.5 18t-73.5 62q-25 -36 -27 -43q-16 -25 -20.5 -30.5t-9.5 -5.5q-4 0 -4.5 2.5t1.5 16.5l33 202q3 15 5 18t8 3q4 0 5 -1t1.5 -4.5t-0.5 -11.5q-11 -99 41.5 -149.5t139.5 -50.5q62 0 107.5 45.5t55.5 103.5q7 44 -9.5 83.5
t-54.5 56.5q-8 3 -86 25q-48 13 -66 19t-38.5 20t-34.5 36q-33 51 -22 117q13 76 75.5 129.5t139.5 53.5q103 0 145 -80l41 66q9 13 14 13t5.5 -3t-1.5 -16l-34 -203q-2 -13 -3.5 -16.5t-8.5 -3.5q-5 0 -6.5 3t-1.5 16q5 95 -34.5 147.5t-118.5 52.5q-61 0 -106 -42t-54 -94
q-8 -54 22 -95q15 -19 33 -28t61 -20q58 -15 62 -17q30 -8 46 -14t38 -25t37 -49q22 -49 11 -110zM547 844l-171 -117l-131 117l14 16l129 -66l151 66z" />
    <glyph glyph-name="scaron" unicode="&#x161;" horiz-adv-x="359" 
d="M354 124q-10 -60 -55.5 -96t-118.5 -36t-102 53l-35 -43q-7 -9 -12 -9t-5.5 2.5t1.5 16.5l24 144q2 14 4.5 17.5t8.5 3.5t6.5 -2t1.5 -13q3 -75 26.5 -114.5t83.5 -39.5q62 0 94 28.5t38 67.5q6 38 -23 70q-12 12 -30 18t-70 17q-127 27 -112 117q8 49 51 82.5t120 33.5
q61 0 88 -35l18 18q15 16 20 16q4 0 4.5 -2.5t-1.5 -16.5l-18 -112q-2 -13 -4 -16.5t-9 -3.5t-8 6q16 132 -93 132q-46 0 -76.5 -16t-39.5 -32t-12 -33q-3 -18 3.5 -31.5t15 -21.5t28 -15.5t30 -10.5t33.5 -8q26 -5 40 -8.5t31 -13t29 -24.5q33 -36 25 -90zM444 678
l-179 -162l-125 162l15 14l121 -108l157 108z" />
    <glyph glyph-name="Tcedilla" unicode="&#x162;" horiz-adv-x="668" 
d="M716 459h-18q7 49 4.5 84t-7 56.5t-24 33.5t-47 16.5t-75.5 4.5q-47 0 -55 -1q-13 -3 -17 -11t-7 -27l-91 -542q-5 -29 7 -38t71 -9h28l-4 -26l-129 2l-8 -50q42 0 69.5 -21t21.5 -55q-3 -22 -20.5 -37t-37.5 -22.5t-56.5 -11.5t-59 -4.5t-64.5 -0.5h-18l3 18h9
q32 0 49 0.5t44.5 3.5t42.5 8.5t28 17t16 28.5q4 26 -15.5 42t-50.5 16l11 68l-129 -2l4 26h28q59 0 74 9t20 38l91 542q2 15 2 20.5t-3 11t-12 6.5q-8 1 -55 1q-48 0 -77.5 -5t-51.5 -15t-36.5 -35.5t-24.5 -55t-23 -84.5h-18l53 221h577z" />
    <glyph glyph-name="tcedilla" unicode="&#x163;" horiz-adv-x="354" 
d="M299 -124q-3 -18 -14 -32t-31.5 -22t-39 -12.5t-50.5 -6.5t-50.5 -2.5t-53.5 -0.5h-18l3 18h9q40 0 61.5 1t52.5 6t47 17.5t20 33.5q4 26 -16 42t-51 16l11 62q-27 7 -42.5 25t-18 41t-2 35.5t2.5 25.5l46 281h-87l3 16q60 1 99.5 56t55.5 139h18l-31 -185h140l-5 -26
h-140l-47 -283q-10 -61 6.5 -86t44.5 -25q31 0 55 31.5t33 83.5l9 56h18l-9 -57q-10 -57 -41 -94t-73 -38l-7 -40q42 0 70 -21t22 -55z" />
    <glyph glyph-name="Tcaron" unicode="&#x164;" horiz-adv-x="668" 
d="M716 459h-18q7 49 4.5 84t-7 56.5t-24 33.5t-47 16.5t-75.5 4.5q-47 0 -55 -1q-13 -3 -17 -11t-7 -27l-91 -542q-5 -29 7 -38t71 -9h28l-4 -26l-147 2l-147 -2l4 26h28q59 0 74 9t20 38l91 542q2 15 2 20.5t-3 11t-12 6.5q-8 1 -55 1q-48 0 -77.5 -5t-51.5 -15
t-36.5 -35.5t-24.5 -55t-23 -84.5h-18l53 221h577zM626 844l-171 -117l-131 117l14 16l129 -66l151 66z" />
    <glyph glyph-name="tcaron" unicode="&#x165;" horiz-adv-x="354" 
d="M328 124q-10 -57 -41 -94.5t-74 -37.5q-33 0 -54.5 12t-30 28t-11 37t-1.5 32.5t3 21.5l46 281h-87l3 16q60 1 99.5 56t55.5 139h18l-31 -185h140l-5 -26h-140l-47 -283q-10 -61 6.5 -86t44.5 -25q31 0 55 31.5t33 83.5l9 56h18zM355 601q-6 -37 -25 -71t-34.5 -49.5
t-18.5 -15.5q-7 0 -5 6q0 3 4 7q56 55 67 124q3 16 2 21q-11 -12 -26 -12q-13 0 -20.5 8t-5.5 22q5 31 36 31q37 0 26 -71z" />
    <glyph glyph-name="Utilde" unicode="&#x168;" horiz-adv-x="693" 
d="M751 657q-80 0 -91 -62l-63 -380q-13 -82 -83 -156.5t-161 -74.5q-90 0 -146 70t-38 175l64 383q6 32 -5.5 38.5t-66.5 6.5l4 26q29 -2 113 -2t113 2l-4 -26q-55 0 -68.5 -6.5t-19.5 -38.5l-65 -388q-13 -94 12 -145q16 -32 46 -50.5t68 -18.5q74 0 138 61t80 158l60 356
q2 14 2 22.5t-4.5 22t-21 20.5t-44.5 7l4 26q23 -2 91 -2q67 0 90 2zM658 802q-33 -30 -46 -41.5t-33 -22.5t-37 -11q-21 0 -54 26q-31 26 -53 26q-15 0 -30.5 -7.5t-26 -15.5t-36.5 -29l-9 11q61 56 82 67q17 8 33 8q21 0 54 -26t54 -26q15 0 30.5 7t26 15.5t35.5 29.5z
" />
    <glyph glyph-name="utilde" unicode="&#x169;" horiz-adv-x="511" 
d="M483 0l-120 -8l15 93h-1q-9 -17 -22.5 -34.5t-47 -38t-71.5 -20.5q-71 0 -104 39q-10 13 -12 35t0 41.5t9 61.5l32 192q4 27 -10 33.5t-51 6.5l4 26l123 11l-55 -329q-3 -27 -3 -49.5t18.5 -37t56.5 -14.5q54 0 94.5 46t51.5 111l30 182q6 36 -4 45t-55 9l4 26l123 11
l-60 -358q-6 -36 4 -45t55 -9zM518 636q-61 -56 -82 -67q-17 -8 -33 -8q-21 0 -54 26t-54 26q-15 0 -30.5 -7t-26 -15.5t-35.5 -29.5l-10 11q33 30 46 41.5t33 22.5t37 11q21 0 54 -26q31 -26 53 -26q15 0 30.5 7.5t26 15.5t36.5 29z" />
    <glyph glyph-name="Umacron" unicode="&#x16a;" horiz-adv-x="693" 
d="M751 657q-80 0 -91 -62l-63 -380q-13 -82 -83 -156.5t-161 -74.5q-90 0 -146 70t-38 175l64 383q6 32 -5.5 38.5t-66.5 6.5l4 26q29 -2 113 -2t113 2l-4 -26q-55 0 -68.5 -6.5t-19.5 -38.5l-65 -388q-13 -94 12 -145q16 -32 46 -50.5t68 -18.5q74 0 138 61t80 158l60 356
q2 14 2 22.5t-4.5 22t-21 20.5t-44.5 7l4 26q23 -2 91 -2q67 0 90 2zM661 747h-340l4 23h340z" />
    <glyph glyph-name="umacron" unicode="&#x16b;" horiz-adv-x="511" 
d="M483 0l-120 -8l15 93h-1q-9 -17 -22.5 -34.5t-47 -38t-71.5 -20.5q-71 0 -104 39q-10 13 -12 35t0 41.5t9 61.5l32 192q4 27 -10 33.5t-51 6.5l4 26l123 11l-55 -329q-3 -27 -3 -49.5t18.5 -37t56.5 -14.5q54 0 94.5 46t51.5 111l30 182q6 36 -4 45t-55 9l4 26l123 11
l-60 -358q-6 -36 4 -45t55 -9zM524 593h-340l4 23h340z" />
    <glyph glyph-name="Ubreve" unicode="&#x16c;" horiz-adv-x="693" 
d="M751 657q-80 0 -91 -62l-63 -380q-13 -82 -83 -156.5t-161 -74.5q-90 0 -146 70t-38 175l64 383q6 32 -5.5 38.5t-66.5 6.5l4 26q29 -2 113 -2t113 2l-4 -26q-55 0 -68.5 -6.5t-19.5 -38.5l-65 -388q-13 -94 12 -145q16 -32 46 -50.5t68 -18.5q74 0 138 61t80 158l60 356
q2 14 2 22.5t-4.5 22t-21 20.5t-44.5 7l4 26q23 -2 91 -2q67 0 90 2zM658 911q-14 -76 -62 -125t-106 -49t-89.5 49t-20.5 125h16q-9 -66 19.5 -106t78.5 -40t93 40.5t55 105.5h16z" />
    <glyph glyph-name="ubreve" unicode="&#x16d;" horiz-adv-x="511" 
d="M483 0l-120 -8l15 93h-1q-9 -17 -22.5 -34.5t-47 -38t-71.5 -20.5q-71 0 -104 39q-10 13 -12 35t0 41.5t9 61.5l32 192q4 27 -10 33.5t-51 6.5l4 26l123 11l-55 -329q-3 -27 -3 -49.5t18.5 -37t56.5 -14.5q54 0 94.5 46t51.5 111l30 182q6 36 -4 45t-55 9l4 26l123 11
l-60 -358q-6 -36 4 -45t55 -9zM509 691q-14 -76 -62 -125t-106 -49t-89.5 49t-20.5 125h16q-9 -65 20 -105.5t79 -40.5t92.5 40.5t54.5 105.5h16z" />
    <glyph glyph-name="Uring" unicode="&#x16e;" horiz-adv-x="693" 
d="M751 657q-80 0 -91 -62l-63 -380q-13 -82 -83 -156.5t-161 -74.5q-90 0 -146 70t-38 175l64 383q6 32 -5.5 38.5t-66.5 6.5l4 26q29 -2 113 -2t113 2l-4 -26q-55 0 -68.5 -6.5t-19.5 -38.5l-65 -388q-13 -94 12 -145q16 -32 46 -50.5t68 -18.5q74 0 138 61t80 158l60 356
q2 14 2 22.5t-4.5 22t-21 20.5t-44.5 7l4 26q23 -2 91 -2q67 0 90 2zM561 795q5 31 -8.5 48t-42.5 17q-28 0 -48 -17t-25 -48q-4 -31 9.5 -48t42.5 -17q28 0 47.5 17t24.5 48zM586 795q-6 -37 -35.5 -62.5t-65.5 -25.5t-57.5 25.5t-15.5 62.5q7 37 36.5 62.5t65.5 25.5
t57.5 -25.5t14.5 -62.5z" />
    <glyph glyph-name="uring" unicode="&#x16f;" horiz-adv-x="511" 
d="M483 0l-120 -8l15 93h-1q-9 -17 -22.5 -34.5t-47 -38t-71.5 -20.5q-71 0 -104 39q-10 13 -12 35t0 41.5t9 61.5l32 192q4 27 -10 33.5t-51 6.5l4 26l123 11l-55 -329q-3 -27 -3 -49.5t18.5 -37t56.5 -14.5q54 0 94.5 46t51.5 111l30 182q6 36 -4 45t-55 9l4 26l123 11
l-60 -358q-6 -36 4 -45t55 -9zM418 608q5 31 -8.5 48t-42.5 17q-28 0 -48 -17t-25 -48q-4 -31 9.5 -48t42.5 -17q28 0 47.5 17t24.5 48zM443 608q-6 -37 -35.5 -62.5t-65.5 -25.5t-57.5 25.5t-15.5 62.5q7 37 36.5 62.5t65.5 25.5t57.5 -25.5t14.5 -62.5z" />
    <glyph glyph-name="Uhungarumlaut" unicode="&#x170;" horiz-adv-x="693" 
d="M751 657q-80 0 -91 -62l-63 -380q-13 -82 -83 -156.5t-161 -74.5q-90 0 -146 70t-38 175l64 383q6 32 -5.5 38.5t-66.5 6.5l4 26q29 -2 113 -2t113 2l-4 -26q-55 0 -68.5 -6.5t-19.5 -38.5l-65 -388q-13 -94 12 -145q16 -32 46 -50.5t68 -18.5q74 0 138 61t80 158l60 356
q2 14 2 22.5t-4.5 22t-21 20.5t-44.5 7l4 26q23 -2 91 -2q67 0 90 2zM518 894q-3 -11 -14 -24l-111 -133q-13 4 -13 10l6 12l78 137q1 1 3 4t2.5 4t2 3.5t2.5 3t2.5 2.5t2.5 2.5t3 2t3.5 1.5t4 0.5t4.5 0.5q10 0 17.5 -7.5t6.5 -18.5zM675 894q-3 -11 -14 -24l-111 -133
q-13 4 -13 10l6 12l78 137q1 1 3 4t2.5 4t2 3.5t2.5 3t2.5 2.5t2.5 2.5t3 2t3.5 1.5t4 0.5t4.5 0.5q10 0 17.5 -7.5t6.5 -18.5z" />
    <glyph glyph-name="uhungarumlaut" unicode="&#x171;" horiz-adv-x="511" 
d="M483 0l-120 -8l15 93h-1q-9 -17 -22.5 -34.5t-47 -38t-71.5 -20.5q-71 0 -104 39q-10 13 -12 35t0 41.5t9 61.5l32 192q4 27 -10 33.5t-51 6.5l4 26l123 11l-55 -329q-3 -27 -3 -49.5t18.5 -37t56.5 -14.5q54 0 94.5 46t51.5 111l30 182q6 36 -4 45t-55 9l4 26l123 11
l-60 -358q-6 -36 4 -45t55 -9zM369 670q-3 -11 -14 -24l-111 -133q-13 4 -13 10l6 12l78 137q14 24 30 24q10 0 17.5 -7.5t6.5 -18.5zM526 670q-3 -11 -14 -24l-111 -133q-13 4 -13 10l6 12l78 137q14 24 30 24q10 0 17.5 -7.5t6.5 -18.5z" />
    <glyph glyph-name="Uogonek" unicode="&#x172;" horiz-adv-x="693" 
d="M751 657q-80 0 -91 -62l-63 -380q-13 -82 -83 -156.5t-161 -74.5h-10q-17 -12 -28 -23q-29 -31 -33 -56q-6 -32 19.5 -50.5t56.5 -18.5q50 0 86 56q5 8 12.5 5t3.5 -12q-19 -42 -57.5 -69t-76.5 -27q-47 0 -74.5 27.5t-21.5 62.5q8 50 81 110q-73 16 -115 82.5t-27 157.5
l64 383q6 32 -5.5 38.5t-66.5 6.5l4 26q29 -2 113 -2t113 2l-4 -26q-55 0 -68.5 -6.5t-19.5 -38.5l-65 -388q-13 -94 12 -145q16 -32 46 -50.5t68 -18.5q74 0 138 61t80 158l60 356q2 14 2 22.5t-4.5 22t-21 20.5t-44.5 7l4 26q23 -2 91 -2q67 0 90 2z" />
    <glyph glyph-name="uogonek" unicode="&#x173;" horiz-adv-x="511" 
d="M504 -115q-19 -42 -57.5 -69t-76.5 -27q-47 0 -74.5 27.5t-21.5 62.5q8 52 89 116l15 90h-1q-9 -17 -22.5 -34.5t-47 -38t-71.5 -20.5q-71 0 -104 39q-10 13 -12 35t0 41.5t9 61.5l32 192q4 27 -10 33.5t-51 6.5l4 26l123 11l-55 -329q-3 -27 -3 -49.5t18.5 -37
t56.5 -14.5q54 0 94.5 46t51.5 111l30 182q6 36 -4 45t-55 9l4 26l123 11l-60 -358q-6 -36 4 -45t55 -9l-4 -26l-80 -5q-19 -11 -45 -34q-28 -30 -32 -56q-6 -32 19.5 -50.5t56.5 -18.5q50 0 86 56q5 8 12.5 5t3.5 -12z" />
    <glyph glyph-name="Wcircumflex" unicode="&#x174;" horiz-adv-x="955" 
d="M1055 657q-63 -2 -93 -64l-286 -592q-5 -12 -7.5 -14.5t-9.5 -2.5q-6 0 -8.5 3t-3.5 13l-80 542l-260 -542q-7 -16 -18 -16q-6 0 -7 2t-3 10q-1 3 -1 5l-92 618q-3 25 -13.5 31.5t-53.5 6.5l4 26q24 -2 94 -2q81 0 110 2l-4 -26q-64 0 -69 -28q-1 -4 2 -18l76 -519
l225 467q5 7 5 13q1 2 -3 29.5t-6 34.5q-5 13 -17 17t-47 4l4 26q23 -2 93 -2q81 0 110 2l-4 -26q-63 0 -68 -28q-1 -2 1 -18l76 -520l238 494q7 16 8 22q3 20 -10.5 34.5t-44.5 15.5l4 26q24 -2 93 -2l70 2zM752 743l-15 -16l-129 66l-151 -66l-7 16l170 117z" />
    <glyph glyph-name="wcircumflex" unicode="&#x175;" horiz-adv-x="668" 
d="M724 404q-55 -4 -85 -62l-170 -334q-7 -16 -17 -16q-11 0 -13 17l-54 302l-153 -302q-9 -17 -19 -17q-11 0 -13 16l-63 360q-4 24 -15 30t-45 6l5 26q20 -2 76 -2q67 0 92 2l-5 -26q-50 0 -54 -26q0 -9 2 -18l51 -289l137 268q-8 48 -16.5 56.5t-49.5 8.5l5 26
q22 -2 73 -2q66 0 90 2l-5 -26q-50 0 -54 -26q0 -2 2 -19l53 -295l139 272q7 16 8 23q3 19 -7.5 31.5t-33.5 13.5l5 26q16 -2 78 -2q21 0 61 2zM573 530l-15 -14l-121 108l-157 -108l-11 14l179 162z" />
    <glyph glyph-name="Ycircumflex" unicode="&#x176;" horiz-adv-x="693" 
d="M800 657q-72 0 -122 -63l-254 -321l-33 -198q-7 -36 4.5 -42.5t67.5 -6.5l-4 -26q-29 2 -113 2q-83 0 -112 -2l4 26q54 0 68 6.5t20 38.5l34 202l-163 352q-9 21 -25 26.5t-60 5.5l4 26q24 -2 100 -2q82 0 114 2l-4 -26q-49 0 -53 -20q-1 -6 5 -20l144 -315l229 289
q16 21 18 33q5 31 -32 33l4 26q24 -2 89 -2q51 0 74 2zM621 743l-15 -16l-129 66l-151 -66l-7 16l170 117z" />
    <glyph glyph-name="ycircumflex" unicode="&#x177;" horiz-adv-x="485" 
d="M541 404q-58 0 -94 -62l-251 -439q-61 -106 -132 -106q-35 0 -57 20t-17 49q6 33 38 33q15 0 22 -9.5t5 -22.5q-5 -30 -39 -33q18 -21 51 -21q16 0 29 4.5t27.5 18.5t24.5 25t27 39t26 44t31 56l-88 367q-5 24 -16 30.5t-51 6.5l5 26q21 -2 80 -2q68 0 93 2l-5 -26
q-47 0 -51 -24q-1 -8 2 -20l70 -292l154 270q10 17 12 27q5 36 -33 39l5 26q19 -2 73 -2l64 2zM482 530l-15 -14l-121 108l-157 -108l-11 14l179 162z" />
    <glyph glyph-name="Ydieresis" unicode="&#x178;" horiz-adv-x="693" 
d="M800 657q-72 0 -122 -63l-254 -321l-33 -198q-7 -36 4.5 -42.5t67.5 -6.5l-4 -26q-29 2 -113 2q-83 0 -112 -2l4 26q54 0 68 6.5t20 38.5l34 202l-163 352q-9 21 -25 26.5t-60 5.5l4 26q24 -2 100 -2q82 0 114 2l-4 -26q-49 0 -53 -20q-1 -6 5 -20l144 -315l229 289
q16 21 18 33q5 31 -32 33l4 26q24 -2 89 -2q51 0 74 2zM431 764q-2 -15 -14 -26t-28 -11q-15 0 -23.5 10.5t-6.5 26.5q2 15 14.5 25.5t27.5 10.5t24 -10.5t6 -25.5zM587 764q-2 -15 -14 -26t-28 -11q-15 0 -23.5 10.5t-6.5 26.5q2 15 14.5 25.5t27.5 10.5t24 -10.5t6 -25.5z
" />
    <glyph glyph-name="Zacute" unicode="&#x179;" horiz-adv-x="563" 
d="M565 261l-58 -261h-439q-11 0 -14.5 0.5t-6 3.5t0.5 9q1 7 10 19l492 625h-165q-112 0 -161 -49t-70 -146h-18l47 221h425q16 0 18.5 -3t0.5 -17l-500 -635h174q40 0 72 7t54.5 16t41 28.5t29 34t21 44.5t15 48t13.5 55h18zM555 863q-4 -10 -20 -19q-2 -1 -3 -2
l-185 -105l-6 13q0 2 11 10l156 122q18 13 24 13q13 0 20 -9.5t3 -22.5z" />
    <glyph glyph-name="zacute" unicode="&#x17a;" horiz-adv-x="406" 
d="M402 180l-44 -180h-316q-16 0 -18.5 2t-0.5 13l352 399h-122q-43 0 -69.5 -7t-43 -27t-25 -41.5t-18.5 -63.5h-18l36 155h304q20 0 20 -5q1 -1 0 -4q0 -4 -10 -14l-343 -389h128q45 0 74 9t47.5 31.5t28 48.5t20.5 73h18zM431 669q0 -2 -0.5 -4t-2 -4t-2 -2.5t-2.5 -3
t-3 -3t-4 -3.5t-5 -4l-170 -133l-9 12q1 2 9 11l137 144q17 17 29 17q11 0 17.5 -8t5.5 -19z" />
    <glyph glyph-name="Zdotaccent" unicode="&#x17b;" horiz-adv-x="563" 
d="M565 261l-58 -261h-439q-11 0 -14.5 0.5t-6 3.5t0.5 9q1 7 10 19l492 625h-165q-112 0 -161 -49t-70 -146h-18l47 221h425q16 0 18.5 -3t0.5 -17l-500 -635h174q40 0 72 7t54.5 16t41 28.5t29 34t21 44.5t15 48t13.5 55h18zM453 784q-3 -17 -16.5 -29t-31.5 -12
q-16 0 -26 11.5t-7 29.5q3 17 16.5 29t31.5 12q16 0 26 -11.5t7 -29.5z" />
    <glyph glyph-name="zdotaccent" unicode="&#x17c;" horiz-adv-x="406" 
d="M402 180l-44 -180h-316q-16 0 -18.5 2t-0.5 13l352 399h-122q-43 0 -69.5 -7t-43 -27t-25 -41.5t-18.5 -63.5h-18l36 155h304q20 0 20 -5q1 -1 0 -4q0 -4 -10 -14l-343 -389h128q45 0 74 9t47.5 31.5t28 48.5t20.5 73h18zM344 604q-3 -17 -16.5 -29t-31.5 -12
q-16 0 -26 11.5t-7 29.5q2 17 16 29t32 12q16 0 26 -11.5t7 -29.5z" />
    <glyph glyph-name="Zcaron" unicode="&#x17d;" horiz-adv-x="563" 
d="M565 261l-58 -261h-439q-11 0 -14.5 0.5t-6 3.5t0.5 9q1 7 10 19l492 625h-165q-112 0 -161 -49t-70 -146h-18l47 221h425q16 0 18.5 -3t0.5 -17l-500 -635h174q40 0 72 7t54.5 16t41 28.5t29 34t21 44.5t15 48t13.5 55h18zM573 844l-171 -117l-131 117l14 16l129 -66
l151 66z" />
    <glyph glyph-name="zcaron" unicode="&#x17e;" horiz-adv-x="406" 
d="M402 180l-44 -180h-316q-16 0 -18.5 2t-0.5 13l352 399h-122q-43 0 -69.5 -7t-43 -27t-25 -41.5t-18.5 -63.5h-18l36 155h304q20 0 20 -5q1 -1 0 -4q0 -4 -10 -14l-343 -389h128q45 0 74 9t47.5 31.5t28 48.5t20.5 73h18zM468 678l-179 -162l-125 162l15 14l121 -108
l157 108z" />
    <glyph glyph-name="longs" unicode="&#x17f;" horiz-adv-x="276" 
d="M420 641q-3 -18 -15 -26t-25 -8t-22 8t-6 26q2 11 10.5 19.5t16.5 11.5l8 3q-14 11 -37 11q-34 0 -64.5 -37.5t-40.5 -97.5l-80 -480q-6 -32 6.5 -38.5t69.5 -6.5l-4 -26q-27 2 -107 2q-72 0 -96 -2l4 26q49 0 60 6.5t16 36.5l55 335h-80l5 26h80l20 119q12 73 61 113
t99 40q31 0 50.5 -16.5t15.5 -44.5z" />
    <glyph glyph-name="Ereversed" unicode="&#x18e;" horiz-adv-x="628" 
d="M607 0h-520l6 253h18q-1 -37 0 -68t5 -56t15 -44.5t29.5 -32.5t49.5 -19.5t74 -6.5h139q29 0 36.5 6.5t12.5 32.5l46 276h-94q-66 0 -89 -24.5t-34 -92.5h-18l44 260h18q-7 -41 -5.5 -67t22 -38t66.5 -12h94l42 249q4 26 -1.5 32.5t-34.5 6.5h-137q-57 0 -94 -10.5
t-60.5 -38.5t-36.5 -58.5t-28 -87.5h-18l61 221h506l-5 -26q-54 0 -68 -6.5t-19 -38.5l-90 -539q-6 -32 5.5 -38.5t66.5 -6.5z" />
    <glyph glyph-name="florin" unicode="&#x192;" horiz-adv-x="276" 
d="M420 641q-3 -18 -15 -26t-25 -8t-22 8t-6 26q4 27 35 34q-14 11 -37 11q-34 0 -65.5 -37.5t-41.5 -97.5l-20 -121h116l-5 -26h-114l-55 -333q-6 -32 6.5 -38.5t69.5 -6.5l-4 -26q-27 2 -107 2q-72 0 -96 -2l4 26q47 0 59 7t17 36l55 335h-80l5 26h80l20 119q12 73 61 113
t99 40q31 0 50.5 -16.5t15.5 -44.5z" />
    <glyph glyph-name="Ohorn" unicode="&#x1a0;" horiz-adv-x="720" 
d="M725 340q-25 -147 -133 -251q-107 -104 -236 -104q-128 0 -200 104q-74 104 -48 251q24 148 132 253t235 105q83 0 148 -49q30 6 52 35q-4 -1 -13 -1q-20 0 -28.5 12.5t-5.5 28.5q2 17 15 29.5t33 12.5q18 0 27 -14.5t6 -34.5q-5 -29 -24.5 -52t-44.5 -30q23 -21 36 -42
q73 -105 49 -253zM646 355q24 143 -23 231q-24 43 -63 69t-87 26q-49 0 -96.5 -26t-84.5 -69q-77 -89 -101 -231q-25 -156 21 -250q21 -46 59.5 -74t88.5 -28q99 0 183 102q79 99 103 250z" />
    <glyph glyph-name="ohorn" unicode="&#x1a1;" horiz-adv-x="462" 
d="M466 214q-16 -92 -85 -157q-70 -65 -152 -65t-129 65q-49 66 -33 157q16 94 86 161q67 67 151 67q66 0 112 -46q31 6 53 36q-8 -2 -13 -2q-20 0 -29 12.5t-6 29.5q2 17 15.5 29t33.5 12q18 0 27 -14.5t5 -34.5q-5 -30 -25.5 -53.5t-47.5 -28.5q2 -4 5 -7q48 -69 32 -161z
M402 224q17 94 -8 144q-28 58 -93 58q-64 0 -112 -58q-38 -46 -56 -144q-17 -104 7 -154q27 -60 92 -60q66 0 113 60q40 49 57 154z" />
    <glyph glyph-name="Uhorn" unicode="&#x1af;" horiz-adv-x="694" 
d="M770 716q-6 -36 -36.5 -61.5t-69.5 -29.5l-66 -397q-17 -101 -88 -172q-69 -71 -155 -71q-93 0 -148 71q-53 72 -36 172l66 394q4 23 -9 29t-68 6l4 26l117 -2l116 2l-4 -26q-55 0 -70 -6q-15 -5 -19 -29l-66 -394q-16 -101 15 -156q35 -61 107 -61q76 0 137 61
q62 62 78 156l61 367q5 32 -13 46q-18 16 -59 16l4 26l95 -2q3 0 11 2l-7 -40q49 7 73 43q-8 -3 -16 -3q-20 0 -29 12.5t-6 28.5q2 17 15.5 29.5t33.5 12.5q18 0 27 -15t5 -35z" />
    <glyph glyph-name="uhorn" unicode="&#x1b0;" horiz-adv-x="514" 
d="M583 463q-6 -35 -37 -59t-72 -30l-49 -294q-5 -37 4 -45q8 -9 51 -9l-4 -26l-112 -8l16 96q-23 -43 -59.5 -69.5t-78.5 -26.5q-68 0 -98 31q-27 32 -17 97l38 226q6 36 -4 45q-8 10 -51 10l4 26l114 11l-53 -318q-10 -63 4 -86q16 -26 69 -26q50 0 91 45t52 108l31 185
q6 36 -4 45q-9 10 -51 10l4 26l114 11l-7 -43q47 8 70 37q-8 -2 -12 -2q-19 0 -28 12.5t-6 29.5q2 17 15.5 29t32.5 12q18 0 27.5 -15t5.5 -35z" />
    <glyph glyph-name="Acaron" unicode="&#x1cd;" horiz-adv-x="693" 
d="M669 0q-24 2 -100 2q-83 0 -112 -2l4 26q62 0 67 27q1 5 -2 18l-32 170h-262l-78 -149q-5 -9 -7 -20q-1 -8 0.5 -17t13 -18.5t32.5 -10.5l-4 -26q-24 2 -89 2q-59 0 -77 -2l4 26q71 0 105 65l312 600q9 16 20 16q7 0 9.5 -3t4.5 -13l118 -628q4 -26 18.5 -31.5t58.5 -5.5
zM490 267l-65 344l-179 -344h244zM638 844l-171 -117l-131 117l14 16l129 -66l151 66z" />
    <glyph glyph-name="acaron" unicode="&#x1ce;" 
d="M464 89q-6 -36 -25 -58.5t-35 -28.5t-30 -6q-32 0 -48 24.5t-12 59.5q-23 -42 -61.5 -65t-80.5 -23q-31 0 -60 8t-51 31.5t-16 59.5q14 79 102 123q73 36 192 40l8 44q10 59 -16.5 93.5t-67.5 34.5q-32 0 -67 -19t-56 -62q6 2 12 2q14 0 23.5 -9.5t6.5 -26.5
q-3 -19 -16 -27.5t-26 -8.5q-6 0 -12.5 1.5t-13.5 11t-4 26.5q8 51 54 89.5t104 38.5q65 0 107 -43q24 -27 26.5 -60t-8.5 -80l-24 -144q-9 -33 -5.5 -64.5t30.5 -31.5q9 0 17.5 4t19 20.5t15.5 44.5l9 57h18zM320 139l17 100q-87 -5 -141 -33q-77 -39 -90 -115
q-5 -35 16.5 -59t58.5 -24q46 0 87.5 35t51.5 96zM494 678l-179 -162l-125 162l15 14l121 -108l157 108z" />
    <glyph glyph-name="Icaron" unicode="&#x1cf;" horiz-adv-x="328" 
d="M281 0q-32 2 -117 2t-117 -2l4 26q57 0 71.5 6.5t20.5 38.5l90 541q6 32 -6.5 38.5t-69.5 6.5l4 26q32 -2 117 -2t117 2l-4 -26q-57 0 -71.5 -6.5t-20.5 -38.5l-90 -541q-6 -32 6.5 -38.5t69.5 -6.5zM456 844l-171 -117l-131 117l14 16l129 -66l151 66z" />
    <glyph glyph-name="icaron" unicode="&#x1d0;" horiz-adv-x="250" 
d="M214 0q-23 2 -88 2q-68 0 -92 -2l4 26q47 0 59 7t17 36l46 278q6 36 -3.5 45t-51.5 9l4 26l117 11l-62 -370q-5 -28 3 -35t51 -7zM390 678l-179 -162l-125 162l15 14l121 -108l157 108z" />
    <glyph glyph-name="Ocaron" unicode="&#x1d1;" horiz-adv-x="720" 
d="M730 340q-25 -149 -135 -252.5t-239 -103.5q-127 0 -202.5 103t-50.5 253q25 151 135 255t239 104q127 0 202.5 -104t50.5 -255zM656 353q13 87 3 149.5t-40 102t-67 58t-79 18.5q-40 0 -83 -19t-85.5 -56t-76 -103t-47.5 -150q-28 -166 28.5 -258.5t150.5 -92.5
q93 0 180.5 91.5t115.5 259.5zM652 844l-171 -117l-131 117l14 16l129 -66l151 66z" />
    <glyph glyph-name="ocaron" unicode="&#x1d2;" 
d="M467 214q-16 -93 -86 -157.5t-153 -64.5t-132 64.5t-33 157.5q16 95 86.5 161.5t153.5 66.5q82 0 131 -66.5t33 -161.5zM404 222q16 98 -7 144q-31 60 -97 60q-70 0 -121 -65q-36 -49 -51 -139q-15 -97 4 -145q12 -30 38.5 -48.5t60.5 -18.5q69 0 120 65q39 53 53 147z
M494 678l-179 -162l-125 162l15 14l121 -108l157 108z" />
    <glyph glyph-name="Ucaron" unicode="&#x1d3;" horiz-adv-x="693" 
d="M751 657q-80 0 -91 -62l-63 -380q-13 -82 -83 -156.5t-161 -74.5q-90 0 -146 70t-38 175l64 383q6 32 -5.5 38.5t-66.5 6.5l4 26q29 -2 113 -2t113 2l-4 -26q-55 0 -68.5 -6.5t-19.5 -38.5l-65 -388q-13 -94 12 -145q16 -32 46 -50.5t68 -18.5q74 0 138 61t80 158l60 356
q2 14 2 22.5t-4.5 22t-21 20.5t-44.5 7l4 26q23 -2 91 -2q67 0 90 2zM659 844l-171 -117l-131 117l14 16l129 -66l151 66z" />
    <glyph glyph-name="ucaron" unicode="&#x1d4;" horiz-adv-x="511" 
d="M483 0l-120 -8l15 93h-1q-9 -17 -22.5 -34.5t-47 -38t-71.5 -20.5q-71 0 -104 39q-10 13 -12 35t0 41.5t9 61.5l32 192q4 27 -10 33.5t-51 6.5l4 26l123 11l-55 -329q-3 -27 -3 -49.5t18.5 -37t56.5 -14.5q54 0 94.5 46t51.5 111l30 182q6 36 -4 45t-55 9l4 26l123 11
l-60 -358q-6 -36 4 -45t55 -9zM520 678l-179 -162l-125 162l15 14l121 -108l157 108z" />
    <glyph glyph-name="Udieresisacute" unicode="&#x1d7;" horiz-adv-x="693" 
d="M751 657q-80 0 -91 -62l-63 -380q-13 -82 -83 -156.5t-161 -74.5q-90 0 -146 70t-38 175l64 383q6 32 -5.5 38.5t-66.5 6.5l4 26q29 -2 113 -2t113 2l-4 -26q-55 0 -68.5 -6.5t-19.5 -38.5l-65 -388q-13 -94 12 -145q16 -32 46 -50.5t68 -18.5q74 0 138 61t80 158l60 356
q2 14 2 22.5t-4.5 22t-21 20.5t-44.5 7l4 26q23 -2 91 -2q67 0 90 2zM452 764q-2 -15 -14 -26t-28 -11q-15 0 -23.5 10.5t-6.5 26.5q2 15 14.5 25.5t27.5 10.5t24 -10.5t6 -25.5zM608 764q-2 -15 -14 -26t-28 -11q-15 0 -23.5 10.5t-6.5 26.5q2 15 14.5 25.5t27.5 10.5
t24 -10.5t6 -25.5zM660 980q-4 -10 -20 -19q-2 -1 -3 -2l-185 -105l-6 13q0 2 11 10l156 122q18 13 24 13q13 0 20 -9.5t3 -22.5z" />
    <glyph glyph-name="udieresisacute" unicode="&#x1d8;" horiz-adv-x="511" 
d="M483 0l-120 -8l15 93h-1q-9 -17 -22.5 -34.5t-47 -38t-71.5 -20.5q-71 0 -104 39q-10 13 -12 35t0 41.5t9 61.5l32 192q4 27 -10 33.5t-51 6.5l4 26l123 11l-55 -329q-3 -27 -3 -49.5t18.5 -37t56.5 -14.5q54 0 94.5 46t51.5 111l30 182q6 36 -4 45t-55 9l4 26l123 11
l-60 -358q-6 -36 4 -45t55 -9zM326 605q-2 -15 -14 -26t-28 -11q-15 0 -24 10.5t-6 26.5q2 15 14.5 25.5t27.5 10.5t23.5 -10.5t6.5 -25.5zM458 605q-2 -15 -14 -26t-28 -11q-15 0 -24 10.5t-6 26.5q2 15 14.5 25.5t27.5 10.5t23.5 -10.5t6.5 -25.5zM523 824q-4 -10 -20 -19
q-2 -1 -3 -2l-185 -105l-6 13q0 2 11 10l156 122q18 13 24 13q13 0 20 -9.5t3 -22.5z" />
    <glyph glyph-name="Udieresiscaron" unicode="&#x1d9;" horiz-adv-x="693" 
d="M751 657q-80 0 -91 -62l-63 -380q-13 -82 -83 -156.5t-161 -74.5q-90 0 -146 70t-38 175l64 383q6 32 -5.5 38.5t-66.5 6.5l4 26q29 -2 113 -2t113 2l-4 -26q-55 0 -68.5 -6.5t-19.5 -38.5l-65 -388q-13 -94 12 -145q16 -32 46 -50.5t68 -18.5q74 0 138 61t80 158l60 356
q2 14 2 22.5t-4.5 22t-21 20.5t-44.5 7l4 26q23 -2 91 -2q67 0 90 2zM452 764q-2 -15 -14 -26t-28 -11q-15 0 -23.5 10.5t-6.5 26.5q2 15 14.5 25.5t27.5 10.5t24 -10.5t6 -25.5zM608 764q-2 -15 -14 -26t-28 -11q-15 0 -23.5 10.5t-6.5 26.5q2 15 14.5 25.5t27.5 10.5
t24 -10.5t6 -25.5zM678 961l-171 -117l-131 117l14 16l129 -66l151 66z" />
    <glyph glyph-name="udieresiscaron" unicode="&#x1da;" horiz-adv-x="511" 
d="M483 0l-120 -8l15 93h-1q-9 -17 -22.5 -34.5t-47 -38t-71.5 -20.5q-71 0 -104 39q-10 13 -12 35t0 41.5t9 61.5l32 192q4 27 -10 33.5t-51 6.5l4 26l123 11l-55 -329q-3 -27 -3 -49.5t18.5 -37t56.5 -14.5q54 0 94.5 46t51.5 111l30 182q6 36 -4 45t-55 9l4 26l123 11
l-60 -358q-6 -36 4 -45t55 -9zM326 605q-2 -15 -14 -26t-28 -11q-15 0 -24 10.5t-6 26.5q2 15 14.5 25.5t27.5 10.5t23.5 -10.5t6.5 -25.5zM458 605q-2 -15 -14 -26t-28 -11q-15 0 -24 10.5t-6 26.5q2 15 14.5 25.5t27.5 10.5t23.5 -10.5t6.5 -25.5zM541 805l-171 -117
l-131 117l14 16l129 -66l151 66z" />
    <glyph glyph-name="Udieresisgrave" unicode="&#x1db;" horiz-adv-x="693" 
d="M751 657q-80 0 -91 -62l-63 -380q-13 -82 -83 -156.5t-161 -74.5q-90 0 -146 70t-38 175l64 383q6 32 -5.5 38.5t-66.5 6.5l4 26q29 -2 113 -2t113 2l-4 -26q-55 0 -68.5 -6.5t-19.5 -38.5l-65 -388q-13 -94 12 -145q16 -32 46 -50.5t68 -18.5q74 0 138 61t80 158l60 356
q2 14 2 22.5t-4.5 22t-21 20.5t-44.5 7l4 26q23 -2 91 -2q67 0 90 2zM452 764q-2 -15 -14 -26t-28 -11q-15 0 -23.5 10.5t-6.5 26.5q2 15 14.5 25.5t27.5 10.5t24 -10.5t6 -25.5zM608 764q-2 -15 -14 -26t-28 -11q-15 0 -23.5 10.5t-6.5 26.5q2 15 14.5 25.5t27.5 10.5
t24 -10.5t6 -25.5zM577 867q-9 -11 -10 -13l-151 105q-14 16 -15 21q0 13 9.5 22.5t22.5 9.5q6 0 21 -13l116 -122z" />
    <glyph glyph-name="udieresisgrave" unicode="&#x1dc;" horiz-adv-x="511" 
d="M483 0l-120 -8l15 93h-1q-9 -17 -22.5 -34.5t-47 -38t-71.5 -20.5q-71 0 -104 39q-10 13 -12 35t0 41.5t9 61.5l32 192q4 27 -10 33.5t-51 6.5l4 26l123 11l-55 -329q-3 -27 -3 -49.5t18.5 -37t56.5 -14.5q54 0 94.5 46t51.5 111l30 182q6 36 -4 45t-55 9l4 26l123 11
l-60 -358q-6 -36 4 -45t55 -9zM326 605q-2 -15 -14 -26t-28 -11q-15 0 -24 10.5t-6 26.5q2 15 14.5 25.5t27.5 10.5t23.5 -10.5t6.5 -25.5zM458 605q-2 -15 -14 -26t-28 -11q-15 0 -24 10.5t-6 26.5q2 15 14.5 25.5t27.5 10.5t23.5 -10.5t6.5 -25.5zM440 711q-9 -11 -10 -13
l-151 105q-14 16 -15 21q0 13 9.5 22.5t22.5 9.5q6 0 21 -13l116 -122z" />
    <glyph glyph-name="eturned" unicode="&#x1dd;" horiz-adv-x="406" 
d="M421 216q-15 -93 -81.5 -158.5t-145.5 -65.5q-81 0 -115.5 54.5t-20.5 136.5q1 11 6 16h290q18 106 -5 157q-14 32 -41 50t-60 18q-41 0 -81.5 -26.5t-64.5 -75.5q-7 -14 -15 -14h-2t-3 2t-1 5q4 29 54.5 78t122.5 49q81 0 130 -65t33 -161zM351 184h-239
q-13 -83 10 -129.5t75 -46.5q42 0 87.5 40.5t66.5 135.5z" />
    <glyph glyph-name="Gcaron" unicode="&#x1e6;" horiz-adv-x="726" 
d="M726 242q-45 0 -56 -7t-16 -36l-30 -179q-3 -19 -9 -19q-3 0 -10 8.5t-15 25t-13 35.5q-30 -41 -86.5 -63.5t-119.5 -22.5q-134 0 -213.5 103t-54.5 255q25 151 140 254t246 103q109 0 169 -98l58 84q10 13 14 13q5 0 5.5 -3t-1.5 -16l-39 -237q-2 -14 -4.5 -17t-10.5 -3
q-6 0 -7 1.5t-1 9.5v3q3 106 -44 171.5t-131 65.5q-32 0 -66.5 -9t-74.5 -33t-74 -59.5t-62 -95t-41 -134.5q-15 -92 1 -161t53.5 -104t78.5 -51t84 -16q18 0 40 3.5t54 14t56 37t31 64.5l11 66q5 29 -7.5 38t-73.5 9h-30l5 26l143 -2q81 0 106 2zM655 844l-171 -117
l-131 117l14 16l129 -66l151 66z" />
    <glyph glyph-name="gcaron" unicode="&#x1e7;" 
d="M519 407q-4 -23 -27 -23q-21 0 -18 22q2 18 16 21q-4 3 -14 3q-55 0 -99 -40q31 -38 22 -97q-10 -61 -60.5 -103t-110.5 -42q-51 0 -87 32q-21 -20 -28 -53q-4 -26 7 -45t34 -23q5 -1 69 -1q43 0 69.5 -2.5t66.5 -14t57 -41.5t9 -78q-10 -55 -77.5 -90.5t-152.5 -35.5
q-87 0 -142 36t-46 89q6 36 37 64.5t73 38.5q-39 27 -30 85q9 47 44 81q-37 41 -26 103q10 61 60.5 103t110.5 42q56 0 92 -37q55 45 110 45q23 0 33 -11.5t8 -27.5zM340 293q19 128 -67 128q-31 0 -53.5 -16t-33.5 -41.5t-15.5 -40.5t-6.5 -30q-19 -128 67 -128
q31 0 53.5 16t33.5 41.5t15.5 40.5t6.5 30zM385 -79q4 22 -1.5 39t-21 26.5t-30.5 15.5t-42 8.5t-42.5 3t-43.5 0.5q-54 0 -70 -2.5t-36 -14.5q-43 -29 -51 -76q-7 -43 35.5 -75.5t115.5 -32.5t126.5 32.5t60.5 75.5zM462 678l-179 -162l-125 162l15 14l121 -108l157 108z
" />
    <glyph glyph-name="Oogonek" unicode="&#x1ea;" horiz-adv-x="720" 
d="M730 340q-25 -148 -133.5 -251t-237.5 -105q-9 -7 -27 -23q-29 -31 -33 -56q-6 -32 19.5 -50.5t56.5 -18.5q50 0 86 56q5 8 12.5 5t3.5 -12q-19 -42 -57.5 -69t-76.5 -27q-47 0 -74.5 27.5t-21.5 62.5q8 50 78 107q-115 14 -180.5 114t-41.5 240q25 151 135 255t239 104
q127 0 202.5 -104t50.5 -255zM656 353q13 87 3 149.5t-40 102t-67 58t-79 18.5q-40 0 -83 -19t-85.5 -56t-76 -103t-47.5 -150q-28 -166 28.5 -258.5t150.5 -92.5q93 0 180.5 91.5t115.5 259.5z" />
    <glyph glyph-name="oogonek" unicode="&#x1eb;" 
d="M467 214q-16 -93 -85.5 -157t-152.5 -65q-23 -14 -40 -31q-29 -31 -33 -56q-6 -32 19.5 -50.5t56.5 -18.5q50 0 86 56q5 8 12.5 5t3.5 -12q-19 -42 -57.5 -69t-76.5 -27q-47 0 -74.5 27.5t-21.5 62.5q8 52 89 116q-69 14 -106.5 75t-23.5 144q16 95 86.5 161.5
t153.5 66.5q82 0 131 -66.5t33 -161.5zM404 222q16 98 -7 144q-31 60 -97 60q-70 0 -121 -65q-36 -49 -51 -139q-15 -97 4 -145q12 -30 38.5 -48.5t60.5 -18.5q69 0 120 65q39 53 53 147z" />
    <glyph glyph-name="jcaron" unicode="&#x1f0;" horiz-adv-x="276" 
d="M173 -55q-10 -64 -51.5 -106t-93.5 -42q-39 0 -64 18.5t-20 47.5q7 37 42 37q17 0 24.5 -10.5t5.5 -25.5q-2 -13 -10.5 -21.5t-15 -11t-12.5 -3.5q21 -15 54 -15q69 0 89 128l68 405q6 36 -5 45.5t-60 9.5l4 26l127 11zM407 678l-179 -162l-125 162l15 14l121 -108
l157 108z" />
    <glyph glyph-name="Gacute" unicode="&#x1f4;" horiz-adv-x="726" 
d="M726 242q-45 0 -56 -7t-16 -36l-30 -179q-3 -19 -9 -19q-3 0 -10 8.5t-15 25t-13 35.5q-30 -41 -86.5 -63.5t-119.5 -22.5q-134 0 -213.5 103t-54.5 255q25 151 140 254t246 103q109 0 169 -98l58 84q10 13 14 13q5 0 5.5 -3t-1.5 -16l-39 -237q-2 -14 -4.5 -17t-10.5 -3
q-6 0 -7 1.5t-1 9.5v3q3 106 -44 171.5t-131 65.5q-32 0 -66.5 -9t-74.5 -33t-74 -59.5t-62 -95t-41 -134.5q-15 -92 1 -161t53.5 -104t78.5 -51t84 -16q18 0 40 3.5t54 14t56 37t31 64.5l11 66q5 29 -7.5 38t-73.5 9h-30l5 26l143 -2q81 0 106 2zM637 863q-4 -10 -20 -19
q-2 -1 -3 -2l-185 -105l-6 13q0 2 11 10l156 122q18 13 24 13q13 0 20 -9.5t3 -22.5z" />
    <glyph glyph-name="gacute" unicode="&#x1f5;" 
d="M519 407q-4 -23 -27 -23q-21 0 -18 22q2 18 16 21q-4 3 -14 3q-55 0 -99 -40q31 -38 22 -97q-10 -61 -60.5 -103t-110.5 -42q-51 0 -87 32q-21 -20 -28 -53q-4 -26 7 -45t34 -23q5 -1 69 -1q43 0 69.5 -2.5t66.5 -14t57 -41.5t9 -78q-10 -55 -77.5 -90.5t-152.5 -35.5
q-87 0 -142 36t-46 89q6 36 37 64.5t73 38.5q-39 27 -30 85q9 47 44 81q-37 41 -26 103q10 61 60.5 103t110.5 42q56 0 92 -37q55 45 110 45q23 0 33 -11.5t8 -27.5zM340 293q19 128 -67 128q-31 0 -53.5 -16t-33.5 -41.5t-15.5 -40.5t-6.5 -30q-19 -128 67 -128
q31 0 53.5 16t33.5 41.5t15.5 40.5t6.5 30zM385 -79q4 22 -1.5 39t-21 26.5t-30.5 15.5t-42 8.5t-42.5 3t-43.5 0.5q-54 0 -70 -2.5t-36 -14.5q-43 -29 -51 -76q-7 -43 35.5 -75.5t115.5 -32.5t126.5 32.5t60.5 75.5zM425 669q0 -2 -0.5 -4t-2 -4t-2 -2.5t-2.5 -3t-3 -3
t-4 -3.5t-5 -4l-170 -133l-9 12q1 2 9 11l137 144q17 17 29 17q11 0 17.5 -8t5.5 -19z" />
    <glyph glyph-name="Aringacute" unicode="&#x1fa;" horiz-adv-x="693" 
d="M669 0q-24 2 -100 2q-83 0 -112 -2l4 26q62 0 67 27q1 5 -2 18l-32 170h-262l-78 -149q-5 -9 -7 -20q-1 -8 0.5 -17t13 -18.5t32.5 -10.5l-4 -26q-24 2 -89 2q-59 0 -77 -2l4 26q71 0 105 65l312 600q9 16 20 16q7 0 9.5 -3t4.5 -13l118 -628q4 -26 18.5 -31.5t58.5 -5.5
zM490 267l-65 344l-179 -344h244zM541 795q5 31 -8.5 48t-42.5 17q-28 0 -48 -17t-25 -48q-4 -31 9.5 -48t42.5 -17q28 0 47.5 17t24.5 48zM566 795q-6 -37 -35.5 -62.5t-65.5 -25.5t-57.5 25.5t-15.5 62.5q7 37 36.5 62.5t65.5 25.5t57.5 -25.5t14.5 -62.5zM615 1029
q-1 -2 -1.5 -4t-1.5 -3.5t-2 -2.5t-3 -2.5t-3 -2t-5 -3t-6 -3.5l-186 -105l-5 13q0 2 10 10l157 122q18 13 24 13q13 0 19.5 -9.5t2.5 -22.5z" />
    <glyph glyph-name="aringacute" unicode="&#x1fb;" 
d="M464 89q-6 -36 -25 -58.5t-35 -28.5t-30 -6q-32 0 -48 24.5t-12 59.5q-23 -42 -61.5 -65t-80.5 -23q-31 0 -60 8t-51 31.5t-16 59.5q14 79 102 123q73 36 192 40l8 44q10 59 -16.5 93.5t-67.5 34.5q-32 0 -67 -19t-56 -62q6 2 12 2q14 0 23.5 -9.5t6.5 -26.5
q-3 -19 -16 -27.5t-26 -8.5q-6 0 -12.5 1.5t-13.5 11t-4 26.5q8 51 54 89.5t104 38.5q65 0 107 -43q24 -27 26.5 -60t-8.5 -80l-24 -144q-9 -33 -5.5 -64.5t30.5 -31.5q9 0 17.5 4t19 20.5t15.5 44.5l9 57h18zM320 139l17 100q-87 -5 -141 -33q-77 -39 -90 -115
q-5 -35 16.5 -59t58.5 -24q46 0 87.5 35t51.5 96zM392 608q5 31 -8.5 48t-42.5 17q-28 0 -48 -17t-25 -48q-4 -31 9.5 -48t42.5 -17q28 0 47.5 17t24.5 48zM417 608q-6 -37 -35.5 -62.5t-65.5 -25.5t-57.5 25.5t-15.5 62.5q7 37 36.5 62.5t65.5 25.5t57.5 -25.5t14.5 -62.5z
M466 842q-1 -2 -1.5 -4t-1.5 -3.5t-2 -2.5t-3 -2.5t-3 -2t-5 -3t-6 -3.5l-186 -105l-5 13q0 2 10 10l157 122q18 13 24 13q13 0 19.5 -9.5t2.5 -22.5z" />
    <glyph glyph-name="AEacute" unicode="&#x1fc;" horiz-adv-x="837" 
d="M858 253l-78 -253h-455l4 26q42 0 52 7t15 35l42 247h-166l-115 -218q-8 -16 -10 -25q-2 -3 -0.5 -10t4 -15t14 -14t28.5 -7l-4 -26q-23 2 -89 2q-60 0 -77 -2l4 26q72 2 105 65l295 565q-8 1 -29 1h-36l4 26h514l-13 -221h-18q4 47 2 83.5t-13.5 61t-43 37.5t-86.5 13
h-110q-29 0 -36.5 -6.5t-12.5 -32.5l-46 -277h94q66 0 88 24.5t33 92.5h18l-43 -260h-18q11 68 -2.5 92.5t-79.5 24.5h-94l-42 -250q-5 -26 0.5 -32.5t34.5 -6.5h110q41 0 71.5 5.5t54 21t38 29.5t29 46.5t22.5 55t23 69.5h18zM442 341l45 268q1 10 1.5 20.5t-9 18
t-30.5 7.5l-164 -314h157zM692 863q-4 -10 -20 -19q-2 -1 -3 -2l-185 -105l-6 13q0 2 11 10l156 122q18 13 24 13q13 0 20 -9.5t3 -22.5z" />
    <glyph glyph-name="aeacute" unicode="&#x1fd;" horiz-adv-x="668" 
d="M689 253q-2 -13 -6 -15.5t-21 -2.5h-263q-16 -100 6 -151q33 -74 106 -74q38 0 75 26t60 77q4 9 6 11t7 2q8 0 7 -8q-2 -8 -13 -26.5t-30 -42t-51.5 -40.5t-69.5 -17q-39 0 -79 21.5t-65 73.5q-24 -40 -71 -67.5t-104 -27.5q-54 0 -94 23.5t-32 73.5q6 38 35.5 71
t73.5 52q68 30 182 36l8 48q10 63 -16 96.5t-67 33.5q-32 0 -67 -19t-56 -62q6 2 12 2q14 0 23.5 -9.5t6.5 -26.5q-3 -19 -16 -27.5t-26 -8.5q-6 0 -12.5 1.5t-13.5 11t-4 26.5q8 51 54 89.5t104 38.5q47 0 82 -23t48 -60q70 83 158 83q74 0 105.5 -54.5t17.5 -134.5z
M635 250q25 176 -74 176q-41 0 -88 -40.5t-70 -135.5h232zM338 133q3 15 2 29q-1 30 6 70q-109 -3 -164.5 -46.5t-63.5 -96.5q-5 -33 15.5 -57t58.5 -24q51 0 94.5 36.5t51.5 88.5zM561 669q0 -2 -0.5 -4t-2 -4t-2 -2.5t-2.5 -3t-3 -3t-4 -3.5t-5 -4l-170 -133l-9 12
q1 2 9 11l137 144q17 17 29 17q11 0 17.5 -8t5.5 -19z" />
    <glyph glyph-name="Oslashacute" unicode="&#x1fe;" horiz-adv-x="720" 
d="M730 340q-25 -149 -135 -252.5t-239 -103.5q-98 0 -173 68l-90 -106l-12 10l91 109q-98 111 -69 275q25 151 135 255t239 104q90 0 173 -68l90 106l12 -10l-91 -109q97 -109 69 -278zM627 604q-9 14 -24.5 29.5t-51.5 32.5t-78 17q-28 0 -58.5 -8t-69.5 -31.5t-72 -59.5
t-62 -99.5t-42 -144.5q-27 -157 27 -247zM664 340q26 160 -28 250l-431 -512q14 -15 22.5 -23.5t28.5 -24t46 -23t57 -7.5q29 0 60.5 8t70.5 32t71.5 60t61 98.5t41.5 141.5zM634 863q-4 -10 -20 -19q-2 -1 -3 -2l-185 -105l-6 13q0 2 11 10l156 122q18 13 24 13
q13 0 20 -9.5t3 -22.5z" />
    <glyph glyph-name="oslashacute" unicode="&#x1ff;" 
d="M461 214q-16 -94 -84.5 -158t-148.5 -64q-52 0 -92 29l-87 -122l-12 8l87 123q-75 68 -55 184q16 95 84.5 161.5t149.5 66.5q54 0 93 -30l85 120l11 -8l-85 -122q35 -34 49 -84t5 -104zM380 391q-32 35 -80 35q-11 0 -23.5 -2t-37.5 -14t-45.5 -32t-41 -63t-30.5 -101
q-18 -109 19 -160zM408 214q17 112 -18 164l-239 -337q30 -33 79 -33q74 0 126 69q35 46 52 137zM457 669q0 -2 -0.5 -4t-2 -4t-2 -2.5t-2.5 -3t-3 -3t-4 -3.5t-5 -4l-170 -133l-9 12q1 2 9 11l137 144q17 17 29 17q11 0 17.5 -8t5.5 -19z" />
    <glyph glyph-name="Adblgrave" unicode="&#x200;" horiz-adv-x="693" 
d="M669 0q-24 2 -100 2q-83 0 -112 -2l4 26q62 0 67 27q1 5 -2 18l-32 170h-262l-78 -149q-5 -9 -7 -20q-1 -8 0.5 -17t13 -18.5t32.5 -10.5l-4 -26q-24 2 -89 2q-59 0 -77 -2l4 26q71 0 105 65l312 600q9 16 20 16q7 0 9.5 -3t4.5 -13l118 -628q4 -26 18.5 -31.5t58.5 -5.5
zM490 267l-65 344l-179 -344h244zM556 747q0 -5 -15 -10l-67 133q-8 15 -6 24q1 11 11.5 18.5t20.5 7.5q17 0 22 -24l32 -137zM399 747q0 -5 -15 -10l-67 133q-8 15 -6 24q1 11 11.5 18.5t20.5 7.5q17 0 22 -24l32 -137z" />
    <glyph glyph-name="adblgrave" unicode="&#x201;" 
d="M464 89q-6 -36 -25 -58.5t-35 -28.5t-30 -6q-32 0 -48 24.5t-12 59.5q-23 -42 -61.5 -65t-80.5 -23q-31 0 -60 8t-51 31.5t-16 59.5q14 79 102 123q73 36 192 40l8 44q10 59 -16.5 93.5t-67.5 34.5q-32 0 -67 -19t-56 -62q6 2 12 2q14 0 23.5 -9.5t6.5 -26.5
q-3 -19 -16 -27.5t-26 -8.5q-6 0 -12.5 1.5t-13.5 11t-4 26.5q8 51 54 89.5t104 38.5q65 0 107 -43q24 -27 26.5 -60t-8.5 -80l-24 -144q-9 -33 -5.5 -64.5t30.5 -31.5q9 0 17.5 4t19 20.5t15.5 44.5l9 57h18zM320 139l17 100q-87 -5 -141 -33q-77 -39 -90 -115
q-5 -35 16.5 -59t58.5 -24q46 0 87.5 35t51.5 96zM428 523q0 -5 -15 -10l-67 133q-8 15 -6 24q1 11 11.5 18.5t20.5 7.5q8 0 12.5 -3.5t5.5 -7t4 -13.5l32 -137zM271 523q0 -5 -15 -10l-67 133q-8 15 -6 24q1 11 11.5 18.5t20.5 7.5q8 0 12.5 -3.5t5.5 -7t4 -13.5l32 -137z
" />
    <glyph glyph-name="Edblgrave" unicode="&#x204;" horiz-adv-x="628" 
d="M649 253l-78 -253h-520l4 26q55 0 68.5 6.5t19.5 38.5l90 539q5 32 -7 38.5t-66 6.5l5 26h506l-13 -221h-18q4 50 1 86.5t-17.5 60.5t-48 36t-90.5 12h-137q-29 0 -36.5 -6.5t-11.5 -32.5l-42 -249h94q66 0 89 24.5t34 92.5h18l-44 -260h-18q7 41 5.5 67t-22 38t-66.5 12
h-94l-46 -276q-5 -26 0.5 -32.5t34.5 -6.5h139q33 0 59.5 3t47.5 12t37 17.5t29.5 26.5t22.5 31t19.5 40t16.5 45t17 52h18zM550 747q0 -5 -15 -10l-67 133q-8 15 -6 24q1 11 11.5 18.5t20.5 7.5q17 0 22 -24l32 -137zM393 747q0 -5 -15 -10l-67 133q-8 15 -6 24
q1 11 11.5 18.5t20.5 7.5q17 0 22 -24l32 -137z" />
    <glyph glyph-name="edblgrave" unicode="&#x205;" horiz-adv-x="406" 
d="M427 251q-2 -12 -7 -16h-290q-18 -104 5 -157q31 -68 102 -68q41 0 81.5 26.5t64.5 75.5q3 5 4 7t2.5 4t3 2.5t4.5 0.5h2t3 -2t2 -5q-6 -30 -55.5 -78.5t-121.5 -48.5q-81 0 -130 65t-34 161q16 93 82.5 158.5t145.5 65.5q81 0 115.5 -54.5t20.5 -136.5zM373 250
q13 83 -10.5 129.5t-75.5 46.5q-41 0 -86.5 -40.5t-66.5 -135.5h239zM402 523q0 -5 -15 -10l-67 133q-8 15 -6 24q1 11 11.5 18.5t20.5 7.5q8 0 12.5 -3.5t5.5 -7t4 -13.5l32 -137zM245 523q0 -5 -15 -10l-67 133q-8 15 -6 24q1 11 11.5 18.5t20.5 7.5q8 0 12.5 -3.5t5.5 -7
t4 -13.5l32 -137z" />
    <glyph glyph-name="Idblgrave" unicode="&#x208;" horiz-adv-x="328" 
d="M281 0q-32 2 -117 2t-117 -2l4 26q57 0 71.5 6.5t20.5 38.5l90 541q6 32 -6.5 38.5t-69.5 6.5l4 26q32 -2 117 -2t117 2l-4 -26q-57 0 -71.5 -6.5t-20.5 -38.5l-90 -541q-6 -32 6.5 -38.5t69.5 -6.5zM400 747q0 -5 -15 -10l-67 133q-8 15 -6 24q1 11 11.5 18.5t20.5 7.5
q17 0 22 -24l32 -137zM243 747q0 -5 -15 -10l-67 133q-8 15 -6 24q1 11 11.5 18.5t20.5 7.5q17 0 22 -24l32 -137z" />
    <glyph glyph-name="idblgrave" unicode="&#x209;" horiz-adv-x="250" 
d="M214 0q-23 2 -88 2q-68 0 -92 -2l4 26q47 0 59 7t17 36l46 278q6 36 -3.5 45t-51.5 9l4 26l117 11l-62 -370q-5 -28 3 -35t51 -7zM324 523q0 -5 -15 -10l-67 133q-8 15 -6 24q1 11 11.5 18.5t20.5 7.5q8 0 12.5 -3.5t5.5 -7t4 -13.5l32 -137zM167 523q0 -5 -15 -10
l-67 133q-8 15 -6 24q1 11 11.5 18.5t20.5 7.5q8 0 12.5 -3.5t5.5 -7t4 -13.5l32 -137z" />
    <glyph glyph-name="Odblgrave" unicode="&#x20c;" horiz-adv-x="720" 
d="M730 340q-25 -149 -135 -252.5t-239 -103.5q-127 0 -202.5 103t-50.5 253q25 151 135 255t239 104q127 0 202.5 -104t50.5 -255zM656 353q13 87 3 149.5t-40 102t-67 58t-79 18.5q-40 0 -83 -19t-85.5 -56t-76 -103t-47.5 -150q-28 -166 28.5 -258.5t150.5 -92.5
q93 0 180.5 91.5t115.5 259.5zM596 747q0 -5 -15 -10l-67 133q-8 15 -6 24q1 11 11.5 18.5t20.5 7.5q17 0 22 -24l32 -137zM439 747q0 -5 -15 -10l-67 133q-8 15 -6 24q1 11 11.5 18.5t20.5 7.5q17 0 22 -24l32 -137z" />
    <glyph glyph-name="odblgrave" unicode="&#x20d;" 
d="M467 214q-16 -93 -86 -157.5t-153 -64.5t-132 64.5t-33 157.5q16 95 86.5 161.5t153.5 66.5q82 0 131 -66.5t33 -161.5zM404 222q16 98 -7 144q-31 60 -97 60q-70 0 -121 -65q-36 -49 -51 -139q-15 -97 4 -145q12 -30 38.5 -48.5t60.5 -18.5q69 0 120 65q39 53 53 147z
M428 523q0 -5 -15 -10l-67 133q-8 15 -6 24q1 11 11.5 18.5t20.5 7.5q8 0 12.5 -3.5t5.5 -7t4 -13.5l32 -137zM271 523q0 -5 -15 -10l-67 133q-8 15 -6 24q1 11 11.5 18.5t20.5 7.5q8 0 12.5 -3.5t5.5 -7t4 -13.5l32 -137z" />
    <glyph glyph-name="Rdblgrave" unicode="&#x210;" horiz-adv-x="680" 
d="M696 84q-2 -10 -7.5 -23.5t-16.5 -32.5t-31.5 -31.5t-46.5 -12.5q-69 0 -103 45q-17 23 -17.5 55t9.5 80q11 49 8.5 78t-25.5 56q-33 36 -97 36h-117l-44 -263q-6 -32 6 -38.5t66 -6.5l-4 -26q-29 2 -112 2t-112 -2l4 26q54 0 68 6.5t20 38.5l90 541q6 32 -6 38.5
t-66 6.5l4 26h269q103 0 165.5 -53.5t50.5 -125.5q-9 -58 -67.5 -103t-134.5 -60q40 -13 64.5 -33t32 -41t10.5 -44t-1 -41q-2 -44 -2 -58q-2 -32 -2 -47t3 -36.5t14 -31t31 -9.5q26 0 47.5 20.5t32.5 66.5q0 10 10 10q9 0 7 -13zM575 504q14 84 -32.5 118.5t-121.5 34.5
h-73q-29 0 -36.5 -6.5t-12.5 -32.5l-45 -268h114q32 0 61.5 6.5t61.5 22t54.5 47.5t29.5 78zM550 747q0 -5 -15 -10l-67 133q-8 15 -6 24q1 11 11.5 18.5t20.5 7.5q17 0 22 -24l32 -137zM393 747q0 -5 -15 -10l-67 133q-8 15 -6 24q1 11 11.5 18.5t20.5 7.5q17 0 22 -24
l32 -137z" />
    <glyph glyph-name="rdblgrave" unicode="&#x211;" horiz-adv-x="354" 
d="M397 386q-3 -19 -15 -27t-24 -8q-13 0 -22.5 8.5t-6.5 25.5q2 12 9 20t13 11l6 2q-9 4 -21 4q-54 0 -94 -55t-53 -131l-27 -165q-6 -32 6.5 -38.5t69.5 -6.5l-4 -26q-27 2 -107 2q-72 0 -96 -2l4 26q47 0 59 7t17 36l46 278q6 36 -4 45t-55 9l4 26l118 11l-18 -109h1
q18 40 52.5 74.5t84.5 34.5q27 0 44 -14.5t13 -37.5zM376 523q0 -5 -15 -10l-67 133q-8 15 -6 24q1 11 11.5 18.5t20.5 7.5q8 0 12.5 -3.5t5.5 -7t4 -13.5l32 -137zM219 523q0 -5 -15 -10l-67 133q-8 15 -6 24q1 11 11.5 18.5t20.5 7.5q8 0 12.5 -3.5t5.5 -7t4 -13.5
l32 -137z" />
    <glyph glyph-name="Udblgrave" unicode="&#x214;" horiz-adv-x="693" 
d="M751 657q-80 0 -91 -62l-63 -380q-13 -82 -83 -156.5t-161 -74.5q-90 0 -146 70t-38 175l64 383q6 32 -5.5 38.5t-66.5 6.5l4 26q29 -2 113 -2t113 2l-4 -26q-55 0 -68.5 -6.5t-19.5 -38.5l-65 -388q-13 -94 12 -145q16 -32 46 -50.5t68 -18.5q74 0 138 61t80 158l60 356
q2 14 2 22.5t-4.5 22t-21 20.5t-44.5 7l4 26q23 -2 91 -2q67 0 90 2zM603 747q0 -5 -15 -10l-67 133q-8 15 -6 24q1 11 11.5 18.5t20.5 7.5q17 0 22 -24l32 -137zM446 747q0 -5 -15 -10l-67 133q-8 15 -6 24q1 11 11.5 18.5t20.5 7.5q17 0 22 -24l32 -137z" />
    <glyph glyph-name="udblgrave" unicode="&#x215;" horiz-adv-x="511" 
d="M483 0l-120 -8l15 93h-1q-9 -17 -22.5 -34.5t-47 -38t-71.5 -20.5q-71 0 -104 39q-10 13 -12 35t0 41.5t9 61.5l32 192q4 27 -10 33.5t-51 6.5l4 26l123 11l-55 -329q-3 -27 -3 -49.5t18.5 -37t56.5 -14.5q54 0 94.5 46t51.5 111l30 182q6 36 -4 45t-55 9l4 26l123 11
l-60 -358q-6 -36 4 -45t55 -9zM454 523q0 -5 -15 -10l-67 133q-8 15 -6 24q1 11 11.5 18.5t20.5 7.5q8 0 12.5 -3.5t5.5 -7t4 -13.5l32 -137zM297 523q0 -5 -15 -10l-67 133q-8 15 -6 24q1 11 11.5 18.5t20.5 7.5q8 0 12.5 -3.5t5.5 -7t4 -13.5l32 -137z" />
    <glyph glyph-name="uni0218" unicode="&#x218;" horiz-adv-x="511" 
d="M494 181q-13 -81 -76 -139t-143 -58q-47 0 -94.5 18t-73.5 62q-25 -36 -27 -43q-16 -25 -20.5 -30.5t-9.5 -5.5q-4 0 -4.5 2.5t1.5 16.5l33 202q3 15 5 18t8 3q4 0 5 -1t1.5 -4.5t-0.5 -11.5q-11 -99 41.5 -149.5t139.5 -50.5q62 0 107.5 45.5t55.5 103.5q7 44 -9.5 83.5
t-54.5 56.5q-8 3 -86 25q-48 13 -66 19t-38.5 20t-34.5 36q-33 51 -22 117q13 76 75.5 129.5t139.5 53.5q103 0 145 -80l41 66q9 13 14 13t5.5 -3t-1.5 -16l-34 -203q-2 -13 -3.5 -16.5t-8.5 -3.5q-5 0 -6.5 3t-1.5 16q5 95 -34.5 147.5t-118.5 52.5q-61 0 -106 -42t-54 -94
q-8 -54 22 -95q15 -19 33 -28t61 -20q58 -15 62 -17q30 -8 46 -14t38 -25t37 -49q22 -49 11 -110zM270 -119q-6 -37 -25.5 -71t-34.5 -49.5t-19 -15.5q-5 0 -5 6q1 3 5 7q56 55 67 124q3 16 2 21q-11 -12 -26 -12q-13 0 -20.5 8t-5.5 22q5 31 36 31q37 0 26 -71z" />
    <glyph glyph-name="uni0219" unicode="&#x219;" horiz-adv-x="359" 
d="M354 124q-10 -60 -55.5 -96t-118.5 -36t-102 53l-35 -43q-7 -9 -12 -9t-5.5 2.5t1.5 16.5l24 144q2 14 4.5 17.5t8.5 3.5t6.5 -2t1.5 -13q3 -75 26.5 -114.5t83.5 -39.5q62 0 94 28.5t38 67.5q6 38 -23 70q-12 12 -30 18t-70 17q-127 27 -112 117q8 49 51 82.5t120 33.5
q61 0 88 -35l18 18q15 16 20 16q4 0 4.5 -2.5t-1.5 -16.5l-18 -112q-2 -13 -4 -16.5t-9 -3.5t-8 6q16 132 -93 132q-46 0 -76.5 -16t-39.5 -32t-12 -33q-3 -18 3.5 -31.5t15 -21.5t28 -15.5t30 -10.5t33.5 -8q26 -5 40 -8.5t31 -13t29 -24.5q33 -36 25 -90zM194 -119
q-6 -37 -25.5 -71t-34.5 -49.5t-19 -15.5q-5 0 -5 6q1 3 5 7q56 55 67 124q3 16 2 21q-11 -12 -26 -12q-13 0 -20.5 8t-5.5 22q5 31 36 31q37 0 26 -71z" />
    <glyph glyph-name="uni021A" unicode="&#x21a;" horiz-adv-x="668" 
d="M716 459h-18q7 49 4.5 84t-7 56.5t-24 33.5t-47 16.5t-75.5 4.5q-47 0 -55 -1q-13 -3 -17 -11t-7 -27l-91 -542q-5 -29 7 -38t71 -9h28l-4 -26l-147 2l-147 -2l4 26h28q59 0 74 9t20 38l91 542q2 15 2 20.5t-3 11t-12 6.5q-8 1 -55 1q-48 0 -77.5 -5t-51.5 -15
t-36.5 -35.5t-24.5 -55t-23 -84.5h-18l53 221h577zM348 -119q-6 -37 -25.5 -71t-34.5 -49.5t-19 -15.5q-5 0 -5 6q1 3 5 7q56 55 67 124q3 16 2 21q-11 -12 -26 -12q-13 0 -20.5 8t-5.5 22q5 31 36 31q37 0 26 -71z" />
    <glyph glyph-name="uni021B" unicode="&#x21b;" horiz-adv-x="354" 
d="M328 124q-10 -57 -41 -94.5t-74 -37.5q-33 0 -54.5 12t-30 28t-11 37t-1.5 32.5t3 21.5l46 281h-87l3 16q60 1 99.5 56t55.5 139h18l-31 -185h140l-5 -26h-140l-47 -283q-10 -61 6.5 -86t44.5 -25q31 0 55 31.5t33 83.5l9 56h18zM192 -119q-6 -37 -25.5 -71t-34.5 -49.5
t-19 -15.5q-5 0 -5 6q1 3 5 7q56 55 67 124q3 16 2 21q-11 -12 -26 -12q-13 0 -20.5 8t-5.5 22q5 31 36 31q37 0 26 -71z" />
    <glyph glyph-name="uni0237" unicode="&#x237;" horiz-adv-x="276" 
d="M173 -55q-10 -64 -51.5 -106t-93.5 -42q-39 0 -64 18.5t-20 47.5q7 37 42 37q17 0 24.5 -10.5t5.5 -25.5q-2 -13 -10.5 -21.5t-15 -11t-12.5 -3.5q21 -15 54 -15q69 0 89 128l68 405q6 36 -5 45.5t-60 9.5l4 26l127 11z" />
    <glyph glyph-name="ereversed" unicode="&#x258;" horiz-adv-x="406" 
d="M421 218q-15 -96 -86 -161t-152 -65q-39 0 -68.5 16.5t-43 39.5t-19.5 42t-4 29q0 3 2.5 5t4.5 2h2q8 0 10 -14q7 -49 39 -75.5t73 -26.5q71 0 124 68q39 49 57 157h-290q-3 4 -1 16q14 82 66.5 136.5t133.5 54.5q79 0 123.5 -65.5t28.5 -158.5zM362 250q11 95 -21 135.5
t-74 40.5q-52 0 -91 -46.5t-53 -129.5h239z" />
    <glyph glyph-name="schwa" unicode="&#x259;" horiz-adv-x="406" 
d="M421 216q-15 -93 -81.5 -158.5t-145.5 -65.5q-81 0 -115.5 54.5t-20.5 136.5q1 11 6 16h290q18 106 -5 157q-14 32 -41 50t-60 18q-41 0 -81.5 -26.5t-64.5 -75.5q-7 -14 -15 -14h-2t-3 2t-1 5q4 29 54.5 78t122.5 49q81 0 130 -65t33 -161zM351 184h-239
q-13 -83 10 -129.5t75 -46.5q42 0 87.5 40.5t66.5 135.5z" />
    <glyph glyph-name="ringhalfright" unicode="&#x2be;" horiz-adv-x="322" 
d="M359 531q-10 -59 -53.5 -99.5t-93.5 -40.5q-38 0 -62 24t-18 58q4 28 32 28q10 0 18 -7t6 -22q-5 -24 -31 -26q13 -32 57 -32q29 0 56.5 29.5t37.5 89.5q10 58 -8.5 87.5t-49.5 29.5q-52 0 -80 -57q-5 -12 -14 -12q-5 0 -5 4q-3 8 7 28t36.5 40t62.5 20q51 0 81.5 -40
t20.5 -102z" />
    <glyph glyph-name="ringhalfleft" unicode="&#x2bf;" horiz-adv-x="322" 
d="M349 479q3 -8 -7 -28t-37 -40t-63 -20q-50 0 -80.5 40t-20.5 102q10 59 53 99.5t93 40.5q38 0 62 -24t19 -58q-5 -28 -32 -28q-10 0 -18.5 7t-5.5 22q3 24 30 26q-13 32 -57 32q-29 0 -56 -29.5t-37 -89.5q-10 -58 8 -87.5t49 -29.5q52 0 81 57q5 12 14 12q3 0 5 -4z" />
    <glyph glyph-name="circumflex" unicode="&#x2c6;" 
d="M469 530l-15 -14l-121 108l-157 -108l-11 14l179 162z" />
    <glyph glyph-name="caron" unicode="&#x2c7;" 
d="M494 678l-179 -162l-125 162l15 14l121 -108l157 108z" />
    <glyph glyph-name="breve" unicode="&#x2d8;" 
d="M483 691q-14 -76 -62 -125t-106 -49t-89.5 49t-20.5 125h16q-9 -65 20 -105.5t79 -40.5t92.5 40.5t54.5 105.5h16z" />
    <glyph glyph-name="dotaccent" unicode="&#x2d9;" horiz-adv-x="250" 
d="M266 604q-3 -17 -16.5 -29t-31.5 -12q-16 0 -26 11.5t-7 29.5q2 17 16 29t32 12q16 0 26 -11.5t7 -29.5z" />
    <glyph glyph-name="ring" unicode="&#x2da;" horiz-adv-x="752" 
d="M539 608q5 31 -8.5 48t-42.5 17q-28 0 -48 -17t-25 -48q-4 -31 9.5 -48t42.5 -17q28 0 47.5 17t24.5 48zM564 608q-6 -37 -35.5 -62.5t-65.5 -25.5t-57.5 25.5t-15.5 62.5q7 37 36.5 62.5t65.5 25.5t57.5 -25.5t14.5 -62.5z" />
    <glyph glyph-name="ogonek" unicode="&#x2db;" 
d="M325 -115q-19 -42 -57.5 -69t-76.5 -27q-47 0 -74.5 27.5t-21.5 62.5q9 57 101 125h48q-35 -15 -65 -43q-28 -30 -32 -56q-6 -32 19.5 -50.5t56.5 -18.5q50 0 86 56q5 8 12.5 5t3.5 -12z" />
    <glyph glyph-name="tilde" unicode="&#x2dc;" 
d="M492 636q-61 -56 -82 -67q-17 -8 -33 -8q-21 0 -54 26t-54 26q-15 0 -30.5 -7t-26 -15.5t-35.5 -29.5l-10 11q33 30 46 41.5t33 22.5t37 11q21 0 54 -26q31 -26 53 -26q15 0 30.5 7.5t26 15.5t36.5 29z" />
    <glyph glyph-name="hungarumlaut" unicode="&#x2dd;" 
d="M343 670q-3 -11 -14 -24l-111 -133q-13 4 -13 10l6 12l78 137q14 24 30 24q10 0 17.5 -7.5t6.5 -18.5zM500 670q-3 -11 -14 -24l-111 -133q-13 4 -13 10l6 12l78 137q14 24 30 24q10 0 17.5 -7.5t6.5 -18.5z" />
    <glyph glyph-name="uni0300" unicode="&#x300;" horiz-adv-x="0" 
d="M-85 524l-13 -12l-124 133q-13 13 -11 24q1 11 10.5 19t20.5 8q12 0 23 -17l89 -144z" />
    <glyph glyph-name="uni0301" unicode="&#x301;" horiz-adv-x="0" 
d="M-2 669q0 -2 -0.5 -4t-2 -4t-2 -2.5t-2.5 -3t-3 -3t-4 -3.5t-5 -4l-170 -133l-9 12q1 2 9 11l137 144q17 17 29 17q11 0 17.5 -8t5.5 -19z" />
    <glyph glyph-name="uni0302" unicode="&#x302;" horiz-adv-x="0" 
d="M10 530l-15 -14l-121 108l-157 -108l-11 14l179 162z" />
    <glyph glyph-name="uni0303" unicode="&#x303;" horiz-adv-x="0" 
d="M33 636q-61 -56 -82 -67q-17 -8 -33 -8q-21 0 -54 26t-54 26q-15 0 -30.5 -7t-26 -15.5t-35.5 -29.5l-10 11q33 30 46 41.5t33 22.5t37 11q21 0 54 -26q31 -26 53 -26q15 0 30.5 7.5t26 15.5t36.5 29z" />
    <glyph glyph-name="uni0304" unicode="&#x304;" horiz-adv-x="0" 
d="M39 593h-340l4 23h340z" />
    <glyph glyph-name="uni0306" unicode="&#x306;" horiz-adv-x="0" 
d="M24 691q-14 -76 -62 -125t-106 -49t-89.5 49t-20.5 125h16q-9 -65 20 -105.5t79 -40.5t92.5 40.5t54.5 105.5h16z" />
    <glyph glyph-name="uni0307" unicode="&#x307;" horiz-adv-x="0" 
d="M-88 604q-3 -17 -16.5 -29t-31.5 -12q-16 0 -26 11.5t-7 29.5q2 17 16 29t32 12q16 0 26 -11.5t7 -29.5z" />
    <glyph glyph-name="uni0308" unicode="&#x308;" horiz-adv-x="0" 
d="M-159 605q-2 -15 -14 -26t-28 -11q-15 0 -24 10.5t-6 26.5q2 15 14.5 25.5t27.5 10.5t23.5 -10.5t6.5 -25.5zM-27 605q-2 -15 -14 -26t-28 -11q-15 0 -24 10.5t-6 26.5q2 15 14.5 25.5t27.5 10.5t23.5 -10.5t6.5 -25.5z" />
    <glyph glyph-name="uni0309" unicode="&#x309;" horiz-adv-x="0" 
d="M-31 645q-5 -28 -35 -43q-69 -34 -77 -79l-3 -20q-2 -6 -7 -6q-7 0 -5 6l3 20q9 49 62 89q15 11 20 33q5 30 -5 40q-11 15 -41 15q-46 0 -70 -31l6 1q11 0 17 -7t5 -18q-6 -25 -31 -25q-10 0 -16 6.5t-4 18.5q5 29 33 47.5t62 18.5q45 0 67 -17q24 -17 19 -49z" />
    <glyph glyph-name="uni030A" unicode="&#x30a;" horiz-adv-x="0" 
d="M-66 608q5 31 -8.5 48t-42.5 17q-28 0 -48 -17t-25 -48q-4 -31 9.5 -48t42.5 -17q28 0 47.5 17t24.5 48zM-41 608q-6 -37 -35.5 -62.5t-65.5 -25.5t-57.5 25.5t-15.5 62.5q7 37 36.5 62.5t65.5 25.5t57.5 -25.5t14.5 -62.5z" />
    <glyph glyph-name="uni030B" unicode="&#x30b;" horiz-adv-x="0" 
d="M-116 670q-3 -11 -14 -24l-111 -133q-13 4 -13 10l6 12l78 137q14 24 30 24q10 0 17.5 -7.5t6.5 -18.5zM41 670q-3 -11 -14 -24l-111 -133q-13 4 -13 10l6 12l78 137q14 24 30 24q10 0 17.5 -7.5t6.5 -18.5z" />
    <glyph glyph-name="uni030C" unicode="&#x30c;" horiz-adv-x="0" 
d="M35 678l-179 -162l-125 162l15 14l121 -108l157 108z" />
    <glyph glyph-name="uni030F" unicode="&#x30f;" horiz-adv-x="0" 
d="M-31 523q0 -5 -15 -10l-67 133q-8 15 -6 24q1 11 11.5 18.5t20.5 7.5q8 0 12.5 -3.5t5.5 -7t4 -13.5l32 -137zM-188 523q0 -5 -15 -10l-67 133q-8 15 -6 24q1 11 11.5 18.5t20.5 7.5q8 0 12.5 -3.5t5.5 -7t4 -13.5l32 -137z" />
    <glyph glyph-name="uni0311" unicode="&#x311;" horiz-adv-x="0" 
d="M-5 517h-16q9 66 -19.5 106t-78.5 40t-93 -40.5t-55 -105.5h-16q14 76 62 125t106 49t89.5 -49t20.5 -125z" />
    <glyph glyph-name="uni0323" unicode="&#x323;" horiz-adv-x="0" 
d="M-216 -159q-2 -17 -15.5 -29t-31.5 -12q-16 0 -26.5 11.5t-7.5 29.5q3 17 16.5 29t31.5 12q16 0 26 -11.5t7 -29.5z" />
    <glyph glyph-name="uni0326" unicode="&#x326;" horiz-adv-x="0" 
d="M-215 -119q-6 -37 -25.5 -71t-34.5 -49.5t-19 -15.5q-5 0 -5 6q1 3 5 7q56 55 67 124q3 16 2 21q-11 -12 -26 -12q-13 0 -20.5 8t-5.5 22q5 31 36 31q37 0 26 -71z" />
    <glyph glyph-name="uni032E" unicode="&#x32e;" horiz-adv-x="0" 
d="M-103 -72q-14 -76 -62 -125t-106 -49t-89.5 49t-20.5 125h16q-9 -65 20 -105.5t79 -40.5t92.5 40.5t54.5 105.5h16z" />
    <glyph glyph-name="uni032F" unicode="&#x32f;" horiz-adv-x="0" 
d="M-132 -246h-16q9 65 -20 105.5t-79 40.5t-92.5 -40.5t-54.5 -105.5h-16q14 76 62 125t106 49t89.5 -49t20.5 -125z" />
    <glyph glyph-name="uni0330" unicode="&#x330;" horiz-adv-x="0" 
d="M-94 -127q-33 -30 -46 -41.5t-33 -22.5t-37 -11q-21 0 -53 26q-33 26 -54 26q-15 0 -30.5 -7.5t-26 -15.5t-36.5 -29l-9 11q33 30 46 41.5t33 22.5t37 11q21 0 53 -26q33 -26 54 -26q15 0 30.5 7.5t26 15.5t36.5 29z" />
    <glyph glyph-name="uni0331" unicode="&#x331;" horiz-adv-x="0" 
d="M-88 -170h-340l3 23h340z" />
    <glyph glyph-name="uni0332" unicode="&#x332;" horiz-adv-x="0" 
d="M-88 -170h-340l3 23h340z" />
    <glyph glyph-name="Alpha" unicode="&#x391;" horiz-adv-x="693" 
d="M669 0q-24 2 -100 2q-83 0 -112 -2l4 26q62 0 67 27q1 5 -2 18l-32 170h-262l-78 -149q-5 -9 -7 -20q-1 -8 0.5 -17t13 -18.5t32.5 -10.5l-4 -26q-24 2 -89 2q-59 0 -77 -2l4 26q71 0 105 65l312 600q9 16 20 16q7 0 9.5 -3t4.5 -13l118 -628q4 -26 18.5 -31.5t58.5 -5.5
zM490 267l-65 344l-179 -344h244z" />
    <glyph glyph-name="Beta" unicode="&#x392;" horiz-adv-x="654" 
d="M637 182q-12 -72 -80.5 -127t-160.5 -55h-344l4 26q54 0 68 6.5t20 38.5l90 541q6 32 -6 38.5t-66 6.5l4 26h318q93 0 143.5 -51t39.5 -117q-10 -57 -62.5 -101t-127.5 -58q79 -5 125 -55.5t35 -118.5zM594 515q9 54 -21 98t-98 44h-128q-29 0 -36.5 -6.5t-12.5 -32.5
l-42 -255h144q77 0 130.5 45.5t63.5 106.5zM564 183q10 62 -22 113t-104 51h-185l-47 -282q-5 -26 0.5 -32.5t34.5 -6.5h130q76 0 129 48.5t64 108.5z" />
    <glyph glyph-name="Gamma" unicode="&#x393;" horiz-adv-x="576" 
d="M619 460h-18q4 47 1.5 83.5t-14 61t-43 37.5t-87.5 13h-110q-29 0 -36.5 -6.5t-11.5 -32.5l-91 -544q-5 -29 5.5 -37.5t64.5 -8.5h22l-4 -26q-41 2 -130 2q-87 0 -116 -2l4 26q55 0 68.5 6.5t19.5 38.5l90 539q5 32 -7 38.5t-66 6.5l5 26h467z" />
    <glyph glyph-name="Delta" unicode="&#x394;" horiz-adv-x="772" 
d="M735 5q-1 -5 -20 -5h-659q-18 2 -18 5q6 10 7 12l436 674q8 11 11 13.5t12 2.5q7 0 10.5 -2.5t6.5 -14.5l211 -673zM647 56l-181 575l-374 -575h555z" />
    <glyph glyph-name="Epsilon" unicode="&#x395;" horiz-adv-x="628" 
d="M649 253l-78 -253h-520l4 26q55 0 68.5 6.5t19.5 38.5l90 539q5 32 -7 38.5t-66 6.5l5 26h506l-13 -221h-18q4 50 1 86.5t-17.5 60.5t-48 36t-90.5 12h-137q-29 0 -36.5 -6.5t-11.5 -32.5l-42 -249h94q66 0 89 24.5t34 92.5h18l-44 -260h-18q7 41 5.5 67t-22 38t-66.5 12
h-94l-46 -276q-5 -26 0.5 -32.5t34.5 -6.5h139q33 0 59.5 3t47.5 12t37 17.5t29.5 26.5t22.5 31t19.5 40t16.5 45t17 52h18z" />
    <glyph glyph-name="Zeta" unicode="&#x396;" horiz-adv-x="563" 
d="M565 261l-58 -261h-439q-11 0 -14.5 0.5t-6 3.5t0.5 9q1 7 10 19l492 625h-165q-112 0 -161 -49t-70 -146h-18l47 221h425q16 0 18.5 -3t0.5 -17l-500 -635h174q40 0 72 7t54.5 16t41 28.5t29 34t21 44.5t15 48t13.5 55h18z" />
    <glyph glyph-name="Eta" unicode="&#x397;" horiz-adv-x="693" 
d="M641 0q-29 2 -113 2t-113 -2l4 26q55 0 68.5 6.5t19.5 38.5l45 271h-298l-45 -271q-6 -32 5.5 -38.5t66.5 -6.5l-4 -26q-29 2 -113 2t-113 -2l4 26q55 0 68.5 6.5t19.5 38.5l90 541q6 32 -5.5 38.5t-66.5 6.5l4 26q29 -2 113 -2t113 2l-4 -26q-55 0 -68.5 -6.5
t-19.5 -38.5l-41 -244h298l41 244q6 32 -5.5 38.5t-66.5 6.5l4 26q29 -2 113 -2t113 2l-4 -26q-55 0 -68.5 -6.5t-19.5 -38.5l-90 -541q-6 -32 5.5 -38.5t66.5 -6.5z" />
    <glyph glyph-name="Theta" unicode="&#x398;" horiz-adv-x="720" 
d="M730 340q-25 -149 -135 -252.5t-239 -103.5q-127 0 -202.5 103t-50.5 253q25 151 135 255t239 104q127 0 202.5 -104t50.5 -255zM657 340q27 164 -31 253.5t-153 89.5q-43 0 -87.5 -21t-87 -61t-75.5 -108t-47 -153q-27 -162 31 -250.5t153 -88.5q43 0 88 20.5t87 60.5
t75 107t47 151zM594 280h-18l5 34h-339l-5 -34h-18l20 124h18l-5 -34h339l5 34h18z" />
    <glyph glyph-name="Iota" unicode="&#x399;" horiz-adv-x="328" 
d="M281 0q-32 2 -117 2t-117 -2l4 26q57 0 71.5 6.5t20.5 38.5l90 541q6 32 -6.5 38.5t-69.5 6.5l4 26q32 -2 117 -2t117 2l-4 -26q-57 0 -71.5 -6.5t-20.5 -38.5l-90 -541q-6 -32 6.5 -38.5t69.5 -6.5z" />
    <glyph glyph-name="Kappa" unicode="&#x39a;" horiz-adv-x="719" 
d="M685 0q-23 2 -88 2q-79 0 -111 -2l4 26q41 0 46 26q1 14 -8 33l-140 290l-150 -127l-29 -177q-6 -32 5.5 -38.5t66.5 -6.5l-4 -26q-29 2 -113 2t-113 -2l4 26q55 0 68.5 6.5t19.5 38.5l90 541q6 32 -5.5 38.5t-66.5 6.5l4 26q29 -2 113 -2t113 2l-4 -26q-55 0 -68.5 -6.5
t-19.5 -38.5l-56 -339l387 333q10 12 12 24q4 25 -25 27l4 26q26 -2 100 -2l65 2l-4 -26q-66 -2 -141 -65l-202 -173l166 -341q16 -34 31.5 -43t52.5 -9z" />
    <glyph glyph-name="Lambda" unicode="&#x39b;" horiz-adv-x="641" 
d="M617 0q-23 2 -94 2q-82 0 -111 -2l4 26q63 0 68 28q1 4 -2 19l-86 528l-250 -505q-8 -16 -9 -23t0 -15.5t13 -19.5t35 -12l-4 -26q-24 2 -88 2l-70 -2l4 26q64 2 95 66l297 598q6 12 9 14.5t10 2.5q8 0 10 -2.5t3 -14.5l102 -629q4 -24 17.5 -29.5t50.5 -5.5z" />
    <glyph glyph-name="Mu" unicode="&#x39c;" horiz-adv-x="850" 
d="M796 0q-27 2 -111 2q-83 0 -110 -2l4 26q55 0 68.5 6.5t19.5 38.5l98 587h-1l-344 -642q-10 -16 -17 -16q-8 0 -11 16l-129 637h-1l-93 -555q-2 -14 -2 -22.5t4.5 -22t21 -20.5t44.5 -7l-4 -26q-23 2 -90 2t-90 -2l4 26q28 0 47 7t28 20.5t12 22t5 22.5l86 514
q6 32 -5.5 38.5t-66.5 6.5l4 26h128q16 0 19.5 -2.5t5.5 -13.5l119 -586l313 586q7 11 11 13.5t20 2.5h127l-4 -26q-54 0 -68 -6.5t-20 -38.5l-90 -541q-6 -32 6 -38.5t66 -6.5z" />
    <glyph glyph-name="Nu" unicode="&#x39d;" horiz-adv-x="693" 
d="M751 657q-28 0 -47 -7t-28 -20.5t-12 -22t-5 -22.5l-94 -563q-2 -15 -4.5 -18.5t-9.5 -3.5q-8 0 -13 12l-270 607q-7 14 -11 18l-90 -539q-2 -14 -2 -22.5t4.5 -22t21 -20.5t44.5 -7l-4 -26q-23 2 -90 2t-90 -2l4 26q28 0 47 7t28 20.5t12 22t5 22.5l93 553q-18 6 -60 6
h-19l4 26h127q14 0 17.5 -2t7.5 -10l244 -549l78 463q2 14 2 22.5t-4.5 22t-21 20.5t-44.5 7l4 26q23 -2 90 -2t90 2z" />
    <glyph glyph-name="Xi" unicode="&#x39e;" horiz-adv-x="615" 
d="M666 542h-18q9 54 3 76q-4 10 -73 10h-332q-67 0 -75 -9q-10 -11 -25 -77h-18l5 19l25 119h524l-2 -19zM606 149l-32 -149h-534l18 149h18q-9 -68 -4 -84q4 -13 77 -13h334q72 0 80 12q7 11 25 85h18zM537 288h-18l7 40h-328l-7 -40h-18l22 132h18l-7 -40h328l7 40h18z
" />
    <glyph glyph-name="Omicron" unicode="&#x39f;" horiz-adv-x="720" 
d="M730 340q-25 -149 -135 -252.5t-239 -103.5q-127 0 -202.5 103t-50.5 253q25 151 135 255t239 104q127 0 202.5 -104t50.5 -255zM656 353q13 87 3 149.5t-40 102t-67 58t-79 18.5q-40 0 -83 -19t-85.5 -56t-76 -103t-47.5 -150q-28 -166 28.5 -258.5t150.5 -92.5
q93 0 180.5 91.5t115.5 259.5z" />
    <glyph glyph-name="Pi" unicode="&#x3a0;" horiz-adv-x="693" 
d="M641 0q-29 2 -113 2t-113 -2l4 26q55 0 68.5 6.5t19.5 38.5l97 584h-298l-97 -584q-6 -32 5.5 -38.5t66.5 -6.5l-4 -26q-29 2 -113 2t-113 -2l4 26q55 0 68.5 6.5t19.5 38.5l90 539q5 32 -7 38.5t-66 6.5l5 26h590l-5 -26q-54 0 -68 -6.5t-19 -38.5l-90 -539
q-6 -32 5.5 -38.5t66.5 -6.5z" />
    <glyph glyph-name="Rho" unicode="&#x3a1;" horiz-adv-x="628" 
d="M664 500q-11 -73 -84 -126t-168 -53h-160l-42 -250q-6 -32 6 -38.5t66 -6.5l-4 -26q-29 2 -113 2t-113 -2l4 26q54 0 68 6.5t20 38.5l90 541q6 32 -6 38.5t-66 6.5l4 26h306q96 0 150 -55t42 -128zM588 500q26 157 -139 157h-101q-29 0 -36.5 -6.5t-12.5 -32.5l-46 -276
h143q166 0 192 158z" />
    <glyph glyph-name="Sigma" unicode="&#x3a3;" horiz-adv-x="668" 
d="M659 229l-62 -229h-529q-13 0 -17 1t-3 6q1 3 9 12l271 286l-172 356q3 16 6.5 19t19.5 3h529l-13 -221h-18q7 118 -33.5 156.5t-166.5 38.5h-242l146 -303q4 -8 3 -12q0 -4 -9 -13l-280 -295h276q125 0 180.5 38.5t86.5 156.5h18z" />
    <glyph glyph-name="Tau" unicode="&#x3a4;" horiz-adv-x="668" 
d="M716 459h-18q7 49 4.5 84t-7 56.5t-24 33.5t-47 16.5t-75.5 4.5q-47 0 -55 -1q-13 -3 -17 -11t-7 -27l-91 -542q-5 -29 7 -38t71 -9h28l-4 -26l-147 2l-147 -2l4 26h28q59 0 74 9t20 38l91 542q2 15 2 20.5t-3 11t-12 6.5q-8 1 -55 1q-48 0 -77.5 -5t-51.5 -15
t-36.5 -35.5t-24.5 -55t-23 -84.5h-18l53 221h577z" />
    <glyph glyph-name="Upsilon" unicode="&#x3a5;" horiz-adv-x="720" 
d="M765 553q-1 -13 -13 -13q-8 0 -8 9v2q2 49 -25.5 70t-59.5 21q-85 0 -142 -95q-47 -80 -65 -194l-47 -281q-5 -29 5.5 -37.5t64.5 -8.5h22l-4 -26q-42 2 -133 2l-133 -2l4 26h22q54 0 67.5 8.5t18.5 37.5l47 281q3 20 5.5 42.5t3.5 58.5t-5 66.5t-18 59.5t-37 45.5
t-61 16.5q-33 0 -67 -21t-48 -70q-3 -11 -12 -11q-7 0 -8.5 2.5t-0.5 10.5q9 49 48.5 97.5t98.5 48.5q151 0 151 -245h1q7 23 15.5 46t29 61.5t44 66.5t61.5 49.5t81 21.5q40 0 65 -26.5t31 -58t1 -61.5z" />
    <glyph glyph-name="Phi" unicode="&#x3a6;" horiz-adv-x="668" 
d="M678 341q-13 -77 -93.5 -139.5t-198.5 -72.5l-10 -57q-5 -29 5.5 -37.5t64.5 -8.5h22l-4 -26q-41 2 -131 2q-91 0 -132 -2l4 26h22q54 0 67.5 8.5t18.5 37.5l10 57q-111 10 -172 72t-48 141q13 77 94 139.5t196 72.5l10 57q5 29 -5.5 37.5t-64.5 8.5h-22l4 26
q41 -2 132 -2q90 0 131 2l-4 -26h-22q-54 0 -67.5 -8.5t-18.5 -37.5l-10 -57q113 -10 174 -72t48 -141zM325 146l66 391q-78 -8 -138 -55t-76 -141q-15 -92 29 -139t119 -56zM604 342q9 51 -2 89.5t-35.5 59.5t-52.5 32t-60 14l-66 -391q33 3 64 13.5t63.5 31.5t56 60
t32.5 91z" />
    <glyph glyph-name="Chi" unicode="&#x3a7;" horiz-adv-x="693" 
d="M679 0q-24 2 -100 2q-82 0 -114 -2l4 26q24 1 36 10t13 17q0 8 -5 17l-132 254l-199 -232q-12 -14 -14 -27q-3 -14 4.5 -25.5t28.5 -13.5l-4 -26q-25 2 -99 2q-62 0 -85 -2l4 26q84 0 138 63l216 253l-146 282q-12 22 -28.5 27.5t-60.5 5.5l4 26q24 -2 100 -2q82 0 114 2
l-4 -26q-23 -1 -35 -9.5t-14 -17.5q0 -6 5 -17l112 -216l164 191q15 16 17 30q7 35 -33 39l4 26q25 -2 99 -2q62 0 85 2l-4 -26q-83 -1 -138 -65l-184 -213l167 -320q11 -21 26 -27t62 -6z" />
    <glyph glyph-name="Psi" unicode="&#x3a8;" horiz-adv-x="720" 
d="M764 548q-1 -6 -13 -8q-62 -12 -81 -121q-47 -267 -258 -289l-10 -58q-5 -29 5.5 -37.5t64.5 -8.5h22l-4 -26q-41 2 -131 2q-91 0 -132 -2l4 26h22q54 0 67.5 8.5t18.5 37.5l10 58q-49 6 -84 26.5t-51.5 49t-26 62.5t-7 66.5t4.5 61.5q6 38 6 66t-3.5 42t-13 22.5
t-15.5 10.5t-17 4q-2 0 -3 1.5t-1 3.5v2q2 8 23 8h26q87 0 64 -144q-6 -32 -7.5 -61.5t2.5 -77.5t31 -82t75 -44l77 464q5 29 -5.5 37.5t-64.5 8.5h-22l4 26q41 -2 132 -2q90 0 131 2l-4 -26h-22q-54 0 -67.5 -8.5t-18.5 -37.5l-77 -464q149 31 189 254q14 80 40 117.5
t74 37.5h26q14 0 17.5 -1t2.5 -7z" />
    <glyph glyph-name="Omega" unicode="&#x3a9;" horiz-adv-x="668" 
d="M655 146l-53 -146h-151q-16 0 -18.5 2t-0.5 14q10 62 85 202q47 81 71 132.5t33 104.5q17 105 -35 166.5t-139 61.5q-84 0 -157.5 -61t-91.5 -167q-14 -82 23 -232q32 -137 20 -207q-2 -11 -5.5 -13.5t-19.5 -2.5h-151l-5 146h18q4 -66 6 -75t4.5 -12.5t16 -6.5t40.5 -3
h81q-1 40 -12 76t-38 96q-12 26 -17.5 39t-15.5 38t-13 38t-8.5 38t-3 39t3.5 41q17 101 112.5 173t216.5 72q119 0 191 -72t55 -173q-7 -39 -29.5 -82.5t-41.5 -70.5t-64 -84q-44 -56 -67 -91.5t-38 -76.5h81q40 0 52 5t18 18q11 21 29 74h18z" />
    <glyph glyph-name="baht" unicode="&#xe3f;" horiz-adv-x="654" 
d="M637 182q-12 -72 -80.5 -127t-160.5 -55h-64l-4 -26q-4 -13 -16 -13q-5 0 -8 4t-2 9l4 26h-254l4 26q54 0 68 6.5t20 38.5l90 541q6 32 -6 38.5t-66 6.5l4 26h254l4 26q2 13 15 13t11 -13l-4 -26h38q93 0 143.5 -51t39.5 -117q-10 -57 -62.5 -101t-127.5 -58
q79 -5 125 -55.5t35 -118.5zM594 515q9 54 -21 98t-98 44h-33l-49 -294h7q77 0 130.5 45.5t63.5 106.5zM367 363l49 294h-69q-29 0 -36.5 -6.5t-12.5 -32.5l-42 -255h111zM564 183q10 62 -22 113t-104 51h-48l-54 -321h35q76 0 129 48.5t64 108.5zM310 26l54 321h-111
l-47 -282q-5 -26 0.5 -32.5t34.5 -6.5h69z" />
    <glyph glyph-name="Ddotbelow" unicode="&#x1e0c;" horiz-adv-x="707" 
d="M716 336q-23 -141 -124 -238.5t-222 -97.5h-318l4 26q54 0 68 6.5t20 38.5l90 541q6 32 -6 38.5t-66 6.5l4 26h318q121 0 188.5 -102t43.5 -245zM642 336q9 68 8 118t-16.5 86t-34.5 58.5t-45 35.5t-48.5 18t-45.5 5h-112q-29 0 -36.5 -6.5t-12.5 -32.5l-92 -553
q-5 -26 0.5 -32.5t34.5 -6.5h112q109 0 191 85q75 88 97 225zM307 -159q-2 -17 -15.5 -29t-31.5 -12q-16 0 -26.5 11.5t-7.5 29.5q3 17 16.5 29t31.5 12q16 0 26 -11.5t7 -29.5z" />
    <glyph glyph-name="ddotbelow" unicode="&#x1e0d;" horiz-adv-x="511" 
d="M479 0l-122 -8l12 73q-63 -73 -146 -73q-76 0 -123 64t-31 159q16 96 87.5 159.5t150.5 63.5q17 0 32 -3.5t26 -9.5t20 -12.5t15.5 -14t11 -13.5t7.5 -11l3 -5l39 234q6 36 -4 45t-55 9l4 26l121 11l-103 -614q-6 -36 4 -45t55 -9zM378 120l33 198q4 22 -6 42
q-29 62 -96 62q-12 0 -25.5 -2.5t-38 -14.5t-44.5 -32.5t-39.5 -62t-28.5 -96.5q-8 -41 -6 -71.5t6.5 -52.5t15.5 -37t21 -24t23 -13.5t21.5 -6t16.5 -1.5q47 0 93 35q47 35 54 77zM269 -159q-2 -17 -15.5 -29t-31.5 -12q-16 0 -26.5 11.5t-7.5 29.5q3 17 16.5 29t31.5 12
q16 0 26 -11.5t7 -29.5z" />
    <glyph glyph-name="Dlinebelow" unicode="&#x1e0e;" horiz-adv-x="707" 
d="M716 336q-23 -141 -124 -238.5t-222 -97.5h-318l4 26q54 0 68 6.5t20 38.5l90 541q6 32 -6 38.5t-66 6.5l4 26h318q121 0 188.5 -102t43.5 -245zM642 336q9 68 8 118t-16.5 86t-34.5 58.5t-45 35.5t-48.5 18t-45.5 5h-112q-29 0 -36.5 -6.5t-12.5 -32.5l-92 -553
q-5 -26 0.5 -32.5t34.5 -6.5h112q109 0 191 85q75 88 97 225zM436 -170h-340l3 23h340z" />
    <glyph glyph-name="dlinebelow" unicode="&#x1e0f;" horiz-adv-x="511" 
d="M479 0l-122 -8l12 73q-63 -73 -146 -73q-76 0 -123 64t-31 159q16 96 87.5 159.5t150.5 63.5q17 0 32 -3.5t26 -9.5t20 -12.5t15.5 -14t11 -13.5t7.5 -11l3 -5l39 234q6 36 -4 45t-55 9l4 26l121 11l-103 -614q-6 -36 4 -45t55 -9zM378 120l33 198q4 22 -6 42
q-29 62 -96 62q-12 0 -25.5 -2.5t-38 -14.5t-44.5 -32.5t-39.5 -62t-28.5 -96.5q-8 -41 -6 -71.5t6.5 -52.5t15.5 -37t21 -24t23 -13.5t21.5 -6t16.5 -1.5q47 0 93 35q47 35 54 77zM397 -170h-340l3 23h340z" />
    <glyph glyph-name="Hdotbelow" unicode="&#x1e24;" horiz-adv-x="693" 
d="M641 0q-29 2 -113 2t-113 -2l4 26q55 0 68.5 6.5t19.5 38.5l45 271h-298l-45 -271q-6 -32 5.5 -38.5t66.5 -6.5l-4 -26q-29 2 -113 2t-113 -2l4 26q55 0 68.5 6.5t19.5 38.5l90 541q6 32 -5.5 38.5t-66.5 6.5l4 26q29 -2 113 -2t113 2l-4 -26q-55 0 -68.5 -6.5
t-19.5 -38.5l-41 -244h298l41 244q6 32 -5.5 38.5t-66.5 6.5l4 26q29 -2 113 -2t113 2l-4 -26q-55 0 -68.5 -6.5t-19.5 -38.5l-90 -541q-6 -32 5.5 -38.5t66.5 -6.5zM360 -159q-2 -17 -15.5 -29t-31.5 -12q-16 0 -26.5 11.5t-7.5 29.5q3 17 16.5 29t31.5 12q16 0 26 -11.5
t7 -29.5z" />
    <glyph glyph-name="hdotbelow" unicode="&#x1e25;" horiz-adv-x="511" 
d="M483 0q-24 2 -95 2q-70 0 -94 -2l4 26q47 0 59 7t17 36l39 239q19 114 -63 114q-53 0 -97 -46t-55 -115l-32 -192q-5 -30 4 -36.5t56 -6.5l-4 -26q-24 2 -95 2q-70 0 -94 -2l4 26q47 0 59 7t17 36l89 534q6 36 -4 45t-55 9l4 26l121 11l-59 -355h1q18 35 57 67t93 32
q127 0 106 -134l-39 -235q-5 -30 4 -36.5t56 -6.5zM271 -159q-2 -17 -15.5 -29t-31.5 -12q-16 0 -26.5 11.5t-7.5 29.5q3 17 16.5 29t31.5 12q16 0 26 -11.5t7 -29.5z" />
    <glyph glyph-name="Hdieresis" unicode="&#x1e26;" horiz-adv-x="693" 
d="M641 0q-29 2 -113 2t-113 -2l4 26q55 0 68.5 6.5t19.5 38.5l45 271h-298l-45 -271q-6 -32 5.5 -38.5t66.5 -6.5l-4 -26q-29 2 -113 2t-113 -2l4 26q55 0 68.5 6.5t19.5 38.5l90 541q6 32 -5.5 38.5t-66.5 6.5l4 26q29 -2 113 -2t113 2l-4 -26q-55 0 -68.5 -6.5
t-19.5 -38.5l-41 -244h298l41 244q6 32 -5.5 38.5t-66.5 6.5l4 26q29 -2 113 -2t113 2l-4 -26q-55 0 -68.5 -6.5t-19.5 -38.5l-90 -541q-6 -32 5.5 -38.5t66.5 -6.5zM431 764q-2 -15 -14 -26t-28 -11q-15 0 -23.5 10.5t-6.5 26.5q2 15 14.5 25.5t27.5 10.5t24 -10.5t6 -25.5
zM587 764q-2 -15 -14 -26t-28 -11q-15 0 -23.5 10.5t-6.5 26.5q2 15 14.5 25.5t27.5 10.5t24 -10.5t6 -25.5z" />
    <glyph glyph-name="hdieresis" unicode="&#x1e27;" horiz-adv-x="511" 
d="M483 0q-24 2 -95 2q-70 0 -94 -2l4 26q47 0 59 7t17 36l39 239q19 114 -63 114q-53 0 -97 -46t-55 -115l-32 -192q-5 -30 4 -36.5t56 -6.5l-4 -26q-24 2 -95 2q-70 0 -94 -2l4 26q47 0 59 7t17 36l89 534q6 36 -4 45t-55 9l4 26l121 11l-59 -355h1q18 35 57 67t93 32
q127 0 106 -134l-39 -235q-5 -30 4 -36.5t56 -6.5zM342 775q-2 -15 -14 -26t-28 -11q-15 0 -23.5 10.5t-6.5 26.5q2 15 14.5 25.5t27.5 10.5t24 -10.5t6 -25.5zM498 775q-2 -15 -14 -26t-28 -11q-15 0 -23.5 10.5t-6.5 26.5q2 15 14.5 25.5t27.5 10.5t24 -10.5t6 -25.5z" />
    <glyph glyph-name="Hbrevebelow" unicode="&#x1e2a;" horiz-adv-x="693" 
d="M641 0q-29 2 -113 2t-113 -2l4 26q55 0 68.5 6.5t19.5 38.5l45 271h-298l-45 -271q-6 -32 5.5 -38.5t66.5 -6.5l-4 -26q-29 2 -113 2t-113 -2l4 26q55 0 68.5 6.5t19.5 38.5l90 541q6 32 -5.5 38.5t-66.5 6.5l4 26q29 -2 113 -2t113 2l-4 -26q-55 0 -68.5 -6.5
t-19.5 -38.5l-41 -244h298l41 244q6 32 -5.5 38.5t-66.5 6.5l4 26q29 -2 113 -2t113 2l-4 -26q-55 0 -68.5 -6.5t-19.5 -38.5l-90 -541q-6 -32 5.5 -38.5t66.5 -6.5zM473 -72q-14 -76 -62 -125t-106 -49t-89.5 49t-20.5 125h16q-9 -65 20 -105.5t79 -40.5t92.5 40.5
t54.5 105.5h16z" />
    <glyph glyph-name="hbrevebelow" unicode="&#x1e2b;" horiz-adv-x="511" 
d="M483 0q-24 2 -95 2q-70 0 -94 -2l4 26q47 0 59 7t17 36l39 239q19 114 -63 114q-53 0 -97 -46t-55 -115l-32 -192q-5 -30 4 -36.5t56 -6.5l-4 -26q-24 2 -95 2q-70 0 -94 -2l4 26q47 0 59 7t17 36l89 534q6 36 -4 45t-55 9l4 26l121 11l-59 -355h1q18 35 57 67t93 32
q127 0 106 -134l-39 -235q-5 -30 4 -36.5t56 -6.5zM385 -72q-14 -76 -62 -125t-106 -49t-89.5 49t-20.5 125h16q-9 -65 20 -105.5t79 -40.5t92.5 40.5t54.5 105.5h16z" />
    </font>
</defs>
</svg>
