<?xml version="1.0" standalone="no"?>
<!DOCTYPE svg PUBLIC "-//W3C//DTD SVG 1.1//EN" "http://www.w3.org/Graphics/SVG/1.1/DTD/svg11.dtd" >
<svg>
<metadata>
Created by FontForge 20120731 at Mon Jul 14 22:19:53 2014
 By tom,,,
Copyright 2003, 2009 B. Jackowski and J. M. Nowacki (on behalf of TeX users groups). This work is released under the GUST Font License --  see http://tug.org/fonts/licenses/GUST-FONT-LICENSE.txt for details.
</metadata>
<defs>
<font id="lmsans17-regular" horiz-adv-x="470" >
  <font-face 
    font-family="LM Sans 17"
    font-weight="400"
    font-stretch="normal"
    units-per-em="1000"
    panose-1="0 0 5 0 0 0 0 0 0 0"
    ascent="805"
    descent="-195"
    x-height="430"
    cap-height="694"
    bbox="-395 -305 1355 1159"
    underline-thickness="60"
    underline-position="-192"
    unicode-range="U+0020-FB04"
  />
<missing-glyph horiz-adv-x="280" 
 />
    <glyph glyph-name="I_J" unicode="IJ" horiz-adv-x="676" 
d="M171 0h-84v694h84v-694zM598 149q0 -80 -45 -122.5t-120 -42.5q-82 0 -161 42l13 73q49 -54 121 -54q61 0 85.5 31.5t24.5 75.5v542h82v-545z" />
    <glyph glyph-name="i_j" unicode="ij" horiz-adv-x="449" 
d="M153 564h-84v84h84v-84zM374 564h-84v84h84v-84zM148 0h-74v430h74v-430zM374 -60q0 -64 -35 -103.5t-84 -39.5q-59 0 -113 34l15 61q30 -31 71 -31q72 0 72 70v499h74v-490z" />
    <glyph glyph-name="f_k" unicode="fk" horiz-adv-x="747" 
d="M277 372h-109v-372h-74v372h-69v58h69v99q0 74 36 123.5t92 49.5q23 0 55 -8v-66q-19 13 -55 13q-25 0 -40.5 -21t-15.5 -59v-131h111v-58zM721 0h-85l-141 211l-67 -71v-140h-73v694h74v-450l175 186h96l-155 -165z" />
    <glyph glyph-name="f_f" unicode="ff" horiz-adv-x="549" 
d="M327 628q-36 13 -75 13q-34 0 -60 -18.5t-26 -64.5v-128h105v-58h-103v-372h-74v372h-69v58h69v97q0 75 45 125t114 50q30 0 74 -8v-66zM587 628q-36 13 -75 13q-34 0 -60 -18.5t-26 -64.5v-128h105v-58h-103v-372h-74v527q0 75 45 125t114 50q30 0 74 -8v-66z" />
    <glyph glyph-name="f_i" unicode="fi" horiz-adv-x="503" 
d="M430 615h-80v80h80v-80zM427 0h-74v430h74v-430zM277 372h-109v-372h-74v372h-69v58h69v99q0 74 36 123.5t92 49.5q23 0 55 -8v-67q-26 14 -55 14q-25 0 -40.5 -21t-15.5 -59v-131h111v-58z" />
    <glyph glyph-name="f_l" unicode="fl" horiz-adv-x="503" 
d="M277 372h-109v-372h-74v372h-69v58h69v99q0 74 36 123.5t92 49.5q23 0 55 -8v-66q-19 13 -55 13q-25 0 -40.5 -21t-15.5 -59v-131h111v-58zM427 0h-74v694h74v-694z" />
    <glyph glyph-name="f_f_i" unicode="&#xfb00;i" horiz-adv-x="764" 
d="M691 615h-80v80h80v-80zM688 0h-74v430h74v-430zM537 372h-109v-372h-74v529q0 74 36 123.5t92 49.5q30 0 55 -7v-68q-24 14 -55 14q-25 0 -40.5 -21t-15.5 -59v-131h111v-58zM300 628q-30 13 -64 13q-28 0 -49 -18.5t-21 -63.5v-129h111v-58h-109v-372h-74v372h-69v58
h69v98q0 75 40.5 124.5t101.5 49.5q34 0 64 -8v-66z" />
    <glyph glyph-name="f_f_l" unicode="ffl" horiz-adv-x="764" 
d="M300 628q-30 13 -64 13q-28 0 -49 -18.5t-21 -63.5v-129h111v-58h-109v-372h-74v372h-69v58h69v98q0 75 40.5 124.5t101.5 49.5q34 0 64 -8v-66zM688 0h-74v694h74v-694zM537 372h-109v-372h-74v529q0 74 36 123.5t92 49.5q23 0 55 -8v-66q-19 13 -55 13q-25 0 -40.5 -21
t-15.5 -59v-131h111v-58z" />
    <glyph glyph-name=".notdef" horiz-adv-x="280" 
 />
    <glyph glyph-name=".null" horiz-adv-x="0" 
 />
    <glyph glyph-name="nonmarkingreturn" horiz-adv-x="333" 
 />
    <glyph glyph-name="space" unicode=" " horiz-adv-x="313" 
 />
    <glyph glyph-name="exclam" unicode="!" horiz-adv-x="300" 
d="M190 694l-8 -525h-64l-8 525h80zM190 0h-80v80h80v-80z" />
    <glyph glyph-name="quotedbl" unicode="&#x22;" horiz-adv-x="413" 
d="M169 426h-76v284h76v-284zM321 426h-76v284h76v-284z" />
    <glyph glyph-name="numbersign" unicode="#" horiz-adv-x="784" 
d="M731 161q0 -18 -34 -18h-206l-80 -316q-5 -22 -19 -22q-8 0 -13 5.5t-5 12.5q0 5 4 18l77 302h-181l-80 -316q-6 -22 -19 -22q-7 0 -12.5 5.5t-5.5 12.5q0 5 4 18l77 302h-152q-34 0 -34 18q0 17 30 17h166l34 143h-200q-30 0 -30 17q0 18 34 18h206l80 316q6 22 19 22
q7 0 12.5 -5t5.5 -13q0 -5 -4 -18l-77 -302h181l80 316q5 22 19 22q8 0 13 -5t5 -13q0 -5 -4 -18l-77 -302h152q34 0 34 -18q0 -17 -30 -17h-166l-34 -143h200q30 0 30 -17zM499 321h-181l-34 -143h181z" />
    <glyph glyph-name="dollar" unicode="$" 
d="M417 195q0 -70 -40.5 -128t-112.5 -72v-50h-58v48q-91 10 -164 68l12 67q62 -61 152 -70v267q-39 9 -68.5 28t-45 40t-25.5 45.5t-12.5 41.5t-2.5 33q0 68 42.5 121.5t111.5 65.5v49h58v-48q38 -3 71.5 -17t49 -26t15.5 -15l-11 -62q-58 50 -125 56v-241
q76 -16 114.5 -74.5t38.5 -126.5zM206 412v222q-40 -11 -61.5 -43t-21.5 -68q0 -38 22 -69t61 -42zM346 185q0 39 -20.5 75t-61.5 49v-248q41 13 61.5 49t20.5 75z" />
    <glyph glyph-name="percent" unicode="%" horiz-adv-x="784" 
d="M313 548q0 -85 -38.5 -143t-91.5 -58q-52 0 -91.5 57.5t-39.5 143.5t39.5 143.5t91.5 57.5t91 -58t39 -143zM619 731q0 -6 -6 -16l-410 -752q-10 -18 -19 -18q-7 0 -12.5 5t-5.5 13q0 4 6 16l409 752q9 18 21 18q6 0 11.5 -5t5.5 -13zM731 146q0 -85 -38.5 -143
t-91.5 -58q-52 0 -91.5 57.5t-39.5 143.5t39.5 143.5t91.5 57.5t91 -58t39 -143zM240 548q0 55 -15.5 97.5t-41.5 42.5q-55 0 -55 -140t55 -140q26 0 41.5 42.5t15.5 97.5zM658 146q0 55 -15.5 97.5t-41.5 42.5q-55 0 -55 -140t55 -140q26 0 41.5 42.5t15.5 97.5z" />
    <glyph glyph-name="ampersand" unicode="&#x26;" horiz-adv-x="712" 
d="M659 -1q-57 -15 -109 -15q-80 0 -151 56q-87 -56 -187 -56q-75 0 -124 48.5t-49 114.5q0 68 56 120q44 44 86 80q-31 91 -31 168q0 81 36 138t98 57q56 0 92 -46.5t36 -106.5q0 -55 -62 -128q-13 -16 -34.5 -38t-35.5 -35l-15 -14q59 -118 146 -214q103 89 153 267
l62 -18q-14 -54 -36.5 -103.5t-42.5 -80.5t-42.5 -58.5t-32 -36.5t-15.5 -14q49 -36 95 -36q50 0 107 17v-66zM339 558q0 9 -1.5 21t-6.5 29.5t-17.5 29t-30.5 11.5q-26 0 -46.5 -24t-20.5 -76q0 -73 25 -145q29 29 45.5 47t34.5 49t18 58zM350 85q-97 108 -143 203
q-35 -30 -57 -53q-35 -31 -35 -82q0 -39 25.5 -72t72.5 -33q69 0 137 37z" />
    <glyph glyph-name="quotesingle" unicode="'" horiz-adv-x="261" 
d="M169 426h-76v284h76v-284z" />
    <glyph glyph-name="parenleft" unicode="(" horiz-adv-x="366" 
d="M313 -250h-61q-25 26 -40.5 44t-44.5 64.5t-46.5 95t-32 127.5t-14.5 169t14 168.5t32 127.5t47 95t45 65t40 43h61q-163 -168 -163 -500q0 -329 163 -499z" />
    <glyph glyph-name="parenright" unicode=")" horiz-adv-x="366" 
d="M291 249q0 -90 -14 -168.5t-32 -127.5t-47 -95t-45 -65t-40 -43h-61q163 168 163 500q0 329 -163 499h61q25 -26 40.5 -44t44.5 -64.5t46.5 -95t32 -127.5t14.5 -169z" />
    <glyph glyph-name="asterisk" unicode="*" 
d="M410 445q0 -14 -10.5 -24.5t-23.5 -10.5q-9 0 -24 11l-92 67l7 -126l1 -9q0 -16 -10.5 -25t-22.5 -9q-14 0 -24 9t-10 25l8 135l-92 -68q-13 -10 -24 -10q-13 0 -23.5 10.5t-10.5 24.5q0 19 21 31l108 58l-107 58q-22 11 -22 31q0 14 10.5 24.5t23.5 10.5q9 0 24 -11
l92 -67l-8 135q0 16 10.5 25t22.5 9q14 0 24 -9t10 -25l-8 -135l92 68q13 10 24 10q13 0 23.5 -10.5t10.5 -24.5q0 -19 -21 -31l-108 -58l107 -58q22 -11 22 -31z" />
    <glyph glyph-name="plus" unicode="+" horiz-adv-x="731" 
d="M678 249q0 -17 -31 -17h-264v-265q0 -31 -18 -31q-17 0 -17 31v265h-265q-31 0 -31 18q0 17 31 17h265v265q0 31 18 31q17 0 17 -31v-265h264q31 0 31 -18z" />
    <glyph glyph-name="comma" unicode="," horiz-adv-x="261" 
d="M170 1l-41 -126h-40l26 125h-25v80h80v-79z" />
    <glyph glyph-name="hyphen" unicode="-" horiz-adv-x="313" 
d="M260 186h-250v58h250v-58z" />
    <glyph glyph-name="period" unicode="." horiz-adv-x="261" 
d="M170 0h-80v80h80v-80z" />
    <glyph glyph-name="slash" unicode="/" 
d="M417 731q0 -4 -5 -17l-323 -943q-7 -20 -20 -20q-17 0 -17 18q0 4 5 17l323 943q7 20 20 20q17 0 17 -18z" />
    <glyph glyph-name="zero" unicode="0" 
d="M431 327q0 -157 -41 -241q-25 -50 -66.5 -76t-89.5 -26q-43 0 -86 24t-71 82q-39 83 -39 237q0 155 41 241q23 48 64 76t92 28q42 0 84 -23t70 -77q42 -84 42 -245zM355 338q0 120 -15 173q-31 100 -106 100q-70 0 -101 -86q-19 -55 -19 -187q0 -119 14 -177
q28 -116 106 -116q25 0 45 12t32 29t21 45.5t13.5 51.5t6.5 57t2.5 51.5t0.5 46.5z" />
    <glyph glyph-name="one" unicode="1" 
d="M402 0h-313v58h118v514q-48 -21 -123 -24v58q58 2 101 15t80 51h19v-614h118v-58z" />
    <glyph glyph-name="two" unicode="2" 
d="M422 0h-375v64l173 181q37 37 58 61t43 68t22 87q0 61 -36 104t-98 43q-55 0 -84 -37t-47 -112l-39 54q44 159 183 159q91 0 145.5 -61.5t54.5 -147.5q0 -73 -65 -152q-17 -20 -54.5 -56t-44.5 -43l-142 -144v-1h100q6 0 18 0.5t18 0.5h170v-68z" />
    <glyph glyph-name="three" unicode="3" 
d="M430 184q0 -81 -57 -140.5t-141 -59.5q-55 0 -107 26.5t-86 76.5q6 36 11 61q31 -51 81.5 -76.5t98.5 -25.5q53 0 84.5 39.5t31.5 99.5q0 33 -10 62t-38.5 53t-72.5 24h-68v61q56 7 74 7q42 10 68 48t26 81q0 40 -25.5 65t-67.5 25q-49 0 -89 -29t-57 -74q-23 38 -34 54
q23 46 71.5 78t109.5 32q71 0 121 -44t50 -107q0 -52 -28.5 -96.5t-75.5 -70.5q57 -19 93.5 -65.5t36.5 -104.5z" />
    <glyph glyph-name="four" unicode="4" 
d="M443 171h-91v-171h-79v171h-247v61l238 424h88v-424h91v-61zM276 232v378q-1 -76 -173 -378h173z" />
    <glyph glyph-name="five" unicode="5" 
d="M422 203q0 -90 -60 -154.5t-147 -64.5q-50 0 -99.5 24.5t-81.5 74.5l32 56q20 -41 61 -67t88 -26q48 0 85.5 38t37.5 121q0 79 -28 117t-67 38q-35 0 -62 -20t-41 -53h-67v369h318v-64h-245v-207q44 36 98 36q73 0 125.5 -63t52.5 -155z" />
    <glyph glyph-name="six" unicode="6" 
d="M430 222q0 -57 -13.5 -95.5t-47.5 -78.5q-55 -64 -133 -64q-27 0 -52 8.5t-52.5 31.5t-47 59t-32.5 97.5t-13 140.5q0 156 74.5 253.5t176.5 97.5q51 0 100 -20v-62q-48 21 -99 21q-71 0 -117 -64t-54 -170q63 79 158 79q66 0 109 -69t43 -165zM351 222q0 76 -22 117
q-33 56 -89 56q-53 0 -85.5 -43.5t-32.5 -104.5q-1 -15 -1 -28q17 -173 115 -173q56 0 92 58q23 40 23 118z" />
    <glyph glyph-name="seven" unicode="7" 
d="M430 591q-101 -127 -154 -282.5t-53 -316.5h-80q0 163 58.5 317t166.5 280h-115q-6 0 -18 -0.5t-18 -0.5h-178v68h391v-65z" />
    <glyph glyph-name="eight" unicode="8" 
d="M430 184q0 -82 -57 -141t-139 -59q-80 0 -137.5 59t-57.5 141q0 50 30.5 97.5t97.5 73.5q-55 19 -85 58.5t-30 85.5q0 69 52.5 121t130.5 52q76 0 129 -51.5t53 -121.5q0 -46 -30 -86t-85 -58q63 -25 95.5 -71.5t32.5 -99.5zM346 498q0 53 -31.5 83t-79.5 30
q-51 0 -81.5 -30.5t-30.5 -82.5q0 -51 31 -82t81 -31q49 0 80 30t31 83zM352 185q0 70 -35.5 104.5t-82.5 34.5q-44 0 -80.5 -34.5t-36.5 -104.5t35 -104.5t83 -34.5q46 0 81.5 34t35.5 105z" />
    <glyph glyph-name="nine" unicode="9" 
d="M430 335q0 -156 -71 -253.5t-166 -97.5q-70 0 -125 47l31 53q41 -38 94 -38q65 0 108 65t48 168q-63 -79 -158 -79q-33 0 -59 16t-53 59q-40 69 -40 158q0 96 52 161q60 78 147 78q23 0 46 -7t50.5 -29t47.5 -57t34 -98t14 -146zM347 411q0 17 -1 24q-1 21 -5 45.5
t-14.5 56.5t-33.5 53t-55 21q-56 0 -92 -53q-28 -43 -28 -125q0 -76 23 -117q32 -55 88 -55q52 0 85 43t33 107z" />
    <glyph glyph-name="colon" unicode=":" horiz-adv-x="261" 
d="M170 350h-80v80h80v-80zM170 0h-80v80h80v-80z" />
    <glyph glyph-name="semicolon" unicode=";" horiz-adv-x="261" 
d="M170 350h-80v80h80v-80zM170 1l-41 -126h-40l26 125h-25v80h80v-79z" />
    <glyph glyph-name="less" unicode="&#x3c;" horiz-adv-x="762" 
d="M679 -9q0 -19 -19 -19q-4 1 -17 7l-541 249q-20 9 -20 22q0 12 20 21l541 249l17 7q19 0 19 -19q0 -12 -20 -21l-515 -238l515 -237q20 -9 20 -21z" />
    <glyph glyph-name="equal" unicode="=" horiz-adv-x="731" 
d="M678 338q0 -17 -30 -17h-566q-30 0 -30 17q0 18 34 18h558q34 0 34 -18zM678 161q0 -18 -34 -18h-558q-34 0 -34 18q0 17 30 17h566q30 0 30 -17z" />
    <glyph glyph-name="greater" unicode="&#x3e;" horiz-adv-x="762" 
d="M679 250q0 -13 -20 -22l-541 -249l-17 -7q-8 0 -13.5 5.5t-5.5 12.5q0 13 20 22l515 238l-514 237q-21 10 -21 22q0 7 5.5 12.5t13.5 5.5q4 -1 17 -7l541 -249q20 -9 20 -21z" />
    <glyph glyph-name="question" unicode="?" horiz-adv-x="444" 
d="M391 546q0 -73 -52 -119q-99 -85 -99 -210v-48h-64v52q0 149 110 253q29 29 29 74q0 54 -29 73.5t-76 19.5q-77 0 -136 -54l-22 62q72 53 158 53q91 0 136 -43.5t45 -112.5zM248 0h-80v80h80v-80z" />
    <glyph glyph-name="at" unicode="@" horiz-adv-x="627" 
d="M573 87q-28 -35 -82 -65t-126 -30q-128 0 -220.5 102.5t-92.5 252.5q0 151 93.5 253t217.5 102q210 0 210 -339q0 -66 -18.5 -116t-47 -75.5t-56.5 -37.5t-53 -12q-70 0 -122.5 65t-52.5 160q0 96 52 160.5t123 64.5q37 0 75 -22q-32 91 -110 91q-93 0 -164 -84t-71 -210
q0 -122 69.5 -208t169.5 -86q68 0 132 29q10 5 27 5h47zM497 347q0 69 -29.5 116.5t-69.5 47.5t-69.5 -47.5t-29.5 -116.5t29.5 -116.5t69.5 -47.5t69.5 47.5t29.5 116.5z" />
    <glyph glyph-name="A" unicode="A" horiz-adv-x="625" 
d="M598 0h-87l-71 202h-268l-70 -202h-76l243 694h86zM421 258l-70 207q-37 111 -44 152h-1q-7 -43 -115 -359h230z" />
    <glyph glyph-name="B" unicode="B" horiz-adv-x="626" 
d="M573 188q0 -75 -67.5 -131.5t-167.5 -56.5h-249v694h223q100 0 167.5 -52t67.5 -122q0 -19 -6.5 -38t-22 -41.5t-48.5 -43.5t-79 -34q85 -16 133.5 -65.5t48.5 -109.5zM469 519q0 50 -53.5 84.5t-130.5 34.5h-115v-247h106q90 0 141.5 39t51.5 89zM494 189
q0 56 -55.5 98.5t-135.5 42.5h-133v-274h140q80 0 132 40t52 93z" />
    <glyph glyph-name="C" unicode="C" horiz-adv-x="601" 
d="M547 47q-53 -34 -88 -45q-36 -10 -98 -10q-124 0 -212 103t-88 248q0 146 88 249t212 103q50 0 89 -8q42 -8 87 -26l-14 -80q-50 30 -78 38q-36 12 -84 12q-89 0 -152 -84q-65 -84 -65 -204q0 -118 65 -203q62 -84 152 -84q61 0 95 11q30 9 85 48z" />
    <glyph glyph-name="D" unicode="D" horiz-adv-x="678" 
d="M625 341q0 -141 -84 -241t-206 -100h-246v694h246q122 0 206 -103.5t84 -249.5zM543 341q0 130 -64.5 213.5t-165.5 83.5h-142v-582h142q101 0 165.5 80t64.5 205z" />
    <glyph glyph-name="E" unicode="E" horiz-adv-x="561" 
d="M521 0h-433v692h420v-65h-171q-6 0 -18 0.5t-18 0.5h-129v-238h310v-61h-310v-262l134 1l215 1v-69z" />
    <glyph glyph-name="F" unicode="F" horiz-adv-x="535" 
d="M495 627h-165q-6 0 -18 0.5t-18 0.5h-122v-251h284v-61h-284v-316h-84v692h407v-65z" />
    <glyph glyph-name="G" unicode="G" horiz-adv-x="627" 
d="M558 41q-92 -49 -197 -49q-124 0 -212 103t-88 248q0 146 88 249t212 103q53 0 98 -11q44 -11 91 -37l-14 -80q-44 35 -82 49q-41 15 -93 15q-89 0 -152 -84q-64 -82 -64 -204q0 -119 64 -203q62 -84 152 -84q64 0 121 19v154h-121v62h197v-250z" />
    <glyph glyph-name="H" unicode="H" horiz-adv-x="663" 
d="M574 0h-84v330h-318v-330h-84v694h84v-303h318v303h84v-694z" />
    <glyph glyph-name="I" unicode="I" horiz-adv-x="259" 
d="M171 0h-84v694h84v-694z" />
    <glyph glyph-name="J" unicode="J" horiz-adv-x="443" 
d="M365 149q0 -80 -45 -122.5t-120 -42.5q-82 0 -161 42l13 73q49 -54 121 -54q61 0 85.5 31.5t24.5 75.5v542h82v-545z" />
    <glyph glyph-name="K" unicode="K" horiz-adv-x="651" 
d="M611 0h-93l-225 358l-121 -133v-225h-84v694h84v-363l330 363h96l-249 -275z" />
    <glyph glyph-name="L" unicode="L" horiz-adv-x="509" 
d="M469 0h-381v694h84v-630h53q6 0 18 0.5t18 0.5h208v-65z" />
    <glyph glyph-name="M" unicode="M" horiz-adv-x="820" 
d="M729 0h-79v615h-1q-5 -26 -41 -133l-44 -131l-119 -335h-74l-132 377q-27 78 -44.5 133t-21.5 71l-4 16h-1v-613h-78v694h117l148 -420l29 -89q21 -68 25 -92h1q3 15 41 139l48 141l114 321h116v-694z" />
    <glyph glyph-name="N" unicode="N" horiz-adv-x="663" 
d="M574 0h-123l-18 37l-214 465l-52 116l-1 -1v-617h-78v694h123l18 -37l214 -465l52 -116l1 1v617h78v-694z" />
    <glyph glyph-name="O" unicode="O" horiz-adv-x="693" 
d="M640 346q0 -154 -87.5 -258t-206.5 -104t-206.5 104t-87.5 258q0 153 87 258.5t207 105.5t207 -105t87 -259zM556 359q0 131 -63 209.5t-147 78.5t-147 -78.5t-63 -209.5q0 -137 62 -224.5t148 -87.5q85 0 147.5 87t62.5 225z" />
    <glyph glyph-name="P" unicode="P" horiz-adv-x="600" 
d="M547 492q0 -83 -64 -143t-154 -60h-156v-289h-84v694h234q96 0 160 -59.5t64 -142.5zM468 492q0 60 -42.5 103t-124.5 43h-130v-291h130q83 0 125 43.5t42 101.5z" />
    <glyph glyph-name="Q" unicode="Q" horiz-adv-x="693" 
d="M640 346q0 -195 -140 -309l114 -162h-98l-84 125q-42 -16 -86 -16q-119 0 -206.5 104t-87.5 258q0 153 87 258.5t207 105.5t207 -105t87 -259zM558 346q0 133 -63 217t-149 84t-149 -83.5t-63 -217.5t63.5 -216.5t148.5 -82.5q27 0 49 8l-92 139h86l72 -101q97 91 97 253
z" />
    <glyph glyph-name="R" unicode="R" horiz-adv-x="606" 
d="M579 0h-84l-177 317h-147v-317h-82v694h224q104 0 172 -56t68 -130q0 -15 -3.5 -30.5t-16 -45.5t-48 -58t-89.5 -47l-2 -1zM474 508q0 51 -42.5 90.5t-129.5 39.5h-131v-260h131q89 0 130.5 40t41.5 90z" />
    <glyph glyph-name="S" unicode="S" horiz-adv-x="522" 
d="M469 191q0 -84 -60.5 -145.5t-150.5 -61.5q-120 0 -216 70l14 79q88 -81 201 -81q62 0 99 39.5t37 90.5q0 38 -21.5 71.5t-61.5 49.5q-12 5 -69 20q-35 9 -54 15t-43 20t-42 35q-50 56 -50 125q0 76 59.5 134t152.5 58q90 0 173 -49l-14 -80q-68 63 -159 63
q-62 0 -99 -35.5t-37 -81.5q0 -36 26 -70q17 -21 38.5 -30.5t63.5 -20.5q70 -19 100.5 -32.5t58.5 -44.5q54 -60 54 -138z" />
    <glyph glyph-name="T" unicode="T" horiz-adv-x="641" 
d="M606 626h-125q-6 0 -18 0.5t-18 0.5h-83v-627h-84v627h-83q-6 0 -18 -0.5t-18 -0.5h-125v65h572v-65z" />
    <glyph glyph-name="U" unicode="U" horiz-adv-x="644" 
d="M555 233q0 -106 -68.5 -177.5t-163.5 -71.5t-165 71.5t-70 177.5v461h84v-463q0 -91 45 -141t107 -50t108.5 49.5t46.5 142.5v462h76v-461z" />
    <glyph glyph-name="V" unicode="V" horiz-adv-x="625" 
d="M611 694l-255 -694h-88l-255 694h88l43 -117l116 -325q51 -146 57 -176h1q8 43 42 138l173 480h78z" />
    <glyph glyph-name="W" unicode="W" horiz-adv-x="886" 
d="M872 694l-190 -694h-87l-106 400q-48 180 -48 213h-1q-2 -30 -35 -165l-40 -159l-79 -289h-83l-190 694h86l77 -285l43 -173q32 -134 32 -156h1q4 44 33 164l40 159l79 291h84l83 -307l39 -158q28 -114 31 -148h1q2 24 33 152l37 150l84 311h76z" />
    <glyph glyph-name="X" unicode="X" horiz-adv-x="625" 
d="M611 0h-99l-207 305l-200 -305h-92l251 366l-238 328h99l180 -260l175 260h92l-226 -328z" />
    <glyph glyph-name="Y" unicode="Y" horiz-adv-x="625" 
d="M621 694l-268 -417v-277h-82v278l-268 416h98l168 -263l49 -79q8 14 62 100l155 242h86z" />
    <glyph glyph-name="Z" unicode="Z" horiz-adv-x="575" 
d="M527 0h-475v43l364 589h-128q-6 0 -18 -0.5t-18 -0.5h-187v63h457v-41l-364 -589h30l250 2h89v-66z" />
    <glyph glyph-name="bracketleft" unicode="[" horiz-adv-x="273" 
d="M252 -249h-159v998h159v-61h-86v-876h86v-61z" />
    <glyph glyph-name="backslash" unicode="\" horiz-adv-x="500" 
d="M443 -230q0 -8 -6 -14t-14 -6q-14 0 -22 22l-340 940l-5 18q0 8 6 14t14 6q14 0 22 -22l340 -940z" />
    <glyph glyph-name="bracketright" unicode="]" horiz-adv-x="273" 
d="M179 -249h-159v61h86v876h-86v61h159v-998z" />
    <glyph glyph-name="asciicircum" unicode="^" horiz-adv-x="556" 
d="M561 584l-12 -22l-272 123l-271 -123l-11 22l283 160z" />
    <glyph glyph-name="underscore" unicode="_" horiz-adv-x="625" 
d="M625 -163h-625v76h625v-76z" />
    <glyph glyph-name="grave" unicode="`" 
d="M302 518h-61l-139 176h76z" />
    <glyph glyph-name="a" unicode="a" horiz-adv-x="451" 
d="M386 0h-74v37q-61 -45 -154 -45q-55 0 -81.5 40.5t-26.5 81.5q0 59 69 92.5t191 37.5v38q0 47 -22 74t-60 27q-75 0 -140 -47l-6 66q69 40 147 40q68 0 112.5 -44.5t44.5 -114.5v-283zM310 132v62q-21 -1 -43.5 -3.5t-60 -9.5t-60.5 -24t-23 -41q0 -27 23.5 -45t60.5 -18
q44 0 73 19q30 18 30 60z" />
    <glyph glyph-name="b" unicode="b" horiz-adv-x="484" 
d="M450 216q0 -95 -51 -159.5t-123 -64.5q-71 0 -125 53v-45h-76v694h74v-309q65 53 152 53q65 0 107 -66t42 -156zM374 216q0 82 -37.5 121.5t-88.5 39.5q-57 0 -97 -51v-198q0 -29 27 -53q26 -22 61 -22q51 0 93 39t42 124z" />
    <glyph glyph-name="c" unicode="c" horiz-adv-x="418" 
d="M391 40q-72 -48 -154 -48q-87 0 -145.5 66t-58.5 157t57.5 159t150.5 68q53 0 86 -12q13 -4 35.5 -15t22.5 -16l-11 -62q-35 24 -63 33t-69 9q-68 0 -100.5 -49.5t-32.5 -113.5q0 -71 35.5 -116t93.5 -45q81 0 147 51z" />
    <glyph glyph-name="d" unicode="d" horiz-adv-x="484" 
d="M408 0h-76v50q-66 -58 -139 -58q-67 0 -113.5 65t-46.5 158t47.5 158t115.5 65q78 0 138 -50v306h74v-694zM332 134v195q-34 48 -88 48q-51 0 -93 -39t-42 -124q0 -83 38.5 -122t86.5 -39q38 0 67 25q31 27 31 56z" />
    <glyph glyph-name="e" unicode="e" horiz-adv-x="418" 
d="M391 219h-290q2 -79 42.5 -122.5t93.5 -43.5q79 0 143 52l3 -37q3 -23 3 -27q-68 -49 -150 -49q-86 0 -146 66t-60 159q0 94 56.5 159.5t135.5 65.5q90 0 135 -73q34 -56 34 -150zM325 274q-5 30 -16.5 51.5t-23 32t-26.5 16t-22 6.5t-15 1q-40 0 -71.5 -31.5
t-41.5 -75.5h216z" />
    <glyph glyph-name="f" unicode="f" horiz-adv-x="287" 
d="M325 628q-36 13 -74 13q-32 0 -58.5 -18t-26.5 -65v-128h103v-58h-101v-372h-74v372h-69v58h69v97q0 75 44.5 125t113.5 50q36 0 73 -8v-66z" />
    <glyph glyph-name="g" unicode="g" 
d="M456 376q-37 4 -63 4q-7 0 -21 -1t-26 -1.5t-13 -0.5h-3q31 -41 31 -95q0 -64 -45 -110t-107 -46q-49 0 -87 28q-10 -14 -10 -34q0 -51 55 -51h81q195 0 195 -139q0 -56 -60.5 -95t-148.5 -39q-87 0 -147.5 39t-60.5 94q0 64 59 100q-25 32 -25 74q0 43 28 82
q-3 3 -9.5 13.5t-14.5 35t-8 48.5q0 64 44.5 110t108.5 46q51 0 90 -31q62 30 146 31zM290 282q0 54 -25 77.5t-57 23.5q-12 0 -24 -4t-26 -13.5t-22.5 -31t-8.5 -52.5q0 -54 25 -77.5t57 -23.5q12 0 24 4t26 13.5t22.5 31t8.5 52.5zM372 -72q0 68 -125 68h-81
q-19 0 -33.5 -7t-21 -15t-10 -19.5t-4 -16.5t-0.5 -9q0 -33 40 -55.5t98 -22.5q57 0 97 22.5t40 54.5z" />
    <glyph glyph-name="h" unicode="h" horiz-adv-x="484" 
d="M409 0h-76v284q0 17 -2 29.5t-10 29t-28 25.5t-51 9q-47 0 -69.5 -40t-22.5 -95v-242h-76v694h74v-321q55 65 133 65q128 0 128 -146v-292z" />
    <glyph glyph-name="i" unicode="i" horiz-adv-x="223" 
d="M148 0h-74v430h74v-430zM154 564h-84v84h84v-84z" />
    <glyph glyph-name="j" unicode="j" horiz-adv-x="249" 
d="M174 -60q0 -64 -35 -103.5t-84 -39.5q-59 0 -113 34l20 61q28 -31 69 -31q27 0 48 15t21 55v499h74v-490zM174 564h-84v84h84v-84z" />
    <glyph glyph-name="k" unicode="k" horiz-adv-x="458" 
d="M441 0h-85l-141 211l-67 -71v-140h-73v694h74v-450l175 186h96l-155 -165z" />
    <glyph glyph-name="l" unicode="l" horiz-adv-x="223" 
d="M148 0h-74v694h74v-694z" />
    <glyph glyph-name="m" unicode="m" horiz-adv-x="745" 
d="M670 0h-76v284q0 13 -0.5 21.5t-5.5 23.5t-13.5 24t-27 16.5t-44.5 7.5q-48 0 -70.5 -41t-22.5 -94v-242h-76v284q0 13 -0.5 21.5t-5.5 23.5t-13.5 24t-27 16.5t-44.5 7.5q-48 0 -70.5 -41t-22.5 -94v-242h-76v433h73v-62q55 67 134 67q94 0 120 -76q52 76 140 76
q129 0 129 -146v-292z" />
    <glyph glyph-name="n" unicode="n" horiz-adv-x="484" 
d="M409 0h-76v284q0 17 -2 29.5t-10 29t-28 25.5t-51 9q-47 0 -69.5 -40t-22.5 -95v-242h-76v433h73v-62q55 67 134 67q128 0 128 -146v-292z" />
    <glyph glyph-name="o" unicode="o" 
d="M442 214q0 -93 -61 -157.5t-147 -64.5q-85 0 -146 64t-61 158t61 161t147 67q85 0 146 -66.5t61 -161.5zM366 222q0 78 -39 118t-93 40q-52 0 -91.5 -39t-39.5 -119q0 -78 38 -123t93 -45q54 0 93 44t39 124z" />
    <glyph glyph-name="p" unicode="p" horiz-adv-x="484" 
d="M450 216q0 -95 -51 -159.5t-122 -64.5t-126 53v-240h-76v625h74v-46q67 54 155 54q63 0 104.5 -65.5t41.5 -156.5zM374 216q0 65 -37 112t-89 47q-25 0 -47.5 -10.5t-33 -20.5t-16.5 -19v-197q0 -29 27 -53q26 -22 61 -22q53 0 94 46t41 117z" />
    <glyph glyph-name="q" unicode="q" horiz-adv-x="484" 
d="M408 -195h-76v245q-61 -58 -140 -58q-67 0 -113 65t-46 157q0 96 51.5 160t121.5 64q35 0 67 -15.5t43 -26t18 -19.5v61h74v-633zM334 137v140q0 35 -25 66.5t-65 31.5q-53 0 -94 -45.5t-41 -115.5q0 -66 36.5 -113.5t89.5 -47.5q37 0 68 27q31 26 31 57z" />
    <glyph glyph-name="r" unicode="r" horiz-adv-x="320" 
d="M306 372q-67 -2 -112 -46t-45 -113v-213h-74v433h71v-80q58 83 160 85v-66z" />
    <glyph glyph-name="s" unicode="s" horiz-adv-x="360" 
d="M338 124q0 -53 -35.5 -92.5t-118.5 -39.5q-84 0 -158 43l12 67q65 -47 145 -47q85 0 85 63q0 14 -6 25.5t-14 18t-23.5 12t-25 7.5l-28.5 6q-140 28 -140 129q0 36 14 62t38 39t49.5 19t54.5 6q72 0 135 -30l-12 -65q-63 35 -132 35q-77 0 -77 -57q0 -20 14 -34t26 -18
t23 -6q64 -13 83.5 -20t43.5 -26q47 -37 47 -97z" />
    <glyph glyph-name="t" unicode="t" horiz-adv-x="340" 
d="M313 29q-71 -37 -140 -37q-79 0 -79 127v253h-77v58h79v123h71v-123h130v-58h-130v-236q0 -81 46 -81t84 33z" />
    <glyph glyph-name="u" unicode="u" horiz-adv-x="484" 
d="M409 0h-74v50q-63 -58 -165 -58q-51 0 -73.5 28t-22.5 88v322h76v-317q0 -35 13 -49t59 -14q47 0 79 26t32 78v276h76v-430z" />
    <glyph glyph-name="v" unicode="v" horiz-adv-x="432" 
d="M418 430l-158 -430h-89l-158 430h80l88 -247l20 -66q14 -49 15 -62h1q4 38 56 188l67 187h78z" />
    <glyph glyph-name="w" unicode="w" horiz-adv-x="641" 
d="M627 430l-130 -430h-88l-66 233q-26 91 -29 139q-3 -68 -95 -372h-76l-130 430h78l45 -153q48 -176 51 -219h1q2 50 46 201l50 171h69l51 -175q44 -148 47 -197h1q4 46 46 192l53 180h76z" />
    <glyph glyph-name="x" unicode="x" horiz-adv-x="432" 
d="M431 0h-88l-130 176l-125 -176h-88l178 222l-173 208h89l119 -151l115 151h87l-167 -208z" />
    <glyph glyph-name="y" unicode="y" horiz-adv-x="432" 
d="M418 430l-190 -510q-16 -43 -34 -70.5t-35.5 -37.5t-27.5 -12.5t-24 -2.5q-28 0 -68 8l-6 66q39 -12 72 -12q11 0 16.5 2t16 15t20.5 39q3 6 32 85l-177 430h81l47 -117q78 -192 82 -255h1q3 67 116 372h78z" />
    <glyph glyph-name="z" unicode="z" horiz-adv-x="408" 
d="M378 0h-352v41l247 330h-70q-6 0 -18 -0.5t-18 -0.5h-128v60h336v-39l-246 -330h77q6 0 18 0.5t18 0.5h136v-62z" />
    <glyph glyph-name="braceleft" unicode="{" horiz-adv-x="500" 
d="M427 -239q0 -11 -20 -11q-85 0 -139 38q-35 25 -43.5 51t-8.5 78v198q0 35 -13.5 60.5t-35 38t-40.5 18.5t-39 7q-5 1 -7 1t-4.5 1t-3.5 3t-1 6q0 11 14 11q63 4 104 45q19 20 22.5 42t3.5 96v183q1 53 57.5 88t133.5 35q20 0 20 -11q0 -9 -9 -11q-32 -2 -56 -10.5
t-33 -15.5t-22 -20q-17 -18 -20.5 -39t-3.5 -80v-180q0 -99 -118 -133q101 -29 116 -103q2 -10 2 -91v-150q0 -37 3 -48q8 -32 39.5 -57.5t85.5 -28.5q5 -1 7 -1t4.5 -1t3.5 -3t1 -6z" />
    <glyph glyph-name="bar" unicode="|" horiz-adv-x="278" 
d="M159 -217q0 -33 -20 -33t-20 33v934q0 33 20 33t20 -33v-934z" />
    <glyph glyph-name="braceright" unicode="}" horiz-adv-x="500" 
d="M427 250q0 -11 -14 -11q-63 -4 -104 -45q-19 -20 -22.5 -42t-3.5 -96v-183q-1 -53 -57.5 -88t-133.5 -35q-20 0 -20 11q0 9 9 11q32 2 56 10.5t33 15.5t22 20q17 18 20.5 39t3.5 80v180q0 99 118 133q-101 29 -116 103q-2 10 -2 91v150q0 37 -3 48q-8 32 -39.5 57.5
t-85.5 28.5q-5 1 -7 1t-4.5 1t-3.5 3t-1 6q0 11 20 11q83 0 139 -38q35 -25 43.5 -51t8.5 -78v-198q0 -35 13.5 -60.5t35 -38t40.5 -18.5t39 -7q5 -1 7 -1t4.5 -1t3.5 -3t1 -6z" />
    <glyph glyph-name="asciitilde" unicode="~" horiz-adv-x="556" 
d="M555 290l-54 -44q-20 -17 -57 -35q-40 -18 -73 -18q-42 0 -100 34q-65 37 -104 37q-68 0 -153 -71l-14 17l54 44q20 17 57 35q40 18 73 18q42 0 100 -34q65 -37 104 -37q68 0 153 71z" />
    <glyph glyph-name="uni00A0" unicode="&#xa0;" 
 />
    <glyph glyph-name="exclamdown" unicode="&#xa1;" horiz-adv-x="300" 
d="M190 420h-80v80h80v-80zM190 -195h-80l8 526h64z" />
    <glyph glyph-name="cent" unicode="&#xa2;" horiz-adv-x="418" 
d="M391 40q-60 -41 -129 -47v-57h-64v60q-72 15 -118.5 77t-46.5 142q0 79 45 143t120 80v57h64v-53q38 -2 65 -12q13 -4 35.5 -15t22.5 -16l-11 -62q-57 38 -112 41v-322q67 7 123 50zM198 62v310q-46 -15 -67.5 -59.5t-21.5 -96.5q0 -57 24 -98.5t65 -55.5z" />
    <glyph glyph-name="sterling" unicode="&#xa3;" horiz-adv-x="625" 
d="M562 144q0 -65 -37 -112.5t-95 -47.5q-39 0 -99 15q-52 13 -80.5 19t-66.5 3.5t-54 -22.5l-60 46q31 40 49.5 67.5t36.5 68t22 78.5q3 32 -2 56h-114v64h93q-10 23 -15 41q-19 67 -0.5 130.5t67 103.5t112.5 40q77 0 129 -61.5t52 -146.5h-76q0 54 -29.5 93t-75.5 39
q-60 0 -92 -55.5t-14 -121.5q2 -7 23 -62h139v-64h-122q4 -30 1 -64q-8 -72 -54 -152q45 -1 150 -26q48 -13 80 -13q26 0 41 25t15 59h76z" />
    <glyph glyph-name="currency" unicode="&#xa4;" horiz-adv-x="731" 
d="M587 28q-12 -12 -34 10l-73 73q-49 -41 -114 -41q-66 0 -115 41l-73 -73q-22 -22 -35 -9t10 33l73 74q-41 51 -41 114t41 114l-73 73q-7 7 -8 8.5t-4.5 7.5t-2.5 10t6 9q12 12 34 -10l73 -73q49 41 115 41q65 0 114 -41l72 72q22 22 35 9t-10 -33l-72 -72q41 -50 41 -115
q0 -66 -41 -115l72 -73q23 -20 10 -34zM512 250q0 61 -43 103.5t-103 42.5q-61 0 -104 -42.5t-43 -103.5t43 -103.5t104 -42.5q60 0 103 42.5t43 103.5z" />
    <glyph glyph-name="yen" unicode="&#xa5;" horiz-adv-x="625" 
d="M621 694l-217 -337h116v-64h-157l-10 -16v-59h167v-64h-167v-154h-82v154h-167v64h167v60l-10 15h-157v64h116l-217 337h98l168 -263l46 -74h6q10 18 35 57l24 38l155 242h86z" />
    <glyph glyph-name="brokenbar" unicode="&#xa6;" horiz-adv-x="278" 
d="M159 343q0 -32 -20 -32t-20 32v374q0 33 20 33t20 -33v-374zM159 -217q0 -33 -20 -33t-20 33v374q0 32 20 32t20 -32v-374z" />
    <glyph glyph-name="section" unicode="&#xa7;" horiz-adv-x="506" 
d="M470 194q0 -82 -69 -133q31 -42 31 -91q0 -73 -52.5 -124.5t-126.5 -51.5t-126.5 50t-52.5 122h76q0 -43 30 -73.5t73 -30.5t73 31.5t30 76.5q0 60 -92 108l-95 49q-59 30 -96 76t-37 103q0 83 69 132q-31 44 -31 92q0 73 52.5 124.5t126.5 51.5t126.5 -50t52.5 -122h-76
q0 43 -30 73.5t-73 30.5t-73 -31.5t-30 -76.5q0 -60 92 -108l95 -49q59 -30 96 -76t37 -103zM394 194q0 65 -92 112l-95 49q-24 12 -53 33q-42 -27 -42 -82q0 -65 92 -112l95 -49q32 -17 53 -34q42 29 42 83z" />
    <glyph glyph-name="dieresis" unicode="&#xa8;" 
d="M203 569h-76v75h76v-75zM343 569h-76v75h76v-75z" />
    <glyph glyph-name="copyright" unicode="&#xa9;" horiz-adv-x="694" 
d="M694 347q0 -144 -101.5 -245.5t-245.5 -101.5t-245.5 101.5t-101.5 245.5t101.5 245.5t245.5 101.5t245.5 -101.5t101.5 -245.5zM660 347q0 130 -91.5 221.5t-221.5 91.5t-221.5 -91.5t-91.5 -221.5t91.5 -221.5t221.5 -91.5t221.5 91.5t91.5 221.5zM494 139
q-35 -22 -59.5 -30t-63.5 -8q-91 0 -150.5 73t-59.5 173t59.5 173t149.5 73q60 0 117 -23l-10 -55q-49 35 -107 35q-66 0 -109 -60t-43 -143q0 -81 42 -142t112 -61q36 0 61.5 8.5t55.5 32.5q3 -21 3 -24z" />
    <glyph glyph-name="ordfeminine" unicode="&#xaa;" horiz-adv-x="349" 
d="M316 401h-62v26q-52 -32 -130 -32q-46 0 -68 28.5t-22 57.5q0 41 58 64.5t160 26.5v26q0 33 -18.5 52t-50.5 19q-64 0 -117 -33l-6 46q57 28 124 28q57 0 94.5 -31t37.5 -80v-198zM284 343q0 -9 -9.5 -15.5t-22.5 -6.5h-154q-13 0 -22.5 6.5t-9.5 15.5t9.5 15.5t22.5 6.5
h154q13 0 22.5 -6.5t9.5 -15.5zM252 493v44q-157 -6 -157 -55q0 -18 19.5 -31t50.5 -13q36 0 62 13q25 13 25 42z" />
    <glyph glyph-name="guillemotleft" unicode="&#xab;" 
d="M261 0h-61l-96 219l96 218h61l-81 -218zM418 0h-61l-96 219l96 218h61l-81 -218z" />
    <glyph glyph-name="logicalnot" unicode="&#xac;" horiz-adv-x="731" 
d="M678 160q0 -7 -5 -12t-12 -5t-12 5t-5 12v162h-575q-7 0 -12 5t-5 12t5 12t12 5h592q7 0 12 -5t5 -12v-179z" />
    <glyph glyph-name="uni00AD" unicode="&#xad;" horiz-adv-x="313" 
d="M260 186h-250v58h250v-58z" />
    <glyph glyph-name="registered" unicode="&#xae;" horiz-adv-x="694" 
d="M694 347q0 -144 -101.5 -245.5t-245.5 -101.5t-245.5 101.5t-101.5 245.5t101.5 245.5t245.5 101.5t245.5 -101.5t101.5 -245.5zM660 347q0 130 -91.5 221.5t-221.5 91.5t-221.5 -91.5t-91.5 -221.5t91.5 -221.5t221.5 -91.5t221.5 91.5t91.5 221.5zM528 112h-57
l-120 215h-99v-215h-56v470h152q71 0 117 -37.5t46 -88.5q0 -10 -2.5 -20.5t-11 -31t-32.5 -39.5t-61 -31l-1 -1zM457 456q0 35 -28.5 62t-87.5 27h-89v-177h89q60 0 88 27.5t28 60.5z" />
    <glyph glyph-name="macron" unicode="&#xaf;" 
d="M405 574h-339v64h339v-64z" />
    <glyph glyph-name="degree" unicode="&#xb0;" horiz-adv-x="353" 
d="M307 564q0 -54 -38.5 -92.5t-92.5 -38.5t-92 38.5t-38 92.5t38 92t92 38t92.5 -38t38.5 -92zM273 564q0 40 -28.5 68t-68.5 28t-68 -28t-28 -68t28 -68.5t68 -28.5t68.5 28.5t28.5 68.5z" />
    <glyph glyph-name="plusminus" unicode="&#xb1;" horiz-adv-x="731" 
d="M678 17q0 -17 -31 -17h-564q-31 0 -31 18q0 17 31 17h265v261h-265q-31 0 -31 18q0 17 31 17h265v265q0 31 18 31q17 0 17 -31v-265h264q31 0 31 -18q0 -17 -31 -17h-264v-261h264q31 0 31 -18z" />
    <glyph glyph-name="two.superior" unicode="&#xb2;" horiz-adv-x="332" 
d="M304 307h-270v39l124 108q26 21 42 36.5t31.5 42t15.5 51.5q0 36 -26 62t-71 26q-39 0 -60 -22t-34 -67l-28 32q33 95 132 95q66 0 105 -36.5t39 -88.5q0 -44 -47 -91q-12 -12 -38 -33t-33 -27l-102 -86v-1h72q4 0 12.5 0.5t12.5 0.5h123v-41z" />
    <glyph glyph-name="three.superior" unicode="&#xb3;" horiz-adv-x="338" 
d="M310 418q0 -48 -41.5 -84t-101.5 -36q-88 0 -139 61q4 21 8 37q22 -31 58.5 -46t71.5 -15q38 0 60.5 23.5t22.5 59.5q0 32 -20.5 58t-66.5 26h-49v36l53 4q31 6 49.5 29t18.5 49q0 24 -18.5 39t-48.5 15q-35 0 -64 -17.5t-41 -44.5l-25 32q17 28 52 47t79 19
q50 0 86.5 -26.5t36.5 -63.5q0 -31 -21 -58t-54 -42q41 -11 67.5 -39t26.5 -63z" />
    <glyph glyph-name="acute" unicode="&#xb4;" 
d="M368 694l-139 -176h-61l124 176h76z" />
    <glyph glyph-name="uni00B5" unicode="&#xb5;" horiz-adv-x="484" 
d="M402 0h-58v54q-66 -62 -162 -62q-25 0 -41 5v-191h-60v624h60v-315q0 -40 15.5 -58t65.5 -18t85 29t35 88v274h60v-430z" />
    <glyph glyph-name="paragraph" unicode="&#xb6;" horiz-adv-x="611" 
d="M582 674q0 -20 -33 -20h-50v-815q0 -33 -20 -33t-20 33v815h-70v-815q0 -33 -20 -33t-20 33v391q-50 2 -100 17t-94 42t-71.5 72.5t-27.5 101.5q0 95 73 163t177 68h243q33 0 33 -20z" />
    <glyph glyph-name="periodcentered" unicode="&#xb7;" horiz-adv-x="731" 
d="M406 307h-80v80h80v-80z" />
    <glyph glyph-name="cedilla" unicode="&#xb8;" horiz-adv-x="418" 
d="M265 -18l-62 -168h-68l69 168h61z" />
    <glyph glyph-name="one.superior" unicode="&#xb9;" horiz-adv-x="350" 
d="M289 307h-225v35h85v308q-32 -11 -89 -14v35q87 2 131 39h13v-368h85v-35z" />
    <glyph glyph-name="ordmasculine" unicode="&#xba;" horiz-adv-x="394" 
d="M371 551q0 -65 -51 -110.5t-123 -45.5q-71 0 -122.5 45t-51.5 111q0 65 51 112t123 47q71 0 122.5 -46.5t51.5 -112.5zM339 343q0 -9 -9.5 -15.5t-22.5 -6.5h-220q-13 0 -22.5 6.5t-9.5 15.5t9.5 15.5t22.5 6.5h220q13 0 22.5 -6.5t9.5 -15.5zM307 556q0 55 -32.5 83.5
t-77.5 28.5q-44 0 -77 -27.5t-33 -84.5q0 -55 31.5 -85.5t78.5 -30.5q46 0 78 30t32 86z" />
    <glyph glyph-name="guillemotright" unicode="&#xbb;" 
d="M366 219l-96 -219h-61l81 219l-81 218h61zM209 219l-96 -219h-61l81 219l-81 218h61z" />
    <glyph glyph-name="onequarter" unicode="&#xbc;" horiz-adv-x="738" 
d="M289 307h-225v35h85v308q-32 -11 -89 -14v35q87 2 131 39h13v-368h85v-35zM678 103h-66v-103h-57v103h-177v36l171 255h63v-255h66v-36zM613 674l-376 -654h-39l376 654h39zM558 139v227q-1 -47 -125 -227h125z" />
    <glyph glyph-name="onehalf" unicode="&#xbd;" horiz-adv-x="738" 
d="M289 307h-225v35h85v308q-32 -11 -89 -14v35q87 2 131 39h13v-368h85v-35zM678 0h-270v38l124 109q27 22 42 36.5t31 41t16 52.5q0 36 -26 62t-71 26q-39 0 -60 -22.5t-34 -67.5l-28 33q33 95 132 95q66 0 105 -36.5t39 -88.5q0 -44 -47 -91q-12 -12 -38 -33t-33 -27
l-102 -86v-1h72q4 0 12.5 0.5t12.5 0.5h123v-41zM577 674l-377 -654h-39l376 654h40z" />
    <glyph glyph-name="threequarters" unicode="&#xbe;" horiz-adv-x="738" 
d="M338 418q0 -48 -41.5 -84t-101.5 -36q-88 0 -139 61q4 21 8 37q22 -31 58.5 -46t71.5 -15q38 0 60.5 23.5t22.5 59.5q0 32 -20.5 58t-66.5 26h-49v36l53 4q31 6 49.5 29t18.5 49q0 24 -18.5 39t-48.5 15q-35 0 -64 -17.5t-41 -44.5q-11 16 -24 32q16 28 51 47t79 19
q51 0 87 -26.5t36 -63.5q0 -31 -21 -58t-54 -42q41 -11 67.5 -39t26.5 -63zM678 103h-66v-103h-57v103h-177v36l171 255h63v-255h66v-36zM613 674l-376 -654h-39l376 654h39zM558 139v227q-1 -47 -125 -227h125z" />
    <glyph glyph-name="questiondown" unicode="&#xbf;" horiz-adv-x="444" 
d="M248 420h-80v80h80v-80zM391 -150q-86 -53 -181 -53q-80 0 -119 43.5t-39 112.5q0 72 47 121q77 83 77 206v51h64v-53q0 -138 -85 -247q-10 -12 -14.5 -19.5t-8.5 -23.5t-4 -38q0 -45 18 -68.5t64 -23.5q86 0 159 54z" />
    <glyph glyph-name="Agrave" unicode="&#xc0;" horiz-adv-x="625" 
d="M598 0h-87l-71 202h-268l-70 -202h-76l243 694h86zM421 258l-70 207q-37 111 -44 152h-1q-7 -43 -115 -359h230zM407 740h-89l-197 122h111z" />
    <glyph glyph-name="Aacute" unicode="&#xc1;" horiz-adv-x="625" 
d="M598 0h-87l-71 202h-268l-70 -202h-76l243 694h86zM421 258l-70 207q-37 111 -44 152h-1q-7 -43 -115 -359h230zM503 862l-197 -122h-89l175 122h111z" />
    <glyph glyph-name="Acircumflex" unicode="&#xc2;" horiz-adv-x="625" 
d="M598 0h-87l-71 202h-268l-70 -202h-76l243 694h86zM421 258l-70 207q-37 111 -44 152h-1q-7 -43 -115 -359h230zM468 730h-59l-97 97l-97 -97h-59l126 134h60z" />
    <glyph glyph-name="Atilde" unicode="&#xc3;" horiz-adv-x="625" 
d="M598 0h-87l-71 202h-268l-70 -202h-76l243 694h86zM421 258l-70 207q-37 111 -44 152h-1q-7 -43 -115 -359h230zM469 847q-1 -55 -29.5 -86t-62.5 -31q-26 0 -73 33q-31 23 -53 23q-34 0 -34 -56h-61q1 55 29.5 86t62.5 31q26 0 73 -33q31 -23 53 -23q34 0 34 56h61z" />
    <glyph glyph-name="Adieresis" unicode="&#xc4;" horiz-adv-x="625" 
d="M598 0h-87l-71 202h-268l-70 -202h-76l243 694h86zM421 258l-70 207q-37 111 -44 152h-1q-7 -43 -115 -359h230zM268 730h-76v75h76v-75zM432 730h-76v75h76v-75z" />
    <glyph glyph-name="Aring" unicode="&#xc5;" horiz-adv-x="625" 
d="M598 0h-87l-71 202h-268l-70 -202h-76l243 694h86zM421 258l-70 207q-37 111 -44 152h-1q-7 -43 -115 -359h230zM359 782q0 39 -47 39t-47 -39t47 -39t47 39zM417 782q0 -35 -30.5 -61.5t-74.5 -26.5t-74.5 26.5t-30.5 61.5t30.5 61.5t74.5 26.5t74.5 -26.5t30.5 -61.5z
" />
    <glyph glyph-name="AE" unicode="&#xc6;" horiz-adv-x="809" 
d="M769 0h-376v222h-206l-85 -222h-76l265 694h465v-65h-143q-6 0 -18 0.5t-18 0.5h-101v-239h254v-61h-254v-263q11 1 107 1l186 1v-69zM393 278v352h-50l-134 -352h184z" />
    <glyph glyph-name="Ccedilla" unicode="&#xc7;" horiz-adv-x="601" 
d="M553 40q-50 -33 -86.5 -44.5t-94.5 -11.5q-135 0 -222.5 107.5t-87.5 255.5t88 255.5t221 107.5q86 0 172 -35l-14 -80q-74 51 -159 51q-97 0 -160.5 -88.5t-63.5 -210.5q0 -120 62 -209.5t165 -89.5q54 0 91.5 12.5t81.5 47.5q0 -2 2 -16t2 -19zM376 -34l-62 -168h-68
l69 168h61z" />
    <glyph glyph-name="Egrave" unicode="&#xc8;" horiz-adv-x="561" 
d="M521 0h-433v692h420v-65h-171q-6 0 -18 0.5t-18 0.5h-129v-238h310v-61h-310v-262l134 1l215 1v-69zM375 740h-89l-197 122h111z" />
    <glyph glyph-name="Eacute" unicode="&#xc9;" horiz-adv-x="561" 
d="M521 0h-433v692h420v-65h-171q-6 0 -18 0.5t-18 0.5h-129v-238h310v-61h-310v-262l134 1l215 1v-69zM471 862l-197 -122h-89l175 122h111z" />
    <glyph glyph-name="Ecircumflex" unicode="&#xca;" horiz-adv-x="561" 
d="M521 0h-433v692h420v-65h-171q-6 0 -18 0.5t-18 0.5h-129v-238h310v-61h-310v-262l134 1l215 1v-69zM436 730h-59l-97 97l-97 -97h-59l126 134h60z" />
    <glyph glyph-name="Edieresis" unicode="&#xcb;" horiz-adv-x="561" 
d="M521 0h-433v692h420v-65h-171q-6 0 -18 0.5t-18 0.5h-129v-238h310v-61h-310v-262l134 1l215 1v-69zM236 730h-76v75h76v-75zM400 730h-76v75h76v-75z" />
    <glyph glyph-name="Igrave" unicode="&#xcc;" horiz-adv-x="259" 
d="M171 0h-84v694h84v-694zM171 740h-89l-197 122h111z" />
    <glyph glyph-name="Iacute" unicode="&#xcd;" horiz-adv-x="259" 
d="M171 0h-84v694h84v-694zM373 862l-197 -122h-89l175 122h111z" />
    <glyph glyph-name="Icircumflex" unicode="&#xce;" horiz-adv-x="259" 
d="M171 0h-84v694h84v-694zM285 730h-59l-97 97l-97 -97h-59l126 134h60z" />
    <glyph glyph-name="Idieresis" unicode="&#xcf;" horiz-adv-x="259" 
d="M171 0h-84v694h84v-694zM85 730h-76v75h76v-75zM249 730h-76v75h76v-75z" />
    <glyph glyph-name="Eth" unicode="&#xd0;" horiz-adv-x="678" 
d="M625 341q0 -141 -84 -241t-206 -100h-246v315h-76v64h76v315h246q122 0 206 -103.5t84 -249.5zM543 341q0 130 -64.5 213.5t-165.5 83.5h-142v-259h92v-64h-92v-259h142q101 0 165.5 80t64.5 205z" />
    <glyph glyph-name="Ntilde" unicode="&#xd1;" horiz-adv-x="663" 
d="M574 0h-123l-18 37l-214 465l-52 116l-1 -1v-617h-78v694h123l18 -37l214 -465l52 -116l1 1v617h78v-694zM488 847q-1 -55 -29.5 -86t-62.5 -31q-26 0 -73 33q-31 23 -53 23q-34 0 -34 -56h-61q1 55 29.5 86t62.5 31q26 0 73 -33q31 -23 53 -23q34 0 34 56h61z" />
    <glyph glyph-name="Ograve" unicode="&#xd2;" horiz-adv-x="693" 
d="M640 346q0 -154 -87.5 -258t-206.5 -104t-206.5 104t-87.5 258q0 153 87 258.5t207 105.5t207 -105t87 -259zM556 359q0 131 -63 209.5t-147 78.5t-147 -78.5t-63 -209.5q0 -137 62 -224.5t148 -87.5q85 0 147.5 87t62.5 225zM441 740h-89l-197 122h111z" />
    <glyph glyph-name="Oacute" unicode="&#xd3;" horiz-adv-x="693" 
d="M640 346q0 -154 -87.5 -258t-206.5 -104t-206.5 104t-87.5 258q0 153 87 258.5t207 105.5t207 -105t87 -259zM556 359q0 131 -63 209.5t-147 78.5t-147 -78.5t-63 -209.5q0 -137 62 -224.5t148 -87.5q85 0 147.5 87t62.5 225zM537 862l-197 -122h-89l175 122h111z" />
    <glyph glyph-name="Ocircumflex" unicode="&#xd4;" horiz-adv-x="693" 
d="M640 346q0 -154 -87.5 -258t-206.5 -104t-206.5 104t-87.5 258q0 153 87 258.5t207 105.5t207 -105t87 -259zM556 359q0 131 -63 209.5t-147 78.5t-147 -78.5t-63 -209.5q0 -137 62 -224.5t148 -87.5q85 0 147.5 87t62.5 225zM502 730h-59l-97 97l-97 -97h-59l126 134h60
z" />
    <glyph glyph-name="Otilde" unicode="&#xd5;" horiz-adv-x="693" 
d="M640 346q0 -154 -87.5 -258t-206.5 -104t-206.5 104t-87.5 258q0 153 87 258.5t207 105.5t207 -105t87 -259zM556 359q0 131 -63 209.5t-147 78.5t-147 -78.5t-63 -209.5q0 -137 62 -224.5t148 -87.5q85 0 147.5 87t62.5 225zM503 847q-1 -55 -29.5 -86t-62.5 -31
q-26 0 -73 33q-31 23 -53 23q-34 0 -34 -56h-61q1 55 29.5 86t62.5 31q26 0 73 -33q31 -23 53 -23q34 0 34 56h61z" />
    <glyph glyph-name="Odieresis" unicode="&#xd6;" horiz-adv-x="693" 
d="M640 346q0 -154 -87.5 -258t-206.5 -104t-206.5 104t-87.5 258q0 153 87 258.5t207 105.5t207 -105t87 -259zM556 359q0 131 -63 209.5t-147 78.5t-147 -78.5t-63 -209.5q0 -137 62 -224.5t148 -87.5q85 0 147.5 87t62.5 225zM302 730h-76v75h76v-75zM466 730h-76v75h76
v-75z" />
    <glyph glyph-name="multiply" unicode="&#xd7;" horiz-adv-x="731" 
d="M587 28q-12 -12 -34 10l-188 187l-187 -187q-22 -22 -35 -9t10 33l188 188l-188 187q-7 7 -8 8.5t-4.5 7.5t-2.5 10t6 9q12 12 34 -10l187 -187l187 186q22 22 35 9t-10 -33l-187 -187l187 -188q23 -20 10 -34z" />
    <glyph glyph-name="Oslash" unicode="&#xd8;" horiz-adv-x="731" 
d="M678 346q0 -153 -93 -257.5t-220 -104.5q-63 0 -121 29l-15 6q-2 -1 -8 -11l-38 -72l-56 30l49 92q-60 51 -92 127t-32 161q0 152 92.5 258t220.5 106q72 0 137 -37l45 85l56 -30l-49 -92q124 -120 124 -290zM472 617q-51 32 -107 32q-93 0 -161 -82t-68 -221
q0 -138 72 -226zM594 346q0 141 -73 227l-263 -496q53 -32 107 -32q92 0 160.5 80t68.5 221z" />
    <glyph glyph-name="Ugrave" unicode="&#xd9;" horiz-adv-x="644" 
d="M555 233q0 -106 -68.5 -177.5t-163.5 -71.5t-165 71.5t-70 177.5v461h84v-463q0 -91 45 -141t107 -50t108.5 49.5t46.5 142.5v462h76v-461zM417 740h-89l-197 122h111z" />
    <glyph glyph-name="Uacute" unicode="&#xda;" horiz-adv-x="644" 
d="M555 233q0 -106 -68.5 -177.5t-163.5 -71.5t-165 71.5t-70 177.5v461h84v-463q0 -91 45 -141t107 -50t108.5 49.5t46.5 142.5v462h76v-461zM513 862l-197 -122h-89l175 122h111z" />
    <glyph glyph-name="Ucircumflex" unicode="&#xdb;" horiz-adv-x="644" 
d="M555 233q0 -106 -68.5 -177.5t-163.5 -71.5t-165 71.5t-70 177.5v461h84v-463q0 -91 45 -141t107 -50t108.5 49.5t46.5 142.5v462h76v-461zM478 730h-59l-97 97l-97 -97h-59l126 134h60z" />
    <glyph glyph-name="Udieresis" unicode="&#xdc;" horiz-adv-x="644" 
d="M555 233q0 -106 -68.5 -177.5t-163.5 -71.5t-165 71.5t-70 177.5v461h84v-463q0 -91 45 -141t107 -50t108.5 49.5t46.5 142.5v462h76v-461zM278 730h-76v75h76v-75zM442 730h-76v75h76v-75z" />
    <glyph glyph-name="Yacute" unicode="&#xdd;" horiz-adv-x="625" 
d="M621 694l-268 -417v-277h-82v278l-268 416h98l168 -263l49 -79q8 14 62 100l155 242h86zM503 862l-197 -122h-89l175 122h111z" />
    <glyph glyph-name="Thorn" unicode="&#xde;" horiz-adv-x="547" 
d="M494 367q0 -77 -55.5 -133t-140.5 -56h-139v-178h-60v683h60v-127h129q99 0 152.5 -59t53.5 -130zM431 366q0 53 -46.5 97.5t-134.5 44.5h-91v-282h112q73 0 116.5 43.5t43.5 96.5z" />
    <glyph glyph-name="germandbls" unicode="&#xdf;" horiz-adv-x="451" 
d="M424 174q0 -77 -48 -129.5t-118 -52.5q-47 0 -82 15l22 58q29 -12 60 -12q39 0 65 32t26 89q0 79 -40 136.5t-108 58.5v61q59 1 90.5 37.5t31.5 82.5q0 43 -25 67t-62 24q-6 0 -12.5 -0.5t-21 -6t-25.5 -14.5t-19.5 -29t-8.5 -48v-543h-74v545q0 73 49 115t112 42
q67 0 114.5 -44.5t47.5 -107.5q0 -40 -21 -81t-68 -70q41 -27 78 -84.5t37 -140.5z" />
    <glyph glyph-name="agrave" unicode="&#xe0;" horiz-adv-x="451" 
d="M386 0h-74v37q-61 -45 -154 -45q-55 0 -81.5 40.5t-26.5 81.5q0 59 69 92.5t191 37.5v38q0 47 -22 74t-60 27q-75 0 -140 -47l-6 66q69 40 147 40q68 0 112.5 -44.5t44.5 -114.5v-283zM310 132v62q-21 -1 -43.5 -3.5t-60 -9.5t-60.5 -24t-23 -41q0 -27 23.5 -45t60.5 -18
q44 0 73 19q30 18 30 60zM292 518h-61l-139 176h76z" />
    <glyph glyph-name="aacute" unicode="&#xe1;" horiz-adv-x="451" 
d="M386 0h-74v37q-61 -45 -154 -45q-55 0 -81.5 40.5t-26.5 81.5q0 59 69 92.5t191 37.5v38q0 47 -22 74t-60 27q-75 0 -140 -47l-6 66q69 40 147 40q68 0 112.5 -44.5t44.5 -114.5v-283zM310 132v62q-21 -1 -43.5 -3.5t-60 -9.5t-60.5 -24t-23 -41q0 -27 23.5 -45t60.5 -18
q44 0 73 19q30 18 30 60zM358 694l-139 -176h-61l124 176h76z" />
    <glyph glyph-name="acircumflex" unicode="&#xe2;" horiz-adv-x="451" 
d="M386 0h-74v37q-61 -45 -154 -45q-55 0 -81.5 40.5t-26.5 81.5q0 59 69 92.5t191 37.5v38q0 47 -22 74t-60 27q-75 0 -140 -47l-6 66q69 40 147 40q68 0 112.5 -44.5t44.5 -114.5v-283zM310 132v62q-21 -1 -43.5 -3.5t-60 -9.5t-60.5 -24t-23 -41q0 -27 23.5 -45t60.5 -18
q44 0 73 19q30 18 30 60zM380 520h-59l-96 123l-96 -123h-59l125 172h60z" />
    <glyph glyph-name="atilde" unicode="&#xe3;" horiz-adv-x="451" 
d="M386 0h-74v37q-61 -45 -154 -45q-55 0 -81.5 40.5t-26.5 81.5q0 59 69 92.5t191 37.5v38q0 47 -22 74t-60 27q-75 0 -140 -47l-6 66q69 40 147 40q68 0 112.5 -44.5t44.5 -114.5v-283zM310 132v62q-21 -1 -43.5 -3.5t-60 -9.5t-60.5 -24t-23 -41q0 -27 23.5 -45t60.5 -18
q44 0 73 19q30 18 30 60zM382 665q-1 -55 -29.5 -86t-62.5 -31q-26 0 -73 33q-31 23 -53 23q-34 0 -34 -56h-61q1 55 29.5 86t62.5 31q26 0 73 -33q31 -23 53 -23q34 0 34 56h61z" />
    <glyph glyph-name="adieresis" unicode="&#xe4;" horiz-adv-x="451" 
d="M386 0h-74v37q-61 -45 -154 -45q-55 0 -81.5 40.5t-26.5 81.5q0 59 69 92.5t191 37.5v38q0 47 -22 74t-60 27q-75 0 -140 -47l-6 66q69 40 147 40q68 0 112.5 -44.5t44.5 -114.5v-283zM310 132v62q-21 -1 -43.5 -3.5t-60 -9.5t-60.5 -24t-23 -41q0 -27 23.5 -45t60.5 -18
q44 0 73 19q30 18 30 60zM193 569h-76v75h76v-75zM333 569h-76v75h76v-75z" />
    <glyph glyph-name="aring" unicode="&#xe5;" horiz-adv-x="451" 
d="M386 0h-74v37q-61 -45 -154 -45q-55 0 -81.5 40.5t-26.5 81.5q0 59 69 92.5t191 37.5v38q0 47 -22 74t-60 27q-75 0 -140 -47l-6 66q69 40 147 40q68 0 112.5 -44.5t44.5 -114.5v-283zM310 132v62q-21 -1 -43.5 -3.5t-60 -9.5t-60.5 -24t-23 -41q0 -27 23.5 -45t60.5 -18
q44 0 73 19q30 18 30 60zM272 595q0 39 -47 39t-47 -39t47 -39t47 39zM330 595q0 -35 -30.5 -61.5t-74.5 -26.5t-74.5 26.5t-30.5 61.5t30.5 61.5t74.5 26.5t74.5 -26.5t30.5 -61.5z" />
    <glyph glyph-name="ae" unicode="&#xe6;" horiz-adv-x="679" 
d="M652 219h-275q1 -73 39.5 -119.5t92.5 -46.5q73 0 132 52l3 -37q3 -23 3 -27q-62 -49 -139 -49q-42 0 -80 18.5t-51 31t-21 21.5q-27 -36 -89 -55q-51 -16 -116 -16q-32 0 -55 14t-34 35.5t-15.5 40t-4.5 34.5q0 45 43 76t99 42.5t117 11.5v36q0 47 -22.5 74t-59.5 27
q-74 0 -141 -47l-6 66q67 40 148 40q86 0 133 -71q58 71 140 71q38 0 67 -13.5t45 -37.5t27 -47t14.5 -53t4.5 -43.5t1 -28.5zM585 274q-8 55 -34 81t-58 26q-34 0 -65 -29t-44 -78h201zM305 125q0 32 -2 50l-1 17q-187 -9 -187 -75q0 -26 23 -45t60 -19q10 0 21.5 1.5t34 7
t37 22t14.5 41.5z" />
    <glyph glyph-name="ccedilla" unicode="&#xe7;" horiz-adv-x="418" 
d="M391 40q-72 -48 -154 -48q-87 0 -145.5 66t-58.5 157t57.5 159t150.5 68q53 0 86 -12q13 -4 35.5 -15t22.5 -16l-11 -62q-35 24 -63 33t-69 9q-68 0 -100.5 -49.5t-32.5 -113.5q0 -71 35.5 -116t93.5 -45q81 0 147 51zM275 -34l-62 -168h-68l69 168h61z" />
    <glyph glyph-name="egrave" unicode="&#xe8;" horiz-adv-x="418" 
d="M391 219h-290q2 -79 42.5 -122.5t93.5 -43.5q79 0 143 52l3 -37q3 -23 3 -27q-68 -49 -150 -49q-86 0 -146 66t-60 159q0 94 56.5 159.5t135.5 65.5q90 0 135 -73q34 -56 34 -150zM325 274q-5 30 -16.5 51.5t-23 32t-26.5 16t-22 6.5t-15 1q-40 0 -71.5 -31.5
t-41.5 -75.5h216zM276 518h-61l-139 176h76z" />
    <glyph glyph-name="eacute" unicode="&#xe9;" horiz-adv-x="418" 
d="M391 219h-290q2 -79 42.5 -122.5t93.5 -43.5q79 0 143 52l3 -37q3 -23 3 -27q-68 -49 -150 -49q-86 0 -146 66t-60 159q0 94 56.5 159.5t135.5 65.5q90 0 135 -73q34 -56 34 -150zM325 274q-5 30 -16.5 51.5t-23 32t-26.5 16t-22 6.5t-15 1q-40 0 -71.5 -31.5
t-41.5 -75.5h216zM342 694l-139 -176h-61l124 176h76z" />
    <glyph glyph-name="ecircumflex" unicode="&#xea;" horiz-adv-x="418" 
d="M391 219h-290q2 -79 42.5 -122.5t93.5 -43.5q79 0 143 52l3 -37q3 -23 3 -27q-68 -49 -150 -49q-86 0 -146 66t-60 159q0 94 56.5 159.5t135.5 65.5q90 0 135 -73q34 -56 34 -150zM325 274q-5 30 -16.5 51.5t-23 32t-26.5 16t-22 6.5t-15 1q-40 0 -71.5 -31.5
t-41.5 -75.5h216zM364 520h-59l-96 123l-96 -123h-59l125 172h60z" />
    <glyph glyph-name="edieresis" unicode="&#xeb;" horiz-adv-x="418" 
d="M391 219h-290q2 -79 42.5 -122.5t93.5 -43.5q79 0 143 52l3 -37q3 -23 3 -27q-68 -49 -150 -49q-86 0 -146 66t-60 159q0 94 56.5 159.5t135.5 65.5q90 0 135 -73q34 -56 34 -150zM325 274q-5 30 -16.5 51.5t-23 32t-26.5 16t-22 6.5t-15 1q-40 0 -71.5 -31.5
t-41.5 -75.5h216zM177 569h-76v75h76v-75zM317 569h-76v75h76v-75z" />
    <glyph glyph-name="igrave" unicode="&#xec;" horiz-adv-x="223" 
d="M148 0h-74v430h74v-430zM148 518h-61l-139 176h76z" />
    <glyph glyph-name="iacute" unicode="&#xed;" horiz-adv-x="223" 
d="M148 0h-74v430h74v-430zM274 694l-139 -176h-61l124 176h76z" />
    <glyph glyph-name="icircumflex" unicode="&#xee;" horiz-adv-x="223" 
d="M148 0h-74v430h74v-430zM266 520h-59l-96 123l-96 -123h-59l125 172h60z" />
    <glyph glyph-name="idieresis" unicode="&#xef;" horiz-adv-x="223" 
d="M148 0h-74v430h74v-430zM79 569h-76v75h76v-75zM219 569h-76v75h76v-75z" />
    <glyph glyph-name="eth" unicode="&#xf0;" 
d="M430 213q-2 -99 -61 -160t-135 -61q-78 0 -136.5 63.5t-58.5 158.5q0 94 58 161t138 67q57 0 109 -36q-40 102 -124 177l-84 -66l-30 39l75 59q-47 35 -101 59l27 41q62 -24 117 -67l84 66l30 -39l-76 -59q82 -76 126 -181.5t42 -221.5zM377 218q0 73 -40 123.5
t-103 50.5q-58 0 -100 -45t-42 -124q0 -81 41 -130t102 -49q62 0 102 50.5t40 123.5z" />
    <glyph glyph-name="ntilde" unicode="&#xf1;" horiz-adv-x="484" 
d="M409 0h-76v284q0 17 -2 29.5t-10 29t-28 25.5t-51 9q-47 0 -69.5 -40t-22.5 -95v-242h-76v433h73v-62q55 67 134 67q128 0 128 -146v-292zM399 665q-1 -55 -29.5 -86t-62.5 -31q-26 0 -73 33q-31 23 -53 23q-34 0 -34 -56h-61q1 55 29.5 86t62.5 31q26 0 73 -33
q31 -23 53 -23q34 0 34 56h61z" />
    <glyph glyph-name="ograve" unicode="&#xf2;" 
d="M442 214q0 -93 -61 -157.5t-147 -64.5q-85 0 -146 64t-61 158t61 161t147 67q85 0 146 -66.5t61 -161.5zM366 222q0 78 -39 118t-93 40q-52 0 -91.5 -39t-39.5 -119q0 -78 38 -123t93 -45q54 0 93 44t39 124zM302 518h-61l-139 176h76z" />
    <glyph glyph-name="oacute" unicode="&#xf3;" 
d="M442 214q0 -93 -61 -157.5t-147 -64.5q-85 0 -146 64t-61 158t61 161t147 67q85 0 146 -66.5t61 -161.5zM366 222q0 78 -39 118t-93 40q-52 0 -91.5 -39t-39.5 -119q0 -78 38 -123t93 -45q54 0 93 44t39 124zM368 694l-139 -176h-61l124 176h76z" />
    <glyph glyph-name="ocircumflex" unicode="&#xf4;" 
d="M442 214q0 -93 -61 -157.5t-147 -64.5q-85 0 -146 64t-61 158t61 161t147 67q85 0 146 -66.5t61 -161.5zM366 222q0 78 -39 118t-93 40q-52 0 -91.5 -39t-39.5 -119q0 -78 38 -123t93 -45q54 0 93 44t39 124zM390 520h-59l-96 123l-96 -123h-59l125 172h60z" />
    <glyph glyph-name="otilde" unicode="&#xf5;" 
d="M442 214q0 -93 -61 -157.5t-147 -64.5q-85 0 -146 64t-61 158t61 161t147 67q85 0 146 -66.5t61 -161.5zM366 222q0 78 -39 118t-93 40q-52 0 -91.5 -39t-39.5 -119q0 -78 38 -123t93 -45q54 0 93 44t39 124zM392 665q-1 -55 -29.5 -86t-62.5 -31q-26 0 -73 33
q-31 23 -53 23q-34 0 -34 -56h-61q1 55 29.5 86t62.5 31q26 0 73 -33q31 -23 53 -23q34 0 34 56h61z" />
    <glyph glyph-name="odieresis" unicode="&#xf6;" 
d="M442 214q0 -93 -61 -157.5t-147 -64.5q-85 0 -146 64t-61 158t61 161t147 67q85 0 146 -66.5t61 -161.5zM366 222q0 78 -39 118t-93 40q-52 0 -91.5 -39t-39.5 -119q0 -78 38 -123t93 -45q54 0 93 44t39 124zM203 569h-76v75h76v-75zM343 569h-76v75h76v-75z" />
    <glyph glyph-name="divide" unicode="&#xf7;" horiz-adv-x="731" 
d="M678 250q0 -17 -30 -17h-566q-30 0 -30 17q0 18 34 18h558q34 0 34 -18zM405 332h-80v80h80v-80zM405 90h-80v80h80v-80z" />
    <glyph glyph-name="oslash" unicode="&#xf8;" 
d="M442 214q0 -93 -61 -157.5t-147 -64.5q-40 0 -77 16l-65 -120l-54 30l67 123q-35 28 -56.5 74t-21.5 99q0 94 61 161t147 67q42 0 79 -17l63 118l54 -30l-66 -121q77 -72 77 -178zM284 371q-21 10 -49 10q-55 0 -93.5 -43t-38.5 -124q0 -70 34 -113zM366 214
q0 72 -34 117l-145 -269q23 -9 47 -9q54 0 93 41t39 120z" />
    <glyph glyph-name="ugrave" unicode="&#xf9;" horiz-adv-x="484" 
d="M409 0h-74v50q-63 -58 -165 -58q-51 0 -73.5 28t-22.5 88v322h76v-317q0 -35 13 -49t59 -14q47 0 79 26t32 78v276h76v-430zM309 518h-61l-139 176h76z" />
    <glyph glyph-name="uacute" unicode="&#xfa;" horiz-adv-x="484" 
d="M409 0h-74v50q-63 -58 -165 -58q-51 0 -73.5 28t-22.5 88v322h76v-317q0 -35 13 -49t59 -14q47 0 79 26t32 78v276h76v-430zM375 694l-139 -176h-61l124 176h76z" />
    <glyph glyph-name="ucircumflex" unicode="&#xfb;" horiz-adv-x="484" 
d="M409 0h-74v50q-63 -58 -165 -58q-51 0 -73.5 28t-22.5 88v322h76v-317q0 -35 13 -49t59 -14q47 0 79 26t32 78v276h76v-430zM397 520h-59l-96 123l-96 -123h-59l125 172h60z" />
    <glyph glyph-name="udieresis" unicode="&#xfc;" horiz-adv-x="484" 
d="M409 0h-74v50q-63 -58 -165 -58q-51 0 -73.5 28t-22.5 88v322h76v-317q0 -35 13 -49t59 -14q47 0 79 26t32 78v276h76v-430zM210 569h-76v75h76v-75zM350 569h-76v75h76v-75z" />
    <glyph glyph-name="yacute" unicode="&#xfd;" horiz-adv-x="432" 
d="M418 430l-190 -510q-16 -43 -34 -70.5t-35.5 -37.5t-27.5 -12.5t-24 -2.5q-28 0 -68 8l-6 66q39 -12 72 -12q11 0 16.5 2t16 15t20.5 39q3 6 32 85l-177 430h81l47 -117q78 -192 82 -255h1q3 67 116 372h78zM349 694l-139 -176h-61l124 176h76z" />
    <glyph glyph-name="thorn" unicode="&#xfe;" horiz-adv-x="484" 
d="M450 216q0 -95 -51 -159.5t-122 -64.5t-126 53v-240h-76v889h74v-310q67 54 155 54q63 0 104.5 -65.5t41.5 -156.5zM374 216q0 65 -37 112t-89 47q-25 0 -47.5 -10.5t-33 -20.5t-16.5 -19v-197q0 -29 27 -53q26 -22 61 -22q53 0 94 46t41 117z" />
    <glyph glyph-name="ydieresis" unicode="&#xff;" horiz-adv-x="432" 
d="M418 430l-190 -510q-16 -43 -34 -70.5t-35.5 -37.5t-27.5 -12.5t-24 -2.5q-28 0 -68 8l-6 66q39 -12 72 -12q11 0 16.5 2t16 15t20.5 39q3 6 32 85l-177 430h81l47 -117q78 -192 82 -255h1q3 67 116 372h78zM184 569h-76v75h76v-75zM324 569h-76v75h76v-75z" />
    <glyph glyph-name="Amacron" unicode="&#x100;" horiz-adv-x="625" 
d="M598 0h-87l-71 202h-268l-70 -202h-76l243 694h86zM421 258l-70 207q-37 111 -44 152h-1q-7 -43 -115 -359h230zM482 750h-339v64h339v-64z" />
    <glyph glyph-name="amacron" unicode="&#x101;" horiz-adv-x="451" 
d="M386 0h-74v37q-61 -45 -154 -45q-55 0 -81.5 40.5t-26.5 81.5q0 59 69 92.5t191 37.5v38q0 47 -22 74t-60 27q-75 0 -140 -47l-6 66q69 40 147 40q68 0 112.5 -44.5t44.5 -114.5v-283zM310 132v62q-21 -1 -43.5 -3.5t-60 -9.5t-60.5 -24t-23 -41q0 -27 23.5 -45t60.5 -18
q44 0 73 19q30 18 30 60zM395 574h-339v64h339v-64z" />
    <glyph glyph-name="Abreve" unicode="&#x102;" horiz-adv-x="625" 
d="M598 0h-87l-71 202h-268l-70 -202h-76l243 694h86zM421 258l-70 207q-37 111 -44 152h-1q-7 -43 -115 -359h230zM473 933q-2 -86 -48.5 -139.5t-112.5 -53.5q-64 0 -111 53t-49 140h61q1 -57 30 -92t70 -35q39 0 68.5 34.5t30.5 92.5h61z" />
    <glyph glyph-name="abreve" unicode="&#x103;" horiz-adv-x="451" 
d="M386 0h-74v37q-61 -45 -154 -45q-55 0 -81.5 40.5t-26.5 81.5q0 59 69 92.5t191 37.5v38q0 47 -22 74t-60 27q-75 0 -140 -47l-6 66q69 40 147 40q68 0 112.5 -44.5t44.5 -114.5v-283zM310 132v62q-21 -1 -43.5 -3.5t-60 -9.5t-60.5 -24t-23 -41q0 -27 23.5 -45t60.5 -18
q44 0 73 19q30 18 30 60zM386 703q-2 -86 -48.5 -139.5t-112.5 -53.5q-64 0 -111 53t-49 140h61q1 -57 30 -92t70 -35q39 0 68.5 34.5t30.5 92.5h61z" />
    <glyph glyph-name="Aogonek" unicode="&#x104;" horiz-adv-x="625" 
d="M621 -187q-53 -25 -98 -25q-47 0 -72.5 25t-26.5 60q-2 37 22.5 71t64.5 56l-71 202h-268l-70 -202h-76l243 694h86l243 -694h-23q-89 -50 -88 -104q1 -34 53 -38q30 -1 67 14zM421 258l-70 207q-37 111 -44 152h-1q-7 -43 -115 -359h230z" />
    <glyph glyph-name="aogonek" unicode="&#x105;" horiz-adv-x="451" 
d="M422 -187q-53 -25 -98 -25q-47 0 -72.5 25t-26.5 60q-2 37 22.5 71t64.5 56v37q-61 -45 -154 -45q-55 0 -81.5 40.5t-26.5 81.5q0 59 69 92.5t191 37.5v38q0 47 -22 74t-60 27q-75 0 -140 -47l-6 66q69 40 147 40q68 0 112.5 -44.5t44.5 -114.5v-283h-11
q-88 -50 -87 -104q1 -34 53 -38q29 -1 67 14zM310 132v62q-21 -1 -43.5 -3.5t-60 -9.5t-60.5 -24t-23 -41q0 -27 23.5 -45t60.5 -18q44 0 73 19q30 18 30 60z" />
    <glyph glyph-name="Cacute" unicode="&#x106;" horiz-adv-x="601" 
d="M547 47q-53 -34 -88 -45q-36 -10 -98 -10q-124 0 -212 103t-88 248q0 146 88 249t212 103q50 0 89 -8q42 -8 87 -26l-14 -80q-50 30 -78 38q-36 12 -84 12q-89 0 -152 -84q-65 -84 -65 -204q0 -118 65 -203q62 -84 152 -84q61 0 95 11q30 9 85 48zM521 862l-197 -122h-89
l175 122h111z" />
    <glyph glyph-name="cacute" unicode="&#x107;" horiz-adv-x="418" 
d="M391 40q-72 -48 -154 -48q-87 0 -145.5 66t-58.5 157t57.5 159t150.5 68q53 0 86 -12q13 -4 35.5 -15t22.5 -16l-11 -62q-35 24 -63 33t-69 9q-68 0 -100.5 -49.5t-32.5 -113.5q0 -71 35.5 -116t93.5 -45q81 0 147 51zM363 694l-139 -176h-61l124 176h76z" />
    <glyph glyph-name="Ccircumflex" unicode="&#x108;" horiz-adv-x="601" 
d="M547 47q-53 -34 -88 -45q-36 -10 -98 -10q-124 0 -212 103t-88 248q0 146 88 249t212 103q50 0 89 -8q42 -8 87 -26l-14 -80q-50 30 -78 38q-36 12 -84 12q-89 0 -152 -84q-65 -84 -65 -204q0 -118 65 -203q62 -84 152 -84q61 0 95 11q30 9 85 48zM486 730h-59l-97 97
l-97 -97h-59l126 134h60z" />
    <glyph glyph-name="ccircumflex" unicode="&#x109;" horiz-adv-x="418" 
d="M391 40q-72 -48 -154 -48q-87 0 -145.5 66t-58.5 157t57.5 159t150.5 68q53 0 86 -12q13 -4 35.5 -15t22.5 -16l-11 -62q-35 24 -63 33t-69 9q-68 0 -100.5 -49.5t-32.5 -113.5q0 -71 35.5 -116t93.5 -45q81 0 147 51zM385 520h-59l-96 123l-96 -123h-59l125 172h60z" />
    <glyph glyph-name="Cdotaccent" unicode="&#x10a;" horiz-adv-x="601" 
d="M547 47q-53 -34 -88 -45q-36 -10 -98 -10q-124 0 -212 103t-88 248q0 146 88 249t212 103q50 0 89 -8q42 -8 87 -26l-14 -80q-50 30 -78 38q-36 12 -84 12q-89 0 -152 -84q-65 -84 -65 -204q0 -118 65 -203q62 -84 152 -84q61 0 95 11q30 9 85 48zM372 730h-84v84h84v-84
z" />
    <glyph glyph-name="cdotaccent" unicode="&#x10b;" horiz-adv-x="418" 
d="M391 40q-72 -48 -154 -48q-87 0 -145.5 66t-58.5 157t57.5 159t150.5 68q53 0 86 -12q13 -4 35.5 -15t22.5 -16l-11 -62q-35 24 -63 33t-69 9q-68 0 -100.5 -49.5t-32.5 -113.5q0 -71 35.5 -116t93.5 -45q81 0 147 51zM272 564h-84v84h84v-84z" />
    <glyph glyph-name="Ccaron" unicode="&#x10c;" horiz-adv-x="601" 
d="M547 47q-53 -34 -88 -45q-36 -10 -98 -10q-124 0 -212 103t-88 248q0 146 88 249t212 103q50 0 89 -8q42 -8 87 -26l-14 -80q-50 30 -78 38q-36 12 -84 12q-89 0 -152 -84q-65 -84 -65 -204q0 -118 65 -203q62 -84 152 -84q61 0 95 11q30 9 85 48zM486 864l-126 -134h-60
l-126 134h59l97 -97l97 97h59z" />
    <glyph glyph-name="ccaron" unicode="&#x10d;" horiz-adv-x="418" 
d="M391 40q-72 -48 -154 -48q-87 0 -145.5 66t-58.5 157t57.5 159t150.5 68q53 0 86 -12q13 -4 35.5 -15t22.5 -16l-11 -62q-35 24 -63 33t-69 9q-68 0 -100.5 -49.5t-32.5 -113.5q0 -71 35.5 -116t93.5 -45q81 0 147 51zM385 692l-125 -172h-60l-125 172h59l96 -123l96 123
h59z" />
    <glyph glyph-name="Dcaron" unicode="&#x10e;" horiz-adv-x="678" 
d="M625 341q0 -141 -84 -241t-206 -100h-246v694h246q122 0 206 -103.5t84 -249.5zM543 341q0 130 -64.5 213.5t-165.5 83.5h-142v-582h142q101 0 165.5 80t64.5 205zM398 864l-126 -134h-60l-126 134h59l97 -97l97 97h59z" />
    <glyph glyph-name="dcaron" unicode="&#x10f;" horiz-adv-x="484" 
d="M408 0h-76v50q-66 -58 -139 -58q-67 0 -113.5 65t-46.5 158t47.5 158t115.5 65q78 0 138 -50v306h74v-694zM332 134v195q-34 48 -88 48q-51 0 -93 -39t-42 -124q0 -83 38.5 -122t86.5 -39q38 0 67 25q31 27 31 56zM516 623l-37 -113h-36l23 112h-22v72h72v-71z" />
    <glyph glyph-name="Dcroat" unicode="&#x110;" horiz-adv-x="678" 
d="M625 341q0 -141 -84 -241t-206 -100h-246v315h-76v64h76v315h246q122 0 206 -103.5t84 -249.5zM543 341q0 130 -64.5 213.5t-165.5 83.5h-142v-259h92v-64h-92v-259h142q101 0 165.5 80t64.5 205z" />
    <glyph glyph-name="dcroat" unicode="&#x111;" horiz-adv-x="484" 
d="M484 530h-76v-530h-76v50q-66 -58 -139 -58q-67 0 -113.5 65t-46.5 158t47.5 158t115.5 65q78 0 138 -50v142h-140v64h140v100h74v-100h76v-64zM332 134v195q-34 48 -88 48q-51 0 -93 -39t-42 -124q0 -83 38.5 -122t86.5 -39q38 0 67 25q31 27 31 56z" />
    <glyph glyph-name="Emacron" unicode="&#x112;" horiz-adv-x="561" 
d="M521 0h-433v692h420v-65h-171q-6 0 -18 0.5t-18 0.5h-129v-238h310v-61h-310v-262l134 1l215 1v-69zM450 750h-339v64h339v-64z" />
    <glyph glyph-name="emacron" unicode="&#x113;" horiz-adv-x="418" 
d="M391 219h-290q2 -79 42.5 -122.5t93.5 -43.5q79 0 143 52l3 -37q3 -23 3 -27q-68 -49 -150 -49q-86 0 -146 66t-60 159q0 94 56.5 159.5t135.5 65.5q90 0 135 -73q34 -56 34 -150zM325 274q-5 30 -16.5 51.5t-23 32t-26.5 16t-22 6.5t-15 1q-40 0 -71.5 -31.5
t-41.5 -75.5h216zM379 574h-339v64h339v-64z" />
    <glyph glyph-name="Ebreve" unicode="&#x114;" horiz-adv-x="561" 
d="M521 0h-433v692h420v-65h-171q-6 0 -18 0.5t-18 0.5h-129v-238h310v-61h-310v-262l134 1l215 1v-69zM441 933q-2 -86 -48.5 -139.5t-112.5 -53.5q-64 0 -111 53t-49 140h61q1 -57 30 -92t70 -35q39 0 68.5 34.5t30.5 92.5h61z" />
    <glyph glyph-name="ebreve" unicode="&#x115;" horiz-adv-x="418" 
d="M391 219h-290q2 -79 42.5 -122.5t93.5 -43.5q79 0 143 52l3 -37q3 -23 3 -27q-68 -49 -150 -49q-86 0 -146 66t-60 159q0 94 56.5 159.5t135.5 65.5q90 0 135 -73q34 -56 34 -150zM325 274q-5 30 -16.5 51.5t-23 32t-26.5 16t-22 6.5t-15 1q-40 0 -71.5 -31.5
t-41.5 -75.5h216zM370 703q-2 -86 -48.5 -139.5t-112.5 -53.5q-64 0 -111 53t-49 140h61q1 -57 30 -92t70 -35q39 0 68.5 34.5t30.5 92.5h61z" />
    <glyph glyph-name="Edotaccent" unicode="&#x116;" horiz-adv-x="561" 
d="M521 0h-433v692h420v-65h-171q-6 0 -18 0.5t-18 0.5h-129v-238h310v-61h-310v-262l134 1l215 1v-69zM323 730h-84v84h84v-84z" />
    <glyph glyph-name="edotaccent" unicode="&#x117;" horiz-adv-x="418" 
d="M391 219h-290q2 -79 42.5 -122.5t93.5 -43.5q79 0 143 52l3 -37q3 -23 3 -27q-68 -49 -150 -49q-86 0 -146 66t-60 159q0 94 56.5 159.5t135.5 65.5q90 0 135 -73q34 -56 34 -150zM325 274q-5 30 -16.5 51.5t-23 32t-26.5 16t-22 6.5t-15 1q-40 0 -71.5 -31.5
t-41.5 -75.5h216zM251 564h-84v84h84v-84z" />
    <glyph glyph-name="Eogonek" unicode="&#x118;" horiz-adv-x="561" 
d="M526 -187q-53 -25 -98 -25q-47 0 -72.5 25t-26.5 60q-2 37 22.5 71t64.5 56h-328v692h420v-65h-171q-6 0 -18 0.5t-18 0.5h-129v-238h310v-61h-310v-262l134 1l215 1v-69h-42q-88 -50 -87 -104q1 -34 53 -38q29 -1 67 14z" />
    <glyph glyph-name="eogonek" unicode="&#x119;" horiz-adv-x="418" 
d="M391 219h-290q2 -79 42.5 -122.5t93.5 -43.5q79 0 143 52l3 -37q3 -23 3 -27q-32 -23 -76 -37q-89 -50 -88 -108q1 -34 53 -38q29 -1 67 14l14 -59q-53 -25 -98 -25q-47 0 -72.5 25t-26.5 60q-4 65 77 119q-86 0 -146 66t-60 159q0 94 56.5 159.5t135.5 65.5
q90 0 135 -73q34 -56 34 -150zM325 274q-5 30 -16.5 51.5t-23 32t-26.5 16t-22 6.5t-15 1q-40 0 -71.5 -31.5t-41.5 -75.5h216z" />
    <glyph glyph-name="Ecaron" unicode="&#x11a;" horiz-adv-x="561" 
d="M521 0h-433v692h420v-65h-171q-6 0 -18 0.5t-18 0.5h-129v-238h310v-61h-310v-262l134 1l215 1v-69zM436 864l-126 -134h-60l-126 134h59l97 -97l97 97h59z" />
    <glyph glyph-name="ecaron" unicode="&#x11b;" horiz-adv-x="418" 
d="M391 219h-290q2 -79 42.5 -122.5t93.5 -43.5q79 0 143 52l3 -37q3 -23 3 -27q-68 -49 -150 -49q-86 0 -146 66t-60 159q0 94 56.5 159.5t135.5 65.5q90 0 135 -73q34 -56 34 -150zM325 274q-5 30 -16.5 51.5t-23 32t-26.5 16t-22 6.5t-15 1q-40 0 -71.5 -31.5
t-41.5 -75.5h216zM364 692l-125 -172h-60l-125 172h59l96 -123l96 123h59z" />
    <glyph glyph-name="Gcircumflex" unicode="&#x11c;" horiz-adv-x="627" 
d="M558 41q-92 -49 -197 -49q-124 0 -212 103t-88 248q0 146 88 249t212 103q53 0 98 -11q44 -11 91 -37l-14 -80q-44 35 -82 49q-41 15 -93 15q-89 0 -152 -84q-64 -82 -64 -204q0 -119 64 -203q62 -84 152 -84q64 0 121 19v154h-121v62h197v-250zM469 730h-59l-97 97
l-97 -97h-59l126 134h60z" />
    <glyph glyph-name="gcircumflex" unicode="&#x11d;" 
d="M456 376q-37 4 -63 4q-7 0 -21 -1t-26 -1.5t-13 -0.5h-3q31 -41 31 -95q0 -64 -45 -110t-107 -46q-49 0 -87 28q-10 -14 -10 -34q0 -51 55 -51h81q195 0 195 -139q0 -56 -60.5 -95t-148.5 -39q-87 0 -147.5 39t-60.5 94q0 64 59 100q-25 32 -25 74q0 43 28 82
q-3 3 -9.5 13.5t-14.5 35t-8 48.5q0 64 44.5 110t108.5 46q51 0 90 -31q62 30 146 31zM290 282q0 54 -25 77.5t-57 23.5q-12 0 -24 -4t-26 -13.5t-22.5 -31t-8.5 -52.5q0 -54 25 -77.5t57 -23.5q12 0 24 4t26 13.5t22.5 31t8.5 52.5zM372 -72q0 68 -125 68h-81
q-19 0 -33.5 -7t-21 -15t-10 -19.5t-4 -16.5t-0.5 -9q0 -33 40 -55.5t98 -22.5q57 0 97 22.5t40 54.5zM357 520h-59l-96 123l-96 -123h-59l125 172h60z" />
    <glyph glyph-name="Gbreve" unicode="&#x11e;" horiz-adv-x="627" 
d="M558 41q-92 -49 -197 -49q-124 0 -212 103t-88 248q0 146 88 249t212 103q53 0 98 -11q44 -11 91 -37l-14 -80q-44 35 -82 49q-41 15 -93 15q-89 0 -152 -84q-64 -82 -64 -204q0 -119 64 -203q62 -84 152 -84q64 0 121 19v154h-121v62h197v-250zM474 933
q-2 -86 -48.5 -139.5t-112.5 -53.5q-64 0 -111 53t-49 140h61q1 -57 30 -92t70 -35q39 0 68.5 34.5t30.5 92.5h61z" />
    <glyph glyph-name="gbreve" unicode="&#x11f;" 
d="M456 376q-37 4 -63 4q-7 0 -21 -1t-26 -1.5t-13 -0.5h-3q31 -41 31 -95q0 -64 -45 -110t-107 -46q-49 0 -87 28q-10 -14 -10 -34q0 -51 55 -51h81q195 0 195 -139q0 -56 -60.5 -95t-148.5 -39q-87 0 -147.5 39t-60.5 94q0 64 59 100q-25 32 -25 74q0 43 28 82
q-3 3 -9.5 13.5t-14.5 35t-8 48.5q0 64 44.5 110t108.5 46q51 0 90 -31q62 30 146 31zM290 282q0 54 -25 77.5t-57 23.5q-12 0 -24 -4t-26 -13.5t-22.5 -31t-8.5 -52.5q0 -54 25 -77.5t57 -23.5q12 0 24 4t26 13.5t22.5 31t8.5 52.5zM372 -72q0 68 -125 68h-81
q-19 0 -33.5 -7t-21 -15t-10 -19.5t-4 -16.5t-0.5 -9q0 -33 40 -55.5t98 -22.5q57 0 97 22.5t40 54.5zM363 703q-2 -86 -48.5 -139.5t-112.5 -53.5q-64 0 -111 53t-49 140h61q1 -57 30 -92t70 -35q39 0 68.5 34.5t30.5 92.5h61z" />
    <glyph glyph-name="Gdotaccent" unicode="&#x120;" horiz-adv-x="627" 
d="M558 41q-92 -49 -197 -49q-124 0 -212 103t-88 248q0 146 88 249t212 103q53 0 98 -11q44 -11 91 -37l-14 -80q-44 35 -82 49q-41 15 -93 15q-89 0 -152 -84q-64 -82 -64 -204q0 -119 64 -203q62 -84 152 -84q64 0 121 19v154h-121v62h197v-250zM356 730h-84v84h84v-84z
" />
    <glyph glyph-name="gdotaccent" unicode="&#x121;" 
d="M456 376q-37 4 -63 4q-7 0 -21 -1t-26 -1.5t-13 -0.5h-3q31 -41 31 -95q0 -64 -45 -110t-107 -46q-49 0 -87 28q-10 -14 -10 -34q0 -51 55 -51h81q195 0 195 -139q0 -56 -60.5 -95t-148.5 -39q-87 0 -147.5 39t-60.5 94q0 64 59 100q-25 32 -25 74q0 43 28 82
q-3 3 -9.5 13.5t-14.5 35t-8 48.5q0 64 44.5 110t108.5 46q51 0 90 -31q62 30 146 31zM290 282q0 54 -25 77.5t-57 23.5q-12 0 -24 -4t-26 -13.5t-22.5 -31t-8.5 -52.5q0 -54 25 -77.5t57 -23.5q12 0 24 4t26 13.5t22.5 31t8.5 52.5zM372 -72q0 68 -125 68h-81
q-19 0 -33.5 -7t-21 -15t-10 -19.5t-4 -16.5t-0.5 -9q0 -33 40 -55.5t98 -22.5q57 0 97 22.5t40 54.5zM244 564h-84v84h84v-84z" />
    <glyph glyph-name="Gcommaaccent" unicode="&#x122;" horiz-adv-x="627" 
d="M558 41q-92 -49 -197 -49q-124 0 -212 103t-88 248q0 146 88 249t212 103q53 0 98 -11q44 -11 91 -37l-14 -80q-44 35 -82 49q-41 15 -93 15q-89 0 -152 -84q-64 -82 -64 -204q0 -119 64 -203q62 -84 152 -84q64 0 121 19v154h-121v62h197v-250zM350 -129l-37 -113h-36
l23 112h-22v72h72v-71z" />
    <glyph glyph-name="gcommaaccent" unicode="&#x123;" 
d="M239 714l-23 -112h22v-72h-72v71l37 113h36zM456 376q-37 4 -63 4q-7 0 -21 -1t-26 -1.5t-13 -0.5h-3q31 -41 31 -95q0 -64 -45 -110t-107 -46q-49 0 -87 28q-10 -14 -10 -34q0 -51 55 -51h81q195 0 195 -139q0 -56 -60.5 -95t-148.5 -39q-87 0 -147.5 39t-60.5 94
q0 64 59 100q-25 32 -25 74q0 43 28 82q-3 3 -9.5 13.5t-14.5 35t-8 48.5q0 64 44.5 110t108.5 46q51 0 90 -31q62 30 146 31zM290 282q0 54 -25 77.5t-57 23.5q-12 0 -24 -4t-26 -13.5t-22.5 -31t-8.5 -52.5q0 -54 25 -77.5t57 -23.5q12 0 24 4t26 13.5t22.5 31t8.5 52.5z
M372 -72q0 68 -125 68h-81q-19 0 -33.5 -7t-21 -15t-10 -19.5t-4 -16.5t-0.5 -9q0 -33 40 -55.5t98 -22.5q57 0 97 22.5t40 54.5z" />
    <glyph glyph-name="Hcircumflex" unicode="&#x124;" horiz-adv-x="663" 
d="M574 0h-84v330h-318v-330h-84v694h84v-303h318v303h84v-694zM487 730h-59l-97 97l-97 -97h-59l126 134h60z" />
    <glyph glyph-name="hcircumflex" unicode="&#x125;" horiz-adv-x="484" 
d="M409 0h-76v284q0 17 -2 29.5t-10 29t-28 25.5t-51 9q-47 0 -69.5 -40t-22.5 -95v-242h-76v694h74v-321q55 65 133 65q128 0 128 -146v-292zM398 730h-59l-97 97l-97 -97h-59l126 134h60z" />
    <glyph glyph-name="Hbar" unicode="&#x126;" horiz-adv-x="663" 
d="M625 489h-51v-489h-84v330h-318v-330h-84v489h-51v64h51v141h84v-141h318v141h84v-141h51v-64zM490 391v98h-318v-98h318z" />
    <glyph glyph-name="hbar" unicode="&#x127;" horiz-adv-x="484" 
d="M409 0h-76v284q0 17 -2 29.5t-10 29t-28 25.5t-51 9q-47 0 -69.5 -40t-22.5 -95v-242h-76v530h-76v64h76v100h74v-100h94v-64h-94v-157q55 65 133 65q128 0 128 -146v-292z" />
    <glyph glyph-name="Itilde" unicode="&#x128;" horiz-adv-x="259" 
d="M171 0h-84v694h84v-694zM286 847q-1 -55 -29.5 -86t-62.5 -31q-26 0 -73 33q-31 23 -53 23q-34 0 -34 -56h-61q1 55 29.5 86t62.5 31q26 0 73 -33q31 -23 53 -23q34 0 34 56h61z" />
    <glyph glyph-name="itilde" unicode="&#x129;" horiz-adv-x="223" 
d="M148 0h-74v430h74v-430zM268 665q-1 -55 -29.5 -86t-62.5 -31q-26 0 -73 33q-31 23 -53 23q-34 0 -34 -56h-61q1 55 29.5 86t62.5 31q26 0 73 -33q31 -23 53 -23q34 0 34 56h61z" />
    <glyph glyph-name="Imacron" unicode="&#x12a;" horiz-adv-x="259" 
d="M171 0h-84v694h84v-694zM299 750h-339v64h339v-64z" />
    <glyph glyph-name="imacron" unicode="&#x12b;" horiz-adv-x="223" 
d="M148 0h-74v430h74v-430zM281 574h-339v64h339v-64z" />
    <glyph glyph-name="Ibreve" unicode="&#x12c;" horiz-adv-x="259" 
d="M171 0h-84v694h84v-694zM290 933q-2 -86 -48.5 -139.5t-112.5 -53.5q-64 0 -111 53t-49 140h61q1 -57 30 -92t70 -35q39 0 68.5 34.5t30.5 92.5h61z" />
    <glyph glyph-name="ibreve" unicode="&#x12d;" horiz-adv-x="223" 
d="M148 0h-74v430h74v-430zM272 703q-2 -86 -48.5 -139.5t-112.5 -53.5q-64 0 -111 53t-49 140h61q1 -57 30 -92t70 -35q39 0 68.5 34.5t30.5 92.5h61z" />
    <glyph glyph-name="Iogonek" unicode="&#x12e;" horiz-adv-x="259" 
d="M218 -187q-53 -25 -98 -25q-47 0 -72.5 25t-26.5 60q-2 37 22.5 71t64.5 56h-21v694h84v-694q-88 -50 -87 -104q1 -34 53 -38q29 -1 67 14z" />
    <glyph glyph-name="iogonek" unicode="&#x12f;" horiz-adv-x="223" 
d="M153 574h-84v84h84v-84zM195 -187q-53 -25 -98 -25q-47 0 -72.5 25t-26.5 60q-2 37 22.5 71t64.5 56h-11v430h74v-430q-88 -50 -87 -104q1 -34 53 -38q30 -1 67 14z" />
    <glyph glyph-name="Idotaccent" unicode="&#x130;" horiz-adv-x="259" 
d="M171 0h-84v694h84v-694zM172 730h-84v84h84v-84z" />
    <glyph glyph-name="dotlessi" unicode="&#x131;" horiz-adv-x="223" 
d="M148 0h-74v430h74v-430z" />
    <glyph glyph-name="Jcircumflex" unicode="&#x134;" horiz-adv-x="443" 
d="M365 149q0 -80 -45 -122.5t-120 -42.5q-82 0 -161 42l13 73q49 -54 121 -54q61 0 85.5 31.5t24.5 75.5v542h82v-545zM480 730h-59l-97 97l-97 -97h-59l126 134h60z" />
    <glyph glyph-name="jcircumflex" unicode="&#x135;" horiz-adv-x="249" 
d="M174 -60q0 -64 -35 -103.5t-84 -39.5q-59 0 -113 34l20 61q28 -31 69 -31q27 0 48 15t21 55v499h74v-490zM287 520h-59l-96 123l-96 -123h-59l125 172h60z" />
    <glyph glyph-name="Kcommaaccent" unicode="&#x136;" horiz-adv-x="651" 
d="M611 0h-93l-225 358l-121 -133v-225h-84v694h84v-363l330 363h96l-249 -275zM362 -129l-37 -113h-36l23 112h-22v72h72v-71z" />
    <glyph glyph-name="kcommaaccent" unicode="&#x137;" horiz-adv-x="458" 
d="M441 0h-85l-141 211l-67 -71v-140h-73v694h74v-450l175 186h96l-155 -165zM266 -129l-37 -113h-36l23 112h-22v72h72v-71z" />
    <glyph glyph-name="Lacute" unicode="&#x139;" horiz-adv-x="509" 
d="M469 0h-381v694h84v-630h53q6 0 18 0.5t18 0.5h208v-65zM374 862l-197 -122h-89l175 122h111z" />
    <glyph glyph-name="lacute" unicode="&#x13a;" horiz-adv-x="223" 
d="M148 0h-74v694h74v-694zM360 862l-197 -122h-89l175 122h111z" />
    <glyph glyph-name="Lcommaaccent" unicode="&#x13b;" horiz-adv-x="509" 
d="M469 0h-381v694h84v-630h53q6 0 18 0.5t18 0.5h208v-65zM291 -129l-37 -113h-36l23 112h-22v72h72v-71z" />
    <glyph glyph-name="lcommaaccent" unicode="&#x13c;" horiz-adv-x="223" 
d="M148 0h-74v694h74v-694zM148 -129l-37 -113h-36l23 112h-22v72h72v-71z" />
    <glyph glyph-name="Lcaron" unicode="&#x13d;" horiz-adv-x="509" 
d="M469 0h-381v694h84v-630h53q6 0 18 0.5t18 0.5h208v-65zM297 623l-37 -113h-36l23 112h-22v72h72v-71z" />
    <glyph glyph-name="lcaron" unicode="&#x13e;" horiz-adv-x="223" 
d="M148 0h-74v694h74v-694zM256 623l-37 -113h-36l23 112h-22v72h72v-71z" />
    <glyph glyph-name="Ldot" unicode="&#x13f;" horiz-adv-x="509" 
d="M469 0h-381v694h84v-630h53q6 0 18 0.5t18 0.5h208v-65zM426 321h-84v84h84v-84z" />
    <glyph glyph-name="ldot" unicode="&#x140;" horiz-adv-x="283" 
d="M148 0h-74v694h74v-694zM294 321h-84v84h84v-84z" />
    <glyph glyph-name="Lslash" unicode="&#x141;" horiz-adv-x="587" 
d="M545 0h-381v291l-66 -56l-37 43l103 87v329h84v-257l133 111l38 -45l-171 -142v-297h53q6 0 18 0.5t18 0.5h208v-65z" />
    <glyph glyph-name="lslash" unicode="&#x142;" horiz-adv-x="303" 
d="M304 448l-109 -95v-353h-74v291l-60 -54l-38 45l98 88v324h74v-264l69 62z" />
    <glyph glyph-name="Nacute" unicode="&#x143;" horiz-adv-x="663" 
d="M574 0h-123l-18 37l-214 465l-52 116l-1 -1v-617h-78v694h123l18 -37l214 -465l52 -116l1 1v617h78v-694zM522 862l-197 -122h-89l175 122h111z" />
    <glyph glyph-name="nacute" unicode="&#x144;" horiz-adv-x="484" 
d="M409 0h-76v284q0 17 -2 29.5t-10 29t-28 25.5t-51 9q-47 0 -69.5 -40t-22.5 -95v-242h-76v433h73v-62q55 67 134 67q128 0 128 -146v-292zM375 694l-139 -176h-61l124 176h76z" />
    <glyph glyph-name="Ncommaaccent" unicode="&#x145;" horiz-adv-x="663" 
d="M574 0h-123l-18 37l-214 465l-52 116l-1 -1v-617h-78v694h123l18 -37l214 -465l52 -116l1 1v617h78v-694zM368 -129l-37 -113h-36l23 112h-22v72h72v-71z" />
    <glyph glyph-name="ncommaaccent" unicode="&#x146;" horiz-adv-x="484" 
d="M409 0h-76v284q0 17 -2 29.5t-10 29t-28 25.5t-51 9q-47 0 -69.5 -40t-22.5 -95v-242h-76v433h73v-62q55 67 134 67q128 0 128 -146v-292zM279 -129l-37 -113h-36l23 112h-22v72h72v-71z" />
    <glyph glyph-name="Ncaron" unicode="&#x147;" horiz-adv-x="663" 
d="M574 0h-123l-18 37l-214 465l-52 116l-1 -1v-617h-78v694h123l18 -37l214 -465l52 -116l1 1v617h78v-694zM487 864l-126 -134h-60l-126 134h59l97 -97l97 97h59z" />
    <glyph glyph-name="ncaron" unicode="&#x148;" horiz-adv-x="484" 
d="M409 0h-76v284q0 17 -2 29.5t-10 29t-28 25.5t-51 9q-47 0 -69.5 -40t-22.5 -95v-242h-76v433h73v-62q55 67 134 67q128 0 128 -146v-292zM397 692l-125 -172h-60l-125 172h59l96 -123l96 123h59z" />
    <glyph glyph-name="Eng" unicode="&#x14a;" horiz-adv-x="663" 
d="M574 347q0 -95 -19 -173.5t-68 -134t-122 -55.5v76q28 0 49.5 11.5t34.5 33.5t22 47t12.5 61t5 65t1.5 69t-1.5 69t-5 65t-12.5 61t-22 47t-34.5 33.5t-49.5 11.5q-73 0 -126 -49.5t-67 -124.5v-460h-84v694h84v-69q80 85 193 85q55 0 97 -31t65.5 -84t35 -115.5
t11.5 -132.5z" />
    <glyph glyph-name="eng" unicode="&#x14b;" horiz-adv-x="484" 
d="M409 0q0 -83 -38.5 -144t-104.5 -61v64q67 0 67 141v284q0 17 -2 29.5t-10 29t-28 25.5t-51 9q-47 0 -69.5 -40t-22.5 -95v-242h-76v433h73v-62q55 67 134 67q128 0 128 -146v-292z" />
    <glyph glyph-name="Omacron" unicode="&#x14c;" horiz-adv-x="693" 
d="M640 346q0 -154 -87.5 -258t-206.5 -104t-206.5 104t-87.5 258q0 153 87 258.5t207 105.5t207 -105t87 -259zM556 359q0 131 -63 209.5t-147 78.5t-147 -78.5t-63 -209.5q0 -137 62 -224.5t148 -87.5q85 0 147.5 87t62.5 225zM516 750h-339v64h339v-64z" />
    <glyph glyph-name="omacron" unicode="&#x14d;" 
d="M442 214q0 -93 -61 -157.5t-147 -64.5q-85 0 -146 64t-61 158t61 161t147 67q85 0 146 -66.5t61 -161.5zM366 222q0 78 -39 118t-93 40q-52 0 -91.5 -39t-39.5 -119q0 -78 38 -123t93 -45q54 0 93 44t39 124zM405 574h-339v64h339v-64z" />
    <glyph glyph-name="Obreve" unicode="&#x14e;" horiz-adv-x="693" 
d="M640 346q0 -154 -87.5 -258t-206.5 -104t-206.5 104t-87.5 258q0 153 87 258.5t207 105.5t207 -105t87 -259zM556 359q0 131 -63 209.5t-147 78.5t-147 -78.5t-63 -209.5q0 -137 62 -224.5t148 -87.5q85 0 147.5 87t62.5 225zM507 933q-2 -86 -48.5 -139.5t-112.5 -53.5
q-64 0 -111 53t-49 140h61q1 -57 30 -92t70 -35q39 0 68.5 34.5t30.5 92.5h61z" />
    <glyph glyph-name="obreve" unicode="&#x14f;" 
d="M442 214q0 -93 -61 -157.5t-147 -64.5q-85 0 -146 64t-61 158t61 161t147 67q85 0 146 -66.5t61 -161.5zM366 222q0 78 -39 118t-93 40q-52 0 -91.5 -39t-39.5 -119q0 -78 38 -123t93 -45q54 0 93 44t39 124zM396 703q-2 -86 -48.5 -139.5t-112.5 -53.5q-64 0 -111 53
t-49 140h61q1 -57 30 -92t70 -35q39 0 68.5 34.5t30.5 92.5h61z" />
    <glyph glyph-name="Ohungarumlaut" unicode="&#x150;" horiz-adv-x="693" 
d="M640 346q0 -154 -87.5 -258t-206.5 -104t-206.5 104t-87.5 258q0 153 87 258.5t207 105.5t207 -105t87 -259zM556 359q0 131 -63 209.5t-147 78.5t-147 -78.5t-63 -209.5q0 -137 62 -224.5t148 -87.5q85 0 147.5 87t62.5 225zM345 916l-74 -176h-61l59 176h76zM502 916
l-74 -176h-61l59 176h76z" />
    <glyph glyph-name="ohungarumlaut" unicode="&#x151;" 
d="M442 214q0 -93 -61 -157.5t-147 -64.5q-85 0 -146 64t-61 158t61 161t147 67q85 0 146 -66.5t61 -161.5zM366 222q0 78 -39 118t-93 40q-52 0 -91.5 -39t-39.5 -119q0 -78 38 -123t93 -45q54 0 93 44t39 124zM234 694l-74 -176h-61l59 176h76zM391 694l-74 -176h-61
l59 176h76z" />
    <glyph glyph-name="OE" unicode="&#x152;" horiz-adv-x="913" 
d="M873 0h-385q-29 0 -69 -7q-61 -9 -81 -9q-127 0 -220 104.5t-93 257.5q0 152 92.5 258t220.5 106q24 0 79 -9q41 -7 71 -7h372v-65l-335 1v-239h309v-61h-309v-263l348 2v-69zM443 348q0 178 -4 210q-6 48 -25 69.5t-74 21.5q-96 0 -164.5 -83t-68.5 -207
q0 -129 67.5 -221.5t165.5 -92.5q55 0 73.5 20.5t25.5 66.5q4 32 4 216z" />
    <glyph glyph-name="oe" unicode="&#x153;" horiz-adv-x="731" 
d="M704 219h-275q1 -73 39.5 -119.5t92.5 -46.5q73 0 132 52l3 -27q3 -33 3 -37q-62 -49 -139 -49q-103 0 -169 94q-62 -94 -164 -94q-81 0 -140.5 65t-59.5 160q0 94 59.5 159.5t140.5 65.5q101 0 163 -92q59 92 155 92q38 0 67 -13.5t45 -37.5t27 -47t14.5 -53t4.5 -43.5
t1 -28.5zM637 274q-8 55 -34 81t-58 26q-34 0 -65 -29t-44 -78h201zM353 223q0 78 -37 118t-89 40q-51 0 -89 -40t-38 -118q0 -83 38 -126.5t89 -43.5t88.5 43t37.5 127z" />
    <glyph glyph-name="Racute" unicode="&#x154;" horiz-adv-x="606" 
d="M579 0h-84l-177 317h-147v-317h-82v694h224q104 0 172 -56t68 -130q0 -15 -3.5 -30.5t-16 -45.5t-48 -58t-89.5 -47l-2 -1zM474 508q0 51 -42.5 90.5t-129.5 39.5h-131v-260h131q89 0 130.5 40t41.5 90zM494 862l-197 -122h-89l175 122h111z" />
    <glyph glyph-name="racute" unicode="&#x155;" horiz-adv-x="320" 
d="M306 372q-67 -2 -112 -46t-45 -113v-213h-74v433h71v-80q58 83 160 85v-66zM275 694l-139 -176h-61l124 176h76z" />
    <glyph glyph-name="Rcommaaccent" unicode="&#x156;" horiz-adv-x="606" 
d="M579 0h-84l-177 317h-147v-317h-82v694h224q104 0 172 -56t68 -130q0 -15 -3.5 -30.5t-16 -45.5t-48 -58t-89.5 -47l-2 -1zM474 508q0 51 -42.5 90.5t-129.5 39.5h-131v-260h131q89 0 130.5 40t41.5 90zM340 -129l-37 -113h-36l23 112h-22v72h72v-71z" />
    <glyph glyph-name="rcommaaccent" unicode="&#x157;" horiz-adv-x="320" 
d="M306 372q-67 -2 -112 -46t-45 -113v-213h-74v433h71v-80q58 83 160 85v-66zM149 -129l-37 -113h-36l23 112h-22v72h72v-71z" />
    <glyph glyph-name="Rcaron" unicode="&#x158;" horiz-adv-x="606" 
d="M579 0h-84l-177 317h-147v-317h-82v694h224q104 0 172 -56t68 -130q0 -15 -3.5 -30.5t-16 -45.5t-48 -58t-89.5 -47l-2 -1zM474 508q0 51 -42.5 90.5t-129.5 39.5h-131v-260h131q89 0 130.5 40t41.5 90zM459 864l-126 -134h-60l-126 134h59l97 -97l97 97h59z" />
    <glyph glyph-name="rcaron" unicode="&#x159;" horiz-adv-x="320" 
d="M306 372q-67 -2 -112 -46t-45 -113v-213h-74v433h71v-80q58 83 160 85v-66zM315 692l-125 -172h-60l-125 172h59l96 -123l96 123h59z" />
    <glyph glyph-name="Sacute" unicode="&#x15a;" horiz-adv-x="522" 
d="M469 191q0 -84 -60.5 -145.5t-150.5 -61.5q-120 0 -216 70l14 79q88 -81 201 -81q62 0 99 39.5t37 90.5q0 38 -21.5 71.5t-61.5 49.5q-12 5 -69 20q-35 9 -54 15t-43 20t-42 35q-50 56 -50 125q0 76 59.5 134t152.5 58q90 0 173 -49l-14 -80q-68 63 -159 63
q-62 0 -99 -35.5t-37 -81.5q0 -36 26 -70q17 -21 38.5 -30.5t63.5 -20.5q70 -19 100.5 -32.5t58.5 -44.5q54 -60 54 -138zM452 862l-197 -122h-89l175 122h111z" />
    <glyph glyph-name="sacute" unicode="&#x15b;" horiz-adv-x="360" 
d="M338 124q0 -53 -35.5 -92.5t-118.5 -39.5q-84 0 -158 43l12 67q65 -47 145 -47q85 0 85 63q0 14 -6 25.5t-14 18t-23.5 12t-25 7.5l-28.5 6q-140 28 -140 129q0 36 14 62t38 39t49.5 19t54.5 6q72 0 135 -30l-12 -65q-63 35 -132 35q-77 0 -77 -57q0 -20 14 -34t26 -18
t23 -6q64 -13 83.5 -20t43.5 -26q47 -37 47 -97zM313 694l-139 -176h-61l124 176h76z" />
    <glyph glyph-name="Scircumflex" unicode="&#x15c;" horiz-adv-x="522" 
d="M469 191q0 -84 -60.5 -145.5t-150.5 -61.5q-120 0 -216 70l14 79q88 -81 201 -81q62 0 99 39.5t37 90.5q0 38 -21.5 71.5t-61.5 49.5q-12 5 -69 20q-35 9 -54 15t-43 20t-42 35q-50 56 -50 125q0 76 59.5 134t152.5 58q90 0 173 -49l-14 -80q-68 63 -159 63
q-62 0 -99 -35.5t-37 -81.5q0 -36 26 -70q17 -21 38.5 -30.5t63.5 -20.5q70 -19 100.5 -32.5t58.5 -44.5q54 -60 54 -138zM417 730h-59l-97 97l-97 -97h-59l126 134h60z" />
    <glyph glyph-name="scircumflex" unicode="&#x15d;" horiz-adv-x="360" 
d="M338 124q0 -53 -35.5 -92.5t-118.5 -39.5q-84 0 -158 43l12 67q65 -47 145 -47q85 0 85 63q0 14 -6 25.5t-14 18t-23.5 12t-25 7.5l-28.5 6q-140 28 -140 129q0 36 14 62t38 39t49.5 19t54.5 6q72 0 135 -30l-12 -65q-63 35 -132 35q-77 0 -77 -57q0 -20 14 -34t26 -18
t23 -6q64 -13 83.5 -20t43.5 -26q47 -37 47 -97zM335 520h-59l-96 123l-96 -123h-59l125 172h60z" />
    <glyph glyph-name="Scedilla" unicode="&#x15e;" horiz-adv-x="522" 
d="M469 191q0 -84 -60.5 -145.5t-150.5 -61.5q-120 0 -216 70l14 79q88 -81 201 -81q62 0 99 39.5t37 90.5q0 38 -21.5 71.5t-61.5 49.5q-12 5 -69 20q-35 9 -54 15t-43 20t-42 35q-50 56 -50 125q0 76 59.5 134t152.5 58q90 0 173 -49l-14 -80q-68 63 -159 63
q-62 0 -99 -35.5t-37 -81.5q0 -36 26 -70q17 -21 38.5 -30.5t63.5 -20.5q70 -19 100.5 -32.5t58.5 -44.5q54 -60 54 -138zM307 -34l-62 -168h-68l69 168h61z" />
    <glyph glyph-name="scedilla" unicode="&#x15f;" horiz-adv-x="360" 
d="M338 124q0 -53 -35.5 -92.5t-118.5 -39.5q-84 0 -158 43l12 67q65 -47 145 -47q85 0 85 63q0 14 -6 25.5t-14 18t-23.5 12t-25 7.5l-28.5 6q-140 28 -140 129q0 36 14 62t38 39t49.5 19t54.5 6q72 0 135 -30l-12 -65q-63 35 -132 35q-77 0 -77 -57q0 -20 14 -34t26 -18
t23 -6q64 -13 83.5 -20t43.5 -26q47 -37 47 -97zM226 -34l-62 -168h-68l69 168h61z" />
    <glyph glyph-name="Scaron" unicode="&#x160;" horiz-adv-x="522" 
d="M469 191q0 -84 -60.5 -145.5t-150.5 -61.5q-120 0 -216 70l14 79q88 -81 201 -81q62 0 99 39.5t37 90.5q0 38 -21.5 71.5t-61.5 49.5q-12 5 -69 20q-35 9 -54 15t-43 20t-42 35q-50 56 -50 125q0 76 59.5 134t152.5 58q90 0 173 -49l-14 -80q-68 63 -159 63
q-62 0 -99 -35.5t-37 -81.5q0 -36 26 -70q17 -21 38.5 -30.5t63.5 -20.5q70 -19 100.5 -32.5t58.5 -44.5q54 -60 54 -138zM417 864l-126 -134h-60l-126 134h59l97 -97l97 97h59z" />
    <glyph glyph-name="scaron" unicode="&#x161;" horiz-adv-x="360" 
d="M338 124q0 -53 -35.5 -92.5t-118.5 -39.5q-84 0 -158 43l12 67q65 -47 145 -47q85 0 85 63q0 14 -6 25.5t-14 18t-23.5 12t-25 7.5l-28.5 6q-140 28 -140 129q0 36 14 62t38 39t49.5 19t54.5 6q72 0 135 -30l-12 -65q-63 35 -132 35q-77 0 -77 -57q0 -20 14 -34t26 -18
t23 -6q64 -13 83.5 -20t43.5 -26q47 -37 47 -97zM335 692l-125 -172h-60l-125 172h59l96 -123l96 123h59z" />
    <glyph glyph-name="Tcedilla" unicode="&#x162;" horiz-adv-x="641" 
d="M606 626h-125q-6 0 -18 0.5t-18 0.5h-83v-627h-84v627h-83q-6 0 -18 -0.5t-18 -0.5h-125v65h572v-65zM351 -18l-62 -168h-68l69 168h61z" />
    <glyph glyph-name="tcedilla" unicode="&#x163;" horiz-adv-x="340" 
d="M313 29q-71 -37 -140 -37q-79 0 -79 127v253h-77v58h79v123h71v-123h130v-58h-130v-236q0 -81 46 -81t84 33zM229 -18l-62 -168h-68l69 168h61z" />
    <glyph glyph-name="Tcaron" unicode="&#x164;" horiz-adv-x="641" 
d="M606 626h-125q-6 0 -18 0.5t-18 0.5h-83v-627h-84v627h-83q-6 0 -18 -0.5t-18 -0.5h-125v65h572v-65zM476 864l-126 -134h-60l-126 134h59l97 -97l97 97h59z" />
    <glyph glyph-name="tcaron" unicode="&#x165;" horiz-adv-x="340" 
d="M313 29q-71 -37 -140 -37q-79 0 -79 127v253h-77v58h79v123h71v-123h130v-58h-130v-236q0 -81 46 -81t84 33zM275 578l-37 -113h-36l23 112h-22v72h72v-71z" />
    <glyph glyph-name="Utilde" unicode="&#x168;" horiz-adv-x="644" 
d="M555 233q0 -106 -68.5 -177.5t-163.5 -71.5t-165 71.5t-70 177.5v461h84v-463q0 -91 45 -141t107 -50t108.5 49.5t46.5 142.5v462h76v-461zM479 847q-1 -55 -29.5 -86t-62.5 -31q-26 0 -73 33q-31 23 -53 23q-34 0 -34 -56h-61q1 55 29.5 86t62.5 31q26 0 73 -33
q31 -23 53 -23q34 0 34 56h61z" />
    <glyph glyph-name="utilde" unicode="&#x169;" horiz-adv-x="484" 
d="M409 0h-74v50q-63 -58 -165 -58q-51 0 -73.5 28t-22.5 88v322h76v-317q0 -35 13 -49t59 -14q47 0 79 26t32 78v276h76v-430zM399 665q-1 -55 -29.5 -86t-62.5 -31q-26 0 -73 33q-31 23 -53 23q-34 0 -34 -56h-61q1 55 29.5 86t62.5 31q26 0 73 -33q31 -23 53 -23
q34 0 34 56h61z" />
    <glyph glyph-name="Umacron" unicode="&#x16a;" horiz-adv-x="644" 
d="M555 233q0 -106 -68.5 -177.5t-163.5 -71.5t-165 71.5t-70 177.5v461h84v-463q0 -91 45 -141t107 -50t108.5 49.5t46.5 142.5v462h76v-461zM492 750h-339v64h339v-64z" />
    <glyph glyph-name="umacron" unicode="&#x16b;" horiz-adv-x="484" 
d="M409 0h-74v50q-63 -58 -165 -58q-51 0 -73.5 28t-22.5 88v322h76v-317q0 -35 13 -49t59 -14q47 0 79 26t32 78v276h76v-430zM412 574h-339v64h339v-64z" />
    <glyph glyph-name="Ubreve" unicode="&#x16c;" horiz-adv-x="644" 
d="M555 233q0 -106 -68.5 -177.5t-163.5 -71.5t-165 71.5t-70 177.5v461h84v-463q0 -91 45 -141t107 -50t108.5 49.5t46.5 142.5v462h76v-461zM483 933q-2 -86 -48.5 -139.5t-112.5 -53.5q-64 0 -111 53t-49 140h61q1 -57 30 -92t70 -35q39 0 68.5 34.5t30.5 92.5h61z" />
    <glyph glyph-name="ubreve" unicode="&#x16d;" horiz-adv-x="484" 
d="M409 0h-74v50q-63 -58 -165 -58q-51 0 -73.5 28t-22.5 88v322h76v-317q0 -35 13 -49t59 -14q47 0 79 26t32 78v276h76v-430zM403 703q-2 -86 -48.5 -139.5t-112.5 -53.5q-64 0 -111 53t-49 140h61q1 -57 30 -92t70 -35q39 0 68.5 34.5t30.5 92.5h61z" />
    <glyph glyph-name="Uring" unicode="&#x16e;" horiz-adv-x="644" 
d="M555 233q0 -106 -68.5 -177.5t-163.5 -71.5t-165 71.5t-70 177.5v461h84v-463q0 -91 45 -141t107 -50t108.5 49.5t46.5 142.5v462h76v-461zM369 782q0 39 -47 39t-47 -39t47 -39t47 39zM427 782q0 -35 -30.5 -61.5t-74.5 -26.5t-74.5 26.5t-30.5 61.5t30.5 61.5
t74.5 26.5t74.5 -26.5t30.5 -61.5z" />
    <glyph glyph-name="uring" unicode="&#x16f;" horiz-adv-x="484" 
d="M409 0h-74v50q-63 -58 -165 -58q-51 0 -73.5 28t-22.5 88v322h76v-317q0 -35 13 -49t59 -14q47 0 79 26t32 78v276h76v-430zM289 595q0 39 -47 39t-47 -39t47 -39t47 39zM347 595q0 -35 -30.5 -61.5t-74.5 -26.5t-74.5 26.5t-30.5 61.5t30.5 61.5t74.5 26.5t74.5 -26.5
t30.5 -61.5z" />
    <glyph glyph-name="Uhungarumlaut" unicode="&#x170;" horiz-adv-x="644" 
d="M555 233q0 -106 -68.5 -177.5t-163.5 -71.5t-165 71.5t-70 177.5v461h84v-463q0 -91 45 -141t107 -50t108.5 49.5t46.5 142.5v462h76v-461zM321 916l-74 -176h-61l59 176h76zM478 916l-74 -176h-61l59 176h76z" />
    <glyph glyph-name="uhungarumlaut" unicode="&#x171;" horiz-adv-x="484" 
d="M409 0h-74v50q-63 -58 -165 -58q-51 0 -73.5 28t-22.5 88v322h76v-317q0 -35 13 -49t59 -14q47 0 79 26t32 78v276h76v-430zM241 694l-74 -176h-61l59 176h76zM398 694l-74 -176h-61l59 176h76z" />
    <glyph glyph-name="Uogonek" unicode="&#x172;" horiz-adv-x="644" 
d="M555 233q0 -89 -50 -155.5t-126 -86.5q-73 -46 -73 -95q1 -34 53 -38q29 -1 67 14l14 -59q-53 -25 -98 -25q-47 0 -72.5 25t-26.5 60q-3 62 64 112q-91 6 -155 76.5t-64 171.5v461h84v-463q0 -91 45 -141t107 -50t108.5 49.5t46.5 142.5v462h76v-461z" />
    <glyph glyph-name="uogonek" unicode="&#x173;" horiz-adv-x="484" 
d="M456 -187q-53 -25 -98 -25q-47 0 -72.5 25t-26.5 60q-2 37 22.5 71t64.5 56h-11v50q-63 -58 -165 -58q-51 0 -73.5 28t-22.5 88v322h76v-317q0 -35 13 -49t59 -14q47 0 79 26t32 78v276h76v-430q-88 -50 -87 -104q1 -34 53 -38q29 -1 67 14z" />
    <glyph glyph-name="Wcircumflex" unicode="&#x174;" horiz-adv-x="886" 
d="M872 694l-190 -694h-87l-106 400q-48 180 -48 213h-1q-2 -30 -35 -165l-40 -159l-79 -289h-83l-190 694h86l77 -285l43 -173q32 -134 32 -156h1q4 44 33 164l40 159l79 291h84l83 -307l39 -158q28 -114 31 -148h1q2 24 33 152l37 150l84 311h76zM599 730h-59l-97 97
l-97 -97h-59l126 134h60z" />
    <glyph glyph-name="wcircumflex" unicode="&#x175;" horiz-adv-x="641" 
d="M627 430l-130 -430h-88l-66 233q-26 91 -29 139q-3 -68 -95 -372h-76l-130 430h78l45 -153q48 -176 51 -219h1q2 50 46 201l50 171h69l51 -175q44 -148 47 -197h1q4 46 46 192l53 180h76zM475 520h-59l-96 123l-96 -123h-59l125 172h60z" />
    <glyph glyph-name="Ycircumflex" unicode="&#x176;" horiz-adv-x="625" 
d="M621 694l-268 -417v-277h-82v278l-268 416h98l168 -263l49 -79q8 14 62 100l155 242h86zM468 730h-59l-97 97l-97 -97h-59l126 134h60z" />
    <glyph glyph-name="ycircumflex" unicode="&#x177;" horiz-adv-x="432" 
d="M418 430l-190 -510q-16 -43 -34 -70.5t-35.5 -37.5t-27.5 -12.5t-24 -2.5q-28 0 -68 8l-6 66q39 -12 72 -12q11 0 16.5 2t16 15t20.5 39q3 6 32 85l-177 430h81l47 -117q78 -192 82 -255h1q3 67 116 372h78zM371 520h-59l-96 123l-96 -123h-59l125 172h60z" />
    <glyph glyph-name="Ydieresis" unicode="&#x178;" horiz-adv-x="625" 
d="M621 694l-268 -417v-277h-82v278l-268 416h98l168 -263l49 -79q8 14 62 100l155 242h86zM268 730h-76v75h76v-75zM432 730h-76v75h76v-75z" />
    <glyph glyph-name="Zacute" unicode="&#x179;" horiz-adv-x="575" 
d="M527 0h-475v43l364 589h-128q-6 0 -18 -0.5t-18 -0.5h-187v63h457v-41l-364 -589h30l250 2h89v-66zM478 862l-197 -122h-89l175 122h111z" />
    <glyph glyph-name="zacute" unicode="&#x17a;" horiz-adv-x="408" 
d="M378 0h-352v41l247 330h-70q-6 0 -18 -0.5t-18 -0.5h-128v60h336v-39l-246 -330h77q6 0 18 0.5t18 0.5h136v-62zM337 694l-139 -176h-61l124 176h76z" />
    <glyph glyph-name="Zdotaccent" unicode="&#x17b;" horiz-adv-x="575" 
d="M527 0h-475v43l364 589h-128q-6 0 -18 -0.5t-18 -0.5h-187v63h457v-41l-364 -589h30l250 2h89v-66zM330 730h-84v84h84v-84z" />
    <glyph glyph-name="zdotaccent" unicode="&#x17c;" horiz-adv-x="408" 
d="M378 0h-352v41l247 330h-70q-6 0 -18 -0.5t-18 -0.5h-128v60h336v-39l-246 -330h77q6 0 18 0.5t18 0.5h136v-62zM247 564h-84v84h84v-84z" />
    <glyph glyph-name="Zcaron" unicode="&#x17d;" horiz-adv-x="575" 
d="M527 0h-475v43l364 589h-128q-6 0 -18 -0.5t-18 -0.5h-187v63h457v-41l-364 -589h30l250 2h89v-66zM443 864l-126 -134h-60l-126 134h59l97 -97l97 97h59z" />
    <glyph glyph-name="zcaron" unicode="&#x17e;" horiz-adv-x="408" 
d="M378 0h-352v41l247 330h-70q-6 0 -18 -0.5t-18 -0.5h-128v60h336v-39l-246 -330h77q6 0 18 0.5t18 0.5h136v-62zM359 692l-125 -172h-60l-125 172h59l96 -123l96 123h59z" />
    <glyph glyph-name="longs" unicode="&#x17f;" horiz-adv-x="267" 
d="M305 628q-36 13 -74 13q-32 0 -57.5 -18t-25.5 -65v-558h-74v527q0 75 44.5 125t113.5 50q36 0 73 -8v-66z" />
    <glyph glyph-name="Ereversed" unicode="&#x18e;" horiz-adv-x="561" 
d="M521 0h-433v69l215 -1l134 -1v262h-310v61h310v238h-129q-6 0 -18 -0.5t-18 -0.5h-171v65h420v-692z" />
    <glyph glyph-name="florin" unicode="&#x192;" horiz-adv-x="287" 
d="M325 628q-36 13 -74 13q-32 0 -58.5 -18t-26.5 -65v-128h103v-58h-101v-372h-74v372h-69v58h69v97q0 75 44.5 125t113.5 50q36 0 73 -8v-66z" />
    <glyph glyph-name="Ohorn" unicode="&#x1a0;" horiz-adv-x="678" 
d="M640 346q0 -154 -87.5 -258t-206.5 -104t-206.5 104t-87.5 258q0 153 87 258.5t207 105.5q89 0 164 -62l30 23h-24v78h79v-77l-62 -45q107 -109 107 -281zM556 359q0 131 -63 209.5t-147 78.5t-147 -78.5t-63 -209.5q0 -137 62 -224.5t148 -87.5q85 0 147.5 87t62.5 225z
" />
    <glyph glyph-name="ohorn" unicode="&#x1a1;" horiz-adv-x="463" 
d="M450 432l-68 -59q60 -71 60 -159q0 -93 -61 -157.5t-147 -64.5q-85 0 -146 64t-61 158t61 161t146 67q65 0 127 -46l34 35h-24v79h79v-78zM366 222q0 78 -39 118t-93 40q-52 0 -91.5 -39t-39.5 -119q0 -78 38 -123t93 -45q54 0 93 44t39 124z" />
    <glyph glyph-name="Uhorn" unicode="&#x1af;" horiz-adv-x="647" 
d="M657 672l-101 -73v-366q0 -106 -68.5 -177.5t-163.5 -71.5t-165 71.5t-70 177.5v461h84v-463q0 -91 45 -141t107 -50t108.5 49.5t46.5 142.5v462h76v-54l46 32h-24v77h79v-77z" />
    <glyph glyph-name="uhorn" unicode="&#x1b0;" horiz-adv-x="483" 
d="M507 432l-98 -78v-354h-74v50q-63 -58 -165 -58q-51 0 -73.5 28t-22.5 88v322h76v-317q0 -35 13 -49t59 -14q47 0 79 26t32 78v276h76v-38l43 39h-24v79h79v-78z" />
    <glyph glyph-name="Acaron" unicode="&#x1cd;" horiz-adv-x="625" 
d="M598 0h-87l-71 202h-268l-70 -202h-76l243 694h86zM421 258l-70 207q-37 111 -44 152h-1q-7 -43 -115 -359h230zM468 864l-126 -134h-60l-126 134h59l97 -97l97 97h59z" />
    <glyph glyph-name="acaron" unicode="&#x1ce;" horiz-adv-x="451" 
d="M386 0h-74v37q-61 -45 -154 -45q-55 0 -81.5 40.5t-26.5 81.5q0 59 69 92.5t191 37.5v38q0 47 -22 74t-60 27q-75 0 -140 -47l-6 66q69 40 147 40q68 0 112.5 -44.5t44.5 -114.5v-283zM310 132v62q-21 -1 -43.5 -3.5t-60 -9.5t-60.5 -24t-23 -41q0 -27 23.5 -45t60.5 -18
q44 0 73 19q30 18 30 60zM380 692l-125 -172h-60l-125 172h59l96 -123l96 123h59z" />
    <glyph glyph-name="Icaron" unicode="&#x1cf;" horiz-adv-x="259" 
d="M171 0h-84v694h84v-694zM285 864l-126 -134h-60l-126 134h59l97 -97l97 97h59z" />
    <glyph glyph-name="icaron" unicode="&#x1d0;" horiz-adv-x="223" 
d="M148 0h-74v430h74v-430zM266 692l-125 -172h-60l-125 172h59l96 -123l96 123h59z" />
    <glyph glyph-name="Ocaron" unicode="&#x1d1;" horiz-adv-x="693" 
d="M640 346q0 -154 -87.5 -258t-206.5 -104t-206.5 104t-87.5 258q0 153 87 258.5t207 105.5t207 -105t87 -259zM556 359q0 131 -63 209.5t-147 78.5t-147 -78.5t-63 -209.5q0 -137 62 -224.5t148 -87.5q85 0 147.5 87t62.5 225zM502 864l-126 -134h-60l-126 134h59l97 -97
l97 97h59z" />
    <glyph glyph-name="ocaron" unicode="&#x1d2;" 
d="M442 214q0 -93 -61 -157.5t-147 -64.5q-85 0 -146 64t-61 158t61 161t147 67q85 0 146 -66.5t61 -161.5zM366 222q0 78 -39 118t-93 40q-52 0 -91.5 -39t-39.5 -119q0 -78 38 -123t93 -45q54 0 93 44t39 124zM390 692l-125 -172h-60l-125 172h59l96 -123l96 123h59z" />
    <glyph glyph-name="Ucaron" unicode="&#x1d3;" horiz-adv-x="644" 
d="M555 233q0 -106 -68.5 -177.5t-163.5 -71.5t-165 71.5t-70 177.5v461h84v-463q0 -91 45 -141t107 -50t108.5 49.5t46.5 142.5v462h76v-461zM478 864l-126 -134h-60l-126 134h59l97 -97l97 97h59z" />
    <glyph glyph-name="ucaron" unicode="&#x1d4;" horiz-adv-x="484" 
d="M409 0h-74v50q-63 -58 -165 -58q-51 0 -73.5 28t-22.5 88v322h76v-317q0 -35 13 -49t59 -14q47 0 79 26t32 78v276h76v-430zM397 692l-125 -172h-60l-125 172h59l96 -123l96 123h59z" />
    <glyph glyph-name="Udieresisacute" unicode="&#x1d7;" horiz-adv-x="644" 
d="M555 233q0 -106 -68.5 -177.5t-163.5 -71.5t-165 71.5t-70 177.5v461h84v-463q0 -91 45 -141t107 -50t108.5 49.5t46.5 142.5v462h76v-461zM278 730h-76v75h76v-75zM442 730h-76v75h76v-75zM513 973l-197 -122h-89l175 122h111z" />
    <glyph glyph-name="udieresisacute" unicode="&#x1d8;" horiz-adv-x="484" 
d="M409 0h-74v50q-63 -58 -165 -58q-51 0 -73.5 28t-22.5 88v322h76v-317q0 -35 13 -49t59 -14q47 0 79 26t32 78v276h76v-430zM210 569h-76v75h76v-75zM350 569h-76v75h76v-75zM433 823l-197 -122h-89l175 122h111z" />
    <glyph glyph-name="Udieresiscaron" unicode="&#x1d9;" horiz-adv-x="644" 
d="M555 233q0 -106 -68.5 -177.5t-163.5 -71.5t-165 71.5t-70 177.5v461h84v-463q0 -91 45 -141t107 -50t108.5 49.5t46.5 142.5v462h76v-461zM278 730h-76v75h76v-75zM442 730h-76v75h76v-75zM478 975l-126 -134h-60l-126 134h59l97 -97l97 97h59z" />
    <glyph glyph-name="udieresiscaron" unicode="&#x1da;" horiz-adv-x="484" 
d="M409 0h-74v50q-63 -58 -165 -58q-51 0 -73.5 28t-22.5 88v322h76v-317q0 -35 13 -49t59 -14q47 0 79 26t32 78v276h76v-430zM210 569h-76v75h76v-75zM350 569h-76v75h76v-75zM398 825l-126 -134h-60l-126 134h59l97 -97l97 97h59z" />
    <glyph glyph-name="Udieresisgrave" unicode="&#x1db;" horiz-adv-x="644" 
d="M555 233q0 -106 -68.5 -177.5t-163.5 -71.5t-165 71.5t-70 177.5v461h84v-463q0 -91 45 -141t107 -50t108.5 49.5t46.5 142.5v462h76v-461zM278 730h-76v75h76v-75zM442 730h-76v75h76v-75zM417 851h-89l-197 122h111z" />
    <glyph glyph-name="udieresisgrave" unicode="&#x1dc;" horiz-adv-x="484" 
d="M409 0h-74v50q-63 -58 -165 -58q-51 0 -73.5 28t-22.5 88v322h76v-317q0 -35 13 -49t59 -14q47 0 79 26t32 78v276h76v-430zM210 569h-76v75h76v-75zM350 569h-76v75h76v-75zM337 701h-89l-197 122h111z" />
    <glyph glyph-name="eturned" unicode="&#x1dd;" horiz-adv-x="418" 
d="M391 217q0 -94 -56.5 -159.5t-135.5 -65.5q-90 0 -135 73q-34 56 -34 150h290q-2 79 -42.5 122.5t-93.5 43.5q-79 0 -143 -52l-3 37q-3 23 -3 27q68 49 150 49q86 0 146 -66t60 -159zM312 160h-216q5 -30 16.5 -51.5t23 -32t26.5 -16t22 -6.5t15 -1q40 0 71.5 31.5
t41.5 75.5z" />
    <glyph glyph-name="Gcaron" unicode="&#x1e6;" horiz-adv-x="627" 
d="M558 41q-92 -49 -197 -49q-124 0 -212 103t-88 248q0 146 88 249t212 103q53 0 98 -11q44 -11 91 -37l-14 -80q-44 35 -82 49q-41 15 -93 15q-89 0 -152 -84q-64 -82 -64 -204q0 -119 64 -203q62 -84 152 -84q64 0 121 19v154h-121v62h197v-250zM469 864l-126 -134h-60
l-126 134h59l97 -97l97 97h59z" />
    <glyph glyph-name="gcaron" unicode="&#x1e7;" 
d="M456 376q-37 4 -63 4q-7 0 -21 -1t-26 -1.5t-13 -0.5h-3q31 -41 31 -95q0 -64 -45 -110t-107 -46q-49 0 -87 28q-10 -14 -10 -34q0 -51 55 -51h81q195 0 195 -139q0 -56 -60.5 -95t-148.5 -39q-87 0 -147.5 39t-60.5 94q0 64 59 100q-25 32 -25 74q0 43 28 82
q-3 3 -9.5 13.5t-14.5 35t-8 48.5q0 64 44.5 110t108.5 46q51 0 90 -31q62 30 146 31zM290 282q0 54 -25 77.5t-57 23.5q-12 0 -24 -4t-26 -13.5t-22.5 -31t-8.5 -52.5q0 -54 25 -77.5t57 -23.5q12 0 24 4t26 13.5t22.5 31t8.5 52.5zM372 -72q0 68 -125 68h-81
q-19 0 -33.5 -7t-21 -15t-10 -19.5t-4 -16.5t-0.5 -9q0 -33 40 -55.5t98 -22.5q57 0 97 22.5t40 54.5zM357 692l-125 -172h-60l-125 172h59l96 -123l96 123h59z" />
    <glyph glyph-name="Oogonek" unicode="&#x1ea;" horiz-adv-x="693" 
d="M640 346q0 -134 -68 -231.5t-168 -123.5q-73 -46 -72 -95q1 -34 53 -38q29 -1 67 14l14 -59q-53 -25 -98 -25q-47 0 -72.5 25t-26.5 60q-4 61 63 111q-115 7 -197.5 110t-82.5 252q0 153 87 258.5t207 105.5t207 -105t87 -259zM556 359q0 131 -63 209.5t-147 78.5
t-147 -78.5t-63 -209.5q0 -137 62 -224.5t148 -87.5q85 0 147.5 87t62.5 225z" />
    <glyph glyph-name="oogonek" unicode="&#x1eb;" 
d="M442 214q0 -76 -43 -135t-109 -79h6q-88 -50 -87 -104q1 -34 53 -38q30 -1 67 14l14 -59q-53 -25 -98 -25q-47 0 -72.5 25t-26.5 60q-4 68 75 119q-81 6 -137.5 69t-56.5 153q0 94 61 161t147 67q85 0 146 -66.5t61 -161.5zM366 222q0 78 -39 118.5t-93 40.5
q-52 0 -91.5 -39.5t-39.5 -119.5q0 -78 38 -122.5t94 -44.5q54 0 92.5 43.5t38.5 123.5z" />
    <glyph glyph-name="jcaron" unicode="&#x1f0;" horiz-adv-x="249" 
d="M174 -60q0 -64 -35 -103.5t-84 -39.5q-59 0 -113 34l20 61q28 -31 69 -31q27 0 48 15t21 55v499h74v-490zM287 692l-125 -172h-60l-125 172h59l96 -123l96 123h59z" />
    <glyph glyph-name="Gacute" unicode="&#x1f4;" horiz-adv-x="627" 
d="M558 41q-92 -49 -197 -49q-124 0 -212 103t-88 248q0 146 88 249t212 103q53 0 98 -11q44 -11 91 -37l-14 -80q-44 35 -82 49q-41 15 -93 15q-89 0 -152 -84q-64 -82 -64 -204q0 -119 64 -203q62 -84 152 -84q64 0 121 19v154h-121v62h197v-250zM504 862l-197 -122h-89
l175 122h111z" />
    <glyph glyph-name="gacute" unicode="&#x1f5;" 
d="M456 376q-37 4 -63 4q-7 0 -21 -1t-26 -1.5t-13 -0.5h-3q31 -41 31 -95q0 -64 -45 -110t-107 -46q-49 0 -87 28q-10 -14 -10 -34q0 -51 55 -51h81q195 0 195 -139q0 -56 -60.5 -95t-148.5 -39q-87 0 -147.5 39t-60.5 94q0 64 59 100q-25 32 -25 74q0 43 28 82
q-3 3 -9.5 13.5t-14.5 35t-8 48.5q0 64 44.5 110t108.5 46q51 0 90 -31q62 30 146 31zM290 282q0 54 -25 77.5t-57 23.5q-12 0 -24 -4t-26 -13.5t-22.5 -31t-8.5 -52.5q0 -54 25 -77.5t57 -23.5q12 0 24 4t26 13.5t22.5 31t8.5 52.5zM372 -72q0 68 -125 68h-81
q-19 0 -33.5 -7t-21 -15t-10 -19.5t-4 -16.5t-0.5 -9q0 -33 40 -55.5t98 -22.5q57 0 97 22.5t40 54.5zM335 694l-139 -176h-61l124 176h76z" />
    <glyph glyph-name="Aringacute" unicode="&#x1fa;" horiz-adv-x="625" 
d="M598 0h-87l-71 202h-268l-70 -202h-76l243 694h86zM421 258l-70 207q-37 111 -44 152h-1q-7 -43 -115 -359h230zM359 782q0 39 -47 39t-47 -39t47 -39t47 39zM417 782q0 -35 -30.5 -61.5t-74.5 -26.5t-74.5 26.5t-30.5 61.5t30.5 61.5t74.5 26.5t74.5 -26.5t30.5 -61.5z
M455 1027l-197 -122h-89l175 122h111z" />
    <glyph glyph-name="aringacute" unicode="&#x1fb;" horiz-adv-x="451" 
d="M386 0h-74v37q-61 -45 -154 -45q-55 0 -81.5 40.5t-26.5 81.5q0 59 69 92.5t191 37.5v38q0 47 -22 74t-60 27q-75 0 -140 -47l-6 66q69 40 147 40q68 0 112.5 -44.5t44.5 -114.5v-283zM310 132v62q-21 -1 -43.5 -3.5t-60 -9.5t-60.5 -24t-23 -41q0 -27 23.5 -45t60.5 -18
q44 0 73 19q30 18 30 60zM272 595q0 39 -47 39t-47 -39t47 -39t47 39zM330 595q0 -35 -30.5 -61.5t-74.5 -26.5t-74.5 26.5t-30.5 61.5t30.5 61.5t74.5 26.5t74.5 -26.5t30.5 -61.5zM368 840l-197 -122h-89l175 122h111z" />
    <glyph glyph-name="AEacute" unicode="&#x1fc;" horiz-adv-x="809" 
d="M769 0h-376v222h-206l-85 -222h-76l265 694h465v-65h-143q-6 0 -18 0.5t-18 0.5h-101v-239h254v-61h-254v-263q11 1 107 1l186 1v-69zM393 278v352h-50l-134 -352h184zM595 862l-197 -122h-89l175 122h111z" />
    <glyph glyph-name="aeacute" unicode="&#x1fd;" horiz-adv-x="679" 
d="M652 219h-275q1 -73 39.5 -119.5t92.5 -46.5q73 0 132 52l3 -37q3 -23 3 -27q-62 -49 -139 -49q-42 0 -80 18.5t-51 31t-21 21.5q-27 -36 -89 -55q-51 -16 -116 -16q-32 0 -55 14t-34 35.5t-15.5 40t-4.5 34.5q0 45 43 76t99 42.5t117 11.5v36q0 47 -22.5 74t-59.5 27
q-74 0 -141 -47l-6 66q67 40 148 40q86 0 133 -71q58 71 140 71q38 0 67 -13.5t45 -37.5t27 -47t14.5 -53t4.5 -43.5t1 -28.5zM585 274q-8 55 -34 81t-58 26q-34 0 -65 -29t-44 -78h201zM305 125q0 32 -2 50l-1 17q-187 -9 -187 -75q0 -26 23 -45t60 -19q10 0 21.5 1.5t34 7
t37 22t14.5 41.5zM472 694l-139 -176h-61l124 176h76z" />
    <glyph glyph-name="Oslashacute" unicode="&#x1fe;" horiz-adv-x="731" 
d="M678 346q0 -153 -93 -257.5t-220 -104.5q-63 0 -121 29l-15 6q-2 -1 -8 -11l-38 -72l-56 30l49 92q-60 51 -92 127t-32 161q0 152 92.5 258t220.5 106q72 0 137 -37l45 85l56 -30l-49 -92q124 -120 124 -290zM472 617q-51 32 -107 32q-93 0 -161 -82t-68 -221
q0 -138 72 -226zM594 346q0 141 -73 227l-263 -496q53 -32 107 -32q92 0 160.5 80t68.5 221zM557 862l-197 -122h-89l175 122h111z" />
    <glyph glyph-name="oslashacute" unicode="&#x1ff;" 
d="M442 214q0 -93 -61 -157.5t-147 -64.5q-40 0 -77 16l-65 -120l-54 30l67 123q-35 28 -56.5 74t-21.5 99q0 94 61 161t147 67q42 0 79 -17l63 118l54 -30l-66 -121q77 -72 77 -178zM284 371q-21 10 -49 10q-55 0 -93.5 -43t-38.5 -124q0 -70 34 -113zM366 214
q0 72 -34 117l-145 -269q23 -9 47 -9q54 0 93 41t39 120zM368 694l-139 -176h-61l124 176h76z" />
    <glyph glyph-name="Adblgrave" unicode="&#x200;" horiz-adv-x="625" 
d="M598 0h-87l-71 202h-268l-70 -202h-76l243 694h86zM421 258l-70 207q-37 111 -44 152h-1q-7 -43 -115 -359h230zM422 740h-61l-74 176h76zM265 740h-61l-74 176h76z" />
    <glyph glyph-name="adblgrave" unicode="&#x201;" horiz-adv-x="451" 
d="M386 0h-74v37q-61 -45 -154 -45q-55 0 -81.5 40.5t-26.5 81.5q0 59 69 92.5t191 37.5v38q0 47 -22 74t-60 27q-75 0 -140 -47l-6 66q69 40 147 40q68 0 112.5 -44.5t44.5 -114.5v-283zM310 132v62q-21 -1 -43.5 -3.5t-60 -9.5t-60.5 -24t-23 -41q0 -27 23.5 -45t60.5 -18
q44 0 73 19q30 18 30 60zM361 518h-61l-74 176h76zM204 518h-61l-74 176h76z" />
    <glyph glyph-name="Edblgrave" unicode="&#x204;" horiz-adv-x="561" 
d="M521 0h-433v692h420v-65h-171q-6 0 -18 0.5t-18 0.5h-129v-238h310v-61h-310v-262l134 1l215 1v-69zM416 740h-61l-74 176h76zM259 740h-61l-74 176h76z" />
    <glyph glyph-name="edblgrave" unicode="&#x205;" horiz-adv-x="418" 
d="M391 219h-290q2 -79 42.5 -122.5t93.5 -43.5q79 0 143 52l3 -37q3 -23 3 -27q-68 -49 -150 -49q-86 0 -146 66t-60 159q0 94 56.5 159.5t135.5 65.5q90 0 135 -73q34 -56 34 -150zM325 274q-5 30 -16.5 51.5t-23 32t-26.5 16t-22 6.5t-15 1q-40 0 -71.5 -31.5
t-41.5 -75.5h216zM345 518h-61l-74 176h76zM188 518h-61l-74 176h76z" />
    <glyph glyph-name="Idblgrave" unicode="&#x208;" horiz-adv-x="259" 
d="M171 0h-84v694h84v-694zM265 740h-61l-74 176h76zM108 740h-61l-74 176h76z" />
    <glyph glyph-name="idblgrave" unicode="&#x209;" horiz-adv-x="223" 
d="M148 0h-74v430h74v-430zM247 518h-61l-74 176h76zM90 518h-61l-74 176h76z" />
    <glyph glyph-name="Odblgrave" unicode="&#x20c;" horiz-adv-x="693" 
d="M640 346q0 -154 -87.5 -258t-206.5 -104t-206.5 104t-87.5 258q0 153 87 258.5t207 105.5t207 -105t87 -259zM556 359q0 131 -63 209.5t-147 78.5t-147 -78.5t-63 -209.5q0 -137 62 -224.5t148 -87.5q85 0 147.5 87t62.5 225zM482 740h-61l-74 176h76zM325 740h-61
l-74 176h76z" />
    <glyph glyph-name="odblgrave" unicode="&#x20d;" 
d="M442 214q0 -93 -61 -157.5t-147 -64.5q-85 0 -146 64t-61 158t61 161t147 67q85 0 146 -66.5t61 -161.5zM366 222q0 78 -39 118t-93 40q-52 0 -91.5 -39t-39.5 -119q0 -78 38 -123t93 -45q54 0 93 44t39 124zM371 518h-61l-74 176h76zM214 518h-61l-74 176h76z" />
    <glyph glyph-name="Rdblgrave" unicode="&#x210;" horiz-adv-x="606" 
d="M579 0h-84l-177 317h-147v-317h-82v694h224q104 0 172 -56t68 -130q0 -15 -3.5 -30.5t-16 -45.5t-48 -58t-89.5 -47l-2 -1zM474 508q0 51 -42.5 90.5t-129.5 39.5h-131v-260h131q89 0 130.5 40t41.5 90zM413 740h-61l-74 176h76zM256 740h-61l-74 176h76z" />
    <glyph glyph-name="rdblgrave" unicode="&#x211;" horiz-adv-x="320" 
d="M306 372q-67 -2 -112 -46t-45 -113v-213h-74v433h71v-80q58 83 160 85v-66zM296 518h-61l-74 176h76zM139 518h-61l-74 176h76z" />
    <glyph glyph-name="Udblgrave" unicode="&#x214;" horiz-adv-x="644" 
d="M555 233q0 -106 -68.5 -177.5t-163.5 -71.5t-165 71.5t-70 177.5v461h84v-463q0 -91 45 -141t107 -50t108.5 49.5t46.5 142.5v462h76v-461zM458 740h-61l-74 176h76zM301 740h-61l-74 176h76z" />
    <glyph glyph-name="udblgrave" unicode="&#x215;" horiz-adv-x="484" 
d="M409 0h-74v50q-63 -58 -165 -58q-51 0 -73.5 28t-22.5 88v322h76v-317q0 -35 13 -49t59 -14q47 0 79 26t32 78v276h76v-430zM378 518h-61l-74 176h76zM221 518h-61l-74 176h76z" />
    <glyph glyph-name="uni0218" unicode="&#x218;" horiz-adv-x="522" 
d="M469 191q0 -84 -60.5 -145.5t-150.5 -61.5q-120 0 -216 70l14 79q88 -81 201 -81q62 0 99 39.5t37 90.5q0 38 -21.5 71.5t-61.5 49.5q-12 5 -69 20q-35 9 -54 15t-43 20t-42 35q-50 56 -50 125q0 76 59.5 134t152.5 58q90 0 173 -49l-14 -80q-68 63 -159 63
q-62 0 -99 -35.5t-37 -81.5q0 -36 26 -70q17 -21 38.5 -30.5t63.5 -20.5q70 -19 100.5 -32.5t58.5 -44.5q54 -60 54 -138zM298 -129l-37 -113h-36l23 112h-22v72h72v-71z" />
    <glyph glyph-name="uni0219" unicode="&#x219;" horiz-adv-x="360" 
d="M338 124q0 -53 -35.5 -92.5t-118.5 -39.5q-84 0 -158 43l12 67q65 -47 145 -47q85 0 85 63q0 14 -6 25.5t-14 18t-23.5 12t-25 7.5l-28.5 6q-140 28 -140 129q0 36 14 62t38 39t49.5 19t54.5 6q72 0 135 -30l-12 -65q-63 35 -132 35q-77 0 -77 -57q0 -20 14 -34t26 -18
t23 -6q64 -13 83.5 -20t43.5 -26q47 -37 47 -97zM217 -129l-37 -113h-36l23 112h-22v72h72v-71z" />
    <glyph glyph-name="uni021A" unicode="&#x21a;" horiz-adv-x="641" 
d="M606 626h-125q-6 0 -18 0.5t-18 0.5h-83v-627h-84v627h-83q-6 0 -18 -0.5t-18 -0.5h-125v65h572v-65zM357 -129l-37 -113h-36l23 112h-22v72h72v-71z" />
    <glyph glyph-name="uni021B" unicode="&#x21b;" horiz-adv-x="340" 
d="M313 29q-71 -37 -140 -37q-79 0 -79 127v253h-77v58h79v123h71v-123h130v-58h-130v-236q0 -81 46 -81t84 33zM207 -129l-37 -113h-36l23 112h-22v72h72v-71z" />
    <glyph glyph-name="uni0237" unicode="&#x237;" horiz-adv-x="249" 
d="M174 -60q0 -64 -35 -103.5t-84 -39.5q-59 0 -113 34l20 61q28 -31 69 -31q27 0 48 15t21 55v499h74v-490z" />
    <glyph glyph-name="ereversed" unicode="&#x258;" horiz-adv-x="418" 
d="M391 217q0 -93 -60 -159t-146 -66q-82 0 -150 49l3 27q3 33 3 37q64 -52 143 -52q53 0 93.5 43.5t42.5 122.5h-290q0 94 34 150q45 73 135 73q79 0 135.5 -65.5t56.5 -159.5zM312 274q-10 44 -41.5 75.5t-71.5 31.5q-8 0 -15 -1t-22 -6.5t-26.5 -16t-23 -32t-16.5 -51.5
h216z" />
    <glyph glyph-name="schwa" unicode="&#x259;" horiz-adv-x="418" 
d="M391 217q0 -94 -56.5 -159.5t-135.5 -65.5q-90 0 -135 73q-34 56 -34 150h290q-2 79 -42.5 122.5t-93.5 43.5q-79 0 -143 -52l-3 37q-3 23 -3 27q68 49 150 49q86 0 146 -66t60 -159zM312 160h-216q5 -30 16.5 -51.5t23 -32t26.5 -16t22 -6.5t15 -1q40 0 71.5 31.5
t41.5 75.5z" />
    <glyph glyph-name="ringhalfright" unicode="&#x2be;" horiz-adv-x="331" 
d="M279 498q0 -57 -36 -99.5t-95 -42.5q-33 0 -53 7q-8 3 -23.5 12t-15.5 12v1l6 38q2 5 6 5q1 0 2 -1h2q36 -25 76 -25q38 0 55.5 28t17.5 64q0 40 -19.5 65.5t-51.5 25.5q-46 0 -85 -30h-1l-2 -1q-6 0 -6 6l-4 39q0 4 3 6q45 30 96 30q54 0 91 -41.5t37 -98.5z" />
    <glyph glyph-name="ringhalfleft" unicode="&#x2bf;" horiz-adv-x="331" 
d="M279 392q0 -4 -3 -6q-45 -30 -96 -30q-54 0 -91 41.5t-37 98.5t36 99.5t95 42.5q33 0 53 -7q8 -3 23.5 -12t15.5 -12v-1l-6 -38q-3 -5 -6 -5q-1 0 -3 1h-1q-36 25 -76 25q-38 0 -55.5 -28t-17.5 -64q0 -40 19.5 -65.5t51.5 -25.5q46 0 85 30h1q1 1 2 1q6 0 6 -6z" />
    <glyph glyph-name="circumflex" unicode="&#x2c6;" 
d="M390 520h-59l-96 123l-96 -123h-59l125 172h60z" />
    <glyph glyph-name="caron" unicode="&#x2c7;" 
d="M390 692l-125 -172h-60l-125 172h59l96 -123l96 123h59z" />
    <glyph glyph-name="breve" unicode="&#x2d8;" 
d="M396 703q-2 -86 -48.5 -139.5t-112.5 -53.5q-64 0 -111 53t-49 140h61q1 -57 30 -92t70 -35q39 0 68.5 34.5t30.5 92.5h61z" />
    <glyph glyph-name="dotaccent" unicode="&#x2d9;" horiz-adv-x="261" 
d="M173 564h-84v84h84v-84z" />
    <glyph glyph-name="ring" unicode="&#x2da;" horiz-adv-x="625" 
d="M359 595q0 39 -47 39t-47 -39t47 -39t47 39zM417 595q0 -35 -30.5 -61.5t-74.5 -26.5t-74.5 26.5t-30.5 61.5t30.5 61.5t74.5 26.5t74.5 -26.5t30.5 -61.5z" />
    <glyph glyph-name="ogonek" unicode="&#x2db;" 
d="M334 -187q-53 -25 -98 -25q-47 0 -72.5 25t-26.5 60q-2 37 22.5 71t64.5 56h63q-88 -50 -87 -104q1 -34 53 -38q29 -1 67 14z" />
    <glyph glyph-name="tilde" unicode="&#x2dc;" 
d="M392 665q-1 -55 -29.5 -86t-62.5 -31q-26 0 -73 33q-31 23 -53 23q-34 0 -34 -56h-61q1 55 29.5 86t62.5 31q26 0 73 -33q31 -23 53 -23q34 0 34 56h61z" />
    <glyph glyph-name="hungarumlaut" unicode="&#x2dd;" 
d="M234 694l-74 -176h-61l59 176h76zM391 694l-74 -176h-61l59 176h76z" />
    <glyph glyph-name="uni0300" unicode="&#x300;" horiz-adv-x="0" 
d="M-159 518h-61l-139 176h76z" />
    <glyph glyph-name="uni0301" unicode="&#x301;" horiz-adv-x="0" 
d="M-93 694l-139 -176h-61l124 176h76z" />
    <glyph glyph-name="uni0302" unicode="&#x302;" horiz-adv-x="0" 
d="M-71 520h-59l-96 123l-96 -123h-59l125 172h60z" />
    <glyph glyph-name="uni0303" unicode="&#x303;" horiz-adv-x="0" 
d="M-69 665q-1 -55 -29.5 -86t-62.5 -31q-26 0 -73 33q-31 23 -53 23q-34 0 -34 -56h-61q1 55 29.5 86t62.5 31q26 0 73 -33q31 -23 53 -23q34 0 34 56h61z" />
    <glyph glyph-name="uni0304" unicode="&#x304;" horiz-adv-x="0" 
d="M-56 574h-339v64h339v-64z" />
    <glyph glyph-name="uni0306" unicode="&#x306;" horiz-adv-x="0" 
d="M-65 703q-2 -86 -48.5 -139.5t-112.5 -53.5q-64 0 -111 53t-49 140h61q1 -57 30 -92t70 -35q39 0 68.5 34.5t30.5 92.5h61z" />
    <glyph glyph-name="uni0307" unicode="&#x307;" horiz-adv-x="0" 
d="M-183 564h-84v84h84v-84z" />
    <glyph glyph-name="uni0308" unicode="&#x308;" horiz-adv-x="0" 
d="M-258 569h-76v75h76v-75zM-118 569h-76v75h76v-75z" />
    <glyph glyph-name="uni0309" unicode="&#x309;" horiz-adv-x="0" 
d="M-136 640q0 -30 -25 -47l-4 -2q-32 -21 -45 -35t-13 -34v-20l-1 -1h-17v1v20q0 28 15 52.5t41 38.5q16 10 16 27q0 24 -15 34q-15 11 -48 11q-48 0 -75 -39h-1l-8 23v1q32 42 84 42q45 0 71 -19q25 -19 25 -53z" />
    <glyph glyph-name="uni030A" unicode="&#x30a;" horiz-adv-x="0" 
d="M-179 595q0 39 -47 39t-47 -39t47 -39t47 39zM-121 595q0 -35 -30.5 -61.5t-74.5 -26.5t-74.5 26.5t-30.5 61.5t30.5 61.5t74.5 26.5t74.5 -26.5t30.5 -61.5z" />
    <glyph glyph-name="uni030B" unicode="&#x30b;" horiz-adv-x="0" 
d="M-227 694l-74 -176h-61l59 176h76zM-70 694l-74 -176h-61l59 176h76z" />
    <glyph glyph-name="uni030C" unicode="&#x30c;" horiz-adv-x="0" 
d="M-71 692l-125 -172h-60l-125 172h59l96 -123l96 123h59z" />
    <glyph glyph-name="uni030F" unicode="&#x30f;" horiz-adv-x="0" 
d="M-90 518h-61l-74 176h76zM-247 518h-61l-74 176h76z" />
    <glyph glyph-name="uni0311" unicode="&#x311;" horiz-adv-x="0" 
d="M-65 510h-61q-1 57 -30 92t-70 35q-39 0 -68.5 -34.5t-30.5 -92.5h-61q2 86 48.5 139.5t112.5 53.5q64 0 111 -53t49 -140z" />
    <glyph glyph-name="uni0323" unicode="&#x323;" horiz-adv-x="0" 
d="M-183 -200h-84v84h84v-84z" />
    <glyph glyph-name="uni0326" unicode="&#x326;" horiz-adv-x="0" 
d="M-189 -129l-37 -113h-36l23 112h-22v72h72v-71z" />
    <glyph glyph-name="uni032E" unicode="&#x32e;" horiz-adv-x="0" 
d="M-65 -61q-2 -86 -48.5 -139.5t-112.5 -53.5q-64 0 -111 53t-49 140h61q1 -57 30 -92t70 -35q39 0 68.5 34.5t30.5 92.5h61z" />
    <glyph glyph-name="uni032F" unicode="&#x32f;" horiz-adv-x="0" 
d="M-65 -254h-61q-1 57 -30 92t-70 35q-39 0 -68.5 -34.5t-30.5 -92.5h-61q2 86 48.5 139.5t112.5 53.5q64 0 111 -53t49 -140z" />
    <glyph glyph-name="uni0330" unicode="&#x330;" horiz-adv-x="0" 
d="M-69 -99q-1 -55 -29.5 -86t-62.5 -31q-26 0 -73 33q-31 23 -53 23q-34 0 -34 -56h-61q1 55 29.5 86t62.5 31q26 0 73 -33q31 -23 53 -23q34 0 34 56h61z" />
    <glyph glyph-name="uni0331" unicode="&#x331;" horiz-adv-x="0" 
d="M-56 -190h-339v64h339v-64z" />
    <glyph glyph-name="uni0332" unicode="&#x332;" horiz-adv-x="0" 
d="M-56 -190h-339v64h339v-64z" />
    <glyph glyph-name="Alpha" unicode="&#x391;" horiz-adv-x="625" 
d="M598 0h-87l-71 202h-268l-70 -202h-76l243 694h86zM421 258l-70 207q-37 111 -44 152h-1q-7 -43 -115 -359h230z" />
    <glyph glyph-name="Beta" unicode="&#x392;" horiz-adv-x="626" 
d="M573 188q0 -75 -67.5 -131.5t-167.5 -56.5h-249v694h223q100 0 167.5 -52t67.5 -122q0 -19 -6.5 -38t-22 -41.5t-48.5 -43.5t-79 -34q85 -16 133.5 -65.5t48.5 -109.5zM469 519q0 50 -53.5 84.5t-130.5 34.5h-115v-247h106q90 0 141.5 39t51.5 89zM494 189
q0 56 -55.5 98.5t-135.5 42.5h-133v-274h140q80 0 132 40t52 93z" />
    <glyph glyph-name="Gamma" unicode="&#x393;" horiz-adv-x="509" 
d="M469 627h-152q-6 0 -18 0.5t-18 0.5h-109v-628h-84v692h381v-65z" />
    <glyph glyph-name="Delta" unicode="&#x394;" horiz-adv-x="784" 
d="M744 0h-705l308 694h89zM617 79l-145 328q-73 164 -88 213q-11 -37 -84 -206l-148 -335h465z" />
    <glyph glyph-name="Epsilon" unicode="&#x395;" horiz-adv-x="561" 
d="M521 0h-433v692h420v-65h-171q-6 0 -18 0.5t-18 0.5h-129v-238h310v-61h-310v-262l134 1l215 1v-69z" />
    <glyph glyph-name="Zeta" unicode="&#x396;" horiz-adv-x="575" 
d="M527 0h-475v43l364 589h-128q-6 0 -18 -0.5t-18 -0.5h-187v63h457v-41l-364 -589h30l250 2h89v-66z" />
    <glyph glyph-name="Eta" unicode="&#x397;" horiz-adv-x="663" 
d="M574 0h-84v330h-318v-330h-84v694h84v-303h318v303h84v-694z" />
    <glyph glyph-name="Theta" unicode="&#x398;" horiz-adv-x="731" 
d="M678 346q0 -153 -93 -257.5t-220 -104.5t-220 104.5t-93 257.5q0 152 92.5 258t220.5 106t220.5 -106t92.5 -258zM597 346q0 133 -68.5 218t-163.5 85t-163.5 -85t-68.5 -218q0 -134 69 -217t163 -83t163 83t69 217zM544 308h-358v79h358v-79z" />
    <glyph glyph-name="Iota" unicode="&#x399;" horiz-adv-x="259" 
d="M171 0h-84v694h84v-694z" />
    <glyph glyph-name="Kappa" unicode="&#x39a;" horiz-adv-x="651" 
d="M611 0h-93l-225 358l-121 -133v-225h-84v694h84v-363l330 363h96l-249 -275z" />
    <glyph glyph-name="Lambda" unicode="&#x39b;" horiz-adv-x="572" 
d="M545 0h-88l-91 295q-79 252 -87 321l-1 -1q-5 -42 -34 -140l-46 -158l-97 -317h-75l217 694h85z" />
    <glyph glyph-name="Mu" unicode="&#x39c;" horiz-adv-x="820" 
d="M729 0h-79v615h-1q-5 -26 -41 -133l-44 -131l-119 -335h-74l-132 377q-27 78 -44.5 133t-21.5 71l-4 16h-1v-613h-78v694h117l148 -420l29 -89q21 -68 25 -92h1q3 15 41 139l48 141l114 321h116v-694z" />
    <glyph glyph-name="Nu" unicode="&#x39d;" horiz-adv-x="663" 
d="M574 0h-123l-18 37l-214 465l-52 116l-1 -1v-617h-78v694h123l18 -37l214 -465l52 -116l1 1v617h78v-694z" />
    <glyph glyph-name="Xi" unicode="&#x39e;" horiz-adv-x="627" 
d="M582 620h-117l-152 1l-152 -1h-117v71h538v-71zM587 0h-548v71h119l155 -1l155 1h119v-71zM522 324h-418v70h418v-70z" />
    <glyph glyph-name="Omicron" unicode="&#x39f;" horiz-adv-x="693" 
d="M640 346q0 -154 -87.5 -258t-206.5 -104t-206.5 104t-87.5 258q0 153 87 258.5t207 105.5t207 -105t87 -259zM556 359q0 131 -63 209.5t-147 78.5t-147 -78.5t-63 -209.5q0 -137 62 -224.5t148 -87.5q85 0 147.5 87t62.5 225z" />
    <glyph glyph-name="Pi" unicode="&#x3a0;" horiz-adv-x="663" 
d="M574 0h-84v631h-318v-631h-84v692h486v-692z" />
    <glyph glyph-name="Rho" unicode="&#x3a1;" horiz-adv-x="600" 
d="M547 492q0 -83 -64 -143t-154 -60h-156v-289h-84v694h234q96 0 160 -59.5t64 -142.5zM468 492q0 60 -42.5 103t-124.5 43h-130v-291h130q83 0 125 43.5t42 101.5z" />
    <glyph glyph-name="Sigma" unicode="&#x3a3;" horiz-adv-x="679" 
d="M626 0h-574l216 337l-216 293v64h574v-65h-243q-6 0 -18 0.5t-18 0.5h-191l209 -283l-179 -279h179q6 0 18 0.5t18 0.5h225v-69z" />
    <glyph glyph-name="Tau" unicode="&#x3a4;" horiz-adv-x="641" 
d="M606 626h-125q-6 0 -18 0.5t-18 0.5h-83v-627h-84v627h-83q-6 0 -18 -0.5t-18 -0.5h-125v65h572v-65z" />
    <glyph glyph-name="Upsilon" unicode="&#x3a5;" horiz-adv-x="731" 
d="M678 555h-76q-1 42 -22.5 67t-53.5 25q-63 0 -91 -61.5t-28 -188.5v-397h-84v397q0 126 -27.5 188t-91.5 62q-32 0 -53.5 -25.5t-22.5 -66.5h-76q2 72 47.5 113.5t103.5 41.5q131 0 162 -206h1q30 206 161 206q58 0 103.5 -41.5t47.5 -113.5z" />
    <glyph glyph-name="Phi" unicode="&#x3a6;" horiz-adv-x="679" 
d="M626 347q0 -88 -68.5 -157.5t-179.5 -83.5v-106h-81v107q-105 12 -175 81.5t-70 158.5t70 158.5t175 81.5v107h81v-106q111 -14 179.5 -83.5t68.5 -157.5zM297 168v358q-79 -14 -121 -64t-42 -115t42 -115t121 -64zM544 347q0 63 -41 114.5t-125 64.5v-358
q83 13 124.5 64.5t41.5 114.5z" />
    <glyph glyph-name="Chi" unicode="&#x3a7;" horiz-adv-x="625" 
d="M611 0h-99l-207 305l-200 -305h-92l251 366l-238 328h99l180 -260l175 260h92l-226 -328z" />
    <glyph glyph-name="Psi" unicode="&#x3a8;" horiz-adv-x="731" 
d="M678 552q-33 -2 -48.5 -31.5t-15.5 -97.5q-2 -281 -210 -316v-107h-81v107q-73 11 -121 57.5t-66.5 107t-19.5 136.5q0 45 -4 73t-18.5 49t-41.5 22v61h70q45 0 60 -38.5t15 -155.5q0 -211 126 -248v523h81v-523q129 36 129 246q0 109 12 148q7 22 19 33.5t20.5 13
t23.5 1.5h70v-61z" />
    <glyph glyph-name="Omega" unicode="&#x3a9;" horiz-adv-x="679" 
d="M636 0h-231q1 56 17 105t55 133q65 140 65 222q0 84 -59 136.5t-144 52.5t-144 -52.5t-59 -136.5q0 -81 62 -215q41 -89 57.5 -139.5t17.5 -105.5h-231v68h78q6 0 18 -0.5t18 -0.5h48q-12 53 -81 181q-71 133 -71 213q0 104 83.5 176.5t203.5 72.5q119 0 203 -73t84 -176
q0 -83 -72 -215q-65 -116 -80 -179h48q6 0 18 0.5t18 0.5h78v-68z" />
    <glyph glyph-name="baht" unicode="&#xe3f;" horiz-adv-x="626" 
d="M573 188q0 -75 -67.5 -131.5t-167.5 -56.5h-1v-64h-64v64h-184v694h184v64h64v-65q91 -7 150.5 -57.5t59.5 -115.5q0 -19 -6.5 -38t-22 -41.5t-48.5 -43.5t-79 -34q85 -16 133.5 -65.5t48.5 -109.5zM469 519q0 40 -37 71.5t-95 42.5v-236q63 12 97.5 47t34.5 75zM273 391
v247h-103v-247h103zM494 189q0 50 -44.5 90t-112.5 49v-271q70 7 113.5 45.5t43.5 86.5zM273 56v274h-103v-274h103z" />
    <glyph glyph-name="Ddotbelow" unicode="&#x1e0c;" horiz-adv-x="678" 
d="M625 341q0 -141 -84 -241t-206 -100h-246v694h246q122 0 206 -103.5t84 -249.5zM543 341q0 130 -64.5 213.5t-165.5 83.5h-142v-582h142q101 0 165.5 80t64.5 205zM284 -200h-84v84h84v-84z" />
    <glyph glyph-name="ddotbelow" unicode="&#x1e0d;" horiz-adv-x="484" 
d="M408 0h-76v50q-66 -58 -139 -58q-67 0 -113.5 65t-46.5 158t47.5 158t115.5 65q78 0 138 -50v306h74v-694zM332 134v195q-34 48 -88 48q-51 0 -93 -39t-42 -124q0 -83 38.5 -122t86.5 -39q38 0 67 25q31 27 31 56zM284 -200h-84v84h84v-84z" />
    <glyph glyph-name="Dlinebelow" unicode="&#x1e0e;" horiz-adv-x="678" 
d="M625 341q0 -141 -84 -241t-206 -100h-246v694h246q122 0 206 -103.5t84 -249.5zM543 341q0 130 -64.5 213.5t-165.5 83.5h-142v-582h142q101 0 165.5 80t64.5 205zM412 -190h-339v64h339v-64z" />
    <glyph glyph-name="dlinebelow" unicode="&#x1e0f;" horiz-adv-x="484" 
d="M408 0h-76v50q-66 -58 -139 -58q-67 0 -113.5 65t-46.5 158t47.5 158t115.5 65q78 0 138 -50v306h74v-694zM332 134v195q-34 48 -88 48q-51 0 -93 -39t-42 -124q0 -83 38.5 -122t86.5 -39q38 0 67 25q31 27 31 56zM412 -190h-339v64h339v-64z" />
    <glyph glyph-name="Hdotbelow" unicode="&#x1e24;" horiz-adv-x="663" 
d="M574 0h-84v330h-318v-330h-84v694h84v-303h318v303h84v-694zM374 -200h-84v84h84v-84z" />
    <glyph glyph-name="hdotbelow" unicode="&#x1e25;" horiz-adv-x="484" 
d="M409 0h-76v284q0 17 -2 29.5t-10 29t-28 25.5t-51 9q-47 0 -69.5 -40t-22.5 -95v-242h-76v694h74v-321q55 65 133 65q128 0 128 -146v-292zM284 -200h-84v84h84v-84z" />
    <glyph glyph-name="Hdieresis" unicode="&#x1e26;" horiz-adv-x="663" 
d="M574 0h-84v330h-318v-330h-84v694h84v-303h318v303h84v-694zM287 730h-76v75h76v-75zM451 730h-76v75h76v-75z" />
    <glyph glyph-name="hdieresis" unicode="&#x1e27;" horiz-adv-x="484" 
d="M409 0h-76v284q0 17 -2 29.5t-10 29t-28 25.5t-51 9q-47 0 -69.5 -40t-22.5 -95v-242h-76v694h74v-321q55 65 133 65q128 0 128 -146v-292zM198 730h-76v75h76v-75zM362 730h-76v75h76v-75z" />
    <glyph glyph-name="Hbrevebelow" unicode="&#x1e2a;" horiz-adv-x="663" 
d="M574 0h-84v330h-318v-330h-84v694h84v-303h318v303h84v-694zM492 -61q-2 -86 -48.5 -139.5t-112.5 -53.5q-64 0 -111 53t-49 140h61q1 -57 30 -92t70 -35q39 0 68.5 34.5t30.5 92.5h61z" />
    <glyph glyph-name="hbrevebelow" unicode="&#x1e2b;" horiz-adv-x="484" 
d="M409 0h-76v284q0 17 -2 29.5t-10 29t-28 25.5t-51 9q-47 0 -69.5 -40t-22.5 -95v-242h-76v694h74v-321q55 65 133 65q128 0 128 -146v-292zM403 -61q-2 -86 -48.5 -139.5t-112.5 -53.5q-64 0 -111 53t-49 140h61q1 -57 30 -92t70 -35q39 0 68.5 34.5t30.5 92.5h61z" />
    <glyph glyph-name="Idieresisacute" unicode="&#x1e2e;" horiz-adv-x="259" 
d="M171 0h-84v694h84v-694zM85 730h-76v75h76v-75zM249 730h-76v75h76v-75zM320 973l-197 -122h-89l175 122h111z" />
    <glyph glyph-name="idieresisacute" unicode="&#x1e2f;" horiz-adv-x="223" 
d="M148 0h-74v430h74v-430zM79 569h-76v75h76v-75zM219 569h-76v75h76v-75zM302 823l-197 -122h-89l175 122h111z" />
    <glyph glyph-name="Ldotbelow" unicode="&#x1e36;" horiz-adv-x="509" 
d="M469 0h-381v694h84v-630h53q6 0 18 0.5t18 0.5h208v-65zM297 -200h-84v84h84v-84z" />
    <glyph glyph-name="ldotbelow" unicode="&#x1e37;" horiz-adv-x="223" 
d="M148 0h-74v694h74v-694zM154 -200h-84v84h84v-84z" />
    <glyph glyph-name="Ldotbelowmacron" unicode="&#x1e38;" horiz-adv-x="509" 
d="M469 0h-381v694h84v-630h53q6 0 18 0.5t18 0.5h208v-65zM297 -200h-84v84h84v-84zM300 750h-339v64h339v-64z" />
    <glyph glyph-name="ldotbelowmacron" unicode="&#x1e39;" horiz-adv-x="223" 
d="M148 0h-74v694h74v-694zM154 -200h-84v84h84v-84zM293 750h-339v64h339v-64z" />
    <glyph glyph-name="Mdotbelow" unicode="&#x1e42;" horiz-adv-x="820" 
d="M729 0h-79v615h-1q-5 -26 -41 -133l-44 -131l-119 -335h-74l-132 377q-27 78 -44.5 133t-21.5 71l-4 16h-1v-613h-78v694h117l148 -420l29 -89q21 -68 25 -92h1q3 15 41 139l48 141l114 321h116v-694zM452 -200h-84v84h84v-84z" />
    <glyph glyph-name="mdotbelow" unicode="&#x1e43;" horiz-adv-x="745" 
d="M670 0h-76v284q0 13 -0.5 21.5t-5.5 23.5t-13.5 24t-27 16.5t-44.5 7.5q-48 0 -70.5 -41t-22.5 -94v-242h-76v284q0 13 -0.5 21.5t-5.5 23.5t-13.5 24t-27 16.5t-44.5 7.5q-48 0 -70.5 -41t-22.5 -94v-242h-76v433h73v-62q55 67 134 67q94 0 120 -76q52 76 140 76
q129 0 129 -146v-292zM415 -200h-84v84h84v-84z" />
    <glyph glyph-name="Ndotaccent" unicode="&#x1e44;" horiz-adv-x="663" 
d="M574 0h-123l-18 37l-214 465l-52 116l-1 -1v-617h-78v694h123l18 -37l214 -465l52 -116l1 1v617h78v-694zM374 730h-84v84h84v-84z" />
    <glyph glyph-name="ndotaccent" unicode="&#x1e45;" horiz-adv-x="484" 
d="M409 0h-76v284q0 17 -2 29.5t-10 29t-28 25.5t-51 9q-47 0 -69.5 -40t-22.5 -95v-242h-76v433h73v-62q55 67 134 67q128 0 128 -146v-292zM284 564h-84v84h84v-84z" />
    <glyph glyph-name="Ndotbelow" unicode="&#x1e46;" horiz-adv-x="663" 
d="M574 0h-123l-18 37l-214 465l-52 116l-1 -1v-617h-78v694h123l18 -37l214 -465l52 -116l1 1v617h78v-694zM374 -200h-84v84h84v-84z" />
    <glyph glyph-name="ndotbelow" unicode="&#x1e47;" horiz-adv-x="484" 
d="M409 0h-76v284q0 17 -2 29.5t-10 29t-28 25.5t-51 9q-47 0 -69.5 -40t-22.5 -95v-242h-76v433h73v-62q55 67 134 67q128 0 128 -146v-292zM284 -200h-84v84h84v-84z" />
    <glyph glyph-name="Rdotaccent" unicode="&#x1e58;" horiz-adv-x="606" 
d="M579 0h-84l-177 317h-147v-317h-82v694h224q104 0 172 -56t68 -130q0 -15 -3.5 -30.5t-16 -45.5t-48 -58t-89.5 -47l-2 -1zM474 508q0 51 -42.5 90.5t-129.5 39.5h-131v-260h131q89 0 130.5 40t41.5 90zM346 730h-84v84h84v-84z" />
    <glyph glyph-name="rdotaccent" unicode="&#x1e59;" horiz-adv-x="320" 
d="M306 372q-67 -2 -112 -46t-45 -113v-213h-74v433h71v-80q58 83 160 85v-66zM203 564h-84v84h84v-84z" />
    <glyph glyph-name="Rdotbelow" unicode="&#x1e5a;" horiz-adv-x="606" 
d="M579 0h-84l-177 317h-147v-317h-82v694h224q104 0 172 -56t68 -130q0 -15 -3.5 -30.5t-16 -45.5t-48 -58t-89.5 -47l-2 -1zM474 508q0 51 -42.5 90.5t-129.5 39.5h-131v-260h131q89 0 130.5 40t41.5 90zM346 -200h-84v84h84v-84z" />
    <glyph glyph-name="rdotbelow" unicode="&#x1e5b;" horiz-adv-x="320" 
d="M306 372q-67 -2 -112 -46t-45 -113v-213h-74v433h71v-80q58 83 160 85v-66zM154 -200h-84v84h84v-84z" />
    <glyph glyph-name="Rdotbelowmacron" unicode="&#x1e5c;" horiz-adv-x="606" 
d="M579 0h-84l-177 317h-147v-317h-82v694h224q104 0 172 -56t68 -130q0 -15 -3.5 -30.5t-16 -45.5t-48 -58t-89.5 -47l-2 -1zM474 508q0 51 -42.5 90.5t-129.5 39.5h-131v-260h131q89 0 130.5 40t41.5 90zM346 -200h-84v84h84v-84zM473 750h-339v64h339v-64z" />
    <glyph glyph-name="rdotbelowmacron" unicode="&#x1e5d;" horiz-adv-x="320" 
d="M306 372q-67 -2 -112 -46t-45 -113v-213h-74v433h71v-80q58 83 160 85v-66zM154 -200h-84v84h84v-84zM330 574h-339v64h339v-64z" />
    <glyph glyph-name="Sdotbelow" unicode="&#x1e62;" horiz-adv-x="522" 
d="M469 191q0 -84 -60.5 -145.5t-150.5 -61.5q-120 0 -216 70l14 79q88 -81 201 -81q62 0 99 39.5t37 90.5q0 38 -21.5 71.5t-61.5 49.5q-12 5 -69 20q-35 9 -54 15t-43 20t-42 35q-50 56 -50 125q0 76 59.5 134t152.5 58q90 0 173 -49l-14 -80q-68 63 -159 63
q-62 0 -99 -35.5t-37 -81.5q0 -36 26 -70q17 -21 38.5 -30.5t63.5 -20.5q70 -19 100.5 -32.5t58.5 -44.5q54 -60 54 -138zM304 -200h-84v84h84v-84z" />
    <glyph glyph-name="sdotbelow" unicode="&#x1e63;" horiz-adv-x="360" 
d="M338 124q0 -53 -35.5 -92.5t-118.5 -39.5q-84 0 -158 43l12 67q65 -47 145 -47q85 0 85 63q0 14 -6 25.5t-14 18t-23.5 12t-25 7.5l-28.5 6q-140 28 -140 129q0 36 14 62t38 39t49.5 19t54.5 6q72 0 135 -30l-12 -65q-63 35 -132 35q-77 0 -77 -57q0 -20 14 -34t26 -18
t23 -6q64 -13 83.5 -20t43.5 -26q47 -37 47 -97zM223 -200h-84v84h84v-84z" />
    <glyph glyph-name="Tdotbelow" unicode="&#x1e6c;" horiz-adv-x="641" 
d="M606 626h-125q-6 0 -18 0.5t-18 0.5h-83v-627h-84v627h-83q-6 0 -18 -0.5t-18 -0.5h-125v65h572v-65zM363 -200h-84v84h84v-84z" />
    <glyph glyph-name="tdotbelow" unicode="&#x1e6d;" horiz-adv-x="340" 
d="M313 29q-71 -37 -140 -37q-79 0 -79 127v253h-77v58h79v123h71v-123h130v-58h-130v-236q0 -81 46 -81t84 33zM212 -200h-84v84h84v-84z" />
    <glyph glyph-name="Tlinebelow" unicode="&#x1e6e;" horiz-adv-x="641" 
d="M606 626h-125q-6 0 -18 0.5t-18 0.5h-83v-627h-84v627h-83q-6 0 -18 -0.5t-18 -0.5h-125v65h572v-65zM490 -190h-339v64h339v-64z" />
    <glyph glyph-name="tlinebelow" unicode="&#x1e6f;" horiz-adv-x="340" 
d="M313 29q-71 -37 -140 -37q-79 0 -79 127v253h-77v58h79v123h71v-123h130v-58h-130v-236q0 -81 46 -81t84 33zM340 -190h-339v64h339v-64z" />
    <glyph glyph-name="Wgrave" unicode="&#x1e80;" horiz-adv-x="886" 
d="M872 694l-190 -694h-87l-106 400q-48 180 -48 213h-1q-2 -30 -35 -165l-40 -159l-79 -289h-83l-190 694h86l77 -285l43 -173q32 -134 32 -156h1q4 44 33 164l40 159l79 291h84l83 -307l39 -158q28 -114 31 -148h1q2 24 33 152l37 150l84 311h76zM538 740h-89l-197 122
h111z" />
    <glyph glyph-name="wgrave" unicode="&#x1e81;" horiz-adv-x="641" 
d="M627 430l-130 -430h-88l-66 233q-26 91 -29 139q-3 -68 -95 -372h-76l-130 430h78l45 -153q48 -176 51 -219h1q2 50 46 201l50 171h69l51 -175q44 -148 47 -197h1q4 46 46 192l53 180h76zM387 518h-61l-139 176h76z" />
    <glyph glyph-name="Wacute" unicode="&#x1e82;" horiz-adv-x="886" 
d="M872 694l-190 -694h-87l-106 400q-48 180 -48 213h-1q-2 -30 -35 -165l-40 -159l-79 -289h-83l-190 694h86l77 -285l43 -173q32 -134 32 -156h1q4 44 33 164l40 159l79 291h84l83 -307l39 -158q28 -114 31 -148h1q2 24 33 152l37 150l84 311h76zM634 862l-197 -122h-89
l175 122h111z" />
    <glyph glyph-name="wacute" unicode="&#x1e83;" horiz-adv-x="641" 
d="M627 430l-130 -430h-88l-66 233q-26 91 -29 139q-3 -68 -95 -372h-76l-130 430h78l45 -153q48 -176 51 -219h1q2 50 46 201l50 171h69l51 -175q44 -148 47 -197h1q4 46 46 192l53 180h76zM453 694l-139 -176h-61l124 176h76z" />
    <glyph glyph-name="Wdieresis" unicode="&#x1e84;" horiz-adv-x="886" 
d="M872 694l-190 -694h-87l-106 400q-48 180 -48 213h-1q-2 -30 -35 -165l-40 -159l-79 -289h-83l-190 694h86l77 -285l43 -173q32 -134 32 -156h1q4 44 33 164l40 159l79 291h84l83 -307l39 -158q28 -114 31 -148h1q2 24 33 152l37 150l84 311h76zM399 730h-76v75h76v-75z
M563 730h-76v75h76v-75z" />
    <glyph glyph-name="wdieresis" unicode="&#x1e85;" horiz-adv-x="641" 
d="M627 430l-130 -430h-88l-66 233q-26 91 -29 139q-3 -68 -95 -372h-76l-130 430h78l45 -153q48 -176 51 -219h1q2 50 46 201l50 171h69l51 -175q44 -148 47 -197h1q4 46 46 192l53 180h76zM288 569h-76v75h76v-75zM428 569h-76v75h76v-75z" />
    <glyph glyph-name="Zdotbelow" unicode="&#x1e92;" horiz-adv-x="575" 
d="M527 0h-475v43l364 589h-128q-6 0 -18 -0.5t-18 -0.5h-187v63h457v-41l-364 -589h30l250 2h89v-66zM330 -200h-84v84h84v-84z" />
    <glyph glyph-name="zdotbelow" unicode="&#x1e93;" horiz-adv-x="408" 
d="M378 0h-352v41l247 330h-70q-6 0 -18 -0.5t-18 -0.5h-128v60h336v-39l-246 -330h77q6 0 18 0.5t18 0.5h136v-62zM247 -200h-84v84h84v-84z" />
    <glyph glyph-name="tdieresis" unicode="&#x1e97;" horiz-adv-x="340" 
d="M313 29q-71 -37 -140 -37q-79 0 -79 127v253h-77v58h79v123h71v-123h130v-58h-130v-236q0 -81 46 -81t84 33zM87 589h-76v75h76v-75zM251 589h-76v75h76v-75z" />
    <glyph glyph-name="Adotbelow" unicode="&#x1ea0;" horiz-adv-x="625" 
d="M598 0h-87l-71 202h-268l-70 -202h-76l243 694h86zM421 258l-70 207q-37 111 -44 152h-1q-7 -43 -115 -359h230zM355 -200h-84v84h84v-84z" />
    <glyph glyph-name="adotbelow" unicode="&#x1ea1;" horiz-adv-x="451" 
d="M386 0h-74v37q-61 -45 -154 -45q-55 0 -81.5 40.5t-26.5 81.5q0 59 69 92.5t191 37.5v38q0 47 -22 74t-60 27q-75 0 -140 -47l-6 66q69 40 147 40q68 0 112.5 -44.5t44.5 -114.5v-283zM310 132v62q-21 -1 -43.5 -3.5t-60 -9.5t-60.5 -24t-23 -41q0 -27 23.5 -45t60.5 -18
q44 0 73 19q30 18 30 60zM268 -200h-84v84h84v-84z" />
    <glyph glyph-name="Ahookabove" unicode="&#x1ea2;" horiz-adv-x="625" 
d="M598 0h-87l-71 202h-268l-70 -202h-76l243 694h86zM421 258l-70 207q-37 111 -44 152h-1q-7 -43 -115 -359h230zM402 869q0 -30 -25 -47l-4 -2q-32 -21 -45 -35t-13 -34v-20l-1 -1h-17v1v20q0 28 15 52.5t41 38.5q16 10 16 27q0 23 -15 34t-48 11q-48 0 -75 -39h-1l-8 23
v1q32 42 84 42q45 0 71 -19q25 -19 25 -53z" />
    <glyph glyph-name="ahookabove" unicode="&#x1ea3;" horiz-adv-x="451" 
d="M386 0h-74v37q-61 -45 -154 -45q-55 0 -81.5 40.5t-26.5 81.5q0 59 69 92.5t191 37.5v38q0 47 -22 74t-60 27q-75 0 -140 -47l-6 66q69 40 147 40q68 0 112.5 -44.5t44.5 -114.5v-283zM310 132v62q-21 -1 -43.5 -3.5t-60 -9.5t-60.5 -24t-23 -41q0 -27 23.5 -45t60.5 -18
q44 0 73 19q30 18 30 60zM315 640q0 -30 -25 -47l-4 -2q-32 -21 -45 -35t-13 -34v-20l-1 -1h-17v1v20q0 28 15 52.5t41 38.5q16 10 16 27q0 24 -15 34q-15 11 -48 11q-48 0 -75 -39h-1l-8 23v1q32 42 84 42q45 0 71 -19q25 -19 25 -53z" />
    <glyph glyph-name="Acircumflexacute" unicode="&#x1ea4;" horiz-adv-x="625" 
d="M598 0h-87l-71 202h-268l-70 -202h-76l243 694h86zM421 258l-70 207q-37 111 -44 152h-1q-7 -43 -115 -359h230zM468 730h-59l-97 97l-97 -97h-59l126 134h60zM455 1021l-197 -122h-89l175 122h111z" />
    <glyph glyph-name="acircumflexacute" unicode="&#x1ea5;" horiz-adv-x="451" 
d="M386 0h-74v37q-61 -45 -154 -45q-55 0 -81.5 40.5t-26.5 81.5q0 59 69 92.5t191 37.5v38q0 47 -22 74t-60 27q-75 0 -140 -47l-6 66q69 40 147 40q68 0 112.5 -44.5t44.5 -114.5v-283zM310 132v62q-21 -1 -43.5 -3.5t-60 -9.5t-60.5 -24t-23 -41q0 -27 23.5 -45t60.5 -18
q44 0 73 19q30 18 30 60zM381 520h-59l-97 97l-97 -97h-59l126 134h60zM368 811l-197 -122h-89l175 122h111z" />
    <glyph glyph-name="Acircumflexgrave" unicode="&#x1ea6;" horiz-adv-x="625" 
d="M598 0h-87l-71 202h-268l-70 -202h-76l243 694h86zM421 258l-70 207q-37 111 -44 152h-1q-7 -43 -115 -359h230zM468 730h-59l-97 97l-97 -97h-59l126 134h60zM455 899l-175 122h-111l197 -122h89z" />
    <glyph glyph-name="acircumflexgrave" unicode="&#x1ea7;" horiz-adv-x="451" 
d="M386 0h-74v37q-61 -45 -154 -45q-55 0 -81.5 40.5t-26.5 81.5q0 59 69 92.5t191 37.5v38q0 47 -22 74t-60 27q-75 0 -140 -47l-6 66q69 40 147 40q68 0 112.5 -44.5t44.5 -114.5v-283zM310 132v62q-21 -1 -43.5 -3.5t-60 -9.5t-60.5 -24t-23 -41q0 -27 23.5 -45t60.5 -18
q44 0 73 19q30 18 30 60zM381 520h-59l-97 97l-97 -97h-59l126 134h60zM368 689l-175 122h-111l197 -122h89z" />
    <glyph glyph-name="Acircumflexhookabove" unicode="&#x1ea8;" horiz-adv-x="625" 
d="M598 0h-87l-71 202h-268l-70 -202h-76l243 694h86zM421 258l-70 207q-37 111 -44 152h-1q-7 -43 -115 -359h230zM468 730h-59l-97 97l-97 -97h-59l126 134h60zM492 1018q0 -30 -25 -47l-4 -2q-32 -21 -45 -35t-13 -34v-20l-1 -1h-17v1v20q0 28 15 52.5t41 38.5
q16 10 16 27q0 24 -15 34q-15 11 -48 11q-48 0 -75 -39h-1l-8 23v1q32 42 84 42q45 0 71 -19q25 -19 25 -53z" />
    <glyph glyph-name="acircumflexhookabove" unicode="&#x1ea9;" horiz-adv-x="451" 
d="M386 0h-74v37q-61 -45 -154 -45q-55 0 -81.5 40.5t-26.5 81.5q0 59 69 92.5t191 37.5v38q0 47 -22 74t-60 27q-75 0 -140 -47l-6 66q69 40 147 40q68 0 112.5 -44.5t44.5 -114.5v-283zM310 132v62q-21 -1 -43.5 -3.5t-60 -9.5t-60.5 -24t-23 -41q0 -27 23.5 -45t60.5 -18
q44 0 73 19q30 18 30 60zM381 520h-59l-97 97l-97 -97h-59l126 134h60zM405 808q0 -30 -25 -47l-4 -2q-32 -21 -45 -35t-13 -34v-20l-1 -1h-17v1v20q0 28 15 52.5t41 38.5q16 10 16 27q0 24 -15 34q-15 11 -48 11q-48 0 -75 -39h-1l-8 23v1q32 42 84 42q45 0 71 -19
q25 -19 25 -53z" />
    <glyph glyph-name="Acircumflextilde" unicode="&#x1eaa;" horiz-adv-x="625" 
d="M598 0h-87l-71 202h-268l-70 -202h-76l243 694h86zM421 258l-70 207q-37 111 -44 152h-1q-7 -43 -115 -359h230zM468 730h-59l-97 97l-97 -97h-59l126 134h60zM469 1036q-1 -55 -29.5 -86t-62.5 -31q-26 0 -73 33q-31 23 -53 23q-34 0 -34 -56h-61q1 55 29.5 86t62.5 31
q26 0 73 -33q31 -23 53 -23q34 0 34 56h61z" />
    <glyph glyph-name="acircumflextilde" unicode="&#x1eab;" horiz-adv-x="451" 
d="M386 0h-74v37q-61 -45 -154 -45q-55 0 -81.5 40.5t-26.5 81.5q0 59 69 92.5t191 37.5v38q0 47 -22 74t-60 27q-75 0 -140 -47l-6 66q69 40 147 40q68 0 112.5 -44.5t44.5 -114.5v-283zM310 132v62q-21 -1 -43.5 -3.5t-60 -9.5t-60.5 -24t-23 -41q0 -27 23.5 -45t60.5 -18
q44 0 73 19q30 18 30 60zM381 520h-59l-97 97l-97 -97h-59l126 134h60zM382 826q-1 -55 -29.5 -86t-62.5 -31q-26 0 -73 33q-31 23 -53 23q-34 0 -34 -56h-61q1 55 29.5 86t62.5 31q26 0 73 -33q31 -23 53 -23q34 0 34 56h61z" />
    <glyph glyph-name="Acircumflexdotbelow" unicode="&#x1eac;" horiz-adv-x="625" 
d="M598 0h-87l-71 202h-268l-70 -202h-76l243 694h86zM421 258l-70 207q-37 111 -44 152h-1q-7 -43 -115 -359h230zM468 730h-59l-97 97l-97 -97h-59l126 134h60zM355 -200h-84v84h84v-84z" />
    <glyph glyph-name="acircumflexdotbelow" unicode="&#x1ead;" horiz-adv-x="451" 
d="M386 0h-74v37q-61 -45 -154 -45q-55 0 -81.5 40.5t-26.5 81.5q0 59 69 92.5t191 37.5v38q0 47 -22 74t-60 27q-75 0 -140 -47l-6 66q69 40 147 40q68 0 112.5 -44.5t44.5 -114.5v-283zM310 132v62q-21 -1 -43.5 -3.5t-60 -9.5t-60.5 -24t-23 -41q0 -27 23.5 -45t60.5 -18
q44 0 73 19q30 18 30 60zM380 520h-59l-96 123l-96 -123h-59l125 172h60zM268 -200h-84v84h84v-84z" />
    <glyph glyph-name="Abreveacute" unicode="&#x1eae;" horiz-adv-x="625" 
d="M598 0h-87l-71 202h-268l-70 -202h-76l243 694h86zM421 258l-70 207q-37 111 -44 152h-1q-7 -43 -115 -359h230zM473 933q-2 -86 -48.5 -139.5t-112.5 -53.5q-64 0 -111 53t-49 140h61q1 -57 30 -92t70 -35q39 0 68.5 34.5t30.5 92.5h61zM456 1090l-197 -122h-89l175 122
h111z" />
    <glyph glyph-name="abreveacute" unicode="&#x1eaf;" horiz-adv-x="451" 
d="M386 0h-74v37q-61 -45 -154 -45q-55 0 -81.5 40.5t-26.5 81.5q0 59 69 92.5t191 37.5v38q0 47 -22 74t-60 27q-75 0 -140 -47l-6 66q69 40 147 40q68 0 112.5 -44.5t44.5 -114.5v-283zM310 132v62q-21 -1 -43.5 -3.5t-60 -9.5t-60.5 -24t-23 -41q0 -27 23.5 -45t60.5 -18
q44 0 73 19q30 18 30 60zM386 703q-2 -86 -48.5 -139.5t-112.5 -53.5q-64 0 -111 53t-49 140h61q1 -57 30 -92t70 -35q39 0 68.5 34.5t30.5 92.5h61zM369 860l-197 -122h-89l175 122h111z" />
    <glyph glyph-name="Abrevegrave" unicode="&#x1eb0;" horiz-adv-x="625" 
d="M598 0h-87l-71 202h-268l-70 -202h-76l243 694h86zM421 258l-70 207q-37 111 -44 152h-1q-7 -43 -115 -359h230zM473 933q-2 -86 -48.5 -139.5t-112.5 -53.5q-64 0 -111 53t-49 140h61q1 -57 30 -92t70 -35q39 0 68.5 34.5t30.5 92.5h61zM455 968l-175 122h-111l197 -122
h89z" />
    <glyph glyph-name="abrevegrave" unicode="&#x1eb1;" horiz-adv-x="451" 
d="M386 0h-74v37q-61 -45 -154 -45q-55 0 -81.5 40.5t-26.5 81.5q0 59 69 92.5t191 37.5v38q0 47 -22 74t-60 27q-75 0 -140 -47l-6 66q69 40 147 40q68 0 112.5 -44.5t44.5 -114.5v-283zM310 132v62q-21 -1 -43.5 -3.5t-60 -9.5t-60.5 -24t-23 -41q0 -27 23.5 -45t60.5 -18
q44 0 73 19q30 18 30 60zM386 703q-2 -86 -48.5 -139.5t-112.5 -53.5q-64 0 -111 53t-49 140h61q1 -57 30 -92t70 -35q39 0 68.5 34.5t30.5 92.5h61zM368 738l-175 122h-111l197 -122h89z" />
    <glyph glyph-name="Abrevehookabove" unicode="&#x1eb2;" horiz-adv-x="625" 
d="M598 0h-87l-71 202h-268l-70 -202h-76l243 694h86zM421 258l-70 207q-37 111 -44 152h-1q-7 -43 -115 -359h230zM473 933q-2 -86 -48.5 -139.5t-112.5 -53.5q-64 0 -111 53t-49 140h61q1 -57 30 -92t70 -35q39 0 68.5 34.5t30.5 92.5h61zM403 1087q0 -30 -25 -47l-4 -2
q-32 -21 -45 -35t-13 -34v-20l-1 -1h-17v1v20q0 28 15 52.5t41 38.5q16 10 16 27q0 23 -15 34t-48 11q-48 0 -75 -39h-1l-8 23v1q32 42 84 42q45 0 71 -19q25 -19 25 -53z" />
    <glyph glyph-name="abrevehookabove" unicode="&#x1eb3;" horiz-adv-x="451" 
d="M386 0h-74v37q-61 -45 -154 -45q-55 0 -81.5 40.5t-26.5 81.5q0 59 69 92.5t191 37.5v38q0 47 -22 74t-60 27q-75 0 -140 -47l-6 66q69 40 147 40q68 0 112.5 -44.5t44.5 -114.5v-283zM310 132v62q-21 -1 -43.5 -3.5t-60 -9.5t-60.5 -24t-23 -41q0 -27 23.5 -45t60.5 -18
q44 0 73 19q30 18 30 60zM386 703q-2 -86 -48.5 -139.5t-112.5 -53.5q-64 0 -111 53t-49 140h61q1 -57 30 -92t70 -35q39 0 68.5 34.5t30.5 92.5h61zM316 857q0 -30 -25 -47l-4 -2q-32 -21 -45 -35t-13 -34v-20l-1 -1h-17v1v20q0 28 15 52.5t41 38.5q16 10 16 27
q0 23 -15 34t-48 11q-48 0 -75 -39h-1l-8 23v1q32 42 84 42q45 0 71 -19q25 -19 25 -53z" />
    <glyph glyph-name="Abrevetilde" unicode="&#x1eb4;" horiz-adv-x="625" 
d="M598 0h-87l-71 202h-268l-70 -202h-76l243 694h86zM421 258l-70 207q-37 111 -44 152h-1q-7 -43 -115 -359h230zM473 933q-2 -86 -48.5 -139.5t-112.5 -53.5q-64 0 -111 53t-49 140h61q1 -57 30 -92t70 -35q39 0 68.5 34.5t30.5 92.5h61zM469 1105q-1 -55 -29.5 -86
t-62.5 -31q-26 0 -73 33q-31 23 -53 23q-34 0 -34 -56h-61q1 55 29.5 86t62.5 31q26 0 73 -33q31 -23 53 -23q34 0 34 56h61z" />
    <glyph glyph-name="abrevetilde" unicode="&#x1eb5;" horiz-adv-x="451" 
d="M386 0h-74v37q-61 -45 -154 -45q-55 0 -81.5 40.5t-26.5 81.5q0 59 69 92.5t191 37.5v38q0 47 -22 74t-60 27q-75 0 -140 -47l-6 66q69 40 147 40q68 0 112.5 -44.5t44.5 -114.5v-283zM310 132v62q-21 -1 -43.5 -3.5t-60 -9.5t-60.5 -24t-23 -41q0 -27 23.5 -45t60.5 -18
q44 0 73 19q30 18 30 60zM386 703q-2 -86 -48.5 -139.5t-112.5 -53.5q-64 0 -111 53t-49 140h61q1 -57 30 -92t70 -35q39 0 68.5 34.5t30.5 92.5h61zM382 875q-1 -55 -29.5 -86t-62.5 -31q-26 0 -73 33q-31 23 -53 23q-34 0 -34 -56h-61q1 55 29.5 86t62.5 31q26 0 73 -33
q31 -23 53 -23q34 0 34 56h61z" />
    <glyph glyph-name="Abrevedotbelow" unicode="&#x1eb6;" horiz-adv-x="625" 
d="M598 0h-87l-71 202h-268l-70 -202h-76l243 694h86zM421 258l-70 207q-37 111 -44 152h-1q-7 -43 -115 -359h230zM473 933q-2 -86 -48.5 -139.5t-112.5 -53.5q-64 0 -111 53t-49 140h61q1 -57 30 -92t70 -35q39 0 68.5 34.5t30.5 92.5h61zM355 -200h-84v84h84v-84z" />
    <glyph glyph-name="abrevedotbelow" unicode="&#x1eb7;" horiz-adv-x="451" 
d="M386 0h-74v37q-61 -45 -154 -45q-55 0 -81.5 40.5t-26.5 81.5q0 59 69 92.5t191 37.5v38q0 47 -22 74t-60 27q-75 0 -140 -47l-6 66q69 40 147 40q68 0 112.5 -44.5t44.5 -114.5v-283zM310 132v62q-21 -1 -43.5 -3.5t-60 -9.5t-60.5 -24t-23 -41q0 -27 23.5 -45t60.5 -18
q44 0 73 19q30 18 30 60zM386 703q-2 -86 -48.5 -139.5t-112.5 -53.5q-64 0 -111 53t-49 140h61q1 -57 30 -92t70 -35q39 0 68.5 34.5t30.5 92.5h61zM268 -200h-84v84h84v-84z" />
    <glyph glyph-name="Edotbelow" unicode="&#x1eb8;" horiz-adv-x="561" 
d="M521 0h-433v692h420v-65h-171q-6 0 -18 0.5t-18 0.5h-129v-238h310v-61h-310v-262l134 1l215 1v-69zM323 -200h-84v84h84v-84z" />
    <glyph glyph-name="edotbelow" unicode="&#x1eb9;" horiz-adv-x="418" 
d="M391 219h-290q2 -79 42.5 -122.5t93.5 -43.5q79 0 143 52l3 -37q3 -23 3 -27q-68 -49 -150 -49q-86 0 -146 66t-60 159q0 94 56.5 159.5t135.5 65.5q90 0 135 -73q34 -56 34 -150zM325 274q-5 30 -16.5 51.5t-23 32t-26.5 16t-22 6.5t-15 1q-40 0 -71.5 -31.5
t-41.5 -75.5h216zM251 -200h-84v84h84v-84z" />
    <glyph glyph-name="Ehookabove" unicode="&#x1eba;" horiz-adv-x="561" 
d="M521 0h-433v692h420v-65h-171q-6 0 -18 0.5t-18 0.5h-129v-238h310v-61h-310v-262l134 1l215 1v-69zM370 869q0 -30 -25 -47l-4 -2q-32 -21 -45 -35t-13 -34v-20l-1 -1h-17v1v20q0 28 15 52.5t41 38.5q16 10 16 27q0 23 -15 34t-48 11q-48 0 -75 -39h-1l-8 23v1
q32 42 84 42q45 0 71 -19q25 -19 25 -53z" />
    <glyph glyph-name="ehookabove" unicode="&#x1ebb;" horiz-adv-x="418" 
d="M391 219h-290q2 -79 42.5 -122.5t93.5 -43.5q79 0 143 52l3 -37q3 -23 3 -27q-68 -49 -150 -49q-86 0 -146 66t-60 159q0 94 56.5 159.5t135.5 65.5q90 0 135 -73q34 -56 34 -150zM325 274q-5 30 -16.5 51.5t-23 32t-26.5 16t-22 6.5t-15 1q-40 0 -71.5 -31.5
t-41.5 -75.5h216zM299 640q0 -30 -25 -47l-4 -2q-32 -21 -45 -35t-13 -34v-20l-1 -1h-17v1v20q0 28 15 52.5t41 38.5q16 10 16 27q0 24 -15 34q-15 11 -48 11q-48 0 -75 -39h-1l-8 23v1q32 42 84 42q45 0 71 -19q25 -19 25 -53z" />
    <glyph glyph-name="Etilde" unicode="&#x1ebc;" horiz-adv-x="561" 
d="M521 0h-433v692h420v-65h-171q-6 0 -18 0.5t-18 0.5h-129v-238h310v-61h-310v-262l134 1l215 1v-69zM437 847q-1 -55 -29.5 -86t-62.5 -31q-26 0 -73 33q-31 23 -53 23q-34 0 -34 -56h-61q1 55 29.5 86t62.5 31q26 0 73 -33q31 -23 53 -23q34 0 34 56h61z" />
    <glyph glyph-name="etilde" unicode="&#x1ebd;" horiz-adv-x="418" 
d="M391 219h-290q2 -79 42.5 -122.5t93.5 -43.5q79 0 143 52l3 -37q3 -23 3 -27q-68 -49 -150 -49q-86 0 -146 66t-60 159q0 94 56.5 159.5t135.5 65.5q90 0 135 -73q34 -56 34 -150zM325 274q-5 30 -16.5 51.5t-23 32t-26.5 16t-22 6.5t-15 1q-40 0 -71.5 -31.5
t-41.5 -75.5h216zM366 665q-1 -55 -29.5 -86t-62.5 -31q-26 0 -73 33q-31 23 -53 23q-34 0 -34 -56h-61q1 55 29.5 86t62.5 31q26 0 73 -33q31 -23 53 -23q34 0 34 56h61z" />
    <glyph glyph-name="Ecircumflexacute" unicode="&#x1ebe;" horiz-adv-x="561" 
d="M521 0h-433v692h420v-65h-171q-6 0 -18 0.5t-18 0.5h-129v-238h310v-61h-310v-262l134 1l215 1v-69zM436 730h-59l-97 97l-97 -97h-59l126 134h60zM423 1021l-197 -122h-89l175 122h111z" />
    <glyph glyph-name="ecircumflexacute" unicode="&#x1ebf;" horiz-adv-x="418" 
d="M391 219h-290q2 -79 42.5 -122.5t93.5 -43.5q79 0 143 52l3 -37q3 -23 3 -27q-68 -49 -150 -49q-86 0 -146 66t-60 159q0 94 56.5 159.5t135.5 65.5q90 0 135 -73q34 -56 34 -150zM325 274q-5 30 -16.5 51.5t-23 32t-26.5 16t-22 6.5t-15 1q-40 0 -71.5 -31.5
t-41.5 -75.5h216zM365 520h-59l-97 97l-97 -97h-59l126 134h60zM352 811l-197 -122h-89l175 122h111z" />
    <glyph glyph-name="Ecircumflexgrave" unicode="&#x1ec0;" horiz-adv-x="561" 
d="M521 0h-433v692h420v-65h-171q-6 0 -18 0.5t-18 0.5h-129v-238h310v-61h-310v-262l134 1l215 1v-69zM436 730h-59l-97 97l-97 -97h-59l126 134h60zM423 899l-175 122h-111l197 -122h89z" />
    <glyph glyph-name="ecircumflexgrave" unicode="&#x1ec1;" horiz-adv-x="418" 
d="M391 219h-290q2 -79 42.5 -122.5t93.5 -43.5q79 0 143 52l3 -37q3 -23 3 -27q-68 -49 -150 -49q-86 0 -146 66t-60 159q0 94 56.5 159.5t135.5 65.5q90 0 135 -73q34 -56 34 -150zM325 274q-5 30 -16.5 51.5t-23 32t-26.5 16t-22 6.5t-15 1q-40 0 -71.5 -31.5
t-41.5 -75.5h216zM365 520h-59l-97 97l-97 -97h-59l126 134h60zM352 689l-175 122h-111l197 -122h89z" />
    <glyph glyph-name="Ecircumflexhookabove" unicode="&#x1ec2;" horiz-adv-x="561" 
d="M521 0h-433v692h420v-65h-171q-6 0 -18 0.5t-18 0.5h-129v-238h310v-61h-310v-262l134 1l215 1v-69zM436 730h-59l-97 97l-97 -97h-59l126 134h60zM460 1018q0 -30 -25 -47l-4 -2q-32 -21 -45 -35t-13 -34v-20l-1 -1h-17v1v20q0 28 15 52.5t41 38.5q16 10 16 27
q0 24 -15 34q-15 11 -48 11q-48 0 -75 -39h-1l-8 23v1q32 42 84 42q45 0 71 -19q25 -19 25 -53z" />
    <glyph glyph-name="ecircumflexhookabove" unicode="&#x1ec3;" horiz-adv-x="418" 
d="M391 219h-290q2 -79 42.5 -122.5t93.5 -43.5q79 0 143 52l3 -37q3 -23 3 -27q-68 -49 -150 -49q-86 0 -146 66t-60 159q0 94 56.5 159.5t135.5 65.5q90 0 135 -73q34 -56 34 -150zM325 274q-5 30 -16.5 51.5t-23 32t-26.5 16t-22 6.5t-15 1q-40 0 -71.5 -31.5
t-41.5 -75.5h216zM365 520h-59l-97 97l-97 -97h-59l126 134h60zM389 808q0 -30 -25 -47l-4 -2q-32 -21 -45 -35t-13 -34v-20l-1 -1h-17v1v20q0 28 15 52.5t41 38.5q16 10 16 27q0 24 -15 34q-15 11 -48 11q-48 0 -75 -39h-1l-8 23v1q32 42 84 42q45 0 71 -19q25 -19 25 -53z
" />
    <glyph glyph-name="Ecircumflextilde" unicode="&#x1ec4;" horiz-adv-x="561" 
d="M521 0h-433v692h420v-65h-171q-6 0 -18 0.5t-18 0.5h-129v-238h310v-61h-310v-262l134 1l215 1v-69zM436 730h-59l-97 97l-97 -97h-59l126 134h60zM437 1036q-1 -55 -29.5 -86t-62.5 -31q-26 0 -73 33q-31 23 -53 23q-34 0 -34 -56h-61q1 55 29.5 86t62.5 31q26 0 73 -33
q31 -23 53 -23q34 0 34 56h61z" />
    <glyph glyph-name="ecircumflextilde" unicode="&#x1ec5;" horiz-adv-x="418" 
d="M391 219h-290q2 -79 42.5 -122.5t93.5 -43.5q79 0 143 52l3 -37q3 -23 3 -27q-68 -49 -150 -49q-86 0 -146 66t-60 159q0 94 56.5 159.5t135.5 65.5q90 0 135 -73q34 -56 34 -150zM325 274q-5 30 -16.5 51.5t-23 32t-26.5 16t-22 6.5t-15 1q-40 0 -71.5 -31.5
t-41.5 -75.5h216zM365 520h-59l-97 97l-97 -97h-59l126 134h60zM366 826q-1 -55 -29.5 -86t-62.5 -31q-26 0 -73 33q-31 23 -53 23q-34 0 -34 -56h-61q1 55 29.5 86t62.5 31q26 0 73 -33q31 -23 53 -23q34 0 34 56h61z" />
    <glyph glyph-name="Ecircumflexdotbelow" unicode="&#x1ec6;" horiz-adv-x="561" 
d="M521 0h-433v692h420v-65h-171q-6 0 -18 0.5t-18 0.5h-129v-238h310v-61h-310v-262l134 1l215 1v-69zM436 730h-59l-97 97l-97 -97h-59l126 134h60zM323 -200h-84v84h84v-84z" />
    <glyph glyph-name="ecircumflexdotbelow" unicode="&#x1ec7;" horiz-adv-x="418" 
d="M391 219h-290q2 -79 42.5 -122.5t93.5 -43.5q79 0 143 52l3 -37q3 -23 3 -27q-68 -49 -150 -49q-86 0 -146 66t-60 159q0 94 56.5 159.5t135.5 65.5q90 0 135 -73q34 -56 34 -150zM325 274q-5 30 -16.5 51.5t-23 32t-26.5 16t-22 6.5t-15 1q-40 0 -71.5 -31.5
t-41.5 -75.5h216zM364 520h-59l-96 123l-96 -123h-59l125 172h60zM251 -200h-84v84h84v-84z" />
    <glyph glyph-name="Ihookabove" unicode="&#x1ec8;" horiz-adv-x="259" 
d="M171 0h-84v694h84v-694zM219 869q0 -30 -25 -47l-4 -2q-32 -21 -45 -35t-13 -34v-20l-1 -1h-17v1v20q0 28 15 52.5t41 38.5q16 10 16 27q0 23 -15 34t-48 11q-48 0 -75 -39h-1l-8 23v1q32 42 84 42q45 0 71 -19q25 -19 25 -53z" />
    <glyph glyph-name="ihookabove" unicode="&#x1ec9;" horiz-adv-x="223" 
d="M148 0h-74v430h74v-430zM201 640q0 -30 -25 -47l-4 -2q-32 -21 -45 -35t-13 -34v-20l-1 -1h-17v1v20q0 28 15 52.5t41 38.5q16 10 16 27q0 24 -15 34q-15 11 -48 11q-48 0 -75 -39h-1l-8 23v1q32 42 84 42q45 0 71 -19q25 -19 25 -53z" />
    <glyph glyph-name="Idotbelow" unicode="&#x1eca;" horiz-adv-x="259" 
d="M171 0h-84v694h84v-694zM172 -200h-84v84h84v-84z" />
    <glyph glyph-name="idotbelow" unicode="&#x1ecb;" horiz-adv-x="223" 
d="M148 0h-74v430h74v-430zM154 564h-84v84h84v-84zM154 -200h-84v84h84v-84z" />
    <glyph glyph-name="Odotbelow" unicode="&#x1ecc;" horiz-adv-x="693" 
d="M640 346q0 -154 -87.5 -258t-206.5 -104t-206.5 104t-87.5 258q0 153 87 258.5t207 105.5t207 -105t87 -259zM556 359q0 131 -63 209.5t-147 78.5t-147 -78.5t-63 -209.5q0 -137 62 -224.5t148 -87.5q85 0 147.5 87t62.5 225zM389 -200h-84v84h84v-84z" />
    <glyph glyph-name="odotbelow" unicode="&#x1ecd;" 
d="M442 214q0 -93 -61 -157.5t-147 -64.5q-85 0 -146 64t-61 158t61 161t147 67q85 0 146 -66.5t61 -161.5zM366 222q0 78 -39 118t-93 40q-52 0 -91.5 -39t-39.5 -119q0 -78 38 -123t93 -45q54 0 93 44t39 124zM277 -200h-84v84h84v-84z" />
    <glyph glyph-name="Ohookabove" unicode="&#x1ece;" horiz-adv-x="693" 
d="M640 346q0 -154 -87.5 -258t-206.5 -104t-206.5 104t-87.5 258q0 153 87 258.5t207 105.5t207 -105t87 -259zM556 359q0 131 -63 209.5t-147 78.5t-147 -78.5t-63 -209.5q0 -137 62 -224.5t148 -87.5q85 0 147.5 87t62.5 225zM436 869q0 -30 -25 -47l-4 -2
q-32 -21 -45 -35t-13 -34v-20l-1 -1h-17v1v20q0 28 15 52.5t41 38.5q16 10 16 27q0 23 -15 34t-48 11q-48 0 -75 -39h-1l-8 23v1q32 42 84 42q45 0 71 -19q25 -19 25 -53z" />
    <glyph glyph-name="ohookabove" unicode="&#x1ecf;" 
d="M442 214q0 -93 -61 -157.5t-147 -64.5q-85 0 -146 64t-61 158t61 161t147 67q85 0 146 -66.5t61 -161.5zM366 222q0 78 -39 118t-93 40q-52 0 -91.5 -39t-39.5 -119q0 -78 38 -123t93 -45q54 0 93 44t39 124zM325 640q0 -30 -25 -47l-4 -2q-32 -21 -45 -35t-13 -34v-20
l-1 -1h-17v1v20q0 28 15 52.5t41 38.5q16 10 16 27q0 24 -15 34q-15 11 -48 11q-48 0 -75 -39h-1l-8 23v1q32 42 84 42q45 0 71 -19q25 -19 25 -53z" />
    <glyph glyph-name="Ocircumflexacute" unicode="&#x1ed0;" horiz-adv-x="693" 
d="M640 346q0 -154 -87.5 -258t-206.5 -104t-206.5 104t-87.5 258q0 153 87 258.5t207 105.5t207 -105t87 -259zM556 359q0 131 -63 209.5t-147 78.5t-147 -78.5t-63 -209.5q0 -137 62 -224.5t148 -87.5q85 0 147.5 87t62.5 225zM502 730h-59l-97 97l-97 -97h-59l126 134h60
zM489 1021l-197 -122h-89l175 122h111z" />
    <glyph glyph-name="ocircumflexacute" unicode="&#x1ed1;" 
d="M442 214q0 -93 -61 -157.5t-147 -64.5q-85 0 -146 64t-61 158t61 161t147 67q85 0 146 -66.5t61 -161.5zM366 222q0 78 -39 118t-93 40q-52 0 -91.5 -39t-39.5 -119q0 -78 38 -123t93 -45q54 0 93 44t39 124zM391 520h-59l-97 97l-97 -97h-59l126 134h60zM378 811
l-197 -122h-89l175 122h111z" />
    <glyph glyph-name="Ocircumflexgrave" unicode="&#x1ed2;" horiz-adv-x="693" 
d="M640 346q0 -154 -87.5 -258t-206.5 -104t-206.5 104t-87.5 258q0 153 87 258.5t207 105.5t207 -105t87 -259zM556 359q0 131 -63 209.5t-147 78.5t-147 -78.5t-63 -209.5q0 -137 62 -224.5t148 -87.5q85 0 147.5 87t62.5 225zM502 730h-59l-97 97l-97 -97h-59l126 134h60
zM489 899l-175 122h-111l197 -122h89z" />
    <glyph glyph-name="ocircumflexgrave" unicode="&#x1ed3;" 
d="M442 214q0 -93 -61 -157.5t-147 -64.5q-85 0 -146 64t-61 158t61 161t147 67q85 0 146 -66.5t61 -161.5zM366 222q0 78 -39 118t-93 40q-52 0 -91.5 -39t-39.5 -119q0 -78 38 -123t93 -45q54 0 93 44t39 124zM391 520h-59l-97 97l-97 -97h-59l126 134h60zM378 689
l-175 122h-111l197 -122h89z" />
    <glyph glyph-name="Ocircumflexhookabove" unicode="&#x1ed4;" horiz-adv-x="693" 
d="M640 346q0 -154 -87.5 -258t-206.5 -104t-206.5 104t-87.5 258q0 153 87 258.5t207 105.5t207 -105t87 -259zM556 359q0 131 -63 209.5t-147 78.5t-147 -78.5t-63 -209.5q0 -137 62 -224.5t148 -87.5q85 0 147.5 87t62.5 225zM502 730h-59l-97 97l-97 -97h-59l126 134h60
zM526 1018q0 -30 -25 -47l-4 -2q-32 -21 -45 -35t-13 -34v-20l-1 -1h-17v1v20q0 28 15 52.5t41 38.5q16 10 16 27q0 24 -15 34q-15 11 -48 11q-48 0 -75 -39h-1l-8 23v1q32 42 84 42q45 0 71 -19q25 -19 25 -53z" />
    <glyph glyph-name="ocircumflexhookabove" unicode="&#x1ed5;" 
d="M442 214q0 -93 -61 -157.5t-147 -64.5q-85 0 -146 64t-61 158t61 161t147 67q85 0 146 -66.5t61 -161.5zM366 222q0 78 -39 118t-93 40q-52 0 -91.5 -39t-39.5 -119q0 -78 38 -123t93 -45q54 0 93 44t39 124zM391 520h-59l-97 97l-97 -97h-59l126 134h60zM415 808
q0 -30 -25 -47l-4 -2q-32 -21 -45 -35t-13 -34v-20l-1 -1h-17v1v20q0 28 15 52.5t41 38.5q16 10 16 27q0 24 -15 34q-15 11 -48 11q-48 0 -75 -39h-1l-8 23v1q32 42 84 42q45 0 71 -19q25 -19 25 -53z" />
    <glyph glyph-name="Ocircumflextilde" unicode="&#x1ed6;" horiz-adv-x="693" 
d="M640 346q0 -154 -87.5 -258t-206.5 -104t-206.5 104t-87.5 258q0 153 87 258.5t207 105.5t207 -105t87 -259zM556 359q0 131 -63 209.5t-147 78.5t-147 -78.5t-63 -209.5q0 -137 62 -224.5t148 -87.5q85 0 147.5 87t62.5 225zM502 730h-59l-97 97l-97 -97h-59l126 134h60
zM503 1036q-1 -55 -29.5 -86t-62.5 -31q-26 0 -73 33q-31 23 -53 23q-34 0 -34 -56h-61q1 55 29.5 86t62.5 31q26 0 73 -33q31 -23 53 -23q34 0 34 56h61z" />
    <glyph glyph-name="ocircumflextilde" unicode="&#x1ed7;" 
d="M442 214q0 -93 -61 -157.5t-147 -64.5q-85 0 -146 64t-61 158t61 161t147 67q85 0 146 -66.5t61 -161.5zM366 222q0 78 -39 118t-93 40q-52 0 -91.5 -39t-39.5 -119q0 -78 38 -123t93 -45q54 0 93 44t39 124zM391 520h-59l-97 97l-97 -97h-59l126 134h60zM392 826
q-1 -55 -29.5 -86t-62.5 -31q-26 0 -73 33q-31 23 -53 23q-34 0 -34 -56h-61q1 55 29.5 86t62.5 31q26 0 73 -33q31 -23 53 -23q34 0 34 56h61z" />
    <glyph glyph-name="Ocircumflexdotbelow" unicode="&#x1ed8;" horiz-adv-x="693" 
d="M640 346q0 -154 -87.5 -258t-206.5 -104t-206.5 104t-87.5 258q0 153 87 258.5t207 105.5t207 -105t87 -259zM556 359q0 131 -63 209.5t-147 78.5t-147 -78.5t-63 -209.5q0 -137 62 -224.5t148 -87.5q85 0 147.5 87t62.5 225zM502 730h-59l-97 97l-97 -97h-59l126 134h60
zM389 -200h-84v84h84v-84z" />
    <glyph glyph-name="ocircumflexdotbelow" unicode="&#x1ed9;" 
d="M442 214q0 -93 -61 -157.5t-147 -64.5q-85 0 -146 64t-61 158t61 161t147 67q85 0 146 -66.5t61 -161.5zM366 222q0 78 -39 118t-93 40q-52 0 -91.5 -39t-39.5 -119q0 -78 38 -123t93 -45q54 0 93 44t39 124zM390 520h-59l-96 123l-96 -123h-59l125 172h60zM277 -200h-84
v84h84v-84z" />
    <glyph glyph-name="Ohornacute" unicode="&#x1eda;" horiz-adv-x="678" 
d="M640 346q0 -154 -87.5 -258t-206.5 -104t-206.5 104t-87.5 258q0 153 87 258.5t207 105.5q89 0 164 -62l30 23h-24v78h79v-77l-62 -45q107 -109 107 -281zM556 359q0 131 -63 209.5t-147 78.5t-147 -78.5t-63 -209.5q0 -137 62 -224.5t148 -87.5q85 0 147.5 87t62.5 225z
M511 862l-197 -122h-89l175 122h111z" />
    <glyph glyph-name="ohornacute" unicode="&#x1edb;" horiz-adv-x="463" 
d="M450 432l-68 -59q60 -71 60 -159q0 -93 -61 -157.5t-147 -64.5q-85 0 -146 64t-61 158t61 161t146 67q65 0 127 -46l34 35h-24v79h79v-78zM366 222q0 78 -39 118t-93 40q-52 0 -91.5 -39t-39.5 -119q0 -78 38 -123t93 -45q54 0 93 44t39 124zM341 694l-139 -176h-61
l124 176h76z" />
    <glyph glyph-name="Ohorngrave" unicode="&#x1edc;" horiz-adv-x="678" 
d="M640 346q0 -154 -87.5 -258t-206.5 -104t-206.5 104t-87.5 258q0 153 87 258.5t207 105.5q89 0 164 -62l30 23h-24v78h79v-77l-62 -45q107 -109 107 -281zM556 359q0 131 -63 209.5t-147 78.5t-147 -78.5t-63 -209.5q0 -137 62 -224.5t148 -87.5q85 0 147.5 87t62.5 225z
M441 740h-89l-197 122h111z" />
    <glyph glyph-name="ohorngrave" unicode="&#x1edd;" horiz-adv-x="463" 
d="M450 432l-68 -59q60 -71 60 -159q0 -93 -61 -157.5t-147 -64.5q-85 0 -146 64t-61 158t61 161t146 67q65 0 127 -46l34 35h-24v79h79v-78zM366 222q0 78 -39 118t-93 40q-52 0 -91.5 -39t-39.5 -119q0 -78 38 -123t93 -45q54 0 93 44t39 124zM301 518h-61l-139 176h76z
" />
    <glyph glyph-name="Ohornhookabove" unicode="&#x1ede;" horiz-adv-x="678" 
d="M640 346q0 -154 -87.5 -258t-206.5 -104t-206.5 104t-87.5 258q0 153 87 258.5t207 105.5q89 0 164 -62l30 23h-24v78h79v-77l-62 -45q107 -109 107 -281zM556 359q0 131 -63 209.5t-147 78.5t-147 -78.5t-63 -209.5q0 -137 62 -224.5t148 -87.5q85 0 147.5 87t62.5 225z
M436 869q0 -30 -25 -47l-4 -2q-32 -21 -45 -35t-13 -34v-20l-1 -1h-17v1v20q0 28 15 52.5t41 38.5q16 10 16 27q0 23 -15 34t-48 11q-48 0 -75 -39h-1l-8 23v1q32 42 84 42q45 0 71 -19q25 -19 25 -53z" />
    <glyph glyph-name="ohornhookabove" unicode="&#x1edf;" horiz-adv-x="463" 
d="M450 432l-68 -59q60 -71 60 -159q0 -93 -61 -157.5t-147 -64.5q-85 0 -146 64t-61 158t61 161t146 67q65 0 127 -46l34 35h-24v79h79v-78zM366 222q0 78 -39 118t-93 40q-52 0 -91.5 -39t-39.5 -119q0 -78 38 -123t93 -45q54 0 93 44t39 124zM324 640q0 -30 -25 -47
l-4 -2q-32 -21 -45 -35t-13 -34v-20l-1 -1h-17v1v20q0 28 15 52.5t41 38.5q16 10 16 27q0 24 -15 34q-15 11 -48 11q-48 0 -75 -39h-1l-8 23v1q32 42 84 42q45 0 71 -19q25 -19 25 -53z" />
    <glyph glyph-name="Ohorntilde" unicode="&#x1ee0;" horiz-adv-x="678" 
d="M640 346q0 -154 -87.5 -258t-206.5 -104t-206.5 104t-87.5 258q0 153 87 258.5t207 105.5q89 0 164 -62l30 23h-24v78h79v-77l-62 -45q107 -109 107 -281zM556 359q0 131 -63 209.5t-147 78.5t-147 -78.5t-63 -209.5q0 -137 62 -224.5t148 -87.5q85 0 147.5 87t62.5 225z
M503 847q-1 -55 -29.5 -86t-62.5 -31q-26 0 -73 33q-31 23 -53 23q-34 0 -34 -56h-61q1 55 29.5 86t62.5 31q26 0 73 -33q31 -23 53 -23q34 0 34 56h61z" />
    <glyph glyph-name="ohorntilde" unicode="&#x1ee1;" horiz-adv-x="463" 
d="M450 432l-68 -59q60 -71 60 -159q0 -93 -61 -157.5t-147 -64.5q-85 0 -146 64t-61 158t61 161t146 67q65 0 127 -46l34 35h-24v79h79v-78zM366 222q0 78 -39 118t-93 40q-52 0 -91.5 -39t-39.5 -119q0 -78 38 -123t93 -45q54 0 93 44t39 124zM391 665q-1 -55 -29.5 -86
t-62.5 -31q-26 0 -73 33q-31 23 -53 23q-34 0 -34 -56h-61q1 55 29.5 86t62.5 31q26 0 73 -33q31 -23 53 -23q34 0 34 56h61z" />
    <glyph glyph-name="Ohorndotbelow" unicode="&#x1ee2;" horiz-adv-x="678" 
d="M640 346q0 -154 -87.5 -258t-206.5 -104t-206.5 104t-87.5 258q0 153 87 258.5t207 105.5q89 0 164 -62l30 23h-24v78h79v-77l-62 -45q107 -109 107 -281zM556 359q0 131 -63 209.5t-147 78.5t-147 -78.5t-63 -209.5q0 -137 62 -224.5t148 -87.5q85 0 147.5 87t62.5 225z
M381 -200h-84v84h84v-84z" />
    <glyph glyph-name="ohorndotbelow" unicode="&#x1ee3;" horiz-adv-x="463" 
d="M450 432l-68 -59q60 -71 60 -159q0 -93 -61 -157.5t-147 -64.5q-85 0 -146 64t-61 158t61 161t146 67q65 0 127 -46l34 35h-24v79h79v-78zM366 222q0 78 -39 118t-93 40q-52 0 -91.5 -39t-39.5 -119q0 -78 38 -123t93 -45q54 0 93 44t39 124zM274 -200h-84v84h84v-84z
" />
    <glyph glyph-name="Udotbelow" unicode="&#x1ee4;" horiz-adv-x="644" 
d="M555 233q0 -106 -68.5 -177.5t-163.5 -71.5t-165 71.5t-70 177.5v461h84v-463q0 -91 45 -141t107 -50t108.5 49.5t46.5 142.5v462h76v-461zM364 -200h-84v84h84v-84z" />
    <glyph glyph-name="udotbelow" unicode="&#x1ee5;" horiz-adv-x="484" 
d="M409 0h-74v50q-63 -58 -165 -58q-51 0 -73.5 28t-22.5 88v322h76v-317q0 -35 13 -49t59 -14q47 0 79 26t32 78v276h76v-430zM284 -200h-84v84h84v-84z" />
    <glyph glyph-name="Uhookabove" unicode="&#x1ee6;" horiz-adv-x="644" 
d="M555 233q0 -106 -68.5 -177.5t-163.5 -71.5t-165 71.5t-70 177.5v461h84v-463q0 -91 45 -141t107 -50t108.5 49.5t46.5 142.5v462h76v-461zM412 869q0 -30 -25 -47l-4 -2q-32 -21 -45 -35t-13 -34v-20l-1 -1h-17v1v20q0 28 15 52.5t41 38.5q16 10 16 27q0 23 -15 34
t-48 11q-48 0 -75 -39h-1l-8 23v1q32 42 84 42q45 0 71 -19q25 -19 25 -53z" />
    <glyph glyph-name="uhookabove" unicode="&#x1ee7;" horiz-adv-x="484" 
d="M409 0h-74v50q-63 -58 -165 -58q-51 0 -73.5 28t-22.5 88v322h76v-317q0 -35 13 -49t59 -14q47 0 79 26t32 78v276h76v-430zM332 640q0 -30 -25 -47l-4 -2q-32 -21 -45 -35t-13 -34v-20l-1 -1h-17v1v20q0 28 15 52.5t41 38.5q16 10 16 27q0 24 -15 34q-15 11 -48 11
q-48 0 -75 -39h-1l-8 23v1q32 42 84 42q45 0 71 -19q25 -19 25 -53z" />
    <glyph glyph-name="Uhornacute" unicode="&#x1ee8;" horiz-adv-x="647" 
d="M657 672l-101 -73v-366q0 -106 -68.5 -177.5t-163.5 -71.5t-165 71.5t-70 177.5v461h84v-463q0 -91 45 -141t107 -50t108.5 49.5t46.5 142.5v462h76v-54l46 32h-24v77h79v-77zM488 862l-197 -122h-89l175 122h111z" />
    <glyph glyph-name="uhornacute" unicode="&#x1ee9;" horiz-adv-x="483" 
d="M507 432l-98 -78v-354h-74v50q-63 -58 -165 -58q-51 0 -73.5 28t-22.5 88v322h76v-317q0 -35 13 -49t59 -14q47 0 79 26t32 78v276h76v-38l43 39h-24v79h79v-78zM349 694l-139 -176h-61l124 176h76z" />
    <glyph glyph-name="Uhorngrave" unicode="&#x1eea;" horiz-adv-x="647" 
d="M657 672l-101 -73v-366q0 -106 -68.5 -177.5t-163.5 -71.5t-165 71.5t-70 177.5v461h84v-463q0 -91 45 -141t107 -50t108.5 49.5t46.5 142.5v462h76v-54l46 32h-24v77h79v-77zM418 740h-89l-197 122h111z" />
    <glyph glyph-name="uhorngrave" unicode="&#x1eeb;" horiz-adv-x="483" 
d="M507 432l-98 -78v-354h-74v50q-63 -58 -165 -58q-51 0 -73.5 28t-22.5 88v322h76v-317q0 -35 13 -49t59 -14q47 0 79 26t32 78v276h76v-38l43 39h-24v79h79v-78zM309 518h-61l-139 176h76z" />
    <glyph glyph-name="Uhornhookabove" unicode="&#x1eec;" horiz-adv-x="647" 
d="M657 672l-101 -73v-366q0 -106 -68.5 -177.5t-163.5 -71.5t-165 71.5t-70 177.5v461h84v-463q0 -91 45 -141t107 -50t108.5 49.5t46.5 142.5v462h76v-54l46 32h-24v77h79v-77zM413 869q0 -30 -25 -47l-4 -2q-32 -21 -45 -35t-13 -34v-20l-1 -1h-17v1v20q0 28 15 52.5
t41 38.5q16 10 16 27q0 23 -15 34t-48 11q-48 0 -75 -39h-1l-8 23v1q32 42 84 42q45 0 71 -19q25 -19 25 -53z" />
    <glyph glyph-name="uhornhookabove" unicode="&#x1eed;" horiz-adv-x="483" 
d="M507 432l-98 -78v-354h-74v50q-63 -58 -165 -58q-51 0 -73.5 28t-22.5 88v322h76v-317q0 -35 13 -49t59 -14q47 0 79 26t32 78v276h76v-38l43 39h-24v79h79v-78zM332 640q0 -30 -25 -47l-4 -2q-32 -21 -45 -35t-13 -34v-20l-1 -1h-17v1v20q0 28 15 52.5t41 38.5
q16 10 16 27q0 24 -15 34q-15 11 -48 11q-48 0 -75 -39h-1l-8 23v1q32 42 84 42q45 0 71 -19q25 -19 25 -53z" />
    <glyph glyph-name="Uhorntilde" unicode="&#x1eee;" horiz-adv-x="647" 
d="M657 672l-101 -73v-366q0 -106 -68.5 -177.5t-163.5 -71.5t-165 71.5t-70 177.5v461h84v-463q0 -91 45 -141t107 -50t108.5 49.5t46.5 142.5v462h76v-54l46 32h-24v77h79v-77zM480 847q-1 -55 -29.5 -86t-62.5 -31q-26 0 -73 33q-31 23 -53 23q-34 0 -34 -56h-61
q1 55 29.5 86t62.5 31q26 0 73 -33q31 -23 53 -23q34 0 34 56h61z" />
    <glyph glyph-name="uhorntilde" unicode="&#x1eef;" horiz-adv-x="483" 
d="M507 432l-98 -78v-354h-74v50q-63 -58 -165 -58q-51 0 -73.5 28t-22.5 88v322h76v-317q0 -35 13 -49t59 -14q47 0 79 26t32 78v276h76v-38l43 39h-24v79h79v-78zM399 665q-1 -55 -29.5 -86t-62.5 -31q-26 0 -73 33q-31 23 -53 23q-34 0 -34 -56h-61q1 55 29.5 86t62.5 31
q26 0 73 -33q31 -23 53 -23q34 0 34 56h61z" />
    <glyph glyph-name="Uhorndotbelow" unicode="&#x1ef0;" horiz-adv-x="647" 
d="M657 672l-101 -73v-366q0 -106 -68.5 -177.5t-163.5 -71.5t-165 71.5t-70 177.5v461h84v-463q0 -91 45 -141t107 -50t108.5 49.5t46.5 142.5v462h76v-54l46 32h-24v77h79v-77zM366 -200h-84v84h84v-84z" />
    <glyph glyph-name="uhorndotbelow" unicode="&#x1ef1;" horiz-adv-x="483" 
d="M507 432l-98 -78v-354h-74v50q-63 -58 -165 -58q-51 0 -73.5 28t-22.5 88v322h76v-317q0 -35 13 -49t59 -14q47 0 79 26t32 78v276h76v-38l43 39h-24v79h79v-78zM284 -200h-84v84h84v-84z" />
    <glyph glyph-name="Ygrave" unicode="&#x1ef2;" horiz-adv-x="625" 
d="M621 694l-268 -417v-277h-82v278l-268 416h98l168 -263l49 -79q8 14 62 100l155 242h86zM407 740h-89l-197 122h111z" />
    <glyph glyph-name="ygrave" unicode="&#x1ef3;" horiz-adv-x="432" 
d="M418 430l-190 -510q-16 -43 -34 -70.5t-35.5 -37.5t-27.5 -12.5t-24 -2.5q-28 0 -68 8l-6 66q39 -12 72 -12q11 0 16.5 2t16 15t20.5 39q3 6 32 85l-177 430h81l47 -117q78 -192 82 -255h1q3 67 116 372h78zM283 518h-61l-139 176h76z" />
    <glyph glyph-name="Ydotbelow" unicode="&#x1ef4;" horiz-adv-x="625" 
d="M621 694l-268 -417v-277h-82v278l-268 416h98l168 -263l49 -79q8 14 62 100l155 242h86zM355 -200h-84v84h84v-84z" />
    <glyph glyph-name="ydotbelow" unicode="&#x1ef5;" horiz-adv-x="432" 
d="M418 430l-190 -510q-16 -43 -34 -70.5t-35.5 -37.5t-27.5 -12.5t-24 -2.5q-28 0 -68 8l-6 66q39 -12 72 -12q11 0 16.5 2t16 15t20.5 39q3 6 32 85l-177 430h81l47 -117q78 -192 82 -255h1q3 67 116 372h78zM366 -200h-84v84h84v-84z" />
    <glyph glyph-name="Yhookabove" unicode="&#x1ef6;" horiz-adv-x="625" 
d="M621 694l-268 -417v-277h-82v278l-268 416h98l168 -263l49 -79q8 14 62 100l155 242h86zM402 869q0 -30 -25 -47l-4 -2q-32 -21 -45 -35t-13 -34v-20l-1 -1h-17v1v20q0 28 15 52.5t41 38.5q16 10 16 27q0 23 -15 34t-48 11q-48 0 -75 -39h-1l-8 23v1q32 42 84 42
q45 0 71 -19q25 -19 25 -53z" />
    <glyph glyph-name="yhookabove" unicode="&#x1ef7;" horiz-adv-x="432" 
d="M418 430l-190 -510q-16 -43 -34 -70.5t-35.5 -37.5t-27.5 -12.5t-24 -2.5q-28 0 -68 8l-6 66q39 -12 72 -12q11 0 16.5 2t16 15t20.5 39q3 6 32 85l-177 430h81l47 -117q78 -192 82 -255h1q3 67 116 372h78zM306 640q0 -30 -25 -47l-4 -2q-32 -21 -45 -35t-13 -34v-20
l-1 -1h-17v1v20q0 28 15 52.5t41 38.5q16 10 16 27q0 24 -15 34q-15 11 -48 11q-48 0 -75 -39h-1l-8 23v1q32 42 84 42q45 0 71 -19q25 -19 25 -53z" />
    <glyph glyph-name="Ytilde" unicode="&#x1ef8;" horiz-adv-x="625" 
d="M621 694l-268 -417v-277h-82v278l-268 416h98l168 -263l49 -79q8 14 62 100l155 242h86zM469 847q-1 -55 -29.5 -86t-62.5 -31q-26 0 -73 33q-31 23 -53 23q-34 0 -34 -56h-61q1 55 29.5 86t62.5 31q26 0 73 -33q31 -23 53 -23q34 0 34 56h61z" />
    <glyph glyph-name="ytilde" unicode="&#x1ef9;" horiz-adv-x="432" 
d="M418 430l-190 -510q-16 -43 -34 -70.5t-35.5 -37.5t-27.5 -12.5t-24 -2.5q-28 0 -68 8l-6 66q39 -12 72 -12q11 0 16.5 2t16 15t20.5 39q3 6 32 85l-177 430h81l47 -117q78 -192 82 -255h1q3 67 116 372h78zM373 665q-1 -55 -29.5 -86t-62.5 -31q-26 0 -73 33
q-31 23 -53 23q-34 0 -34 -56h-61q1 55 29.5 86t62.5 31q26 0 73 -33q31 -23 53 -23q34 0 34 56h61z" />
    <glyph glyph-name="uni2010" unicode="&#x2010;" horiz-adv-x="313" 
d="M282 186h-250v58h250v-58z" />
    <glyph glyph-name="uni2011" unicode="&#x2011;" horiz-adv-x="313" 
d="M282 186h-250v58h250v-58z" />
    <glyph glyph-name="endash" unicode="&#x2013;" 
d="M469 235h-469v61h469v-61z" />
    <glyph glyph-name="emdash" unicode="&#x2014;" horiz-adv-x="940" 
d="M939 235h-939v61h939v-61z" />
    <glyph glyph-name="dblverticalbar" unicode="&#x2016;" horiz-adv-x="380" 
d="M159 -217q0 -33 -20 -33t-20 33v934q0 33 20 33t20 -33v-934zM261 -217q0 -33 -20 -33t-20 33v934q0 33 20 33t20 -33v-934z" />
    <glyph glyph-name="quoteleft" unicode="&#x2018;" horiz-adv-x="261" 
d="M171 694l-26 -125h25v-80h-80v79l41 126h40z" />
    <glyph glyph-name="quoteright" unicode="&#x2019;" horiz-adv-x="261" 
d="M170 615l-41 -126h-40l26 125h-25v80h80v-79z" />
    <glyph glyph-name="quotesinglbase" unicode="&#x201a;" horiz-adv-x="261" 
d="M171 1l-41 -126h-40l26 125h-25v80h80v-79z" />
    <glyph glyph-name="quotedblleft" unicode="&#x201c;" horiz-adv-x="444" 
d="M171 694l-26 -125h25v-80h-80v79l41 126h40zM354 694l-26 -125h25v-80h-80v79l41 126h40z" />
    <glyph glyph-name="quotedblright" unicode="&#x201d;" horiz-adv-x="444" 
d="M171 615l-41 -126h-40l26 125h-25v80h80v-79zM354 615l-41 -126h-40l26 125h-25v80h80v-79z" />
    <glyph glyph-name="quotedblbase" unicode="&#x201e;" horiz-adv-x="444" 
d="M171 1l-41 -126h-40l26 125h-25v80h80v-79zM354 1l-41 -126h-40l26 125h-25v80h80v-79z" />
    <glyph glyph-name="dagger" unicode="&#x2020;" horiz-adv-x="444" 
d="M387 430q0 -5 -1.5 -11t-10.5 -14t-25 -8q-25 0 -69 14q-32 8 -50 10q3 -38 10 -71q14 -71 14 -132q0 -120 -9 -262q-4 -93 -11 -154q-1 -8 -2 -10.5t-3.5 -5t-8.5 -2.5q-12 0 -13 20q-20 211 -20 414q0 61 14 133q7 37 10 70q-26 -3 -48 -10q-49 -14 -71 -14
q-37 0 -37 34q0 5 1.5 11t10.5 14t25 8q25 0 69 -14q32 -8 50 -10q-2 45 -11 107q-13 78 -13 117q0 41 34 41q33 0 33 -41q0 -30 -11 -111q-10 -62 -13 -113q26 3 48 10q49 14 71 14q37 0 37 -34z" />
    <glyph glyph-name="daggerdbl" unicode="&#x2021;" horiz-adv-x="444" 
d="M387 477q0 -5 -1.5 -11t-10.5 -14t-25 -8q-25 0 -69 14q-32 8 -50 10q1 -24 13 -95q11 -55 11 -84q0 -39 -34 -39q-33 0 -33 39q0 29 13 101q10 46 11 78q-26 -3 -48 -10q-49 -14 -71 -14q-37 0 -37 34q0 5 1.5 11t10.5 14t25 8q25 0 69 -14q32 -8 50 -10q-1 24 -13 95
q-11 55 -11 84q0 39 33 39q34 0 34 -39q0 -30 -13 -101q-10 -46 -11 -78q26 3 48 10q49 14 71 14q37 0 37 -34zM387 22q0 -13 -8.5 -23t-25.5 -10q-23 0 -56 9q-44 12 -66 14q3 -47 10 -72q14 -79 14 -106q0 -39 -34 -39q-33 0 -33 39q0 28 11 84q11 66 13 94
q-23 -3 -63 -13q-27 -10 -59 -10q-17 0 -25.5 10t-8.5 23q0 12 8.5 22.5t25.5 10.5q24 0 56 -9q44 -12 66 -14q-3 47 -10 72q-14 79 -14 106q0 39 34 39q33 0 33 -39q0 -28 -11 -84q-11 -66 -13 -94q23 2 55 12q43 11 68 11q15 0 24 -10t9 -23z" />
    <glyph glyph-name="bullet" unicode="&#x2022;" horiz-adv-x="731" 
d="M493 142h-254v254h254v-254z" />
    <glyph glyph-name="ellipsis" unicode="&#x2026;" horiz-adv-x="592" 
d="M171 0h-80v80h80v-80zM336 0h-80v80h80v-80zM501 0h-80v80h80v-80z" />
    <glyph glyph-name="perthousand" unicode="&#x2030;" horiz-adv-x="1094" 
d="M1033 146q0 -85 -38.5 -143t-91.5 -58q-52 0 -91.5 57.5t-39.5 143.5t39.5 143.5t91.5 57.5t91 -58t39 -143zM322 548q0 -85 -38.5 -143t-91.5 -58q-52 0 -91.5 57.5t-39.5 143.5t39.5 143.5t91.5 57.5t91 -58t39 -143zM702 146q0 -85 -38.5 -143t-91.5 -58
q-52 0 -91.5 57.5t-39.5 143.5t39.5 143.5t91.5 57.5t91 -58t39 -143zM590 731q0 -6 -6 -16l-410 -752q-10 -18 -19 -18q-7 0 -12.5 5t-5.5 13q0 4 6 16l409 752q9 18 21 18q6 0 11.5 -5t5.5 -13zM960 146q0 55 -15.5 97.5t-41.5 42.5q-55 0 -55 -140t55 -140
q26 0 41.5 42.5t15.5 97.5zM249 548q0 55 -15.5 97.5t-41.5 42.5q-55 0 -55 -140t55 -140q26 0 41.5 42.5t15.5 97.5zM629 146q0 55 -15.5 97.5t-41.5 42.5q-55 0 -55 -140t55 -140q26 0 41.5 42.5t15.5 97.5z" />
    <glyph glyph-name="permyriad" unicode="&#x2031;" horiz-adv-x="1389" 
d="M1355 146q0 -85 -38.5 -143t-91.5 -58q-52 0 -91.5 57.5t-39.5 143.5t39.5 143.5t91.5 57.5t91 -58t39 -143zM1024 146q0 -85 -38.5 -143t-91.5 -58q-52 0 -91.5 57.5t-39.5 143.5t39.5 143.5t91.5 57.5t91 -58t39 -143zM313 548q0 -85 -38.5 -143t-91.5 -58
q-52 0 -91.5 57.5t-39.5 143.5t39.5 143.5t91.5 57.5t91 -58t39 -143zM581 731q0 -6 -6 -16l-410 -752q-10 -18 -19 -18q-7 0 -12.5 5t-5.5 13q0 4 6 16l409 752q9 18 21 18q6 0 11.5 -5t5.5 -13zM693 146q0 -85 -38.5 -143t-91.5 -58q-52 0 -91.5 57.5t-39.5 143.5
t39.5 143.5t91.5 57.5t91 -58t39 -143zM1282 146q0 55 -15.5 97.5t-41.5 42.5q-55 0 -55 -140t55 -140q26 0 41.5 42.5t15.5 97.5zM951 146q0 55 -15.5 97.5t-41.5 42.5q-55 0 -55 -140t55 -140q26 0 41.5 42.5t15.5 97.5zM240 548q0 55 -15.5 97.5t-41.5 42.5
q-55 0 -55 -140t55 -140q26 0 41.5 42.5t15.5 97.5zM620 146q0 55 -15.5 97.5t-41.5 42.5q-55 0 -55 -140t55 -140q26 0 41.5 42.5t15.5 97.5z" />
    <glyph glyph-name="guilsinglleft" unicode="&#x2039;" horiz-adv-x="313" 
d="M261 0h-61l-96 219l96 218h61l-81 -218z" />
    <glyph glyph-name="guilsinglright" unicode="&#x203a;" horiz-adv-x="313" 
d="M209 219l-96 -219h-61l81 219l-81 218h61z" />
    <glyph glyph-name="referencemark" unicode="&#x203b;" horiz-adv-x="731" 
d="M587 28q-12 -12 -34 10l-188 187l-187 -187q-22 -22 -35 -9t10 33l188 188l-188 187q-7 7 -8 8.5t-4.5 7.5t-2.5 10t6 9q12 12 34 -10l187 -187l187 186q22 22 35 9t-10 -33l-187 -187l187 -188q23 -20 10 -34zM399 443q0 -14 -10 -24t-24 -10t-24 10t-10 24t10 24t24 10
t24 -10t10 -24zM206 250q0 -14 -10 -24t-24 -10t-24 10t-10 24t10 24t24 10t24 -10t10 -24zM399 57q0 -14 -10 -24t-24 -10t-24 10t-10 24t10 24t24 10t24 -10t10 -24zM592 250q0 -14 -10 -24t-24 -10t-24 10t-10 24t10 24t24 10t24 -10t10 -24z" />
    <glyph glyph-name="interrobang" unicode="&#x203d;" horiz-adv-x="444" 
d="M262 0h-80v80h80v-80zM378 547q0 -72 -47 -121q-77 -83 -77 -206v-51h-64v53q0 34 5 66l-4 352q-69 -7 -130 -52l-22 62q68 43 151 52v25h64v-26q63 -9 93.5 -51t30.5 -103zM302 550q0 74 -49 88l-3 -204q10 15 25 35q10 12 14.5 19.5t8.5 23.5t4 38z" />
    <glyph glyph-name="uni203F" unicode="&#x203f;" horiz-adv-x="560" 
d="M479 -68q0 -60 -62.5 -93.5t-133.5 -33.5q-40 0 -82.5 10t-81 40.5t-38.5 76.5h60q3 -38 46.5 -57t92.5 -19q48 0 92 19t47 57h60z" />
    <glyph glyph-name="uni2040" unicode="&#x2040;" horiz-adv-x="560" 
d="M479 557h-60q-3 38 -46.5 57t-92.5 19q-48 0 -92 -19t-47 -57h-60q0 60 62.5 93.5t133.5 33.5q40 0 82.5 -10t81 -40.5t38.5 -76.5z" />
    <glyph glyph-name="fraction" unicode="&#x2044;" horiz-adv-x="520" 
d="M468 674l-377 -654h-39l376 654h40z" />
    <glyph glyph-name="quillbracketleft" unicode="&#x2045;" horiz-adv-x="340" 
d="M286 -297q-84 0 -148 46t-64 130v224q0 59 41.5 101t100.5 46v2q-25 1 -51 13q-44 17 -68 55t-24 86q0 6 0.5 17t0.5 17v171q0 46 12 67q44 72 200 72v-50h-35q-117 0 -117 -84v-177q0 -5 -0.5 -16t-0.5 -16q0 -62 45 -96.5t107 -34.5v-50q-65 0 -108 -34.5t-43 -98.5
v-232q5 -48 36 -78.5t78 -30.5q6 0 19 0.5t19 0.5v-50z" />
    <glyph glyph-name="quillbracketright" unicode="&#x2046;" horiz-adv-x="340" 
d="M265 -109q0 -45 -12 -66q-43 -73 -199 -73v50h34q24 0 41.5 2.5t36.5 10.5t29 26t10 45v209q0 62 -44.5 96.5t-107.5 34.5v50q73 0 112.5 37t39.5 94v209q0 27 -10 45t-29 26t-36.5 10.5t-41.5 2.5h-34v50q156 0 199 -73q12 -21 12 -66v-206q0 -22 -2 -33q-8 -48 -50 -84
t-91 -36v-2q23 0 53 -13q90 -42 90 -141v-205z" />
    <glyph glyph-name="discount" unicode="&#x2052;" 
d="M416 731q0 -6 -1 -8q-9 -19 -27 -58t-27 -58l-262 -566l-12 -27q-6 -12 -15 -13h-2q-7 0 -12.5 5.5t-5.5 12.5q0 2 6 17l58 125l255 551q13 34 24 37l5 1q16 0 16 -19zM170 676q0 -21 -14 -25h-61q-25 0 -25 21v57q0 18 16 21q3 1 11 1h47q26 0 26 -24v-51zM400 27
q0 -26 -24 -26h-53q-23 0 -23 23v63q3 10 13 13q3 1 10 1h51q26 0 26 -29v-45z" />
    <glyph glyph-name="uni2054" unicode="&#x2054;" horiz-adv-x="560" 
d="M479 -195h-60q-3 38 -46.5 57t-92.5 19q-48 0 -92 -19t-47 -57h-60q0 60 62.5 93.5t133.5 33.5q40 0 82.5 -10t81 -40.5t38.5 -76.5z" />
    <glyph glyph-name="colonmonetary" unicode="&#x20a1;" horiz-adv-x="601" 
d="M553 40q-50 -33 -86.5 -44.5t-94.5 -11.5h-10v-80h-64v90q-106 28 -171 128t-65 225q0 126 65.5 225.5t170.5 127.5v90h64v-80h9q86 0 172 -35l-14 -80q-74 51 -159 51h-8v-598h11q54 0 91.5 12.5t81.5 47.5q0 -2 2 -16t2 -19zM298 63v568q-69 -30 -110.5 -108.5
t-41.5 -175.5q0 -95 40.5 -174.5t111.5 -109.5z" />
    <glyph glyph-name="lira" unicode="&#x20a4;" horiz-adv-x="625" 
d="M562 144q0 -65 -37 -112.5t-95 -47.5q-39 0 -99 15q-52 13 -80.5 19t-66.5 3.5t-54 -22.5l-60 46q95 120 107 205h-115v64h114l-3 15q-1 6 -5 16q-5 16 -14 35h-92v64h72q-17 97 38 173.5t147 76.5q77 0 129 -61.5t52 -146.5h-76q0 54 -29.5 93t-75.5 39q-59 0 -91.5 -54
t-15.5 -120h163v-64h-139l4 -9l6 -22q5 -15 7 -35h122v-64h-121q-8 -71 -54 -151q45 -1 150 -26q48 -13 80 -13q26 0 41 25t15 59h76z" />
    <glyph glyph-name="naira" unicode="&#x20a6;" horiz-adv-x="663" 
d="M617 250h-43v-250h-123l-18 37l-98 213h-169v-250h-78v250h-43v64h43v66h-43v64h43v250h123l18 -37l98 -213h169v250h78v-250h43v-64h-43v-66h43v-64zM246 444l-27 58l-52 116l-1 -1v-173h80zM305 314l-30 66h-109v-66h139zM496 314v66h-140l31 -66h109zM496 77v173h-80
l27 -58l52 -116z" />
    <glyph glyph-name="won" unicode="&#x20a9;" horiz-adv-x="886" 
d="M872 250h-121l-69 -250h-87l-66 250h-175l-68 -250h-83l-69 250h-121v64h104l-18 66h-86v64h68l-68 250h86l67 -250h170l68 250h84l68 -250h173l67 250h76l-68 -250h68v-64h-86l-18 -66h104v-64zM512 314l-18 66h-106l-16 -66h140zM319 380h-135l16 -66h102zM287 250h-71
l3 -14q32 -134 32 -156h1q4 44 33 164zM711 380h-138l17 -66h105zM679 250h-74l5 -21q28 -114 31 -148h1q2 24 33 152zM477 444q-36 143 -36 169h-1q-2 -30 -35 -165l-1 -4h73z" />
    <glyph glyph-name="dong" unicode="&#x20ab;" horiz-adv-x="484" 
d="M460 538h-72v-503h-73v47q-61 -55 -132 -55q-63 0 -107.5 62t-44.5 150t45 150t110 62q75 0 131 -48v135h-133v61h133v95h71v-95h72v-61zM460 -64h-429v64h429v-64zM315 162v185q-32 46 -83 46q-49 0 -88.5 -37t-39.5 -118q0 -78 36 -115.5t82 -37.5q36 0 64 24
q29 25 29 53z" />
    <glyph glyph-name="Euro" unicode="&#x20ac;" horiz-adv-x="563" 
d="M516 40q-37 -34 -65.5 -45t-77.5 -11q-108 0 -183 106q-51 73 -68 165h-75l10 56h58q-1 12 -1 36t1 36h-68l10 56h65q18 94 68 165q75 106 183 106q71 0 132 -34l-14 -80q-47 50 -118 50q-72 0 -124 -87q-30 -50 -43 -120h257l-10 -56h-254q-1 -12 -1 -36t1 -36h242
l-10 -56h-225q13 -69 43 -119q51 -88 124 -88q49 0 76.5 12t60.5 48z" />
    <glyph glyph-name="peso" unicode="&#x20b1;" horiz-adv-x="600" 
d="M547 492q0 -83 -64 -143t-154 -60h-156v-83h127v-64h-127v-142h-84v142h-69v64h69v488h234q96 0 160 -59.5t64 -142.5zM468 492q0 60 -42.5 103t-124.5 43h-130v-291h130q83 0 125 43.5t42 101.5z" />
    <glyph glyph-name="centigrade" unicode="&#x2103;" horiz-adv-x="810" 
d="M762 46q0 -7 -9 -12q-39 -19 -56.5 -27t-48 -15.5t-61.5 -7.5q-73 0 -133 32t-97.5 84t-57.5 115t-20 128q0 85 32 163t98.5 133.5t153.5 60.5h12q93 0 177 -34l-11 -63q-83 45 -160 45t-132 -50.5t-78.5 -118t-23.5 -138.5q0 -53 15 -106t43.5 -97.5t75.5 -72.5t104 -28
q74 0 126 28q7 4 22 14t24 14q0 -6 2.5 -22t2.5 -25zM209 579q0 -40 -27 -69.5t-67 -34.5h-9q-47 0 -76.5 31.5t-29.5 73.5q0 40 27 69.5t67 34.5h9q47 0 76.5 -31.5t29.5 -73.5zM174 579v8q-5 27 -24 44.5t-46 17.5t-48 -20.5t-21 -48.5v-8q5 -27 24 -44.5t46 -17.5
t48 20.5t21 48.5z" />
    <glyph glyph-name="numero" unicode="&#x2116;" horiz-adv-x="767" 
d="M686 399q0 -49 -23.5 -91t-64.5 -42q-42 0 -65 42t-23 91q0 56 23 99t65 43q41 0 64.5 -45.5t23.5 -96.5zM684 165h-172v48h172v-48zM421 1h-93l-155 554q-10 34 -14 71v-625h-61v683h93l153 -545l15 -76v621h62v-683zM639 398q0 89 -41 89q-42 0 -42 -89q0 -30 10.5 -54
t31.5 -24q18 0 29.5 24.5t11.5 53.5z" />
    <glyph glyph-name="published" unicode="&#x2117;" horiz-adv-x="694" 
d="M694 347q0 -144 -101.5 -245.5t-245.5 -101.5t-245.5 101.5t-101.5 245.5t101.5 245.5t245.5 101.5t245.5 -101.5t101.5 -245.5zM660 347q0 130 -91.5 221.5t-221.5 91.5t-221.5 -91.5t-91.5 -221.5t91.5 -221.5t221.5 -91.5t221.5 91.5t91.5 221.5zM521 446
q0 -56 -43 -97t-104 -41h-106v-196h-57v470h159q65 0 108 -40t43 -96zM468 446q0 40 -29 69.5t-84 29.5h-88v-198h88q56 0 84.5 29.5t28.5 69.5z" />
    <glyph glyph-name="recipe" unicode="&#x211e;" horiz-adv-x="606" 
d="M579 0h-84l-42 75l-71 -66l-43 46l82 77l-103 185h-147v-317h-82v694h224q104 0 172 -56t68 -130q0 -15 -3.5 -30.5t-16 -45.5t-48 -58t-89.5 -47l-2 -1l81 -143l60 56l44 -47l-71 -66zM474 508q0 51 -42.5 90.5t-129.5 39.5h-131v-260h131q89 0 130.5 40t41.5 90z" />
    <glyph glyph-name="servicemark" unicode="&#x2120;" horiz-adv-x="805" 
d="M281 383q0 -51 -36 -87.5t-90 -36.5q-73 0 -130 42l9 47q52 -48 120 -48q37 0 59.5 23.5t22.5 54.5q0 23 -13 43t-37 29q-9 5 -41 12q-60 16 -84 42q-30 35 -30 75q0 46 35.5 80.5t91.5 34.5q57 0 104 -29l-8 -48q-42 38 -96 38q-37 0 -59 -21.5t-22 -48.5q0 -23 15 -42
q16 -20 62 -31q41 -11 59.5 -19t35.5 -27q32 -36 32 -83zM719 268h-48v369q-3 -14 -25 -79l-26 -79l-72 -201h-44l-79 226q-16 47 -26.5 80t-12.5 42l-3 10h-1v-368h-47v417h71l88 -252l18 -54q13 -44 15 -55q3 12 25 84l29 84l68 193h70v-417z" />
    <glyph glyph-name="trademark" unicode="&#x2122;" horiz-adv-x="876" 
d="M364 655h-75q-4 0 -11.5 0.5t-10.5 0.5h-50v-376h-50v376h-50q-3 0 -10.5 -0.5t-11.5 -0.5h-75v39h344v-39zM801 280h-47v369h-1q-3 -15 -25 -80l-26 -79l-71 -201h-45l-79 227q-16 47 -26.5 80t-12.5 42l-3 10h-1v-368h-46v416h70l89 -252l17 -53q12 -37 15 -55h1
q2 13 24 83l29 85l68 192h70v-416z" />
    <glyph glyph-name="ohm" unicode="&#x2126;" horiz-adv-x="679" 
d="M636 0h-231q1 56 17 105t55 133q65 140 65 222q0 84 -59 136.5t-144 52.5t-144 -52.5t-59 -136.5q0 -81 62 -215q41 -89 57.5 -139.5t17.5 -105.5h-231v68h78q6 0 18 -0.5t18 -0.5h48q-12 53 -81 181q-71 133 -71 213q0 104 83.5 176.5t203.5 72.5q119 0 203 -73t84 -176
q0 -83 -72 -215q-65 -116 -80 -179h48q6 0 18 0.5t18 0.5h78v-68z" />
    <glyph glyph-name="uni2127" unicode="&#x2127;" horiz-adv-x="679" 
d="M638 626h-78q-6 0 -18 0.5t-18 0.5h-48q12 -53 81 -181q71 -133 71 -213q0 -104 -83.5 -176.5t-203.5 -72.5q-119 0 -203 73t-84 176q0 83 72 215q65 116 80 179h-48q-6 0 -18 -0.5t-18 -0.5h-78v68h231q-1 -56 -17 -105t-55 -133q-65 -140 -65 -222q0 -84 59 -136.5
t144 -52.5t144 52.5t59 136.5q0 81 -62 215q-41 89 -57.5 139.5t-17.5 105.5h231v-68z" />
    <glyph glyph-name="estimated" unicode="&#x212e;" horiz-adv-x="627" 
d="M600 356h-502q0 -73 16 -122q27 -84 89 -137.5t141 -53.5q90 0 182 30q12 4 33.5 13t31.5 13l3 -36q1 -5 1 -8t-1 -5t-3.5 -3.5t-4.5 -2.5t-5.5 -2t-4.5 -2q-107 -47 -236 -47q-88 0 -160 51t-109.5 128t-38.5 161q0 64 12 113q27 105 104.5 177.5t180.5 72.5t173 -61
q98 -87 98 -279zM538 402q0 2 -3.5 27t-5.5 37q-18 79 -71.5 129.5t-131.5 50.5h-8q-86 -4 -147.5 -81t-68.5 -163h436z" />
    <glyph glyph-name="uni2190" unicode="&#x2190;" horiz-adv-x="940" 
d="M887 250q-1 -17 -27 -17l-719 -1q48 -33 89.5 -104.5t47.5 -134.5h-35q-12 82 -65 153.5t-126 103.5v1q73 32 126 103.5t65 153.5h35q-5 -60 -45.5 -132t-91.5 -107l721 -1q25 0 25 -18z" />
    <glyph glyph-name="uni2191" unicode="&#x2191;" 
d="M444 427q-125 31 -191 139v-743q0 -17 -17.5 -17t-17.5 17v743q-66 -108 -192 -139v35q84 19 141 83t68 149q11 -85 68.5 -149t140.5 -83v-35z" />
    <glyph glyph-name="uni2192" unicode="&#x2192;" horiz-adv-x="940" 
d="M887 250q-73 -32 -126 -103.5t-65 -153.5h-35q5 60 45.5 132t91.5 107l-719 1q-26 0 -27 17q0 18 25 18l721 1q-48 33 -89.5 104.5t-47.5 134.5h35q12 -82 65 -153.5t126 -103.5v-1z" />
    <glyph glyph-name="uni2193" unicode="&#x2193;" 
d="M444 38q-83 -19 -140.5 -83t-68.5 -150q-11 86 -68 150t-141 83v35q125 -30 192 -139v743q0 17 17.5 17t17.5 -17v-743q67 108 191 139v-35z" />
    <glyph glyph-name="minus" unicode="&#x2212;" horiz-adv-x="731" 
d="M678 250q0 -17 -30 -17h-566q-30 0 -30 17q0 18 34 18h558q34 0 34 -18z" />
    <glyph glyph-name="fraction.alt" unicode="&#x2215;" horiz-adv-x="0" 
d="M208 674l-377 -654h-39l376 654h40z" />
    <glyph glyph-name="asterisk.math" unicode="&#x2217;" 
d="M408 159q0 -11 -7.5 -19.5t-19.5 -8.5q-9 0 -33 17l-92 64q0 -22 2.5 -67t2.5 -67v-22q-5 -18 -25 -20q-12 0 -20 8t-8 21v11q0 22 2.5 68t2.5 68l-92 -64q-24 -17 -33 -17q-12 0 -19.5 8.5t-7.5 19.5q0 7 4.5 14t13.5 13t16.5 10t19.5 10l16 8l40 23q17 11 24 13v2
q-7 2 -24 13l-40 23q-7 4 -20 11t-19 11q-31 17 -31 33q0 11 7.5 19.5t19.5 8.5q9 0 33 -17l92 -64q0 22 -2.5 67t-2.5 67v22q5 18 25 20q13 0 20.5 -8t7.5 -22v-10q0 -22 -2.5 -68t-2.5 -68l92 64q24 17 33 17q12 0 19.5 -8.5t7.5 -19.5q0 -7 -4.5 -14t-13.5 -13t-16.5 -10
t-19.5 -10l-16 -8l-40 -23q-17 -11 -24 -13v-2q7 -2 24 -13l40 -23q6 -4 19 -11t20 -11q31 -17 31 -33z" />
    <glyph glyph-name="radical" unicode="&#x221a;" horiz-adv-x="444" 
d="M489 734q0 -14 -16 -18h-92q-2 -13 -8.5 -38t-7.5 -31l-35 -145l-132 -550q0 -1 -1 -8t-1.5 -9t-2 -8.5t-2.5 -9t-3 -7t-4 -7t-5 -5t-7 -3.5t-8 -1h-11l-54 288l-43 -73l-25 24l-9 12l102 177l57 -293l9 39l150 628q1 5 4.5 19t5.5 19.5t10 11t20 5.5h84q25 0 25 -17z
" />
    <glyph glyph-name="infinity" unicode="&#x221e;" horiz-adv-x="940" 
d="M429 207l-42 58q-28 38 -47 60t-51.5 42.5t-66.5 20.5q-53 0 -80.5 -51t-27.5 -121q0 -76 26.5 -129t80.5 -53q118 0 208 173zM826 216q0 75 -26.5 128t-80.5 53q-118 0 -208 -173l42 -58q28 -38 47 -60t51.5 -42.5t66.5 -20.5q53 0 80.5 51t27.5 122zM888 216
q0 -95 -57.5 -164.5t-143.5 -69.5q-57 0 -102.5 37t-92.5 102l-20 27q-94 -169 -217 -169q-87 0 -145 70t-58 167q0 94 57.5 163.5t143.5 69.5q57 0 102.5 -37t92.5 -102l20 -27q94 169 217 169q87 0 145 -70t58 -166z" />
    <glyph glyph-name="anglearc" unicode="&#x2222;" horiz-adv-x="731" 
d="M678 17q0 -9 -7.5 -14t-15.5 -2l-135 53q-28 -62 -68 -112q-4 -6 -13 -6q-7 0 -12 5t-5 12t4 11q38 47 62 103l-425 167q-11 5 -11 16t11 16l425 167q-24 56 -62 103q-4 4 -4 11t5 12t12 5q9 0 13 -6q40 -50 68 -112l135 53q8 3 15.5 -2t7.5 -14q0 -11 -11 -16l-135 -53
q28 -81 28 -164t-28 -164l135 -53q11 -5 11 -16zM526 250q0 77 -26 152l-385 -152l385 -151q26 73 26 151z" />
    <glyph glyph-name="diameter" unicode="&#x2300;" horiz-adv-x="731" 
d="M678 546q0 -7 -5 -12l-86 -86q76 -84 76 -198q0 -124 -87 -211t-211 -87q-113 0 -198 75l-86 -86q-5 -5 -12 -5t-12 5t-5 12t5 12l86 86q-76 86 -76 199q0 124 87 211t211 87q114 0 198 -76l86 86q5 5 12 5t12 -5t5 -12zM629 250q0 100 -66 174l-372 -373q76 -65 174 -65
q109 0 186.5 77t77.5 187zM539 448q-74 66 -174 66q-109 0 -186.5 -77t-77.5 -187q0 -99 66 -175z" />
    <glyph glyph-name="angleleft" unicode="&#x2329;" horiz-adv-x="366" 
d="M313 -231q0 -6 -5 -12t-12 -6q-13 0 -22 26l-77 212l-85 234q-9 24 -9 27q0 8 10 31q26 78 79.5 221t73.5 202l4 12t5 14.5t6.5 11.5t9.5 7l5 1q15 0 17 -16q0 -3 -5 -18l-48 -132l-110 -303l-7 -19l-3 -12q0 -4 9 -27l20 -54l130 -357q1 -4 6.5 -18.5t7.5 -22.5v-2z" />
    <glyph glyph-name="angleright" unicode="&#x232a;" horiz-adv-x="366" 
d="M262 251q0 -9 -10 -31l-103 -284l-51 -141q-1 -3 -4 -13t-5.5 -15t-7 -10t-10.5 -6q-18 0 -18 17q0 7 5 22l133 365l31 84l3 12q0 4 -9 27l-21 56l-130 359l-8 23q-4 10 -5 15q0 15 13 18l5 1q5 0 9.5 -3.5t7.5 -9.5t5 -11.5t4.5 -13.5t3.5 -11l132 -363l21 -58
q9 -27 9 -29z" />
    <glyph glyph-name="blanksymbol" unicode="&#x2422;" horiz-adv-x="484" 
d="M450 216q0 -95 -51 -159.5t-123 -64.5q-71 0 -125 53v-45h-76v478l-31 -30l-44 47l75 70v129h74v-60l48 44l43 -46l-91 -86v-161q65 53 152 53q65 0 107 -66t42 -156zM374 216q0 82 -37.5 121.5t-88.5 39.5q-57 0 -97 -51v-198q0 -29 27 -53q26 -22 61 -22q51 0 93 39
t42 124z" />
    <glyph glyph-name="uni2423" unicode="&#x2423;" 
d="M431 -97q0 -9 -6 -15t-15 -6h-350q-8 0 -14.5 6t-6.5 15v316q0 13 10.5 18.5t21 0t10.5 -18.5v-295h308v295q0 13 10.5 18.5t21 0t10.5 -18.5v-316z" />
    <glyph glyph-name="openbullet" unicode="&#x25e6;" horiz-adv-x="731" 
d="M493 142h-254v254h254v-254zM459 269q0 38 -27.5 65.5t-65.5 27.5t-65.5 -27.5t-27.5 -65.5t27.5 -65.5t65.5 -27.5t65.5 27.5t27.5 65.5z" />
    <glyph glyph-name="uni266A" unicode="&#x266a;" horiz-adv-x="575" 
d="M523 136q0 -26 -17 -26h-3q-15 2 -15 20v8q-3 31 -3 32q-6 55 -24.5 110.5t-53 133.5t-44.5 104v-311l-1 -86v-25q-8 -57 -53 -88.5t-102 -31.5q-60 0 -107.5 36.5t-47.5 96.5q0 57 48 88.5t109 31.5q74 0 119 -42v499q0 28 15 30h3q17 0 17 -26q0 -62 25 -137.5
t55 -135.5t55 -137.5t25 -143.5z" />
    <glyph glyph-name="married" unicode="&#x26ad;" 
d="M549 251q0 -82 -54 -148.5t-138 -66.5q-33 0 -68 12t-54 33h-1q-42 -45 -118 -45q-84 0 -140 64.5t-56 149.5q0 88 57 152t143 64q63 0 115 -45q38 41 110 45h9q83 0 139 -65.5t56 -149.5zM195 122q0 1 -7 15q-30 51 -30 114q0 62 28 111q9 15 9 18q0 12 -29.5 21.5
t-51.5 9.5q-64 0 -100.5 -46t-38.5 -106v-7q0 -63 36.5 -112t102.5 -49q22 0 51.5 10t29.5 21zM494 250q0 64 -36.5 112.5t-103.5 48.5q-22 0 -51 -10t-29 -20q0 -4 9 -19q28 -49 28 -111q0 -58 -30 -115l-7 -14q0 -12 29 -21.5t51 -9.5q62 0 101 48t39 111zM253 254
q0 26 -18 82h-1q-17 -57 -17 -85q0 -51 18 -83q18 56 18 86z" />
    <glyph glyph-name="divorced" unicode="&#x26ae;" 
d="M654 253q0 -79 -41.5 -144t-113.5 -73h-11q-76 0 -121 67.5t-45 147.5q0 78 42 142.5t113 72.5q2 0 6 0.5t6 0.5q74 0 119.5 -68.5t45.5 -145.5zM147 250q0 -78 -42 -142t-114 -72h-11q-75 0 -119.5 68t-44.5 146t40.5 143t112.5 73q2 0 6 0.5t6 0.5q51 0 90.5 -35.5
t57.5 -83.5t18 -98zM265 -104h-60v710h60v-710zM88 248v27q-5 54 -33.5 95t-75.5 41q-31 0 -53.5 -17t-33.5 -44.5t-16 -53.5t-5 -51v-11q7 -59 33.5 -101t76.5 -42q56 0 81.5 49t25.5 108zM598 249q0 62 -28 112t-86 50q-46 0 -72 -42.5t-31 -93.5v-27q0 -59 27 -108
t79 -49q50 0 78 42.5t32 99.5q1 5 1 16z" />
    <glyph glyph-name="dblbracketleft" unicode="&#x27e6;" horiz-adv-x="379" 
d="M358 -248h-246v998h246v-35h-94v-928h94v-35zM229 -213v928h-82v-928h82z" />
    <glyph glyph-name="dblbracketright" unicode="&#x27e7;" horiz-adv-x="379" 
d="M266 -248h-245v35h93v928h-93v35h245v-998zM231 -213v928h-82v-928h82z" />
    <glyph glyph-name="acute.cap" unicode="&#xea00;" 
d="M426 598l-197 -122h-89l175 122h111z" />
    <glyph glyph-name="uni0301.cap" unicode="&#xea01;" horiz-adv-x="0" 
d="M-93 958l-139 -176h-61l124 176h76z" />
    <glyph glyph-name="breve.cap" unicode="&#xea02;" 
d="M396 669q-2 -86 -48.5 -139.5t-112.5 -53.5q-64 0 -111 53t-49 140h61q1 -57 30 -92t70 -35q39 0 68.5 34.5t30.5 92.5h61z" />
    <glyph glyph-name="space_uni0306_uni0301.cap" unicode="&#xea03;" 
d="M396 669q-2 -86 -48.5 -139.5t-112.5 -53.5q-64 0 -111 53t-49 140h61q1 -57 30 -92t70 -35q39 0 68.5 34.5t30.5 92.5h61zM379 826l-197 -122h-89l175 122h111z" />
    <glyph glyph-name="space_uni0306_uni0301" unicode="&#xea04;" 
d="M396 703q-2 -86 -48.5 -139.5t-112.5 -53.5q-64 0 -111 53t-49 140h61q1 -57 30 -92t70 -35q39 0 68.5 34.5t30.5 92.5h61zM379 860l-197 -122h-89l175 122h111z" />
    <glyph glyph-name="space_uni032E" unicode="&#xea05;" 
d="M396 -61q-2 -86 -48.5 -139.5t-112.5 -53.5q-64 0 -111 53t-49 140h61q1 -57 30 -92t70 -35q39 0 68.5 34.5t30.5 92.5h61z" />
    <glyph glyph-name="space_uni032F" unicode="&#xea06;" 
d="M396 -254h-61q-1 57 -30 92t-70 35q-39 0 -68.5 -34.5t-30.5 -92.5h-61q2 86 48.5 139.5t112.5 53.5q64 0 111 -53t49 -140z" />
    <glyph glyph-name="uni0306.cap" unicode="&#xea07;" horiz-adv-x="0" 
d="M-65 967q-2 -86 -48.5 -139.5t-112.5 -53.5q-64 0 -111 53t-49 140h61q1 -57 30 -92t70 -35q39 0 68.5 34.5t30.5 92.5h61z" />
    <glyph glyph-name="space_uni0306_uni0300.cap" unicode="&#xea08;" 
d="M396 669q-2 -86 -48.5 -139.5t-112.5 -53.5q-64 0 -111 53t-49 140h61q1 -57 30 -92t70 -35q39 0 68.5 34.5t30.5 92.5h61zM378 704l-175 122h-111l197 -122h89z" />
    <glyph glyph-name="space_uni0306_uni0300" unicode="&#xea09;" 
d="M396 703q-2 -86 -48.5 -139.5t-112.5 -53.5q-64 0 -111 53t-49 140h61q1 -57 30 -92t70 -35q39 0 68.5 34.5t30.5 92.5h61zM378 738l-175 122h-111l197 -122h89z" />
    <glyph glyph-name="space_uni0306_uni0309.cap" unicode="&#xea0a;" 
d="M396 669q-2 -86 -48.5 -139.5t-112.5 -53.5q-64 0 -111 53t-49 140h61q1 -57 30 -92t70 -35q39 0 68.5 34.5t30.5 92.5h61zM326 823q0 -30 -25 -47l-4 -2q-32 -21 -45 -35t-13 -34v-20l-1 -1h-17v1v20q0 28 15 52.5t41 38.5q16 10 16 27q0 23 -15 34t-48 11
q-48 0 -75 -39h-1l-8 23v1q32 42 84 42q45 0 71 -19q25 -19 25 -53z" />
    <glyph glyph-name="space_uni0306_uni0309" unicode="&#xea0b;" 
d="M396 703q-2 -86 -48.5 -139.5t-112.5 -53.5q-64 0 -111 53t-49 140h61q1 -57 30 -92t70 -35q39 0 68.5 34.5t30.5 92.5h61zM326 857q0 -30 -25 -47l-4 -2q-32 -21 -45 -35t-13 -34v-20l-1 -1h-17v1v20q0 28 15 52.5t41 38.5q16 10 16 27q0 23 -15 34t-48 11
q-48 0 -75 -39h-1l-8 23v1q32 42 84 42q45 0 71 -19q25 -19 25 -53z" />
    <glyph glyph-name="space_uni0311.cap" unicode="&#xea0c;" 
d="M396 476h-61q-1 57 -30 92t-70 35q-39 0 -68.5 -34.5t-30.5 -92.5h-61q2 86 48.5 139.5t112.5 53.5q64 0 111 -53t49 -140z" />
    <glyph glyph-name="space_uni0311" unicode="&#xea0d;" 
d="M396 510h-61q-1 57 -30 92t-70 35q-39 0 -68.5 -34.5t-30.5 -92.5h-61q2 86 48.5 139.5t112.5 53.5q64 0 111 -53t49 -140z" />
    <glyph glyph-name="uni0311.cap" unicode="&#xea0e;" horiz-adv-x="0" 
d="M-65 774h-61q-1 57 -30 92t-70 35q-39 0 -68.5 -34.5t-30.5 -92.5h-61q2 86 48.5 139.5t112.5 53.5q64 0 111 -53t49 -140z" />
    <glyph glyph-name="space_uni0306_uni0303.cap" unicode="&#xea0f;" 
d="M396 669q-2 -86 -48.5 -139.5t-112.5 -53.5q-64 0 -111 53t-49 140h61q1 -57 30 -92t70 -35q39 0 68.5 34.5t30.5 92.5h61zM392 841q-1 -55 -29.5 -86t-62.5 -31q-26 0 -73 33q-31 23 -53 23q-34 0 -34 -56h-61q1 55 29.5 86t62.5 31q26 0 73 -33q31 -23 53 -23
q34 0 34 56h61z" />
    <glyph glyph-name="space_uni0306_uni0303" unicode="&#xea10;" 
d="M396 703q-2 -86 -48.5 -139.5t-112.5 -53.5q-64 0 -111 53t-49 140h61q1 -57 30 -92t70 -35q39 0 68.5 34.5t30.5 92.5h61zM392 875q-1 -55 -29.5 -86t-62.5 -31q-26 0 -73 33q-31 23 -53 23q-34 0 -34 -56h-61q1 55 29.5 86t62.5 31q26 0 73 -33q31 -23 53 -23
q34 0 34 56h61z" />
    <glyph glyph-name="caron.cap" unicode="&#xea11;" 
d="M391 600l-126 -134h-60l-126 134h59l97 -97l97 97h59z" />
    <glyph glyph-name="uni030C.cap" unicode="&#xea14;" horiz-adv-x="0" 
d="M-71 956l-125 -172h-60l-125 172h59l96 -123l96 123h59z" />
    <glyph glyph-name="circumflex.cap" unicode="&#xea15;" 
d="M391 466h-59l-97 97l-97 -97h-59l126 134h60z" />
    <glyph glyph-name="space_uni0302_uni0301.cap" unicode="&#xea16;" 
d="M391 466h-59l-97 97l-97 -97h-59l126 134h60zM378 757l-197 -122h-89l175 122h111z" />
    <glyph glyph-name="space_uni0302_uni0301" unicode="&#xea17;" 
d="M391 520h-59l-97 97l-97 -97h-59l126 134h60zM378 811l-197 -122h-89l175 122h111z" />
    <glyph glyph-name="uni0302.cap" unicode="&#xea18;" horiz-adv-x="0" 
d="M-71 784h-59l-96 123l-96 -123h-59l125 172h60z" />
    <glyph glyph-name="space_uni0302_uni0300.cap" unicode="&#xea19;" 
d="M391 466h-59l-97 97l-97 -97h-59l126 134h60zM378 635l-175 122h-111l197 -122h89z" />
    <glyph glyph-name="space_uni0302_uni0300" unicode="&#xea1a;" 
d="M391 520h-59l-97 97l-97 -97h-59l126 134h60zM378 689l-175 122h-111l197 -122h89z" />
    <glyph glyph-name="space_uni0302_uni0309.cap" unicode="&#xea1b;" 
d="M391 466h-59l-97 97l-97 -97h-59l126 134h60zM415 754q0 -30 -25 -47l-4 -2q-32 -21 -45 -35t-13 -34v-20l-1 -1h-17v1v20q0 28 15 52.5t41 38.5q16 10 16 27q0 24 -15 34q-15 11 -48 11q-48 0 -75 -39h-1l-8 23v1q32 42 84 42q45 0 71 -19q25 -19 25 -53z" />
    <glyph glyph-name="space_uni0302_uni0309" unicode="&#xea1c;" 
d="M391 520h-59l-97 97l-97 -97h-59l126 134h60zM415 808q0 -30 -25 -47l-4 -2q-32 -21 -45 -35t-13 -34v-20l-1 -1h-17v1v20q0 28 15 52.5t41 38.5q16 10 16 27q0 24 -15 34q-15 11 -48 11q-48 0 -75 -39h-1l-8 23v1q32 42 84 42q45 0 71 -19q25 -19 25 -53z" />
    <glyph glyph-name="space_uni0302_uni0303.cap" unicode="&#xea1d;" 
d="M391 466h-59l-97 97l-97 -97h-59l126 134h60zM392 772q-1 -55 -29.5 -86t-62.5 -31q-26 0 -73 33q-31 23 -53 23q-34 0 -34 -56h-61q1 55 29.5 86t62.5 31q26 0 73 -33q31 -23 53 -23q34 0 34 56h61z" />
    <glyph glyph-name="space_uni0302_uni0303" unicode="&#xea1e;" 
d="M391 520h-59l-97 97l-97 -97h-59l126 134h60zM392 826q-1 -55 -29.5 -86t-62.5 -31q-26 0 -73 33q-31 23 -53 23q-34 0 -34 -56h-61q1 55 29.5 86t62.5 31q26 0 73 -33q31 -23 53 -23q34 0 34 56h61z" />
    <glyph glyph-name="space_uni0326" unicode="&#xea1f;" 
d="M272 -129l-37 -113h-36l23 112h-22v72h72v-71z" />
    <glyph glyph-name="space_uni030F.cap" unicode="&#xea25;" 
d="M371 476h-61l-74 176h76zM214 476h-61l-74 176h76z" />
    <glyph glyph-name="space_uni030F" unicode="&#xea26;" 
d="M371 518h-61l-74 176h76zM214 518h-61l-74 176h76z" />
    <glyph glyph-name="uni030F.cap" unicode="&#xea27;" horiz-adv-x="0" 
d="M-90 782h-61l-74 176h76zM-247 782h-61l-74 176h76z" />
    <glyph glyph-name="dieresis.cap" unicode="&#xea28;" 
d="M191 466h-76v75h76v-75zM355 466h-76v75h76v-75z" />
    <glyph glyph-name="space_uni0308_uni0301.cap" unicode="&#xea29;" 
d="M191 466h-76v75h76v-75zM355 466h-76v75h76v-75zM426 709l-197 -122h-89l175 122h111z" />
    <glyph glyph-name="space_uni0308_uni0301" unicode="&#xea2a;" 
d="M203 569h-76v75h76v-75zM343 569h-76v75h76v-75zM426 823l-197 -122h-89l175 122h111z" />
    <glyph glyph-name="space_uni0308_uni030C.cap" unicode="&#xea2b;" 
d="M191 466h-76v75h76v-75zM355 466h-76v75h76v-75zM391 711l-126 -134h-60l-126 134h59l97 -97l97 97h59z" />
    <glyph glyph-name="space_uni0308_uni030C" unicode="&#xea2c;" 
d="M203 569h-76v75h76v-75zM343 569h-76v75h76v-75zM391 825l-126 -134h-60l-126 134h59l97 -97l97 97h59z" />
    <glyph glyph-name="uni0308.cap" unicode="&#xea2d;" horiz-adv-x="0" 
d="M-258 833h-76v75h76v-75zM-118 833h-76v75h76v-75z" />
    <glyph glyph-name="space_uni0308_uni0300.cap" unicode="&#xea2e;" 
d="M191 466h-76v75h76v-75zM355 466h-76v75h76v-75zM330 587h-89l-197 122h111z" />
    <glyph glyph-name="space_uni0308_uni0300" unicode="&#xea2f;" 
d="M203 569h-76v75h76v-75zM343 569h-76v75h76v-75zM330 701h-89l-197 122h111z" />
    <glyph glyph-name="dotaccent.cap" unicode="&#xea30;" horiz-adv-x="261" 
d="M173 466h-84v84h84v-84z" />
    <glyph glyph-name="uni0307.cap" unicode="&#xea31;" horiz-adv-x="0" 
d="M-183 828h-84v84h84v-84z" />
    <glyph glyph-name="grave.cap" unicode="&#xea32;" 
d="M330 476h-89l-197 122h111z" />
    <glyph glyph-name="uni0300.cap" unicode="&#xea33;" horiz-adv-x="0" 
d="M-159 782h-61l-139 176h76z" />
    <glyph glyph-name="space_uni0309.cap" unicode="&#xea34;" 
d="M325 605q0 -30 -25 -47l-4 -2q-32 -21 -45 -35t-13 -34v-20l-1 -1h-17v1v20q0 28 15 52.5t41 38.5q16 10 16 27q0 23 -15 34t-48 11q-48 0 -75 -39h-1l-8 23v1q32 42 84 42q45 0 71 -19q25 -19 25 -53z" />
    <glyph glyph-name="space_uni0309" unicode="&#xea35;" 
d="M325 640q0 -30 -25 -47l-4 -2q-32 -21 -45 -35t-13 -34v-20l-1 -1h-17v1v20q0 28 15 52.5t41 38.5q16 10 16 27q0 24 -15 34q-15 11 -48 11q-48 0 -75 -39h-1l-8 23v1q32 42 84 42q45 0 71 -19q25 -19 25 -53z" />
    <glyph glyph-name="uni0309.cap" unicode="&#xea36;" horiz-adv-x="0" 
d="M-136 904q0 -30 -25 -47l-4 -2q-32 -21 -45 -35t-13 -34v-20l-1 -1h-17v1v20q0 28 15 52.5t41 38.5q16 10 16 27q0 24 -15 34q-15 11 -48 11q-48 0 -75 -39h-1l-8 23v1q32 42 84 42q45 0 71 -19q25 -19 25 -53z" />
    <glyph glyph-name="hungarumlaut.cap" unicode="&#xea38;" 
d="M234 652l-74 -176h-61l59 176h76zM391 652l-74 -176h-61l59 176h76z" />
    <glyph glyph-name="uni030B.cap" unicode="&#xea39;" horiz-adv-x="0" 
d="M-227 958l-74 -176h-61l59 176h76zM-70 958l-74 -176h-61l59 176h76z" />
    <glyph glyph-name="space_uni0332" unicode="&#xea3a;" 
d="M405 -190h-339v64h339v-64z" />
    <glyph glyph-name="macron.cap" unicode="&#xea3b;" 
d="M405 486h-339v64h339v-64z" />
    <glyph glyph-name="macron.cap.alt" unicode="&#xea3c;" 
d="M327 486h-183v64h183v-64z" />
    <glyph glyph-name="macron.alt" unicode="&#xea3d;" 
d="M327 574h-183v64h183v-64z" />
    <glyph glyph-name="space_uni0331" unicode="&#xea3e;" 
d="M405 -190h-339v64h339v-64z" />
    <glyph glyph-name="uni0304.cap" unicode="&#xea3f;" horiz-adv-x="0" 
d="M-56 838h-339v64h339v-64z" />
    <glyph glyph-name="ring.cap" unicode="&#xea40;" horiz-adv-x="625" 
d="M359 518q0 39 -47 39t-47 -39t47 -39t47 39zM417 518q0 -35 -30.5 -61.5t-74.5 -26.5t-74.5 26.5t-30.5 61.5t30.5 61.5t74.5 26.5t74.5 -26.5t30.5 -61.5z" />
    <glyph glyph-name="space_uni030A_uni0301.cap" unicode="&#xea41;" horiz-adv-x="625" 
d="M359 518q0 39 -47 39t-47 -39t47 -39t47 39zM417 518q0 -35 -30.5 -61.5t-74.5 -26.5t-74.5 26.5t-30.5 61.5t30.5 61.5t74.5 26.5t74.5 -26.5t30.5 -61.5zM455 763l-197 -122h-89l175 122h111z" />
    <glyph glyph-name="space_uni030A_uni0301" unicode="&#xea42;" horiz-adv-x="625" 
d="M359 595q0 39 -47 39t-47 -39t47 -39t47 39zM417 595q0 -35 -30.5 -61.5t-74.5 -26.5t-74.5 26.5t-30.5 61.5t30.5 61.5t74.5 26.5t74.5 -26.5t30.5 -61.5zM455 840l-197 -122h-89l175 122h111z" />
    <glyph glyph-name="uni030A.cap" unicode="&#xea43;" horiz-adv-x="0" 
d="M-179 859q0 39 -47 39t-47 -39t47 -39t47 39zM-121 859q0 -35 -30.5 -61.5t-74.5 -26.5t-74.5 26.5t-30.5 61.5t30.5 61.5t74.5 26.5t74.5 -26.5t30.5 -61.5z" />
    <glyph glyph-name="tilde.cap" unicode="&#xea44;" 
d="M392 583q-1 -55 -29.5 -86t-62.5 -31q-26 0 -73 33q-31 23 -53 23q-34 0 -34 -56h-61q1 55 29.5 86t62.5 31q26 0 73 -33q31 -23 53 -23q34 0 34 56h61z" />
    <glyph glyph-name="space_uni0330" unicode="&#xea45;" 
d="M392 -99q-1 -55 -29.5 -86t-62.5 -31q-26 0 -73 33q-31 23 -53 23q-34 0 -34 -56h-61q1 55 29.5 86t62.5 31q26 0 73 -33q31 -23 53 -23q34 0 34 56h61z" />
    <glyph glyph-name="uni0303.cap" unicode="&#xea46;" horiz-adv-x="0" 
d="M-69 929q-1 -55 -29.5 -86t-62.5 -31q-26 0 -73 33q-31 23 -53 23q-34 0 -34 -56h-61q1 55 29.5 86t62.5 31q26 0 73 -33q31 -23 53 -23q34 0 34 56h61z" />
    <glyph glyph-name="acute.ts1" unicode="&#xeb02;" 
d="M391 716l-145 -190h-50l33 47l102 143h60z" />
    <glyph glyph-name="Aogonekacute" unicode="&#xeb03;" horiz-adv-x="625" 
d="M621 -187q-53 -25 -98 -25q-47 0 -72.5 25t-26.5 60q-2 37 22.5 71t64.5 56l-71 202h-268l-70 -202h-76l243 694h86l243 -694h-23q-89 -50 -88 -104q1 -34 53 -38q30 -1 67 14zM421 258l-70 207q-37 111 -44 152h-1q-7 -43 -115 -359h230zM503 862l-197 -122h-89l175 122
h111z" />
    <glyph glyph-name="aogonekacute" unicode="&#xeb04;" horiz-adv-x="451" 
d="M422 -187q-53 -25 -98 -25q-47 0 -72.5 25t-26.5 60q-2 37 22.5 71t64.5 56v37q-61 -45 -154 -45q-55 0 -81.5 40.5t-26.5 81.5q0 59 69 92.5t191 37.5v38q0 47 -22 74t-60 27q-75 0 -140 -47l-6 66q69 40 147 40q68 0 112.5 -44.5t44.5 -114.5v-283h-11
q-88 -50 -87 -104q1 -34 53 -38q29 -1 67 14zM310 132v62q-21 -1 -43.5 -3.5t-60 -9.5t-60.5 -24t-23 -41q0 -27 23.5 -45t60.5 -18q44 0 73 19q30 18 30 60zM358 694l-139 -176h-61l124 176h76z" />
    <glyph glyph-name="bigcircle" unicode="&#xeb08;" horiz-adv-x="694" 
d="M694 347q0 -144 -101.5 -245.5t-245.5 -101.5t-245.5 101.5t-101.5 245.5t101.5 245.5t245.5 101.5t245.5 -101.5t101.5 -245.5zM660 347q0 130 -91.5 221.5t-221.5 91.5t-221.5 -91.5t-91.5 -221.5t91.5 -221.5t221.5 -91.5t221.5 91.5t91.5 221.5z" />
    <glyph glyph-name="star.alt" unicode="&#xeb09;" 
d="M475 306l-202 -90l111 -193l-137 152l-12 10l-12 -10l-137 -152l111 193l-202 90l217 -46l22 218h2l22 -218z" />
    <glyph glyph-name="breve.ts1" unicode="&#xeb0a;" horiz-adv-x="575" 
d="M495 716q0 -89 -63.5 -144.5t-144.5 -55.5q-85 0 -146.5 58t-61.5 142h50q0 -63 47.5 -105.5t109.5 -42.5t110.5 42.5t48.5 105.5h50z" />
    <glyph glyph-name="caron.ts1" unicode="&#xeb0d;" horiz-adv-x="575" 
d="M452 732q-6 -13 -19 -36.5t-15 -27.5q-66 -117 -91 -168q-2 -3 -5 -9.5t-5 -10t-6.5 -6.5t-10.5 -3h-34q-3 1 -5 4t-4 7.5t-3 5.5l-93 171q-37 68 -39 73h34l15 -2l33 -55l82 -149h2l82 149l33 55z" />
    <glyph glyph-name="copyleft" unicode="&#xeb0f;" horiz-adv-x="694" 
d="M694 347q0 -144 -101.5 -245.5t-245.5 -101.5t-245.5 101.5t-101.5 245.5t101.5 245.5t245.5 101.5t245.5 -101.5t101.5 -245.5zM660 347q0 130 -91.5 221.5t-221.5 91.5t-221.5 -91.5t-91.5 -221.5t91.5 -221.5t221.5 -91.5t221.5 91.5t91.5 221.5zM534 347
q0 -100 -59.5 -173t-151.5 -73q-40 0 -64.5 8t-57.5 30l2 22q0 3 1 11.5t1 12.5q30 -24 55.5 -32.5t62.5 -8.5q69 0 111.5 61t42.5 142q0 83 -43.5 143t-108.5 60q-59 0 -108 -35l-10 55q60 24 117 24q90 0 150 -73t60 -174z" />
    <glyph glyph-name="cwm" unicode="&#xeb10;" horiz-adv-x="0" 
 />
    <glyph glyph-name="cwmascender" unicode="&#xeb11;" horiz-adv-x="0" 
 />
    <glyph glyph-name="cwmcapital" unicode="&#xeb12;" horiz-adv-x="0" 
 />
    <glyph glyph-name="dblgrave.ts1" unicode="&#xeb15;" 
d="M207 526l-49 2l-23 50l-57 138h42l17 -2zM363 526l-49 2l-23 50l-57 138h42l17 -2z" />
    <glyph glyph-name="died" unicode="&#xeb16;" 
d="M417 360h-152v-387h-60v386h-153v54h153v203h60v-202h152v-54z" />
    <glyph glyph-name="dieresis.ts1" unicode="&#xeb17;" 
d="M176 586h-65v65h65v-65zM358 586h-65v65h65v-65z" />
    <glyph glyph-name="space_uni0323" unicode="&#xeb19;" horiz-adv-x="261" 
d="M173 -200h-84v84h84v-84z" />
    <glyph glyph-name="Eogonekacute" unicode="&#xeb1e;" horiz-adv-x="561" 
d="M526 -187q-53 -25 -98 -25q-47 0 -72.5 25t-26.5 60q-2 37 22.5 71t64.5 56h-328v692h420v-65h-171q-6 0 -18 0.5t-18 0.5h-129v-238h310v-61h-310v-262l134 1l215 1v-69h-42q-88 -50 -87 -104q1 -34 53 -38q29 -1 67 14zM471 862l-197 -122h-89l175 122h111z" />
    <glyph glyph-name="eogonekacute" unicode="&#xeb1f;" horiz-adv-x="418" 
d="M391 219h-290q2 -79 42.5 -122.5t93.5 -43.5q79 0 143 52l3 -37q3 -23 3 -27q-32 -23 -76 -37q-89 -50 -88 -108q1 -34 53 -38q29 -1 67 14l14 -59q-53 -25 -98 -25q-47 0 -72.5 25t-26.5 60q-4 65 77 119q-86 0 -146 66t-60 159q0 94 56.5 159.5t135.5 65.5
q90 0 135 -73q34 -56 34 -150zM325 274q-5 30 -16.5 51.5t-23 32t-26.5 16t-22 6.5t-15 1q-40 0 -71.5 -31.5t-41.5 -75.5h216zM342 694l-139 -176h-61l124 176h76z" />
    <glyph glyph-name="S_S" unicode="&#xeb28;" horiz-adv-x="1045" 
d="M469 191q0 -84 -60.5 -145.5t-150.5 -61.5q-120 0 -216 70l14 79q88 -81 201 -81q62 0 99 39.5t37 90.5q0 38 -21.5 71.5t-61.5 49.5q-12 5 -69 20q-35 9 -54 15t-43 20t-42 35q-50 56 -50 125q0 76 59.5 134t152.5 58q90 0 173 -49l-14 -80q-68 63 -159 63
q-62 0 -99 -35.5t-37 -81.5q0 -36 26 -70q17 -21 38.5 -30.5t63.5 -20.5q70 -19 100.5 -32.5t58.5 -44.5q54 -60 54 -138zM991 191q0 -84 -60.5 -145.5t-150.5 -61.5q-120 0 -216 70l14 79q88 -81 201 -81q62 0 99 39.5t37 90.5q0 38 -21.5 71.5t-61.5 49.5q-12 5 -69 20
q-35 9 -54 15t-43 20t-42 35q-50 56 -50 125q0 76 59.5 134t152.5 58q90 0 173 -49l-14 -80q-68 63 -159 63q-62 0 -99 -35.5t-37 -81.5q0 -36 26 -70q17 -21 38.5 -30.5t63.5 -20.5q70 -19 100.5 -32.5t58.5 -44.5q54 -60 54 -138z" />
    <glyph glyph-name="gnaborretni" unicode="&#xeb29;" horiz-adv-x="444" 
d="M248 420h-80v80h80v-80zM391 -150q-68 -43 -151 -52v-25h-64v26q-63 9 -93.5 51t-30.5 103q0 72 47 121q77 83 77 206v51h64v-53q0 -34 -5 -66l4 -352q69 7 130 52zM180 66q-10 -15 -25 -35q-10 -12 -14.5 -19.5t-8.5 -23.5t-4 -38q0 -74 49 -88z" />
    <glyph glyph-name="grave.ts1" unicode="&#xeb2a;" 
d="M273 528h-50l-145 188h41l19 -2z" />
    <glyph glyph-name="guarani" unicode="&#xeb2b;" horiz-adv-x="627" 
d="M563 33q-96 -49 -195 -49q-27 0 -48 4v-84h-64v104q-87 40 -140.5 132t-53.5 207q0 114 53.5 206.5t140.5 132.5v104h64v-84q21 4 49 4q101 0 186 -49l-14 -80h-1q-72 65 -171 65q-27 0 -49 -7v-584q22 -7 49 -7q61 0 118 19v166h-122v61h198v-261zM256 88v519
q-51 -39 -80.5 -108.5t-29.5 -151.5q0 -81 29.5 -150.5t80.5 -108.5z" />
    <glyph glyph-name="hungarumlaut.ts1" unicode="&#xeb2e;" 
d="M235 716l-57 -138l-23 -50l-49 -2l18 49l52 141h59zM391 716l-57 -138l-23 -50l-49 -2l18 49l52 141h59z" />
    <glyph glyph-name="hyphen.alt" unicode="&#xeb2f;" horiz-adv-x="157" 
d="M260 186h-250v58h250v-58z" />
    <glyph glyph-name="hyphen.prop" unicode="&#xeb30;" horiz-adv-x="313" 
d="M282 294h-250v58h250v-58z" />
    <glyph glyph-name="hyphendbl" unicode="&#xeb31;" horiz-adv-x="313" 
d="M260 274h-250v48h250v-48zM260 88h-250v48h250v-48z" />
    <glyph glyph-name="hyphendbl.alt" unicode="&#xeb32;" horiz-adv-x="157" 
d="M260 274h-250v48h250v-48zM260 88h-250v48h250v-48z" />
    <glyph glyph-name="Iogonekacute" unicode="&#xeb35;" horiz-adv-x="259" 
d="M218 -187q-53 -25 -98 -25q-47 0 -72.5 25t-26.5 60q-2 37 22.5 71t64.5 56h-21v694h84v-694q-88 -50 -87 -104q1 -34 53 -38q29 -1 67 14zM373 862l-197 -122h-89l175 122h111z" />
    <glyph glyph-name="iogonekacute" unicode="&#xeb36;" horiz-adv-x="223" 
d="M195 -187q-53 -25 -98 -25q-47 0 -72.5 25t-26.5 60q-2 37 22.5 71t64.5 56h-11v430h74v-430q-88 -50 -87 -104q1 -34 53 -38q30 -1 67 14zM274 694l-139 -176h-61l124 176h76z" />
    <glyph glyph-name="Jacute" unicode="&#xeb3a;" horiz-adv-x="443" 
d="M365 149q0 -80 -45 -122.5t-120 -42.5q-82 0 -161 42l13 73q49 -54 121 -54q61 0 85.5 31.5t24.5 75.5v542h82v-545zM569 862l-197 -122h-89l175 122h111z" />
    <glyph glyph-name="jacute" unicode="&#xeb3b;" horiz-adv-x="249" 
d="M174 -60q0 -64 -35 -103.5t-84 -39.5q-59 0 -113 34l20 61q28 -31 69 -31q27 0 48 15t21 55v499h74v-490zM300 694l-139 -176h-61l124 176h76z" />
    </font>
</defs>
</svg>
