<?xml version="1.0" standalone="no"?>
<!DOCTYPE svg PUBLIC "-//W3C//DTD SVG 1.1//EN" "http://www.w3.org/Graphics/SVG/1.1/DTD/svg11.dtd" >
<svg>
<metadata>
Created by FontForge 20120731 at Mon Jul 14 22:19:52 2014
 By tom,,,
Copyright 2003, 2009 B. Jackowski and J. M. Nowacki (on behalf of TeX users groups). This work is released under the GUST Font License --  see http://tug.org/fonts/licenses/GUST-FONT-LICENSE.txt for details.
</metadata>
<defs>
<font id="lmsans12-regular" horiz-adv-x="490" >
  <font-face 
    font-family="LM Sans 12"
    font-weight="400"
    font-stretch="normal"
    units-per-em="1000"
    panose-1="0 0 5 0 0 0 0 0 0 0"
    ascent="806"
    descent="-194"
    x-height="444"
    cap-height="694"
    bbox="-411 -308 1407 1154"
    underline-thickness="44"
    underline-position="-131"
    unicode-range="U+0020-FB04"
  />
<missing-glyph horiz-adv-x="280" 
 />
    <glyph glyph-name="I_J" unicode="IJ" horiz-adv-x="699" 
d="M176 0h-86v694h86v-694zM619 148q0 -80 -46 -124.5t-125 -44.5q-86 0 -167 42l14 75q47 -55 124 -55q61 0 88.5 31t27.5 80v542h84v-546z" />
    <glyph glyph-name="i_j" unicode="ij" horiz-adv-x="465" 
d="M158 568h-86v86h86v-86zM386 568h-86v86h86v-86zM152 0h-74v444h74v-444zM386 -59q0 -67 -36.5 -106t-86.5 -39q-61 0 -118 34l15 60q28 -31 76 -31q7 0 14 1t19 5t21 11t15.5 21.5t6.5 33.5v513h74v-503z" />
    <glyph glyph-name="f_k" unicode="fk" horiz-adv-x="780" 
d="M288 386h-115v-386h-74v386h-73v58h73v92q0 72 37.5 120t93.5 48q33 0 58 -10v-66q-25 16 -58 16q-24 0 -41.5 -18.5t-17.5 -59.5v-122h117v-58zM750 0h-82l-152 223l-76 -79v-144h-70v694h73v-451l193 201h92l-164 -171z" />
    <glyph glyph-name="f_f" unicode="ff" horiz-adv-x="571" 
d="M340 628q-42 16 -79 16q-19 0 -37 -4.5t-35.5 -24t-17.5 -51.5v-120h110v-58h-108v-386h-74v386h-73v58h73v90q0 75 47 122.5t116 47.5q38 0 78 -10v-66zM611 628q-42 16 -79 16q-19 0 -37 -4.5t-35.5 -24t-17.5 -51.5v-120h110v-58h-108v-386h-74v534q0 75 47 122.5
t116 47.5q38 0 78 -10v-66z" />
    <glyph glyph-name="f_i" unicode="fi" horiz-adv-x="523" 
d="M447 614h-81v81h81v-81zM444 0h-74v444h74v-444zM288 386h-115v-386h-74v386h-73v58h73v92q0 72 37.5 120t93.5 48q33 0 58 -10v-68q-25 18 -58 18q-24 0 -41.5 -18.5t-17.5 -59.5v-122h117v-58z" />
    <glyph glyph-name="f_l" unicode="fl" horiz-adv-x="523" 
d="M288 386h-115v-386h-74v386h-73v58h73v92q0 72 37.5 120t93.5 48q33 0 58 -10v-66q-25 16 -58 16q-24 0 -41.5 -18.5t-17.5 -59.5v-122h117v-58zM444 0h-74v694h74v-694z" />
    <glyph glyph-name="f_f_i" unicode="&#xfb00;i" horiz-adv-x="795" 
d="M719 614h-81v81h81v-81zM716 0h-74v444h74v-444zM560 386h-115v-386h-74v536q0 72 37.5 120t93.5 48q31 0 58 -9v-68q-34 17 -58 17t-41.5 -18.5t-17.5 -59.5v-122h117v-58zM313 628q-32 16 -68 16q-28 0 -51 -17t-23 -63v-120h117v-58h-115v-386h-74v386h-73v58h73v91
q0 72 41.5 120.5t105.5 48.5q37 0 67 -10v-66z" />
    <glyph glyph-name="f_f_l" unicode="ffl" horiz-adv-x="795" 
d="M313 628q-32 16 -68 16q-28 0 -51 -17t-23 -63v-120h117v-58h-115v-386h-74v386h-73v58h73v91q0 72 41.5 120.5t105.5 48.5q37 0 67 -10v-66zM716 0h-74v694h74v-694zM560 386h-115v-386h-74v536q0 72 37.5 120t93.5 48q33 0 58 -10v-66q-25 16 -58 16q-24 0 -41.5 -18.5
t-17.5 -59.5v-122h117v-58z" />
    <glyph glyph-name=".notdef" horiz-adv-x="280" 
 />
    <glyph glyph-name=".null" horiz-adv-x="0" 
 />
    <glyph glyph-name="nonmarkingreturn" horiz-adv-x="333" 
 />
    <glyph glyph-name="space" unicode=" " horiz-adv-x="326" 
 />
    <glyph glyph-name="exclam" unicode="!" horiz-adv-x="311" 
d="M196 694l-8 -521h-65l-8 521h81zM196 0h-81v81h81v-81z" />
    <glyph glyph-name="quotedbl" unicode="&#x22;" horiz-adv-x="424" 
d="M174 429h-76v286h76v-286zM326 429h-76v286h76v-286z" />
    <glyph glyph-name="numbersign" unicode="#" horiz-adv-x="816" 
d="M761 153q0 -18 -32 -18h-220l-81 -306q-7 -23 -20 -23q-19 0 -19 19q0 4 4 18l77 292h-187l-81 -306q-7 -23 -20 -23q-19 0 -19 19q0 4 4 18l77 292h-158q-32 0 -32 19q0 18 32 18h169l41 155h-210q-32 0 -32 19q0 18 32 18h220l81 307q7 23 20 23q19 0 19 -19
q0 -4 -4 -18l-77 -293h187l81 307q7 23 20 23q19 0 19 -19q0 -4 -4 -18l-77 -293h158q32 0 32 -19q0 -18 -32 -18h-169l-41 -155h210q32 0 32 -19zM522 327h-188l-41 -155h188z" />
    <glyph glyph-name="dollar" unicode="$" 
d="M435 195q0 -77 -46 -134t-115 -68v-49h-58v47q-92 9 -172 68l12 68q71 -65 160 -73v270q-50 11 -85 36t-50 55.5t-21 54t-6 43.5q0 69 45 123t117 66v48h58v-47q39 -3 74.5 -17t52 -26t16.5 -15l-11 -62q-60 53 -132 58v-243q84 -20 122.5 -80t38.5 -123zM216 413v226
q-44 -11 -68 -43.5t-24 -69.5t23 -69.5t69 -43.5zM365 183q0 42 -24 78t-67 48v-253q41 11 66 46t25 81z" />
    <glyph glyph-name="percent" unicode="%" horiz-adv-x="816" 
d="M326 548q0 -85 -40 -143t-95 -58q-54 0 -95.5 57t-41.5 145q0 86 41.5 143.5t95.5 57.5t94.5 -57.5t40.5 -144.5zM645 731q0 -6 -7 -18l-426 -752q-9 -17 -20 -17q-8 0 -13.5 5.5t-5.5 13.5q0 6 7 18l425 751q10 18 22 18q7 0 12.5 -5t5.5 -14zM761 145q0 -85 -40 -143
t-95 -58q-54 0 -95.5 57t-41.5 145q0 86 41.5 143.5t95.5 57.5t94.5 -57.5t40.5 -144.5zM256 549q0 56 -18.5 98.5t-46.5 42.5q-7 0 -13.5 -2t-16 -11t-16 -23t-11.5 -41.5t-5 -64.5q0 -44 6.5 -74t17 -43.5t20 -18.5t18.5 -5q28 0 46.5 42t18.5 100zM691 146
q0 56 -18.5 98.5t-46.5 42.5q-7 0 -13.5 -2t-16 -11t-16 -23t-11.5 -41.5t-5 -64.5q0 -44 6.5 -74t17 -43.5t20 -18.5t18.5 -5q28 0 46.5 42t18.5 100z" />
    <glyph glyph-name="ampersand" unicode="&#x26;" horiz-adv-x="741" 
d="M686 -5q-59 -16 -112 -16q-83 0 -159 58q-91 -58 -194 -58q-78 0 -129 49.5t-51 116.5q0 32 13 60.5t24.5 41t31.5 30.5l80 72q-32 80 -32 169q0 83 37.5 140t98.5 57q58 0 93.5 -48t35.5 -107q0 -46 -36.5 -97t-113.5 -119q25 -56 77 -125.5t76 -96.5q115 100 165 284
l61 -17q-46 -183 -180 -309q49 -39 103 -39q55 0 111 20v-66zM353 561q0 18 -3.5 36.5t-18 38t-37.5 19.5q-28 0 -49.5 -26t-21.5 -77q0 -72 26 -149q36 35 52.5 53t34 48t17.5 57zM367 80q-90 97 -152 211q-61 -51 -79.5 -76t-18.5 -64q0 -42 27.5 -76t77.5 -34
q80 0 145 39z" />
    <glyph glyph-name="quotesingle" unicode="'" horiz-adv-x="272" 
d="M174 429h-76v286h76v-286z" />
    <glyph glyph-name="parenleft" unicode="(" horiz-adv-x="381" 
d="M326 -251h-60q-188 167 -188 501q0 332 188 500h60q-30 -27 -56 -64.5t-54.5 -97t-45 -147.5t-16.5 -192q0 -151 37 -273q24 -77 61.5 -135.5t73.5 -91.5z" />
    <glyph glyph-name="parenright" unicode=")" horiz-adv-x="381" 
d="M302 249q0 -332 -188 -500h-60q30 27 56 64.5t54.5 97t45 147.5t16.5 192q0 151 -37 273q-24 77 -61.5 135.5t-73.5 91.5h60q188 -167 188 -501z" />
    <glyph glyph-name="asterisk" unicode="*" 
d="M426 435q0 -13 -9.5 -23.5t-23.5 -10.5q-12 0 -24 9l-99 71l7 -132l1 -9q0 -16 -10 -25t-24 -9q-13 0 -23 9t-10 25l8 141l-100 -71q-12 -9 -23 -9q-14 0 -23.5 10.5t-9.5 23.5q0 20 21 32l113 61l-113 61q-21 12 -21 32q0 13 9.5 23.5t23.5 10.5q12 0 24 -9l99 -71
l-8 141q0 16 10 25t24 9q13 0 23 -9t10 -25l-8 -141l100 71q12 9 23 9q14 0 23.5 -10.5t9.5 -23.5q0 -20 -21 -32l-113 -61l113 -61q21 -12 21 -32z" />
    <glyph glyph-name="plus" unicode="+" horiz-adv-x="762" 
d="M707 249q0 -18 -32 -18h-276v-276q0 -32 -19 -32q-18 0 -18 32v276h-276q-32 0 -32 19q0 18 32 18h276v276q0 32 19 32q18 0 18 -32v-276h276q32 0 32 -19z" />
    <glyph glyph-name="comma" unicode="," horiz-adv-x="272" 
d="M176 1l-41 -126h-40l25 125h-25v81h81v-80z" />
    <glyph glyph-name="hyphen" unicode="-" horiz-adv-x="326" 
d="M271 193h-260v58h260v-58z" />
    <glyph glyph-name="period" unicode="." horiz-adv-x="272" 
d="M176 0h-81v81h81v-81z" />
    <glyph glyph-name="slash" unicode="/" 
d="M435 731q0 -4 -5 -17l-337 -943q-2 -6 -3 -8t-3.5 -6t-5.5 -5.5t-8 -1.5q-19 0 -19 19q0 4 5 17l337 942q8 22 21 22q7 0 12.5 -5t5.5 -14z" />
    <glyph glyph-name="zero" unicode="0" 
d="M448 326q0 -156 -41 -242q-25 -51 -68.5 -78t-94.5 -27q-52 0 -96 28.5t-66 77.5q-24 51 -32.5 104t-8.5 137q0 154 39 238q27 57 70 84.5t95 27.5q122 0 174 -135q29 -79 29 -215zM372 338q0 28 -0.5 45t-2.5 49.5t-7 54t-14 48.5t-22.5 43t-34.5 27t-47 11
q-77 0 -109 -95q-18 -57 -18 -183q0 -29 0.5 -47t3 -53t7 -58t13.5 -52t22.5 -46.5t34.5 -30t47 -12.5q79 0 109 107q18 62 18 192z" />
    <glyph glyph-name="one" unicode="1" 
d="M416 0h-322v58h122v518q-56 -24 -128 -24v40q0 13 2 16t13 3q109 2 172 65h19v-618h122v-58z" />
    <glyph glyph-name="two" unicode="2" 
d="M440 0h-391v63l223 222q88 87 88 176q0 66 -39.5 109.5t-102.5 43.5q-54 0 -85.5 -37t-50.5 -119q-33 44 -41 54q48 164 190 164q95 0 152 -62.5t57 -150.5q0 -62 -34.5 -110.5t-102.5 -108.5q-96 -86 -184 -177h107q6 0 18 0.5t18 0.5h178v-68z" />
    <glyph glyph-name="three" unicode="3" 
d="M448 180q0 -81 -59.5 -141t-145.5 -60q-125 0 -202 105l11 59q33 -51 85 -77.5t104 -26.5q53 0 87 40.5t34 101.5q0 33 -9.5 62.5t-40 55t-78.5 25.5h-71v60q3 0 22.5 2t36.5 3.5t19 1.5q42 9 71 47t29 87q0 46 -28.5 70t-70.5 24q-50 0 -92 -29.5t-61 -77.5l-35 54
q29 50 79.5 80t109.5 30q74 0 126 -43.5t52 -107.5q0 -51 -29 -97t-80 -74q63 -22 99.5 -69t36.5 -105z" />
    <glyph glyph-name="four" unicode="4" 
d="M462 172h-97v-172h-79v172h-259v60l248 423h90v-423h97v-60zM291 232v378q-1 -37 -77 -183q-11 -20 -110 -195h187z" />
    <glyph glyph-name="five" unicode="5" 
d="M440 203q0 -93 -63 -158.5t-152 -65.5q-117 0 -187 99l33 54q23 -45 66 -69t87 -24q52 0 91 40t39 126q0 82 -29.5 121.5t-70.5 39.5q-75 0 -110 -79h-65v368h328v-62h-257v-207q45 40 105 40q76 0 130.5 -65t54.5 -158z" />
    <glyph glyph-name="six" unicode="6" 
d="M447 222q0 -55 -13 -94t-46 -79q-59 -70 -142 -70q-27 0 -52 7.5t-53.5 31t-49.5 59.5t-35 99.5t-14 145.5q0 156 77.5 255t182.5 99q50 0 105 -20v-58q-55 21 -103 21q-74 0 -123.5 -65t-57.5 -176q67 81 167 81q67 0 112 -69.5t45 -167.5zM368 221q0 77 -23 119
q-34 59 -94 59t-93 -47t-33 -106q-1 -7 -1 -28q1 -13 3 -25t7 -35.5t13.5 -41.5t21 -37t32.5 -29.5t45 -10.5q57 0 92 53q30 45 30 129z" />
    <glyph glyph-name="seven" unicode="7" 
d="M448 592q-93 -109 -155 -265t-62 -337h-81q0 93 19.5 182.5t44 148.5t63 121.5t58 87t48.5 58.5h-120q-6 0 -18 -0.5t-18 -0.5h-186v68h407v-63z" />
    <glyph glyph-name="eight" unicode="8" 
d="M448 180q0 -81 -58.5 -141t-145.5 -60q-84 0 -143.5 60t-59.5 141q0 59 37.5 106.5t98.5 67.5q-50 15 -86.5 55t-36.5 93q0 70 55 122t136 52q79 0 134.5 -51.5t55.5 -122.5q0 -53 -36 -93t-87 -55q61 -20 98.5 -67.5t37.5 -106.5zM366 501q0 54 -33.5 86t-88.5 32
q-52 0 -86.5 -31.5t-34.5 -86.5q0 -50 32.5 -83.5t89.5 -33.5q55 0 88 33t33 84zM369 181q0 72 -38 107.5t-87 35.5q-47 0 -85.5 -35t-38.5 -108q0 -67 36 -104.5t89 -37.5q51 0 87.5 36.5t36.5 105.5z" />
    <glyph glyph-name="nine" unicode="9" 
d="M447 335q0 -158 -73 -257t-173 -99q-71 0 -130 46l31 53q40 -39 99 -39q68 0 113.5 66.5t51.5 172.5q-66 -82 -167 -82q-67 0 -112 70t-45 168q0 99 57 167q63 75 149 75q28 0 54.5 -9t53.5 -33t46.5 -61t32 -98.5t12.5 -139.5zM364 411q0 17 -1 24q-1 24 -6 50t-16 59
t-35 54t-58 21q-59 0 -96 -54q-31 -47 -31 -131q0 -75 23 -119q33 -59 94 -59q59 0 92.5 46.5t33.5 108.5z" />
    <glyph glyph-name="colon" unicode=":" horiz-adv-x="272" 
d="M176 363h-81v81h81v-81zM176 0h-81v81h81v-81z" />
    <glyph glyph-name="semicolon" unicode=";" horiz-adv-x="272" 
d="M176 363h-81v81h81v-81zM176 1l-41 -126h-40l25 125h-25v81h81v-80z" />
    <glyph glyph-name="less" unicode="&#x3c;" horiz-adv-x="762" 
d="M679 -9q0 -19 -19 -19q-4 1 -17 7l-541 249q-20 9 -20 22q0 12 20 21l541 249l17 7q19 0 19 -19q0 -12 -20 -21l-515 -238l515 -237q20 -9 20 -21z" />
    <glyph glyph-name="equal" unicode="=" horiz-adv-x="762" 
d="M707 345q0 -18 -32 -18h-589q-32 0 -32 19q0 18 32 18h589q32 0 32 -19zM707 153q0 -18 -32 -18h-589q-32 0 -32 19q0 18 32 18h589q32 0 32 -19z" />
    <glyph glyph-name="greater" unicode="&#x3e;" horiz-adv-x="762" 
d="M679 250q0 -13 -20 -22l-541 -249l-17 -7q-8 0 -13.5 5.5t-5.5 12.5q0 13 20 22l515 238l-514 237q-21 10 -21 22q0 7 5.5 12.5t13.5 5.5q4 -1 17 -7l541 -249q20 -9 20 -21z" />
    <glyph glyph-name="question" unicode="?" horiz-adv-x="462" 
d="M407 549q0 -72 -55 -119q-39 -32 -71 -85t-32 -124v-48h-65v51q0 78 31 142.5t78 105.5q38 31 38 78q0 94 -112 94q-81 0 -143 -55l-22 62q72 53 164 53q98 0 143.5 -44.5t45.5 -110.5zM257 0h-81v81h81v-81z" />
    <glyph glyph-name="at" unicode="@" horiz-adv-x="653" 
d="M598 85q-35 -40 -92 -67.5t-126 -27.5q-133 0 -229.5 103.5t-96.5 253.5t97 253.5t228 103.5q219 0 219 -342q0 -65 -18.5 -114.5t-48 -75.5t-59 -38.5t-56.5 -12.5q-74 0 -128 65t-54 161t54 161t128 65q34 0 82 -24q-34 95 -120 95q-98 0 -173.5 -85t-75.5 -212
q0 -123 73.5 -210t180.5 -87q71 0 143 31q8 4 25 4h47zM523 347q0 71 -31.5 118.5t-75.5 47.5q-43 0 -75 -48t-32 -118q0 -71 31.5 -118.5t75.5 -47.5q43 0 75 48t32 118z" />
    <glyph glyph-name="A" unicode="A" horiz-adv-x="647" 
d="M619 0h-89l-74 203h-282l-73 -203h-74l252 694h88zM435 259l-120 363l-119 -363h239z" />
    <glyph glyph-name="B" unicode="B" horiz-adv-x="650" 
d="M595 188q0 -75 -70.5 -131.5t-173.5 -56.5h-258v694h231q103 0 173 -52.5t70 -121.5q0 -48 -40 -91.5t-122 -65.5q79 -12 134.5 -61.5t55.5 -113.5zM490 519q0 49 -56.5 84t-136.5 35h-123v-247h124q79 0 135.5 37.5t56.5 90.5zM516 189q0 56 -58.5 99t-150.5 43h-133
v-275h149q82 0 137.5 39.5t55.5 93.5z" />
    <glyph glyph-name="C" unicode="C" horiz-adv-x="626" 
d="M575 45q-54 -34 -93 -45q-40 -11 -102 -11q-130 0 -222 105q-92 104 -92 253q0 151 92 253q43 49 100.5 77t121.5 28q53 0 94 -8q46 -9 91 -27l-15 -83q-40 29 -81 43q-39 12 -89 12q-95 0 -162 -86t-67 -209q0 -122 67 -208q68 -87 162 -87q62 0 100 12q37 12 89 51z
" />
    <glyph glyph-name="D" unicode="D" horiz-adv-x="704" 
d="M649 341q0 -142 -88 -241.5t-213 -99.5h-257v694h257q126 0 213.5 -103t87.5 -250zM565 342q0 133 -68.5 214.5t-171.5 81.5h-150v-582h150q101 0 170.5 77t69.5 209z" />
    <glyph glyph-name="E" unicode="E" horiz-adv-x="583" 
d="M541 0h-451v692h438v-63h-180q-6 0 -18 0.5t-18 0.5h-136v-240h324v-60h-324v-263h198q6 0 18 0.5t18 0.5h131v-68z" />
    <glyph glyph-name="F" unicode="F" horiz-adv-x="556" 
d="M514 629h-173q-6 0 -18 0.5t-18 0.5h-129v-254h297v-60h-297v-316h-86v692h424v-63z" />
    <glyph glyph-name="G" unicode="G" horiz-adv-x="653" 
d="M586 38q-98 -49 -206 -49q-130 0 -222 105q-92 104 -92 253q0 151 92 253q43 49 100.5 77t121.5 28q57 0 102 -11q44 -10 96 -38l-14 -83q-47 39 -86 53q-41 16 -98 16q-95 0 -162 -86t-67 -209q0 -122 67 -208q68 -87 162 -87q68 0 129 21v170h-129v60h206v-265z" />
    <glyph glyph-name="H" unicode="H" horiz-adv-x="686" 
d="M595 0h-86v331h-333v-331h-86v694h86v-303h333v303h86v-694z" />
    <glyph glyph-name="I" unicode="I" horiz-adv-x="266" 
d="M176 0h-86v694h86v-694z" />
    <glyph glyph-name="J" unicode="J" horiz-adv-x="459" 
d="M379 148q0 -80 -46 -124.5t-125 -44.5q-86 0 -167 42l14 75q47 -55 124 -55q61 0 88.5 31t27.5 80v542h84v-546z" />
    <glyph glyph-name="K" unicode="K" horiz-adv-x="674" 
d="M632 0h-92l-236 362l-129 -136v-226h-84v694h84v-369l350 369h94l-261 -275z" />
    <glyph glyph-name="L" unicode="L" horiz-adv-x="529" 
d="M487 0h-397v694h86v-632h48l263 2v-64z" />
    <glyph glyph-name="M" unicode="M" horiz-adv-x="850" 
d="M754 0h-77v618h-1q-22 -91 -216 -597h-73q-199 524 -214 596h-1v-617h-77v694h114l152 -409q11 -29 34 -97q27 -80 29 -93h1q10 46 101 291l114 308h114v-694z" />
    <glyph glyph-name="N" unicode="N" horiz-adv-x="686" 
d="M594 0h-123l-221 452l-81 168h-1v-620h-77v694h123l221 -452l81 -168h1v620h77v-694z" />
    <glyph glyph-name="O" unicode="O" horiz-adv-x="722" 
d="M667 345q0 -155 -90.5 -260.5t-216.5 -105.5q-123 0 -214.5 105.5t-91.5 260.5t90.5 262.5t216.5 107.5q124 0 215 -107t91 -263zM581 360q0 131 -65.5 212t-155.5 81q-88 0 -154 -80.5t-66 -212.5q0 -140 65.5 -229t155.5 -89q88 0 154 88.5t66 229.5z" />
    <glyph glyph-name="P" unicode="P" horiz-adv-x="623" 
d="M568 492q0 -81 -66.5 -142t-166.5 -61h-158v-289h-86v694h244q100 0 166.5 -60t66.5 -142zM489 493q0 60 -46 102.5t-129 42.5h-139v-291h139q82 0 128.5 42t46.5 104z" />
    <glyph glyph-name="Q" unicode="Q" horiz-adv-x="722" 
d="M667 345q0 -195 -145 -312l117 -158h-101l-84 121q-44 -17 -93 -17q-126 0 -216.5 105.5t-90.5 260.5t90.5 262.5t216.5 107.5q124 0 215 -107t91 -263zM583 345q0 136 -66 222t-157 86q-89 0 -155.5 -85.5t-66.5 -222.5q0 -135 66 -219.5t157 -84.5q30 0 56 9l-100 144
h87l78 -105q43 35 72 101t29 155z" />
    <glyph glyph-name="R" unicode="R" horiz-adv-x="630" 
d="M602 0h-86l-185 317h-156v-317h-84v694h236q104 0 176 -55.5t72 -131.5q0 -58 -44.5 -108.5t-123.5 -72.5zM496 507q0 54 -47 92.5t-133 38.5h-141v-261h141q88 0 134 39t46 91z" />
    <glyph glyph-name="S" unicode="S" horiz-adv-x="544" 
d="M489 189q0 -85 -62.5 -147.5t-157.5 -62.5q-120 0 -225 69l15 81q91 -83 210 -83q63 0 103 39.5t40 93.5q0 51 -32 85q-23 24 -43.5 33t-87.5 25q-56 14 -84.5 27.5t-62.5 47.5q-7 7 -15.5 18.5t-20.5 41.5t-12 62q0 78 62 137t159 59q41 0 78.5 -8.5t55 -17t46.5 -23.5
l-15 -81q-73 65 -166 65q-63 0 -103 -36t-40 -84q0 -41 40 -84q15 -15 36 -22.5t79 -21.5q59 -15 88.5 -28.5t61.5 -47.5q53 -60 53 -137z" />
    <glyph glyph-name="T" unicode="T" horiz-adv-x="668" 
d="M632 626h-131q-6 0 -18 0.5t-18 0.5h-88v-627h-86v627h-88q-6 0 -18 -0.5t-18 -0.5h-132v63h597v-63z" />
    <glyph glyph-name="U" unicode="U" horiz-adv-x="667" 
d="M576 233q0 -107 -71 -180.5t-170 -73.5q-100 0 -172.5 73t-72.5 181v461h86v-462q0 -95 47.5 -146t112.5 -51q66 0 115 51.5t49 145.5v462h76v-461z" />
    <glyph glyph-name="V" unicode="V" horiz-adv-x="647" 
d="M632 694l-264 -694h-90l-264 694h90l160 -429q57 -151 65 -191h1q10 45 101 288l125 332h76z" />
    <glyph glyph-name="W" unicode="W" horiz-adv-x="919" 
d="M904 694l-196 -694h-88l-109 396q-21 76 -34.5 132t-16.5 74l-3 17h-1q-6 -56 -69 -279l-94 -340h-83l-196 694h85l84 -304l43 -160q31 -130 33 -153h1q4 41 32 150t42 157l86 310h85l118 -430q37 -132 44 -188h1q4 40 32 142q33 124 40 148l91 328h73z" />
    <glyph glyph-name="X" unicode="X" horiz-adv-x="647" 
d="M632 0h-100l-216 306l-210 -306h-92l260 366l-247 328h101l188 -262l183 262h93l-234 -328z" />
    <glyph glyph-name="Y" unicode="Y" horiz-adv-x="647" 
d="M643 694l-278 -416v-278h-84v278l-278 416h100l170 -255q32 -49 57 -90q23 39 55 86l172 259h86z" />
    <glyph glyph-name="Z" unicode="Z" horiz-adv-x="598" 
d="M548 0h-494v41l380 593h-134q-6 0 -18 -0.5t-18 -0.5h-196v61h475v-40l-380 -592h32l259 2h94v-64z" />
    <glyph glyph-name="bracketleft" unicode="[" horiz-adv-x="283" 
d="M261 -250h-162v1000h162v-60h-91v-880h91v-60z" />
    <glyph glyph-name="backslash" unicode="\" horiz-adv-x="500" 
d="M443 -230q0 -8 -6 -14t-14 -6q-14 0 -22 22l-340 940l-5 18q0 8 6 14t14 6q14 0 22 -22l340 -940z" />
    <glyph glyph-name="bracketright" unicode="]" horiz-adv-x="283" 
d="M183 -250h-162v60h91v880h-91v60h162v-1000z" />
    <glyph glyph-name="asciicircum" unicode="^" horiz-adv-x="556" 
d="M561 584l-12 -22l-272 123l-271 -123l-11 22l283 160z" />
    <glyph glyph-name="underscore" unicode="_" horiz-adv-x="647" 
d="M647 -163h-647v76h647v-76z" />
    <glyph glyph-name="grave" unicode="`" 
d="M314 527h-60l-146 167h76z" />
    <glyph glyph-name="a" unicode="a" horiz-adv-x="469" 
d="M401 0h-74v37q-26 -22 -72 -34.5t-90 -12.5q-57 0 -84 41t-27 84q0 74 106 110q61 20 165 25v41q0 52 -24.5 81t-61.5 29q-79 0 -148 -50l-6 66q73 42 154 42q70 0 116 -47t46 -119v-293zM325 134v65q-27 0 -57.5 -3.5t-64.5 -12t-56 -26t-22 -41.5q0 -28 25.5 -47
t65.5 -19q44 0 76 20q33 20 33 64z" />
    <glyph glyph-name="b" unicode="b" horiz-adv-x="502" 
d="M466 223q0 -100 -54.5 -166.5t-127.5 -66.5q-72 0 -130 55v-45h-76v694h74v-296q69 56 155 56q68 0 113.5 -68.5t45.5 -162.5zM390 223q0 86 -40 128.5t-93 42.5q-66 0 -103 -57v-207q0 -32 28 -56q31 -24 65 -24q55 0 99 42t44 131z" />
    <glyph glyph-name="c" unicode="c" horiz-adv-x="435" 
d="M407 42q-71 -52 -160 -52t-150.5 68t-61.5 165q0 92 59 164t157 72q45 0 76 -8.5t74 -33.5l-12 -65q-37 25 -64.5 35t-73.5 10q-70 0 -105 -52t-35 -122q0 -74 38 -122.5t99 -48.5q83 0 153 56l2 -28q4 -16 4 -38z" />
    <glyph glyph-name="d" unicode="d" horiz-adv-x="502" 
d="M423 0h-76v51q-62 -61 -143 -61q-71 0 -120 67.5t-49 164.5t50.5 164.5t122.5 67.5q78 0 141 -52v292h74v-694zM347 118v223q-35 53 -93 53q-54 0 -98.5 -41.5t-44.5 -131.5q0 -86 40 -128.5t93 -42.5q65 0 103 68z" />
    <glyph glyph-name="e" unicode="e" horiz-adv-x="435" 
d="M407 225h-305q1 -78 43.5 -126.5t101.5 -48.5q81 0 148 57l3 -27q3 -33 3 -37q-73 -53 -156 -53q-88 0 -150 68.5t-62 166.5q0 97 58.5 165.5t139.5 68.5q94 0 140 -77q36 -60 36 -157zM348 279q-6 37 -20.5 63t-33.5 37t-33.5 15.5t-29.5 4.5q-43 0 -76.5 -34t-46.5 -86
h240z" />
    <glyph glyph-name="f" unicode="f" horiz-adv-x="299" 
d="M339 628q-38 16 -78 16q-34 0 -62 -17.5t-28 -62.5v-120h109v-58h-107v-386h-74v386h-73v58h73v90q0 73 46 121.5t117 48.5q42 0 77 -10v-66z" />
    <glyph glyph-name="g" unicode="g" 
d="M475 393q-25 2 -51 2q-28 0 -80 -5l-3 4q33 -46 33 -101q0 -68 -46 -115t-111 -47q-49 0 -90 29q-10 -15 -10 -37q0 -53 57 -53h85q203 0 203 -140q0 -57 -63 -96t-155 -39q-91 0 -154 39.5t-63 94.5q0 63 63 104q-25 30 -25 75q0 46 29 86q-33 45 -33 99q0 66 46 113.5
t111 47.5q54 0 93 -33q68 33 153 33zM305 293q0 53 -25.5 79.5t-62.5 26.5q-32 0 -59.5 -24t-27.5 -83q0 -53 25.5 -79.5t62.5 -26.5q32 0 59.5 24t27.5 83zM392 -71q0 69 -132 69h-87q-21 0 -37 -7t-23 -15.5t-11 -20.5t-4.5 -16.5t-0.5 -8.5q0 -36 43.5 -58t104.5 -22
q60 0 103.5 22.5t43.5 56.5z" />
    <glyph glyph-name="h" unicode="h" horiz-adv-x="502" 
d="M424 0h-76v294q0 18 -2.5 31t-10.5 31t-29 28t-54 10q-36 0 -59 -24.5t-31.5 -55t-8.5 -65.5v-249h-76v694h74v-309q55 69 139 69q134 0 134 -153v-301z" />
    <glyph glyph-name="i" unicode="i" horiz-adv-x="230" 
d="M152 0h-74v444h74v-444zM158 568h-86v86h86v-86z" />
    <glyph glyph-name="j" unicode="j" horiz-adv-x="258" 
d="M179 -59q0 -67 -36.5 -106t-86.5 -39q-61 0 -118 34l20 60q2 -3 9.5 -9.5t25.5 -14t38 -7.5q11 0 21 2t23.5 8.5t21.5 22.5t8 39v513h74v-503zM179 568h-86v86h86v-86z" />
    <glyph glyph-name="k" unicode="k" horiz-adv-x="475" 
d="M458 0h-82l-152 223l-76 -79v-144h-70v694h73v-451l193 201h92l-164 -171z" />
    <glyph glyph-name="l" unicode="l" horiz-adv-x="230" 
d="M152 0h-74v694h74v-694z" />
    <glyph glyph-name="m" unicode="m" horiz-adv-x="774" 
d="M697 0h-76v294q0 14 -1 25t-6.5 26t-15.5 25t-29 17t-45 7q-50 0 -74.5 -43.5t-24.5 -101.5v-249h-76v294q0 14 -1 25t-6.5 26t-15.5 25t-29 17t-45 7q-50 0 -74.5 -43.5t-24.5 -101.5v-249h-76v449h71v-69q60 74 142 74q102 0 125 -81q55 81 147 81q135 0 135 -153v-301
z" />
    <glyph glyph-name="n" unicode="n" horiz-adv-x="502" 
d="M424 0h-76v294q0 18 -2.5 31t-10.5 31t-29 28t-54 10q-36 0 -59 -24.5t-31.5 -55t-8.5 -65.5v-249h-76v449h71v-68q58 73 142 73q134 0 134 -153v-301z" />
    <glyph glyph-name="o" unicode="o" 
d="M459 220q0 -96 -63 -163t-152 -67q-87 0 -150.5 66.5t-63.5 163.5q0 99 63 169t152 70q87 0 150.5 -69.5t63.5 -169.5zM383 230q0 82 -41 125.5t-98 43.5q-54 0 -96 -42.5t-42 -126.5t40.5 -131t98.5 -47q56 0 97 46t41 132z" />
    <glyph glyph-name="p" unicode="p" horiz-adv-x="502" 
d="M466 223q0 -100 -54 -166.5t-128 -66.5q-70 0 -130 55v-239h-76v638h74v-47q67 57 157 57q68 0 112.5 -68.5t44.5 -162.5zM390 222q0 71 -39 120.5t-95 49.5q-64 0 -102 -56v-206q0 -31 28 -56q31 -24 65 -24q57 0 100 49.5t43 122.5z" />
    <glyph glyph-name="q" unicode="q" horiz-adv-x="502" 
d="M423 -194h-76v245q-10 -11 -26 -23t-49.5 -25t-68.5 -13q-70 0 -119 67.5t-49 163.5q0 99 54 166t129 67t131 -64v64h74v-648zM349 139v148q0 36 -25.5 70.5t-69.5 34.5q-56 0 -99.5 -48.5t-43.5 -122.5q0 -70 39 -120.5t95 -50.5q57 0 93 54q11 15 11 35z" />
    <glyph glyph-name="r" unicode="r" horiz-adv-x="333" 
d="M318 387q-69 -1 -117.5 -47.5t-48.5 -120.5v-219h-74v449h69v-88q64 92 171 93v-67z" />
    <glyph glyph-name="s" unicode="s" horiz-adv-x="375" 
d="M352 127q0 -55 -36.5 -96t-123.5 -41q-92 0 -165 44l12 68q69 -50 152 -50q92 0 92 69q0 15 -7 27t-15 19t-23 13t-23.5 8t-22.5 5q-36 7 -51 11t-33.5 13t-35.5 24q-39 36 -39 88q0 37 15.5 63.5t34.5 39t46 19t39.5 7.5t26.5 1q75 0 141 -31l-12 -65q-65 37 -139 37
q-83 0 -83 -62q0 -23 16 -38t30.5 -19.5t40.5 -9.5q53 -10 78 -20t50 -36q35 -44 35 -88z" />
    <glyph glyph-name="t" unicode="t" horiz-adv-x="354" 
d="M326 29q-76 -39 -144 -39q-82 0 -82 127v269h-82v58h84v127h69v-127h138v-58h-138v-252q0 -82 50 -82t90 35z" />
    <glyph glyph-name="u" unicode="u" horiz-adv-x="502" 
d="M424 0h-74v50q-67 -60 -168 -60q-58 0 -81.5 31t-23.5 90v333h76v-329q0 -37 14 -53.5t63 -16.5q51 0 84.5 29t33.5 84v286h76v-444z" />
    <glyph glyph-name="v" unicode="v" horiz-adv-x="448" 
d="M433 444l-165 -444h-89l-165 444h78l92 -257q36 -102 40 -133h1q6 40 60 191q24 67 34.5 95t38.5 104h75z" />
    <glyph glyph-name="w" unicode="w" horiz-adv-x="666" 
d="M650 444l-134 -444h-88l-71 250q-27 88 -29 136h-1q-6 -67 -102 -386h-77l-134 444h76l71 -247q29 -103 31 -139h1q3 46 45 190l57 196h69l66 -226q34 -116 40 -162h1q4 40 46 185l60 203h73z" />
    <glyph glyph-name="x" unicode="x" horiz-adv-x="448" 
d="M447 0h-84l-142 186l-138 -186h-83l187 229l-182 215h85l131 -162l126 162h84l-177 -215z" />
    <glyph glyph-name="y" unicode="y" horiz-adv-x="448" 
d="M433 444l-209 -538q-15 -39 -31.5 -63.5t-33.5 -33.5t-26.5 -11t-22.5 -2q-23 0 -71 8l-6 65q39 -15 77 -15q16 0 28 10.5t27 44.5l35 91l-186 444h79l71 -175q61 -153 66 -211h1q4 70 127 386h75z" />
    <glyph glyph-name="z" unicode="z" horiz-adv-x="425" 
d="M393 0h-366v40l261 346h-76q-6 0 -18 -0.5t-18 -0.5h-135v59h349v-39l-261 -345h85q6 0 18 0.5t18 0.5h143v-61z" />
    <glyph glyph-name="braceleft" unicode="{" horiz-adv-x="500" 
d="M427 -239q0 -11 -20 -11q-85 0 -139 38q-35 25 -43.5 51t-8.5 78v198q0 35 -13.5 60.5t-35 38t-40.5 18.5t-39 7q-5 1 -7 1t-4.5 1t-3.5 3t-1 6q0 11 14 11q63 4 104 45q19 20 22.5 42t3.5 96v183q1 53 57.5 88t133.5 35q20 0 20 -11q0 -9 -9 -11q-32 -2 -56 -10.5
t-33 -15.5t-22 -20q-17 -18 -20.5 -39t-3.5 -80v-180q0 -99 -118 -133q101 -29 116 -103q2 -10 2 -91v-150q0 -37 3 -48q8 -32 39.5 -57.5t85.5 -28.5q5 -1 7 -1t4.5 -1t3.5 -3t1 -6z" />
    <glyph glyph-name="bar" unicode="|" horiz-adv-x="278" 
d="M159 -217q0 -33 -20 -33t-20 33v934q0 33 20 33t20 -33v-934z" />
    <glyph glyph-name="braceright" unicode="}" horiz-adv-x="500" 
d="M427 250q0 -11 -14 -11q-63 -4 -104 -45q-19 -20 -22.5 -42t-3.5 -96v-183q-1 -53 -57.5 -88t-133.5 -35q-20 0 -20 11q0 9 9 11q32 2 56 10.5t33 15.5t22 20q17 18 20.5 39t3.5 80v180q0 99 118 133q-101 29 -116 103q-2 10 -2 91v150q0 37 -3 48q-8 32 -39.5 57.5
t-85.5 28.5q-5 1 -7 1t-4.5 1t-3.5 3t-1 6q0 11 20 11q83 0 139 -38q35 -25 43.5 -51t8.5 -78v-198q0 -35 13.5 -60.5t35 -38t40.5 -18.5t39 -7q5 -1 7 -1t4.5 -1t3.5 -3t1 -6z" />
    <glyph glyph-name="asciitilde" unicode="~" horiz-adv-x="556" 
d="M555 290l-54 -44q-20 -17 -57 -35q-40 -18 -73 -18q-42 0 -100 34q-65 37 -104 37q-68 0 -153 -71l-14 17l54 44q20 17 57 35q40 18 73 18q42 0 100 -34q65 -37 104 -37q68 0 153 71z" />
    <glyph glyph-name="uni00A0" unicode="&#xa0;" 
 />
    <glyph glyph-name="exclamdown" unicode="&#xa1;" horiz-adv-x="311" 
d="M196 419h-81v81h81v-81zM196 -194h-81l8 521h65z" />
    <glyph glyph-name="cent" unicode="&#xa2;" horiz-adv-x="435" 
d="M407 42q-62 -46 -137 -51v-53h-62v56q-75 14 -124 79t-49 150q0 81 46.5 148.5t126.5 83.5v51h62v-47q64 -3 131 -42l-12 -65q-34 23 -58 33t-61 12v-344q69 6 131 55l2 -28q4 -16 4 -38zM208 58v333q-48 -15 -72.5 -62.5t-24.5 -105.5q0 -61 26 -105.5t71 -59.5z" />
    <glyph glyph-name="sterling" unicode="&#xa3;" horiz-adv-x="647" 
d="M582 148q0 -69 -37.5 -119t-97.5 -50q-43 0 -103 16q-41 10 -62.5 14.5t-56 8.5t-57 -2.5t-35.5 -22.5l-60 48q99 124 110 215q4 27 -1 60h-117v62h96q-14 33 -19 58q-22 99 35 178.5t152 79.5q79 0 134 -59t55 -142h-76q0 51 -32.5 88t-80.5 37q-59 0 -93 -51t-20 -114
q4 -18 27 -75h145v-62h-130q6 -33 1 -69q-9 -73 -55 -152q57 0 159 -27q50 -13 84 -13q29 0 44 27.5t15 65.5h76z" />
    <glyph glyph-name="currency" unicode="&#xa4;" horiz-adv-x="762" 
d="M612 480q12 -13 -10 -35l-76 -76q43 -51 43 -119q0 -67 -43 -120l76 -76q22 -22 9 -36q-13 -12 -35 10l-76 76q-53 -42 -119 -42q-67 0 -120 42l-76 -76q-22 -22 -36 -9q-12 13 10 35l76 76q-43 55 -43 120q0 68 43 119l-76 76q-22 22 -9 36q13 12 35 -10l76 -76
q51 43 120 43q67 0 119 -42l76 75q22 22 36 9zM533 250q0 63 -44.5 107.5t-107.5 44.5t-108 -44.5t-45 -107.5t45 -107.5t108 -44.5t107.5 44.5t44.5 107.5z" />
    <glyph glyph-name="yen" unicode="&#xa5;" horiz-adv-x="647" 
d="M643 694l-224 -335h120v-62h-161l-13 -19v-64h174v-62h-174v-152h-84v152h-173v62h173v64l-13 19h-160v62h119l-224 335h100l170 -255l51 -80h12l49 76l172 259h86z" />
    <glyph glyph-name="brokenbar" unicode="&#xa6;" horiz-adv-x="278" 
d="M159 343q0 -31 -20 -31t-20 31v374q0 33 20 33t20 -33v-374zM159 -217q0 -33 -20 -33t-20 33v374q0 31 20 31t20 -31v-374z" />
    <glyph glyph-name="section" unicode="&#xa7;" horiz-adv-x="518" 
d="M484 200q0 -88 -73 -142q33 -46 33 -94q0 -74 -54.5 -124.5t-130.5 -50.5t-130.5 49t-54.5 121h76q0 -43 32 -72.5t77 -29.5t77 31t32 76q0 61 -96 107l-99 48q-61 29 -100 76t-39 105q0 88 73 142q-33 45 -33 94q0 74 54.5 124.5t130.5 50.5t130.5 -49t54.5 -121h-76
q0 43 -32 72.5t-77 29.5t-77 -31t-32 -76q0 -61 96 -107l99 -48q61 -29 100 -76t39 -105zM408 200q0 67 -96 112l-99 48q-25 12 -55 33q-48 -31 -48 -93q0 -67 96 -112l99 -48q34 -18 55 -34q48 33 48 94z" />
    <glyph glyph-name="dieresis" unicode="&#xa8;" 
d="M213 572h-77v78h77v-78zM354 572h-77v78h77v-78z" />
    <glyph glyph-name="copyright" unicode="&#xa9;" horiz-adv-x="694" 
d="M694 347q0 -144 -101.5 -245.5t-245.5 -101.5t-245.5 101.5t-101.5 245.5t101.5 245.5t245.5 101.5t245.5 -101.5t101.5 -245.5zM659 347q0 130 -91 221t-221 91q-129 0 -220.5 -91t-91.5 -221q0 -129 91.5 -220.5t220.5 -91.5q130 0 221 91.5t91 220.5zM492 145
q-34 -22 -58.5 -29t-63.5 -7q-90 0 -149 70.5t-59 167.5t59 168t148 71q58 0 116 -23l-9 -52q-48 35 -108 35q-64 0 -107 -58.5t-43 -140.5q0 -79 42 -138.5t111 -59.5q38 0 62.5 8.5t55.5 32.5z" />
    <glyph glyph-name="ordfeminine" unicode="&#xaa;" horiz-adv-x="365" 
d="M328 394h-62v26q-46 -33 -136 -33q-47 0 -70 28.5t-23 59.5q0 52 89 77q53 15 139 17v29q0 37 -21 57t-52 20q-65 0 -124 -35l-5 46q59 29 129 29q59 0 97.5 -33t38.5 -83v-205zM297 335q0 -9 -9 -15t-22 -6h-167q-13 0 -22 6t-9 15t9 15.5t22 6.5h167q13 0 22 -6.5
t9 -15.5zM265 488v45q-23 0 -48.5 -2.5t-54 -8.5t-47 -18t-18.5 -29q0 -20 21.5 -33t54.5 -13q37 0 64 14q28 14 28 45z" />
    <glyph glyph-name="guillemotleft" unicode="&#xab;" 
d="M272 0h-60l-103 225l103 224h60l-87 -224zM435 0h-60l-103 225l103 224h60l-87 -224z" />
    <glyph glyph-name="logicalnot" unicode="&#xac;" horiz-adv-x="762" 
d="M707 153q0 -7 -5.5 -12.5t-12.5 -5.5t-12.5 5.5t-5.5 12.5v175h-599q-8 0 -13 5t-5 13t5 13t13 5h617q7 0 12.5 -5t5.5 -13v-193z" />
    <glyph glyph-name="uni00AD" unicode="&#xad;" horiz-adv-x="326" 
d="M271 193h-260v58h260v-58z" />
    <glyph glyph-name="registered" unicode="&#xae;" horiz-adv-x="694" 
d="M694 347q0 -144 -101.5 -245.5t-245.5 -101.5t-245.5 101.5t-101.5 245.5t101.5 245.5t245.5 101.5t245.5 -101.5t101.5 -245.5zM659 347q0 130 -91 221t-221 91q-129 0 -220.5 -91t-91.5 -221q0 -129 91.5 -220.5t220.5 -91.5q130 0 221 91.5t91 220.5zM528 122h-56
l-120 206h-101v-206h-54v450h153q67 0 113.5 -36t46.5 -85q0 -38 -29 -70.5t-80 -46.5zM459 451q0 35 -30.5 60t-86.5 25h-91v-169h91q57 0 87 25t30 59z" />
    <glyph glyph-name="macron" unicode="&#xaf;" 
d="M421 579h-353v63h353v-63z" />
    <glyph glyph-name="degree" unicode="&#xb0;" horiz-adv-x="367" 
d="M320 558q0 -56 -40 -96t-96 -40q-57 0 -96.5 40t-39.5 96q0 57 39.5 96.5t96.5 39.5q56 0 96 -39.5t40 -96.5zM284 558q0 42 -29.5 71t-70.5 29q-42 0 -71 -29t-29 -71q0 -41 29 -70.5t71 -29.5q41 0 70.5 29.5t29.5 70.5z" />
    <glyph glyph-name="plusminus" unicode="&#xb1;" horiz-adv-x="762" 
d="M707 18q0 -18 -32 -18h-589q-32 0 -32 19q0 18 32 18h276v271h-276q-32 0 -32 19q0 18 32 18h276v276q0 32 19 32q18 0 18 -32v-276h276q32 0 32 -19q0 -18 -32 -18h-276v-271h276q32 0 32 -19z" />
    <glyph glyph-name="two.superior" unicode="&#xb2;" horiz-adv-x="346" 
d="M317 310h-282v38l161 133q63 51 63 105q0 40 -28 66t-74 26q-39 0 -61.5 -22t-36.5 -71q-14 16 -29 32q33 98 136 98q68 0 109.5 -37.5t41.5 -89.5q0 -38 -25 -67t-74 -65q-79 -59 -132 -106h77q4 0 12.5 0.5t13.5 0.5h128v-41z" />
    <glyph glyph-name="three.superior" unicode="&#xb3;" horiz-adv-x="352" 
d="M323 418q0 -49 -43 -85t-105 -36q-90 0 -145 63l7 36q49 -63 137 -63q38 0 62.5 24.5t24.5 60.5q0 32 -21.5 59t-71.5 27h-51v36q32 4 57 4q30 6 51 29t21 52q0 28 -21 42t-51 14q-36 0 -66 -17.5t-44 -46.5l-25 32q45 66 136 66q53 0 90.5 -26t37.5 -64
q0 -31 -20.5 -58.5t-57.5 -44.5q45 -13 71.5 -41t26.5 -63z" />
    <glyph glyph-name="acute" unicode="&#xb4;" 
d="M382 694l-146 -167h-60l130 167h76z" />
    <glyph glyph-name="uni00B5" unicode="&#xb5;" horiz-adv-x="502" 
d="M425 0h-75v50q-67 -60 -168 -60q-18 0 -29 2v-186h-77v638h77v-327q0 -38 13.5 -55t63.5 -17t84 28t34 87v284h77v-444z" />
    <glyph glyph-name="paragraph" unicode="&#xb6;" horiz-adv-x="611" 
d="M582 674q0 -20 -33 -20h-50v-815q0 -33 -20 -33t-20 33v815h-70v-815q0 -33 -20 -33t-20 33v391q-50 2 -100 17t-94 42t-71.5 72.5t-27.5 101.5q0 95 73 163t177 68h243q33 0 33 -20z" />
    <glyph glyph-name="periodcentered" unicode="&#xb7;" horiz-adv-x="762" 
d="M421 307h-81v81h81v-81z" />
    <glyph glyph-name="cedilla" unicode="&#xb8;" horiz-adv-x="435" 
d="M274 -23l-64 -168h-68l72 168h60z" />
    <glyph glyph-name="one.superior" unicode="&#xb9;" horiz-adv-x="363" 
d="M300 310h-232v35h88v310q-45 -14 -93 -14v24q0 8 1.5 9.5t9.5 1.5q75 2 124 39h14v-370h88v-35z" />
    <glyph glyph-name="ordmasculine" unicode="&#xba;" horiz-adv-x="411" 
d="M386 548q0 -67 -53 -114t-128 -47q-73 0 -126.5 46.5t-53.5 114.5q0 69 53 118t128 49q73 0 126.5 -48.5t53.5 -118.5zM355 335q0 -9 -9 -15t-22 -6h-237q-13 0 -22 6t-9 15t9 15.5t22 6.5h237q13 0 22 -6.5t9 -15.5zM322 555q0 58 -34.5 88t-82.5 30q-46 0 -81 -29.5
t-35 -88.5t34 -91.5t83 -32.5q47 0 81.5 32t34.5 92z" />
    <glyph glyph-name="guillemotright" unicode="&#xbb;" 
d="M381 225l-103 -225h-60l87 225l-87 224h60zM218 225l-103 -225h-60l87 225l-87 224h60z" />
    <glyph glyph-name="onequarter" unicode="&#xbc;" horiz-adv-x="765" 
d="M300 310h-232v35h88v310q-45 -14 -93 -14v24q0 8 1.5 9.5t9.5 1.5q75 2 124 39h14v-370h88v-35zM702 103h-70v-103h-57v103h-187v36l179 254h65v-254h70v-36zM637 674l-391 -654h-42l391 654h42zM578 139v227q0 -24 -55 -110q-3 -5 -79 -117h134z" />
    <glyph glyph-name="onehalf" unicode="&#xbd;" horiz-adv-x="765" 
d="M300 310h-232v35h88v310q-45 -14 -93 -14v24q0 8 1.5 9.5t9.5 1.5q75 2 124 39h14v-370h88v-35zM702 0h-282v38l161 133q63 53 63 106q0 39 -28 65t-74 26q-40 0 -62 -22t-36 -71q-3 3 -10 11t-20 21q35 99 137 99q68 0 109.5 -38t41.5 -90q0 -37 -25 -66.5t-74 -65.5
q-51 -37 -133 -106h77q5 0 13.5 0.5t12.5 0.5h129v-41zM599 674l-392 -654h-42l392 654h42z" />
    <glyph glyph-name="threequarters" unicode="&#xbe;" horiz-adv-x="765" 
d="M352 418q0 -49 -42.5 -85t-105.5 -36q-89 0 -145 63l8 36q23 -31 60.5 -47t75.5 -16q39 0 63 24.5t24 60.5q0 32 -21 59t-71 27h-51v36q28 4 56 4q30 6 51 29t21 52q0 27 -20.5 41.5t-50.5 14.5q-36 0 -66 -17.5t-44 -46.5l-26 32q21 30 57.5 48t78.5 18q53 0 91 -26
t38 -64q0 -31 -20.5 -58.5t-58.5 -44.5q45 -13 71.5 -41t26.5 -63zM702 103h-70v-103h-57v103h-187v36l179 254h65v-254h70v-36zM637 674l-391 -654h-42l391 654h42zM578 139v227q0 -24 -55 -110q-3 -5 -79 -117h134z" />
    <glyph glyph-name="questiondown" unicode="&#xbf;" horiz-adv-x="462" 
d="M257 419h-81v81h81v-81zM407 -151q-88 -53 -189 -53q-85 0 -124.5 43.5t-39.5 111.5q0 73 43 114q87 89 87 212v50h65v-53q0 -139 -92 -247q-27 -33 -27 -78q0 -47 19.5 -70t68.5 -23q90 0 167 55z" />
    <glyph glyph-name="Agrave" unicode="&#xc0;" horiz-adv-x="647" 
d="M619 0h-89l-74 203h-282l-73 -203h-74l252 694h88zM435 259l-120 363l-119 -363h239zM420 745h-89l-197 122h111z" />
    <glyph glyph-name="Aacute" unicode="&#xc1;" horiz-adv-x="647" 
d="M619 0h-89l-74 203h-282l-73 -203h-74l252 694h88zM435 259l-120 363l-119 -363h239zM514 867l-197 -122h-89l175 122h111z" />
    <glyph glyph-name="Acircumflex" unicode="&#xc2;" horiz-adv-x="647" 
d="M619 0h-89l-74 203h-282l-73 -203h-74l252 694h88zM435 259l-120 363l-119 -363h239zM480 735h-59l-97 97l-97 -97h-59l126 134h60z" />
    <glyph glyph-name="Atilde" unicode="&#xc3;" horiz-adv-x="647" 
d="M619 0h-89l-74 203h-282l-73 -203h-74l252 694h88zM435 259l-120 363l-119 -363h239zM486 853q-1 -55 -30 -86.5t-65 -31.5q-28 0 -74 33q-36 25 -58 25q-20 0 -29 -17.5t-9 -40.5h-60q1 55 30 86.5t65 31.5q28 0 74 -33q36 -25 58 -25q20 0 29 17.5t9 40.5h60z" />
    <glyph glyph-name="Adieresis" unicode="&#xc4;" horiz-adv-x="647" 
d="M619 0h-89l-74 203h-282l-73 -203h-74l252 694h88zM435 259l-120 363l-119 -363h239zM279 735h-77v78h77v-78zM446 735h-77v78h77v-78z" />
    <glyph glyph-name="Aring" unicode="&#xc5;" horiz-adv-x="647" 
d="M619 0h-89l-74 203h-282l-73 -203h-74l252 694h88zM435 259l-120 363l-119 -363h239zM373 778q0 37 -49 37t-49 -37t49 -37t49 37zM433 777q0 -33 -31 -58t-78 -25q-46 0 -77.5 25t-31.5 60q0 33 31 58t78 25q46 0 77.5 -25t31.5 -60z" />
    <glyph glyph-name="AE" unicode="&#xc6;" horiz-adv-x="840" 
d="M798 0h-391v222h-218l-88 -222h-74l275 694h483v-63h-150q-6 0 -18 0.5t-18 0.5h-107v-241h265v-60h-265v-264h161q6 0 18 0.5t18 0.5h109v-68zM407 278v354h-56l-140 -354h196z" />
    <glyph glyph-name="Ccedilla" unicode="&#xc7;" horiz-adv-x="626" 
d="M576 35q-53 -33 -91.5 -44.5t-97.5 -11.5q-139 0 -230 109.5t-91 258.5q0 150 91.5 259t228.5 109q89 0 179 -35l-15 -81q-73 54 -166 54q-99 0 -165.5 -89.5t-66.5 -216.5q0 -123 65 -214.5t171 -91.5q59 0 96 13.5t86 49.5zM390 -44l-64 -168h-68l72 168h60z" />
    <glyph glyph-name="Egrave" unicode="&#xc8;" horiz-adv-x="583" 
d="M541 0h-451v692h438v-63h-180q-6 0 -18 0.5t-18 0.5h-136v-240h324v-60h-324v-263h198q6 0 18 0.5t18 0.5h131v-68zM388 745h-89l-197 122h111z" />
    <glyph glyph-name="Eacute" unicode="&#xc9;" horiz-adv-x="583" 
d="M541 0h-451v692h438v-63h-180q-6 0 -18 0.5t-18 0.5h-136v-240h324v-60h-324v-263h198q6 0 18 0.5t18 0.5h131v-68zM482 867l-197 -122h-89l175 122h111z" />
    <glyph glyph-name="Ecircumflex" unicode="&#xca;" horiz-adv-x="583" 
d="M541 0h-451v692h438v-63h-180q-6 0 -18 0.5t-18 0.5h-136v-240h324v-60h-324v-263h198q6 0 18 0.5t18 0.5h131v-68zM448 735h-59l-97 97l-97 -97h-59l126 134h60z" />
    <glyph glyph-name="Edieresis" unicode="&#xcb;" horiz-adv-x="583" 
d="M541 0h-451v692h438v-63h-180q-6 0 -18 0.5t-18 0.5h-136v-240h324v-60h-324v-263h198q6 0 18 0.5t18 0.5h131v-68zM247 735h-77v78h77v-78zM414 735h-77v78h77v-78z" />
    <glyph glyph-name="Igrave" unicode="&#xcc;" horiz-adv-x="266" 
d="M176 0h-86v694h86v-694zM176 745h-89l-197 122h111z" />
    <glyph glyph-name="Iacute" unicode="&#xcd;" horiz-adv-x="266" 
d="M176 0h-86v694h86v-694zM376 867l-197 -122h-89l175 122h111z" />
    <glyph glyph-name="Icircumflex" unicode="&#xce;" horiz-adv-x="266" 
d="M176 0h-86v694h86v-694zM289 735h-59l-97 97l-97 -97h-59l126 134h60z" />
    <glyph glyph-name="Idieresis" unicode="&#xcf;" horiz-adv-x="266" 
d="M176 0h-86v694h86v-694zM88 735h-77v78h77v-78zM255 735h-77v78h77v-78z" />
    <glyph glyph-name="Eth" unicode="&#xd0;" horiz-adv-x="704" 
d="M649 341q0 -142 -88 -241.5t-213 -99.5h-257v316h-76v62h76v316h257q126 0 213.5 -103t87.5 -250zM565 342q0 133 -68.5 214.5t-171.5 81.5h-150v-260h101v-62h-101v-260h150q101 0 170.5 77t69.5 209z" />
    <glyph glyph-name="Ntilde" unicode="&#xd1;" horiz-adv-x="686" 
d="M594 0h-123l-221 452l-81 168h-1v-620h-77v694h123l221 -452l81 -168h1v620h77v-694zM505 853q-1 -55 -30 -86.5t-65 -31.5q-28 0 -74 33q-36 25 -58 25q-20 0 -29 -17.5t-9 -40.5h-60q1 55 30 86.5t65 31.5q28 0 74 -33q36 -25 58 -25q20 0 29 17.5t9 40.5h60z" />
    <glyph glyph-name="Ograve" unicode="&#xd2;" horiz-adv-x="722" 
d="M667 345q0 -155 -90.5 -260.5t-216.5 -105.5q-123 0 -214.5 105.5t-91.5 260.5t90.5 262.5t216.5 107.5q124 0 215 -107t91 -263zM581 360q0 131 -65.5 212t-155.5 81q-88 0 -154 -80.5t-66 -212.5q0 -140 65.5 -229t155.5 -89q88 0 154 88.5t66 229.5zM457 745h-89
l-197 122h111z" />
    <glyph glyph-name="Oacute" unicode="&#xd3;" horiz-adv-x="722" 
d="M667 345q0 -155 -90.5 -260.5t-216.5 -105.5q-123 0 -214.5 105.5t-91.5 260.5t90.5 262.5t216.5 107.5q124 0 215 -107t91 -263zM581 360q0 131 -65.5 212t-155.5 81q-88 0 -154 -80.5t-66 -212.5q0 -140 65.5 -229t155.5 -89q88 0 154 88.5t66 229.5zM551 867
l-197 -122h-89l175 122h111z" />
    <glyph glyph-name="Ocircumflex" unicode="&#xd4;" horiz-adv-x="722" 
d="M667 345q0 -155 -90.5 -260.5t-216.5 -105.5q-123 0 -214.5 105.5t-91.5 260.5t90.5 262.5t216.5 107.5q124 0 215 -107t91 -263zM581 360q0 131 -65.5 212t-155.5 81q-88 0 -154 -80.5t-66 -212.5q0 -140 65.5 -229t155.5 -89q88 0 154 88.5t66 229.5zM517 735h-59
l-97 97l-97 -97h-59l126 134h60z" />
    <glyph glyph-name="Otilde" unicode="&#xd5;" horiz-adv-x="722" 
d="M667 345q0 -155 -90.5 -260.5t-216.5 -105.5q-123 0 -214.5 105.5t-91.5 260.5t90.5 262.5t216.5 107.5q124 0 215 -107t91 -263zM581 360q0 131 -65.5 212t-155.5 81q-88 0 -154 -80.5t-66 -212.5q0 -140 65.5 -229t155.5 -89q88 0 154 88.5t66 229.5zM523 853
q-1 -55 -30 -86.5t-65 -31.5q-28 0 -74 33q-36 25 -58 25q-20 0 -29 -17.5t-9 -40.5h-60q1 55 30 86.5t65 31.5q28 0 74 -33q36 -25 58 -25q20 0 29 17.5t9 40.5h60z" />
    <glyph glyph-name="Odieresis" unicode="&#xd6;" horiz-adv-x="722" 
d="M667 345q0 -155 -90.5 -260.5t-216.5 -105.5q-123 0 -214.5 105.5t-91.5 260.5t90.5 262.5t216.5 107.5q124 0 215 -107t91 -263zM581 360q0 131 -65.5 212t-155.5 81q-88 0 -154 -80.5t-66 -212.5q0 -140 65.5 -229t155.5 -89q88 0 154 88.5t66 229.5zM316 735h-77v78
h77v-78zM483 735h-77v78h77v-78z" />
    <glyph glyph-name="multiply" unicode="&#xd7;" horiz-adv-x="762" 
d="M612 480q12 -13 -10 -35l-195 -195l195 -196q22 -22 9 -36q-13 -12 -35 10l-195 195l-196 -195q-22 -22 -36 -9q-12 13 10 35l195 196l-195 195q-22 22 -9 36q13 12 35 -10l196 -195l195 195q22 22 36 9z" />
    <glyph glyph-name="Oslash" unicode="&#xd8;" horiz-adv-x="762" 
d="M707 345q0 -153 -96 -259.5t-231 -106.5q-82 0 -150 41l-47 -84l-54 30l51 91q-49 40 -87.5 115t-38.5 173q0 154 96 262t231 108q76 0 150 -41l47 84l54 -30l-51 -91q126 -122 126 -292zM499 619q-57 36 -119 36q-97 0 -169.5 -83.5t-72.5 -226.5q0 -142 76 -228z
M623 345q0 144 -76 231l-285 -501q53 -36 119 -36q97 0 169.5 82t72.5 224z" />
    <glyph glyph-name="Ugrave" unicode="&#xd9;" horiz-adv-x="667" 
d="M576 233q0 -107 -71 -180.5t-170 -73.5q-100 0 -172.5 73t-72.5 181v461h86v-462q0 -95 47.5 -146t112.5 -51q66 0 115 51.5t49 145.5v462h76v-461zM430 745h-89l-197 122h111z" />
    <glyph glyph-name="Uacute" unicode="&#xda;" horiz-adv-x="667" 
d="M576 233q0 -107 -71 -180.5t-170 -73.5q-100 0 -172.5 73t-72.5 181v461h86v-462q0 -95 47.5 -146t112.5 -51q66 0 115 51.5t49 145.5v462h76v-461zM524 867l-197 -122h-89l175 122h111z" />
    <glyph glyph-name="Ucircumflex" unicode="&#xdb;" horiz-adv-x="667" 
d="M576 233q0 -107 -71 -180.5t-170 -73.5q-100 0 -172.5 73t-72.5 181v461h86v-462q0 -95 47.5 -146t112.5 -51q66 0 115 51.5t49 145.5v462h76v-461zM490 735h-59l-97 97l-97 -97h-59l126 134h60z" />
    <glyph glyph-name="Udieresis" unicode="&#xdc;" horiz-adv-x="667" 
d="M576 233q0 -107 -71 -180.5t-170 -73.5q-100 0 -172.5 73t-72.5 181v461h86v-462q0 -95 47.5 -146t112.5 -51q66 0 115 51.5t49 145.5v462h76v-461zM289 735h-77v78h77v-78zM456 735h-77v78h77v-78z" />
    <glyph glyph-name="Yacute" unicode="&#xdd;" horiz-adv-x="647" 
d="M643 694l-278 -416v-278h-84v278l-278 416h100l170 -255q32 -49 57 -90q23 39 55 86l172 259h86zM514 867l-197 -122h-89l175 122h111z" />
    <glyph glyph-name="Thorn" unicode="&#xde;" horiz-adv-x="568" 
d="M513 374q0 -32 -12 -64t-36.5 -62t-68.5 -49t-101 -19h-126v-180h-72v694h72v-127h139q89 0 147 -58t58 -135zM434 373q0 55 -46.5 96.5t-120.5 41.5h-98v-275h98q49 0 84.5 15.5t52 39.5t23.5 44.5t7 37.5z" />
    <glyph glyph-name="germandbls" unicode="&#xdf;" horiz-adv-x="469" 
d="M441 179q0 -80 -50.5 -134.5t-122.5 -54.5q-19 0 -40 3.5t-34 8t-13 7.5l4 11l16 44q32 -14 66 -14q44 0 71.5 35.5t27.5 93.5q0 83 -43.5 143t-116.5 62v60q68 1 100.5 36.5t32.5 77.5q0 41 -27 63.5t-66 22.5q-12 0 -24 -2.5t-30 -10.5t-29 -29t-11 -52v-550h-74v552
q0 71 51.5 111.5t116.5 40.5q70 0 119 -42.5t49 -103.5q0 -43 -25.5 -82.5t-70.5 -64.5q60 -36 91.5 -100t31.5 -132z" />
    <glyph glyph-name="agrave" unicode="&#xe0;" horiz-adv-x="469" 
d="M401 0h-74v37q-26 -22 -72 -34.5t-90 -12.5q-57 0 -84 41t-27 84q0 74 106 110q61 20 165 25v41q0 52 -24.5 81t-61.5 29q-79 0 -148 -50l-6 66q73 42 154 42q70 0 116 -47t46 -119v-293zM325 134v65q-27 0 -57.5 -3.5t-64.5 -12t-56 -26t-22 -41.5q0 -28 25.5 -47
t65.5 -19q44 0 76 20q33 20 33 64zM304 527h-60l-146 167h76z" />
    <glyph glyph-name="aacute" unicode="&#xe1;" horiz-adv-x="469" 
d="M401 0h-74v37q-26 -22 -72 -34.5t-90 -12.5q-57 0 -84 41t-27 84q0 74 106 110q61 20 165 25v41q0 52 -24.5 81t-61.5 29q-79 0 -148 -50l-6 66q73 42 154 42q70 0 116 -47t46 -119v-293zM325 134v65q-27 0 -57.5 -3.5t-64.5 -12t-56 -26t-22 -41.5q0 -28 25.5 -47
t65.5 -19q44 0 76 20q33 20 33 64zM372 694l-146 -167h-60l130 167h76z" />
    <glyph glyph-name="acircumflex" unicode="&#xe2;" horiz-adv-x="469" 
d="M401 0h-74v37q-26 -22 -72 -34.5t-90 -12.5q-57 0 -84 41t-27 84q0 74 106 110q61 20 165 25v41q0 52 -24.5 81t-61.5 29q-79 0 -148 -50l-6 66q73 42 154 42q70 0 116 -47t46 -119v-293zM325 134v65q-27 0 -57.5 -3.5t-64.5 -12t-56 -26t-22 -41.5q0 -28 25.5 -47
t65.5 -19q44 0 76 20q33 20 33 64zM390 525h-59l-96 123l-96 -123h-59l125 172h60z" />
    <glyph glyph-name="atilde" unicode="&#xe3;" horiz-adv-x="469" 
d="M401 0h-74v37q-26 -22 -72 -34.5t-90 -12.5q-57 0 -84 41t-27 84q0 74 106 110q61 20 165 25v41q0 52 -24.5 81t-61.5 29q-79 0 -148 -50l-6 66q73 42 154 42q70 0 116 -47t46 -119v-293zM325 134v65q-27 0 -57.5 -3.5t-64.5 -12t-56 -26t-22 -41.5q0 -28 25.5 -47
t65.5 -19q44 0 76 20q33 20 33 64zM397 670q-1 -55 -30 -86.5t-65 -31.5q-28 0 -74 33q-36 25 -58 25q-20 0 -29 -17.5t-9 -40.5h-60q1 55 30 86.5t65 31.5q28 0 74 -33q36 -25 58 -25q20 0 29 17.5t9 40.5h60z" />
    <glyph glyph-name="adieresis" unicode="&#xe4;" horiz-adv-x="469" 
d="M401 0h-74v37q-26 -22 -72 -34.5t-90 -12.5q-57 0 -84 41t-27 84q0 74 106 110q61 20 165 25v41q0 52 -24.5 81t-61.5 29q-79 0 -148 -50l-6 66q73 42 154 42q70 0 116 -47t46 -119v-293zM325 134v65q-27 0 -57.5 -3.5t-64.5 -12t-56 -26t-22 -41.5q0 -28 25.5 -47
t65.5 -19q44 0 76 20q33 20 33 64zM203 572h-77v78h77v-78zM344 572h-77v78h77v-78z" />
    <glyph glyph-name="aring" unicode="&#xe5;" horiz-adv-x="469" 
d="M401 0h-74v37q-26 -22 -72 -34.5t-90 -12.5q-57 0 -84 41t-27 84q0 74 106 110q61 20 165 25v41q0 52 -24.5 81t-61.5 29q-79 0 -148 -50l-6 66q73 42 154 42q70 0 116 -47t46 -119v-293zM325 134v65q-27 0 -57.5 -3.5t-64.5 -12t-56 -26t-22 -41.5q0 -28 25.5 -47
t65.5 -19q44 0 76 20q33 20 33 64zM284 601q0 37 -49 37t-49 -37t49 -37t49 37zM344 600q0 -33 -31 -58t-78 -25q-46 0 -77.5 25t-31.5 60q0 33 31 58t78 25q46 0 77.5 -25t31.5 -60z" />
    <glyph glyph-name="ae" unicode="&#xe6;" horiz-adv-x="707" 
d="M679 225h-288q1 -80 43 -127.5t98 -47.5q77 0 135 57l3 -27q0 -2 1.5 -16t1.5 -17q0 -6 -18 -19t-53 -25.5t-71 -12.5q-93 0 -161 77q-31 -43 -96 -62q-54 -15 -117 -15q-33 0 -56.5 14.5t-34.5 36.5t-15.5 40.5t-4.5 34.5q0 65 77.5 100t191.5 36v39q0 54 -25.5 82
t-59.5 28q-79 0 -149 -50l-6 66q75 42 154 42q89 0 139 -77q60 77 148 77q38 0 68 -14t46.5 -39t27.5 -49.5t15 -55.5t5 -45.5t1 -30.5zM619 279q-9 60 -37 90t-66 30q-39 0 -72.5 -33t-46.5 -87h222zM319 133q0 11 -3 65q-199 -8 -199 -81q0 -28 25 -47.5t64 -19.5
q49 0 80 20q15 9 23 21t9 20t1 22z" />
    <glyph glyph-name="ccedilla" unicode="&#xe7;" horiz-adv-x="435" 
d="M407 42q-71 -52 -160 -52t-150.5 68t-61.5 165q0 92 59 164t157 72q45 0 76 -8.5t74 -33.5l-12 -65q-37 25 -64.5 35t-73.5 10q-70 0 -105 -52t-35 -122q0 -74 38 -122.5t99 -48.5q83 0 153 56l2 -28q4 -16 4 -38zM285 -44l-64 -168h-68l72 168h60z" />
    <glyph glyph-name="egrave" unicode="&#xe8;" horiz-adv-x="435" 
d="M407 225h-305q1 -78 43.5 -126.5t101.5 -48.5q81 0 148 57l3 -27q3 -33 3 -37q-73 -53 -156 -53q-88 0 -150 68.5t-62 166.5q0 97 58.5 165.5t139.5 68.5q94 0 140 -77q36 -60 36 -157zM348 279q-6 37 -20.5 63t-33.5 37t-33.5 15.5t-29.5 4.5q-43 0 -76.5 -34t-46.5 -86
h240zM287 527h-60l-146 167h76z" />
    <glyph glyph-name="eacute" unicode="&#xe9;" horiz-adv-x="435" 
d="M407 225h-305q1 -78 43.5 -126.5t101.5 -48.5q81 0 148 57l3 -27q3 -33 3 -37q-73 -53 -156 -53q-88 0 -150 68.5t-62 166.5q0 97 58.5 165.5t139.5 68.5q94 0 140 -77q36 -60 36 -157zM348 279q-6 37 -20.5 63t-33.5 37t-33.5 15.5t-29.5 4.5q-43 0 -76.5 -34t-46.5 -86
h240zM355 694l-146 -167h-60l130 167h76z" />
    <glyph glyph-name="ecircumflex" unicode="&#xea;" horiz-adv-x="435" 
d="M407 225h-305q1 -78 43.5 -126.5t101.5 -48.5q81 0 148 57l3 -27q3 -33 3 -37q-73 -53 -156 -53q-88 0 -150 68.5t-62 166.5q0 97 58.5 165.5t139.5 68.5q94 0 140 -77q36 -60 36 -157zM348 279q-6 37 -20.5 63t-33.5 37t-33.5 15.5t-29.5 4.5q-43 0 -76.5 -34t-46.5 -86
h240zM373 525h-59l-96 123l-96 -123h-59l125 172h60z" />
    <glyph glyph-name="edieresis" unicode="&#xeb;" horiz-adv-x="435" 
d="M407 225h-305q1 -78 43.5 -126.5t101.5 -48.5q81 0 148 57l3 -27q3 -33 3 -37q-73 -53 -156 -53q-88 0 -150 68.5t-62 166.5q0 97 58.5 165.5t139.5 68.5q94 0 140 -77q36 -60 36 -157zM348 279q-6 37 -20.5 63t-33.5 37t-33.5 15.5t-29.5 4.5q-43 0 -76.5 -34t-46.5 -86
h240zM186 572h-77v78h77v-78zM327 572h-77v78h77v-78z" />
    <glyph glyph-name="igrave" unicode="&#xec;" horiz-adv-x="230" 
d="M152 0h-74v444h74v-444zM152 527h-60l-146 167h76z" />
    <glyph glyph-name="iacute" unicode="&#xed;" horiz-adv-x="230" 
d="M152 0h-74v444h74v-444zM284 694l-146 -167h-60l130 167h76z" />
    <glyph glyph-name="icircumflex" unicode="&#xee;" horiz-adv-x="230" 
d="M152 0h-74v444h74v-444zM270 525h-59l-96 123l-96 -123h-59l125 172h60z" />
    <glyph glyph-name="idieresis" unicode="&#xef;" horiz-adv-x="230" 
d="M152 0h-74v444h74v-444zM83 572h-77v78h77v-78zM224 572h-77v78h77v-78z" />
    <glyph glyph-name="eth" unicode="&#xf0;" 
d="M455 219q-2 -101 -65 -165t-146 -64q-86 0 -148.5 67t-62.5 163q0 100 62.5 169.5t148.5 69.5q53 0 101 -27q-43 89 -118 158l-72 -57l-36 46l61 48q-48 33 -99 53l39 49q60 -22 114 -60l74 58l36 -46l-63 -49q85 -77 130.5 -185t43.5 -228zM385 225q0 74 -39.5 124
t-102.5 50q-56 0 -98 -43.5t-42 -125.5q0 -84 41.5 -131t99.5 -47q63 0 102 50t39 123z" />
    <glyph glyph-name="ntilde" unicode="&#xf1;" horiz-adv-x="502" 
d="M424 0h-76v294q0 18 -2.5 31t-10.5 31t-29 28t-54 10q-36 0 -59 -24.5t-31.5 -55t-8.5 -65.5v-249h-76v449h71v-68q58 73 142 73q134 0 134 -153v-301zM413 670q-1 -55 -30 -86.5t-65 -31.5q-28 0 -74 33q-36 25 -58 25q-20 0 -29 -17.5t-9 -40.5h-60q1 55 30 86.5
t65 31.5q28 0 74 -33q36 -25 58 -25q20 0 29 17.5t9 40.5h60z" />
    <glyph glyph-name="ograve" unicode="&#xf2;" 
d="M459 220q0 -96 -63 -163t-152 -67q-87 0 -150.5 66.5t-63.5 163.5q0 99 63 169t152 70q87 0 150.5 -69.5t63.5 -169.5zM383 230q0 82 -41 125.5t-98 43.5q-54 0 -96 -42.5t-42 -126.5t40.5 -131t98.5 -47q56 0 97 46t41 132zM314 527h-60l-146 167h76z" />
    <glyph glyph-name="oacute" unicode="&#xf3;" 
d="M459 220q0 -96 -63 -163t-152 -67q-87 0 -150.5 66.5t-63.5 163.5q0 99 63 169t152 70q87 0 150.5 -69.5t63.5 -169.5zM383 230q0 82 -41 125.5t-98 43.5q-54 0 -96 -42.5t-42 -126.5t40.5 -131t98.5 -47q56 0 97 46t41 132zM382 694l-146 -167h-60l130 167h76z" />
    <glyph glyph-name="ocircumflex" unicode="&#xf4;" 
d="M459 220q0 -96 -63 -163t-152 -67q-87 0 -150.5 66.5t-63.5 163.5q0 99 63 169t152 70q87 0 150.5 -69.5t63.5 -169.5zM383 230q0 82 -41 125.5t-98 43.5q-54 0 -96 -42.5t-42 -126.5t40.5 -131t98.5 -47q56 0 97 46t41 132zM400 525h-59l-96 123l-96 -123h-59l125 172
h60z" />
    <glyph glyph-name="otilde" unicode="&#xf5;" 
d="M459 220q0 -96 -63 -163t-152 -67q-87 0 -150.5 66.5t-63.5 163.5q0 99 63 169t152 70q87 0 150.5 -69.5t63.5 -169.5zM383 230q0 82 -41 125.5t-98 43.5q-54 0 -96 -42.5t-42 -126.5t40.5 -131t98.5 -47q56 0 97 46t41 132zM407 670q-1 -55 -30 -86.5t-65 -31.5
q-28 0 -74 33q-36 25 -58 25q-20 0 -29 -17.5t-9 -40.5h-60q1 55 30 86.5t65 31.5q28 0 74 -33q36 -25 58 -25q20 0 29 17.5t9 40.5h60z" />
    <glyph glyph-name="odieresis" unicode="&#xf6;" 
d="M459 220q0 -96 -63 -163t-152 -67q-87 0 -150.5 66.5t-63.5 163.5q0 99 63 169t152 70q87 0 150.5 -69.5t63.5 -169.5zM383 230q0 82 -41 125.5t-98 43.5q-54 0 -96 -42.5t-42 -126.5t40.5 -131t98.5 -47q56 0 97 46t41 132zM213 572h-77v78h77v-78zM354 572h-77v78h77
v-78z" />
    <glyph glyph-name="divide" unicode="&#xf7;" horiz-adv-x="762" 
d="M707 250q0 -18 -32 -18h-589q-32 0 -32 19q0 18 32 18h589q32 0 32 -19zM421 329h-81v81h81v-81zM421 91h-81v81h81v-81z" />
    <glyph glyph-name="oslash" unicode="&#xf8;" 
d="M459 220q0 -96 -63 -163t-152 -67q-40 0 -84 18l-66 -120l-53 30l68 123q-79 79 -79 179q0 99 63 169t152 70q44 0 85 -20l65 118l53 -30l-68 -122q79 -72 79 -185zM301 386q-25 13 -56 13q-57 0 -98.5 -46.5t-41.5 -132.5q0 -76 37 -120zM384 220q0 78 -36 126
l-158 -284q26 -12 55 -12q55 0 97 43.5t42 126.5z" />
    <glyph glyph-name="ugrave" unicode="&#xf9;" horiz-adv-x="502" 
d="M424 0h-74v50q-67 -60 -168 -60q-58 0 -81.5 31t-23.5 90v333h76v-329q0 -37 14 -53.5t63 -16.5q51 0 84.5 29t33.5 84v286h76v-444zM320 527h-60l-146 167h76z" />
    <glyph glyph-name="uacute" unicode="&#xfa;" horiz-adv-x="502" 
d="M424 0h-74v50q-67 -60 -168 -60q-58 0 -81.5 31t-23.5 90v333h76v-329q0 -37 14 -53.5t63 -16.5q51 0 84.5 29t33.5 84v286h76v-444zM388 694l-146 -167h-60l130 167h76z" />
    <glyph glyph-name="ucircumflex" unicode="&#xfb;" horiz-adv-x="502" 
d="M424 0h-74v50q-67 -60 -168 -60q-58 0 -81.5 31t-23.5 90v333h76v-329q0 -37 14 -53.5t63 -16.5q51 0 84.5 29t33.5 84v286h76v-444zM406 525h-59l-96 123l-96 -123h-59l125 172h60z" />
    <glyph glyph-name="udieresis" unicode="&#xfc;" horiz-adv-x="502" 
d="M424 0h-74v50q-67 -60 -168 -60q-58 0 -81.5 31t-23.5 90v333h76v-329q0 -37 14 -53.5t63 -16.5q51 0 84.5 29t33.5 84v286h76v-444zM219 572h-77v78h77v-78zM360 572h-77v78h77v-78z" />
    <glyph glyph-name="yacute" unicode="&#xfd;" horiz-adv-x="448" 
d="M433 444l-209 -538q-15 -39 -31.5 -63.5t-33.5 -33.5t-26.5 -11t-22.5 -2q-23 0 -71 8l-6 65q39 -15 77 -15q16 0 28 10.5t27 44.5l35 91l-186 444h79l71 -175q61 -153 66 -211h1q4 70 127 386h75zM361 694l-146 -167h-60l130 167h76z" />
    <glyph glyph-name="thorn" unicode="&#xfe;" horiz-adv-x="502" 
d="M466 223q0 -100 -54 -166.5t-128 -66.5q-70 0 -130 55v-239h-76v888h74v-297q67 57 157 57q68 0 112.5 -68.5t44.5 -162.5zM390 222q0 71 -39 120.5t-95 49.5q-64 0 -102 -56v-206q0 -31 28 -56q31 -24 65 -24q57 0 100 49.5t43 122.5z" />
    <glyph glyph-name="ydieresis" unicode="&#xff;" horiz-adv-x="448" 
d="M433 444l-209 -538q-15 -39 -31.5 -63.5t-33.5 -33.5t-26.5 -11t-22.5 -2q-23 0 -71 8l-6 65q39 -15 77 -15q16 0 28 10.5t27 44.5l35 91l-186 444h79l71 -175q61 -153 66 -211h1q4 70 127 386h75zM192 572h-77v78h77v-78zM333 572h-77v78h77v-78z" />
    <glyph glyph-name="Amacron" unicode="&#x100;" horiz-adv-x="647" 
d="M619 0h-89l-74 203h-282l-73 -203h-74l252 694h88zM435 259l-120 363l-119 -363h239zM500 755h-353v63h353v-63z" />
    <glyph glyph-name="amacron" unicode="&#x101;" horiz-adv-x="469" 
d="M401 0h-74v37q-26 -22 -72 -34.5t-90 -12.5q-57 0 -84 41t-27 84q0 74 106 110q61 20 165 25v41q0 52 -24.5 81t-61.5 29q-79 0 -148 -50l-6 66q73 42 154 42q70 0 116 -47t46 -119v-293zM325 134v65q-27 0 -57.5 -3.5t-64.5 -12t-56 -26t-22 -41.5q0 -28 25.5 -47
t65.5 -19q44 0 76 20q33 20 33 64zM411 579h-353v63h353v-63z" />
    <glyph glyph-name="Abreve" unicode="&#x102;" horiz-adv-x="647" 
d="M619 0h-89l-74 203h-282l-73 -203h-74l252 694h88zM435 259l-120 363l-119 -363h239zM489 923q-1 -77 -50 -127.5t-116 -50.5q-66 0 -115 50t-50 128h60q1 -52 33 -82.5t73 -30.5q40 0 72 30t33 83h60z" />
    <glyph glyph-name="abreve" unicode="&#x103;" horiz-adv-x="469" 
d="M401 0h-74v37q-26 -22 -72 -34.5t-90 -12.5q-57 0 -84 41t-27 84q0 74 106 110q61 20 165 25v41q0 52 -24.5 81t-61.5 29q-79 0 -148 -50l-6 66q73 42 154 42q70 0 116 -47t46 -119v-293zM325 134v65q-27 0 -57.5 -3.5t-64.5 -12t-56 -26t-22 -41.5q0 -28 25.5 -47
t65.5 -19q44 0 76 20q33 20 33 64zM400 700q-1 -77 -50 -127.5t-116 -50.5q-66 0 -115 50t-50 128h60q1 -52 33 -82.5t73 -30.5q40 0 72 30t33 83h60z" />
    <glyph glyph-name="Aogonek" unicode="&#x104;" horiz-adv-x="647" 
d="M640 -187q-53 -25 -98 -25q-47 0 -72.5 25t-26.5 60q-2 37 22.5 71t64.5 56l-74 203h-282l-73 -203h-74l252 694h88l252 -694h-25q-89 -50 -88 -104q1 -34 53 -38q29 -1 67 14zM435 259l-120 363l-119 -363h239z" />
    <glyph glyph-name="aogonek" unicode="&#x105;" horiz-adv-x="469" 
d="M437 -187q-53 -25 -98 -25q-47 0 -72.5 25t-26.5 60q-2 37 22.5 71t64.5 56v37q-26 -22 -72 -34.5t-90 -12.5q-57 0 -84 41t-27 84q0 74 106 110q61 20 165 25v41q0 52 -24.5 81t-61.5 29q-79 0 -148 -50l-6 66q73 42 154 42q70 0 116 -47t46 -119v-293h-11
q-88 -50 -87 -104q1 -34 53 -38q30 -1 67 14zM325 134v65q-27 0 -57.5 -3.5t-64.5 -12t-56 -26t-22 -41.5q0 -28 25.5 -47t65.5 -19q44 0 76 20q33 20 33 64z" />
    <glyph glyph-name="Cacute" unicode="&#x106;" horiz-adv-x="626" 
d="M575 45q-54 -34 -93 -45q-40 -11 -102 -11q-130 0 -222 105q-92 104 -92 253q0 151 92 253q43 49 100.5 77t121.5 28q53 0 94 -8q46 -9 91 -27l-15 -83q-40 29 -81 43q-39 12 -89 12q-95 0 -162 -86t-67 -209q0 -122 67 -208q68 -87 162 -87q62 0 100 12q37 12 89 51z
M534 867l-197 -122h-89l175 122h111z" />
    <glyph glyph-name="cacute" unicode="&#x107;" horiz-adv-x="435" 
d="M407 42q-71 -52 -160 -52t-150.5 68t-61.5 165q0 92 59 164t157 72q45 0 76 -8.5t74 -33.5l-12 -65q-37 25 -64.5 35t-73.5 10q-70 0 -105 -52t-35 -122q0 -74 38 -122.5t99 -48.5q83 0 153 56l2 -28q4 -16 4 -38zM376 694l-146 -167h-60l130 167h76z" />
    <glyph glyph-name="Ccircumflex" unicode="&#x108;" horiz-adv-x="626" 
d="M575 45q-54 -34 -93 -45q-40 -11 -102 -11q-130 0 -222 105q-92 104 -92 253q0 151 92 253q43 49 100.5 77t121.5 28q53 0 94 -8q46 -9 91 -27l-15 -83q-40 29 -81 43q-39 12 -89 12q-95 0 -162 -86t-67 -209q0 -122 67 -208q68 -87 162 -87q62 0 100 12q37 12 89 51z
M500 735h-59l-97 97l-97 -97h-59l126 134h60z" />
    <glyph glyph-name="ccircumflex" unicode="&#x109;" horiz-adv-x="435" 
d="M407 42q-71 -52 -160 -52t-150.5 68t-61.5 165q0 92 59 164t157 72q45 0 76 -8.5t74 -33.5l-12 -65q-37 25 -64.5 35t-73.5 10q-70 0 -105 -52t-35 -122q0 -74 38 -122.5t99 -48.5q83 0 153 56l2 -28q4 -16 4 -38zM394 525h-59l-96 123l-96 -123h-59l125 172h60z" />
    <glyph glyph-name="Cdotaccent" unicode="&#x10a;" horiz-adv-x="626" 
d="M575 45q-54 -34 -93 -45q-40 -11 -102 -11q-130 0 -222 105q-92 104 -92 253q0 151 92 253q43 49 100.5 77t121.5 28q53 0 94 -8q46 -9 91 -27l-15 -83q-40 29 -81 43q-39 12 -89 12q-95 0 -162 -86t-67 -209q0 -122 67 -208q68 -87 162 -87q62 0 100 12q37 12 89 51z
M387 735h-86v86h86v-86z" />
    <glyph glyph-name="cdotaccent" unicode="&#x10b;" horiz-adv-x="435" 
d="M407 42q-71 -52 -160 -52t-150.5 68t-61.5 165q0 92 59 164t157 72q45 0 76 -8.5t74 -33.5l-12 -65q-37 25 -64.5 35t-73.5 10q-70 0 -105 -52t-35 -122q0 -74 38 -122.5t99 -48.5q83 0 153 56l2 -28q4 -16 4 -38zM282 568h-86v86h86v-86z" />
    <glyph glyph-name="Ccaron" unicode="&#x10c;" horiz-adv-x="626" 
d="M575 45q-54 -34 -93 -45q-40 -11 -102 -11q-130 0 -222 105q-92 104 -92 253q0 151 92 253q43 49 100.5 77t121.5 28q53 0 94 -8q46 -9 91 -27l-15 -83q-40 29 -81 43q-39 12 -89 12q-95 0 -162 -86t-67 -209q0 -122 67 -208q68 -87 162 -87q62 0 100 12q37 12 89 51z
M500 869l-126 -134h-60l-126 134h59l97 -97l97 97h59z" />
    <glyph glyph-name="ccaron" unicode="&#x10d;" horiz-adv-x="435" 
d="M407 42q-71 -52 -160 -52t-150.5 68t-61.5 165q0 92 59 164t157 72q45 0 76 -8.5t74 -33.5l-12 -65q-37 25 -64.5 35t-73.5 10q-70 0 -105 -52t-35 -122q0 -74 38 -122.5t99 -48.5q83 0 153 56l2 -28q4 -16 4 -38zM394 697l-125 -172h-60l-125 172h59l96 -123l96 123h59z
" />
    <glyph glyph-name="Dcaron" unicode="&#x10e;" horiz-adv-x="704" 
d="M649 341q0 -142 -88 -241.5t-213 -99.5h-257v694h257q126 0 213.5 -103t87.5 -250zM565 342q0 133 -68.5 214.5t-171.5 81.5h-150v-582h150q101 0 170.5 77t69.5 209zM406 869l-126 -134h-60l-126 134h59l97 -97l97 97h59z" />
    <glyph glyph-name="dcaron" unicode="&#x10f;" horiz-adv-x="502" 
d="M423 0h-76v51q-62 -61 -143 -61q-71 0 -120 67.5t-49 164.5t50.5 164.5t122.5 67.5q78 0 141 -52v292h74v-694zM347 118v223q-35 53 -93 53q-54 0 -98.5 -41.5t-44.5 -131.5q0 -86 40 -128.5t93 -42.5q65 0 103 68zM532 622l-37 -113h-36l23 113h-23v72h73v-72z" />
    <glyph glyph-name="Dcroat" unicode="&#x110;" horiz-adv-x="704" 
d="M649 341q0 -142 -88 -241.5t-213 -99.5h-257v316h-76v62h76v316h257q126 0 213.5 -103t87.5 -250zM565 342q0 133 -68.5 214.5t-171.5 81.5h-150v-260h101v-62h-101v-260h150q101 0 170.5 77t69.5 209z" />
    <glyph glyph-name="dcroat" unicode="&#x111;" horiz-adv-x="502" 
d="M499 538h-76v-538h-76v51q-62 -61 -143 -61q-71 0 -120 67.5t-49 164.5t50.5 164.5t122.5 67.5q78 0 141 -52v136h-148v62h148v94h74v-94h76v-62zM347 118v223q-35 53 -93 53q-54 0 -98.5 -41.5t-44.5 -131.5q0 -86 40 -128.5t93 -42.5q65 0 103 68z" />
    <glyph glyph-name="Emacron" unicode="&#x112;" horiz-adv-x="583" 
d="M541 0h-451v692h438v-63h-180q-6 0 -18 0.5t-18 0.5h-136v-240h324v-60h-324v-263h198q6 0 18 0.5t18 0.5h131v-68zM468 755h-353v63h353v-63z" />
    <glyph glyph-name="emacron" unicode="&#x113;" horiz-adv-x="435" 
d="M407 225h-305q1 -78 43.5 -126.5t101.5 -48.5q81 0 148 57l3 -27q3 -33 3 -37q-73 -53 -156 -53q-88 0 -150 68.5t-62 166.5q0 97 58.5 165.5t139.5 68.5q94 0 140 -77q36 -60 36 -157zM348 279q-6 37 -20.5 63t-33.5 37t-33.5 15.5t-29.5 4.5q-43 0 -76.5 -34t-46.5 -86
h240zM394 579h-353v63h353v-63z" />
    <glyph glyph-name="Ebreve" unicode="&#x114;" horiz-adv-x="583" 
d="M541 0h-451v692h438v-63h-180q-6 0 -18 0.5t-18 0.5h-136v-240h324v-60h-324v-263h198q6 0 18 0.5t18 0.5h131v-68zM457 923q-1 -77 -50 -127.5t-116 -50.5q-66 0 -115 50t-50 128h60q1 -52 33 -82.5t73 -30.5q40 0 72 30t33 83h60z" />
    <glyph glyph-name="ebreve" unicode="&#x115;" horiz-adv-x="435" 
d="M407 225h-305q1 -78 43.5 -126.5t101.5 -48.5q81 0 148 57l3 -27q3 -33 3 -37q-73 -53 -156 -53q-88 0 -150 68.5t-62 166.5q0 97 58.5 165.5t139.5 68.5q94 0 140 -77q36 -60 36 -157zM348 279q-6 37 -20.5 63t-33.5 37t-33.5 15.5t-29.5 4.5q-43 0 -76.5 -34t-46.5 -86
h240zM383 700q-1 -77 -50 -127.5t-116 -50.5q-66 0 -115 50t-50 128h60q1 -52 33 -82.5t73 -30.5q40 0 72 30t33 83h60z" />
    <glyph glyph-name="Edotaccent" unicode="&#x116;" horiz-adv-x="583" 
d="M541 0h-451v692h438v-63h-180q-6 0 -18 0.5t-18 0.5h-136v-240h324v-60h-324v-263h198q6 0 18 0.5t18 0.5h131v-68zM335 735h-86v86h86v-86z" />
    <glyph glyph-name="edotaccent" unicode="&#x117;" horiz-adv-x="435" 
d="M407 225h-305q1 -78 43.5 -126.5t101.5 -48.5q81 0 148 57l3 -27q3 -33 3 -37q-73 -53 -156 -53q-88 0 -150 68.5t-62 166.5q0 97 58.5 165.5t139.5 68.5q94 0 140 -77q36 -60 36 -157zM348 279q-6 37 -20.5 63t-33.5 37t-33.5 15.5t-29.5 4.5q-43 0 -76.5 -34t-46.5 -86
h240zM261 568h-86v86h86v-86z" />
    <glyph glyph-name="Eogonek" unicode="&#x118;" horiz-adv-x="583" 
d="M546 -187q-53 -25 -98 -25q-47 0 -72.5 25t-26.5 60q-2 35 24.5 70.5t62.5 56.5h-346v692h438v-63h-180q-6 0 -18 0.5t-18 0.5h-136v-240h324v-60h-324v-263h198q6 0 18 0.5t18 0.5h131v-68h-42q-88 -50 -87 -104q1 -34 53 -38q29 -1 67 14z" />
    <glyph glyph-name="eogonek" unicode="&#x119;" horiz-adv-x="435" 
d="M407 225h-305q1 -78 43.5 -126.5t101.5 -48.5q81 0 148 57l3 -27q3 -33 3 -37q-36 -26 -82 -41q-89 -50 -88 -106q1 -34 53 -38q30 -1 67 14l14 -59q-53 -25 -98 -25q-47 0 -72.5 25t-26.5 60q-4 68 70 117q-85 3 -145 71t-60 164q0 97 58.5 165.5t139.5 68.5
q94 0 140 -77q36 -60 36 -157zM348 279q-6 37 -20.5 63t-33.5 37t-33.5 15.5t-29.5 4.5q-43 0 -76.5 -34t-46.5 -86h240z" />
    <glyph glyph-name="Ecaron" unicode="&#x11a;" horiz-adv-x="583" 
d="M541 0h-451v692h438v-63h-180q-6 0 -18 0.5t-18 0.5h-136v-240h324v-60h-324v-263h198q6 0 18 0.5t18 0.5h131v-68zM448 869l-126 -134h-60l-126 134h59l97 -97l97 97h59z" />
    <glyph glyph-name="ecaron" unicode="&#x11b;" horiz-adv-x="435" 
d="M407 225h-305q1 -78 43.5 -126.5t101.5 -48.5q81 0 148 57l3 -27q3 -33 3 -37q-73 -53 -156 -53q-88 0 -150 68.5t-62 166.5q0 97 58.5 165.5t139.5 68.5q94 0 140 -77q36 -60 36 -157zM348 279q-6 37 -20.5 63t-33.5 37t-33.5 15.5t-29.5 4.5q-43 0 -76.5 -34t-46.5 -86
h240zM373 697l-125 -172h-60l-125 172h59l96 -123l96 123h59z" />
    <glyph glyph-name="Gcircumflex" unicode="&#x11c;" horiz-adv-x="653" 
d="M586 38q-98 -49 -206 -49q-130 0 -222 105q-92 104 -92 253q0 151 92 253q43 49 100.5 77t121.5 28q57 0 102 -11q44 -10 96 -38l-14 -83q-47 39 -86 53q-41 16 -98 16q-95 0 -162 -86t-67 -209q0 -122 67 -208q68 -87 162 -87q68 0 129 21v170h-129v60h206v-265z
M483 735h-59l-97 97l-97 -97h-59l126 134h60z" />
    <glyph glyph-name="gcircumflex" unicode="&#x11d;" 
d="M475 393q-25 2 -51 2q-28 0 -80 -5l-3 4q33 -46 33 -101q0 -68 -46 -115t-111 -47q-49 0 -90 29q-10 -15 -10 -37q0 -53 57 -53h85q203 0 203 -140q0 -57 -63 -96t-155 -39q-91 0 -154 39.5t-63 94.5q0 63 63 104q-25 30 -25 75q0 46 29 86q-33 45 -33 99q0 66 46 113.5
t111 47.5q54 0 93 -33q68 33 153 33zM305 293q0 53 -25.5 79.5t-62.5 26.5q-32 0 -59.5 -24t-27.5 -83q0 -53 25.5 -79.5t62.5 -26.5q32 0 59.5 24t27.5 83zM392 -71q0 69 -132 69h-87q-21 0 -37 -7t-23 -15.5t-11 -20.5t-4.5 -16.5t-0.5 -8.5q0 -36 43.5 -58t104.5 -22
q60 0 103.5 22.5t43.5 56.5zM366 525h-59l-96 123l-96 -123h-59l125 172h60z" />
    <glyph glyph-name="Gbreve" unicode="&#x11e;" horiz-adv-x="653" 
d="M586 38q-98 -49 -206 -49q-130 0 -222 105q-92 104 -92 253q0 151 92 253q43 49 100.5 77t121.5 28q57 0 102 -11q44 -10 96 -38l-14 -83q-47 39 -86 53q-41 16 -98 16q-95 0 -162 -86t-67 -209q0 -122 67 -208q68 -87 162 -87q68 0 129 21v170h-129v60h206v-265z
M492 923q-1 -77 -50 -127.5t-116 -50.5q-66 0 -115 50t-50 128h60q1 -52 33 -82.5t73 -30.5q40 0 72 30t33 83h60z" />
    <glyph glyph-name="gbreve" unicode="&#x11f;" 
d="M475 393q-25 2 -51 2q-28 0 -80 -5l-3 4q33 -46 33 -101q0 -68 -46 -115t-111 -47q-49 0 -90 29q-10 -15 -10 -37q0 -53 57 -53h85q203 0 203 -140q0 -57 -63 -96t-155 -39q-91 0 -154 39.5t-63 94.5q0 63 63 104q-25 30 -25 75q0 46 29 86q-33 45 -33 99q0 66 46 113.5
t111 47.5q54 0 93 -33q68 33 153 33zM305 293q0 53 -25.5 79.5t-62.5 26.5q-32 0 -59.5 -24t-27.5 -83q0 -53 25.5 -79.5t62.5 -26.5q32 0 59.5 24t27.5 83zM392 -71q0 69 -132 69h-87q-21 0 -37 -7t-23 -15.5t-11 -20.5t-4.5 -16.5t-0.5 -8.5q0 -36 43.5 -58t104.5 -22
q60 0 103.5 22.5t43.5 56.5zM376 700q-1 -77 -50 -127.5t-116 -50.5q-66 0 -115 50t-50 128h60q1 -52 33 -82.5t73 -30.5q40 0 72 30t33 83h60z" />
    <glyph glyph-name="Gdotaccent" unicode="&#x120;" horiz-adv-x="653" 
d="M586 38q-98 -49 -206 -49q-130 0 -222 105q-92 104 -92 253q0 151 92 253q43 49 100.5 77t121.5 28q57 0 102 -11q44 -10 96 -38l-14 -83q-47 39 -86 53q-41 16 -98 16q-95 0 -162 -86t-67 -209q0 -122 67 -208q68 -87 162 -87q68 0 129 21v170h-129v60h206v-265z
M369 735h-86v86h86v-86z" />
    <glyph glyph-name="gdotaccent" unicode="&#x121;" 
d="M475 393q-25 2 -51 2q-28 0 -80 -5l-3 4q33 -46 33 -101q0 -68 -46 -115t-111 -47q-49 0 -90 29q-10 -15 -10 -37q0 -53 57 -53h85q203 0 203 -140q0 -57 -63 -96t-155 -39q-91 0 -154 39.5t-63 94.5q0 63 63 104q-25 30 -25 75q0 46 29 86q-33 45 -33 99q0 66 46 113.5
t111 47.5q54 0 93 -33q68 33 153 33zM305 293q0 53 -25.5 79.5t-62.5 26.5q-32 0 -59.5 -24t-27.5 -83q0 -53 25.5 -79.5t62.5 -26.5q32 0 59.5 24t27.5 83zM392 -71q0 69 -132 69h-87q-21 0 -37 -7t-23 -15.5t-11 -20.5t-4.5 -16.5t-0.5 -8.5q0 -36 43.5 -58t104.5 -22
q60 0 103.5 22.5t43.5 56.5zM254 568h-86v86h86v-86z" />
    <glyph glyph-name="Gcommaaccent" unicode="&#x122;" horiz-adv-x="653" 
d="M586 38q-98 -49 -206 -49q-130 0 -222 105q-92 104 -92 253q0 151 92 253q43 49 100.5 77t121.5 28q57 0 102 -11q44 -10 96 -38l-14 -83q-47 39 -86 53q-41 16 -98 16q-95 0 -162 -86t-67 -209q0 -122 67 -208q68 -87 162 -87q68 0 129 21v170h-129v60h206v-265z
M363 -148l-37 -113h-36l23 113h-23v72h73v-72z" />
    <glyph glyph-name="gcommaaccent" unicode="&#x123;" 
d="M248 540h-73v72l37 113h36l-23 -113h23v-72zM475 393q-25 2 -51 2q-28 0 -80 -5l-3 4q33 -46 33 -101q0 -68 -46 -115t-111 -47q-49 0 -90 29q-10 -15 -10 -37q0 -53 57 -53h85q203 0 203 -140q0 -57 -63 -96t-155 -39q-91 0 -154 39.5t-63 94.5q0 63 63 104
q-25 30 -25 75q0 46 29 86q-33 45 -33 99q0 66 46 113.5t111 47.5q54 0 93 -33q68 33 153 33zM305 293q0 53 -25.5 79.5t-62.5 26.5q-32 0 -59.5 -24t-27.5 -83q0 -53 25.5 -79.5t62.5 -26.5q32 0 59.5 24t27.5 83zM392 -71q0 69 -132 69h-87q-21 0 -37 -7t-23 -15.5
t-11 -20.5t-4.5 -16.5t-0.5 -8.5q0 -36 43.5 -58t104.5 -22q60 0 103.5 22.5t43.5 56.5z" />
    <glyph glyph-name="Hcircumflex" unicode="&#x124;" horiz-adv-x="686" 
d="M595 0h-86v331h-333v-331h-86v694h86v-303h333v303h86v-694zM499 735h-59l-97 97l-97 -97h-59l126 134h60z" />
    <glyph glyph-name="hcircumflex" unicode="&#x125;" horiz-adv-x="502" 
d="M424 0h-76v294q0 18 -2.5 31t-10.5 31t-29 28t-54 10q-36 0 -59 -24.5t-31.5 -55t-8.5 -65.5v-249h-76v694h74v-309q55 69 139 69q134 0 134 -153v-301zM407 735h-59l-97 97l-97 -97h-59l126 134h60z" />
    <glyph glyph-name="Hbar" unicode="&#x126;" horiz-adv-x="686" 
d="M646 490h-51v-490h-86v331h-333v-331h-86v490h-51v62h51v142h86v-142h333v142h86v-142h51v-62zM509 391v99h-333v-99h333z" />
    <glyph glyph-name="hbar" unicode="&#x127;" horiz-adv-x="502" 
d="M424 0h-76v294q0 18 -2.5 31t-10.5 31t-29 28t-54 10q-36 0 -59 -24.5t-31.5 -55t-8.5 -65.5v-249h-76v538h-76v62h76v94h74v-94h100v-62h-100v-153q55 69 139 69q134 0 134 -153v-301z" />
    <glyph glyph-name="Itilde" unicode="&#x128;" horiz-adv-x="266" 
d="M176 0h-86v694h86v-694zM295 853q-1 -55 -30 -86.5t-65 -31.5q-28 0 -74 33q-36 25 -58 25q-20 0 -29 -17.5t-9 -40.5h-60q1 55 30 86.5t65 31.5q28 0 74 -33q36 -25 58 -25q20 0 29 17.5t9 40.5h60z" />
    <glyph glyph-name="itilde" unicode="&#x129;" horiz-adv-x="230" 
d="M152 0h-74v444h74v-444zM277 670q-1 -55 -30 -86.5t-65 -31.5q-28 0 -74 33q-36 25 -58 25q-20 0 -29 -17.5t-9 -40.5h-60q1 55 30 86.5t65 31.5q28 0 74 -33q36 -25 58 -25q20 0 29 17.5t9 40.5h60z" />
    <glyph glyph-name="Imacron" unicode="&#x12a;" horiz-adv-x="266" 
d="M176 0h-86v694h86v-694zM309 755h-353v63h353v-63z" />
    <glyph glyph-name="imacron" unicode="&#x12b;" horiz-adv-x="230" 
d="M152 0h-74v444h74v-444zM291 579h-353v63h353v-63z" />
    <glyph glyph-name="Ibreve" unicode="&#x12c;" horiz-adv-x="266" 
d="M176 0h-86v694h86v-694zM298 923q-1 -77 -50 -127.5t-116 -50.5q-66 0 -115 50t-50 128h60q1 -52 33 -82.5t73 -30.5q40 0 72 30t33 83h60z" />
    <glyph glyph-name="ibreve" unicode="&#x12d;" horiz-adv-x="230" 
d="M152 0h-74v444h74v-444zM280 700q-1 -77 -50 -127.5t-116 -50.5q-66 0 -115 50t-50 128h60q1 -52 33 -82.5t73 -30.5q40 0 72 30t33 83h60z" />
    <glyph glyph-name="Iogonek" unicode="&#x12e;" horiz-adv-x="266" 
d="M223 -187q-53 -25 -98 -25q-47 0 -72.5 25t-26.5 60q-2 37 22.5 71t64.5 56h-23v694h86v-694q-88 -50 -87 -104q1 -34 53 -38q30 -1 67 14z" />
    <glyph glyph-name="iogonek" unicode="&#x12f;" horiz-adv-x="230" 
d="M158 593h-86v86h86v-86zM199 -187q-53 -25 -98 -25q-47 0 -72.5 25t-26.5 60q-2 37 22.5 71t64.5 56h-11v444h74v-444q-88 -50 -87 -104q1 -34 53 -38q30 -1 67 14z" />
    <glyph glyph-name="Idotaccent" unicode="&#x130;" horiz-adv-x="266" 
d="M176 0h-86v694h86v-694zM176 735h-86v86h86v-86z" />
    <glyph glyph-name="dotlessi" unicode="&#x131;" horiz-adv-x="230" 
d="M152 0h-74v444h74v-444z" />
    <glyph glyph-name="Jcircumflex" unicode="&#x134;" horiz-adv-x="459" 
d="M379 148q0 -80 -46 -124.5t-125 -44.5q-86 0 -167 42l14 75q47 -55 124 -55q61 0 88.5 31t27.5 80v542h84v-546zM493 735h-59l-97 97l-97 -97h-59l126 134h60z" />
    <glyph glyph-name="jcircumflex" unicode="&#x135;" horiz-adv-x="258" 
d="M179 -59q0 -67 -36.5 -106t-86.5 -39q-61 0 -118 34l20 60q2 -3 9.5 -9.5t25.5 -14t38 -7.5q11 0 21 2t23.5 8.5t21.5 22.5t8 39v513h74v-503zM291 525h-59l-96 123l-96 -123h-59l125 172h60z" />
    <glyph glyph-name="Kcommaaccent" unicode="&#x136;" horiz-adv-x="674" 
d="M632 0h-92l-236 362l-129 -136v-226h-84v694h84v-369l350 369h94l-261 -275zM373 -148l-37 -113h-36l23 113h-23v72h73v-72z" />
    <glyph glyph-name="kcommaaccent" unicode="&#x137;" horiz-adv-x="475" 
d="M458 0h-82l-152 223l-76 -79v-144h-70v694h73v-451l193 201h92l-164 -171zM274 -148l-37 -113h-36l23 113h-23v72h73v-72z" />
    <glyph glyph-name="Lacute" unicode="&#x139;" horiz-adv-x="529" 
d="M487 0h-397v694h86v-632h48l263 2v-64zM376 867l-197 -122h-89l175 122h111z" />
    <glyph glyph-name="lacute" unicode="&#x13a;" horiz-adv-x="230" 
d="M152 0h-74v694h74v-694zM364 867l-197 -122h-89l175 122h111z" />
    <glyph glyph-name="Lcommaaccent" unicode="&#x13b;" horiz-adv-x="529" 
d="M487 0h-397v694h86v-632h48l263 2v-64zM301 -148l-37 -113h-36l23 113h-23v72h73v-72z" />
    <glyph glyph-name="lcommaaccent" unicode="&#x13c;" horiz-adv-x="230" 
d="M152 0h-74v694h74v-694zM151 -148l-37 -113h-36l23 113h-23v72h73v-72z" />
    <glyph glyph-name="Lcaron" unicode="&#x13d;" horiz-adv-x="529" 
d="M487 0h-397v694h86v-632h48l263 2v-64zM303 622l-37 -113h-36l23 113h-23v72h73v-72z" />
    <glyph glyph-name="lcaron" unicode="&#x13e;" horiz-adv-x="230" 
d="M152 0h-74v694h74v-694zM261 622l-37 -113h-36l23 113h-23v72h73v-72z" />
    <glyph glyph-name="Ldot" unicode="&#x13f;" horiz-adv-x="529" 
d="M487 0h-397v694h86v-632h48l263 2v-64zM440 325h-86v86h86v-86z" />
    <glyph glyph-name="ldot" unicode="&#x140;" horiz-adv-x="280" 
d="M152 0h-74v694h74v-694zM298 325h-86v86h86v-86z" />
    <glyph glyph-name="Lslash" unicode="&#x141;" horiz-adv-x="611" 
d="M559 0h-397v291l-65 -56l-37 43l102 87v329h86v-257l132 111l38 -45l-170 -141v-300h48l263 2v-64z" />
    <glyph glyph-name="lslash" unicode="&#x142;" horiz-adv-x="314" 
d="M308 448l-109 -94v-354h-74v291l-60 -54l-38 45l98 88v324h74v-263l69 61z" />
    <glyph glyph-name="Nacute" unicode="&#x143;" horiz-adv-x="686" 
d="M594 0h-123l-221 452l-81 168h-1v-620h-77v694h123l221 -452l81 -168h1v620h77v-694zM533 867l-197 -122h-89l175 122h111z" />
    <glyph glyph-name="nacute" unicode="&#x144;" horiz-adv-x="502" 
d="M424 0h-76v294q0 18 -2.5 31t-10.5 31t-29 28t-54 10q-36 0 -59 -24.5t-31.5 -55t-8.5 -65.5v-249h-76v449h71v-68q58 73 142 73q134 0 134 -153v-301zM388 694l-146 -167h-60l130 167h76z" />
    <glyph glyph-name="Ncommaaccent" unicode="&#x145;" horiz-adv-x="686" 
d="M594 0h-123l-221 452l-81 168h-1v-620h-77v694h123l221 -452l81 -168h1v620h77v-694zM379 -148l-37 -113h-36l23 113h-23v72h73v-72z" />
    <glyph glyph-name="ncommaaccent" unicode="&#x146;" horiz-adv-x="502" 
d="M424 0h-76v294q0 18 -2.5 31t-10.5 31t-29 28t-54 10q-36 0 -59 -24.5t-31.5 -55t-8.5 -65.5v-249h-76v449h71v-68q58 73 142 73q134 0 134 -153v-301zM287 -148l-37 -113h-36l23 113h-23v72h73v-72z" />
    <glyph glyph-name="Ncaron" unicode="&#x147;" horiz-adv-x="686" 
d="M594 0h-123l-221 452l-81 168h-1v-620h-77v694h123l221 -452l81 -168h1v620h77v-694zM499 869l-126 -134h-60l-126 134h59l97 -97l97 97h59z" />
    <glyph glyph-name="ncaron" unicode="&#x148;" horiz-adv-x="502" 
d="M424 0h-76v294q0 18 -2.5 31t-10.5 31t-29 28t-54 10q-36 0 -59 -24.5t-31.5 -55t-8.5 -65.5v-249h-76v449h71v-68q58 73 142 73q134 0 134 -153v-301zM406 697l-125 -172h-60l-125 172h59l96 -123l96 123h59z" />
    <glyph glyph-name="Eng" unicode="&#x14a;" horiz-adv-x="686" 
d="M595 347q0 -96 -20.5 -176t-71.5 -136t-126 -56v76q42 0 70 24.5t40.5 71t17 91t4.5 105.5t-4.5 105.5t-17 91t-40.5 71t-70 24.5q-74 0 -130 -49.5t-71 -124.5v-465h-86v694h86v-68q83 89 201 89q57 0 100.5 -31.5t68.5 -85t37 -117t12 -134.5z" />
    <glyph glyph-name="eng" unicode="&#x14b;" horiz-adv-x="502" 
d="M424 0q0 -85 -40 -146.5t-108 -61.5v62q72 0 72 146v294q0 18 -2.5 31t-10.5 31t-29 28t-54 10q-36 0 -59 -24.5t-31.5 -55t-8.5 -65.5v-249h-76v449h71v-68q58 73 142 73q134 0 134 -153v-301z" />
    <glyph glyph-name="Omacron" unicode="&#x14c;" horiz-adv-x="722" 
d="M667 345q0 -155 -90.5 -260.5t-216.5 -105.5q-123 0 -214.5 105.5t-91.5 260.5t90.5 262.5t216.5 107.5q124 0 215 -107t91 -263zM581 360q0 131 -65.5 212t-155.5 81q-88 0 -154 -80.5t-66 -212.5q0 -140 65.5 -229t155.5 -89q88 0 154 88.5t66 229.5zM537 755h-353v63
h353v-63z" />
    <glyph glyph-name="omacron" unicode="&#x14d;" 
d="M459 220q0 -96 -63 -163t-152 -67q-87 0 -150.5 66.5t-63.5 163.5q0 99 63 169t152 70q87 0 150.5 -69.5t63.5 -169.5zM383 230q0 82 -41 125.5t-98 43.5q-54 0 -96 -42.5t-42 -126.5t40.5 -131t98.5 -47q56 0 97 46t41 132zM421 579h-353v63h353v-63z" />
    <glyph glyph-name="Obreve" unicode="&#x14e;" horiz-adv-x="722" 
d="M667 345q0 -155 -90.5 -260.5t-216.5 -105.5q-123 0 -214.5 105.5t-91.5 260.5t90.5 262.5t216.5 107.5q124 0 215 -107t91 -263zM581 360q0 131 -65.5 212t-155.5 81q-88 0 -154 -80.5t-66 -212.5q0 -140 65.5 -229t155.5 -89q88 0 154 88.5t66 229.5zM526 923
q-1 -77 -50 -127.5t-116 -50.5q-66 0 -115 50t-50 128h60q1 -52 33 -82.5t73 -30.5q40 0 72 30t33 83h60z" />
    <glyph glyph-name="obreve" unicode="&#x14f;" 
d="M459 220q0 -96 -63 -163t-152 -67q-87 0 -150.5 66.5t-63.5 163.5q0 99 63 169t152 70q87 0 150.5 -69.5t63.5 -169.5zM383 230q0 82 -41 125.5t-98 43.5q-54 0 -96 -42.5t-42 -126.5t40.5 -131t98.5 -47q56 0 97 46t41 132zM410 700q-1 -77 -50 -127.5t-116 -50.5
q-66 0 -115 50t-50 128h60q1 -52 33 -82.5t73 -30.5q40 0 72 30t33 83h60z" />
    <glyph glyph-name="Ohungarumlaut" unicode="&#x150;" horiz-adv-x="722" 
d="M667 345q0 -155 -90.5 -260.5t-216.5 -105.5q-123 0 -214.5 105.5t-91.5 260.5t90.5 262.5t216.5 107.5q124 0 215 -107t91 -263zM581 360q0 131 -65.5 212t-155.5 81q-88 0 -154 -80.5t-66 -212.5q0 -140 65.5 -229t155.5 -89q88 0 154 88.5t66 229.5zM360 912l-78 -167
h-60l62 167h76zM523 912l-78 -167h-60l62 167h76z" />
    <glyph glyph-name="ohungarumlaut" unicode="&#x151;" 
d="M459 220q0 -96 -63 -163t-152 -67q-87 0 -150.5 66.5t-63.5 163.5q0 99 63 169t152 70q87 0 150.5 -69.5t63.5 -169.5zM383 230q0 82 -41 125.5t-98 43.5q-54 0 -96 -42.5t-42 -126.5t40.5 -131t98.5 -47q56 0 97 46t41 132zM244 694l-78 -167h-60l62 167h76zM407 694
l-78 -167h-60l62 167h76z" />
    <glyph glyph-name="OE" unicode="&#x152;" horiz-adv-x="949" 
d="M907 0h-402q-32 0 -77 -10q-52 -11 -80 -11q-129 0 -226.5 105.5t-97.5 260.5q0 156 97.5 263t226.5 107q30 0 82 -12q43 -9 75 -9h389v-63h-179q-6 0 -18 0.5t-18 0.5h-136v-241h323v-60h-323v-264h198q6 0 18 0.5t18 0.5h130v-68zM459 199v296q0 98 -22.5 129t-84.5 31
q-101 0 -172.5 -85.5t-71.5 -209.5q0 -133 71 -227t174 -94q61 0 83.5 31t22.5 129z" />
    <glyph glyph-name="oe" unicode="&#x153;" horiz-adv-x="762" 
d="M734 225h-288q1 -80 43 -127.5t98 -47.5q77 0 135 57l3 -27q0 -2 1.5 -16t1.5 -17q0 -6 -18 -19t-53 -25.5t-71 -12.5q-50 0 -97.5 25t-79.5 76q-36 -55 -82.5 -78t-89.5 -23q-84 0 -145.5 68t-61.5 167q0 97 61 165.5t146 68.5q103 0 170 -98q31 49 74.5 73.5t89.5 24.5
q38 0 68 -14t46.5 -39t27.5 -49.5t15 -55.5t5 -45.5t1 -30.5zM674 279q-9 60 -37 90t-66 30q-39 0 -72.5 -33t-46.5 -87h222zM370 230q0 83 -40 126t-93 43q-55 0 -95.5 -43t-40.5 -126q0 -86 40.5 -133t94.5 -47q56 0 95 47.5t39 132.5z" />
    <glyph glyph-name="Racute" unicode="&#x154;" horiz-adv-x="630" 
d="M602 0h-86l-185 317h-156v-317h-84v694h236q104 0 176 -55.5t72 -131.5q0 -58 -44.5 -108.5t-123.5 -72.5zM496 507q0 54 -47 92.5t-133 38.5h-141v-261h141q88 0 134 39t46 91zM505 867l-197 -122h-89l175 122h111z" />
    <glyph glyph-name="racute" unicode="&#x155;" horiz-adv-x="333" 
d="M318 387q-69 -1 -117.5 -47.5t-48.5 -120.5v-219h-74v449h69v-88q64 92 171 93v-67zM284 694l-146 -167h-60l130 167h76z" />
    <glyph glyph-name="Rcommaaccent" unicode="&#x156;" horiz-adv-x="630" 
d="M602 0h-86l-185 317h-156v-317h-84v694h236q104 0 176 -55.5t72 -131.5q0 -58 -44.5 -108.5t-123.5 -72.5zM496 507q0 54 -47 92.5t-133 38.5h-141v-261h141q88 0 134 39t46 91zM351 -148l-37 -113h-36l23 113h-23v72h73v-72z" />
    <glyph glyph-name="rcommaaccent" unicode="&#x157;" horiz-adv-x="333" 
d="M318 387q-69 -1 -117.5 -47.5t-48.5 -120.5v-219h-74v449h69v-88q64 92 171 93v-67zM151 -148l-37 -113h-36l23 113h-23v72h73v-72z" />
    <glyph glyph-name="Rcaron" unicode="&#x158;" horiz-adv-x="630" 
d="M602 0h-86l-185 317h-156v-317h-84v694h236q104 0 176 -55.5t72 -131.5q0 -58 -44.5 -108.5t-123.5 -72.5zM496 507q0 54 -47 92.5t-133 38.5h-141v-261h141q88 0 134 39t46 91zM471 869l-126 -134h-60l-126 134h59l97 -97l97 97h59z" />
    <glyph glyph-name="rcaron" unicode="&#x159;" horiz-adv-x="333" 
d="M318 387q-69 -1 -117.5 -47.5t-48.5 -120.5v-219h-74v449h69v-88q64 92 171 93v-67zM322 697l-125 -172h-60l-125 172h59l96 -123l96 123h59z" />
    <glyph glyph-name="Sacute" unicode="&#x15a;" horiz-adv-x="544" 
d="M489 189q0 -85 -62.5 -147.5t-157.5 -62.5q-120 0 -225 69l15 81q91 -83 210 -83q63 0 103 39.5t40 93.5q0 51 -32 85q-23 24 -43.5 33t-87.5 25q-56 14 -84.5 27.5t-62.5 47.5q-7 7 -15.5 18.5t-20.5 41.5t-12 62q0 78 62 137t159 59q41 0 78.5 -8.5t55 -17t46.5 -23.5
l-15 -81q-73 65 -166 65q-63 0 -103 -36t-40 -84q0 -41 40 -84q15 -15 36 -22.5t79 -21.5q59 -15 88.5 -28.5t61.5 -47.5q53 -60 53 -137zM462 867l-197 -122h-89l175 122h111z" />
    <glyph glyph-name="sacute" unicode="&#x15b;" horiz-adv-x="375" 
d="M352 127q0 -55 -36.5 -96t-123.5 -41q-92 0 -165 44l12 68q69 -50 152 -50q92 0 92 69q0 15 -7 27t-15 19t-23 13t-23.5 8t-22.5 5q-36 7 -51 11t-33.5 13t-35.5 24q-39 36 -39 88q0 37 15.5 63.5t34.5 39t46 19t39.5 7.5t26.5 1q75 0 141 -31l-12 -65q-65 37 -139 37
q-83 0 -83 -62q0 -23 16 -38t30.5 -19.5t40.5 -9.5q53 -10 78 -20t50 -36q35 -44 35 -88zM325 694l-146 -167h-60l130 167h76z" />
    <glyph glyph-name="Scircumflex" unicode="&#x15c;" horiz-adv-x="544" 
d="M489 189q0 -85 -62.5 -147.5t-157.5 -62.5q-120 0 -225 69l15 81q91 -83 210 -83q63 0 103 39.5t40 93.5q0 51 -32 85q-23 24 -43.5 33t-87.5 25q-56 14 -84.5 27.5t-62.5 47.5q-7 7 -15.5 18.5t-20.5 41.5t-12 62q0 78 62 137t159 59q41 0 78.5 -8.5t55 -17t46.5 -23.5
l-15 -81q-73 65 -166 65q-63 0 -103 -36t-40 -84q0 -41 40 -84q15 -15 36 -22.5t79 -21.5q59 -15 88.5 -28.5t61.5 -47.5q53 -60 53 -137zM428 735h-59l-97 97l-97 -97h-59l126 134h60z" />
    <glyph glyph-name="scircumflex" unicode="&#x15d;" horiz-adv-x="375" 
d="M352 127q0 -55 -36.5 -96t-123.5 -41q-92 0 -165 44l12 68q69 -50 152 -50q92 0 92 69q0 15 -7 27t-15 19t-23 13t-23.5 8t-22.5 5q-36 7 -51 11t-33.5 13t-35.5 24q-39 36 -39 88q0 37 15.5 63.5t34.5 39t46 19t39.5 7.5t26.5 1q75 0 141 -31l-12 -65q-65 37 -139 37
q-83 0 -83 -62q0 -23 16 -38t30.5 -19.5t40.5 -9.5q53 -10 78 -20t50 -36q35 -44 35 -88zM343 525h-59l-96 123l-96 -123h-59l125 172h60z" />
    <glyph glyph-name="Scedilla" unicode="&#x15e;" horiz-adv-x="544" 
d="M489 189q0 -85 -62.5 -147.5t-157.5 -62.5q-120 0 -225 69l15 81q91 -83 210 -83q63 0 103 39.5t40 93.5q0 51 -32 85q-23 24 -43.5 33t-87.5 25q-56 14 -84.5 27.5t-62.5 47.5q-7 7 -15.5 18.5t-20.5 41.5t-12 62q0 78 62 137t159 59q41 0 78.5 -8.5t55 -17t46.5 -23.5
l-15 -81q-73 65 -166 65q-63 0 -103 -36t-40 -84q0 -41 40 -84q15 -15 36 -22.5t79 -21.5q59 -15 88.5 -28.5t61.5 -47.5q53 -60 53 -137zM318 -44l-64 -168h-68l72 168h60z" />
    <glyph glyph-name="scedilla" unicode="&#x15f;" horiz-adv-x="375" 
d="M352 127q0 -55 -36.5 -96t-123.5 -41q-92 0 -165 44l12 68q69 -50 152 -50q92 0 92 69q0 15 -7 27t-15 19t-23 13t-23.5 8t-22.5 5q-36 7 -51 11t-33.5 13t-35.5 24q-39 36 -39 88q0 37 15.5 63.5t34.5 39t46 19t39.5 7.5t26.5 1q75 0 141 -31l-12 -65q-65 37 -139 37
q-83 0 -83 -62q0 -23 16 -38t30.5 -19.5t40.5 -9.5q53 -10 78 -20t50 -36q35 -44 35 -88zM233 -44l-64 -168h-68l72 168h60z" />
    <glyph glyph-name="Scaron" unicode="&#x160;" horiz-adv-x="544" 
d="M489 189q0 -85 -62.5 -147.5t-157.5 -62.5q-120 0 -225 69l15 81q91 -83 210 -83q63 0 103 39.5t40 93.5q0 51 -32 85q-23 24 -43.5 33t-87.5 25q-56 14 -84.5 27.5t-62.5 47.5q-7 7 -15.5 18.5t-20.5 41.5t-12 62q0 78 62 137t159 59q41 0 78.5 -8.5t55 -17t46.5 -23.5
l-15 -81q-73 65 -166 65q-63 0 -103 -36t-40 -84q0 -41 40 -84q15 -15 36 -22.5t79 -21.5q59 -15 88.5 -28.5t61.5 -47.5q53 -60 53 -137zM428 869l-126 -134h-60l-126 134h59l97 -97l97 97h59z" />
    <glyph glyph-name="scaron" unicode="&#x161;" horiz-adv-x="375" 
d="M352 127q0 -55 -36.5 -96t-123.5 -41q-92 0 -165 44l12 68q69 -50 152 -50q92 0 92 69q0 15 -7 27t-15 19t-23 13t-23.5 8t-22.5 5q-36 7 -51 11t-33.5 13t-35.5 24q-39 36 -39 88q0 37 15.5 63.5t34.5 39t46 19t39.5 7.5t26.5 1q75 0 141 -31l-12 -65q-65 37 -139 37
q-83 0 -83 -62q0 -23 16 -38t30.5 -19.5t40.5 -9.5q53 -10 78 -20t50 -36q35 -44 35 -88zM343 697l-125 -172h-60l-125 172h59l96 -123l96 123h59z" />
    <glyph glyph-name="Tcedilla" unicode="&#x162;" horiz-adv-x="668" 
d="M632 626h-131q-6 0 -18 0.5t-18 0.5h-88v-627h-86v627h-88q-6 0 -18 -0.5t-18 -0.5h-132v63h597v-63zM364 -23l-64 -168h-68l72 168h60z" />
    <glyph glyph-name="tcedilla" unicode="&#x163;" horiz-adv-x="354" 
d="M326 29q-76 -39 -144 -39q-82 0 -82 127v269h-82v58h84v127h69v-127h138v-58h-138v-252q0 -82 50 -82t90 35zM238 -23l-64 -168h-68l72 168h60z" />
    <glyph glyph-name="Tcaron" unicode="&#x164;" horiz-adv-x="668" 
d="M632 626h-131q-6 0 -18 0.5t-18 0.5h-88v-627h-86v627h-88q-6 0 -18 -0.5t-18 -0.5h-132v63h597v-63zM490 869l-126 -134h-60l-126 134h59l97 -97l97 97h59z" />
    <glyph glyph-name="tcaron" unicode="&#x165;" horiz-adv-x="354" 
d="M326 29q-76 -39 -144 -39q-82 0 -82 127v269h-82v58h84v127h69v-127h138v-58h-138v-252q0 -82 50 -82t90 35zM280 594l-37 -113h-36l23 113h-23v72h73v-72z" />
    <glyph glyph-name="Utilde" unicode="&#x168;" horiz-adv-x="667" 
d="M576 233q0 -107 -71 -180.5t-170 -73.5q-100 0 -172.5 73t-72.5 181v461h86v-462q0 -95 47.5 -146t112.5 -51q66 0 115 51.5t49 145.5v462h76v-461zM496 853q-1 -55 -30 -86.5t-65 -31.5q-28 0 -74 33q-36 25 -58 25q-20 0 -29 -17.5t-9 -40.5h-60q1 55 30 86.5t65 31.5
q28 0 74 -33q36 -25 58 -25q20 0 29 17.5t9 40.5h60z" />
    <glyph glyph-name="utilde" unicode="&#x169;" horiz-adv-x="502" 
d="M424 0h-74v50q-67 -60 -168 -60q-58 0 -81.5 31t-23.5 90v333h76v-329q0 -37 14 -53.5t63 -16.5q51 0 84.5 29t33.5 84v286h76v-444zM413 670q-1 -55 -30 -86.5t-65 -31.5q-28 0 -74 33q-36 25 -58 25q-20 0 -29 -17.5t-9 -40.5h-60q1 55 30 86.5t65 31.5q28 0 74 -33
q36 -25 58 -25q20 0 29 17.5t9 40.5h60z" />
    <glyph glyph-name="Umacron" unicode="&#x16a;" horiz-adv-x="667" 
d="M576 233q0 -107 -71 -180.5t-170 -73.5q-100 0 -172.5 73t-72.5 181v461h86v-462q0 -95 47.5 -146t112.5 -51q66 0 115 51.5t49 145.5v462h76v-461zM510 755h-353v63h353v-63z" />
    <glyph glyph-name="umacron" unicode="&#x16b;" horiz-adv-x="502" 
d="M424 0h-74v50q-67 -60 -168 -60q-58 0 -81.5 31t-23.5 90v333h76v-329q0 -37 14 -53.5t63 -16.5q51 0 84.5 29t33.5 84v286h76v-444zM427 579h-353v63h353v-63z" />
    <glyph glyph-name="Ubreve" unicode="&#x16c;" horiz-adv-x="667" 
d="M576 233q0 -107 -71 -180.5t-170 -73.5q-100 0 -172.5 73t-72.5 181v461h86v-462q0 -95 47.5 -146t112.5 -51q66 0 115 51.5t49 145.5v462h76v-461zM499 923q-1 -77 -50 -127.5t-116 -50.5q-66 0 -115 50t-50 128h60q1 -52 33 -82.5t73 -30.5q40 0 72 30t33 83h60z" />
    <glyph glyph-name="ubreve" unicode="&#x16d;" horiz-adv-x="502" 
d="M424 0h-74v50q-67 -60 -168 -60q-58 0 -81.5 31t-23.5 90v333h76v-329q0 -37 14 -53.5t63 -16.5q51 0 84.5 29t33.5 84v286h76v-444zM416 700q-1 -77 -50 -127.5t-116 -50.5q-66 0 -115 50t-50 128h60q1 -52 33 -82.5t73 -30.5q40 0 72 30t33 83h60z" />
    <glyph glyph-name="Uring" unicode="&#x16e;" horiz-adv-x="667" 
d="M576 233q0 -107 -71 -180.5t-170 -73.5q-100 0 -172.5 73t-72.5 181v461h86v-462q0 -95 47.5 -146t112.5 -51q66 0 115 51.5t49 145.5v462h76v-461zM383 778q0 37 -49 37t-49 -37t49 -37t49 37zM443 777q0 -33 -31 -58t-78 -25q-46 0 -77.5 25t-31.5 60q0 33 31 58t78 25
q46 0 77.5 -25t31.5 -60z" />
    <glyph glyph-name="uring" unicode="&#x16f;" horiz-adv-x="502" 
d="M424 0h-74v50q-67 -60 -168 -60q-58 0 -81.5 31t-23.5 90v333h76v-329q0 -37 14 -53.5t63 -16.5q51 0 84.5 29t33.5 84v286h76v-444zM301 601q0 37 -49 37t-49 -37t49 -37t49 37zM361 600q0 -33 -31 -58t-78 -25q-46 0 -77.5 25t-31.5 60q0 33 31 58t78 25q46 0 77.5 -25
t31.5 -60z" />
    <glyph glyph-name="Uhungarumlaut" unicode="&#x170;" horiz-adv-x="667" 
d="M576 233q0 -107 -71 -180.5t-170 -73.5q-100 0 -172.5 73t-72.5 181v461h86v-462q0 -95 47.5 -146t112.5 -51q66 0 115 51.5t49 145.5v462h76v-461zM333 912l-78 -167h-60l62 167h76zM496 912l-78 -167h-60l62 167h76z" />
    <glyph glyph-name="uhungarumlaut" unicode="&#x171;" horiz-adv-x="502" 
d="M424 0h-74v50q-67 -60 -168 -60q-58 0 -81.5 31t-23.5 90v333h76v-329q0 -37 14 -53.5t63 -16.5q51 0 84.5 29t33.5 84v286h76v-444zM250 694l-78 -167h-60l62 167h76zM413 694l-78 -167h-60l62 167h76z" />
    <glyph glyph-name="Uogonek" unicode="&#x172;" horiz-adv-x="667" 
d="M576 233q0 -95 -57 -164.5t-142 -85.5q-60 -41 -59 -87q1 -34 53 -38q29 -1 67 14l14 -59q-53 -25 -98 -25q-47 0 -72.5 25t-26.5 60q-3 59 57 107q-92 9 -157 80.5t-65 172.5v461h86v-462q0 -95 47.5 -146t112.5 -51q66 0 115 51.5t49 145.5v462h76v-461z" />
    <glyph glyph-name="uogonek" unicode="&#x173;" horiz-adv-x="502" 
d="M471 -187q-53 -25 -98 -25q-47 0 -72.5 25t-26.5 60q-2 37 22.5 71t64.5 56h-11v50q-67 -60 -168 -60q-58 0 -81.5 31t-23.5 90v333h76v-329q0 -37 14 -53.5t63 -16.5q51 0 84.5 29t33.5 84v286h76v-444q-88 -50 -87 -104q1 -34 53 -38q30 -1 67 14z" />
    <glyph glyph-name="Wcircumflex" unicode="&#x174;" horiz-adv-x="919" 
d="M904 694l-196 -694h-88l-109 396q-21 76 -34.5 132t-16.5 74l-3 17h-1q-6 -56 -69 -279l-94 -340h-83l-196 694h85l84 -304l43 -160q31 -130 33 -153h1q4 41 32 150t42 157l86 310h85l118 -430q37 -132 44 -188h1q4 40 32 142q33 124 40 148l91 328h73zM616 735h-59
l-97 97l-97 -97h-59l126 134h60z" />
    <glyph glyph-name="wcircumflex" unicode="&#x175;" horiz-adv-x="666" 
d="M650 444l-134 -444h-88l-71 250q-27 88 -29 136h-1q-6 -67 -102 -386h-77l-134 444h76l71 -247q29 -103 31 -139h1q3 46 45 190l57 196h69l66 -226q34 -116 40 -162h1q4 40 46 185l60 203h73zM488 525h-59l-96 123l-96 -123h-59l125 172h60z" />
    <glyph glyph-name="Ycircumflex" unicode="&#x176;" horiz-adv-x="647" 
d="M643 694l-278 -416v-278h-84v278l-278 416h100l170 -255q32 -49 57 -90q23 39 55 86l172 259h86zM480 735h-59l-97 97l-97 -97h-59l126 134h60z" />
    <glyph glyph-name="ycircumflex" unicode="&#x177;" horiz-adv-x="448" 
d="M433 444l-209 -538q-15 -39 -31.5 -63.5t-33.5 -33.5t-26.5 -11t-22.5 -2q-23 0 -71 8l-6 65q39 -15 77 -15q16 0 28 10.5t27 44.5l35 91l-186 444h79l71 -175q61 -153 66 -211h1q4 70 127 386h75zM379 525h-59l-96 123l-96 -123h-59l125 172h60z" />
    <glyph glyph-name="Ydieresis" unicode="&#x178;" horiz-adv-x="647" 
d="M643 694l-278 -416v-278h-84v278l-278 416h100l170 -255q32 -49 57 -90q23 39 55 86l172 259h86zM279 735h-77v78h77v-78zM446 735h-77v78h77v-78z" />
    <glyph glyph-name="Zacute" unicode="&#x179;" horiz-adv-x="598" 
d="M548 0h-494v41l380 593h-134q-6 0 -18 -0.5t-18 -0.5h-196v61h475v-40l-380 -592h32l259 2h94v-64zM489 867l-197 -122h-89l175 122h111z" />
    <glyph glyph-name="zacute" unicode="&#x17a;" horiz-adv-x="425" 
d="M393 0h-366v40l261 346h-76q-6 0 -18 -0.5t-18 -0.5h-135v59h349v-39l-261 -345h85q6 0 18 0.5t18 0.5h143v-61zM350 694l-146 -167h-60l130 167h76z" />
    <glyph glyph-name="Zdotaccent" unicode="&#x17b;" horiz-adv-x="598" 
d="M548 0h-494v41l380 593h-134q-6 0 -18 -0.5t-18 -0.5h-196v61h475v-40l-380 -592h32l259 2h94v-64zM342 735h-86v86h86v-86z" />
    <glyph glyph-name="zdotaccent" unicode="&#x17c;" horiz-adv-x="425" 
d="M393 0h-366v40l261 346h-76q-6 0 -18 -0.5t-18 -0.5h-135v59h349v-39l-261 -345h85q6 0 18 0.5t18 0.5h143v-61zM255 568h-86v86h86v-86z" />
    <glyph glyph-name="Zcaron" unicode="&#x17d;" horiz-adv-x="598" 
d="M548 0h-494v41l380 593h-134q-6 0 -18 -0.5t-18 -0.5h-196v61h475v-40l-380 -592h32l259 2h94v-64zM455 869l-126 -134h-60l-126 134h59l97 -97l97 97h59z" />
    <glyph glyph-name="zcaron" unicode="&#x17e;" horiz-adv-x="425" 
d="M393 0h-366v40l261 346h-76q-6 0 -18 -0.5t-18 -0.5h-135v59h349v-39l-261 -345h85q6 0 18 0.5t18 0.5h143v-61zM368 697l-125 -172h-60l-125 172h59l96 -123l96 123h59z" />
    <glyph glyph-name="longs" unicode="&#x17f;" horiz-adv-x="278" 
d="M318 628q-38 16 -78 16q-34 0 -61 -17.5t-27 -62.5v-564h-74v534q0 73 46 121.5t117 48.5q16 0 35.5 -2.5t30.5 -5.5l11 -2v-66z" />
    <glyph glyph-name="Ereversed" unicode="&#x18e;" horiz-adv-x="583" 
d="M541 0h-451v68h131q6 0 18 -0.5t18 -0.5h198v263h-324v60h324v240h-136q-6 0 -18 -0.5t-18 -0.5h-180v63h438v-692z" />
    <glyph glyph-name="florin" unicode="&#x192;" horiz-adv-x="299" 
d="M339 628q-38 16 -78 16q-34 0 -62 -17.5t-28 -62.5v-120h109v-58h-107v-386h-74v386h-73v58h73v90q0 73 46 121.5t117 48.5q42 0 77 -10v-66z" />
    <glyph glyph-name="Ohorn" unicode="&#x1a0;" horiz-adv-x="722" 
d="M666 345q0 -152 -89 -259q-91 -107 -217 -107q-62 0 -118.5 28.5t-97.5 78.5q-90 108 -90 259q0 153 90 262q90 108 216 108q81 0 151 -48l31 27h-23l-1 1v79l1 1h79l1 -1v-79v-1l-62 -47q14 -12 40 -40q89 -110 89 -262zM580 361q0 124 -63 207q-63 85 -157 85
q-92 0 -157 -85q-63 -83 -63 -207q0 -136 63 -226q64 -92 157 -92q46 0 87.5 25t69.5 67q63 90 63 226z" />
    <glyph glyph-name="ohorn" unicode="&#x1a1;" horiz-adv-x="489" 
d="M457 445l-67 -52l3 -3q62 -71 62 -170q0 -96 -62 -163q-61 -67 -149 -67t-149 67q-62 67 -62 163q0 99 62 170q62 70 149 70q67 0 123 -45l33 29h-23l-1 1v79l1 1h79l1 -1v-79zM385 231q0 75 -39 121q-39 48 -102 48t-103 -48q-39 -46 -39 -121q0 -79 39 -129
q40 -50 103 -50t102 50q39 48 39 129z" />
    <glyph glyph-name="Uhorn" unicode="&#x1af;" horiz-adv-x="667" 
d="M667 695l-1 -1l-96 -70v-393q0 -104 -69 -178q-71 -74 -169 -74q-97 0 -168 74q-69 74 -69 178v463h76v-463q0 -86 44 -141q46 -55 117 -55q73 0 117 55q45 55 45 141v463h76v-32l40 32h-23l-1 1v79l1 1h79l1 -1v-79z" />
    <glyph glyph-name="uhorn" unicode="&#x1b0;" horiz-adv-x="502" 
d="M521 445l-1 -1l-96 -70v-374h-74v50q-63 -60 -170 -60q-54 0 -79 29q-24 30 -24 93v332h76v-332q0 -40 17 -53q18 -14 67 -14q45 0 78 30.5t33 74.5v294h76v-32l40 32h-24v1v79v1h80l1 -1v-79z" />
    <glyph glyph-name="Acaron" unicode="&#x1cd;" horiz-adv-x="647" 
d="M619 0h-89l-74 203h-282l-73 -203h-74l252 694h88zM435 259l-120 363l-119 -363h239zM480 869l-126 -134h-60l-126 134h59l97 -97l97 97h59z" />
    <glyph glyph-name="acaron" unicode="&#x1ce;" horiz-adv-x="469" 
d="M401 0h-74v37q-26 -22 -72 -34.5t-90 -12.5q-57 0 -84 41t-27 84q0 74 106 110q61 20 165 25v41q0 52 -24.5 81t-61.5 29q-79 0 -148 -50l-6 66q73 42 154 42q70 0 116 -47t46 -119v-293zM325 134v65q-27 0 -57.5 -3.5t-64.5 -12t-56 -26t-22 -41.5q0 -28 25.5 -47
t65.5 -19q44 0 76 20q33 20 33 64zM390 697l-125 -172h-60l-125 172h59l96 -123l96 123h59z" />
    <glyph glyph-name="Icaron" unicode="&#x1cf;" horiz-adv-x="266" 
d="M176 0h-86v694h86v-694zM289 869l-126 -134h-60l-126 134h59l97 -97l97 97h59z" />
    <glyph glyph-name="icaron" unicode="&#x1d0;" horiz-adv-x="230" 
d="M152 0h-74v444h74v-444zM270 697l-125 -172h-60l-125 172h59l96 -123l96 123h59z" />
    <glyph glyph-name="Ocaron" unicode="&#x1d1;" horiz-adv-x="722" 
d="M667 345q0 -155 -90.5 -260.5t-216.5 -105.5q-123 0 -214.5 105.5t-91.5 260.5t90.5 262.5t216.5 107.5q124 0 215 -107t91 -263zM581 360q0 131 -65.5 212t-155.5 81q-88 0 -154 -80.5t-66 -212.5q0 -140 65.5 -229t155.5 -89q88 0 154 88.5t66 229.5zM517 869
l-126 -134h-60l-126 134h59l97 -97l97 97h59z" />
    <glyph glyph-name="ocaron" unicode="&#x1d2;" 
d="M459 220q0 -96 -63 -163t-152 -67q-87 0 -150.5 66.5t-63.5 163.5q0 99 63 169t152 70q87 0 150.5 -69.5t63.5 -169.5zM383 230q0 82 -41 125.5t-98 43.5q-54 0 -96 -42.5t-42 -126.5t40.5 -131t98.5 -47q56 0 97 46t41 132zM400 697l-125 -172h-60l-125 172h59l96 -123
l96 123h59z" />
    <glyph glyph-name="Ucaron" unicode="&#x1d3;" horiz-adv-x="667" 
d="M576 233q0 -107 -71 -180.5t-170 -73.5q-100 0 -172.5 73t-72.5 181v461h86v-462q0 -95 47.5 -146t112.5 -51q66 0 115 51.5t49 145.5v462h76v-461zM490 869l-126 -134h-60l-126 134h59l97 -97l97 97h59z" />
    <glyph glyph-name="ucaron" unicode="&#x1d4;" horiz-adv-x="502" 
d="M424 0h-74v50q-67 -60 -168 -60q-58 0 -81.5 31t-23.5 90v333h76v-329q0 -37 14 -53.5t63 -16.5q51 0 84.5 29t33.5 84v286h76v-444zM406 697l-125 -172h-60l-125 172h59l96 -123l96 123h59z" />
    <glyph glyph-name="Udieresisacute" unicode="&#x1d7;" horiz-adv-x="667" 
d="M576 233q0 -107 -71 -180.5t-170 -73.5q-100 0 -172.5 73t-72.5 181v461h86v-462q0 -95 47.5 -146t112.5 -51q66 0 115 51.5t49 145.5v462h76v-461zM289 735h-77v78h77v-78zM456 735h-77v78h77v-78zM524 986l-197 -122h-89l175 122h111z" />
    <glyph glyph-name="udieresisacute" unicode="&#x1d8;" horiz-adv-x="502" 
d="M424 0h-74v50q-67 -60 -168 -60q-58 0 -81.5 31t-23.5 90v333h76v-329q0 -37 14 -53.5t63 -16.5q51 0 84.5 29t33.5 84v286h76v-444zM219 572h-77v78h77v-78zM360 572h-77v78h77v-78zM441 828l-197 -122h-89l175 122h111z" />
    <glyph glyph-name="Udieresiscaron" unicode="&#x1d9;" horiz-adv-x="667" 
d="M576 233q0 -107 -71 -180.5t-170 -73.5q-100 0 -172.5 73t-72.5 181v461h86v-462q0 -95 47.5 -146t112.5 -51q66 0 115 51.5t49 145.5v462h76v-461zM289 735h-77v78h77v-78zM456 735h-77v78h77v-78zM490 988l-126 -134h-60l-126 134h59l97 -97l97 97h59z" />
    <glyph glyph-name="udieresiscaron" unicode="&#x1da;" horiz-adv-x="502" 
d="M424 0h-74v50q-67 -60 -168 -60q-58 0 -81.5 31t-23.5 90v333h76v-329q0 -37 14 -53.5t63 -16.5q51 0 84.5 29t33.5 84v286h76v-444zM219 572h-77v78h77v-78zM360 572h-77v78h77v-78zM407 830l-126 -134h-60l-126 134h59l97 -97l97 97h59z" />
    <glyph glyph-name="Udieresisgrave" unicode="&#x1db;" horiz-adv-x="667" 
d="M576 233q0 -107 -71 -180.5t-170 -73.5q-100 0 -172.5 73t-72.5 181v461h86v-462q0 -95 47.5 -146t112.5 -51q66 0 115 51.5t49 145.5v462h76v-461zM289 735h-77v78h77v-78zM456 735h-77v78h77v-78zM430 864h-89l-197 122h111z" />
    <glyph glyph-name="udieresisgrave" unicode="&#x1dc;" horiz-adv-x="502" 
d="M424 0h-74v50q-67 -60 -168 -60q-58 0 -81.5 31t-23.5 90v333h76v-329q0 -37 14 -53.5t63 -16.5q51 0 84.5 29t33.5 84v286h76v-444zM219 572h-77v78h77v-78zM360 572h-77v78h77v-78zM347 706h-89l-197 122h111z" />
    <glyph glyph-name="eturned" unicode="&#x1dd;" horiz-adv-x="435" 
d="M407 224q0 -97 -58.5 -165.5t-139.5 -68.5q-94 0 -140 77q-36 60 -36 157h305q-1 78 -43.5 126.5t-101.5 48.5q-81 0 -148 -57l-3 27q-3 33 -3 37q73 53 156 53q88 0 150 -68.5t62 -166.5zM332 170h-240q6 -37 20.5 -63t33.5 -37t33.5 -15.5t29.5 -4.5q43 0 76.5 34
t46.5 86z" />
    <glyph glyph-name="Gcaron" unicode="&#x1e6;" horiz-adv-x="653" 
d="M586 38q-98 -49 -206 -49q-130 0 -222 105q-92 104 -92 253q0 151 92 253q43 49 100.5 77t121.5 28q57 0 102 -11q44 -10 96 -38l-14 -83q-47 39 -86 53q-41 16 -98 16q-95 0 -162 -86t-67 -209q0 -122 67 -208q68 -87 162 -87q68 0 129 21v170h-129v60h206v-265z
M483 869l-126 -134h-60l-126 134h59l97 -97l97 97h59z" />
    <glyph glyph-name="gcaron" unicode="&#x1e7;" 
d="M475 393q-25 2 -51 2q-28 0 -80 -5l-3 4q33 -46 33 -101q0 -68 -46 -115t-111 -47q-49 0 -90 29q-10 -15 -10 -37q0 -53 57 -53h85q203 0 203 -140q0 -57 -63 -96t-155 -39q-91 0 -154 39.5t-63 94.5q0 63 63 104q-25 30 -25 75q0 46 29 86q-33 45 -33 99q0 66 46 113.5
t111 47.5q54 0 93 -33q68 33 153 33zM305 293q0 53 -25.5 79.5t-62.5 26.5q-32 0 -59.5 -24t-27.5 -83q0 -53 25.5 -79.5t62.5 -26.5q32 0 59.5 24t27.5 83zM392 -71q0 69 -132 69h-87q-21 0 -37 -7t-23 -15.5t-11 -20.5t-4.5 -16.5t-0.5 -8.5q0 -36 43.5 -58t104.5 -22
q60 0 103.5 22.5t43.5 56.5zM366 697l-125 -172h-60l-125 172h59l96 -123l96 123h59z" />
    <glyph glyph-name="Oogonek" unicode="&#x1ea;" horiz-adv-x="722" 
d="M667 345q0 -139 -75 -240t-185 -122q-60 -41 -60 -87q1 -34 53 -38q30 -1 67 14l14 -59q-53 -25 -98 -25q-47 0 -72.5 25t-26.5 60q-3 59 57 107q-118 8 -202.5 112t-84.5 253q0 155 90.5 262.5t216.5 107.5q124 0 215 -107t91 -263zM581 360q0 131 -65.5 212t-155.5 81
q-88 0 -154 -80.5t-66 -212.5q0 -140 65.5 -229t155.5 -89q88 0 154 88.5t66 229.5z" />
    <glyph glyph-name="oogonek" unicode="&#x1eb;" 
d="M459 220q0 -78 -43 -139t-111 -82q-87 -49 -86 -103q1 -34 53 -38q30 -1 67 14l14 -59q-53 -25 -98 -25q-47 0 -72.5 25t-26.5 60q-4 67 72 118q-82 6 -140 71.5t-58 157.5q0 99 63 169t152 70q87 0 150.5 -69.5t63.5 -169.5zM383 230q0 82 -41 125.5t-98 43.5
q-54 0 -96 -42.5t-42 -126.5t40.5 -131t98.5 -47q56 0 97 46t41 132z" />
    <glyph glyph-name="jcaron" unicode="&#x1f0;" horiz-adv-x="258" 
d="M179 -59q0 -67 -36.5 -106t-86.5 -39q-61 0 -118 34l20 60q2 -3 9.5 -9.5t25.5 -14t38 -7.5q11 0 21 2t23.5 8.5t21.5 22.5t8 39v513h74v-503zM291 697l-125 -172h-60l-125 172h59l96 -123l96 123h59z" />
    <glyph glyph-name="Gacute" unicode="&#x1f4;" horiz-adv-x="653" 
d="M586 38q-98 -49 -206 -49q-130 0 -222 105q-92 104 -92 253q0 151 92 253q43 49 100.5 77t121.5 28q57 0 102 -11q44 -10 96 -38l-14 -83q-47 39 -86 53q-41 16 -98 16q-95 0 -162 -86t-67 -209q0 -122 67 -208q68 -87 162 -87q68 0 129 21v170h-129v60h206v-265z
M517 867l-197 -122h-89l175 122h111z" />
    <glyph glyph-name="gacute" unicode="&#x1f5;" 
d="M475 393q-25 2 -51 2q-28 0 -80 -5l-3 4q33 -46 33 -101q0 -68 -46 -115t-111 -47q-49 0 -90 29q-10 -15 -10 -37q0 -53 57 -53h85q203 0 203 -140q0 -57 -63 -96t-155 -39q-91 0 -154 39.5t-63 94.5q0 63 63 104q-25 30 -25 75q0 46 29 86q-33 45 -33 99q0 66 46 113.5
t111 47.5q54 0 93 -33q68 33 153 33zM305 293q0 53 -25.5 79.5t-62.5 26.5q-32 0 -59.5 -24t-27.5 -83q0 -53 25.5 -79.5t62.5 -26.5q32 0 59.5 24t27.5 83zM392 -71q0 69 -132 69h-87q-21 0 -37 -7t-23 -15.5t-11 -20.5t-4.5 -16.5t-0.5 -8.5q0 -36 43.5 -58t104.5 -22
q60 0 103.5 22.5t43.5 56.5zM348 694l-146 -167h-60l130 167h76z" />
    <glyph glyph-name="Aringacute" unicode="&#x1fa;" horiz-adv-x="647" 
d="M619 0h-89l-74 203h-282l-73 -203h-74l252 694h88zM435 259l-120 363l-119 -363h239zM373 778q0 37 -49 37t-49 -37t49 -37t49 37zM433 777q0 -33 -31 -58t-78 -25q-46 0 -77.5 25t-31.5 60q0 33 31 58t78 25q46 0 77.5 -25t31.5 -60zM467 1019l-197 -122h-89l175 122
h111z" />
    <glyph glyph-name="aringacute" unicode="&#x1fb;" horiz-adv-x="469" 
d="M401 0h-74v37q-26 -22 -72 -34.5t-90 -12.5q-57 0 -84 41t-27 84q0 74 106 110q61 20 165 25v41q0 52 -24.5 81t-61.5 29q-79 0 -148 -50l-6 66q73 42 154 42q70 0 116 -47t46 -119v-293zM325 134v65q-27 0 -57.5 -3.5t-64.5 -12t-56 -26t-22 -41.5q0 -28 25.5 -47
t65.5 -19q44 0 76 20q33 20 33 64zM284 601q0 37 -49 37t-49 -37t49 -37t49 37zM344 600q0 -33 -31 -58t-78 -25q-46 0 -77.5 25t-31.5 60q0 33 31 58t78 25q46 0 77.5 -25t31.5 -60zM378 842l-197 -122h-89l175 122h111z" />
    <glyph glyph-name="AEacute" unicode="&#x1fc;" horiz-adv-x="840" 
d="M798 0h-391v222h-218l-88 -222h-74l275 694h483v-63h-150q-6 0 -18 0.5t-18 0.5h-107v-241h265v-60h-265v-264h161q6 0 18 0.5t18 0.5h109v-68zM407 278v354h-56l-140 -354h196zM610 867l-197 -122h-89l175 122h111z" />
    <glyph glyph-name="aeacute" unicode="&#x1fd;" horiz-adv-x="707" 
d="M679 225h-288q1 -80 43 -127.5t98 -47.5q77 0 135 57l3 -27q0 -2 1.5 -16t1.5 -17q0 -6 -18 -19t-53 -25.5t-71 -12.5q-93 0 -161 77q-31 -43 -96 -62q-54 -15 -117 -15q-33 0 -56.5 14.5t-34.5 36.5t-15.5 40.5t-4.5 34.5q0 65 77.5 100t191.5 36v39q0 54 -25.5 82
t-59.5 28q-79 0 -149 -50l-6 66q75 42 154 42q89 0 139 -77q60 77 148 77q38 0 68 -14t46.5 -39t27.5 -49.5t15 -55.5t5 -45.5t1 -30.5zM619 279q-9 60 -37 90t-66 30q-39 0 -72.5 -33t-46.5 -87h222zM319 133q0 11 -3 65q-199 -8 -199 -81q0 -28 25 -47.5t64 -19.5
q49 0 80 20q15 9 23 21t9 20t1 22zM491 694l-146 -167h-60l130 167h76z" />
    <glyph glyph-name="Oslashacute" unicode="&#x1fe;" horiz-adv-x="762" 
d="M707 345q0 -153 -96 -259.5t-231 -106.5q-82 0 -150 41l-47 -84l-54 30l51 91q-49 40 -87.5 115t-38.5 173q0 154 96 262t231 108q76 0 150 -41l47 84l54 -30l-51 -91q126 -122 126 -292zM499 619q-57 36 -119 36q-97 0 -169.5 -83.5t-72.5 -226.5q0 -142 76 -228z
M623 345q0 144 -76 231l-285 -501q53 -36 119 -36q97 0 169.5 82t72.5 224zM571 867l-197 -122h-89l175 122h111z" />
    <glyph glyph-name="oslashacute" unicode="&#x1ff;" 
d="M459 220q0 -96 -63 -163t-152 -67q-40 0 -84 18l-66 -120l-53 30l68 123q-79 79 -79 179q0 99 63 169t152 70q44 0 85 -20l65 118l53 -30l-68 -122q79 -72 79 -185zM301 386q-25 13 -56 13q-57 0 -98.5 -46.5t-41.5 -132.5q0 -76 37 -120zM384 220q0 78 -36 126
l-158 -284q26 -12 55 -12q55 0 97 43.5t42 126.5zM382 694l-146 -167h-60l130 167h76z" />
    <glyph glyph-name="Adblgrave" unicode="&#x200;" horiz-adv-x="647" 
d="M619 0h-89l-74 203h-282l-73 -203h-74l252 694h88zM435 259l-120 363l-119 -363h239zM436 745h-60l-78 167h76zM273 745h-60l-78 167h76z" />
    <glyph glyph-name="adblgrave" unicode="&#x201;" horiz-adv-x="469" 
d="M401 0h-74v37q-26 -22 -72 -34.5t-90 -12.5q-57 0 -84 41t-27 84q0 74 106 110q61 20 165 25v41q0 52 -24.5 81t-61.5 29q-79 0 -148 -50l-6 66q73 42 154 42q70 0 116 -47t46 -119v-293zM325 134v65q-27 0 -57.5 -3.5t-64.5 -12t-56 -26t-22 -41.5q0 -28 25.5 -47
t65.5 -19q44 0 76 20q33 20 33 64zM374 527h-60l-78 167h76zM211 527h-60l-78 167h76z" />
    <glyph glyph-name="Edblgrave" unicode="&#x204;" horiz-adv-x="583" 
d="M541 0h-451v692h438v-63h-180q-6 0 -18 0.5t-18 0.5h-136v-240h324v-60h-324v-263h198q6 0 18 0.5t18 0.5h131v-68zM431 745h-60l-78 167h76zM268 745h-60l-78 167h76z" />
    <glyph glyph-name="edblgrave" unicode="&#x205;" horiz-adv-x="435" 
d="M407 225h-305q1 -78 43.5 -126.5t101.5 -48.5q81 0 148 57l3 -27q3 -33 3 -37q-73 -53 -156 -53q-88 0 -150 68.5t-62 166.5q0 97 58.5 165.5t139.5 68.5q94 0 140 -77q36 -60 36 -157zM348 279q-6 37 -20.5 63t-33.5 37t-33.5 15.5t-29.5 4.5q-43 0 -76.5 -34t-46.5 -86
h240zM357 527h-60l-78 167h76zM194 527h-60l-78 167h76z" />
    <glyph glyph-name="Idblgrave" unicode="&#x208;" horiz-adv-x="266" 
d="M176 0h-86v694h86v-694zM272 745h-60l-78 167h76zM109 745h-60l-78 167h76z" />
    <glyph glyph-name="idblgrave" unicode="&#x209;" horiz-adv-x="230" 
d="M152 0h-74v444h74v-444zM254 527h-60l-78 167h76zM91 527h-60l-78 167h76z" />
    <glyph glyph-name="Odblgrave" unicode="&#x20c;" horiz-adv-x="722" 
d="M667 345q0 -155 -90.5 -260.5t-216.5 -105.5q-123 0 -214.5 105.5t-91.5 260.5t90.5 262.5t216.5 107.5q124 0 215 -107t91 -263zM581 360q0 131 -65.5 212t-155.5 81q-88 0 -154 -80.5t-66 -212.5q0 -140 65.5 -229t155.5 -89q88 0 154 88.5t66 229.5zM500 745h-60
l-78 167h76zM337 745h-60l-78 167h76z" />
    <glyph glyph-name="odblgrave" unicode="&#x20d;" 
d="M459 220q0 -96 -63 -163t-152 -67q-87 0 -150.5 66.5t-63.5 163.5q0 99 63 169t152 70q87 0 150.5 -69.5t63.5 -169.5zM383 230q0 82 -41 125.5t-98 43.5q-54 0 -96 -42.5t-42 -126.5t40.5 -131t98.5 -47q56 0 97 46t41 132zM384 527h-60l-78 167h76zM221 527h-60
l-78 167h76z" />
    <glyph glyph-name="Rdblgrave" unicode="&#x210;" horiz-adv-x="630" 
d="M602 0h-86l-185 317h-156v-317h-84v694h236q104 0 176 -55.5t72 -131.5q0 -58 -44.5 -108.5t-123.5 -72.5zM496 507q0 54 -47 92.5t-133 38.5h-141v-261h141q88 0 134 39t46 91zM427 745h-60l-78 167h76zM264 745h-60l-78 167h76z" />
    <glyph glyph-name="rdblgrave" unicode="&#x211;" horiz-adv-x="333" 
d="M318 387q-69 -1 -117.5 -47.5t-48.5 -120.5v-219h-74v449h69v-88q64 92 171 93v-67zM306 527h-60l-78 167h76zM143 527h-60l-78 167h76z" />
    <glyph glyph-name="Udblgrave" unicode="&#x214;" horiz-adv-x="667" 
d="M576 233q0 -107 -71 -180.5t-170 -73.5q-100 0 -172.5 73t-72.5 181v461h86v-462q0 -95 47.5 -146t112.5 -51q66 0 115 51.5t49 145.5v462h76v-461zM473 745h-60l-78 167h76zM310 745h-60l-78 167h76z" />
    <glyph glyph-name="udblgrave" unicode="&#x215;" horiz-adv-x="502" 
d="M424 0h-74v50q-67 -60 -168 -60q-58 0 -81.5 31t-23.5 90v333h76v-329q0 -37 14 -53.5t63 -16.5q51 0 84.5 29t33.5 84v286h76v-444zM390 527h-60l-78 167h76zM227 527h-60l-78 167h76z" />
    <glyph glyph-name="uni0218" unicode="&#x218;" horiz-adv-x="544" 
d="M489 189q0 -85 -62.5 -147.5t-157.5 -62.5q-120 0 -225 69l15 81q91 -83 210 -83q63 0 103 39.5t40 93.5q0 51 -32 85q-23 24 -43.5 33t-87.5 25q-56 14 -84.5 27.5t-62.5 47.5q-7 7 -15.5 18.5t-20.5 41.5t-12 62q0 78 62 137t159 59q41 0 78.5 -8.5t55 -17t46.5 -23.5
l-15 -81q-73 65 -166 65q-63 0 -103 -36t-40 -84q0 -41 40 -84q15 -15 36 -22.5t79 -21.5q59 -15 88.5 -28.5t61.5 -47.5q53 -60 53 -137zM308 -148l-37 -113h-36l23 113h-23v72h73v-72z" />
    <glyph glyph-name="uni0219" unicode="&#x219;" horiz-adv-x="375" 
d="M352 127q0 -55 -36.5 -96t-123.5 -41q-92 0 -165 44l12 68q69 -50 152 -50q92 0 92 69q0 15 -7 27t-15 19t-23 13t-23.5 8t-22.5 5q-36 7 -51 11t-33.5 13t-35.5 24q-39 36 -39 88q0 37 15.5 63.5t34.5 39t46 19t39.5 7.5t26.5 1q75 0 141 -31l-12 -65q-65 37 -139 37
q-83 0 -83 -62q0 -23 16 -38t30.5 -19.5t40.5 -9.5q53 -10 78 -20t50 -36q35 -44 35 -88zM224 -148l-37 -113h-36l23 113h-23v72h73v-72z" />
    <glyph glyph-name="uni021A" unicode="&#x21a;" horiz-adv-x="668" 
d="M632 626h-131q-6 0 -18 0.5t-18 0.5h-88v-627h-86v627h-88q-6 0 -18 -0.5t-18 -0.5h-132v63h597v-63zM370 -148l-37 -113h-36l23 113h-23v72h73v-72z" />
    <glyph glyph-name="uni021B" unicode="&#x21b;" horiz-adv-x="354" 
d="M326 29q-76 -39 -144 -39q-82 0 -82 127v269h-82v58h84v127h69v-127h138v-58h-138v-252q0 -82 50 -82t90 35zM213 -148l-37 -113h-36l23 113h-23v72h73v-72z" />
    <glyph glyph-name="uni0237" unicode="&#x237;" horiz-adv-x="258" 
d="M179 -59q0 -67 -36.5 -106t-86.5 -39q-61 0 -118 34l20 60q2 -3 9.5 -9.5t25.5 -14t38 -7.5q11 0 21 2t23.5 8.5t21.5 22.5t8 39v513h74v-503z" />
    <glyph glyph-name="ereversed" unicode="&#x258;" horiz-adv-x="435" 
d="M407 225q0 -98 -62 -166.5t-150 -68.5q-83 0 -156 53l3 37q3 23 3 27q67 -57 148 -57q59 0 101.5 48.5t43.5 126.5h-305q0 97 36 157q46 77 140 77q81 0 139.5 -68.5t58.5 -165.5zM332 279q-13 52 -46.5 86t-76.5 34q-15 0 -29.5 -4.5t-33.5 -15.5t-33.5 -37t-20.5 -63
h240z" />
    <glyph glyph-name="schwa" unicode="&#x259;" horiz-adv-x="435" 
d="M407 224q0 -97 -58.5 -165.5t-139.5 -68.5q-94 0 -140 77q-36 60 -36 157h305q-1 78 -43.5 126.5t-101.5 48.5q-81 0 -148 -57l-3 27q-3 33 -3 37q73 53 156 53q88 0 150 -68.5t62 -166.5zM332 170h-240q6 -37 20.5 -63t33.5 -37t33.5 -15.5t29.5 -4.5q43 0 76.5 34
t46.5 86z" />
    <glyph glyph-name="ringhalfright" unicode="&#x2be;" horiz-adv-x="375" 
d="M321 474q0 -65 -42 -116t-112 -51q-56 0 -106 29q-3 2 -3 5v1l8 45q2 5 6 5q3 0 4 -1q24 -17 42 -23.5t49 -6.5q45 0 67.5 34t22.5 79q0 48 -24 80t-64 32q-55 0 -101 -37q-2 -2 -4 -2q-6 0 -6 6l-1 19q-3 15 -3 27q0 2 2 4q50 37 114 37t107.5 -48.5t43.5 -117.5z" />
    <glyph glyph-name="ringhalfleft" unicode="&#x2bf;" horiz-adv-x="375" 
d="M321 348q0 -2 -2 -4q-50 -37 -114 -37t-107.5 48.5t-43.5 117.5q0 65 42 116t112 51q56 0 106 -29q3 -1 3 -5v-1l-8 -45q-2 -5 -6 -5q-3 0 -4 1q-24 17 -42 23.5t-49 6.5q-45 0 -67.5 -34t-22.5 -79q0 -48 24 -80t64 -32q55 0 101 37q2 2 4 2q6 0 6 -6l1 -19q3 -15 3 -27
z" />
    <glyph glyph-name="circumflex" unicode="&#x2c6;" 
d="M400 525h-59l-96 123l-96 -123h-59l125 172h60z" />
    <glyph glyph-name="caron" unicode="&#x2c7;" 
d="M400 697l-125 -172h-60l-125 172h59l96 -123l96 123h59z" />
    <glyph glyph-name="breve" unicode="&#x2d8;" 
d="M410 700q-1 -77 -50 -127.5t-116 -50.5q-66 0 -115 50t-50 128h60q1 -52 33 -82.5t73 -30.5q40 0 72 30t33 83h60z" />
    <glyph glyph-name="dotaccent" unicode="&#x2d9;" horiz-adv-x="272" 
d="M179 568h-86v86h86v-86z" />
    <glyph glyph-name="ring" unicode="&#x2da;" horiz-adv-x="647" 
d="M373 601q0 37 -49 37t-49 -37t49 -37t49 37zM433 600q0 -33 -31 -58t-78 -25q-46 0 -77.5 25t-31.5 60q0 33 31 58t78 25q46 0 77.5 -25t31.5 -60z" />
    <glyph glyph-name="ogonek" unicode="&#x2db;" 
d="M343 -187q-53 -25 -98 -25q-47 0 -72.5 25t-26.5 60q-2 37 22.5 71t64.5 56h63q-88 -50 -87 -104q1 -34 53 -38q30 -1 67 14z" />
    <glyph glyph-name="tilde" unicode="&#x2dc;" 
d="M407 670q-1 -55 -30 -86.5t-65 -31.5q-28 0 -74 33q-36 25 -58 25q-20 0 -29 -17.5t-9 -40.5h-60q1 55 30 86.5t65 31.5q28 0 74 -33q36 -25 58 -25q20 0 29 17.5t9 40.5h60z" />
    <glyph glyph-name="hungarumlaut" unicode="&#x2dd;" 
d="M244 694l-78 -167h-60l62 167h76zM407 694l-78 -167h-60l62 167h76z" />
    <glyph glyph-name="uni0300" unicode="&#x300;" horiz-adv-x="0" 
d="M-165 527h-60l-146 167h76z" />
    <glyph glyph-name="uni0301" unicode="&#x301;" horiz-adv-x="0" 
d="M-97 694l-146 -167h-60l130 167h76z" />
    <glyph glyph-name="uni0302" unicode="&#x302;" horiz-adv-x="0" 
d="M-79 525h-59l-96 123l-96 -123h-59l125 172h60z" />
    <glyph glyph-name="uni0303" unicode="&#x303;" horiz-adv-x="0" 
d="M-72 670q-1 -55 -30 -86.5t-65 -31.5q-28 0 -74 33q-36 25 -58 25q-20 0 -29 -17.5t-9 -40.5h-60q1 55 30 86.5t65 31.5q28 0 74 -33q36 -25 58 -25q20 0 29 17.5t9 40.5h60z" />
    <glyph glyph-name="uni0304" unicode="&#x304;" horiz-adv-x="0" 
d="M-58 579h-353v63h353v-63z" />
    <glyph glyph-name="uni0306" unicode="&#x306;" horiz-adv-x="0" 
d="M-69 700q-1 -77 -50 -127.5t-116 -50.5q-66 0 -115 50t-50 128h60q1 -52 33 -82.5t73 -30.5q40 0 72 30t33 83h60z" />
    <glyph glyph-name="uni0307" unicode="&#x307;" horiz-adv-x="0" 
d="M-191 568h-86v86h86v-86z" />
    <glyph glyph-name="uni0308" unicode="&#x308;" horiz-adv-x="0" 
d="M-266 572h-77v78h77v-78zM-125 572h-77v78h77v-78z" />
    <glyph glyph-name="uni0309" unicode="&#x309;" horiz-adv-x="0" 
d="M-139 640q0 -33 -27 -50q-4 -4 -12 -8q-27 -17 -38 -29.5t-11 -29.5v-20h-1h-26v20q0 30 15 56.5t40 39.5q15 7 15 21q0 21 -13 31q-13 8 -44 8q-49 0 -72 -44h-1h-1l-14 40q33 44 88 44q48 0 75 -21q27 -20 27 -58z" />
    <glyph glyph-name="uni030A" unicode="&#x30a;" horiz-adv-x="0" 
d="M-185 601q0 37 -49 37t-49 -37t49 -37t49 37zM-125 600q0 -33 -31 -58t-78 -25q-46 0 -77.5 25t-31.5 60q0 33 31 58t78 25q46 0 77.5 -25t31.5 -60z" />
    <glyph glyph-name="uni030B" unicode="&#x30b;" horiz-adv-x="0" 
d="M-235 694l-78 -167h-60l62 167h76zM-72 694l-78 -167h-60l62 167h76z" />
    <glyph glyph-name="uni030C" unicode="&#x30c;" horiz-adv-x="0" 
d="M-79 697l-125 -172h-60l-125 172h59l96 -123l96 123h59z" />
    <glyph glyph-name="uni030F" unicode="&#x30f;" horiz-adv-x="0" 
d="M-95 527h-60l-78 167h76zM-258 527h-60l-78 167h76z" />
    <glyph glyph-name="uni0311" unicode="&#x311;" horiz-adv-x="0" 
d="M-69 522h-60q-1 52 -33 82.5t-73 30.5q-40 0 -72 -30t-33 -83h-60q1 77 50 127.5t116 50.5q66 0 115 -50t50 -128z" />
    <glyph glyph-name="uni0323" unicode="&#x323;" horiz-adv-x="0" 
d="M-191 -200h-86v86h86v-86z" />
    <glyph glyph-name="uni0326" unicode="&#x326;" horiz-adv-x="0" 
d="M-198 -148l-37 -113h-36l23 113h-23v72h73v-72z" />
    <glyph glyph-name="uni032E" unicode="&#x32e;" horiz-adv-x="0" 
d="M-69 -68q-1 -77 -50 -127.5t-116 -50.5q-66 0 -115 50t-50 128h60q1 -52 33 -82.5t73 -30.5q40 0 72 30t33 83h60z" />
    <glyph glyph-name="uni032F" unicode="&#x32f;" horiz-adv-x="0" 
d="M-69 -246h-60q-1 52 -33 82.5t-73 30.5q-40 0 -72 -30t-33 -83h-60q1 77 50 127.5t116 50.5q66 0 115 -50t50 -128z" />
    <glyph glyph-name="uni0330" unicode="&#x330;" horiz-adv-x="0" 
d="M-72 -98q-1 -55 -30 -86.5t-65 -31.5q-28 0 -74 33q-36 25 -58 25q-20 0 -29 -17.5t-9 -40.5h-60q1 55 30 86.5t65 31.5q28 0 74 -33q36 -25 58 -25q20 0 29 17.5t9 40.5h60z" />
    <glyph glyph-name="uni0331" unicode="&#x331;" horiz-adv-x="0" 
d="M-58 -188h-353v63h353v-63z" />
    <glyph glyph-name="uni0332" unicode="&#x332;" horiz-adv-x="0" 
d="M-58 -188h-353v63h353v-63z" />
    <glyph glyph-name="Alpha" unicode="&#x391;" horiz-adv-x="647" 
d="M619 0h-89l-74 203h-282l-73 -203h-74l252 694h88zM435 259l-120 363l-119 -363h239z" />
    <glyph glyph-name="Beta" unicode="&#x392;" horiz-adv-x="650" 
d="M595 188q0 -75 -70.5 -131.5t-173.5 -56.5h-258v694h231q103 0 173 -52.5t70 -121.5q0 -48 -40 -91.5t-122 -65.5q79 -12 134.5 -61.5t55.5 -113.5zM490 519q0 49 -56.5 84t-136.5 35h-123v-247h124q79 0 135.5 37.5t56.5 90.5zM516 189q0 56 -58.5 99t-150.5 43h-133
v-275h149q82 0 137.5 39.5t55.5 93.5z" />
    <glyph glyph-name="Gamma" unicode="&#x393;" horiz-adv-x="529" 
d="M487 629h-159q-6 0 -18 0.5t-18 0.5h-116v-630h-86v692h397v-63z" />
    <glyph glyph-name="Delta" unicode="&#x394;" horiz-adv-x="816" 
d="M774 0h-733l321 694h91zM642 81l-171 370l-37 83l-36 88q-7 -20 -67 -158l-176 -383h487z" />
    <glyph glyph-name="Epsilon" unicode="&#x395;" horiz-adv-x="583" 
d="M541 0h-451v692h438v-63h-180q-6 0 -18 0.5t-18 0.5h-136v-240h324v-60h-324v-263h198q6 0 18 0.5t18 0.5h131v-68z" />
    <glyph glyph-name="Zeta" unicode="&#x396;" horiz-adv-x="598" 
d="M548 0h-494v41l380 593h-134q-6 0 -18 -0.5t-18 -0.5h-196v61h475v-40l-380 -592h32l259 2h94v-64z" />
    <glyph glyph-name="Eta" unicode="&#x397;" horiz-adv-x="686" 
d="M595 0h-86v331h-333v-331h-86v694h86v-303h333v303h86v-694z" />
    <glyph glyph-name="Theta" unicode="&#x398;" horiz-adv-x="762" 
d="M707 345q0 -153 -96 -259.5t-231 -106.5q-133 0 -229.5 106t-96.5 260t96 262t231 108q133 0 229.5 -107t96.5 -263zM626 345q0 135 -72.5 222.5t-173.5 87.5q-100 0 -172.5 -87t-72.5 -223q0 -134 72.5 -219.5t173.5 -85.5q99 0 172 85t73 220zM571 307h-381v81h381v-81
z" />
    <glyph glyph-name="Iota" unicode="&#x399;" horiz-adv-x="266" 
d="M176 0h-86v694h86v-694z" />
    <glyph glyph-name="Kappa" unicode="&#x39a;" horiz-adv-x="674" 
d="M632 0h-92l-236 362l-129 -136v-226h-84v694h84v-369l350 369h94l-261 -275z" />
    <glyph glyph-name="Lambda" unicode="&#x39b;" horiz-adv-x="593" 
d="M565 0h-91l-99 309q-81 254 -87 309h-1q-8 -62 -90 -316l-97 -302h-73l226 694h86z" />
    <glyph glyph-name="Mu" unicode="&#x39c;" horiz-adv-x="850" 
d="M754 0h-77v618h-1q-22 -91 -216 -597h-73q-199 524 -214 596h-1v-617h-77v694h114l152 -409q11 -29 34 -97q27 -80 29 -93h1q10 46 101 291l114 308h114v-694z" />
    <glyph glyph-name="Nu" unicode="&#x39d;" horiz-adv-x="686" 
d="M594 0h-123l-221 452l-81 168h-1v-620h-77v694h123l221 -452l81 -168h1v620h77v-694z" />
    <glyph glyph-name="Xi" unicode="&#x39e;" horiz-adv-x="653" 
d="M606 616h-122l-159 1l-157 -1h-122v73h560v-73zM611 0h-570v73h125l161 -1l159 1h125v-73zM543 322h-434v72h434v-72z" />
    <glyph glyph-name="Omicron" unicode="&#x39f;" horiz-adv-x="722" 
d="M667 345q0 -155 -90.5 -260.5t-216.5 -105.5q-123 0 -214.5 105.5t-91.5 260.5t90.5 262.5t216.5 107.5q124 0 215 -107t91 -263zM581 360q0 131 -65.5 212t-155.5 81q-88 0 -154 -80.5t-66 -212.5q0 -140 65.5 -229t155.5 -89q88 0 154 88.5t66 229.5z" />
    <glyph glyph-name="Pi" unicode="&#x3a0;" horiz-adv-x="686" 
d="M595 0h-86v632h-333v-632h-86v692h505v-692z" />
    <glyph glyph-name="Rho" unicode="&#x3a1;" horiz-adv-x="623" 
d="M568 492q0 -81 -66.5 -142t-166.5 -61h-158v-289h-86v694h244q100 0 166.5 -60t66.5 -142zM489 493q0 60 -46 102.5t-129 42.5h-139v-291h139q82 0 128.5 42t46.5 104z" />
    <glyph glyph-name="Sigma" unicode="&#x3a3;" horiz-adv-x="707" 
d="M652 0h-598l226 336l-226 296v62h598v-63h-254q-6 0 -18 0.5t-18 0.5h-200l217 -285l-188 -280h189q6 0 18 0.5t18 0.5h236v-68z" />
    <glyph glyph-name="Tau" unicode="&#x3a4;" horiz-adv-x="668" 
d="M632 626h-131q-6 0 -18 0.5t-18 0.5h-88v-627h-86v627h-88q-6 0 -18 -0.5t-18 -0.5h-132v63h597v-63z" />
    <glyph glyph-name="Upsilon" unicode="&#x3a5;" horiz-adv-x="762" 
d="M707 555h-76q-1 43 -24 69t-56 26q-40 0 -66.5 -22t-43.5 -82t-17 -161v-385h-86v383q0 152 -34 209.5t-94 57.5q-33 0 -56 -26t-24 -69h-76q1 71 47.5 115.5t108.5 44.5q138 0 170 -217h1q33 217 170 217q62 0 108.5 -44.5t47.5 -115.5z" />
    <glyph glyph-name="Phi" unicode="&#x3a6;" horiz-adv-x="707" 
d="M652 347q0 -88 -72 -158.5t-189 -82.5v-106h-81v107q-104 10 -180 78.5t-76 161.5t76 161.5t180 78.5v107h81v-106q116 -12 188.5 -82.5t72.5 -158.5zM310 167v360q-81 -12 -126.5 -62t-45.5 -118t45.5 -118t126.5 -62zM568 347q0 68 -47 118.5t-130 62.5v-362
q83 12 130 62.5t47 118.5z" />
    <glyph glyph-name="Chi" unicode="&#x3a7;" horiz-adv-x="647" 
d="M632 0h-100l-216 306l-210 -306h-92l260 366l-247 328h101l188 -262l183 262h93l-234 -328z" />
    <glyph glyph-name="Psi" unicode="&#x3a8;" horiz-adv-x="762" 
d="M707 553q-69 -4 -69 -128q0 -20 -0.5 -35.5t-5 -48.5t-12 -58.5t-24 -57.5t-39 -54.5t-58 -40t-80.5 -23.5v-107h-81v107q-64 10 -109.5 42.5t-66.5 79t-30 88.5t-9 87q0 31 -2 52t-8.5 45t-21 37.5t-37.5 14.5v60h71q47 0 63 -39.5t16 -152.5q0 -214 134 -252v525h81
v-525q33 8 58 26t39 44t23 49.5t12.5 56.5t4.5 51t1 44q0 59 6 95.5t18 52.5t24 20.5t31 4.5h71v-60z" />
    <glyph glyph-name="Omega" unicode="&#x3a9;" horiz-adv-x="707" 
d="M662 0h-238q1 54 17.5 104t52.5 124q37 78 54.5 130t17.5 103q0 84 -61 139t-152 55t-152 -55t-61 -139q0 -38 12.5 -83.5t25.5 -75t38 -80.5q36 -76 51 -125t15 -97h-238v68h82q6 0 18 -0.5t18 -0.5h51q-15 58 -70 155q-32 57 -46 84.5t-28.5 72t-14.5 83.5
q0 103 86.5 178t212.5 75t212.5 -74.5t86.5 -178.5q0 -39 -14 -83t-28 -71.5t-43 -77.5q-61 -108 -74 -163h51q6 0 18 0.5t18 0.5h82v-68z" />
    <glyph glyph-name="baht" unicode="&#xe3f;" horiz-adv-x="650" 
d="M595 188q0 -75 -70.5 -131.5t-173.5 -56.5h-3v-62h-62v62h-193v694h193v62h62v-63q94 -7 156.5 -57.5t62.5 -115.5q0 -48 -40 -91.5t-122 -65.5q79 -12 134.5 -61.5t55.5 -113.5zM490 519q0 41 -40 72.5t-102 42.5v-239q62 11 102 45.5t40 78.5zM286 391v247h-112v-247
h112zM516 189q0 49 -46 89.5t-122 49.5v-271q73 7 120.5 45t47.5 87zM286 56v275h-112v-275h112z" />
    <glyph glyph-name="Ddotbelow" unicode="&#x1e0c;" horiz-adv-x="704" 
d="M649 341q0 -142 -88 -241.5t-213 -99.5h-257v694h257q126 0 213.5 -103t87.5 -250zM565 342q0 133 -68.5 214.5t-171.5 81.5h-150v-582h150q101 0 170.5 77t69.5 209zM293 -200h-86v86h86v-86z" />
    <glyph glyph-name="ddotbelow" unicode="&#x1e0d;" horiz-adv-x="502" 
d="M423 0h-76v51q-62 -61 -143 -61q-71 0 -120 67.5t-49 164.5t50.5 164.5t122.5 67.5q78 0 141 -52v292h74v-694zM347 118v223q-35 53 -93 53q-54 0 -98.5 -41.5t-44.5 -131.5q0 -86 40 -128.5t93 -42.5q65 0 103 68zM294 -200h-86v86h86v-86z" />
    <glyph glyph-name="Dlinebelow" unicode="&#x1e0e;" horiz-adv-x="704" 
d="M649 341q0 -142 -88 -241.5t-213 -99.5h-257v694h257q126 0 213.5 -103t87.5 -250zM565 342q0 133 -68.5 214.5t-171.5 81.5h-150v-582h150q101 0 170.5 77t69.5 209zM426 -188h-353v63h353v-63z" />
    <glyph glyph-name="dlinebelow" unicode="&#x1e0f;" horiz-adv-x="502" 
d="M423 0h-76v51q-62 -61 -143 -61q-71 0 -120 67.5t-49 164.5t50.5 164.5t122.5 67.5q78 0 141 -52v292h74v-694zM347 118v223q-35 53 -93 53q-54 0 -98.5 -41.5t-44.5 -131.5q0 -86 40 -128.5t93 -42.5q65 0 103 68zM427 -188h-353v63h353v-63z" />
    <glyph glyph-name="Hdotbelow" unicode="&#x1e24;" horiz-adv-x="686" 
d="M595 0h-86v331h-333v-331h-86v694h86v-303h333v303h86v-694zM386 -200h-86v86h86v-86z" />
    <glyph glyph-name="hdotbelow" unicode="&#x1e25;" horiz-adv-x="502" 
d="M424 0h-76v294q0 18 -2.5 31t-10.5 31t-29 28t-54 10q-36 0 -59 -24.5t-31.5 -55t-8.5 -65.5v-249h-76v694h74v-309q55 69 139 69q134 0 134 -153v-301zM294 -200h-86v86h86v-86z" />
    <glyph glyph-name="Hdieresis" unicode="&#x1e26;" horiz-adv-x="686" 
d="M595 0h-86v331h-333v-331h-86v694h86v-303h333v303h86v-694zM298 735h-77v78h77v-78zM465 735h-77v78h77v-78z" />
    <glyph glyph-name="hdieresis" unicode="&#x1e27;" horiz-adv-x="502" 
d="M424 0h-76v294q0 18 -2.5 31t-10.5 31t-29 28t-54 10q-36 0 -59 -24.5t-31.5 -55t-8.5 -65.5v-249h-76v694h74v-309q55 69 139 69q134 0 134 -153v-301zM206 735h-77v78h77v-78zM373 735h-77v78h77v-78z" />
    <glyph glyph-name="Hbrevebelow" unicode="&#x1e2a;" horiz-adv-x="686" 
d="M595 0h-86v331h-333v-331h-86v694h86v-303h333v303h86v-694zM508 -68q-1 -77 -50 -127.5t-116 -50.5q-66 0 -115 50t-50 128h60q1 -52 33 -82.5t73 -30.5q40 0 72 30t33 83h60z" />
    <glyph glyph-name="hbrevebelow" unicode="&#x1e2b;" horiz-adv-x="502" 
d="M424 0h-76v294q0 18 -2.5 31t-10.5 31t-29 28t-54 10q-36 0 -59 -24.5t-31.5 -55t-8.5 -65.5v-249h-76v694h74v-309q55 69 139 69q134 0 134 -153v-301zM416 -68q-1 -77 -50 -127.5t-116 -50.5q-66 0 -115 50t-50 128h60q1 -52 33 -82.5t73 -30.5q40 0 72 30t33 83h60z
" />
    <glyph glyph-name="Idieresisacute" unicode="&#x1e2e;" horiz-adv-x="266" 
d="M176 0h-86v694h86v-694zM88 735h-77v78h77v-78zM255 735h-77v78h77v-78zM323 986l-197 -122h-89l175 122h111z" />
    <glyph glyph-name="idieresisacute" unicode="&#x1e2f;" horiz-adv-x="230" 
d="M152 0h-74v444h74v-444zM83 572h-77v78h77v-78zM224 572h-77v78h77v-78zM305 828l-197 -122h-89l175 122h111z" />
    <glyph glyph-name="Ldotbelow" unicode="&#x1e36;" horiz-adv-x="529" 
d="M487 0h-397v694h86v-632h48l263 2v-64zM307 -200h-86v86h86v-86z" />
    <glyph glyph-name="ldotbelow" unicode="&#x1e37;" horiz-adv-x="230" 
d="M152 0h-74v694h74v-694zM158 -200h-86v86h86v-86z" />
    <glyph glyph-name="Ldotbelowmacron" unicode="&#x1e38;" horiz-adv-x="529" 
d="M487 0h-397v694h86v-632h48l263 2v-64zM307 -200h-86v86h86v-86zM309 755h-353v63h353v-63z" />
    <glyph glyph-name="ldotbelowmacron" unicode="&#x1e39;" horiz-adv-x="230" 
d="M152 0h-74v694h74v-694zM158 -200h-86v86h86v-86zM303 755h-353v63h353v-63z" />
    <glyph glyph-name="Mdotbelow" unicode="&#x1e42;" horiz-adv-x="850" 
d="M754 0h-77v618h-1q-22 -91 -216 -597h-73q-199 524 -214 596h-1v-617h-77v694h114l152 -409q11 -29 34 -97q27 -80 29 -93h1q10 46 101 291l114 308h114v-694zM468 -200h-86v86h86v-86z" />
    <glyph glyph-name="mdotbelow" unicode="&#x1e43;" horiz-adv-x="774" 
d="M697 0h-76v294q0 14 -1 25t-6.5 26t-15.5 25t-29 17t-45 7q-50 0 -74.5 -43.5t-24.5 -101.5v-249h-76v294q0 14 -1 25t-6.5 26t-15.5 25t-29 17t-45 7q-50 0 -74.5 -43.5t-24.5 -101.5v-249h-76v449h71v-69q60 74 142 74q102 0 125 -81q55 81 147 81q135 0 135 -153v-301
zM430 -200h-86v86h86v-86z" />
    <glyph glyph-name="Ndotaccent" unicode="&#x1e44;" horiz-adv-x="686" 
d="M594 0h-123l-221 452l-81 168h-1v-620h-77v694h123l221 -452l81 -168h1v620h77v-694zM386 735h-86v86h86v-86z" />
    <glyph glyph-name="ndotaccent" unicode="&#x1e45;" horiz-adv-x="502" 
d="M424 0h-76v294q0 18 -2.5 31t-10.5 31t-29 28t-54 10q-36 0 -59 -24.5t-31.5 -55t-8.5 -65.5v-249h-76v449h71v-68q58 73 142 73q134 0 134 -153v-301zM294 568h-86v86h86v-86z" />
    <glyph glyph-name="Ndotbelow" unicode="&#x1e46;" horiz-adv-x="686" 
d="M594 0h-123l-221 452l-81 168h-1v-620h-77v694h123l221 -452l81 -168h1v620h77v-694zM386 -200h-86v86h86v-86z" />
    <glyph glyph-name="ndotbelow" unicode="&#x1e47;" horiz-adv-x="502" 
d="M424 0h-76v294q0 18 -2.5 31t-10.5 31t-29 28t-54 10q-36 0 -59 -24.5t-31.5 -55t-8.5 -65.5v-249h-76v449h71v-68q58 73 142 73q134 0 134 -153v-301zM294 -200h-86v86h86v-86z" />
    <glyph glyph-name="Rdotaccent" unicode="&#x1e58;" horiz-adv-x="630" 
d="M602 0h-86l-185 317h-156v-317h-84v694h236q104 0 176 -55.5t72 -131.5q0 -58 -44.5 -108.5t-123.5 -72.5zM496 507q0 54 -47 92.5t-133 38.5h-141v-261h141q88 0 134 39t46 91zM358 735h-86v86h86v-86z" />
    <glyph glyph-name="rdotaccent" unicode="&#x1e59;" horiz-adv-x="333" 
d="M318 387q-69 -1 -117.5 -47.5t-48.5 -120.5v-219h-74v449h69v-88q64 92 171 93v-67zM209 568h-86v86h86v-86z" />
    <glyph glyph-name="Rdotbelow" unicode="&#x1e5a;" horiz-adv-x="630" 
d="M602 0h-86l-185 317h-156v-317h-84v694h236q104 0 176 -55.5t72 -131.5q0 -58 -44.5 -108.5t-123.5 -72.5zM496 507q0 54 -47 92.5t-133 38.5h-141v-261h141q88 0 134 39t46 91zM358 -200h-86v86h86v-86z" />
    <glyph glyph-name="rdotbelow" unicode="&#x1e5b;" horiz-adv-x="333" 
d="M318 387q-69 -1 -117.5 -47.5t-48.5 -120.5v-219h-74v449h69v-88q64 92 171 93v-67zM158 -200h-86v86h86v-86z" />
    <glyph glyph-name="Rdotbelowmacron" unicode="&#x1e5c;" horiz-adv-x="630" 
d="M602 0h-86l-185 317h-156v-317h-84v694h236q104 0 176 -55.5t72 -131.5q0 -58 -44.5 -108.5t-123.5 -72.5zM496 507q0 54 -47 92.5t-133 38.5h-141v-261h141q88 0 134 39t46 91zM358 -200h-86v86h86v-86zM491 755h-353v63h353v-63z" />
    <glyph glyph-name="rdotbelowmacron" unicode="&#x1e5d;" horiz-adv-x="333" 
d="M318 387q-69 -1 -117.5 -47.5t-48.5 -120.5v-219h-74v449h69v-88q64 92 171 93v-67zM158 -200h-86v86h86v-86zM343 579h-353v63h353v-63z" />
    <glyph glyph-name="Sdotbelow" unicode="&#x1e62;" horiz-adv-x="544" 
d="M489 189q0 -85 -62.5 -147.5t-157.5 -62.5q-120 0 -225 69l15 81q91 -83 210 -83q63 0 103 39.5t40 93.5q0 51 -32 85q-23 24 -43.5 33t-87.5 25q-56 14 -84.5 27.5t-62.5 47.5q-7 7 -15.5 18.5t-20.5 41.5t-12 62q0 78 62 137t159 59q41 0 78.5 -8.5t55 -17t46.5 -23.5
l-15 -81q-73 65 -166 65q-63 0 -103 -36t-40 -84q0 -41 40 -84q15 -15 36 -22.5t79 -21.5q59 -15 88.5 -28.5t61.5 -47.5q53 -60 53 -137zM315 -200h-86v86h86v-86z" />
    <glyph glyph-name="sdotbelow" unicode="&#x1e63;" horiz-adv-x="375" 
d="M352 127q0 -55 -36.5 -96t-123.5 -41q-92 0 -165 44l12 68q69 -50 152 -50q92 0 92 69q0 15 -7 27t-15 19t-23 13t-23.5 8t-22.5 5q-36 7 -51 11t-33.5 13t-35.5 24q-39 36 -39 88q0 37 15.5 63.5t34.5 39t46 19t39.5 7.5t26.5 1q75 0 141 -31l-12 -65q-65 37 -139 37
q-83 0 -83 -62q0 -23 16 -38t30.5 -19.5t40.5 -9.5q53 -10 78 -20t50 -36q35 -44 35 -88zM231 -200h-86v86h86v-86z" />
    <glyph glyph-name="Tdotbelow" unicode="&#x1e6c;" horiz-adv-x="668" 
d="M632 626h-131q-6 0 -18 0.5t-18 0.5h-88v-627h-86v627h-88q-6 0 -18 -0.5t-18 -0.5h-132v63h597v-63zM377 -200h-86v86h86v-86z" />
    <glyph glyph-name="tdotbelow" unicode="&#x1e6d;" horiz-adv-x="354" 
d="M326 29q-76 -39 -144 -39q-82 0 -82 127v269h-82v58h84v127h69v-127h138v-58h-138v-252q0 -82 50 -82t90 35zM220 -200h-86v86h86v-86z" />
    <glyph glyph-name="Tlinebelow" unicode="&#x1e6e;" horiz-adv-x="668" 
d="M632 626h-131q-6 0 -18 0.5t-18 0.5h-88v-627h-86v627h-88q-6 0 -18 -0.5t-18 -0.5h-132v63h597v-63zM510 -188h-353v63h353v-63z" />
    <glyph glyph-name="tlinebelow" unicode="&#x1e6f;" horiz-adv-x="354" 
d="M326 29q-76 -39 -144 -39q-82 0 -82 127v269h-82v58h84v127h69v-127h138v-58h-138v-252q0 -82 50 -82t90 35zM353 -188h-353v63h353v-63z" />
    <glyph glyph-name="Wgrave" unicode="&#x1e80;" horiz-adv-x="919" 
d="M904 694l-196 -694h-88l-109 396q-21 76 -34.5 132t-16.5 74l-3 17h-1q-6 -56 -69 -279l-94 -340h-83l-196 694h85l84 -304l43 -160q31 -130 33 -153h1q4 41 32 150t42 157l86 310h85l118 -430q37 -132 44 -188h1q4 40 32 142q33 124 40 148l91 328h73zM556 745h-89
l-197 122h111z" />
    <glyph glyph-name="wgrave" unicode="&#x1e81;" horiz-adv-x="666" 
d="M650 444l-134 -444h-88l-71 250q-27 88 -29 136h-1q-6 -67 -102 -386h-77l-134 444h76l71 -247q29 -103 31 -139h1q3 46 45 190l57 196h69l66 -226q34 -116 40 -162h1q4 40 46 185l60 203h73zM402 527h-60l-146 167h76z" />
    <glyph glyph-name="Wacute" unicode="&#x1e82;" horiz-adv-x="919" 
d="M904 694l-196 -694h-88l-109 396q-21 76 -34.5 132t-16.5 74l-3 17h-1q-6 -56 -69 -279l-94 -340h-83l-196 694h85l84 -304l43 -160q31 -130 33 -153h1q4 41 32 150t42 157l86 310h85l118 -430q37 -132 44 -188h1q4 40 32 142q33 124 40 148l91 328h73zM650 867
l-197 -122h-89l175 122h111z" />
    <glyph glyph-name="wacute" unicode="&#x1e83;" horiz-adv-x="666" 
d="M650 444l-134 -444h-88l-71 250q-27 88 -29 136h-1q-6 -67 -102 -386h-77l-134 444h76l71 -247q29 -103 31 -139h1q3 46 45 190l57 196h69l66 -226q34 -116 40 -162h1q4 40 46 185l60 203h73zM470 694l-146 -167h-60l130 167h76z" />
    <glyph glyph-name="Wdieresis" unicode="&#x1e84;" horiz-adv-x="919" 
d="M904 694l-196 -694h-88l-109 396q-21 76 -34.5 132t-16.5 74l-3 17h-1q-6 -56 -69 -279l-94 -340h-83l-196 694h85l84 -304l43 -160q31 -130 33 -153h1q4 41 32 150t42 157l86 310h85l118 -430q37 -132 44 -188h1q4 40 32 142q33 124 40 148l91 328h73zM415 735h-77v78
h77v-78zM582 735h-77v78h77v-78z" />
    <glyph glyph-name="wdieresis" unicode="&#x1e85;" horiz-adv-x="666" 
d="M650 444l-134 -444h-88l-71 250q-27 88 -29 136h-1q-6 -67 -102 -386h-77l-134 444h76l71 -247q29 -103 31 -139h1q3 46 45 190l57 196h69l66 -226q34 -116 40 -162h1q4 40 46 185l60 203h73zM301 572h-77v78h77v-78zM442 572h-77v78h77v-78z" />
    <glyph glyph-name="Zdotbelow" unicode="&#x1e92;" horiz-adv-x="598" 
d="M548 0h-494v41l380 593h-134q-6 0 -18 -0.5t-18 -0.5h-196v61h475v-40l-380 -592h32l259 2h94v-64zM342 -200h-86v86h86v-86z" />
    <glyph glyph-name="zdotbelow" unicode="&#x1e93;" horiz-adv-x="425" 
d="M393 0h-366v40l261 346h-76q-6 0 -18 -0.5t-18 -0.5h-135v59h349v-39l-261 -345h85q6 0 18 0.5t18 0.5h143v-61zM255 -200h-86v86h86v-86z" />
    <glyph glyph-name="tdieresis" unicode="&#x1e97;" horiz-adv-x="354" 
d="M326 29q-76 -39 -144 -39q-82 0 -82 127v269h-82v58h84v127h69v-127h138v-58h-138v-252q0 -82 50 -82t90 35zM92 612h-77v78h77v-78zM259 612h-77v78h77v-78z" />
    <glyph glyph-name="Adotbelow" unicode="&#x1ea0;" horiz-adv-x="647" 
d="M619 0h-89l-74 203h-282l-73 -203h-74l252 694h88zM435 259l-120 363l-119 -363h239zM367 -200h-86v86h86v-86z" />
    <glyph glyph-name="adotbelow" unicode="&#x1ea1;" horiz-adv-x="469" 
d="M401 0h-74v37q-26 -22 -72 -34.5t-90 -12.5q-57 0 -84 41t-27 84q0 74 106 110q61 20 165 25v41q0 52 -24.5 81t-61.5 29q-79 0 -148 -50l-6 66q73 42 154 42q70 0 116 -47t46 -119v-293zM325 134v65q-27 0 -57.5 -3.5t-64.5 -12t-56 -26t-22 -41.5q0 -28 25.5 -47
t65.5 -19q44 0 76 20q33 20 33 64zM277 -200h-86v86h86v-86z" />
    <glyph glyph-name="Ahookabove" unicode="&#x1ea2;" horiz-adv-x="647" 
d="M619 0h-89l-74 203h-282l-73 -203h-74l252 694h88zM435 259l-120 363l-119 -363h239zM419 872q0 -33 -27 -50q-4 -4 -12 -8q-27 -17 -38 -29.5t-11 -29.5v-20h-1h-26v20q0 30 15 56.5t40 39.5q15 7 15 21q0 21 -13 31q-13 8 -44 8q-49 0 -72 -44h-1h-1l-14 40
q33 44 88 44q48 0 75 -21q27 -20 27 -58z" />
    <glyph glyph-name="ahookabove" unicode="&#x1ea3;" horiz-adv-x="469" 
d="M401 0h-74v37q-26 -22 -72 -34.5t-90 -12.5q-57 0 -84 41t-27 84q0 74 106 110q61 20 165 25v41q0 52 -24.5 81t-61.5 29q-79 0 -148 -50l-6 66q73 42 154 42q70 0 116 -47t46 -119v-293zM325 134v65q-27 0 -57.5 -3.5t-64.5 -12t-56 -26t-22 -41.5q0 -28 25.5 -47
t65.5 -19q44 0 76 20q33 20 33 64zM330 640q0 -33 -27 -50q-4 -4 -12 -8q-27 -17 -38 -29.5t-11 -29.5v-20h-1h-26v20q0 30 15 56.5t40 39.5q15 7 15 21q0 21 -13 31q-13 8 -44 8q-49 0 -72 -44h-1h-1l-14 40q33 44 88 44q48 0 75 -21q27 -20 27 -58z" />
    <glyph glyph-name="Acircumflexacute" unicode="&#x1ea4;" horiz-adv-x="647" 
d="M619 0h-89l-74 203h-282l-73 -203h-74l252 694h88zM435 259l-120 363l-119 -363h239zM480 735h-59l-97 97l-97 -97h-59l126 134h60zM467 1026l-197 -122h-89l175 122h111z" />
    <glyph glyph-name="acircumflexacute" unicode="&#x1ea5;" horiz-adv-x="469" 
d="M401 0h-74v37q-26 -22 -72 -34.5t-90 -12.5q-57 0 -84 41t-27 84q0 74 106 110q61 20 165 25v41q0 52 -24.5 81t-61.5 29q-79 0 -148 -50l-6 66q73 42 154 42q70 0 116 -47t46 -119v-293zM325 134v65q-27 0 -57.5 -3.5t-64.5 -12t-56 -26t-22 -41.5q0 -28 25.5 -47
t65.5 -19q44 0 76 20q33 20 33 64zM391 525h-59l-97 97l-97 -97h-59l126 134h60zM378 816l-197 -122h-89l175 122h111z" />
    <glyph glyph-name="Acircumflexgrave" unicode="&#x1ea6;" horiz-adv-x="647" 
d="M619 0h-89l-74 203h-282l-73 -203h-74l252 694h88zM435 259l-120 363l-119 -363h239zM480 735h-59l-97 97l-97 -97h-59l126 134h60zM467 904l-175 122h-111l197 -122h89z" />
    <glyph glyph-name="acircumflexgrave" unicode="&#x1ea7;" horiz-adv-x="469" 
d="M401 0h-74v37q-26 -22 -72 -34.5t-90 -12.5q-57 0 -84 41t-27 84q0 74 106 110q61 20 165 25v41q0 52 -24.5 81t-61.5 29q-79 0 -148 -50l-6 66q73 42 154 42q70 0 116 -47t46 -119v-293zM325 134v65q-27 0 -57.5 -3.5t-64.5 -12t-56 -26t-22 -41.5q0 -28 25.5 -47
t65.5 -19q44 0 76 20q33 20 33 64zM391 525h-59l-97 97l-97 -97h-59l126 134h60zM378 694l-175 122h-111l197 -122h89z" />
    <glyph glyph-name="Acircumflexhookabove" unicode="&#x1ea8;" horiz-adv-x="647" 
d="M619 0h-89l-74 203h-282l-73 -203h-74l252 694h88zM435 259l-120 363l-119 -363h239zM480 735h-59l-97 97l-97 -97h-59l126 134h60zM514 1021q0 -33 -27 -50q-4 -4 -12 -8q-27 -17 -38 -29.5t-11 -29.5v-20h-1h-26v20q0 30 15 56.5t40 39.5q15 7 15 21q0 21 -13 31
q-13 8 -44 8q-49 0 -72 -44h-1h-1l-14 40q33 44 88 44q48 0 75 -21q27 -19 27 -58z" />
    <glyph glyph-name="acircumflexhookabove" unicode="&#x1ea9;" horiz-adv-x="469" 
d="M401 0h-74v37q-26 -22 -72 -34.5t-90 -12.5q-57 0 -84 41t-27 84q0 74 106 110q61 20 165 25v41q0 52 -24.5 81t-61.5 29q-79 0 -148 -50l-6 66q73 42 154 42q70 0 116 -47t46 -119v-293zM325 134v65q-27 0 -57.5 -3.5t-64.5 -12t-56 -26t-22 -41.5q0 -28 25.5 -47
t65.5 -19q44 0 76 20q33 20 33 64zM391 525h-59l-97 97l-97 -97h-59l126 134h60zM425 811q0 -33 -27 -50q-4 -4 -12 -8q-27 -17 -38 -29.5t-11 -29.5v-20h-1h-26v20q0 30 15 56.5t40 39.5q15 7 15 21q0 21 -13 31q-13 8 -44 8q-49 0 -72 -44h-1h-1l-14 40q33 44 88 44
q48 0 75 -21q27 -19 27 -58z" />
    <glyph glyph-name="Acircumflextilde" unicode="&#x1eaa;" horiz-adv-x="647" 
d="M619 0h-89l-74 203h-282l-73 -203h-74l252 694h88zM435 259l-120 363l-119 -363h239zM480 735h-59l-97 97l-97 -97h-59l126 134h60zM487 1042q-1 -55 -30 -86.5t-65 -31.5q-28 0 -74 33q-36 25 -58 25q-20 0 -29 -17.5t-9 -40.5h-60q1 55 30 86.5t65 31.5q28 0 74 -33
q36 -25 58 -25q20 0 29 17.5t9 40.5h60z" />
    <glyph glyph-name="acircumflextilde" unicode="&#x1eab;" horiz-adv-x="469" 
d="M401 0h-74v37q-26 -22 -72 -34.5t-90 -12.5q-57 0 -84 41t-27 84q0 74 106 110q61 20 165 25v41q0 52 -24.5 81t-61.5 29q-79 0 -148 -50l-6 66q73 42 154 42q70 0 116 -47t46 -119v-293zM325 134v65q-27 0 -57.5 -3.5t-64.5 -12t-56 -26t-22 -41.5q0 -28 25.5 -47
t65.5 -19q44 0 76 20q33 20 33 64zM391 525h-59l-97 97l-97 -97h-59l126 134h60zM398 832q-1 -55 -30 -86.5t-65 -31.5q-28 0 -74 33q-36 25 -58 25q-20 0 -29 -17.5t-9 -40.5h-60q1 55 30 86.5t65 31.5q28 0 74 -33q36 -25 58 -25q20 0 29 17.5t9 40.5h60z" />
    <glyph glyph-name="Acircumflexdotbelow" unicode="&#x1eac;" horiz-adv-x="647" 
d="M619 0h-89l-74 203h-282l-73 -203h-74l252 694h88zM435 259l-120 363l-119 -363h239zM480 735h-59l-97 97l-97 -97h-59l126 134h60zM367 -200h-86v86h86v-86z" />
    <glyph glyph-name="acircumflexdotbelow" unicode="&#x1ead;" horiz-adv-x="469" 
d="M401 0h-74v37q-26 -22 -72 -34.5t-90 -12.5q-57 0 -84 41t-27 84q0 74 106 110q61 20 165 25v41q0 52 -24.5 81t-61.5 29q-79 0 -148 -50l-6 66q73 42 154 42q70 0 116 -47t46 -119v-293zM325 134v65q-27 0 -57.5 -3.5t-64.5 -12t-56 -26t-22 -41.5q0 -28 25.5 -47
t65.5 -19q44 0 76 20q33 20 33 64zM390 525h-59l-96 123l-96 -123h-59l125 172h60zM277 -200h-86v86h86v-86z" />
    <glyph glyph-name="Abreveacute" unicode="&#x1eae;" horiz-adv-x="647" 
d="M619 0h-89l-74 203h-282l-73 -203h-74l252 694h88zM435 259l-120 363l-119 -363h239zM489 923q-1 -77 -50 -127.5t-116 -50.5q-66 0 -115 50t-50 128h60q1 -52 33 -82.5t73 -30.5q40 0 72 30t33 83h60zM467 1080l-197 -122h-89l175 122h111z" />
    <glyph glyph-name="abreveacute" unicode="&#x1eaf;" horiz-adv-x="469" 
d="M401 0h-74v37q-26 -22 -72 -34.5t-90 -12.5q-57 0 -84 41t-27 84q0 74 106 110q61 20 165 25v41q0 52 -24.5 81t-61.5 29q-79 0 -148 -50l-6 66q73 42 154 42q70 0 116 -47t46 -119v-293zM325 134v65q-27 0 -57.5 -3.5t-64.5 -12t-56 -26t-22 -41.5q0 -28 25.5 -47
t65.5 -19q44 0 76 20q33 20 33 64zM400 700q-1 -77 -50 -127.5t-116 -50.5q-66 0 -115 50t-50 128h60q1 -52 33 -82.5t73 -30.5q40 0 72 30t33 83h60zM378 857l-197 -122h-89l175 122h111z" />
    <glyph glyph-name="Abrevegrave" unicode="&#x1eb0;" horiz-adv-x="647" 
d="M619 0h-89l-74 203h-282l-73 -203h-74l252 694h88zM435 259l-120 363l-119 -363h239zM489 923q-1 -77 -50 -127.5t-116 -50.5q-66 0 -115 50t-50 128h60q1 -52 33 -82.5t73 -30.5q40 0 72 30t33 83h60zM467 958l-175 122h-111l197 -122h89z" />
    <glyph glyph-name="abrevegrave" unicode="&#x1eb1;" horiz-adv-x="469" 
d="M401 0h-74v37q-26 -22 -72 -34.5t-90 -12.5q-57 0 -84 41t-27 84q0 74 106 110q61 20 165 25v41q0 52 -24.5 81t-61.5 29q-79 0 -148 -50l-6 66q73 42 154 42q70 0 116 -47t46 -119v-293zM325 134v65q-27 0 -57.5 -3.5t-64.5 -12t-56 -26t-22 -41.5q0 -28 25.5 -47
t65.5 -19q44 0 76 20q33 20 33 64zM400 700q-1 -77 -50 -127.5t-116 -50.5q-66 0 -115 50t-50 128h60q1 -52 33 -82.5t73 -30.5q40 0 72 30t33 83h60zM378 735l-175 122h-111l197 -122h89z" />
    <glyph glyph-name="Abrevehookabove" unicode="&#x1eb2;" horiz-adv-x="647" 
d="M619 0h-89l-74 203h-282l-73 -203h-74l252 694h88zM435 259l-120 363l-119 -363h239zM489 923q-1 -77 -50 -127.5t-116 -50.5q-66 0 -115 50t-50 128h60q1 -52 33 -82.5t73 -30.5q40 0 72 30t33 83h60zM419 1075q0 -33 -27 -50q-4 -4 -12 -8q-27 -17 -38 -29.5t-11 -29.5
v-20h-1h-26v20q0 30 15 56.5t40 39.5q15 7 15 21q0 21 -13 31q-13 8 -44 8q-49 0 -72 -44h-1h-1l-14 40q33 44 88 44q48 0 75 -21q27 -19 27 -58z" />
    <glyph glyph-name="abrevehookabove" unicode="&#x1eb3;" horiz-adv-x="469" 
d="M401 0h-74v37q-26 -22 -72 -34.5t-90 -12.5q-57 0 -84 41t-27 84q0 74 106 110q61 20 165 25v41q0 52 -24.5 81t-61.5 29q-79 0 -148 -50l-6 66q73 42 154 42q70 0 116 -47t46 -119v-293zM325 134v65q-27 0 -57.5 -3.5t-64.5 -12t-56 -26t-22 -41.5q0 -28 25.5 -47
t65.5 -19q44 0 76 20q33 20 33 64zM400 700q-1 -77 -50 -127.5t-116 -50.5q-66 0 -115 50t-50 128h60q1 -52 33 -82.5t73 -30.5q40 0 72 30t33 83h60zM330 852q0 -33 -27 -50q-4 -4 -12 -8q-27 -17 -38 -29.5t-11 -29.5v-20h-1h-26v20q0 30 15 56.5t40 39.5q15 7 15 21
q0 21 -13 31q-13 8 -44 8q-49 0 -72 -44h-1h-1l-14 40q33 44 88 44q48 0 75 -21q27 -20 27 -58z" />
    <glyph glyph-name="Abrevetilde" unicode="&#x1eb4;" horiz-adv-x="647" 
d="M619 0h-89l-74 203h-282l-73 -203h-74l252 694h88zM435 259l-120 363l-119 -363h239zM489 923q-1 -77 -50 -127.5t-116 -50.5q-66 0 -115 50t-50 128h60q1 -52 33 -82.5t73 -30.5q40 0 72 30t33 83h60zM486 1096q-1 -55 -30 -86.5t-65 -31.5q-28 0 -74 33q-36 25 -58 25
q-20 0 -29 -17.5t-9 -40.5h-60q1 55 30 86.5t65 31.5q28 0 74 -33q36 -25 58 -25q20 0 29 17.5t9 40.5h60z" />
    <glyph glyph-name="abrevetilde" unicode="&#x1eb5;" horiz-adv-x="469" 
d="M401 0h-74v37q-26 -22 -72 -34.5t-90 -12.5q-57 0 -84 41t-27 84q0 74 106 110q61 20 165 25v41q0 52 -24.5 81t-61.5 29q-79 0 -148 -50l-6 66q73 42 154 42q70 0 116 -47t46 -119v-293zM325 134v65q-27 0 -57.5 -3.5t-64.5 -12t-56 -26t-22 -41.5q0 -28 25.5 -47
t65.5 -19q44 0 76 20q33 20 33 64zM400 700q-1 -77 -50 -127.5t-116 -50.5q-66 0 -115 50t-50 128h60q1 -52 33 -82.5t73 -30.5q40 0 72 30t33 83h60zM397 873q-1 -55 -30 -86.5t-65 -31.5q-28 0 -74 33q-36 25 -58 25q-20 0 -29 -17.5t-9 -40.5h-60q1 55 30 86.5t65 31.5
q28 0 74 -33q36 -25 58 -25q20 0 29 17.5t9 40.5h60z" />
    <glyph glyph-name="Abrevedotbelow" unicode="&#x1eb6;" horiz-adv-x="647" 
d="M619 0h-89l-74 203h-282l-73 -203h-74l252 694h88zM435 259l-120 363l-119 -363h239zM489 923q-1 -77 -50 -127.5t-116 -50.5q-66 0 -115 50t-50 128h60q1 -52 33 -82.5t73 -30.5q40 0 72 30t33 83h60zM367 -200h-86v86h86v-86z" />
    <glyph glyph-name="abrevedotbelow" unicode="&#x1eb7;" horiz-adv-x="469" 
d="M401 0h-74v37q-26 -22 -72 -34.5t-90 -12.5q-57 0 -84 41t-27 84q0 74 106 110q61 20 165 25v41q0 52 -24.5 81t-61.5 29q-79 0 -148 -50l-6 66q73 42 154 42q70 0 116 -47t46 -119v-293zM325 134v65q-27 0 -57.5 -3.5t-64.5 -12t-56 -26t-22 -41.5q0 -28 25.5 -47
t65.5 -19q44 0 76 20q33 20 33 64zM400 700q-1 -77 -50 -127.5t-116 -50.5q-66 0 -115 50t-50 128h60q1 -52 33 -82.5t73 -30.5q40 0 72 30t33 83h60zM277 -200h-86v86h86v-86z" />
    <glyph glyph-name="Edotbelow" unicode="&#x1eb8;" horiz-adv-x="583" 
d="M541 0h-451v692h438v-63h-180q-6 0 -18 0.5t-18 0.5h-136v-240h324v-60h-324v-263h198q6 0 18 0.5t18 0.5h131v-68zM335 -200h-86v86h86v-86z" />
    <glyph glyph-name="edotbelow" unicode="&#x1eb9;" horiz-adv-x="435" 
d="M407 225h-305q1 -78 43.5 -126.5t101.5 -48.5q81 0 148 57l3 -27q3 -33 3 -37q-73 -53 -156 -53q-88 0 -150 68.5t-62 166.5q0 97 58.5 165.5t139.5 68.5q94 0 140 -77q36 -60 36 -157zM348 279q-6 37 -20.5 63t-33.5 37t-33.5 15.5t-29.5 4.5q-43 0 -76.5 -34t-46.5 -86
h240zM261 -200h-86v86h86v-86z" />
    <glyph glyph-name="Ehookabove" unicode="&#x1eba;" horiz-adv-x="583" 
d="M541 0h-451v692h438v-63h-180q-6 0 -18 0.5t-18 0.5h-136v-240h324v-60h-324v-263h198q6 0 18 0.5t18 0.5h131v-68zM387 872q0 -33 -27 -50q-4 -4 -12 -8q-27 -17 -38 -29.5t-11 -29.5v-20h-1h-26v20q0 30 15 56.5t40 39.5q15 7 15 21q0 21 -13 31q-13 8 -44 8
q-49 0 -72 -44h-1h-1l-14 40q33 44 88 44q48 0 75 -21q27 -20 27 -58z" />
    <glyph glyph-name="ehookabove" unicode="&#x1ebb;" horiz-adv-x="435" 
d="M407 225h-305q1 -78 43.5 -126.5t101.5 -48.5q81 0 148 57l3 -27q3 -33 3 -37q-73 -53 -156 -53q-88 0 -150 68.5t-62 166.5q0 97 58.5 165.5t139.5 68.5q94 0 140 -77q36 -60 36 -157zM348 279q-6 37 -20.5 63t-33.5 37t-33.5 15.5t-29.5 4.5q-43 0 -76.5 -34t-46.5 -86
h240zM313 640q0 -33 -27 -50q-4 -4 -12 -8q-27 -17 -38 -29.5t-11 -29.5v-20h-1h-26v20q0 30 15 56.5t40 39.5q15 7 15 21q0 21 -13 31q-13 8 -44 8q-49 0 -72 -44h-1h-1l-14 40q33 44 88 44q48 0 75 -21q27 -20 27 -58z" />
    <glyph glyph-name="Etilde" unicode="&#x1ebc;" horiz-adv-x="583" 
d="M541 0h-451v692h438v-63h-180q-6 0 -18 0.5t-18 0.5h-136v-240h324v-60h-324v-263h198q6 0 18 0.5t18 0.5h131v-68zM454 853q-1 -55 -30 -86.5t-65 -31.5q-28 0 -74 33q-36 25 -58 25q-20 0 -29 -17.5t-9 -40.5h-60q1 55 30 86.5t65 31.5q28 0 74 -33q36 -25 58 -25
q20 0 29 17.5t9 40.5h60z" />
    <glyph glyph-name="etilde" unicode="&#x1ebd;" horiz-adv-x="435" 
d="M407 225h-305q1 -78 43.5 -126.5t101.5 -48.5q81 0 148 57l3 -27q3 -33 3 -37q-73 -53 -156 -53q-88 0 -150 68.5t-62 166.5q0 97 58.5 165.5t139.5 68.5q94 0 140 -77q36 -60 36 -157zM348 279q-6 37 -20.5 63t-33.5 37t-33.5 15.5t-29.5 4.5q-43 0 -76.5 -34t-46.5 -86
h240zM380 670q-1 -55 -30 -86.5t-65 -31.5q-28 0 -74 33q-36 25 -58 25q-20 0 -29 -17.5t-9 -40.5h-60q1 55 30 86.5t65 31.5q28 0 74 -33q36 -25 58 -25q20 0 29 17.5t9 40.5h60z" />
    <glyph glyph-name="Ecircumflexacute" unicode="&#x1ebe;" horiz-adv-x="583" 
d="M541 0h-451v692h438v-63h-180q-6 0 -18 0.5t-18 0.5h-136v-240h324v-60h-324v-263h198q6 0 18 0.5t18 0.5h131v-68zM448 735h-59l-97 97l-97 -97h-59l126 134h60zM435 1026l-197 -122h-89l175 122h111z" />
    <glyph glyph-name="ecircumflexacute" unicode="&#x1ebf;" horiz-adv-x="435" 
d="M407 225h-305q1 -78 43.5 -126.5t101.5 -48.5q81 0 148 57l3 -27q3 -33 3 -37q-73 -53 -156 -53q-88 0 -150 68.5t-62 166.5q0 97 58.5 165.5t139.5 68.5q94 0 140 -77q36 -60 36 -157zM348 279q-6 37 -20.5 63t-33.5 37t-33.5 15.5t-29.5 4.5q-43 0 -76.5 -34t-46.5 -86
h240zM374 525h-59l-97 97l-97 -97h-59l126 134h60zM361 816l-197 -122h-89l175 122h111z" />
    <glyph glyph-name="Ecircumflexgrave" unicode="&#x1ec0;" horiz-adv-x="583" 
d="M541 0h-451v692h438v-63h-180q-6 0 -18 0.5t-18 0.5h-136v-240h324v-60h-324v-263h198q6 0 18 0.5t18 0.5h131v-68zM448 735h-59l-97 97l-97 -97h-59l126 134h60zM435 904l-175 122h-111l197 -122h89z" />
    <glyph glyph-name="ecircumflexgrave" unicode="&#x1ec1;" horiz-adv-x="435" 
d="M407 225h-305q1 -78 43.5 -126.5t101.5 -48.5q81 0 148 57l3 -27q3 -33 3 -37q-73 -53 -156 -53q-88 0 -150 68.5t-62 166.5q0 97 58.5 165.5t139.5 68.5q94 0 140 -77q36 -60 36 -157zM348 279q-6 37 -20.5 63t-33.5 37t-33.5 15.5t-29.5 4.5q-43 0 -76.5 -34t-46.5 -86
h240zM374 525h-59l-97 97l-97 -97h-59l126 134h60zM361 694l-175 122h-111l197 -122h89z" />
    <glyph glyph-name="Ecircumflexhookabove" unicode="&#x1ec2;" horiz-adv-x="583" 
d="M541 0h-451v692h438v-63h-180q-6 0 -18 0.5t-18 0.5h-136v-240h324v-60h-324v-263h198q6 0 18 0.5t18 0.5h131v-68zM448 735h-59l-97 97l-97 -97h-59l126 134h60zM482 1021q0 -33 -27 -50q-4 -4 -12 -8q-27 -17 -38 -29.5t-11 -29.5v-20h-1h-26v20q0 30 15 56.5t40 39.5
q15 7 15 21q0 21 -13 31q-13 8 -44 8q-49 0 -72 -44h-1h-1l-14 40q33 44 88 44q48 0 75 -21q27 -19 27 -58z" />
    <glyph glyph-name="ecircumflexhookabove" unicode="&#x1ec3;" horiz-adv-x="435" 
d="M407 225h-305q1 -78 43.5 -126.5t101.5 -48.5q81 0 148 57l3 -27q3 -33 3 -37q-73 -53 -156 -53q-88 0 -150 68.5t-62 166.5q0 97 58.5 165.5t139.5 68.5q94 0 140 -77q36 -60 36 -157zM348 279q-6 37 -20.5 63t-33.5 37t-33.5 15.5t-29.5 4.5q-43 0 -76.5 -34t-46.5 -86
h240zM374 525h-59l-97 97l-97 -97h-59l126 134h60zM408 811q0 -33 -27 -50q-4 -4 -12 -8q-27 -17 -38 -29.5t-11 -29.5v-20h-1h-26v20q0 30 15 56.5t40 39.5q15 7 15 21q0 21 -13 31q-13 8 -44 8q-49 0 -72 -44h-1h-1l-14 40q33 44 88 44q48 0 75 -21q27 -19 27 -58z" />
    <glyph glyph-name="Ecircumflextilde" unicode="&#x1ec4;" horiz-adv-x="583" 
d="M541 0h-451v692h438v-63h-180q-6 0 -18 0.5t-18 0.5h-136v-240h324v-60h-324v-263h198q6 0 18 0.5t18 0.5h131v-68zM448 735h-59l-97 97l-97 -97h-59l126 134h60zM455 1042q-1 -55 -30 -86.5t-65 -31.5q-28 0 -74 33q-36 25 -58 25q-20 0 -29 -17.5t-9 -40.5h-60
q1 55 30 86.5t65 31.5q28 0 74 -33q36 -25 58 -25q20 0 29 17.5t9 40.5h60z" />
    <glyph glyph-name="ecircumflextilde" unicode="&#x1ec5;" horiz-adv-x="435" 
d="M407 225h-305q1 -78 43.5 -126.5t101.5 -48.5q81 0 148 57l3 -27q3 -33 3 -37q-73 -53 -156 -53q-88 0 -150 68.5t-62 166.5q0 97 58.5 165.5t139.5 68.5q94 0 140 -77q36 -60 36 -157zM348 279q-6 37 -20.5 63t-33.5 37t-33.5 15.5t-29.5 4.5q-43 0 -76.5 -34t-46.5 -86
h240zM374 525h-59l-97 97l-97 -97h-59l126 134h60zM381 832q-1 -55 -30 -86.5t-65 -31.5q-28 0 -74 33q-36 25 -58 25q-20 0 -29 -17.5t-9 -40.5h-60q1 55 30 86.5t65 31.5q28 0 74 -33q36 -25 58 -25q20 0 29 17.5t9 40.5h60z" />
    <glyph glyph-name="Ecircumflexdotbelow" unicode="&#x1ec6;" horiz-adv-x="583" 
d="M541 0h-451v692h438v-63h-180q-6 0 -18 0.5t-18 0.5h-136v-240h324v-60h-324v-263h198q6 0 18 0.5t18 0.5h131v-68zM448 735h-59l-97 97l-97 -97h-59l126 134h60zM335 -200h-86v86h86v-86z" />
    <glyph glyph-name="ecircumflexdotbelow" unicode="&#x1ec7;" horiz-adv-x="435" 
d="M407 225h-305q1 -78 43.5 -126.5t101.5 -48.5q81 0 148 57l3 -27q3 -33 3 -37q-73 -53 -156 -53q-88 0 -150 68.5t-62 166.5q0 97 58.5 165.5t139.5 68.5q94 0 140 -77q36 -60 36 -157zM348 279q-6 37 -20.5 63t-33.5 37t-33.5 15.5t-29.5 4.5q-43 0 -76.5 -34t-46.5 -86
h240zM373 525h-59l-96 123l-96 -123h-59l125 172h60zM261 -200h-86v86h86v-86z" />
    <glyph glyph-name="Ihookabove" unicode="&#x1ec8;" horiz-adv-x="266" 
d="M176 0h-86v694h86v-694zM228 872q0 -33 -27 -50q-4 -4 -12 -8q-27 -17 -38 -29.5t-11 -29.5v-20h-1h-26v20q0 30 15 56.5t40 39.5q15 7 15 21q0 21 -13 31q-13 8 -44 8q-49 0 -72 -44h-1h-1l-14 40q33 44 88 44q48 0 75 -21q27 -20 27 -58z" />
    <glyph glyph-name="ihookabove" unicode="&#x1ec9;" horiz-adv-x="230" 
d="M152 0h-74v444h74v-444zM210 640q0 -33 -27 -50q-4 -4 -12 -8q-27 -17 -38 -29.5t-11 -29.5v-20h-1h-26v20q0 30 15 56.5t40 39.5q15 7 15 21q0 21 -13 31q-13 8 -44 8q-49 0 -72 -44h-1h-1l-14 40q33 44 88 44q48 0 75 -21q27 -20 27 -58z" />
    <glyph glyph-name="Idotbelow" unicode="&#x1eca;" horiz-adv-x="266" 
d="M176 0h-86v694h86v-694zM176 -200h-86v86h86v-86z" />
    <glyph glyph-name="idotbelow" unicode="&#x1ecb;" horiz-adv-x="230" 
d="M152 0h-74v444h74v-444zM158 568h-86v86h86v-86zM158 -200h-86v86h86v-86z" />
    <glyph glyph-name="Odotbelow" unicode="&#x1ecc;" horiz-adv-x="722" 
d="M667 345q0 -155 -90.5 -260.5t-216.5 -105.5q-123 0 -214.5 105.5t-91.5 260.5t90.5 262.5t216.5 107.5q124 0 215 -107t91 -263zM581 360q0 131 -65.5 212t-155.5 81q-88 0 -154 -80.5t-66 -212.5q0 -140 65.5 -229t155.5 -89q88 0 154 88.5t66 229.5zM404 -200h-86v86
h86v-86z" />
    <glyph glyph-name="odotbelow" unicode="&#x1ecd;" 
d="M459 220q0 -96 -63 -163t-152 -67q-87 0 -150.5 66.5t-63.5 163.5q0 99 63 169t152 70q87 0 150.5 -69.5t63.5 -169.5zM383 230q0 82 -41 125.5t-98 43.5q-54 0 -96 -42.5t-42 -126.5t40.5 -131t98.5 -47q56 0 97 46t41 132zM288 -200h-86v86h86v-86z" />
    <glyph glyph-name="Ohookabove" unicode="&#x1ece;" horiz-adv-x="722" 
d="M667 345q0 -155 -90.5 -260.5t-216.5 -105.5q-123 0 -214.5 105.5t-91.5 260.5t90.5 262.5t216.5 107.5q124 0 215 -107t91 -263zM581 360q0 131 -65.5 212t-155.5 81q-88 0 -154 -80.5t-66 -212.5q0 -140 65.5 -229t155.5 -89q88 0 154 88.5t66 229.5zM456 872
q0 -33 -27 -50q-4 -4 -12 -8q-27 -17 -38 -29.5t-11 -29.5v-20h-1h-26v20q0 30 15 56.5t40 39.5q15 7 15 21q0 21 -13 31q-13 8 -44 8q-49 0 -72 -44h-1h-1l-14 40q33 44 88 44q48 0 75 -21q27 -20 27 -58z" />
    <glyph glyph-name="ohookabove" unicode="&#x1ecf;" 
d="M459 220q0 -96 -63 -163t-152 -67q-87 0 -150.5 66.5t-63.5 163.5q0 99 63 169t152 70q87 0 150.5 -69.5t63.5 -169.5zM383 230q0 82 -41 125.5t-98 43.5q-54 0 -96 -42.5t-42 -126.5t40.5 -131t98.5 -47q56 0 97 46t41 132zM340 640q0 -33 -27 -50q-4 -4 -12 -8
q-27 -17 -38 -29.5t-11 -29.5v-20h-1h-26v20q0 30 15 56.5t40 39.5q15 7 15 21q0 21 -13 31q-13 8 -44 8q-49 0 -72 -44h-1h-1l-14 40q33 44 88 44q48 0 75 -21q27 -20 27 -58z" />
    <glyph glyph-name="Ocircumflexacute" unicode="&#x1ed0;" horiz-adv-x="722" 
d="M667 345q0 -155 -90.5 -260.5t-216.5 -105.5q-123 0 -214.5 105.5t-91.5 260.5t90.5 262.5t216.5 107.5q124 0 215 -107t91 -263zM581 360q0 131 -65.5 212t-155.5 81q-88 0 -154 -80.5t-66 -212.5q0 -140 65.5 -229t155.5 -89q88 0 154 88.5t66 229.5zM517 735h-59
l-97 97l-97 -97h-59l126 134h60zM504 1026l-197 -122h-89l175 122h111z" />
    <glyph glyph-name="ocircumflexacute" unicode="&#x1ed1;" 
d="M459 220q0 -96 -63 -163t-152 -67q-87 0 -150.5 66.5t-63.5 163.5q0 99 63 169t152 70q87 0 150.5 -69.5t63.5 -169.5zM383 230q0 82 -41 125.5t-98 43.5q-54 0 -96 -42.5t-42 -126.5t40.5 -131t98.5 -47q56 0 97 46t41 132zM401 525h-59l-97 97l-97 -97h-59l126 134h60z
M388 816l-197 -122h-89l175 122h111z" />
    <glyph glyph-name="Ocircumflexgrave" unicode="&#x1ed2;" horiz-adv-x="722" 
d="M667 345q0 -155 -90.5 -260.5t-216.5 -105.5q-123 0 -214.5 105.5t-91.5 260.5t90.5 262.5t216.5 107.5q124 0 215 -107t91 -263zM581 360q0 131 -65.5 212t-155.5 81q-88 0 -154 -80.5t-66 -212.5q0 -140 65.5 -229t155.5 -89q88 0 154 88.5t66 229.5zM517 735h-59
l-97 97l-97 -97h-59l126 134h60zM504 904l-175 122h-111l197 -122h89z" />
    <glyph glyph-name="ocircumflexgrave" unicode="&#x1ed3;" 
d="M459 220q0 -96 -63 -163t-152 -67q-87 0 -150.5 66.5t-63.5 163.5q0 99 63 169t152 70q87 0 150.5 -69.5t63.5 -169.5zM383 230q0 82 -41 125.5t-98 43.5q-54 0 -96 -42.5t-42 -126.5t40.5 -131t98.5 -47q56 0 97 46t41 132zM401 525h-59l-97 97l-97 -97h-59l126 134h60z
M388 694l-175 122h-111l197 -122h89z" />
    <glyph glyph-name="Ocircumflexhookabove" unicode="&#x1ed4;" horiz-adv-x="722" 
d="M667 345q0 -155 -90.5 -260.5t-216.5 -105.5q-123 0 -214.5 105.5t-91.5 260.5t90.5 262.5t216.5 107.5q124 0 215 -107t91 -263zM581 360q0 131 -65.5 212t-155.5 81q-88 0 -154 -80.5t-66 -212.5q0 -140 65.5 -229t155.5 -89q88 0 154 88.5t66 229.5zM517 735h-59
l-97 97l-97 -97h-59l126 134h60zM551 1021q0 -33 -27 -50q-4 -4 -12 -8q-27 -17 -38 -29.5t-11 -29.5v-20h-1h-26v20q0 30 15 56.5t40 39.5q15 7 15 21q0 21 -13 31q-13 8 -44 8q-49 0 -72 -44h-1h-1l-14 40q33 44 88 44q48 0 75 -21q27 -19 27 -58z" />
    <glyph glyph-name="ocircumflexhookabove" unicode="&#x1ed5;" 
d="M459 220q0 -96 -63 -163t-152 -67q-87 0 -150.5 66.5t-63.5 163.5q0 99 63 169t152 70q87 0 150.5 -69.5t63.5 -169.5zM383 230q0 82 -41 125.5t-98 43.5q-54 0 -96 -42.5t-42 -126.5t40.5 -131t98.5 -47q56 0 97 46t41 132zM401 525h-59l-97 97l-97 -97h-59l126 134h60z
M435 811q0 -33 -27 -50q-4 -4 -12 -8q-27 -17 -38 -29.5t-11 -29.5v-20h-1h-26v20q0 30 15 56.5t40 39.5q15 7 15 21q0 21 -13 31q-13 8 -44 8q-49 0 -72 -44h-1h-1l-14 40q33 44 88 44q48 0 75 -21q27 -19 27 -58z" />
    <glyph glyph-name="Ocircumflextilde" unicode="&#x1ed6;" horiz-adv-x="722" 
d="M667 345q0 -155 -90.5 -260.5t-216.5 -105.5q-123 0 -214.5 105.5t-91.5 260.5t90.5 262.5t216.5 107.5q124 0 215 -107t91 -263zM581 360q0 131 -65.5 212t-155.5 81q-88 0 -154 -80.5t-66 -212.5q0 -140 65.5 -229t155.5 -89q88 0 154 88.5t66 229.5zM517 735h-59
l-97 97l-97 -97h-59l126 134h60zM524 1042q-1 -55 -30 -86.5t-65 -31.5q-28 0 -74 33q-36 25 -58 25q-20 0 -29 -17.5t-9 -40.5h-60q1 55 30 86.5t65 31.5q28 0 74 -33q36 -25 58 -25q20 0 29 17.5t9 40.5h60z" />
    <glyph glyph-name="ocircumflextilde" unicode="&#x1ed7;" 
d="M459 220q0 -96 -63 -163t-152 -67q-87 0 -150.5 66.5t-63.5 163.5q0 99 63 169t152 70q87 0 150.5 -69.5t63.5 -169.5zM383 230q0 82 -41 125.5t-98 43.5q-54 0 -96 -42.5t-42 -126.5t40.5 -131t98.5 -47q56 0 97 46t41 132zM401 525h-59l-97 97l-97 -97h-59l126 134h60z
M408 832q-1 -55 -30 -86.5t-65 -31.5q-28 0 -74 33q-36 25 -58 25q-20 0 -29 -17.5t-9 -40.5h-60q1 55 30 86.5t65 31.5q28 0 74 -33q36 -25 58 -25q20 0 29 17.5t9 40.5h60z" />
    <glyph glyph-name="Ocircumflexdotbelow" unicode="&#x1ed8;" horiz-adv-x="722" 
d="M667 345q0 -155 -90.5 -260.5t-216.5 -105.5q-123 0 -214.5 105.5t-91.5 260.5t90.5 262.5t216.5 107.5q124 0 215 -107t91 -263zM581 360q0 131 -65.5 212t-155.5 81q-88 0 -154 -80.5t-66 -212.5q0 -140 65.5 -229t155.5 -89q88 0 154 88.5t66 229.5zM517 735h-59
l-97 97l-97 -97h-59l126 134h60zM404 -200h-86v86h86v-86z" />
    <glyph glyph-name="ocircumflexdotbelow" unicode="&#x1ed9;" 
d="M459 220q0 -96 -63 -163t-152 -67q-87 0 -150.5 66.5t-63.5 163.5q0 99 63 169t152 70q87 0 150.5 -69.5t63.5 -169.5zM383 230q0 82 -41 125.5t-98 43.5q-54 0 -96 -42.5t-42 -126.5t40.5 -131t98.5 -47q56 0 97 46t41 132zM400 525h-59l-96 123l-96 -123h-59l125 172
h60zM288 -200h-86v86h86v-86z" />
    <glyph glyph-name="Ohornacute" unicode="&#x1eda;" horiz-adv-x="722" 
d="M666 345q0 -152 -89 -259q-91 -107 -217 -107q-62 0 -118.5 28.5t-97.5 78.5q-90 108 -90 259q0 153 90 262q90 108 216 108q81 0 151 -48l31 27h-23l-1 1v79l1 1h79l1 -1v-79v-1l-62 -47q14 -12 40 -40q89 -110 89 -262zM580 361q0 124 -63 207q-63 85 -157 85
q-92 0 -157 -85q-63 -83 -63 -207q0 -136 63 -226q64 -92 157 -92q46 0 87.5 25t69.5 67q63 90 63 226zM524 867l-197 -122h-89l175 122h111z" />
    <glyph glyph-name="ohornacute" unicode="&#x1edb;" horiz-adv-x="489" 
d="M457 445l-67 -52l3 -3q62 -71 62 -170q0 -96 -62 -163q-61 -67 -149 -67t-149 67q-62 67 -62 163q0 99 62 170q62 70 149 70q67 0 123 -45l33 29h-23l-1 1v79l1 1h79l1 -1v-79zM385 231q0 75 -39 121q-39 48 -102 48t-103 -48q-39 -46 -39 -121q0 -79 39 -129
q40 -50 103 -50t102 50q39 48 39 129zM355 694l-146 -167h-60l130 167h76z" />
    <glyph glyph-name="Ohorngrave" unicode="&#x1edc;" horiz-adv-x="722" 
d="M666 345q0 -152 -89 -259q-91 -107 -217 -107q-62 0 -118.5 28.5t-97.5 78.5q-90 108 -90 259q0 153 90 262q90 108 216 108q81 0 151 -48l31 27h-23l-1 1v79l1 1h79l1 -1v-79v-1l-62 -47q14 -12 40 -40q89 -110 89 -262zM580 361q0 124 -63 207q-63 85 -157 85
q-92 0 -157 -85q-63 -83 -63 -207q0 -136 63 -226q64 -92 157 -92q46 0 87.5 25t69.5 67q63 90 63 226zM457 745h-89l-197 122h111z" />
    <glyph glyph-name="ohorngrave" unicode="&#x1edd;" horiz-adv-x="489" 
d="M457 445l-67 -52l3 -3q62 -71 62 -170q0 -96 -62 -163q-61 -67 -149 -67t-149 67q-62 67 -62 163q0 99 62 170q62 70 149 70q67 0 123 -45l33 29h-23l-1 1v79l1 1h79l1 -1v-79zM385 231q0 75 -39 121q-39 48 -102 48t-103 -48q-39 -46 -39 -121q0 -79 39 -129
q40 -50 103 -50t102 50q39 48 39 129zM314 527h-60l-146 167h76z" />
    <glyph glyph-name="Ohornhookabove" unicode="&#x1ede;" horiz-adv-x="722" 
d="M666 345q0 -152 -89 -259q-91 -107 -217 -107q-62 0 -118.5 28.5t-97.5 78.5q-90 108 -90 259q0 153 90 262q90 108 216 108q81 0 151 -48l31 27h-23l-1 1v79l1 1h79l1 -1v-79v-1l-62 -47q14 -12 40 -40q89 -110 89 -262zM580 361q0 124 -63 207q-63 85 -157 85
q-92 0 -157 -85q-63 -83 -63 -207q0 -136 63 -226q64 -92 157 -92q46 0 87.5 25t69.5 67q63 90 63 226zM456 872q0 -33 -27 -50q-4 -4 -12 -8q-27 -17 -38 -29.5t-11 -29.5v-20h-1h-26v20q0 30 15 56.5t40 39.5q15 7 15 21q0 21 -13 31q-13 8 -44 8q-49 0 -72 -44h-1h-1
l-14 40q33 44 88 44q48 0 75 -21q27 -20 27 -58z" />
    <glyph glyph-name="ohornhookabove" unicode="&#x1edf;" horiz-adv-x="489" 
d="M457 445l-67 -52l3 -3q62 -71 62 -170q0 -96 -62 -163q-61 -67 -149 -67t-149 67q-62 67 -62 163q0 99 62 170q62 70 149 70q67 0 123 -45l33 29h-23l-1 1v79l1 1h79l1 -1v-79zM385 231q0 75 -39 121q-39 48 -102 48t-103 -48q-39 -46 -39 -121q0 -79 39 -129
q40 -50 103 -50t102 50q39 48 39 129zM340 640q0 -33 -27 -50q-4 -4 -12 -8q-27 -17 -38 -29.5t-11 -29.5v-20h-1h-26v20q0 30 15 56.5t40 39.5q15 7 15 21q0 21 -13 31q-13 8 -44 8q-49 0 -72 -44h-1h-1l-14 40q33 44 88 44q48 0 75 -21q27 -20 27 -58z" />
    <glyph glyph-name="Ohorntilde" unicode="&#x1ee0;" horiz-adv-x="722" 
d="M666 345q0 -152 -89 -259q-91 -107 -217 -107q-62 0 -118.5 28.5t-97.5 78.5q-90 108 -90 259q0 153 90 262q90 108 216 108q81 0 151 -48l31 27h-23l-1 1v79l1 1h79l1 -1v-79v-1l-62 -47q14 -12 40 -40q89 -110 89 -262zM580 361q0 124 -63 207q-63 85 -157 85
q-92 0 -157 -85q-63 -83 -63 -207q0 -136 63 -226q64 -92 157 -92q46 0 87.5 25t69.5 67q63 90 63 226zM523 853q-1 -55 -30 -86.5t-65 -31.5q-28 0 -74 33q-36 25 -58 25q-20 0 -29 -17.5t-9 -40.5h-60q1 55 30 86.5t65 31.5q28 0 74 -33q36 -25 58 -25q20 0 29 17.5
t9 40.5h60z" />
    <glyph glyph-name="ohorntilde" unicode="&#x1ee1;" horiz-adv-x="489" 
d="M457 445l-67 -52l3 -3q62 -71 62 -170q0 -96 -62 -163q-61 -67 -149 -67t-149 67q-62 67 -62 163q0 99 62 170q62 70 149 70q67 0 123 -45l33 29h-23l-1 1v79l1 1h79l1 -1v-79zM385 231q0 75 -39 121q-39 48 -102 48t-103 -48q-39 -46 -39 -121q0 -79 39 -129
q40 -50 103 -50t102 50q39 48 39 129zM407 670q-1 -55 -30 -86.5t-65 -31.5q-28 0 -74 33q-36 25 -58 25q-20 0 -29 -17.5t-9 -40.5h-60q1 55 30 86.5t65 31.5q28 0 74 -33q36 -25 58 -25q20 0 29 17.5t9 40.5h60z" />
    <glyph glyph-name="Ohorndotbelow" unicode="&#x1ee2;" horiz-adv-x="722" 
d="M666 345q0 -152 -89 -259q-91 -107 -217 -107q-62 0 -118.5 28.5t-97.5 78.5q-90 108 -90 259q0 153 90 262q90 108 216 108q81 0 151 -48l31 27h-23l-1 1v79l1 1h79l1 -1v-79v-1l-62 -47q14 -12 40 -40q89 -110 89 -262zM580 361q0 124 -63 207q-63 85 -157 85
q-92 0 -157 -85q-63 -83 -63 -207q0 -136 63 -226q64 -92 157 -92q46 0 87.5 25t69.5 67q63 90 63 226zM404 -200h-86v86h86v-86z" />
    <glyph glyph-name="ohorndotbelow" unicode="&#x1ee3;" horiz-adv-x="489" 
d="M457 445l-67 -52l3 -3q62 -71 62 -170q0 -96 -62 -163q-61 -67 -149 -67t-149 67q-62 67 -62 163q0 99 62 170q62 70 149 70q67 0 123 -45l33 29h-23l-1 1v79l1 1h79l1 -1v-79zM385 231q0 75 -39 121q-39 48 -102 48t-103 -48q-39 -46 -39 -121q0 -79 39 -129
q40 -50 103 -50t102 50q39 48 39 129zM288 -200h-86v86h86v-86z" />
    <glyph glyph-name="Udotbelow" unicode="&#x1ee4;" horiz-adv-x="667" 
d="M576 233q0 -107 -71 -180.5t-170 -73.5q-100 0 -172.5 73t-72.5 181v461h86v-462q0 -95 47.5 -146t112.5 -51q66 0 115 51.5t49 145.5v462h76v-461zM376 -200h-86v86h86v-86z" />
    <glyph glyph-name="udotbelow" unicode="&#x1ee5;" horiz-adv-x="502" 
d="M424 0h-74v50q-67 -60 -168 -60q-58 0 -81.5 31t-23.5 90v333h76v-329q0 -37 14 -53.5t63 -16.5q51 0 84.5 29t33.5 84v286h76v-444zM294 -200h-86v86h86v-86z" />
    <glyph glyph-name="Uhookabove" unicode="&#x1ee6;" horiz-adv-x="667" 
d="M576 233q0 -107 -71 -180.5t-170 -73.5q-100 0 -172.5 73t-72.5 181v461h86v-462q0 -95 47.5 -146t112.5 -51q66 0 115 51.5t49 145.5v462h76v-461zM429 872q0 -33 -27 -50q-4 -4 -12 -8q-27 -17 -38 -29.5t-11 -29.5v-20h-1h-26v20q0 30 15 56.5t40 39.5q15 7 15 21
q0 21 -13 31q-13 8 -44 8q-49 0 -72 -44h-1h-1l-14 40q33 44 88 44q48 0 75 -21q27 -20 27 -58z" />
    <glyph glyph-name="uhookabove" unicode="&#x1ee7;" horiz-adv-x="502" 
d="M424 0h-74v50q-67 -60 -168 -60q-58 0 -81.5 31t-23.5 90v333h76v-329q0 -37 14 -53.5t63 -16.5q51 0 84.5 29t33.5 84v286h76v-444zM346 640q0 -33 -27 -50q-4 -4 -12 -8q-27 -17 -38 -29.5t-11 -29.5v-20h-1h-26v20q0 30 15 56.5t40 39.5q15 7 15 21q0 21 -13 31
q-13 8 -44 8q-49 0 -72 -44h-1h-1l-14 40q33 44 88 44q48 0 75 -21q27 -20 27 -58z" />
    <glyph glyph-name="Uhornacute" unicode="&#x1ee8;" horiz-adv-x="667" 
d="M667 695l-1 -1l-96 -70v-393q0 -104 -69 -178q-71 -74 -169 -74q-97 0 -168 74q-69 74 -69 178v463h76v-463q0 -86 44 -141q46 -55 117 -55q73 0 117 55q45 55 45 141v463h76v-32l40 32h-23l-1 1v79l1 1h79l1 -1v-79zM496 867l-197 -122h-89l175 122h111z" />
    <glyph glyph-name="uhornacute" unicode="&#x1ee9;" horiz-adv-x="502" 
d="M521 445l-1 -1l-96 -70v-374h-74v50q-63 -60 -170 -60q-54 0 -79 29q-24 30 -24 93v332h76v-332q0 -40 17 -53q18 -14 67 -14q45 0 78 30.5t33 74.5v294h76v-32l40 32h-24v1v79v1h80l1 -1v-79zM361 694l-146 -167h-60l130 167h76z" />
    <glyph glyph-name="Uhorngrave" unicode="&#x1eea;" horiz-adv-x="667" 
d="M667 695l-1 -1l-96 -70v-393q0 -104 -69 -178q-71 -74 -169 -74q-97 0 -168 74q-69 74 -69 178v463h76v-463q0 -86 44 -141q46 -55 117 -55q73 0 117 55q45 55 45 141v463h76v-32l40 32h-23l-1 1v79l1 1h79l1 -1v-79zM429 745h-89l-197 122h111z" />
    <glyph glyph-name="uhorngrave" unicode="&#x1eeb;" horiz-adv-x="502" 
d="M521 445l-1 -1l-96 -70v-374h-74v50q-63 -60 -170 -60q-54 0 -79 29q-24 30 -24 93v332h76v-332q0 -40 17 -53q18 -14 67 -14q45 0 78 30.5t33 74.5v294h76v-32l40 32h-24v1v79v1h80l1 -1v-79zM320 527h-60l-146 167h76z" />
    <glyph glyph-name="Uhornhookabove" unicode="&#x1eec;" horiz-adv-x="667" 
d="M667 695l-1 -1l-96 -70v-393q0 -104 -69 -178q-71 -74 -169 -74q-97 0 -168 74q-69 74 -69 178v463h76v-463q0 -86 44 -141q46 -55 117 -55q73 0 117 55q45 55 45 141v463h76v-32l40 32h-23l-1 1v79l1 1h79l1 -1v-79zM428 872q0 -33 -27 -50q-4 -4 -12 -8
q-27 -17 -38 -29.5t-11 -29.5v-20h-1h-26v20q0 30 15 56.5t40 39.5q15 7 15 21q0 21 -13 31q-13 8 -44 8q-49 0 -72 -44h-1h-1l-14 40q33 44 88 44q48 0 75 -21q27 -20 27 -58z" />
    <glyph glyph-name="uhornhookabove" unicode="&#x1eed;" horiz-adv-x="502" 
d="M521 445l-1 -1l-96 -70v-374h-74v50q-63 -60 -170 -60q-54 0 -79 29q-24 30 -24 93v332h76v-332q0 -40 17 -53q18 -14 67 -14q45 0 78 30.5t33 74.5v294h76v-32l40 32h-24v1v79v1h80l1 -1v-79zM346 640q0 -33 -27 -50q-4 -4 -12 -8q-27 -17 -38 -29.5t-11 -29.5v-20h-1
h-26v20q0 30 15 56.5t40 39.5q15 7 15 21q0 21 -13 31q-13 8 -44 8q-49 0 -72 -44h-1h-1l-14 40q33 44 88 44q48 0 75 -21q27 -20 27 -58z" />
    <glyph glyph-name="Uhorntilde" unicode="&#x1eee;" horiz-adv-x="667" 
d="M667 695l-1 -1l-96 -70v-393q0 -104 -69 -178q-71 -74 -169 -74q-97 0 -168 74q-69 74 -69 178v463h76v-463q0 -86 44 -141q46 -55 117 -55q73 0 117 55q45 55 45 141v463h76v-32l40 32h-23l-1 1v79l1 1h79l1 -1v-79zM495 853q-1 -55 -30 -86.5t-65 -31.5q-28 0 -74 33
q-36 25 -58 25q-20 0 -29 -17.5t-9 -40.5h-60q1 55 30 86.5t65 31.5q28 0 74 -33q36 -25 58 -25q20 0 29 17.5t9 40.5h60z" />
    <glyph glyph-name="uhorntilde" unicode="&#x1eef;" horiz-adv-x="502" 
d="M521 445l-1 -1l-96 -70v-374h-74v50q-63 -60 -170 -60q-54 0 -79 29q-24 30 -24 93v332h76v-332q0 -40 17 -53q18 -14 67 -14q45 0 78 30.5t33 74.5v294h76v-32l40 32h-24v1v79v1h80l1 -1v-79zM413 670q-1 -55 -30 -86.5t-65 -31.5q-28 0 -74 33q-36 25 -58 25
q-20 0 -29 -17.5t-9 -40.5h-60q1 55 30 86.5t65 31.5q28 0 74 -33q36 -25 58 -25q20 0 29 17.5t9 40.5h60z" />
    <glyph glyph-name="Uhorndotbelow" unicode="&#x1ef0;" horiz-adv-x="667" 
d="M667 695l-1 -1l-96 -70v-393q0 -104 -69 -178q-71 -74 -169 -74q-97 0 -168 74q-69 74 -69 178v463h76v-463q0 -86 44 -141q46 -55 117 -55q73 0 117 55q45 55 45 141v463h76v-32l40 32h-23l-1 1v79l1 1h79l1 -1v-79zM376 -200h-86v86h86v-86z" />
    <glyph glyph-name="uhorndotbelow" unicode="&#x1ef1;" horiz-adv-x="502" 
d="M521 445l-1 -1l-96 -70v-374h-74v50q-63 -60 -170 -60q-54 0 -79 29q-24 30 -24 93v332h76v-332q0 -40 17 -53q18 -14 67 -14q45 0 78 30.5t33 74.5v294h76v-32l40 32h-24v1v79v1h80l1 -1v-79zM294 -200h-86v86h86v-86z" />
    <glyph glyph-name="Ygrave" unicode="&#x1ef2;" horiz-adv-x="647" 
d="M643 694l-278 -416v-278h-84v278l-278 416h100l170 -255q32 -49 57 -90q23 39 55 86l172 259h86zM420 745h-89l-197 122h111z" />
    <glyph glyph-name="ygrave" unicode="&#x1ef3;" horiz-adv-x="448" 
d="M433 444l-209 -538q-15 -39 -31.5 -63.5t-33.5 -33.5t-26.5 -11t-22.5 -2q-23 0 -71 8l-6 65q39 -15 77 -15q16 0 28 10.5t27 44.5l35 91l-186 444h79l71 -175q61 -153 66 -211h1q4 70 127 386h75zM293 527h-60l-146 167h76z" />
    <glyph glyph-name="Ydotbelow" unicode="&#x1ef4;" horiz-adv-x="647" 
d="M643 694l-278 -416v-278h-84v278l-278 416h100l170 -255q32 -49 57 -90q23 39 55 86l172 259h86zM367 -200h-86v86h86v-86z" />
    <glyph glyph-name="ydotbelow" unicode="&#x1ef5;" horiz-adv-x="448" 
d="M433 444l-209 -538q-15 -39 -31.5 -63.5t-33.5 -33.5t-26.5 -11t-22.5 -2q-23 0 -71 8l-6 65q39 -15 77 -15q16 0 28 10.5t27 44.5l35 91l-186 444h79l71 -175q61 -153 66 -211h1q4 70 127 386h75zM379 -200h-86v86h86v-86z" />
    <glyph glyph-name="Yhookabove" unicode="&#x1ef6;" horiz-adv-x="647" 
d="M643 694l-278 -416v-278h-84v278l-278 416h100l170 -255q32 -49 57 -90q23 39 55 86l172 259h86zM419 872q0 -33 -27 -50q-4 -4 -12 -8q-27 -17 -38 -29.5t-11 -29.5v-20h-1h-26v20q0 30 15 56.5t40 39.5q15 7 15 21q0 21 -13 31q-13 8 -44 8q-49 0 -72 -44h-1h-1l-14 40
q33 44 88 44q48 0 75 -21q27 -20 27 -58z" />
    <glyph glyph-name="yhookabove" unicode="&#x1ef7;" horiz-adv-x="448" 
d="M433 444l-209 -538q-15 -39 -31.5 -63.5t-33.5 -33.5t-26.5 -11t-22.5 -2q-23 0 -71 8l-6 65q39 -15 77 -15q16 0 28 10.5t27 44.5l35 91l-186 444h79l71 -175q61 -153 66 -211h1q4 70 127 386h75zM319 640q0 -33 -27 -50q-4 -4 -12 -8q-27 -17 -38 -29.5t-11 -29.5v-20
h-1h-26v20q0 30 15 56.5t40 39.5q15 7 15 21q0 21 -13 31q-13 8 -44 8q-49 0 -72 -44h-1h-1l-14 40q33 44 88 44q48 0 75 -21q27 -20 27 -58z" />
    <glyph glyph-name="Ytilde" unicode="&#x1ef8;" horiz-adv-x="647" 
d="M643 694l-278 -416v-278h-84v278l-278 416h100l170 -255q32 -49 57 -90q23 39 55 86l172 259h86zM486 853q-1 -55 -30 -86.5t-65 -31.5q-28 0 -74 33q-36 25 -58 25q-20 0 -29 -17.5t-9 -40.5h-60q1 55 30 86.5t65 31.5q28 0 74 -33q36 -25 58 -25q20 0 29 17.5t9 40.5
h60z" />
    <glyph glyph-name="ytilde" unicode="&#x1ef9;" horiz-adv-x="448" 
d="M433 444l-209 -538q-15 -39 -31.5 -63.5t-33.5 -33.5t-26.5 -11t-22.5 -2q-23 0 -71 8l-6 65q39 -15 77 -15q16 0 28 10.5t27 44.5l35 91l-186 444h79l71 -175q61 -153 66 -211h1q4 70 127 386h75zM386 670q-1 -55 -30 -86.5t-65 -31.5q-28 0 -74 33q-36 25 -58 25
q-20 0 -29 -17.5t-9 -40.5h-60q1 55 30 86.5t65 31.5q28 0 74 -33q36 -25 58 -25q20 0 29 17.5t9 40.5h60z" />
    <glyph glyph-name="uni2010" unicode="&#x2010;" horiz-adv-x="326" 
d="M293 193h-260v58h260v-58z" />
    <glyph glyph-name="uni2011" unicode="&#x2011;" horiz-adv-x="326" 
d="M293 193h-260v58h260v-58z" />
    <glyph glyph-name="endash" unicode="&#x2013;" 
d="M489 244h-489v60h489v-60z" />
    <glyph glyph-name="emdash" unicode="&#x2014;" horiz-adv-x="979" 
d="M978 244h-978v60h978v-60z" />
    <glyph glyph-name="dblverticalbar" unicode="&#x2016;" horiz-adv-x="386" 
d="M159 -217q0 -33 -20 -33t-20 33v934q0 33 20 33t20 -33v-934zM267 -217q0 -33 -20 -33t-20 33v934q0 33 20 33t20 -33v-934z" />
    <glyph glyph-name="quoteleft" unicode="&#x2018;" horiz-adv-x="272" 
d="M176 488h-81v80l41 126h40l-25 -125h25v-81z" />
    <glyph glyph-name="quoteright" unicode="&#x2019;" horiz-adv-x="272" 
d="M176 614l-41 -126h-40l25 125h-25v81h81v-80z" />
    <glyph glyph-name="quotesinglbase" unicode="&#x201a;" horiz-adv-x="272" 
d="M177 1l-41 -126h-40l25 125h-25v81h81v-80z" />
    <glyph glyph-name="quotedblleft" unicode="&#x201c;" horiz-adv-x="462" 
d="M176 488h-81v80l41 126h40l-25 -125h25v-81zM366 488h-81v80l41 126h40l-25 -125h25v-81z" />
    <glyph glyph-name="quotedblright" unicode="&#x201d;" horiz-adv-x="462" 
d="M177 614l-41 -126h-40l25 125h-25v81h81v-80zM367 614l-41 -126h-40l25 125h-25v81h81v-80z" />
    <glyph glyph-name="quotedblbase" unicode="&#x201e;" horiz-adv-x="462" 
d="M177 1l-41 -126h-40l25 125h-25v81h81v-80zM367 1l-41 -126h-40l25 125h-25v81h81v-80z" />
    <glyph glyph-name="dagger" unicode="&#x2020;" horiz-adv-x="444" 
d="M387 430q0 -5 -1.5 -11t-10.5 -14t-25 -8q-25 0 -69 14q-32 8 -50 10q3 -38 10 -71q14 -71 14 -132q0 -120 -9 -262q-4 -93 -11 -154q-1 -8 -2 -10.5t-3.5 -5t-8.5 -2.5q-12 0 -13 20q-20 211 -20 414q0 61 14 133q7 37 10 70q-26 -3 -48 -10q-49 -14 -71 -14
q-37 0 -37 34q0 5 1.5 11t10.5 14t25 8q25 0 69 -14q32 -8 50 -10q-2 45 -11 107q-13 78 -13 117q0 41 34 41q33 0 33 -41q0 -30 -11 -111q-10 -62 -13 -113q26 3 48 10q49 14 71 14q37 0 37 -34z" />
    <glyph glyph-name="daggerdbl" unicode="&#x2021;" horiz-adv-x="444" 
d="M387 477q0 -5 -1.5 -11t-10.5 -14t-25 -8q-25 0 -69 14q-32 8 -50 10q1 -24 13 -95q11 -55 11 -84q0 -39 -34 -39q-33 0 -33 39q0 29 13 101q10 46 11 78q-26 -3 -48 -10q-49 -14 -71 -14q-37 0 -37 34q0 5 1.5 11t10.5 14t25 8q25 0 69 -14q32 -8 50 -10q-1 24 -13 95
q-11 55 -11 84q0 39 33 39q34 0 34 -39q0 -30 -13 -101q-10 -46 -11 -78q26 3 48 10q49 14 71 14q37 0 37 -34zM387 22q0 -13 -8.5 -23t-25.5 -10q-23 0 -56 9q-44 12 -66 14q3 -47 10 -72q14 -79 14 -106q0 -39 -34 -39q-33 0 -33 39q0 28 11 84q11 66 13 94
q-23 -3 -63 -13q-27 -10 -59 -10q-17 0 -25.5 10t-8.5 23q0 12 8.5 22.5t25.5 10.5q24 0 56 -9q44 -12 66 -14q-3 47 -10 72q-14 79 -14 106q0 39 34 39q33 0 33 -39q0 -28 -11 -84q-11 -66 -13 -94q23 2 55 12q43 11 68 11q15 0 24 -10t9 -23z" />
    <glyph glyph-name="bullet" unicode="&#x2022;" horiz-adv-x="762" 
d="M521 128h-280v280h280v-280z" />
    <glyph glyph-name="ellipsis" unicode="&#x2026;" horiz-adv-x="612" 
d="M177 0h-81v81h81v-81zM347 0h-81v81h81v-81zM517 0h-81v81h81v-81z" />
    <glyph glyph-name="perthousand" unicode="&#x2030;" horiz-adv-x="1135" 
d="M1073 145q0 -85 -40 -143t-95 -58q-54 0 -95.5 57t-41.5 145q0 86 41.5 143.5t95.5 57.5t94.5 -57.5t40.5 -144.5zM334 548q0 -85 -40 -143t-95 -58q-54 0 -95.5 57t-41.5 145q0 86 41.5 143.5t95.5 57.5t94.5 -57.5t40.5 -144.5zM731 145q0 -85 -40 -143t-95 -58
q-54 0 -95.5 57t-41.5 145q0 86 41.5 143.5t95.5 57.5t94.5 -57.5t40.5 -144.5zM615 731q0 -6 -7 -18l-426 -752q-9 -17 -20 -17q-8 0 -13.5 5.5t-5.5 13.5q0 6 7 18l425 751q10 18 22 18q7 0 12.5 -5t5.5 -14zM1003 146q0 56 -18.5 98.5t-46.5 42.5q-7 0 -13.5 -2t-16 -11
t-16 -23t-11.5 -41.5t-5 -64.5q0 -44 6.5 -74t17 -43.5t20 -18.5t18.5 -5q28 0 46.5 42t18.5 100zM264 549q0 56 -18.5 98.5t-46.5 42.5q-7 0 -13.5 -2t-16 -11t-16 -23t-11.5 -41.5t-5 -64.5q0 -44 6.5 -74t17 -43.5t20 -18.5t18.5 -5q28 0 46.5 42t18.5 100zM661 146
q0 56 -18.5 98.5t-46.5 42.5q-7 0 -13.5 -2t-16 -11t-16 -23t-11.5 -41.5t-5 -64.5q0 -44 6.5 -74t17 -43.5t20 -18.5t18.5 -5q28 0 46.5 42t18.5 100z" />
    <glyph glyph-name="permyriad" unicode="&#x2031;" horiz-adv-x="1443" 
d="M1407 145q0 -85 -40 -143t-95 -58q-54 0 -95.5 57t-41.5 145q0 86 41.5 143.5t95.5 57.5t94.5 -57.5t40.5 -144.5zM1065 145q0 -85 -40 -143t-95 -58q-54 0 -95.5 57t-41.5 145q0 86 41.5 143.5t95.5 57.5t94.5 -57.5t40.5 -144.5zM326 548q0 -85 -40 -143t-95 -58
q-54 0 -95.5 57t-41.5 145q0 86 41.5 143.5t95.5 57.5t94.5 -57.5t40.5 -144.5zM723 145q0 -85 -40 -143t-95 -58q-54 0 -95.5 57t-41.5 145q0 86 41.5 143.5t95.5 57.5t94.5 -57.5t40.5 -144.5zM607 731q0 -6 -7 -18l-426 -752q-9 -17 -20 -17q-8 0 -13.5 5.5t-5.5 13.5
q0 6 7 18l425 751q10 18 22 18q7 0 12.5 -5t5.5 -14zM1337 146q0 56 -18.5 98.5t-46.5 42.5q-7 0 -13.5 -2t-16 -11t-16 -23t-11.5 -41.5t-5 -64.5q0 -44 6.5 -74t17 -43.5t20 -18.5t18.5 -5q28 0 46.5 42t18.5 100zM995 146q0 56 -18.5 98.5t-46.5 42.5q-7 0 -13.5 -2
t-16 -11t-16 -23t-11.5 -41.5t-5 -64.5q0 -44 6.5 -74t17 -43.5t20 -18.5t18.5 -5q28 0 46.5 42t18.5 100zM256 549q0 56 -18.5 98.5t-46.5 42.5q-7 0 -13.5 -2t-16 -11t-16 -23t-11.5 -41.5t-5 -64.5q0 -44 6.5 -74t17 -43.5t20 -18.5t18.5 -5q28 0 46.5 42t18.5 100z
M653 146q0 56 -18.5 98.5t-46.5 42.5q-7 0 -13.5 -2t-16 -11t-16 -23t-11.5 -41.5t-5 -64.5q0 -44 6.5 -74t17 -43.5t20 -18.5t18.5 -5q28 0 46.5 42t18.5 100z" />
    <glyph glyph-name="guilsinglleft" unicode="&#x2039;" horiz-adv-x="327" 
d="M272 0h-60l-103 225l103 224h60l-87 -224z" />
    <glyph glyph-name="guilsinglright" unicode="&#x203a;" horiz-adv-x="327" 
d="M218 225l-103 -225h-60l87 225l-87 224h60z" />
    <glyph glyph-name="referencemark" unicode="&#x203b;" horiz-adv-x="762" 
d="M612 480q12 -13 -10 -35l-195 -195l195 -196q22 -22 9 -36q-13 -12 -35 10l-195 195l-196 -195q-22 -22 -36 -9q-12 13 10 35l195 196l-195 195q-22 22 -9 36q13 12 35 -10l196 -195l195 195q22 22 36 9zM416 451q0 -14 -10.5 -24.5t-24.5 -10.5q-15 0 -25 10.5t-10 24.5
t10 24.5t25 10.5q14 0 24.5 -10.5t10.5 -24.5zM214 250q0 -15 -10.5 -25t-24.5 -10t-24.5 10t-10.5 25q0 14 10.5 24.5t24.5 10.5t24.5 -10.5t10.5 -24.5zM416 48q0 -14 -10.5 -24.5t-24.5 -10.5q-15 0 -25 10.5t-10 24.5t10 24.5t25 10.5q14 0 24.5 -10.5t10.5 -24.5z
M617 250q0 -15 -10.5 -25t-24.5 -10t-24.5 10t-10.5 25q0 14 10.5 24.5t24.5 10.5t24.5 -10.5t10.5 -24.5z" />
    <glyph glyph-name="interrobang" unicode="&#x203d;" horiz-adv-x="462" 
d="M272 0h-81v81h81v-81zM394 549q0 -73 -43 -114q-87 -89 -87 -212v-50h-65v53q0 29 5 64l-4 352q-73 -8 -137 -53l-22 62q74 45 158 52v22h65l-1 -23q67 -8 99 -50t32 -103zM318 551q0 77 -55 90l-3 -209q12 18 31 41q27 33 27 78z" />
    <glyph glyph-name="uni203F" unicode="&#x203f;" horiz-adv-x="581" 
d="M505 -67q-1 -64 -87 -103q-56 -24 -131 -24q-46 0 -91.5 12t-82 42.5t-37.5 72.5h77q2 -33 45 -48.5t89 -15.5q14 0 31.5 2t44.5 7.5t45.5 19.5t19.5 35h77z" />
    <glyph glyph-name="uni2040" unicode="&#x2040;" horiz-adv-x="581" 
d="M505 571h-77q-2 33 -45 48.5t-89 15.5q-14 0 -31.5 -2t-44.5 -7.5t-45.5 -19.5t-19.5 -35h-77q1 64 87 103q56 24 131 24q46 0 91.5 -12t82 -42.5t37.5 -72.5z" />
    <glyph glyph-name="fraction" unicode="&#x2044;" horiz-adv-x="542" 
d="M488 674l-392 -654h-42l392 654h42z" />
    <glyph glyph-name="quillbracketleft" unicode="&#x2045;" horiz-adv-x="354" 
d="M302 -308q-45 0 -89.5 13t-83 44t-52.5 75q-7 24 -7 63v209q0 62 45.5 108t106.5 46v2q-20 0 -54 12q-47 19 -73 57t-26 89q0 6 0.5 17t0.5 17v169q0 46 12 67q43 71 220 71v-60q-8 0 -23 0.5t-23 0.5q-109 0 -109 -72v-177q0 -5 -0.5 -17t-0.5 -17q0 -63 46.5 -95.5
t108.5 -32.5v-60q-63 0 -108.5 -33t-45.5 -97v-219q0 -60 37 -96q26 -24 74 -24h44v-60z" />
    <glyph glyph-name="quillbracketright" unicode="&#x2046;" horiz-adv-x="354" 
d="M283 -111q0 -47 -13 -68q-42 -70 -218 -70v60q7 0 21.5 -0.5t21.5 -0.5q111 0 111 72v177q0 6 0.5 18t0.5 18q0 60 -47.5 93t-108.5 33v60q73 0 114.5 36.5t41.5 89.5q0 6 -0.5 18t-0.5 18v177q0 31 -19.5 48t-40.5 20.5t-51 3.5q-7 0 -21.5 -0.5t-21.5 -0.5v60
q176 0 218 -70q13 -21 13 -68v-204q0 -22 -2 -33q-7 -50 -52.5 -87t-97.5 -37v-2q23 0 55 -13q97 -39 97 -145v-203z" />
    <glyph glyph-name="discount" unicode="&#x2052;" horiz-adv-x="489" 
d="M433 731q0 -5 -1 -8q-7 -16 -81 -167l-62 -130l-186 -386q-14 -36 -28 -39h-2q-7 0 -12.5 5t-6.5 12q0 6 4 14l60 126l215 447q7 13 25 54t31 64.5t22 26.5l6 1q16 0 16 -20zM416 19q-3 -18 -27 -18h-63q-9 0 -13.5 1t-9.5 6t-5 16v79q1 11 14 15q4 1 12 1h67
q25 0 25 -27v-73zM191 652q-2 -18 -27 -18h-67q-24 0 -24 22v70q0 22 17 25q4 1 12 1h64q25 0 25 -28v-72z" />
    <glyph glyph-name="uni2054" unicode="&#x2054;" horiz-adv-x="581" 
d="M505 -194h-77q-2 33 -45 48.5t-89 15.5q-14 0 -31.5 -2t-44.5 -7.5t-45.5 -19.5t-19.5 -35h-77q1 64 87 103q56 24 131 24q46 0 91.5 -12t82 -42.5t37.5 -72.5z" />
    <glyph glyph-name="colonmonetary" unicode="&#x20a1;" horiz-adv-x="626" 
d="M576 35q-53 -33 -91.5 -44.5t-97.5 -11.5h-12v-72h-62v81q-111 29 -179 130.5t-68 228.5q0 128 68.5 229.5t178.5 129.5v81h62v-72h11q89 0 179 -35l-15 -81q-73 54 -166 54h-9v-612h13q59 0 96 13.5t86 49.5zM313 55v584q-72 -29 -116.5 -109.5t-44.5 -182.5
q0 -98 43.5 -180t117.5 -112z" />
    <glyph glyph-name="lira" unicode="&#x20a4;" horiz-adv-x="647" 
d="M582 148q0 -69 -37.5 -119t-97.5 -50q-43 0 -103 16q-41 10 -62.5 14.5t-56 8.5t-57 -2.5t-35.5 -22.5l-60 48q98 123 110 212h-118v62h117l-3 12q-5 16 -6 19l-12 33h-96v62h76q-20 97 37 175t151 78q79 0 134 -59t55 -142h-76q0 51 -32.5 88t-80.5 37q-59 0 -93 -51
t-20 -114l3 -12h169v-62h-146l3 -8q6 -16 8 -25l6 -31h129v-62h-129v-6q-9 -73 -55 -152q57 0 159 -27q50 -13 84 -13q29 0 44 27.5t15 65.5h76z" />
    <glyph glyph-name="naira" unicode="&#x20a6;" horiz-adv-x="686" 
d="M635 253h-41v-253h-123l-124 253h-179v-253h-77v253h-41v62h41v64h-41v62h41v253h123l124 -253h179v253h77v-253h41v-62h-41v-64h41v-62zM255 441l-5 11l-81 168h-1v-179h87zM317 315l-31 64h-118v-64h149zM517 315v64h-149l31 -64h118zM517 74v179h-87l5 -11l81 -168h1z
" />
    <glyph glyph-name="won" unicode="&#x20a9;" horiz-adv-x="919" 
d="M904 253h-124l-72 -253h-88l-70 253h-187l-70 -253h-83l-72 253h-124v62h107l-18 64h-89v62h71l-71 253h85l70 -253h181l70 253h85l69 -253h187l70 253h73l-71 -253h71v-62h-89l-18 -64h107v-62zM533 315l-17 64h-118l-11 -39l-7 -25h153zM333 379h-147l17 -64h112z
M299 253h-79l6 -23q31 -130 33 -153h1q5 42 39 176zM744 379h-153l18 -64h117l14 51zM709 253h-83q33 -116 41 -177h1q4 40 32 142zM499 441q-16 60 -26.5 104.5t-12.5 58.5l-3 15h-1q-5 -43 -41 -178h84z" />
    <glyph glyph-name="dong" unicode="&#x20ab;" horiz-adv-x="502" 
d="M474 546h-72v-511h-72v48q-61 -58 -136 -58q-67 0 -114 64.5t-47 156.5t48.5 156t116.5 64q74 0 134 -49v129h-141v59h141v89h70v-89h72v-59zM474 -62h-441v62h441v-62zM330 147v212q-34 50 -89 50q-51 0 -93.5 -39.5t-42.5 -124.5q0 -81 38.5 -122t88.5 -41q62 0 98 65z
" />
    <glyph glyph-name="Euro" unicode="&#x20ac;" horiz-adv-x="586" 
d="M537 35q-39 -34 -68.5 -45t-80.5 -11q-110 0 -190 108q-53 73 -70 168h-79l10 56h62q-1 12 -1 36t1 36h-72l10 56h69q17 94 70 169q79 107 190 107q74 0 138 -34l-15 -83q-49 55 -123 55q-75 0 -129 -89q-32 -55 -45 -125h269l-10 -56h-266q-1 -12 -1 -36t1 -36h254
l-10 -56h-237q13 -71 45 -124q53 -90 129 -90q51 0 79.5 13t63.5 51z" />
    <glyph glyph-name="peso" unicode="&#x20b1;" horiz-adv-x="623" 
d="M568 492q0 -81 -66.5 -142t-166.5 -61h-158v-84h134v-62h-134v-143h-86v143h-71v62h71v489h244q100 0 166.5 -60t66.5 -142zM489 493q0 60 -46 102.5t-129 42.5h-139v-291h139q82 0 128.5 42t46.5 104z" />
    <glyph glyph-name="centigrade" unicode="&#x2103;" horiz-adv-x="843" 
d="M793 43q0 -6 -8 -12l-15 -9q-71 -42 -170 -42q-72 0 -133 32.5t-100.5 86t-61 118t-21.5 131.5q0 94 39 177.5t115 137t171 53.5q81 0 173 -35l-14 -82q-6 2 -21 13q-65 41 -150 41q-8 0 -24 -2q-65 -10 -112.5 -59.5t-69 -113t-21.5 -130.5q0 -49 14 -100.5t41 -98
t72 -76.5t101 -30q75 0 119 20q14 7 37 22t33 21q0 -9 3 -30.5t3 -32.5zM218 586q0 -41 -27.5 -71.5t-69.5 -36.5h-9q-49 0 -80 32.5t-31 75.5q0 41 27.5 72t69.5 37h9q49 0 80 -33t31 -76zM181 586v7q-4 26 -22.5 44.5t-44.5 20.5h-5q-29 0 -50 -21t-21 -50v-7
q4 -26 22.5 -44.5t44.5 -20.5h5q28 0 49.5 21.5t21.5 49.5z" />
    <glyph glyph-name="numero" unicode="&#x2116;" horiz-adv-x="794" 
d="M720 405q0 -48 -26 -90.5t-72 -42.5t-72 42t-26 91q0 55 25.5 98.5t72.5 43.5q46 0 72 -45.5t26 -96.5zM718 164h-192v58h192v-58zM442 1h-114l-146 545q-5 18 -10 67v-612h-77v694h114l138 -518q15 -55 18 -104v622h77v-694zM660 406q0 81 -38 81q-39 0 -39 -81
q0 -28 9.5 -49t29.5 -21q18 0 28 22t10 48z" />
    <glyph glyph-name="published" unicode="&#x2117;" horiz-adv-x="694" 
d="M694 347q0 -144 -101.5 -245.5t-245.5 -101.5t-245.5 101.5t-101.5 245.5t101.5 245.5t245.5 101.5t245.5 -101.5t101.5 -245.5zM659 347q0 130 -91 221t-221 91q-129 0 -220.5 -91t-91.5 -221q0 -129 91.5 -220.5t220.5 -91.5q130 0 221 91.5t91 220.5zM521 441
q0 -52 -43 -91.5t-108 -39.5h-103v-188h-55v450h158q65 0 108 -39t43 -92zM470 442q0 39 -30 66.5t-84 27.5h-90v-189h90q53 0 83.5 27.5t30.5 67.5z" />
    <glyph glyph-name="recipe" unicode="&#x211e;" horiz-adv-x="630" 
d="M602 0h-86l-45 77l-73 -69l-43 46l84 78l-108 185h-156v-317h-84v694h236q104 0 176 -55.5t72 -131.5q0 -58 -44.5 -108.5t-123.5 -72.5l86 -144l67 63l42 -45l-77 -72zM496 507q0 54 -47 92.5t-133 38.5h-141v-261h141q88 0 134 39t46 91z" />
    <glyph glyph-name="servicemark" unicode="&#x2120;" horiz-adv-x="836" 
d="M293 379q0 -52 -37.5 -89t-94.5 -37q-72 0 -135 41l9 49q55 -50 126 -50q38 0 62 23.5t24 56.5q0 30 -19 51q-14 14 -26 19.5t-53 15.5q-32 8 -49.5 16t-38.5 29q-29 29 -29 73q0 47 37.5 82t95.5 35q52 0 108 -29l-9 -49q-43 39 -100 39q-38 0 -61.5 -21.5t-23.5 -50.5
q0 -26 24 -50q12 -12 69 -26q25 -7 36 -11t26 -12.5t28 -22.5q31 -36 31 -82zM746 265h-46v371h-1q-13 -55 -130 -358h-43q-118 308 -129 358v-371h-47v417h69l91 -246q9 -21 20 -58q16 -47 18 -56q5 23 61 175l68 185h69v-417z" />
    <glyph glyph-name="trademark" unicode="&#x2122;" horiz-adv-x="910" 
d="M379 657h-78h-22h-53v-376h-51v376h-53h-22h-79v37h358v-37zM832 281h-47v371q-17 -70 -130 -358h-44q-4 11 -27.5 73.5t-42.5 114t-37 103.5t-21 66h-1v-370h-46v416h69l91 -245q1 -4 20 -58q17 -51 18 -56q5 23 61 175l68 184h69v-416z" />
    <glyph glyph-name="ohm" unicode="&#x2126;" horiz-adv-x="707" 
d="M662 0h-238q1 54 17.5 104t52.5 124q37 78 54.5 130t17.5 103q0 84 -61 139t-152 55t-152 -55t-61 -139q0 -38 12.5 -83.5t25.5 -75t38 -80.5q36 -76 51 -125t15 -97h-238v68h82q6 0 18 -0.5t18 -0.5h51q-15 58 -70 155q-32 57 -46 84.5t-28.5 72t-14.5 83.5
q0 103 86.5 178t212.5 75t212.5 -74.5t86.5 -178.5q0 -39 -14 -83t-28 -71.5t-43 -77.5q-61 -108 -74 -163h51q6 0 18 0.5t18 0.5h82v-68z" />
    <glyph glyph-name="uni2127" unicode="&#x2127;" horiz-adv-x="707" 
d="M664 626h-82q-6 0 -18 0.5t-18 0.5h-51q15 -58 70 -155q32 -57 46 -84.5t28.5 -72t14.5 -83.5q0 -103 -86.5 -178t-212.5 -75t-212.5 74.5t-86.5 178.5q0 39 14 83t28 71.5t43 77.5q61 108 74 163h-51q-6 0 -18 -0.5t-18 -0.5h-82v68h238q-1 -54 -17.5 -104t-52.5 -124
q-37 -78 -54.5 -130t-17.5 -103q0 -84 61 -139t152 -55t152 55t61 139q0 38 -12.5 83.5t-25.5 75t-38 80.5q-36 76 -51 125t-15 97h238v-68z" />
    <glyph glyph-name="estimated" unicode="&#x212e;" horiz-adv-x="655" 
d="M627 362h-517v-35q8 -111 74 -190t160 -86h13q96 0 192 31q11 4 33 13t33 13q0 -8 3 -28t3 -30q0 -8 -20 -15q-124 -44 -250 -44q-17 0 -26 1q-129 17 -212 116t-86 229v8q0 90 36.5 172.5t110.5 137.5t170 55q119 0 192 -73q91 -90 91 -275zM549 417q-11 111 -62 169
q-55 64 -144 64q-92 0 -149 -68t-79 -165h434z" />
    <glyph glyph-name="uni2190" unicode="&#x2190;" horiz-adv-x="979" 
d="M924 251q0 -19 -26 -19h-748q115 -105 140 -244h-29q-10 0 -10 11l-6 24q-20 74 -71 135t-120 92v1q69 31 120 92t71 135l6 24q0 11 10 11h29q-25 -139 -140 -244h746q27 0 28 -18z" />
    <glyph glyph-name="uni2191" unicode="&#x2191;" 
d="M462 426q-128 29 -199 140v-742q0 -12 -9.5 -17t-18.5 0t-9 17v742q-72 -111 -199 -140v37q85 20 144.5 83t72.5 148q14 -85 73.5 -148t144.5 -83v-37z" />
    <glyph glyph-name="uni2192" unicode="&#x2192;" horiz-adv-x="979" 
d="M924 250q-69 -31 -120 -92t-71 -135l-6 -24q0 -11 -10 -11h-29q25 139 140 244h-746q-27 0 -28 18q0 19 26 19h748q-115 105 -140 244h29q10 0 10 -12q30 -138 145 -220q8 -5 26 -15t26 -16z" />
    <glyph glyph-name="uni2193" unicode="&#x2193;" 
d="M462 37q-85 -20 -144.5 -83t-73.5 -148q-13 85 -72.5 148t-144.5 83v37q127 -29 199 -140v742q0 12 9 17t18.5 0t9.5 -17v-742q71 111 199 140v-37z" />
    <glyph glyph-name="minus" unicode="&#x2212;" horiz-adv-x="762" 
d="M707 250q0 -18 -32 -18h-589q-32 0 -32 19q0 18 32 18h589q32 0 32 -19z" />
    <glyph glyph-name="fraction.alt" unicode="&#x2215;" horiz-adv-x="0" 
d="M217 674l-392 -654h-42l392 654h42z" />
    <glyph glyph-name="asterisk.math" unicode="&#x2217;" horiz-adv-x="489" 
d="M425 159q0 -16 -10.5 -25.5t-26.5 -9.5q-7 0 -13 3.5t-15 10t-11 8.5q-68 49 -79 57l5 -91q3 -45 3 -47q0 -16 -10 -26t-24 -10q-16 0 -25 10.5t-9 23.5q0 17 8 140q-11 -8 -79 -57q-2 -2 -11 -8.5t-15 -10t-13 -3.5q-16 0 -26.5 9.5t-10.5 25.5q0 21 25 33l73 40
q4 2 10.5 6t12 7t10.5 5v2q-5 2 -10.5 5t-12 7t-10.5 6l-73 40q-25 12 -25 33q0 16 10.5 25.5t26.5 9.5q7 0 13 -3.5t15 -10t11 -8.5q68 -49 79 -57l-5 91q-3 45 -3 47q0 16 10 26t24 10q16 0 25 -10.5t9 -23.5q0 -17 -8 -140q11 8 79 57q2 2 11 8.5t15 10t13 3.5
q16 0 26.5 -9.5t10.5 -25.5q0 -21 -25 -33l-73 -40q-4 -2 -10.5 -6t-12 -7t-10.5 -5v-2q5 -2 10.5 -5t12 -7t10.5 -6l73 -40q25 -12 25 -33z" />
    <glyph glyph-name="radical" unicode="&#x221a;" horiz-adv-x="462" 
d="M509 748q0 -18 -28 -18h-75q-4 0 -6.5 -2t-3.5 -4.5t-2 -7t-2 -6.5l-45 -183q-17 -68 -64.5 -269t-77.5 -310q-1 -3 -2.5 -13.5t-3 -15t-5 -11.5t-9.5 -10t-14 -3q-15 0 -15 17l-34 176q-2 8 -6 30t-7 33l-45 -81l-31 30l-10 13l122 217l50 -262h2q2 14 10 42l130 530
q2 9 6 30.5t7 35t9 29.5t15 24t21 8h86q28 0 28 -19z" />
    <glyph glyph-name="infinity" unicode="&#x221e;" horiz-adv-x="979" 
d="M449 213l-45 60q-31 43 -49.5 65t-53 44.5t-70.5 22.5q-56 0 -86.5 -54t-30.5 -129q0 -79 29 -135.5t87 -56.5q122 0 219 183zM865 222q0 79 -29 135.5t-87 56.5q-122 0 -219 -183l45 -60q31 -43 49.5 -65t53 -44.5t70.5 -22.5q56 0 86.5 54t30.5 129zM925 222
q0 -99 -59.5 -171t-148.5 -72q-59 0 -106.5 39t-97.5 107l-22 30q-100 -179 -228 -179q-90 0 -149.5 73t-59.5 173q0 99 59.5 171t148.5 72q59 0 106.5 -39t97.5 -107l22 -30q100 179 228 179q90 0 149.5 -73t59.5 -173z" />
    <glyph glyph-name="anglearc" unicode="&#x2222;" horiz-adv-x="762" 
d="M707 18q0 -10 -8 -15t-16 -2l-138 52q-30 -71 -73 -123q-7 -7 -14 -7q-8 0 -13 5.5t-5 12.5t4 11q43 55 67 114l-445 167q-12 5 -12 17t12 17l445 167q-24 59 -67 114q-4 4 -4 11t5 12.5t13 5.5q7 0 14 -7q43 -52 73 -123l138 52q8 3 16 -2t8 -15q0 -12 -12 -17l-138 -52
q27 -78 27 -163t-27 -163l138 -52q12 -5 12 -17zM548 250q0 78 -24 151l-401 -151l401 -151q24 73 24 151z" />
    <glyph glyph-name="diameter" unicode="&#x2300;" horiz-adv-x="762" 
d="M707 558q0 -6 -5 -13l-92 -92q77 -87 77 -203q0 -127 -89.5 -216.5t-216.5 -89.5q-116 0 -203 77l-93 -93q-7 -5 -13 -5q-8 0 -13 5.5t-5 12.5q0 6 5 13l93 93q-77 87 -77 203q0 127 89.5 216.5t216.5 89.5q116 0 203 -77l92 92q7 5 13 5q7 0 12.5 -5t5.5 -13zM651 250
q0 101 -67 178l-381 -381q77 -67 178 -67q112 0 191 79t79 191zM559 453q-77 67 -178 67q-112 0 -191 -79t-79 -191q0 -101 67 -178z" />
    <glyph glyph-name="angleleft" unicode="&#x2329;" horiz-adv-x="381" 
d="M326 -230q0 -7 -5.5 -13.5t-12.5 -6.5q-14 0 -23 25l-10 26l-70 187l-88 235q-9 24 -9 27q0 1 10 31l169 451q6 16 16 18l5 1q14 0 18 -16l-3 -15l-50 -133l-122 -325q-4 -8 -4 -11q0 -4 9 -25l165 -440q4 -10 5 -16z" />
    <glyph glyph-name="angleright" unicode="&#x232a;" horiz-adv-x="381" 
d="M272 251q0 -1 -10 -31l-24 -64l-83 -220l-62 -166q-6 -19 -19 -20q-8 0 -14 5t-6 13q0 6 7 22l168 449q4 8 4 11t-9 27l-22 57l-72 193l-71 189q-4 10 -5 15q0 16 14 19l4 1q14 0 23 -24l167 -447q10 -22 10 -29z" />
    <glyph glyph-name="blanksymbol" unicode="&#x2422;" horiz-adv-x="502" 
d="M466 223q0 -100 -54.5 -166.5t-127.5 -66.5q-72 0 -130 55v-45h-76v470l-36 -33l-42 45l78 73v139h74v-70l52 49l43 -45l-95 -88v-142q69 56 155 56q68 0 113.5 -68.5t45.5 -162.5zM390 223q0 86 -40 128.5t-93 42.5q-66 0 -103 -57v-207q0 -32 28 -56q31 -24 65 -24
q55 0 99 42t44 131z" />
    <glyph glyph-name="uni2423" unicode="&#x2423;" 
d="M448 -97q0 -9 -6 -15t-15 -6h-365q-8 0 -14.5 6t-6.5 15v322q0 13 10.5 18.5t21 0t10.5 -18.5v-301h323v301q0 13 10.5 18.5t21 0t10.5 -18.5v-322z" />
    <glyph glyph-name="openbullet" unicode="&#x25e6;" horiz-adv-x="762" 
d="M521 128h-280v280h280v-280zM485 268q0 43 -30.5 73.5t-73.5 30.5t-73.5 -30.5t-30.5 -73.5t30.5 -73.5t73.5 -30.5t73.5 30.5t30.5 73.5z" />
    <glyph glyph-name="uni266A" unicode="&#x266a;" horiz-adv-x="598" 
d="M544 139q0 -26 -19 -26h-1q-17 3 -17 26l-3 33q-11 87 -55 188l-48 108l-9 24l-15 36v-430q-9 -58 -55.5 -91.5t-105.5 -33.5q-62 0 -111.5 37t-49.5 100q0 61 49.5 92.5t112.5 31.5q73 0 123 -41v506q0 28 16 31q10 0 15 -6t5.5 -9.5t1.5 -15.5q4 -67 30.5 -144
t55.5 -136t53.5 -135.5t26.5 -144.5z" />
    <glyph glyph-name="married" unicode="&#x26ad;" horiz-adv-x="489" 
d="M577 252q0 -88 -59.5 -155.5t-147.5 -67.5q-40 0 -78 15q-8 3 -25.5 14t-22.5 11q-7 0 -21 -12q-47 -28 -103 -28q-88 0 -148.5 66.5t-60.5 154.5q0 84 54 148.5t141 74.5q2 0 7 0.5t8 0.5q59 0 108 -33q1 -1 4 -3t6 -3.5t5 -1.5q7 0 21 12q47 28 103 28
q88 0 148.5 -66.5t60.5 -154.5zM197 121q-40 44 -40 131q0 74 40 129q-38 21 -70 23h-7q-67 0 -103.5 -46t-36.5 -108t37.5 -107t102.5 -45h8q31 3 69 23zM508 251q0 62 -37.5 107t-102.5 45h-8q-31 -3 -69 -23v-1q40 -43 40 -130q0 -74 -40 -129q38 -21 70 -23h7
q67 0 103.5 46t36.5 108zM256 254v13q-1 8 -11 51h-2q-11 -53 -11 -71v-14q1 -8 11 -51h2q11 53 11 72z" />
    <glyph glyph-name="divorced" unicode="&#x26ae;" horiz-adv-x="489" 
d="M161 249q0 -83 -49.5 -152t-131.5 -69q-80 0 -128.5 70.5t-48.5 152.5q0 81 43.5 147t122.5 75q2 0 6 0.5t6 0.5q81 0 130.5 -70.5t49.5 -154.5zM685 251q0 -68 -30 -125t-88 -84q-31 -14 -60 -14q-81 0 -130.5 70.5t-49.5 153.5q0 81 44.5 146t123.5 75q3 0 7 0.5t7 0.5
q79 0 127.5 -70t48.5 -153zM283 -113h-77v728h77v-728zM87 250q0 62 -27 108t-86 46q-40 -4 -64 -33t-31 -60t-7 -66v-11q6 -57 32 -96.5t77 -39.5h5q52 4 76.5 49.5t24.5 102.5zM616 249q0 33 -9 66.5t-33 61t-60 27.5q-60 0 -86.5 -46.5t-26.5 -107.5q0 -59 26.5 -105
t80.5 -46q50 0 76.5 39.5t30.5 94.5q1 5 1 16z" />
    <glyph glyph-name="dblbracketleft" unicode="&#x27e6;" horiz-adv-x="394" 
d="M372 -249h-256v1000h256v-37h-97v-926h97v-37zM238 -212v926h-85v-926h85z" />
    <glyph glyph-name="dblbracketright" unicode="&#x27e7;" horiz-adv-x="394" 
d="M277 -249h-255v37h96v926h-96v37h255v-1000zM240 -212v926h-85v-926h85z" />
    <glyph glyph-name="acute.cap" unicode="&#xea00;" 
d="M435 617l-197 -122h-89l175 122h111z" />
    <glyph glyph-name="uni0301.cap" unicode="&#xea01;" horiz-adv-x="0" 
d="M-97 944l-146 -167h-60l130 167h76z" />
    <glyph glyph-name="breve.cap" unicode="&#xea02;" 
d="M410 673q-1 -77 -50 -127.5t-116 -50.5q-66 0 -115 50t-50 128h60q1 -52 33 -82.5t73 -30.5q40 0 72 30t33 83h60z" />
    <glyph glyph-name="space_uni0306_uni0301.cap" unicode="&#xea03;" 
d="M410 673q-1 -77 -50 -127.5t-116 -50.5q-66 0 -115 50t-50 128h60q1 -52 33 -82.5t73 -30.5q40 0 72 30t33 83h60zM388 830l-197 -122h-89l175 122h111z" />
    <glyph glyph-name="space_uni0306_uni0301" unicode="&#xea04;" 
d="M410 700q-1 -77 -50 -127.5t-116 -50.5q-66 0 -115 50t-50 128h60q1 -52 33 -82.5t73 -30.5q40 0 72 30t33 83h60zM388 857l-197 -122h-89l175 122h111z" />
    <glyph glyph-name="space_uni032E" unicode="&#xea05;" 
d="M410 -68q-1 -77 -50 -127.5t-116 -50.5q-66 0 -115 50t-50 128h60q1 -52 33 -82.5t73 -30.5q40 0 72 30t33 83h60z" />
    <glyph glyph-name="space_uni032F" unicode="&#xea06;" 
d="M410 -246h-60q-1 52 -33 82.5t-73 30.5q-40 0 -72 -30t-33 -83h-60q1 77 50 127.5t116 50.5q66 0 115 -50t50 -128z" />
    <glyph glyph-name="uni0306.cap" unicode="&#xea07;" horiz-adv-x="0" 
d="M-69 950q-1 -77 -50 -127.5t-116 -50.5q-66 0 -115 50t-50 128h60q1 -52 33 -82.5t73 -30.5q40 0 72 30t33 83h60z" />
    <glyph glyph-name="space_uni0306_uni0300.cap" unicode="&#xea08;" 
d="M410 673q-1 -77 -50 -127.5t-116 -50.5q-66 0 -115 50t-50 128h60q1 -52 33 -82.5t73 -30.5q40 0 72 30t33 83h60zM388 708l-175 122h-111l197 -122h89z" />
    <glyph glyph-name="space_uni0306_uni0300" unicode="&#xea09;" 
d="M410 700q-1 -77 -50 -127.5t-116 -50.5q-66 0 -115 50t-50 128h60q1 -52 33 -82.5t73 -30.5q40 0 72 30t33 83h60zM388 735l-175 122h-111l197 -122h89z" />
    <glyph glyph-name="space_uni0306_uni0309.cap" unicode="&#xea0a;" 
d="M410 673q-1 -77 -50 -127.5t-116 -50.5q-66 0 -115 50t-50 128h60q1 -52 33 -82.5t73 -30.5q40 0 72 30t33 83h60zM340 825q0 -33 -27 -50q-4 -4 -12 -8q-27 -17 -38 -29.5t-11 -29.5v-20h-1h-26v20q0 30 15 56.5t40 39.5q15 7 15 21q0 21 -13 31q-13 8 -44 8
q-49 0 -72 -44h-1h-1l-14 40q33 44 88 44q48 0 75 -21q27 -19 27 -58z" />
    <glyph glyph-name="space_uni0306_uni0309" unicode="&#xea0b;" 
d="M410 700q-1 -77 -50 -127.5t-116 -50.5q-66 0 -115 50t-50 128h60q1 -52 33 -82.5t73 -30.5q40 0 72 30t33 83h60zM340 852q0 -33 -27 -50q-4 -4 -12 -8q-27 -17 -38 -29.5t-11 -29.5v-20h-1h-26v20q0 30 15 56.5t40 39.5q15 7 15 21q0 21 -13 31q-13 8 -44 8
q-49 0 -72 -44h-1h-1l-14 40q33 44 88 44q48 0 75 -21q27 -20 27 -58z" />
    <glyph glyph-name="space_uni0311.cap" unicode="&#xea0c;" 
d="M410 495h-60q-1 52 -33 82.5t-73 30.5q-40 0 -72 -30t-33 -83h-60q1 77 50 127.5t116 50.5q66 0 115 -50t50 -128z" />
    <glyph glyph-name="space_uni0311" unicode="&#xea0d;" 
d="M410 522h-60q-1 52 -33 82.5t-73 30.5q-40 0 -72 -30t-33 -83h-60q1 77 50 127.5t116 50.5q66 0 115 -50t50 -128z" />
    <glyph glyph-name="uni0311.cap" unicode="&#xea0e;" horiz-adv-x="0" 
d="M-69 772h-60q-1 52 -33 82.5t-73 30.5q-40 0 -72 -30t-33 -83h-60q1 77 50 127.5t116 50.5q66 0 115 -50t50 -128z" />
    <glyph glyph-name="space_uni0306_uni0303.cap" unicode="&#xea0f;" 
d="M410 673q-1 -77 -50 -127.5t-116 -50.5q-66 0 -115 50t-50 128h60q1 -52 33 -82.5t73 -30.5q40 0 72 30t33 83h60zM407 846q-1 -55 -30 -86.5t-65 -31.5q-28 0 -74 33q-36 25 -58 25q-20 0 -29 -17.5t-9 -40.5h-60q1 55 30 86.5t65 31.5q28 0 74 -33q36 -25 58 -25
q20 0 29 17.5t9 40.5h60z" />
    <glyph glyph-name="space_uni0306_uni0303" unicode="&#xea10;" 
d="M410 700q-1 -77 -50 -127.5t-116 -50.5q-66 0 -115 50t-50 128h60q1 -52 33 -82.5t73 -30.5q40 0 72 30t33 83h60zM407 873q-1 -55 -30 -86.5t-65 -31.5q-28 0 -74 33q-36 25 -58 25q-20 0 -29 -17.5t-9 -40.5h-60q1 55 30 86.5t65 31.5q28 0 74 -33q36 -25 58 -25
q20 0 29 17.5t9 40.5h60z" />
    <glyph glyph-name="caron.cap" unicode="&#xea11;" 
d="M401 619l-126 -134h-60l-126 134h59l97 -97l97 97h59z" />
    <glyph glyph-name="uni030C.cap" unicode="&#xea14;" horiz-adv-x="0" 
d="M-79 947l-125 -172h-60l-125 172h59l96 -123l96 123h59z" />
    <glyph glyph-name="circumflex.cap" unicode="&#xea15;" 
d="M401 485h-59l-97 97l-97 -97h-59l126 134h60z" />
    <glyph glyph-name="space_uni0302_uni0301.cap" unicode="&#xea16;" 
d="M401 485h-59l-97 97l-97 -97h-59l126 134h60zM388 776l-197 -122h-89l175 122h111z" />
    <glyph glyph-name="space_uni0302_uni0301" unicode="&#xea17;" 
d="M401 525h-59l-97 97l-97 -97h-59l126 134h60zM388 816l-197 -122h-89l175 122h111z" />
    <glyph glyph-name="uni0302.cap" unicode="&#xea18;" horiz-adv-x="0" 
d="M-79 775h-59l-96 123l-96 -123h-59l125 172h60z" />
    <glyph glyph-name="space_uni0302_uni0300.cap" unicode="&#xea19;" 
d="M401 485h-59l-97 97l-97 -97h-59l126 134h60zM388 654l-175 122h-111l197 -122h89z" />
    <glyph glyph-name="space_uni0302_uni0300" unicode="&#xea1a;" 
d="M401 525h-59l-97 97l-97 -97h-59l126 134h60zM388 694l-175 122h-111l197 -122h89z" />
    <glyph glyph-name="space_uni0302_uni0309.cap" unicode="&#xea1b;" 
d="M401 485h-59l-97 97l-97 -97h-59l126 134h60zM435 771q0 -33 -27 -50q-4 -4 -12 -8q-27 -17 -38 -29.5t-11 -29.5v-20h-1h-26v20q0 30 15 56.5t40 39.5q15 7 15 21q0 21 -13 31q-13 8 -44 8q-49 0 -72 -44h-1h-1l-14 40q33 44 88 44q48 0 75 -21q27 -19 27 -58z" />
    <glyph glyph-name="space_uni0302_uni0309" unicode="&#xea1c;" 
d="M401 525h-59l-97 97l-97 -97h-59l126 134h60zM435 811q0 -33 -27 -50q-4 -4 -12 -8q-27 -17 -38 -29.5t-11 -29.5v-20h-1h-26v20q0 30 15 56.5t40 39.5q15 7 15 21q0 21 -13 31q-13 8 -44 8q-49 0 -72 -44h-1h-1l-14 40q33 44 88 44q48 0 75 -21q27 -19 27 -58z" />
    <glyph glyph-name="space_uni0302_uni0303.cap" unicode="&#xea1d;" 
d="M401 485h-59l-97 97l-97 -97h-59l126 134h60zM408 792q-1 -55 -30 -86.5t-65 -31.5q-28 0 -74 33q-36 25 -58 25q-20 0 -29 -17.5t-9 -40.5h-60q1 55 30 86.5t65 31.5q28 0 74 -33q36 -25 58 -25q20 0 29 17.5t9 40.5h60z" />
    <glyph glyph-name="space_uni0302_uni0303" unicode="&#xea1e;" 
d="M401 525h-59l-97 97l-97 -97h-59l126 134h60zM408 832q-1 -55 -30 -86.5t-65 -31.5q-28 0 -74 33q-36 25 -58 25q-20 0 -29 -17.5t-9 -40.5h-60q1 55 30 86.5t65 31.5q28 0 74 -33q36 -25 58 -25q20 0 29 17.5t9 40.5h60z" />
    <glyph glyph-name="space_uni0326" unicode="&#xea1f;" 
d="M281 -148l-37 -113h-36l23 113h-23v72h73v-72z" />
    <glyph glyph-name="space_uni030F.cap" unicode="&#xea25;" 
d="M384 495h-60l-78 167h76zM221 495h-60l-78 167h76z" />
    <glyph glyph-name="space_uni030F" unicode="&#xea26;" 
d="M384 527h-60l-78 167h76zM221 527h-60l-78 167h76z" />
    <glyph glyph-name="uni030F.cap" unicode="&#xea27;" horiz-adv-x="0" 
d="M-95 777h-60l-78 167h76zM-258 777h-60l-78 167h76z" />
    <glyph glyph-name="dieresis.cap" unicode="&#xea28;" 
d="M200 485h-77v78h77v-78zM367 485h-77v78h77v-78z" />
    <glyph glyph-name="space_uni0308_uni0301.cap" unicode="&#xea29;" 
d="M200 485h-77v78h77v-78zM367 485h-77v78h77v-78zM435 736l-197 -122h-89l175 122h111z" />
    <glyph glyph-name="space_uni0308_uni0301" unicode="&#xea2a;" 
d="M213 572h-77v78h77v-78zM354 572h-77v78h77v-78zM435 828l-197 -122h-89l175 122h111z" />
    <glyph glyph-name="space_uni0308_uni030C.cap" unicode="&#xea2b;" 
d="M200 485h-77v78h77v-78zM367 485h-77v78h77v-78zM401 738l-126 -134h-60l-126 134h59l97 -97l97 97h59z" />
    <glyph glyph-name="space_uni0308_uni030C" unicode="&#xea2c;" 
d="M213 572h-77v78h77v-78zM354 572h-77v78h77v-78zM401 830l-126 -134h-60l-126 134h59l97 -97l97 97h59z" />
    <glyph glyph-name="uni0308.cap" unicode="&#xea2d;" horiz-adv-x="0" 
d="M-266 822h-77v78h77v-78zM-125 822h-77v78h77v-78z" />
    <glyph glyph-name="space_uni0308_uni0300.cap" unicode="&#xea2e;" 
d="M200 485h-77v78h77v-78zM367 485h-77v78h77v-78zM341 614h-89l-197 122h111z" />
    <glyph glyph-name="space_uni0308_uni0300" unicode="&#xea2f;" 
d="M213 572h-77v78h77v-78zM354 572h-77v78h77v-78zM341 706h-89l-197 122h111z" />
    <glyph glyph-name="dotaccent.cap" unicode="&#xea30;" horiz-adv-x="272" 
d="M179 485h-86v86h86v-86z" />
    <glyph glyph-name="uni0307.cap" unicode="&#xea31;" horiz-adv-x="0" 
d="M-191 818h-86v86h86v-86z" />
    <glyph glyph-name="grave.cap" unicode="&#xea32;" 
d="M341 495h-89l-197 122h111z" />
    <glyph glyph-name="uni0300.cap" unicode="&#xea33;" horiz-adv-x="0" 
d="M-165 777h-60l-146 167h76z" />
    <glyph glyph-name="space_uni0309.cap" unicode="&#xea34;" 
d="M340 622q0 -33 -27 -50q-4 -4 -12 -8q-27 -17 -38 -29.5t-11 -29.5v-20h-1h-26v20q0 30 15 56.5t40 39.5q15 7 15 21q0 21 -13 31q-13 8 -44 8q-49 0 -72 -44h-1h-1l-14 40q33 44 88 44q48 0 75 -21q27 -20 27 -58z" />
    <glyph glyph-name="space_uni0309" unicode="&#xea35;" 
d="M340 640q0 -33 -27 -50q-4 -4 -12 -8q-27 -17 -38 -29.5t-11 -29.5v-20h-1h-26v20q0 30 15 56.5t40 39.5q15 7 15 21q0 21 -13 31q-13 8 -44 8q-49 0 -72 -44h-1h-1l-14 40q33 44 88 44q48 0 75 -21q27 -20 27 -58z" />
    <glyph glyph-name="uni0309.cap" unicode="&#xea36;" horiz-adv-x="0" 
d="M-139 890q0 -33 -27 -50q-4 -4 -12 -8q-27 -17 -38 -29.5t-11 -29.5v-20h-1h-26v20q0 30 15 56.5t40 39.5q15 7 15 21q0 21 -13 31q-13 8 -44 8q-49 0 -72 -44h-1h-1l-14 40q33 44 88 44q48 0 75 -21q27 -20 27 -58z" />
    <glyph glyph-name="hungarumlaut.cap" unicode="&#xea38;" 
d="M244 662l-78 -167h-60l62 167h76zM407 662l-78 -167h-60l62 167h76z" />
    <glyph glyph-name="uni030B.cap" unicode="&#xea39;" horiz-adv-x="0" 
d="M-235 944l-78 -167h-60l62 167h76zM-72 944l-78 -167h-60l62 167h76z" />
    <glyph glyph-name="space_uni0332" unicode="&#xea3a;" 
d="M421 -188h-353v63h353v-63z" />
    <glyph glyph-name="macron.cap" unicode="&#xea3b;" 
d="M421 505h-353v63h353v-63z" />
    <glyph glyph-name="macron.cap.alt" unicode="&#xea3c;" 
d="M339 505h-189v63h189v-63z" />
    <glyph glyph-name="macron.alt" unicode="&#xea3d;" 
d="M339 579h-189v63h189v-63z" />
    <glyph glyph-name="space_uni0331" unicode="&#xea3e;" 
d="M421 -188h-353v63h353v-63z" />
    <glyph glyph-name="uni0304.cap" unicode="&#xea3f;" horiz-adv-x="0" 
d="M-58 829h-353v63h353v-63z" />
    <glyph glyph-name="ring.cap" unicode="&#xea40;" horiz-adv-x="647" 
d="M373 528q0 37 -49 37t-49 -37t49 -37t49 37zM433 527q0 -33 -31 -58t-78 -25q-46 0 -77.5 25t-31.5 60q0 33 31 58t78 25q46 0 77.5 -25t31.5 -60z" />
    <glyph glyph-name="space_uni030A_uni0301.cap" unicode="&#xea41;" horiz-adv-x="647" 
d="M373 528q0 37 -49 37t-49 -37t49 -37t49 37zM433 527q0 -33 -31 -58t-78 -25q-46 0 -77.5 25t-31.5 60q0 33 31 58t78 25q46 0 77.5 -25t31.5 -60zM467 769l-197 -122h-89l175 122h111z" />
    <glyph glyph-name="space_uni030A_uni0301" unicode="&#xea42;" horiz-adv-x="647" 
d="M373 601q0 37 -49 37t-49 -37t49 -37t49 37zM433 600q0 -33 -31 -58t-78 -25q-46 0 -77.5 25t-31.5 60q0 33 31 58t78 25q46 0 77.5 -25t31.5 -60zM467 842l-197 -122h-89l175 122h111z" />
    <glyph glyph-name="uni030A.cap" unicode="&#xea43;" horiz-adv-x="0" 
d="M-185 851q0 37 -49 37t-49 -37t49 -37t49 37zM-125 850q0 -33 -31 -58t-78 -25q-46 0 -77.5 25t-31.5 60q0 33 31 58t78 25q46 0 77.5 -25t31.5 -60z" />
    <glyph glyph-name="tilde.cap" unicode="&#xea44;" 
d="M407 603q-1 -55 -30 -86.5t-65 -31.5q-28 0 -74 33q-36 25 -58 25q-20 0 -29 -17.5t-9 -40.5h-60q1 55 30 86.5t65 31.5q28 0 74 -33q36 -25 58 -25q20 0 29 17.5t9 40.5h60z" />
    <glyph glyph-name="space_uni0330" unicode="&#xea45;" 
d="M407 -98q-1 -55 -30 -86.5t-65 -31.5q-28 0 -74 33q-36 25 -58 25q-20 0 -29 -17.5t-9 -40.5h-60q1 55 30 86.5t65 31.5q28 0 74 -33q36 -25 58 -25q20 0 29 17.5t9 40.5h60z" />
    <glyph glyph-name="uni0303.cap" unicode="&#xea46;" horiz-adv-x="0" 
d="M-72 920q-1 -55 -30 -86.5t-65 -31.5q-28 0 -74 33q-36 25 -58 25q-20 0 -29 -17.5t-9 -40.5h-60q1 55 30 86.5t65 31.5q28 0 74 -33q36 -25 58 -25q20 0 29 17.5t9 40.5h60z" />
    <glyph glyph-name="acute.ts1" unicode="&#xeb02;" horiz-adv-x="489" 
d="M407 730l-148 -190h-59l30 45l101 145h76z" />
    <glyph glyph-name="Aogonekacute" unicode="&#xeb03;" horiz-adv-x="647" 
d="M640 -187q-53 -25 -98 -25q-47 0 -72.5 25t-26.5 60q-2 37 22.5 71t64.5 56l-74 203h-282l-73 -203h-74l252 694h88l252 -694h-25q-89 -50 -88 -104q1 -34 53 -38q29 -1 67 14zM435 259l-120 363l-119 -363h239zM514 867l-197 -122h-89l175 122h111z" />
    <glyph glyph-name="aogonekacute" unicode="&#xeb04;" horiz-adv-x="469" 
d="M437 -187q-53 -25 -98 -25q-47 0 -72.5 25t-26.5 60q-2 37 22.5 71t64.5 56v37q-26 -22 -72 -34.5t-90 -12.5q-57 0 -84 41t-27 84q0 74 106 110q61 20 165 25v41q0 52 -24.5 81t-61.5 29q-79 0 -148 -50l-6 66q73 42 154 42q70 0 116 -47t46 -119v-293h-11
q-88 -50 -87 -104q1 -34 53 -38q30 -1 67 14zM325 134v65q-27 0 -57.5 -3.5t-64.5 -12t-56 -26t-22 -41.5q0 -28 25.5 -47t65.5 -19q44 0 76 20q33 20 33 64zM372 694l-146 -167h-60l130 167h76z" />
    <glyph glyph-name="bigcircle" unicode="&#xeb08;" horiz-adv-x="694" 
d="M694 347q0 -144 -101.5 -245.5t-245.5 -101.5t-245.5 101.5t-101.5 245.5t101.5 245.5t245.5 101.5t245.5 -101.5t101.5 -245.5zM659 347q0 130 -91 221t-221 91q-129 0 -220.5 -91t-91.5 -221q0 -129 91.5 -220.5t220.5 -91.5q130 0 221 91.5t91 220.5z" />
    <glyph glyph-name="star.alt" unicode="&#xeb09;" horiz-adv-x="489" 
d="M493 308l-201 -96l107 -198l-142 149l-13 10l-13 -10l-142 -149l107 198l-201 96l217 -38l10 53l21 164h2l21 -164l10 -53z" />
    <glyph glyph-name="breve.ts1" unicode="&#xeb0a;" horiz-adv-x="598" 
d="M518 730q0 -92 -68 -146.5t-152 -54.5q-90 0 -154.5 58.5t-64.5 142.5h60q0 -61 49 -98.5t110 -37.5t110.5 38t49.5 98h60z" />
    <glyph glyph-name="caron.ts1" unicode="&#xeb0d;" horiz-adv-x="598" 
d="M466 751q-7 -16 -41 -79q-6 -11 -37 -69t-46 -89q-1 -2 -4.5 -9.5t-7 -11t-10.5 -3.5h-43q-4 0 -8 3.5t-9 11.5t-8.5 14.5t-9.5 19t-9 18.5q-10 19 -47.5 87t-54.5 107h42l17 -2l109 -190l97 175l11 15z" />
    <glyph glyph-name="copyleft" unicode="&#xeb0f;" horiz-adv-x="694" 
d="M694 347q0 -144 -101.5 -245.5t-245.5 -101.5t-245.5 101.5t-101.5 245.5t101.5 245.5t245.5 101.5t245.5 -101.5t101.5 -245.5zM659 347q0 130 -91 221t-221 91q-129 0 -220.5 -91t-91.5 -221q0 -129 91.5 -220.5t220.5 -91.5q130 0 221 91.5t91 220.5zM533 347
q0 -97 -59 -167.5t-150 -70.5q-38 0 -63 7.5t-59 28.5l4 45q31 -24 55.5 -32.5t62.5 -8.5q69 0 111 59.5t42 138.5q0 83 -43 141t-108 58q-59 0 -107 -35l-10 52q58 23 116 23q89 0 148.5 -71t59.5 -168z" />
    <glyph glyph-name="cwm" unicode="&#xeb10;" horiz-adv-x="0" 
 />
    <glyph glyph-name="cwmascender" unicode="&#xeb11;" horiz-adv-x="0" 
 />
    <glyph glyph-name="cwmcapital" unicode="&#xeb12;" horiz-adv-x="0" 
 />
    <glyph glyph-name="dblgrave.ts1" unicode="&#xeb15;" horiz-adv-x="489" 
d="M220 542h-59l-23 50l-57 138h55l21 -2zM383 542h-59l-23 50l-57 138h55l21 -2z" />
    <glyph glyph-name="died" unicode="&#xeb16;" horiz-adv-x="489" 
d="M434 369h-151v-396h-77v394h-152v67h152v196h77v-194h151v-67z" />
    <glyph glyph-name="dieresis.ts1" unicode="&#xeb17;" horiz-adv-x="489" 
d="M190 599h-81v81h81v-81zM379 599h-81v81h81v-81z" />
    <glyph glyph-name="space_uni0323" unicode="&#xeb19;" horiz-adv-x="272" 
d="M179 -200h-86v86h86v-86z" />
    </font>
</defs>
</svg>
