<?xml version="1.0" standalone="no"?>
<!DOCTYPE svg PUBLIC "-//W3C//DTD SVG 1.1//EN" "http://www.w3.org/Graphics/SVG/1.1/DTD/svg11.dtd" >
<svg>
<metadata>
Created by FontForge 20120731 at Mon Jul 14 22:19:38 2014
 By tom,,,
Copyright 2003, 2009 B. Jackowski and J. M. Nowacki (on behalf of TeX users groups). This work is released under the GUST Font License --  see http://tug.org/fonts/licenses/GUST-FONT-LICENSE.txt for details.
</metadata>
<defs>
<font id="lmmonoprop10-regular" horiz-adv-x="525" >
  <font-face 
    font-family="LM Mono Prop 10"
    font-weight="400"
    font-stretch="normal"
    units-per-em="1000"
    panose-1="0 0 5 0 0 0 0 0 0 0"
    ascent="778"
    descent="-222"
    x-height="431"
    cap-height="611"
    bbox="-445 -316 1465 996"
    underline-thickness="69"
    underline-position="-99"
    unicode-range="U+0020-FB04"
  />
<missing-glyph horiz-adv-x="280" 
 />
    <glyph glyph-name="I_J" unicode="IJ" horiz-adv-x="840" 
d="M308 30q0 -30 -40 -30h-187q-40 0 -40 30q0 14 7.5 21.5t14 8.5t18.5 1h59v489h-59q-40 0 -40 30q0 14 7.5 21.5t14 8.5t18.5 1h187q12 0 18.5 -1t14 -8.5t7.5 -21.5q0 -30 -40 -30h-59v-489h59q12 0 18.5 -1t14 -8.5t7.5 -21.5zM793 581q0 -31 -41 -31h-30v-416
q0 -66 -50 -105.5t-120 -39.5q-74 0 -120 31t-46 79q0 23 13 35t32 12t31.5 -13t12.5 -31q0 -16 -8 -26q29 -26 85 -26q12 0 24.5 2.5t32 10t32 27.5t12.5 50v410h-82q-41 0 -41 31q0 30 41 30h181q41 0 41 -30z" />
    <glyph glyph-name="i_j" unicode="ij" horiz-adv-x="583" 
d="M181 544q0 -20 -14.5 -35t-36.5 -15q-20 0 -35 15t-15 35t14.5 35t36.5 15q20 0 35 -15t15 -35zM472 544q0 -20 -14.5 -35t-36.5 -15q-20 0 -35 15t-15 35t14.5 35t36.5 15q20 0 35 -15t15 -35zM265 30q0 -30 -40 -30h-168q-40 0 -40 30q0 14 7.5 21.5t14 8.5t18.5 1h54
v309h-49q-41 0 -41 31q0 30 41 30h78q25 0 32.5 -8.5t7.5 -32.5v-329h44q41 0 41 -31zM471 -47q0 -41 -11.5 -79.5t-44.5 -70t-82 -31.5q-54 0 -85.5 20.5t-31.5 55.5q0 21 13.5 33.5t31.5 12.5q44 0 44 -53l1 -3q4 -5 30 -5q66 0 66 124v413h-63q-41 0 -41 31q0 30 41 30
h92q25 0 32.5 -8.5t7.5 -32.5v-437z" />
    <glyph glyph-name="f_k" unicode="fk" horiz-adv-x="855" 
d="M832 30q0 -30 -41 -30h-126q-12 0 -18.5 1t-14 8.5t-7.5 21.5q0 30 40 30h19l-127 157l-86 -77v-80h54q12 0 18.5 -1t14 -8.5t7.5 -21.5q0 -30 -40 -30h-177q-12 0 -18.5 1t-14 8.5t-7.5 21.5q0 30 40 30h54v309h-222v-309h54q12 0 18.5 -1t14 -8.5t7.5 -21.5
q0 -30 -40 -30h-177q-40 0 -40 30q0 14 7.5 21.5t14 8.5t18.5 1h54v309h-43q-40 0 -40 30q0 31 41 31h42v52q0 66 66.5 100t164.5 34q47 0 75 -6h13l1 -3q6 3 12 3q13 0 19.5 -7.5t7 -14t0.5 -19.5v-354l174 154h-40q-40 0 -40 30q0 14 7.5 21.5t14 8.5t18.5 1h164
q41 0 41 -31q0 -30 -41 -30h-39l-130 -115l157 -194h35q41 0 41 -31zM402 431v92q-14 9 -16 31q-20 2 -52 2q-63 0 -101 -16q-25 -10 -37 -22t-14 -19.5t-2 -21.5v-46h222z" />
    <glyph glyph-name="f_f" unicode="ff" horiz-adv-x="613" 
d="M653 557q0 -20 -13.5 -32t-29.5 -12t-26.5 10.5t-14 19.5t-3.5 13q-17 0 -28 -1.5t-29 -8t-28 -24t-10 -44.5v-47h81q12 0 18.5 -1t14 -8.5t7.5 -21.5q0 -30 -40 -30h-81v-309h78q12 0 18.5 -1t14 -8.5t7.5 -21.5q0 -30 -40 -30h-201q-12 0 -18.5 1t-14 8.5t-7.5 21.5
q0 30 40 30h54v423q0 19 2 28q-18 12 -18 41q-22 3 -53 3q-62 0 -100 -16q-25 -10 -37 -22t-14 -19.5t-2 -21.5v-46h81q12 0 18.5 -1t14 -8.5t7.5 -21.5q0 -30 -40 -30h-81v-309h54q12 0 18.5 -1t14 -8.5t7.5 -21.5q0 -30 -40 -30h-177q-40 0 -40 30q0 14 7.5 21.5t14 8.5
t18.5 1h54v309h-43q-40 0 -40 30q0 31 41 31h42v52q0 67 67.5 100.5t161.5 33.5q91 0 117 -30q41 30 101 30q95 0 95 -60z" />
    <glyph glyph-name="f_i" unicode="fi" horiz-adv-x="583" 
d="M565 30q0 -30 -40 -30h-177q-12 0 -18.5 1t-14 8.5t-7.5 21.5q0 30 40 30h54v309h-222v-309h54q12 0 18.5 -1t14 -8.5t7.5 -21.5q0 -30 -40 -30h-177q-40 0 -40 30q0 14 7.5 21.5t14 8.5t18.5 1h54v309h-43q-40 0 -40 30q0 31 41 31h42v52q0 48 39 80t86.5 43t96.5 11
q138 0 138 -80q0 -21 -13 -33.5t-32 -12.5q-18 0 -31 12.5t-13 32.5q0 4 0.5 7t0.5 4q0 9 -57 9q-58 0 -99 -19q-22 -10 -33 -21t-12.5 -18.5t-1.5 -20.5v-46h251q25 0 32.5 -8.5t7.5 -32.5v-329h54q12 0 18.5 -1t14 -8.5t7.5 -21.5z" />
    <glyph glyph-name="f_l" unicode="fl" horiz-adv-x="583" 
d="M565 30q0 -30 -40 -30h-177q-12 0 -18.5 1t-14 8.5t-7.5 21.5q0 30 40 30h54v309h-222v-309h54q12 0 18.5 -1t14 -8.5t7.5 -21.5q0 -30 -40 -30h-177q-40 0 -40 30q0 14 7.5 21.5t14 8.5t18.5 1h54v309h-43q-40 0 -40 30q0 31 41 31h42v52q0 66 66.5 100t164.5 34
q47 0 75 -6h13l1 -3q6 3 12 3q28 0 28 -41v-509h54q12 0 18.5 -1t14 -8.5t7.5 -21.5zM402 431v92q-14 9 -16 31q-20 2 -52 2q-63 0 -101 -16q-25 -10 -37 -22t-14 -19.5t-2 -21.5v-46h222z" />
    <glyph glyph-name="f_f_i" unicode="&#xfb00;i" horiz-adv-x="875" 
d="M857 30q0 -30 -40 -30h-177q-12 0 -18.5 1t-14 8.5t-7.5 21.5q0 30 40 30h54v309h-222v-309h54q12 0 18.5 -1t14 -8.5t7.5 -21.5q0 -30 -40 -30h-177q-40 0 -40 30q0 14 7.5 21.5t14 8.5t18.5 1h54v309h-223v-309h54q12 0 18.5 -1t14 -8.5t7.5 -21.5q0 -30 -40 -30h-177
q-40 0 -40 30q0 14 7.5 21.5t14 8.5t18.5 1h54v309h-43q-40 0 -40 30q0 31 41 31h42v52q0 49 40 81t86.5 42.5t95.5 10.5q96 0 126 -41q67 41 166 41q138 0 138 -80q0 -21 -13 -33.5t-32 -12.5q-18 0 -31 12.5t-13 32.5q0 4 0.5 7t0.5 4q0 9 -57 9q-58 0 -99 -19
q-22 -10 -33 -21t-12.5 -18.5t-1.5 -20.5v-46h251q25 0 32.5 -8.5t7.5 -32.5v-329h54q12 0 18.5 -1t14 -8.5t7.5 -21.5zM403 431v67q-20 11 -20 38q0 4 0.5 7t0.5 4q0 9 -57 9q-60 0 -100 -19q-22 -10 -33 -21t-12.5 -18t-1.5 -21v-46h223z" />
    <glyph glyph-name="f_f_l" unicode="ffl" horiz-adv-x="875" 
d="M857 30q0 -30 -40 -30h-177q-12 0 -18.5 1t-14 8.5t-7.5 21.5q0 30 40 30h54v309h-222v-309h54q12 0 18.5 -1t14 -8.5t7.5 -21.5q0 -30 -40 -30h-177q-40 0 -40 30q0 14 7.5 21.5t14 8.5t18.5 1h54v309h-223v-309h54q12 0 18.5 -1t14 -8.5t7.5 -21.5q0 -30 -40 -30h-177
q-40 0 -40 30q0 14 7.5 21.5t14 8.5t18.5 1h54v309h-43q-40 0 -40 30q0 31 41 31h42v52q0 67 68 100.5t162 33.5q48 0 77.5 -7t44.5 -31q67 38 171 38q47 0 75 -6h13l1 -3q6 3 12 3q28 0 28 -41v-509h54q12 0 18.5 -1t14 -8.5t7.5 -21.5zM405 512q-18 12 -18 41q-23 3 -54 3
q-61 0 -100 -16q-25 -10 -37 -22t-14 -19.5t-2 -21.5v-46h223v52q0 21 2 29zM694 431v92q-14 9 -16 31q-20 2 -52 2q-63 0 -101 -16q-25 -10 -37 -22t-14 -19.5t-2 -21.5v-46h222z" />
    <glyph glyph-name=".notdef" horiz-adv-x="280" 
 />
    <glyph glyph-name=".null" horiz-adv-x="0" 
 />
    <glyph glyph-name="nonmarkingreturn" horiz-adv-x="333" 
 />
    <glyph glyph-name="space" unicode=" " horiz-adv-x="350" 
 />
    <glyph glyph-name="exclam" unicode="!" horiz-adv-x="292" 
d="M196 565q0 -30 -2.5 -85t-2.5 -75l-4 -173q-2 -31 -8.5 -39.5t-32.5 -8.5q-39 0 -40 26l-3 121l-7 234q0 24 11.5 38t21 16.5t17.5 2.5t17.5 -2.5t21 -16.5t11.5 -38zM196 50q0 -21 -14.5 -35.5t-35.5 -14.5t-35.5 14.5t-14.5 35.5t14.5 35.5t35.5 14.5t35.5 -14.5
t14.5 -35.5z" />
    <glyph glyph-name="quotedbl" unicode="&#x22;" horiz-adv-x="432" 
d="M181 397q0 -10 -7 -17t-16 -7h-24q-10 0 -16.5 7t-6.5 17v167q0 36 8 45q2 3 5 5q22 19 44 0q3 -2 5 -5q8 -9 8 -45v-167zM321 397q0 -10 -7 -17t-16 -7h-24q-10 0 -16.5 7t-6.5 17v167q0 36 8 45q2 3 5 5q22 19 44 0q3 -2 5 -5q8 -9 8 -45v-167z" />
    <glyph glyph-name="numbersign" unicode="#" horiz-adv-x="875" 
d="M816 230q0 -35 -51 -35h-223l-70 -166q-11 -29 -35 -29q-15 0 -25 10.5t-10 24.5q0 8 6 22l58 138h-151l-70 -166q-11 -29 -35 -29q-15 0 -25 10.5t-10 24.5q0 8 6 22l58 138h-130q-51 0 -51 35t45 35h166l34 82h-200q-45 0 -45 35t51 35h224l69 165q11 29 35 29
q15 0 25 -10.5t10 -24.5q0 -8 -6 -22l-57 -137h151l69 165q11 29 35 29q15 0 25 -10.5t10 -24.5q0 -8 -6 -22l-57 -137h129q51 0 51 -35t-45 -35h-165l-34 -82h199q45 0 45 -35zM530 347h-151l-34 -82h151z" />
    <glyph glyph-name="dollar" unicode="$" 
d="M466 171q0 -59 -44 -110.5t-129 -64.5v-38q0 -41 -30 -41q-31 0 -31 41v37q-83 8 -128.5 56.5t-45.5 114.5q0 21 10 33t18.5 14.5t16.5 2.5q16 0 30 -12.5t14 -32.5q0 -24 -16 -35q20 -68 101 -79v232q-47 9 -82 27t-52 36.5t-27 41t-11.5 34.5t-1.5 24q0 58 47.5 106
t126.5 57v38q0 41 31 41q30 0 30 -41v-37q84 -7 128.5 -52t44.5 -107q0 -25 -13.5 -37t-31.5 -12q-20 0 -32 13t-12 31q0 21 15 33q-19 59 -99 69v-208q51 -10 87.5 -31.5t54 -48.5t24.5 -50t7 -45zM232 359v195q-47 -8 -78.5 -35t-31.5 -63t32 -62.5t78 -34.5zM402 167
q0 39 -30 69t-79 40v-218q48 8 78.5 39t30.5 70z" />
    <glyph glyph-name="percent" unicode="%" horiz-adv-x="875" 
d="M705 659q0 -12 -10 -26l-459 -695q-13 -21 -32 -21q-14 0 -24.5 10.5t-10.5 24.5q0 10 10 26l460 698q12 18 31 18q15 0 25 -10.5t10 -24.5zM350 499q0 -82 -43 -138t-103 -56t-103 55.5t-43 139.5q0 82 43 138t103 56t103 -55.5t43 -139.5zM816 111q0 -82 -43 -138
t-103 -56t-103 55.5t-43 139.5q0 82 43 138t103 56t103 -55.5t43 -139.5zM760 112q0 56 -27.5 94.5t-62.5 38.5t-62.5 -38.5t-27.5 -95.5q0 -56 27.5 -94.5t62.5 -38.5t62.5 38.5t27.5 95.5zM294 500q0 56 -27.5 94.5t-62.5 38.5t-62.5 -38.5t-27.5 -95.5q0 -56 27.5 -94.5
t62.5 -38.5t62.5 38.5t27.5 95.5z" />
    <glyph glyph-name="ampersand" unicode="&#x26;" horiz-adv-x="817" 
d="M764 400q0 -30 -40 -30h-69l-83 -134q-18 -29 -49 -69q-31 -42 -57 -68q72 -49 144 -49q34 0 61 14t31 41q3 33 28 33q3 0 7.5 -1t12.5 -9t8 -22q0 -45 -40.5 -81t-107.5 -36q-89 0 -189 69q-87 -69 -187 -69q-79 0 -134.5 42t-55.5 107q0 66 59 109l107 75
q-34 80 -34 157q0 67 43 105t95 38q55 0 88 -42.5t33 -94.5q0 -44 -36 -86.5t-115 -99.5q47 -87 135 -164q44 43 76.5 89t92.5 146h-76q-40 0 -40 30q0 14 7.5 21.5t14 8.5t18.5 1h212q12 0 18.5 -1t14 -8.5t7.5 -21.5zM379 485q0 27 -17 51.5t-48 24.5q-28 0 -55 -20
t-27 -62q0 -62 25 -123q122 84 122 129zM375 98q-28 23 -70 73q-46 55 -67 95q-76 -49 -100.5 -71.5t-24.5 -54.5q0 -38 35.5 -64t86.5 -26q70 0 140 48z" />
    <glyph glyph-name="quotesingle" unicode="'" horiz-adv-x="292" 
d="M181 397q0 -10 -7 -17t-16 -7h-24q-10 0 -16.5 7t-6.5 17v167q0 36 8 45q2 3 5 5q22 19 44 0q3 -2 5 -5q8 -9 8 -45v-167z" />
    <glyph glyph-name="parenleft" unicode="(" horiz-adv-x="408" 
d="M349 -54q0 -9 -7 -18.5t-24 -9.5q-20 0 -67.5 38.5t-84.5 90.5q-81 116 -81 259q0 72 21.5 138t52 110t64.5 77t59.5 48t35.5 15q17 0 24 -9.5t7 -18.5q0 -7 -3 -12.5t-6.5 -8t-13.5 -9.5q-63 -43 -103.5 -104t-54.5 -115.5t-14 -110.5q0 -93 41.5 -181.5t128.5 -147.5
q11 -8 15 -10.5t7 -8t3 -12.5z" />
    <glyph glyph-name="parenright" unicode=")" horiz-adv-x="408" 
d="M322 306q0 -72 -21.5 -138t-52 -110t-64.5 -77t-59.5 -48t-35.5 -15q-16 0 -23.5 9.5t-7.5 18.5q0 15 23 30q92 62 132 151.5t40 178.5q0 32 -5.5 66t-21.5 83t-55.5 98.5t-96.5 87.5q-16 10 -16 25q0 9 7.5 18.5t23.5 9.5q20 0 67.5 -38.5t84.5 -90.5q81 -116 81 -259z
" />
    <glyph glyph-name="asterisk" unicode="*" 
d="M456 214q0 -12 -9.5 -22.5t-23.5 -10.5q-10 0 -37 16q-85 51 -94 56q3 -39 3 -121q0 -42 -33 -42t-33 42q0 82 3 121l-124 -72q-40 0 -40 33q0 9 4.5 16t8 9.5t12.5 7.5l108 59l-109 59q-24 13 -24 32q0 12 9.5 22.5t23.5 10.5q9 0 23 -9l108 -63q-3 39 -3 121
q0 42 33 42t33 -42q0 -82 -3 -121l124 72q40 0 40 -33q0 -18 -25 -33l-108 -59q7 -4 34.5 -18t50.5 -26t34 -20q14 -7 14 -27z" />
    <glyph glyph-name="plus" unicode="+" horiz-adv-x="817" 
d="M758 306q0 -35 -47 -35h-268v-268q0 -47 -35 -47t-35 47v268h-268q-47 0 -47 35t47 35h268v268q0 47 35 47t35 -47v-268h268q47 0 47 -35z" />
    <glyph glyph-name="comma" unicode="," horiz-adv-x="292" 
d="M208 10q0 -59 -33.5 -104t-55.5 -45q-12 0 -22 10t-10 21q0 13 15 26q38 31 44 82q-22 2 -34.5 14t-14 20.5t-1.5 15.5q0 21 14 35.5t36 14.5q26 0 44 -22.5t18 -67.5z" />
    <glyph glyph-name="hyphen" unicode="-" horiz-adv-x="350" 
d="M291 215q0 -30 -40 -30h-199q-12 0 -18.5 1t-14 8.5t-7.5 21.5q0 30 40 30h199q12 0 18.5 -1t14 -8.5t7.5 -21.5z" />
    <glyph glyph-name="period" unicode="." horiz-adv-x="292" 
d="M196 50q0 -21 -14.5 -35.5t-35.5 -14.5t-35.5 14.5t-14.5 35.5t14.5 35.5t35.5 14.5t35.5 -14.5t14.5 -35.5z" />
    <glyph glyph-name="slash" unicode="/" 
d="M466 659q0 -6 -8 -24l-330 -690q-13 -28 -35 -28q-15 0 -25 10.5t-10 24.5q0 6 8 24l330 690q13 28 35 28q15 0 25 -10.5t10 -24.5z" />
    <glyph glyph-name="zero" unicode="0" 
d="M474 305q0 -23 -0.5 -39t-4.5 -51.5t-11.5 -62t-23 -59t-37.5 -54t-56.5 -36t-78.5 -14.5q-212 0 -212 317q0 23 0.5 39t4.5 51.5t11.5 62t23 59t37.5 54t56.5 36t78.5 14.5q212 0 212 -317zM405 315q0 246 -143 246t-143 -246q0 -265 143 -265t143 265z" />
    <glyph glyph-name="one" unicode="1" 
d="M442 30q0 -30 -40 -30h-251q-40 0 -40 30q0 14 7.5 21.5t14 8.5t18.5 1h91v463q-45 -24 -102 -24q-35 0 -35 30q0 29 29 31q82 4 119 44q14 17 28 17q30 0 30 -41v-520h91q12 0 18.5 -1t14 -8.5t7.5 -21.5z" />
    <glyph glyph-name="two" unicode="2" 
d="M472 41q0 -24 -8 -32.5t-32 -8.5h-339q-41 0 -41 31q0 14 15 27l221 186q115 96 115 183q0 63 -46.5 98.5t-112.5 35.5q-41 0 -73.5 -21t-43.5 -56q14 -11 14 -32q0 -20 -13.5 -32.5t-30.5 -12.5q-16 0 -30.5 11.5t-14.5 36.5q0 66 55.5 116.5t141.5 50.5
q94 0 158.5 -53.5t64.5 -141.5q0 -103 -109 -200q-24 -22 -99 -84t-99 -82h238q0 18 1 25.5t9 14.5t25 7q23 0 28.5 -10.5t5.5 -30.5v-26z" />
    <glyph glyph-name="three" unicode="3" 
d="M480 174q0 -73 -60.5 -129t-155.5 -56q-94 0 -157 40.5t-63 106.5q0 23 13 35t32 12t31.5 -13t12.5 -31q0 -19 -12 -31q17 -31 60 -44.5t83 -13.5q65 0 106 37.5t41 86.5q0 48 -40.5 86.5t-109.5 38.5h-46q-12 0 -18.5 1t-14 8.5t-7.5 21.5q0 20 12.5 25t59.5 8
q60 3 93 30q42 34 42 87q0 34 -33.5 57.5t-84.5 23.5q-80 0 -111 -31q9 -9 9 -27q0 -20 -13.5 -32.5t-30.5 -12.5t-31 12t-14 35q0 53 50.5 85t139.5 32q83 0 135.5 -41.5t52.5 -99.5q0 -42 -21.5 -81.5t-62.5 -65.5q51 -23 82 -65.5t31 -94.5z" />
    <glyph glyph-name="four" unicode="4" 
d="M495 199q0 -30 -40 -30h-78v-108h62q12 0 18.5 -1t14 -8.5t7.5 -21.5q0 -30 -40 -30h-180q-40 0 -40 30q0 14 7.5 21.5t14 8.5t18.5 1h62v108h-252q-24 0 -32 8t-8 32q0 22 9 35l228 358q9 15 16 18t26 3h28q25 0 33 -8t8 -33v-352h78q12 0 18.5 -1t14 -8.5t7.5 -21.5z
M321 230v349l-222 -349h222z" />
    <glyph glyph-name="five" unicode="5" 
d="M472 190q0 -83 -65 -142t-159 -59q-83 0 -139.5 45t-56.5 108q0 26 14.5 37t30.5 11q17 0 30.5 -12t13.5 -33q0 -19 -13 -32q32 -63 120 -63q64 0 109.5 40.5t45.5 99.5q0 53 -34.5 95.5t-92.5 42.5q-84 0 -126 -50q-12 -15 -30 -15q-15 0 -22.5 7.5t-8.5 14t-1 19.5v266
q0 24 8 32.5t32 8.5h269q12 0 18.5 -1t14 -8.5t7.5 -21.5q0 -30 -40 -30h-240v-190q54 29 120 29q85 0 140 -60t55 -139z" />
    <glyph glyph-name="six" unicode="6" 
d="M471 193q0 -88 -61.5 -146t-145.5 -58q-40 0 -75.5 16t-67 49.5t-50 96.5t-18.5 148q0 145 80.5 234t187.5 89q67 0 100 -30.5t33 -72.5q0 -22 -13 -34.5t-32 -12.5t-31.5 13t-12.5 31q0 19 10 29q-16 16 -55 16q-70 0 -128 -61t-68 -162q64 58 149 58q83 0 140.5 -59
t57.5 -144zM402 193q0 58 -37.5 99.5t-96.5 41.5q-57 0 -96.5 -32.5t-39.5 -79.5q0 -43 8 -62q36 -110 124 -110q56 0 97 40t41 103z" />
    <glyph glyph-name="seven" unicode="7" 
d="M480 580q0 -10 -3.5 -15t-18.5 -19q-23 -23 -46 -49.5t-55.5 -76t-56.5 -103.5t-42 -130.5t-19 -157.5q0 -20 -10 -30t-24 -10q-35 0 -35 47q0 48 8.5 102.5t29.5 125t64.5 146t104.5 140.5h-264q0 -18 -1 -25.5t-9 -14.5t-25 -7q-23 0 -28.5 10.5t-5.5 30.5v42
q0 13 1 20t9 14t24 7q26 0 32 -16h330q12 0 18.5 -1t14 -8.5t7.5 -21.5z" />
    <glyph glyph-name="eight" unicode="8" 
d="M480 174q0 -74 -62.5 -129.5t-155.5 -55.5q-92 0 -155 55.5t-63 129.5q0 54 40 96t99 59q-59 19 -92 54.5t-33 78.5q0 63 58.5 111.5t145.5 48.5t145.5 -48t58.5 -112q0 -43 -32.5 -78t-92.5 -55q59 -17 99 -59t40 -96zM397 461q0 40 -39 70t-96 30q-58 0 -96.5 -30
t-38.5 -70q0 -42 40 -71.5t95 -29.5t95 29.5t40 71.5zM411 175q0 49 -41.5 86.5t-107.5 37.5q-65 0 -107 -38t-42 -86q0 -52 43.5 -88.5t105.5 -36.5t105.5 36.5t43.5 88.5z" />
    <glyph glyph-name="nine" unicode="9" 
d="M471 312q0 -143 -76 -233t-179 -90q-45 0 -76.5 11t-45 29t-19 33t-5.5 30q0 22 13 34.5t32 12.5t31.5 -13t12.5 -31q0 -17 -9 -28q22 -17 66 -17q71 0 123.5 64.5t60.5 158.5q-64 -58 -149 -58q-83 0 -140.5 59t-57.5 144q0 88 63 146t149 58q38 0 72.5 -15t65.5 -48.5
t49.5 -97t18.5 -149.5zM393 389q0 78 -41 129q-34 43 -87 43q-57 0 -100 -40t-43 -103q0 -58 37.5 -99.5t96.5 -41.5q60 0 98.5 34t38.5 78z" />
    <glyph glyph-name="colon" unicode=":" horiz-adv-x="292" 
d="M196 381q0 -21 -14.5 -35.5t-35.5 -14.5t-35.5 14.5t-14.5 35.5t14.5 35.5t35.5 14.5t35.5 -14.5t14.5 -35.5zM196 50q0 -21 -14.5 -35.5t-35.5 -14.5t-35.5 14.5t-14.5 35.5t14.5 35.5t35.5 14.5t35.5 -14.5t14.5 -35.5z" />
    <glyph glyph-name="semicolon" unicode=";" horiz-adv-x="292" 
d="M196 381q0 -21 -14.5 -35.5t-35.5 -14.5t-35.5 14.5t-14.5 35.5t14.5 35.5t35.5 14.5t35.5 -14.5t14.5 -35.5zM199 16q0 -64 -29.5 -109.5t-50.5 -45.5q-12 0 -22 10t-10 22q0 10 9 19q38 42 42 89q-42 9 -42 49q0 21 14 35.5t36 14.5q53 0 53 -84z" />
    <glyph glyph-name="less" unicode="&#x3c;" 
d="M468 91q0 -16 -11 -25.5t-24 -9.5q-10 0 -26 10l-333 209q-18 13 -18 31t22 33l329 207q16 10 26 10q13 0 24 -9.5t11 -25.5q0 -19 -24 -34l-287 -181l287 -181q24 -15 24 -34z" />
    <glyph glyph-name="equal" unicode="=" horiz-adv-x="817" 
d="M758 382q0 -35 -45 -35h-610q-45 0 -45 35t51 35h598q51 0 51 -35zM758 230q0 -35 -51 -35h-598q-51 0 -51 35t45 35h610q45 0 45 -35z" />
    <glyph glyph-name="greater" unicode="&#x3e;" 
d="M468 306q0 -18 -22 -33l-329 -207q-16 -10 -26 -10q-13 0 -24 9.5t-11 25.5q0 19 24 34l287 181l-287 181q-24 15 -24 34q0 16 11 25.5t24 9.5q10 0 26 -10l333 -209q18 -13 18 -31z" />
    <glyph glyph-name="question" unicode="?" horiz-adv-x="496" 
d="M437 493q0 -60 -60 -95q-48 -29 -76 -65t-28 -92v-17q0 -25 -8.5 -32.5t-31.5 -7.5q-28 0 -34 10t-6 42q0 27 3.5 46.5t16.5 48.5t44 58.5t80 58.5q31 21 31 45q0 27 -32.5 45t-97.5 18q-72 0 -101 -35q10 -12 10 -28q0 -20 -13.5 -32.5t-30.5 -12.5q-18 0 -31.5 12.5
t-13.5 34.5q0 50 46.5 86t133.5 36q59 0 100.5 -12.5t61.5 -33t28.5 -39.5t8.5 -39zM283 50q0 -21 -14.5 -35.5t-35.5 -14.5t-35.5 14.5t-14.5 35.5t14.5 35.5t35.5 14.5t35.5 -14.5t14.5 -35.5z" />
    <glyph glyph-name="at" unicode="@" horiz-adv-x="700" 
d="M641 80q0 -12 -6.5 -18t-21.5 -14q-95 -54 -205 -54q-147 0 -248.5 92t-101.5 220t102 219.5t246 91.5q235 0 235 -301q0 -102 -59 -156t-130 -54q-77 0 -132.5 58t-55.5 142q0 82 55 140.5t134 58.5q56 0 104 -33q-20 42 -54 61q-39 23 -97 23q-120 0 -206 -73.5
t-86 -177.5q0 -101 85.5 -175.5t207.5 -74.5q87 0 163 43q16 10 33 10q38 0 38 -28zM585 306q0 56 -38.5 97t-94.5 41q-53 0 -92.5 -40.5t-39.5 -98.5q0 -56 38.5 -97t94.5 -41q53 0 92.5 40.5t39.5 98.5z" />
    <glyph glyph-name="A" unicode="A" horiz-adv-x="758" 
d="M716 30q0 -30 -40 -30h-159q-41 0 -41 31q0 30 41 30h40l-40 111h-277l-40 -111h40q41 0 41 -31q0 -30 -41 -30h-159q-12 0 -18.5 1t-14 8.5t-7.5 21.5q0 30 40 30h46l189 529q6 15 16 23t17 9t20 1h19q14 0 21 -1t16.5 -9t15.5 -24l189 -528h46q12 0 18.5 -1t14 -8.5
t7.5 -21.5zM495 233l-117 326l-116 -326h233z" />
    <glyph glyph-name="B" unicode="B" horiz-adv-x="729" 
d="M670 167q0 -67 -67 -117t-166 -50h-351q-40 0 -40 30q0 14 7.5 21.5t14 8.5t18.5 1h54v489h-54q-40 0 -40 30q0 14 7.5 21.5t14 8.5t18.5 1h323q98 0 165 -46.5t67 -108.5q0 -50 -44.5 -85.5t-104.5 -50.5q83 -15 130.5 -57.5t47.5 -95.5zM572 455q0 38 -47.5 66.5
t-117.5 28.5h-198v-202h166q86 0 141.5 32t55.5 75zM601 169q0 47 -51.5 82.5t-124.5 35.5h-216v-226h200q79 0 135.5 31t56.5 77z" />
    <glyph glyph-name="C" unicode="C" horiz-adv-x="758" 
d="M699 168q0 -78 -78.5 -128.5t-210.5 -50.5q-151 0 -251.5 94t-100.5 223q0 128 101 222t249 94q133 0 212 -62q13 28 18 37q6 14 12 19.5t19 5.5q30 0 30 -41v-139q0 -13 -1 -20t-9.5 -14t-24.5 -7q-28 0 -33 23q-5 21 -9.5 33t-21.5 33t-45 37q-58 34 -140 34
q-122 0 -205 -76t-83 -179q0 -104 83 -180t207 -76q86 0 142 28q23 11 38 24t21.5 27t8.5 22t3 21q2 29 34 29q35 0 35 -33z" />
    <glyph glyph-name="D" unicode="D" horiz-adv-x="788" 
d="M728 300q0 -123 -93.5 -211.5t-226.5 -88.5h-322q-40 0 -40 30q0 14 7.5 21.5t14 8.5t18.5 1h54v489h-54q-40 0 -40 30q0 14 7.5 21.5t14 8.5t18.5 1h322q132 0 226 -91.5t94 -219.5zM659 301q0 100 -77.5 174.5t-192.5 74.5h-180v-489h181q113 0 191 70.5t78 169.5z" />
    <glyph glyph-name="E" unicode="E" horiz-adv-x="700" 
d="M670 41q0 -24 -8 -32.5t-32 -8.5h-544q-40 0 -40 30q0 14 7.5 21.5t14 8.5t18.5 1h54v489h-54q-40 0 -40 30q0 14 7.5 21.5t14 8.5t18.5 1h515q25 0 32.5 -8.5t7.5 -32.5v-73q0 -13 -1 -20t-9.5 -14t-24.5 -7q-23 0 -28.5 10.5t-5.5 30.5v53h-363v-203h199q0 25 1.5 34.5
t9 16t24.5 6.5q23 0 28.5 -10.5t5.5 -30.5v-93q0 -13 -1 -20t-9 -14t-24 -7q-24 0 -29.5 11t-5.5 46h-199v-225h392v69q0 13 1 20t9.5 14t24.5 7q23 0 28.5 -10.5t5.5 -30.5v-89z" />
    <glyph glyph-name="F" unicode="F" horiz-adv-x="671" 
d="M626 497q0 -13 -1 -20t-9.5 -14t-24.5 -7q-23 0 -28.5 10.5t-5.5 30.5v53h-348v-214h193q0 25 1.5 34.5t9 16t24.5 6.5q23 0 28.5 -10.5t5.5 -30.5v-93q0 -13 -1 -20t-9 -14t-24 -7q-24 0 -29.5 11t-5.5 46h-193v-214h78q12 0 18.5 -1t14 -8.5t7.5 -21.5q0 -30 -40 -30
h-201q-40 0 -40 30q0 14 7.5 21.5t14 8.5t18.5 1h54v489h-54q-40 0 -40 30q0 14 7.5 21.5t14 8.5t18.5 1h500q25 0 32.5 -8.5t7.5 -32.5v-73z" />
    <glyph glyph-name="G" unicode="G" horiz-adv-x="817" 
d="M772 239q0 -30 -41 -30h-32v-168q0 -13 -1 -20t-9 -14t-24 -7t-24.5 7t-9.5 14t-1 20v36q-88 -88 -224 -88q-144 0 -246 93t-102 224q0 128 101 222t249 94q133 0 212 -62q13 28 18 37q6 14 12 19.5t19 5.5q30 0 30 -41v-139q0 -13 -1 -20t-9.5 -14t-24.5 -7
q-28 0 -33 23q-5 21 -9.5 33t-21.5 33t-45 37q-58 34 -140 34q-121 0 -204.5 -75.5t-83.5 -180.5t83.5 -180t200.5 -75q81 0 141.5 44.5t74.5 114.5h-88q-12 0 -18.5 1t-14 8.5t-7.5 21.5q0 30 40 30h192q41 0 41 -31z" />
    <glyph glyph-name="H" unicode="H" horiz-adv-x="758" 
d="M711 30q0 -30 -40 -30h-177q-40 0 -40 30q0 14 7.5 21.5t14 8.5t18.5 1h54v226h-339v-226h54q12 0 18.5 -1t14 -8.5t7.5 -21.5q0 -30 -40 -30h-177q-40 0 -40 30q0 14 7.5 21.5t14 8.5t18.5 1h54v489h-54q-40 0 -40 30q0 14 7.5 21.5t14 8.5t18.5 1h177q12 0 18.5 -1
t14 -8.5t7.5 -21.5q0 -30 -40 -30h-54v-202h339v202h-54q-40 0 -40 30q0 14 7.5 21.5t14 8.5t18.5 1h177q12 0 18.5 -1t14 -8.5t7.5 -21.5q0 -30 -40 -30h-54v-489h54q12 0 18.5 -1t14 -8.5t7.5 -21.5z" />
    <glyph glyph-name="I" unicode="I" horiz-adv-x="350" 
d="M308 30q0 -30 -40 -30h-187q-40 0 -40 30q0 14 7.5 21.5t14 8.5t18.5 1h59v489h-59q-40 0 -40 30q0 14 7.5 21.5t14 8.5t18.5 1h187q12 0 18.5 -1t14 -8.5t7.5 -21.5q0 -30 -40 -30h-59v-489h59q12 0 18.5 -1t14 -8.5t7.5 -21.5z" />
    <glyph glyph-name="J" unicode="J" 
d="M478 581q0 -31 -41 -31h-30v-416q0 -66 -50 -105.5t-120 -39.5q-74 0 -120 31t-46 79q0 23 13 35t32 12t31.5 -13t12.5 -31q0 -16 -8 -26q29 -26 85 -26q12 0 24.5 2.5t32 10t32 27.5t12.5 50v410h-82q-41 0 -41 31q0 30 41 30h181q41 0 41 -30z" />
    <glyph glyph-name="K" unicode="K" horiz-adv-x="788" 
d="M743 30q0 -30 -41 -30h-126q-40 0 -40 30q0 15 7.5 22t17 8t31.5 1l-227 261l-162 -132v-129h54q12 0 18.5 -1t14 -8.5t7.5 -21.5q0 -30 -40 -30h-164q-40 0 -40 30q0 14 7.5 21.5t14 8.5t18.5 1h54v489h-54q-40 0 -40 30q0 14 7.5 21.5t14 8.5t18.5 1h164q12 0 18.5 -1
t14 -8.5t7.5 -21.5q0 -30 -40 -30h-54v-288l354 288q-22 0 -31 1t-16.5 8t-7.5 22q0 30 40 30h145q41 0 41 -31q0 -30 -41 -30h-40l-238 -193l257 -296h36q41 0 41 -31z" />
    <glyph glyph-name="L" unicode="L" horiz-adv-x="642" 
d="M597 41q0 -24 -8 -32.5t-32 -8.5h-471q-40 0 -40 30q0 14 7.5 21.5t14 8.5t18.5 1h54v489h-54q-40 0 -40 30q0 14 7.5 21.5t14 8.5t18.5 1h201q12 0 18.5 -1t14 -8.5t7.5 -21.5q0 -30 -40 -30h-78v-489h319v69q0 14 1 21t9.5 13.5t24.5 6.5q23 0 28.5 -10.5t5.5 -30.5
v-89z" />
    <glyph glyph-name="M" unicode="M" horiz-adv-x="933" 
d="M879 30q0 -30 -40 -30h-164q-12 0 -18.5 1t-14 8.5t-7.5 21.5q0 30 40 30h54v484h-1l-218 -499q-16 -35 -44 -35q-29 0 -44 37l-218 497h-1v-484h54q12 0 18.5 -1t14 -8.5t7.5 -21.5q0 -30 -40 -30h-164q-40 0 -40 30q0 14 7.5 21.5t14 8.5t18.5 1h54v489h-54
q-40 0 -40 30q0 14 7.5 21.5t14 8.5t18.5 1h96q25 0 36.5 -7.5t21.5 -29.5l219 -499l219 501q7 16 18 24.5t18.5 9.5t21.5 1h96q12 0 18.5 -1t14 -8.5t7.5 -21.5q0 -30 -40 -30h-54v-489h54q12 0 18.5 -1t14 -8.5t7.5 -21.5z" />
    <glyph glyph-name="N" unicode="N" horiz-adv-x="758" 
d="M704 580q0 -30 -40 -30h-54v-509q0 -26 -8 -33.5t-33 -7.5q-14 0 -22 1t-20 9t-21 24l-302 526h-1v-499h54q12 0 18.5 -1t14 -8.5t7.5 -21.5q0 -30 -40 -30h-164q-40 0 -40 30q0 14 7.5 21.5t14 8.5t18.5 1h54v489h-54q-40 0 -40 30q0 14 7.5 21.5t14 8.5t18.5 1h95
q14 0 22 -1t20 -9t21 -24l302 -526h1v499h-54q-40 0 -40 30q0 14 7.5 21.5t14 8.5t18.5 1h164q12 0 18.5 -1t14 -8.5t7.5 -21.5z" />
    <glyph glyph-name="O" unicode="O" horiz-adv-x="817" 
d="M758 305q0 -128 -101.5 -222t-248.5 -94q-146 0 -248 93t-102 224q0 128 101.5 222t248.5 94q146 0 248 -93t102 -224zM689 317q0 100 -82 172t-199 72t-199 -72t-82 -172q0 -109 82 -188t199 -79t199 79t82 188z" />
    <glyph glyph-name="P" unicode="P" horiz-adv-x="700" 
d="M641 428q0 -74 -71 -128.5t-176 -54.5h-185v-184h54q12 0 18.5 -1t14 -8.5t7.5 -21.5q0 -30 -40 -30h-177q-40 0 -40 30q0 14 7.5 21.5t14 8.5t18.5 1h54v489h-54q-40 0 -40 30q0 14 7.5 21.5t14 8.5t18.5 1h308q105 0 176 -54.5t71 -128.5zM572 428q0 50 -56.5 86
t-138.5 36h-168v-244h168q81 0 138 36.5t57 85.5z" />
    <glyph glyph-name="Q" unicode="Q" horiz-adv-x="817" 
d="M758 305q0 -21 -3 -42.5t-14 -54t-29.5 -61.5t-53 -61.5t-80.5 -57.5l108 -119q22 -24 22 -31q0 -17 -31 -17q-18 0 -26.5 3t-19.5 15l-99 109l-15 16q-3 0 -7 -2q-52 -13 -102 -13q-146 0 -248 93t-102 224q0 128 101.5 222t248.5 94q146 0 248 -93t102 -224zM689 306
q0 104 -81.5 179.5t-199.5 75.5q-117 0 -199 -75t-82 -181q0 -104 81.5 -179.5t199.5 -75.5q33 0 63 6l-81 93q0 11 4 15.5t9.5 5.5t18.5 1q17 0 21.5 -1.5t13.5 -9.5q4 -4 12.5 -14t25.5 -28.5t38 -40.5q70 31 113 93t43 136z" />
    <glyph glyph-name="R" unicode="R" horiz-adv-x="758" 
d="M754 94q0 -39 -31.5 -72t-81.5 -33q-64 0 -97 45q-18 25 -22 48t-4 75q0 48 -5.5 63.5t-34.5 31.5q-46 23 -126 23h-143v-214h54q12 0 18.5 -1t14 -8.5t7.5 -21.5q0 -30 -40 -30h-177q-40 0 -40 30q0 14 7.5 21.5t14 8.5t18.5 1h54v489h-54q-40 0 -40 30q0 14 7.5 21.5
t14 8.5t18.5 1h268q110 0 191 -49t81 -119q0 -41 -30.5 -77t-84.5 -59q37 -18 56 -46q14 -21 17 -38t3 -62q0 -24 0.5 -35.5t3 -29t8 -25.5t16 -14.5t26.5 -6.5q17 0 29.5 11.5t14.5 33.5q3 30 34 30q35 0 35 -31zM557 443q0 46 -64.5 76.5t-147.5 30.5h-136v-214h136
q83 0 147.5 30.5t64.5 76.5z" />
    <glyph glyph-name="S" unicode="S" horiz-adv-x="583" 
d="M524 166q0 -70 -57 -123.5t-152 -53.5q-122 0 -188 48q-8 -23 -11.5 -30.5t-10 -12.5t-17.5 -5q-30 0 -30 41v132q0 13 1 20t9.5 14t24.5 7q15 0 23 -6t9 -11.5t2 -15.5q4 -61 55 -92q49 -28 134 -28q65 0 104 34t39 78q0 19 -8 37t-16 26l-8 8q-23 20 -41.5 26.5
t-68.5 17.5l-43 9q-55 12 -77 17.5t-46 16.5t-44 30q-49 47 -49 108q0 66 58 115t148 49q102 0 162 -51q12 35 17.5 43t21.5 8q30 0 30 -41v-132q0 -13 -1 -20t-9.5 -14t-24.5 -7q-14 0 -21.5 5t-9.5 10.5t-4 16.5q-23 121 -162 121q-61 0 -100.5 -30t-39.5 -69
q0 -40 33 -64t66 -31l148 -31q67 -14 110.5 -62t43.5 -108z" />
    <glyph glyph-name="T" unicode="T" horiz-adv-x="758" 
d="M719 497q0 -13 -1 -20t-9.5 -14t-24.5 -7q-23 0 -28.5 10.5t-5.5 30.5v53h-237v-489h93q41 0 41 -31q0 -30 -41 -30h-255q-41 0 -41 31q0 30 41 30h93v489h-237v-53q0 -13 -1 -20t-9.5 -14t-24.5 -7q-23 0 -28.5 10.5t-5.5 30.5v73q0 25 8 33t33 8h600q25 0 32.5 -8.5
t7.5 -32.5v-73z" />
    <glyph glyph-name="U" unicode="U" horiz-adv-x="758" 
d="M711 580q0 -30 -40 -30h-54v-344q0 -92 -70 -154.5t-169 -62.5q-97 0 -167.5 62t-70.5 155v344h-54q-40 0 -40 30q0 14 7.5 21.5t14 8.5t18.5 1h177q12 0 18.5 -1t14 -8.5t7.5 -21.5q0 -30 -40 -30h-54v-338q0 -78 52.5 -120t117.5 -42q63 0 116 42t53 120v338h-54
q-40 0 -40 30q0 14 7.5 21.5t14 8.5t18.5 1h177q12 0 18.5 -1t14 -8.5t7.5 -21.5z" />
    <glyph glyph-name="V" unicode="V" horiz-adv-x="758" 
d="M729 580q0 -30 -40 -30h-41l-205 -523q-6 -16 -15 -24t-17 -9.5t-23 -1.5h-19q-27 0 -37 7.5t-18 28.5l-205 522h-41q-12 0 -18.5 1t-14 8.5t-7.5 21.5q0 30 40 30h154q41 0 41 -31q0 -30 -41 -30h-39l196 -499l195 499h-39q-41 0 -41 30q0 31 41 31h154q12 0 18.5 -1
t14 -8.5t7.5 -21.5z" />
    <glyph glyph-name="W" unicode="W" horiz-adv-x="1050" 
d="M1025 580q0 -30 -41 -30h-34l-157 -524q-7 -23 -19.5 -28.5t-34.5 -5.5q-27 0 -37 7t-17 31l-161 532l-160 -533q-8 -25 -19 -31t-35 -6q-39 0 -50 22l-161 536h-34q-41 0 -41 31q0 30 41 30h135q41 0 41 -31q0 -30 -41 -30h-42l152 -507l161 534q7 23 18 28.5t36 5.5
q15 0 22.5 -1t17 -9t14.5 -24l160 -534l152 507h-42q-41 0 -41 30q0 31 41 31h135q41 0 41 -31z" />
    <glyph glyph-name="X" unicode="X" horiz-adv-x="758" 
d="M713 30q0 -30 -41 -30h-157q-40 0 -40 30q0 14 7.5 21.5t14 8.5t18.5 1h21l-165 212l-155 -212h23q41 0 41 -31q0 -30 -41 -30h-156q-41 0 -41 30q0 31 41 31h49l200 263l-183 226h-49q-41 0 -41 31q0 30 41 30h156q41 0 41 -31q0 -30 -41 -30h-19l134 -168l125 168h-22
q-41 0 -41 31q0 30 41 30h156q41 0 41 -31q0 -30 -41 -30h-49l-171 -226l212 -263h50q41 0 41 -31z" />
    <glyph glyph-name="Y" unicode="Y" horiz-adv-x="758" 
d="M727 580q0 -30 -41 -30h-48l-225 -306v-183h54q12 0 18.5 -1t14 -8.5t7.5 -21.5q0 -30 -40 -30h-177q-40 0 -40 30q0 14 7.5 21.5t14 8.5t18.5 1h54v183l-225 306h-48q-41 0 -41 31q0 30 41 30h156q41 0 41 -31q0 -30 -41 -30h-23l174 -236l175 236h-23q-41 0 -41 31
q0 30 41 30h156q41 0 41 -31z" />
    <glyph glyph-name="Z" unicode="Z" horiz-adv-x="642" 
d="M589 41q0 -24 -8 -32.5t-32 -8.5h-450q-13 0 -20 1t-14 9t-7 24q0 18 12 31l416 485h-344v-53q0 -13 -1 -20t-9.5 -14t-24.5 -7q-23 0 -28.5 10.5t-5.5 30.5v73q0 25 8 33t33 8h428q13 0 20 -1t14 -9t7 -24q0 -18 -12 -31l-416 -485h365v72q0 13 1 20t9.5 14t24.5 7
q23 0 28.5 -10.5t5.5 -30.5v-92z" />
    <glyph glyph-name="bracketleft" unicode="[" horiz-adv-x="297" 
d="M273 -53q0 -30 -40 -30h-83q-25 0 -32.5 8.5t-7.5 32.5v695q0 24 8 32.5t32 8.5h83q12 0 18.5 -1t14 -8.5t7.5 -21.5q0 -30 -40 -30h-54v-655h54q12 0 18.5 -1t14 -8.5t7.5 -21.5z" />
    <glyph glyph-name="backslash" unicode="\" 
d="M466 -48q0 -14 -10 -24.5t-25 -10.5q-21 0 -35 27l-331 691q-7 14 -7 24q0 14 10 24.5t25 10.5q21 0 35 -27l331 -691q7 -14 7 -24z" />
    <glyph glyph-name="bracketright" unicode="]" horiz-adv-x="297" 
d="M186 -42q0 -24 -8 -32.5t-32 -8.5h-83q-12 0 -18.5 1t-14 8.5t-7.5 21.5q0 30 40 30h54v655h-54q-12 0 -18.5 1t-14 8.5t-7.5 21.5q0 30 40 30h83q25 0 32.5 -8.5t7.5 -32.5v-695z" />
    <glyph glyph-name="asciicircum" unicode="^" 
d="M437 538q26 -13 14 -39t-38 -15l-151 65l-151 -65q-16 -7 -28.5 3t-12 26.5t17.5 24.5l163 79q11 5 23 0z" />
    <glyph glyph-name="underscore" unicode="_" horiz-adv-x="758" 
d="M758 -160h-758v70h758v-70z" />
    <glyph glyph-name="grave" unicode="`" 
d="M368 517q0 -11 -8 -25.5t-25 -14.5q-8 0 -18 5l-133 59q-28 13 -28 35q0 15 10 25t25 10q8 0 19 -5l133 -60q9 -4 13 -6.5t8 -8.5t4 -14z" />
    <glyph glyph-name="a" unicode="a" horiz-adv-x="510" 
d="M499 31q0 -15 -7.5 -22t-16 -8t-25.5 -1q-83 0 -105 32q-55 -38 -142 -38q-70 0 -115 39.5t-45 94.5q0 68 77.5 107.5t213.5 41.5q0 51 -33 76.5t-90 25.5q-25 0 -37 -1t-14.5 -3t-2.5 -8q-1 -24 -14.5 -35t-29.5 -11q-19 0 -32 12t-13 34q0 73 142 73q96 0 144.5 -46.5
t48.5 -108.5v-216q18 -8 56 -8q40 0 40 -30zM334 134v84q-111 -4 -166.5 -29t-55.5 -61q0 -30 27.5 -51.5t71.5 -21.5q49 0 84 16q18 8 27 20t10.5 20t1.5 23z" />
    <glyph glyph-name="b" unicode="b" horiz-adv-x="583" 
d="M538 216q0 -93 -66.5 -157.5t-157.5 -64.5q-79 0 -134 59q0 -16 -0.5 -23.5t-3.5 -15.5t-10.5 -11t-19.5 -3q-16 0 -24.5 7t-9.5 14t-1 20v509h-54q-40 0 -40 30q0 14 7.5 21.5t14 8.5t18.5 1h83q25 0 32.5 -8.5t7.5 -32.5v-187q62 54 145 54q89 0 151 -65t62 -156z
M469 216q0 65 -43 112.5t-107 47.5q-54 0 -96.5 -34t-42.5 -80v-67q0 -48 36 -94t94 -46q64 0 111.5 46.5t47.5 114.5z" />
    <glyph glyph-name="c" unicode="c" horiz-adv-x="467" 
d="M437 109q0 -9 -8 -25.5t-25.5 -38t-54.5 -36.5t-85 -15q-93 0 -156.5 65.5t-63.5 156.5q0 36 12.5 72.5t38.5 72t73 57.5t108 22q149 0 149 -73q0 -21 -13 -33.5t-32 -12.5q-43 0 -44 49q-26 9 -60 9q-47 0 -81.5 -18t-51 -46t-23.5 -52.5t-7 -46.5q0 -68 46.5 -114.5
t110.5 -46.5q71 0 99 60q5 14 12 18t21 4q35 0 35 -28z" />
    <glyph glyph-name="d" unicode="d" horiz-adv-x="583" 
d="M565 30q0 -30 -40 -30h-83q-25 0 -32.5 8.5t-7.5 32.5v17q-59 -64 -145 -64q-87 0 -150 64.5t-63 156.5q0 93 65.5 157.5t158.5 64.5q76 0 134 -51v164h-54q-12 0 -18.5 1t-14 8.5t-7.5 21.5q0 30 40 30h83q25 0 32.5 -8.5t7.5 -32.5v-509h54q12 0 18.5 -1t14 -8.5
t7.5 -21.5zM402 197v66q0 45 -38.5 79t-90.5 34q-65 0 -112.5 -47t-47.5 -114q0 -66 43.5 -113t105.5 -47q60 0 100 46t40 96z" />
    <glyph glyph-name="e" unicode="e" horiz-adv-x="467" 
d="M437 109q0 -31 -45.5 -73t-128.5 -42q-94 0 -159.5 65.5t-65.5 158.5q0 91 61 156.5t149 65.5q89 0 139 -59.5t50 -152.5q0 -13 -3 -21t-9.5 -11.5t-12 -4t-15.5 -0.5h-288q10 -60 56 -98t104 -38q75 0 100 60q5 14 12 18t21 4q35 0 35 -28zM366 251q-5 70 -39 99t-79 29
q-50 0 -89 -36t-49 -92h256z" />
    <glyph glyph-name="f" unicode="f" horiz-adv-x="321" 
d="M362 557q0 -20 -13.5 -32t-29.5 -12t-26.5 10.5t-14 19.5t-3.5 13q-17 0 -28 -1.5t-29 -8t-28 -24t-10 -44.5v-47h81q12 0 18.5 -1t14 -8.5t7.5 -21.5q0 -30 -40 -30h-81v-309h78q12 0 18.5 -1t14 -8.5t7.5 -21.5q0 -30 -40 -30h-201q-40 0 -40 30q0 14 7.5 21.5t14 8.5
t18.5 1h54v309h-43q-40 0 -40 30q0 31 41 31h42v53q0 62 46 97.5t110 35.5q95 0 95 -60z" />
    <glyph glyph-name="g" unicode="g" 
d="M509 388q0 -20 -12.5 -30.5t-27.5 -10.5q-11 0 -23 8t-16 26q-33 -3 -58 -17q26 -43 26 -87q0 -67 -48 -114t-117 -47q-53 0 -90 25q-6 -15 -6 -28q1 -22 12 -36q12 -14 33 -14q8 -2 29 -2h70q91 0 145 -29q35 -19 52 -50.5t17 -63.5q0 -63 -68 -105t-165 -42t-165 41.5
t-68 105.5q0 79 74 124q-23 31 -23 72q0 39 20 68q-32 41 -32 95q0 65 48 112.5t117 47.5q53 0 97 -30q47 35 106 35q37 0 55 -16.5t18 -37.5zM329 277q0 40 -28 70t-68 30q-39 0 -67.5 -29.5t-28.5 -71.5q0 -40 28 -70t68 -30q39 0 67.5 29.5t28.5 71.5zM437 -82
q0 30 -17 49t-53 26.5t-61 9t-71 1.5q-57 0 -73 -2t-34 -14q-41 -26 -41 -70q0 -34 51 -60.5t124 -26.5t124 26.5t51 60.5z" />
    <glyph glyph-name="h" unicode="h" horiz-adv-x="583" 
d="M565 30q0 -30 -40 -30h-177q-12 0 -18.5 1t-14 8.5t-7.5 21.5q0 30 40 30h54v224q0 47 -16 69t-65 22q-31 0 -61.5 -12t-55 -45t-24.5 -82v-176h54q12 0 18.5 -1t14 -8.5t7.5 -21.5q0 -30 -40 -30h-177q-40 0 -40 30q0 14 7.5 21.5t14 8.5t18.5 1h54v489h-54
q-40 0 -40 30q0 14 7.5 21.5t14 8.5t18.5 1h83q25 0 32.5 -8.5t7.5 -32.5v-190q62 57 147 57q144 0 144 -146v-230h54q12 0 18.5 -1t14 -8.5t7.5 -21.5z" />
    <glyph glyph-name="i" unicode="i" horiz-adv-x="292" 
d="M265 30q0 -30 -40 -30h-168q-40 0 -40 30q0 14 7.5 21.5t14 8.5t18.5 1h54v309h-49q-41 0 -41 31q0 30 41 30h78q25 0 32.5 -8.5t7.5 -32.5v-329h44q41 0 41 -31zM196 544q0 -20 -14.5 -35t-36.5 -15q-20 0 -35 15t-15 35t14.5 35t36.5 15q20 0 35 -15t15 -35z" />
    <glyph glyph-name="j" unicode="j" horiz-adv-x="321" 
d="M209 -47q0 -41 -11.5 -79.5t-44.5 -70t-82 -31.5q-54 0 -85.5 20.5t-31.5 55.5q0 21 13.5 33.5t31.5 12.5q44 0 44 -53l1 -3q4 -5 30 -5q66 0 66 124v413h-63q-41 0 -41 31q0 30 41 30h92q25 0 32.5 -8.5t7.5 -32.5v-437zM209 544q0 -20 -14.5 -35t-36.5 -15
q-20 0 -35 15t-15 35t14.5 35t36.5 15q20 0 35 -15t15 -35z" />
    <glyph glyph-name="k" unicode="k" horiz-adv-x="554" 
d="M536 30q0 -30 -41 -30h-126q-12 0 -18.5 1t-14 8.5t-7.5 21.5q0 30 40 30h19l-127 157l-87 -77v-80h54q12 0 18.5 -1t14 -8.5t7.5 -21.5q0 -30 -40 -30h-164q-40 0 -40 30q0 14 7.5 21.5t14 8.5t18.5 1h54v489h-54q-40 0 -40 30q0 14 7.5 21.5t14 8.5t18.5 1h70
q25 0 32.5 -8.5t7.5 -32.5v-354l174 154h-40q-40 0 -40 30q0 14 7.5 21.5t14 8.5t18.5 1h164q41 0 41 -31q0 -30 -41 -30h-39l-130 -115l157 -194h35q41 0 41 -31z" />
    <glyph glyph-name="l" unicode="l" horiz-adv-x="292" 
d="M274 30q0 -30 -40 -30h-177q-40 0 -40 30q0 14 7.5 21.5t14 8.5t18.5 1h54v489h-54q-40 0 -40 30q0 14 7.5 21.5t14 8.5t18.5 1h83q25 0 32.5 -8.5t7.5 -32.5v-509h54q12 0 18.5 -1t14 -8.5t7.5 -21.5z" />
    <glyph glyph-name="m" unicode="m" horiz-adv-x="875" 
d="M858 30q0 -30 -40 -30h-177q-40 0 -40 30q0 14 7.5 21.5t14 8.5t18.5 1h54v224q0 48 -16.5 69.5t-65.5 21.5q-51 0 -96 -34t-45 -105v-176h54q12 0 18.5 -1t14 -8.5t7.5 -21.5q0 -30 -40 -30h-177q-40 0 -40 30q0 14 7.5 21.5t14 8.5t18.5 1h54v224q0 48 -16.5 69.5
t-65.5 21.5q-51 0 -96 -34t-45 -105v-176h54q12 0 18.5 -1t14 -8.5t7.5 -21.5q0 -30 -40 -30h-177q-40 0 -40 30q0 14 7.5 21.5t14 8.5t18.5 1h54v309h-54q-40 0 -40 30q0 14 7.5 21.5t14 8.5t18.5 1h83q28 0 34 -10t6 -41q63 57 147 57q99 0 131 -71q67 71 161 71
q145 0 145 -146v-230h54q12 0 18.5 -1t14 -8.5t7.5 -21.5z" />
    <glyph glyph-name="n" unicode="n" horiz-adv-x="583" 
d="M565 30q0 -30 -40 -30h-177q-12 0 -18.5 1t-14 8.5t-7.5 21.5q0 30 40 30h54v224q0 47 -16 69t-65 22q-31 0 -61.5 -12t-55 -45t-24.5 -82v-176h54q12 0 18.5 -1t14 -8.5t7.5 -21.5q0 -30 -40 -30h-177q-40 0 -40 30q0 14 7.5 21.5t14 8.5t18.5 1h54v309h-54
q-40 0 -40 30q0 14 7.5 21.5t14 8.5t18.5 1h83q28 0 34 -10t6 -41q62 57 147 57q144 0 144 -146v-230h54q12 0 18.5 -1t14 -8.5t7.5 -21.5z" />
    <glyph glyph-name="o" unicode="o" 
d="M486 216q0 -93 -65.5 -157.5t-158.5 -64.5t-158.5 64.5t-65.5 157.5q0 92 65.5 158t158.5 66t158.5 -66t65.5 -158zM417 223q0 66 -46 111t-109 45t-109 -45t-46 -111q0 -69 45 -118.5t110 -49.5q64 0 109.5 49.5t45.5 118.5z" />
    <glyph glyph-name="p" unicode="p" horiz-adv-x="583" 
d="M538 216q0 -93 -66.5 -157.5t-157.5 -64.5q-79 0 -134 59v-214h54q12 0 18.5 -1t14 -8.5t7.5 -21.5q0 -30 -40 -30h-177q-40 0 -40 30q0 14 7.5 21.5t14 8.5t18.5 1h54v531h-54q-40 0 -40 30q0 14 7.5 21.5t14 8.5t18.5 1h83q28 0 34 -9.5t6 -38.5q62 54 145 54
q89 0 151 -65t62 -156zM469 216q0 65 -43 112.5t-107 47.5q-54 0 -96.5 -34t-42.5 -80v-67q0 -48 36 -94t94 -46q64 0 111.5 46.5t47.5 114.5z" />
    <glyph glyph-name="q" unicode="q" horiz-adv-x="554" 
d="M565 -192q0 -30 -40 -30h-177q-12 0 -18.5 1t-14 8.5t-7.5 21.5q0 30 40 30h54v218q-65 -63 -145 -63q-87 0 -150 64.5t-63 156.5q0 93 66.5 157.5t157.5 64.5q75 0 134 -59v18q0 13 1 20t9.5 14t24.5 7q23 0 28.5 -10.5t5.5 -30.5v-557h54q12 0 18.5 -1t14 -8.5
t7.5 -21.5zM402 195v37q0 54 -36.5 99t-93.5 45q-64 0 -111.5 -46.5t-47.5 -114.5q0 -66 43.5 -113t105.5 -47q60 0 100 45.5t40 94.5z" />
    <glyph glyph-name="r" unicode="r" horiz-adv-x="408" 
d="M378 375q0 -19 -12.5 -31t-29.5 -12q-14 0 -27.5 9.5t-14.5 33.5q-37 -4 -63.5 -33t-38.5 -68.5t-12 -85.5v-127h78q12 0 18.5 -1t14 -8.5t7.5 -21.5q0 -30 -40 -30h-201q-40 0 -40 30q0 14 7.5 21.5t14 8.5t18.5 1h54v309h-54q-40 0 -40 30q0 14 7.5 21.5t14 8.5t18.5 1
h83q28 0 34 -10t6 -45q52 61 123 61q35 0 55 -19.5t20 -42.5z" />
    <glyph glyph-name="s" unicode="s" horiz-adv-x="414" 
d="M378 125q0 -51 -40 -91t-129 -40q-67 0 -109 34q-8 -34 -35 -34q-30 0 -30 41v96q0 13 1 20t9.5 14t24.5 7q28 0 34 -25q6 -20 11.5 -33t17 -28t31 -23t46.5 -8q12 0 24 1.5t34 7t35.5 21.5t13.5 40q0 27 -22.5 44t-53.5 24q-17 0 -61 11q-145 27 -145 118q0 17 6.5 35
t23 38t52 32.5t86.5 12.5q55 0 90 -20q7 20 29 20q30 0 30 -41v-69q0 -13 -1 -20t-9.5 -14t-24.5 -7q-14 0 -22 5.5t-9.5 11.5t-2.5 15q-1 11 -3.5 18t-10 18t-25 16.5t-43.5 5.5q-53 0 -79 -16t-26 -41q0 -28 30 -40t101 -25q151 -28 151 -132z" />
    <glyph glyph-name="t" unicode="t" horiz-adv-x="408" 
d="M349 125q0 -57 -36.5 -94t-87.5 -37q-44 0 -79 30t-35 99v247h-52q-40 0 -40 30q0 31 41 31h51v82q0 13 1 20t9.5 14t24.5 7q23 0 28.5 -10.5t5.5 -30.5v-82h111q12 0 18.5 -1t14 -8.5t7.5 -21.5q0 -30 -40 -30h-111v-241q0 -74 49 -74q21 0 36 18.5t15 52.5q0 12 1 18.5
t9 13.5t24 7t24.5 -7t9.5 -13.5t1 -19.5z" />
    <glyph glyph-name="u" unicode="u" horiz-adv-x="583" 
d="M565 30q0 -30 -40 -30h-83q-13 0 -19.5 1t-13.5 9.5t-7 24.5q-53 -41 -137 -41q-154 0 -154 121v255h-54q-40 0 -40 30q0 14 7.5 21.5t14 8.5t18.5 1h83q25 0 32.5 -8.5t7.5 -32.5v-269q0 -16 1.5 -24t9.5 -19.5t28 -17t52 -5.5q18 0 36 3t41.5 12t38.5 31.5t15 55.5v213
h-54q-12 0 -18.5 1t-14 8.5t-7.5 21.5q0 30 40 30h83q25 0 32.5 -8.5t7.5 -32.5v-329h54q12 0 18.5 -1t14 -8.5t7.5 -21.5z" />
    <glyph glyph-name="v" unicode="v" horiz-adv-x="554" 
d="M527 400q0 -30 -40 -30h-40l-115 -340q-7 -23 -20 -28.5t-35 -5.5q-16 0 -23.5 1t-17 9t-15.5 25l-115 339h-40q-40 0 -40 30q0 14 7.5 21.5t14 8.5t18.5 1h140q41 0 41 -31q0 -30 -41 -30h-41l112 -328l111 328h-41q-41 0 -41 31q0 30 41 30h140q12 0 18.5 -1t14 -8.5
t7.5 -21.5z" />
    <glyph glyph-name="w" unicode="w" horiz-adv-x="758" 
d="M734 400q0 -30 -41 -30h-33l-93 -340q-6 -23 -17.5 -28.5t-34.5 -5.5q-30 0 -39 9t-17 40l-41 153l-38 162q-3 -30 -24 -114.5t-41 -155.5t-22 -75q-10 -19 -49 -19q-17 0 -25 1.5t-16.5 9.5t-13.5 25l-92 338h-33q-41 0 -41 31q0 30 41 30h135q41 0 41 -31
q0 -30 -41 -30h-44l87 -318l93 343q6 20 15 28t31 8q16 0 26 -6t13 -11.5t6 -17.5l92 -336l84 310h-44q-41 0 -41 31q0 30 41 30h135q41 0 41 -31z" />
    <glyph glyph-name="x" unicode="x" horiz-adv-x="554" 
d="M524 30q0 -30 -41 -30h-140q-12 0 -18.5 1t-14 8.5t-7.5 21.5q0 30 40 30h23l-93 125l-89 -125h25q12 0 18.5 -1t14 -8.5t7.5 -21.5q0 -30 -40 -30h-140q-41 0 -41 30q0 31 41 31h50l126 162l-119 147h-50q-41 0 -41 31q0 30 41 30h140q12 0 18.5 -1t14 -8.5t7.5 -21.5
q0 -30 -40 -30h-21l79 -100l75 100h-22q-41 0 -41 31q0 30 41 30h140q12 0 18.5 -1t14 -8.5t7.5 -21.5q0 -30 -40 -30h-50l-115 -147l131 -162h50q41 0 41 -31z" />
    <glyph glyph-name="y" unicode="y" horiz-adv-x="554" 
d="M527 400q0 -30 -40 -30h-40l-155 -453q-19 -55 -65 -100t-109 -45q-42 0 -70 24.5t-28 57.5q0 20 12 32t32 12q18 0 30.5 -12t12.5 -32q0 -5 -1 -10t-1 -6q0 -5 15 -5q87 0 119 105q20 57 22 62l-151 370h-41q-41 0 -41 31q0 30 41 30h140q12 0 18.5 -1t14 -8.5
t7.5 -21.5q0 -30 -40 -30h-38l95 -238l23 -63l98 301h-41q-40 0 -40 30q0 14 7.5 21.5t14 8.5t18.5 1h141q12 0 18.5 -1t14 -8.5t7.5 -21.5z" />
    <glyph glyph-name="z" unicode="z" horiz-adv-x="467" 
d="M422 41q0 -24 -8 -32.5t-32 -8.5h-312q-13 0 -20 1t-14 9.5t-7 24.5q0 13 3 20l289 315h-208v-26q0 -13 -1 -20t-9.5 -14t-24.5 -7q-23 0 -28.5 10.5t-5.5 30.5v46q0 25 8 33t33 8h293q13 0 20 -1t14 -9.5t7 -24.5q0 -12 -3 -20l-289 -315h226v38q0 13 1 20t9.5 14
t24.5 7q23 0 28.5 -10.5t5.5 -30.5v-58z" />
    <glyph glyph-name="braceleft" unicode="{" 
d="M467 -52q0 -14 -7.5 -21.5t-14.5 -8.5t-20 -1q-90 0 -145 30q-24 13 -36.5 34t-14 34.5t-1.5 35.5v166q-2 53 -137 58q-34 0 -34 31q0 16 9 23t17 7q71 0 109 16q25 11 30.5 23.5t5.5 43.5v90q0 78 1 84q20 101 196 101q13 0 20 -1t14.5 -8.5t7.5 -21.5q0 -16 -9 -23
t-17 -7q-122 0 -141 -40q-3 -8 -3 -73v-132q-2 -50 -58 -83q58 -32 58 -96v-161q0 -16 2.5 -24.5t14 -20.5t41.5 -18t78 -7q34 0 34 -30z" />
    <glyph glyph-name="bar" unicode="|" 
d="M297 -36q0 -47 -35 -47t-35 47v683q0 47 35 47t35 -47v-683z" />
    <glyph glyph-name="braceright" unicode="}" 
d="M467 305q0 -16 -9 -23t-17 -7q-70 0 -108 -16q-25 -11 -30.5 -23.5t-5.5 -43.5v-90q0 -78 -1 -84q-19 -101 -197 -101q-12 0 -19 1t-15 8.5t-8 21.5q0 16 9 23t17 7q42 1 71 5.5t43 10t21.5 16t8.5 17t1 18.5v178q0 7 2 17t16.5 31t39.5 35q-58 31 -58 95v161
q0 17 -2.5 25.5t-14 21t-42 18t-79.5 6.5q-33 0 -33 30q0 14 8 21.5t15 8.5t19 1q91 0 146 -30q24 -13 36.5 -34t14 -34t1.5 -34v-167q2 -53 136 -59q34 0 34 -31z" />
    <glyph glyph-name="asciitilde" unicode="~" 
d="M438 334q0 -18 -49 -55q-45 -33 -78 -33t-67 34q-23 21 -31 21q-23 0 -70 -44q-13 -11 -24 -11q-12 0 -21.5 10t-9.5 22q0 18 49 55q45 33 78 33t67 -34q23 -21 31 -21q23 0 70 44q13 11 24 11q12 0 21.5 -10t9.5 -22z" />
    <glyph glyph-name="uni00A0" unicode="&#xa0;" 
 />
    <glyph glyph-name="exclamdown" unicode="&#xa1;" horiz-adv-x="292" 
d="M196 339q0 -21 -14.5 -35.5t-35.5 -14.5t-35.5 14.5t-14.5 35.5t14.5 35.5t35.5 14.5t35.5 -14.5t14.5 -35.5zM196 -176q0 -24 -11.5 -38t-21 -16.5t-17.5 -2.5t-17.5 2.5t-21 16.5t-11.5 38q0 30 2.5 85t2.5 75l4 173q2 31 8.5 39.5t32.5 8.5q39 0 40 -25l3 -122z" />
    <glyph glyph-name="cent" unicode="&#xa2;" horiz-adv-x="467" 
d="M437 109q0 -8 -7 -23.5t-22 -35.5t-47 -36t-73 -19v-57q0 -13 -9 -22t-22 -9t-22 9t-9 22v59q-80 13 -131 75.5t-51 143.5q0 44 16.5 87t59.5 82.5t106 50.5v57q0 13 9 22t22 9t22 -9t9 -22v-53q137 0 137 -73q0 -21 -13 -33.5t-32 -12.5q-43 0 -44 49q0 9 -48 9v-323
q59 7 81 59q5 14 12 18t21 4q35 0 35 -28zM226 62v311q-42 -11 -69.5 -43t-35.5 -60t-8 -54q0 -55 31.5 -97t81.5 -57z" />
    <glyph glyph-name="sterling" unicode="&#xa3;" horiz-adv-x="758" 
d="M717 144q0 -64 -43 -109.5t-105 -45.5q-18 0 -37.5 3.5t-33 7t-36.5 13t-31.5 13.5t-35.5 17.5t-32 16.5q-22 -36 -76.5 -53.5t-122.5 -17.5q-50 0 -86.5 25.5t-36.5 67.5q0 49 48.5 71.5t119.5 22.5q44 0 91 -18q-9 39 -47 113h-133q-14 0 -24.5 10t-10.5 25
q0 14 10.5 24.5t24.5 10.5h100q-19 48 -19 90q0 78 65.5 129t154.5 51q90 0 155.5 -43.5t65.5 -116.5q0 -14 -10.5 -24.5t-24.5 -10.5q-15 0 -25 10.5t-10 24.5q0 45 -44.5 67.5t-106.5 22.5q-60 0 -105 -30t-45 -80q0 -42 19 -90h209q15 0 25 -10.5t10 -24.5q0 -15 -10 -25
t-25 -10h-176q48 -96 53 -147q3 -2 20 -10.5t22 -10.5t20 -9.5t21.5 -10t20 -7.5t22.5 -7t21 -5t23.5 -4t22.5 -1q33 0 55.5 25t22.5 60q0 14 10.5 24.5t24.5 10.5q15 0 25 -10.5t10 -24.5zM301 88q-54 18 -92 18q-98 0 -98 -24q0 -23 53 -23q38 0 58 1t45 8t34 20z" />
    <glyph glyph-name="currency" unicode="&#xa4;" horiz-adv-x="817" 
d="M655 59q-24 -25 -57 8l-51 51q-61 -45 -139 -45q-75 0 -138 45l-52 -51q-33 -33 -57 -8q-25 24 8 57l51 52q-45 61 -45 138t45 138l-51 52q-33 33 -8 57q24 25 57 -8l52 -51q63 45 138 45q78 0 139 -45l51 51q33 33 57 8q25 -24 -8 -57l-51 -51q46 -62 46 -139t-46 -139
l51 -51q33 -33 8 -57zM572 306q0 68 -48 115.5t-116 47.5t-115.5 -47.5t-47.5 -115.5t47.5 -115.5t115.5 -47.5t116 47.5t48 115.5z" />
    <glyph glyph-name="yen" unicode="&#xa5;" horiz-adv-x="758" 
d="M727 580q0 -30 -41 -30h-48l-96 -131h65q14 0 24.5 -10.5t10.5 -24.5q0 -15 -10.5 -25t-24.5 -10h-117l-63 -86h180q14 0 24.5 -10t10.5 -25q0 -14 -10.5 -24.5t-24.5 -10.5h-194v-132h54q12 0 18.5 -1t14 -8.5t7.5 -21.5q0 -30 -40 -30h-177q-40 0 -40 30q0 14 7.5 21.5
t14 8.5t18.5 1h54v132h-192q-15 0 -25 10.5t-10 24.5q0 15 10 25t25 10h178l-63 86h-115q-15 0 -25 10t-10 25q0 14 10 24.5t25 10.5h63l-96 131h-48q-41 0 -41 31q0 30 41 30h156q41 0 41 -31q0 -30 -41 -30h-23l97 -131h155l97 131h-23q-41 0 -41 31q0 30 41 30h156
q41 0 41 -31zM404 349h-52l26 -35z" />
    <glyph glyph-name="brokenbar" unicode="&#xa6;" 
d="M297 407q0 -13 -10.5 -22t-24.5 -9t-24.5 9t-10.5 22v240q0 47 35 47t35 -47v-240zM297 -36q0 -47 -35 -47t-35 47v240q0 13 10.5 22t24.5 9t24.5 -9t10.5 -22v-240z" />
    <glyph glyph-name="section" unicode="&#xa7;" horiz-adv-x="545" 
d="M497 194q0 -35 -18 -64t-49 -45q19 -27 19 -60q0 -64 -52.5 -105.5t-124.5 -41.5t-124.5 34.5t-52.5 92.5q0 18 13 31t31 13t31 -13t13 -31q0 -15 -9 -27q22 -30 98 -30q43 0 75 21t32 56q0 15 -7.5 27.5t-24.5 22.5t-28 15t-34 14l-99 38q-60 23 -99.5 66t-39.5 98
q0 35 18.5 64t48.5 44q-19 28 -19 61q0 64 52.5 105.5t124.5 41.5t124.5 -34.5t52.5 -92.5q0 -18 -13 -31t-31 -13t-31 13t-13 31q0 15 9 27q-22 30 -98 30q-43 0 -75 -21t-32 -56q0 -15 7.5 -27.5t24.5 -22.5t28 -15t34 -14l99 -38q60 -23 99.5 -66t39.5 -98zM427 194
q0 64 -94 99l-99 38q-39 15 -68 34q-21 -3 -35 -20t-14 -39q0 -64 94 -99l99 -38q41 -17 68 -35q21 4 35 21t14 39z" />
    <glyph glyph-name="dieresis" unicode="&#xa8;" 
d="M225 544q0 -18 -13 -31.5t-33 -13.5q-18 0 -31.5 13t-13.5 32q0 17 13 31t33 14q19 0 32 -13.5t13 -31.5zM392 544q0 -18 -13 -31.5t-33 -13.5q-18 0 -31.5 13t-13.5 32q0 17 13 31t33 14q19 0 32 -13.5t13 -31.5z" />
    <glyph glyph-name="copyright" unicode="&#xa9;" horiz-adv-x="611" 
d="M611 306q0 -127 -89.5 -216.5t-215.5 -89.5q-127 0 -216.5 89.5t-89.5 216.5q0 126 89.5 215.5t216.5 89.5q126 0 215.5 -89.5t89.5 -215.5zM554 306q0 103 -72.5 175.5t-175.5 72.5t-176 -72.5t-73 -175.5q0 -104 72.5 -176.5t176.5 -72.5q103 0 175.5 73t72.5 176z
M429 244q0 -35 -35 -57.5t-94 -22.5q-68 0 -113 42t-45 100q0 57 45.5 99t111.5 42q60 0 94 -28q5 12 9 17q5 11 13 11q14 0 14 -18v-62q0 -19 -16 -19q-12 0 -15 11q-8 30 -34 46q-27 15 -62 15q-54 0 -91.5 -34t-37.5 -80q0 -47 37 -81t93 -34q38 0 63 13q29 14 32 42
q1 13 15 13q16 0 16 -15z" />
    <glyph glyph-name="ordfeminine" unicode="&#xaa;" horiz-adv-x="472" 
d="M428 336q0 -10 -6.5 -15t-13.5 -6t-22 -1q-69 0 -88 23q-46 -27 -119 -27q-59 0 -96.5 28t-37.5 66q0 47 65 74.5t179 29.5q0 71 -103 71h-31q-15 -4 -15 -8q-1 -32 -37 -32q-16 0 -26.5 8.5t-10.5 23.5q0 51 119 51q81 0 121.5 -32.5t40.5 -75.5v-152q17 -5 47 -5
q34 0 34 -21zM397 258q0 -9 -9 -15t-22 -6h-259q-13 0 -22 6t-9 15t9 15.5t22 6.5h259q13 0 22 -6.5t9 -15.5zM289 408v59q-94 -3 -140.5 -20.5t-46.5 -42.5q0 -21 23.5 -36t60.5 -15q41 0 70 11q15 6 23 14t9 14t1 16z" />
    <glyph glyph-name="guillemotleft" unicode="&#xab;" horiz-adv-x="583" 
d="M292 29q0 -12 -8.5 -20.5t-20.5 -8.5h-4q-21 0 -28 20q-33 101 -106 180q-8 8 -8 19q0 12 8 20q73 79 106 180q7 20 28 20h4q12 0 20.5 -8.5t8.5 -20.5q0 -6 -1 -9q-29 -95 -95 -182q66 -85 95 -181q1 -3 1 -9zM467 29q0 -12 -8.5 -20.5t-20.5 -8.5h-4q-21 0 -28 20
q-33 101 -106 180q-8 8 -8 19q0 12 8 20q73 79 106 180q7 20 28 20h4q12 0 20.5 -8.5t8.5 -20.5q0 -6 -1 -9q-29 -95 -95 -182q66 -85 95 -181q1 -3 1 -9z" />
    <glyph glyph-name="logicalnot" unicode="&#xac;" horiz-adv-x="817" 
d="M758 230q0 -14 -10.5 -24.5t-24.5 -10.5t-24.5 10.5t-10.5 24.5v117h-595q-14 0 -24.5 10.5t-10.5 24.5t10.5 24.5t24.5 10.5h630q14 0 24.5 -10.5t10.5 -24.5v-152z" />
    <glyph glyph-name="uni00AD" unicode="&#xad;" horiz-adv-x="350" 
d="M291 215q0 -30 -40 -30h-199q-12 0 -18.5 1t-14 8.5t-7.5 21.5q0 30 40 30h199q12 0 18.5 -1t14 -8.5t7.5 -21.5z" />
    <glyph glyph-name="registered" unicode="&#xae;" horiz-adv-x="611" 
d="M611 306q0 -127 -89.5 -216.5t-215.5 -89.5q-127 0 -216.5 89.5t-89.5 216.5q0 126 89.5 215.5t216.5 89.5q126 0 215.5 -89.5t89.5 -215.5zM554 306q0 103 -72.5 175.5t-175.5 72.5t-176 -72.5t-73 -175.5q0 -104 72.5 -176.5t176.5 -72.5q103 0 175.5 73t72.5 176z
M479 214q0 -18 -14 -32.5t-37 -14.5q-28 0 -43 20q-12 16 -12 55q0 21 -2.5 28t-15.5 14q-18 10 -56 10h-64v-95h24q18 0 18 -14q0 -13 -18 -13h-79q-18 0 -18 13q0 14 18 14h24v218h-24q-18 0 -18 14t18 14h120q49 0 85.5 -22.5t36.5 -53.5q0 -37 -52 -60q16 -8 25 -21
t9 -45q0 -17 1 -25.5t6.5 -16t16.5 -7.5q19 0 20 20q1 13 15 13q16 0 16 -13zM391 369q0 21 -28.5 34.5t-66.5 13.5h-61v-95h61q38 0 66.5 13.5t28.5 33.5z" />
    <glyph glyph-name="macron" unicode="&#xaf;" 
d="M452 544q0 -14 -7.5 -21.5t-14 -8.5t-18.5 -1h-297q-12 0 -19 1t-14.5 8.5t-7.5 22.5q0 14 7.5 21.5t14 8.5t18.5 1h298q12 0 18.5 -1t14 -8.5t7.5 -22.5z" />
    <glyph glyph-name="degree" unicode="&#xb0;" horiz-adv-x="394" 
d="M343 465q0 -60 -43 -103t-103 -43q-61 0 -103.5 43t-42.5 103q0 61 42.5 103.5t103.5 42.5q60 0 103 -42.5t43 -103.5zM273 465q0 31 -22.5 53.5t-53.5 22.5t-53.5 -22.5t-22.5 -53.5t22.5 -53.5t53.5 -22.5t53.5 22.5t22.5 53.5z" />
    <glyph glyph-name="plusminus" unicode="&#xb1;" horiz-adv-x="817" 
d="M758 35q0 -35 -47 -35h-606q-47 0 -47 35t47 35h268v200h-268q-47 0 -47 35t47 35h268v223q0 47 35 47t35 -47v-223h268q47 0 47 -35t-47 -35h-268v-200h268q47 0 47 -35z" />
    <glyph glyph-name="two.superior" unicode="&#xb2;" horiz-adv-x="377" 
d="M340 274q0 -15 -5.5 -20t-23.5 -5h-244q-30 0 -30 19q0 7 11 16l159 111q83 57 83 110q0 38 -33.5 59.5t-80.5 21.5q-30 0 -53.5 -13t-31.5 -34q11 -6 11 -19q0 -12 -10 -19.5t-22 -7.5t-22.5 7t-10.5 22q0 40 40 70t102 30q68 0 114.5 -32t46.5 -85q0 -62 -79 -120
q-18 -14 -72.5 -51t-69.5 -48h171q0 10 1 15t6.5 9t17.5 4q17 0 21 -6.5t4 -18.5v-15z" />
    <glyph glyph-name="three.superior" unicode="&#xb3;" horiz-adv-x="377" 
d="M346 353q0 -43 -44 -77t-112 -34q-67 0 -112.5 24.5t-45.5 64.5q0 13 9.5 20.5t22.5 7.5t22.5 -8t9.5 -19t-9 -18q24 -35 103 -35q47 0 76.5 22.5t29.5 51.5t-29 52t-79 23h-33q-29 0 -29 19q0 11 9 14.5t38 5.5h5q44 2 67 18q30 21 30 52q0 20 -24.5 34.5t-60.5 14.5
q-58 0 -80 -19q7 -7 7 -16q0 -12 -10 -19.5t-22 -7.5t-22 7t-10 21q0 31 36.5 50.5t99.5 19.5q60 0 98 -25t38 -59q0 -56 -61 -89q37 -14 59.5 -39.5t22.5 -56.5z" />
    <glyph glyph-name="acute" unicode="&#xb4;" 
d="M369 576q0 -22 -28 -35l-133 -59q-10 -5 -18 -5q-17 0 -25 14.5t-8 25.5q0 12 6 17.5t19 11.5l133 60l19 5q15 0 25 -10t10 -25z" />
    <glyph glyph-name="uni00B5" unicode="&#xb5;" horiz-adv-x="583" 
d="M565 30q0 -14 -8 -21t-15 -8t-20 -1h-78q-13 0 -20.5 1t-15.5 9t-8 24q-52 -40 -135 -40q-54 0 -84 12v-167h51q13 0 20.5 -1t15 -8.5t7.5 -21.5t-8 -21t-15 -8t-20 -1h-172q-13 0 -20.5 1t-15 8.5t-7.5 21.5t8 21t15 8t20 1h51v530h-51q-13 0 -20.5 1t-15 8.5t-7.5 21.5
t8 21t15 8t20 1h78q27 0 35 -8.5t8 -34.5v-265q0 -17 1.5 -25.5t9.5 -20t27.5 -16.5t52.5 -5q54 0 91 24q38 26 38 79v211h-51q-13 0 -20.5 1t-15 8.5t-7.5 21.5t8 21t15 8t20 1h78q27 0 35 -8.5t8 -34.5v-326h51q13 0 20.5 -1t15 -8.5t7.5 -21.5z" />
    <glyph glyph-name="paragraph" unicode="&#xb6;" horiz-adv-x="611" 
d="M582 674q0 -20 -33 -20h-50v-815q0 -33 -20 -33t-20 33v815h-70v-815q0 -33 -20 -33t-20 33v391q-50 2 -100 17t-94 42t-71.5 72.5t-27.5 101.5q0 95 73 163t177 68h243q33 0 33 -20z" />
    <glyph glyph-name="periodcentered" unicode="&#xb7;" horiz-adv-x="817" 
d="M458 306q0 -21 -14.5 -35.5t-35.5 -14.5t-35.5 14.5t-14.5 35.5t14.5 35.5t35.5 14.5t35.5 -14.5t14.5 -35.5z" />
    <glyph glyph-name="cedilla" unicode="&#xb8;" horiz-adv-x="467" 
d="M384 -107q0 -24 -9 -42.5t-28.5 -29t-37 -17t-47 -9t-46 -3t-45.5 -0.5q-11 0 -21 7.5t-10 23.5q0 15 8.5 22t18 8t29.5 1q69 0 94 10t25 30q0 16 -16 27t-41 13q-14 1 -21 8t-8 13t-1 18v33q0 12 1 18.5t9 13.5t24 7q24 0 29.5 -11.5t5.5 -43.5q39 -10 63 -35t24 -62z
" />
    <glyph glyph-name="one.superior" unicode="&#xb9;" horiz-adv-x="394" 
d="M318 267q0 -18 -29 -18h-180q-29 0 -29 18q0 19 29 19h65v277q-33 -14 -73 -14q-25 0 -25 18q0 17 20 19q58 0 86 26q10 10 20 10q22 0 22 -24v-312h65q29 0 29 -19z" />
    <glyph glyph-name="ordmasculine" unicode="&#xba;" horiz-adv-x="440" 
d="M408 465q0 -64 -55.5 -109.5t-132.5 -45.5t-132.5 45.5t-55.5 109.5q0 65 55 111t133 46t133 -46t55 -111zM377 258q0 -9 -9 -15t-22 -6h-252q-13 0 -22 6t-9 15t9 15.5t22 6.5h252q13 0 22 -6.5t9 -15.5zM350 470q0 47 -38.5 78t-91.5 31t-91.5 -31t-38.5 -78
q0 -48 38 -82.5t92 -34.5t92 34.5t38 82.5z" />
    <glyph glyph-name="guillemotright" unicode="&#xbb;" horiz-adv-x="583" 
d="M466 219q0 -10 -7 -19q-74 -78 -107 -180q-7 -20 -28 -20h-4q-12 0 -20.5 8.5t-8.5 20.5q0 3 2 9q30 100 95 181q-65 83 -95 182q-2 6 -2 9q0 12 8.5 20.5t20.5 8.5h4q21 0 28 -20q33 -102 107 -180q7 -9 7 -20zM291 219q0 -10 -7 -19q-74 -78 -107 -180q-7 -20 -28 -20
h-4q-12 0 -20.5 8.5t-8.5 20.5q0 3 2 9q30 100 95 181q-65 83 -95 182q-2 6 -2 9q0 12 8.5 20.5t20.5 8.5h4q21 0 28 -20q33 -102 107 -180q7 -9 7 -20z" />
    <glyph glyph-name="onequarter" unicode="&#xbc;" horiz-adv-x="840" 
d="M318 267q0 -18 -29 -18h-180q-29 0 -29 18q0 19 29 19h65v277q-33 -14 -73 -14q-25 0 -25 18q0 17 20 19q58 0 86 26q10 10 20 10q22 0 22 -24v-312h65q29 0 29 -19zM764 119q0 -18 -29 -18h-56v-64h45q28 0 28 -19q0 -18 -28 -18h-130q-29 0 -29 18q0 19 29 19h45v64
h-182q-17 0 -23 5t-6 19t7 21l164 215q10 13 30 13h21q18 0 23.5 -5t5.5 -20v-211h56q29 0 29 -19zM707 591q0 -11 -7 -21l-420 -571q-10 -14 -28 -14q-14 0 -24.5 10.5t-10.5 24.5q0 10 7 21l420 571q10 14 28 14q14 0 24.5 -10.5t10.5 -24.5zM639 138v209l-160 -209h160z
" />
    <glyph glyph-name="onehalf" unicode="&#xbd;" horiz-adv-x="933" 
d="M318 267q0 -18 -29 -18h-180q-29 0 -29 18q0 19 29 19h65v277q-33 -14 -73 -14q-25 0 -25 18q0 17 20 19q58 0 86 26q10 10 20 10q22 0 22 -24v-312h65q29 0 29 -19zM857 25q0 -15 -5.5 -20t-22.5 -5h-245q-29 0 -29 19q0 8 11 16l159 111q83 58 83 110q0 38 -34 59.5
t-81 21.5q-29 0 -52.5 -13t-31.5 -34q10 -7 10 -19t-10 -19.5t-22 -7.5q-11 0 -21.5 7t-10.5 22q0 40 40 70t102 30q68 0 114 -32t46 -85q0 -61 -78 -120q-14 -11 -39 -28t-57 -38.5t-47 -32.5h172q0 10 1 15t6.5 9t17.5 4q16 0 20 -6.5t4 -18.5v-15zM712 591q0 -11 -7 -21
l-420 -571q-11 -14 -28 -14q-15 0 -25 10.5t-10 24.5q0 12 6 21l420 571q12 14 29 14q14 0 24.5 -10.5t10.5 -24.5z" />
    <glyph glyph-name="threequarters" unicode="&#xbe;" horiz-adv-x="840" 
d="M377 353q0 -43 -43.5 -77t-111.5 -34t-113.5 24.5t-45.5 64.5q0 13 9.5 20.5t23.5 7.5q13 0 22 -8t9 -19q0 -10 -8 -18q24 -35 103 -35q47 0 76.5 22.5t29.5 51.5t-29 52t-79 23h-34q-28 0 -28 19q0 12 8.5 15t43.5 5q43 2 66 18q31 20 31 52q0 20 -24.5 34.5t-60.5 14.5
q-58 0 -80 -19q6 -6 6 -16q0 -12 -9.5 -19.5t-21.5 -7.5q-13 0 -23 7t-10 21q0 31 37 50.5t100 19.5q60 0 97.5 -25t37.5 -59q0 -56 -60 -89q36 -14 58.5 -39.5t22.5 -56.5zM764 119q0 -18 -29 -18h-56v-64h45q28 0 28 -19q0 -18 -28 -18h-130q-29 0 -29 18q0 19 29 19h45
v64h-182q-17 0 -23 5t-6 19t7 21l164 215q10 13 30 13h21q18 0 23.5 -5t5.5 -20v-211h56q29 0 29 -19zM707 591q0 -11 -7 -21l-420 -571q-10 -14 -28 -14q-14 0 -24.5 10.5t-10.5 24.5q0 10 7 21l420 571q10 14 28 14q14 0 24.5 -10.5t10.5 -24.5zM639 138v209l-160 -209
h160z" />
    <glyph glyph-name="questiondown" unicode="&#xbf;" horiz-adv-x="496" 
d="M283 339q0 -21 -14.5 -35.5t-35.5 -14.5t-35.5 14.5t-14.5 35.5t14.5 35.5t35.5 14.5t35.5 -14.5t14.5 -35.5zM437 -106q0 -52 -50 -87t-153 -35q-56 0 -94 14t-54 36t-22 39.5t-6 34.5q0 58 53 96q82 58 82 155v17q0 26 8 33.5t32 7.5q28 0 34 -9.5t6 -42.5
q0 -25 -3 -43.5t-13.5 -48t-37.5 -60t-69 -60.5q-23 -18 -23 -45q0 -63 107 -63q93 0 123 36q-9 9 -9 27q0 20 13.5 32.5t30.5 12.5q18 0 31.5 -12.5t13.5 -34.5z" />
    <glyph glyph-name="Agrave" unicode="&#xc0;" horiz-adv-x="758" 
d="M716 30q0 -30 -40 -30h-159q-41 0 -41 31q0 30 41 30h40l-40 111h-277l-40 -111h40q41 0 41 -31q0 -30 -41 -30h-159q-12 0 -18.5 1t-14 8.5t-7.5 21.5q0 30 40 30h46l189 529q6 15 16 23t17 9t20 1h19q14 0 21 -1t16.5 -9t15.5 -24l189 -528h46q12 0 18.5 -1t14 -8.5
t7.5 -21.5zM495 233l-117 326l-116 -326h233zM485 693q0 -11 -8 -25.5t-25 -14.5q-8 0 -18 5l-133 59q-28 13 -28 35q0 15 10 25t25 10q8 0 19 -5l133 -60q9 -4 13 -6.5t8 -8.5t4 -14z" />
    <glyph glyph-name="Aacute" unicode="&#xc1;" horiz-adv-x="758" 
d="M716 30q0 -30 -40 -30h-159q-41 0 -41 31q0 30 41 30h40l-40 111h-277l-40 -111h40q41 0 41 -31q0 -30 -41 -30h-159q-12 0 -18.5 1t-14 8.5t-7.5 21.5q0 30 40 30h46l189 529q6 15 16 23t17 9t20 1h19q14 0 21 -1t16.5 -9t15.5 -24l189 -528h46q12 0 18.5 -1t14 -8.5
t7.5 -21.5zM495 233l-117 326l-116 -326h233zM486 752q0 -22 -28 -35l-133 -59q-10 -5 -18 -5q-17 0 -25 14.5t-8 25.5q0 12 6 17.5t19 11.5l133 60l19 5q15 0 25 -10t10 -25z" />
    <glyph glyph-name="Acircumflex" unicode="&#xc2;" horiz-adv-x="758" 
d="M716 30q0 -30 -40 -30h-159q-41 0 -41 31q0 30 41 30h40l-40 111h-277l-40 -111h40q41 0 41 -31q0 -30 -41 -30h-159q-12 0 -18.5 1t-14 8.5t-7.5 21.5q0 30 40 30h46l189 529q6 15 16 23t17 9t20 1h19q14 0 21 -1t16.5 -9t15.5 -24l189 -528h46q12 0 18.5 -1t14 -8.5
t7.5 -21.5zM495 233l-117 326l-116 -326h233zM508 701q26 -10 17 -37t-36 -19l-109 33l-109 -33q-27 -8 -36 19t18 37l118 43q9 3 19 0z" />
    <glyph glyph-name="Atilde" unicode="&#xc3;" horiz-adv-x="758" 
d="M716 30q0 -30 -40 -30h-159q-41 0 -41 31q0 30 41 30h40l-40 111h-277l-40 -111h40q41 0 41 -31q0 -30 -41 -30h-159q-12 0 -18.5 1t-14 8.5t-7.5 21.5q0 30 40 30h46l189 529q6 15 16 23t17 9t20 1h19q14 0 21 -1t16.5 -9t15.5 -24l189 -528h46q12 0 18.5 -1t14 -8.5
t7.5 -21.5zM495 233l-117 326l-116 -326h233zM555 731q0 -18 -49 -55q-45 -33 -78 -33t-67 34q-23 21 -31 21q-23 0 -70 -44q-13 -11 -24 -11q-12 0 -21.5 10t-9.5 22q0 18 49 55q45 33 78 33t67 -34q23 -21 31 -21q23 0 70 44q13 11 24 11q12 0 21.5 -10t9.5 -22z" />
    <glyph glyph-name="Adieresis" unicode="&#xc4;" horiz-adv-x="758" 
d="M716 30q0 -30 -40 -30h-159q-41 0 -41 31q0 30 41 30h40l-40 111h-277l-40 -111h40q41 0 41 -31q0 -30 -41 -30h-159q-12 0 -18.5 1t-14 8.5t-7.5 21.5q0 30 40 30h46l189 529q6 15 16 23t17 9t20 1h19q14 0 21 -1t16.5 -9t15.5 -24l189 -528h46q12 0 18.5 -1t14 -8.5
t7.5 -21.5zM495 233l-117 326l-116 -326h233zM327 688q0 -18 -13 -31.5t-33 -13.5q-18 0 -31.5 13t-13.5 32q0 17 13 31t33 14q19 0 32 -13.5t13 -31.5zM524 688q0 -18 -13 -31.5t-33 -13.5q-18 0 -31.5 13t-13.5 32q0 17 13 31t33 14q19 0 32 -13.5t13 -31.5z" />
    <glyph glyph-name="Aring" unicode="&#xc5;" horiz-adv-x="758" 
d="M716 30q0 -30 -40 -30h-159q-41 0 -41 31q0 30 41 30h40l-40 111h-277l-40 -111h40q41 0 41 -31q0 -30 -41 -30h-159q-12 0 -18.5 1t-14 8.5t-7.5 21.5q0 30 40 30h46l189 529q6 15 16 23t17 9t20 1h19q14 0 21 -1t16.5 -9t15.5 -24l189 -528h46q12 0 18.5 -1t14 -8.5
t7.5 -21.5zM495 233l-117 326l-116 -326h233zM430 689q0 12 -15 20.5t-36 8.5q-19 0 -35 -8t-16 -21q0 -12 15 -20.5t36 -8.5q19 0 35 8t16 21zM496 689q0 -27 -33.5 -46.5t-84.5 -19.5q-48 0 -82 19.5t-34 46.5t33.5 46.5t84.5 19.5q48 0 82 -19.5t34 -46.5z" />
    <glyph glyph-name="AE" unicode="&#xc6;" horiz-adv-x="933" 
d="M903 41q0 -24 -8 -32.5t-32 -8.5h-424q-41 0 -41 30q0 31 41 31h30v122h-209l-53 -122h37q12 0 18.5 -1t14 -8.5t7.5 -21.5q0 -30 -40 -30h-159q-41 0 -41 31q0 30 41 30h47l214 489h-17q-41 0 -41 30q0 31 41 31h505q25 0 32.5 -8.5t7.5 -32.5v-73q0 -13 -1 -20
t-9.5 -14t-24.5 -7q-23 0 -28.5 10.5t-5.5 30.5v53h-267v-203h147q0 25 1.5 34.5t9 16t24.5 6.5q23 0 28.5 -10.5t5.5 -30.5v-93q0 -13 -1 -20t-9 -14t-24 -7q-24 0 -29.5 11t-5.5 46h-147v-225h296v69q0 13 1 20t9.5 14t24.5 7q23 0 28.5 -10.5t5.5 -30.5v-89zM469 244v306
h-47l-135 -306h182z" />
    <glyph glyph-name="Ccedilla" unicode="&#xc7;" horiz-adv-x="758" 
d="M699 168q0 -67 -58 -114.5t-160 -60.5v-3q39 -10 63 -35t24 -62q0 -24 -9 -42.5t-28.5 -29t-37 -17t-47 -9t-46 -3t-45.5 -0.5q-11 0 -21 7.5t-10 23.5q0 15 8.5 22t18 8t29.5 1q69 0 94 10t25 30q0 16 -16 27t-41 13q-14 1 -21 8t-8 13t-1 18v16h-2q-151 0 -251.5 94
t-100.5 223q0 128 101 222t249 94q133 0 212 -62q13 28 18 37q6 14 12 19.5t19 5.5q30 0 30 -41v-139q0 -13 -1 -20t-9.5 -14t-24.5 -7q-28 0 -33 23q-5 21 -9.5 33t-21.5 33t-45 37q-58 34 -140 34q-122 0 -205 -76t-83 -179q0 -104 83 -180t207 -76q86 0 142 28
q23 11 38 24t21.5 27t8.5 22t3 21q2 29 34 29q35 0 35 -33z" />
    <glyph glyph-name="Egrave" unicode="&#xc8;" horiz-adv-x="700" 
d="M670 41q0 -24 -8 -32.5t-32 -8.5h-544q-40 0 -40 30q0 14 7.5 21.5t14 8.5t18.5 1h54v489h-54q-40 0 -40 30q0 14 7.5 21.5t14 8.5t18.5 1h515q25 0 32.5 -8.5t7.5 -32.5v-73q0 -13 -1 -20t-9.5 -14t-24.5 -7q-23 0 -28.5 10.5t-5.5 30.5v53h-363v-203h199q0 25 1.5 34.5
t9 16t24.5 6.5q23 0 28.5 -10.5t5.5 -30.5v-93q0 -13 -1 -20t-9 -14t-24 -7q-24 0 -29.5 11t-5.5 46h-199v-225h392v69q0 13 1 20t9.5 14t24.5 7q23 0 28.5 -10.5t5.5 -30.5v-89zM456 693q0 -11 -8 -25.5t-25 -14.5q-8 0 -18 5l-133 59q-28 13 -28 35q0 15 10 25t25 10
q8 0 19 -5l133 -60q9 -4 13 -6.5t8 -8.5t4 -14z" />
    <glyph glyph-name="Eacute" unicode="&#xc9;" horiz-adv-x="700" 
d="M670 41q0 -24 -8 -32.5t-32 -8.5h-544q-40 0 -40 30q0 14 7.5 21.5t14 8.5t18.5 1h54v489h-54q-40 0 -40 30q0 14 7.5 21.5t14 8.5t18.5 1h515q25 0 32.5 -8.5t7.5 -32.5v-73q0 -13 -1 -20t-9.5 -14t-24.5 -7q-23 0 -28.5 10.5t-5.5 30.5v53h-363v-203h199q0 25 1.5 34.5
t9 16t24.5 6.5q23 0 28.5 -10.5t5.5 -30.5v-93q0 -13 -1 -20t-9 -14t-24 -7q-24 0 -29.5 11t-5.5 46h-199v-225h392v69q0 13 1 20t9.5 14t24.5 7q23 0 28.5 -10.5t5.5 -30.5v-89zM457 752q0 -22 -28 -35l-133 -59q-10 -5 -18 -5q-17 0 -25 14.5t-8 25.5q0 12 6 17.5t19 11.5
l133 60l19 5q15 0 25 -10t10 -25z" />
    <glyph glyph-name="Ecircumflex" unicode="&#xca;" horiz-adv-x="700" 
d="M670 41q0 -24 -8 -32.5t-32 -8.5h-544q-40 0 -40 30q0 14 7.5 21.5t14 8.5t18.5 1h54v489h-54q-40 0 -40 30q0 14 7.5 21.5t14 8.5t18.5 1h515q25 0 32.5 -8.5t7.5 -32.5v-73q0 -13 -1 -20t-9.5 -14t-24.5 -7q-23 0 -28.5 10.5t-5.5 30.5v53h-363v-203h199q0 25 1.5 34.5
t9 16t24.5 6.5q23 0 28.5 -10.5t5.5 -30.5v-93q0 -13 -1 -20t-9 -14t-24 -7q-24 0 -29.5 11t-5.5 46h-199v-225h392v69q0 13 1 20t9.5 14t24.5 7q23 0 28.5 -10.5t5.5 -30.5v-89zM479 701q26 -10 17 -37t-36 -19l-109 33l-109 -33q-27 -8 -36 19t18 37l118 43q10 3 19 0z
" />
    <glyph glyph-name="Edieresis" unicode="&#xcb;" horiz-adv-x="700" 
d="M670 41q0 -24 -8 -32.5t-32 -8.5h-544q-40 0 -40 30q0 14 7.5 21.5t14 8.5t18.5 1h54v489h-54q-40 0 -40 30q0 14 7.5 21.5t14 8.5t18.5 1h515q25 0 32.5 -8.5t7.5 -32.5v-73q0 -13 -1 -20t-9.5 -14t-24.5 -7q-23 0 -28.5 10.5t-5.5 30.5v53h-363v-203h199q0 25 1.5 34.5
t9 16t24.5 6.5q23 0 28.5 -10.5t5.5 -30.5v-93q0 -13 -1 -20t-9 -14t-24 -7q-24 0 -29.5 11t-5.5 46h-199v-225h392v69q0 13 1 20t9.5 14t24.5 7q23 0 28.5 -10.5t5.5 -30.5v-89zM298 688q0 -18 -13 -31.5t-33 -13.5q-18 0 -31.5 13t-13.5 32q0 17 13 31t33 14
q19 0 32 -13.5t13 -31.5zM495 688q0 -18 -13 -31.5t-33 -13.5q-18 0 -31.5 13t-13.5 32q0 17 13 31t33 14q19 0 32 -13.5t13 -31.5z" />
    <glyph glyph-name="Igrave" unicode="&#xcc;" horiz-adv-x="350" 
d="M308 30q0 -30 -40 -30h-187q-40 0 -40 30q0 14 7.5 21.5t14 8.5t18.5 1h59v489h-59q-40 0 -40 30q0 14 7.5 21.5t14 8.5t18.5 1h187q12 0 18.5 -1t14 -8.5t7.5 -21.5q0 -30 -40 -30h-59v-489h59q12 0 18.5 -1t14 -8.5t7.5 -21.5zM281 693q0 -11 -8 -25.5t-25 -14.5
q-8 0 -18 5l-133 59q-28 13 -28 35q0 15 10 25t25 10q8 0 19 -5l133 -60q9 -4 13 -6.5t8 -8.5t4 -14z" />
    <glyph glyph-name="Iacute" unicode="&#xcd;" horiz-adv-x="350" 
d="M308 30q0 -30 -40 -30h-187q-40 0 -40 30q0 14 7.5 21.5t14 8.5t18.5 1h59v489h-59q-40 0 -40 30q0 14 7.5 21.5t14 8.5t18.5 1h187q12 0 18.5 -1t14 -8.5t7.5 -21.5q0 -30 -40 -30h-59v-489h59q12 0 18.5 -1t14 -8.5t7.5 -21.5zM282 752q0 -22 -28 -35l-133 -59
q-10 -5 -18 -5q-17 0 -25 14.5t-8 25.5q0 12 6 17.5t19 11.5l133 60l19 5q15 0 25 -10t10 -25z" />
    <glyph glyph-name="Icircumflex" unicode="&#xce;" horiz-adv-x="350" 
d="M308 30q0 -30 -40 -30h-187q-40 0 -40 30q0 14 7.5 21.5t14 8.5t18.5 1h59v489h-59q-40 0 -40 30q0 14 7.5 21.5t14 8.5t18.5 1h187q12 0 18.5 -1t14 -8.5t7.5 -21.5q0 -30 -40 -30h-59v-489h59q12 0 18.5 -1t14 -8.5t7.5 -21.5zM304 701q26 -10 17 -37t-36 -19l-109 33
l-109 -33q-27 -8 -36 19t18 37l118 43q9 3 19 0z" />
    <glyph glyph-name="Idieresis" unicode="&#xcf;" horiz-adv-x="350" 
d="M308 30q0 -30 -40 -30h-187q-40 0 -40 30q0 14 7.5 21.5t14 8.5t18.5 1h59v489h-59q-40 0 -40 30q0 14 7.5 21.5t14 8.5t18.5 1h187q12 0 18.5 -1t14 -8.5t7.5 -21.5q0 -30 -40 -30h-59v-489h59q12 0 18.5 -1t14 -8.5t7.5 -21.5zM123 688q0 -18 -13 -31.5t-33 -13.5
q-18 0 -31.5 13t-13.5 32q0 17 13 31t33 14q19 0 32 -13.5t13 -31.5zM320 688q0 -18 -13 -31.5t-33 -13.5q-18 0 -31.5 13t-13.5 32q0 17 13 31t33 14q19 0 32 -13.5t13 -31.5z" />
    <glyph glyph-name="Eth" unicode="&#xd0;" horiz-adv-x="788" 
d="M728 300q0 -123 -93.5 -211.5t-226.5 -88.5h-322q-40 0 -40 30q0 14 7.5 21.5t14 8.5t18.5 1h54v214h-59q-13 0 -22 9t-9 22t9 22t22 9h59v213h-54q-40 0 -40 30q0 14 7.5 21.5t14 8.5t18.5 1h322q132 0 226 -91.5t94 -219.5zM659 301q0 100 -77.5 174.5t-192.5 74.5
h-180v-213h185q13 0 22 -9t9 -22t-9 -22t-22 -9h-185v-214h181q113 0 191 70.5t78 169.5z" />
    <glyph glyph-name="Ntilde" unicode="&#xd1;" horiz-adv-x="758" 
d="M704 580q0 -30 -40 -30h-54v-509q0 -26 -8 -33.5t-33 -7.5q-14 0 -22 1t-20 9t-21 24l-302 526h-1v-499h54q12 0 18.5 -1t14 -8.5t7.5 -21.5q0 -30 -40 -30h-164q-40 0 -40 30q0 14 7.5 21.5t14 8.5t18.5 1h54v489h-54q-40 0 -40 30q0 14 7.5 21.5t14 8.5t18.5 1h95
q14 0 22 -1t20 -9t21 -24l302 -526h1v499h-54q-40 0 -40 30q0 14 7.5 21.5t14 8.5t18.5 1h164q12 0 18.5 -1t14 -8.5t7.5 -21.5zM555 731q0 -18 -49 -55q-45 -33 -78 -33t-67 34q-23 21 -31 21q-23 0 -70 -44q-13 -11 -24 -11q-12 0 -21.5 10t-9.5 22q0 18 49 55
q45 33 78 33t67 -34q23 -21 31 -21q23 0 70 44q13 11 24 11q12 0 21.5 -10t9.5 -22z" />
    <glyph glyph-name="Ograve" unicode="&#xd2;" horiz-adv-x="817" 
d="M758 305q0 -128 -101.5 -222t-248.5 -94q-146 0 -248 93t-102 224q0 128 101.5 222t248.5 94q146 0 248 -93t102 -224zM689 317q0 100 -82 172t-199 72t-199 -72t-82 -172q0 -109 82 -188t199 -79t199 79t82 188zM514 693q0 -11 -8 -25.5t-25 -14.5q-8 0 -18 5l-133 59
q-28 13 -28 35q0 15 10 25t25 10q8 0 19 -5l133 -60q9 -4 13 -6.5t8 -8.5t4 -14z" />
    <glyph glyph-name="Oacute" unicode="&#xd3;" horiz-adv-x="817" 
d="M758 305q0 -128 -101.5 -222t-248.5 -94q-146 0 -248 93t-102 224q0 128 101.5 222t248.5 94q146 0 248 -93t102 -224zM689 317q0 100 -82 172t-199 72t-199 -72t-82 -172q0 -109 82 -188t199 -79t199 79t82 188zM515 752q0 -22 -28 -35l-133 -59q-10 -5 -18 -5
q-17 0 -25 14.5t-8 25.5q0 12 6 17.5t19 11.5l133 60l19 5q15 0 25 -10t10 -25z" />
    <glyph glyph-name="Ocircumflex" unicode="&#xd4;" horiz-adv-x="817" 
d="M758 305q0 -128 -101.5 -222t-248.5 -94q-146 0 -248 93t-102 224q0 128 101.5 222t248.5 94q146 0 248 -93t102 -224zM689 317q0 100 -82 172t-199 72t-199 -72t-82 -172q0 -109 82 -188t199 -79t199 79t82 188zM537 701q26 -10 17 -37t-36 -19l-109 33l-109 -33
q-27 -8 -36 19t18 37l118 43q10 3 19 0z" />
    <glyph glyph-name="Otilde" unicode="&#xd5;" horiz-adv-x="817" 
d="M758 305q0 -128 -101.5 -222t-248.5 -94q-146 0 -248 93t-102 224q0 128 101.5 222t248.5 94q146 0 248 -93t102 -224zM689 317q0 100 -82 172t-199 72t-199 -72t-82 -172q0 -109 82 -188t199 -79t199 79t82 188zM584 731q0 -18 -49 -55q-45 -33 -78 -33t-67 34
q-23 21 -31 21q-23 0 -70 -44q-13 -11 -24 -11q-12 0 -21.5 10t-9.5 22q0 18 49 55q45 33 78 33t67 -34q23 -21 31 -21q23 0 70 44q13 11 24 11q12 0 21.5 -10t9.5 -22z" />
    <glyph glyph-name="Odieresis" unicode="&#xd6;" horiz-adv-x="817" 
d="M758 305q0 -128 -101.5 -222t-248.5 -94q-146 0 -248 93t-102 224q0 128 101.5 222t248.5 94q146 0 248 -93t102 -224zM689 317q0 100 -82 172t-199 72t-199 -72t-82 -172q0 -109 82 -188t199 -79t199 79t82 188zM356 688q0 -18 -13 -31.5t-33 -13.5q-18 0 -31.5 13
t-13.5 32q0 17 13 31t33 14q19 0 32 -13.5t13 -31.5zM553 688q0 -18 -13 -31.5t-33 -13.5q-18 0 -31.5 13t-13.5 32q0 17 13 31t33 14q19 0 32 -13.5t13 -31.5z" />
    <glyph glyph-name="multiply" unicode="&#xd7;" horiz-adv-x="817" 
d="M655 59q-24 -25 -57 8l-190 190l-190 -190q-33 -33 -57 -8q-25 24 8 57l190 190l-190 190q-33 33 -8 57q24 25 57 -8l190 -190l190 190q33 33 57 8q25 -24 -8 -57l-190 -190l190 -190q33 -33 8 -57z" />
    <glyph glyph-name="Oslash" unicode="&#xd8;" horiz-adv-x="817" 
d="M758 305q0 -128 -101.5 -222t-248.5 -94q-93 0 -164 37l-68 -94q-12 -17 -27 -17q-12 0 -22 8.5t-10 22.5q0 10 15 30l59 81q-70 51 -101.5 117t-31.5 132q0 128 101.5 222t248.5 94q17 0 33.5 -1.5t30.5 -4t27.5 -6t24 -6.5t20 -6.5t15 -6t9.5 -4.5l5 -2l65 92
q13 19 29 19q12 0 22 -8.5t10 -22.5q0 -10 -11 -25l-63 -86q70 -51 101.5 -117t31.5 -132zM536 536q-67 25 -128 25q-123 0 -208.5 -75.5t-85.5 -180.5q0 -62 31.5 -114.5t79.5 -85.5zM702 306q0 63 -32.5 116t-79.5 84l-310 -431q67 -25 128 -25q123 0 208.5 75.5
t85.5 180.5z" />
    <glyph glyph-name="Ugrave" unicode="&#xd9;" horiz-adv-x="758" 
d="M711 580q0 -30 -40 -30h-54v-344q0 -92 -70 -154.5t-169 -62.5q-97 0 -167.5 62t-70.5 155v344h-54q-40 0 -40 30q0 14 7.5 21.5t14 8.5t18.5 1h177q12 0 18.5 -1t14 -8.5t7.5 -21.5q0 -30 -40 -30h-54v-338q0 -78 52.5 -120t117.5 -42q63 0 116 42t53 120v338h-54
q-40 0 -40 30q0 14 7.5 21.5t14 8.5t18.5 1h177q12 0 18.5 -1t14 -8.5t7.5 -21.5zM508 693q0 -11 -8 -25.5t-25 -14.5q-8 0 -18 5l-133 59q-28 13 -28 35q0 15 10 25t25 10q8 0 19 -5l133 -60q9 -4 13 -6.5t8 -8.5t4 -14z" />
    <glyph glyph-name="Uacute" unicode="&#xda;" horiz-adv-x="758" 
d="M711 580q0 -30 -40 -30h-54v-344q0 -92 -70 -154.5t-169 -62.5q-97 0 -167.5 62t-70.5 155v344h-54q-40 0 -40 30q0 14 7.5 21.5t14 8.5t18.5 1h177q12 0 18.5 -1t14 -8.5t7.5 -21.5q0 -30 -40 -30h-54v-338q0 -78 52.5 -120t117.5 -42q63 0 116 42t53 120v338h-54
q-40 0 -40 30q0 14 7.5 21.5t14 8.5t18.5 1h177q12 0 18.5 -1t14 -8.5t7.5 -21.5zM509 752q0 -22 -28 -35l-133 -59q-10 -5 -18 -5q-17 0 -25 14.5t-8 25.5q0 12 6 17.5t19 11.5l133 60l19 5q15 0 25 -10t10 -25z" />
    <glyph glyph-name="Ucircumflex" unicode="&#xdb;" horiz-adv-x="758" 
d="M711 580q0 -30 -40 -30h-54v-344q0 -92 -70 -154.5t-169 -62.5q-97 0 -167.5 62t-70.5 155v344h-54q-40 0 -40 30q0 14 7.5 21.5t14 8.5t18.5 1h177q12 0 18.5 -1t14 -8.5t7.5 -21.5q0 -30 -40 -30h-54v-338q0 -78 52.5 -120t117.5 -42q63 0 116 42t53 120v338h-54
q-40 0 -40 30q0 14 7.5 21.5t14 8.5t18.5 1h177q12 0 18.5 -1t14 -8.5t7.5 -21.5zM531 701q26 -10 17 -37t-36 -19l-109 33l-109 -33q-27 -8 -36 19t18 37l118 43q10 3 19 0z" />
    <glyph glyph-name="Udieresis" unicode="&#xdc;" horiz-adv-x="758" 
d="M711 580q0 -30 -40 -30h-54v-344q0 -92 -70 -154.5t-169 -62.5q-97 0 -167.5 62t-70.5 155v344h-54q-40 0 -40 30q0 14 7.5 21.5t14 8.5t18.5 1h177q12 0 18.5 -1t14 -8.5t7.5 -21.5q0 -30 -40 -30h-54v-338q0 -78 52.5 -120t117.5 -42q63 0 116 42t53 120v338h-54
q-40 0 -40 30q0 14 7.5 21.5t14 8.5t18.5 1h177q12 0 18.5 -1t14 -8.5t7.5 -21.5zM350 688q0 -18 -13 -31.5t-33 -13.5q-18 0 -31.5 13t-13.5 32q0 17 13 31t33 14q19 0 32 -13.5t13 -31.5zM547 688q0 -18 -13 -31.5t-33 -13.5q-18 0 -31.5 13t-13.5 32q0 17 13 31t33 14
q19 0 32 -13.5t13 -31.5z" />
    <glyph glyph-name="Yacute" unicode="&#xdd;" horiz-adv-x="758" 
d="M727 580q0 -30 -41 -30h-48l-225 -306v-183h54q12 0 18.5 -1t14 -8.5t7.5 -21.5q0 -30 -40 -30h-177q-40 0 -40 30q0 14 7.5 21.5t14 8.5t18.5 1h54v183l-225 306h-48q-41 0 -41 31q0 30 41 30h156q41 0 41 -31q0 -30 -41 -30h-23l174 -236l175 236h-23q-41 0 -41 31
q0 30 41 30h156q41 0 41 -31zM486 752q0 -22 -28 -35l-133 -59q-10 -5 -18 -5q-17 0 -25 14.5t-8 25.5q0 12 6 17.5t19 11.5l133 60l19 5q15 0 25 -10t10 -25z" />
    <glyph glyph-name="Thorn" unicode="&#xde;" horiz-adv-x="642" 
d="M583 333q0 -69 -62 -121.5t-158 -52.5h-153v-98h51q14 0 21 -1t14.5 -8.5t7.5 -21.5t-7.5 -21t-15 -8t-20.5 -1h-172q-14 0 -21 1t-14.5 8.5t-7.5 21.5t7.5 21t15 8t20.5 1h51v489h-51q-14 0 -21 1t-14.5 8.5t-7.5 21.5t7.5 21t15 8t20.5 1h172q14 0 21 -1t14.5 -8.5
t7.5 -21.5t-7.5 -21t-15 -8t-20.5 -1h-51v-43h152q97 0 159 -52.5t62 -121.5zM513 333q0 44 -45.5 78.5t-120.5 34.5h-137v-226h125q77 0 127.5 34t50.5 79z" />
    <glyph glyph-name="germandbls" unicode="&#xdf;" 
d="M495 175q0 -79 -55.5 -130t-127.5 -51q-48 0 -75 22.5t-27 52.5q0 19 12 30.5t29 11.5q20 0 32 -16q7 -10 7 -36q8 -4 22 -4q43 0 78.5 33t35.5 87q0 25 -7 53.5t-23.5 61t-51.5 55t-82 25.5q-24 5 -24 30q0 29 28 31q67 2 99 27.5t32 48.5q0 19 -32 34t-77 15
q-42 0 -74 -14q-23 -10 -28.5 -20t-5.5 -28v-453q0 -24 -8 -32.5t-32 -8.5h-83q-40 0 -40 30q0 14 7.5 21.5t14 8.5t18.5 1h54v309h-54q-40 0 -40 30q0 14 7.5 21.5t14 8.5t18.5 1h54v70q0 33 18.5 57t47.5 36t57 17.5t55 5.5q74 0 125.5 -30.5t51.5 -78.5q0 -68 -83 -113
q64 -45 88 -106t24 -114z" />
    <glyph glyph-name="agrave" unicode="&#xe0;" horiz-adv-x="510" 
d="M499 31q0 -15 -7.5 -22t-16 -8t-25.5 -1q-83 0 -105 32q-55 -38 -142 -38q-70 0 -115 39.5t-45 94.5q0 68 77.5 107.5t213.5 41.5q0 51 -33 76.5t-90 25.5q-25 0 -37 -1t-14.5 -3t-2.5 -8q-1 -24 -14.5 -35t-29.5 -11q-19 0 -32 12t-13 34q0 73 142 73q96 0 144.5 -46.5
t48.5 -108.5v-216q18 -8 56 -8q40 0 40 -30zM334 134v84q-111 -4 -166.5 -29t-55.5 -61q0 -30 27.5 -51.5t71.5 -21.5q49 0 84 16q18 8 27 20t10.5 20t1.5 23zM361 517q0 -11 -8 -25.5t-25 -14.5q-8 0 -18 5l-133 59q-28 13 -28 35q0 15 10 25t25 10q8 0 19 -5l133 -60
q9 -4 13 -6.5t8 -8.5t4 -14z" />
    <glyph glyph-name="aacute" unicode="&#xe1;" horiz-adv-x="510" 
d="M499 31q0 -15 -7.5 -22t-16 -8t-25.5 -1q-83 0 -105 32q-55 -38 -142 -38q-70 0 -115 39.5t-45 94.5q0 68 77.5 107.5t213.5 41.5q0 51 -33 76.5t-90 25.5q-25 0 -37 -1t-14.5 -3t-2.5 -8q-1 -24 -14.5 -35t-29.5 -11q-19 0 -32 12t-13 34q0 73 142 73q96 0 144.5 -46.5
t48.5 -108.5v-216q18 -8 56 -8q40 0 40 -30zM334 134v84q-111 -4 -166.5 -29t-55.5 -61q0 -30 27.5 -51.5t71.5 -21.5q49 0 84 16q18 8 27 20t10.5 20t1.5 23zM362 576q0 -22 -28 -35l-133 -59q-10 -5 -18 -5q-17 0 -25 14.5t-8 25.5q0 12 6 17.5t19 11.5l133 60l19 5
q15 0 25 -10t10 -25z" />
    <glyph glyph-name="acircumflex" unicode="&#xe2;" horiz-adv-x="510" 
d="M499 31q0 -15 -7.5 -22t-16 -8t-25.5 -1q-83 0 -105 32q-55 -38 -142 -38q-70 0 -115 39.5t-45 94.5q0 68 77.5 107.5t213.5 41.5q0 51 -33 76.5t-90 25.5q-25 0 -37 -1t-14.5 -3t-2.5 -8q-1 -24 -14.5 -35t-29.5 -11q-19 0 -32 12t-13 34q0 73 142 73q96 0 144.5 -46.5
t48.5 -108.5v-216q18 -8 56 -8q40 0 40 -30zM334 134v84q-111 -4 -166.5 -29t-55.5 -61q0 -30 27.5 -51.5t71.5 -21.5q49 0 84 16q18 8 27 20t10.5 20t1.5 23zM390 532q25 -16 9.5 -40.5t-40.5 -9.5l-103 62l-103 -62q-25 -15 -40.5 9.5t9.5 40.5l118 75q15 10 30 0z" />
    <glyph glyph-name="atilde" unicode="&#xe3;" horiz-adv-x="510" 
d="M499 31q0 -15 -7.5 -22t-16 -8t-25.5 -1q-83 0 -105 32q-55 -38 -142 -38q-70 0 -115 39.5t-45 94.5q0 68 77.5 107.5t213.5 41.5q0 51 -33 76.5t-90 25.5q-25 0 -37 -1t-14.5 -3t-2.5 -8q-1 -24 -14.5 -35t-29.5 -11q-19 0 -32 12t-13 34q0 73 142 73q96 0 144.5 -46.5
t48.5 -108.5v-216q18 -8 56 -8q40 0 40 -30zM334 134v84q-111 -4 -166.5 -29t-55.5 -61q0 -30 27.5 -51.5t71.5 -21.5q49 0 84 16q18 8 27 20t10.5 20t1.5 23zM431 572q0 -18 -49 -55q-45 -33 -78 -33t-67 34q-23 21 -31 21q-23 0 -70 -44q-13 -11 -24 -11q-12 0 -21.5 10
t-9.5 22q0 18 49 55q45 33 78 33t67 -34q23 -21 31 -21q23 0 70 44q13 11 24 11q12 0 21.5 -10t9.5 -22z" />
    <glyph glyph-name="adieresis" unicode="&#xe4;" horiz-adv-x="510" 
d="M499 31q0 -15 -7.5 -22t-16 -8t-25.5 -1q-83 0 -105 32q-55 -38 -142 -38q-70 0 -115 39.5t-45 94.5q0 68 77.5 107.5t213.5 41.5q0 51 -33 76.5t-90 25.5q-25 0 -37 -1t-14.5 -3t-2.5 -8q-1 -24 -14.5 -35t-29.5 -11q-19 0 -32 12t-13 34q0 73 142 73q96 0 144.5 -46.5
t48.5 -108.5v-216q18 -8 56 -8q40 0 40 -30zM334 134v84q-111 -4 -166.5 -29t-55.5 -61q0 -30 27.5 -51.5t71.5 -21.5q49 0 84 16q18 8 27 20t10.5 20t1.5 23zM218 544q0 -18 -13 -31.5t-33 -13.5q-18 0 -31.5 13t-13.5 32q0 17 13 31t33 14q19 0 32 -13.5t13 -31.5z
M385 544q0 -18 -13 -31.5t-33 -13.5q-18 0 -31.5 13t-13.5 32q0 17 13 31t33 14q19 0 32 -13.5t13 -31.5z" />
    <glyph glyph-name="aring" unicode="&#xe5;" horiz-adv-x="510" 
d="M499 31q0 -15 -7.5 -22t-16 -8t-25.5 -1q-83 0 -105 32q-55 -38 -142 -38q-70 0 -115 39.5t-45 94.5q0 68 77.5 107.5t213.5 41.5q0 51 -33 76.5t-90 25.5q-25 0 -37 -1t-14.5 -3t-2.5 -8q-1 -24 -14.5 -35t-29.5 -11q-19 0 -32 12t-13 34q0 73 142 73q96 0 144.5 -46.5
t48.5 -108.5v-216q18 -8 56 -8q40 0 40 -30zM334 134v84q-111 -4 -166.5 -29t-55.5 -61q0 -30 27.5 -51.5t71.5 -21.5q49 0 84 16q18 8 27 20t10.5 20t1.5 23zM306 558q0 12 -15 20.5t-36 8.5q-19 0 -35 -8t-16 -21q0 -12 15 -20.5t36 -8.5q19 0 35 8t16 21zM372 558
q0 -27 -33.5 -46.5t-84.5 -19.5q-48 0 -82 19.5t-34 46.5t33.5 46.5t84.5 19.5q48 0 82 -19.5t34 -46.5z" />
    <glyph glyph-name="ae" unicode="&#xe6;" horiz-adv-x="758" 
d="M728 109q0 -30 -43 -72.5t-119 -42.5q-102 0 -170 79q-22 -45 -76 -62t-107 -17q-71 0 -115.5 37t-44.5 87q0 122 291 131v30q0 48 -32 74t-91 26q-23 0 -38 -1q-11 -1 -13.5 -3t-2.5 -8q-1 -24 -14.5 -35t-29.5 -11q-19 0 -32 12t-13 34q0 73 142 73q122 0 172 -80
q66 80 159 80q83 0 130 -59t47 -152q0 -18 -6 -26.5t-13 -10t-21 -1.5h-273q9 -60 55 -98t102 -38q64 0 88 60q8 22 33 22q35 0 35 -28zM658 251q-4 55 -30.5 91.5t-76.5 36.5q-46 0 -85 -35.5t-50 -92.5h242zM349 127q0 2 -4 62q-90 -4 -134 -14q-89 -24 -89 -56
q0 -27 28 -45.5t72 -18.5q48 0 84 15q43 17 43 57z" />
    <glyph glyph-name="ccedilla" unicode="&#xe7;" horiz-adv-x="467" 
d="M437 109q0 -7 -5.5 -20t-17.5 -31t-37 -34t-57 -24v-10q39 -10 63 -35t24 -62q0 -24 -9 -42.5t-28.5 -29t-37 -17t-47 -9t-46 -3t-45.5 -0.5q-11 0 -21 7.5t-10 23.5q0 15 8.5 22t18 8t29.5 1q69 0 94 10t25 30q0 16 -16 27t-41 13q-14 1 -21 8t-8 13t-1 18v21
q-88 5 -147.5 69.5t-59.5 152.5q0 36 12.5 72.5t38.5 72t73 57.5t108 22q149 0 149 -73q0 -21 -13 -33.5t-32 -12.5q-43 0 -44 49q0 9 -60 9q-47 0 -81.5 -18t-51 -46t-23.5 -52.5t-7 -46.5q0 -68 46.5 -114.5t110.5 -46.5q71 0 99 60q5 14 12 18t21 4q35 0 35 -28z" />
    <glyph glyph-name="egrave" unicode="&#xe8;" horiz-adv-x="467" 
d="M437 109q0 -31 -45.5 -73t-128.5 -42q-94 0 -159.5 65.5t-65.5 158.5q0 91 61 156.5t149 65.5q89 0 139 -59.5t50 -152.5q0 -13 -3 -21t-9.5 -11.5t-12 -4t-15.5 -0.5h-288q10 -60 56 -98t104 -38q75 0 100 60q5 14 12 18t21 4q35 0 35 -28zM366 251q-5 70 -39 99t-79 29
q-50 0 -89 -36t-49 -92h256zM339 517q0 -11 -8 -25.5t-25 -14.5q-8 0 -18 5l-133 59q-28 13 -28 35q0 15 10 25t25 10q8 0 19 -5l133 -60q9 -4 13 -6.5t8 -8.5t4 -14z" />
    <glyph glyph-name="eacute" unicode="&#xe9;" horiz-adv-x="467" 
d="M437 109q0 -31 -45.5 -73t-128.5 -42q-94 0 -159.5 65.5t-65.5 158.5q0 91 61 156.5t149 65.5q89 0 139 -59.5t50 -152.5q0 -13 -3 -21t-9.5 -11.5t-12 -4t-15.5 -0.5h-288q10 -60 56 -98t104 -38q75 0 100 60q5 14 12 18t21 4q35 0 35 -28zM366 251q-5 70 -39 99t-79 29
q-50 0 -89 -36t-49 -92h256zM340 576q0 -22 -28 -35l-133 -59q-10 -5 -18 -5q-17 0 -25 14.5t-8 25.5q0 12 6 17.5t19 11.5l133 60l19 5q15 0 25 -10t10 -25z" />
    <glyph glyph-name="ecircumflex" unicode="&#xea;" horiz-adv-x="467" 
d="M437 109q0 -31 -45.5 -73t-128.5 -42q-94 0 -159.5 65.5t-65.5 158.5q0 91 61 156.5t149 65.5q89 0 139 -59.5t50 -152.5q0 -13 -3 -21t-9.5 -11.5t-12 -4t-15.5 -0.5h-288q10 -60 56 -98t104 -38q75 0 100 60q5 14 12 18t21 4q35 0 35 -28zM366 251q-5 70 -39 99t-79 29
q-50 0 -89 -36t-49 -92h256zM368 532q25 -16 9.5 -40.5t-40.5 -9.5l-103 62l-103 -62q-25 -15 -40.5 9.5t9.5 40.5l118 75q15 10 30 0z" />
    <glyph glyph-name="edieresis" unicode="&#xeb;" horiz-adv-x="467" 
d="M437 109q0 -31 -45.5 -73t-128.5 -42q-94 0 -159.5 65.5t-65.5 158.5q0 91 61 156.5t149 65.5q89 0 139 -59.5t50 -152.5q0 -13 -3 -21t-9.5 -11.5t-12 -4t-15.5 -0.5h-288q10 -60 56 -98t104 -38q75 0 100 60q5 14 12 18t21 4q35 0 35 -28zM366 251q-5 70 -39 99t-79 29
q-50 0 -89 -36t-49 -92h256zM196 544q0 -18 -13 -31.5t-33 -13.5q-18 0 -31.5 13t-13.5 32q0 17 13 31t33 14q19 0 32 -13.5t13 -31.5zM363 544q0 -18 -13 -31.5t-33 -13.5q-18 0 -31.5 13t-13.5 32q0 17 13 31t33 14q19 0 32 -13.5t13 -31.5z" />
    <glyph glyph-name="igrave" unicode="&#xec;" horiz-adv-x="292" 
d="M265 30q0 -30 -40 -30h-168q-40 0 -40 30q0 14 7.5 21.5t14 8.5t18.5 1h54v309h-49q-41 0 -41 31q0 30 41 30h78q25 0 32.5 -8.5t7.5 -32.5v-329h44q41 0 41 -31zM251 517q0 -11 -8 -25.5t-25 -14.5q-8 0 -18 5l-133 59q-28 13 -28 35q0 15 10 25t25 10q8 0 19 -5
l133 -60q9 -4 13 -6.5t8 -8.5t4 -14z" />
    <glyph glyph-name="iacute" unicode="&#xed;" horiz-adv-x="292" 
d="M265 30q0 -30 -40 -30h-168q-40 0 -40 30q0 14 7.5 21.5t14 8.5t18.5 1h54v309h-49q-41 0 -41 31q0 30 41 30h78q25 0 32.5 -8.5t7.5 -32.5v-329h44q41 0 41 -31zM252 576q0 -22 -28 -35l-133 -59q-10 -5 -18 -5q-17 0 -25 14.5t-8 25.5q0 12 6 17.5t19 11.5l133 60l19 5
q15 0 25 -10t10 -25z" />
    <glyph glyph-name="icircumflex" unicode="&#xee;" horiz-adv-x="292" 
d="M265 30q0 -30 -40 -30h-168q-40 0 -40 30q0 14 7.5 21.5t14 8.5t18.5 1h54v309h-49q-41 0 -41 31q0 30 41 30h78q25 0 32.5 -8.5t7.5 -32.5v-329h44q41 0 41 -31zM280 532q25 -16 9.5 -40.5t-40.5 -9.5l-103 62l-103 -62q-25 -15 -40.5 9.5t9.5 40.5l118 75q15 10 30 0z
" />
    <glyph glyph-name="idieresis" unicode="&#xef;" horiz-adv-x="292" 
d="M265 30q0 -30 -40 -30h-168q-40 0 -40 30q0 14 7.5 21.5t14 8.5t18.5 1h54v309h-49q-41 0 -41 31q0 30 41 30h78q25 0 32.5 -8.5t7.5 -32.5v-329h44q41 0 41 -31zM108 544q0 -18 -13 -31.5t-33 -13.5q-18 0 -31.5 13t-13.5 32q0 17 13 31t33 14q19 0 32 -13.5t13 -31.5z
M275 544q0 -18 -13 -31.5t-33 -13.5q-18 0 -31.5 13t-13.5 32q0 17 13 31t33 14q19 0 32 -13.5t13 -31.5z" />
    <glyph glyph-name="eth" unicode="&#xf0;" 
d="M486 245q0 -36 -2 -57t-15 -55.5t-39 -64.5q-68 -74 -168 -74q-93 0 -158.5 65t-65.5 156q0 92 65.5 158t158.5 66q66 0 114 -31q-33 57 -85 91l-15 10l-87 -40q-7 -4 -16 -4q-14 0 -22.5 8t-8.5 21q0 20 21 31l38 17q-22 6 -33 8q-24 4 -44 4l-50 -5q-14 0 -21.5 9
t-7.5 19q0 39 87 39q55 0 108 -18q21 -7 43 -18l70 33q7 4 17 4q13 0 22 -8t9 -21q0 -20 -21 -31l-34 -15q37 -30 65 -63q26 -32 43 -66t23 -68t7.5 -53t1.5 -47zM416 219q0 61 -44 110t-110 49q-63 0 -108.5 -45t-45.5 -110q0 -70 45.5 -119t108.5 -49q65 0 109.5 50.5
t44.5 113.5z" />
    <glyph glyph-name="ntilde" unicode="&#xf1;" horiz-adv-x="583" 
d="M565 30q0 -30 -40 -30h-177q-12 0 -18.5 1t-14 8.5t-7.5 21.5q0 30 40 30h54v224q0 47 -16 69t-65 22q-31 0 -61.5 -12t-55 -45t-24.5 -82v-176h54q12 0 18.5 -1t14 -8.5t7.5 -21.5q0 -30 -40 -30h-177q-40 0 -40 30q0 14 7.5 21.5t14 8.5t18.5 1h54v309h-54
q-40 0 -40 30q0 14 7.5 21.5t14 8.5t18.5 1h83q28 0 34 -10t6 -41q62 57 147 57q144 0 144 -146v-230h54q12 0 18.5 -1t14 -8.5t7.5 -21.5zM467 572q0 -18 -49 -55q-45 -33 -78 -33t-67 34q-23 21 -31 21q-23 0 -70 -44q-13 -11 -24 -11q-12 0 -21.5 10t-9.5 22q0 18 49 55
q45 33 78 33t67 -34q23 -21 31 -21q23 0 70 44q13 11 24 11q12 0 21.5 -10t9.5 -22z" />
    <glyph glyph-name="ograve" unicode="&#xf2;" 
d="M486 216q0 -93 -65.5 -157.5t-158.5 -64.5t-158.5 64.5t-65.5 157.5q0 92 65.5 158t158.5 66t158.5 -66t65.5 -158zM417 223q0 66 -46 111t-109 45t-109 -45t-46 -111q0 -69 45 -118.5t110 -49.5q64 0 109.5 49.5t45.5 118.5zM368 517q0 -11 -8 -25.5t-25 -14.5
q-8 0 -18 5l-133 59q-28 13 -28 35q0 15 10 25t25 10q8 0 19 -5l133 -60q9 -4 13 -6.5t8 -8.5t4 -14z" />
    <glyph glyph-name="oacute" unicode="&#xf3;" 
d="M486 216q0 -93 -65.5 -157.5t-158.5 -64.5t-158.5 64.5t-65.5 157.5q0 92 65.5 158t158.5 66t158.5 -66t65.5 -158zM417 223q0 66 -46 111t-109 45t-109 -45t-46 -111q0 -69 45 -118.5t110 -49.5q64 0 109.5 49.5t45.5 118.5zM369 576q0 -22 -28 -35l-133 -59
q-10 -5 -18 -5q-17 0 -25 14.5t-8 25.5q0 12 6 17.5t19 11.5l133 60l19 5q15 0 25 -10t10 -25z" />
    <glyph glyph-name="ocircumflex" unicode="&#xf4;" 
d="M486 216q0 -93 -65.5 -157.5t-158.5 -64.5t-158.5 64.5t-65.5 157.5q0 92 65.5 158t158.5 66t158.5 -66t65.5 -158zM417 223q0 66 -46 111t-109 45t-109 -45t-46 -111q0 -69 45 -118.5t110 -49.5q64 0 109.5 49.5t45.5 118.5zM397 532q25 -16 9.5 -40.5t-40.5 -9.5
l-103 62l-103 -62q-25 -15 -40.5 9.5t9.5 40.5l118 75q15 10 30 0z" />
    <glyph glyph-name="otilde" unicode="&#xf5;" 
d="M486 216q0 -93 -65.5 -157.5t-158.5 -64.5t-158.5 64.5t-65.5 157.5q0 92 65.5 158t158.5 66t158.5 -66t65.5 -158zM417 223q0 66 -46 111t-109 45t-109 -45t-46 -111q0 -69 45 -118.5t110 -49.5q64 0 109.5 49.5t45.5 118.5zM438 572q0 -18 -49 -55q-45 -33 -78 -33
t-67 34q-23 21 -31 21q-23 0 -70 -44q-13 -11 -24 -11q-12 0 -21.5 10t-9.5 22q0 18 49 55q45 33 78 33t67 -34q23 -21 31 -21q23 0 70 44q13 11 24 11q12 0 21.5 -10t9.5 -22z" />
    <glyph glyph-name="odieresis" unicode="&#xf6;" 
d="M486 216q0 -93 -65.5 -157.5t-158.5 -64.5t-158.5 64.5t-65.5 157.5q0 92 65.5 158t158.5 66t158.5 -66t65.5 -158zM417 223q0 66 -46 111t-109 45t-109 -45t-46 -111q0 -69 45 -118.5t110 -49.5q64 0 109.5 49.5t45.5 118.5zM225 544q0 -18 -13 -31.5t-33 -13.5
q-18 0 -31.5 13t-13.5 32q0 17 13 31t33 14q19 0 32 -13.5t13 -31.5zM392 544q0 -18 -13 -31.5t-33 -13.5q-18 0 -31.5 13t-13.5 32q0 17 13 31t33 14q19 0 32 -13.5t13 -31.5z" />
    <glyph glyph-name="divide" unicode="&#xf7;" horiz-adv-x="817" 
d="M758 306q0 -35 -45 -35h-610q-45 0 -45 35t51 35h598q51 0 51 -35zM458 480q0 -21 -14.5 -35.5t-35.5 -14.5t-35.5 14.5t-14.5 35.5t14.5 35.5t35.5 14.5t35.5 -14.5t14.5 -35.5zM458 132q0 -21 -14.5 -35.5t-35.5 -14.5t-35.5 14.5t-14.5 35.5t14.5 35.5t35.5 14.5
t35.5 -14.5t14.5 -35.5z" />
    <glyph glyph-name="oslash" unicode="&#xf8;" 
d="M481 541q0 -9 -7 -21l-75 -130q80 -73 80 -174q0 -92 -64 -157t-153 -65q-44 0 -83 17l-77 -132q-10 -19 -27 -19q-11 0 -21.5 8t-10.5 22q0 9 17 38l66 114q-81 70 -81 174q0 92 63.5 158t153.5 66q41 0 85 -18l75 130q11 19 27 19q11 0 21.5 -8t10.5 -22zM316 370
q-26 9 -54 9q-66 0 -113.5 -48t-47.5 -115q0 -71 55 -122zM423 216q0 74 -55 122l-158 -275q25 -8 52 -8q66 0 113.5 47t47.5 114z" />
    <glyph glyph-name="ugrave" unicode="&#xf9;" horiz-adv-x="583" 
d="M565 30q0 -30 -40 -30h-83q-13 0 -19.5 1t-13.5 9.5t-7 24.5q-53 -41 -137 -41q-154 0 -154 121v255h-54q-40 0 -40 30q0 14 7.5 21.5t14 8.5t18.5 1h83q25 0 32.5 -8.5t7.5 -32.5v-269q0 -16 1.5 -24t9.5 -19.5t28 -17t52 -5.5q18 0 36 3t41.5 12t38.5 31.5t15 55.5v213
h-54q-12 0 -18.5 1t-14 8.5t-7.5 21.5q0 30 40 30h83q25 0 32.5 -8.5t7.5 -32.5v-329h54q12 0 18.5 -1t14 -8.5t7.5 -21.5zM397 517q0 -11 -8 -25.5t-25 -14.5q-8 0 -18 5l-133 59q-28 13 -28 35q0 15 10 25t25 10q8 0 19 -5l133 -60q9 -4 13 -6.5t8 -8.5t4 -14z" />
    <glyph glyph-name="uacute" unicode="&#xfa;" horiz-adv-x="583" 
d="M565 30q0 -30 -40 -30h-83q-13 0 -19.5 1t-13.5 9.5t-7 24.5q-53 -41 -137 -41q-154 0 -154 121v255h-54q-40 0 -40 30q0 14 7.5 21.5t14 8.5t18.5 1h83q25 0 32.5 -8.5t7.5 -32.5v-269q0 -16 1.5 -24t9.5 -19.5t28 -17t52 -5.5q18 0 36 3t41.5 12t38.5 31.5t15 55.5v213
h-54q-12 0 -18.5 1t-14 8.5t-7.5 21.5q0 30 40 30h83q25 0 32.5 -8.5t7.5 -32.5v-329h54q12 0 18.5 -1t14 -8.5t7.5 -21.5zM398 576q0 -22 -28 -35l-133 -59q-10 -5 -18 -5q-17 0 -25 14.5t-8 25.5q0 12 6 17.5t19 11.5l133 60l19 5q15 0 25 -10t10 -25z" />
    <glyph glyph-name="ucircumflex" unicode="&#xfb;" horiz-adv-x="583" 
d="M565 30q0 -30 -40 -30h-83q-13 0 -19.5 1t-13.5 9.5t-7 24.5q-53 -41 -137 -41q-154 0 -154 121v255h-54q-40 0 -40 30q0 14 7.5 21.5t14 8.5t18.5 1h83q25 0 32.5 -8.5t7.5 -32.5v-269q0 -16 1.5 -24t9.5 -19.5t28 -17t52 -5.5q18 0 36 3t41.5 12t38.5 31.5t15 55.5v213
h-54q-12 0 -18.5 1t-14 8.5t-7.5 21.5q0 30 40 30h83q25 0 32.5 -8.5t7.5 -32.5v-329h54q12 0 18.5 -1t14 -8.5t7.5 -21.5zM426 532q25 -16 9.5 -40.5t-40.5 -9.5l-103 62l-103 -62q-25 -15 -40.5 9.5t9.5 40.5l118 75q15 10 30 0z" />
    <glyph glyph-name="udieresis" unicode="&#xfc;" horiz-adv-x="583" 
d="M565 30q0 -30 -40 -30h-83q-13 0 -19.5 1t-13.5 9.5t-7 24.5q-53 -41 -137 -41q-154 0 -154 121v255h-54q-40 0 -40 30q0 14 7.5 21.5t14 8.5t18.5 1h83q25 0 32.5 -8.5t7.5 -32.5v-269q0 -16 1.5 -24t9.5 -19.5t28 -17t52 -5.5q18 0 36 3t41.5 12t38.5 31.5t15 55.5v213
h-54q-12 0 -18.5 1t-14 8.5t-7.5 21.5q0 30 40 30h83q25 0 32.5 -8.5t7.5 -32.5v-329h54q12 0 18.5 -1t14 -8.5t7.5 -21.5zM254 544q0 -18 -13 -31.5t-33 -13.5q-18 0 -31.5 13t-13.5 32q0 17 13 31t33 14q19 0 32 -13.5t13 -31.5zM421 544q0 -18 -13 -31.5t-33 -13.5
q-18 0 -31.5 13t-13.5 32q0 17 13 31t33 14q19 0 32 -13.5t13 -31.5z" />
    <glyph glyph-name="yacute" unicode="&#xfd;" horiz-adv-x="554" 
d="M527 400q0 -30 -40 -30h-40l-155 -453q-19 -55 -65 -100t-109 -45q-42 0 -70 24.5t-28 57.5q0 20 12 32t32 12q18 0 30.5 -12t12.5 -32q0 -5 -1 -10t-1 -6q0 -5 15 -5q87 0 119 105q20 57 22 62l-151 370h-41q-41 0 -41 31q0 30 41 30h140q12 0 18.5 -1t14 -8.5
t7.5 -21.5q0 -30 -40 -30h-38l95 -238l23 -63l98 301h-41q-40 0 -40 30q0 14 7.5 21.5t14 8.5t18.5 1h141q12 0 18.5 -1t14 -8.5t7.5 -21.5zM384 576q0 -22 -28 -35l-133 -59q-10 -5 -18 -5q-17 0 -25 14.5t-8 25.5q0 12 6 17.5t19 11.5l133 60l19 5q15 0 25 -10t10 -25z
" />
    <glyph glyph-name="thorn" unicode="&#xfe;" horiz-adv-x="583" 
d="M538 216q0 -93 -66.5 -157.5t-157.5 -64.5q-79 0 -134 59v-214h54q12 0 18.5 -1t14 -8.5t7.5 -21.5q0 -30 -40 -30h-177q-40 0 -40 30q0 14 7.5 21.5t14 8.5t18.5 1h54v711h-54q-40 0 -40 30q0 14 7.5 21.5t14 8.5t18.5 1h83q25 0 32.5 -8.5t7.5 -32.5v-187q62 54 145 54
q89 0 151 -65t62 -156zM469 216q0 65 -43 112.5t-107 47.5q-54 0 -96.5 -34t-42.5 -80v-67q0 -48 36 -94t94 -46q64 0 111.5 46.5t47.5 114.5z" />
    <glyph glyph-name="ydieresis" unicode="&#xff;" horiz-adv-x="554" 
d="M527 400q0 -30 -40 -30h-40l-155 -453q-19 -55 -65 -100t-109 -45q-42 0 -70 24.5t-28 57.5q0 20 12 32t32 12q18 0 30.5 -12t12.5 -32q0 -5 -1 -10t-1 -6q0 -5 15 -5q87 0 119 105q20 57 22 62l-151 370h-41q-41 0 -41 31q0 30 41 30h140q12 0 18.5 -1t14 -8.5
t7.5 -21.5q0 -30 -40 -30h-38l95 -238l23 -63l98 301h-41q-40 0 -40 30q0 14 7.5 21.5t14 8.5t18.5 1h141q12 0 18.5 -1t14 -8.5t7.5 -21.5zM240 544q0 -18 -13 -31.5t-33 -13.5q-18 0 -31.5 13t-13.5 32q0 17 13 31t33 14q19 0 32 -13.5t13 -31.5zM407 544q0 -18 -13 -31.5
t-33 -13.5q-18 0 -31.5 13t-13.5 32q0 17 13 31t33 14q19 0 32 -13.5t13 -31.5z" />
    <glyph glyph-name="Amacron" unicode="&#x100;" horiz-adv-x="758" 
d="M716 30q0 -30 -40 -30h-159q-41 0 -41 31q0 30 41 30h40l-40 111h-277l-40 -111h40q41 0 41 -31q0 -30 -41 -30h-159q-12 0 -18.5 1t-14 8.5t-7.5 21.5q0 30 40 30h46l189 529q6 15 16 23t17 9t20 1h19q14 0 21 -1t16.5 -9t15.5 -24l189 -528h46q12 0 18.5 -1t14 -8.5
t7.5 -21.5zM495 233l-117 326l-116 -326h233zM569 694q0 -14 -7.5 -21.5t-14 -8.5t-18.5 -1h-297q-12 0 -19 1t-14.5 8.5t-7.5 22.5q0 14 7.5 21.5t14 8.5t18.5 1h298q12 0 18.5 -1t14 -8.5t7.5 -22.5z" />
    <glyph glyph-name="amacron" unicode="&#x101;" horiz-adv-x="510" 
d="M499 31q0 -15 -7.5 -22t-16 -8t-25.5 -1q-83 0 -105 32q-55 -38 -142 -38q-70 0 -115 39.5t-45 94.5q0 68 77.5 107.5t213.5 41.5q0 51 -33 76.5t-90 25.5q-25 0 -37 -1t-14.5 -3t-2.5 -8q-1 -24 -14.5 -35t-29.5 -11q-19 0 -32 12t-13 34q0 73 142 73q96 0 144.5 -46.5
t48.5 -108.5v-216q18 -8 56 -8q40 0 40 -30zM334 134v84q-111 -4 -166.5 -29t-55.5 -61q0 -30 27.5 -51.5t71.5 -21.5q49 0 84 16q18 8 27 20t10.5 20t1.5 23zM445 544q0 -14 -7.5 -21.5t-14 -8.5t-18.5 -1h-297q-12 0 -19 1t-14.5 8.5t-7.5 22.5q0 14 7.5 21.5t14 8.5
t18.5 1h298q12 0 18.5 -1t14 -8.5t7.5 -22.5z" />
    <glyph glyph-name="Abreve" unicode="&#x102;" horiz-adv-x="758" 
d="M716 30q0 -30 -40 -30h-159q-41 0 -41 31q0 30 41 30h40l-40 111h-277l-40 -111h40q41 0 41 -31q0 -30 -41 -30h-159q-12 0 -18.5 1t-14 8.5t-7.5 21.5q0 30 40 30h46l189 529q6 15 16 23t17 9t20 1h19q14 0 21 -1t16.5 -9t15.5 -24l189 -528h46q12 0 18.5 -1t14 -8.5
t7.5 -21.5zM495 233l-117 326l-116 -326h233zM556 735q0 -29 -16.5 -47t-48.5 -25t-53.5 -8.5t-57.5 -1.5t-57.5 1.5t-53.5 8.5t-48.5 25t-16.5 47q0 31 31 31q25 0 30 -29q5 -20 115 -20t115 20q5 29 30 29q31 0 31 -31z" />
    <glyph glyph-name="abreve" unicode="&#x103;" horiz-adv-x="510" 
d="M499 31q0 -15 -7.5 -22t-16 -8t-25.5 -1q-83 0 -105 32q-55 -38 -142 -38q-70 0 -115 39.5t-45 94.5q0 68 77.5 107.5t213.5 41.5q0 51 -33 76.5t-90 25.5q-25 0 -37 -1t-14.5 -3t-2.5 -8q-1 -24 -14.5 -35t-29.5 -11q-19 0 -32 12t-13 34q0 73 142 73q96 0 144.5 -46.5
t48.5 -108.5v-216q18 -8 56 -8q40 0 40 -30zM334 134v84q-111 -4 -166.5 -29t-55.5 -61q0 -30 27.5 -51.5t71.5 -21.5q49 0 84 16q18 8 27 20t10.5 20t1.5 23zM432 570q0 -29 -16.5 -47t-48.5 -25t-53.5 -8.5t-57.5 -1.5t-57.5 1.5t-53.5 8.5t-48.5 25t-16.5 47q0 31 31 31
q25 0 30 -29q5 -20 115 -20t115 20q5 29 30 29q31 0 31 -31z" />
    <glyph glyph-name="Aogonek" unicode="&#x104;" horiz-adv-x="758" 
d="M716 30q0 -30 -40 -30h-33q-87 -51 -87 -110q0 -17 14.5 -28t29.5 -11q14 0 29 11.5t25 25.5q5 5 17.5 7t19.5 -2q6 -5 8 -17.5t-3 -19.5q-43 -59 -100 -59q-44 0 -71.5 30t-27.5 65q0 66 65 108h-45q-41 0 -41 31q0 30 41 30h40l-40 111h-277l-40 -111h40q41 0 41 -31
q0 -30 -41 -30h-159q-12 0 -18.5 1t-14 8.5t-7.5 21.5q0 30 40 30h46l189 529q6 15 16 23t17 9t20 1h19q14 0 21 -1t16.5 -9t15.5 -24l189 -528h46q12 0 18.5 -1t14 -8.5t7.5 -21.5zM495 233l-117 326l-116 -326h233z" />
    <glyph glyph-name="aogonek" unicode="&#x105;" horiz-adv-x="510" 
d="M499 31q0 -15 -7.5 -22t-16 -8t-25.5 -1q-94 -55 -94 -110q0 -17 14.5 -28t29.5 -11q14 0 29 11.5t25 25.5q5 5 17.5 7t19.5 -2q6 -5 8 -17.5t-3 -19.5q-43 -59 -100 -59q-44 0 -71.5 30t-27.5 65q0 33 23 65t55 53q-22 9 -30 22q-55 -38 -142 -38q-70 0 -115 39.5
t-45 94.5q0 68 77.5 107.5t213.5 41.5q0 51 -33 76.5t-90 25.5q-25 0 -37 -1t-14.5 -3t-2.5 -8q-1 -24 -14.5 -35t-29.5 -11q-19 0 -32 12t-13 34q0 73 142 73q96 0 144.5 -46.5t48.5 -108.5v-216q18 -8 56 -8q40 0 40 -30zM334 134v84q-111 -4 -166.5 -29t-55.5 -61
q0 -30 27.5 -51.5t71.5 -21.5q49 0 84 16q18 8 27 20t10.5 20t1.5 23z" />
    <glyph glyph-name="Cacute" unicode="&#x106;" horiz-adv-x="758" 
d="M699 168q0 -78 -78.5 -128.5t-210.5 -50.5q-151 0 -251.5 94t-100.5 223q0 128 101 222t249 94q133 0 212 -62q13 28 18 37q6 14 12 19.5t19 5.5q30 0 30 -41v-139q0 -13 -1 -20t-9.5 -14t-24.5 -7q-28 0 -33 23q-5 21 -9.5 33t-21.5 33t-45 37q-58 34 -140 34
q-122 0 -205 -76t-83 -179q0 -104 83 -180t207 -76q86 0 142 28q23 11 38 24t21.5 27t8.5 22t3 21q2 29 34 29q35 0 35 -33zM524 752q0 -22 -28 -35l-133 -59q-10 -5 -18 -5q-17 0 -25 14.5t-8 25.5q0 12 6 17.5t19 11.5l133 60l19 5q15 0 25 -10t10 -25z" />
    <glyph glyph-name="cacute" unicode="&#x107;" horiz-adv-x="467" 
d="M437 109q0 -9 -8 -25.5t-25.5 -38t-54.5 -36.5t-85 -15q-93 0 -156.5 65.5t-63.5 156.5q0 36 12.5 72.5t38.5 72t73 57.5t108 22q149 0 149 -73q0 -21 -13 -33.5t-32 -12.5q-43 0 -44 49q-26 9 -60 9q-47 0 -81.5 -18t-51 -46t-23.5 -52.5t-7 -46.5q0 -68 46.5 -114.5
t110.5 -46.5q71 0 99 60q5 14 12 18t21 4q35 0 35 -28zM364 576q0 -22 -28 -35l-133 -59q-10 -5 -18 -5q-17 0 -25 14.5t-8 25.5q0 12 6 17.5t19 11.5l133 60l19 5q15 0 25 -10t10 -25z" />
    <glyph glyph-name="Ccircumflex" unicode="&#x108;" horiz-adv-x="758" 
d="M699 168q0 -78 -78.5 -128.5t-210.5 -50.5q-151 0 -251.5 94t-100.5 223q0 128 101 222t249 94q133 0 212 -62q13 28 18 37q6 14 12 19.5t19 5.5q30 0 30 -41v-139q0 -13 -1 -20t-9.5 -14t-24.5 -7q-28 0 -33 23q-5 21 -9.5 33t-21.5 33t-45 37q-58 34 -140 34
q-122 0 -205 -76t-83 -179q0 -104 83 -180t207 -76q86 0 142 28q23 11 38 24t21.5 27t8.5 22t3 21q2 29 34 29q35 0 35 -33zM546 701q26 -10 17 -37t-36 -19l-109 33l-109 -33q-27 -8 -36 19t18 37l118 43q9 3 19 0z" />
    <glyph glyph-name="ccircumflex" unicode="&#x109;" horiz-adv-x="467" 
d="M437 109q0 -9 -8 -25.5t-25.5 -38t-54.5 -36.5t-85 -15q-93 0 -156.5 65.5t-63.5 156.5q0 36 12.5 72.5t38.5 72t73 57.5t108 22q149 0 149 -73q0 -21 -13 -33.5t-32 -12.5q-43 0 -44 49q-26 9 -60 9q-47 0 -81.5 -18t-51 -46t-23.5 -52.5t-7 -46.5q0 -68 46.5 -114.5
t110.5 -46.5q71 0 99 60q5 14 12 18t21 4q35 0 35 -28zM392 532q25 -16 9.5 -40.5t-40.5 -9.5l-103 62l-103 -62q-25 -15 -40.5 9.5t9.5 40.5l118 75q15 10 30 0z" />
    <glyph glyph-name="Cdotaccent" unicode="&#x10a;" horiz-adv-x="758" 
d="M699 168q0 -78 -78.5 -128.5t-210.5 -50.5q-151 0 -251.5 94t-100.5 223q0 128 101 222t249 94q133 0 212 -62q13 28 18 37q6 14 12 19.5t19 5.5q30 0 30 -41v-139q0 -13 -1 -20t-9.5 -14t-24.5 -7q-28 0 -33 23q-5 21 -9.5 33t-21.5 33t-45 37q-58 34 -140 34
q-122 0 -205 -76t-83 -179q0 -104 83 -180t207 -76q86 0 142 28q23 11 38 24t21.5 27t8.5 22t3 21q2 29 34 29q35 0 35 -33zM467 704q0 -20 -14.5 -35t-36.5 -15q-20 0 -35 15t-15 35t14.5 35t36.5 15q20 0 35 -15t15 -35z" />
    <glyph glyph-name="cdotaccent" unicode="&#x10b;" horiz-adv-x="467" 
d="M437 109q0 -9 -8 -25.5t-25.5 -38t-54.5 -36.5t-85 -15q-93 0 -156.5 65.5t-63.5 156.5q0 36 12.5 72.5t38.5 72t73 57.5t108 22q149 0 149 -73q0 -21 -13 -33.5t-32 -12.5q-43 0 -44 49q-26 9 -60 9q-47 0 -81.5 -18t-51 -46t-23.5 -52.5t-7 -46.5q0 -68 46.5 -114.5
t110.5 -46.5q71 0 99 60q5 14 12 18t21 4q35 0 35 -28zM307 544q0 -20 -14.5 -35t-36.5 -15q-20 0 -35 15t-15 35t14.5 35t36.5 15q20 0 35 -15t15 -35z" />
    <glyph glyph-name="Ccaron" unicode="&#x10c;" horiz-adv-x="758" 
d="M699 168q0 -78 -78.5 -128.5t-210.5 -50.5q-151 0 -251.5 94t-100.5 223q0 128 101 222t249 94q133 0 212 -62q13 28 18 37q6 14 12 19.5t19 5.5q30 0 30 -41v-139q0 -13 -1 -20t-9.5 -14t-24.5 -7q-28 0 -33 23q-5 21 -9.5 33t-21.5 33t-45 37q-58 34 -140 34
q-122 0 -205 -76t-83 -179q0 -104 83 -180t207 -76q86 0 142 28q23 11 38 24t21.5 27t8.5 22t3 21q2 29 34 29q35 0 35 -33zM545 688l-118 -43q-9 -3 -19 0l-118 43q-26 10 -17 37t36 19l109 -33l109 33q27 8 36 -19t-18 -37z" />
    <glyph glyph-name="ccaron" unicode="&#x10d;" horiz-adv-x="467" 
d="M437 109q0 -9 -8 -25.5t-25.5 -38t-54.5 -36.5t-85 -15q-93 0 -156.5 65.5t-63.5 156.5q0 36 12.5 72.5t38.5 72t73 57.5t108 22q149 0 149 -73q0 -21 -13 -33.5t-32 -12.5q-43 0 -44 49q-26 9 -60 9q-47 0 -81.5 -18t-51 -46t-23.5 -52.5t-7 -46.5q0 -68 46.5 -114.5
t110.5 -46.5q71 0 99 60q5 14 12 18t21 4q35 0 35 -28zM392 556l-118 -75q-15 -10 -30 0l-120 75q-25 16 -9.5 40.5t40.5 9.5l103 -62l103 62q25 15 40.5 -9.5t-9.5 -40.5z" />
    <glyph glyph-name="Dcaron" unicode="&#x10e;" horiz-adv-x="788" 
d="M728 300q0 -123 -93.5 -211.5t-226.5 -88.5h-322q-40 0 -40 30q0 14 7.5 21.5t14 8.5t18.5 1h54v489h-54q-40 0 -40 30q0 14 7.5 21.5t14 8.5t18.5 1h322q132 0 226 -91.5t94 -219.5zM659 301q0 100 -77.5 174.5t-192.5 74.5h-180v-489h181q113 0 191 70.5t78 169.5z
M427 688l-118 -43q-9 -3 -19 0l-118 43q-26 10 -17 37t36 19l109 -33l109 33q27 8 36 -19t-18 -37z" />
    <glyph glyph-name="dcaron" unicode="&#x10f;" horiz-adv-x="583" 
d="M565 30q0 -30 -40 -30h-83q-25 0 -32.5 8.5t-7.5 32.5v17q-59 -64 -145 -64q-87 0 -150 64.5t-63 156.5q0 93 65.5 157.5t158.5 64.5q76 0 134 -51v164h-54q-12 0 -18.5 1t-14 8.5t-7.5 21.5q0 30 40 30h83q25 0 32.5 -8.5t7.5 -32.5v-509h54q12 0 18.5 -1t14 -8.5
t7.5 -21.5zM402 197v66q0 45 -38.5 79t-90.5 34q-65 0 -112.5 -47t-47.5 -114q0 -66 43.5 -113t105.5 -47q60 0 100 46t40 96zM601 544q0 -45 -25 -78.5t-42 -33.5q-9 0 -16.5 7.5t-7.5 15.5q0 9 11 20q30 24 33 61q-37 3 -37 38q0 15 10.5 26t26.5 11q20 0 33.5 -16.5
t13.5 -50.5z" />
    <glyph glyph-name="Dcroat" unicode="&#x110;" horiz-adv-x="788" 
d="M728 300q0 -123 -93.5 -211.5t-226.5 -88.5h-322q-40 0 -40 30q0 14 7.5 21.5t14 8.5t18.5 1h54v214h-59q-13 0 -22 9t-9 22t9 22t22 9h59v213h-54q-40 0 -40 30q0 14 7.5 21.5t14 8.5t18.5 1h322q132 0 226 -91.5t94 -219.5zM659 301q0 100 -77.5 174.5t-192.5 74.5
h-180v-213h185q13 0 22 -9t9 -22t-9 -22t-22 -9h-185v-214h181q113 0 191 70.5t78 169.5z" />
    <glyph glyph-name="dcroat" unicode="&#x111;" horiz-adv-x="583" 
d="M565 30q0 -30 -40 -30h-83q-25 0 -32.5 8.5t-7.5 32.5v17q-59 -64 -145 -64q-87 0 -150 64.5t-63 156.5q0 93 65.5 157.5t158.5 64.5q76 0 134 -51v73h-169q-13 0 -22 9t-9 22t9 22t22 9h169v29h-54q-12 0 -18.5 1t-14 8.5t-7.5 21.5q0 30 40 30h83q25 0 32.5 -8.5
t7.5 -32.5v-49h59q13 0 22 -9t9 -22t-9 -22t-22 -9h-59v-398h54q12 0 18.5 -1t14 -8.5t7.5 -21.5zM402 197v66q0 45 -38.5 79t-90.5 34q-65 0 -112.5 -47t-47.5 -114q0 -66 43.5 -113t105.5 -47q60 0 100 46t40 96z" />
    <glyph glyph-name="Emacron" unicode="&#x112;" horiz-adv-x="700" 
d="M670 41q0 -24 -8 -32.5t-32 -8.5h-544q-40 0 -40 30q0 14 7.5 21.5t14 8.5t18.5 1h54v489h-54q-40 0 -40 30q0 14 7.5 21.5t14 8.5t18.5 1h515q25 0 32.5 -8.5t7.5 -32.5v-73q0 -13 -1 -20t-9.5 -14t-24.5 -7q-23 0 -28.5 10.5t-5.5 30.5v53h-363v-203h199q0 25 1.5 34.5
t9 16t24.5 6.5q23 0 28.5 -10.5t5.5 -30.5v-93q0 -13 -1 -20t-9 -14t-24 -7q-24 0 -29.5 11t-5.5 46h-199v-225h392v69q0 13 1 20t9.5 14t24.5 7q23 0 28.5 -10.5t5.5 -30.5v-89zM540 694q0 -14 -7.5 -21.5t-14 -8.5t-18.5 -1h-297q-12 0 -19 1t-14.5 8.5t-7.5 22.5
q0 14 7.5 21.5t14 8.5t18.5 1h298q12 0 18.5 -1t14 -8.5t7.5 -22.5z" />
    <glyph glyph-name="emacron" unicode="&#x113;" horiz-adv-x="467" 
d="M437 109q0 -31 -45.5 -73t-128.5 -42q-94 0 -159.5 65.5t-65.5 158.5q0 91 61 156.5t149 65.5q89 0 139 -59.5t50 -152.5q0 -13 -3 -21t-9.5 -11.5t-12 -4t-15.5 -0.5h-288q10 -60 56 -98t104 -38q75 0 100 60q5 14 12 18t21 4q35 0 35 -28zM366 251q-5 70 -39 99t-79 29
q-50 0 -89 -36t-49 -92h256zM423 544q0 -14 -7.5 -21.5t-14 -8.5t-18.5 -1h-297q-12 0 -19 1t-14.5 8.5t-7.5 22.5q0 14 7.5 21.5t14 8.5t18.5 1h298q12 0 18.5 -1t14 -8.5t7.5 -22.5z" />
    <glyph glyph-name="Ebreve" unicode="&#x114;" horiz-adv-x="700" 
d="M670 41q0 -24 -8 -32.5t-32 -8.5h-544q-40 0 -40 30q0 14 7.5 21.5t14 8.5t18.5 1h54v489h-54q-40 0 -40 30q0 14 7.5 21.5t14 8.5t18.5 1h515q25 0 32.5 -8.5t7.5 -32.5v-73q0 -13 -1 -20t-9.5 -14t-24.5 -7q-23 0 -28.5 10.5t-5.5 30.5v53h-363v-203h199q0 25 1.5 34.5
t9 16t24.5 6.5q23 0 28.5 -10.5t5.5 -30.5v-93q0 -13 -1 -20t-9 -14t-24 -7q-24 0 -29.5 11t-5.5 46h-199v-225h392v69q0 13 1 20t9.5 14t24.5 7q23 0 28.5 -10.5t5.5 -30.5v-89zM527 735q0 -29 -16.5 -47t-48.5 -25t-53.5 -8.5t-57.5 -1.5t-57.5 1.5t-53.5 8.5t-48.5 25
t-16.5 47q0 31 31 31q25 0 30 -29q5 -20 115 -20t115 20q5 29 30 29q31 0 31 -31z" />
    <glyph glyph-name="ebreve" unicode="&#x115;" horiz-adv-x="467" 
d="M437 109q0 -31 -45.5 -73t-128.5 -42q-94 0 -159.5 65.5t-65.5 158.5q0 91 61 156.5t149 65.5q89 0 139 -59.5t50 -152.5q0 -13 -3 -21t-9.5 -11.5t-12 -4t-15.5 -0.5h-288q10 -60 56 -98t104 -38q75 0 100 60q5 14 12 18t21 4q35 0 35 -28zM366 251q-5 70 -39 99t-79 29
q-50 0 -89 -36t-49 -92h256zM410 570q0 -29 -16.5 -47t-48.5 -25t-53.5 -8.5t-57.5 -1.5t-57.5 1.5t-53.5 8.5t-48.5 25t-16.5 47q0 31 31 31q25 0 30 -29q5 -20 115 -20t115 20q5 29 30 29q31 0 31 -31z" />
    <glyph glyph-name="Edotaccent" unicode="&#x116;" horiz-adv-x="700" 
d="M670 41q0 -24 -8 -32.5t-32 -8.5h-544q-40 0 -40 30q0 14 7.5 21.5t14 8.5t18.5 1h54v489h-54q-40 0 -40 30q0 14 7.5 21.5t14 8.5t18.5 1h515q25 0 32.5 -8.5t7.5 -32.5v-73q0 -13 -1 -20t-9.5 -14t-24.5 -7q-23 0 -28.5 10.5t-5.5 30.5v53h-363v-203h199q0 25 1.5 34.5
t9 16t24.5 6.5q23 0 28.5 -10.5t5.5 -30.5v-93q0 -13 -1 -20t-9 -14t-24 -7q-24 0 -29.5 11t-5.5 46h-199v-225h392v69q0 13 1 20t9.5 14t24.5 7q23 0 28.5 -10.5t5.5 -30.5v-89zM400 704q0 -20 -14.5 -35t-36.5 -15q-20 0 -35 15t-15 35t14.5 35t36.5 15q20 0 35 -15
t15 -35z" />
    <glyph glyph-name="edotaccent" unicode="&#x117;" horiz-adv-x="467" 
d="M437 109q0 -31 -45.5 -73t-128.5 -42q-94 0 -159.5 65.5t-65.5 158.5q0 91 61 156.5t149 65.5q89 0 139 -59.5t50 -152.5q0 -13 -3 -21t-9.5 -11.5t-12 -4t-15.5 -0.5h-288q10 -60 56 -98t104 -38q75 0 100 60q5 14 12 18t21 4q35 0 35 -28zM366 251q-5 70 -39 99t-79 29
q-50 0 -89 -36t-49 -92h256zM284 544q0 -20 -14.5 -35t-36.5 -15q-20 0 -35 15t-15 35t14.5 35t36.5 15q20 0 35 -15t15 -35z" />
    <glyph glyph-name="Eogonek" unicode="&#x118;" horiz-adv-x="700" 
d="M670 41q0 -24 -8 -32.5t-32 -8.5h-47q-87 -51 -87 -110q0 -17 14.5 -28t29.5 -11q14 0 29 11.5t25 25.5q5 5 17.5 7t19.5 -2q6 -5 8 -17.5t-3 -19.5q-43 -59 -100 -59q-44 0 -71.5 30t-27.5 65q0 66 65 108h-416q-40 0 -40 30q0 14 7.5 21.5t14 8.5t18.5 1h54v489h-54
q-40 0 -40 30q0 14 7.5 21.5t14 8.5t18.5 1h515q25 0 32.5 -8.5t7.5 -32.5v-73q0 -13 -1 -20t-9.5 -14t-24.5 -7q-23 0 -28.5 10.5t-5.5 30.5v53h-363v-203h199q0 25 1.5 34.5t9 16t24.5 6.5q23 0 28.5 -10.5t5.5 -30.5v-93q0 -13 -1 -20t-9 -14t-24 -7q-24 0 -29.5 11
t-5.5 46h-199v-225h392v69q0 13 1 20t9.5 14t24.5 7q23 0 28.5 -10.5t5.5 -30.5v-89z" />
    <glyph glyph-name="eogonek" unicode="&#x119;" horiz-adv-x="467" 
d="M437 109q0 -23 -30 -58.5t-84 -50.5q-87 -51 -87 -110q0 -17 14.5 -28t29.5 -11q14 0 29 11.5t25 25.5q5 5 17.5 7t19.5 -2q6 -5 8 -17.5t-3 -19.5q-43 -59 -100 -59q-44 0 -71.5 30t-27.5 65q0 66 59 104q-85 10 -141.5 73t-56.5 149q0 91 61 156.5t149 65.5
q89 0 139 -59.5t50 -152.5q0 -13 -3 -21t-9.5 -11.5t-12 -4t-15.5 -0.5h-288q10 -60 56 -98t104 -38q75 0 100 60q5 14 12 18t21 4q35 0 35 -28zM366 251q-5 70 -39 99t-79 29q-50 0 -89 -36t-49 -92h256z" />
    <glyph glyph-name="Ecaron" unicode="&#x11a;" horiz-adv-x="700" 
d="M670 41q0 -24 -8 -32.5t-32 -8.5h-544q-40 0 -40 30q0 14 7.5 21.5t14 8.5t18.5 1h54v489h-54q-40 0 -40 30q0 14 7.5 21.5t14 8.5t18.5 1h515q25 0 32.5 -8.5t7.5 -32.5v-73q0 -13 -1 -20t-9.5 -14t-24.5 -7q-23 0 -28.5 10.5t-5.5 30.5v53h-363v-203h199q0 25 1.5 34.5
t9 16t24.5 6.5q23 0 28.5 -10.5t5.5 -30.5v-93q0 -13 -1 -20t-9 -14t-24 -7q-24 0 -29.5 11t-5.5 46h-199v-225h392v69q0 13 1 20t9.5 14t24.5 7q23 0 28.5 -10.5t5.5 -30.5v-89zM478 688l-118 -43q-10 -3 -19 0l-118 43q-26 10 -17 37t36 19l109 -33l109 33q27 8 36 -19
t-18 -37z" />
    <glyph glyph-name="ecaron" unicode="&#x11b;" horiz-adv-x="467" 
d="M437 109q0 -31 -45.5 -73t-128.5 -42q-94 0 -159.5 65.5t-65.5 158.5q0 91 61 156.5t149 65.5q89 0 139 -59.5t50 -152.5q0 -13 -3 -21t-9.5 -11.5t-12 -4t-15.5 -0.5h-288q10 -60 56 -98t104 -38q75 0 100 60q5 14 12 18t21 4q35 0 35 -28zM366 251q-5 70 -39 99t-79 29
q-50 0 -89 -36t-49 -92h256zM368 556l-118 -75q-15 -10 -30 0l-120 75q-25 16 -9.5 40.5t40.5 9.5l103 -62l103 62q25 15 40.5 -9.5t-9.5 -40.5z" />
    <glyph glyph-name="Gcircumflex" unicode="&#x11c;" horiz-adv-x="817" 
d="M772 239q0 -30 -41 -30h-32v-168q0 -13 -1 -20t-9 -14t-24 -7t-24.5 7t-9.5 14t-1 20v36q-88 -88 -224 -88q-144 0 -246 93t-102 224q0 128 101 222t249 94q133 0 212 -62q13 28 18 37q6 14 12 19.5t19 5.5q30 0 30 -41v-139q0 -13 -1 -20t-9.5 -14t-24.5 -7
q-28 0 -33 23q-5 21 -9.5 33t-21.5 33t-45 37q-58 34 -140 34q-121 0 -204.5 -75.5t-83.5 -180.5t83.5 -180t200.5 -75q81 0 141.5 44.5t74.5 114.5h-88q-12 0 -18.5 1t-14 8.5t-7.5 21.5q0 30 40 30h192q41 0 41 -31zM537 701q26 -10 17 -37t-36 -19l-109 33l-109 -33
q-27 -8 -36 19t18 37l118 43q10 3 19 0z" />
    <glyph glyph-name="gcircumflex" unicode="&#x11d;" 
d="M509 388q0 -20 -12.5 -30.5t-27.5 -10.5q-11 0 -23 8t-16 26q-33 -3 -58 -17q26 -43 26 -87q0 -67 -48 -114t-117 -47q-53 0 -90 25q-6 -15 -6 -28q1 -22 12 -36q12 -14 33 -14q8 -2 29 -2h70q91 0 145 -29q35 -19 52 -50.5t17 -63.5q0 -63 -68 -105t-165 -42t-165 41.5
t-68 105.5q0 79 74 124q-23 31 -23 72q0 39 20 68q-32 41 -32 95q0 65 48 112.5t117 47.5q53 0 97 -30q47 35 106 35q37 0 55 -16.5t18 -37.5zM329 277q0 40 -28 70t-68 30q-39 0 -67.5 -29.5t-28.5 -71.5q0 -40 28 -70t68 -30q39 0 67.5 29.5t28.5 71.5zM437 -82
q0 30 -17 49t-53 26.5t-61 9t-71 1.5q-57 0 -73 -2t-34 -14q-41 -26 -41 -70q0 -34 51 -60.5t124 -26.5t124 26.5t51 60.5zM361 532q25 -16 9.5 -40.5t-40.5 -9.5l-103 62l-103 -62q-25 -15 -40.5 9.5t9.5 40.5l118 75q15 10 30 0z" />
    <glyph glyph-name="Gbreve" unicode="&#x11e;" horiz-adv-x="817" 
d="M772 239q0 -30 -41 -30h-32v-168q0 -13 -1 -20t-9 -14t-24 -7t-24.5 7t-9.5 14t-1 20v36q-88 -88 -224 -88q-144 0 -246 93t-102 224q0 128 101 222t249 94q133 0 212 -62q13 28 18 37q6 14 12 19.5t19 5.5q30 0 30 -41v-139q0 -13 -1 -20t-9.5 -14t-24.5 -7
q-28 0 -33 23q-5 21 -9.5 33t-21.5 33t-45 37q-58 34 -140 34q-121 0 -204.5 -75.5t-83.5 -180.5t83.5 -180t200.5 -75q81 0 141.5 44.5t74.5 114.5h-88q-12 0 -18.5 1t-14 8.5t-7.5 21.5q0 30 40 30h192q41 0 41 -31zM585 735q0 -29 -16.5 -47t-48.5 -25t-53.5 -8.5
t-57.5 -1.5t-57.5 1.5t-53.5 8.5t-48.5 25t-16.5 47q0 31 31 31q25 0 30 -29q5 -20 115 -20t115 20q5 29 30 29q31 0 31 -31z" />
    <glyph glyph-name="gbreve" unicode="&#x11f;" 
d="M509 388q0 -20 -12.5 -30.5t-27.5 -10.5q-11 0 -23 8t-16 26q-33 -3 -58 -17q26 -43 26 -87q0 -67 -48 -114t-117 -47q-53 0 -90 25q-6 -15 -6 -28q1 -22 12 -36q12 -14 33 -14q8 -2 29 -2h70q91 0 145 -29q35 -19 52 -50.5t17 -63.5q0 -63 -68 -105t-165 -42t-165 41.5
t-68 105.5q0 79 74 124q-23 31 -23 72q0 39 20 68q-32 41 -32 95q0 65 48 112.5t117 47.5q53 0 97 -30q47 35 106 35q37 0 55 -16.5t18 -37.5zM329 277q0 40 -28 70t-68 30q-39 0 -67.5 -29.5t-28.5 -71.5q0 -40 28 -70t68 -30q39 0 67.5 29.5t28.5 71.5zM437 -82
q0 30 -17 49t-53 26.5t-61 9t-71 1.5q-57 0 -73 -2t-34 -14q-41 -26 -41 -70q0 -34 51 -60.5t124 -26.5t124 26.5t51 60.5zM403 570q0 -29 -16.5 -47t-48.5 -25t-53.5 -8.5t-57.5 -1.5t-57.5 1.5t-53.5 8.5t-48.5 25t-16.5 47q0 31 31 31q25 0 30 -29q5 -20 115 -20t115 20
q5 29 30 29q31 0 31 -31z" />
    <glyph glyph-name="Gdotaccent" unicode="&#x120;" horiz-adv-x="817" 
d="M772 239q0 -30 -41 -30h-32v-168q0 -13 -1 -20t-9 -14t-24 -7t-24.5 7t-9.5 14t-1 20v36q-88 -88 -224 -88q-144 0 -246 93t-102 224q0 128 101 222t249 94q133 0 212 -62q13 28 18 37q6 14 12 19.5t19 5.5q30 0 30 -41v-139q0 -13 -1 -20t-9.5 -14t-24.5 -7
q-28 0 -33 23q-5 21 -9.5 33t-21.5 33t-45 37q-58 34 -140 34q-121 0 -204.5 -75.5t-83.5 -180.5t83.5 -180t200.5 -75q81 0 141.5 44.5t74.5 114.5h-88q-12 0 -18.5 1t-14 8.5t-7.5 21.5q0 30 40 30h192q41 0 41 -31zM459 704q0 -20 -14.5 -35t-36.5 -15q-20 0 -35 15
t-15 35t14.5 35t36.5 15q20 0 35 -15t15 -35z" />
    <glyph glyph-name="gdotaccent" unicode="&#x121;" 
d="M509 388q0 -20 -12.5 -30.5t-27.5 -10.5q-11 0 -23 8t-16 26q-33 -3 -58 -17q26 -43 26 -87q0 -67 -48 -114t-117 -47q-53 0 -90 25q-6 -15 -6 -28q1 -22 12 -36q12 -14 33 -14q8 -2 29 -2h70q91 0 145 -29q35 -19 52 -50.5t17 -63.5q0 -63 -68 -105t-165 -42t-165 41.5
t-68 105.5q0 79 74 124q-23 31 -23 72q0 39 20 68q-32 41 -32 95q0 65 48 112.5t117 47.5q53 0 97 -30q47 35 106 35q37 0 55 -16.5t18 -37.5zM329 277q0 40 -28 70t-68 30q-39 0 -67.5 -29.5t-28.5 -71.5q0 -40 28 -70t68 -30q39 0 67.5 29.5t28.5 71.5zM437 -82
q0 30 -17 49t-53 26.5t-61 9t-71 1.5q-57 0 -73 -2t-34 -14q-41 -26 -41 -70q0 -34 51 -60.5t124 -26.5t124 26.5t51 60.5zM276 544q0 -20 -14.5 -35t-36.5 -15q-20 0 -35 15t-15 35t14.5 35t36.5 15q20 0 35 -15t15 -35z" />
    <glyph glyph-name="Gcommaaccent" unicode="&#x122;" horiz-adv-x="817" 
d="M772 239q0 -30 -41 -30h-32v-168q0 -13 -1 -20t-9 -14t-24 -7t-24.5 7t-9.5 14t-1 20v36q-88 -88 -224 -88q-144 0 -246 93t-102 224q0 128 101 222t249 94q133 0 212 -62q13 28 18 37q6 14 12 19.5t19 5.5q30 0 30 -41v-139q0 -13 -1 -20t-9.5 -14t-24.5 -7
q-28 0 -33 23q-5 21 -9.5 33t-21.5 33t-45 37q-58 34 -140 34q-121 0 -204.5 -75.5t-83.5 -180.5t83.5 -180t200.5 -75q81 0 141.5 44.5t74.5 114.5h-88q-12 0 -18.5 1t-14 8.5t-7.5 21.5q0 30 40 30h192q41 0 41 -31zM454 -100q0 -45 -25 -78.5t-42 -33.5q-9 0 -16.5 7.5
t-7.5 15.5q0 9 11 20q30 24 33 61q-37 3 -37 38q0 15 10.5 26t26.5 11q20 0 33.5 -16.5t13.5 -50.5z" />
    <glyph glyph-name="gcommaaccent" unicode="&#x123;" 
d="M272 622q0 -9 -11 -20q-30 -24 -33 -61q37 -3 37 -38q0 -15 -10.5 -26t-26.5 -11q-20 0 -33.5 16.5t-13.5 50.5q0 45 25 78.5t42 33.5q9 0 16.5 -7.5t7.5 -15.5zM509 388q0 -20 -12.5 -30.5t-27.5 -10.5q-11 0 -23 8t-16 26q-33 -3 -58 -17q26 -43 26 -87q0 -67 -48 -114
t-117 -47q-53 0 -90 25q-6 -15 -6 -28q1 -22 12 -36q12 -14 33 -14q8 -2 29 -2h70q91 0 145 -29q35 -19 52 -50.5t17 -63.5q0 -63 -68 -105t-165 -42t-165 41.5t-68 105.5q0 79 74 124q-23 31 -23 72q0 39 20 68q-32 41 -32 95q0 65 48 112.5t117 47.5q53 0 97 -30
q47 35 106 35q37 0 55 -16.5t18 -37.5zM329 277q0 40 -28 70t-68 30q-39 0 -67.5 -29.5t-28.5 -71.5q0 -40 28 -70t68 -30q39 0 67.5 29.5t28.5 71.5zM437 -82q0 30 -17 49t-53 26.5t-61 9t-71 1.5q-57 0 -73 -2t-34 -14q-41 -26 -41 -70q0 -34 51 -60.5t124 -26.5t124 26.5
t51 60.5z" />
    <glyph glyph-name="Hcircumflex" unicode="&#x124;" horiz-adv-x="758" 
d="M711 30q0 -30 -40 -30h-177q-40 0 -40 30q0 14 7.5 21.5t14 8.5t18.5 1h54v226h-339v-226h54q12 0 18.5 -1t14 -8.5t7.5 -21.5q0 -30 -40 -30h-177q-40 0 -40 30q0 14 7.5 21.5t14 8.5t18.5 1h54v489h-54q-40 0 -40 30q0 14 7.5 21.5t14 8.5t18.5 1h177q12 0 18.5 -1
t14 -8.5t7.5 -21.5q0 -30 -40 -30h-54v-202h339v202h-54q-40 0 -40 30q0 14 7.5 21.5t14 8.5t18.5 1h177q12 0 18.5 -1t14 -8.5t7.5 -21.5q0 -30 -40 -30h-54v-489h54q12 0 18.5 -1t14 -8.5t7.5 -21.5zM508 701q26 -10 17 -37t-36 -19l-109 33l-109 -33q-27 -8 -36 19t18 37
l118 43q9 3 19 0z" />
    <glyph glyph-name="hcircumflex" unicode="&#x125;" horiz-adv-x="583" 
d="M565 30q0 -30 -40 -30h-177q-12 0 -18.5 1t-14 8.5t-7.5 21.5q0 30 40 30h54v224q0 47 -16 69t-65 22q-31 0 -61.5 -12t-55 -45t-24.5 -82v-176h54q12 0 18.5 -1t14 -8.5t7.5 -21.5q0 -30 -40 -30h-177q-40 0 -40 30q0 14 7.5 21.5t14 8.5t18.5 1h54v489h-54
q-40 0 -40 30q0 14 7.5 21.5t14 8.5t18.5 1h83q25 0 32.5 -8.5t7.5 -32.5v-190q62 57 147 57q144 0 144 -146v-230h54q12 0 18.5 -1t14 -8.5t7.5 -21.5zM420 701q26 -10 17 -37t-36 -19l-109 33l-109 -33q-27 -8 -36 19t18 37l118 43q9 3 19 0z" />
    <glyph glyph-name="Hbar" unicode="&#x126;" horiz-adv-x="758" 
d="M711 30q0 -30 -40 -30h-177q-40 0 -40 30q0 14 7.5 21.5t14 8.5t18.5 1h54v226h-339v-226h54q12 0 18.5 -1t14 -8.5t7.5 -21.5q0 -30 -40 -30h-177q-40 0 -40 30q0 14 7.5 21.5t14 8.5t18.5 1h54v366h-59q-13 0 -22 9t-9 22t9 22t22 9h59v61h-54q-40 0 -40 30
q0 14 7.5 21.5t14 8.5t18.5 1h177q12 0 18.5 -1t14 -8.5t7.5 -21.5q0 -30 -40 -30h-54v-61h339v61h-54q-40 0 -40 30q0 14 7.5 21.5t14 8.5t18.5 1h177q12 0 18.5 -1t14 -8.5t7.5 -21.5q0 -30 -40 -30h-54v-61h59q13 0 22 -9t9 -22t-9 -22t-22 -9h-59v-366h54q12 0 18.5 -1
t14 -8.5t7.5 -21.5zM548 348v79h-339v-79h339z" />
    <glyph glyph-name="hbar" unicode="&#x127;" horiz-adv-x="583" 
d="M565 30q0 -30 -40 -30h-177q-12 0 -18.5 1t-14 8.5t-7.5 21.5q0 30 40 30h54v224q0 47 -16 69t-65 22q-31 0 -61.5 -12t-55 -45t-24.5 -82v-176h54q12 0 18.5 -1t14 -8.5t7.5 -21.5q0 -30 -40 -30h-177q-40 0 -40 30q0 14 7.5 21.5t14 8.5t18.5 1h54v398h-59q-13 0 -22 9
t-9 22t9 22t22 9h59v29h-54q-40 0 -40 30q0 14 7.5 21.5t14 8.5t18.5 1h83q25 0 32.5 -8.5t7.5 -32.5v-49h112q13 0 22 -9t9 -22t-9 -22t-22 -9h-112v-79q62 57 147 57q144 0 144 -146v-230h54q12 0 18.5 -1t14 -8.5t7.5 -21.5z" />
    <glyph glyph-name="Itilde" unicode="&#x128;" horiz-adv-x="350" 
d="M308 30q0 -30 -40 -30h-187q-40 0 -40 30q0 14 7.5 21.5t14 8.5t18.5 1h59v489h-59q-40 0 -40 30q0 14 7.5 21.5t14 8.5t18.5 1h187q12 0 18.5 -1t14 -8.5t7.5 -21.5q0 -30 -40 -30h-59v-489h59q12 0 18.5 -1t14 -8.5t7.5 -21.5zM351 731q0 -18 -49 -55q-45 -33 -78 -33
t-67 34q-23 21 -31 21q-23 0 -70 -44q-13 -11 -24 -11q-12 0 -21.5 10t-9.5 22q0 18 49 55q45 33 78 33t67 -34q23 -21 31 -21q23 0 70 44q13 11 24 11q12 0 21.5 -10t9.5 -22z" />
    <glyph glyph-name="itilde" unicode="&#x129;" horiz-adv-x="292" 
d="M265 30q0 -30 -40 -30h-168q-40 0 -40 30q0 14 7.5 21.5t14 8.5t18.5 1h54v309h-49q-41 0 -41 31q0 30 41 30h78q25 0 32.5 -8.5t7.5 -32.5v-329h44q41 0 41 -31zM321 572q0 -18 -49 -55q-45 -33 -78 -33t-67 34q-23 21 -31 21q-23 0 -70 -44q-13 -11 -24 -11
q-12 0 -21.5 10t-9.5 22q0 18 49 55q45 33 78 33t67 -34q23 -21 31 -21q23 0 70 44q13 11 24 11q12 0 21.5 -10t9.5 -22z" />
    <glyph glyph-name="Imacron" unicode="&#x12a;" horiz-adv-x="350" 
d="M308 30q0 -30 -40 -30h-187q-40 0 -40 30q0 14 7.5 21.5t14 8.5t18.5 1h59v489h-59q-40 0 -40 30q0 14 7.5 21.5t14 8.5t18.5 1h187q12 0 18.5 -1t14 -8.5t7.5 -21.5q0 -30 -40 -30h-59v-489h59q12 0 18.5 -1t14 -8.5t7.5 -21.5zM365 694q0 -14 -7.5 -21.5t-14 -8.5
t-18.5 -1h-297q-12 0 -19 1t-14.5 8.5t-7.5 22.5q0 14 7.5 21.5t14 8.5t18.5 1h298q12 0 18.5 -1t14 -8.5t7.5 -22.5z" />
    <glyph glyph-name="imacron" unicode="&#x12b;" horiz-adv-x="292" 
d="M265 30q0 -30 -40 -30h-168q-40 0 -40 30q0 14 7.5 21.5t14 8.5t18.5 1h54v309h-49q-41 0 -41 31q0 30 41 30h78q25 0 32.5 -8.5t7.5 -32.5v-329h44q41 0 41 -31zM335 544q0 -14 -7.5 -21.5t-14 -8.5t-18.5 -1h-297q-12 0 -19 1t-14.5 8.5t-7.5 22.5q0 14 7.5 21.5
t14 8.5t18.5 1h298q12 0 18.5 -1t14 -8.5t7.5 -22.5z" />
    <glyph glyph-name="Ibreve" unicode="&#x12c;" horiz-adv-x="350" 
d="M308 30q0 -30 -40 -30h-187q-40 0 -40 30q0 14 7.5 21.5t14 8.5t18.5 1h59v489h-59q-40 0 -40 30q0 14 7.5 21.5t14 8.5t18.5 1h187q12 0 18.5 -1t14 -8.5t7.5 -21.5q0 -30 -40 -30h-59v-489h59q12 0 18.5 -1t14 -8.5t7.5 -21.5zM352 735q0 -29 -16.5 -47t-48.5 -25
t-53.5 -8.5t-57.5 -1.5t-57.5 1.5t-53.5 8.5t-48.5 25t-16.5 47q0 31 31 31q25 0 30 -29q5 -20 115 -20t115 20q5 29 30 29q31 0 31 -31z" />
    <glyph glyph-name="ibreve" unicode="&#x12d;" horiz-adv-x="292" 
d="M265 30q0 -30 -40 -30h-168q-40 0 -40 30q0 14 7.5 21.5t14 8.5t18.5 1h54v309h-49q-41 0 -41 31q0 30 41 30h78q25 0 32.5 -8.5t7.5 -32.5v-329h44q41 0 41 -31zM322 570q0 -29 -16.5 -47t-48.5 -25t-53.5 -8.5t-57.5 -1.5t-57.5 1.5t-53.5 8.5t-48.5 25t-16.5 47
q0 31 31 31q25 0 30 -29q5 -20 115 -20t115 20q5 29 30 29q31 0 31 -31z" />
    <glyph glyph-name="Iogonek" unicode="&#x12e;" horiz-adv-x="350" 
d="M308 30q0 -30 -40 -30h-38q-30 -16 -48 -45.5t-18 -64.5q0 -17 14.5 -28t29.5 -11q14 0 29 11.5t25 25.5q5 5 17.5 7t19.5 -2q6 -5 8 -17.5t-3 -19.5q-43 -59 -100 -59q-44 0 -71.5 30t-27.5 65q0 59 64 108h-88q-40 0 -40 30q0 14 7.5 21.5t14 8.5t18.5 1h59v489h-59
q-40 0 -40 30q0 14 7.5 21.5t14 8.5t18.5 1h187q12 0 18.5 -1t14 -8.5t7.5 -21.5q0 -30 -40 -30h-59v-489h59q12 0 18.5 -1t14 -8.5t7.5 -21.5z" />
    <glyph glyph-name="iogonek" unicode="&#x12f;" horiz-adv-x="292" 
d="M180 562q0 -21 -14.5 -35.5t-35.5 -14.5t-35.5 14.5t-14.5 35.5t14.5 35.5t35.5 14.5t35.5 -14.5t14.5 -35.5zM265 30q0 -30 -40 -30h-56q-30 -16 -47.5 -45.5t-17.5 -64.5q0 -17 14.5 -28t29.5 -11q14 0 29 11.5t25 25.5q5 5 17.5 7t19.5 -2q6 -5 8 -17.5t-3 -19.5
q-43 -59 -100 -59q-44 0 -71.5 30t-27.5 65q0 58 63 108h-51q-40 0 -40 30q0 14 7.5 21.5t14 8.5t18.5 1h54v309h-49q-41 0 -41 31q0 30 41 30h78q25 0 32.5 -8.5t7.5 -32.5v-329h44q41 0 41 -31z" />
    <glyph glyph-name="Idotaccent" unicode="&#x130;" horiz-adv-x="350" 
d="M308 30q0 -30 -40 -30h-187q-40 0 -40 30q0 14 7.5 21.5t14 8.5t18.5 1h59v489h-59q-40 0 -40 30q0 14 7.5 21.5t14 8.5t18.5 1h187q12 0 18.5 -1t14 -8.5t7.5 -21.5q0 -30 -40 -30h-59v-489h59q12 0 18.5 -1t14 -8.5t7.5 -21.5zM225 704q0 -20 -14.5 -35t-36.5 -15
q-20 0 -35 15t-15 35t14.5 35t36.5 15q20 0 35 -15t15 -35z" />
    <glyph glyph-name="dotlessi" unicode="&#x131;" horiz-adv-x="292" 
d="M265 30q0 -30 -40 -30h-168q-40 0 -40 30q0 14 7.5 21.5t14 8.5t18.5 1h54v309h-49q-41 0 -41 31q0 30 41 30h78q25 0 32.5 -8.5t7.5 -32.5v-329h44q41 0 41 -31z" />
    <glyph glyph-name="Jcircumflex" unicode="&#x134;" 
d="M478 581q0 -31 -41 -31h-30v-416q0 -66 -50 -105.5t-120 -39.5q-74 0 -120 31t-46 79q0 23 13 35t32 12t31.5 -13t12.5 -31q0 -16 -8 -26q29 -26 85 -26q12 0 24.5 2.5t32 10t32 27.5t12.5 50v410h-82q-41 0 -41 31q0 30 41 30h181q41 0 41 -30zM476 701q26 -10 17 -37
t-36 -19l-109 33l-109 -33q-27 -8 -36 19t18 37l118 43q9 3 19 0z" />
    <glyph glyph-name="jcircumflex" unicode="&#x135;" horiz-adv-x="321" 
d="M209 -47q0 -41 -11.5 -79.5t-44.5 -70t-82 -31.5q-54 0 -85.5 20.5t-31.5 55.5q0 21 13.5 33.5t31.5 12.5q44 0 44 -53l1 -3q4 -5 30 -5q66 0 66 124v413h-63q-41 0 -41 31q0 30 41 30h92q25 0 32.5 -8.5t7.5 -32.5v-437zM294 532q25 -16 9.5 -40.5t-40.5 -9.5l-103 62
l-103 -62q-25 -15 -40.5 9.5t9.5 40.5l118 75q15 10 30 0z" />
    <glyph glyph-name="Kcommaaccent" unicode="&#x136;" horiz-adv-x="788" 
d="M743 30q0 -30 -41 -30h-126q-40 0 -40 30q0 15 7.5 22t17 8t31.5 1l-227 261l-162 -132v-129h54q12 0 18.5 -1t14 -8.5t7.5 -21.5q0 -30 -40 -30h-164q-40 0 -40 30q0 14 7.5 21.5t14 8.5t18.5 1h54v489h-54q-40 0 -40 30q0 14 7.5 21.5t14 8.5t18.5 1h164q12 0 18.5 -1
t14 -8.5t7.5 -21.5q0 -30 -40 -30h-54v-288l354 288q-22 0 -31 1t-16.5 8t-7.5 22q0 30 40 30h145q41 0 41 -31q0 -30 -41 -30h-40l-238 -193l257 -296h36q41 0 41 -31zM439 -100q0 -45 -25 -78.5t-42 -33.5q-9 0 -16.5 7.5t-7.5 15.5q0 9 11 20q30 24 33 61q-37 3 -37 38
q0 15 10.5 26t26.5 11q20 0 33.5 -16.5t13.5 -50.5z" />
    <glyph glyph-name="kcommaaccent" unicode="&#x137;" horiz-adv-x="554" 
d="M536 30q0 -30 -41 -30h-126q-12 0 -18.5 1t-14 8.5t-7.5 21.5q0 30 40 30h19l-127 157l-87 -77v-80h54q12 0 18.5 -1t14 -8.5t7.5 -21.5q0 -30 -40 -30h-164q-40 0 -40 30q0 14 7.5 21.5t14 8.5t18.5 1h54v489h-54q-40 0 -40 30q0 14 7.5 21.5t14 8.5t18.5 1h70
q25 0 32.5 -8.5t7.5 -32.5v-354l174 154h-40q-40 0 -40 30q0 14 7.5 21.5t14 8.5t18.5 1h164q41 0 41 -31q0 -30 -41 -30h-39l-130 -115l157 -194h35q41 0 41 -31zM323 -100q0 -45 -25 -78.5t-42 -33.5q-9 0 -16.5 7.5t-7.5 15.5q0 9 11 20q30 24 33 61q-37 3 -37 38
q0 15 10.5 26t26.5 11q20 0 33.5 -16.5t13.5 -50.5z" />
    <glyph glyph-name="Lacute" unicode="&#x139;" horiz-adv-x="642" 
d="M597 41q0 -24 -8 -32.5t-32 -8.5h-471q-40 0 -40 30q0 14 7.5 21.5t14 8.5t18.5 1h54v489h-54q-40 0 -40 30q0 14 7.5 21.5t14 8.5t18.5 1h201q12 0 18.5 -1t14 -8.5t7.5 -21.5q0 -30 -40 -30h-78v-489h319v69q0 14 1 21t9.5 13.5t24.5 6.5q23 0 28.5 -10.5t5.5 -30.5
v-89zM427 752q0 -22 -28 -35l-133 -59q-10 -5 -18 -5q-17 0 -25 14.5t-8 25.5q0 12 6 17.5t19 11.5l133 60l19 5q15 0 25 -10t10 -25z" />
    <glyph glyph-name="lacute" unicode="&#x13a;" horiz-adv-x="292" 
d="M274 30q0 -30 -40 -30h-177q-40 0 -40 30q0 14 7.5 21.5t14 8.5t18.5 1h54v489h-54q-40 0 -40 30q0 14 7.5 21.5t14 8.5t18.5 1h83q25 0 32.5 -8.5t7.5 -32.5v-509h54q12 0 18.5 -1t14 -8.5t7.5 -21.5zM252 752q0 -22 -28 -35l-133 -59q-10 -5 -18 -5q-17 0 -25 14.5
t-8 25.5q0 12 6 17.5t19 11.5l133 60l19 5q15 0 25 -10t10 -25z" />
    <glyph glyph-name="Lcommaaccent" unicode="&#x13b;" horiz-adv-x="642" 
d="M597 41q0 -24 -8 -32.5t-32 -8.5h-471q-40 0 -40 30q0 14 7.5 21.5t14 8.5t18.5 1h54v489h-54q-40 0 -40 30q0 14 7.5 21.5t14 8.5t18.5 1h201q12 0 18.5 -1t14 -8.5t7.5 -21.5q0 -30 -40 -30h-78v-489h319v69q0 14 1 21t9.5 13.5t24.5 6.5q23 0 28.5 -10.5t5.5 -30.5
v-89zM366 -100q0 -45 -25 -78.5t-42 -33.5q-9 0 -16.5 7.5t-7.5 15.5q0 9 11 20q30 24 33 61q-37 3 -37 38q0 15 10.5 26t26.5 11q20 0 33.5 -16.5t13.5 -50.5z" />
    <glyph glyph-name="lcommaaccent" unicode="&#x13c;" horiz-adv-x="292" 
d="M274 30q0 -30 -40 -30h-177q-40 0 -40 30q0 14 7.5 21.5t14 8.5t18.5 1h54v489h-54q-40 0 -40 30q0 14 7.5 21.5t14 8.5t18.5 1h83q25 0 32.5 -8.5t7.5 -32.5v-509h54q12 0 18.5 -1t14 -8.5t7.5 -21.5zM191 -100q0 -45 -25 -78.5t-42 -33.5q-9 0 -16.5 7.5t-7.5 15.5
q0 9 11 20q30 24 33 61q-37 3 -37 38q0 15 10.5 26t26.5 11q20 0 33.5 -16.5t13.5 -50.5z" />
    <glyph glyph-name="Lcaron" unicode="&#x13d;" horiz-adv-x="642" 
d="M597 41q0 -24 -8 -32.5t-32 -8.5h-471q-40 0 -40 30q0 14 7.5 21.5t14 8.5t18.5 1h54v489h-54q-40 0 -40 30q0 14 7.5 21.5t14 8.5t18.5 1h201q12 0 18.5 -1t14 -8.5t7.5 -21.5q0 -30 -40 -30h-78v-489h319v69q0 14 1 21t9.5 13.5t24.5 6.5q23 0 28.5 -10.5t5.5 -30.5
v-89zM476 544q0 -45 -25 -78.5t-42 -33.5q-9 0 -16.5 7.5t-7.5 15.5q0 9 11 20q30 24 33 61q-37 3 -37 38q0 15 10.5 26t26.5 11q20 0 33.5 -16.5t13.5 -50.5z" />
    <glyph glyph-name="lcaron" unicode="&#x13e;" horiz-adv-x="292" 
d="M274 30q0 -30 -40 -30h-177q-40 0 -40 30q0 14 7.5 21.5t14 8.5t18.5 1h54v489h-54q-40 0 -40 30q0 14 7.5 21.5t14 8.5t18.5 1h83q25 0 32.5 -8.5t7.5 -32.5v-509h54q12 0 18.5 -1t14 -8.5t7.5 -21.5zM310 544q0 -45 -25 -78.5t-42 -33.5q-9 0 -16.5 7.5t-7.5 15.5
q0 9 11 20q30 24 33 61q-37 3 -37 38q0 15 10.5 26t26.5 11q20 0 33.5 -16.5t13.5 -50.5z" />
    <glyph glyph-name="Ldot" unicode="&#x13f;" horiz-adv-x="642" 
d="M597 41q0 -24 -8 -32.5t-32 -8.5h-471q-40 0 -40 30q0 14 7.5 21.5t14 8.5t18.5 1h54v489h-54q-40 0 -40 30q0 14 7.5 21.5t14 8.5t18.5 1h201q12 0 18.5 -1t14 -8.5t7.5 -21.5q0 -30 -40 -30h-78v-489h319v69q0 14 1 21t9.5 13.5t24.5 6.5q23 0 28.5 -10.5t5.5 -30.5
v-89zM545 317q0 -20 -14.5 -35t-36.5 -15q-20 0 -35 15t-15 35t14.5 35t36.5 15q20 0 35 -15t15 -35z" />
    <glyph glyph-name="ldot" unicode="&#x140;" horiz-adv-x="311" 
d="M274 30q0 -30 -40 -30h-177q-40 0 -40 30q0 14 7.5 21.5t14 8.5t18.5 1h54v489h-54q-40 0 -40 30q0 14 7.5 21.5t14 8.5t18.5 1h83q25 0 32.5 -8.5t7.5 -32.5v-509h54q12 0 18.5 -1t14 -8.5t7.5 -21.5zM351 317q0 -20 -14.5 -35t-36.5 -15q-20 0 -35 15t-15 35t14.5 35
t36.5 15q20 0 35 -15t15 -35z" />
    <glyph glyph-name="Lslash" unicode="&#x141;" horiz-adv-x="642" 
d="M597 41q0 -24 -8 -32.5t-32 -8.5h-471q-40 0 -40 30q0 14 7.5 21.5t14 8.5t18.5 1h54v204l-36 -27q-11 -8 -22.5 -5.5t-17.5 12.5h-1q-6 11 -3.5 22.5t11.5 18.5l69 50v214h-54q-40 0 -40 30q0 14 7.5 21.5t14 8.5t18.5 1h201q12 0 18.5 -1t14 -8.5t7.5 -21.5
q0 -30 -40 -30h-78v-173l168 118q10 7 21.5 4.5t18.5 -12.5v-1q7 -11 5 -22.5t-12 -18.5l-201 -139v-245h319v69q0 14 1 21t9.5 13.5t24.5 6.5q23 0 28.5 -10.5t5.5 -30.5v-89z" />
    <glyph glyph-name="lslash" unicode="&#x142;" horiz-adv-x="353" 
d="M358 486q7 -11 5 -22.5t-12 -18.5l-135 -94v-290h54q12 0 18.5 -1t14 -8.5t7.5 -21.5q0 -30 -40 -30h-177q-40 0 -40 30q0 14 7.5 21.5t14 8.5t18.5 1h54v249l-102 -72q-12 -8 -23 -5.5t-17 12.5h-1q-7 11 -4.5 22.5t12.5 18.5l135 95v169h-54q-40 0 -40 30
q0 14 7.5 21.5t14 8.5t18.5 1h83q25 0 32.5 -8.5t7.5 -32.5v-147l102 72q10 7 21.5 4.5t18.5 -12.5v-1z" />
    <glyph glyph-name="Nacute" unicode="&#x143;" horiz-adv-x="758" 
d="M704 580q0 -30 -40 -30h-54v-509q0 -26 -8 -33.5t-33 -7.5q-14 0 -22 1t-20 9t-21 24l-302 526h-1v-499h54q12 0 18.5 -1t14 -8.5t7.5 -21.5q0 -30 -40 -30h-164q-40 0 -40 30q0 14 7.5 21.5t14 8.5t18.5 1h54v489h-54q-40 0 -40 30q0 14 7.5 21.5t14 8.5t18.5 1h95
q14 0 22 -1t20 -9t21 -24l302 -526h1v499h-54q-40 0 -40 30q0 14 7.5 21.5t14 8.5t18.5 1h164q12 0 18.5 -1t14 -8.5t7.5 -21.5zM486 752q0 -22 -28 -35l-133 -59q-10 -5 -18 -5q-17 0 -25 14.5t-8 25.5q0 12 6 17.5t19 11.5l133 60l19 5q15 0 25 -10t10 -25z" />
    <glyph glyph-name="nacute" unicode="&#x144;" horiz-adv-x="583" 
d="M565 30q0 -30 -40 -30h-177q-12 0 -18.5 1t-14 8.5t-7.5 21.5q0 30 40 30h54v224q0 47 -16 69t-65 22q-31 0 -61.5 -12t-55 -45t-24.5 -82v-176h54q12 0 18.5 -1t14 -8.5t7.5 -21.5q0 -30 -40 -30h-177q-40 0 -40 30q0 14 7.5 21.5t14 8.5t18.5 1h54v309h-54
q-40 0 -40 30q0 14 7.5 21.5t14 8.5t18.5 1h83q28 0 34 -10t6 -41q62 57 147 57q144 0 144 -146v-230h54q12 0 18.5 -1t14 -8.5t7.5 -21.5zM398 576q0 -22 -28 -35l-133 -59q-10 -5 -18 -5q-17 0 -25 14.5t-8 25.5q0 12 6 17.5t19 11.5l133 60l19 5q15 0 25 -10t10 -25z" />
    <glyph glyph-name="Ncommaaccent" unicode="&#x145;" horiz-adv-x="758" 
d="M704 580q0 -30 -40 -30h-54v-509q0 -26 -8 -33.5t-33 -7.5q-14 0 -22 1t-20 9t-21 24l-302 526h-1v-499h54q12 0 18.5 -1t14 -8.5t7.5 -21.5q0 -30 -40 -30h-164q-40 0 -40 30q0 14 7.5 21.5t14 8.5t18.5 1h54v489h-54q-40 0 -40 30q0 14 7.5 21.5t14 8.5t18.5 1h95
q14 0 22 -1t20 -9t21 -24l302 -526h1v499h-54q-40 0 -40 30q0 14 7.5 21.5t14 8.5t18.5 1h164q12 0 18.5 -1t14 -8.5t7.5 -21.5zM425 -100q0 -45 -25 -78.5t-42 -33.5q-9 0 -16.5 7.5t-7.5 15.5q0 9 11 20q30 24 33 61q-37 3 -37 38q0 15 10.5 26t26.5 11q20 0 33.5 -16.5
t13.5 -50.5z" />
    <glyph glyph-name="ncommaaccent" unicode="&#x146;" horiz-adv-x="583" 
d="M565 30q0 -30 -40 -30h-177q-12 0 -18.5 1t-14 8.5t-7.5 21.5q0 30 40 30h54v224q0 47 -16 69t-65 22q-31 0 -61.5 -12t-55 -45t-24.5 -82v-176h54q12 0 18.5 -1t14 -8.5t7.5 -21.5q0 -30 -40 -30h-177q-40 0 -40 30q0 14 7.5 21.5t14 8.5t18.5 1h54v309h-54
q-40 0 -40 30q0 14 7.5 21.5t14 8.5t18.5 1h83q28 0 34 -10t6 -41q62 57 147 57q144 0 144 -146v-230h54q12 0 18.5 -1t14 -8.5t7.5 -21.5zM337 -100q0 -45 -25 -78.5t-42 -33.5q-9 0 -16.5 7.5t-7.5 15.5q0 9 11 20q30 24 33 61q-37 3 -37 38q0 15 10.5 26t26.5 11
q20 0 33.5 -16.5t13.5 -50.5z" />
    <glyph glyph-name="Ncaron" unicode="&#x147;" horiz-adv-x="758" 
d="M704 580q0 -30 -40 -30h-54v-509q0 -26 -8 -33.5t-33 -7.5q-14 0 -22 1t-20 9t-21 24l-302 526h-1v-499h54q12 0 18.5 -1t14 -8.5t7.5 -21.5q0 -30 -40 -30h-164q-40 0 -40 30q0 14 7.5 21.5t14 8.5t18.5 1h54v489h-54q-40 0 -40 30q0 14 7.5 21.5t14 8.5t18.5 1h95
q14 0 22 -1t20 -9t21 -24l302 -526h1v499h-54q-40 0 -40 30q0 14 7.5 21.5t14 8.5t18.5 1h164q12 0 18.5 -1t14 -8.5t7.5 -21.5zM507 688l-118 -43q-9 -3 -19 0l-118 43q-26 10 -17 37t36 19l109 -33l109 33q27 8 36 -19t-18 -37z" />
    <glyph glyph-name="ncaron" unicode="&#x148;" horiz-adv-x="583" 
d="M565 30q0 -30 -40 -30h-177q-12 0 -18.5 1t-14 8.5t-7.5 21.5q0 30 40 30h54v224q0 47 -16 69t-65 22q-31 0 -61.5 -12t-55 -45t-24.5 -82v-176h54q12 0 18.5 -1t14 -8.5t7.5 -21.5q0 -30 -40 -30h-177q-40 0 -40 30q0 14 7.5 21.5t14 8.5t18.5 1h54v309h-54
q-40 0 -40 30q0 14 7.5 21.5t14 8.5t18.5 1h83q28 0 34 -10t6 -41q62 57 147 57q144 0 144 -146v-230h54q12 0 18.5 -1t14 -8.5t7.5 -21.5zM426 556l-118 -75q-15 -10 -30 0l-120 75q-25 16 -9.5 40.5t40.5 9.5l103 -62l103 62q25 15 40.5 -9.5t-9.5 -40.5z" />
    <glyph glyph-name="Eng" unicode="&#x14a;" horiz-adv-x="758" 
d="M723 306q0 -129 -58 -223t-159 -94q-19 0 -31.5 13t-12.5 31t12.5 31t31.5 13q20 0 32 -14q58 16 86.5 84.5t28.5 158.5q0 101 -69 173.5t-167 72.5q-91 0 -159.5 -32t-77.5 -95v-364h54q12 0 18.5 -1t14 -8.5t7.5 -21.5q0 -30 -40 -30h-177q-40 0 -40 30q0 14 7.5 21.5
t14 8.5t18.5 1h54v489h-54q-40 0 -40 30q0 14 7.5 21.5t14 8.5t18.5 1h83q25 0 32.5 -8.5t7.5 -32.5v-23q89 75 237 75q128 0 217 -93t89 -223z" />
    <glyph glyph-name="eng" unicode="&#x14b;" horiz-adv-x="583" 
d="M506 61q0 -127 -30 -200q-37 -94 -120 -94q-14 0 -24.5 10t-10.5 25q0 14 10.5 24.5t24.5 10.5q15 0 27 5t20 16t14 22t10 30.5t6 33.5t3 39t1 38.5v39.5v224q0 47 -16 69t-65 22q-31 0 -61.5 -12t-55 -45t-24.5 -82v-176h54q12 0 18.5 -1t14 -8.5t7.5 -21.5
q0 -30 -40 -30h-177q-40 0 -40 30q0 14 7.5 21.5t14 8.5t18.5 1h54v309h-54q-40 0 -40 30q0 14 7.5 21.5t14 8.5t18.5 1h83q28 0 34 -10t6 -41q62 57 147 57q144 0 144 -146v-230z" />
    <glyph glyph-name="Omacron" unicode="&#x14c;" horiz-adv-x="817" 
d="M758 305q0 -128 -101.5 -222t-248.5 -94q-146 0 -248 93t-102 224q0 128 101.5 222t248.5 94q146 0 248 -93t102 -224zM689 317q0 100 -82 172t-199 72t-199 -72t-82 -172q0 -109 82 -188t199 -79t199 79t82 188zM598 694q0 -14 -7.5 -21.5t-14 -8.5t-18.5 -1h-297
q-12 0 -19 1t-14.5 8.5t-7.5 22.5q0 14 7.5 21.5t14 8.5t18.5 1h298q12 0 18.5 -1t14 -8.5t7.5 -22.5z" />
    <glyph glyph-name="omacron" unicode="&#x14d;" 
d="M486 216q0 -93 -65.5 -157.5t-158.5 -64.5t-158.5 64.5t-65.5 157.5q0 92 65.5 158t158.5 66t158.5 -66t65.5 -158zM417 223q0 66 -46 111t-109 45t-109 -45t-46 -111q0 -69 45 -118.5t110 -49.5q64 0 109.5 49.5t45.5 118.5zM452 544q0 -14 -7.5 -21.5t-14 -8.5
t-18.5 -1h-297q-12 0 -19 1t-14.5 8.5t-7.5 22.5q0 14 7.5 21.5t14 8.5t18.5 1h298q12 0 18.5 -1t14 -8.5t7.5 -22.5z" />
    <glyph glyph-name="Obreve" unicode="&#x14e;" horiz-adv-x="817" 
d="M758 305q0 -128 -101.5 -222t-248.5 -94q-146 0 -248 93t-102 224q0 128 101.5 222t248.5 94q146 0 248 -93t102 -224zM689 317q0 100 -82 172t-199 72t-199 -72t-82 -172q0 -109 82 -188t199 -79t199 79t82 188zM585 735q0 -29 -16.5 -47t-48.5 -25t-53.5 -8.5
t-57.5 -1.5t-57.5 1.5t-53.5 8.5t-48.5 25t-16.5 47q0 31 31 31q25 0 30 -29q5 -20 115 -20t115 20q5 29 30 29q31 0 31 -31z" />
    <glyph glyph-name="obreve" unicode="&#x14f;" 
d="M486 216q0 -93 -65.5 -157.5t-158.5 -64.5t-158.5 64.5t-65.5 157.5q0 92 65.5 158t158.5 66t158.5 -66t65.5 -158zM417 223q0 66 -46 111t-109 45t-109 -45t-46 -111q0 -69 45 -118.5t110 -49.5q64 0 109.5 49.5t45.5 118.5zM439 570q0 -29 -16.5 -47t-48.5 -25
t-53.5 -8.5t-57.5 -1.5t-57.5 1.5t-53.5 8.5t-48.5 25t-16.5 47q0 31 31 31q25 0 30 -29q5 -20 115 -20t115 20q5 29 30 29q31 0 31 -31z" />
    <glyph glyph-name="Ohungarumlaut" unicode="&#x150;" horiz-adv-x="817" 
d="M758 305q0 -128 -101.5 -222t-248.5 -94q-146 0 -248 93t-102 224q0 128 101.5 222t248.5 94q146 0 248 -93t102 -224zM689 317q0 100 -82 172t-199 72t-199 -72t-82 -172q0 -109 82 -188t199 -79t199 79t82 188zM393 751q0 -16 -19 -31l-70 -56q-13 -11 -23 -11
q-13 0 -24.5 13t-11.5 25q0 13 17 27l70 56q15 12 26 12q15 0 25 -10t10 -25zM598 751q0 -16 -19 -31l-70 -56q-13 -11 -23 -11q-13 0 -24.5 13t-11.5 25q0 13 17 27l70 56q15 12 26 12q15 0 25 -10t10 -25z" />
    <glyph glyph-name="ohungarumlaut" unicode="&#x151;" 
d="M486 216q0 -93 -65.5 -157.5t-158.5 -64.5t-158.5 64.5t-65.5 157.5q0 92 65.5 158t158.5 66t158.5 -66t65.5 -158zM417 223q0 66 -46 111t-109 45t-109 -45t-46 -111q0 -69 45 -118.5t110 -49.5q64 0 109.5 49.5t45.5 118.5zM247 576q0 -16 -19 -31l-70 -56
q-13 -11 -23 -11q-13 0 -24.5 13t-11.5 25q0 13 17 27l70 56q15 12 26 12q15 0 25 -10t10 -25zM452 576q0 -16 -19 -31l-70 -56q-13 -11 -23 -11q-13 0 -24.5 13t-11.5 25q0 13 17 27l70 56q15 12 26 12q15 0 25 -10t10 -25z" />
    <glyph glyph-name="OE" unicode="&#x152;" horiz-adv-x="1050" 
d="M1020 41q0 -24 -8 -32.5t-32 -8.5h-422q-31 0 -61 -4q-70 -7 -89 -7q-146 0 -248 93t-102 224q0 129 101.5 222.5t248.5 93.5q28 0 61 -4q59 -7 89 -7h393q25 0 32.5 -8.5t7.5 -32.5v-73q0 -13 -1 -20t-9.5 -14t-24.5 -7q-23 0 -28.5 10.5t-5.5 30.5v53h-328v-203h222
q0 25 1.5 34.5t9 16t24.5 6.5q23 0 28.5 -10.5t5.5 -30.5v-93q0 -13 -1 -20t-9 -14t-24 -7q-24 0 -29.5 11t-5.5 46h-222v-225h357v69q0 13 1 20t9.5 14t24.5 7q23 0 28.5 -10.5t5.5 -30.5v-89zM525 306l-1 104q-1 94 -19.5 122.5t-91.5 28.5q-127 0 -206.5 -73.5
t-79.5 -170.5q0 -106 80 -186.5t206 -80.5q72 0 91 28.5t20 120.5z" />
    <glyph glyph-name="oe" unicode="&#x153;" horiz-adv-x="817" 
d="M787 109q0 -30 -43 -72.5t-119 -42.5q-66 0 -114.5 32t-72.5 70q-30 -46 -77.5 -74t-105.5 -28q-90 0 -153.5 65t-63.5 158t63.5 158t153.5 65q54 0 102 -26.5t80 -74.5q27 46 73.5 73.5t99.5 27.5q83 0 130 -59t47 -152q0 -18 -6 -26.5t-13 -10t-21 -1.5h-273
q9 -60 55 -98t102 -38q64 0 88 60q8 22 33 22q35 0 35 -28zM717 251q-4 55 -30.5 91.5t-76.5 36.5q-46 0 -85 -35.5t-50 -92.5h242zM403 223q0 66 -44 111t-104 45t-104 -45t-44 -111q0 -69 43.5 -118.5t104.5 -49.5t104.5 49.5t43.5 118.5z" />
    <glyph glyph-name="Racute" unicode="&#x154;" horiz-adv-x="758" 
d="M754 94q0 -39 -31.5 -72t-81.5 -33q-64 0 -97 45q-18 25 -22 48t-4 75q0 48 -5.5 63.5t-34.5 31.5q-46 23 -126 23h-143v-214h54q12 0 18.5 -1t14 -8.5t7.5 -21.5q0 -30 -40 -30h-177q-40 0 -40 30q0 14 7.5 21.5t14 8.5t18.5 1h54v489h-54q-40 0 -40 30q0 14 7.5 21.5
t14 8.5t18.5 1h268q110 0 191 -49t81 -119q0 -41 -30.5 -77t-84.5 -59q37 -18 56 -46q14 -21 17 -38t3 -62q0 -24 0.5 -35.5t3 -29t8 -25.5t16 -14.5t26.5 -6.5q17 0 29.5 11.5t14.5 33.5q3 30 34 30q35 0 35 -31zM557 443q0 46 -64.5 76.5t-147.5 30.5h-136v-214h136
q83 0 147.5 30.5t64.5 76.5zM486 752q0 -22 -28 -35l-133 -59q-10 -5 -18 -5q-17 0 -25 14.5t-8 25.5q0 12 6 17.5t19 11.5l133 60l19 5q15 0 25 -10t10 -25z" />
    <glyph glyph-name="racute" unicode="&#x155;" horiz-adv-x="408" 
d="M378 375q0 -19 -12.5 -31t-29.5 -12q-14 0 -27.5 9.5t-14.5 33.5q-37 -4 -63.5 -33t-38.5 -68.5t-12 -85.5v-127h78q12 0 18.5 -1t14 -8.5t7.5 -21.5q0 -30 -40 -30h-201q-40 0 -40 30q0 14 7.5 21.5t14 8.5t18.5 1h54v309h-54q-40 0 -40 30q0 14 7.5 21.5t14 8.5t18.5 1
h83q28 0 34 -10t6 -45q52 61 123 61q35 0 55 -19.5t20 -42.5zM311 576q0 -22 -28 -35l-133 -59q-10 -5 -18 -5q-17 0 -25 14.5t-8 25.5q0 12 6 17.5t19 11.5l133 60l19 5q15 0 25 -10t10 -25z" />
    <glyph glyph-name="Rcommaaccent" unicode="&#x156;" horiz-adv-x="758" 
d="M754 94q0 -39 -31.5 -72t-81.5 -33q-64 0 -97 45q-18 25 -22 48t-4 75q0 48 -5.5 63.5t-34.5 31.5q-46 23 -126 23h-143v-214h54q12 0 18.5 -1t14 -8.5t7.5 -21.5q0 -30 -40 -30h-177q-40 0 -40 30q0 14 7.5 21.5t14 8.5t18.5 1h54v489h-54q-40 0 -40 30q0 14 7.5 21.5
t14 8.5t18.5 1h268q110 0 191 -49t81 -119q0 -41 -30.5 -77t-84.5 -59q37 -18 56 -46q14 -21 17 -38t3 -62q0 -24 0.5 -35.5t3 -29t8 -25.5t16 -14.5t26.5 -6.5q17 0 29.5 11.5t14.5 33.5q3 30 34 30q35 0 35 -31zM557 443q0 46 -64.5 76.5t-147.5 30.5h-136v-214h136
q83 0 147.5 30.5t64.5 76.5zM425 -100q0 -45 -25 -78.5t-42 -33.5q-9 0 -16.5 7.5t-7.5 15.5q0 9 11 20q30 24 33 61q-37 3 -37 38q0 15 10.5 26t26.5 11q20 0 33.5 -16.5t13.5 -50.5z" />
    <glyph glyph-name="rcommaaccent" unicode="&#x157;" horiz-adv-x="408" 
d="M378 375q0 -19 -12.5 -31t-29.5 -12q-14 0 -27.5 9.5t-14.5 33.5q-37 -4 -63.5 -33t-38.5 -68.5t-12 -85.5v-127h78q12 0 18.5 -1t14 -8.5t7.5 -21.5q0 -30 -40 -30h-201q-40 0 -40 30q0 14 7.5 21.5t14 8.5t18.5 1h54v309h-54q-40 0 -40 30q0 14 7.5 21.5t14 8.5t18.5 1
h83q28 0 34 -10t6 -45q52 61 123 61q35 0 55 -19.5t20 -42.5zM192 -100q0 -45 -25 -78.5t-42 -33.5q-9 0 -16.5 7.5t-7.5 15.5q0 9 11 20q30 24 33 61q-37 3 -37 38q0 15 10.5 26t26.5 11q20 0 33.5 -16.5t13.5 -50.5z" />
    <glyph glyph-name="Rcaron" unicode="&#x158;" horiz-adv-x="758" 
d="M754 94q0 -39 -31.5 -72t-81.5 -33q-64 0 -97 45q-18 25 -22 48t-4 75q0 48 -5.5 63.5t-34.5 31.5q-46 23 -126 23h-143v-214h54q12 0 18.5 -1t14 -8.5t7.5 -21.5q0 -30 -40 -30h-177q-40 0 -40 30q0 14 7.5 21.5t14 8.5t18.5 1h54v489h-54q-40 0 -40 30q0 14 7.5 21.5
t14 8.5t18.5 1h268q110 0 191 -49t81 -119q0 -41 -30.5 -77t-84.5 -59q37 -18 56 -46q14 -21 17 -38t3 -62q0 -24 0.5 -35.5t3 -29t8 -25.5t16 -14.5t26.5 -6.5q17 0 29.5 11.5t14.5 33.5q3 30 34 30q35 0 35 -31zM557 443q0 46 -64.5 76.5t-147.5 30.5h-136v-214h136
q83 0 147.5 30.5t64.5 76.5zM507 688l-118 -43q-9 -3 -19 0l-118 43q-26 10 -17 37t36 19l109 -33l109 33q27 8 36 -19t-18 -37z" />
    <glyph glyph-name="rcaron" unicode="&#x159;" horiz-adv-x="408" 
d="M378 375q0 -19 -12.5 -31t-29.5 -12q-14 0 -27.5 9.5t-14.5 33.5q-37 -4 -63.5 -33t-38.5 -68.5t-12 -85.5v-127h78q12 0 18.5 -1t14 -8.5t7.5 -21.5q0 -30 -40 -30h-201q-40 0 -40 30q0 14 7.5 21.5t14 8.5t18.5 1h54v309h-54q-40 0 -40 30q0 14 7.5 21.5t14 8.5t18.5 1
h83q28 0 34 -10t6 -45q52 61 123 61q35 0 55 -19.5t20 -42.5zM339 556l-118 -75q-15 -10 -30 0l-120 75q-25 16 -9.5 40.5t40.5 9.5l103 -62l103 62q25 15 40.5 -9.5t-9.5 -40.5z" />
    <glyph glyph-name="Sacute" unicode="&#x15a;" horiz-adv-x="583" 
d="M524 166q0 -70 -57 -123.5t-152 -53.5q-122 0 -188 48q-8 -23 -11.5 -30.5t-10 -12.5t-17.5 -5q-30 0 -30 41v132q0 13 1 20t9.5 14t24.5 7q15 0 23 -6t9 -11.5t2 -15.5q4 -61 55 -92q49 -28 134 -28q65 0 104 34t39 78q0 19 -8 37t-16 26l-8 8q-23 20 -41.5 26.5
t-68.5 17.5l-43 9q-55 12 -77 17.5t-46 16.5t-44 30q-49 47 -49 108q0 66 58 115t148 49q102 0 162 -51q12 35 17.5 43t21.5 8q30 0 30 -41v-132q0 -13 -1 -20t-9.5 -14t-24.5 -7q-14 0 -21.5 5t-9.5 10.5t-4 16.5q-23 121 -162 121q-61 0 -100.5 -30t-39.5 -69
q0 -40 33 -64t66 -31l148 -31q67 -14 110.5 -62t43.5 -108zM398 752q0 -22 -28 -35l-133 -59q-10 -5 -18 -5q-17 0 -25 14.5t-8 25.5q0 12 6 17.5t19 11.5l133 60l19 5q15 0 25 -10t10 -25z" />
    <glyph glyph-name="sacute" unicode="&#x15b;" horiz-adv-x="414" 
d="M378 125q0 -51 -40 -91t-129 -40q-67 0 -109 34q-8 -34 -35 -34q-30 0 -30 41v96q0 13 1 20t9.5 14t24.5 7q28 0 34 -25q6 -20 11.5 -33t17 -28t31 -23t46.5 -8q12 0 24 1.5t34 7t35.5 21.5t13.5 40q0 27 -22.5 44t-53.5 24q-17 0 -61 11q-145 27 -145 118q0 17 6.5 35
t23 38t52 32.5t86.5 12.5q55 0 90 -20q7 20 29 20q30 0 30 -41v-69q0 -13 -1 -20t-9.5 -14t-24.5 -7q-14 0 -22 5.5t-9.5 11.5t-2.5 15q-1 11 -3.5 18t-10 18t-25 16.5t-43.5 5.5q-53 0 -79 -16t-26 -41q0 -28 30 -40t101 -25q151 -28 151 -132zM314 576q0 -22 -28 -35
l-133 -59q-10 -5 -18 -5q-17 0 -25 14.5t-8 25.5q0 12 6 17.5t19 11.5l133 60l19 5q15 0 25 -10t10 -25z" />
    <glyph glyph-name="Scircumflex" unicode="&#x15c;" horiz-adv-x="583" 
d="M524 166q0 -70 -57 -123.5t-152 -53.5q-122 0 -188 48q-8 -23 -11.5 -30.5t-10 -12.5t-17.5 -5q-30 0 -30 41v132q0 13 1 20t9.5 14t24.5 7q15 0 23 -6t9 -11.5t2 -15.5q4 -61 55 -92q49 -28 134 -28q65 0 104 34t39 78q0 19 -8 37t-16 26l-8 8q-23 20 -41.5 26.5
t-68.5 17.5l-43 9q-55 12 -77 17.5t-46 16.5t-44 30q-49 47 -49 108q0 66 58 115t148 49q102 0 162 -51q12 35 17.5 43t21.5 8q30 0 30 -41v-132q0 -13 -1 -20t-9.5 -14t-24.5 -7q-14 0 -21.5 5t-9.5 10.5t-4 16.5q-23 121 -162 121q-61 0 -100.5 -30t-39.5 -69
q0 -40 33 -64t66 -31l148 -31q67 -14 110.5 -62t43.5 -108zM420 701q26 -10 17 -37t-36 -19l-109 33l-109 -33q-27 -8 -36 19t18 37l118 43q9 3 19 0z" />
    <glyph glyph-name="scircumflex" unicode="&#x15d;" horiz-adv-x="414" 
d="M378 125q0 -51 -40 -91t-129 -40q-67 0 -109 34q-8 -34 -35 -34q-30 0 -30 41v96q0 13 1 20t9.5 14t24.5 7q28 0 34 -25q6 -20 11.5 -33t17 -28t31 -23t46.5 -8q12 0 24 1.5t34 7t35.5 21.5t13.5 40q0 27 -22.5 44t-53.5 24q-17 0 -61 11q-145 27 -145 118q0 17 6.5 35
t23 38t52 32.5t86.5 12.5q55 0 90 -20q7 20 29 20q30 0 30 -41v-69q0 -13 -1 -20t-9.5 -14t-24.5 -7q-14 0 -22 5.5t-9.5 11.5t-2.5 15q-1 11 -3.5 18t-10 18t-25 16.5t-43.5 5.5q-53 0 -79 -16t-26 -41q0 -28 30 -40t101 -25q151 -28 151 -132zM342 532q25 -16 9.5 -40.5
t-40.5 -9.5l-103 62l-103 -62q-25 -15 -40.5 9.5t9.5 40.5l118 75q15 10 30 0z" />
    <glyph glyph-name="Scedilla" unicode="&#x15e;" horiz-adv-x="583" 
d="M524 166q0 -62 -45.5 -112t-123.5 -62v-2q39 -10 63 -35t24 -62q0 -24 -9 -42.5t-28.5 -29t-37 -17t-47 -9t-46 -3t-45.5 -0.5q-11 0 -21 7.5t-10 23.5q0 15 8.5 22t18 8t29.5 1q69 0 94 10t25 30q0 16 -16 27t-41 13q-14 1 -21 8t-8 13t-1 18v17q-99 4 -159 47
q-8 -23 -11.5 -30.5t-10 -12.5t-17.5 -5q-30 0 -30 41v132q0 13 1 20t9.5 14t24.5 7q15 0 23 -6t9 -11.5t2 -15.5q4 -61 55 -92q49 -28 134 -28q65 0 104 34t39 78q0 19 -8 37t-16 26l-8 8q-23 20 -41.5 26.5t-68.5 17.5l-43 9q-55 12 -77 17.5t-46 16.5t-44 30
q-49 47 -49 108q0 66 58 115t148 49q102 0 162 -51q12 35 17.5 43t21.5 8q30 0 30 -41v-132q0 -13 -1 -20t-9.5 -14t-24.5 -7q-14 0 -21.5 5t-9.5 10.5t-4 16.5q-23 121 -162 121q-61 0 -100.5 -30t-39.5 -69q0 -40 33 -64t66 -31l148 -31q67 -14 110.5 -62t43.5 -108z" />
    <glyph glyph-name="scedilla" unicode="&#x15f;" horiz-adv-x="414" 
d="M378 125q0 -40 -25.5 -75.5t-81.5 -48.5v-11q39 -10 63 -35t24 -62q0 -24 -9 -42.5t-28.5 -29t-37 -17t-47 -9t-46 -3t-45.5 -0.5q-11 0 -21 7.5t-10 23.5q0 15 8.5 22t18 8t29.5 1q69 0 94 10t25 30q0 16 -16 27t-41 13q-14 1 -21 8t-8 13t-1 18v21q-62 2 -102 34
q-8 -34 -35 -34q-30 0 -30 41v96q0 13 1 20t9.5 14t24.5 7q28 0 34 -25q6 -20 11.5 -33t17 -28t31 -23t46.5 -8q12 0 24 1.5t34 7t35.5 21.5t13.5 40q0 27 -22.5 44t-53.5 24q-17 0 -61 11q-145 27 -145 118q0 17 6.5 35t23 38t52 32.5t86.5 12.5q55 0 90 -20q7 20 29 20
q30 0 30 -41v-69q0 -13 -1 -20t-9.5 -14t-24.5 -7q-14 0 -22 5.5t-9.5 11.5t-2.5 15q-1 11 -3.5 18t-10 18t-25 16.5t-43.5 5.5q-53 0 -79 -16t-26 -41q0 -28 30 -40t101 -25q151 -28 151 -132z" />
    <glyph glyph-name="Scaron" unicode="&#x160;" horiz-adv-x="583" 
d="M524 166q0 -70 -57 -123.5t-152 -53.5q-122 0 -188 48q-8 -23 -11.5 -30.5t-10 -12.5t-17.5 -5q-30 0 -30 41v132q0 13 1 20t9.5 14t24.5 7q15 0 23 -6t9 -11.5t2 -15.5q4 -61 55 -92q49 -28 134 -28q65 0 104 34t39 78q0 19 -8 37t-16 26l-8 8q-23 20 -41.5 26.5
t-68.5 17.5l-43 9q-55 12 -77 17.5t-46 16.5t-44 30q-49 47 -49 108q0 66 58 115t148 49q102 0 162 -51q12 35 17.5 43t21.5 8q30 0 30 -41v-132q0 -13 -1 -20t-9.5 -14t-24.5 -7q-14 0 -21.5 5t-9.5 10.5t-4 16.5q-23 121 -162 121q-61 0 -100.5 -30t-39.5 -69
q0 -40 33 -64t66 -31l148 -31q67 -14 110.5 -62t43.5 -108zM419 688l-118 -43q-9 -3 -19 0l-118 43q-26 10 -17 37t36 19l109 -33l109 33q27 8 36 -19t-18 -37z" />
    <glyph glyph-name="scaron" unicode="&#x161;" horiz-adv-x="414" 
d="M378 125q0 -51 -40 -91t-129 -40q-67 0 -109 34q-8 -34 -35 -34q-30 0 -30 41v96q0 13 1 20t9.5 14t24.5 7q28 0 34 -25q6 -20 11.5 -33t17 -28t31 -23t46.5 -8q12 0 24 1.5t34 7t35.5 21.5t13.5 40q0 27 -22.5 44t-53.5 24q-17 0 -61 11q-145 27 -145 118q0 17 6.5 35
t23 38t52 32.5t86.5 12.5q55 0 90 -20q7 20 29 20q30 0 30 -41v-69q0 -13 -1 -20t-9.5 -14t-24.5 -7q-14 0 -22 5.5t-9.5 11.5t-2.5 15q-1 11 -3.5 18t-10 18t-25 16.5t-43.5 5.5q-53 0 -79 -16t-26 -41q0 -28 30 -40t101 -25q151 -28 151 -132zM342 556l-118 -75
q-15 -10 -30 0l-120 75q-25 16 -9.5 40.5t40.5 9.5l103 -62l103 62q25 15 40.5 -9.5t-9.5 -40.5z" />
    <glyph glyph-name="Tcedilla" unicode="&#x162;" horiz-adv-x="758" 
d="M719 497q0 -13 -1 -20t-9.5 -14t-24.5 -7q-23 0 -28.5 10.5t-5.5 30.5v53h-237v-489h93q41 0 41 -31q0 -30 -41 -30h-93l1 -13q39 -10 63 -35t24 -62q0 -24 -9 -42.5t-28.5 -29t-37 -17t-47 -9t-46 -3t-45.5 -0.5q-11 0 -21 7.5t-10 23.5q0 15 8.5 22t18 8t29.5 1
q69 0 94 10t25 30q0 16 -16 27t-41 13q-14 1 -21 8t-8 13t-1 18v30h-94q-41 0 -41 31q0 30 41 30h93v489h-237v-53q0 -13 -1 -20t-9.5 -14t-24.5 -7q-23 0 -28.5 10.5t-5.5 30.5v73q0 25 8 33t33 8h600q25 0 32.5 -8.5t7.5 -32.5v-73z" />
    <glyph glyph-name="tcedilla" unicode="&#x163;" horiz-adv-x="408" 
d="M349 125q0 -46 -25 -80t-64 -46v-12q39 -10 63 -35t24 -62q0 -24 -9 -42.5t-28.5 -29t-37 -17t-47 -9t-46 -3t-45.5 -0.5q-11 0 -21 7.5t-10 23.5q0 15 8.5 22t18 8t29.5 1q69 0 94 10t25 30q0 16 -16 27t-41 13q-14 1 -21 8t-8 13t-1 18v29q-80 22 -80 124v247h-52
q-40 0 -40 30q0 31 41 31h51v82q0 13 1 20t9.5 14t24.5 7q23 0 28.5 -10.5t5.5 -30.5v-82h111q12 0 18.5 -1t14 -8.5t7.5 -21.5q0 -30 -40 -30h-111v-241q0 -74 49 -74q21 0 36 18.5t15 52.5q0 12 1 18.5t9 13.5t24 7t24.5 -7t9.5 -13.5t1 -19.5z" />
    <glyph glyph-name="Tcaron" unicode="&#x164;" horiz-adv-x="758" 
d="M719 497q0 -13 -1 -20t-9.5 -14t-24.5 -7q-23 0 -28.5 10.5t-5.5 30.5v53h-237v-489h93q41 0 41 -31q0 -30 -41 -30h-255q-41 0 -41 31q0 30 41 30h93v489h-237v-53q0 -13 -1 -20t-9.5 -14t-24.5 -7q-23 0 -28.5 10.5t-5.5 30.5v73q0 25 8 33t33 8h600q25 0 32.5 -8.5
t7.5 -32.5v-73zM507 688l-118 -43q-9 -3 -19 0l-118 43q-26 10 -17 37t36 19l109 -33l109 33q27 8 36 -19t-18 -37z" />
    <glyph glyph-name="tcaron" unicode="&#x165;" horiz-adv-x="408" 
d="M349 125q0 -57 -36.5 -94t-87.5 -37q-44 0 -79 30t-35 99v247h-52q-40 0 -40 30q0 31 41 31h51v82q0 13 1 20t9.5 14t24.5 7q23 0 28.5 -10.5t5.5 -30.5v-82h111q12 0 18.5 -1t14 -8.5t7.5 -21.5q0 -30 -40 -30h-111v-241q0 -74 49 -74q21 0 36 18.5t15 52.5q0 12 1 18.5
t9 13.5t24 7t24.5 -7t9.5 -13.5t1 -19.5zM310 581q0 -45 -25 -78.5t-42 -33.5q-9 0 -16.5 7.5t-7.5 15.5q0 9 11 20q30 24 33 61q-37 3 -37 38q0 15 10.5 26t26.5 11q20 0 33.5 -16.5t13.5 -50.5z" />
    <glyph glyph-name="Utilde" unicode="&#x168;" horiz-adv-x="758" 
d="M711 580q0 -30 -40 -30h-54v-344q0 -92 -70 -154.5t-169 -62.5q-97 0 -167.5 62t-70.5 155v344h-54q-40 0 -40 30q0 14 7.5 21.5t14 8.5t18.5 1h177q12 0 18.5 -1t14 -8.5t7.5 -21.5q0 -30 -40 -30h-54v-338q0 -78 52.5 -120t117.5 -42q63 0 116 42t53 120v338h-54
q-40 0 -40 30q0 14 7.5 21.5t14 8.5t18.5 1h177q12 0 18.5 -1t14 -8.5t7.5 -21.5zM578 731q0 -18 -49 -55q-45 -33 -78 -33t-67 34q-23 21 -31 21q-23 0 -70 -44q-13 -11 -24 -11q-12 0 -21.5 10t-9.5 22q0 18 49 55q45 33 78 33t67 -34q23 -21 31 -21q23 0 70 44
q13 11 24 11q12 0 21.5 -10t9.5 -22z" />
    <glyph glyph-name="utilde" unicode="&#x169;" horiz-adv-x="583" 
d="M565 30q0 -30 -40 -30h-83q-13 0 -19.5 1t-13.5 9.5t-7 24.5q-53 -41 -137 -41q-154 0 -154 121v255h-54q-40 0 -40 30q0 14 7.5 21.5t14 8.5t18.5 1h83q25 0 32.5 -8.5t7.5 -32.5v-269q0 -16 1.5 -24t9.5 -19.5t28 -17t52 -5.5q18 0 36 3t41.5 12t38.5 31.5t15 55.5v213
h-54q-12 0 -18.5 1t-14 8.5t-7.5 21.5q0 30 40 30h83q25 0 32.5 -8.5t7.5 -32.5v-329h54q12 0 18.5 -1t14 -8.5t7.5 -21.5zM467 572q0 -18 -49 -55q-45 -33 -78 -33t-67 34q-23 21 -31 21q-23 0 -70 -44q-13 -11 -24 -11q-12 0 -21.5 10t-9.5 22q0 18 49 55q45 33 78 33
t67 -34q23 -21 31 -21q23 0 70 44q13 11 24 11q12 0 21.5 -10t9.5 -22z" />
    <glyph glyph-name="Umacron" unicode="&#x16a;" horiz-adv-x="758" 
d="M711 580q0 -30 -40 -30h-54v-344q0 -92 -70 -154.5t-169 -62.5q-97 0 -167.5 62t-70.5 155v344h-54q-40 0 -40 30q0 14 7.5 21.5t14 8.5t18.5 1h177q12 0 18.5 -1t14 -8.5t7.5 -21.5q0 -30 -40 -30h-54v-338q0 -78 52.5 -120t117.5 -42q63 0 116 42t53 120v338h-54
q-40 0 -40 30q0 14 7.5 21.5t14 8.5t18.5 1h177q12 0 18.5 -1t14 -8.5t7.5 -21.5zM592 694q0 -14 -7.5 -21.5t-14 -8.5t-18.5 -1h-297q-12 0 -19 1t-14.5 8.5t-7.5 22.5q0 14 7.5 21.5t14 8.5t18.5 1h298q12 0 18.5 -1t14 -8.5t7.5 -22.5z" />
    <glyph glyph-name="umacron" unicode="&#x16b;" horiz-adv-x="583" 
d="M565 30q0 -30 -40 -30h-83q-13 0 -19.5 1t-13.5 9.5t-7 24.5q-53 -41 -137 -41q-154 0 -154 121v255h-54q-40 0 -40 30q0 14 7.5 21.5t14 8.5t18.5 1h83q25 0 32.5 -8.5t7.5 -32.5v-269q0 -16 1.5 -24t9.5 -19.5t28 -17t52 -5.5q18 0 36 3t41.5 12t38.5 31.5t15 55.5v213
h-54q-12 0 -18.5 1t-14 8.5t-7.5 21.5q0 30 40 30h83q25 0 32.5 -8.5t7.5 -32.5v-329h54q12 0 18.5 -1t14 -8.5t7.5 -21.5zM481 544q0 -14 -7.5 -21.5t-14 -8.5t-18.5 -1h-297q-12 0 -19 1t-14.5 8.5t-7.5 22.5q0 14 7.5 21.5t14 8.5t18.5 1h298q12 0 18.5 -1t14 -8.5
t7.5 -22.5z" />
    <glyph glyph-name="Ubreve" unicode="&#x16c;" horiz-adv-x="758" 
d="M711 580q0 -30 -40 -30h-54v-344q0 -92 -70 -154.5t-169 -62.5q-97 0 -167.5 62t-70.5 155v344h-54q-40 0 -40 30q0 14 7.5 21.5t14 8.5t18.5 1h177q12 0 18.5 -1t14 -8.5t7.5 -21.5q0 -30 -40 -30h-54v-338q0 -78 52.5 -120t117.5 -42q63 0 116 42t53 120v338h-54
q-40 0 -40 30q0 14 7.5 21.5t14 8.5t18.5 1h177q12 0 18.5 -1t14 -8.5t7.5 -21.5zM579 735q0 -29 -16.5 -47t-48.5 -25t-53.5 -8.5t-57.5 -1.5t-57.5 1.5t-53.5 8.5t-48.5 25t-16.5 47q0 31 31 31q25 0 30 -29q5 -20 115 -20t115 20q5 29 30 29q31 0 31 -31z" />
    <glyph glyph-name="ubreve" unicode="&#x16d;" horiz-adv-x="583" 
d="M565 30q0 -30 -40 -30h-83q-13 0 -19.5 1t-13.5 9.5t-7 24.5q-53 -41 -137 -41q-154 0 -154 121v255h-54q-40 0 -40 30q0 14 7.5 21.5t14 8.5t18.5 1h83q25 0 32.5 -8.5t7.5 -32.5v-269q0 -16 1.5 -24t9.5 -19.5t28 -17t52 -5.5q18 0 36 3t41.5 12t38.5 31.5t15 55.5v213
h-54q-12 0 -18.5 1t-14 8.5t-7.5 21.5q0 30 40 30h83q25 0 32.5 -8.5t7.5 -32.5v-329h54q12 0 18.5 -1t14 -8.5t7.5 -21.5zM468 570q0 -29 -16.5 -47t-48.5 -25t-53.5 -8.5t-57.5 -1.5t-57.5 1.5t-53.5 8.5t-48.5 25t-16.5 47q0 31 31 31q25 0 30 -29q5 -20 115 -20t115 20
q5 29 30 29q31 0 31 -31z" />
    <glyph glyph-name="Uring" unicode="&#x16e;" horiz-adv-x="758" 
d="M711 580q0 -30 -40 -30h-54v-344q0 -92 -70 -154.5t-169 -62.5q-97 0 -167.5 62t-70.5 155v344h-54q-40 0 -40 30q0 14 7.5 21.5t14 8.5t18.5 1h177q12 0 18.5 -1t14 -8.5t7.5 -21.5q0 -30 -40 -30h-54v-338q0 -78 52.5 -120t117.5 -42q63 0 116 42t53 120v338h-54
q-40 0 -40 30q0 14 7.5 21.5t14 8.5t18.5 1h177q12 0 18.5 -1t14 -8.5t7.5 -21.5zM453 689q0 12 -15 20.5t-36 8.5q-19 0 -35 -8t-16 -21q0 -12 15 -20.5t36 -8.5q19 0 35 8t16 21zM519 689q0 -27 -33.5 -46.5t-84.5 -19.5q-48 0 -82 19.5t-34 46.5t33.5 46.5t84.5 19.5
q48 0 82 -19.5t34 -46.5z" />
    <glyph glyph-name="uring" unicode="&#x16f;" horiz-adv-x="583" 
d="M565 30q0 -30 -40 -30h-83q-13 0 -19.5 1t-13.5 9.5t-7 24.5q-53 -41 -137 -41q-154 0 -154 121v255h-54q-40 0 -40 30q0 14 7.5 21.5t14 8.5t18.5 1h83q25 0 32.5 -8.5t7.5 -32.5v-269q0 -16 1.5 -24t9.5 -19.5t28 -17t52 -5.5q18 0 36 3t41.5 12t38.5 31.5t15 55.5v213
h-54q-12 0 -18.5 1t-14 8.5t-7.5 21.5q0 30 40 30h83q25 0 32.5 -8.5t7.5 -32.5v-329h54q12 0 18.5 -1t14 -8.5t7.5 -21.5zM342 558q0 12 -15 20.5t-36 8.5q-19 0 -35 -8t-16 -21q0 -12 15 -20.5t36 -8.5q19 0 35 8t16 21zM408 558q0 -27 -33.5 -46.5t-84.5 -19.5
q-48 0 -82 19.5t-34 46.5t33.5 46.5t84.5 19.5q48 0 82 -19.5t34 -46.5z" />
    <glyph glyph-name="Uhungarumlaut" unicode="&#x170;" horiz-adv-x="758" 
d="M711 580q0 -30 -40 -30h-54v-344q0 -92 -70 -154.5t-169 -62.5q-97 0 -167.5 62t-70.5 155v344h-54q-40 0 -40 30q0 14 7.5 21.5t14 8.5t18.5 1h177q12 0 18.5 -1t14 -8.5t7.5 -21.5q0 -30 -40 -30h-54v-338q0 -78 52.5 -120t117.5 -42q63 0 116 42t53 120v338h-54
q-40 0 -40 30q0 14 7.5 21.5t14 8.5t18.5 1h177q12 0 18.5 -1t14 -8.5t7.5 -21.5zM387 751q0 -16 -19 -31l-70 -56q-13 -11 -23 -11q-13 0 -24.5 13t-11.5 25q0 13 17 27l70 56q15 12 26 12q15 0 25 -10t10 -25zM592 751q0 -16 -19 -31l-70 -56q-13 -11 -23 -11
q-13 0 -24.5 13t-11.5 25q0 13 17 27l70 56q15 12 26 12q15 0 25 -10t10 -25z" />
    <glyph glyph-name="uhungarumlaut" unicode="&#x171;" horiz-adv-x="583" 
d="M565 30q0 -30 -40 -30h-83q-13 0 -19.5 1t-13.5 9.5t-7 24.5q-53 -41 -137 -41q-154 0 -154 121v255h-54q-40 0 -40 30q0 14 7.5 21.5t14 8.5t18.5 1h83q25 0 32.5 -8.5t7.5 -32.5v-269q0 -16 1.5 -24t9.5 -19.5t28 -17t52 -5.5q18 0 36 3t41.5 12t38.5 31.5t15 55.5v213
h-54q-12 0 -18.5 1t-14 8.5t-7.5 21.5q0 30 40 30h83q25 0 32.5 -8.5t7.5 -32.5v-329h54q12 0 18.5 -1t14 -8.5t7.5 -21.5zM276 576q0 -16 -19 -31l-70 -56q-13 -11 -23 -11q-13 0 -24.5 13t-11.5 25q0 13 17 27l70 56q15 12 26 12q15 0 25 -10t10 -25zM481 576
q0 -16 -19 -31l-70 -56q-13 -11 -23 -11q-13 0 -24.5 13t-11.5 25q0 13 17 27l70 56q15 12 26 12q15 0 25 -10t10 -25z" />
    <glyph glyph-name="Uogonek" unicode="&#x172;" horiz-adv-x="758" 
d="M711 580q0 -30 -40 -30h-54v-344q0 -90 -67 -152t-164 -65q-49 -38 -49 -99q0 -17 14.5 -28t29.5 -11q14 0 29 11.5t25 25.5q5 5 17.5 7t19.5 -2q6 -5 8 -17.5t-3 -19.5q-43 -59 -100 -59q-44 0 -71.5 30t-27.5 65q0 53 55 101q-82 14 -137.5 73t-55.5 140v344h-54
q-40 0 -40 30q0 14 7.5 21.5t14 8.5t18.5 1h177q12 0 18.5 -1t14 -8.5t7.5 -21.5q0 -30 -40 -30h-54v-338q0 -78 52.5 -120t117.5 -42q63 0 116 42t53 120v338h-54q-40 0 -40 30q0 14 7.5 21.5t14 8.5t18.5 1h177q12 0 18.5 -1t14 -8.5t7.5 -21.5z" />
    <glyph glyph-name="uogonek" unicode="&#x173;" horiz-adv-x="583" 
d="M581 -144q-43 -59 -100 -59q-44 0 -71.5 30t-27.5 65q0 59 64 108h-4q-13 0 -19.5 1t-13.5 9.5t-7 24.5q-53 -41 -137 -41q-154 0 -154 121v255h-54q-40 0 -40 30q0 14 7.5 21.5t14 8.5t18.5 1h83q25 0 32.5 -8.5t7.5 -32.5v-269q0 -16 1.5 -24t9.5 -19.5t28 -17t52 -5.5
q18 0 36 3t41.5 12t38.5 31.5t15 55.5v213h-54q-12 0 -18.5 1t-14 8.5t-7.5 21.5q0 30 40 30h83q25 0 32.5 -8.5t7.5 -32.5v-329h54q12 0 18.5 -1t14 -8.5t7.5 -21.5q0 -30 -40 -30h-18q-30 -16 -48 -45.5t-18 -64.5q0 -17 14.5 -28t29.5 -11q14 0 29 11.5t25 25.5
q5 5 17.5 7t19.5 -2q6 -5 8 -17.5t-3 -19.5z" />
    <glyph glyph-name="Wcircumflex" unicode="&#x174;" horiz-adv-x="1050" 
d="M1025 580q0 -30 -41 -30h-34l-157 -524q-7 -23 -19.5 -28.5t-34.5 -5.5q-27 0 -37 7t-17 31l-161 532l-160 -533q-8 -25 -19 -31t-35 -6q-39 0 -50 22l-161 536h-34q-41 0 -41 31q0 30 41 30h135q41 0 41 -31q0 -30 -41 -30h-42l152 -507l161 534q7 23 18 28.5t36 5.5
q15 0 22.5 -1t17 -9t14.5 -24l160 -534l152 507h-42q-41 0 -41 30q0 31 41 31h135q41 0 41 -31zM654 701q26 -10 17 -37t-36 -19l-109 33l-109 -33q-27 -8 -36 19t18 37l118 43q9 3 19 0z" />
    <glyph glyph-name="wcircumflex" unicode="&#x175;" horiz-adv-x="758" 
d="M734 400q0 -30 -41 -30h-33l-93 -340q-6 -23 -17.5 -28.5t-34.5 -5.5q-30 0 -39 9t-17 40l-41 153l-38 162q-3 -30 -24 -114.5t-41 -155.5t-22 -75q-10 -19 -49 -19q-17 0 -25 1.5t-16.5 9.5t-13.5 25l-92 338h-33q-41 0 -41 31q0 30 41 30h135q41 0 41 -31
q0 -30 -41 -30h-44l87 -318l93 343q6 20 15 28t31 8q16 0 26 -6t13 -11.5t6 -17.5l92 -336l84 310h-44q-41 0 -41 31q0 30 41 30h135q41 0 41 -31zM514 532q25 -16 9.5 -40.5t-40.5 -9.5l-103 62l-103 -62q-25 -15 -40.5 9.5t9.5 40.5l118 75q15 10 30 0z" />
    <glyph glyph-name="Ycircumflex" unicode="&#x176;" horiz-adv-x="758" 
d="M727 580q0 -30 -41 -30h-48l-225 -306v-183h54q12 0 18.5 -1t14 -8.5t7.5 -21.5q0 -30 -40 -30h-177q-40 0 -40 30q0 14 7.5 21.5t14 8.5t18.5 1h54v183l-225 306h-48q-41 0 -41 31q0 30 41 30h156q41 0 41 -31q0 -30 -41 -30h-23l174 -236l175 236h-23q-41 0 -41 31
q0 30 41 30h156q41 0 41 -31zM508 701q26 -10 17 -37t-36 -19l-109 33l-109 -33q-27 -8 -36 19t18 37l118 43q9 3 19 0z" />
    <glyph glyph-name="ycircumflex" unicode="&#x177;" horiz-adv-x="554" 
d="M527 400q0 -30 -40 -30h-40l-155 -453q-19 -55 -65 -100t-109 -45q-42 0 -70 24.5t-28 57.5q0 20 12 32t32 12q18 0 30.5 -12t12.5 -32q0 -5 -1 -10t-1 -6q0 -5 15 -5q87 0 119 105q20 57 22 62l-151 370h-41q-41 0 -41 31q0 30 41 30h140q12 0 18.5 -1t14 -8.5
t7.5 -21.5q0 -30 -40 -30h-38l95 -238l23 -63l98 301h-41q-40 0 -40 30q0 14 7.5 21.5t14 8.5t18.5 1h141q12 0 18.5 -1t14 -8.5t7.5 -21.5zM412 532q25 -16 9.5 -40.5t-40.5 -9.5l-103 62l-103 -62q-25 -15 -40.5 9.5t9.5 40.5l118 75q15 10 30 0z" />
    <glyph glyph-name="Ydieresis" unicode="&#x178;" horiz-adv-x="758" 
d="M727 580q0 -30 -41 -30h-48l-225 -306v-183h54q12 0 18.5 -1t14 -8.5t7.5 -21.5q0 -30 -40 -30h-177q-40 0 -40 30q0 14 7.5 21.5t14 8.5t18.5 1h54v183l-225 306h-48q-41 0 -41 31q0 30 41 30h156q41 0 41 -31q0 -30 -41 -30h-23l174 -236l175 236h-23q-41 0 -41 31
q0 30 41 30h156q41 0 41 -31zM327 688q0 -18 -13 -31.5t-33 -13.5q-18 0 -31.5 13t-13.5 32q0 17 13 31t33 14q19 0 32 -13.5t13 -31.5zM524 688q0 -18 -13 -31.5t-33 -13.5q-18 0 -31.5 13t-13.5 32q0 17 13 31t33 14q19 0 32 -13.5t13 -31.5z" />
    <glyph glyph-name="Zacute" unicode="&#x179;" horiz-adv-x="642" 
d="M589 41q0 -24 -8 -32.5t-32 -8.5h-450q-13 0 -20 1t-14 9t-7 24q0 18 12 31l416 485h-344v-53q0 -13 -1 -20t-9.5 -14t-24.5 -7q-23 0 -28.5 10.5t-5.5 30.5v73q0 25 8 33t33 8h428q13 0 20 -1t14 -9t7 -24q0 -18 -12 -31l-416 -485h365v72q0 13 1 20t9.5 14t24.5 7
q23 0 28.5 -10.5t5.5 -30.5v-92zM427 752q0 -22 -28 -35l-133 -59q-10 -5 -18 -5q-17 0 -25 14.5t-8 25.5q0 12 6 17.5t19 11.5l133 60l19 5q15 0 25 -10t10 -25z" />
    <glyph glyph-name="zacute" unicode="&#x17a;" horiz-adv-x="467" 
d="M422 41q0 -24 -8 -32.5t-32 -8.5h-312q-13 0 -20 1t-14 9.5t-7 24.5q0 13 3 20l289 315h-208v-26q0 -13 -1 -20t-9.5 -14t-24.5 -7q-23 0 -28.5 10.5t-5.5 30.5v46q0 25 8 33t33 8h293q13 0 20 -1t14 -9.5t7 -24.5q0 -12 -3 -20l-289 -315h226v38q0 13 1 20t9.5 14
t24.5 7q23 0 28.5 -10.5t5.5 -30.5v-58zM340 576q0 -22 -28 -35l-133 -59q-10 -5 -18 -5q-17 0 -25 14.5t-8 25.5q0 12 6 17.5t19 11.5l133 60l19 5q15 0 25 -10t10 -25z" />
    <glyph glyph-name="Zdotaccent" unicode="&#x17b;" horiz-adv-x="642" 
d="M589 41q0 -24 -8 -32.5t-32 -8.5h-450q-13 0 -20 1t-14 9t-7 24q0 18 12 31l416 485h-344v-53q0 -13 -1 -20t-9.5 -14t-24.5 -7q-23 0 -28.5 10.5t-5.5 30.5v73q0 25 8 33t33 8h428q13 0 20 -1t14 -9t7 -24q0 -18 -12 -31l-416 -485h365v72q0 13 1 20t9.5 14t24.5 7
q23 0 28.5 -10.5t5.5 -30.5v-92zM371 704q0 -20 -14.5 -35t-36.5 -15q-20 0 -35 15t-15 35t14.5 35t36.5 15q20 0 35 -15t15 -35z" />
    <glyph glyph-name="zdotaccent" unicode="&#x17c;" horiz-adv-x="467" 
d="M422 41q0 -24 -8 -32.5t-32 -8.5h-312q-13 0 -20 1t-14 9.5t-7 24.5q0 13 3 20l289 315h-208v-26q0 -13 -1 -20t-9.5 -14t-24.5 -7q-23 0 -28.5 10.5t-5.5 30.5v46q0 25 8 33t33 8h293q13 0 20 -1t14 -9.5t7 -24.5q0 -12 -3 -20l-289 -315h226v38q0 13 1 20t9.5 14
t24.5 7q23 0 28.5 -10.5t5.5 -30.5v-58zM284 544q0 -20 -14.5 -35t-36.5 -15q-20 0 -35 15t-15 35t14.5 35t36.5 15q20 0 35 -15t15 -35z" />
    <glyph glyph-name="Zcaron" unicode="&#x17d;" horiz-adv-x="642" 
d="M589 41q0 -24 -8 -32.5t-32 -8.5h-450q-13 0 -20 1t-14 9t-7 24q0 18 12 31l416 485h-344v-53q0 -13 -1 -20t-9.5 -14t-24.5 -7q-23 0 -28.5 10.5t-5.5 30.5v73q0 25 8 33t33 8h428q13 0 20 -1t14 -9t7 -24q0 -18 -12 -31l-416 -485h365v72q0 13 1 20t9.5 14t24.5 7
q23 0 28.5 -10.5t5.5 -30.5v-92zM448 688l-118 -43q-10 -3 -19 0l-118 43q-26 10 -17 37t36 19l109 -33l109 33q27 8 36 -19t-18 -37z" />
    <glyph glyph-name="zcaron" unicode="&#x17e;" horiz-adv-x="467" 
d="M422 41q0 -24 -8 -32.5t-32 -8.5h-312q-13 0 -20 1t-14 9.5t-7 24.5q0 13 3 20l289 315h-208v-26q0 -13 -1 -20t-9.5 -14t-24.5 -7q-23 0 -28.5 10.5t-5.5 30.5v46q0 25 8 33t33 8h293q13 0 20 -1t14 -9.5t7 -24.5q0 -12 -3 -20l-289 -315h226v38q0 13 1 20t9.5 14
t24.5 7q23 0 28.5 -10.5t5.5 -30.5v-58zM368 556l-118 -75q-15 -10 -30 0l-120 75q-25 16 -9.5 40.5t40.5 9.5l103 -62l103 62q25 15 40.5 -9.5t-9.5 -40.5z" />
    <glyph glyph-name="longs" unicode="&#x17f;" horiz-adv-x="321" 
d="M362 557q0 -20 -13.5 -32t-29.5 -12t-26.5 10.5t-14 19.5t-3.5 13q-17 0 -28 -1.5t-29 -8t-28 -24t-10 -44.5v-417h78q12 0 18.5 -1t14 -8.5t7.5 -21.5q0 -30 -40 -30h-201q-40 0 -40 30q0 14 7.5 21.5t14 8.5t18.5 1h54v309h-43q-40 0 -40 30q0 31 41 31h42v53
q0 62 46 97.5t110 35.5q95 0 95 -60z" />
    <glyph glyph-name="Ereversed" unicode="&#x18e;" horiz-adv-x="700" 
d="M670 30q0 -30 -40 -30h-544q-24 0 -32 8.5t-8 32.5v89q0 13 1 20t9 14t24 7t24.5 -7t9.5 -14t1 -20v-69h392v225h-199q0 -25 -1.5 -34.5t-9 -16t-24.5 -6.5q-23 0 -28.5 10.5t-5.5 30.5v93q0 13 1 20t9 14t24 7q24 0 29.5 -11t5.5 -46h199v203h-363v-53q0 -13 -1 -20
t-9 -14t-24 -7t-24.5 7t-9.5 14t-1 20v73q0 24 7.5 32.5t32.5 8.5h515q12 0 18.5 -1t14 -8.5t7.5 -21.5q0 -30 -40 -30h-54v-489h54q12 0 18.5 -1t14 -8.5t7.5 -21.5z" />
    <glyph glyph-name="florin" unicode="&#x192;" horiz-adv-x="321" 
d="M362 557q0 -20 -13.5 -32t-29.5 -12t-26.5 10.5t-14 19.5t-3.5 13q-17 0 -28 -1.5t-29 -8t-28 -24t-10 -44.5v-47h81q12 0 18.5 -1t14 -8.5t7.5 -21.5q0 -30 -40 -30h-81v-309h78q12 0 18.5 -1t14 -8.5t7.5 -21.5q0 -30 -40 -30h-201q-40 0 -40 30q0 14 7.5 21.5t14 8.5
t18.5 1h54v309h-43q-40 0 -40 30q0 31 41 31h42v53q0 62 46 97.5t110 35.5q95 0 95 -60z" />
    <glyph glyph-name="Ohorn" unicode="&#x1a0;" horiz-adv-x="816" 
d="M756 305q0 -132 -102 -223q-102 -93 -247 -93q-143 0 -247 93q-48 43 -75 101.5t-27 121.5q0 132 102 224q104 93 247 93q82 0 155 -32q8 8 20 8q13 0 23 16q-32 11 -32 47q0 19 14 34t36 16q27 -1 38.5 -21t11.5 -47q0 -64 -45 -92q18 -14 26 -22q102 -91 102 -224z
M687 318q0 100 -82 172q-83 71 -198 71t-197 -71t-82 -172q0 -111 82 -190q83 -78 197 -78q115 0 198 78q82 79 82 190z" />
    <glyph glyph-name="ohorn" unicode="&#x1a1;" 
d="M485 215q0 -92 -66 -156q-67 -65 -158 -65t-158 65q-65 65 -65 156q0 93 65 158q66 66 158 66q56 0 106 -26q7 5 16 5q13 0 23 16q-32 11 -32 46q0 20 14 34.5t36 15.5q27 0 38.5 -20t11.5 -47q0 -68 -49 -95q60 -65 60 -153zM416 224q0 63 -46 109q-47 45 -109 45
t-109 -45q-45 -47 -45 -109q0 -69 45 -119q46 -49 109 -49q65 0 109 49q46 49 46 119z" />
    <glyph glyph-name="Uhorn" unicode="&#x1af;" horiz-adv-x="758" 
d="M693 644q0 -35 -21.5 -61.5t-55.5 -36.5v-342q0 -91 -71 -153q-68 -62 -167 -62t-167 62q-71 63 -71 153v346h-66q-12 0 -20 8t-8 20v5q0 11 8 19.5t20 8.5h201q12 0 20 -8.5t8 -19.5v-5q0 -12 -8 -20t-20 -8h-66v-346q0 -64 49 -108q49 -46 120 -46t120 46q49 44 49 108
v346h-66q-12 0 -20 8t-8 20v5q0 11 8 19.5t20 8.5h107q8 0 16 -5q10 5 15 10q-26 15 -26 45q0 19 14 34t36 16q26 -1 38 -20.5t12 -46.5z" />
    <glyph glyph-name="uhorn" unicode="&#x1b0;" horiz-adv-x="583" 
d="M565 28q0 -11 -8.5 -19.5t-19.5 -8.5h-108q-11 0 -19.5 8.5t-8.5 19.5v7q-55 -41 -131 -41q-75 0 -115 26q-44 29 -44 90v259h-66q-12 0 -20.5 8.5t-8.5 19.5v5q0 12 8.5 20t20.5 8h107q11 0 19.5 -8t8.5 -20v-292q0 -27 17 -39q24 -15 79 -15q53 0 89 26t36 64v223h-66
q-11 0 -19.5 8.5t-8.5 19.5v5q0 12 8.5 20t19.5 8h107q9 0 17 -5q8 3 20 11q-26 15 -26 44q0 20 14 35t36 15q26 0 38 -20t12 -46q0 -36 -23 -62.5t-59 -36.5v-304h66q11 0 19.5 -8t8.5 -20v-5z" />
    <glyph glyph-name="Acaron" unicode="&#x1cd;" horiz-adv-x="758" 
d="M716 30q0 -30 -40 -30h-159q-41 0 -41 31q0 30 41 30h40l-40 111h-277l-40 -111h40q41 0 41 -31q0 -30 -41 -30h-159q-12 0 -18.5 1t-14 8.5t-7.5 21.5q0 30 40 30h46l189 529q6 15 16 23t17 9t20 1h19q14 0 21 -1t16.5 -9t15.5 -24l189 -528h46q12 0 18.5 -1t14 -8.5
t7.5 -21.5zM495 233l-117 326l-116 -326h233zM507 688l-118 -43q-9 -3 -19 0l-118 43q-26 10 -17 37t36 19l109 -33l109 33q27 8 36 -19t-18 -37z" />
    <glyph glyph-name="acaron" unicode="&#x1ce;" horiz-adv-x="510" 
d="M499 31q0 -15 -7.5 -22t-16 -8t-25.5 -1q-83 0 -105 32q-55 -38 -142 -38q-70 0 -115 39.5t-45 94.5q0 68 77.5 107.5t213.5 41.5q0 51 -33 76.5t-90 25.5q-25 0 -37 -1t-14.5 -3t-2.5 -8q-1 -24 -14.5 -35t-29.5 -11q-19 0 -32 12t-13 34q0 73 142 73q96 0 144.5 -46.5
t48.5 -108.5v-216q18 -8 56 -8q40 0 40 -30zM334 134v84q-111 -4 -166.5 -29t-55.5 -61q0 -30 27.5 -51.5t71.5 -21.5q49 0 84 16q18 8 27 20t10.5 20t1.5 23zM390 556l-118 -75q-15 -10 -30 0l-120 75q-25 16 -9.5 40.5t40.5 9.5l103 -62l103 62q25 15 40.5 -9.5
t-9.5 -40.5z" />
    <glyph glyph-name="Icaron" unicode="&#x1cf;" horiz-adv-x="350" 
d="M308 30q0 -30 -40 -30h-187q-40 0 -40 30q0 14 7.5 21.5t14 8.5t18.5 1h59v489h-59q-40 0 -40 30q0 14 7.5 21.5t14 8.5t18.5 1h187q12 0 18.5 -1t14 -8.5t7.5 -21.5q0 -30 -40 -30h-59v-489h59q12 0 18.5 -1t14 -8.5t7.5 -21.5zM303 688l-118 -43q-9 -3 -19 0l-118 43
q-26 10 -17 37t36 19l109 -33l109 33q27 8 36 -19t-18 -37z" />
    <glyph glyph-name="icaron" unicode="&#x1d0;" horiz-adv-x="292" 
d="M265 30q0 -30 -40 -30h-168q-40 0 -40 30q0 14 7.5 21.5t14 8.5t18.5 1h54v309h-49q-41 0 -41 31q0 30 41 30h78q25 0 32.5 -8.5t7.5 -32.5v-329h44q41 0 41 -31zM280 556l-118 -75q-15 -10 -30 0l-120 75q-25 16 -9.5 40.5t40.5 9.5l103 -62l103 62q25 15 40.5 -9.5
t-9.5 -40.5z" />
    <glyph glyph-name="Ocaron" unicode="&#x1d1;" horiz-adv-x="817" 
d="M758 305q0 -128 -101.5 -222t-248.5 -94q-146 0 -248 93t-102 224q0 128 101.5 222t248.5 94q146 0 248 -93t102 -224zM689 317q0 100 -82 172t-199 72t-199 -72t-82 -172q0 -109 82 -188t199 -79t199 79t82 188zM536 688l-118 -43q-10 -3 -19 0l-118 43q-26 10 -17 37
t36 19l109 -33l109 33q27 8 36 -19t-18 -37z" />
    <glyph glyph-name="ocaron" unicode="&#x1d2;" 
d="M486 216q0 -93 -65.5 -157.5t-158.5 -64.5t-158.5 64.5t-65.5 157.5q0 92 65.5 158t158.5 66t158.5 -66t65.5 -158zM417 223q0 66 -46 111t-109 45t-109 -45t-46 -111q0 -69 45 -118.5t110 -49.5q64 0 109.5 49.5t45.5 118.5zM397 556l-118 -75q-15 -10 -30 0l-120 75
q-25 16 -9.5 40.5t40.5 9.5l103 -62l103 62q25 15 40.5 -9.5t-9.5 -40.5z" />
    <glyph glyph-name="Ucaron" unicode="&#x1d3;" horiz-adv-x="758" 
d="M711 580q0 -30 -40 -30h-54v-344q0 -92 -70 -154.5t-169 -62.5q-97 0 -167.5 62t-70.5 155v344h-54q-40 0 -40 30q0 14 7.5 21.5t14 8.5t18.5 1h177q12 0 18.5 -1t14 -8.5t7.5 -21.5q0 -30 -40 -30h-54v-338q0 -78 52.5 -120t117.5 -42q63 0 116 42t53 120v338h-54
q-40 0 -40 30q0 14 7.5 21.5t14 8.5t18.5 1h177q12 0 18.5 -1t14 -8.5t7.5 -21.5zM530 688l-118 -43q-10 -3 -19 0l-118 43q-26 10 -17 37t36 19l109 -33l109 33q27 8 36 -19t-18 -37z" />
    <glyph glyph-name="ucaron" unicode="&#x1d4;" horiz-adv-x="583" 
d="M565 30q0 -30 -40 -30h-83q-13 0 -19.5 1t-13.5 9.5t-7 24.5q-53 -41 -137 -41q-154 0 -154 121v255h-54q-40 0 -40 30q0 14 7.5 21.5t14 8.5t18.5 1h83q25 0 32.5 -8.5t7.5 -32.5v-269q0 -16 1.5 -24t9.5 -19.5t28 -17t52 -5.5q18 0 36 3t41.5 12t38.5 31.5t15 55.5v213
h-54q-12 0 -18.5 1t-14 8.5t-7.5 21.5q0 30 40 30h83q25 0 32.5 -8.5t7.5 -32.5v-329h54q12 0 18.5 -1t14 -8.5t7.5 -21.5zM426 556l-118 -75q-15 -10 -30 0l-120 75q-25 16 -9.5 40.5t40.5 9.5l103 -62l103 62q25 15 40.5 -9.5t-9.5 -40.5z" />
    <glyph glyph-name="Udieresisacute" unicode="&#x1d7;" horiz-adv-x="758" 
d="M711 580q0 -30 -40 -30h-54v-344q0 -92 -70 -154.5t-169 -62.5q-97 0 -167.5 62t-70.5 155v344h-54q-40 0 -40 30q0 14 7.5 21.5t14 8.5t18.5 1h177q12 0 18.5 -1t14 -8.5t7.5 -21.5q0 -30 -40 -30h-54v-338q0 -78 52.5 -120t117.5 -42q63 0 116 42t53 120v338h-54
q-40 0 -40 30q0 14 7.5 21.5t14 8.5t18.5 1h177q12 0 18.5 -1t14 -8.5t7.5 -21.5zM350 688q0 -18 -13 -31.5t-33 -13.5q-18 0 -31.5 13t-13.5 32q0 17 13 31t33 14q19 0 32 -13.5t13 -31.5zM547 688q0 -18 -13 -31.5t-33 -13.5q-18 0 -31.5 13t-13.5 32q0 17 13 31t33 14
q19 0 32 -13.5t13 -31.5zM509 873q0 -22 -28 -35l-133 -59q-10 -5 -18 -5q-17 0 -25 14.5t-8 25.5q0 12 6 17.5t19 11.5l133 60l19 5q15 0 25 -10t10 -25z" />
    <glyph glyph-name="udieresisacute" unicode="&#x1d8;" horiz-adv-x="583" 
d="M565 30q0 -30 -40 -30h-83q-13 0 -19.5 1t-13.5 9.5t-7 24.5q-53 -41 -137 -41q-154 0 -154 121v255h-54q-40 0 -40 30q0 14 7.5 21.5t14 8.5t18.5 1h83q25 0 32.5 -8.5t7.5 -32.5v-269q0 -16 1.5 -24t9.5 -19.5t28 -17t52 -5.5q18 0 36 3t41.5 12t38.5 31.5t15 55.5v213
h-54q-12 0 -18.5 1t-14 8.5t-7.5 21.5q0 30 40 30h83q25 0 32.5 -8.5t7.5 -32.5v-329h54q12 0 18.5 -1t14 -8.5t7.5 -21.5zM254 544q0 -18 -13 -31.5t-33 -13.5q-18 0 -31.5 13t-13.5 32q0 17 13 31t33 14q19 0 32 -13.5t13 -31.5zM421 544q0 -18 -13 -31.5t-33 -13.5
q-18 0 -31.5 13t-13.5 32q0 17 13 31t33 14q19 0 32 -13.5t13 -31.5zM398 729q0 -22 -28 -35l-133 -59q-10 -5 -18 -5q-17 0 -25 14.5t-8 25.5q0 12 6 17.5t19 11.5l133 60l19 5q15 0 25 -10t10 -25z" />
    <glyph glyph-name="Udieresiscaron" unicode="&#x1d9;" horiz-adv-x="758" 
d="M711 580q0 -30 -40 -30h-54v-344q0 -92 -70 -154.5t-169 -62.5q-97 0 -167.5 62t-70.5 155v344h-54q-40 0 -40 30q0 14 7.5 21.5t14 8.5t18.5 1h177q12 0 18.5 -1t14 -8.5t7.5 -21.5q0 -30 -40 -30h-54v-338q0 -78 52.5 -120t117.5 -42q63 0 116 42t53 120v338h-54
q-40 0 -40 30q0 14 7.5 21.5t14 8.5t18.5 1h177q12 0 18.5 -1t14 -8.5t7.5 -21.5zM350 688q0 -18 -13 -31.5t-33 -13.5q-18 0 -31.5 13t-13.5 32q0 17 13 31t33 14q19 0 32 -13.5t13 -31.5zM547 688q0 -18 -13 -31.5t-33 -13.5q-18 0 -31.5 13t-13.5 32q0 17 13 31t33 14
q19 0 32 -13.5t13 -31.5zM530 809l-118 -43q-10 -3 -19 0l-118 43q-26 10 -17 37t36 19l109 -33l109 33q27 8 36 -19t-18 -37z" />
    <glyph glyph-name="udieresiscaron" unicode="&#x1da;" horiz-adv-x="583" 
d="M565 30q0 -30 -40 -30h-83q-13 0 -19.5 1t-13.5 9.5t-7 24.5q-53 -41 -137 -41q-154 0 -154 121v255h-54q-40 0 -40 30q0 14 7.5 21.5t14 8.5t18.5 1h83q25 0 32.5 -8.5t7.5 -32.5v-269q0 -16 1.5 -24t9.5 -19.5t28 -17t52 -5.5q18 0 36 3t41.5 12t38.5 31.5t15 55.5v213
h-54q-12 0 -18.5 1t-14 8.5t-7.5 21.5q0 30 40 30h83q25 0 32.5 -8.5t7.5 -32.5v-329h54q12 0 18.5 -1t14 -8.5t7.5 -21.5zM254 544q0 -18 -13 -31.5t-33 -13.5q-18 0 -31.5 13t-13.5 32q0 17 13 31t33 14q19 0 32 -13.5t13 -31.5zM421 544q0 -18 -13 -31.5t-33 -13.5
q-18 0 -31.5 13t-13.5 32q0 17 13 31t33 14q19 0 32 -13.5t13 -31.5zM419 665l-118 -43q-9 -3 -19 0l-118 43q-26 10 -17 37t36 19l109 -33l109 33q27 8 36 -19t-18 -37z" />
    <glyph glyph-name="Udieresisgrave" unicode="&#x1db;" horiz-adv-x="758" 
d="M711 580q0 -30 -40 -30h-54v-344q0 -92 -70 -154.5t-169 -62.5q-97 0 -167.5 62t-70.5 155v344h-54q-40 0 -40 30q0 14 7.5 21.5t14 8.5t18.5 1h177q12 0 18.5 -1t14 -8.5t7.5 -21.5q0 -30 -40 -30h-54v-338q0 -78 52.5 -120t117.5 -42q63 0 116 42t53 120v338h-54
q-40 0 -40 30q0 14 7.5 21.5t14 8.5t18.5 1h177q12 0 18.5 -1t14 -8.5t7.5 -21.5zM350 688q0 -18 -13 -31.5t-33 -13.5q-18 0 -31.5 13t-13.5 32q0 17 13 31t33 14q19 0 32 -13.5t13 -31.5zM547 688q0 -18 -13 -31.5t-33 -13.5q-18 0 -31.5 13t-13.5 32q0 17 13 31t33 14
q19 0 32 -13.5t13 -31.5zM508 814q0 -11 -8 -25.5t-25 -14.5q-8 0 -18 5l-133 59q-28 13 -28 35q0 15 10 25t25 10q8 0 19 -5l133 -60q9 -4 13 -6.5t8 -8.5t4 -14z" />
    <glyph glyph-name="udieresisgrave" unicode="&#x1dc;" horiz-adv-x="583" 
d="M565 30q0 -30 -40 -30h-83q-13 0 -19.5 1t-13.5 9.5t-7 24.5q-53 -41 -137 -41q-154 0 -154 121v255h-54q-40 0 -40 30q0 14 7.5 21.5t14 8.5t18.5 1h83q25 0 32.5 -8.5t7.5 -32.5v-269q0 -16 1.5 -24t9.5 -19.5t28 -17t52 -5.5q18 0 36 3t41.5 12t38.5 31.5t15 55.5v213
h-54q-12 0 -18.5 1t-14 8.5t-7.5 21.5q0 30 40 30h83q25 0 32.5 -8.5t7.5 -32.5v-329h54q12 0 18.5 -1t14 -8.5t7.5 -21.5zM254 544q0 -18 -13 -31.5t-33 -13.5q-18 0 -31.5 13t-13.5 32q0 17 13 31t33 14q19 0 32 -13.5t13 -31.5zM421 544q0 -18 -13 -31.5t-33 -13.5
q-18 0 -31.5 13t-13.5 32q0 17 13 31t33 14q19 0 32 -13.5t13 -31.5zM397 670q0 -11 -8 -25.5t-25 -14.5q-8 0 -18 5l-133 59q-28 13 -28 35q0 15 10 25t25 10q8 0 19 -5l133 -60q9 -4 13 -6.5t8 -8.5t4 -14z" />
    <glyph glyph-name="eturned" unicode="&#x1dd;" horiz-adv-x="467" 
d="M437 216q0 -91 -61 -156.5t-149 -65.5q-89 0 -139 59.5t-50 152.5q0 13 3 21t9.5 11.5t12 4t15.5 0.5h288q-10 60 -56 98t-104 38q-75 0 -100 -60q-5 -14 -12 -18t-21 -4q-35 0 -35 28q0 31 45.5 73t128.5 42q94 0 159.5 -65.5t65.5 -158.5zM365 183h-256q5 -70 39 -99
t79 -29q50 0 89 36t49 92z" />
    <glyph glyph-name="Gcaron" unicode="&#x1e6;" horiz-adv-x="817" 
d="M772 239q0 -30 -41 -30h-32v-168q0 -13 -1 -20t-9 -14t-24 -7t-24.5 7t-9.5 14t-1 20v36q-88 -88 -224 -88q-144 0 -246 93t-102 224q0 128 101 222t249 94q133 0 212 -62q13 28 18 37q6 14 12 19.5t19 5.5q30 0 30 -41v-139q0 -13 -1 -20t-9.5 -14t-24.5 -7
q-28 0 -33 23q-5 21 -9.5 33t-21.5 33t-45 37q-58 34 -140 34q-121 0 -204.5 -75.5t-83.5 -180.5t83.5 -180t200.5 -75q81 0 141.5 44.5t74.5 114.5h-88q-12 0 -18.5 1t-14 8.5t-7.5 21.5q0 30 40 30h192q41 0 41 -31zM536 688l-118 -43q-10 -3 -19 0l-118 43q-26 10 -17 37
t36 19l109 -33l109 33q27 8 36 -19t-18 -37z" />
    <glyph glyph-name="gcaron" unicode="&#x1e7;" 
d="M509 388q0 -20 -12.5 -30.5t-27.5 -10.5q-11 0 -23 8t-16 26q-33 -3 -58 -17q26 -43 26 -87q0 -67 -48 -114t-117 -47q-53 0 -90 25q-6 -15 -6 -28q1 -22 12 -36q12 -14 33 -14q8 -2 29 -2h70q91 0 145 -29q35 -19 52 -50.5t17 -63.5q0 -63 -68 -105t-165 -42t-165 41.5
t-68 105.5q0 79 74 124q-23 31 -23 72q0 39 20 68q-32 41 -32 95q0 65 48 112.5t117 47.5q53 0 97 -30q47 35 106 35q37 0 55 -16.5t18 -37.5zM329 277q0 40 -28 70t-68 30q-39 0 -67.5 -29.5t-28.5 -71.5q0 -40 28 -70t68 -30q39 0 67.5 29.5t28.5 71.5zM437 -82
q0 30 -17 49t-53 26.5t-61 9t-71 1.5q-57 0 -73 -2t-34 -14q-41 -26 -41 -70q0 -34 51 -60.5t124 -26.5t124 26.5t51 60.5zM361 556l-118 -75q-15 -10 -30 0l-120 75q-25 16 -9.5 40.5t40.5 9.5l103 -62l103 62q25 15 40.5 -9.5t-9.5 -40.5z" />
    <glyph glyph-name="Oogonek" unicode="&#x1ea;" horiz-adv-x="817" 
d="M758 305q0 -120 -91 -211.5t-226 -103.5q-50 -37 -50 -100q0 -17 14.5 -28t29.5 -11q14 0 29 11.5t25 25.5q5 5 17.5 7t19.5 -2q6 -5 8 -17.5t-3 -19.5q-43 -59 -100 -59q-44 0 -71.5 30t-27.5 65q0 51 51 98q-138 8 -231.5 99.5t-93.5 216.5q0 128 101.5 222t248.5 94
q146 0 248 -93t102 -224zM689 317q0 100 -82 172t-199 72t-199 -72t-82 -172q0 -109 82 -188t199 -79t199 79t82 188z" />
    <glyph glyph-name="oogonek" unicode="&#x1eb;" 
d="M486 216q0 -85 -57 -147.5t-140 -72.5q-58 -37 -58 -106q0 -17 14.5 -28t29.5 -11q14 0 29 11.5t25 25.5q5 5 17.5 7t19.5 -2q6 -5 8 -17.5t-3 -19.5q-43 -59 -100 -59q-44 0 -71.5 30t-27.5 65q0 56 59 104q-82 11 -137.5 73.5t-55.5 146.5q0 92 65.5 158t158.5 66
t158.5 -66t65.5 -158zM417 223q0 66 -46 111t-109 45t-109 -45t-46 -111q0 -69 45 -118.5t110 -49.5q64 0 109.5 49.5t45.5 118.5z" />
    <glyph glyph-name="jcaron" unicode="&#x1f0;" horiz-adv-x="321" 
d="M209 -47q0 -41 -11.5 -79.5t-44.5 -70t-82 -31.5q-54 0 -85.5 20.5t-31.5 55.5q0 21 13.5 33.5t31.5 12.5q44 0 44 -53l1 -3q4 -5 30 -5q66 0 66 124v413h-63q-41 0 -41 31q0 30 41 30h92q25 0 32.5 -8.5t7.5 -32.5v-437zM294 556l-118 -75q-15 -10 -30 0l-120 75
q-25 16 -9.5 40.5t40.5 9.5l103 -62l103 62q25 15 40.5 -9.5t-9.5 -40.5z" />
    <glyph glyph-name="Gacute" unicode="&#x1f4;" horiz-adv-x="817" 
d="M772 239q0 -30 -41 -30h-32v-168q0 -13 -1 -20t-9 -14t-24 -7t-24.5 7t-9.5 14t-1 20v36q-88 -88 -224 -88q-144 0 -246 93t-102 224q0 128 101 222t249 94q133 0 212 -62q13 28 18 37q6 14 12 19.5t19 5.5q30 0 30 -41v-139q0 -13 -1 -20t-9.5 -14t-24.5 -7
q-28 0 -33 23q-5 21 -9.5 33t-21.5 33t-45 37q-58 34 -140 34q-121 0 -204.5 -75.5t-83.5 -180.5t83.5 -180t200.5 -75q81 0 141.5 44.5t74.5 114.5h-88q-12 0 -18.5 1t-14 8.5t-7.5 21.5q0 30 40 30h192q41 0 41 -31zM515 752q0 -22 -28 -35l-133 -59q-10 -5 -18 -5
q-17 0 -25 14.5t-8 25.5q0 12 6 17.5t19 11.5l133 60l19 5q15 0 25 -10t10 -25z" />
    <glyph glyph-name="gacute" unicode="&#x1f5;" 
d="M509 388q0 -20 -12.5 -30.5t-27.5 -10.5q-11 0 -23 8t-16 26q-33 -3 -58 -17q26 -43 26 -87q0 -67 -48 -114t-117 -47q-53 0 -90 25q-6 -15 -6 -28q1 -22 12 -36q12 -14 33 -14q8 -2 29 -2h70q91 0 145 -29q35 -19 52 -50.5t17 -63.5q0 -63 -68 -105t-165 -42t-165 41.5
t-68 105.5q0 79 74 124q-23 31 -23 72q0 39 20 68q-32 41 -32 95q0 65 48 112.5t117 47.5q53 0 97 -30q47 35 106 35q37 0 55 -16.5t18 -37.5zM329 277q0 40 -28 70t-68 30q-39 0 -67.5 -29.5t-28.5 -71.5q0 -40 28 -70t68 -30q39 0 67.5 29.5t28.5 71.5zM437 -82
q0 30 -17 49t-53 26.5t-61 9t-71 1.5q-57 0 -73 -2t-34 -14q-41 -26 -41 -70q0 -34 51 -60.5t124 -26.5t124 26.5t51 60.5zM333 576q0 -22 -28 -35l-133 -59q-10 -5 -18 -5q-17 0 -25 14.5t-8 25.5q0 12 6 17.5t19 11.5l133 60l19 5q15 0 25 -10t10 -25z" />
    <glyph glyph-name="Aringacute" unicode="&#x1fa;" horiz-adv-x="758" 
d="M716 30q0 -30 -40 -30h-159q-41 0 -41 31q0 30 41 30h40l-40 111h-277l-40 -111h40q41 0 41 -31q0 -30 -41 -30h-159q-12 0 -18.5 1t-14 8.5t-7.5 21.5q0 30 40 30h46l189 529q6 15 16 23t17 9t20 1h19q14 0 21 -1t16.5 -9t15.5 -24l189 -528h46q12 0 18.5 -1t14 -8.5
t7.5 -21.5zM495 233l-117 326l-116 -326h233zM430 689q0 12 -15 20.5t-36 8.5q-19 0 -35 -8t-16 -21q0 -12 15 -20.5t36 -8.5q19 0 35 8t16 21zM496 689q0 -27 -33.5 -46.5t-84.5 -19.5q-48 0 -82 19.5t-34 46.5t33.5 46.5t84.5 19.5q48 0 82 -19.5t34 -46.5zM485 874
q0 -22 -28 -35l-133 -59q-10 -5 -18 -5q-17 0 -25 14.5t-8 25.5q0 12 6 17.5t19 11.5l133 60l19 5q15 0 25 -10t10 -25z" />
    <glyph glyph-name="aringacute" unicode="&#x1fb;" horiz-adv-x="510" 
d="M499 31q0 -15 -7.5 -22t-16 -8t-25.5 -1q-83 0 -105 32q-55 -38 -142 -38q-70 0 -115 39.5t-45 94.5q0 68 77.5 107.5t213.5 41.5q0 51 -33 76.5t-90 25.5q-25 0 -37 -1t-14.5 -3t-2.5 -8q-1 -24 -14.5 -35t-29.5 -11q-19 0 -32 12t-13 34q0 73 142 73q96 0 144.5 -46.5
t48.5 -108.5v-216q18 -8 56 -8q40 0 40 -30zM334 134v84q-111 -4 -166.5 -29t-55.5 -61q0 -30 27.5 -51.5t71.5 -21.5q49 0 84 16q18 8 27 20t10.5 20t1.5 23zM306 558q0 12 -15 20.5t-36 8.5q-19 0 -35 -8t-16 -21q0 -12 15 -20.5t36 -8.5q19 0 35 8t16 21zM372 558
q0 -27 -33.5 -46.5t-84.5 -19.5q-48 0 -82 19.5t-34 46.5t33.5 46.5t84.5 19.5q48 0 82 -19.5t34 -46.5zM361 743q0 -22 -28 -35l-133 -59q-10 -5 -18 -5q-17 0 -25 14.5t-8 25.5q0 12 6 17.5t19 11.5l133 60l19 5q15 0 25 -10t10 -25z" />
    <glyph glyph-name="AEacute" unicode="&#x1fc;" horiz-adv-x="933" 
d="M903 41q0 -24 -8 -32.5t-32 -8.5h-424q-41 0 -41 30q0 31 41 31h30v122h-209l-53 -122h37q12 0 18.5 -1t14 -8.5t7.5 -21.5q0 -30 -40 -30h-159q-41 0 -41 31q0 30 41 30h47l214 489h-17q-41 0 -41 30q0 31 41 31h505q25 0 32.5 -8.5t7.5 -32.5v-73q0 -13 -1 -20
t-9.5 -14t-24.5 -7q-23 0 -28.5 10.5t-5.5 30.5v53h-267v-203h147q0 25 1.5 34.5t9 16t24.5 6.5q23 0 28.5 -10.5t5.5 -30.5v-93q0 -13 -1 -20t-9 -14t-24 -7q-24 0 -29.5 11t-5.5 46h-147v-225h296v69q0 13 1 20t9.5 14t24.5 7q23 0 28.5 -10.5t5.5 -30.5v-89zM469 244v306
h-47l-135 -306h182zM573 752q0 -22 -28 -35l-133 -59q-10 -5 -18 -5q-17 0 -25 14.5t-8 25.5q0 12 6 17.5t19 11.5l133 60l19 5q15 0 25 -10t10 -25z" />
    <glyph glyph-name="aeacute" unicode="&#x1fd;" horiz-adv-x="758" 
d="M728 109q0 -30 -43 -72.5t-119 -42.5q-102 0 -170 79q-22 -45 -76 -62t-107 -17q-71 0 -115.5 37t-44.5 87q0 122 291 131v30q0 48 -32 74t-91 26q-23 0 -38 -1q-11 -1 -13.5 -3t-2.5 -8q-1 -24 -14.5 -35t-29.5 -11q-19 0 -32 12t-13 34q0 73 142 73q122 0 172 -80
q66 80 159 80q83 0 130 -59t47 -152q0 -18 -6 -26.5t-13 -10t-21 -1.5h-273q9 -60 55 -98t102 -38q64 0 88 60q8 22 33 22q35 0 35 -28zM658 251q-4 55 -30.5 91.5t-76.5 36.5q-46 0 -85 -35.5t-50 -92.5h242zM349 127q0 2 -4 62q-90 -4 -134 -14q-89 -24 -89 -56
q0 -27 28 -45.5t72 -18.5q48 0 84 15q43 17 43 57zM486 576q0 -22 -28 -35l-133 -59q-10 -5 -18 -5q-17 0 -25 14.5t-8 25.5q0 12 6 17.5t19 11.5l133 60l19 5q15 0 25 -10t10 -25z" />
    <glyph glyph-name="Oslashacute" unicode="&#x1fe;" horiz-adv-x="817" 
d="M758 305q0 -128 -101.5 -222t-248.5 -94q-93 0 -164 37l-68 -94q-12 -17 -27 -17q-12 0 -22 8.5t-10 22.5q0 10 15 30l59 81q-70 51 -101.5 117t-31.5 132q0 128 101.5 222t248.5 94q17 0 33.5 -1.5t30.5 -4t27.5 -6t24 -6.5t20 -6.5t15 -6t9.5 -4.5l5 -2l65 92
q13 19 29 19q12 0 22 -8.5t10 -22.5q0 -10 -11 -25l-63 -86q70 -51 101.5 -117t31.5 -132zM536 536q-67 25 -128 25q-123 0 -208.5 -75.5t-85.5 -180.5q0 -62 31.5 -114.5t79.5 -85.5zM702 306q0 63 -32.5 116t-79.5 84l-310 -431q67 -25 128 -25q123 0 208.5 75.5
t85.5 180.5zM515 752q0 -22 -28 -35l-133 -59q-10 -5 -18 -5q-17 0 -25 14.5t-8 25.5q0 12 6 17.5t19 11.5l133 60l19 5q15 0 25 -10t10 -25z" />
    <glyph glyph-name="oslashacute" unicode="&#x1ff;" 
d="M481 541q0 -9 -7 -21l-75 -130q80 -73 80 -174q0 -92 -64 -157t-153 -65q-44 0 -83 17l-77 -132q-10 -19 -27 -19q-11 0 -21.5 8t-10.5 22q0 9 17 38l66 114q-81 70 -81 174q0 92 63.5 158t153.5 66q41 0 85 -18l75 130q11 19 27 19q11 0 21.5 -8t10.5 -22zM316 370
q-26 9 -54 9q-66 0 -113.5 -48t-47.5 -115q0 -71 55 -122zM423 216q0 74 -55 122l-158 -275q25 -8 52 -8q66 0 113.5 47t47.5 114zM364 576q0 -22 -28 -35l-133 -59q-10 -5 -18 -5q-17 0 -25 14.5t-8 25.5q0 12 6 17.5t19 11.5l133 60l19 5q15 0 25 -10t10 -25z" />
    <glyph glyph-name="Adblgrave" unicode="&#x200;" horiz-adv-x="758" 
d="M716 30q0 -30 -40 -30h-159q-41 0 -41 31q0 30 41 30h40l-40 111h-277l-40 -111h40q41 0 41 -31q0 -30 -41 -30h-159q-12 0 -18.5 1t-14 8.5t-7.5 21.5q0 30 40 30h46l189 529q6 15 16 23t17 9t20 1h19q14 0 21 -1t16.5 -9t15.5 -24l189 -528h46q12 0 18.5 -1t14 -8.5
t7.5 -21.5zM495 233l-117 326l-116 -326h233zM514 691q0 -12 -11.5 -25t-24.5 -13q-10 0 -23 11l-70 56q-19 15 -19 31q0 15 10 25t25 10q11 0 26 -12l70 -56q17 -14 17 -27zM309 691q0 -12 -11.5 -25t-24.5 -13q-10 0 -23 11l-70 56q-19 15 -19 31q0 15 10 25t25 10
q11 0 26 -12l70 -56q17 -14 17 -27z" />
    <glyph glyph-name="adblgrave" unicode="&#x201;" horiz-adv-x="510" 
d="M499 31q0 -15 -7.5 -22t-16 -8t-25.5 -1q-83 0 -105 32q-55 -38 -142 -38q-70 0 -115 39.5t-45 94.5q0 68 77.5 107.5t213.5 41.5q0 51 -33 76.5t-90 25.5q-25 0 -37 -1t-14.5 -3t-2.5 -8q-1 -24 -14.5 -35t-29.5 -11q-19 0 -32 12t-13 34q0 73 142 73q96 0 144.5 -46.5
t48.5 -108.5v-216q18 -8 56 -8q40 0 40 -30zM334 134v84q-111 -4 -166.5 -29t-55.5 -61q0 -30 27.5 -51.5t71.5 -21.5q49 0 84 16q18 8 27 20t10.5 20t1.5 23zM419 516q0 -12 -11.5 -25t-24.5 -13q-10 0 -23 11l-70 56q-19 15 -19 31q0 15 10 25t25 10q11 0 26 -12l70 -56
q17 -14 17 -27zM214 516q0 -12 -11.5 -25t-24.5 -13q-10 0 -23 11l-70 56q-19 15 -19 31q0 15 10 25t25 10q11 0 26 -12l70 -56q17 -14 17 -27z" />
    <glyph glyph-name="Edblgrave" unicode="&#x204;" horiz-adv-x="700" 
d="M670 41q0 -24 -8 -32.5t-32 -8.5h-544q-40 0 -40 30q0 14 7.5 21.5t14 8.5t18.5 1h54v489h-54q-40 0 -40 30q0 14 7.5 21.5t14 8.5t18.5 1h515q25 0 32.5 -8.5t7.5 -32.5v-73q0 -13 -1 -20t-9.5 -14t-24.5 -7q-23 0 -28.5 10.5t-5.5 30.5v53h-363v-203h199q0 25 1.5 34.5
t9 16t24.5 6.5q23 0 28.5 -10.5t5.5 -30.5v-93q0 -13 -1 -20t-9 -14t-24 -7q-24 0 -29.5 11t-5.5 46h-199v-225h392v69q0 13 1 20t9.5 14t24.5 7q23 0 28.5 -10.5t5.5 -30.5v-89zM514 691q0 -12 -11.5 -25t-24.5 -13q-10 0 -23 11l-70 56q-19 15 -19 31q0 15 10 25t25 10
q11 0 26 -12l70 -56q17 -14 17 -27zM309 691q0 -12 -11.5 -25t-24.5 -13q-10 0 -23 11l-70 56q-19 15 -19 31q0 15 10 25t25 10q11 0 26 -12l70 -56q17 -14 17 -27z" />
    <glyph glyph-name="edblgrave" unicode="&#x205;" horiz-adv-x="467" 
d="M437 109q0 -31 -45.5 -73t-128.5 -42q-94 0 -159.5 65.5t-65.5 158.5q0 91 61 156.5t149 65.5q89 0 139 -59.5t50 -152.5q0 -13 -3 -21t-9.5 -11.5t-12 -4t-15.5 -0.5h-288q10 -60 56 -98t104 -38q75 0 100 60q5 14 12 18t21 4q35 0 35 -28zM366 251q-5 70 -39 99t-79 29
q-50 0 -89 -36t-49 -92h256zM397 516q0 -12 -11.5 -25t-24.5 -13q-10 0 -23 11l-70 56q-19 15 -19 31q0 15 10 25t25 10q11 0 26 -12l70 -56q17 -14 17 -27zM192 516q0 -12 -11.5 -25t-24.5 -13q-10 0 -23 11l-70 56q-19 15 -19 31q0 15 10 25t25 10q11 0 26 -12l70 -56
q17 -14 17 -27z" />
    <glyph glyph-name="Idblgrave" unicode="&#x208;" horiz-adv-x="350" 
d="M308 30q0 -30 -40 -30h-187q-40 0 -40 30q0 14 7.5 21.5t14 8.5t18.5 1h59v489h-59q-40 0 -40 30q0 14 7.5 21.5t14 8.5t18.5 1h187q12 0 18.5 -1t14 -8.5t7.5 -21.5q0 -30 -40 -30h-59v-489h59q12 0 18.5 -1t14 -8.5t7.5 -21.5zM339 691q0 -12 -11.5 -25t-24.5 -13
q-10 0 -23 11l-70 56q-19 15 -19 31q0 15 10 25t25 10q11 0 26 -12l70 -56q17 -14 17 -27zM134 691q0 -12 -11.5 -25t-24.5 -13q-10 0 -23 11l-70 56q-19 15 -19 31q0 15 10 25t25 10q11 0 26 -12l70 -56q17 -14 17 -27z" />
    <glyph glyph-name="idblgrave" unicode="&#x209;" horiz-adv-x="292" 
d="M265 30q0 -30 -40 -30h-168q-40 0 -40 30q0 14 7.5 21.5t14 8.5t18.5 1h54v309h-49q-41 0 -41 31q0 30 41 30h78q25 0 32.5 -8.5t7.5 -32.5v-329h44q41 0 41 -31zM309 516q0 -12 -11.5 -25t-24.5 -13q-10 0 -23 11l-70 56q-19 15 -19 31q0 15 10 25t25 10q11 0 26 -12
l70 -56q17 -14 17 -27zM104 516q0 -12 -11.5 -25t-24.5 -13q-10 0 -23 11l-70 56q-19 15 -19 31q0 15 10 25t25 10q11 0 26 -12l70 -56q17 -14 17 -27z" />
    <glyph glyph-name="Odblgrave" unicode="&#x20c;" horiz-adv-x="817" 
d="M758 305q0 -128 -101.5 -222t-248.5 -94q-146 0 -248 93t-102 224q0 128 101.5 222t248.5 94q146 0 248 -93t102 -224zM689 317q0 100 -82 172t-199 72t-199 -72t-82 -172q0 -109 82 -188t199 -79t199 79t82 188zM572 691q0 -12 -11.5 -25t-24.5 -13q-10 0 -23 11l-70 56
q-19 15 -19 31q0 15 10 25t25 10q11 0 26 -12l70 -56q17 -14 17 -27zM367 691q0 -12 -11.5 -25t-24.5 -13q-10 0 -23 11l-70 56q-19 15 -19 31q0 15 10 25t25 10q11 0 26 -12l70 -56q17 -14 17 -27z" />
    <glyph glyph-name="odblgrave" unicode="&#x20d;" 
d="M486 216q0 -93 -65.5 -157.5t-158.5 -64.5t-158.5 64.5t-65.5 157.5q0 92 65.5 158t158.5 66t158.5 -66t65.5 -158zM417 223q0 66 -46 111t-109 45t-109 -45t-46 -111q0 -69 45 -118.5t110 -49.5q64 0 109.5 49.5t45.5 118.5zM426 516q0 -12 -11.5 -25t-24.5 -13
q-10 0 -23 11l-70 56q-19 15 -19 31q0 15 10 25t25 10q11 0 26 -12l70 -56q17 -14 17 -27zM221 516q0 -12 -11.5 -25t-24.5 -13q-10 0 -23 11l-70 56q-19 15 -19 31q0 15 10 25t25 10q11 0 26 -12l70 -56q17 -14 17 -27z" />
    <glyph glyph-name="Rdblgrave" unicode="&#x210;" horiz-adv-x="758" 
d="M754 94q0 -39 -31.5 -72t-81.5 -33q-64 0 -97 45q-18 25 -22 48t-4 75q0 48 -5.5 63.5t-34.5 31.5q-46 23 -126 23h-143v-214h54q12 0 18.5 -1t14 -8.5t7.5 -21.5q0 -30 -40 -30h-177q-40 0 -40 30q0 14 7.5 21.5t14 8.5t18.5 1h54v489h-54q-40 0 -40 30q0 14 7.5 21.5
t14 8.5t18.5 1h268q110 0 191 -49t81 -119q0 -41 -30.5 -77t-84.5 -59q37 -18 56 -46q14 -21 17 -38t3 -62q0 -24 0.5 -35.5t3 -29t8 -25.5t16 -14.5t26.5 -6.5q17 0 29.5 11.5t14.5 33.5q3 30 34 30q35 0 35 -31zM557 443q0 46 -64.5 76.5t-147.5 30.5h-136v-214h136
q83 0 147.5 30.5t64.5 76.5zM514 691q0 -12 -11.5 -25t-24.5 -13q-10 0 -23 11l-70 56q-19 15 -19 31q0 15 10 25t25 10q11 0 26 -12l70 -56q17 -14 17 -27zM309 691q0 -12 -11.5 -25t-24.5 -13q-10 0 -23 11l-70 56q-19 15 -19 31q0 15 10 25t25 10q11 0 26 -12l70 -56
q17 -14 17 -27z" />
    <glyph glyph-name="rdblgrave" unicode="&#x211;" horiz-adv-x="408" 
d="M378 375q0 -19 -12.5 -31t-29.5 -12q-14 0 -27.5 9.5t-14.5 33.5q-37 -4 -63.5 -33t-38.5 -68.5t-12 -85.5v-127h78q12 0 18.5 -1t14 -8.5t7.5 -21.5q0 -30 -40 -30h-201q-40 0 -40 30q0 14 7.5 21.5t14 8.5t18.5 1h54v309h-54q-40 0 -40 30q0 14 7.5 21.5t14 8.5t18.5 1
h83q28 0 34 -10t6 -45q52 61 123 61q35 0 55 -19.5t20 -42.5zM368 516q0 -12 -11.5 -25t-24.5 -13q-10 0 -23 11l-70 56q-19 15 -19 31q0 15 10 25t25 10q11 0 26 -12l70 -56q17 -14 17 -27zM163 516q0 -12 -11.5 -25t-24.5 -13q-10 0 -23 11l-70 56q-19 15 -19 31
q0 15 10 25t25 10q11 0 26 -12l70 -56q17 -14 17 -27z" />
    <glyph glyph-name="Udblgrave" unicode="&#x214;" horiz-adv-x="758" 
d="M711 580q0 -30 -40 -30h-54v-344q0 -92 -70 -154.5t-169 -62.5q-97 0 -167.5 62t-70.5 155v344h-54q-40 0 -40 30q0 14 7.5 21.5t14 8.5t18.5 1h177q12 0 18.5 -1t14 -8.5t7.5 -21.5q0 -30 -40 -30h-54v-338q0 -78 52.5 -120t117.5 -42q63 0 116 42t53 120v338h-54
q-40 0 -40 30q0 14 7.5 21.5t14 8.5t18.5 1h177q12 0 18.5 -1t14 -8.5t7.5 -21.5zM566 691q0 -12 -11.5 -25t-24.5 -13q-10 0 -23 11l-70 56q-19 15 -19 31q0 15 10 25t25 10q11 0 26 -12l70 -56q17 -14 17 -27zM361 691q0 -12 -11.5 -25t-24.5 -13q-10 0 -23 11l-70 56
q-19 15 -19 31q0 15 10 25t25 10q11 0 26 -12l70 -56q17 -14 17 -27z" />
    <glyph glyph-name="udblgrave" unicode="&#x215;" horiz-adv-x="583" 
d="M565 30q0 -30 -40 -30h-83q-13 0 -19.5 1t-13.5 9.5t-7 24.5q-53 -41 -137 -41q-154 0 -154 121v255h-54q-40 0 -40 30q0 14 7.5 21.5t14 8.5t18.5 1h83q25 0 32.5 -8.5t7.5 -32.5v-269q0 -16 1.5 -24t9.5 -19.5t28 -17t52 -5.5q18 0 36 3t41.5 12t38.5 31.5t15 55.5v213
h-54q-12 0 -18.5 1t-14 8.5t-7.5 21.5q0 30 40 30h83q25 0 32.5 -8.5t7.5 -32.5v-329h54q12 0 18.5 -1t14 -8.5t7.5 -21.5zM455 516q0 -12 -11.5 -25t-24.5 -13q-10 0 -23 11l-70 56q-19 15 -19 31q0 15 10 25t25 10q11 0 26 -12l70 -56q17 -14 17 -27zM250 516
q0 -12 -11.5 -25t-24.5 -13q-10 0 -23 11l-70 56q-19 15 -19 31q0 15 10 25t25 10q11 0 26 -12l70 -56q17 -14 17 -27z" />
    <glyph glyph-name="uni0218" unicode="&#x218;" horiz-adv-x="583" 
d="M524 166q0 -70 -57 -123.5t-152 -53.5q-122 0 -188 48q-8 -23 -11.5 -30.5t-10 -12.5t-17.5 -5q-30 0 -30 41v132q0 13 1 20t9.5 14t24.5 7q15 0 23 -6t9 -11.5t2 -15.5q4 -61 55 -92q49 -28 134 -28q65 0 104 34t39 78q0 19 -8 37t-16 26l-8 8q-23 20 -41.5 26.5
t-68.5 17.5l-43 9q-55 12 -77 17.5t-46 16.5t-44 30q-49 47 -49 108q0 66 58 115t148 49q102 0 162 -51q12 35 17.5 43t21.5 8q30 0 30 -41v-132q0 -13 -1 -20t-9.5 -14t-24.5 -7q-14 0 -21.5 5t-9.5 10.5t-4 16.5q-23 121 -162 121q-61 0 -100.5 -30t-39.5 -69
q0 -40 33 -64t66 -31l148 -31q67 -14 110.5 -62t43.5 -108zM337 -100q0 -45 -25 -78.5t-42 -33.5q-9 0 -16.5 7.5t-7.5 15.5q0 9 11 20q30 24 33 61q-37 3 -37 38q0 15 10.5 26t26.5 11q20 0 33.5 -16.5t13.5 -50.5z" />
    <glyph glyph-name="uni0219" unicode="&#x219;" horiz-adv-x="414" 
d="M378 125q0 -51 -40 -91t-129 -40q-67 0 -109 34q-8 -34 -35 -34q-30 0 -30 41v96q0 13 1 20t9.5 14t24.5 7q28 0 34 -25q6 -20 11.5 -33t17 -28t31 -23t46.5 -8q12 0 24 1.5t34 7t35.5 21.5t13.5 40q0 27 -22.5 44t-53.5 24q-17 0 -61 11q-145 27 -145 118q0 17 6.5 35
t23 38t52 32.5t86.5 12.5q55 0 90 -20q7 20 29 20q30 0 30 -41v-69q0 -13 -1 -20t-9.5 -14t-24.5 -7q-14 0 -22 5.5t-9.5 11.5t-2.5 15q-1 11 -3.5 18t-10 18t-25 16.5t-43.5 5.5q-53 0 -79 -16t-26 -41q0 -28 30 -40t101 -25q151 -28 151 -132zM253 -100q0 -45 -25 -78.5
t-42 -33.5q-9 0 -16.5 7.5t-7.5 15.5q0 9 11 20q30 24 33 61q-37 3 -37 38q0 15 10.5 26t26.5 11q20 0 33.5 -16.5t13.5 -50.5z" />
    <glyph glyph-name="uni021A" unicode="&#x21a;" horiz-adv-x="758" 
d="M719 497q0 -13 -1 -20t-9.5 -14t-24.5 -7q-23 0 -28.5 10.5t-5.5 30.5v53h-237v-489h93q41 0 41 -31q0 -30 -41 -30h-255q-41 0 -41 31q0 30 41 30h93v489h-237v-53q0 -13 -1 -20t-9.5 -14t-24.5 -7q-23 0 -28.5 10.5t-5.5 30.5v73q0 25 8 33t33 8h600q25 0 32.5 -8.5
t7.5 -32.5v-73zM425 -100q0 -45 -25 -78.5t-42 -33.5q-9 0 -16.5 7.5t-7.5 15.5q0 9 11 20q30 24 33 61q-37 3 -37 38q0 15 10.5 26t26.5 11q20 0 33.5 -16.5t13.5 -50.5z" />
    <glyph glyph-name="uni021B" unicode="&#x21b;" horiz-adv-x="408" 
d="M349 125q0 -57 -36.5 -94t-87.5 -37q-44 0 -79 30t-35 99v247h-52q-40 0 -40 30q0 31 41 31h51v82q0 13 1 20t9.5 14t24.5 7q23 0 28.5 -10.5t5.5 -30.5v-82h111q12 0 18.5 -1t14 -8.5t7.5 -21.5q0 -30 -40 -30h-111v-241q0 -74 49 -74q21 0 36 18.5t15 52.5q0 12 1 18.5
t9 13.5t24 7t24.5 -7t9.5 -13.5t1 -19.5zM250 -100q0 -45 -25 -78.5t-42 -33.5q-9 0 -16.5 7.5t-7.5 15.5q0 9 11 20q30 24 33 61q-37 3 -37 38q0 15 10.5 26t26.5 11q20 0 33.5 -16.5t13.5 -50.5z" />
    <glyph glyph-name="uni0237" unicode="&#x237;" horiz-adv-x="321" 
d="M209 -47q0 -41 -11.5 -79.5t-44.5 -70t-82 -31.5q-54 0 -85.5 20.5t-31.5 55.5q0 21 13.5 33.5t31.5 12.5q44 0 44 -53l1 -3q4 -5 30 -5q66 0 66 124v413h-63q-41 0 -41 31q0 30 41 30h92q25 0 32.5 -8.5t7.5 -32.5v-437z" />
    <glyph glyph-name="ereversed" unicode="&#x258;" horiz-adv-x="467" 
d="M437 218q0 -93 -65.5 -158.5t-159.5 -65.5q-83 0 -128.5 42t-45.5 73q0 28 35 28q14 0 21 -4t12 -18q25 -60 100 -60q58 0 104 38t56 98h-288q-10 0 -15.5 0.5t-12 4t-9.5 11.5t-3 21q0 93 50 152.5t139 59.5q88 0 149 -65.5t61 -156.5zM365 251q-10 56 -49 92t-89 36
q-45 0 -79 -29t-39 -99h256z" />
    <glyph glyph-name="schwa" unicode="&#x259;" horiz-adv-x="467" 
d="M437 216q0 -91 -61 -156.5t-149 -65.5q-89 0 -139 59.5t-50 152.5q0 13 3 21t9.5 11.5t12 4t15.5 0.5h288q-10 60 -56 98t-104 38q-75 0 -100 -60q-5 -14 -12 -18t-21 -4q-35 0 -35 28q0 31 45.5 73t128.5 42q94 0 159.5 -65.5t65.5 -158.5zM365 183h-256q5 -70 39 -99
t79 -29q50 0 89 36t49 92z" />
    <glyph glyph-name="ringhalfright" unicode="&#x2be;" horiz-adv-x="410" 
d="M352 390q0 -37 -15.5 -73t-56.5 -65t-101 -29q-113 0 -113 58q0 18 11.5 28.5t27.5 10.5q34 0 37 -36q15 -5 37 -5q60 0 85.5 37t25.5 74q0 46 -31.5 78t-74.5 32q-48 0 -66 -40q-7 -19 -29 -19q-31 0 -31 26q0 7 6 19.5t19 29t40.5 28t64.5 11.5q70 0 117 -48.5
t47 -116.5z" />
    <glyph glyph-name="ringhalfleft" unicode="&#x2bf;" horiz-adv-x="410" 
d="M352 311q0 -7 -6 -19.5t-19 -29t-40.5 -28t-64.5 -11.5q-70 0 -117 48.5t-47 116.5q0 37 15.5 73t56.5 65t101 29q113 0 113 -58q0 -18 -11.5 -28.5t-27.5 -10.5q-34 0 -37 36q-15 5 -37 5q-60 0 -85.5 -37t-25.5 -74q0 -46 31.5 -78t74.5 -32q48 0 66 40q7 19 29 19
q31 0 31 -26z" />
    <glyph glyph-name="circumflex" unicode="&#x2c6;" 
d="M397 532q25 -16 9.5 -40.5t-40.5 -9.5l-103 62l-103 -62q-25 -15 -40.5 9.5t9.5 40.5l118 75q15 10 30 0z" />
    <glyph glyph-name="caron" unicode="&#x2c7;" 
d="M397 556l-118 -75q-15 -10 -30 0l-120 75q-25 16 -9.5 40.5t40.5 9.5l103 -62l103 62q25 15 40.5 -9.5t-9.5 -40.5z" />
    <glyph glyph-name="breve" unicode="&#x2d8;" 
d="M439 570q0 -29 -16.5 -47t-48.5 -25t-53.5 -8.5t-57.5 -1.5t-57.5 1.5t-53.5 8.5t-48.5 25t-16.5 47q0 31 31 31q25 0 30 -29q5 -20 115 -20t115 20q5 29 30 29q31 0 31 -31z" />
    <glyph glyph-name="dotaccent" unicode="&#x2d9;" horiz-adv-x="292" 
d="M196 544q0 -20 -14.5 -35t-36.5 -15q-20 0 -35 15t-15 35t14.5 35t36.5 15q20 0 35 -15t15 -35z" />
    <glyph glyph-name="ring" unicode="&#x2da;" horiz-adv-x="758" 
d="M430 558q0 12 -15 20.5t-36 8.5q-19 0 -35 -8t-16 -21q0 -12 15 -20.5t36 -8.5q19 0 35 8t16 21zM496 558q0 -27 -33.5 -46.5t-84.5 -19.5q-48 0 -82 19.5t-34 46.5t33.5 46.5t84.5 19.5q48 0 82 -19.5t34 -46.5z" />
    <glyph glyph-name="ogonek" unicode="&#x2db;" 
d="M360 -144q-43 -59 -100 -59q-44 0 -71.5 30t-27.5 65q0 33 23 65t55 53l75 1q-41 -11 -67.5 -44.5t-26.5 -76.5q0 -17 14.5 -28t29.5 -11q14 0 29 11.5t25 25.5q5 5 17.5 7t19.5 -2q6 -5 8 -17.5t-3 -19.5z" />
    <glyph glyph-name="tilde" unicode="&#x2dc;" 
d="M438 572q0 -18 -49 -55q-45 -33 -78 -33t-67 34q-23 21 -31 21q-23 0 -70 -44q-13 -11 -24 -11q-12 0 -21.5 10t-9.5 22q0 18 49 55q45 33 78 33t67 -34q23 -21 31 -21q23 0 70 44q13 11 24 11q12 0 21.5 -10t9.5 -22z" />
    <glyph glyph-name="hungarumlaut" unicode="&#x2dd;" 
d="M247 576q0 -16 -19 -31l-70 -56q-13 -11 -23 -11q-13 0 -24.5 13t-11.5 25q0 13 17 27l70 56q15 12 26 12q15 0 25 -10t10 -25zM452 576q0 -16 -19 -31l-70 -56q-13 -11 -23 -11q-13 0 -24.5 13t-11.5 25q0 13 17 27l70 56q15 12 26 12q15 0 25 -10t10 -25z" />
    <glyph glyph-name="uni0300" unicode="&#x300;" horiz-adv-x="0" 
d="M-150 517q0 -11 -8 -25.5t-25 -14.5q-8 0 -18 5l-133 59q-28 13 -28 35q0 15 10 25t25 10q8 0 19 -5l133 -60q9 -4 13 -6.5t8 -8.5t4 -14z" />
    <glyph glyph-name="uni0301" unicode="&#x301;" horiz-adv-x="0" 
d="M-149 576q0 -22 -28 -35l-133 -59q-10 -5 -18 -5q-17 0 -25 14.5t-8 25.5q0 12 6 17.5t19 11.5l133 60l19 5q15 0 25 -10t10 -25z" />
    <glyph glyph-name="uni0302" unicode="&#x302;" horiz-adv-x="0" 
d="M-121 532q25 -16 9.5 -40.5t-40.5 -9.5l-103 62l-103 -62q-25 -15 -40.5 9.5t9.5 40.5l118 75q15 10 30 0z" />
    <glyph glyph-name="uni0303" unicode="&#x303;" horiz-adv-x="0" 
d="M-80 572q0 -18 -49 -55q-45 -33 -78 -33t-67 34q-23 21 -31 21q-23 0 -70 -44q-13 -11 -24 -11q-12 0 -21.5 10t-9.5 22q0 18 49 55q45 33 78 33t67 -34q23 -21 31 -21q23 0 70 44q13 11 24 11q12 0 21.5 -10t9.5 -22z" />
    <glyph glyph-name="uni0304" unicode="&#x304;" horiz-adv-x="0" 
d="M-66 544q0 -14 -7.5 -21.5t-14 -8.5t-18.5 -1h-297q-12 0 -19 1t-14.5 8.5t-7.5 22.5q0 14 7.5 21.5t14 8.5t18.5 1h298q12 0 18.5 -1t14 -8.5t7.5 -22.5z" />
    <glyph glyph-name="uni0306" unicode="&#x306;" horiz-adv-x="0" 
d="M-79 570q0 -29 -16.5 -47t-48.5 -25t-53.5 -8.5t-57.5 -1.5t-57.5 1.5t-53.5 8.5t-48.5 25t-16.5 47q0 31 31 31q25 0 30 -29q5 -20 115 -20t115 20q5 29 30 29q31 0 31 -31z" />
    <glyph glyph-name="uni0307" unicode="&#x307;" horiz-adv-x="0" 
d="M-205 544q0 -20 -14.5 -35t-36.5 -15q-20 0 -35 15t-15 35t14.5 35t36.5 15q20 0 35 -15t15 -35z" />
    <glyph glyph-name="uni0308" unicode="&#x308;" horiz-adv-x="0" 
d="M-293 544q0 -18 -13 -31.5t-33 -13.5q-18 0 -31.5 13t-13.5 32q0 17 13 31t33 14q19 0 32 -13.5t13 -31.5zM-126 544q0 -18 -13 -31.5t-33 -13.5q-18 0 -31.5 13t-13.5 32q0 17 13 31t33 14q19 0 32 -13.5t13 -31.5z" />
    <glyph glyph-name="uni0309" unicode="&#x309;" horiz-adv-x="0" 
d="M-153 579q-2 -38 -36 -57q-46 -24 -46 -47v-18q0 -11 -8 -19.5t-20 -8.5q-11 0 -19.5 8.5t-8.5 19.5v18q0 57 75 97l7 7q0 8 -9 15q-15 9 -45 9q-31 0 -37 -19v-5q0 -10 -8 -20l-1 -1q-8 -8 -20 -8q-10 0 -20 8v1q-9 9 -9 20q1 36 29 58t66 22h3q45 0 73 -18
q34 -24 34 -62z" />
    <glyph glyph-name="uni030A" unicode="&#x30a;" horiz-adv-x="0" 
d="M-204 558q0 12 -15 20.5t-36 8.5q-19 0 -35 -8t-16 -21q0 -12 15 -20.5t36 -8.5q19 0 35 8t16 21zM-138 558q0 -27 -33.5 -46.5t-84.5 -19.5q-48 0 -82 19.5t-34 46.5t33.5 46.5t84.5 19.5q48 0 82 -19.5t34 -46.5z" />
    <glyph glyph-name="uni030B" unicode="&#x30b;" horiz-adv-x="0" 
d="M-271 576q0 -16 -19 -31l-70 -56q-13 -11 -23 -11q-13 0 -24.5 13t-11.5 25q0 13 17 27l70 56q15 12 26 12q15 0 25 -10t10 -25zM-66 576q0 -16 -19 -31l-70 -56q-13 -11 -23 -11q-13 0 -24.5 13t-11.5 25q0 13 17 27l70 56q15 12 26 12q15 0 25 -10t10 -25z" />
    <glyph glyph-name="uni030C" unicode="&#x30c;" horiz-adv-x="0" 
d="M-121 556l-118 -75q-15 -10 -30 0l-120 75q-25 16 -9.5 40.5t40.5 9.5l103 -62l103 62q25 15 40.5 -9.5t-9.5 -40.5z" />
    <glyph glyph-name="uni030F" unicode="&#x30f;" horiz-adv-x="0" 
d="M-92 516q0 -12 -11.5 -25t-24.5 -13q-10 0 -23 11l-70 56q-19 15 -19 31q0 15 10 25t25 10q11 0 26 -12l70 -56q17 -14 17 -27zM-297 516q0 -12 -11.5 -25t-24.5 -13q-10 0 -23 11l-70 56q-19 15 -19 31q0 15 10 25t25 10q11 0 26 -12l70 -56q17 -14 17 -27z" />
    <glyph glyph-name="uni0311" unicode="&#x311;" horiz-adv-x="0" 
d="M-79 519q0 -31 -31 -31q-25 0 -30 29q-5 20 -115 20t-115 -20q-5 -29 -30 -29q-31 0 -31 31q0 29 16.5 47t48.5 25t53.5 8.5t57.5 1.5t57.5 -1.5t53.5 -8.5t48.5 -25t16.5 -47z" />
    <glyph glyph-name="uni0323" unicode="&#x323;" horiz-adv-x="0" 
d="M-205 -150q0 -20 -14.5 -35t-36.5 -15q-20 0 -35 15t-15 35t14.5 35t36.5 15q20 0 35 -15t15 -35z" />
    <glyph glyph-name="uni0326" unicode="&#x326;" horiz-adv-x="0" 
d="M-210 -100q0 -45 -25 -78.5t-42 -33.5q-9 0 -16.5 7.5t-7.5 15.5q0 9 11 20q30 24 33 61q-37 3 -37 38q0 15 10.5 26t26.5 11q20 0 33.5 -16.5t13.5 -50.5z" />
    <glyph glyph-name="uni032E" unicode="&#x32e;" horiz-adv-x="0" 
d="M-79 -124q0 -29 -16.5 -47t-48.5 -25t-53.5 -8.5t-57.5 -1.5t-57.5 1.5t-53.5 8.5t-48.5 25t-16.5 47q0 31 31 31q25 0 30 -29q5 -20 115 -20t115 20q5 29 30 29q31 0 31 -31z" />
    <glyph glyph-name="uni032F" unicode="&#x32f;" horiz-adv-x="0" 
d="M-79 -175q0 -31 -31 -31q-25 0 -30 29q-5 20 -115 20t-115 -20q-5 -29 -30 -29q-31 0 -31 31q0 29 16.5 47t48.5 25t53.5 8.5t57.5 1.5t57.5 -1.5t53.5 -8.5t48.5 -25t16.5 -47z" />
    <glyph glyph-name="uni0330" unicode="&#x330;" horiz-adv-x="0" 
d="M-80 -122q0 -18 -49 -55q-45 -33 -78 -33t-67 34q-23 21 -31 21q-23 0 -70 -44q-13 -11 -24 -11q-12 0 -21.5 10t-9.5 22q0 18 49 55q45 33 78 33t67 -34q23 -21 31 -21q23 0 70 44q13 11 24 11q12 0 21.5 -10t9.5 -22z" />
    <glyph glyph-name="uni0331" unicode="&#x331;" horiz-adv-x="0" 
d="M-66 -150q0 -14 -7.5 -21.5t-14 -8.5t-18.5 -1h-297q-12 0 -19 1t-14.5 8.5t-7.5 22.5q0 14 7.5 21.5t14 8.5t18.5 1h298q12 0 18.5 -1t14 -8.5t7.5 -22.5z" />
    <glyph glyph-name="uni0332" unicode="&#x332;" horiz-adv-x="0" 
d="M-66 -150q0 -14 -7.5 -21.5t-14 -8.5t-18.5 -1h-297q-12 0 -19 1t-14.5 8.5t-7.5 22.5q0 14 7.5 21.5t14 8.5t18.5 1h298q12 0 18.5 -1t14 -8.5t7.5 -22.5z" />
    <glyph glyph-name="Alpha" unicode="&#x391;" horiz-adv-x="758" 
d="M716 30q0 -30 -40 -30h-159q-41 0 -41 31q0 30 41 30h40l-40 111h-277l-40 -111h40q41 0 41 -31q0 -30 -41 -30h-159q-12 0 -18.5 1t-14 8.5t-7.5 21.5q0 30 40 30h46l189 529q6 15 16 23t17 9t20 1h19q14 0 21 -1t16.5 -9t15.5 -24l189 -528h46q12 0 18.5 -1t14 -8.5
t7.5 -21.5zM495 233l-117 326l-116 -326h233z" />
    <glyph glyph-name="Beta" unicode="&#x392;" horiz-adv-x="729" 
d="M670 167q0 -67 -67 -117t-166 -50h-351q-40 0 -40 30q0 14 7.5 21.5t14 8.5t18.5 1h54v489h-54q-40 0 -40 30q0 14 7.5 21.5t14 8.5t18.5 1h323q98 0 165 -46.5t67 -108.5q0 -50 -44.5 -85.5t-104.5 -50.5q83 -15 130.5 -57.5t47.5 -95.5zM572 455q0 38 -47.5 66.5
t-117.5 28.5h-198v-202h166q86 0 141.5 32t55.5 75zM601 169q0 47 -51.5 82.5t-124.5 35.5h-216v-226h200q79 0 135.5 31t56.5 77z" />
    <glyph glyph-name="Gamma" unicode="&#x393;" horiz-adv-x="642" 
d="M597 497q0 -13 -1 -20t-9.5 -14t-24.5 -7q-23 0 -28.5 10.5t-5.5 30.5v53h-319v-489h78q12 0 18.5 -1t14 -8.5t7.5 -21.5q0 -30 -40 -30h-201q-40 0 -40 30q0 14 7.5 21.5t14 8.5t18.5 1h54v489h-54q-40 0 -40 30q0 14 7.5 21.5t14 8.5t18.5 1h471q25 0 32.5 -8.5
t7.5 -32.5v-73z" />
    <glyph glyph-name="Delta" unicode="&#x394;" horiz-adv-x="875" 
d="M817 19q0 -19 -32 -19h-696q-32 0 -32 19q0 7 7 19l303 553q12 21 24.5 26.5t34.5 5.5h22q26 0 38 -7.5t23 -27.5l302 -552q6 -10 6 -17zM715 67l-278 509l-278 -509h556z" />
    <glyph glyph-name="Epsilon" unicode="&#x395;" horiz-adv-x="700" 
d="M670 41q0 -24 -8 -32.5t-32 -8.5h-544q-40 0 -40 30q0 14 7.5 21.5t14 8.5t18.5 1h54v489h-54q-40 0 -40 30q0 14 7.5 21.5t14 8.5t18.5 1h515q25 0 32.5 -8.5t7.5 -32.5v-73q0 -13 -1 -20t-9.5 -14t-24.5 -7q-23 0 -28.5 10.5t-5.5 30.5v53h-363v-203h199q0 25 1.5 34.5
t9 16t24.5 6.5q23 0 28.5 -10.5t5.5 -30.5v-93q0 -13 -1 -20t-9 -14t-24 -7q-24 0 -29.5 11t-5.5 46h-199v-225h392v69q0 13 1 20t9.5 14t24.5 7q23 0 28.5 -10.5t5.5 -30.5v-89z" />
    <glyph glyph-name="Zeta" unicode="&#x396;" horiz-adv-x="642" 
d="M589 41q0 -24 -8 -32.5t-32 -8.5h-450q-13 0 -20 1t-14 9t-7 24q0 18 12 31l416 485h-344v-53q0 -13 -1 -20t-9.5 -14t-24.5 -7q-23 0 -28.5 10.5t-5.5 30.5v73q0 25 8 33t33 8h428q13 0 20 -1t14 -9t7 -24q0 -18 -12 -31l-416 -485h365v72q0 13 1 20t9.5 14t24.5 7
q23 0 28.5 -10.5t5.5 -30.5v-92z" />
    <glyph glyph-name="Eta" unicode="&#x397;" horiz-adv-x="758" 
d="M711 30q0 -30 -40 -30h-177q-40 0 -40 30q0 14 7.5 21.5t14 8.5t18.5 1h54v226h-339v-226h54q12 0 18.5 -1t14 -8.5t7.5 -21.5q0 -30 -40 -30h-177q-40 0 -40 30q0 14 7.5 21.5t14 8.5t18.5 1h54v489h-54q-40 0 -40 30q0 14 7.5 21.5t14 8.5t18.5 1h177q12 0 18.5 -1
t14 -8.5t7.5 -21.5q0 -30 -40 -30h-54v-202h339v202h-54q-40 0 -40 30q0 14 7.5 21.5t14 8.5t18.5 1h177q12 0 18.5 -1t14 -8.5t7.5 -21.5q0 -30 -40 -30h-54v-489h54q12 0 18.5 -1t14 -8.5t7.5 -21.5z" />
    <glyph glyph-name="Theta" unicode="&#x398;" horiz-adv-x="817" 
d="M758 305q0 -128 -101.5 -222t-248.5 -94q-146 0 -248 93t-102 224q0 128 101.5 222t248.5 94q146 0 248 -93t102 -224zM689 306q0 104 -81.5 179.5t-199.5 75.5q-117 0 -199 -75t-82 -181q0 -104 81.5 -179.5t199.5 -75.5q117 0 199 75t82 181zM630 282q0 -13 -1 -20
t-9.5 -14t-24.5 -7q-32 0 -34 31h-306q-2 -31 -34 -31q-16 0 -24.5 7t-9.5 14t-1 20v47q0 13 1 20t9.5 14t24.5 7q32 0 34 -31h306q2 31 34 31q16 0 24.5 -7t9.5 -14t1 -20v-47z" />
    <glyph glyph-name="Iota" unicode="&#x399;" horiz-adv-x="350" 
d="M308 30q0 -30 -40 -30h-187q-40 0 -40 30q0 14 7.5 21.5t14 8.5t18.5 1h59v489h-59q-40 0 -40 30q0 14 7.5 21.5t14 8.5t18.5 1h187q12 0 18.5 -1t14 -8.5t7.5 -21.5q0 -30 -40 -30h-59v-489h59q12 0 18.5 -1t14 -8.5t7.5 -21.5z" />
    <glyph glyph-name="Kappa" unicode="&#x39a;" horiz-adv-x="788" 
d="M743 30q0 -30 -41 -30h-126q-40 0 -40 30q0 15 7.5 22t17 8t31.5 1l-227 261l-162 -132v-129h54q12 0 18.5 -1t14 -8.5t7.5 -21.5q0 -30 -40 -30h-164q-40 0 -40 30q0 14 7.5 21.5t14 8.5t18.5 1h54v489h-54q-40 0 -40 30q0 14 7.5 21.5t14 8.5t18.5 1h164q12 0 18.5 -1
t14 -8.5t7.5 -21.5q0 -30 -40 -30h-54v-288l354 288q-22 0 -31 1t-16.5 8t-7.5 22q0 30 40 30h145q41 0 41 -31q0 -30 -41 -30h-40l-238 -193l257 -296h36q41 0 41 -31z" />
    <glyph glyph-name="Lambda" unicode="&#x39b;" horiz-adv-x="700" 
d="M659 30q0 -30 -40 -30h-150q-40 0 -40 30q0 14 7.5 21.5t14 8.5t18.5 1h42l-162 494l-161 -494h42q12 0 18.5 -1t14 -8.5t7.5 -21.5q0 -30 -40 -30h-150q-40 0 -40 30q0 14 7.5 21.5t14 8.5t18.5 1h35l173 529q5 15 15 23t17 9t20 1h19q13 0 20 -1t17 -9t15 -23l173 -529
h35q12 0 18.5 -1t14 -8.5t7.5 -21.5z" />
    <glyph glyph-name="Mu" unicode="&#x39c;" horiz-adv-x="933" 
d="M879 30q0 -30 -40 -30h-164q-12 0 -18.5 1t-14 8.5t-7.5 21.5q0 30 40 30h54v484h-1l-218 -499q-16 -35 -44 -35q-29 0 -44 37l-218 497h-1v-484h54q12 0 18.5 -1t14 -8.5t7.5 -21.5q0 -30 -40 -30h-164q-40 0 -40 30q0 14 7.5 21.5t14 8.5t18.5 1h54v489h-54
q-40 0 -40 30q0 14 7.5 21.5t14 8.5t18.5 1h96q25 0 36.5 -7.5t21.5 -29.5l219 -499l219 501q7 16 18 24.5t18.5 9.5t21.5 1h96q12 0 18.5 -1t14 -8.5t7.5 -21.5q0 -30 -40 -30h-54v-489h54q12 0 18.5 -1t14 -8.5t7.5 -21.5z" />
    <glyph glyph-name="Nu" unicode="&#x39d;" horiz-adv-x="758" 
d="M704 580q0 -30 -40 -30h-54v-509q0 -26 -8 -33.5t-33 -7.5q-14 0 -22 1t-20 9t-21 24l-302 526h-1v-499h54q12 0 18.5 -1t14 -8.5t7.5 -21.5q0 -30 -40 -30h-164q-40 0 -40 30q0 14 7.5 21.5t14 8.5t18.5 1h54v489h-54q-40 0 -40 30q0 14 7.5 21.5t14 8.5t18.5 1h95
q14 0 22 -1t20 -9t21 -24l302 -526h1v499h-54q-40 0 -40 30q0 14 7.5 21.5t14 8.5t18.5 1h164q12 0 18.5 -1t14 -8.5t7.5 -21.5z" />
    <glyph glyph-name="Xi" unicode="&#x39e;" horiz-adv-x="700" 
d="M649 551q0 -13 -1 -20t-9 -14t-24 -7t-24.5 7t-9.5 14t-1 21h-461q0 -14 -1 -21t-9.5 -14t-24.5 -7q-23 0 -28.5 10.5t-5.5 30.5v19q0 25 8 33t33 8h518q25 0 32.5 -8.5t7.5 -32.5v-19zM655 41q0 -24 -8 -32.5t-32 -8.5h-530q-25 0 -33 8t-8 33v24q0 13 1 20t9 14t24 7
q24 0 29.5 -10.5t5.5 -36.5h473q0 18 1 25.5t9 14.5t25 7q23 0 28.5 -10.5t5.5 -30.5v-24zM553 282q0 -13 -1 -20t-9 -14t-24 -7q-24 0 -29.5 10.5t-5.5 36.5h-269q0 -18 -1 -25.5t-9 -14.5t-25 -7q-23 0 -28.5 10.5t-5.5 30.5v71q0 13 1 20t9 14t24 7q24 0 29.5 -10.5
t5.5 -36.5h269q0 18 1 25.5t9 14.5t25 7q23 0 28.5 -10.5t5.5 -30.5v-71z" />
    <glyph glyph-name="Omicron" unicode="&#x39f;" horiz-adv-x="817" 
d="M758 305q0 -128 -101.5 -222t-248.5 -94q-146 0 -248 93t-102 224q0 128 101.5 222t248.5 94q146 0 248 -93t102 -224zM689 317q0 100 -82 172t-199 72t-199 -72t-82 -172q0 -109 82 -188t199 -79t199 79t82 188z" />
    <glyph glyph-name="Pi" unicode="&#x3a0;" horiz-adv-x="758" 
d="M711 30q0 -30 -40 -30h-177q-40 0 -40 30q0 14 7.5 21.5t14 8.5t18.5 1h54v489h-339v-489h54q12 0 18.5 -1t14 -8.5t7.5 -21.5q0 -30 -40 -30h-177q-40 0 -40 30q0 14 7.5 21.5t14 8.5t18.5 1h54v489h-54q-40 0 -40 30q0 14 7.5 21.5t14 8.5t18.5 1h585q12 0 18.5 -1
t14 -8.5t7.5 -21.5q0 -30 -40 -30h-54v-489h54q12 0 18.5 -1t14 -8.5t7.5 -21.5z" />
    <glyph glyph-name="Rho" unicode="&#x3a1;" horiz-adv-x="700" 
d="M641 428q0 -74 -71 -128.5t-176 -54.5h-185v-184h54q12 0 18.5 -1t14 -8.5t7.5 -21.5q0 -30 -40 -30h-177q-40 0 -40 30q0 14 7.5 21.5t14 8.5t18.5 1h54v489h-54q-40 0 -40 30q0 14 7.5 21.5t14 8.5t18.5 1h308q105 0 176 -54.5t71 -128.5zM572 428q0 50 -56.5 86
t-138.5 36h-168v-244h168q81 0 138 36.5t57 85.5z" />
    <glyph glyph-name="Sigma" unicode="&#x3a3;" horiz-adv-x="758" 
d="M699 41q0 -24 -8 -32.5t-32 -8.5h-560q-41 0 -41 28q0 10 12 24l212 253l-213 250q-11 14 -11 25q0 31 41 31h560q25 0 32.5 -8.5t7.5 -32.5v-73q0 -13 -1 -20t-9.5 -14t-24.5 -7q-23 0 -28.5 10.5t-5.5 30.5v53h-466l188 -220q12 -14 12 -25t-12 -25l-183 -217h461v53
q0 13 1 20t9.5 14t24.5 7q23 0 28.5 -10.5t5.5 -30.5v-75z" />
    <glyph glyph-name="Tau" unicode="&#x3a4;" horiz-adv-x="758" 
d="M719 497q0 -13 -1 -20t-9.5 -14t-24.5 -7q-23 0 -28.5 10.5t-5.5 30.5v53h-237v-489h93q41 0 41 -31q0 -30 -41 -30h-255q-41 0 -41 31q0 30 41 30h93v489h-237v-53q0 -13 -1 -20t-9.5 -14t-24.5 -7q-23 0 -28.5 10.5t-5.5 30.5v73q0 25 8 33t33 8h600q25 0 32.5 -8.5
t7.5 -32.5v-73z" />
    <glyph glyph-name="Upsilon" unicode="&#x3a5;" horiz-adv-x="817" 
d="M758 492q0 -31 -35 -31q-14 0 -22 5.5t-9.5 11.5t-2.5 16q-4 34 -30.5 55t-65.5 21q-42 0 -72.5 -25t-46.5 -65.5t-23.5 -82.5t-7.5 -85v-251h78q12 0 18.5 -1t14 -8.5t7.5 -21.5q0 -30 -40 -30h-225q-12 0 -18.5 1t-14 8.5t-7.5 21.5q0 30 40 30h78v251q0 41 -7 82.5
t-23 82.5t-47.5 67t-73.5 26q-40 0 -66.5 -21.5t-29.5 -53.5q-1 -11 -2.5 -17t-9.5 -11.5t-22 -5.5q-35 0 -35 31q0 53 47.5 91.5t114.5 38.5q42 0 75.5 -18.5t55.5 -51t35.5 -69.5t21.5 -82h1q15 99 62.5 160t124.5 61q67 0 114.5 -38.5t47.5 -91.5z" />
    </font>
</defs>
</svg>
