<?xml version="1.0" standalone="no"?>
<!DOCTYPE svg PUBLIC "-//W3C//DTD SVG 1.1//EN" "http://www.w3.org/Graphics/SVG/1.1/DTD/svg11.dtd" >
<svg>
<metadata>
Created by FontForge 20120731 at Mon Jul 14 22:19:43 2014
 By tom,,,
Copyright 2003, 2009 B. Jackowski and J. M. Nowacki (on behalf of TeX users groups). This work is released under the GUST Font License --  see http://tug.org/fonts/licenses/GUST-FONT-LICENSE.txt for details.
</metadata>
<defs>
<font id="lmroman5-bold" horiz-adv-x="758" >
  <font-face 
    font-family="LM Roman 5"
    font-weight="700"
    font-stretch="normal"
    units-per-em="1000"
    panose-1="0 0 8 0 0 0 0 0 0 0"
    ascent="806"
    descent="-194"
    x-height="444"
    cap-height="686"
    bbox="-630 -325 2006 1163"
    underline-thickness="43"
    underline-position="-31"
    unicode-range="U+0020-FB04"
  />
<missing-glyph horiz-adv-x="280" 
 />
    <glyph glyph-name="I_J" unicode="IJ" horiz-adv-x="1270" 
d="M464 0q-61 4 -189 4t-189 -4v67h111v552h-111v67q61 -4 189 -4t189 4v-67h-111v-552h111v-67zM1154 619h-79v-469q0 -76 -70.5 -121.5t-201.5 -45.5q-242 0 -242 130q0 42 26.5 65t60.5 23q33 0 59.5 -23t26.5 -64q0 -38 -23 -61q40 -14 91 -14q125 0 125 113v467h-137
v67q50 -4 201 -4l163 4v-67z" />
    <glyph glyph-name="i_j" unicode="ij" horiz-adv-x="869" 
d="M307 603q0 -34 -25 -58.5t-61 -24.5q-35 0 -60.5 24.5t-25.5 59.5q0 34 25 58.5t61 24.5q35 0 60.5 -24.5t25.5 -59.5zM746 603q0 -34 -25 -58.5t-61 -24.5q-35 0 -60.5 24.5t-25.5 59.5q0 34 25 58.5t61 24.5q35 0 60.5 -24.5t25.5 -59.5zM363 0q-57 4 -129 4
q-74 0 -133 -4v67h72v271q0 28 -10.5 33.5t-58.5 5.5v67l194 8v-385h65v-67zM746 -35q0 -82 -67 -124.5t-156 -42.5q-77 0 -124 27.5t-47 78.5q0 32 21 53.5t54 21.5q32 0 53.5 -21t21.5 -54q0 -22 -12 -42q0 -8 38 -8t65.5 29.5t27.5 84.5v369q0 13 -1 18.5t-5.5 11
t-15.5 7.5q-15 3 -57 3v67l204 8v-487z" />
    <glyph glyph-name="f_k" unicode="fk" horiz-adv-x="1275" 
d="M1197 0q-44 4 -116 4t-135 -4v67h15l-150 138l-95 -61v-77h72v-67q-53 4 -135 4q-74 0 -134 -4v67h72v310h-310v-310h72v-67q-53 4 -135 4q-74 0 -134 -4v67h72v310h-100v67h100v90q0 49 35 84.5t92.5 52.5t113.5 24t116 7q68 0 112 -11q7 -2 13 -2l78 5v-452l209 135
h-15v67l147 -4q57 0 108 4v-67h-87l-173 -112l215 -198h77v-67zM591 444v97q-33 19 -33 62q0 18 6 32l2 5q0 6 -69 6q-95 0 -152 -24q-72 -30 -72 -92v-86h318z" />
    <glyph glyph-name="f_f" unicode="ff" horiz-adv-x="913" 
d="M982 603q0 -34 -22 -54t-52 -20q-27 0 -50 19.5t-23 54.5q0 19 9 37l1 3q-1 3 -13 3q-54 0 -89 -27q-35 -29 -35 -86v-89h160v-67h-152v-310h90v-67q-70 4 -149 4q-77 0 -138 -4v67h72v310h-310v-310h72v-67q-53 4 -135 4q-74 0 -134 -4v67h72v310h-100v67h100v90
q0 40 24.5 71t61.5 49t87 29.5t93.5 15t87.5 3.5q109 0 161 -39q66 39 172 39q69 0 104 -30t35 -69zM591 444v84q-33 21 -33 62q0 31 16 47q-33 9 -82 9q-90 0 -148 -25q-71 -29 -71 -91v-86h318z" />
    <glyph glyph-name="f_i" unicode="fi" horiz-adv-x="872" 
d="M788 0q-53 4 -135 4q-74 0 -134 -4v67h72v274q0 25 -6 30.5t-28 5.5h-276v-310h72v-67q-53 4 -135 4q-74 0 -134 -4v67h72v310h-100v67h100v90q0 52 38.5 88t101 52t114 22t103.5 6q109 0 154.5 -40t45.5 -87q0 -38 -24 -58t-53 -20t-52.5 20t-23.5 57q0 33 24 57
q-35 15 -89 15q-86 0 -147 -23q-26 -11 -43 -23.5t-23 -26.5t-7.5 -22.5t-1.5 -20.5v-86h246l1 3l196 8v-388h72v-67z" />
    <glyph glyph-name="f_l" unicode="fl" horiz-adv-x="872" 
d="M788 0q-53 4 -135 4q-74 0 -134 -4v67h72v310h-310v-310h72v-67q-53 4 -135 4q-74 0 -134 -4v67h72v310h-100v67h100v90q0 49 35 84.5t92.5 52.5t113.5 24t116 7q68 0 112 -11q7 -2 13 -2l78 5v-627h72v-67zM591 444v97q-33 19 -33 62q0 18 6 32l2 5q0 6 -69 6
q-95 0 -152 -24q-72 -30 -72 -92v-86h318z" />
    <glyph glyph-name="f_f_i" unicode="&#xfb00;i" horiz-adv-x="1308" 
d="M1224 0q-53 4 -135 4q-74 0 -134 -4v67h72v274q0 25 -6 30.5t-28 5.5h-276v-310h72v-67q-53 4 -135 4q-74 0 -134 -4v67h72v310h-311v-310h72v-67q-53 4 -135 4q-74 0 -134 -4v67h72v310h-100v67h100v90q0 51 37.5 87t98 52t112.5 22.5t104 6.5q115 0 165 -52
q96 52 276 52q109 0 154.5 -40t45.5 -87q0 -38 -24 -58t-53 -20t-52.5 20t-23.5 57q0 33 24 57q-35 15 -89 15q-86 0 -147 -23q-26 -11 -43 -23.5t-23 -26.5t-7.5 -22.5t-1.5 -20.5v-86h246l1 3l196 8v-388h72v-67zM592 444v63q-39 19 -39 67q0 34 23 57q-34 15 -86 15
q-88 0 -146 -25q-71 -29 -71 -91v-86h319z" />
    <glyph glyph-name="f_f_l" unicode="ffl" horiz-adv-x="1308" 
d="M1224 0q-53 4 -135 4q-74 0 -134 -4v67h72v310h-310v-310h72v-67q-53 4 -135 4q-74 0 -134 -4v67h72v310h-311v-310h72v-67q-53 4 -135 4q-74 0 -134 -4v67h72v310h-100v67h100v90q0 51 37 87t97.5 52t113 22.5t106.5 6.5q125 0 170 -48q100 48 269 48q68 0 112 -11
q7 -2 13 -2l78 5v-627h72v-67zM592 444v84q-33 19 -33 62q0 24 15 47q-34 9 -82 9q-89 0 -148 -25q-71 -29 -71 -91v-86h319zM1027 444v97q-33 19 -33 62q0 18 6 32l2 5q0 6 -69 6q-95 0 -152 -24q-72 -30 -72 -92v-86h318z" />
    <glyph glyph-name=".notdef" horiz-adv-x="280" 
 />
    <glyph glyph-name=".null" horiz-adv-x="0" 
 />
    <glyph glyph-name="nonmarkingreturn" horiz-adv-x="333" 
 />
    <glyph glyph-name="space" unicode=" " horiz-adv-x="517" 
 />
    <glyph glyph-name="exclam" unicode="!" horiz-adv-x="475" 
d="M324 631q0 -13 -2 -28l-41 -332q-3 -22 -9.5 -27t-26.5 -5h-14q-20 0 -26.5 5t-9.5 27l-41 332q-2 15 -2 28q0 35 26 57.5t60 22.5t60 -22.5t26 -57.5zM324 86q0 -35 -25.5 -60.5t-60.5 -25.5t-60.5 25.5t-25.5 60.5t25.5 60.5t60.5 25.5t60.5 -25.5t25.5 -60.5z" />
    <glyph glyph-name="quotedbl" unicode="&#x22;" horiz-adv-x="654" 
d="M285 636l-25 -214h-84l-25 214q-3 27 17 47t50 20t50 -20t17 -47zM503 636l-25 -214h-84l-25 214q-3 27 17 47t50 20t50 -20t17 -47z" />
    <glyph glyph-name="numbersign" unicode="#" horiz-adv-x="1242" 
d="M1144 116q0 -43 -58 -43h-330l-93 -234q-13 -33 -42 -33q-18 0 -30.5 12.5t-12.5 30.5l85 224h-226l-93 -234q-13 -33 -42 -33q-18 0 -30.5 12.5t-12.5 30.5l85 224h-188q-58 0 -58 43t52 43h230l71 182h-301q-52 0 -52 43t58 43h330l93 234q13 33 42 33q18 0 30.5 -12.5
t12.5 -30.5q0 -9 -6 -23l-80 -201h227l93 234q13 33 42 33q18 0 30.5 -12.5t12.5 -30.5q0 -9 -6 -23l-80 -201h189q58 0 58 -43t-52 -43h-230l-71 -182h301q52 0 52 -43zM770 341h-227l-71 -182h227z" />
    <glyph glyph-name="dollar" unicode="$" 
d="M660 213q0 -36 -13 -70.5t-40 -67t-77 -55t-117 -27.5v-49h-67v49q-14 1 -26 2t-39 6t-49 12.5t-48 22.5t-44 35t-30 50.5t-12 68.5t22.5 58t52.5 20q32 0 53.5 -21.5t21.5 -53.5q0 -51 -47 -70q36 -54 145 -63v227q-58 9 -98 23.5t-79 44.5q-71 55 -71 140q0 30 11 60.5
t36.5 63t77.5 55t123 27.5v49h67v-49q29 -1 56.5 -5t64 -16t63 -31t45 -53t18.5 -78q0 -40 -23 -59t-52 -19q-32 0 -53.5 20.5t-21.5 54.5q0 49 44 68q-39 44 -141 51v-200q64 -10 111.5 -32.5t72.5 -46.5t40 -53.5t19 -49.5t4 -39zM346 446v188q-73 -5 -111.5 -32
t-38.5 -62q0 -71 150 -94zM562 168q0 41 -39.5 69.5t-109.5 38.5v-216q80 7 114.5 39t34.5 69z" />
    <glyph glyph-name="percent" unicode="%" horiz-adv-x="1242" 
d="M1024 707q0 -18 -22 -40l-701 -701q-22 -22 -40 -22t-30.5 12.5t-12.5 30.5t17 35l576 576q-48 -11 -106 -11q-98 0 -217 41q12 -24 12 -79q0 -91 -52.5 -146.5t-139.5 -55.5q-93 0 -151.5 55.5t-58.5 146.5q0 89 57.5 145t152.5 56q52 0 108 -29q148 -79 287 -79
q143 0 244 91q17 17 34 17q18 0 30.5 -13t12.5 -30zM1144 145q0 -89 -52 -145t-140 -56q-93 0 -151.5 55.5t-58.5 146.5q0 89 57.5 145t152.5 56q87 0 139.5 -55t52.5 -147zM417 549q0 72 -31 108.5t-76 36.5q-25 0 -42.5 -10.5t-26 -23.5t-13 -36.5t-5 -37.5t-0.5 -38
q0 -30 1.5 -48t9 -44t26.5 -39.5t50 -13.5q44 0 75.5 35.5t31.5 110.5zM1061 146q0 72 -31 108.5t-76 36.5q-25 0 -42.5 -10.5t-26 -23.5t-13 -36.5t-5 -37.5t-0.5 -38q0 -30 1.5 -48t9 -44t26.5 -39.5t50 -13.5q44 0 75.5 35.5t31.5 110.5z" />
    <glyph glyph-name="ampersand" unicode="&#x26;" horiz-adv-x="1161" 
d="M1072 377h-101q-68 -77 -100 -112.5t-82.5 -82t-100.5 -81.5q90 -51 175 -51q114 0 117 61h83q-2 -65 -61.5 -96.5t-146.5 -31.5q-153 0 -278 54q-120 -54 -238 -54q-115 0 -188.5 42t-73.5 119q0 32 18 59.5t35 40t47 31.5l103 62q-42 91 -42 179q0 90 68.5 142.5
t153.5 52.5q70 0 116.5 -44t46.5 -104q0 -26 -15.5 -52.5t-51.5 -56t-61 -47t-75 -50.5q30 -49 77 -99t76 -74t54 -42q46 33 88 70.5t70 68.5t86 96h-63v67q136 -4 144 -4q76 0 120 4v-67zM540 563q0 34 -21.5 63t-58.5 29q-35 0 -67.5 -24.5t-32.5 -74.5q0 -75 34 -148
q146 92 146 155zM502 78q-48 29 -103 88t-93 121q-79 -45 -79 -115q0 -48 36 -85t96 -37q78 0 143 28z" />
    <glyph glyph-name="quotesingle" unicode="'" horiz-adv-x="436" 
d="M285 636l-25 -214h-84l-25 214q-3 27 17 47t50 20t50 -20t17 -47z" />
    <glyph glyph-name="parenleft" unicode="(" horiz-adv-x="597" 
d="M499 -228q0 -22 -28 -22q-23 0 -68.5 34t-73.5 60q-94 88 -137 194.5t-43 211.5q0 236 186 413q27 24 71 55.5t65 31.5q28 0 28 -22q0 -11 -9 -18q-105 -77 -157 -183q-63 -126 -63 -277q0 -134 51.5 -254.5t165.5 -203.5q12 -9 12 -20z" />
    <glyph glyph-name="parenright" unicode=")" horiz-adv-x="597" 
d="M448 250q0 -236 -186 -413q-27 -24 -71 -55.5t-65 -31.5q-28 0 -28 22q0 11 10 19q107 81 156 182q63 126 63 277q0 133 -51 253t-167 205q-11 11 -11 20q0 22 28 22q23 0 68.5 -34t73.5 -60q94 -88 137 -194.5t43 -211.5z" />
    <glyph glyph-name="asterisk" unicode="*" 
d="M645 440q0 -24 -16 -40.5t-36 -16.5q-11 0 -28 10l-156 92l21 -115q0 -4 1.5 -10t1.5 -8q0 -19 -16.5 -32.5t-37.5 -13.5t-37.5 13.5t-16.5 32.5q0 7 2 13l22 120l-139 -83q-36 -19 -45 -19q-20 0 -36 16.5t-16 40.5q0 38 41 49l143 39l-143 39q-41 11 -41 49
q0 24 16 40.5t36 16.5q11 0 28 -10l156 -92l-21 115q0 4 -1.5 10t-1.5 8q0 19 16.5 32.5t37.5 13.5t37.5 -13.5t16.5 -32.5q0 -7 -2 -13l-22 -120l139 83q36 19 45 19q20 0 36 -16.5t16 -40.5q0 -38 -41 -49l-143 -39l143 -39q41 -11 41 -49z" />
    <glyph glyph-name="plus" unicode="+" horiz-adv-x="1161" 
d="M1063 250q0 -43 -54 -43h-385v-386q0 -54 -43 -54t-43 54v386h-386q-54 0 -54 43t54 43h386v386q0 54 43 54t43 -54v-386h385q54 0 54 -43z" />
    <glyph glyph-name="comma" unicode="," horiz-adv-x="436" 
d="M320 38q0 -50 -18.5 -96.5t-43 -74.5t-46 -44.5t-30.5 -16.5q-10 0 -20 10.5t-10 19.5q0 13 18 25q78 53 92 150q-15 -11 -44 -11q-39 0 -62.5 25t-23.5 61q0 37 24 61.5t61 24.5q46 0 74.5 -38.5t28.5 -95.5z" />
    <glyph glyph-name="hyphen" unicode="-" horiz-adv-x="517" 
d="M419 162h-386v120h386v-120z" />
    <glyph glyph-name="period" unicode="." horiz-adv-x="436" 
d="M304 86q0 -35 -25.5 -60.5t-60.5 -25.5t-60.5 25.5t-25.5 60.5t25.5 60.5t60.5 25.5t60.5 -25.5t25.5 -60.5z" />
    <glyph glyph-name="slash" unicode="/" 
d="M660 707q0 -12 -8 -26l-470 -903q-14 -28 -41 -28q-18 0 -30.5 13t-12.5 30q0 12 8 26l470 903q14 28 41 28q18 0 30.5 -13t12.5 -30z" />
    <glyph glyph-name="zero" unicode="0" 
d="M685 317q0 -57 -7 -102t-27 -90t-53 -75t-88.5 -48.5t-130.5 -18.5q-74 0 -129 18t-88.5 47.5t-54 74.5t-27.5 90.5t-7 103.5q0 57 6.5 102.5t26 92.5t52.5 78t89 51t132 20q77 0 133.5 -20.5t89 -52t52 -78.5t25.5 -92t6 -101zM535 332q0 149 -16 195q-27 78 -140 78
q-52 0 -89 -19.5t-50 -53.5q-17 -48 -17 -200q0 -149 14 -202q25 -91 142 -91q114 0 141 89q15 49 15 204z" />
    <glyph glyph-name="one" unicode="1" 
d="M640 0q-49 4 -248 4t-248 -4v67h181v488q-73 -25 -162 -25h-27v67h27q152 0 237 64h21q24 0 31 -7.5t7 -30.5v-556h181v-67z" />
    <glyph glyph-name="two" unicode="2" 
d="M669 211l-39 -211h-541v31q0 17 2.5 23t14.5 15l279 203q125 90 125 183q0 66 -54 102.5t-132 36.5q-56 0 -96 -20q26 -26 26 -62q0 -39 -25 -61t-58 -22q-30 0 -56 21.5t-26 62.5q0 35 16 62t44 42t55.5 25t63 13.5t52.5 4.5t37 1q147 0 229.5 -55.5t82.5 -149.5
q0 -30 -10.5 -56.5t-24.5 -44.5t-44.5 -40t-51 -34.5t-64.5 -36.5q-53 -28 -168 -102h149q77 0 101 3q7 2 16 20t14 46h83z" />
    <glyph glyph-name="three" unicode="3" 
d="M681 181q0 -32 -15 -64t-48.5 -63.5t-98 -51t-152.5 -19.5q-140 0 -215 45t-75 121q0 40 24.5 64t62.5 24q37 0 61.5 -24.5t24.5 -61.5q0 -46 -36 -72q54 -35 150 -35q39 0 67 10t43 24t23 34.5t10 35.5t2 34q0 26 -4.5 46t-18 43t-45 36t-78.5 13h-69q-12 0 -18 1
t-11.5 7.5t-5.5 19.5q0 24 18 28q21 3 63 3q42 2 72.5 17t45.5 37.5t21 42.5t6 39q0 42 -25.5 66t-93.5 24q-77 0 -126 -35q5 -2 12 -7.5t17.5 -23.5t10.5 -40q0 -37 -24 -59t-57 -22q-31 0 -56 21.5t-25 60.5q0 71 67.5 116t185.5 45q129 0 199 -41.5t70 -106.5
q0 -62 -41.5 -102.5t-96.5 -59.5q78 -19 128.5 -63t50.5 -107z" />
    <glyph glyph-name="four" unicode="4" 
d="M701 0q-53 4 -204 4q-161 0 -210 -4v67h141v88h-371v67l362 430q9 11 16 14t26 3h71q24 0 31 -7.5t7 -30.5v-409h131v-67h-131v-88h131v-67zM445 222v358l-301 -358h301z" />
    <glyph glyph-name="five" unicode="5" 
d="M669 201q0 -90 -82.5 -154t-238.5 -64q-118 0 -188.5 47.5t-70.5 122.5q0 39 24 60t55 21q32 0 55.5 -22t23.5 -57q0 -46 -40 -69q49 -42 139 -42q48 0 81.5 12t49.5 27t25 41.5t10 41.5t1 41q0 25 -1 39.5t-7.5 39t-19 38t-38.5 24.5t-63 11q-111 0 -167 -56
q-14 -13 -19.5 -15.5t-20.5 -2.5q-24 0 -31 7.5t-7 31.5v301q0 36 22 36q5 0 15 -4q103 -28 200 -28q90 0 203 29l11 3q22 0 22 -28q0 -11 -2.5 -15.5t-12.5 -14.5q-113 -116 -284 -116q-42 0 -80 4v-110q65 34 156 34q139 0 209.5 -64t70.5 -150z" />
    <glyph glyph-name="six" unicode="6" 
d="M681 206q0 -63 -26 -103t-72 -70q-76 -50 -199 -50q-154 0 -230.5 87t-76.5 249q0 158 105.5 250t274.5 92q56 0 95.5 -13.5t58 -36.5t26 -44t7.5 -43q0 -37 -23 -57t-52 -20q-31 0 -53 21t-22 54q0 43 35 65q-26 18 -72 18q-55 0 -98.5 -18t-67.5 -44q-34 -38 -43.5 -78
t-13.5 -120q63 81 171 81q124 0 200 -60.5t76 -159.5zM524 207q0 33 -1 50t-7.5 42.5t-20 38t-39.5 22.5t-64 10q-71 0 -113 -45t-42 -104q0 -36 4.5 -62.5t18.5 -55t45.5 -44t78.5 -15.5q40 0 68 10t42 22.5t21 38t8 42.5t1 50z" />
    <glyph glyph-name="seven" unicode="7" 
d="M721 644q0 -45 -1 -49q-3 -8 -8 -13l-102 -93l-62 -55q-27 -25 -40 -39t-34 -46t-31.5 -65.5t-19 -89.5t-9.5 -126q0 -44 -22 -65q-24 -20 -53 -20q-8 0 -17 2t-24 9t-24.5 25.5t-9.5 45.5q0 159 111 306q30 40 130 131h-182q-78 0 -103 -3q-10 -1 -17 -8
q-15 -21 -22 -58h-83l43 234h83q2 -21 30 -21l218 -2h249z" />
    <glyph glyph-name="eight" unicode="8" 
d="M681 186q0 -42 -15 -75t-36.5 -54t-54 -36t-58.5 -22t-59.5 -11t-48.5 -4.5t-33 -0.5q-299 0 -299 179q0 118 144 171q-38 20 -70.5 56.5t-32.5 90.5t25 91.5t67 56t84 26t89 7.5q257 0 257 -154q0 -90 -113 -140q154 -61 154 -181zM540 506q0 99 -167 99
q-86 0 -120.5 -17t-34.5 -53q0 -21 18 -33.5t75 -37.5l141 -63q88 34 88 105zM565 136q0 41 -62 72l-200 88q-110 -44 -110 -133q0 -119 190 -119q98 0 140 23.5t42 68.5z" />
    <glyph glyph-name="nine" unicode="9" 
d="M681 328q0 -162 -101 -253.5t-261 -91.5q-19 0 -35.5 1t-50.5 8t-57.5 20t-42.5 41t-19 67q0 37 23 57t52 20q31 0 53 -21t22 -54q0 -18 -7.5 -33.5t-14.5 -22.5l-8 -6q31 -16 84 -16q109 0 164 71q18 25 28 61t11.5 59.5t2.5 64.5q-64 -81 -171 -81q-125 0 -200.5 60.5
t-75.5 159.5q0 112 103 174q78 48 201 48q153 0 226.5 -87.5t73.5 -245.5zM521 432q0 34 -4.5 60t-18 54t-43 43.5t-74.5 15.5q-36 0 -62 -6t-41.5 -20t-25 -27t-13 -36t-4.5 -37t-1 -40q0 -33 1 -50t7.5 -42.5t20 -38.5t39.5 -23t64 -10q65 0 110 42t45 115z" />
    <glyph glyph-name="colon" unicode=":" horiz-adv-x="436" 
d="M304 358q0 -35 -25.5 -60.5t-60.5 -25.5t-60.5 25.5t-25.5 60.5t25.5 60.5t60.5 25.5t60.5 -25.5t25.5 -60.5zM304 86q0 -35 -25.5 -60.5t-60.5 -25.5t-60.5 25.5t-25.5 60.5t25.5 60.5t60.5 25.5t60.5 -25.5t25.5 -60.5z" />
    <glyph glyph-name="semicolon" unicode=";" horiz-adv-x="436" 
d="M304 358q0 -35 -25.5 -60.5t-60.5 -25.5t-60.5 25.5t-25.5 60.5t25.5 60.5t60.5 25.5t60.5 -25.5t25.5 -60.5zM308 39q0 -49 -16.5 -95.5t-39 -75t-42 -45.5t-28.5 -17q-10 0 -20 10.5t-10 19.5q0 12 13 22q72 58 84 147q-14 -5 -31 -5q-39 0 -62.5 25t-23.5 61
q0 37 24 61.5t61 24.5q43 0 67 -38t24 -95z" />
    <glyph glyph-name="less" unicode="&#x3c;" horiz-adv-x="894" 
d="M797 -56q0 -11 -8.5 -20.5t-22.5 -9.5q-8 0 -22 7l-623 298q-25 12 -25 32t25 31l626 299q11 6 19 6q14 0 22.5 -9.5t8.5 -20.5q0 -19 -25 -32l-575 -275l575 -274q25 -12 25 -32z" />
    <glyph glyph-name="equal" unicode="=" horiz-adv-x="1161" 
d="M1063 384q0 -43 -52 -43h-861q-52 0 -52 43t58 43h849q58 0 58 -43zM1063 116q0 -43 -58 -43h-849q-58 0 -58 43t52 43h861q52 0 52 -43z" />
    <glyph glyph-name="greater" unicode="&#x3e;" horiz-adv-x="894" 
d="M797 251q0 -21 -25 -32l-626 -299q-10 -6 -19 -6q-14 0 -22.5 9.5t-8.5 20.5q0 20 25 32l575 275l-575 274q-25 13 -25 32q0 12 9 21t21 9q9 0 23 -7l623 -298q25 -11 25 -31z" />
    <glyph glyph-name="question" unicode="?" horiz-adv-x="718" 
d="M620 571q0 -67 -79 -103q-86 -38 -123 -78t-37 -91v-22q0 -25 -7 -31.5t-28 -6.5h-14q-22 0 -28 6t-6 27v32q0 116 136 207q12 8 17.5 13.5t12 18.5t6.5 30q0 39 -23.5 56t-101.5 17q-76 0 -121 -19q24 -20 24 -56q0 -34 -21.5 -54.5t-53.5 -20.5q-31 0 -53 20t-22 56
q0 130 249 130q107 0 168 -20q44 -13 74.5 -40.5t30.5 -70.5zM425 86q0 -35 -25.5 -60.5t-60.5 -25.5t-60.5 25.5t-25.5 60.5t25.5 60.5t60.5 25.5t60.5 -25.5t25.5 -60.5z" />
    <glyph glyph-name="at" unicode="@" horiz-adv-x="1161" 
d="M1063 85q0 -11 -10 -18q-10 -6 -46 -15q-208 -60 -422 -60q-208 0 -338 85q-69 45 -109 116.5t-40 153.5q0 65 26.5 125t81 113t151.5 85t224 32q125 0 221.5 -31.5t151.5 -84t82 -113t27 -126.5q0 -85 -44.5 -154.5t-130.5 -69.5q-97 0 -136 46q-65 -46 -173 -46
q-140 0 -214 65.5t-74 158.5t74 158.5t214 65.5q62 0 111.5 -17.5t67 -31.5t37.5 -35h38q25 0 31 -7t6 -29v-223q0 -49 31 -49q24 0 41 18t24.5 46.5t10.5 52.5t3 48q0 129 -102 215.5t-298 86.5q-102 0 -181 -25.5t-125.5 -68.5t-69.5 -95t-23 -110q0 -41 11.5 -80.5
t41 -80t73.5 -70.5t116 -49t162 -19q195 0 382 56q11 3 28 3h33q35 0 35 -22zM737 253v188q-46 74 -155 74q-74 0 -116 -46t-42 -122t42 -122t116 -46q109 0 155 74z" />
    <glyph glyph-name="A" unicode="A" horiz-adv-x="1114" 
d="M1042 0l-167 4l-181 -4v67h83l-70 146h-360l-69 -146h83v-67l-152 4q-76 0 -137 -4v67h102l290 611q8 16 17 23.5t16 8.5t22 1h76q26 0 35.5 -7t19.5 -28l290 -609h102v-67zM676 280l-149 312l-148 -312h297z" />
    <glyph glyph-name="B" unicode="B" horiz-adv-x="1057" 
d="M959 189q0 -80 -83.5 -134.5t-226.5 -54.5h-549v67h106v552h-106v67h511q138 0 223 -50t85 -125q0 -55 -53 -95t-145 -57q111 -13 174.5 -59.5t63.5 -110.5zM764 510q0 44 -41.5 76.5t-123.5 32.5h-254v-234h223q88 0 142 35.5t54 89.5zM795 191q0 22 -8.5 44t-27 44.5
t-57 36t-90.5 13.5h-267v-262h257q86 0 139.5 33.5t53.5 90.5z" />
    <glyph glyph-name="C" unicode="C" horiz-adv-x="1081" 
d="M983 230q0 -106 -106 -176.5t-282 -70.5q-102 0 -186.5 20.5t-141 55.5t-95.5 82t-56.5 97.5t-17.5 104.5q0 70 30 133t88 114.5t155.5 82t221.5 30.5q150 0 263 -70l69 59q13 11 28 11q14 0 21 -5t8 -11t1 -19v-217q0 -23 -6.5 -29t-28.5 -6h-24q-31 0 -34 18
q-5 21 -8.5 32t-13.5 34.5t-28 44.5t-44 39q-75 52 -175 52q-154 0 -251 -65q-100 -70 -100 -228q0 -150 92.5 -221.5t262.5 -71.5q113 0 191.5 48t83.5 128q1 22 7.5 27t27.5 5h13q12 0 18 -1t11.5 -7.5t5.5 -19.5z" />
    <glyph glyph-name="D" unicode="D" horiz-adv-x="1138" 
d="M1039 337q0 -149 -118.5 -243t-312.5 -94h-512v67h106v552h-106v67h512q192 0 311.5 -96.5t119.5 -252.5zM875 338q0 91 -22.5 141.5t-65.5 82.5q-78 57 -220 57h-217v-552h218q62 0 111.5 10.5t81 26.5t54 41t34 47t18 52.5t7.5 49t1 44.5z" />
    <glyph glyph-name="E" unicode="E" horiz-adv-x="978" 
d="M921 229l-58 -229h-771v67h106v544h-106v67h749l39 -206h-83q-10 46 -31 75.5t-55.5 42.5t-66.5 17t-81 4h-209v-226h89q23 0 37.5 1t32 5.5t27.5 13t17 24.5t8 39h83v-233h-83q-1 23 -8 39t-17 24.5t-27.5 13t-32 5.5t-37.5 1h-89v-251h223q53 0 88 5t72.5 20.5
t62.5 49.5t38 87h83z" />
    <glyph glyph-name="F" unicode="F" horiz-adv-x="938" 
d="M860 472h-83q-9 46 -30 75.5t-54.5 42.5t-64 17t-77.5 4h-197v-238h83q29 0 47 2.5t36 10t26.5 25t9.5 45.5h83v-233h-83q-1 28 -9.5 45.5t-26.5 25t-36 10t-47 2.5h-83v-239h132v-67q-50 4 -206 4l-188 -4v67h106v544h-106v67h729z" />
    <glyph glyph-name="G" unicode="G" horiz-adv-x="1169" 
d="M1084 203h-101v-168q0 -35 -22 -35q-6 0 -34 11t-44 20q-38 -30 -103.5 -39t-162.5 -9q-257 0 -394 107q-56 44 -90.5 110t-34.5 143q0 70 30 133t88 114.5t155.5 82t221.5 30.5q150 0 263 -70l69 59q13 11 28 11q14 0 21 -5t8 -11t1 -19v-217q0 -23 -6.5 -29t-28.5 -6
h-24q-31 0 -34 18q-5 21 -8.5 32t-13.5 34.5t-28 44.5t-44 39q-75 52 -175 52q-154 0 -251 -65q-100 -70 -100 -227q0 -83 28 -141.5t80.5 -91t119 -47t152.5 -14.5q64 0 102 5t53.5 17t18.5 21.5t3 28.5v81h-181v67q51 -4 246 -4l192 4v-67z" />
    <glyph glyph-name="H" unicode="H" horiz-adv-x="1153" 
d="M1061 0l-184 4l-184 -4v67h106v256h-445v-256h106v-67l-184 4l-184 -4v67h106v552h-106v67l184 -4l184 4v-67h-106v-229h445v229h-106v67l184 -4l184 4v-67h-106v-552h106v-67z" />
    <glyph glyph-name="I" unicode="I" horiz-adv-x="550" 
d="M464 0q-61 4 -189 4t-189 -4v67h111v552h-111v67q61 -4 189 -4t189 4v-67h-111v-552h111v-67z" />
    <glyph glyph-name="J" unicode="J" horiz-adv-x="775" 
d="M659 619h-79v-469q0 -76 -70.5 -121.5t-201.5 -45.5q-242 0 -242 130q0 42 26.5 65t60.5 23q33 0 59.5 -23t26.5 -64q0 -38 -23 -61q40 -14 91 -14q125 0 125 113v467h-137v67q50 -4 201 -4l163 4v-67z" />
    <glyph glyph-name="K" unicode="K" horiz-adv-x="1154" 
d="M1076 0q-69 4 -153 4l-182 -4v67h52l-277 269l-162 -106v-163h106v-67l-184 4l-184 -4v67h106v552h-106v67l184 -4l184 4v-67h-106v-290l444 290h-42v67l171 -4q86 0 129 4v-67h-107l-320 -210l352 -342h95v-67z" />
    <glyph glyph-name="L" unicode="L" horiz-adv-x="897" 
d="M820 229l-39 -229h-689v67h106v552h-106v67l188 -4q156 0 206 4v-67h-132v-552h152q39 0 70.5 5.5t66.5 21t59.5 49.5t34.5 86h83z" />
    <glyph glyph-name="M" unicode="M" horiz-adv-x="1394" 
d="M1290 0l-172 4l-171 -4v67h106v549h-1l-325 -587q-16 -29 -54 -29t-54 29l-317 573h-1v-535h106v-67l-152 4l-151 -4v67h106v552h-106v67h235q40 0 56 -29l302 -546l302 546q16 29 56 29h235v-67h-106v-552h106v-67z" />
    <glyph glyph-name="N" unicode="N" horiz-adv-x="1153" 
d="M1061 619h-106v-581q0 -24 -7.5 -31t-30.5 -7h-15q-17 0 -22 2t-16 12l-575 549v-496h106v-67l-152 4l-151 -4v67h106v552h-106v67h235q24 0 37 -12l500 -478v423h-106v67l152 -4l151 4v-67z" />
    <glyph glyph-name="O" unicode="O" horiz-adv-x="1122" 
d="M1024 338q0 -68 -27 -129.5t-80.5 -113t-145.5 -82t-210 -30.5t-209.5 30.5t-145.5 81.5t-81 113t-27 130q0 70 27 133.5t80.5 116t145.5 84t210 31.5t209.5 -31t145.5 -84t81 -116.5t27 -133.5zM852 355q0 148 -78 217q-79 69 -213 69q-139 0 -215 -70q-76 -72 -76 -216
q0 -139 68.5 -223.5t222.5 -84.5q149 0 220 81.5t71 226.5z" />
    <glyph glyph-name="P" unicode="P" horiz-adv-x="1017" 
d="M919 481q0 -90 -93 -144.5t-224 -54.5h-244v-215h106v-67l-184 4l-184 -4v67h106v552h-106v67h494q148 0 238.5 -57.5t90.5 -147.5zM747 481q0 32 -5 52t-22.5 42t-56.5 33t-101 11h-212v-276h211q62 0 101.5 11t57 33.5t22.5 42.5t5 51z" />
    <glyph glyph-name="Q" unicode="Q" horiz-adv-x="1122" 
d="M1032 -6q0 -70 -48.5 -129t-124.5 -59q-36 0 -63.5 13t-49.5 43.5t-34 55t-33 73.5q-59 -8 -118 -8q-118 0 -209.5 30.5t-145.5 81.5t-81 113t-27 130q0 70 27 133.5t80.5 116t145.5 84t210 31.5t209.5 -31t145.5 -84t81 -116.5t27 -133.5q0 -108 -63 -194.5t-180 -126.5
q20 -18 39.5 -27t31.5 -10.5t35 -1.5q42 0 64 4.5t26 8.5t5 12q5 22 25 22q25 0 25 -31zM860 338q0 148 -72 221q-82 82 -227 82q-148 0 -232 -87q-67 -71 -67 -216q0 -216 171 -274q-1 4 -1 12q0 42 37.5 65.5t89.5 23.5q34 0 65 -14t48.5 -28.5t48.5 -45.5q139 64 139 261
zM647 53q-33 56 -88 56q-23 0 -47 -7.5t-24 -25.5q0 -31 73 -31q46 0 86 8z" />
    <glyph glyph-name="R" unicode="R" horiz-adv-x="1103" 
d="M1082 101q0 -12 -5 -27.5t-19 -38t-48 -37.5t-82 -15q-114 0 -170 25q-23 11 -38.5 25t-23.5 26.5t-12 34.5t-4.5 36t-0.5 44q0 50 -6 70.5t-32 38.5q-47 32 -124 32h-167v-248h106v-67l-180 4l-180 -4v67h106v552h-106v67h442q162 0 264.5 -54t102.5 -136
q0 -50 -42.5 -91t-128.5 -65q86 -39 102 -129l16 -82q18 -90 88 -90q20 0 38 14.5t21 50.5q1 12 8 18t13.5 7t19.5 1q14 0 21 -1t14 -8t7 -20zM733 495q0 64 -44.5 94t-157.5 30h-181v-248h181q113 0 157.5 31t44.5 93z" />
    <glyph glyph-name="S" unicode="S" horiz-adv-x="839" 
d="M741 197q0 -24 -6 -48.5t-25 -55.5t-49 -54.5t-84 -39.5t-124 -16q-168 0 -256 49q-11 -12 -19 -18.5t-11 -9.5q-17 -15 -22.5 -18t-16.5 -3q-14 0 -21 5t-8 11t-1 19v174q0 23 6.5 29.5t29.5 6.5h12q33 0 35 -19q1 -17 2 -27t7.5 -29t16.5 -31t30 -27t48 -24t71.5 -15
t97.5 -6q51 0 89 10.5t56 24.5t28.5 32.5t12 28t1.5 18.5q0 45 -40.5 73t-90.5 37l-167 28q-127 21 -186 75q-59 55 -59 125q0 35 15 68.5t45.5 64.5t88 49.5t133.5 18.5q135 0 219 -53l44 42q11 11 28 11q14 0 21 -5t8 -11t1 -19v-175q0 -23 -6.5 -29t-28.5 -6h-13
q-21 0 -27 5t-9 22q-31 157 -238 157q-91 0 -136 -31t-45 -72q0 -74 146 -102l143 -24q47 -8 72 -14t63.5 -26t70.5 -53q48 -53 48 -123z" />
    <glyph glyph-name="T" unicode="T" horiz-adv-x="1042" 
d="M973 463h-83q-11 82 -48.5 110.5t-122.5 28.5h-120v-535h149v-67q-48 4 -227 4t-227 -4v67h149v535h-120q-85 0 -122.5 -28.5t-48.5 -110.5h-83l27 206h850z" />
    <glyph glyph-name="U" unicode="U" horiz-adv-x="1133" 
d="M1041 619h-106v-388q0 -46 -19 -88t-58.5 -79t-111 -59t-166.5 -22q-188 0 -285 72t-97 177v387h-106v67l184 -4l184 4v-67h-106v-388q0 -85 50 -133t179 -48q54 0 98 9t81.5 29.5t58 57.5t20.5 88v385h-106v67q66 -4 153 -4q33 0 153 4v-67z" />
    <glyph glyph-name="V" unicode="V" horiz-adv-x="1114" 
d="M1061 619h-98l-313 -606q-8 -14 -17.5 -21t-16 -8t-20.5 -1h-78q-14 0 -21.5 1.5t-17 9t-17.5 22.5l-311 603h-98v67l164 -4l181 4v-67h-81l270 -523l270 523h-80v67l151 -4q76 0 133 4v-67z" />
    <glyph glyph-name="W" unicode="W" horiz-adv-x="1517" 
d="M1467 619h-90l-257 -603q-6 -13 -9.5 -18.5t-14 -10t-28.5 -4.5h-63q-13 0 -20 1t-16.5 8t-15.5 21l-195 458l-194 -458q-6 -14 -15.5 -21t-16.5 -8t-20 -1h-63q-14 0 -21 1t-16 9t-16 23l-256 603h-90v67l157 -4l179 4v-67h-86l216 -506l197 464l-18 42h-89v67l157 -4
l178 4v-67h-85l216 -506l215 506h-96v67l152 -4q85 0 124 4v-67z" />
    <glyph glyph-name="X" unicode="X" horiz-adv-x="1114" 
d="M1043 0l-171 4q-133 0 -189 -4v67h55l-207 213l-207 -213h66v-67l-168 4q-67 0 -151 -4v67h122l273 280l-264 272h-111v67l171 -4q133 0 189 4v-67h-55l167 -172l167 172h-67v67l169 -4l150 4v-67h-121l-233 -239l305 -313h110v-67z" />
    <glyph glyph-name="Y" unicode="Y" horiz-adv-x="1114" 
d="M1061 619h-110l-320 -344v-208h105v-67l-179 4l-180 -4v67h106v207l-320 345h-110v67l176 -4q137 0 193 4v-67h-58l230 -247l229 247h-57v67l156 -4q78 0 139 4v-67z" />
    <glyph glyph-name="Z" unicode="Z" horiz-adv-x="919" 
d="M830 240l-23 -240h-671q-23 0 -30.5 7t-7.5 30q0 15 2 20.5t11 14.5l500 547h-173q-18 0 -32 -1t-44.5 -4t-53.5 -12.5t-48 -23.5t-40.5 -39.5t-18.5 -58.5h-83l16 206h649q14 0 21 -1.5t12 -9.5t5 -24q0 -14 -2 -19t-11 -14l-498 -545h187q28 0 47.5 1.5t50.5 6t53 15.5
t44.5 28.5t36.5 47t18 68.5h83z" />
    <glyph glyph-name="bracketleft" unicode="[" horiz-adv-x="439" 
d="M390 -250h-216v1000h216v-86h-130v-828h130v-86z" />
    <glyph glyph-name="backslash" unicode="\" horiz-adv-x="575" 
d="M510 -219q0 -14 -9.5 -22.5t-20.5 -8.5q-10 0 -17 5t-9.5 10t-6.5 15l-377 919q-6 16 -6 20q0 14 9.5 22.5t20.5 8.5q10 0 16.5 -4.5t9 -9.5t7.5 -16l377 -919q6 -16 6 -20z" />
    <glyph glyph-name="bracketright" unicode="]" horiz-adv-x="439" 
d="M265 -250h-216v86h130v828h-130v86h216v-1000z" />
    <glyph glyph-name="asciicircum" unicode="^" horiz-adv-x="556" 
d="M561 584l-12 -22l-272 123l-271 -123l-11 22l283 160z" />
    <glyph glyph-name="underscore" unicode="_" horiz-adv-x="1114" 
d="M1114 -167h-1114v84h1114v-84z" />
    <glyph glyph-name="grave" unicode="`" 
d="M470 582l-35 -76l-184 60q-53 17 -53 62q0 28 19 50t47 22q18 0 40 -13z" />
    <glyph glyph-name="a" unicode="a" horiz-adv-x="738" 
d="M716 34q0 -25 -10.5 -29.5t-60.5 -4.5q-37 0 -56 1t-44 6t-37.5 18.5t-15.5 34.5q-47 -68 -202 -68q-29 0 -55 2.5t-73 13t-75.5 39.5t-28.5 73q0 53 49.5 83t145.5 48q34 6 73.5 10t66 5t50 1.5t25.5 0.5v19q0 113 -142 113q-47 0 -84 -8q14 -19 14 -45q0 -32 -21 -53.5
t-54 -21.5q-31 0 -53 20.5t-22 55.5q0 26 10.5 45.5t31.5 30.5t40.5 18t49 10t45.5 3.5t42 0.5q147 0 211.5 -48t64.5 -118v-213q21 -10 71 -10h6q14 0 20 -1t12 -8.5t6 -23.5zM468 133v87q-277 -12 -277 -99q0 -34 35.5 -53.5t90.5 -19.5q59 0 100 16q24 9 36 22t13.5 22
t1.5 25z" />
    <glyph glyph-name="b" unicode="b" horiz-adv-x="839" 
d="M774 223q0 -98 -82 -164.5t-232 -66.5q-109 0 -193 60l-28 -52h-83v580q0 28 -11 33.5t-61 5.5v67l197 8v-285q83 43 195 43q148 0 223 -68.5t75 -160.5zM624 224q0 24 -1 39.5t-9.5 43.5t-24.5 45t-49 30.5t-80 13.5q-92 0 -152 -49q-14 -11 -16.5 -16t-2.5 -20v-182
q58 -81 157 -81q51 0 87 14t53 31.5t26.5 46t10.5 44.5t1 40z" />
    <glyph glyph-name="c" unicode="c" horiz-adv-x="678" 
d="M621 110q0 -7 -8 -22.5t-30 -37t-52 -34.5q-57 -24 -151 -24q-84 0 -148 21t-99 56t-51.5 73.5t-16.5 79.5q0 26 7 53.5t28 61t55 59t94.5 43t138.5 17.5q25 0 40.5 -0.5t45 -3.5t49 -10t40.5 -18t31.5 -30.5t10.5 -45.5q0 -34 -21.5 -55t-53.5 -21t-53.5 21.5
t-21.5 53.5q0 25 11 42q-25 5 -76 5q-88 0 -131.5 -39t-43.5 -130q0 -90 55 -131q52 -40 141 -40q95 0 127 62q7 12 12.5 14t28.5 2q15 0 22 -1t13.5 -6t6.5 -15z" />
    <glyph glyph-name="d" unicode="d" horiz-adv-x="839" 
d="M755 0l-205 -8v49q-80 -49 -186 -49q-76 0 -135.5 20t-94 53.5t-52 73t-17.5 82.5q0 97 80.5 164t232.5 67q102 0 180 -41v169q0 28 -11 33.5t-61 5.5v67l197 8v-588q0 -28 11 -33.5t61 -5.5v-67zM550 132v181q0 15 -2.5 20t-18.5 18q-56 45 -136 45q-51 0 -87 -14
t-53 -31.5t-26.5 -46t-10.5 -44.5t-1 -40q0 -20 1 -32t5 -35.5t14.5 -39t27.5 -32t46.5 -25t68.5 -8.5q106 0 172 84z" />
    <glyph glyph-name="e" unicode="e" horiz-adv-x="692" 
d="M635 110q0 -16 -24.5 -46t-69.5 -48q-60 -24 -154 -24q-88 0 -154.5 21t-103 56.5t-54.5 75t-18 81.5t17.5 81.5t52.5 73.5t97 54.5t142 20.5q133 0 205 -63q30 -27 47 -72.5t17 -91.5q0 -15 -6 -22.5t-12.5 -8.5t-19.5 -1h-389q14 -143 202 -143q109 0 144 67
q6 10 13 12t23 2h7q38 0 38 -25zM534 248q-11 152 -167 152q-32 0 -58 -7t-42 -16.5t-28 -25.5t-17.5 -28t-9 -29.5t-4 -25.5t-0.5 -20h326z" />
    <glyph glyph-name="f" unicode="f" horiz-adv-x="476" 
d="M563 603q0 -34 -22 -54t-52 -20q-27 0 -50 19.5t-23 54.5q0 19 9 37l1 3q0 3 -12 3q-54 0 -90 -28q-34 -28 -34 -85v-89h159v-67h-151v-310h90v-67q-70 4 -149 4q-77 0 -138 -4v67h72v310h-100v67h100v91q0 81 72 124t180 43q67 0 102.5 -29.5t35.5 -69.5z" />
    <glyph glyph-name="g" unicode="g" 
d="M721 383q0 -28 -18.5 -43.5t-39.5 -15.5q-24 0 -41.5 16t-17.5 43q0 10 4 21q-35 -4 -66 -15q6 -5 14 -14.5t17 -31.5t9 -45q0 -57 -57.5 -105t-186.5 -48q-89 0 -146 26q-4 -8 -4 -20q0 -28 23 -46q14 -10 26.5 -12t53.5 -2h58q69 0 100 -1t70 -6t72 -16
q35 -12 58.5 -31t34 -40t14 -36t3.5 -30q0 -38 -29 -65t-78 -41.5t-102 -21t-113 -6.5q-157 0 -239.5 36.5t-82.5 94.5q0 64 101 89q-37 41 -37 95q0 47 29 83q-55 49 -55 104q0 57 57.5 105t186.5 48q98 0 159 -32q64 41 133 41q42 0 66 -24t24 -54zM457 299
q0 20 -3.5 34.5t-14.5 30.5t-36.5 24t-64.5 8t-64.5 -8.5t-36.5 -24.5t-14 -30t-3 -35q0 -20 3.5 -34.5t14.5 -30.5t36.5 -24t64.5 -8t64.5 8.5t36.5 24.5t14 30t3 35zM596 -71q0 11 -10 19.5t-32.5 13.5t-42.5 8t-56 4t-56.5 1.5t-59.5 0.5h-57q-120 0 -120 -47
q0 -18 21 -35t72 -29t124 -12t124 12t72 29t21 35z" />
    <glyph glyph-name="h" unicode="h" horiz-adv-x="839" 
d="M776 0q-59 4 -138 4l-139 -4v67h72v231q0 55 -18 76.5t-66 21.5q-27 0 -56 -7.5t-59.5 -23.5t-50 -48t-19.5 -75v-175h72v-67q-59 4 -138 4l-139 -4v67h72v513q0 28 -11 33.5t-61 5.5v67l197 8v-336q75 94 216 94q28 0 49.5 -2t50.5 -11t48 -24.5t32.5 -46.5t13.5 -73
v-228h72v-67z" />
    <glyph glyph-name="i" unicode="i" horiz-adv-x="436" 
d="M363 0q-57 4 -129 4q-74 0 -133 -4v67h72v271q0 28 -10.5 33.5t-58.5 5.5v67l194 8v-385h65v-67zM304 603q0 -34 -25 -58.5t-61 -24.5q-35 0 -60.5 24.5t-25.5 59.5q0 34 25 58.5t61 24.5q35 0 60.5 -24.5t25.5 -59.5z" />
    <glyph glyph-name="j" unicode="j" horiz-adv-x="476" 
d="M354 -35q0 -82 -67 -124.5t-156 -42.5q-77 0 -124 27.5t-47 78.5q0 32 21 53.5t54 21.5q32 0 53.5 -21t21.5 -54q0 -22 -11 -41l-1 -3q0 -6 38 -6t65.5 29.5t27.5 84.5v369q0 13 -1 18.5t-5.5 11t-15.5 7.5q-15 3 -57 3v67l204 8v-487zM354 603q0 -34 -25 -58.5
t-61 -24.5q-35 0 -60.5 24.5t-25.5 59.5q0 34 25 58.5t61 24.5q35 0 60.5 -24.5t25.5 -59.5z" />
    <glyph glyph-name="k" unicode="k" horiz-adv-x="799" 
d="M757 0q-44 4 -116 4t-135 -4v67h15l-150 138l-99 -64v-74h72v-67q-57 4 -130 4q-62 0 -130 -4v67h72v513q0 28 -11 33.5t-61 5.5v67l197 8v-449l204 132h-15v67l147 -4q57 0 108 4v-67h-87l-173 -112l215 -198h77v-67z" />
    <glyph glyph-name="l" unicode="l" horiz-adv-x="436" 
d="M370 0q-53 4 -135 4q-74 0 -134 -4v67h72v513q0 28 -11 33.5t-61 5.5v67l197 8v-627h72v-67z" />
    <glyph glyph-name="m" unicode="m" horiz-adv-x="1242" 
d="M1180 0q-59 4 -138 4l-139 -4v67h72v230q0 56 -18.5 77.5t-66.5 21.5q-26 0 -55 -7.5t-59.5 -23.5t-50.5 -48t-20 -75v-175h72v-67q-59 4 -138 4l-139 -4v67h72v230q0 56 -18.5 77.5t-66.5 21.5q-26 0 -55 -7.5t-59.5 -23.5t-50.5 -48t-20 -75v-175h72v-67q-59 4 -138 4
l-139 -4v67h72v271q0 28 -11 33.5t-61 5.5v67l188 8v-107q16 24 38 44.5t73 41.5t115 21q77 0 121.5 -21.5t64.5 -73.5q76 95 217 95q28 0 50 -2t50.5 -11.5t47.5 -25t32.5 -46t13.5 -72.5v-228h72v-67z" />
    <glyph glyph-name="n" unicode="n" horiz-adv-x="839" 
d="M776 0q-59 4 -138 4l-139 -4v67h72v231q0 55 -18 76.5t-66 21.5q-27 0 -56 -7.5t-59.5 -23.5t-50 -48t-19.5 -75v-175h72v-67q-59 4 -138 4l-139 -4v67h72v271q0 28 -11 33.5t-61 5.5v67l188 8v-107q26 41 81 74t144 33q28 0 49.5 -2t50.5 -11t48 -24.5t32.5 -46.5
t13.5 -73v-228h72v-67z" />
    <glyph glyph-name="o" unicode="o" 
d="M701 217q0 -42 -18 -80.5t-54.5 -71.5t-101 -53t-148.5 -20t-148.5 20t-101 53t-54.5 71.5t-18 80.5q0 44 17.5 84.5t54 76t101 57t149.5 21.5q84 0 148.5 -21t101 -56.5t54.5 -76.5t18 -85zM551 229q0 23 -0.5 34.5t-3.5 33t-9.5 33t-19 27t-30.5 23.5t-45.5 14t-63.5 6
t-63.5 -6t-45.5 -14t-30.5 -23t-19 -27t-9.5 -33t-3.5 -33t-0.5 -35q0 -33 1 -50.5t10 -45.5t26 -42t51 -25.5t84 -11.5t84 11.5t51 25.5t26 42t10 45.5t1 50.5z" />
    <glyph glyph-name="p" unicode="p" horiz-adv-x="839" 
d="M774 223q0 -97 -82.5 -164t-231.5 -67q-97 0 -171 45v-164h72v-67l-139 4l-138 -4v67h72v470q0 23 -8 28.5t-47 5.5h-17v67l197 8v-44q86 44 203 44q75 0 133 -20.5t91 -54t49.5 -73t16.5 -81.5zM624 222q0 75 -43 121.5t-123 46.5q-108 0 -169 -63v-199q60 -80 156 -80
q80 0 129.5 46.5t49.5 127.5z" />
    <glyph glyph-name="q" unicode="q" horiz-adv-x="799" 
d="M755 -194l-139 4l-138 -4v67h72v166q-88 -47 -187 -47q-145 0 -221.5 68t-76.5 161q0 97 80.5 164t228.5 67q121 0 203 -73l31 73h75v-579h72v-67zM558 142v111q0 48 -47 92.5t-118 44.5q-77 0 -127.5 -44t-50.5 -125q0 -77 44 -125t121 -48q53 0 101.5 24t76.5 70z" />
    <glyph glyph-name="r" unicode="r" horiz-adv-x="622" 
d="M565 357q0 -32 -21 -52.5t-52 -20.5t-52 20.5t-21 52.5q0 22 10 39q-64 -5 -106 -61.5t-42 -137.5v-130h90v-67q-70 4 -149 4q-77 0 -138 -4v67h72v271q0 28 -11 33.5t-61 5.5v67l180 8v-121h1q23 50 68 85.5t106 35.5q53 0 89.5 -26.5t36.5 -68.5z" />
    <glyph glyph-name="s" unicode="s" horiz-adv-x="605" 
d="M540 140q0 -30 -11.5 -54.5t-27.5 -39.5t-40.5 -26t-44.5 -16.5t-46 -8t-37 -3t-26 -0.5q-93 0 -149 29q-29 -17 -30 -17q-20 -12 -33 -12q-14 0 -21 5t-8 11t-1 19v98q0 23 6.5 29.5t29.5 6.5h12q19 0 24.5 -3.5t11.5 -17.5q19 -49 56 -70.5t104 -21.5q150 0 150 67
q0 36 -53 51q-30 9 -131 23q-29 4 -43 6.5t-44 9.5t-47 16t-37 22.5t-29.5 34t-9.5 45.5q0 72 76 108q57 25 159 25q84 0 127 -15q32 15 46 15t21 -5t8 -11t1 -19v-69q0 -22 -6.5 -28.5t-28.5 -6.5h-13q-19 0 -26.5 4.5t-8.5 21.5q-3 31 -29 47t-97 16q-148 0 -148 -55
q0 -13 9 -22.5t31 -15.5t37.5 -9t50.5 -8q95 -13 127 -20.5t68 -26.5q71 -37 71 -109z" />
    <glyph glyph-name="t" unicode="t" horiz-adv-x="597" 
d="M499 119q0 -36 -16.5 -62t-43.5 -39.5t-55 -19.5t-58 -6q-174 0 -174 126v259h-108v56q73 2 114.5 61t43.5 141h83v-191h190v-67h-190v-256q0 -14 1 -22.5t6.5 -20.5t19.5 -18t36 -6q68 0 68 69v44h83v-48z" />
    <glyph glyph-name="u" unicode="u" horiz-adv-x="839" 
d="M776 0l-197 -8v65q-65 -65 -194 -65q-44 0 -75.5 4t-67 15.5t-54.5 38.5t-19 68v220q0 28 -11 33.5t-61 5.5v67l205 8v-340q0 -27 4 -37.5t27 -18.5t73 -8q29 0 55 4.5t52.5 15.5t42 34t15.5 56v180q0 28 -11 33.5t-61 5.5v67l205 8v-346q0 -28 11 -33.5t61 -5.5v-67z
" />
    <glyph glyph-name="v" unicode="v" horiz-adv-x="799" 
d="M746 377h-73l-187 -356q-10 -20 -21.5 -24.5t-32.5 -4.5h-65q-25 0 -35.5 6.5t-19.5 24.5l-186 354h-73v67q52 -4 125 -4l136 4v-67h-47l156 -298l156 298h-47v67q47 -4 113 -4q56 0 101 4v-67z" />
    <glyph glyph-name="w" unicode="w" horiz-adv-x="1081" 
d="M1031 377h-66l-150 -354q-6 -14 -15.5 -21.5t-16.5 -8.5t-20 -1h-63q-13 0 -20 1t-16.5 8t-15.5 21l-108 254l-107 -254q-6 -14 -15.5 -21t-16.5 -8t-20 -1h-63q-13 0 -20 1t-16.5 8.5t-15.5 21.5l-150 354h-66v67q51 -4 120 -4l134 4v-67h-52l120 -284l121 284h-62v67
q44 -4 106 -4q68 0 121 4v-67h-52l134 -316l135 316h-60v67q52 -4 118 -4q56 0 98 4v-67z" />
    <glyph glyph-name="x" unicode="x" horiz-adv-x="799" 
d="M741 0q-46 4 -119 4t-132 -4v67q7 0 12 1l-113 100l-113 -101h16v-67q-55 4 -123 4q-69 0 -111 -4v67h93l176 157l-173 153h-88v67q46 -4 119 -4t132 4v-67q-7 0 -12 -1l97 -86l97 87h-16v67q55 -4 123 -4q69 0 111 4v-67h-93l-160 -142l189 -168h88v-67z" />
    <glyph glyph-name="y" unicode="y" horiz-adv-x="799" 
d="M745 377h-73l-239 -448q-39 -72 -111 -101.5t-140 -29.5q-61 0 -99 31.5t-38 76.5q0 33 21 52t50 19t50 -19t21 -52q0 -26 -14 -45l-3 -5q8 -2 14 -2q33 0 60 7t43.5 16.5t30.5 25t20 25.5t14 25q24 43 24 47q0 2 -6 12l-236 365h-76v67q56 -4 127 -4q74 0 138 4v-67h-40
l162 -251l133 251h-47v67q48 -4 113 -4q47 0 101 4v-67z" />
    <glyph glyph-name="z" unicode="z" horiz-adv-x="678" 
d="M601 178l-23 -178h-483q-14 0 -20 1t-12 8.5t-6 23.5q0 13 2 17.5t11 13.5l337 324h-91q-73 0 -110.5 -18.5t-45.5 -80.5h-83l16 155h466q13 0 19.5 -1t12.5 -8t6 -22q0 -12 -2 -16.5t-11 -12.5l-335 -322h98q30 0 50.5 2t43 8.5t36.5 19t25.5 34t15.5 52.5h83z" />
    <glyph glyph-name="braceleft" unicode="{" horiz-adv-x="575" 
d="M496 -232q0 -12 -6 -15t-25 -3q-21 0 -41 1.5t-49 6t-52.5 14t-45 24t-33.5 38.5t-12 55v210q0 39 -2 47q-8 32 -41 57.5t-94 28.5q-17 1 -17 18q0 12 4.5 14.5t17.5 3.5q62 3 99 37q23 20 28 40t5 72v206q1 58 64 92.5t169 34.5q13 0 18.5 -0.5t9 -4.5t3.5 -13
q0 -12 -4.5 -14.5t-17.5 -3.5q-53 -3 -92 -28q-39 -29 -39 -80v-210q0 -19 -1 -30t-7 -31t-17.5 -33.5t-35.5 -28t-58 -23.5q60 -16 89 -48t30 -68v-237q0 -25 3 -35q23 -69 133 -76q17 -1 17 -18z" />
    <glyph glyph-name="bar" unicode="|" horiz-adv-x="319" 
d="M190 -206q0 -44 -31 -44q-30 0 -30 44v912q0 44 31 44q30 0 30 -44v-912z" />
    <glyph glyph-name="braceright" unicode="}" horiz-adv-x="575" 
d="M496 250q0 -12 -4.5 -14.5t-17.5 -3.5q-65 -4 -97 -36q-24 -22 -29 -41t-5 -72v-206q-1 -56 -62.5 -91.5t-171.5 -35.5q-13 0 -18 0.5t-9 4.5t-4 13q0 12 4.5 14.5t17.5 3.5q57 3 95 30q17 13 26 28.5t10 24.5t1 25v210q0 19 1 30t7 31t17.5 33.5t35.5 28t58 23.5
q-61 17 -89.5 48.5t-29.5 67.5v237q0 25 -3 35q-22 70 -134 76q-17 1 -17 18q0 12 6.5 15t24.5 3q38 0 72.5 -5t74 -18t63.5 -43t24 -73v-210q0 -41 3 -49q24 -79 133 -84q17 -1 17 -18z" />
    <glyph glyph-name="asciitilde" unicode="~" horiz-adv-x="556" 
d="M555 290l-54 -44q-20 -17 -57 -35q-40 -18 -73 -18q-42 0 -100 34q-65 37 -104 37q-68 0 -153 -71l-14 17l54 44q20 17 57 35q40 18 73 18q42 0 100 -34q65 -37 104 -37q68 0 153 71z" />
    <glyph glyph-name="uni00A0" unicode="&#xa0;" 
 />
    <glyph glyph-name="exclamdown" unicode="&#xa1;" horiz-adv-x="475" 
d="M324 414q0 -35 -25.5 -60.5t-60.5 -25.5t-60.5 25.5t-25.5 60.5t25.5 60.5t60.5 25.5t60.5 -25.5t25.5 -60.5zM324 -131q0 -35 -26 -57.5t-60 -22.5t-60 22.5t-26 57.5q0 13 2 28l41 332q3 22 9.5 27t26.5 5h14q20 0 26.5 -5t9.5 -27l41 -332q2 -15 2 -28z" />
    <glyph glyph-name="cent" unicode="&#xa2;" horiz-adv-x="678" 
d="M621 110q0 -7 -8 -22.5t-30 -37t-52 -34.5q-52 -22 -125 -24v-58q0 -14 -10 -23.5t-23 -9.5t-23 9.5t-10 23.5v59q-141 10 -208 77.5t-67 151.5q0 25 6 50.5t24 57t47 56.5t80.5 44t117.5 24v56q0 14 9.5 23.5t23.5 9.5t23.5 -9.5t9.5 -23.5v-54q199 -3 199 -108
q0 -34 -21.5 -55t-53.5 -21t-53.5 21.5t-21.5 53.5q0 25 11 42q-17 4 -60 5v-340h5q95 0 127 62q7 12 12.5 14t28.5 2q15 0 22 -1t13.5 -6t6.5 -15zM340 62v328q-63 -9 -94 -48.5t-31 -116.5q0 -90 55 -131q28 -22 70 -32z" />
    <glyph glyph-name="sterling" unicode="&#xa3;" horiz-adv-x="1114" 
d="M1044 148q0 -75 -54 -127t-130 -52q-22 0 -43.5 2t-48 8.5t-40.5 10t-46 16t-39.5 15t-46 18.5t-40.5 17q-14 -26 -45 -42t-82.5 -22t-87 -7.5t-100.5 -1.5q-70 0 -121 29t-51 82q0 34 20 57.5t57.5 34t74.5 14.5t85 4q56 0 117 -16q-7 19 -17 37.5t-29 49t-22 35.5h-179
v66h146q-14 34 -14 68q0 109 97 175.5t228 66.5q122 0 211 -54.5t89 -150.5q0 -31 -22 -53t-53 -22t-53 22t-22 53q0 46 39 66q-54 55 -189 55q-77 0 -134 -44.5t-57 -113.5q0 -30 12 -68h279v-66h-249q7 -13 22 -40t24 -43.5t18.5 -40.5t14.5 -45q54 -20 84 -30t77 -20
t87 -10q31 0 54 2t46.5 8.5t36 21t12.5 35.5h84zM430 102q-65 18 -124 18q-153 0 -153 -26q0 -10 7.5 -15.5t23 -8t26.5 -3t31 -0.5q52 0 80 1t63 9.5t46 24.5z" />
    <glyph glyph-name="currency" unicode="&#xa4;" horiz-adv-x="1161" 
d="M922 -91q-30 -30 -68 8l-81 80q-84 -65 -192 -65q-109 0 -193 65l-80 -80q-38 -39 -69 -8q-30 30 8 68l80 80q-65 86 -65 193q0 105 65 193l-80 80q-38 38 -8 69q31 30 69 -8l80 -80q86 64 193 64q108 0 192 -65l80 80q39 39 69 8q30 -30 -8 -68l-80 -80q65 -86 65 -193
q0 -108 -65 -192l81 -81q38 -38 7 -68zM813 250q0 96 -68 164t-164 68q-97 0 -165 -68t-68 -164t68 -164t165 -68q96 0 164 68t68 164z" />
    <glyph glyph-name="yen" unicode="&#xa5;" horiz-adv-x="1114" 
d="M1061 619h-110l-213 -229h153v-66h-214l-46 -49v-99h260v-66h-260v-43h105v-67l-179 4l-180 -4v67h106v43h-260v66h260v98l-46 50h-214v66h152l-212 229h-110v67l176 -4q137 0 193 4v-67h-58l213 -229h34l212 229h-57v67l156 -4q78 0 139 4v-67z" />
    <glyph glyph-name="brokenbar" unicode="&#xa6;" horiz-adv-x="319" 
d="M190 341q0 -14 -8.5 -23.5t-21.5 -9.5t-22 9.5t-9 23.5v365q0 44 31 44q30 0 30 -44v-365zM190 -206q0 -44 -31 -44q-30 0 -30 44v365q0 14 9 23.5t22 9.5t21.5 -9.5t8.5 -23.5v-365z" />
    <glyph glyph-name="section" unicode="&#xa7;" horiz-adv-x="910" 
d="M838 200q0 -52 -30.5 -92.5t-78.5 -57.5q15 -35 15 -70q0 -91 -85.5 -142.5t-203.5 -51.5q-110 0 -190 46.5t-80 130.5q0 31 22 53t53 22t53 -22t22 -53q0 -33 -25 -56q37 -15 145 -15q71 0 119 20.5t48 67.5q0 21 -11.5 35.5t-35 22t-42 11t-50.5 6.5l-161 20
q-104 12 -177 73.5t-73 151.5q0 52 30.5 92t78.5 57q-15 37 -15 71q0 91 85.5 142.5t203.5 51.5q110 0 190 -46.5t80 -130.5q0 -31 -22 -53t-53 -22t-53 22t-22 53q0 33 25 56q-37 15 -145 15q-71 0 -119 -20.5t-48 -67.5q0 -21 11.5 -35.5t35 -22t42 -11t50.5 -6.5l161 -20
q104 -12 177 -73.5t73 -151.5zM706 200q0 41 -38.5 63.5t-95.5 28.5l-161 20q-95 11 -164 60q-19 -9 -31 -28.5t-12 -43.5q0 -41 38.5 -63.5t95.5 -28.5l161 -20q98 -13 164 -61q19 9 31 28.5t12 44.5z" />
    <glyph glyph-name="dieresis" unicode="&#xa8;" 
d="M315 602q0 -30 -23 -52t-55 -22q-31 0 -54 21.5t-23 53.5q0 31 22.5 53t54.5 22t55 -22t23 -54zM599 602q0 -30 -23 -52t-55 -22q-31 0 -54 21.5t-23 53.5q0 31 22.5 53t54.5 22t55 -22t23 -54z" />
    <glyph glyph-name="copyright" unicode="&#xa9;" horiz-adv-x="686" 
d="M686 343q0 -142 -100.5 -242.5t-242.5 -100.5t-242.5 100.5t-100.5 242.5t100.5 242.5t242.5 100.5q143 0 243 -100t100 -243zM600 343q0 107 -75 182t-182 75t-182 -75t-75 -182t75 -182t182 -75t182 75t75 182zM470 306q0 -35 -35 -58.5t-94 -23.5q-82 0 -123.5 35
t-41.5 84t42 84.5t122 35.5q50 0 88 -24l23 20q5 4 9 4q10 0 10 -12v-72q0 -7 -2 -9.5t-10 -2.5h-8q-10 0 -11 6q-9 34 -31 50q-24 17 -58 17q-51 0 -84 -21q-33 -24 -33 -76q0 -97 118 -97q38 0 64 16t27 42q1 7 3 9t9 2h4q12 0 12 -9z" />
    <glyph glyph-name="ordfeminine" unicode="&#xaa;" horiz-adv-x="659" 
d="M606 408q0 -17 -9 -20.5t-51 -3.5q-31 0 -47 1t-37.5 4.5t-31.5 12.5t-13 24q-39 -48 -169 -48q-25 0 -46.5 2t-61 9t-63.5 27.5t-24 51.5q0 37 41.5 58t122.5 34q37 5 78.5 8t71 3.5t30.5 0.5v13q0 79 -119 79q-39 0 -71 -6q12 -12 12 -31q0 -23 -17.5 -38t-45.5 -15
q-26 0 -44.5 14.5t-18.5 39.5q0 21 14.5 36.5t32.5 22.5t48 11t46.5 4.5t42.5 0.5q123 0 177.5 -33.5t54.5 -82.5v-149q18 -7 60 -7h5q11 0 16.5 -1t10.5 -6t5 -16zM573 325q0 -10 -9.5 -16.5t-23.5 -6.5h-421q-14 0 -23.5 6.5t-9.5 16.5t9.5 16.5t23.5 6.5h421
q14 0 23.5 -6.5t9.5 -16.5zM397 477v61q-232 -6 -232 -69q0 -24 29.5 -37.5t75.5 -13.5q50 0 84 11q20 6 30 15t11.5 15.5t1.5 17.5z" />
    <glyph glyph-name="guillemotleft" unicode="&#xab;" horiz-adv-x="839" 
d="M419 22q0 -9 -6.5 -15.5t-15.5 -6.5h-12q-13 0 -20 12q-61 121 -177 191q-10 7 -10 19t10 19q115 69 177 191q6 12 20 12h12q9 0 15.5 -6t6.5 -16q0 -4 -1 -6q-32 -106 -100 -194q69 -89 100 -194q1 -2 1 -6zM661 22q0 -9 -6.5 -15.5t-15.5 -6.5h-12q-13 0 -20 12
q-61 121 -177 191q-10 7 -10 19t10 19q115 69 177 191q6 12 20 12h12q9 0 15.5 -6t6.5 -16q0 -4 -1 -6q-32 -106 -100 -194q69 -89 100 -194q1 -2 1 -6z" />
    <glyph glyph-name="logicalnot" unicode="&#xac;" horiz-adv-x="1161" 
d="M1063 116q0 -18 -12.5 -30.5t-30.5 -12.5t-30.5 12.5t-12.5 30.5v225h-836q-18 0 -30.5 12.5t-12.5 30.5t12.5 30.5t30.5 12.5h879q18 0 30.5 -12.5t12.5 -30.5v-268z" />
    <glyph glyph-name="uni00AD" unicode="&#xad;" horiz-adv-x="517" 
d="M419 162h-386v120h386v-120z" />
    <glyph glyph-name="registered" unicode="&#xae;" horiz-adv-x="686" 
d="M686 343q0 -142 -100.5 -242.5t-242.5 -100.5t-242.5 100.5t-100.5 242.5t100.5 242.5t242.5 100.5q143 0 243 -100t100 -243zM600 343q0 107 -75 182t-182 75t-182 -75t-75 -182t75 -182t182 -75t182 75t75 182zM522 266q0 -6 -2.5 -14t-15 -17t-33.5 -9q-37 0 -57 9
q-18 8 -22 19.5t-4 35.5q0 27 -13 36q-16 11 -41 11h-55v-83h35v-22l-60 1l-60 -1v22h36v183h-36v23h147q54 0 88 -18t34 -45q0 -36 -57 -52q28 -13 34 -43l5 -27q7 -30 30 -30q17 0 19 22q1 8 14 8q14 0 14 -9zM406 396q0 21 -14.5 31t-52.5 10h-60v-82h60q67 0 67 41z" />
    <glyph glyph-name="macron" unicode="&#xaf;" 
d="M640 568h-522v71h522v-71z" />
    <glyph glyph-name="degree" unicode="&#xb0;" horiz-adv-x="569" 
d="M486 485q0 -83 -59 -142.5t-143 -59.5q-83 0 -142 59.5t-59 142.5t59 142t142 59q84 0 143 -59t59 -142zM400 485q0 47 -34 81t-82 34q-47 0 -81 -34t-34 -81q0 -48 34 -82t81 -34q48 0 82 34t34 82z" />
    <glyph glyph-name="plusminus" unicode="&#xb1;" horiz-adv-x="1161" 
d="M1063 43q0 -43 -54 -43h-857q-54 0 -54 43t54 43h386v218h-386q-54 0 -54 43t54 43h386v250q0 54 43 54t43 -54v-250h385q54 0 54 -43t-54 -43h-385v-218h385q54 0 54 -43z" />
    <glyph glyph-name="two.superior" unicode="&#xb2;" horiz-adv-x="546" 
d="M482 433l-28 -126h-390v18q0 11 1.5 14.5t10.5 8.5l201 122q90 53 90 110q0 39 -38.5 61t-95.5 22q-41 0 -69 -12q19 -14 19 -37t-18 -36.5t-42 -13.5q-22 0 -40.5 12.5t-18.5 37.5q0 89 193 89q106 0 165.5 -33t59.5 -90q0 -42 -33 -67.5t-108 -59.5q-30 -14 -121 -61
h108q55 0 72 2q14 2 22 39h60z" />
    <glyph glyph-name="three.superior" unicode="&#xb3;" horiz-adv-x="546" 
d="M490 415q0 -45 -53 -82t-173 -37q-100 0 -154.5 27.5t-54.5 72.5q0 24 18 38.5t45 14.5t44.5 -14.5t17.5 -37.5q0 -27 -26 -43q39 -21 108 -21q35 0 57.5 8t31.5 22.5t12 26t3 26.5q0 16 -3 27.5t-12.5 25.5t-32.5 22t-57 8h-49q-9 0 -13.5 0.5t-8.5 4t-4 11.5
q0 15 13 17q10 2 46 2q57 2 80.5 28t23.5 54q0 54 -85 54q-55 0 -91 -21l3 -1q2 -2 5 -4t7 -6t7 -8.5t5 -10.5t2 -13q0 -22 -17.5 -35.5t-41.5 -13.5q-22 0 -40 13t-18 37q0 42 49 69t133 27q93 0 143.5 -25t50.5 -64q0 -37 -30 -61.5t-70 -35.5q57 -11 93 -37.5t36 -64.5z
" />
    <glyph glyph-name="acute" unicode="&#xb4;" 
d="M560 628q0 -45 -53 -62l-184 -60l-35 76l166 105q22 13 40 13q28 0 47 -22t19 -50z" />
    <glyph glyph-name="uni00B5" unicode="&#xb5;" horiz-adv-x="839" 
d="M777 0l-198 -8v64q-69 -64 -195 -64q-54 0 -82 4v-123h72v-67l-139 4l-139 -4v67h72v463q0 14 -0.5 20t-5 11t-13.5 7q-12 3 -53 3v67l206 8v-338q0 -29 4 -40t27 -18.5t74 -7.5q72 0 117 26q22 13 33 30.5t12.5 27.5t1.5 27v177q0 14 -0.5 20t-5 11t-13.5 7q-12 3 -53 3
v67l206 8v-344q0 -14 0.5 -20t5 -11t13.5 -7q12 -3 53 -3v-67z" />
    <glyph glyph-name="paragraph" unicode="&#xb6;" horiz-adv-x="703" 
d="M670 663q0 -30 -45 -30h-51v-783q0 -44 -31 -44q-30 0 -30 44v783h-80v-783q0 -44 -31 -44q-30 0 -30 44v370q-138 8 -223 72.5t-85 164.5q0 102 85 169.5t202 67.5h274q45 0 45 -31z" />
    <glyph glyph-name="periodcentered" unicode="&#xb7;" horiz-adv-x="1161" 
d="M667 343q0 -35 -25.5 -60.5t-60.5 -25.5t-60.5 25.5t-25.5 60.5t25.5 60.5t60.5 25.5t60.5 -25.5t25.5 -60.5z" />
    <glyph glyph-name="cedilla" unicode="&#xb8;" horiz-adv-x="678" 
d="M567 -112q0 -65 -115 -88q-73 -15 -191 -15h-69v56h54q188 0 188 47q0 46 -102 46h-19v56h42q107 0 159.5 -23.5t52.5 -78.5z" />
    <glyph glyph-name="one.superior" unicode="&#xb9;" horiz-adv-x="559" 
d="M461 307q-35 2 -179 2q-143 0 -178 -2v40h130v293q-53 -15 -117 -15h-19v40h19q110 0 171 38h15q17 0 22 -4.5t5 -18.5v-333h131v-40z" />
    <glyph glyph-name="ordmasculine" unicode="&#xba;" horiz-adv-x="637" 
d="M589 536q0 -64 -67 -111t-204 -47q-136 0 -203 47.5t-67 110.5q0 67 66.5 117t203.5 50q136 0 203.5 -50t67.5 -117zM556 325q0 -10 -9.5 -16.5t-23.5 -6.5h-409q-14 0 -23.5 6.5t-9.5 16.5t9.5 16.5t23.5 6.5h409q14 0 23.5 -6.5t9.5 -16.5zM463 544q0 28 -2.5 43
t-15 36t-44 31t-83.5 10q-41 0 -70 -8t-43 -17.5t-21.5 -28.5t-8.5 -31t-1 -35q0 -29 2.5 -44.5t15 -36.5t44 -31t82.5 -10q52 0 83.5 10t44 31t15 36.5t2.5 44.5z" />
    <glyph glyph-name="guillemotright" unicode="&#xbb;" horiz-adv-x="839" 
d="M662 222q0 -12 -11 -19q-114 -70 -177 -191q-7 -12 -19 -12h-12q-10 0 -16 6.5t-6 15.5v6q31 105 100 194q-68 88 -100 194v6q0 22 22 22h12q13 0 19 -12q64 -122 177 -191q11 -7 11 -19zM420 222q0 -12 -11 -19q-114 -70 -177 -191q-7 -12 -19 -12h-12q-10 0 -16 6.5
t-6 15.5v6q31 105 100 194q-68 88 -100 194v6q0 22 22 22h12q13 0 19 -12q64 -122 177 -191q11 -7 11 -19z" />
    <glyph glyph-name="onequarter" unicode="&#xbc;" horiz-adv-x="1255" 
d="M461 307q-35 2 -179 2q-143 0 -178 -2v40h130v293q-53 -15 -117 -15h-19v40h19q110 0 171 38h15q17 0 22 -4.5t5 -18.5v-333h131v-40zM1157 0q-38 2 -147 2q-116 0 -151 -2v40h101v53h-267v40l261 258q10 10 30 10h51q17 0 22.5 -4t5.5 -18v-246h94v-40h-94v-53h94v-40z
M1037 666q0 -17 -12 -29l-607 -646q-12 -14 -31 -14q-18 0 -30.5 12.5t-12.5 30.5t12 29l606 647q13 13 32 13q17 0 30 -12.5t13 -30.5zM973 133v215l-217 -215h217z" />
    <glyph glyph-name="onehalf" unicode="&#xbd;" horiz-adv-x="1255" 
d="M461 307q-35 2 -179 2q-143 0 -178 -2v40h130v293q-53 -15 -117 -15h-19v40h19q110 0 171 38h15q17 0 22 -4.5t5 -18.5v-333h131v-40zM1157 127l-28 -127h-390v19q0 7 0.5 10t3 5.5t9.5 6.5l200 122q90 54 90 110q0 39 -38.5 61t-94.5 22q-42 0 -70 -12q19 -14 19 -37
t-18 -36.5t-42 -13.5q-21 0 -40 13.5t-19 37.5q0 25 17.5 43t39.5 26.5t54 13.5t48 5.5t34 0.5q106 0 165.5 -33.5t59.5 -89.5q0 -23 -9 -40.5t-33 -34t-40.5 -25.5t-57.5 -28q-38 -16 -121 -61h107q55 0 73 2q13 2 21 40h60zM974 666q0 -17 -12 -29l-606 -646
q-12 -14 -32 -14q-18 0 -30.5 12.5t-12.5 30.5q0 17 12 29l606 647q13 13 32 13q18 0 30.5 -12.5t12.5 -30.5z" />
    <glyph glyph-name="threequarters" unicode="&#xbe;" horiz-adv-x="1255" 
d="M546 415q0 -45 -53 -82t-173 -37q-101 0 -155 27t-54 73q0 24 18 38.5t45 14.5t44 -14.5t17 -37.5q0 -28 -25 -43q38 -21 108 -21q104 0 104 83q0 15 -3 27t-13 26t-32.5 22t-56.5 8h-50q-9 0 -13 0.5t-8 4t-4 11.5q0 15 13 17q10 2 45 2q57 2 81 28t24 54q0 54 -86 54
q-54 0 -91 -21q29 -15 29 -43q0 -22 -17.5 -35.5t-40.5 -13.5t-41 13t-18 37q0 42 49 69t134 27q93 0 143 -25t50 -64q0 -37 -30 -61.5t-69 -35.5q57 -11 93 -37.5t36 -64.5zM1157 0q-38 2 -147 2q-116 0 -151 -2v40h101v53h-267v40l261 258q10 10 30 10h51q17 0 22.5 -4
t5.5 -18v-246h94v-40h-94v-53h94v-40zM1037 666q0 -17 -12 -29l-607 -646q-12 -14 -31 -14q-18 0 -30.5 12.5t-12.5 30.5t12 29l606 647q13 13 32 13q17 0 30 -12.5t13 -30.5zM973 133v215l-217 -215h217z" />
    <glyph glyph-name="questiondown" unicode="&#xbf;" horiz-adv-x="718" 
d="M425 414q0 -35 -25.5 -60.5t-60.5 -25.5t-60.5 25.5t-25.5 60.5t25.5 60.5t60.5 25.5t60.5 -25.5t25.5 -60.5zM620 -72q0 -31 -12.5 -54.5t-38 -37t-49.5 -22t-61.5 -12t-57.5 -4t-54 -0.5q-109 0 -163 22q-86 34 -86 109q0 66 69 103q46 24 75 50.5t40 53.5t13.5 42.5
t2.5 39.5v10q0 22 6 27.5t28 5.5h14q24 0 29.5 -7.5t5.5 -35.5q0 -77 -26 -126t-83 -104q-24 -22 -24 -65q0 -42 16 -55.5t82 -13.5q102 0 148 19q-24 20 -24 56q0 34 21.5 54.5t53.5 20.5q31 0 53 -20t22 -56z" />
    <glyph glyph-name="Agrave" unicode="&#xc0;" horiz-adv-x="1114" 
d="M1042 0l-167 4l-181 -4v67h83l-70 146h-360l-69 -146h83v-67l-152 4q-76 0 -137 -4v67h102l290 611q8 16 17 23.5t16 8.5t22 1h76q26 0 35.5 -7t19.5 -28l290 -609h102v-67zM676 280l-149 312l-148 -312h297zM648 827l-35 -76l-184 60q-53 17 -53 62q0 28 19 50t47 22
q18 0 40 -13z" />
    <glyph glyph-name="Aacute" unicode="&#xc1;" horiz-adv-x="1114" 
d="M1042 0l-167 4l-181 -4v67h83l-70 146h-360l-69 -146h83v-67l-152 4q-76 0 -137 -4v67h102l290 611q8 16 17 23.5t16 8.5t22 1h76q26 0 35.5 -7t19.5 -28l290 -609h102v-67zM676 280l-149 312l-148 -312h297zM738 873q0 -45 -53 -62l-184 -60l-35 76l166 105q22 13 40 13
q28 0 47 -22t19 -50z" />
    <glyph glyph-name="Acircumflex" unicode="&#xc2;" horiz-adv-x="1114" 
d="M1042 0l-167 4l-181 -4v67h83l-70 146h-360l-69 -146h83v-67l-152 4q-76 0 -137 -4v67h102l290 611q8 16 17 23.5t16 8.5t22 1h76q26 0 35.5 -7t19.5 -28l290 -609h102v-67zM676 280l-149 312l-148 -312h297zM732 765l-16 -24l-160 58l-160 -58l-14 24l175 141z" />
    <glyph glyph-name="Atilde" unicode="&#xc3;" horiz-adv-x="1114" 
d="M1042 0l-167 4l-181 -4v67h83l-70 146h-360l-69 -146h83v-67l-152 4q-76 0 -137 -4v67h102l290 611q8 16 17 23.5t16 8.5t22 1h76q26 0 35.5 -7t19.5 -28l290 -609h102v-67zM676 280l-149 312l-148 -312h297zM798 853q-36 -30 -48.5 -41.5t-21.5 -18.5q-64 -52 -108 -52
q-30 0 -82 30q-40 26 -72 26q-49 0 -113 -56l-37 43q36 30 48.5 41.5t21.5 18.5q64 52 108 52q30 0 82 -30q40 -26 72 -26q49 0 113 56z" />
    <glyph glyph-name="Adieresis" unicode="&#xc4;" horiz-adv-x="1114" 
d="M1042 0l-167 4l-181 -4v67h83l-70 146h-360l-69 -146h83v-67l-152 4q-76 0 -137 -4v67h102l290 611q8 16 17 23.5t16 8.5t22 1h76q26 0 35.5 -7t19.5 -28l290 -609h102v-67zM676 280l-149 312l-148 -312h297zM467 815q0 -30 -23 -52t-55 -22q-31 0 -54 21.5t-23 53.5
q0 31 22.5 53t54.5 22t55 -22t23 -54zM803 815q0 -30 -23 -52t-55 -22q-31 0 -54 21.5t-23 53.5q0 31 22.5 53t54.5 22t55 -22t23 -54z" />
    <glyph glyph-name="Aring" unicode="&#xc5;" horiz-adv-x="1114" 
d="M1042 0l-167 4l-181 -4v67h83l-70 146h-360l-69 -146h83v-67l-152 4q-76 0 -137 -4v67h102l290 611q8 16 17 23.5t16 8.5t22 1h76q26 0 35.5 -7t19.5 -28l290 -609h102v-67zM676 280l-149 312l-148 -312h297zM629 795q0 11 -3.5 18t-7.5 11t-15 5.5t-19.5 2t-26.5 0.5
q-43 0 -57.5 -5.5t-14.5 -31.5q0 -11 3.5 -18t7.5 -11t15 -5.5t19.5 -2t26.5 -0.5q43 0 57.5 5.5t14.5 31.5zM718 796q0 -35 -39.5 -60t-121.5 -25t-121.5 25t-39.5 60q0 31 38 57t123 26q84 0 122.5 -25.5t38.5 -57.5z" />
    <glyph glyph-name="AE" unicode="&#xc6;" horiz-adv-x="1339" 
d="M1282 229l-58 -229h-685v67h79v230h-235l-106 -230h83v-67l-151 4q-77 0 -138 -4v67h102l256 552h-47v67h820l39 -206h-83q-7 37 -22.5 63.5t-33 41t-45.5 22.5t-52 10t-59 2h-179v-255h95q41 0 63.5 4t41 23t19.5 56h83v-233h-83q-1 37 -19.5 56t-41 23t-63.5 4h-95
v-230h192q49 0 82.5 5.5t67 21.5t55.5 49.5t35 85.5h83zM618 364v255h-85l-118 -255h203z" />
    <glyph glyph-name="Ccedilla" unicode="&#xc7;" horiz-adv-x="1081" 
d="M983 230q0 -93 -82.5 -160t-224.5 -83q146 -12 146 -99q0 -65 -115 -88q-73 -15 -191 -15h-69v56h54q188 0 188 47q0 46 -102 46h-19v49q-120 3 -213 35.5t-147.5 84t-82 112.5t-27.5 128q0 70 30 133t88 114.5t155.5 82t221.5 30.5q150 0 263 -70l69 59q13 11 28 11
q14 0 21 -5t8 -11t1 -19v-217q0 -23 -6.5 -29t-28.5 -6h-24q-31 0 -34 18q-5 21 -8.5 32t-13.5 34.5t-28 44.5t-44 39q-75 52 -175 52q-154 0 -251 -65q-100 -70 -100 -228q0 -150 92.5 -221.5t262.5 -71.5q113 0 191.5 48t83.5 128q1 22 7.5 27t27.5 5h13q12 0 18 -1
t11.5 -7.5t5.5 -19.5z" />
    <glyph glyph-name="Egrave" unicode="&#xc8;" horiz-adv-x="978" 
d="M921 229l-58 -229h-771v67h106v544h-106v67h749l39 -206h-83q-10 46 -31 75.5t-55.5 42.5t-66.5 17t-81 4h-209v-226h89q23 0 37.5 1t32 5.5t27.5 13t17 24.5t8 39h83v-233h-83q-1 23 -8 39t-17 24.5t-27.5 13t-32 5.5t-37.5 1h-89v-251h223q53 0 88 5t72.5 20.5
t62.5 49.5t38 87h83zM580 827l-35 -76l-184 60q-53 17 -53 62q0 28 19 50t47 22q18 0 40 -13z" />
    <glyph glyph-name="Eacute" unicode="&#xc9;" horiz-adv-x="978" 
d="M921 229l-58 -229h-771v67h106v544h-106v67h749l39 -206h-83q-10 46 -31 75.5t-55.5 42.5t-66.5 17t-81 4h-209v-226h89q23 0 37.5 1t32 5.5t27.5 13t17 24.5t8 39h83v-233h-83q-1 23 -8 39t-17 24.5t-27.5 13t-32 5.5t-37.5 1h-89v-251h223q53 0 88 5t72.5 20.5
t62.5 49.5t38 87h83zM670 873q0 -45 -53 -62l-184 -60l-35 76l166 105q22 13 40 13q28 0 47 -22t19 -50z" />
    <glyph glyph-name="Ecircumflex" unicode="&#xca;" horiz-adv-x="978" 
d="M921 229l-58 -229h-771v67h106v544h-106v67h749l39 -206h-83q-10 46 -31 75.5t-55.5 42.5t-66.5 17t-81 4h-209v-226h89q23 0 37.5 1t32 5.5t27.5 13t17 24.5t8 39h83v-233h-83q-1 23 -8 39t-17 24.5t-27.5 13t-32 5.5t-37.5 1h-89v-251h223q53 0 88 5t72.5 20.5
t62.5 49.5t38 87h83zM664 765l-16 -24l-160 58l-160 -58l-14 24l175 141z" />
    <glyph glyph-name="Edieresis" unicode="&#xcb;" horiz-adv-x="978" 
d="M921 229l-58 -229h-771v67h106v544h-106v67h749l39 -206h-83q-10 46 -31 75.5t-55.5 42.5t-66.5 17t-81 4h-209v-226h89q23 0 37.5 1t32 5.5t27.5 13t17 24.5t8 39h83v-233h-83q-1 23 -8 39t-17 24.5t-27.5 13t-32 5.5t-37.5 1h-89v-251h223q53 0 88 5t72.5 20.5
t62.5 49.5t38 87h83zM399 815q0 -30 -23 -52t-55 -22q-31 0 -54 21.5t-23 53.5q0 31 22.5 53t54.5 22t55 -22t23 -54zM735 815q0 -30 -23 -52t-55 -22q-31 0 -54 21.5t-23 53.5q0 31 22.5 53t54.5 22t55 -22t23 -54z" />
    <glyph glyph-name="Igrave" unicode="&#xcc;" horiz-adv-x="550" 
d="M464 0q-61 4 -189 4t-189 -4v67h111v552h-111v67q61 -4 189 -4t189 4v-67h-111v-552h111v-67zM366 827l-35 -76l-184 60q-53 17 -53 62q0 28 19 50t47 22q18 0 40 -13z" />
    <glyph glyph-name="Iacute" unicode="&#xcd;" horiz-adv-x="550" 
d="M464 0q-61 4 -189 4t-189 -4v67h111v552h-111v67q61 -4 189 -4t189 4v-67h-111v-552h111v-67zM456 873q0 -45 -53 -62l-184 -60l-35 76l166 105q22 13 40 13q28 0 47 -22t19 -50z" />
    <glyph glyph-name="Icircumflex" unicode="&#xce;" horiz-adv-x="550" 
d="M464 0q-61 4 -189 4t-189 -4v67h111v552h-111v67q61 -4 189 -4t189 4v-67h-111v-552h111v-67zM450 765l-16 -24l-160 58l-160 -58l-14 24l175 141z" />
    <glyph glyph-name="Idieresis" unicode="&#xcf;" horiz-adv-x="550" 
d="M464 0q-61 4 -189 4t-189 -4v67h111v552h-111v67q61 -4 189 -4t189 4v-67h-111v-552h111v-67zM185 815q0 -30 -23 -52t-55 -22q-31 0 -54 21.5t-23 53.5q0 31 22.5 53t54.5 22t55 -22t23 -54zM521 815q0 -30 -23 -52t-55 -22q-31 0 -54 21.5t-23 53.5q0 31 22.5 53
t54.5 22t55 -22t23 -54z" />
    <glyph glyph-name="Eth" unicode="&#xd0;" horiz-adv-x="1138" 
d="M1039 337q0 -149 -118.5 -243t-312.5 -94h-512v67h106v243h-106v66h106v243h-106v67h512q192 0 311.5 -96.5t119.5 -252.5zM875 338q0 91 -22.5 141.5t-65.5 82.5q-78 57 -220 57h-217v-243h219v-66h-219v-243h218q62 0 111.5 10.5t81 26.5t54 41t34 47t18 52.5t7.5 49
t1 44.5z" />
    <glyph glyph-name="Ntilde" unicode="&#xd1;" horiz-adv-x="1153" 
d="M1061 619h-106v-581q0 -24 -7.5 -31t-30.5 -7h-15q-17 0 -22 2t-16 12l-575 549v-496h106v-67l-152 4l-151 -4v67h106v552h-106v67h235q24 0 37 -12l500 -478v423h-106v67l152 -4l151 4v-67zM817 853q-36 -30 -48.5 -41.5t-21.5 -18.5q-64 -52 -108 -52q-30 0 -82 30
q-40 26 -72 26q-49 0 -113 -56l-37 43q36 30 48.5 41.5t21.5 18.5q64 52 108 52q30 0 82 -30q40 -26 72 -26q49 0 113 56z" />
    <glyph glyph-name="Ograve" unicode="&#xd2;" horiz-adv-x="1122" 
d="M1024 338q0 -68 -27 -129.5t-80.5 -113t-145.5 -82t-210 -30.5t-209.5 30.5t-145.5 81.5t-81 113t-27 130q0 70 27 133.5t80.5 116t145.5 84t210 31.5t209.5 -31t145.5 -84t81 -116.5t27 -133.5zM852 355q0 148 -78 217q-79 69 -213 69q-139 0 -215 -70q-76 -72 -76 -216
q0 -139 68.5 -223.5t222.5 -84.5q149 0 220 81.5t71 226.5zM652 827l-35 -76l-184 60q-53 17 -53 62q0 28 19 50t47 22q18 0 40 -13z" />
    <glyph glyph-name="Oacute" unicode="&#xd3;" horiz-adv-x="1122" 
d="M1024 338q0 -68 -27 -129.5t-80.5 -113t-145.5 -82t-210 -30.5t-209.5 30.5t-145.5 81.5t-81 113t-27 130q0 70 27 133.5t80.5 116t145.5 84t210 31.5t209.5 -31t145.5 -84t81 -116.5t27 -133.5zM852 355q0 148 -78 217q-79 69 -213 69q-139 0 -215 -70q-76 -72 -76 -216
q0 -139 68.5 -223.5t222.5 -84.5q149 0 220 81.5t71 226.5zM742 873q0 -45 -53 -62l-184 -60l-35 76l166 105q22 13 40 13q28 0 47 -22t19 -50z" />
    <glyph glyph-name="Ocircumflex" unicode="&#xd4;" horiz-adv-x="1122" 
d="M1024 338q0 -68 -27 -129.5t-80.5 -113t-145.5 -82t-210 -30.5t-209.5 30.5t-145.5 81.5t-81 113t-27 130q0 70 27 133.5t80.5 116t145.5 84t210 31.5t209.5 -31t145.5 -84t81 -116.5t27 -133.5zM852 355q0 148 -78 217q-79 69 -213 69q-139 0 -215 -70q-76 -72 -76 -216
q0 -139 68.5 -223.5t222.5 -84.5q149 0 220 81.5t71 226.5zM736 765l-16 -24l-160 58l-160 -58l-14 24l175 141z" />
    <glyph glyph-name="Otilde" unicode="&#xd5;" horiz-adv-x="1122" 
d="M1024 338q0 -68 -27 -129.5t-80.5 -113t-145.5 -82t-210 -30.5t-209.5 30.5t-145.5 81.5t-81 113t-27 130q0 70 27 133.5t80.5 116t145.5 84t210 31.5t209.5 -31t145.5 -84t81 -116.5t27 -133.5zM852 355q0 148 -78 217q-79 69 -213 69q-139 0 -215 -70q-76 -72 -76 -216
q0 -139 68.5 -223.5t222.5 -84.5q149 0 220 81.5t71 226.5zM802 853q-36 -30 -48.5 -41.5t-21.5 -18.5q-64 -52 -108 -52q-30 0 -82 30q-40 26 -72 26q-49 0 -113 -56l-37 43q36 30 48.5 41.5t21.5 18.5q64 52 108 52q30 0 82 -30q40 -26 72 -26q49 0 113 56z" />
    <glyph glyph-name="Odieresis" unicode="&#xd6;" horiz-adv-x="1122" 
d="M1024 338q0 -68 -27 -129.5t-80.5 -113t-145.5 -82t-210 -30.5t-209.5 30.5t-145.5 81.5t-81 113t-27 130q0 70 27 133.5t80.5 116t145.5 84t210 31.5t209.5 -31t145.5 -84t81 -116.5t27 -133.5zM852 355q0 148 -78 217q-79 69 -213 69q-139 0 -215 -70q-76 -72 -76 -216
q0 -139 68.5 -223.5t222.5 -84.5q149 0 220 81.5t71 226.5zM471 815q0 -30 -23 -52t-55 -22q-31 0 -54 21.5t-23 53.5q0 31 22.5 53t54.5 22t55 -22t23 -54zM807 815q0 -30 -23 -52t-55 -22q-31 0 -54 21.5t-23 53.5q0 31 22.5 53t54.5 22t55 -22t23 -54z" />
    <glyph glyph-name="multiply" unicode="&#xd7;" horiz-adv-x="1161" 
d="M922 -91q-30 -30 -68 8l-273 273l-273 -273q-38 -39 -69 -8q-30 30 8 68l273 273l-273 273q-38 38 -8 69q31 30 69 -8l273 -273l272 272q39 39 69 8q30 -30 -8 -68l-272 -273l273 -273q38 -38 7 -68z" />
    <glyph glyph-name="Oslash" unicode="&#xd8;" horiz-adv-x="1161" 
d="M1063 338q0 -67 -27 -127.5t-82 -113t-151.5 -83.5t-222.5 -31q-140 0 -244 39l-81 -92l-46 42l68 77q-100 56 -139.5 134.5t-39.5 154.5q0 68 27.5 131t82.5 116.5t151.5 85.5t221.5 32q134 0 243 -40l82 93l46 -42l-70 -79q94 -51 137.5 -132t43.5 -165zM774 608
q-76 39 -194 39q-171 0 -251 -80q-75 -73 -75 -229q0 -161 79 -226zM907 338q0 162 -81 235l-440 -496q72 -38 195 -38q178 0 258 82q68 70 68 217z" />
    <glyph glyph-name="Ugrave" unicode="&#xd9;" horiz-adv-x="1133" 
d="M1041 619h-106v-388q0 -46 -19 -88t-58.5 -79t-111 -59t-166.5 -22q-188 0 -285 72t-97 177v387h-106v67l184 -4l184 4v-67h-106v-388q0 -85 50 -133t179 -48q54 0 98 9t81.5 29.5t58 57.5t20.5 88v385h-106v67q66 -4 153 -4q33 0 153 4v-67zM692 827l-35 -76l-184 60
q-53 17 -53 62q0 28 19 50t47 22q18 0 40 -13z" />
    <glyph glyph-name="Uacute" unicode="&#xda;" horiz-adv-x="1133" 
d="M1041 619h-106v-388q0 -46 -19 -88t-58.5 -79t-111 -59t-166.5 -22q-188 0 -285 72t-97 177v387h-106v67l184 -4l184 4v-67h-106v-388q0 -85 50 -133t179 -48q54 0 98 9t81.5 29.5t58 57.5t20.5 88v385h-106v67q66 -4 153 -4q33 0 153 4v-67zM782 873q0 -45 -53 -62
l-184 -60l-35 76l166 105q22 13 40 13q28 0 47 -22t19 -50z" />
    <glyph glyph-name="Ucircumflex" unicode="&#xdb;" horiz-adv-x="1133" 
d="M1041 619h-106v-388q0 -46 -19 -88t-58.5 -79t-111 -59t-166.5 -22q-188 0 -285 72t-97 177v387h-106v67l184 -4l184 4v-67h-106v-388q0 -85 50 -133t179 -48q54 0 98 9t81.5 29.5t58 57.5t20.5 88v385h-106v67q66 -4 153 -4q33 0 153 4v-67zM776 765l-16 -24l-160 58
l-160 -58l-14 24l175 141z" />
    <glyph glyph-name="Udieresis" unicode="&#xdc;" horiz-adv-x="1133" 
d="M1041 619h-106v-388q0 -46 -19 -88t-58.5 -79t-111 -59t-166.5 -22q-188 0 -285 72t-97 177v387h-106v67l184 -4l184 4v-67h-106v-388q0 -85 50 -133t179 -48q54 0 98 9t81.5 29.5t58 57.5t20.5 88v385h-106v67q66 -4 153 -4q33 0 153 4v-67zM511 815q0 -30 -23 -52
t-55 -22q-31 0 -54 21.5t-23 53.5q0 31 22.5 53t54.5 22t55 -22t23 -54zM847 815q0 -30 -23 -52t-55 -22q-31 0 -54 21.5t-23 53.5q0 31 22.5 53t54.5 22t55 -22t23 -54z" />
    <glyph glyph-name="Yacute" unicode="&#xdd;" horiz-adv-x="1114" 
d="M1061 619h-110l-320 -344v-208h105v-67l-179 4l-180 -4v67h106v207l-320 345h-110v67l176 -4q137 0 193 4v-67h-58l230 -247l229 247h-57v67l156 -4q78 0 139 4v-67zM738 873q0 -45 -53 -62l-184 -60l-35 76l166 105q22 13 40 13q28 0 47 -22t19 -50z" />
    <glyph glyph-name="Thorn" unicode="&#xde;" horiz-adv-x="938" 
d="M839 376q0 -26 -8 -51t-30 -52t-55 -47.5t-88.5 -34t-126.5 -13.5h-186v-111h105v-66l-175 3l-174 -3v66h105v552h-105v66l175 -3l174 3v-66h-105v-45h201q135 0 214 -56.5t79 -141.5zM675 377q0 53 -39 91.5t-122 38.5h-169v-262h142q103 0 145.5 40.5t42.5 91.5z" />
    <glyph glyph-name="germandbls" unicode="&#xdf;" horiz-adv-x="763" 
d="M705 180q0 -84 -69 -136t-183 -52q-63 0 -97 30.5t-34 69.5q0 27 17.5 44.5t44.5 17.5q25 0 43 -17t18 -44q0 -22 -14 -41q8 -4 20 -4q116 0 116 132q0 92 -42 148t-134 60q-10 1 -15 2t-9.5 7.5t-4.5 18.5q0 13 5 19t10 7t18 2q131 6 131 114q0 88 -120 88
q-44 0 -72 -10t-38 -28t-12.5 -29.5t-2.5 -28.5v-550q-27 4 -74 4q-71 0 -123 -4v67h72v310h-72v67h72v108q0 72 67.5 111t183.5 39q133 0 195 -43.5t62 -100.5q0 -94 -117 -144q158 -77 158 -234z" />
    <glyph glyph-name="agrave" unicode="&#xe0;" horiz-adv-x="738" 
d="M716 34q0 -25 -10.5 -29.5t-60.5 -4.5q-37 0 -56 1t-44 6t-37.5 18.5t-15.5 34.5q-47 -68 -202 -68q-29 0 -55 2.5t-73 13t-75.5 39.5t-28.5 73q0 53 49.5 83t145.5 48q34 6 73.5 10t66 5t50 1.5t25.5 0.5v19q0 113 -142 113q-47 0 -84 -8q14 -19 14 -45q0 -32 -21 -53.5
t-54 -21.5q-31 0 -53 20.5t-22 55.5q0 26 10.5 45.5t31.5 30.5t40.5 18t49 10t45.5 3.5t42 0.5q147 0 211.5 -48t64.5 -118v-213q21 -10 71 -10h6q14 0 20 -1t12 -8.5t6 -23.5zM468 133v87q-277 -12 -277 -99q0 -34 35.5 -53.5t90.5 -19.5q59 0 100 16q24 9 36 22t13.5 22
t1.5 25zM460 582l-35 -76l-184 60q-53 17 -53 62q0 28 19 50t47 22q18 0 40 -13z" />
    <glyph glyph-name="aacute" unicode="&#xe1;" horiz-adv-x="738" 
d="M716 34q0 -25 -10.5 -29.5t-60.5 -4.5q-37 0 -56 1t-44 6t-37.5 18.5t-15.5 34.5q-47 -68 -202 -68q-29 0 -55 2.5t-73 13t-75.5 39.5t-28.5 73q0 53 49.5 83t145.5 48q34 6 73.5 10t66 5t50 1.5t25.5 0.5v19q0 113 -142 113q-47 0 -84 -8q14 -19 14 -45q0 -32 -21 -53.5
t-54 -21.5q-31 0 -53 20.5t-22 55.5q0 26 10.5 45.5t31.5 30.5t40.5 18t49 10t45.5 3.5t42 0.5q147 0 211.5 -48t64.5 -118v-213q21 -10 71 -10h6q14 0 20 -1t12 -8.5t6 -23.5zM468 133v87q-277 -12 -277 -99q0 -34 35.5 -53.5t90.5 -19.5q59 0 100 16q24 9 36 22t13.5 22
t1.5 25zM550 628q0 -45 -53 -62l-184 -60l-35 76l166 105q22 13 40 13q28 0 47 -22t19 -50z" />
    <glyph glyph-name="acircumflex" unicode="&#xe2;" horiz-adv-x="738" 
d="M716 34q0 -25 -10.5 -29.5t-60.5 -4.5q-37 0 -56 1t-44 6t-37.5 18.5t-15.5 34.5q-47 -68 -202 -68q-29 0 -55 2.5t-73 13t-75.5 39.5t-28.5 73q0 53 49.5 83t145.5 48q34 6 73.5 10t66 5t50 1.5t25.5 0.5v19q0 113 -142 113q-47 0 -84 -8q14 -19 14 -45q0 -32 -21 -53.5
t-54 -21.5q-31 0 -53 20.5t-22 55.5q0 26 10.5 45.5t31.5 30.5t40.5 18t49 10t45.5 3.5t42 0.5q147 0 211.5 -48t64.5 -118v-213q21 -10 71 -10h6q14 0 20 -1t12 -8.5t6 -23.5zM468 133v87q-277 -12 -277 -99q0 -34 35.5 -53.5t90.5 -19.5q59 0 100 16q24 9 36 22t13.5 22
t1.5 25zM546 522l-20 -22l-158 99l-158 -99l-18 22l177 185z" />
    <glyph glyph-name="atilde" unicode="&#xe3;" horiz-adv-x="738" 
d="M716 34q0 -25 -10.5 -29.5t-60.5 -4.5q-37 0 -56 1t-44 6t-37.5 18.5t-15.5 34.5q-47 -68 -202 -68q-29 0 -55 2.5t-73 13t-75.5 39.5t-28.5 73q0 53 49.5 83t145.5 48q34 6 73.5 10t66 5t50 1.5t25.5 0.5v19q0 113 -142 113q-47 0 -84 -8q14 -19 14 -45q0 -32 -21 -53.5
t-54 -21.5q-31 0 -53 20.5t-22 55.5q0 26 10.5 45.5t31.5 30.5t40.5 18t49 10t45.5 3.5t42 0.5q147 0 211.5 -48t64.5 -118v-213q21 -10 71 -10h6q14 0 20 -1t12 -8.5t6 -23.5zM468 133v87q-277 -12 -277 -99q0 -34 35.5 -53.5t90.5 -19.5q59 0 100 16q24 9 36 22t13.5 22
t1.5 25zM610 638q-36 -30 -48.5 -41.5t-21.5 -18.5q-64 -52 -108 -52q-30 0 -82 30q-40 26 -72 26q-49 0 -113 -56l-37 43q36 30 48.5 41.5t21.5 18.5q64 52 108 52q30 0 82 -30q40 -26 72 -26q49 0 113 56z" />
    <glyph glyph-name="adieresis" unicode="&#xe4;" horiz-adv-x="738" 
d="M716 34q0 -25 -10.5 -29.5t-60.5 -4.5q-37 0 -56 1t-44 6t-37.5 18.5t-15.5 34.5q-47 -68 -202 -68q-29 0 -55 2.5t-73 13t-75.5 39.5t-28.5 73q0 53 49.5 83t145.5 48q34 6 73.5 10t66 5t50 1.5t25.5 0.5v19q0 113 -142 113q-47 0 -84 -8q14 -19 14 -45q0 -32 -21 -53.5
t-54 -21.5q-31 0 -53 20.5t-22 55.5q0 26 10.5 45.5t31.5 30.5t40.5 18t49 10t45.5 3.5t42 0.5q147 0 211.5 -48t64.5 -118v-213q21 -10 71 -10h6q14 0 20 -1t12 -8.5t6 -23.5zM468 133v87q-277 -12 -277 -99q0 -34 35.5 -53.5t90.5 -19.5q59 0 100 16q24 9 36 22t13.5 22
t1.5 25zM305 602q0 -30 -23 -52t-55 -22q-31 0 -54 21.5t-23 53.5q0 31 22.5 53t54.5 22t55 -22t23 -54zM589 602q0 -30 -23 -52t-55 -22q-31 0 -54 21.5t-23 53.5q0 31 22.5 53t54.5 22t55 -22t23 -54z" />
    <glyph glyph-name="aring" unicode="&#xe5;" horiz-adv-x="738" 
d="M716 34q0 -25 -10.5 -29.5t-60.5 -4.5q-37 0 -56 1t-44 6t-37.5 18.5t-15.5 34.5q-47 -68 -202 -68q-29 0 -55 2.5t-73 13t-75.5 39.5t-28.5 73q0 53 49.5 83t145.5 48q34 6 73.5 10t66 5t50 1.5t25.5 0.5v19q0 113 -142 113q-47 0 -84 -8q14 -19 14 -45q0 -32 -21 -53.5
t-54 -21.5q-31 0 -53 20.5t-22 55.5q0 26 10.5 45.5t31.5 30.5t40.5 18t49 10t45.5 3.5t42 0.5q147 0 211.5 -48t64.5 -118v-213q21 -10 71 -10h6q14 0 20 -1t12 -8.5t6 -23.5zM468 133v87q-277 -12 -277 -99q0 -34 35.5 -53.5t90.5 -19.5q59 0 100 16q24 9 36 22t13.5 22
t1.5 25zM441 618q0 11 -3.5 18t-7.5 11t-15 5.5t-19.5 2t-26.5 0.5q-43 0 -57.5 -5.5t-14.5 -31.5q0 -11 3.5 -18t7.5 -11t15 -5.5t19.5 -2t26.5 -0.5q43 0 57.5 5.5t14.5 31.5zM530 619q0 -35 -39.5 -60t-121.5 -25t-121.5 25t-39.5 60q0 31 38 57t123 26q84 0 122.5 -25.5
t38.5 -57.5z" />
    <glyph glyph-name="ae" unicode="&#xe6;" horiz-adv-x="1081" 
d="M1024 110q0 -14 -20 -42t-59 -48q-56 -28 -148 -28q-141 0 -232 62q-30 -39 -91.5 -50.5t-160.5 -11.5q-26 0 -43 0.5t-49.5 3.5t-55 11t-46 20.5t-36 34t-12.5 50.5q0 48 44 73.5t136 41.5q96 17 196 17h27v43q0 113 -142 113q-48 0 -85 -8q14 -19 14 -45
q0 -32 -21 -53.5t-54 -21.5q-31 0 -53 20.5t-22 55.5q0 26 10.5 45.5t31.5 30.5t40.5 18t49.5 10t46 3.5t42 0.5q159 0 228 -62q86 62 218 62q112 0 177 -53q70 -59 70 -173q0 -16 -6 -23.5t-12 -8.5t-20 -1h-377q9 -75 69 -111q55 -32 140 -32q92 0 122 61q8 14 14 17t25 3
h7q38 0 38 -25zM923 248q-9 152 -146 152q-162 0 -169 -152h315zM493 123q0 13 -5 30q-8 21 -11 40q-30 0 -74 -4q-25 -1 -64 -6.5t-87 -24t-48 -45.5q0 -29 32 -47t89 -18q168 0 168 75z" />
    <glyph glyph-name="ccedilla" unicode="&#xe7;" horiz-adv-x="678" 
d="M621 110q0 -7 -8 -22.5t-30 -37t-52 -34.5q-57 -24 -151 -24q-84 0 -148 21t-99 56t-51.5 73.5t-16.5 79.5q0 26 7 53.5t28 61t55 59t94.5 43t138.5 17.5q25 0 40.5 -0.5t45 -3.5t49 -10t40.5 -18t31.5 -30.5t10.5 -45.5q0 -34 -21.5 -55t-53.5 -21t-53.5 21.5
t-21.5 53.5q0 25 11 42q-25 5 -76 5q-88 0 -131.5 -39t-43.5 -130q0 -90 55 -131q52 -40 141 -40q95 0 127 62q7 12 12.5 14t28.5 2q15 0 22 -1t13.5 -6t6.5 -15zM601 -112q0 -65 -115 -88q-73 -15 -191 -15h-69v56h54q188 0 188 47q0 46 -102 46h-19v56h42
q107 0 159.5 -23.5t52.5 -78.5z" />
    <glyph glyph-name="egrave" unicode="&#xe8;" horiz-adv-x="692" 
d="M635 110q0 -16 -24.5 -46t-69.5 -48q-60 -24 -154 -24q-88 0 -154.5 21t-103 56.5t-54.5 75t-18 81.5t17.5 81.5t52.5 73.5t97 54.5t142 20.5q133 0 205 -63q30 -27 47 -72.5t17 -91.5q0 -15 -6 -22.5t-12.5 -8.5t-19.5 -1h-389q14 -143 202 -143q109 0 144 67
q6 10 13 12t23 2h7q38 0 38 -25zM534 248q-11 152 -167 152q-32 0 -58 -7t-42 -16.5t-28 -25.5t-17.5 -28t-9 -29.5t-4 -25.5t-0.5 -20h326zM437 582l-35 -76l-184 60q-53 17 -53 62q0 28 19 50t47 22q18 0 40 -13z" />
    <glyph glyph-name="eacute" unicode="&#xe9;" horiz-adv-x="692" 
d="M635 110q0 -16 -24.5 -46t-69.5 -48q-60 -24 -154 -24q-88 0 -154.5 21t-103 56.5t-54.5 75t-18 81.5t17.5 81.5t52.5 73.5t97 54.5t142 20.5q133 0 205 -63q30 -27 47 -72.5t17 -91.5q0 -15 -6 -22.5t-12.5 -8.5t-19.5 -1h-389q14 -143 202 -143q109 0 144 67
q6 10 13 12t23 2h7q38 0 38 -25zM534 248q-11 152 -167 152q-32 0 -58 -7t-42 -16.5t-28 -25.5t-17.5 -28t-9 -29.5t-4 -25.5t-0.5 -20h326zM527 628q0 -45 -53 -62l-184 -60l-35 76l166 105q22 13 40 13q28 0 47 -22t19 -50z" />
    <glyph glyph-name="ecircumflex" unicode="&#xea;" horiz-adv-x="692" 
d="M635 110q0 -16 -24.5 -46t-69.5 -48q-60 -24 -154 -24q-88 0 -154.5 21t-103 56.5t-54.5 75t-18 81.5t17.5 81.5t52.5 73.5t97 54.5t142 20.5q133 0 205 -63q30 -27 47 -72.5t17 -91.5q0 -15 -6 -22.5t-12.5 -8.5t-19.5 -1h-389q14 -143 202 -143q109 0 144 67
q6 10 13 12t23 2h7q38 0 38 -25zM534 248q-11 152 -167 152q-32 0 -58 -7t-42 -16.5t-28 -25.5t-17.5 -28t-9 -29.5t-4 -25.5t-0.5 -20h326zM523 522l-20 -22l-158 99l-158 -99l-18 22l177 185z" />
    <glyph glyph-name="edieresis" unicode="&#xeb;" horiz-adv-x="692" 
d="M635 110q0 -16 -24.5 -46t-69.5 -48q-60 -24 -154 -24q-88 0 -154.5 21t-103 56.5t-54.5 75t-18 81.5t17.5 81.5t52.5 73.5t97 54.5t142 20.5q133 0 205 -63q30 -27 47 -72.5t17 -91.5q0 -15 -6 -22.5t-12.5 -8.5t-19.5 -1h-389q14 -143 202 -143q109 0 144 67
q6 10 13 12t23 2h7q38 0 38 -25zM534 248q-11 152 -167 152q-32 0 -58 -7t-42 -16.5t-28 -25.5t-17.5 -28t-9 -29.5t-4 -25.5t-0.5 -20h326zM282 602q0 -30 -23 -52t-55 -22q-31 0 -54 21.5t-23 53.5q0 31 22.5 53t54.5 22t55 -22t23 -54zM566 602q0 -30 -23 -52t-55 -22
q-31 0 -54 21.5t-23 53.5q0 31 22.5 53t54.5 22t55 -22t23 -54z" />
    <glyph glyph-name="igrave" unicode="&#xec;" horiz-adv-x="436" 
d="M363 0q-57 4 -129 4q-74 0 -133 -4v67h72v271q0 28 -10.5 33.5t-58.5 5.5v67l194 8v-385h65v-67zM309 582l-35 -76l-184 60q-53 17 -53 62q0 28 19 50t47 22q18 0 40 -13z" />
    <glyph glyph-name="iacute" unicode="&#xed;" horiz-adv-x="436" 
d="M363 0q-57 4 -129 4q-74 0 -133 -4v67h72v271q0 28 -10.5 33.5t-58.5 5.5v67l194 8v-385h65v-67zM399 628q0 -45 -53 -62l-184 -60l-35 76l166 105q22 13 40 13q28 0 47 -22t19 -50z" />
    <glyph glyph-name="icircumflex" unicode="&#xee;" horiz-adv-x="436" 
d="M363 0q-57 4 -129 4q-74 0 -133 -4v67h72v271q0 28 -10.5 33.5t-58.5 5.5v67l194 8v-385h65v-67zM395 522l-20 -22l-158 99l-158 -99l-18 22l177 185z" />
    <glyph glyph-name="idieresis" unicode="&#xef;" horiz-adv-x="436" 
d="M363 0q-57 4 -129 4q-74 0 -133 -4v67h72v271q0 28 -10.5 33.5t-58.5 5.5v67l194 8v-385h65v-67zM154 602q0 -30 -23 -52t-55 -22q-31 0 -54 21.5t-23 53.5q0 31 22.5 53t54.5 22t55 -22t23 -54zM438 602q0 -30 -23 -52t-55 -22q-31 0 -54 21.5t-23 53.5q0 31 22.5 53
t54.5 22t55 -22t23 -54z" />
    <glyph glyph-name="eth" unicode="&#xf0;" 
d="M701 222q0 -101 -83.5 -165.5t-238.5 -64.5q-86 0 -151 20.5t-100.5 54.5t-53 72t-17.5 78q0 98 82 168.5t237 70.5q100 0 173 -52q-11 109 -107 186l-138 -56l-26 63l95 38q-86 44 -188 50l9 52q195 0 306 -51l150 61l25 -63l-102 -41q19 -15 37 -34q91 -99 91 -235
v-152zM551 221q0 88 -46 133.5t-127 45.5q-35 0 -63 -7t-45.5 -17.5t-30.5 -27t-19 -30t-9 -33.5t-3.5 -30t-0.5 -26q0 -25 1.5 -42.5t11 -45t26.5 -44.5t51 -30t82 -13q54 0 90 14.5t53 41t23 52.5t6 59z" />
    <glyph glyph-name="ntilde" unicode="&#xf1;" horiz-adv-x="839" 
d="M776 0q-59 4 -138 4l-139 -4v67h72v231q0 55 -18 76.5t-66 21.5q-27 0 -56 -7.5t-59.5 -23.5t-50 -48t-19.5 -75v-175h72v-67q-59 4 -138 4l-139 -4v67h72v271q0 28 -11 33.5t-61 5.5v67l188 8v-107q26 41 81 74t144 33q28 0 49.5 -2t50.5 -11t48 -24.5t32.5 -46.5
t13.5 -73v-228h72v-67zM660 638q-36 -30 -48.5 -41.5t-21.5 -18.5q-64 -52 -108 -52q-30 0 -82 30q-40 26 -72 26q-49 0 -113 -56l-37 43q36 30 48.5 41.5t21.5 18.5q64 52 108 52q30 0 82 -30q40 -26 72 -26q49 0 113 56z" />
    <glyph glyph-name="ograve" unicode="&#xf2;" 
d="M701 217q0 -42 -18 -80.5t-54.5 -71.5t-101 -53t-148.5 -20t-148.5 20t-101 53t-54.5 71.5t-18 80.5q0 44 17.5 84.5t54 76t101 57t149.5 21.5q84 0 148.5 -21t101 -56.5t54.5 -76.5t18 -85zM551 229q0 23 -0.5 34.5t-3.5 33t-9.5 33t-19 27t-30.5 23.5t-45.5 14t-63.5 6
t-63.5 -6t-45.5 -14t-30.5 -23t-19 -27t-9.5 -33t-3.5 -33t-0.5 -35q0 -33 1 -50.5t10 -45.5t26 -42t51 -25.5t84 -11.5t84 11.5t51 25.5t26 42t10 45.5t1 50.5zM470 582l-35 -76l-184 60q-53 17 -53 62q0 28 19 50t47 22q18 0 40 -13z" />
    <glyph glyph-name="oacute" unicode="&#xf3;" 
d="M701 217q0 -42 -18 -80.5t-54.5 -71.5t-101 -53t-148.5 -20t-148.5 20t-101 53t-54.5 71.5t-18 80.5q0 44 17.5 84.5t54 76t101 57t149.5 21.5q84 0 148.5 -21t101 -56.5t54.5 -76.5t18 -85zM551 229q0 23 -0.5 34.5t-3.5 33t-9.5 33t-19 27t-30.5 23.5t-45.5 14t-63.5 6
t-63.5 -6t-45.5 -14t-30.5 -23t-19 -27t-9.5 -33t-3.5 -33t-0.5 -35q0 -33 1 -50.5t10 -45.5t26 -42t51 -25.5t84 -11.5t84 11.5t51 25.5t26 42t10 45.5t1 50.5zM560 628q0 -45 -53 -62l-184 -60l-35 76l166 105q22 13 40 13q28 0 47 -22t19 -50z" />
    <glyph glyph-name="ocircumflex" unicode="&#xf4;" 
d="M701 217q0 -42 -18 -80.5t-54.5 -71.5t-101 -53t-148.5 -20t-148.5 20t-101 53t-54.5 71.5t-18 80.5q0 44 17.5 84.5t54 76t101 57t149.5 21.5q84 0 148.5 -21t101 -56.5t54.5 -76.5t18 -85zM551 229q0 23 -0.5 34.5t-3.5 33t-9.5 33t-19 27t-30.5 23.5t-45.5 14t-63.5 6
t-63.5 -6t-45.5 -14t-30.5 -23t-19 -27t-9.5 -33t-3.5 -33t-0.5 -35q0 -33 1 -50.5t10 -45.5t26 -42t51 -25.5t84 -11.5t84 11.5t51 25.5t26 42t10 45.5t1 50.5zM556 522l-20 -22l-158 99l-158 -99l-18 22l177 185z" />
    <glyph glyph-name="otilde" unicode="&#xf5;" 
d="M701 217q0 -42 -18 -80.5t-54.5 -71.5t-101 -53t-148.5 -20t-148.5 20t-101 53t-54.5 71.5t-18 80.5q0 44 17.5 84.5t54 76t101 57t149.5 21.5q84 0 148.5 -21t101 -56.5t54.5 -76.5t18 -85zM551 229q0 23 -0.5 34.5t-3.5 33t-9.5 33t-19 27t-30.5 23.5t-45.5 14t-63.5 6
t-63.5 -6t-45.5 -14t-30.5 -23t-19 -27t-9.5 -33t-3.5 -33t-0.5 -35q0 -33 1 -50.5t10 -45.5t26 -42t51 -25.5t84 -11.5t84 11.5t51 25.5t26 42t10 45.5t1 50.5zM620 638q-36 -30 -48.5 -41.5t-21.5 -18.5q-64 -52 -108 -52q-30 0 -82 30q-40 26 -72 26q-49 0 -113 -56
l-37 43q36 30 48.5 41.5t21.5 18.5q64 52 108 52q30 0 82 -30q40 -26 72 -26q49 0 113 56z" />
    <glyph glyph-name="odieresis" unicode="&#xf6;" 
d="M701 217q0 -42 -18 -80.5t-54.5 -71.5t-101 -53t-148.5 -20t-148.5 20t-101 53t-54.5 71.5t-18 80.5q0 44 17.5 84.5t54 76t101 57t149.5 21.5q84 0 148.5 -21t101 -56.5t54.5 -76.5t18 -85zM551 229q0 23 -0.5 34.5t-3.5 33t-9.5 33t-19 27t-30.5 23.5t-45.5 14t-63.5 6
t-63.5 -6t-45.5 -14t-30.5 -23t-19 -27t-9.5 -33t-3.5 -33t-0.5 -35q0 -33 1 -50.5t10 -45.5t26 -42t51 -25.5t84 -11.5t84 11.5t51 25.5t26 42t10 45.5t1 50.5zM315 602q0 -30 -23 -52t-55 -22q-31 0 -54 21.5t-23 53.5q0 31 22.5 53t54.5 22t55 -22t23 -54zM599 602
q0 -30 -23 -52t-55 -22q-31 0 -54 21.5t-23 53.5q0 31 22.5 53t54.5 22t55 -22t23 -54z" />
    <glyph glyph-name="divide" unicode="&#xf7;" horiz-adv-x="1161" 
d="M1063 250q0 -43 -52 -43h-861q-52 0 -52 43t58 43h849q58 0 58 -43zM667 534q0 -35 -25.5 -60.5t-60.5 -25.5t-60.5 25.5t-25.5 60.5t25.5 60.5t60.5 25.5t60.5 -25.5t25.5 -60.5zM667 -34q0 -35 -25.5 -60.5t-60.5 -25.5t-60.5 25.5t-25.5 60.5t25.5 60.5t60.5 25.5
t60.5 -25.5t25.5 -60.5z" />
    <glyph glyph-name="oslash" unicode="&#xf8;" 
d="M701 217q0 -42 -18 -80.5t-54.5 -71.5t-101 -53t-148.5 -20q-75 0 -136 16l-98 -123l-43 36l86 108q-51 23 -82 60.5t-40 67.5t-9 60q0 44 17.5 84.5t54 76t101 57t149.5 21.5q79 0 136 -18l98 122l43 -36l-85 -107q130 -68 130 -200zM474 387q-37 13 -95 13
q-51 0 -87 -11t-55.5 -27t-30.5 -42t-13.5 -48t-2.5 -53q0 -97 43 -134zM568 219q0 103 -44 140l-239 -300q37 -11 94 -11q62 0 102 13t58 39t23.5 52.5t5.5 66.5z" />
    <glyph glyph-name="ugrave" unicode="&#xf9;" horiz-adv-x="839" 
d="M776 0l-197 -8v65q-65 -65 -194 -65q-44 0 -75.5 4t-67 15.5t-54.5 38.5t-19 68v220q0 28 -11 33.5t-61 5.5v67l205 8v-340q0 -27 4 -37.5t27 -18.5t73 -8q29 0 55 4.5t52.5 15.5t42 34t15.5 56v180q0 28 -11 33.5t-61 5.5v67l205 8v-346q0 -28 11 -33.5t61 -5.5v-67z
M510 582l-35 -76l-184 60q-53 17 -53 62q0 28 19 50t47 22q18 0 40 -13z" />
    <glyph glyph-name="uacute" unicode="&#xfa;" horiz-adv-x="839" 
d="M776 0l-197 -8v65q-65 -65 -194 -65q-44 0 -75.5 4t-67 15.5t-54.5 38.5t-19 68v220q0 28 -11 33.5t-61 5.5v67l205 8v-340q0 -27 4 -37.5t27 -18.5t73 -8q29 0 55 4.5t52.5 15.5t42 34t15.5 56v180q0 28 -11 33.5t-61 5.5v67l205 8v-346q0 -28 11 -33.5t61 -5.5v-67z
M600 628q0 -45 -53 -62l-184 -60l-35 76l166 105q22 13 40 13q28 0 47 -22t19 -50z" />
    <glyph glyph-name="ucircumflex" unicode="&#xfb;" horiz-adv-x="839" 
d="M776 0l-197 -8v65q-65 -65 -194 -65q-44 0 -75.5 4t-67 15.5t-54.5 38.5t-19 68v220q0 28 -11 33.5t-61 5.5v67l205 8v-340q0 -27 4 -37.5t27 -18.5t73 -8q29 0 55 4.5t52.5 15.5t42 34t15.5 56v180q0 28 -11 33.5t-61 5.5v67l205 8v-346q0 -28 11 -33.5t61 -5.5v-67z
M596 522l-20 -22l-158 99l-158 -99l-18 22l177 185z" />
    <glyph glyph-name="udieresis" unicode="&#xfc;" horiz-adv-x="839" 
d="M776 0l-197 -8v65q-65 -65 -194 -65q-44 0 -75.5 4t-67 15.5t-54.5 38.5t-19 68v220q0 28 -11 33.5t-61 5.5v67l205 8v-340q0 -27 4 -37.5t27 -18.5t73 -8q29 0 55 4.5t52.5 15.5t42 34t15.5 56v180q0 28 -11 33.5t-61 5.5v67l205 8v-346q0 -28 11 -33.5t61 -5.5v-67z
M355 602q0 -30 -23 -52t-55 -22q-31 0 -54 21.5t-23 53.5q0 31 22.5 53t54.5 22t55 -22t23 -54zM639 602q0 -30 -23 -52t-55 -22q-31 0 -54 21.5t-23 53.5q0 31 22.5 53t54.5 22t55 -22t23 -54z" />
    <glyph glyph-name="yacute" unicode="&#xfd;" horiz-adv-x="799" 
d="M745 377h-73l-239 -448q-39 -72 -111 -101.5t-140 -29.5q-61 0 -99 31.5t-38 76.5q0 33 21 52t50 19t50 -19t21 -52q0 -26 -14 -45l-3 -5q8 -2 14 -2q33 0 60 7t43.5 16.5t30.5 25t20 25.5t14 25q24 43 24 47q0 2 -6 12l-236 365h-76v67q56 -4 127 -4q74 0 138 4v-67h-40
l162 -251l133 251h-47v67q48 -4 113 -4q47 0 101 4v-67zM580 628q0 -45 -53 -62l-184 -60l-35 76l166 105q22 13 40 13q28 0 47 -22t19 -50z" />
    <glyph glyph-name="thorn" unicode="&#xfe;" horiz-adv-x="839" 
d="M774 223q0 -97 -82.5 -164t-231.5 -67q-97 0 -171 45v-164h72v-67l-139 4l-138 -4v67h72v470v237q0 28 -11 33.5t-61 5.5v67l197 8v-286q86 44 203 44q75 0 133 -20.5t91 -54t49.5 -73t16.5 -81.5zM624 222q0 75 -43 121.5t-123 46.5q-108 0 -169 -63v-199
q60 -80 156 -80q80 0 129.5 46.5t49.5 127.5z" />
    <glyph glyph-name="ydieresis" unicode="&#xff;" horiz-adv-x="799" 
d="M745 377h-73l-239 -448q-39 -72 -111 -101.5t-140 -29.5q-61 0 -99 31.5t-38 76.5q0 33 21 52t50 19t50 -19t21 -52q0 -26 -14 -45l-3 -5q8 -2 14 -2q33 0 60 7t43.5 16.5t30.5 25t20 25.5t14 25q24 43 24 47q0 2 -6 12l-236 365h-76v67q56 -4 127 -4q74 0 138 4v-67h-40
l162 -251l133 251h-47v67q48 -4 113 -4q47 0 101 4v-67zM335 602q0 -30 -23 -52t-55 -22q-31 0 -54 21.5t-23 53.5q0 31 22.5 53t54.5 22t55 -22t23 -54zM619 602q0 -30 -23 -52t-55 -22q-31 0 -54 21.5t-23 53.5q0 31 22.5 53t54.5 22t55 -22t23 -54z" />
    <glyph glyph-name="Amacron" unicode="&#x100;" horiz-adv-x="1114" 
d="M1042 0l-167 4l-181 -4v67h83l-70 146h-360l-69 -146h83v-67l-152 4q-76 0 -137 -4v67h102l290 611q8 16 17 23.5t16 8.5t22 1h76q26 0 35.5 -7t19.5 -28l290 -609h102v-67zM676 280l-149 312l-148 -312h297zM818 761h-522v71h522v-71z" />
    <glyph glyph-name="amacron" unicode="&#x101;" horiz-adv-x="738" 
d="M716 34q0 -25 -10.5 -29.5t-60.5 -4.5q-37 0 -56 1t-44 6t-37.5 18.5t-15.5 34.5q-47 -68 -202 -68q-29 0 -55 2.5t-73 13t-75.5 39.5t-28.5 73q0 53 49.5 83t145.5 48q34 6 73.5 10t66 5t50 1.5t25.5 0.5v19q0 113 -142 113q-47 0 -84 -8q14 -19 14 -45q0 -32 -21 -53.5
t-54 -21.5q-31 0 -53 20.5t-22 55.5q0 26 10.5 45.5t31.5 30.5t40.5 18t49 10t45.5 3.5t42 0.5q147 0 211.5 -48t64.5 -118v-213q21 -10 71 -10h6q14 0 20 -1t12 -8.5t6 -23.5zM468 133v87q-277 -12 -277 -99q0 -34 35.5 -53.5t90.5 -19.5q59 0 100 16q24 9 36 22t13.5 22
t1.5 25zM630 568h-522v71h522v-71z" />
    <glyph glyph-name="Abreve" unicode="&#x102;" horiz-adv-x="1114" 
d="M1042 0l-167 4l-181 -4v67h83l-70 146h-360l-69 -146h83v-67l-152 4q-76 0 -137 -4v67h102l290 611q8 16 17 23.5t16 8.5t22 1h76q26 0 35.5 -7t19.5 -28l290 -609h102v-67zM676 280l-149 312l-148 -312h297zM786 934q-3 -88 -73.5 -135.5t-155.5 -47.5t-155.5 47.5
t-73.5 135.5h56q1 -34 22.5 -56.5t54.5 -31t54 -11t42 -2.5q15 0 30.5 1t42.5 7t47 15.5t36 30t17 47.5h56z" />
    <glyph glyph-name="abreve" unicode="&#x103;" horiz-adv-x="738" 
d="M716 34q0 -25 -10.5 -29.5t-60.5 -4.5q-37 0 -56 1t-44 6t-37.5 18.5t-15.5 34.5q-47 -68 -202 -68q-29 0 -55 2.5t-73 13t-75.5 39.5t-28.5 73q0 53 49.5 83t145.5 48q34 6 73.5 10t66 5t50 1.5t25.5 0.5v19q0 113 -142 113q-47 0 -84 -8q14 -19 14 -45q0 -32 -21 -53.5
t-54 -21.5q-31 0 -53 20.5t-22 55.5q0 26 10.5 45.5t31.5 30.5t40.5 18t49 10t45.5 3.5t42 0.5q147 0 211.5 -48t64.5 -118v-213q21 -10 71 -10h6q14 0 20 -1t12 -8.5t6 -23.5zM468 133v87q-277 -12 -277 -99q0 -34 35.5 -53.5t90.5 -19.5q59 0 100 16q24 9 36 22t13.5 22
t1.5 25zM598 695q-3 -88 -73.5 -135.5t-155.5 -47.5t-155.5 47.5t-73.5 135.5h56q1 -34 22.5 -56.5t54.5 -31t54 -11t42 -2.5q15 0 30.5 1t42.5 7t47 15.5t36 30t17 47.5h56z" />
    <glyph glyph-name="Aogonek" unicode="&#x104;" horiz-adv-x="1114" 
d="M1042 0l-123 4q-33 -22 -45.5 -48t-6 -46.5t24.5 -34.5t40 -14q7 0 14.5 3t12.5 6t14 9l12 8q15 10 36 -7q8 -7 11.5 -19t-1.5 -21q-52 -75 -137 -75q-63 0 -102.5 36t-39.5 85q0 69 65 119q-24 0 -68.5 -2.5t-54.5 -2.5v67h83l-70 146h-360l-69 -146h83v-67l-152 4
q-76 0 -137 -4v67h102l290 611q8 16 17 23.5t16 8.5t22 1h76q26 0 35.5 -7t19.5 -28l290 -609h102v-67zM676 280l-149 312l-148 -312h297z" />
    <glyph glyph-name="aogonek" unicode="&#x105;" horiz-adv-x="738" 
d="M716 34q0 -25 -10.5 -29.5t-60.5 -4.5q-8 0 -22 0.5t-21 0.5q-44 -28 -52.5 -62t11 -56t50.5 -22q7 0 14.5 3t12.5 6t14 9l12 8q15 10 36 -7q8 -7 11.5 -19t-1.5 -21q-52 -75 -137 -75q-63 0 -102.5 36t-39.5 85q0 32 25 68.5t61 64.5q-21 13 -25 41q-47 -68 -202 -68
q-29 0 -55 2.5t-73 13t-75.5 39.5t-28.5 73q0 53 49.5 83t145.5 48q34 6 73.5 10t66 5t50 1.5t25.5 0.5v19q0 113 -142 113q-47 0 -84 -8q14 -19 14 -45q0 -32 -21 -53.5t-54 -21.5q-31 0 -53 20.5t-22 55.5q0 26 10.5 45.5t31.5 30.5t40.5 18t49 10t45.5 3.5t42 0.5
q147 0 211.5 -48t64.5 -118v-213q21 -10 71 -10h6q14 0 20 -1t12 -8.5t6 -23.5zM468 133v87q-277 -12 -277 -99q0 -34 35.5 -53.5t90.5 -19.5q59 0 100 16q24 9 36 22t13.5 22t1.5 25z" />
    <glyph glyph-name="Cacute" unicode="&#x106;" horiz-adv-x="1081" 
d="M983 230q0 -106 -106 -176.5t-282 -70.5q-102 0 -186.5 20.5t-141 55.5t-95.5 82t-56.5 97.5t-17.5 104.5q0 70 30 133t88 114.5t155.5 82t221.5 30.5q150 0 263 -70l69 59q13 11 28 11q14 0 21 -5t8 -11t1 -19v-217q0 -23 -6.5 -29t-28.5 -6h-24q-31 0 -34 18
q-5 21 -8.5 32t-13.5 34.5t-28 44.5t-44 39q-75 52 -175 52q-154 0 -251 -65q-100 -70 -100 -228q0 -150 92.5 -221.5t262.5 -71.5q113 0 191.5 48t83.5 128q1 22 7.5 27t27.5 5h13q12 0 18 -1t11.5 -7.5t5.5 -19.5zM775 873q0 -45 -53 -62l-184 -60l-35 76l166 105
q22 13 40 13q28 0 47 -22t19 -50z" />
    <glyph glyph-name="cacute" unicode="&#x107;" horiz-adv-x="678" 
d="M621 110q0 -7 -8 -22.5t-30 -37t-52 -34.5q-57 -24 -151 -24q-84 0 -148 21t-99 56t-51.5 73.5t-16.5 79.5q0 26 7 53.5t28 61t55 59t94.5 43t138.5 17.5q25 0 40.5 -0.5t45 -3.5t49 -10t40.5 -18t31.5 -30.5t10.5 -45.5q0 -34 -21.5 -55t-53.5 -21t-53.5 21.5
t-21.5 53.5q0 25 11 42q-25 5 -76 5q-88 0 -131.5 -39t-43.5 -130q0 -90 55 -131q52 -40 141 -40q95 0 127 62q7 12 12.5 14t28.5 2q15 0 22 -1t13.5 -6t6.5 -15zM554 628q0 -45 -53 -62l-184 -60l-35 76l166 105q22 13 40 13q28 0 47 -22t19 -50z" />
    <glyph glyph-name="Ccircumflex" unicode="&#x108;" horiz-adv-x="1081" 
d="M983 230q0 -106 -106 -176.5t-282 -70.5q-102 0 -186.5 20.5t-141 55.5t-95.5 82t-56.5 97.5t-17.5 104.5q0 70 30 133t88 114.5t155.5 82t221.5 30.5q150 0 263 -70l69 59q13 11 28 11q14 0 21 -5t8 -11t1 -19v-217q0 -23 -6.5 -29t-28.5 -6h-24q-31 0 -34 18
q-5 21 -8.5 32t-13.5 34.5t-28 44.5t-44 39q-75 52 -175 52q-154 0 -251 -65q-100 -70 -100 -228q0 -150 92.5 -221.5t262.5 -71.5q113 0 191.5 48t83.5 128q1 22 7.5 27t27.5 5h13q12 0 18 -1t11.5 -7.5t5.5 -19.5zM769 765l-16 -24l-160 58l-160 -58l-14 24l175 141z" />
    <glyph glyph-name="ccircumflex" unicode="&#x109;" horiz-adv-x="678" 
d="M621 110q0 -7 -8 -22.5t-30 -37t-52 -34.5q-57 -24 -151 -24q-84 0 -148 21t-99 56t-51.5 73.5t-16.5 79.5q0 26 7 53.5t28 61t55 59t94.5 43t138.5 17.5q25 0 40.5 -0.5t45 -3.5t49 -10t40.5 -18t31.5 -30.5t10.5 -45.5q0 -34 -21.5 -55t-53.5 -21t-53.5 21.5
t-21.5 53.5q0 25 11 42q-25 5 -76 5q-88 0 -131.5 -39t-43.5 -130q0 -90 55 -131q52 -40 141 -40q95 0 127 62q7 12 12.5 14t28.5 2q15 0 22 -1t13.5 -6t6.5 -15zM550 522l-20 -22l-158 99l-158 -99l-18 22l177 185z" />
    <glyph glyph-name="Cdotaccent" unicode="&#x10a;" horiz-adv-x="1081" 
d="M983 230q0 -106 -106 -176.5t-282 -70.5q-102 0 -186.5 20.5t-141 55.5t-95.5 82t-56.5 97.5t-17.5 104.5q0 70 30 133t88 114.5t155.5 82t221.5 30.5q150 0 263 -70l69 59q13 11 28 11q14 0 21 -5t8 -11t1 -19v-217q0 -23 -6.5 -29t-28.5 -6h-24q-31 0 -34 18
q-5 21 -8.5 32t-13.5 34.5t-28 44.5t-44 39q-75 52 -175 52q-154 0 -251 -65q-100 -70 -100 -228q0 -150 92.5 -221.5t262.5 -71.5q113 0 191.5 48t83.5 128q1 22 7.5 27t27.5 5h13q12 0 18 -1t11.5 -7.5t5.5 -19.5zM680 841q0 -34 -25 -58.5t-61 -24.5q-35 0 -60.5 24.5
t-25.5 59.5q0 34 25 58.5t61 24.5q35 0 60.5 -24.5t25.5 -59.5z" />
    <glyph glyph-name="cdotaccent" unicode="&#x10b;" horiz-adv-x="678" 
d="M621 110q0 -7 -8 -22.5t-30 -37t-52 -34.5q-57 -24 -151 -24q-84 0 -148 21t-99 56t-51.5 73.5t-16.5 79.5q0 26 7 53.5t28 61t55 59t94.5 43t138.5 17.5q25 0 40.5 -0.5t45 -3.5t49 -10t40.5 -18t31.5 -30.5t10.5 -45.5q0 -34 -21.5 -55t-53.5 -21t-53.5 21.5
t-21.5 53.5q0 25 11 42q-25 5 -76 5q-88 0 -131.5 -39t-43.5 -130q0 -90 55 -131q52 -40 141 -40q95 0 127 62q7 12 12.5 14t28.5 2q15 0 22 -1t13.5 -6t6.5 -15zM459 603q0 -34 -25 -58.5t-61 -24.5q-35 0 -60.5 24.5t-25.5 59.5q0 34 25 58.5t61 24.5q35 0 60.5 -24.5
t25.5 -59.5z" />
    <glyph glyph-name="Ccaron" unicode="&#x10c;" horiz-adv-x="1081" 
d="M983 230q0 -106 -106 -176.5t-282 -70.5q-102 0 -186.5 20.5t-141 55.5t-95.5 82t-56.5 97.5t-17.5 104.5q0 70 30 133t88 114.5t155.5 82t221.5 30.5q150 0 263 -70l69 59q13 11 28 11q14 0 21 -5t8 -11t1 -19v-217q0 -23 -6.5 -29t-28.5 -6h-24q-31 0 -34 18
q-5 21 -8.5 32t-13.5 34.5t-28 44.5t-44 39q-75 52 -175 52q-154 0 -251 -65q-100 -70 -100 -228q0 -150 92.5 -221.5t262.5 -71.5q113 0 191.5 48t83.5 128q1 22 7.5 27t27.5 5h13q12 0 18 -1t11.5 -7.5t5.5 -19.5zM769 882l-175 -141l-175 141l16 24l160 -58l160 58z" />
    <glyph glyph-name="ccaron" unicode="&#x10d;" horiz-adv-x="678" 
d="M621 110q0 -7 -8 -22.5t-30 -37t-52 -34.5q-57 -24 -151 -24q-84 0 -148 21t-99 56t-51.5 73.5t-16.5 79.5q0 26 7 53.5t28 61t55 59t94.5 43t138.5 17.5q25 0 40.5 -0.5t45 -3.5t49 -10t40.5 -18t31.5 -30.5t10.5 -45.5q0 -34 -21.5 -55t-53.5 -21t-53.5 21.5
t-21.5 53.5q0 25 11 42q-25 5 -76 5q-88 0 -131.5 -39t-43.5 -130q0 -90 55 -131q52 -40 141 -40q95 0 127 62q7 12 12.5 14t28.5 2q15 0 22 -1t13.5 -6t6.5 -15zM550 685l-177 -185l-177 185l20 22l158 -99l158 99z" />
    <glyph glyph-name="Dcaron" unicode="&#x10e;" horiz-adv-x="1138" 
d="M1039 337q0 -149 -118.5 -243t-312.5 -94h-512v67h106v552h-106v67h512q192 0 311.5 -96.5t119.5 -252.5zM875 338q0 91 -22.5 141.5t-65.5 82.5q-78 57 -220 57h-217v-552h218q62 0 111.5 10.5t81 26.5t54 41t34 47t18 52.5t7.5 49t1 44.5zM635 882l-175 -141l-175 141
l16 24l160 -58l160 58z" />
    <glyph glyph-name="dcaron" unicode="&#x10f;" horiz-adv-x="839" 
d="M755 0l-205 -8v49q-80 -49 -186 -49q-76 0 -135.5 20t-94 53.5t-52 73t-17.5 82.5q0 97 80.5 164t232.5 67q102 0 180 -41v169q0 28 -11 33.5t-61 5.5v67l197 8v-588q0 -28 11 -33.5t61 -5.5v-67zM550 132v181q0 15 -2.5 20t-18.5 18q-56 45 -136 45q-51 0 -87 -14
t-53 -31.5t-26.5 -46t-10.5 -44.5t-1 -40q0 -20 1 -32t5 -35.5t14.5 -39t27.5 -32t46.5 -25t68.5 -8.5q106 0 172 84zM878 594q0 -38 -14 -72.5t-32.5 -55.5t-34.5 -33.5t-23 -12.5t-14.5 7.5t-7.5 14.5q0 10 13 19q59 38 69 112q-12 -8 -33 -8q-29 0 -46.5 19t-17.5 46
t18 45.5t45 18.5q35 0 56.5 -29t21.5 -71z" />
    <glyph glyph-name="Dcroat" unicode="&#x110;" horiz-adv-x="1138" 
d="M1039 337q0 -149 -118.5 -243t-312.5 -94h-512v67h106v243h-106v66h106v243h-106v67h512q192 0 311.5 -96.5t119.5 -252.5zM875 338q0 91 -22.5 141.5t-65.5 82.5q-78 57 -220 57h-217v-243h219v-66h-219v-243h218q62 0 111.5 10.5t81 26.5t54 41t34 47t18 52.5t7.5 49
t1 44.5z" />
    <glyph glyph-name="dcroat" unicode="&#x111;" horiz-adv-x="839" 
d="M755 0l-205 -8v49q-80 -49 -186 -49q-76 0 -135.5 20t-94 53.5t-52 73t-17.5 82.5q0 97 80.5 164t232.5 67q102 0 180 -41v92h-222v66h222v11q0 28 -11 33.5t-61 5.5v67l197 8v-125h72v-66h-72v-397q0 -28 11 -33.5t61 -5.5v-67zM550 132v181q0 15 -2.5 20t-18.5 18
q-56 45 -136 45q-51 0 -87 -14t-53 -31.5t-26.5 -46t-10.5 -44.5t-1 -40q0 -20 1 -32t5 -35.5t14.5 -39t27.5 -32t46.5 -25t68.5 -8.5q106 0 172 84z" />
    <glyph glyph-name="Emacron" unicode="&#x112;" horiz-adv-x="978" 
d="M921 229l-58 -229h-771v67h106v544h-106v67h749l39 -206h-83q-10 46 -31 75.5t-55.5 42.5t-66.5 17t-81 4h-209v-226h89q23 0 37.5 1t32 5.5t27.5 13t17 24.5t8 39h83v-233h-83q-1 23 -8 39t-17 24.5t-27.5 13t-32 5.5t-37.5 1h-89v-251h223q53 0 88 5t72.5 20.5
t62.5 49.5t38 87h83zM750 761h-522v71h522v-71z" />
    <glyph glyph-name="emacron" unicode="&#x113;" horiz-adv-x="692" 
d="M635 110q0 -16 -24.5 -46t-69.5 -48q-60 -24 -154 -24q-88 0 -154.5 21t-103 56.5t-54.5 75t-18 81.5t17.5 81.5t52.5 73.5t97 54.5t142 20.5q133 0 205 -63q30 -27 47 -72.5t17 -91.5q0 -15 -6 -22.5t-12.5 -8.5t-19.5 -1h-389q14 -143 202 -143q109 0 144 67
q6 10 13 12t23 2h7q38 0 38 -25zM534 248q-11 152 -167 152q-32 0 -58 -7t-42 -16.5t-28 -25.5t-17.5 -28t-9 -29.5t-4 -25.5t-0.5 -20h326zM607 568h-522v71h522v-71z" />
    <glyph glyph-name="Ebreve" unicode="&#x114;" horiz-adv-x="978" 
d="M921 229l-58 -229h-771v67h106v544h-106v67h749l39 -206h-83q-10 46 -31 75.5t-55.5 42.5t-66.5 17t-81 4h-209v-226h89q23 0 37.5 1t32 5.5t27.5 13t17 24.5t8 39h83v-233h-83q-1 23 -8 39t-17 24.5t-27.5 13t-32 5.5t-37.5 1h-89v-251h223q53 0 88 5t72.5 20.5
t62.5 49.5t38 87h83zM718 934q-3 -88 -73.5 -135.5t-155.5 -47.5t-155.5 47.5t-73.5 135.5h56q1 -34 22.5 -56.5t54.5 -31t54 -11t42 -2.5q15 0 30.5 1t42.5 7t47 15.5t36 30t17 47.5h56z" />
    <glyph glyph-name="ebreve" unicode="&#x115;" horiz-adv-x="692" 
d="M635 110q0 -16 -24.5 -46t-69.5 -48q-60 -24 -154 -24q-88 0 -154.5 21t-103 56.5t-54.5 75t-18 81.5t17.5 81.5t52.5 73.5t97 54.5t142 20.5q133 0 205 -63q30 -27 47 -72.5t17 -91.5q0 -15 -6 -22.5t-12.5 -8.5t-19.5 -1h-389q14 -143 202 -143q109 0 144 67
q6 10 13 12t23 2h7q38 0 38 -25zM534 248q-11 152 -167 152q-32 0 -58 -7t-42 -16.5t-28 -25.5t-17.5 -28t-9 -29.5t-4 -25.5t-0.5 -20h326zM575 695q-3 -88 -73.5 -135.5t-155.5 -47.5t-155.5 47.5t-73.5 135.5h56q1 -34 22.5 -56.5t54.5 -31t54 -11t42 -2.5q15 0 30.5 1
t42.5 7t47 15.5t36 30t17 47.5h56z" />
    <glyph glyph-name="Edotaccent" unicode="&#x116;" horiz-adv-x="978" 
d="M921 229l-58 -229h-771v67h106v544h-106v67h749l39 -206h-83q-10 46 -31 75.5t-55.5 42.5t-66.5 17t-81 4h-209v-226h89q23 0 37.5 1t32 5.5t27.5 13t17 24.5t8 39h83v-233h-83q-1 23 -8 39t-17 24.5t-27.5 13t-32 5.5t-37.5 1h-89v-251h223q53 0 88 5t72.5 20.5
t62.5 49.5t38 87h83zM575 841q0 -34 -25 -58.5t-61 -24.5q-35 0 -60.5 24.5t-25.5 59.5q0 34 25 58.5t61 24.5q35 0 60.5 -24.5t25.5 -59.5z" />
    <glyph glyph-name="edotaccent" unicode="&#x117;" horiz-adv-x="692" 
d="M635 110q0 -16 -24.5 -46t-69.5 -48q-60 -24 -154 -24q-88 0 -154.5 21t-103 56.5t-54.5 75t-18 81.5t17.5 81.5t52.5 73.5t97 54.5t142 20.5q133 0 205 -63q30 -27 47 -72.5t17 -91.5q0 -15 -6 -22.5t-12.5 -8.5t-19.5 -1h-389q14 -143 202 -143q109 0 144 67
q6 10 13 12t23 2h7q38 0 38 -25zM534 248q-11 152 -167 152q-32 0 -58 -7t-42 -16.5t-28 -25.5t-17.5 -28t-9 -29.5t-4 -25.5t-0.5 -20h326zM432 603q0 -34 -25 -58.5t-61 -24.5q-35 0 -60.5 24.5t-25.5 59.5q0 34 25 58.5t61 24.5q35 0 60.5 -24.5t25.5 -59.5z" />
    <glyph glyph-name="Eogonek" unicode="&#x118;" horiz-adv-x="978" 
d="M921 229l-58 -229h-123q-44 -28 -51.5 -62t12.5 -55.5t51 -21.5q7 0 14.5 3t12.5 6t14 9l12 8q15 10 36 -7q8 -7 11.5 -19t-1.5 -21q-52 -75 -137 -75q-63 0 -102.5 36t-39.5 85q0 66 62 114h-542v67h106v544h-106v67h749l39 -206h-83q-10 46 -31 75.5t-55.5 42.5
t-66.5 17t-81 4h-209v-226h89q23 0 37.5 1t32 5.5t27.5 13t17 24.5t8 39h83v-233h-83q-1 23 -8 39t-17 24.5t-27.5 13t-32 5.5t-37.5 1h-89v-251h223q53 0 88 5t72.5 20.5t62.5 49.5t38 87h83z" />
    <glyph glyph-name="eogonek" unicode="&#x119;" horiz-adv-x="692" 
d="M635 110q0 -16 -24.5 -46t-69.5 -48q-26 -11 -58 -16q-33 -22 -46 -47.5t-7.5 -45t23 -33t39.5 -13.5q7 0 14.5 3t12.5 6t14 9l12 8q15 10 36 -7q8 -7 11.5 -19t-1.5 -21q-52 -75 -137 -75q-63 0 -102.5 36t-39.5 85q0 36 10.5 59t42.5 47q-157 6 -232.5 75t-75.5 159
q0 42 17.5 81.5t52.5 73.5t97 54.5t142 20.5q133 0 205 -63q30 -27 47 -72.5t17 -91.5q0 -15 -6 -22.5t-12.5 -8.5t-19.5 -1h-389q14 -143 202 -143q109 0 144 67q6 10 13 12t23 2h7q38 0 38 -25zM534 248q-11 152 -167 152q-32 0 -58 -7t-42 -16.5t-28 -25.5t-17.5 -28
t-9 -29.5t-4 -25.5t-0.5 -20h326z" />
    <glyph glyph-name="Ecaron" unicode="&#x11a;" horiz-adv-x="978" 
d="M921 229l-58 -229h-771v67h106v544h-106v67h749l39 -206h-83q-10 46 -31 75.5t-55.5 42.5t-66.5 17t-81 4h-209v-226h89q23 0 37.5 1t32 5.5t27.5 13t17 24.5t8 39h83v-233h-83q-1 23 -8 39t-17 24.5t-27.5 13t-32 5.5t-37.5 1h-89v-251h223q53 0 88 5t72.5 20.5
t62.5 49.5t38 87h83zM664 882l-175 -141l-175 141l16 24l160 -58l160 58z" />
    <glyph glyph-name="ecaron" unicode="&#x11b;" horiz-adv-x="692" 
d="M635 110q0 -16 -24.5 -46t-69.5 -48q-60 -24 -154 -24q-88 0 -154.5 21t-103 56.5t-54.5 75t-18 81.5t17.5 81.5t52.5 73.5t97 54.5t142 20.5q133 0 205 -63q30 -27 47 -72.5t17 -91.5q0 -15 -6 -22.5t-12.5 -8.5t-19.5 -1h-389q14 -143 202 -143q109 0 144 67
q6 10 13 12t23 2h7q38 0 38 -25zM534 248q-11 152 -167 152q-32 0 -58 -7t-42 -16.5t-28 -25.5t-17.5 -28t-9 -29.5t-4 -25.5t-0.5 -20h326zM523 685l-177 -185l-177 185l20 22l158 -99l158 99z" />
    <glyph glyph-name="Gcircumflex" unicode="&#x11c;" horiz-adv-x="1169" 
d="M1084 203h-101v-168q0 -35 -22 -35q-6 0 -34 11t-44 20q-38 -30 -103.5 -39t-162.5 -9q-257 0 -394 107q-56 44 -90.5 110t-34.5 143q0 70 30 133t88 114.5t155.5 82t221.5 30.5q150 0 263 -70l69 59q13 11 28 11q14 0 21 -5t8 -11t1 -19v-217q0 -23 -6.5 -29t-28.5 -6
h-24q-31 0 -34 18q-5 21 -8.5 32t-13.5 34.5t-28 44.5t-44 39q-75 52 -175 52q-154 0 -251 -65q-100 -70 -100 -227q0 -83 28 -141.5t80.5 -91t119 -47t152.5 -14.5q64 0 102 5t53.5 17t18.5 21.5t3 28.5v81h-181v67q51 -4 246 -4l192 4v-67zM760 765l-16 -24l-160 58
l-160 -58l-14 24l175 141z" />
    <glyph glyph-name="gcircumflex" unicode="&#x11d;" 
d="M721 383q0 -28 -18.5 -43.5t-39.5 -15.5q-24 0 -41.5 16t-17.5 43q0 10 4 21q-35 -4 -66 -15q6 -5 14 -14.5t17 -31.5t9 -45q0 -57 -57.5 -105t-186.5 -48q-89 0 -146 26q-4 -8 -4 -20q0 -28 23 -46q14 -10 26.5 -12t53.5 -2h58q69 0 100 -1t70 -6t72 -16
q35 -12 58.5 -31t34 -40t14 -36t3.5 -30q0 -38 -29 -65t-78 -41.5t-102 -21t-113 -6.5q-157 0 -239.5 36.5t-82.5 94.5q0 64 101 89q-37 41 -37 95q0 47 29 83q-55 49 -55 104q0 57 57.5 105t186.5 48q98 0 159 -32q64 41 133 41q42 0 66 -24t24 -54zM457 299
q0 20 -3.5 34.5t-14.5 30.5t-36.5 24t-64.5 8t-64.5 -8.5t-36.5 -24.5t-14 -30t-3 -35q0 -20 3.5 -34.5t14.5 -30.5t36.5 -24t64.5 -8t64.5 8.5t36.5 24.5t14 30t3 35zM596 -71q0 11 -10 19.5t-32.5 13.5t-42.5 8t-56 4t-56.5 1.5t-59.5 0.5h-57q-120 0 -120 -47
q0 -18 21 -35t72 -29t124 -12t124 12t72 29t21 35zM503 522l-20 -22l-158 99l-158 -99l-18 22l177 185z" />
    <glyph glyph-name="Gbreve" unicode="&#x11e;" horiz-adv-x="1169" 
d="M1084 203h-101v-168q0 -35 -22 -35q-6 0 -34 11t-44 20q-38 -30 -103.5 -39t-162.5 -9q-257 0 -394 107q-56 44 -90.5 110t-34.5 143q0 70 30 133t88 114.5t155.5 82t221.5 30.5q150 0 263 -70l69 59q13 11 28 11q14 0 21 -5t8 -11t1 -19v-217q0 -23 -6.5 -29t-28.5 -6
h-24q-31 0 -34 18q-5 21 -8.5 32t-13.5 34.5t-28 44.5t-44 39q-75 52 -175 52q-154 0 -251 -65q-100 -70 -100 -227q0 -83 28 -141.5t80.5 -91t119 -47t152.5 -14.5q64 0 102 5t53.5 17t18.5 21.5t3 28.5v81h-181v67q51 -4 246 -4l192 4v-67zM814 934q-3 -88 -73.5 -135.5
t-155.5 -47.5t-155.5 47.5t-73.5 135.5h56q1 -34 22.5 -56.5t54.5 -31t54 -11t42 -2.5q15 0 30.5 1t42.5 7t47 15.5t36 30t17 47.5h56z" />
    <glyph glyph-name="gbreve" unicode="&#x11f;" 
d="M721 383q0 -28 -18.5 -43.5t-39.5 -15.5q-24 0 -41.5 16t-17.5 43q0 10 4 21q-35 -4 -66 -15q6 -5 14 -14.5t17 -31.5t9 -45q0 -57 -57.5 -105t-186.5 -48q-89 0 -146 26q-4 -8 -4 -20q0 -28 23 -46q14 -10 26.5 -12t53.5 -2h58q69 0 100 -1t70 -6t72 -16
q35 -12 58.5 -31t34 -40t14 -36t3.5 -30q0 -38 -29 -65t-78 -41.5t-102 -21t-113 -6.5q-157 0 -239.5 36.5t-82.5 94.5q0 64 101 89q-37 41 -37 95q0 47 29 83q-55 49 -55 104q0 57 57.5 105t186.5 48q98 0 159 -32q64 41 133 41q42 0 66 -24t24 -54zM457 299
q0 20 -3.5 34.5t-14.5 30.5t-36.5 24t-64.5 8t-64.5 -8.5t-36.5 -24.5t-14 -30t-3 -35q0 -20 3.5 -34.5t14.5 -30.5t36.5 -24t64.5 -8t64.5 8.5t36.5 24.5t14 30t3 35zM596 -71q0 11 -10 19.5t-32.5 13.5t-42.5 8t-56 4t-56.5 1.5t-59.5 0.5h-57q-120 0 -120 -47
q0 -18 21 -35t72 -29t124 -12t124 12t72 29t21 35zM555 695q-3 -88 -73.5 -135.5t-155.5 -47.5t-155.5 47.5t-73.5 135.5h56q1 -34 22.5 -56.5t54.5 -31t54 -11t42 -2.5q15 0 30.5 1t42.5 7t47 15.5t36 30t17 47.5h56z" />
    <glyph glyph-name="Gdotaccent" unicode="&#x120;" horiz-adv-x="1169" 
d="M1084 203h-101v-168q0 -35 -22 -35q-6 0 -34 11t-44 20q-38 -30 -103.5 -39t-162.5 -9q-257 0 -394 107q-56 44 -90.5 110t-34.5 143q0 70 30 133t88 114.5t155.5 82t221.5 30.5q150 0 263 -70l69 59q13 11 28 11q14 0 21 -5t8 -11t1 -19v-217q0 -23 -6.5 -29t-28.5 -6
h-24q-31 0 -34 18q-5 21 -8.5 32t-13.5 34.5t-28 44.5t-44 39q-75 52 -175 52q-154 0 -251 -65q-100 -70 -100 -227q0 -83 28 -141.5t80.5 -91t119 -47t152.5 -14.5q64 0 102 5t53.5 17t18.5 21.5t3 28.5v81h-181v67q51 -4 246 -4l192 4v-67zM671 841q0 -34 -25 -58.5
t-61 -24.5q-35 0 -60.5 24.5t-25.5 59.5q0 34 25 58.5t61 24.5q35 0 60.5 -24.5t25.5 -59.5z" />
    <glyph glyph-name="gdotaccent" unicode="&#x121;" 
d="M721 383q0 -28 -18.5 -43.5t-39.5 -15.5q-24 0 -41.5 16t-17.5 43q0 10 4 21q-35 -4 -66 -15q6 -5 14 -14.5t17 -31.5t9 -45q0 -57 -57.5 -105t-186.5 -48q-89 0 -146 26q-4 -8 -4 -20q0 -28 23 -46q14 -10 26.5 -12t53.5 -2h58q69 0 100 -1t70 -6t72 -16
q35 -12 58.5 -31t34 -40t14 -36t3.5 -30q0 -38 -29 -65t-78 -41.5t-102 -21t-113 -6.5q-157 0 -239.5 36.5t-82.5 94.5q0 64 101 89q-37 41 -37 95q0 47 29 83q-55 49 -55 104q0 57 57.5 105t186.5 48q98 0 159 -32q64 41 133 41q42 0 66 -24t24 -54zM457 299
q0 20 -3.5 34.5t-14.5 30.5t-36.5 24t-64.5 8t-64.5 -8.5t-36.5 -24.5t-14 -30t-3 -35q0 -20 3.5 -34.5t14.5 -30.5t36.5 -24t64.5 -8t64.5 8.5t36.5 24.5t14 30t3 35zM596 -71q0 11 -10 19.5t-32.5 13.5t-42.5 8t-56 4t-56.5 1.5t-59.5 0.5h-57q-120 0 -120 -47
q0 -18 21 -35t72 -29t124 -12t124 12t72 29t21 35zM412 603q0 -34 -25 -58.5t-61 -24.5q-35 0 -60.5 24.5t-25.5 59.5q0 34 25 58.5t61 24.5q35 0 60.5 -24.5t25.5 -59.5z" />
    <glyph glyph-name="Gcommaaccent" unicode="&#x122;" horiz-adv-x="1169" 
d="M1084 203h-101v-168q0 -35 -22 -35q-6 0 -34 11t-44 20q-38 -30 -103.5 -39t-162.5 -9q-257 0 -394 107q-56 44 -90.5 110t-34.5 143q0 70 30 133t88 114.5t155.5 82t221.5 30.5q150 0 263 -70l69 59q13 11 28 11q14 0 21 -5t8 -11t1 -19v-217q0 -23 -6.5 -29t-28.5 -6
h-24q-31 0 -34 18q-5 21 -8.5 32t-13.5 34.5t-28 44.5t-44 39q-75 52 -175 52q-154 0 -251 -65q-100 -70 -100 -227q0 -83 28 -141.5t80.5 -91t119 -47t152.5 -14.5q64 0 102 5t53.5 17t18.5 21.5t3 28.5v81h-181v67q51 -4 246 -4l192 4v-67zM656 -151q0 -38 -14 -72.5
t-32.5 -55.5t-34.5 -33.5t-23 -12.5t-14.5 7.5t-7.5 14.5q0 10 13 19q59 38 69 112q-12 -8 -33 -8q-29 0 -46.5 19t-17.5 46t18 45.5t45 18.5q35 0 56.5 -29t21.5 -71z" />
    <glyph glyph-name="gcommaaccent" unicode="&#x123;" 
d="M397 547q0 -27 -18 -45.5t-45 -18.5q-35 0 -56.5 29t-21.5 71q0 38 14 72.5t32.5 55.5t34.5 33.5t23 12.5t14.5 -7.5t7.5 -14.5q0 -10 -13 -19q-59 -38 -69 -112q12 8 33 8q29 0 46.5 -19t17.5 -46zM721 383q0 -28 -18.5 -43.5t-39.5 -15.5q-24 0 -41.5 16t-17.5 43
q0 10 4 21q-35 -4 -66 -15q6 -5 14 -14.5t17 -31.5t9 -45q0 -57 -57.5 -105t-186.5 -48q-89 0 -146 26q-4 -8 -4 -20q0 -28 23 -46q14 -10 26.5 -12t53.5 -2h58q69 0 100 -1t70 -6t72 -16q35 -12 58.5 -31t34 -40t14 -36t3.5 -30q0 -38 -29 -65t-78 -41.5t-102 -21
t-113 -6.5q-157 0 -239.5 36.5t-82.5 94.5q0 64 101 89q-37 41 -37 95q0 47 29 83q-55 49 -55 104q0 57 57.5 105t186.5 48q98 0 159 -32q64 41 133 41q42 0 66 -24t24 -54zM457 299q0 20 -3.5 34.5t-14.5 30.5t-36.5 24t-64.5 8t-64.5 -8.5t-36.5 -24.5t-14 -30t-3 -35
q0 -20 3.5 -34.5t14.5 -30.5t36.5 -24t64.5 -8t64.5 8.5t36.5 24.5t14 30t3 35zM596 -71q0 11 -10 19.5t-32.5 13.5t-42.5 8t-56 4t-56.5 1.5t-59.5 0.5h-57q-120 0 -120 -47q0 -18 21 -35t72 -29t124 -12t124 12t72 29t21 35z" />
    <glyph glyph-name="Hcircumflex" unicode="&#x124;" horiz-adv-x="1153" 
d="M1061 0l-184 4l-184 -4v67h106v256h-445v-256h106v-67l-184 4l-184 -4v67h106v552h-106v67l184 -4l184 4v-67h-106v-229h445v229h-106v67l184 -4l184 4v-67h-106v-552h106v-67zM751 765l-16 -24l-160 58l-160 -58l-14 24l175 141z" />
    <glyph glyph-name="hcircumflex" unicode="&#x125;" horiz-adv-x="839" 
d="M776 0q-59 4 -138 4l-139 -4v67h72v231q0 55 -18 76.5t-66 21.5q-27 0 -56 -7.5t-59.5 -23.5t-50 -48t-19.5 -75v-175h72v-67q-59 4 -138 4l-139 -4v67h72v513q0 28 -11 33.5t-61 5.5v67l197 8v-336q75 94 216 94q28 0 49.5 -2t50.5 -11t48 -24.5t32.5 -46.5t13.5 -73
v-228h72v-67zM594 773l-16 -24l-160 58l-160 -58l-14 24l175 141z" />
    <glyph glyph-name="Hbar" unicode="&#x126;" horiz-adv-x="1153" 
d="M1061 0l-184 4l-184 -4v67h106v256h-445v-256h106v-67l-184 4l-184 -4v67h106v415h-106v66h106v71h-106v67l184 -4l184 4v-67h-106v-71h445v71h-106v67l184 -4l184 4v-67h-106v-71h106v-66h-106v-415h106v-67zM799 390v92h-445v-92h445z" />
    <glyph glyph-name="hbar" unicode="&#x127;" horiz-adv-x="839" 
d="M776 0q-59 4 -138 4l-139 -4v67h72v231q0 55 -18 76.5t-66 21.5q-27 0 -56 -7.5t-59.5 -23.5t-50 -48t-19.5 -75v-175h72v-67q-59 4 -138 4l-139 -4v67h72v436h-72v66h72v11q0 28 -11 33.5t-61 5.5v67l197 8v-125h125v-66h-125v-145q75 94 216 94q28 0 49.5 -2t50.5 -11
t48 -24.5t32.5 -46.5t13.5 -73v-228h72v-67z" />
    <glyph glyph-name="Itilde" unicode="&#x128;" horiz-adv-x="550" 
d="M464 0q-61 4 -189 4t-189 -4v67h111v552h-111v67q61 -4 189 -4t189 4v-67h-111v-552h111v-67zM516 853q-36 -30 -48.5 -41.5t-21.5 -18.5q-64 -52 -108 -52q-30 0 -82 30q-40 26 -72 26q-49 0 -113 -56l-37 43q36 30 48.5 41.5t21.5 18.5q64 52 108 52q30 0 82 -30
q40 -26 72 -26q49 0 113 56z" />
    <glyph glyph-name="itilde" unicode="&#x129;" horiz-adv-x="436" 
d="M363 0q-57 4 -129 4q-74 0 -133 -4v67h72v271q0 28 -10.5 33.5t-58.5 5.5v67l194 8v-385h65v-67zM459 638q-36 -30 -48.5 -41.5t-21.5 -18.5q-64 -52 -108 -52q-30 0 -82 30q-40 26 -72 26q-49 0 -113 -56l-37 43q36 30 48.5 41.5t21.5 18.5q64 52 108 52q30 0 82 -30
q40 -26 72 -26q49 0 113 56z" />
    <glyph glyph-name="Imacron" unicode="&#x12a;" horiz-adv-x="550" 
d="M464 0q-61 4 -189 4t-189 -4v67h111v552h-111v67q61 -4 189 -4t189 4v-67h-111v-552h111v-67zM536 761h-522v71h522v-71z" />
    <glyph glyph-name="imacron" unicode="&#x12b;" horiz-adv-x="436" 
d="M363 0q-57 4 -129 4q-74 0 -133 -4v67h72v271q0 28 -10.5 33.5t-58.5 5.5v67l194 8v-385h65v-67zM479 568h-522v71h522v-71z" />
    <glyph glyph-name="Ibreve" unicode="&#x12c;" horiz-adv-x="550" 
d="M464 0q-61 4 -189 4t-189 -4v67h111v552h-111v67q61 -4 189 -4t189 4v-67h-111v-552h111v-67zM504 934q-3 -88 -73.5 -135.5t-155.5 -47.5t-155.5 47.5t-73.5 135.5h56q1 -34 22.5 -56.5t54.5 -31t54 -11t42 -2.5q15 0 30.5 1t42.5 7t47 15.5t36 30t17 47.5h56z" />
    <glyph glyph-name="ibreve" unicode="&#x12d;" horiz-adv-x="436" 
d="M363 0q-57 4 -129 4q-74 0 -133 -4v67h72v271q0 28 -10.5 33.5t-58.5 5.5v67l194 8v-385h65v-67zM447 695q-3 -88 -73.5 -135.5t-155.5 -47.5t-155.5 47.5t-73.5 135.5h56q1 -34 22.5 -56.5t54.5 -31t54 -11t42 -2.5q15 0 30.5 1t42.5 7t47 15.5t36 30t17 47.5h56z" />
    <glyph glyph-name="Iogonek" unicode="&#x12e;" horiz-adv-x="550" 
d="M464 0l-106 4q-41 -19 -56 -60q-12 -32 8 -57.5t52 -25.5q7 0 14.5 3t12.5 6t14 9l12 8q15 10 36 -7q8 -7 11.5 -19t-1.5 -21q-52 -75 -137 -75q-63 0 -102.5 36t-39.5 85q0 56 68 118q-93 0 -164 -4v67h111v552h-111v67q61 -4 189 -4t189 4v-67h-111v-552h111v-67z" />
    <glyph glyph-name="iogonek" unicode="&#x12f;" horiz-adv-x="436" 
d="M307 609q0 -36 -25.5 -61t-60.5 -25q-36 0 -61 25.5t-25 60.5t25.5 60.5t60.5 25.5t60.5 -25t25.5 -61zM363 0q-48 4 -109 4q-41 -17 -57 -60q-12 -32 8 -57.5t52 -25.5q7 0 14.5 3t12.5 6t14 9l12 8q15 10 36 -7q8 -7 11.5 -19t-1.5 -21q-52 -75 -137 -75
q-63 0 -102.5 36t-39.5 85q0 56 66 116l-42 -2v67h72v271q0 28 -10.5 33.5t-58.5 5.5v67l194 8v-385h65v-67z" />
    <glyph glyph-name="Idotaccent" unicode="&#x130;" horiz-adv-x="550" 
d="M464 0q-61 4 -189 4t-189 -4v67h111v552h-111v67q61 -4 189 -4t189 4v-67h-111v-552h111v-67zM361 841q0 -34 -25 -58.5t-61 -24.5q-35 0 -60.5 24.5t-25.5 59.5q0 34 25 58.5t61 24.5q35 0 60.5 -24.5t25.5 -59.5z" />
    <glyph glyph-name="dotlessi" unicode="&#x131;" horiz-adv-x="436" 
d="M363 0q-57 4 -129 4q-74 0 -133 -4v67h72v271q0 28 -10.5 33.5t-58.5 5.5v67l194 8v-385h65v-67z" />
    <glyph glyph-name="Jcircumflex" unicode="&#x134;" horiz-adv-x="775" 
d="M659 619h-79v-469q0 -76 -70.5 -121.5t-201.5 -45.5q-242 0 -242 130q0 42 26.5 65t60.5 23q33 0 59.5 -23t26.5 -64q0 -38 -23 -61q40 -14 91 -14q125 0 125 113v467h-137v67q50 -4 201 -4l163 4v-67zM652 765l-16 -24l-160 58l-160 -58l-14 24l175 141z" />
    <glyph glyph-name="jcircumflex" unicode="&#x135;" horiz-adv-x="476" 
d="M354 -35q0 -82 -67 -124.5t-156 -42.5q-77 0 -124 27.5t-47 78.5q0 32 21 53.5t54 21.5q32 0 53.5 -21t21.5 -54q0 -22 -11 -41l-1 -3q0 -6 38 -6t65.5 29.5t27.5 84.5v369q0 13 -1 18.5t-5.5 11t-15.5 7.5q-15 3 -57 3v67l204 8v-487zM445 522l-20 -22l-158 99l-158 -99
l-18 22l177 185z" />
    <glyph glyph-name="Kcommaaccent" unicode="&#x136;" horiz-adv-x="1154" 
d="M1076 0q-69 4 -153 4l-182 -4v67h52l-277 269l-162 -106v-163h106v-67l-184 4l-184 -4v67h106v552h-106v67l184 -4l184 4v-67h-106v-290l444 290h-42v67l171 -4q86 0 129 4v-67h-107l-320 -210l352 -342h95v-67zM648 -151q0 -38 -14 -72.5t-32.5 -55.5t-34.5 -33.5
t-23 -12.5t-14.5 7.5t-7.5 14.5q0 10 13 19q59 38 69 112q-12 -8 -33 -8q-29 0 -46.5 19t-17.5 46t18 45.5t45 18.5q35 0 56.5 -29t21.5 -71z" />
    <glyph glyph-name="kcommaaccent" unicode="&#x137;" horiz-adv-x="799" 
d="M757 0q-44 4 -116 4t-135 -4v67h15l-150 138l-99 -64v-74h72v-67q-57 4 -130 4q-62 0 -130 -4v67h72v513q0 28 -11 33.5t-61 5.5v67l197 8v-449l204 132h-15v67l147 -4q57 0 108 4v-67h-87l-173 -112l215 -198h77v-67zM470 -151q0 -38 -14 -72.5t-32.5 -55.5t-34.5 -33.5
t-23 -12.5t-14.5 7.5t-7.5 14.5q0 10 13 19q59 38 69 112q-12 -8 -33 -8q-29 0 -46.5 19t-17.5 46t18 45.5t45 18.5q35 0 56.5 -29t21.5 -71z" />
    <glyph glyph-name="Lacute" unicode="&#x139;" horiz-adv-x="897" 
d="M820 229l-39 -229h-689v67h106v552h-106v67l188 -4q156 0 206 4v-67h-132v-552h152q39 0 70.5 5.5t66.5 21t59.5 49.5t34.5 86h83zM461 873q0 -45 -53 -62l-184 -60l-35 76l166 105q22 13 40 13q28 0 47 -22t19 -50z" />
    <glyph glyph-name="lacute" unicode="&#x13a;" horiz-adv-x="436" 
d="M370 0q-53 4 -135 4q-74 0 -134 -4v67h72v513q0 28 -11 33.5t-61 5.5v67l197 8v-627h72v-67zM399 881q0 -45 -53 -62l-184 -60l-35 76l166 105q22 13 40 13q28 0 47 -22t19 -50z" />
    <glyph glyph-name="Lcommaaccent" unicode="&#x13b;" horiz-adv-x="897" 
d="M820 229l-39 -229h-689v67h106v552h-106v67l188 -4q156 0 206 4v-67h-132v-552h152q39 0 70.5 5.5t66.5 21t59.5 49.5t34.5 86h83zM519 -151q0 -38 -14 -72.5t-32.5 -55.5t-34.5 -33.5t-23 -12.5t-14.5 7.5t-7.5 14.5q0 10 13 19q59 38 69 112q-12 -8 -33 -8
q-29 0 -46.5 19t-17.5 46t18 45.5t45 18.5q35 0 56.5 -29t21.5 -71z" />
    <glyph glyph-name="lcommaaccent" unicode="&#x13c;" horiz-adv-x="436" 
d="M370 0q-53 4 -135 4q-74 0 -134 -4v67h72v513q0 28 -11 33.5t-61 5.5v67l197 8v-627h72v-67zM289 -151q0 -38 -14 -72.5t-32.5 -55.5t-34.5 -33.5t-23 -12.5t-14.5 7.5t-7.5 14.5q0 10 13 19q59 38 69 112q-12 -8 -33 -8q-29 0 -46.5 19t-17.5 46t18 45.5t45 18.5
q35 0 56.5 -29t21.5 -71z" />
    <glyph glyph-name="Lcaron" unicode="&#x13d;" horiz-adv-x="897" 
d="M820 229l-39 -229h-689v67h106v552h-106v67l188 -4q156 0 206 4v-67h-132v-552h152q39 0 70.5 5.5t66.5 21t59.5 49.5t34.5 86h83zM708 586q0 -38 -14 -72.5t-32.5 -55.5t-34.5 -33.5t-23 -12.5t-14.5 7.5t-7.5 14.5q0 10 13 19q59 38 69 112q-12 -8 -33 -8
q-29 0 -46.5 19t-17.5 46t18 45.5t45 18.5q35 0 56.5 -29t21.5 -71z" />
    <glyph glyph-name="lcaron" unicode="&#x13e;" horiz-adv-x="436" 
d="M370 0q-53 4 -135 4q-74 0 -134 -4v67h72v513q0 28 -11 33.5t-61 5.5v67l197 8v-627h72v-67zM493 594q0 -38 -14 -72.5t-32.5 -55.5t-34.5 -33.5t-23 -12.5t-14.5 7.5t-7.5 14.5q0 10 13 19q59 38 69 112q-12 -8 -33 -8q-29 0 -46.5 19t-17.5 46t18 45.5t45 18.5
q35 0 56.5 -29t21.5 -71z" />
    <glyph glyph-name="Ldot" unicode="&#x13f;" horiz-adv-x="897" 
d="M820 229l-39 -229h-689v67h106v552h-106v67l188 -4q156 0 206 4v-67h-132v-552h152q39 0 70.5 5.5t66.5 21t59.5 49.5t34.5 86h83zM811 433q0 -34 -25 -58.5t-61 -24.5q-35 0 -60.5 24.5t-25.5 59.5q0 34 25 58.5t61 24.5q35 0 60.5 -24.5t25.5 -59.5z" />
    <glyph glyph-name="ldot" unicode="&#x140;" horiz-adv-x="464" 
d="M370 0q-53 4 -135 4q-74 0 -134 -4v67h72v513q0 28 -11 33.5t-61 5.5v67l197 8v-627h72v-67zM554 363q0 -34 -25 -58.5t-61 -24.5q-35 0 -60.5 24.5t-25.5 59.5q0 34 25 58.5t61 24.5q35 0 60.5 -24.5t25.5 -59.5z" />
    <glyph glyph-name="Lslash" unicode="&#x141;" horiz-adv-x="897" 
d="M830 229l-39 -229h-689v67h106v204l-58 -33l-37 59l95 55v267h-106v67l188 -4q156 0 206 4v-67h-132v-177l207 119l38 -60l-245 -140v-294h152q39 0 70.5 5.5t66.5 21t59.5 49.5t34.5 86h83z" />
    <glyph glyph-name="lslash" unicode="&#x142;" horiz-adv-x="521" 
d="M444 421l-120 -69v-285h72v-67q-53 4 -135 4q-74 0 -134 -4v67h72v212l-75 -43l-33 60l108 63v221q0 28 -11 33.5t-61 5.5v67l197 8v-262l85 49z" />
    <glyph glyph-name="Nacute" unicode="&#x143;" horiz-adv-x="1153" 
d="M1061 619h-106v-581q0 -24 -7.5 -31t-30.5 -7h-15q-17 0 -22 2t-16 12l-575 549v-496h106v-67l-152 4l-151 -4v67h106v552h-106v67h235q24 0 37 -12l500 -478v423h-106v67l152 -4l151 4v-67zM757 873q0 -45 -53 -62l-184 -60l-35 76l166 105q22 13 40 13q28 0 47 -22
t19 -50z" />
    <glyph glyph-name="nacute" unicode="&#x144;" horiz-adv-x="839" 
d="M776 0q-59 4 -138 4l-139 -4v67h72v231q0 55 -18 76.5t-66 21.5q-27 0 -56 -7.5t-59.5 -23.5t-50 -48t-19.5 -75v-175h72v-67q-59 4 -138 4l-139 -4v67h72v271q0 28 -11 33.5t-61 5.5v67l188 8v-107q26 41 81 74t144 33q28 0 49.5 -2t50.5 -11t48 -24.5t32.5 -46.5
t13.5 -73v-228h72v-67zM600 628q0 -45 -53 -62l-184 -60l-35 76l166 105q22 13 40 13q28 0 47 -22t19 -50z" />
    <glyph glyph-name="Ncommaaccent" unicode="&#x145;" horiz-adv-x="1153" 
d="M1061 619h-106v-581q0 -24 -7.5 -31t-30.5 -7h-15q-17 0 -22 2t-16 12l-575 549v-496h106v-67l-152 4l-151 -4v67h106v552h-106v67h235q24 0 37 -12l500 -478v423h-106v67l152 -4l151 4v-67zM647 -151q0 -38 -14 -72.5t-32.5 -55.5t-34.5 -33.5t-23 -12.5t-14.5 7.5
t-7.5 14.5q0 10 13 19q59 38 69 112q-12 -8 -33 -8q-29 0 -46.5 19t-17.5 46t18 45.5t45 18.5q35 0 56.5 -29t21.5 -71z" />
    <glyph glyph-name="ncommaaccent" unicode="&#x146;" horiz-adv-x="839" 
d="M776 0q-59 4 -138 4l-139 -4v67h72v231q0 55 -18 76.5t-66 21.5q-27 0 -56 -7.5t-59.5 -23.5t-50 -48t-19.5 -75v-175h72v-67q-59 4 -138 4l-139 -4v67h72v271q0 28 -11 33.5t-61 5.5v67l188 8v-107q26 41 81 74t144 33q28 0 49.5 -2t50.5 -11t48 -24.5t32.5 -46.5
t13.5 -73v-228h72v-67zM490 -151q0 -38 -14 -72.5t-32.5 -55.5t-34.5 -33.5t-23 -12.5t-14.5 7.5t-7.5 14.5q0 10 13 19q59 38 69 112q-12 -8 -33 -8q-29 0 -46.5 19t-17.5 46t18 45.5t45 18.5q35 0 56.5 -29t21.5 -71z" />
    <glyph glyph-name="Ncaron" unicode="&#x147;" horiz-adv-x="1153" 
d="M1061 619h-106v-581q0 -24 -7.5 -31t-30.5 -7h-15q-17 0 -22 2t-16 12l-575 549v-496h106v-67l-152 4l-151 -4v67h106v552h-106v67h235q24 0 37 -12l500 -478v423h-106v67l152 -4l151 4v-67zM751 882l-175 -141l-175 141l16 24l160 -58l160 58z" />
    <glyph glyph-name="ncaron" unicode="&#x148;" horiz-adv-x="839" 
d="M776 0q-59 4 -138 4l-139 -4v67h72v231q0 55 -18 76.5t-66 21.5q-27 0 -56 -7.5t-59.5 -23.5t-50 -48t-19.5 -75v-175h72v-67q-59 4 -138 4l-139 -4v67h72v271q0 28 -11 33.5t-61 5.5v67l188 8v-107q26 41 81 74t144 33q28 0 49.5 -2t50.5 -11t48 -24.5t32.5 -46.5
t13.5 -73v-228h72v-67zM596 685l-177 -185l-177 185l20 22l158 -99l158 99z" />
    <glyph glyph-name="Eng" unicode="&#x14a;" horiz-adv-x="1153" 
d="M1083 343q0 -146 -90 -253t-224 -107q-31 0 -53 22t-22 53t22 53t53 22q47 0 68 -43q74 58 74 253q0 115 -81 195.5t-196 80.5q-207 0 -281 -70v-482h111v-67q-61 4 -189 4t-189 -4v67h111v552h-111v67q61 -4 189 -4q43 0 78 4v-45q110 62 281 62q117 0 219 -44
t166 -127.5t64 -188.5z" />
    <glyph glyph-name="eng" unicode="&#x14b;" horiz-adv-x="771" 
d="M704 67q0 -113 -69.5 -195.5t-173.5 -82.5q-28 0 -47.5 19.5t-19.5 47.5t19.5 47.5t47.5 19.5q36 0 56 -30q54 47 54 174v231q0 55 -18 76.5t-66 21.5q-27 0 -56 -7.5t-59.5 -23.5t-50 -48t-19.5 -75v-175h72v-67q-59 4 -138 4l-139 -4v67h72v271q0 28 -11 33.5t-61 5.5
v67l188 8v-107q26 41 81 74t144 33q28 0 49.5 -2t50.5 -11t48 -24.5t32.5 -46.5t13.5 -73v-228z" />
    <glyph glyph-name="Omacron" unicode="&#x14c;" horiz-adv-x="1122" 
d="M1024 338q0 -68 -27 -129.5t-80.5 -113t-145.5 -82t-210 -30.5t-209.5 30.5t-145.5 81.5t-81 113t-27 130q0 70 27 133.5t80.5 116t145.5 84t210 31.5t209.5 -31t145.5 -84t81 -116.5t27 -133.5zM852 355q0 148 -78 217q-79 69 -213 69q-139 0 -215 -70q-76 -72 -76 -216
q0 -139 68.5 -223.5t222.5 -84.5q149 0 220 81.5t71 226.5zM822 761h-522v71h522v-71z" />
    <glyph glyph-name="omacron" unicode="&#x14d;" 
d="M701 217q0 -42 -18 -80.5t-54.5 -71.5t-101 -53t-148.5 -20t-148.5 20t-101 53t-54.5 71.5t-18 80.5q0 44 17.5 84.5t54 76t101 57t149.5 21.5q84 0 148.5 -21t101 -56.5t54.5 -76.5t18 -85zM551 229q0 23 -0.5 34.5t-3.5 33t-9.5 33t-19 27t-30.5 23.5t-45.5 14t-63.5 6
t-63.5 -6t-45.5 -14t-30.5 -23t-19 -27t-9.5 -33t-3.5 -33t-0.5 -35q0 -33 1 -50.5t10 -45.5t26 -42t51 -25.5t84 -11.5t84 11.5t51 25.5t26 42t10 45.5t1 50.5zM640 568h-522v71h522v-71z" />
    <glyph glyph-name="Obreve" unicode="&#x14e;" horiz-adv-x="1122" 
d="M1024 338q0 -68 -27 -129.5t-80.5 -113t-145.5 -82t-210 -30.5t-209.5 30.5t-145.5 81.5t-81 113t-27 130q0 70 27 133.5t80.5 116t145.5 84t210 31.5t209.5 -31t145.5 -84t81 -116.5t27 -133.5zM852 355q0 148 -78 217q-79 69 -213 69q-139 0 -215 -70q-76 -72 -76 -216
q0 -139 68.5 -223.5t222.5 -84.5q149 0 220 81.5t71 226.5zM790 934q-3 -88 -73.5 -135.5t-155.5 -47.5t-155.5 47.5t-73.5 135.5h56q1 -34 22.5 -56.5t54.5 -31t54 -11t42 -2.5q15 0 30.5 1t42.5 7t47 15.5t36 30t17 47.5h56z" />
    <glyph glyph-name="obreve" unicode="&#x14f;" 
d="M701 217q0 -42 -18 -80.5t-54.5 -71.5t-101 -53t-148.5 -20t-148.5 20t-101 53t-54.5 71.5t-18 80.5q0 44 17.5 84.5t54 76t101 57t149.5 21.5q84 0 148.5 -21t101 -56.5t54.5 -76.5t18 -85zM551 229q0 23 -0.5 34.5t-3.5 33t-9.5 33t-19 27t-30.5 23.5t-45.5 14t-63.5 6
t-63.5 -6t-45.5 -14t-30.5 -23t-19 -27t-9.5 -33t-3.5 -33t-0.5 -35q0 -33 1 -50.5t10 -45.5t26 -42t51 -25.5t84 -11.5t84 11.5t51 25.5t26 42t10 45.5t1 50.5zM608 695q-3 -88 -73.5 -135.5t-155.5 -47.5t-155.5 47.5t-73.5 135.5h56q1 -34 22.5 -56.5t54.5 -31t54 -11
t42 -2.5q15 0 30.5 1t42.5 7t47 15.5t36 30t17 47.5h56z" />
    <glyph glyph-name="Ohungarumlaut" unicode="&#x150;" horiz-adv-x="1122" 
d="M1024 338q0 -68 -27 -129.5t-80.5 -113t-145.5 -82t-210 -30.5t-209.5 30.5t-145.5 81.5t-81 113t-27 130q0 70 27 133.5t80.5 116t145.5 84t210 31.5t209.5 -31t145.5 -84t81 -116.5t27 -133.5zM852 355q0 148 -78 217q-79 69 -213 69q-139 0 -215 -70q-76 -72 -76 -216
q0 -139 68.5 -223.5t222.5 -84.5q149 0 220 81.5t71 226.5zM573 872q0 -36 -39 -59l-106 -62l-55 62l76 102q22 30 53 30q27 0 49 -22.5t22 -50.5zM815 872q0 -36 -39 -59l-106 -62l-55 62l76 102q22 30 53 30q27 0 49 -22.5t22 -50.5z" />
    <glyph glyph-name="ohungarumlaut" unicode="&#x151;" 
d="M701 217q0 -42 -18 -80.5t-54.5 -71.5t-101 -53t-148.5 -20t-148.5 20t-101 53t-54.5 71.5t-18 80.5q0 44 17.5 84.5t54 76t101 57t149.5 21.5q84 0 148.5 -21t101 -56.5t54.5 -76.5t18 -85zM551 229q0 23 -0.5 34.5t-3.5 33t-9.5 33t-19 27t-30.5 23.5t-45.5 14t-63.5 6
t-63.5 -6t-45.5 -14t-30.5 -23t-19 -27t-9.5 -33t-3.5 -33t-0.5 -35q0 -33 1 -50.5t10 -45.5t26 -42t51 -25.5t84 -11.5t84 11.5t51 25.5t26 42t10 45.5t1 50.5zM391 627q0 -36 -39 -59l-106 -62l-55 62l76 102q22 30 53 30q27 0 49 -22.5t22 -50.5zM633 627q0 -36 -39 -59
l-106 -62l-55 62l76 102q22 30 53 30q27 0 49 -22.5t22 -50.5z" />
    <glyph glyph-name="OE" unicode="&#x152;" horiz-adv-x="1500" 
d="M1443 229l-58 -229h-561q-36 0 -98 -7q-92 -10 -133 -10q-118 0 -211 29t-150.5 79t-87 113t-29.5 134q0 72 29 136t86 116t151 82.5t213 30.5q44 0 116 -8q85 -9 114 -9h539l39 -206h-83q-7 38 -24 65t-36 41t-49 22t-53.5 9.5t-59.5 1.5h-197v-230h128q25 0 40 1t36 5
t33 12.5t21 25t10 39.5h83v-233h-83q-1 29 -13 47t-35 25t-41.5 9t-50.5 2h-128v-255h211q110 0 166.5 32t82.5 130h83zM759 344l-1 128q-1 56 -5.5 86t-21 52.5t-46 29.5t-81.5 7q-84 0 -148.5 -24.5t-102 -66.5t-56 -93t-18.5 -108q0 -59 17.5 -112.5t54 -100.5t102 -75
t152.5 -28q94 0 122.5 32t30.5 135z" />
    <glyph glyph-name="oe" unicode="&#x153;" horiz-adv-x="1161" 
d="M1104 110q0 -14 -20 -42t-59 -48q-56 -28 -148 -28q-166 0 -256 81q-84 -81 -249 -81q-83 0 -146.5 21t-98.5 56.5t-52.5 74.5t-17.5 81q0 43 18 82.5t53.5 73.5t98.5 54.5t145 20.5q163 0 247 -78q87 78 238 78q112 0 177 -53q70 -59 70 -173q0 -16 -6 -23.5t-12 -8.5
t-20 -1h-377q9 -75 69 -111q55 -32 140 -32q92 0 122 61q8 14 14 17t25 3h7q38 0 38 -25zM1003 248q-9 152 -146 152q-162 0 -169 -152h315zM554 229q0 23 -1.5 39.5t-11.5 43.5t-28 44t-54 30.5t-87 13.5q-50 0 -86 -13t-54 -30.5t-28 -44t-12 -43.5t-2 -39
q0 -24 1.5 -41.5t11.5 -46t28 -47t54 -33t87 -14.5q50 0 86 14t54 32.5t28 46.5t12 46t2 42z" />
    <glyph glyph-name="Racute" unicode="&#x154;" horiz-adv-x="1103" 
d="M1082 101q0 -12 -5 -27.5t-19 -38t-48 -37.5t-82 -15q-114 0 -170 25q-23 11 -38.5 25t-23.5 26.5t-12 34.5t-4.5 36t-0.5 44q0 50 -6 70.5t-32 38.5q-47 32 -124 32h-167v-248h106v-67l-180 4l-180 -4v67h106v552h-106v67h442q162 0 264.5 -54t102.5 -136
q0 -50 -42.5 -91t-128.5 -65q86 -39 102 -129l16 -82q18 -90 88 -90q20 0 38 14.5t21 50.5q1 12 8 18t13.5 7t19.5 1q14 0 21 -1t14 -8t7 -20zM733 495q0 64 -44.5 94t-157.5 30h-181v-248h181q113 0 157.5 31t44.5 93zM732 873q0 -45 -53 -62l-184 -60l-35 76l166 105
q22 13 40 13q28 0 47 -22t19 -50z" />
    <glyph glyph-name="racute" unicode="&#x155;" horiz-adv-x="622" 
d="M565 357q0 -32 -21 -52.5t-52 -20.5t-52 20.5t-21 52.5q0 22 10 39q-64 -5 -106 -61.5t-42 -137.5v-130h90v-67q-70 4 -149 4q-77 0 -138 -4v67h72v271q0 28 -11 33.5t-61 5.5v67l180 8v-121h1q23 50 68 85.5t106 35.5q53 0 89.5 -26.5t36.5 -68.5zM492 628
q0 -45 -53 -62l-184 -60l-35 76l166 105q22 13 40 13q28 0 47 -22t19 -50z" />
    <glyph glyph-name="Rcommaaccent" unicode="&#x156;" horiz-adv-x="1103" 
d="M1082 101q0 -12 -5 -27.5t-19 -38t-48 -37.5t-82 -15q-114 0 -170 25q-23 11 -38.5 25t-23.5 26.5t-12 34.5t-4.5 36t-0.5 44q0 50 -6 70.5t-32 38.5q-47 32 -124 32h-167v-248h106v-67l-180 4l-180 -4v67h106v552h-106v67h442q162 0 264.5 -54t102.5 -136
q0 -50 -42.5 -91t-128.5 -65q86 -39 102 -129l16 -82q18 -90 88 -90q20 0 38 14.5t21 50.5q1 12 8 18t13.5 7t19.5 1q14 0 21 -1t14 -8t7 -20zM733 495q0 64 -44.5 94t-157.5 30h-181v-248h181q113 0 157.5 31t44.5 93zM622 -151q0 -38 -14 -72.5t-32.5 -55.5t-34.5 -33.5
t-23 -12.5t-14.5 7.5t-7.5 14.5q0 10 13 19q59 38 69 112q-12 -8 -33 -8q-29 0 -46.5 19t-17.5 46t18 45.5t45 18.5q35 0 56.5 -29t21.5 -71z" />
    <glyph glyph-name="rcommaaccent" unicode="&#x157;" horiz-adv-x="622" 
d="M565 357q0 -32 -21 -52.5t-52 -20.5t-52 20.5t-21 52.5q0 22 10 39q-64 -5 -106 -61.5t-42 -137.5v-130h90v-67q-70 4 -149 4q-77 0 -138 -4v67h72v271q0 28 -11 33.5t-61 5.5v67l180 8v-121h1q23 50 68 85.5t106 35.5q53 0 89.5 -26.5t36.5 -68.5zM289 -151
q0 -38 -14 -72.5t-32.5 -55.5t-34.5 -33.5t-23 -12.5t-14.5 7.5t-7.5 14.5q0 10 13 19q59 38 69 112q-12 -8 -33 -8q-29 0 -46.5 19t-17.5 46t18 45.5t45 18.5q35 0 56.5 -29t21.5 -71z" />
    <glyph glyph-name="Rcaron" unicode="&#x158;" horiz-adv-x="1103" 
d="M1082 101q0 -12 -5 -27.5t-19 -38t-48 -37.5t-82 -15q-114 0 -170 25q-23 11 -38.5 25t-23.5 26.5t-12 34.5t-4.5 36t-0.5 44q0 50 -6 70.5t-32 38.5q-47 32 -124 32h-167v-248h106v-67l-180 4l-180 -4v67h106v552h-106v67h442q162 0 264.5 -54t102.5 -136
q0 -50 -42.5 -91t-128.5 -65q86 -39 102 -129l16 -82q18 -90 88 -90q20 0 38 14.5t21 50.5q1 12 8 18t13.5 7t19.5 1q14 0 21 -1t14 -8t7 -20zM733 495q0 64 -44.5 94t-157.5 30h-181v-248h181q113 0 157.5 31t44.5 93zM726 882l-175 -141l-175 141l16 24l160 -58l160 58z
" />
    <glyph glyph-name="rcaron" unicode="&#x159;" horiz-adv-x="622" 
d="M565 357q0 -32 -21 -52.5t-52 -20.5t-52 20.5t-21 52.5q0 22 10 39q-64 -5 -106 -61.5t-42 -137.5v-130h90v-67q-70 4 -149 4q-77 0 -138 -4v67h72v271q0 28 -11 33.5t-61 5.5v67l180 8v-121h1q23 50 68 85.5t106 35.5q53 0 89.5 -26.5t36.5 -68.5zM488 685l-177 -185
l-177 185l20 22l158 -99l158 99z" />
    <glyph glyph-name="Sacute" unicode="&#x15a;" horiz-adv-x="839" 
d="M741 197q0 -24 -6 -48.5t-25 -55.5t-49 -54.5t-84 -39.5t-124 -16q-168 0 -256 49q-11 -12 -19 -18.5t-11 -9.5q-17 -15 -22.5 -18t-16.5 -3q-14 0 -21 5t-8 11t-1 19v174q0 23 6.5 29.5t29.5 6.5h12q33 0 35 -19q1 -17 2 -27t7.5 -29t16.5 -31t30 -27t48 -24t71.5 -15
t97.5 -6q51 0 89 10.5t56 24.5t28.5 32.5t12 28t1.5 18.5q0 45 -40.5 73t-90.5 37l-167 28q-127 21 -186 75q-59 55 -59 125q0 35 15 68.5t45.5 64.5t88 49.5t133.5 18.5q135 0 219 -53l44 42q11 11 28 11q14 0 21 -5t8 -11t1 -19v-175q0 -23 -6.5 -29t-28.5 -6h-13
q-21 0 -27 5t-9 22q-31 157 -238 157q-91 0 -136 -31t-45 -72q0 -74 146 -102l143 -24q47 -8 72 -14t63.5 -26t70.5 -53q48 -53 48 -123zM600 873q0 -45 -53 -62l-184 -60l-35 76l166 105q22 13 40 13q28 0 47 -22t19 -50z" />
    <glyph glyph-name="sacute" unicode="&#x15b;" horiz-adv-x="605" 
d="M540 140q0 -30 -11.5 -54.5t-27.5 -39.5t-40.5 -26t-44.5 -16.5t-46 -8t-37 -3t-26 -0.5q-93 0 -149 29q-29 -17 -30 -17q-20 -12 -33 -12q-14 0 -21 5t-8 11t-1 19v98q0 23 6.5 29.5t29.5 6.5h12q19 0 24.5 -3.5t11.5 -17.5q19 -49 56 -70.5t104 -21.5q150 0 150 67
q0 36 -53 51q-30 9 -131 23q-29 4 -43 6.5t-44 9.5t-47 16t-37 22.5t-29.5 34t-9.5 45.5q0 72 76 108q57 25 159 25q84 0 127 -15q32 15 46 15t21 -5t8 -11t1 -19v-69q0 -22 -6.5 -28.5t-28.5 -6.5h-13q-19 0 -26.5 4.5t-8.5 21.5q-3 31 -29 47t-97 16q-148 0 -148 -55
q0 -13 9 -22.5t31 -15.5t37.5 -9t50.5 -8q95 -13 127 -20.5t68 -26.5q71 -37 71 -109zM483 628q0 -45 -53 -62l-184 -60l-35 76l166 105q22 13 40 13q28 0 47 -22t19 -50z" />
    <glyph glyph-name="Scircumflex" unicode="&#x15c;" horiz-adv-x="839" 
d="M741 197q0 -24 -6 -48.5t-25 -55.5t-49 -54.5t-84 -39.5t-124 -16q-168 0 -256 49q-11 -12 -19 -18.5t-11 -9.5q-17 -15 -22.5 -18t-16.5 -3q-14 0 -21 5t-8 11t-1 19v174q0 23 6.5 29.5t29.5 6.5h12q33 0 35 -19q1 -17 2 -27t7.5 -29t16.5 -31t30 -27t48 -24t71.5 -15
t97.5 -6q51 0 89 10.5t56 24.5t28.5 32.5t12 28t1.5 18.5q0 45 -40.5 73t-90.5 37l-167 28q-127 21 -186 75q-59 55 -59 125q0 35 15 68.5t45.5 64.5t88 49.5t133.5 18.5q135 0 219 -53l44 42q11 11 28 11q14 0 21 -5t8 -11t1 -19v-175q0 -23 -6.5 -29t-28.5 -6h-13
q-21 0 -27 5t-9 22q-31 157 -238 157q-91 0 -136 -31t-45 -72q0 -74 146 -102l143 -24q47 -8 72 -14t63.5 -26t70.5 -53q48 -53 48 -123zM594 765l-16 -24l-160 58l-160 -58l-14 24l175 141z" />
    <glyph glyph-name="scircumflex" unicode="&#x15d;" horiz-adv-x="605" 
d="M540 140q0 -30 -11.5 -54.5t-27.5 -39.5t-40.5 -26t-44.5 -16.5t-46 -8t-37 -3t-26 -0.5q-93 0 -149 29q-29 -17 -30 -17q-20 -12 -33 -12q-14 0 -21 5t-8 11t-1 19v98q0 23 6.5 29.5t29.5 6.5h12q19 0 24.5 -3.5t11.5 -17.5q19 -49 56 -70.5t104 -21.5q150 0 150 67
q0 36 -53 51q-30 9 -131 23q-29 4 -43 6.5t-44 9.5t-47 16t-37 22.5t-29.5 34t-9.5 45.5q0 72 76 108q57 25 159 25q84 0 127 -15q32 15 46 15t21 -5t8 -11t1 -19v-69q0 -22 -6.5 -28.5t-28.5 -6.5h-13q-19 0 -26.5 4.5t-8.5 21.5q-3 31 -29 47t-97 16q-148 0 -148 -55
q0 -13 9 -22.5t31 -15.5t37.5 -9t50.5 -8q95 -13 127 -20.5t68 -26.5q71 -37 71 -109zM479 522l-20 -22l-158 99l-158 -99l-18 22l177 185z" />
    <glyph glyph-name="Scedilla" unicode="&#x15e;" horiz-adv-x="839" 
d="M741 197q0 -21 -5 -43.5t-20 -50.5t-39 -51t-66.5 -41.5t-97.5 -24.5q135 -14 135 -98q0 -65 -115 -88q-73 -15 -191 -15h-69v56h54q188 0 188 47q0 46 -102 46h-19v51q-126 7 -197 47q-11 -12 -19 -18.5t-11 -9.5q-17 -15 -22.5 -18t-16.5 -3q-14 0 -21 5t-8 11t-1 19
v174q0 23 6.5 29.5t29.5 6.5h12q33 0 35 -19q1 -17 2 -27t7.5 -29t16.5 -31t30 -27t48 -24t71.5 -15t97.5 -6q51 0 89 10.5t56 24.5t28.5 32.5t12 28t1.5 18.5q0 45 -40.5 73t-90.5 37l-167 28q-127 21 -186 75q-59 55 -59 125q0 35 15 68.5t45.5 64.5t88 49.5t133.5 18.5
q135 0 219 -53l44 42q11 11 28 11q14 0 21 -5t8 -11t1 -19v-175q0 -23 -6.5 -29t-28.5 -6h-13q-21 0 -27 5t-9 22q-31 157 -238 157q-91 0 -136 -31t-45 -72q0 -74 146 -102l143 -24q47 -8 72 -14t63.5 -26t70.5 -53q48 -53 48 -123z" />
    <glyph glyph-name="scedilla" unicode="&#x15f;" horiz-adv-x="605" 
d="M540 140q0 -30 -11.5 -54.5t-27.5 -39.5t-40.5 -26t-44.5 -16.5t-46 -8t-37 -3t-26 -0.5q-93 0 -149 29q-29 -17 -30 -17q-20 -12 -33 -12q-14 0 -21 5t-8 11t-1 19v98q0 23 6.5 29.5t29.5 6.5h12q19 0 24.5 -3.5t11.5 -17.5q19 -49 56 -70.5t104 -21.5q150 0 150 67
q0 36 -53 51q-30 9 -131 23q-29 4 -43 6.5t-44 9.5t-47 16t-37 22.5t-29.5 34t-9.5 45.5q0 72 76 108q57 25 159 25q84 0 127 -15q32 15 46 15t21 -5t8 -11t1 -19v-69q0 -22 -6.5 -28.5t-28.5 -6.5h-13q-19 0 -26.5 4.5t-8.5 21.5q-3 31 -29 47t-97 16q-148 0 -148 -55
q0 -13 9 -22.5t31 -15.5t37.5 -9t50.5 -8q95 -13 127 -20.5t68 -26.5q71 -37 71 -109zM531 -112q0 -65 -115 -88q-73 -15 -191 -15h-69v56h54q188 0 188 47q0 46 -102 46h-19v56h42q107 0 159.5 -23.5t52.5 -78.5z" />
    <glyph glyph-name="Scaron" unicode="&#x160;" horiz-adv-x="839" 
d="M741 197q0 -24 -6 -48.5t-25 -55.5t-49 -54.5t-84 -39.5t-124 -16q-168 0 -256 49q-11 -12 -19 -18.5t-11 -9.5q-17 -15 -22.5 -18t-16.5 -3q-14 0 -21 5t-8 11t-1 19v174q0 23 6.5 29.5t29.5 6.5h12q33 0 35 -19q1 -17 2 -27t7.5 -29t16.5 -31t30 -27t48 -24t71.5 -15
t97.5 -6q51 0 89 10.5t56 24.5t28.5 32.5t12 28t1.5 18.5q0 45 -40.5 73t-90.5 37l-167 28q-127 21 -186 75q-59 55 -59 125q0 35 15 68.5t45.5 64.5t88 49.5t133.5 18.5q135 0 219 -53l44 42q11 11 28 11q14 0 21 -5t8 -11t1 -19v-175q0 -23 -6.5 -29t-28.5 -6h-13
q-21 0 -27 5t-9 22q-31 157 -238 157q-91 0 -136 -31t-45 -72q0 -74 146 -102l143 -24q47 -8 72 -14t63.5 -26t70.5 -53q48 -53 48 -123zM594 882l-175 -141l-175 141l16 24l160 -58l160 58z" />
    <glyph glyph-name="scaron" unicode="&#x161;" horiz-adv-x="605" 
d="M540 140q0 -30 -11.5 -54.5t-27.5 -39.5t-40.5 -26t-44.5 -16.5t-46 -8t-37 -3t-26 -0.5q-93 0 -149 29q-29 -17 -30 -17q-20 -12 -33 -12q-14 0 -21 5t-8 11t-1 19v98q0 23 6.5 29.5t29.5 6.5h12q19 0 24.5 -3.5t11.5 -17.5q19 -49 56 -70.5t104 -21.5q150 0 150 67
q0 36 -53 51q-30 9 -131 23q-29 4 -43 6.5t-44 9.5t-47 16t-37 22.5t-29.5 34t-9.5 45.5q0 72 76 108q57 25 159 25q84 0 127 -15q32 15 46 15t21 -5t8 -11t1 -19v-69q0 -22 -6.5 -28.5t-28.5 -6.5h-13q-19 0 -26.5 4.5t-8.5 21.5q-3 31 -29 47t-97 16q-148 0 -148 -55
q0 -13 9 -22.5t31 -15.5t37.5 -9t50.5 -8q95 -13 127 -20.5t68 -26.5q71 -37 71 -109zM479 685l-177 -185l-177 185l20 22l158 -99l158 99z" />
    <glyph glyph-name="Tcedilla" unicode="&#x162;" horiz-adv-x="1042" 
d="M973 463h-83q-11 82 -48.5 110.5t-122.5 28.5h-120v-535h149v-67q-48 4 -227 4t-227 -4v67h149v535h-120q-85 0 -122.5 -28.5t-48.5 -110.5h-83l27 206h850zM754 -112q0 -65 -115 -88q-73 -15 -191 -15h-69v56h54q188 0 188 47q0 46 -102 46h-19v56h42q107 0 159.5 -23.5
t52.5 -78.5z" />
    <glyph glyph-name="tcedilla" unicode="&#x163;" horiz-adv-x="597" 
d="M499 119q0 -36 -16.5 -62t-43.5 -39.5t-55 -19.5t-58 -6q-174 0 -174 126v259h-108v56q73 2 114.5 61t43.5 141h83v-191h190v-67h-190v-256q0 -14 1 -22.5t6.5 -20.5t19.5 -18t36 -6q68 0 68 69v44h83v-48zM554 -112q0 -65 -115 -88q-73 -15 -191 -15h-69v56h54
q188 0 188 47q0 46 -102 46h-19v56h42q107 0 159.5 -23.5t52.5 -78.5z" />
    <glyph glyph-name="Tcaron" unicode="&#x164;" horiz-adv-x="1042" 
d="M973 463h-83q-11 82 -48.5 110.5t-122.5 28.5h-120v-535h149v-67q-48 4 -227 4t-227 -4v67h149v535h-120q-85 0 -122.5 -28.5t-48.5 -110.5h-83l27 206h850zM696 882l-175 -141l-175 141l16 24l160 -58l160 58z" />
    <glyph glyph-name="tcaron" unicode="&#x165;" horiz-adv-x="597" 
d="M499 119q0 -36 -16.5 -62t-43.5 -39.5t-55 -19.5t-58 -6q-174 0 -174 126v259h-108v56q73 2 114.5 61t43.5 141h83v-191h190v-67h-190v-256q0 -14 1 -22.5t6.5 -20.5t19.5 -18t36 -6q68 0 68 69v44h83v-48zM480 672q0 -38 -14 -72.5t-32.5 -55.5t-34.5 -33.5t-23 -12.5
t-14.5 7.5t-7.5 14.5q0 10 13 19q59 38 69 112q-12 -8 -33 -8q-29 0 -46.5 19t-17.5 46t18 45.5t45 18.5q35 0 56.5 -29t21.5 -71z" />
    <glyph glyph-name="Utilde" unicode="&#x168;" horiz-adv-x="1133" 
d="M1041 619h-106v-388q0 -46 -19 -88t-58.5 -79t-111 -59t-166.5 -22q-188 0 -285 72t-97 177v387h-106v67l184 -4l184 4v-67h-106v-388q0 -85 50 -133t179 -48q54 0 98 9t81.5 29.5t58 57.5t20.5 88v385h-106v67q66 -4 153 -4q33 0 153 4v-67zM842 853
q-36 -30 -48.5 -41.5t-21.5 -18.5q-64 -52 -108 -52q-30 0 -82 30q-40 26 -72 26q-49 0 -113 -56l-37 43q36 30 48.5 41.5t21.5 18.5q64 52 108 52q30 0 82 -30q40 -26 72 -26q49 0 113 56z" />
    <glyph glyph-name="utilde" unicode="&#x169;" horiz-adv-x="839" 
d="M776 0l-197 -8v65q-65 -65 -194 -65q-44 0 -75.5 4t-67 15.5t-54.5 38.5t-19 68v220q0 28 -11 33.5t-61 5.5v67l205 8v-340q0 -27 4 -37.5t27 -18.5t73 -8q29 0 55 4.5t52.5 15.5t42 34t15.5 56v180q0 28 -11 33.5t-61 5.5v67l205 8v-346q0 -28 11 -33.5t61 -5.5v-67z
M660 638q-36 -30 -48.5 -41.5t-21.5 -18.5q-64 -52 -108 -52q-30 0 -82 30q-40 26 -72 26q-49 0 -113 -56l-37 43q36 30 48.5 41.5t21.5 18.5q64 52 108 52q30 0 82 -30q40 -26 72 -26q49 0 113 56z" />
    <glyph glyph-name="Umacron" unicode="&#x16a;" horiz-adv-x="1133" 
d="M1041 619h-106v-388q0 -46 -19 -88t-58.5 -79t-111 -59t-166.5 -22q-188 0 -285 72t-97 177v387h-106v67l184 -4l184 4v-67h-106v-388q0 -85 50 -133t179 -48q54 0 98 9t81.5 29.5t58 57.5t20.5 88v385h-106v67q66 -4 153 -4q33 0 153 4v-67zM862 761h-522v71h522v-71z
" />
    <glyph glyph-name="umacron" unicode="&#x16b;" horiz-adv-x="839" 
d="M776 0l-197 -8v65q-65 -65 -194 -65q-44 0 -75.5 4t-67 15.5t-54.5 38.5t-19 68v220q0 28 -11 33.5t-61 5.5v67l205 8v-340q0 -27 4 -37.5t27 -18.5t73 -8q29 0 55 4.5t52.5 15.5t42 34t15.5 56v180q0 28 -11 33.5t-61 5.5v67l205 8v-346q0 -28 11 -33.5t61 -5.5v-67z
M680 568h-522v71h522v-71z" />
    <glyph glyph-name="Ubreve" unicode="&#x16c;" horiz-adv-x="1133" 
d="M1041 619h-106v-388q0 -46 -19 -88t-58.5 -79t-111 -59t-166.5 -22q-188 0 -285 72t-97 177v387h-106v67l184 -4l184 4v-67h-106v-388q0 -85 50 -133t179 -48q54 0 98 9t81.5 29.5t58 57.5t20.5 88v385h-106v67q66 -4 153 -4q33 0 153 4v-67zM830 934
q-3 -88 -73.5 -135.5t-155.5 -47.5t-155.5 47.5t-73.5 135.5h56q1 -34 22.5 -56.5t54.5 -31t54 -11t42 -2.5q15 0 30.5 1t42.5 7t47 15.5t36 30t17 47.5h56z" />
    <glyph glyph-name="ubreve" unicode="&#x16d;" horiz-adv-x="839" 
d="M776 0l-197 -8v65q-65 -65 -194 -65q-44 0 -75.5 4t-67 15.5t-54.5 38.5t-19 68v220q0 28 -11 33.5t-61 5.5v67l205 8v-340q0 -27 4 -37.5t27 -18.5t73 -8q29 0 55 4.5t52.5 15.5t42 34t15.5 56v180q0 28 -11 33.5t-61 5.5v67l205 8v-346q0 -28 11 -33.5t61 -5.5v-67z
M648 695q-3 -88 -73.5 -135.5t-155.5 -47.5t-155.5 47.5t-73.5 135.5h56q1 -34 22.5 -56.5t54.5 -31t54 -11t42 -2.5q15 0 30.5 1t42.5 7t47 15.5t36 30t17 47.5h56z" />
    <glyph glyph-name="Uring" unicode="&#x16e;" horiz-adv-x="1133" 
d="M1041 619h-106v-388q0 -46 -19 -88t-58.5 -79t-111 -59t-166.5 -22q-188 0 -285 72t-97 177v387h-106v67l184 -4l184 4v-67h-106v-388q0 -85 50 -133t179 -48q54 0 98 9t81.5 29.5t58 57.5t20.5 88v385h-106v67q66 -4 153 -4q33 0 153 4v-67zM673 795q0 11 -3.5 18
t-7.5 11t-15 5.5t-19.5 2t-26.5 0.5q-43 0 -57.5 -5.5t-14.5 -31.5q0 -11 3.5 -18t7.5 -11t15 -5.5t19.5 -2t26.5 -0.5q43 0 57.5 5.5t14.5 31.5zM762 796q0 -35 -39.5 -60t-121.5 -25t-121.5 25t-39.5 60q0 31 38 57t123 26q84 0 122.5 -25.5t38.5 -57.5z" />
    <glyph glyph-name="uring" unicode="&#x16f;" horiz-adv-x="839" 
d="M776 0l-197 -8v65q-65 -65 -194 -65q-44 0 -75.5 4t-67 15.5t-54.5 38.5t-19 68v220q0 28 -11 33.5t-61 5.5v67l205 8v-340q0 -27 4 -37.5t27 -18.5t73 -8q29 0 55 4.5t52.5 15.5t42 34t15.5 56v180q0 28 -11 33.5t-61 5.5v67l205 8v-346q0 -28 11 -33.5t61 -5.5v-67z
M492 618q0 14 -4 21.5t-15 11t-21 4t-32 0.5q-42 0 -57 -5.5t-15 -31.5q0 -14 4 -21.5t15 -11t21 -4t32 -0.5q42 0 57 5.5t15 31.5zM581 619q0 -35 -39.5 -60t-121.5 -25t-121.5 25t-39.5 60q0 31 38 57t123 26q84 0 122.5 -25.5t38.5 -57.5z" />
    <glyph glyph-name="Uhungarumlaut" unicode="&#x170;" horiz-adv-x="1133" 
d="M1041 619h-106v-388q0 -46 -19 -88t-58.5 -79t-111 -59t-166.5 -22q-188 0 -285 72t-97 177v387h-106v67l184 -4l184 4v-67h-106v-388q0 -85 50 -133t179 -48q54 0 98 9t81.5 29.5t58 57.5t20.5 88v385h-106v67q66 -4 153 -4q33 0 153 4v-67zM613 872q0 -36 -39 -59
l-106 -62l-55 62l76 102q22 30 53 30q27 0 49 -22.5t22 -50.5zM855 872q0 -36 -39 -59l-106 -62l-55 62l76 102q22 30 53 30q27 0 49 -22.5t22 -50.5z" />
    <glyph glyph-name="uhungarumlaut" unicode="&#x171;" horiz-adv-x="839" 
d="M776 0l-197 -8v65q-65 -65 -194 -65q-44 0 -75.5 4t-67 15.5t-54.5 38.5t-19 68v220q0 28 -11 33.5t-61 5.5v67l205 8v-340q0 -27 4 -37.5t27 -18.5t73 -8q29 0 55 4.5t52.5 15.5t42 34t15.5 56v180q0 28 -11 33.5t-61 5.5v67l205 8v-346q0 -28 11 -33.5t61 -5.5v-67z
M431 627q0 -36 -39 -59l-106 -62l-55 62l76 102q22 30 53 30q27 0 49 -22.5t22 -50.5zM673 627q0 -36 -39 -59l-106 -62l-55 62l76 102q22 30 53 30q27 0 49 -22.5t22 -50.5z" />
    <glyph glyph-name="Uogonek" unicode="&#x172;" horiz-adv-x="1133" 
d="M1041 619h-106v-388q0 -41 -15 -78.5t-46 -72t-86 -59.5t-128 -34q-21 -16 -30 -43q-12 -32 8 -57.5t52 -25.5q7 0 14.5 3t12.5 6t14 9l12 8q15 10 36 -7q8 -7 11.5 -19t-1.5 -21q-52 -75 -137 -75q-63 0 -102.5 36t-39.5 85q0 45 47 97q-177 5 -268 76.5t-91 172.5v387
h-106v67l184 -4l184 4v-67h-106v-388q0 -85 50 -133t179 -48q54 0 98 9t81.5 29.5t58 57.5t20.5 88v385h-106v67q66 -4 153 -4q33 0 153 4v-67z" />
    <glyph glyph-name="uogonek" unicode="&#x173;" horiz-adv-x="839" 
d="M793 -160q-52 -75 -137 -75q-63 0 -102.5 36t-39.5 85q0 55 65 115v56q-65 -65 -194 -65q-44 0 -75.5 4t-67 15.5t-54.5 38.5t-19 68v220q0 28 -11 33.5t-61 5.5v67l205 8v-340q0 -27 4 -37.5t27 -18.5t73 -8q29 0 55 4.5t52.5 15.5t42 34t15.5 56v180q0 28 -11 33.5
t-61 5.5v67l205 8v-346q0 -28 11 -33.5t61 -5.5v-67l-101 -4q-29 -19 -41 -52q-12 -32 8 -57.5t52 -25.5q7 0 14.5 3t12.5 6t14 9l12 8q15 10 36 -7q8 -7 11.5 -19t-1.5 -21z" />
    <glyph glyph-name="Wcircumflex" unicode="&#x174;" horiz-adv-x="1517" 
d="M1467 619h-90l-257 -603q-6 -13 -9.5 -18.5t-14 -10t-28.5 -4.5h-63q-13 0 -20 1t-16.5 8t-15.5 21l-195 458l-194 -458q-6 -14 -15.5 -21t-16.5 -8t-20 -1h-63q-14 0 -21 1t-16 9t-16 23l-256 603h-90v67l157 -4l179 4v-67h-86l216 -506l197 464l-18 42h-89v67l157 -4
l178 4v-67h-85l216 -506l215 506h-96v67l152 -4q85 0 124 4v-67zM933 765l-16 -24l-160 58l-160 -58l-14 24l175 141z" />
    <glyph glyph-name="wcircumflex" unicode="&#x175;" horiz-adv-x="1081" 
d="M1031 377h-66l-150 -354q-6 -14 -15.5 -21.5t-16.5 -8.5t-20 -1h-63q-13 0 -20 1t-16.5 8t-15.5 21l-108 254l-107 -254q-6 -14 -15.5 -21t-16.5 -8t-20 -1h-63q-13 0 -20 1t-16.5 8.5t-15.5 21.5l-150 354h-66v67q51 -4 120 -4l134 4v-67h-52l120 -284l121 284h-62v67
q44 -4 106 -4q68 0 121 4v-67h-52l134 -316l135 316h-60v67q52 -4 118 -4q56 0 98 4v-67zM717 522l-20 -22l-158 99l-158 -99l-18 22l177 185z" />
    <glyph glyph-name="Ycircumflex" unicode="&#x176;" horiz-adv-x="1114" 
d="M1061 619h-110l-320 -344v-208h105v-67l-179 4l-180 -4v67h106v207l-320 345h-110v67l176 -4q137 0 193 4v-67h-58l230 -247l229 247h-57v67l156 -4q78 0 139 4v-67zM732 765l-16 -24l-160 58l-160 -58l-14 24l175 141z" />
    <glyph glyph-name="ycircumflex" unicode="&#x177;" horiz-adv-x="799" 
d="M745 377h-73l-239 -448q-39 -72 -111 -101.5t-140 -29.5q-61 0 -99 31.5t-38 76.5q0 33 21 52t50 19t50 -19t21 -52q0 -26 -14 -45l-3 -5q8 -2 14 -2q33 0 60 7t43.5 16.5t30.5 25t20 25.5t14 25q24 43 24 47q0 2 -6 12l-236 365h-76v67q56 -4 127 -4q74 0 138 4v-67h-40
l162 -251l133 251h-47v67q48 -4 113 -4q47 0 101 4v-67zM576 522l-20 -22l-158 99l-158 -99l-18 22l177 185z" />
    <glyph glyph-name="Ydieresis" unicode="&#x178;" horiz-adv-x="1114" 
d="M1061 619h-110l-320 -344v-208h105v-67l-179 4l-180 -4v67h106v207l-320 345h-110v67l176 -4q137 0 193 4v-67h-58l230 -247l229 247h-57v67l156 -4q78 0 139 4v-67zM467 815q0 -30 -23 -52t-55 -22q-31 0 -54 21.5t-23 53.5q0 31 22.5 53t54.5 22t55 -22t23 -54z
M803 815q0 -30 -23 -52t-55 -22q-31 0 -54 21.5t-23 53.5q0 31 22.5 53t54.5 22t55 -22t23 -54z" />
    <glyph glyph-name="Zacute" unicode="&#x179;" horiz-adv-x="919" 
d="M830 240l-23 -240h-671q-23 0 -30.5 7t-7.5 30q0 15 2 20.5t11 14.5l500 547h-173q-18 0 -32 -1t-44.5 -4t-53.5 -12.5t-48 -23.5t-40.5 -39.5t-18.5 -58.5h-83l16 206h649q14 0 21 -1.5t12 -9.5t5 -24q0 -14 -2 -19t-11 -14l-498 -545h187q28 0 47.5 1.5t50.5 6t53 15.5
t44.5 28.5t36.5 47t18 68.5h83zM641 873q0 -45 -53 -62l-184 -60l-35 76l166 105q22 13 40 13q28 0 47 -22t19 -50z" />
    <glyph glyph-name="zacute" unicode="&#x17a;" horiz-adv-x="678" 
d="M601 178l-23 -178h-483q-14 0 -20 1t-12 8.5t-6 23.5q0 13 2 17.5t11 13.5l337 324h-91q-73 0 -110.5 -18.5t-45.5 -80.5h-83l16 155h466q13 0 19.5 -1t12.5 -8t6 -22q0 -12 -2 -16.5t-11 -12.5l-335 -322h98q30 0 50.5 2t43 8.5t36.5 19t25.5 34t15.5 52.5h83zM520 628
q0 -45 -53 -62l-184 -60l-35 76l166 105q22 13 40 13q28 0 47 -22t19 -50z" />
    <glyph glyph-name="Zdotaccent" unicode="&#x17b;" horiz-adv-x="919" 
d="M830 240l-23 -240h-671q-23 0 -30.5 7t-7.5 30q0 15 2 20.5t11 14.5l500 547h-173q-18 0 -32 -1t-44.5 -4t-53.5 -12.5t-48 -23.5t-40.5 -39.5t-18.5 -58.5h-83l16 206h649q14 0 21 -1.5t12 -9.5t5 -24q0 -14 -2 -19t-11 -14l-498 -545h187q28 0 47.5 1.5t50.5 6t53 15.5
t44.5 28.5t36.5 47t18 68.5h83zM546 841q0 -34 -25 -58.5t-61 -24.5q-35 0 -60.5 24.5t-25.5 59.5q0 34 25 58.5t61 24.5q35 0 60.5 -24.5t25.5 -59.5z" />
    <glyph glyph-name="zdotaccent" unicode="&#x17c;" horiz-adv-x="678" 
d="M601 178l-23 -178h-483q-14 0 -20 1t-12 8.5t-6 23.5q0 13 2 17.5t11 13.5l337 324h-91q-73 0 -110.5 -18.5t-45.5 -80.5h-83l16 155h466q13 0 19.5 -1t12.5 -8t6 -22q0 -12 -2 -16.5t-11 -12.5l-335 -322h98q30 0 50.5 2t43 8.5t36.5 19t25.5 34t15.5 52.5h83zM425 603
q0 -34 -25 -58.5t-61 -24.5q-35 0 -60.5 24.5t-25.5 59.5q0 34 25 58.5t61 24.5q35 0 60.5 -24.5t25.5 -59.5z" />
    <glyph glyph-name="Zcaron" unicode="&#x17d;" horiz-adv-x="919" 
d="M830 240l-23 -240h-671q-23 0 -30.5 7t-7.5 30q0 15 2 20.5t11 14.5l500 547h-173q-18 0 -32 -1t-44.5 -4t-53.5 -12.5t-48 -23.5t-40.5 -39.5t-18.5 -58.5h-83l16 206h649q14 0 21 -1.5t12 -9.5t5 -24q0 -14 -2 -19t-11 -14l-498 -545h187q28 0 47.5 1.5t50.5 6t53 15.5
t44.5 28.5t36.5 47t18 68.5h83zM635 882l-175 -141l-175 141l16 24l160 -58l160 58z" />
    <glyph glyph-name="zcaron" unicode="&#x17e;" horiz-adv-x="678" 
d="M601 178l-23 -178h-483q-14 0 -20 1t-12 8.5t-6 23.5q0 13 2 17.5t11 13.5l337 324h-91q-73 0 -110.5 -18.5t-45.5 -80.5h-83l16 155h466q13 0 19.5 -1t12.5 -8t6 -22q0 -12 -2 -16.5t-11 -12.5l-335 -322h98q30 0 50.5 2t43 8.5t36.5 19t25.5 34t15.5 52.5h83zM516 685
l-177 -185l-177 185l20 22l158 -99l158 99z" />
    <glyph glyph-name="longs" unicode="&#x17f;" horiz-adv-x="476" 
d="M563 603q0 -34 -22 -54t-52 -20q-27 0 -50 19.5t-23 54.5q0 7 5 19t5 18v3q0 3 -12 3q-54 0 -90 -28q-26 -28 -26 -85v-466h90v-67q-70 4 -149 4q-77 0 -138 -4v67h72v310h-100v67h100v91q0 81 72 124t180 43q67 0 102.5 -29.5t35.5 -69.5z" />
    <glyph glyph-name="Ereversed" unicode="&#x18e;" horiz-adv-x="978" 
d="M921 0h-771l-58 229h83q13 -53 38 -87t62.5 -49.5t72.5 -20.5t88 -5h223v251h-89q-23 0 -37.5 -1t-32 -5.5t-27.5 -13t-17 -24.5t-8 -39h-83v233h83q1 -23 8 -39t17 -24.5t27.5 -13t32 -5.5t37.5 -1h89v226h-209q-49 0 -81 -4t-66.5 -17t-55.5 -42.5t-31 -75.5h-83
l39 206h749v-67h-106v-544h106v-67z" />
    <glyph glyph-name="florin" unicode="&#x192;" horiz-adv-x="476" 
d="M563 603q0 -34 -22 -54t-52 -20q-27 0 -50 19.5t-23 54.5q0 19 9 37l1 3q0 3 -12 3q-54 0 -90 -28q-34 -28 -34 -85v-89h159v-67h-151v-310h90v-67q-70 4 -149 4q-77 0 -138 -4v67h72v310h-100v67h100v91q0 81 72 124t180 43q67 0 102.5 -29.5t35.5 -69.5z" />
    <glyph glyph-name="Ohorn" unicode="&#x1a0;" horiz-adv-x="1122" 
d="M1021 337q0 -75 -33 -143t-93 -114q-126 -97 -336 -97t-336 97q-60 46 -93 114t-33 143q0 79 33 148.5t93 117.5q125 100 336 100q138 0 240 -44q28 8 43 29q-22 6 -34.5 24.5t-12.5 40.5q0 27 17.5 46.5t49.5 19.5q30 0 48 -25.5t18 -60.5q0 -82 -53 -115q3 -2 10 -7
t10 -8q60 -48 93 -117.5t33 -148.5zM849 357q0 138 -71 209q-77 76 -219 76t-219 -76q-71 -71 -71 -209q0 -152 71 -229q77 -81 219 -81t219 81q71 77 71 229z" />
    <glyph glyph-name="ohorn" unicode="&#x1a1;" 
d="M697 217q0 -49 -23 -92t-64 -72q-87 -61 -233 -61t-233 61q-41 29 -64 72t-23 92q0 51 23 97t64 77q87 66 233 66q113 0 190 -39q25 6 42 29q-22 6 -34.5 24t-12.5 40q0 27 18 47t49 20q30 0 48.5 -26t18.5 -61q0 -40 -17 -73.5t-46 -46.5q64 -62 64 -154zM547 231
q0 31 -1 48t-8.5 41t-22.5 39q-42 42 -138 42t-137 -42q-15 -15 -23 -39t-9 -41t-1 -48q0 -33 1 -51t9 -43.5t23 -41.5q40 -42 137 -42t138 42q15 16 22.5 41.5t8.5 43.5t1 51z" />
    <glyph glyph-name="Uhorn" unicode="&#x1af;" horiz-adv-x="1133" 
d="M1073 732q0 -52 -40 -88t-100 -47v-368q0 -54 -27 -102t-74 -79q-95 -65 -252 -65q-169 0 -274 64q-51 32 -80.5 79.5t-29.5 102.5v390h-105v67l183 -4l183 4v-67h-105v-390q0 -90 50 -131q60 -48 178 -48q127 0 195 49q63 46 63 130v390h-105v67q68 -4 153 -4q26 0 47 4
v-16q29 5 47 20q-41 15 -41 63q0 27 18 46.5t49 19.5q30 0 48.5 -26t18.5 -61z" />
    <glyph glyph-name="uhorn" unicode="&#x1b0;" horiz-adv-x="839" 
d="M846 490q0 -52 -40.5 -86t-104.5 -47v-263q0 -18 12 -23q12 -4 60 -4v-67l-197 -8v65q-60 -65 -178 -65q-119 0 -170 24q-61 30 -61 95v239q0 19 -12 23q-12 5 -60 5v66l205 9v-342q0 -41 12 -48q26 -16 102 -16q65 0 109 28t45 72v203q0 18 -12 23t-60 5v66l205 9v-25
q36 7 53 21q-41 15 -41 62q0 27 17.5 47t48.5 20q30 0 48.5 -26.5t18.5 -61.5z" />
    <glyph glyph-name="Acaron" unicode="&#x1cd;" horiz-adv-x="1114" 
d="M1042 0l-167 4l-181 -4v67h83l-70 146h-360l-69 -146h83v-67l-152 4q-76 0 -137 -4v67h102l290 611q8 16 17 23.5t16 8.5t22 1h76q26 0 35.5 -7t19.5 -28l290 -609h102v-67zM676 280l-149 312l-148 -312h297zM732 882l-175 -141l-175 141l16 24l160 -58l160 58z" />
    <glyph glyph-name="acaron" unicode="&#x1ce;" horiz-adv-x="738" 
d="M716 34q0 -25 -10.5 -29.5t-60.5 -4.5q-37 0 -56 1t-44 6t-37.5 18.5t-15.5 34.5q-47 -68 -202 -68q-29 0 -55 2.5t-73 13t-75.5 39.5t-28.5 73q0 53 49.5 83t145.5 48q34 6 73.5 10t66 5t50 1.5t25.5 0.5v19q0 113 -142 113q-47 0 -84 -8q14 -19 14 -45q0 -32 -21 -53.5
t-54 -21.5q-31 0 -53 20.5t-22 55.5q0 26 10.5 45.5t31.5 30.5t40.5 18t49 10t45.5 3.5t42 0.5q147 0 211.5 -48t64.5 -118v-213q21 -10 71 -10h6q14 0 20 -1t12 -8.5t6 -23.5zM468 133v87q-277 -12 -277 -99q0 -34 35.5 -53.5t90.5 -19.5q59 0 100 16q24 9 36 22t13.5 22
t1.5 25zM546 685l-177 -185l-177 185l20 22l158 -99l158 99z" />
    <glyph glyph-name="Icaron" unicode="&#x1cf;" horiz-adv-x="550" 
d="M464 0q-61 4 -189 4t-189 -4v67h111v552h-111v67q61 -4 189 -4t189 4v-67h-111v-552h111v-67zM450 882l-175 -141l-175 141l16 24l160 -58l160 58z" />
    <glyph glyph-name="icaron" unicode="&#x1d0;" horiz-adv-x="436" 
d="M363 0q-57 4 -129 4q-74 0 -133 -4v67h72v271q0 28 -10.5 33.5t-58.5 5.5v67l194 8v-385h65v-67zM395 685l-177 -185l-177 185l20 22l158 -99l158 99z" />
    <glyph glyph-name="Ocaron" unicode="&#x1d1;" horiz-adv-x="1122" 
d="M1024 338q0 -68 -27 -129.5t-80.5 -113t-145.5 -82t-210 -30.5t-209.5 30.5t-145.5 81.5t-81 113t-27 130q0 70 27 133.5t80.5 116t145.5 84t210 31.5t209.5 -31t145.5 -84t81 -116.5t27 -133.5zM852 355q0 148 -78 217q-79 69 -213 69q-139 0 -215 -70q-76 -72 -76 -216
q0 -139 68.5 -223.5t222.5 -84.5q149 0 220 81.5t71 226.5zM736 882l-175 -141l-175 141l16 24l160 -58l160 58z" />
    <glyph glyph-name="ocaron" unicode="&#x1d2;" 
d="M701 217q0 -42 -18 -80.5t-54.5 -71.5t-101 -53t-148.5 -20t-148.5 20t-101 53t-54.5 71.5t-18 80.5q0 44 17.5 84.5t54 76t101 57t149.5 21.5q84 0 148.5 -21t101 -56.5t54.5 -76.5t18 -85zM551 229q0 23 -0.5 34.5t-3.5 33t-9.5 33t-19 27t-30.5 23.5t-45.5 14t-63.5 6
t-63.5 -6t-45.5 -14t-30.5 -23t-19 -27t-9.5 -33t-3.5 -33t-0.5 -35q0 -33 1 -50.5t10 -45.5t26 -42t51 -25.5t84 -11.5t84 11.5t51 25.5t26 42t10 45.5t1 50.5zM556 685l-177 -185l-177 185l20 22l158 -99l158 99z" />
    <glyph glyph-name="Ucaron" unicode="&#x1d3;" horiz-adv-x="1133" 
d="M1041 619h-106v-388q0 -46 -19 -88t-58.5 -79t-111 -59t-166.5 -22q-188 0 -285 72t-97 177v387h-106v67l184 -4l184 4v-67h-106v-388q0 -85 50 -133t179 -48q54 0 98 9t81.5 29.5t58 57.5t20.5 88v385h-106v67q66 -4 153 -4q33 0 153 4v-67zM776 882l-175 -141l-175 141
l16 24l160 -58l160 58z" />
    <glyph glyph-name="ucaron" unicode="&#x1d4;" horiz-adv-x="839" 
d="M776 0l-197 -8v65q-65 -65 -194 -65q-44 0 -75.5 4t-67 15.5t-54.5 38.5t-19 68v220q0 28 -11 33.5t-61 5.5v67l205 8v-340q0 -27 4 -37.5t27 -18.5t73 -8q29 0 55 4.5t52.5 15.5t42 34t15.5 56v180q0 28 -11 33.5t-61 5.5v67l205 8v-346q0 -28 11 -33.5t61 -5.5v-67z
M596 685l-177 -185l-177 185l20 22l158 -99l158 99z" />
    <glyph glyph-name="Udieresisacute" unicode="&#x1d7;" horiz-adv-x="1133" 
d="M1041 619h-106v-388q0 -46 -19 -88t-58.5 -79t-111 -59t-166.5 -22q-188 0 -285 72t-97 177v387h-106v67l184 -4l184 4v-67h-106v-388q0 -85 50 -133t179 -48q54 0 98 9t81.5 29.5t58 57.5t20.5 88v385h-106v67q66 -4 153 -4q33 0 153 4v-67zM511 815q0 -30 -23 -52
t-55 -22q-31 0 -54 21.5t-23 53.5q0 31 22.5 53t54.5 22t55 -22t23 -54zM847 815q0 -30 -23 -52t-55 -22q-31 0 -54 21.5t-23 53.5q0 31 22.5 53t54.5 22t55 -22t23 -54zM782 1073q0 -45 -53 -62l-184 -60l-35 76l166 105q22 13 40 13q28 0 47 -22t19 -50z" />
    <glyph glyph-name="udieresisacute" unicode="&#x1d8;" horiz-adv-x="839" 
d="M776 0l-197 -8v65q-65 -65 -194 -65q-44 0 -75.5 4t-67 15.5t-54.5 38.5t-19 68v220q0 28 -11 33.5t-61 5.5v67l205 8v-340q0 -27 4 -37.5t27 -18.5t73 -8q29 0 55 4.5t52.5 15.5t42 34t15.5 56v180q0 28 -11 33.5t-61 5.5v67l205 8v-346q0 -28 11 -33.5t61 -5.5v-67z
M355 602q0 -30 -23 -52t-55 -22q-31 0 -54 21.5t-23 53.5q0 31 22.5 53t54.5 22t55 -22t23 -54zM639 602q0 -30 -23 -52t-55 -22q-31 0 -54 21.5t-23 53.5q0 31 22.5 53t54.5 22t55 -22t23 -54zM600 881q0 -45 -53 -62l-184 -60l-35 76l166 105q22 13 40 13q28 0 47 -22
t19 -50z" />
    <glyph glyph-name="Udieresiscaron" unicode="&#x1d9;" horiz-adv-x="1133" 
d="M1041 619h-106v-388q0 -46 -19 -88t-58.5 -79t-111 -59t-166.5 -22q-188 0 -285 72t-97 177v387h-106v67l184 -4l184 4v-67h-106v-388q0 -85 50 -133t179 -48q54 0 98 9t81.5 29.5t58 57.5t20.5 88v385h-106v67q66 -4 153 -4q33 0 153 4v-67zM511 815q0 -30 -23 -52
t-55 -22q-31 0 -54 21.5t-23 53.5q0 31 22.5 53t54.5 22t55 -22t23 -54zM847 815q0 -30 -23 -52t-55 -22q-31 0 -54 21.5t-23 53.5q0 31 22.5 53t54.5 22t55 -22t23 -54zM776 1082l-175 -141l-175 141l16 24l160 -58l160 58z" />
    <glyph glyph-name="udieresiscaron" unicode="&#x1da;" horiz-adv-x="839" 
d="M776 0l-197 -8v65q-65 -65 -194 -65q-44 0 -75.5 4t-67 15.5t-54.5 38.5t-19 68v220q0 28 -11 33.5t-61 5.5v67l205 8v-340q0 -27 4 -37.5t27 -18.5t73 -8q29 0 55 4.5t52.5 15.5t42 34t15.5 56v180q0 28 -11 33.5t-61 5.5v67l205 8v-346q0 -28 11 -33.5t61 -5.5v-67z
M355 602q0 -30 -23 -52t-55 -22q-31 0 -54 21.5t-23 53.5q0 31 22.5 53t54.5 22t55 -22t23 -54zM639 602q0 -30 -23 -52t-55 -22q-31 0 -54 21.5t-23 53.5q0 31 22.5 53t54.5 22t55 -22t23 -54zM594 890l-175 -141l-175 141l16 24l160 -58l160 58z" />
    <glyph glyph-name="Udieresisgrave" unicode="&#x1db;" horiz-adv-x="1133" 
d="M1041 619h-106v-388q0 -46 -19 -88t-58.5 -79t-111 -59t-166.5 -22q-188 0 -285 72t-97 177v387h-106v67l184 -4l184 4v-67h-106v-388q0 -85 50 -133t179 -48q54 0 98 9t81.5 29.5t58 57.5t20.5 88v385h-106v67q66 -4 153 -4q33 0 153 4v-67zM511 815q0 -30 -23 -52
t-55 -22q-31 0 -54 21.5t-23 53.5q0 31 22.5 53t54.5 22t55 -22t23 -54zM847 815q0 -30 -23 -52t-55 -22q-31 0 -54 21.5t-23 53.5q0 31 22.5 53t54.5 22t55 -22t23 -54zM692 1027l-35 -76l-184 60q-53 17 -53 62q0 28 19 50t47 22q18 0 40 -13z" />
    <glyph glyph-name="udieresisgrave" unicode="&#x1dc;" horiz-adv-x="839" 
d="M776 0l-197 -8v65q-65 -65 -194 -65q-44 0 -75.5 4t-67 15.5t-54.5 38.5t-19 68v220q0 28 -11 33.5t-61 5.5v67l205 8v-340q0 -27 4 -37.5t27 -18.5t73 -8q29 0 55 4.5t52.5 15.5t42 34t15.5 56v180q0 28 -11 33.5t-61 5.5v67l205 8v-346q0 -28 11 -33.5t61 -5.5v-67z
M355 602q0 -30 -23 -52t-55 -22q-31 0 -54 21.5t-23 53.5q0 31 22.5 53t54.5 22t55 -22t23 -54zM639 602q0 -30 -23 -52t-55 -22q-31 0 -54 21.5t-23 53.5q0 31 22.5 53t54.5 22t55 -22t23 -54zM510 835l-35 -76l-184 60q-53 17 -53 62q0 28 19 50t47 22q18 0 40 -13z" />
    <glyph glyph-name="eturned" unicode="&#x1dd;" horiz-adv-x="692" 
d="M635 222q0 -42 -17.5 -81.5t-52.5 -73.5t-97 -54.5t-142 -20.5q-133 0 -205 63q-30 27 -47 72.5t-17 91.5q0 15 6 22.5t12.5 8.5t19.5 1h389q-14 143 -202 143q-109 0 -144 -67q-6 -10 -13 -12t-23 -2h-7q-38 0 -38 25q0 16 24.5 46t69.5 48q60 24 154 24q88 0 154.5 -21
t103 -56.5t54.5 -75t18 -81.5zM484 200h-326q11 -152 167 -152q32 0 58 7t42 16.5t28 25.5t17.5 28t9 29.5t4 25.5t0.5 20z" />
    <glyph glyph-name="Gcaron" unicode="&#x1e6;" horiz-adv-x="1169" 
d="M1084 203h-101v-168q0 -35 -22 -35q-6 0 -34 11t-44 20q-38 -30 -103.5 -39t-162.5 -9q-257 0 -394 107q-56 44 -90.5 110t-34.5 143q0 70 30 133t88 114.5t155.5 82t221.5 30.5q150 0 263 -70l69 59q13 11 28 11q14 0 21 -5t8 -11t1 -19v-217q0 -23 -6.5 -29t-28.5 -6
h-24q-31 0 -34 18q-5 21 -8.5 32t-13.5 34.5t-28 44.5t-44 39q-75 52 -175 52q-154 0 -251 -65q-100 -70 -100 -227q0 -83 28 -141.5t80.5 -91t119 -47t152.5 -14.5q64 0 102 5t53.5 17t18.5 21.5t3 28.5v81h-181v67q51 -4 246 -4l192 4v-67zM760 882l-175 -141l-175 141
l16 24l160 -58l160 58z" />
    <glyph glyph-name="gcaron" unicode="&#x1e7;" 
d="M721 383q0 -28 -18.5 -43.5t-39.5 -15.5q-24 0 -41.5 16t-17.5 43q0 10 4 21q-35 -4 -66 -15q6 -5 14 -14.5t17 -31.5t9 -45q0 -57 -57.5 -105t-186.5 -48q-89 0 -146 26q-4 -8 -4 -20q0 -28 23 -46q14 -10 26.5 -12t53.5 -2h58q69 0 100 -1t70 -6t72 -16
q35 -12 58.5 -31t34 -40t14 -36t3.5 -30q0 -38 -29 -65t-78 -41.5t-102 -21t-113 -6.5q-157 0 -239.5 36.5t-82.5 94.5q0 64 101 89q-37 41 -37 95q0 47 29 83q-55 49 -55 104q0 57 57.5 105t186.5 48q98 0 159 -32q64 41 133 41q42 0 66 -24t24 -54zM457 299
q0 20 -3.5 34.5t-14.5 30.5t-36.5 24t-64.5 8t-64.5 -8.5t-36.5 -24.5t-14 -30t-3 -35q0 -20 3.5 -34.5t14.5 -30.5t36.5 -24t64.5 -8t64.5 8.5t36.5 24.5t14 30t3 35zM596 -71q0 11 -10 19.5t-32.5 13.5t-42.5 8t-56 4t-56.5 1.5t-59.5 0.5h-57q-120 0 -120 -47
q0 -18 21 -35t72 -29t124 -12t124 12t72 29t21 35zM503 685l-177 -185l-177 185l20 22l158 -99l158 99z" />
    <glyph glyph-name="Oogonek" unicode="&#x1ea;" horiz-adv-x="1122" 
d="M1024 338q0 -65 -25 -124.5t-74 -110t-133 -82.5t-192 -37q-18 -17 -26 -40q-12 -32 8 -57.5t52 -25.5q7 0 14.5 3t12.5 6t14 9l12 8q15 10 36 -7q8 -7 11.5 -19t-1.5 -21q-52 -75 -137 -75q-63 0 -102.5 36t-39.5 85q0 45 49 99q-103 7 -183 40t-127 82.5t-71 108
t-24 122.5q0 70 27 133.5t80.5 116t145.5 84t210 31.5t209.5 -31t145.5 -84t81 -116.5t27 -133.5zM852 355q0 148 -78 217q-79 69 -213 69q-139 0 -215 -70q-76 -72 -76 -216q0 -139 68.5 -223.5t222.5 -84.5q149 0 220 81.5t71 226.5z" />
    <glyph glyph-name="oogonek" unicode="&#x1eb;" 
d="M701 217q0 -86 -72 -151.5t-219 -72.5q-24 -17 -37 -49q-11 -32 8.5 -57.5t51.5 -25.5q7 0 14.5 3t12.5 6t14 9l12 8q15 10 36 -7q8 -7 11.5 -19t-1.5 -21q-52 -75 -137 -75q-63 0 -102.5 36t-39.5 85q0 50 60 110q-129 14 -192.5 77.5t-63.5 143.5q0 44 17.5 84.5t54 76
t101 57t149.5 21.5q84 0 148.5 -21t101 -56.5t54.5 -76.5t18 -85zM551 229q0 23 -0.5 34.5t-3.5 33t-9.5 33t-19 27t-30.5 23.5t-45.5 14t-63.5 6t-63.5 -6t-45.5 -14t-30.5 -23t-19 -27t-9.5 -33t-3.5 -33t-0.5 -35q0 -33 1 -50.5t10 -45.5t26 -42t51 -25.5t84 -11.5
t84 11.5t51 25.5t26 42t10 45.5t1 50.5z" />
    <glyph glyph-name="jcaron" unicode="&#x1f0;" horiz-adv-x="476" 
d="M354 -35q0 -82 -67 -124.5t-156 -42.5q-77 0 -124 27.5t-47 78.5q0 32 21 53.5t54 21.5q32 0 53.5 -21t21.5 -54q0 -22 -11 -41l-1 -3q0 -6 38 -6t65.5 29.5t27.5 84.5v369q0 13 -1 18.5t-5.5 11t-15.5 7.5q-15 3 -57 3v67l204 8v-487zM445 685l-177 -185l-177 185l20 22
l158 -99l158 99z" />
    <glyph glyph-name="Gacute" unicode="&#x1f4;" horiz-adv-x="1169" 
d="M1084 203h-101v-168q0 -35 -22 -35q-6 0 -34 11t-44 20q-38 -30 -103.5 -39t-162.5 -9q-257 0 -394 107q-56 44 -90.5 110t-34.5 143q0 70 30 133t88 114.5t155.5 82t221.5 30.5q150 0 263 -70l69 59q13 11 28 11q14 0 21 -5t8 -11t1 -19v-217q0 -23 -6.5 -29t-28.5 -6
h-24q-31 0 -34 18q-5 21 -8.5 32t-13.5 34.5t-28 44.5t-44 39q-75 52 -175 52q-154 0 -251 -65q-100 -70 -100 -227q0 -83 28 -141.5t80.5 -91t119 -47t152.5 -14.5q64 0 102 5t53.5 17t18.5 21.5t3 28.5v81h-181v67q51 -4 246 -4l192 4v-67zM766 873q0 -45 -53 -62
l-184 -60l-35 76l166 105q22 13 40 13q28 0 47 -22t19 -50z" />
    <glyph glyph-name="gacute" unicode="&#x1f5;" 
d="M721 383q0 -28 -18.5 -43.5t-39.5 -15.5q-24 0 -41.5 16t-17.5 43q0 10 4 21q-35 -4 -66 -15q6 -5 14 -14.5t17 -31.5t9 -45q0 -57 -57.5 -105t-186.5 -48q-89 0 -146 26q-4 -8 -4 -20q0 -28 23 -46q14 -10 26.5 -12t53.5 -2h58q69 0 100 -1t70 -6t72 -16
q35 -12 58.5 -31t34 -40t14 -36t3.5 -30q0 -38 -29 -65t-78 -41.5t-102 -21t-113 -6.5q-157 0 -239.5 36.5t-82.5 94.5q0 64 101 89q-37 41 -37 95q0 47 29 83q-55 49 -55 104q0 57 57.5 105t186.5 48q98 0 159 -32q64 41 133 41q42 0 66 -24t24 -54zM457 299
q0 20 -3.5 34.5t-14.5 30.5t-36.5 24t-64.5 8t-64.5 -8.5t-36.5 -24.5t-14 -30t-3 -35q0 -20 3.5 -34.5t14.5 -30.5t36.5 -24t64.5 -8t64.5 8.5t36.5 24.5t14 30t3 35zM596 -71q0 11 -10 19.5t-32.5 13.5t-42.5 8t-56 4t-56.5 1.5t-59.5 0.5h-57q-120 0 -120 -47
q0 -18 21 -35t72 -29t124 -12t124 12t72 29t21 35zM507 628q0 -45 -53 -62l-184 -60l-35 76l166 105q22 13 40 13q28 0 47 -22t19 -50z" />
    <glyph glyph-name="Aringacute" unicode="&#x1fa;" horiz-adv-x="1114" 
d="M1042 0l-167 4l-181 -4v67h83l-70 146h-360l-69 -146h83v-67l-152 4q-76 0 -137 -4v67h102l290 611q8 16 17 23.5t16 8.5t22 1h76q26 0 35.5 -7t19.5 -28l290 -609h102v-67zM676 280l-149 312l-148 -312h297zM629 795q0 11 -3.5 18t-7.5 11t-15 5.5t-19.5 2t-26.5 0.5
q-43 0 -57.5 -5.5t-14.5 -31.5q0 -11 3.5 -18t7.5 -11t15 -5.5t19.5 -2t26.5 -0.5q43 0 57.5 5.5t14.5 31.5zM718 796q0 -35 -39.5 -60t-121.5 -25t-121.5 25t-39.5 60q0 31 38 57t123 26q84 0 122.5 -25.5t38.5 -57.5zM693 1036q0 -45 -53 -62l-184 -60l-35 76l166 105
q22 13 40 13q28 0 47 -22t19 -50z" />
    <glyph glyph-name="aringacute" unicode="&#x1fb;" horiz-adv-x="738" 
d="M716 34q0 -25 -10.5 -29.5t-60.5 -4.5q-37 0 -56 1t-44 6t-37.5 18.5t-15.5 34.5q-47 -68 -202 -68q-29 0 -55 2.5t-73 13t-75.5 39.5t-28.5 73q0 53 49.5 83t145.5 48q34 6 73.5 10t66 5t50 1.5t25.5 0.5v19q0 113 -142 113q-47 0 -84 -8q14 -19 14 -45q0 -32 -21 -53.5
t-54 -21.5q-31 0 -53 20.5t-22 55.5q0 26 10.5 45.5t31.5 30.5t40.5 18t49 10t45.5 3.5t42 0.5q147 0 211.5 -48t64.5 -118v-213q21 -10 71 -10h6q14 0 20 -1t12 -8.5t6 -23.5zM468 133v87q-277 -12 -277 -99q0 -34 35.5 -53.5t90.5 -19.5q59 0 100 16q24 9 36 22t13.5 22
t1.5 25zM441 618q0 11 -3.5 18t-7.5 11t-15 5.5t-19.5 2t-26.5 0.5q-43 0 -57.5 -5.5t-14.5 -31.5q0 -11 3.5 -18t7.5 -11t15 -5.5t19.5 -2t26.5 -0.5q43 0 57.5 5.5t14.5 31.5zM530 619q0 -35 -39.5 -60t-121.5 -25t-121.5 25t-39.5 60q0 31 38 57t123 26q84 0 122.5 -25.5
t38.5 -57.5zM505 859q0 -45 -53 -62l-184 -60l-35 76l166 105q22 13 40 13q28 0 47 -22t19 -50z" />
    <glyph glyph-name="AEacute" unicode="&#x1fc;" horiz-adv-x="1339" 
d="M1282 229l-58 -229h-685v67h79v230h-235l-106 -230h83v-67l-151 4q-77 0 -138 -4v67h102l256 552h-47v67h820l39 -206h-83q-7 37 -22.5 63.5t-33 41t-45.5 22.5t-52 10t-59 2h-179v-255h95q41 0 63.5 4t41 23t19.5 56h83v-233h-83q-1 37 -19.5 56t-41 23t-63.5 4h-95
v-230h192q49 0 82.5 5.5t67 21.5t55.5 49.5t35 85.5h83zM618 364v255h-85l-118 -255h203zM850 873q0 -45 -53 -62l-184 -60l-35 76l166 105q22 13 40 13q28 0 47 -22t19 -50z" />
    <glyph glyph-name="aeacute" unicode="&#x1fd;" horiz-adv-x="1081" 
d="M1024 110q0 -14 -20 -42t-59 -48q-56 -28 -148 -28q-141 0 -232 62q-30 -39 -91.5 -50.5t-160.5 -11.5q-26 0 -43 0.5t-49.5 3.5t-55 11t-46 20.5t-36 34t-12.5 50.5q0 48 44 73.5t136 41.5q96 17 196 17h27v43q0 113 -142 113q-48 0 -85 -8q14 -19 14 -45
q0 -32 -21 -53.5t-54 -21.5q-31 0 -53 20.5t-22 55.5q0 26 10.5 45.5t31.5 30.5t40.5 18t49.5 10t46 3.5t42 0.5q159 0 228 -62q86 62 218 62q112 0 177 -53q70 -59 70 -173q0 -16 -6 -23.5t-12 -8.5t-20 -1h-377q9 -75 69 -111q55 -32 140 -32q92 0 122 61q8 14 14 17t25 3
h7q38 0 38 -25zM923 248q-9 152 -146 152q-162 0 -169 -152h315zM493 123q0 13 -5 30q-8 21 -11 40q-30 0 -74 -4q-25 -1 -64 -6.5t-87 -24t-48 -45.5q0 -29 32 -47t89 -18q168 0 168 75zM721 628q0 -45 -53 -62l-184 -60l-35 76l166 105q22 13 40 13q28 0 47 -22t19 -50z
" />
    <glyph glyph-name="Oslashacute" unicode="&#x1fe;" horiz-adv-x="1161" 
d="M1063 338q0 -67 -27 -127.5t-82 -113t-151.5 -83.5t-222.5 -31q-140 0 -244 39l-81 -92l-46 42l68 77q-100 56 -139.5 134.5t-39.5 154.5q0 68 27.5 131t82.5 116.5t151.5 85.5t221.5 32q134 0 243 -40l82 93l46 -42l-70 -79q94 -51 137.5 -132t43.5 -165zM774 608
q-76 39 -194 39q-171 0 -251 -80q-75 -73 -75 -229q0 -161 79 -226zM907 338q0 162 -81 235l-440 -496q72 -38 195 -38q178 0 258 82q68 70 68 217zM761 873q0 -45 -53 -62l-184 -60l-35 76l166 105q22 13 40 13q28 0 47 -22t19 -50z" />
    <glyph glyph-name="oslashacute" unicode="&#x1ff;" 
d="M701 217q0 -42 -18 -80.5t-54.5 -71.5t-101 -53t-148.5 -20q-75 0 -136 16l-98 -123l-43 36l86 108q-51 23 -82 60.5t-40 67.5t-9 60q0 44 17.5 84.5t54 76t101 57t149.5 21.5q79 0 136 -18l98 122l43 -36l-85 -107q130 -68 130 -200zM474 387q-37 13 -95 13
q-51 0 -87 -11t-55.5 -27t-30.5 -42t-13.5 -48t-2.5 -53q0 -97 43 -134zM568 219q0 103 -44 140l-239 -300q37 -11 94 -11q62 0 102 13t58 39t23.5 52.5t5.5 66.5zM560 628q0 -45 -53 -62l-184 -60l-35 76l166 105q22 13 40 13q28 0 47 -22t19 -50z" />
    <glyph glyph-name="Adblgrave" unicode="&#x200;" horiz-adv-x="1114" 
d="M1042 0l-167 4l-181 -4v67h83l-70 146h-360l-69 -146h83v-67l-152 4q-76 0 -137 -4v67h102l290 611q8 16 17 23.5t16 8.5t22 1h76q26 0 35.5 -7t19.5 -28l290 -609h102v-67zM676 280l-149 312l-148 -312h297zM704 813l-55 -62l-106 62q-39 23 -39 59q0 28 22 50.5
t49 22.5q31 0 53 -30zM462 813l-55 -62l-106 62q-39 23 -39 59q0 28 22 50.5t49 22.5q31 0 53 -30z" />
    <glyph glyph-name="adblgrave" unicode="&#x201;" horiz-adv-x="738" 
d="M716 34q0 -25 -10.5 -29.5t-60.5 -4.5q-37 0 -56 1t-44 6t-37.5 18.5t-15.5 34.5q-47 -68 -202 -68q-29 0 -55 2.5t-73 13t-75.5 39.5t-28.5 73q0 53 49.5 83t145.5 48q34 6 73.5 10t66 5t50 1.5t25.5 0.5v19q0 113 -142 113q-47 0 -84 -8q14 -19 14 -45q0 -32 -21 -53.5
t-54 -21.5q-31 0 -53 20.5t-22 55.5q0 26 10.5 45.5t31.5 30.5t40.5 18t49 10t45.5 3.5t42 0.5q147 0 211.5 -48t64.5 -118v-213q21 -10 71 -10h6q14 0 20 -1t12 -8.5t6 -23.5zM468 133v87q-277 -12 -277 -99q0 -34 35.5 -53.5t90.5 -19.5q59 0 100 16q24 9 36 22t13.5 22
t1.5 25zM557 568l-55 -62l-106 62q-39 23 -39 59q0 28 22 50.5t49 22.5q31 0 53 -30zM315 568l-55 -62l-106 62q-39 23 -39 59q0 28 22 50.5t49 22.5q31 0 53 -30z" />
    <glyph glyph-name="Edblgrave" unicode="&#x204;" horiz-adv-x="978" 
d="M921 229l-58 -229h-771v67h106v544h-106v67h749l39 -206h-83q-10 46 -31 75.5t-55.5 42.5t-66.5 17t-81 4h-209v-226h89q23 0 37.5 1t32 5.5t27.5 13t17 24.5t8 39h83v-233h-83q-1 23 -8 39t-17 24.5t-27.5 13t-32 5.5t-37.5 1h-89v-251h223q53 0 88 5t72.5 20.5
t62.5 49.5t38 87h83zM677 813l-55 -62l-106 62q-39 23 -39 59q0 28 22 50.5t49 22.5q31 0 53 -30zM435 813l-55 -62l-106 62q-39 23 -39 59q0 28 22 50.5t49 22.5q31 0 53 -30z" />
    <glyph glyph-name="edblgrave" unicode="&#x205;" horiz-adv-x="692" 
d="M635 110q0 -16 -24.5 -46t-69.5 -48q-60 -24 -154 -24q-88 0 -154.5 21t-103 56.5t-54.5 75t-18 81.5t17.5 81.5t52.5 73.5t97 54.5t142 20.5q133 0 205 -63q30 -27 47 -72.5t17 -91.5q0 -15 -6 -22.5t-12.5 -8.5t-19.5 -1h-389q14 -143 202 -143q109 0 144 67
q6 10 13 12t23 2h7q38 0 38 -25zM534 248q-11 152 -167 152q-32 0 -58 -7t-42 -16.5t-28 -25.5t-17.5 -28t-9 -29.5t-4 -25.5t-0.5 -20h326zM534 568l-55 -62l-106 62q-39 23 -39 59q0 28 22 50.5t49 22.5q31 0 53 -30zM292 568l-55 -62l-106 62q-39 23 -39 59q0 28 22 50.5
t49 22.5q31 0 53 -30z" />
    <glyph glyph-name="Idblgrave" unicode="&#x208;" horiz-adv-x="550" 
d="M464 0q-61 4 -189 4t-189 -4v67h111v552h-111v67q61 -4 189 -4t189 4v-67h-111v-552h111v-67zM463 813l-55 -62l-106 62q-39 23 -39 59q0 28 22 50.5t49 22.5q31 0 53 -30zM221 813l-55 -62l-106 62q-39 23 -39 59q0 28 22 50.5t49 22.5q31 0 53 -30z" />
    <glyph glyph-name="idblgrave" unicode="&#x209;" horiz-adv-x="436" 
d="M363 0q-57 4 -129 4q-74 0 -133 -4v67h72v271q0 28 -10.5 33.5t-58.5 5.5v67l194 8v-385h65v-67zM406 568l-55 -62l-106 62q-39 23 -39 59q0 28 22 50.5t49 22.5q31 0 53 -30zM164 568l-55 -62l-106 62q-39 23 -39 59q0 28 22 50.5t49 22.5q31 0 53 -30z" />
    <glyph glyph-name="Odblgrave" unicode="&#x20c;" horiz-adv-x="1122" 
d="M1024 338q0 -68 -27 -129.5t-80.5 -113t-145.5 -82t-210 -30.5t-209.5 30.5t-145.5 81.5t-81 113t-27 130q0 70 27 133.5t80.5 116t145.5 84t210 31.5t209.5 -31t145.5 -84t81 -116.5t27 -133.5zM852 355q0 148 -78 217q-79 69 -213 69q-139 0 -215 -70q-76 -72 -76 -216
q0 -139 68.5 -223.5t222.5 -84.5q149 0 220 81.5t71 226.5zM749 813l-55 -62l-106 62q-39 23 -39 59q0 28 22 50.5t49 22.5q31 0 53 -30zM507 813l-55 -62l-106 62q-39 23 -39 59q0 28 22 50.5t49 22.5q31 0 53 -30z" />
    <glyph glyph-name="odblgrave" unicode="&#x20d;" 
d="M701 217q0 -42 -18 -80.5t-54.5 -71.5t-101 -53t-148.5 -20t-148.5 20t-101 53t-54.5 71.5t-18 80.5q0 44 17.5 84.5t54 76t101 57t149.5 21.5q84 0 148.5 -21t101 -56.5t54.5 -76.5t18 -85zM551 229q0 23 -0.5 34.5t-3.5 33t-9.5 33t-19 27t-30.5 23.5t-45.5 14t-63.5 6
t-63.5 -6t-45.5 -14t-30.5 -23t-19 -27t-9.5 -33t-3.5 -33t-0.5 -35q0 -33 1 -50.5t10 -45.5t26 -42t51 -25.5t84 -11.5t84 11.5t51 25.5t26 42t10 45.5t1 50.5zM567 568l-55 -62l-106 62q-39 23 -39 59q0 28 22 50.5t49 22.5q31 0 53 -30zM325 568l-55 -62l-106 62
q-39 23 -39 59q0 28 22 50.5t49 22.5q31 0 53 -30z" />
    <glyph glyph-name="Rdblgrave" unicode="&#x210;" horiz-adv-x="1103" 
d="M1082 101q0 -12 -5 -27.5t-19 -38t-48 -37.5t-82 -15q-114 0 -170 25q-23 11 -38.5 25t-23.5 26.5t-12 34.5t-4.5 36t-0.5 44q0 50 -6 70.5t-32 38.5q-47 32 -124 32h-167v-248h106v-67l-180 4l-180 -4v67h106v552h-106v67h442q162 0 264.5 -54t102.5 -136
q0 -50 -42.5 -91t-128.5 -65q86 -39 102 -129l16 -82q18 -90 88 -90q20 0 38 14.5t21 50.5q1 12 8 18t13.5 7t19.5 1q14 0 21 -1t14 -8t7 -20zM733 495q0 64 -44.5 94t-157.5 30h-181v-248h181q113 0 157.5 31t44.5 93zM699 813l-55 -62l-106 62q-39 23 -39 59q0 28 22 50.5
t49 22.5q31 0 53 -30zM457 813l-55 -62l-106 62q-39 23 -39 59q0 28 22 50.5t49 22.5q31 0 53 -30z" />
    <glyph glyph-name="rdblgrave" unicode="&#x211;" horiz-adv-x="622" 
d="M565 357q0 -32 -21 -52.5t-52 -20.5t-52 20.5t-21 52.5q0 22 10 39q-64 -5 -106 -61.5t-42 -137.5v-130h90v-67q-70 4 -149 4q-77 0 -138 -4v67h72v271q0 28 -11 33.5t-61 5.5v67l180 8v-121h1q23 50 68 85.5t106 35.5q53 0 89.5 -26.5t36.5 -68.5zM499 568l-55 -62
l-106 62q-39 23 -39 59q0 28 22 50.5t49 22.5q31 0 53 -30zM257 568l-55 -62l-106 62q-39 23 -39 59q0 28 22 50.5t49 22.5q31 0 53 -30z" />
    <glyph glyph-name="Udblgrave" unicode="&#x214;" horiz-adv-x="1133" 
d="M1041 619h-106v-388q0 -46 -19 -88t-58.5 -79t-111 -59t-166.5 -22q-188 0 -285 72t-97 177v387h-106v67l184 -4l184 4v-67h-106v-388q0 -85 50 -133t179 -48q54 0 98 9t81.5 29.5t58 57.5t20.5 88v385h-106v67q66 -4 153 -4q33 0 153 4v-67zM789 813l-55 -62l-106 62
q-39 23 -39 59q0 28 22 50.5t49 22.5q31 0 53 -30zM547 813l-55 -62l-106 62q-39 23 -39 59q0 28 22 50.5t49 22.5q31 0 53 -30z" />
    <glyph glyph-name="udblgrave" unicode="&#x215;" horiz-adv-x="839" 
d="M776 0l-197 -8v65q-65 -65 -194 -65q-44 0 -75.5 4t-67 15.5t-54.5 38.5t-19 68v220q0 28 -11 33.5t-61 5.5v67l205 8v-340q0 -27 4 -37.5t27 -18.5t73 -8q29 0 55 4.5t52.5 15.5t42 34t15.5 56v180q0 28 -11 33.5t-61 5.5v67l205 8v-346q0 -28 11 -33.5t61 -5.5v-67z
M607 568l-55 -62l-106 62q-39 23 -39 59q0 28 22 50.5t49 22.5q31 0 53 -30zM365 568l-55 -62l-106 62q-39 23 -39 59q0 28 22 50.5t49 22.5q31 0 53 -30z" />
    <glyph glyph-name="uni0218" unicode="&#x218;" horiz-adv-x="839" 
d="M741 197q0 -24 -6 -48.5t-25 -55.5t-49 -54.5t-84 -39.5t-124 -16q-168 0 -256 49q-11 -12 -19 -18.5t-11 -9.5q-17 -15 -22.5 -18t-16.5 -3q-14 0 -21 5t-8 11t-1 19v174q0 23 6.5 29.5t29.5 6.5h12q33 0 35 -19q1 -17 2 -27t7.5 -29t16.5 -31t30 -27t48 -24t71.5 -15
t97.5 -6q51 0 89 10.5t56 24.5t28.5 32.5t12 28t1.5 18.5q0 45 -40.5 73t-90.5 37l-167 28q-127 21 -186 75q-59 55 -59 125q0 35 15 68.5t45.5 64.5t88 49.5t133.5 18.5q135 0 219 -53l44 42q11 11 28 11q14 0 21 -5t8 -11t1 -19v-175q0 -23 -6.5 -29t-28.5 -6h-13
q-21 0 -27 5t-9 22q-31 157 -238 157q-91 0 -136 -31t-45 -72q0 -74 146 -102l143 -24q47 -8 72 -14t63.5 -26t70.5 -53q48 -53 48 -123zM490 -151q0 -38 -14 -72.5t-32.5 -55.5t-34.5 -33.5t-23 -12.5t-14.5 7.5t-7.5 14.5q0 10 13 19q59 38 69 112q-12 -8 -33 -8
q-29 0 -46.5 19t-17.5 46t18 45.5t45 18.5q35 0 56.5 -29t21.5 -71z" />
    <glyph glyph-name="uni0219" unicode="&#x219;" horiz-adv-x="605" 
d="M540 140q0 -30 -11.5 -54.5t-27.5 -39.5t-40.5 -26t-44.5 -16.5t-46 -8t-37 -3t-26 -0.5q-93 0 -149 29q-29 -17 -30 -17q-20 -12 -33 -12q-14 0 -21 5t-8 11t-1 19v98q0 23 6.5 29.5t29.5 6.5h12q19 0 24.5 -3.5t11.5 -17.5q19 -49 56 -70.5t104 -21.5q150 0 150 67
q0 36 -53 51q-30 9 -131 23q-29 4 -43 6.5t-44 9.5t-47 16t-37 22.5t-29.5 34t-9.5 45.5q0 72 76 108q57 25 159 25q84 0 127 -15q32 15 46 15t21 -5t8 -11t1 -19v-69q0 -22 -6.5 -28.5t-28.5 -6.5h-13q-19 0 -26.5 4.5t-8.5 21.5q-3 31 -29 47t-97 16q-148 0 -148 -55
q0 -13 9 -22.5t31 -15.5t37.5 -9t50.5 -8q95 -13 127 -20.5t68 -26.5q71 -37 71 -109zM373 -151q0 -38 -14 -72.5t-32.5 -55.5t-34.5 -33.5t-23 -12.5t-14.5 7.5t-7.5 14.5q0 10 13 19q59 38 69 112q-12 -8 -33 -8q-29 0 -46.5 19t-17.5 46t18 45.5t45 18.5q35 0 56.5 -29
t21.5 -71z" />
    <glyph glyph-name="uni021A" unicode="&#x21a;" horiz-adv-x="1042" 
d="M973 463h-83q-11 82 -48.5 110.5t-122.5 28.5h-120v-535h149v-67q-48 4 -227 4t-227 -4v67h149v535h-120q-85 0 -122.5 -28.5t-48.5 -110.5h-83l27 206h850zM592 -151q0 -38 -14 -72.5t-32.5 -55.5t-34.5 -33.5t-23 -12.5t-14.5 7.5t-7.5 14.5q0 10 13 19q59 38 69 112
q-12 -8 -33 -8q-29 0 -46.5 19t-17.5 46t18 45.5t45 18.5q35 0 56.5 -29t21.5 -71z" />
    <glyph glyph-name="uni021B" unicode="&#x21b;" horiz-adv-x="597" 
d="M499 119q0 -36 -16.5 -62t-43.5 -39.5t-55 -19.5t-58 -6q-174 0 -174 126v259h-108v56q73 2 114.5 61t43.5 141h83v-191h190v-67h-190v-256q0 -14 1 -22.5t6.5 -20.5t19.5 -18t36 -6q68 0 68 69v44h83v-48zM369 -151q0 -38 -14 -72.5t-32.5 -55.5t-34.5 -33.5t-23 -12.5
t-14.5 7.5t-7.5 14.5q0 10 13 19q59 38 69 112q-12 -8 -33 -8q-29 0 -46.5 19t-17.5 46t18 45.5t45 18.5q35 0 56.5 -29t21.5 -71z" />
    <glyph glyph-name="uni0237" unicode="&#x237;" horiz-adv-x="476" 
d="M354 -35q0 -82 -67 -124.5t-156 -42.5q-77 0 -124 27.5t-47 78.5q0 32 21 53.5t54 21.5q32 0 53.5 -21t21.5 -54q0 -22 -11 -41l-1 -3q0 -6 38 -6t65.5 29.5t27.5 84.5v369q0 13 -1 18.5t-5.5 11t-15.5 7.5q-15 3 -57 3v67l204 8v-487z" />
    <glyph glyph-name="ereversed" unicode="&#x258;" horiz-adv-x="692" 
d="M635 226q0 -42 -18 -81.5t-54.5 -75t-103 -56.5t-154.5 -21q-94 0 -154 24q-45 18 -69.5 48t-24.5 46q0 25 38 25h7q16 0 23 -2t13 -12q35 -67 144 -67q188 0 202 143h-389q-13 0 -19.5 1t-12.5 8.5t-6 22.5q0 46 17 91.5t47 72.5q72 63 205 63q80 0 142 -20.5t97 -54.5
t52.5 -73.5t17.5 -81.5zM484 248q0 12 -0.5 20t-4 25.5t-9 29.5t-17.5 28t-28 25.5t-42 16.5t-58 7q-156 0 -167 -152h326z" />
    <glyph glyph-name="schwa" unicode="&#x259;" horiz-adv-x="692" 
d="M635 222q0 -42 -17.5 -81.5t-52.5 -73.5t-97 -54.5t-142 -20.5q-133 0 -205 63q-30 27 -47 72.5t-17 91.5q0 15 6 22.5t12.5 8.5t19.5 1h389q-14 143 -202 143q-109 0 -144 -67q-6 -10 -13 -12t-23 -2h-7q-38 0 -38 25q0 16 24.5 46t69.5 48q60 24 154 24q88 0 154.5 -21
t103 -56.5t54.5 -75t18 -81.5zM484 200h-326q11 -152 167 -152q32 0 58 7t42 16.5t28 25.5t17.5 28t9 29.5t4 25.5t0.5 20z" />
    <glyph glyph-name="ringhalfright" unicode="&#x2be;" horiz-adv-x="619" 
d="M538 446q0 -22 -5.5 -44.5t-23 -50t-45 -48.5t-77 -35.5t-113.5 -14.5q-180 0 -180 92q0 31 19 49t47 18t47 -19t19 -47q0 -16 -6 -29q30 -3 52 -3q67 0 100.5 30t33.5 100q0 69 -42 100q-39 30 -109 30q-72 0 -96 -46q-7 -11 -12.5 -13.5t-25.5 -2.5t-30 4.5t-10 19.5
q0 6 6.5 19t25.5 31.5t44 29.5q46 20 123 20q69 0 121.5 -17.5t81 -46.5t42 -60.5t13.5 -65.5z" />
    <glyph glyph-name="ringhalfleft" unicode="&#x2bf;" horiz-adv-x="619" 
d="M538 353q0 -6 -6.5 -19t-25.5 -31.5t-44 -29.5q-46 -20 -123 -20q-69 0 -121.5 17.5t-81 46.5t-42 60.5t-13.5 65.5q0 22 5.5 44.5t23 50t45 48.5t77 35.5t113.5 14.5q180 0 180 -92q0 -31 -19 -49t-47 -18q-29 0 -47.5 18.5t-18.5 47.5q0 15 6 29q-30 3 -52 3
q-67 0 -100.5 -30t-33.5 -100q0 -69 42 -100q39 -30 109 -30q72 0 96 46q7 11 12.5 13.5t25.5 2.5t30 -4.5t10 -19.5z" />
    <glyph glyph-name="circumflex" unicode="&#x2c6;" 
d="M556 522l-20 -22l-158 99l-158 -99l-18 22l177 185z" />
    <glyph glyph-name="caron" unicode="&#x2c7;" 
d="M556 685l-177 -185l-177 185l20 22l158 -99l158 99z" />
    <glyph glyph-name="breve" unicode="&#x2d8;" 
d="M608 695q-3 -88 -73.5 -135.5t-155.5 -47.5t-155.5 47.5t-73.5 135.5h56q1 -34 22.5 -56.5t54.5 -31t54 -11t42 -2.5q15 0 30.5 1t42.5 7t47 15.5t36 30t17 47.5h56z" />
    <glyph glyph-name="dotaccent" unicode="&#x2d9;" horiz-adv-x="436" 
d="M304 603q0 -34 -25 -58.5t-61 -24.5q-35 0 -60.5 24.5t-25.5 59.5q0 34 25 58.5t61 24.5q35 0 60.5 -24.5t25.5 -59.5z" />
    <glyph glyph-name="ring" unicode="&#x2da;" horiz-adv-x="1114" 
d="M629 618q0 11 -3.5 18t-7.5 11t-15 5.5t-19.5 2t-26.5 0.5q-43 0 -57.5 -5.5t-14.5 -31.5q0 -11 3.5 -18t7.5 -11t15 -5.5t19.5 -2t26.5 -0.5q43 0 57.5 5.5t14.5 31.5zM718 619q0 -35 -39.5 -60t-121.5 -25t-121.5 25t-39.5 60q0 31 38 57t123 26q84 0 122.5 -25.5
t38.5 -57.5z" />
    <glyph glyph-name="ogonek" unicode="&#x2db;" 
d="M517 -160q-52 -75 -137 -75q-63 0 -102.5 36t-39.5 85q0 56 70 120h112q-44 -15 -62 -62q-12 -32 8 -57.5t52 -25.5q7 0 14.5 3t12.5 6t14 9l12 8q15 10 36 -7q8 -7 11.5 -19t-1.5 -21z" />
    <glyph glyph-name="tilde" unicode="&#x2dc;" 
d="M620 638q-36 -30 -48.5 -41.5t-21.5 -18.5q-64 -52 -108 -52q-30 0 -82 30q-40 26 -72 26q-49 0 -113 -56l-37 43q36 30 48.5 41.5t21.5 18.5q64 52 108 52q30 0 82 -30q40 -26 72 -26q49 0 113 56z" />
    <glyph glyph-name="hungarumlaut" unicode="&#x2dd;" 
d="M391 627q0 -36 -39 -59l-106 -62l-55 62l76 102q22 30 53 30q27 0 49 -22.5t22 -50.5zM633 627q0 -36 -39 -59l-106 -62l-55 62l76 102q22 30 53 30q27 0 49 -22.5t22 -50.5z" />
    <glyph glyph-name="uni0300" unicode="&#x300;" horiz-adv-x="0" 
d="M-278 582l-35 -76l-184 60q-53 17 -53 62q0 28 19 50t47 22q18 0 40 -13z" />
    <glyph glyph-name="uni0301" unicode="&#x301;" horiz-adv-x="0" 
d="M-188 628q0 -45 -53 -62l-184 -60l-35 76l166 105q22 13 40 13q28 0 47 -22t19 -50z" />
    <glyph glyph-name="uni0302" unicode="&#x302;" horiz-adv-x="0" 
d="M-192 522l-20 -22l-158 99l-158 -99l-18 22l177 185z" />
    <glyph glyph-name="uni0303" unicode="&#x303;" horiz-adv-x="0" 
d="M-128 638q-36 -30 -48.5 -41.5t-21.5 -18.5q-64 -52 -108 -52q-30 0 -82 30q-40 26 -72 26q-49 0 -113 -56l-37 43q36 30 48.5 41.5t21.5 18.5q64 52 108 52q30 0 82 -30q40 -26 72 -26q49 0 113 56z" />
    <glyph glyph-name="uni0304" unicode="&#x304;" horiz-adv-x="0" 
d="M-108 568h-522v71h522v-71z" />
    <glyph glyph-name="uni0306" unicode="&#x306;" horiz-adv-x="0" 
d="M-140 695q-3 -88 -73.5 -135.5t-155.5 -47.5t-155.5 47.5t-73.5 135.5h56q1 -34 22.5 -56.5t54.5 -31t54 -11t42 -2.5q15 0 30.5 1t42.5 7t47 15.5t36 30t17 47.5h56z" />
    <glyph glyph-name="uni0307" unicode="&#x307;" horiz-adv-x="0" 
d="M-283 603q0 -34 -25 -58.5t-61 -24.5q-35 0 -60.5 24.5t-25.5 59.5q0 34 25 58.5t61 24.5q35 0 60.5 -24.5t25.5 -59.5z" />
    <glyph glyph-name="uni0308" unicode="&#x308;" horiz-adv-x="0" 
d="M-433 602q0 -30 -23 -52t-55 -22q-31 0 -54 21.5t-23 53.5q0 31 22.5 53t54.5 22t55 -22t23 -54zM-149 602q0 -30 -23 -52t-55 -22q-31 0 -54 21.5t-23 53.5q0 31 22.5 53t54.5 22t55 -22t23 -54z" />
    <glyph glyph-name="uni0309" unicode="&#x309;" horiz-adv-x="0" 
d="M-228 632q0 -36 -48 -48l-21 -6q-52 -12 -58 -26l-1 -6v-15q0 -9 -6.5 -15.5t-16.5 -6.5q-9 0 -15.5 6.5t-6.5 15.5v16q0 23 15 40q16 21 55 38l6 7l-3 13q-13 8 -51 8q-8 0 -20.5 -0.5t-16.5 -0.5q4 -12 4 -20q-1 -22 -15.5 -35.5t-33.5 -13.5q-20 0 -34.5 13.5
t-14.5 35.5t9.5 35.5t29.5 20t39.5 8t52.5 1.5q70 0 104 -12q47 -16 47 -53z" />
    <glyph glyph-name="uni030A" unicode="&#x30a;" horiz-adv-x="0" 
d="M-297 618q0 11 -3.5 18t-7.5 11t-15 5.5t-19.5 2t-26.5 0.5q-43 0 -57.5 -5.5t-14.5 -31.5q0 -11 3.5 -18t7.5 -11t15 -5.5t19.5 -2t26.5 -0.5q43 0 57.5 5.5t14.5 31.5zM-208 619q0 -35 -39.5 -60t-121.5 -25t-121.5 25t-39.5 60q0 31 38 57t123 26q84 0 122.5 -25.5
t38.5 -57.5z" />
    <glyph glyph-name="uni030B" unicode="&#x30b;" horiz-adv-x="0" 
d="M-357 627q0 -36 -39 -59l-106 -62l-55 62l76 102q22 30 53 30q27 0 49 -22.5t22 -50.5zM-115 627q0 -36 -39 -59l-106 -62l-55 62l76 102q22 30 53 30q27 0 49 -22.5t22 -50.5z" />
    <glyph glyph-name="uni030C" unicode="&#x30c;" horiz-adv-x="0" 
d="M-192 685l-177 -185l-177 185l20 22l158 -99l158 99z" />
    <glyph glyph-name="uni030F" unicode="&#x30f;" horiz-adv-x="0" 
d="M-181 568l-55 -62l-106 62q-39 23 -39 59q0 28 22 50.5t49 22.5q31 0 53 -30zM-423 568l-55 -62l-106 62q-39 23 -39 59q0 28 22 50.5t49 22.5q31 0 53 -30z" />
    <glyph glyph-name="uni0311" unicode="&#x311;" horiz-adv-x="0" 
d="M-140 512h-56q-1 34 -22.5 56.5t-54.5 31t-54 11t-42 2.5q-15 0 -30.5 -1t-42.5 -7t-47 -15.5t-36 -30t-17 -47.5h-56q3 88 73.5 135.5t155.5 47.5t155.5 -47.5t73.5 -135.5z" />
    <glyph glyph-name="uni0323" unicode="&#x323;" horiz-adv-x="0" 
d="M-283 -117q0 -34 -25 -58.5t-61 -24.5q-35 0 -60.5 24.5t-25.5 59.5q0 34 25 58.5t61 24.5q35 0 60.5 -24.5t25.5 -59.5z" />
    <glyph glyph-name="uni0326" unicode="&#x326;" horiz-adv-x="0" 
d="M-298 -151q0 -38 -14 -72.5t-32.5 -55.5t-34.5 -33.5t-23 -12.5t-14.5 7.5t-7.5 14.5q0 10 13 19q59 38 69 112q-12 -8 -33 -8q-29 0 -46.5 19t-17.5 46t18 45.5t45 18.5q35 0 56.5 -29t21.5 -71z" />
    <glyph glyph-name="uni032E" unicode="&#x32e;" horiz-adv-x="0" 
d="M-140 -24q-3 -88 -73.5 -135.5t-155.5 -47.5t-155.5 47.5t-73.5 135.5h56q1 -34 22.5 -56.5t54.5 -31t54 -11t42 -2.5q15 0 30.5 1t42.5 7t47 15.5t36 30t17 47.5h56z" />
    <glyph glyph-name="uni032F" unicode="&#x32f;" horiz-adv-x="0" 
d="M-140 -207h-56q-1 34 -22.5 56.5t-54.5 31t-54 11t-42 2.5q-15 0 -30.5 -1t-42.5 -7t-47 -15.5t-36 -30t-17 -47.5h-56q3 88 73.5 135.5t155.5 47.5t155.5 -47.5t73.5 -135.5z" />
    <glyph glyph-name="uni0330" unicode="&#x330;" horiz-adv-x="0" 
d="M-128 -81q-36 -30 -48.5 -41.5t-21.5 -18.5q-64 -52 -108 -52q-30 0 -82 30q-40 26 -72 26q-49 0 -113 -56l-37 43q36 30 48.5 41.5t21.5 18.5q64 52 108 52q30 0 82 -30q40 -26 72 -26q49 0 113 56z" />
    <glyph glyph-name="uni0331" unicode="&#x331;" horiz-adv-x="0" 
d="M-108 -151h-522v71h522v-71z" />
    <glyph glyph-name="uni0332" unicode="&#x332;" horiz-adv-x="0" 
d="M-108 -151h-522v71h522v-71z" />
    <glyph glyph-name="Alpha" unicode="&#x391;" horiz-adv-x="1114" 
d="M1042 0l-167 4l-181 -4v67h83l-70 146h-360l-69 -146h83v-67l-152 4q-76 0 -137 -4v67h102l290 611q8 16 17 23.5t16 8.5t22 1h76q26 0 35.5 -7t19.5 -28l290 -609h102v-67zM676 280l-149 312l-148 -312h297z" />
    <glyph glyph-name="Beta" unicode="&#x392;" horiz-adv-x="1057" 
d="M959 189q0 -80 -83.5 -134.5t-226.5 -54.5h-549v67h106v552h-106v67h511q138 0 223 -50t85 -125q0 -55 -53 -95t-145 -57q111 -13 174.5 -59.5t63.5 -110.5zM764 510q0 44 -41.5 76.5t-123.5 32.5h-254v-234h223q88 0 142 35.5t54 89.5zM795 191q0 22 -8.5 44t-27 44.5
t-57 36t-90.5 13.5h-267v-262h257q86 0 139.5 33.5t53.5 90.5z" />
    <glyph glyph-name="Gamma" unicode="&#x393;" horiz-adv-x="897" 
d="M820 472h-83q-9 46 -28 75t-49.5 42.5t-59.5 17.5t-74 4h-172v-544h132v-67q-50 4 -206 4l-188 -4v67h106v544h-106v67h689z" />
    <glyph glyph-name="Delta" unicode="&#x394;" horiz-adv-x="1242" 
d="M1151 16q0 -16 -30 -16h-1000q-30 0 -30 16q0 4 8 17l421 647q13 20 25 25.5t35 5.5h82q22 0 34.5 -5.5t25.5 -25.5l422 -649q7 -12 7 -15zM890 136l-306 470l-306 -470h612z" />
    <glyph glyph-name="Epsilon" unicode="&#x395;" horiz-adv-x="978" 
d="M921 229l-58 -229h-771v67h106v544h-106v67h749l39 -206h-83q-10 46 -31 75.5t-55.5 42.5t-66.5 17t-81 4h-209v-226h89q23 0 37.5 1t32 5.5t27.5 13t17 24.5t8 39h83v-233h-83q-1 23 -8 39t-17 24.5t-27.5 13t-32 5.5t-37.5 1h-89v-251h223q53 0 88 5t72.5 20.5
t62.5 49.5t38 87h83z" />
    <glyph glyph-name="Zeta" unicode="&#x396;" horiz-adv-x="919" 
d="M830 240l-23 -240h-671q-23 0 -30.5 7t-7.5 30q0 15 2 20.5t11 14.5l500 547h-173q-18 0 -32 -1t-44.5 -4t-53.5 -12.5t-48 -23.5t-40.5 -39.5t-18.5 -58.5h-83l16 206h649q14 0 21 -1.5t12 -9.5t5 -24q0 -14 -2 -19t-11 -14l-498 -545h187q28 0 47.5 1.5t50.5 6t53 15.5
t44.5 28.5t36.5 47t18 68.5h83z" />
    <glyph glyph-name="Eta" unicode="&#x397;" horiz-adv-x="1153" 
d="M1061 0l-184 4l-184 -4v67h106v256h-445v-256h106v-67l-184 4l-184 -4v67h106v552h-106v67l184 -4l184 4v-67h-106v-229h445v229h-106v67l184 -4l184 4v-67h-106v-552h106v-67z" />
    <glyph glyph-name="Theta" unicode="&#x398;" horiz-adv-x="1161" 
d="M1063 338q0 -67 -27 -127.5t-82 -113t-151.5 -83.5t-222.5 -31q-124 0 -220 31t-151.5 82.5t-83 113t-27.5 128.5q0 68 27.5 131t82.5 116.5t151.5 85.5t221.5 32q100 0 182 -21t136.5 -56.5t92.5 -83t54.5 -98.5t16.5 -106zM908 339q0 154 -87.5 231t-240.5 77
q-149 0 -238 -75.5t-89 -232.5q0 -153 88.5 -225t239.5 -72q71 0 128 16t103 50t71 92.5t25 138.5zM826 243h-83v34h-325v-34h-83v204h83v-34h325v34h83v-204z" />
    <glyph glyph-name="Iota" unicode="&#x399;" horiz-adv-x="550" 
d="M464 0q-61 4 -189 4t-189 -4v67h111v552h-111v67q61 -4 189 -4t189 4v-67h-111v-552h111v-67z" />
    <glyph glyph-name="Kappa" unicode="&#x39a;" horiz-adv-x="1154" 
d="M1076 0q-69 4 -153 4l-182 -4v67h52l-277 269l-162 -106v-163h106v-67l-184 4l-184 -4v67h106v552h-106v67l184 -4l184 4v-67h-106v-290l444 290h-42v67l171 -4q86 0 129 4v-67h-107l-320 -210l352 -342h95v-67z" />
    <glyph glyph-name="Lambda" unicode="&#x39b;" horiz-adv-x="1033" 
d="M963 0l-163 4l-182 -4v67h85l-220 506l-220 -506h85v-67l-150 4q-79 0 -128 -4v67h90l267 612q8 20 18 26t34 6h75q14 0 21 -1t16 -8.5t16 -22.5l266 -612h90v-67z" />
    <glyph glyph-name="Mu" unicode="&#x39c;" horiz-adv-x="1394" 
d="M1290 0l-172 4l-171 -4v67h106v549h-1l-325 -587q-16 -29 -54 -29t-54 29l-317 573h-1v-535h106v-67l-152 4l-151 -4v67h106v552h-106v67h235q40 0 56 -29l302 -546l302 546q16 29 56 29h235v-67h-106v-552h106v-67z" />
    <glyph glyph-name="Nu" unicode="&#x39d;" horiz-adv-x="1153" 
d="M1061 619h-106v-581q0 -24 -7.5 -31t-30.5 -7h-15q-17 0 -22 2t-16 12l-575 549v-496h106v-67l-152 4l-151 -4v67h106v552h-106v67h235q24 0 37 -12l500 -478v423h-106v67l152 -4l151 4v-67z" />
    <glyph glyph-name="Xi" unicode="&#x39e;" horiz-adv-x="1000" 
d="M915 482h-83q-1 23 -7 39.5t-13 18.5q-16 4 -78 4h-468q-14 0 -32 -1t-30 -1.5t-13 -0.5q-9 -2 -15 -16.5t-7 -28.5l-1 -14h-83l12 187h806zM923 194l-12 -194h-822l-12 194h83q1 -24 6 -40t10 -20l4 -4q12 -5 84 -5h472q66 0 83 4q20 5 21 65h83zM782 237h-83v48h-398
v-48h-83v221h83v-48h398v48h83v-221z" />
    <glyph glyph-name="Omicron" unicode="&#x39f;" horiz-adv-x="1122" 
d="M1024 338q0 -68 -27 -129.5t-80.5 -113t-145.5 -82t-210 -30.5t-209.5 30.5t-145.5 81.5t-81 113t-27 130q0 70 27 133.5t80.5 116t145.5 84t210 31.5t209.5 -31t145.5 -84t81 -116.5t27 -133.5zM852 355q0 148 -78 217q-79 69 -213 69q-139 0 -215 -70q-76 -72 -76 -216
q0 -139 68.5 -223.5t222.5 -84.5q149 0 220 81.5t71 226.5z" />
    <glyph glyph-name="Pi" unicode="&#x3a0;" horiz-adv-x="1153" 
d="M1061 0l-184 4l-184 -4v67h106v544h-445v-544h106v-67l-184 4l-184 -4v67h106v544h-106v67h969v-67h-106v-544h106v-67z" />
    <glyph glyph-name="Rho" unicode="&#x3a1;" horiz-adv-x="1017" 
d="M919 481q0 -90 -93 -144.5t-224 -54.5h-244v-215h106v-67l-184 4l-184 -4v67h106v552h-106v67h494q148 0 238.5 -57.5t90.5 -147.5zM747 481q0 32 -5 52t-22.5 42t-56.5 33t-101 11h-212v-276h211q62 0 101.5 11t57 33.5t22.5 42.5t5 51z" />
    <glyph glyph-name="Sigma" unicode="&#x3a3;" horiz-adv-x="1081" 
d="M983 223l-39 -223h-808q-38 0 -38 25q0 13 14 24l333 260l-333 311q-9 8 -11.5 13.5t-2.5 18.5q0 23 9 28.5t29 5.5h808l39 -206h-83q-11 51 -46.5 81.5t-72.5 41.5q-63 16 -183 16h-256l270 -253q13 -12 13 -23q0 -12 -16 -25l-299 -234h299q116 0 179 17q34 10 68 41
t44 81h83z" />
    <glyph glyph-name="Tau" unicode="&#x3a4;" horiz-adv-x="1042" 
d="M973 463h-83q-11 82 -48.5 110.5t-122.5 28.5h-120v-535h149v-67q-48 4 -227 4t-227 -4v67h149v535h-120q-85 0 -122.5 -28.5t-48.5 -110.5h-83l27 206h850z" />
    <glyph glyph-name="Upsilon" unicode="&#x3a5;" horiz-adv-x="1161" 
d="M1063 552q0 -13 -6.5 -19.5t-13 -7.5t-17.5 -1h-20q-32 0 -37 21q-2 10 -6 15t-27.5 9.5t-69.5 4.5q-98 0 -152 -68q-55 -70 -55 -164v-275h132v-67q-50 4 -210 4t-210 -4v67h132v275q0 97 -58 167q-53 65 -150 65q-98 0 -103 -23q-4 -18 -10.5 -22.5t-26.5 -4.5h-20
q-11 0 -17.5 1t-13 7.5t-6.5 19.5q0 64 62 107.5t150 43.5q55 0 103 -22t80.5 -58t54 -76t33.5 -83q34 115 106 177t164 62q88 0 150 -43.5t62 -107.5z" />
    <glyph glyph-name="Phi" unicode="&#x3a6;" horiz-adv-x="1081" 
d="M983 343q0 -72 -102.5 -118.5t-278.5 -53.5v-104h132v-67q-52 4 -202 4q-149 0 -201 -4v67h132v105q-58 1 -118 11.5t-117.5 30t-93.5 53t-36 76.5t36 76.5t93.5 53t117.5 30t118 11.5v105h-132v67q52 -4 201 -4q150 0 202 4v-67h-132v-104q177 -7 279 -53.5t102 -118.5z
M463 227v232q-38 -2 -67 -6.5t-63 -16t-52.5 -35t-18.5 -58.5t19 -59t53.5 -35t62.5 -15.5t66 -6.5zM819 343q0 116 -217 116v-232q217 0 217 116z" />
    <glyph glyph-name="Chi" unicode="&#x3a7;" horiz-adv-x="1114" 
d="M1043 0l-171 4q-133 0 -189 -4v67h55l-207 213l-207 -213h66v-67l-168 4q-67 0 -151 -4v67h122l273 280l-264 272h-111v67l171 -4q133 0 189 4v-67h-55l167 -172l167 172h-67v67l169 -4l150 4v-67h-121l-233 -239l305 -313h110v-67z" />
    <glyph glyph-name="Psi" unicode="&#x3a8;" horiz-adv-x="1161" 
d="M1063 509q0 -25 -28 -28q-60 -6 -63 -80q-2 -46 -29 -96t-85 -82q-85 -45 -216 -52v-104h132v-67q-52 4 -202 4q-149 0 -201 -4v67h132v105q-125 6 -203 51q-107 63 -111 194q-1 20 -16.5 40.5t-42.5 23.5q-10 1 -16 2.5t-11 7.5t-5 18q0 13 7 19.5t13 7.5t18 1h69
q54 0 88 -34.5t35 -100.5q1 -74 47.5 -118.5t127.5 -53.5v389h-132v67q52 -4 201 -4q150 0 202 4v-67h-132v-390q84 9 136.5 51t54.5 121q3 66 31 97q38 39 92 39h69q12 0 18 -1t13 -7.5t7 -19.5z" />
    <glyph glyph-name="Omega" unicode="&#x3a9;" horiz-adv-x="1081" 
d="M1000 188l-47 -188h-255q-13 0 -19.5 1t-12.5 8.5t-6 22.5q0 36 14.5 81t28.5 72.5t39 73.5q22 41 34.5 66t23.5 62t11 70q0 56 -25.5 96t-69 59t-86 27t-90.5 8q-122 0 -196 -47t-74 -143q0 -34 12 -72.5t24.5 -63t37.5 -70.5q77 -141 77 -219q0 -15 -6 -22.5
t-12.5 -8.5t-19.5 -1h-255l-47 188h83q12 -51 24 -60t63 -9h84q-32 49 -116 122q-121 109 -121 215q0 35 13.5 68t46 66t81.5 57.5t127 40t175 15.5q119 0 209 -22.5t138.5 -60t71.5 -78.5t23 -86q0 -37 -11 -69t-37.5 -65.5t-46.5 -53.5t-60 -57q-58 -55 -82 -92h84
q51 0 63 9t24 60h83z" />
    <glyph glyph-name="baht" unicode="&#xe3f;" horiz-adv-x="1057" 
d="M959 189q0 -80 -83.5 -134.5t-226.5 -54.5h-96v-66q0 -14 -9.5 -23.5t-23.5 -9.5t-23.5 9.5t-9.5 23.5v66h-387v67h106v552h-106v67h387v66q0 14 9.5 23.5t23.5 9.5t23.5 -9.5t9.5 -23.5v-66h58q138 0 223 -50t85 -125q0 -55 -53 -95t-145 -57q111 -13 174.5 -59.5
t63.5 -110.5zM764 510q0 44 -41.5 76.5t-123.5 32.5h-46v-234h15q88 0 142 35.5t54 89.5zM487 385v234h-142v-234h142zM795 191q0 22 -8.5 44t-27 44.5t-57 36t-90.5 13.5h-59v-262h49q86 0 139.5 33.5t53.5 90.5zM487 67v262h-142v-262h142z" />
    <glyph glyph-name="Ddotbelow" unicode="&#x1e0c;" horiz-adv-x="1138" 
d="M1039 337q0 -149 -118.5 -243t-312.5 -94h-512v67h106v552h-106v67h512q192 0 311.5 -96.5t119.5 -252.5zM875 338q0 91 -22.5 141.5t-65.5 82.5q-78 57 -220 57h-217v-552h218q62 0 111.5 10.5t81 26.5t54 41t34 47t18 52.5t7.5 49t1 44.5zM546 -117q0 -34 -25 -58.5
t-61 -24.5q-35 0 -60.5 24.5t-25.5 59.5q0 34 25 58.5t61 24.5q35 0 60.5 -24.5t25.5 -59.5z" />
    <glyph glyph-name="ddotbelow" unicode="&#x1e0d;" horiz-adv-x="839" 
d="M755 0l-205 -8v49q-80 -49 -186 -49q-76 0 -135.5 20t-94 53.5t-52 73t-17.5 82.5q0 97 80.5 164t232.5 67q102 0 180 -41v169q0 28 -11 33.5t-61 5.5v67l197 8v-588q0 -28 11 -33.5t61 -5.5v-67zM550 132v181q0 15 -2.5 20t-18.5 18q-56 45 -136 45q-51 0 -87 -14
t-53 -31.5t-26.5 -46t-10.5 -44.5t-1 -40q0 -20 1 -32t5 -35.5t14.5 -39t27.5 -32t46.5 -25t68.5 -8.5q106 0 172 84zM505 -117q0 -34 -25 -58.5t-61 -24.5q-35 0 -60.5 24.5t-25.5 59.5q0 34 25 58.5t61 24.5q35 0 60.5 -24.5t25.5 -59.5z" />
    <glyph glyph-name="Dlinebelow" unicode="&#x1e0e;" horiz-adv-x="1138" 
d="M1039 337q0 -149 -118.5 -243t-312.5 -94h-512v67h106v552h-106v67h512q192 0 311.5 -96.5t119.5 -252.5zM875 338q0 91 -22.5 141.5t-65.5 82.5q-78 57 -220 57h-217v-552h218q62 0 111.5 10.5t81 26.5t54 41t34 47t18 52.5t7.5 49t1 44.5zM721 -151h-522v71h522v-71z
" />
    <glyph glyph-name="dlinebelow" unicode="&#x1e0f;" horiz-adv-x="839" 
d="M755 0l-205 -8v49q-80 -49 -186 -49q-76 0 -135.5 20t-94 53.5t-52 73t-17.5 82.5q0 97 80.5 164t232.5 67q102 0 180 -41v169q0 28 -11 33.5t-61 5.5v67l197 8v-588q0 -28 11 -33.5t61 -5.5v-67zM550 132v181q0 15 -2.5 20t-18.5 18q-56 45 -136 45q-51 0 -87 -14
t-53 -31.5t-26.5 -46t-10.5 -44.5t-1 -40q0 -20 1 -32t5 -35.5t14.5 -39t27.5 -32t46.5 -25t68.5 -8.5q106 0 172 84zM680 -151h-522v71h522v-71z" />
    <glyph glyph-name="Hdotbelow" unicode="&#x1e24;" horiz-adv-x="1153" 
d="M1061 0l-184 4l-184 -4v67h106v256h-445v-256h106v-67l-184 4l-184 -4v67h106v552h-106v67l184 -4l184 4v-67h-106v-229h445v229h-106v67l184 -4l184 4v-67h-106v-552h106v-67zM662 -117q0 -34 -25 -58.5t-61 -24.5q-35 0 -60.5 24.5t-25.5 59.5q0 34 25 58.5t61 24.5
q35 0 60.5 -24.5t25.5 -59.5z" />
    <glyph glyph-name="hdotbelow" unicode="&#x1e25;" horiz-adv-x="839" 
d="M776 0q-59 4 -138 4l-139 -4v67h72v231q0 55 -18 76.5t-66 21.5q-27 0 -56 -7.5t-59.5 -23.5t-50 -48t-19.5 -75v-175h72v-67q-59 4 -138 4l-139 -4v67h72v513q0 28 -11 33.5t-61 5.5v67l197 8v-336q75 94 216 94q28 0 49.5 -2t50.5 -11t48 -24.5t32.5 -46.5t13.5 -73
v-228h72v-67zM523 -117q0 -34 -25 -58.5t-61 -24.5q-35 0 -60.5 24.5t-25.5 59.5q0 34 25 58.5t61 24.5q35 0 60.5 -24.5t25.5 -59.5z" />
    <glyph glyph-name="Hdieresis" unicode="&#x1e26;" horiz-adv-x="1153" 
d="M1061 0l-184 4l-184 -4v67h106v256h-445v-256h106v-67l-184 4l-184 -4v67h106v552h-106v67l184 -4l184 4v-67h-106v-229h445v229h-106v67l184 -4l184 4v-67h-106v-552h106v-67zM486 815q0 -30 -23 -52t-55 -22q-31 0 -54 21.5t-23 53.5q0 31 22.5 53t54.5 22t55 -22
t23 -54zM822 815q0 -30 -23 -52t-55 -22q-31 0 -54 21.5t-23 53.5q0 31 22.5 53t54.5 22t55 -22t23 -54z" />
    <glyph glyph-name="hdieresis" unicode="&#x1e27;" horiz-adv-x="839" 
d="M776 0q-59 4 -138 4l-139 -4v67h72v231q0 55 -18 76.5t-66 21.5q-27 0 -56 -7.5t-59.5 -23.5t-50 -48t-19.5 -75v-175h72v-67q-59 4 -138 4l-139 -4v67h72v513q0 28 -11 33.5t-61 5.5v67l197 8v-336q75 94 216 94q28 0 49.5 -2t50.5 -11t48 -24.5t32.5 -46.5t13.5 -73
v-228h72v-67zM329 823q0 -30 -23 -52t-55 -22q-31 0 -54 21.5t-23 53.5q0 31 22.5 53t54.5 22t55 -22t23 -54zM665 823q0 -30 -23 -52t-55 -22q-31 0 -54 21.5t-23 53.5q0 31 22.5 53t54.5 22t55 -22t23 -54z" />
    <glyph glyph-name="Hbrevebelow" unicode="&#x1e2a;" horiz-adv-x="1153" 
d="M1061 0l-184 4l-184 -4v67h106v256h-445v-256h106v-67l-184 4l-184 -4v67h106v552h-106v67l184 -4l184 4v-67h-106v-229h445v229h-106v67l184 -4l184 4v-67h-106v-552h106v-67zM805 -24q-3 -88 -73.5 -135.5t-155.5 -47.5t-155.5 47.5t-73.5 135.5h56q1 -34 22.5 -56.5
t54.5 -31t54 -11t42 -2.5q15 0 30.5 1t42.5 7t47 15.5t36 30t17 47.5h56z" />
    <glyph glyph-name="hbrevebelow" unicode="&#x1e2b;" horiz-adv-x="839" 
d="M776 0q-59 4 -138 4l-139 -4v67h72v231q0 55 -18 76.5t-66 21.5q-27 0 -56 -7.5t-59.5 -23.5t-50 -48t-19.5 -75v-175h72v-67q-59 4 -138 4l-139 -4v67h72v513q0 28 -11 33.5t-61 5.5v67l197 8v-336q75 94 216 94q28 0 49.5 -2t50.5 -11t48 -24.5t32.5 -46.5t13.5 -73
v-228h72v-67zM666 -24q-3 -88 -73.5 -135.5t-155.5 -47.5t-155.5 47.5t-73.5 135.5h56q1 -34 22.5 -56.5t54.5 -31t54 -11t42 -2.5q15 0 30.5 1t42.5 7t47 15.5t36 30t17 47.5h56z" />
    <glyph glyph-name="Idieresisacute" unicode="&#x1e2e;" horiz-adv-x="550" 
d="M464 0q-61 4 -189 4t-189 -4v67h111v552h-111v67q61 -4 189 -4t189 4v-67h-111v-552h111v-67zM185 815q0 -30 -23 -52t-55 -22q-31 0 -54 21.5t-23 53.5q0 31 22.5 53t54.5 22t55 -22t23 -54zM521 815q0 -30 -23 -52t-55 -22q-31 0 -54 21.5t-23 53.5q0 31 22.5 53
t54.5 22t55 -22t23 -54zM456 1073q0 -45 -53 -62l-184 -60l-35 76l166 105q22 13 40 13q28 0 47 -22t19 -50z" />
    <glyph glyph-name="idieresisacute" unicode="&#x1e2f;" horiz-adv-x="436" 
d="M363 0q-57 4 -129 4q-74 0 -133 -4v67h72v271q0 28 -10.5 33.5t-58.5 5.5v67l194 8v-385h65v-67zM154 602q0 -30 -23 -52t-55 -22q-31 0 -54 21.5t-23 53.5q0 31 22.5 53t54.5 22t55 -22t23 -54zM438 602q0 -30 -23 -52t-55 -22q-31 0 -54 21.5t-23 53.5q0 31 22.5 53
t54.5 22t55 -22t23 -54zM399 881q0 -45 -53 -62l-184 -60l-35 76l166 105q22 13 40 13q28 0 47 -22t19 -50z" />
    <glyph glyph-name="Ldotbelow" unicode="&#x1e36;" horiz-adv-x="897" 
d="M820 229l-39 -229h-689v67h106v552h-106v67l188 -4q156 0 206 4v-67h-132v-552h152q39 0 70.5 5.5t66.5 21t59.5 49.5t34.5 86h83zM535 -117q0 -34 -25 -58.5t-61 -24.5q-35 0 -60.5 24.5t-25.5 59.5q0 34 25 58.5t61 24.5q35 0 60.5 -24.5t25.5 -59.5z" />
    <glyph glyph-name="ldotbelow" unicode="&#x1e37;" horiz-adv-x="436" 
d="M370 0q-53 4 -135 4q-74 0 -134 -4v67h72v513q0 28 -11 33.5t-61 5.5v67l197 8v-627h72v-67zM304 -117q0 -34 -25 -58.5t-61 -24.5q-35 0 -60.5 24.5t-25.5 59.5q0 34 25 58.5t61 24.5q35 0 60.5 -24.5t25.5 -59.5z" />
    <glyph glyph-name="Ldotbelowmacron" unicode="&#x1e38;" horiz-adv-x="897" 
d="M820 229l-39 -229h-689v67h106v552h-106v67l188 -4q156 0 206 4v-67h-132v-552h152q39 0 70.5 5.5t66.5 21t59.5 49.5t34.5 86h83zM535 -117q0 -34 -25 -58.5t-61 -24.5q-35 0 -60.5 24.5t-25.5 59.5q0 34 25 58.5t61 24.5q35 0 60.5 -24.5t25.5 -59.5zM550 761h-522v71
h522v-71z" />
    <glyph glyph-name="ldotbelowmacron" unicode="&#x1e39;" horiz-adv-x="436" 
d="M370 0q-53 4 -135 4q-74 0 -134 -4v67h72v513q0 28 -11 33.5t-61 5.5v67l197 8v-627h72v-67zM304 -117q0 -34 -25 -58.5t-61 -24.5q-35 0 -60.5 24.5t-25.5 59.5q0 34 25 58.5t61 24.5q35 0 60.5 -24.5t25.5 -59.5zM493 769h-522v71h522v-71z" />
    <glyph glyph-name="Mdotbelow" unicode="&#x1e42;" horiz-adv-x="1394" 
d="M1290 0l-172 4l-171 -4v67h106v549h-1l-325 -587q-16 -29 -54 -29t-54 29l-317 573h-1v-535h106v-67l-152 4l-151 -4v67h106v552h-106v67h235q40 0 56 -29l302 -546l302 546q16 29 56 29h235v-67h-106v-552h106v-67zM783 -117q0 -34 -25 -58.5t-61 -24.5
q-35 0 -60.5 24.5t-25.5 59.5q0 34 25 58.5t61 24.5q35 0 60.5 -24.5t25.5 -59.5z" />
    <glyph glyph-name="mdotbelow" unicode="&#x1e43;" horiz-adv-x="1242" 
d="M1180 0q-59 4 -138 4l-139 -4v67h72v230q0 56 -18.5 77.5t-66.5 21.5q-26 0 -55 -7.5t-59.5 -23.5t-50.5 -48t-20 -75v-175h72v-67q-59 4 -138 4l-139 -4v67h72v230q0 56 -18.5 77.5t-66.5 21.5q-26 0 -55 -7.5t-59.5 -23.5t-50.5 -48t-20 -75v-175h72v-67q-59 4 -138 4
l-139 -4v67h72v271q0 28 -11 33.5t-61 5.5v67l188 8v-107q16 24 38 44.5t73 41.5t115 21q77 0 121.5 -21.5t64.5 -73.5q76 95 217 95q28 0 50 -2t50.5 -11.5t47.5 -25t32.5 -46t13.5 -72.5v-228h72v-67zM707 -117q0 -34 -25 -58.5t-61 -24.5q-35 0 -60.5 24.5t-25.5 59.5
q0 34 25 58.5t61 24.5q35 0 60.5 -24.5t25.5 -59.5z" />
    <glyph glyph-name="Ndotaccent" unicode="&#x1e44;" horiz-adv-x="1153" 
d="M1061 619h-106v-581q0 -24 -7.5 -31t-30.5 -7h-15q-17 0 -22 2t-16 12l-575 549v-496h106v-67l-152 4l-151 -4v67h106v552h-106v67h235q24 0 37 -12l500 -478v423h-106v67l152 -4l151 4v-67zM662 824q0 -34 -25 -58.5t-61 -24.5q-35 0 -60.5 24.5t-25.5 59.5
q0 34 25 58.5t61 24.5q35 0 60.5 -24.5t25.5 -59.5z" />
    <glyph glyph-name="ndotaccent" unicode="&#x1e45;" horiz-adv-x="839" 
d="M776 0q-59 4 -138 4l-139 -4v67h72v231q0 55 -18 76.5t-66 21.5q-27 0 -56 -7.5t-59.5 -23.5t-50 -48t-19.5 -75v-175h72v-67q-59 4 -138 4l-139 -4v67h72v271q0 28 -11 33.5t-61 5.5v67l188 8v-107q26 41 81 74t144 33q28 0 49.5 -2t50.5 -11t48 -24.5t32.5 -46.5
t13.5 -73v-228h72v-67zM505 603q0 -34 -25 -58.5t-61 -24.5q-35 0 -60.5 24.5t-25.5 59.5q0 34 25 58.5t61 24.5q35 0 60.5 -24.5t25.5 -59.5z" />
    <glyph glyph-name="Ndotbelow" unicode="&#x1e46;" horiz-adv-x="1153" 
d="M1061 619h-106v-581q0 -24 -7.5 -31t-30.5 -7h-15q-17 0 -22 2t-16 12l-575 549v-496h106v-67l-152 4l-151 -4v67h106v552h-106v67h235q24 0 37 -12l500 -478v423h-106v67l152 -4l151 4v-67zM662 -117q0 -34 -25 -58.5t-61 -24.5q-35 0 -60.5 24.5t-25.5 59.5
q0 34 25 58.5t61 24.5q35 0 60.5 -24.5t25.5 -59.5z" />
    <glyph glyph-name="ndotbelow" unicode="&#x1e47;" horiz-adv-x="839" 
d="M776 0q-59 4 -138 4l-139 -4v67h72v231q0 55 -18 76.5t-66 21.5q-27 0 -56 -7.5t-59.5 -23.5t-50 -48t-19.5 -75v-175h72v-67q-59 4 -138 4l-139 -4v67h72v271q0 28 -11 33.5t-61 5.5v67l188 8v-107q26 41 81 74t144 33q28 0 49.5 -2t50.5 -11t48 -24.5t32.5 -46.5
t13.5 -73v-228h72v-67zM505 -117q0 -34 -25 -58.5t-61 -24.5q-35 0 -60.5 24.5t-25.5 59.5q0 34 25 58.5t61 24.5q35 0 60.5 -24.5t25.5 -59.5z" />
    <glyph glyph-name="Rdotaccent" unicode="&#x1e58;" horiz-adv-x="1103" 
d="M1082 101q0 -12 -5 -27.5t-19 -38t-48 -37.5t-82 -15q-114 0 -170 25q-23 11 -38.5 25t-23.5 26.5t-12 34.5t-4.5 36t-0.5 44q0 50 -6 70.5t-32 38.5q-47 32 -124 32h-167v-248h106v-67l-180 4l-180 -4v67h106v552h-106v67h442q162 0 264.5 -54t102.5 -136
q0 -50 -42.5 -91t-128.5 -65q86 -39 102 -129l16 -82q18 -90 88 -90q20 0 38 14.5t21 50.5q1 12 8 18t13.5 7t19.5 1q14 0 21 -1t14 -8t7 -20zM733 495q0 64 -44.5 94t-157.5 30h-181v-248h181q113 0 157.5 31t44.5 93zM637 841q0 -34 -25 -58.5t-61 -24.5q-35 0 -60.5 24.5
t-25.5 59.5q0 34 25 58.5t61 24.5q35 0 60.5 -24.5t25.5 -59.5z" />
    <glyph glyph-name="rdotaccent" unicode="&#x1e59;" horiz-adv-x="622" 
d="M565 357q0 -32 -21 -52.5t-52 -20.5t-52 20.5t-21 52.5q0 22 10 39q-64 -5 -106 -61.5t-42 -137.5v-130h90v-67q-70 4 -149 4q-77 0 -138 -4v67h72v271q0 28 -11 33.5t-61 5.5v67l180 8v-121h1q23 50 68 85.5t106 35.5q53 0 89.5 -26.5t36.5 -68.5zM397 603
q0 -34 -25 -58.5t-61 -24.5q-35 0 -60.5 24.5t-25.5 59.5q0 34 25 58.5t61 24.5q35 0 60.5 -24.5t25.5 -59.5z" />
    <glyph glyph-name="Rdotbelow" unicode="&#x1e5a;" horiz-adv-x="1103" 
d="M1082 101q0 -12 -5 -27.5t-19 -38t-48 -37.5t-82 -15q-114 0 -170 25q-23 11 -38.5 25t-23.5 26.5t-12 34.5t-4.5 36t-0.5 44q0 50 -6 70.5t-32 38.5q-47 32 -124 32h-167v-248h106v-67l-180 4l-180 -4v67h106v552h-106v67h442q162 0 264.5 -54t102.5 -136
q0 -50 -42.5 -91t-128.5 -65q86 -39 102 -129l16 -82q18 -90 88 -90q20 0 38 14.5t21 50.5q1 12 8 18t13.5 7t19.5 1q14 0 21 -1t14 -8t7 -20zM733 495q0 64 -44.5 94t-157.5 30h-181v-248h181q113 0 157.5 31t44.5 93zM637 -117q0 -34 -25 -58.5t-61 -24.5
q-35 0 -60.5 24.5t-25.5 59.5q0 34 25 58.5t61 24.5q35 0 60.5 -24.5t25.5 -59.5z" />
    <glyph glyph-name="rdotbelow" unicode="&#x1e5b;" horiz-adv-x="622" 
d="M565 357q0 -32 -21 -52.5t-52 -20.5t-52 20.5t-21 52.5q0 22 10 39q-64 -5 -106 -61.5t-42 -137.5v-130h90v-67q-70 4 -149 4q-77 0 -138 -4v67h72v271q0 28 -11 33.5t-61 5.5v67l180 8v-121h1q23 50 68 85.5t106 35.5q53 0 89.5 -26.5t36.5 -68.5zM313 -117
q0 -34 -25 -58.5t-61 -24.5q-35 0 -60.5 24.5t-25.5 59.5q0 34 25 58.5t61 24.5q35 0 60.5 -24.5t25.5 -59.5z" />
    <glyph glyph-name="Rdotbelowmacron" unicode="&#x1e5c;" horiz-adv-x="1103" 
d="M1082 101q0 -12 -5 -27.5t-19 -38t-48 -37.5t-82 -15q-114 0 -170 25q-23 11 -38.5 25t-23.5 26.5t-12 34.5t-4.5 36t-0.5 44q0 50 -6 70.5t-32 38.5q-47 32 -124 32h-167v-248h106v-67l-180 4l-180 -4v67h106v552h-106v67h442q162 0 264.5 -54t102.5 -136
q0 -50 -42.5 -91t-128.5 -65q86 -39 102 -129l16 -82q18 -90 88 -90q20 0 38 14.5t21 50.5q1 12 8 18t13.5 7t19.5 1q14 0 21 -1t14 -8t7 -20zM733 495q0 64 -44.5 94t-157.5 30h-181v-248h181q113 0 157.5 31t44.5 93zM637 -117q0 -34 -25 -58.5t-61 -24.5
q-35 0 -60.5 24.5t-25.5 59.5q0 34 25 58.5t61 24.5q35 0 60.5 -24.5t25.5 -59.5zM812 761h-522v71h522v-71z" />
    <glyph glyph-name="rdotbelowmacron" unicode="&#x1e5d;" horiz-adv-x="622" 
d="M565 357q0 -32 -21 -52.5t-52 -20.5t-52 20.5t-21 52.5q0 22 10 39q-64 -5 -106 -61.5t-42 -137.5v-130h90v-67q-70 4 -149 4q-77 0 -138 -4v67h72v271q0 28 -11 33.5t-61 5.5v67l180 8v-121h1q23 50 68 85.5t106 35.5q53 0 89.5 -26.5t36.5 -68.5zM313 -117
q0 -34 -25 -58.5t-61 -24.5q-35 0 -60.5 24.5t-25.5 59.5q0 34 25 58.5t61 24.5q35 0 60.5 -24.5t25.5 -59.5zM572 568h-522v71h522v-71z" />
    <glyph glyph-name="Sdotbelow" unicode="&#x1e62;" horiz-adv-x="839" 
d="M741 197q0 -24 -6 -48.5t-25 -55.5t-49 -54.5t-84 -39.5t-124 -16q-168 0 -256 49q-11 -12 -19 -18.5t-11 -9.5q-17 -15 -22.5 -18t-16.5 -3q-14 0 -21 5t-8 11t-1 19v174q0 23 6.5 29.5t29.5 6.5h12q33 0 35 -19q1 -17 2 -27t7.5 -29t16.5 -31t30 -27t48 -24t71.5 -15
t97.5 -6q51 0 89 10.5t56 24.5t28.5 32.5t12 28t1.5 18.5q0 45 -40.5 73t-90.5 37l-167 28q-127 21 -186 75q-59 55 -59 125q0 35 15 68.5t45.5 64.5t88 49.5t133.5 18.5q135 0 219 -53l44 42q11 11 28 11q14 0 21 -5t8 -11t1 -19v-175q0 -23 -6.5 -29t-28.5 -6h-13
q-21 0 -27 5t-9 22q-31 157 -238 157q-91 0 -136 -31t-45 -72q0 -74 146 -102l143 -24q47 -8 72 -14t63.5 -26t70.5 -53q48 -53 48 -123zM505 -117q0 -34 -25 -58.5t-61 -24.5q-35 0 -60.5 24.5t-25.5 59.5q0 34 25 58.5t61 24.5q35 0 60.5 -24.5t25.5 -59.5z" />
    <glyph glyph-name="sdotbelow" unicode="&#x1e63;" horiz-adv-x="605" 
d="M540 140q0 -30 -11.5 -54.5t-27.5 -39.5t-40.5 -26t-44.5 -16.5t-46 -8t-37 -3t-26 -0.5q-93 0 -149 29q-29 -17 -30 -17q-20 -12 -33 -12q-14 0 -21 5t-8 11t-1 19v98q0 23 6.5 29.5t29.5 6.5h12q19 0 24.5 -3.5t11.5 -17.5q19 -49 56 -70.5t104 -21.5q150 0 150 67
q0 36 -53 51q-30 9 -131 23q-29 4 -43 6.5t-44 9.5t-47 16t-37 22.5t-29.5 34t-9.5 45.5q0 72 76 108q57 25 159 25q84 0 127 -15q32 15 46 15t21 -5t8 -11t1 -19v-69q0 -22 -6.5 -28.5t-28.5 -6.5h-13q-19 0 -26.5 4.5t-8.5 21.5q-3 31 -29 47t-97 16q-148 0 -148 -55
q0 -13 9 -22.5t31 -15.5t37.5 -9t50.5 -8q95 -13 127 -20.5t68 -26.5q71 -37 71 -109zM389 -117q0 -34 -25 -58.5t-61 -24.5q-35 0 -60.5 24.5t-25.5 59.5q0 34 25 58.5t61 24.5q35 0 60.5 -24.5t25.5 -59.5z" />
    <glyph glyph-name="Tdotbelow" unicode="&#x1e6c;" horiz-adv-x="1042" 
d="M973 463h-83q-11 82 -48.5 110.5t-122.5 28.5h-120v-535h149v-67q-48 4 -227 4t-227 -4v67h149v535h-120q-85 0 -122.5 -28.5t-48.5 -110.5h-83l27 206h850zM607 -117q0 -34 -25 -58.5t-61 -24.5q-35 0 -60.5 24.5t-25.5 59.5q0 34 25 58.5t61 24.5q35 0 60.5 -24.5
t25.5 -59.5z" />
    <glyph glyph-name="tdotbelow" unicode="&#x1e6d;" horiz-adv-x="597" 
d="M499 119q0 -36 -16.5 -62t-43.5 -39.5t-55 -19.5t-58 -6q-174 0 -174 126v259h-108v56q73 2 114.5 61t43.5 141h83v-191h190v-67h-190v-256q0 -14 1 -22.5t6.5 -20.5t19.5 -18t36 -6q68 0 68 69v44h83v-48zM385 -117q0 -34 -25 -58.5t-61 -24.5q-35 0 -60.5 24.5
t-25.5 59.5q0 34 25 58.5t61 24.5q35 0 60.5 -24.5t25.5 -59.5z" />
    <glyph glyph-name="Tlinebelow" unicode="&#x1e6e;" horiz-adv-x="1042" 
d="M973 463h-83q-11 82 -48.5 110.5t-122.5 28.5h-120v-535h149v-67q-48 4 -227 4t-227 -4v67h149v535h-120q-85 0 -122.5 -28.5t-48.5 -110.5h-83l27 206h850zM782 -151h-522v71h522v-71z" />
    <glyph glyph-name="tlinebelow" unicode="&#x1e6f;" horiz-adv-x="597" 
d="M499 119q0 -36 -16.5 -62t-43.5 -39.5t-55 -19.5t-58 -6q-174 0 -174 126v259h-108v56q73 2 114.5 61t43.5 141h83v-191h190v-67h-190v-256q0 -14 1 -22.5t6.5 -20.5t19.5 -18t36 -6q68 0 68 69v44h83v-48zM559 -151h-522v71h522v-71z" />
    <glyph glyph-name="Wgrave" unicode="&#x1e80;" horiz-adv-x="1517" 
d="M1467 619h-90l-257 -603q-6 -13 -9.5 -18.5t-14 -10t-28.5 -4.5h-63q-13 0 -20 1t-16.5 8t-15.5 21l-195 458l-194 -458q-6 -14 -15.5 -21t-16.5 -8t-20 -1h-63q-14 0 -21 1t-16 9t-16 23l-256 603h-90v67l157 -4l179 4v-67h-86l216 -506l197 464l-18 42h-89v67l157 -4
l178 4v-67h-85l216 -506l215 506h-96v67l152 -4q85 0 124 4v-67zM849 827l-35 -76l-184 60q-53 17 -53 62q0 28 19 50t47 22q18 0 40 -13z" />
    <glyph glyph-name="wgrave" unicode="&#x1e81;" horiz-adv-x="1081" 
d="M1031 377h-66l-150 -354q-6 -14 -15.5 -21.5t-16.5 -8.5t-20 -1h-63q-13 0 -20 1t-16.5 8t-15.5 21l-108 254l-107 -254q-6 -14 -15.5 -21t-16.5 -8t-20 -1h-63q-13 0 -20 1t-16.5 8.5t-15.5 21.5l-150 354h-66v67q51 -4 120 -4l134 4v-67h-52l120 -284l121 284h-62v67
q44 -4 106 -4q68 0 121 4v-67h-52l134 -316l135 316h-60v67q52 -4 118 -4q56 0 98 4v-67zM631 582l-35 -76l-184 60q-53 17 -53 62q0 28 19 50t47 22q18 0 40 -13z" />
    <glyph glyph-name="Wacute" unicode="&#x1e82;" horiz-adv-x="1517" 
d="M1467 619h-90l-257 -603q-6 -13 -9.5 -18.5t-14 -10t-28.5 -4.5h-63q-13 0 -20 1t-16.5 8t-15.5 21l-195 458l-194 -458q-6 -14 -15.5 -21t-16.5 -8t-20 -1h-63q-14 0 -21 1t-16 9t-16 23l-256 603h-90v67l157 -4l179 4v-67h-86l216 -506l197 464l-18 42h-89v67l157 -4
l178 4v-67h-85l216 -506l215 506h-96v67l152 -4q85 0 124 4v-67zM939 873q0 -45 -53 -62l-184 -60l-35 76l166 105q22 13 40 13q28 0 47 -22t19 -50z" />
    <glyph glyph-name="wacute" unicode="&#x1e83;" horiz-adv-x="1081" 
d="M1031 377h-66l-150 -354q-6 -14 -15.5 -21.5t-16.5 -8.5t-20 -1h-63q-13 0 -20 1t-16.5 8t-15.5 21l-108 254l-107 -254q-6 -14 -15.5 -21t-16.5 -8t-20 -1h-63q-13 0 -20 1t-16.5 8.5t-15.5 21.5l-150 354h-66v67q51 -4 120 -4l134 4v-67h-52l120 -284l121 284h-62v67
q44 -4 106 -4q68 0 121 4v-67h-52l134 -316l135 316h-60v67q52 -4 118 -4q56 0 98 4v-67zM721 628q0 -45 -53 -62l-184 -60l-35 76l166 105q22 13 40 13q28 0 47 -22t19 -50z" />
    <glyph glyph-name="Wdieresis" unicode="&#x1e84;" horiz-adv-x="1517" 
d="M1467 619h-90l-257 -603q-6 -13 -9.5 -18.5t-14 -10t-28.5 -4.5h-63q-13 0 -20 1t-16.5 8t-15.5 21l-195 458l-194 -458q-6 -14 -15.5 -21t-16.5 -8t-20 -1h-63q-14 0 -21 1t-16 9t-16 23l-256 603h-90v67l157 -4l179 4v-67h-86l216 -506l197 464l-18 42h-89v67l157 -4
l178 4v-67h-85l216 -506l215 506h-96v67l152 -4q85 0 124 4v-67zM668 815q0 -30 -23 -52t-55 -22q-31 0 -54 21.5t-23 53.5q0 31 22.5 53t54.5 22t55 -22t23 -54zM1004 815q0 -30 -23 -52t-55 -22q-31 0 -54 21.5t-23 53.5q0 31 22.5 53t54.5 22t55 -22t23 -54z" />
    <glyph glyph-name="wdieresis" unicode="&#x1e85;" horiz-adv-x="1081" 
d="M1031 377h-66l-150 -354q-6 -14 -15.5 -21.5t-16.5 -8.5t-20 -1h-63q-13 0 -20 1t-16.5 8t-15.5 21l-108 254l-107 -254q-6 -14 -15.5 -21t-16.5 -8t-20 -1h-63q-13 0 -20 1t-16.5 8.5t-15.5 21.5l-150 354h-66v67q51 -4 120 -4l134 4v-67h-52l120 -284l121 284h-62v67
q44 -4 106 -4q68 0 121 4v-67h-52l134 -316l135 316h-60v67q52 -4 118 -4q56 0 98 4v-67zM476 602q0 -30 -23 -52t-55 -22q-31 0 -54 21.5t-23 53.5q0 31 22.5 53t54.5 22t55 -22t23 -54zM760 602q0 -30 -23 -52t-55 -22q-31 0 -54 21.5t-23 53.5q0 31 22.5 53t54.5 22
t55 -22t23 -54z" />
    <glyph glyph-name="Zdotbelow" unicode="&#x1e92;" horiz-adv-x="919" 
d="M830 240l-23 -240h-671q-23 0 -30.5 7t-7.5 30q0 15 2 20.5t11 14.5l500 547h-173q-18 0 -32 -1t-44.5 -4t-53.5 -12.5t-48 -23.5t-40.5 -39.5t-18.5 -58.5h-83l16 206h649q14 0 21 -1.5t12 -9.5t5 -24q0 -14 -2 -19t-11 -14l-498 -545h187q28 0 47.5 1.5t50.5 6t53 15.5
t44.5 28.5t36.5 47t18 68.5h83zM546 -117q0 -34 -25 -58.5t-61 -24.5q-35 0 -60.5 24.5t-25.5 59.5q0 34 25 58.5t61 24.5q35 0 60.5 -24.5t25.5 -59.5z" />
    </font>
</defs>
</svg>
