<?xml version="1.0" standalone="no"?>
<!DOCTYPE svg PUBLIC "-//W3C//DTD SVG 1.1//EN" "http://www.w3.org/Graphics/SVG/1.1/DTD/svg11.dtd" >
<svg>
<metadata>
Created by FontForge 20120731 at Mon Jul 14 22:19:54 2014
 By tom,,,
Copyright 2003, 2009 B. Jackowski and J. M. Nowacki (on behalf of TeX users groups). This work is released under the GUST Font License --  see http://tug.org/fonts/licenses/GUST-FONT-LICENSE.txt for details.
</metadata>
<defs>
<font id="lmsansdemicond10-regular" horiz-adv-x="475" >
  <font-face 
    font-family="LM Sans Demi Cond 10"
    font-weight="600"
    font-stretch="normal"
    units-per-em="1000"
    panose-1="0 0 7 0 0 0 0 0 0 0"
    ascent="833"
    descent="-167"
    x-height="472"
    cap-height="694"
    bbox="-397 -264 1523 1143"
    underline-thickness="69"
    underline-position="-57"
    unicode-range="U+0020-FB04"
  />
<missing-glyph horiz-adv-x="280" 
 />
    <glyph glyph-name="I_J" unicode="IJ" horiz-adv-x="705" 
d="M202 44q0 -26 -9 -35t-35 -9h-33q-27 0 -36 9.5t-9 35.5v604q0 27 9.5 36t35.5 9h33q27 0 35.5 -9.5t8.5 -34.5v-606zM623 147q0 -78 -45 -122t-120 -44q-71 0 -141 34q-20 11 -21 16q-1 2 -1 5q0 20 12 68q3 12 12 12q5 0 13 -10q39 -46 98 -46q74 0 74 93v497
q0 26 9 35t35 9h31q27 0 35.5 -9.5t8.5 -34.5v-503z" />
    <glyph glyph-name="i_j" unicode="ij" horiz-adv-x="443" 
d="M171 608q0 -28 -9.5 -37.5t-35.5 -9.5h-33q-27 0 -36 10t-9 37v24q0 29 9.5 38t35.5 9h33q27 0 36 -9.5t9 -37.5v-24zM388 608q0 -28 -9.5 -37.5t-35.5 -9.5h-33q-27 0 -36 10t-9 37v24q0 29 9.5 38t35.5 9h33q27 0 36 -9.5t9 -37.5v-24zM163 44q0 -26 -9 -35t-35 -9h-19
q-27 0 -36 9.5t-9 35.5v382q0 27 9.5 36t35.5 9h19q27 0 35.5 -9.5t8.5 -34.5v-384zM387 -25q0 -75 -34.5 -113.5t-93.5 -38.5q-38 0 -81 14t-43 27q0 2 7 30q4 22 14 22q3 0 14 -6q21 -14 52 -14q20 0 32.5 5.5t17.5 17t6 19.5t1 21v469q0 26 9 35t35 9h20q27 0 35.5 -9.5
t8.5 -34.5v-453z" />
    <glyph glyph-name="f_k" unicode="fk" horiz-adv-x="735" 
d="M280 440q0 -32 -44 -32h-50v-364q0 -26 -9 -35t-35 -9h-19q-27 0 -36 9.5t-9 35.5v363q-17 0 -25.5 1t-18 8.5t-9.5 22.5t9.5 22.5t18.5 8.5t25 1v80q0 78 38 115t98 37q23 0 44 -6q16 -4 19 -8t3 -22v-28q0 -25 -11 -25q-5 0 -10 5q-17 20 -43 20q-33 0 -33 -62v-106h53
q44 0 44 -32zM704 21q0 -21 -34 -21h-28q-31 0 -41 15l-123 198l-42 -44v-125q0 -26 -9 -35t-35 -9h-6q-27 0 -36 9.5t-9 35.5v604q0 27 9.5 36t35.5 9h9q27 0 35.5 -9.5t8.5 -34.5v-345l134 147q9 10 17.5 14.5t14.5 5t19 0.5h33q33 0 33 -19q0 -7 -12 -20l-136 -148
l155 -248q7 -10 7 -16z" />
    <glyph glyph-name="f_f" unicode="ff" horiz-adv-x="554" 
d="M330 640q0 -25 -11 -25q-5 0 -13 6q-27 19 -61 19q-22 0 -35.5 -6t-19 -18.5t-6.5 -20.5t-1 -21v-102h45q44 0 44 -32t-44 -32h-42v-364q0 -26 -9 -35t-35 -9h-19q-27 0 -36 9.5t-9 35.5v363q-17 0 -25.5 1t-18 8.5t-9.5 22.5t9.5 22.5t18.5 8.5t25 1v77q0 72 41.5 113.5
t125.5 41.5q30 0 56 -5q21 -5 25 -9t4 -22v-28zM593 640q0 -25 -11 -25q-5 0 -13 6q-27 19 -61 19q-22 0 -35.5 -6t-19 -18.5t-6.5 -20.5t-1 -21v-102h45q44 0 44 -32t-44 -32h-42v-364q0 -26 -9 -35t-35 -9h-20q-27 0 -35.5 9.5t-8.5 34.5v505q0 72 41.5 113.5t125.5 41.5
q30 0 56 -5q21 -5 25 -9t4 -22v-28z" />
    <glyph glyph-name="f_i" unicode="fi" horiz-adv-x="506" 
d="M450 628q0 -26 -9 -35t-35 -9h-23q-27 0 -35.5 9.5t-8.5 34.5v23q0 26 9 35t35 9h23q27 0 35.5 -9.5t8.5 -34.5v-23zM449 44q0 -26 -9 -35t-35 -9h-20q-27 0 -35.5 9.5t-8.5 34.5v384q0 26 9 35t35 9h20q27 0 35.5 -9.5t8.5 -34.5v-384zM280 440q0 -32 -44 -32h-50v-364
q0 -26 -9 -35t-35 -9h-19q-27 0 -36 9.5t-9 35.5v363q-17 0 -25.5 1t-18 8.5t-9.5 22.5t9.5 22.5t18.5 8.5t25 1v80q0 78 38 115t98 37q23 0 44 -6q16 -4 19 -8t3 -22v-31q0 -25 -11 -25q-5 0 -13 8q-16 20 -40 20q-33 0 -33 -62v-106h53q44 0 44 -32z" />
    <glyph glyph-name="f_l" unicode="fl" horiz-adv-x="506" 
d="M280 440q0 -32 -44 -32h-50v-364q0 -26 -9 -35t-35 -9h-19q-27 0 -36 9.5t-9 35.5v363q-17 0 -25.5 1t-18 8.5t-9.5 22.5t9.5 22.5t18.5 8.5t25 1v80q0 78 38 115t98 37q23 0 44 -6q16 -4 19 -8t3 -22v-28q0 -25 -11 -25q-5 0 -10 5q-17 20 -43 20q-33 0 -33 -62v-106h53
q44 0 44 -32zM449 44q0 -26 -9 -35t-35 -9h-20q-27 0 -35.5 9.5t-8.5 34.5v606q0 26 9 35t35 9h20q27 0 35.5 -9.5t8.5 -34.5v-606z" />
    <glyph glyph-name="f_f_i" unicode="&#xfb00;i" horiz-adv-x="769" 
d="M713 628q0 -26 -9 -35t-35 -9h-23q-27 0 -35.5 9.5t-8.5 34.5v23q0 26 9 35t35 9h23q27 0 35.5 -9.5t8.5 -34.5v-23zM712 44q0 -26 -9 -35t-35 -9h-20q-27 0 -35.5 9.5t-8.5 34.5v384q0 26 9 35t35 9h20q27 0 35.5 -9.5t8.5 -34.5v-384zM543 440q0 -32 -44 -32h-50v-364
q0 -26 -9 -35t-35 -9h-19q-27 0 -36 9.5t-9 35.5v507q0 75 37.5 113.5t99.5 38.5q23 0 45 -6q14 -4 17 -8t3 -20v-32q0 -25 -11 -25q-5 0 -12 8q-16 19 -41 19q-33 0 -33 -62v-106h53q44 0 44 -32zM303 640q0 -25 -11 -25q-4 0 -11 5q-22 20 -52 20q-46 0 -46 -64v-104h53
q44 0 44 -32t-44 -32h-50v-364q0 -26 -9 -35t-35 -9h-19q-27 0 -36 9.5t-9 35.5v363q-17 0 -25.5 1t-18 8.5t-9.5 22.5t9.5 22.5t18.5 8.5t25 1v78q0 74 39.5 114t111.5 40q24 0 49 -5q18 -4 21.5 -8.5t3.5 -22.5v-28z" />
    <glyph glyph-name="f_f_l" unicode="ffl" horiz-adv-x="769" 
d="M303 640q0 -25 -11 -25q-4 0 -11 5q-22 20 -52 20q-46 0 -46 -64v-104h53q44 0 44 -32t-44 -32h-50v-364q0 -26 -9 -35t-35 -9h-19q-27 0 -36 9.5t-9 35.5v363q-17 0 -25.5 1t-18 8.5t-9.5 22.5t9.5 22.5t18.5 8.5t25 1v78q0 74 39.5 114t111.5 40q24 0 49 -5
q18 -4 21.5 -8.5t3.5 -22.5v-28zM712 44q0 -26 -9 -35t-35 -9h-20q-27 0 -35.5 9.5t-8.5 34.5v606q0 26 9 35t35 9h20q27 0 35.5 -9.5t8.5 -34.5v-606zM543 440q0 -32 -44 -32h-50v-364q0 -26 -9 -35t-35 -9h-19q-27 0 -36 9.5t-9 35.5v507q0 78 38 115t98 37q23 0 44 -6
q16 -4 19 -8t3 -22v-28q0 -25 -11 -25q-5 0 -10 5q-17 20 -43 20q-33 0 -33 -62v-106h53q44 0 44 -32z" />
    <glyph glyph-name=".notdef" horiz-adv-x="280" 
 />
    <glyph glyph-name=".null" horiz-adv-x="0" 
 />
    <glyph glyph-name="nonmarkingreturn" horiz-adv-x="333" 
 />
    <glyph glyph-name="space" unicode=" " horiz-adv-x="317" 
 />
    <glyph glyph-name="exclam" unicode="!" horiz-adv-x="306" 
d="M206 671l-5 -242l-5 -236q-2 -10 -26 -10h-34q-20 0 -24 7q-6 10 -6 191l-6 290q0 17 4 20t22 3h55q18 0 21.5 -3t3.5 -20zM206 44q0 -26 -9 -35t-35 -9h-17q-27 0 -36 9.5t-9 35.5v17q0 26 9 35t35 9h18q27 0 35.5 -9.5t8.5 -34.5v-18z" />
    <glyph glyph-name="quotedbl" unicode="&#x22;" horiz-adv-x="488" 
d="M188 465q0 -15 -11 -26t-26 -11h-38q-15 0 -26 11t-11 26v211q0 16 11 26.5t26 10.5h38q15 0 26 -10.5t11 -26.5v-211zM412 465q0 -15 -11 -26t-26 -11h-38q-15 0 -26 11t-11 26v211q0 16 11 26.5t26 10.5h38q15 0 26 -10.5t11 -26.5v-211z" />
    <glyph glyph-name="numbersign" unicode="#" horiz-adv-x="792" 
d="M738 150q0 -35 -51 -35h-192l-64 -253q-8 -29 -35 -29q-15 0 -25 10.5t-10 24.5q0 3 4 20l58 227h-131l-64 -253q-8 -29 -35 -29q-15 0 -25 10.5t-10 24.5q0 3 4 20l58 227h-116q-51 0 -51 35t45 35h140l40 158h-180q-45 0 -45 35t51 35h193l62 247q8 34 36 34
q15 0 25 -10.5t10 -24.5q0 -6 -4 -20l-57 -226h131l62 247q8 34 36 34q15 0 25 -10.5t10 -24.5q0 -6 -4 -20l-57 -226h115q51 0 51 -35t-45 -35h-139l-40 -158h179q45 0 45 -35zM481 343h-130l-40 -158h130z" />
    <glyph glyph-name="dollar" unicode="$" 
d="M421 202q0 -185 -152 -210q0 -48 -32 -48t-32 48q-56 6 -101 30q-62 37 -62 50q0 3 5 29t6 30q0 12 11 12q5 0 14 -8q58 -47 127 -57v228q-66 14 -109 68.5t-43 131.5t35.5 130.5t116.5 65.5q0 48 32 48t32 -47q45 -5 84 -25q52 -26 52 -43q0 -3 -5 -29t-6 -30
q0 -12 -11 -12q-5 0 -14 8q-47 37 -100 44v-201q70 -15 111 -74.5t41 -138.5zM205 434v179q-53 -16 -53 -89q0 -66 53 -90zM322 183q0 77 -53 104v-205q53 19 53 101z" />
    <glyph glyph-name="percent" unicode="%" horiz-adv-x="879" 
d="M360 548q0 -13 -1 -25t-4.5 -39t-13.5 -48t-25.5 -42.5t-43.5 -34t-64 -12.5q-49 0 -83 22t-48 57.5t-19 64t-5 58.5q0 93 38 145q42 56 117 56q36 0 64 -12.5t43.5 -34.5t25.5 -42.5t13.5 -47.5t4.5 -39t1 -26zM708 715q0 -11 -10 -26l-457 -723q-13 -22 -33 -22
q-14 0 -24.5 10.5t-10.5 24.5q0 11 10 26l457 723q15 22 33 22q15 0 25 -10.5t10 -24.5zM825 145q0 -13 -1 -25t-4.5 -39t-13.5 -48t-25.5 -42.5t-43.5 -34t-64 -12.5q-49 0 -83 22t-48 57.5t-19 64t-5 58.5q0 93 38 145q42 56 117 56q36 0 64 -12.5t43.5 -34.5t25.5 -42.5
t13.5 -47.5t4.5 -39t1 -26zM265 549q0 43 -6 72t-15.5 42t-18 18t-17.5 5q-19 0 -31 -13t-16.5 -38t-5.5 -42t-1 -45t1 -44.5t5.5 -41.5t16.5 -38t31 -13q57 0 57 138zM730 146q0 43 -6 72t-15.5 42t-18 18t-17.5 5q-19 0 -31 -13t-16.5 -38t-5.5 -42t-1 -45t1 -44.5
t5.5 -41.5t16.5 -38t31 -13q57 0 57 138z" />
    <glyph glyph-name="ampersand" unicode="&#x26;" horiz-adv-x="717" 
d="M663 25q0 -18 -5.5 -23t-34.5 -12q-33 -9 -69 -9q-83 0 -156 56q-92 -56 -185 -56q-74 0 -123.5 48t-49.5 115q0 72 52 118l86 75q-41 97 -41 195q0 81 47.5 131t111.5 50q63 0 102.5 -48t39.5 -108q0 -46 -37.5 -95t-115.5 -118q40 -79 126 -185q90 93 133 263
q4 17 6.5 21.5t9.5 4.5q2 0 15 -3.5t28 -7.5t18 -5q11 -6 11 -13q0 -4 -6 -26.5t-21.5 -66t-35.5 -83.5q-37 -75 -97 -143q42 -33 85 -33q39 0 83 14q8 4 12 4q11 0 11 -26v-34zM343 557q0 31 -11 61.5t-36 30.5q-26 0 -44.5 -27.5t-18.5 -70.5q0 -60 25 -144q43 41 64 75
t21 75zM333 98q-71 79 -127 178q-18 -15 -28 -25.5t-18.5 -32t-8.5 -50.5q0 -9 1.5 -20.5t6.5 -32.5t20 -34.5t37 -13.5q60 0 117 31z" />
    <glyph glyph-name="quotesingle" unicode="'" horiz-adv-x="264" 
d="M188 465q0 -15 -11 -26t-26 -11h-38q-15 0 -26 11t-11 26v211q0 16 11 26.5t26 10.5h38q15 0 26 -10.5t11 -26.5v-211z" />
    <glyph glyph-name="parenleft" unicode="(" horiz-adv-x="369" 
d="M314 -211q0 -8 -5 -9.5t-19 -1.5h-14q-18 0 -20 2q-13 10 -26 22t-44.5 55.5t-54 93t-41 134t-18.5 179.5q0 256 117 412q15 20 31 37.5t26 26t13 9.5t17 1h14q14 0 19 -1.5t5 -9.5q0 -5 -10 -17q-60 -78 -90.5 -186.5t-30.5 -271.5q0 -100 11.5 -180t32.5 -134.5
t39 -85.5t42 -62q6 -8 6 -13z" />
    <glyph glyph-name="parenright" unicode=")" horiz-adv-x="369" 
d="M296 264q0 -256 -117 -412q-15 -20 -31 -37.5t-26 -26t-13 -9.5t-17 -1h-13q-25 0 -25 11q0 5 10 17q59 78 90 185t31 273q0 100 -11.5 180.5t-33 134.5t-38.5 84.5t-42 62.5q-6 8 -6 13q0 11 25 11h13q18 0 20 -2q13 -10 26 -22t44.5 -55.5t54 -93t41 -134t18.5 -179.5z
" />
    <glyph glyph-name="asterisk" unicode="*" 
d="M417 422q0 -17 -13.5 -31.5t-30.5 -14.5q-14 0 -28 14l-92 92q26 -152 26 -167q0 -18 -13.5 -27.5t-28.5 -9.5t-28.5 9.5t-13.5 27.5q0 6 3 23l23 144l-93 -92q-14 -14 -27 -14q-18 0 -31 14t-13 32q0 22 25 35l128 57l-128 57q-25 13 -25 35q0 17 13.5 31.5t30.5 14.5
q14 0 28 -14l92 -92l-23 144q-3 17 -3 23q0 18 13.5 27.5t28.5 9.5t28.5 -9.5t13.5 -27.5q0 -6 -3 -23l-23 -144l93 92q14 14 27 14q18 0 31 -14t13 -32q0 -22 -25 -35l-128 -57l128 -57q25 -13 25 -35z" />
    <glyph glyph-name="plus" unicode="+" horiz-adv-x="739" 
d="M685 264q0 -35 -47 -35h-234v-235q0 -47 -35 -47t-35 47v235h-234q-47 0 -47 35t47 35h234v235q0 47 35 47t35 -47v-235h234q47 0 47 -35z" />
    <glyph glyph-name="comma" unicode="," horiz-adv-x="264" 
d="M185 26q0 -18 -8 -35q-32 -68 -42 -86q-5 -11 -9 -13.5t-20 -2.5q-11 0 -15.5 0.5t-8 3t-3.5 8.5q0 8 28 99q-20 0 -24 3.5t-4 22.5v54q0 19 3.5 22.5t21.5 3.5h56q18 0 21.5 -3.5t3.5 -22.5v-54z" />
    <glyph glyph-name="hyphen" unicode="-" horiz-adv-x="317" 
d="M263 236q0 -32 -44 -32h-164q-44 0 -44 32t44 32h164q44 0 44 -32z" />
    <glyph glyph-name="period" unicode="." horiz-adv-x="264" 
d="M185 26q0 -19 -3.5 -22.5t-21.5 -3.5h-55q-19 0 -22.5 3.5t-3.5 22.5v54q0 19 3.5 22.5t21.5 3.5h56q18 0 21.5 -3.5t3.5 -22.5v-54z" />
    <glyph glyph-name="slash" unicode="/" 
d="M421 715q0 -5 -5 -19l-293 -889q-8 -29 -35 -29q-15 0 -25 10.5t-10 24.5q0 5 5 19l293 889q8 29 35 29q15 0 25 -10.5t10 -24.5z" />
    <glyph glyph-name="zero" unicode="0" 
d="M437 343q0 -38 -0.5 -60t-4.5 -65t-11 -70t-21.5 -62t-35 -55.5t-53.5 -35t-74 -14.5t-74 14.5t-53.5 35t-35 55.5t-21.5 62t-11 70t-4.5 65t-0.5 60t0.5 60.5t4.5 66t11 71.5t21.5 64t35 57t53.5 36t74 15t74 -15t53.5 -36t35 -57t21.5 -64t11 -71.5t4.5 -66t0.5 -60.5z
M326 357v57.5t-1 52.5t-3.5 50.5t-6.5 42.5t-10.5 38t-16 26.5t-22.5 19t-29 5.5q-67 0 -83 -114q-6 -53 -6 -178v-60t1 -55.5t3.5 -54.5t6.5 -45.5t10.5 -40.5t16 -29t22.5 -21t29 -6t29 6t22.5 21t16 29t10.5 40.5t6.5 45.5t3.5 54.5t1 55.5v60z" />
    <glyph glyph-name="one" unicode="1" 
d="M408 32q0 -32 -44 -32h-240q-45 0 -45 32t45 32h67v531q-43 -15 -83 -15q-41 0 -41 32q0 11 8 21t27 11q88 4 128 52q14 17 35 17q18 0 27 -8t10 -15.5t1 -20.5v-605h61q44 0 44 -32z" />
    <glyph glyph-name="two" unicode="2" 
d="M427 44q0 -26 -9 -35t-35 -9h-291q-27 0 -36 9.5t-9 35.5q0 20 9 30l171 215q85 107 85 199q0 13 -2.5 29.5t-11 44.5t-31.5 46t-57 18q-48 0 -72 -33t-37 -88q-3 -12 -5.5 -15.5t-8.5 -3.5t-15 12q-32 47 -32 52q0 4 5 19.5t19 43t32 47.5q49 52 128 52
q94 0 148.5 -65.5t54.5 -157.5q0 -48 -21 -92t-51 -79.5t-105 -116.5l-97 -110q7 1 20 1h122l62 1q45 0 57.5 -6.5t12.5 -37.5v-6z" />
    <glyph glyph-name="three" unicode="3" 
d="M434 200q0 -109 -57 -164t-149 -55q-35 0 -67 10t-53 24t-37 30t-23.5 27.5t-7.5 16.5q0 2 6 38q2 17 4.5 22t9.5 5q5 0 15 -14q23 -33 56.5 -52t54 -23t38.5 -4q30 0 50 14.5t27 41t9 43.5t2 42q0 73 -21.5 107t-73.5 34h-34q-18 0 -21.5 3.5t-3.5 22.5v12q0 20 6 24
q4 2 28 4q21 2 31.5 4t23.5 11t23 26q23 37 23 98q0 18 -2 31t-8 28t-20.5 23t-37.5 8q-11 0 -23 -2.5t-31 -10t-37 -26t-30 -46.5q-5 -12 -12 -12t-22.5 25.5t-15.5 29.5t6 16.5t20 29.5t33 33t50 27t66 11q85 0 132 -44.5t47 -120.5q0 -59 -29 -102.5t-71 -69.5
q126 -38 126 -176z" />
    <glyph glyph-name="four" unicode="4" 
d="M448 206q0 -14 -3.5 -23t-11.5 -12t-13.5 -4t-15.5 -1h-36v-122q0 -26 -9 -35t-35 -9h-17q-27 0 -35.5 9.5t-8.5 34.5v122h-193q-27 0 -35.5 9.5t-8.5 34.5v18q0 19 7 33l197 409q8 16 15.5 20t26.5 4h52q26 0 35 -9t9 -35v-403h36q14 0 21.5 -1.5t15 -11t7.5 -28.5z
M269 247v357q-1 -16 -31 -87q-20 -50 -46.5 -107.5t-50.5 -107t-27 -55.5h155z" />
    <glyph glyph-name="five" unicode="5" 
d="M427 220q0 -115 -57 -178q-57 -61 -159 -61q-35 0 -66 11t-50.5 26.5t-34 32.5t-21 29t-6.5 16q25 63 38 63q9 0 11 -9q13 -31 33 -51t41.5 -27t32 -9t19.5 -2q23 0 40.5 7t27.5 21t16.5 27.5t9 36t3 35t0.5 35.5q0 34 -1 53.5t-6.5 49t-19 44t-35.5 14.5q-53 0 -90 -60
q-7 -13 -15 -16.5t-24 -3.5q-20 0 -30 7.5t-11.5 15.5t-1.5 23v298q0 27 9 36.5t36 9.5h235q25 0 34.5 -8.5t9.5 -34.5t-9.5 -34.5t-34.5 -8.5h-175v-175q32 15 69 15q45 0 81.5 -18t56.5 -46q44 -61 44 -164z" />
    <glyph glyph-name="six" unicode="6" 
d="M434 233q0 -63 -9.5 -103.5t-41.5 -82.5q-50 -66 -143 -66q-200 0 -200 358q0 174 56 266q35 55 86.5 81.5t106.5 26.5q32 0 56 -10q22 -9 26.5 -14.5t4.5 -22.5v-24q0 -26 -11 -26q-4 0 -16 7q-24 15 -57 15q-30 0 -53.5 -11.5t-38 -34t-23.5 -44.5t-13.5 -55.5
t-6 -52.5t-2.5 -49q33 83 111 83q87 0 134 -79q34 -58 34 -162zM319 233q0 42 -1.5 64t-8 53t-23 45.5t-43.5 14.5q-86 0 -86 -159q0 -190 82 -190q23 0 39 11t24 25.5t12 41.5t4.5 44.5t0.5 49.5z" />
    <glyph glyph-name="seven" unicode="7" 
d="M434 651q0 -21 -9 -33q-179 -273 -182 -596q0 -32 -44 -32h-29q-20 0 -30 6.5t-12 14.5t-2 25q0 306 201 566q-7 -1 -23 -1h-129l-63 -1q-48 0 -60 6.5t-12 37.5v7q0 32 12.5 38t64.5 6h36l233 -1q15 0 21.5 -1t14 -5t10 -13t2.5 -24z" />
    <glyph glyph-name="eight" unicode="8" 
d="M434 199q0 -105 -52 -161.5t-145 -56.5q-92 0 -144.5 56t-52.5 162q0 138 116 176q-103 34 -103 149q0 88 47 138.5t137 50.5q89 0 136.5 -50t47.5 -139q0 -116 -103 -149q116 -38 116 -176zM318 523q0 26 -1.5 40t-8.5 34.5t-24.5 30.5t-46.5 10q-23 0 -39.5 -8
t-24.5 -17.5t-12 -28t-4.5 -29.5t-0.5 -32q0 -25 1.5 -39t8.5 -35t24.5 -31.5t46.5 -10.5t46.5 10.5t24.5 31.5t8.5 35t1.5 39zM320 201q0 30 -1.5 47.5t-8.5 43t-25.5 38.5t-47.5 13t-47.5 -13t-25.5 -38.5t-8.5 -43t-1.5 -47.5q0 -24 0.5 -38t5 -36t12.5 -34.5t24.5 -22
t40.5 -9.5t40.5 9.5t24.5 22t12.5 34.5t5 36t0.5 38z" />
    <glyph glyph-name="nine" unicode="9" 
d="M434 357q0 -52 -2.5 -88.5t-17 -92.5t-41.5 -99q-28 -43 -74.5 -69.5t-101.5 -26.5q-39 0 -70.5 14t-44 27.5t-12.5 18.5q28 61 39 61q6 0 12 -6q29 -35 75 -35q33 0 61 22t42 65q7 22 11 46.5t5 41.5t4 67q-37 -83 -111 -83q-88 0 -136 84q-32 55 -32 158q0 39 2 62
t13.5 57.5t34.5 63.5q54 68 149 68q195 0 195 -356zM318 441q0 197 -78 197q-21 0 -36 -7t-24 -22t-14.5 -29t-7.5 -38.5t-2.5 -39t-0.5 -41.5q0 -41 1.5 -63.5t8 -53.5t23 -45.5t43.5 -14.5q30 0 50 20.5t26.5 53t8.5 49.5t2 34z" />
    <glyph glyph-name="colon" unicode=":" horiz-adv-x="264" 
d="M185 392q0 -19 -3.5 -22.5t-21.5 -3.5h-56q-18 0 -21.5 3.5t-3.5 22.5v54q0 19 3.5 22.5t22.5 3.5h55q18 0 21.5 -3.5t3.5 -22.5v-54zM185 26q0 -19 -3.5 -22.5t-21.5 -3.5h-55q-19 0 -22.5 3.5t-3.5 22.5v54q0 19 3.5 22.5t21.5 3.5h56q18 0 21.5 -3.5t3.5 -22.5v-54z
" />
    <glyph glyph-name="semicolon" unicode=";" horiz-adv-x="264" 
d="M185 392q0 -19 -3.5 -22.5t-21.5 -3.5h-56q-18 0 -21.5 3.5t-3.5 22.5v54q0 19 3.5 22.5t22.5 3.5h55q18 0 21.5 -3.5t3.5 -22.5v-54zM185 26q0 -18 -8 -35q-32 -68 -42 -86q-5 -11 -9 -13.5t-20 -2.5q-11 0 -15.5 0.5t-8 3t-3.5 8.5q0 8 28 99q-20 0 -24 3.5t-4 22.5v54
q0 19 3.5 22.5t21.5 3.5h56q18 0 21.5 -3.5t3.5 -22.5v-54z" />
    <glyph glyph-name="less" unicode="&#x3c;" horiz-adv-x="778" 
d="M694 -20q0 -8 -6 -14t-14 -6q-5 0 -18 7l-554 261q-19 9 -19 22t19 22l554 261q13 7 18 7q8 0 14 -6t6 -14q0 -12 -19 -22l-525 -248l525 -248q19 -10 19 -22z" />
    <glyph glyph-name="equal" unicode="=" horiz-adv-x="739" 
d="M685 378q0 -35 -45 -35h-542q-45 0 -45 35t51 35h530q51 0 51 -35zM685 150q0 -35 -51 -35h-530q-51 0 -51 35t45 35h542q45 0 45 -35z" />
    <glyph glyph-name="greater" unicode="&#x3e;" horiz-adv-x="778" 
d="M694 250q0 -13 -19 -22l-554 -261q-13 -7 -18 -7q-8 0 -14 6t-6 14q0 12 19 22l525 248l-525 248q-19 10 -19 22q0 8 6 14t14 6q5 0 18 -7l554 -261q19 -9 19 -22z" />
    <glyph glyph-name="question" unicode="?" horiz-adv-x="449" 
d="M395 552q0 -75 -46 -114q-95 -79 -95 -194v-34q0 -20 -3.5 -23.5t-22.5 -3.5h-34q-18 0 -21.5 3.5t-3.5 20.5v43q0 115 91 227q10 13 13.5 19t7 21.5t3.5 39.5q0 44 -13.5 63.5t-58.5 19.5q-69 0 -115 -53q-7 -10 -13 -10q-5 0 -8 4t-11 25q-11 33 -11 36q0 7 19 21
t58.5 27.5t83.5 13.5q180 0 180 -152zM264 44q0 -26 -9 -35t-35 -9h-17q-27 0 -36 9.5t-9 35.5v17q0 26 9 35t35 9h18q27 0 35.5 -9.5t8.5 -34.5v-18z" />
    <glyph glyph-name="at" unicode="@" horiz-adv-x="633" 
d="M580 367q0 -38 -1.5 -59t-10 -54.5t-26.5 -60.5q-47 -73 -146 -73q-92 0 -142 69q-41 57 -41 158q0 20 1 37.5t11 55.5t27.5 64.5t55 48t89.5 21.5q33 0 60 -9q-9 33 -33.5 54t-57.5 21q-112 0 -171 -98q-41 -68 -41 -195q0 -18 0.5 -32t4.5 -46.5t11.5 -57.5t24 -56
t38.5 -51.5t57.5 -35t79.5 -14.5q78 0 142 44h43q14 0 19 -1.5t5 -9.5q0 -4 -9 -14.5t-28 -24.5t-43 -27t-59.5 -22t-72.5 -9q-78 0 -144 29.5t-105 86.5q-65 92 -65 241q0 159 71 250q84 107 242 107q42 0 75.5 -11.5t55.5 -29.5t38 -46.5t24.5 -55t13.5 -64t6 -65t1 -65.5
zM479 347q0 42 -6 75.5t-25.5 60.5t-51.5 27q-8 0 -15 -1.5t-20 -10.5t-22.5 -24.5t-17 -48.5t-7.5 -78q0 -42 6 -75.5t25.5 -60.5t51.5 -27q8 0 15 1.5t20 10.5t22.5 24.5t17 48.5t7.5 78z" />
    <glyph glyph-name="A" unicode="A" horiz-adv-x="636" 
d="M600 25q0 -25 -38 -25h-34q-31 0 -41.5 11.5t-23.5 52.5l-33 107h-242l-42 -131q-4 -14 -8 -21t-16 -13t-33 -6h-16q-38 0 -38 25l4 16l193 616q12 37 57 37h57q14 0 22 -1t18.5 -10t16.5 -27l193 -617zM407 246l-56 185q-37 123 -42 157h-1q-5 -34 -39 -149l-58 -193
h196z" />
    <glyph glyph-name="B" unicode="B" horiz-adv-x="635" 
d="M581 192q0 -80 -54.5 -136t-175.5 -56h-225q-27 0 -36 9.5t-9 35.5v604q0 27 9.5 36t35.5 9h200q118 0 173.5 -51t55.5 -127q0 -59 -36.5 -98.5t-100.5 -54.5q87 -15 125 -62t38 -109zM444 514q0 36 -18.5 60t-49 32.5t-46.5 10.5t-34 2h-99v-226h99q77 0 112.5 34
t35.5 87zM467 194q0 38 -15 65.5t-33.5 40.5t-45.5 20t-40 8t-28 1h-108v-254h124q70 0 108 30.5t38 88.5z" />
    <glyph glyph-name="C" unicode="C" horiz-adv-x="607" 
d="M558 58q0 -7 -5 -10q-50 -35 -87 -46q-38 -12 -98 -12q-150 0 -233 94q-82 92 -82 263t82 263q83 94 233 94q49 0 88 -8q36 -7 84 -27q7 -3 7 -13l-14 -79q-2 -10 -11 -10q-4 0 -7 3q-38 27 -69 37q-34 11 -78 11q-91 0 -142 -69t-51 -202q0 -132 51 -202q51 -69 142 -69
q54 0 89 11q34 11 77 43l7 2q9 0 11 -10z" />
    <glyph glyph-name="D" unicode="D" horiz-adv-x="688" 
d="M633 342q0 -168 -79 -257q-73 -85 -209 -85h-219q-27 0 -36 9.5t-9 35.5v604q0 27 9.5 36t35.5 9h218q69 0 128.5 -27t96.5 -80q64 -92 64 -245zM514 342q0 25 -0.5 41t-4.5 48.5t-11 54t-22 49t-36 44.5t-54 28.5t-75 11.5h-111v-544h112q42 0 75 11t53.5 27t35.5 42.5
t22 47.5t11 52t4.5 46.5t0.5 40.5z" />
    <glyph glyph-name="E" unicode="E" horiz-adv-x="567" 
d="M526 44q0 -26 -9 -35t-35 -9h-356q-27 0 -36 9.5t-9 35.5v601q0 27 9.5 36t35.5 9h343q28 0 36 -10.5t8 -34.5q0 -22 -7 -32t-15.5 -11.5t-29.5 -1.5l-212 3h-46v-205h240q14 0 21.5 -1.5t15 -11t7.5 -28.5q0 -14 -3.5 -23t-11.5 -12t-13.5 -4t-15.5 -1h-240v-226
q18 2 132 2l141 2q19 0 27.5 -1.5t15.5 -11.5t7 -31v-8z" />
    <glyph glyph-name="F" unicode="F" horiz-adv-x="540" 
d="M499 646q0 -22 -7 -32t-15.5 -11.5t-28.5 -1.5l-205 3h-40v-218h213q14 0 21.5 -1.5t15 -11t7.5 -28.5q0 -14 -3.5 -23t-11.5 -12t-13.5 -4t-15.5 -1h-213v-261q0 -26 -9 -35t-35 -9h-33q-27 0 -36 9.5t-9 35.5v601q0 27 9.5 36t35.5 9h329q28 0 36 -10.5t8 -34.5z" />
    <glyph glyph-name="G" unicode="G" horiz-adv-x="633" 
d="M568 50q0 -7 -6 -10q-89 -50 -194 -50q-150 0 -233 94q-82 92 -82 263t82 263q83 94 233 94q54 0 97 -11q39 -11 90 -39q5 -3 5 -12l-14 -79q-2 -10 -11 -10q-1 0 -7 3q-37 33 -74 48q-38 14 -86 14q-91 0 -142 -69t-51 -202q0 -132 51 -202q51 -69 142 -69q43 0 89 11
v171h-78q-11 0 -11 11v59q0 11 11 11h178q11 0 11 -11v-278z" />
    <glyph glyph-name="H" unicode="H" horiz-adv-x="678" 
d="M596 44q0 -26 -9 -35t-35 -9h-34q-27 0 -35.5 9.5t-8.5 34.5v276h-271v-276q0 -26 -9 -35t-35 -9h-33q-27 0 -36 9.5t-9 35.5v604q0 27 9.5 36t35.5 9h33q27 0 35.5 -9.5t8.5 -34.5v-249h271v249q0 26 9 35t35 9h34q27 0 35.5 -9.5t8.5 -34.5v-606z" />
    <glyph glyph-name="I" unicode="I" horiz-adv-x="283" 
d="M202 44q0 -26 -9 -35t-35 -9h-33q-27 0 -36 9.5t-9 35.5v604q0 27 9.5 36t35.5 9h33q27 0 35.5 -9.5t8.5 -34.5v-606z" />
    <glyph glyph-name="J" unicode="J" horiz-adv-x="450" 
d="M368 147q0 -78 -45 -122t-120 -44q-71 0 -141 34q-20 11 -21 16q-1 2 -1 5q0 20 12 68q3 12 12 12q6 0 13 -10q39 -46 98 -46q74 0 74 93v497q0 26 9 35t35 9h31q27 0 35.5 -9.5t8.5 -34.5v-503z" />
    <glyph glyph-name="K" unicode="K" horiz-adv-x="663" 
d="M605 27q0 -13 -5 -19t-10.5 -7t-18.5 -1h-39q-20 0 -28 3.5t-18 19.5l-197 306l-97 -106v-179q0 -26 -9 -35t-35 -9h-22q-27 0 -36 9.5t-9 35.5v604q0 27 9.5 36t35.5 9h22q27 0 35.5 -9.5t8.5 -34.5v-289l286 312q19 21 52 21h37q33 0 33 -19q0 -7 -12 -20l-227 -248z
" />
    <glyph glyph-name="L" unicode="L" horiz-adv-x="514" 
d="M473 45q0 -25 -8 -35t-36 -10h-303q-27 0 -36 9.5t-9 35.5v604q0 27 9.5 36t35.5 9h33q27 0 35.5 -9.5t8.5 -34.5v-563l228 4q20 0 29.5 -7.5t11 -15.5t1.5 -23z" />
    <glyph glyph-name="M" unicode="M" horiz-adv-x="836" 
d="M754 44q0 -26 -9 -35t-35 -9h-16q-27 0 -35.5 9.5t-8.5 34.5v540q-1 -12 -35.5 -122t-39.5 -123l-96 -278q-9 -26 -21 -34t-42 -8q-12 0 -19 0.5t-16.5 4t-16 12t-11.5 22.5l-90 264l-42 132q-32 108 -35 130h-1v-540q0 -26 -9 -35t-35 -9h-15q-27 0 -36 9.5t-9 35.5v604
q0 27 9.5 36t35.5 9h62q14 0 22 -1.5t19.5 -10.5t17.5 -27l90 -263l44 -136q31 -99 35 -130h1q3 21 33 122l40 123l97 281q5 15 9 22t16.5 13.5t33.5 6.5h64q27 0 35.5 -9.5t8.5 -34.5v-606z" />
    <glyph glyph-name="N" unicode="N" horiz-adv-x="678" 
d="M596 44q0 -26 -9 -35t-35 -9h-73q-27 0 -40 8t-23 32l-189 442q-31 75 -41 106h-1v-544q0 -26 -9 -35t-35 -9h-15q-27 0 -36 9.5t-9 35.5v604q0 27 9.5 36t35.5 9h72q27 0 40 -8t23 -32l189 -442q31 -75 41 -106h1v544q0 26 9 35t35 9h16q27 0 35.5 -9.5t8.5 -34.5v-606z
" />
    <glyph glyph-name="O" unicode="O" horiz-adv-x="697" 
d="M643 342q0 -177 -79 -270q-77 -91 -216 -91q-138 0 -213 87q-82 95 -82 274q0 163 66 261q36 53 96.5 81.5t132.5 28.5q160 0 238 -125q57 -91 57 -246zM521 358q0 132 -34 198q-45 87 -139 87q-91 0 -136 -82q-37 -65 -37 -203q0 -130 30 -201q25 -59 65 -81.5t78 -22.5
t78 22.5t65 80.5q30 71 30 202z" />
    <glyph glyph-name="P" unicode="P" horiz-adv-x="608" 
d="M554 484q0 -57 -19.5 -99.5t-51.5 -64.5t-67.5 -32t-74.5 -10h-138v-234q0 -26 -9 -35t-35 -9h-33q-27 0 -36 9.5t-9 35.5v604q0 27 9.5 36t35.5 9h206q109 0 165.5 -56.5t56.5 -153.5zM440 483q0 30 -4 50.5t-17 42t-42.5 32.5t-74.5 11h-102v-272h102q46 0 75.5 11.5
t42 33.5t16.5 42t4 49z" />
    <glyph glyph-name="Q" unicode="Q" horiz-adv-x="697" 
d="M643 342q0 -110 -30 -186q-33 -85 -93 -124l64 -94q14 -22 14 -28q0 -21 -33 -21h-60q-23 0 -29.5 5t-24.5 32l-36 61q-33 -6 -67 -6q-138 0 -213 87q-82 95 -82 274q0 163 66 261q36 53 96.5 81.5t132.5 28.5q160 0 238 -125q57 -91 57 -246zM524 343q0 134 -35 209
q-21 43 -59 67t-82 24q-41 0 -76.5 -20.5t-56.5 -56.5q-43 -74 -43 -223q0 -128 31 -194q45 -98 145 -98q24 0 24 4l-26 44l-24 39q-17 27 -17 35q0 21 34 21h46q16 0 21 -1.5t11 -10.5l50 -75q57 66 57 236z" />
    <glyph glyph-name="R" unicode="R" horiz-adv-x="614" 
d="M573 22q0 -22 -35 -22h-42q-21 0 -28 4t-15 20l-148 291h-105v-271q0 -26 -9 -35t-35 -9h-30q-27 0 -36 9.5t-9 35.5v604q0 27 9.5 36t35.5 9h199q116 0 175.5 -53.5t59.5 -140.5q0 -135 -143 -176l150 -287q6 -12 6 -15zM446 499q0 57 -27.5 88.5t-107.5 31.5h-111v-240
h110q81 0 108.5 32t27.5 88z" />
    <glyph glyph-name="S" unicode="S" horiz-adv-x="528" 
d="M474 195q0 -96 -53 -155t-158 -59q-102 0 -192 55q-21 13 -25 16.5t-4 10.5q0 18 13 74q3 14 12 14q5 0 16 -10q79 -67 179 -67q60 0 83.5 32.5t23.5 77.5q0 40 -20.5 67.5t-46.5 38.5q-3 1 -14.5 4t-27 7.5t-23.5 6.5q-49 12 -75 24.5t-58 45.5q-7 7 -16 19t-22 45.5
t-13 69.5q0 88 51.5 144.5t160.5 56.5q85 0 153 -40q17 -10 20.5 -13t3.5 -9q0 -18 -13 -74q-3 -14 -12 -14q-5 0 -12 7q-60 56 -139 56q-50 0 -79 -24t-29 -75q0 -39 33 -75q12 -12 27.5 -17.5t63.5 -18.5q35 -9 52 -14.5t42 -20.5t44 -38q54 -64 54 -148z" />
    <glyph glyph-name="T" unicode="T" horiz-adv-x="644" 
d="M609 643q0 -28 -9.5 -36.5t-36.5 -8.5l-180 3v-557q0 -26 -9 -35t-35 -9h-33q-27 0 -36 9.5t-9 35.5v556l-180 -3q-28 0 -37.5 8.5t-9.5 36.5q0 27 9.5 36t35.5 9h486q28 0 36 -10.5t8 -34.5z" />
    <glyph glyph-name="U" unicode="U" horiz-adv-x="657" 
d="M575 228q0 -109 -62 -178t-183 -69t-185 68.5t-64 178.5v421q0 27 9.5 36t35.5 9h33q27 0 35.5 -9.5t8.5 -34.5v-423q0 -171 128 -171q133 0 133 172v422q0 26 9 35t35 9h23q27 0 35.5 -9.5t8.5 -34.5v-422z" />
    <glyph glyph-name="V" unicode="V" horiz-adv-x="636" 
d="M612 669q0 -5 -5 -19l-201 -611q-6 -18 -17.5 -27t-19.5 -10.5t-21 -1.5h-61q-14 0 -22 1.5t-19 10.5t-17 28l-201 610q-5 14 -5 19q0 25 37 25h34q14 0 22 -1.5t19 -10.5t17 -27l115 -352q9 -25 31 -103q22 -69 26 -94h1q10 56 70 235l103 313q8 26 20.5 33t37.5 7h19
q37 0 37 -25z" />
    <glyph glyph-name="W" unicode="W" horiz-adv-x="900" 
d="M879 668q0 -4 -3 -14l-148 -615q-4 -18 -14.5 -27t-18 -10.5t-21.5 -1.5h-48q-11 0 -17 1t-14.5 4t-14 12t-9.5 24l-77 324q-39 161 -47 222h-1q-4 -35 -22.5 -118t-23.5 -101l-77 -325q-4 -15 -9.5 -24.5t-14 -13t-14.5 -4.5t-17 -1h-43q-14 0 -21.5 1.5t-18 10.5
t-14.5 27l-148 615l-3 14q0 26 39 26h21q13 0 21 -1t18.5 -10t14.5 -27l83 -352q34 -146 38 -195h1q5 53 53 257l68 288q4 19 14.5 28t18.5 10.5t22 1.5h43q13 0 21 -1.5t18.5 -10.5t14.5 -27l79 -333q38 -163 45 -215h1q7 57 46 220l78 329q4 18 14.5 27t19 10t24.5 1
q43 0 43 -26z" />
    <glyph glyph-name="X" unicode="X" horiz-adv-x="636" 
d="M603 27q0 -13 -4.5 -19t-10 -7t-18.5 -1h-56q-20 0 -27.5 3.5t-17.5 18.5l-158 252l-153 -252q-6 -11 -13 -15.5t-13 -5.5t-19 -1h-48q-11 0 -16.5 0.5t-11.5 5.5t-6 15q0 7 8 19l213 327l-198 287q-9 13 -9 20q0 20 34 20h56q20 0 27.5 -3.5t16.5 -17.5l132 -202
l128 205q11 18 43 18h49q34 0 34 -21q0 -4 -8 -17l-187 -289z" />
    <glyph glyph-name="Y" unicode="Y" horiz-adv-x="636" 
d="M616 673q0 -5 -9 -20l-230 -376v-234q0 -27 -10 -35t-34 -8h-31q-26 0 -35 9t-9 35v234l-233 379q-6 9 -6 16q0 21 35 21h41q48 0 70 -36l113 -189q36 -61 48 -89q6 20 48 92.5t80 133.5t41 65q20 23 61 23h25q35 0 35 -21z" />
    <glyph glyph-name="Z" unicode="Z" horiz-adv-x="581" 
d="M533 45q0 -25 -8 -35t-36 -10h-392q-27 0 -35.5 10t-8.5 35q0 21 9 35l324 533h-36l-230 -3q-22 0 -31 1.5t-16 11t-7 29.5q0 19 7.5 29t15 11.5t22.5 1.5h372q24 0 34 -8.5t10 -34.5q0 -19 -9 -33l-323 -531l288 4q29 0 39.5 -7.5t10.5 -38.5z" />
    <glyph glyph-name="bracketleft" unicode="[" horiz-adv-x="293" 
d="M271 -190q0 -32 -44 -32h-105q-27 0 -35.5 9.5t-8.5 34.5v884q0 26 9 35t35 9h105q44 0 44 -32t-44 -32h-44v-844h44q44 0 44 -32z" />
    <glyph glyph-name="backslash" unicode="\" horiz-adv-x="500" 
d="M443 -230q0 -8 -6 -14t-14 -6q-14 0 -22 22l-340 940l-5 18q0 8 6 14t14 6q14 0 22 -22l340 -940z" />
    <glyph glyph-name="bracketright" unicode="]" horiz-adv-x="293" 
d="M214 -178q0 -26 -9 -35t-35 -9h-105q-44 0 -44 32t44 32h44v844h-44q-44 0 -44 32t44 32h105q27 0 35.5 -9.5t8.5 -34.5v-884z" />
    <glyph glyph-name="asciicircum" unicode="^" horiz-adv-x="556" 
d="M561 584l-12 -22l-272 123l-271 -123l-11 22l283 160z" />
    <glyph glyph-name="underscore" unicode="_" horiz-adv-x="636" 
d="M636 -181h-636v112h636v-112z" />
    <glyph glyph-name="grave" unicode="`" 
d="M304 557q0 -11 -25 -11h-31l-135 122q-10 9 -10 15q0 8 5 9.5t19 1.5h61q14 0 18 -1.5t10 -9.5l80 -111z" />
    <glyph glyph-name="a" unicode="a" horiz-adv-x="453" 
d="M408 44q0 -26 -9 -35t-35 -9h-20q-27 0 -35.5 9.5t-8.5 34.5v25q-16 -29 -50.5 -54t-82.5 -25q-57 0 -94 43t-37 99q0 35 14.5 62.5t41.5 44t52 27.5t59 16t49 6.5t34 2.5q8 1 9.5 3.5t1.5 15.5v20q0 34 -6.5 56t-19.5 30t-21 10t-20 2q-74 0 -125 -50q-11 -10 -16 -10
q-7 0 -9 5.5t-4 23.5q-3 24 -3 36q0 8 4 11.5t20 11.5q64 31 137 31q88 0 131 -41.5t43 -114.5v-287zM297 155v101q-18 -1 -35 -4t-40.5 -11t-40 -20.5t-28.5 -35t-12 -51.5q0 -33 19 -56.5t48 -23.5q10 0 22 3.5t28.5 12.5t27.5 31t11 54z" />
    <glyph glyph-name="b" unicode="b" horiz-adv-x="483" 
d="M450 237q0 -109 -40 -169q-52 -78 -148 -78q-59 0 -95 45q0 -16 -8.5 -24.5t-15.5 -9.5t-20 -1h-22q-27 0 -36 9.5t-9 35.5v604q0 27 9.5 36t35.5 9h19q27 0 35.5 -9.5t8.5 -34.5v-223q46 55 117 55q51 0 86.5 -24t52 -64t23.5 -78t7 -79zM339 238q0 22 -0.5 35t-3 38
t-8.5 40.5t-16 32.5t-26.5 25.5t-39.5 8.5q-27 0 -52 -15q-18 -13 -22 -20t-4 -22v-267q25 -40 68 -40q30 0 51 14t31 31.5t15.5 47.5t6 46.5t0.5 44.5z" />
    <glyph glyph-name="c" unicode="c" horiz-adv-x="422" 
d="M395 62q0 -9 -15 -22t-30 -21l-15 -8q-44 -21 -97 -21q-100 0 -153 64q-53 65 -53 183q0 120 53.5 185t156.5 65q45 0 71 -8t59 -27q16 -13 17 -18q0 -2 -7 -37q-3 -18 -5.5 -23t-8.5 -5q-5 0 -14 9q-27 21 -50 30t-61 9q-34 0 -55.5 -16.5t-30.5 -47t-11.5 -55.5
t-2.5 -60q0 -24 0.5 -39.5t5.5 -44.5t14.5 -47t29 -32.5t47.5 -14.5q69 0 126 57q7 9 13 9q7 0 9 -5t4 -23q3 -24 3 -36z" />
    <glyph glyph-name="d" unicode="d" horiz-adv-x="483" 
d="M426 44q0 -26 -9 -35t-35 -9h-23q-27 0 -35.5 9.5t-8.5 34.5q-4 -6 -14 -16.5t-36.5 -24t-56.5 -13.5q-92 0 -141 81q-35 59 -35 165q0 113 43 176q48 70 138 70q64 0 105 -49v217q0 26 9 35t35 9h20q27 0 35.5 -9.5t8.5 -34.5v-606zM315 101v283q-34 34 -68 34
q-30 0 -51 -14t-31 -31.5t-15.5 -47.5t-6 -46.5t-0.5 -43.5q0 -22 0.5 -35.5t3 -38.5t8.5 -40.5t16 -32.5t26.5 -25.5t39.5 -8.5q48 0 78 47z" />
    <glyph glyph-name="e" unicode="e" horiz-adv-x="438" 
d="M411 275q0 -26 -9.5 -34.5t-34.5 -8.5h-238q0 -13 0.5 -24t3.5 -35t11 -42t20 -37t33.5 -29.5t49.5 -10.5q77 0 129 62q8 9 13 9q7 0 8.5 -3t3.5 -17q1 -3 1 -4q3 -27 3 -36q0 -23 -63 -53q-49 -22 -99 -22q-31 0 -60 7t-58.5 25t-50.5 45t-34.5 71.5t-13.5 100.5
q0 70 19 121.5t51 77.5t65.5 37.5t69.5 11.5q87 0 133.5 -54.5t46.5 -157.5zM325 279q-1 22 -2 35.5t-6.5 36.5t-14.5 36.5t-27 24.5t-43 11q-48 0 -73.5 -41.5t-28.5 -102.5h195z" />
    <glyph glyph-name="f" unicode="f" horiz-adv-x="290" 
d="M329 640q0 -25 -11 -25q-5 0 -13 6q-26 19 -61 19q-17 0 -29.5 -5t-18.5 -11t-9 -16.5t-3.5 -17t-0.5 -16.5v-102h44q44 0 44 -32t-44 -32h-41v-364q0 -26 -9 -35t-35 -9h-19q-27 0 -36 9.5t-9 35.5v363q-17 0 -25.5 1t-18 8.5t-9.5 22.5t9.5 22.5t18.5 8.5t25 1v77
q0 73 42.5 114t123.5 41q30 0 56 -5q21 -5 25 -9t4 -22v-28z" />
    <glyph glyph-name="g" unicode="g" horiz-adv-x="483" 
d="M426 27q0 -92 -46 -153t-147 -61q-82 0 -151 33q-11 6 -13.5 10t-2.5 20v23q0 26 11 26q5 0 13 -7q66 -41 141 -41q84 0 84 123v93h-1q-28 -72 -100 -72q-90 0 -139 63q-43 56 -43 154q0 108 44 171q50 73 145 73q61 0 97 -58q0 35 6.5 46.5t37.5 11.5h20q27 0 35.5 -9.5
t8.5 -34.5v-411zM318 272v63q0 33 -20 58t-51 25t-52.5 -17t-32 -45.5t-15 -57t-4.5 -60.5q0 -19 2 -36.5t9.5 -48.5t28.5 -49.5t53 -18.5q78 0 79 163q0 14 3 24z" />
    <glyph glyph-name="h" unicode="h" horiz-adv-x="483" 
d="M428 44q0 -26 -9 -35t-35 -9h-23q-27 0 -35.5 9.5t-8.5 34.5v294q0 43 -11.5 61.5t-42.5 18.5q-39 0 -68.5 -35.5t-29.5 -99.5v-239q0 -26 -9 -35t-35 -9h-22q-27 0 -36 9.5t-9 35.5v604q0 27 9.5 36t35.5 9h19q27 0 35.5 -9.5t8.5 -34.5v-263h1q44 95 137 95
q72 0 100 -36.5t28 -103.5v-298z" />
    <glyph glyph-name="i" unicode="i" horiz-adv-x="219" 
d="M163 44q0 -26 -9 -35t-35 -9h-19q-27 0 -36 9.5t-9 35.5v382q0 27 9.5 36t35.5 9h19q27 0 35.5 -9.5t8.5 -34.5v-384zM171 608q0 -28 -9.5 -37.5t-35.5 -9.5h-33q-27 0 -36 10t-9 37v24q0 29 9.5 38t35.5 9h33q27 0 36 -9.5t9 -37.5v-24z" />
    <glyph glyph-name="j" unicode="j" horiz-adv-x="246" 
d="M190 -25q0 -75 -34.5 -113.5t-93.5 -38.5q-38 0 -81 14t-43 27q0 2 4 14t4 15q5 15 7.5 19t8.5 4q1 0 13 -6q24 -14 52 -14q25 0 38.5 12t15 22.5t1.5 27.5v470q0 26 9 35t35 9h20q27 0 35.5 -9.5t8.5 -34.5v-453zM190 608q0 -28 -9.5 -37.5t-35.5 -9.5h-33q-27 0 -36 10
t-9 37v24q0 29 9.5 38t35.5 9h33q27 0 36 -9.5t9 -37.5v-24z" />
    <glyph glyph-name="k" unicode="k" horiz-adv-x="457" 
d="M424 21q0 -21 -34 -21h-28q-31 0 -41 15l-123 198l-42 -44v-125q0 -26 -9 -35t-35 -9h-6q-27 0 -36 9.5t-9 35.5v604q0 27 9.5 36t35.5 9h9q27 0 35.5 -9.5t8.5 -34.5v-345l134 147q9 10 17.5 14.5t14.5 5t19 0.5h33q33 0 33 -19q0 -7 -12 -20l-136 -148l155 -248
q7 -10 7 -16z" />
    <glyph glyph-name="l" unicode="l" horiz-adv-x="219" 
d="M163 44q0 -26 -9 -35t-35 -9h-19q-27 0 -36 9.5t-9 35.5v604q0 27 9.5 36t35.5 9h19q27 0 35.5 -9.5t8.5 -34.5v-606z" />
    <glyph glyph-name="m" unicode="m" horiz-adv-x="747" 
d="M693 44q0 -26 -9 -35t-35 -9h-22q-27 0 -36 9.5t-9 35.5v293q0 43 -11.5 61.5t-42.5 18.5q-40 0 -69.5 -35.5t-29.5 -99.5v-239q0 -26 -9 -35t-35 -9h-22q-27 0 -36 9.5t-9 35.5v293q0 43 -11.5 61.5t-42.5 18.5q-40 0 -69.5 -35.5t-29.5 -99.5v-239q0 -26 -9 -35t-35 -9
h-22q-27 0 -36 9.5t-9 35.5v388q0 27 9.5 36t35.5 9h16q27 0 35.5 -9.5t8.5 -34.5v-53l1 -1q43 102 140 102q112 0 126 -97q46 97 138 97q71 0 100 -35.5t29 -104.5v-298z" />
    <glyph glyph-name="n" unicode="n" horiz-adv-x="483" 
d="M428 44q0 -26 -9 -35t-35 -9h-23q-27 0 -35.5 9.5t-8.5 34.5v294q0 43 -11.5 61.5t-42.5 18.5q-39 0 -68.5 -35.5t-29.5 -99.5v-239q0 -26 -9 -35t-35 -9h-22q-27 0 -36 9.5t-9 35.5v388q0 27 9.5 36t35.5 9h16q27 0 35.5 -9.5t8.5 -34.5v-54h1q46 102 140 102
q72 0 100 -36.5t28 -103.5v-298z" />
    <glyph glyph-name="o" unicode="o" 
d="M448 232q0 -118 -56 -180q-55 -62 -155 -62q-104 0 -158 64q-53 65 -53 178q0 116 51 183q53 72 160 72q104 0 159 -70q52 -65 52 -185zM337 244q0 23 -0.5 36.5t-3 38.5t-9 40t-17 31.5t-28.5 24.5t-42 8q-29 0 -49 -13t-29.5 -29.5t-15 -45.5t-6 -45.5t-0.5 -45.5
t0.5 -46t6 -46.5t15 -47t29.5 -31t49 -13.5t49 13.5t29.5 31t15 47t6 46.5t0.5 46z" />
    <glyph glyph-name="p" unicode="p" horiz-adv-x="483" 
d="M450 238q0 -107 -41 -172q-24 -36 -63 -56t-83 -20q-54 0 -96 45v-158q0 -26 -9 -35t-35 -9h-22q-27 0 -36 9.5t-9 35.5v549q0 27 9.5 36t35.5 9h19q21 0 31 -7t11.5 -15t1.5 -26q53 58 124 58q48 0 81.5 -23t50 -62t23.5 -77.5t7 -81.5zM339 236q0 22 -2 42t-9.5 55.5
t-29 57t-54.5 21.5q-45 0 -77 -37v-282q26 -39 68 -39q36 0 59.5 22.5t32 60t10.5 57.5t2 42z" />
    <glyph glyph-name="q" unicode="q" horiz-adv-x="483" 
d="M426 -123q0 -26 -9 -35t-35 -9h-23q-27 0 -35.5 9.5t-8.5 34.5v166q-41 -53 -104 -53q-53 0 -90.5 23.5t-55.5 63t-25.5 78t-7.5 80.5q0 102 37 165q49 82 148 82q65 0 101 -62v18q0 26 9 35t35 9h20q27 0 35.5 -9.5t8.5 -34.5v-561zM318 109v221q0 32 -20 57t-52 25
q-36 0 -59 -22t-31.5 -58.5t-10.5 -56t-2 -41.5q0 -50 8 -88t30 -65t57 -27q52 0 80 55z" />
    <glyph glyph-name="r" unicode="r" horiz-adv-x="321" 
d="M307 427q0 -18 -2.5 -21.5t-15.5 -4.5q-54 -5 -89.5 -46.5t-35.5 -108.5v-202q0 -26 -9 -35t-35 -9h-19q-27 0 -36 9.5t-9 35.5v388q0 27 9.5 36t35.5 9h14q27 0 35.5 -9.5t8.5 -34.5v-66h1q20 58 56.5 86t74.5 28q11 0 13.5 -4.5t2.5 -21.5v-29z" />
    <glyph glyph-name="s" unicode="s" horiz-adv-x="364" 
d="M342 140q0 -150 -154 -150q-50 0 -97 17q-65 24 -65 43q0 3 5 29t6 30q0 12 11 12q6 0 16 -10q52 -52 122 -52t70 65q0 20 -6.5 33.5t-21 21.5t-24.5 11t-30 8q-142 29 -142 148q0 141 155 141q66 0 118 -27q15 -7 18 -10t3 -9q0 -16 -7 -37q-3 -18 -5.5 -22.5t-8.5 -4.5
q-5 0 -11 5q-49 43 -113 43q-63 0 -63 -59q0 -18 5.5 -30.5t19.5 -20t24 -10.5t32 -8q25 -5 38.5 -9t32.5 -15.5t35 -29.5q37 -43 37 -103z" />
    <glyph glyph-name="t" unicode="t" horiz-adv-x="346" 
d="M318 50q0 -8 -20 -21.5t-57 -26t-74 -12.5q-88 0 -88 131v287h-17q-44 0 -44 32t45 32h19v90q0 27 9.5 36t35.5 9h13q27 0 35.5 -9.5t8.5 -34.5v-91h74q44 0 44 -32t-44 -32h-74v-269q0 -79 34 -79q39 0 63 28q8 12 15 12q6 0 8.5 -4t6.5 -17q0 -1 3.5 -14t3.5 -15z" />
    <glyph glyph-name="u" unicode="u" horiz-adv-x="483" 
d="M428 44q0 -26 -9 -35t-35 -9h-20q-27 0 -35.5 9.5t-8.5 34.5v31q-38 -85 -120 -85q-75 0 -110.5 32t-35.5 107v298q0 27 9.5 36t35.5 9h22q27 0 35.5 -9.5t8.5 -34.5v-306q0 -47 11 -63t49 -16q46 0 69 41t23 97v247q0 26 9 35t35 9h23q27 0 35.5 -9.5t8.5 -34.5v-384z
" />
    <glyph glyph-name="v" unicode="v" horiz-adv-x="431" 
d="M409 447q0 -3 -3 -15l-111 -393q-5 -18 -15.5 -27t-18.5 -10.5t-22 -1.5h-48q-14 0 -22 1.5t-18.5 10.5t-15.5 27l-114 408q3 17 12 21t26 4h12q27 0 37.5 -9t17.5 -31l90 -321l90 320q8 26 20.5 33.5t35.5 7.5h9q38 0 38 -25z" />
    <glyph glyph-name="w" unicode="w" horiz-adv-x="642" 
d="M621 446q0 -1 -3 -16l-93 -391q-4 -18 -14.5 -27t-18.5 -10.5t-21 -1.5h-48q-38 0 -50 24q-2 5 -17 68t-31.5 144t-19.5 118q0 -33 -16.5 -115.5t-32.5 -147t-18 -68.5q-12 -23 -49 -23h-19q-13 0 -21 1.5t-18.5 10.5t-14.5 27l-92 389l-4 18q0 26 39 26h11
q21 0 32.5 -6.5t14.5 -13.5t7 -23l58 -246q9 -38 13 -68h1q3 21 19 92l52 220q4 16 7 23.5t14 14.5t30 7q41 0 50 -39l76 -320l76 320q4 18 14.5 27t18.5 10.5t25 1.5q43 0 43 -26z" />
    <glyph glyph-name="x" unicode="x" horiz-adv-x="431" 
d="M411 20q0 -20 -34 -20h-24q-20 0 -28 4t-17 18l-96 156l-91 -155q-6 -11 -13 -16t-13 -6t-19 -1h-24q-33 0 -33 20q0 9 8 20l142 204l-136 189q-8 12 -8 19q0 20 33 20h24q22 0 29 -4t16 -17l85 -125l81 124q10 14 17.5 18t27.5 4h24q33 0 33 -21q0 -7 -8 -18l-132 -189
l148 -206q8 -11 8 -18z" />
    <glyph glyph-name="y" unicode="y" horiz-adv-x="431" 
d="M408 447q0 -4 -5 -19l-143 -479q-17 -55 -57 -90.5t-96 -35.5q-54 0 -67 10q-3 3 -6 28.5t-3 35.5q0 14 12 14q2 -1 7 -3q30 -14 58 -14q41 0 60 34q5 8 14.5 36t9.5 35q0 3 -4 15l-159 416l-5 18q0 24 37 24h12q33 0 44 -12t29 -61q80 -211 83 -281q5 61 41 185l37 129
q7 27 20 33.5t39 6.5q14 0 21 -1t14 -6.5t7 -17.5z" />
    <glyph glyph-name="z" unicode="z" horiz-adv-x="411" 
d="M381 33q0 -33 -44 -33h-267q-13 0 -20.5 1t-15.5 10t-8 27q0 15 10 30l224 339h-38l-130 -2q-16 0 -25 1t-18 9t-9 23q0 34 45 34h250q13 0 20.5 -1t15.5 -10t8 -27q0 -15 -10 -30l-224 -339h46l137 2q17 0 26 -1t18 -9t9 -24z" />
    <glyph glyph-name="braceleft" unicode="{" horiz-adv-x="500" 
d="M427 -239q0 -11 -20 -11q-85 0 -139 38q-35 25 -43.5 51t-8.5 78v198q0 35 -13.5 60.5t-35 38t-40.5 18.5t-39 7q-5 1 -7 1t-4.5 1t-3.5 3t-1 6q0 11 14 11q63 4 104 45q19 20 22.5 42t3.5 96v183q1 53 57.5 88t133.5 35q20 0 20 -11q0 -9 -9 -11q-32 -2 -56 -10.5
t-33 -15.5t-22 -20q-17 -18 -20.5 -39t-3.5 -80v-180q0 -99 -118 -133q101 -29 116 -103q2 -10 2 -91v-150q0 -37 3 -48q8 -32 39.5 -57.5t85.5 -28.5q5 -1 7 -1t4.5 -1t3.5 -3t1 -6z" />
    <glyph glyph-name="bar" unicode="|" horiz-adv-x="278" 
d="M159 -217q0 -33 -20 -33t-20 33v934q0 33 20 33t20 -33v-934z" />
    <glyph glyph-name="braceright" unicode="}" horiz-adv-x="500" 
d="M427 250q0 -11 -14 -11q-63 -4 -104 -45q-19 -20 -22.5 -42t-3.5 -96v-183q-1 -53 -57.5 -88t-133.5 -35q-20 0 -20 11q0 9 9 11q32 2 56 10.5t33 15.5t22 20q17 18 20.5 39t3.5 80v180q0 99 118 133q-101 29 -116 103q-2 10 -2 91v150q0 37 -3 48q-8 32 -39.5 57.5
t-85.5 28.5q-5 1 -7 1t-4.5 1t-3.5 3t-1 6q0 11 20 11q83 0 139 -38q35 -25 43.5 -51t8.5 -78v-198q0 -35 13.5 -60.5t35 -38t40.5 -18.5t39 -7q5 -1 7 -1t4.5 -1t3.5 -3t1 -6z" />
    <glyph glyph-name="asciitilde" unicode="~" horiz-adv-x="556" 
d="M555 304l-54 -44q-20 -17 -57 -35q-40 -18 -73 -18q-42 0 -100 34q-65 37 -104 37q-68 0 -153 -71l-14 17l54 44q20 17 57 35q40 18 73 18q42 0 100 -34q65 -37 104 -37q68 0 153 71z" />
    <glyph glyph-name="uni00A0" unicode="&#xa0;" 
 />
    <glyph glyph-name="exclamdown" unicode="&#xa1;" horiz-adv-x="306" 
d="M206 466q0 -26 -9 -35t-35 -9h-18q-27 0 -35.5 9.5t-8.5 34.5v17q0 27 9.5 36t35.5 9h17q27 0 35.5 -9.5t8.5 -34.5v-18zM206 -144q0 -17 -3.5 -20t-21.5 -3h-55q-18 0 -22 3t-4 20l5 243l5 235q1 11 26 11h34q20 0 24 -6q1 -3 2.5 -45.5t2.5 -91.5t1 -55z" />
    <glyph glyph-name="cent" unicode="&#xa2;" horiz-adv-x="422" 
d="M395 62q0 -9 -15 -22t-30 -21l-15 -8q-26 -12 -60 -18v-58q0 -8 -6 -14.5t-15 -6.5h-43q-9 0 -15.5 6.5t-6.5 14.5v60q-66 14 -104 59q-53 65 -53 183q0 103 40 166t117 79v55q0 9 6.5 15t15.5 6h43q9 0 15 -6t6 -15v-51q49 -5 97 -34q16 -13 17 -18q0 -2 -7 -37
q-3 -18 -5.5 -23t-8.5 -5q-5 0 -14 9q-41 31 -79 37v-351q47 9 91 53q7 9 13 9q7 0 9 -5t4 -23q3 -24 3 -36zM189 76v325q-46 -35 -46 -163q0 -126 46 -162z" />
    <glyph glyph-name="sterling" unicode="&#xa3;" horiz-adv-x="636" 
d="M572 157q0 -72 -43 -124t-108 -52q-38 0 -96 15q-41 10 -65.5 15t-55 5t-40.5 -13q-17 -22 -44 -22q-23 0 -39.5 16.5t-16.5 39.5q0 20 11 34q69 88 90 197q3 12 7 36h-76q-13 0 -22.5 9.5t-9.5 22.5v22q0 14 9 23t23 9h80v84q2 89 47 154.5t119 65.5q75 0 121 -66
t46 -157q0 -23 -16.5 -39.5t-39.5 -16.5t-39.5 16.5t-16.5 39.5q0 111 -55 111q-52 0 -54 -111v-81h62q13 0 22.5 -9.5t9.5 -22.5v-22q0 -13 -9.5 -22.5t-22.5 -9.5h-66q-3 -28 -9 -59q-12 -60 -38 -119q46 -4 116 -22q40 -11 68 -11q19 0 29 19t10 45q0 23 16.5 39.5
t39.5 16.5t39.5 -16.5t16.5 -39.5z" />
    <glyph glyph-name="currency" unicode="&#xa4;" horiz-adv-x="739" 
d="M593 40q-23 -23 -58 8l-39 39q-55 -41 -127 -41q-68 0 -127 41l-38 -38q-35 -32 -58 -8q-24 23 8 58l39 38q-41 57 -41 127t41 127l-40 39q-31 35 -8 58t58 -8l39 -39q59 41 127 41q72 0 127 -41l38 38q35 32 58 8q24 -23 -8 -58l-38 -37q41 -57 41 -128t-41 -128l39 -38
q31 -35 8 -58zM517 264q0 62 -43.5 105t-104.5 43t-104 -43.5t-43 -104.5t43 -104.5t104 -43.5t104.5 43t43.5 105z" />
    <glyph glyph-name="yen" unicode="&#xa5;" horiz-adv-x="636" 
d="M616 673q0 -5 -9 -20l-165 -270h56q13 0 22.5 -9.5t9.5 -22.5v-22q0 -13 -9 -22.5t-23 -9.5h-109l-12 -20v-35h121q14 0 23 -9t9 -23v-22q0 -14 -9 -23t-23 -9h-121v-113q0 -27 -10 -35t-34 -8h-31q-26 0 -35 9t-9 35v112h-120q-14 0 -23 9t-9 23v22q0 14 9 23t23 9h120
v36l-12 19h-108q-14 0 -23 9.5t-9 22.5v22q0 13 9.5 22.5t22.5 9.5h55l-168 274q-6 9 -6 16q0 21 35 21h41q48 0 70 -36l113 -189q33 -55 47 -86h2q8 23 50 94.5t78.5 130.5t39.5 63q20 23 61 23h25q35 0 35 -21z" />
    <glyph glyph-name="brokenbar" unicode="&#xa6;" horiz-adv-x="278" 
d="M159 343q0 -43 -20 -43t-20 43v374q0 33 20 33t20 -33v-374zM159 -217q0 -33 -20 -33t-20 33v374q0 43 20 43t20 -43v-374z" />
    <glyph glyph-name="section" unicode="&#xa7;" horiz-adv-x="491" 
d="M458 212q0 -81 -46 -154q33 -45 33 -91q0 -74 -59 -124t-140 -50t-140 50t-59 124h112q0 -32 25.5 -53t61.5 -21t61.5 21t25.5 53q0 14 -14 29.5t-26.5 24t-36.5 22.5l-89 51q-59 35 -96 85t-37 109q0 81 46 154q-33 43 -33 91q0 74 59 124t140 50t140 -50t59 -124h-112
q0 32 -25.5 53t-61.5 21t-61.5 -21t-25.5 -53q0 -14 14 -29.5t26.5 -24t36.5 -22.5l89 -51q59 -35 96 -85t37 -109zM346 212q0 52 -77 97l-89 51l-19 12q-15 -37 -15 -84q0 -52 77 -97l89 -51l19 -12q15 35 15 84z" />
    <glyph glyph-name="dieresis" unicode="&#xa8;" 
d="M192 609q0 -25 -8.5 -33.5t-32.5 -8.5h-30q-24 0 -32 9t-8 33v22q0 26 8.5 34t31.5 8h30q24 0 32.5 -8.5t8.5 -33.5v-22zM395 609q0 -25 -8.5 -33.5t-32.5 -8.5h-30q-24 0 -32 9t-8 33v22q0 26 8.5 34t31.5 8h30q24 0 32.5 -8.5t8.5 -33.5v-22z" />
    <glyph glyph-name="copyright" unicode="&#xa9;" horiz-adv-x="694" 
d="M694 347q0 -144 -101.5 -245.5t-245.5 -101.5t-245.5 101.5t-101.5 245.5t101.5 245.5t245.5 101.5t245.5 -101.5t101.5 -245.5zM630 347q0 118 -82.5 200.5t-200.5 82.5q-117 0 -200 -82.5t-83 -200.5q0 -117 83 -200t200 -83q118 0 200.5 83t82.5 200zM482 166
q0 -4 -14 -14q-43 -28 -100 -28q-91 0 -144 57q-51 56 -51 166q0 102 44 158q52 66 150 66q45 0 93 -17l8 -4t4 -2.5t2.5 -3t0.5 -3.5q0 -13 -8 -45q-3 -8 -7 -8q-3 0 -9 4q-38 26 -83 26q-34 0 -59 -15.5t-36.5 -35t-17.5 -48t-7 -42.5t-1 -30q0 -28 4 -53t15.5 -54.5
t38 -46.5t64.5 -17q52 0 92 29q7 5 10 5q5 0 7 -7q4 -16 4 -37z" />
    <glyph glyph-name="ordfeminine" unicode="&#xaa;" horiz-adv-x="356" 
d="M334 403q0 -18 -7.5 -24t-29.5 -6h-16q-23 0 -30 6.5t-7 23.5v18q-14 -20 -43 -37.5t-69 -17.5q-48 0 -79 30t-31 69q0 25 12.5 44.5t34.5 30.5t44 19t49.5 11t41 4.5t28.5 1.5q6 1 7.5 3t1.5 11v14q0 24 -5.5 39t-16 20.5t-17.5 7t-17 1.5q-63 0 -105 -35q-10 -7 -14 -7
q-6 0 -7.5 3.5t-3.5 16.5q0 3 -1 13.5t-1 12.5q0 4 2 6t5.5 4t12.5 6q53 21 115 21q74 0 110 -29t36 -80v-201zM291 305q0 -12 -12.5 -21t-30.5 -9h-140q-18 0 -30.5 9t-12.5 21q0 13 12.5 22t30.5 9h140q18 0 30.5 -9t12.5 -22zM241 481v71q-20 -1 -38.5 -4.5t-41.5 -12
t-37 -26.5t-14 -43q0 -22 16 -39t40 -17q12 0 26.5 3.5t31.5 21t17 46.5z" />
    <glyph glyph-name="guillemotleft" unicode="&#xab;" 
d="M232 13q2 -13 -11 -13h-42q-8 0 -10 7l-94 253q-1 4 0 8l94 253q2 7 10 7h42q13 0 11 -13l-46 -251zM422 13q2 -13 -11 -13h-42q-8 0 -10 7l-94 253q-1 4 0 8l94 253q2 7 10 7h42q13 0 11 -13l-46 -251z" />
    <glyph glyph-name="logicalnot" unicode="&#xac;" horiz-adv-x="739" 
d="M685 150q0 -14 -10.5 -24.5t-24.5 -10.5t-24.5 10.5t-10.5 24.5v193h-527q-14 0 -24.5 10.5t-10.5 24.5t10.5 24.5t24.5 10.5h562q14 0 24.5 -10.5t10.5 -24.5v-228z" />
    <glyph glyph-name="uni00AD" unicode="&#xad;" horiz-adv-x="317" 
d="M263 236q0 -32 -44 -32h-164q-44 0 -44 32t44 32h164q44 0 44 -32z" />
    <glyph glyph-name="registered" unicode="&#xae;" horiz-adv-x="694" 
d="M694 347q0 -144 -101.5 -245.5t-245.5 -101.5t-245.5 101.5t-101.5 245.5t101.5 245.5t245.5 101.5t245.5 -101.5t101.5 -245.5zM630 347q0 118 -82.5 200.5t-200.5 82.5q-117 0 -200 -82.5t-83 -200.5q0 -117 83 -200t200 -83q118 0 200.5 83t82.5 200zM512 149
q0 -14 -21 -14h-26q-12 0 -16.5 2.5t-9.5 12.5l-90 178h-64v-166q0 -16 -5.5 -21.5t-21.5 -5.5h-19q-16 0 -21.5 6t-5.5 22v369q0 16 5.5 21.5t21.5 5.5h122q71 0 107 -32.5t36 -85.5q0 -83 -87 -108l92 -175q3 -6 3 -9zM435 440q0 35 -17 54t-66 19h-67v-146h67
q50 0 66.5 19.5t16.5 53.5z" />
    <glyph glyph-name="macron" unicode="&#xaf;" 
d="M409 610q0 -19 -3.5 -22.5t-21.5 -3.5h-291q-19 0 -22.5 3.5t-3.5 22.5v21q0 19 3.5 22.5t21.5 3.5h292q18 0 21.5 -3.5t3.5 -22.5v-21z" />
    <glyph glyph-name="degree" unicode="&#xb0;" horiz-adv-x="356" 
d="M310 563q0 -55 -38.5 -93.5t-93.5 -38.5t-93.5 38.5t-38.5 93.5q0 54 38.5 92.5t93.5 38.5t93.5 -38.5t38.5 -92.5zM240 563q0 25 -18 43t-44 18t-44 -18t-18 -43q0 -26 18 -44t44 -18t44 18t18 44z" />
    <glyph glyph-name="plusminus" unicode="&#xb1;" horiz-adv-x="739" 
d="M685 35q0 -35 -47 -35h-538q-47 0 -47 35t47 35h234v212h-234q-47 0 -47 35t47 35h234v235q0 47 35 47t35 -47v-235h234q47 0 47 -35t-47 -35h-234v-212h234q47 0 47 -35z" />
    <glyph glyph-name="two.superior" unicode="&#xb2;" horiz-adv-x="336" 
d="M307 312q0 -15 -6 -20.5t-25 -5.5h-210q-19 0 -25.5 5.5t-6.5 21.5q0 12 6 18l123 129q62 62 62 119q0 8 -2 18t-8 26.5t-22.5 27.5t-41.5 11q-58 0 -78 -73q-4 -11 -10 -11q-4 0 -11 7q-23 29 -23 31t3.5 11.5t13.5 26t23 28.5q34 31 92 31q68 0 107 -39t39 -94
q0 -41 -25 -73t-102 -100l-70 -66h15h87l45 1q23 0 31.5 -1t13.5 -6.5t5 -18.5v-4z" />
    <glyph glyph-name="three.superior" unicode="&#xb3;" horiz-adv-x="341" 
d="M312 406q0 -66 -41 -99t-107 -33q-40 0 -73.5 15t-47.5 29.5t-14 20.5q0 7 4 23q3 16 10 16q4 0 11 -8q40 -48 107 -48q64 0 64 85q0 44 -16 64t-53 20h-24q-14 0 -16 2t-2 14v7q0 13 4 15q1 0 2 0.5t5.5 1t12.5 0.5q16 1 23 2.5t16.5 7t16.5 15.5q17 21 17 58
q0 11 -1.5 19t-6 17t-15 13.5t-26.5 4.5q-60 0 -87 -51q-3 -7 -9 -7q-5 0 -16 15t-11 18t4.5 10t14.5 17.5t23.5 20t36 16t47.5 6.5q61 0 95 -26.5t34 -72.5q0 -65 -72 -103q90 -23 90 -105z" />
    <glyph glyph-name="acute" unicode="&#xb4;" 
d="M372 683q0 -6 -10 -15l-135 -122h-31q-25 0 -25 11q0 4 8 15l80 111q6 8 10 9.5t18 1.5h61q14 0 19 -1.5t5 -9.5z" />
    <glyph glyph-name="uni00B5" unicode="&#xb5;" horiz-adv-x="483" 
d="M428 44q0 -26 -9 -35t-35 -9h-20q-27 0 -35.5 9.5t-8.5 34.5v31q-38 -85 -120 -85q-17 0 -35 10v-123q0 -26 -9 -35t-35 -9h-22q-27 0 -36 9.5t-9 35.5v549q0 27 9.5 36t35.5 9h22q27 0 35.5 -9.5t8.5 -34.5v-306q0 -47 11 -63t49 -16q46 0 69 41t23 97v247q0 26 9 35
t35 9h23q27 0 35.5 -9.5t8.5 -34.5v-384z" />
    <glyph glyph-name="paragraph" unicode="&#xb6;" horiz-adv-x="703" 
d="M670 663q0 -30 -45 -30h-51v-783q0 -44 -31 -44q-30 0 -30 44v783h-80v-783q0 -44 -31 -44q-30 0 -30 44v370q-138 8 -223 72.5t-85 164.5q0 102 85 169.5t202 67.5h274q45 0 45 -31z" />
    <glyph glyph-name="periodcentered" unicode="&#xb7;" horiz-adv-x="739" 
d="M422 320q0 -19 -3.5 -22.5t-21.5 -3.5h-55q-19 0 -22.5 3.5t-3.5 22.5v54q0 19 3.5 22.5t21.5 3.5h56q18 0 21.5 -3.5t3.5 -22.5v-54z" />
    <glyph glyph-name="cedilla" unicode="&#xb8;" horiz-adv-x="422" 
d="M268 -32q0 -6 -4 -14l-46 -104q-5 -11 -9 -13t-20 -2h-36q-25 0 -25 11q0 4 6 14l68 106q6 9 10 11t18 2h13q25 0 25 -11z" />
    <glyph glyph-name="one.superior" unicode="&#xb9;" horiz-adv-x="342" 
d="M294 305q0 -19 -32 -19h-173q-32 0 -32 19t32 19h49v319q-28 -9 -60 -9q-30 0 -30 19q0 6 6 12t19 7q65 4 93 31q9 10 25 10q12 0 18.5 -5t7.5 -9t1 -12v-363h44q32 0 32 -19z" />
    <glyph glyph-name="ordmasculine" unicode="&#xba;" horiz-adv-x="398" 
d="M376 535q0 -83 -47 -126q-45 -43 -130 -43q-89 0 -133 44q-44 46 -44 125q0 81 43 128q43 50 134 50q89 0 134 -49q43 -45 43 -129zM333 305q0 -12 -12.5 -21t-30.5 -9h-182q-18 0 -30.5 9t-12.5 21q0 13 12.5 22t30.5 9h182q18 0 30.5 -9t12.5 -22zM283 543
q0 20 -0.5 32t-5 32t-12.5 31.5t-25 21t-41 9.5t-41 -9.5t-25 -21t-12.5 -31.5t-5 -32t-0.5 -32t0.5 -32t5 -32.5t12.5 -32.5t25 -21.5t41 -9.5t41 9.5t25 21.5t12.5 32.5t5 32.5t0.5 32z" />
    <glyph glyph-name="guillemotright" unicode="&#xbb;" 
d="M400 260l-94 -253q-2 -7 -10 -7h-42q-13 0 -11 13l46 251l-46 251q-2 13 11 13h42q8 0 10 -7l94 -253q1 -4 0 -8zM210 260l-94 -253q-2 -7 -10 -7h-42q-13 0 -11 13l46 251l-46 251q-2 13 11 13h42q8 0 10 -7l94 -253q1 -4 0 -8z" />
    <glyph glyph-name="onequarter" unicode="&#xbc;" horiz-adv-x="753" 
d="M294 305q0 -19 -32 -19h-173q-32 0 -32 19t32 19h49v319q-28 -9 -60 -9q-30 0 -30 19q0 6 6 12t19 7q65 4 93 31q9 10 25 10q12 0 18.5 -5t7.5 -9t1 -12v-363h44q32 0 32 -19zM704 124q0 -16 -8 -20t-23 -4h-26v-74q0 -15 -6.5 -20.5t-25.5 -5.5h-12q-19 0 -25.5 6
t-6.5 20v74h-139q-19 0 -25 5.5t-6 20.5v11q0 11 5 20l142 245q5 10 10 12t20 2h37q19 0 25.5 -5.5t6.5 -20.5v-242h26q10 0 15 -1t10.5 -6.5t5.5 -16.5zM634 657l-380 -655q-10 -17 -30 -17t-30 17.5t0 35.5l380 654q10 17 30 17t30 -17.5t0 -34.5zM576 148v214
q-2 -11 -23 -52q-22 -45 -89 -162h112z" />
    <glyph glyph-name="onehalf" unicode="&#xbd;" horiz-adv-x="836" 
d="M294 305q0 -19 -32 -19h-173q-32 0 -32 19t32 19h49v319q-28 -9 -60 -9q-30 0 -30 19q0 6 6 12t19 7q65 4 93 31q9 10 25 10q12 0 18.5 -5t7.5 -9t1 -12v-363h44q32 0 32 -19zM788 26q0 -15 -6.5 -20.5t-25.5 -5.5h-209q-19 0 -26 5.5t-7 21.5q0 12 7 18l123 129
q61 65 61 119q0 8 -2 18t-8 26.5t-22 27.5t-41 11q-58 0 -79 -72q-7 -11 -10 -12q-3 0 -11 7q-23 29 -23 32q11 39 41 66q36 31 92 31q68 0 107 -39t39 -95q0 -41 -25 -72.5t-102 -100.5l-70 -66q5 1 14 1h88h45q23 0 31.5 -1t13.5 -6.5t5 -18.5v-4zM638 657l-380 -655
q-10 -17 -30 -17t-30 17.5t0 35.5l380 654q10 17 30 17t30 -17.5t0 -34.5z" />
    <glyph glyph-name="threequarters" unicode="&#xbe;" horiz-adv-x="753" 
d="M341 406q0 -66 -41 -99t-107 -33q-40 0 -73.5 15t-47.5 29.5t-14 20.5q0 7 4 23q3 16 10 16q3 0 11 -8q40 -48 107 -48q22 0 36 8.5t19.5 24.5t6.5 26.5t1 25.5q0 44 -15.5 64t-52.5 20h-24q-13 0 -15.5 2t-2.5 14v7q0 13 4 15q2 1 20 2q16 1 23 2.5t16 7t17 15.5
q17 21 17 58q0 11 -1.5 19t-6 17t-15 13.5t-26.5 4.5q-60 0 -87 -51q-4 -7 -9 -7t-16 15t-11 18t4.5 10t14.5 17.5t23.5 20t36 16t47.5 6.5q61 0 95 -26.5t34 -72.5q0 -64 -72 -103q90 -23 90 -105zM704 124q0 -16 -8 -20t-23 -4h-26v-74q0 -15 -6.5 -20.5t-25.5 -5.5h-12
q-19 0 -25.5 6t-6.5 20v74h-139q-19 0 -25 5.5t-6 20.5v11q0 11 5 20l142 245q5 10 10 12t20 2h37q19 0 25.5 -5.5t6.5 -20.5v-242h26q10 0 15 -1t10.5 -6.5t5.5 -16.5zM634 657l-380 -655q-10 -17 -30 -17t-30 17.5t0 35.5l380 654q10 17 30 17t30 -17.5t0 -34.5zM576 148
v214q-2 -11 -23 -52q-22 -45 -89 -162h112z" />
    <glyph glyph-name="questiondown" unicode="&#xbf;" horiz-adv-x="449" 
d="M264 466q0 -26 -9 -35t-35 -9h-18q-27 0 -35.5 9.5t-8.5 34.5v17q0 27 9.5 36t35.5 9h17q27 0 35.5 -9.5t8.5 -34.5v-18zM395 -115q0 -8 -25 -22t-69.5 -27t-89.5 -13q-158 0 -158 152q0 74 39 114q44 44 60.5 96t16.5 121v15q0 17 3.5 20.5t21.5 3.5h34q19 0 22.5 -5
t3.5 -31q0 -37 -2 -62.5t-19 -80.5t-50 -112q-12 -19 -15.5 -33.5t-3.5 -50.5q0 -48 9 -65.5t41 -17.5q75 0 135 53q10 10 15 10t8 -4t11 -25q1 -4 4.5 -13.5t5.5 -15.5t2 -7z" />
    <glyph glyph-name="Agrave" unicode="&#xc0;" horiz-adv-x="636" 
d="M600 25q0 -25 -38 -25h-34q-31 0 -41.5 11.5t-23.5 52.5l-33 107h-242l-42 -131q-4 -14 -8 -21t-16 -13t-33 -6h-16q-38 0 -38 25l4 16l193 616q12 37 57 37h57q14 0 22 -1t18.5 -10t16.5 -27l193 -617zM407 246l-56 185q-37 123 -42 157h-1q-5 -34 -39 -149l-58 -193
h196zM404 771q7 -6 4.5 -12t-11.5 -6h-67l-187 99q-8 4 -6.5 13t14.5 9h127z" />
    <glyph glyph-name="Aacute" unicode="&#xc1;" horiz-adv-x="636" 
d="M600 25q0 -25 -38 -25h-34q-31 0 -41.5 11.5t-23.5 52.5l-33 107h-242l-42 -131q-4 -14 -8 -21t-16 -13t-33 -6h-16q-38 0 -38 25l4 16l193 616q12 37 57 37h57q14 0 22 -1t18.5 -10t16.5 -27l193 -617zM407 246l-56 185q-37 123 -42 157h-1q-5 -34 -39 -149l-58 -193
h196zM494 852l-187 -99h-67q-9 0 -11.5 6t4.5 12l126 103h127q13 0 14.5 -9t-6.5 -13z" />
    <glyph glyph-name="Acircumflex" unicode="&#xc2;" horiz-adv-x="636" 
d="M600 25q0 -25 -38 -25h-34q-31 0 -41.5 11.5t-23.5 52.5l-33 107h-242l-42 -131q-4 -14 -8 -21t-16 -13t-33 -6h-16q-38 0 -38 25l4 16l193 616q12 37 57 37h57q14 0 22 -1t18.5 -10t16.5 -27l193 -617zM407 246l-56 185q-37 123 -42 157h-1q-5 -34 -39 -149l-58 -193
h196zM491 765q6 -5 3 -13.5t-11 -8.5h-47l-5 1l-112 81l-112 -81l-5 -1h-47q-8 0 -11 7.5t3 12.5l110 104q3 3 8 3h111q5 0 8 -3z" />
    <glyph glyph-name="Atilde" unicode="&#xc3;" horiz-adv-x="636" 
d="M600 25q0 -25 -38 -25h-34q-31 0 -41.5 11.5t-23.5 52.5l-33 107h-242l-42 -131q-4 -14 -8 -21t-16 -13t-33 -6h-16q-38 0 -38 25l4 16l193 616q12 37 57 37h57q14 0 22 -1t18.5 -10t16.5 -27l193 -617zM407 246l-56 185q-37 123 -42 157h-1q-5 -34 -39 -149l-58 -193
h196zM477 845q0 -35 -26 -68.5t-69 -33.5q-39 0 -80 32q-30 23 -45 23q-27 0 -32 -40q-1 -11 -5 -13t-20 -2h-13q-17 0 -21.5 2.5t-4.5 14.5q0 35 26 68.5t69 33.5q39 0 80 -32q30 -23 45 -23q27 0 32 40q1 11 5 13t20 2h14q16 0 20.5 -2.5t4.5 -14.5z" />
    <glyph glyph-name="Adieresis" unicode="&#xc4;" horiz-adv-x="636" 
d="M600 25q0 -25 -38 -25h-34q-31 0 -41.5 11.5t-23.5 52.5l-33 107h-242l-42 -131q-4 -14 -8 -21t-16 -13t-33 -6h-16q-38 0 -38 25l4 16l193 616q12 37 57 37h57q14 0 22 -1t18.5 -10t16.5 -27l193 -617zM407 246l-56 185q-37 123 -42 157h-1q-5 -34 -39 -149l-58 -193
h196zM254 785q0 -25 -8.5 -33.5t-32.5 -8.5h-30q-24 0 -32 9t-8 33v22q0 26 8.5 34t31.5 8h30q24 0 32.5 -8.5t8.5 -33.5v-22zM495 785q0 -25 -8.5 -33.5t-32.5 -8.5h-30q-24 0 -32 9t-8 33v22q0 26 8.5 34t31.5 8h30q24 0 32.5 -8.5t8.5 -33.5v-22z" />
    <glyph glyph-name="Aring" unicode="&#xc5;" horiz-adv-x="636" 
d="M600 25q0 -25 -38 -25h-34q-31 0 -41.5 11.5t-23.5 52.5l-33 107h-242l-42 -131q-4 -14 -8 -21t-16 -13t-33 -6h-16q-38 0 -38 25l4 16l193 616q12 37 57 37h57q14 0 22 -1t18.5 -10t16.5 -27l193 -617zM407 246l-56 185q-37 123 -42 157h-1q-5 -34 -39 -149l-58 -193
h196zM365 768q0 15 -8 22.5t-16 9t-23 1.5t-23.5 -1.5t-16 -9t-7.5 -22.5t8 -22.5t16 -9t23 -1.5t23.5 1.5t16 9t7.5 22.5zM424 768q0 -74 -107 -74q-12 0 -23.5 1.5t-33.5 7.5t-35 22.5t-13 42.5q0 74 107 74q12 0 23.5 -1.5t33.5 -7.5t35 -22.5t13 -42.5z" />
    <glyph glyph-name="AE" unicode="&#xc6;" horiz-adv-x="819" 
d="M778 44q0 -26 -9 -35t-35 -9h-290q-27 0 -36 9.5t-9 35.5v158h-188l-61 -165q-7 -18 -18 -27t-19 -10t-22 -1h-17q-37 0 -37 24q0 6 5 18l228 613q7 18 18 27t19 10.5t23 1.5h391q28 0 36 -10.5t8 -34.5q0 -30 -10.5 -37.5t-37.5 -7.5l-175 3h-22v-207h175
q14 0 21.5 -1.5t15 -11t7.5 -28.5q0 -14 -3.5 -23t-11.5 -12t-13.5 -4t-15.5 -1h-175v-226h44l167 3q26 0 36.5 -7.5t10.5 -36.5v-8zM399 278v330h-37l-123 -330h160z" />
    <glyph glyph-name="Ccedilla" unicode="&#xc7;" horiz-adv-x="607" 
d="M559 51q0 -6 -3 -9.5t-19 -14.5q-42 -27 -76.5 -36.5t-87.5 -9.5q-149 0 -236 93q-84 91 -84 273q0 166 73 259q83 107 245 107q78 0 152 -28q17 -7 21 -10t4 -10q0 -18 -13 -74q-3 -14 -12 -14q-5 0 -14 7q-63 43 -137 43q-40 0 -72.5 -13.5t-52.5 -33t-35 -49
t-21.5 -53t-10.5 -55t-4.5 -45t-0.5 -31.5q0 -36 3.5 -68.5t15.5 -73t33 -69.5t59 -49t89 -20t82 10.5t68 36.5q12 9 17 9q8 0 11 -12q6 -42 6 -60zM380 -51q0 -6 -4 -14l-46 -104q-5 -11 -9 -13t-20 -2h-36q-25 0 -25 11q0 4 6 14l68 106q6 9 10 11t18 2h13q25 0 25 -11z
" />
    <glyph glyph-name="Egrave" unicode="&#xc8;" horiz-adv-x="567" 
d="M526 44q0 -26 -9 -35t-35 -9h-356q-27 0 -36 9.5t-9 35.5v601q0 27 9.5 36t35.5 9h343q28 0 36 -10.5t8 -34.5q0 -22 -7 -32t-15.5 -11.5t-29.5 -1.5l-212 3h-46v-205h240q14 0 21.5 -1.5t15 -11t7.5 -28.5q0 -14 -3.5 -23t-11.5 -12t-13.5 -4t-15.5 -1h-240v-226
q18 2 132 2l141 2q19 0 27.5 -1.5t15.5 -11.5t7 -31v-8zM369 771q7 -6 4.5 -12t-11.5 -6h-67l-187 99q-8 4 -6.5 13t14.5 9h127z" />
    <glyph glyph-name="Eacute" unicode="&#xc9;" horiz-adv-x="567" 
d="M526 44q0 -26 -9 -35t-35 -9h-356q-27 0 -36 9.5t-9 35.5v601q0 27 9.5 36t35.5 9h343q28 0 36 -10.5t8 -34.5q0 -22 -7 -32t-15.5 -11.5t-29.5 -1.5l-212 3h-46v-205h240q14 0 21.5 -1.5t15 -11t7.5 -28.5q0 -14 -3.5 -23t-11.5 -12t-13.5 -4t-15.5 -1h-240v-226
q18 2 132 2l141 2q19 0 27.5 -1.5t15.5 -11.5t7 -31v-8zM459 852l-187 -99h-67q-9 0 -11.5 6t4.5 12l126 103h127q13 0 14.5 -9t-6.5 -13z" />
    <glyph glyph-name="Ecircumflex" unicode="&#xca;" horiz-adv-x="567" 
d="M526 44q0 -26 -9 -35t-35 -9h-356q-27 0 -36 9.5t-9 35.5v601q0 27 9.5 36t35.5 9h343q28 0 36 -10.5t8 -34.5q0 -22 -7 -32t-15.5 -11.5t-29.5 -1.5l-212 3h-46v-205h240q14 0 21.5 -1.5t15 -11t7.5 -28.5q0 -14 -3.5 -23t-11.5 -12t-13.5 -4t-15.5 -1h-240v-226
q18 2 132 2l141 2q19 0 27.5 -1.5t15.5 -11.5t7 -31v-8zM456 765q6 -5 3 -13.5t-11 -8.5h-47l-5 1l-112 81l-112 -81l-5 -1h-47q-8 0 -11 7.5t3 12.5l110 104q3 3 8 3h111q5 0 8 -3z" />
    <glyph glyph-name="Edieresis" unicode="&#xcb;" horiz-adv-x="567" 
d="M526 44q0 -26 -9 -35t-35 -9h-356q-27 0 -36 9.5t-9 35.5v601q0 27 9.5 36t35.5 9h343q28 0 36 -10.5t8 -34.5q0 -22 -7 -32t-15.5 -11.5t-29.5 -1.5l-212 3h-46v-205h240q14 0 21.5 -1.5t15 -11t7.5 -28.5q0 -14 -3.5 -23t-11.5 -12t-13.5 -4t-15.5 -1h-240v-226
q18 2 132 2l141 2q19 0 27.5 -1.5t15.5 -11.5t7 -31v-8zM219 785q0 -25 -8.5 -33.5t-32.5 -8.5h-30q-24 0 -32 9t-8 33v22q0 26 8.5 34t31.5 8h30q24 0 32.5 -8.5t8.5 -33.5v-22zM460 785q0 -25 -8.5 -33.5t-32.5 -8.5h-30q-24 0 -32 9t-8 33v22q0 26 8.5 34t31.5 8h30
q24 0 32.5 -8.5t8.5 -33.5v-22z" />
    <glyph glyph-name="Igrave" unicode="&#xcc;" horiz-adv-x="283" 
d="M202 44q0 -26 -9 -35t-35 -9h-33q-27 0 -36 9.5t-9 35.5v604q0 27 9.5 36t35.5 9h33q27 0 35.5 -9.5t8.5 -34.5v-606zM197 771q7 -6 4.5 -12t-11.5 -6h-67l-187 99q-8 4 -6.5 13t14.5 9h127z" />
    <glyph glyph-name="Iacute" unicode="&#xcd;" horiz-adv-x="283" 
d="M202 44q0 -26 -9 -35t-35 -9h-33q-27 0 -36 9.5t-9 35.5v604q0 27 9.5 36t35.5 9h33q27 0 35.5 -9.5t8.5 -34.5v-606zM346 852l-187 -99h-67q-9 0 -11.5 6t4.5 12l126 103h127q13 0 14.5 -9t-6.5 -13z" />
    <glyph glyph-name="Icircumflex" unicode="&#xce;" horiz-adv-x="283" 
d="M202 44q0 -26 -9 -35t-35 -9h-33q-27 0 -36 9.5t-9 35.5v604q0 27 9.5 36t35.5 9h33q27 0 35.5 -9.5t8.5 -34.5v-606zM314 765q6 -5 3 -13.5t-11 -8.5h-47l-5 1l-112 81l-112 -81l-5 -1h-47q-8 0 -11 7.5t3 12.5l110 104q3 3 8 3h111q5 0 8 -3z" />
    <glyph glyph-name="Idieresis" unicode="&#xcf;" horiz-adv-x="283" 
d="M202 44q0 -26 -9 -35t-35 -9h-33q-27 0 -36 9.5t-9 35.5v604q0 27 9.5 36t35.5 9h33q27 0 35.5 -9.5t8.5 -34.5v-606zM77 785q0 -25 -8.5 -33.5t-32.5 -8.5h-30q-24 0 -32 9t-8 33v22q0 26 8.5 34t31.5 8h30q24 0 32.5 -8.5t8.5 -33.5v-22zM318 785q0 -25 -8.5 -33.5
t-32.5 -8.5h-30q-24 0 -32 9t-8 33v22q0 26 8.5 34t31.5 8h30q24 0 32.5 -8.5t8.5 -33.5v-22z" />
    <glyph glyph-name="Eth" unicode="&#xd0;" horiz-adv-x="688" 
d="M633 342q0 -168 -79 -257q-73 -85 -209 -85h-219q-27 0 -36 9.5t-9 35.5v259h-24q-13 0 -22.5 9.5t-9.5 22.5v22q0 14 9.5 23t22.5 9h24v259q0 27 9.5 36t35.5 9h218q69 0 128.5 -27t96.5 -80q64 -92 64 -245zM514 342q0 25 -0.5 41t-4.5 48.5t-11 54t-22 49t-36 44.5
t-54 28.5t-75 11.5h-111v-229h56q13 0 22.5 -9.5t9.5 -22.5v-22q0 -13 -9.5 -22.5t-22.5 -9.5h-56v-229h112q42 0 75 11t53.5 27t35.5 42.5t22 47.5t11 52t4.5 46.5t0.5 40.5z" />
    <glyph glyph-name="Ntilde" unicode="&#xd1;" horiz-adv-x="678" 
d="M596 44q0 -26 -9 -35t-35 -9h-73q-27 0 -40 8t-23 32l-189 442q-31 75 -41 106h-1v-544q0 -26 -9 -35t-35 -9h-15q-27 0 -36 9.5t-9 35.5v604q0 27 9.5 36t35.5 9h72q27 0 40 -8t23 -32l189 -442q31 -75 41 -106h1v544q0 26 9 35t35 9h16q27 0 35.5 -9.5t8.5 -34.5v-606z
M497 845q0 -35 -26 -68.5t-69 -33.5q-39 0 -80 32q-30 23 -45 23q-27 0 -32 -40q-1 -11 -5 -13t-20 -2h-13q-17 0 -21.5 2.5t-4.5 14.5q0 35 26 68.5t69 33.5q39 0 80 -32q30 -23 45 -23q27 0 32 40q1 11 5 13t20 2h14q16 0 20.5 -2.5t4.5 -14.5z" />
    <glyph glyph-name="Ograve" unicode="&#xd2;" horiz-adv-x="697" 
d="M643 342q0 -177 -79 -270q-77 -91 -216 -91q-138 0 -213 87q-82 95 -82 274q0 163 66 261q36 53 96.5 81.5t132.5 28.5q160 0 238 -125q57 -91 57 -246zM521 358q0 132 -34 198q-45 87 -139 87q-91 0 -136 -82q-37 -65 -37 -203q0 -130 30 -201q25 -59 65 -81.5t78 -22.5
t78 22.5t65 80.5q30 71 30 202zM434 771q7 -6 4.5 -12t-11.5 -6h-67l-187 99q-8 4 -6.5 13t14.5 9h127z" />
    <glyph glyph-name="Oacute" unicode="&#xd3;" horiz-adv-x="697" 
d="M643 342q0 -177 -79 -270q-77 -91 -216 -91q-138 0 -213 87q-82 95 -82 274q0 163 66 261q36 53 96.5 81.5t132.5 28.5q160 0 238 -125q57 -91 57 -246zM521 358q0 132 -34 198q-45 87 -139 87q-91 0 -136 -82q-37 -65 -37 -203q0 -130 30 -201q25 -59 65 -81.5t78 -22.5
t78 22.5t65 80.5q30 71 30 202zM524 852l-187 -99h-67q-9 0 -11.5 6t4.5 12l126 103h127q13 0 14.5 -9t-6.5 -13z" />
    <glyph glyph-name="Ocircumflex" unicode="&#xd4;" horiz-adv-x="697" 
d="M643 342q0 -177 -79 -270q-77 -91 -216 -91q-138 0 -213 87q-82 95 -82 274q0 163 66 261q36 53 96.5 81.5t132.5 28.5q160 0 238 -125q57 -91 57 -246zM521 358q0 132 -34 198q-45 87 -139 87q-91 0 -136 -82q-37 -65 -37 -203q0 -130 30 -201q25 -59 65 -81.5t78 -22.5
t78 22.5t65 80.5q30 71 30 202zM521 765q6 -5 3 -13.5t-11 -8.5h-47l-5 1l-112 81l-112 -81l-5 -1h-47q-8 0 -11 7.5t3 12.5l110 104q3 3 8 3h111q5 0 8 -3z" />
    <glyph glyph-name="Otilde" unicode="&#xd5;" horiz-adv-x="697" 
d="M643 342q0 -177 -79 -270q-77 -91 -216 -91q-138 0 -213 87q-82 95 -82 274q0 163 66 261q36 53 96.5 81.5t132.5 28.5q160 0 238 -125q57 -91 57 -246zM521 358q0 132 -34 198q-45 87 -139 87q-91 0 -136 -82q-37 -65 -37 -203q0 -130 30 -201q25 -59 65 -81.5t78 -22.5
t78 22.5t65 80.5q30 71 30 202zM507 845q0 -35 -26 -68.5t-69 -33.5q-39 0 -80 32q-30 23 -45 23q-27 0 -32 -40q-1 -11 -5 -13t-20 -2h-13q-17 0 -21.5 2.5t-4.5 14.5q0 35 26 68.5t69 33.5q39 0 80 -32q30 -23 45 -23q27 0 32 40q1 11 5 13t20 2h14q16 0 20.5 -2.5
t4.5 -14.5z" />
    <glyph glyph-name="Odieresis" unicode="&#xd6;" horiz-adv-x="697" 
d="M643 342q0 -177 -79 -270q-77 -91 -216 -91q-138 0 -213 87q-82 95 -82 274q0 163 66 261q36 53 96.5 81.5t132.5 28.5q160 0 238 -125q57 -91 57 -246zM521 358q0 132 -34 198q-45 87 -139 87q-91 0 -136 -82q-37 -65 -37 -203q0 -130 30 -201q25 -59 65 -81.5t78 -22.5
t78 22.5t65 80.5q30 71 30 202zM284 785q0 -25 -8.5 -33.5t-32.5 -8.5h-30q-24 0 -32 9t-8 33v22q0 26 8.5 34t31.5 8h30q24 0 32.5 -8.5t8.5 -33.5v-22zM525 785q0 -25 -8.5 -33.5t-32.5 -8.5h-30q-24 0 -32 9t-8 33v22q0 26 8.5 34t31.5 8h30q24 0 32.5 -8.5t8.5 -33.5
v-22z" />
    <glyph glyph-name="multiply" unicode="&#xd7;" horiz-adv-x="739" 
d="M593 40q-23 -23 -58 8l-166 167l-165 -166q-35 -32 -58 -8q-24 23 8 58l166 165l-167 166q-31 35 -8 58t58 -8l166 -167l165 166q35 32 58 8q24 -23 -8 -58l-166 -165l167 -166q31 -35 8 -58z" />
    <glyph glyph-name="Oslash" unicode="&#xd8;" horiz-adv-x="739" 
d="M685 342q0 -172 -82 -267q-37 -43 -97.5 -68.5t-136.5 -25.5q-73 0 -133 24l-24 -47q-11 -21 -17.5 -27t-19.5 -6q-12 0 -24.5 9t-12.5 25q0 9 17 43q3 4 19 37q-121 87 -121 303q0 178 85 277q80 94 231 94q71 0 133 -25l30 58q12 23 31 23q12 0 24.5 -9t12.5 -25
q0 -8 -7 -21l-30 -61q122 -89 122 -311zM469 624q-43 25 -100 25q-42 0 -75.5 -13.5t-54.5 -32.5t-36.5 -49.5t-22.5 -55t-11 -60t-4.5 -52.5t-0.5 -43q0 -77 10 -130t40 -95zM574 343q0 162 -51 231l-254 -504q45 -25 100 -25q42 0 75.5 13t54.5 31t36.5 48t22.5 53.5
t11 58t4.5 51.5t0.5 43z" />
    <glyph glyph-name="Ugrave" unicode="&#xd9;" horiz-adv-x="657" 
d="M575 228q0 -109 -62 -178t-183 -69t-185 68.5t-64 178.5v421q0 27 9.5 36t35.5 9h33q27 0 35.5 -9.5t8.5 -34.5v-423q0 -171 128 -171q133 0 133 172v422q0 26 9 35t35 9h23q27 0 35.5 -9.5t8.5 -34.5v-422zM414 771q7 -6 4.5 -12t-11.5 -6h-67l-187 99q-8 4 -6.5 13
t14.5 9h127z" />
    <glyph glyph-name="Uacute" unicode="&#xda;" horiz-adv-x="657" 
d="M575 228q0 -109 -62 -178t-183 -69t-185 68.5t-64 178.5v421q0 27 9.5 36t35.5 9h33q27 0 35.5 -9.5t8.5 -34.5v-423q0 -171 128 -171q133 0 133 172v422q0 26 9 35t35 9h23q27 0 35.5 -9.5t8.5 -34.5v-422zM504 852l-187 -99h-67q-9 0 -11.5 6t4.5 12l126 103h127
q13 0 14.5 -9t-6.5 -13z" />
    <glyph glyph-name="Ucircumflex" unicode="&#xdb;" horiz-adv-x="657" 
d="M575 228q0 -109 -62 -178t-183 -69t-185 68.5t-64 178.5v421q0 27 9.5 36t35.5 9h33q27 0 35.5 -9.5t8.5 -34.5v-423q0 -171 128 -171q133 0 133 172v422q0 26 9 35t35 9h23q27 0 35.5 -9.5t8.5 -34.5v-422zM501 765q6 -5 3 -13.5t-11 -8.5h-47l-5 1l-112 81l-112 -81
l-5 -1h-47q-8 0 -11 7.5t3 12.5l110 104q3 3 8 3h111q5 0 8 -3z" />
    <glyph glyph-name="Udieresis" unicode="&#xdc;" horiz-adv-x="657" 
d="M575 228q0 -109 -62 -178t-183 -69t-185 68.5t-64 178.5v421q0 27 9.5 36t35.5 9h33q27 0 35.5 -9.5t8.5 -34.5v-423q0 -171 128 -171q133 0 133 172v422q0 26 9 35t35 9h23q27 0 35.5 -9.5t8.5 -34.5v-422zM264 785q0 -25 -8.5 -33.5t-32.5 -8.5h-30q-24 0 -32 9t-8 33
v22q0 26 8.5 34t31.5 8h30q24 0 32.5 -8.5t8.5 -33.5v-22zM505 785q0 -25 -8.5 -33.5t-32.5 -8.5h-30q-24 0 -32 9t-8 33v22q0 26 8.5 34t31.5 8h30q24 0 32.5 -8.5t8.5 -33.5v-22z" />
    <glyph glyph-name="Yacute" unicode="&#xdd;" horiz-adv-x="636" 
d="M616 673q0 -5 -9 -20l-230 -376v-234q0 -27 -10 -35t-34 -8h-31q-26 0 -35 9t-9 35v234l-233 379q-6 9 -6 16q0 21 35 21h41q48 0 70 -36l113 -189q36 -61 48 -89q6 20 48 92.5t80 133.5t41 65q20 23 61 23h25q35 0 35 -21zM494 852l-187 -99h-67q-9 0 -11.5 6t4.5 12
l126 103h127q13 0 14.5 -9t-6.5 -13z" />
    <glyph glyph-name="Thorn" unicode="&#xde;" horiz-adv-x="556" 
d="M502 382q0 -202 -209 -202h-97v-134q0 -29 -9.5 -37.5t-36.5 -8.5h-23q-29 0 -38 9t-9 38v600q0 29 9 38t38 9h23q27 0 36.5 -9t9.5 -37v-64h113q88 0 140.5 -50.5t52.5 -151.5zM388 381q0 128 -124 128h-68v-254h69q16 0 26.5 1t31 7.5t33 18.5t22.5 37.5t10 61.5z" />
    <glyph glyph-name="germandbls" unicode="&#xdf;" horiz-adv-x="468" 
d="M441 192q0 -18 -1 -34t-10 -49.5t-25.5 -57t-51.5 -42.5t-83 -19q-26 0 -52 8.5t-26 19.5q0 4 8 29q3 10 5 13.5t5 6t7 2.5q3 -1 6 -3q28 -12 44 -12q22 0 36.5 14t19.5 40t6.5 42t1.5 42q0 205 -95 216q-14 2 -16.5 5.5t-2.5 20.5v12q0 18 2 21.5t15 4.5q32 4 51 24
t19 73q0 34 -14 52.5t-56 18.5q-24 0 -39 -6t-21.5 -18.5t-8 -23t-1.5 -27.5v-521q0 -26 -9 -35t-35 -9h-19q-27 0 -36 9.5t-9 35.5v522q0 33 11.5 58.5t29.5 40t43 23.5t47.5 12t47.5 3q32 0 61 -6t57 -19.5t44.5 -41.5t16.5 -67q0 -92 -68 -133q95 -66 95 -245z" />
    <glyph glyph-name="agrave" unicode="&#xe0;" horiz-adv-x="453" 
d="M408 44q0 -26 -9 -35t-35 -9h-20q-27 0 -35.5 9.5t-8.5 34.5v25q-16 -29 -50.5 -54t-82.5 -25q-57 0 -94 43t-37 99q0 35 14.5 62.5t41.5 44t52 27.5t59 16t49 6.5t34 2.5q8 1 9.5 3.5t1.5 15.5v20q0 34 -6.5 56t-19.5 30t-21 10t-20 2q-74 0 -125 -50q-11 -10 -16 -10
q-7 0 -9 5.5t-4 23.5q-3 24 -3 36q0 8 4 11.5t20 11.5q64 31 137 31q88 0 131 -41.5t43 -114.5v-287zM297 155v101q-18 -1 -35 -4t-40.5 -11t-40 -20.5t-28.5 -35t-12 -51.5q0 -33 19 -56.5t48 -23.5q10 0 22 3.5t28.5 12.5t27.5 31t11 54zM293 557q0 -11 -25 -11h-31
l-135 122q-10 9 -10 15q0 8 5 9.5t19 1.5h61q14 0 18 -1.5t10 -9.5l80 -111z" />
    <glyph glyph-name="aacute" unicode="&#xe1;" horiz-adv-x="453" 
d="M408 44q0 -26 -9 -35t-35 -9h-20q-27 0 -35.5 9.5t-8.5 34.5v25q-16 -29 -50.5 -54t-82.5 -25q-57 0 -94 43t-37 99q0 35 14.5 62.5t41.5 44t52 27.5t59 16t49 6.5t34 2.5q8 1 9.5 3.5t1.5 15.5v20q0 34 -6.5 56t-19.5 30t-21 10t-20 2q-74 0 -125 -50q-11 -10 -16 -10
q-7 0 -9 5.5t-4 23.5q-3 24 -3 36q0 8 4 11.5t20 11.5q64 31 137 31q88 0 131 -41.5t43 -114.5v-287zM297 155v101q-18 -1 -35 -4t-40.5 -11t-40 -20.5t-28.5 -35t-12 -51.5q0 -33 19 -56.5t48 -23.5q10 0 22 3.5t28.5 12.5t27.5 31t11 54zM361 683q0 -6 -10 -15l-135 -122
h-31q-25 0 -25 11q0 4 8 15l80 111q6 8 10 9.5t18 1.5h61q14 0 19 -1.5t5 -9.5z" />
    <glyph glyph-name="acircumflex" unicode="&#xe2;" horiz-adv-x="453" 
d="M408 44q0 -26 -9 -35t-35 -9h-20q-27 0 -35.5 9.5t-8.5 34.5v25q-16 -29 -50.5 -54t-82.5 -25q-57 0 -94 43t-37 99q0 35 14.5 62.5t41.5 44t52 27.5t59 16t49 6.5t34 2.5q8 1 9.5 3.5t1.5 15.5v20q0 34 -6.5 56t-19.5 30t-21 10t-20 2q-74 0 -125 -50q-11 -10 -16 -10
q-7 0 -9 5.5t-4 23.5q-3 24 -3 36q0 8 4 11.5t20 11.5q64 31 137 31q88 0 131 -41.5t43 -114.5v-287zM297 155v101q-18 -1 -35 -4t-40.5 -11t-40 -20.5t-28.5 -35t-12 -51.5q0 -33 19 -56.5t48 -23.5q10 0 22 3.5t28.5 12.5t27.5 31t11 54zM388 560q4 -6 0.5 -13.5
t-10.5 -7.5h-47q-4 1 -6 2l-98 101l-98 -101l-6 -2h-47q-7 0 -10.5 6.5t0.5 12.5l98 139q3 4 9 4h111q6 0 9 -4z" />
    <glyph glyph-name="atilde" unicode="&#xe3;" horiz-adv-x="453" 
d="M408 44q0 -26 -9 -35t-35 -9h-20q-27 0 -35.5 9.5t-8.5 34.5v25q-16 -29 -50.5 -54t-82.5 -25q-57 0 -94 43t-37 99q0 35 14.5 62.5t41.5 44t52 27.5t59 16t49 6.5t34 2.5q8 1 9.5 3.5t1.5 15.5v20q0 34 -6.5 56t-19.5 30t-21 10t-20 2q-74 0 -125 -50q-11 -10 -16 -10
q-7 0 -9 5.5t-4 23.5q-3 24 -3 36q0 8 4 11.5t20 11.5q64 31 137 31q88 0 131 -41.5t43 -114.5v-287zM297 155v101q-18 -1 -35 -4t-40.5 -11t-40 -20.5t-28.5 -35t-12 -51.5q0 -33 19 -56.5t48 -23.5q10 0 22 3.5t28.5 12.5t27.5 31t11 54zM385 663q0 -35 -26 -68.5
t-69 -33.5q-39 0 -80 32q-30 23 -45 23q-27 0 -32 -40q-1 -11 -5 -13t-20 -2h-13q-17 0 -21.5 2.5t-4.5 14.5q0 35 26 68.5t69 33.5q39 0 80 -32q30 -23 45 -23q27 0 32 40q1 11 5 13t20 2h14q16 0 20.5 -2.5t4.5 -14.5z" />
    <glyph glyph-name="adieresis" unicode="&#xe4;" horiz-adv-x="453" 
d="M408 44q0 -26 -9 -35t-35 -9h-20q-27 0 -35.5 9.5t-8.5 34.5v25q-16 -29 -50.5 -54t-82.5 -25q-57 0 -94 43t-37 99q0 35 14.5 62.5t41.5 44t52 27.5t59 16t49 6.5t34 2.5q8 1 9.5 3.5t1.5 15.5v20q0 34 -6.5 56t-19.5 30t-21 10t-20 2q-74 0 -125 -50q-11 -10 -16 -10
q-7 0 -9 5.5t-4 23.5q-3 24 -3 36q0 8 4 11.5t20 11.5q64 31 137 31q88 0 131 -41.5t43 -114.5v-287zM297 155v101q-18 -1 -35 -4t-40.5 -11t-40 -20.5t-28.5 -35t-12 -51.5q0 -33 19 -56.5t48 -23.5q10 0 22 3.5t28.5 12.5t27.5 31t11 54zM181 609q0 -25 -8.5 -33.5
t-32.5 -8.5h-30q-24 0 -32 9t-8 33v22q0 26 8.5 34t31.5 8h30q24 0 32.5 -8.5t8.5 -33.5v-22zM384 609q0 -25 -8.5 -33.5t-32.5 -8.5h-30q-24 0 -32 9t-8 33v22q0 26 8.5 34t31.5 8h30q24 0 32.5 -8.5t8.5 -33.5v-22z" />
    <glyph glyph-name="aring" unicode="&#xe5;" horiz-adv-x="453" 
d="M408 44q0 -26 -9 -35t-35 -9h-20q-27 0 -35.5 9.5t-8.5 34.5v25q-16 -29 -50.5 -54t-82.5 -25q-57 0 -94 43t-37 99q0 35 14.5 62.5t41.5 44t52 27.5t59 16t49 6.5t34 2.5q8 1 9.5 3.5t1.5 15.5v20q0 34 -6.5 56t-19.5 30t-21 10t-20 2q-74 0 -125 -50q-11 -10 -16 -10
q-7 0 -9 5.5t-4 23.5q-3 24 -3 36q0 8 4 11.5t20 11.5q64 31 137 31q88 0 131 -41.5t43 -114.5v-287zM297 155v101q-18 -1 -35 -4t-40.5 -11t-40 -20.5t-28.5 -35t-12 -51.5q0 -33 19 -56.5t48 -23.5q10 0 22 3.5t28.5 12.5t27.5 31t11 54zM273 609q0 15 -8 22.5t-16 9
t-23 1.5t-23.5 -1.5t-16 -9t-7.5 -22.5t8 -22.5t16 -9t23 -1.5t23.5 1.5t16 9t7.5 22.5zM332 609q0 -74 -107 -74q-12 0 -23.5 1.5t-33.5 7.5t-35 22.5t-13 42.5q0 74 107 74q12 0 23.5 -1.5t33.5 -7.5t35 -22.5t13 -42.5z" />
    <glyph glyph-name="ae" unicode="&#xe6;" horiz-adv-x="686" 
d="M659 276q0 -25 -9 -34.5t-35 -9.5h-217q4 -178 109 -178q71 0 118 63q6 8 12 8q7 0 8.5 -3t3.5 -17q1 -3 1 -4q3 -27 3 -36q0 -10 -18 -27t-54.5 -32.5t-77.5 -15.5q-94 0 -158 64q-29 -30 -81.5 -47t-107.5 -17q-62 0 -95.5 42.5t-33.5 90.5q0 133 260 143v65
q0 34 -6.5 55.5t-18.5 29.5t-20 10t-21 2q-74 0 -126 -50q-11 -10 -16 -10q-7 0 -9 5.5t-4 23.5q-3 24 -3 36q0 5 1 7t6.5 6.5t18.5 10.5q66 30 136 30q89 0 135 -46q53 46 131 46q89 0 132 -64q36 -55 36 -147zM570 279q-1 22 -2 34.5t-5.5 36.5t-12 37.5t-22.5 24.5
t-36 11q-42 0 -66 -41.5t-27 -102.5h171zM301 137q-5 16 -8.5 36.5t-4.5 32.5l-1 12q-18 -1 -36 -3.5t-49 -11t-50.5 -29t-19.5 -49.5q0 -28 18.5 -49.5t48.5 -21.5q34 0 65 21.5t37 61.5z" />
    <glyph glyph-name="ccedilla" unicode="&#xe7;" horiz-adv-x="422" 
d="M395 62q0 -9 -15 -22t-30 -21l-15 -8q-44 -21 -97 -21q-100 0 -153 64q-53 65 -53 183q0 120 53.5 185t156.5 65q45 0 71 -8t59 -27q16 -13 17 -18q0 -2 -7 -37q-3 -18 -5.5 -23t-8.5 -5q-5 0 -14 9q-27 21 -50 30t-61 9q-34 0 -55.5 -16.5t-30.5 -47t-11.5 -55.5
t-2.5 -60q0 -24 0.5 -39.5t5.5 -44.5t14.5 -47t29 -32.5t47.5 -14.5q69 0 126 57q7 9 13 9q7 0 9 -5t4 -23q3 -24 3 -36zM289 -51q0 -6 -4 -14l-46 -104q-5 -11 -9 -13t-20 -2h-36q-25 0 -25 11q0 4 6 14l68 106q6 9 10 11t18 2h13q25 0 25 -11z" />
    <glyph glyph-name="egrave" unicode="&#xe8;" horiz-adv-x="438" 
d="M411 275q0 -26 -9.5 -34.5t-34.5 -8.5h-238q0 -13 0.5 -24t3.5 -35t11 -42t20 -37t33.5 -29.5t49.5 -10.5q77 0 129 62q8 9 13 9q7 0 8.5 -3t3.5 -17q1 -3 1 -4q3 -27 3 -36q0 -23 -63 -53q-49 -22 -99 -22q-31 0 -60 7t-58.5 25t-50.5 45t-34.5 71.5t-13.5 100.5
q0 70 19 121.5t51 77.5t65.5 37.5t69.5 11.5q87 0 133.5 -54.5t46.5 -157.5zM325 279q-1 22 -2 35.5t-6.5 36.5t-14.5 36.5t-27 24.5t-43 11q-48 0 -73.5 -41.5t-28.5 -102.5h195zM286 557q0 -11 -25 -11h-31l-135 122q-10 9 -10 15q0 8 5 9.5t19 1.5h61q14 0 18 -1.5
t10 -9.5l80 -111z" />
    <glyph glyph-name="eacute" unicode="&#xe9;" horiz-adv-x="438" 
d="M411 275q0 -26 -9.5 -34.5t-34.5 -8.5h-238q0 -13 0.5 -24t3.5 -35t11 -42t20 -37t33.5 -29.5t49.5 -10.5q77 0 129 62q8 9 13 9q7 0 8.5 -3t3.5 -17q1 -3 1 -4q3 -27 3 -36q0 -23 -63 -53q-49 -22 -99 -22q-31 0 -60 7t-58.5 25t-50.5 45t-34.5 71.5t-13.5 100.5
q0 70 19 121.5t51 77.5t65.5 37.5t69.5 11.5q87 0 133.5 -54.5t46.5 -157.5zM325 279q-1 22 -2 35.5t-6.5 36.5t-14.5 36.5t-27 24.5t-43 11q-48 0 -73.5 -41.5t-28.5 -102.5h195zM354 683q0 -6 -10 -15l-135 -122h-31q-25 0 -25 11q0 4 8 15l80 111q6 8 10 9.5t18 1.5h61
q14 0 19 -1.5t5 -9.5z" />
    <glyph glyph-name="ecircumflex" unicode="&#xea;" horiz-adv-x="438" 
d="M411 275q0 -26 -9.5 -34.5t-34.5 -8.5h-238q0 -13 0.5 -24t3.5 -35t11 -42t20 -37t33.5 -29.5t49.5 -10.5q77 0 129 62q8 9 13 9q7 0 8.5 -3t3.5 -17q1 -3 1 -4q3 -27 3 -36q0 -23 -63 -53q-49 -22 -99 -22q-31 0 -60 7t-58.5 25t-50.5 45t-34.5 71.5t-13.5 100.5
q0 70 19 121.5t51 77.5t65.5 37.5t69.5 11.5q87 0 133.5 -54.5t46.5 -157.5zM325 279q-1 22 -2 35.5t-6.5 36.5t-14.5 36.5t-27 24.5t-43 11q-48 0 -73.5 -41.5t-28.5 -102.5h195zM381 560q4 -6 0.5 -13.5t-10.5 -7.5h-47q-4 1 -6 2l-98 101l-98 -101l-6 -2h-47
q-7 0 -10.5 6.5t0.5 12.5l98 139q3 4 9 4h111q6 0 9 -4z" />
    <glyph glyph-name="edieresis" unicode="&#xeb;" horiz-adv-x="438" 
d="M411 275q0 -26 -9.5 -34.5t-34.5 -8.5h-238q0 -13 0.5 -24t3.5 -35t11 -42t20 -37t33.5 -29.5t49.5 -10.5q77 0 129 62q8 9 13 9q7 0 8.5 -3t3.5 -17q1 -3 1 -4q3 -27 3 -36q0 -23 -63 -53q-49 -22 -99 -22q-31 0 -60 7t-58.5 25t-50.5 45t-34.5 71.5t-13.5 100.5
q0 70 19 121.5t51 77.5t65.5 37.5t69.5 11.5q87 0 133.5 -54.5t46.5 -157.5zM325 279q-1 22 -2 35.5t-6.5 36.5t-14.5 36.5t-27 24.5t-43 11q-48 0 -73.5 -41.5t-28.5 -102.5h195zM174 609q0 -25 -8.5 -33.5t-32.5 -8.5h-30q-24 0 -32 9t-8 33v22q0 26 8.5 34t31.5 8h30
q24 0 32.5 -8.5t8.5 -33.5v-22zM377 609q0 -25 -8.5 -33.5t-32.5 -8.5h-30q-24 0 -32 9t-8 33v22q0 26 8.5 34t31.5 8h30q24 0 32.5 -8.5t8.5 -33.5v-22z" />
    <glyph glyph-name="igrave" unicode="&#xec;" horiz-adv-x="219" 
d="M163 44q0 -26 -9 -35t-35 -9h-19q-27 0 -36 9.5t-9 35.5v382q0 27 9.5 36t35.5 9h19q27 0 35.5 -9.5t8.5 -34.5v-384zM163 557q0 -11 -25 -11h-31l-135 122q-10 9 -10 15q0 8 5 9.5t19 1.5h61q14 0 18 -1.5t10 -9.5l80 -111z" />
    <glyph glyph-name="iacute" unicode="&#xed;" horiz-adv-x="219" 
d="M163 44q0 -26 -9 -35t-35 -9h-19q-27 0 -36 9.5t-9 35.5v382q0 27 9.5 36t35.5 9h19q27 0 35.5 -9.5t8.5 -34.5v-384zM256 683q0 -6 -10 -15l-135 -122h-31q-25 0 -25 11q0 4 8 15l80 111q6 8 10 9.5t18 1.5h61q14 0 19 -1.5t5 -9.5z" />
    <glyph glyph-name="icircumflex" unicode="&#xee;" horiz-adv-x="219" 
d="M163 44q0 -26 -9 -35t-35 -9h-19q-27 0 -36 9.5t-9 35.5v382q0 27 9.5 36t35.5 9h19q27 0 35.5 -9.5t8.5 -34.5v-384zM271 560q4 -6 0.5 -13.5t-10.5 -7.5h-47q-4 1 -6 2l-98 101l-98 -101l-6 -2h-47q-7 0 -10.5 6.5t0.5 12.5l98 139q3 4 9 4h111q6 0 9 -4z" />
    <glyph glyph-name="idieresis" unicode="&#xef;" horiz-adv-x="219" 
d="M163 44q0 -26 -9 -35t-35 -9h-19q-27 0 -36 9.5t-9 35.5v382q0 27 9.5 36t35.5 9h19q27 0 35.5 -9.5t8.5 -34.5v-384zM64 609q0 -25 -8.5 -33.5t-32.5 -8.5h-30q-24 0 -32 9t-8 33v22q0 26 8.5 34t31.5 8h30q24 0 32.5 -8.5t8.5 -33.5v-22zM267 609q0 -25 -8.5 -33.5
t-32.5 -8.5h-30q-24 0 -32 9t-8 33v22q0 26 8.5 34t31.5 8h30q24 0 32.5 -8.5t8.5 -33.5v-22z" />
    <glyph glyph-name="eth" unicode="&#xf0;" 
d="M448 237q0 -109 -44 -170q-56 -77 -167 -77q-105 0 -158 65t-53 177q0 108 44 173q56 82 167 82q12 0 18 -1q-32 47 -78 85l-84 -38q-7 -3 -14 -3q-14 0 -23 10t-9 23q0 20 20 29l47 21l-30 15q-13 6 -13 13q0 4 18 20l19 17q18 16 24 16q4 0 28 -10q41 -21 51 -28l76 34
q7 3 14 3q14 0 23 -10t9 -23q0 -20 -20 -29l-42 -19q83 -70 130 -168t47 -207zM337 234q0 70 -18 128q-20 61 -82 61q-24 0 -42 -8.5t-28.5 -25.5t-17 -33t-9 -40.5t-3 -37.5t-0.5 -34q0 -22 0.5 -35.5t3 -38.5t9 -41.5t17 -34t28.5 -26t42 -8.5q100 0 100 174z" />
    <glyph glyph-name="ntilde" unicode="&#xf1;" horiz-adv-x="483" 
d="M428 44q0 -26 -9 -35t-35 -9h-23q-27 0 -35.5 9.5t-8.5 34.5v294q0 43 -11.5 61.5t-42.5 18.5q-39 0 -68.5 -35.5t-29.5 -99.5v-239q0 -26 -9 -35t-35 -9h-22q-27 0 -36 9.5t-9 35.5v388q0 27 9.5 36t35.5 9h16q27 0 35.5 -9.5t8.5 -34.5v-54h1q46 102 140 102
q72 0 100 -36.5t28 -103.5v-298zM400 663q0 -35 -26 -68.5t-69 -33.5q-39 0 -80 32q-30 23 -45 23q-27 0 -32 -40q-1 -11 -5 -13t-20 -2h-13q-16 0 -21 2.5t-5 14.5q0 35 26 68.5t69 33.5q39 0 80 -32q30 -23 45 -23q27 0 32 40q1 11 5 13t20 2h14q16 0 20.5 -2.5t4.5 -14.5
z" />
    <glyph glyph-name="ograve" unicode="&#xf2;" 
d="M448 232q0 -118 -56 -180q-55 -62 -155 -62q-104 0 -158 64q-53 65 -53 178q0 116 51 183q53 72 160 72q104 0 159 -70q52 -65 52 -185zM337 244q0 23 -0.5 36.5t-3 38.5t-9 40t-17 31.5t-28.5 24.5t-42 8q-29 0 -49 -13t-29.5 -29.5t-15 -45.5t-6 -45.5t-0.5 -45.5
t0.5 -46t6 -46.5t15 -47t29.5 -31t49 -13.5t49 13.5t29.5 31t15 47t6 46.5t0.5 46zM304 557q0 -11 -25 -11h-31l-135 122q-10 9 -10 15q0 8 5 9.5t19 1.5h61q14 0 18 -1.5t10 -9.5l80 -111z" />
    <glyph glyph-name="oacute" unicode="&#xf3;" 
d="M448 232q0 -118 -56 -180q-55 -62 -155 -62q-104 0 -158 64q-53 65 -53 178q0 116 51 183q53 72 160 72q104 0 159 -70q52 -65 52 -185zM337 244q0 23 -0.5 36.5t-3 38.5t-9 40t-17 31.5t-28.5 24.5t-42 8q-29 0 -49 -13t-29.5 -29.5t-15 -45.5t-6 -45.5t-0.5 -45.5
t0.5 -46t6 -46.5t15 -47t29.5 -31t49 -13.5t49 13.5t29.5 31t15 47t6 46.5t0.5 46zM372 683q0 -6 -10 -15l-135 -122h-31q-25 0 -25 11q0 4 8 15l80 111q6 8 10 9.5t18 1.5h61q14 0 19 -1.5t5 -9.5z" />
    <glyph glyph-name="ocircumflex" unicode="&#xf4;" 
d="M448 232q0 -118 -56 -180q-55 -62 -155 -62q-104 0 -158 64q-53 65 -53 178q0 116 51 183q53 72 160 72q104 0 159 -70q52 -65 52 -185zM337 244q0 23 -0.5 36.5t-3 38.5t-9 40t-17 31.5t-28.5 24.5t-42 8q-29 0 -49 -13t-29.5 -29.5t-15 -45.5t-6 -45.5t-0.5 -45.5
t0.5 -46t6 -46.5t15 -47t29.5 -31t49 -13.5t49 13.5t29.5 31t15 47t6 46.5t0.5 46zM399 560q4 -6 0.5 -13.5t-10.5 -7.5h-47q-4 1 -6 2l-98 101l-98 -101l-6 -2h-47q-7 0 -10.5 6.5t0.5 12.5l98 139q3 4 9 4h111q6 0 9 -4z" />
    <glyph glyph-name="otilde" unicode="&#xf5;" 
d="M448 232q0 -118 -56 -180q-55 -62 -155 -62q-104 0 -158 64q-53 65 -53 178q0 116 51 183q53 72 160 72q104 0 159 -70q52 -65 52 -185zM337 244q0 23 -0.5 36.5t-3 38.5t-9 40t-17 31.5t-28.5 24.5t-42 8q-29 0 -49 -13t-29.5 -29.5t-15 -45.5t-6 -45.5t-0.5 -45.5
t0.5 -46t6 -46.5t15 -47t29.5 -31t49 -13.5t49 13.5t29.5 31t15 47t6 46.5t0.5 46zM396 663q0 -35 -26 -68.5t-69 -33.5q-39 0 -80 32q-30 23 -45 23q-27 0 -32 -40q-1 -11 -5 -13t-20 -2h-13q-16 0 -21 2.5t-5 14.5q0 35 26 68.5t69 33.5q39 0 80 -32q30 -23 45 -23
q27 0 32 40q1 11 5 13t20 2h14q16 0 20.5 -2.5t4.5 -14.5z" />
    <glyph glyph-name="odieresis" unicode="&#xf6;" 
d="M448 232q0 -118 -56 -180q-55 -62 -155 -62q-104 0 -158 64q-53 65 -53 178q0 116 51 183q53 72 160 72q104 0 159 -70q52 -65 52 -185zM337 244q0 23 -0.5 36.5t-3 38.5t-9 40t-17 31.5t-28.5 24.5t-42 8q-29 0 -49 -13t-29.5 -29.5t-15 -45.5t-6 -45.5t-0.5 -45.5
t0.5 -46t6 -46.5t15 -47t29.5 -31t49 -13.5t49 13.5t29.5 31t15 47t6 46.5t0.5 46zM192 609q0 -25 -8.5 -33.5t-32.5 -8.5h-30q-24 0 -32 9t-8 33v22q0 26 8.5 34t31.5 8h30q24 0 32.5 -8.5t8.5 -33.5v-22zM395 609q0 -25 -8.5 -33.5t-32.5 -8.5h-30q-24 0 -32 9t-8 33v22
q0 26 8.5 34t31.5 8h30q24 0 32.5 -8.5t8.5 -33.5v-22z" />
    <glyph glyph-name="divide" unicode="&#xf7;" horiz-adv-x="739" 
d="M685 264q0 -35 -45 -35h-542q-45 0 -45 35t51 35h530q51 0 51 -35zM422 412q0 -19 -3.5 -22.5t-21.5 -3.5h-55q-19 0 -22.5 3.5t-3.5 22.5v54q0 19 3.5 22.5t21.5 3.5h56q18 0 21.5 -3.5t3.5 -22.5v-54zM422 62q0 -19 -3.5 -22.5t-21.5 -3.5h-55q-19 0 -22.5 3.5
t-3.5 22.5v54q0 19 3.5 22.5t21.5 3.5h56q18 0 21.5 -3.5t3.5 -22.5v-54z" />
    <glyph glyph-name="oslash" unicode="&#xf8;" 
d="M448 232q0 -118 -56 -180q-55 -62 -155 -62q-46 0 -82 13q-26 -53 -34 -69q-16 -33 -23 -41t-21 -8q-15 0 -24 10.5t-9 21.5q0 7 27 61q10 18 28 56q-73 63 -73 198q0 116 51 183q53 72 160 72q44 0 82 -15l47 92q11 24 31 24q15 0 24 -10.5t9 -21.5q0 -7 -8 -21l-47 -95
q73 -68 73 -208zM288 410q-22 13 -51 13q-26 0 -46 -9t-31.5 -27t-18.5 -35t-10 -43t-3.5 -40t-0.5 -37q0 -80 14 -114zM347 232q0 83 -15 122l-145 -289q22 -11 50 -11q31 0 53.5 13.5t33 30t16.5 45.5t6.5 45.5t0.5 43.5z" />
    <glyph glyph-name="ugrave" unicode="&#xf9;" horiz-adv-x="483" 
d="M428 44q0 -26 -9 -35t-35 -9h-20q-27 0 -35.5 9.5t-8.5 34.5v31q-38 -85 -120 -85q-75 0 -110.5 32t-35.5 107v298q0 27 9.5 36t35.5 9h22q27 0 35.5 -9.5t8.5 -34.5v-306q0 -47 11 -63t49 -16q46 0 69 41t23 97v247q0 26 9 35t35 9h23q27 0 35.5 -9.5t8.5 -34.5v-384z
M308 557q0 -11 -25 -11h-31l-135 122q-10 9 -10 15q0 8 5 9.5t19 1.5h61q14 0 18 -1.5t10 -9.5l80 -111z" />
    <glyph glyph-name="uacute" unicode="&#xfa;" horiz-adv-x="483" 
d="M428 44q0 -26 -9 -35t-35 -9h-20q-27 0 -35.5 9.5t-8.5 34.5v31q-38 -85 -120 -85q-75 0 -110.5 32t-35.5 107v298q0 27 9.5 36t35.5 9h22q27 0 35.5 -9.5t8.5 -34.5v-306q0 -47 11 -63t49 -16q46 0 69 41t23 97v247q0 26 9 35t35 9h23q27 0 35.5 -9.5t8.5 -34.5v-384z
M376 683q0 -6 -10 -15l-135 -122h-31q-25 0 -25 11q0 4 8 15l80 111q6 8 10 9.5t18 1.5h61q14 0 19 -1.5t5 -9.5z" />
    <glyph glyph-name="ucircumflex" unicode="&#xfb;" horiz-adv-x="483" 
d="M428 44q0 -26 -9 -35t-35 -9h-20q-27 0 -35.5 9.5t-8.5 34.5v31q-38 -85 -120 -85q-75 0 -110.5 32t-35.5 107v298q0 27 9.5 36t35.5 9h22q27 0 35.5 -9.5t8.5 -34.5v-306q0 -47 11 -63t49 -16q46 0 69 41t23 97v247q0 26 9 35t35 9h23q27 0 35.5 -9.5t8.5 -34.5v-384z
M403 560q4 -6 0.5 -13.5t-10.5 -7.5h-47q-4 1 -6 2l-98 101l-98 -101l-6 -2h-47q-7 0 -10.5 6.5t0.5 12.5l98 139q3 4 9 4h111q6 0 9 -4z" />
    <glyph glyph-name="udieresis" unicode="&#xfc;" horiz-adv-x="483" 
d="M428 44q0 -26 -9 -35t-35 -9h-20q-27 0 -35.5 9.5t-8.5 34.5v31q-38 -85 -120 -85q-75 0 -110.5 32t-35.5 107v298q0 27 9.5 36t35.5 9h22q27 0 35.5 -9.5t8.5 -34.5v-306q0 -47 11 -63t49 -16q46 0 69 41t23 97v247q0 26 9 35t35 9h23q27 0 35.5 -9.5t8.5 -34.5v-384z
M196 609q0 -25 -8.5 -33.5t-32.5 -8.5h-30q-24 0 -32 9t-8 33v22q0 26 8.5 34t31.5 8h30q24 0 32.5 -8.5t8.5 -33.5v-22zM399 609q0 -25 -8.5 -33.5t-32.5 -8.5h-30q-24 0 -32 9t-8 33v22q0 26 8.5 34t31.5 8h30q24 0 32.5 -8.5t8.5 -33.5v-22z" />
    <glyph glyph-name="yacute" unicode="&#xfd;" horiz-adv-x="431" 
d="M408 447q0 -4 -5 -19l-143 -479q-17 -55 -57 -90.5t-96 -35.5q-54 0 -67 10q-3 3 -6 28.5t-3 35.5q0 14 12 14q2 -1 7 -3q30 -14 58 -14q41 0 60 34q5 8 14.5 36t9.5 35q0 3 -4 15l-159 416l-5 18q0 24 37 24h12q33 0 44 -12t29 -61q80 -211 83 -281q5 61 41 185l37 129
q7 27 20 33.5t39 6.5q14 0 21 -1t14 -6.5t7 -17.5zM350 683q0 -6 -10 -15l-135 -122h-31q-25 0 -25 11q0 4 8 15l80 111q6 8 10 9.5t18 1.5h61q14 0 19 -1.5t5 -9.5z" />
    <glyph glyph-name="thorn" unicode="&#xfe;" horiz-adv-x="483" 
d="M450 238q0 -107 -41 -172q-24 -36 -63 -56t-83 -20q-54 0 -96 45v-158q0 -26 -9 -35t-35 -9h-22q-27 0 -36 9.5t-9 35.5v771q0 27 9.5 36t35.5 9h19q27 0 35.5 -9.5t8.5 -34.5v-226q53 58 124 58q48 0 81.5 -23t50 -62t23.5 -77.5t7 -81.5zM339 236q0 22 -2 42t-9.5 55.5
t-29 57t-54.5 21.5q-45 0 -77 -37v-282q26 -39 68 -39q36 0 59.5 22.5t32 60t10.5 57.5t2 42z" />
    <glyph glyph-name="ydieresis" unicode="&#xff;" horiz-adv-x="431" 
d="M408 447q0 -4 -5 -19l-143 -479q-17 -55 -57 -90.5t-96 -35.5q-54 0 -67 10q-3 3 -6 28.5t-3 35.5q0 14 12 14q2 -1 7 -3q30 -14 58 -14q41 0 60 34q5 8 14.5 36t9.5 35q0 3 -4 15l-159 416l-5 18q0 24 37 24h12q33 0 44 -12t29 -61q80 -211 83 -281q5 61 41 185l37 129
q7 27 20 33.5t39 6.5q14 0 21 -1t14 -6.5t7 -17.5zM170 609q0 -25 -8.5 -33.5t-32.5 -8.5h-30q-24 0 -32 9t-8 33v22q0 26 8.5 34t31.5 8h30q24 0 32.5 -8.5t8.5 -33.5v-22zM373 609q0 -25 -8.5 -33.5t-32.5 -8.5h-30q-24 0 -32 9t-8 33v22q0 26 8.5 34t31.5 8h30
q24 0 32.5 -8.5t8.5 -33.5v-22z" />
    <glyph glyph-name="Amacron" unicode="&#x100;" horiz-adv-x="636" 
d="M600 25q0 -25 -38 -25h-34q-31 0 -41.5 11.5t-23.5 52.5l-33 107h-242l-42 -131q-4 -14 -8 -21t-16 -13t-33 -6h-16q-38 0 -38 25l4 16l193 616q12 37 57 37h57q14 0 22 -1t18.5 -10t16.5 -27l193 -617zM407 246l-56 185q-37 123 -42 157h-1q-5 -34 -39 -149l-58 -193
h196zM490 789q0 -19 -3.5 -22.5t-21.5 -3.5h-291q-19 0 -22.5 3.5t-3.5 22.5v21q0 19 3.5 22.5t21.5 3.5h292q18 0 21.5 -3.5t3.5 -22.5v-21z" />
    <glyph glyph-name="amacron" unicode="&#x101;" horiz-adv-x="453" 
d="M408 44q0 -26 -9 -35t-35 -9h-20q-27 0 -35.5 9.5t-8.5 34.5v25q-16 -29 -50.5 -54t-82.5 -25q-57 0 -94 43t-37 99q0 35 14.5 62.5t41.5 44t52 27.5t59 16t49 6.5t34 2.5q8 1 9.5 3.5t1.5 15.5v20q0 34 -6.5 56t-19.5 30t-21 10t-20 2q-74 0 -125 -50q-11 -10 -16 -10
q-7 0 -9 5.5t-4 23.5q-3 24 -3 36q0 8 4 11.5t20 11.5q64 31 137 31q88 0 131 -41.5t43 -114.5v-287zM297 155v101q-18 -1 -35 -4t-40.5 -11t-40 -20.5t-28.5 -35t-12 -51.5q0 -33 19 -56.5t48 -23.5q10 0 22 3.5t28.5 12.5t27.5 31t11 54zM398 610q0 -19 -3.5 -22.5
t-21.5 -3.5h-291q-19 0 -22.5 3.5t-3.5 22.5v21q0 19 3.5 22.5t21.5 3.5h292q18 0 21.5 -3.5t3.5 -22.5v-21z" />
    <glyph glyph-name="Abreve" unicode="&#x102;" horiz-adv-x="636" 
d="M600 25q0 -25 -38 -25h-34q-31 0 -41.5 11.5t-23.5 52.5l-33 107h-242l-42 -131q-4 -14 -8 -21t-16 -13t-33 -6h-16q-38 0 -38 25l4 16l193 616q12 37 57 37h57q14 0 22 -1t18.5 -10t16.5 -27l193 -617zM407 246l-56 185q-37 123 -42 157h-1q-5 -34 -39 -149l-58 -193
h196zM482 857q0 -42 -40.5 -73t-122.5 -31q-81 0 -122 31t-41 73q0 19 11 27t21 8q28 0 32 -32q3 -27 99 -27q95 0 99 24q4 35 32 35q11 0 21.5 -8.5t10.5 -26.5z" />
    <glyph glyph-name="abreve" unicode="&#x103;" horiz-adv-x="453" 
d="M408 44q0 -26 -9 -35t-35 -9h-20q-27 0 -35.5 9.5t-8.5 34.5v25q-16 -29 -50.5 -54t-82.5 -25q-57 0 -94 43t-37 99q0 35 14.5 62.5t41.5 44t52 27.5t59 16t49 6.5t34 2.5q8 1 9.5 3.5t1.5 15.5v20q0 34 -6.5 56t-19.5 30t-21 10t-20 2q-74 0 -125 -50q-11 -10 -16 -10
q-7 0 -9 5.5t-4 23.5q-3 24 -3 36q0 8 4 11.5t20 11.5q64 31 137 31q88 0 131 -41.5t43 -114.5v-287zM297 155v101q-18 -1 -35 -4t-40.5 -11t-40 -20.5t-28.5 -35t-12 -51.5q0 -33 19 -56.5t48 -23.5q10 0 22 3.5t28.5 12.5t27.5 31t11 54zM390 655q0 -42 -40.5 -73
t-122.5 -31q-81 0 -122 31t-41 73q0 19 11 27t21 8q28 0 32 -32q3 -27 99 -27q95 0 99 24q4 35 32 35q11 0 21.5 -8.5t10.5 -26.5z" />
    <glyph glyph-name="Aogonek" unicode="&#x104;" horiz-adv-x="636" 
d="M632 -133q2 -6 -0.5 -14t-7.5 -10q-62 -26 -100 -27q-44 -1 -70.5 26t-25.5 63q0 53 56 109q-8 10 -21 50l-33 107h-242l-42 -131q-4 -14 -8 -21t-16 -13t-33 -6h-16q-38 0 -38 25l4 16l193 616q12 37 57 37h57q14 0 22 -1t18.5 -10t16.5 -27l193 -617l4 -14
q0 -25 -38 -25q-27 -23 -37.5 -48.5t-2.5 -41.5t31 -16q27 0 49 11q4 3 12 0.5t9 -9.5zM407 246l-56 185q-37 123 -42 157h-1q-5 -34 -39 -149l-58 -193h196z" />
    <glyph glyph-name="aogonek" unicode="&#x105;" horiz-adv-x="453" 
d="M452 -133q2 -6 -0.5 -14t-7.5 -10q-62 -26 -100 -27q-44 -1 -70.5 26t-25.5 63q0 54 56 110q-4 9 -4 29v25q-16 -29 -50.5 -54t-82.5 -25q-57 0 -94 43t-37 99q0 35 14.5 62.5t41.5 44t52 27.5t59 16t49 6.5t34 2.5q8 1 9.5 3.5t1.5 15.5v20q0 34 -6.5 56t-19.5 30
t-21 10t-20 2q-74 0 -125 -50q-11 -10 -16 -10q-7 0 -9 5.5t-4 23.5q-3 24 -3 36q0 8 4 11.5t20 11.5q64 31 137 31q88 0 131 -41.5t43 -114.5v-287q0 -21 -5.5 -30t-21.5 -12q-27 -23 -37.5 -49t-2 -42.5t31.5 -16.5q27 0 49 11q4 3 12 0.5t9 -9.5zM297 155v101
q-18 -1 -35 -4t-40.5 -11t-40 -20.5t-28.5 -35t-12 -51.5q0 -33 19 -56.5t48 -23.5q10 0 22 3.5t28.5 12.5t27.5 31t11 54z" />
    <glyph glyph-name="Cacute" unicode="&#x106;" horiz-adv-x="607" 
d="M558 58q0 -7 -5 -10q-50 -35 -87 -46q-38 -12 -98 -12q-150 0 -233 94q-82 92 -82 263t82 263q83 94 233 94q49 0 88 -8q36 -7 84 -27q7 -3 7 -13l-14 -79q-2 -10 -11 -10q-4 0 -7 3q-38 27 -69 37q-34 11 -78 11q-91 0 -142 -69t-51 -202q0 -132 51 -202q51 -69 142 -69
q54 0 89 11q34 11 77 43l7 2q9 0 11 -10zM510 852l-187 -99h-67q-9 0 -11.5 6t4.5 12l126 103h127q13 0 14.5 -9t-6.5 -13z" />
    <glyph glyph-name="cacute" unicode="&#x107;" horiz-adv-x="422" 
d="M395 62q0 -9 -15 -22t-30 -21l-15 -8q-44 -21 -97 -21q-100 0 -153 64q-53 65 -53 183q0 120 53.5 185t156.5 65q45 0 71 -8t59 -27q16 -13 17 -18q0 -2 -7 -37q-3 -18 -5.5 -23t-8.5 -5q-5 0 -14 9q-27 21 -50 30t-61 9q-34 0 -55.5 -16.5t-30.5 -47t-11.5 -55.5
t-2.5 -60q0 -24 0.5 -39.5t5.5 -44.5t14.5 -47t29 -32.5t47.5 -14.5q69 0 126 57q7 9 13 9q7 0 9 -5t4 -23q3 -24 3 -36zM367 683q0 -6 -10 -15l-135 -122h-31q-25 0 -25 11q0 4 8 15l80 111q6 8 10 9.5t18 1.5h61q14 0 19 -1.5t5 -9.5z" />
    <glyph glyph-name="Ccircumflex" unicode="&#x108;" horiz-adv-x="607" 
d="M558 58q0 -7 -5 -10q-50 -35 -87 -46q-38 -12 -98 -12q-150 0 -233 94q-82 92 -82 263t82 263q83 94 233 94q49 0 88 -8q36 -7 84 -27q7 -3 7 -13l-14 -79q-2 -10 -11 -10q-4 0 -7 3q-38 27 -69 37q-34 11 -78 11q-91 0 -142 -69t-51 -202q0 -132 51 -202q51 -69 142 -69
q54 0 89 11q34 11 77 43l7 2q9 0 11 -10zM507 765q6 -5 3 -13.5t-11 -8.5h-47l-5 1l-112 81l-112 -81l-5 -1h-47q-8 0 -11 7.5t3 12.5l110 104q3 3 8 3h111q5 0 8 -3z" />
    <glyph glyph-name="ccircumflex" unicode="&#x109;" horiz-adv-x="422" 
d="M395 62q0 -9 -15 -22t-30 -21l-15 -8q-44 -21 -97 -21q-100 0 -153 64q-53 65 -53 183q0 120 53.5 185t156.5 65q45 0 71 -8t59 -27q16 -13 17 -18q0 -2 -7 -37q-3 -18 -5.5 -23t-8.5 -5q-5 0 -14 9q-27 21 -50 30t-61 9q-34 0 -55.5 -16.5t-30.5 -47t-11.5 -55.5
t-2.5 -60q0 -24 0.5 -39.5t5.5 -44.5t14.5 -47t29 -32.5t47.5 -14.5q69 0 126 57q7 9 13 9q7 0 9 -5t4 -23q3 -24 3 -36zM394 560q4 -6 0.5 -13.5t-10.5 -7.5h-47q-4 1 -6 2l-98 101l-98 -101l-6 -2h-47q-7 0 -10.5 6.5t0.5 12.5l98 139q3 4 9 4h111q6 0 9 -4z" />
    <glyph glyph-name="Cdotaccent" unicode="&#x10a;" horiz-adv-x="607" 
d="M558 58q0 -7 -5 -10q-50 -35 -87 -46q-38 -12 -98 -12q-150 0 -233 94q-82 92 -82 263t82 263q83 94 233 94q49 0 88 -8q36 -7 84 -27q7 -3 7 -13l-14 -79q-2 -10 -11 -10q-4 0 -7 3q-38 27 -69 37q-34 11 -78 11q-91 0 -142 -69t-51 -202q0 -132 51 -202q51 -69 142 -69
q54 0 89 11q34 11 77 43l7 2q9 0 11 -10zM395 790q0 -28 -9.5 -37.5t-35.5 -9.5h-33q-27 0 -36 10t-9 37v24q0 29 9.5 38t35.5 9h33q27 0 36 -9.5t9 -37.5v-24z" />
    <glyph glyph-name="cdotaccent" unicode="&#x10b;" horiz-adv-x="422" 
d="M395 62q0 -9 -15 -22t-30 -21l-15 -8q-44 -21 -97 -21q-100 0 -153 64q-53 65 -53 183q0 120 53.5 185t156.5 65q45 0 71 -8t59 -27q16 -13 17 -18q0 -2 -7 -37q-3 -18 -5.5 -23t-8.5 -5q-5 0 -14 9q-27 21 -50 30t-61 9q-34 0 -55.5 -16.5t-30.5 -47t-11.5 -55.5
t-2.5 -60q0 -24 0.5 -39.5t5.5 -44.5t14.5 -47t29 -32.5t47.5 -14.5q69 0 126 57q7 9 13 9q7 0 9 -5t4 -23q3 -24 3 -36zM293 608q0 -28 -9.5 -37.5t-35.5 -9.5h-33q-27 0 -36 10t-9 37v24q0 29 9.5 38t35.5 9h33q27 0 36 -9.5t9 -37.5v-24z" />
    <glyph glyph-name="Ccaron" unicode="&#x10c;" horiz-adv-x="607" 
d="M558 58q0 -7 -5 -10q-50 -35 -87 -46q-38 -12 -98 -12q-150 0 -233 94q-82 92 -82 263t82 263q83 94 233 94q49 0 88 -8q36 -7 84 -27q7 -3 7 -13l-14 -79q-2 -10 -11 -10q-4 0 -7 3q-38 27 -69 37q-34 11 -78 11q-91 0 -142 -69t-51 -202q0 -132 51 -202q51 -69 142 -69
q54 0 89 11q34 11 77 43l7 2q9 0 11 -10zM507 850l-110 -104q-3 -3 -8 -3h-111q-5 0 -8 3l-107 102q-6 5 -3 13.5t11 8.5h47l5 -1l112 -81l112 81l5 1h47q8 0 11 -7.5t-3 -12.5z" />
    <glyph glyph-name="ccaron" unicode="&#x10d;" horiz-adv-x="422" 
d="M395 62q0 -9 -15 -22t-30 -21l-15 -8q-44 -21 -97 -21q-100 0 -153 64q-53 65 -53 183q0 120 53.5 185t156.5 65q45 0 71 -8t59 -27q16 -13 17 -18q0 -2 -7 -37q-3 -18 -5.5 -23t-8.5 -5q-5 0 -14 9q-27 21 -50 30t-61 9q-34 0 -55.5 -16.5t-30.5 -47t-11.5 -55.5
t-2.5 -60q0 -24 0.5 -39.5t5.5 -44.5t14.5 -47t29 -32.5t47.5 -14.5q69 0 126 57q7 9 13 9q7 0 9 -5t4 -23q3 -24 3 -36zM394 682l-98 -139q-3 -4 -9 -4h-111q-6 0 -9 4l-95 137q-4 6 -0.5 13.5t10.5 7.5h47q4 -1 6 -2l98 -101l98 101l6 2h47q7 0 10.5 -6.5t-0.5 -12.5z" />
    <glyph glyph-name="Dcaron" unicode="&#x10e;" horiz-adv-x="688" 
d="M633 342q0 -168 -79 -257q-73 -85 -209 -85h-219q-27 0 -36 9.5t-9 35.5v604q0 27 9.5 36t35.5 9h218q69 0 128.5 -27t96.5 -80q64 -92 64 -245zM514 342q0 25 -0.5 41t-4.5 48.5t-11 54t-22 49t-36 44.5t-54 28.5t-75 11.5h-111v-544h112q42 0 75 11t53.5 27t35.5 42.5
t22 47.5t11 52t4.5 46.5t0.5 40.5zM429 850l-110 -104q-3 -3 -8 -3h-111q-5 0 -8 3l-107 102q-6 5 -3 13.5t11 8.5h47l5 -1l112 -81l112 81l5 1h47q8 0 11 -7.5t-3 -12.5z" />
    <glyph glyph-name="dcaron" unicode="&#x10f;" horiz-adv-x="483" 
d="M426 44q0 -26 -9 -35t-35 -9h-23q-27 0 -35.5 9.5t-8.5 34.5q-4 -6 -14 -16.5t-36.5 -24t-56.5 -13.5q-92 0 -141 81q-35 59 -35 165q0 113 43 176q48 70 138 70q64 0 105 -49v217q0 26 9 35t35 9h20q27 0 35.5 -9.5t8.5 -34.5v-606zM315 101v283q-34 34 -68 34
q-30 0 -51 -14t-31 -31.5t-15.5 -47.5t-6 -46.5t-0.5 -43.5q0 -22 0.5 -35.5t3 -38.5t8.5 -40.5t16 -32.5t26.5 -25.5t39.5 -8.5q48 0 78 47zM556 622q0 -17 -7 -32q-32 -66 -38 -77q-5 -11 -8.5 -13t-17.5 -2q-15 0 -19.5 1.5t-4.5 9.5q0 4 10.5 41.5t14.5 47.5
q-18 0 -21.5 3.5t-3.5 20.5v48q0 18 3 21t19 3h51q16 0 19 -3t3 -21v-48z" />
    <glyph glyph-name="Dcroat" unicode="&#x110;" horiz-adv-x="688" 
d="M633 342q0 -168 -79 -257q-73 -85 -209 -85h-219q-27 0 -36 9.5t-9 35.5v259h-24q-13 0 -22.5 9.5t-9.5 22.5v22q0 14 9.5 23t22.5 9h24v259q0 27 9.5 36t35.5 9h218q69 0 128.5 -27t96.5 -80q64 -92 64 -245zM514 342q0 25 -0.5 41t-4.5 48.5t-11 54t-22 49t-36 44.5
t-54 28.5t-75 11.5h-111v-229h56q13 0 22.5 -9.5t9.5 -22.5v-22q0 -13 -9.5 -22.5t-22.5 -9.5h-56v-229h112q42 0 75 11t53.5 27t35.5 42.5t22 47.5t11 52t4.5 46.5t0.5 40.5z" />
    <glyph glyph-name="dcroat" unicode="&#x111;" horiz-adv-x="483" 
d="M501 572q0 -13 -9.5 -22.5t-22.5 -9.5h-43v-496q0 -26 -9 -35t-35 -9h-23q-27 0 -35.5 9.5t-8.5 34.5q-4 -6 -14 -16.5t-36.5 -24t-56.5 -13.5q-92 0 -141 81q-35 59 -35 165q0 113 43 176q48 70 138 70q64 0 105 -49v107h-93q-13 0 -22.5 9.5t-9.5 22.5v22
q0 13 9.5 22.5t22.5 9.5h93v24q0 26 9 35t35 9h20q27 0 35.5 -9.5t8.5 -34.5v-24h43q13 0 22.5 -9.5t9.5 -22.5v-22zM315 101v283q-34 34 -68 34q-30 0 -51 -14t-31 -31.5t-15.5 -47.5t-6 -46.5t-0.5 -43.5q0 -22 0.5 -35.5t3 -38.5t8.5 -40.5t16 -32.5t26.5 -25.5
t39.5 -8.5q48 0 78 47z" />
    <glyph glyph-name="Emacron" unicode="&#x112;" horiz-adv-x="567" 
d="M526 44q0 -26 -9 -35t-35 -9h-356q-27 0 -36 9.5t-9 35.5v601q0 27 9.5 36t35.5 9h343q28 0 36 -10.5t8 -34.5q0 -22 -7 -32t-15.5 -11.5t-29.5 -1.5l-212 3h-46v-205h240q14 0 21.5 -1.5t15 -11t7.5 -28.5q0 -14 -3.5 -23t-11.5 -12t-13.5 -4t-15.5 -1h-240v-226
q18 2 132 2l141 2q19 0 27.5 -1.5t15.5 -11.5t7 -31v-8zM455 789q0 -19 -3.5 -22.5t-21.5 -3.5h-291q-19 0 -22.5 3.5t-3.5 22.5v21q0 19 3.5 22.5t21.5 3.5h292q18 0 21.5 -3.5t3.5 -22.5v-21z" />
    <glyph glyph-name="emacron" unicode="&#x113;" horiz-adv-x="438" 
d="M411 275q0 -26 -9.5 -34.5t-34.5 -8.5h-238q0 -13 0.5 -24t3.5 -35t11 -42t20 -37t33.5 -29.5t49.5 -10.5q77 0 129 62q8 9 13 9q7 0 8.5 -3t3.5 -17q1 -3 1 -4q3 -27 3 -36q0 -23 -63 -53q-49 -22 -99 -22q-31 0 -60 7t-58.5 25t-50.5 45t-34.5 71.5t-13.5 100.5
q0 70 19 121.5t51 77.5t65.5 37.5t69.5 11.5q87 0 133.5 -54.5t46.5 -157.5zM325 279q-1 22 -2 35.5t-6.5 36.5t-14.5 36.5t-27 24.5t-43 11q-48 0 -73.5 -41.5t-28.5 -102.5h195zM391 610q0 -19 -3.5 -22.5t-21.5 -3.5h-291q-19 0 -22.5 3.5t-3.5 22.5v21q0 19 3.5 22.5
t21.5 3.5h292q18 0 21.5 -3.5t3.5 -22.5v-21z" />
    <glyph glyph-name="Ebreve" unicode="&#x114;" horiz-adv-x="567" 
d="M526 44q0 -26 -9 -35t-35 -9h-356q-27 0 -36 9.5t-9 35.5v601q0 27 9.5 36t35.5 9h343q28 0 36 -10.5t8 -34.5q0 -22 -7 -32t-15.5 -11.5t-29.5 -1.5l-212 3h-46v-205h240q14 0 21.5 -1.5t15 -11t7.5 -28.5q0 -14 -3.5 -23t-11.5 -12t-13.5 -4t-15.5 -1h-240v-226
q18 2 132 2l141 2q19 0 27.5 -1.5t15.5 -11.5t7 -31v-8zM447 857q0 -42 -40.5 -73t-122.5 -31q-81 0 -122 31t-41 73q0 19 11 27t21 8q28 0 32 -32q3 -27 99 -27q95 0 99 24q3 35 32 35q11 0 21.5 -8.5t10.5 -26.5z" />
    <glyph glyph-name="ebreve" unicode="&#x115;" horiz-adv-x="438" 
d="M411 275q0 -26 -9.5 -34.5t-34.5 -8.5h-238q0 -13 0.5 -24t3.5 -35t11 -42t20 -37t33.5 -29.5t49.5 -10.5q77 0 129 62q8 9 13 9q7 0 8.5 -3t3.5 -17q1 -3 1 -4q3 -27 3 -36q0 -23 -63 -53q-49 -22 -99 -22q-31 0 -60 7t-58.5 25t-50.5 45t-34.5 71.5t-13.5 100.5
q0 70 19 121.5t51 77.5t65.5 37.5t69.5 11.5q87 0 133.5 -54.5t46.5 -157.5zM325 279q-1 22 -2 35.5t-6.5 36.5t-14.5 36.5t-27 24.5t-43 11q-48 0 -73.5 -41.5t-28.5 -102.5h195zM383 655q0 -42 -40.5 -73t-122.5 -31q-81 0 -122 31t-41 73q0 19 11 27t21 8q28 0 32 -32
q3 -27 99 -27q95 0 99 24q3 35 32 35q11 0 21.5 -8.5t10.5 -26.5z" />
    <glyph glyph-name="Edotaccent" unicode="&#x116;" horiz-adv-x="567" 
d="M526 44q0 -26 -9 -35t-35 -9h-356q-27 0 -36 9.5t-9 35.5v601q0 27 9.5 36t35.5 9h343q28 0 36 -10.5t8 -34.5q0 -22 -7 -32t-15.5 -11.5t-29.5 -1.5l-212 3h-46v-205h240q14 0 21.5 -1.5t15 -11t7.5 -28.5q0 -14 -3.5 -23t-11.5 -12t-13.5 -4t-15.5 -1h-240v-226
q18 2 132 2l141 2q19 0 27.5 -1.5t15.5 -11.5t7 -31v-8zM344 790q0 -28 -9.5 -37.5t-35.5 -9.5h-33q-27 0 -36 10t-9 37v24q0 29 9.5 38t35.5 9h33q27 0 36 -9.5t9 -37.5v-24z" />
    <glyph glyph-name="edotaccent" unicode="&#x117;" horiz-adv-x="438" 
d="M411 275q0 -26 -9.5 -34.5t-34.5 -8.5h-238q0 -13 0.5 -24t3.5 -35t11 -42t20 -37t33.5 -29.5t49.5 -10.5q77 0 129 62q8 9 13 9q7 0 8.5 -3t3.5 -17q1 -3 1 -4q3 -27 3 -36q0 -23 -63 -53q-49 -22 -99 -22q-31 0 -60 7t-58.5 25t-50.5 45t-34.5 71.5t-13.5 100.5
q0 70 19 121.5t51 77.5t65.5 37.5t69.5 11.5q87 0 133.5 -54.5t46.5 -157.5zM325 279q-1 22 -2 35.5t-6.5 36.5t-14.5 36.5t-27 24.5t-43 11q-48 0 -73.5 -41.5t-28.5 -102.5h195zM280 608q0 -28 -9.5 -37.5t-35.5 -9.5h-33q-27 0 -36 10t-9 37v24q0 29 9.5 38t35.5 9h33
q27 0 36 -9.5t9 -37.5v-24z" />
    <glyph glyph-name="Eogonek" unicode="&#x118;" horiz-adv-x="567" 
d="M526 44q0 -26 -9 -35t-35 -9h-36q-27 -23 -36 -48.5t0.5 -41.5t32.5 -16q27 0 49 11q4 3 12 0.5t9 -9.5l9 -29q2 -6 -0.5 -14t-7.5 -10q-62 -26 -100 -27q-44 -1 -70.5 26t-25.5 63q0 57 41 95h-233q-27 0 -36 9.5t-9 35.5v601q0 27 9.5 36t35.5 9h343q28 0 36 -10.5
t8 -34.5q0 -22 -7 -32t-15.5 -11.5t-29.5 -1.5l-212 3h-46v-205h240q14 0 21.5 -1.5t15 -11t7.5 -28.5q0 -14 -3.5 -23t-11.5 -12t-13.5 -4t-15.5 -1h-240v-226q18 2 132 2l141 2q19 0 27.5 -1.5t15.5 -11.5t7 -31v-8z" />
    <glyph glyph-name="eogonek" unicode="&#x119;" horiz-adv-x="438" 
d="M411 275q0 -26 -9.5 -34.5t-34.5 -8.5h-238q0 -13 0.5 -24t3.5 -35t11 -42t20 -37t33.5 -29.5t49.5 -10.5q77 0 129 62q8 9 13 9q7 0 8.5 -3t3.5 -17q1 -3 1 -4q3 -27 3 -36q0 -23 -63 -53q-26 -11 -35 -13q-27 -23 -36.5 -48t0 -41t32.5 -16q27 0 49 11q4 3 12 0.5
t9 -9.5l9 -29q2 -6 -0.5 -14t-7.5 -10q-62 -26 -100 -27q-44 -1 -70.5 26t-25.5 63q0 46 35 87q-79 9 -133 67.5t-54 179.5q0 70 19 121.5t51 77.5t65.5 37.5t69.5 11.5q87 0 133.5 -54.5t46.5 -157.5zM325 279q-1 22 -2 35.5t-6.5 36.5t-14.5 36.5t-27 24.5t-43 11
q-48 0 -73.5 -41.5t-28.5 -102.5h195z" />
    <glyph glyph-name="Ecaron" unicode="&#x11a;" horiz-adv-x="567" 
d="M526 44q0 -26 -9 -35t-35 -9h-356q-27 0 -36 9.5t-9 35.5v601q0 27 9.5 36t35.5 9h343q28 0 36 -10.5t8 -34.5q0 -22 -7 -32t-15.5 -11.5t-29.5 -1.5l-212 3h-46v-205h240q14 0 21.5 -1.5t15 -11t7.5 -28.5q0 -14 -3.5 -23t-11.5 -12t-13.5 -4t-15.5 -1h-240v-226
q18 2 132 2l141 2q19 0 27.5 -1.5t15.5 -11.5t7 -31v-8zM456 850l-110 -104q-3 -3 -8 -3h-111q-5 0 -8 3l-107 102q-6 5 -3 13.5t11 8.5h47l5 -1l112 -81l112 81l5 1h47q8 0 11 -7.5t-3 -12.5z" />
    <glyph glyph-name="ecaron" unicode="&#x11b;" horiz-adv-x="438" 
d="M411 275q0 -26 -9.5 -34.5t-34.5 -8.5h-238q0 -13 0.5 -24t3.5 -35t11 -42t20 -37t33.5 -29.5t49.5 -10.5q77 0 129 62q8 9 13 9q7 0 8.5 -3t3.5 -17q1 -3 1 -4q3 -27 3 -36q0 -23 -63 -53q-49 -22 -99 -22q-31 0 -60 7t-58.5 25t-50.5 45t-34.5 71.5t-13.5 100.5
q0 70 19 121.5t51 77.5t65.5 37.5t69.5 11.5q87 0 133.5 -54.5t46.5 -157.5zM325 279q-1 22 -2 35.5t-6.5 36.5t-14.5 36.5t-27 24.5t-43 11q-48 0 -73.5 -41.5t-28.5 -102.5h195zM381 682l-98 -139q-3 -4 -9 -4h-111q-6 0 -9 4l-95 137q-4 6 -0.5 13.5t10.5 7.5h47
q4 -1 6 -2l98 -101l98 101l6 2h47q7 0 10.5 -6.5t-0.5 -12.5z" />
    <glyph glyph-name="Gcircumflex" unicode="&#x11c;" horiz-adv-x="633" 
d="M568 50q0 -7 -6 -10q-89 -50 -194 -50q-150 0 -233 94q-82 92 -82 263t82 263q83 94 233 94q54 0 97 -11q39 -11 90 -39q5 -3 5 -12l-14 -79q-2 -10 -11 -10q-1 0 -7 3q-37 33 -74 48q-38 14 -86 14q-91 0 -142 -69t-51 -202q0 -132 51 -202q51 -69 142 -69q43 0 89 11
v171h-78q-11 0 -11 11v59q0 11 11 11h178q11 0 11 -11v-278zM489 765q6 -5 3 -13.5t-11 -8.5h-47l-5 1l-112 81l-112 -81l-5 -1h-47q-8 0 -11 7.5t3 12.5l110 104q3 3 8 3h111q5 0 8 -3z" />
    <glyph glyph-name="gcircumflex" unicode="&#x11d;" horiz-adv-x="483" 
d="M426 27q0 -92 -46 -153t-147 -61q-82 0 -151 33q-11 6 -13.5 10t-2.5 20v23q0 26 11 26q5 0 13 -7q66 -41 141 -41q84 0 84 123v93h-1q-28 -72 -100 -72q-90 0 -139 63q-43 56 -43 154q0 108 44 171q50 73 145 73q61 0 97 -58q0 35 6.5 46.5t37.5 11.5h20q27 0 35.5 -9.5
t8.5 -34.5v-411zM318 272v63q0 33 -20 58t-51 25t-52.5 -17t-32 -45.5t-15 -57t-4.5 -60.5q0 -19 2 -36.5t9.5 -48.5t28.5 -49.5t53 -18.5q78 0 79 163q0 14 3 24zM370 560q4 -6 0.5 -13.5t-10.5 -7.5h-47q-4 1 -6 2l-98 101l-98 -101l-6 -2h-47q-7 0 -10.5 6.5t0.5 12.5
l98 139q3 4 9 4h111q6 0 9 -4z" />
    <glyph glyph-name="Gbreve" unicode="&#x11e;" horiz-adv-x="633" 
d="M568 50q0 -7 -6 -10q-89 -50 -194 -50q-150 0 -233 94q-82 92 -82 263t82 263q83 94 233 94q54 0 97 -11q39 -11 90 -39q5 -3 5 -12l-14 -79q-2 -10 -11 -10q-1 0 -7 3q-37 33 -74 48q-38 14 -86 14q-91 0 -142 -69t-51 -202q0 -132 51 -202q51 -69 142 -69q43 0 89 11
v171h-78q-11 0 -11 11v59q0 11 11 11h178q11 0 11 -11v-278zM480 857q0 -42 -40.5 -73t-122.5 -31q-81 0 -122 31t-41 73q0 19 11 27t21 8q28 0 32 -32q3 -27 99 -27q95 0 99 24q4 35 32 35q11 0 21.5 -8.5t10.5 -26.5z" />
    <glyph glyph-name="gbreve" unicode="&#x11f;" horiz-adv-x="483" 
d="M426 27q0 -92 -46 -153t-147 -61q-82 0 -151 33q-11 6 -13.5 10t-2.5 20v23q0 26 11 26q5 0 13 -7q66 -41 141 -41q84 0 84 123v93h-1q-28 -72 -100 -72q-90 0 -139 63q-43 56 -43 154q0 108 44 171q50 73 145 73q61 0 97 -58q0 35 6.5 46.5t37.5 11.5h20q27 0 35.5 -9.5
t8.5 -34.5v-411zM318 272v63q0 33 -20 58t-51 25t-52.5 -17t-32 -45.5t-15 -57t-4.5 -60.5q0 -19 2 -36.5t9.5 -48.5t28.5 -49.5t53 -18.5q78 0 79 163q0 14 3 24zM372 655q0 -42 -40.5 -73t-122.5 -31q-81 0 -122 31t-41 73q0 19 11 27t21 8q28 0 32 -32q3 -27 99 -27
q95 0 99 24q4 35 32 35q11 0 21.5 -8.5t10.5 -26.5z" />
    <glyph glyph-name="Gdotaccent" unicode="&#x120;" horiz-adv-x="633" 
d="M568 50q0 -7 -6 -10q-89 -50 -194 -50q-150 0 -233 94q-82 92 -82 263t82 263q83 94 233 94q54 0 97 -11q39 -11 90 -39q5 -3 5 -12l-14 -79q-2 -10 -11 -10q-1 0 -7 3q-37 33 -74 48q-38 14 -86 14q-91 0 -142 -69t-51 -202q0 -132 51 -202q51 -69 142 -69q43 0 89 11
v171h-78q-11 0 -11 11v59q0 11 11 11h178q11 0 11 -11v-278zM378 790q0 -28 -9.5 -37.5t-35.5 -9.5h-33q-27 0 -36 10t-9 37v24q0 29 9.5 38t35.5 9h33q27 0 36 -9.5t9 -37.5v-24z" />
    <glyph glyph-name="gdotaccent" unicode="&#x121;" horiz-adv-x="483" 
d="M426 27q0 -92 -46 -153t-147 -61q-82 0 -151 33q-11 6 -13.5 10t-2.5 20v23q0 26 11 26q5 0 13 -7q66 -41 141 -41q84 0 84 123v93h-1q-28 -72 -100 -72q-90 0 -139 63q-43 56 -43 154q0 108 44 171q50 73 145 73q61 0 97 -58q0 35 6.5 46.5t37.5 11.5h20q27 0 35.5 -9.5
t8.5 -34.5v-411zM318 272v63q0 33 -20 58t-51 25t-52.5 -17t-32 -45.5t-15 -57t-4.5 -60.5q0 -19 2 -36.5t9.5 -48.5t28.5 -49.5t53 -18.5q78 0 79 163q0 14 3 24zM269 608q0 -28 -9.5 -37.5t-35.5 -9.5h-33q-27 0 -36 10t-9 37v24q0 29 9.5 38t35.5 9h33q27 0 36 -9.5
t9 -37.5v-24z" />
    <glyph glyph-name="Gcommaaccent" unicode="&#x122;" horiz-adv-x="633" 
d="M568 50q0 -7 -6 -10q-89 -50 -194 -50q-150 0 -233 94q-82 92 -82 263t82 263q83 94 233 94q54 0 97 -11q39 -11 90 -39q5 -3 5 -12l-14 -79q-2 -10 -11 -10q-1 0 -7 3q-37 33 -74 48q-38 14 -86 14q-91 0 -142 -69t-51 -202q0 -132 51 -202q51 -69 142 -69q43 0 89 11
v171h-78q-11 0 -11 11v59q0 11 11 11h178q11 0 11 -11v-278zM364 -140q0 -17 -7 -32q-32 -66 -38 -77q-5 -11 -8.5 -13t-17.5 -2q-15 0 -19.5 1.5t-4.5 9.5q0 4 10.5 41.5t14.5 47.5q-18 0 -21.5 3.5t-3.5 20.5v48q0 18 3 21t19 3h51q16 0 19 -3t3 -21v-48z" />
    <glyph glyph-name="gcommaaccent" unicode="&#x123;" horiz-adv-x="483" 
d="M256 565q0 -18 -3 -21t-19 -3h-51q-16 0 -19 3t-3 21v48q0 17 7 32q32 66 38 77q5 11 8.5 13t17.5 2t19 -1.5t5 -9.5q0 -4 -11 -41.5t-14 -47.5q18 0 21.5 -3.5t3.5 -20.5v-48zM426 27q0 -92 -46 -153t-147 -61q-82 0 -151 33q-11 6 -13.5 10t-2.5 20v23q0 26 11 26
q5 0 13 -7q66 -41 141 -41q84 0 84 123v93h-1q-28 -72 -100 -72q-90 0 -139 63q-43 56 -43 154q0 108 44 171q50 73 145 73q61 0 97 -58q0 35 6.5 46.5t37.5 11.5h20q27 0 35.5 -9.5t8.5 -34.5v-411zM318 272v63q0 33 -20 58t-51 25t-52.5 -17t-32 -45.5t-15 -57t-4.5 -60.5
q0 -19 2 -36.5t9.5 -48.5t28.5 -49.5t53 -18.5q78 0 79 163q0 14 3 24z" />
    <glyph glyph-name="Hcircumflex" unicode="&#x124;" horiz-adv-x="678" 
d="M596 44q0 -26 -9 -35t-35 -9h-34q-27 0 -35.5 9.5t-8.5 34.5v276h-271v-276q0 -26 -9 -35t-35 -9h-33q-27 0 -36 9.5t-9 35.5v604q0 27 9.5 36t35.5 9h33q27 0 35.5 -9.5t8.5 -34.5v-249h271v249q0 26 9 35t35 9h34q27 0 35.5 -9.5t8.5 -34.5v-606zM511 765q6 -5 3 -13.5
t-11 -8.5h-47l-5 1l-112 81l-112 -81l-5 -1h-47q-8 0 -11 7.5t3 12.5l110 104q3 3 8 3h111q5 0 8 -3z" />
    <glyph glyph-name="hcircumflex" unicode="&#x125;" horiz-adv-x="483" 
d="M428 44q0 -26 -9 -35t-35 -9h-23q-27 0 -35.5 9.5t-8.5 34.5v294q0 43 -11.5 61.5t-42.5 18.5q-39 0 -68.5 -35.5t-29.5 -99.5v-239q0 -26 -9 -35t-35 -9h-22q-27 0 -36 9.5t-9 35.5v604q0 27 9.5 36t35.5 9h19q27 0 35.5 -9.5t8.5 -34.5v-263h1q44 95 137 95
q72 0 100 -36.5t28 -103.5v-298zM414 765q6 -5 3 -13.5t-11 -8.5h-47l-5 1l-112 81l-112 -81l-5 -1h-47q-8 0 -11 7.5t3 12.5l110 104q3 3 8 3h111q5 0 8 -3z" />
    <glyph glyph-name="Hbar" unicode="&#x126;" horiz-adv-x="678" 
d="M671 510q0 -13 -9.5 -22.5t-22.5 -9.5h-43v-434q0 -26 -9 -35t-35 -9h-34q-27 0 -35.5 9.5t-8.5 34.5v276h-271v-276q0 -26 -9 -35t-35 -9h-33q-27 0 -36 9.5t-9 35.5v433h-43q-13 0 -22.5 9.5t-9.5 22.5v22q0 13 9.5 22.5t22.5 9.5h43v85q0 27 9.5 36t35.5 9h33
q27 0 35.5 -9.5t8.5 -34.5v-86h271v86q0 26 9 35t35 9h34q27 0 35.5 -9.5t8.5 -34.5v-86h43q13 0 22.5 -9.5t9.5 -22.5v-22zM474 401v77h-271v-77h271z" />
    <glyph glyph-name="hbar" unicode="&#x127;" horiz-adv-x="483" 
d="M428 44q0 -26 -9 -35t-35 -9h-23q-27 0 -35.5 9.5t-8.5 34.5v294q0 43 -11.5 61.5t-42.5 18.5q-39 0 -68.5 -35.5t-29.5 -99.5v-239q0 -26 -9 -35t-35 -9h-22q-27 0 -36 9.5t-9 35.5v495h-43q-13 0 -22.5 9.5t-9.5 22.5v22q0 13 9.5 22.5t22.5 9.5h43v23q0 27 9.5 36
t35.5 9h19q27 0 35.5 -9.5t8.5 -34.5v-24h48q13 0 22.5 -9.5t9.5 -22.5v-22q0 -13 -9.5 -22.5t-22.5 -9.5h-48v-153h1q44 95 137 95q72 0 100 -36.5t28 -103.5v-298z" />
    <glyph glyph-name="Itilde" unicode="&#x128;" horiz-adv-x="283" 
d="M202 44q0 -26 -9 -35t-35 -9h-33q-27 0 -36 9.5t-9 35.5v604q0 27 9.5 36t35.5 9h33q27 0 35.5 -9.5t8.5 -34.5v-606zM300 845q0 -35 -26 -68.5t-69 -33.5q-39 0 -80 32q-30 23 -45 23q-27 0 -32 -40q-1 -11 -5 -13t-20 -2h-13q-16 0 -21 2.5t-5 14.5q0 35 26 68.5
t69 33.5q39 0 80 -32q30 -23 45 -23q27 0 32 40q1 11 5 13t20 2h14q16 0 20.5 -2.5t4.5 -14.5z" />
    <glyph glyph-name="itilde" unicode="&#x129;" horiz-adv-x="219" 
d="M163 44q0 -26 -9 -35t-35 -9h-19q-27 0 -36 9.5t-9 35.5v382q0 27 9.5 36t35.5 9h19q27 0 35.5 -9.5t8.5 -34.5v-384zM268 663q0 -35 -26 -68.5t-69 -33.5q-39 0 -80 32q-30 23 -45 23q-27 0 -32 -40q-1 -11 -5 -13t-20 -2h-13q-16 0 -21 2.5t-5 14.5q0 35 26 68.5
t69 33.5q39 0 80 -32q30 -23 45 -23q27 0 32 40q1 11 5 13t20 2h14q16 0 20.5 -2.5t4.5 -14.5z" />
    <glyph glyph-name="Imacron" unicode="&#x12a;" horiz-adv-x="283" 
d="M202 44q0 -26 -9 -35t-35 -9h-33q-27 0 -36 9.5t-9 35.5v604q0 27 9.5 36t35.5 9h33q27 0 35.5 -9.5t8.5 -34.5v-606zM313 789q0 -19 -3.5 -22.5t-21.5 -3.5h-291q-19 0 -22.5 3.5t-3.5 22.5v21q0 19 3.5 22.5t21.5 3.5h292q18 0 21.5 -3.5t3.5 -22.5v-21z" />
    <glyph glyph-name="imacron" unicode="&#x12b;" horiz-adv-x="219" 
d="M163 44q0 -26 -9 -35t-35 -9h-19q-27 0 -36 9.5t-9 35.5v382q0 27 9.5 36t35.5 9h19q27 0 35.5 -9.5t8.5 -34.5v-384zM281 610q0 -19 -3.5 -22.5t-21.5 -3.5h-291q-19 0 -22.5 3.5t-3.5 22.5v21q0 19 3.5 22.5t21.5 3.5h292q18 0 21.5 -3.5t3.5 -22.5v-21z" />
    <glyph glyph-name="Ibreve" unicode="&#x12c;" horiz-adv-x="283" 
d="M202 44q0 -26 -9 -35t-35 -9h-33q-27 0 -36 9.5t-9 35.5v604q0 27 9.5 36t35.5 9h33q27 0 35.5 -9.5t8.5 -34.5v-606zM305 857q0 -42 -40.5 -73t-122.5 -31q-81 0 -122 31t-41 73q0 19 11 27t21 8q28 0 32 -32q3 -27 99 -27q95 0 99 24q3 35 32 35q11 0 21.5 -8.5
t10.5 -26.5z" />
    <glyph glyph-name="ibreve" unicode="&#x12d;" horiz-adv-x="219" 
d="M163 44q0 -26 -9 -35t-35 -9h-19q-27 0 -36 9.5t-9 35.5v382q0 27 9.5 36t35.5 9h19q27 0 35.5 -9.5t8.5 -34.5v-384zM273 655q0 -42 -40.5 -73t-122.5 -31q-81 0 -122 31t-41 73q0 19 11 27t21 8q28 0 32 -32q3 -27 99 -27q95 0 99 24q3 35 32 35q11 0 21.5 -8.5
t10.5 -26.5z" />
    <glyph glyph-name="Iogonek" unicode="&#x12e;" horiz-adv-x="283" 
d="M243 -133q2 -6 -0.5 -14t-7.5 -10q-62 -26 -100 -27q-44 -1 -70.5 26t-25.5 63q2 63 53 102q-12 8 -12 38v604q0 27 9.5 36t35.5 9h33q27 0 35.5 -9.5t8.5 -34.5v-606q0 -26 -9 -35t-34 -9q-27 -29 -29 -70q-1 -16 8 -26t26 -10q27 0 49 11q4 3 12 0.5t9 -9.5z" />
    <glyph glyph-name="iogonek" unicode="&#x12f;" horiz-adv-x="219" 
d="M170 620q0 -29 -9.5 -38t-35.5 -9h-33q-27 0 -35.5 9.5t-8.5 32.5v38q0 25 9.5 33.5t34.5 8.5h33q27 0 36 -9.5t9 -37.5v-28zM211 -133q2 -6 -0.5 -14t-7.5 -10q-62 -26 -100 -27q-44 -1 -70.5 26t-25.5 63q2 67 57 104q-9 9 -9 36v382q0 27 9.5 36t35.5 9h19
q27 0 35.5 -9.5t8.5 -34.5v-384q0 -24 -7.5 -33.5t-28.5 -10.5q-27 -29 -29 -70q-1 -16 8 -26t26 -10q27 0 49 11q4 3 12 0.5t9 -9.5z" />
    <glyph glyph-name="Idotaccent" unicode="&#x130;" horiz-adv-x="283" 
d="M202 44q0 -26 -9 -35t-35 -9h-33q-27 0 -36 9.5t-9 35.5v604q0 27 9.5 36t35.5 9h33q27 0 35.5 -9.5t8.5 -34.5v-606zM203 790q0 -28 -9.5 -37.5t-35.5 -9.5h-33q-27 0 -36 10t-9 37v24q0 29 9.5 38t35.5 9h33q27 0 36 -9.5t9 -37.5v-24z" />
    <glyph glyph-name="dotlessi" unicode="&#x131;" horiz-adv-x="219" 
d="M163 44q0 -26 -9 -35t-35 -9h-19q-27 0 -36 9.5t-9 35.5v382q0 27 9.5 36t35.5 9h19q27 0 35.5 -9.5t8.5 -34.5v-384z" />
    <glyph glyph-name="Jcircumflex" unicode="&#x134;" horiz-adv-x="450" 
d="M368 147q0 -78 -45 -122t-120 -44q-71 0 -141 34q-20 11 -21 16q-1 2 -1 5q0 20 12 68q3 12 12 12q6 0 13 -10q39 -46 98 -46q74 0 74 93v497q0 26 9 35t35 9h31q27 0 35.5 -9.5t8.5 -34.5v-503zM482 765q6 -5 3 -13.5t-11 -8.5h-47l-5 1l-112 81l-112 -81l-5 -1h-47
q-8 0 -11 7.5t3 12.5l110 104q3 3 8 3h111q5 0 8 -3z" />
    <glyph glyph-name="jcircumflex" unicode="&#x135;" horiz-adv-x="246" 
d="M190 -25q0 -75 -34.5 -113.5t-93.5 -38.5q-38 0 -81 14t-43 27q0 2 4 14t4 15q5 15 7.5 19t8.5 4q1 0 13 -6q24 -14 52 -14q25 0 38.5 12t15 22.5t1.5 27.5v470q0 26 9 35t35 9h20q27 0 35.5 -9.5t8.5 -34.5v-453zM291 560q4 -6 0.5 -13.5t-10.5 -7.5h-47q-4 1 -6 2
l-98 101l-98 -101l-6 -2h-47q-7 0 -10.5 6.5t0.5 12.5l98 139q3 4 9 4h111q6 0 9 -4z" />
    <glyph glyph-name="Kcommaaccent" unicode="&#x136;" horiz-adv-x="663" 
d="M605 27q0 -13 -5 -19t-10.5 -7t-18.5 -1h-39q-20 0 -28 3.5t-18 19.5l-197 306l-97 -106v-179q0 -26 -9 -35t-35 -9h-22q-27 0 -36 9.5t-9 35.5v604q0 27 9.5 36t35.5 9h22q27 0 35.5 -9.5t8.5 -34.5v-289l286 312q19 21 52 21h37q33 0 33 -19q0 -7 -12 -20l-227 -248z
M379 -140q0 -17 -7 -32q-32 -66 -38 -77q-5 -11 -8.5 -13t-17.5 -2t-19 1.5t-5 9.5q0 4 11 41.5t14 47.5q-18 0 -21.5 3.5t-3.5 20.5v48q0 18 3 21t19 3h51q16 0 19 -3t3 -21v-48z" />
    <glyph glyph-name="kcommaaccent" unicode="&#x137;" horiz-adv-x="457" 
d="M424 21q0 -21 -34 -21h-28q-31 0 -41 15l-123 198l-42 -44v-125q0 -26 -9 -35t-35 -9h-6q-27 0 -36 9.5t-9 35.5v604q0 27 9.5 36t35.5 9h9q27 0 35.5 -9.5t8.5 -34.5v-345l134 147q9 10 17.5 14.5t14.5 5t19 0.5h33q33 0 33 -19q0 -7 -12 -20l-136 -148l155 -248
q7 -10 7 -16zM276 -140q0 -17 -7 -32q-32 -66 -38 -77q-5 -11 -8.5 -13t-17.5 -2q-15 0 -19.5 1.5t-4.5 9.5q0 4 10.5 41.5t14.5 47.5q-18 0 -21.5 3.5t-3.5 20.5v48q0 18 3 21t19 3h51q16 0 19 -3t3 -21v-48z" />
    <glyph glyph-name="Lacute" unicode="&#x139;" horiz-adv-x="514" 
d="M473 45q0 -25 -8 -35t-36 -10h-303q-27 0 -36 9.5t-9 35.5v604q0 27 9.5 36t35.5 9h33q27 0 35.5 -9.5t8.5 -34.5v-563l228 4q20 0 29.5 -7.5t11 -15.5t1.5 -23zM347 852l-187 -99h-67q-9 0 -11.5 6t4.5 12l126 103h127q13 0 14.5 -9t-6.5 -13z" />
    <glyph glyph-name="lacute" unicode="&#x13a;" horiz-adv-x="219" 
d="M163 44q0 -26 -9 -35t-35 -9h-19q-27 0 -36 9.5t-9 35.5v604q0 27 9.5 36t35.5 9h19q27 0 35.5 -9.5t8.5 -34.5v-606zM321 852l-187 -99h-67q-9 0 -11.5 6t4.5 12l126 103h127q13 0 14.5 -9t-6.5 -13z" />
    <glyph glyph-name="Lcommaaccent" unicode="&#x13b;" horiz-adv-x="514" 
d="M473 45q0 -25 -8 -35t-36 -10h-303q-27 0 -36 9.5t-9 35.5v604q0 27 9.5 36t35.5 9h33q27 0 35.5 -9.5t8.5 -34.5v-563l228 4q20 0 29.5 -7.5t11 -15.5t1.5 -23zM304 -140q0 -17 -7 -32q-32 -66 -38 -77q-5 -11 -8.5 -13t-17.5 -2q-15 0 -19.5 1.5t-4.5 9.5
q0 4 10.5 41.5t14.5 47.5q-18 0 -21.5 3.5t-3.5 20.5v48q0 18 3 21t19 3h51q16 0 19 -3t3 -21v-48z" />
    <glyph glyph-name="lcommaaccent" unicode="&#x13c;" horiz-adv-x="219" 
d="M163 44q0 -26 -9 -35t-35 -9h-19q-27 0 -36 9.5t-9 35.5v604q0 27 9.5 36t35.5 9h19q27 0 35.5 -9.5t8.5 -34.5v-606zM157 -140q0 -17 -7 -32q-32 -66 -38 -77q-5 -11 -8.5 -13t-17.5 -2t-19 1.5t-5 9.5q0 4 11 41.5t14 47.5q-18 0 -21.5 3.5t-3.5 20.5v48q0 18 3 21
t19 3h51q16 0 19 -3t3 -21v-48z" />
    <glyph glyph-name="Lcaron" unicode="&#x13d;" horiz-adv-x="514" 
d="M473 45q0 -25 -8 -35t-36 -10h-303q-27 0 -36 9.5t-9 35.5v604q0 27 9.5 36t35.5 9h33q27 0 35.5 -9.5t8.5 -34.5v-563l228 4q20 0 29.5 -7.5t11 -15.5t1.5 -23zM351 622q0 -17 -7 -32q-32 -66 -38 -77q-5 -11 -8.5 -13t-17.5 -2t-19 1.5t-5 9.5q0 4 11 41.5t14 47.5
q-18 0 -21.5 3.5t-3.5 20.5v48q0 18 3 21t19 3h51q16 0 19 -3t3 -21v-48z" />
    <glyph glyph-name="lcaron" unicode="&#x13e;" horiz-adv-x="219" 
d="M163 44q0 -26 -9 -35t-35 -9h-19q-27 0 -36 9.5t-9 35.5v604q0 27 9.5 36t35.5 9h19q27 0 35.5 -9.5t8.5 -34.5v-606zM293 622q0 -17 -7 -32q-32 -66 -38 -77q-5 -11 -8.5 -13t-17.5 -2t-19 1.5t-5 9.5q0 4 11 41.5t14 47.5q-18 0 -21.5 3.5t-3.5 20.5v48q0 18 3 21t19 3
h51q16 0 19 -3t3 -21v-48z" />
    <glyph glyph-name="Ldot" unicode="&#x13f;" horiz-adv-x="514" 
d="M473 45q0 -25 -8 -35t-36 -10h-303q-27 0 -36 9.5t-9 35.5v604q0 27 9.5 36t35.5 9h33q27 0 35.5 -9.5t8.5 -34.5v-563l228 4q20 0 29.5 -7.5t11 -15.5t1.5 -23zM460 354q0 -28 -9.5 -37.5t-35.5 -9.5h-33q-27 0 -36 10t-9 37v24q0 29 9.5 38t35.5 9h33q27 0 36 -9.5
t9 -37.5v-24z" />
    <glyph glyph-name="ldot" unicode="&#x140;" horiz-adv-x="358" 
d="M163 44q0 -26 -9 -35t-35 -9h-19q-27 0 -36 9.5t-9 35.5v604q0 27 9.5 36t35.5 9h19q27 0 35.5 -9.5t8.5 -34.5v-606zM349 354q0 -28 -9.5 -37.5t-35.5 -9.5h-33q-27 0 -36 10t-9 37v24q0 29 9.5 38t35.5 9h33q27 0 36 -9.5t9 -37.5v-24z" />
    <glyph glyph-name="Lslash" unicode="&#x141;" horiz-adv-x="593" 
d="M557 45q0 -25 -8 -35t-36 -10h-303q-27 0 -36 9.5t-9 35.5v219l-41 -39q-12 -13 -26 1l-29 31q-12 14 1 26l95 89v277q0 27 9.5 36t35.5 9h33q27 0 35.5 -9.5t8.5 -34.5v-164l110 102q13 13 26 -1l29 -30q13 -15 -1 -27l-164 -153v-290l228 4q20 0 29.5 -7.5t11 -15.5
t1.5 -23z" />
    <glyph glyph-name="lslash" unicode="&#x142;" horiz-adv-x="328" 
d="M307 552q21 -25 -2 -46l-98 -92v-370q0 -26 -9 -35t-35 -9h-19q-27 0 -36 9.5t-9 35.5v268l-37 -35q-23 -21 -46 2q-10 10 -9.5 23.5t10.5 22.5l82 77v246q0 27 9.5 36t35.5 9h19q27 0 35.5 -9.5t8.5 -34.5v-146l53 50q10 10 24 9.5t23 -11.5z" />
    <glyph glyph-name="Nacute" unicode="&#x143;" horiz-adv-x="678" 
d="M596 44q0 -26 -9 -35t-35 -9h-73q-27 0 -40 8t-23 32l-189 442q-31 75 -41 106h-1v-544q0 -26 -9 -35t-35 -9h-15q-27 0 -36 9.5t-9 35.5v604q0 27 9.5 36t35.5 9h72q27 0 40 -8t23 -32l189 -442q31 -75 41 -106h1v544q0 26 9 35t35 9h16q27 0 35.5 -9.5t8.5 -34.5v-606z
M514 852l-187 -99h-67q-9 0 -11.5 6t4.5 12l126 103h127q13 0 14.5 -9t-6.5 -13z" />
    <glyph glyph-name="nacute" unicode="&#x144;" horiz-adv-x="483" 
d="M428 44q0 -26 -9 -35t-35 -9h-23q-27 0 -35.5 9.5t-8.5 34.5v294q0 43 -11.5 61.5t-42.5 18.5q-39 0 -68.5 -35.5t-29.5 -99.5v-239q0 -26 -9 -35t-35 -9h-22q-27 0 -36 9.5t-9 35.5v388q0 27 9.5 36t35.5 9h16q27 0 35.5 -9.5t8.5 -34.5v-54h1q46 102 140 102
q72 0 100 -36.5t28 -103.5v-298zM376 683q0 -6 -10 -15l-135 -122h-31q-25 0 -25 11q0 4 8 15l80 111q6 8 10 9.5t18 1.5h61q14 0 19 -1.5t5 -9.5z" />
    <glyph glyph-name="Ncommaaccent" unicode="&#x145;" horiz-adv-x="678" 
d="M596 44q0 -26 -9 -35t-35 -9h-73q-27 0 -40 8t-23 32l-189 442q-31 75 -41 106h-1v-544q0 -26 -9 -35t-35 -9h-15q-27 0 -36 9.5t-9 35.5v604q0 27 9.5 36t35.5 9h72q27 0 40 -8t23 -32l189 -442q31 -75 41 -106h1v544q0 26 9 35t35 9h16q27 0 35.5 -9.5t8.5 -34.5v-606z
M386 -140q0 -17 -7 -32q-32 -66 -38 -77q-5 -11 -8.5 -13t-17.5 -2q-15 0 -19.5 1.5t-4.5 9.5q0 4 10.5 41.5t14.5 47.5q-18 0 -21.5 3.5t-3.5 20.5v48q0 18 3 21t19 3h51q16 0 19 -3t3 -21v-48z" />
    <glyph glyph-name="ncommaaccent" unicode="&#x146;" horiz-adv-x="483" 
d="M428 44q0 -26 -9 -35t-35 -9h-23q-27 0 -35.5 9.5t-8.5 34.5v294q0 43 -11.5 61.5t-42.5 18.5q-39 0 -68.5 -35.5t-29.5 -99.5v-239q0 -26 -9 -35t-35 -9h-22q-27 0 -36 9.5t-9 35.5v388q0 27 9.5 36t35.5 9h16q27 0 35.5 -9.5t8.5 -34.5v-54h1q46 102 140 102
q72 0 100 -36.5t28 -103.5v-298zM289 -140q0 -17 -7 -32q-32 -66 -38 -77q-5 -11 -8.5 -13t-17.5 -2t-19 1.5t-5 9.5q0 4 11 41.5t14 47.5q-18 0 -21.5 3.5t-3.5 20.5v48q0 18 3 21t19 3h51q16 0 19 -3t3 -21v-48z" />
    <glyph glyph-name="Ncaron" unicode="&#x147;" horiz-adv-x="678" 
d="M596 44q0 -26 -9 -35t-35 -9h-73q-27 0 -40 8t-23 32l-189 442q-31 75 -41 106h-1v-544q0 -26 -9 -35t-35 -9h-15q-27 0 -36 9.5t-9 35.5v604q0 27 9.5 36t35.5 9h72q27 0 40 -8t23 -32l189 -442q31 -75 41 -106h1v544q0 26 9 35t35 9h16q27 0 35.5 -9.5t8.5 -34.5v-606z
M511 850l-110 -104q-3 -3 -8 -3h-111q-5 0 -8 3l-107 102q-6 5 -3 13.5t11 8.5h47l5 -1l112 -81l112 81l5 1h47q8 0 11 -7.5t-3 -12.5z" />
    <glyph glyph-name="ncaron" unicode="&#x148;" horiz-adv-x="483" 
d="M428 44q0 -26 -9 -35t-35 -9h-23q-27 0 -35.5 9.5t-8.5 34.5v294q0 43 -11.5 61.5t-42.5 18.5q-39 0 -68.5 -35.5t-29.5 -99.5v-239q0 -26 -9 -35t-35 -9h-22q-27 0 -36 9.5t-9 35.5v388q0 27 9.5 36t35.5 9h16q27 0 35.5 -9.5t8.5 -34.5v-54h1q46 102 140 102
q72 0 100 -36.5t28 -103.5v-298zM403 682l-98 -139q-3 -4 -9 -4h-111q-6 0 -9 4l-95 137q-4 6 -0.5 13.5t10.5 7.5h47q4 -1 6 -2l98 -101l98 101l6 2h47q7 0 10.5 -6.5t-0.5 -12.5z" />
    <glyph glyph-name="Eng" unicode="&#x14a;" horiz-adv-x="678" 
d="M596 347q0 -64 -11 -123t-32.5 -109.5t-58.5 -85t-84 -44.5q-15 -3 -26 7t-11 26v38q0 29 36 44q19 9 32 29t19 40.5t9.5 56.5t4 58t0.5 63v45.5t-1.5 43.5t-4 44t-7 38t-12 34.5t-18 25t-25.5 18t-33 5.5q-62 0 -109 -40t-61 -100v-417q0 -26 -9 -35t-35 -9h-33
q-27 0 -36 9.5t-9 35.5v604q0 27 9.5 36t35.5 9h33q25 0 34 -8.5t10 -29.5q74 57 170 57q75 0 127 -55t74 -135t22 -176z" />
    <glyph glyph-name="eng" unicode="&#x14b;" horiz-adv-x="483" 
d="M428 44q0 -75 -33.5 -135t-91.5 -77q-14 -4 -25.5 6.5t-11.5 26.5v11q0 8 33 54q18 24 18 114v294q0 43 -11.5 61.5t-42.5 18.5q-39 0 -68.5 -35.5t-29.5 -99.5v-239q0 -26 -9 -35t-35 -9h-22q-27 0 -36 9.5t-9 35.5v388q0 27 9.5 36t35.5 9h16q27 0 35.5 -9.5t8.5 -34.5
v-54h1q46 102 140 102q72 0 100 -36.5t28 -103.5v-298z" />
    <glyph glyph-name="Omacron" unicode="&#x14c;" horiz-adv-x="697" 
d="M643 342q0 -177 -79 -270q-77 -91 -216 -91q-138 0 -213 87q-82 95 -82 274q0 163 66 261q36 53 96.5 81.5t132.5 28.5q160 0 238 -125q57 -91 57 -246zM521 358q0 132 -34 198q-45 87 -139 87q-91 0 -136 -82q-37 -65 -37 -203q0 -130 30 -201q25 -59 65 -81.5t78 -22.5
t78 22.5t65 80.5q30 71 30 202zM520 789q0 -19 -3.5 -22.5t-21.5 -3.5h-291q-19 0 -22.5 3.5t-3.5 22.5v21q0 19 3.5 22.5t21.5 3.5h292q18 0 21.5 -3.5t3.5 -22.5v-21z" />
    <glyph glyph-name="omacron" unicode="&#x14d;" 
d="M448 232q0 -118 -56 -180q-55 -62 -155 -62q-104 0 -158 64q-53 65 -53 178q0 116 51 183q53 72 160 72q104 0 159 -70q52 -65 52 -185zM337 244q0 23 -0.5 36.5t-3 38.5t-9 40t-17 31.5t-28.5 24.5t-42 8q-29 0 -49 -13t-29.5 -29.5t-15 -45.5t-6 -45.5t-0.5 -45.5
t0.5 -46t6 -46.5t15 -47t29.5 -31t49 -13.5t49 13.5t29.5 31t15 47t6 46.5t0.5 46zM409 610q0 -19 -3.5 -22.5t-21.5 -3.5h-291q-19 0 -22.5 3.5t-3.5 22.5v21q0 19 3.5 22.5t21.5 3.5h292q18 0 21.5 -3.5t3.5 -22.5v-21z" />
    <glyph glyph-name="Obreve" unicode="&#x14e;" horiz-adv-x="697" 
d="M643 342q0 -177 -79 -270q-77 -91 -216 -91q-138 0 -213 87q-82 95 -82 274q0 163 66 261q36 53 96.5 81.5t132.5 28.5q160 0 238 -125q57 -91 57 -246zM521 358q0 132 -34 198q-45 87 -139 87q-91 0 -136 -82q-37 -65 -37 -203q0 -130 30 -201q25 -59 65 -81.5t78 -22.5
t78 22.5t65 80.5q30 71 30 202zM512 857q0 -42 -40.5 -73t-122.5 -31q-81 0 -122 31t-41 73q0 19 11 27t21 8q28 0 32 -32q3 -27 99 -27q95 0 99 24q4 35 32 35q11 0 21.5 -8.5t10.5 -26.5z" />
    <glyph glyph-name="obreve" unicode="&#x14f;" 
d="M448 232q0 -118 -56 -180q-55 -62 -155 -62q-104 0 -158 64q-53 65 -53 178q0 116 51 183q53 72 160 72q104 0 159 -70q52 -65 52 -185zM337 244q0 23 -0.5 36.5t-3 38.5t-9 40t-17 31.5t-28.5 24.5t-42 8q-29 0 -49 -13t-29.5 -29.5t-15 -45.5t-6 -45.5t-0.5 -45.5
t0.5 -46t6 -46.5t15 -47t29.5 -31t49 -13.5t49 13.5t29.5 31t15 47t6 46.5t0.5 46zM401 655q0 -42 -40.5 -73t-122.5 -31q-81 0 -122 31t-41 73q0 19 11 27t21 8q28 0 32 -32q3 -27 99 -27q95 0 99 24q3 35 32 35q11 0 21.5 -8.5t10.5 -26.5z" />
    <glyph glyph-name="Ohungarumlaut" unicode="&#x150;" horiz-adv-x="697" 
d="M643 342q0 -177 -79 -270q-77 -91 -216 -91q-138 0 -213 87q-82 95 -82 274q0 163 66 261q36 53 96.5 81.5t132.5 28.5q160 0 238 -125q57 -91 57 -246zM521 358q0 132 -34 198q-45 87 -139 87q-91 0 -136 -82q-37 -65 -37 -203q0 -130 30 -201q25 -59 65 -81.5t78 -22.5
t78 22.5t65 80.5q30 71 30 202zM347 890q0 -4 -6 -14l-62 -109q-6 -10 -10 -12t-19 -2h-13q-10 0 -14.5 0.5t-8 3t-3.5 8.5l24 115q3 15 7 18t20 3h61q14 0 19 -1.5t5 -9.5zM505 890q0 -4 -6 -14l-62 -109q-6 -10 -10 -12t-19 -2h-13q-10 0 -14.5 0.5t-8 3t-3.5 8.5l24 115
q3 15 7 18t20 3h61q14 0 19 -1.5t5 -9.5z" />
    <glyph glyph-name="ohungarumlaut" unicode="&#x151;" 
d="M448 232q0 -118 -56 -180q-55 -62 -155 -62q-104 0 -158 64q-53 65 -53 178q0 116 51 183q53 72 160 72q104 0 159 -70q52 -65 52 -185zM337 244q0 23 -0.5 36.5t-3 38.5t-9 40t-17 31.5t-28.5 24.5t-42 8q-29 0 -49 -13t-29.5 -29.5t-15 -45.5t-6 -45.5t-0.5 -45.5
t0.5 -46t6 -46.5t15 -47t29.5 -31t49 -13.5t49 13.5t29.5 31t15 47t6 46.5t0.5 46zM236 683q0 -4 -6 -14l-62 -109q-6 -10 -10 -12t-19 -2h-13q-10 0 -14.5 0.5t-8 3t-3.5 8.5l24 115q3 15 7 18t20 3h61q14 0 19 -1.5t5 -9.5zM394 683q0 -4 -6 -14l-62 -109q-6 -10 -10 -12
t-19 -2h-13q-10 0 -14.5 0.5t-8 3t-3.5 8.5l24 115q3 15 7 18t20 3h61q14 0 19 -1.5t5 -9.5z" />
    <glyph glyph-name="OE" unicode="&#x152;" horiz-adv-x="925" 
d="M884 44q0 -26 -9 -35t-35 -9h-328q-30 0 -82 -9q-61 -10 -88 -10q-158 0 -240 103q-74 94 -74 258q0 179 85 277q40 47 101 70.5t128 23.5q27 0 88 -10q52 -9 82 -9h315q28 0 36 -10.5t8 -34.5q0 -22 -7 -32t-15.5 -11.5t-28.5 -1.5l-207 3h-43v-207h231q14 0 21.5 -1.5
t15 -11t7.5 -28.5q0 -14 -3.5 -23t-11.5 -12t-13.5 -4t-15.5 -1h-231v-227l130 2l134 2q19 0 27.5 -1.5t15.5 -11.5t7 -31v-8zM450 347q0 179 -5 214q-6 47 -25 67.5t-74 20.5q-41 0 -73.5 -14t-53 -34t-35.5 -51t-21.5 -55.5t-10.5 -56.5t-4.5 -46.5t-0.5 -32.5
q0 -139 43 -218q24 -45 64.5 -70.5t91.5 -25.5q25 0 43 4t29 16t17.5 23t9.5 36.5t3.5 44t0.5 57.5z" />
    <glyph glyph-name="oe" unicode="&#x153;" horiz-adv-x="739" 
d="M712 276q0 -25 -9 -34.5t-35 -9.5h-217q4 -178 109 -178q71 0 118 63q6 8 12 8q7 0 8.5 -3t3.5 -17q1 -3 1 -4q3 -27 3 -36q0 -10 -18 -27t-54.5 -32.5t-77.5 -15.5q-102 0 -159 67q-59 -67 -160 -67q-104 0 -158 68q-53 65 -53 181q0 112 51 178q54 70 160 70
q100 0 158 -64q58 64 149 64q89 0 132 -64q36 -55 36 -147zM623 279q-1 22 -2 34.5t-5.5 36.5t-12 37.5t-22.5 24.5t-36 11q-42 0 -66 -41.5t-27 -102.5h171zM340 243q0 22 -0.5 35t-3 37.5t-9.5 40.5t-17.5 33t-29 25.5t-43.5 8.5t-44.5 -8.5t-30.5 -26t-18 -33.5
t-9.5 -40.5t-3 -37.5t-0.5 -34t0.5 -34t3 -39t9.5 -43t18 -35.5t30.5 -28t44.5 -9.5t43.5 9.5t29 27.5t17.5 35t9.5 43t3 39.5t0.5 34.5z" />
    <glyph glyph-name="Racute" unicode="&#x154;" horiz-adv-x="614" 
d="M573 22q0 -22 -35 -22h-42q-21 0 -28 4t-15 20l-148 291h-105v-271q0 -26 -9 -35t-35 -9h-30q-27 0 -36 9.5t-9 35.5v604q0 27 9.5 36t35.5 9h199q116 0 175.5 -53.5t59.5 -140.5q0 -135 -143 -176l150 -287q6 -12 6 -15zM446 499q0 57 -27.5 88.5t-107.5 31.5h-111v-240
h110q81 0 108.5 32t27.5 88zM482 852l-187 -99h-67q-9 0 -11.5 6t4.5 12l126 103h127q13 0 14.5 -9t-6.5 -13z" />
    <glyph glyph-name="racute" unicode="&#x155;" horiz-adv-x="321" 
d="M307 427q0 -18 -2.5 -21.5t-15.5 -4.5q-54 -5 -89.5 -46.5t-35.5 -108.5v-202q0 -26 -9 -35t-35 -9h-19q-27 0 -36 9.5t-9 35.5v388q0 27 9.5 36t35.5 9h14q27 0 35.5 -9.5t8.5 -34.5v-66h1q20 58 56.5 86t74.5 28q11 0 13.5 -4.5t2.5 -21.5v-29zM257 683q0 -6 -10 -15
l-135 -122h-31q-25 0 -25 11q0 4 8 15l80 111q6 8 10 9.5t18 1.5h61q14 0 19 -1.5t5 -9.5z" />
    <glyph glyph-name="Rcommaaccent" unicode="&#x156;" horiz-adv-x="614" 
d="M573 22q0 -22 -35 -22h-42q-21 0 -28 4t-15 20l-148 291h-105v-271q0 -26 -9 -35t-35 -9h-30q-27 0 -36 9.5t-9 35.5v604q0 27 9.5 36t35.5 9h199q116 0 175.5 -53.5t59.5 -140.5q0 -135 -143 -176l150 -287q6 -12 6 -15zM446 499q0 57 -27.5 88.5t-107.5 31.5h-111v-240
h110q81 0 108.5 32t27.5 88zM354 -140q0 -17 -7 -32q-32 -66 -38 -77q-5 -11 -8.5 -13t-17.5 -2q-15 0 -19.5 1.5t-4.5 9.5q0 4 10.5 41.5t14.5 47.5q-18 0 -21.5 3.5t-3.5 20.5v48q0 18 3 21t19 3h51q16 0 19 -3t3 -21v-48z" />
    <glyph glyph-name="rcommaaccent" unicode="&#x157;" horiz-adv-x="321" 
d="M307 427q0 -18 -2.5 -21.5t-15.5 -4.5q-54 -5 -89.5 -46.5t-35.5 -108.5v-202q0 -26 -9 -35t-35 -9h-19q-27 0 -36 9.5t-9 35.5v388q0 27 9.5 36t35.5 9h14q27 0 35.5 -9.5t8.5 -34.5v-66h1q20 58 56.5 86t74.5 28q11 0 13.5 -4.5t2.5 -21.5v-29zM158 -140q0 -17 -7 -32
q-32 -66 -38 -77q-5 -11 -8.5 -13t-17.5 -2q-15 0 -19.5 1.5t-4.5 9.5q0 4 10.5 41.5t14.5 47.5q-18 0 -21.5 3.5t-3.5 20.5v48q0 18 3 21t19 3h51q16 0 19 -3t3 -21v-48z" />
    <glyph glyph-name="Rcaron" unicode="&#x158;" horiz-adv-x="614" 
d="M573 22q0 -22 -35 -22h-42q-21 0 -28 4t-15 20l-148 291h-105v-271q0 -26 -9 -35t-35 -9h-30q-27 0 -36 9.5t-9 35.5v604q0 27 9.5 36t35.5 9h199q116 0 175.5 -53.5t59.5 -140.5q0 -135 -143 -176l150 -287q6 -12 6 -15zM446 499q0 57 -27.5 88.5t-107.5 31.5h-111v-240
h110q81 0 108.5 32t27.5 88zM479 850l-110 -104q-3 -3 -8 -3h-111q-5 0 -8 3l-107 102q-6 5 -3 13.5t11 8.5h47l5 -1l112 -81l112 81l5 1h47q8 0 11 -7.5t-3 -12.5z" />
    <glyph glyph-name="rcaron" unicode="&#x159;" horiz-adv-x="321" 
d="M307 427q0 -18 -2.5 -21.5t-15.5 -4.5q-54 -5 -89.5 -46.5t-35.5 -108.5v-202q0 -26 -9 -35t-35 -9h-19q-27 0 -36 9.5t-9 35.5v388q0 27 9.5 36t35.5 9h14q27 0 35.5 -9.5t8.5 -34.5v-66h1q20 58 56.5 86t74.5 28q11 0 13.5 -4.5t2.5 -21.5v-29zM322 682l-98 -139
q-3 -4 -9 -4h-111q-6 0 -9 4l-95 137q-4 6 -0.5 13.5t10.5 7.5h47q4 -1 6 -2l98 -101l98 101l6 2h47q7 0 10.5 -6.5t-0.5 -12.5z" />
    <glyph glyph-name="Sacute" unicode="&#x15a;" horiz-adv-x="528" 
d="M474 195q0 -96 -53 -155t-158 -59q-102 0 -192 55q-21 13 -25 16.5t-4 10.5q0 18 13 74q3 14 12 14q5 0 16 -10q79 -67 179 -67q60 0 83.5 32.5t23.5 77.5q0 40 -20.5 67.5t-46.5 38.5q-3 1 -14.5 4t-27 7.5t-23.5 6.5q-49 12 -75 24.5t-58 45.5q-7 7 -16 19t-22 45.5
t-13 69.5q0 88 51.5 144.5t160.5 56.5q85 0 153 -40q17 -10 20.5 -13t3.5 -9q0 -18 -13 -74q-3 -14 -12 -14q-5 0 -12 7q-60 56 -139 56q-50 0 -79 -24t-29 -75q0 -39 33 -75q12 -12 27.5 -17.5t63.5 -18.5q35 -9 52 -14.5t42 -20.5t44 -38q54 -64 54 -148zM439 852
l-187 -99h-67q-9 0 -11.5 6t4.5 12l126 103h127q13 0 14.5 -9t-6.5 -13z" />
    <glyph glyph-name="sacute" unicode="&#x15b;" horiz-adv-x="364" 
d="M342 140q0 -150 -154 -150q-50 0 -97 17q-65 24 -65 43q0 3 5 29t6 30q0 12 11 12q6 0 16 -10q52 -52 122 -52t70 65q0 20 -6.5 33.5t-21 21.5t-24.5 11t-30 8q-142 29 -142 148q0 141 155 141q66 0 118 -27q15 -7 18 -10t3 -9q0 -16 -7 -37q-3 -18 -5.5 -22.5t-8.5 -4.5
q-5 0 -11 5q-49 43 -113 43q-63 0 -63 -59q0 -18 5.5 -30.5t19.5 -20t24 -10.5t32 -8q25 -5 38.5 -9t32.5 -15.5t35 -29.5q37 -43 37 -103zM317 683q0 -6 -10 -15l-135 -122h-31q-25 0 -25 11q0 4 8 15l80 111q6 8 10 9.5t18 1.5h61q14 0 19 -1.5t5 -9.5z" />
    <glyph glyph-name="Scircumflex" unicode="&#x15c;" horiz-adv-x="528" 
d="M474 195q0 -96 -53 -155t-158 -59q-102 0 -192 55q-21 13 -25 16.5t-4 10.5q0 18 13 74q3 14 12 14q5 0 16 -10q79 -67 179 -67q60 0 83.5 32.5t23.5 77.5q0 40 -20.5 67.5t-46.5 38.5q-3 1 -14.5 4t-27 7.5t-23.5 6.5q-49 12 -75 24.5t-58 45.5q-7 7 -16 19t-22 45.5
t-13 69.5q0 88 51.5 144.5t160.5 56.5q85 0 153 -40q17 -10 20.5 -13t3.5 -9q0 -18 -13 -74q-3 -14 -12 -14q-5 0 -12 7q-60 56 -139 56q-50 0 -79 -24t-29 -75q0 -39 33 -75q12 -12 27.5 -17.5t63.5 -18.5q35 -9 52 -14.5t42 -20.5t44 -38q54 -64 54 -148zM436 765
q6 -5 3 -13.5t-11 -8.5h-47l-5 1l-112 81l-112 -81l-5 -1h-47q-8 0 -11 7.5t3 12.5l110 104q3 3 8 3h111q5 0 8 -3z" />
    <glyph glyph-name="scircumflex" unicode="&#x15d;" horiz-adv-x="364" 
d="M342 140q0 -150 -154 -150q-50 0 -97 17q-65 24 -65 43q0 3 5 29t6 30q0 12 11 12q6 0 16 -10q52 -52 122 -52t70 65q0 20 -6.5 33.5t-21 21.5t-24.5 11t-30 8q-142 29 -142 148q0 141 155 141q66 0 118 -27q15 -7 18 -10t3 -9q0 -16 -7 -37q-3 -18 -5.5 -22.5t-8.5 -4.5
q-5 0 -11 5q-49 43 -113 43q-63 0 -63 -59q0 -18 5.5 -30.5t19.5 -20t24 -10.5t32 -8q25 -5 38.5 -9t32.5 -15.5t35 -29.5q37 -43 37 -103zM344 560q4 -6 0.5 -13.5t-10.5 -7.5h-47q-4 1 -6 2l-98 101l-98 -101l-6 -2h-47q-7 0 -10.5 6.5t0.5 12.5l98 139q3 4 9 4h111
q6 0 9 -4z" />
    <glyph glyph-name="Scedilla" unicode="&#x15e;" horiz-adv-x="528" 
d="M474 195q0 -96 -53 -155t-158 -59q-102 0 -192 55q-21 13 -25 16.5t-4 10.5q0 18 13 74q3 14 12 14q5 0 16 -10q79 -67 179 -67q60 0 83.5 32.5t23.5 77.5q0 40 -20.5 67.5t-46.5 38.5q-3 1 -14.5 4t-27 7.5t-23.5 6.5q-49 12 -75 24.5t-58 45.5q-7 7 -16 19t-22 45.5
t-13 69.5q0 88 51.5 144.5t160.5 56.5q85 0 153 -40q17 -10 20.5 -13t3.5 -9q0 -18 -13 -74q-3 -14 -12 -14q-5 0 -12 7q-60 56 -139 56q-50 0 -79 -24t-29 -75q0 -39 33 -75q12 -12 27.5 -17.5t63.5 -18.5q35 -9 52 -14.5t42 -20.5t44 -38q54 -64 54 -148zM310 -51
q0 -6 -4 -14l-46 -104q-5 -11 -9 -13t-20 -2h-36q-25 0 -25 11q0 4 6 14l68 106q6 9 10 11t18 2h13q25 0 25 -11z" />
    <glyph glyph-name="scedilla" unicode="&#x15f;" horiz-adv-x="364" 
d="M342 140q0 -150 -154 -150q-50 0 -97 17q-65 24 -65 43q0 3 5 29t6 30q0 12 11 12q6 0 16 -10q52 -52 122 -52t70 65q0 20 -6.5 33.5t-21 21.5t-24.5 11t-30 8q-142 29 -142 148q0 141 155 141q66 0 118 -27q15 -7 18 -10t3 -9q0 -16 -7 -37q-3 -18 -5.5 -22.5t-8.5 -4.5
q-5 0 -11 5q-49 43 -113 43q-63 0 -63 -59q0 -18 5.5 -30.5t19.5 -20t24 -10.5t32 -8q25 -5 38.5 -9t32.5 -15.5t35 -29.5q37 -43 37 -103zM228 -51q0 -6 -4 -14l-46 -104q-5 -11 -9 -13t-20 -2h-36q-25 0 -25 11q0 4 6 14l68 106q6 9 10 11t18 2h13q25 0 25 -11z" />
    <glyph glyph-name="Scaron" unicode="&#x160;" horiz-adv-x="528" 
d="M474 195q0 -96 -53 -155t-158 -59q-102 0 -192 55q-21 13 -25 16.5t-4 10.5q0 18 13 74q3 14 12 14q5 0 16 -10q79 -67 179 -67q60 0 83.5 32.5t23.5 77.5q0 40 -20.5 67.5t-46.5 38.5q-3 1 -14.5 4t-27 7.5t-23.5 6.5q-49 12 -75 24.5t-58 45.5q-7 7 -16 19t-22 45.5
t-13 69.5q0 88 51.5 144.5t160.5 56.5q85 0 153 -40q17 -10 20.5 -13t3.5 -9q0 -18 -13 -74q-3 -14 -12 -14q-5 0 -12 7q-60 56 -139 56q-50 0 -79 -24t-29 -75q0 -39 33 -75q12 -12 27.5 -17.5t63.5 -18.5q35 -9 52 -14.5t42 -20.5t44 -38q54 -64 54 -148zM436 850
l-110 -104q-3 -3 -8 -3h-111q-5 0 -8 3l-107 102q-6 5 -3 13.5t11 8.5h47l5 -1l112 -81l112 81l5 1h47q8 0 11 -7.5t-3 -12.5z" />
    <glyph glyph-name="scaron" unicode="&#x161;" horiz-adv-x="364" 
d="M342 140q0 -150 -154 -150q-50 0 -97 17q-65 24 -65 43q0 3 5 29t6 30q0 12 11 12q6 0 16 -10q52 -52 122 -52t70 65q0 20 -6.5 33.5t-21 21.5t-24.5 11t-30 8q-142 29 -142 148q0 141 155 141q66 0 118 -27q15 -7 18 -10t3 -9q0 -16 -7 -37q-3 -18 -5.5 -22.5t-8.5 -4.5
q-5 0 -11 5q-49 43 -113 43q-63 0 -63 -59q0 -18 5.5 -30.5t19.5 -20t24 -10.5t32 -8q25 -5 38.5 -9t32.5 -15.5t35 -29.5q37 -43 37 -103zM344 682l-98 -139q-3 -4 -9 -4h-111q-6 0 -9 4l-95 137q-4 6 -0.5 13.5t10.5 7.5h47q4 -1 6 -2l98 -101l98 101l6 2h47
q7 0 10.5 -6.5t-0.5 -12.5z" />
    <glyph glyph-name="Tcedilla" unicode="&#x162;" horiz-adv-x="644" 
d="M609 643q0 -28 -9.5 -36.5t-36.5 -8.5l-180 3v-557q0 -26 -9 -35t-35 -9h-33q-27 0 -36 9.5t-9 35.5v556l-180 -3q-28 0 -37.5 8.5t-9.5 36.5q0 27 9.5 36t35.5 9h486q28 0 36 -10.5t8 -34.5zM354 -32q0 -6 -4 -14l-46 -104q-5 -11 -9 -13t-20 -2h-36q-25 0 -25 11
q0 4 6 14l68 106q6 9 10 11t18 2h13q25 0 25 -11z" />
    <glyph glyph-name="tcedilla" unicode="&#x163;" horiz-adv-x="346" 
d="M318 50q0 -8 -20 -21.5t-57 -26t-74 -12.5q-88 0 -88 131v287h-17q-44 0 -44 32t45 32h19v90q0 27 9.5 36t35.5 9h13q27 0 35.5 -9.5t8.5 -34.5v-91h74q44 0 44 -32t-44 -32h-74v-269q0 -79 34 -79q39 0 63 28q8 12 15 12q6 0 8.5 -4t6.5 -17q0 -1 3.5 -14t3.5 -15z
M225 -32q0 -6 -4 -14l-46 -104q-5 -11 -9 -13t-20 -2h-36q-25 0 -25 11q0 4 6 14l68 106q6 9 10 11t18 2h13q25 0 25 -11z" />
    <glyph glyph-name="Tcaron" unicode="&#x164;" horiz-adv-x="644" 
d="M609 643q0 -28 -9.5 -36.5t-36.5 -8.5l-180 3v-557q0 -26 -9 -35t-35 -9h-33q-27 0 -36 9.5t-9 35.5v556l-180 -3q-28 0 -37.5 8.5t-9.5 36.5q0 27 9.5 36t35.5 9h486q28 0 36 -10.5t8 -34.5zM495 850l-110 -104q-3 -3 -8 -3h-111q-5 0 -8 3l-107 102q-6 5 -3 13.5
t11 8.5h47l5 -1l112 -81l112 81l5 1h47q8 0 11 -7.5t-3 -12.5z" />
    <glyph glyph-name="tcaron" unicode="&#x165;" horiz-adv-x="346" 
d="M318 50q0 -8 -20 -21.5t-57 -26t-74 -12.5q-88 0 -88 131v287h-17q-44 0 -44 32t45 32h19v90q0 27 9.5 36t35.5 9h13q27 0 35.5 -9.5t8.5 -34.5v-91h74q44 0 44 -32t-44 -32h-74v-269q0 -79 34 -79q39 0 63 28q8 12 15 12q6 0 8.5 -4t6.5 -17q0 -1 3.5 -14t3.5 -15z
M314 631q0 -17 -7 -32q-32 -66 -38 -77q-5 -11 -8.5 -13t-17.5 -2q-15 0 -19.5 1.5t-4.5 9.5q0 4 10.5 41.5t14.5 47.5q-18 0 -21.5 3.5t-3.5 20.5v48q0 18 3 21t19 3h51q16 0 19 -3t3 -21v-48z" />
    <glyph glyph-name="Utilde" unicode="&#x168;" horiz-adv-x="657" 
d="M575 228q0 -109 -62 -178t-183 -69t-185 68.5t-64 178.5v421q0 27 9.5 36t35.5 9h33q27 0 35.5 -9.5t8.5 -34.5v-423q0 -171 128 -171q133 0 133 172v422q0 26 9 35t35 9h23q27 0 35.5 -9.5t8.5 -34.5v-422zM487 845q0 -35 -26 -68.5t-69 -33.5q-39 0 -80 32
q-30 23 -45 23q-27 0 -32 -40q-1 -11 -5 -13t-20 -2h-13q-17 0 -21.5 2.5t-4.5 14.5q0 35 26 68.5t69 33.5q39 0 80 -32q30 -23 45 -23q27 0 32 40q1 11 5 13t20 2h14q16 0 20.5 -2.5t4.5 -14.5z" />
    <glyph glyph-name="utilde" unicode="&#x169;" horiz-adv-x="483" 
d="M428 44q0 -26 -9 -35t-35 -9h-20q-27 0 -35.5 9.5t-8.5 34.5v31q-38 -85 -120 -85q-75 0 -110.5 32t-35.5 107v298q0 27 9.5 36t35.5 9h22q27 0 35.5 -9.5t8.5 -34.5v-306q0 -47 11 -63t49 -16q46 0 69 41t23 97v247q0 26 9 35t35 9h23q27 0 35.5 -9.5t8.5 -34.5v-384z
M400 663q0 -35 -26 -68.5t-69 -33.5q-39 0 -80 32q-30 23 -45 23q-27 0 -32 -40q-1 -11 -5 -13t-20 -2h-13q-16 0 -21 2.5t-5 14.5q0 35 26 68.5t69 33.5q39 0 80 -32q30 -23 45 -23q27 0 32 40q1 11 5 13t20 2h14q16 0 20.5 -2.5t4.5 -14.5z" />
    <glyph glyph-name="Umacron" unicode="&#x16a;" horiz-adv-x="657" 
d="M575 228q0 -109 -62 -178t-183 -69t-185 68.5t-64 178.5v421q0 27 9.5 36t35.5 9h33q27 0 35.5 -9.5t8.5 -34.5v-423q0 -171 128 -171q133 0 133 172v422q0 26 9 35t35 9h23q27 0 35.5 -9.5t8.5 -34.5v-422zM500 789q0 -19 -3.5 -22.5t-21.5 -3.5h-291q-19 0 -22.5 3.5
t-3.5 22.5v21q0 19 3.5 22.5t21.5 3.5h292q18 0 21.5 -3.5t3.5 -22.5v-21z" />
    <glyph glyph-name="umacron" unicode="&#x16b;" horiz-adv-x="483" 
d="M428 44q0 -26 -9 -35t-35 -9h-20q-27 0 -35.5 9.5t-8.5 34.5v31q-38 -85 -120 -85q-75 0 -110.5 32t-35.5 107v298q0 27 9.5 36t35.5 9h22q27 0 35.5 -9.5t8.5 -34.5v-306q0 -47 11 -63t49 -16q46 0 69 41t23 97v247q0 26 9 35t35 9h23q27 0 35.5 -9.5t8.5 -34.5v-384z
M413 610q0 -19 -3.5 -22.5t-21.5 -3.5h-291q-19 0 -22.5 3.5t-3.5 22.5v21q0 19 3.5 22.5t21.5 3.5h292q18 0 21.5 -3.5t3.5 -22.5v-21z" />
    <glyph glyph-name="Ubreve" unicode="&#x16c;" horiz-adv-x="657" 
d="M575 228q0 -109 -62 -178t-183 -69t-185 68.5t-64 178.5v421q0 27 9.5 36t35.5 9h33q27 0 35.5 -9.5t8.5 -34.5v-423q0 -171 128 -171q133 0 133 172v422q0 26 9 35t35 9h23q27 0 35.5 -9.5t8.5 -34.5v-422zM492 857q0 -42 -40.5 -73t-122.5 -31q-81 0 -122 31t-41 73
q0 19 11 27t21 8q28 0 32 -32q3 -27 99 -27q95 0 99 24q4 35 32 35q11 0 21.5 -8.5t10.5 -26.5z" />
    <glyph glyph-name="ubreve" unicode="&#x16d;" horiz-adv-x="483" 
d="M428 44q0 -26 -9 -35t-35 -9h-20q-27 0 -35.5 9.5t-8.5 34.5v31q-38 -85 -120 -85q-75 0 -110.5 32t-35.5 107v298q0 27 9.5 36t35.5 9h22q27 0 35.5 -9.5t8.5 -34.5v-306q0 -47 11 -63t49 -16q46 0 69 41t23 97v247q0 26 9 35t35 9h23q27 0 35.5 -9.5t8.5 -34.5v-384z
M405 655q0 -42 -40.5 -73t-122.5 -31q-81 0 -122 31t-41 73q0 19 11 27t21 8q28 0 32 -32q3 -27 99 -27q95 0 99 24q3 35 32 35q11 0 21.5 -8.5t10.5 -26.5z" />
    <glyph glyph-name="Uring" unicode="&#x16e;" horiz-adv-x="657" 
d="M575 228q0 -109 -62 -178t-183 -69t-185 68.5t-64 178.5v421q0 27 9.5 36t35.5 9h33q27 0 35.5 -9.5t8.5 -34.5v-423q0 -171 128 -171q133 0 133 172v422q0 26 9 35t35 9h23q27 0 35.5 -9.5t8.5 -34.5v-422zM375 768q0 15 -8 22.5t-16 9t-23 1.5t-23.5 -1.5t-16 -9
t-7.5 -22.5t8 -22.5t16 -9t23 -1.5t23.5 1.5t16 9t7.5 22.5zM434 768q0 -74 -107 -74q-12 0 -23.5 1.5t-33.5 7.5t-35 22.5t-13 42.5q0 74 107 74q12 0 23.5 -1.5t33.5 -7.5t35 -22.5t13 -42.5z" />
    <glyph glyph-name="uring" unicode="&#x16f;" horiz-adv-x="483" 
d="M428 44q0 -26 -9 -35t-35 -9h-20q-27 0 -35.5 9.5t-8.5 34.5v31q-38 -85 -120 -85q-75 0 -110.5 32t-35.5 107v298q0 27 9.5 36t35.5 9h22q27 0 35.5 -9.5t8.5 -34.5v-306q0 -47 11 -63t49 -16q46 0 69 41t23 97v247q0 26 9 35t35 9h23q27 0 35.5 -9.5t8.5 -34.5v-384z
M289 609q0 15 -8 22.5t-16 9t-23 1.5t-23.5 -1.5t-16 -9t-7.5 -22.5t8 -22.5t16 -9t23 -1.5t23.5 1.5t16 9t7.5 22.5zM348 609q0 -74 -107 -74q-12 0 -23.5 1.5t-33.5 7.5t-35 22.5t-13 42.5q0 74 107 74q12 0 23.5 -1.5t33.5 -7.5t35 -22.5t13 -42.5z" />
    <glyph glyph-name="Uhungarumlaut" unicode="&#x170;" horiz-adv-x="657" 
d="M575 228q0 -109 -62 -178t-183 -69t-185 68.5t-64 178.5v421q0 27 9.5 36t35.5 9h33q27 0 35.5 -9.5t8.5 -34.5v-423q0 -171 128 -171q133 0 133 172v422q0 26 9 35t35 9h23q27 0 35.5 -9.5t8.5 -34.5v-422zM327 890q0 -4 -6 -14l-62 -109q-6 -10 -10 -12t-19 -2h-13
q-10 0 -14.5 0.5t-8 3t-3.5 8.5l24 115q3 15 7 18t20 3h61q14 0 19 -1.5t5 -9.5zM485 890q0 -4 -6 -14l-62 -109q-6 -10 -10 -12t-19 -2h-13q-10 0 -14.5 0.5t-8 3t-3.5 8.5l24 115q3 15 7 18t20 3h61q14 0 19 -1.5t5 -9.5z" />
    <glyph glyph-name="uhungarumlaut" unicode="&#x171;" horiz-adv-x="483" 
d="M428 44q0 -26 -9 -35t-35 -9h-20q-27 0 -35.5 9.5t-8.5 34.5v31q-38 -85 -120 -85q-75 0 -110.5 32t-35.5 107v298q0 27 9.5 36t35.5 9h22q27 0 35.5 -9.5t8.5 -34.5v-306q0 -47 11 -63t49 -16q46 0 69 41t23 97v247q0 26 9 35t35 9h23q27 0 35.5 -9.5t8.5 -34.5v-384z
M240 683q0 -4 -6 -14l-62 -109q-6 -10 -10 -12t-19 -2h-13q-10 0 -14.5 0.5t-8 3t-3.5 8.5l24 115q3 15 7 18t20 3h61q14 0 19 -1.5t5 -9.5zM398 683q0 -4 -6 -14l-62 -109q-6 -10 -10 -12t-19 -2h-13q-10 0 -14.5 0.5t-8 3t-3.5 8.5l24 115q3 15 7 18t20 3h61q14 0 19 -1.5
t5 -9.5z" />
    <glyph glyph-name="Uogonek" unicode="&#x172;" horiz-adv-x="657" 
d="M575 228q0 -104 -56 -172t-167 -74q-15 -24 -15 -52q-1 -16 8 -26t26 -10q27 0 49 11q4 3 12 0.5t9 -9.5l9 -29q2 -6 -0.5 -14t-7.5 -10q-62 -26 -100 -27q-44 -1 -70.5 26t-25.5 63q2 45 30 80q-95 15 -145 81t-50 162v421q0 27 9.5 36t35.5 9h33q27 0 35.5 -9.5
t8.5 -34.5v-423q0 -171 128 -171q133 0 133 172v422q0 26 9 35t35 9h23q27 0 35.5 -9.5t8.5 -34.5v-422z" />
    <glyph glyph-name="uogonek" unicode="&#x173;" horiz-adv-x="483" 
d="M487 -133q2 -6 -0.5 -14t-7.5 -10q-62 -26 -100 -27q-44 -1 -70.5 26t-25.5 63q2 62 51 100q-14 8 -14 39v31q-38 -85 -120 -85q-75 0 -110.5 32t-35.5 107v298q0 27 9.5 36t35.5 9h22q27 0 35.5 -9.5t8.5 -34.5v-306q0 -47 11 -63t49 -16q46 0 69 41t23 97v247
q0 26 9 35t35 9h23q27 0 35.5 -9.5t8.5 -34.5v-384q0 -37 -23 -42q-29 -29 -31 -72q-1 -16 8 -26t26 -10q27 0 49 11q4 3 12 0.5t9 -9.5z" />
    <glyph glyph-name="Wcircumflex" unicode="&#x174;" horiz-adv-x="900" 
d="M879 668q0 -4 -3 -14l-148 -615q-4 -18 -14.5 -27t-18 -10.5t-21.5 -1.5h-48q-11 0 -17 1t-14.5 4t-14 12t-9.5 24l-77 324q-39 161 -47 222h-1q-4 -35 -22.5 -118t-23.5 -101l-77 -325q-4 -15 -9.5 -24.5t-14 -13t-14.5 -4.5t-17 -1h-43q-14 0 -21.5 1.5t-18 10.5
t-14.5 27l-148 615l-3 14q0 26 39 26h21q13 0 21 -1t18.5 -10t14.5 -27l83 -352q34 -146 38 -195h1q5 53 53 257l68 288q4 19 14.5 28t18.5 10.5t22 1.5h43q13 0 21 -1.5t18.5 -10.5t14.5 -27l79 -333q38 -163 45 -215h1q7 57 46 220l78 329q4 18 14.5 27t19 10t24.5 1
q43 0 43 -26zM623 765q6 -5 3 -13.5t-11 -8.5h-47l-5 1l-112 81l-112 -81l-5 -1h-47q-8 0 -11 7.5t3 12.5l110 104q3 3 8 3h111q5 0 8 -3z" />
    <glyph glyph-name="wcircumflex" unicode="&#x175;" horiz-adv-x="642" 
d="M621 446q0 -1 -3 -16l-93 -391q-4 -18 -14.5 -27t-18.5 -10.5t-21 -1.5h-48q-38 0 -50 24q-2 5 -17 68t-31.5 144t-19.5 118q0 -33 -16.5 -115.5t-32.5 -147t-18 -68.5q-12 -23 -49 -23h-19q-13 0 -21 1.5t-18.5 10.5t-14.5 27l-92 389l-4 18q0 26 39 26h11
q21 0 32.5 -6.5t14.5 -13.5t7 -23l58 -246q9 -38 13 -68h1q3 21 19 92l52 220q4 16 7 23.5t14 14.5t30 7q41 0 50 -39l76 -320l76 320q4 18 14.5 27t18.5 10.5t25 1.5q43 0 43 -26zM482 560q4 -6 0.5 -13.5t-10.5 -7.5h-47q-4 1 -6 2l-98 101l-98 -101l-6 -2h-47
q-7 0 -10.5 6.5t0.5 12.5l98 139q3 4 9 4h111q6 0 9 -4z" />
    <glyph glyph-name="Ycircumflex" unicode="&#x176;" horiz-adv-x="636" 
d="M616 673q0 -5 -9 -20l-230 -376v-234q0 -27 -10 -35t-34 -8h-31q-26 0 -35 9t-9 35v234l-233 379q-6 9 -6 16q0 21 35 21h41q48 0 70 -36l113 -189q36 -61 48 -89q6 20 48 92.5t80 133.5t41 65q20 23 61 23h25q35 0 35 -21zM491 765q6 -5 3 -13.5t-11 -8.5h-47l-5 1
l-112 81l-112 -81l-5 -1h-47q-8 0 -11 7.5t3 12.5l110 104q3 3 8 3h111q5 0 8 -3z" />
    <glyph glyph-name="ycircumflex" unicode="&#x177;" horiz-adv-x="431" 
d="M408 447q0 -4 -5 -19l-143 -479q-17 -55 -57 -90.5t-96 -35.5q-54 0 -67 10q-3 3 -6 28.5t-3 35.5q0 14 12 14q2 -1 7 -3q30 -14 58 -14q41 0 60 34q5 8 14.5 36t9.5 35q0 3 -4 15l-159 416l-5 18q0 24 37 24h12q33 0 44 -12t29 -61q80 -211 83 -281q5 61 41 185l37 129
q7 27 20 33.5t39 6.5q14 0 21 -1t14 -6.5t7 -17.5zM377 560q4 -6 0.5 -13.5t-10.5 -7.5h-47q-4 1 -6 2l-98 101l-98 -101l-6 -2h-47q-7 0 -10.5 6.5t0.5 12.5l98 139q3 4 9 4h111q6 0 9 -4z" />
    <glyph glyph-name="Ydieresis" unicode="&#x178;" horiz-adv-x="636" 
d="M616 673q0 -5 -9 -20l-230 -376v-234q0 -27 -10 -35t-34 -8h-31q-26 0 -35 9t-9 35v234l-233 379q-6 9 -6 16q0 21 35 21h41q48 0 70 -36l113 -189q36 -61 48 -89q6 20 48 92.5t80 133.5t41 65q20 23 61 23h25q35 0 35 -21zM254 785q0 -25 -8.5 -33.5t-32.5 -8.5h-30
q-24 0 -32 9t-8 33v22q0 26 8.5 34t31.5 8h30q24 0 32.5 -8.5t8.5 -33.5v-22zM495 785q0 -25 -8.5 -33.5t-32.5 -8.5h-30q-24 0 -32 9t-8 33v22q0 26 8.5 34t31.5 8h30q24 0 32.5 -8.5t8.5 -33.5v-22z" />
    <glyph glyph-name="Zacute" unicode="&#x179;" horiz-adv-x="581" 
d="M533 45q0 -25 -8 -35t-36 -10h-392q-27 0 -35.5 10t-8.5 35q0 21 9 35l324 533h-36l-230 -3q-22 0 -31 1.5t-16 11t-7 29.5q0 19 7.5 29t15 11.5t22.5 1.5h372q24 0 34 -8.5t10 -34.5q0 -19 -9 -33l-323 -531l288 4q29 0 39.5 -7.5t10.5 -38.5zM466 852l-187 -99h-67
q-9 0 -11.5 6t4.5 12l126 103h127q13 0 14.5 -9t-6.5 -13z" />
    <glyph glyph-name="zacute" unicode="&#x17a;" horiz-adv-x="411" 
d="M381 33q0 -33 -44 -33h-267q-13 0 -20.5 1t-15.5 10t-8 27q0 15 10 30l224 339h-38l-130 -2q-16 0 -25 1t-18 9t-9 23q0 34 45 34h250q13 0 20.5 -1t15.5 -10t8 -27q0 -15 -10 -30l-224 -339h46l137 2q17 0 26 -1t18 -9t9 -24zM340 683q0 -6 -10 -15l-135 -122h-31
q-25 0 -25 11q0 4 8 15l80 111q6 8 10 9.5t18 1.5h61q14 0 19 -1.5t5 -9.5z" />
    <glyph glyph-name="Zdotaccent" unicode="&#x17b;" horiz-adv-x="581" 
d="M533 45q0 -25 -8 -35t-36 -10h-392q-27 0 -35.5 10t-8.5 35q0 21 9 35l324 533h-36l-230 -3q-22 0 -31 1.5t-16 11t-7 29.5q0 19 7.5 29t15 11.5t22.5 1.5h372q24 0 34 -8.5t10 -34.5q0 -19 -9 -33l-323 -531l288 4q29 0 39.5 -7.5t10.5 -38.5zM351 790q0 -28 -9.5 -37.5
t-35.5 -9.5h-33q-27 0 -36 10t-9 37v24q0 29 9.5 38t35.5 9h33q27 0 36 -9.5t9 -37.5v-24z" />
    <glyph glyph-name="zdotaccent" unicode="&#x17c;" horiz-adv-x="411" 
d="M381 33q0 -33 -44 -33h-267q-13 0 -20.5 1t-15.5 10t-8 27q0 15 10 30l224 339h-38l-130 -2q-16 0 -25 1t-18 9t-9 23q0 34 45 34h250q13 0 20.5 -1t15.5 -10t8 -27q0 -15 -10 -30l-224 -339h46l137 2q17 0 26 -1t18 -9t9 -24zM267 608q0 -28 -9.5 -37.5t-35.5 -9.5h-33
q-27 0 -36 10t-9 37v24q0 29 9.5 38t35.5 9h33q27 0 36 -9.5t9 -37.5v-24z" />
    <glyph glyph-name="Zcaron" unicode="&#x17d;" horiz-adv-x="581" 
d="M533 45q0 -25 -8 -35t-36 -10h-392q-27 0 -35.5 10t-8.5 35q0 21 9 35l324 533h-36l-230 -3q-22 0 -31 1.5t-16 11t-7 29.5q0 19 7.5 29t15 11.5t22.5 1.5h372q24 0 34 -8.5t10 -34.5q0 -19 -9 -33l-323 -531l288 4q29 0 39.5 -7.5t10.5 -38.5zM463 850l-110 -104
q-3 -3 -8 -3h-111q-5 0 -8 3l-107 102q-6 5 -3 13.5t11 8.5h47l5 -1l112 -81l112 81l5 1h47q8 0 11 -7.5t-3 -12.5z" />
    <glyph glyph-name="zcaron" unicode="&#x17e;" horiz-adv-x="411" 
d="M381 33q0 -33 -44 -33h-267q-13 0 -20.5 1t-15.5 10t-8 27q0 15 10 30l224 339h-38l-130 -2q-16 0 -25 1t-18 9t-9 23q0 34 45 34h250q13 0 20.5 -1t15.5 -10t8 -27q0 -15 -10 -30l-224 -339h46l137 2q17 0 26 -1t18 -9t9 -24zM367 682l-98 -139q-3 -4 -9 -4h-111
q-6 0 -9 4l-95 137q-4 6 -0.5 13.5t10.5 7.5h47q4 -1 6 -2l98 -101l98 101l6 2h47q7 0 10.5 -6.5t-0.5 -12.5z" />
    <glyph glyph-name="longs" unicode="&#x17f;" horiz-adv-x="267" 
d="M306 640q0 -25 -11 -25q-13 1 -13 6q-26 19 -61 19q-20 0 -33 -6t-18 -18.5t-6 -20.5t-1 -21v-530q0 -26 -9 -35t-35 -9h-19q-27 0 -36 9.5t-9 35.5v504q0 73 42.5 114t123.5 41q30 0 56 -5q21 -4 25 -8.5t4 -22.5v-28z" />
    <glyph glyph-name="Ereversed" unicode="&#x18e;" horiz-adv-x="567" 
d="M526 45q0 -26 -9 -35.5t-36 -9.5h-356q-26 0 -35 9t-9 35v8q0 21 7 31t15.5 11.5t27.5 1.5l141 -2q114 0 132 -2v226h-240q-10 0 -15.5 1t-13.5 4t-11.5 12t-3.5 23q0 19 7.5 28.5t15 11t21.5 1.5h240v205h-46l-212 -3q-21 0 -29.5 1.5t-15.5 11.5t-7 32q0 24 8 34.5
t36 10.5h343q26 0 35.5 -9t9.5 -36v-601z" />
    <glyph glyph-name="florin" unicode="&#x192;" horiz-adv-x="290" 
d="M329 640q0 -25 -11 -25q-5 0 -13 6q-26 19 -61 19q-17 0 -29.5 -5t-18.5 -11t-9 -16.5t-3.5 -17t-0.5 -16.5v-102h44q44 0 44 -32t-44 -32h-41v-364q0 -26 -9 -35t-35 -9h-19q-27 0 -36 9.5t-9 35.5v363q-17 0 -25.5 1t-18 8.5t-9.5 22.5t9.5 22.5t18.5 8.5t25 1v77
q0 73 42.5 114t123.5 41q30 0 56 -5q21 -5 25 -9t4 -22v-28z" />
    <glyph glyph-name="Ohorn" unicode="&#x1a0;" horiz-adv-x="697" 
d="M643 342q0 -173 -77 -268q-77 -93 -218 -93q-142 0 -219 93q-76 94 -76 268q0 179 76 275q38 48 96 72.5t123 24.5q94 0 163 -47l31 27h-4q-11 0 -11 12v83q0 11 11 11h83q11 0 11 -11v-83q0 -5 -4 -9l-79 -61q12 -12 17 -19q77 -97 77 -275zM520 361q0 142 -42 211
q-45 72 -130 72q-86 0 -131 -72q-42 -69 -42 -211q0 -155 42 -230q21 -36 55.5 -57t75.5 -21q40 0 74.5 21t55.5 57q42 75 42 230z" />
    <glyph glyph-name="ohorn" unicode="&#x1a1;" 
d="M489 483q0 -4 -4 -8l-85 -66q47 -65 47 -178q0 -115 -55 -178q-54 -63 -156 -63q-101 0 -155 63q-55 63 -55 178q0 122 55 189q54 67 155 67q77 0 132 -43l31 28h-4q-11 0 -11 11v84q0 11 11 11h83q11 0 11 -11v-84zM336 246q0 95 -22 133q-24 44 -78 44q-53 0 -77 -44
q-22 -38 -22 -133q0 -101 22 -141q23 -45 77 -45q55 0 78 45q22 40 22 141z" />
    <glyph glyph-name="Uhorn" unicode="&#x1af;" horiz-adv-x="683" 
d="M685 706q0 -6 -5 -9l-105 -77v-389q0 -116 -65 -184q-63 -66 -180 -66q-118 0 -184 66t-66 184v432q0 13 9.5 22t22.5 9h59q13 0 22 -9t9 -22v-432q0 -92 33 -134q30 -41 95 -41q67 0 99 41q35 43 35 134v432q0 13 9.5 22t22.5 9h47q19 0 28 -17l21 17h-1q-12 0 -12 12
v83q0 11 12 11h83q11 0 11 -11v-83z" />
    <glyph glyph-name="uhorn" unicode="&#x1b0;" horiz-adv-x="536" 
d="M538 483q0 -5 -4 -9l-106 -76v-366q0 -13 -9.5 -22.5t-22.5 -9.5h-45q-13 0 -22.5 9.5t-9.5 22.5v43q-36 -85 -113 -85q-82 0 -117 33q-35 31 -35 109v308q0 14 9 23t23 9h47q13 0 22.5 -9.5t9.5 -22.5v-308q0 -60 10 -72q12 -17 53 -17q39 0 63.5 38t25.5 94v265
q0 13 9 22.5t22 9.5h48q20 0 28 -17l21 17h-1q-11 0 -11 11v84q0 11 11 11h83q11 0 11 -11v-84z" />
    <glyph glyph-name="Acaron" unicode="&#x1cd;" horiz-adv-x="636" 
d="M600 25q0 -25 -38 -25h-34q-31 0 -41.5 11.5t-23.5 52.5l-33 107h-242l-42 -131q-4 -14 -8 -21t-16 -13t-33 -6h-16q-38 0 -38 25l4 16l193 616q12 37 57 37h57q14 0 22 -1t18.5 -10t16.5 -27l193 -617zM407 246l-56 185q-37 123 -42 157h-1q-5 -34 -39 -149l-58 -193
h196zM491 850l-110 -104q-3 -3 -8 -3h-111q-5 0 -8 3l-107 102q-6 5 -3 13.5t11 8.5h47l5 -1l112 -81l112 81l5 1h47q8 0 11 -7.5t-3 -12.5z" />
    <glyph glyph-name="acaron" unicode="&#x1ce;" horiz-adv-x="453" 
d="M408 44q0 -26 -9 -35t-35 -9h-20q-27 0 -35.5 9.5t-8.5 34.5v25q-16 -29 -50.5 -54t-82.5 -25q-57 0 -94 43t-37 99q0 35 14.5 62.5t41.5 44t52 27.5t59 16t49 6.5t34 2.5q8 1 9.5 3.5t1.5 15.5v20q0 34 -6.5 56t-19.5 30t-21 10t-20 2q-74 0 -125 -50q-11 -10 -16 -10
q-7 0 -9 5.5t-4 23.5q-3 24 -3 36q0 8 4 11.5t20 11.5q64 31 137 31q88 0 131 -41.5t43 -114.5v-287zM297 155v101q-18 -1 -35 -4t-40.5 -11t-40 -20.5t-28.5 -35t-12 -51.5q0 -33 19 -56.5t48 -23.5q10 0 22 3.5t28.5 12.5t27.5 31t11 54zM388 682l-98 -139q-3 -4 -9 -4
h-111q-6 0 -9 4l-95 137q-4 6 -0.5 13.5t10.5 7.5h47q4 -1 6 -2l98 -101l98 101l6 2h47q7 0 10.5 -6.5t-0.5 -12.5z" />
    <glyph glyph-name="Icaron" unicode="&#x1cf;" horiz-adv-x="283" 
d="M202 44q0 -26 -9 -35t-35 -9h-33q-27 0 -36 9.5t-9 35.5v604q0 27 9.5 36t35.5 9h33q27 0 35.5 -9.5t8.5 -34.5v-606zM314 850l-110 -104q-3 -3 -8 -3h-111q-5 0 -8 3l-107 102q-6 5 -3 13.5t11 8.5h47l5 -1l112 -81l112 81l5 1h47q8 0 11 -7.5t-3 -12.5z" />
    <glyph glyph-name="icaron" unicode="&#x1d0;" horiz-adv-x="219" 
d="M163 44q0 -26 -9 -35t-35 -9h-19q-27 0 -36 9.5t-9 35.5v382q0 27 9.5 36t35.5 9h19q27 0 35.5 -9.5t8.5 -34.5v-384zM271 682l-98 -139q-3 -4 -9 -4h-111q-6 0 -9 4l-95 137q-4 6 -0.5 13.5t10.5 7.5h47q4 -1 6 -2l98 -101l98 101l6 2h47q7 0 10.5 -6.5t-0.5 -12.5z" />
    <glyph glyph-name="Ocaron" unicode="&#x1d1;" horiz-adv-x="697" 
d="M643 342q0 -177 -79 -270q-77 -91 -216 -91q-138 0 -213 87q-82 95 -82 274q0 163 66 261q36 53 96.5 81.5t132.5 28.5q160 0 238 -125q57 -91 57 -246zM521 358q0 132 -34 198q-45 87 -139 87q-91 0 -136 -82q-37 -65 -37 -203q0 -130 30 -201q25 -59 65 -81.5t78 -22.5
t78 22.5t65 80.5q30 71 30 202zM521 850l-110 -104q-3 -3 -8 -3h-111q-5 0 -8 3l-107 102q-6 5 -3 13.5t11 8.5h47l5 -1l112 -81l112 81l5 1h47q8 0 11 -7.5t-3 -12.5z" />
    <glyph glyph-name="ocaron" unicode="&#x1d2;" 
d="M448 232q0 -118 -56 -180q-55 -62 -155 -62q-104 0 -158 64q-53 65 -53 178q0 116 51 183q53 72 160 72q104 0 159 -70q52 -65 52 -185zM337 244q0 23 -0.5 36.5t-3 38.5t-9 40t-17 31.5t-28.5 24.5t-42 8q-29 0 -49 -13t-29.5 -29.5t-15 -45.5t-6 -45.5t-0.5 -45.5
t0.5 -46t6 -46.5t15 -47t29.5 -31t49 -13.5t49 13.5t29.5 31t15 47t6 46.5t0.5 46zM399 682l-98 -139q-3 -4 -9 -4h-111q-6 0 -9 4l-95 137q-4 6 -0.5 13.5t10.5 7.5h47q4 -1 6 -2l98 -101l98 101l6 2h47q7 0 10.5 -6.5t-0.5 -12.5z" />
    <glyph glyph-name="Ucaron" unicode="&#x1d3;" horiz-adv-x="657" 
d="M575 228q0 -109 -62 -178t-183 -69t-185 68.5t-64 178.5v421q0 27 9.5 36t35.5 9h33q27 0 35.5 -9.5t8.5 -34.5v-423q0 -171 128 -171q133 0 133 172v422q0 26 9 35t35 9h23q27 0 35.5 -9.5t8.5 -34.5v-422zM501 850l-110 -104q-3 -3 -8 -3h-111q-5 0 -8 3l-107 102
q-6 5 -3 13.5t11 8.5h47l5 -1l112 -81l112 81l5 1h47q8 0 11 -7.5t-3 -12.5z" />
    <glyph glyph-name="ucaron" unicode="&#x1d4;" horiz-adv-x="483" 
d="M428 44q0 -26 -9 -35t-35 -9h-20q-27 0 -35.5 9.5t-8.5 34.5v31q-38 -85 -120 -85q-75 0 -110.5 32t-35.5 107v298q0 27 9.5 36t35.5 9h22q27 0 35.5 -9.5t8.5 -34.5v-306q0 -47 11 -63t49 -16q46 0 69 41t23 97v247q0 26 9 35t35 9h23q27 0 35.5 -9.5t8.5 -34.5v-384z
M403 682l-98 -139q-3 -4 -9 -4h-111q-6 0 -9 4l-95 137q-4 6 -0.5 13.5t10.5 7.5h47q4 -1 6 -2l98 -101l98 101l6 2h47q7 0 10.5 -6.5t-0.5 -12.5z" />
    <glyph glyph-name="Udieresisacute" unicode="&#x1d7;" horiz-adv-x="657" 
d="M575 228q0 -109 -62 -178t-183 -69t-185 68.5t-64 178.5v421q0 27 9.5 36t35.5 9h33q27 0 35.5 -9.5t8.5 -34.5v-423q0 -171 128 -171q133 0 133 172v422q0 26 9 35t35 9h23q27 0 35.5 -9.5t8.5 -34.5v-422zM264 785q0 -25 -8.5 -33.5t-32.5 -8.5h-30q-24 0 -32 9t-8 33
v22q0 26 8.5 34t31.5 8h30q24 0 32.5 -8.5t8.5 -33.5v-22zM505 785q0 -25 -8.5 -33.5t-32.5 -8.5h-30q-24 0 -32 9t-8 33v22q0 26 8.5 34t31.5 8h30q24 0 32.5 -8.5t8.5 -33.5v-22zM504 1007l-187 -99h-67q-9 0 -11.5 6t4.5 12l126 103h127q13 0 14.5 -9t-6.5 -13z" />
    <glyph glyph-name="udieresisacute" unicode="&#x1d8;" horiz-adv-x="483" 
d="M428 44q0 -26 -9 -35t-35 -9h-20q-27 0 -35.5 9.5t-8.5 34.5v31q-38 -85 -120 -85q-75 0 -110.5 32t-35.5 107v298q0 27 9.5 36t35.5 9h22q27 0 35.5 -9.5t8.5 -34.5v-306q0 -47 11 -63t49 -16q46 0 69 41t23 97v247q0 26 9 35t35 9h23q27 0 35.5 -9.5t8.5 -34.5v-384z
M196 609q0 -25 -8.5 -33.5t-32.5 -8.5h-30q-24 0 -32 9t-8 33v22q0 26 8.5 34t31.5 8h30q24 0 32.5 -8.5t8.5 -33.5v-22zM399 609q0 -25 -8.5 -33.5t-32.5 -8.5h-30q-24 0 -32 9t-8 33v22q0 26 8.5 34t31.5 8h30q24 0 32.5 -8.5t8.5 -33.5v-22zM417 831l-187 -99h-67
q-9 0 -11.5 6t4.5 12l126 103h127q13 0 14.5 -9t-6.5 -13z" />
    <glyph glyph-name="Udieresiscaron" unicode="&#x1d9;" horiz-adv-x="657" 
d="M575 228q0 -109 -62 -178t-183 -69t-185 68.5t-64 178.5v421q0 27 9.5 36t35.5 9h33q27 0 35.5 -9.5t8.5 -34.5v-423q0 -171 128 -171q133 0 133 172v422q0 26 9 35t35 9h23q27 0 35.5 -9.5t8.5 -34.5v-422zM264 785q0 -25 -8.5 -33.5t-32.5 -8.5h-30q-24 0 -32 9t-8 33
v22q0 26 8.5 34t31.5 8h30q24 0 32.5 -8.5t8.5 -33.5v-22zM505 785q0 -25 -8.5 -33.5t-32.5 -8.5h-30q-24 0 -32 9t-8 33v22q0 26 8.5 34t31.5 8h30q24 0 32.5 -8.5t8.5 -33.5v-22zM501 1005l-110 -104q-3 -3 -8 -3h-111q-5 0 -8 3l-107 102q-6 5 -3 13.5t11 8.5h47l5 -1
l112 -81l112 81l5 1h47q8 0 11 -7.5t-3 -12.5z" />
    <glyph glyph-name="udieresiscaron" unicode="&#x1da;" horiz-adv-x="483" 
d="M428 44q0 -26 -9 -35t-35 -9h-20q-27 0 -35.5 9.5t-8.5 34.5v31q-38 -85 -120 -85q-75 0 -110.5 32t-35.5 107v298q0 27 9.5 36t35.5 9h22q27 0 35.5 -9.5t8.5 -34.5v-306q0 -47 11 -63t49 -16q46 0 69 41t23 97v247q0 26 9 35t35 9h23q27 0 35.5 -9.5t8.5 -34.5v-384z
M196 609q0 -25 -8.5 -33.5t-32.5 -8.5h-30q-24 0 -32 9t-8 33v22q0 26 8.5 34t31.5 8h30q24 0 32.5 -8.5t8.5 -33.5v-22zM399 609q0 -25 -8.5 -33.5t-32.5 -8.5h-30q-24 0 -32 9t-8 33v22q0 26 8.5 34t31.5 8h30q24 0 32.5 -8.5t8.5 -33.5v-22zM414 829l-110 -104
q-3 -3 -8 -3h-111q-5 0 -8 3l-107 102q-6 5 -3 13.5t11 8.5h47l5 -1l112 -81l112 81l5 1h47q8 0 11 -7.5t-3 -12.5z" />
    <glyph glyph-name="Udieresisgrave" unicode="&#x1db;" horiz-adv-x="657" 
d="M575 228q0 -109 -62 -178t-183 -69t-185 68.5t-64 178.5v421q0 27 9.5 36t35.5 9h33q27 0 35.5 -9.5t8.5 -34.5v-423q0 -171 128 -171q133 0 133 172v422q0 26 9 35t35 9h23q27 0 35.5 -9.5t8.5 -34.5v-422zM264 785q0 -25 -8.5 -33.5t-32.5 -8.5h-30q-24 0 -32 9t-8 33
v22q0 26 8.5 34t31.5 8h30q24 0 32.5 -8.5t8.5 -33.5v-22zM505 785q0 -25 -8.5 -33.5t-32.5 -8.5h-30q-24 0 -32 9t-8 33v22q0 26 8.5 34t31.5 8h30q24 0 32.5 -8.5t8.5 -33.5v-22zM414 926q7 -6 4.5 -12t-11.5 -6h-67l-187 99q-8 4 -6.5 13t14.5 9h127z" />
    <glyph glyph-name="udieresisgrave" unicode="&#x1dc;" horiz-adv-x="483" 
d="M428 44q0 -26 -9 -35t-35 -9h-20q-27 0 -35.5 9.5t-8.5 34.5v31q-38 -85 -120 -85q-75 0 -110.5 32t-35.5 107v298q0 27 9.5 36t35.5 9h22q27 0 35.5 -9.5t8.5 -34.5v-306q0 -47 11 -63t49 -16q46 0 69 41t23 97v247q0 26 9 35t35 9h23q27 0 35.5 -9.5t8.5 -34.5v-384z
M196 609q0 -25 -8.5 -33.5t-32.5 -8.5h-30q-24 0 -32 9t-8 33v22q0 26 8.5 34t31.5 8h30q24 0 32.5 -8.5t8.5 -33.5v-22zM399 609q0 -25 -8.5 -33.5t-32.5 -8.5h-30q-24 0 -32 9t-8 33v22q0 26 8.5 34t31.5 8h30q24 0 32.5 -8.5t8.5 -33.5v-22zM327 750q7 -6 4.5 -12
t-11.5 -6h-67l-187 99q-8 4 -6.5 13t14.5 9h127z" />
    <glyph glyph-name="eturned" unicode="&#x1dd;" horiz-adv-x="438" 
d="M411 238q0 -70 -19 -121.5t-51 -77.5t-65.5 -37.5t-69.5 -11.5q-87 0 -133.5 54.5t-46.5 157.5q0 26 9.5 34.5t34.5 8.5h238q0 13 -0.5 24t-3.5 35t-11 42t-20 37t-33.5 29.5t-49.5 10.5q-77 0 -129 -62q-7 -9 -13 -9q-7 0 -8.5 3t-3.5 17q-1 3 -1 4q-3 27 -3 36
q0 23 63 53q49 22 99 22q31 0 60 -7t58.5 -25t50.5 -45t34.5 -71.5t13.5 -100.5zM307 198h-195q1 -22 2 -35.5t6.5 -36.5t14.5 -36.5t27 -24.5t43 -11q48 0 73.5 41.5t28.5 102.5z" />
    <glyph glyph-name="Gcaron" unicode="&#x1e6;" horiz-adv-x="633" 
d="M568 50q0 -7 -6 -10q-89 -50 -194 -50q-150 0 -233 94q-82 92 -82 263t82 263q83 94 233 94q54 0 97 -11q39 -11 90 -39q5 -3 5 -12l-14 -79q-2 -10 -11 -10q-1 0 -7 3q-37 33 -74 48q-38 14 -86 14q-91 0 -142 -69t-51 -202q0 -132 51 -202q51 -69 142 -69q43 0 89 11
v171h-78q-11 0 -11 11v59q0 11 11 11h178q11 0 11 -11v-278zM489 850l-110 -104q-3 -3 -8 -3h-111q-5 0 -8 3l-107 102q-6 5 -3 13.5t11 8.5h47l5 -1l112 -81l112 81l5 1h47q8 0 11 -7.5t-3 -12.5z" />
    <glyph glyph-name="gcaron" unicode="&#x1e7;" horiz-adv-x="483" 
d="M426 27q0 -92 -46 -153t-147 -61q-82 0 -151 33q-11 6 -13.5 10t-2.5 20v23q0 26 11 26q5 0 13 -7q66 -41 141 -41q84 0 84 123v93h-1q-28 -72 -100 -72q-90 0 -139 63q-43 56 -43 154q0 108 44 171q50 73 145 73q61 0 97 -58q0 35 6.5 46.5t37.5 11.5h20q27 0 35.5 -9.5
t8.5 -34.5v-411zM318 272v63q0 33 -20 58t-51 25t-52.5 -17t-32 -45.5t-15 -57t-4.5 -60.5q0 -19 2 -36.5t9.5 -48.5t28.5 -49.5t53 -18.5q78 0 79 163q0 14 3 24zM370 682l-98 -139q-3 -4 -9 -4h-111q-6 0 -9 4l-95 137q-4 6 -0.5 13.5t10.5 7.5h47q4 -1 6 -2l98 -101
l98 101l6 2h47q7 0 10.5 -6.5t-0.5 -12.5z" />
    <glyph glyph-name="Oogonek" unicode="&#x1ea;" horiz-adv-x="697" 
d="M643 342q0 -177 -79 -270q-68 -81 -191 -90q-15 -27 -15 -52q-1 -16 8 -26t26 -10q27 0 49 11q4 3 12 0.5t9 -9.5l9 -29q2 -6 -0.5 -14t-7.5 -10q-62 -26 -100 -27q-44 -1 -70.5 26t-25.5 63q2 45 30 80q-104 15 -162 83q-82 95 -82 274q0 163 66 261q36 53 96.5 81.5
t132.5 28.5q160 0 238 -125q57 -91 57 -246zM521 358q0 132 -34 198q-45 87 -139 87q-91 0 -136 -82q-37 -65 -37 -203q0 -130 30 -201q25 -59 65 -81.5t78 -22.5t78 22.5t65 80.5q30 71 30 202z" />
    <glyph glyph-name="oogonek" unicode="&#x1eb;" 
d="M448 232q0 -118 -56 -180q-49 -55 -136 -61q-19 -27 -21 -61q-1 -16 8.5 -26t26.5 -10q27 0 49 11q4 3 12 0.5t9 -9.5l9 -29q2 -6 -0.5 -14t-7.5 -10q-62 -26 -100 -27q-44 -1 -70.5 26t-25.5 63q0 53 39 90q-67 15 -105 59q-53 65 -53 178q0 116 51 183q53 72 160 72
q104 0 159 -70q52 -65 52 -185zM337 244q0 23 -0.5 36.5t-3 38.5t-9 40t-17 31.5t-28.5 24.5t-42 8q-29 0 -49 -13t-29.5 -29.5t-15 -45.5t-6 -45.5t-0.5 -45.5t0.5 -46t6 -46.5t15 -47t29.5 -31t49 -13.5t49 13.5t29.5 31t15 47t6 46.5t0.5 46z" />
    <glyph glyph-name="jcaron" unicode="&#x1f0;" horiz-adv-x="246" 
d="M190 -25q0 -75 -34.5 -113.5t-93.5 -38.5q-38 0 -81 14t-43 27q0 2 4 14t4 15q5 15 7.5 19t8.5 4q1 0 13 -6q24 -14 52 -14q25 0 38.5 12t15 22.5t1.5 27.5v470q0 26 9 35t35 9h20q27 0 35.5 -9.5t8.5 -34.5v-453zM291 682l-98 -139q-3 -4 -9 -4h-111q-6 0 -9 4l-95 137
q-4 6 -0.5 13.5t10.5 7.5h47q4 -1 6 -2l98 -101l98 101l6 2h47q7 0 10.5 -6.5t-0.5 -12.5z" />
    <glyph glyph-name="Gacute" unicode="&#x1f4;" horiz-adv-x="633" 
d="M568 50q0 -7 -6 -10q-89 -50 -194 -50q-150 0 -233 94q-82 92 -82 263t82 263q83 94 233 94q54 0 97 -11q39 -11 90 -39q5 -3 5 -12l-14 -79q-2 -10 -11 -10q-1 0 -7 3q-37 33 -74 48q-38 14 -86 14q-91 0 -142 -69t-51 -202q0 -132 51 -202q51 -69 142 -69q43 0 89 11
v171h-78q-11 0 -11 11v59q0 11 11 11h178q11 0 11 -11v-278zM492 852l-187 -99h-67q-9 0 -11.5 6t4.5 12l126 103h127q13 0 14.5 -9t-6.5 -13z" />
    <glyph glyph-name="gacute" unicode="&#x1f5;" horiz-adv-x="483" 
d="M426 27q0 -92 -46 -153t-147 -61q-82 0 -151 33q-11 6 -13.5 10t-2.5 20v23q0 26 11 26q5 0 13 -7q66 -41 141 -41q84 0 84 123v93h-1q-28 -72 -100 -72q-90 0 -139 63q-43 56 -43 154q0 108 44 171q50 73 145 73q61 0 97 -58q0 35 6.5 46.5t37.5 11.5h20q27 0 35.5 -9.5
t8.5 -34.5v-411zM318 272v63q0 33 -20 58t-51 25t-52.5 -17t-32 -45.5t-15 -57t-4.5 -60.5q0 -19 2 -36.5t9.5 -48.5t28.5 -49.5t53 -18.5q78 0 79 163q0 14 3 24zM343 683q0 -6 -10 -15l-135 -122h-31q-25 0 -25 11q0 4 8 15l80 111q6 8 10 9.5t18 1.5h61q14 0 19 -1.5
t5 -9.5z" />
    <glyph glyph-name="Aringacute" unicode="&#x1fa;" horiz-adv-x="636" 
d="M600 25q0 -25 -38 -25h-34q-31 0 -41.5 11.5t-23.5 52.5l-33 107h-242l-42 -131q-4 -14 -8 -21t-16 -13t-33 -6h-16q-38 0 -38 25l4 16l193 616q12 37 57 37h57q14 0 22 -1t18.5 -10t16.5 -27l193 -617zM407 246l-56 185q-37 123 -42 157h-1q-5 -34 -39 -149l-58 -193
h196zM365 768q0 15 -8 22.5t-16 9t-23 1.5t-23.5 -1.5t-16 -9t-7.5 -22.5t8 -22.5t16 -9t23 -1.5t23.5 1.5t16 9t7.5 22.5zM424 768q0 -74 -107 -74q-12 0 -23.5 1.5t-33.5 7.5t-35 22.5t-13 42.5q0 74 107 74q12 0 23.5 -1.5t33.5 -7.5t35 -22.5t13 -42.5zM448 991
l-187 -99h-67q-9 0 -11.5 6t4.5 12l126 103h127q13 0 14.5 -9t-6.5 -13z" />
    <glyph glyph-name="aringacute" unicode="&#x1fb;" horiz-adv-x="453" 
d="M408 44q0 -26 -9 -35t-35 -9h-20q-27 0 -35.5 9.5t-8.5 34.5v25q-16 -29 -50.5 -54t-82.5 -25q-57 0 -94 43t-37 99q0 35 14.5 62.5t41.5 44t52 27.5t59 16t49 6.5t34 2.5q8 1 9.5 3.5t1.5 15.5v20q0 34 -6.5 56t-19.5 30t-21 10t-20 2q-74 0 -125 -50q-11 -10 -16 -10
q-7 0 -9 5.5t-4 23.5q-3 24 -3 36q0 8 4 11.5t20 11.5q64 31 137 31q88 0 131 -41.5t43 -114.5v-287zM297 155v101q-18 -1 -35 -4t-40.5 -11t-40 -20.5t-28.5 -35t-12 -51.5q0 -33 19 -56.5t48 -23.5q10 0 22 3.5t28.5 12.5t27.5 31t11 54zM273 609q0 15 -8 22.5t-16 9
t-23 1.5t-23.5 -1.5t-16 -9t-7.5 -22.5t8 -22.5t16 -9t23 -1.5t23.5 1.5t16 9t7.5 22.5zM332 609q0 -74 -107 -74q-12 0 -23.5 1.5t-33.5 7.5t-35 22.5t-13 42.5q0 74 107 74q12 0 23.5 -1.5t33.5 -7.5t35 -22.5t13 -42.5zM356 832l-187 -99h-67q-9 0 -11.5 6t4.5 12
l126 103h127q13 0 14.5 -9t-6.5 -13z" />
    <glyph glyph-name="AEacute" unicode="&#x1fc;" horiz-adv-x="819" 
d="M778 44q0 -26 -9 -35t-35 -9h-290q-27 0 -36 9.5t-9 35.5v158h-188l-61 -165q-7 -18 -18 -27t-19 -10t-22 -1h-17q-37 0 -37 24q0 6 5 18l228 613q7 18 18 27t19 10.5t23 1.5h391q28 0 36 -10.5t8 -34.5q0 -30 -10.5 -37.5t-37.5 -7.5l-175 3h-22v-207h175
q14 0 21.5 -1.5t15 -11t7.5 -28.5q0 -14 -3.5 -23t-11.5 -12t-13.5 -4t-15.5 -1h-175v-226h44l167 3q26 0 36.5 -7.5t10.5 -36.5v-8zM399 278v330h-37l-123 -330h160zM585 852l-187 -99h-67q-9 0 -11.5 6t4.5 12l126 103h127q13 0 14.5 -9t-6.5 -13z" />
    <glyph glyph-name="aeacute" unicode="&#x1fd;" horiz-adv-x="686" 
d="M659 276q0 -25 -9 -34.5t-35 -9.5h-217q4 -178 109 -178q71 0 118 63q6 8 12 8q7 0 8.5 -3t3.5 -17q1 -3 1 -4q3 -27 3 -36q0 -10 -18 -27t-54.5 -32.5t-77.5 -15.5q-94 0 -158 64q-29 -30 -81.5 -47t-107.5 -17q-62 0 -95.5 42.5t-33.5 90.5q0 133 260 143v65
q0 34 -6.5 55.5t-18.5 29.5t-20 10t-21 2q-74 0 -126 -50q-11 -10 -16 -10q-7 0 -9 5.5t-4 23.5q-3 24 -3 36q0 5 1 7t6.5 6.5t18.5 10.5q66 30 136 30q89 0 135 -46q53 46 131 46q89 0 132 -64q36 -55 36 -147zM570 279q-1 22 -2 34.5t-5.5 36.5t-12 37.5t-22.5 24.5
t-36 11q-42 0 -66 -41.5t-27 -102.5h171zM301 137q-5 16 -8.5 36.5t-4.5 32.5l-1 12q-18 -1 -36 -3.5t-49 -11t-50.5 -29t-19.5 -49.5q0 -28 18.5 -49.5t48.5 -21.5q34 0 65 21.5t37 61.5zM478 683q0 -6 -10 -15l-135 -122h-31q-25 0 -25 11q0 4 8 15l80 111q6 8 10 9.5
t18 1.5h61q14 0 19 -1.5t5 -9.5z" />
    <glyph glyph-name="Oslashacute" unicode="&#x1fe;" horiz-adv-x="739" 
d="M685 342q0 -172 -82 -267q-37 -43 -97.5 -68.5t-136.5 -25.5q-73 0 -133 24l-24 -47q-11 -21 -17.5 -27t-19.5 -6q-12 0 -24.5 9t-12.5 25q0 9 17 43q3 4 19 37q-121 87 -121 303q0 178 85 277q80 94 231 94q71 0 133 -25l30 58q12 23 31 23q12 0 24.5 -9t12.5 -25
q0 -8 -7 -21l-30 -61q122 -89 122 -311zM469 624q-43 25 -100 25q-42 0 -75.5 -13.5t-54.5 -32.5t-36.5 -49.5t-22.5 -55t-11 -60t-4.5 -52.5t-0.5 -43q0 -77 10 -130t40 -95zM574 343q0 162 -51 231l-254 -504q45 -25 100 -25q42 0 75.5 13t54.5 31t36.5 48t22.5 53.5
t11 58t4.5 51.5t0.5 43zM545 852l-187 -99h-67q-9 0 -11.5 6t4.5 12l126 103h127q13 0 14.5 -9t-6.5 -13z" />
    <glyph glyph-name="oslashacute" unicode="&#x1ff;" 
d="M448 232q0 -118 -56 -180q-55 -62 -155 -62q-46 0 -82 13q-26 -53 -34 -69q-16 -33 -23 -41t-21 -8q-15 0 -24 10.5t-9 21.5q0 7 27 61q10 18 28 56q-73 63 -73 198q0 116 51 183q53 72 160 72q44 0 82 -15l47 92q11 24 31 24q15 0 24 -10.5t9 -21.5q0 -7 -8 -21l-47 -95
q73 -68 73 -208zM288 410q-22 13 -51 13q-26 0 -46 -9t-31.5 -27t-18.5 -35t-10 -43t-3.5 -40t-0.5 -37q0 -80 14 -114zM347 232q0 83 -15 122l-145 -289q22 -11 50 -11q31 0 53.5 13.5t33 30t16.5 45.5t6.5 45.5t0.5 43.5zM372 683q0 -6 -10 -15l-135 -122h-31
q-25 0 -25 11q0 4 8 15l80 111q6 8 10 9.5t18 1.5h61q14 0 19 -1.5t5 -9.5z" />
    <glyph glyph-name="Adblgrave" unicode="&#x200;" horiz-adv-x="636" 
d="M600 25q0 -25 -38 -25h-34q-31 0 -41.5 11.5t-23.5 52.5l-33 107h-242l-42 -131q-4 -14 -8 -21t-16 -13t-33 -6h-16q-38 0 -38 25l4 16l193 616q12 37 57 37h57q14 0 22 -1t18.5 -10t16.5 -27l193 -617zM407 246l-56 185q-37 123 -42 157h-1q-5 -34 -39 -149l-58 -193
h196zM429 765q0 -8 -5.5 -10t-20.5 -2h-13q-15 0 -19 2t-10 12l-62 109l-6 14q0 8 5 9.5t19 1.5h61q16 0 20 -3t7 -18zM271 765q0 -8 -5.5 -10t-20.5 -2h-13q-15 0 -19 2t-10 12l-62 109l-6 14q0 8 5 9.5t19 1.5h61q16 0 20 -3t7 -18z" />
    <glyph glyph-name="adblgrave" unicode="&#x201;" horiz-adv-x="453" 
d="M408 44q0 -26 -9 -35t-35 -9h-20q-27 0 -35.5 9.5t-8.5 34.5v25q-16 -29 -50.5 -54t-82.5 -25q-57 0 -94 43t-37 99q0 35 14.5 62.5t41.5 44t52 27.5t59 16t49 6.5t34 2.5q8 1 9.5 3.5t1.5 15.5v20q0 34 -6.5 56t-19.5 30t-21 10t-20 2q-74 0 -125 -50q-11 -10 -16 -10
q-7 0 -9 5.5t-4 23.5q-3 24 -3 36q0 8 4 11.5t20 11.5q64 31 137 31q88 0 131 -41.5t43 -114.5v-287zM297 155v101q-18 -1 -35 -4t-40.5 -11t-40 -20.5t-28.5 -35t-12 -51.5q0 -33 19 -56.5t48 -23.5q10 0 22 3.5t28.5 12.5t27.5 31t11 54zM364 558q0 -8 -6 -10t-20 -2h-13
q-15 0 -19 2t-10 12l-62 109l-6 14q0 8 5 9.5t19 1.5h61q16 0 20 -3t7 -18zM206 558q0 -8 -6 -10t-20 -2h-13q-15 0 -19 2t-10 12l-62 109l-6 14q0 8 5 9.5t19 1.5h61q16 0 20 -3t7 -18z" />
    <glyph glyph-name="Edblgrave" unicode="&#x204;" horiz-adv-x="567" 
d="M526 44q0 -26 -9 -35t-35 -9h-356q-27 0 -36 9.5t-9 35.5v601q0 27 9.5 36t35.5 9h343q28 0 36 -10.5t8 -34.5q0 -22 -7 -32t-15.5 -11.5t-29.5 -1.5l-212 3h-46v-205h240q14 0 21.5 -1.5t15 -11t7.5 -28.5q0 -14 -3.5 -23t-11.5 -12t-13.5 -4t-15.5 -1h-240v-226
q18 2 132 2l141 2q19 0 27.5 -1.5t15.5 -11.5t7 -31v-8zM421 765q0 -8 -5.5 -10t-20.5 -2h-13q-15 0 -19 2t-10 12l-62 109l-6 14q0 8 5 9.5t19 1.5h61q16 0 20 -3t7 -18zM263 765q0 -8 -5.5 -10t-20.5 -2h-13q-15 0 -19 2t-10 12l-62 109l-6 14q0 8 5 9.5t19 1.5h61
q16 0 20 -3t7 -18z" />
    <glyph glyph-name="edblgrave" unicode="&#x205;" horiz-adv-x="438" 
d="M411 275q0 -26 -9.5 -34.5t-34.5 -8.5h-238q0 -13 0.5 -24t3.5 -35t11 -42t20 -37t33.5 -29.5t49.5 -10.5q77 0 129 62q8 9 13 9q7 0 8.5 -3t3.5 -17q1 -3 1 -4q3 -27 3 -36q0 -23 -63 -53q-49 -22 -99 -22q-31 0 -60 7t-58.5 25t-50.5 45t-34.5 71.5t-13.5 100.5
q0 70 19 121.5t51 77.5t65.5 37.5t69.5 11.5q87 0 133.5 -54.5t46.5 -157.5zM325 279q-1 22 -2 35.5t-6.5 36.5t-14.5 36.5t-27 24.5t-43 11q-48 0 -73.5 -41.5t-28.5 -102.5h195zM357 558q0 -8 -5.5 -10t-20.5 -2h-13q-15 0 -19 2t-10 12l-62 109l-6 14q0 8 5 9.5t19 1.5
h61q16 0 20 -3t7 -18zM199 558q0 -8 -5.5 -10t-20.5 -2h-13q-15 0 -19 2t-10 12l-62 109l-6 14q0 8 5 9.5t19 1.5h61q16 0 20 -3t7 -18z" />
    <glyph glyph-name="Idblgrave" unicode="&#x208;" horiz-adv-x="283" 
d="M202 44q0 -26 -9 -35t-35 -9h-33q-27 0 -36 9.5t-9 35.5v604q0 27 9.5 36t35.5 9h33q27 0 35.5 -9.5t8.5 -34.5v-606zM279 765q0 -8 -5.5 -10t-20.5 -2h-13q-15 0 -19 2t-10 12l-62 109l-6 14q0 8 5 9.5t19 1.5h61q16 0 20 -3t7 -18zM121 765q0 -8 -5.5 -10t-20.5 -2h-13
q-15 0 -19 2t-10 12l-62 109l-6 14q0 8 5 9.5t19 1.5h61q16 0 20 -3t7 -18z" />
    <glyph glyph-name="idblgrave" unicode="&#x209;" horiz-adv-x="219" 
d="M163 44q0 -26 -9 -35t-35 -9h-19q-27 0 -36 9.5t-9 35.5v382q0 27 9.5 36t35.5 9h19q27 0 35.5 -9.5t8.5 -34.5v-384zM247 558q0 -8 -5.5 -10t-20.5 -2h-13q-15 0 -19 2t-10 12l-62 109l-6 14q0 8 5 9.5t19 1.5h61q16 0 20 -3t7 -18zM89 558q0 -8 -5.5 -10t-20.5 -2h-13
q-15 0 -19 2t-10 12l-62 109l-6 14q0 8 5 9.5t19 1.5h61q16 0 20 -3t7 -18z" />
    <glyph glyph-name="Odblgrave" unicode="&#x20c;" horiz-adv-x="697" 
d="M643 342q0 -177 -79 -270q-77 -91 -216 -91q-138 0 -213 87q-82 95 -82 274q0 163 66 261q36 53 96.5 81.5t132.5 28.5q160 0 238 -125q57 -91 57 -246zM521 358q0 132 -34 198q-45 87 -139 87q-91 0 -136 -82q-37 -65 -37 -203q0 -130 30 -201q25 -59 65 -81.5t78 -22.5
t78 22.5t65 80.5q30 71 30 202zM486 765q0 -8 -6 -10t-20 -2h-13q-15 0 -19 2t-10 12l-62 109l-6 14q0 8 5 9.5t19 1.5h61q16 0 20 -3t7 -18zM328 765q0 -8 -6 -10t-20 -2h-13q-15 0 -19 2t-10 12l-62 109l-6 14q0 8 5 9.5t19 1.5h61q16 0 20 -3t7 -18z" />
    <glyph glyph-name="odblgrave" unicode="&#x20d;" 
d="M448 232q0 -118 -56 -180q-55 -62 -155 -62q-104 0 -158 64q-53 65 -53 178q0 116 51 183q53 72 160 72q104 0 159 -70q52 -65 52 -185zM337 244q0 23 -0.5 36.5t-3 38.5t-9 40t-17 31.5t-28.5 24.5t-42 8q-29 0 -49 -13t-29.5 -29.5t-15 -45.5t-6 -45.5t-0.5 -45.5
t0.5 -46t6 -46.5t15 -47t29.5 -31t49 -13.5t49 13.5t29.5 31t15 47t6 46.5t0.5 46zM375 558q0 -8 -5.5 -10t-20.5 -2h-13q-15 0 -19 2t-10 12l-62 109l-6 14q0 8 5 9.5t19 1.5h61q16 0 20 -3t7 -18zM217 558q0 -8 -5.5 -10t-20.5 -2h-13q-15 0 -19 2t-10 12l-62 109l-6 14
q0 8 5 9.5t19 1.5h61q16 0 20 -3t7 -18z" />
    <glyph glyph-name="Rdblgrave" unicode="&#x210;" horiz-adv-x="614" 
d="M573 22q0 -22 -35 -22h-42q-21 0 -28 4t-15 20l-148 291h-105v-271q0 -26 -9 -35t-35 -9h-30q-27 0 -36 9.5t-9 35.5v604q0 27 9.5 36t35.5 9h199q116 0 175.5 -53.5t59.5 -140.5q0 -135 -143 -176l150 -287q6 -12 6 -15zM446 499q0 57 -27.5 88.5t-107.5 31.5h-111v-240
h110q81 0 108.5 32t27.5 88zM418 765q0 -8 -6 -10t-20 -2h-13q-15 0 -19 2t-10 12l-62 109l-6 14q0 8 5 9.5t19 1.5h61q16 0 20 -3t7 -18zM260 765q0 -8 -6 -10t-20 -2h-13q-15 0 -19 2t-10 12l-62 109l-6 14q0 8 5 9.5t19 1.5h61q16 0 20 -3t7 -18z" />
    <glyph glyph-name="rdblgrave" unicode="&#x211;" horiz-adv-x="321" 
d="M307 427q0 -18 -2.5 -21.5t-15.5 -4.5q-54 -5 -89.5 -46.5t-35.5 -108.5v-202q0 -26 -9 -35t-35 -9h-19q-27 0 -36 9.5t-9 35.5v388q0 27 9.5 36t35.5 9h14q27 0 35.5 -9.5t8.5 -34.5v-66h1q20 58 56.5 86t74.5 28q11 0 13.5 -4.5t2.5 -21.5v-29zM298 558q0 -8 -6 -10
t-20 -2h-13q-15 0 -19 2t-10 12l-62 109l-6 14q0 8 5 9.5t19 1.5h61q16 0 20 -3t7 -18zM140 558q0 -8 -6 -10t-20 -2h-13q-15 0 -19 2t-10 12l-62 109l-6 14q0 8 5 9.5t19 1.5h61q16 0 20 -3t7 -18z" />
    <glyph glyph-name="Udblgrave" unicode="&#x214;" horiz-adv-x="657" 
d="M575 228q0 -109 -62 -178t-183 -69t-185 68.5t-64 178.5v421q0 27 9.5 36t35.5 9h33q27 0 35.5 -9.5t8.5 -34.5v-423q0 -171 128 -171q133 0 133 172v422q0 26 9 35t35 9h23q27 0 35.5 -9.5t8.5 -34.5v-422zM466 765q0 -8 -6 -10t-20 -2h-13q-15 0 -19 2t-10 12l-62 109
l-6 14q0 8 5 9.5t19 1.5h61q16 0 20 -3t7 -18zM308 765q0 -8 -6 -10t-20 -2h-13q-15 0 -19 2t-10 12l-62 109l-6 14q0 8 5 9.5t19 1.5h61q16 0 20 -3t7 -18z" />
    <glyph glyph-name="udblgrave" unicode="&#x215;" horiz-adv-x="483" 
d="M428 44q0 -26 -9 -35t-35 -9h-20q-27 0 -35.5 9.5t-8.5 34.5v31q-38 -85 -120 -85q-75 0 -110.5 32t-35.5 107v298q0 27 9.5 36t35.5 9h22q27 0 35.5 -9.5t8.5 -34.5v-306q0 -47 11 -63t49 -16q46 0 69 41t23 97v247q0 26 9 35t35 9h23q27 0 35.5 -9.5t8.5 -34.5v-384z
M379 558q0 -8 -5.5 -10t-20.5 -2h-13q-15 0 -19 2t-10 12l-62 109l-6 14q0 8 5 9.5t19 1.5h61q16 0 20 -3t7 -18zM221 558q0 -8 -5.5 -10t-20.5 -2h-13q-15 0 -19 2t-10 12l-62 109l-6 14q0 8 5 9.5t19 1.5h61q16 0 20 -3t7 -18z" />
    <glyph glyph-name="uni0218" unicode="&#x218;" horiz-adv-x="528" 
d="M474 195q0 -96 -53 -155t-158 -59q-102 0 -192 55q-21 13 -25 16.5t-4 10.5q0 18 13 74q3 14 12 14q5 0 16 -10q79 -67 179 -67q60 0 83.5 32.5t23.5 77.5q0 40 -20.5 67.5t-46.5 38.5q-3 1 -14.5 4t-27 7.5t-23.5 6.5q-49 12 -75 24.5t-58 45.5q-7 7 -16 19t-22 45.5
t-13 69.5q0 88 51.5 144.5t160.5 56.5q85 0 153 -40q17 -10 20.5 -13t3.5 -9q0 -18 -13 -74q-3 -14 -12 -14q-5 0 -12 7q-60 56 -139 56q-50 0 -79 -24t-29 -75q0 -39 33 -75q12 -12 27.5 -17.5t63.5 -18.5q35 -9 52 -14.5t42 -20.5t44 -38q54 -64 54 -148zM311 -140
q0 -17 -7 -32q-32 -66 -38 -77q-5 -11 -8.5 -13t-17.5 -2t-19 1.5t-5 9.5q0 4 11 41.5t14 47.5q-18 0 -21.5 3.5t-3.5 20.5v48q0 18 3 21t19 3h51q16 0 19 -3t3 -21v-48z" />
    <glyph glyph-name="uni0219" unicode="&#x219;" horiz-adv-x="364" 
d="M342 140q0 -150 -154 -150q-50 0 -97 17q-65 24 -65 43q0 3 5 29t6 30q0 12 11 12q6 0 16 -10q52 -52 122 -52t70 65q0 20 -6.5 33.5t-21 21.5t-24.5 11t-30 8q-142 29 -142 148q0 141 155 141q66 0 118 -27q15 -7 18 -10t3 -9q0 -16 -7 -37q-3 -18 -5.5 -22.5t-8.5 -4.5
q-5 0 -11 5q-49 43 -113 43q-63 0 -63 -59q0 -18 5.5 -30.5t19.5 -20t24 -10.5t32 -8q25 -5 38.5 -9t32.5 -15.5t35 -29.5q37 -43 37 -103zM230 -140q0 -17 -7 -32q-32 -66 -38 -77q-5 -11 -8.5 -13t-17.5 -2q-15 0 -19.5 1.5t-4.5 9.5q0 4 10.5 41.5t14.5 47.5
q-18 0 -21.5 3.5t-3.5 20.5v48q0 18 3 21t19 3h51q16 0 19 -3t3 -21v-48z" />
    <glyph glyph-name="uni021A" unicode="&#x21a;" horiz-adv-x="644" 
d="M609 643q0 -28 -9.5 -36.5t-36.5 -8.5l-180 3v-557q0 -26 -9 -35t-35 -9h-33q-27 0 -36 9.5t-9 35.5v556l-180 -3q-28 0 -37.5 8.5t-9.5 36.5q0 27 9.5 36t35.5 9h486q28 0 36 -10.5t8 -34.5zM370 -140q0 -17 -7 -32q-32 -66 -38 -77q-5 -11 -8.5 -13t-17.5 -2
q-15 0 -19.5 1.5t-4.5 9.5q0 4 10.5 41.5t14.5 47.5q-18 0 -21.5 3.5t-3.5 20.5v48q0 18 3 21t19 3h51q16 0 19 -3t3 -21v-48z" />
    <glyph glyph-name="uni021B" unicode="&#x21b;" horiz-adv-x="346" 
d="M318 50q0 -8 -20 -21.5t-57 -26t-74 -12.5q-88 0 -88 131v287h-17q-44 0 -44 32t45 32h19v90q0 27 9.5 36t35.5 9h13q27 0 35.5 -9.5t8.5 -34.5v-91h74q44 0 44 -32t-44 -32h-74v-269q0 -79 34 -79q39 0 63 28q8 12 15 12q6 0 8.5 -4t6.5 -17q0 -1 3.5 -14t3.5 -15z
M220 -140q0 -17 -7 -32q-32 -66 -38 -77q-5 -11 -8.5 -13t-17.5 -2q-15 0 -19.5 1.5t-4.5 9.5q0 4 10.5 41.5t14.5 47.5q-18 0 -21.5 3.5t-3.5 20.5v48q0 18 3 21t19 3h51q16 0 19 -3t3 -21v-48z" />
    <glyph glyph-name="uni0237" unicode="&#x237;" horiz-adv-x="246" 
d="M190 -25q0 -75 -34.5 -113.5t-93.5 -38.5q-38 0 -81 14t-43 27q0 2 4 14t4 15q5 15 7.5 19t8.5 4q1 0 13 -6q24 -14 52 -14q25 0 38.5 12t15 22.5t1.5 27.5v470q0 26 9 35t35 9h20q27 0 35.5 -9.5t8.5 -34.5v-453z" />
    <glyph glyph-name="ereversed" unicode="&#x258;" horiz-adv-x="438" 
d="M411 239q0 -56 -13.5 -100.5t-34.5 -71.5t-50.5 -45t-58.5 -25t-60 -7q-50 0 -99 22q-63 30 -63 53q0 9 3 36q8 23 13 24q6 0 13 -9q52 -62 129 -62q28 0 49.5 10.5t33.5 29.5t20 37t11 42t3.5 35t0.5 24h-238q-25 0 -34.5 8.5t-9.5 34.5q0 103 46.5 157.5t133.5 54.5
q36 0 69.5 -11.5t65.5 -37.5t51 -77.5t19 -121.5zM307 279q-3 61 -28.5 102.5t-73.5 41.5q-25 0 -43 -11t-27 -24.5t-14.5 -36.5t-6.5 -36.5t-2 -35.5h195z" />
    <glyph glyph-name="schwa" unicode="&#x259;" horiz-adv-x="438" 
d="M411 238q0 -70 -19 -121.5t-51 -77.5t-65.5 -37.5t-69.5 -11.5q-87 0 -133.5 54.5t-46.5 157.5q0 26 9.5 34.5t34.5 8.5h238q0 13 -0.5 24t-3.5 35t-11 42t-20 37t-33.5 29.5t-49.5 10.5q-77 0 -129 -62q-7 -9 -13 -9q-7 0 -8.5 3t-3.5 17q-1 3 -1 4q-3 27 -3 36
q0 23 63 53q49 22 99 22q31 0 60 -7t58.5 -25t50.5 -45t34.5 -71.5t13.5 -100.5zM307 198h-195q1 -22 2 -35.5t6.5 -36.5t14.5 -36.5t27 -24.5t43 -11q48 0 73.5 41.5t28.5 102.5z" />
    <glyph glyph-name="ringhalfright" unicode="&#x2be;" horiz-adv-x="379" 
d="M326 452q0 -89 -40 -137t-117 -48q-54 0 -96 26q-16 8 -16 18q0 3 6 27q2 16 5.5 20.5t10.5 4.5q6 0 14 -8q32 -26 75 -26q23 0 37.5 11t20 32.5t7 37.5t1.5 41q0 23 -1 36t-6 37t-19 36.5t-37 12.5q-51 0 -86 -39q-7 -8 -14 -8q-8 0 -11.5 4.5t-4.5 20.5q0 3 -1 14
t-1 13q0 8 11.5 18.5t23.5 17.5l12 6q34 16 72 16q74 0 115 -48q39 -49 39 -136z" />
    <glyph glyph-name="ringhalfleft" unicode="&#x2bf;" horiz-adv-x="379" 
d="M326 325q0 -8 -12 -18.5t-24 -16.5l-11 -7q-34 -16 -72 -16q-74 0 -115 48q-39 49 -39 136q0 89 40 137t117 48q54 0 96 -26q16 -8 16 -18q0 -3 -6 -27q-2 -16 -5.5 -20.5t-10.5 -4.5q-6 0 -14 8q-32 26 -75 26q-23 0 -37.5 -11t-20 -32.5t-7 -37.5t-1.5 -41q0 -23 1 -36
t6 -37t19 -36.5t37 -12.5q51 0 86 39q7 8 14 8q8 0 11.5 -4.5t4.5 -20.5q0 -3 1 -14t1 -13z" />
    <glyph glyph-name="circumflex" unicode="&#x2c6;" 
d="M399 560q4 -6 0.5 -13.5t-10.5 -7.5h-47q-4 1 -6 2l-98 101l-98 -101l-6 -2h-47q-7 0 -10.5 6.5t0.5 12.5l98 139q3 4 9 4h111q6 0 9 -4z" />
    <glyph glyph-name="caron" unicode="&#x2c7;" 
d="M399 682l-98 -139q-3 -4 -9 -4h-111q-6 0 -9 4l-95 137q-4 6 -0.5 13.5t10.5 7.5h47q4 -1 6 -2l98 -101l98 101l6 2h47q7 0 10.5 -6.5t-0.5 -12.5z" />
    <glyph glyph-name="breve" unicode="&#x2d8;" 
d="M401 655q0 -42 -40.5 -73t-122.5 -31q-81 0 -122 31t-41 73q0 19 11 27t21 8q28 0 32 -32q3 -27 99 -27q95 0 99 24q3 35 32 35q11 0 21.5 -8.5t10.5 -26.5z" />
    <glyph glyph-name="dotaccent" unicode="&#x2d9;" horiz-adv-x="264" 
d="M193 608q0 -28 -9.5 -37.5t-35.5 -9.5h-33q-27 0 -36 10t-9 37v24q0 29 9.5 38t35.5 9h33q27 0 36 -9.5t9 -37.5v-24z" />
    <glyph glyph-name="ring" unicode="&#x2da;" horiz-adv-x="636" 
d="M365 609q0 15 -8 22.5t-16 9t-23 1.5t-23.5 -1.5t-16 -9t-7.5 -22.5t8 -22.5t16 -9t23 -1.5t23.5 1.5t16 9t7.5 22.5zM424 609q0 -74 -107 -74q-12 0 -23.5 1.5t-33.5 7.5t-35 22.5t-13 42.5q0 74 107 74q12 0 23.5 -1.5t33.5 -7.5t35 -22.5t13 -42.5z" />
    <glyph glyph-name="ogonek" unicode="&#x2db;" 
d="M339 -133q2 -6 -0.5 -14t-7.5 -10q-62 -26 -100 -27q-44 -1 -70.5 26t-25.5 63q1 35 18.5 64.5t47.5 45.5l67 -3q-40 -29 -42 -82q-1 -16 8 -26t26 -10q27 0 49 11q4 3 12 0.5t9 -9.5z" />
    <glyph glyph-name="tilde" unicode="&#x2dc;" 
d="M396 663q0 -35 -26 -68.5t-69 -33.5q-39 0 -80 32q-30 23 -45 23q-27 0 -32 -40q-1 -11 -5 -13t-20 -2h-13q-16 0 -21 2.5t-5 14.5q0 35 26 68.5t69 33.5q39 0 80 -32q30 -23 45 -23q27 0 32 40q1 11 5 13t20 2h14q16 0 20.5 -2.5t4.5 -14.5z" />
    <glyph glyph-name="hungarumlaut" unicode="&#x2dd;" 
d="M236 683q0 -4 -6 -14l-62 -109q-6 -10 -10 -12t-19 -2h-13q-10 0 -14.5 0.5t-8 3t-3.5 8.5l24 115q3 15 7 18t20 3h61q14 0 19 -1.5t5 -9.5zM394 683q0 -4 -6 -14l-62 -109q-6 -10 -10 -12t-19 -2h-13q-10 0 -14.5 0.5t-8 3t-3.5 8.5l24 115q3 15 7 18t20 3h61
q14 0 19 -1.5t5 -9.5z" />
    <glyph glyph-name="uni0300" unicode="&#x300;" horiz-adv-x="0" 
d="M-160 557q0 -11 -25 -11h-31l-135 122q-10 9 -10 15q0 8 5 9.5t19 1.5h61q14 0 18 -1.5t10 -9.5l80 -111z" />
    <glyph glyph-name="uni0301" unicode="&#x301;" horiz-adv-x="0" 
d="M-92 683q0 -6 -10 -15l-135 -122h-31q-25 0 -25 11q0 4 8 15l80 111q6 8 10 9.5t18 1.5h61q14 0 19 -1.5t5 -9.5z" />
    <glyph glyph-name="uni0302" unicode="&#x302;" horiz-adv-x="0" 
d="M-65 560q4 -6 0.5 -13.5t-10.5 -7.5h-47q-4 1 -6 2l-98 101l-98 -101l-6 -2h-47q-7 0 -10.5 6.5t0.5 12.5l98 139q3 4 9 4h111q6 0 9 -4z" />
    <glyph glyph-name="uni0303" unicode="&#x303;" horiz-adv-x="0" 
d="M-68 663q0 -35 -26 -68.5t-69 -33.5q-39 0 -80 32q-30 23 -45 23q-27 0 -32 -40q-1 -11 -5 -13t-20 -2h-13q-16 0 -21 2.5t-5 14.5q0 35 26 68.5t69 33.5q39 0 80 -32q30 -23 45 -23q27 0 32 40q1 11 5 13t20 2h14q16 0 20.5 -2.5t4.5 -14.5z" />
    <glyph glyph-name="uni0304" unicode="&#x304;" horiz-adv-x="0" 
d="M-55 610q0 -19 -3.5 -22.5t-21.5 -3.5h-291q-19 0 -22.5 3.5t-3.5 22.5v21q0 19 3.5 22.5t21.5 3.5h292q18 0 21.5 -3.5t3.5 -22.5v-21z" />
    <glyph glyph-name="uni0306" unicode="&#x306;" horiz-adv-x="0" 
d="M-63 655q0 -42 -40.5 -73t-122.5 -31q-81 0 -122 31t-41 73q0 19 11 27t21 8q28 0 32 -32q3 -27 99 -27q95 0 99 24q3 35 32 35q11 0 21.5 -8.5t10.5 -26.5z" />
    <glyph glyph-name="uni0307" unicode="&#x307;" horiz-adv-x="0" 
d="M-165 608q0 -28 -9.5 -37.5t-35.5 -9.5h-33q-27 0 -36 10t-9 37v24q0 29 9.5 38t35.5 9h33q27 0 36 -9.5t9 -37.5v-24z" />
    <glyph glyph-name="uni0308" unicode="&#x308;" horiz-adv-x="0" 
d="M-272 609q0 -25 -8.5 -33.5t-32.5 -8.5h-30q-24 0 -32 9t-8 33v22q0 26 8.5 34t31.5 8h30q24 0 32.5 -8.5t8.5 -33.5v-22zM-69 609q0 -25 -8.5 -33.5t-32.5 -8.5h-30q-24 0 -32 9t-8 33v22q0 26 8.5 34t31.5 8h30q24 0 32.5 -8.5t8.5 -33.5v-22z" />
    <glyph glyph-name="uni0309" unicode="&#x309;" horiz-adv-x="0" 
d="M-134 654q0 -35 -26 -53l-3 -1q-52 -33 -52 -60v-19q0 -11 -11 -11h-14q-11 0 -11 11v19q0 54 39 93q6 6 6 21q0 23 -5 29q-6 7 -22 7q-17 0 -30.5 -15t-19.5 -39q-1 -3 -2 -5l-4 -2l-1 -1h-3h-4l-4 3l-3 3l-14 40l-1 4q1 4 2 6q29 47 84 47q47 0 73 -18q26 -20 26 -59z
" />
    <glyph glyph-name="uni030A" unicode="&#x30a;" horiz-adv-x="0" 
d="M-179 609q0 15 -8 22.5t-16 9t-23 1.5t-23.5 -1.5t-16 -9t-7.5 -22.5t8 -22.5t16 -9t23 -1.5t23.5 1.5t16 9t7.5 22.5zM-120 609q0 -74 -107 -74q-12 0 -23.5 1.5t-33.5 7.5t-35 22.5t-13 42.5q0 74 107 74q12 0 23.5 -1.5t33.5 -7.5t35 -22.5t13 -42.5z" />
    <glyph glyph-name="uni030B" unicode="&#x30b;" horiz-adv-x="0" 
d="M-228 683q0 -4 -6 -14l-62 -109q-6 -10 -10 -12t-19 -2h-13q-10 0 -14.5 0.5t-8 3t-3.5 8.5l24 115q3 15 7 18t20 3h61q14 0 19 -1.5t5 -9.5zM-70 683q0 -4 -6 -14l-62 -109q-6 -10 -10 -12t-19 -2h-13q-10 0 -14.5 0.5t-8 3t-3.5 8.5l24 115q3 15 7 18t20 3h61
q14 0 19 -1.5t5 -9.5z" />
    <glyph glyph-name="uni030C" unicode="&#x30c;" horiz-adv-x="0" 
d="M-65 682l-98 -139q-3 -4 -9 -4h-111q-6 0 -9 4l-95 137q-4 6 -0.5 13.5t10.5 7.5h47q4 -1 6 -2l98 -101l98 101l6 2h47q7 0 10.5 -6.5t-0.5 -12.5z" />
    <glyph glyph-name="uni030F" unicode="&#x30f;" horiz-adv-x="0" 
d="M-89 558q0 -8 -5.5 -10t-20.5 -2h-13q-15 0 -19 2t-10 12l-62 109l-6 14q0 8 5 9.5t19 1.5h61q16 0 20 -3t7 -18zM-247 558q0 -8 -5.5 -10t-20.5 -2h-13q-15 0 -19 2t-10 12l-62 109l-6 14q0 8 5 9.5t19 1.5h61q16 0 20 -3t7 -18z" />
    <glyph glyph-name="uni0311" unicode="&#x311;" horiz-adv-x="0" 
d="M-63 586q0 -19 -11 -27t-21 -8q-28 0 -32 32q-3 27 -99 27q-95 0 -99 -24q-3 -35 -32 -35q-11 0 -21.5 8.5t-10.5 26.5q0 42 40.5 73t122.5 31q81 0 122 -31t41 -73z" />
    <glyph glyph-name="uni0323" unicode="&#x323;" horiz-adv-x="0" 
d="M-165 -153q0 -28 -9.5 -37.5t-35.5 -9.5h-33q-27 0 -36 10t-9 37v24q0 29 9.5 38t35.5 9h33q27 0 36 -9.5t9 -37.5v-24z" />
    <glyph glyph-name="uni0326" unicode="&#x326;" horiz-adv-x="0" 
d="M-179 -140q0 -17 -7 -32q-32 -66 -38 -77q-5 -11 -8.5 -13t-17.5 -2t-19 1.5t-5 9.5q0 4 11 41.5t14 47.5q-18 0 -21.5 3.5t-3.5 20.5v48q0 18 3 21t19 3h51q16 0 19 -3t3 -21v-48z" />
    <glyph glyph-name="uni032E" unicode="&#x32e;" horiz-adv-x="0" 
d="M-63 -106q0 -42 -40.5 -73t-122.5 -31q-81 0 -122 31t-41 73q0 19 11 27t21 8q28 0 32 -32q3 -27 99 -27q95 0 99 24q3 35 32 35q11 0 21.5 -8.5t10.5 -26.5z" />
    <glyph glyph-name="uni032F" unicode="&#x32f;" horiz-adv-x="0" 
d="M-63 -175q0 -19 -11 -27t-21 -8q-28 0 -32 32q-3 27 -99 27q-95 0 -99 -24q-3 -35 -32 -35q-11 0 -21.5 8.5t-10.5 26.5q0 42 40.5 73t122.5 31q81 0 122 -31t41 -73z" />
    <glyph glyph-name="uni0330" unicode="&#x330;" horiz-adv-x="0" 
d="M-68 -98q0 -35 -26 -68.5t-69 -33.5q-39 0 -80 32q-30 23 -45 23q-27 0 -32 -40q-1 -11 -5 -13t-20 -2h-13q-16 0 -21 2.5t-5 14.5q0 35 26 68.5t69 33.5q39 0 80 -32q30 -23 45 -23q27 0 32 40q1 11 5 13t20 2h14q16 0 20.5 -2.5t4.5 -14.5z" />
    <glyph glyph-name="uni0331" unicode="&#x331;" horiz-adv-x="0" 
d="M-55 -151q0 -19 -3.5 -22.5t-21.5 -3.5h-291q-19 0 -22.5 3.5t-3.5 22.5v21q0 19 3.5 22.5t21.5 3.5h292q18 0 21.5 -3.5t3.5 -22.5v-21z" />
    <glyph glyph-name="uni0332" unicode="&#x332;" horiz-adv-x="0" 
d="M-55 -151q0 -19 -3.5 -22.5t-21.5 -3.5h-291q-19 0 -22.5 3.5t-3.5 22.5v21q0 19 3.5 22.5t21.5 3.5h292q18 0 21.5 -3.5t3.5 -22.5v-21z" />
    <glyph glyph-name="Alpha" unicode="&#x391;" horiz-adv-x="636" 
d="M600 25q0 -25 -38 -25h-34q-31 0 -41.5 11.5t-23.5 52.5l-33 107h-242l-42 -131q-4 -14 -8 -21t-16 -13t-33 -6h-16q-38 0 -38 25l4 16l193 616q12 37 57 37h57q14 0 22 -1t18.5 -10t16.5 -27l193 -617zM407 246l-56 185q-37 123 -42 157h-1q-5 -34 -39 -149l-58 -193
h196z" />
    <glyph glyph-name="Beta" unicode="&#x392;" horiz-adv-x="635" 
d="M581 192q0 -80 -54.5 -136t-175.5 -56h-225q-27 0 -36 9.5t-9 35.5v604q0 27 9.5 36t35.5 9h200q118 0 173.5 -51t55.5 -127q0 -59 -36.5 -98.5t-100.5 -54.5q87 -15 125 -62t38 -109zM444 514q0 36 -18.5 60t-49 32.5t-46.5 10.5t-34 2h-99v-226h99q77 0 112.5 34
t35.5 87zM467 194q0 38 -15 65.5t-33.5 40.5t-45.5 20t-40 8t-28 1h-108v-254h124q70 0 108 30.5t38 88.5z" />
    <glyph glyph-name="Gamma" unicode="&#x393;" horiz-adv-x="514" 
d="M473 646q0 -30 -10.5 -37.5t-38.5 -7.5l-190 3h-31v-560q0 -26 -9 -35t-35 -9h-33q-27 0 -36 9.5t-9 35.5v601q0 27 9.5 36t35.5 9h303q28 0 36 -10.5t8 -34.5z" />
    <glyph glyph-name="Delta" unicode="&#x394;" horiz-adv-x="792" 
d="M740 24q0 -16 -10 -20t-28 -4h-613q-12 0 -18 1t-13 6.5t-7 16.5q0 6 6 19l248 613q7 18 18.5 26.5t20 10t24.5 1.5h55q12 0 18.5 -0.5t16 -4t16 -12t12.5 -22.5l248 -612q6 -14 6 -19zM575 110l-190 481l-189 -481h379z" />
    <glyph glyph-name="Epsilon" unicode="&#x395;" horiz-adv-x="567" 
d="M526 44q0 -26 -9 -35t-35 -9h-356q-27 0 -36 9.5t-9 35.5v601q0 27 9.5 36t35.5 9h343q28 0 36 -10.5t8 -34.5q0 -22 -7 -32t-15.5 -11.5t-29.5 -1.5l-212 3h-46v-205h240q14 0 21.5 -1.5t15 -11t7.5 -28.5q0 -14 -3.5 -23t-11.5 -12t-13.5 -4t-15.5 -1h-240v-226
q18 2 132 2l141 2q19 0 27.5 -1.5t15.5 -11.5t7 -31v-8z" />
    <glyph glyph-name="Zeta" unicode="&#x396;" horiz-adv-x="581" 
d="M533 45q0 -25 -8 -35t-36 -10h-392q-27 0 -35.5 10t-8.5 35q0 21 9 35l324 533h-36l-230 -3q-22 0 -31 1.5t-16 11t-7 29.5q0 19 7.5 29t15 11.5t22.5 1.5h372q24 0 34 -8.5t10 -34.5q0 -19 -9 -33l-323 -531l288 4q29 0 39.5 -7.5t10.5 -38.5z" />
    <glyph glyph-name="Eta" unicode="&#x397;" horiz-adv-x="678" 
d="M596 44q0 -26 -9 -35t-35 -9h-34q-27 0 -35.5 9.5t-8.5 34.5v276h-271v-276q0 -26 -9 -35t-35 -9h-33q-27 0 -36 9.5t-9 35.5v604q0 27 9.5 36t35.5 9h33q27 0 35.5 -9.5t8.5 -34.5v-249h271v249q0 26 9 35t35 9h34q27 0 35.5 -9.5t8.5 -34.5v-606z" />
    <glyph glyph-name="Theta" unicode="&#x398;" horiz-adv-x="739" 
d="M685 342q0 -172 -82 -267q-37 -43 -97.5 -68.5t-136.5 -25.5q-157 0 -238 98q-78 96 -78 263q0 178 85 277q80 94 231 94t232 -94q84 -98 84 -277zM569 343q0 136 -38 207q-53 99 -162 99q-112 0 -165 -103q-35 -71 -35 -203q0 -295 200 -295t200 295zM515 338
q0 -27 -10 -36t-37 -9h-198q-28 0 -37.5 9.5t-9.5 35.5v21q0 27 10 36t37 9h198q28 0 37.5 -9.5t9.5 -35.5v-21z" />
    <glyph glyph-name="Iota" unicode="&#x399;" horiz-adv-x="283" 
d="M202 44q0 -26 -9 -35t-35 -9h-33q-27 0 -36 9.5t-9 35.5v604q0 27 9.5 36t35.5 9h33q27 0 35.5 -9.5t8.5 -34.5v-606z" />
    <glyph glyph-name="Kappa" unicode="&#x39a;" horiz-adv-x="663" 
d="M605 27q0 -13 -5 -19t-10.5 -7t-18.5 -1h-39q-20 0 -28 3.5t-18 19.5l-197 306l-97 -106v-179q0 -26 -9 -35t-35 -9h-22q-27 0 -36 9.5t-9 35.5v604q0 27 9.5 36t35.5 9h22q27 0 35.5 -9.5t8.5 -34.5v-289l286 312q19 21 52 21h37q33 0 33 -19q0 -7 -12 -20l-227 -248z
" />
    <glyph glyph-name="Lambda" unicode="&#x39b;" horiz-adv-x="583" 
d="M548 25q0 -25 -39 -25h-35q-15 0 -23 1.5t-18 10.5t-15 28l-100 375q-34 125 -37 169h-1q-2 -36 -29 -142l-38 -151l-69 -251q-7 -27 -20.5 -33.5t-35.5 -6.5h-15q-39 0 -39 25q0 3 4 15l170 616q5 18 15 27t18 10t22 1h56q14 0 22 -1.5t18 -10t15 -26.5l170 -614
q4 -14 4 -17z" />
    <glyph glyph-name="Mu" unicode="&#x39c;" horiz-adv-x="836" 
d="M754 44q0 -26 -9 -35t-35 -9h-16q-27 0 -35.5 9.5t-8.5 34.5v540q-1 -12 -35.5 -122t-39.5 -123l-96 -278q-9 -26 -21 -34t-42 -8q-12 0 -19 0.5t-16.5 4t-16 12t-11.5 22.5l-90 264l-42 132q-32 108 -35 130h-1v-540q0 -26 -9 -35t-35 -9h-15q-27 0 -36 9.5t-9 35.5v604
q0 27 9.5 36t35.5 9h62q14 0 22 -1.5t19.5 -10.5t17.5 -27l90 -263l44 -136q31 -99 35 -130h1q3 21 33 122l40 123l97 281q5 15 9 22t16.5 13.5t33.5 6.5h64q27 0 35.5 -9.5t8.5 -34.5v-606z" />
    <glyph glyph-name="Nu" unicode="&#x39d;" horiz-adv-x="678" 
d="M596 44q0 -26 -9 -35t-35 -9h-73q-27 0 -40 8t-23 32l-189 442q-31 75 -41 106h-1v-544q0 -26 -9 -35t-35 -9h-15q-27 0 -36 9.5t-9 35.5v604q0 27 9.5 36t35.5 9h72q27 0 40 -8t23 -32l189 -442q31 -75 41 -106h1v544q0 26 9 35t35 9h16q27 0 35.5 -9.5t8.5 -34.5v-606z
" />
    <glyph glyph-name="Xi" unicode="&#x39e;" horiz-adv-x="633" 
d="M587 630q0 -31 -11.5 -37.5t-48.5 -6.5l-211 2l-211 -2q-37 0 -48.5 6.5t-11.5 37.5v13q0 27 9.5 36t35.5 9h453q27 0 35.5 -9.5t8.5 -34.5v-14zM592 44q0 -26 -9 -35t-35 -9h-463q-27 0 -36 9.5t-9 35.5v13q0 31 11.5 37.5t49.5 6.5l215 -2l215 2q38 0 49.5 -6.5
t11.5 -37.5v-14zM526 352q0 -26 -9 -35t-35 -9h-332q-27 0 -35.5 9.5t-8.5 34.5v11q0 27 9.5 36t35.5 9h331q27 0 35.5 -9.5t8.5 -34.5v-12z" />
    <glyph glyph-name="Omicron" unicode="&#x39f;" horiz-adv-x="697" 
d="M643 342q0 -177 -79 -270q-77 -91 -216 -91q-138 0 -213 87q-82 95 -82 274q0 163 66 261q36 53 96.5 81.5t132.5 28.5q160 0 238 -125q57 -91 57 -246zM521 358q0 132 -34 198q-45 87 -139 87q-91 0 -136 -82q-37 -65 -37 -203q0 -130 30 -201q25 -59 65 -81.5t78 -22.5
t78 22.5t65 80.5q30 71 30 202z" />
    <glyph glyph-name="Pi" unicode="&#x3a0;" horiz-adv-x="678" 
d="M596 44q0 -26 -9 -35t-35 -9h-34q-27 0 -35.5 9.5t-8.5 34.5v566h-271v-566q0 -26 -9 -35t-35 -9h-33q-27 0 -36 9.5t-9 35.5v601q0 27 9.5 36t35.5 9h426q27 0 35.5 -9.5t8.5 -34.5v-603z" />
    <glyph glyph-name="Rho" unicode="&#x3a1;" horiz-adv-x="608" 
d="M554 484q0 -57 -19.5 -99.5t-51.5 -64.5t-67.5 -32t-74.5 -10h-138v-234q0 -26 -9 -35t-35 -9h-33q-27 0 -36 9.5t-9 35.5v604q0 27 9.5 36t35.5 9h206q109 0 165.5 -56.5t56.5 -153.5zM440 483q0 30 -4 50.5t-17 42t-42.5 32.5t-74.5 11h-102v-272h102q46 0 75.5 11.5
t42 33.5t16.5 42t4 49z" />
    <glyph glyph-name="Sigma" unicode="&#x3a3;" horiz-adv-x="686" 
d="M632 44q0 -26 -9 -35t-35 -9h-490q-45 0 -45 32q0 10 11 26l199 279l-201 280q-9 13 -9 34q0 27 10.5 35t34.5 8h490q28 0 36 -10.5t8 -34.5q0 -17 -2.5 -26t-11.5 -13.5t-17.5 -5t-28.5 -0.5l-292 3h-60l169 -235q10 -14 10 -25q0 -10 -11 -25l-162 -229h62l284 3
q37 0 48.5 -6.5t11.5 -37.5v-8z" />
    <glyph glyph-name="Tau" unicode="&#x3a4;" horiz-adv-x="644" 
d="M609 643q0 -28 -9.5 -36.5t-36.5 -8.5l-180 3v-557q0 -26 -9 -35t-35 -9h-33q-27 0 -36 9.5t-9 35.5v556l-180 -3q-28 0 -37.5 8.5t-9.5 36.5q0 27 9.5 36t35.5 9h486q28 0 36 -10.5t8 -34.5z" />
    <glyph glyph-name="Upsilon" unicode="&#x3a5;" horiz-adv-x="739" 
d="M685 559q0 -36 -46 -36h-19q-25 0 -34.5 7.5t-11.5 30.5t-16 41.5t-40 18.5q-56 0 -76 -87q-12 -50 -12 -137v-353q0 -26 -9 -35t-35 -9h-33q-27 0 -36 9.5t-9 35.5v352q0 79 -11 131q-19 93 -77 93q-25 0 -39.5 -18t-16.5 -43q-1 -17 -8.5 -25.5t-15 -10t-22.5 -1.5h-19
q-46 0 -46 36q0 59 47.5 106.5t118.5 47.5q117 0 149 -169h1q33 169 150 169q71 0 118.5 -47.5t47.5 -106.5z" />
    <glyph glyph-name="Phi" unicode="&#x3a6;" horiz-adv-x="686" 
d="M632 347q0 -94 -55.5 -161t-178.5 -79v-63q0 -26 -9 -35t-35 -9h-27q-27 0 -36 9.5t-9 35.5v62q-121 14 -175 81t-54 159q0 93 54.5 159.5t174.5 80.5v62q0 27 9.5 36t35.5 9h27q27 0 35.5 -9.5t8.5 -34.5v-63q64 -6 111 -29t73 -57t38 -72t12 -82zM282 174v346
q-38 -8 -62 -28.5t-33.5 -49.5t-12 -48.5t-2.5 -46.5q0 -148 110 -173zM513 347q0 28 -3 49.5t-13 50t-35.5 48t-63.5 26.5v-348q38 8 63.5 27.5t35.5 47.5t13 49.5t3 49.5z" />
    <glyph glyph-name="Chi" unicode="&#x3a7;" horiz-adv-x="636" 
d="M603 27q0 -13 -4.5 -19t-10 -7t-18.5 -1h-56q-20 0 -27.5 3.5t-17.5 18.5l-158 252l-153 -252q-6 -11 -13 -15.5t-13 -5.5t-19 -1h-48q-11 0 -16.5 0.5t-11.5 5.5t-6 15q0 7 8 19l213 327l-198 287q-9 13 -9 20q0 20 34 20h56q20 0 27.5 -3.5t16.5 -17.5l132 -202
l128 205q11 18 43 18h49q34 0 34 -21q0 -4 -8 -17l-187 -289z" />
    <glyph glyph-name="Psi" unicode="&#x3a8;" horiz-adv-x="739" 
d="M685 583q0 -29 -32 -32q-15 -26 -15 -135q0 -56 -8 -100.5t-29.5 -90t-66.5 -76t-110 -41.5v-64q0 -26 -9 -35t-35 -9h-27q-27 0 -36 9.5t-9 35.5v64q-43 7 -76.5 24t-55 37.5t-37 51t-23 54.5t-11.5 58.5t-4.5 53t-0.5 46.5q0 88 -15 117q-32 3 -32 32q0 32 45 32h29
q51 0 70 -40t19 -141q0 -30 0.5 -47.5t3 -48t8.5 -51t15.5 -43.5t26 -39t38.5 -25v469q0 27 9.5 36t35.5 9h27q27 0 35.5 -9.5t8.5 -34.5v-471q33 12 54.5 39t30 66t11 67t2.5 66q0 54 2.5 85.5t11.5 60t27 40.5t48 12h30q44 0 44 -32z" />
    <glyph glyph-name="Omega" unicode="&#x3a9;" horiz-adv-x="686" 
d="M643 44q0 -26 -9 -35t-35 -9h-162q-14 0 -21.5 1.5t-15.5 10.5t-8 28q0 74 51 196q39 90 53 135t14 94q0 184 -168 184q-167 0 -167 -184q0 -46 13 -89.5t42 -113.5q63 -145 63 -223q0 -18 -8 -27t-15.5 -10.5t-20.5 -1.5h-162q-29 0 -37 10.5t-8 36.5q0 33 11 40t43 7
q8 0 23 -0.5t22 -0.5h57q15 0 22 -1q-16 48 -72 135q-32 49 -48 77t-31.5 72.5t-15.5 87.5t12.5 82.5t42.5 79t90.5 63.5t144.5 24q67 0 119 -16t83.5 -41t51.5 -59t27.5 -66.5t7.5 -66.5q0 -43 -15.5 -88.5t-32 -73.5t-49.5 -79q-53 -78 -70 -131q6 1 22 1h57q8 0 23 0.5
t22 0.5q22 0 31 -1.5t16 -11.5t7 -31v-6z" />
    <glyph glyph-name="baht" unicode="&#xe3f;" horiz-adv-x="635" 
d="M581 192q0 -80 -54.5 -135.5t-174.5 -56.5v-65q0 -8 -6 -14.5t-15 -6.5h-43q-9 0 -15.5 6.5t-6.5 14.5v65h-140q-27 0 -36 9.5t-9 35.5v604q0 27 9.5 36t35.5 9h140v65q0 9 6.5 15t15.5 6h43q9 0 15 -6t6 -15v-66q104 -6 153.5 -55.5t49.5 -121.5q0 -59 -36.5 -98.5
t-100.5 -54.5q87 -15 125 -62t38 -109zM444 514q0 80 -92 99v-214q92 23 92 115zM266 393v226h-69v-226h69zM467 194q0 112 -115 131v-248q56 6 85.5 36t29.5 81zM266 75v254h-69v-254h69z" />
    <glyph glyph-name="Ddotbelow" unicode="&#x1e0c;" horiz-adv-x="688" 
d="M633 342q0 -168 -79 -257q-73 -85 -209 -85h-219q-27 0 -36 9.5t-9 35.5v604q0 27 9.5 36t35.5 9h218q69 0 128.5 -27t96.5 -80q64 -92 64 -245zM514 342q0 25 -0.5 41t-4.5 48.5t-11 54t-22 49t-36 44.5t-54 28.5t-75 11.5h-111v-544h112q42 0 75 11t53.5 27t35.5 42.5
t22 47.5t11 52t4.5 46.5t0.5 40.5zM317 -153q0 -28 -9.5 -37.5t-35.5 -9.5h-33q-27 0 -36 10t-9 37v24q0 29 9.5 38t35.5 9h33q27 0 36 -9.5t9 -37.5v-24z" />
    <glyph glyph-name="ddotbelow" unicode="&#x1e0d;" horiz-adv-x="483" 
d="M426 44q0 -26 -9 -35t-35 -9h-23q-27 0 -35.5 9.5t-8.5 34.5q-4 -6 -14 -16.5t-36.5 -24t-56.5 -13.5q-92 0 -141 81q-35 59 -35 165q0 113 43 176q48 70 138 70q64 0 105 -49v217q0 26 9 35t35 9h20q27 0 35.5 -9.5t8.5 -34.5v-606zM315 101v283q-34 34 -68 34
q-30 0 -51 -14t-31 -31.5t-15.5 -47.5t-6 -46.5t-0.5 -43.5q0 -22 0.5 -35.5t3 -38.5t8.5 -40.5t16 -32.5t26.5 -25.5t39.5 -8.5q48 0 78 47zM303 -153q0 -28 -9.5 -37.5t-35.5 -9.5h-33q-27 0 -36 10t-9 37v24q0 29 9.5 38t35.5 9h33q27 0 36 -9.5t9 -37.5v-24z" />
    <glyph glyph-name="Dlinebelow" unicode="&#x1e0e;" horiz-adv-x="688" 
d="M633 342q0 -168 -79 -257q-73 -85 -209 -85h-219q-27 0 -36 9.5t-9 35.5v604q0 27 9.5 36t35.5 9h218q69 0 128.5 -27t96.5 -80q64 -92 64 -245zM514 342q0 25 -0.5 41t-4.5 48.5t-11 54t-22 49t-36 44.5t-54 28.5t-75 11.5h-111v-544h112q42 0 75 11t53.5 27t35.5 42.5
t22 47.5t11 52t4.5 46.5t0.5 40.5zM428 -151q0 -19 -3.5 -22.5t-21.5 -3.5h-291q-19 0 -22.5 3.5t-3.5 22.5v21q0 19 3.5 22.5t21.5 3.5h292q18 0 21.5 -3.5t3.5 -22.5v-21z" />
    <glyph glyph-name="dlinebelow" unicode="&#x1e0f;" horiz-adv-x="483" 
d="M426 44q0 -26 -9 -35t-35 -9h-23q-27 0 -35.5 9.5t-8.5 34.5q-4 -6 -14 -16.5t-36.5 -24t-56.5 -13.5q-92 0 -141 81q-35 59 -35 165q0 113 43 176q48 70 138 70q64 0 105 -49v217q0 26 9 35t35 9h20q27 0 35.5 -9.5t8.5 -34.5v-606zM315 101v283q-34 34 -68 34
q-30 0 -51 -14t-31 -31.5t-15.5 -47.5t-6 -46.5t-0.5 -43.5q0 -22 0.5 -35.5t3 -38.5t8.5 -40.5t16 -32.5t26.5 -25.5t39.5 -8.5q48 0 78 47zM413 -151q0 -19 -3.5 -22.5t-21.5 -3.5h-291q-19 0 -22.5 3.5t-3.5 22.5v21q0 19 3.5 22.5t21.5 3.5h292q18 0 21.5 -3.5
t3.5 -22.5v-21z" />
    <glyph glyph-name="Hdotbelow" unicode="&#x1e24;" horiz-adv-x="678" 
d="M596 44q0 -26 -9 -35t-35 -9h-34q-27 0 -35.5 9.5t-8.5 34.5v276h-271v-276q0 -26 -9 -35t-35 -9h-33q-27 0 -36 9.5t-9 35.5v604q0 27 9.5 36t35.5 9h33q27 0 35.5 -9.5t8.5 -34.5v-249h271v249q0 26 9 35t35 9h34q27 0 35.5 -9.5t8.5 -34.5v-606zM400 -153
q0 -28 -9.5 -37.5t-35.5 -9.5h-33q-27 0 -36 10t-9 37v24q0 29 9.5 38t35.5 9h33q27 0 36 -9.5t9 -37.5v-24z" />
    <glyph glyph-name="hdotbelow" unicode="&#x1e25;" horiz-adv-x="483" 
d="M428 44q0 -26 -9 -35t-35 -9h-23q-27 0 -35.5 9.5t-8.5 34.5v294q0 43 -11.5 61.5t-42.5 18.5q-39 0 -68.5 -35.5t-29.5 -99.5v-239q0 -26 -9 -35t-35 -9h-22q-27 0 -36 9.5t-9 35.5v604q0 27 9.5 36t35.5 9h19q27 0 35.5 -9.5t8.5 -34.5v-263h1q44 95 137 95
q72 0 100 -36.5t28 -103.5v-298zM302 -153q0 -28 -9.5 -37.5t-35.5 -9.5h-33q-27 0 -36 10t-9 37v24q0 29 9.5 38t35.5 9h33q27 0 36 -9.5t9 -37.5v-24z" />
    <glyph glyph-name="Hdieresis" unicode="&#x1e26;" horiz-adv-x="678" 
d="M596 44q0 -26 -9 -35t-35 -9h-34q-27 0 -35.5 9.5t-8.5 34.5v276h-271v-276q0 -26 -9 -35t-35 -9h-33q-27 0 -36 9.5t-9 35.5v604q0 27 9.5 36t35.5 9h33q27 0 35.5 -9.5t8.5 -34.5v-249h271v249q0 26 9 35t35 9h34q27 0 35.5 -9.5t8.5 -34.5v-606zM274 785
q0 -25 -8.5 -33.5t-32.5 -8.5h-30q-24 0 -32 9t-8 33v22q0 26 8.5 34t31.5 8h30q24 0 32.5 -8.5t8.5 -33.5v-22zM515 785q0 -25 -8.5 -33.5t-32.5 -8.5h-30q-24 0 -32 9t-8 33v22q0 26 8.5 34t31.5 8h30q24 0 32.5 -8.5t8.5 -33.5v-22z" />
    <glyph glyph-name="hdieresis" unicode="&#x1e27;" horiz-adv-x="483" 
d="M428 44q0 -26 -9 -35t-35 -9h-23q-27 0 -35.5 9.5t-8.5 34.5v294q0 43 -11.5 61.5t-42.5 18.5q-39 0 -68.5 -35.5t-29.5 -99.5v-239q0 -26 -9 -35t-35 -9h-22q-27 0 -36 9.5t-9 35.5v604q0 27 9.5 36t35.5 9h19q27 0 35.5 -9.5t8.5 -34.5v-263h1q44 95 137 95
q72 0 100 -36.5t28 -103.5v-298zM177 785q0 -25 -8.5 -33.5t-32.5 -8.5h-30q-24 0 -32 9t-8 33v22q0 26 8.5 34t31.5 8h30q24 0 32.5 -8.5t8.5 -33.5v-22zM418 785q0 -25 -8.5 -33.5t-32.5 -8.5h-30q-24 0 -32 9t-8 33v22q0 26 8.5 34t31.5 8h30q24 0 32.5 -8.5t8.5 -33.5
v-22z" />
    <glyph glyph-name="Hbrevebelow" unicode="&#x1e2a;" horiz-adv-x="678" 
d="M596 44q0 -26 -9 -35t-35 -9h-34q-27 0 -35.5 9.5t-8.5 34.5v276h-271v-276q0 -26 -9 -35t-35 -9h-33q-27 0 -36 9.5t-9 35.5v604q0 27 9.5 36t35.5 9h33q27 0 35.5 -9.5t8.5 -34.5v-249h271v249q0 26 9 35t35 9h34q27 0 35.5 -9.5t8.5 -34.5v-606zM502 -106
q0 -42 -40.5 -73t-122.5 -31q-81 0 -122 31t-41 73q0 19 11 27t21 8q28 0 32 -32q3 -27 99 -27q95 0 99 24q4 35 32 35q11 0 21.5 -8.5t10.5 -26.5z" />
    <glyph glyph-name="hbrevebelow" unicode="&#x1e2b;" horiz-adv-x="483" 
d="M428 44q0 -26 -9 -35t-35 -9h-23q-27 0 -35.5 9.5t-8.5 34.5v294q0 43 -11.5 61.5t-42.5 18.5q-39 0 -68.5 -35.5t-29.5 -99.5v-239q0 -26 -9 -35t-35 -9h-22q-27 0 -36 9.5t-9 35.5v604q0 27 9.5 36t35.5 9h19q27 0 35.5 -9.5t8.5 -34.5v-263h1q44 95 137 95
q72 0 100 -36.5t28 -103.5v-298zM405 -106q0 -42 -40.5 -73t-122.5 -31q-81 0 -122 31t-41 73q0 19 11 27t21 8q28 0 32 -32q3 -27 99 -27q95 0 99 24q3 35 32 35q11 0 21.5 -8.5t10.5 -26.5z" />
    <glyph glyph-name="Idieresisacute" unicode="&#x1e2e;" horiz-adv-x="283" 
d="M202 44q0 -26 -9 -35t-35 -9h-33q-27 0 -36 9.5t-9 35.5v604q0 27 9.5 36t35.5 9h33q27 0 35.5 -9.5t8.5 -34.5v-606zM77 785q0 -25 -8.5 -33.5t-32.5 -8.5h-30q-24 0 -32 9t-8 33v22q0 26 8.5 34t31.5 8h30q24 0 32.5 -8.5t8.5 -33.5v-22zM318 785q0 -25 -8.5 -33.5
t-32.5 -8.5h-30q-24 0 -32 9t-8 33v22q0 26 8.5 34t31.5 8h30q24 0 32.5 -8.5t8.5 -33.5v-22zM317 1007l-187 -99h-67q-9 0 -11.5 6t4.5 12l126 103h127q13 0 14.5 -9t-6.5 -13z" />
    <glyph glyph-name="idieresisacute" unicode="&#x1e2f;" horiz-adv-x="219" 
d="M163 44q0 -26 -9 -35t-35 -9h-19q-27 0 -36 9.5t-9 35.5v382q0 27 9.5 36t35.5 9h19q27 0 35.5 -9.5t8.5 -34.5v-384zM64 609q0 -25 -8.5 -33.5t-32.5 -8.5h-30q-24 0 -32 9t-8 33v22q0 26 8.5 34t31.5 8h30q24 0 32.5 -8.5t8.5 -33.5v-22zM267 609q0 -25 -8.5 -33.5
t-32.5 -8.5h-30q-24 0 -32 9t-8 33v22q0 26 8.5 34t31.5 8h30q24 0 32.5 -8.5t8.5 -33.5v-22zM285 831l-187 -99h-67q-9 0 -11.5 6t4.5 12l126 103h127q13 0 14.5 -9t-6.5 -13z" />
    <glyph glyph-name="Ldotbelow" unicode="&#x1e36;" horiz-adv-x="514" 
d="M473 45q0 -25 -8 -35t-36 -10h-303q-27 0 -36 9.5t-9 35.5v604q0 27 9.5 36t35.5 9h33q27 0 35.5 -9.5t8.5 -34.5v-563l228 4q20 0 29.5 -7.5t11 -15.5t1.5 -23zM318 -153q0 -28 -9.5 -37.5t-35.5 -9.5h-33q-27 0 -36 10t-9 37v24q0 29 9.5 38t35.5 9h33q27 0 36 -9.5
t9 -37.5v-24z" />
    <glyph glyph-name="ldotbelow" unicode="&#x1e37;" horiz-adv-x="219" 
d="M163 44q0 -26 -9 -35t-35 -9h-19q-27 0 -36 9.5t-9 35.5v604q0 27 9.5 36t35.5 9h19q27 0 35.5 -9.5t8.5 -34.5v-606zM171 -153q0 -28 -9.5 -37.5t-35.5 -9.5h-33q-27 0 -36 10t-9 37v24q0 29 9.5 38t35.5 9h33q27 0 36 -9.5t9 -37.5v-24z" />
    <glyph glyph-name="Ldotbelowmacron" unicode="&#x1e38;" horiz-adv-x="514" 
d="M473 45q0 -25 -8 -35t-36 -10h-303q-27 0 -36 9.5t-9 35.5v604q0 27 9.5 36t35.5 9h33q27 0 35.5 -9.5t8.5 -34.5v-563l228 4q20 0 29.5 -7.5t11 -15.5t1.5 -23zM318 -153q0 -28 -9.5 -37.5t-35.5 -9.5h-33q-27 0 -36 10t-9 37v24q0 29 9.5 38t35.5 9h33q27 0 36 -9.5
t9 -37.5v-24zM314 789q0 -19 -3.5 -22.5t-21.5 -3.5h-291q-19 0 -22.5 3.5t-3.5 22.5v21q0 19 3.5 22.5t21.5 3.5h292q18 0 21.5 -3.5t3.5 -22.5v-21z" />
    <glyph glyph-name="ldotbelowmacron" unicode="&#x1e39;" horiz-adv-x="219" 
d="M163 44q0 -26 -9 -35t-35 -9h-19q-27 0 -36 9.5t-9 35.5v604q0 27 9.5 36t35.5 9h19q27 0 35.5 -9.5t8.5 -34.5v-606zM171 -153q0 -28 -9.5 -37.5t-35.5 -9.5h-33q-27 0 -36 10t-9 37v24q0 29 9.5 38t35.5 9h33q27 0 36 -9.5t9 -37.5v-24zM299 789q0 -19 -3.5 -22.5
t-21.5 -3.5h-291q-19 0 -22.5 3.5t-3.5 22.5v21q0 19 3.5 22.5t21.5 3.5h292q18 0 21.5 -3.5t3.5 -22.5v-21z" />
    <glyph glyph-name="Mdotbelow" unicode="&#x1e42;" horiz-adv-x="836" 
d="M754 44q0 -26 -9 -35t-35 -9h-16q-27 0 -35.5 9.5t-8.5 34.5v540q-1 -12 -35.5 -122t-39.5 -123l-96 -278q-9 -26 -21 -34t-42 -8q-12 0 -19 0.5t-16.5 4t-16 12t-11.5 22.5l-90 264l-42 132q-32 108 -35 130h-1v-540q0 -26 -9 -35t-35 -9h-15q-27 0 -36 9.5t-9 35.5v604
q0 27 9.5 36t35.5 9h62q14 0 22 -1.5t19.5 -10.5t17.5 -27l90 -263l44 -136q31 -99 35 -130h1q3 21 33 122l40 123l97 281q5 15 9 22t16.5 13.5t33.5 6.5h64q27 0 35.5 -9.5t8.5 -34.5v-606zM479 -153q0 -28 -9.5 -37.5t-35.5 -9.5h-33q-27 0 -36 10t-9 37v24q0 29 9.5 38
t35.5 9h33q27 0 36 -9.5t9 -37.5v-24z" />
    <glyph glyph-name="mdotbelow" unicode="&#x1e43;" horiz-adv-x="747" 
d="M693 44q0 -26 -9 -35t-35 -9h-22q-27 0 -36 9.5t-9 35.5v293q0 43 -11.5 61.5t-42.5 18.5q-40 0 -69.5 -35.5t-29.5 -99.5v-239q0 -26 -9 -35t-35 -9h-22q-27 0 -36 9.5t-9 35.5v293q0 43 -11.5 61.5t-42.5 18.5q-40 0 -69.5 -35.5t-29.5 -99.5v-239q0 -26 -9 -35t-35 -9
h-22q-27 0 -36 9.5t-9 35.5v388q0 27 9.5 36t35.5 9h16q27 0 35.5 -9.5t8.5 -34.5v-53l1 -1q43 102 140 102q112 0 126 -97q46 97 138 97q71 0 100 -35.5t29 -104.5v-298zM435 -153q0 -28 -9.5 -37.5t-35.5 -9.5h-33q-27 0 -36 10t-9 37v24q0 29 9.5 38t35.5 9h33
q27 0 36 -9.5t9 -37.5v-24z" />
    <glyph glyph-name="Ndotaccent" unicode="&#x1e44;" horiz-adv-x="678" 
d="M596 44q0 -26 -9 -35t-35 -9h-73q-27 0 -40 8t-23 32l-189 442q-31 75 -41 106h-1v-544q0 -26 -9 -35t-35 -9h-15q-27 0 -36 9.5t-9 35.5v604q0 27 9.5 36t35.5 9h72q27 0 40 -8t23 -32l189 -442q31 -75 41 -106h1v544q0 26 9 35t35 9h16q27 0 35.5 -9.5t8.5 -34.5v-606z
M400 790q0 -28 -9.5 -37.5t-35.5 -9.5h-33q-27 0 -36 10t-9 37v24q0 29 9.5 38t35.5 9h33q27 0 36 -9.5t9 -37.5v-24z" />
    <glyph glyph-name="ndotaccent" unicode="&#x1e45;" horiz-adv-x="483" 
d="M428 44q0 -26 -9 -35t-35 -9h-23q-27 0 -35.5 9.5t-8.5 34.5v294q0 43 -11.5 61.5t-42.5 18.5q-39 0 -68.5 -35.5t-29.5 -99.5v-239q0 -26 -9 -35t-35 -9h-22q-27 0 -36 9.5t-9 35.5v388q0 27 9.5 36t35.5 9h16q27 0 35.5 -9.5t8.5 -34.5v-54h1q46 102 140 102
q72 0 100 -36.5t28 -103.5v-298zM303 608q0 -28 -9.5 -37.5t-35.5 -9.5h-33q-27 0 -36 10t-9 37v24q0 29 9.5 38t35.5 9h33q27 0 36 -9.5t9 -37.5v-24z" />
    <glyph glyph-name="Ndotbelow" unicode="&#x1e46;" horiz-adv-x="678" 
d="M596 44q0 -26 -9 -35t-35 -9h-73q-27 0 -40 8t-23 32l-189 442q-31 75 -41 106h-1v-544q0 -26 -9 -35t-35 -9h-15q-27 0 -36 9.5t-9 35.5v604q0 27 9.5 36t35.5 9h72q27 0 40 -8t23 -32l189 -442q31 -75 41 -106h1v544q0 26 9 35t35 9h16q27 0 35.5 -9.5t8.5 -34.5v-606z
M400 -153q0 -28 -9.5 -37.5t-35.5 -9.5h-33q-27 0 -36 10t-9 37v24q0 29 9.5 38t35.5 9h33q27 0 36 -9.5t9 -37.5v-24z" />
    <glyph glyph-name="ndotbelow" unicode="&#x1e47;" horiz-adv-x="483" 
d="M428 44q0 -26 -9 -35t-35 -9h-23q-27 0 -35.5 9.5t-8.5 34.5v294q0 43 -11.5 61.5t-42.5 18.5q-39 0 -68.5 -35.5t-29.5 -99.5v-239q0 -26 -9 -35t-35 -9h-22q-27 0 -36 9.5t-9 35.5v388q0 27 9.5 36t35.5 9h16q27 0 35.5 -9.5t8.5 -34.5v-54h1q46 102 140 102
q72 0 100 -36.5t28 -103.5v-298zM303 -153q0 -28 -9.5 -37.5t-35.5 -9.5h-33q-27 0 -36 10t-9 37v24q0 29 9.5 38t35.5 9h33q27 0 36 -9.5t9 -37.5v-24z" />
    <glyph glyph-name="Rdotaccent" unicode="&#x1e58;" horiz-adv-x="614" 
d="M573 22q0 -22 -35 -22h-42q-21 0 -28 4t-15 20l-148 291h-105v-271q0 -26 -9 -35t-35 -9h-30q-27 0 -36 9.5t-9 35.5v604q0 27 9.5 36t35.5 9h199q116 0 175.5 -53.5t59.5 -140.5q0 -135 -143 -176l150 -287q6 -12 6 -15zM446 499q0 57 -27.5 88.5t-107.5 31.5h-111v-240
h110q81 0 108.5 32t27.5 88zM368 790q0 -28 -9.5 -37.5t-35.5 -9.5h-33q-27 0 -36 10t-9 37v24q0 29 9.5 38t35.5 9h33q27 0 36 -9.5t9 -37.5v-24z" />
    <glyph glyph-name="rdotaccent" unicode="&#x1e59;" horiz-adv-x="321" 
d="M307 427q0 -18 -2.5 -21.5t-15.5 -4.5q-54 -5 -89.5 -46.5t-35.5 -108.5v-202q0 -26 -9 -35t-35 -9h-19q-27 0 -36 9.5t-9 35.5v388q0 27 9.5 36t35.5 9h14q27 0 35.5 -9.5t8.5 -34.5v-66h1q20 58 56.5 86t74.5 28q11 0 13.5 -4.5t2.5 -21.5v-29zM221 608
q0 -28 -9.5 -37.5t-35.5 -9.5h-33q-27 0 -36 10t-9 37v24q0 29 9.5 38t35.5 9h33q27 0 36 -9.5t9 -37.5v-24z" />
    </font>
</defs>
</svg>
