<?xml version="1.0" standalone="no"?>
<!DOCTYPE svg PUBLIC "-//W3C//DTD SVG 1.1//EN" "http://www.w3.org/Graphics/SVG/1.1/DTD/svg11.dtd" >
<svg>
<metadata>
Created by FontForge 20120731 at Mon Jul 14 22:19:54 2014
 By tom,,,
Copyright 2003, 2009 B. Jackowski and J. M. Nowacki (on behalf of TeX users groups). This work is released under the GUST Font License --  see http://tug.org/fonts/licenses/GUST-FONT-LICENSE.txt for details.
</metadata>
<defs>
<font id="lmsansdemicond10-oblique" horiz-adv-x="475" >
  <font-face 
    font-family="LM Sans Demi Cond 10"
    font-weight="600"
    font-style="oblique"
    font-stretch="normal"
    units-per-em="1000"
    panose-1="0 0 7 0 0 0 0 0 0 0"
    ascent="833"
    descent="-167"
    x-height="472"
    cap-height="694"
    bbox="-431.462 -264 1561.6 1143"
    underline-thickness="69"
    underline-position="-57"
    slope="-12"
    unicode-range="U+0020-FB04"
  />
<missing-glyph horiz-adv-x="280" 
 />
    <glyph glyph-name="I_J" unicode="IJ" horiz-adv-x="705" 
d="M211 44q-5 -26 -16 -35t-37 -9h-33q-27 0 -34 9.5t-1 35.5l128 604q6 27 17.5 36t37.5 9h33q27 0 33.5 -9.5t0.5 -34.5zM654 147q-16 -78 -70.5 -122t-129.5 -44q-71 0 -134 34q-12 7 -15 10.5t-2 10.5q1 4 12 33t14 35q6 12 15 12q5 0 11 -10q29 -46 88 -46q73 0 94 93
l105 497q5 26 16.5 35t37.5 9h31q27 0 33.5 -9.5t0.5 -34.5z" />
    <glyph glyph-name="i_j" unicode="ij" horiz-adv-x="443" 
d="M300 608q-6 -28 -17.5 -37.5t-37.5 -9.5h-33q-27 0 -34 10t-1 37l5 24q6 28 17.5 37.5t37.5 9.5h33q27 0 34 -9.5t1 -37.5zM517 608q-6 -28 -17.5 -37.5t-37.5 -9.5h-33q-27 0 -34 10t-1 37l5 24q6 28 17.5 37.5t37.5 9.5h33q27 0 34 -9.5t1 -37.5zM172 44
q-5 -26 -16 -35t-37 -9h-19q-27 0 -34 9.5t-1 35.5l81 382q5 27 16.5 36t37.5 9h19q27 0 34 -9.5t1 -34.5zM382 -25q-16 -75 -59 -113.5t-102 -38.5q-38 0 -78 14t-37 27q1 2 6.5 14t6.5 16q10 22 19 22q3 0 13 -6q19 -14 49 -14q20 0 34 5.5t21 17t9.5 19.5t5.5 21l100 469
q5 26 16 35t37 9h20q27 0 34 -9.5t1 -34.5z" />
    <glyph glyph-name="f_k" unicode="fk" horiz-adv-x="735" 
d="M374 440q-7 -32 -51 -32h-50l-78 -364q-5 -26 -16 -35t-37 -9h-19q-27 0 -34 9.5t-1 35.5l77 363q-17 0 -25.5 1t-16 8.5t-4.5 22.5t14 22.5t20 8.5t25 1l17 80q17 78 63 115t106 37q23 0 42 -6q16 -4 18 -8.5t-2 -21.5l-6 -28q-2 -10 -3 -14t-4.5 -7.5t-8.5 -3.5
q-6 0 -9 5q-12 20 -39 20q-33 0 -46 -62l-23 -106h53q11 0 18 -1t15 -8.5t5 -22.5zM708 21q-4 -21 -38 -21h-28q-31 0 -38 15l-81 198l-51 -44l-27 -125q-5 -26 -16 -35t-37 -9h-6q-27 0 -34 9.5t-1 35.5l128 604q6 27 17.5 36t37.5 9h9q27 0 33.5 -9.5t0.5 -34.5l-73 -345
l165 147q22 20 55 20h33q10 0 15.5 -0.5t10.5 -5t3 -13.5q-1 -6 -16 -20l-167 -148l102 -248q5 -9 3 -16z" />
    <glyph glyph-name="f_f" unicode="ff" horiz-adv-x="554" 
d="M466 640q-2 -10 -3 -14t-4.5 -7.5t-8.5 -3.5t-12 6q-23 19 -57 19q-22 0 -37 -6.5t-22.5 -18.5t-10.5 -20t-6 -21l-22 -102h45q11 0 18 -1t15 -8.5t5 -22.5q-7 -32 -51 -32h-42l-78 -364q-5 -26 -16 -35t-37 -9h-19q-27 0 -34 9.5t-1 35.5l77 363q-17 0 -25.5 1t-16 8.5
t-4.5 22.5t14 22.5t20 8.5t25 1l17 77q15 72 65.5 113.5t134.5 41.5q30 0 55 -5q20 -5 23 -9t-1 -22zM729 640q-2 -10 -3 -14t-4.5 -7.5t-8.5 -3.5t-12 6q-23 19 -57 19q-22 0 -37 -6.5t-22.5 -18.5t-10.5 -20t-6 -21l-22 -102h45q11 0 18 -1t15 -8.5t5 -22.5
q-7 -32 -51 -32h-42l-78 -364q-5 -26 -16 -35t-37 -9h-20q-27 0 -33.5 9.5t-1.5 34.5l108 505q15 72 65.5 113.5t134.5 41.5q30 0 55 -5q20 -5 23 -9t-1 -22z" />
    <glyph glyph-name="f_i" unicode="fi" horiz-adv-x="506" 
d="M583 628q-5 -26 -16 -35t-37 -9h-23q-27 0 -33.5 9.5t-1.5 34.5l5 23q6 26 17 35t37 9h23q27 0 33.5 -9.5t0.5 -34.5zM458 44q-5 -26 -16 -35t-37 -9h-20q-27 0 -33.5 9.5t-1.5 34.5l82 384q5 26 16 35t37 9h20q27 0 34 -9.5t1 -34.5zM374 440q-7 -32 -51 -32h-50
l-78 -364q-5 -26 -16 -35t-37 -9h-19q-27 0 -34 9.5t-1 35.5l77 363q-17 0 -25.5 1t-16 8.5t-4.5 22.5t14 22.5t20 8.5t25 1l17 80q17 78 63 115t106 37q23 0 42 -6q16 -4 18 -8.5t-2 -21.5l-7 -31q-5 -25 -16 -25q-5 0 -11 8q-12 20 -36 20q-33 0 -46 -62l-23 -106h53
q11 0 18 -1t15 -8.5t5 -22.5z" />
    <glyph glyph-name="f_l" unicode="fl" horiz-adv-x="506" 
d="M374 440q-7 -32 -51 -32h-50l-78 -364q-5 -26 -16 -35t-37 -9h-19q-27 0 -34 9.5t-1 35.5l77 363q-17 0 -25.5 1t-16 8.5t-4.5 22.5t14 22.5t20 8.5t25 1l17 80q17 78 63 115t106 37q23 0 42 -6q16 -4 18 -8.5t-2 -21.5l-6 -28q-2 -10 -3 -14t-4.5 -7.5t-8.5 -3.5
q-6 0 -9 5q-12 20 -39 20q-33 0 -46 -62l-23 -106h53q11 0 18 -1t15 -8.5t5 -22.5zM458 44q-5 -26 -16 -35t-37 -9h-20q-27 0 -33.5 9.5t-1.5 34.5l129 606q5 26 16.5 35t37.5 9h20q27 0 33.5 -9.5t0.5 -34.5z" />
    <glyph glyph-name="f_f_i" unicode="&#xfb00;i" horiz-adv-x="769" 
d="M846 628q-5 -26 -16 -35t-37 -9h-23q-27 0 -33.5 9.5t-1.5 34.5l5 23q6 26 17 35t37 9h23q27 0 33.5 -9.5t0.5 -34.5zM721 44q-5 -26 -16 -35t-37 -9h-20q-27 0 -33.5 9.5t-1.5 34.5l82 384q5 26 16 35t37 9h20q27 0 34 -9.5t1 -34.5zM637 440q-7 -32 -51 -32h-50
l-78 -364q-5 -26 -16 -35t-37 -9h-19q-27 0 -34 9.5t-1 35.5l107 507q16 75 62 113.5t108 38.5q23 0 43 -6q14 -4 16 -7.5t-2 -20.5l-6 -32q-6 -25 -17 -25q-5 0 -10 8q-11 19 -37 19q-33 0 -46 -62l-23 -106h53q11 0 18 -1t15 -8.5t5 -22.5zM439 640q-2 -10 -3 -14
t-4.5 -7.5t-8.5 -3.5t-10 5q-17 20 -48 20q-21 0 -35 -13t-17.5 -23.5t-7.5 -27.5l-22 -104h53q11 0 18 -1t15 -8.5t5 -22.5q-7 -32 -51 -32h-50l-78 -364q-5 -26 -16 -35t-37 -9h-19q-27 0 -34 9.5t-1 35.5l77 363q-17 0 -25.5 1t-16 8.5t-4.5 22.5t14 22.5t20 8.5t25 1
l17 78q16 74 64 114t120 40q24 0 48 -5q17 -4 19.5 -9t-1.5 -22z" />
    <glyph glyph-name="f_f_l" unicode="ffl" horiz-adv-x="769" 
d="M439 640q-2 -10 -3 -14t-4.5 -7.5t-8.5 -3.5t-10 5q-17 20 -48 20q-21 0 -35 -13t-17.5 -23.5t-7.5 -27.5l-22 -104h53q11 0 18 -1t15 -8.5t5 -22.5q-7 -32 -51 -32h-50l-78 -364q-5 -26 -16 -35t-37 -9h-19q-27 0 -34 9.5t-1 35.5l77 363q-17 0 -25.5 1t-16 8.5
t-4.5 22.5t14 22.5t20 8.5t25 1l17 78q16 74 64 114t120 40q24 0 48 -5q17 -4 19.5 -9t-1.5 -22zM721 44q-5 -26 -16 -35t-37 -9h-20q-27 0 -33.5 9.5t-1.5 34.5l129 606q5 26 16.5 35t37.5 9h20q27 0 33.5 -9.5t0.5 -34.5zM637 440q-7 -32 -51 -32h-50l-78 -364
q-5 -26 -16 -35t-37 -9h-19q-27 0 -34 9.5t-1 35.5l107 507q17 78 63 115t106 37q23 0 42 -6q16 -4 18 -8.5t-2 -21.5l-6 -28q-2 -10 -3 -14t-4.5 -7.5t-8.5 -3.5q-6 0 -9 5q-12 20 -39 20q-33 0 -46 -62l-23 -106h53q11 0 18 -1t15 -8.5t5 -22.5z" />
    <glyph glyph-name=".notdef" horiz-adv-x="280" 
 />
    <glyph glyph-name=".null" horiz-adv-x="0" 
 />
    <glyph glyph-name="nonmarkingreturn" horiz-adv-x="333" 
 />
    <glyph glyph-name="space" unicode=" " horiz-adv-x="317" 
 />
    <glyph glyph-name="exclam" unicode="!" horiz-adv-x="306" 
d="M349 671l-57 -242l-55 -236q-4 -10 -28 -10h-34q-21 0 -23 7q-1 2 35 191l56 290q4 17 8.5 20t22.5 3h55q18 0 20.5 -3t-0.5 -20zM215 44q-5 -26 -16 -35t-37 -9h-17q-27 0 -34 9.5t-1 35.5l3 17q5 26 16.5 35t37.5 9h18q27 0 33.5 -9.5t0.5 -34.5z" />
    <glyph glyph-name="quotedbl" unicode="&#x22;" horiz-adv-x="488" 
d="M287 465q-3 -15 -16.5 -26t-28.5 -11h-38q-15 0 -23.5 11t-5.5 26l45 211q3 15 16.5 26t28.5 11h38q15 0 23.5 -10.5t5.5 -26.5zM511 465q-3 -15 -16.5 -26t-28.5 -11h-38q-15 0 -23.5 11t-5.5 26l45 211q3 15 16.5 26t28.5 11h38q15 0 23.5 -10.5t5.5 -26.5z" />
    <glyph glyph-name="numbersign" unicode="#" horiz-adv-x="792" 
d="M770 150q-8 -35 -59 -35h-192l-117 -253q-15 -29 -41 -29q-15 0 -23 10.5t-5 24.5q1 5 8 20l106 227h-131l-117 -253q-15 -29 -41 -29q-15 0 -23 10.5t-5 24.5q1 5 8 20l106 227h-116q-12 0 -20 1t-17.5 9.5t-5.5 24.5q7 35 52 35h140l74 158h-180q-10 0 -17.5 1
t-15.5 9.5t-5 24.5q8 35 59 35h193l114 247q15 34 44 34q15 0 22.5 -10.5t4.5 -24.5q-1 -7 -8 -20l-105 -226h131l114 247q15 34 44 34q15 0 22.5 -10.5t4.5 -24.5q-1 -7 -8 -20l-105 -226h115q12 0 20 -1t17.5 -9.5t5.5 -24.5q-7 -35 -52 -35h-139l-74 -158h179
q10 0 17.5 -1t15.5 -9.5t5 -24.5zM554 343h-130l-74 -158h130z" />
    <glyph glyph-name="dollar" unicode="$" 
d="M464 202q-40 -185 -197 -210q-3 -14 -5.5 -21.5t-12 -17t-24.5 -9.5q-21 0 -24 17.5t2 30.5q-55 6 -94 30q-55 33 -52 50q1 3 11.5 28.5t12.5 30.5q0 3 3.5 7.5t9.5 4.5q5 0 13 -8q47 -47 115 -57l48 228q-63 14 -94.5 68.5t-14.5 131.5q16 76 63 130t130 66q11 48 42 48
q33 0 22 -47q44 -5 79 -25q46 -28 43 -43q-1 -4 -11 -29.5t-13 -29.5q0 -3 -3.5 -7.5t-9.5 -4.5q-5 0 -12 8q-39 37 -91 44l-43 -201q67 -15 95.5 -74.5t11.5 -138.5zM297 434l38 179q-57 -16 -72 -89q-11 -67 34 -90zM361 183q15 78 -31 104l-44 -205q57 19 75 101z" />
    <glyph glyph-name="percent" unicode="%" horiz-adv-x="879" 
d="M476 548q-3 -15 -7.5 -32.5t-19.5 -50t-34.5 -56.5t-54.5 -43t-78 -19q-40 0 -66.5 15.5t-37.5 37.5t-14.5 52t-1 52t7.5 45q18 92 69 145q53 56 128 56q36 0 61 -12.5t36 -34t17 -43.5t4 -47.5t-4 -39t-5 -25.5zM860 715q-2 -10 -16 -26l-610 -723q-18 -22 -38 -22
q-14 0 -22.5 10.5t-4.5 24.5q2 12 15 26l611 723q20 22 37 22q15 0 23 -10.5t5 -24.5zM856 145q-4 -17 -8 -32.5t-19.5 -49.5t-35 -57.5t-54.5 -42.5t-78 -19q-40 0 -66.5 15.5t-37.5 37.5t-14.5 52t-1 52t7.5 45q18 91 69 145q54 56 129 56q43 0 70 -19t36.5 -42.5t10 -58
t-1.5 -49.5t-6 -33zM382 549q14 59 8 89.5t-14.5 39t-21.5 8.5q-19 0 -33.5 -12.5t-25 -39t-14.5 -41t-11 -45.5q-18 -91 -6 -118q9 -19 31 -19q57 0 87 138zM761 146q15 59 8.5 89.5t-15 39t-21.5 8.5q-19 0 -33.5 -13t-24.5 -38t-14.5 -42t-10.5 -45q-4 -17 -6 -28
t-4.5 -29.5t-1.5 -30.5t4 -24.5t11.5 -18.5t21.5 -6q57 0 86 138z" />
    <glyph glyph-name="ampersand" unicode="&#x26;" horiz-adv-x="717" 
d="M668 25q-4 -18 -10 -23t-37 -12q-35 -9 -71 -9q-84 0 -144 56q-104 -56 -197 -56q-74 0 -113.5 48.5t-24.5 114.5q9 40 32 70.5t45 47.5l102 75q-20 96 0 195q17 81 75.5 131t122.5 50q63 0 92 -48t16 -108q-9 -46 -57 -95t-141 -118q25 -82 87 -185q111 95 189 263
q7 17 10.5 21.5t10.5 4.5q2 0 14.5 -3.5t26 -7.5t17.5 -5q9 -6 8 -13q-1 -4 -11.5 -26.5t-35 -66t-53.5 -83.5q-55 -77 -128 -143q35 -33 78 -33q39 0 86 14q9 4 13 4q11 0 6 -26zM461 557q8 21 3 56.5t-30 35.5q-26 0 -50 -27.5t-34 -70.5q-14 -64 -5 -144q51 41 79.5 75
t36.5 75zM354 98q-53 76 -89 178q-22 -15 -34 -25.5t-25 -32t-19 -50.5q-2 -9 -3 -20.5t-0.5 -32.5t12.5 -34.5t34 -13.5q61 0 124 31z" />
    <glyph glyph-name="quotesingle" unicode="'" horiz-adv-x="264" 
d="M287 465q-3 -15 -16.5 -26t-28.5 -11h-38q-15 0 -23.5 11t-5.5 26l45 211q3 15 16.5 26t28.5 11h38q15 0 23.5 -10.5t5.5 -26.5z" />
    <glyph glyph-name="parenleft" unicode="(" horiz-adv-x="369" 
d="M269 -211q-2 -11 -26 -11h-14q-18 0 -20 2q-11 11 -21 22.5t-32.5 55t-34.5 93t-12.5 134t19.5 179.5q54 256 205 412q19 20 39 37.5t31.5 26t14.5 9.5t17 1h14q14 0 18.5 -1.5t3.5 -9.5q-2 -6 -14 -17q-154 -158 -218 -458q-21 -100 -26.5 -180t4 -134.5t20.5 -85.5
t29 -62q4 -9 3 -13z" />
    <glyph glyph-name="parenright" unicode=")" horiz-adv-x="369" 
d="M352 264q-54 -255 -204 -412q-19 -20 -39 -37.5t-32 -26t-15 -9.5t-17 -1h-13h-10.5t-7.5 1t-5 3.5t0 6.5q2 6 14 17q75 78 129 185t89 273q21 100 26.5 180.5t-4 134.5t-20.5 84.5t-29 62.5q-4 9 -3 13q2 11 27 11h13q18 0 20 -2q11 -11 21 -22.5t32.5 -55t34.5 -93
t12.5 -134t-19.5 -179.5z" />
    <glyph glyph-name="asterisk" unicode="*" 
d="M507 422q-4 -17 -20.5 -31.5t-33.5 -14.5q-14 0 -25 14l-73 92q-3 -142 -9 -167q-4 -18 -19.5 -27.5t-30.5 -9.5t-26.5 9.5t-7.5 27.5q2 9 8 23l53 144l-112 -92q-17 -14 -30 -14q-18 0 -28 14t-6 32q5 23 32 35l140 57l-116 57q-22 12 -17 35q4 17 20.5 31.5t33.5 14.5
q14 0 25 -14l72 -92l8 144q0 15 2 23q3 18 18.5 27.5t30.5 9.5t26.5 -9.5t8.5 -27.5q0 -1 -8 -23l-54 -144l113 92q17 14 30 14q18 0 28 -14t6 -32q-5 -22 -33 -35l-140 -57l116 -57q23 -13 18 -35z" />
    <glyph glyph-name="plus" unicode="+" horiz-adv-x="739" 
d="M741 264q-7 -35 -54 -35h-234l-50 -235q-12 -47 -45 -47q-37 0 -25 47l50 235h-234q-47 0 -40 35q8 35 55 35h234l50 235q8 47 44 47q34 0 26 -47l-50 -235h234q11 0 18.5 -1t16 -9.5t4.5 -24.5z" />
    <glyph glyph-name="comma" unicode="," horiz-adv-x="264" 
d="M191 26q-5 -19 -16 -35q-57 -82 -60 -86q-8 -11 -12.5 -13.5t-20.5 -2.5h-12.5t-8 1.5t-3.5 3.5t0 7q2 12 49 99q-20 0 -23 3.5t1 22.5l11 54q4 19 8.5 22.5t22.5 3.5h56q18 0 20.5 -3t-1.5 -23z" />
    <glyph glyph-name="hyphen" unicode="-" horiz-adv-x="317" 
d="M313 236q-7 -32 -51 -32h-164q-11 0 -18 1t-14.5 8.5t-4.5 22.5q7 32 51 32h164q11 0 18 -1t14.5 -8.5t4.5 -22.5z" />
    <glyph glyph-name="period" unicode="." horiz-adv-x="264" 
d="M191 26q-4 -19 -8.5 -22.5t-22.5 -3.5h-55q-19 0 -21.5 3.5t1.5 22.5l11 54q4 19 8.5 22.5t22.5 3.5h56q18 0 20.5 -3t-1.5 -23z" />
    <glyph glyph-name="slash" unicode="/" 
d="M573 715q-3 -8 -9 -19l-482 -889q-17 -29 -41 -29q-15 0 -23 10.5t-5 24.5q3 8 9 19l482 889q17 29 41 29q15 0 23 -10.5t5 -24.5z" />
    <glyph glyph-name="zero" unicode="0" 
d="M510 343q-8 -37 -13 -59.5t-18 -65t-26 -70.5t-35 -62.5t-47 -55t-61 -35t-77 -14.5t-70.5 14.5t-46 35t-24 55.5t-8.5 62t4.5 70t9.5 65t12 60q8 37 13.5 60t18.5 66.5t26 72t35.5 64t47.5 56.5t61 36t77 15t70.5 -15t45.5 -36t23 -57t8.5 -64t-4.5 -72t-10 -66t-12 -60
zM402 357q11 50 16 76t11.5 67t5 62t-6 44t-18 33t-35.5 10q-24 0 -44 -13.5t-33 -36t-19 -36.5t-11 -28q-16 -48 -44 -178q-11 -53 -16.5 -80t-12.5 -70.5t-6 -66.5t5 -48.5t17.5 -36t35.5 -10.5q16 0 30.5 6t26.5 21t22 29t19.5 41t16 45.5t15 54t12.5 55.5t13 60z" />
    <glyph glyph-name="one" unicode="1" 
d="M415 32q-7 -32 -51 -32h-240q-11 0 -18 1t-15 8.5t-5 22.5q7 32 52 32h67l112 531q-45 -15 -86 -15q-9 0 -16 1t-14 8.5t-4 22.5q2 11 12.5 21t29.5 11q88 4 139 52q17 17 39 17q18 0 25 -8.5t6.5 -15.5t-3.5 -20l-128 -605h61q11 0 18 -1t14.5 -8.5t4.5 -22.5z" />
    <glyph glyph-name="two" unicode="2" 
d="M436 44q-5 -26 -16 -35t-37 -9h-291q-27 0 -34 9.5t-1 35.5q3 19 15 30l217 215q108 108 127 199q2 11 3.5 21.5t0.5 33.5t-7.5 39.5t-24 30t-45.5 13.5q-48 0 -79 -33t-55 -88q-4 -7 -5 -9t-3 -5.5t-4.5 -4t-5.5 -0.5q-6 0 -13 12q-22 46 -21 52q2 5 9.5 20t27.5 42.5
t42 47.5q61 52 140 52q93 0 134 -65t21 -158q-15 -68 -61 -121t-177 -167l-120 -110q7 1 20 1h122l62 1q45 0 56 -6.5t5 -37.5z" />
    <glyph glyph-name="three" unicode="3" 
d="M477 200q-24 -109 -92.5 -164t-160.5 -55q-35 0 -65 10t-48 24t-30.5 30t-17.5 27.5t-4 16.5q0 1 6.5 18t7.5 20q6 17 9.5 22t10.5 5q6 0 12 -14q16 -33 45 -52t49 -23t38 -4q89 0 118 141q16 71 1.5 106t-66.5 35h-34q-18 0 -21 3.5t1 22.5l3 12q4 21 11 24q4 2 29 4
q22 2 32.5 4t25.5 11t29 26q31 39 43 98q4 18 5 31t-1.5 28t-15.5 23t-36 8q-11 0 -23.5 -2.5t-33 -10t-42.5 -26t-40 -46.5q-9 -12 -15 -12q-7 0 -17 25.5t-9 29.5t9.5 16.5t26 29.5t40.5 33t56 27t68 11q86 0 123 -44.5t20 -120.5q-12 -59 -50.5 -102.5t-85.5 -69.5
q117 -38 89 -176z" />
    <glyph glyph-name="four" unicode="4" 
d="M492 206q-4 -19 -14 -28t-17.5 -10.5t-21.5 -1.5h-36l-26 -122q-5 -26 -16 -35t-37 -9h-17q-27 0 -33.5 9.5t-1.5 34.5l26 122h-193q-27 0 -33.5 9.5t-0.5 34.5l3 18q4 18 14 33l284 409q11 16 20 20t28 4h52q26 0 32.5 -9t1.5 -35l-85 -403h36q11 0 16 -0.5t13 -4.5
t7.5 -12.5t-1.5 -23.5zM322 247l75 357q-3 -12 -49 -87q-31 -49 -70 -107.5t-72 -106t-39 -56.5h155z" />
    <glyph glyph-name="five" unicode="5" 
d="M474 220q-26 -116 -95 -178q-71 -61 -172 -61q-35 0 -63.5 11t-45 26.5t-27.5 32.5t-15 29t-3 16q39 63 52 63q9 0 9 -9q6 -31 22 -51t36 -27t30 -9t19 -2q28 0 49.5 11.5t34 25.5t23 40.5t14.5 41.5t10 43q5 21 7.5 34.5t5.5 35t2 35t-4.5 28t-13 21.5t-24.5 7
q-54 0 -103 -60q-10 -13 -18.5 -16.5t-24.5 -3.5q-28 0 -34.5 14t0.5 32l64 298q5 27 16.5 36.5t38.5 9.5h235q25 0 32.5 -8.5t1.5 -34.5q-5 -26 -16.5 -34.5t-36.5 -8.5h-175l-37 -175q34 15 72 15q45 0 77.5 -18t47.5 -46q30 -61 9 -164z" />
    <glyph glyph-name="six" unicode="6" 
d="M484 233q-14 -64 -32 -104t-59 -82q-65 -66 -157 -66q-201 0 -124 358q38 175 113 266q46 55 103.5 81.5t112.5 26.5q32 0 53 -10q21 -9 24.5 -15t-0.5 -22l-6 -24q-5 -26 -16 -26q-4 0 -15 7q-19 15 -53 15q-36 0 -66.5 -18.5t-49 -42.5t-35 -63t-23.5 -63.5t-16 -59.5
q50 83 129 83q87 0 117 -79q22 -58 0 -162zM369 233l6 31.5t5.5 30.5t3.5 30.5v26t-4 24.5t-9.5 17.5t-16 12.5t-24.5 4q-86 0 -120 -159q-41 -190 42 -190q23 0 41.5 11t29.5 25.5t21 41.5t14 44.5t11 49.5z" />
    <glyph glyph-name="seven" unicode="7" 
d="M572 651q-5 -22 -16 -33q-237 -274 -308 -596q-7 -32 -51 -32h-29q-29 0 -35.5 13t1.5 33q64 306 321 566q-7 -1 -23 -1h-129l-63 -1q-48 0 -58.5 6.5t-4.5 37.5l1 7q7 32 21 38t66 6h36l233 -1q10 0 14.5 -0.5t11 -2t8.5 -4t4.5 -7t2 -12t-2.5 -17.5z" />
    <glyph glyph-name="eight" unicode="8" 
d="M476 199q-22 -105 -86 -161.5t-157 -56.5q-92 0 -133 56t-18 162q30 138 154 176q-96 33 -72 149q19 88 77 138.5t148 50.5q89 0 125.5 -50t17.5 -139q-24 -116 -134 -149q107 -38 78 -176zM429 523q4 20 6 31.5t2 29.5t-6 28t-20.5 18t-37.5 8t-41 -8t-28 -17.5
t-18.5 -28t-11 -29.5t-7.5 -32q-5 -24 -6.5 -39t1 -35.5t18 -31t44.5 -10.5q23 0 41 8.5t28 18.5t18 29t11 29.5t7 30.5zM363 201q5 23 7.5 37t3 36.5t-5 35.5t-20 23t-38.5 10q-29 0 -50 -13t-33.5 -39t-18 -43t-11.5 -47q-5 -24 -7.5 -38t-3 -36t5 -34.5t20 -22t38.5 -9.5
t42.5 10t29 21.5t20 34.5t12.5 36t9 38z" />
    <glyph glyph-name="nine" unicode="9" 
d="M510 357q-38 -182 -121 -280q-37 -43 -89 -69.5t-107 -26.5q-25 0 -45.5 5.5t-33 13.5t-21 17t-12 15.5t-2.5 8.5q41 61 52 61q5 0 10 -6q23 -35 68 -35q33 0 66 22t55 65q17 32 26.5 60t26.5 95q-54 -83 -128 -83q-89 0 -118 84q-21 55 1 158q8 39 15 62t26 57.5
t48 63.5q68 68 164 68q195 0 119 -356zM412 441q41 197 -36 197q-24 0 -43.5 -11.5t-31.5 -26.5t-22 -43t-14.5 -46t-11.5 -50q-5 -22 -6.5 -31.5t-5 -30t-4 -30.5t-0.5 -26t4 -24.5t9.5 -17.5t16 -13t24.5 -4q30 0 54 20.5t38 53t19.5 49.5t9.5 34z" />
    <glyph glyph-name="colon" unicode=":" horiz-adv-x="264" 
d="M268 392q-4 -19 -8 -22.5t-22 -3.5h-56q-18 0 -21 3t1 23l12 54q4 19 8 22.5t23 3.5h55q18 0 21 -3t-1 -23zM191 26q-4 -19 -8.5 -22.5t-22.5 -3.5h-55q-19 0 -21.5 3.5t1.5 22.5l11 54q4 19 8.5 22.5t22.5 3.5h56q18 0 20.5 -3t-1.5 -23z" />
    <glyph glyph-name="semicolon" unicode=";" horiz-adv-x="264" 
d="M268 392q-4 -19 -8 -22.5t-22 -3.5h-56q-18 0 -21 3t1 23l12 54q4 19 8 22.5t23 3.5h55q18 0 21 -3t-1 -23zM191 26q-5 -19 -16 -35q-57 -82 -60 -86q-8 -11 -12.5 -13.5t-20.5 -2.5h-12.5t-8 1.5t-3.5 3.5t0 7q2 12 49 99q-20 0 -23 3.5t1 22.5l11 54q4 19 8.5 22.5
t22.5 3.5h56q18 0 20.5 -3t-1.5 -23z" />
    <glyph glyph-name="less" unicode="&#x3c;" horiz-adv-x="778" 
d="M690 -20q-2 -8 -9.5 -14t-15.5 -6q-5 0 -16 7l-499 261q-16 9 -14 22q3 13 24 22l609 261q15 7 20 7q8 0 13 -6t3 -14q-3 -12 -24 -22l-578 -248l472 -248q17 -9 15 -22z" />
    <glyph glyph-name="equal" unicode="=" horiz-adv-x="739" 
d="M765 378q-7 -35 -52 -35h-542q-10 0 -17.5 1t-15.5 9.5t-5 24.5q8 35 59 35h530q12 0 20 -1t17.5 -9.5t5.5 -24.5zM717 150q-8 -35 -59 -35h-530q-12 0 -20 1t-17.5 9.5t-5.5 24.5q7 35 52 35h542q10 0 17.5 -1t15.5 -9.5t5 -24.5z" />
    <glyph glyph-name="greater" unicode="&#x3e;" horiz-adv-x="778" 
d="M747 250q-2 -14 -24 -22l-609 -261q-15 -7 -20 -7q-8 0 -12.5 6t-2.5 14q3 13 23 22l578 248l-472 248q-17 9 -14 22q4 20 24 20q5 0 16 -7l499 -261q17 -9 14 -22z" />
    <glyph glyph-name="question" unicode="?" horiz-adv-x="449" 
d="M512 552q-15 -74 -70 -114q-111 -79 -136 -194l-7 -34q-4 -20 -8.5 -23.5t-23.5 -3.5h-34q-18 0 -21 3.5t1 20.5l9 43q25 115 139 227q13 13 18 19.5t11.5 21.5t11.5 39q12 40 1.5 61.5t-55.5 21.5q-68 0 -126 -53q-10 -10 -15 -10t-7 4t-6 25q-4 24 -4 36q2 7 24 21
t64.5 27.5t86.5 13.5q179 0 147 -152zM273 44q-5 -26 -16 -35t-37 -9h-17q-27 0 -34 9.5t-1 35.5l3 17q5 26 16.5 35t37.5 9h18q27 0 33.5 -9.5t0.5 -34.5z" />
    <glyph glyph-name="at" unicode="@" horiz-adv-x="633" 
d="M658 367q-8 -39 -13.5 -59t-21.5 -54t-40 -61q-62 -73 -161 -73q-92 0 -128 69q-31 60 -7 158q4 20 9 37.5t23 55.5t41 64.5t65 48t94 21.5q35 0 58 -9q-2 33 -22 54t-53 21q-112 0 -192 -98q-55 -68 -82 -195q-4 -19 -6.5 -32t-5 -46.5t-0.5 -58t11.5 -56t27 -51.5
t50 -34.5t76.5 -14.5q78 0 152 44h43q14 0 18.5 -1.5t2.5 -9.5q-1 -4 -12 -14.5t-33 -24.5t-49 -27t-64 -22t-74 -9q-78 0 -137.5 29.5t-86.5 86.5q-47 92 -14 241q32 157 124 250q107 107 265 107q49 0 83 -14t51 -41.5t25 -57t5 -73t-8 -75t-14 -76.5zM553 347
q9 42 10 75.5t-13 60.5t-46 27q-8 0 -15 -1.5t-22 -10.5t-28 -24.5t-27 -48.5t-24 -78q-9 -41 -10.5 -75t12.5 -61t46 -27q8 0 15 1.5t22.5 10.5t28 24.5t27 48.5t24.5 78z" />
    <glyph glyph-name="A" unicode="A" horiz-adv-x="636" 
d="M605 25q-5 -25 -43 -25h-34q-31 0 -39 11.5t-12 52.5l-11 107h-242l-69 -131q-8 -14 -13 -21t-18.5 -13t-34.5 -6h-16q-10 0 -16.5 1t-12.5 7t-4 17l8 16l324 616q20 37 65 37h57q14 0 21.5 -1t16.5 -10t10 -27l62 -617zM459 246l-16 185q-12 107 -9 157h-1
q-11 -33 -71 -149l-99 -193h196z" />
    <glyph glyph-name="B" unicode="B" horiz-adv-x="635" 
d="M622 192q-8 -37 -26.5 -69.5t-50 -61t-81.5 -45t-113 -16.5h-225q-27 0 -34 9.5t-1 35.5l128 604q6 27 17.5 36t37.5 9h200q118 0 162.5 -51t28.5 -127q-12 -59 -57.5 -98.5t-112.5 -54.5q84 -15 112 -61.5t15 -109.5zM553 514q6 30 -3 51.5t-24 31t-38.5 15.5t-35 6.5
t-24.5 0.5h-99l-48 -226h99q77 0 119.5 34t53.5 87zM508 194q8 38 -1 65.5t-24.5 40.5t-41 20t-38.5 8t-28 1h-108l-54 -254h124q70 0 114.5 30.5t56.5 88.5z" />
    <glyph glyph-name="C" unicode="C" horiz-adv-x="607" 
d="M570 58q-1 -7 -7 -10q-57 -35 -97 -46q-41 -12 -100 -12q-150 0 -213 94q-62 92 -26 263q36 170 138 263q103 94 253 94q49 0 86 -8q36 -8 78 -27q7 -3 4 -13l-30 -79q-5 -10 -13 -10q-4 0 -7 3q-33 27 -61 37q-32 11 -76 11q-92 0 -156 -69q-67 -70 -94 -202
q-28 -132 8 -202q35 -69 127 -69q54 0 91 11q38 11 87 43l7 2q9 0 9 -10z" />
    <glyph glyph-name="D" unicode="D" horiz-adv-x="688" 
d="M706 342q-36 -168 -134 -257q-92 -85 -227 -85h-219q-27 0 -34 9.5t-1 35.5l128 604q6 27 17.5 36t37.5 9h218q68 0 122 -27t80 -80q44 -93 12 -245zM587 342q5 26 8 41.5t6 48t0.5 54t-11.5 49t-26.5 44t-48 28.5t-72.5 12h-111l-116 -544h112q42 0 77.5 11t59.5 27
t44.5 42.5t32 47.5t22 52t14.5 46.5t9 40.5z" />
    <glyph glyph-name="E" unicode="E" horiz-adv-x="567" 
d="M535 44q-5 -26 -16 -35t-37 -9h-356q-27 0 -34 9.5t-1 35.5l127 601q6 27 17.5 36t37.5 9h343q28 0 34.5 -12t-0.5 -33q-4 -22 -13 -32t-18 -11.5t-30 -1.5l-212 3h-46l-43 -205h240q11 0 16 -0.5t13 -4.5t7.5 -12.5t-1.5 -23.5q-4 -19 -13.5 -28t-17 -10.5t-21.5 -1.5
h-240l-48 -226q18 2 132 2l141 2q12 0 17 -0.5t13.5 -2.5t9 -6.5t3.5 -13t-2 -21.5z" />
    <glyph glyph-name="F" unicode="F" horiz-adv-x="540" 
d="M636 646q-4 -22 -13 -32t-18 -11.5t-29 -1.5l-205 3h-40l-46 -218h213q11 0 16 -0.5t13 -4.5t7.5 -12.5t-1.5 -23.5q-4 -19 -13.5 -28t-17 -10.5t-21.5 -1.5h-213l-56 -261q-5 -26 -16 -35t-37 -9h-33q-27 0 -34 9.5t-1 35.5l127 601q6 27 17.5 36t37.5 9h329
q28 0 34.5 -12t-0.5 -33z" />
    <glyph glyph-name="G" unicode="G" horiz-adv-x="633" 
d="M579 50q-2 -7 -8 -10q-102 -50 -205 -50q-150 0 -213 94q-62 92 -26 263q36 170 138 263q103 94 253 94q54 0 94 -11q36 -11 82 -39q5 -3 2 -12l-30 -79q-5 -10 -13 -10q-1 0 -7 3q-30 34 -64 48t-83 14q-92 0 -156 -69q-67 -70 -94 -202q-28 -132 8 -202q35 -69 127 -69
q44 0 91 11l37 171h-78q-11 0 -9 11l13 59q2 11 13 11h178q11 0 9 -11z" />
    <glyph glyph-name="H" unicode="H" horiz-adv-x="678" 
d="M605 44q-5 -26 -16 -35t-37 -9h-34q-27 0 -33.5 9.5t-1.5 34.5l59 276h-271l-59 -276q-5 -26 -16 -35t-37 -9h-33q-27 0 -34 9.5t-1 35.5l128 604q6 27 17.5 36t37.5 9h33q27 0 33.5 -9.5t0.5 -34.5l-53 -249h271l53 249q5 26 16.5 35t37.5 9h34q27 0 33.5 -9.5
t0.5 -34.5z" />
    <glyph glyph-name="I" unicode="I" horiz-adv-x="283" 
d="M211 44q-5 -26 -16 -35t-37 -9h-33q-27 0 -34 9.5t-1 35.5l128 604q6 27 17.5 36t37.5 9h33q27 0 33.5 -9.5t0.5 -34.5z" />
    <glyph glyph-name="J" unicode="J" horiz-adv-x="450" 
d="M399 147q-16 -78 -70.5 -122t-129.5 -44q-71 0 -134 34q-12 7 -15 10.5t-2 10.5q1 4 12 33t14 35q6 12 15 12q5 0 11 -10q29 -46 88 -46q73 0 94 93l105 497q5 26 16.5 35t37.5 9h31q27 0 33.5 -9.5t0.5 -34.5z" />
    <glyph glyph-name="K" unicode="K" horiz-adv-x="663" 
d="M611 27q-3 -13 -9 -19t-12 -7t-19 -1h-39q-21 0 -28 3.5t-13 19.5l-132 306l-120 -106l-38 -179q-5 -26 -16 -35t-37 -9h-22q-27 0 -34 9.5t-1 35.5l128 604q6 27 17.5 36t37.5 9h22q27 0 33.5 -9.5t0.5 -34.5l-61 -289l352 312q24 21 57 21h37q10 0 15.5 -0.5t10 -5
t2.5 -13.5q-1 -6 -16 -20l-279 -248z" />
    <glyph glyph-name="L" unicode="L" horiz-adv-x="514" 
d="M483 45q-6 -25 -16 -35t-38 -10h-303q-27 0 -34 9.5t-1 35.5l128 604q6 27 17.5 36t37.5 9h33q27 0 33.5 -9.5t0.5 -34.5l-120 -563l229 4q28 0 34 -14.5t-1 -31.5z" />
    <glyph glyph-name="M" unicode="M" horiz-adv-x="836" 
d="M763 44q-5 -26 -16 -35t-37 -9h-16q-27 0 -33.5 9.5t-1.5 34.5l115 540q-3 -12 -61 -121.5t-66 -123.5l-155 -278q-15 -27 -28.5 -34.5t-43.5 -7.5q-17 0 -25.5 1.5t-18 10.5t-11.5 27l-34 264l-14 132q-9 106 -7 130h-1l-115 -540q-5 -26 -16 -35t-37 -9h-15
q-27 0 -34 9.5t-1 35.5l128 604q6 27 17.5 36t37.5 9h62q14 0 22 -1.5t17 -10.5t11 -27l34 -263l15 -136q11 -101 8 -130h1q7 21 59 122l66 123l157 281q8 15 13.5 22t19.5 13.5t35 6.5h64q27 0 33.5 -9.5t0.5 -34.5z" />
    <glyph glyph-name="N" unicode="N" horiz-adv-x="678" 
d="M605 44q-5 -26 -16 -35t-37 -9h-73q-27 0 -38.5 8t-15.5 32l-96 442q-15 73 -18 106h-1l-116 -544q-5 -26 -16 -35t-37 -9h-15q-27 0 -34 9.5t-1 35.5l128 604q6 27 17.5 36t37.5 9h72q27 0 38 -8t16 -32l95 -442q17 -83 19 -106h1l115 544q5 26 16.5 35t37.5 9h16
q27 0 33.5 -9.5t0.5 -34.5z" />
    <glyph glyph-name="O" unicode="O" horiz-adv-x="697" 
d="M716 342q-38 -177 -137 -270q-96 -91 -235 -91q-67 0 -118 23.5t-77 63.5q-62 96 -23 274q35 164 121 261q47 53 114 81.5t139 28.5q159 0 211 -125q37 -91 5 -246zM597 358q28 134 8 198q-8 27 -23.5 45.5t-34 27t-33 11.5t-29.5 3q-91 0 -154 -82q-48 -61 -80 -203
q-28 -130 -13 -201q13 -59 48 -81.5t73 -22.5q98 0 165 103q46 73 73 202z" />
    <glyph glyph-name="P" unicode="P" horiz-adv-x="608" 
d="M657 484q-12 -57 -40.5 -99.5t-65.5 -64.5t-74.5 -32t-76.5 -10h-138l-50 -234q-5 -26 -16 -35t-37 -9h-33q-27 0 -34 9.5t-1 35.5l128 604q6 27 17.5 36t37.5 9h206q109 0 153.5 -56.5t23.5 -153.5zM543 483q5 23 6.5 40t-2.5 36.5t-16 31.5t-36.5 20t-60.5 8h-102
l-58 -272h102q46 0 77.5 11.5t49 33.5t26 42t14.5 49z" />
    <glyph glyph-name="Q" unicode="Q" horiz-adv-x="697" 
d="M716 342q-26 -113 -70 -186q-52 -85 -119 -124l44 -94q9 -23 8 -28q-5 -21 -38 -21h-60q-23 0 -28.5 4.5t-17.5 32.5l-23 61q-34 -6 -68 -6q-67 0 -118 23.5t-77 63.5q-62 96 -23 274q35 164 121 261q47 53 114 81.5t139 28.5q159 0 211 -125q37 -91 5 -246zM597 343
q29 135 9 209q-12 43 -44.5 67t-76.5 24q-41 0 -81 -21t-69 -56q-59 -76 -90 -223q-28 -127 -10 -194q13 -55 48 -76.5t76 -21.5q24 0 25 4l-17 44l-16 39q-11 30 -9 35q4 21 38 21h46q16 0 20.5 -1.5t9.5 -10.5l34 -75q69 64 107 236z" />
    <glyph glyph-name="R" unicode="R" horiz-adv-x="614" 
d="M578 22q-5 -22 -40 -22h-42q-21 0 -27 4t-11 20l-86 291h-105l-58 -271q-5 -26 -16 -35t-37 -9h-30q-27 0 -34 9.5t-1 35.5l128 604q6 27 17.5 36t37.5 9h199q117 0 164.5 -53.5t28.5 -140.5q-29 -136 -180 -176l89 -287q4 -12 3 -15zM552 499q12 57 -8.5 88.5
t-100.5 31.5h-111l-51 -240h110q81 0 115 32t46 88z" />
    <glyph glyph-name="S" unicode="S" horiz-adv-x="528" 
d="M515 195q-20 -96 -85.5 -155t-170.5 -59q-102 0 -180 55q-19 13 -22 16.5t-2 10.5q10 32 29 74q6 14 15 14q5 0 14 -10q65 -67 165 -67q107 0 130 110q8 40 -6 67.5t-38 38.5q-3 1 -14 4.5t-25.5 7.5t-22.5 6q-32 9 -47.5 14.5t-34.5 19t-36 36.5q-5 7 -11 19.5
t-13.5 45.5t2.5 69q19 88 82.5 144.5t172.5 56.5q84 0 144 -40q15 -10 17.5 -13t1.5 -9q0 -3 -28 -74q-6 -14 -15 -14q-5 0 -11 7q-48 56 -127 56q-108 0 -129 -99q-9 -40 17 -75q10 -12 24 -17.5t59 -18.5q33 -9 49 -14.5t37.5 -20.5t36.5 -38q40 -64 22 -148z" />
    <glyph glyph-name="T" unicode="T" horiz-adv-x="644" 
d="M746 643q-6 -28 -17.5 -36.5t-38.5 -8.5l-179 3l-119 -557q-5 -26 -16 -35t-37 -9h-33q-27 0 -34 9.5t-1 35.5l118 556l-181 -3q-28 0 -35.5 8.5t-1.5 36.5q5 27 16 36t38 9h486q28 0 35 -12t0 -33z" />
    <glyph glyph-name="U" unicode="U" horiz-adv-x="657" 
d="M623 228q-23 -109 -99.5 -178t-197.5 -69t-170.5 68.5t-26.5 178.5l90 421q6 27 17.5 36t37.5 9h33q27 0 33.5 -9.5t0.5 -34.5l-90 -423q-36 -171 92 -171q135 0 169 172l90 422q5 26 16.5 35t37.5 9h23q27 0 33.5 -9.5t0.5 -34.5z" />
    <glyph glyph-name="V" unicode="V" horiz-adv-x="636" 
d="M754 669q0 -3 -9 -19l-331 -611q-21 -39 -66 -39h-61q-14 0 -22 1.5t-16.5 10.5t-10.5 28l-72 610q-1 7 -1 19q6 25 43 25h34q10 0 16 -0.5t14 -4t13 -12t6 -22.5l40 -352q2 -13 10 -103q7 -73 6 -94h1q23 58 119 235l170 313q14 26 28 33t39 7h19q11 0 17 -1t11.5 -6.5
t2.5 -17.5z" />
    <glyph glyph-name="W" unicode="W" horiz-adv-x="900" 
d="M1021 668q-1 -4 -6 -14l-279 -615q-8 -18 -20 -27t-20 -10.5t-22 -1.5h-48q-15 0 -22.5 1.5t-15.5 11t-8 28.5l-8 324q-5 167 0 222h-1q-13 -36 -50 -121.5t-43 -97.5l-146 -325q-9 -20 -21 -30t-20 -11.5t-23 -1.5h-43q-14 0 -21.5 1.5t-16 10.5t-8.5 27l-17 615v14
q6 26 45 26h21q13 0 20.5 -1t16 -10t8.5 -27l9 -352q2 -150 -4 -195h1q18 57 108 257l129 288q8 19 20.5 28t21 10.5t22.5 1.5h43q10 0 15.5 -0.5t13.5 -4t12 -12t4 -22.5l8 -333q4 -151 0 -215h1q23 70 93 220l147 329q8 18 21 27t21.5 10t24.5 1q13 0 20 -1t13.5 -7
t3.5 -18z" />
    <glyph glyph-name="X" unicode="X" horiz-adv-x="636" 
d="M609 27q-3 -13 -9 -19t-11.5 -7t-18.5 -1h-56q-20 0 -27 3.5t-13 18.5l-105 252l-206 -252q-12 -15 -21.5 -18.5t-28.5 -3.5h-48q-11 0 -16.5 0.5t-10.5 5.5t-3 15q2 7 13 19l282 327l-137 287q-6 12 -5 20q5 20 39 20h56q20 0 26.5 -3.5t12.5 -17.5l89 -202l172 205
q15 18 47 18h49q10 0 15.5 -0.5t10.5 -5.5t3 -15q-1 -5 -12 -17l-248 -289z" />
    <glyph glyph-name="Y" unicode="Y" horiz-adv-x="636" 
d="M759 673q-1 -3 -13 -20l-310 -376l-50 -234q-6 -27 -17.5 -35t-35.5 -8h-31q-26 0 -33 9t-2 35l50 234l-152 379q-5 7 -3 16q5 21 40 21h41q48 0 62 -36l73 -189q24 -66 29 -89q10 20 67.5 92t108.5 133.5t55 65.5q25 23 66 23h25q11 0 16.5 -0.5t10.5 -5.5t3 -15z" />
    <glyph glyph-name="Z" unicode="Z" horiz-adv-x="581" 
d="M543 45q-6 -25 -16 -35t-38 -10h-392q-27 0 -34 11t0 34q5 22 16 35l437 533h-36l-230 -3h-16t-12.5 1.5t-10.5 4t-6 7t-2.5 12t2.5 17.5q4 19 13.5 29t17.5 11.5t23 1.5h372q24 0 32 -8.5t2 -34.5q-3 -18 -16 -33l-436 -531l289 4q29 0 38 -7.5t3 -38.5z" />
    <glyph glyph-name="bracketleft" unicode="[" horiz-adv-x="293" 
d="M231 -190q-7 -32 -51 -32h-105q-27 0 -33.5 9.5t-1.5 34.5l188 884q5 26 16 35t37 9h105q11 0 18 -1t15 -8.5t5 -22.5q-7 -32 -51 -32h-44l-180 -844h44q11 0 18 -1t15 -8.5t5 -22.5z" />
    <glyph glyph-name="backslash" unicode="\" horiz-adv-x="500" 
d="M394 -230q-4 -20 -24 -20q-15 0 -17 22l-141 940l-1 18q5 20 24 20q14 0 18 -22l140 -940z" />
    <glyph glyph-name="bracketright" unicode="]" horiz-adv-x="293" 
d="M176 -178q-5 -26 -16 -35t-37 -9h-105q-11 0 -18 1t-14.5 8.5t-4.5 22.5q6 32 50 32h44l180 844h-44q-11 0 -18 1t-14.5 8.5t-4.5 22.5q6 32 50 32h105q27 0 34 -9.5t1 -34.5z" />
    <glyph glyph-name="asciicircum" unicode="^" horiz-adv-x="556" 
d="M685 584l-17 -22l-245 123l-298 -123l-6 22l317 160z" />
    <glyph glyph-name="underscore" unicode="_" horiz-adv-x="636" 
d="M598 -181h-636l23 112h636z" />
    <glyph glyph-name="grave" unicode="`" 
d="M422 557q-2 -11 -27 -11h-31l-109 122q-8 8 -7 15q3 11 27 11h61q14 0 17 -1.5t8 -9.5l57 -111z" />
    <glyph glyph-name="a" unicode="a" horiz-adv-x="453" 
d="M417 44q-5 -26 -16 -35t-37 -9h-20q-27 0 -33.5 9.5t-1.5 34.5l6 25q-22 -29 -62 -54t-88 -25q-57 0 -85 43t-16 99q8 35 28.5 62.5t50.5 44t57.5 27.5t62.5 16t50 6.5t35 2.5q8 1 10 3.5t5 15.5l4 20q5 23 5.5 41t-3.5 28t-8.5 16.5t-13.5 9t-13.5 3t-12.5 0.5
q-73 0 -136 -50q-13 -10 -18 -10q-7 0 -8.5 6t1.5 23q1 8 5 36q1 8 6 11t23 12q70 31 144 31q88 0 122 -41.5t18 -114.5zM330 155l21 101q-24 -1 -47 -6t-53 -17t-52 -37.5t-30 -61.5q-6 -33 7.5 -56.5t42.5 -23.5q10 0 22.5 3.5t31.5 12.5t34.5 31t22.5 54z" />
    <glyph glyph-name="b" unicode="b" horiz-adv-x="483" 
d="M500 237q-22 -108 -76 -169q-67 -78 -164 -78q-60 0 -86 45q-4 -16 -13.5 -24.5t-17 -9.5t-20.5 -1h-22q-27 0 -34 9.5t-1 35.5l128 604q6 27 17.5 36t37.5 9h19q27 0 33.5 -9.5t0.5 -34.5l-47 -223q58 55 128 55q51 0 81.5 -24t39 -64t7 -78t-10.5 -79zM390 238
q5 22 7 35.5t5 38t0 40t-9 32.5t-21 25.5t-38 8.5q-28 0 -55 -15q-21 -13 -26.5 -20t-8.5 -22l-57 -267q15 -40 59 -40q30 0 54 14t37.5 31.5t25.5 47.5t16.5 46.5t10.5 44.5z" />
    <glyph glyph-name="c" unicode="c" horiz-adv-x="422" 
d="M408 62q-2 -9 -19.5 -22t-34.5 -21l-17 -8q-49 -21 -101 -21q-100 0 -140 64q-37 62 -14 183q26 120 93.5 185t170.5 65q45 0 69 -8t53 -27q8 -5 9 -6t4 -5t0 -7q0 -1 -3 -9t-7.5 -17.5t-4.5 -10.5q-7 -18 -10.5 -23t-9.5 -5q-5 0 -12 9q-22 21 -43 30t-59 9
q-34 0 -59 -16.5t-40.5 -47t-23.5 -55.5t-15 -60q-5 -24 -7.5 -39.5t-4 -44.5t4 -47t22 -32.5t44.5 -14.5q68 0 138 57q9 9 15 9q7 0 8.5 -5.5t-1.5 -22.5q-4 -33 -5 -36z" />
    <glyph glyph-name="d" unicode="d" horiz-adv-x="483" 
d="M435 44q-5 -26 -16 -35t-37 -9h-23q-27 0 -33.5 9.5t-1.5 34.5q-5 -6 -17 -16.5t-41.5 -24t-59.5 -13.5q-92 0 -124 81q-23 62 0 165q25 114 81 176q62 70 152 70q65 0 95 -49l46 217q5 26 16.5 35t37.5 9h20q27 0 33.5 -9.5t0.5 -34.5zM336 101l61 283l-3 3
q-2 3 -4.5 6.5t-8 8t-11.5 8t-15 6t-19 2.5q-30 0 -54 -14t-37.5 -31.5t-25.5 -47t-16 -46.5t-10 -44q-6 -28 -8.5 -43.5t-4.5 -45.5t3.5 -47t21.5 -31t43 -14q49 0 88 47z" />
    <glyph glyph-name="e" unicode="e" horiz-adv-x="438" 
d="M469 275q-5 -26 -16.5 -34.5t-36.5 -8.5h-238q-36 -178 80 -178q78 0 143 62q9 9 15 9q7 0 8 -5t-1 -19q0 -20 -4 -36q-5 -22 -74 -53q-53 -22 -104 -22q-40 0 -73 11.5t-61.5 40t-35.5 76.5t6 121q15 70 45 121.5t67.5 77.5t73.5 37.5t72 11.5q87 0 121.5 -54.5
t12.5 -157.5zM384 279q3 18 4.5 29t3 30.5t-2.5 32t-10.5 26t-21 20t-35.5 6.5q-48 0 -82 -41.5t-51 -102.5h195z" />
    <glyph glyph-name="f" unicode="f" horiz-adv-x="290" 
d="M465 640q-2 -10 -3 -14t-4.5 -7.5t-8.5 -3.5t-12 6q-23 19 -57 19q-21 0 -36 -6.5t-22.5 -18.5t-10.5 -20t-6 -21l-22 -102h44q11 0 18 -1t15 -8.5t5 -22.5q-7 -32 -51 -32h-41l-78 -364q-5 -26 -16 -35t-37 -9h-19q-27 0 -34 9.5t-1 35.5l77 363q-17 0 -25.5 1t-16 8.5
t-4.5 22.5t14 22.5t20 8.5t25 1l17 77q15 73 66.5 114t132.5 41q30 0 55 -5q20 -5 23 -9t-1 -22z" />
    <glyph glyph-name="g" unicode="g" horiz-adv-x="483" 
d="M432 27q-19 -92 -78.5 -153t-160.5 -61q-81 0 -144 33q-10 6 -11.5 10t2.5 20l5 23q5 26 16 26q5 0 12 -7q57 -41 132 -41q84 0 110 123l20 93h-1q-44 -72 -116 -72q-90 0 -125 63q-32 58 -10 154q21 106 80 171q65 73 160 73q62 0 85 -58q4 20 6.5 27.5t8.5 16.5
t15.5 11.5t25.5 2.5h20q27 0 34 -9.5t1 -34.5zM376 272l13 63q7 33 -7.5 58t-45.5 25t-56 -17t-41.5 -45.5t-27 -57t-17.5 -60.5q-4 -18 -6 -36.5t-1 -48.5t18 -49t49 -19q77 0 114 163q2 12 8 24z" />
    <glyph glyph-name="h" unicode="h" horiz-adv-x="483" 
d="M437 44q-5 -26 -16 -35t-37 -9h-23q-27 0 -33.5 9.5t-1.5 34.5l63 294q10 42 2 61t-39 19q-39 0 -76.5 -35.5t-50.5 -99.5l-51 -239q-5 -26 -16 -35t-37 -9h-22q-27 0 -34 9.5t-1 35.5l128 604q6 27 17.5 36t37.5 9h19q27 0 33.5 -9.5t0.5 -34.5l-56 -263h1q64 95 157 95
q72 0 92.5 -36.5t6.5 -103.5z" />
    <glyph glyph-name="i" unicode="i" horiz-adv-x="219" 
d="M172 44q-5 -26 -16 -35t-37 -9h-19q-27 0 -34 9.5t-1 35.5l81 382q5 27 16.5 36t37.5 9h19q27 0 34 -9.5t1 -34.5zM300 608q-6 -28 -17.5 -37.5t-37.5 -9.5h-33q-27 0 -33.5 10t-1.5 37l5 24q7 29 18 38t37 9h33q27 0 34 -9.5t1 -37.5z" />
    <glyph glyph-name="j" unicode="j" horiz-adv-x="246" 
d="M185 -25q-16 -75 -59 -113.5t-102 -38.5q-38 0 -78 14t-37 27q0 1 6.5 13.5t7.5 15.5q8 15 11.5 19t9.5 4q2 0 12 -6q21 -14 49 -14q25 0 41 12t19.5 22.5t7.5 27.5l100 470q5 26 16 35t37 9h20q27 0 34 -9.5t1 -34.5zM319 608q-6 -28 -17.5 -37.5t-37.5 -9.5h-33
q-27 0 -33.5 10t-1.5 37l5 24q7 29 18 38t37 9h33q27 0 34 -9.5t1 -37.5z" />
    <glyph glyph-name="k" unicode="k" horiz-adv-x="457" 
d="M428 21q-4 -21 -38 -21h-28q-31 0 -38 15l-81 198l-51 -44l-27 -125q-5 -26 -16 -35t-37 -9h-6q-27 0 -34 9.5t-1 35.5l128 604q6 27 17.5 36t37.5 9h9q27 0 33.5 -9.5t0.5 -34.5l-73 -345l165 147q22 20 55 20h33q10 0 15.5 -0.5t10.5 -5t3 -13.5q-1 -6 -16 -20
l-167 -148l102 -248q5 -9 3 -16z" />
    <glyph glyph-name="l" unicode="l" horiz-adv-x="219" 
d="M172 44q-5 -26 -16 -35t-37 -9h-19q-27 0 -34 9.5t-1 35.5l128 604q6 27 17.5 36t37.5 9h19q27 0 33.5 -9.5t0.5 -34.5z" />
    <glyph glyph-name="m" unicode="m" horiz-adv-x="747" 
d="M702 44q-5 -26 -16 -35t-37 -9h-22q-27 0 -34 9.5t-1 35.5l62 293q10 41 2 60.5t-39 19.5q-40 0 -77.5 -35.5t-50.5 -99.5l-51 -239q-5 -26 -16 -35t-37 -9h-22q-27 0 -34 9.5t-1 35.5l62 293q10 41 2 60.5t-39 19.5q-40 0 -77.5 -35.5t-50.5 -99.5l-51 -239
q-5 -26 -16 -35t-37 -9h-22q-27 0 -34 9.5t-1 35.5l82 388q6 27 17.5 36t37.5 9h16q27 0 33.5 -9.5t0.5 -34.5l-11 -53l1 -1q63 102 161 102q21 0 37 -3t34.5 -12t27.5 -30t7 -52q66 97 158 97q71 0 92.5 -35.5t7.5 -104.5z" />
    <glyph glyph-name="n" unicode="n" horiz-adv-x="483" 
d="M437 44q-5 -26 -16 -35t-37 -9h-23q-27 0 -33.5 9.5t-1.5 34.5l63 294q10 42 2 61t-39 19q-39 0 -76.5 -35.5t-50.5 -99.5l-51 -239q-5 -26 -16 -35t-37 -9h-22q-27 0 -34 9.5t-1 35.5l82 388q6 27 17.5 36t37.5 9h16q27 0 33.5 -9.5t0.5 -34.5l-11 -54h1q67 102 161 102
q72 0 92.5 -36.5t6.5 -103.5z" />
    <glyph glyph-name="o" unicode="o" 
d="M497 232q-23 -117 -94 -180q-68 -62 -168 -62q-103 0 -145 64q-38 63 -15 178q24 114 90 183q69 72 176 72q103 0 144 -70q38 -65 12 -185zM389 244q5 23 7.5 36.5t5 38.5t-0.5 40t-10 31.5t-23.5 24.5t-40.5 8q-29 0 -51.5 -13t-36 -29.5t-25 -45.5t-15.5 -46t-10 -45
q-4 -21 -6.5 -32t-5 -33.5t-2 -36t4 -31t12 -27.5t23 -17t35.5 -7q29 0 52 13.5t36 31t24.5 47t16 47t10.5 45.5z" />
    <glyph glyph-name="p" unicode="p" horiz-adv-x="483" 
d="M501 238q-24 -108 -78 -172q-31 -36 -74.5 -56t-87.5 -20q-55 0 -87 45l-33 -158q-5 -26 -16 -35t-37 -9h-22q-27 0 -34 9.5t-2 35.5l117 549q5 27 16 36t38 9h19q30 0 36 -13.5t-2 -34.5q65 58 136 58q38 0 64.5 -16t38.5 -40.5t16 -58.5t1.5 -65t-9.5 -64zM389 236
q5 20 7.5 41.5t2.5 56t-17 56.5t-50 22q-46 0 -85 -37l-60 -282q2 -5 6 -12t19 -17t34 -10q29 0 54 17t39.5 38t26.5 51.5t16 45t7 30.5z" />
    <glyph glyph-name="q" unicode="q" horiz-adv-x="483" 
d="M400 -123q-5 -26 -16 -35t-37 -9h-23q-27 0 -34 9.5t-1 34.5l35 166q-52 -53 -115 -53q-53 0 -85.5 23.5t-42 63t-9 78t9.5 80.5q21 102 72 165q66 82 165 82q66 0 88 -62l4 18q5 26 16 35t37 9h20q27 0 34 -9.5t1 -34.5zM341 109l47 221q7 32 -7.5 57t-46.5 25
q-29 0 -53.5 -16.5t-39 -37t-26 -50.5t-15.5 -44t-7 -30q-9 -47 -10.5 -87t15 -66.5t51.5 -26.5q54 0 92 55z" />
    <glyph glyph-name="r" unicode="r" horiz-adv-x="321" 
d="M398 427q-4 -18 -7.5 -21.5t-16.5 -4.5q-54 -5 -98.5 -46.5t-59.5 -108.5l-43 -202q-5 -26 -16 -35t-37 -9h-19q-27 0 -34 9.5t-1 35.5l82 388q6 27 17.5 36t37.5 9h14q27 0 33.5 -9.5t0.5 -34.5l-14 -66h1q33 58 75 86t80 28q11 0 13 -5t-2 -21z" />
    <glyph glyph-name="s" unicode="s" horiz-adv-x="364" 
d="M372 140q-32 -150 -186 -150q-50 0 -94 17q-59 25 -55 43q0 3 10 28t13 31q4 12 14 12q6 0 14 -10q40 -52 111 -52q69 0 83 65q4 20 0.5 33.5t-16 21.5t-22 11t-28.5 8q-135 30 -110 148q30 141 185 141q65 0 112 -27q13 -7 15.5 -10t1.5 -9q-4 -14 -15 -37
q-7 -18 -10.5 -22.5t-9.5 -4.5q-5 0 -10 5q-40 43 -104 43q-63 0 -75 -59q-2 -9 -2 -17t2 -14t4.5 -10.5t8.5 -8.5t10.5 -6.5t13.5 -5t13.5 -3.5t15.5 -4q24 -5 36.5 -9t29 -15.5t29.5 -29.5q27 -44 15 -103z" />
    <glyph glyph-name="t" unicode="t" horiz-adv-x="346" 
d="M329 50q-2 -8 -25 -21.5t-62.5 -26t-76.5 -12.5q-89 0 -60 131l61 287h-17q-11 0 -18 1t-14.5 8.5t-4.5 22.5q6 32 51 32h19l19 90q6 27 17.5 36t37.5 9h13q27 0 33.5 -9.5t1.5 -34.5l-20 -91h74q11 0 18 -1t15 -8.5t5 -22.5q-7 -32 -51 -32h-74l-57 -269q-18 -79 17 -79
q39 0 69 28q11 12 17 12q9 0 11 -21q0 -3 0.5 -15t0.5 -14z" />
    <glyph glyph-name="u" unicode="u" horiz-adv-x="483" 
d="M437 44q-5 -26 -16 -35t-37 -9h-20q-27 0 -33.5 9.5t-1.5 34.5l7 31q-56 -85 -138 -85q-75 0 -103.5 32t-13.5 107l64 298q5 27 16 36t38 9h22q27 0 34 -9.5t1 -34.5l-65 -306q-11 -45 -3 -62t46 -17q46 0 78 41.5t43 96.5l53 247q5 26 16 35t37 9h23q27 0 34 -9.5
t1 -34.5z" />
    <glyph glyph-name="v" unicode="v" horiz-adv-x="431" 
d="M504 447q-1 -5 -6 -15l-195 -393q-9 -18 -21 -27t-20.5 -10.5t-22.5 -1.5h-48q-14 0 -22 1.5t-16.5 10.5t-9.5 27l-27 408q6 17 16 21t27 4h12q27 0 36 -9t11 -31l22 -321l158 320q13 26 27 33.5t37 7.5h9q7 0 11.5 -0.5t11 -2.5t9.5 -7.5t1 -14.5z" />
    <glyph glyph-name="w" unicode="w" horiz-adv-x="642" 
d="M716 446q-1 -3 -3.5 -9t-3.5 -7l-176 -391q-8 -18 -20 -27t-20.5 -10.5t-21.5 -1.5h-48q-38 0 -45 24q-1 6 -2.5 68t-1 143.5t5.5 118.5q-7 -33 -40.5 -115t-63.5 -147t-33 -69q-17 -23 -54 -23h-19q-13 0 -21 1.5t-16.5 10.5t-8.5 27l-9 389v18q5 26 44 26h11
q21 0 31 -6.5t11.5 -13.5t2.5 -23l6 -246q1 -35 -2 -68h1q3 7 39 92l99 220q7 16 12 23.5t17 14.5t31 7q41 0 42 -39l8 -320l144 320q8 18 20 27t20.5 10.5t25.5 1.5q13 0 20 -1t13.5 -7t4.5 -18z" />
    <glyph glyph-name="x" unicode="x" horiz-adv-x="431" 
d="M415 20q-4 -20 -38 -20h-24q-20 0 -27 4t-13 18l-63 156l-124 -155q-12 -16 -21.5 -19.5t-28.5 -3.5h-24q-10 0 -15.5 0.5t-10.5 5.5t-3 14q3 10 13 20l185 204l-96 189q-5 12 -4 19q4 20 37 20h24q15 0 23 -2.5t10.5 -5.5t7.5 -13l58 -125l108 124q13 15 21 18.5t28 3.5
h24q10 0 15.5 -0.5t10.5 -5.5t3 -15q-1 -7 -12 -18l-172 -189l104 -206q6 -12 4 -18z" />
    <glyph glyph-name="y" unicode="y" horiz-adv-x="431" 
d="M503 447q-1 -4 -9 -19l-245 -479q-29 -55 -76.5 -90.5t-103.5 -35.5q-54 0 -64 10q-3 6 -0.5 30.5t4.5 33.5q3 14 15 14l6 -3q28 -14 55 -14q41 0 68 34q7 9 22.5 36.5t16.5 34.5q0 3 -1 15l-71 416l-1 18q5 24 42 24h12q33 0 41.5 -12t16.5 -61q35 -215 23 -281
q17 57 80 185l65 129q13 27 27 33.5t40 6.5q14 0 20.5 -1t12.5 -6.5t4 -17.5z" />
    <glyph glyph-name="z" unicode="z" horiz-adv-x="411" 
d="M388 33q-7 -33 -51 -33h-267q-13 0 -20 1t-13.5 10t-2.5 27q3 15 16 30l297 339h-38l-131 -2q-12 0 -18.5 0.5t-15 3.5t-11 10t-0.5 19q7 34 52 34h250q13 0 20 -1t13.5 -10t2.5 -27q-3 -15 -16 -30l-296 -339h46l137 2q17 0 26 -1t16 -9t4 -24z" />
    <glyph glyph-name="braceleft" unicode="{" horiz-adv-x="500" 
d="M376 -239q-2 -11 -22 -11q-84 0 -131 38q-30 25 -33.5 56.5t8.5 72.5l42 198q8 35 0 60.5t-27 38t-37 18.5t-37 7q-5 1 -6.5 1t-5 1t-2.5 3t0 6q2 11 16 11q64 4 114 45q23 20 31 41.5t24 96.5l39 183q13 53 76.5 88t140.5 35q8 0 11 -0.5t5.5 -3t1.5 -7.5q-2 -9 -11 -11
q-33 -2 -59 -10.5t-36 -15.5t-26 -20q-20 -18 -28.5 -39t-20.5 -80l-39 -180q-4 -17 -8.5 -29t-19 -34t-44.5 -40t-74 -30q95 -28 94 -103q0 -6 -17 -91l-32 -150q-8 -39 -7 -48q1 -32 27 -57.5t80 -28.5q6 -1 8 -1.5t4 -2.5t1 -7z" />
    <glyph glyph-name="bar" unicode="|" horiz-adv-x="278" 
d="M113 -217q-7 -33 -27 -33t-13 33l198 934q7 33 27 33t13 -33z" />
    <glyph glyph-name="braceright" unicode="}" horiz-adv-x="500" 
d="M480 250q-2 -11 -16 -11q-64 -4 -114 -45q-23 -20 -31 -41.5t-24 -96.5l-39 -183q-12 -53 -76 -88t-141 -35q-7 0 -10 0.5t-6 3t-2 7.5q2 9 12 11q32 2 58 10.5t36 15.5t26 20q21 17 28.5 37.5t21.5 81.5l38 180q4 17 8.5 29t19 34t44.5 40t74 30q-95 28 -94 103
q0 6 17 91l32 150q8 36 7 48q-1 32 -26.5 57.5t-79.5 28.5q-5 1 -6.5 1t-5 1t-2.5 3t0 6q2 11 22 11q84 0 131 -38q30 -25 33.5 -56.5t-8.5 -72.5l-42 -198q-7 -35 0.5 -60.5t26.5 -38t37 -18.5t37 -7q5 -1 6.5 -1t5 -1t2.5 -3t0 -6z" />
    <glyph glyph-name="asciitilde" unicode="~" horiz-adv-x="556" 
d="M620 304l-64 -44q-24 -17 -64 -35q-43 -18 -77 -18q-41 0 -93 34q-21 14 -31 19.5t-28 11.5t-37 6q-68 0 -168 -71l-10 17l63 44q24 17 64 35q45 18 77 18q43 0 93 -34q21 -14 31 -19.5t28 -11.5t37 -6q69 0 168 71z" />
    <glyph glyph-name="uni00A0" unicode="&#xa0;" 
 />
    <glyph glyph-name="exclamdown" unicode="&#xa1;" horiz-adv-x="306" 
d="M305 466q-5 -26 -16 -35t-37 -9h-18q-27 0 -34 9.5t-1 34.5l4 17q5 27 16 36t38 9h17q27 0 33.5 -9.5t1.5 -34.5zM175 -144q-3 -17 -7 -20t-22 -3h-55q-19 0 -22 3t0 20l57 243l55 235q3 11 28 11h34q21 0 23 -6q1 -3 -35 -192z" />
    <glyph glyph-name="cent" unicode="&#xa2;" horiz-adv-x="422" 
d="M408 62q-2 -9 -19.5 -22t-34.5 -21l-17 -8q-28 -12 -63 -18l-13 -58q-2 -8 -9 -14.5t-16 -6.5h-43q-9 0 -14.5 6.5t-3.5 14.5l13 60q-63 14 -92 59q-37 62 -14 183q22 103 75.5 166t133.5 79l12 55q2 9 10 15t17 6h43q9 0 13.5 -6t2.5 -15l-11 -51q48 -5 90 -34
q8 -5 9 -6t4 -5t0 -7q0 -1 -3 -9t-7.5 -17.5t-4.5 -10.5q-7 -18 -10.5 -23t-9.5 -5q-5 0 -12 9q-35 32 -71 37l-74 -351q50 9 102 53q9 9 15 9q7 0 8.5 -5.5t-1.5 -22.5q-4 -33 -5 -36zM205 76l69 325q-55 -36 -80 -163q-28 -125 11 -162z" />
    <glyph glyph-name="sterling" unicode="&#xa3;" horiz-adv-x="636" 
d="M605 157q-15 -72 -69 -124t-119 -52q-39 0 -93 15q-39 11 -62 15.5t-53.5 4.5t-43.5 -13q-22 -22 -49 -22q-23 0 -36 16.5t-8 39.5q5 21 18 34q88 90 132 197l15 36h-76q-13 0 -20.5 9.5t-5.5 22.5l5 22q3 14 14.5 23t24.5 9h80q2 9 5.5 26.5t6.5 31.5t6 26
q22 89 80.5 154.5t132.5 65.5q75 0 107 -66t12 -157q-4 -23 -24.5 -39.5t-43.5 -16.5t-36 16.5t-8 39.5q23 111 -31 111q-53 0 -78 -111q-4 -15 -9.5 -43.5t-7.5 -37.5h62q13 0 20.5 -9.5t4.5 -22.5l-5 -22q-2 -13 -13.5 -22.5t-24.5 -9.5h-66q-11 -32 -22 -59
q-26 -63 -63 -119q44 -4 111 -22q39 -11 66 -11q20 0 33.5 19t18.5 45q5 23 25 39.5t43 16.5t36 -16.5t8 -39.5z" />
    <glyph glyph-name="currency" unicode="&#xa4;" horiz-adv-x="739" 
d="M602 40q-6 -5 -11.5 -7.5t-9.5 -3t-8.5 0t-7.5 2t-6.5 4t-5.5 4t-5 4.5l-3 4l-31 39q-63 -41 -135 -41q-68 0 -119 41l-46 -38q-41 -33 -59 -8q-19 23 20 58l47 38q-29 58 -14 127q15 71 68 127l-32 39l-2 3q-2 3 -2.5 4t-2.5 4.5t-2.5 5.5l-1.5 6t-1 6.5t1 6.5t3 7.5
t5 7t8 7.5q28 24 56 -8l31 -39q67 41 135 41q72 0 119 -41l46 38q43 31 60 8q18 -23 -21 -58l-46 -37q29 -55 14 -128q-15 -72 -68 -128l31 -38l2 -3q2 -3 2.5 -4t2.5 -4.5t2.5 -5.5l1.5 -6t1 -6.5t-1 -6.5t-2.5 -7.5t-5 -7zM573 264q13 61 -20.5 104.5t-95.5 43.5
q-61 0 -113.5 -43.5t-65.5 -104.5t21 -104.5t95 -43.5q62 0 114 43.5t65 104.5z" />
    <glyph glyph-name="yen" unicode="&#xa5;" horiz-adv-x="636" 
d="M759 673q-1 -3 -13 -20l-223 -270h56q13 0 20.5 -9.5t5.5 -22.5l-5 -22q-3 -14 -14.5 -23t-24.5 -9h-109l-16 -20l-8 -35h121q13 0 20.5 -9t5.5 -23l-5 -22q-3 -14 -14.5 -23t-24.5 -9h-121l-24 -113q-6 -27 -17.5 -35t-35.5 -8h-31q-26 0 -33 9t-2 35l24 112h-120
q-14 0 -21 9.5t-4 22.5l5 22q2 13 13 22.5t25 9.5h120l8 36l-8 19h-108q-14 0 -21 9.5t-4 22.5l5 22q2 13 13.5 22.5t24.5 9.5h55l-109 274q-5 7 -3 16q5 21 40 21h41q48 0 62 -36l73 -189q21 -54 28 -86h2q13 23 70.5 94.5t106.5 130.5t53 63q25 23 66 23h25
q11 0 16.5 -0.5t10.5 -5.5t3 -15z" />
    <glyph glyph-name="brokenbar" unicode="&#xa6;" horiz-adv-x="278" 
d="M232 343q-9 -43 -29 -43t-11 43l79 374q7 33 27 33t13 -33zM113 -217q-7 -33 -27 -33t-13 33l79 374q11 43 30 43q21 0 10 -43z" />
    <glyph glyph-name="section" unicode="&#xa7;" horiz-adv-x="491" 
d="M503 212q-17 -81 -79 -154q24 -43 14 -91q-15 -74 -85 -124t-151 -50t-129 50t-33 124h112q-7 -32 14.5 -53t56.5 -21q36 0 66 21t37 53q3 14 -7.5 29.5t-21.5 24t-32 22.5l-78 51q-52 35 -78 85t-14 109q18 82 79 154q-24 42 -14 91q16 74 85.5 124t150.5 50t129.5 -50
t32.5 -124h-112q7 32 -14 53t-57 21q-35 0 -65.5 -21t-37.5 -53q-3 -14 7.5 -29.5t21.5 -24t32 -22.5l78 -51q52 -35 78.5 -85t13.5 -109zM391 212q11 52 -56 97l-78 51l-17 12q-23 -37 -33 -84q-11 -52 57 -97l78 -51l16 -12q23 35 33 84z" />
    <glyph glyph-name="dieresis" unicode="&#xa8;" 
d="M321 609q-5 -25 -15 -33.5t-34 -8.5h-30q-24 0 -30.5 9t-1.5 33l5 22q6 26 16 34t33 8h30q24 0 30.5 -8.5t1.5 -33.5zM524 609q-5 -25 -15 -33.5t-34 -8.5h-30q-24 0 -30.5 9t-1.5 33l5 22q6 26 16 34t33 8h30q24 0 30.5 -8.5t1.5 -33.5z" />
    <glyph glyph-name="copyright" unicode="&#xa9;" horiz-adv-x="694" 
d="M768 347q-31 -144 -154 -245.5t-267 -101.5t-224 101.5t-49 245.5t154 245.5t267 101.5t224 -101.5t49 -245.5zM704 347q25 118 -40 200.5t-183 82.5q-117 0 -217.5 -82.5t-125.5 -200.5q-25 -117 40.5 -200t182.5 -83q118 0 218 83t125 200zM517 166q-1 -4 -17 -14
q-48 -28 -106 -28q-91 0 -132 57q-39 55 -15 166q22 102 77 158q66 66 164 66q46 0 90 -17q13 -7 12 -13q-2 -13 -18 -45q-3 -8 -8 -8q-3 0 -8 4q-34 26 -78 26q-34 0 -62 -15.5t-44 -35.5t-28 -48t-16 -42t-7 -30q-36 -171 85 -171q52 0 99 29q8 5 11 5q5 0 5 -7
q0 -17 -4 -37z" />
    <glyph glyph-name="ordfeminine" unicode="&#xaa;" horiz-adv-x="356" 
d="M420 403q-4 -17 -13 -23.5t-31 -6.5h-16q-23 0 -28.5 6.5t-1.5 23.5l3 18q-18 -20 -50.5 -37.5t-72.5 -17.5q-48 0 -73 30t-16 69q8 36 38.5 60.5t74.5 34t69 12.5t51 4q7 1 9 3t3 11l3 14q7 20 3.5 33t-6 20t-12 10.5t-14 4t-12.5 0.5q-63 0 -113 -35q-12 -7 -15 -7
q-6 0 -7 3.5t0 16.5q0 2 1.5 12.5t2.5 13.5q1 7 23 16q57 21 120 21q74 0 103.5 -29t18.5 -80zM356 305q-3 -12 -17.5 -21t-32.5 -9h-140q-18 0 -28.5 9t-7.5 21q2 13 16.5 22t32.5 9h140q18 0 28.5 -9t8.5 -22zM343 481l15 71q-132 -7 -149 -86q-5 -23 7.5 -39.5
t36.5 -16.5q13 0 28 3.5t35.5 21t26.5 46.5z" />
    <glyph glyph-name="guillemotleft" unicode="&#xab;" 
d="M341 513l-99 -251l-8 -251q0 -11 -11 -11h-42q-9 0 -11 9l-40 253q0 5 2 7l147 253q3 6 10 6h42q6 0 9 -4.5t1 -10.5zM531 513l-99 -251l-8 -251q0 -11 -11 -11h-42q-9 0 -11 9l-40 253q0 5 2 7l147 253q3 6 10 6h42q6 0 9 -4.5t1 -10.5z" />
    <glyph glyph-name="logicalnot" unicode="&#xac;" horiz-adv-x="739" 
d="M717 150q-3 -14 -16 -24.5t-27 -10.5t-22 10.5t-5 24.5l41 193h-527q-14 0 -22.5 10.5t-5.5 24.5t16 24.5t27 10.5h562q14 0 22 -10.5t5 -24.5z" />
    <glyph glyph-name="uni00AD" unicode="&#xad;" horiz-adv-x="317" 
d="M313 236q-7 -32 -51 -32h-164q-11 0 -18 1t-14.5 8.5t-4.5 22.5q7 32 51 32h164q11 0 18 -1t14.5 -8.5t4.5 -22.5z" />
    <glyph glyph-name="registered" unicode="&#xae;" horiz-adv-x="694" 
d="M768 347q-31 -144 -154 -245.5t-267 -101.5t-224 101.5t-49 245.5t154 245.5t267 101.5t224 -101.5t49 -245.5zM704 347q25 118 -40 200.5t-183 82.5q-117 0 -217.5 -82.5t-125.5 -200.5q-25 -117 40.5 -200t182.5 -83q118 0 218 83t125 200zM544 149q-3 -14 -24 -14h-26
q-13 0 -16.5 2.5t-6.5 12.5l-52 178h-64l-36 -166q-3 -16 -9.5 -21.5t-22.5 -5.5h-19q-16 0 -20.5 6t-0.5 22l78 369q4 16 10.5 21.5t22.5 5.5h122q71 0 100 -32.5t18 -85.5q-18 -82 -110 -108l55 -175q1 -6 1 -9zM529 440q7 35 -6 54t-62 19h-67l-31 -146h67q50 0 70.5 19
t28.5 54z" />
    <glyph glyph-name="macron" unicode="&#xaf;" 
d="M539 610q-4 -19 -8.5 -22.5t-22.5 -3.5h-291q-19 0 -21.5 3.5t1.5 22.5l4 21q4 19 8.5 22.5t22.5 3.5h292q18 0 20.5 -3.5t-1.5 -22.5z" />
    <glyph glyph-name="degree" unicode="&#xb0;" horiz-adv-x="356" 
d="M430 563q-12 -55 -58.5 -93.5t-101.5 -38.5t-85.5 38.5t-18.5 93.5q11 54 58 92.5t102 38.5t85 -38.5t19 -92.5zM360 563q5 25 -9 43t-40 18t-48 -18t-27 -43q-6 -26 8 -44t40 -18t48 18t28 44z" />
    <glyph glyph-name="plusminus" unicode="&#xb1;" horiz-adv-x="739" 
d="M692 35q-7 -35 -54 -35h-538q-47 0 -40 35q8 35 55 35h234l45 212h-234q-47 0 -40 35q8 35 55 35h234l50 235q8 47 45 47q33 0 25 -47l-50 -235h234q11 0 18.5 -1t16 -9.5t4.5 -24.5q-7 -35 -54 -35h-234l-45 -212h234q11 0 18.5 -1t16 -9.5t4.5 -24.5z" />
    <glyph glyph-name="two.superior" unicode="&#xb2;" horiz-adv-x="336" 
d="M373 312q-3 -15 -10.5 -20.5t-25.5 -5.5h-210q-19 0 -24.5 5.5t-1.5 21.5q2 12 9 18l151 129q75 62 87 119q2 8 2 18t-2.5 26.5t-16.5 27.5t-39 11q-58 0 -94 -73q-7 -11 -12 -11q-4 0 -10 7q-16 30 -16 31q0 2 6 12t19 26t29 28q40 31 99 31q68 0 98.5 -39t18.5 -94
q-8 -41 -40 -73t-123 -100l-85 -66h15h87l46 1h18t12 -1t9.5 -2.5t4.5 -4.5t2 -7t-2 -11z" />
    <glyph glyph-name="three.superior" unicode="&#xb3;" horiz-adv-x="341" 
d="M398 406q-14 -66 -62 -99t-114 -33q-40 0 -70 15t-41 29.5t-10 20.5q0 5 9 23q5 16 13 16q4 0 10 -8q29 -48 96 -48q64 0 83 85q9 44 -2.5 64t-49.5 20h-24q-14 0 -15.5 2t1.5 14l1 7q3 13 7 15q1 0 2 0.5t6 1t13 0.5q42 3 61 25q21 21 30 58q2 13 2.5 25t-9.5 20.5
t-31 8.5q-61 0 -98 -51q-5 -7 -10 -7t-13 15.5t-7 17.5q1 6 16 21.5t50 32t75 16.5q61 0 89 -26.5t19 -72.5q-14 -64 -94 -103q85 -23 67 -105z" />
    <glyph glyph-name="acute" unicode="&#xb4;" 
d="M517 683q-1 -6 -13 -15l-161 -122h-31h-10.5t-7.5 1t-5 3.5t0 6.5t12 15l103 111q11 11 31 11h61q14 0 18.5 -1.5t2.5 -9.5z" />
    <glyph glyph-name="uni00B5" unicode="&#xb5;" horiz-adv-x="483" 
d="M437 44q-5 -26 -16 -35t-37 -9h-20q-27 0 -33.5 9.5t-1.5 34.5l7 31q-56 -85 -138 -85q-16 0 -33 10l-26 -123q-5 -26 -16 -35t-37 -9h-22q-27 0 -34 9.5t-2 35.5l117 549q5 27 16 36t38 9h22q27 0 34 -9.5t1 -34.5l-65 -306q-11 -45 -3 -62t46 -17q46 0 78 41.5t43 96.5
l53 247q5 26 16 35t37 9h23q27 0 34 -9.5t1 -34.5z" />
    <glyph glyph-name="paragraph" unicode="&#xb6;" horiz-adv-x="703" 
d="M811 663q-6 -30 -51 -30h-51l-167 -783q-9 -44 -40 -44q-30 0 -21 44l167 783h-80l-167 -783q-9 -44 -40 -44q-30 0 -21 44l79 370q-137 8 -208 72.5t-50 164.5q22 102 121.5 169.5t216.5 67.5h274q12 0 19.5 -1t14.5 -8.5t4 -21.5z" />
    <glyph glyph-name="periodcentered" unicode="&#xb7;" horiz-adv-x="739" 
d="M490 320q-4 -19 -8.5 -22.5t-22.5 -3.5h-55q-19 0 -21.5 3.5t1.5 22.5l11 54q4 19 8.5 22.5t22.5 3.5h56q18 0 20.5 -3t-1.5 -23z" />
    <glyph glyph-name="cedilla" unicode="&#xb8;" horiz-adv-x="422" 
d="M261 -32q-2 -7 -7 -14l-68 -104q-7 -11 -11.5 -13t-20.5 -2h-36h-10.5t-7.5 1t-5 3.5t0 6.5t9 14l91 106q8 9 12.5 11t18.5 2h13h10.5t7 -1t4.5 -3.5t0 -6.5z" />
    <glyph glyph-name="one.superior" unicode="&#xb9;" horiz-adv-x="342" 
d="M359 305q-4 -19 -36 -19h-173q-8 0 -13 0.5t-11 5t-4 13.5q4 19 36 19h49l68 319q-31 -9 -62 -9q-7 0 -12 0.5t-10.5 5t-3.5 13.5q3 18 29 19q66 4 99 31q11 10 28 10q18 0 21.5 -9t-0.5 -17l-77 -363h44q8 0 13 -0.5t11 -5t4 -13.5z" />
    <glyph glyph-name="ordmasculine" unicode="&#xba;" horiz-adv-x="398" 
d="M490 535q-18 -83 -74 -126q-55 -43 -139 -43q-88 0 -124 44q-34 46 -17 125q17 81 70 128q54 50 145 50q88 0 123 -49q34 -46 16 -129zM398 305q-3 -12 -17.5 -21t-32.5 -9h-182q-18 0 -28.5 9t-7.5 21q2 13 16.5 22t32.5 9h182q18 0 28.5 -9t8.5 -22zM398 543
q4 17 5.5 26.5t3 27t-1.5 28t-9.5 22t-20.5 17t-34 5.5q-30 0 -51 -12t-33 -35t-17 -38.5t-10 -40.5q-4 -20 -6 -32t-2 -32.5t5.5 -32.5t20.5 -21.5t39 -9.5t43 9.5t29.5 21.5t19.5 32.5t12 32.5t7 32z" />
    <glyph glyph-name="guillemotright" unicode="&#xbb;" 
d="M456 258l-148 -253q-3 -5 -10 -5h-42q-6 0 -9 4.5t-1 10.5l99 251l8 251q0 11 11 11h42q9 0 11 -9l40 -253q0 -5 -1 -8zM266 258l-148 -253q-3 -5 -10 -5h-42q-6 0 -9 4.5t-1 10.5l99 251l8 251q0 11 11 11h42q9 0 11 -9l40 -253q0 -5 -1 -8z" />
    <glyph glyph-name="onequarter" unicode="&#xbc;" horiz-adv-x="753" 
d="M359 305q-4 -19 -36 -19h-173q-8 0 -13 0.5t-11 5t-4 13.5q4 19 36 19h49l68 319q-31 -9 -62 -9q-7 0 -12 0.5t-10.5 5t-3.5 13.5q3 18 29 19q66 4 99 31q11 10 28 10q18 0 21.5 -9t-0.5 -17l-77 -363h44q8 0 13 -0.5t11 -5t4 -13.5zM730 124q-5 -24 -36 -24h-26l-15 -74
q-4 -15 -11.5 -20.5t-26.5 -5.5h-12q-19 0 -24 6t-2 20l15 74h-139q-19 0 -23.5 5.5t-1.5 20.5l2 11q2 11 9 20l194 245q7 10 12.5 12t20.5 2h37q19 0 24.5 -5.5t2.5 -20.5l-52 -242h26q8 0 11.5 -0.5t9 -2.5t5.5 -7v-14zM774 657l-520 -655q-14 -17 -33 -17
q-20 0 -26.5 17.5t7.5 35.5l519 654q14 17 34 17t26.5 -17.5t-7.5 -34.5zM607 148l46 214q-6 -14 -34 -52q-46 -66 -124 -162h112z" />
    <glyph glyph-name="onehalf" unicode="&#xbd;" horiz-adv-x="836" 
d="M359 305q-4 -19 -36 -19h-173q-8 0 -13 0.5t-11 5t-4 13.5q4 19 36 19h49l68 319q-31 -9 -62 -9q-7 0 -12 0.5t-10.5 5t-3.5 13.5q3 18 29 19q66 4 99 31q11 10 28 10q18 0 21.5 -9t-0.5 -17l-77 -363h44q8 0 13 -0.5t11 -5t4 -13.5zM794 26q-4 -15 -11.5 -20.5
t-26.5 -5.5h-209q-19 0 -25 5.5t-2 21.5q2 12 11 18l150 129q75 65 86 119q1 6 2 12.5t0 20.5t-6 24t-18 18t-33 8q-59 0 -94 -72q-7 -12 -13 -12q-3 0 -9 7q-17 28 -17 32q20 39 55 66q43 31 99 31q67 0 98 -39t19 -95q-8 -41 -39.5 -72.5t-123.5 -100.5l-84 -66q5 1 14 1
h88h45h18t12 -1t9.5 -2.5t4.5 -4.5t2 -7t-2 -11v-4zM778 657l-520 -655q-14 -17 -33 -17q-20 0 -26.5 17.5t7.5 35.5l519 654q14 17 34 17t26.5 -17.5t-7.5 -34.5z" />
    <glyph glyph-name="threequarters" unicode="&#xbe;" horiz-adv-x="753" 
d="M427 406q-14 -66 -62 -99t-114 -33q-40 0 -70 15t-41 29.5t-10 20.5q0 5 9 23q5 16 13 16q3 0 10 -8q29 -48 96 -48q22 0 38 8.5t25 24.5t12.5 26.5t6.5 25.5q9 44 -2.5 64t-48.5 20h-24q-13 0 -15 2t1 14l1 7q3 13 7 15q3 1 21 2q41 3 61 25q21 21 30 58q2 13 2.5 25
t-9.5 20.5t-31 8.5q-61 0 -98 -51q-5 -7 -10 -7t-13 15.5t-7 17.5q1 6 16 21.5t50 32t75 16.5q61 0 89 -26.5t19 -72.5q-14 -63 -94 -103q85 -23 67 -105zM730 124q-5 -24 -36 -24h-26l-15 -74q-4 -15 -11.5 -20.5t-26.5 -5.5h-12q-19 0 -24 6t-2 20l15 74h-139
q-19 0 -23.5 5.5t-1.5 20.5l2 11q2 11 9 20l194 245q7 10 12.5 12t20.5 2h37q19 0 24.5 -5.5t2.5 -20.5l-52 -242h26q8 0 11.5 -0.5t9 -2.5t5.5 -7v-14zM774 657l-520 -655q-14 -17 -33 -17q-20 0 -26.5 17.5t7.5 35.5l519 654q14 17 34 17t26.5 -17.5t-7.5 -34.5zM607 148
l46 214q-6 -14 -34 -52q-46 -66 -124 -162h112z" />
    <glyph glyph-name="questiondown" unicode="&#xbf;" horiz-adv-x="449" 
d="M363 466q-5 -26 -16 -35t-37 -9h-18q-27 0 -34 9.5t-1 34.5l4 17q5 27 16 36t38 9h17q27 0 33.5 -9.5t1.5 -34.5zM371 -115q-2 -8 -30 -22t-75.5 -27t-92.5 -13q-158 0 -125 152q13 72 63 114q53 44 80.5 96t42.5 121l3 15q4 17 8 20.5t22 3.5h34q19 0 21.5 -5t-2.5 -31
q-8 -37 -16 -62.5t-36.5 -80.5t-73.5 -112q-15 -19 -21.5 -33.5t-14.5 -50.5q-11 -46 -5.5 -64.5t37.5 -18.5q75 0 146 53q13 10 17 10q5 0 7 -4t6 -25q5 -30 5 -36z" />
    <glyph glyph-name="Agrave" unicode="&#xc0;" horiz-adv-x="636" 
d="M605 25q-5 -25 -43 -25h-34q-31 0 -39 11.5t-12 52.5l-11 107h-242l-69 -131q-8 -14 -13 -21t-18.5 -13t-34.5 -6h-16q-10 0 -16.5 1t-12.5 7t-4 17l8 16l324 616q20 37 65 37h57q14 0 21.5 -1t16.5 -10t10 -27l62 -617zM459 246l-16 185q-12 107 -9 157h-1
q-11 -33 -71 -149l-99 -193h196zM568 771q5 -6 1.5 -12t-12.5 -6h-67l-166 99q-4 3 -4.5 8t4 9.5t13.5 4.5h127z" />
    <glyph glyph-name="Aacute" unicode="&#xc1;" horiz-adv-x="636" 
d="M605 25q-5 -25 -43 -25h-34q-31 0 -39 11.5t-12 52.5l-11 107h-242l-69 -131q-8 -14 -13 -21t-18.5 -13t-34.5 -6h-16q-10 0 -16.5 1t-12.5 7t-4 17l8 16l324 616q20 37 65 37h57q14 0 21.5 -1t16.5 -10t10 -27l62 -617zM459 246l-16 185q-12 107 -9 157h-1
q-11 -33 -71 -149l-99 -193h196zM675 852l-208 -99h-67q-6 0 -8.5 3t-1 7t6.5 8l148 103h127q9 0 11.5 -4.5t-0.5 -9.5t-8 -8z" />
    <glyph glyph-name="Acircumflex" unicode="&#xc2;" horiz-adv-x="636" 
d="M605 25q-5 -25 -43 -25h-34q-31 0 -39 11.5t-12 52.5l-11 107h-242l-69 -131q-8 -14 -13 -21t-18.5 -13t-34.5 -6h-16q-10 0 -16.5 1t-12.5 7t-4 17l8 16l324 616q20 37 65 37h57q14 0 21.5 -1t16.5 -10t10 -27l62 -617zM459 246l-16 185q-12 107 -9 157h-1
q-11 -33 -71 -149l-99 -193h196zM653 765q5 -5 0.5 -13.5t-12.5 -8.5h-47l-5 1l-95 81l-129 -81l-5 -1h-47q-8 0 -9.5 7.5t5.5 12.5l132 104q5 3 9 3h111q5 0 7 -3z" />
    <glyph glyph-name="Atilde" unicode="&#xc3;" horiz-adv-x="636" 
d="M605 25q-5 -25 -43 -25h-34q-31 0 -39 11.5t-12 52.5l-11 107h-242l-69 -131q-8 -14 -13 -21t-18.5 -13t-34.5 -6h-16q-10 0 -16.5 1t-12.5 7t-4 17l8 16l324 616q20 37 65 37h57q14 0 21.5 -1t16.5 -10t10 -27l62 -617zM459 246l-16 185q-12 107 -9 157h-1
q-11 -33 -71 -149l-99 -193h196zM656 845q-7 -35 -40 -68.5t-76 -33.5q-39 0 -73 32q-25 23 -41 23q-26 0 -40 -40q-4 -11 -8 -13t-20 -2h-13q-17 0 -21 2.5t-2 14.5q8 35 41 68.5t76 33.5q39 0 73 -32q25 -23 40 -23q27 0 41 40q4 11 8 13t20 2h14q16 0 20 -2.5t1 -14.5z
" />
    <glyph glyph-name="Adieresis" unicode="&#xc4;" horiz-adv-x="636" 
d="M605 25q-5 -25 -43 -25h-34q-31 0 -39 11.5t-12 52.5l-11 107h-242l-69 -131q-8 -14 -13 -21t-18.5 -13t-34.5 -6h-16q-10 0 -16.5 1t-12.5 7t-4 17l8 16l324 616q20 37 65 37h57q14 0 21.5 -1t16.5 -10t10 -27l62 -617zM459 246l-16 185q-12 107 -9 157h-1
q-11 -33 -71 -149l-99 -193h196zM421 785q-5 -25 -15.5 -33.5t-34.5 -8.5h-30q-24 0 -30 9t-1 33l4 22q6 26 16 34t33 8h30q24 0 31 -8.5t1 -33.5zM662 785q-5 -25 -15.5 -33.5t-34.5 -8.5h-30q-24 0 -30 9t-1 33l4 22q6 26 16 34t33 8h30q24 0 31 -8.5t1 -33.5z" />
    <glyph glyph-name="Aring" unicode="&#xc5;" horiz-adv-x="636" 
d="M605 25q-5 -25 -43 -25h-34q-31 0 -39 11.5t-12 52.5l-11 107h-242l-69 -131q-8 -14 -13 -21t-18.5 -13t-34.5 -6h-16q-10 0 -16.5 1t-12.5 7t-4 17l8 16l324 616q20 37 65 37h57q14 0 21.5 -1t16.5 -10t10 -27l62 -617zM459 246l-16 185q-12 107 -9 157h-1
q-11 -33 -71 -149l-99 -193h196zM528 768q3 15 -3 22.5t-14 9t-23 1.5q-47 0 -54 -33q-3 -15 3 -22.5t14 -9t23 -1.5q47 0 54 33zM587 768q-16 -74 -123 -74q-12 0 -23.5 1.5t-31.5 7.5t-30 22.5t-4 42.5q16 74 123 74q12 0 23.5 -1.5t31.5 -7.5t30 -22.5t4 -42.5z" />
    <glyph glyph-name="AE" unicode="&#xc6;" horiz-adv-x="819" 
d="M787 44q-5 -26 -16 -35t-37 -9h-290q-27 0 -34 9.5t-1 35.5l33 158h-188l-96 -165q-15 -25 -30 -31.5t-37 -6.5h-17q-11 0 -17 1t-11.5 6.5t-3.5 16.5q1 4 9 18l358 613q11 18 24.5 27t21.5 10.5t23 1.5h391q28 0 34.5 -12t-0.5 -33q-6 -30 -18.5 -37.5t-39.5 -7.5
l-174 3h-22l-44 -207h175q11 0 16 -0.5t13 -4.5t7.5 -12.5t-1.5 -23.5q-4 -19 -13.5 -28t-17 -10.5t-21.5 -1.5h-175l-48 -226h44l167 3q26 0 35 -8t3 -36zM458 278l70 330h-37l-193 -330h160z" />
    <glyph glyph-name="Ccedilla" unicode="&#xc7;" horiz-adv-x="607" 
d="M570 51q-2 -6 -5.5 -9.5t-21.5 -14.5q-48 -27 -84.5 -36.5t-89.5 -9.5q-150 0 -216 93q-66 92 -26 273q34 165 128 259q106 107 268 107q77 0 146 -28q15 -7 18 -10t2 -10q-1 -3 -28 -74q-6 -14 -15 -14q-5 0 -13 7q-53 43 -128 43q-47 0 -86.5 -16.5t-66 -46
t-45.5 -58.5t-31.5 -65.5t-17.5 -54.5t-9 -39q-8 -36 -11.5 -68.5t0 -73t18 -69.5t48.5 -49t85 -20t84.5 10.5t75.5 36.5q14 9 19 9q3 0 5 -1.5t2.5 -3t1 -4t0.5 -3.5q-1 -3 -4 -30t-3 -30zM369 -51q-2 -7 -7 -14l-68 -104q-7 -11 -11.5 -13t-20.5 -2h-36h-10.5t-7.5 1
t-5 3.5t0 6.5t9 14l91 106q8 9 12 11t18 2h13h10.5t7.5 -1t5 -3.5t0 -6.5z" />
    <glyph glyph-name="Egrave" unicode="&#xc8;" horiz-adv-x="567" 
d="M535 44q-5 -26 -16 -35t-37 -9h-356q-27 0 -34 9.5t-1 35.5l127 601q6 27 17.5 36t37.5 9h343q28 0 34.5 -12t-0.5 -33q-4 -22 -13 -32t-18 -11.5t-30 -1.5l-212 3h-46l-43 -205h240q11 0 16 -0.5t13 -4.5t7.5 -12.5t-1.5 -23.5q-4 -19 -13.5 -28t-17 -10.5t-21.5 -1.5
h-240l-48 -226q18 2 132 2l141 2q12 0 17 -0.5t13.5 -2.5t9 -6.5t3.5 -13t-2 -21.5zM533 771q5 -6 1.5 -12t-12.5 -6h-67l-166 99q-4 3 -4.5 8t4 9.5t13.5 4.5h127z" />
    <glyph glyph-name="Eacute" unicode="&#xc9;" horiz-adv-x="567" 
d="M535 44q-5 -26 -16 -35t-37 -9h-356q-27 0 -34 9.5t-1 35.5l127 601q6 27 17.5 36t37.5 9h343q28 0 34.5 -12t-0.5 -33q-4 -22 -13 -32t-18 -11.5t-30 -1.5l-212 3h-46l-43 -205h240q11 0 16 -0.5t13 -4.5t7.5 -12.5t-1.5 -23.5q-4 -19 -13.5 -28t-17 -10.5t-21.5 -1.5
h-240l-48 -226q18 2 132 2l141 2q12 0 17 -0.5t13.5 -2.5t9 -6.5t3.5 -13t-2 -21.5zM640 852l-208 -99h-67q-6 0 -8.5 3t-1 7t6.5 8l148 103h127q9 0 11.5 -4.5t-0.5 -9.5t-8 -8z" />
    <glyph glyph-name="Ecircumflex" unicode="&#xca;" horiz-adv-x="567" 
d="M535 44q-5 -26 -16 -35t-37 -9h-356q-27 0 -34 9.5t-1 35.5l127 601q6 27 17.5 36t37.5 9h343q28 0 34.5 -12t-0.5 -33q-4 -22 -13 -32t-18 -11.5t-30 -1.5l-212 3h-46l-43 -205h240q11 0 16 -0.5t13 -4.5t7.5 -12.5t-1.5 -23.5q-4 -19 -13.5 -28t-17 -10.5t-21.5 -1.5
h-240l-48 -226q18 2 132 2l141 2q12 0 17 -0.5t13.5 -2.5t9 -6.5t3.5 -13t-2 -21.5zM618 765q5 -5 0.5 -13.5t-12.5 -8.5h-47l-5 1l-95 81l-129 -81l-5 -1h-47q-8 0 -9.5 7.5t5.5 12.5l132 104q4 3 9 3h111q6 0 7 -3z" />
    <glyph glyph-name="Edieresis" unicode="&#xcb;" horiz-adv-x="567" 
d="M535 44q-5 -26 -16 -35t-37 -9h-356q-27 0 -34 9.5t-1 35.5l127 601q6 27 17.5 36t37.5 9h343q28 0 34.5 -12t-0.5 -33q-4 -22 -13 -32t-18 -11.5t-30 -1.5l-212 3h-46l-43 -205h240q11 0 16 -0.5t13 -4.5t7.5 -12.5t-1.5 -23.5q-4 -19 -13.5 -28t-17 -10.5t-21.5 -1.5
h-240l-48 -226q18 2 132 2l141 2q12 0 17 -0.5t13.5 -2.5t9 -6.5t3.5 -13t-2 -21.5zM386 785q-5 -25 -15.5 -33.5t-34.5 -8.5h-30q-24 0 -30 9t-1 33l4 22q6 26 16 34t33 8h30q24 0 31 -8.5t1 -33.5zM627 785q-5 -25 -15.5 -33.5t-34.5 -8.5h-30q-24 0 -30 9t-1 33l4 22
q6 26 16 34t33 8h30q24 0 31 -8.5t1 -33.5z" />
    <glyph glyph-name="Igrave" unicode="&#xcc;" horiz-adv-x="283" 
d="M211 44q-5 -26 -16 -35t-37 -9h-33q-27 0 -34 9.5t-1 35.5l128 604q6 27 17.5 36t37.5 9h33q27 0 33.5 -9.5t0.5 -34.5zM361 771q5 -6 1.5 -12t-12.5 -6h-67l-166 99q-4 3 -4.5 8t4 9.5t13.5 4.5h127z" />
    <glyph glyph-name="Iacute" unicode="&#xcd;" horiz-adv-x="283" 
d="M211 44q-5 -26 -16 -35t-37 -9h-33q-27 0 -34 9.5t-1 35.5l128 604q6 27 17.5 36t37.5 9h33q27 0 33.5 -9.5t0.5 -34.5zM527 852l-208 -99h-67q-6 0 -8.5 3t-1 7t6.5 8l148 103h127q9 0 11.5 -4.5t-0.5 -9.5t-8 -8z" />
    <glyph glyph-name="Icircumflex" unicode="&#xce;" horiz-adv-x="283" 
d="M211 44q-5 -26 -16 -35t-37 -9h-33q-27 0 -34 9.5t-1 35.5l128 604q6 27 17.5 36t37.5 9h33q27 0 33.5 -9.5t0.5 -34.5zM476 765q5 -5 0.5 -13.5t-12.5 -8.5h-47l-5 1l-95 81l-129 -81l-5 -1h-47q-8 0 -9.5 7.5t5.5 12.5l132 104q4 3 9 3h111q6 0 7 -3z" />
    <glyph glyph-name="Idieresis" unicode="&#xcf;" horiz-adv-x="283" 
d="M211 44q-5 -26 -16 -35t-37 -9h-33q-27 0 -34 9.5t-1 35.5l128 604q6 27 17.5 36t37.5 9h33q27 0 33.5 -9.5t0.5 -34.5zM244 785q-5 -25 -15.5 -33.5t-34.5 -8.5h-30q-24 0 -30 9t-1 33l4 22q6 26 16 34t33 8h30q24 0 31 -8.5t1 -33.5zM485 785q-5 -25 -15.5 -33.5
t-34.5 -8.5h-30q-24 0 -30 9t-1 33l4 22q6 26 16 34t33 8h30q24 0 31 -8.5t1 -33.5z" />
    <glyph glyph-name="Eth" unicode="&#xd0;" horiz-adv-x="688" 
d="M706 342q-36 -168 -134 -257q-92 -85 -227 -85h-219q-27 0 -34 9.5t-1 35.5l55 259h-24q-13 0 -20.5 9.5t-5.5 22.5l5 22q3 14 14.5 23t24.5 9h24l55 259q6 27 17.5 36t37.5 9h218q68 0 122 -27t80 -80q44 -93 12 -245zM587 342q5 26 8 41.5t6 48t0.5 54t-11.5 49
t-26.5 44t-48 28.5t-72.5 12h-111l-49 -229h56q13 0 20.5 -9.5t4.5 -22.5l-5 -22q-2 -13 -13.5 -22.5t-24.5 -9.5h-56l-49 -229h112q42 0 77.5 11t59.5 27t44.5 42.5t32 47.5t22 52t14.5 46.5t9 40.5z" />
    <glyph glyph-name="Ntilde" unicode="&#xd1;" horiz-adv-x="678" 
d="M605 44q-5 -26 -16 -35t-37 -9h-73q-27 0 -38.5 8t-15.5 32l-96 442q-15 73 -18 106h-1l-116 -544q-5 -26 -16 -35t-37 -9h-15q-27 0 -34 9.5t-1 35.5l128 604q6 27 17.5 36t37.5 9h72q27 0 38 -8t16 -32l95 -442q17 -83 19 -106h1l115 544q5 26 16.5 35t37.5 9h16
q27 0 33.5 -9.5t0.5 -34.5zM677 845q-7 -35 -40 -68.5t-76 -33.5q-39 0 -73 32q-25 23 -41 23q-26 0 -40 -40q-4 -11 -8 -13t-20 -2h-13q-16 0 -20.5 2.5t-2.5 14.5q8 35 41 68.5t76 33.5q39 0 73 -32q25 -23 40 -23q27 0 41 40q4 11 8 13t20 2h14q16 0 20 -2.5t1 -14.5z
" />
    <glyph glyph-name="Ograve" unicode="&#xd2;" horiz-adv-x="697" 
d="M716 342q-38 -177 -137 -270q-96 -91 -235 -91q-67 0 -118 23.5t-77 63.5q-62 96 -23 274q35 164 121 261q47 53 114 81.5t139 28.5q159 0 211 -125q37 -91 5 -246zM597 358q28 134 8 198q-8 27 -23.5 45.5t-34 27t-33 11.5t-29.5 3q-91 0 -154 -82q-48 -61 -80 -203
q-28 -130 -13 -201q13 -59 48 -81.5t73 -22.5q98 0 165 103q46 73 73 202zM598 771q5 -6 1.5 -12t-12.5 -6h-67l-166 99q-4 3 -4.5 8t4 9.5t13.5 4.5h127z" />
    <glyph glyph-name="Oacute" unicode="&#xd3;" horiz-adv-x="697" 
d="M716 342q-38 -177 -137 -270q-96 -91 -235 -91q-67 0 -118 23.5t-77 63.5q-62 96 -23 274q35 164 121 261q47 53 114 81.5t139 28.5q159 0 211 -125q37 -91 5 -246zM597 358q28 134 8 198q-8 27 -23.5 45.5t-34 27t-33 11.5t-29.5 3q-91 0 -154 -82q-48 -61 -80 -203
q-28 -130 -13 -201q13 -59 48 -81.5t73 -22.5q98 0 165 103q46 73 73 202zM705 852l-208 -99h-67q-6 0 -8.5 3t-1 7t6.5 8l148 103h127q9 0 11.5 -4.5t-0.5 -9.5t-8 -8z" />
    <glyph glyph-name="Ocircumflex" unicode="&#xd4;" horiz-adv-x="697" 
d="M716 342q-38 -177 -137 -270q-96 -91 -235 -91q-67 0 -118 23.5t-77 63.5q-62 96 -23 274q35 164 121 261q47 53 114 81.5t139 28.5q159 0 211 -125q37 -91 5 -246zM597 358q28 134 8 198q-8 27 -23.5 45.5t-34 27t-33 11.5t-29.5 3q-91 0 -154 -82q-48 -61 -80 -203
q-28 -130 -13 -201q13 -59 48 -81.5t73 -22.5q98 0 165 103q46 73 73 202zM683 765q5 -5 0.5 -13.5t-12.5 -8.5h-47l-5 1l-95 81l-129 -81l-5 -1h-47q-8 0 -9.5 7.5t5.5 12.5l132 104q5 3 9 3h111q5 0 7 -3z" />
    <glyph glyph-name="Otilde" unicode="&#xd5;" horiz-adv-x="697" 
d="M716 342q-38 -177 -137 -270q-96 -91 -235 -91q-67 0 -118 23.5t-77 63.5q-62 96 -23 274q35 164 121 261q47 53 114 81.5t139 28.5q159 0 211 -125q37 -91 5 -246zM597 358q28 134 8 198q-8 27 -23.5 45.5t-34 27t-33 11.5t-29.5 3q-91 0 -154 -82q-48 -61 -80 -203
q-28 -130 -13 -201q13 -59 48 -81.5t73 -22.5q98 0 165 103q46 73 73 202zM686 845q-7 -35 -40 -68.5t-76 -33.5q-39 0 -73 32q-25 23 -41 23q-26 0 -40 -40q-4 -11 -8 -13t-20 -2h-13q-17 0 -21 2.5t-2 14.5q8 35 41 68.5t76 33.5q39 0 73 -32q25 -23 40 -23q27 0 41 40
q4 11 8 13t20 2h14q16 0 20 -2.5t1 -14.5z" />
    <glyph glyph-name="Odieresis" unicode="&#xd6;" horiz-adv-x="697" 
d="M716 342q-38 -177 -137 -270q-96 -91 -235 -91q-67 0 -118 23.5t-77 63.5q-62 96 -23 274q35 164 121 261q47 53 114 81.5t139 28.5q159 0 211 -125q37 -91 5 -246zM597 358q28 134 8 198q-8 27 -23.5 45.5t-34 27t-33 11.5t-29.5 3q-91 0 -154 -82q-48 -61 -80 -203
q-28 -130 -13 -201q13 -59 48 -81.5t73 -22.5q98 0 165 103q46 73 73 202zM451 785q-5 -25 -15.5 -33.5t-34.5 -8.5h-30q-24 0 -30 9t-1 33l4 22q6 26 16 34t33 8h30q24 0 31 -8.5t1 -33.5zM692 785q-5 -25 -15.5 -33.5t-34.5 -8.5h-30q-24 0 -30 9t-1 33l4 22q6 26 16 34
t33 8h30q24 0 31 -8.5t1 -33.5z" />
    <glyph glyph-name="multiply" unicode="&#xd7;" horiz-adv-x="739" 
d="M602 40q-6 -5 -11.5 -7.5t-9.5 -3t-8.5 0t-7.5 2t-6.5 4t-5.5 4t-5 4.5l-3 4l-130 167l-201 -166q-41 -33 -59 -8q-19 23 20 58l201 165l-132 166l-2 3q-2 3 -2.5 4t-2.5 4.5t-2.5 5.5l-1.5 6t-1 6.5t1 6.5t3 7.5t5 7t8 7.5q28 24 56 -8l131 -167l200 166q43 31 60 8
q18 -23 -21 -58l-201 -165l132 -166l2 -3q2 -3 2.5 -4t2.5 -4.5t2.5 -5.5l1.5 -6t1 -6.5t-1 -6.5t-2.5 -7.5t-5 -7z" />
    <glyph glyph-name="Oslash" unicode="&#xd8;" horiz-adv-x="739" 
d="M758 342q-37 -172 -139 -267q-101 -94 -254 -94q-73 0 -128 24l-34 -47q-15 -21 -22.5 -27t-21.5 -6q-12 0 -22.5 9t-7.5 25q2 10 26 43q14 16 27 37q-102 88 -56 303q37 177 144 277q99 94 251 94q70 0 127 -25l43 58q15 23 35 23q12 0 22.5 -9t7.5 -25q-1 -9 -11 -21
l-43 -61q103 -89 56 -311zM602 624q-39 25 -95 25q-42 0 -78.5 -13.5t-61.5 -32.5t-47 -49.5t-34.5 -55.5t-23.5 -59.5t-15.5 -52t-9.5 -43.5q-33 -155 2 -225zM647 343q34 161 -2 231l-361 -504q40 -25 95 -25q42 0 78.5 13t61 31t46.5 48.5t33.5 53t23 58t15.5 51t10 43.5
z" />
    <glyph glyph-name="Ugrave" unicode="&#xd9;" horiz-adv-x="657" 
d="M623 228q-23 -109 -99.5 -178t-197.5 -69t-170.5 68.5t-26.5 178.5l90 421q6 27 17.5 36t37.5 9h33q27 0 33.5 -9.5t0.5 -34.5l-90 -423q-36 -171 92 -171q135 0 169 172l90 422q5 26 16.5 35t37.5 9h23q27 0 33.5 -9.5t0.5 -34.5zM578 771q5 -6 1.5 -12t-12.5 -6h-67
l-166 99q-4 3 -4.5 8t4 9.5t13.5 4.5h127z" />
    <glyph glyph-name="Uacute" unicode="&#xda;" horiz-adv-x="657" 
d="M623 228q-23 -109 -99.5 -178t-197.5 -69t-170.5 68.5t-26.5 178.5l90 421q6 27 17.5 36t37.5 9h33q27 0 33.5 -9.5t0.5 -34.5l-90 -423q-36 -171 92 -171q135 0 169 172l90 422q5 26 16.5 35t37.5 9h23q27 0 33.5 -9.5t0.5 -34.5zM685 852l-208 -99h-67q-6 0 -8.5 3
t-1 7t6.5 8l148 103h127q9 0 11.5 -4.5t-0.5 -9.5t-8 -8z" />
    <glyph glyph-name="Ucircumflex" unicode="&#xdb;" horiz-adv-x="657" 
d="M623 228q-23 -109 -99.5 -178t-197.5 -69t-170.5 68.5t-26.5 178.5l90 421q6 27 17.5 36t37.5 9h33q27 0 33.5 -9.5t0.5 -34.5l-90 -423q-36 -171 92 -171q135 0 169 172l90 422q5 26 16.5 35t37.5 9h23q27 0 33.5 -9.5t0.5 -34.5zM663 765q5 -5 0.5 -13.5t-12.5 -8.5
h-47l-5 1l-95 81l-129 -81l-5 -1h-47q-8 0 -9.5 7.5t5.5 12.5l132 104q5 3 9 3h111q5 0 7 -3z" />
    <glyph glyph-name="Udieresis" unicode="&#xdc;" horiz-adv-x="657" 
d="M623 228q-23 -109 -99.5 -178t-197.5 -69t-170.5 68.5t-26.5 178.5l90 421q6 27 17.5 36t37.5 9h33q27 0 33.5 -9.5t0.5 -34.5l-90 -423q-36 -171 92 -171q135 0 169 172l90 422q5 26 16.5 35t37.5 9h23q27 0 33.5 -9.5t0.5 -34.5zM431 785q-5 -25 -15.5 -33.5
t-34.5 -8.5h-30q-24 0 -30 9t-1 33l4 22q6 26 16 34t33 8h30q24 0 31 -8.5t1 -33.5zM672 785q-5 -25 -15.5 -33.5t-34.5 -8.5h-30q-24 0 -30 9t-1 33l4 22q6 26 16 34t33 8h30q24 0 31 -8.5t1 -33.5z" />
    <glyph glyph-name="Yacute" unicode="&#xdd;" horiz-adv-x="636" 
d="M759 673q-1 -3 -13 -20l-310 -376l-50 -234q-6 -27 -17.5 -35t-35.5 -8h-31q-26 0 -33 9t-2 35l50 234l-152 379q-5 7 -3 16q5 21 40 21h41q48 0 62 -36l73 -189q24 -66 29 -89q10 20 67.5 92t108.5 133.5t55 65.5q25 23 66 23h25q11 0 16.5 -0.5t10.5 -5.5t3 -15z
M675 852l-208 -99h-67q-6 0 -8.5 3t-1 7t6.5 8l148 103h127q9 0 11.5 -4.5t-0.5 -9.5t-8 -8z" />
    <glyph glyph-name="Thorn" unicode="&#xde;" horiz-adv-x="556" 
d="M583 382q-43 -202 -252 -202h-97l-28 -134q-6 -29 -17.5 -37.5t-38.5 -8.5h-23q-28 0 -35.5 9t-1.5 38l128 600q6 28 17 37.5t40 9.5h23q27 0 34.5 -9t1.5 -37l-14 -64h113q88 0 130 -50.5t20 -151.5zM469 381q28 128 -97 128h-68l-54 -254h69q123 0 150 126z" />
    <glyph glyph-name="germandbls" unicode="&#xdf;" horiz-adv-x="468" 
d="M482 192q-4 -19 -8.5 -34t-21 -49.5t-37.5 -57.5t-60 -42t-87 -19q-26 0 -50 8.5t-22 19.5q1 4 14 29q8 14 12 18t10 4q2 -1 5 -3q24 -12 41 -12q22 0 39.5 13.5t28.5 40t15.5 42.5t10.5 42q44 205 -49 216q-14 2 -16 5.5t2 20.5l3 12q4 18 6.5 21.5t15.5 4.5
q33 4 56 23.5t35 73.5q3 20 3 35.5t-14.5 25.5t-43.5 10q-24 0 -40.5 -6t-25 -19t-12.5 -23t-8 -27l-111 -521q-5 -26 -16 -35t-37 -9h-19q-27 0 -34 9.5t-1 35.5l111 522q9 41 31.5 70t54 42.5t61 19t61.5 5.5t59.5 -6t53 -19.5t36 -41.5t1.5 -67q-20 -93 -96 -133
q81 -66 43 -245z" />
    <glyph glyph-name="agrave" unicode="&#xe0;" horiz-adv-x="453" 
d="M417 44q-5 -26 -16 -35t-37 -9h-20q-27 0 -33.5 9.5t-1.5 34.5l6 25q-22 -29 -62 -54t-88 -25q-57 0 -85 43t-16 99q8 35 28.5 62.5t50.5 44t57.5 27.5t62.5 16t50 6.5t35 2.5q8 1 10 3.5t5 15.5l4 20q5 23 5.5 41t-3.5 28t-8.5 16.5t-13.5 9t-13.5 3t-12.5 0.5
q-73 0 -136 -50q-13 -10 -18 -10q-7 0 -8.5 6t1.5 23q1 8 5 36q1 8 6 11t23 12q70 31 144 31q88 0 122 -41.5t18 -114.5zM330 155l21 101q-24 -1 -47 -6t-53 -17t-52 -37.5t-30 -61.5q-6 -33 7.5 -56.5t42.5 -23.5q10 0 22.5 3.5t31.5 12.5t34.5 31t22.5 54zM411 557
q-2 -11 -27 -11h-31l-109 122q-8 8 -7 15q3 11 27 11h61q14 0 17 -1.5t8 -9.5l57 -111z" />
    <glyph glyph-name="aacute" unicode="&#xe1;" horiz-adv-x="453" 
d="M417 44q-5 -26 -16 -35t-37 -9h-20q-27 0 -33.5 9.5t-1.5 34.5l6 25q-22 -29 -62 -54t-88 -25q-57 0 -85 43t-16 99q8 35 28.5 62.5t50.5 44t57.5 27.5t62.5 16t50 6.5t35 2.5q8 1 10 3.5t5 15.5l4 20q5 23 5.5 41t-3.5 28t-8.5 16.5t-13.5 9t-13.5 3t-12.5 0.5
q-73 0 -136 -50q-13 -10 -18 -10q-7 0 -8.5 6t1.5 23q1 8 5 36q1 8 6 11t23 12q70 31 144 31q88 0 122 -41.5t18 -114.5zM330 155l21 101q-24 -1 -47 -6t-53 -17t-52 -37.5t-30 -61.5q-6 -33 7.5 -56.5t42.5 -23.5q10 0 22.5 3.5t31.5 12.5t34.5 31t22.5 54zM506 683
q-1 -6 -13 -15l-161 -122h-31h-10.5t-7.5 1t-5 3.5t0 6.5t12 15l103 111q11 11 31 11h61q14 0 18.5 -1.5t2.5 -9.5z" />
    <glyph glyph-name="acircumflex" unicode="&#xe2;" horiz-adv-x="453" 
d="M417 44q-5 -26 -16 -35t-37 -9h-20q-27 0 -33.5 9.5t-1.5 34.5l6 25q-22 -29 -62 -54t-88 -25q-57 0 -85 43t-16 99q8 35 28.5 62.5t50.5 44t57.5 27.5t62.5 16t50 6.5t35 2.5q8 1 10 3.5t5 15.5l4 20q5 23 5.5 41t-3.5 28t-8.5 16.5t-13.5 9t-13.5 3t-12.5 0.5
q-73 0 -136 -50q-13 -10 -18 -10q-7 0 -8.5 6t1.5 23q1 8 5 36q1 8 6 11t23 12q70 31 144 31q88 0 122 -41.5t18 -114.5zM330 155l21 101q-24 -1 -47 -6t-53 -17t-52 -37.5t-30 -61.5q-6 -33 7.5 -56.5t42.5 -23.5q10 0 22.5 3.5t31.5 12.5t34.5 31t22.5 54zM507 560
q2 -6 -2.5 -13.5t-11.5 -7.5h-47q-4 1 -6 2l-77 101l-119 -101l-6 -2h-47q-7 0 -9 6.5t3 12.5l127 139q4 4 10 4h111q7 0 8 -4z" />
    <glyph glyph-name="atilde" unicode="&#xe3;" horiz-adv-x="453" 
d="M417 44q-5 -26 -16 -35t-37 -9h-20q-27 0 -33.5 9.5t-1.5 34.5l6 25q-22 -29 -62 -54t-88 -25q-57 0 -85 43t-16 99q8 35 28.5 62.5t50.5 44t57.5 27.5t62.5 16t50 6.5t35 2.5q8 1 10 3.5t5 15.5l4 20q5 23 5.5 41t-3.5 28t-8.5 16.5t-13.5 9t-13.5 3t-12.5 0.5
q-73 0 -136 -50q-13 -10 -18 -10q-7 0 -8.5 6t1.5 23q1 8 5 36q1 8 6 11t23 12q70 31 144 31q88 0 122 -41.5t18 -114.5zM330 155l21 101q-24 -1 -47 -6t-53 -17t-52 -37.5t-30 -61.5q-6 -33 7.5 -56.5t42.5 -23.5q10 0 22.5 3.5t31.5 12.5t34.5 31t22.5 54zM526 663
q-8 -35 -41 -68.5t-76 -33.5q-39 0 -73 32q-25 23 -40 23q-27 0 -41 -40q-4 -11 -8 -13t-20 -2h-13q-16 0 -20.5 2.5t-1.5 14.5q7 35 40.5 68.5t76.5 33.5q39 0 73 -32q25 -23 40 -23q26 0 40 40q4 11 8.5 13t20.5 2h14q16 0 20 -2.5t1 -14.5z" />
    <glyph glyph-name="adieresis" unicode="&#xe4;" horiz-adv-x="453" 
d="M417 44q-5 -26 -16 -35t-37 -9h-20q-27 0 -33.5 9.5t-1.5 34.5l6 25q-22 -29 -62 -54t-88 -25q-57 0 -85 43t-16 99q8 35 28.5 62.5t50.5 44t57.5 27.5t62.5 16t50 6.5t35 2.5q8 1 10 3.5t5 15.5l4 20q5 23 5.5 41t-3.5 28t-8.5 16.5t-13.5 9t-13.5 3t-12.5 0.5
q-73 0 -136 -50q-13 -10 -18 -10q-7 0 -8.5 6t1.5 23q1 8 5 36q1 8 6 11t23 12q70 31 144 31q88 0 122 -41.5t18 -114.5zM330 155l21 101q-24 -1 -47 -6t-53 -17t-52 -37.5t-30 -61.5q-6 -33 7.5 -56.5t42.5 -23.5q10 0 22.5 3.5t31.5 12.5t34.5 31t22.5 54zM310 609
q-5 -25 -15 -33.5t-34 -8.5h-30q-24 0 -30.5 9t-1.5 33l5 22q6 26 16 34t33 8h30q24 0 30.5 -8.5t1.5 -33.5zM513 609q-5 -25 -15 -33.5t-34 -8.5h-30q-24 0 -30.5 9t-1.5 33l5 22q6 26 16 34t33 8h30q24 0 30.5 -8.5t1.5 -33.5z" />
    <glyph glyph-name="aring" unicode="&#xe5;" horiz-adv-x="453" 
d="M417 44q-5 -26 -16 -35t-37 -9h-20q-27 0 -33.5 9.5t-1.5 34.5l6 25q-22 -29 -62 -54t-88 -25q-57 0 -85 43t-16 99q8 35 28.5 62.5t50.5 44t57.5 27.5t62.5 16t50 6.5t35 2.5q8 1 10 3.5t5 15.5l4 20q5 23 5.5 41t-3.5 28t-8.5 16.5t-13.5 9t-13.5 3t-12.5 0.5
q-73 0 -136 -50q-13 -10 -18 -10q-7 0 -8.5 6t1.5 23q1 8 5 36q1 8 6 11t23 12q70 31 144 31q88 0 122 -41.5t18 -114.5zM330 155l21 101q-24 -1 -47 -6t-53 -17t-52 -37.5t-30 -61.5q-6 -33 7.5 -56.5t42.5 -23.5q10 0 22.5 3.5t31.5 12.5t34.5 31t22.5 54zM402 609
q3 15 -3 22.5t-14 9t-23 1.5q-47 0 -54 -33q-3 -15 3 -22.5t14 -9t23 -1.5q48 0 54 33zM461 609q-15 -74 -122 -74q-9 0 -17 0.5t-25 4.5t-27.5 11t-17.5 22t-3 36q16 74 123 74q12 0 23.5 -1.5t31.5 -7.5t30 -22.5t4 -42.5z" />
    <glyph glyph-name="ae" unicode="&#xe6;" horiz-adv-x="686" 
d="M718 276q-5 -25 -16.5 -34.5t-37.5 -9.5h-217q-33 -178 71 -178q71 0 132 63q8 8 14 8q7 0 8 -5t-1 -19q0 -20 -4 -36q-4 -18 -55.5 -46.5t-110.5 -28.5q-94 0 -145 64q-35 -30 -91 -47t-111 -17q-62 0 -86.5 42.5t-14.5 90.5q29 133 291 143l13 65q5 23 6 40.5t-3 27.5
t-8.5 16.5t-13 9t-13.5 3t-13 0.5q-74 0 -137 -50q-13 -10 -18 -10q-7 0 -8.5 6t1.5 23q1 8 5 36q1 5 2.5 7t8 6.5t20.5 10.5q72 30 143 30q89 0 125 -46q61 46 141 46q88 0 118 -64q24 -54 5 -147zM629 279q4 21 6 34.5t2.5 36.5t-4.5 37t-17.5 25t-33.5 11
q-42 0 -75 -41.5t-49 -102.5h171zM330 137q-2 19 -1 37t3 31l1 13q-18 -1 -36.5 -3.5t-51.5 -11t-56.5 -29t-29.5 -49.5q-6 -28 7.5 -49.5t43.5 -21.5q35 0 70.5 21.5t49.5 61.5z" />
    <glyph glyph-name="ccedilla" unicode="&#xe7;" horiz-adv-x="422" 
d="M408 62q-2 -9 -19.5 -22t-34.5 -21l-17 -8q-49 -21 -101 -21q-100 0 -140 64q-37 62 -14 183q26 120 93.5 185t170.5 65q45 0 69 -8t53 -27q8 -5 9 -6t4 -5t0 -7q0 -1 -3 -9t-7.5 -17.5t-4.5 -10.5q-7 -18 -10.5 -23t-9.5 -5q-5 0 -12 9q-22 21 -43 30t-59 9
q-34 0 -59 -16.5t-40.5 -47t-23.5 -55.5t-15 -60q-5 -24 -7.5 -39.5t-4 -44.5t4 -47t22 -32.5t44.5 -14.5q68 0 138 57q9 9 15 9q7 0 8.5 -5.5t-1.5 -22.5q-4 -33 -5 -36zM278 -51q-2 -7 -7 -14l-68 -104q-7 -11 -11.5 -13t-20.5 -2h-36h-10.5t-7.5 1t-5 3.5t0 6.5t9 14
l91 106q8 9 12 11t18 2h13h10.5t7.5 -1t5 -3.5t0 -6.5z" />
    <glyph glyph-name="egrave" unicode="&#xe8;" horiz-adv-x="438" 
d="M469 275q-5 -26 -16.5 -34.5t-36.5 -8.5h-238q-36 -178 80 -178q78 0 143 62q9 9 15 9q7 0 8 -5t-1 -19q0 -20 -4 -36q-5 -22 -74 -53q-53 -22 -104 -22q-40 0 -73 11.5t-61.5 40t-35.5 76.5t6 121q15 70 45 121.5t67.5 77.5t73.5 37.5t72 11.5q87 0 121.5 -54.5
t12.5 -157.5zM384 279q3 18 4.5 29t3 30.5t-2.5 32t-10.5 26t-21 20t-35.5 6.5q-48 0 -82 -41.5t-51 -102.5h195zM404 557q-2 -11 -27 -11h-31l-109 122q-8 8 -7 15q3 11 27 11h61q14 0 17 -1.5t8 -9.5l57 -111z" />
    <glyph glyph-name="eacute" unicode="&#xe9;" horiz-adv-x="438" 
d="M469 275q-5 -26 -16.5 -34.5t-36.5 -8.5h-238q-36 -178 80 -178q78 0 143 62q9 9 15 9q7 0 8 -5t-1 -19q0 -20 -4 -36q-5 -22 -74 -53q-53 -22 -104 -22q-40 0 -73 11.5t-61.5 40t-35.5 76.5t6 121q15 70 45 121.5t67.5 77.5t73.5 37.5t72 11.5q87 0 121.5 -54.5
t12.5 -157.5zM384 279q3 18 4.5 29t3 30.5t-2.5 32t-10.5 26t-21 20t-35.5 6.5q-48 0 -82 -41.5t-51 -102.5h195zM499 683q-1 -6 -13 -15l-161 -122h-31h-10.5t-7.5 1t-5 3.5t0 6.5t12 15l103 111q11 11 31 11h61q14 0 18.5 -1.5t2.5 -9.5z" />
    <glyph glyph-name="ecircumflex" unicode="&#xea;" horiz-adv-x="438" 
d="M469 275q-5 -26 -16.5 -34.5t-36.5 -8.5h-238q-36 -178 80 -178q78 0 143 62q9 9 15 9q7 0 8 -5t-1 -19q0 -20 -4 -36q-5 -22 -74 -53q-53 -22 -104 -22q-40 0 -73 11.5t-61.5 40t-35.5 76.5t6 121q15 70 45 121.5t67.5 77.5t73.5 37.5t72 11.5q87 0 121.5 -54.5
t12.5 -157.5zM384 279q3 18 4.5 29t3 30.5t-2.5 32t-10.5 26t-21 20t-35.5 6.5q-48 0 -82 -41.5t-51 -102.5h195zM500 560q2 -6 -2.5 -13.5t-11.5 -7.5h-47q-4 1 -6 2l-77 101l-119 -101l-6 -2h-47q-7 0 -9 6.5t3 12.5l127 139q4 4 10 4h111q7 0 8 -4z" />
    <glyph glyph-name="edieresis" unicode="&#xeb;" horiz-adv-x="438" 
d="M469 275q-5 -26 -16.5 -34.5t-36.5 -8.5h-238q-36 -178 80 -178q78 0 143 62q9 9 15 9q7 0 8 -5t-1 -19q0 -20 -4 -36q-5 -22 -74 -53q-53 -22 -104 -22q-40 0 -73 11.5t-61.5 40t-35.5 76.5t6 121q15 70 45 121.5t67.5 77.5t73.5 37.5t72 11.5q87 0 121.5 -54.5
t12.5 -157.5zM384 279q3 18 4.5 29t3 30.5t-2.5 32t-10.5 26t-21 20t-35.5 6.5q-48 0 -82 -41.5t-51 -102.5h195zM303 609q-5 -25 -15 -33.5t-34 -8.5h-30q-24 0 -30.5 9t-1.5 33l5 22q6 26 16 34t33 8h30q24 0 30.5 -8.5t1.5 -33.5zM506 609q-5 -25 -15 -33.5t-34 -8.5h-30
q-24 0 -30.5 9t-1.5 33l5 22q6 26 16 34t33 8h30q24 0 30.5 -8.5t1.5 -33.5z" />
    <glyph glyph-name="igrave" unicode="&#xec;" horiz-adv-x="219" 
d="M172 44q-5 -26 -16 -35t-37 -9h-19q-27 0 -34 9.5t-1 35.5l81 382q5 27 16.5 36t37.5 9h19q27 0 34 -9.5t1 -34.5zM281 557q-2 -11 -27 -11h-31l-109 122q-8 8 -7 15q3 11 27 11h61q14 0 17 -1.5t8 -9.5l57 -111z" />
    <glyph glyph-name="iacute" unicode="&#xed;" horiz-adv-x="219" 
d="M172 44q-5 -26 -16 -35t-37 -9h-19q-27 0 -34 9.5t-1 35.5l81 382q5 27 16.5 36t37.5 9h19q27 0 34 -9.5t1 -34.5zM401 683q-1 -6 -13 -15l-161 -122h-31h-10.5t-7.5 1t-5 3.5t0 6.5t12 15l103 111q11 11 31 11h61q14 0 18.5 -1.5t2.5 -9.5z" />
    <glyph glyph-name="icircumflex" unicode="&#xee;" horiz-adv-x="219" 
d="M172 44q-5 -26 -16 -35t-37 -9h-19q-27 0 -34 9.5t-1 35.5l81 382q5 27 16.5 36t37.5 9h19q27 0 34 -9.5t1 -34.5zM390 560q2 -6 -2.5 -13.5t-11.5 -7.5h-47q-4 1 -6 2l-77 101l-119 -101l-6 -2h-47q-7 0 -9 6.5t3 12.5l127 139q4 4 10 4h111q7 0 8 -4z" />
    <glyph glyph-name="idieresis" unicode="&#xef;" horiz-adv-x="219" 
d="M172 44q-5 -26 -16 -35t-37 -9h-19q-27 0 -34 9.5t-1 35.5l81 382q5 27 16.5 36t37.5 9h19q27 0 34 -9.5t1 -34.5zM193 609q-5 -25 -15 -33.5t-34 -8.5h-30q-24 0 -30.5 9t-1.5 33l5 22q6 26 16 34t33 8h30q24 0 30.5 -8.5t1.5 -33.5zM396 609q-5 -25 -15 -33.5t-34 -8.5
h-30q-24 0 -30.5 9t-1.5 33l5 22q6 26 16 34t33 8h30q24 0 30.5 -8.5t1.5 -33.5z" />
    <glyph glyph-name="eth" unicode="&#xf0;" 
d="M498 237q-22 -108 -80 -170q-72 -77 -183 -77q-54 0 -90.5 18.5t-53.5 46.5q-40 65 -16 177q22 106 81 173q74 82 185 82q12 0 17 -1q-22 47 -60 85l-92 -38q-8 -3 -14 -3q-14 0 -21 10t-4 23q3 20 26 29l51 21l-27 15q-11 7 -10 13q1 4 22 20l23 17q22 16 28 16
q3 0 25 -10q39 -23 45 -28l84 34q8 3 14 3q14 0 21 -10.5t4 -22.5q-3 -20 -26 -29l-46 -19q69 -70 95 -168t2 -207zM387 234q15 69 9 128q-3 25 -17.5 40t-27 18t-24.5 3q-28 0 -51.5 -14t-37 -31.5t-24.5 -46t-15.5 -45.5t-9.5 -42q-6 -27 -8.5 -43.5t-4 -46.5t4.5 -48
t23.5 -32t45.5 -14q101 0 137 174z" />
    <glyph glyph-name="ntilde" unicode="&#xf1;" horiz-adv-x="483" 
d="M437 44q-5 -26 -16 -35t-37 -9h-23q-27 0 -33.5 9.5t-1.5 34.5l63 294q10 42 2 61t-39 19q-39 0 -76.5 -35.5t-50.5 -99.5l-51 -239q-5 -26 -16 -35t-37 -9h-22q-27 0 -34 9.5t-1 35.5l82 388q6 27 17.5 36t37.5 9h16q27 0 33.5 -9.5t0.5 -34.5l-11 -54h1q67 102 161 102
q72 0 92.5 -36.5t6.5 -103.5zM541 663q-8 -35 -41 -68.5t-76 -33.5q-39 0 -73 32q-25 23 -40 23q-27 0 -41 -40q-4 -11 -8 -13t-20 -2h-13q-17 0 -21 2.5t-1 14.5q7 35 40.5 68.5t76.5 33.5q39 0 73 -32q25 -23 40 -23q26 0 40 40q4 11 8.5 13t20.5 2h14q16 0 20 -2.5
t1 -14.5z" />
    <glyph glyph-name="ograve" unicode="&#xf2;" 
d="M497 232q-23 -117 -94 -180q-68 -62 -168 -62q-103 0 -145 64q-38 63 -15 178q24 114 90 183q69 72 176 72q103 0 144 -70q38 -65 12 -185zM389 244q5 23 7.5 36.5t5 38.5t-0.5 40t-10 31.5t-23.5 24.5t-40.5 8q-29 0 -51.5 -13t-36 -29.5t-25 -45.5t-15.5 -46t-10 -45
q-4 -21 -6.5 -32t-5 -33.5t-2 -36t4 -31t12 -27.5t23 -17t35.5 -7q29 0 52 13.5t36 31t24.5 47t16 47t10.5 45.5zM422 557q-2 -11 -27 -11h-31l-109 122q-8 8 -7 15q3 11 27 11h61q14 0 17 -1.5t8 -9.5l57 -111z" />
    <glyph glyph-name="oacute" unicode="&#xf3;" 
d="M497 232q-23 -117 -94 -180q-68 -62 -168 -62q-103 0 -145 64q-38 63 -15 178q24 114 90 183q69 72 176 72q103 0 144 -70q38 -65 12 -185zM389 244q5 23 7.5 36.5t5 38.5t-0.5 40t-10 31.5t-23.5 24.5t-40.5 8q-29 0 -51.5 -13t-36 -29.5t-25 -45.5t-15.5 -46t-10 -45
q-4 -21 -6.5 -32t-5 -33.5t-2 -36t4 -31t12 -27.5t23 -17t35.5 -7q29 0 52 13.5t36 31t24.5 47t16 47t10.5 45.5zM517 683q-1 -6 -13 -15l-161 -122h-31h-10.5t-7.5 1t-5 3.5t0 6.5t12 15l103 111q11 11 31 11h61q14 0 18.5 -1.5t2.5 -9.5z" />
    <glyph glyph-name="ocircumflex" unicode="&#xf4;" 
d="M497 232q-23 -117 -94 -180q-68 -62 -168 -62q-103 0 -145 64q-38 63 -15 178q24 114 90 183q69 72 176 72q103 0 144 -70q38 -65 12 -185zM389 244q5 23 7.5 36.5t5 38.5t-0.5 40t-10 31.5t-23.5 24.5t-40.5 8q-29 0 -51.5 -13t-36 -29.5t-25 -45.5t-15.5 -46t-10 -45
q-4 -21 -6.5 -32t-5 -33.5t-2 -36t4 -31t12 -27.5t23 -17t35.5 -7q29 0 52 13.5t36 31t24.5 47t16 47t10.5 45.5zM518 560q2 -6 -2.5 -13.5t-11.5 -7.5h-47q-4 1 -6 2l-77 101l-119 -101l-6 -2h-47q-7 0 -9 6.5t3 12.5l127 139q4 4 10 4h111q7 0 8 -4z" />
    <glyph glyph-name="otilde" unicode="&#xf5;" 
d="M497 232q-23 -117 -94 -180q-68 -62 -168 -62q-103 0 -145 64q-38 63 -15 178q24 114 90 183q69 72 176 72q103 0 144 -70q38 -65 12 -185zM389 244q5 23 7.5 36.5t5 38.5t-0.5 40t-10 31.5t-23.5 24.5t-40.5 8q-29 0 -51.5 -13t-36 -29.5t-25 -45.5t-15.5 -46t-10 -45
q-4 -21 -6.5 -32t-5 -33.5t-2 -36t4 -31t12 -27.5t23 -17t35.5 -7q29 0 52 13.5t36 31t24.5 47t16 47t10.5 45.5zM537 663q-8 -35 -41 -68.5t-76 -33.5q-39 0 -73 32q-25 23 -40 23q-27 0 -41 -40q-4 -11 -8 -13t-20 -2h-13q-17 0 -21 2.5t-1 14.5q7 35 40.5 68.5t76.5 33.5
q39 0 73 -32q25 -23 40 -23q26 0 40 40q4 11 8.5 13t20.5 2h14q16 0 20 -2.5t1 -14.5z" />
    <glyph glyph-name="odieresis" unicode="&#xf6;" 
d="M497 232q-23 -117 -94 -180q-68 -62 -168 -62q-103 0 -145 64q-38 63 -15 178q24 114 90 183q69 72 176 72q103 0 144 -70q38 -65 12 -185zM389 244q5 23 7.5 36.5t5 38.5t-0.5 40t-10 31.5t-23.5 24.5t-40.5 8q-29 0 -51.5 -13t-36 -29.5t-25 -45.5t-15.5 -46t-10 -45
q-4 -21 -6.5 -32t-5 -33.5t-2 -36t4 -31t12 -27.5t23 -17t35.5 -7q29 0 52 13.5t36 31t24.5 47t16 47t10.5 45.5zM321 609q-5 -25 -15 -33.5t-34 -8.5h-30q-24 0 -30.5 9t-1.5 33l5 22q6 26 16 34t33 8h30q24 0 30.5 -8.5t1.5 -33.5zM524 609q-5 -25 -15 -33.5t-34 -8.5h-30
q-24 0 -30.5 9t-1.5 33l5 22q6 26 16 34t33 8h30q24 0 30.5 -8.5t1.5 -33.5z" />
    <glyph glyph-name="divide" unicode="&#xf7;" horiz-adv-x="739" 
d="M741 264q-7 -35 -52 -35h-542q-10 0 -17.5 1t-15.5 9.5t-5 24.5q8 35 59 35h530q12 0 20 -1t17.5 -9.5t5.5 -24.5zM510 412q-4 -19 -8.5 -22.5t-22.5 -3.5h-55q-19 0 -21.5 3.5t1.5 22.5l11 54q4 19 8.5 22.5t22.5 3.5h56q18 0 20.5 -3t-1.5 -23zM435 62q-4 -19 -8 -22.5
t-22 -3.5h-55q-19 0 -22 3.5t1 22.5l12 54q4 19 8 22.5t22 3.5h56q18 0 20.5 -3t-0.5 -23z" />
    <glyph glyph-name="oslash" unicode="&#xf8;" 
d="M497 232q-23 -117 -94 -180q-68 -62 -168 -62q-45 0 -79 13q-8 -12 -20.5 -30t-28.5 -39q-30 -41 -38 -46q-7 -3 -16 -3q-15 0 -22 10.5t-5 21.5q2 7 40 61q14 18 40 56q-58 62 -31 198q24 114 90 183q69 72 176 72q44 0 78 -15l67 92q15 24 36 24q15 0 22 -10.5t4 -21.5
q-2 -8 -12 -21l-67 -95q58 -68 28 -208zM375 410q-17 13 -48 13t-56.5 -15t-40 -33t-27 -50t-17 -48t-10.5 -45q-17 -80 -10 -114zM396 232q18 81 11 122l-206 -289q19 -11 47 -11q31 0 56 13.5t39.5 30.5t26.5 45t16.5 45.5t9.5 43.5z" />
    <glyph glyph-name="ugrave" unicode="&#xf9;" horiz-adv-x="483" 
d="M437 44q-5 -26 -16 -35t-37 -9h-20q-27 0 -33.5 9.5t-1.5 34.5l7 31q-56 -85 -138 -85q-75 0 -103.5 32t-13.5 107l64 298q5 27 16 36t38 9h22q27 0 34 -9.5t1 -34.5l-65 -306q-11 -45 -3 -62t46 -17q46 0 78 41.5t43 96.5l53 247q5 26 16 35t37 9h23q27 0 34 -9.5
t1 -34.5zM426 557q-2 -11 -27 -11h-31l-109 122q-8 8 -7 15q3 11 27 11h61q14 0 17 -1.5t8 -9.5l57 -111z" />
    <glyph glyph-name="uacute" unicode="&#xfa;" horiz-adv-x="483" 
d="M437 44q-5 -26 -16 -35t-37 -9h-20q-27 0 -33.5 9.5t-1.5 34.5l7 31q-56 -85 -138 -85q-75 0 -103.5 32t-13.5 107l64 298q5 27 16 36t38 9h22q27 0 34 -9.5t1 -34.5l-65 -306q-11 -45 -3 -62t46 -17q46 0 78 41.5t43 96.5l53 247q5 26 16 35t37 9h23q27 0 34 -9.5
t1 -34.5zM521 683q-1 -6 -13 -15l-161 -122h-31h-10.5t-7.5 1t-5 3.5t0 6.5t12 15l103 111q11 11 31 11h61q14 0 18.5 -1.5t2.5 -9.5z" />
    <glyph glyph-name="ucircumflex" unicode="&#xfb;" horiz-adv-x="483" 
d="M437 44q-5 -26 -16 -35t-37 -9h-20q-27 0 -33.5 9.5t-1.5 34.5l7 31q-56 -85 -138 -85q-75 0 -103.5 32t-13.5 107l64 298q5 27 16 36t38 9h22q27 0 34 -9.5t1 -34.5l-65 -306q-11 -45 -3 -62t46 -17q46 0 78 41.5t43 96.5l53 247q5 26 16 35t37 9h23q27 0 34 -9.5
t1 -34.5zM522 560q2 -6 -2.5 -13.5t-11.5 -7.5h-47q-4 1 -6 2l-77 101l-119 -101l-6 -2h-47q-7 0 -9 6.5t3 12.5l127 139q4 4 10 4h111q7 0 8 -4z" />
    <glyph glyph-name="udieresis" unicode="&#xfc;" horiz-adv-x="483" 
d="M437 44q-5 -26 -16 -35t-37 -9h-20q-27 0 -33.5 9.5t-1.5 34.5l7 31q-56 -85 -138 -85q-75 0 -103.5 32t-13.5 107l64 298q5 27 16 36t38 9h22q27 0 34 -9.5t1 -34.5l-65 -306q-11 -45 -3 -62t46 -17q46 0 78 41.5t43 96.5l53 247q5 26 16 35t37 9h23q27 0 34 -9.5
t1 -34.5zM325 609q-5 -25 -15 -33.5t-34 -8.5h-30q-24 0 -30.5 9t-1.5 33l5 22q6 26 16 34t33 8h30q24 0 30.5 -8.5t1.5 -33.5zM528 609q-5 -25 -15 -33.5t-34 -8.5h-30q-24 0 -30.5 9t-1.5 33l5 22q6 26 16 34t33 8h30q24 0 30.5 -8.5t1.5 -33.5z" />
    <glyph glyph-name="yacute" unicode="&#xfd;" horiz-adv-x="431" 
d="M503 447q-1 -4 -9 -19l-245 -479q-29 -55 -76.5 -90.5t-103.5 -35.5q-54 0 -64 10q-3 6 -0.5 30.5t4.5 33.5q3 14 15 14l6 -3q28 -14 55 -14q41 0 68 34q7 9 22.5 36.5t16.5 34.5q0 3 -1 15l-71 416l-1 18q5 24 42 24h12q33 0 41.5 -12t16.5 -61q35 -215 23 -281
q17 57 80 185l65 129q13 27 27 33.5t40 6.5q14 0 20.5 -1t12.5 -6.5t4 -17.5zM495 683q-1 -6 -13 -15l-161 -122h-31h-10.5t-7.5 1t-5 3.5t0 6.5t12 15l103 111q11 11 31 11h61q14 0 18.5 -1.5t2.5 -9.5z" />
    <glyph glyph-name="thorn" unicode="&#xfe;" horiz-adv-x="483" 
d="M501 238q-24 -108 -78 -172q-31 -36 -74.5 -56t-87.5 -20q-55 0 -87 45l-33 -158q-5 -26 -16 -35t-37 -9h-22q-27 0 -34 9.5t-2 35.5l164 771q6 27 17.5 36t37.5 9h19q27 0 33.5 -9.5t0.5 -34.5l-48 -226q65 58 136 58q38 0 64.5 -16t38.5 -40.5t16 -58.5t1.5 -65
t-9.5 -64zM389 236q5 20 7.5 41.5t2.5 56t-17 56.5t-50 22q-46 0 -85 -37l-60 -282q2 -5 6 -12t19 -17t34 -10q29 0 54 17t39.5 38t26.5 51.5t16 45t7 30.5z" />
    <glyph glyph-name="ydieresis" unicode="&#xff;" horiz-adv-x="431" 
d="M503 447q-1 -4 -9 -19l-245 -479q-29 -55 -76.5 -90.5t-103.5 -35.5q-54 0 -64 10q-3 6 -0.5 30.5t4.5 33.5q3 14 15 14l6 -3q28 -14 55 -14q41 0 68 34q7 9 22.5 36.5t16.5 34.5q0 3 -1 15l-71 416l-1 18q5 24 42 24h12q33 0 41.5 -12t16.5 -61q35 -215 23 -281
q17 57 80 185l65 129q13 27 27 33.5t40 6.5q14 0 20.5 -1t12.5 -6.5t4 -17.5zM299 609q-5 -25 -15 -33.5t-34 -8.5h-30q-24 0 -30.5 9t-1.5 33l5 22q6 26 16 34t33 8h30q24 0 30.5 -8.5t1.5 -33.5zM502 609q-5 -25 -15 -33.5t-34 -8.5h-30q-24 0 -30.5 9t-1.5 33l5 22
q6 26 16 34t33 8h30q24 0 30.5 -8.5t1.5 -33.5z" />
    <glyph glyph-name="Amacron" unicode="&#x100;" horiz-adv-x="636" 
d="M605 25q-5 -25 -43 -25h-34q-31 0 -39 11.5t-12 52.5l-11 107h-242l-69 -131q-8 -14 -13 -21t-18.5 -13t-34.5 -6h-16q-10 0 -16.5 1t-12.5 7t-4 17l8 16l324 616q20 37 65 37h57q14 0 21.5 -1t16.5 -10t10 -27l62 -617zM459 246l-16 185q-12 107 -9 157h-1
q-11 -33 -71 -149l-99 -193h196zM658 789q-4 -19 -8.5 -22.5t-22.5 -3.5h-291q-19 0 -21.5 3.5t1.5 22.5l4 21q4 19 8.5 22.5t22.5 3.5h292q18 0 20.5 -3t-1.5 -23z" />
    <glyph glyph-name="amacron" unicode="&#x101;" horiz-adv-x="453" 
d="M417 44q-5 -26 -16 -35t-37 -9h-20q-27 0 -33.5 9.5t-1.5 34.5l6 25q-22 -29 -62 -54t-88 -25q-57 0 -85 43t-16 99q8 35 28.5 62.5t50.5 44t57.5 27.5t62.5 16t50 6.5t35 2.5q8 1 10 3.5t5 15.5l4 20q5 23 5.5 41t-3.5 28t-8.5 16.5t-13.5 9t-13.5 3t-12.5 0.5
q-73 0 -136 -50q-13 -10 -18 -10q-7 0 -8.5 6t1.5 23q1 8 5 36q1 8 6 11t23 12q70 31 144 31q88 0 122 -41.5t18 -114.5zM330 155l21 101q-24 -1 -47 -6t-53 -17t-52 -37.5t-30 -61.5q-6 -33 7.5 -56.5t42.5 -23.5q10 0 22.5 3.5t31.5 12.5t34.5 31t22.5 54zM528 610
q-4 -19 -8.5 -22.5t-22.5 -3.5h-291q-19 0 -21.5 3.5t1.5 22.5l4 21q4 19 8.5 22.5t22.5 3.5h292q18 0 20.5 -3.5t-1.5 -22.5z" />
    <glyph glyph-name="Abreve" unicode="&#x102;" horiz-adv-x="636" 
d="M605 25q-5 -25 -43 -25h-34q-31 0 -39 11.5t-12 52.5l-11 107h-242l-69 -131q-8 -14 -13 -21t-18.5 -13t-34.5 -6h-16q-10 0 -16.5 1t-12.5 7t-4 17l8 16l324 616q20 37 65 37h57q14 0 21.5 -1t16.5 -10t10 -27l62 -617zM459 246l-16 185q-12 107 -9 157h-1
q-11 -33 -71 -149l-99 -193h196zM664 857q-9 -42 -56 -73t-129 -31q-81 0 -115.5 31t-25.5 73q4 19 16.5 27t22.5 8q28 0 26 -32q-1 -9 8 -15.5t27 -8.5t29.5 -2.5t28.5 -0.5q95 0 104 24q10 35 39 35q11 0 20 -8.5t5 -26.5z" />
    <glyph glyph-name="abreve" unicode="&#x103;" horiz-adv-x="453" 
d="M417 44q-5 -26 -16 -35t-37 -9h-20q-27 0 -33.5 9.5t-1.5 34.5l6 25q-22 -29 -62 -54t-88 -25q-57 0 -85 43t-16 99q8 35 28.5 62.5t50.5 44t57.5 27.5t62.5 16t50 6.5t35 2.5q8 1 10 3.5t5 15.5l4 20q5 23 5.5 41t-3.5 28t-8.5 16.5t-13.5 9t-13.5 3t-12.5 0.5
q-73 0 -136 -50q-13 -10 -18 -10q-7 0 -8.5 6t1.5 23q1 8 5 36q1 8 6 11t23 12q70 31 144 31q88 0 122 -41.5t18 -114.5zM330 155l21 101q-24 -1 -47 -6t-53 -17t-52 -37.5t-30 -61.5q-6 -33 7.5 -56.5t42.5 -23.5q10 0 22.5 3.5t31.5 12.5t34.5 31t22.5 54zM529 655
q-9 -42 -56 -73t-129 -31q-81 0 -115 31t-26 73q4 19 16.5 27t23.5 8q27 0 25 -32q-1 -9 8 -15.5t27 -8.5t29.5 -2.5t28.5 -0.5q95 0 104 24q11 35 40 35q11 0 19.5 -8.5t4.5 -26.5z" />
    <glyph glyph-name="Aogonek" unicode="&#x104;" horiz-adv-x="636" 
d="M604 -133q0 -18 -13 -24q-68 -26 -106 -27q-44 -1 -65 26t-12 63q11 53 79 109q-7 12 -10 50l-11 107h-242l-69 -131q-8 -14 -13 -21t-18.5 -13t-34.5 -6h-16q-10 0 -16.5 1t-12.5 7t-4 17l8 16l324 616q20 37 65 37h57q14 0 21.5 -1t16.5 -10t10 -27l62 -617l1 -14
q-5 -25 -43 -25q-55 -40 -60 -78q-3 -28 28 -28q27 0 52 11q4 3 11.5 0.5t7.5 -9.5zM459 246l-16 185q-12 107 -9 157h-1q-11 -33 -71 -149l-99 -193h196z" />
    <glyph glyph-name="aogonek" unicode="&#x105;" horiz-adv-x="453" 
d="M424 -133q0 -18 -13 -24q-68 -26 -106 -27q-44 -1 -65 26t-12 63q11 53 79 110q-1 9 2 29l6 25q-22 -29 -62 -54t-88 -25q-57 0 -85 43t-16 99q8 35 28.5 62.5t50.5 44t57.5 27.5t62.5 16t50 6.5t35 2.5q8 1 10 3.5t5 15.5l4 20q5 23 5.5 41t-3.5 28t-8.5 16.5t-13.5 9
t-13.5 3t-12.5 0.5q-73 0 -136 -50q-13 -10 -18 -10q-7 0 -8.5 6t1.5 23q1 8 5 36q1 8 6 11t23 12q70 31 144 31q88 0 122 -41.5t18 -114.5l-61 -287q-5 -21 -12.5 -30t-23.5 -12q-55 -39 -59 -79q-1 -28 28 -29q27 0 52 11q4 3 11.5 0.5t7.5 -9.5zM330 155l21 101
q-24 -1 -47 -6t-53 -17t-52 -37.5t-30 -61.5q-6 -33 7.5 -56.5t42.5 -23.5q10 0 22.5 3.5t31.5 12.5t34.5 31t22.5 54z" />
    <glyph glyph-name="Cacute" unicode="&#x106;" horiz-adv-x="607" 
d="M570 58q-1 -7 -7 -10q-57 -35 -97 -46q-41 -12 -100 -12q-150 0 -213 94q-62 92 -26 263q36 170 138 263q103 94 253 94q49 0 86 -8q36 -8 78 -27q7 -3 4 -13l-30 -79q-5 -10 -13 -10q-4 0 -7 3q-33 27 -61 37q-32 11 -76 11q-92 0 -156 -69q-67 -70 -94 -202
q-28 -132 8 -202q35 -69 127 -69q54 0 91 11q38 11 87 43l7 2q9 0 9 -10zM691 852l-208 -99h-67q-6 0 -8.5 3t-1 7t6.5 8l148 103h127q9 0 11.5 -4.5t-0.5 -9.5t-8 -8z" />
    <glyph glyph-name="cacute" unicode="&#x107;" horiz-adv-x="422" 
d="M408 62q-2 -9 -19.5 -22t-34.5 -21l-17 -8q-49 -21 -101 -21q-100 0 -140 64q-37 62 -14 183q26 120 93.5 185t170.5 65q45 0 69 -8t53 -27q8 -5 9 -6t4 -5t0 -7q0 -1 -3 -9t-7.5 -17.5t-4.5 -10.5q-7 -18 -10.5 -23t-9.5 -5q-5 0 -12 9q-22 21 -43 30t-59 9
q-34 0 -59 -16.5t-40.5 -47t-23.5 -55.5t-15 -60q-5 -24 -7.5 -39.5t-4 -44.5t4 -47t22 -32.5t44.5 -14.5q68 0 138 57q9 9 15 9q7 0 8.5 -5.5t-1.5 -22.5q-4 -33 -5 -36zM512 683q-1 -6 -13 -15l-161 -122h-31h-10.5t-7.5 1t-5 3.5t0 6.5t12 15l103 111q11 11 31 11h61
q14 0 18.5 -1.5t2.5 -9.5z" />
    <glyph glyph-name="Ccircumflex" unicode="&#x108;" horiz-adv-x="607" 
d="M570 58q-1 -7 -7 -10q-57 -35 -97 -46q-41 -12 -100 -12q-150 0 -213 94q-62 92 -26 263q36 170 138 263q103 94 253 94q49 0 86 -8q36 -8 78 -27q7 -3 4 -13l-30 -79q-5 -10 -13 -10q-4 0 -7 3q-33 27 -61 37q-32 11 -76 11q-92 0 -156 -69q-67 -70 -94 -202
q-28 -132 8 -202q35 -69 127 -69q54 0 91 11q38 11 87 43l7 2q9 0 9 -10zM669 765q5 -5 0.5 -13.5t-12.5 -8.5h-47l-5 1l-95 81l-129 -81l-5 -1h-47q-8 0 -9.5 7.5t5.5 12.5l132 104q5 3 9 3h111q5 0 7 -3z" />
    <glyph glyph-name="ccircumflex" unicode="&#x109;" horiz-adv-x="422" 
d="M408 62q-2 -9 -19.5 -22t-34.5 -21l-17 -8q-49 -21 -101 -21q-100 0 -140 64q-37 62 -14 183q26 120 93.5 185t170.5 65q45 0 69 -8t53 -27q8 -5 9 -6t4 -5t0 -7q0 -1 -3 -9t-7.5 -17.5t-4.5 -10.5q-7 -18 -10.5 -23t-9.5 -5q-5 0 -12 9q-22 21 -43 30t-59 9
q-34 0 -59 -16.5t-40.5 -47t-23.5 -55.5t-15 -60q-5 -24 -7.5 -39.5t-4 -44.5t4 -47t22 -32.5t44.5 -14.5q68 0 138 57q9 9 15 9q7 0 8.5 -5.5t-1.5 -22.5q-4 -33 -5 -36zM513 560q2 -6 -2.5 -13.5t-11.5 -7.5h-47q-4 1 -6 2l-77 101l-119 -101l-6 -2h-47q-7 0 -9 6.5
t3 12.5l127 139q4 4 10 4h111q7 0 8 -4z" />
    <glyph glyph-name="Cdotaccent" unicode="&#x10a;" horiz-adv-x="607" 
d="M570 58q-1 -7 -7 -10q-57 -35 -97 -46q-41 -12 -100 -12q-150 0 -213 94q-62 92 -26 263q36 170 138 263q103 94 253 94q49 0 86 -8q36 -8 78 -27q7 -3 4 -13l-30 -79q-5 -10 -13 -10q-4 0 -7 3q-33 27 -61 37q-32 11 -76 11q-92 0 -156 -69q-67 -70 -94 -202
q-28 -132 8 -202q35 -69 127 -69q54 0 91 11q38 11 87 43l7 2q9 0 9 -10zM563 790q-6 -28 -17.5 -37.5t-37.5 -9.5h-33q-27 0 -34 10t-1 37l5 24q6 28 17.5 37.5t37.5 9.5h33q27 0 34 -9.5t1 -37.5z" />
    <glyph glyph-name="cdotaccent" unicode="&#x10b;" horiz-adv-x="422" 
d="M408 62q-2 -9 -19.5 -22t-34.5 -21l-17 -8q-49 -21 -101 -21q-100 0 -140 64q-37 62 -14 183q26 120 93.5 185t170.5 65q45 0 69 -8t53 -27q8 -5 9 -6t4 -5t0 -7q0 -1 -3 -9t-7.5 -17.5t-4.5 -10.5q-7 -18 -10.5 -23t-9.5 -5q-5 0 -12 9q-22 21 -43 30t-59 9
q-34 0 -59 -16.5t-40.5 -47t-23.5 -55.5t-15 -60q-5 -24 -7.5 -39.5t-4 -44.5t4 -47t22 -32.5t44.5 -14.5q68 0 138 57q9 9 15 9q7 0 8.5 -5.5t-1.5 -22.5q-4 -33 -5 -36zM422 608q-6 -28 -17.5 -37.5t-37.5 -9.5h-33q-27 0 -33.5 10t-1.5 37l5 24q7 29 18 38t37 9h33
q27 0 34 -9.5t1 -37.5z" />
    <glyph glyph-name="Ccaron" unicode="&#x10c;" horiz-adv-x="607" 
d="M570 58q-1 -7 -7 -10q-57 -35 -97 -46q-41 -12 -100 -12q-150 0 -213 94q-62 92 -26 263q36 170 138 263q103 94 253 94q49 0 86 -8q36 -8 78 -27q7 -3 4 -13l-30 -79q-5 -10 -13 -10q-4 0 -7 3q-33 27 -61 37q-32 11 -76 11q-92 0 -156 -69q-67 -70 -94 -202
q-28 -132 8 -202q35 -69 127 -69q54 0 91 11q38 11 87 43l7 2q9 0 9 -10zM687 850l-132 -104q-3 -3 -8 -3h-111q-5 0 -8 3l-85 102q-5 5 0 13.5t13 8.5h47l5 -1l94 -81l130 81l5 1h47q5 0 7.5 -3.5t1.5 -8.5t-6 -8z" />
    <glyph glyph-name="ccaron" unicode="&#x10d;" horiz-adv-x="422" 
d="M408 62q-2 -9 -19.5 -22t-34.5 -21l-17 -8q-49 -21 -101 -21q-100 0 -140 64q-37 62 -14 183q26 120 93.5 185t170.5 65q45 0 69 -8t53 -27q8 -5 9 -6t4 -5t0 -7q0 -1 -3 -9t-7.5 -17.5t-4.5 -10.5q-7 -18 -10.5 -23t-9.5 -5q-5 0 -12 9q-22 21 -43 30t-59 9
q-34 0 -59 -16.5t-40.5 -47t-23.5 -55.5t-15 -60q-5 -24 -7.5 -39.5t-4 -44.5t4 -47t22 -32.5t44.5 -14.5q68 0 138 57q9 9 15 9q7 0 8.5 -5.5t-1.5 -22.5q-4 -33 -5 -36zM539 682l-128 -139q-3 -4 -9 -4h-111q-6 0 -9 4l-65 137q-3 6 2 13.5t12 7.5h47q4 -1 6 -2l76 -101
l120 101l6 2h47q7 0 9 -6.5t-3 -12.5z" />
    <glyph glyph-name="Dcaron" unicode="&#x10e;" horiz-adv-x="688" 
d="M706 342q-36 -168 -134 -257q-92 -85 -227 -85h-219q-27 0 -34 9.5t-1 35.5l128 604q6 27 17.5 36t37.5 9h218q68 0 122 -27t80 -80q44 -93 12 -245zM587 342q5 26 8 41.5t6 48t0.5 54t-11.5 49t-26.5 44t-48 28.5t-72.5 12h-111l-116 -544h112q42 0 77.5 11t59.5 27
t44.5 42.5t32 47.5t22 52t14.5 46.5t9 40.5zM609 850l-132 -104q-3 -3 -8 -3h-111q-5 0 -8 3l-85 102q-5 5 0 13.5t13 8.5h47l5 -1l94 -81l130 81l5 1h47q5 0 7.5 -3.5t1.5 -8.5t-6 -8z" />
    <glyph glyph-name="dcaron" unicode="&#x10f;" horiz-adv-x="483" 
d="M435 44q-5 -26 -16 -35t-37 -9h-23q-27 0 -33.5 9.5t-1.5 34.5q-5 -6 -17 -16.5t-41.5 -24t-59.5 -13.5q-92 0 -124 81q-23 62 0 165q25 114 81 176q62 70 152 70q65 0 95 -49l46 217q5 26 16.5 35t37.5 9h20q27 0 33.5 -9.5t0.5 -34.5zM336 101l61 283l-3 3
q-2 3 -4.5 6.5t-8 8t-11.5 8t-15 6t-19 2.5q-30 0 -54 -14t-37.5 -31.5t-25.5 -47t-16 -46.5t-10 -44q-6 -28 -8.5 -43.5t-4.5 -45.5t3.5 -47t21.5 -31t43 -14q49 0 88 47zM688 622q-4 -18 -13 -32q-41 -58 -55 -77q-7 -11 -11 -13t-18 -2q-15 0 -19 1.5t-3 9.5q7 21 44 89
q-18 0 -21 3.5t1 20.5l11 48q4 18 7.5 21t19.5 3h51q16 0 18 -3t-1 -21z" />
    <glyph glyph-name="Dcroat" unicode="&#x110;" horiz-adv-x="688" 
d="M706 342q-36 -168 -134 -257q-92 -85 -227 -85h-219q-27 0 -34 9.5t-1 35.5l55 259h-24q-13 0 -20.5 9.5t-5.5 22.5l5 22q3 14 14.5 23t24.5 9h24l55 259q6 27 17.5 36t37.5 9h218q68 0 122 -27t80 -80q44 -93 12 -245zM587 342q5 26 8 41.5t6 48t0.5 54t-11.5 49
t-26.5 44t-48 28.5t-72.5 12h-111l-49 -229h56q13 0 20.5 -9.5t4.5 -22.5l-5 -22q-2 -13 -13.5 -22.5t-24.5 -9.5h-56l-49 -229h112q42 0 77.5 11t59.5 27t44.5 42.5t32 47.5t22 52t14.5 46.5t9 40.5z" />
    <glyph glyph-name="dcroat" unicode="&#x111;" horiz-adv-x="483" 
d="M623 572q-3 -13 -14.5 -22.5t-24.5 -9.5h-43l-106 -496q-5 -26 -16 -35t-37 -9h-23q-27 0 -33.5 9.5t-1.5 34.5q-5 -6 -17 -16.5t-41.5 -24t-59.5 -13.5q-92 0 -124 81q-23 62 0 165q25 114 81 176q62 70 152 70q65 0 95 -49l23 107h-93q-13 0 -20.5 9.5t-4.5 22.5l4 22
q3 13 14.5 22.5t24.5 9.5h93l5 24q5 26 16.5 35t37.5 9h20q27 0 33.5 -9.5t0.5 -34.5l-5 -24h43q13 0 20.5 -9.5t4.5 -22.5zM336 101l61 283l-3 3q-2 3 -4.5 6.5t-8 8t-11.5 8t-15 6t-19 2.5q-30 0 -54 -14t-37.5 -31.5t-25.5 -47t-16 -46.5t-10 -44q-6 -28 -8.5 -43.5
t-4.5 -45.5t3.5 -47t21.5 -31t43 -14q49 0 88 47z" />
    <glyph glyph-name="Emacron" unicode="&#x112;" horiz-adv-x="567" 
d="M535 44q-5 -26 -16 -35t-37 -9h-356q-27 0 -34 9.5t-1 35.5l127 601q6 27 17.5 36t37.5 9h343q28 0 34.5 -12t-0.5 -33q-4 -22 -13 -32t-18 -11.5t-30 -1.5l-212 3h-46l-43 -205h240q11 0 16 -0.5t13 -4.5t7.5 -12.5t-1.5 -23.5q-4 -19 -13.5 -28t-17 -10.5t-21.5 -1.5
h-240l-48 -226q18 2 132 2l141 2q12 0 17 -0.5t13.5 -2.5t9 -6.5t3.5 -13t-2 -21.5zM623 789q-4 -19 -8.5 -22.5t-22.5 -3.5h-291q-19 0 -21.5 3.5t1.5 22.5l4 21q4 19 8.5 22.5t22.5 3.5h292q18 0 20.5 -3t-1.5 -23z" />
    <glyph glyph-name="emacron" unicode="&#x113;" horiz-adv-x="438" 
d="M469 275q-5 -26 -16.5 -34.5t-36.5 -8.5h-238q-36 -178 80 -178q78 0 143 62q9 9 15 9q7 0 8 -5t-1 -19q0 -20 -4 -36q-5 -22 -74 -53q-53 -22 -104 -22q-40 0 -73 11.5t-61.5 40t-35.5 76.5t6 121q15 70 45 121.5t67.5 77.5t73.5 37.5t72 11.5q87 0 121.5 -54.5
t12.5 -157.5zM384 279q3 18 4.5 29t3 30.5t-2.5 32t-10.5 26t-21 20t-35.5 6.5q-48 0 -82 -41.5t-51 -102.5h195zM521 610q-4 -19 -8.5 -22.5t-22.5 -3.5h-291q-19 0 -21.5 3.5t1.5 22.5l4 21q4 19 8.5 22.5t22.5 3.5h292q18 0 20.5 -3.5t-1.5 -22.5z" />
    <glyph glyph-name="Ebreve" unicode="&#x114;" horiz-adv-x="567" 
d="M535 44q-5 -26 -16 -35t-37 -9h-356q-27 0 -34 9.5t-1 35.5l127 601q6 27 17.5 36t37.5 9h343q28 0 34.5 -12t-0.5 -33q-4 -22 -13 -32t-18 -11.5t-30 -1.5l-212 3h-46l-43 -205h240q11 0 16 -0.5t13 -4.5t7.5 -12.5t-1.5 -23.5q-4 -19 -13.5 -28t-17 -10.5t-21.5 -1.5
h-240l-48 -226q18 2 132 2l141 2q12 0 17 -0.5t13.5 -2.5t9 -6.5t3.5 -13t-2 -21.5zM629 857q-9 -42 -56 -73t-129 -31q-81 0 -115.5 31t-25.5 73q4 19 16.5 27t22.5 8q28 0 26 -32q-1 -9 8 -15.5t27 -8.5t29.5 -2.5t28.5 -0.5q95 0 104 24q11 35 39 35q11 0 20 -8.5
t5 -26.5z" />
    <glyph glyph-name="ebreve" unicode="&#x115;" horiz-adv-x="438" 
d="M469 275q-5 -26 -16.5 -34.5t-36.5 -8.5h-238q-36 -178 80 -178q78 0 143 62q9 9 15 9q7 0 8 -5t-1 -19q0 -20 -4 -36q-5 -22 -74 -53q-53 -22 -104 -22q-40 0 -73 11.5t-61.5 40t-35.5 76.5t6 121q15 70 45 121.5t67.5 77.5t73.5 37.5t72 11.5q87 0 121.5 -54.5
t12.5 -157.5zM384 279q3 18 4.5 29t3 30.5t-2.5 32t-10.5 26t-21 20t-35.5 6.5q-48 0 -82 -41.5t-51 -102.5h195zM522 655q-9 -42 -56 -73t-129 -31q-81 0 -115 31t-26 73q4 19 16.5 27t23.5 8q27 0 25 -32q-1 -9 8 -15.5t27 -8.5t29.5 -2.5t28.5 -0.5q95 0 104 24
q10 35 40 35q11 0 19.5 -8.5t4.5 -26.5z" />
    <glyph glyph-name="Edotaccent" unicode="&#x116;" horiz-adv-x="567" 
d="M535 44q-5 -26 -16 -35t-37 -9h-356q-27 0 -34 9.5t-1 35.5l127 601q6 27 17.5 36t37.5 9h343q28 0 34.5 -12t-0.5 -33q-4 -22 -13 -32t-18 -11.5t-30 -1.5l-212 3h-46l-43 -205h240q11 0 16 -0.5t13 -4.5t7.5 -12.5t-1.5 -23.5q-4 -19 -13.5 -28t-17 -10.5t-21.5 -1.5
h-240l-48 -226q18 2 132 2l141 2q12 0 17 -0.5t13.5 -2.5t9 -6.5t3.5 -13t-2 -21.5zM513 790q-6 -28 -17.5 -37.5t-37.5 -9.5h-33q-27 0 -34 10t-1 37l5 24q6 28 17.5 37.5t37.5 9.5h33q27 0 34 -9.5t1 -37.5z" />
    <glyph glyph-name="edotaccent" unicode="&#x117;" horiz-adv-x="438" 
d="M469 275q-5 -26 -16.5 -34.5t-36.5 -8.5h-238q-36 -178 80 -178q78 0 143 62q9 9 15 9q7 0 8 -5t-1 -19q0 -20 -4 -36q-5 -22 -74 -53q-53 -22 -104 -22q-40 0 -73 11.5t-61.5 40t-35.5 76.5t6 121q15 70 45 121.5t67.5 77.5t73.5 37.5t72 11.5q87 0 121.5 -54.5
t12.5 -157.5zM384 279q3 18 4.5 29t3 30.5t-2.5 32t-10.5 26t-21 20t-35.5 6.5q-48 0 -82 -41.5t-51 -102.5h195zM409 608q-6 -28 -17.5 -37.5t-37.5 -9.5h-33q-27 0 -33.5 10t-1.5 37l5 24q7 29 18 38t37 9h33q27 0 34 -9.5t1 -37.5z" />
    <glyph glyph-name="Eogonek" unicode="&#x118;" horiz-adv-x="567" 
d="M535 44q-5 -26 -16 -35t-37 -9h-36q-55 -39 -56 -78q1 -27 30 -28q27 0 52 11q4 3 11.5 0.5t7.5 -9.5l3 -29q0 -18 -13 -24q-68 -26 -106 -27q-44 -1 -65 26t-12 63q11 57 61 95h-233q-27 0 -34 9.5t-1 35.5l127 601q6 27 17.5 36t37.5 9h343q28 0 34.5 -12t-0.5 -33
q-4 -22 -13 -32t-18 -11.5t-30 -1.5l-212 3h-46l-43 -205h240q11 0 16 -0.5t13 -4.5t7.5 -12.5t-1.5 -23.5q-4 -19 -13.5 -28t-17 -10.5t-21.5 -1.5h-240l-48 -226q18 2 132 2l141 2q12 0 17 -0.5t13.5 -2.5t9 -6.5t3.5 -13t-2 -21.5z" />
    <glyph glyph-name="eogonek" unicode="&#x119;" horiz-adv-x="438" 
d="M469 275q-5 -26 -16.5 -34.5t-36.5 -8.5h-238q-36 -178 80 -178q78 0 143 62q9 9 15 9q7 0 8 -5t-1 -19q0 -20 -4 -36q-5 -22 -74 -53q-33 -12 -38 -13q-55 -40 -57 -78q1 -26 30 -27q27 0 52 11q4 3 11.5 0.5t7.5 -9.5l3 -29q0 -18 -13 -24q-68 -26 -106 -27
q-44 -1 -65 26t-12 63q10 46 53 87q-36 4 -64 18t-50.5 43.5t-27 74.5t7.5 111q15 70 45 121.5t67.5 77.5t73.5 37.5t72 11.5q87 0 121.5 -54.5t12.5 -157.5zM384 279q3 18 4.5 29t3 30.5t-2.5 32t-10.5 26t-21 20t-35.5 6.5q-48 0 -82 -41.5t-51 -102.5h195z" />
    <glyph glyph-name="Ecaron" unicode="&#x11a;" horiz-adv-x="567" 
d="M535 44q-5 -26 -16 -35t-37 -9h-356q-27 0 -34 9.5t-1 35.5l127 601q6 27 17.5 36t37.5 9h343q28 0 34.5 -12t-0.5 -33q-4 -22 -13 -32t-18 -11.5t-30 -1.5l-212 3h-46l-43 -205h240q11 0 16 -0.5t13 -4.5t7.5 -12.5t-1.5 -23.5q-4 -19 -13.5 -28t-17 -10.5t-21.5 -1.5
h-240l-48 -226q18 2 132 2l141 2q12 0 17 -0.5t13.5 -2.5t9 -6.5t3.5 -13t-2 -21.5zM636 850l-132 -104q-3 -3 -8 -3h-111q-5 0 -8 3l-85 102q-5 5 0 13.5t13 8.5h47l5 -1l94 -81l130 81l5 1h47q5 0 7.5 -3.5t1.5 -8.5t-6 -8z" />
    <glyph glyph-name="ecaron" unicode="&#x11b;" horiz-adv-x="438" 
d="M469 275q-5 -26 -16.5 -34.5t-36.5 -8.5h-238q-36 -178 80 -178q78 0 143 62q9 9 15 9q7 0 8 -5t-1 -19q0 -20 -4 -36q-5 -22 -74 -53q-53 -22 -104 -22q-40 0 -73 11.5t-61.5 40t-35.5 76.5t6 121q15 70 45 121.5t67.5 77.5t73.5 37.5t72 11.5q87 0 121.5 -54.5
t12.5 -157.5zM384 279q3 18 4.5 29t3 30.5t-2.5 32t-10.5 26t-21 20t-35.5 6.5q-48 0 -82 -41.5t-51 -102.5h195zM526 682l-128 -139q-3 -4 -9 -4h-111q-6 0 -9 4l-65 137q-3 6 2 13.5t12 7.5h47q4 -1 6 -2l76 -101l120 101l6 2h47q7 0 9 -6.5t-3 -12.5z" />
    <glyph glyph-name="Gcircumflex" unicode="&#x11c;" horiz-adv-x="633" 
d="M579 50q-2 -7 -8 -10q-102 -50 -205 -50q-150 0 -213 94q-62 92 -26 263q36 170 138 263q103 94 253 94q54 0 94 -11q36 -11 82 -39q5 -3 2 -12l-30 -79q-5 -10 -13 -10q-1 0 -7 3q-30 34 -64 48t-83 14q-92 0 -156 -69q-67 -70 -94 -202q-28 -132 8 -202q35 -69 127 -69
q44 0 91 11l37 171h-78q-11 0 -9 11l13 59q2 11 13 11h178q11 0 9 -11zM651 765q5 -5 0.5 -13.5t-12.5 -8.5h-47l-5 1l-95 81l-129 -81l-5 -1h-47q-8 0 -9.5 7.5t5.5 12.5l132 104q5 3 9 3h111q5 0 7 -3z" />
    <glyph glyph-name="gcircumflex" unicode="&#x11d;" horiz-adv-x="483" 
d="M432 27q-19 -92 -78.5 -153t-160.5 -61q-81 0 -144 33q-10 6 -11.5 10t2.5 20l5 23q5 26 16 26q5 0 12 -7q57 -41 132 -41q84 0 110 123l20 93h-1q-44 -72 -116 -72q-90 0 -125 63q-32 58 -10 154q21 106 80 171q65 73 160 73q62 0 85 -58q4 20 6.5 27.5t8.5 16.5
t15.5 11.5t25.5 2.5h20q27 0 34 -9.5t1 -34.5zM376 272l13 63q7 33 -7.5 58t-45.5 25t-56 -17t-41.5 -45.5t-27 -57t-17.5 -60.5q-4 -18 -6 -36.5t-1 -48.5t18 -49t49 -19q77 0 114 163q2 12 8 24zM489 560q2 -6 -2.5 -13.5t-11.5 -7.5h-47q-4 1 -6 2l-77 101l-119 -101
l-6 -2h-47q-7 0 -9 6.5t3 12.5l127 139q4 4 10 4h111q7 0 8 -4z" />
    <glyph glyph-name="Gbreve" unicode="&#x11e;" horiz-adv-x="633" 
d="M579 50q-2 -7 -8 -10q-102 -50 -205 -50q-150 0 -213 94q-62 92 -26 263q36 170 138 263q103 94 253 94q54 0 94 -11q36 -11 82 -39q5 -3 2 -12l-30 -79q-5 -10 -13 -10q-1 0 -7 3q-30 34 -64 48t-83 14q-92 0 -156 -69q-67 -70 -94 -202q-28 -132 8 -202q35 -69 127 -69
q44 0 91 11l37 171h-78q-11 0 -9 11l13 59q2 11 13 11h178q11 0 9 -11zM662 857q-9 -42 -56 -73t-129 -31q-81 0 -115.5 31t-25.5 73q4 19 16.5 27t22.5 8q28 0 26 -32q-1 -9 8 -15.5t27 -8.5t29.5 -2.5t28.5 -0.5q95 0 104 24q10 35 39 35q11 0 20 -8.5t5 -26.5z" />
    <glyph glyph-name="gbreve" unicode="&#x11f;" horiz-adv-x="483" 
d="M432 27q-19 -92 -78.5 -153t-160.5 -61q-81 0 -144 33q-10 6 -11.5 10t2.5 20l5 23q5 26 16 26q5 0 12 -7q57 -41 132 -41q84 0 110 123l20 93h-1q-44 -72 -116 -72q-90 0 -125 63q-32 58 -10 154q21 106 80 171q65 73 160 73q62 0 85 -58q4 20 6.5 27.5t8.5 16.5
t15.5 11.5t25.5 2.5h20q27 0 34 -9.5t1 -34.5zM376 272l13 63q7 33 -7.5 58t-45.5 25t-56 -17t-41.5 -45.5t-27 -57t-17.5 -60.5q-4 -18 -6 -36.5t-1 -48.5t18 -49t49 -19q77 0 114 163q2 12 8 24zM511 655q-9 -42 -56 -73t-129 -31q-81 0 -115 31t-26 73q4 19 16.5 27
t23.5 8q27 0 25 -32q-1 -9 8 -15.5t27 -8.5t29.5 -2.5t28.5 -0.5q95 0 104 24q11 35 40 35q11 0 19.5 -8.5t4.5 -26.5z" />
    <glyph glyph-name="Gdotaccent" unicode="&#x120;" horiz-adv-x="633" 
d="M579 50q-2 -7 -8 -10q-102 -50 -205 -50q-150 0 -213 94q-62 92 -26 263q36 170 138 263q103 94 253 94q54 0 94 -11q36 -11 82 -39q5 -3 2 -12l-30 -79q-5 -10 -13 -10q-1 0 -7 3q-30 34 -64 48t-83 14q-92 0 -156 -69q-67 -70 -94 -202q-28 -132 8 -202q35 -69 127 -69
q44 0 91 11l37 171h-78q-11 0 -9 11l13 59q2 11 13 11h178q11 0 9 -11zM546 790q-6 -28 -17.5 -37.5t-37.5 -9.5h-33q-27 0 -34 10t-1 37l5 24q6 28 17.5 37.5t37.5 9.5h33q27 0 34 -9.5t1 -37.5z" />
    <glyph glyph-name="gdotaccent" unicode="&#x121;" horiz-adv-x="483" 
d="M432 27q-19 -92 -78.5 -153t-160.5 -61q-81 0 -144 33q-10 6 -11.5 10t2.5 20l5 23q5 26 16 26q5 0 12 -7q57 -41 132 -41q84 0 110 123l20 93h-1q-44 -72 -116 -72q-90 0 -125 63q-32 58 -10 154q21 106 80 171q65 73 160 73q62 0 85 -58q4 20 6.5 27.5t8.5 16.5
t15.5 11.5t25.5 2.5h20q27 0 34 -9.5t1 -34.5zM376 272l13 63q7 33 -7.5 58t-45.5 25t-56 -17t-41.5 -45.5t-27 -57t-17.5 -60.5q-4 -18 -6 -36.5t-1 -48.5t18 -49t49 -19q77 0 114 163q2 12 8 24zM398 608q-6 -28 -17.5 -37.5t-37.5 -9.5h-33q-27 0 -33.5 10t-1.5 37l5 24
q7 29 18 38t37 9h33q27 0 34 -9.5t1 -37.5z" />
    <glyph glyph-name="Gcommaaccent" unicode="&#x122;" horiz-adv-x="633" 
d="M579 50q-2 -7 -8 -10q-102 -50 -205 -50q-150 0 -213 94q-62 92 -26 263q36 170 138 263q103 94 253 94q54 0 94 -11q36 -11 82 -39q5 -3 2 -12l-30 -79q-5 -10 -13 -10q-1 0 -7 3q-30 34 -64 48t-83 14q-92 0 -156 -69q-67 -70 -94 -202q-28 -132 8 -202q35 -69 127 -69
q44 0 91 11l37 171h-78q-11 0 -9 11l13 59q2 11 13 11h178q11 0 9 -11zM334 -140q-4 -18 -14 -32q-34 -50 -54 -77q-7 -11 -11 -13t-18 -2q-15 0 -19 1.5t-3 9.5q2 12 44 89q-18 0 -21 3.5t1 20.5l10 48q4 18 8 21t20 3h51q16 0 18 -3t-2 -21z" />
    <glyph glyph-name="gcommaaccent" unicode="&#x123;" horiz-adv-x="483" 
d="M376 565q-4 -18 -7.5 -21t-19.5 -3h-51q-16 0 -18 3t1 21l10 48q3 16 14 32q12 16 26 37t28 40q7 10 11.5 12.5t18.5 2.5q15 0 19 -1.5t2 -9.5q-1 -4 -19.5 -42t-24.5 -47q18 0 21 -3.5t-1 -20.5zM432 27q-19 -92 -78.5 -153t-160.5 -61q-81 0 -144 33q-10 6 -11.5 10
t2.5 20l5 23q5 26 16 26q5 0 12 -7q57 -41 132 -41q84 0 110 123l20 93h-1q-44 -72 -116 -72q-90 0 -125 63q-32 58 -10 154q21 106 80 171q65 73 160 73q62 0 85 -58q4 20 6.5 27.5t8.5 16.5t15.5 11.5t25.5 2.5h20q27 0 34 -9.5t1 -34.5zM376 272l13 63q7 33 -7.5 58
t-45.5 25t-56 -17t-41.5 -45.5t-27 -57t-17.5 -60.5q-4 -18 -6 -36.5t-1 -48.5t18 -49t49 -19q77 0 114 163q2 12 8 24z" />
    <glyph glyph-name="Hcircumflex" unicode="&#x124;" horiz-adv-x="678" 
d="M605 44q-5 -26 -16 -35t-37 -9h-34q-27 0 -33.5 9.5t-1.5 34.5l59 276h-271l-59 -276q-5 -26 -16 -35t-37 -9h-33q-27 0 -34 9.5t-1 35.5l128 604q6 27 17.5 36t37.5 9h33q27 0 33.5 -9.5t0.5 -34.5l-53 -249h271l53 249q5 26 16.5 35t37.5 9h34q27 0 33.5 -9.5
t0.5 -34.5zM674 765q5 -5 0.5 -13.5t-12.5 -8.5h-47l-5 1l-95 81l-129 -81l-5 -1h-47q-8 0 -9.5 7.5t5.5 12.5l132 104q4 3 9 3h111q6 0 7 -3z" />
    <glyph glyph-name="hcircumflex" unicode="&#x125;" horiz-adv-x="483" 
d="M437 44q-5 -26 -16 -35t-37 -9h-23q-27 0 -33.5 9.5t-1.5 34.5l63 294q10 42 2 61t-39 19q-39 0 -76.5 -35.5t-50.5 -99.5l-51 -239q-5 -26 -16 -35t-37 -9h-22q-27 0 -34 9.5t-1 35.5l128 604q6 27 17.5 36t37.5 9h19q27 0 33.5 -9.5t0.5 -34.5l-56 -263h1q64 95 157 95
q72 0 92.5 -36.5t6.5 -103.5zM576 765q5 -5 0.5 -13.5t-12.5 -8.5h-47l-5 1l-95 81l-129 -81l-5 -1h-47q-8 0 -9.5 7.5t5.5 12.5l132 104q4 3 9 3h111q6 0 7 -3z" />
    <glyph glyph-name="Hbar" unicode="&#x126;" horiz-adv-x="678" 
d="M779 510q-2 -13 -13.5 -22.5t-24.5 -9.5h-43l-93 -434q-5 -26 -16 -35t-37 -9h-34q-27 0 -33.5 9.5t-1.5 34.5l59 276h-271l-59 -276q-5 -26 -16 -35t-37 -9h-33q-27 0 -34 9.5t-1 35.5l92 433h-43q-13 0 -20.5 9.5t-5.5 22.5l5 22q3 13 14.5 22.5t24.5 9.5h43l18 85
q6 27 17.5 36t37.5 9h33q27 0 33.5 -9.5t0.5 -34.5l-18 -86h271l18 86q5 26 16.5 35t37.5 9h34q27 0 33.5 -9.5t0.5 -34.5l-18 -86h43q13 0 20.5 -9.5t4.5 -22.5zM559 401l17 77h-271l-17 -77h271z" />
    <glyph glyph-name="hbar" unicode="&#x127;" horiz-adv-x="483" 
d="M437 44q-5 -26 -16 -35t-37 -9h-23q-27 0 -33.5 9.5t-1.5 34.5l63 294q10 42 2 61t-39 19q-39 0 -76.5 -35.5t-50.5 -99.5l-51 -239q-5 -26 -16 -35t-37 -9h-22q-27 0 -34 9.5t-1 35.5l105 495h-43q-13 0 -20.5 9.5t-4.5 22.5l4 22q3 13 14.5 22.5t24.5 9.5h43l5 23
q6 27 17.5 36t37.5 9h19q27 0 33.5 -9.5t0.5 -34.5l-5 -24h48q13 0 20.5 -9.5t4.5 -22.5l-4 -22q-3 -13 -14.5 -22.5t-24.5 -9.5h-48l-33 -153h1q64 95 157 95q72 0 92.5 -36.5t6.5 -103.5z" />
    <glyph glyph-name="Itilde" unicode="&#x128;" horiz-adv-x="283" 
d="M211 44q-5 -26 -16 -35t-37 -9h-33q-27 0 -34 9.5t-1 35.5l128 604q6 27 17.5 36t37.5 9h33q27 0 33.5 -9.5t0.5 -34.5zM479 845q-7 -35 -40 -68.5t-76 -33.5q-39 0 -73 32q-25 23 -41 23q-26 0 -40 -40q-4 -11 -8 -13t-20 -2h-13q-16 0 -20.5 2.5t-2.5 14.5
q8 35 41 68.5t76 33.5q39 0 73 -32q25 -23 40 -23q27 0 41 40q4 11 8 13t20 2h14q16 0 20 -2.5t1 -14.5z" />
    <glyph glyph-name="itilde" unicode="&#x129;" horiz-adv-x="219" 
d="M172 44q-5 -26 -16 -35t-37 -9h-19q-27 0 -34 9.5t-1 35.5l81 382q5 27 16.5 36t37.5 9h19q27 0 34 -9.5t1 -34.5zM409 663q-8 -35 -41 -68.5t-76 -33.5q-39 0 -73 32q-25 23 -40 23q-27 0 -41 -40q-4 -11 -8 -13t-20 -2h-13q-17 0 -21 2.5t-1 14.5q7 35 40.5 68.5
t76.5 33.5q39 0 73 -32q25 -23 40 -23q26 0 40 40q4 11 8.5 13t20.5 2h14q16 0 20 -2.5t1 -14.5z" />
    <glyph glyph-name="Imacron" unicode="&#x12a;" horiz-adv-x="283" 
d="M211 44q-5 -26 -16 -35t-37 -9h-33q-27 0 -34 9.5t-1 35.5l128 604q6 27 17.5 36t37.5 9h33q27 0 33.5 -9.5t0.5 -34.5zM481 789q-4 -19 -8.5 -22.5t-22.5 -3.5h-291q-19 0 -21.5 3.5t1.5 22.5l4 21q4 19 8.5 22.5t22.5 3.5h292q18 0 20.5 -3t-1.5 -23z" />
    <glyph glyph-name="imacron" unicode="&#x12b;" horiz-adv-x="219" 
d="M172 44q-5 -26 -16 -35t-37 -9h-19q-27 0 -34 9.5t-1 35.5l81 382q5 27 16.5 36t37.5 9h19q27 0 34 -9.5t1 -34.5zM411 610q-4 -19 -8.5 -22.5t-22.5 -3.5h-291q-19 0 -21.5 3.5t1.5 22.5l4 21q4 19 8.5 22.5t22.5 3.5h292q18 0 20.5 -3.5t-1.5 -22.5z" />
    <glyph glyph-name="Ibreve" unicode="&#x12c;" horiz-adv-x="283" 
d="M211 44q-5 -26 -16 -35t-37 -9h-33q-27 0 -34 9.5t-1 35.5l128 604q6 27 17.5 36t37.5 9h33q27 0 33.5 -9.5t0.5 -34.5zM487 857q-9 -42 -56 -73t-129 -31q-81 0 -115.5 31t-25.5 73q4 19 16.5 27t22.5 8q28 0 26 -32q-1 -9 8 -15.5t27 -8.5t29.5 -2.5t28.5 -0.5
q95 0 104 24q11 35 39 35q11 0 20 -8.5t5 -26.5z" />
    <glyph glyph-name="ibreve" unicode="&#x12d;" horiz-adv-x="219" 
d="M172 44q-5 -26 -16 -35t-37 -9h-19q-27 0 -34 9.5t-1 35.5l81 382q5 27 16.5 36t37.5 9h19q27 0 34 -9.5t1 -34.5zM412 655q-9 -42 -56 -73t-129 -31q-81 0 -115 31t-26 73q4 19 16.5 27t23.5 8q27 0 25 -32q-1 -9 8 -15.5t27 -8.5t29.5 -2.5t28.5 -0.5q95 0 104 24
q10 35 40 35q11 0 19.5 -8.5t4.5 -26.5z" />
    <glyph glyph-name="Iogonek" unicode="&#x12e;" horiz-adv-x="283" 
d="M215 -133q0 -18 -13 -24q-68 -26 -106 -27q-44 -1 -65 26t-12 63q16 64 74 102q-10 9 -3 38l128 604q6 27 17.5 36t37.5 9h33q27 0 33.5 -9.5t0.5 -34.5l-129 -606q-5 -26 -16 -35t-36 -9q-33 -28 -44 -70q-9 -36 26 -36q27 0 52 11q5 3 12 0.5t7 -9.5z" />
    <glyph glyph-name="iogonek" unicode="&#x12f;" horiz-adv-x="219" 
d="M302 620q-7 -29 -18 -38t-37 -9h-33q-27 0 -33.5 9.5t-1.5 32.5l8 38q5 25 16.5 33.5t36.5 8.5h33q27 0 34 -9.5t1 -37.5zM183 -133q0 -18 -13 -24q-68 -26 -106 -27q-44 -1 -65 26t-12 63q16 67 79 104q-7 8 -1 36l81 382q5 27 16.5 36t37.5 9h19q27 0 34 -9.5t1 -34.5
l-82 -384q-5 -23 -14.5 -33t-30.5 -11q-33 -28 -44 -70q-9 -36 26 -36q27 0 52 11q5 3 12 0.5t7 -9.5z" />
    <glyph glyph-name="Idotaccent" unicode="&#x130;" horiz-adv-x="283" 
d="M211 44q-5 -26 -16 -35t-37 -9h-33q-27 0 -34 9.5t-1 35.5l128 604q6 27 17.5 36t37.5 9h33q27 0 33.5 -9.5t0.5 -34.5zM371 790q-6 -28 -17.5 -37.5t-37.5 -9.5h-33q-27 0 -34 10t-1 37l5 24q6 28 17.5 37.5t37.5 9.5h33q27 0 34 -9.5t1 -37.5z" />
    <glyph glyph-name="dotlessi" unicode="&#x131;" horiz-adv-x="219" 
d="M172 44q-5 -26 -16 -35t-37 -9h-19q-27 0 -34 9.5t-1 35.5l81 382q5 27 16.5 36t37.5 9h19q27 0 34 -9.5t1 -34.5z" />
    <glyph glyph-name="Jcircumflex" unicode="&#x134;" horiz-adv-x="450" 
d="M399 147q-16 -78 -70.5 -122t-129.5 -44q-71 0 -134 34q-12 7 -15 10.5t-2 10.5q1 4 12 33t14 35q6 12 15 12q5 0 11 -10q29 -46 88 -46q73 0 94 93l105 497q5 26 16.5 35t37.5 9h31q27 0 33.5 -9.5t0.5 -34.5zM644 765q5 -5 0.5 -13.5t-12.5 -8.5h-47l-5 1l-95 81
l-129 -81l-5 -1h-47q-8 0 -9.5 7.5t5.5 12.5l132 104q4 3 9 3h111q6 0 7 -3z" />
    <glyph glyph-name="jcircumflex" unicode="&#x135;" horiz-adv-x="246" 
d="M185 -25q-16 -75 -59 -113.5t-102 -38.5q-38 0 -78 14t-37 27q0 1 6.5 13.5t7.5 15.5q8 15 11.5 19t9.5 4q2 0 12 -6q21 -14 49 -14q25 0 41 12t19.5 22.5t7.5 27.5l100 470q5 26 16 35t37 9h20q27 0 34 -9.5t1 -34.5zM410 560q2 -6 -2.5 -13.5t-11.5 -7.5h-47q-4 1 -6 2
l-77 101l-119 -101l-6 -2h-47q-7 0 -9 6.5t3 12.5l127 139q4 4 10 4h111q7 0 8 -4z" />
    <glyph glyph-name="Kcommaaccent" unicode="&#x136;" horiz-adv-x="663" 
d="M611 27q-3 -13 -9 -19t-12 -7t-19 -1h-39q-21 0 -28 3.5t-13 19.5l-132 306l-120 -106l-38 -179q-5 -26 -16 -35t-37 -9h-22q-27 0 -34 9.5t-1 35.5l128 604q6 27 17.5 36t37.5 9h22q27 0 33.5 -9.5t0.5 -34.5l-61 -289l352 312q24 21 57 21h37q10 0 15.5 -0.5t10 -5
t2.5 -13.5q-1 -6 -16 -20l-279 -248zM349 -140q-4 -18 -14 -32q-34 -50 -54 -77q-7 -11 -11 -13t-18 -2t-18.5 1.5t-3.5 9.5q2 12 44 89q-18 0 -21 3.5t1 20.5l10 48q4 18 8 21t20 3h51q16 0 18 -3t-2 -21z" />
    <glyph glyph-name="kcommaaccent" unicode="&#x137;" horiz-adv-x="457" 
d="M428 21q-4 -21 -38 -21h-28q-31 0 -38 15l-81 198l-51 -44l-27 -125q-5 -26 -16 -35t-37 -9h-6q-27 0 -34 9.5t-1 35.5l128 604q6 27 17.5 36t37.5 9h9q27 0 33.5 -9.5t0.5 -34.5l-73 -345l165 147q22 20 55 20h33q10 0 15.5 -0.5t10.5 -5t3 -13.5q-1 -6 -16 -20
l-167 -148l102 -248q5 -9 3 -16zM246 -140q-4 -18 -14 -32q-34 -50 -54 -77q-7 -11 -11 -13t-18 -2q-15 0 -19 1.5t-3 9.5q2 12 44 89q-18 0 -21 3.5t1 20.5l10 48q4 18 8 21t20 3h51q16 0 18 -3t-2 -21z" />
    <glyph glyph-name="Lacute" unicode="&#x139;" horiz-adv-x="514" 
d="M483 45q-6 -25 -16 -35t-38 -10h-303q-27 0 -34 9.5t-1 35.5l128 604q6 27 17.5 36t37.5 9h33q27 0 33.5 -9.5t0.5 -34.5l-120 -563l229 4q28 0 34 -14.5t-1 -31.5zM528 852l-208 -99h-67q-6 0 -8.5 3t-1 7t6.5 8l148 103h127q9 0 11.5 -4.5t-0.5 -9.5t-8 -8z" />
    <glyph glyph-name="lacute" unicode="&#x13a;" horiz-adv-x="219" 
d="M172 44q-5 -26 -16 -35t-37 -9h-19q-27 0 -34 9.5t-1 35.5l128 604q6 27 17.5 36t37.5 9h19q27 0 33.5 -9.5t0.5 -34.5zM502 852l-208 -99h-67q-6 0 -8.5 3t-1 7t6.5 8l148 103h127q9 0 11.5 -4.5t-0.5 -9.5t-8 -8z" />
    <glyph glyph-name="Lcommaaccent" unicode="&#x13b;" horiz-adv-x="514" 
d="M483 45q-6 -25 -16 -35t-38 -10h-303q-27 0 -34 9.5t-1 35.5l128 604q6 27 17.5 36t37.5 9h33q27 0 33.5 -9.5t0.5 -34.5l-120 -563l229 4q28 0 34 -14.5t-1 -31.5zM274 -140q-4 -18 -14 -32q-34 -50 -54 -77q-7 -11 -11 -13t-18 -2q-15 0 -19 1.5t-3 9.5q2 12 44 89
q-18 0 -21 3.5t1 20.5l10 48q4 18 8 21t20 3h51q16 0 18 -3t-2 -21z" />
    <glyph glyph-name="lcommaaccent" unicode="&#x13c;" horiz-adv-x="219" 
d="M172 44q-5 -26 -16 -35t-37 -9h-19q-27 0 -34 9.5t-1 35.5l128 604q6 27 17.5 36t37.5 9h19q27 0 33.5 -9.5t0.5 -34.5zM127 -140q-4 -18 -14 -32q-34 -50 -54 -77q-7 -11 -11 -13t-18 -2t-18.5 1.5t-3.5 9.5q2 12 44 89q-18 0 -21 3.5t1 20.5l10 48q4 18 8 21t20 3h51
q16 0 18 -3t-2 -21z" />
    <glyph glyph-name="Lcaron" unicode="&#x13d;" horiz-adv-x="514" 
d="M483 45q-6 -25 -16 -35t-38 -10h-303q-27 0 -34 9.5t-1 35.5l128 604q6 27 17.5 36t37.5 9h33q27 0 33.5 -9.5t0.5 -34.5l-120 -563l229 4q28 0 34 -14.5t-1 -31.5zM483 622q-4 -18 -13 -32q-41 -58 -55 -77q-7 -11 -11 -13t-18 -2t-18.5 1.5t-3.5 9.5q7 21 44 89
q-18 0 -21 3.5t1 20.5l11 48q4 18 7.5 21t19.5 3h51q16 0 18.5 -3t-1.5 -21z" />
    <glyph glyph-name="lcaron" unicode="&#x13e;" horiz-adv-x="219" 
d="M172 44q-5 -26 -16 -35t-37 -9h-19q-27 0 -34 9.5t-1 35.5l128 604q6 27 17.5 36t37.5 9h19q27 0 33.5 -9.5t0.5 -34.5zM425 622q-4 -18 -13 -32q-41 -58 -55 -77q-7 -11 -11 -13t-18 -2t-18.5 1.5t-3.5 9.5q7 21 44 89q-18 0 -21 3.5t1 20.5l11 48q4 18 7.5 21t19.5 3
h51q16 0 18.5 -3t-1.5 -21z" />
    <glyph glyph-name="Ldot" unicode="&#x13f;" horiz-adv-x="514" 
d="M483 45q-6 -25 -16 -35t-38 -10h-303q-27 0 -34 9.5t-1 35.5l128 604q6 27 17.5 36t37.5 9h33q27 0 33.5 -9.5t0.5 -34.5l-120 -563l229 4q28 0 34 -14.5t-1 -31.5zM535 354q-6 -28 -17.5 -37.5t-37.5 -9.5h-33q-27 0 -33.5 10t-1.5 37l5 24q7 29 18 38t37 9h33
q27 0 34 -9.5t1 -37.5z" />
    <glyph glyph-name="ldot" unicode="&#x140;" horiz-adv-x="358" 
d="M172 44q-5 -26 -16 -35t-37 -9h-19q-27 0 -34 9.5t-1 35.5l128 604q6 27 17.5 36t37.5 9h19q27 0 33.5 -9.5t0.5 -34.5zM424 354q-6 -28 -17.5 -37.5t-37.5 -9.5h-33q-27 0 -33.5 10t-1.5 37l5 24q7 29 18 38t37 9h33q27 0 34 -9.5t1 -37.5z" />
    <glyph glyph-name="Lslash" unicode="&#x141;" horiz-adv-x="593" 
d="M567 45q-6 -25 -16 -35t-38 -10h-303q-27 0 -34 9.5t-1 35.5l46 219l-49 -39q-15 -12 -26 1l-22 31q-10 13 6 26l114 89l59 277q6 27 17.5 36t37.5 9h33q27 0 33.5 -9.5t0.5 -34.5l-35 -164l132 102q15 13 26 -1l22 -30q11 -14 -6 -27l-197 -153l-62 -290l229 4
q28 0 34 -14.5t-1 -31.5z" />
    <glyph glyph-name="lslash" unicode="&#x142;" horiz-adv-x="328" 
d="M424 552q16 -24 -11 -46l-118 -92l-79 -370q-5 -26 -16 -35t-37 -9h-19q-27 0 -34 9.5t-1 35.5l57 268l-45 -35q-27 -21 -45 2q-8 10 -5 23.5t15 22.5l99 77l52 246q6 27 17.5 36t37.5 9h19q27 0 33.5 -9.5t0.5 -34.5l-31 -146l64 50q12 10 25.5 9.5t20.5 -11.5z" />
    <glyph glyph-name="Nacute" unicode="&#x143;" horiz-adv-x="678" 
d="M605 44q-5 -26 -16 -35t-37 -9h-73q-27 0 -38.5 8t-15.5 32l-96 442q-15 73 -18 106h-1l-116 -544q-5 -26 -16 -35t-37 -9h-15q-27 0 -34 9.5t-1 35.5l128 604q6 27 17.5 36t37.5 9h72q27 0 38 -8t16 -32l95 -442q17 -83 19 -106h1l115 544q5 26 16.5 35t37.5 9h16
q27 0 33.5 -9.5t0.5 -34.5zM696 852l-208 -99h-67q-6 0 -8.5 3t-1 7t6.5 8l148 103h127q9 0 11.5 -4.5t-0.5 -9.5t-8 -8z" />
    <glyph glyph-name="nacute" unicode="&#x144;" horiz-adv-x="483" 
d="M437 44q-5 -26 -16 -35t-37 -9h-23q-27 0 -33.5 9.5t-1.5 34.5l63 294q10 42 2 61t-39 19q-39 0 -76.5 -35.5t-50.5 -99.5l-51 -239q-5 -26 -16 -35t-37 -9h-22q-27 0 -34 9.5t-1 35.5l82 388q6 27 17.5 36t37.5 9h16q27 0 33.5 -9.5t0.5 -34.5l-11 -54h1q67 102 161 102
q72 0 92.5 -36.5t6.5 -103.5zM521 683q-1 -6 -13 -15l-161 -122h-31h-10.5t-7.5 1t-5 3.5t0 6.5t12 15l103 111q11 11 31 11h61q14 0 18.5 -1.5t2.5 -9.5z" />
    <glyph glyph-name="Ncommaaccent" unicode="&#x145;" horiz-adv-x="678" 
d="M605 44q-5 -26 -16 -35t-37 -9h-73q-27 0 -38.5 8t-15.5 32l-96 442q-15 73 -18 106h-1l-116 -544q-5 -26 -16 -35t-37 -9h-15q-27 0 -34 9.5t-1 35.5l128 604q6 27 17.5 36t37.5 9h72q27 0 38 -8t16 -32l95 -442q17 -83 19 -106h1l115 544q5 26 16.5 35t37.5 9h16
q27 0 33.5 -9.5t0.5 -34.5zM356 -140q-4 -18 -14 -32q-34 -50 -54 -77q-7 -11 -11 -13t-18 -2q-15 0 -19 1.5t-3 9.5q2 12 44 89q-18 0 -21 3.5t1 20.5l10 48q4 18 8 21t20 3h51q16 0 18 -3t-2 -21z" />
    <glyph glyph-name="ncommaaccent" unicode="&#x146;" horiz-adv-x="483" 
d="M437 44q-5 -26 -16 -35t-37 -9h-23q-27 0 -33.5 9.5t-1.5 34.5l63 294q10 42 2 61t-39 19q-39 0 -76.5 -35.5t-50.5 -99.5l-51 -239q-5 -26 -16 -35t-37 -9h-22q-27 0 -34 9.5t-1 35.5l82 388q6 27 17.5 36t37.5 9h16q27 0 33.5 -9.5t0.5 -34.5l-11 -54h1q67 102 161 102
q72 0 92.5 -36.5t6.5 -103.5zM259 -140q-4 -18 -14 -32q-34 -50 -54 -77q-7 -11 -11 -13t-18 -2t-18.5 1.5t-3.5 9.5q2 12 44 89q-18 0 -21 3.5t1 20.5l10 48q4 18 8 21t20 3h51q16 0 18 -3t-2 -21z" />
    <glyph glyph-name="Ncaron" unicode="&#x147;" horiz-adv-x="678" 
d="M605 44q-5 -26 -16 -35t-37 -9h-73q-27 0 -38.5 8t-15.5 32l-96 442q-15 73 -18 106h-1l-116 -544q-5 -26 -16 -35t-37 -9h-15q-27 0 -34 9.5t-1 35.5l128 604q6 27 17.5 36t37.5 9h72q27 0 38 -8t16 -32l95 -442q17 -83 19 -106h1l115 544q5 26 16.5 35t37.5 9h16
q27 0 33.5 -9.5t0.5 -34.5zM692 850l-132 -104q-3 -3 -8 -3h-111q-5 0 -8 3l-85 102q-5 5 0 13.5t13 8.5h47l5 -1l94 -81l130 81l5 1h47q5 0 7.5 -3.5t1.5 -8.5t-6 -8z" />
    <glyph glyph-name="ncaron" unicode="&#x148;" horiz-adv-x="483" 
d="M437 44q-5 -26 -16 -35t-37 -9h-23q-27 0 -33.5 9.5t-1.5 34.5l63 294q10 42 2 61t-39 19q-39 0 -76.5 -35.5t-50.5 -99.5l-51 -239q-5 -26 -16 -35t-37 -9h-22q-27 0 -34 9.5t-1 35.5l82 388q6 27 17.5 36t37.5 9h16q27 0 33.5 -9.5t0.5 -34.5l-11 -54h1q67 102 161 102
q72 0 92.5 -36.5t6.5 -103.5zM548 682l-128 -139q-3 -4 -9 -4h-111q-6 0 -9 4l-65 137q-3 6 2 13.5t12 7.5h47q4 -1 6 -2l76 -101l120 101l6 2h47q7 0 9 -6.5t-3 -12.5z" />
    <glyph glyph-name="Eng" unicode="&#x14a;" horiz-adv-x="678" 
d="M670 347q-29 -136 -98 -239.5t-165 -122.5q-16 -3 -25 7t-5 26l8 38q6 28 45 44q26 11 45 34.5t33.5 64.5t21.5 68t18 80q6 30 9 45.5t8 43.5t5.5 43.5t1 38t-4.5 35t-12.5 25t-21.5 18t-32 5.5q-62 0 -117.5 -40t-82.5 -100l-89 -417q-5 -26 -16 -35t-37 -9h-33
q-27 0 -34 9.5t-1 35.5l128 604q6 27 17.5 36t37.5 9h33q25 0 32 -8.5t3 -29.5q87 57 183 57q57 0 94.5 -31.5t52 -84.5t14 -116t-15.5 -134z" />
    <glyph glyph-name="eng" unicode="&#x14b;" horiz-adv-x="483" 
d="M437 44q-15 -75 -62 -135t-108 -77q-15 -4 -24 6.5t-6 26.5l3 11q1 9 44 54q23 24 42 114l63 294q10 42 2 61t-39 19q-39 0 -76.5 -35.5t-50.5 -99.5l-51 -239q-5 -26 -16 -35t-37 -9h-22q-27 0 -34 9.5t-1 35.5l82 388q6 27 17.5 36t37.5 9h16q27 0 33.5 -9.5t0.5 -34.5
l-11 -54h1q67 102 161 102q72 0 92.5 -36.5t6.5 -103.5z" />
    <glyph glyph-name="Omacron" unicode="&#x14c;" horiz-adv-x="697" 
d="M716 342q-38 -177 -137 -270q-96 -91 -235 -91q-67 0 -118 23.5t-77 63.5q-62 96 -23 274q35 164 121 261q47 53 114 81.5t139 28.5q159 0 211 -125q37 -91 5 -246zM597 358q28 134 8 198q-8 27 -23.5 45.5t-34 27t-33 11.5t-29.5 3q-91 0 -154 -82q-48 -61 -80 -203
q-28 -130 -13 -201q13 -59 48 -81.5t73 -22.5q98 0 165 103q46 73 73 202zM688 789q-4 -19 -8.5 -22.5t-22.5 -3.5h-291q-19 0 -21.5 3.5t1.5 22.5l4 21q4 19 8.5 22.5t22.5 3.5h292q18 0 20.5 -3t-1.5 -23z" />
    <glyph glyph-name="omacron" unicode="&#x14d;" 
d="M497 232q-23 -117 -94 -180q-68 -62 -168 -62q-103 0 -145 64q-38 63 -15 178q24 114 90 183q69 72 176 72q103 0 144 -70q38 -65 12 -185zM389 244q5 23 7.5 36.5t5 38.5t-0.5 40t-10 31.5t-23.5 24.5t-40.5 8q-29 0 -51.5 -13t-36 -29.5t-25 -45.5t-15.5 -46t-10 -45
q-4 -21 -6.5 -32t-5 -33.5t-2 -36t4 -31t12 -27.5t23 -17t35.5 -7q29 0 52 13.5t36 31t24.5 47t16 47t10.5 45.5zM539 610q-4 -19 -8.5 -22.5t-22.5 -3.5h-291q-19 0 -21.5 3.5t1.5 22.5l4 21q4 19 8.5 22.5t22.5 3.5h292q18 0 20.5 -3.5t-1.5 -22.5z" />
    <glyph glyph-name="Obreve" unicode="&#x14e;" horiz-adv-x="697" 
d="M716 342q-38 -177 -137 -270q-96 -91 -235 -91q-67 0 -118 23.5t-77 63.5q-62 96 -23 274q35 164 121 261q47 53 114 81.5t139 28.5q159 0 211 -125q37 -91 5 -246zM597 358q28 134 8 198q-8 27 -23.5 45.5t-34 27t-33 11.5t-29.5 3q-91 0 -154 -82q-48 -61 -80 -203
q-28 -130 -13 -201q13 -59 48 -81.5t73 -22.5q98 0 165 103q46 73 73 202zM694 857q-9 -42 -56 -73t-129 -31q-81 0 -115.5 31t-25.5 73q4 19 16.5 27t22.5 8q28 0 26 -32q-1 -9 8 -15.5t27 -8.5t29.5 -2.5t28.5 -0.5q95 0 104 24q10 35 39 35q11 0 20 -8.5t5 -26.5z" />
    <glyph glyph-name="obreve" unicode="&#x14f;" 
d="M497 232q-23 -117 -94 -180q-68 -62 -168 -62q-103 0 -145 64q-38 63 -15 178q24 114 90 183q69 72 176 72q103 0 144 -70q38 -65 12 -185zM389 244q5 23 7.5 36.5t5 38.5t-0.5 40t-10 31.5t-23.5 24.5t-40.5 8q-29 0 -51.5 -13t-36 -29.5t-25 -45.5t-15.5 -46t-10 -45
q-4 -21 -6.5 -32t-5 -33.5t-2 -36t4 -31t12 -27.5t23 -17t35.5 -7q29 0 52 13.5t36 31t24.5 47t16 47t10.5 45.5zM540 655q-9 -42 -56 -73t-129 -31q-81 0 -115 31t-26 73q4 19 16.5 27t23.5 8q27 0 25 -32q-1 -9 8 -15.5t27 -8.5t29.5 -2.5t28.5 -0.5q95 0 104 24
q10 35 40 35q11 0 19.5 -8.5t4.5 -26.5z" />
    <glyph glyph-name="Ohungarumlaut" unicode="&#x150;" horiz-adv-x="697" 
d="M716 342q-38 -177 -137 -270q-96 -91 -235 -91q-67 0 -118 23.5t-77 63.5q-62 96 -23 274q35 164 121 261q47 53 114 81.5t139 28.5q159 0 211 -125q37 -91 5 -246zM597 358q28 134 8 198q-8 27 -23.5 45.5t-34 27t-33 11.5t-29.5 3q-91 0 -154 -82q-48 -61 -80 -203
q-28 -130 -13 -201q13 -59 48 -81.5t73 -22.5q98 0 165 103q46 73 73 202zM536 890q-1 -4 -9 -14l-85 -109q-8 -10 -12.5 -12t-19.5 -2h-13q-10 0 -14.5 0.5t-7.5 3t-2 8.5l49 115q6 15 10.5 18t20.5 3h61q14 0 18.5 -1.5t3.5 -9.5zM694 890q-1 -4 -9 -14l-85 -109
q-8 -10 -12.5 -12t-19.5 -2h-13q-10 0 -14.5 0.5t-7.5 3t-2 8.5l49 115q6 15 10.5 18t20.5 3h61q14 0 18.5 -1.5t3.5 -9.5z" />
    <glyph glyph-name="ohungarumlaut" unicode="&#x151;" 
d="M497 232q-23 -117 -94 -180q-68 -62 -168 -62q-103 0 -145 64q-38 63 -15 178q24 114 90 183q69 72 176 72q103 0 144 -70q38 -65 12 -185zM389 244q5 23 7.5 36.5t5 38.5t-0.5 40t-10 31.5t-23.5 24.5t-40.5 8q-29 0 -51.5 -13t-36 -29.5t-25 -45.5t-15.5 -46t-10 -45
q-4 -21 -6.5 -32t-5 -33.5t-2 -36t4 -31t12 -27.5t23 -17t35.5 -7q29 0 52 13.5t36 31t24.5 47t16 47t10.5 45.5zM381 683q-1 -4 -9 -14l-85 -109q-8 -10 -12.5 -12t-19.5 -2h-13h-11t-7 1.5t-5 4t0 6.5l48 115q6 15 10.5 18t21.5 3h61q14 0 18.5 -1.5t2.5 -9.5zM539 683
q-1 -4 -9 -14l-85 -109q-8 -10 -12.5 -12t-19.5 -2h-13h-11t-7 1.5t-5 4t0 6.5l48 115q6 15 10.5 18t21.5 3h61q14 0 18.5 -1.5t2.5 -9.5z" />
    <glyph glyph-name="OE" unicode="&#x152;" horiz-adv-x="925" 
d="M893 44q-5 -26 -16 -35t-37 -9h-328q-30 0 -84 -9q-63 -10 -90 -10q-157 0 -218 103q-54 93 -19 258q37 178 144 277q50 47 116 70.5t133 23.5q26 0 85 -10q51 -9 81 -9h315q28 0 34.5 -12t-0.5 -33q-5 -22 -14 -32t-18 -11.5t-29 -1.5l-206 3h-43l-44 -207h231
q11 0 16 -0.5t13 -4.5t7.5 -12.5t-1.5 -23.5q-4 -19 -13.5 -28t-17 -10.5t-21.5 -1.5h-231l-48 -227l130 2l134 2q12 0 17 -0.5t13.5 -2.5t9 -6.5t3.5 -13t-2 -21.5zM524 347q38 180 40 214q4 46 -10.5 67t-69.5 21q-41 0 -76.5 -14t-60 -34t-46 -51t-33.5 -55t-23 -57
t-14.5 -46.5t-7.5 -32.5q-29 -141 -3 -218q15 -45 50 -70.5t86 -25.5q30 0 51.5 8t34.5 19t23.5 38t16 48.5t15.5 67.5z" />
    <glyph glyph-name="oe" unicode="&#x153;" horiz-adv-x="739" 
d="M771 276q-5 -25 -16 -34.5t-38 -9.5h-217q-33 -178 71 -178q71 0 132 63q8 8 14 8q7 0 8 -5t-1 -19q0 -20 -4 -36q-4 -18 -55.5 -46.5t-110.5 -28.5q-102 0 -145 67q-73 -67 -174 -67q-104 0 -144 68q-39 65 -14 181q25 114 89 178q68 70 175 70q98 0 144 -64
q71 64 163 64q88 0 118 -64q24 -54 5 -147zM682 279q4 21 6 34.5t2.5 36.5t-4.5 37t-17.5 25t-33.5 11q-42 0 -75 -41.5t-49 -102.5h171zM392 243q5 23 6.5 35t4.5 37.5t-0.5 40.5t-10.5 32.5t-23.5 26t-41.5 8.5q-30 0 -54.5 -14t-38.5 -31.5t-25.5 -46.5t-16 -46t-9.5 -42
q-5 -21 -7 -34t-5 -39t0 -43t10 -35.5t24.5 -28t42.5 -9.5q29 0 53 15t38 33.5t26.5 50t16.5 47.5t10 43z" />
    <glyph glyph-name="Racute" unicode="&#x154;" horiz-adv-x="614" 
d="M578 22q-5 -22 -40 -22h-42q-21 0 -27 4t-11 20l-86 291h-105l-58 -271q-5 -26 -16 -35t-37 -9h-30q-27 0 -34 9.5t-1 35.5l128 604q6 27 17.5 36t37.5 9h199q117 0 164.5 -53.5t28.5 -140.5q-29 -136 -180 -176l89 -287q4 -12 3 -15zM552 499q12 57 -8.5 88.5
t-100.5 31.5h-111l-51 -240h110q81 0 115 32t46 88zM664 852l-208 -99h-67q-6 0 -8.5 3t-1 7t6.5 8l148 103h127q9 0 11.5 -4.5t-0.5 -9.5t-8 -8z" />
    <glyph glyph-name="racute" unicode="&#x155;" horiz-adv-x="321" 
d="M398 427q-4 -18 -7.5 -21.5t-16.5 -4.5q-54 -5 -98.5 -46.5t-59.5 -108.5l-43 -202q-5 -26 -16 -35t-37 -9h-19q-27 0 -34 9.5t-1 35.5l82 388q6 27 17.5 36t37.5 9h14q27 0 33.5 -9.5t0.5 -34.5l-14 -66h1q33 58 75 86t80 28q11 0 13 -5t-2 -21zM402 683q-1 -6 -13 -15
l-161 -122h-31h-10.5t-7.5 1t-5 3.5t0 6.5t12 15l103 111q11 11 31 11h61q14 0 18.5 -1.5t2.5 -9.5z" />
    <glyph glyph-name="Rcommaaccent" unicode="&#x156;" horiz-adv-x="614" 
d="M578 22q-5 -22 -40 -22h-42q-21 0 -27 4t-11 20l-86 291h-105l-58 -271q-5 -26 -16 -35t-37 -9h-30q-27 0 -34 9.5t-1 35.5l128 604q6 27 17.5 36t37.5 9h199q117 0 164.5 -53.5t28.5 -140.5q-29 -136 -180 -176l89 -287q4 -12 3 -15zM552 499q12 57 -8.5 88.5
t-100.5 31.5h-111l-51 -240h110q81 0 115 32t46 88zM324 -140q-4 -18 -14 -32q-34 -50 -54 -77q-7 -11 -11 -13t-18 -2q-15 0 -19 1.5t-3 9.5q2 12 44 89q-18 0 -21 3.5t1 20.5l10 48q4 18 8 21t20 3h51q16 0 18 -3t-2 -21z" />
    <glyph glyph-name="rcommaaccent" unicode="&#x157;" horiz-adv-x="321" 
d="M398 427q-4 -18 -7.5 -21.5t-16.5 -4.5q-54 -5 -98.5 -46.5t-59.5 -108.5l-43 -202q-5 -26 -16 -35t-37 -9h-19q-27 0 -34 9.5t-1 35.5l82 388q6 27 17.5 36t37.5 9h14q27 0 33.5 -9.5t0.5 -34.5l-14 -66h1q33 58 75 86t80 28q11 0 13 -5t-2 -21zM128 -140
q-4 -18 -14 -32q-34 -50 -54 -77q-7 -11 -11 -13t-18 -2q-15 0 -19 1.5t-3 9.5q2 12 44 89q-18 0 -21 3.5t1 20.5l10 48q4 18 8 21t20 3h51q16 0 18 -3t-2 -21z" />
    <glyph glyph-name="Rcaron" unicode="&#x158;" horiz-adv-x="614" 
d="M578 22q-5 -22 -40 -22h-42q-21 0 -27 4t-11 20l-86 291h-105l-58 -271q-5 -26 -16 -35t-37 -9h-30q-27 0 -34 9.5t-1 35.5l128 604q6 27 17.5 36t37.5 9h199q117 0 164.5 -53.5t28.5 -140.5q-29 -136 -180 -176l89 -287q4 -12 3 -15zM552 499q12 57 -8.5 88.5
t-100.5 31.5h-111l-51 -240h110q81 0 115 32t46 88zM660 850l-132 -104q-3 -3 -8 -3h-111q-5 0 -8 3l-85 102q-5 5 0 13.5t13 8.5h47l5 -1l94 -81l130 81l5 1h47q5 0 7.5 -3.5t1.5 -8.5t-6 -8z" />
    <glyph glyph-name="rcaron" unicode="&#x159;" horiz-adv-x="321" 
d="M398 427q-4 -18 -7.5 -21.5t-16.5 -4.5q-54 -5 -98.5 -46.5t-59.5 -108.5l-43 -202q-5 -26 -16 -35t-37 -9h-19q-27 0 -34 9.5t-1 35.5l82 388q6 27 17.5 36t37.5 9h14q27 0 33.5 -9.5t0.5 -34.5l-14 -66h1q33 58 75 86t80 28q11 0 13 -5t-2 -21zM467 682l-128 -139
q-3 -4 -9 -4h-111q-6 0 -9 4l-65 137q-3 6 2 13.5t12 7.5h47q4 -1 6 -2l76 -101l120 101l6 2h47q7 0 9 -6.5t-3 -12.5z" />
    <glyph glyph-name="Sacute" unicode="&#x15a;" horiz-adv-x="528" 
d="M515 195q-20 -96 -85.5 -155t-170.5 -59q-102 0 -180 55q-19 13 -22 16.5t-2 10.5q10 32 29 74q6 14 15 14q5 0 14 -10q65 -67 165 -67q107 0 130 110q8 40 -6 67.5t-38 38.5q-3 1 -14 4.5t-25.5 7.5t-22.5 6q-32 9 -47.5 14.5t-34.5 19t-36 36.5q-5 7 -11 19.5
t-13.5 45.5t2.5 69q19 88 82.5 144.5t172.5 56.5q84 0 144 -40q15 -10 17.5 -13t1.5 -9q0 -3 -28 -74q-6 -14 -15 -14q-5 0 -11 7q-48 56 -127 56q-108 0 -129 -99q-9 -40 17 -75q10 -12 24 -17.5t59 -18.5q33 -9 49 -14.5t37.5 -20.5t36.5 -38q40 -64 22 -148zM621 852
l-208 -99h-67q-6 0 -8.5 3t-1 7t6.5 8l148 103h127q9 0 11.5 -4.5t-0.5 -9.5t-8 -8z" />
    <glyph glyph-name="sacute" unicode="&#x15b;" horiz-adv-x="364" 
d="M372 140q-32 -150 -186 -150q-50 0 -94 17q-59 25 -55 43q0 3 10 28t13 31q4 12 14 12q6 0 14 -10q40 -52 111 -52q69 0 83 65q4 20 0.5 33.5t-16 21.5t-22 11t-28.5 8q-135 30 -110 148q30 141 185 141q65 0 112 -27q13 -7 15.5 -10t1.5 -9q-4 -14 -15 -37
q-7 -18 -10.5 -22.5t-9.5 -4.5q-5 0 -10 5q-40 43 -104 43q-63 0 -75 -59q-2 -9 -2 -17t2 -14t4.5 -10.5t8.5 -8.5t10.5 -6.5t13.5 -5t13.5 -3.5t15.5 -4q24 -5 36.5 -9t29 -15.5t29.5 -29.5q27 -44 15 -103zM462 683q-1 -6 -13 -15l-161 -122h-31h-10.5t-7.5 1t-5 3.5
t0 6.5t12 15l103 111q11 11 31 11h61q14 0 18.5 -1.5t2.5 -9.5z" />
    <glyph glyph-name="Scircumflex" unicode="&#x15c;" horiz-adv-x="528" 
d="M515 195q-20 -96 -85.5 -155t-170.5 -59q-102 0 -180 55q-19 13 -22 16.5t-2 10.5q10 32 29 74q6 14 15 14q5 0 14 -10q65 -67 165 -67q107 0 130 110q8 40 -6 67.5t-38 38.5q-3 1 -14 4.5t-25.5 7.5t-22.5 6q-32 9 -47.5 14.5t-34.5 19t-36 36.5q-5 7 -11 19.5
t-13.5 45.5t2.5 69q19 88 82.5 144.5t172.5 56.5q84 0 144 -40q15 -10 17.5 -13t1.5 -9q0 -3 -28 -74q-6 -14 -15 -14q-5 0 -11 7q-48 56 -127 56q-108 0 -129 -99q-9 -40 17 -75q10 -12 24 -17.5t59 -18.5q33 -9 49 -14.5t37.5 -20.5t36.5 -38q40 -64 22 -148zM599 765
q5 -5 0.5 -13.5t-12.5 -8.5h-47l-5 1l-95 81l-129 -81l-5 -1h-47q-8 0 -9.5 7.5t5.5 12.5l132 104q5 3 9 3h111q5 0 7 -3z" />
    <glyph glyph-name="scircumflex" unicode="&#x15d;" horiz-adv-x="364" 
d="M372 140q-32 -150 -186 -150q-50 0 -94 17q-59 25 -55 43q0 3 10 28t13 31q4 12 14 12q6 0 14 -10q40 -52 111 -52q69 0 83 65q4 20 0.5 33.5t-16 21.5t-22 11t-28.5 8q-135 30 -110 148q30 141 185 141q65 0 112 -27q13 -7 15.5 -10t1.5 -9q-4 -14 -15 -37
q-7 -18 -10.5 -22.5t-9.5 -4.5q-5 0 -10 5q-40 43 -104 43q-63 0 -75 -59q-2 -9 -2 -17t2 -14t4.5 -10.5t8.5 -8.5t10.5 -6.5t13.5 -5t13.5 -3.5t15.5 -4q24 -5 36.5 -9t29 -15.5t29.5 -29.5q27 -44 15 -103zM463 560q2 -6 -2.5 -13.5t-11.5 -7.5h-47q-4 1 -6 2l-77 101
l-119 -101l-6 -2h-47q-7 0 -9 6.5t3 12.5l127 139q4 4 10 4h111q7 0 8 -4z" />
    <glyph glyph-name="Scedilla" unicode="&#x15e;" horiz-adv-x="528" 
d="M515 195q-20 -96 -85.5 -155t-170.5 -59q-102 0 -180 55q-19 13 -22 16.5t-2 10.5q10 32 29 74q6 14 15 14q5 0 14 -10q65 -67 165 -67q107 0 130 110q8 40 -6 67.5t-38 38.5q-3 1 -14 4.5t-25.5 7.5t-22.5 6q-32 9 -47.5 14.5t-34.5 19t-36 36.5q-5 7 -11 19.5
t-13.5 45.5t2.5 69q19 88 82.5 144.5t172.5 56.5q84 0 144 -40q15 -10 17.5 -13t1.5 -9q0 -3 -28 -74q-6 -14 -15 -14q-5 0 -11 7q-48 56 -127 56q-108 0 -129 -99q-9 -40 17 -75q10 -12 24 -17.5t59 -18.5q33 -9 49 -14.5t37.5 -20.5t36.5 -38q40 -64 22 -148zM299 -51
q-2 -7 -7 -14l-68 -104q-7 -11 -11.5 -13t-20.5 -2h-36h-10.5t-7.5 1t-5 3.5t0 6.5t9 14l91 106q8 9 12 11t18 2h13h10.5t7.5 -1t5 -3.5t0 -6.5z" />
    <glyph glyph-name="scedilla" unicode="&#x15f;" horiz-adv-x="364" 
d="M372 140q-32 -150 -186 -150q-50 0 -94 17q-59 25 -55 43q0 3 10 28t13 31q4 12 14 12q6 0 14 -10q40 -52 111 -52q69 0 83 65q4 20 0.5 33.5t-16 21.5t-22 11t-28.5 8q-135 30 -110 148q30 141 185 141q65 0 112 -27q13 -7 15.5 -10t1.5 -9q-4 -14 -15 -37
q-7 -18 -10.5 -22.5t-9.5 -4.5q-5 0 -10 5q-40 43 -104 43q-63 0 -75 -59q-2 -9 -2 -17t2 -14t4.5 -10.5t8.5 -8.5t10.5 -6.5t13.5 -5t13.5 -3.5t15.5 -4q24 -5 36.5 -9t29 -15.5t29.5 -29.5q27 -44 15 -103zM217 -51q-2 -7 -7 -14l-68 -104q-7 -11 -11.5 -13t-20.5 -2h-36
h-10.5t-7.5 1t-5 3.5t0 6.5t9 14l91 106q8 9 12 11t18 2h13h10.5t7.5 -1t5 -3.5t0 -6.5z" />
    <glyph glyph-name="Scaron" unicode="&#x160;" horiz-adv-x="528" 
d="M515 195q-20 -96 -85.5 -155t-170.5 -59q-102 0 -180 55q-19 13 -22 16.5t-2 10.5q10 32 29 74q6 14 15 14q5 0 14 -10q65 -67 165 -67q107 0 130 110q8 40 -6 67.5t-38 38.5q-3 1 -14 4.5t-25.5 7.5t-22.5 6q-32 9 -47.5 14.5t-34.5 19t-36 36.5q-5 7 -11 19.5
t-13.5 45.5t2.5 69q19 88 82.5 144.5t172.5 56.5q84 0 144 -40q15 -10 17.5 -13t1.5 -9q0 -3 -28 -74q-6 -14 -15 -14q-5 0 -11 7q-48 56 -127 56q-108 0 -129 -99q-9 -40 17 -75q10 -12 24 -17.5t59 -18.5q33 -9 49 -14.5t37.5 -20.5t36.5 -38q40 -64 22 -148zM617 850
l-132 -104q-3 -3 -8 -3h-111q-5 0 -8 3l-85 102q-5 5 0 13.5t13 8.5h47l5 -1l94 -81l130 81l5 1h47q5 0 7.5 -3.5t1.5 -8.5t-6 -8z" />
    <glyph glyph-name="scaron" unicode="&#x161;" horiz-adv-x="364" 
d="M372 140q-32 -150 -186 -150q-50 0 -94 17q-59 25 -55 43q0 3 10 28t13 31q4 12 14 12q6 0 14 -10q40 -52 111 -52q69 0 83 65q4 20 0.5 33.5t-16 21.5t-22 11t-28.5 8q-135 30 -110 148q30 141 185 141q65 0 112 -27q13 -7 15.5 -10t1.5 -9q-4 -14 -15 -37
q-7 -18 -10.5 -22.5t-9.5 -4.5q-5 0 -10 5q-40 43 -104 43q-63 0 -75 -59q-2 -9 -2 -17t2 -14t4.5 -10.5t8.5 -8.5t10.5 -6.5t13.5 -5t13.5 -3.5t15.5 -4q24 -5 36.5 -9t29 -15.5t29.5 -29.5q27 -44 15 -103zM489 682l-128 -139q-3 -4 -9 -4h-111q-6 0 -9 4l-65 137
q-3 6 2 13.5t12 7.5h47q4 -1 6 -2l76 -101l120 101l6 2h47q7 0 9 -6.5t-3 -12.5z" />
    <glyph glyph-name="Tcedilla" unicode="&#x162;" horiz-adv-x="644" 
d="M746 643q-6 -28 -17.5 -36.5t-38.5 -8.5l-179 3l-119 -557q-5 -26 -16 -35t-37 -9h-33q-27 0 -34 9.5t-1 35.5l118 556l-181 -3q-28 0 -35.5 8.5t-1.5 36.5q5 27 16 36t38 9h486q28 0 35 -12t0 -33zM347 -32q-2 -7 -7 -14l-68 -104q-8 -11 -12.5 -13t-20.5 -2h-36h-10.5
t-7 1t-4.5 3.5t0 6.5t9 14l90 106q8 9 12.5 11t18.5 2h13h10.5t7.5 -1t5 -3.5t0 -6.5z" />
    <glyph glyph-name="tcedilla" unicode="&#x163;" horiz-adv-x="346" 
d="M329 50q-2 -8 -25 -21.5t-62.5 -26t-76.5 -12.5q-89 0 -60 131l61 287h-17q-11 0 -18 1t-14.5 8.5t-4.5 22.5q6 32 51 32h19l19 90q6 27 17.5 36t37.5 9h13q27 0 33.5 -9.5t1.5 -34.5l-20 -91h74q11 0 18 -1t15 -8.5t5 -22.5q-7 -32 -51 -32h-74l-57 -269q-18 -79 17 -79
q39 0 69 28q11 12 17 12q9 0 11 -21q0 -3 0.5 -15t0.5 -14zM218 -32q-2 -7 -7 -14l-68 -104q-7 -11 -11.5 -13t-20.5 -2h-36h-10.5t-7.5 1t-5 3.5t0 6.5t9 14l91 106q8 9 12.5 11t18.5 2h13h10.5t7 -1t4.5 -3.5t0 -6.5z" />
    <glyph glyph-name="Tcaron" unicode="&#x164;" horiz-adv-x="644" 
d="M746 643q-6 -28 -17.5 -36.5t-38.5 -8.5l-179 3l-119 -557q-5 -26 -16 -35t-37 -9h-33q-27 0 -34 9.5t-1 35.5l118 556l-181 -3q-28 0 -35.5 8.5t-1.5 36.5q5 27 16 36t38 9h486q28 0 35 -12t0 -33zM675 850l-132 -104q-3 -3 -8 -3h-111q-5 0 -8 3l-85 102q-5 5 0 13.5
t13 8.5h47l5 -1l94 -81l130 81l5 1h47q5 0 7.5 -3.5t1.5 -8.5t-6 -8z" />
    <glyph glyph-name="tcaron" unicode="&#x165;" horiz-adv-x="346" 
d="M329 50q-2 -8 -25 -21.5t-62.5 -26t-76.5 -12.5q-89 0 -60 131l61 287h-17q-11 0 -18 1t-14.5 8.5t-4.5 22.5q6 32 51 32h19l19 90q6 27 17.5 36t37.5 9h13q27 0 33.5 -9.5t1.5 -34.5l-20 -91h74q11 0 18 -1t15 -8.5t5 -22.5q-7 -32 -51 -32h-74l-57 -269q-18 -79 17 -79
q39 0 69 28q11 12 17 12q9 0 11 -21q0 -3 0.5 -15t0.5 -14zM448 631q-4 -18 -14 -32q-34 -50 -54 -77q-7 -11 -11 -13t-18 -2q-15 0 -19 1.5t-3 9.5q2 12 44 89q-18 0 -21 3.5t1 20.5l10 48q4 18 7.5 21t19.5 3h51q16 0 18.5 -3t-1.5 -21z" />
    <glyph glyph-name="Utilde" unicode="&#x168;" horiz-adv-x="657" 
d="M623 228q-23 -109 -99.5 -178t-197.5 -69t-170.5 68.5t-26.5 178.5l90 421q6 27 17.5 36t37.5 9h33q27 0 33.5 -9.5t0.5 -34.5l-90 -423q-36 -171 92 -171q135 0 169 172l90 422q5 26 16.5 35t37.5 9h23q27 0 33.5 -9.5t0.5 -34.5zM666 845q-7 -35 -40 -68.5t-76 -33.5
q-39 0 -73 32q-25 23 -41 23q-26 0 -40 -40q-4 -11 -8 -13t-20 -2h-13q-17 0 -21 2.5t-2 14.5q8 35 41 68.5t76 33.5q39 0 73 -32q25 -23 40 -23q27 0 41 40q4 11 8 13t20 2h14q16 0 20 -2.5t1 -14.5z" />
    <glyph glyph-name="utilde" unicode="&#x169;" horiz-adv-x="483" 
d="M437 44q-5 -26 -16 -35t-37 -9h-20q-27 0 -33.5 9.5t-1.5 34.5l7 31q-56 -85 -138 -85q-75 0 -103.5 32t-13.5 107l64 298q5 27 16 36t38 9h22q27 0 34 -9.5t1 -34.5l-65 -306q-11 -45 -3 -62t46 -17q46 0 78 41.5t43 96.5l53 247q5 26 16 35t37 9h23q27 0 34 -9.5
t1 -34.5zM541 663q-8 -35 -41 -68.5t-76 -33.5q-39 0 -73 32q-25 23 -40 23q-27 0 -41 -40q-4 -11 -8 -13t-20 -2h-13q-17 0 -21 2.5t-1 14.5q7 35 40.5 68.5t76.5 33.5q39 0 73 -32q25 -23 40 -23q26 0 40 40q4 11 8.5 13t20.5 2h14q16 0 20 -2.5t1 -14.5z" />
    <glyph glyph-name="Umacron" unicode="&#x16a;" horiz-adv-x="657" 
d="M623 228q-23 -109 -99.5 -178t-197.5 -69t-170.5 68.5t-26.5 178.5l90 421q6 27 17.5 36t37.5 9h33q27 0 33.5 -9.5t0.5 -34.5l-90 -423q-36 -171 92 -171q135 0 169 172l90 422q5 26 16.5 35t37.5 9h23q27 0 33.5 -9.5t0.5 -34.5zM668 789q-4 -19 -8.5 -22.5t-22.5 -3.5
h-291q-19 0 -21.5 3.5t1.5 22.5l4 21q4 19 8.5 22.5t22.5 3.5h292q18 0 20.5 -3t-1.5 -23z" />
    <glyph glyph-name="umacron" unicode="&#x16b;" horiz-adv-x="483" 
d="M437 44q-5 -26 -16 -35t-37 -9h-20q-27 0 -33.5 9.5t-1.5 34.5l7 31q-56 -85 -138 -85q-75 0 -103.5 32t-13.5 107l64 298q5 27 16 36t38 9h22q27 0 34 -9.5t1 -34.5l-65 -306q-11 -45 -3 -62t46 -17q46 0 78 41.5t43 96.5l53 247q5 26 16 35t37 9h23q27 0 34 -9.5
t1 -34.5zM543 610q-4 -19 -8.5 -22.5t-22.5 -3.5h-291q-19 0 -21.5 3.5t1.5 22.5l4 21q4 19 8.5 22.5t22.5 3.5h292q18 0 20.5 -3.5t-1.5 -22.5z" />
    <glyph glyph-name="Ubreve" unicode="&#x16c;" horiz-adv-x="657" 
d="M623 228q-23 -109 -99.5 -178t-197.5 -69t-170.5 68.5t-26.5 178.5l90 421q6 27 17.5 36t37.5 9h33q27 0 33.5 -9.5t0.5 -34.5l-90 -423q-36 -171 92 -171q135 0 169 172l90 422q5 26 16.5 35t37.5 9h23q27 0 33.5 -9.5t0.5 -34.5zM674 857q-9 -42 -56 -73t-129 -31
q-81 0 -115.5 31t-25.5 73q4 19 16.5 27t22.5 8q28 0 26 -32q-1 -9 8 -15.5t27 -8.5t29.5 -2.5t28.5 -0.5q95 0 104 24q10 35 39 35q11 0 20 -8.5t5 -26.5z" />
    <glyph glyph-name="ubreve" unicode="&#x16d;" horiz-adv-x="483" 
d="M437 44q-5 -26 -16 -35t-37 -9h-20q-27 0 -33.5 9.5t-1.5 34.5l7 31q-56 -85 -138 -85q-75 0 -103.5 32t-13.5 107l64 298q5 27 16 36t38 9h22q27 0 34 -9.5t1 -34.5l-65 -306q-11 -45 -3 -62t46 -17q46 0 78 41.5t43 96.5l53 247q5 26 16 35t37 9h23q27 0 34 -9.5
t1 -34.5zM544 655q-9 -42 -56 -73t-129 -31q-81 0 -115 31t-26 73q4 19 16.5 27t23.5 8q27 0 25 -32q-1 -9 8 -15.5t27 -8.5t29.5 -2.5t28.5 -0.5q95 0 104 24q10 35 40 35q11 0 19.5 -8.5t4.5 -26.5z" />
    <glyph glyph-name="Uring" unicode="&#x16e;" horiz-adv-x="657" 
d="M623 228q-23 -109 -99.5 -178t-197.5 -69t-170.5 68.5t-26.5 178.5l90 421q6 27 17.5 36t37.5 9h33q27 0 33.5 -9.5t0.5 -34.5l-90 -423q-36 -171 92 -171q135 0 169 172l90 422q5 26 16.5 35t37.5 9h23q27 0 33.5 -9.5t0.5 -34.5zM538 768q3 15 -3 22.5t-14 9t-23 1.5
q-47 0 -54 -33q-3 -15 3 -22.5t14 -9t23 -1.5q47 0 54 33zM597 768q-16 -74 -123 -74q-12 0 -23.5 1.5t-31.5 7.5t-30 22.5t-4 42.5q16 74 123 74q12 0 23.5 -1.5t31.5 -7.5t30 -22.5t4 -42.5z" />
    <glyph glyph-name="uring" unicode="&#x16f;" horiz-adv-x="483" 
d="M437 44q-5 -26 -16 -35t-37 -9h-20q-27 0 -33.5 9.5t-1.5 34.5l7 31q-56 -85 -138 -85q-75 0 -103.5 32t-13.5 107l64 298q5 27 16 36t38 9h22q27 0 34 -9.5t1 -34.5l-65 -306q-11 -45 -3 -62t46 -17q46 0 78 41.5t43 96.5l53 247q5 26 16 35t37 9h23q27 0 34 -9.5
t1 -34.5zM417 609q3 15 -3 22.5t-14 9t-23 1.5q-47 0 -54 -33q-3 -15 3 -22.5t14 -9t23 -1.5q48 0 54 33zM476 609q-15 -74 -122 -74q-9 0 -17 0.5t-25 4.5t-27.5 11t-17.5 22t-3 36q16 74 123 74q12 0 23.5 -1.5t31.5 -7.5t30 -22.5t4 -42.5z" />
    <glyph glyph-name="Uhungarumlaut" unicode="&#x170;" horiz-adv-x="657" 
d="M623 228q-23 -109 -99.5 -178t-197.5 -69t-170.5 68.5t-26.5 178.5l90 421q6 27 17.5 36t37.5 9h33q27 0 33.5 -9.5t0.5 -34.5l-90 -423q-36 -171 92 -171q135 0 169 172l90 422q5 26 16.5 35t37.5 9h23q27 0 33.5 -9.5t0.5 -34.5zM516 890q-1 -4 -9 -14l-85 -109
q-8 -10 -12.5 -12t-19.5 -2h-13q-10 0 -14.5 0.5t-7.5 3t-2 8.5l49 115q6 15 10.5 18t20.5 3h61q14 0 18.5 -1.5t3.5 -9.5zM674 890q-1 -4 -9 -14l-85 -109q-8 -10 -12.5 -12t-19.5 -2h-13q-10 0 -14.5 0.5t-7.5 3t-2 8.5l49 115q6 15 10.5 18t20.5 3h61q14 0 18.5 -1.5
t3.5 -9.5z" />
    <glyph glyph-name="uhungarumlaut" unicode="&#x171;" horiz-adv-x="483" 
d="M437 44q-5 -26 -16 -35t-37 -9h-20q-27 0 -33.5 9.5t-1.5 34.5l7 31q-56 -85 -138 -85q-75 0 -103.5 32t-13.5 107l64 298q5 27 16 36t38 9h22q27 0 34 -9.5t1 -34.5l-65 -306q-11 -45 -3 -62t46 -17q46 0 78 41.5t43 96.5l53 247q5 26 16 35t37 9h23q27 0 34 -9.5
t1 -34.5zM385 683q-1 -4 -9 -14l-85 -109q-8 -10 -12.5 -12t-19.5 -2h-13h-11t-7 1.5t-5 4t0 6.5l48 115q6 15 10.5 18t21.5 3h61q14 0 18.5 -1.5t2.5 -9.5zM543 683q-1 -4 -9 -14l-85 -109q-8 -10 -12.5 -12t-19.5 -2h-13h-11t-7 1.5t-5 4t0 6.5l48 115q6 15 10.5 18
t21.5 3h61q14 0 18.5 -1.5t2.5 -9.5z" />
    <glyph glyph-name="Uogonek" unicode="&#x172;" horiz-adv-x="657" 
d="M623 228q-21 -104 -92 -172t-183 -74q-20 -24 -26 -52q-9 -36 26 -36q27 0 52 11q4 3 11.5 0.5t7.5 -9.5l3 -29q0 -18 -13 -24q-68 -26 -106 -27q-44 -1 -65 26t-12 63q11 45 47 80q-92 15 -128 80.5t-16 162.5l90 421q6 27 17.5 36t37.5 9h33q27 0 33.5 -9.5t0.5 -34.5
l-90 -423q-36 -171 92 -171q135 0 169 172l90 422q5 26 16.5 35t37.5 9h23q27 0 33.5 -9.5t0.5 -34.5z" />
    <glyph glyph-name="uogonek" unicode="&#x173;" horiz-adv-x="483" 
d="M459 -133q0 -18 -13 -24q-68 -26 -106 -27q-44 -1 -65 26t-12 63q14 61 72 100q-12 8 -6 39l7 31q-56 -85 -138 -85q-75 0 -103.5 32t-13.5 107l64 298q5 27 16 36t38 9h22q27 0 34 -9.5t1 -34.5l-65 -306q-11 -45 -3 -62t46 -17q46 0 78 41.5t43 96.5l53 247q5 26 16 35
t37 9h23q27 0 34 -9.5t1 -34.5l-82 -384q-7 -37 -32 -42q-35 -29 -46 -72q-9 -36 26 -36q27 0 52 11q5 3 12 0.5t7 -9.5z" />
    <glyph glyph-name="Wcircumflex" unicode="&#x174;" horiz-adv-x="900" 
d="M1021 668q-1 -4 -6 -14l-279 -615q-8 -18 -20 -27t-20 -10.5t-22 -1.5h-48q-15 0 -22.5 1.5t-15.5 11t-8 28.5l-8 324q-5 167 0 222h-1q-13 -36 -50 -121.5t-43 -97.5l-146 -325q-9 -20 -21 -30t-20 -11.5t-23 -1.5h-43q-14 0 -21.5 1.5t-16 10.5t-8.5 27l-17 615v14
q6 26 45 26h21q13 0 20.5 -1t16 -10t8.5 -27l9 -352q2 -150 -4 -195h1q18 57 108 257l129 288q8 19 20.5 28t21 10.5t22.5 1.5h43q10 0 15.5 -0.5t13.5 -4t12 -12t4 -22.5l8 -333q4 -151 0 -215h1q23 70 93 220l147 329q8 18 21 27t21.5 10t24.5 1q13 0 20 -1t13.5 -7
t3.5 -18zM785 765q5 -5 0.5 -13.5t-12.5 -8.5h-47l-5 1l-95 81l-129 -81l-5 -1h-47q-8 0 -9.5 7.5t5.5 12.5l132 104q5 3 9 3h111q5 0 7 -3z" />
    <glyph glyph-name="wcircumflex" unicode="&#x175;" horiz-adv-x="642" 
d="M716 446q-1 -3 -3.5 -9t-3.5 -7l-176 -391q-8 -18 -20 -27t-20.5 -10.5t-21.5 -1.5h-48q-38 0 -45 24q-1 6 -2.5 68t-1 143.5t5.5 118.5q-7 -33 -40.5 -115t-63.5 -147t-33 -69q-17 -23 -54 -23h-19q-13 0 -21 1.5t-16.5 10.5t-8.5 27l-9 389v18q5 26 44 26h11
q21 0 31 -6.5t11.5 -13.5t2.5 -23l6 -246q1 -35 -2 -68h1q3 7 39 92l99 220q7 16 12 23.5t17 14.5t31 7q41 0 42 -39l8 -320l144 320q8 18 20 27t20.5 10.5t25.5 1.5q13 0 20 -1t13.5 -7t4.5 -18zM601 560q2 -6 -2.5 -13.5t-11.5 -7.5h-47q-4 1 -6 2l-77 101l-119 -101
l-6 -2h-47q-7 0 -9 6.5t3 12.5l127 139q4 4 10 4h111q7 0 8 -4z" />
    <glyph glyph-name="Ycircumflex" unicode="&#x176;" horiz-adv-x="636" 
d="M759 673q-1 -3 -13 -20l-310 -376l-50 -234q-6 -27 -17.5 -35t-35.5 -8h-31q-26 0 -33 9t-2 35l50 234l-152 379q-5 7 -3 16q5 21 40 21h41q48 0 62 -36l73 -189q24 -66 29 -89q10 20 67.5 92t108.5 133.5t55 65.5q25 23 66 23h25q11 0 16.5 -0.5t10.5 -5.5t3 -15z
M653 765q5 -5 0.5 -13.5t-12.5 -8.5h-47l-5 1l-95 81l-129 -81l-5 -1h-47q-8 0 -9.5 7.5t5.5 12.5l132 104q5 3 9 3h111q5 0 7 -3z" />
    <glyph glyph-name="ycircumflex" unicode="&#x177;" horiz-adv-x="431" 
d="M503 447q-1 -4 -9 -19l-245 -479q-29 -55 -76.5 -90.5t-103.5 -35.5q-54 0 -64 10q-3 6 -0.5 30.5t4.5 33.5q3 14 15 14l6 -3q28 -14 55 -14q41 0 68 34q7 9 22.5 36.5t16.5 34.5q0 3 -1 15l-71 416l-1 18q5 24 42 24h12q33 0 41.5 -12t16.5 -61q35 -215 23 -281
q17 57 80 185l65 129q13 27 27 33.5t40 6.5q14 0 20.5 -1t12.5 -6.5t4 -17.5zM496 560q2 -6 -2.5 -13.5t-11.5 -7.5h-47q-4 1 -6 2l-77 101l-119 -101l-6 -2h-47q-7 0 -9 6.5t3 12.5l127 139q4 4 10 4h111q7 0 8 -4z" />
    <glyph glyph-name="Ydieresis" unicode="&#x178;" horiz-adv-x="636" 
d="M759 673q-1 -3 -13 -20l-310 -376l-50 -234q-6 -27 -17.5 -35t-35.5 -8h-31q-26 0 -33 9t-2 35l50 234l-152 379q-5 7 -3 16q5 21 40 21h41q48 0 62 -36l73 -189q24 -66 29 -89q10 20 67.5 92t108.5 133.5t55 65.5q25 23 66 23h25q11 0 16.5 -0.5t10.5 -5.5t3 -15z
M421 785q-5 -25 -15.5 -33.5t-34.5 -8.5h-30q-24 0 -30 9t-1 33l4 22q6 26 16 34t33 8h30q24 0 31 -8.5t1 -33.5zM662 785q-5 -25 -15.5 -33.5t-34.5 -8.5h-30q-24 0 -30 9t-1 33l4 22q6 26 16 34t33 8h30q24 0 31 -8.5t1 -33.5z" />
    <glyph glyph-name="Zacute" unicode="&#x179;" horiz-adv-x="581" 
d="M543 45q-6 -25 -16 -35t-38 -10h-392q-27 0 -34 11t0 34q5 22 16 35l437 533h-36l-230 -3h-16t-12.5 1.5t-10.5 4t-6 7t-2.5 12t2.5 17.5q4 19 13.5 29t17.5 11.5t23 1.5h372q24 0 32 -8.5t2 -34.5q-3 -18 -16 -33l-436 -531l289 4q29 0 38 -7.5t3 -38.5zM647 852
l-208 -99h-67q-6 0 -8.5 3t-1 7t6.5 8l148 103h127q9 0 11.5 -4.5t-0.5 -9.5t-8 -8z" />
    <glyph glyph-name="zacute" unicode="&#x17a;" horiz-adv-x="411" 
d="M388 33q-7 -33 -51 -33h-267q-13 0 -20 1t-13.5 10t-2.5 27q3 15 16 30l297 339h-38l-131 -2q-12 0 -18.5 0.5t-15 3.5t-11 10t-0.5 19q7 34 52 34h250q13 0 20 -1t13.5 -10t2.5 -27q-3 -15 -16 -30l-296 -339h46l137 2q17 0 26 -1t16 -9t4 -24zM485 683q-1 -6 -13 -15
l-161 -122h-31h-10.5t-7.5 1t-5 3.5t0 6.5t12 15l103 111q11 11 31 11h61q14 0 18.5 -1.5t2.5 -9.5z" />
    <glyph glyph-name="Zdotaccent" unicode="&#x17b;" horiz-adv-x="581" 
d="M543 45q-6 -25 -16 -35t-38 -10h-392q-27 0 -34 11t0 34q5 22 16 35l437 533h-36l-230 -3h-16t-12.5 1.5t-10.5 4t-6 7t-2.5 12t2.5 17.5q4 19 13.5 29t17.5 11.5t23 1.5h372q24 0 32 -8.5t2 -34.5q-3 -18 -16 -33l-436 -531l289 4q29 0 38 -7.5t3 -38.5zM520 790
q-6 -28 -17.5 -37.5t-37.5 -9.5h-33q-27 0 -34 10t-1 37l5 24q6 28 17.5 37.5t37.5 9.5h33q27 0 34 -9.5t1 -37.5z" />
    <glyph glyph-name="zdotaccent" unicode="&#x17c;" horiz-adv-x="411" 
d="M388 33q-7 -33 -51 -33h-267q-13 0 -20 1t-13.5 10t-2.5 27q3 15 16 30l297 339h-38l-131 -2q-12 0 -18.5 0.5t-15 3.5t-11 10t-0.5 19q7 34 52 34h250q13 0 20 -1t13.5 -10t2.5 -27q-3 -15 -16 -30l-296 -339h46l137 2q17 0 26 -1t16 -9t4 -24zM396 608
q-6 -28 -17.5 -37.5t-37.5 -9.5h-33q-27 0 -33.5 10t-1.5 37l5 24q7 29 18 38t37 9h33q27 0 34 -9.5t1 -37.5z" />
    <glyph glyph-name="Zcaron" unicode="&#x17d;" horiz-adv-x="581" 
d="M543 45q-6 -25 -16 -35t-38 -10h-392q-27 0 -34 11t0 34q5 22 16 35l437 533h-36l-230 -3h-16t-12.5 1.5t-10.5 4t-6 7t-2.5 12t2.5 17.5q4 19 13.5 29t17.5 11.5t23 1.5h372q24 0 32 -8.5t2 -34.5q-3 -18 -16 -33l-436 -531l289 4q29 0 38 -7.5t3 -38.5zM643 850
l-132 -104q-3 -3 -8 -3h-111q-5 0 -8 3l-85 102q-5 5 0 13.5t13 8.5h47l5 -1l94 -81l130 81l5 1h47q5 0 7.5 -3.5t1.5 -8.5t-6 -8z" />
    <glyph glyph-name="zcaron" unicode="&#x17e;" horiz-adv-x="411" 
d="M388 33q-7 -33 -51 -33h-267q-13 0 -20 1t-13.5 10t-2.5 27q3 15 16 30l297 339h-38l-131 -2q-12 0 -18.5 0.5t-15 3.5t-11 10t-0.5 19q7 34 52 34h250q13 0 20 -1t13.5 -10t2.5 -27q-3 -15 -16 -30l-296 -339h46l137 2q17 0 26 -1t16 -9t4 -24zM512 682l-128 -139
q-3 -4 -9 -4h-111q-6 0 -9 4l-65 137q-3 6 2 13.5t12 7.5h47q4 -1 6 -2l76 -101l120 101l6 2h47q7 0 9 -6.5t-3 -12.5z" />
    <glyph glyph-name="longs" unicode="&#x17f;" horiz-adv-x="267" 
d="M442 640q-2 -10 -3 -14t-4.5 -7.5t-8.5 -3.5l-12 6q-23 19 -57 19q-20 0 -34.5 -6.5t-22 -18.5t-10 -20t-5.5 -21l-113 -530q-5 -26 -16 -35t-37 -9h-19q-27 0 -34 9.5t-1 35.5l107 504q15 73 66.5 114t132.5 41q30 0 55 -5q20 -4 23 -8.5t-1 -22.5z" />
    <glyph glyph-name="Ereversed" unicode="&#x18e;" horiz-adv-x="567" 
d="M536 45q-6 -27 -17 -36t-38 -9h-356q-26 0 -33 9t-2 35l2 8q4 21 13 31t18 11.5t28 1.5l141 -2q114 0 132 -2l48 226h-240q-14 0 -21 1.5t-13 10.5t-2 28t14 28.5t17.5 11t21.5 1.5h240l43 205h-46l-212 -3q-13 0 -18.5 0.5t-14 2.5t-9 6.5t-3.5 13.5t2 22
q5 24 15.5 34.5t38.5 10.5h343q26 0 33.5 -9t1.5 -36z" />
    <glyph glyph-name="florin" unicode="&#x192;" horiz-adv-x="290" 
d="M465 640q-2 -10 -3 -14t-4.5 -7.5t-8.5 -3.5t-12 6q-23 19 -57 19q-21 0 -36 -6.5t-22.5 -18.5t-10.5 -20t-6 -21l-22 -102h44q11 0 18 -1t15 -8.5t5 -22.5q-7 -32 -51 -32h-41l-78 -364q-5 -26 -16 -35t-37 -9h-19q-27 0 -34 9.5t-1 35.5l77 363q-17 0 -25.5 1t-16 8.5
t-4.5 22.5t14 22.5t20 8.5t25 1l17 77q15 73 66.5 114t132.5 41q30 0 55 -5q20 -5 23 -9t-1 -22z" />
    <glyph glyph-name="Ohorn" unicode="&#x1a0;" horiz-adv-x="697" 
d="M716 342q-38 -173 -134 -268q-97 -93 -238 -93q-142 0 -199 93q-57 94 -19 268q38 179 134 275q97 97 240 97q94 0 153 -47l37 27h-4q-11 0 -9 12l18 83q2 11 13 11h83q11 0 9 -11l-18 -83q-2 -6 -6 -9l-92 -61q10 -12 13 -19q57 -98 19 -275zM597 361q29 143 3 211
q-14 34 -44.5 53t-70.5 19q-87 0 -146 -72q-58 -69 -87 -211q-33 -154 -7 -230q13 -36 43 -57t71 -21q40 0 79.5 21t67.5 57q58 75 91 230z" />
    <glyph glyph-name="ohorn" unicode="&#x1a1;" 
d="M592 483q-1 -3 -6 -8l-99 -66q33 -64 9 -178q-25 -115 -93 -178q-67 -63 -169 -63q-100 0 -142 63t-17 178q26 122 95 189q68 67 170 67q78 0 122 -43l37 28h-4q-5 0 -7 3.5t-1 7.5l18 84q2 11 13 11h83q11 0 9 -11zM388 246q21 93 7 133q-14 44 -69 44q-53 0 -86 -44
q-14 -18 -25 -44t-15 -41t-11 -48q-21 -102 -8 -141q14 -45 68 -45t87 45q32 41 52 141z" />
    <glyph glyph-name="Uhorn" unicode="&#x1af;" horiz-adv-x="683" 
d="M835 706q-2 -6 -7 -9l-121 -77l-83 -389q-25 -116 -104 -184q-77 -66 -194 -66q-118 0 -170 66t-27 184l92 432q3 13 14.5 22t24.5 9h59q13 0 20 -9t4 -22l-92 -432q-19 -94 5 -134q21 -41 86 -41q67 0 108 41q44 44 63 134l92 432q3 13 14.5 22t24.5 9h47q19 0 24 -17
l25 17h-1q-12 0 -10 12l18 83q2 11 14 11h83q11 0 9 -11z" />
    <glyph glyph-name="uhorn" unicode="&#x1b0;" horiz-adv-x="536" 
d="M641 483q-1 -5 -6 -9l-122 -76l-78 -366q-3 -13 -14.5 -22.5t-24.5 -9.5h-45q-13 0 -20.5 9.5t-4.5 22.5l9 43q-54 -85 -131 -85q-82 0 -110 33q-29 31 -12 109l66 308q2 13 13 22.5t25 9.5h47q13 0 20.5 -9.5t5.5 -22.5l-66 -308q-13 -60 -5 -72q8 -17 49 -17
q39 0 72 38t45 94l57 265q2 13 13 22.5t24 9.5h48q20 0 25 -17l24 17h-1q-5 0 -7 3.5t-1 7.5l18 84q2 11 13 11h83q11 0 9 -11z" />
    <glyph glyph-name="Acaron" unicode="&#x1cd;" horiz-adv-x="636" 
d="M605 25q-5 -25 -43 -25h-34q-31 0 -39 11.5t-12 52.5l-11 107h-242l-69 -131q-8 -14 -13 -21t-18.5 -13t-34.5 -6h-16q-10 0 -16.5 1t-12.5 7t-4 17l8 16l324 616q20 37 65 37h57q14 0 21.5 -1t16.5 -10t10 -27l62 -617zM459 246l-16 185q-12 107 -9 157h-1
q-11 -33 -71 -149l-99 -193h196zM671 850l-132 -104q-3 -3 -8 -3h-111q-5 0 -8 3l-85 102q-5 5 0 13.5t13 8.5h47l5 -1l94 -81l130 81l5 1h47q5 0 7.5 -3.5t1.5 -8.5t-6 -8z" />
    <glyph glyph-name="acaron" unicode="&#x1ce;" horiz-adv-x="453" 
d="M417 44q-5 -26 -16 -35t-37 -9h-20q-27 0 -33.5 9.5t-1.5 34.5l6 25q-22 -29 -62 -54t-88 -25q-57 0 -85 43t-16 99q8 35 28.5 62.5t50.5 44t57.5 27.5t62.5 16t50 6.5t35 2.5q8 1 10 3.5t5 15.5l4 20q5 23 5.5 41t-3.5 28t-8.5 16.5t-13.5 9t-13.5 3t-12.5 0.5
q-73 0 -136 -50q-13 -10 -18 -10q-7 0 -8.5 6t1.5 23q1 8 5 36q1 8 6 11t23 12q70 31 144 31q88 0 122 -41.5t18 -114.5zM330 155l21 101q-24 -1 -47 -6t-53 -17t-52 -37.5t-30 -61.5q-6 -33 7.5 -56.5t42.5 -23.5q10 0 22.5 3.5t31.5 12.5t34.5 31t22.5 54zM533 682
l-128 -139q-3 -4 -9 -4h-111q-6 0 -9 4l-65 137q-3 6 2 13.5t12 7.5h47q4 -1 6 -2l76 -101l120 101l6 2h47q7 0 9 -6.5t-3 -12.5z" />
    <glyph glyph-name="Icaron" unicode="&#x1cf;" horiz-adv-x="283" 
d="M211 44q-5 -26 -16 -35t-37 -9h-33q-27 0 -34 9.5t-1 35.5l128 604q6 27 17.5 36t37.5 9h33q27 0 33.5 -9.5t0.5 -34.5zM494 850l-132 -104q-3 -3 -8 -3h-111q-5 0 -8 3l-85 102q-5 5 0 13.5t13 8.5h47l5 -1l94 -81l130 81l5 1h47q5 0 7.5 -3.5t1.5 -8.5t-6 -8z" />
    <glyph glyph-name="icaron" unicode="&#x1d0;" horiz-adv-x="219" 
d="M172 44q-5 -26 -16 -35t-37 -9h-19q-27 0 -34 9.5t-1 35.5l81 382q5 27 16.5 36t37.5 9h19q27 0 34 -9.5t1 -34.5zM416 682l-128 -139q-3 -4 -9 -4h-111q-6 0 -9 4l-65 137q-3 6 2 13.5t12 7.5h47q4 -1 6 -2l76 -101l120 101l6 2h47q7 0 9 -6.5t-3 -12.5z" />
    <glyph glyph-name="Ocaron" unicode="&#x1d1;" horiz-adv-x="697" 
d="M716 342q-38 -177 -137 -270q-96 -91 -235 -91q-67 0 -118 23.5t-77 63.5q-62 96 -23 274q35 164 121 261q47 53 114 81.5t139 28.5q159 0 211 -125q37 -91 5 -246zM597 358q28 134 8 198q-8 27 -23.5 45.5t-34 27t-33 11.5t-29.5 3q-91 0 -154 -82q-48 -61 -80 -203
q-28 -130 -13 -201q13 -59 48 -81.5t73 -22.5q98 0 165 103q46 73 73 202zM701 850l-132 -104q-3 -3 -8 -3h-111q-5 0 -8 3l-85 102q-5 5 0 13.5t13 8.5h47l5 -1l94 -81l130 81l5 1h47q5 0 7.5 -3.5t1.5 -8.5t-6 -8z" />
    <glyph glyph-name="ocaron" unicode="&#x1d2;" 
d="M497 232q-23 -117 -94 -180q-68 -62 -168 -62q-103 0 -145 64q-38 63 -15 178q24 114 90 183q69 72 176 72q103 0 144 -70q38 -65 12 -185zM389 244q5 23 7.5 36.5t5 38.5t-0.5 40t-10 31.5t-23.5 24.5t-40.5 8q-29 0 -51.5 -13t-36 -29.5t-25 -45.5t-15.5 -46t-10 -45
q-4 -21 -6.5 -32t-5 -33.5t-2 -36t4 -31t12 -27.5t23 -17t35.5 -7q29 0 52 13.5t36 31t24.5 47t16 47t10.5 45.5zM544 682l-128 -139q-3 -4 -9 -4h-111q-6 0 -9 4l-65 137q-3 6 2 13.5t12 7.5h47q4 -1 6 -2l76 -101l120 101l6 2h47q7 0 9 -6.5t-3 -12.5z" />
    <glyph glyph-name="Ucaron" unicode="&#x1d3;" horiz-adv-x="657" 
d="M623 228q-23 -109 -99.5 -178t-197.5 -69t-170.5 68.5t-26.5 178.5l90 421q6 27 17.5 36t37.5 9h33q27 0 33.5 -9.5t0.5 -34.5l-90 -423q-36 -171 92 -171q135 0 169 172l90 422q5 26 16.5 35t37.5 9h23q27 0 33.5 -9.5t0.5 -34.5zM681 850l-132 -104q-3 -3 -8 -3h-111
q-5 0 -8 3l-85 102q-5 5 0 13.5t13 8.5h47l5 -1l94 -81l130 81l5 1h47q5 0 7.5 -3.5t1.5 -8.5t-6 -8z" />
    <glyph glyph-name="ucaron" unicode="&#x1d4;" horiz-adv-x="483" 
d="M437 44q-5 -26 -16 -35t-37 -9h-20q-27 0 -33.5 9.5t-1.5 34.5l7 31q-56 -85 -138 -85q-75 0 -103.5 32t-13.5 107l64 298q5 27 16 36t38 9h22q27 0 34 -9.5t1 -34.5l-65 -306q-11 -45 -3 -62t46 -17q46 0 78 41.5t43 96.5l53 247q5 26 16 35t37 9h23q27 0 34 -9.5
t1 -34.5zM548 682l-128 -139q-3 -4 -9 -4h-111q-6 0 -9 4l-65 137q-3 6 2 13.5t12 7.5h47q4 -1 6 -2l76 -101l120 101l6 2h47q7 0 9 -6.5t-3 -12.5z" />
    <glyph glyph-name="Udieresisacute" unicode="&#x1d7;" horiz-adv-x="657" 
d="M623 228q-23 -109 -99.5 -178t-197.5 -69t-170.5 68.5t-26.5 178.5l90 421q6 27 17.5 36t37.5 9h33q27 0 33.5 -9.5t0.5 -34.5l-90 -423q-36 -171 92 -171q135 0 169 172l90 422q5 26 16.5 35t37.5 9h23q27 0 33.5 -9.5t0.5 -34.5zM431 785q-5 -25 -15.5 -33.5
t-34.5 -8.5h-30q-24 0 -30 9t-1 33l4 22q6 26 16 34t33 8h30q24 0 31 -8.5t1 -33.5zM672 785q-5 -25 -15.5 -33.5t-34.5 -8.5h-30q-24 0 -30 9t-1 33l4 22q6 26 16 34t33 8h30q24 0 31 -8.5t1 -33.5zM718 1007l-208 -99h-67q-6 0 -8.5 3t-1 7t6.5 8l148 103h127
q9 0 11.5 -4.5t-0.5 -9.5t-8 -8z" />
    <glyph glyph-name="udieresisacute" unicode="&#x1d8;" horiz-adv-x="483" 
d="M437 44q-5 -26 -16 -35t-37 -9h-20q-27 0 -33.5 9.5t-1.5 34.5l7 31q-56 -85 -138 -85q-75 0 -103.5 32t-13.5 107l64 298q5 27 16 36t38 9h22q27 0 34 -9.5t1 -34.5l-65 -306q-11 -45 -3 -62t46 -17q46 0 78 41.5t43 96.5l53 247q5 26 16 35t37 9h23q27 0 34 -9.5
t1 -34.5zM325 609q-5 -25 -15 -33.5t-34 -8.5h-30q-24 0 -30.5 9t-1.5 33l5 22q6 26 16 34t33 8h30q24 0 30.5 -8.5t1.5 -33.5zM528 609q-5 -25 -15 -33.5t-34 -8.5h-30q-24 0 -30.5 9t-1.5 33l5 22q6 26 16 34t33 8h30q24 0 30.5 -8.5t1.5 -33.5zM594 831l-208 -99h-67
q-6 0 -8.5 3t-1 7t6.5 8l148 103h127q9 0 11.5 -4.5t-0.5 -9.5t-8 -8z" />
    <glyph glyph-name="Udieresiscaron" unicode="&#x1d9;" horiz-adv-x="657" 
d="M623 228q-23 -109 -99.5 -178t-197.5 -69t-170.5 68.5t-26.5 178.5l90 421q6 27 17.5 36t37.5 9h33q27 0 33.5 -9.5t0.5 -34.5l-90 -423q-36 -171 92 -171q135 0 169 172l90 422q5 26 16.5 35t37.5 9h23q27 0 33.5 -9.5t0.5 -34.5zM431 785q-5 -25 -15.5 -33.5
t-34.5 -8.5h-30q-24 0 -30 9t-1 33l4 22q6 26 16 34t33 8h30q24 0 31 -8.5t1 -33.5zM672 785q-5 -25 -15.5 -33.5t-34.5 -8.5h-30q-24 0 -30 9t-1 33l4 22q6 26 16 34t33 8h30q24 0 31 -8.5t1 -33.5zM714 1005l-132 -104q-3 -3 -8 -3h-111q-5 0 -8 3l-85 102q-5 5 0 13.5
t13 8.5h47l5 -1l94 -81l130 81l5 1h47q5 0 7.5 -3.5t1.5 -8.5t-6 -8z" />
    <glyph glyph-name="udieresiscaron" unicode="&#x1da;" horiz-adv-x="483" 
d="M437 44q-5 -26 -16 -35t-37 -9h-20q-27 0 -33.5 9.5t-1.5 34.5l7 31q-56 -85 -138 -85q-75 0 -103.5 32t-13.5 107l64 298q5 27 16 36t38 9h22q27 0 34 -9.5t1 -34.5l-65 -306q-11 -45 -3 -62t46 -17q46 0 78 41.5t43 96.5l53 247q5 26 16 35t37 9h23q27 0 34 -9.5
t1 -34.5zM325 609q-5 -25 -15 -33.5t-34 -8.5h-30q-24 0 -30.5 9t-1.5 33l5 22q6 26 16 34t33 8h30q24 0 30.5 -8.5t1.5 -33.5zM528 609q-5 -25 -15 -33.5t-34 -8.5h-30q-24 0 -30.5 9t-1.5 33l5 22q6 26 16 34t33 8h30q24 0 30.5 -8.5t1.5 -33.5zM590 829l-132 -104
q-3 -3 -8 -3h-111q-5 0 -8 3l-85 102q-5 5 0 13.5t13 8.5h47l5 -1l94 -81l130 81l5 1h47q5 0 7.5 -3.5t1.5 -8.5t-6 -8z" />
    <glyph glyph-name="Udieresisgrave" unicode="&#x1db;" horiz-adv-x="657" 
d="M623 228q-23 -109 -99.5 -178t-197.5 -69t-170.5 68.5t-26.5 178.5l90 421q6 27 17.5 36t37.5 9h33q27 0 33.5 -9.5t0.5 -34.5l-90 -423q-36 -171 92 -171q135 0 169 172l90 422q5 26 16.5 35t37.5 9h23q27 0 33.5 -9.5t0.5 -34.5zM431 785q-5 -25 -15.5 -33.5
t-34.5 -8.5h-30q-24 0 -30 9t-1 33l4 22q6 26 16 34t33 8h30q24 0 31 -8.5t1 -33.5zM672 785q-5 -25 -15.5 -33.5t-34.5 -8.5h-30q-24 0 -30 9t-1 33l4 22q6 26 16 34t33 8h30q24 0 31 -8.5t1 -33.5zM611 926q5 -6 1.5 -12t-12.5 -6h-67l-166 99q-4 3 -4.5 8t4 9.5t13.5 4.5
h127z" />
    <glyph glyph-name="udieresisgrave" unicode="&#x1dc;" horiz-adv-x="483" 
d="M437 44q-5 -26 -16 -35t-37 -9h-20q-27 0 -33.5 9.5t-1.5 34.5l7 31q-56 -85 -138 -85q-75 0 -103.5 32t-13.5 107l64 298q5 27 16 36t38 9h22q27 0 34 -9.5t1 -34.5l-65 -306q-11 -45 -3 -62t46 -17q46 0 78 41.5t43 96.5l53 247q5 26 16 35t37 9h23q27 0 34 -9.5
t1 -34.5zM325 609q-5 -25 -15 -33.5t-34 -8.5h-30q-24 0 -30.5 9t-1.5 33l5 22q6 26 16 34t33 8h30q24 0 30.5 -8.5t1.5 -33.5zM528 609q-5 -25 -15 -33.5t-34 -8.5h-30q-24 0 -30.5 9t-1.5 33l5 22q6 26 16 34t33 8h30q24 0 30.5 -8.5t1.5 -33.5zM487 750q5 -6 1.5 -12
t-12.5 -6h-67l-166 99q-4 3 -4.5 8t4 9.5t13.5 4.5h127z" />
    <glyph glyph-name="eturned" unicode="&#x1dd;" horiz-adv-x="438" 
d="M462 238q-15 -70 -45 -121.5t-67.5 -77.5t-73.5 -37.5t-72 -11.5q-87 0 -122 54.5t-13 157.5q6 26 17 34.5t36 8.5h238q36 178 -80 178q-77 0 -142 -62q-10 -9 -15 -9q-7 0 -8 5t0 19q3 29 5 36q5 23 74 53q53 22 104 22q40 0 73 -11.5t61.5 -40t35 -76.5t-5.5 -121z
M349 198h-195q-3 -18 -4.5 -29t-3 -30.5t2.5 -32t10.5 -26t21 -20t35.5 -6.5q48 0 82.5 42t50.5 102z" />
    <glyph glyph-name="Gcaron" unicode="&#x1e6;" horiz-adv-x="633" 
d="M579 50q-2 -7 -8 -10q-102 -50 -205 -50q-150 0 -213 94q-62 92 -26 263q36 170 138 263q103 94 253 94q54 0 94 -11q36 -11 82 -39q5 -3 2 -12l-30 -79q-5 -10 -13 -10q-1 0 -7 3q-30 34 -64 48t-83 14q-92 0 -156 -69q-67 -70 -94 -202q-28 -132 8 -202q35 -69 127 -69
q44 0 91 11l37 171h-78q-11 0 -9 11l13 59q2 11 13 11h178q11 0 9 -11zM669 850l-132 -104q-3 -3 -8 -3h-111q-5 0 -8 3l-85 102q-5 5 0 13.5t13 8.5h47l5 -1l94 -81l130 81l5 1h47q5 0 7.5 -3.5t1.5 -8.5t-6 -8z" />
    <glyph glyph-name="gcaron" unicode="&#x1e7;" horiz-adv-x="483" 
d="M432 27q-19 -92 -78.5 -153t-160.5 -61q-81 0 -144 33q-10 6 -11.5 10t2.5 20l5 23q5 26 16 26q5 0 12 -7q57 -41 132 -41q84 0 110 123l20 93h-1q-44 -72 -116 -72q-90 0 -125 63q-32 58 -10 154q21 106 80 171q65 73 160 73q62 0 85 -58q4 20 6.5 27.5t8.5 16.5
t15.5 11.5t25.5 2.5h20q27 0 34 -9.5t1 -34.5zM376 272l13 63q7 33 -7.5 58t-45.5 25t-56 -17t-41.5 -45.5t-27 -57t-17.5 -60.5q-4 -18 -6 -36.5t-1 -48.5t18 -49t49 -19q77 0 114 163q2 12 8 24zM515 682l-128 -139q-3 -4 -9 -4h-111q-6 0 -9 4l-65 137q-3 6 2 13.5
t12 7.5h47q4 -1 6 -2l76 -101l120 101l6 2h47q7 0 9 -6.5t-3 -12.5z" />
    <glyph glyph-name="Oogonek" unicode="&#x1ea;" horiz-adv-x="697" 
d="M716 342q-38 -177 -137 -270q-84 -80 -210 -90q-21 -28 -26 -52q-9 -36 26 -36q27 0 52 11q5 3 12 0.5t7 -9.5l3 -29q0 -18 -13 -24q-68 -26 -106 -27q-44 -1 -65 26t-12 63q11 45 47 80q-100 15 -145 83q-62 96 -23 274q35 164 121 261q47 53 114 81.5t139 28.5
q159 0 211 -125q37 -91 5 -246zM597 358q28 134 8 198q-8 27 -23.5 45.5t-34 27t-33 11.5t-29.5 3q-91 0 -154 -82q-48 -61 -80 -203q-28 -130 -13 -201q13 -59 48 -81.5t73 -22.5q98 0 165 103q46 73 73 202z" />
    <glyph glyph-name="oogonek" unicode="&#x1eb;" 
d="M497 232q-23 -117 -94 -180q-60 -55 -149 -61q-24 -26 -34 -61q-4 -16 3 -26t24 -10q27 0 52 11q5 3 12 0.5t7 -9.5l3 -29q0 -18 -13 -24q-68 -26 -106 -27q-44 -1 -65 26t-12 63q10 52 58 90q-63 14 -93 59q-38 63 -15 178q24 114 90 183q69 72 176 72q103 0 144 -70
q38 -65 12 -185zM389 244q5 23 7.5 36.5t5 38.5t-0.5 40t-10 31.5t-23.5 24.5t-40.5 8q-29 0 -51.5 -13t-36 -29.5t-25 -45.5t-15.5 -46t-10 -45q-4 -21 -6.5 -32t-5 -33.5t-2 -36t4 -31t12 -27.5t23 -17t35.5 -7q29 0 52 13.5t36 31t24.5 47t16 47t10.5 45.5z" />
    <glyph glyph-name="jcaron" unicode="&#x1f0;" horiz-adv-x="246" 
d="M185 -25q-16 -75 -59 -113.5t-102 -38.5q-38 0 -78 14t-37 27q0 1 6.5 13.5t7.5 15.5q8 15 11.5 19t9.5 4q2 0 12 -6q21 -14 49 -14q25 0 41 12t19.5 22.5t7.5 27.5l100 470q5 26 16 35t37 9h20q27 0 34 -9.5t1 -34.5zM436 682l-128 -139q-3 -4 -9 -4h-111q-6 0 -9 4
l-65 137q-3 6 2 13.5t12 7.5h47q4 -1 6 -2l76 -101l120 101l6 2h47q7 0 9 -6.5t-3 -12.5z" />
    <glyph glyph-name="Gacute" unicode="&#x1f4;" horiz-adv-x="633" 
d="M579 50q-2 -7 -8 -10q-102 -50 -205 -50q-150 0 -213 94q-62 92 -26 263q36 170 138 263q103 94 253 94q54 0 94 -11q36 -11 82 -39q5 -3 2 -12l-30 -79q-5 -10 -13 -10q-1 0 -7 3q-30 34 -64 48t-83 14q-92 0 -156 -69q-67 -70 -94 -202q-28 -132 8 -202q35 -69 127 -69
q44 0 91 11l37 171h-78q-11 0 -9 11l13 59q2 11 13 11h178q11 0 9 -11zM673 852l-208 -99h-67q-6 0 -8.5 3t-1 7t6.5 8l148 103h127q9 0 11.5 -4.5t-0.5 -9.5t-8 -8z" />
    <glyph glyph-name="gacute" unicode="&#x1f5;" horiz-adv-x="483" 
d="M432 27q-19 -92 -78.5 -153t-160.5 -61q-81 0 -144 33q-10 6 -11.5 10t2.5 20l5 23q5 26 16 26q5 0 12 -7q57 -41 132 -41q84 0 110 123l20 93h-1q-44 -72 -116 -72q-90 0 -125 63q-32 58 -10 154q21 106 80 171q65 73 160 73q62 0 85 -58q4 20 6.5 27.5t8.5 16.5
t15.5 11.5t25.5 2.5h20q27 0 34 -9.5t1 -34.5zM376 272l13 63q7 33 -7.5 58t-45.5 25t-56 -17t-41.5 -45.5t-27 -57t-17.5 -60.5q-4 -18 -6 -36.5t-1 -48.5t18 -49t49 -19q77 0 114 163q2 12 8 24zM488 683q-1 -6 -13 -15l-161 -122h-31h-10.5t-7.5 1t-5 3.5t0 6.5t12 15
l103 111q11 11 31 11h61q14 0 18.5 -1.5t2.5 -9.5z" />
    <glyph glyph-name="Aringacute" unicode="&#x1fa;" horiz-adv-x="636" 
d="M605 25q-5 -25 -43 -25h-34q-31 0 -39 11.5t-12 52.5l-11 107h-242l-69 -131q-8 -14 -13 -21t-18.5 -13t-34.5 -6h-16q-10 0 -16.5 1t-12.5 7t-4 17l8 16l324 616q20 37 65 37h57q14 0 21.5 -1t16.5 -10t10 -27l62 -617zM459 246l-16 185q-12 107 -9 157h-1
q-11 -33 -71 -149l-99 -193h196zM528 768q3 15 -3 22.5t-14 9t-23 1.5q-47 0 -54 -33q-3 -15 3 -22.5t14 -9t23 -1.5q47 0 54 33zM587 768q-16 -74 -123 -74q-12 0 -23.5 1.5t-31.5 7.5t-30 22.5t-4 42.5q16 74 123 74q12 0 23.5 -1.5t31.5 -7.5t30 -22.5t4 -42.5zM658 991
l-208 -99h-67q-9 0 -10 6t7 12l148 103h127q9 0 11.5 -4.5t0 -9.5t-8.5 -8z" />
    <glyph glyph-name="aringacute" unicode="&#x1fb;" horiz-adv-x="453" 
d="M417 44q-5 -26 -16 -35t-37 -9h-20q-27 0 -33.5 9.5t-1.5 34.5l6 25q-22 -29 -62 -54t-88 -25q-57 0 -85 43t-16 99q8 35 28.5 62.5t50.5 44t57.5 27.5t62.5 16t50 6.5t35 2.5q8 1 10 3.5t5 15.5l4 20q5 23 5.5 41t-3.5 28t-8.5 16.5t-13.5 9t-13.5 3t-12.5 0.5
q-73 0 -136 -50q-13 -10 -18 -10q-7 0 -8.5 6t1.5 23q1 8 5 36q1 8 6 11t23 12q70 31 144 31q88 0 122 -41.5t18 -114.5zM330 155l21 101q-24 -1 -47 -6t-53 -17t-52 -37.5t-30 -61.5q-6 -33 7.5 -56.5t42.5 -23.5q10 0 22.5 3.5t31.5 12.5t34.5 31t22.5 54zM402 609
q3 15 -3 22.5t-14 9t-23 1.5q-47 0 -54 -33q-3 -15 3 -22.5t14 -9t23 -1.5q48 0 54 33zM461 609q-15 -74 -122 -74q-9 0 -17 0.5t-25 4.5t-27.5 11t-17.5 22t-3 36q16 74 123 74q12 0 23.5 -1.5t31.5 -7.5t30 -22.5t4 -42.5zM533 832l-208 -99h-67q-6 0 -8.5 3t-1 7t6.5 8
l148 103h127q9 0 11.5 -4.5t-0.5 -9.5t-8 -8z" />
    <glyph glyph-name="AEacute" unicode="&#x1fc;" horiz-adv-x="819" 
d="M787 44q-5 -26 -16 -35t-37 -9h-290q-27 0 -34 9.5t-1 35.5l33 158h-188l-96 -165q-15 -25 -30 -31.5t-37 -6.5h-17q-11 0 -17 1t-11.5 6.5t-3.5 16.5q1 4 9 18l358 613q11 18 24.5 27t21.5 10.5t23 1.5h391q28 0 34.5 -12t-0.5 -33q-6 -30 -18.5 -37.5t-39.5 -7.5
l-174 3h-22l-44 -207h175q11 0 16 -0.5t13 -4.5t7.5 -12.5t-1.5 -23.5q-4 -19 -13.5 -28t-17 -10.5t-21.5 -1.5h-175l-48 -226h44l167 3q26 0 35 -8t3 -36zM458 278l70 330h-37l-193 -330h160zM766 852l-208 -99h-67q-6 0 -8.5 3t-1 7t6.5 8l148 103h127q9 0 11.5 -4.5
t-0.5 -9.5t-8 -8z" />
    <glyph glyph-name="aeacute" unicode="&#x1fd;" horiz-adv-x="686" 
d="M718 276q-5 -25 -16.5 -34.5t-37.5 -9.5h-217q-33 -178 71 -178q71 0 132 63q8 8 14 8q7 0 8 -5t-1 -19q0 -20 -4 -36q-4 -18 -55.5 -46.5t-110.5 -28.5q-94 0 -145 64q-35 -30 -91 -47t-111 -17q-62 0 -86.5 42.5t-14.5 90.5q29 133 291 143l13 65q5 23 6 40.5t-3 27.5
t-8.5 16.5t-13 9t-13.5 3t-13 0.5q-74 0 -137 -50q-13 -10 -18 -10q-7 0 -8.5 6t1.5 23q1 8 5 36q1 5 2.5 7t8 6.5t20.5 10.5q72 30 143 30q89 0 125 -46q61 46 141 46q88 0 118 -64q24 -54 5 -147zM629 279q4 21 6 34.5t2.5 36.5t-4.5 37t-17.5 25t-33.5 11
q-42 0 -75 -41.5t-49 -102.5h171zM330 137q-2 19 -1 37t3 31l1 13q-18 -1 -36.5 -3.5t-51.5 -11t-56.5 -29t-29.5 -49.5q-6 -28 7.5 -49.5t43.5 -21.5q35 0 70.5 21.5t49.5 61.5zM623 683q-1 -6 -13 -15l-161 -122h-31h-10.5t-7.5 1t-5 3.5t0 6.5t12 15l103 111q11 11 31 11
h61q14 0 18.5 -1.5t2.5 -9.5z" />
    <glyph glyph-name="Oslashacute" unicode="&#x1fe;" horiz-adv-x="739" 
d="M758 342q-37 -172 -139 -267q-101 -94 -254 -94q-73 0 -128 24l-34 -47q-15 -21 -22.5 -27t-21.5 -6q-12 0 -22.5 9t-7.5 25q2 10 26 43q14 16 27 37q-102 88 -56 303q37 177 144 277q99 94 251 94q70 0 127 -25l43 58q15 23 35 23q12 0 22.5 -9t7.5 -25q-1 -9 -11 -21
l-43 -61q103 -89 56 -311zM602 624q-39 25 -95 25q-42 0 -78.5 -13.5t-61.5 -32.5t-47 -49.5t-34.5 -55.5t-23.5 -59.5t-15.5 -52t-9.5 -43.5q-33 -155 2 -225zM647 343q34 161 -2 231l-361 -504q40 -25 95 -25q42 0 78.5 13t61 31t46.5 48.5t33.5 53t23 58t15.5 51t10 43.5
zM726 852l-208 -99h-67q-6 0 -8.5 3t-1 7t6.5 8l148 103h127q9 0 11.5 -4.5t-0.5 -9.5t-8 -8z" />
    <glyph glyph-name="oslashacute" unicode="&#x1ff;" 
d="M497 232q-23 -117 -94 -180q-68 -62 -168 -62q-45 0 -79 13q-8 -12 -20.5 -30t-28.5 -39q-30 -41 -38 -46q-7 -3 -16 -3q-15 0 -22 10.5t-5 21.5q2 7 40 61q14 18 40 56q-58 62 -31 198q24 114 90 183q69 72 176 72q44 0 78 -15l67 92q15 24 36 24q15 0 22 -10.5t4 -21.5
q-2 -8 -12 -21l-67 -95q58 -68 28 -208zM375 410q-17 13 -48 13t-56.5 -15t-40 -33t-27 -50t-17 -48t-10.5 -45q-17 -80 -10 -114zM396 232q18 81 11 122l-206 -289q19 -11 47 -11q31 0 56 13.5t39.5 30.5t26.5 45t16.5 45.5t9.5 43.5zM517 683q-1 -6 -13 -15l-161 -122h-31
h-10.5t-7.5 1t-5 3.5t0 6.5t12 15l103 111q11 11 31 11h61q14 0 18.5 -1.5t2.5 -9.5z" />
    <glyph glyph-name="Adblgrave" unicode="&#x200;" horiz-adv-x="636" 
d="M605 25q-5 -25 -43 -25h-34q-31 0 -39 11.5t-12 52.5l-11 107h-242l-69 -131q-8 -14 -13 -21t-18.5 -13t-34.5 -6h-16q-10 0 -16.5 1t-12.5 7t-4 17l8 16l324 616q20 37 65 37h57q14 0 21.5 -1t16.5 -10t10 -27l62 -617zM459 246l-16 185q-12 107 -9 157h-1
q-11 -33 -71 -149l-99 -193h196zM591 765q-2 -12 -28 -12h-13q-15 0 -18.5 2t-7.5 12l-39 109l-3 14q2 11 26 11h61q16 0 19.5 -3t3.5 -18zM433 765q-2 -12 -28 -12h-13q-15 0 -18.5 2t-7.5 12l-39 109l-3 14q2 11 26 11h61q16 0 19.5 -3t3.5 -18z" />
    <glyph glyph-name="adblgrave" unicode="&#x201;" horiz-adv-x="453" 
d="M417 44q-5 -26 -16 -35t-37 -9h-20q-27 0 -33.5 9.5t-1.5 34.5l6 25q-22 -29 -62 -54t-88 -25q-57 0 -85 43t-16 99q8 35 28.5 62.5t50.5 44t57.5 27.5t62.5 16t50 6.5t35 2.5q8 1 10 3.5t5 15.5l4 20q5 23 5.5 41t-3.5 28t-8.5 16.5t-13.5 9t-13.5 3t-12.5 0.5
q-73 0 -136 -50q-13 -10 -18 -10q-7 0 -8.5 6t1.5 23q1 8 5 36q1 8 6 11t23 12q70 31 144 31q88 0 122 -41.5t18 -114.5zM330 155l21 101q-24 -1 -47 -6t-53 -17t-52 -37.5t-30 -61.5q-6 -33 7.5 -56.5t42.5 -23.5q10 0 22.5 3.5t31.5 12.5t34.5 31t22.5 54zM483 558
q-3 -12 -29 -12h-13q-15 0 -18.5 2t-7.5 12l-39 109l-3 14q3 11 27 11h61q16 0 19 -3t3 -18v-115zM325 558q-3 -12 -29 -12h-13q-15 0 -18.5 2t-7.5 12l-39 109l-3 14q3 11 27 11h61q16 0 19 -3t3 -18v-115z" />
    <glyph glyph-name="Edblgrave" unicode="&#x204;" horiz-adv-x="567" 
d="M535 44q-5 -26 -16 -35t-37 -9h-356q-27 0 -34 9.5t-1 35.5l127 601q6 27 17.5 36t37.5 9h343q28 0 34.5 -12t-0.5 -33q-4 -22 -13 -32t-18 -11.5t-30 -1.5l-212 3h-46l-43 -205h240q11 0 16 -0.5t13 -4.5t7.5 -12.5t-1.5 -23.5q-4 -19 -13.5 -28t-17 -10.5t-21.5 -1.5
h-240l-48 -226q18 2 132 2l141 2q12 0 17 -0.5t13.5 -2.5t9 -6.5t3.5 -13t-2 -21.5zM583 765q-2 -12 -28 -12h-13q-15 0 -18.5 2t-7.5 12l-39 109l-3 14q2 11 26 11h61q16 0 19.5 -3t3.5 -18zM425 765q-2 -12 -28 -12h-13q-15 0 -18.5 2t-7.5 12l-39 109l-3 14q2 11 26 11
h61q16 0 19.5 -3t3.5 -18z" />
    <glyph glyph-name="edblgrave" unicode="&#x205;" horiz-adv-x="438" 
d="M469 275q-5 -26 -16.5 -34.5t-36.5 -8.5h-238q-36 -178 80 -178q78 0 143 62q9 9 15 9q7 0 8 -5t-1 -19q0 -20 -4 -36q-5 -22 -74 -53q-53 -22 -104 -22q-40 0 -73 11.5t-61.5 40t-35.5 76.5t6 121q15 70 45 121.5t67.5 77.5t73.5 37.5t72 11.5q87 0 121.5 -54.5
t12.5 -157.5zM384 279q3 18 4.5 29t3 30.5t-2.5 32t-10.5 26t-21 20t-35.5 6.5q-48 0 -82 -41.5t-51 -102.5h195zM476 558q-3 -12 -29 -12h-13q-15 0 -18.5 2t-7.5 12l-39 109l-3 14q3 11 27 11h61q16 0 19 -3t3 -18v-115zM318 558q-3 -12 -29 -12h-13q-15 0 -18.5 2
t-7.5 12l-39 109l-3 14q3 11 27 11h61q16 0 19 -3t3 -18v-115z" />
    <glyph glyph-name="Idblgrave" unicode="&#x208;" horiz-adv-x="283" 
d="M211 44q-5 -26 -16 -35t-37 -9h-33q-27 0 -34 9.5t-1 35.5l128 604q6 27 17.5 36t37.5 9h33q27 0 33.5 -9.5t0.5 -34.5zM441 765q-2 -12 -28 -12h-13q-15 0 -18.5 2t-7.5 12l-39 109l-3 14q2 11 26 11h61q16 0 19.5 -3t3.5 -18zM283 765q-2 -12 -28 -12h-13
q-15 0 -18.5 2t-7.5 12l-39 109l-3 14q2 11 26 11h61q16 0 19.5 -3t3.5 -18z" />
    <glyph glyph-name="idblgrave" unicode="&#x209;" horiz-adv-x="219" 
d="M172 44q-5 -26 -16 -35t-37 -9h-19q-27 0 -34 9.5t-1 35.5l81 382q5 27 16.5 36t37.5 9h19q27 0 34 -9.5t1 -34.5zM366 558q-3 -12 -29 -12h-13q-15 0 -18.5 2t-7.5 12l-39 109l-3 14q3 11 27 11h61q16 0 19 -3t3 -18v-115zM208 558q-3 -12 -29 -12h-13q-15 0 -18.5 2
t-7.5 12l-39 109l-3 14q3 11 27 11h61q16 0 19 -3t3 -18v-115z" />
    <glyph glyph-name="Odblgrave" unicode="&#x20c;" horiz-adv-x="697" 
d="M716 342q-38 -177 -137 -270q-96 -91 -235 -91q-67 0 -118 23.5t-77 63.5q-62 96 -23 274q35 164 121 261q47 53 114 81.5t139 28.5q159 0 211 -125q37 -91 5 -246zM597 358q28 134 8 198q-8 27 -23.5 45.5t-34 27t-33 11.5t-29.5 3q-91 0 -154 -82q-48 -61 -80 -203
q-28 -130 -13 -201q13 -59 48 -81.5t73 -22.5q98 0 165 103q46 73 73 202zM648 765q-2 -12 -28 -12h-13q-15 0 -18.5 2t-7.5 12l-39 109l-3 14q2 11 26 11h61q16 0 19.5 -3t3.5 -18zM490 765q-2 -12 -28 -12h-13q-15 0 -18.5 2t-7.5 12l-39 109l-3 14q2 11 26 11h61
q16 0 19.5 -3t3.5 -18z" />
    <glyph glyph-name="odblgrave" unicode="&#x20d;" 
d="M497 232q-23 -117 -94 -180q-68 -62 -168 -62q-103 0 -145 64q-38 63 -15 178q24 114 90 183q69 72 176 72q103 0 144 -70q38 -65 12 -185zM389 244q5 23 7.5 36.5t5 38.5t-0.5 40t-10 31.5t-23.5 24.5t-40.5 8q-29 0 -51.5 -13t-36 -29.5t-25 -45.5t-15.5 -46t-10 -45
q-4 -21 -6.5 -32t-5 -33.5t-2 -36t4 -31t12 -27.5t23 -17t35.5 -7q29 0 52 13.5t36 31t24.5 47t16 47t10.5 45.5zM494 558q-3 -12 -29 -12h-13q-15 0 -18.5 2t-7.5 12l-39 109l-3 14q3 11 27 11h61q16 0 19 -3t3 -18v-115zM336 558q-3 -12 -29 -12h-13q-15 0 -18.5 2
t-7.5 12l-39 109l-3 14q3 11 27 11h61q16 0 19 -3t3 -18v-115z" />
    <glyph glyph-name="Rdblgrave" unicode="&#x210;" horiz-adv-x="614" 
d="M578 22q-5 -22 -40 -22h-42q-21 0 -27 4t-11 20l-86 291h-105l-58 -271q-5 -26 -16 -35t-37 -9h-30q-27 0 -34 9.5t-1 35.5l128 604q6 27 17.5 36t37.5 9h199q117 0 164.5 -53.5t28.5 -140.5q-29 -136 -180 -176l89 -287q4 -12 3 -15zM552 499q12 57 -8.5 88.5
t-100.5 31.5h-111l-51 -240h110q81 0 115 32t46 88zM580 765q-2 -12 -28 -12h-13q-15 0 -18.5 2t-7.5 12l-39 109l-3 14q2 11 26 11h61q16 0 19.5 -3t3.5 -18zM422 765q-2 -12 -28 -12h-13q-15 0 -18.5 2t-7.5 12l-39 109l-3 14q2 11 26 11h61q16 0 19.5 -3t3.5 -18z" />
    <glyph glyph-name="rdblgrave" unicode="&#x211;" horiz-adv-x="321" 
d="M398 427q-4 -18 -7.5 -21.5t-16.5 -4.5q-54 -5 -98.5 -46.5t-59.5 -108.5l-43 -202q-5 -26 -16 -35t-37 -9h-19q-27 0 -34 9.5t-1 35.5l82 388q6 27 17.5 36t37.5 9h14q27 0 33.5 -9.5t0.5 -34.5l-14 -66h1q33 58 75 86t80 28q11 0 13 -5t-2 -21zM417 558q-3 -12 -29 -12
h-13q-15 0 -18.5 2t-7.5 12l-39 109l-3 14q3 11 27 11h61q16 0 19 -3t3 -18v-115zM259 558q-3 -12 -29 -12h-13q-15 0 -18.5 2t-7.5 12l-39 109l-3 14q3 11 27 11h61q16 0 19 -3t3 -18v-115z" />
    <glyph glyph-name="Udblgrave" unicode="&#x214;" horiz-adv-x="657" 
d="M623 228q-23 -109 -99.5 -178t-197.5 -69t-170.5 68.5t-26.5 178.5l90 421q6 27 17.5 36t37.5 9h33q27 0 33.5 -9.5t0.5 -34.5l-90 -423q-36 -171 92 -171q135 0 169 172l90 422q5 26 16.5 35t37.5 9h23q27 0 33.5 -9.5t0.5 -34.5zM628 765q-2 -12 -28 -12h-13
q-15 0 -18.5 2t-7.5 12l-39 109l-3 14q2 11 26 11h61q16 0 19.5 -3t3.5 -18zM470 765q-2 -12 -28 -12h-13q-15 0 -18.5 2t-7.5 12l-39 109l-3 14q2 11 26 11h61q16 0 19.5 -3t3.5 -18z" />
    <glyph glyph-name="udblgrave" unicode="&#x215;" horiz-adv-x="483" 
d="M437 44q-5 -26 -16 -35t-37 -9h-20q-27 0 -33.5 9.5t-1.5 34.5l7 31q-56 -85 -138 -85q-75 0 -103.5 32t-13.5 107l64 298q5 27 16 36t38 9h22q27 0 34 -9.5t1 -34.5l-65 -306q-11 -45 -3 -62t46 -17q46 0 78 41.5t43 96.5l53 247q5 26 16 35t37 9h23q27 0 34 -9.5
t1 -34.5zM498 558q-3 -12 -29 -12h-13q-15 0 -18.5 2t-7.5 12l-39 109l-3 14q3 11 27 11h61q16 0 19 -3t3 -18v-115zM340 558q-3 -12 -29 -12h-13q-15 0 -18.5 2t-7.5 12l-39 109l-3 14q3 11 27 11h61q16 0 19 -3t3 -18v-115z" />
    <glyph glyph-name="uni0218" unicode="&#x218;" horiz-adv-x="528" 
d="M515 195q-20 -96 -85.5 -155t-170.5 -59q-102 0 -180 55q-19 13 -22 16.5t-2 10.5q10 32 29 74q6 14 15 14q5 0 14 -10q65 -67 165 -67q107 0 130 110q8 40 -6 67.5t-38 38.5q-3 1 -14 4.5t-25.5 7.5t-22.5 6q-32 9 -47.5 14.5t-34.5 19t-36 36.5q-5 7 -11 19.5
t-13.5 45.5t2.5 69q19 88 82.5 144.5t172.5 56.5q84 0 144 -40q15 -10 17.5 -13t1.5 -9q0 -3 -28 -74q-6 -14 -15 -14q-5 0 -11 7q-48 56 -127 56q-108 0 -129 -99q-9 -40 17 -75q10 -12 24 -17.5t59 -18.5q33 -9 49 -14.5t37.5 -20.5t36.5 -38q40 -64 22 -148zM281 -140
q-4 -18 -14 -32q-34 -50 -54 -77q-7 -11 -11 -13t-18 -2t-18.5 1.5t-3.5 9.5q2 12 44 89q-18 0 -21 3.5t1 20.5l10 48q4 18 8 21t20 3h51q16 0 18 -3t-2 -21z" />
    <glyph glyph-name="uni0219" unicode="&#x219;" horiz-adv-x="364" 
d="M372 140q-32 -150 -186 -150q-50 0 -94 17q-59 25 -55 43q0 3 10 28t13 31q4 12 14 12q6 0 14 -10q40 -52 111 -52q69 0 83 65q4 20 0.5 33.5t-16 21.5t-22 11t-28.5 8q-135 30 -110 148q30 141 185 141q65 0 112 -27q13 -7 15.5 -10t1.5 -9q-4 -14 -15 -37
q-7 -18 -10.5 -22.5t-9.5 -4.5q-5 0 -10 5q-40 43 -104 43q-63 0 -75 -59q-2 -9 -2 -17t2 -14t4.5 -10.5t8.5 -8.5t10.5 -6.5t13.5 -5t13.5 -3.5t15.5 -4q24 -5 36.5 -9t29 -15.5t29.5 -29.5q27 -44 15 -103zM200 -140q-4 -18 -14 -32q-34 -50 -54 -77q-7 -11 -11 -13
t-18 -2q-15 0 -19 1.5t-3 9.5q2 12 44 89q-18 0 -21 3.5t1 20.5l10 48q4 18 8 21t20 3h51q16 0 18 -3t-2 -21z" />
    <glyph glyph-name="uni021A" unicode="&#x21a;" horiz-adv-x="644" 
d="M746 643q-6 -28 -17.5 -36.5t-38.5 -8.5l-179 3l-119 -557q-5 -26 -16 -35t-37 -9h-33q-27 0 -34 9.5t-1 35.5l118 556l-181 -3q-28 0 -35.5 8.5t-1.5 36.5q5 27 16 36t38 9h486q28 0 35 -12t0 -33zM340 -140q-4 -18 -14 -32q-34 -50 -54 -77q-7 -11 -11 -13t-18 -2
q-15 0 -19 1.5t-3 9.5q2 12 44 89q-18 0 -21 3.5t1 20.5l10 48q4 18 8 21t20 3h51q16 0 18 -3t-2 -21z" />
    <glyph glyph-name="uni021B" unicode="&#x21b;" horiz-adv-x="346" 
d="M329 50q-2 -8 -25 -21.5t-62.5 -26t-76.5 -12.5q-89 0 -60 131l61 287h-17q-11 0 -18 1t-14.5 8.5t-4.5 22.5q6 32 51 32h19l19 90q6 27 17.5 36t37.5 9h13q27 0 33.5 -9.5t1.5 -34.5l-20 -91h74q11 0 18 -1t15 -8.5t5 -22.5q-7 -32 -51 -32h-74l-57 -269q-18 -79 17 -79
q39 0 69 28q11 12 17 12q9 0 11 -21q0 -3 0.5 -15t0.5 -14zM190 -140q-4 -18 -14 -32q-34 -50 -54 -77q-7 -11 -11 -13t-18 -2q-15 0 -19 1.5t-3 9.5q2 12 44 89q-18 0 -21 3.5t1 20.5l10 48q4 18 8 21t20 3h51q16 0 18 -3t-2 -21z" />
    <glyph glyph-name="uni0237" unicode="&#x237;" horiz-adv-x="246" 
d="M185 -25q-16 -75 -59 -113.5t-102 -38.5q-38 0 -78 14t-37 27q0 1 6.5 13.5t7.5 15.5q8 15 11.5 19t9.5 4q2 0 12 -6q21 -14 49 -14q25 0 41 12t19.5 22.5t7.5 27.5l100 470q5 26 16 35t37 9h20q27 0 34 -9.5t1 -34.5z" />
    <glyph glyph-name="ereversed" unicode="&#x258;" horiz-adv-x="438" 
d="M462 239q-15 -70 -45.5 -121t-69 -77.5t-77 -38.5t-78.5 -12q-50 0 -94 22q-19 9 -37 24.5t-15 28.5q1 3 5 17t5 19q9 22 14 23q2 1 5 1q5 0 11 -9q39 -62 115 -62q33 0 61 16.5t43.5 37t28 49.5t16.5 44t7 31h-238q-25 0 -32.5 8.5t-2.5 34.5q22 103 80.5 157.5
t145.5 54.5q29 0 54 -7t49.5 -23.5t38 -44.5t19 -71t-8.5 -102zM366 279q10 60 -6.5 102t-64.5 42q-31 0 -53.5 -14t-36.5 -40.5t-20.5 -44t-13.5 -45.5h195z" />
    <glyph glyph-name="schwa" unicode="&#x259;" horiz-adv-x="438" 
d="M462 238q-15 -70 -45 -121.5t-67.5 -77.5t-73.5 -37.5t-72 -11.5q-87 0 -122 54.5t-13 157.5q6 26 17 34.5t36 8.5h238q36 178 -80 178q-77 0 -142 -62q-10 -9 -15 -9q-7 0 -8 5t0 19q3 29 5 36q5 23 74 53q53 22 104 22q40 0 73 -11.5t61.5 -40t35 -76.5t-5.5 -121z
M349 198h-195q-3 -18 -4.5 -29t-3 -30.5t2.5 -32t10.5 -26t21 -20t35.5 -6.5q48 0 82.5 42t50.5 102z" />
    <glyph glyph-name="ringhalfright" unicode="&#x2be;" horiz-adv-x="379" 
d="M422 451q-19 -88 -69 -136t-126 -48q-52 0 -92 26q-14 9 -12 19q6 12 11 27q7 15 10.5 19.5t9.5 4.5q7 0 13 -8q29 -26 70 -26q23 0 40 11.5t27.5 33t15.5 38.5t10 41q3 15 4.5 22t4 24t1 27.5t-5.5 22.5t-14 18t-26 6q-52 0 -95 -39q-8 -8 -15 -8q-8 0 -11 5t0 22
q0 11 3 26q2 8 15.5 18t26.5 17l13 6q37 16 75 16q74 0 105 -49q30 -50 11 -136z" />
    <glyph glyph-name="ringhalfleft" unicode="&#x2bf;" horiz-adv-x="379" 
d="M395 324q-2 -8 -15.5 -18t-26.5 -16l-13 -7q-37 -16 -75 -16q-74 0 -105 49q-30 50 -11 136q19 88 69 136t126 48q52 0 92 -26q14 -9 12 -19q-6 -12 -11 -27q-7 -15 -10.5 -19.5t-9.5 -4.5q-7 0 -14 8q-28 26 -69 26q-23 0 -40 -11.5t-27.5 -33t-15.5 -38.5t-10 -41
q-3 -15 -4.5 -22t-4 -24.5t-1 -27.5t5.5 -22t14 -18t26 -6q52 0 95 39q8 8 15 8q8 0 10.5 -5t0.5 -22q0 -11 -3 -26z" />
    <glyph glyph-name="circumflex" unicode="&#x2c6;" 
d="M518 560q2 -6 -2.5 -13.5t-11.5 -7.5h-47q-4 1 -6 2l-77 101l-119 -101l-6 -2h-47q-7 0 -9 6.5t3 12.5l127 139q4 4 10 4h111q7 0 8 -4z" />
    <glyph glyph-name="caron" unicode="&#x2c7;" 
d="M544 682l-128 -139q-3 -4 -9 -4h-111q-6 0 -9 4l-65 137q-3 6 2 13.5t12 7.5h47q4 -1 6 -2l76 -101l120 101l6 2h47q7 0 9 -6.5t-3 -12.5z" />
    <glyph glyph-name="breve" unicode="&#x2d8;" 
d="M540 655q-9 -42 -56 -73t-129 -31q-81 0 -115 31t-26 73q4 19 16.5 27t23.5 8q27 0 25 -32q-1 -9 8 -15.5t27 -8.5t29.5 -2.5t28.5 -0.5q95 0 104 24q10 35 40 35q11 0 19.5 -8.5t4.5 -26.5z" />
    <glyph glyph-name="dotaccent" unicode="&#x2d9;" horiz-adv-x="264" 
d="M322 608q-6 -28 -17.5 -37.5t-37.5 -9.5h-33q-27 0 -33.5 10t-1.5 37l5 24q7 29 18 38t37 9h33q27 0 34 -9.5t1 -37.5z" />
    <glyph glyph-name="ring" unicode="&#x2da;" horiz-adv-x="699" 
d="M525 609q3 15 -3 22.5t-14 9t-23 1.5q-47 0 -54 -33q-3 -15 3 -22.5t14 -9t23 -1.5q48 0 54 33zM584 609q-15 -74 -122 -74q-9 0 -17 0.5t-25 4.5t-27.5 11t-17.5 22t-3 36q16 74 123 74q12 0 23.5 -1.5t31.5 -7.5t30 -22.5t4 -42.5z" />
    <glyph glyph-name="ogonek" unicode="&#x2db;" 
d="M311 -133q0 -18 -13 -24q-68 -26 -106 -27q-44 -1 -65 26t-12 63q18 74 89 110l67 -3q-47 -30 -60 -82q-9 -36 26 -36q27 0 52 11q5 3 12 0.5t7 -9.5z" />
    <glyph glyph-name="tilde" unicode="&#x2dc;" 
d="M537 663q-8 -35 -41 -68.5t-76 -33.5q-39 0 -73 32q-25 23 -40 23q-27 0 -41 -40q-4 -11 -8 -13t-20 -2h-13q-17 0 -21 2.5t-1 14.5q7 35 40.5 68.5t76.5 33.5q39 0 73 -32q25 -23 40 -23q26 0 40 40q4 11 8.5 13t20.5 2h14q16 0 20 -2.5t1 -14.5z" />
    <glyph glyph-name="hungarumlaut" unicode="&#x2dd;" 
d="M381 683q-1 -4 -9 -14l-85 -109q-8 -10 -12.5 -12t-19.5 -2h-13h-11t-7 1.5t-5 4t0 6.5l48 115q6 15 10.5 18t21.5 3h61q14 0 18.5 -1.5t2.5 -9.5zM539 683q-1 -4 -9 -14l-85 -109q-8 -10 -12.5 -12t-19.5 -2h-13h-11t-7 1.5t-5 4t0 6.5l48 115q6 15 10.5 18t21.5 3h61
q14 0 18.5 -1.5t2.5 -9.5z" />
    <glyph glyph-name="uni0300" unicode="&#x300;" horiz-adv-x="0" 
d="M-42 557q-2 -11 -27 -11h-31l-109 122q-8 8 -7 15q3 11 27 11h61q14 0 17 -1.5t8 -9.5l57 -111z" />
    <glyph glyph-name="uni0301" unicode="&#x301;" horiz-adv-x="0" 
d="M53 683q-1 -6 -13 -15l-161 -122h-31h-10.5t-7.5 1t-5 3.5t0 6.5t12 15l103 111q11 11 31 11h61q14 0 18.5 -1.5t2.5 -9.5z" />
    <glyph glyph-name="uni0302" unicode="&#x302;" horiz-adv-x="0" 
d="M54 560q2 -6 -2.5 -13.5t-11.5 -7.5h-47q-4 1 -6 2l-77 101l-119 -101l-6 -2h-47q-7 0 -9 6.5t3 12.5l127 139q4 4 10 4h111q7 0 8 -4z" />
    <glyph glyph-name="uni0303" unicode="&#x303;" horiz-adv-x="0" 
d="M73 663q-8 -35 -41 -68.5t-76 -33.5q-39 0 -73 32q-25 23 -40 23q-27 0 -41 -40q-4 -11 -8 -13t-20 -2h-13q-17 0 -21 2.5t-1 14.5q7 35 40.5 68.5t76.5 33.5q39 0 73 -32q25 -23 40 -23q26 0 40 40q4 11 8.5 13t20.5 2h14q16 0 20 -2.5t1 -14.5z" />
    <glyph glyph-name="uni0304" unicode="&#x304;" horiz-adv-x="0" 
d="M75 610q-4 -19 -8.5 -22.5t-22.5 -3.5h-291q-19 0 -21.5 3.5t1.5 22.5l4 21q4 19 8.5 22.5t22.5 3.5h292q18 0 20.5 -3.5t-1.5 -22.5z" />
    <glyph glyph-name="uni0306" unicode="&#x306;" horiz-adv-x="0" 
d="M76 655q-9 -42 -56 -73t-129 -31q-81 0 -115 31t-26 73q4 19 16.5 27t23.5 8q27 0 25 -32q-1 -9 8 -15.5t27 -8.5t29.5 -2.5t28.5 -0.5q95 0 104 24q10 35 40 35q11 0 19.5 -8.5t4.5 -26.5z" />
    <glyph glyph-name="uni0307" unicode="&#x307;" horiz-adv-x="0" 
d="M-36 608q-6 -28 -17.5 -37.5t-37.5 -9.5h-33q-27 0 -33.5 10t-1.5 37l5 24q7 29 18 38t37 9h33q27 0 34 -9.5t1 -37.5z" />
    <glyph glyph-name="uni0308" unicode="&#x308;" horiz-adv-x="0" 
d="M-143 609q-5 -25 -15 -33.5t-34 -8.5h-30q-24 0 -30.5 9t-1.5 33l5 22q6 26 16 34t33 8h30q24 0 30.5 -8.5t1.5 -33.5zM60 609q-5 -25 -15 -33.5t-34 -8.5h-30q-24 0 -30.5 9t-1.5 33l5 22q6 26 16 34t33 8h30q24 0 30.5 -8.5t1.5 -33.5z" />
    <glyph glyph-name="uni0309" unicode="&#x309;" horiz-adv-x="0" 
d="M5 654q-6 -34 -37 -53l-3 -1q-33 -18 -47.5 -31t-17.5 -29l-4 -19q-4 -11 -14 -11h-14q-5 0 -7 3.5t-1 7.5l4 19q11 54 59 93q7 7 10 21q4 23 1 29q-4 7 -20 7q-17 0 -34 -15t-28 -39q-1 -3 -3 -5l-4 -2l-2 -1h-3h-4l-3 3l-2 3l-6 40v4l3 6q41 47 94 47q48 0 70 -18
q21 -20 13 -59z" />
    <glyph glyph-name="uni030A" unicode="&#x30a;" horiz-adv-x="0" 
d="M-51 609q3 15 -3 22.5t-14 9t-23 1.5q-47 0 -54 -33q-3 -15 3 -22.5t14 -9t23 -1.5q48 0 54 33zM8 609q-15 -74 -122 -74q-9 0 -17 0.5t-25 4.5t-27.5 11t-17.5 22t-3 36q16 74 123 74q12 0 23.5 -1.5t31.5 -7.5t30 -22.5t4 -42.5z" />
    <glyph glyph-name="uni030B" unicode="&#x30b;" horiz-adv-x="0" 
d="M-83 683q-1 -4 -9 -14l-85 -109q-8 -10 -12.5 -12t-19.5 -2h-13h-11t-7 1.5t-5 4t0 6.5l48 115q6 15 10.5 18t21.5 3h61q14 0 18.5 -1.5t2.5 -9.5zM75 683q-1 -4 -9 -14l-85 -109q-8 -10 -12.5 -12t-19.5 -2h-13h-11t-7 1.5t-5 4t0 6.5l48 115q6 15 10.5 18t21.5 3h61
q14 0 18.5 -1.5t2.5 -9.5z" />
    <glyph glyph-name="uni030C" unicode="&#x30c;" horiz-adv-x="0" 
d="M80 682l-128 -139q-3 -4 -9 -4h-111q-6 0 -9 4l-65 137q-3 6 2 13.5t12 7.5h47q4 -1 6 -2l76 -101l120 101l6 2h47q7 0 9 -6.5t-3 -12.5z" />
    <glyph glyph-name="uni030F" unicode="&#x30f;" horiz-adv-x="0" 
d="M30 558q-3 -12 -29 -12h-13q-15 0 -18.5 2t-7.5 12l-39 109l-3 14q3 11 27 11h61q16 0 19 -3t3 -18v-115zM-128 558q-3 -12 -29 -12h-13q-15 0 -18.5 2t-7.5 12l-39 109l-3 14q3 11 27 11h61q16 0 19 -3t3 -18v-115z" />
    <glyph glyph-name="uni0311" unicode="&#x311;" horiz-adv-x="0" 
d="M62 586q-5 -19 -17.5 -27t-22.5 -8q-29 0 -25 32q1 9 -8 15.5t-27 8.5t-29.5 2.5t-28.5 0.5q-95 0 -104 -24q-14 -35 -40 -35q-11 0 -19.5 8.5t-4.5 26.5q9 42 56 73t129 31q81 0 115 -31t26 -73z" />
    <glyph glyph-name="uni0323" unicode="&#x323;" horiz-adv-x="0" 
d="M-198 -153q-5 -27 -16.5 -37t-38.5 -10h-33q-27 0 -33.5 10t-1.5 37l6 24q6 28 17.5 37.5t37.5 9.5h33q27 0 34 -9.5t1 -37.5z" />
    <glyph glyph-name="uni0326" unicode="&#x326;" horiz-adv-x="0" 
d="M-209 -140q-4 -18 -14 -32q-34 -50 -54 -77q-7 -11 -11 -13t-18 -2t-18.5 1.5t-3.5 9.5q2 12 44 89q-18 0 -21 3.5t1 20.5l10 48q4 18 8 21t20 3h51q16 0 18 -3t-2 -21z" />
    <glyph glyph-name="uni032E" unicode="&#x32e;" horiz-adv-x="0" 
d="M-86 -106q-9 -42 -56 -73t-129 -31q-81 0 -115 31t-26 73q5 19 17.5 27t22.5 8q29 0 25 -32q-1 -9 8 -15.5t27 -8.5t29.5 -2.5t28.5 -0.5q95 0 104 24q14 35 40 35q11 0 19.5 -8.5t4.5 -26.5z" />
    <glyph glyph-name="uni032F" unicode="&#x32f;" horiz-adv-x="0" 
d="M-100 -175q-4 -19 -16.5 -27t-23.5 -8q-27 0 -25 32q1 9 -8 15.5t-27 8.5t-29.5 2.5t-28.5 0.5q-95 0 -104 -24q-10 -35 -40 -35q-11 0 -19.5 8.5t-4.5 26.5q9 42 56 73t129 31q81 0 115 -31t26 -73z" />
    <glyph glyph-name="uni0330" unicode="&#x330;" horiz-adv-x="0" 
d="M-89 -98q-7 -35 -40.5 -68.5t-76.5 -33.5q-39 0 -73 32q-25 23 -40 23q-26 0 -40 -40q-4 -11 -8.5 -13t-20.5 -2h-13q-17 0 -21 2.5t-1 14.5q8 35 41 68.5t76 33.5q39 0 73 -32q25 -23 40 -23q27 0 41 40q4 11 8 13t20 2h14q16 0 20 -2.5t1 -14.5z" />
    <glyph glyph-name="uni0331" unicode="&#x331;" horiz-adv-x="0" 
d="M-87 -151q-4 -19 -8.5 -22.5t-22.5 -3.5h-291q-19 0 -21.5 3.5t1.5 22.5l4 21q4 19 8.5 22.5t22.5 3.5h292q18 0 20.5 -3t-1.5 -23z" />
    <glyph glyph-name="uni0332" unicode="&#x332;" horiz-adv-x="0" 
d="M-87 -151q-4 -19 -8.5 -22.5t-22.5 -3.5h-291q-19 0 -21.5 3.5t1.5 22.5l4 21q4 19 8.5 22.5t22.5 3.5h292q18 0 20.5 -3t-1.5 -23z" />
    <glyph glyph-name="Alpha" unicode="&#x391;" horiz-adv-x="636" 
d="M605 25q-5 -25 -43 -25h-34q-31 0 -39 11.5t-12 52.5l-11 107h-242l-69 -131q-8 -14 -13 -21t-18.5 -13t-34.5 -6h-16q-10 0 -16.5 1t-12.5 7t-4 17l8 16l324 616q20 37 65 37h57q14 0 21.5 -1t16.5 -10t10 -27l62 -617zM459 246l-16 185q-12 107 -9 157h-1
q-11 -33 -71 -149l-99 -193h196z" />
    <glyph glyph-name="Beta" unicode="&#x392;" horiz-adv-x="635" 
d="M622 192q-8 -37 -26.5 -69.5t-50 -61t-81.5 -45t-113 -16.5h-225q-27 0 -34 9.5t-1 35.5l128 604q6 27 17.5 36t37.5 9h200q118 0 162.5 -51t28.5 -127q-12 -59 -57.5 -98.5t-112.5 -54.5q84 -15 112 -61.5t15 -109.5zM553 514q6 30 -3 51.5t-24 31t-38.5 15.5t-35 6.5
t-24.5 0.5h-99l-48 -226h99q77 0 119.5 34t53.5 87zM508 194q8 38 -1 65.5t-24.5 40.5t-41 20t-38.5 8t-28 1h-108l-54 -254h124q70 0 114.5 30.5t56.5 88.5z" />
    <glyph glyph-name="Gamma" unicode="&#x393;" horiz-adv-x="514" 
d="M610 646q-6 -30 -18 -37.5t-40 -7.5l-190 3h-31l-119 -560q-5 -26 -16 -35t-37 -9h-33q-27 0 -34 9.5t-1 35.5l127 601q6 27 17.5 36t37.5 9h303q28 0 34.5 -12t-0.5 -33z" />
    <glyph glyph-name="Delta" unicode="&#x394;" horiz-adv-x="792" 
d="M745 24q-5 -24 -43 -24h-613q-12 0 -18 1t-11.5 6.5t-3.5 16.5q2 7 10 19l378 613q11 18 25 26.5t22.5 10t24.5 1.5h55q16 0 24 -1.5t17.5 -10.5t12.5 -27l118 -612q3 -13 2 -19zM598 110l-87 481l-292 -481h379z" />
    <glyph glyph-name="Epsilon" unicode="&#x395;" horiz-adv-x="567" 
d="M535 44q-5 -26 -16 -35t-37 -9h-356q-27 0 -34 9.5t-1 35.5l127 601q6 27 17.5 36t37.5 9h343q28 0 34.5 -12t-0.5 -33q-4 -22 -13 -32t-18 -11.5t-30 -1.5l-212 3h-46l-43 -205h240q11 0 16 -0.5t13 -4.5t7.5 -12.5t-1.5 -23.5q-4 -19 -13.5 -28t-17 -10.5t-21.5 -1.5
h-240l-48 -226q18 2 132 2l141 2q12 0 17 -0.5t13.5 -2.5t9 -6.5t3.5 -13t-2 -21.5z" />
    <glyph glyph-name="Zeta" unicode="&#x396;" horiz-adv-x="581" 
d="M543 45q-6 -25 -16 -35t-38 -10h-392q-27 0 -34 11t0 34q5 22 16 35l437 533h-36l-230 -3h-16t-12.5 1.5t-10.5 4t-6 7t-2.5 12t2.5 17.5q4 19 13.5 29t17.5 11.5t23 1.5h372q24 0 32 -8.5t2 -34.5q-3 -18 -16 -33l-436 -531l289 4q29 0 38 -7.5t3 -38.5z" />
    <glyph glyph-name="Eta" unicode="&#x397;" horiz-adv-x="678" 
d="M605 44q-5 -26 -16 -35t-37 -9h-34q-27 0 -33.5 9.5t-1.5 34.5l59 276h-271l-59 -276q-5 -26 -16 -35t-37 -9h-33q-27 0 -34 9.5t-1 35.5l128 604q6 27 17.5 36t37.5 9h33q27 0 33.5 -9.5t0.5 -34.5l-53 -249h271l53 249q5 26 16.5 35t37.5 9h34q27 0 33.5 -9.5
t0.5 -34.5z" />
    <glyph glyph-name="Theta" unicode="&#x398;" horiz-adv-x="739" 
d="M758 342q-37 -172 -139 -267q-101 -94 -254 -94q-75 0 -132 25.5t-85 72.5q-58 95 -22 263q37 177 144 277q99 94 251 94q149 0 212 -94q62 -98 25 -277zM642 343q29 136 6 207q-32 99 -141 99q-112 0 -187 -103q-50 -71 -78 -203q-64 -295 137 -295q199 0 263 295z
M587 338q-6 -27 -18 -36t-39 -9h-198q-28 0 -35.5 9.5t-1.5 35.5l4 21q6 27 18 36t39 9h198q28 0 35.5 -9.5t1.5 -35.5z" />
    <glyph glyph-name="Iota" unicode="&#x399;" horiz-adv-x="283" 
d="M211 44q-5 -26 -16 -35t-37 -9h-33q-27 0 -34 9.5t-1 35.5l128 604q6 27 17.5 36t37.5 9h33q27 0 33.5 -9.5t0.5 -34.5z" />
    <glyph glyph-name="Kappa" unicode="&#x39a;" horiz-adv-x="663" 
d="M611 27q-3 -13 -9 -19t-12 -7t-19 -1h-39q-21 0 -28 3.5t-13 19.5l-132 306l-120 -106l-38 -179q-5 -26 -16 -35t-37 -9h-22q-27 0 -34 9.5t-1 35.5l128 604q6 27 17.5 36t37.5 9h22q27 0 33.5 -9.5t0.5 -34.5l-61 -289l352 312q24 21 57 21h37q10 0 15.5 -0.5t10 -5
t2.5 -13.5q-1 -6 -16 -20l-279 -248z" />
    <glyph glyph-name="Lambda" unicode="&#x39b;" horiz-adv-x="583" 
d="M553 25q-5 -25 -44 -25h-35q-15 0 -22.5 1.5t-15.5 10.5t-9 28l-21 375q-7 117 -1 169h-1q-8 -28 -59 -142l-70 -151l-122 -251q-13 -27 -28 -33.5t-37 -6.5h-15q-10 0 -16.5 1t-13 7t-4.5 17q1 3 8 15l300 616q9 18 21 27t20.5 10t22.5 1h56q14 0 21.5 -1.5t15.5 -10
t9 -26.5l40 -614v-17z" />
    <glyph glyph-name="Mu" unicode="&#x39c;" horiz-adv-x="836" 
d="M763 44q-5 -26 -16 -35t-37 -9h-16q-27 0 -33.5 9.5t-1.5 34.5l115 540q-3 -12 -61 -121.5t-66 -123.5l-155 -278q-15 -27 -28.5 -34.5t-43.5 -7.5q-17 0 -25.5 1.5t-18 10.5t-11.5 27l-34 264l-14 132q-9 106 -7 130h-1l-115 -540q-5 -26 -16 -35t-37 -9h-15
q-27 0 -34 9.5t-1 35.5l128 604q6 27 17.5 36t37.5 9h62q14 0 22 -1.5t17 -10.5t11 -27l34 -263l15 -136q11 -101 8 -130h1q7 21 59 122l66 123l157 281q8 15 13.5 22t19.5 13.5t35 6.5h64q27 0 33.5 -9.5t0.5 -34.5z" />
    <glyph glyph-name="Nu" unicode="&#x39d;" horiz-adv-x="678" 
d="M605 44q-5 -26 -16 -35t-37 -9h-73q-27 0 -38.5 8t-15.5 32l-96 442q-15 73 -18 106h-1l-116 -544q-5 -26 -16 -35t-37 -9h-15q-27 0 -34 9.5t-1 35.5l128 604q6 27 17.5 36t37.5 9h72q27 0 38 -8t16 -32l95 -442q17 -83 19 -106h1l115 544q5 26 16.5 35t37.5 9h16
q27 0 33.5 -9.5t0.5 -34.5z" />
    <glyph glyph-name="Xi" unicode="&#x39e;" horiz-adv-x="633" 
d="M721 630q-6 -31 -19 -37.5t-50 -6.5l-211 2l-211 -2q-37 0 -47 6.5t-4 37.5l3 13q5 27 16.5 36t37.5 9h453q27 0 33.5 -9.5t1.5 -34.5zM601 44q-5 -26 -16 -35t-37 -9h-463q-27 0 -34 9.5t-1 35.5l2 13q7 31 20 37.5t51 6.5l214 -2l216 2q38 0 48 -6.5t3 -37.5zM601 352
q-5 -26 -16.5 -35t-37.5 -9h-332q-27 0 -33.5 9.5t-0.5 34.5l2 11q6 27 17.5 36t37.5 9h331q27 0 33.5 -9.5t0.5 -34.5z" />
    <glyph glyph-name="Omicron" unicode="&#x39f;" horiz-adv-x="697" 
d="M716 342q-38 -177 -137 -270q-96 -91 -235 -91q-67 0 -118 23.5t-77 63.5q-62 96 -23 274q35 164 121 261q47 53 114 81.5t139 28.5q159 0 211 -125q37 -91 5 -246zM597 358q28 134 8 198q-8 27 -23.5 45.5t-34 27t-33 11.5t-29.5 3q-91 0 -154 -82q-48 -61 -80 -203
q-28 -130 -13 -201q13 -59 48 -81.5t73 -22.5q98 0 165 103q46 73 73 202z" />
    <glyph glyph-name="Pi" unicode="&#x3a0;" horiz-adv-x="678" 
d="M605 44q-5 -26 -16 -35t-37 -9h-34q-27 0 -33.5 9.5t-1.5 34.5l121 566h-271l-121 -566q-5 -26 -16 -35t-37 -9h-33q-27 0 -34 9.5t-1 35.5l127 601q6 27 17.5 36t37.5 9h426q27 0 33.5 -9.5t1.5 -34.5z" />
    <glyph glyph-name="Rho" unicode="&#x3a1;" horiz-adv-x="608" 
d="M657 484q-12 -57 -40.5 -99.5t-65.5 -64.5t-74.5 -32t-76.5 -10h-138l-50 -234q-5 -26 -16 -35t-37 -9h-33q-27 0 -34 9.5t-1 35.5l128 604q6 27 17.5 36t37.5 9h206q109 0 153.5 -56.5t23.5 -153.5zM543 483q5 23 6.5 40t-2.5 36.5t-16 31.5t-36.5 20t-60.5 8h-102
l-58 -272h102q46 0 77.5 11.5t49 33.5t26 42t14.5 49z" />
    <glyph glyph-name="Sigma" unicode="&#x3a3;" horiz-adv-x="686" 
d="M641 44q-5 -26 -16 -35t-37 -9h-490q-11 0 -18 1t-15 8.5t-5 22.5q2 11 16 26l259 279l-142 280q-6 14 -2 34q6 27 18.5 35t36.5 8h490q28 0 34.5 -12t-0.5 -33q-4 -17 -8.5 -26t-14.5 -13.5t-18.5 -5t-28.5 -0.5l-291 3h-60l119 -235q7 -12 5 -25q-2 -9 -17 -25
l-210 -229h62l284 3q37 0 47 -6.5t4 -37.5z" />
    <glyph glyph-name="Tau" unicode="&#x3a4;" horiz-adv-x="644" 
d="M746 643q-6 -28 -17.5 -36.5t-38.5 -8.5l-179 3l-119 -557q-5 -26 -16 -35t-37 -9h-33q-27 0 -34 9.5t-1 35.5l118 556l-181 -3q-28 0 -35.5 8.5t-1.5 36.5q5 27 16 36t38 9h486q28 0 35 -12t0 -33z" />
    <glyph glyph-name="Upsilon" unicode="&#x3a5;" horiz-adv-x="739" 
d="M804 559q-8 -36 -54 -36h-19q-25 0 -33 7.5t-5 30.5t-7 41.5t-36 18.5q-56 0 -94 -87q-23 -51 -42 -137l-75 -353q-5 -26 -16 -35t-37 -9h-33q-27 0 -34 9.5t-1 35.5l74 352q17 74 17 131q2 93 -57 93q-25 0 -43 -17.5t-26 -43.5q-5 -17 -14.5 -25.5t-17 -10t-22.5 -1.5
h-19q-13 0 -20 1t-14.5 9.5t-3.5 25.5q13 59 70.5 106.5t128.5 47.5q116 0 113 -169h1q67 169 186 169q71 0 108.5 -47.5t24.5 -106.5z" />
    <glyph glyph-name="Phi" unicode="&#x3a6;" horiz-adv-x="686" 
d="M706 347q-20 -94 -90 -161t-195 -79l-14 -63q-5 -26 -16 -35t-37 -9h-27q-27 0 -34 9.5t-1 35.5l13 62q-62 7 -103.5 31t-58.5 56.5t-22 72.5t6 80q19 93 88 159.5t192 80.5l13 62q6 27 17.5 36t37.5 9h27q27 0 33.5 -9.5t0.5 -34.5l-13 -63q63 -6 105.5 -29.5t60 -56
t23 -73t-5.5 -81.5zM319 174l74 346q-40 -8 -68.5 -28.5t-44 -49.5t-22 -48.5t-12.5 -46.5q-32 -148 73 -173zM587 347q5 22 7 39t0.5 41t-9.5 41t-27 32t-49 21l-74 -348q120 23 152 174z" />
    <glyph glyph-name="Chi" unicode="&#x3a7;" horiz-adv-x="636" 
d="M609 27q-3 -13 -9 -19t-11.5 -7t-18.5 -1h-56q-20 0 -27 3.5t-13 18.5l-105 252l-206 -252q-12 -15 -21.5 -18.5t-28.5 -3.5h-48q-11 0 -16.5 0.5t-10.5 5.5t-3 15q2 7 13 19l282 327l-137 287q-6 12 -5 20q5 20 39 20h56q20 0 26.5 -3.5t12.5 -17.5l89 -202l172 205
q15 18 47 18h49q10 0 15.5 -0.5t10.5 -5.5t3 -15q-1 -5 -12 -17l-248 -289z" />
    <glyph glyph-name="Psi" unicode="&#x3a8;" horiz-adv-x="739" 
d="M809 583q-6 -29 -39 -32q-20 -26 -44 -135q-56 -273 -279 -308l-14 -64q-5 -26 -16 -35t-37 -9h-27q-27 0 -34 9.5t-1 35.5l13 64q-41 7 -71.5 24t-47.5 37.5t-26 51t-11 54.5t1 58.5t6.5 53t9.5 46.5q19 88 10 117q-31 3 -25 32q7 32 52 32h29q51 0 61.5 -40.5
t-11.5 -140.5q-6 -28 -8.5 -40.5t-6.5 -41t-4 -44t1.5 -39.5t8 -38.5t18.5 -28.5t29 -22l100 469q6 27 17.5 36t37.5 9h27q27 0 33.5 -9.5t0.5 -34.5l-100 -471q36 12 63 39t44 66t25 66.5t17 66.5q23 108 49 153t82 45h30q11 0 18 -1t14.5 -8.5t4.5 -22.5z" />
    <glyph glyph-name="Omega" unicode="&#x3a9;" horiz-adv-x="686" 
d="M652 44q-5 -26 -16 -35t-37 -9h-162q-10 0 -15 0.5t-13.5 4.5t-8.5 12t1 23q15 73 92 196q59 92 82.5 136t33.5 93q39 184 -129 184q-167 0 -206 -184q-16 -75 12 -203q31 -145 15 -223q-4 -18 -13.5 -27t-17.5 -10.5t-21 -1.5h-162q-29 0 -35.5 11.5t0.5 35.5
q7 33 19.5 40t44.5 7q8 0 23 -0.5t22 -0.5h57q15 0 22 -1q-6 47 -44 135q-13 30 -19.5 45.5t-15.5 43t-12 48t-3 47.5t6 53q9 43 30 82.5t59 79t104 63.5t150 24q56 0 99.5 -11t70 -30.5t44 -43.5t23 -53t5.5 -56t-6 -55q-9 -43 -34.5 -88t-48 -74t-66.5 -79
q-72 -82 -97 -131q6 1 22 1h57q8 0 23 0.5t22 0.5h16.5t13 -1.5t10 -4t5.5 -7.5t2.5 -12.5t-2.5 -18.5z" />
    <glyph glyph-name="baht" unicode="&#xe3f;" horiz-adv-x="635" 
d="M622 192q-17 -80 -83.5 -135.5t-186.5 -56.5l-14 -65q-2 -8 -9 -14.5t-16 -6.5h-43q-9 0 -14.5 6.5t-3.5 14.5l14 65h-140q-27 0 -34 9.5t-1 35.5l128 604q6 27 17.5 36t37.5 9h140l13 65q2 9 10 15t17 6h43q9 0 13.5 -6t2.5 -15l-14 -66q104 -6 142.5 -55.5t23.5 -121.5
q-12 -59 -57.5 -98.5t-112.5 -54.5q84 -15 112 -61.5t15 -109.5zM553 514q17 80 -71 99l-45 -214q96 23 116 115zM350 393l48 226h-69l-48 -226h69zM508 194q13 63 -14.5 93t-72.5 38l-53 -248q119 13 140 117zM282 75l54 254h-69l-54 -254h69z" />
    <glyph glyph-name="Ddotbelow" unicode="&#x1e0c;" horiz-adv-x="688" 
d="M706 342q-36 -168 -134 -257q-92 -85 -227 -85h-219q-27 0 -34 9.5t-1 35.5l128 604q6 27 17.5 36t37.5 9h218q68 0 122 -27t80 -80q44 -93 12 -245zM587 342q5 26 8 41.5t6 48t0.5 54t-11.5 49t-26.5 44t-48 28.5t-72.5 12h-111l-116 -544h112q42 0 77.5 11t59.5 27
t44.5 42.5t32 47.5t22 52t14.5 46.5t9 40.5zM284 -153q-5 -27 -16.5 -37t-38.5 -10h-33q-27 0 -33.5 10t-1.5 37l6 24q6 28 17.5 37.5t37.5 9.5h33q27 0 34 -9.5t1 -37.5z" />
    <glyph glyph-name="ddotbelow" unicode="&#x1e0d;" horiz-adv-x="483" 
d="M435 44q-5 -26 -16 -35t-37 -9h-23q-27 0 -33.5 9.5t-1.5 34.5q-5 -6 -17 -16.5t-41.5 -24t-59.5 -13.5q-92 0 -124 81q-23 62 0 165q25 114 81 176q62 70 152 70q65 0 95 -49l46 217q5 26 16.5 35t37.5 9h20q27 0 33.5 -9.5t0.5 -34.5zM336 101l61 283l-3 3
q-2 3 -4.5 6.5t-8 8t-11.5 8t-15 6t-19 2.5q-30 0 -54 -14t-37.5 -31.5t-25.5 -47t-16 -46.5t-10 -44q-6 -28 -8.5 -43.5t-4.5 -45.5t3.5 -47t21.5 -31t43 -14q49 0 88 47zM270 -153q-5 -27 -16.5 -37t-38.5 -10h-33q-27 0 -33.5 10t-1.5 37l6 24q6 28 17.5 37.5t37.5 9.5
h33q27 0 34 -9.5t1 -37.5z" />
    <glyph glyph-name="Dlinebelow" unicode="&#x1e0e;" horiz-adv-x="688" 
d="M706 342q-36 -168 -134 -257q-92 -85 -227 -85h-219q-27 0 -34 9.5t-1 35.5l128 604q6 27 17.5 36t37.5 9h218q68 0 122 -27t80 -80q44 -93 12 -245zM587 342q5 26 8 41.5t6 48t0.5 54t-11.5 49t-26.5 44t-48 28.5t-72.5 12h-111l-116 -544h112q42 0 77.5 11t59.5 27
t44.5 42.5t32 47.5t22 52t14.5 46.5t9 40.5zM396 -151q-4 -19 -8.5 -22.5t-22.5 -3.5h-291q-19 0 -21.5 3.5t1.5 22.5l4 21q4 19 8.5 22.5t22.5 3.5h292q18 0 20.5 -3t-1.5 -23z" />
    <glyph glyph-name="dlinebelow" unicode="&#x1e0f;" horiz-adv-x="483" 
d="M435 44q-5 -26 -16 -35t-37 -9h-23q-27 0 -33.5 9.5t-1.5 34.5q-5 -6 -17 -16.5t-41.5 -24t-59.5 -13.5q-92 0 -124 81q-23 62 0 165q25 114 81 176q62 70 152 70q65 0 95 -49l46 217q5 26 16.5 35t37.5 9h20q27 0 33.5 -9.5t0.5 -34.5zM336 101l61 283l-3 3
q-2 3 -4.5 6.5t-8 8t-11.5 8t-15 6t-19 2.5q-30 0 -54 -14t-37.5 -31.5t-25.5 -47t-16 -46.5t-10 -44q-6 -28 -8.5 -43.5t-4.5 -45.5t3.5 -47t21.5 -31t43 -14q49 0 88 47zM381 -151q-4 -19 -8.5 -22.5t-22.5 -3.5h-291q-19 0 -21.5 3.5t1.5 22.5l4 21q4 19 8.5 22.5
t22.5 3.5h292q18 0 20.5 -3t-1.5 -23z" />
    <glyph glyph-name="Hdotbelow" unicode="&#x1e24;" horiz-adv-x="678" 
d="M605 44q-5 -26 -16 -35t-37 -9h-34q-27 0 -33.5 9.5t-1.5 34.5l59 276h-271l-59 -276q-5 -26 -16 -35t-37 -9h-33q-27 0 -34 9.5t-1 35.5l128 604q6 27 17.5 36t37.5 9h33q27 0 33.5 -9.5t0.5 -34.5l-53 -249h271l53 249q5 26 16.5 35t37.5 9h34q27 0 33.5 -9.5
t0.5 -34.5zM367 -153q-5 -27 -16.5 -37t-38.5 -10h-33q-27 0 -33.5 10t-1.5 37l6 24q6 28 17.5 37.5t37.5 9.5h33q27 0 34 -9.5t1 -37.5z" />
    <glyph glyph-name="hdotbelow" unicode="&#x1e25;" horiz-adv-x="483" 
d="M437 44q-5 -26 -16 -35t-37 -9h-23q-27 0 -33.5 9.5t-1.5 34.5l63 294q10 42 2 61t-39 19q-39 0 -76.5 -35.5t-50.5 -99.5l-51 -239q-5 -26 -16 -35t-37 -9h-22q-27 0 -34 9.5t-1 35.5l128 604q6 27 17.5 36t37.5 9h19q27 0 33.5 -9.5t0.5 -34.5l-56 -263h1q64 95 157 95
q72 0 92.5 -36.5t6.5 -103.5zM269 -153q-5 -27 -16.5 -37t-38.5 -10h-33q-27 0 -33.5 10t-1.5 37l6 24q6 28 17.5 37.5t37.5 9.5h33q27 0 34 -9.5t1 -37.5z" />
    <glyph glyph-name="Hdieresis" unicode="&#x1e26;" horiz-adv-x="678" 
d="M605 44q-5 -26 -16 -35t-37 -9h-34q-27 0 -33.5 9.5t-1.5 34.5l59 276h-271l-59 -276q-5 -26 -16 -35t-37 -9h-33q-27 0 -34 9.5t-1 35.5l128 604q6 27 17.5 36t37.5 9h33q27 0 33.5 -9.5t0.5 -34.5l-53 -249h271l53 249q5 26 16.5 35t37.5 9h34q27 0 33.5 -9.5
t0.5 -34.5zM442 785q-5 -25 -15.5 -33.5t-34.5 -8.5h-30q-24 0 -30 9t-1 33l4 22q6 26 16 34t33 8h30q24 0 31 -8.5t1 -33.5zM683 785q-5 -25 -15.5 -33.5t-34.5 -8.5h-30q-24 0 -30 9t-1 33l4 22q6 26 16 34t33 8h30q24 0 31 -8.5t1 -33.5z" />
    <glyph glyph-name="hdieresis" unicode="&#x1e27;" horiz-adv-x="483" 
d="M437 44q-5 -26 -16 -35t-37 -9h-23q-27 0 -33.5 9.5t-1.5 34.5l63 294q10 42 2 61t-39 19q-39 0 -76.5 -35.5t-50.5 -99.5l-51 -239q-5 -26 -16 -35t-37 -9h-22q-27 0 -34 9.5t-1 35.5l128 604q6 27 17.5 36t37.5 9h19q27 0 33.5 -9.5t0.5 -34.5l-56 -263h1q64 95 157 95
q72 0 92.5 -36.5t6.5 -103.5zM344 785q-5 -25 -15.5 -33.5t-34.5 -8.5h-30q-24 0 -30 9t-1 33l4 22q6 26 16 34t33 8h30q24 0 31 -8.5t1 -33.5zM585 785q-5 -25 -15.5 -33.5t-34.5 -8.5h-30q-24 0 -30 9t-1 33l4 22q6 26 16 34t33 8h30q24 0 31 -8.5t1 -33.5z" />
    <glyph glyph-name="Hbrevebelow" unicode="&#x1e2a;" horiz-adv-x="678" 
d="M605 44q-5 -26 -16 -35t-37 -9h-34q-27 0 -33.5 9.5t-1.5 34.5l59 276h-271l-59 -276q-5 -26 -16 -35t-37 -9h-33q-27 0 -34 9.5t-1 35.5l128 604q6 27 17.5 36t37.5 9h33q27 0 33.5 -9.5t0.5 -34.5l-53 -249h271l53 249q5 26 16.5 35t37.5 9h34q27 0 33.5 -9.5
t0.5 -34.5zM479 -106q-9 -42 -56 -73t-129 -31q-81 0 -115 31t-26 73q5 19 17.5 27t22.5 8q29 0 25 -32q-1 -9 8 -15.5t27 -8.5t29.5 -2.5t28.5 -0.5q95 0 104 24q14 35 40 35q11 0 19.5 -8.5t4.5 -26.5z" />
    </font>
</defs>
</svg>
